<?xml version="1.0"?>

<svg xmlns="http://www.w3.org/2000/svg" viewBox="0 0 788 270.1" height="270.1" width="788">

   <path d="m 514.8,214.8 c -1.7,-1.1 -1.7,-3.3 -0.1,-8.8 0.6,-2.3 2.4,-10.8 4,-19 5,-24.7 6.5,-33.5 11.1,-62.3 0.4,-3.2 0.8,-7.7 0.8,-10.1 l 0,-4.3 3.1,-1.2 c 6.1,-2.5 9.3,-2.4 10.5,0.2 1,2 0.8,4.6 -0.5,11 -0.6,3 -2.4,11.4 -3.9,18.6 -1.5,7.2 -2.9,14.4 -3.2,16 -0.7,3.6 -7,35.3 -7.7,38.6 -0.3,1.3 -1.4,6.7 -2.5,12 -1.9,9.5 -1.9,9.5 -3.6,9.9 -3.2,0.6 -6.7,0.3 -8,-0.6 z m 168,-8.2 c 8.3,-2.7 14.9,-5.7 27.9,-12.7 13,-7.1 21.3,-12.5 27.2,-18.2 3,-3.3 8.3,-9.8 10.1,-13.4 11.2,-18.7 8.9,-33.8 -5.9,-41.2 -7.7,-4 -16.6,-5.3 -32,-5 -11.3,0.3 -12.4,0.5 -16,1.8 -4.7,1.8 -8.3,4.8 -10.1,9.1 -2.3,4.9 -3.5,7.8 -5.3,18.1 -0.6,5 -1.8,11.8 -2.4,14.8 0,3.1 -1.1,9.5 -2.3,14.3 -5.4,27.1 -6.5,32 -4.8,33.7 1.8,1.4 7.7,0.8 13.6,-1.3 z m -29,11.2 c -1.2,-1.1 -1.2,-1.9 -0.6,-7.6 0.6,-2.4 1.8,-6.6 2.4,-9.6 0,-2.9 1.2,-7.2 1.8,-9.5 0,-2.3 1.2,-6.5 1.8,-9.5 0,-2.9 1.1,-7.2 1.1,-9.5 0.6,-2.3 1.8,-6.4 1.8,-9.2 0.6,-2.8 1.8,-7.7 2.4,-11 1.2,-6.1 2.4,-14.1 6.5,-36.1 0.6,-4 1.8,-7.5 2.4,-8.2 1.8,-2.5 17.1,-3.6 29,-2.2 29.6,3.4 52.7,14 60.4,27.5 3.6,5.6 4.1,15.2 1.8,21.8 -3,8.7 -11.3,19.7 -21.3,28 -2.4,1.7 -4.2,3.4 -4.8,3.8 -4.1,3.5 -15.4,11.3 -18.9,13.2 -4.8,2.2 -14.8,6.5 -19,8.1 -1.2,0.4 -3.5,1.3 -5.3,2 -5.9,2.4 -16,5.5 -22.5,7.2 -7.7,2 -16.6,2.4 -19,0.8 z m -109.4,-0.1 c -1.6,-3.1 -1.1,-8.4 1.6,-21 0.8,-3 1.5,-6.9 1.8,-8.6 0.3,-1.6 1.2,-6.1 2,-10.1 0.9,-3.9 2,-8.8 2.5,-10.9 0.4,-2.2 1.6,-7.5 2.6,-11.9 2.7,-12.2 4.6,-22.4 5.1,-27.3 0.7,-8.1 1.4,-11.2 3.2,-12.4 2.3,-1.6 5.2,-2.4 8.4,-2.4 2.3,0 3.1,0.2 4.3,1.6 1.4,1.4 3.9,7.1 3.9,8.7 0,0.4 1.4,5.1 3.2,10.5 10,30.2 20.7,55 27.6,63.6 4.7,6.1 9.5,10.5 11.3,10.5 2.3,0 4.1,-4.7 6.5,-19 0,-3.7 2.3,-13.4 3.5,-21.6 1.8,-8.2 3,-15.5 3.6,-16.4 1.2,-6.3 5.9,-31.7 6.5,-33.7 0.6,-1.9 1.2,-2.6 2.4,-2.8 1.1,-0.4 8.2,-0.1 8.2,0.4 0.6,0.6 -7.1,37.9 -10,48.6 -3.6,14.8 -6.5,28.9 -7.7,38.3 -0.6,3.9 -1.8,8 -1.8,9.1 -2.4,6.3 -13.6,4.2 -23.5,-4.2 -9.1,-7.9 -17.9,-20.4 -24.9,-35.5 -4.4,-9.3 -5.1,-11 -8.2,-18.7 -3.2,-7.9 -4.2,-9.7 -5.6,-9.8 -1.9,0 -3.4,3.5 -6.4,14.9 -3.2,11.8 -9.6,42.5 -10.9,52.4 l -0.7,5.3 -2.6,1.7 c -3.1,1.9 -5.1,2.2 -5.9,0.7 z m -171.6,0.5 c -1,-0.6 -2.4,-1.9 -3.1,-2.8 -3,-3.8 -5.8,-14.6 -8.1,-32 -3.3,-24.6 -10.6,-59.8 -12.8,-62.3 -0.9,-0.9 -0.6,-3.1 0.5,-4.1 2,-1.8 12.2,-1 14.3,1.1 0.8,0.8 0.9,2.1 0.8,7.6 -0.3,8.5 1.8,22.1 6.9,45.8 2,9.1 3.6,20.3 3.6,24.8 0,2.3 0.2,2.9 1.5,3.8 1.1,0.7 1.9,0.9 2.5,0.4 0.9,-0.5 8.1,-11.7 9.9,-15.3 0.5,-1 1.2,-2.2 1.5,-2.7 2.4,-4 5.9,-10.2 5.9,-10.3 0,-0.1 1.9,-3.5 4,-7.6 2.2,-4 5,-9 6.1,-11.2 1.1,-2.1 2.9,-5.4 4,-7.4 2.6,-4.9 4.6,-9 5.8,-12.2 2,-5.4 3.3,-8 4.9,-10 1.6,-1.9 2,-2.1 5.5,-2.3 3,-0.2 4.5,0 6.6,0.9 3.8,1.7 4.9,4.4 5.7,13.8 0.7,8.4 1.1,10.4 3.6,22.6 4.5,21.1 9.5,39.7 10.9,39.7 0.4,0 1.3,-0.6 2,-1.3 2.4,-2.8 15.9,-22.8 19.7,-29.4 0.8,-1.4 3.1,-5.2 5.1,-8.4 2.1,-3.3 3.8,-6.2 3.8,-6.5 0,-0.3 0.1,-0.7 0.4,-0.8 0.4,-0.1 6.2,-9.5 8.2,-13.2 0.6,-1.2 2.6,-4.5 4.2,-7.2 0.4,-0.6 2,-3.7 3.7,-6.8 5.6,-10.7 6.1,-11.6 8.4,-12.8 1.5,-0.8 2,-0.7 4.3,0.4 4.5,2.1 4.5,2.2 0.2,8.7 -2.1,3.2 -5.3,8.3 -7.3,11.3 -1.9,3 -4.4,6.9 -5.5,8.6 -1.1,1.7 -2.4,3.9 -3,4.9 -0.6,1 -3.3,5.4 -5.9,9.8 -15.6,25.3 -21.9,36.6 -29.1,51.2 -3,6 -4,7.6 -5.4,8.2 -2.3,1 -6.8,0.2 -9,-1.5 -3.3,-2.4 -4.2,-5 -10.2,-26.5 -3.7,-13.4 -4.6,-17.1 -6.2,-27.3 -2,-12.3 -3.9,-17.8 -6.2,-17.8 -1.1,0 -5.6,5.5 -9,11.1 -3.3,5.4 -5.4,9.1 -11.1,20.1 -2.2,4.2 -6.1,11.5 -8.7,16.2 -2.6,4.6 -4.6,8.5 -4.6,8.7 0,0.2 -0.7,1.3 -1.5,2.6 -0.7,1.2 -3,5.4 -5,9.5 -2.1,4 -4.2,7.5 -4.8,7.8 -2.3,1.3 -6.1,1.3 -8,0.1 z m 142.3,29.6 c -4.9,-0.8 -6.7,-1.9 -7.4,-4.7 -0.9,-3.4 -0.4,-6.6 1.2,-8.2 2.6,-2.6 11.7,-3.1 26.8,-1.4 2.6,0.3 8.3,0.8 12.7,0.9 4.4,0.3 11.6,0.6 16,0.9 4.4,0.3 11.7,0.5 16.3,0.6 4.6,0 9.8,0.2 11.5,0.3 10.4,0.7 80,1 90.6,0.4 19.6,-1.2 36.8,-3.8 47.4,-7.4 2.4,-0.8 6.5,-2.1 8.9,-2.8 2.4,-0.7 5.3,-1.6 7.1,-2.1 1.2,-0.4 2.4,-0.5 2.4,-0.3 0,0.8 -5.3,6.6 -5.9,6.6 -0.6,0 -1.8,0.6 -3,1.3 -8.3,5.4 -34.3,11.6 -58,13.8 -2.4,0.2 -6.5,0.6 -8.9,0.8 -3,0.3 -7.1,0.6 -8.9,0.6 -1.8,0.1 -3.6,0.3 -4.1,0.5 -2.4,0.6 -140.9,0.7 -144.7,0.2 z"></path>

   <path d="m 560.3,31.11 c 0,-0.33 -0.5,-0.59 -1.1,-0.58 -0.8,0 -0.9,0.1 -0.1,0.58 1.1,0.72 1.2,0.72 1.2,0 z m -35,2.01 c 0,-0.45 0.6,-0.82 1.1,-0.82 0.9,0 1.2,-0.39 1.1,-1.49 0,-0.81 -0.2,-1.48 -0.2,-1.48 -0.3,0 -3.8,5.28 -3.8,5.67 0,0.22 0.5,0.1 0.9,-0.33 0.5,-0.4 0.9,-1.1 0.9,-1.55 z m 25.5,6.89 c 0,-0.32 -0.3,-0.59 -0.7,-0.59 -0.3,0 -0.4,0.27 -0.2,0.59 0.2,0.33 0.5,0.6 0.6,0.6 0.2,0 0.3,-0.27 0.3,-0.6 z m -8.3,-3.61 c 0,-0.3 1.7,-0.54 2.4,-0.54 0.6,0 1.9,0.1 1.9,0.22 0,0.13 -1.3,0.37 -1.9,0.54 -0.7,0.18 -2.4,0.1 -2.4,-0.22 z m 5,3.17 c 1.8,-0.87 2.1,-1.3 1.9,-2.67 -0.2,-1.99 0,-2.09 0.9,-0.3 0.4,1.2 0.5,1.16 0.2,-0.43 -0.2,-1.68 -1.8,-2.39 -1.1,-1.28 0.7,0.82 -5.1,-0.26 -7,-0.64 -3.7,-0.74 -2.8,-1.67 -1.8,-2.12 0.6,-0.28 4.4,-0.17 4.4,-0.36 -0.1,-1.15 1.8,-0.72 1.6,-1.09 -0.2,-0.37 4.7,0.16 5.2,-0.27 1.3,-0.96 1.6,-2.15 0.8,-3.13 -0.3,-0.4 -0.4,-0.97 -0.2,-1.25 0.3,-0.29 0,-0.17 -0.5,0.25 -0.6,0.43 -2.1,0.69 -3.3,0.6 -2.3,-0.17 -2.5,-0.24 -6.2,-2.02 -1.6,-0.81 -2.8,-0.94 -5.4,-0.61 -1.8,0.23 -3.4,0.64 -3.4,0.92 0,0.27 -1.1,0.87 -2.5,1.33 -2.6,0.89 -3.7,2.24 -1.7,2.24 0.7,0 1.4,0.28 1.5,0.63 0.5,0.74 -0.8,4.11 -1.5,4.11 -0.3,0 -0.5,0.24 -0.5,0.51 0,0.29 0.6,0.41 1.3,0.29 1,-0.16 2.2,0.61 4.5,2.69 3.1,2.87 4.8,3.46 5.3,1.8 0.2,-0.65 0.1,-0.64 -0.4,0.1 -0.4,0.49 -0.7,0.63 -0.7,0.3 0.1,-0.85 1.4,-2.35 2.3,-2.53 0.5,-0.11 0.6,0.3 0.3,1.34 -0.2,0.9 -0.1,1.52 0.3,1.56 1.6,0.18 1.8,0.25 2.2,0.67 0.7,0.64 3.5,-0.64 3.5,-0.64 z m -1.7,2.22 c -0.2,-0.32 -0.6,-0.59 -1,-0.59 -0.3,0 -0.5,0.27 -0.5,0.59 0,0.33 0.4,0.6 0.9,0.6 0.5,0 0.7,-0.27 0.6,-0.6 z m -21.9,13.35 c 0.5,-0.13 0.6,-0.99 0.4,-2.47 -0.5,-2.57 -0.5,-4.04 0,-10.15 0.3,-4.83 -0.5,-6.96 -1.9,-5.23 -0.5,0.52 -1.3,0.94 -1.9,0.94 -0.7,0 -1.3,0.51 -1.5,1.19 -0.2,0.65 -0.7,1.19 -1.1,1.19 -0.9,0 -1,0.77 -1,6.53 -0.1,6.24 0,6.77 1.8,7.79 1.4,0.87 2.9,0.93 5.2,0.21 z m 26.9,16.33 c 0.5,-0.9 0.5,-1.1 -0.3,-0.8 -1,0.3 -1.7,2 -0.9,2 0.3,0 0.8,-0.5 1.2,-1.2 z m -0.7,-19.4 c 0.4,-0.17 0.9,-0.15 1.1,0.1 0.2,0.2 -0.1,0.34 -0.8,0.31 -0.6,0 -0.8,-0.16 -0.3,-0.35 z m -2.3,3.38 c -0.4,-0.28 -1.3,-0.66 -1.9,-0.84 -0.6,-0.18 -1.2,-0.8 -1.5,-1.38 -0.2,-0.57 -0.7,-1.27 -1.1,-1.54 -0.7,-0.39 -0.7,-0.68 -0.2,-1.34 0.9,-1.09 1.8,-1.07 1.8,0.1 0,0.49 0.2,0.89 0.4,0.89 0.3,0 1.3,0.67 2.3,1.49 0.9,0.81 2,1.48 2.4,1.48 0.4,0 0.6,0.4 0.4,0.89 -0.4,1 -1.2,1.06 -2.6,0.29 z m 7.4,1.78 c -0.2,-0.3 -0.1,-0.6 0.3,-0.6 0.3,0 0.7,0.3 0.9,0.6 0.2,0.29 0.1,0.59 -0.2,0.59 -0.3,0 -0.8,-0.3 -1,-0.59 z m -10.8,14.54 c 1.2,-0.8 2.4,-1.5 2.7,-1.5 0.3,0 0.8,-0.6 1.2,-1.4 0.4,-0.8 1.8,-2.2 3.3,-3 1.6,-0.9 2.7,-2 2.7,-2.5 0,-0.5 -0.2,-0.7 -0.5,-0.6 -0.8,0.6 -3.1,-2.3 -2.9,-3.58 0.2,-0.84 0.4,-0.66 1.1,0.88 0.7,1.7 1.1,1.9 2.3,1.6 2,-0.5 3.6,-2 3.6,-3.37 0,-0.84 0.5,-1.07 2,-1.07 1.7,0 2.2,0.29 2.8,1.6 1.2,2.34 1.9,1.94 2.9,-1.54 1.1,-3.64 1.4,-3.9 3,-3.04 0.9,0.52 1.4,0.51 2.1,0 0.9,-0.8 1.1,-3.53 0.2,-3.53 -0.7,0 -0.7,-3.14 0,-3.92 0.8,-0.79 -0.4,-4.39 -1.5,-4.39 -0.4,0 -1,-0.42 -1.5,-0.94 -0.6,-0.76 -0.6,-1.02 0,-1.41 0.6,-0.36 0.2,-1.09 -1.5,-2.89 -1.6,-1.75 -2.5,-2.25 -2.9,-1.81 -0.8,0.59 -1.4,0.15 -6,-4.05 -0.8,-0.75 -1.8,-1.17 -2.3,-0.97 -1,0.38 -0.8,1.77 0.2,1.55 0.4,-0.1 0.8,0.66 1,1.62 0.2,0.97 0.6,1.9 0.9,2.07 0.8,0.49 -0.1,2.68 -1,2.68 -0.7,0 -0.8,0.52 -0.7,2.07 0.2,1.27 0,2.08 -0.4,2.08 -0.3,0 -1.2,0.52 -1.9,1.15 -1.2,1.15 -1.2,1.15 -1.5,0 -0.5,-1.81 -2,-1.36 -4,1.23 -2.2,2.67 -2.9,2.95 -2.9,1.11 0,-1.21 -0.1,-1.19 -1.3,0.29 -0.6,0.85 -1,1.82 -0.8,2.15 0.2,0.33 -0.2,0.6 -0.8,0.6 -0.7,0 -1.3,0.36 -1.3,0.78 0,0.44 -1.2,1.17 -2.8,1.64 -2,0.62 -3,1.35 -3.9,2.74 -1.3,2.3 -0.8,3.48 2.7,6.17 2.2,1.7 2.5,2.3 2.5,4.2 0,1.2 -0.3,2.6 -0.7,2.9 -0.8,0.8 -1,4.8 -0.3,5.5 0.9,0.9 4.2,0.3 6.2,-1.1 z m -7.7,6 c -11.3,-2.8 -20.5,-12.2 -22.8,-23.37 -1.9,-10.07 4,-21.69 14.1,-27.74 12.5,-7.5 28.5,-5.82 39.2,4.11 5.4,4.99 9.1,12.77 9.1,19.36 0,9.94 -7,20.44 -16.6,25.04 -2.5,1.2 -5.9,2.4 -7.6,2.8 -4.1,0.8 -11.4,0.7 -15.4,-0.2 z"></path>
   <path d="m 411,31.15 c -3.8,-1.86 6.8,1.7 0,0 z m -49.1,0 c 9.4,-2.29 8.8,0.41 0,0 z m 10.9,2.26 c 4.6,-5.4 11.4,3.97 0,-0 l 0,0 z m -124,4.89 c 10.2,-4.31 8.4,-0 0,0 z m 240.1,4.09 c 8.1,-2.15 9.2,2.51 0,0 z m -11.1,0.79 c -5.3,-4.58 3.4,-3.33 3.1,-0.5 l -2.3,0.85 -0.8,-0.35 0,0 z m 13.5,0.99 c 1.6,-2.19 0.6,2.31 0,0 z m -113.7,0 c 5.4,-1.56 -3.2,1.98 0,0 z m 48.8,0.59 c 0.4,-2.29 5.5,2.3 0,0 z m -46.3,0.19 c 3.2,-0.43 -1.1,1.12 0,0 z m 16,0.92 c -5.4,-5.92 8.4,3.23 0,0 z M 369,46.01 c -3.7,-4.65 8.6,2.83 0,0 z m 97.1,1.29 c -12.8,-4.98 17.5,-0.57 0,0 l 0,0 z M 315,47.93 c 3.9,-0.8 -0.7,1.1 0,0 z m 38.4,0.58 c -5.7,-3.52 16.4,-3.45 1.5,0.34 l -1.5,-0.34 0,0 z m -96.5,4.16 c -0.3,-4.96 5.6,2.74 0,0 z m -67.1,5.74 c 6.3,-1.51 3.2,0.59 -0.9,0.5 l 0.9,-0.5 z m -3.3,0.78 c 3.9,-0.79 -0.7,1.07 0,0 z m -77.9,23.28 c 2.2,-5.11 26.1,-16.39 17.6,-8.9 -4.3,0.28 -22.3,16.27 -17.6,8.9 z M 94.81,129.8 c 1.37,-3.1 2.62,0.2 0,0 z m 208.99,50.4 c 1.7,-3.6 2.1,0.6 0,0 z m -48.2,42.7 c 5.6,-2 -3,1.9 0,0 z m -154.3,0 c 1.3,-2.1 2.2,2.3 0,0 z m 156.3,0.6 c 4.3,-1.9 -1.5,1.9 0,0 z m -104.9,4.9 c 3.2,-0.6 -1,1 0,0 z m -13.8,-0.2 c -2.2,-2 6.4,1.8 0,0 z m -13.9,0.5 c -2.1,-3.9 4.4,4.4 0,0 z m 96.2,2.5 c 7.4,-7.1 19.2,0.2 4.5,0 -0.9,-2.8 -6.8,3.6 -4.5,0 z m -73.1,0.6 c -12,0 5.1,-4.3 2.8,-0.7 l -1.2,0.7 -1.6,0 z m 24,1.2 c 2.6,-2 0,1.8 0,0 z M 449.5,41.89 c -9.3,-4.05 -13.4,2.97 0,0 z m -73.7,-0.1 c 2.2,-2.11 -6.4,1.86 0,0 z m -45.2,2.58 c -3.3,-0.95 -0.6,1.02 0,0 z m -27.5,3.6 c -2.4,-0.7 -0.9,0.89 0,0 z m -41.3,0.35 c -1.6,-2.13 -1.5,2.14 0,0 z m 29.3,0.6 c -0.9,-2.45 -3.1,2.52 0,0 z m -100.6,6.76 c -2.2,-0.67 -0.9,0.89 0,0 z m 28.3,31.79 c 4.9,-2.69 -21,0.16 -3.5,0.45 l 3.5,-0.45 0,0 z m -88.7,12.93 c 8.3,-5.04 -5.1,-0.65 0,0 z m 171.1,25.1 c -3.5,-2.5 -0.9,2 0,0 z m 4.4,4 c -4.5,-6.3 -6.8,0 0,0 z m -80.5,91 c -3.8,-4.1 -3.8,4.4 0,0 z m -30.2,6 c -5.7,-4 -11.3,4.6 -0.1,0.6 l 0.1,-0.6 z m -10.3,7 c -6.9,-2.3 -23.9,-1.7 -6.6,-3.7 17.6,-7.2 -17.8,5.1 -23.1,-3.4 -9.7,-4 -26.9,5.2 -27.3,-2 -11.5,-2.9 -12.1,6.4 -15.4,-0.4 -6.2,-5.1 -27.04,-2 -25.39,-6.9 8.11,1.8 -14.34,-15.1 -4.6,0.2 -1.5,-6.3 -11.42,-10.6 -19.87,-12.4 -11.73,-5.8 -24.38,-14.7 -31.98,-27.2 -8.95,-11.5 -8.81,-27 -6.05,-39.4 -0.15,-6.3 5.28,-22.8 4.87,-7.7 1.46,-13.8 9.12,-26.7 18.86,-35.45 8.29,-5.47 21.79,-15.91 34,-21.34 15.31,-7.76 30.66,-13 47.16,-16.9 15.4,-3.5 30.2,-6.27 44.4,-11.48 7.6,4.73 16.5,0.96 27.3,-2.13 13.1,-3.12 30.1,-5.35 41.6,-5.02 -12.8,3.17 -12.7,3.19 -5.3,3.96 3.7,2.5 9.3,-3.45 19.3,-3.14 2.2,4.07 9.2,0.87 3.8,-0.38 10.7,1.44 20.1,-5.29 30.1,-3.11 0.6,3.39 11.8,0.81 9,-0.74 17.3,0 34.7,-5.43 52.6,-4.3 16.8,-1.42 -23.3,5.32 -1.7,2.63 1.6,5.39 13.1,-2.59 19.4,-0.18 6.3,5.36 12.8,2.37 15.1,0.82 9.7,3.47 21.3,0.17 28.4,1.78 -9.2,2.29 17,0.27 1.1,3.97 -1,3.84 15.6,-6 23.3,-0.41 11.3,-1.05 18.8,2.02 28.7,1.7 16.5,-1.85 -9.3,2.5 -14.3,5.69 -7.7,-2.23 -6.8,-1.55 -7.9,-3.1 -12,-1.21 -19,-3.96 -30.8,0.2 -9.8,-5.08 -11.6,6.09 -11,-0.1 -9.9,-0.32 -18.4,-8.42 -20.9,-0.1 -9.3,-0.75 -0.8,3.92 -12,-0.38 -5,3.17 -7.1,-4.99 -10.8,1.73 -7.8,0.23 -26.7,5.38 -26.2,1.74 1.9,-1.23 -22.9,-4.98 -27.1,1.42 -13.5,1.23 -26.8,3.16 -40.7,2.21 -2,1.94 -20.5,-5.55 -20.9,2.03 -16.9,0.48 -32.9,0.99 -49.5,2.89 -5.5,3.99 -18.7,3.36 -10,0.97 -9,4.65 -17.8,6.92 -29,5.17 -8.4,2.44 -18,11.6 -25.7,6.69 -11.6,5.64 -19.7,5.79 -29.2,14.9 1.4,-1.13 10.6,-3.89 2,1.71 -11.75,4.96 -17.6,3.67 -27.09,11.65 -9.67,-1.38 -12.54,21.37 -23.76,24.27 -1.05,8.9 -11.72,13.8 -7.39,25.7 -3.34,21.4 17.38,34.7 33.87,42.9 C 109.7,204.5 145,210 180,211 c 17.5,-0.1 35.9,2 52.5,-3.7 17.2,-4.8 36.7,-7.9 52.2,-15.3 6.2,0.8 11.9,-7.6 21.1,-8.6 4.8,-10 13.9,-20.9 13.6,-34.3 -5.8,-11.5 -19.3,-21 -26.4,-26.7 -4.6,-5.7 -11.1,-7 -12.1,-2.6 -21.9,-7.1 -43.6,-16.2 -67.1,-15.4 -20.8,-5.39 -41.7,1.5 -62.8,1.3 -15.4,-0.1 -27.8,8 -39.5,17.7 -8,5.1 -25.8,27.6 -23.39,26.2 2.72,-15.8 13.99,-27.7 18.19,-36.2 9.7,1.7 3.3,-7.2 14.4,-8.6 13,-12.47 32.8,-12.9 49.5,-18.03 9.2,-3.85 16.9,-0.53 11.6,5.39 12.2,-2.93 20.4,-9.22 31.6,-6.79 17.7,1.41 35.6,4.68 52.5,9.69 16.5,2.59 32.4,9.04 45.3,19.34 14.1,6.1 19.4,19.1 26.1,29.2 4.5,18.8 -6.9,35.8 -18,49.6 -2.8,-3.8 -7.9,11 -13.1,7 -2.5,5.6 -17.1,13.7 -24,12.9 -8.7,11.3 -2.2,-4.4 -12.9,2.5 -13.5,4.1 -22.2,14.1 -29.7,12.4 -9.1,7.3 3.9,-9.7 -8.6,-1.7 0.2,-0.6 9.1,-4 -1.6,-2.1 -7.9,0.5 12.2,-3.9 -2.9,-3.6 5.2,0.9 -3.5,3.1 -4.5,7 1.4,-8.2 -7.6,0.2 -6.7,-3.2 -7.6,2.7 1.6,-4.2 -6.9,-1 -0.3,-2.2 -14.1,-0.3 -10.9,2.7 4.4,2.3 10.8,-4.1 7.4,0 14.3,-1.2 -14.2,7.9 -20.3,7.4 l 0,0 z m -4,0.3 c -0.5,-3.1 2.9,2.9 0,0 z"></path></svg>