<?xml version="1.0" encoding="UTF-8" standalone="no"?>
<svg
   xmlns="http://www.w3.org/2000/svg"
   viewBox="0 0 1473 424">
  <path d="M 346.1,10 C 309.2,10 243.9,31.24 175.6,65.42 101.9,102.3 42.29,145.6 26.19,172.7 a 15.35,16.76 0 0 0 -0.8,0 15.35,16.76 0 0 0 -15.391,16.7 15.35,16.76 0 0 0 15.391,16.8 15.35,16.76 0 0 0 11.4,-5.7 c 4.7,1.5 10.1,2.2 16.4,2.2 17.8,0 42.3,-5.5 74.11,-16.7 0.6,1.7 1.3,3.3 2.1,4.9 2.5,4.9 6.7,7.4 12.5,7.4 4.3,0 8.5,-1.6 12.3,-4.7 6.4,-5.2 13.1,-13.8 20,-25.9 0.2,-0.1 0.4,-0.1 0.6,-0.2 l -1.9,6.4 c -2,6.9 -3,11.7 -3,14.2 0,2.9 1,5.4 2.8,7.3 1.9,1.9 4.6,2.9 8.2,2.9 5.8,0 11.2,-1.9 16.3,-5.8 5,-3.9 9.8,-10.1 14.2,-18.6 l -3.3,-1.7 c -3.5,5.1 -5.8,8.1 -6.7,9 -2.3,2.1 -4.2,3.1 -5.5,3.1 -0.5,0 -1.1,-0.3 -1.6,-0.9 -0.5,-0.6 -0.8,-1.3 -0.8,-2 0,-0.5 0.1,-1.2 0.3,-2.2 l 1.8,-7.9 4.2,-14.7 c 3.9,-1.8 7.8,-3.6 11.9,-5.4 11.8,-5.5 23.3,-11.1 34.4,-16.8 l -10.8,38.7 c -1.8,6.5 -3.4,10.8 -4.7,12.8 -1.4,2.1 -3.1,3.6 -5.4,4.6 -2.2,1 -5.9,1.5 -11,1.5 l -1.2,3.6 52.9,0 c 19.9,0 33.5,-1.5 40.9,-4.6 7.5,-3 13.5,-7.8 18,-14.4 4.5,-6.5 6.7,-13.2 6.7,-19.9 0,-7.2 -2.3,-13.5 -6.8,-18.9 -4.6,-5.4 -12.8,-9.8 -24.5,-13.3 11.3,-2.7 19.7,-5.6 25.2,-8.7 5.5,-3.2 9.6,-7.2 12.3,-12.1 2.8,-4.88 4.2,-9.68 4.2,-14.38 0,-4.6 -1.2,-8.9 -3.4,-12.7 19.2,-15.5 32.1,-29.7 36.1,-41 1.8,-5.16 1.9,-9.78 0.3,-13.72 -3.3,-7.87 -13,-11.86 -28.8,-11.86 z m 0,5.16 c 13.6,0 22,3.06 24.5,8.85 1.1,2.62 1,5.88 -0.4,9.71 -3.8,10.6 -16.1,24.1 -34.6,38.9 -3.3,-3.9 -7.9,-6.5 -13.6,-7.9 -4.9,-1.3 -12.9,-1.9 -24.1,-1.9 l -50.3,0 -0.9,3.6 c 6.2,0.3 10.2,1.2 12,2.7 1.9,1.5 2.8,3.4 2.8,5.7 0,2.8 -1.1,8.3 -3.5,16.6 l -10.1,36.28 c -12.1,6.4 -24.9,12.6 -38.1,18.7 -2.8,1.3 -5.5,2.5 -8.3,3.7 l 12.3,-43.9 -22.2,1.3 -3.4,12 c -1,-5.6 -2.6,-9.4 -4.7,-11.5 -2.1,-2.2 -4.9,-3.2 -8.4,-3.2 -6.3,0 -13.1,3 -20.3,9 -8.8,7.2 -15.8,16.8 -21.2,28.7 -5.4,11.9 -8.1,22.5 -8.1,31.7 0,2.3 0.2,4.6 0.6,6.8 -31.41,11 -55.51,16.5 -72.91,16.5 -5.2,0 -9.8,-0.6 -13.7,-1.6 a 15.35,16.76 0 0 0 1.2,-6.5 15.35,16.76 0 0 0 -9.6,-15.6 C 46.29,150.2 99.39,109.3 177.6,70.12 245.3,36.22 309.8,15.16 346.1,15.16 Z M 296,69.82 c 5.1,-0.2 9.2,1.4 12.3,4.6 3,3.1 4.6,7.3 4.6,12.4 0,0.9 0,1.8 -0.2,2.7 -10,6.8 -21.2,13.78 -33.2,20.78 l 11.3,-40.38 z m 15.4,26.5 c -0.7,2.5 -1.7,5.08 -3,7.78 -3,6.1 -6.9,10.4 -11.8,13.1 -4.9,2.7 -11.6,4.1 -20.2,4.2 l 1.2,-4.2 c 12.2,-7 23.5,-14 33.8,-20.88 z m 68.5,8.48 -28.9,8.8 0,0 0,3.8 c 1.3,-0.2 2.5,-0.3 3.5,-0.3 2.8,0 5.1,1.1 6.9,3.3 2.2,3 3.6,8 4.2,14.8 l 1.6,37.3 c 0.5,10.2 0.7,18.1 0.7,23.7 0,4.2 -0.1,10.3 -0.5,18.5 -3.4,3.8 -6,6.2 -7.9,7.2 -1.4,0.9 -2.8,1.3 -4.2,1.3 -1.4,0 -3.1,-1.4 -5.3,-4.2 -3.2,-4.2 -6.7,-6.3 -10.5,-6.3 -3,0 -5.7,1.3 -8,3.8 -2.3,2.4 -3.4,5.5 -3.4,9.1 0,3.6 1.2,6.7 3.8,9.3 2.5,2.6 5.5,3.9 9.1,3.9 2.6,0 5.3,-0.6 8,-1.9 4.5,-2.1 8.8,-5 13,-8.7 4.2,-3.7 9.7,-9.7 16.6,-18.1 10.6,-13.1 21.4,-28.6 32.5,-46.6 8.6,-14 14.1,-23.9 16.5,-29.7 2.3,-5.8 3.5,-10.8 3.5,-15.2 0,-3.7 -1.3,-6.9 -3.8,-9.7 -2.5,-2.7 -5.5,-4.1 -9,-4.1 -3.2,0 -6,1.2 -8.3,3.6 -2.2,2.4 -3.4,5.3 -3.4,8.5 0,2.1 0.4,3.7 1.1,5 0.8,1.2 2.7,3 5.7,5.3 3.1,2.3 4.6,4.7 4.6,7.2 0,4.1 -1.3,8.4 -4,13 -8.6,15.1 -16.3,27.3 -23,36.5 -0.5,-18.2 -1.4,-35.4 -2.7,-51.4 -0.7,-8.2 -1.9,-14.6 -3.5,-19.2 -1,-2.7 -2.6,-5.5 -4.9,-8.5 z m -203,6.1 c 1.9,0 3.4,0.8 4.6,2.4 1.5,2.3 2.3,6.2 2.3,11.4 0,9.6 -2.9,20.5 -8.8,32.7 -0.9,2 -1.9,3.8 -2.9,5.6 -7.6,3.3 -15,6.3 -22,9 0,-0.5 0,-1 0,-1.6 0,-9 2.4,-19.6 7.3,-32 4.8,-12.4 9.3,-20.6 13.5,-24.6 2.1,-2 4.1,-3 6,-3 z m 97.3,17.9 c 7.9,0 13.5,0.6 16.8,2 3.3,1.3 6,3.7 8.1,7.1 2.1,3.4 3.2,7.4 3.2,11.8 0,9.3 -2.8,18 -8.2,26.1 -5.4,8.1 -15.1,12.2 -29.1,12.2 -1.6,0 -3.9,-0.1 -7,-0.2 z m 1116.8,0.7 c -10,0 -19,1.4 -26,4 -8,2.7 -15,6.5 -20,11.4 -6,4.9 -10,10.7 -13,17.4 -3,6.7 -5,14 -5,22 l 0,0.5 c 0,8.8 2,16.2 5,22.2 3,5.9 8,10.9 13,14.9 6,4 12,7.3 20,9.8 7,2.5 16,4.8 24,7 6,1.3 11,2.5 14,3.8 4,1.2 7,2.5 9,3.8 2,1.3 3,2.6 4,4 1,1.4 1,3 1,4.8 l 0,0.5 c 0,3.7 -1,6.6 -5,8.6 -3,2.1 -8,3.1 -14,3.1 -19,0 -37,-6.9 -53,-20.6 l -25,31.7 c 10,9.6 22,16.7 35,21.5 13,4.7 27,7.1 42,7.1 10,0 19,-1.2 27,-3.8 8,-2.5 15,-6.2 21,-11 6,-4.8 10,-10.6 14,-17.5 3,-6.9 4,-14.7 4,-23.5 l 0,-0.5 c 0,-8 -1,-14.9 -4,-20.7 -3,-5.8 -7,-10.7 -12,-14.8 -5,-4 -12,-7.5 -20,-10.4 -7,-2.8 -16,-5.3 -25,-7.4 -6,-1.3 -10,-2.6 -14,-3.8 -4,-1.3 -7,-2.5 -9,-3.7 -2,-1.2 -3,-2.6 -4,-4 -1,-1.5 -1,-3.2 -1,-5.2 l 0,-0.5 c 0,-3.1 1,-5.7 4,-7.8 2,-2.1 7,-3.2 12,-3.2 7,0 15,1.4 23,4.3 8,2.9 15,7.1 23,12.6 l 23,-33.7 c -9,-7.5 -19,-13.2 -30,-17.1 -11,-3.9 -24,-5.8 -38,-5.8 z m -853.1,1.7 -70.1,172.9 48,0 11.8,-30.7 63.4,0 12,30.7 48.9,0 -70,-172.9 z m 283.1,1.2 62.5,107.4 0,64.3 46.2,0 0,-65 62,-106.7 -51,0 -33.9,62.6 -33.9,-62.6 z m -153.1,0 0,171.7 84.9,0 c 19.7,0 35,-4.2 45.9,-12.5 10.9,-8.4 16.4,-20 16.4,-34.9 l 0,-0.4 c 0,-11.7 -3,-20.7 -8.9,-27.1 -5.9,-6.5 -13.8,-11.4 -23.9,-14.9 7.3,-3.2 13.4,-7.9 18.1,-14.1 4.8,-6.1 7.2,-14.2 7.2,-24.1 l 0,-0.5 c 0,-5.9 -1,-11.1 -2.9,-15.7 -1.8,-4.6 -4.4,-8.6 -7.7,-12 -4.9,-5.1 -11,-8.9 -18.3,-11.5 -7.4,-2.6 -16.2,-4 -26.5,-4 l -84.3,0 z m 338.1,0 0,171.7 46,0 0,-52 19,0 1,0 33,52 53,0 -40,-59.9 c 11,-4.5 19,-11.2 25,-19.8 6,-8.7 9,-19.6 9,-32.9 l 0,-0.5 c 0,-16.8 -5,-30.1 -14,-39.9 -6,-5.9 -13,-10.5 -22,-13.8 -8,-3.2 -19,-4.9 -32,-4.9 z m 169,0 0,171.7 134,0 0,-40.5 -89,0 0,-27.2 79,0 0,-37.5 -79,0 0,-26 87,0 0,-40.4 z M 167.4,170.5 c -1.1,1.7 -2.3,3.2 -3.6,4.7 -2.9,3.3 -5.7,5 -8.5,5 -1.3,0 -2.5,-0.7 -3.6,-2.3 -0.2,-0.2 -0.4,-0.5 -0.5,-0.8 5.2,-2.1 10.6,-4.3 16.2,-6.6 z m 545,0.2 29.6,0 c 6.9,0 12,1.3 15.5,3.8 3.4,2.5 5.2,6.2 5.2,10.9 l 0,0.5 c 0,5.1 -1.9,8.8 -5.6,11.3 -3.6,2.4 -9,3.7 -16.1,3.7 l -28.6,0 z m 339.6,3 30,0 c 7,0 14,1.6 18,5 4,3.3 6,8.4 6,15.3 l 0,0.5 c 0,6.2 -2,11.1 -6,14.8 -4,3.7 -10,5.5 -18,5.5 l 0,0 -30,0 z m -492.5,14.2 18.4,48.8 -36.9,0 z m 152.9,46.3 34.7,0 c 7.7,0 13.4,1.4 17,4.2 3.6,2.8 5.4,6.5 5.4,11.3 l 0,0.5 c 0,5 -1.9,8.9 -5.7,11.6 -3.7,2.7 -9.1,4 -16.2,4 l 0,0 -35.3,0 z m -389.3,11.9 c -8.9,0 -15.8,2.4 -20.7,7.1 -4.9,4.7 -7.4,10.5 -7.4,17.6 0,4.2 0.8,7.9 2.5,11.1 2.3,4.5 7.1,10.9 14.4,19.2 5.3,6.1 8.7,10.6 10.2,13.4 1.5,2.9 2.2,5.9 2.2,8.9 0,3.2 -1.1,5.9 -3.4,8.1 -2.2,2.3 -5.1,3.4 -8.5,3.4 -3,0 -6,-1 -9.2,-3 -3.2,-2 -5.8,-4.7 -7.7,-8 -1.9,-3.4 -3.9,-9 -6.1,-16.9 l -3,0 -4.6,32.6 3.5,0 c 1,-1.6 2,-2.6 2.9,-3.1 0.8,-0.5 2.1,-0.7 3.6,-0.7 1.8,0 4.4,0.5 7.9,1.5 5.3,1.5 9.8,2.3 13.4,2.3 5.4,0 10.6,-1.4 15.6,-4.2 4.9,-2.7 8.7,-6.4 11.2,-11 2.5,-4.6 3.7,-9.5 3.7,-14.7 0,-4.7 -1,-9.2 -3.2,-13.4 -2.1,-4.1 -8.1,-11.8 -18,-22.9 -2.8,-3.1 -4.6,-5.6 -5.4,-7.4 -0.8,-1.8 -1.2,-3.8 -1.2,-5.9 0,-2.5 0.9,-4.6 2.8,-6.3 1.8,-1.8 4.2,-2.7 7.1,-2.7 4.7,0 9.1,2.3 13.2,6.8 4.1,4.5 6.4,10.6 6.9,18.5 l 3.5,0 4.1,-30.3 0,0 -3.4,0 c -1.5,2.2 -3.5,3.3 -5.9,3.3 -1.7,0 -3.9,-0.4 -6.8,-1.1 -5.6,-1.5 -10.3,-2.2 -14.2,-2.2 z m -155.8,0 0,0 z m 0,0 -5.6,0 -28.4,6.5 -0.8,2.8 c 3.2,0 5.4,0.2 6.4,0.7 1,0.5 1.9,1.2 2.5,2.1 0.5,1 0.8,2.4 0.8,4.2 0,1.5 -0.5,4.7 -1.6,9.5 l -15.5,64.9 22.7,0 c 3.2,-13.8 5.8,-23.2 7.6,-28.1 1.8,-4.9 4.3,-11 7.6,-18.1 3.2,-7.1 6,-12.2 8.2,-15.2 2.2,-3 4,-4.9 5.4,-5.7 0.7,-0.4 1.3,-0.6 2,-0.6 0.5,0 1.1,0.2 1.6,0.6 0.5,0.5 1.3,1.9 2.6,4.3 1.2,2.4 3.1,3.6 5.6,3.6 2.3,0 4.4,-1.4 6.3,-4.1 3,-4.3 4.4,-9.6 4.4,-16 0,-3.6 -0.8,-6.4 -2.4,-8.4 -1.6,-2 -3.8,-3 -6.4,-3 -3.8,0 -7.4,1.8 -10.9,5.5 -5.9,6.2 -14.6,22.7 -26.3,49.5 z m 97.9,0 c -10.4,0 -20.8,3.2 -31,9.7 -10.3,6.5 -18.5,15 -24.4,25.7 -6,10.7 -9,21.4 -9,32.1 0,6.9 2,12.9 6,18.2 4,5.2 11.2,7.8 21.7,7.8 8.2,0 15.8,-1.9 22.6,-5.8 6.8,-3.8 13.8,-10.3 21,-19.4 l -2.8,-2.6 c -5.8,5.5 -10.9,9.4 -15.3,11.6 -4.4,2.3 -8.8,3.4 -13.2,3.4 -4.6,0 -8.2,-1.5 -10.9,-4.4 -2.8,-3 -4.1,-6.9 -4.1,-11.8 0,-2.7 0.3,-6.2 0.8,-10.5 7.7,-0.6 13.8,-1.6 18.4,-2.9 6.8,-2 13,-4.8 18.5,-8.6 5.5,-3.7 10.1,-8.7 13.7,-14.8 2.6,-4.5 3.9,-9.1 3.9,-13.9 0,-4 -1.3,-7.3 -4,-9.9 -2.7,-2.6 -6.7,-3.9 -11.9,-3.9 z m -10.4,6.5 c 1.5,0 2.7,0.5 3.7,1.5 0.9,1.1 1.4,2.5 1.4,4.3 0,4.3 -1,9 -3.2,13.9 -2.1,4.9 -4.6,9 -7.5,12.2 -2.9,3.2 -5.9,5.6 -8.9,7.1 -3.1,1.4 -7.3,2.6 -12.8,3.4 4.5,-15.9 10.2,-27.9 17.1,-35.9 3.8,-4.4 7.2,-6.5 10.2,-6.5 z m -233.01,104.8 0,10.8 406.71,0 0,-10.8 z m 23,29.1 0,22.8 5.7,0 0,-2.1 c 0.2,0.3 0.5,0.6 0.8,0.9 0.3,0.3 0.7,0.6 1.1,0.8 0.4,0.2 0.8,0.4 1.3,0.5 0.5,0.2 1.1,0.2 1.7,0.2 0.9,0 1.8,-0.2 2.7,-0.6 0.9,-0.4 1.6,-1 2.3,-1.7 0.6,-0.8 1.1,-1.7 1.5,-2.8 0.4,-1.1 0.6,-2.3 0.6,-3.7 l 0,-0.1 c 0,-1.4 -0.2,-2.6 -0.6,-3.6 -0.4,-1.1 -0.9,-2 -1.5,-2.8 -0.7,-0.7 -1.5,-1.3 -2.3,-1.7 -0.9,-0.4 -1.8,-0.6 -2.8,-0.6 -0.6,0 -1.1,0.1 -1.6,0.2 -0.5,0.1 -0.9,0.3 -1.3,0.6 -0.4,0.2 -0.7,0.5 -1.1,0.8 -0.3,0.3 -0.6,0.7 -0.9,1 l 0,-8.1 z m 55.2,0 0,22.8 5.71,0 0,-22.8 z m 88.41,0 0,4.4 5.9,0 0,-4.4 z m -159.91,0.8 -8.9,22 6.1,0 1.5,-3.9 8.1,0 1.5,3.9 6.2,0 -8.9,-22 z m 138.81,0.2 0,21.8 10.8,0 c 2.5,0 4.5,-0.6 5.9,-1.6 1.4,-1.1 2,-2.5 2,-4.4 l 0,-0.1 c 0,-1.5 -0.3,-2.7 -1.1,-3.5 -0.7,-0.8 -1.7,-1.4 -3,-1.9 0.9,-0.4 1.7,-1 2.3,-1.8 0.6,-0.7 0.9,-1.8 0.9,-3 l 0,-0.1 c 0,-0.8 -0.1,-1.5 -0.4,-2 -0.2,-0.6 -0.5,-1.1 -0.9,-1.6 -0.7,-0.6 -1.4,-1.1 -2.4,-1.4 -0.9,-0.3 -2,-0.5 -3.3,-0.5 l -10.8,0 z m 107,0 0,21.8 5.8,0 0,-6.6 2.5,0 0.1,0 4.2,6.6 6.7,0 -5,-7.6 c 1.3,-0.6 2.3,-1.5 3.1,-2.5 0.8,-1.2 1.2,-2.5 1.2,-4.2 l 0,-0.1 c 0,-2.2 -0.6,-3.9 -1.9,-5.1 -0.7,-0.8 -1.6,-1.3 -2.7,-1.8 -1.1,-0.4 -2.5,-0.6 -4.1,-0.6 l -9.9,0 z m -145.5,0.6 0,4.3 -1.9,0 0,4.8 1.9,0 0,6.8 c 0,2 0.5,3.5 1.4,4.3 1,0.9 2.3,1.3 4.1,1.3 0.7,0 1.5,-0.1 2.2,-0.2 0.6,-0.2 1.2,-0.5 1.7,-0.7 l 0,-4.7 c -0.3,0.2 -0.7,0.3 -1,0.4 -0.4,0.1 -0.8,0.2 -1.1,0.2 -0.6,0 -0.9,-0.2 -1.2,-0.4 -0.3,-0.3 -0.4,-0.7 -0.4,-1.3 l 0,-5.7 3.8,0 0,-4.8 -3.8,0 0,-4.3 z M 88.59,392 c -1.3,0 -2.5,0.3 -3.6,0.7 -1.1,0.5 -2,1.1 -2.8,1.9 -0.8,0.8 -1.4,1.8 -1.9,2.8 -0.4,1.1 -0.7,2.2 -0.7,3.5 l 0,0.1 c 0,1.2 0.3,2.3 0.7,3.4 0.4,1 1.1,1.9 1.9,2.7 0.7,0.8 1.7,1.5 2.8,1.9 1.1,0.5 2.2,0.7 3.5,0.7 1.3,0 2.5,-0.2 3.6,-0.7 1.1,-0.5 2.1,-1.1 2.9,-1.9 0.8,-0.8 1.4,-1.7 1.8,-2.8 0.5,-1.1 0.7,-2.2 0.7,-3.4 l 0,-0.1 c 0,-1.2 -0.2,-2.4 -0.7,-3.4 -0.4,-1.1 -1,-2 -1.8,-2.8 -0.8,-0.8 -1.7,-1.4 -2.8,-1.9 -1.1,-0.4 -2.3,-0.7 -3.6,-0.7 z m 248.61,0 c -1.3,0 -2.5,0.3 -3.6,0.7 -1.1,0.5 -2,1.1 -2.8,1.9 -0.8,0.8 -1.5,1.8 -1.9,2.8 -0.5,1.1 -0.7,2.2 -0.7,3.5 l 0,0.1 c 0,1.2 0.2,2.3 0.7,3.4 0.4,1 1,1.9 1.8,2.7 0.8,0.8 1.8,1.5 2.8,1.9 1.1,0.5 2.3,0.7 3.6,0.7 1.3,0 2.5,-0.2 3.6,-0.7 1.1,-0.5 2,-1.1 2.8,-1.9 0.8,-0.8 1.5,-1.7 1.9,-2.8 0.4,-1.1 0.7,-2.2 0.7,-3.4 l 0,-0.1 c 0,-1.2 -0.2,-2.4 -0.7,-3.4 -0.4,-1.1 -1,-2 -1.8,-2.8 -0.8,-0.8 -1.8,-1.4 -2.9,-1.9 -1,-0.4 -2.2,-0.7 -3.5,-0.7 z m -129.3,0 c -0.6,0 -1.1,0.1 -1.6,0.3 -0.5,0.1 -0.9,0.3 -1.3,0.6 -0.4,0.2 -0.8,0.5 -1.1,0.8 -0.3,0.4 -0.6,0.7 -0.8,1.1 l 0,-2.4 -5.7,0 0,16.9 5.7,0 0,-9.2 c 0,-0.9 0.2,-1.6 0.6,-2.1 0.5,-0.5 1,-0.7 1.7,-0.7 0.7,0 1.2,0.2 1.7,0.7 0.4,0.5 0.6,1.2 0.6,2.1 l 0,9.2 5.7,0 0,-11.1 c 0,-1.9 -0.5,-3.4 -1.5,-4.5 -0.9,-1.1 -2.3,-1.7 -4,-1.7 z m -59.7,0 c -1.2,0 -2.3,0.3 -3.3,0.7 -1,0.5 -1.9,1.1 -2.6,1.9 -0.7,0.8 -1.3,1.7 -1.7,2.8 -0.4,1.1 -0.6,2.2 -0.6,3.4 l 0,0.1 c 0,1.3 0.2,2.5 0.7,3.6 0.4,1.1 1,2 1.8,2.8 0.7,0.7 1.6,1.3 2.7,1.7 1,0.5 2.2,0.7 3.5,0.7 1.6,0 3,-0.3 4.1,-0.9 1.2,-0.7 2.1,-1.5 2.9,-2.5 l -3.1,-2.7 c -0.6,0.6 -1.2,1 -1.7,1.3 -0.6,0.2 -1.2,0.4 -1.9,0.4 -0.9,0 -1.7,-0.3 -2.3,-0.7 -0.6,-0.5 -1,-1.2 -1.2,-2.1 l 10.8,0 c 0,-0.2 0,-0.4 0,-0.6 l 0,-0.6 c 0,-1.3 -0.2,-2.4 -0.5,-3.5 -0.3,-1.2 -0.8,-2.1 -1.5,-3 -0.6,-0.8 -1.5,-1.5 -2.5,-2 -1.1,-0.5 -2.3,-0.7 -3.6,-0.7 z m 154.7,0 c -1.2,0 -2.3,0.3 -3.2,0.7 -1,0.5 -1.9,1.1 -2.6,1.9 -0.8,0.8 -1.3,1.7 -1.7,2.8 -0.4,1.1 -0.6,2.2 -0.6,3.4 l 0,0.1 c 0,1.3 0.2,2.5 0.6,3.6 0.4,1.1 1,2 1.8,2.8 0.8,0.7 1.7,1.3 2.7,1.7 1.1,0.5 2.3,0.7 3.5,0.7 1.7,0 3,-0.3 4.2,-0.9 1.1,-0.7 2.1,-1.5 2.9,-2.5 l -3.2,-2.7 c -0.5,0.6 -1.1,1 -1.7,1.3 -0.6,0.2 -1.2,0.4 -1.9,0.4 -0.9,0 -1.6,-0.3 -2.2,-0.7 -0.6,-0.5 -1,-1.2 -1.3,-2.1 l 10.9,0 c 0,-0.2 0,-0.4 0,-0.6 l 0,-0.6 c 0,-1.3 -0.2,-2.4 -0.5,-3.5 -0.4,-1.2 -0.9,-2.1 -1.5,-3 -0.7,-0.8 -1.5,-1.5 -2.6,-2 -1,-0.5 -2.2,-0.7 -3.6,-0.7 z m 101.8,0 c -1.2,0 -2.3,0.3 -3.3,0.7 -1,0.5 -1.8,1.1 -2.6,1.9 -0.7,0.8 -1.3,1.7 -1.7,2.8 -0.4,1.1 -0.6,2.2 -0.6,3.4 l 0,0.1 c 0,1.3 0.2,2.5 0.7,3.6 0.4,1.1 1,2 1.8,2.8 0.7,0.7 1.6,1.3 2.7,1.7 1.1,0.5 2.2,0.7 3.5,0.7 1.6,0 3,-0.3 4.2,-0.9 1.1,-0.7 2.1,-1.5 2.8,-2.5 l -3.1,-2.7 c -0.6,0.6 -1.1,1 -1.7,1.3 -0.6,0.2 -1.2,0.4 -1.9,0.4 -0.9,0 -1.6,-0.3 -2.2,-0.7 -0.6,-0.5 -1.1,-1.2 -1.3,-2.1 l 10.8,0 c 0,-0.2 0,-0.4 0,-0.6 l 0,-0.6 c 0,-1.3 -0.1,-2.4 -0.5,-3.5 -0.3,-1.2 -0.8,-2.1 -1.5,-3 -0.6,-0.8 -1.5,-1.5 -2.5,-2 -1,-0.5 -2.2,-0.7 -3.6,-0.7 z m -333.71,0 c -1,0 -1.8,0.1 -2.6,0.4 -0.8,0.2 -1.5,0.6 -2.1,1.1 -0.5,0.4 -1,1 -1.3,1.7 -0.3,0.7 -0.5,1.5 -0.5,2.4 l 0,0.1 c 0,0.8 0.1,1.6 0.4,2.1 0.3,0.6 0.7,1.1 1.3,1.5 0.5,0.4 1.1,0.8 1.8,1.1 0.7,0.2 1.4,0.5 2.2,0.7 0.9,0.2 1.5,0.4 2,0.6 0.4,0.2 0.6,0.5 0.6,0.8 l 0,0.1 c 0,0.6 -0.5,0.9 -1.4,0.9 -0.8,0 -1.7,-0.1 -2.7,-0.5 -1,-0.3 -1.9,-0.8 -2.9,-1.4 l -2.1,3.6 c 1.1,0.8 2.4,1.5 3.7,1.9 1.2,0.4 2.6,0.6 4,0.6 0.9,0 1.8,-0.1 2.7,-0.4 0.8,-0.2 1.5,-0.6 2.1,-1.1 0.5,-0.4 1,-1 1.3,-1.7 0.3,-0.7 0.5,-1.5 0.5,-2.5 l 0,-0.1 c 0,-0.8 -0.2,-1.5 -0.5,-2.1 -0.3,-0.5 -0.7,-1 -1.2,-1.4 -0.5,-0.5 -1.1,-0.8 -1.8,-1.1 -0.7,-0.2 -1.5,-0.5 -2.3,-0.7 -0.8,-0.3 -1.5,-0.5 -1.9,-0.7 -0.5,-0.2 -0.7,-0.5 -0.7,-0.8 l 0,-0.1 c 0,-0.3 0.1,-0.4 0.3,-0.6 0.2,-0.1 0.6,-0.2 1,-0.2 0.7,0 1.4,0.1 2.3,0.4 0.8,0.3 1.7,0.7 2.5,1.1 l 1.9,-3.7 c -0.9,-0.6 -1.9,-1.1 -3.1,-1.5 -1.2,-0.3 -2.3,-0.5 -3.5,-0.5 z m 248.51,0 c -0.9,0 -1.8,0.1 -2.5,0.4 -0.8,0.2 -1.5,0.6 -2.1,1.1 -0.6,0.4 -1,1 -1.4,1.7 -0.3,0.7 -0.4,1.5 -0.4,2.4 l 0,0.1 c 0,0.8 0.1,1.6 0.4,2.1 0.3,0.6 0.7,1.1 1.2,1.5 0.5,0.4 1.1,0.8 1.8,1.1 0.7,0.2 1.5,0.5 2.3,0.7 0.8,0.2 1.5,0.4 1.9,0.6 0.5,0.2 0.7,0.5 0.7,0.8 l 0,0.1 c 0,0.6 -0.5,0.9 -1.4,0.9 -0.9,0 -1.8,-0.1 -2.7,-0.5 -1,-0.3 -2,-0.8 -2.9,-1.4 l -2.1,3.6 c 1.1,0.8 2.3,1.5 3.6,1.9 1.3,0.4 2.7,0.6 4,0.6 1,0 1.9,-0.1 2.7,-0.4 0.8,-0.2 1.5,-0.6 2.1,-1.1 0.6,-0.4 1,-1 1.3,-1.7 0.4,-0.7 0.5,-1.5 0.5,-2.5 l 0,-0.1 c 0,-0.8 -0.1,-1.5 -0.4,-2.1 -0.3,-0.5 -0.7,-1 -1.2,-1.4 -0.6,-0.5 -1.2,-0.8 -1.9,-1.1 -0.7,-0.2 -1.4,-0.5 -2.2,-0.7 -0.9,-0.3 -1.5,-0.5 -2,-0.7 -0.4,-0.2 -0.6,-0.5 -0.6,-0.8 l 0,-0.1 c 0,-0.3 0.1,-0.4 0.3,-0.6 0.2,-0.1 0.5,-0.2 1,-0.2 0.6,0 1.4,0.1 2.2,0.4 0.9,0.3 1.7,0.7 2.6,1.1 l 1.9,-3.7 c -0.9,-0.6 -2,-1.1 -3.1,-1.5 -1.2,-0.3 -2.3,-0.5 -3.5,-0.5 z m 101.8,0 c -0.9,0 -1.8,0.1 -2.6,0.4 -0.8,0.2 -1.5,0.6 -2,1.1 -0.6,0.4 -1.1,1 -1.4,1.7 -0.3,0.7 -0.5,1.5 -0.5,2.4 l 0,0.1 c 0,0.8 0.2,1.6 0.5,2.1 0.3,0.6 0.7,1.1 1.2,1.5 0.5,0.4 1.1,0.8 1.8,1.1 0.7,0.2 1.4,0.5 2.2,0.7 0.9,0.2 1.5,0.4 2,0.6 0.4,0.2 0.7,0.5 0.7,0.8 l 0,0.1 c 0,0.6 -0.5,0.9 -1.5,0.9 -0.8,0 -1.7,-0.1 -2.7,-0.5 -0.9,-0.3 -1.9,-0.8 -2.8,-1.4 l -2.2,3.6 c 1.2,0.8 2.4,1.5 3.7,1.9 1.3,0.4 2.6,0.6 4,0.6 1,0 1.9,-0.1 2.7,-0.4 0.8,-0.2 1.5,-0.6 2.1,-1.1 0.5,-0.4 1,-1 1.3,-1.7 0.3,-0.7 0.5,-1.5 0.5,-2.5 l 0,-0.1 c 0,-0.8 -0.2,-1.5 -0.5,-2.1 -0.3,-0.5 -0.7,-1 -1.2,-1.4 -0.5,-0.5 -1.1,-0.8 -1.8,-1.1 -0.7,-0.2 -1.4,-0.5 -2.2,-0.7 -0.9,-0.3 -1.6,-0.5 -2,-0.7 -0.4,-0.2 -0.7,-0.5 -0.7,-0.8 l 0,-0.1 c 0,-0.3 0.1,-0.4 0.4,-0.6 0.2,-0.1 0.5,-0.2 0.9,-0.2 0.7,0 1.4,0.1 2.3,0.4 0.8,0.3 1.7,0.7 2.5,1.1 l 2,-3.7 c -1,-0.6 -2,-1.1 -3.2,-1.5 -1.1,-0.3 -2.3,-0.5 -3.5,-0.5 z m -33.1,0 c -1.3,0 -2.5,0.3 -3.5,0.7 -1.1,0.5 -2,1.1 -2.7,1.9 -0.8,0.8 -1.4,1.8 -1.8,2.8 -0.5,1.1 -0.7,2.2 -0.7,3.4 l 0,0.1 c 0,1.2 0.2,2.3 0.7,3.4 0.4,1.1 1,2 1.7,2.8 0.8,0.8 1.7,1.4 2.7,1.9 1.1,0.4 2.2,0.7 3.4,0.7 1.8,0 3.2,-0.4 4.4,-1.1 1.1,-0.7 2,-1.6 2.8,-2.8 l -3.8,-2.9 c -0.5,0.6 -0.9,1 -1.4,1.3 -0.5,0.3 -1,0.5 -1.7,0.5 -0.5,0 -0.9,-0.1 -1.3,-0.3 -0.4,-0.2 -0.8,-0.5 -1,-0.8 -0.3,-0.4 -0.5,-0.8 -0.7,-1.2 -0.2,-0.5 -0.2,-1 -0.2,-1.6 l 0,-0.1 c 0,-0.5 0.1,-1 0.2,-1.4 0.2,-0.5 0.4,-0.8 0.7,-1.2 0.2,-0.3 0.6,-0.6 1,-0.8 0.3,-0.2 0.8,-0.3 1.2,-0.3 0.7,0 1.3,0.2 1.8,0.5 0.4,0.3 0.8,0.7 1.2,1.3 l 3.9,-3 c -0.7,-1.2 -1.6,-2.1 -2.7,-2.8 -1.1,-0.6 -2.5,-1 -4.2,-1 z M 245,392.1 c -1.4,-0.1 -2.4,0.3 -3.2,1 -0.8,0.6 -1.5,1.6 -1.9,2.7 l 0,-3.4 -5.7,0 0,0 0,16.9 5.7,0 0,-5.3 c 0,-1.9 0.4,-3.4 1.2,-4.3 0.8,-0.9 1.9,-1.3 3.4,-1.3 l 0.5,0 z m 133.2,0 c -1.4,-0.1 -2.4,0.3 -3.2,1 -0.8,0.6 -1.4,1.6 -1.9,2.7 l 0,-3.4 -5.7,0 0,0 0,16.9 5.7,0 0,-5.3 c 0,-1.9 0.4,-3.4 1.2,-4.3 0.8,-0.9 1.9,-1.3 3.4,-1.3 l 0.5,0 z m -154.8,0 c -1.4,0 -2.6,0.1 -3.6,0.4 -1.1,0.2 -2,0.5 -3,0.9 l 1.2,4.2 c 0.7,-0.3 1.4,-0.5 2.1,-0.7 0.7,-0.1 1.5,-0.2 2.4,-0.2 1.1,0 1.9,0.2 2.4,0.7 0.5,0.5 0.8,1.1 0.8,2 l 0,0.3 c -0.5,-0.2 -1,-0.3 -1.7,-0.5 -0.7,-0.1 -1.4,-0.2 -2.2,-0.2 -1,0 -1.8,0.2 -2.6,0.4 -0.8,0.2 -1.4,0.5 -2,1 -0.5,0.4 -1,1 -1.3,1.6 -0.3,0.7 -0.4,1.5 -0.4,2.3 l 0,0.1 c 0,0.9 0.1,1.6 0.4,2.3 0.3,0.6 0.7,1.2 1.1,1.6 0.5,0.4 1.1,0.8 1.8,1 0.6,0.2 1.3,0.3 2.1,0.3 1.1,0 2,-0.2 2.8,-0.5 0.7,-0.4 1.4,-0.9 2,-1.6 l 0,1.8 5.6,0 0,-9.7 c 0,-1.2 -0.2,-2.2 -0.4,-3.1 -0.3,-0.9 -0.7,-1.7 -1.4,-2.3 -0.6,-0.7 -1.4,-1.2 -2.4,-1.5 -1,-0.4 -2.3,-0.5 -3.7,-0.5 z m -50.4,0.2 3.8,0 c 0.8,0 1.5,0.1 1.9,0.4 0.5,0.4 0.7,0.8 0.7,1.4 l 0,0.1 c 0,0.7 -0.2,1.1 -0.7,1.5 -0.5,0.3 -1.1,0.4 -2,0.4 l -3.7,0 z m -64.3,0.1 0,11 c 0,1.9 0.5,3.4 1.5,4.5 1,1.1 2.3,1.7 4.1,1.7 1.1,0 2.1,-0.3 2.8,-0.8 0.8,-0.6 1.4,-1.2 1.9,-1.9 l 0,2.3 5.8,0 0,-16.8 -5.8,0 0,9.1 c 0,0.9 -0.2,1.6 -0.6,2.1 -0.5,0.5 -1,0.7 -1.7,0.7 -0.7,0 -1.2,-0.2 -1.6,-0.7 -0.4,-0.5 -0.7,-1.2 -0.7,-2.1 l 0,-9.1 z m 79.8,0 0,16.8 5.7,0 0,-16.8 z m 159.8,0 0,11 c 0,1.9 0.5,3.4 1.5,4.5 1,1.1 2.3,1.7 4.1,1.7 1.1,0 2.1,-0.3 2.8,-0.8 0.8,-0.6 1.4,-1.2 2,-1.9 l 0,2.3 5.7,0 0,-16.8 -5.7,0 0,9.1 c 0,0.9 -0.3,1.6 -0.7,2.1 -0.5,0.5 -1,0.7 -1.7,0.7 -0.7,0 -1.2,-0.2 -1.6,-0.7 -0.4,-0.5 -0.7,-1.2 -0.7,-2.1 l 0,-9.1 z m -102.5,0 6.3,16.5 c -0.2,0.3 -0.4,0.5 -0.6,0.6 -0.2,0.1 -0.4,0.1 -0.7,0.1 -0.3,0 -0.7,-0.1 -1.1,-0.2 -0.5,-0.2 -0.9,-0.4 -1.4,-0.7 l -1.7,4.1 c 0.7,0.5 1.5,0.8 2.4,1.1 0.8,0.2 1.7,0.4 2.8,0.4 0.8,0 1.5,-0.1 2.1,-0.3 0.6,-0.2 1.2,-0.5 1.6,-1 0.5,-0.4 0.9,-1 1.3,-1.7 0.4,-0.7 0.8,-1.5 1.1,-2.5 l 5.9,-16.4 -5.8,0 -3,10.1 -3.3,-10.1 z m 34.3,0.2 3.8,0 c 0.9,0 1.7,0.2 2.3,0.7 0.5,0.4 0.8,1 0.8,1.9 l 0,0.1 c 0,0.8 -0.3,1.4 -0.8,1.9 -0.5,0.5 -1.3,0.7 -2.3,0.7 l 0,0 -3.8,0 z m -248.81,1.8 2.3,6.2 -4.7,0 z m 116.91,1.9 c 0.8,0 1.4,0.3 1.9,0.9 0.5,0.5 0.8,1.3 0.9,2.2 l -5.6,0 c 0.2,-0.9 0.5,-1.7 1,-2.2 0.4,-0.6 1,-0.9 1.8,-0.9 z m 154.8,0 c 0.7,0 1.4,0.3 1.9,0.9 0.5,0.5 0.8,1.3 0.9,2.2 l -5.6,0 c 0.1,-0.9 0.4,-1.7 0.9,-2.2 0.5,-0.6 1.1,-0.9 1.9,-0.9 z m 101.7,0 c 0.8,0 1.4,0.3 1.9,0.9 0.5,0.5 0.8,1.3 0.9,2.2 l -5.6,0 c 0.2,-0.9 0.5,-1.7 1,-2.2 0.4,-0.6 1.1,-0.9 1.8,-0.9 z M 53.59,397 c 0.9,0 1.7,0.3 2.3,1 0.7,0.7 1,1.6 1,2.7 l 0,0.1 c 0,1.2 -0.3,2.1 -1,2.8 -0.6,0.7 -1.4,1.1 -2.3,1.1 -0.5,0 -0.9,-0.1 -1.3,-0.3 -0.4,-0.2 -0.7,-0.5 -1,-0.8 -0.3,-0.3 -0.6,-0.7 -0.7,-1.2 -0.2,-0.5 -0.3,-1 -0.3,-1.5 l 0,-0.1 c 0,-0.6 0.1,-1.1 0.3,-1.6 0.1,-0.4 0.4,-0.8 0.7,-1.2 0.3,-0.3 0.6,-0.6 1,-0.8 0.4,-0.2 0.8,-0.2 1.3,-0.2 z m 34.9,0.1 c 0.5,0 1,0.1 1.4,0.3 0.4,0.2 0.8,0.5 1.1,0.8 0.3,0.3 0.6,0.7 0.7,1.2 0.2,0.4 0.3,0.9 0.3,1.4 l 0,0.1 c 0,0.5 -0.1,1 -0.3,1.5 -0.1,0.4 -0.4,0.8 -0.6,1.1 -0.3,0.4 -0.7,0.6 -1.1,0.8 -0.4,0.2 -0.9,0.3 -1.4,0.3 -0.5,0 -1,-0.1 -1.4,-0.3 -0.4,-0.2 -0.8,-0.5 -1.1,-0.8 -0.3,-0.3 -0.5,-0.7 -0.7,-1.2 -0.2,-0.4 -0.2,-0.9 -0.2,-1.4 l 0,-0.1 c 0,-0.5 0.1,-1 0.2,-1.5 0.2,-0.4 0.4,-0.8 0.7,-1.1 0.3,-0.4 0.6,-0.7 1,-0.8 0.4,-0.2 0.9,-0.3 1.4,-0.3 z m 248.61,0 c 0.5,0 1,0.1 1.4,0.3 0.4,0.2 0.8,0.5 1.1,0.8 0.3,0.3 0.5,0.7 0.7,1.2 0.2,0.4 0.2,0.9 0.2,1.4 l 0,0.1 c 0,0.5 -0.1,1 -0.2,1.5 -0.2,0.4 -0.4,0.8 -0.7,1.1 -0.3,0.4 -0.6,0.6 -1,0.8 -0.5,0.2 -0.9,0.3 -1.4,0.3 -0.5,0 -1,-0.1 -1.4,-0.3 -0.4,-0.2 -0.8,-0.5 -1.1,-0.8 -0.3,-0.3 -0.5,-0.7 -0.7,-1.2 -0.2,-0.4 -0.3,-0.9 -0.3,-1.4 l 0,-0.1 c 0,-0.5 0.1,-1 0.3,-1.5 0.1,-0.4 0.3,-0.8 0.6,-1.1 0.3,-0.4 0.7,-0.7 1.1,-0.8 0.4,-0.2 0.9,-0.3 1.4,-0.3 z m -164.1,3.3 4.4,0 c 1,0 1.7,0.1 2.2,0.5 0.4,0.3 0.7,0.8 0.7,1.4 l 0,0.1 c 0,0.7 -0.3,1.2 -0.8,1.5 -0.4,0.3 -1.1,0.5 -2,0.5 l -4.5,0 z m 50.5,1.5 c 0.5,0 0.9,0 1.3,0.1 0.3,0.1 0.7,0.2 1,0.4 l 0,0.7 c 0,0.9 -0.3,1.6 -0.8,2.1 -0.5,0.5 -1.2,0.7 -2,0.7 -0.6,0 -1.1,-0.2 -1.5,-0.5 -0.4,-0.3 -0.5,-0.7 -0.5,-1.3 l 0,-0.1 c 0,-0.7 0.2,-1.2 0.6,-1.5 0.5,-0.4 1.1,-0.6 2,-0.6 z" />
</svg>
