<?xml version="1.0"?>

<!-- Generator: Adobe Illustrator 19.1.0, SVG Export Plug-In . SVG Version: 6.00 Build 0)  -->
<svg version="1.1" id="Layer_1" xmlns="http://www.w3.org/2000/svg" xmlns:xlink="http://www.w3.org/1999/xlink" x="0px" y="0px" width="561.1px" height="285px" viewBox="0 0 561.1 285" style="enable-background:new 0 0 561.1 285;" xml:space="preserve">

<g>
	<path class="st0" d="M62.1,197.3H22.2L94,81h39.8l22.4,116.3h-38.8l-2.5-16.5H72.2L62.1,197.3L62.1,197.3z M111,155.2l-4.6-30.1
		l-18.5,30.1H111L111,155.2z M293.9,197.3H254L325.8,81h39.8l22.4,116.3h-38.8l-2.5-16.5H304L293.9,197.3L293.9,197.3z M342.8,155.2
		l-4.6-30.1l-18.5,30.1H342.8L342.8,155.2z M310.4,76.7h16.4c0.9-3.2,4.6-6.7,7.9-5.6c6.6,2.2,10.7,6.7,22.3,6.8
		c12.2,0,18.6-13.5,19.7-25.7h-16.2c-0.9,4.2-4.1,6.2-7.8,6c-6-0.3-14.2-4.5-21.8-5.2C317.3,51.7,312.4,64.5,310.4,76.7L310.4,76.7z
		 M185.5,238.5l7.6-33h31.7l-7.6,33H185.5L185.5,238.5z M222,78.3c32.8,0,54.8,10.7,55.4,46.8l-38,0.2c-0.6-9.3-0.6-18.9-18-19.2
		c-17.3-0.3-24.1,14.2-28,32.8c-3.9,18.5,1.6,34.9,17.2,33.7c15.6-1.1,19.8-7.8,26.1-19.3h37.2c-15.4,36.3-38.1,46.6-66.9,46.6
		c-41.5,0-59.8-28.5-52.3-64.6C161.5,102.7,184.5,78.3,222,78.3L222,78.3z M452.6,78.1c22.6-0.2,44.9,8.4,54.6,30.3
		c4.1,9.1,5.9,18.9,5.2,29.4c-1.1,16.6-7.9,32.4-19.9,44.1c-5.9,5.8-12.9,10.3-21.3,13.5c-8.3,3.3-17.6,5-27.8,4.9
		c-15-0.1-27.1-3.1-36.3-9.1c-9.2-6-15.6-13.7-19.2-23.1c-3.6-9.4-5.1-19.4-4.2-30c0.7-8.2,2.8-15.8,6-22.9
		c3.2-7.1,7.7-13.4,13.4-19C416.4,83.5,434.6,78.2,452.6,78.1L452.6,78.1z M450.5,105c-10.6-0.1-18.6,6-23.1,15.3
		c-2.5,5.1-4.1,11.4-4.6,18.7c-0.7,11.2,1,19.7,5,25.6c4,5.9,9.9,8.9,17.7,8.8c8.6-0.1,15.2-3.3,19.6-9.5c4.4-6.1,7.2-13.9,8-23.4
		c0.9-10.5-0.6-19-4.2-25.6C465.3,108.4,459.2,105,450.5,105L450.5,105z"></path>
	<path class="st0" d="M231.4,239.2l6.5-28.5h4.3l-6.5,28.5H231.4L231.4,239.2z M241.1,239.2l6.5-28.5h5.9l7.5,22.8l5.2-22.8h4.3
		l-6.5,28.5h-5.6l-7.7-23.5l-5.4,23.5H241.1L241.1,239.2z M269.2,239.2l6.5-28.5h15l-0.9,4H279l-1.8,8.1h10.7l-0.9,3.9h-10.7
		l-2.9,12.5H269.2L269.2,239.2z M293.7,226.6c-0.1,2.9,0.7,5.1,2.3,6.8s3.9,2.6,6.6,2.6c3.5,0,6.3-1.2,8.6-3.5
		c2.3-2.4,3.5-5.4,3.6-9.2c0.1-2.9-0.7-5.2-2.3-6.9c-1.6-1.7-3.8-2.5-6.7-2.5c-3.4,0-6.3,1.2-8.6,3.6
		C295,219.8,293.8,222.9,293.7,226.6L293.7,226.6z M289.4,226.8c0.1-2.5,0.6-4.8,1.5-6.9c0.9-2.1,2.2-3.9,3.8-5.4
		c1.6-1.4,3.3-2.5,5.3-3.2c2-0.7,4.1-1.1,6.4-1.1c4,0,7.2,1.2,9.6,3.6c2.3,2.4,3.4,5.5,3.3,9.5c-0.1,1.9-0.4,3.7-0.9,5.4
		c-0.6,1.7-1.3,3.2-2.4,4.6c-1.5,2.1-3.5,3.7-5.8,4.8c-2.3,1.1-4.9,1.7-7.7,1.7c-4.1,0-7.3-1.2-9.7-3.5
		C290.4,233.9,289.2,230.8,289.4,226.8L289.4,226.8z M319.5,239.2l6.5-28.5h7.4c3.4,0,6,0.7,7.9,2.2c1.8,1.5,2.7,3.5,2.6,6.2
		c-0.1,2.6-1,4.8-2.8,6.4c-1.8,1.7-4.1,2.7-7.1,2.9l5.6,10.7h-4.7l-7.4-14c0.2,0,0.4,0,0.7,0c4.2,0,6.8-0.4,7.9-1
		c0.9-0.5,1.7-1.2,2.2-2.1c0.5-0.8,0.8-1.8,0.9-2.8c0-1.5-0.4-2.7-1.5-3.5c-1-0.8-2.5-1.3-4.4-1.3c-0.5,0-1.1,0-1.8,0
		c-0.7,0-1.4,0.1-2.2,0.1l-5.6,24.4H319.5L319.5,239.2z M343.9,239.2l6.5-28.5h6.6l3.4,22.5l13.8-22.5h7l-6.5,28.5h-4.3l5.5-24.3
		l-14.9,24.3h-3.8l-3.6-24.3l-5.6,24.3H343.9L343.9,239.2z M376.6,239.2l16.8-28.5h4.9l5,28.5h-4.4l-1.4-8.2h-11.5l-4.8,8.2H376.6
		L376.6,239.2z M396.8,227l-1.8-12l-6.8,12H396.8L396.8,227z M395.6,208h-2.4l4.8-6.8h3.8L395.6,208L395.6,208z M406.5,239.2
		l5.6-24.5h-6.4l0.9-3.9h16.8l-0.9,3.9h-6.1l-5.6,24.5H406.5L406.5,239.2z M422.2,239.2l6.5-28.5h4.3l-6.5,28.5H422.2L422.2,239.2z
		 M456,231h5.2c-1.5,2.8-3.5,4.9-6.1,6.4c-2.6,1.5-5.5,2.3-8.7,2.3c-1.8,0-3.4-0.2-4.9-0.7c-1.5-0.5-2.8-1.2-4-2.1
		c-1.6-1.2-2.7-2.8-3.5-4.5c-0.8-1.8-1.2-3.7-1.1-5.7c0.1-2.2,0.5-4.4,1.4-6.4c0.9-2,2.1-3.9,3.8-5.5c1.5-1.5,3.3-2.6,5.3-3.4
		c2-0.8,4.1-1.2,6.3-1.2c3.4,0,6.3,0.9,8.7,2.6c2.4,1.8,4,4.2,4.7,7.2h-4.8c-0.7-1.9-1.8-3.4-3.4-4.4c-1.6-1-3.4-1.6-5.6-1.6
		c-1.5,0-3,0.3-4.4,0.9c-1.4,0.6-2.6,1.4-3.8,2.5c-1.1,1.1-2,2.5-2.7,4c-0.7,1.5-1,3.1-1.1,4.7c-0.1,2.8,0.7,5.1,2.4,6.9
		c1.7,1.8,3.9,2.7,6.6,2.7c2,0,3.8-0.4,5.5-1.3C453.6,233.7,454.9,232.5,456,231L456,231z M459.2,239.2l16.8-28.5h4.9l5,28.5h-4.4
		l-1.4-8.2h-11.5l-4.8,8.2H459.2L459.2,239.2z M479.5,227l-1.8-12l-6.8,12H479.5L479.5,227z"></path>
</g>
</svg>
