<?xml version="1.0"?>
<!--?xml version="1.0" encoding="UTF-8" standalone="no"?-->
<svg xmlns="http://www.w3.org/2000/svg" enable-background="new -77.5 -94.306 604 335" viewBox="-77.5 -94.306 294.62 98.535" height="98.535" width="294.62"> <path d="m 92.821,-84.306 v 5.89 c 0,0 16.659,6.439 19.059,7.362 -2.4,0.921 -19.059,7.346 -19.059,7.346 v 5.867 L 118.75,-68.36 v -5.407 L 92.821,-84.306 M 207.12,-26.64 v -2.048 c 0,-8.717 -4.5,-14.485 -13.59,-14.485 -10.66,0 -15.33,6.68 -15.33,16.823 0,11.788 5.34,20.578 18.02,20.578 3.39,0 6.77,-0.383 10,-1.435 v -5.754 c -2.09,0.726 -4.58,1.327 -6.83,1.327 -8.11,0 -13.46,-7.411 -13.46,-15.006 h 21.19 m -7.89,-5.049 h -13.06 c 0.38,-3.609 3.15,-6.178 6.75,-6.178 3.84,0 6.31,2.348 6.31,6.178 m -34.42,9.407 v 15.671 h -8.33 v -35.745 h 8.33 v 6.602 h 0.14 c 2.8,-4.933 5.57,-7.419 11.58,-7.419 v 8.704 c -8.56,0 -11.72,3.755 -11.72,12.187 m -21.93,15.671 v -6.668 h -0.15 c -1.9,4.495 -5.56,7.508 -10.59,7.508 -6.84,0 -9.7,-5.628 -9.7,-11.781 v -24.803 h 8.34 v 20.446 c 0,1.73 -0.14,6.301 1.27,7.65 0.62,0.606 1.58,0.662 2.42,0.662 5.99,0 8.41,-8.462 8.41,-13.286 v -15.473 h 8.35 v 35.745 h -8.35 m -34.73,-29.962 v 16.905 c 0,4.219 0.44,8.034 5.64,8.034 1.27,0 2.56,-0.284 3.83,-0.601 v 5.871 c -2.26,0.367 -4.58,0.593 -6.84,0.593 -7.31,0 -10.947,-2.412 -10.947,-9.835 v -20.965 h -6.995 v -5.783 h 6.995 v -8.471 l 8.317,-3.392 v 11.861 h 10.6 v 5.783 h -10.6 M 82.462,-6.611 v -20.413 c 0,-1.726 0.148,-6.317 -1.273,-7.67 -0.611,-0.605 -1.573,-0.679 -2.408,-0.679 -6.008,0 -8.415,8.491 -8.415,13.315 V -6.611 H 62.03 v -35.744 h 8.335 v 6.683 h 0.153 c 1.883,-4.577 5.473,-7.501 10.592,-7.501 6.837,0 9.695,5.632 9.695,11.789 V -6.611 H 82.462 M 57.753,-26.64 v -2.048 c 0,-8.717 -4.499,-14.485 -13.595,-14.485 -10.662,0 -15.327,6.68 -15.327,16.823 0,11.788 5.33,20.578 18.02,20.578 3.384,0 6.768,-0.383 9.988,-1.435 v -5.754 c -2.091,0.726 -4.58,1.327 -6.819,1.327 -8.119,0 -13.451,-7.411 -13.451,-15.006 h 21.184 m -7.887,-5.049 H 36.8 c 0.37,-3.609 3.162,-6.178 6.748,-6.178 3.841,0 6.318,2.348 6.318,6.178 m -32.678,1.588 c 0,-3.683 -1.054,-7.222 -5.401,-7.222 -5.253,0 -6.846,5.483 -6.846,9.779 0,9.013 5.279,15.909 14.733,15.909 2.022,0 4.051,-0.226 5.999,-0.928 v 5.133 c -3.368,1.065 -6.904,1.657 -10.436,1.657 -12.77,0 -19.145,-7.824 -19.145,-20.278 0,-10.381 5.64,-17.122 16.365,-17.122 8.722,0 13.602,4.267 13.602,13.072 h -8.871 m -32.021,0 c 0,-3.683 -1.051,-7.222 -5.406,-7.222 -5.264,0 -6.841,5.483 -6.841,9.779 0,9.013 5.248,15.909 14.737,15.909 2.014,0 4.036,-0.226 5.997,-0.928 v 5.133 c -3.389,1.065 -6.908,1.658 -10.444,1.658 -12.76,0 -19.15,-7.824 -19.15,-20.278 0,-10.381 5.65,-17.122 16.381,-17.122 8.714,0 13.587,4.267 13.587,13.072 h -8.861 M -39.55,-6.611 v -25.454 c 0,-8.256 -5.42,-11.107 -13,-11.107 -7.43,0 -13.61,3.152 -13.61,11.333 h 8.13 c 0,-3.533 1.88,-5.483 5.48,-5.483 4.13,0 5.03,3.005 5.03,6.533 v 3.538 c -8.11,0.227 -19.98,1.356 -19.98,12.097 0,6.079 4.81,9.383 10.51,9.383 3.91,0 7.51,-1.281 9.33,-4.961 h 0.14 v 4.121 h 7.97 m -7.97,-15.758 c 0,4.59 -1.88,10.734 -7.44,10.734 -2.78,0 -4.43,-1.429 -4.43,-4.282 0,-5.374 7.89,-6.452 11.87,-6.452" id="path3483"></path> </svg>