<?xml version="1.0"?>

<!-- Generator: Adobe Illustrator 19.1.0, SVG Export Plug-In . SVG Version: 6.00 Build 0)  -->
<svg version="1.1" id="Capa_1" xmlns="http://www.w3.org/2000/svg" xmlns:xlink="http://www.w3.org/1999/xlink" x="0px" y="0px" width="300px" height="83.7px" viewBox="0 0 300 83.7" style="enable-background:new 0 0 300 83.7;" xml:space="preserve">

<path class="st0" d="M175.8,64.6c-0.2-0.7-0.6-1.3-1.3-1.5c-0.4-0.2-0.8-0.2-1.2-0.2c-0.9,0-1.6,0.3-2.1,1c-0.6,0.7-0.8,1.6-0.8,3
	c0,1.3,0.3,2.3,0.9,2.8c0.6,0.6,1.3,0.8,2.1,0.8c0.8,0,1.4-0.2,1.9-0.7c0.5-0.4,0.8-1,0.9-1.7h-2.5v-1.8h4.5v5.8h-1.5l-0.2-1.3
	c-0.4,0.5-0.8,0.9-1.2,1.1c-0.6,0.4-1.3,0.5-2.2,0.5c-1.4,0-2.6-0.5-3.5-1.5c-1-1-1.4-2.4-1.4-4.1c0-1.7,0.5-3.1,1.4-4.2
	c1-1.1,2.2-1.6,3.8-1.6c1.4,0,2.5,0.3,3.3,1c0.8,0.7,1.3,1.6,1.4,2.6H175.8z"></path>
<path class="st0" d="M184.5,63.9c0,0,0.1,0,0.2,0V66c-0.1,0-0.2,0-0.4,0c-0.1,0-0.2,0-0.2,0c-0.8,0-1.4,0.3-1.7,0.8
	c-0.2,0.3-0.2,0.8-0.2,1.4v3.8H180v-8h2v1.4c0.3-0.5,0.6-0.9,0.8-1.1C183.3,64.1,183.8,63.9,184.5,63.9
	C184.4,63.9,184.5,63.9,184.5,63.9z"></path>
<path class="st0" d="M189.1,67.2c0.4,0,0.7-0.1,0.8-0.2c0.3-0.1,0.5-0.3,0.5-0.6c0-0.3-0.1-0.6-0.3-0.7c-0.2-0.1-0.6-0.2-1-0.2
	c-0.5,0-0.9,0.1-1.1,0.4c-0.1,0.2-0.2,0.4-0.3,0.7h-2c0-0.7,0.2-1.3,0.6-1.7c0.6-0.7,1.5-1.1,2.9-1.1c0.9,0,1.7,0.2,2.3,0.5
	c0.7,0.3,1,1,1,2V70c0,0.3,0,0.6,0,0.9c0,0.3,0.1,0.5,0.1,0.6c0.1,0.1,0.2,0.2,0.3,0.2v0.3h-2.3c-0.1-0.2-0.1-0.3-0.1-0.5
	c0-0.1,0-0.3-0.1-0.5c-0.3,0.3-0.6,0.6-1,0.8c-0.5,0.3-1,0.4-1.5,0.4c-0.7,0-1.3-0.2-1.8-0.6c-0.5-0.4-0.7-1-0.7-1.8
	c0-1,0.4-1.7,1.1-2.1c0.4-0.2,1-0.4,1.8-0.5L189.1,67.2z M190.3,68.2c-0.1,0.1-0.3,0.2-0.4,0.2c-0.1,0.1-0.3,0.1-0.6,0.1l-0.5,0.1
	c-0.4,0.1-0.8,0.2-1,0.3c-0.3,0.2-0.5,0.5-0.5,0.9c0,0.4,0.1,0.6,0.3,0.8c0.2,0.2,0.4,0.2,0.7,0.2c0.5,0,0.9-0.1,1.3-0.4
	c0.4-0.3,0.6-0.7,0.6-1.4V68.2z"></path>
<path class="st0" d="M200.7,64.5c0.5,0.4,0.8,1.2,0.8,2.2v5.4h-2.1v-4.9c0-0.4-0.1-0.7-0.2-1c-0.2-0.4-0.6-0.6-1.2-0.6
	c-0.7,0-1.2,0.3-1.4,0.9c-0.1,0.3-0.2,0.7-0.2,1.2v4.3h-2.1v-8h2v1.2c0.3-0.4,0.5-0.7,0.8-0.9c0.4-0.3,1-0.5,1.6-0.5
	C199.5,63.9,200.2,64.1,200.7,64.5z M197.3,61.1c0.1,0,0.2,0.1,0.3,0.1l0.7,0.3c0.2,0.1,0.3,0.1,0.4,0.1c0.1,0,0.1,0,0.2,0
	c0.2,0,0.4-0.1,0.5-0.2c0.1-0.1,0.2-0.3,0.2-0.4h1c-0.1,0.5-0.3,0.9-0.5,1.3c-0.3,0.3-0.6,0.5-1.1,0.5c-0.2,0-0.4,0-0.6-0.1
	c-0.2,0-0.3-0.1-0.5-0.1l-0.6-0.2c-0.1,0-0.2,0-0.2-0.1c-0.1,0-0.2,0-0.2,0c-0.2,0-0.3,0.1-0.5,0.2c-0.1,0.1-0.2,0.3-0.2,0.5h-1
	c0.1-0.5,0.2-0.9,0.4-1.1c0.3-0.5,0.8-0.7,1.4-0.7C197.1,61.1,197.2,61.1,197.3,61.1z"></path>
<path class="st0" d="M206.6,67.2c0.4,0,0.7-0.1,0.8-0.2c0.3-0.1,0.5-0.3,0.5-0.6c0-0.3-0.1-0.6-0.3-0.7c-0.2-0.1-0.6-0.2-1-0.2
	c-0.5,0-0.9,0.1-1.1,0.4c-0.1,0.2-0.2,0.4-0.3,0.7h-2c0-0.7,0.2-1.3,0.6-1.7c0.6-0.7,1.5-1.1,2.9-1.1c0.9,0,1.7,0.2,2.3,0.5
	c0.7,0.3,1,1,1,2V70c0,0.3,0,0.6,0,0.9c0,0.3,0.1,0.5,0.1,0.6c0.1,0.1,0.2,0.2,0.3,0.2v0.3h-2.3c-0.1-0.2-0.1-0.3-0.1-0.5
	c0-0.1,0-0.3-0.1-0.5c-0.3,0.3-0.6,0.6-1,0.8c-0.5,0.3-1,0.4-1.5,0.4c-0.7,0-1.3-0.2-1.8-0.6c-0.5-0.4-0.7-1-0.7-1.8
	c0-1,0.4-1.7,1.1-2.1c0.4-0.2,1-0.4,1.8-0.5L206.6,67.2z M207.8,68.2c-0.1,0.1-0.3,0.2-0.4,0.2c-0.1,0.1-0.3,0.1-0.6,0.1l-0.5,0.1
	c-0.4,0.1-0.8,0.2-1,0.3c-0.3,0.2-0.5,0.5-0.5,0.9c0,0.4,0.1,0.6,0.3,0.8c0.2,0.2,0.4,0.2,0.7,0.2c0.5,0,0.9-0.1,1.3-0.4
	c0.4-0.3,0.6-0.7,0.6-1.4V68.2z"></path>
<path class="st0" d="M216.2,73.6l0.3,0c0.2,0,0.4,0,0.6,0c0.2,0,0.3-0.1,0.5-0.2c0.1-0.1,0.2-0.3,0.3-0.5c0.1-0.3,0.2-0.4,0.1-0.5
	l-2.9-8.3h2.3l1.7,5.9l1.6-5.9h2.2l-2.7,7.9c-0.5,1.5-0.9,2.5-1.3,2.8c-0.3,0.4-0.9,0.5-1.8,0.5c-0.2,0-0.3,0-0.4,0
	c-0.1,0-0.3,0-0.5,0V73.6z"></path>
<path class="st0" d="M235.8,61.3h3.2v10.8h-2.1v-7.3c0-0.2,0-0.5,0-0.9c0-0.4,0-0.7,0-0.9l-2,9.1h-2.2l-2-9.1c0,0.2,0,0.5,0,0.9
	c0,0.4,0,0.7,0,0.9v7.3h-2.1V61.3h3.3l2,8.5L235.8,61.3z"></path>
<path class="st0" d="M247.6,71.1c-0.7,0.8-1.7,1.2-3.1,1.2c-1.4,0-2.4-0.4-3.1-1.2c-0.7-0.8-1-1.8-1-3c0-1.2,0.3-2.1,1-3
	c0.7-0.8,1.7-1.3,3.1-1.3c1.4,0,2.4,0.4,3.1,1.3c0.7,0.8,1,1.8,1,3C248.6,69.3,248.2,70.3,247.6,71.1z M245.9,69.9
	c0.3-0.4,0.5-1,0.5-1.8c0-0.8-0.2-1.4-0.5-1.8c-0.3-0.4-0.8-0.6-1.4-0.6c-0.6,0-1.1,0.2-1.4,0.6c-0.3,0.4-0.5,1-0.5,1.8
	c0,0.8,0.2,1.4,0.5,1.8c0.3,0.4,0.8,0.7,1.4,0.7C245.1,70.6,245.6,70.4,245.9,69.9z"></path>
<path class="st0" d="M256.5,64.5c0.5,0.4,0.8,1.2,0.8,2.2v5.4h-2.1v-4.9c0-0.4-0.1-0.7-0.2-1c-0.2-0.4-0.6-0.6-1.2-0.6
	c-0.7,0-1.2,0.3-1.4,0.9c-0.1,0.3-0.2,0.7-0.2,1.2v4.3h-2.1v-8h2v1.2c0.3-0.4,0.5-0.7,0.8-0.9c0.4-0.3,1-0.5,1.6-0.5
	C255.3,63.9,256,64.1,256.5,64.5z"></path>
<path class="st0" d="M258.4,65.6v-1.5h1.1v-2.2h2.1v2.2h1.3v1.5h-1.3v4.2c0,0.3,0,0.5,0.1,0.6c0.1,0.1,0.3,0.1,0.8,0.1
	c0.1,0,0.1,0,0.2,0c0.1,0,0.1,0,0.2,0v1.6l-1,0c-1,0-1.7-0.1-2-0.5c-0.2-0.2-0.4-0.6-0.4-1.1v-4.9H258.4z"></path>
<path class="st0" d="M269.4,64.2c0.6,0.2,1,0.6,1.4,1.2c0.3,0.5,0.5,1,0.6,1.6c0.1,0.4,0.1,0.9,0.1,1.6h-5.8c0,0.8,0.3,1.4,0.8,1.7
	c0.3,0.2,0.7,0.3,1.2,0.3c0.5,0,0.9-0.1,1.2-0.4c0.2-0.1,0.3-0.3,0.4-0.5h2.1c-0.1,0.5-0.3,1-0.8,1.4c-0.7,0.8-1.7,1.2-3,1.2
	c-1.1,0-2-0.3-2.8-1c-0.8-0.7-1.2-1.7-1.2-3.2c0-1.4,0.4-2.4,1.1-3.2c0.7-0.7,1.7-1.1,2.9-1.1C268.3,63.9,268.9,64,269.4,64.2z
	 M266.3,66.1c-0.3,0.3-0.5,0.7-0.6,1.2h3.6c0-0.6-0.2-1-0.6-1.3c-0.3-0.3-0.7-0.4-1.2-0.4C267,65.6,266.6,65.7,266.3,66.1z"></path>
<path class="st0" d="M277,63.9c0,0,0.1,0,0.2,0V66c-0.1,0-0.2,0-0.4,0c-0.1,0-0.2,0-0.2,0c-0.8,0-1.4,0.3-1.7,0.8
	c-0.2,0.3-0.2,0.8-0.2,1.4v3.8h-2.1v-8h2v1.4c0.3-0.5,0.6-0.9,0.8-1.1C275.8,64.1,276.3,63.9,277,63.9C277,63.9,277,63.9,277,63.9z"></path>
<path class="st0" d="M285.1,71.1c-0.7,0.8-1.7,1.2-3.1,1.2c-1.4,0-2.4-0.4-3.1-1.2c-0.7-0.8-1-1.8-1-3c0-1.2,0.3-2.1,1-3
	c0.7-0.8,1.7-1.3,3.1-1.3c1.4,0,2.4,0.4,3.1,1.3c0.7,0.8,1,1.8,1,3C286.1,69.3,285.7,70.3,285.1,71.1z M283.4,69.9
	c0.3-0.4,0.5-1,0.5-1.8c0-0.8-0.2-1.4-0.5-1.8c-0.3-0.4-0.8-0.6-1.4-0.6c-0.6,0-1.1,0.2-1.4,0.6c-0.3,0.4-0.5,1-0.5,1.8
	c0,0.8,0.2,1.4,0.5,1.8c0.3,0.4,0.8,0.7,1.4,0.7C282.6,70.6,283.1,70.4,283.4,69.9z"></path>
<g>
	<g>
		<path class="st0" d="M97.5,53l9.8-23h4.6l10,23h-4.6l-2.9-6.3H107l1.5-3.7h4.8l-3.8-8.6L101.9,53H97.5z"></path>
		<path class="st0" d="M134.6,53V30h10c7.2,0,10.8,3.6,10.8,10.9c0,8.1-3.6,12.1-10.8,12.1H134.6z M143.9,49.3
			c4.8,0,7.2-2.8,7.2-8.4c0-4.8-2.4-7.2-7.2-7.2h-5.1v15.6H143.9z"></path>
		<path class="st0" d="M184.4,30v3.7h-10.9v5.8h10.3v3.8h-10.4v6h11.2V53h-15.3V30H184.4z"></path>
		<path class="st0" d="M197.1,30h5.4l18.1,23h-5.4L197.1,30z M202.5,53h-5.4l18.1-23h5.4L202.5,53z"></path>
		<path class="st0" d="M233.2,44V30h4.3v14c0,3.7,1.9,5.5,5.6,5.5c3.8,0,5.6-1.8,5.6-5.5V30h4.3v14c0,6.1-3.3,9.2-9.9,9.2
			C236.5,53.2,233.2,50.1,233.2,44"></path>
		<path class="st0" d="M268.1,52.1v-3.9c2.3,0.9,4.9,1.3,7.8,1.3c3.5,0,5.3-1.2,5.3-3.5c0-1.7-1.1-2.6-3.3-2.6H274
			c-4.7,0-7.1-2.1-7.1-6.4c0-4.7,3.4-7.1,10.1-7.1c2.6,0,5,0.4,7.3,1.1v3.9c-2.3-0.9-4.8-1.3-7.3-1.3c-3.9,0-5.8,1.1-5.8,3.4
			c0,1.7,0.9,2.6,2.8,2.6h3.9c5,0,7.5,2.2,7.5,6.4c0,4.8-3.2,7.2-9.6,7.2C273,53.2,270.4,52.8,268.1,52.1"></path>
	</g>
	<path class="st0" d="M13.7,63.6c0.2-0.9,0.5-1.7,1-2.5v0l26.8-45h0c1.2-2.2,3.5-3.7,6.2-3.7c1.6,0,3.1,0.6,4.3,1.5
		c2.7,6.2,4.9,12.7,5.9,19.3c0.5,3.5,0.7,7.1,0.3,10.7c-0.2,1.8-0.5,3.5-1.1,5.1c-0.3,0.8-0.6,1.6-0.9,2.4c-0.1,0.3-0.3,0.5-0.4,0.7
		l-6.6-11.6c-0.3-0.6-1-1-1.7-1c-0.1,0-0.3,0-0.4,0c-0.9,0-1.7,0.1-2.5,0.2c-1,0.1-1.9,0.4-2.9,0.6c-1.9,0.5-3.7,1.2-5.5,2.1
		c-3.5,1.7-6.7,3.9-9.7,6.4C21.7,53.1,17.5,58.2,13.7,63.6"></path>
	<path class="st0" d="M55.9,22.6c-1.1-2.9-2.3-5.8-3.7-8.6c0.7,0.6,1.3,1.3,1.8,2.2h0l25.4,44.8c0.7,1.5,1.5,2.7,1.5,4.4
		c0,2.9-1.7,5.3-4.2,6.4c-2.2-0.3-4.4-0.6-6.6-1c-4-0.7-7.9-1.7-11.7-3c-3.8-1.3-7.5-2.9-10.8-5.1c-1.6-1.1-3.2-2.3-4.5-3.8
		c-0.7-0.7-1.2-1.5-1.8-2.3c-0.2-0.3-0.3-0.5-0.5-0.8l13.8,0.1c0.8,0,1.5-0.5,1.8-1.2l0,0c0.6-0.9,1-1.7,1.4-2.6
		c0.4-0.9,0.7-1.8,0.9-2.7c0.5-1.8,0.8-3.7,0.9-5.5c0.2-3.7-0.1-7.4-0.8-10.9C58.2,29.5,57.2,26,55.9,22.6"></path>
	<path class="st0" d="M70,71.1c2.1,0.3,4.2,0.5,6.2,0.7c-0.7,0.3-1.5,0.4-2.4,0.4L21.4,72c-0.2,0-0.5,0-0.7,0c-3.9,0-7-3.2-7-7
		c0-0.4,0-0.7,0.1-1.1c4-5.3,8.5-10.2,13.7-14.3c3-2.3,6.2-4.3,9.6-5.8c1.7-0.7,3.5-1.3,5.3-1.8c0.9-0.2,1.8-0.4,2.7-0.5
		c0.1,0,0.2,0,0.4,0l-6.8,11.3h0c-0.2,0.3-0.3,0.7-0.3,1.1c0,0.3,0.1,0.6,0.2,0.8c0.2,0.6,0.4,1,0.6,1.5c0.3,0.5,0.5,0.9,0.8,1.4
		c0.6,0.9,1.3,1.7,2,2.4c1.5,1.5,3.2,2.7,4.9,3.8c3.5,2.1,7.4,3.6,11.2,4.8C62,69.7,66,70.5,70,71.1"></path>
</g>
</svg>
