 <svg 
   xmlns="http://www.w3.org/2000/svg"
    
   viewBox="0 0 300 300"
   height="300px"
   width="300px"
    > <path
     d="m 146.837,75.427 48.86,115.946 -32.014,0 -14.616,-36.932 -35.773,0 z m -27.026,-67.656 -76.738,0 0,183.612 z m 54.034,0 76.694,0 0,183.612 z m 65.663,257.012 c 0.062,-6.771 -1.924,-11.516 -5.727,-11.516 -4.339,0 -6.184,6.352 -6.315,11.516 l 12.042,0 z m -12.086,8.477 c 0.141,8.721 4.726,11.559 10.417,11.559 3.609,0 6.701,-0.801 8.985,-1.66 l 1.616,8.625 c -3.18,1.369 -8.09,2.23 -12.798,2.23 -12.867,0 -19.894,-8.793 -19.894,-23.811 0,-16.117 8.151,-25.797 18.796,-25.797 10.285,0 15.985,8.555 15.985,22.52 0,3.197 -0.132,4.998 -0.343,6.402 l -22.764,-0.068 z m -40.49,3.011 c 0,1.203 0.22,2.328 0.475,3.082 1.203,4.033 3.241,5.025 4.874,5.025 4.638,0 6.509,-5.877 6.509,-15.275 0,-8.555 -1.977,-14.447 -6.562,-14.447 -2.274,0 -4.189,2.469 -4.848,5.121 -0.229,0.834 -0.448,2.133 -0.448,3.029 l 0,13.465 z m -11.99,-51.082 11.989,0 0,25.119 0.193,0 c 2.362,-3.707 5.507,-5.824 10.074,-5.824 9.038,0 13.579,10.277 13.579,23.715 0,16.979 -6.772,26.068 -15.547,26.068 -4.181,0 -6.965,-1.854 -9.477,-6.551 l -0.253,0 -0.667,5.77 -10.294,0 c 0.176,-3.996 0.403,-9.469 0.403,-13.789 l 0,-54.508 z m -24.487,59.883 c 4.576,0 5.709,-8.625 5.709,-15.766 0,-6.789 -1.133,-15.635 -5.91,-15.635 -5.06,0 -6.123,8.846 -6.123,15.635 0,8.195 1.335,15.766 6.218,15.766 l 0.106,0 z m -0.228,9.196 c -11.049,0 -17.979,-8.871 -17.979,-24.75 0,-17.33 8.897,-25.033 18.26,-25.033 10.9,0 17.733,9.303 17.733,24.752 0,19.85 -10.706,25.031 -17.917,25.031 l -0.097,0 z m -36.731,-30.495 c 0,-0.887 0,-1.924 -0.176,-2.873 -0.465,-3.285 -2.213,-6.244 -5.024,-6.244 -4.822,0 -6.596,6.947 -6.596,15.072 0,9.336 2.529,14.65 6.429,14.65 1.783,0 3.838,-0.914 4.954,-4.832 0.272,-0.781 0.413,-1.826 0.413,-3.047 l 0,-12.726 z m 11.989,-38.584 0,54.508 c 0,4.32 0.22,9.635 0.396,13.789 l -10.355,0 -0.676,-5.543 -0.246,0 c -1.739,3.418 -5.524,6.324 -10.048,6.324 -9.916,0 -14.834,-10.943 -14.834,-24.76 0,-16.836 7.333,-25.023 15.326,-25.023 4.181,0 6.886,2.047 8.248,5.008 l 0.202,0 0,-24.303 11.987,0 z m -54.544,42.922 -2.433,-14.412 c -0.694,-4.154 -1.581,-10.646 -2.257,-15.143 l -0.264,0 c -0.711,4.531 -1.704,11.207 -2.433,15.178 l -2.618,14.377 10.005,0 z m -11.312,9.391 -3.162,15.994 -11.681,0 14.571,-66.541 14.316,0 13.236,66.541 -11.742,0 -3.092,-15.994 -12.446,0 z m 216.513,-255.265 1.739,0 c 2.144,0 3.9,-0.711 3.9,-2.591 0,-1.414 -1.037,-2.723 -3.76,-2.723 -0.852,0 -1.432,0 -1.88,0.062 l 0,5.252 z m 0,9.134 -2.916,0 0,-16.196 c 1.353,-0.193 2.715,-0.457 4.857,-0.457 2.591,0 4.207,0.527 5.243,1.309 0.905,0.711 1.423,1.8 1.423,3.364 0,2.073 -1.361,3.425 -3.1,3.882 l 0,0.123 c 1.414,0.264 2.318,1.555 2.644,3.961 0.387,2.529 0.711,3.487 0.975,4.014 l -2.978,0 c -0.387,-0.527 -0.72,-2.011 -1.045,-4.137 -0.316,-1.958 -1.414,-2.731 -3.426,-2.731 l -1.678,0 0,6.868 z m 2.653,-20.535 c -6.412,0 -11.594,5.375 -11.594,12.112 0,6.737 5.182,12.112 11.655,12.112 6.411,0.07 11.532,-5.375 11.532,-12.112 0,-6.737 -5.121,-12.112 -11.532,-12.112 l -0.061,0 z m 0.061,-2.459 c 8.019,0 14.431,6.482 14.431,14.51 0,8.16 -6.412,14.633 -14.492,14.633 -8.09,0 -14.633,-6.473 -14.633,-14.633 0,-8.028 6.543,-14.51 14.633,-14.51 l 0.061,0 z"
   /> </svg>