<?xml version="1.0"?>
<!--?xml version="1.0" encoding="UTF-8" standalone="no"?-->
<svg xmlns:dc="http://purl.org/dc/elements/1.1/" xmlns:cc="http://creativecommons.org/ns#" xmlns:rdf="http://www.w3.org/1999/02/22-rdf-syntax-ns#" xmlns:svg="http://www.w3.org/2000/svg" xmlns="http://www.w3.org/2000/svg" xml:space="preserve" enable-background="new 0 0 633.981 189" viewBox="0 0 521.46 188.11" height="188.11" width="521.46" y="0px" x="0px" id="Layer_1" version="1.1"><defs id="defs13"></defs><g transform="translate(-6.503,36.242)" id="g5"><path d="m 325.64,122.92 c -0.14,-0.13 -0.39,-0.32 -0.84,-0.32 -0.71,0 -0.98,1.02 -0.98,1.02 -0.66,2.18 -1.26,2.79 -2.18,3.12 -0.78,0.24 -3,0.21 -4.63,0.21 h -0.56 c -5.37,0 -6.68,-0.73 -6.78,-4.06 0,-1.41 0,-4.61 0,-6.26 v -3.82 c 0,-0.29 0.1,-0.49 0.33,-0.49 0.87,0 3.58,0 5.48,0.1 0.75,0 2.4,0 2.71,0.1 1.44,0.13 1.83,0.72 2.1,1.53 0,0 0.43,1.16 1.14,1.19 1.13,0 1.08,-1.04 1.08,-1.04 0,0 0.13,-1.45 0.19,-2.05 0.1,-0.59 0.3,-2.03 0.3,-2.03 l 0.15,-0.87 c 0,-0.81 -0.45,-0.98 -0.82,-0.98 -0.41,0 -0.81,0.33 -1.21,0.62 l -0.19,0.13 c -0.42,0.27 -0.94,0.4 -1.72,0.51 h -9.13 c -0.26,0 -0.39,0 -0.41,-0.36 V 96.135 c 0,-0.17 0.1,-0.266 0.41,-0.29 h 9.09 c 1.69,0.09 2.23,1.337 2.37,1.746 l 0.23,0.662 c 0.11,0.286 0.34,0.852 1.22,0.852 0.21,0 0.71,-0.06 0.87,-0.842 0,0.02 0.15,-1.128 0.15,-1.128 l 0.16,-1.143 c 0,-0.927 0.19,-1.579 0.29,-1.879 l 0.1,-0.314 c 0,-0.05 0.15,-0.563 0,-0.839 -0.1,-0.194 -0.29,-0.433 -0.71,-0.409 -0.31,0.05 -0.75,0.205 -0.78,0.205 -0.1,0.03 -0.3,0.129 -0.63,0.167 -0.37,0.06 -1.62,0.109 -1.62,0.109 -0.19,0.01 -0.82,0.01 -1.76,0.02 0,0 -10.25,0.03 -11.53,0.03 -0.38,0 -1.46,-0.02 -1.46,-0.02 0,0 -3.3,-0.133 -3.35,-0.133 -0.64,0 -1.2,0.422 -1.2,0.965 0,0.529 0.51,0.842 1.2,0.962 1.21,0.214 1.26,1.527 1.37,5.002 0,1.462 0,3.602 0,7.132 v 8.54 c 0,2.64 0,5.06 -0.1,7.03 -0.25,3.55 -0.14,4.86 -1.24,5.09 -0.7,0.1 -1.22,0.44 -1.22,0.97 0,0.54 0.55,0.97 1.22,0.97 0,0 3.59,-0.15 3.59,-0.15 0,0 0.68,0 0.87,0 2.32,0 5.13,0.17 9.67,0.24 v 0 c 1.69,0 3.49,0.1 5.3,0.1 1.81,0 2.81,0 3.27,-1.57 0,0 0.24,-2.97 0.24,-2.97 l 0.16,-1.3 c 0,-0.4 -0.1,-0.78 -0.23,-0.98 z m -127.69,0 c -0.11,-0.13 -0.37,-0.32 -0.82,-0.32 -0.73,0 -0.96,1.02 -0.96,1.02 -0.68,2.18 -1.29,2.79 -2.2,3.12 -0.78,0.24 -3.02,0.21 -4.63,0.21 h -0.55 c -5.38,0 -6.67,-0.73 -6.79,-4.06 -0.1,-1.41 0,-4.61 0,-6.26 v -3.82 c 0,-0.29 0.1,-0.49 0.34,-0.49 0.86,0 3.56,0 5.47,0.1 0.75,0 2.42,0 2.69,0.1 1.46,0.13 1.84,0.72 2.11,1.53 0,0 0.44,1.16 1.15,1.19 1.12,0 1.07,-1.04 1.07,-1.04 0,0 0.11,-1.45 0.21,-2.05 0.1,-0.59 0.29,-2.03 0.29,-2.03 l 0.13,-0.87 c 0,-0.81 -0.44,-0.98 -0.81,-0.98 -0.41,0 -0.8,0.33 -1.21,0.62 l -0.18,0.13 c -0.42,0.27 -0.94,0.4 -1.72,0.51 h -9.14 c -0.26,0 -0.36,0 -0.4,-0.36 V 96.135 c 0,-0.17 0.12,-0.266 0.42,-0.29 h 9.07 c 1.7,0.09 2.24,1.337 2.38,1.746 l 0.23,0.662 c 0.11,0.286 0.35,0.852 1.22,0.852 0.19,0 0.7,-0.06 0.88,-0.842 0,0.02 0.14,-1.128 0.14,-1.128 l 0.15,-1.143 c 0,-0.927 0.2,-1.579 0.3,-1.879 l 0.1,-0.314 c 0,-0.05 0.14,-0.563 0,-0.839 -0.1,-0.194 -0.28,-0.433 -0.69,-0.409 -0.32,0.05 -0.76,0.205 -0.79,0.205 -0.1,0.03 -0.32,0.129 -0.64,0.167 -0.36,0.06 -1.62,0.109 -1.62,0.109 -0.2,0.01 -0.82,0.01 -1.75,0.02 0,0 -10.26,0.03 -11.55,0.03 -0.38,0 -1.47,-0.02 -1.47,-0.02 0,0 -3.28,-0.133 -3.33,-0.133 -0.66,0 -1.2,0.422 -1.2,0.965 0,0.529 0.5,0.842 1.2,0.962 1.22,0.214 1.26,1.527 1.36,5.002 v 7.132 8.54 c 0,2.64 0,5.06 0,7.03 v 0 c -0.26,3.55 -0.14,4.86 -1.25,5.09 -0.7,0.1 -1.22,0.44 -1.22,0.97 0,0.54 0.54,0.97 1.22,0.97 0,0 3.6,-0.15 3.6,-0.15 0,0 0.68,0 0.87,0 2.31,0 5.12,0.17 9.67,0.24 v 0 c 1.7,0 3.49,0.1 5.32,0.1 1.79,0 2.8,0 3.25,-1.57 0,0 0.22,-2.97 0.22,-2.97 l 0.17,-1.3 c 0.1,-0.4 0,-0.78 -0.24,-0.98 z m 191.29,0.18 c -0.12,-0.11 -0.32,-0.32 -0.82,-0.33 -0.64,0 -0.95,1.08 -0.95,1.08 -0.65,2.36 -1.11,2.21 -2,2.55 -0.54,0.22 -2.07,0.6 -3.6,0.63 0,0 -3.65,0.12 -5.22,-0.15 -0.32,0 -0.92,-0.27 -0.92,-0.27 -0.45,-0.22 -0.77,-0.47 -1,-0.76 -0.35,-0.38 -0.54,-1.04 -0.68,-1.98 0,-0.15 -0.25,-4.55 -0.25,-8.36 v -8.53 c 0,-3.93 0,-9.498 0,-9.788 0,-2.08 1.48,-2.404 1.48,-2.404 0.62,-0.109 1.06,-0.494 1.06,-0.989 0,-0.372 -0.21,-0.866 -1.16,-0.914 v -0.01 h -8.54 c -1.23,0 -1.5,0.457 -1.5,0.924 0,0.518 0.42,0.88 1.06,0.989 0,0 1.5,0.239 1.5,2.404 0,0.504 0.1,7.928 0.1,9.798 v 8.52 c 0,3.43 0,6.47 -0.1,8.62 -0.26,2.28 -0.14,3.34 -1.33,3.55 -0.59,0.1 -1.08,0.44 -1.08,0.95 0,0.53 0.54,0.96 1.2,0.96 1.28,0 2.47,-0.18 4.63,-0.18 2.15,0 9.15,0.21 9.15,0.21 0.52,0 1.59,0 1.59,0 1.27,0 2.56,0.1 3.87,0.1 1.77,0 2.75,0 3.19,-1.63 0,-0.1 0.36,-2.83 0.36,-2.83 l 0.12,-1.13 c 0.1,-0.41 0,-0.81 -0.18,-1.03 z m 105.88,1.27 c -2.93,2.14 -6.46,3.25 -9.74,3.25 -4.19,0 -6.25,-1.01 -6.93,-1.94 -0.42,-0.54 -0.53,-2.47 -0.58,-3.66 -0.1,-0.92 -0.11,-4.64 -0.11,-9.77 v -6.07 c 0,-3.82 0,-8.023 0.1,-9.674 0,-0.515 0.17,-0.757 0.64,-0.976 0.42,-0.167 2.37,-0.324 3.44,-0.324 4.13,0 7.83,0.58 12.7,4.834 2.28,1.99 5.21,6.02 5.21,12.15 0,4.96 -1.19,9.63 -4.68,12.18 z m 5.67,-25.912 c -5.75,-5.524 -11.47,-5.524 -18.07,-5.524 -3.16,0 -6.49,0.157 -8.14,0.157 -0.28,0 -3.44,-0.12 -3.44,-0.12 0,0 -0.94,-0.133 -1.34,-0.06 -0.59,0.1 -1.03,0.471 -1.03,0.965 0,0.553 0.5,0.938 1.21,1.009 v 0 c 1.31,0.229 1.57,1.923 1.63,3.018 0,0.109 0.1,3.907 0.1,9.047 v 8.49 c 0,3.01 -0.1,8.33 -0.11,8.58 -0.1,0.86 0,2.9 -1.58,3.48 v 0 c -0.66,0 -1.18,0.44 -1.18,0.97 0,0.55 0.52,0.99 1.19,0.99 0,0 4.25,-0.17 4.32,-0.17 2.65,0 7.39,0.58 11.27,0.58 8.09,0 12.14,-3.42 14.56,-5.7 2.98,-2.75 5.78,-7.38 5.78,-13.46 0,-5.76 -2.48,-9.75 -5.14,-12.26 z m -90.03,14.162 h -7.78 c -0.18,0 -0.23,-0.14 -0.18,-0.33 l 0.39,-0.96 3.69,-9.54 c 0.52,1.28 2.36,6.02 3.95,10.1 l 0.16,0.45 c 0,0.14 0,0.27 -0.23,0.27 z m 14.58,15.11 v 0 c -1.54,-0.14 -2.89,-2.34 -4.06,-4.65 L 408.77,93.212 c -0.1,-0.228 -0.53,-0.661 -1.02,-0.675 -0.54,-0.01 -0.99,0.447 -1.08,0.675 l -12.55,30.398 c -0.77,1.63 -1.62,3.91 -2.61,4.01 -0.64,0.1 -1.12,0.44 -1.12,0.98 0,0.52 0.49,0.93 1.1,0.94 h 6.63 c 0.62,0 1.13,-0.42 1.13,-0.94 0,-0.53 -0.51,-0.85 -1.11,-0.96 0,0 0,0 0,0 -1.43,-0.43 -1.2,-0.88 0.42,-5.03 l 0.42,-1.08 2.07,-5.03 0.54,-1.3 c 0.1,-0.13 0.17,-0.18 0.35,-0.18 h 9.75 c 0.24,0 0.37,0.1 0.48,0.33 l 0.1,0.23 c 1.4,3.59 3.25,7.04 4.05,9.09 0,0 0,0 0,0 0.96,2.04 2.18,4.85 5.4,4.85 h 3.52 c 0.64,0 1.16,-0.41 1.16,-0.93 0,-0.48 -0.47,-0.88 -1.07,-0.91 z m -77.25,-15.11 h -7.77 c -0.19,0 -0.23,-0.14 -0.19,-0.33 l 0.4,-0.96 3.72,-9.54 c 0.48,1.28 2.33,6.02 3.92,10.1 l 0.15,0.45 c 0.1,0.14 0,0.27 -0.23,0.27 z m 14.6,15.11 v 0 c -1.55,-0.14 -2.89,-2.34 -4.07,-4.65 l -12.5,-29.868 c -0.1,-0.228 -0.54,-0.661 -1.04,-0.675 -0.52,-0.01 -0.97,0.447 -1.07,0.675 l -12.55,30.398 c -0.76,1.63 -1.63,3.91 -2.61,4.01 -0.64,0.1 -1.12,0.44 -1.12,0.98 0,0.52 0.49,0.93 1.1,0.94 h 6.62 c 0.64,0 1.13,-0.42 1.13,-0.94 0,-0.53 -0.51,-0.85 -1.1,-0.96 0,0 0,0 0,0 -1.41,-0.43 -1.19,-0.88 0.42,-5.03 l 0.42,-1.08 2.08,-5.03 0.53,-1.3 c 0.1,-0.13 0.18,-0.18 0.35,-0.18 h 9.75 c 0.23,0 0.37,0.1 0.48,0.33 l 0.1,0.23 c 1.4,3.59 3.26,7.04 4.04,9.09 0,0 0,0 0,0 0.96,2.04 2.18,4.85 5.4,4.85 h 3.54 c 0.63,0 1.14,-0.41 1.14,-0.93 0,-0.48 -0.47,-0.88 -1.06,-0.91 z m 102.24,-35.012 -2.53,-0.01 h -1.03 -2.79 c -0.58,0 -1.05,0.386 -1.05,0.856 0,0.471 0.46,0.805 1.04,0.867 1.22,0.133 1.25,1.793 1.39,4.283 v 0.829 c 0,6.147 0,19.867 0,19.867 -4.33,-4.24 -9.52,-9.37 -12.86,-12.64 -3.48,-3.31 -5.99,-6.16 -8.59,-8.731 -3.38,-3.464 -4.54,-4.511 -4.63,-4.583 -0.5,-0.576 -2.8,-0.757 -2.94,-0.757 h -1.45 c -0.67,0 -1.22,0.419 -1.22,0.961 0,0.494 0.65,0.914 1.28,0.938 0,0.01 0,0 0,0.01 0.73,0.06 0.84,0.262 0.89,1.047 0,6.185 0,25.165 0,27.795 -0.16,2.54 -0.1,4.14 -1.39,4.35 -0.52,0 -0.98,0.37 -0.98,0.85 0,0.47 0.43,0.87 0.97,0.87 h 2.53 1.01 2.8 c 0.61,0 1.06,-0.38 1.08,-0.85 0,-0.48 -0.47,-0.82 -1.05,-0.87 v 0 c -1.22,-0.18 -1.22,-1.78 -1.36,-4.29 l 0.1,-20.9 c 0.17,0.17 6.34,6.63 8.83,9.11 0.92,0.88 2.02,2.24 2.93,3.11 2.84,2.66 13.99,13.45 14.28,13.77 1.27,1.26 3.08,1.44 3.25,-0.68 l 0.12,-28.81 v -0.348 c 0.13,-2.537 0.15,-4.14 1.46,-4.345 0.54,-0.02 0.99,-0.382 0.99,-0.852 0,-0.471 -0.43,-0.867 -0.98,-0.867 z m -294.98,0 -2.52,-0.01 h -1.01 -2.79 c -0.59,0 -1.06,0.386 -1.06,0.856 0,0.471 0.46,0.805 1.06,0.867 v 0 c 1.23,0.133 1.25,1.793 1.38,4.283 v 0.829 c 0,6.147 0,19.867 0,19.867 -4.31,-4.24 -9.52,-9.37 -12.85,-12.64 -3.48,-3.31 -5.99,-6.16 -8.58,-8.731 -3.38,-3.464 -4.56,-4.511 -4.64,-4.583 -0.51,-0.576 -2.8,-0.757 -2.95,-0.757 h -1.45 c -0.66,0 -1.21,0.419 -1.21,0.961 0,0.494 0.64,0.914 1.28,0.938 v 0.01 c 0.7,0.06 0.8,0.262 0.88,1.047 0,6.185 0,25.165 0,27.795 -0.13,2.54 -0.1,4.14 -1.38,4.35 -0.51,0 -0.98,0.37 -0.98,0.85 0,0.47 0.45,0.87 0.98,0.87 h 2.52 1.02 2.8 c 0.57,0 1.06,-0.38 1.06,-0.85 0,-0.48 -0.47,-0.82 -1.06,-0.87 -1.23,-0.18 -1.23,-1.78 -1.38,-4.29 l 0.12,-20.9 c 0.16,0.17 6.32,6.63 8.81,9.11 0.91,0.88 2.03,2.24 2.96,3.11 2.82,2.66 13.98,13.45 14.28,13.77 1.25,1.26 3.08,1.44 3.22,-0.68 l 0.12,-28.81 v -0.348 c 0.15,-2.537 0.17,-4.14 1.45,-4.345 0.55,-0.02 0.99,-0.382 1,-0.852 0,-0.471 -0.44,-0.867 -0.99,-0.867 z m 86.3,0.986 c 0,-0.515 -0.5,-0.938 -1.13,-0.948 h -7.18 c -0.28,0 -0.57,0.106 -0.57,0.106 -0.37,0.17 -0.64,0.471 -0.64,0.856 0,0.409 0.32,0.771 0.78,0.9 0,0 0,0 0,0.01 1.06,0.348 2.02,-0.156 0.36,4.341 l -7.02,19.171 c 0,0 -10.62,-24.221 -10.85,-24.596 -0.51,-1.019 -1.83,-1.019 -2.32,0.133 L 216.97,118.45 210.2,99.395 c -0.12,-0.372 -0.22,-0.686 -0.28,-0.89 -0.95,-3.008 -0.75,-3.598 -0.24,-3.85 0,-0.01 0.17,-0.04 0.17,-0.04 0.47,-0.129 0.78,-0.491 0.78,-0.9 0,-0.529 -0.51,-0.962 -1.17,-0.962 h -8.4 c -0.64,0.01 -1.13,0.433 -1.13,0.948 0,0.446 0.37,0.808 0.85,0.914 v 0.01 c 2.24,0.648 2.63,2.466 3.03,3.561 0.92,2.224 2.36,6.444 3.09,8.644 3.18,9 7.41,21.09 7.41,21.09 0.41,1.24 0.6,1.76 1.18,1.76 0.76,0 1.01,-0.57 1.48,-1.6 l 10.94,-24.97 10.75,24.23 c 0.69,1.53 0.83,2.34 1.65,2.34 0.74,0 0.97,-0.71 1.5,-2.24 2.54,-7.2 10.18,-28.749 10.18,-28.749 0.71,-1.766 1.32,-3.318 3.44,-4.065 0.46,-0.144 0.83,-0.482 0.83,-0.928 z m 41.5,29.416 c -0.43,-0.13 -0.79,0.17 -1.01,0.61 0,0 -0.44,0.99 -0.9,1.6 -0.99,1.25 -1.7,1.28 -6.21,1.48 h -14.21 c 4.07,-5.64 21.01,-30.844 21.9,-32.143 0.4,-0.586 0.17,-1.961 -1.12,-1.961 l -14.21,-0.01 c -0.86,0 -3.56,0.01 -3.56,0.01 -1.46,0 -2.67,-0.01 -3.67,-0.01 -1.97,-0.1 -3.22,-0.243 -4.29,-0.348 -1.31,-0.133 -1.33,0.853 -1.57,2.742 -0.23,1.589 -0.32,2.213 -0.32,2.609 0,0.265 0.1,0.999 0.94,1.012 0.75,0.02 1.04,-0.518 1.25,-1.012 0.1,-0.144 0.24,-0.587 0.24,-0.587 0.18,-0.532 0.43,-0.917 0.7,-1.169 1.05,-0.457 2.57,-0.468 4.93,-0.59 h 12.82 c -3.92,5.597 -22.17,31.937 -22.17,31.937 -0.76,0.98 -0.1,2.41 1.06,2.41 l 5.35,-0.1 c 6.21,0 12.53,0 18.53,0 h 3.67 c 1.16,0 1.61,-0.1 1.92,-0.92 0,0 0.75,-2.82 0.56,-4.52 0,-0.54 -0.21,-0.91 -0.63,-1.05 z M 51.646,110.22 h -9.18 c -0.214,0 -0.262,-0.17 -0.214,-0.37 l 0.443,-1.08 4.405,-10.759 c 0.577,1.456 2.861,6.789 4.641,11.379 l 0.194,0.51 c 0.05,0.15 10e-4,0.32 -0.289,0.32 z m 16.266,17.02 v 0 c -1.77,-0.14 -3.25,-2.63 -4.559,-5.24 L 49.229,88.326 c -0.109,-0.263 -0.59,-0.733 -1.18,-0.758 -0.577,0 -1.071,0.495 -1.19,0.758 L 32.687,122.6 c -0.842,1.84 -1.804,4.42 -2.909,4.53 -0.737,0.1 -1.275,0.49 -1.275,1.08 0,0.6 0.553,1.07 1.251,1.07 h 7.458 0.01 c 0.709,0 1.265,-0.48 1.265,-1.09 0,-0.58 -0.58,-0.96 -1.251,-1.07 0,0 0,0 0,0 -1.613,-0.48 -1.575,-0.99 0.239,-5.66 l 0.484,-1.23 2.333,-5.66 0.601,-1.46 c 0.1,-0.17 0.194,-0.23 0.398,-0.23 h 11.417 c 0.275,0 0.419,0.12 0.539,0.38 l 0.123,0.28 c 1.575,4.03 3.669,7.94 4.56,10.24 0,0 0,0 0.01,0 1.095,2.31 2.261,5.45 5.896,5.45 1.323,0 3.979,0 3.979,0 0.737,0 1.289,-0.46 1.289,-1.03 0,-0.56 -0.521,-1 -1.192,-1.04 z M 99.393,110.2 c -1.432,0.47 -4.764,0.36 -5.896,0.19 V 96.04 c 0.02,-0.195 0.1,-0.243 0.194,-0.266 0.553,-0.1 1.661,-0.242 2.923,-0.242 3.706,0 8.446,2.503 8.446,7.098 0,5.31 -3.13,6.77 -5.667,7.57 z m 20.807,17.53 v 0 c -0.22,0 -0.69,-0.1 -1.13,-0.15 -0.6,-0.11 -1.09,-0.26 -1.54,-0.44 -0.35,-0.16 -0.69,-0.33 -1.03,-0.5 -0.54,-0.3 -1.04,-0.64 -1.55,-0.98 -2.58,-1.85 -4.5,-4.45 -6.39,-7 l -1.39,-1.86 c -1.92,-2.52 -2.98,-3.7 -3.83,-4.36 1.27,-0.48 3.17,-1.44 4.75,-3.17 1.68,-1.85 2.54,-4.1 2.54,-6.69 0,-0.3 0,-0.61 0,-0.95 -0.29,-3.295 -2.78,-5.784 -4.21,-6.722 -2.74,-1.947 -6.454,-2.203 -9.381,-2.203 l -9.984,0.09 c -0.672,0.01 -1.214,0.433 -1.214,0.962 0,0.508 0.505,0.914 1.132,0.965 0.72,0.1 0.819,0.263 0.89,1.033 0.167,6.175 0.157,8.345 0.157,11.075 v 8.54 c 0,3.11 -0.133,8.68 -0.146,9.01 -0.109,2.58 -0.348,3.21 -1.143,3.31 -0.624,0.1 -1.167,0.44 -1.167,0.98 0,0.55 0.518,0.97 1.167,0.97 h 0.04 8.443 c 0.661,0 1.203,-0.45 1.203,-0.98 0,-0.53 -0.494,-0.95 -1.18,-0.98 v 0 c -1.636,-0.18 -1.514,-2.78 -1.636,-4.99 -0.02,-0.32 -0.03,-1 -0.03,-1 -0.04,-1.55 -0.04,-8.37 -0.04,-8.37 0,0 0.351,0 0.614,0 h 0.348 c 1.193,0 3.359,0 5.077,2.51 0,0 0.56,0.86 0.56,0.86 1.5,2.31 5.33,7.66 8.46,10.57 1.64,1.52 4.51,2.44 7.1,2.5 h -0.36 c 0.21,0 0.79,0 1.03,0 h 2.48 c 0.38,0 1.27,0 1.33,0 0.65,0 1.2,-0.44 1.2,-0.98 0,-0.54 -0.51,-0.97 -1.14,-1 z M 81.395,92.562 H 81.3 72.577 c -0.61,0.04 -1.118,0.457 -1.118,0.975 0,0.542 0.518,0.975 1.169,0.975 1.275,0.215 1.347,1.48 1.371,2.837 l 0.03,1.19 c 0.02,1.471 0.02,3.721 0.02,8.111 v 8.55 c 0,2.38 -0.01,3.89 -0.01,4.49 l -0.12,4.7 c -0.07,1.44 -0.133,3.02 -1.227,3.13 -0.651,0 -1.18,0.43 -1.18,0.96 0,0.54 0.504,0.96 1.132,0.99 h -0.01 8.709 c 0.638,0 1.132,-0.45 1.132,-0.99 0,-0.53 -0.528,-0.96 -1.18,-0.96 h -0.01 c -1.095,-0.11 -1.156,-1.68 -1.228,-3.13 h 0.02 l -0.133,-4.7 c 0,-1.36 -0.01,-2.86 -0.01,-4.49 v -8.55 c 0,-4.39 0,-6.666 0.03,-8.111 l 0.02,-1.19 c 0.05,-1.357 0.1,-2.623 1.357,-2.837 0.661,0 1.204,-0.447 1.204,-0.975 0,-0.519 -0.516,-0.938 -1.154,-0.975 z M 227.08,32.529 c 0,0 10.3,-13.473 29.72,-33.407 5.48,-5.63 15.09,-13.364 25.5,-13.364 11.27,0 18.28,8.252 18.28,15.854 0,7.59 -4.87,15.399 -15.33,15.399 -5.45,0 -10.1,-3.888 -10.1,-9.313 0,-2.646 2.07,-6.554 6.95,-6.554 4.73,0 5.86,5.149 5.47,7.024 0,0 3.58,-1.262 3.58,-5.667 0,-4.46 -3.86,-7.734 -8.85,-7.734 -7.62,0 -15.1,7.086 -17.97,9.875 -11.35,11.26 -16.67,18.779 -16.67,18.779 h 69.94 l -3.9,9.108 z m -1.47,4.822 c 0,0 4.54,13.729 10.54,26.85 5.12,11.188 13.58,17.95 23.91,17.95 9.73,0 16.35,-7.795 16.35,-15.219 0,-8.409 -6.14,-13.954 -13.39,-13.954 -7.72,0 -9.33,6.135 -9.33,7.677 0,3.546 2.8,6.83 6.37,6.83 5.65,0 6.08,-4.736 6.08,-4.736 0,0 1.73,1.152 1.73,4.184 0,2.889 -2.34,6.605 -7.81,6.605 -4.34,0 -10.74,-2.418 -15.16,-12.212 -5.18,-11.475 -5.55,-14.857 -5.55,-14.857 h 68.4 l 3.91,-9.118 z" id="path9"></path></g><metadata id="metadata11"><rdf:rdf><cc:work rdf:about=""><dc:title></dc:title></cc:work></rdf:rdf></metadata></svg>