<?xml version="1.0"?>

<svg xmlns="http://www.w3.org/2000/svg" height="143.9" width="364.1" viewBox="0 0 364.1 143.9"><path d="m 190.7,47.1 c 0,3.6 -2.9,6.5 -6.5,6.5 -3.6,0 -6.5,-2.9 -6.5,-6.5 0,-3.6 2.8,-6.5 6.5,-6.5 3.7,0.1 6.5,3 6.5,6.5 z m -26.8,13.1 c 0,0.6 0,1.6 0,1.6 0,0 -3.1,-4 -9.7,-4 -10.9,0 -19.4,8.3 -19.4,19.8 0,11.4 8.4,19.8 19.4,19.8 6.7,0 9.7,-4.1 9.7,-4.1 V 95 c 0,0.8 0.6,1.4 1.4,1.4 h 8.1 V 58.8 c 0,0 -7.4,0 -8.1,0 -0.8,0 -1.4,0.7 -1.4,1.4 z m 0,24.1 c -1.5,2.2 -4.5,4.1 -8.1,4.1 -6.4,0 -11.3,-4 -11.3,-10.8 0,-6.8 4.9,-10.8 11.3,-10.8 3.5,0 6.7,2 8.1,4.1 z m 15.5,-25.5 h 9.6 v 37.6 h -9.6 z m 143.4,-1 c -6.6,0 -9.7,4 -9.7,4 V 40.7 h -9.6 v 55.7 c 0,0 7.4,0 8.1,0 0.8,0 1.4,-0.7 1.4,-1.4 v -1.7 0 c 0,0 3.1,4.1 9.7,4.1 10.9,0 19.4,-8.4 19.4,-19.8 0,-11.4 -8.5,-19.8 -19.3,-19.8 z m -1.6,30.5 c -3.7,0 -6.6,-1.9 -8.1,-4.1 V 70.8 c 1.5,-2 4.7,-4.1 8.1,-4.1 6.4,0 11.3,4 11.3,10.8 0,6.8 -4.9,10.8 -11.3,10.8 z M 298.5,74.1 v 22.4 h -9.6 V 75.2 c 0,-6.2 -2,-8.7 -7.4,-8.7 -2.9,0 -5.9,1.5 -7.8,3.7 v 26.2 h -9.6 V 58.8 h 7.6 c 0.8,0 1.4,0.7 1.4,1.4 v 1.6 c 2.8,-2.9 6.5,-4 10.2,-4 4.2,0 7.7,1.2 10.5,3.6 3.4,2.8 4.7,6.4 4.7,12.7 z M 240.8,57.8 c -6.6,0 -9.7,4 -9.7,4 V 40.7 h -9.6 v 55.7 c 0,0 7.4,0 8.1,0 0.8,0 1.4,-0.7 1.4,-1.4 v -1.7 0 c 0,0 3.1,4.1 9.7,4.1 10.9,0 19.4,-8.4 19.4,-19.8 0.1,-11.4 -8.4,-19.8 -19.3,-19.8 z m -1.6,30.5 c -3.7,0 -6.6,-1.9 -8.1,-4.1 V 70.8 c 1.5,-2 4.7,-4.1 8.1,-4.1 6.4,0 11.3,4 11.3,10.8 0,6.8 -4.9,10.8 -11.3,10.8 z m -26,-30.5 c 2.9,0 4.4,0.5 4.4,0.5 v 8.9 c 0,0 -8,-2.7 -13,3 V 96.5 H 195 V 58.8 c 0,0 7.4,0 8.1,0 0.8,0 1.4,0.7 1.4,1.4 v 1.6 c 1.8,-2.1 5.7,-4 8.7,-4 z M 113.5,93 c -0.5,-1.2 -1,-2.5 -1.5,-3.6 -0.8,-1.8 -1.6,-3.5 -2.3,-5.1 l -0.1,-0.1 C 102.7,69.2 95.31,54 87.51,39 l -0.3,-0.6 c -0.8,-1.5 -1.6,-3.1 -2.4,-4.7 -1,-1.8 -2,-3.7 -3.6,-5.5 -3.2,-4 -7.8,-6.2 -12.7,-6.2 -5,0 -9.5,2.2 -12.8,6 -1.5,1.8 -2.6,3.7 -3.6,5.5 -0.8,1.6 -1.6,3.2 -2.4,4.7 l -0.3,0.6 C 41.71,53.8 34.21,69 27.31,84 l -0.1,0.2 c -0.7,1.6 -1.5,3.3 -2.3,5.1 -0.5,1.1 -1,2.3 -1.5,3.6 -1.3,3.7 -1.7,7.2 -1.2,10.8 1.1,7.5 6.1,13.8 13,16.6 2.6,1.1 5.3,1.6 8.1,1.6 0.8,0 1.8,-0.1 2.6,-0.2 3.3,-0.4 6.7,-1.5 10,-3.4 4.1,-2.3 8,-5.6 12.4,-10.4 4.4,4.8 8.4,8.1 12.4,10.4 3.3,1.9 6.7,3 10,3.4 0.8,0.1 1.8,0.2 2.6,0.2 2.8,0 5.6,-0.5 8.09,-1.6 7,-2.8 11.9,-9.2 13,-16.6 0.8,-3.5 0.4,-7 -0.9,-10.7 z m -45.09,5.2 c -5.4,-6.8 -8.9,-13.2 -10.1,-18.6 -0.5,-2.3 -0.6,-4.3 -0.3,-6.1 0.2,-1.6 0.8,-3 1.6,-4.2 1.9,-2.7 5.1,-4.4 8.8,-4.4 3.7,0 7,1.6 8.8,4.4 0.8,1.2 1.4,2.6 1.6,4.2 0.3,1.8 0.2,3.9 -0.3,6.1 -1.2,5.3 -4.7,11.7 -10.1,18.6 z m 39.89,4.7 c -0.7,5.2 -4.2,9.7 -9.09,11.7 -2.4,1 -5,1.3 -7.6,1 -2.5,-0.3 -5,-1.1 -7.6,-2.6 -3.6,-2 -7.2,-5.1 -11.4,-9.7 6.6,-8.1 10.6,-15.5 12.1,-22.1 0.7,-3.1 0.8,-5.9 0.5,-8.5 -0.4,-2.5 -1.3,-4.8 -2.7,-6.8 -3.1,-4.5 -8.3,-7.1 -14.1,-7.1 -5.8,0 -11,2.7 -14.1,7.1 -1.4,2 -2.3,4.3 -2.7,6.8 -0.4,2.6 -0.3,5.5 0.5,8.5 1.5,6.6 5.6,14.1 12.1,22.2 -4.1,4.6 -7.8,7.7 -11.4,9.7 -2.6,1.5 -5.1,2.3 -7.6,2.6 -2.7,0.3 -5.3,-0.1 -7.6,-1 -4.9,-2 -8.4,-6.5 -9.1,-11.7 -0.3,-2.5 -0.1,-5 0.9,-7.8 0.3,-1 0.8,-2 1.3,-3.2 0.7,-1.6 1.5,-3.3 2.3,-5 l 0.1,-0.2 c 6.9,-14.9 14.3,-30.1 22,-44.9 l 0.3,-0.6 c 0.8,-1.5 1.6,-3.1 2.4,-4.6 0.8,-1.6 1.7,-3.1 2.8,-4.4 2.1,-2.4 4.9,-3.7 8,-3.7 3.1,0 5.9,1.3 8,3.7 1.1,1.3 2,2.8 2.8,4.4 0.8,1.5 1.6,3.1 2.4,4.6 l 0.3,0.6 c 7.6,14.9 15,30.1 21.89,45 V 87 c 0.8,1.6 1.5,3.4 2.3,5 0.5,1.2 1,2.2 1.3,3.2 0.8,2.6 1.1,5.1 0.7,7.7 z"></path></svg>