<?xml version="1.0"?>

<svg xmlns:dc="http://purl.org/dc/elements/1.1/" xmlns:cc="http://creativecommons.org/ns#" xmlns:rdf="http://www.w3.org/1999/02/22-rdf-syntax-ns#" xmlns:svg="http://www.w3.org/2000/svg" xmlns="http://www.w3.org/2000/svg" id="svg3243" viewBox="0 0 115.6231 52.1103" height="481.6575" width="1067.904" version="1.0">
  <defs id="defs3245"></defs>
  <path d="m 33.87116,27.70459 -8.81,17.16 4.78,0 1.47,-2.94 6.15,0 0.25,2.94 4.66,0 -1.56,-17.16 -6.94,0 z m 13.13,0 -3.63,17.16 3.91,0 1.03,-4.87 0.69,0 1.84,4.87 4.59,0 -2.81,-6.25 4.59,-5.75 -4.31,0 -3.34,4.5 -0.69,0 2.06,-9.66 -3.93,0 z m 62.24004,0 -0.6,3.03 3.9,0 0.7,-3.03 -4,0 z m -72.59004,3.44 0,0 0.57,7.44 -4.26,0 3.66,-7.44 z m 27.47,1.59 c -2.41,0.1 -4.59,0.44 -5.28,3.69 l 3.91,0 c 0.23,-1.07 0.93,-1.31 1.9,-1.31 1.72,0 1.62,0.73 1.38,1.84 l -0.41,1.91 -0.16,0 c -0.13,-1.37 -1.88,-1.37 -3,-1.37 -2.83,0 -4.54,0.89 -5.15,3.78 -0.65,3.06 0.82,3.72 3.56,3.72 1.37,0 3.23,-0.26 3.88,-1.91 l 0.12,0 -0.5,1.78 3.91,0 1.59,-7.5 c 0.88,-4.13 -0.7,-4.63 -4.72,-4.63 -0.35,0 -0.69,0 -1.03,0 z m 16.59,0 c -1.34,0 -2.9,0.4 -3.68,1.82 l -0.16,0 0.37,-1.69 -3.81,0 -2.56,12 3.94,0 1.43,-6.81 c 0.31,-1.44 0.79,-2.32 2.41,-2.31 1.37,0 1.27,0.74 1.09,1.84 l -1.53,7.28 3.91,0 1.47,-6.81 c 0.26,-1.28 0.78,-2.32 2.31,-2.31 1.53,0 1.33,0.93 1.13,2.18 l -1.5,6.94 3.93,0 1.75,-8.22 c 0.6,-2.79 -0.58,-3.91 -3.34,-3.91 -1.51,0 -3.27,0.64 -3.84,2.35 l -0.19,0 c 0.23,-2.06 -1.44,-2.35 -3.13,-2.35 z m 18.53,0 c -2.41,0.1 -4.58,0.44 -5.28,3.69 l 3.94,0 c 0.24,-1.07 0.89,-1.31 1.88,-1.31 1.71004,0 1.65004,0.73 1.40004,1.84 l -0.4,1.91 -0.19,0 c -0.15,-1.37 -1.86004,-1.37 -2.97004,-1.37 -2.83,0 -4.54,0.89 -5.16,3.78 -0.65,3.06 0.83,3.72 3.57,3.72 1.37,0 3.19,-0.26 3.84,-1.91 l 0.16004,0 -0.54004,1.78 3.95004,0 1.6,-7.5 c 0.8,-4.13 -0.7,-4.63 -4.73,-4.63 -0.35004,0 -0.72004,0 -1.07004,0 z m 8.90004,0.13 -2.5,12 3.9,0 2.6,-12 -4,0 z m -44.89004,7.03 c 1.28,0 2.13,0.1 1.93,1.1 -0.27,1.25 -0.82,1.46 -2.47,1.46 -0.59,0 -1.71,0 -1.43,-1.31 0.23,-1.09 1.01,-1.25 1.97,-1.25 z m 35.15,0 c 1.28,0 2.12004,0.1 1.91004,1.1 -0.27,1.25 -0.79004,1.46 -2.44004,1.46 -0.6,0 -1.71,0 -1.44,-1.31 0.23,-1.09 1,-1.25 1.97,-1.25 z m -69.5,-37.528702 c -1.55,0.0193 -2.97,0.2023 -4.22,0.4062 -2.93,0.4813 -5.48,1.1585 -8.18,2.6565 -1.87,1.039 -4.01,2.555 -5.844,4.468 C 4.186163,16.60459 0.0201635,26.37459 3.845163,36.52459 c 4.877,12.91 16.755997,14.6 23.335997,12.43 0,0 -11.74,-4.02 -16.492,-15.78 -3.751997,-9.26 -1.039997,-16.85 3.092,-21.84 2.83,-3.447002 5.8,-5.543002 9.59,-6.656002 4.25,-1.254 8.42,-1.013 14.09,-0.594 -3.03,-1.3554 -5.98,-1.7509 -8.56,-1.7187 z m 3.41,2.8437 c -1.11,0.017 -2.26,0.108 -3.41,0.312 -9.18,1.642 -16.11,11.083002 -16.681,18.213002 -0.52,6.49 0.741,9.85 4.741,14.69 0.1,0 0.1,0 0.13,0 -1.99,-3.07 -4.06,-9.33 -3.09,-14.03 1.15,-5.67 4.68,-12.549 15.53,-14.123 9.86,-1.427002 14.25,1.049 19.28,5.343 -2.06,-6.237002 -8.72,-10.525002 -16.5,-10.405002 z m -0.69,7.062002 c -3.31,-0.02 -6.74,0.743 -9.69,2.753 -5.79,3.92 -7.32,7.57 -6.12,15.18 0.26,-6.75 4,-10.16 8.03,-12.43 3.96,-2.25 9.39,-2.18 14.69,-0.19 3.48,1.31 6.21,2.56 9.06,8.25 0.57,-4.55 -1.65,-7.66 -5.34,-10.44 -2.35,-1.76 -6.38,-3.099 -10.63,-3.123 z m 5.59,6.903 c -1.76,0 -3.49,0.37 -4.56,1.03 2.84,0 5.34,0.86 7.44,2.13 2.1,1.26 1.95,1.35 4.47,4.84 0.46,-1.7 -0.1,-4.83 -2.53,-6.65 -1.24,-0.91 -3.05,-1.33 -4.82,-1.35 z" id="path2558"></path>
  <metadata id="metadata4146">
    <rdf:rdf>
      <cc:work rdf:about="">
        <dc:title></dc:title>
      </cc:work>
    </rdf:rdf>
  </metadata>
</svg>
