<?xml version="1.0"?>
<!--?xml version="1.0" encoding="UTF-8" standalone="no"?-->
<svg xmlns="http://www.w3.org/2000/svg" height="73.4" width="310.68" viewBox="0 0 310.68 73.4"><path d="M 15.225,25.762 11.463,39.25 h 7.5 z M 21.487,47.637 19.95,42.65 H 10.463 L 8.925,47.637 H 5 l 7.863,-25.375 h 4.812 l 7.75,25.375 z m 86.083,0 h -3.66 V 22.262 h 3.66 z M 96.5,36.7 c 0,-0.487 0.137,-2.1 -0.637,-3.55 -0.401,-0.726 -1.488,-2.451 -3.901,-2.413 -1.049,0 -2.012,0.325 -2.775,0.962 -1.937,1.663 -2.062,4.352 -2.1,5.001 z m -9.375,2.45 c 0.125,0.849 0.25,1.412 0.375,1.725 0.55,1.737 1.887,3.15 3.575,3.787 0.675,0.25 1.65,0.525 3.3,0.525 0.962,0 2.45,-0.125 4.588,-0.837 v 2.937 c -0.888,0.313 -2.613,0.8 -5.113,0.8 -0.725,0 -3.175,0 -5.35,-1.087 -2.05,-1.013 -5.112,-3.625 -5.075,-9.213 0,-0.725 0,-2.537 0.775,-4.387 0.638,-1.576 2.688,-5.513 7.838,-5.513 4.912,0 8.052,3.65 8.052,8.45 0,0.8 0,1.325 -0.402,2.813 z m -5.388,-7.763 h -5.425 v 9.975 c 0,0.163 0,1.089 0.126,1.726 0.562,1.938 2.662,1.863 3.137,1.863 0.688,0 1.288,0 2.575,-0.363 V 47.6 c -1.162,0.238 -2.088,0.363 -3.3,0.363 -0.475,0 -2.212,0 -3.625,-0.762 -2.45,-1.326 -2.525,-3.9 -2.525,-6.275 V 24.675 l 3.663,-2.838 v 6.525 h 5.425 z M 64.475,37.9 c -2.163,0 -5.188,0.125 -7,1.575 -0.85,0.687 -1.288,1.576 -1.288,2.687 0,0.687 0.163,1.3 0.563,1.775 0.762,0.975 2.137,1.375 4.55,1.375 0.562,0 1.775,0 3.175,-0.287 z M 54.137,29.575 c 0.4,-0.2 0.838,-0.4 1.288,-0.6 0.925,-0.363 2.975,-1.088 5.637,-1.088 2.725,0 4.3,0.725 5.225,1.525 0.201,0.163 0.85,0.725 1.175,1.45 0.35,0.763 0.6,1.65 0.6,3.575 v 12.925 c -2.937,0.638 -5.912,0.726 -6.875,0.726 -1.612,0 -2.862,-0.175 -3.474,-0.287 -1.125,-0.201 -5.1,-1.076 -5.1,-5.388 0,-0.925 0.15,-2.812 2,-4.387 2.75,-2.375 6.612,-2.539 9.912,-2.539 V 34.6 c 0,-1.125 0,-1.524 -0.25,-2.012 -0.4,-0.926 -1.487,-1.801 -3.737,-1.801 -1.725,0 -3.738,0.513 -5.275,1.238 -0.4,0.163 -0.763,0.401 -1.125,0.612 z m -4.262,2.65 v 0 C 49.475,31.95 49.437,31.912 49.187,31.787 47.9,31.062 46.5,31.025 46.012,31.025 c -0.487,0 -1.575,0 -2.737,0.6 -1.413,0.65 -3.663,2.375 -3.663,6.237 0,0.564 0,1.613 0.488,2.863 0.962,2.613 3.25,4.226 6.037,4.226 1.963,0 3.3,-0.814 3.9,-1.175 v 3.099 c -0.325,0.201 -0.725,0.451 -1.087,0.563 -0.525,0.25 -1.85,0.65 -3.538,0.65 -5.837,0 -9.662,-4.55 -9.662,-10.225 0,-0.687 0,-2.337 0.725,-4.062 0.725,-1.925 3.062,-5.913 8.775,-5.913 1,0 2.525,0.125 4.625,1.088 z M 31.8,47.637 H 28.137 V 22.262 H 31.8 Z m 197.78,-16.25 h -5.44 v 9.975 c 0,0.163 0,1.089 0.19,1.726 0.56,1.938 2.65,1.863 3.12,1.863 0.69,0 1.29,0 2.58,-0.363 V 47.6 c -1.18,0.238 -2.09,0.363 -3.3,0.363 -0.49,0 -2.21,0 -3.63,-0.762 -2.44,-1.326 -2.53,-3.9 -2.53,-6.275 V 24.675 l 3.66,-2.838 v 6.525 h 5.44 z M 202.8,28.324 v 3.788 c 0.22,-0.45 0.54,-1.088 0.82,-1.488 1.77,-2.5 4.09,-2.737 5.22,-2.737 0.69,0 2.55,0.125 4.09,1.237 2.44,1.813 2.51,4.55 2.51,7.251 v 11.262 h -3.66 V 36.813 c 0,-1.688 0,-3.375 -1.38,-4.625 -0.35,-0.364 -1.23,-0.964 -2.65,-0.964 -0.53,0 -1.69,0.125 -2.82,1 -2,1.651 -1.97,4.438 -1.97,6.725 v 8.688 H 199.3 V 28.324 Z M 191.7,36.7 c 0,-0.487 0.13,-2.1 -0.65,-3.55 -0.39,-0.726 -1.48,-2.451 -3.89,-2.413 -1.05,0 -2.02,0.325 -2.78,0.962 -1.94,1.663 -2.06,4.352 -2.1,5.001 z m -9.38,2.45 c 0.12,0.849 0.25,1.412 0.37,1.725 0.55,1.737 1.89,3.15 3.58,3.787 0.69,0.25 1.65,0.525 3.3,0.525 0.96,0 2.45,-0.125 4.59,-0.837 v 2.937 c -0.89,0.313 -2.62,0.8 -5.12,0.8 -0.72,0 -3.17,0 -5.35,-1.087 -2.05,-1.013 -5.11,-3.625 -5.07,-9.213 0,-0.725 0,-2.537 0.77,-4.387 0.64,-1.576 2.69,-5.513 7.84,-5.513 4.91,0 8.05,3.65 8.05,8.45 0,0.8 0,1.325 -0.4,2.813 z m -6.35,-6.925 v 0 c -0.4,-0.275 -0.45,-0.313 -0.69,-0.438 -1.29,-0.725 -2.7,-0.762 -3.18,-0.762 -0.48,0 -1.57,0 -2.73,0.6 -1.42,0.65 -3.67,2.375 -3.67,6.237 0,0.564 0,1.613 0.48,2.863 0.97,2.613 3.26,4.226 6.04,4.226 1.97,0 3.3,-0.814 3.91,-1.175 v 3.099 c -0.33,0.201 -0.73,0.451 -1.09,0.563 -0.52,0.25 -1.85,0.65 -3.55,0.65 -5.82,0 -9.65,-4.55 -9.65,-10.225 0,-0.687 0,-2.337 0.72,-4.062 0.72,-1.925 3.06,-5.913 8.78,-5.913 1,0 2.53,0.125 4.62,1.088 z m -29.99,-3.9 v 10.95 c 0,1.775 0,3.7 1.69,4.825 0.44,0.326 1.41,0.762 2.81,0.762 1.54,0 2.26,-0.399 2.79,-0.799 1.6,-1.338 1.49,-3.701 1.49,-5.512 V 28.325 h 3.66 V 38.55 c 0,2.375 0,3.262 -0.37,4.462 -0.28,0.963 -0.88,2.738 -3.1,3.988 -1.85,1.088 -3.78,1.088 -4.54,1.088 -1.2,0 -2.22,-0.175 -2.62,-0.287 -2.13,-0.513 -4.06,-1.963 -4.87,-4.025 -0.56,-1.438 -0.6,-3.175 -0.6,-4.788 V 28.325 Z m -15.7,-6.063 v 21.963 h 10.09 v 3.412 H 126.62 V 22.262 Z m -10.02,14.426 c 0,1.749 -1.43,3.174 -3.18,3.174 -1.75,0 -3.17,-1.424 -3.17,-3.174 0,-1.75 1.42,-3.176 3.17,-3.176 1.75,0 3.18,1.426 3.18,3.176 M 274.04,5 c -1.8,0 -3.57,0.1875 -5.36,0.4375 -2.4,0.4125 -4.75,1.0875 -7.05,2.05 -3.66,1.5625 -7.06,3.8125 -10.07,6.7995 -3.59,3.6 -6.13,7.85 -7.65,12.338 -0.5,1.487 -0.88,3.012 -1.15,4.537 -0.33,1.85 -0.48,3.725 -0.48,5.588 0,8.375 3.39,16.475 9.34,22.4 6.01,6 13.85,9.1 21.72,9.25 h 1.3 c 1.67,0 3.3,-0.2 4.93,-0.488 1.52,-0.262 3.05,-0.65 4.5,-1.137 4.55,-1.525 8.76,-4.075 12.34,-7.663 2.98,-2.975 5.26,-6.387 6.77,-10.037 0.99,-2.275 1.68,-4.638 2.06,-7.038 0.3,-1.75 0.44,-3.537 0.44,-5.325 0,-8.087 -3.06,-16.212 -9.25,-22.4 C 290.51,8.4 282.38,5.025 274.04,5 Z m 2.43,8.05 c 0.7,0 1.39,0.15 2.12,0.387 3.98,1.275 3.65,2.712 1.38,11.038 -2.63,9.6 -5.19,20.301 -4.95,26.075 0.12,2.987 1.3,2.975 3.97,1.862 2.59,-1.062 6.07,-3.262 9.1,-6.787 h 0.13 l 1.22,2.525 c -2.81,4.275 -6.7,7.762 -10.78,9.562 -5.44,2.388 -9.09,1.138 -9.44,-3.5 -0.4,-5.112 0.87,-12.087 3.4,-21.237 2.21,-8 5.27,-15.838 4.37,-16.225 -1.4,-0.613 -9.07,7.262 -14.37,16.975 0,0 4.19,-3.113 9.31,-5.513 -0.3,0.988 -0.6,1.988 -0.9,3.013 -6.17,3.75 -11.54,9.1 -14.76,14.112 -0.71,1.138 -1.5,1.35 -2.49,0.638 -0.91,-0.663 -2.16,-1.638 -3.26,-2.625 4.34,-9.013 12.97,-20.888 18.66,-26.113 3.29,-3.037 5.3,-4.162 7.35,-4.125 z m 6.62,11.962 c 1.19,0 2.33,0 3.44,0.25 v 0 c 4.05,0.75 11.41,5.725 4.81,19.4 v 0.125 l -1.05,-2.125 c 2.43,-4.1 3.89,-9.5 1.49,-12.962 -2.44,-3.513 -6.14,-4.075 -10.24,-3.125 0.14,-0.538 0.27,-1.025 0.39,-1.438 0.41,0 0.81,0 1.2,-0.125 z"></path></svg>