<?xml version="1.0"?>

<!-- Generator: Adobe Illustrator 19.1.0, SVG Export Plug-In . SVG Version: 6.00 Build 0)  -->
<svg version="1.1" id="Layer_1" xmlns="http://www.w3.org/2000/svg" xmlns:xlink="http://www.w3.org/1999/xlink" x="0px" y="0px" width="500px" height="152px" viewBox="50 25 500 152" enable-background="new 50 25 500 152" xml:space="preserve">
<path d="M195.991,142.004h7.213l8.498-22.14h32.114l8.597,22.14h7.212l-27.667-71.221h-7.513L195.991,142.004z M227.904,77.57
	l13.637,36.506h-27.764L227.904,77.57z"></path>
<path d="M262.046,70.783h6.224v71.221h-6.224V70.783z"></path>
<path d="M294.926,90.536h-10.075v-4.488c0-1.398,0.031-2.695,0.097-3.889c0.065-1.201,0.312-2.247,0.741-3.146
	c0.427-0.896,1.102-1.611,2.024-2.144c0.922-0.531,2.24-0.798,3.955-0.798c0.722,0,1.448,0.05,2.175,0.149
	c0.719,0.1,1.511,0.216,2.366,0.35v-5.385c-0.988-0.133-1.873-0.236-2.663-0.296c-0.793-0.067-1.649-0.105-2.572-0.105
	c-2.504,0-4.562,0.368-6.176,1.097c-1.615,0.731-2.884,1.762-3.805,3.091c-0.922,1.334-1.544,2.929-1.878,4.788
	c-0.327,1.863-0.494,3.892-0.494,6.086v4.69h-8.694v5.284h8.694v46.185h6.23V95.82h10.075V90.536z"></path>
<path d="M296.87,142.004h6.226v-27.011c0-2.617,0.459-5.076,1.385-7.368c0.92-2.293,2.221-4.255,3.9-5.894
	c1.685-1.637,3.676-2.9,5.98-3.785c2.304-0.886,4.874-1.258,7.705-1.131v-6.28c-4.609-0.2-8.579,0.712-11.906,2.742
	c-3.325,2.032-5.777,5.136-7.361,9.328h-0.196v-12.07h-5.733V142.004L296.87,142.004z"></path>
<path d="M364.269,117.967c0.133-3.403-0.197-6.763-0.99-10.072c-0.785-3.314-2.087-6.245-3.902-8.802
	c-1.811-2.551-4.163-4.618-7.065-6.195c-2.896-1.576-6.388-2.363-10.472-2.363c-4.085,0-7.576,0.739-10.475,2.215
	c-2.899,1.476-5.271,3.424-7.115,5.846c-1.84,2.416-3.21,5.167-4.102,8.247c-0.886,3.084-1.332,6.223-1.332,9.427
	c0,3.456,0.446,6.74,1.332,9.85c0.892,3.111,2.262,5.845,4.102,8.204c1.844,2.356,4.216,4.223,7.115,5.607
	c2.899,1.387,6.39,2.073,10.475,2.073c6.454,0,11.443-1.611,14.968-4.836c3.527-3.225,5.947-7.765,7.264-13.618h-6.225
	c-0.988,3.927-2.765,7.101-5.335,9.529c-2.57,2.424-6.127,3.64-10.672,3.64c-2.963,0-5.515-0.584-7.659-1.751
	c-2.14-1.171-3.871-2.653-5.189-4.437c-1.316-1.785-2.305-3.791-2.959-6.007c-0.664-2.218-0.991-4.403-0.991-6.557H364.269z
	 M325.042,112.677c0.263-2.139,0.804-4.228,1.631-6.269c0.825-2.053,1.923-3.856,3.308-5.41c1.384-1.555,3.063-2.81,5.044-3.752
	c1.973-0.948,4.244-1.427,6.815-1.427c2.502,0,4.741,0.479,6.72,1.427c1.977,0.942,3.656,2.197,5.039,3.752
	c1.38,1.554,2.451,3.348,3.209,5.356c0.758,2.021,1.17,4.127,1.237,6.323H325.042z"></path>
<path d="M405.538,105.597c-0.132-2.791-0.692-5.22-1.679-7.282c-0.989-2.059-2.322-3.789-3.998-5.186
	c-1.682-1.398-3.628-2.429-5.834-3.091c-2.208-0.668-4.597-1.001-7.164-1.001c-2.238,0-4.494,0.267-6.768,0.797
	c-2.273,0.534-4.329,1.368-6.171,2.498c-1.852,1.128-3.35,2.627-4.5,4.483c-1.153,1.865-1.733,4.097-1.733,6.688
	c0,2.196,0.362,4.04,1.087,5.538c0.725,1.494,1.733,2.759,3.013,3.788c1.285,1.033,2.785,1.896,4.5,2.596
	c1.712,0.696,3.588,1.311,5.631,1.843l8.006,1.795c1.381,0.337,2.75,0.729,4.099,1.198c1.352,0.464,2.553,1.045,3.61,1.746
	c1.053,0.697,1.89,1.577,2.517,2.642c0.626,1.063,0.942,2.326,0.942,3.794c0,1.793-0.45,3.307-1.333,4.535
	c-0.894,1.235-2.033,2.245-3.411,3.046c-1.385,0.793-2.903,1.36-4.547,1.689c-1.645,0.338-3.197,0.503-4.647,0.503
	c-4.15,0-7.622-1.08-10.424-3.243c-2.799-2.162-4.332-5.371-4.598-9.625h-6.226c0.529,6.321,2.656,10.925,6.377,13.815
	c3.725,2.892,8.582,4.337,14.576,4.337c2.373,0,4.776-0.279,7.213-0.843c2.437-0.567,4.629-1.462,6.57-2.696
	c1.944-1.23,3.539-2.825,4.795-4.792c1.248-1.96,1.876-4.334,1.876-7.127c0-2.265-0.426-4.226-1.284-5.891
	c-0.855-1.658-1.959-3.053-3.31-4.184c-1.35-1.13-2.898-2.046-4.645-2.745c-1.742-0.696-3.511-1.183-5.285-1.446l-8.302-1.897
	c-1.054-0.264-2.204-0.611-3.458-1.046c-1.251-0.428-2.406-0.981-3.457-1.649c-1.055-0.657-1.93-1.474-2.623-2.44
	c-0.69-0.962-1.029-2.144-1.029-3.541c0-1.657,0.355-3.062,1.08-4.189c0.72-1.133,1.681-2.046,2.871-2.746
	c1.18-0.695,2.482-1.191,3.898-1.495c1.418-0.301,2.819-0.446,4.201-0.446c1.778,0,3.456,0.21,5.042,0.648
	c1.574,0.429,2.98,1.109,4.196,2.045c1.218,0.926,2.191,2.108,2.916,3.541c0.725,1.427,1.116,3.106,1.184,5.036H405.538z"></path>
<path d="M452.515,108.19c-0.725-5.919-2.982-10.342-6.772-13.265c-3.792-2.927-8.417-4.39-13.882-4.39
	c-3.891,0-7.33,0.688-10.328,2.074c-2.998,1.381-5.521,3.237-7.562,5.56c-2.04,2.329-3.585,5.061-4.641,8.204
	c-1.053,3.141-1.582,6.441-1.582,9.897c0,3.519,0.529,6.832,1.582,9.945c1.056,3.111,2.601,5.828,4.641,8.155
	c2.041,2.328,4.564,4.177,7.562,5.561c2.998,1.387,6.437,2.073,10.328,2.073c5.729,0,10.453-1.764,14.175-5.286
	c3.725-3.524,6.014-8.41,6.87-14.662h-6.225c-0.195,2.129-0.727,4.09-1.582,5.883c-0.858,1.797-1.945,3.341-3.256,4.641
	c-1.319,1.296-2.839,2.313-4.549,3.041c-1.709,0.734-3.526,1.097-5.433,1.097c-2.967,0-5.571-0.589-7.811-1.761
	c-2.241-1.178-4.098-2.728-5.58-4.651c-1.481-1.92-2.601-4.108-3.361-6.55c-0.756-2.451-1.138-4.947-1.138-7.486
	c0-2.543,0.382-5.033,1.138-7.484c0.76-2.442,1.88-4.63,3.361-6.55c1.482-1.922,3.339-3.471,5.58-4.649
	c2.24-1.18,4.844-1.768,7.811-1.768c4.081,0,7.295,1.098,9.631,3.29c2.344,2.199,3.936,5.224,4.794,9.081L452.515,108.19
	L452.515,108.19z"></path>
<path d="M479.252,90.535c-3.885,0-7.326,0.688-10.326,2.074c-2.995,1.381-5.518,3.237-7.555,5.56
	c-2.047,2.329-3.592,5.062-4.646,8.204c-1.053,3.141-1.582,6.441-1.582,9.897c0,3.519,0.529,6.832,1.582,9.946
	c1.054,3.11,2.599,5.827,4.646,8.154c2.037,2.328,4.56,4.177,7.555,5.561c3,1.387,6.441,2.073,10.326,2.073
	c3.891,0,7.332-0.686,10.328-2.073c2.998-1.384,5.518-3.233,7.563-5.561c2.039-2.327,3.587-5.044,4.64-8.154
	c1.053-3.114,1.582-6.427,1.582-9.946c0-3.456-0.529-6.756-1.582-9.897c-1.053-3.142-2.601-5.875-4.64-8.204
	c-2.045-2.323-4.565-4.179-7.563-5.56C486.584,91.223,483.143,90.535,479.252,90.535 M479.252,95.819
	c2.965,0,5.57,0.588,7.807,1.768c2.24,1.178,4.099,2.727,5.585,4.649c1.481,1.92,2.602,4.108,3.36,6.55
	c0.754,2.452,1.139,4.941,1.139,7.484c0,2.539-0.385,5.035-1.139,7.486c-0.758,2.442-1.879,4.63-3.36,6.55
	c-1.486,1.923-3.345,3.474-5.585,4.651c-2.237,1.172-4.842,1.761-7.807,1.761c-2.964,0-5.567-0.589-7.803-1.761
	c-2.241-1.177-4.1-2.728-5.59-4.651c-1.474-1.92-2.598-4.108-3.354-6.55c-0.757-2.451-1.134-4.947-1.134-7.486
	c0-2.543,0.377-5.032,1.134-7.484c0.756-2.442,1.88-4.63,3.354-6.55c1.49-1.922,3.349-3.471,5.59-4.649
	C473.685,96.407,476.288,95.819,479.252,95.819z"></path>
<path d="M512.079,93.974c0,2.793-2.117,4.967-4.868,4.967c-2.752,0-4.871-2.174-4.871-4.967c0-2.785,2.119-4.965,4.871-4.965
	C509.962,89.01,512.079,91.189,512.079,93.974 M503.102,93.974c0,2.377,1.749,4.261,4.109,4.261c2.358,0,4.113-1.884,4.113-4.261
	c0-2.372-1.755-4.255-4.113-4.255C504.851,89.719,503.102,91.602,503.102,93.974z M506.141,96.847h-0.698v-5.741h2.157
	c1.271,0,1.836,0.559,1.836,1.589c0,1.018-0.656,1.471-1.412,1.601l1.671,2.551h-0.806l-1.588-2.551h-1.16V96.847z M507.052,93.699
	c0.854,0,1.69-0.027,1.69-1.004c0-0.801-0.657-0.988-1.335-0.988h-1.266v1.992H507.052z"></path>
<path d="M141.86,85.049l-0.045,0.038l-15.096,15.382V79.974c0-11.094-7.095-20.502-16.909-23.783
	c0.542-0.706,1.115-1.395,1.755-2.044c8.383-8.526,21.914-8.526,30.295,0C150.204,62.667,150.204,76.516,141.86,85.049z
	 M109.363,87.164l14.237,14.509h0.016V79.897v-0.048c0-12.071-9.569-21.839-21.462-21.839c-11.808,0-21.415,9.768-21.415,21.823
	c0,0.923,0.063,1.831,0.172,2.724C90.102,77.786,101.668,79.318,109.363,87.164z M102.321,104.648h19.919l-14.95-15.239
	c-8.345-8.52-21.952-8.52-30.255,0c-8.39,8.553-8.39,22.354,0,30.887c0.587,0.638,1.256,1.209,1.895,1.771
	C82.102,111.967,91.401,104.648,102.321,104.648z M109.446,122.438l14.255-14.509h-21.375h-0.047
	c-11.815,0-21.42,9.797-21.42,21.886c0,12.042,9.605,21.817,21.42,21.817c0.897,0,1.779-0.062,2.646-0.171
	C100.259,142.073,101.757,130.294,109.446,122.438z M126.677,129.893v-20.515l-15.116,15.401v0.029
	c-8.384,8.53-8.384,22.39,0,30.896c8.345,8.534,21.917,8.534,30.301,0c0.637-0.649,1.208-1.338,1.748-2.044
	C133.782,150.397,126.677,140.997,126.677,129.893z M144.1,122.604l-14.209-14.475v21.748v0.058
	c0,12.072,9.566,21.848,21.423,21.848c11.803,0,21.373-9.776,21.373-21.848c0-0.911-0.061-1.807-0.166-2.688
	C163.317,131.996,151.784,130.453,144.1,122.604z M176.766,89.064c-0.641-0.652-1.322-1.237-2.019-1.79
	c-3.199,10.019-12.4,17.262-23.266,17.262h-20.124l0,0l15.071,15.385l0.077,0.018c8.311,8.556,21.874,8.556,30.261,0
	C185.156,111.424,185.156,97.603,176.766,89.064z M151.439,57.852c-0.913,0-1.811,0.065-2.694,0.178
	c4.671,9.39,3.174,21.172-4.52,29.014l-14.209,14.494v0.015h21.299h0.124c11.803,0,21.373-9.78,21.373-21.862
	C172.812,67.655,163.242,57.852,151.439,57.852z"></path>
</svg>
