 <svg 
   xmlns="http://www.w3.org/2000/svg"
 
   width="156"
   height="78"
   viewBox="0 0 41.25 20.6">
  
  <path
     d="m 4.888,7.344 -0.267,0 0,1.037 0.548,0 0,-1.037 -0.281,0 z m 14.822,2.267 0.5,0 c 0.16,0 0.28,-0.04 0.33,-0.133 0.1,-0.07 0.1,-0.267 0.14,-0.563 0.11,0.133 0.27,0.222 0.45,0.252 -0.1,0.385 -0.21,0.607 -0.3,0.666 -0.1,0.07 -0.25,0.104 -0.5,0.104 l -2.3,0 c -0.43,0 -0.64,-0.178 -0.64,-0.533 l 0,-2.579 c 0,-0.192 0,-0.415 0,-0.667 l 3.25,0 c 0,0.267 0,0.623 0,1.067 0,0.445 0,0.801 0,1.082 l -0.38,0 0,-0.296 -2.46,0 0,1.2 c 0,0.267 0.14,0.4 0.42,0.4 l 1.52,0 z m 0,-1.941 0.52,0 0,-1.171 -1.06,0 0,1.171 0.54,0 z m -1.41,0 0.52,0 0,-1.171 -1.05,0 0,1.171 0.53,0 z m -3.41,1.941 0.5,0 c 0.17,0 0.29,-0.04 0.33,-0.133 0.1,-0.07 0.1,-0.267 0.15,-0.563 0.12,0.133 0.26,0.222 0.44,0.252 -0.1,0.385 -0.2,0.607 -0.29,0.666 -0.1,0.07 -0.26,0.104 -0.51,0.104 l -2.29,0 c -0.43,0 -0.64,-0.178 -0.64,-0.533 l 0,-2.579 c 0,-0.192 0,-0.415 0,-0.667 l 3.23,0 c 0,0.267 0,0.623 0,1.067 0,0.445 0,0.801 0,1.082 l -0.38,0 0,-0.296 -2.46,0 0,1.2 c 0,0.267 0.15,0.4 0.43,0.4 l 1.51,0 z m 0,-1.941 0.52,0 0,-1.171 -1.05,0 0,1.171 0.53,0 z m -1.41,0 0.52,0 0,-1.171 -1.05,0 0,1.171 0.53,0 z m -3.41,1.956 0.77,0 c 0.21,-0.01 0.43,-0.01 0.69,-0.01 l 0,0.356 c -0.26,-0.03 -0.48,-0.04 -0.69,-0.04 l -2.811,0 c -0.222,0 -0.489,0.01 -0.77,0.04 l 0,-0.356 c 0.296,0 0.548,0 0.77,0.01 l 1.141,0 0,-0.622 -0.844,0 c -0.178,0 -0.401,0 -0.653,0.01 l 0,-0.34 c 0.252,0.01 0.475,0.03 0.653,0.04 l 0.844,0 0,-0.534 -1.408,0 c 0.02,-0.243 0.03,-0.555 0.03,-0.91 0,-0.341 0,-0.741 -0.03,-1.156 l 3.228,0 c 0,0.252 0,0.608 0,1.037 0,0.43 0,0.786 0,1.037 l -1.464,0 0,0.534 0.904,0 c 0.18,-0.01 0.4,-0.03 0.67,-0.04 l 0,0.34 c -0.27,-0.01 -0.49,-0.01 -0.67,-0.01 l -0.904,0 0,0.622 0.544,0 z m 0,-1.719 0.55,0 0,-0.593 -1.094,0 0,0.593 0.544,0 z m 0,-0.86 0.55,0 0,-0.651 -1.094,0 0,0.651 0.544,0 z m -1.404,0.86 0.504,0 0,-0.593 -1.008,0 0,0.593 0.504,0 z m 0,-0.86 0.504,0 0,-0.651 -1.008,0 0,0.651 0.504,0 z m -3.778,1.66 -0.267,0 0,0.46 -0.356,0 C 4.28,8.974 4.28,8.618 4.28,8.1 c 0,-0.519 0,-0.875 -0.02,-1.067 l 1.26,0 C 5.51,7.27 5.51,7.596 5.51,8.011 c 0,0.415 0,0.741 0.02,0.978 l -0.356,0 0,-0.282 -0.281,0 z m 0,-2.297 1.007,0 0,2.934 c 0,0.149 -0.03,0.237 -0.104,0.267 -0.06,0.01 -0.207,0.03 -0.429,0.03 0.09,0.133 0.133,0.281 0.163,0.429 0.266,-0 0.444,-0.07 0.563,-0.133 C 6.206,9.878 6.251,9.73 6.251,9.478 l 0,-3.068 c 0.118,0 0.296,0 0.518,0.01 l 0,-0.355 c -0.237,0.01 -0.4,0.01 -0.474,0.01 l -1.63,0 c -0.148,0 -0.326,0 -0.563,-0.01 l 0,0.355 C 4.384,6.41 4.576,6.41 4.665,6.41 l 0.223,0 z m -1.66,1.141 c 0.252,0.371 0.4,0.637 0.444,0.815 0.04,0.193 0.03,0.312 -0.04,0.356 -0.07,0.04 -0.222,0.09 -0.43,0.119 0.07,0.133 0.134,0.266 0.163,0.4 C 3.554,9.196 3.717,9.122 3.865,9.018 4.013,8.9 4.087,8.737 4.072,8.5 4.043,8.278 3.895,7.951 3.584,7.522 3.732,7.033 3.865,6.559 3.998,6.084 l -1.333,0 c 0.02,0.252 0.02,0.889 0.02,1.882 0,1.008 0,1.704 -0.02,2.104 l 0.385,0 0,-3.66 0.504,0 C 3.435,6.855 3.332,7.24 3.228,7.551 l 0,0 m 6.031,6.209 0,-0.75 1.111,0 0,0.75 -1.111,0 z m 0.03,3.13 0,-2.71 1.041,0 0,2.71 -1.041,0 z M 21.54,15.47 c 0,-0.26 -0.1,-0.45 -0.19,-0.6 -0.13,-0.15 -0.32,-0.22 -0.55,-0.22 0,0 0,0 0,0 -0.24,0 -0.42,0.1 -0.55,0.22 -0.13,0.15 -0.19,0.36 -0.19,0.63 0,0.26 0.1,0.47 0.19,0.62 0.13,0.15 0.31,0.21 0.55,0.21 0.24,0 0.43,-0.1 0.56,-0.23 0.13,-0.15 0.19,-0.37 0.19,-0.63 z m -0.75,-1.31 c 0.13,0 0.28,0 0.43,0 0.43,0 0.77,0.12 1.02,0.37 0.24,0.25 0.37,0.59 0.37,1.02 0,0.46 -0.12,0.82 -0.37,1.07 C 22,16.87 21.66,17 21.23,17 c -0.15,0 -0.29,0 -0.44,-0.1 -0.1,0 -0.15,-0.1 -0.22,-0.1 -0.2,-0.1 -0.37,-0.23 -0.52,-0.43 l 0,0.1 c 0,0.1 0,0.14 0,0.21 0,0.1 0,0.15 0,0.21 l -1.04,0 c 0,-0.11 0,-0.21 0,-0.31 0,-0.11 0,-0.21 0,-0.3 l 0,-3.27 1.03,0 0,1.55 c 0.16,-0.15 0.34,-0.27 0.53,-0.34 0.1,0 0.13,0 0.21,-0.1 z m 11.79,0.34 c 0.55,0 1,0.46 1,1.01 0,0.55 -0.45,0.99 -1,0.99 -0.54,0 -1,-0.44 -1,-0.99 0,-0.55 0.46,-1.01 1,-1.01 z m 0,2.46 c 0.8,0 1.46,-0.65 1.46,-1.45 0,-0.82 -0.66,-1.47 -1.46,-1.47 -0.8,0 -1.46,0.65 -1.46,1.47 0,0.8 0.66,1.45 1.46,1.45 z m -5.33,-0.49 0.46,0 0,0.42 -0.46,0 0,-0.42 z m 3.5,0.1 c -0.15,0.12 -0.45,0.41 -1.03,0.41 -0.74,0 -1.45,-0.58 -1.45,-1.45 0,-0.87 0.71,-1.47 1.45,-1.47 0.55,0 0.88,0.3 1.03,0.42 -0.1,0.13 -0.17,0.37 -0.2,0.47 -0.28,-0.37 -0.62,-0.43 -0.83,-0.43 -0.54,0 -0.99,0.46 -0.99,1.01 0,0.53 0.45,0.99 0.99,0.99 0.31,0 0.61,-0.13 0.83,-0.43 0.1,0.24 0.15,0.39 0.2,0.48 z m 3.94,0.34 0,-2.71 0.41,0 0,0.38 c 0.1,-0.13 0.21,-0.24 0.34,-0.32 0.15,-0.1 0.31,-0.12 0.49,-0.12 0.2,0 0.36,0 0.49,0.12 0.14,0.1 0.22,0.2 0.28,0.35 0.21,-0.31 0.49,-0.47 0.83,-0.47 0.27,0 0.48,0.1 0.63,0.22 0.14,0.15 0.22,0.38 0.22,0.7 l 0,1.85 -0.46,0 0,-1.71 c 0,-0.19 0,-0.31 -0.1,-0.4 0,-0.1 -0.1,-0.14 -0.16,-0.19 -0.1,0 -0.18,-0.1 -0.28,-0.1 -0.19,0 -0.34,0.1 -0.47,0.19 -0.12,0.12 -0.2,0.33 -0.2,0.61 l 0,1.57 -0.46,0 0,-1.77 c 0,-0.2 0,-0.35 -0.1,-0.45 -0.1,-0.11 -0.21,-0.15 -0.37,-0.15 -0.13,0 -0.25,0 -0.36,0.1 -0.12,0.1 -0.19,0.16 -0.23,0.3 -0.1,0.13 -0.1,0.32 -0.1,0.56 l 0,1.41 -0.47,0 z m 3.51,-3.31 0,-0.52 -0.19,0 0,0 0.47,0 0,0 -0.19,0 0,0.52 -0.1,0 z m 0.36,0 0,-0.57 0.11,0 0.14,0.41 c 0,0 0,0.1 0,0.1 0,0 0,0 0,-0.1 l 0.13,-0.4 0.1,0 0,0.57 -0.1,0 0,-0.49 -0.16,0.49 -0.1,0 -0.16,-0.49 0,0.49 -0.1,0 z m -13.25,2.91 c -0.11,0.16 -0.27,0.26 -0.49,0.35 -0.1,0 -0.11,0 -0.15,0.1 -0.18,0 -0.38,0.1 -0.62,0.1 -0.34,0 -0.61,-0.1 -0.8,-0.22 -0.18,-0.13 -0.28,-0.34 -0.28,-0.61 0,-0.16 0,-0.31 0.11,-0.44 0.1,-0.12 0.18,-0.22 0.32,-0.31 0.1,-0.1 0.26,-0.12 0.46,-0.15 0.17,0 0.44,0 0.81,0 0,0 0.1,0 0.12,0 l 0.5,0 c 0,0 0,0 0,0 0,0 0,0 0,0 0,-0.15 0,-0.27 -0.13,-0.34 -0.1,-0.1 -0.21,-0.12 -0.37,-0.12 -0.1,0 -0.1,0 -0.12,0 -0.13,0 -0.24,0 -0.31,0.1 -0.1,0 -0.15,0.13 -0.16,0.25 l -1.06,0 c 0,-0.3 0.2,-0.52 0.46,-0.67 0.24,-0.13 0.6,-0.19 1.07,-0.2 0,0 0.1,0 0.13,0 0.51,0 0.89,0.1 1.13,0.25 0.24,0.16 0.36,0.43 0.36,0.78 l 0,1.38 c 0,0.1 0,0.15 0,0.21 0,0 0,0.1 0.1,0.15 l -0.97,0 c 0,-0.1 0,-0.11 -0.1,-0.16 0,-0.1 0,-0.12 0,-0.18 l 0,-0.1 z m -0.64,-0.12 c 0.18,0 0.33,-0.1 0.43,-0.16 0.12,-0.11 0.19,-0.27 0.19,-0.46 l 0,-0.1 -0.1,0 c -0.2,0 -0.38,0 -0.53,0 -0.16,0 -0.28,0 -0.37,0.1 -0.16,0 -0.25,0.14 -0.25,0.29 0,0.1 0,0.17 0.13,0.23 0.1,0 0.22,0.1 0.39,0.1 0,0 0.1,0 0.1,0 z m -7.33,0.12 c -0.12,0.16 -0.29,0.26 -0.51,0.35 0,0 -0.1,0 -0.15,0.1 -0.17,0 -0.38,0.1 -0.62,0.1 -0.34,0 -0.61,-0.1 -0.78,-0.22 -0.2,-0.13 -0.29,-0.34 -0.29,-0.61 0,-0.16 0,-0.31 0.11,-0.44 0.1,-0.12 0.18,-0.22 0.31,-0.31 0.12,-0.1 0.27,-0.12 0.46,-0.15 0.18,0 0.44,0 0.81,0 0.1,0 0.1,0 0.12,0 l 0.51,0 c 0,0 0,0 0,0 0,0 0,0 0,0 0,-0.15 0,-0.27 -0.14,-0.34 -0.1,-0.1 -0.21,-0.12 -0.37,-0.12 0,0 -0.1,0 -0.12,0 -0.13,0 -0.23,0 -0.31,0.1 -0.1,0 -0.13,0.13 -0.16,0.25 l -1.05,0 c 0,-0.3 0.19,-0.52 0.46,-0.67 0.25,-0.13 0.6,-0.19 1.06,-0.2 0.1,0 0.1,0 0.14,0 0.5,0 0.89,0.1 1.12,0.25 0.24,0.16 0.37,0.43 0.37,0.78 l 0,1.38 c 0,0.1 0,0.15 0,0.21 0,0 0,0.1 0.1,0.15 l -0.97,0 c 0,-0.1 0,-0.11 0,-0.16 0,-0.1 0,-0.12 0,-0.18 l 0,-0.1 z m -0.66,-0.12 c 0.2,0 0.33,-0.1 0.43,-0.16 0.14,-0.11 0.2,-0.27 0.2,-0.46 l 0,-0.1 -0.1,0 c -0.21,0 -0.39,0 -0.54,0 -0.15,0 -0.26,0 -0.35,0.1 -0.18,0 -0.25,0.14 -0.25,0.29 0,0.1 0,0.17 0.11,0.23 0.1,0 0.23,0.1 0.4,0.1 0,0 0.1,0 0.1,0 z m -3.12,-0.9 c 0,-0.26 -0.1,-0.45 -0.2,-0.6 -0.13,-0.15 -0.31,-0.22 -0.54,-0.22 -0.26,0 -0.43,0.1 -0.57,0.22 -0.13,0.15 -0.19,0.36 -0.19,0.63 0,0.26 0.1,0.47 0.19,0.62 0.14,0.15 0.33,0.21 0.55,0.21 l 0,0 c 0.23,0 0.41,-0.1 0.54,-0.23 0.14,-0.15 0.2,-0.37 0.2,-0.63 z m -0.74,-1.31 c 0.13,0 0.26,0 0.41,0 0.43,0 0.77,0.12 1.02,0.37 0.25,0.25 0.37,0.59 0.37,1.02 0,0.46 -0.12,0.82 -0.35,1.07 -0.25,0.25 -0.58,0.38 -1.01,0.38 -0.16,0 -0.31,0 -0.44,-0.1 -0.1,0 -0.17,-0.1 -0.23,-0.1 -0.2,-0.1 -0.38,-0.23 -0.52,-0.43 l 0,0.1 c 0,0.1 0,0.14 0,0.21 0,0.1 0,0.15 0,0.21 l -1.06,0 c 0,-0.11 0,-0.21 0,-0.31 0,-0.11 0,-0.21 0,-0.3 l 0,-3.27 1.03,0 0,1.55 c 0.15,-0.15 0.33,-0.27 0.52,-0.34 0.1,0 0.15,0 0.23,-0.1 z m -8.081,-1.15 0.756,0 1.897,3.88 -1.245,0 -0.341,-0.79 -2.119,0 -0.37,0.79 -1.171,0 2.03,-3.88 0.563,0 z m 0,2.34 0.712,0 -0.667,-1.5 -0.04,0.1 -0.696,1.43 0.696,0 z m 2.831,1.54 0,-3.88 1.037,0 0,3.88 -1.037,0 M 32.18,3.639 c -1.06,0.02 -2.19,0.326 -2.95,0.593 -2.62,0.934 -4.26,2.4 -5.3,4.045 -1.1,1.63 -0.73,3.183 1.58,3.233 1.78,-0.1 2.94,-0.56 4.15,-1.19 0,0 -3.33,0.95 -4.56,0.26 -0.13,-0.1 -0.28,-0.18 -0.31,-0.47 0,-0.573 0.96,-1.166 1.5,-1.358 l 0,-0.978 c 1.11,0.385 2.43,0.266 3.54,-0.564 0.1,0.09 0.1,0.238 0.1,0.356 l 0.19,0 c 0.1,-0.385 -0.22,-0.77 -0.64,-0.8 0.12,0.104 0.21,0.178 0.25,0.252 0,0.01 0,0.03 0,0.03 -1.45,1.038 -2.84,0.549 -2.97,0.519 l 0.8,-0.8 -0.23,-0.563 c 1.6,-0.563 2.95,-0.993 5.13,-1.378 l -0.49,-0.4 0.25,-0.163 c 1.33,0.384 2.19,0.651 2.14,1.344 0,0.122 -0.1,0.254 -0.14,0.404 -0.37,0.771 -1.51,2.03 -1.97,2.564 -0.31,0.341 -0.6,0.697 -0.83,1.022 -0.2,0.326 -0.34,0.633 -0.35,0.923 0,2.31 6.77,-1.071 8.07,-1.96 -1.92,0.83 -4,1.63 -6.29,1.78 -0.63,0 -0.57,-0.3 -0.2,-0.802 0.86,-1.171 2.51,-2.786 2.57,-3.927 0.1,-1.497 -1.41,-1.986 -2.97,-1.971 z m 2.03,1.362 c 0,0.02 0,0.04 0,0.05 0,-0.02 0,-0.04 0,-0.05 z m 0.1,0.131 c 0,0.03 0,0.07 0,0.106 0,-0.04 0,-0.07 0,-0.106 z m 0,0.144 c 0,0.04 0,0.09 0,0.14 0,-0.05 0,-0.09 0,-0.14 z m 0,0.162 c 0,0.05 0,0.105 0,0.162 0,-0.06 0,-0.111 0,-0.162 z" />
</svg>
