<?xml version="1.0"?>

<svg xmlns="http://www.w3.org/2000/svg" height="187.3" width="713.26" viewBox="-149 219 713.26 187.3"> <path d="m 531.26,267.5 c 0,2 -0.2,3.8 -0.6,5.4 -0.4,1.6 -1,2.9 -1.9,4 -0.9,1.1 -2,2 -3.4,2.5 -1.4,0.6 -3.2,0.9 -5.2,0.9 -2,0 -3.8,-0.3 -5.3,-0.9 -1.5,-0.6 -2.7,-1.4 -3.6,-2.5 -0.9,-1.1 -1.6,-2.4 -2,-4 -0.4,-1.6 -0.6,-3.4 -0.6,-5.4 0,-2 0.2,-3.8 0.6,-5.4 0.4,-1.6 1.1,-2.9 2,-4.1 0.9,-1.1 2.1,-2 3.6,-2.6 1.5,-0.6 3.2,-0.9 5.3,-0.9 2.1,0 3.8,0.3 5.2,0.9 1.4,0.6 2.6,1.5 3.5,2.6 0.9,1.1 1.5,2.4 1.9,4 0.4,1.6 0.5,3.6 0.5,5.5 z m -2.7,0 c 0,-1.6 -0.1,-3 -0.3,-4.3 -0.2,-1.3 -0.7,-2.4 -1.3,-3.3 -0.6,-0.9 -1.5,-1.6 -2.6,-2.1 -1.1,-0.5 -2.5,-0.7 -4.2,-0.7 -1.7,0 -3.1,0.2 -4.2,0.7 -1.1,0.5 -2,1.2 -2.7,2.1 -0.7,0.9 -1.1,2 -1.4,3.3 -0.3,1.3 -0.4,2.7 -0.4,4.3 0,1.6 0.1,3 0.4,4.3 0.3,1.3 0.7,2.4 1.4,3.3 0.7,0.9 1.6,1.6 2.7,2.1 1.1,0.5 2.5,0.7 4.2,0.7 1.7,0 3.1,-0.2 4.2,-0.7 1.1,-0.5 1.9,-1.2 2.6,-2.1 0.7,-0.9 1,-2 1.3,-3.3 0.2,-1.2 0.3,-2.7 0.3,-4.3 z m -4.6,-3 c 0,1 -0.2,1.9 -0.5,2.5 -0.3,0.7 -0.8,1.2 -1.5,1.5 l 2.7,5.9 -2.2,0 -2.4,-5.7 -1.4,0 0,5.7 -1.9,0 0,-13.9 c 0.3,0 0.6,0 1,-0.1 0.3,0 0.7,0 1,0 0.3,0 0.8,0 1.2,0 1.5,0 2.5,0.4 3.1,1.1 0.6,0.8 0.9,1.8 0.9,3 z m -2,0.1 c 0,-1 -0.1,-1.6 -0.3,-2 -0.2,-0.4 -0.7,-0.5 -1.4,-0.5 -0.3,0 -0.5,0 -0.7,0 -0.2,0 -0.4,0 -0.5,0 -0.1,0 -0.3,0 -0.4,0 l 0,4.9 1.5,0 c 0.3,0 0.5,0 0.7,-0.1 0.2,0 0.4,-0.2 0.5,-0.3 0.1,-0.2 0.3,-0.4 0.3,-0.7 0.2,-0.3 0.3,-0.7 0.3,-1.3 z m -26.3,-12.5 c 1.3,0 2.3,0.4 3.2,1.3 0.9,0.9 1.3,1.9 1.3,3.2 l 0,111.8 c 0,1.1 -0.4,2.1 -1.1,2.9 -0.7,0.8 -1.7,1.3 -2.8,1.5 l -0.6,0 c -1,0 -2,-0.3 -2.8,-0.9 -0.8,-0.6 -1.4,-1.4 -1.6,-2.5 l -22.2,-83.3 0.9,82.3 c 0,1.2 -0.4,2.3 -1.3,3.2 -0.9,0.9 -2,1.3 -3.2,1.3 -1.2,0 -2.3,-0.4 -3.2,-1.3 -0.9,-0.9 -1.3,-1.9 -1.3,-3.2 l 0,-111.8 c 0,-1.1 0.4,-2.1 1.1,-2.9 0.7,-0.8 1.7,-1.3 2.8,-1.5 1.2,-0.1 2.2,0.2 3.2,0.8 0.9,0.6 1.6,1.5 1.9,2.6 l 22.2,85.2 -0.9,-84.1 c 0,-1.2 0.4,-2.3 1.3,-3.2 0.8,-0.9 1.8,-1.4 3.1,-1.4 z m -66.1,9 0,38.3 13.2,0 c 1.2,0 2.3,0.4 3.2,1.3 0.9,0.9 1.3,1.9 1.3,3.2 0,1.2 -0.4,2.3 -1.3,3.2 -0.9,0.9 -1.9,1.3 -3.2,1.3 l -13.2,0 0,55.6 23.4,0 c 1.2,0 2.3,0.4 3.2,1.3 0.9,0.9 1.3,1.9 1.3,3.2 0,1.2 -0.4,2.3 -1.3,3.2 -0.9,0.9 -1.9,1.3 -3.2,1.3 l -27.9,0 c -1.2,0 -2.3,-0.4 -3.2,-1.3 -0.9,-0.9 -1.3,-1.9 -1.3,-3.2 l 0,-111.9 c 0,-1.2 0.4,-2.3 1.3,-3.2 0.9,-0.9 1.9,-1.3 3.2,-1.3 l 27.9,0 c 1.2,0 2.3,0.4 3.2,1.3 0.9,0.9 1.3,1.9 1.3,3.2 0,1.2 -0.4,2.3 -1.3,3.2 -0.9,0.9 -1.9,1.3 -3.2,1.3 l -23.4,0 z m -32,-9 c 3,0 5.6,0.6 7.8,1.8 2.2,1.2 4.1,2.7 5.5,4.6 1.4,1.9 2.5,3.9 3.3,6.3 0.8,2.4 1.1,4.7 1.1,7 l 0,16.9 c 0,2.4 -0.4,4.7 -1.1,7 -0.7,2.3 -1.8,4.4 -3.3,6.3 -1.4,1.9 -3.3,3.4 -5.5,4.5 -2.2,1.1 -4.8,1.7 -7.8,1.7 l -8.2,0 0,60.3 c 0,1.2 -0.4,2.3 -1.3,3.2 -0.9,0.9 -1.9,1.3 -3.2,1.3 -1.2,0 -2.3,-0.4 -3.2,-1.3 -0.9,-0.9 -1.3,-1.9 -1.3,-3.2 l 0,-111.9 c 0,-1.2 0.4,-2.3 1.3,-3.2 0.9,-0.9 1.9,-1.3 3.2,-1.3 0,0 12.7,0 12.7,0 z m 8.6,19.7 c 0,-0.4 -0.1,-1.2 -0.2,-2.4 -0.2,-1.2 -0.5,-2.4 -1.1,-3.6 -0.6,-1.2 -1.4,-2.3 -2.6,-3.3 -1.1,-0.9 -2.7,-1.4 -4.8,-1.4 l -8.2,0 0,38.1 8.2,0 c 2.1,0 3.7,-0.5 4.8,-1.4 1.1,-0.9 2,-2 2.6,-3.3 0.6,-1.2 0.9,-2.4 1.1,-3.6 0.2,-1.1 0.2,-1.9 0.2,-2.3 l 0,-16.8 z m -52,-19.8 c 3.1,0 5.8,0.6 8,1.8 2.2,1.2 4.1,2.7 5.5,4.6 1.4,1.9 2.5,4 3.2,6.3 0.7,2.3 1,4.7 1,7 l 0,81.6 c 0,2.4 -0.3,4.7 -1,7 -0.7,2.3 -1.7,4.4 -3.2,6.3 -1.4,1.9 -3.3,3.4 -5.5,4.6 -2.2,1.2 -4.9,1.8 -8,1.8 -5.9,0 -10.6,-1.8 -14.1,-5.5 -3.5,-3.7 -5.3,-8.4 -5.3,-14.3 l 0,-81.6 c 0,-6 1.8,-10.8 5.3,-14.3 3.5,-3.6 8.2,-5.3 14.1,-5.3 z m 8.7,19.6 c 0,-0.4 -0.1,-1.2 -0.2,-2.4 -0.1,-1.2 -0.4,-2.4 -1,-3.6 -0.6,-1.2 -1.4,-2.3 -2.6,-3.3 -1.2,-0.9 -2.8,-1.4 -4.9,-1.4 -2.3,0 -4.1,0.4 -5.4,1.1 -1.3,0.7 -2.4,1.6 -3.1,2.7 -0.7,1.1 -1.2,2.2 -1.5,3.5 -0.3,1.2 -0.4,2.4 -0.4,3.4 l 0,81.5 c 0,1 0.1,2.2 0.4,3.4 0.3,1.2 0.8,2.4 1.5,3.5 0.7,1.1 1.8,2 3.1,2.8 1.3,0.8 3.2,1.2 5.4,1.2 2.1,0 3.7,-0.5 4.9,-1.4 1.2,-0.9 2.1,-2 2.6,-3.3 0.6,-1.2 0.9,-2.4 1,-3.6 0.1,-1.1 0.2,-2 0.2,-2.5 l 0,-81.6 z m -79,-10.5 c -2.3,0 -4.1,0.4 -5.4,1.1 -1.3,0.7 -2.4,1.6 -3.1,2.7 -0.7,1.1 -1.2,2.2 -1.5,3.5 -0.3,1.2 -0.4,2.4 -0.4,3.4 0,3.5 0.4,6.8 1.1,10 0.7,3.2 1.7,6.2 2.9,9.1 1.2,2.9 2.6,5.8 4.1,8.7 1.5,2.8 3.1,5.7 4.8,8.4 1.9,3.2 3.7,6.5 5.5,9.8 1.8,3.3 3.4,6.8 4.9,10.5 1.4,3.7 2.6,7.6 3.5,11.7 0.9,4.1 1.3,8.6 1.3,13.3 0,2.4 -0.3,4.7 -1,7 -0.7,2.3 -1.7,4.4 -3.2,6.3 -1.4,1.9 -3.3,3.4 -5.5,4.6 -2.2,1.2 -4.9,1.8 -8,1.8 -5.9,0 -10.6,-1.8 -14.1,-5.5 -3.5,-3.6 -5.3,-8.4 -5.3,-14.2 0,-1.2 0.4,-2.3 1.3,-3.2 0.9,-0.9 1.9,-1.3 3.2,-1.3 1.2,0 2.3,0.4 3.2,1.3 0.9,0.9 1.3,1.9 1.3,3.1 0,1 0.1,2.1 0.4,3.4 0.3,1.2 0.7,2.4 1.5,3.5 0.7,1.1 1.8,2 3.1,2.8 1.3,0.8 3.1,1.1 5.4,1.1 2.1,0 3.7,-0.5 4.9,-1.4 1.2,-0.9 2.1,-2 2.6,-3.3 0.6,-1.2 0.9,-2.4 1,-3.6 0.1,-1.1 0.2,-2 0.2,-2.5 0,-4.1 -0.4,-8 -1.2,-11.6 -0.8,-3.6 -1.8,-7.1 -3.1,-10.4 -1.3,-3.3 -2.8,-6.5 -4.4,-9.5 -1.7,-3 -3.4,-6.1 -5.3,-9.2 -1.8,-2.9 -3.5,-5.9 -5.2,-9 -1.7,-3.1 -3.2,-6.3 -4.5,-9.6 -1.3,-3.3 -2.4,-6.8 -3.2,-10.5 -0.8,-3.7 -1.2,-7.6 -1.2,-11.7 0,-6 1.8,-10.8 5.3,-14.3 3.5,-3.6 8.2,-5.3 14.1,-5.3 3.1,0 5.8,0.6 8,1.8 2.2,1.2 4.1,2.7 5.5,4.6 1.4,1.9 2.5,3.9 3.2,6.3 0.7,2.3 1,4.7 1,7 0,1.2 -0.4,2.3 -1.3,3.2 -0.9,0.9 -1.9,1.3 -3.2,1.3 -1.3,0 -2.3,-0.4 -3.2,-1.3 -0.9,-0.9 -1.3,-1.9 -1.3,-3.2 0,-0.4 -0.1,-1.2 -0.2,-2.4 -0.1,-1.2 -0.4,-2.4 -1,-3.6 -0.6,-1.2 -1.4,-2.3 -2.6,-3.3 -1.2,-0.9 -2.9,-1.4 -4.9,-1.4 z m -43.4,0 c -2.3,0 -4.1,0.4 -5.4,1.1 -1.3,0.7 -2.4,1.6 -3.1,2.7 -0.7,1.1 -1.2,2.2 -1.5,3.5 -0.3,1.2 -0.4,2.4 -0.4,3.4 l 0,81.3 c 0,1 0.1,2.2 0.4,3.4 0.3,1.2 0.7,2.4 1.5,3.5 0.7,1.1 1.8,2 3.1,2.8 1.3,0.8 3.1,1.2 5.4,1.2 2.1,0 3.7,-0.5 4.9,-1.4 1.2,-0.9 2.1,-2 2.6,-3.3 0.6,-1.2 0.9,-2.4 1,-3.6 0.1,-1.1 0.2,-2 0.2,-2.5 l 0,-26.6 -8.6,0 c -1.2,0 -2.3,-0.4 -3.2,-1.3 -0.9,-0.9 -1.3,-1.9 -1.3,-3.2 0,-1.2 0.4,-2.3 1.3,-3.2 0.9,-0.9 1.9,-1.3 3.2,-1.3 l 13,0 c 1.2,0 2.3,0.4 3.2,1.3 0.9,0.9 1.3,1.9 1.3,3.2 l 0,31.1 c 0,2.4 -0.3,4.7 -1,7 -0.7,2.3 -1.7,4.4 -3.2,6.3 -1.4,1.9 -3.3,3.4 -5.5,4.6 -2.2,1.2 -4.9,1.8 -8,1.8 -5.9,0 -10.6,-1.8 -14.1,-5.5 -3.5,-3.7 -5.3,-8.4 -5.3,-14.3 l 0,-81.3 c 0,-6 1.8,-10.8 5.3,-14.3 3.5,-3.6 8.2,-5.3 14.1,-5.3 3.1,0 5.8,0.6 8,1.8 2.2,1.2 4.1,2.7 5.5,4.6 1.4,1.9 2.5,3.9 3.2,6.3 0.7,2.3 1,4.7 1,7 0,1.2 -0.4,2.3 -1.3,3.2 -0.9,0.9 -1.9,1.3 -3.2,1.3 -1.2,0 -2.3,-0.4 -3.2,-1.3 -0.9,-0.9 -1.3,-1.9 -1.3,-3.2 0,-0.4 -0.1,-1.2 -0.2,-2.4 -0.1,-1.2 -0.4,-2.4 -1,-3.6 -0.6,-1.2 -1.4,-2.3 -2.6,-3.3 -1.1,-1 -2.7,-1.5 -4.8,-1.5 z m -33.9,-9 c 1.3,0 2.3,0.4 3.2,1.3 0.9,0.9 1.3,1.9 1.3,3.2 l 0,111.8 c 0,1.1 -0.4,2.1 -1.1,2.9 -0.7,0.8 -1.7,1.3 -2.8,1.5 l -0.6,0 c -1.1,0 -2,-0.3 -2.8,-0.9 -0.8,-0.6 -1.4,-1.4 -1.6,-2.5 l -22.2,-83.3 0.9,82.3 c 0,1.2 -0.4,2.3 -1.3,3.2 -0.9,0.9 -2,1.3 -3.2,1.3 -1.3,0 -2.3,-0.4 -3.2,-1.3 -0.9,-0.9 -1.3,-1.9 -1.3,-3.2 l 0,-111.8 c 0,-1.1 0.4,-2.1 1.1,-2.9 0.7,-0.8 1.7,-1.3 2.8,-1.5 1.2,-0.1 2.2,0.2 3.2,0.8 0.9,0.6 1.6,1.5 1.9,2.6 l 22.2,85.2 -0.9,-84.1 c 0,-1.2 0.4,-2.3 1.3,-3.2 0.8,-0.9 1.9,-1.4 3.1,-1.4 z m -49.6,0 c 1.2,0 2.3,0.4 3.2,1.3 0.9,0.9 1.3,1.9 1.3,3.2 l 0,111.8 c 0,1.2 -0.4,2.3 -1.3,3.2 -0.9,0.9 -1.9,1.3 -3.2,1.3 -1.2,0 -2.3,-0.4 -3.2,-1.3 -0.9,-0.9 -1.3,-1.9 -1.3,-3.2 l 0,-111.8 c 0,-1.2 0.4,-2.3 1.3,-3.2 0.9,-0.8 2,-1.3 3.2,-1.3 z m -15.2,116.4 c 0,1.2 -0.4,2.3 -1.3,3.2 -0.9,0.9 -2,1.3 -3.2,1.3 -1.3,0 -2.3,-0.4 -3.2,-1.3 -0.8,-0.9 -1.3,-1.9 -1.3,-3.2 l 0,-60.1 -19.1,0 0,60.1 c 0,1.2 -0.4,2.3 -1.3,3.2 -0.9,0.9 -1.9,1.3 -3.2,1.3 -1.2,0 -2.3,-0.4 -3.2,-1.3 -0.9,-0.9 -1.3,-1.9 -1.3,-3.2 l 0,-111.9 c 0,-1.2 0.4,-2.3 1.3,-3.2 0.9,-0.9 1.9,-1.3 3.2,-1.3 1.2,0 2.3,0.4 3.2,1.3 0.9,0.9 1.3,1.9 1.3,3.2 l 0,42.8 19.1,0 0,-42.8 c 0,-1.2 0.4,-2.3 1.3,-3.2 0.8,-0.9 1.9,-1.3 3.2,-1.3 1.3,0 2.3,0.4 3.2,1.3 0.9,0.9 1.3,1.9 1.3,3.2 l 0,111.9 z m -41.1,-115.1 c 0.9,0.9 1.3,1.9 1.3,3.2 0,1.2 -0.4,2.3 -1.3,3.2 -0.899,0.9 -1.899,1.3 -3.199,1.3 l -17.2,0 0,107.4 c 0,1.2 -0.4,2.3 -1.3,3.2 -0.9,0.9 -1.9,1.3 -3.2,1.3 -1.3,0 -2.3,-0.4 -3.2,-1.3 -0.9,-0.9 -1.3,-1.9 -1.3,-3.2 l 0,-107.4 -14.7,0 c -1.2,0 -2.3,-0.4 -3.2,-1.3 -0.9,-0.9 -1.3,-1.9 -1.3,-3.2 0,-1.2 0.4,-2.3 1.3,-3.2 0.9,-0.9 1.9,-1.3 3.2,-1.3 l 40.9,0 c 1.2,0 2.3,0.5 3.199,1.3 z M 17.461,365.3 c 0.9,0.9 1.3,1.9 1.3,3.2 0,1.2 -0.4,2.3 -1.3,3.2 -0.9,0.9 -1.9,1.3 -3.2,1.3 l -28,0 c -1.2,0 -2.3,-0.4 -3.2,-1.3 -0.9,-0.9 -1.3,-1.9 -1.3,-3.2 l 0,-111.7 c 0,-1.2 0.4,-2.3 1.3,-3.2 0.9,-0.9 1.9,-1.3 3.2,-1.3 1.2,0 2.3,0.4 3.2,1.3 0.8998,0.9 1.2998,1.9 1.2998,3.2 l 0,107.2 23.5002,0 c 1.3,0 2.3,0.4 3.2,1.3 z m -43.2,0 c 0.9,0.9 1.3,1.9 1.3,3.2 0,1.2 -0.4,2.3 -1.3,3.2 -0.9,0.9 -1.9,1.3 -3.2,1.3 l -28,0 c -1.2,0 -2.3,-0.4 -3.2,-1.3 -0.9,-0.9 -1.3,-1.9 -1.3,-3.2 l 0,-111.7 c 0,-1.2 0.4,-2.3 1.3,-3.2 0.9,-0.9 1.9,-1.3 3.2,-1.3 1.2,0 2.3,0.4 3.2,1.3 0.8,0.9 1.3,1.9 1.3,3.2 l 0,107.2 23.5,0 c 1.2,0 2.3,0.4 3.2,1.3 z m -42.9,2.7 c 0.2,1.2 0,2.3 -0.7,3.3 -0.7,1 -1.6,1.6 -2.9,1.8 -0.2,0.1 -0.5,0.2 -0.8,0.2 -1.1,0 -2.1,-0.3 -2.9,-1 -0.8,-0.7 -1.3,-1.6 -1.5,-2.7 l -7.4,-43.1 -15.201,0 -7.1,43.1 c -0.2,1.1 -0.8,2.1 -1.8,2.8 -1,0.7 -2.1,1 -3.3,0.8 -1.2,-0.2 -2.2,-0.8 -2.9,-1.8 -0.7,-1 -1,-2.1 -0.8,-3.3 l 18.701,-112.3 c 0.2,-1 0.7,-1.9 1.5,-2.6 0.8,-0.7 1.7,-1.1 2.9,-1.1 1.1,0 2.1,0.3 2.9,1 0.8,0.7 1.3,1.6 1.5,2.7 l 19.8,112.2 z m -17.9,-50.5 -6.2,-43.7 -5.9,43.7 12.1,0 z"></path> </svg>