<?xml version="1.0"?>
<!--?xml version="1.0" encoding="UTF-8" standalone="no"?-->
<svg xmlns="http://www.w3.org/2000/svg" viewBox="0 0 591.98 153.25" height="153.25" width="591.98">
  <path d="M 525.57,116.69 V 36.809 c 0,-6.442 -2.71,-8.544 -8.82,-8.544 h -18.3 v 8.815 h 2.03 c 3.39,0 4.75,1.288 4.75,5.221 v 74.389 z m 10.85,0 h 19.66 V 56.406 c 0,-6.103 -2.71,-8.544 -8.81,-8.544 h -10.85 z m -42.04,0 V 47.862 h -10.85 c -6.11,0 -8.82,2.441 -8.82,8.544 v 60.284 z m 84.76,-40.145 c 0,37.365 -27.13,64.625 -63.74,64.625 -36.62,0 -63.74,-27.26 -63.74,-64.625 0,-37.363 27.12,-64.622 63.74,-64.622 36.61,0 63.74,27.259 63.74,64.622 m 12.88,0 c 0,-43.737 -32.55,-76.55653 -76.62,-76.55653 -43.4,0 -76.63,32.81953 -76.63,76.55653 0,43.875 33.23,76.695 76.63,76.695 44.07,0 76.62,-32.82 76.62,-76.695 M 405.55,107.06 H 374.36 L 404.19,64.475 V 49.964 h -44.75 c -5.43,0 -7.46,2.17 -7.46,7.391 v 12.816 h 7.46 v -1.424 c 0,-3.865 2.03,-5.425 6.1,-5.425 h 16.27 L 351.3,105.91 v 14.64 h 54.25 m -105.16,0 V 72.7 c 4.75,-4.41 8.14,-6.11 12.89,-6.11 4.74,0 6.1,2.04 6.1,9.23 v 44.75 H 340.4 V 72.43 c 0,-9.9 -1.36,-14.18 -4.07,-17.91 -3.39,-3.66 -7.46,-5.35 -13.56,-5.35 -8.14,0 -14.24,2.98 -23.73,11.19 v -3.8 c 0,-4.41 -2.04,-6.58 -6.11,-6.58 h -20.34 v 7.66 h 0.68 c 4.07,0 6.1,1.7 6.1,5.56 v 57.37 M 241.4,86.33 v 14.1 c -4.07,4.07 -8.82,6.38 -12.89,6.38 -4.06,0 -6.1,-1.97 -6.1,-7.26 0,-5.83 1.36,-8.07 6.1,-9.9 3.4,-1.42 6.79,-2.31 12.89,-3.32 m -29.84,-16.89 2.04,-0.81 c 5.42,-2.17 8.81,-2.98 12.88,-3.73 2.03,-0.27 4.75,-0.54 6.1,-0.54 6.78,0 8.82,2.23 8.82,8.47 v 1.77 c -9.49,1.56 -12.21,2.1 -17.63,3.25 -2.71,0.68 -5.43,1.56 -8.14,2.71 -8.81,3.53 -12.88,10.31 -12.88,20.96 0,13.35 5.42,19.73 17.63,19.73 4.74,0 9.49,-1.09 12.88,-3.26 3.39,-1.56 4.75,-2.37 8.82,-6.1 v 2.17 c 0,4.41 2.03,6.51 6.1,6.51 h 20.34 v -7.25 h -0.68 c -4.06,0 -6.1,-1.84 -6.1,-5.5 V 73.17 c 0,-18.04 -6.1,-24.14 -23.73,-24.14 -6.1,0 -11.53,0.68 -16.95,1.97 -5.43,1.29 -8.14,2.24 -14.24,5.42 M 191.9,34.66 c 0,-6.24 -4.75,-9.9 -12.21,-9.9 -8.13,0 -12.2,3.66 -12.2,9.9 0,6.37 4.07,10.1 12.2,10.1 7.46,0 12.21,-3.73 12.21,-10.1 m -0.68,85.91 v -63.6 c 0,-4.41 -2.71,-6.99 -6.78,-6.99 h -21.02 v 7.66 h 1.35 c 4.07,0 5.43,1.7 5.43,5.56 v 57.37 m -16.95,0 V 33.23 c 0,-4.54 -2.72,-6.91 -7.46,-6.91 h -21.02 v 7.79 h 1.35 c 4.07,0 6.11,1.7 6.11,5.36 v 81.1 m -16.96,0 V 33.23 c 0,-4.54 -2.71,-6.91 -7.46,-6.91 H 86.79 v 7.79 h 1.36 c 4.07,0 6.1,1.7 6.1,5.36 v 81.1 M 53.57,82.67 H 31.87 L 43.4,45.17 Z m -31.87,37.9 6.78,-22.85 h 27.8 l 6.78,22.85 H 86.12 L 61.7,33.84 C 60.35,28.15 57.64,26.32 51.53,26.32 h -33.9 v 7.79 h 2.71 c 4.07,0 6.1,1.29 6.1,4.41 0,1.97 0,3.26 -2.03,7.94 L 0,120.57"></path>
</svg>
