<?xml version="1.0"?>

<svg xmlns="http://www.w3.org/2000/svg" viewBox="0 0 449.6 155.2" height="155.2" width="449.6"> <path d="m 234.5,55 c -5.5,0 -13.2,0.9 -17.9,2.6 l 0,41.3 c 3.9,0.8 11.2,1.3 16.3,1.3 17.3,0 24,-6.8 24,-22.9 0,-14 -8.5,-22.3 -22.4,-22.3 m -8.2,8.4 c 1.6,-0.3 4.7,-0.7 7.8,-0.7 7,0 12.5,3.9 12.5,14.6 0,10.3 -2.7,15.2 -13.4,15.2 -3.5,0 -6.9,-0.5 -6.9,-0.5 l 0,-28.6 z m 135.9,35.2 c 0,0 6,1.6 14.4,1.6 8,0 18,-2.7 18,-13.5 0,-7 -5.2,-10.1 -13.7,-13.1 -4.6,-1.7 -8.4,-3.2 -8.4,-6.4 0,-1.5 1.1,-4.4 6.9,-4.4 5.5,0 11.1,2.5 11.1,2.5 l 2.4,-7.2 c -1.6,-0.8 -7,-3.1 -14.4,-3.1 -8,0 -15.8,4.3 -15.8,12.9 0,8.8 8,11.5 14.3,13.6 4.2,1.4 7.8,2.9 7.8,5.7 0,2.8 -1.5,5.2 -8.7,5.2 -5.9,0 -12.2,-1.3 -12.2,-1.3 l -1.7,7.5 z M 341,88.5 c -2.4,1.1 -7.4,3 -12,3 -6.6,0 -7.7,-3 -7.7,-9.9 l 0,-26.2 -1.5,0 c -2.2,0 -7.1,0.4 -8.3,0.6 l 0,26.9 c 0,11.7 2.9,17.3 14.8,17.3 9.1,0 14.5,-3.5 14.8,-3.5 0.2,0 3.3,1.9 9.6,1.9 l 0,-42.6 c -0.7,-0.1 -5.4,-0.6 -7.8,-0.6 l -1.9,0 0,33.1 z M 187.1,55 c -8.7,0 -15.5,2.1 -18.1,3.5 l 2.1,7.2 c 0,0 6.6,-2.4 13.2,-2.4 5.5,0 8.4,1.6 8.4,7.1 l 0,3.2 -8.4,0 c -14.4,0 -18.7,6.6 -18.7,13.8 0,9.7 7.5,12.8 14.4,12.8 8,0 12.6,-3.4 13.2,-3.4 0.4,0 2,1.8 9.3,1.8 l 0,-30.7 C 202.5,58.6 196.8,55 187.1,55 m 5.8,35.1 c -2.1,0.8 -7.1,2.4 -10.8,2.4 -4.1,0 -7.1,-1.4 -7.1,-5.8 0,-3.8 2.1,-6 7.6,-6.2 l 10.3,-0.3 0,9.9 z M 76.4,55 c -8.6,0 -15.4,2.1 -18,3.5 l 2,7.2 c 0,0 6.7,-2.4 13.2,-2.4 5.6,0 8.5,1.6 8.5,7.1 l 0,3.2 -8.5,0 C 59.2,73.6 55,80.2 55,87.4 c 0,9.7 7.5,12.8 14.3,12.8 8,0 12.6,-3.4 13.2,-3.4 0.4,0 2.1,1.8 9.4,1.8 l 0,-30.7 C 91.9,58.6 86.1,55 76.4,55 m 5.8,35.1 c -2.1,0.8 -7.1,2.4 -10.8,2.4 -4,0 -7,-1.4 -7,-5.8 0,-3.8 2,-6 7.6,-6.2 l 10.2,-0.3 0,9.9 z M 130.9,81 c -0.3,0.6 -0.6,1.8 -0.8,2.5 -0.2,-0.7 -0.5,-1.9 -0.7,-2.5 L 120.8,59.1 C 119.4,55.4 117.1,55 113,55 c -1.5,0 -4.4,0.2 -4.4,0.2 l -4.4,44.3 9.7,0 2.2,-29.7 9.2,22.5 c 0.7,1.8 2.1,2.5 4.8,2.5 2.8,0 4.2,-0.7 4.9,-2.5 l 9.2,-22.5 2.1,29.7 9.7,0 -4.4,-44.3 c 0,0 -2.9,-0.2 -4.4,-0.2 -4.1,0 -6.3,0.4 -7.8,4.1 L 130.9,81 Z m 137.6,17.1 c 0,0 7.5,2.1 17,2.1 10.2,0 14.9,-1.2 14.9,-1.2 l 0,-7.5 c 0,0 -5.1,1 -12.2,1 -6.2,0 -10,-0.8 -10,-0.8 l 0,-10.7 19.2,0 0,-7.5 -19.2,0 0,-10.2 c 0,0 3.7,-0.6 9.4,-0.6 6.3,0 12,1 12,1 l 0,-7.6 c 0,0 -5,-1.1 -13.2,-1.1 -10.8,0 -17.9,1.9 -17.9,1.9 l 0,41.2 z"></path> </svg>