 <svg 
   xmlns="http://www.w3.org/2000/svg"
   viewBox="0 0 400.36 159.33"
   height="159.32"
   width="400.36" > 

   <path 
       d="m 331.91,155.29 c -3.71,0 -6.54,-1.37 -8.48,-4.1 -1.95,-2.74 -2.92,-6.09 -2.92,-10.03 0,-4.09 1.03,-7.5 3.08,-10.21 1.79,-2.37 4.15,-3.71 7.08,-4.01 0.42,0 0.85,-0.1 1.29,-0.1 2.93,0 5.28,0.88 7.04,2.63 1.77,1.76 2.86,4.02 3.29,6.8 l -3.77,0.72 c -0.71,-4.45 -2.86,-6.67 -6.44,-6.67 -2.3,0 -4.08,0.98 -5.32,2.94 -1.24,1.97 -1.86,4.51 -1.86,7.63 0,3.44 0.62,6.12 1.85,8.03 1.23,1.9 2.96,2.86 5.2,2.86 3.03,0 5.08,-1.72 6.16,-5.13 0.16,-0.49 0.3,-1.01 0.41,-1.57 l 3.77,0.67 c -0.53,2.97 -1.71,5.3 -3.54,6.98 -1.83,1.68 -4.11,2.52 -6.84,2.52 z m -104.7,0 c -6.38,0 -10.32,-2.57 -11.83,-7.72 l 4,-0.83 c 0.89,3.39 3.7,5.08 8.42,5.08 1.74,0 3.22,-0.39 4.43,-1.17 1.21,-0.78 1.81,-1.88 1.81,-3.3 0,-2.11 -1.54,-3.45 -4.61,-4.01 l -5.67,-1.08 c -2.23,-0.43 -3.99,-1.26 -5.3,-2.51 -1.32,-1.24 -1.97,-2.88 -1.97,-4.93 0,-2.25 0.89,-4.14 2.68,-5.66 1.57,-1.33 3.62,-2.08 6.14,-2.24 0.36,0 0.73,0 1.11,0 5.83,0 9.44,2.28 10.8,6.85 l -3.83,0.82 c -1.1,-2.79 -3.36,-4.19 -6.78,-4.19 -1.71,0 -3.11,0.35 -4.2,1.05 -1.09,0.7 -1.63,1.67 -1.63,2.93 0,1.98 1.39,3.22 4.18,3.73 l 5.24,0.97 c 5.49,0.99 8.23,3.66 8.23,7.98 0,2.47 -1.02,4.47 -3.07,5.99 -2.04,1.52 -4.76,2.28 -8.15,2.28 z m 157.28,0 c -6.38,0 -10.32,-2.57 -11.83,-7.72 l 4,-0.83 c 0.89,3.39 3.69,5.08 8.42,5.08 1.74,0 3.22,-0.39 4.43,-1.17 1.21,-0.78 1.81,-1.88 1.81,-3.3 0,-2.11 -1.54,-3.45 -4.61,-4.01 l -5.67,-1.08 c -2.23,-0.43 -3.99,-1.26 -5.31,-2.51 -1.31,-1.24 -1.96,-2.88 -1.96,-4.93 0,-2.25 0.89,-4.14 2.69,-5.66 1.57,-1.33 3.61,-2.08 6.13,-2.24 0.36,0 0.73,0 1.11,0 5.83,0 9.44,2.28 10.8,6.85 l -3.83,0.82 c -1.1,-2.79 -3.36,-4.19 -6.78,-4.19 -1.71,0 -3.11,0.35 -4.2,1.05 -1.09,0.7 -1.63,1.67 -1.63,2.93 0,1.98 1.39,3.22 4.18,3.73 l 5.24,0.97 c 5.49,0.99 8.23,3.66 8.23,7.98 0,2.47 -1.02,4.47 -3.07,5.99 -2.04,1.52 -4.76,2.28 -8.15,2.28 z m -190.86,0 c -3.65,0 -6.45,-1.74 -8.4,-5.2 l -1.5,4.45 -2.01,0 0,-36.34 4.19,0 0,13.91 c 1.91,-3.49 4.55,-5.23 7.92,-5.23 3.08,0 5.66,1.22 7.75,3.66 2.08,2.43 3.12,5.97 3.12,10.61 0,4 -1.03,7.36 -3.07,10.07 -2.05,2.71 -4.72,4.07 -8,4.07 z m -29.29,0 c -3.68,0 -6.65,-1.3 -8.92,-3.88 -2.27,-2.59 -3.4,-5.98 -3.4,-10.18 0,-4.29 1.18,-7.75 3.54,-10.39 2.35,-2.64 5.32,-3.96 8.88,-3.96 3.52,0 6.34,1.21 8.48,3.64 2.14,2.44 3.23,6.08 3.28,10.92 l -19.53,0 c 0,4.07 0.85,6.82 2.55,8.24 1.7,1.42 3.5,2.13 5.4,2.13 2.99,0 5.21,-1.36 6.66,-4.06 0.21,-0.39 0.4,-0.8 0.57,-1.24 l 3.9,0.8 c -0.71,2.3 -2.1,4.21 -4.15,5.72 -2.06,1.5 -4.48,2.26 -7.26,2.26 z m 88.88,0 c -3.68,0 -6.65,-1.3 -8.92,-3.88 -2.27,-2.59 -3.4,-5.98 -3.4,-10.18 0,-4.29 1.18,-7.75 3.54,-10.39 2.07,-2.31 4.59,-3.61 7.57,-3.9 0.43,0 0.86,-0.1 1.31,-0.1 3.51,0 6.34,1.21 8.48,3.64 2.14,2.44 3.23,6.08 3.28,10.92 l -19.53,0 c 0,4.07 0.85,6.82 2.55,8.24 1.7,1.42 3.5,2.13 5.4,2.13 2.99,0 5.21,-1.36 6.66,-4.06 0.2,-0.39 0.39,-0.8 0.57,-1.24 l 3.9,0.8 c -0.71,2.3 -2.09,4.21 -4.15,5.72 -2.06,1.5 -4.48,2.26 -7.26,2.26 z m 105.21,0 c -3.68,0 -6.65,-1.3 -8.92,-3.88 -2.27,-2.59 -3.4,-5.98 -3.4,-10.18 0,-4.29 1.18,-7.75 3.54,-10.39 2.06,-2.31 4.59,-3.61 7.57,-3.9 0.43,0 0.87,-0.1 1.31,-0.1 3.51,0 6.34,1.21 8.48,3.64 2.14,2.44 3.23,6.08 3.28,10.92 l -19.53,0 c 0,4.07 0.85,6.82 2.55,8.24 1.7,1.42 3.5,2.13 5.4,2.13 2.99,0 5.21,-1.36 6.66,-4.06 0.21,-0.39 0.4,-0.8 0.57,-1.24 l 3.9,0.8 c -0.71,2.3 -2.09,4.21 -4.15,5.72 -2.06,1.5 -4.48,2.26 -7.26,2.26 z m -234.12,-0.75 -8.06,-26.91 4.17,0 5.86,20.06 5.59,-20.06 3.07,0 6.07,20.12 6.03,-20.12 3.38,0 -7.75,26.91 -3.37,0 -6.03,-19.99 -5.53,19.99 -3.43,0 z m 170.92,0 -9.6,-26.91 4.64,0 7.47,21.88 7.41,-21.88 3.72,0 -9.29,26.91 -4.35,0 z m -25.63,0 0,-26.91 3.67,0 0,6.27 c 1.29,-2.94 2.6,-4.84 3.9,-5.71 0.97,-0.65 1.97,-1.06 2.99,-1.23 0.34,0 0.68,-0.1 1.02,-0.1 0.42,0 0.97,0 1.65,0.1 l 0,4 -0.85,0 c -2.31,0 -4.22,0.85 -5.75,2.56 -1.52,1.72 -2.33,3.97 -2.44,6.75 l 0,14.25 -4.19,0 z m 42.82,0 0,-26.91 4.19,0 0,26.91 -4.19,0 z M 193.2,151.88 c 2.13,0 3.85,-0.93 5.15,-2.78 1.31,-1.84 1.96,-4.38 1.96,-7.59 0,-3.47 -0.63,-6.2 -1.89,-8.18 -1.26,-1.98 -3.01,-2.97 -5.24,-2.97 -1.76,0 -3.34,0.7 -4.75,2.11 -1.42,1.42 -2.25,3.24 -2.52,5.47 l 0,6.05 c 0.19,2.76 1.04,4.77 2.54,6.02 1.5,1.24 3.09,1.87 4.75,1.87 z m -138.694,-2.23 -23.065,-8.27 0,-33.81 23.065,7.86 0,34.22 z m 4.23,0 0,-34.22 23.07,-7.86 0,33.81 -23.07,8.27 z m 98.124,-11.33 14.76,0 c 0,-1.51 -0.28,-2.85 -0.75,-4.02 -0.46,-1.17 -1.24,-2.17 -2.34,-3 -1.09,-0.82 -2.41,-1.24 -3.96,-1.24 -2.07,0 -3.83,0.75 -5.27,2.24 -1.45,1.49 -2.26,3.5 -2.44,6.02 z m 88.88,0 14.76,0 c 0,-1.51 -0.28,-2.85 -0.74,-4.02 -0.47,-1.17 -1.25,-2.17 -2.34,-3 -1.1,-0.82 -2.43,-1.24 -3.97,-1.24 -2.07,0 -3.83,0.75 -5.28,2.24 -1.44,1.49 -2.25,3.5 -2.43,6.02 z m 105.21,0 14.76,0 c 0,-1.51 -0.28,-2.85 -0.74,-4.02 -0.47,-1.17 -1.25,-2.17 -2.34,-3 -1.1,-0.82 -2.42,-1.24 -3.97,-1.24 -2.07,0 -3.83,0.75 -5.27,2.24 -1.45,1.49 -2.26,3.5 -2.44,6.02 z m -38.73,-15.47 0,-4.65 4.49,0 0,4.65 -4.49,0 z M 57.156,112.8 l -23.344,-7.76 23.344,-6.575 21.65,6.985 -21.65,7.35 z M 331.7,111.43 c -12.74,0 -19.68,-11.23 -19.68,-25.235 0,-14.09 7.02,-25.04 19.68,-25.04 12.98,0 20,11.24 20,25.52 0,13.805 -7.75,24.755 -20,24.755 z m -203.01,-0.32 c -7.42,0 -13.2,-4.58 -13.2,-13.745 0,-7.16 3.88,-12.02 9.4,-14.41 4.79,-2.1 11.47,-2.48 16.58,-3.05 l 0,-1.15 c 0,-2.1 0.17,-4.58 -1.07,-6.39 -1.07,-1.62 -3.14,-2.29 -4.95,-2.29 -3.36,0 -6.35,1.72 -7.08,5.29 -0.16,0.79 -0.74,1.58 -1.54,1.62 l -8.54,-0.92 c -0.72,-0.17 -1.53,-0.74 -1.32,-1.85 1.97,-10.36 11.33,-13.49 19.72,-13.49 4.29,0 9.89,1.14 13.28,4.39 4.28,4 3.87,9.35 3.87,15.17 l 0,13.73 c 0,4.13 1.72,5.95 3.33,8.175 0.56,0.81 0.69,1.76 0,2.34 -1.8,1.51 -5,4.29 -6.76,5.86 l -0.1,0 c -0.58,0.52 -1.43,0.56 -2.08,0.21 -2.93,-2.44 -3.46,-3.56 -5.06,-5.88 -4.84,4.93 -8.26,6.41 -14.53,6.41 z m 114.57,0 c -7.42,0 -13.2,-4.58 -13.2,-13.745 0,-7.16 3.88,-12.02 9.41,-14.41 4.78,-2.1 11.46,-2.48 16.57,-3.05 l 0,-1.15 c 0,-2.1 0.17,-4.58 -1.07,-6.39 -1.07,-1.62 -3.13,-2.29 -4.95,-2.29 -3.36,0 -6.35,1.72 -7.08,5.29 -0.16,0.79 -0.74,1.58 -1.54,1.62 l -8.54,-0.92 c -0.72,-0.17 -1.52,-0.74 -1.32,-1.85 1.97,-10.36 11.33,-13.49 19.72,-13.49 4.29,0 9.9,1.14 13.28,4.39 4.29,4 3.87,9.35 3.87,15.17 l 0,13.73 c 0,4.13 1.72,5.95 3.33,8.175 0.56,0.81 0.69,1.76 0,2.34 -1.8,1.51 -5,4.29 -6.76,5.86 l -0.1,0 c -0.58,0.52 -1.43,0.56 -2.08,0.21 -2.93,-2.44 -3.46,-3.56 -5.06,-5.88 -4.84,4.93 -8.26,6.41 -14.53,6.41 z m -77.64,-0.63 c -0.83,-0.1 -1.5,-0.69 -1.57,-1.49 l 0,-45.255 c 0,-0.9 0.76,-1.63 1.7,-1.63 l 8.21,0 c 0.86,0 1.55,0.7 1.6,1.52 l 0,5.91 0.17,0 c 2.14,-5.71 6.17,-8.38 11.6,-8.38 5.51,0 8.97,2.67 11.44,8.38 2.14,-5.71 6.99,-8.38 12.18,-8.38 3.7,0 7.73,1.53 10.2,4.95 2.8,3.81 2.22,9.33 2.22,14.19 l 0,28.555 c 0,0.91 -0.76,1.63 -1.7,1.63 l -8.8,0 c -0.89,-0.1 -1.59,-0.76 -1.59,-1.63 l 0,-23.985 c 0,-1.91 0.17,-6.67 -0.24,-8.48 -0.66,-3.04 -2.64,-3.9 -5.19,-3.9 -2.14,0 -4.36,1.43 -5.26,3.71 -0.91,2.29 -0.83,6.1 -0.83,8.67 l 0,23.985 c 0,0.91 -0.76,1.63 -1.7,1.63 l -8.8,0 c -0.89,-0.1 -1.59,-0.76 -1.59,-1.63 l 0,-23.985 c 0,-5.05 0.83,-12.48 -5.43,-12.48 -6.34,0 -6.09,7.24 -6.09,12.48 l 0,23.985 c 0,0.91 -0.76,1.63 -1.7,1.63 l 0,0 -8.82,0 z m 196.11,0 c -0.89,-0.1 -1.58,-0.76 -1.58,-1.63 l 0,-45.265 c 0.1,-0.83 0.8,-1.48 1.69,-1.48 l 8.18,0 c 0.77,0 1.4,0.57 1.56,1.27 l 0,6.92 0.17,0 c 2.47,-6.19 5.92,-9.14 12.01,-9.14 3.95,0 7.82,1.43 10.29,5.33 2.3,3.62 2.3,9.72 2.3,14.1 l 0,28.475 c -0.1,0.8 -0.82,1.42 -1.69,1.42 l -8.84,0 c -0.81,0 -1.47,-0.65 -1.57,-1.43 l 0,-24.565 c 0,-4.95 0.58,-12.19 -5.51,-12.19 -2.14,0 -4.12,1.43 -5.1,3.62 -1.24,2.76 -1.4,5.52 -1.4,8.57 l 0,24.365 c 0,0.91 -0.78,1.63 -1.72,1.63 l 0,0 -8.78,0 z m -83.56,-1.13 c -0.88,0.14 -1.68,-0.8 -1.68,-1.63 l 0,-6.55 c 0,-1.05 0,-2.855 1.08,-4.455 l 17.39,-24.95 -15.15,0 c -0.92,0 -1.66,-0.66 -1.67,-1.63 l 0,0 0,-6.47 c 0,-0.98 0.75,-1.63 1.64,-1.63 l 28.98,0 c 0.92,0 1.67,0.67 1.67,1.63 l 0,5.54 c 0,0.93 -0.79,2.15 -2.18,4.07 l -15.01,21.43 c 5.57,-0.13 11.46,0.71 16.52,3.55 1.14,0.64 1.45,1.59 1.54,2.535 l 0,6.89 c 0,0.96 -1.04,2.05 -2.13,1.48 -8.92,-4.67 -20.76,-5.18 -30.62,0.1 -0.13,0.1 -0.25,0.11 -0.38,0.13 z M 27.046,102.42 3.9822,94.145 l 0,-33.81 23.0638,7.86 0,34.225 z m 4.231,0 0,-34.225 23.069,-7.86 0,33.81 -23.069,8.275 z m 49.589,0 -23.07,-8.275 0,-33.81 23.07,7.86 0,34.225 z m 4.23,0 0,-34.225 23.074,-7.86 0,33.81 -23.074,8.275 z m 48.624,-0.18 c 2.47,0 4.7,-1.53 6.1,-4.015 1.75,-3.06 1.65,-5.92 1.65,-9.35 l 0,-1.91 c -6.38,0 -13.11,1.36 -13.11,8.87 0,3.82 1.98,6.405 5.36,6.405 z m 114.57,0 c 2.47,0 4.7,-1.53 6.1,-4.015 1.75,-3.06 1.65,-5.92 1.65,-9.35 l 0,-1.91 c -6.38,0 -13.11,1.36 -13.11,8.87 0,3.82 1.98,6.405 5.36,6.405 z m 83.43,-0.14 c 6.77,0 7.1,-8.355 7.1,-14.165 0,-3.81 -0.16,-8.38 -1.31,-12 -0.98,-3.14 -2.94,-4.38 -5.71,-4.38 -6.45,0 -6.86,8.85 -6.86,14.38 0,5.52 -0.1,16.165 6.78,16.165 z M 29.696,65.565 6.3532,57.805 l 23.3428,-6.57 21.65,6.98 -21.65,7.35 z m 53.82,0 -23.34,-7.76 23.34,-6.57 21.654,6.98 -21.654,7.35 z m 24.814,-10.38 -23.064,-8.27 0,-33.81 23.064,7.86 0,34.22 z m 4.23,0 0,-34.22 23.07,-7.86 0,33.81 -23.07,8.27 z m 49.59,0 -23.07,-8.27 0,-33.81 23.07,7.86 0,34.22 z m 4.23,0 0,-34.22 23.07,-7.86 0,33.81 -23.07,8.27 z m -55.4,-36.85 -23.344,-7.76 23.344,-6.5746 21.65,6.9846 -21.65,7.35 z m 53.82,0 -23.34,-7.76 23.34,-6.5746 21.65,6.9846 -21.65,7.35 z" /></svg>