<?xml version="1.0"?>

<svg xmlns="http://www.w3.org/2000/svg" viewBox="0 0 492.6 198.7" height="198.7" width="492.6">
   <path d="m 393.8,63.75 0,-19.4 c -0.1,-3.3 -1.1,-4.9 -4.5,-4.9 l -3.5,0 0,6 2.7,0 0,26.2 1.6,0 c 3.4,0 3.7,-2.6 3.7,-2.6 0,0 0.3,2.6 3.5,2.6 l 25,0 c 4.7,0 4.8,-5.2 4.8,-5.2 0,0 -28.4,0 -31,0 -1.4,0 -2.3,-1.2 -2.3,-2.7 m 28.7,-25.6 2,22.2 3.6,0 -2.2,-22.5 -3.4,0.3 m -18,-4.5 -4.3,5.4 0,5 -3.9,0 0,4.9 3.9,0 0,9.1 c 0,0.7 -0.4,1.1 -1.2,1 l -2.7,0 0,5.4 3.7,0 c 3,0 4.5,-1.5 4.5,-4.5 l 0,-11 2.9,0 0,-4.9 -2.9,0 0,-2.7 5,-7.3 c 1.7,-2.7 0.6,-5.4 -3.2,-5.4 l -10.4,0 0,5 8.6,0 m -42.5,14 -22.3,0 3,-9.4 -5,0 -2.8,7.6 c -1.2,4.2 0.3,6.9 4,6.9 l 25.4,0 c 2.3,0 3.4,1.1 3.4,3.2 l 0,9.4 c 0,0.7 -0.3,1.1 -1.1,1.1 l -23.5,0 0,5.2 c 0,0 14.9,0 23.9,0 4,0 5.9,-1.3 6,-5.2 l 0,-12.5 c 0,-4.2 -1.9,-6.3 -5.8,-6.3 l 3.7,-13.7 c 0.8,-3.1 -0.4,-5.3 -4,-5.3 l -33.4,0 0,5.3 32.2,0 -3.7,13.7 m 27.1,-13.2 c 0.8,0 1.5,-0.3 2.2,-1 0.6,-0.6 0.9,-1.3 0.9,-2.2 0,-0.8 -0.3,-1.5 -0.9,-2.1 -0.7,-0.6 -1.4,-1 -2.2,-1 -0.9,0 -1.6,0.4 -2.2,1 -0.7,0.6 -1,1.3 -1,2.1 0,0.9 0.3,1.6 1,2.2 0.6,0.7 1.3,1 2.2,1 m 23.2,25.9 1.7,-22 -3.3,-0.1 -2.3,22.1 3.9,0 m 8.4,-0.2 0,-31.4 -5.3,0 0,35.8 1.2,0 c 2.7,0 4.1,-1.5 4.1,-4.4 m -121.8,6.3 -5.2,0 0,-32.5 2.4,0 c 2.6,0 2.8,0.4 2.8,3.1 l 0,29.4 z m 18.9,2.8 0,-2.8 -13.7,0 0,-32.5 13.2,0 0,-5.3 -41.6,0 0,5.3 8.6,0 c 3.4,0 4.2,0.4 4.2,3.1 l 0,29.4 -13.7,0 0,5.2 39.9,0 c 2.1,0 3.1,-0.8 3.1,-2.4 m -36.1,-29.4 -5.2,0 2.4,21.6 5.2,0 -2.4,-21.6 m 29.6,21.6 c 1.6,0 2.7,-0.9 3.1,-2.6 l 2.3,-19 -5.3,0 -3,21.6 2.9,0 m 51.2,-2.7 0,-1.6 -31.5,0 0,5.2 26.5,0 c 3.3,0 5,-1.2 5,-3.6 m 65.3,35.26 -5.5,11.69 c -0.7,1.6 -2.6,2.3 -4.2,1.6 0,0 -10.7,-4.7 -16.5,-4.7 -6,0 -10,3.2 -10,8.1 0,4.2 2.6,6.4 9.8,8.4 l 6.6,1.7 c 1.6,0.5 4.3,1.4 5.9,2.1 0,0 10,4.4 12.8,8.1 2.9,3.9 4.3,8.6 4.3,14.1 0,17.1 -13.5,28.8 -33.7,28.8 -9.7,0 -20.4,-3.3 -32,-9.6 l 6.1,-13 c 0.8,-1.5 2.6,-2.1 4.1,-1.3 0,0 14.5,7.9 23.5,7.9 5.8,0 10.4,-4.1 10.4,-9.4 0,-5.7 -3.8,-8.6 -12.1,-10.2 l -6.2,-1.2 c -1.7,-0.3 -4.4,-1.1 -6,-1.8 0,0 -8.8,-3.6 -11.6,-7.2 -2.7,-3.5 -4.4,-9.5 -4.4,-14.9 0,-16.12 12.1,-26.95 30.5,-26.95 12.6,0 21,4.04 28.2,7.76 M 279.1,171.5 c -1.7,0 -3.5,-1.4 -4,-3.1 L 254.3,93.81 c -0.5,-1.66 0.5,-3.18 2.2,-3.37 l 15.3,-1.73 c 1.7,-0.2 3.4,1.02 3.7,2.7 l 5.5,25.29 c 0.3,1.7 0.9,4.5 1.3,6.2 0,0 1.3,6.5 2.1,11.3 0.8,4.8 1.4,8.5 1.9,11.2 0.3,-2.5 0.9,-6.5 2,-11.9 1,-5.5 2.3,-11.1 4,-16.8 l 6.8,-24.31 c 0.5,-1.65 2.3,-3.01 4,-3.01 l 14,0 c 1.7,0 3.5,1.37 3.9,3.04 l 5.1,20.78 c 0.4,1.7 1.1,4.4 1.5,6.1 0,0 1.9,8.1 3,13.9 1.2,5.8 2,9.9 2.4,12.2 0,-0.4 0.2,-1.7 0.5,-4 0.3,-2.3 0.6,-4.3 0.9,-6 0.2,-1.7 0.7,-4.2 1.2,-7.5 0.6,-3.2 1.2,-6.4 1.8,-9.4 l 5.7,-26.06 c 0.4,-1.68 2.1,-3.06 3.8,-3.06 l 16,0 c 1.7,0 2.7,1.35 2.2,3.01 l -21.8,76.11 c -0.4,1.6 -2.2,3 -3.9,3 l -13.6,0 c -1.7,0 -3.5,-1.4 -3.9,-3.1 l -5.8,-22.2 c -0.5,-1.7 -1.2,-4.4 -1.6,-6.1 0,0 -2.7,-11.3 -3.9,-16.9 -0.4,-2.4 -0.8,-5.2 -1.3,-8.3 -0.4,3.2 -1,6.7 -1.9,10.6 -0.8,3.7 -1.8,7.8 -2.8,12.2 -1.1,4.5 -2.1,8.3 -2.9,11.5 -0.8,3.1 -1.3,4.9 -1.4,5.4 l -3.4,13.8 c -0.5,1.7 -2.2,3.1 -3.9,3.1 l -13.9,0 M 217.9,84.92 c -14.5,0 -30.7,5.42 -34.1,23.38 -0.4,1.9 1,2.9 2.2,3.2 l 14.8,1.6 c 1.4,-0.1 2.4,-1.5 2.7,-2.8 1.3,-6.2 6.4,-9.2 12.2,-9.2 3.2,0 6.8,1.2 8.6,4 2.2,3.1 1.9,7.4 1.9,11 l 0,2 c -8.9,1 -20.4,1.7 -28.7,5.3 -9.6,4.1 -16.3,12.6 -16.3,25 0,15.8 10,23.8 22.8,23.8 10.9,0 16.8,-2.6 25.2,-11.1 2.8,4 3.7,5.9 8.8,10.1 1.1,0.6 2.6,0.6 3.6,-0.3 l 0,0 c 3,-2.7 8.6,-7.5 11.7,-10.1 1.2,-1 1,-2.7 0.1,-4.1 -2.8,-3.8 -5.8,-7 -5.8,-14.1 l 0,-23.8 c 0,-10.1 0.7,-19.34 -6.7,-26.3 -5.9,-5.61 -15.6,-7.58 -23,-7.58 z m 8.3,45.48 0,3.3 c 0,5.9 0.1,10.9 -2.9,16.2 -2.4,4.3 -6.3,6.9 -10.6,6.9 -5.8,0 -9.2,-4.5 -9.2,-11.1 0,-13 11.6,-15.3 22.7,-15.3 z m -87.8,-2.8 -21.5,-6.5 -21.58,6.5 21.58,7 21.5,-7 m -18.8,11.2 23.4,-7.4 c 0,6 -0.1,31 -0.1,33.1 -1.8,0.7 -17.8,5.7 -23.3,7.8 l 0,-33.5 m -5.4,0 -23.44,-7.4 c 0,6 0.1,31 0.1,33.1 1.78,0.7 17.74,5.6 23.24,7.8 l 0.1,-33.5 m -4.9,-59.23 -21.55,-6.52 -21.57,6.51 21.6,7 21.52,-6.99 M 90.42,90.79 113.8,83.31 c 0,6.02 0,31.09 0,33.09 -1.8,0.7 -17.81,5.7 -23.35,7.9 l 0,-33.51 m -5.41,0 L 61.6,83.3 c 0,6.02 0.1,31 0.1,33.1 1.78,0.7 17.76,5.7 23.3,7.9 l 0,-33.53 m 82.6,-11.2 -21.5,-6.52 -21.6,6.51 21.6,7 21.5,-6.99 m -18.8,11.22 23.4,-7.48 c 0,6.02 -0.1,31.09 -0.1,33.09 -1.8,0.7 -17.7,5.7 -23.3,7.9 l 0,-33.51 m -5.4,0 L 120,83.3 c 0,6.02 0,31.1 0,33.1 1.8,0.7 17.8,5.7 23.3,7.9 l 0.1,-33.53 m 53.1,-60.22 -21.5,-5.7 -21.6,5.7 21.6,7 21.5,-7 m -18.8,11.2 23.4,-7.4 c -0.1,6 -0.1,31 -0.1,33.1 -1.8,0.7 -17.8,5.7 -23.3,7.84 l 0,-33.54 m -5.4,0 -23.5,-7.5 c 0.1,6.1 0.1,31.9 0.1,34 1.8,0.7 17.8,5.69 23.3,7.88 l 0.1,-34.38 m 81.7,-11.2 -21.5,-5.7 -21.6,5.7 21.6,7 21.5,-7 m -18.8,11.2 23.4,-7.4 c -0.1,6 -0.1,31 -0.1,33.1 -1.8,0.7 -17.8,5.7 -23.3,7.84 l 0,-33.54 m -5.4,0 -23.5,-7.5 c 0.1,6.1 0.1,31.1 0.1,33.2 1.8,0.7 17.8,5.6 23.3,7.83 l 0.1,-33.53"></path></svg>