 <svg   
   viewBox="0 0 640 196"  height="132"  width="132"   xmlns="http://www.w3.org/2000/svg" >
 
  <path
     d="m 62.008,66.59 0,-4.04 C 48.53,62.55 34.3,65.43 34.3,81.32 c 0,8.05 4.17,13.5 11.32,13.5 5.25,0 9.94,-3.22 12.9,-8.46 3.672,-6.45 3.488,-12.51 3.488,-19.77 m 18.798,45.43 c -1.232,1.1 -3.015,1.18 -4.405,0.45 -6.187,-5.14 -7.288,-7.53 -10.696,-12.43 C 55.48,110.48 48.24,113.6 34.98,113.6 19.3,113.6 7.08,103.92 7.08,84.55 7.08,69.42 15.29,59.12 26.96,54.08 37.08,49.63 51.21,48.84 62.008,47.61 l 0,-2.41 c 0,-4.44 0.341,-9.68 -2.254,-13.51 -2.284,-3.43 -6.634,-4.85 -10.464,-4.85 -7.1,0 -13.45,3.65 -14.99,11.2 -0.32,1.68 -1.55,3.33 -3.23,3.41 L 12.98,39.51 C 11.46,39.17 9.78,37.93 10.2,35.6 14.37,13.68 34.17,7.08 51.89,7.08 c 9.07,0 20.92,2.41 28.077,9.28 9.071,8.46 8.206,19.76 8.206,32.06 l 0,29.05 c 0,8.73 3.618,12.56 7.026,17.28 1.206,1.67 1.468,3.69 -0.05,4.95 -3.801,3.17 -10.565,9.07 -14.288,12.37 l -0.05,0 m 225.569,-45.48 0,-4.04 c -13.51,0 -27.74,2.88 -27.74,18.77 0,8.05 4.19,13.5 11.35,13.5 5.22,0 9.94,-3.22 12.9,-8.46 3.67,-6.45 3.49,-12.51 3.49,-19.77 m 18.79,45.43 c -1.23,1.1 -3.01,1.18 -4.4,0.45 -6.19,-5.14 -7.32,-7.53 -10.7,-12.43 -10.22,10.44 -17.48,13.56 -30.72,13.56 -15.71,0 -27.9,-9.68 -27.9,-29.05 0,-15.13 8.18,-25.43 19.87,-30.47 10.12,-4.45 24.25,-5.24 35.06,-6.47 l 0,-2.41 c 0,-4.44 0.34,-9.68 -2.29,-13.51 -2.25,-3.43 -6.6,-4.85 -10.46,-4.85 -7.1,0 -13.42,3.65 -14.97,11.2 -0.31,1.68 -1.54,3.33 -3.25,3.41 l -18.06,-1.94 c -1.52,-0.34 -3.23,-1.58 -2.78,-3.91 4.14,-21.92 23.96,-28.52 41.69,-28.52 9.07,0 20.92,2.41 28.07,9.28 9.08,8.46 8.21,19.76 8.21,32.06 l 0,29.05 c 0,8.73 3.62,12.56 7.03,17.28 1.18,1.67 1.44,3.69 -0.1,4.95 -3.8,3.17 -10.57,9.07 -14.29,12.37 l 0,0 m 229.55,0.21 -18.56,0 c -1.87,-0.13 -3.36,-1.62 -3.36,-3.46 l 0,-95.69 c 0.16,-1.75 1.71,-3.12 3.6,-3.12 l 17.27,0 c 1.63,0.1 2.97,1.18 3.33,2.68 l 0,14.63 0.34,0 c 5.22,-13.09 12.53,-19.33 25.41,-19.33 8.36,0 16.51,3.02 21.76,11.28 4.87,7.65 4.87,20.52 4.87,29.78 l 0,60.22 c -0.21,1.68 -1.75,3.01 -3.59,3.01 l -18.69,0 c -1.7,-0.13 -3.12,-1.39 -3.3,-3.01 l 0,-51.96 c 0,-10.46 1.2,-25.77 -11.67,-25.77 -4.54,0 -8.7,3.04 -10.78,7.65 -2.62,5.85 -2.96,11.67 -2.96,18.12 l 0,51.51 c 0,1.92 -1.65,3.46 -3.64,3.46 M 476.23,7.99 c 27.66,0 42.63,23.76 42.63,53.96 0,29.18 -16.54,52.33 -42.63,52.33 -27.16,0 -41.94,-23.76 -41.94,-53.35 0,-29.79 14.97,-52.94 41.94,-52.94 m 0.16,19.54 c -13.74,0 -14.6,18.71 -14.6,30.38 0,11.69 -0.18,36.65 14.44,36.65 14.45,0 15.13,-20.13 15.13,-32.4 0,-8.08 -0.34,-17.72 -2.78,-25.38 -2.09,-6.66 -6.26,-9.25 -12.19,-9.25 m -344.67,84.75 -18.64,0 c -1.78,-0.13 -3.2,-1.46 -3.33,-3.17 l 0,-95.66 c 0,-1.92 1.6,-3.44 3.59,-3.44 l 17.38,0 c 1.81,0.1 3.25,1.47 3.38,3.2 l 0,12.51 0.34,0 c 4.54,-12.09 13.06,-17.73 24.54,-17.73 11.67,0 18.96,5.64 24.2,17.73 4.51,-12.09 14.76,-17.73 25.75,-17.73 7.81,0 16.36,3.23 21.57,10.46 5.9,8.05 4.7,19.75 4.7,30 l 0,60.37 c 0,1.92 -1.6,3.46 -3.6,3.46 l -18.61,0 c -1.86,-0.13 -3.36,-1.62 -3.36,-3.46 l 0,-50.7 c 0,-4.04 0.37,-14.1 -0.52,-17.93 -1.39,-6.43 -5.56,-8.23 -10.96,-8.23 -4.51,0 -9.23,3.01 -11.14,7.83 -1.91,4.83 -1.73,12.9 -1.73,18.33 l 0,50.7 c 0,1.92 -1.6,3.46 -3.59,3.46 l -18.61,0 c -1.89,-0.13 -3.36,-1.62 -3.36,-3.46 l 0,-50.7 c 0,-10.67 1.75,-26.37 -11.49,-26.37 -13.39,0 -12.87,15.31 -12.87,26.37 l 0,50.7 c 0,1.92 -1.6,3.46 -3.59,3.46 m 223.45,-85.38 0,-13.69 c 0,-2.07 1.57,-3.46 3.46,-3.46 l 61.27,0 c 1.96,0 3.54,1.42 3.54,3.46 l 0,11.72 c 0,1.97 -1.68,4.54 -4.62,8.6 l -31.75,45.33 c 11.8,-0.29 24.25,1.47 34.95,7.5 2.41,1.36 3.07,3.35 3.25,5.32 l 0,14.6 c 0,1.99 -2.2,4.33 -4.51,3.12 -18.85,-9.88 -43.89,-10.96 -64.73,0.11 -2.12,1.15 -4.35,-1.16 -4.35,-3.15 l 0,-13.87 c 0,-2.23 0,-6.03 2.26,-9.41 l 36.78,-52.75 -32.01,0 c -1.97,0 -3.54,-1.39 -3.54,-3.43 m 40.06,105.47 c -4.46,-5.72 -29.58,-2.7 -40.85,-1.37 -3.43,0.42 -3.96,-2.57 -0.86,-4.72 20,-14.07 52.82,-10.01 56.65,-5.29 3.83,4.74 -1,37.65 -19.79,53.35 -2.89,2.41 -5.64,1.13 -4.36,-2.07 4.23,-10.54 13.69,-34.16 9.21,-39.9 m -14.55,16.64 c 5.79,-4.3 0.84,-10.69 -5.09,-8.18 -39.22,16.65 -81.87,24.67 -120.65,24.67 -57.49,0 -113.15,-15.75 -158.166,-41.94 -3.932,-2.31 -6.869,1.73 -3.591,4.69 41.707,37.67 96.847,60.33 158.087,60.33 43.68,0 94.41,-13.77 129.41,-39.57 z"  />
</svg>
