<?xml version="1.0"?>
<!--?xml version="1.0" encoding="UTF-8" standalone="no"?-->
<svg xmlns:dc="http://purl.org/dc/elements/1.1/" xmlns:cc="http://creativecommons.org/ns#" xmlns:rdf="http://www.w3.org/1999/02/22-rdf-syntax-ns#" xmlns:svg="http://www.w3.org/2000/svg" xmlns="http://www.w3.org/2000/svg" viewBox="0 0 343.07 89.425" version="1.1" id="svg2" height="89.425" width="343.07">
  <defs id="defs4"></defs>
  <path d="m 170.54,40.2 h -0.12 l -3.59,10.137 h 7.26 z m 6.43,18.137 -1.77,-4.987 h -9.38 l -1.76,4.987 h -4.02 l 8.42,-22.175 h 4.47 l 8.29,22.175 z M 211,35.262 h 3.92 v 3.713 H 211 Z m 0,6.175 h 3.83 v 16.9 h -3.84 z m -28.31,-6.175 h 3.93 v 3.713 h -3.93 z m 0,6.175 h 3.84 v 16.9 h -3.84 z m 24.08,-6.15 h -3.83 v 23.05 h 3.83 z M 194.56,50.1 v 8.237 h -3.86 v -12.55 c 0,-1.212 -0.13,-3.512 -0.18,-4.337 h 3.1 c 0.33,0 0.44,0.137 0.44,0.462 v 2.1 h 0.12 c 0.3,-0.737 1.39,-2.925 4.57,-2.925 1.07,0 1.86,0.35 1.99,0.4 0,0.725 -0.12,2.325 -0.12,2.75 0,0.275 -0.15,0.363 -0.28,0.363 -0.14,0 -0.2,0 -0.26,-0.125 -0.24,-0.125 -0.8,-0.263 -1.58,-0.263 -2.05,0 -3.96,1.475 -3.96,5.825 m 34.91,8.238 V 47.362 c 0,-2.087 -0.95,-3.35 -2.72,-3.35 -2.36,0 -3.92,2.513 -3.92,5.888 v 8.375 h -3.84 V 45.862 c 0,-1.362 -0.13,-3.362 -0.19,-4.475 h 3.08 c 0.35,0 0.45,0.138 0.45,0.45 v 2.113 h 0.12 c 0.46,-0.8 1.64,-2.925 5.18,-2.925 3.63,0 5.67,2.487 5.67,5.287 v 11.963 z m 10.62,-10.188 h 7.1 c 0.15,-2.725 -1.29,-4.25 -3.44,-4.25 -2.26,0 -3.56,1.638 -3.66,4.25 m 9.46,6.475 c 0.21,0 0.28,0.188 0.29,0.375 0.12,0.725 0.14,2.35 0.12,2.763 -0.41,0.137 -2.47,0.9 -5.23,0.9 -5.39,0 -8.62,-2.788 -8.62,-8.775 0,-5.138 2.75,-8.8 7.71,-8.8 4.87,0 7.19,3.262 7.19,7.3 0,0.475 0,1.275 -0.13,2.35 h -10.84 c 0,2.875 1.85,4.95 5.24,4.95 1.87,0 3.36,-0.675 3.95,-0.963 0.12,0 0.18,-0.125 0.32,-0.125 m 8.99,4.038 c 4.99,0 7.37,-2.05 7.37,-5.075 0,-2.988 -2.12,-4.25 -4.37,-4.988 -0.64,-0.212 -1.28,-0.425 -1.86,-0.625 -1.54,-0.5 -2.34,-1.175 -2.34,-2.175 0,-1.05 0.96,-1.787 2.96,-1.787 1.78,0 3.23,0.725 3.8,1 0.13,0 0.17,0.125 0.32,0.125 0.13,0 0.28,-0.125 0.31,-0.363 0,-0.575 0.12,-1.6 0.12,-2.587 -0.47,-0.213 -2.15,-1.075 -4.85,-1.075 -4.12,0 -6.66,2.15 -6.66,4.975 0,2.75 1.88,4 3.95,4.687 0.47,0.163 1.35,0.45 1.87,0.625 2.15,0.713 2.76,1.363 2.76,2.375 0,1.313 -1.4,1.963 -3.81,1.963 -1.97,0 -3.33,-0.725 -3.87,-0.988 -0.13,0 -0.18,-0.125 -0.34,-0.125 -0.27,0 -0.29,0.375 -0.29,0.438 0,0.187 -0.12,1.937 -0.12,2.512 0.45,0.2 2.41,1.088 5.03,1.088 M 32.5,40.112 h -0.12 l -3.6,10.138 h 7.25 z m 6.43,18.138 -1.76,-4.988 h -9.4 L 26.02,58.25 H 22 l 8.42,-22.188 h 4.46 l 8.29,22.188 z m 62.65,-23.075 h 3.92 v 3.712 h -3.92 z m 0,6.175 h 3.84 v 16.987 h -3.84 z m -8.23,8.662 V 58.25 H 89.52 V 45.7 c 0,-1.213 -0.14,-3.513 -0.19,-4.35 h 3.09 c 0.33,0 0.44,0.15 0.44,0.475 v 2.1 h 0.12 C 93.28,43.187 94.37,41 97.55,41 c 1.07,0 1.87,0.35 1.99,0.4 0,0.725 -0.12,2.325 -0.12,2.75 0,0.275 -0.15,0.362 -0.29,0.362 -0.14,0 -0.2,0 -0.26,-0.125 -0.25,-0.125 -0.8,-0.275 -1.58,-0.275 -2.04,0 -3.96,1.488 -3.96,5.838 M 65,58.187 V 47.375 c 0,-1.95 -0.81,-3.45 -2.8,-3.45 -2.23,0 -3.53,2.437 -3.53,5.875 v 8.387 h -3.83 v -10.85 c 0,-1.762 -0.74,-3.412 -2.8,-3.412 -2.26,0 -3.54,2.437 -3.54,6 v 8.262 H 44.67 V 45.875 c 0,-1.588 -0.14,-3.825 -0.19,-4.588 h 3.06 c 0.35,0 0.46,0.125 0.48,0.475 v 2.1 h 0.12 c 0.24,-0.487 1.5,-2.925 5.03,-2.925 3.27,0 4.52,2.35 4.83,3.075 0.3,-0.637 1.77,-3.075 5.07,-3.075 3.43,0 5.78,1.85 5.78,5.55 v 11.7 z M 75.62,48 h 7.1 c 0.15,-2.725 -1.28,-4.25 -3.44,-4.25 -2.26,0 -3.55,1.637 -3.66,4.25 m 9.46,6.475 c 0.21,0 0.27,0.187 0.29,0.375 0.12,0.725 0.13,2.35 0.12,2.762 -0.41,0.138 -2.47,0.9 -5.24,0.9 -5.38,0 -8.61,-2.787 -8.61,-8.775 0,-5.137 2.75,-8.8 7.72,-8.8 4.86,0 7.18,3.263 7.18,7.3 0,0.475 0,1.275 -0.14,2.338 H 75.58 c 0,2.887 1.84,4.962 5.22,4.962 1.88,0 3.37,-0.675 3.97,-0.962 0.12,0 0.17,-0.125 0.32,-0.125 m 48.09,-4.863 h -0.65 c -4.81,0 -5.76,1.675 -5.76,3.375 0,1.388 0.91,2.713 2.71,2.713 2.4,0 3.7,-2.313 3.7,-4.738 z m 0.93,8.575 c -0.31,0 -0.57,-0.125 -0.61,-0.55 0,-0.55 -0.12,-1.625 -0.12,-1.625 v 0 c -0.23,0.313 -1.63,2.5 -5.14,2.5 -3.36,0 -5.29,-2.6 -5.29,-5.437 0,-3.95 3.83,-5.925 9.52,-5.925 h 0.75 V 46.5 c 0,-1.763 -1.27,-2.713 -3.61,-2.713 -2.12,0 -3.88,0.738 -4.56,1.088 0,0 -0.17,0.125 -0.28,0.125 -0.19,0 -0.29,-0.125 -0.3,-0.313 0,-0.637 -0.13,-1.862 -0.13,-2.637 0.7,-0.263 2.99,-1.113 5.51,-1.113 5.03,0 7.18,2.325 7.18,6.05 v 6.588 c 0,2.4 0.22,3.975 0.31,4.612 z M 120.86,54.45 c 0.12,0 0.25,0 0.27,0.362 0.12,0.8 0.12,2.125 0.12,2.538 -0.76,0.375 -2.42,1.137 -4.46,1.137 -5.11,0 -8.25,-2.975 -8.25,-8.787 0,-5.438 2.79,-8.788 8.25,-8.788 1.82,0 3.49,0.638 4.46,1.138 0,0.6 -0.12,1.962 -0.12,2.537 0,0.238 -0.13,0.35 -0.27,0.35 -0.16,0 -0.21,0 -0.31,-0.125 -1.22,-0.6 -2.38,-0.9 -3.43,-0.9 -3.25,0 -4.6,2.138 -4.6,5.738 0,3.212 1.07,5.725 4.6,5.725 1.35,0 2.57,-0.475 3.33,-0.838 0.22,-0.125 0.24,-0.137 0.41,-0.137 m 29.97,3.712 V 47.2 c 0,-2.088 -0.95,-3.35 -2.72,-3.35 -2.37,0 -3.94,2.5 -3.94,5.887 v 8.375 h -3.83 V 45.7 c 0,-1.363 -0.12,-3.363 -0.18,-4.488 h 3.07 c 0.35,0 0.45,0.15 0.45,0.463 v 2.112 h 0.13 c 0.46,-0.8 1.65,-2.925 5.17,-2.925 3.65,0 5.69,2.488 5.69,5.288 v 11.962 z m 168.62,7.263 0.47,1.637 v 0 l 0.46,-1.637 h 0.39 l 0.3,2.05 h -0.3 l -0.23,-1.675 v 0 l -0.47,1.675 h -0.34 l -0.46,-1.663 v 0 l -0.21,1.663 h -0.29 l 0.3,-2.05 z m -0.96,0 v 0.262 h -0.61 v 1.788 h -0.3 v -1.788 h -0.6 V 65.375 Z M 269.18,22 l 9.49,15.537 c 1.36,2.063 2.46,2.65 5.96,2.65 h 8.55 C 285.28,30.325 281.54,25.275 280.32,24.15 279.23,23.087 278.14,22 275.48,22 Z m 26.34,19 c -3.9,0 -7.69,0.387 -9.58,1.287 -1.61,0.863 -2.04,1.4 -2.04,2.388 0,0.9 0.17,1.662 0.73,2.55 l 4.69,7.75 c 0,0 -0.33,-0.913 -0.33,-1.95 0,-4.913 5.35,-8.15 12.04,-8.15 2.1,0 3,0.362 3,0.362 C 303.38,43.037 301.86,41 295.52,41 Z m 2.48,5.15 c -1.92,0.362 -3.62,1.062 -4.89,2.075 -1.93,1.512 -3,3.65 -2.79,6.675 v 0 0 c 0,0.3 0.14,1.15 0.29,1.837 0.12,0.275 0.12,0.288 0.12,0.5 l 3.8,6.325 c 1.61,2.588 4.27,3.775 7.6,3.775 h 13.4 L 299.83,48.3 Z" id="path4373"></path>
  <metadata id="metadata4351">
    <rdf:rdf>
      <cc:work rdf:about="">
        <dc:title></dc:title>
      </cc:work>
    </rdf:rdf>
  </metadata>
</svg>
