<?xml version="1.0"?>

<svg xmlns="http://www.w3.org/2000/svg" viewBox="0 0 581.4 155.2" width="581.4" height="155.2">

  <path d="m 449.7,50.22 c 2.3,-2.39 6,-1.16 8.7,-0.47 -0.1,26.14 0.1,52.25 0,78.45 -0.3,3.4 -4.9,1.6 -7.2,2.2 -0.4,-0.4 -1.2,-1 -1.7,-1.4 0.2,-26.2 -0.2,-52.52 0.2,-78.78 z m -66.9,-2.68 c 10.2,-1.8 21.2,-0.62 30.3,4.7 11,6.19 18.9,17.39 21.2,29.8 1.1,8.15 0.7,16.74 -2.6,24.36 -5.9,14.2 -19.8,24.9 -35.2,26.5 -10.2,1.1 -21,-1.5 -29.4,-7.5 -9.3,-6.3 -15.7,-16.4 -17.9,-27.35 -2.3,-10.44 0.1,-21.55 5.5,-30.68 6.1,-10.07 16.5,-17.56 28.1,-19.83 m 1.1,8.09 c -17.2,3.64 -29.8,21.61 -27,38.98 1.3,8.89 6,17.29 13.2,22.79 8.2,7.1 20.1,9 30.4,6.5 6.4,-2.2 12.6,-5.4 17.2,-10.6 6.1,-6.7 9.5,-15.97 9.1,-25.11 -0.6,-12 -7.7,-23.5 -18.4,-29.12 -7.4,-4.29 -16.3,-5.11 -24.5,-3.44 z m -72.7,27.44 c 0.2,-19.64 18.3,-37.47 38.1,-36.22 0.1,2.35 0.5,4.75 -0.1,7.07 -1.9,1.49 -4.5,0.93 -6.7,1.53 -8.9,1.79 -16.6,8.14 -20.5,16.33 -3.9,7.49 -2.9,16.2 -3,24.35 -0.2,11.57 0.2,23.07 -0.2,34.67 -2.2,1.7 -5.1,1 -7.5,0.5 -0.1,-16.1 0,-32.17 -0.1,-48.23 z M 138.6,55.31 c 13.5,-11.44 35.2,-11.46 48.6,0 8.9,7.17 14.3,18.42 14.2,29.83 0,15.36 0,30.66 0,46.06 -2.6,0.8 -5.4,0.8 -8,0 -0.1,-16 0.1,-32.09 -0.1,-48.13 C 192.5,67.45 178,54.11 162.4,54.85 146.7,54.69 132.9,68.5 132.5,84.08 c -0.2,15.72 -0.1,31.42 -0.1,47.22 -2.6,0.6 -5.3,0.7 -8,-0.1 0,-15 0.1,-30.1 0,-45.12 -0.2,-11.7 5.1,-23.41 14.2,-30.77 z m -81,-7.99 c 9.25,-1.31 19.04,-0.46 27.4,3.96 6.41,3.09 11.64,8.05 16.1,13.5 0.2,-5.64 -0.1,-11.28 0.2,-16.91 2.5,-0.1 4.9,-0.1 7.3,0 0.4,27.77 0.2,55.53 0.1,83.33 -2.5,0.7 -5,0.8 -7.5,0.1 0,-5.5 0,-11 0,-16.5 -6.89,8.3 -15.91,15.6 -26.76,17.5 -9.53,2 -19.61,0.4 -28.34,-3.8 C 33.54,122.4 24.42,109.9 22.38,96.13 21.44,88.11 22.16,79.76 25.66,72.4 31.24,59.39 43.67,49.7 57.6,47.32 m 0.18,8.21 C 45.38,58.16 34.83,68 31.41,80.22 c -4.3,14.17 1.82,30.58 14.17,38.68 8.29,5.7 19.14,7.4 28.87,5 11.13,-3.5 20.77,-12.3 24.14,-23.6 C 103.4,86.42 97.66,70.11 85.88,61.64 78.01,55.54 67.45,53.6 57.78,55.53 Z M 452.8,23.49 c 4.3,-1.33 8.6,4.22 6,8 -1.7,3.17 -6.6,3.87 -8.8,0.9 -2.8,-2.84 -1.1,-8.12 2.8,-8.9 z m 98.9,-0.29 c 2.1,-2.07 5.2,-0.95 7.7,-0.35 0,36.14 0,72.27 0,108.45 -2.6,0.8 -5.3,0.7 -7.9,-0.4 0,-5.3 0,-10.7 -0.1,-16.1 -7.4,10.1 -19.2,17.8 -31.9,18.3 -8.5,0.5 -17,-1.7 -24.5,-5.5 -10.8,-6 -18.8,-16.7 -21.2,-28.84 -2.2,-10.75 -0.3,-22.38 5.6,-31.68 6.1,-10.02 16.5,-17.38 28.1,-19.6 11.2,-1.92 23.5,-0.16 32.9,6.56 4.3,2.83 7.8,6.65 11.1,10.62 0.2,-13.82 -0.3,-27.66 0.2,-41.46 m -43.8,32.52 c -9.5,2.37 -18,8.72 -22.5,17.37 -4.2,7.12 -5.1,15.75 -3.6,23.76 2.2,11.65 11,21.65 22,25.75 7.2,2.5 15.1,3.2 22.5,1.1 7.4,-2.8 14.3,-7.4 18.7,-14 5.6,-7.9 7.6,-18.25 5.3,-27.65 C 548,71.53 540.4,62.45 530.7,57.92 523.6,54.6 515.4,54.1 507.9,55.72 Z M 289.4,22.69 c 2.5,-0.27 5.6,-1.37 7.7,0.54 0.4,2.6 0.2,5.24 0.2,7.86 0,33.33 0.1,66.66 0,100.01 -2.6,0.9 -5.3,0.9 -7.9,0.2 0,-5.6 0,-11.1 0,-16.6 -6.2,8.3 -15.1,14.7 -25.2,17.2 -12.3,3.1 -26.1,0.5 -36.2,-7.4 -6.7,-4.8 -11.7,-11.8 -14.7,-19.4 -4.6,-12.45 -3.3,-27.07 3.9,-38.28 6,-9.2 15.3,-16.44 26.1,-18.89 11.4,-2.58 24,-1.06 33.8,5.46 4.8,2.97 8.7,7.18 12.3,11.47 0,-14.06 0.1,-28.12 0,-42.17 m -43.6,32.99 c -16.9,3.77 -29.4,21.38 -26.8,38.62 1.5,12 9.8,22.4 20.5,27.8 9,3.5 19.7,4.2 28.5,-0.5 14.4,-5.7 23.3,-22.32 20.4,-37.52 -1.7,-10.55 -8.5,-20.13 -18,-25.1 -7.4,-4.22 -16.3,-5.03 -24.6,-3.3 z"></path>

</svg>
