<?xml version="1.0"?>

<svg xmlns="http://www.w3.org/2000/svg" viewBox="0 0 400 400" height="400" width="400"> <path d="M 200.2,12 C 96.3,12 12,96.2 12,200.1 12,304 96.3,388.2 200.2,388.2 304.1,388.2 388.3,304 388.3,200.1 388.3,96.2 304.1,12 200.2,12 Z m 3.2,74.6 c 5.2,0 9.5,2.7 11.6,7.9 l 74.9,180.2 c 0.8,2.2 1.3,4.3 1.3,5.6 0,7.9 -6.4,13.4 -13.8,13.4 -3.6,0 -6.5,-1.4 -10.4,-4.6 l -97.1,-78.4 -32.5,81.5 -28.1,0 82.2,-197.7 c 2.1,-5.2 6.7,-7.9 11.9,-7.9 z m 0,40.3 -24.8,62.2 73.5,58 -48.7,-120.2 z"></path> </svg>