<?xml version="1.0"?>

<svg xmlns="http://www.w3.org/2000/svg" viewBox="0 0 815.5 119.9" height="119.9" width="815.5"> <path d="M 55,30.8 77.2,85.69 43.65,59.24 55,30.8 Z M 94.5,98.39 60.3,16 c -1,-2.4 -2.9,-3.6 -5.3,-3.6 -2.4,0 -4.5,1.2 -5.4,3.6 l -37.6,90.3 12.85,0 14.86,-37.21 44.39,35.81 c 1.8,1.5 3.1,2.1 4.7,2.1 3.4,0 6.3,-2.5 6.3,-6.1 0,-0.6 -0.2,-1.51 -0.6,-2.51 m 677.6,9.51 c -26,0 -41.6,-9.51 -41.6,-28.61 0,-9.1 5.2,-17.74 15.2,-21.79 -8.1,-5.02 -12.3,-12.1 -12.3,-20 0,-17.3 13.6,-25.5 39,-25.5 8.5,0 20.5,1 30.5,3.2 l -1.4,10.3 c -10.6,-1.6 -20.5,-2.6 -30.1,-2.6 -16.5,0 -25.3,4.5 -25.3,15.2 0,8.5 8.1,15.22 18.9,15.22 l 21.8,0 c 3,0 5.4,2.37 5.4,5.3 0,3.07 -2.4,5.44 -5.4,5.44 l -23.5,0 c -12.3,0 -20.1,6.03 -20.1,15.23 0,13.5 12.7,17.6 28.6,17.6 8.7,0 20.4,-1.1 29.9,-3.4 l 1.8,10.21 c -9.1,2.5 -20.9,4.2 -31.4,4.2 m -143.5,-1.5 c -3.5,0 -6.3,-3 -6.3,-6.3 l 0,-86.7 12.7,0 0,81.59 50.5,0 0,11.41 -56.9,0 z m -91.3,-42.2 -31.5,0 0,31.59 31.5,0 c 10.7,0 17.3,-6.7 17.3,-16.1 0,-8.8 -6.8,-15.49 -17.3,-15.49 m -6.1,-40.2 -25.4,0 0,29.73 25.4,0 c 10.1,0 17.5,-6.43 17.5,-15.33 0,-8.8 -6.4,-14.4 -17.5,-14.4 m 6.2,82.4 -37.9,0 c -3.7,0 -6.5,-2.8 -6.5,-6.3 l 0,-80.4 c 0,-3.4 2.8,-6.3 6.5,-6.3 l 31.4,0 c 19.2,0 30.7,9.3 30.7,24 0,8 -4.8,15.35 -12,19.68 10.7,3.21 18,12.01 18,22.61 0,14.8 -12.4,26.71 -30.2,26.71 m -120.8,-93 12.7,0 0,93 -12.7,0 0,-93 z m -94.5,94.5 c -12.3,0 -25.1,-2.5 -37.1,-7 l 2.9,-10.01 c 11,3.5 23,6 34.2,6 15.5,0 23.6,-5.5 23.6,-13.2 0,-6.9 -6.3,-10.4 -27.9,-20.47 C 296.1,53.17 287.6,46.8 287.6,34.2 287.6,18.4 299.9,12 323.1,12 c 9.6,0 24.4,1.9 32.9,4.5 l -1.9,10.3 C 344.7,24.6 333,23 323.4,23 c -16.4,0 -23.1,3.1 -23.1,10.8 0,7.5 4.9,10.7 27.8,21.19 24.2,11.03 30.3,16.6 30.3,28 0,16.7 -15.9,24.91 -36.3,24.91 m -101.6,-0.8 c -1.7,0 -3.5,-0.5 -4.7,-2.1 l -53.9,-69.8 0,71.2 -12.3,0 0,-87.7 c 0,-3.5 2.9,-6.3 6.3,-6.3 1.9,0 3.6,0.6 4.9,2.2 l 53.7,69.69 0,-70.89 12.3,0 0,87.5 c 0,3.6 -3,6.2 -6.3,6.2"></path></svg>