<?xml version="1.0"?>

<svg xmlns="http://www.w3.org/2000/svg" viewBox="0 0 438 155" width="438" height="155">
<path d="m 78.2,22 c -0.6,1.78 -1,3.62 -0.8,5.49 0,2.27 -0.2,4.57 0.5,6.76 0.2,0.54 0.3,2.46 0.8,2.08 0.2,-0.95 1.5,-1.59 1,-2.63 -0.3,-1.33 -0.4,-2.68 -0.7,-3.99 0.9,0.1 1.5,1.05 2.1,1.65 0.6,1.31 1.2,-0.1 1.8,-0.6 0.8,-0.77 1.6,-1.55 2.4,-2.32 -0.9,1.96 -1.6,4 -2.2,6.07 1.3,3.17 1.6,6.61 1.5,10 0,2.54 0,5.07 -0.4,7.57 -0.2,1.47 -0.5,2.91 -0.6,4.38 -1,-4.23 -1.6,-8.52 -2.3,-12.81 -0.7,3.46 -0.3,6.99 -0.4,10.5 0.2,0.67 -0.1,0.76 0.2,1.49 -0.2,0 -0.8,-1.22 -1.4,-1.82 -2.3,-2.91 -4.9,-5.55 -7.4,-8.32 -2,-1.84 -4.3,-3.48 -6.9,-4.89 1.4,0.1 2.7,0.25 3.9,0.55 -1.8,-2.94 -3.6,-6.4 -2.9,-9.95 0.3,-1.81 1.5,-3.28 2.9,-4.41 0.2,0.54 0.1,1.74 0.3,2.52 0.6,3.53 2,7.02 4.5,9.62 0.4,0.42 1.5,2.34 1,0.79 -1,-3.71 -1.3,-7.68 -0.3,-11.44 0.7,-2.28 1.8,-4.47 3.4,-6.29 z m -8.9,4.74 c 0,0 0.1,0 0,0 z m 11.6,28.93 c 0.1,0.13 -0.1,0.1 0,0 z m -4,6.08 c -0.6,0.67 0.5,0.17 -0.9,0.86 -1.2,1.34 -2.6,2.72 -4,4.03 2.5,-1.35 5,-2.49 7.4,-4.01 -0.5,1.11 -1,2.26 -1.6,3.31 1.2,-0.74 2.5,-1.45 3.5,-2.51 -2.1,3.25 -4.2,6.52 -6,9.98 -1.7,3.42 -3.3,6.97 -4.2,10.72 -0.3,1.24 -0.5,2.5 -0.8,3.75 -1.1,-3.5 -1.8,-7.18 -1.2,-10.83 0.1,-1.02 0.4,-2.02 0.8,-2.99 -3.2,1.9 -6.6,3.82 -8.7,6.98 -1.1,1.42 -1.8,3 -2.6,4.58 -0.8,-1.79 -1.4,-3.78 -0.9,-5.74 0.4,-1.62 1.3,-3.1 2.3,-4.38 -2.5,1.13 -5.2,1.73 -7.9,1.4 3.9,-2.42 7.9,-4.84 11.9,-7.41 2,-1.24 4,-2.5 6,-3.75 1.3,-0.77 2.5,-1.62 3.9,-2.27 -2.7,1.03 -4.9,2.97 -7.5,4.24 -1.9,1.08 -3.8,1.86 -5.9,2.07 -3.6,0.78 -6.8,2.36 -9.7,4.56 -1.2,0.92 -2.3,2.01 -3.2,3.21 0.8,-3.94 3.6,-7.26 7,-9.28 2,-1.36 4.4,-2.19 6.8,-2.96 -2.6,-0.48 -5,-1.64 -7,-3.27 4.4,0.95 9.1,1.27 13.7,0.98 2.9,-0.14 5.8,-0.58 8.5,-1.27 -0.8,0.22 -1.8,0.85 -0.4,0.4 0.2,-0.14 0.5,-0.27 0.7,-0.4 z m -22.5,0.29 c 0,0.1 0,-0.11 0,0 z M 52.1,76.9 c -0.1,0.1 -0.1,0 0,0 z M 81.3,63.43 c 0.1,-0.27 0.4,-0.2 0,0 z M 22,30.23 c 15.8,7.12 31.6,14.26 47.4,21.4 81.5,33.75 169.4,47.34 256.9,55.57 22.2,2.9 44.6,4.6 66.8,8.5 -93,-8.9 -188.4,-9.4 -277.3,-41.49 C 82.8,64.22 48.4,53.48 22,30.23 Z m 84.2,1.96 c 1.3,0.15 2.1,0.43 2.5,0.69 0.1,0.13 0.2,0.24 0.2,0.38 0,0.13 0,0.33 -0.1,0.56 -0.4,0.93 -1.9,2.41 -3.3,3.83 h -0.1 c -4.5,6.3 -7.4,13.65 -8.7,21.27 -1.2,-0.14 -2.1,-0.45 -2.4,-0.95 -0.3,-0.59 -0.4,-1.46 -0.2,-2.52 0.2,-2.09 1.4,-4.71 1.6,-6.84 1.1,-2.92 2,-6.78 3.5,-10.04 1.4,-3.26 3.5,-5.83 7,-6.42 z m 8.3,0.7 c 2.3,0.2 4,1.25 4.4,2.24 0.2,0.51 0.1,1 -0.3,1.53 -0.4,0.55 -1.1,1.14 -2.4,1.63 -0.1,0 -0.1,0.1 -0.2,0.1 -6.4,6.11 -10.2,14.58 -11.6,23.35 -2,0 -3.4,-0.34 -4.3,-0.89 -1,-0.59 -1.4,-1.37 -1.6,-2.39 -0.3,-2.05 0.7,-5.01 1.9,-7.91 2.7,-6.71 6.3,-14.56 13.1,-17.46 l 0.5,-0.11 z m -16.9,0.34 h 1.3 0.1 c 0.5,0 0.9,0.1 1,0.19 0.2,0.11 0.2,0.14 0.3,0.24 0,0.19 -0.2,0.81 -0.7,1.51 -0.4,0.72 -1.1,1.53 -1.6,2.37 -0.5,0.78 -0.9,1.56 -1,2.38 -2.4,5.47 -3.6,11.44 -4.7,17.3 -0.9,-0.2 -1.6,-0.48 -1.9,-1.01 -0.4,-0.63 -0.5,-1.55 -0.5,-2.6 0.4,-5.39 -0.1,-11.32 2.1,-15.96 0.6,-1.41 1.5,-2.61 2.6,-3.39 0.8,-0.59 1.8,-0.98 3,-1.06 z m 28.3,2.19 c 1,0.11 2,0.23 2.7,0.47 0.8,0.24 1.4,0.58 1.6,0.83 0.1,0.13 0.1,0.21 0.1,0.29 0,0.1 -0.1,0.21 -0.2,0.38 -0.3,0.34 -1.1,0.8 -2.4,1.22 -0.1,0 -0.1,0.1 -0.2,0.1 -7.6,6.61 -9.6,16.9 -13.2,25.6 -2.9,0.71 -5.4,-0.18 -6.7,-1.95 -1.3,-1.82 -1.5,-4.56 0.4,-7.59 0,0 0,-0.1 0.1,-0.1 1.4,-4.12 3.5,-8.69 6.4,-12.34 2.9,-3.65 6.7,-6.35 11.4,-6.9 z m 13,3.73 c 0.5,0.16 0.9,0.33 1.1,0.49 0.3,0.12 0.3,0.18 0.3,0.18 0,0 -0.1,0 -0.1,0.1 -0.3,0.13 -0.8,0.29 -1.6,0.44 h -0.1 c -10.3,4.86 -15.6,16.04 -17.5,26.75 -1.8,0 -3.1,-0.26 -3.8,-0.72 -0.7,-0.5 -0.9,-1.16 -0.8,-2.11 0.1,-1.89 1.5,-4.63 2.4,-7.24 1.4,-3.5 2.7,-7.48 4.6,-10.91 2,-3.44 4.6,-6.27 8.3,-7.63 2.5,-0.62 4.9,-0.13 7.2,0.65 z m 9.5,0.52 c 1.8,0 4,0.78 4.6,1.5 0.2,0.18 0.3,0.34 0.4,0.46 0,0.1 0,0.14 -0.1,0.26 -0.2,0.23 -0.8,0.63 -2.2,0.89 -0.1,0 -0.1,0 -0.2,0.1 -10.5,5.63 -15.9,16.9 -19.6,27.41 -2.1,0 -3.7,-0.22 -4.9,-0.76 -1.3,-0.58 -2.1,-1.41 -2.6,-2.43 -0.9,-2.06 -0.3,-5.05 1.4,-8.28 v 0 c 4.1,-9.47 12.4,-18.98 23.2,-19.06 z m 9.5,2.98 c 2.1,0.1 4.3,0.7 5.1,1.37 0.2,0.17 0.3,0.32 0.3,0.4 0,0.1 0,0.15 -0.1,0.3 -0.2,0.3 -1,0.79 -2.5,1.24 -0.1,0 -0.1,0 -0.2,0.1 -8.8,6.81 -11.8,18.2 -16.2,27.83 -3,-0.86 -6.8,-1.37 -9.1,-2.48 -1.2,-0.58 -1.8,-1.26 -2,-2.2 1.943,-6.0351 6.572,-13.9958 10.7,-18.72 3.8,-4.26 8.4,-7.41 14,-7.83 z m 8.9,3.09 c 1,-0.1 3.7,0.42 5.6,1.13 1,0.36 1.9,0.8 2.3,1.16 0.2,0.17 0.2,0.29 0.2,0.33 0,0 0,0.11 -0.2,0.25 -10.2,4.45 -15,14.76 -19.3,24.33 -0.6,1.16 -1.3,2.32 -1.8,3.45 -2,0.1 -3.6,-0.13 -4.6,-0.57 -1.1,-0.47 -1.5,-1.1 -1.7,-1.96 1.378,-6.6417 4.809,-14.8415 8.4,-20.47 2.6,-4 6,-7.04 11.1,-7.61 z m 12.8,3.76 c 0.4,0 0.9,0.11 1.5,0.19 1.1,0.2 2.3,0.52 3.2,0.85 0.5,0.17 0.9,0.35 1.2,0.52 0.3,0.1 0.3,0.11 0.3,0.17 -0.3,0.1 -0.6,0.16 -1.1,0.22 h -0.1 c -11.2,3.84 -15.7,15.98 -20.5,25.51 -0.7,1.13 -1.8,1.64 -3,1.73 -1.2,0.1 -2.5,-0.29 -3.4,-0.97 -1,-0.67 -1.7,-1.63 -1.8,-2.69 -0.1,-1.07 0.3,-2.31 2.25,-5.275 1.95,-2.965 4.45,-8.085 7.75,-12.255 3.3,-4.15 7.3,-7.32 12.7,-7.97 v 0 c 0.2,0 0.5,-0.11 1,0 z m 8.7,3.08 h 1.9 c 1.4,0.17 2.4,0.41 3.1,0.68 0.3,0.13 0.5,0.29 0.7,0.4 0.1,0.12 0.2,0.2 0.2,0.24 0,0 0,0.1 -0.1,0.22 -0.1,0.12 -0.3,0.3 -0.6,0.48 -0.6,0.37 -1.5,0.78 -2.7,1.2 -0.1,0 -0.1,0 -0.2,0.1 -8.7,6.12 -15.3,15.08 -19,24.87 -2.2,0.13 -3.7,-0.1 -4.6,-0.48 -0.9,-0.45 -1.2,-1.03 -1.2,-1.9 -0.1,-1.72 1.3,-4.48 3,-7.15 v 0 c 2.2,-4.27 4.8,-9.16 8.2,-12.86 3.1,-3.22 6.6,-5.52 11.3,-5.76 z m 11.9,1.82 v 0 0.47 z m -0.1,0.47 c 1.6,0.27 2.7,0.53 3.2,0.76 0.1,0.1 0.1,0.1 0.2,0.12 -0.2,0.16 -0.7,0.48 -1.5,0.84 -0.8,0.38 -1.8,0.82 -2.9,1.35 H 199 c -8.4,6.22 -12.9,16.1 -17.7,25.01 -2.1,0 -3.7,-0.11 -4.9,-0.49 -1.2,-0.4 -1.9,-0.99 -2.3,-1.72 -0.4,-0.72 -0.4,-1.63 0,-2.77 0.4,-1.15 1.2,-2.5 2.4,-3.98 v -0.1 c 5.1,-8.06 11.7,-17.1 21.3,-19.04 0.8,0 1.5,-0.1 2.3,-0.1 z m 11.8,4.15 c 0.2,0.17 0.3,0.33 0.3,0.37 0,0.1 0,0.1 -0.1,0.16 -0.2,0.21 -1.1,0.51 -2.8,0.59 h -0.1 c -10.6,4.2 -17.2,14.21 -21,24.27 -1.9,0.14 -3.3,0 -3.9,-0.39 -0.3,-0.2 -0.4,-0.42 -0.5,-0.7 -0.1,-0.28 -0.1,-0.64 0,-1.06 0.2,-1.7 2,-4.29 3.1,-6.56 v 0 c 2.2,-3.7 4.5,-7.87 7.3,-11.32 2.8,-3.45 6.2,-6.15 10.7,-7.01 h 0.1 0.3 c 2.5,-0.1 4.4,0.51 6.6,1.65 z m 3.8,1.72 c 1.2,0 2.4,0.12 3.3,0.3 1,0.18 1.7,0.46 2,0.67 0.2,0.1 0.1,0.14 0.1,0.1 0,-0.1 0.1,-0.1 -0.1,0.1 -0.4,0.21 -1.4,0.51 -3.2,0.74 v 0 c -10.7,3.57 -16.9,13.73 -20.2,23.82 -2.1,0.15 -3.8,0 -4.9,-0.34 -1,-0.39 -1.6,-0.98 -1.9,-1.75 -0.5,-1.55 0.4,-4.14 2.5,-7.09 v 0 c 4.7,-8.4 12.5,-16.42 22.4,-16.55 z m 18.2,3.88 c -12.8,1.25 -23.7,11.16 -26.7,23.61 -2.4,0.23 -4.2,0.12 -5.3,-0.3 -1.1,-0.45 -1.6,-1.1 -1.8,-2 -0.4,-1.81 0.9,-4.78 3,-7.81 v 0 c 4.5,-7.81 11.6,-15.26 20.3,-15.26 8.7,0 7.5,0.61 10.5,1.79 z m 3.8,1.12 c 1,0 1.1,0.1 1.6,0.13 -1.2,0.35 -2.8,0.76 -4.4,1.38 -10.3,3.42 -14.8,13.97 -19.5,22.52 -2.1,0.25 -3.6,0.15 -4.4,-0.24 -1,-0.4 -1.4,-1 -1.6,-1.85 -0.3,-1.69 0.8,-4.42 2.5,-7.02 h 0.1 c 5.2,-9.07 15.4,-14.83 25.7,-14.89 z m 7.8,0.71 c 1.7,0 4.2,0.2 6.3,0.51 1,0.15 2,0.33 2.8,0.54 0.3,0.11 0.3,0.13 0.5,0.2 -13.1,3.19 -25.3,11.14 -31.5,23.48 -2.2,0.2 -3.8,0.1 -4.6,-0.24 -0.9,-0.35 -1.1,-0.81 -1.1,-1.57 0,-0.73 0.3,-1.77 0.9,-2.93 0.6,-1.17 1.5,-2.46 2.3,-3.77 v 0 c 5.1,-9.06 13.9,-16 24.4,-16.19 z m -160.3,1.1 c 1,0.15 1.6,0.4 1.8,0.85 0.3,0.52 0.3,1.34 0.1,2.31 -0.5,1.95 -1.7,4.37 -1.3,6.41 -0.4,4.12 -0.4,8.33 0.8,12.42 C 83.8,88.92 82,87.27 81,84.98 79.2,78.85 82.3,72.6 85.2,67.59 Z m 191.7,3.9 c -0.2,0.18 -1.1,0.44 -2.8,0.35 h -0.2 c -13,3.52 -20.8,15.27 -31.3,22.42 -2.3,0 -4.1,-0.1 -5.1,-0.35 -0.5,-0.13 -0.8,-0.3 -1,-0.45 -0.1,-0.14 -0.2,-0.21 -0.2,-0.34 0.1,-0.29 0.5,-0.97 1.4,-1.77 0.9,-0.77 2.2,-1.7 3.8,-2.72 v 0 c 8.9,-7.23 16.8,-16.25 27.8,-19.89 2.6,-0.012 6.116,0.4681 7.6,2.75 z m -13,-2.78 c 0.2,0 0.2,0 0.3,0.1 -0.1,0.1 -0.2,0.21 -0.5,0.35 -0.7,0.45 -1.7,0.98 -2.7,1.55 -1,0.58 -2,1.17 -2.7,1.79 -8.6,6.36 -16.2,14.16 -24.9,20.37 -2.2,0.2 -3.8,0.11 -4.9,-0.21 -1.2,-0.33 -1.8,-0.85 -2,-1.48 -0.3,-0.64 -0.2,-1.49 0.4,-2.55 0.5,-1.06 1.4,-2.3 2.8,-3.6 v 0 c 7.7,-9.46 19.8,-15.89 32,-16.2 v 0 c 1,-0.1 1.7,-0.1 2.2,0 z m -174.8,0.1 c 1.7,0 2.9,0.23 3.7,0.67 0.8,0.49 1.2,1.15 1.4,2.04 0.3,1.79 -0.2,4.45 -0.6,7.21 v 0 c -0.3,6.02 0.7,12.03 2.7,17.69 -3.6,-0.3 -6.1,-2.46 -7.6,-5.61 -1.5,-3.39 -1.9,-7.69 -1.6,-11.15 v 0 c 0.3,-3.68 1,-7.31 2,-10.89 z m 7.3,2.38 c 1.6,0.1 3,0.27 3.8,0.68 1,0.46 1.5,1.08 1.8,1.89 0.6,1.63 0.3,4.13 -0.2,7.06 v 0.1 c -0.1,7.09 1.5,13.44 4.6,18.83 0.1,0 0,0.1 0.1,0.11 v 0 c 0.2,0.78 -0.1,1.18 -0.1,1.58 -0.4,0.1 -1.3,0.2 -2.9,-0.3 v 0 C 100,99.88 98.2,97.16 97.2,93.82 96.1,90.48 95.9,86.58 95.5,83.34 95.5,79.23 95.3,75.1 96.4,71.2 Z m 184.2,1.34 c 1.7,0.1 2.9,0.18 3.7,0.34 0.4,0.1 0.7,0.18 0.8,0.26 0.2,0.1 0.2,0.11 0.1,0 0,-0.1 0.1,-0.1 0,0 -0.2,0.12 -0.4,0.29 -0.8,0.49 -0.7,0.36 -1.8,0.8 -3.4,1.3 v 0 c -10.8,4.96 -17.7,15 -27.4,20.85 -2.8,0 -4.7,-0.1 -5.9,-0.36 -0.6,-0.14 -1,-0.31 -1.3,-0.48 -0.2,-0.17 -0.2,-0.28 -0.2,-0.45 0,-0.33 0.4,-1.11 1.4,-2.03 1,-0.93 2.5,-2.02 4.1,-3.28 h 0.1 c 8.4,-7.42 17.3,-16.71 28.8,-16.64 z m -176.4,1.14 c 3.9,0.1 6,1.16 7.1,3.06 1.1,1.99 1.2,4.9 1.15,9.935 -0.05,5.035 -0.25,12.925 4.25,18.475 -3.9,-0.4 -6.9,-2.6 -9,-5.9 -2.4,-3.65 -3.7,-8.36 -4.2,-12.3 v 0 c -0.8,-4.4 -0.2,-8.84 0.7,-13.24 z m 188.3,0.59 c 1,0.11 2.1,0.35 2.9,0.65 0.9,0.3 1.5,0.7 1.7,0.93 0.1,0.12 0.1,0.15 0.1,0.12 l -0.2,0.14 c -0.4,0.2 -1.4,0.41 -3.1,0.44 h -0.1 c -11.9,3.62 -19.1,14.15 -28.6,20.9 -2.2,-0.1 -4,-0.2 -5.4,-0.38 -1.4,-0.19 -2.3,-0.51 -2.6,-0.78 -0.2,-0.13 -0.2,-0.18 -0.2,-0.33 0.1,-0.15 0.2,-0.42 0.5,-0.77 0.6,-0.68 1.8,-1.66 3.8,-2.88 v 0 c 9.2,-7.65 18.5,-18.41 31.2,-18.02 z m -178.7,2.36 c 1.6,0 2.9,0.2 3.7,0.69 0.9,0.55 1.4,1.35 1.7,2.37 0.7,2.04 0.4,4.94 0.3,7.7 v 0 c 0,6.67 -0.1,14.26 3.9,20.06 -3,-0.8 -5.3,-2.6 -6.7,-5.2 -1.7,-3.08 -2.5,-6.85 -2.7,-10.34 v 0 c -0.3,-5.02 0,-10.16 -0.2,-15.28 z m 186.8,0.54 c 1.2,-0.1 4.4,0.44 6.5,0.96 0.3,0.1 0.5,0.17 0.7,0.25 -0.4,0.1 -0.8,0.12 -1.5,0.16 h -0.1 c -10.9,3.3 -18.4,12.46 -25.1,20.92 -3.3,-0.57 -8.2,-0.63 -10.9,-1.25 -0.6,-0.16 -1.2,-0.37 -1.5,-0.57 -0.3,-0.22 -0.3,-0.32 -0.3,-0.52 0,-0.21 0.3,-0.63 0.9,-1.17 0.6,-0.54 1.4,-1.19 2.7,-1.96 0,0 0.1,0 0.1,-0.1 8.3,-7.54 16.8,-16.46 28.5,-16.78 v 0 z m -179.5,1.95 c 1.4,0 2.6,0.26 3.2,0.71 0.7,0.52 1,1.25 1.2,2.21 0.3,1.93 -0.4,4.69 -0.3,7.32 v 0 c 0.7,8.32 4.5,16.19 9.9,22.29 -7.3,0.2 -13.2,-6.4 -13.4,-13.72 v -0.1 c -0.9,-6.13 -0.1,-12.44 -0.6,-18.76 z m 188.8,0.54 c 0.9,0.17 3.1,0.29 4.8,0.56 0.9,0.14 1.6,0.35 1.9,0.5 -0.1,0 0,0 -0.2,0.14 -9.3,4.73 -15.6,13.44 -23.2,20.09 -1.8,0 -3.6,-0.1 -5,-0.3 -1.5,-0.2 -2.9,-0.5 -3.6,-0.95 -0.3,-0.22 -0.5,-0.45 -0.6,-0.67 -0.1,-0.23 -0.1,-0.51 0.1,-0.92 0.3,-0.82 1.3,-2.04 3.4,-3.62 v 0 c 5.8,-6.68 13.1,-14.33 22.4,-14.78 z m 10.8,1.51 c 1.7,0.11 2.8,0.35 3.3,0.59 0.2,0.13 0.2,0.22 0.2,0.26 0.1,0 0.1,0.11 -0.1,0.27 -0.2,0.32 -0.8,0.83 -1.6,1.31 -0.8,0.48 -1.9,0.97 -3,1.4 l -0.1,0.1 c -6.5,4.61 -11.2,11.04 -16.4,16.95 -1.9,0 -3.5,0 -4.6,-0.1 -1.2,-0.2 -1.9,-0.5 -2.1,-0.8 -0.1,-0.1 -0.2,-0.2 -0.1,-0.4 0,-0.2 0.1,-0.5 0.3,-0.82 0.5,-0.72 1.5,-1.67 3.1,-2.84 v 0 c 6.5,-6.19 12.4,-13.87 21.1,-15.92 z m -193.2,0.1 c 3.8,0 5.8,1.26 6.7,3.32 1.1,2.17 1.3,5.28 1.6,8.58 v 0 c 1.5,8.38 4.9,16.98 11.7,22.58 -4.2,0.3 -7.7,-1.3 -10.6,-4.1 -3.3,-3.2 -5.6,-7.5 -7.2,-11.3 v 0 c -2.5,-6.03 -3.4,-12.74 -2.2,-19.12 z m 200.9,1.98 c 4.1,-0.23 7.9,2.2 10.9,5.12 -10.4,0.17 -19.5,6.69 -25.4,14.78 -2.2,0.2 -4,0.2 -5.2,0 -1.4,-0.3 -2.1,-0.7 -2.4,-1.1 -0.3,-0.4 -0.3,-1 0.3,-1.9 0.5,-1.02 1.6,-2.24 3.2,-3.68 v 0 c 5.1,-5.75 10.9,-11.76 18.6,-13.18 z m -191.7,1.04 c 3,1.03 6.5,1.49 9.2,2.54 1.4,0.56 2.5,1.28 3.1,2.33 0.6,1.04 0.8,2.45 0.95,7.62 0.15,5.17 0.45,14.57 6.75,20.67 -4.3,0 -7.8,-2 -10.6,-5.2 -3.1,-3.6 -5.3,-8.3 -6.7,-12.39 -1.6,-5.02 -2.6,-10.32 -2.7,-15.57 z m 13.9,3.86 c 3.3,-0.1 5.4,0.9 6.7,2.67 1.3,1.87 1.7,4.65 1.7,7.88 v 0.1 c 1.2,7.35 3.6,15.55 9.6,20.75 -7,0.8 -13.8,-3.5 -15.4,-10.4 V 109 c -2.3,-6.6 -2,-13.83 -2.6,-20.87 z m 191,1.65 c 0.9,0 3.7,0.39 5.7,0.87 0.8,0.21 1.4,0.45 1.8,0.62 -8.1,2.39 -15.3,7.31 -21.1,13.26 -1.2,-0.3 -2.9,-0.4 -4.5,-0.5 -1.8,0 -3.6,-0.1 -5,-0.3 -0.7,-0.1 -1.3,-0.3 -1.7,-0.4 -0.3,-0.2 -0.5,-0.4 -0.5,-0.6 -0.1,-0.1 0,-0.4 0.4,-0.9 0.3,-0.5 1,-1.1 2,-1.92 v 0 c 6,-6.33 14.2,-10.66 22.9,-10.08 v 0 z m -180.7,0.69 c 2.9,0.1 4.6,1.09 5.7,2.78 1.3,2.04 1.7,5.07 2.2,8.28 v 0.1 c 1.8,7.1 4.5,14.7 10.5,19.6 -4.6,0.4 -8.3,-1.4 -11.2,-4.6 -3.3,-3.5 -5.5,-8.4 -6.4,-12.7 v -0.1 c -1.1,-4.31 -1.6,-8.8 -2,-13.3 h 1.2 z m 196.9,1.42 c 1,0.1 2.1,0.2 3,0.4 0.9,0.2 1.7,0.47 2,0.7 0.2,0.12 0.2,0.2 0.2,0.16 0,0 0,-0.1 -0.1,0.1 -0.3,0.22 -1.2,0.61 -2.9,0.94 h -0.1 c -7.1,3.38 -14,7.24 -20.6,11.64 -2,0.1 -3.8,0 -5.2,-0.1 -1.5,-0.2 -2.6,-0.5 -3.1,-0.9 -0.2,-0.2 -0.3,-0.3 -0.3,-0.5 0,-0.2 0,-0.4 0.3,-0.8 0.4,-0.6 1.6,-1.6 3.7,-2.8 v 0 c 6.7,-4.96 14.6,-9.15 23.1,-8.8 z M 170.9,92.6 c 0.7,0.1 1.3,0.19 1.6,0.4 1.2,0.48 1.9,1.25 2.6,2.25 1.2,2.01 1.7,4.95 2.6,7.95 v 0.1 c 2.6,6.9 6,14.1 11.9,19.3 -4.9,0.2 -8.9,-1.8 -11.9,-5.2 -3.4,-3.7 -5.6,-8.8 -6.7,-13.4 v 0 c -1,-3.8 -1.9,-7.55 -2.4,-11.39 0.8,-0.1 1.6,-0.1 2.3,0 z m 201.6,0.26 c 1.8,-0.1 3.4,0.94 3.8,1.77 0.2,0.42 0.2,0.7 -0.1,1.03 -0.3,0.32 -1,0.67 -2.2,0.8 h -0.1 c -7.5,3.12 -14.3,7.54 -21.5,10.74 -3.3,-0.3 -7.3,-0.5 -9.2,-1 -0.5,-0.2 -0.8,-0.3 -0.9,-0.3 v -0.1 c 0,0 0,-0.1 0.1,-0.2 0.3,-0.4 1.6,-1.3 4.2,-2.4 v 0 c 8.1,-4.64 16.5,-10.19 25.9,-10.34 z m -195.2,1.7 c 3.5,-0.16 6.1,0.62 7.8,2.29 1.8,1.77 2.8,4.55 3.3,8.05 v 0 c 2.4,7.1 5,15.5 11.6,19.8 -4.4,0.1 -8.1,-1.7 -11.2,-4.9 -3.5,-3.6 -6.1,-8.5 -7.8,-12.9 -1.6,-4 -2.9,-8.09 -3.7,-12.34 z m 204.6,1.37 h 0.1 c 1,0.1 1.9,0.22 2.6,0.42 0.6,0.16 0.9,0.32 1.1,0.46 -0.4,0.12 -1.3,0.22 -2.6,0.18 h -0.2 c -8,1.87 -15,6.51 -21.4,11.31 -2.4,0 -4,-0.1 -4.9,-0.3 -0.5,-0.1 -0.7,-0.2 -0.8,-0.3 -0.1,0 0,0.1 0,0 0.1,-0.2 0.7,-0.8 1.8,-1.4 1,-0.4 2.4,-1.1 4,-1.8 v 0 c 5.6,-2.7 10.7,-6.11 16.5,-7.91 h 0.2 c 0.1,0 0.2,-0.1 0.4,-0.1 0.3,-0.1 0.6,-0.21 1,-0.32 0.8,-0.23 1.7,-0.41 2.2,-0.3 v 0 z m -192.2,0.76 c 0.5,0 1,0.14 1.4,0.32 0.8,0.42 1.3,1.13 1.8,2.03 0.9,1.86 1.3,4.56 2.1,6.86 v 0 c 2.7,7.5 7.4,14.4 14.3,18.6 -4.1,0.9 -7.6,-0.2 -10.5,-2.8 -3.2,-2.8 -5.5,-7 -6.8,-10.9 v 0 c -1.7,-4.7 -3,-9.3 -4.1,-14.08 0.7,0 1.3,-0.1 1.8,0 z m 7.4,1.26 c 2.2,0.14 3.7,0.91 4.8,2.25 1.5,1.8 2.3,4.6 2.9,7.8 v 0.1 c 2.3,7.6 7.7,13.6 14.3,17.6 -6.8,-0.3 -12.2,-3.7 -16.4,-8.9 -4.2,-5.4 -6.9,-12.3 -8.1,-18.77 0.9,-0.1 1.7,-0.13 2.5,-0.1 z m 190.5,0.26 c 1.2,0.14 2.2,0.35 3,0.58 0.6,0.21 1,0.44 1.1,0.53 -0.1,0 -0.1,0.1 -0.2,0.11 -0.5,0.19 -1.5,0.36 -3,0.43 h -0.2 c -6.1,2.14 -11,6.24 -16.2,9.74 -2.3,0.1 -4.1,0 -5.3,-0.2 -0.7,-0.1 -1.1,-0.2 -1.4,-0.4 -0.4,-0.1 -0.5,-0.3 -0.5,-0.4 0,-0.2 0,-0.4 0.1,-0.6 0.1,-0.2 0.3,-0.6 0.7,-0.9 0.8,-0.7 2.2,-1.5 4.1,-2.4 v -0.1 c 5.4,-3.3 11.4,-6.5 17.8,-6.39 z M 206.4,99.7 c 1.9,0.12 3.2,0.7 4.3,1.7 1.3,1.5 2.1,3.8 2.8,6.5 v 0.1 c 3.6,9 10.9,15.9 19.6,19.7 -6.6,0.3 -12.9,-2.3 -17.8,-6.5 -5.3,-4.8 -9.1,-11.5 -10.4,-18.5 v -0.1 c -0.3,-0.9 -0.5,-1.9 -0.7,-2.87 0.7,-0.1 1.4,-0.1 2.2,0 z m 187.4,1 c 0.4,0 0.8,0.1 1.3,0.2 0.8,0.3 1.8,0.8 2.6,1.2 0.8,0.5 1.5,1 1.8,1.4 l 0.1,0.1 c -6.3,-0.7 -13.8,1.5 -17,7.4 -2,0 -3.7,-0.1 -5,-0.3 -1.3,-0.2 -2.2,-0.5 -2.4,-0.8 -0.1,-0.1 -0.1,-0.1 -0.1,-0.3 0,-0.1 0.2,-0.4 0.5,-0.7 0.6,-0.7 1.9,-1.5 3.8,-2.5 v 0 c 4.2,-2.6 8.5,-5.5 13.4,-5.7 h 0.1 c 0.2,-0.1 0.6,-0.1 0.9,0 z m -178.5,0.5 c 1.9,0.1 3.3,0.9 4.3,2.2 1.6,1.8 2.6,4.5 3.9,7.2 v 0 c 3.4,7.1 8.8,13.1 15.6,16.8 -12.6,-2.5 -23.1,-13.6 -26,-26.2 0.8,-0.1 1.5,-0.1 2.2,0 z m 8.5,1.2 c 2.2,0.1 3.7,0.9 5,2.2 1.8,1.7 3,4.5 4.5,7.3 v 0.1 c 5.5,7.8 13.5,13.5 22.1,17.4 -13,0.7 -25.1,-7.7 -30.5,-19.5 v 0 c -1.2,-2.5 -2.3,-4.9 -3.4,-7.4 0.8,-0.1 1.6,-0.2 2.3,-0.1 z m 7,1.6 c 6.4,-0.2 11.8,1.9 15.6,7.3 h 0.1 c 5.9,6.5 11.7,13.2 18.5,18.9 -14.1,-2 -26.4,-12 -33.3,-24.3 -0.3,-0.6 -0.7,-1.3 -0.9,-1.9 z m 167.6,1.1 c 1.1,-0.1 3.6,0.4 5.5,1 0.9,0.3 1.8,0.7 2.2,1 l 0.1,0.1 c -4.8,0 -10,1.5 -13.2,5.4 -2.1,0.2 -3.8,0.1 -5.1,-0.2 -1.3,-0.3 -2.2,-0.8 -2.6,-1.3 -0.3,-0.5 -0.3,-1 0.2,-1.8 0.6,-0.7 1.8,-1.7 3.8,-2.6 v 0 c 2.7,-1.2 5.9,-1.7 9,-1.6 v 0 z m -155.7,0.3 c 6.1,-0.4 10.3,2.6 14,7.2 v 0.1 c 6.6,6.8 13,15.1 22.3,18.8 -3.1,1.7 -6.2,1.5 -9.2,0 -3.3,-1.7 -6.6,-4.8 -9,-7.2 -6.1,-6.2 -11.6,-12.9 -18.1,-18.9 z m 10.4,1.1 c 6.2,-0.3 11.3,2.2 14.8,7.5 h 0.1 c 5.7,6.4 11.7,13.2 19.6,17.5 -5.8,-0.2 -10.8,-2.3 -15.2,-5.7 -4.9,-3.8 -9.4,-8.9 -13.7,-13.4 -1.8,-2 -3.6,-4.1 -5.6,-5.9 z m 13.6,1.2 c 2,0.1 3.8,0.6 5.4,1.6 2.5,1.4 4.6,3.5 6.5,6.1 v 0.1 c 5.8,6.6 12.3,13.5 21,16.4 -4.2,1 -8.1,0.3 -11.7,-1.8 -4.2,-2.6 -8.1,-6.2 -11.4,-9.3 -4.2,-4.1 -7.7,-8.8 -12,-13.1 0.7,0 1.5,-0.1 2.2,0 z m 139.9,1.1 c 0.9,0 1.8,0.1 2.6,0.3 0.7,0.3 1.4,0.6 1.7,0.8 l 0.1,0.1 c -0.3,0.1 -1.2,0.2 -2.7,0.1 h -0.1 c -2.6,0.4 -5,1.8 -7.2,2.7 -2,0.7 -3.9,1 -6,0.1 3,-2.9 7.5,-4.2 11.7,-4.1 v 0 z m -131.9,0.1 c 2.9,0.4 6.1,0.3 8.8,0.7 3.3,0.5 5.8,1.6 7.1,5.1 l 0.1,0.1 c 4.9,6.3 10.3,13 18,16.4 -5.7,0.4 -11,-1.1 -15.7,-4.3 -5.2,-3.5 -10,-8.5 -13.9,-13.3 v -0.1 c -1.4,-1.5 -2.8,-3.1 -4.4,-4.6 z m 14.8,1.4 c 2.8,0.2 5.7,0.1 8.3,0.7 2.9,0.6 5.3,1.9 6.9,5 v 0.1 c 4.4,5.3 8.9,10.6 14.4,15 -6.7,0.8 -13.2,-1.8 -18.2,-7 v 0 c -4.3,-4.2 -8,-8.9 -11.4,-13.8 z m 15.3,0.8 c 0.6,0 1.2,0 1.7,0.1 1.3,0.3 2.4,0.8 3.4,1.6 2.1,1.5 3.8,3.9 5.5,6.4 v 0 c 3.5,4.4 7.3,8.6 12.1,11.8 -2.7,0.9 -5.2,0.3 -7.6,-1.3 -2.6,-1.9 -5,-4.5 -7,-6.6 -3.5,-3.8 -6.5,-7.9 -10,-11.8 0.6,-0.1 1.3,-0.2 1.9,-0.2 z m 109.2,1.6 v 0.3 c 0.1,0.8 -3.3,1 -4.8,1.3 -1.4,0.2 -3,0.4 -4.4,0.4 -1.4,0 -2.6,-0.2 -2.9,-0.4 v 0 c 0,-0.1 0.2,-0.3 0.7,-0.6 2.6,-1 5.2,-2.1 8,-2.4 1.7,-0.1 3.1,0.5 3.5,1.4 z m -99.1,-0.9 c 0.3,0 0.6,0 0.8,0.1 1.3,0.2 2.4,0.8 3.4,1.6 2,1.5 3.8,3.9 5.8,6.1 v 0 c 4.9,4.8 11,8.8 17.9,10.1 -3,2 -6.4,2.7 -9.8,1.9 -3.7,-0.8 -7.2,-3 -9.7,-6.2 h -0.1 c -4.3,-3.9 -7.7,-8.6 -11.1,-13.4 1,-0.2 2,-0.3 2.8,-0.2 z m 6.5,1.1 c 2.8,0 5.7,0.1 8.1,0.7 2.7,0.7 5.1,2.1 6.9,5 0,0 0.1,0 0.1,0.1 4.1,3.7 8.6,6.9 13.7,9.3 -11.6,1.2 -22,-5.8 -28.8,-15.1 z m 15.1,0.9 c 4.7,0.2 8.6,1.8 12,5.4 h 0.1 c 4.4,3.3 8.9,6.5 13.6,9.4 -5.4,0.6 -10.4,-1.1 -15,-4 -4.7,-3 -8.9,-7.1 -12.7,-10.7 0.6,-0.1 1.3,-0.1 2,-0.1 z m 9,0.9 c 6.3,-0.1 12,1.4 16.7,5.7 v 0 c 4.3,3.1 8.7,6 13.3,8.8 -2.2,1.5 -4.6,1.5 -7.2,0.6 -2.9,-1.1 -5.7,-3 -8.2,-4.3 v 0 c -5,-3.3 -9.8,-7 -14.6,-10.8 z m 69.7,1.2 c -0.1,0.1 -0.3,0.1 -0.5,0.1 -0.5,0.1 -1.2,0.1 -1.9,0.1 -0.7,0 -1.4,0 -2,-0.1 -0.3,-0.1 -0.5,-0.1 -0.7,-0.2 0.3,-0.2 0.7,-0.3 1.7,-0.5 l 0.6,-0.2 c 2,-0.1 2.5,0.3 2.8,0.8 z m -55.9,-0.5 c 0.4,-0.1 0.9,0 1.3,0 1.2,0.3 2.3,0.8 3.4,1.5 2.2,1.4 4.2,3.4 6.4,5.2 v 0 c 3.7,2.8 7.7,5.2 12.1,6.9 -3.1,0.1 -6,-0.9 -8.8,-2.7 -3.4,-2 -6.7,-4.9 -10.1,-6.9 -1.9,-1.3 -3.8,-2.6 -5.8,-3.9 0.5,-0.1 1,-0.1 1.4,-0.1 z m -3.1,0.5 c 0.9,0.4 1.9,1 2.8,1.5 0.2,0.1 0.4,0.3 0.5,0.4 -1.1,-0.7 -2.2,-1.3 -3.3,-1.9 z m 12,0.4 c 5,0.2 9,2.1 12.4,6.1 v 0 c 2.7,2.3 5.7,4.3 9.2,5.6 -3.6,0.7 -7.1,-0.1 -10.4,-2 -3.8,-2 -7.5,-5.1 -10.9,-7.5 -0.8,-0.7 -1.7,-1.5 -2.5,-2.2 z m 11.9,0.3 c 1.1,0.2 2.1,0.6 3,1.2 1.8,1.2 3.4,3.1 5.4,4.9 v 0 c 2.9,1.9 6.2,3 9.7,3.4 -2.7,1.4 -5.1,1.6 -7.7,0.7 v 0 c -5.1,-1.9 -9.3,-6 -13.3,-9.9 1,-0.2 2.1,-0.4 2.9,-0.3 z m 5.6,1 c 5.7,0 10.2,2.3 15,5.4 v 0 c 0.5,0.4 1.2,0.6 2.1,0.9 0.8,0.2 1.7,0.4 2.4,0.6 0.1,0 0.1,0.1 0.2,0.1 -0.2,0.1 -0.4,0.1 -0.7,0.2 v 0 c -6.9,1 -14.7,-1.6 -19,-7.2 z m 30.3,2 c -0.6,1.9 -7.5,-1.1 -9.1,-1.5 2,-1.1 9.2,0.5 9.1,1.5 z m -17.5,0 c 3.8,0.5 7.2,2.2 10.9,3.8 -0.4,0 -0.8,0.1 -1.5,0.1 -0.9,-0.1 -1.8,-0.2 -2.7,-0.4 -0.8,-0.2 -1.5,-0.5 -1.7,-0.6 l -0.1,-0.1 c -1.8,-0.7 -3.3,-1.8 -4.9,-2.8 z m 9,0.6 c 1.2,0 2.6,0.1 3.7,0.3 0.6,0.1 1.1,0.3 1.4,0.4 0.4,0.2 0.6,0.3 0.6,0.4 0,0.1 0.1,0.1 -0.1,0.3 -0.2,0.2 -0.6,0.5 -1.2,0.8 -1.8,-0.4 -3.5,-1.3 -5.2,-2.2 0.3,0 0.4,-0.1 0.8,0 z M 219,124.5 c 0.6,0.4 1.2,0.7 1.8,1 -0.5,-0.2 -1,-0.5 -1.5,-0.8 -0.1,-0.1 -0.2,-0.1 -0.3,-0.2 z m 1.8,1 1.2,0.6 z"></path>
<path d="m 66.7863,101.858 h 2.1811 l 2.7605,8.177 2.7686,-8.177 h 2.1811 v 12.016 h -1.4245 v -10.551 l -2.7928,8.241 h -1.4647 l -2.7928,-8.241 v 10.551 h -1.4165 z m -10.5351,0 h 9.1428 v 1.368 h -3.839 v 10.648 h -1.4648 v -10.648 h -3.839 z"></path>
</svg>