<?xml version="1.0"?>
<!--?xml version="1.0" encoding="UTF-8" standalone="no"?-->
<svg xmlns="http://www.w3.org/2000/svg" viewBox="0 0 300 200" height="200" width="300">
   <path d="M 145.96 8.7148 C 141.86 15.621 140.05 31.635 140.51 42.994 L 140.51 43.035 C 140.9 53.291 142.29 62.71 144.53 71.363 C 110.96 79.668 74.4 101.66 53.953 122.92 C 44.388 110.01 40.594 99.417 39.467 91.389 C 38.043 81.249 40.463 71.946 46.465 64.488 C 55.862 52.814 69.213 51.994 82.941 54.303 C 82.673 56.471 82.962 58.542 83.828 59.824 C 87.458 65.187 106.97 67.069 118.62 61.873 C 110.02 49.828 92.613 43.948 87.789 46.305 C 86.19 47.085 84.984 48.518 84.158 50.189 C 79.413 49.341 74.701 48.709 71.256 48.734 C 59.148 48.824 49.894 53.055 42.961 61.668 C 36.159 70.118 33.409 80.613 35.01 92.016 C 36.526 102.81 41.874 114.3 50.836 126.21 C 49.347 127.81 47.906 129.39 46.521 130.94 C 24.678 155.38 8.7129 181.59 8.7129 185.93 L 8.7129 188.18 L 37.527 188.18 L 37.023 185.51 C 35.396 176.91 38.646 166.16 45.303 158.13 C 49.482 153.08 56.402 147.33 67.271 144.67 C 76.934 154.1 89.244 164.12 102.95 173.78 L 124.36 173.78 L 124.36 171.53 C 124.36 168.99 123.1 166.77 120.82 165.27 C 117.44 163.06 112.21 162.75 107.42 164.39 C 102.84 159.3 100.28 152.49 99.725 144.04 C 146.2 148.16 190.65 166.93 240.81 193.13 L 268.41 193.13 L 268.77 191.32 C 269.28 188.75 267.88 185.29 265.02 182.09 C 260.08 176.56 250.39 173.95 242.31 174.14 C 236.74 167.51 206.13 135.25 204.31 133.34 C 215.74 125.33 225.66 114.91 233.27 102.54 L 248.3 102.54 L 248.3 99.303 L 235.18 99.303 C 236.03 97.819 236.82 96.301 237.6 94.766 L 248.3 94.766 L 248.3 91.525 L 239.17 91.525 C 245.99 76.783 249.77 59.86 249.41 41.336 L 249.39 41.332 C 249.39 36.262 247.8 14.832 244.89 8.9316 C 237.02 11.922 222.7 21.612 219.46 31.521 C 203.93 29.201 186.42 29.477 171.08 32.131 C 168.52 21.471 155.66 13.311 145.96 8.7148 z M 147.73 14.967 C 150.01 27.422 154.15 35.232 163.12 39.064 C 171.06 36.792 180.23 35.385 189.63 34.865 L 197.43 51.971 L 202.43 34.719 C 211.93 35.027 221.24 36.256 229.35 38.494 C 237.61 32.492 240.81 23.324 242.56 15.314 C 244.74 24.636 244.49 44.77 244.5 44.773 C 244.65 52.292 244.05 59.519 242.78 66.406 L 233.87 70.191 L 241.72 71.381 C 241.1 74.019 240.38 76.607 239.56 79.133 L 231.96 81.342 L 238.02 83.521 C 236.99 86.263 235.85 88.935 234.59 91.525 L 222.06 91.525 L 222.06 94.766 L 232.94 94.766 C 232.12 96.31 231.26 97.819 230.36 99.303 L 222.06 99.303 L 222.06 102.54 L 228.32 102.54 C 220.09 115.01 209.19 125.12 196.71 132.25 C 182.29 125.07 171.38 114.58 163.39 102.54 L 168.16 102.54 L 168.16 99.303 L 161.33 99.303 C 160.42 97.812 159.58 96.294 158.75 94.766 L 168.16 94.766 L 168.16 91.525 L 157.08 91.525 C 155.17 87.647 153.5 83.677 152.07 79.656 L 157.72 78.076 L 150.61 75.232 C 149.88 72.901 149.22 70.562 148.64 68.221 L 159.63 67.471 L 147.07 60.811 C 143.99 43.837 144.61 27.363 147.73 14.967 z M 179.67 47.24 C 170.02 47.24 166.21 57.1 166.05 57.52 L 168.79 58.543 C 168.92 58.201 172.07 50.154 179.68 50.154 C 181.34 50.154 182.51 50.83 183.35 52.275 C 185.32 55.676 184.99 62.383 183.35 69.4 L 170.04 69.4 L 170.04 72.316 L 182.59 72.316 C 181.24 77.104 179.34 81.841 177.21 85.594 L 176.52 86.807 L 193.18 97.287 L 183.8 103.47 L 185.41 105.9 L 195.89 98.992 L 207.2 106.38 L 208.75 103.91 L 198.26 97.42 C 198.26 97.42 213.94 87.231 214.72 86.734 L 214.72 86.715 L 214.73 86.719 C 211.27 81.622 210.17 77.269 211.62 72.316 L 212.81 72.316 L 225.49 72.305 L 225.49 69.402 L 212.75 69.402 C 215.09 63.878 218.38 58.904 230.11 58.904 L 230.11 55.988 C 219.29 55.988 212.81 60.287 209.71 69.402 L 186.35 69.402 C 187.99 62.115 188.27 54.951 185.86 50.811 C 184.5 48.477 182.36 47.24 179.67 47.24 z M 185.61 72.316 L 185.63 72.316 L 208.65 72.316 C 207.61 75.617 208.03 80.59 210.58 84.855 L 180.9 84.855 C 182.71 81.24 184.38 76.831 185.61 72.316 z M 145.74 75.713 C 147.43 81.319 149.5 86.578 151.88 91.525 L 141.92 91.525 L 141.92 94.766 L 153.52 94.766 C 154.33 96.308 155.17 97.824 156.04 99.303 L 141.92 99.303 L 141.92 102.54 L 158.05 102.54 C 167.91 117.84 181.23 129.56 196.31 138.43 C 197.98 137.48 199.61 136.47 201.22 135.42 L 205.15 139.65 L 198.51 149.87 L 209.84 144.7 L 216.39 151.76 L 205.31 160.2 L 220.57 156.25 L 241.16 178.42 L 242.91 178.27 C 253.82 177.34 260.02 183.25 261.66 185.09 C 262.87 186.44 263.59 187.67 263.99 188.63 L 241.91 188.63 C 191.29 162.21 146.84 143.58 99.615 139.52 C 99.719 132.95 100.89 125.51 103.13 117.22 L 98.791 116.04 C 96.483 124.56 95.269 132.28 95.131 139.17 C 90.211 138.85 85.259 138.68 80.264 138.68 C 76.027 138.68 72.167 139.07 68.648 139.76 C 64.059 135.17 60.148 130.8 56.826 126.65 C 62.737 120.49 69.69 114.5 77.301 108.87 L 87.834 116.15 L 84.395 103.87 C 87.599 101.7 90.892 99.616 94.25 97.609 L 109.86 105.54 L 102.53 92.9 C 104.67 91.747 106.82 90.632 108.99 89.555 L 130.8 104.18 L 123.64 82.957 C 131.1 79.949 138.54 77.49 145.74 75.713 z M 183.55 87.771 L 207.62 87.771 L 195.87 95.525 L 183.55 87.771 z M 53.729 129.92 C 56.687 133.58 59.98 137.27 63.6 140.99 C 53.06 144.16 46.149 150.05 41.838 155.25 C 35.022 163.48 31.408 174.35 32.236 183.68 L 14.084 183.68 C 17.731 175.79 32.261 152.97 53.729 129.92 z "></path></svg>