<?xml version="1.0"?>

<!-- Generator: Adobe Illustrator 19.1.0, SVG Export Plug-In . SVG Version: 6.00 Build 0)  -->
<svg version="1.1" id="Layer_1" xmlns="http://www.w3.org/2000/svg" xmlns:xlink="http://www.w3.org/1999/xlink" x="0px" y="0px" width="597.4px" height="184.9px" viewBox="-340 308.1 597.4 184.9" style="enable-background:new -340 308.1 597.4 184.9;" xml:space="preserve">

<path class="st0" d="M-157.8,435.6h322.7v20h-322.7V435.6z"></path>
<path class="st0" d="M-268.7,435.6h84.3v20h-84.3V435.6z"></path>
<path class="st0" d="M-128.1,367.1c-4.1-4.1-10.4-6.5-17.3-6.5c-7.4,0-12,2.2-16.3,6.6v-5.8h-19.5v70.1l-35.4-93.1h-17.8l-34.2,93.9
	h24.1l4.6-14h28.9l4.3,14h25.3v23.2h20.4v-28.3c4,4,8.8,5.9,15.8,5.9c6.9,0,13.1-2.4,17.1-6.5c7-7,6.6-19.4,6.6-29.8
	C-121.5,386.5-121.1,374.1-128.1,367.1z M-233.2,399.1l8.4-25l7.9,25H-233.2z M-152.1,413.7c-8,0-9-6.5-9-16.7
	c0-10.3,0.9-16.8,9-16.8c8,0,9,6.5,9,16.8C-143.1,407.2-144,413.7-152.1,413.7z"></path>
<g>
	<path class="st0" d="M27.1,378v-16.6H15.9v-22.9H-5.7v22.8c-3.1,0-7,0-10.6,0v18.1c0.8,0,1.7,0,2.7,0h7.8v32.2c0,9.8,6.3,21,22,21
		H27v-18.2h-6.9c-2.9,0-4.3-1.6-4.3-4.4v-32H27.1z"></path>
	<g>
		<path class="st0" d="M-89.7,360.7c-18.6,0-31.5,13.2-31.5,36.4c0,30.6,17.8,36.1,33.5,36.1c13.2,0,20.3-4,27.6-11.2L-73,409.1
			c-3.8,3.8-7.1,5.9-14.6,5.9c-8,0-12.5-5.3-12.5-11.1H-58v-9.6C-58.1,375.7-69.1,360.7-89.7,360.7z M-100.2,389.5
			c0-1.7,0.3-3.7,1.2-5.5c1.3-3,4.2-5.5,9.4-5.5c5.1,0,8,2.5,9.4,5.5c0.9,1.9,1.2,3.8,1.2,5.5H-100.2z"></path>
		<path class="st0" d="M-19.7,361.3c-7.4,0-13.8,2.8-16.9,5.9v-5.8h-21.1v70.9h21.6v-42.4c0-8,5.9-9.2,8.7-9.8
			c3.1-0.6,4.5-0.8,10.1-0.7v-18.1C-18.1,361.3-18.9,361.3-19.7,361.3z"></path>
	</g>
</g>
<g>
	<path class="st0" d="M133.6,361.3c0,0-16.8,0-25,0v6.7v5.3v6.3c7.5-0.2,17.1-0.2,23.7-0.2c6.1,0.4,8.7,2.9,8.7,8.7v1.8h-14.4
		c-16.9,0-24.1,9.8-24.1,20.4c0,6.5,2.1,12.4,6.2,16.5c4,3.9,9.9,6.3,17,6.3c7.5,0,11.5-2.1,15.8-6.4v5.8h23.3v-45.7
		C164.9,369.7,153.9,361.3,133.6,361.3z M141,406c0,3.4-0.5,5.6-2.1,7c-2.4,2.2-4.3,2.6-8.6,2.6c-4.8,0-7.1-2.7-7.1-5.9
		c0-3.3,2.6-5.6,6.9-5.6H141V406z"></path>
	<path class="st0" d="M105.7,361.3c-7.3,0-13.7,2.7-16.9,5.9v-5.8l0,0H67.7h-0.5v42.5c0,8.2-5.8,9.7-8.7,9.7s-8.7-1.6-8.7-9.7v-42.5
		H28.2v45.4c0,7.5,1,14.2,7.1,20.3c3.8,3.8,9.2,6.1,16,6.1c5.6,0,12.1-2.2,16.4-6.6v5.8l0,0h21.1h0.5v-42.5c0-8,5.8-9.2,8.7-9.8
		c1.2-0.2,4.9-0.4,9.6-0.5v-7.2v-3.7v-7.5C106.9,361.3,106.3,361.3,105.7,361.3z"></path>
</g>
</svg>
