<?xml version="1.0"?>

<svg xmlns="http://www.w3.org/2000/svg" viewBox="0 0 159 64" height="64" width="159">
   <path d="M 16.73,12 C 14.12,12 12,14.12 12,16.73 v 30.54 c 0,2.6 2.12,4.73 4.73,4.73 H 142.2 c 2.6,0 4.8,-2.13 4.8,-4.73 V 16.73 C 147,14.12 144.8,12 142.2,12 Z m 23.5,6.22 c 0.17,1.51 -0.43,2.99 -1.3,4.09 -0.91,1.07 -2.37,1.9 -3.79,1.79 -0.19,-1.45 0.53,-3 1.34,-3.94 0.91,-1.07 2.49,-1.89 3.75,-1.94 z m 41.81,0.34 h 1.05 v 6.87 h -1.05 z m 17.16,0 h 1 v 5.6 c 0,0.46 0.1,0.89 0.1,1.27 h -0.94 v -0.75 0 c -0.3,0.57 -0.8,0.86 -1.51,0.86 -0.57,0 -1.04,-0.22 -1.42,-0.67 -0.37,-0.44 -0.56,-1.02 -0.56,-1.74 0,-0.76 0.2,-1.38 0.61,-1.85 0.39,-0.44 0.88,-0.66 1.45,-0.66 0.64,0 1.08,0.21 1.33,0.64 v 0 z m 24.2,0 h 1 v 2.84 h 0.1 c 0.3,-0.52 0.8,-0.78 1.4,-0.78 0.4,0 0.8,0.14 1.1,0.43 0.3,0.35 0.5,0.88 0.5,1.58 v 2.8 h -1.1 v -2.68 c 0,-0.84 -0.3,-1.27 -0.9,-1.27 -0.5,0 -0.8,0.25 -1,0.74 0,0.1 -0.1,0.23 -0.1,0.38 v 2.83 h -1 z m -65.92,0.29 c 1.15,0 2.01,0.25 2.59,0.74 0.65,0.57 0.98,1.37 0.98,2.42 0,1.18 -0.35,2.06 -1.06,2.66 -0.65,0.55 -1.58,0.82 -2.78,0.82 -0.6,0 -1.11,0 -1.53,-0.1 v -6.43 c 0.55,-0.1 1.15,-0.13 1.8,-0.13 z m 63.32,0.69 v 1.18 h 1.1 v 0.78 0 h -1.1 v 2.29 c 0,0.59 0.2,0.88 0.6,0.88 0.2,0 0.3,0 0.5,-0.1 v 0.79 c -0.2,0.1 -0.5,0.12 -0.8,0.12 -0.4,0 -0.8,-0.13 -1,-0.38 -0.2,-0.25 -0.3,-0.67 -0.3,-1.27 V 21.5 h -0.7 v -0.78 h 0.7 v -0.86 z m -63.23,0.13 c -0.33,0 -0.61,0 -0.85,0.1 v 4.89 c 0.13,0 0.37,0 0.71,0 0.8,0 1.42,-0.23 1.86,-0.67 0.44,-0.45 0.66,-1.1 0.66,-1.95 0,-0.77 -0.21,-1.35 -0.61,-1.76 -0.4,-0.41 -0.99,-0.61 -1.77,-0.61 z m 73.63,0.94 c 0.7,0 1.2,0.26 1.6,0.76 0.3,0.4 0.4,0.9 0.4,1.48 v 0 c 0,0.19 0,0.35 0,0.48 H 130 c 0,0.46 0.2,0.82 0.5,1.06 0.2,0.22 0.6,0.33 1,0.33 0.5,0 0.9,-0.1 1.3,-0.22 l 0.1,0.73 c -0.4,0.19 -0.9,0.29 -1.5,0.29 -0.8,0 -1.3,-0.21 -1.8,-0.64 -0.4,-0.43 -0.6,-1.01 -0.6,-1.74 0,-0.71 0.2,-1.3 0.6,-1.77 0.4,-0.5 0.9,-0.76 1.6,-0.76 z m -52.64,0 c 0.44,0 0.8,0.15 1.09,0.43 0.37,0.35 0.55,0.87 0.55,1.56 v 2.83 h -1.05 v -2.7 c 0,-0.84 -0.32,-1.25 -0.95,-1.25 -0.31,0 -0.56,0.11 -0.76,0.34 -0.19,0.23 -0.29,0.5 -0.29,0.81 v 2.8 H 76.1 v -3.37 c 0,-0.41 0,-0.86 0,-1.35 h 0.92 l 0.1,0.74 v 0 c 0.13,-0.23 0.31,-0.42 0.55,-0.57 0.28,-0.18 0.6,-0.27 0.95,-0.27 z m 34.64,0 c 0.5,0 0.8,0.15 1.1,0.43 0.4,0.35 0.6,0.87 0.6,1.56 v 2.83 h -1.1 v -2.7 c 0,-0.84 -0.3,-1.25 -0.9,-1.25 -0.3,0 -0.6,0.11 -0.8,0.34 -0.2,0.23 -0.3,0.5 -0.3,0.81 v 2.8 h -1 v -3.37 c 0,-0.41 0,-0.86 -0.1,-1.35 h 1 v 0.74 0 c 0.2,-0.23 0.4,-0.42 0.6,-0.57 0.3,-0.18 0.6,-0.27 0.9,-0.27 z m -48.56,0 c 0.69,0 1.25,0.23 1.67,0.69 0.4,0.45 0.6,1.02 0.6,1.73 0,0.72 -0.21,1.32 -0.62,1.78 -0.44,0.48 -1.01,0.72 -1.73,0.72 -0.69,0 -1.24,-0.23 -1.65,-0.69 -0.41,-0.46 -0.62,-1.04 -0.62,-1.73 0,-0.73 0.21,-1.33 0.64,-1.8 0.42,-0.46 0.99,-0.7 1.71,-0.7 z m 22.35,0 c 0.69,0 1.24,0.23 1.67,0.69 0.4,0.45 0.6,1.02 0.6,1.73 0,0.72 -0.21,1.32 -0.62,1.78 -0.44,0.48 -1.01,0.72 -1.73,0.72 -0.69,0 -1.24,-0.23 -1.65,-0.69 -0.41,-0.46 -0.62,-1.04 -0.62,-1.73 0,-0.73 0.21,-1.33 0.64,-1.8 0.42,-0.46 0.99,-0.7 1.71,-0.7 z m 5.42,0 c 1.23,0 1.85,0.65 1.85,1.95 v 1.74 c 0,0.47 0,0.85 0.1,1.12 h -0.94 l -0.1,-0.54 v 0 c -0.32,0.43 -0.78,0.65 -1.38,0.65 -0.44,0 -0.8,-0.14 -1.07,-0.43 -0.25,-0.25 -0.37,-0.58 -0.37,-0.96 0,-0.57 0.24,-1.01 0.72,-1.32 0.49,-0.3 1.16,-0.45 2.04,-0.44 v -0.1 c 0,-0.62 -0.33,-0.93 -0.98,-0.93 -0.47,0 -0.88,0.12 -1.23,0.35 l -0.22,-0.69 c 0.44,-0.27 0.98,-0.41 1.62,-0.41 z m 14.59,0 c 0.7,0 1.2,0.23 1.6,0.69 0.4,0.45 0.6,1.02 0.6,1.73 0,0.72 -0.2,1.32 -0.6,1.78 -0.4,0.48 -1,0.72 -1.7,0.72 -0.7,0 -1.2,-0.23 -1.7,-0.69 -0.4,-0.46 -0.6,-1.04 -0.6,-1.73 0,-0.73 0.2,-1.33 0.7,-1.8 0.4,-0.46 1,-0.7 1.7,-0.7 z m -39.06,0.1 h 1.07 l 0.53,2.24 c 0.13,0.53 0.24,1.04 0.33,1.51 v 0 c 0.1,-0.39 0.2,-0.89 0.38,-1.5 l 0.67,-2.25 h 0.86 l 0.64,2.2 c 0.15,0.54 0.28,1.06 0.37,1.56 v 0 c 0.1,-0.49 0.18,-1.01 0.32,-1.56 l 0.58,-2.2 h 1.03 l -1.48,4.71 h -0.96 l -0.61,-2.04 c -0.16,-0.51 -0.28,-1.02 -0.38,-1.53 v 0 c -0.1,0.52 -0.22,1.03 -0.38,1.53 l -0.65,2.04 h -0.97 z m 63.26,0.62 c -0.4,0 -0.7,0.14 -0.9,0.43 -0.1,0.22 -0.2,0.5 -0.3,0.81 h 2.2 c 0,-0.31 -0.1,-0.58 -0.2,-0.8 -0.2,-0.29 -0.5,-0.44 -0.8,-0.44 z m -66.6,0.1 c -0.42,0 -0.74,0.19 -0.96,0.56 -0.19,0.31 -0.28,0.69 -0.28,1.14 0,0.44 0.1,0.81 0.28,1.12 0.23,0.38 0.54,0.56 0.95,0.56 0.4,0 0.72,-0.19 0.94,-0.57 0.2,-0.32 0.29,-0.69 0.29,-1.13 0,-0.43 -0.1,-0.81 -0.28,-1.12 -0.22,-0.37 -0.53,-0.56 -0.94,-0.56 z m 22.35,0 c -0.42,0 -0.74,0.19 -0.96,0.56 -0.19,0.31 -0.28,0.69 -0.28,1.14 0,0.44 0.1,0.81 0.28,1.12 0.23,0.38 0.54,0.56 0.95,0.56 0.4,0 0.71,-0.19 0.94,-0.57 0.19,-0.32 0.29,-0.69 0.29,-1.13 0,-0.43 -0.1,-0.81 -0.28,-1.12 -0.22,-0.37 -0.53,-0.56 -0.94,-0.56 z m 19.95,0 c -0.4,0 -0.7,0.19 -0.9,0.56 -0.2,0.31 -0.3,0.69 -0.3,1.14 0,0.44 0.1,0.81 0.3,1.12 0.2,0.38 0.5,0.56 0.9,0.56 0.4,0 0.7,-0.19 1,-0.57 0.2,-0.32 0.3,-0.69 0.3,-1.13 0,-0.43 -0.1,-0.81 -0.3,-1.12 -0.2,-0.37 -0.6,-0.56 -1,-0.56 z m -8.81,0.1 c -0.39,0 -0.7,0.15 -0.92,0.46 -0.23,0.31 -0.34,0.71 -0.34,1.2 0,0.46 0.11,0.84 0.32,1.13 0.23,0.31 0.54,0.47 0.92,0.47 0.34,0 0.62,-0.13 0.83,-0.39 0.2,-0.24 0.3,-0.53 0.3,-0.86 v -0.79 c 0,-0.14 0,-0.25 0,-0.33 -0.1,-0.25 -0.19,-0.46 -0.38,-0.64 -0.19,-0.17 -0.43,-0.25 -0.7,-0.25 z m -4.85,1.65 c -1.15,0 -1.73,0.29 -1.73,0.95 0,0.24 0.1,0.43 0.2,0.55 0.13,0.12 0.31,0.18 0.51,0.18 0.23,0 0.45,-0.1 0.64,-0.21 0.2,-0.15 0.32,-0.34 0.36,-0.56 0,-0.1 0,-0.12 0,-0.19 z m -53.76,1.29 c 0.24,0 0.49,0 0.73,0 0.83,0 3.17,0.33 4.68,2.53 -0.12,0.1 -2.79,1.64 -2.76,4.86 0,3.87 3.38,5.14 3.42,5.16 0,0.1 -0.53,1.84 -1.78,3.62 -1.05,1.57 -2.15,3.1 -3.89,3.13 -1.7,0 -2.27,-1 -4.21,-1 -1.96,0 -2.57,0.97 -4.19,1.04 -1.66,0.1 -2.93,-1.67 -4.02,-3.23 -2.17,-3.17 -3.86,-8.93 -1.59,-12.86 1.1,-1.92 3.1,-3.16 5.24,-3.19 1.66,0 3.2,1.12 4.23,1.12 0.87,0 2.44,-1.06 4.14,-1.19 z M 96.51,30 c 1.21,0 2.21,0.21 3.02,0.63 l -0.54,1.74 c -0.75,-0.41 -1.6,-0.61 -2.54,-0.61 -0.75,0 -1.34,0.19 -1.76,0.55 -0.36,0.33 -0.53,0.73 -0.53,1.21 0,0.52 0.2,0.96 0.61,1.3 0.35,0.32 1,0.66 1.93,1.03 1.15,0.46 1.99,1 2.53,1.62 0.54,0.61 0.77,1.38 0.77,2.3 0,1.13 -0.35,2.05 -1.14,2.77 -0.87,0.77 -2.08,1.16 -3.63,1.16 -1.43,0 -2.58,-0.28 -3.45,-0.83 l 0.5,-1.77 c 0.93,0.56 1.96,0.85 3.08,0.85 0.8,0 1.43,-0.19 1.88,-0.55 0.44,-0.36 0.67,-0.85 0.67,-1.45 0,-0.54 -0.19,-1 -0.56,-1.37 -0.36,-0.37 -0.98,-0.71 -1.83,-1.02 -2.33,-0.87 -3.5,-2.15 -3.5,-3.82 0,-1.1 0.41,-1.99 1.23,-2.69 0.81,-0.7 1.9,-1.05 3.26,-1.05 z m -37.82,0.2 h 2.65 l 4.3,13.3 h -2.27 l -1.24,-3.9 h -4.32 l -1.19,3.9 h -2.21 z m 46.01,1.32 v 2.39 h 2.4 v 1.6 h -2.4 v 4.66 c 0,1.18 0.5,1.77 1.3,1.77 0.4,0 0.7,0 0.9,-0.1 l 0.1,1.62 c -0.4,0.15 -1,0.23 -1.7,0.23 -0.8,0 -1.5,-0.26 -1.9,-0.77 -0.5,-0.51 -0.8,-1.37 -0.8,-2.59 V 35.5 h -1.4 v -1.6 h 1.4 v -1.76 z m -44.78,0.45 c -0.13,0.57 -0.34,1.41 -0.63,2.51 l -1.11,3.48 h 3.58 l -1.13,-3.48 c -0.12,-0.35 -0.34,-1.19 -0.67,-2.51 z m 70.28,1.72 c 1.4,0 2.4,0.52 3.1,1.54 0.6,0.82 0.9,1.83 0.9,3.02 v 0 c 0,0.38 -0.1,0.71 -0.1,0.97 h -6.4 c 0,0.95 0.3,1.67 0.9,2.17 0.5,0.45 1.2,0.67 2.1,0.67 0.9,0 1.8,-0.15 2.6,-0.45 l 0.3,1.48 c -0.9,0.4 -2,0.59 -3.2,0.59 -1.5,0 -2.7,-0.44 -3.5,-1.31 -0.9,-0.88 -1.3,-2.05 -1.3,-3.52 0,-1.45 0.4,-2.66 1.2,-3.62 0.8,-1.02 2,-1.54 3.4,-1.54 z m -57.51,0 c 1.14,0 2.08,0.45 2.84,1.34 0.75,0.9 1.13,2.08 1.13,3.54 0,1.63 -0.44,2.92 -1.32,3.87 -0.79,0.84 -1.77,1.26 -2.94,1.26 -1.27,0 -2.18,-0.45 -2.73,-1.36 v 0 5.05 H 67.5 V 37.07 c 0,-1.03 0,-2.08 -0.1,-3.16 h 1.88 l 0.11,1.52 v 0 c 0.71,-1.15 1.79,-1.72 3.23,-1.72 z m 11.04,0 c 1.13,0 2.08,0.45 2.83,1.34 0.76,0.9 1.14,2.08 1.14,3.54 0,1.63 -0.44,2.92 -1.33,3.87 -0.78,0.84 -1.77,1.26 -2.94,1.26 -1.26,0 -2.17,-0.45 -2.72,-1.36 v 0 5.05 H 78.54 V 37.07 c 0,-1.03 0,-2.08 -0.1,-3.16 h 1.87 l 0.12,1.52 v 0 c 0.71,-1.15 1.79,-1.72 3.24,-1.72 z m 40.37,0 c 0.2,0 0.4,0 0.5,0 v 2.03 c -0.2,0 -0.4,-0.1 -0.6,-0.1 -0.8,0 -1.4,0.29 -1.8,0.85 -0.3,0.5 -0.5,1.14 -0.5,1.9 v 5.03 h -2.2 l 0.1,-6.57 c 0,-1.11 -0.1,-2.11 -0.1,-3.02 h 1.8 l 0.1,1.83 h 0.1 c 0.2,-0.63 0.6,-1.13 1.1,-1.52 0.4,-0.34 0.9,-0.51 1.5,-0.51 z m -11,0 c 1.4,0 2.5,0.47 3.4,1.4 0.8,0.91 1.2,2.08 1.2,3.52 0,1.47 -0.4,2.68 -1.3,3.63 -0.9,0.97 -2,1.46 -3.5,1.46 -1.4,0 -2.5,-0.47 -3.4,-1.4 -0.8,-0.94 -1.2,-2.12 -1.2,-3.54 0,-1.48 0.4,-2.7 1.3,-3.65 0.8,-0.95 2,-1.42 3.5,-1.42 z m 16.9,1.46 c -0.7,0 -1.3,0.29 -1.7,0.87 -0.3,0.46 -0.6,1.01 -0.6,1.66 h 4.4 c 0,-0.64 -0.1,-1.18 -0.4,-1.64 -0.4,-0.59 -0.9,-0.89 -1.7,-0.89 z m -17,0.1 c -0.9,0 -1.5,0.38 -2,1.15 -0.3,0.63 -0.5,1.4 -0.5,2.31 0,0.89 0.2,1.65 0.5,2.28 0.5,0.77 1.1,1.15 2,1.15 0.8,0 1.4,-0.39 1.9,-1.17 0.4,-0.64 0.6,-1.41 0.6,-2.3 0,-0.88 -0.2,-1.64 -0.6,-2.27 -0.4,-0.77 -1.1,-1.15 -1.9,-1.15 z m -41,0.14 c -0.52,0 -1,0.17 -1.43,0.52 -0.43,0.35 -0.71,0.81 -0.84,1.37 -0.1,0.27 -0.1,0.48 -0.1,0.65 v 1.6 c 0,0.7 0.22,1.29 0.64,1.77 0.43,0.48 0.99,0.72 1.67,0.72 0.81,0 1.43,-0.31 1.88,-0.93 0.45,-0.62 0.67,-1.43 0.67,-2.45 0,-0.93 -0.21,-1.7 -0.63,-2.31 C 73.4,35.72 72.78,35.41 72,35.41 Z m 11.04,0 c -0.53,0 -1,0.17 -1.43,0.52 -0.43,0.35 -0.71,0.81 -0.84,1.37 -0.1,0.27 -0.1,0.48 -0.1,0.65 v 1.6 c 0,0.7 0.21,1.29 0.64,1.77 0.43,0.48 0.98,0.72 1.67,0.72 0.8,0 1.43,-0.31 1.88,-0.93 0.44,-0.62 0.67,-1.43 0.67,-2.45 0,-0.93 -0.21,-1.7 -0.64,-2.31 -0.46,-0.63 -1.07,-0.94 -1.85,-0.94 z"></path>
   </svg>