<?xml version="1.0"?>

<!-- Generator: Adobe Illustrator 19.2.0, SVG Export Plug-In . SVG Version: 6.00 Build 0)  -->
<svg version="1.1" id="Layer_1" xmlns="http://www.w3.org/2000/svg" xmlns:xlink="http://www.w3.org/1999/xlink" x="0px" y="0px" width="158.333px" height="68px" viewBox="0 0 158.333 68" enable-background="new 0 0 158.333 68" xml:space="preserve">
<path d="M48.019,28.911c0.069,7.147,6.473,9.525,6.544,9.556c-0.054,0.168-1.023,3.389-3.374,6.717
	c-2.032,2.877-4.141,5.743-7.464,5.803c-3.265,0.058-4.314-1.875-8.047-1.875c-3.731,0-4.898,1.816-7.988,1.933
	c-3.207,0.118-5.649-3.111-7.698-5.977c-4.187-5.863-7.387-16.568-3.09-23.794c2.134-3.588,5.949-5.861,10.089-5.919
	c3.149-0.058,6.122,2.052,8.047,2.052c1.924,0,5.536-2.538,9.334-2.165c1.59,0.064,6.052,0.622,8.917,4.685
	C53.057,20.064,47.963,22.936,48.019,28.911"></path>
<path d="M41.883,11.362c1.703-1.996,2.849-4.775,2.536-7.54c-2.454,0.096-5.422,1.584-7.182,3.579
	c-1.578,1.767-2.959,4.595-2.586,7.305C37.386,14.911,40.181,13.359,41.883,11.362"></path>
<path id="path2995" d="M66.526,7.944c1.262-0.213,2.654-0.404,4.176-0.574c1.522-0.17,3.196-0.255,5.024-0.255
	c2.609,0,4.86,0.308,6.752,0.924c1.892,0.616,3.447,1.497,4.664,2.645c1.045,1.019,1.86,2.23,2.447,3.632
	c0.587,1.402,0.88,3.017,0.88,4.843c0,2.209-0.402,4.142-1.206,5.799c-0.804,1.657-1.902,3.048-3.294,4.173
	c-1.392,1.125-3.044,1.964-4.958,2.516c-1.914,0.552-4.002,0.828-6.263,0.828c-2.044,0-3.761-0.148-5.152-0.445v18.352h-3.068V7.944
	z M69.594,29.356c0.739,0.211,1.565,0.359,2.479,0.444c0.913,0.085,1.891,0.127,2.935,0.127c3.914,0,6.948-0.892,9.1-2.676
	c2.153-1.784,3.229-4.396,3.229-7.837c0-1.657-0.283-3.101-0.848-4.334c-0.565-1.232-1.37-2.241-2.413-3.027
	c-1.043-0.786-2.283-1.38-3.718-1.784c-1.435-0.404-3.023-0.606-4.763-0.606c-1.391,0-2.587,0.053-3.588,0.159
	c-1.001,0.106-1.805,0.223-2.413,0.35L69.594,29.356z"></path>
<path id="path2998" d="M114.856,43.119c0,1.233,0.022,2.465,0.065,3.697c0.043,1.232,0.174,2.421,0.391,3.569h-2.871l-0.456-4.333
	h-0.131c-0.392,0.595-0.892,1.19-1.5,1.784c-0.609,0.594-1.315,1.136-2.119,1.625c-0.804,0.489-1.718,0.882-2.74,1.179
	c-1.023,0.297-2.143,0.445-3.36,0.445c-1.522,0-2.86-0.244-4.013-0.732c-1.153-0.488-2.099-1.125-2.838-1.912
	c-0.739-0.786-1.294-1.689-1.663-2.708c-0.37-1.019-0.554-2.039-0.554-3.059c0-3.611,1.555-6.393,4.665-8.348
	c3.11-1.954,7.796-2.889,14.06-2.803v-0.828c0-0.808-0.076-1.732-0.229-2.773c-0.153-1.041-0.49-2.029-1.011-2.963
	c-0.522-0.934-1.304-1.72-2.348-2.357c-1.044-0.637-2.458-0.956-4.242-0.956c-1.347,0-2.684,0.202-4.011,0.605
	c-1.327,0.403-2.533,0.966-3.62,1.688l-0.98-2.231c1.392-0.933,2.828-1.602,4.306-2.006c1.479-0.404,3.022-0.606,4.631-0.606
	c2.175,0,3.948,0.361,5.318,1.083c1.37,0.722,2.446,1.657,3.229,2.803c0.783,1.147,1.316,2.432,1.599,3.855
	c0.283,1.424,0.424,2.836,0.424,4.238L114.856,43.119z M111.79,34.008c-1.654-0.043-3.383,0.021-5.187,0.191
	c-1.804,0.17-3.468,0.542-4.99,1.115c-1.522,0.574-2.784,1.413-3.784,2.517c-1,1.105-1.5,2.57-1.5,4.397
	c0,2.166,0.63,3.76,1.891,4.779c1.261,1.02,2.674,1.53,4.241,1.53c1.261,0,2.391-0.17,3.391-0.51c1-0.34,1.87-0.797,2.609-1.37
	c0.739-0.573,1.359-1.221,1.859-1.943c0.5-0.722,0.881-1.466,1.143-2.231c0.218-0.85,0.326-1.467,0.327-1.849L111.79,34.008z"></path>
<path d="M120.854,19.796l7.958,19.883c0.435,1.105,0.849,2.241,1.24,3.409c0.392,1.168,0.739,2.241,1.043,3.219h0.131
	c0.304-0.935,0.652-1.986,1.043-3.154c0.392-1.168,0.826-2.369,1.304-3.602l7.438-19.755h3.261l-9.067,22.433
	c-0.915,2.379-1.774,4.535-2.578,6.468c-0.804,1.933-1.62,3.675-2.446,5.226c-0.826,1.551-1.663,2.921-2.512,4.11
	c-0.848,1.19-1.794,2.23-2.839,3.122c-1.217,1.062-2.337,1.837-3.359,2.326c-1.022,0.489-1.707,0.797-2.055,0.924l-1.045-2.485
	c0.783-0.34,1.653-0.786,2.61-1.338c0.957-0.552,1.892-1.274,2.805-2.166c0.783-0.765,1.642-1.774,2.577-3.027
	c0.935-1.253,1.772-2.772,2.512-4.557c0.261-0.679,0.392-1.125,0.392-1.338c0-0.297-0.131-0.743-0.392-1.338L117.59,19.796H120.854z
	"></path>
</svg>
