<?xml version="1.0"?>
<!--?xml version="1.0" encoding="UTF-8" standalone="no"?-->
<svg version="1.1" xmlns="http://www.w3.org/2000/svg" xmlns:xlink="http://www.w3.org/1999/xlink" width="200" height="150" viewBox="-10 -10 510 590">
                                    <path d="M380.844,297.529c0.787,84.751,74.349,112.954,75.164,113.314c-0.622,1.989-11.754,40.192-38.756,79.653
    c-23.342,34.116-47.568,68.107-85.731,68.811c-37.499,0.691-49.557-22.237-92.429-22.237c-42.859,0-56.256,21.533-91.753,22.928
    c-36.837,1.394-64.888-36.892-88.424-70.883C10.822,419.585-25.931,292.64,23.419,206.95
    c24.516-42.554,68.328-69.501,115.882-70.192c36.173-0.69,70.316,24.336,92.429,24.336c22.099,0,63.59-30.096,107.208-25.676
    c18.26,0.76,69.516,7.376,102.429,55.552C438.715,192.614,380.208,226.674,380.844,297.529 M310.369,89.418
  C329.926,65.745,343.089,32.79,339.498,0c-28.19,1.133-62.278,18.785-82.498,42.445c-18.121,20.952-33.991,54.487-29.709,86.628
  C258.712,131.504,290.811,113.106,310.369,89.418"></path>
                                </svg>
