<?xml version="1.0"?>

<svg xmlns="http://www.w3.org/2000/svg" viewBox="0 0 765 532.5" height="532.5" width="765">
   
  <path d="m 742.4,450.8 c 0,10.4 -1.2,19.4 -3.7,26.9 -2.5,7.5 -5.9,13.7 -10.3,18.5 -4.4,4.9 -9.6,8.5 -15.4,10.8 -5.9,2.3 -12.2,3.5 -18.9,3.5 -15.6,0 -27.2,-5 -35.1,-15 -7.8,-10 -11.8,-24.5 -11.8,-43.6 0,-10.4 1.2,-19.4 3.8,-26.9 2.5,-7.5 5.9,-13.7 10.3,-18.5 4.3,-4.9 9.5,-8.5 15.4,-10.8 5.9,-2.4 12.1,-3.5 18.8,-3.5 15.6,0 27.3,5 35.2,15 7.9,9.9 11.7,24.5 11.7,43.6 z m -23.5,1.1 c 0,-13.6 -1.8,-23.7 -5.6,-30.3 -3.7,-6.7 -9.9,-10 -18.5,-10 -4.2,0 -7.9,0.9 -11,2.6 -2.9,1.7 -5.5,4.3 -7.4,7.5 -1.9,3.4 -3.3,7.5 -4.3,12.3 -0.9,4.9 -1.4,10.5 -1.4,16.8 0,13.6 2,23.6 5.7,30.3 3.8,6.7 9.9,9.9 18.4,9.9 4.3,0 8,-0.7 11,-2.5 3.1,-1.7 5.6,-4.2 7.5,-7.6 2,-3.3 3.4,-7.4 4.3,-12.3 0.8,-4.9 1.3,-10.4 1.3,-16.7 z m -110.1,56.5 -31.7,-68.2 -6.6,-14.6 0,47.3 0,35.5 -20.2,0 0,-114.3 27.4,0 32.2,68.7 5.7,13.4 0,-50.5 0,-31.6 20.3,0 0,114.3 z m -155.5,-96.7 0,-17.6 74.7,0 0,17.6 -26.1,0 0,79 26.1,0 0,17.7 -74.7,0 0,-17.7 26,0 0,-79 z m -21.7,54.7 c 0,7.3 -1,13.7 -3,19.2 -2.1,5.5 -4.9,10.2 -8.7,13.8 -3.7,3.6 -8.4,6.4 -13.8,8.3 -5.5,1.8 -11.5,2.8 -18.3,2.8 -7.6,0 -14.1,-1 -19.5,-2.8 -5.5,-1.9 -9.9,-4.6 -13.3,-8 -3.3,-3.6 -5.8,-7.8 -7.3,-12.8 -1.5,-5 -2.2,-10.7 -2.2,-16.9 l 0,-75.9 22.3,0 0,74.5 c 0,4 0.3,7.3 1,10.3 0.7,3 1.8,5.6 3.5,7.6 1.8,2.1 3.9,3.7 6.5,4.6 2.7,1.1 5.9,1.6 9.8,1.6 3.7,0 6.8,-0.4 9.4,-1.4 2.5,-0.9 4.5,-2.3 6.3,-4.3 1.7,-2.1 2.9,-4.6 3.7,-7.8 0.9,-3.1 1.3,-6.9 1.3,-11.4 l 0,-73.7 22.3,0 z m -99,-16.6 c 0,8.9 -1.2,17 -3.4,24.2 -2.2,7.2 -5.8,13.4 -10.6,18.5 -4.8,5.1 -11,9.1 -18.4,11.8 -7.5,2.8 -16.4,4.1 -26.9,4.1 l -30,0 0,-114.3 35,0 c 9,0 16.9,1.1 23.8,3.3 6.8,2.2 12.4,5.6 16.9,10.1 4.5,4.6 8,10.3 10.2,17.4 2.2,7 3.4,15.3 3.4,24.9 z m -23.9,1.4 c 0,-6.2 -0.5,-11.7 -1.6,-16.5 -1,-4.8 -2.7,-8.9 -5.1,-12.3 -2.5,-3.3 -5.7,-5.9 -9.9,-7.7 -4.1,-1.7 -9.2,-2.5 -15.3,-2.5 l -11.3,0 0,78.2 9.8,0 c 10.9,0 19.2,-3.1 24.9,-9.4 5.6,-6.3 8.5,-16.2 8.5,-29.8 z m -104,57.2 -16.6,-36.6 c -1.7,-3.6 -3.8,-6.2 -6.7,-8 -2.7,-1.8 -6.1,-2.6 -9.8,-2.6 l -4.3,0 0,47.2 -22.3,0 0,-114.3 34.5,0 c 6.5,0 12.4,0.6 17.8,1.7 5.3,1.1 9.8,2.8 13.5,5.3 3.8,2.5 6.6,5.8 8.7,9.8 2,4 3,9 3,14.8 0,4.2 -0.6,7.9 -1.9,11.2 -1.2,3.3 -3.1,6.1 -5.3,8.4 -2.3,2.4 -5.1,4.3 -8.2,5.8 -3.2,1.4 -6.6,2.5 -10.4,3.1 2.9,0.6 5.6,2.1 8,4.7 2.4,2.6 4.8,6.4 7.3,11.3 l 18.9,38.2 z m -5.6,-80.6 c 0,-5.6 -1.8,-9.6 -5.5,-12.1 -3.6,-2.4 -9.2,-3.6 -16.5,-3.6 l -9.8,0 0,32.2 9.1,0 c 3.4,0 6.5,-0.4 9.3,-1 2.9,-0.7 5.2,-1.7 7.2,-3.2 2,-1.4 3.6,-3.1 4.6,-5.2 1.1,-2.1 1.6,-4.4 1.6,-7.1 z m -90.9,80.6 -6.5,-22.5 -41.3,0 -6.71,22.5 -22.08,0 35.03,-114.3 31.14,0 35.02,114.3 z m -26.89,-93.3 -15.57,53.2 30.95,0 z M 705.1,51.29 l 0,-13.56 -5.2,0 0,-2.36 13,0 0,2.36 -5.2,0 0,13.56 z m 9.6,0 0,-15.92 3.9,0 4,12.71 3.9,-12.71 3.8,0 0,15.92 -2.4,0 0,-13.36 -4.1,13.36 -2.4,0 -4.3,-13.56 0,13.56 z m -174.9,84.61 0,32.5 -32.6,0 0,37.3 32.6,0 0,32.8 11.8,0 25.6,0 0,-32.8 32.6,0 0,-37.3 -32.6,0 0,-32.5 -37.4,0 z m -390.9,33.9 0,34.7 11.8,0 95.2,0 0,-34.7 -107,0 z M 197.5,22 C 101.5,22 22,97.83 22,192 c 0,94.2 79.5,170 175.5,170 54.3,2.4 98.1,-17.9 130.2,-47.5 21.9,-20.2 39.1,-44 54.8,-68.3 15.7,24.3 32.9,48.1 54.8,68.3 32.1,29.6 75.9,49.9 130.2,47.5 C 663.5,362 743,286.2 743,192 743,97.83 663.5,22 567.5,22 510.3,22 465,44.24 431.7,75.13 412.4,92.97 396.7,113.3 382.5,134.2 368.3,113.3 352.6,92.97 333.3,75.13 300,44.24 254.8,22 197.5,22 Z m 0,60 c 42.8,0 70,14.01 95.1,37.2 19.9,18.3 37.3,43.3 54.5,70.6 -19.7,31.8 -38.7,60.9 -60.1,80.6 -23.6,21.7 -48,33.7 -87.9,31.6 l -0.8,0 -0.8,0 C 132.7,302 82,252.5 82,192 82,131.5 132.7,82 197.5,82 Z m 370,0 c 64.8,0 115.5,49.5 115.5,110 0,60.5 -50.7,110 -115.5,110 l -0.8,0 -0.8,0 C 526,304.1 501.6,292.1 478,270.4 456.6,250.7 437.6,221.6 417.9,189.8 435.1,162.5 452.5,137.5 472.4,119.2 497.5,96.01 524.7,82 567.5,82 Z"></path>
</svg>
