<?xml version="1.0"?>

<svg xmlns="http://www.w3.org/2000/svg" viewBox="0 0 1071 283.9" height="283.9" width="1071"><path d="m 1035,122.2 c -1,-0.5 -2,-0.7 -4,-0.7 l -3,0 0,6.7 3,0 c 2,0 3,-0.1 3,-0.4 2,-0.5 2,-1.5 2,-2.9 0,-1.3 0,-2.2 -1,-2.7 m -4,-2.9 c 3,0 4,0.2 6,0.7 1,0.8 2,2.3 2,4.6 0,1.7 0,2.9 -1,3.7 -1,0.4 -2,0.7 -3,0.9 1,0.2 2,0.8 3,1.8 1,0.9 1,1.9 1,2.8 l 0,1.4 c 0,0.4 0,0.8 0,1.3 0,0.5 0,0.8 0,1 l 0,0.2 -3,0 c 0,-0.1 0,-0.1 0,-0.2 0,0 0,-0.1 0,-0.2 l 0,-0.5 0,-1.5 c 0,-2.1 0,-3.5 -2,-4.2 0,-0.4 -1,-0.6 -3,-0.6 l -3,0 0,7.2 -3,0 0,-18.4 6,0 z m -9,-0.9 c -3,2.8 -5,6.2 -5,10.2 0,4 2,7.4 5,10.3 2,2.8 6,4.2 10,4.2 4,0 7,-1.4 10,-4.2 3,-2.9 4,-6.3 4,-10.3 0,-4 -1,-7.4 -4,-10.2 -3,-2.9 -6,-4.3 -10,-4.3 -4,0 -8,1.4 -10,4.3 m 22,22.1 c -4,3.3 -8,4.9 -12,4.9 -5,0 -9,-1.6 -12,-4.9 -3,-3.3 -5,-7.3 -5,-11.9 0,-4.7 2,-8.6 5,-11.9 3,-3.3 7,-4.9 12,-4.9 4,0 8,1.6 12,4.9 3,3.3 5,7.2 5,11.9 0,4.6 -2,8.6 -5,11.9 m -254.8,-1.2 c 2.9,-2.4 14.1,-9.1 28.2,-9.1 27.4,0 40,21.1 40,49.6 l 0,44.7 c 0,13.8 0.4,25 -11.5,31.9 l 0,1.6 50.8,0 0,-1.6 c -12.5,-7.1 -11.6,-17.8 -11.6,-31.9 l 0,-50.9 c 0,-34.9 -20.1,-58.9 -53.2,-58.9 -24.8,0 -39.3,19.5 -42.7,24.6 m -6.1,85 c 0,14 -0.6,25.9 11.5,32.1 l 0,1.6 -50.8,0 0,-1.6 c 12.9,-6.9 11.6,-18.1 11.6,-32.1 l 0,-72.8 c 0,-14 1.1,-22.5 -11.3,-27.2 l 0,-1.7 36.3,-6.5 2.7,0 0,108.2 z M 616.4,183.2 c 0,36.5 18.4,59.1 52.3,59.1 24.7,0 38.4,-12.8 42,-16.5 l 1.9,0 -7.7,28.6 c -5.2,2 -17.6,7.6 -39.9,7.6 -47.2,0 -78.1,-31.6 -78.1,-73.9 0,-42.3 26.5,-74 69.4,-74 37.8,0 63.6,29.8 62.5,69.1 l -102.4,0 z m 73.7,-17.7 c -2.7,-18.5 -14.5,-31.8 -36.3,-31.8 -18.6,0 -33.4,13.7 -36.3,31.8 l 72.6,0 z M 957,211.6 c 0,17.9 7.1,30.3 29,30.3 5.7,0 9.3,-2.3 10.5,-3.1 l 1.6,0 -14.7,22.2 c -1.7,0.4 -5.3,1 -11.2,1 -28.8,0 -42.9,-19.3 -42.9,-50.3 l 0,-67 c 0,-15.3 -12.5,-20.4 -20.7,-20.4 l 0,-1.7 46.7,-38.87 1.7,0 0,35.57 26.3,0 c 12.2,0 16,-2.3 17.7,-3.2 l 2,0 -13.2,25.1 -32.8,0 0,70.4 z M 567.3,149.5 c -6.8,-6.7 -19.2,-15.8 -39.5,-15.8 -33.9,0 -54.4,23.3 -54.4,54.2 0,31.8 21.2,54.4 54.4,54.4 22.4,0 35.7,-12.1 38.1,-14.9 l 1.9,0 -5.7,28.9 c -6.2,2.1 -22.7,5.7 -36.4,5.7 -49.1,0 -81.9,-30.4 -81.9,-74 0,-46.6 36,-73.9 81.9,-73.9 10.6,0 27.7,2.5 38.9,6.1 l 2.7,29.3 z m -156.9,74.8 c 0,14 -0.6,25.9 11.6,32.1 l 0,1.6 -50.8,0 0,-1.6 c 12.9,-6.9 11.4,-18.1 11.4,-32.1 l 0,-72.8 c 0,-14 1.2,-22.5 -11.2,-27.2 l 0,-1.7 36.3,-6.5 2.7,0 0,108.2 z M 396.5,79.47 c -10.9,0 -19.1,-8.51 -19.1,-19.4 0,-10.28 9.4,-17.35 19.1,-17.35 10,0 17.6,8.55 17.6,18.23 0,9.71 -7.6,18.52 -17.6,18.52 M 90.31,198.9 c 20.09,-50 53.09,-49.6 61.09,-50.5 -1.6,-0.4 -9.1,-2.6 -19.8,-2.6 -39.96,0 -55.95,22.9 -71.28,54.9 -2.94,6 -8.94,18.5 -8.94,18.5 -7.46,16.2 -12.93,29.9 -29.32,37.2 l 0,1.6 62.25,0 0,-1.6 c -7.6,-1.8 -11.06,-5.6 -11.06,-10.7 0,-4.5 2.26,-10.3 5.33,-17.8 l 11.73,-29 z M 127,62.41 l 19.4,-40.36 78,190.65 c 7.2,17.8 13.5,34.9 30.7,43.7 l 0,1.6 -67.1,0 0,-1.6 c 7.1,-2.5 11.1,-4.8 11.1,-10.2 0,-4.9 -2.6,-10.9 -6.6,-21.4 L 127,62.41 Z m 173.9,53.69 2.7,0 0,21.1 c 2,-4.9 11.5,-23.1 39.4,-23.1 7.5,0 12,1.6 12.6,1.9 l 0,25.4 c -2,-0.9 -10,-4.3 -19.9,-4.3 -19.3,0 -32.1,11.9 -32.1,35 l 0,52.2 c 0,14 -0.5,25.9 11.6,32.1 l 0,1.6 -50.8,0 0,-1.6 c 12.8,-6.9 11.5,-18.1 11.5,-32.1 l 0,-72.8 c 0,-14 1.2,-22.5 -11.2,-27.2 l 0,-1.7 36.2,-6.5 z"></path> </svg>