<?xml version="1.0"?>

<!-- Generator: Adobe Illustrator 19.1.0, SVG Export Plug-In . SVG Version: 6.00 Build 0)  -->
<svg version="1.1" id="Layer_1" xmlns="http://www.w3.org/2000/svg" xmlns:xlink="http://www.w3.org/1999/xlink" x="0px" y="0px" width="390px" height="200px" viewBox="105 0 390 200" enable-background="new 105 0 390 200" xml:space="preserve">
<path d="M120.907,150.501c1.618-3.016,2.767-6.243,4.194-9.345c0.727-1.581,1.407-3.184,2.097-4.782
	c0.779-1.802,1.898-3.218,4.061-3.198c2.137,0.02,3.288,1.416,4.077,3.207c1.586,3.599,3.172,7.198,4.743,10.803
	c0.437,1.002,0.861,2.012,1.226,3.041c0.427,1.206,0.307,2.281-1,2.902c-1.309,0.622-2.846,0.23-3.597-0.897
	c-0.081-0.122-0.162-0.262-0.185-0.405c-0.372-2.396-1.978-2.707-4.017-2.496c-1.234,0.129-2.501,0.117-3.737-0.001
	c-1.306-0.125-1.947,0.33-2.376,1.592c-0.734,2.163-2.081,2.821-3.991,2.3c-0.614-0.167-0.911-0.761-1.499-0.921
	C120.907,151.701,120.907,151.101,120.907,150.501z M131.254,138.293c-0.876,2.251-1.613,4.193-2.391,6.119
	c-0.276,0.684,0.066,0.766,0.6,0.764c1.191-0.004,2.383-0.009,3.574,0.001c0.602,0.005,0.801-0.197,0.56-0.806
	C132.839,142.455,132.112,140.525,131.254,138.293z"></path>
<path d="M481.146,152.6c-0.797,0.456-1.467,1.195-2.483,1.171c-1.224-0.029-2.27-0.422-2.745-1.653
	c-0.379-0.982-0.127-1.87,0.717-2.518c1.101-0.844,2.297-0.862,3.493-0.229c0.379,0.201,0.68,0.549,1.016,0.829
	C481.146,151.001,481.146,151.801,481.146,152.6z"></path>
<path d="M343.828,150.903c0.075,1.526-0.677,2.221-1.895,2.446c-1.304,0.241-2.672-0.116-2.97-1.392
	c-0.631-2.711-2.448-2.777-4.59-2.616c-1.192,0.09-2.402,0.091-3.594-0.005c-1.102-0.089-1.593,0.375-1.957,1.367
	c-0.791,2.158-1.492,2.681-3.123,2.622c-1.965-0.07-2.795-1.085-2.15-2.948c0.699-2.02,1.613-3.966,2.462-5.932
	c1.186-2.746,2.417-5.472,3.591-8.222c0.741-1.736,1.86-2.998,3.859-3.044c2.066-0.047,3.301,1.206,4.081,2.97
	c1.977,4.467,3.929,8.945,5.892,13.418c0.076,0.174,0.157,0.345,0.329,0.717c0.566-0.951,0.964-1.918,2.03-2.113
	c0.964-0.177,1.877,0.134,2.798,0.367c1.392,0.352,2.746,1.022,4.237,0.664c0.865-0.209,1.875-0.385,1.998-1.5
	c0.126-1.132-0.84-1.508-1.653-1.852c-0.774-0.326-1.611-0.505-2.423-0.741c-0.67-0.195-1.349-0.36-2.015-0.57
	c-3.023-0.95-4.199-2.266-4.334-4.824c-0.13-2.477,1.112-4.554,3.708-5.58c3.123-1.235,6.325-1.227,9.475,0.079
	c1.232,0.511,1.845,1.401,1.49,2.718c-0.345,1.281-1.462,1.404-2.537,1.325c-0.939-0.069-1.862-0.331-2.797-0.477
	c-0.49-0.077-0.999-0.167-1.484-0.114c-0.887,0.097-1.95,0.179-2.127,1.272c-0.201,1.247,0.954,1.306,1.768,1.605
	c1.731,0.635,3.583,0.89,5.268,1.673c2.057,0.957,3.398,2.436,3.454,4.808c0.057,2.397-0.881,4.289-3.063,5.4
	c-4.088,2.082-8.19,1.7-12.27-0.062C344.716,152.112,344.349,151.631,343.828,150.903z M330.975,145.177
	c1.55,0,2.987,0.003,4.424-0.001c0.436-0.001,0.827-0.03,0.579-0.664c-0.769-1.957-1.52-3.921-2.407-6.216
	c-0.842,2.165-1.543,3.957-2.236,5.753C331.214,144.363,331.129,144.692,330.975,145.177z"></path>
<path d="M176.033,145.207c0-3.239-0.012-6.071,0.004-8.905c0.011-1.957,0.729-2.698,2.556-2.707c1.903-0.01,2.655,0.757,2.66,2.775
	c0.01,4.693-0.001,9.385,0.006,14.078c0.003,1.214-0.182,2.325-1.496,2.808c-1.357,0.5-2.527,0.199-3.532-0.866
	c-2.806-2.971-5.624-5.93-8.454-8.877c-0.43-0.447-0.776-1.014-1.573-1.324c0,2.922,0.024,5.745-0.009,8.567
	c-0.021,1.863-1.002,2.782-2.796,2.728c-1.562-0.046-2.512-0.802-2.533-2.355c-0.067-5.092-0.1-10.185-0.007-15.275
	c0.035-1.932,2.04-2.823,3.936-1.903c0.67,0.325,1.246,0.782,1.772,1.342C169.607,138.519,172.685,141.708,176.033,145.207z"></path>
<path d="M238.484,143.534c0.002-5.027,2.996-8.782,7.909-9.862c4.373-0.961,8.549-0.534,11.913,2.642
	c3.089,2.917,3.622,6.658,2.382,10.638c-1.201,3.856-4.159,5.705-7.879,6.518c-2.635,0.575-5.264,0.416-7.811-0.534
	C240.773,151.361,238.483,148.042,238.484,143.534z M244.202,143.539c0.015,3.689,2.238,6.025,5.747,6.035
	c3.276,0.009,5.559-2.41,5.58-5.91c0.021-3.771-2.135-6.133-5.61-6.145C246.374,137.505,244.187,139.81,244.202,143.539z"></path>
<path d="M395.578,143.447c0.028-6.365,4.903-10.589,11.794-10.193c4.027,0.232,7.582,1.446,9.663,5.218
	c3.389,6.143,0.02,13.478-6.829,14.954c-2.528,0.545-5.063,0.512-7.545-0.262C398.012,151.711,395.557,148.316,395.578,143.447z
	 M412.543,143.614c0.045-3.754-2.088-6.066-5.625-6.096c-3.543-0.03-5.582,2.161-5.642,6.063c-0.054,3.487,2.173,5.932,5.462,5.992
	C410.252,149.638,412.498,147.333,412.543,143.614z"></path>
<path d="M217.457,143.452c0-2.446,0.006-4.893-0.002-7.339c-0.005-1.385,0.751-2.3,2.035-2.322c3.334-0.06,6.706-0.451,10.002,0.289
	c4.76,1.07,7.606,4.648,7.652,9.396c0.044,4.404-2.886,8.2-7.375,9.372c-3.328,0.869-6.745,0.614-10.123,0.401
	c-1.643-0.104-2.198-0.949-2.2-2.607c-0.002-2.396-0.001-4.793-0.001-7.189C217.448,143.452,217.453,143.452,217.457,143.452z
	 M225.111,137.898c0-0.009,0-0.018,0-0.026c-0.5,0-1.001,0.031-1.499-0.007c-0.722-0.056-0.949,0.245-0.941,0.956
	c0.034,3.097,0.031,6.194,0.016,9.291c-0.004,0.72,0.166,1.12,1.001,1.094c1.197-0.036,2.397,0.039,3.579-0.224
	c3.003-0.666,4.307-2.765,4.049-6.51c-0.177-2.562-2.115-4.391-4.858-4.57C226.013,137.873,225.561,137.898,225.111,137.898z"></path>
<path d="M383.362,145.625c0,1.872,0.023,3.449-0.006,5.027c-0.035,1.963-0.904,2.86-2.68,2.832c-1.826-0.029-2.633-0.851-2.643-2.86
	c-0.024-4.745-0.015-9.491,0.014-14.236c0.011-1.796,0.787-2.622,2.525-2.65c2.447-0.039,4.897-0.056,7.341,0.039
	c2.091,0.082,4.028,0.657,5.489,2.326c2.245,2.563,1.692,6.353-1.209,8.136c-0.764,0.47-1.595,0.779-2.711,1.081
	c1.412,1.312,2.711,2.503,3.993,3.712c1.665,1.567,1.941,2.663,0.946,3.657c-1.159,1.156-3.333,1.054-4.603-0.28
	c-1.857-1.95-3.671-3.942-5.508-5.91C384.089,146.261,383.83,146.054,383.362,145.625z M385.363,137.912
	c-0.499,0.202-1.638-0.541-1.902,0.382c-0.302,1.057-0.084,2.267-0.062,3.409c0.008,0.396,0.339,0.441,0.65,0.435
	c1.144-0.02,2.303,0.064,3.424-0.104c1.102-0.164,1.988-0.811,1.93-2.085c-0.056-1.232-0.935-1.82-2.043-2.021
	C386.782,137.824,386.169,137.912,385.363,137.912z"></path>
<path d="M148.136,145.502c0,1.986,0.025,3.514-0.006,5.043c-0.041,2.037-0.844,2.926-2.585,2.942
	c-1.886,0.016-2.728-0.856-2.735-2.926c-0.015-4.695-0.011-9.391,0.001-14.086c0.005-1.875,0.76-2.707,2.582-2.736
	c2.397-0.039,4.795-0.009,7.193,0.02c1.056,0.013,2.081,0.245,3.069,0.616c2.405,0.904,3.792,2.752,3.888,5.163
	c0.094,2.356-1.094,4.118-3.534,5.205c-0.484,0.215-1,0.36-1.723,0.616c1.406,1.309,2.701,2.513,3.996,3.718
	c1.697,1.58,1.975,2.642,0.952,3.629c-1.171,1.13-3.382,1.024-4.619-0.279C152.552,150.258,150.525,148.06,148.136,145.502z
	 M150.795,142.15c0.252-0.014,0.924,0.056,1.531-0.107c0.999-0.27,1.873-0.81,1.851-2.018c-0.023-1.246-0.887-1.906-1.971-2.071
	c-1.116-0.17-2.276-0.061-3.416-0.07c-0.416-0.004-0.639,0.196-0.639,0.627c0,0.992-0.005,1.983-0.009,2.976
	c-0.001,0.52,0.31,0.672,0.771,0.665C149.41,142.143,149.907,142.15,150.795,142.15z"></path>
<path d="M463.436,133.152c1.965,0.037,3.264,1.002,3.991,2.606c2.077,4.583,4.113,9.186,6.07,13.821
	c0.836,1.982,0.426,3.098-1.006,3.628c-1.656,0.612-3.152-0.011-3.758-1.882c-0.522-1.611-1.356-2.185-3.032-2.006
	c-1.58,0.167-3.197,0.116-4.788,0.006c-1.15-0.08-1.643,0.346-2.025,1.402c-0.819,2.271-1.786,2.826-3.748,2.53
	c-1.199-0.181-1.798-0.821-1.655-2.03c0.075-0.635,0.199-1.291,0.45-1.873c1.933-4.484,3.897-8.956,5.868-13.425
	C460.519,134.307,461.697,133.265,463.436,133.152z M463.654,138.33c-0.497,1.231-0.89,2.18-1.265,3.136
	c-1.616,4.114-1.522,4.229,2.998,3.712c0.049-0.006,0.1-0.003,0.149-0.004c0.565-0.01,0.665-0.281,0.471-0.774
	C465.25,142.468,464.505,140.531,463.654,138.33z"></path>
<path d="M202.427,151.132c-0.036,1.105-0.541,1.738-1.412,2.062c-1.179,0.437-2.272,0.262-3.168-0.651
	c-0.27-0.275-0.531-0.655-0.595-1.021c-0.334-1.923-1.486-2.393-3.297-2.2c-1.53,0.164-3.096,0.106-4.638,0.006
	c-1.106-0.072-1.576,0.351-1.925,1.37c-0.764,2.227-1.697,2.828-3.573,2.577c-1.546-0.207-2.072-0.89-1.803-2.463
	c0.324-1.891,1.317-3.539,2.043-5.279c1.322-3.172,2.722-6.313,4.131-9.448c0.735-1.636,1.861-2.866,3.811-2.912
	c1.862-0.044,3.167,0.967,3.887,2.563c2.131,4.719,4.169,9.481,6.228,14.234C202.289,150.376,202.348,150.831,202.427,151.132z
	 M192.126,138.314c-0.477,1.217-0.859,2.17-1.226,3.127c-1.502,3.901-1.501,3.901,2.721,3.741c0.099-0.004,0.199-0.007,0.299-0.003
	c0.751,0.039,0.794-0.262,0.534-0.897C193.679,142.401,192.969,140.495,192.126,138.314z"></path>
<path d="M436.25,153.799c-2.205-0.055-4.219-0.355-6.108-1.226c-1.099-0.507-2.037-1.209-1.68-2.623
	c0.342-1.361,1.474-2.032,3.032-1.76c1.174,0.205,2.321,0.571,3.474,0.887c0.986,0.27,1.953,0.327,2.933-0.039
	c0.697-0.26,1.301-0.616,1.336-1.431c0.031-0.731-0.461-1.165-1.062-1.501c-0.927-0.519-1.971-0.68-2.965-0.995
	c-0.665-0.21-1.346-0.366-2.013-0.569c-3.002-0.914-4.219-2.277-4.311-4.809c-0.1-2.747,1.26-4.887,4.053-5.792
	c3.007-0.974,6.075-1.05,9.066,0.26c1.127,0.494,1.863,1.267,1.587,2.541c-0.289,1.329-1.383,1.612-2.557,1.51
	c-0.94-0.081-1.866-0.314-2.8-0.467c-0.392-0.065-0.794-0.169-1.182-0.14c-0.981,0.07-2.177,0.007-2.428,1.249
	c-0.272,1.344,0.975,1.402,1.833,1.685c1.656,0.544,3.352,0.977,4.979,1.591c2.063,0.777,3.423,2.226,3.587,4.529
	c0.174,2.446-0.71,4.376-2.878,5.66C440.277,153.468,438.226,153.754,436.25,153.799z"></path>
<path d="M281.911,133.217c1.913,0.061,3.554,0.221,5.104,0.829c1.726,0.677,2.355,1.837,1.841,3.232
	c-0.394,1.07-1.589,1.465-3.218,1.06c-1.638-0.407-3.239-0.96-4.993-0.525c-2.902,0.721-4.603,3.116-4.343,6.27
	c0.249,3.016,2.217,4.963,5.2,5.19c1.637,0.125,3.146-0.369,4.689-0.787c1.06-0.287,2.108-0.092,2.807,0.892
	c0.572,0.806,0.369,1.623-0.145,2.368c-0.189,0.272-0.485,0.51-0.785,0.661c-4.402,2.228-11.283,1.863-14.855-2.081
	c-2.693-2.975-3.257-6.485-2.021-10.188c1.376-4.122,4.592-6.099,8.741-6.736C280.672,133.287,281.423,133.261,281.911,133.217z"></path>
<path d="M315.44,153.815c-4.449-0.247-8.34-1.666-10.356-6.044c-2.967-6.44,1.197-13.47,8.382-14.379
	c2.417-0.306,4.788-0.16,7.093,0.649c0.807,0.284,1.585,0.691,1.878,1.585c0.55,1.673-0.544,3.067-2.335,2.86
	c-1.181-0.137-2.325-0.572-3.502-0.776c-2.61-0.452-5.298,0.95-6.185,3.162c-1.165,2.907-0.431,6.031,1.852,7.521
	c1.698,1.109,3.593,1.067,5.495,0.645c0.777-0.172,1.53-0.501,2.313-0.6c1.161-0.145,2.288,0.1,2.671,1.375
	c0.359,1.197-0.155,2.156-1.295,2.712C319.573,153.442,317.545,153.67,315.44,153.815z"></path>
<path d="M366.048,144.87c0-1.898-0.056-3.801,0.023-5.697c0.045-1.084-0.359-1.386-1.381-1.324c-0.937,0.056-1.886,0.092-2.823-0.2
	c-0.964-0.301-1.392-0.932-1.357-1.888c0.034-0.932,0.427-1.638,1.426-1.837c0.439-0.087,0.884-0.19,1.326-0.191
	c3.748-0.013,7.496-0.005,11.244,0.002c0.874,0.001,1.712,0.134,2.257,0.922c0.776,1.122,0.256,2.56-1.08,2.996
	c-1.021,0.332-2.085,0.249-3.126,0.196c-0.939-0.049-1.179,0.295-1.169,1.204c0.045,3.847,0.027,7.696,0.011,11.544
	c-0.009,2.09-0.792,2.892-2.735,2.873c-1.751-0.016-2.583-0.917-2.611-2.903C366.027,148.669,366.048,146.77,366.048,144.87z"></path>
<path d="M203.61,143.368c0-2.396-0.016-4.792,0.005-7.188c0.016-1.815,0.819-2.56,2.698-2.577c1.712-0.015,2.583,0.767,2.607,2.555
	c0.049,3.743,0.089,7.489-0.012,11.229c-0.04,1.465,0.421,1.912,1.845,1.812c1.437-0.101,2.891,0.029,4.337,0.051
	c1.239,0.019,2.035,0.629,2.086,1.863c0.051,1.219-0.702,1.908-1.883,2.131c-1.436,0.271-2.887,0.116-4.331,0.134
	c-1.597,0.02-3.198,0.055-4.79-0.037c-1.81-0.105-2.573-0.985-2.581-2.788c-0.01-2.396-0.003-4.792-0.003-7.188
	C203.595,143.368,203.603,143.368,203.61,143.368z"></path>
<path d="M294.286,148.961c1.576-0.007,2.702,0.957,2.743,2.347c0.04,1.341-1.126,2.428-2.651,2.471
	c-1.554,0.044-2.846-1.077-2.832-2.456C291.559,149.977,292.728,148.969,294.286,148.961z"></path>
<path d="M450.576,151.456c-0.029,1.296-1.33,2.377-2.803,2.327c-1.517-0.051-2.705-1.135-2.686-2.452
	c0.02-1.422,1.242-2.426,2.879-2.362C449.53,149.03,450.606,150.056,450.576,151.456z"></path>
<path d="M264.275,30.337c0.79,1.042,2.08,1.014,3.149,1.416c4.799,1.808,8.015,5.33,10.513,9.613
	c2.142,3.673,4.173,7.413,6.279,11.107c4.594,8.059,9.235,16.09,13.8,24.165c2.858,5.057,5.961,9.99,8.36,15.287
	c1.409,3.108,1.88,6.443,1.46,9.891c-0.626,5.139-2.455,9.713-6.343,13.222c-4.433,4.001-9.685,5.865-15.701,5.438
	c-8.501-0.602-14.034-5.275-17.839-12.613c-4.822-9.295-9.827-18.494-14.786-27.718c-3.297-6.131-6.635-12.242-10.003-18.333
	c-0.342-0.619-0.339-0.952,0.009-1.568c5.432-9.63,10.818-19.284,16.209-28.938c0.169-0.302,0.266-0.646,0.396-0.97
	C261.275,30.337,262.775,30.337,264.275,30.337z"></path>
<path d="M324.265,30.337c5.285,9.332,10.556,18.674,15.862,27.995c5.924,10.406,11.872,20.799,17.847,31.177
	c0.49,0.85,0.497,1.467,0.018,2.323c-5.13,9.137-10.233,18.291-15.292,27.467c-0.646,1.172-1.518,1.647-2.77,1.62
	c-6.444-0.142-11.383-3.192-15.041-8.255c-3.333-4.614-5.79-9.785-8.615-14.72c-6.441-11.261-12.825-22.555-19.198-33.854
	c-2.203-3.907-3.864-8.041-3.941-12.593c-0.13-7.781,4.982-17.737,16.015-20.449c0.477-0.117,1.174,0.067,1.317-0.71
	C315.066,30.337,319.666,30.337,324.265,30.337z"></path>
<path d="M376.756,30.337c1.135,3.379,0.825,6.818,0.226,10.211c-1.421,8.04-7.496,14.4-15.475,16.026
	c-16.458,3.354-26.404-11.201-24.15-23.399c0.184-0.995,0.047-2.113,1.005-2.838C351.16,30.337,363.958,30.337,376.756,30.337z"></path>
<path d="M254.078,100.193c-0.047,8.492-5.008,15.701-12.382,18.903c-6.773,2.941-13.383,2.445-19.653-1.325
	c-2.556-1.536-4.593-3.779-6.091-6.416c-0.474-0.834-0.352-1.691,0.121-2.542c2.979-5.355,5.932-10.727,8.903-16.086
	c2.343-4.224,4.724-8.429,7.041-12.668c0.735-1.345,1.661-1.677,3.184-1.384c4.775,0.921,9.078,2.76,12.607,6.148
	c3.127,3.003,4.845,6.783,5.74,10.991C253.883,97.382,254.173,98.937,254.078,100.193z"></path>
<path d="M215.373,172.791c1.035-3.261,1.722-6.606,2.462-9.94c0.044-0.195,0.045-0.4,0.1-0.59c0.255-0.882,0.907-1.231,1.723-0.981
	c0.851,0.261,0.424,0.984,0.297,1.507c-0.71,2.946-1.464,5.88-2.172,8.826c-0.09,0.371-0.01,0.784-0.01,1.177
	C216.973,172.791,216.173,172.791,215.373,172.791z"></path>
<path d="M403.742,172.791c0.291-2.147,0.792-4.244,1.414-6.319c0.354-1.184,0.699-2.377,0.92-3.589
	c0.163-0.889,0.23-1.798,1.429-1.612c1.366,0.211,0.534,1.2,0.412,1.755c-0.712,3.273-1.322,6.575-2.375,9.767
	C404.941,172.791,404.341,172.791,403.742,172.791z"></path>
<path d="M313.157,172.791c0.104-2.393,1.04-4.612,1.462-6.94c0.211-1.161,0.759-2.278,0.855-3.439
	c0.099-1.182,0.864-1.145,1.545-1.061c0.907,0.112,0.422,0.897,0.317,1.304c-0.869,3.386-1.271,6.895-2.68,10.137
	C314.157,172.791,313.657,172.791,313.157,172.791z"></path>
<path d="M151.628,165.466c0,1.795,0.005,3.592-0.003,5.388c-0.002,0.482,0.111,1.034-0.695,1.025
	c-0.831-0.009-0.65-0.595-0.652-1.055c-0.014-2.298-0.018-4.597,0.001-6.895c0.002-0.356-0.205-0.864,0.354-1.005
	c0.51-0.129,0.919-0.021,1.27,0.494c1.346,1.975,2.753,3.908,4.364,6.176c0-2.081-0.009-3.834,0.005-5.589
	c0.004-0.514-0.171-1.171,0.741-1.127c0.816,0.04,0.612,0.642,0.616,1.096c0.014,2.148,0.025,4.297-0.018,6.445
	c-0.01,0.48,0.346,1.17-0.406,1.412c-0.707,0.227-1.055-0.27-1.416-0.8c-1.094-1.608-2.237-3.181-3.352-4.774
	C152.206,165.933,152.018,165.579,151.628,165.466z"></path>
<path d="M303.815,165.751c0,1.678,0,3.357,0,5.035c0,0.554,0.086,1.135-0.796,1.089c-0.826-0.042-0.627-0.631-0.631-1.085
	c-0.016-2.248-0.024-4.497,0.006-6.745c0.005-0.385-0.291-0.965,0.361-1.127c0.576-0.144,1.029,0.04,1.397,0.582
	c1.279,1.885,2.607,3.736,4.229,5.547c0-1.657-0.015-3.314,0.009-4.972c0.008-0.49-0.245-1.171,0.674-1.194
	c0.885-0.021,0.749,0.597,0.75,1.135c0.005,2.248,0.018,4.497-0.001,6.745c-0.004,0.397,0.221,0.955-0.454,1.091
	c-0.557,0.112-0.941-0.126-1.257-0.587c-1.184-1.726-2.388-3.438-3.587-5.154c-0.114-0.162-0.24-0.316-0.361-0.474
	C304.041,165.674,303.927,165.712,303.815,165.751z"></path>
<path d="M297.067,160.935c-0.242,0.342-0.406,0.582-0.579,0.814c-0.426,0.571-0.579,0.887,0.359,1.224
	c2.343,0.841,3.364,3.598,2.467,6.249c-0.674,1.987-3.028,3.172-5.234,2.632c-1.461-0.357-2.678-1.986-2.859-3.827
	c-0.236-2.39,0.59-4.268,2.433-4.973c0.786-0.301,1.245-0.739,1.568-1.415C295.575,160.905,296.075,160.572,297.067,160.935z
	 M298.168,167.287c-0.008-2.122-0.996-3.309-2.77-3.324c-1.716-0.015-2.918,1.424-2.871,3.434c0.049,2.068,1.114,3.324,2.815,3.318
	C297.161,170.707,298.175,169.476,298.168,167.287z"></path>
<path d="M179.067,167.193c0.04-2.621,1.781-4.527,4.148-4.54c2.503-0.015,4.284,1.97,4.271,4.759
	c-0.012,2.66-1.806,4.565-4.274,4.543C180.601,171.93,179.023,170.116,179.067,167.193z M186.018,167.433
	c0.016-1.945-0.657-3.049-2.055-3.367c-2.148-0.487-3.542,0.875-3.483,3.406c0.049,2.13,1.071,3.287,2.862,3.241
	C185.007,170.669,186.002,169.45,186.018,167.433z"></path>
<path d="M160.467,167.21c0.027-2.662,1.875-4.63,4.292-4.57c2.41,0.06,4.143,2.061,4.118,4.753c-0.025,2.716-1.755,4.575-4.242,4.56
	C162.035,171.937,160.437,170.121,160.467,167.21z M167.42,167.352c-0.001-1.936-0.712-3.042-2.127-3.304
	c-1.658-0.309-2.924,0.464-3.297,2.012c-0.525,2.182,0.22,4.068,1.798,4.557C165.815,171.24,167.421,169.795,167.42,167.352z"></path>
<path d="M197.364,169.531c-0.181,0.622,0.447,1.726-0.369,2.08c-1.329,0.576-2.84,0.51-4.247,0.085
	c-1.795-0.541-2.875-2.268-2.805-4.297c0.072-2.116,1.354-3.943,3.182-4.432c1.009-0.27,2.033-0.452,3.096-0.14
	c0.476,0.14,0.88,0.242,0.826,0.832c-0.072,0.79-0.652,0.419-1.026,0.394c-2.725-0.184-3.862,0.37-4.475,2.222
	c-0.871,2.628,0.901,4.759,3.633,4.454c0.844-0.094,0.807-0.587,0.765-1.134c-0.04-0.527,0.282-1.269-0.729-1.316
	c-0.459-0.021-1.239,0.329-1.194-0.627c0.044-0.941,0.815-0.527,1.261-0.541C197.364,167.044,197.364,167.068,197.364,169.531z"></path>
<path d="M464.619,167.205c0.029-2.666,1.881-4.634,4.292-4.559c2.436,0.075,4.153,2.052,4.124,4.749
	c-0.029,2.73-1.733,4.558-4.237,4.545C466.171,171.926,464.588,170.132,464.619,167.205z M471.573,167.409
	c0.015-1.955-0.677-3.084-2.052-3.348c-2.172-0.416-3.481,0.816-3.474,3.276c0.005,2.142,0.987,3.357,2.73,3.374
	C470.548,170.73,471.556,169.541,471.573,167.409z"></path>
<path d="M342.352,171.94c-2.505-0.012-4.172-1.853-4.178-4.613c-0.006-2.667,1.937-4.748,4.369-4.679
	c2.342,0.066,4.167,2.176,4.132,4.775C346.639,170.09,344.856,171.952,342.352,171.94z M345.234,167.32
	c-0.011-2.075-1.049-3.326-2.775-3.346c-1.786-0.021-2.911,1.299-2.895,3.399c0.015,2.033,1.095,3.323,2.797,3.341
	C344.167,170.732,345.246,169.458,345.234,167.32z"></path>
<path d="M392.367,167.295c0.013,2.802-1.598,4.613-4.126,4.64c-2.558,0.027-4.267-1.753-4.289-4.472
	c-0.024-2.798,1.707-4.774,4.208-4.807C390.575,162.626,392.356,164.59,392.367,167.295z M388.254,163.98
	c-1.8-0.026-2.827,1.154-2.848,3.271c-0.022,2.127,0.964,3.412,2.656,3.461c1.875,0.054,2.902-1.111,2.938-3.334
	C391.032,165.338,389.954,164.005,388.254,163.98z"></path>
<path d="M248.648,167.255c0.018-2.667,1.851-4.665,4.229-4.612c2.428,0.055,4.213,2.053,4.194,4.695c-0.019,2.69-1.77,4.6-4.217,4.6
	C250.217,171.941,248.628,170.17,248.648,167.255z M255.596,167.517c0.006-2.218-0.809-3.343-2.428-3.512
	c-1.127-0.117-2.093,0.136-2.63,1.245c-0.694,1.432-0.731,2.893,0.059,4.284c0.702,1.239,1.916,1.47,3.129,1.046
	C255.179,170.074,255.71,168.858,255.596,167.517z"></path>
<path d="M435.099,171.727c-1.135,0.374-1.758,0.005-2.27-0.832c-0.49-0.802-1.115-1.522-1.666-2.288
	c-0.245-0.341-0.584-0.352-0.932-0.309c-0.521,0.064-0.392,0.499-0.405,0.816c-0.026,0.646-0.024,1.295-0.013,1.942
	c0.009,0.53-0.142,0.841-0.76,0.821c-0.535-0.018-0.675-0.277-0.674-0.75c0.008-2.491,0.014-4.982-0.001-7.473
	c-0.004-0.594,0.269-0.79,0.816-0.774c0.995,0.029,2.001-0.041,2.984,0.072c1.185,0.137,2.015,0.807,2.298,2.027
	c0.274,1.176-0.195,2.101-1.181,2.641c-0.801,0.439-0.845,0.73-0.254,1.394C433.761,169.823,434.359,170.739,435.099,171.727z
	 M429.818,165.397c0.03,0.869-0.295,1.802,0.994,1.636c1.03-0.132,2.27-0.1,2.297-1.555c0.025-1.324-1.087-1.271-2.035-1.406
	C429.773,163.886,429.696,164.621,429.818,165.397z"></path>
<path d="M333.353,168.132c0.945,1.259,1.776,2.363,2.67,3.554c-0.962,0.35-1.582,0.22-2.086-0.607
	c-0.465-0.762-1.074-1.435-1.591-2.166c-0.272-0.386-0.537-0.729-1.079-0.621c-0.671,0.132-0.454,0.679-0.477,1.085
	c-0.036,0.597-0.023,1.199-0.015,1.798c0.006,0.502-0.215,0.7-0.726,0.699c-0.535-0.001-0.682-0.249-0.68-0.732
	c0.01-2.498,0.003-4.995,0.004-7.494c0-0.356,0.001-0.755,0.501-0.744c1.291,0.029,2.602-0.207,3.866,0.206
	c1.051,0.344,1.672,1.085,1.733,2.202c0.056,1.019-0.29,1.863-1.251,2.363C333.958,167.81,333.696,167.95,333.353,168.132z
	 M330.799,165.461c0.081,0.679-0.387,1.731,1.02,1.575c1.05-0.116,2.266-0.161,2.277-1.572c0.01-1.276-1.082-1.291-2.058-1.391
	C330.925,163.96,330.62,164.456,330.799,165.461z"></path>
<path d="M233.963,169.258c0-1.777-0.01-3.549,0.006-5.322c0.004-0.454-0.194-1.072,0.647-1.045c0.829,0.027,0.601,0.657,0.605,1.094
	c0.021,2.145,0.03,4.289-0.014,6.433c-0.01,0.479,0.356,1.17-0.379,1.415c-0.71,0.237-1.056-0.312-1.411-0.824
	c-1.295-1.871-2.613-3.726-4.201-5.98c0,2.162,0.025,3.872-0.016,5.579c-0.011,0.456,0.36,1.222-0.57,1.245
	c-1.054,0.026-0.644-0.824-0.652-1.316c-0.041-2.143-0.035-4.289-0.005-6.433c0.005-0.395-0.274-0.96,0.31-1.17
	c0.596-0.215,1.032,0.084,1.381,0.594c1.207,1.765,2.435,3.516,3.661,5.267C233.455,168.978,233.509,169.261,233.963,169.258z"></path>
<path d="M244.456,169.566c0-2.037-0.016-3.759,0.011-5.48c0.007-0.48-0.276-1.221,0.661-1.182c0.906,0.036,0.606,0.77,0.612,1.244
	c0.03,2.197,0.025,4.394,0.001,6.591c-0.004,0.396,0.23,0.956-0.429,1.107c-0.562,0.129-0.907-0.146-1.226-0.614
	c-1.095-1.606-2.232-3.183-3.359-4.767c-0.276-0.389-0.574-0.761-0.979-1.295c0,2.053,0.008,3.883-0.006,5.713
	c-0.004,0.419,0.127,0.944-0.581,0.987c-0.797,0.05-0.714-0.501-0.714-0.997c-0.004-2.297-0.016-4.594,0.006-6.89
	c0.004-0.392-0.232-0.956,0.454-1.085c0.56-0.105,0.921,0.14,1.237,0.607c1.202,1.773,2.438,3.524,3.666,5.28
	C243.941,168.971,244.1,169.138,244.456,169.566z"></path>
<path d="M132.597,167.394c0-0.05,0-0.1,0-0.15c0.001-4.687,0.001-4.687,4.689-4.357c0.436,0.031,0.96-0.076,0.927,0.634
	c-0.032,0.715-0.585,0.542-0.996,0.559c-0.599,0.025-1.2,0.033-1.797,0c-0.861-0.046-1.487-0.054-1.486,1.187
	c0.001,1.279,0.619,1.284,1.573,1.33c0.727,0.035,2.067-0.571,2.085,0.579c0.021,1.429-1.395,0.595-2.121,0.651
	c-1,0.079-1.506,0.169-1.53,1.389c-0.025,1.316,0.554,1.492,1.607,1.414c0.745-0.055,1.497-0.005,2.246-0.004
	c0.417,0,0.66,0.164,0.639,0.622c-0.02,0.421-0.202,0.627-0.647,0.624c-1.497-0.012-2.996-0.019-4.494,0
	c-0.656,0.009-0.701-0.391-0.697-0.882C132.602,169.791,132.597,168.593,132.597,167.394z"></path>
<path d="M204.025,171.708c1.071-2.645,2.081-5.178,3.134-7.692c0.19-0.452,0.197-1.119,0.975-1.136
	c0.847-0.019,0.891,0.685,1.105,1.192c0.942,2.242,1.861,4.495,2.756,6.756c0.117,0.297,0.647,0.734,0.029,0.976
	c-0.422,0.166-1.007,0.24-1.259-0.407c-0.071-0.185-0.165-0.365-0.209-0.556c-0.291-1.255-1.021-1.652-2.346-1.698
	c-1.446-0.05-2.146,0.5-2.428,1.77C205.557,171.923,204.966,172.03,204.025,171.708z M206.991,167.855c0.871,0,1.572,0,2.376,0
	c-0.386-0.996-0.716-1.847-1.184-3.052C207.712,166.011,207.378,166.863,206.991,167.855z"></path>
<path d="M358.36,167.388c-0.001-0.1,0-0.2-0.001-0.299c-0.071-4.65-0.071-4.648,4.684-4.204c0.4,0.037,0.812-0.016,0.83,0.581
	c0.016,0.587-0.356,0.624-0.784,0.622c-0.647-0.001-1.3,0.049-1.942-0.01c-0.999-0.091-1.537,0.07-1.526,1.317
	c0.011,1.264,0.684,1.205,1.523,1.167c0.497-0.023,0.996-0.006,1.495-0.003c0.419,0.004,0.812,0.035,0.835,0.604
	c0.026,0.644-0.39,0.719-0.881,0.717c-0.499-0.001-1.004,0.053-1.494-0.009c-1.074-0.132-1.487,0.195-1.47,1.375
	c0.016,1.135,0.356,1.521,1.462,1.401c0.739-0.08,1.494-0.02,2.241-0.011c0.401,0.005,0.805-0.012,0.814,0.591
	c0.009,0.567-0.306,0.647-0.759,0.645c-1.396-0.009-2.792-0.027-4.187,0.006c-0.679,0.016-0.855-0.302-0.844-0.905
	C358.377,169.779,358.362,168.583,358.36,167.388z"></path>
<path d="M271.372,169.204c-1.202-0.345-1.841,0.361-2.132,1.622c-0.075,0.326-0.257,0.671-0.494,0.904
	c-0.259,0.255-0.685,0.209-0.989,0.072c-0.389-0.175-0.145-0.507-0.041-0.765c1.01-2.491,2.026-4.978,3.038-7.467
	c0.157-0.387,0.346-0.686,0.851-0.691c0.505-0.005,0.67,0.27,0.834,0.676c0.981,2.448,1.993,4.883,2.973,7.331
	c0.12,0.299,0.627,0.74-0.076,0.939c-0.407,0.115-0.916,0.18-1.14-0.394c-0.073-0.185-0.127-0.377-0.205-0.56
	C273.287,169.211,273.286,169.211,271.372,169.204z M271.599,164.835c-0.294,0.737-0.511,1.282-0.729,1.827
	c-0.054,0.135-0.1,0.275-0.164,0.405c-0.281,0.58-0.211,0.877,0.54,0.927c1.394,0.092,1.56-0.072,1.087-1.391
	C272.136,166.052,271.885,165.518,271.599,164.835z"></path>
<path d="M419.909,167.377c-0.003-1.147,0.027-2.296-0.013-3.442c-0.025-0.724,0.134-1.11,0.976-1.066
	c1.195,0.062,2.395,0.01,3.592,0.02c0.432,0.004,0.944-0.1,0.912,0.63c-0.03,0.732-0.567,0.549-0.974,0.566
	c-0.597,0.025-1.199,0.034-1.796-0.003c-0.871-0.053-1.479-0.044-1.492,1.19c-0.015,1.284,0.589,1.371,1.55,1.295
	c0.545-0.044,1.097-0.004,1.646,0c0.396,0.002,0.674,0.141,0.701,0.591c0.031,0.517-0.24,0.717-0.721,0.719
	c-0.749,0.001-1.497,0.023-2.245,0.005c-1.192-0.029-0.834,0.856-0.872,1.481c-0.041,0.657-0.104,1.34,0.927,1.287
	c0.946-0.047,1.896-0.009,2.843-0.009c0.384,0,0.679,0.085,0.706,0.561c0.031,0.549-0.266,0.675-0.736,0.672
	c-1.397-0.01-2.795-0.033-4.191,0.007c-0.704,0.02-0.827-0.325-0.816-0.912C419.926,169.771,419.91,168.574,419.909,167.377z"></path>
<path d="M413.609,171.95c-0.74-0.066-1.495,0.009-2.192-0.357c-0.377-0.197-0.496-0.49-0.402-0.86
	c0.129-0.511,0.532-0.384,0.84-0.249c0.77,0.337,1.569,0.239,2.36,0.205c0.805-0.034,1.322-0.527,1.424-1.29
	c0.105-0.786-0.494-1.12-1.154-1.319c-0.381-0.115-0.766-0.211-1.149-0.324c-1.725-0.51-2.531-1.47-2.333-2.772
	c0.209-1.381,1.555-2.388,3.211-2.332c0.59,0.02,1.177,0.184,1.761,0.305c0.524,0.11,0.775,0.459,0.665,0.984
	c-0.15,0.724-0.589,0.215-0.922,0.192c-0.694-0.047-1.387-0.101-2.082-0.101c-0.676,0-1.129,0.294-1.192,1.046
	c-0.061,0.722,0.3,1.136,0.929,1.347c0.659,0.221,1.347,0.356,1.997,0.6c1.309,0.491,1.822,1.467,1.572,2.832
	c-0.231,1.26-1.14,1.791-2.285,2.018C414.313,171.945,413.957,171.928,413.609,171.95z"></path>
<path d="M397.405,171.951c-0.691-0.062-1.404,0.019-2.043-0.355c-0.37-0.216-0.421-0.547-0.314-0.902
	c0.126-0.416,0.477-0.304,0.734-0.192c0.772,0.337,1.575,0.181,2.365,0.189c0.744,0.007,1.234-0.389,1.379-1.119
	c0.156-0.785-0.276-1.214-0.985-1.434c-0.38-0.119-0.752-0.266-1.136-0.372c-1.901-0.525-2.58-1.321-2.395-2.828
	c0.158-1.277,1.301-2.176,2.923-2.28c0.245-0.016,0.521-0.024,0.737,0.071c0.697,0.305,2.102-0.115,1.901,1.124
	c-0.194,1.189-1.184-0.09-1.825,0.156c-0.392,0.15-0.884,0.036-1.33,0.054c-0.672,0.028-0.981,0.471-1.062,1.057
	c-0.086,0.619,0.245,1.066,0.817,1.266c0.562,0.196,1.159,0.291,1.725,0.476c1.476,0.484,2.243,1.497,2.083,2.705
	c-0.175,1.32-1.192,2.206-2.681,2.328C398.005,171.922,397.705,171.935,397.405,171.951z"></path>
<path d="M145.637,171.952c-2.076,0.023-3.658-0.562-4.351-2.358c-0.686-1.78-0.721-3.666,0.557-5.244
	c1.187-1.465,2.815-1.966,4.684-1.547c0.469,0.105,1.074,0.074,0.984,0.825c-0.105,0.886-0.752,0.43-1.155,0.4
	c-3.096-0.237-4.815,1.853-3.874,4.745c0.487,1.501,1.633,2.051,3.727,1.968c0.411-0.016,1.259-0.88,1.344,0.326
	c0.075,1.049-0.847,0.717-1.411,0.841C145.9,171.962,145.646,171.952,145.637,171.952z"></path>
<path d="M322.72,162.817c0.729,0.082,1.456,0.05,2.1,0.266c0.98,0.33,1.746,0.981,1.842,2.118c0.104,1.222-0.396,2.141-1.537,2.628
	c-0.496,0.212-1.067,0.477-1.566,0.415c-1.577-0.196-1.87,0.582-1.673,1.893c0.051,0.341,0.001,0.697-0.008,1.046
	c-0.009,0.377-0.085,0.671-0.574,0.686c-0.532,0.018-0.699-0.232-0.697-0.717c0.005-2.495-0.084-4.993,0.03-7.481
	C320.709,162.093,322.093,163.294,322.72,162.817z M321.917,165.712c0.074,0.505-0.39,1.43,0.94,1.382
	c1.435-0.05,2.428-0.634,2.361-1.617c-0.098-1.421-1.204-1.282-2.188-1.402C321.712,163.916,321.875,164.771,321.917,165.712z"></path>
<path d="M436.725,163.079c0.977-0.472,1.411-0.077,1.707,0.782c0.647,1.875,1.352,3.729,2.167,5.959
	c0.772-2.048,1.437-3.808,2.1-5.568c0.122-0.325,0.226-0.659,0.362-0.979c0.244-0.572,0.78-0.457,1.157-0.326
	c0.526,0.184,0.116,0.607,0.02,0.869c-0.912,2.47-1.861,4.927-2.793,7.39c-0.15,0.397-0.331,0.686-0.841,0.671
	c-0.509-0.015-0.674-0.324-0.821-0.715C438.768,168.47,437.747,165.781,436.725,163.079z"></path>
<path d="M262.841,169.791c0.824-2.211,1.562-4.091,2.213-6.001c0.232-0.681,0.569-1.127,1.264-0.861
	c0.821,0.316,0.104,0.884-0.015,1.222c-0.796,2.251-1.678,4.473-2.543,6.699c-0.171,0.441-0.214,0.989-0.901,1.029
	c-0.72,0.042-0.769-0.525-0.937-0.956c-0.907-2.313-1.815-4.628-2.657-6.966c-0.097-0.271-0.72-0.836,0.106-1.055
	c0.531-0.141,0.929,0.031,1.137,0.64c0.515,1.506,1.089,2.991,1.645,4.483C262.336,168.523,262.536,169.013,262.841,169.791z"></path>
<path d="M455.705,171.921c-1.923,0.119-3.448-0.49-4.188-2.171c-0.8-1.817-0.78-3.758,0.486-5.388
	c1.119-1.44,2.727-1.941,4.544-1.575c0.496,0.1,1.229,0.018,1.101,0.866c-0.125,0.832-0.785,0.397-1.195,0.372
	c-3.092-0.19-4.77,1.918-3.798,4.812c0.467,1.391,1.622,1.932,3.647,1.911c0.432-0.005,1.276-0.834,1.391,0.281
	c0.117,1.14-0.906,0.755-1.51,0.885C455.993,171.956,455.787,171.921,455.705,171.921z"></path>
<path d="M371.964,170.697c0.326,0.365,1.236-0.8,1.282,0.392c0.037,0.992-0.87,0.775-1.462,0.816
	c-2.522,0.176-4.027-0.597-4.812-2.421c-0.849-1.971-0.42-4.222,1.115-5.628c1.192-1.092,2.602-1.37,4.173-1.046
	c0.53,0.11,1.025,0.186,0.887,0.886c-0.142,0.724-0.72,0.364-1.092,0.341c-2.866-0.18-4.278,1.192-4.007,3.936
	C368.247,169.986,369.442,170.832,371.964,170.697z"></path>
<path d="M282.343,171.92c-2.006,0.124-3.529-0.54-4.304-2.272c-0.795-1.776-0.744-3.637,0.477-5.233
	c1.161-1.516,2.81-1.98,4.674-1.616c0.457,0.089,1.094,0.055,1.007,0.807c-0.099,0.867-0.744,0.436-1.159,0.41
	c-3.197-0.205-4.897,2.008-3.777,4.944c0.517,1.355,1.538,1.801,3.559,1.793c0.456-0.003,1.419-0.877,1.466,0.382
	c0.037,0.984-0.911,0.661-1.487,0.777C282.611,171.952,282.404,171.92,282.343,171.92z"></path>
<path d="M126.012,167.967c0.001-0.447,0.006-0.896,0-1.344c-0.011-0.746,0.202-1.613-0.106-2.206
	c-0.385-0.737-1.351-0.212-2.055-0.322c-0.357-0.055-0.7-0.034-0.724-0.535c-0.026-0.542,0.266-0.677,0.737-0.676
	c1.891,0.006,3.783,0.006,5.674-0.006c0.457-0.003,0.769,0.08,0.752,0.644c-0.018,0.606-0.421,0.537-0.825,0.569
	c-2.022,0.155-2.022,0.161-2.022,2.217c0,1.543-0.007,3.086,0.001,4.629c0.004,0.555-0.06,0.966-0.795,0.939
	c-0.702-0.026-0.636-0.477-0.637-0.924C126.008,169.958,126.012,168.963,126.012,167.967z"></path>
<path d="M377.987,167.958c0-0.549-0.067-1.107,0.013-1.643c0.237-1.608-0.105-2.612-2.038-2.238
	c-0.409,0.079-0.801-0.015-0.789-0.605c0.011-0.597,0.417-0.584,0.824-0.585c1.845-0.001,3.689,0.005,5.534,0.001
	c0.44-0.001,0.792,0.054,0.775,0.631c-0.019,0.604-0.431,0.565-0.837,0.564c-0.249-0.001-0.504,0.035-0.747-0.003
	c-1.051-0.164-1.367,0.26-1.317,1.312c0.087,1.841,0.021,3.688,0.021,5.534c0,0.536-0.038,0.99-0.786,0.956
	c-0.69-0.03-0.642-0.481-0.644-0.932c-0.005-0.997-0.001-1.995-0.001-2.992C377.991,167.958,377.988,167.958,377.987,167.958z"></path>
<path d="M173.081,166.848c0,0.05-0.003,0.1,0,0.15c0.065,1.137-0.45,2.54,0.209,3.344c0.641,0.782,2.058,0.179,3.129,0.275
	c0.431,0.039,0.919-0.094,0.891,0.646c-0.028,0.724-0.511,0.599-0.939,0.604c-0.797,0.01-1.593,0.005-2.391,0.004
	c-2.325-0.003-2.326-0.003-2.328-2.255c-0.001-1.793-0.02-3.587,0.018-5.379c0.011-0.509-0.364-1.296,0.656-1.341
	c1.026-0.045,0.72,0.74,0.744,1.265C173.11,165.053,173.081,165.951,173.081,166.848z"></path>
<path d="M355.983,163.054c-0.59,0.989-1.115,2.006-1.768,2.931c-1.012,1.43-1.653,2.921-1.412,4.724
	c0.062,0.466,0.266,1.197-0.679,1.152c-0.839-0.039-0.625-0.716-0.555-1.114c0.371-2.12-0.705-3.721-1.753-5.367
	c-0.475-0.746-1.091-1.426-1.325-2.322c0.769-0.124,0.769-0.124,3.743,3.727c0.547-0.854,1.081-1.651,1.578-2.47
	C354.289,163.534,354.557,162.458,355.983,163.054z"></path>
<path d="M202.888,161.02c-1.476,0.984-1.072,2.367-1.076,3.662c-0.006,2.048,0.001,4.098-0.012,6.146
	c-0.002,0.479,0.102,1.031-0.691,1.049c-0.792,0.018-0.711-0.504-0.711-1.004c0-2.548-0.049-5.099,0.019-7.646
	C200.461,161.535,201.337,160.72,202.888,161.02z"></path>
<path d="M461.79,167.54c0,1.144,0,2.287,0,3.429c0,0.464,0.006,0.886-0.666,0.907c-0.667,0.02-0.705-0.374-0.704-0.852
	c0.001-2.436,0.008-4.872-0.004-7.306c-0.003-0.521,0.104-0.855,0.731-0.836c0.684,0.02,0.636,0.481,0.637,0.931
	c0.003,1.242,0.001,2.486,0.001,3.728C461.787,167.54,461.788,167.54,461.79,167.54z"></path>
<path d="M288.29,167.502c0.001,1.142,0.014,2.283-0.005,3.426c-0.008,0.414,0.115,0.929-0.605,0.944
	c-0.679,0.015-0.68-0.416-0.68-0.885c-0.004-2.383-0.013-4.765-0.009-7.149c0.001-0.431-0.076-0.93,0.619-0.944
	c0.799-0.015,0.674,0.552,0.677,1.032C288.293,165.12,288.288,166.311,288.29,167.502z"></path>
<path d="M448.153,167.412c0.003,1.191,0.004,2.382,0.001,3.574c-0.001,0.451,0.044,0.909-0.66,0.885
	c-0.596-0.02-0.594-0.397-0.595-0.804c-0.003-2.482,0.001-4.964-0.004-7.446c-0.001-0.459,0.1-0.756,0.661-0.739
	c0.589,0.019,0.595,0.392,0.595,0.806C448.152,164.93,448.15,166.171,448.153,167.412z"></path>
<path d="M223.453,167.392c0-1.242,0.001-2.485,0-3.727c0-0.439,0.084-0.772,0.644-0.779c0.556-0.006,0.659,0.307,0.659,0.757
	c-0.001,2.485,0.002,4.97,0.001,7.455c0,0.432-0.089,0.765-0.651,0.774c-0.697,0.012-0.652-0.449-0.652-0.902
	C223.452,169.776,223.452,168.584,223.453,167.392z"></path>
</svg>
