<?xml version="1.0"?>

<svg xmlns="http://www.w3.org/2000/svg" viewBox="0 0 841.5 274" width="841.5" height="274"><path d="m 732.6,135.1 c 0,-6.8 0.8,-11.1 2.5,-12.9 1.6,-1.9 3.6,-2.8 6,-2.8 2.9,0 4.9,1.5 6.1,4.4 1.2,3 1.8,8.6 1.8,16.9 0,10 -0.7,16.3 -2.1,18.9 -1.4,2.6 -3.5,3.9 -6.3,3.9 -3.2,0 -5.4,-1 -6.4,-2.9 -1.1,-2 -1.6,-6.2 -1.6,-12.7 l 0,-12.8 z m -18.7,63.7 18.7,0 0,-28.1 c 3.4,4 7.7,6 13,6 7.3,0 12.9,-3 16.9,-9.1 4.1,-6 6.1,-15 6.1,-26.9 0,-11.4 -2.1,-19.9 -6.2,-25.4 -4.1,-5.6 -9.3,-8.3 -15.5,-8.3 -6.6,0 -11.7,3.7 -15.4,11 l 0,-10.2 -17.6,0 0,91 z M 701,76.05 l -19.1,0 0,18.77 19.1,0 0,-18.77 z M 682,173 c 0,4.8 -0.4,7.9 -1.1,9.3 -0.7,1.4 -2.4,2.1 -5.2,2.1 -0.7,0 -5.8,-0.1 -6.7,-0.2 l 0,15.6 c 3.9,0.6 11.6,0.9 14.4,0.9 4.4,0 8.1,-1 11,-3.1 2.8,-2 4.6,-4.7 5.4,-8.2 0.8,-3.5 1.2,-8.8 1.2,-15.8 l 0,-65.8 -19,0 0,65.2 z m -31.8,2.8 18.8,0 0,-20.3 -18.8,0 0,20.3 z m 136.3,43.2 -154.2,0 0,-163.15 154.2,0 0,163.15 z m -53.9,-83.9 c 0,-6.8 0.8,-11.1 2.5,-12.9 1.6,-1.9 3.6,-2.8 6,-2.8 2.9,0 4.9,1.5 6.1,4.4 1.2,3 1.8,8.6 1.8,16.9 0,10 -0.7,16.3 -2.1,18.9 -1.4,2.6 -3.5,3.9 -6.3,3.9 -3.2,0 -5.4,-1 -6.4,-2.9 -1.1,-2 -1.6,-6.2 -1.6,-12.7 l 0,-12.8 z m -18.7,63.7 18.7,0 0,-28.1 c 3.4,4 7.7,6 13,6 7.3,0 12.9,-3 16.9,-9.1 4.1,-6 6.1,-15 6.1,-26.9 0,-11.4 -2.1,-19.9 -6.2,-25.4 -4.1,-5.6 -9.3,-8.3 -15.5,-8.3 -6.6,0 -11.7,3.7 -15.4,11 l 0,-10.2 -17.6,0 0,91 z M 701,76.05 l -19.1,0 0,18.77 19.1,0 0,-18.77 z M 682,173 c 0,4.8 -0.4,7.9 -1.1,9.3 -0.7,1.4 -2.4,2.1 -5.2,2.1 -0.7,0 -5.8,-0.1 -6.7,-0.2 l 0,15.6 c 3.9,0.6 11.6,0.9 14.4,0.9 4.4,0 8.1,-1 11,-3.1 2.8,-2 4.6,-4.7 5.4,-8.2 0.8,-3.5 1.2,-8.8 1.2,-15.8 l 0,-65.8 -19,0 0,65.2 z m -31.8,2.8 18.8,0 0,-20.3 -18.8,0 0,20.3 z m 136.3,43.2 -154.2,0 0,-163.15 154.2,0 0,163.15 z m -53.9,-83.9 c 0,-6.8 0.8,-11.1 2.5,-12.9 1.6,-1.9 3.6,-2.8 6,-2.8 2.9,0 4.9,1.5 6.1,4.4 1.2,3 1.8,8.6 1.8,16.9 0,10 -0.7,16.3 -2.1,18.9 -1.4,2.6 -3.5,3.9 -6.3,3.9 -3.2,0 -5.4,-1 -6.4,-2.9 -1.1,-2 -1.6,-6.2 -1.6,-12.7 l 0,-12.8 z m -18.7,63.7 18.7,0 0,-28.1 c 3.4,4 7.7,6 13,6 7.3,0 12.9,-3 16.9,-9.1 4.1,-6 6.1,-15 6.1,-26.9 0,-11.4 -2.1,-19.9 -6.2,-25.4 -4.1,-5.6 -9.3,-8.3 -15.5,-8.3 -6.6,0 -11.7,3.7 -15.4,11 l 0,-10.2 -17.6,0 0,91 z M 701,76.05 l -19.1,0 0,18.77 19.1,0 0,-18.77 z M 682,173 c 0,4.8 -0.4,7.9 -1.1,9.3 -0.7,1.4 -2.4,2.1 -5.2,2.1 -0.7,0 -5.8,-0.1 -6.7,-0.2 l 0,15.6 c 3.9,0.6 11.6,0.9 14.4,0.9 4.4,0 8.1,-1 11,-3.1 2.8,-2 4.6,-4.7 5.4,-8.2 0.8,-3.5 1.2,-8.8 1.2,-15.8 l 0,-65.8 -19,0 0,65.2 z m -31.8,2.8 18.8,0 0,-20.3 -18.8,0 0,20.3 z m 136.3,43.2 -154.2,0 0,-163.15 154.2,0 0,163.15 z m -172.8,-0.1 0,-163.13 -42.9,0 0,163.13 42.9,0 z m -61.4,0 0,-163.13 -42.9,0 0,163.13 42.9,0 z m -185.6,-83.5 0,56.1 c 0,16 10.4,27.5 26.3,27.5 l 69.4,0 c 21.5,0 33.2,-11.8 33.2,-33.4 l 0,-25.3 -42.8,0 0,18.4 c 0,4.7 -2.2,6.9 -7,6.9 l -29.9,0 c -4.8,0 -8.3,-3.4 -8.3,-8.3 l 0,-39.6 0,-1.4 0,-39.62 c 0,-4.86 3.5,-8.24 8.3,-8.24 l 29.9,0 c 4.8,0 7,2.14 7,6.87 l 0,18.39 42.8,0 0,-25.25 C 495.6,66.79 483.9,55 462.4,55 L 393,55 c -15.9,0.16 -26.3,11.68 -26.3,27.64 l 0,52.76 z M 266.3,93.27 c 0,-2.14 2.2,-4.7 4.8,-4.7 l 32.8,0 c 4.4,0 6.8,2.22 6.8,6.92 l 0,18.31 42.3,0 0,-32.05 C 353,66.77 338.6,55.21 324.3,55.21 l -71.1,0 c -17.2,0 -28.5,10.97 -28.5,27.01 l 0,27.58 c 0,12 10.9,17 16.3,20.5 5.5,3.5 66.7,38.5 66.7,38.5 3.1,1.9 3.1,3.7 3.1,7.2 l -0.1,4.8 c 0,2.8 -2.9,5.5 -5.5,5.5 -2.6,0 -32.1,0 -32.1,0 -3.4,0 -6.2,-2.9 -6.2,-6.1 0,-2.5 0,-19.9 0,-19.9 l -42.2,0 0,33 c 0,14.1 13.3,25.6 25.9,25.6 l 78.2,0.1 c 13.3,0 24.2,-13.1 24.2,-24.5 l 0,-26 c 0,-13.8 -5.7,-18.7 -19,-26.6 C 320.6,134 270.8,105 270.8,105 c -4.4,-2.4 -4.5,-5.51 -4.5,-7.6 0,-0.62 -0.1,-3.57 0,-4.13 m -94.9,4.1 -36.9,63.53 36.9,0 0,-63.53 z M 55,218.6 154.7,57.31 l 55,0 0,161.29 -40,-0.2 0,-25.2 -53.3,0 -15,25.3 -46.4,0"></path> </svg>