<?xml version="1.0"?>

<!-- Generator: Adobe Illustrator 19.1.0, SVG Export Plug-In . SVG Version: 6.00 Build 0)  -->
<svg version="1.1" id="Layer_1" xmlns="http://www.w3.org/2000/svg" xmlns:xlink="http://www.w3.org/1999/xlink" x="0px" y="0px" width="600px" height="200px" viewBox="0 0 600 200" enable-background="new 0 0 600 200" xml:space="preserve">
<path d="M266.591,8.453c-2.084,8.765-4.124,17.342-6.197,26.056c11.071,0,22.003,0,33.062,0c-0.528,2.703-1.023,5.275-1.536,7.843
	c-1.155,5.788-2.319,11.575-3.482,17.362c-0.057,0.287-0.17,0.566-0.197,0.855c-0.045,0.489-0.291,0.677-0.766,0.649
	c-0.341-0.02-0.684-0.002-1.026-0.002c-9.919,0-19.838,0-29.758,0c-0.342,0-0.687,0.026-1.026-0.005
	c-0.622-0.057-0.832,0.232-0.932,0.825c-0.35,2.068-0.762,4.125-1.147,6.188c-2.003,10.743-4.003,21.486-6.007,32.229
	c-1.512,8.105-3.006,16.214-4.551,24.313c-0.768,4.025-1.681,8.024-2.209,12.092c-0.472,3.635-0.805,7.281-0.718,10.955
	c0.022,0.936,0.154,1.854,0.349,2.758c0.7,3.237,2.803,5.16,6.123,5.636c1.112,0.159,2.229,0.282,3.358,0.232
	c3.951-0.174,7.916-0.265,11.795-1.124c2.233-0.494,4.427-1.169,6.632-1.761c0.362,0.376,0.153,0.762,0.077,1.114
	c-1.799,8.344-3.632,16.681-5.383,25.035c-0.203,0.97-0.657,1.374-1.494,1.712c-3.564,1.437-7.29,2.182-11.08,2.602
	c-4.714,0.524-9.443,0.792-14.185,0.342c-6.589-0.625-12.741-2.45-17.997-6.653c-5.337-4.267-8.43-9.902-9.854-16.509
	c-0.755-3.505-0.874-7.053-0.75-10.635c0.303-8.673,1.873-17.161,3.53-25.644c1.833-9.385,3.604-18.781,5.403-28.172
	c1.817-9.487,3.637-18.973,5.453-28.461c0.439-2.296,0.869-4.593,1.331-7.033c-6.573,0-13.049,0-19.352,0
	c-0.366-0.272-0.312-0.48-0.279-0.655c1.549-8.396,3.119-16.788,4.634-25.19c0.163-0.905,0.643-0.91,1.32-0.909
	c5.815,0.011,11.629,0.007,17.444,0.006c1.433,0,1.434-0.003,1.794-1.425c1.951-7.706,3.901-15.412,5.851-23.119
	c0.317-1.252,0.318-1.266,1.637-1.279c3.517-0.036,7.035-0.059,10.551-0.087c6.009-0.047,12.017-0.093,18.026-0.139
	C265.473,8.451,265.909,8.453,266.591,8.453z"></path>
<path d="M388.363,34.553c-0.681,3.43-1.318,6.681-1.973,9.929c-1.04,5.16-2.089,10.319-3.144,15.477
	c-0.234,1.144-0.254,1.157-1.394,1.158c-10.3,0.005-20.6,0.005-30.901,0c-1.29-0.001-1.284-0.016-1.028-1.332
	c1.527-7.848,3.05-15.696,4.574-23.544c0.037-0.191,0.086-0.381,0.128-0.571c0.258-1.155,0.258-1.172,1.37-1.172
	c10.495-0.004,20.991-0.002,31.486-0.001C387.721,34.497,387.959,34.527,388.363,34.553z"></path>
<path d="M341.181,34.621c-0.596,3.015-1.184,6.018-1.785,9.019c-1.035,5.166-2.078,10.33-3.12,15.495
	c-0.077,0.382-0.214,0.761-0.235,1.145c-0.039,0.726-0.447,0.899-1.075,0.838c-0.194-0.019-0.39-0.002-0.586-0.002
	c-10.113,0-20.226,0.001-30.339-0.001c-1.35-0.001-1.612,0.285-1.256-1.487c1.616-8.034,3.166-16.081,4.709-24.129
	c0.13-0.674,0.288-1.021,1.071-1.019c10.699,0.024,21.398,0.018,32.097,0.024C340.805,34.505,340.945,34.566,341.181,34.621z"></path>
<path d="M480.86,100.802c2.494-2.686,5.578-3.807,9.217-3.554c3.692,0.257,5.64,2.401,5.537,6.135
	c-0.049,1.77-0.453,3.483-0.783,5.205c-1.238,6.468-2.508,12.929-3.764,19.393c-0.242,1.249-0.241,1.258-1.456,1.262
	c-2.239,0.007-4.479,0.002-6.866,0.002c0.396-2.105,0.753-4.062,1.134-6.015c1.01-5.171,2.039-10.338,3.036-15.511
	c0.128-0.666,0.166-1.361,0.148-2.04c-0.035-1.367-0.675-2.028-2.038-2.22c-2.058-0.29-3.896,0.623-4.921,2.445
	c-0.558,0.993-0.81,2.084-1.026,3.189c-1.24,6.367-2.51,12.729-3.699,19.106c-0.167,0.899-0.516,1.079-1.331,1.062
	c-2.288-0.047-4.579-0.016-6.959-0.016c0.619-3.247,1.2-6.358,1.805-9.465c1.334-6.846,2.679-13.69,4.018-20.536
	c0.235-1.203,0.232-1.211,1.498-1.215c1.808-0.007,3.615-0.013,5.423,0.003c1.031,0.009,1.025,0.029,0.836,1.091
	c-0.077,0.432-0.125,0.869-0.186,1.304C480.429,100.735,480.467,100.945,480.86,100.802z"></path>
<path d="M437.756,158.785c0.049-1.137,0.346-2.043,0.069-2.976c-0.194-0.652-0.491-1.143-1.121-1.437
	c-1.83-0.856-4.681,0.141-5.585,1.967c-0.93,1.881-0.397,3.484,1.547,4.313c1.523,0.649,3.105,1.158,4.661,1.731
	c0.915,0.337,1.822,0.69,2.689,1.146c2.477,1.302,3.554,3.351,3.397,6.124c-0.357,6.345-4.409,10.669-10.839,11.423
	c-2.479,0.29-4.972,0.276-7.438-0.229c-1.01-0.207-1.978-0.529-2.858-1.08c-1.415-0.886-2.237-2.173-2.426-3.818
	c-0.191-1.66-0.056-3.313,0.285-4.953c0.095-0.456,0.265-0.685,0.755-0.682c2.144,0.012,4.289,0.006,6.415,0.006
	c0.267,0.509,0.067,0.919-0.004,1.335c-0.485,2.855,0.944,4.416,3.846,4.207c2.335-0.167,3.953-1.684,4.227-3.925
	c0.124-1.013-0.177-1.818-0.991-2.442c-0.549-0.421-1.158-0.719-1.797-0.969c-1.681-0.656-3.358-1.322-5.04-1.973
	c-0.965-0.373-1.85-0.875-2.642-1.543c-2.271-1.915-2.509-4.427-1.968-7.088c1.007-4.956,4.232-7.785,9.01-8.906
	c2.93-0.688,5.914-0.726,8.842,0.114c3.174,0.91,4.651,2.94,4.637,6.248c-0.004,0.932-0.122,1.846-0.321,2.758
	c-0.103,0.472-0.311,0.657-0.781,0.655C442.182,158.78,440.038,158.785,437.756,158.785z"></path>
<path d="M426.024,119.64c0.772-1.994,1.547-3.986,2.314-5.981c1.854-4.822,3.712-9.643,5.552-14.47
	c0.533-1.399,0.532-1.152,1.655-1.156c2.193-0.01,4.384-0.003,6.532-0.003c0.315,0.437,0.035,0.721-0.09,1.003
	c-4.341,9.754-8.695,19.502-13.022,29.262c-0.29,0.654-0.592,0.989-1.374,0.972c-2.489-0.053-4.981-0.043-7.471-0.004
	c-0.675,0.01-0.966-0.17-1.002-0.872c-0.092-1.803-0.252-3.603-0.364-5.406c-0.335-5.359-0.655-10.719-0.992-16.079
	c-0.162-2.582-0.36-5.162-0.516-7.744c-0.067-1.105-0.035-1.122,1.077-1.128c2.051-0.012,4.102-0.012,6.153,0
	c1.161,0.007,1.17,0.021,1.175,1.246c0.029,6.494,0.052,12.989,0.077,19.483c0.001,0.28,0,0.559,0,0.839
	C425.828,119.613,425.925,119.627,426.024,119.64z"></path>
<path d="M139.799,160.599c0.051-0.248,0.189-0.524,0.431-0.477c0.319,0.06,0.147,0.381,0.115,0.582
	c-0.029,0.181-0.142,0.349-0.217,0.523C140.025,161.015,140.083,160.717,139.799,160.599z"></path>
<path d="M480.86,100.802c-0.08,0.266-0.302,0.608-0.502,0.457c-0.25-0.19-0.116-0.578,0.129-0.831
	C480.612,100.553,480.736,100.677,480.86,100.802z"></path>
<path d="M359.16,152.475c1.759-1.919,3.818-3.325,6.447-3.744c1.607-0.256,3.21-0.272,4.792,0.163
	c2.265,0.623,3.513,2.145,3.767,4.493c0.252,2.33-0.335,4.562-0.766,6.809c-1.214,6.322-2.459,12.638-3.693,18.956
	c-0.056,0.287-0.125,0.571-0.177,0.859c-0.07,0.39-0.269,0.581-0.691,0.579c-2.434-0.011-4.868-0.006-7.364-0.006
	c-0.007-1.492,0.413-2.798,0.663-4.12c1.089-5.75,2.237-11.489,3.359-17.232c0.15-0.769,0.241-1.546,0.184-2.33
	c-0.09-1.24-0.629-1.828-1.87-2.078c-1.945-0.392-3.953,0.522-5.003,2.277c-0.638,1.067-0.899,2.256-1.131,3.456
	c-1.203,6.224-2.407,12.449-3.618,18.672c-0.263,1.354-0.279,1.354-1.657,1.356c-2.191,0.003-4.382,0.001-6.689,0.001
	c0.616-3.239,1.196-6.341,1.798-9.438c1.331-6.845,2.674-13.688,4.009-20.532c0.235-1.206,0.23-1.214,1.49-1.217
	c2.094-0.005,4.188-0.001,6.364-0.001c0.115,0.877-0.308,1.597-0.288,2.356C359.082,151.997,358.805,152.268,359.16,152.475z
	 M333.118,178.265c-0.109,0.72-0.218,1.439-0.324,2.139c0.389,0.28,0.791,0.177,1.17,0.179c1.758,0.011,3.517,0.01,5.276,0.003
	c1.218-0.005,1.213-0.013,1.455-1.251c1.534-7.849,3.074-15.697,4.604-23.547c0.406-2.083,0.786-4.17,1.202-6.389
	c-2.438,0-4.729,0.043-7.016-0.022c-0.889-0.026-1.12,0.302-1.276,1.125c-1.192,6.325-2.449,12.639-3.678,18.957
	c-0.234,1.202-0.497,2.389-1.143,3.452c-1.13,1.859-3.298,2.733-5.299,2.14c-1.03-0.305-1.436-0.792-1.541-1.87
	c-0.071-0.734-0.017-1.47,0.122-2.188c1.094-5.65,2.22-11.293,3.297-16.945c0.286-1.504,0.743-2.99,0.777-4.65
	c-2.302,0-4.493-0.004-6.684,0.001c-1.291,0.003-1.284,0.011-1.542,1.338c-1.247,6.414-2.513,12.825-3.737,19.244
	c-0.41,2.151-0.943,4.289-0.74,6.521c0.199,2.202,1.353,3.624,3.404,4.298c1.899,0.624,3.85,0.539,5.793,0.177
	c2.356-0.439,4.208-1.731,5.802-3.455C333.409,177.734,333.11,178.015,333.118,178.265z M381.23,155.647
	c-0.858,4.452-1.723,8.902-2.571,13.355c-0.456,2.394-1.07,4.764-1.176,7.212c-0.118,2.739,0.812,4.075,3.488,4.417
	c2.549,0.325,5.067,0.04,7.598-0.04c0.436-0.013,0.609-0.255,0.678-0.615c0.312-1.618,0.612-3.238,0.913-4.842
	c-0.451-0.194-0.845-0.098-1.23-0.089c-2.69,0.065-3.252-0.538-2.746-3.207c1.016-5.364,2.111-10.712,3.12-16.077
	c0.137-0.727,0.472-0.846,1.079-0.832c0.976,0.022,1.954-0.023,2.929,0.015c0.616,0.024,0.877-0.249,0.977-0.819
	c0.268-1.525,0.561-3.047,0.881-4.771c-1.576,0-3.051,0-4.601,0c0.588-3.06,1.137-5.921,1.718-8.942
	c-2.58,0-5.057,0.004-7.534-0.003c-0.523-0.001-0.612,0.321-0.692,0.746c-0.462,2.442-0.988,4.874-1.406,7.323
	c-0.13,0.764-0.453,0.968-1.153,0.93c-0.779-0.042-1.562-0.001-2.343-0.012c-0.423-0.006-0.786,0.053-0.878,0.553
	c-0.299,1.615-0.597,3.23-0.924,5.004c1.395,0,2.647,0,3.803,0C381.358,155.281,381.266,155.463,381.23,155.647z M298.143,190.561
	c1.268,0.004,2.539,0.044,3.803-0.023c4.945-0.259,7.72-2.633,8.775-7.456c0.031-0.143,0.042-0.29,0.07-0.434
	c1.833-9.38,3.668-18.758,5.497-28.139c0.323-1.654,0.617-3.312,0.951-5.108c-2.588,0-5.022,0.009-7.456-0.005
	c-0.717-0.004-0.698,0.5-0.791,0.985c-1.758,9.096-3.516,18.192-5.298,27.283c-0.309,1.576-0.527,3.177-1.092,4.695
	c-0.685,1.842-1.303,2.302-3.229,2.375c-0.195,0.007-0.396,0.032-0.584-0.007c-0.597-0.124-0.774,0.232-0.863,0.711
	c-0.303,1.627-0.608,3.253-0.941,5.035C297.47,190.511,297.806,190.56,298.143,190.561z M317.334,145.646
	c0.451,0.002,0.698-0.128,0.789-0.627c0.34-1.863,0.72-3.719,1.1-5.575c0.119-0.584-0.1-0.78-0.677-0.775
	c-2.189,0.018-4.379,0.014-6.568,0.001c-0.449-0.002-0.758,0.123-0.847,0.594c-0.395,2.086-0.787,4.171-1.204,6.378
	C312.479,145.642,314.906,145.637,317.334,145.646z M359.086,151.755c-0.28,0.246-0.355,0.604-0.197,0.879
	c0.149,0.26,0.26,0.047,0.27-0.159C359.135,152.235,359.111,151.995,359.086,151.755z M333.118,178.265
	c0.28-0.252,0.351-0.614,0.198-0.894c-0.147-0.269-0.261-0.054-0.277,0.153C333.065,177.77,333.091,178.018,333.118,178.265z"></path>
<path d="M370.309,101.105c2.952-3.482,6.717-4.529,11.066-3.543c2.405,0.545,3.684,2.24,3.86,4.722
	c0.09,1.274-0.034,2.533-0.279,3.785c-1.441,7.367-2.896,14.732-4.287,22.11c-0.164,0.867-0.464,1.108-1.309,1.087
	c-2.288-0.056-4.577-0.019-6.986-0.019c0.538-2.802,1.045-5.471,1.564-8.139c0.893-4.594,1.794-9.187,2.69-13.78
	c0.028-0.144,0.053-0.288,0.071-0.433c0.336-2.684-0.901-3.865-3.585-3.409c-1.797,0.305-2.968,1.389-3.666,3.026
	c-0.677,1.587-0.852,3.3-1.182,4.97c-1.108,5.595-2.181,11.197-3.262,16.798c-0.094,0.486-0.113,0.977-0.819,0.973
	c-2.434-0.015-4.868-0.006-7.443-0.006c0.365-1.947,0.693-3.756,1.044-5.562c1.533-7.896,3.078-15.79,4.607-23.686
	c0.381-1.964,0.362-1.968,2.339-1.968c1.514,0,3.028-0.007,4.541,0.004c0.379,0.003,0.786-0.103,1.173,0.21
	c-0.152,0.929-0.308,1.885-0.464,2.84C370.074,101.336,370.197,101.142,370.309,101.105z M340.605,98.031
	c-1.906-0.003-3.812-0.011-5.718,0.002c-1.054,0.007-1.059,0.023-1.272,1.117c-1.638,8.379-3.277,16.758-4.911,25.139
	c-0.313,1.608-0.601,3.22-0.924,4.958c2.387,0,4.629,0.004,6.871-0.002c1.156-0.003,1.17-0.009,1.388-1.124
	c1.257-6.416,2.508-12.833,3.759-19.25c0.197-1.01,0.453-2.001,0.949-2.91c0.999-1.835,2.824-2.763,4.893-2.507
	c1.424,0.177,2.09,0.877,2.109,2.312c0.009,0.63-0.037,1.274-0.157,1.893c-1.101,5.701-2.247,11.393-3.324,17.098
	c-0.275,1.456-0.71,2.898-0.743,4.49c2.288,0,4.483,0.011,6.677-0.004c1.516-0.01,1.233,0.189,1.535-1.318
	c1.32-6.602,2.585-13.216,3.864-19.826c0.371-1.916,0.789-3.825,0.653-5.804c-0.171-2.476-1.433-4.175-3.842-4.736
	c-3.808-0.887-7.263-0.155-10.189,2.579c-0.383,0.358-0.647,0.851-1.254,1.144c0.186-1.086,0.356-2.076,0.52-3.033
	C341.194,97.995,340.894,98.031,340.605,98.031z M322.069,87.845c-0.505-0.002-0.655,0.274-0.73,0.717
	c-0.18,1.057-0.394,2.108-0.599,3.16c-2.013,10.333-4.028,20.666-6.039,30.999c-0.415,2.132-0.811,4.268-1.238,6.524
	c2.676,0,5.21-0.016,7.743,0.012c0.595,0.007,0.729-0.302,0.818-0.776c0.235-1.245,0.499-2.484,0.74-3.728
	c1.926-9.903,3.851-19.807,5.772-29.711c0.454-2.34,0.895-4.684,1.373-7.193C327.22,87.85,324.645,87.854,322.069,87.845z
	 M369.981,101.083c-0.185,0.103-0.316,0.308-0.1,0.401c0.217,0.093,0.409-0.107,0.427-0.379
	C370.199,101.098,370.09,101.091,369.981,101.083z"></path>
<path d="M193.395,35.402c-2.073-0.548-4.113-1.229-6.19-1.758c-9.255-2.356-18.669-3.638-28.198-4.187
	c-8.275-0.477-16.497-0.138-24.678,1.214c-12.126,2.005-23.495,6.09-34.005,12.468C83.267,53.491,70.599,67.874,61.886,85.724
	c-8.543,17.502-12.47,35.989-10.916,55.496c0.563,7.071,2.402,13.842,5.649,20.173c4.918,9.591,12.237,16.602,22.421,20.409
	c8.658,3.236,17.549,3.51,26.546,1.801c9.153-1.739,17.062-5.987,24.045-12.077c3.772-3.29,7.049-7.033,10.168-10.926
	c0.685-0.093,0.437,0.304,0.329,0.627c-0.547,3.172-1.087,6.346-1.643,9.517c-0.615,3.505-1.244,7.006-1.862,10.483
	c0.411,0.284,0.811,0.186,1.19,0.187c9.089,0.005,18.179,0.005,27.268,0.003c1.224-0.001,1.236-0.008,1.415-0.936
	c1.957-10.156,3.909-20.313,5.863-30.469c1.908-9.917,3.818-19.834,5.724-29.751s3.809-19.836,5.717-29.753
	c1.907-9.917,3.823-19.833,5.728-29.751c1.537-8.002,3.048-16.007,4.617-24.003C194.3,35.963,194.204,35.616,193.395,35.402z
	 M157.793,58.355c-1.151,5.989-2.226,11.994-3.378,17.982c-1.318,6.851-2.547,13.723-4.073,20.529
	c-3.769,16.806-10.909,32-22.16,45.146c-3.35,3.913-7.106,7.4-11.45,10.208c-3.48,2.249-7.174,4.01-11.357,4.405
	c-7.596,0.718-14.649-2.044-18.397-9.705c-1.563-3.195-2.378-6.596-2.859-10.093c-0.347-2.522-0.412-5.061-0.5-7.646
	c1.086-25.126,10.784-45.979,30.902-61.545c6.89-5.331,14.7-8.825,23.322-10.385c4.355-0.788,8.741-0.882,13.141-0.599
	c2.045,0.131,4.088,0.294,6.113,0.661C157.812,57.442,157.928,57.652,157.793,58.355z"></path>
<path d="M527.455,87.877c-2.345-0.015-4.69-0.007-7.035-0.038c-0.68-0.009-0.773,0.393-0.871,0.916
	c-0.475,2.541-0.957,5.082-1.475,7.615c-0.289,1.414-0.431,2.865-0.951,4.352c-0.317-0.457-0.552-0.822-0.813-1.168
	c-0.957-1.27-2.222-2.069-3.8-2.249c-3.888-0.444-7.122,0.772-9.544,3.92c-0.929,1.207-1.627,2.546-2.213,3.948
	c-1.287,3.079-2.037,6.303-2.634,9.572c-0.52,2.847-0.789,5.709-0.553,8.601c0.282,3.451,1.933,5.669,4.931,6.289
	c3.378,0.699,6.515,0.18,9.054-2.428c0.261-0.269,0.442-0.643,0.938-0.803c0.101,0.959-0.464,1.809-0.265,2.843
	c2.165,0,4.357-0.038,6.547,0.02c0.809,0.021,1.15-0.272,1.209-1.031c0.018-0.241,0.094-0.478,0.141-0.718
	c2.023-10.391,4.047-20.781,6.067-31.172c0.539-2.774,1.064-5.551,1.591-8.306C527.626,87.961,527.541,87.877,527.455,87.877z
	 M515.172,111.02c-0.467,2.94-1.031,5.854-2.044,8.664c-0.315,0.873-0.649,1.74-1.219,2.485c-1.044,1.364-2.424,1.924-4.114,1.593
	c-1.227-0.241-1.868-0.926-2.028-2.172c-0.1-0.771-0.089-1.556-0.12-2.196c0.335-4.195,1.065-8.16,2.439-11.995
	c0.264-0.736,0.571-1.455,1.012-2.103c0.825-1.211,1.961-1.871,3.449-1.867c1.731,0.005,2.744,0.9,2.888,2.635
	C515.571,107.722,515.433,109.374,515.172,111.02z"></path>
<path d="M461.334,97.71c-3.378-0.778-6.797-0.768-10.143,0.208c-4.389,1.279-7.548,5.324-7.636,9.733
	c2.142,0,4.284-0.007,6.425,0.005c0.487,0.003,0.701-0.222,0.771-0.676c0.044-0.288,0.122-0.574,0.205-0.854
	c0.759-2.561,2.777-3.786,5.406-3.285c1.152,0.219,1.83,0.905,1.897,2.088c0.127,2.244-0.618,4.325-3.294,4.998
	c-0.331,0.083-0.659,0.178-0.987,0.271c-2.393,0.671-4.848,1.119-7.175,2.021c-5.348,2.076-8.456,8.174-6.992,13.726
	c0.588,2.229,2.151,3.624,4.439,3.858c1.557,0.159,3.111,0.088,4.667-0.187c1.812-0.32,3.282-1.178,4.526-2.499
	c0.245-0.26,0.395-0.679,0.929-0.706c0.053,0.696,0.086,1.363,0.161,2.025c0.063,0.552,0.334,0.833,0.966,0.823
	c2.241-0.035,4.483-0.013,6.954-0.013c-0.323-1.861-0.251-3.554,0.081-5.245c1.109-5.647,2.212-11.296,3.287-16.949
	c0.191-1.002,0.356-2.014,0.36-3.05C466.194,100.425,464.817,98.512,461.334,97.71z M456.563,114.616
	c-0.339,1.819-0.615,3.652-1.032,5.453c-0.605,2.615-3.001,4.468-5.634,4.478c-1.345,0.006-1.949-0.471-2.263-1.787
	c-0.641-2.678,0.808-5.656,3.302-6.821c0.668-0.312,1.37-0.509,2.081-0.67c1.003-0.226,1.964-0.559,2.889-1.002
	c0.098-0.095,0.214-0.163,0.343-0.208c0.076-0.056,0.161-0.078,0.254-0.062C456.674,114.188,456.646,114.399,456.563,114.616z"></path>
<path d="M456.563,114.616c-0.02-0.206-0.04-0.414-0.061-0.62c0.034-0.12,0.14-0.178,0.199-0.092
	C456.88,114.172,456.796,114.415,456.563,114.616z"></path>
<path d="M456.248,114.059c-0.049,0.177-0.166,0.242-0.343,0.208C455.978,114.129,456.078,114.036,456.248,114.059z"></path>
<path d="M419.229,156.578c-0.304-4.449-2.163-7.132-6.925-7.86c-1.603-0.245-3.222-0.224-4.825-0.082
	c-3.382,0.301-6.32,1.587-8.61,4.169c-1.21,1.364-2.116,2.916-2.838,4.587c-1.012,2.34-1.695,4.783-2.167,7.275
	c-0.618,3.263-1.148,6.541-0.709,9.888c0.458,3.486,2.331,5.546,5.743,6.343c1.253,0.293,2.521,0.258,3.816,0.374
	c0.895-0.051,1.827-0.059,2.747-0.164c3.337-0.381,6.176-1.732,8.32-4.386c0.926-1.145,1.666-2.404,2.274-3.744
	c1.013-2.232,1.69-4.572,2.19-6.962C418.894,162.906,419.447,159.771,419.229,156.578z M411.15,159.319
	c-0.344,4.038-1.081,7.999-2.384,11.847c-0.345,1.018-0.764,2.004-1.392,2.882c-0.741,1.037-1.711,1.72-3.023,1.819
	c-1.844,0.14-2.974-0.74-3.262-2.577c-0.19-1.213-0.142-2.44,0.025-3.645c0.473-3.425,1.103-6.824,2.053-10.153
	c0.374-1.313,0.888-2.58,1.737-3.676c0.854-1.101,1.941-1.741,3.381-1.707c1.525,0.036,2.472,0.778,2.744,2.297
	C411.2,157.363,411.304,158.338,411.15,159.319z"></path>
<path d="M413.096,105.002c-0.28-4.623-2.821-7.273-7.427-7.693c-1.116-0.102-2.246-0.097-3.367-0.064
	c-5.107,0.152-8.95,2.436-11.45,6.906c-0.475,0.848-0.885,1.741-1.235,2.648c-1.649,4.27-2.484,8.712-2.75,13.676
	c0.035,0.625,0.042,1.654,0.158,2.67c0.408,3.558,2.352,5.675,5.831,6.416c2.274,0.484,4.571,0.423,6.852,0.152
	c2.005-0.238,3.891-0.902,5.559-2.093c2.087-1.489,3.51-3.507,4.578-5.795c1.035-2.22,1.721-4.56,2.232-6.949
	C412.772,111.622,413.298,108.348,413.096,105.002z M404.623,111.426c-0.445,2.89-1.038,5.746-2.018,8.51
	c-0.31,0.875-0.682,1.718-1.179,2.505c-0.451,0.714-1.02,1.305-1.78,1.69c-2.345,1.187-4.487,0.019-4.734-2.593
	c-0.046-0.483-0.007-0.974-0.007-1.461c0.396-4.466,1.125-8.876,2.563-13.143c0.297-0.881,0.723-1.704,1.291-2.444
	c0.481-0.626,1.043-1.179,1.804-1.44c1.979-0.677,4.086-0.293,4.406,2.419C405.209,107.485,404.926,109.453,404.623,111.426z"></path>
<path d="M552.398,104.828c-0.277-4.176-2.357-6.549-6.422-7.366c-1.696-0.34-3.408-0.294-5.11-0.176
	c-4.139,0.287-7.464,2.092-9.858,5.52c-0.87,1.245-1.543,2.595-2.096,4.01c-0.874,2.234-1.467,4.547-1.926,6.893
	c-0.583,2.979-0.947,5.983-0.69,9.026c0.327,3.861,2.293,6.047,6.051,6.865c1.21,0.263,2.425,0.236,3.319,0.28
	c7.562,0.131,11.608-3.149,14.086-9.427c0.7-1.774,1.223-3.602,1.627-5.461C552.106,111.645,552.627,108.273,552.398,104.828z
	 M544.4,107.761c-0.351,3.99-1.076,7.91-2.306,11.726c-0.373,1.159-0.831,2.292-1.568,3.282c-0.797,1.072-1.828,1.736-3.201,1.777
	c-1.564,0.046-2.435-0.585-2.908-2.115c-0.071-0.232-0.152-0.467-0.173-0.706c-0.048-0.533-0.06-1.07-0.091-1.688
	c0.248-3.282,0.935-6.569,1.685-9.845c0.316-1.378,0.685-2.737,1.273-4.029c0.387-0.85,0.87-1.628,1.537-2.291
	c1.029-1.023,2.284-1.261,3.645-1.017c1.02,0.183,1.59,0.91,1.85,1.863C544.416,105.709,544.49,106.732,544.4,107.761z"></path>
</svg>
