<?xml version="1.0"?>

<svg xmlns="http://www.w3.org/2000/svg" viewBox="0 0 344 107.9" width="344" height="107.9"> <path d="m 56.54,41.53 c 2.45,0 3.88,-0.15 4.38,-0.15 0.6,0 1.18,0.5 1.18,1.19 0,0.2 0,0.35 -0.1,0.48 -0.34,0.87 -1.82,4 -4.58,6.69 -0.32,0.3 -0.67,0.35 -0.91,0.35 l 0,0 c -0.24,0 -0.59,0 -0.9,-0.33 -2.76,-2.69 -4.25,-5.82 -4.57,-6.69 0,-0.13 -0.1,-0.27 -0.1,-0.47 0,-0.7 0.57,-1.2 1.18,-1.2 0.49,0 1.91,0.13 4.36,0.13 l 0,0 z m -8.42,27.51 c -0.18,-0.19 -0.46,-0.39 -0.91,-0.39 -0.59,0 -0.94,0.4 -1.07,0.6 -3.29,5.02 -4.99,9.75 -5.23,14.5 0,0.34 0.13,0.7 0.34,0.95 0.25,0.25 0.58,0.42 0.94,0.42 l 7.81,0 c 0.68,0 1.24,-0.52 1.29,-1.19 0.18,-2.3 0.89,-4.59 2.18,-7 0.46,-0.84 0.1,-1.62 -0.16,-1.96 -1.26,-1.69 -2.84,-3.48 -5.19,-5.93 M 79.74,37.66 c -0.23,-0.18 -0.51,-0.26 -0.78,-0.26 -0.16,0 -0.31,0 -0.46,0.1 -2.78,1.07 -5.61,1.87 -8.19,2.47 -0.52,0.12 -0.95,0.52 -1.13,0.98 -1.87,5.15 -6.67,10.05 -11.7,15.18 -0.21,0.21 -0.49,0.45 -0.95,0.45 -0.46,0 -0.74,-0.25 -0.95,-0.45 C 50.55,51 45.76,46.12 43.88,40.97 43.71,40.5 43.27,40.12 42.75,39.99 c -2.58,-0.6 -5.41,-1.43 -8.21,-2.5 0,-0.1 -0.41,-0.1 -0.45,-0.1 -0.42,0 -0.55,0.1 -0.76,0.26 -0.41,0.27 -0.54,0.71 -0.5,1.14 0.42,4.28 2.09,8.46 5.16,12.84 2.87,4.12 6.61,7.94 10.23,11.63 6.66,6.8 12.96,13.22 13.51,20.68 0,0.67 0.61,1.17 1.29,1.17 l 7.83,0 c 0.34,0 0.69,0 0.93,-0.42 0.25,-0.41 0.38,-0.62 0.34,-0.96 C 71.87,78.74 70,73.76 66.39,68.49 65.63,67.38 64.82,66.3 63.98,65.25 c -0.33,-0.43 -0.21,-0.96 0.1,-1.23 0.25,-0.25 0.53,-0.53 0.79,-0.8 3.62,-3.69 7.35,-7.51 10.22,-11.63 3.06,-4.38 4.75,-8.54 5.18,-12.82 0,-0.39 -0.16,-0.85 -0.51,-1.11 m 11.02,-15 C 90.48,22.25 89.98,22 89.47,22 c -0.26,0 -0.52,0.1 -0.75,0.19 -9.6,5.26 -20.73,8.03 -32.18,8.03 -11.46,0 -22.57,-2.77 -32.18,-8.03 C 23.95,22.07 23.86,22 23.61,22 c -0.54,0 -1,0.25 -1.29,0.66 -0.46,0.6 -0.5,1.61 0.42,2.22 4.8,3.58 10.11,6.38 15.74,8.3 5.85,1.98 11.97,2.99 18.18,2.99 l 0,0 c 6.22,0 12.33,-1.01 18.18,-2.99 5.65,-1.92 10.95,-4.72 15.76,-8.31 0.65,-0.6 0.64,-1.61 0.18,-2.21 M 313.9,49.91 c -3.7,0 -8.8,1.28 -13.1,3.3 l -0.5,-1.76 c -0.2,-0.5 -0.6,-0.85 -1.1,-0.85 l -5.2,0 c -0.7,0 -1.2,0.53 -1.2,1.19 l 0,32.11 c 0,0.66 0.5,1.19 1.2,1.19 l 7,0 c 0.6,0 1.2,-0.53 1.2,-1.19 l 0,-22.24 c 2.5,-1.29 6.1,-2.62 8.2,-2.62 1.6,0 2.2,0.59 2.2,2.17 l 0,22.69 c 0,0.66 0.5,1.19 1.2,1.19 l 7,0 c 0.6,0 1.2,-0.53 1.2,-1.19 l 0,-23.58 c 0,-6.91 -2.7,-10.41 -8.1,-10.41 m -35.4,22.63 0,4.14 c -1.2,0.62 -3.3,1.51 -5.8,1.51 -2.2,0 -2.9,-0.67 -2.9,-2.86 0,-2.13 0.4,-2.79 3,-2.79 l 5.7,0 z m -4.7,-22.53 c -3.6,0 -7.9,0.55 -11,1.42 -0.6,0.17 -1,0.74 -0.9,1.34 l 0.8,5.1 c 0.1,0.33 0.3,0.6 0.5,0.79 0.3,0.16 0.6,0.25 0.9,0.2 2.9,-0.56 6,-0.88 8.5,-0.88 5.1,0 5.9,1.06 5.9,4.49 l 0,3 -7.5,0 c -7.2,0 -10.3,2.97 -10.3,9.93 0,6.66 3.4,10.47 9.2,10.47 3.4,0 6.8,-0.94 9.7,-2.66 l 0.3,1.1 c 0.1,0.52 0.6,0.88 1.1,0.88 l 5.7,0 c 0.7,0 1.2,-0.54 1.2,-1.19 l 0,-21.39 c 0,-9.19 -3.8,-12.6 -14.1,-12.6 m -18.3,0.65 -7,0 c -0.7,0 -1.2,0.53 -1.2,1.19 l 0,32.11 c 0,0.66 0.5,1.19 1.2,1.19 l 7,0 c 0.7,0 1.2,-0.53 1.2,-1.19 l 0,-32.11 c 0,-0.66 -0.5,-1.19 -1.2,-1.19 m 0,-13.25 -7,0 c -0.7,0 -1.2,0.53 -1.2,1.19 l 0,6.21 c 0,0.66 0.5,1.19 1.2,1.19 l 7,0 c 0.7,0 1.2,-0.53 1.2,-1.19 l 0,-6.21 c 0,-0.66 -0.5,-1.19 -1.2,-1.19 m -22.7,26.38 c -4.4,-1.12 -4.4,-1.17 -4.4,-3.56 0,-1.61 0.2,-2.38 3.8,-2.38 2.5,0 6.1,0.43 8.4,0.83 0.3,0 0.7,0 0.9,-0.21 0.3,-0.21 0.5,-0.48 0.5,-0.8 l 0.7,-5.37 c 0,-0.61 -0.4,-1.17 -1,-1.31 -2.6,-0.62 -6.4,-1.03 -9.5,-1.03 -10.8,0 -13,4.08 -13,10.2 0,6.73 1.2,8.99 9.5,11.01 5.5,1.31 5.5,2.29 5.5,3.91 0,2.12 -0.2,2.85 -3.8,2.85 -2.9,0 -6.2,-0.44 -9.1,-1.22 -0.4,-0.1 -0.7,0 -1,0.12 -0.3,0.17 -0.4,0.46 -0.5,0.79 l -0.9,5.08 c -0.2,0.59 0.2,1.16 0.8,1.35 3.2,1.03 7.7,1.76 11.1,1.76 10.5,0 12.6,-4.38 12.6,-10.96 0,-7.24 -1.3,-8.59 -10.6,-11.06 m -27.1,0 c -4.4,-1.12 -4.4,-1.17 -4.4,-3.56 0,-1.61 0.2,-2.38 3.8,-2.38 2.5,0 6.1,0.43 8.4,0.83 0.3,0 0.7,0 0.9,-0.21 0.3,-0.21 0.5,-0.48 0.5,-0.8 l 0.7,-5.37 c 0,-0.61 -0.4,-1.17 -1,-1.31 -2.6,-0.62 -6.4,-1.03 -9.5,-1.03 -10.8,0 -13,4.08 -13,10.2 0,6.73 1.2,8.99 9.5,11.01 5.5,1.31 5.5,2.29 5.5,3.91 0,2.12 -0.2,2.85 -3.8,2.85 -2.9,0 -6.2,-0.44 -9.1,-1.22 -0.4,-0.1 -0.7,0 -1,0.12 -0.3,0.17 -0.4,0.46 -0.5,0.79 l -0.9,5.08 c -0.2,0.59 0.2,1.16 0.8,1.35 3.2,1.03 7.7,1.76 11.1,1.76 10.5,0 12.6,-4.38 12.6,-10.96 0,-7.24 -1.3,-8.59 -10.6,-11.06 m -27.1,8.75 0,4.14 c -1.2,0.62 -3.3,1.51 -5.8,1.51 -2.2,0 -2.9,-0.67 -2.9,-2.86 0,-2.13 0.4,-2.79 3,-2.79 l 5.7,0 z m -4.7,-22.53 c -3.6,0 -7.9,0.55 -11,1.42 -0.6,0.17 -1,0.74 -0.9,1.34 l 0.8,5.1 c 0.1,0.33 0.3,0.6 0.5,0.79 0.3,0.16 0.6,0.25 0.9,0.2 2.9,-0.56 6,-0.88 8.5,-0.88 5.1,0 5.9,1.06 5.9,4.49 l 0,3 -7.5,0 c -7.2,0 -10.3,2.97 -10.3,9.93 0,6.66 3.4,10.47 9.2,10.47 3.4,0 6.8,-0.94 9.7,-2.66 l 0.3,1.1 c 0.1,0.52 0.6,0.88 1.1,0.88 l 5.7,0 c 0.7,0 1.2,-0.54 1.2,-1.19 l 0,-21.39 c 0,-9.19 -3.8,-12.6 -14.1,-12.6 m -18,-12.6 -7,0 c -0.7,0 -1.2,0.53 -1.2,1.19 l 0,45.3 c 0,0.63 0.5,1.17 1.2,1.17 l 7,0 c 0.7,0 1.2,-0.54 1.2,-1.17 l 0,-45.3 c 0,-0.66 -0.5,-1.19 -1.2,-1.19 m -13,40.88 c -0.1,-0.33 -0.2,-0.63 -0.5,-0.81 -0.3,-0.19 -0.6,-0.25 -1,-0.17 -1.2,0.31 -2.4,0.48 -3.3,0.48 -1.7,0 -2.5,-0.75 -2.5,-2.44 l 0,-17.02 6.8,0 c 0.7,0 1.2,-0.54 1.2,-1.19 l 0,-5.31 c 0,-0.66 -0.5,-1.19 -1.2,-1.19 l -6.8,0 0,-8.19 c 0,-0.34 -0.2,-0.68 -0.4,-0.9 -0.3,-0.21 -0.6,-0.34 -1,-0.29 l -7,0.99 c -0.6,0.1 -1,0.58 -1,1.17 l 0,7.22 -3.9,0 c -0.6,0 -1.2,0.53 -1.2,1.19 l 0,5.31 c 0,0.65 0.6,1.19 1.2,1.19 l 3.9,0 0,18.11 c 0,6.23 3.2,9.38 9.7,9.38 1.8,0 4.9,-0.42 7,-1.13 0.5,-0.17 0.9,-0.74 0.8,-1.3 l -0.8,-5.1 z M 109.5,39.16 c -0.1,-0.5 -0.6,-0.83 -1.1,-0.83 l -11.12,0 c -0.52,0 -0.98,0.33 -1.14,0.83 l -14.01,44.4 c -0.12,0.42 0,0.8 0.17,1.09 0.21,0.42 0.58,0.5 0.96,0.5 l 7.64,0 c 0.53,0 1,-0.42 1.15,-0.88 l 9.65,-32.66 c 0,0 0.2,-0.82 1.1,-0.82 0.9,0 1.1,0.85 1.1,0.85 l 4.5,15.49 -6,0 c -0.6,0 -1,0.33 -1.2,0.87 l -1.69,6.13 c -0.1,0.38 0,0.74 0.21,1.04 0.21,0.29 0.58,0.47 0.98,0.47 l 10.2,0 2.7,8.67 c 0.1,0.46 0.6,0.8 1.1,0.8 l 7.7,0 c 0.4,0 0.7,0 1,-0.46 0.2,-0.42 0.3,-0.71 0.1,-1.09 l -14,-44.4 z"></path> </svg>