 <svg 
   xmlns="http://www.w3.org/2000/svg"
   viewBox="0 0 500 500"
   height="500px"
   width="500px" > 
   <path
     d="m 338.3,222.9 c 24.5,42.9 34.2,76.5 22.4,85.7 -12.7,10 -47.4,-11.4 -87.1,-50.8 -1.3,-1.3 -2.1,-4.4 0.3,-6.8 1.5,-1.4 4.2,-1.7 6.2,-0.3 0.7,0.4 1.5,1.1 2,1.7 30.9,31 56.4,48.2 64.8,41.7 8.1,-6.3 -1.9,-33.6 -23.5,-69.4 -20.2,2.2 -42.4,3.4 -65.9,3.5 l 0,0 -1,0 -0.7,0 -0.1,0 -0.2,0 -0.8,0 -0.9,0 0,0 c -23.5,-0.1 -45.7,-1.3 -65.9,-3.5 -21.6,35.8 -31.6,63.1 -23.5,69.4 8.4,6.5 33.8,-10.7 64.8,-41.7 0.6,-0.6 1.3,-1.3 2,-1.7 1.8,-1.4 4.7,-1.1 6.2,0.3 2.5,2.4 1.6,5.5 0.3,6.8 -39.8,39.4 -74.4,60.8 -87.2,50.8 -11.7,-9.2 -2,-42.8 22.5,-85.7 -52.1,-7.2 -87.39,-20.7 -87.25,-36.4 0,-16.6 40.25,-30.9 98.35,-37.4 3.5,-0.1 5.4,2.4 5.4,4.8 0.1,2 -1.3,4.4 -3.7,4.9 -0.4,0 -0.9,0.1 -1.4,0.3 -46.8,4.8 -78.7,14.3 -78.7,25.4 0,10.8 30.1,20.4 75,25.5 11.6,-19.2 26,-39.7 42.2,-60.5 7.7,-9.8 15.5,-19 23.2,-27.9 -39.7,-44.23 -74.8,-71.12 -84.9,-63.19 -7.9,6.16 1.1,32.06 21.2,66.09 0.5,1.1 1.1,4.4 -1.4,6 -2.3,1.7 -5.5,0.7 -6.9,-1.5 -0.1,-0.4 -0.5,-0.8 -0.7,-1.3 C 148.7,84.63 138.7,50.74 150.5,41.47 165,30.14 207.6,59.02 253.8,109 l 0,0 c 0.6,0.7 1.1,1.2 1.9,2 0.5,-0.8 1.2,-1.3 1.8,-2 l 0,0 c 46.3,-49.98 88.8,-78.86 103.2,-67.53 11.9,9.27 2,43.16 -22.8,86.23 -0.1,0.5 -0.6,0.9 -0.7,1.3 -1.4,2.2 -4.6,3.2 -6.8,1.5 -2.6,-1.6 -2,-4.9 -1.5,-6 20.1,-34.03 29.1,-59.93 21.2,-66.09 -10.2,-7.93 -45.2,18.96 -84.9,63.19 7.7,8.9 15.4,18.1 23,27.9 16.4,20.8 30.8,41.3 42.5,60.5 44.8,-5.1 74.9,-14.7 74.9,-25.5 0,-11.1 -31.8,-20.6 -78.6,-25.4 -0.6,-0.2 -1,-0.3 -1.5,-0.3 -2.4,-0.5 -3.8,-2.9 -3.7,-4.9 0,-2.4 1.9,-4.9 5.3,-4.8 58.2,6.5 98.5,20.8 98.5,37.4 0.1,15.7 -35.2,29.2 -87.3,36.4 z m -23.2,-11.5 c -10.6,-16.6 -23.6,-34.7 -38.1,-53.1 -6.5,-8.2 -12.9,-16.2 -19.5,-23.7 l 0,0 c -0.6,-0.7 -1.3,-1.4 -1.8,-2.3 -0.8,0.9 -1.3,1.6 -1.9,2.3 l 0,0 c -6.5,7.5 -13.1,15.5 -19.5,23.7 -14.5,18.4 -27.4,36.5 -38.1,53.1 18.1,1.6 38,2.4 58.9,2.6 l 0.6,0 0.5,0 c 20.9,-0.2 40.9,-1 58.9,-2.6 z M 284.7,199 c 1.8,-0.1 2.4,-1.4 1.3,-2.8 0,0 -10.8,-14.9 -18.7,-24.3 -4,-4.6 -9.4,-10.7 -9.4,-10.7 -1.2,-1.4 -3.2,-1.4 -4.5,0 0,0 -5.4,6.1 -9.4,10.7 -7.8,9.4 -18.6,24.3 -18.6,24.3 -1.2,1.4 -0.6,2.7 1.2,2.8 0,0 17.5,1 29.1,1 11.5,0 29,-1 29,-1 z m 87.8,148 0,3.3 -6.3,0 -0.1,11.1 -3.4,0 0.1,-11.1 -6.2,-0.1 0,-3.3 z m -36.4,3.2 c 0,0.4 0.1,0.8 0.1,1.4 l 0,1 -3.6,0 0,-1 c 0,-0.7 -0.1,-1 -0.1,-1.3 -0.1,-0.1 -0.1,-0.3 -0.3,-0.3 -0.1,-0.1 -0.4,-0.3 -0.8,-0.3 -0.5,0 -1.2,-0.1 -1.9,-0.1 l -3.5,0 -1.8,0 c -0.4,0.1 -0.7,0.1 -0.8,0.3 -0.1,0 -0.3,0 -0.3,0.1 -0.1,0.2 -0.1,0.3 -0.1,0.6 -0.2,0.3 -0.2,0.7 -0.2,1.1 0,0.6 -0.1,1.3 -0.1,2 l 0,2 c 0,0.4 0.1,0.9 0.1,1.3 0,0.3 0.2,0.4 0.2,0.4 0.1,0.2 0.1,0.2 0.3,0.3 0.2,0 0.5,0.1 0.8,0.1 0.6,0 1.1,0.2 1.7,0.2 l 3.6,0 1.5,0 c 0.3,0 0.7,-0.2 0.9,-0.2 0.3,-0.1 0.4,-0.1 0.4,-0.1 0,-0.1 0.2,-0.1 0.2,-0.3 0,-0.1 0.1,-0.3 0.1,-0.5 0,-0.3 0,-0.6 0.1,-1 l 0,-1 3.5,0.1 0,1 c 0,0.6 0,1 -0.2,1.4 0,0.6 -0.1,1 -0.4,1.4 -0.2,0.5 -0.4,0.9 -0.9,1.2 -0.4,0.3 -0.8,0.6 -1.4,0.8 -0.4,0.2 -1,0.3 -1.7,0.3 -0.6,0.2 -1.3,0.2 -2.1,0.2 l -3.6,0 c -1,0 -1.8,-0.2 -2.5,-0.3 -0.8,-0.2 -1.5,-0.3 -1.9,-0.6 -0.6,-0.4 -1.1,-0.8 -1.4,-1.3 -0.3,-0.4 -0.4,-1 -0.6,-1.5 -0.1,-0.6 -0.1,-1.2 -0.1,-1.9 l 0,-2 0,-2 c 0,-0.7 0.1,-1.3 0.1,-1.8 0.2,-0.6 0.4,-1.2 0.7,-1.6 0.3,-0.4 0.9,-0.8 1.3,-1.1 0.6,-0.3 1.3,-0.6 2,-0.7 0.7,-0.2 1.6,-0.2 2.6,-0.2 l 3.5,0 c 0.9,0 1.6,0.2 2.1,0.2 0.8,0.1 1.3,0.2 1.8,0.4 0.5,0.3 1,0.4 1.4,0.7 0.3,0.4 0.5,0.7 0.8,1.1 0.2,0.5 0.3,0.9 0.5,1.5 z m -47.6,1.4 10.3,0.1 0,3.3 -10.3,-0.1 0,2.4 10.8,0.1 -0.1,3.3 -14.2,-0.1 0.1,-14.4 14.2,0.1 0,3.3 -10.8,-0.1 z m -28.3,-5.7 3.6,0 -0.2,9.8 c 0,0.7 -0.1,1.4 -0.3,1.9 -0.1,0.7 -0.5,1.1 -1,1.5 -0.4,0.5 -0.9,0.7 -1.7,0.9 -0.5,0.1 -1.2,0.3 -2.1,0.3 l -3.7,-0.2 c -0.8,0 -1.6,0 -2.1,-0.3 -0.6,-0.1 -1.2,-0.4 -1.6,-1 -0.3,-0.4 -0.6,-1 -0.7,-1.7 0,-0.5 -0.1,-1.2 -0.1,-2.1 l 0.1,-1.4 3.4,0 0,1.4 c 0,0.6 0,1.1 0.2,1.4 0,0.3 0.1,0.5 0.1,0.5 l 0,0 0.8,0 3.6,0.1 c 0.6,0 0.9,-0.1 1,-0.1 0.1,0 0.3,-0.2 0.4,-0.2 0,-0.1 0,-0.1 0.2,-0.3 l 0,-0.8 z m -30.3,4.8 0,2 0,2 c 0,0.7 -0.1,1.3 -0.3,1.9 -0.1,0.5 -0.3,1.1 -0.5,1.5 -0.3,0.5 -0.9,0.9 -1.5,1.2 -0.4,0.3 -1.1,0.5 -1.8,0.7 -0.7,0.1 -1.6,0.1 -2.6,0.1 l -4.7,-0.1 c -1,0 -1.8,0 -2.5,-0.2 -0.8,-0.1 -1.3,-0.4 -1.9,-0.7 -0.6,-0.3 -1,-0.7 -1.3,-1.1 -0.3,-0.4 -0.5,-1 -0.7,-1.6 0,-0.5 -0.1,-1.1 -0.1,-1.8 l 0,-2 0,-2.2 c 0.1,-0.5 0.1,-1.1 0.3,-1.7 0.1,-0.5 0.2,-1.1 0.7,-1.5 0.3,-0.6 0.7,-0.9 1.3,-1.3 0.5,-0.3 1.1,-0.4 1.8,-0.6 0.7,-0.1 1.6,-0.1 2.6,-0.1 l 4.7,0 c 1,0 1.8,0.1 2.5,0.3 0.7,0.1 1.4,0.3 1.9,0.7 0.5,0.3 1,0.7 1.4,1.1 0.3,0.4 0.4,1 0.6,1.6 0.1,0.6 0.1,1.1 0.1,1.8 z m -5,6.2 c 0.3,-0.2 0.6,-0.2 0.9,-0.3 0.1,0 0.1,0 0.3,-0.2 0,-0.1 0.1,-0.3 0.1,-0.5 0.1,-0.3 0.1,-0.8 0.1,-1.2 l 0,-2 c 0,-0.8 0.2,-1.4 0,-2 l 0,-1.2 c -0.1,-0.2 -0.1,-0.5 -0.2,-0.5 0,-0.1 -0.2,-0.1 -0.2,-0.3 -0.3,0 -0.5,-0.1 -1,-0.1 -0.4,0 -1,-0.1 -1.5,-0.1 l -4.7,0 -1.6,0 c -0.4,0 -0.7,0.1 -1,0.1 0,0.1 -0.1,0.1 -0.3,0.3 0,0.1 -0.1,0.3 -0.1,0.4 0,0.4 -0.2,0.9 -0.2,1.3 l 0,2 0,2 c 0,0.4 0,0.8 0.2,1.1 0,0.4 0.1,0.6 0.1,0.6 0,0.1 0.2,0.1 0.3,0.3 0.1,0 0.4,0.1 0.9,0.1 l 1.7,0 4.5,0.2 z m -33.3,-8.3 0,1.1 c 0,0.6 0,1.2 -0.1,1.6 -0.2,0.4 -0.3,1 -0.6,1.3 -0.1,0.3 -0.3,0.4 -0.4,0.6 0.1,0.1 0.3,0.2 0.4,0.4 0.2,0.4 0.3,0.8 0.3,1.3 0.1,0.4 0.1,0.8 0.1,1.2 l -0.1,3.5 -3.4,-0.2 0,-3.3 0,-0.8 c 0,-0.3 -0.2,-0.4 -0.2,-0.4 0,0 0,-0.2 -0.2,-0.2 -0.3,-0.1 -0.6,-0.1 -1,-0.1 l -1.7,0 -6,-0.2 0,5 -3.6,-0.1 0.2,-14.3 9.6,0 c 1,0 1.9,0.2 2.6,0.2 0.7,0.1 1.3,0.3 1.8,0.4 0.6,0.2 1,0.4 1.3,0.7 0.3,0.3 0.6,0.6 0.7,1 0.2,0.4 0.3,0.9 0.3,1.3 z m -5,2.7 c 0.5,-0.1 0.8,-0.1 1,-0.1 l 0.3,-0.2 c 0.2,-0.1 0.2,-0.1 0.2,-0.4 l 0,-0.9 0,-0.8 0,-0.3 c 0,0 -0.2,0 -0.5,-0.1 l -1,0 c -0.4,-0.2 -1,-0.2 -1.7,-0.2 l -6.1,0 -0.1,2.9 6.2,0.1 z m -31.8,-3.1 0,1.1 0,1.3 c 0,0.4 -0.2,0.8 -0.3,1.3 -0.2,0.4 -0.4,0.7 -0.7,1 -0.5,0.4 -0.9,0.5 -1.4,0.8 -0.5,0.2 -1,0.3 -1.8,0.3 -0.7,0.1 -1.5,0.1 -2.5,0.1 l -5.7,-0.1 0,5 -3.6,0 0.2,-14.4 10.2,0.2 2.2,0 c 0.5,0.1 1.1,0.2 1.5,0.4 0.4,0.3 0.9,0.4 1.2,0.8 0.2,0.3 0.4,0.6 0.5,1 0.2,0.5 0.2,0.7 0.2,1.2 z m -3.6,1.1 0,-0.8 0,-0.3 c 0,0 -0.1,0 -0.3,-0.2 l -1,0 c -0.5,0 -1.1,0 -1.7,-0.1 l -5.7,0 -0.1,2.8 5.7,0.2 1.7,0 c 0.4,0 0.7,-0.2 1,-0.2 0.3,0 0.4,-0.1 0.4,-0.1 l 0,-0.3 z m 275.9,80.3 0,11.6 c 0,5.9 -2.5,7.9 -6.7,7.9 -3.9,0 -6.5,-2 -6.5,-7.9 l 0,-43.9 c 0,-5.9 2.6,-8 6.5,-8 4.2,0 6.7,2.1 6.7,8 l 0,8.6 12,0 0,-7.8 c 0,-12.9 -6.4,-20.5 -18.9,-20.5 -12.6,0 -19.1,7.6 -19.1,20.5 l 0,42.3 c 0,12.9 6.5,20.5 19.1,20.5 12.5,0 18.9,-7.6 18.9,-20.5 l 0,-10.8 z m -69.4,30.3 12.8,0 0,-81.3 -12.8,0 z m -67.5,-81.3 -17.7,0 0,81.3 11.2,0 0,-57.5 9.5,57.5 12,0 8.8,-58.4 0,58.4 12.1,0 0,-81.3 -17.6,0 -8.9,57.7 z m -86.9,61.8 c 0,12.9 6.8,20.5 19.3,20.5 12.6,0 19.4,-7.6 19.4,-20.5 l 0,-42.3 c 0,-12.9 -6.8,-20.5 -19.4,-20.5 -12.5,0 -19.3,7.6 -19.3,20.5 z m 12.8,-43.1 c 0,-5.9 2.6,-8 6.5,-8 4.2,0 6.7,2.1 6.7,8 l 0,43.9 c 0,5.9 -2.5,8 -6.7,8 -3.9,0 -6.5,-2.1 -6.5,-8 z m -79.1,-7.2 13.4,0 0,69.8 12.6,0 0,-69.8 13.4,0 0,-11.5 -39.4,0 z m -33.2,-11.5 -18.61,0 -13.1,81.3 11.82,0 2.13,-14.7 15.76,0 2.2,14.7 12.9,0 z m -9.93,14.4 6.11,41.1 -12.23,0 z"  /> </svg>