<?xml version="1.0"?>
<!--?xml version="1.0" encoding="UTF-8" standalone="no"?-->
<svg xmlns:dc="http://purl.org/dc/elements/1.1/" xmlns:cc="http://creativecommons.org/ns#" xmlns:rdf="http://www.w3.org/1999/02/22-rdf-syntax-ns#" xmlns:svg="http://www.w3.org/2000/svg" xmlns="http://www.w3.org/2000/svg" viewBox="0 0 515.7 237.6" id="svg4212" height="237.6" width="515.7" version="1.1">
  <defs id="defs4216"></defs>
  <path d="m 509.2,155 c 0,-0.9 -0.6,-2.3 -2.6,-2.1 -11.5,0 -17.4,-6.2 -17.4,-18.2 l 0,-35.6 c 0,-0.6 0.5,-1.1 1.1,-1.1 l 18.2,0 c 1.2,0 2.2,-1 2.2,-2.1 l 0,-7.9 c 0,-1.2 -1,-2.2 -2.2,-2.2 l -18,0 c -0.7,0 -1.2,-0.5 -1.2,-1.2 l 0,-16.3 c 0,-1.7 -1.4,-2.3 -2.3,-2.2 l -9.4,0.7 c -1.1,0 -2.1,1 -2.1,2.2 l 0,15.7 c 0,0.6 -0.5,1.1 -1.1,1.1 l -11.4,0 c -1.1,0 -2.1,1 -2.1,2.2 l 0,7.9 c 0,1.2 1,2.1 2.2,2.1 l 11.3,0 c 0.6,0 1.1,0.5 1.1,1.1 l 0,38 c 0,20.3 15.4,27.6 28.8,27.6 0,0 1.7,0 2.8,-0.1 1.2,-0.1 2.1,-1 2.1,-2.2 l 0,-7.4 z m -75.7,-9.4 c -3.7,4.4 -7.8,7.4 -13.8,7.4 -7,0 -12.5,-5.1 -12.5,-11.5 0,-5.7 2.4,-9.1 9.7,-13.5 0.5,-0.3 1,-0.2 1.4,0.1 l 15.1,15.8 c 0.5,0.7 0.3,1 0.1,1.7 z m -12.4,-32.9 c -0.3,0.2 -1.1,0.1 -1.3,-0.3 -2.2,-2.4 -4.9,-6.3 -4.9,-9.1 0,-4.8 3.4,-8.5 8.4,-8.5 4.8,0 7.3,3.4 7.3,7.4 0,4.8 -4.3,7.6 -9.5,10.5 z m 42.9,46 -14.4,-14.8 c -0.4,-0.4 -0.6,-1.1 -0.2,-1.6 l 11,-18.5 c 0.2,-0.5 0.3,-0.9 0.3,-1.1 0,-1.1 -1,-2.1 -2.2,-2.1 l -8,0 c -0.8,0 -1.5,0.4 -1.9,1.1 l -7,12 c -0.3,0.5 -1,0.6 -1.5,0.3 l -11.2,-11.6 c -0.4,-0.7 -0.1,-0.9 0.2,-1.5 6.4,-3.8 13.6,-9.2 13.6,-18.8 0,-11 -7.9,-18.4 -19.6,-18.4 -11.5,0 -20.2,7.7 -20.2,19.2 0,5.1 2.1,10.1 6.6,15.9 0.1,0.7 0,1 -0.3,1.2 -9.5,5.4 -14.4,12.6 -14.4,21.4 0,15 12.5,22.8 24.9,22.8 8.5,0 15.1,-3.3 21.5,-10.7 0.5,-0.4 1.2,-0.4 1.6,0 l 7.8,8.1 c 0.6,0.5 1.1,0.7 1.6,0.7 l 10.3,0 c 1.1,0 2.1,-0.9 2.1,-2.1 0,-0.5 -0.2,-1.1 -0.6,-1.5 z m -98.7,-92.6 -9.4,0.7 c -1.1,0 -2.1,1 -2.1,2.2 l 0,15.7 c 0,0.6 -0.5,1.1 -1.2,1.1 l -11.3,0 c -1.2,0 -2.2,1 -2.2,2.2 l 0,7.9 c 0,0.6 0.3,1.1 0.7,1.5 0.3,0.4 1,0.6 1.5,0.6 l 11.3,0 c 0.7,0 1.2,0.5 1.2,1.1 l 0,38 c 0,20.3 15.3,27.6 28.8,27.6 0,0 1.5,0 2.8,-0.1 1.2,-0.1 2.1,-1 2.1,-2.2 l 0,-7.4 c 0,-1.2 -1,-2.1 -2.4,-2.1 -11.5,0 -17.6,-6.2 -17.6,-18.2 l 0,-35.6 c 0,-0.6 0.5,-1.1 1.1,-1.1 l 18.1,0 c 1.2,0 2.1,-1 2.1,-2.1 l 0,-7.9 c 0,-1.2 -0.9,-2.2 -2.1,-2.2 l -18,0 c -0.7,0 -1.2,-0.5 -1.2,-1.1 l 0,-16.4 c 0,-1.1 -0.9,-2.2 -2.2,-2.2 z m -31.8,93.2 c -0.7,-2.1 -0.9,-4.4 -1,-5.4 l 0,-41.3 c 0,-19.8 -14.2,-26.9 -27.2,-26.9 -10.4,0 -19.9,2.8 -26,6.8 -1.2,0.8 -1.2,2 -0.7,3 l 4.9,6.5 c 1.1,1.4 2.3,1 3.6,0.1 4.8,-3 10.4,-4.7 16.1,-4.7 16.2,0 15.8,12.7 15.8,14.3 0,0.9 -0.5,1.1 -1.2,1.1 l -2.5,-0.1 c -12.5,-0.4 -44.4,3.8 -44.4,29.1 0,14.9 12.4,22.4 23.9,22.4 11.2,0 20.2,-4.4 24.7,-9.9 0.3,-0.3 0.6,0 0.6,0.2 -0.1,0.7 0,2.2 0.1,3.6 0.2,3.4 0.9,4.4 2.5,4.5 l 9,0 c 1.2,0 2.1,-0.9 2.1,-2 0,-0.4 -0.3,-1.3 -0.3,-1.3 z m -14,-29.4 c -1.9,12.9 -8.2,20.4 -20,22.3 -8.2,1.4 -15.9,-2 -16.2,-10.9 -0.4,-9.8 10.8,-18 31.8,-17.1 0,0 1.5,0.1 2.5,0.3 2.4,0.2 2.4,1.5 1.9,5.4 z M 9.21,88 c 1.81,-6.5 4.21,-12.8 7.09,-18.8 -1.3,3.1 -1.99,6.5 -1.99,11.4 0,27.7 59.92,55 133.49,35 28.6,-7.9 71.4,-22.8 71.4,-45.9 0,-1.1 0.5,-3.7 -3.3,-10.3 4.6,7.7 8.6,16.1 11.4,24.9 1.3,4.6 1.1,7.9 1.1,9.1 0,5.7 -7,40.2 -75.9,46.5 -6,0.5 -49.8,1.2 -87.89,-8.5 C 39.27,125 13.85,112.6 9.04,95.4 8.29,92.8 8.64,90.3 9.21,88 Z M 116.4,198 c -14.3,1.6 -97.8,5.4 -109.93,-60.9 1.7,10.6 4.87,20.7 9.28,30.1 5.22,9.4 18.25,22.3 37.07,30.1 97.88,40.4 158.08,-7.7 169.68,-31.6 4.5,-10.3 7.8,-21.3 9.3,-33 -1.4,8.9 -10.5,53.6 -115.4,65.3 z m -2.4,22.9 c -17.45,0 -55.13,-2.8 -79.66,-25.8 20.82,23 50.94,37.5 84.36,37.5 43.7,0 81.6,-24.6 100.6,-60.6 -6,10.4 -32.1,48.9 -105.4,48.9 z M 46.74,165.3 c 24.61,10.1 63.76,17.7 85.86,16.9 80,-2.9 97.7,-43.3 99.6,-55.1 0.2,-2.7 0.3,-5.5 0.3,-8.3 0,-9.3 -1,-18.4 -3.1,-27 0.8,3.7 1.1,7.4 1.1,9.2 0,3.9 0.6,38.9 -79.1,56.7 -47.9,10.7 -68.14,10.3 -101.06,0 C 21.55,148.6 5.81,127.5 5.38,109.4 5.11,112.5 5,115.6 5,118.8 c 0,2.6 0.1,5.1 0.26,7.7 2.08,15 21.68,30.7 41.48,38.8 z M 83.92,89.1 c 12.03,1.5 43.68,5.9 68.38,3.9 49.6,-4.1 60.6,-21.5 60.6,-32.7 0,-3.1 -1.7,-7.6 -3.4,-10.2 C 205,44.3 200,38.9 194.6,34 c 1.4,1.5 1.9,3.5 1.9,4.7 0.5,7.6 -12,17.9 -37.4,26.3 -15.8,5.3 -36.7,10.3 -62.55,10.3 -43.73,0 -58.8,-16.6 -58.8,-27 0,-1.1 -0.24,-9.9 9.91,-18.4 -9.28,7.4 -17.35,16.3 -23.89,26.2 -0.72,1.2 -1.13,2.6 -1.13,4.2 0,10.6 25.91,24.3 61.28,28.8 z M 51.35,32.7 c 0.81,11.4 31.01,20.4 67.45,19.5 36.5,-1 64.4,-11.4 64.4,-22.9 0,-3.2 -2.5,-6.2 -6.8,-8.7 C 159.5,10.7 139.8,5 118.8,5 96.85,5 76.34,11.2 58.96,22 53.8,25.2 51.09,29 51.35,32.7 Z" id="path4818"></path>
  <metadata id="metadata4835">
    <rdf:rdf>
      <cc:work rdf:about="">
        <dc:title></dc:title>
      </cc:work>
    </rdf:rdf>
  </metadata>
</svg>
