<?xml version="1.0"?>

<svg xmlns="http://www.w3.org/2000/svg" viewBox="0 0 179 30" width="179" height="30">
  <path d="m 174.26,12.224 c -0.48,0 -0.84,-0.382 -0.84,-0.864 0,-0.482 0.36,-0.865 0.84,-0.865 0.48,0 0.83,0.383 0.83,0.865 0,0.482 -0.35,0.864 -0.83,0.864 m 0,-1.862 c -0.55,0 -1,0.45 -1,0.998 0,0.549 0.45,0.998 1,0.998 0.55,0 1,-0.449 1,-0.998 0,-0.548 -0.45,-0.998 -1,-0.998 m -0.21,1.066 h 0.23 l 0.32,0.527 h 0.18 l -0.33,-0.527 c 0.14,-0.03 0.28,-0.123 0.28,-0.333 0,-0.212 -0.12,-0.328 -0.39,-0.328 h -0.45 v 1.188 h 0.16 z m 0,-0.136 v -0.389 h 0.26 c 0.12,0 0.26,0.02 0.26,0.191 0,0.208 -0.18,0.198 -0.34,0.198 z m -3.99,3.764 c -0.44,-2.099 -1.87,-2.884 -3.93,-2.884 -1.5,0 -3.23,0.508 -3.8,2.884 z m 2.81,3.899 c -0.21,1.016 -1.87,4.131 -6.46,4.131 -4.43,0 -7.08,-2.768 -7.08,-6.644 0,-3.508 2.3,-6.5772 6.87,-6.5772 4.66,0.046 6.9,2.9302 6.9,7.4072 h -10.87 c 0.12,0.785 0.56,3.368 4.09,3.507 1.8,0 3,-0.854 3.41,-1.824 z m -23.23,-8.259 h 2.21 V 6.6584 h 2.86 v 4.0376 h 4.32 v 2.445 h -4.32 v 5.677 c 0,0.876 0.35,1.822 2.01,1.822 0.55,0 1.71,-0.137 2.45,-0.346 v 2.515 c -1.41,0.185 -2.08,0.277 -3.1,0.277 -2.72,0 -4.22,-0.877 -4.22,-3.6 v -6.345 h -2.21 z m -3.49,5.722 c -1.66,0.07 -3.11,0.3 -4.45,0.623 -1.78,0.415 -2.61,1.015 -2.63,2.1 0,1.061 0.67,1.73 2.08,1.73 2.16,0 3.89,-0.945 5,-1.615 z m 2.86,4.245 c 0,0.832 0.1,1.661 0.23,2.008 h -2.93 c -0.1,-0.417 -0.16,-0.832 -0.16,-1.245 -1.2,0.691 -2.97,1.66 -5.42,1.66 -1.64,0 -4.8,-0.693 -4.8,-3.738 0,-4.176 6.23,-4.776 10.22,-5.006 v -0.554 c 0,-0.946 -0.85,-1.615 -3.2,-1.615 -2.64,0 -3.19,0.969 -3.35,1.638 h -2.98 c 0.7,-3.369 4,-3.9458 6.3,-3.9458 5.98,0 6.09,2.9068 6.09,4.6158 z M 114.73,10.28 h 2.81 v 1.408 c 0.76,-0.669 1.82,-1.8227 4.2,-1.8227 2.51,0 3.46,1.1997 4.04,1.9837 0.64,-0.784 1.96,-1.9837 4.36,-1.9837 2.77,0 4.75,1.1537 4.75,4.0377 v 8.768 h -2.86 v -7.499 c 0,-2.076 -0.74,-2.862 -2.49,-2.862 -1.43,0 -2.63,0.947 -3.3,1.57 v 8.791 h -2.86 v -7.499 c 0,-2.076 -0.74,-2.862 -2.49,-2.862 -1.43,0 -2.63,0.947 -3.3,1.57 v 8.791 h -2.86 z M 100.59,5.8969 h 2.85 v 5.9301 c 0.81,-0.878 2.08,-1.9614 4.59,-1.9614 2.59,0 4.85,1.0834 4.85,4.8684 v 7.937 h -2.86 v -6.876 c 0,-2.445 -0.74,-3.484 -2.66,-3.484 -2.28,0 -3.2,0.946 -3.92,1.823 v 8.537 h -2.85 z M 99.455,18.241 c -0.393,1.73 -2.124,4.845 -6.668,4.845 -3.968,0 -7.222,-1.939 -7.222,-6.921 0,-3.255 2.561,-6.2771 6.967,-6.2996 4.547,-0.024 6.484,2.5836 6.692,4.6846 h -2.862 c -0.276,-0.993 -1.498,-2.24 -3.645,-2.24 -2.698,0 -4.245,1.986 -4.245,3.97 0,2.376 1.269,4.361 4.015,4.361 2.468,0 3.714,-1.293 3.968,-2.4 z M 81.549,16.418 c -1.661,0.07 -3.115,0.3 -4.452,0.623 -1.777,0.415 -2.608,1.015 -2.63,2.1 -0.02,1.061 0.668,1.73 2.076,1.73 2.169,0 3.899,-0.945 5.006,-1.615 z m 2.861,4.245 c 0,0.832 0.05,1.661 0.232,2.008 H 81.71 c -0.09,-0.417 -0.161,-0.832 -0.161,-1.245 -1.2,0.691 -2.976,1.66 -5.421,1.66 -1.639,0 -4.8,-0.693 -4.8,-3.738 0,-4.176 6.23,-4.776 10.221,-5.006 v -0.554 c 0,-0.946 -0.852,-1.615 -3.206,-1.615 -2.63,0 -3.184,0.969 -3.346,1.638 H 72.02 c 0.693,-3.369 3.992,-3.9458 6.299,-3.9458 5.975,0 6.091,2.9068 6.091,4.6158 z M 61.706,10.696 h 2.215 V 6.6584 h 2.862 v 4.0376 h 4.313 v 2.445 h -4.313 v 5.677 c 0,0.876 0.345,1.822 2.006,1.822 0.554,0 1.707,-0.137 2.446,-0.346 v 2.515 c -1.407,0.185 -2.076,0.277 -3.091,0.277 -2.723,0 -4.223,-0.877 -4.223,-3.6 v -6.345 h -2.215 z m -9.09,0 h 2.215 V 6.6584 h 2.861 v 4.0376 h 4.314 v 2.445 h -4.314 v 5.677 c 0,0.876 0.345,1.822 2.006,1.822 0.554,0 1.708,-0.137 2.446,-0.346 v 2.515 c -1.407,0.185 -2.076,0.277 -3.091,0.277 -2.722,0 -4.222,-0.877 -4.222,-3.6 V 13.141 H 52.616 Z M 46.869,16.003 43.361,8.5273 39.855,16.003 Z M 41.493,5.8973 h 3.738 L 53.375,22.67 H 49.914 L 48.161,18.818 H 38.494 L 36.718,22.67 H 33.234 Z M 16.033,3.0146 c -10.3504,0 -12.988,2.6138 -12.988,11.4084 0,8.786 2.6376,11.403 12.988,11.403 10.361,0 12.981,-2.617 12.981,-11.403 0,-8.7946 -2.62,-11.4084 -12.981,-11.4084 z m 8.147,3.3811 c 0.552,0 1.001,0.4506 1.001,0.9993 0,0.5487 -0.449,0.9971 -1.001,0.9971 -0.551,0 -0.997,-0.4484 -0.997,-0.9971 0,-0.5487 0.446,-0.9993 0.997,-0.9993 z M 19.341,6.5165 19.55,6.633 19.52,6.607 c 0.389,0.1912 1.409,0.7277 2.486,1.584 0.703,0.5575 1.303,1.1561 1.78,1.7786 0.586,0.7734 0.969,1.5764 1.14,2.3834 v 0.04 0.01 c 0,0.61 -0.251,1.294 -0.748,2.033 -0.02,-0.02 -0.04,-0.05 -0.05,-0.07 0.525,0.755 0.793,1.466 0.793,2.113 v 0.06 c -0.74,3.508 -5.358,5.682 -5.402,5.702 l -0.177,0.09 -0.04,-0.01 c 0,0 -0.149,-0.06 -0.161,-0.07 l -0.05,-0.02 c -0.957,-0.456 -2.039,-1.013 -3.052,-1.571 -1.478,0.817 -2.669,1.395 -3.122,1.607 l -0.151,0.07 -0.04,0.02 -0.04,-0.02 c 0,0 -0.159,-0.09 -0.141,-0.07 -0.05,-0.02 -1.231,-0.584 -2.487,-1.58 C 9.3532,20.093 8.7538,19.493 8.2911,18.882 7.7075,18.12 7.3213,17.319 7.1462,16.503 l -2e-4,-0.05 c 0,-0.619 0.2492,-1.301 0.7442,-2.031 0.028,0.04 0.055,0.08 0.084,0.122 0.037,0.05 0.077,0.102 0.1152,0.153 C 8.0511,14.647 8.0114,14.596 7.975,14.545 7.4212,13.763 7.1413,13.034 7.1413,12.375 V 12.33 12.32 C 7.8707,8.873 12.359,6.702 12.548,6.6122 l 0.14,-0.071 0.04,-0.018 0.04,0.015 c 0,0 0.153,0.063 0.145,0.059 0.04,0.01 1.419,0.6661 3.127,1.6084 1.405,-0.7755 2.553,-1.3392 3.12,-1.6062 0,0 0.08,-0.039 0.09,-0.043 l 0.07,-0.024 z M 16.046,20.644 c 0.03,-0.02 0.07,-0.04 0.103,-0.06 l 0.225,-0.124 0.299,-0.166 c 0.116,-0.07 0.231,-0.132 0.345,-0.196 l 1.684,1.095 c 0,0 0.533,0.349 0.607,0.398 0.253,-0.178 3.074,-2.212 3.618,-5.163 0,-0.152 -0.03,-0.315 -0.07,-0.485 -1.409,1.354 -3.489,2.816 -6.187,4.351 l -0.299,0.166 -0.225,0.124 c -0.04,0.02 -0.07,0.04 -0.102,0.06 z M 24.18,6.5294 c -0.478,0 -0.836,0.3843 -0.836,0.8656 0,0.4813 0.358,0.863 0.836,0.863 0.481,0 0.839,-0.3817 0.839,-0.863 0,-0.4813 -0.358,-0.8656 -0.839,-0.8656 z m -0.37,0.273 h 0.454 c 0.266,0 0.387,0.1146 0.387,0.327 0,0.21 -0.137,0.3027 -0.276,0.3327 l 0.332,0.5274 H 24.522 L 24.202,7.4621 H 23.969 V 7.9895 H 23.81 Z m 0.159,0.1346 v 0.3887 h 0.187 c 0.156,0 0.332,0.01 0.332,-0.1977 0,-0.1687 -0.134,-0.191 -0.259,-0.191 z m -4.66,0.3046 c -0.08,0.053 -0.94,0.6089 -0.94,0.6089 l -1.684,1.1046 c 0,0 -0.393,0.2466 -0.394,0.2477 0,0 -0.132,0.08 -0.131,0.079 -0.01,0.01 -0.02,0.015 -0.03,0.021 0.01,-0.01 0.02,-0.014 0.03,-0.021 -0,0 0.132,-0.079 0.132,-0.079 10e-4,0 0.393,-0.2474 0.393,-0.2474 l 0.323,-0.2112 c 1.789,1.0302 4.168,2.5458 5.841,4.1498 0.05,-0.181 0.07,-0.332 0.07,-0.457 -0.553,-2.972 -3.36,-5.0154 -3.613,-5.1954 z m -6.551,0 c -0.254,0.1812 -3.0715,2.2139 -3.6179,5.1724 0,0.153 0.025,0.319 0.068,0.493 C 10.603,11.57 12.663,10.118 15.333,8.5935 15.243,8.6455 15.15,8.699 15.061,8.7518 L 13.384,7.6569 c 0,0 -0.553,-0.3616 -0.626,-0.4116 z m 3.277,2.1193 c -1.717,1.0921 -4.655,3.1261 -6.0768,5.0751 1.0508,1.45 3.0928,3.15 6.0788,5.057 2.06,-1.309 4.725,-3.217 6.068,-5.058 -1.338,-1.85 -4.015,-3.768 -6.07,-5.0741 z m 6.831,3.5501 c 0.09,0.09 0.181,0.175 0.268,0.264 v -0 c -0.09,-0.09 -0.177,-0.175 -0.268,-0.263 z M 9.3551,13.355 c 0.091,0.236 0.2037,0.469 0.3432,0.697 C 9.5592,13.824 9.4466,13.591 9.3551,13.355 Z m 12.8009,1.15 c 0.01,0.02 0.02,0.03 0.03,0.05 0.192,0.274 0.343,0.534 0.46,0.788 -0.117,-0.254 -0.266,-0.514 -0.458,-0.787 -0.01,-0.02 -0.02,-0.03 -0.04,-0.05 z M 9.202,15.93 c 0.01,0 0.013,0.01 0.021,0.02 -0.049,0.189 -0.071,0.337 -0.075,0.463 0.475,2.551 2.736,4.584 3.622,5.194 0.08,-0.05 0.918,-0.597 0.918,-0.597 L 15.07,20.107 C 12.765,18.774 10.48,17.144 9.202,15.93 Z"></path>
 </svg>
