<?xml version="1.0"?>

<svg xmlns="http://www.w3.org/2000/svg" viewBox="0 0 1043.003 210.0859" width="1043.003" height="210.0859">
   
  
  <path d="m 74.563,22 c -5.248,0 -7.058,3.136 -7.657,4.75 L 24.238,128.61 c -1.299,3.24 -2.238,4.83 -2.238,7.75 0,2.06 0.02,3.02 1.508,5.88 l 21.537,39.92 c 2.358,4.14 4.813,5.93 9.539,5.93 7.333,0 17.783,-5.94 20.531,-7.57 l 56.375,-34.92 -67.865,0 34.023,-80.491 51.942,122.971 46.83,0 -68.1,-161.248 C 127.38,24.523 125.33,22 121.04,22 l -46.477,0 z m 343.527,80.9 c 0,28.61 -16.79,44.04 -41.13,44.04 -24.34,0 -41.13,-15.43 -41.13,-44.04 l 0,-53.443 17,0 0,55.463 c 0,16.79 9.85,26.65 24.13,26.65 14.29,0 24.14,-9.86 24.14,-26.65 l 0,-55.463 16.99,0 0,53.443 z m 253.58,27.17 -19.39,0 0,-64.993 19.46,0 c 18.85,0 32.56,13.363 32.56,32.215 0,18.848 -13.79,32.758 -32.63,32.758 m 0,-80.613 -36.42,0 0,95.973 36.42,0 c 27.39,0 49.62,-20.7 49.62,-48.11 0,-27.415 -22.23,-47.855 -49.62,-47.855 M 567.86,131.59 c -18.86,0 -32.63,-15.28 -32.63,-34.141 0,-18.86 13.77,-34.151 32.63,-34.151 18.86,0 32.64,15.291 32.64,34.151 0,18.861 -13.78,34.141 -32.64,34.141 m 0,-83.788 c -27.42,0 -49.63,22.232 -49.63,49.647 0,27.411 22.21,49.631 49.63,49.631 27.4,0 49.64,-22.22 49.64,-49.631 0,-27.415 -22.24,-49.647 -49.64,-49.647 m 380.3,48.108 42.96,-46.462 -20.58,0 -43.11,46.462 47.37,49.53 20.87,0 -47.51,-49.53 z M 859.05,63.3 c -9.8,0 -18.13,2.965 -18.18,9.473 0,7.62 4.74,10.262 22.79,16.132 19.95,6.559 30.54,13.225 30.43,29.455 -0.1,18.29 -14.24,28.72 -34.88,28.72 -14.62,0 -27.72,-4.74 -37.71,-13.52 l 6.22,-15.06 c 9.07,7.6 20.05,12.98 31.92,13.04 10.39,0.1 17.78,-5.01 17.78,-12.49 0,-6.26 -3.62,-10.43 -21.13,-15.97 -20.08,-6.588 -32.21,-13.452 -32.11,-29.806 0.12,-16.269 15.38,-25.521 34.56,-25.427 19.19,0.09 30,7.111 31.64,8.062 l -6.04,13.686 C 880.43,67.48 871.84,63.3 859.05,63.3 m 68.38,82.13 -16.08,0 0,-95.975 16.08,0 0,95.975 z m -120.51,-80.35 -51.39,0 0,24.407 32.92,0 0,15.093 -32.92,0 0,25.51 51.42,0 0,15.33 -68.4,0 0,-95.972 68.37,0 0,15.632 z m -322.85,80.34 -17.01,0 0,-80.338 -30.44,0 0,-15.632 79.25,0 -6.53,15.632 -25.27,0 0,80.338 z m -205.9,-76.501 -16.45,38.401 33.04,0 -16.59,-38.401 z m 50.31,76.501 -17.82,0 -9.74,-23.16 -45.38,0 -9.87,23.16 -17.27,0 42.23,-96.652 15.61,0 42.24,96.652 z M 1013.9,134.7 c 0,1.28 -1,1.41 -2.1,1.41 l -0.9,0 0,-2.84 1.4,0 c 1.2,0 1.6,0.58 1.6,1.43 m 2.2,6.45 -2.1,-2.95 c -0.4,-0.52 -0.7,-0.88 -1.1,-1.18 1.5,-0.2 2.4,-1.02 2.4,-2.32 0,-1.34 -0.9,-2.54 -2.7,-2.54 l -3,0 0,8.99 1.3,0 0,-4.02 c 0.7,0 1,0.22 1.4,0.87 l 2.2,3.15 1.6,0 z m 3.6,-4.43 c 0,4.34 -3.1,7.48 -7.4,7.48 -4.2,0 -7.4,-3.14 -7.4,-7.48 0,-4.34 3.2,-7.48 7.4,-7.48 4.3,0 7.4,3.14 7.4,7.48 m 1.3,0 c 0,-4.8 -3.9,-8.69 -8.7,-8.69 -4.8,0 -8.7,3.89 -8.7,8.69 0,4.8 3.9,8.69 8.7,8.69 4.8,0 8.7,-3.89 8.7,-8.69"></path>
   
</svg>
