<?xml version="1.0"?>

<svg xmlns="http://www.w3.org/2000/svg" viewBox="0 0 532 158.5" height="158.5" width="532"> <path d="m 225,93.6 c 4,-0.2 5,-2.9 6,-6.1 l 4,-11.2 c 1,-3.2 1,-6.2 -3,-6.3 l 1,-0.9 4,0 c 2,0 5,-0.1 9,-0.4 l -1,3.6 c 4,-2.8 8,-4.2 12,-4.2 1,0 1,0.1 2,0.3 l -2,8.3 -6,0 c 0,-1.7 -1,-2.6 -2,-2.6 -3,0 -5,2.5 -6,7.2 l -2,6.2 c -1,3.2 -2,4.6 3,4.8 l -1,2.5 -18,0 0,-1.2 z m 3,-25.9 c 0,-0.7 1,-1.6 1,-2.2 0,-2.3 1,-3.7 0,-4.3 -1,-0.7 -2,-0.8 -4,-0.8 l -1,0 -2,0 -7,25 c -2,4.5 -2,6 4,6.2 l -1,3.4 -22,0 -1,-1.4 c 6,-0.2 8,-3.7 10,-8.2 l 7,-25 -2,0 -1,0 c -2,0 -4,-0.3 -7,0.5 -1,0.3 -3,1.8 -4,3.1 -1,0.8 -3,3.8 -3,5.2 l -2,-0.2 4,-13.3 42,0 -3,12.1 -8,0 z m 122,26.1 c 4,-0.2 5,-2.9 6,-6.2 l 4,-11.1 c 1,-3.3 1,-6.3 -4,-6.4 l 1,-0.8 4,0 c 3,0 6,-0.1 10,-0.4 l -1,3.6 c 4,-2.8 7,-4.2 11,-4.2 1,0 2,0.1 3,0.2 l -3,8.4 -6,0 c 1,-1.7 0,-2.6 -1,-2.6 -3,0 -5,2.4 -7,7.2 l -2,6.1 c -1,3.3 -1,4.7 3,4.9 l 0,2.5 -19,0 1,-1.2 z m -6,-14.7 -9,0 c 1,-4.7 4,-7.1 7,-7.1 3,0 4,2.3 2,7.1 m 8,3.4 c 0,-0.6 1,-1.2 1,-1.7 2,-8.4 -1,-12.7 -9,-12.7 -10,0 -17,5 -19,13.6 -3,9.1 1,14.1 10,14.1 8,0 14,-3.4 16,-9.5 0,-0.1 0,-0.2 0,-0.2 l -3,0 c 0,1.2 -1,2.5 -1,2.5 -4,4.2 -8,3.1 -11,3.1 -3,0 -4,-2.7 -3,-7.9 0,-0.4 1,-0.8 1,-1.3 l 18,0 z m -41,-0.8 c -2,5.9 -5,8.9 -9,8.9 -4,0 -5,-3.1 -3,-9.1 2,-6 4,-9 8,-9 4,0 6,3.1 4,9.2 m 5,-18.1 -2,8.2 c -1,-2.4 -4,-3.7 -8,-3.7 -8,0 -14,4.9 -17,14.1 -3,8.7 1,13.6 9,13.6 5,0 8,-1.7 11,-5.2 l -1,4.2 12,0 1,-3 c -4,0 -4,-0.8 -3,-4 l 9,-31.5 c -3,0.2 -5,0.3 -7,0.3 l -6,0 0,1.1 c 4,0 3,2.7 2,5.9 m -41,19.2 0,1.7 c -2,4.9 -5,7.5 -9,7.5 -2,0 -4,-1.7 -3,-4.4 1,-3.1 4,-4.8 9,-4.8 l 3,0 z m 1,-3.3 -4,0 c -10,0 -16,2.6 -18,8.7 -1,4.5 1,7.6 8,7.6 4,0 8,-1.5 11,-4.7 l -1,3.7 13,0 0,-1.1 c -4,-0.2 -4,-3 -3,-6.2 l 3,-10.3 c 2,-6.6 0,-9.1 -10,-9.1 -9,0 -14,2.7 -16,8.4 l 9,0 c 1,-3.1 3,-4.7 6,-4.7 3,0 4,1.7 3,5.2 l -1,2.5 z m -140,14.6 0,1 -13,0 1,-3.1 c -3,2.6 -6,3.8 -10,3.8 -7,0 -9,-3.1 -7,-9.6 l 3,-9.6 c 1,-3.2 1,-6.3 -3,-6.4 l 0,-0.8 4,0 c 3,0 6,-0.2 10,-0.4 l -4,15.5 c -2,4.5 -2,6.7 2,6.7 3,0 5,-2.5 7,-7.6 l 2,-7 c 1,-3.2 1,-4.2 -3,-4.2 l 1,-3 4,0 c 2,0 5,-0.2 9,-0.4 l -5,18.5 c -1,3.3 -2,6.4 2,6.6 M 76,78.4 86,62.6 l 1,15.8 -11,0 z m -21,16.8 17,0 1,-2.1 c 0,0 -1,-0.2 -2,-0.3 -3,-0.6 -3,-2.2 -3,-3.1 1,-0.4 1,-1.2 1,-2.1 l 3,-4 15,0 0,4.1 c 0,0.6 0,1.2 0,1.6 0,1.8 -3,4.9 -6,4.9 l -1,1 21,0 1,-2.2 C 98,92.9 98,89.3 98,85.4 L 95,55 85,55 65,84.1 C 61,89 59,94.5 55,94.2 l 0,1 z M 185,82 c -2,6.6 -5,9.9 -9,9.9 -4,0 -4,-3.3 -2,-9.9 2,-6.7 4,-10 8,-10 4,0 5,3.3 3,10 m -21,0 c -3,8.9 1,13.8 11,13.8 10,0 17,-4.9 20,-13.8 2,-9 -2,-13.9 -11,-13.9 -10,0 -17,5 -20,13.9 m -21,-9.4 0,-1.1 c 6,-0.6 10,-5.2 12,-10.1 l 5,0 -2,7.6 8,0 -1,3.6 -8,0 -4,13.9 c -1,3.5 -1,5.2 1,5.2 1,0 2,-1.5 3,-4.4 0,-0.2 0,-0.4 0,-0.7 l 5,0 c 0,0.5 0,0.9 0,1.3 -2,5.4 -6,7.9 -12,7.9 -7,0 -8,-2.4 -7,-8.5 l 5,-14.7 -5,0 z m 286,3.6 c -2,0 -3,1.8 -3,5.5 0,3.7 1,5.5 3,5.5 2,0 3,-1.8 3,-5.5 0,-3.7 -1,-5.5 -3,-5.5 m 40,12.7 c -1,-0.1 -3,-0.1 -4,-0.1 -2,0 -3,0 -5,0.1 l 0,-1.7 c 2,-0.2 2,-0.7 2,-2.3 l 0,-4.6 c 0,-2.5 -1,-3.7 -2,-3.7 -2,0 -3,1.4 -3,4.2 l 0,4.1 c 0,1.6 0,2.1 2,2.3 l 0,1.7 c -1,-0.1 -3,-0.1 -4,-0.1 -1,0 -3,0 -5,0.1 l 0,-1.7 c 2,-0.2 2,-0.7 2,-2.3 l 0,-4.6 c 0,-2.5 0,-3.7 -2,-3.7 -2,0 -3,1.4 -3,4.2 l 0,4.1 c 0,1.6 0,2.1 2,2.3 l 0,1.7 c -2,-0.1 -3,-0.1 -5,-0.1 -1,0 -2,0 -4,0.1 l 0,-1.7 c 2,-0.1 2,-0.6 2,-2.4 l 0,-6.2 c 0,-1.8 0,-2.3 -2,-2.4 l 0,-1.7 2,0 c 1,0 3,-0.1 5,-0.2 l 0,1.9 c 1,-1.5 3,-2.1 5,-2.1 2,0 4,0.8 5,2.6 1,-1.8 2,-2.6 4,-2.6 4,0 6,1.7 6,5.2 l 0,5.5 c 0,1.8 0,2.2 2,2.4 l 0,1.7 z m -40,0.5 c -5,0 -8,-2.7 -8,-7.6 0,-5 3,-7.7 8,-7.7 5,0 8,2.7 8,7.7 0,4.9 -3,7.6 -8,7.6 m -11,-5.9 c 0,3.8 -2,5.9 -7,5.9 -5,0 -8,-2.9 -8,-7.6 0,-4.7 3,-7.7 8,-7.7 3,0 5,0.3 7,0.9 l 0,4.3 -4,0 0,-0.3 c 0,-1.9 -1,-2.9 -2,-2.9 -3,0 -4,1.9 -4,5.8 0,3.5 1,5.3 4,5.3 2,0 3,-1.2 3,-3.6 l 0,-0.3 3,0 0,0.2 z m -21,5.2 c -2,0 -3,-1 -3,-2.7 0,-1.8 1,-2.7 3,-2.7 2,0 3,0.9 3,2.7 0,1.7 -1,2.7 -3,2.7 M 432,58 c -25,0 -45,10.2 -45,22.8 0,12.5 20,22.7 45,22.7 25,0 45,-10.2 45,-22.7 C 477,68.2 457,58 432,58"></path> </svg>