<?xml version="1.0"?>

<!-- Generator: Adobe Illustrator 19.1.0, SVG Export Plug-In . SVG Version: 6.00 Build 0)  -->
<svg version="1.1" xmlns="http://www.w3.org/2000/svg" xmlns:xlink="http://www.w3.org/1999/xlink" x="0px" y="0px" width="841.9px" height="595.3px" viewBox="0 0 841.9 595.3" style="enable-background:new 0 0 841.9 595.3;" xml:space="preserve">

<g id="Guías_para_la_mesa_de_trabajo">
</g>
<g id="Capa_1">
	<g>
		<path class="st0" d="M390.4,295.1L390.4,295.1l36.1-56.2l-65.7-121.2l-0.6,0.9c-3.1,5-17.9,31.4-3.2,57.8l34.3,62.1L332.6,324
			l0.2,0.3C340.6,324.3,372.7,322.5,390.4,295.1z"></path>
		<path class="st0" d="M439.6,144.1l0.1,0.7c-21-37.6-63.2-40.4-67-40.6l71.7,136.2l-39.6,62.9l0,0c0,0-15.5,35.4,14.2,48.8
			l73.8-112.6L439.6,144.1z"></path>
		<path class="st0" d="M439.6,144.1l0.1,0.7c-21-37.6-63.2-40.4-67-40.6l71.7,136.2l-39.6,62.9l0,0c0,0-15.5,35.4,14.2,48.8
			l73.8-112.6L439.6,144.1z"></path>
		<path class="st0" d="M390.4,295.1L390.4,295.1l36.1-56.2l-35.1-0.4L332.6,324l0.2,0.3C340.6,324.3,372.7,322.5,390.4,295.1z"></path>
		<path class="st0" d="M444.3,240.4l-39.6,62.9l0,0c0,0-15.5,35.4,14.2,48.8l73.8-112.6L444.3,240.4z"></path>
		<path class="st0" d="M444.3,240.4l-39.6,62.9l0,0c0,0-15.5,35.4,14.2,48.8l73.8-112.6L444.3,240.4z"></path>
		<path class="st1" d="M444.3,240.4l-39.6,62.9l0,0c0,0-15.5,35.4,14.2,48.8l73.8-112.6L444.3,240.4z"></path>
		<path class="st1" d="M444.3,240.4l-39.6,62.9l0,0c0,0-15.5,35.4,14.2,48.8l73.8-112.6L444.3,240.4z"></path>
	</g>
	<g>
		<path class="st0" d="M208.7,386.9c-9.4-9.4-20.8-14.1-34-14.1c-13.2,0-24.6,4.7-34,14.1c-9.4,9.4-14.1,20.8-14.1,34
			c0,13.2,4.7,24.6,14.1,34c9.4,9.4,20.8,14.1,34,14.1c12,0,22.6-4,31.5-11.8l0,0.3h0.1c0.6,3.1,2.8,10,11.3,11l5.2,0.6v-48.1
			C222.8,407.7,218.1,396.3,208.7,386.9z M206.1,420.9v18.2l-15.9,9.2l-0.4,0.2c-4.5,2.5-9.6,3.8-15.1,3.8c-8.6,0-16.1-3.1-22.2-9.2
			c-6.2-6.1-9.3-13.6-9.3-22.2c0-8.6,3.1-16.1,9.3-22.2c6.1-6.1,13.6-9.2,22.2-9.2c8.6,0,16.1,3.1,22.2,9.2
			C203.1,404.8,206.1,412.3,206.1,420.9z"></path>
		<path class="st0" d="M317.1,373.3c-9-0.4-12.7,3.2-14.3,6.3l-28.2,61.1L247,379.6l-1.1-2.3l-0.4,0.1c-1.8-2-5.3-4.2-11.7-4.2
			l-7.8,0.2l41.1,90.6c1.4,3.1,4.2,4.9,7.6,4.9c3.4,0,6.4-2,7.5-4.9l41.9-90.6L317.1,373.3z"></path>
		<path class="st0" d="M514.4,387.1c-8.7-9.5-19.4-14.3-32.1-14.3h0c-1.2,0-2.3,0.1-3.4,0.2c-0.7,0.1-1.5,0.2-2.2,0.3l-0.9,0.1
			c-9.5,1.5-17.9,6.1-24.9,13.7c-8,8.7-12.3,19.2-12.9,31.2l-0.1,50.1l5.2-0.6c8.1-1,11.2-7.7,11.4-13.6v-33.3
			c0-8.7,2.9-16.3,8.5-22.4c5.5-6,12-9,19.7-9c7.7,0,14.2,2.9,19.7,9c0.7,0.8,1.4,1.6,2,2.4l0.7,1c3.8,5.4,5.7,11.8,5.7,19v47.6
			l5.2-0.6c6.6-0.8,10.9-5.7,11.4-13.1v-33.8C527.4,407.8,523,396.4,514.4,387.1z"></path>
		<path class="st0" d="M628.7,377.7c-1.4-3-4.2-4.9-7.6-4.9h-72.9l-7.7,0l0.6,6.5c1.3,6.1,6.2,9.9,13,10.2h48l-59.9,65.4
			c-2.4,2.4-3.1,6-1.8,8.8c1.2,3.3,4.2,5.3,7.7,5.3H616l1.1-0.3c7.3-2.6,8.3-9.5,8.4-11.5l0.3-4.9h-58.7l60.1-65.5
			C629.6,384.2,630.1,380.8,628.7,377.7z"></path>
		<path class="st0" d="M408.1,386.9c-9.4-9.4-20.8-14.1-34-14.1c-13.2,0-24.6,4.7-34,14.1c-9.4,9.4-14.1,20.8-14.1,34
			c0,13.2,4.7,24.6,14.1,34c9.4,9.4,20.8,14.1,34,14.1c12,0,22.6-4,31.5-11.8l0,0.3h0.1c0.6,3.1,2.8,10,11.3,11l5.2,0.6v-48.1
			C422.2,407.7,417.5,396.3,408.1,386.9z M405.5,420.9v18.2l-15.9,9.2l-0.4,0.2c-4.5,2.5-9.6,3.8-15.1,3.8c-8.6,0-16.1-3.1-22.2-9.2
			c-6.2-6.1-9.3-13.6-9.3-22.2c0-8.6,3.1-16.1,9.3-22.2c6.1-6.1,13.6-9.2,22.2-9.2c8.6,0,16.1,3.1,22.2,9.2
			C402.4,404.8,405.5,412.3,405.5,420.9z"></path>
		<path class="st0" d="M655.8,373.6c-8.4,0.2-11.6,6.8-11.6,11.2V461c0,0.1,0,3.6,0,3.7l0.3,4.4l4.4-0.1c8.6-0.2,11.8-7,11.9-11.5
			v-84L655.8,373.6z"></path>
		<path class="st0" d="M730.6,464.2c-0.2-7.9-6.1-11.5-11.5-11.6h-0.6c-10,0-16.9-1.5-20.7-4.3c-4.4-3.3-5.4-8.3-6.8-19.8v-40.7
			l17.8-0.2l0.9-0.2v-0.1c9.4-1,12.9-8.7,12.9-13.8l0-0.9l-31.4-0.1l0-31.3l-0.9,0c-7.8,0.1-16.2,5.4-16.5,17.1l-0.1,71.6
			c0,16.7,5.7,28.2,17,34.2c6.2,3.3,15.1,5,26.5,5h13.4l0.1-1.4L730.6,464.2z"></path>
	</g>
</g>
</svg>
