<?xml version="1.0"?>

<!-- Generator: Adobe Illustrator 19.1.0, SVG Export Plug-In . SVG Version: 6.00 Build 0)  -->
<svg version="1.1" id="Layer_1" xmlns="http://www.w3.org/2000/svg" xmlns:xlink="http://www.w3.org/1999/xlink" x="0px" y="0px" width="600px" height="169px" viewBox="0 0 600 169" style="enable-background:new 0 0 600 169;" xml:space="preserve">

<path class="st0" d="M474.7,26c0,0,10.6,46,41.6,82.8c0,0-35.9-1.1-48.5-25.5C456.2,60.9,464.3,38,474.7,26z"></path>
<path class="st0" d="M527.9,121.3c11.7,11.1,25.8,20.5,42.4,26.3c0,0-22.4,1.8-35.8-4.6c-13.5-6.5-27.5-17.4-36.2-18.1
	c-8.7-0.7-13.8-1.2-16.1-3.6H527.9z"></path>
<path class="st0" d="M527.9,121.3c-4.6-4.5-11.7-12.4-11.7-12.4s26.2,0.4,31.7,13.5C543.9,120.8,527.9,121.3,527.9,121.3z"></path>
<path class="st0" d="M115.3,64.4h16l14.5,38.2l14-38.2h16.5l-25.2,59.6c0,0-2.8,0-5.3,0c-2.5,0-6.2-0.2-9.9-10.1
	C132.3,104.1,115.3,64.4,115.3,64.4z"></path>
<path class="st0" d="M197.1,124.1h-15.8V64.4h15.8V124.1z"></path>
<path class="st0" d="M198.3,47.7c0,5-4.1,9.1-9.1,9.1c-5,0-9.1-4.1-9.1-9.1c0-5,4.1-9.1,9.1-9.1C194.3,38.6,198.3,42.7,198.3,47.7z"></path>
<path class="st0" d="M322.3,124.1H306V83.4c0,0,0-8.6-9.1-6.7c-7.4,1.6-12.8,6.2-12.8,6.2v41.1h-16.3V64.4c0,0,14.3-4.4,15.5,5.7
	c0,0,9.1-7.6,20.4-7.6c11.3,0,18.5,8.1,18.5,16.5V124.1z"></path>
<path class="st0" d="M257,113.8c0,0,0-26.2,0-30.9c0-6.9-2.8-20.8-22.2-20.7c-18.5,0.1-25.4,7.9-25.4,7.9l6.2,9.9
	c0,0,3-4.9,14.8-4.9c11.8,0,10.3,10.3,10.3,10.3c-32.5-0.5-34.2,13.1-34.2,21.2s6.2,18,18.2,18c12.1,0,18.2-5.9,18.2-5.9
	c0.5,5.2,6.4,5.4,6.4,5.4h9.4C257.2,124.1,257,113.8,257,113.8z M241.5,108.9c0,0-4.2,3.1-10.8,3.1c-6.7,0-8.6-4.3-8.6-7.6
	c0-3.8,2.2-8.4,19.5-7.4V108.9z"></path>
<path class="st0" d="M435.5,113.8c0,0,0-26.2,0-30.9c0-6.9-2.8-20.8-22.2-20.7c-18.5,0.1-25.4,7.9-25.4,7.9l6.2,9.9
	c0,0,3-4.9,14.8-4.9s10.3,10.3,10.3,10.3c-32.5-0.5-34.2,13.1-34.2,21.2s6.2,18,18.2,18c12.1,0,18.2-5.9,18.2-5.9
	c0.5,5.2,6.4,5.4,6.4,5.4h9.4C435.7,124.1,435.5,113.8,435.5,113.8z M420,108.9c0,0-4.2,3.1-10.8,3.1s-8.6-4.3-8.6-7.6
	c0-3.8,2.2-8.4,19.5-7.4V108.9z"></path>
<path class="st0" d="M377.7,80.5c0,0-5.3-5.4-15.8-5.4c-11.6,0-16,11.3-16,20.9s7.1,16.3,17.5,16.3c7.8,0,13.8-4.7,13.8-4.7
	l4.2,11.6c0,0-8.7,6.2-22.7,6.2c-9.6,0-28.3-6.4-28.3-29.6c0-23.2,15.3-33.2,30.1-33c13.2,0.1,18.4,4.7,18.4,4.7L377.7,80.5z"></path>
<path class="st0" d="M93.7,41.3H81.6l-31.5,82.8h16.5l6.7-20.9h28.6l8.4,20.9h16.5L93.7,41.3z M78.7,89.9L87.7,65l8.9,24.9H78.7z"></path>
</svg>
