<?xml version="1.0"?>
<!--?xml version="1.0" encoding="UTF-8" standalone="no"?-->
<svg xmlns="http://www.w3.org/2000/svg" xml:space="preserve" viewBox="0 0 489.08 172.46" height="172.46px" width="489.08px"><path d="m 138.88,34.83 h -69.7 l 1.3,-2.77 h 67.09 z M 141.31,40 H 66.75 l -1.29,2.74 H 142.6 Z M 35.62,106.26 h 40.76 l 1.18,2.51 h 50.5 l -1.17,-2.51 h 45.59 l 1.17,2.51 h 1.88 l 2.43,-5.22 H 36.89 Z M 43.07,90.4 h 25.86 l 1.24,2.64 h 50.5 l -1.24,-2.64 h 45.59 l 1.24,2.64 h 16.58 l 2.49,-5.35 H 44.35 Z m -3.72,7.93 h 33.31 l 1.13,2.41 h 50.5 l -1.13,-2.41 h 45.59 l 1.13,2.41 h 9.38 l 2.39,-5.13 H 40.62 Z M 46.8,82.46 h 18.41 l 1.17,2.5 h 50.5 l -1.17,-2.5 h 45.59 l 1.17,2.5 h 24.12 l 2.43,-5.22 H 48.08 Z M 31.94,114.1 h 48.09 l 1.18,2.5 h 90.68 l 2.43,-5.22 H 33.22 Z m 56.77,18.48 h 75.74 l 2.43,-5.22 H 86.25 Z M 148.78,55.86 H 59.3 L 58,58.63 h 92.08 z m -3.72,-7.9 H 63.01 l -1.29,2.74 h 84.63 z m -52.62,92.56 h 68.3 l 2.44,-5.24 H 89.98 Z M 55.53,63.88 54.26,66.6 h 3.51 l 1.18,2.5 h 50.5 l -1.17,-2.5 h 45.59 l 1.17,2.5 h 38.95 l 2.43,-5.22 H 55.53 Z m 29.45,60.76 h 83.16 l 2.43,-5.22 H 82.52 Z M 50.53,74.53 h 10.96 l 1.19,2.53 h 50.5 L 112,74.53 h 45.53 l 1.25,2.53 h 31.51 l 2.44,-5.24 H 51.81 Z M 213.62,63.88 h 19.21 l 9.99,50.22 h -16.21 l -0.7,-5.45 h -11.58 l 5.72,-13.2 h 3.73 L 222.07,84.41 208.64,114.1 H 190.4 Z m 34.17,50.22 h 17.47 l -9.91,-50.22 h -17.5 z m 20.49,0 h 0.99 l 22.57,-50.22 h -17.9 l -10.97,24.01 z m 17.02,0 h 17.98 L 314,63.88 h -17.9 z m 25.61,-23.55 7.17,23.55 h 19.86 l 10.7,-50.22 h -17.77 l -6,28 -7.28,-28 h -0.9 z m 31.92,23.55 h 43.45 l 3.13,-14.04 h -25.88 l 4.83,-22.05 h 22.74 l 3.2,-14.13 h -40.67 z m 24.45,-19.23 h 17.33 l 2.62,-11.56 H 369.7 Z m 28.9,-16.9 h 11.72 l -7.82,36.13 h 17.68 L 428.6,63.88 h -29.42 z m 31.96,0 h 11.39 l 3.08,-14.09 h -11.15 z m 18.57,-9.01 c 0,-2.41 2.09,-4.35 4.61,-4.35 2.52,0 4.58,1.94 4.58,4.35 0,2.41 -2.06,4.34 -4.58,4.34 -2.52,0 -4.61,-1.93 -4.61,-4.34 z m 4.57,-5.54 c -3.23,0 -5.85,2.49 -5.85,5.59 0,3.07 2.62,5.54 5.85,5.54 3.24,0 5.86,-2.47 5.86,-5.54 0,-3.1 -2.62,-5.59 -5.86,-5.59 z m -0.75,6.16 c 0,-0.23 0.33,-0.23 0.89,-0.23 0.6,0 0.86,0.32 0.86,0.57 0,0.48 0,1.42 0,1.93 0,0.12 0.17,0.14 0.57,0.14 0.43,0 0.57,0 0.57,-0.14 0,-0.76 0,-1.33 0,-2.11 0,-0.96 -1,-0.89 -1,-0.96 0,0 1,-0.14 1,-1.15 0,-0.14 0,-0.16 0,-0.32 0,-0.44 -0.21,-1.61 -2,-1.61 -0.38,0 -1.23,0 -1.51,0 -0.17,0 -0.26,0 -0.41,0.05 -0.1,0.07 -0.1,0.16 -0.1,0.23 0,2.16 0,3.69 0,5.87 0,0.14 0.12,0.14 0.52,0.14 0.55,0 0.6,-0.02 0.6,-0.14 0,-0.64 0,-1.72 0,-2.27 z m 0.51,-2.87 c 0.89,0 1.15,0.11 1.15,0.64 0,0.11 0,0.28 0,0.39 0,0.46 -0.24,0.58 -1.11,0.58 -0.1,0 -0.38,0 -0.48,-0.02 -0.1,-0.02 -0.1,-0.09 -0.1,-0.16 0,-0.39 0,-0.71 0,-1.12 0,-0.02 0,-0.3 0,-0.3 0.22,-0.01 0.46,-0.01 0.51,-0.01 z"></path> </svg>