<?xml version="1.0"?>

<svg xmlns="http://www.w3.org/2000/svg" height="508.9024" width="1910.4489" viewBox="0 0 1910.4489 508.9024">

  <path d="m 155.09757,464.90241 c -0.8204,0 -4.0266,-0.67103 -7.1582,-1.26756 -29.2281,-3.65354 -54.355903,-16.62733 -71.803403,-36.98284 -15.8071,-18.49141 -25.4033,-41.90393 -28.5349,-69.04458 -1.0437,-8.64922 -0.6708,-28.93014 0.4475,-36.98284 1.9387,-12.30276 4.9733,-24.68007 8.9995,-35.11879 2.6845,-6.78514 9.9169,-21.62302 10.6627,-21.62302 0.5216,0 0.5962,2.46053 0.7454,9.24571 0.2237,29.00468 8.2765,53.01369 22.667,67.85156 21.250303,21.54848 54.206703,20.952 89.176303,-0.59648 10.6623,-6.18865 13.4214,-8.64923 44.439,-35.19334 26.9169,-23.41256 29.8993,-25.87309 30.3468,-25.87309 0.7459,0 3.2062,6.18866 3.7283,8.64923 0.8945,4.92109 -0.5967,9.84219 -4.1758,14.76329 -1.0437,1.86404 -3.8769,4.9211 -6.4123,7.38167 -6.0395,6.18865 -7.7544,9.91678 -5.7411,11.78082 1.8641,1.7895 4.9957,0.59649 13.943,-6.18865 14.018,-9.84224 22.8161,-17.29845 31.3164,-26.54416 3.9516,-4.32461 4.9957,-5.51759 5.2936,-4.9211 0.7458,2.46057 1.4912,10.51327 1.2679,13.57032 -0.6712,6.78514 -3.6537,11.10975 -17.2242,24.08359 -10.886,10.43872 -14.8376,13.49574 -25.5749,21.54848 -4.4736,3.05705 -8.5743,6.18865 -9.171,7.38166 -2.3112,3.1316 -1.9387,4.9211 1.2675,4.9211 2.4608,0 4.9211,-1.19301 10.6627,-5.51763 15.8817,-11.70623 35.5658,-29.00468 49.2855,-44.3645 3.8024,-4.32457 5.9649,-6.18866 6.2632,-5.59217 0.6708,1.2676 1.4912,9.24575 1.3421,12.97384 -0.2984,4.92109 -1.715,7.97815 -7.9782,14.76333 -14.3159,17.29841 -35.6409,36.38636 -53.4609,49.36015 -7.6056,5.51763 -10.4389,9.24571 -8.2764,10.43872 1.1928,1.26756 2.2366,1.26756 5.0703,0 4.1753,-1.86408 19.9078,-13.57032 33.4038,-25.87308 6.7848,-6.18866 22.3687,-21.54848 26.9915,-27.14065 1.2674,-1.19297 2.4603,-2.46053 2.6841,-2.46053 0.5221,0.59649 1.2674,10.51327 0.9691,13.57028 -0.5216,6.1887 -2.3858,9.84224 -9.7673,17.89494 -14.838,16.62738 -31.1672,31.39067 -49.1368,44.36451 -8.3506,6.78518 -11.2589,9.84219 -10.886,11.70628 0.5221,2.46052 4.9957,1.86404 9.6185,-1.86409 6.1141,-3.65354 18.5659,-12.89925 23.5616,-17.22386 4.9211,-4.32457 13.4214,-12.9738 17.3729,-17.89489 1.1934,-1.19302 2.3117,-1.86409 2.4608,-1.86409 0.2984,0 0.4475,3.13164 0.5221,6.78518 0.2233,8.64923 -0.5221,12.9738 -3.2808,18.49142 -2.3862,4.32462 -5.1448,8.0527 -12.1539,14.16681 -27.2152,25.2766 -56.2195,39.51795 -89.1017,43.76802 -5.3687,0.67103 -29.8993,0.67103 -34.6713,0.67103 z" style="opacity:0.6;"></path>
  <path d="m 330.46777,461.77081 c -0.9691,0 -3.952,0 -6.7107,-0.59648 -11.4826,-1.19302 -25.2765,-4.32461 -37.0575,-8.64923 -6.7848,-2.46057 -22.8157,-10.43868 -22.8157,-11.03521 0,0 4.3245,-0.67107 9.4694,-0.67107 20.952,-0.59648 36.9829,-4.32457 50.7767,-11.10975 37.9521,-19.0879 43.3953,-60.39536 14.0176,-104.75986 -5.3686,-8.05274 -9.4693,-13.57033 -32.8817,-40.71097 -11.7064,-13.57032 -22.4433,-25.87309 -23.7853,-27.14064 -1.1933,-1.78951 -2.3116,-3.05706 -2.3116,-3.05706 0,-0.59649 6.114,-3.72808 8.9473,-3.72808 4.474,-1.19302 9.5439,0 14.6142,3.72808 1.1933,1.26755 4.6228,3.72813 7.382,6.78518 4.6228,4.32461 7.9781,6.18866 10.0655,6.78514 1.4167,0 2.4608,-1.86404 2.2371,-4.32461 -0.4475,-1.86404 -1.7896,-4.32461 -7.6798,-12.30277 -9.9169,-13.57028 -17.4476,-22.2195 -25.5749,-29.60117 -3.8774,-3.72812 -5.4432,-4.9211 -4.9211,-5.59216 1.1929,-0.59649 10.3639,-1.19298 13.4955,-1.19298 2.4608,0.59649 4.4741,1.19298 7.0836,2.46053 3.2808,1.26756 4.772,2.46057 14.0176,11.70628 11.6318,11.70624 15.658,16.62738 23.8599,27.73713 5.9653,8.64922 7.829,10.51327 10.066,11.10975 1.8641,1.26756 2.8333,0 2.8333,-2.46053 -0.075,-2.46057 -1.3421,-4.92114 -6.2632,-11.70628 -11.781,-16.03085 -28.781,-34.52231 -43.7678,-48.09263 -3.4299,-3.05701 -6.0399,-6.18865 -5.8161,-6.18865 0.6712,-0.59649 7.9781,-1.19298 12.3772,-1.19298 3.8774,0 4.6974,0 7.3074,1.19298 3.8024,1.86408 11.7805,8.64922 22.5178,19.16249 12.7501,12.89925 22.667,24.00904 32.2851,36.98283 6.3382,8.57469 8.6494,11.70629 10.5881,12.30277 4.5482,2.46057 4.772,-3.05706 0.2983,-9.84219 -5.5924,-8.05274 -13.8688,-18.49142 -22.7416,-28.4082 -5.7411,-6.11412 -22.1449,-22.81603 -27.6627,-27.73713 -1.7149,-1.19302 -2.2366,-1.7895 -1.7149,-2.46057 0.8204,-0.59649 10.3643,-1.19298 13.6451,-0.59649 6.114,0.59649 8.8727,1.86404 18.5658,11.10975 15.8072,14.16685 31.7635,31.39072 44.1407,48.68912 l 6.4123,7.97816 c 3.952,3.13164 5.8908,1.86404 5.4433,-1.78951 -0.5221,-3.13159 -1.4913,-4.32461 -7.9036,-13.57032 -9.3948,-12.97379 -20.8775,-25.27656 -29.8248,-33.32929 -1.4166,-0.59649 -2.4607,-1.86404 -2.4607,-2.46053 0,0 2.8332,-0.59649 8.8731,-0.59649 8.2019,0 9.0965,0.59649 12.5264,1.86404 5.4428,1.86405 8.8727,3.65355 14.838,9.8422 23.1886,23.41252 38.9212,51.82072 44.8861,80.75086 2.4607,11.70628 2.9082,17.89494 2.9082,33.92578 -0.4475,15.43441 -0.4475,17.89494 -2.9082,29.60122 -2.4604,11.70624 -7.9036,25.87309 -13.3464,35.1188 -18.2679,30.79418 -48.3164,49.2856 -87.7597,55.47426 -4.9211,0.59648 -26.7677,1.26755 -30.5706,0.59648 z" style="opacity:0.8;"></path>
  <path d="m 1381.0489,387.20865 c -2.2366,-1.2676 -2.9824,-3.72813 -0.7454,-5.51763 0.7454,-0.67107 1.4912,-0.67107 5.2195,-1.26755 7.4561,-0.59649 13.4209,-1.86405 15.658,-3.72813 4.4736,-3.65354 7.456,-13.49574 8.9473,-35.71529 0.7458,-11.70623 1.4912,-223.16463 0.7458,-242.25254 -0.7458,-14.83787 -1.4912,-20.3555 -2.9824,-24.75465 -3.7283,-7.38167 -10.439,-10.43873 -26.097,-11.70628 -5.9648,0 -8.2019,-0.59649 -8.2019,-1.19298 -1.4912,-1.26755 -1.4912,-1.26755 -0.7458,-2.46057 0,-1.26755 0.7458,-1.86404 1.4917,-2.46052 2.9824,-1.26756 11.1843,-1.26756 38.0266,0 14.9122,0.59648 21.6228,0.59648 32.8072,0 29.0793,-1.26756 48.4656,-1.26756 58.9041,0 43.9919,3.65354 69.343,17.82035 82.0186,48.09259 5.2194,9.84224 6.7107,18.49142 5.9648,30.1977 0,28.33361 -9.6931,53.01373 -28.3335,72.10164 -8.9477,8.64922 -15.658,12.97383 -26.8423,19.16248 -14.9126,7.38167 -32.0618,11.10975 -51.448,11.70628 -11.1844,0.59649 -15.658,0 -17.1492,-1.86408 -1.4912,-1.86404 -1.4912,-3.72808 1.4912,-4.9211 0.7454,-0.59648 3.7278,-1.26755 11.1843,-1.26755 10.4385,-0.59649 15.658,-1.19302 23.8599,-3.65355 11.9297,-3.72812 22.3687,-9.91677 32.0618,-19.16248 13.4209,-13.49574 19.3862,-30.19771 19.3862,-49.8821 0,-24.68011 -6.7107,-45.03557 -20.132,-61.06642 -12.6756,-14.16686 -28.3336,-22.81604 -46.974,-25.27661 -5.2195,-0.59648 -23.8599,-0.59648 -29.8252,0 -3.7278,0.59649 -7.456,1.19298 -8.9473,2.46057 0,0.59649 -0.7458,1.86405 -1.4912,3.1316 -0.7458,3.65354 0,245.3096 0.7454,260.14748 1.4912,30.1977 2.9824,36.98284 11.9302,40.63638 3.7282,1.86408 4.4736,1.86408 13.4209,3.13164 5.2195,0.59649 10.439,1.19297 11.9302,1.19297 2.9824,0 4.4736,0.67107 5.2194,1.86409 0,1.86404 -0.7458,3.05701 -2.237,4.32461 -2.2366,0.59648 -3.7283,0.59648 -23.8599,0 -11.1843,0 -24.6057,0 -28.3335,-0.59653 h -14.9126 c -3.7278,0.59653 -14.1668,0.59653 -23.8599,0.59653 -13.4209,0.59648 -16.4038,0.59648 -17.895,0 z M 739.81407,241.06675 c 0,-1.19302 -0.7454,-4.25008 -5.2191,-13.49578 -1.4912,-6.18866 -32.1363,-91.26413 -35.1188,-99.91331 -4.474,-12.30277 -5.2194,-12.8993 -6.7107,-9.84224 -0.7458,0.59648 -37.2812,107.22044 -38.7724,112.8126 -2.2366,5.51759 -2.9825,9.8422 -2.9825,10.43873 0,0.67102 3.7283,0.67102 43.9916,0.67102 39.5928,0 44.0665,0 44.8119,-0.67102 z m -202.958,145.54537 c -1.8641,-0.67107 -2.4608,-1.26756 -2.4608,-2.46053 0,-2.46057 2.4608,-3.13164 5.5178,-3.13164 4.3245,0 13.5701,-1.19297 16.6272,-1.86404 4.3244,-1.19302 10.2151,-4.25003 13.943,-7.38167 1.4916,-1.19297 3.7282,-4.32461 5.9653,-6.78514 4.4736,-7.38167 8.2019,-14.16681 20.8774,-48.09263 1.4912,-4.25003 4.4737,-11.03521 5.9649,-14.7633 0.7454,-4.32461 3.7282,-11.70628 5.9648,-16.62737 1.4913,-5.59217 3.7283,-11.10976 3.7283,-12.97384 2.2366,-3.05701 58.1583,-153.52353 59.6495,-157.7736 0.7458,-1.86404 2.9829,-5.59217 3.7282,-8.64918 1.4913,-3.72812 3.7283,-10.51326 5.9649,-15.43441 1.4912,-5.51758 4.4741,-11.70623 5.2195,-14.76329 5.9648,-16.70192 8.2019,-21.62306 9.6931,-24.68007 1.4912,-1.26756 2.237,-1.26756 3.7283,-1.26756 2.2366,0 2.9824,0 3.7278,1.26756 2.237,2.46053 4.4741,7.97815 8.2019,17.82035 2.237,4.32461 4.4736,10.51326 5.2194,13.64486 1.4913,3.05706 4.4737,12.30277 8.2765,20.28092 2.9825,8.05274 6.7107,17.89494 8.2019,21.62306 1.4912,3.05706 41.0091,104.16338 43.9915,110.94852 11.9302,32.06174 16.4038,42.57501 26.097,65.98757 12.6755,32.65823 14.1667,34.52227 18.6404,44.36446 5.2194,10.51331 9.6931,16.62738 14.9126,22.81603 8.9473,7.97816 15.6579,11.1098 29.8247,11.70629 6.7107,0.59648 7.4561,0.59648 7.4561,1.86404 1.4912,1.86408 0,3.65354 -2.2366,4.32461 -1.4912,1.19301 -2.2371,1.19301 -37.2813,1.19301 -46.2285,-0.59648 -52.1934,-1.19301 -52.9392,-3.65354 0,-1.86408 0.7458,-2.46057 3.7282,-4.32461 4.4737,-2.46057 4.4737,-5.59217 -2.9824,-24.08359 -2.237,-7.38167 -6.7107,-17.22386 -8.2019,-20.95199 -1.4912,-4.32461 -3.7282,-10.43868 -5.2195,-14.16681 -5.2194,-14.1668 -8.9473,-21.54847 -12.6755,-32.06174 -8.2019,-22.21954 -10.4385,-28.33366 -11.1843,-29.00468 -0.7454,-1.19302 -3.7283,-1.19302 -50.7768,-1.19302 -43.2461,0 -50.7022,0 -51.448,0.59649 -0.7454,1.26755 -0.7454,1.86408 -8.2019,22.81603 -2.2367,6.1887 -5.2191,14.16685 -5.9649,17.89493 -6.7107,20.35551 -16.4038,46.82508 -17.1492,51.74618 -2.237,6.18865 -2.9824,12.97384 -2.9824,16.03085 0,3.72813 0.7454,6.1887 2.9824,8.64922 3.7278,3.05706 7.4561,4.32462 14.1668,4.32462 5.9648,0.59648 7.456,0.59648 8.2019,1.86404 1.4912,1.86408 0.7454,3.05705 -1.4913,4.32461 -0.7458,1.19301 -2.237,1.19301 -8.2019,1.19301 -5.2194,0 -12.6755,-0.59648 -19.3862,-0.59648 -8.9473,-0.59653 -14.9126,-0.59653 -27.5881,0 -8.2019,0 -21.4737,0.59648 -27.6623,0.59648 -11.7064,0 -12.3031,0 -14.1668,-1.19301 z m 1253.53953,1.86408 c -10.4389,0 -26.8423,-0.67107 -35.0442,-0.67107 -25.3511,-1.19301 -43.2461,-1.19301 -54.4305,-1.19301 -36.5354,1.19301 -38.7724,1.19301 -40.2637,0 -0.7453,-0.67107 -1.4912,-1.26756 -1.4912,-2.46053 0,-2.46057 1.4912,-3.13164 6.7107,-3.72812 6.7107,0 11.9297,-1.86405 14.1668,-3.05706 6.7107,-4.32461 9.6931,-17.89494 10.4385,-53.68476 0.7458,-19.68443 0.7458,-210.19084 0,-224.95414 0,-6.78518 0,-13.57032 -0.7454,-15.43436 -2.237,-14.83788 -8.2019,-19.16249 -27.5881,-21.02657 -6.7107,0 -7.4561,-0.59649 -8.9473,-1.19298 -0.7459,-1.26755 -0.7459,-1.26755 -0.7459,-2.46057 0,-1.26755 1.4913,-1.86404 2.2371,-2.46052 2.2366,-1.26756 11.9297,-1.26756 37.2808,0 14.9126,0.59648 20.8775,0.59648 32.0618,0 7.4565,0 20.132,-0.67107 26.8427,-0.67107 11.9298,0 12.6756,0 14.1668,1.26755 0.7454,1.26756 1.4912,3.05706 0,4.32461 0,0.59649 -1.4912,1.19298 -5.9653,1.19298 -6.7102,0.67107 -13.4209,1.86408 -16.4034,2.46057 -2.9824,1.26755 -5.9653,3.72812 -7.4565,5.59216 -2.2366,3.05706 -3.7278,9.24571 -4.4736,16.03085 -0.7454,9.84224 -0.7454,218.84007 0,234.27443 0.7458,17.89494 2.9824,30.79419 5.9648,36.98284 3.7283,6.18866 11.9302,10.51327 26.8428,12.30277 6.7102,0.67107 42.5003,1.26756 51.4476,0.67107 10.4389,-1.26756 19.3862,-3.13164 25.3511,-6.78518 7.4565,-4.9211 14.1672,-17.29841 17.895,-32.65823 0.7458,-4.32461 2.9824,-6.18865 6.7107,-4.32461 0,0.59648 0,1.19301 0,7.38167 0,3.05705 0,6.78513 0,7.97815 0,1.26756 -0.7459,5.59217 -1.4912,9.91678 -2.2371,14.76329 -4.4737,25.87304 -5.9649,29.60117 -2.237,2.46057 -4.4741,4.9211 -6.7107,5.51763 -5.9648,1.86404 -20.1316,2.46053 -60.3953,1.26755 z m -815.71053,2.46053 c -2.9825,-4.32461 -5.9649,-11.78082 -15.658,-46.89962 -1.4912,-2.46053 -2.9824,-9.24571 -5.2195,-15.35982 -2.2366,-6.18865 -3.7278,-13.57032 -4.4736,-16.03085 -1.4912,-2.53511 -46.9744,-151.65949 -55.1759,-178.20364 -0.7458,-3.05706 -1.4912,-7.97816 -2.9828,-10.43873 -1.4912,-2.53511 -2.2366,-7.45621 -3.7279,-10.51326 -3.7282,-13.57033 -7.4565,-26.54412 -10.4389,-32.06175 -2.2366,-4.92109 -3.7278,-6.78513 -6.7102,-9.24571 -5.2195,-6.18865 -12.676,-8.64922 -25.3516,-9.91677 -8.9473,-0.59649 -9.6931,-0.59649 -9.6931,-3.05702 0,-1.19301 0.7458,-1.86408 1.4917,-2.46057 1.4912,-1.26755 2.2366,-1.26755 9.6926,-1.26755 4.4741,0 17.1497,0 29.0794,0.67107 17.895,0.59648 21.6233,0.59648 36.5354,0 20.1321,-1.26756 33.553,-1.26756 35.0442,0 2.2371,1.19297 2.9829,2.46052 2.2371,4.32461 -0.7459,1.19297 -2.2371,1.78946 -9.6931,1.78946 -8.2019,1.26755 -11.9298,1.86408 -14.1668,4.32461 -2.237,1.86408 -3.7283,5.59216 -3.7283,8.05274 0,1.86404 1.4913,9.84219 3.7283,19.0879 2.237,9.91678 8.2019,35.19338 8.9473,38.2504 0.7458,1.26755 1.4912,4.92114 2.237,8.64922 2.2371,5.51763 49.211,173.80449 51.448,178.1291 0.7454,4.32457 2.2367,8.0527 2.2367,8.0527 0,0 2.237,-4.32461 3.7282,-9.24571 4.4737,-11.10975 23.11413,-60.46994 23.85993,-62.25945 0,-1.86404 39.5179,-106.69848 41.7549,-109.75554 4.4736,-13.57032 21.6228,-57.93479 22.3687,-61.06643 3.7278,-8.57464 6.7107,-17.89493 8.9473,-21.54847 2.237,-4.9211 4.4736,-6.18866 7.456,-5.59217 1.4917,1.26755 5.9653,10.51326 11.9302,25.94767 0.7458,3.05701 60.3953,168.28686 62.6323,173.20796 1.4913,4.9211 5.2191,16.03085 8.9473,24.68007 2.2371,7.97816 5.9649,17.89494 6.7107,21.54848 1.4912,3.1316 2.9825,6.78518 2.9825,7.38167 0.7458,0.67107 1.4912,4.32461 2.9824,8.64922 1.4912,4.32457 2.9824,7.38163 3.7282,7.38163 0.7454,0 0.7454,-1.78946 1.4913,-3.65354 0.7453,-2.46053 2.237,-6.78514 2.9824,-10.51327 0.7458,-3.05706 3.7282,-10.43868 5.2195,-16.03085 1.4912,-4.92114 3.7278,-12.30277 5.2194,-15.35982 5.2191,-18.49142 35.7896,-114.67665 35.7896,-116.54073 0,-1.26756 1.4913,-3.72808 2.2371,-6.78514 1.4912,-2.46057 1.4912,-6.18865 2.2366,-7.97816 4.4736,-12.3773 9.6931,-31.46525 13.4214,-43.84256 3.7282,-13.49578 4.4736,-19.68443 5.2194,-27.0661 0,-6.18866 0,-6.85972 -1.4912,-8.64918 -0.7458,-3.13164 -4.4741,-4.99568 -8.9477,-6.1887 -1.4912,0 -5.9649,-0.59648 -9.6931,-1.26755 -5.9649,0 -6.7107,-0.59649 -8.2019,-1.19298 -1.4912,-1.26755 -1.4912,-3.72812 0.7458,-4.92109 1.4912,-1.26756 13.4209,-1.26756 35.7896,0 14.9126,0.59648 18.6408,0.59648 29.0794,0 18.6408,-1.26756 25.3511,-1.26756 27.5881,0 2.237,1.19297 2.237,3.05705 1.4912,4.92109 -1.4912,0.59649 -2.237,1.19298 -5.9649,1.19298 -11.9301,1.26755 -15.6579,2.46057 -21.6232,8.05273 -6.7107,6.78514 -11.1844,16.62738 -22.3687,49.36019 -7.4561,19.6844 -90.2201,268.12563 -94.6937,271.85372 -0.7458,0.59653 -1.4912,1.19301 -1.4912,1.86408 0,0.59649 -0.7458,0.59649 -2.9829,0.59649 -2.2366,0 -2.9824,0 -2.9824,-0.59649 v -1.26755 c -1.4912,0 -3.7278,-3.65355 -5.219,-8.64923 -2.9829,-6.11411 -2.9829,-6.11411 -16.4039,-42.50047 -1.4912,-5.59216 -4.4736,-13.57032 -5.9648,-17.89493 -3.7283,-9.84219 -12.6756,-36.38631 -18.6409,-51.14965 -2.2366,-6.18865 -50.7022,-138.08916 -50.7022,-140.54973 -0.7453,-2.46053 -2.2366,-3.72808 -2.2366,-3.72808 0,0 0,1.26755 -0.7458,1.86404 0,0.59649 -2.237,6.18865 -4.4736,12.30277 -2.2371,5.59216 -61.8866,161.57626 -63.3778,164.03679 -0.7458,2.46057 -4.4741,13.49578 -9.6931,25.87308 -4.4741,11.70629 -10.43893,27.14065 -12.67553,34.52232 -5.9653,14.76329 -10.439,23.41252 -12.676,25.87309 -1.4913,1.86404 -2.2366,1.86404 -4.4737,1.86404 h -2.9824 z m -439.0969,49.28561 v -8.64923 h 665.76603 665.0947 v 8.64923 9.24571 H 1201.3542 535.58817 Z"></path>
  <path d="m 193.19877,311.37888 c -5.0703,-1.26755 -12.0789,-6.78518 -26.3948,-20.95199 -12.8247,-12.97379 -24.8295,-26.54411 -34.0005,-39.44341 -4.4737,-6.18865 -6.6361,-8.64918 -8.8732,-9.91673 -1.5658,-0.59653 -1.7149,-0.59653 -2.7586,0.67102 -0.6708,0.59653 -0.8946,1.19302 -0.6708,3.05706 0.447,2.46057 1.2674,4.32461 7.456,12.30277 12.4518,16.70191 29.7502,35.78986 45.3336,49.36019 1.9387,1.86404 3.2808,3.65354 3.1316,3.65354 h -8.8727 c -8.1273,0.67107 -8.6494,0 -11.1844,-1.19302 -3.5045,-1.26755 -7.3069,-4.32461 -16.5529,-12.97379 -14.1668,-12.8993 -26.4694,-27.0661 -39.0704,-43.76802 -4.995703,-6.78514 -7.083603,-9.24571 -8.724003,-10.43873 -2.8332,-1.26755 -4.2499,-0.67102 -4.2499,1.86409 0,3.05705 0.8946,4.9211 6.1141,11.70623 10.662603,15.35983 21.623203,27.73713 30.495903,35.1188 2.1625,1.86409 3.8775,3.72813 3.8775,3.72813 0,0.59649 -15.2855,0.59649 -18.5663,-0.67107 -7.6798,-1.86404 -12.899303,-5.51758 -21.772003,-14.76329 -26.544,-29.00473 -40.2413,-58.6059 -43.5221,-93.12822 -0.82,-9.24571 -0.2983,-28.9301 0.9696,-37.57932 6.1886,-40.71097 27.7145,-70.90867 61.938703,-87.536 18.3421,-8.64923 37.6538,-12.97384 59.9478,-12.97384 21.5487,0 38.5488,3.05706 58.1588,10.51327 6.7852,3.05705 19.3116,9.24571 19.6095,9.84219 0.075,0.59653 -3.5041,0.59653 -11.1097,0.59653 -28.7811,1.26756 -50.1802,8.0527 -65.0182,22.2195 -9.7677,9.24571 -15.1359,20.952 -16.6271,34.52232 -1.9387,19.75897 6.4124,43.17149 23.7107,66.58405 3.877,5.51759 12.3027,15.43436 41.0837,48.68908 7.009,8.05274 12.7501,14.83787 12.7501,14.83787 0,0.59653 -1.7149,1.19302 -3.8028,2.46058 -3.2062,1.19297 -4.4737,1.19297 -7.7544,1.19297 -3.43,0 -4.3991,0 -7.3069,-1.19297 -4.1758,-1.86405 -6.1141,-3.72813 -12.4518,-9.91678 -5.7416,-5.51759 -8.724,-6.78514 -10.8119,-5.51759 -1.5658,1.26756 -1.7145,3.72808 -0.2979,6.18866 1.1183,2.46052 9.6931,14.1668 15.5834,21.54847 4.772,6.18866 14.838,16.62738 19.1625,19.75898 1.4912,1.19297 2.6841,2.46057 2.7587,3.05705 0,0.59649 -8.7981,1.86405 -13.1976,1.26756 -7.1578,0 -10.4386,-2.53511 -23.3379,-16.03089 -9.9168,-9.91678 -15.5833,-16.70192 -22.3686,-26.54412 -5.0703,-6.78518 -7.1578,-9.24571 -9.3948,-9.84224 -2.1625,-1.26755 -3.2062,-0.67102 -3.2062,1.86409 0,3.05705 0.9692,4.9211 5.2941,11.03521 11.7805,16.03085 28.3335,34.52227 43.2457,48.09259 3.952,3.72813 7.1581,6.78518 7.1581,6.78518 0,1.26756 -13.123,2.46053 -15.8817,1.86404 z" style="opacity:0.5;"></path>
  <path d="m 440.89447,245.39136 v -9.84224 c -1.4912,-44.36451 -18.7154,-73.96568 -47.7197,-81.34735 -5.8162,-1.86404 -17.7459,-2.46053 -24.382,-1.26755 -16.4784,2.46057 -34.0751,10.51326 -51.8955,23.41251 -3.5787,3.13164 -19.1625,16.0309 -34.8205,29.60122 l -28.3335,24.68007 -1.5658,-3.72812 c -4.9212,-9.8422 -2.1625,-17.82035 10.2152,-29.60117 2.6095,-2.46058 4.9211,-6.78514 4.9211,-7.97816 0,-1.86404 -1.5662,-3.05706 -3.0574,-3.05706 -0.6708,0 -2.162,0.59649 -3.4295,1.19302 -2.5354,1.26755 -14.018,9.8422 -21.5487,15.43436 -4.9211,4.32461 -17.5967,16.62738 -21.2504,20.95199 -2.0128,2.46053 -2.162,1.86404 -2.9824,-4.32461 -1.6404,-12.97383 0.3729,-16.62738 17.0005,-32.06174 10.7368,-10.43873 14.8375,-14.16685 25.2765,-21.54848 7.9781,-5.59216 10.1402,-8.05273 10.7368,-9.91678 0.2238,-1.19301 0.1492,-1.7895 -0.5966,-1.7895 -3.355,-1.86404 -7.3815,0 -22.592,12.30277 -13.1976,10.51326 -27.5136,24.00905 -38.5487,35.78987 -3.6537,4.25003 -6.8599,7.38162 -7.0836,7.38162 -0.6709,-0.59648 -1.5658,-9.84219 -1.3421,-14.16681 0.2237,-4.99563 1.4166,-7.4562 7.6798,-14.83787 14.0922,-16.03085 32.3601,-33.25472 49.8077,-46.22855 8.5748,-6.18866 11.6318,-8.64923 12.4518,-10.43873 0.895,-2.53511 0,-3.13159 -3.3554,-3.13159 -2.2366,0 -3.2807,0.59648 -6.6361,3.13159 -5.6665,3.65359 -13.5701,9.84224 -22.3686,17.22387 -7.0086,6.18869 -26.9169,25.2766 -32.9564,32.06174 -1.5658,1.86408 -2.9078,3.05705 -3.057,3.05705 -0.5221,-0.59648 -1.1183,-6.78513 -1.1929,-11.10975 0,-9.24571 2.3112,-12.89925 19.9825,-30.79418 13.6451,-13.57032 26.619,-24.68008 40.562,-35.1188 3.3553,-2.46053 6.7107,-4.9211 7.5307,-6.18865 1.8641,-1.86405 2.3116,-3.65355 1.1183,-4.9211 -2.3112,-1.26756 -6.2632,0.59648 -16.4034,7.97815 -13.6451,9.91678 -25.5749,20.35546 -32.4347,29.00469 -1.5658,1.26755 -3.1316,3.05705 -3.4299,3.05705 -0.5217,0 -0.6708,-1.7895 -0.5217,-8.57464 0.1487,-8.05273 0.2233,-9.24575 1.5658,-12.97383 1.8637,-5.51763 4.3245,-8.64923 11.0352,-15.43437 25.9473,-25.87308 55.1758,-40.71096 88.3559,-46.22859 6.8599,-1.26755 29.7506,-1.26755 37.8034,-0.59648 24.7544,2.46057 46.1539,10.43872 63.8252,23.41251 4.9207,3.65355 13.2718,12.37735 17.7454,17.29845 25.1278,30.79419 33.553,75.82976 22.2195,120.19423 -2.9824,12.30277 -7.9036,25.87309 -13.3463,35.71533 -2.4608,4.32461 -2.9825,4.99563 -2.9825,4.32461 z" style="opacity:0.9;"></path>

</svg>
