<?xml version="1.0"?>

<!-- Generator: Adobe Illustrator 19.1.0, SVG Export Plug-In . SVG Version: 6.00 Build 0)  -->
<svg version="1.1" id="Layer_1" xmlns="http://www.w3.org/2000/svg" xmlns:xlink="http://www.w3.org/1999/xlink" x="0px" y="0px" width="1518px" height="282px" viewBox="0 0 1518 282" enable-background="new 0 0 1518 282" xml:space="preserve">
<path d="M121.336,50.201l120.293-16.805V139.65H121.336V50.201z M117.736,139.65V50.705L25.625,63.572v76.078H117.736z
	 M121.336,143.25v89.355l120.293,16.791V143.25H121.336z M117.736,143.25H25.625v75.996l92.111,12.857V143.25z"></path>
<path d="M474.744,76.529L438.111,206.24h-17.818l-28.947-102.756h-0.361L361.949,206.24H344.31l-37.9-129.711h16.643l30.031,108.273
	h0.363l31.297-108.273h14.652l29.668,108.635h0.363l28.858-108.635H474.744z"></path>
<path d="M501.877,206.24h-14.836v-92.625h14.836V206.24z"></path>
<path d="M601.035,206.24h-14.834v-52.824c0-19.598-7.18-29.398-21.529-29.398c-7.299,0-13.404,2.76-18.318,8.277
	c-4.916,5.518-7.371,12.559-7.371,21.121v52.824h-14.834v-92.625h14.834v15.377h0.363c6.934-11.758,17.064-17.639,30.393-17.639
	c10.188,0,17.953,3.318,23.291,9.951c5.336,6.635,8.006,16.041,8.006,28.221V206.24z"></path>
<path d="M703.264,206.24h-14.836v-15.738h-0.359c-6.877,12-17.49,18-31.842,18c-11.699,0-21.016-4.205-27.949-12.619
	c-6.935-8.412-10.402-19.643-10.402-33.693c0-15.316,3.844-27.617,11.535-36.904c7.688-9.287,17.982-13.932,30.889-13.932
	c12.662,0,21.92,5.008,27.77,15.016h0.359V69.111h14.836V206.24z M688.428,164.361v-13.66c0-7.656-2.547-14.02-7.643-19.086
	c-5.096-5.064-11.293-7.598-18.588-7.598c-8.926,0-16.01,3.303-21.258,9.904c-5.244,6.604-7.869,15.756-7.869,27.453
	c0,10.615,2.473,19.012,7.418,25.191c4.945,6.182,11.609,9.271,19.99,9.271c8.141,0,14.834-2.953,20.08-8.863
	C685.807,181.064,688.428,173.527,688.428,164.361z"></path>
<path d="M813.363,159.566c0,14.715-4.178,26.549-12.529,35.504c-8.352,8.955-19.553,13.432-33.602,13.432
	c-13.691,0-24.621-4.355-32.789-13.07c-8.174-8.713-12.258-20.186-12.258-34.418c0-15.316,4.192-27.422,12.572-36.316
	c8.381-8.895,19.93-13.344,34.645-13.344c13.75,0,24.514,4.297,32.291,12.891C809.475,132.838,813.363,144.611,813.363,159.566z
	 M798.166,160.109c0-11.639-2.576-20.562-7.732-26.775c-5.156-6.209-12.527-9.316-22.117-9.316c-9.527,0-17.066,3.182-22.613,9.543
	c-5.549,6.363-8.32,15.332-8.32,26.91c0,11.096,2.787,19.764,8.367,26.006c5.576,6.242,13.1,9.361,22.566,9.361
	c9.648,0,17.035-3.074,22.162-9.227C795.602,180.461,798.166,171.627,798.166,160.109z"></path>
<path d="M948.043,113.615l-27.768,92.625h-15.379l-20.713-71.91h-0.361l-22.434,71.91h-14.834l-27.953-92.625h15.56l20.441,74.715
	h0.725l22.885-74.715h13.568l20.625,74.715h0.723l20.262-74.715H948.043z"></path>
<path d="M1010.902,181.457c0,8.02-3.088,14.533-9.269,19.537c-6.182,5.006-14.396,7.508-24.648,7.508
	c-8.742,0-16.402-1.869-22.975-5.607v-15.92c7.295,5.91,15.316,8.863,24.059,8.863c11.76,0,17.641-4.311,17.641-12.934
	c0-3.498-1.146-6.346-3.44-8.549c-2.291-2.201-7.508-5.17-15.648-8.91c-8.201-3.496-13.99-7.25-17.367-11.262
	c-3.377-4.01-5.064-9.33-5.064-15.965c0-7.656,3.076-14.049,9.227-19.176c6.15-5.125,13.961-7.689,23.428-7.689
	c7.295,0,13.898,1.447,19.808,4.342v14.926c-6.031-4.4-13.023-6.603-20.984-6.603c-4.883,0-8.818,1.207-11.805,3.619
	c-2.986,2.412-4.478,5.518-4.478,9.316c0,4.102,1.146,7.252,3.441,9.453c2.289,2.201,7.022,4.809,14.197,7.824
	c8.805,3.738,14.986,7.658,18.545,11.758C1009.125,170.09,1010.902,175.246,1010.902,181.457z"></path>
<path d="M1167.359,206.24h-16.824l-13.658-36.271h-55.088l-12.936,36.271h-16.824l49.57-129.711h15.736L1167.359,206.24z
	 M1131.811,156.219l-22.434-60.693h-0.361l-22.162,60.693H1131.811z"></path>
<path d="M1248.783,117.867l-54.908,75.801h54.273v12.572h-76.072v-4.613l54.814-75.438h-49.658v-12.574h71.551V117.867z"></path>
<path d="M1337.691,206.24h-14.834v-14.652h-0.361c-6.15,11.275-15.648,16.914-28.494,16.914c-22.131,0-33.195-13.176-33.195-39.529
	v-55.358h14.834v53.006c0,19.479,7.479,29.217,22.436,29.217c7.354,0,13.324-2.668,17.908-8.004
	c4.58-5.338,6.873-12.287,6.873-20.85v-53.369h14.834V206.24z"></path>
<path d="M1410.119,128.631c-2.656-1.99-6.424-2.984-11.309-2.984c-6.572,0-11.91,3.09-16.008,9.271
	c-4.102,6.182-6.152,14.217-6.152,24.105v47.217h-14.834v-92.625h14.834v19.086h0.361c2.051-6.391,5.215-11.441,9.498-15.15
	c4.281-3.709,9.195-5.562,14.742-5.562c3.859,0,6.816,0.422,8.867,1.266V128.631z"></path>
<path d="M1493.199,163.637h-65.4c0.24,10.434,3,18.408,8.277,23.926c5.275,5.518,12.588,8.275,21.934,8.275
	c10.492,0,20.051-3.375,28.674-10.131v13.84c-8.082,5.971-18.814,8.955-32.201,8.955c-13.207,0-23.518-4.266-30.934-12.799
	c-7.418-8.533-11.127-20.338-11.127-35.414c0-9.164,1.854-17.531,5.562-25.1c3.709-7.568,8.818-13.434,15.332-17.594
	c6.512-4.16,13.748-6.242,21.709-6.242c12,0,21.359,3.906,28.086,11.715c6.723,7.811,10.088,18.74,10.088,32.789V163.637z
	 M1478.002,151.064c-0.123-8.562-2.188-15.211-6.197-19.945c-4.012-4.734-9.664-7.101-16.959-7.101
	c-6.877,0-12.756,2.475-17.641,7.418c-4.883,4.945-7.959,11.486-9.227,19.629H1478.002z"></path>
</svg>
