 <svg 
   xmlns="http://www.w3.org/2000/svg"
 
   viewBox="0 0 41.25 20.6"
   height="78"
   width="156">
   
  <path
     d="M 7.461,14.54 C 7.498,13.44 6.51,13.06 6.51,13.06 7.347,12.62 7.24,11.52 7.24,11.52 7.149,9.824 5.086,9.904 5.086,9.904 l -3.19,0 0,6.296 3.601,0 c 2.116,0 1.964,-1.66 1.964,-1.66 m -2.037,0.49 0,0 -2.156,0 0,-1.36 2.146,0 c 0.79,0 0.757,1.34 0,1.34 m -0.07,-2.59 -2.086,0 0,-1.31 2.076,0 c 0.802,0 0.814,1.31 0.01,1.31 z m 5.53,-0.83 -2.798,0 0,0.95 2.458,0 c 0,0 0.58,0.15 0.58,0.52 l 0,0.33 -2.222,0 c 0,0 -0.871,0.1 -1.153,1.12 -0.05,0.49 0.02,0.73 0.05,0.82 0.03,0.1 0.288,0.66 1.049,0.81 l 3.536,0 0,-3.25 c 0,0 -0.17,-1.11 -1.5,-1.29 m 0.24,3.64 -1.787,0 c -0.597,0 -0.522,-0.97 0.05,-0.97 l 1.747,0 0,0.97 z m 1.89,-4.14 1.31,0 0,-1.158 -1.31,0 z m 0,5.03 1.31,0 0,-4.53 -1.31,0 z m 26.23,-5.99 -2.36,0 0,-0.466 -1.11,0 0,0.436 -2.7,0 0,6.05 0.98,0 0,-5.27 5.19,0 z m -0.64,1.25 0,-0.35 -0.94,0 0,0.35 -1.96,0 0,-0.34 -0.91,0 0,0.34 -0.6,0 0,0.68 0.59,0 0,1.29 3.29,0 c 0.46,0 0.52,-0.48 0.52,-0.48 l 0,-0.81 0.7,0 0,-0.68 -0.7,0 0,0 0,0 z m -0.94,1.15 c 0,0 -0.1,0.16 -0.2,0.16 l -1.77,0 0,-0.64 1.97,0 z m -3.34,1.75 1.52,0.88 c -0.12,0.13 -0.64,0.3 -0.64,0.3 l -1.01,0 0,0.67 1.38,0 c 0.4,-0.1 1.16,-0.46 1.16,-0.46 0.31,0.28 0.91,0.4 0.91,0.4 l 1.55,0 0,-0.67 -1.16,0 c -0.32,-0.1 -0.61,-0.23 -0.61,-0.23 l 1.79,-1.02 0,-0.55 -4.89,0 z m 3.15,0 -0.86,0.45 -0.79,-0.45 z m -5.09,-3.26 0,-0.91 -6,0 0,0.93 2.58,0 -0.23,0.55 -2.2,0 0,4.58 5.21,0 c 0.54,0 0.49,-0.56 0.49,-0.56 l 0,-4.02 -2.19,0 0.19,-0.57 2.17,0 0,0 z m -1.16,4.17 c 0,0 -0.1,0.15 -0.17,0.15 l -3.46,0 0,-1.07 3.63,0 z m 0,-1.8 -3.61,0 0,-1 3.61,0 z M 18.9,4.416 c -0.73,0 -1.31,0.829 -1.31,1.855 0,1.033 0.58,1.862 1.31,1.862 0.72,0 1.3,-0.829 1.3,-1.862 0,-1.026 -0.58,-1.855 -1.3,-1.855 z m 3.51,0.295 c -0.67,0 -1.42,1.001 -1.5,1.671 -0.1,0.879 0.13,1.751 1.1,1.874 0.96,0.123 1.58,-0.903 1.71,-1.683 0.12,-0.781 -0.5,-1.69 -1.18,-1.844 -0.1,-0.01 -0.1,-0.01 -0.13,-0.02 z m -6.3,2.482 -0.1,0 c -1.05,0.1 -1.21,1.622 -1.21,1.622 -0.14,0.707 0.34,2.215 1.65,1.935 1.32,-0.28 1.15,-1.843 1.11,-2.181 -0.1,-0.51 -0.65,-1.388 -1.45,-1.376 z m 8.26,0.873 c -1.15,0 -1.31,1.063 -1.31,1.812 0,0.722 0.1,1.712 1.5,1.682 1.43,0 1.27,-1.62 1.27,-1.995 0,-0.375 -0.31,-1.499 -1.46,-1.499 z m -4.06,1.247 c -0.74,-0.03 -1.41,0.442 -1.73,0.967 -0.55,0.94 -1.43,1.53 -1.55,1.69 -0.13,0.16 -1.81,1.06 -1.43,2.71 0.37,1.66 1.68,1.63 1.68,1.63 0,0 0.96,0.1 2.08,-0.16 1.12,-0.25 2.09,0.1 2.09,0.1 0,0 2.61,0.88 3.32,-0.81 0.71,-1.68 -0.4,-2.55 -0.4,-2.55 0,0 -1.5,-1.16 -2.36,-2.41 -0.53,-0.808 -1.13,-1.115 -1.7,-1.127 z m -1.18,1.927 0.76,0 0,4.1 -1.69,0 c -1,0 -1.4,-1.21 -1.2,-1.9 0.32,-1.02 1.22,-1.1 1.22,-1.1 l 0.91,0 z m 1.97,1.19 0,1.95 c 0,0.2 0.31,0.24 0.31,0.24 l 0.81,0 0,-2.17 0.84,0 0,2.89 -1.96,0 C 20.35,15.14 20.31,14.6 20.31,14.6 l 0,-2.15 0.79,0 z m -2.72,0.58 c -0.87,0 -0.89,1.67 0,1.67 l 0.68,0 0,-1.67 z" />
   
</svg>
