<?xml version="1.0"?>

<!-- Generator: Adobe Illustrator 19.2.0, SVG Export Plug-In . SVG Version: 6.00 Build 0)  -->
<svg version="1.1" id="Layer_1" xmlns="http://www.w3.org/2000/svg" xmlns:xlink="http://www.w3.org/1999/xlink" x="0px" y="0px" width="612px" height="146px" viewBox="0 0 612 146" style="enable-background:new 0 0 612 146;" xml:space="preserve">
<path d="M386.4,57.6c1.2-7.2-2-8.9-7.7-8.9h-6.9c-4.4,0-5.5,0.3-6.2,4.4l-3,17.3H373c3,0,4.8-1,6-2.2c0.6-0.6,1-1.4,1.4-2.2
	c0.3-0.7,0.6-1.3,0.8-2c0-0.1,0.1-0.3,0.2-0.4l2.8-0.1l-3.3,18.9h-2.9c0.8-5-0.6-7.6-5.7-7.6h-10.5l-3.4,19.5
	c-0.8,4.8,0.1,4.9,4.5,4.9h9.8c4.9,0,7.6-1.8,9.3-8.5l2.9,0l-2.6,13.1h-35.6l8.3-47.6c0.8-4.4,1.1-6.5,0.3-7.7
	c-0.8-1.1-2.5-1.5-6-2.1c-0.2,0-0.8-0.1-1-0.2l0.5-2.3h42.7l-2.1,13.5H386.4z"></path>
<path d="M404,77.4c1,0.7,2.1,1.3,3.2,2c4.4,2.8,8.7,6.3,7.5,13.2c-1.5,8.8-9.4,12.3-18.2,12.3c-2.7,0-5-0.3-6.8-0.6
	c-1.8-0.3-3.5-0.8-4.5-1.1l1.4-7.4c2.6,2.1,6.2,4.8,11,4.8c5.5,0,7.9-2.8,8.4-5.7c0.4-2.1-0.5-3.7-2-5.1c-0.8-0.7-1.7-1.4-2.7-2.1
	c-1-0.7-2.1-1.3-3.2-2c-4.3-2.7-8.7-6-7.7-12.2c1.1-6.5,6.5-12,17-12c2.3,0,4.3,0.3,6,0.6c1.3,0.3,2.4,0.6,3.2,0.8
	c0.1,0,0.5,0.2,0.6,0.2l-1.2,7.1c-0.6-0.5-1-0.8-1.6-1.2c-0.6-0.4-1.3-0.9-2.1-1.4c-1.7-0.9-3.8-1.8-6.2-1.8c-2.8,0-6.2,1-6.8,4.7
	c-0.4,2,0.5,3.5,2.1,4.9C402,76.1,402.9,76.7,404,77.4"></path>
<path d="M427.9,62.5l1.2-6.9l10.7-8.2l-2.6,15.1h11.6l-0.7,3.9h-11.6L432,91.9c-1.1,6.2-1.1,8.7,5.5,8.7c1,0,2.3-0.1,3.4-0.4
	l-0.6,3.9c-2.2,0.4-4.2,0.7-6.1,0.7c-8.5,0-13.4-1.4-11.6-11.6l4.7-26.9h-6.9l0.7-3.9H427.9z"></path>
<path d="M468.1,80.8l0.9-4.4c1-5.7,2-11.5-3.3-11.5c-5.4,0-6.8,4.5-7.5,8.4c0,0.1-0.1,0.5-0.1,0.6l-11,0c2.2-6.2,6.3-12.4,19-12.4
	c12.7,0,13.6,6.6,12,15.4l-4.7,27h-9.2l0.8-4.8c-0.6,0.6-0.9,0.9-1.4,1.3c-0.7,0.7-1.6,1.4-2.6,2.1c-2.1,1.3-4.7,2.4-8.2,2.4
	c-7,0-11.2-5-10.2-10.4C444.8,82.1,462.2,81,468.1,80.8 M453,93.1c-0.7,4,0.8,6.7,3.9,6.7c5,0,8.8-4.6,9.9-10.5l0.9-4.9
	C463.8,84.5,454.3,85.2,453,93.1 M453,93.1c-0.7,4,0.8,6.7,3.9,6.7c5,0,8.8-4.6,9.9-10.5l0.9-4.9C463.8,84.5,454.3,85.2,453,93.1
	 M468.1,80.8l0.9-4.4c1-5.7,2-11.5-3.3-11.5c-5.4,0-6.8,4.5-7.5,8.4c0,0.1-0.1,0.5-0.1,0.6l-11,0c2.2-6.2,6.3-12.4,19-12.4
	c12.7,0,13.6,6.6,12,15.4l-4.7,27h-9.2l0.8-4.8c-0.6,0.6-0.9,0.9-1.4,1.3c-0.7,0.7-1.6,1.4-2.6,2.1c-2.1,1.3-4.7,2.4-8.2,2.4
	c-7,0-11.2-5-10.2-10.4C444.8,82.1,462.2,81,468.1,80.8"></path>
<path d="M525.6,41.7l-10.9,62.2h-9.2l0.8-4.6c-0.7,0.6-1.3,1-1.9,1.5c-0.9,0.7-1.9,1.3-3,1.9c-2.2,1.2-4.9,2.2-8.1,2.2
	c-11.7,0-14.3-9.8-12.4-20.9c2-11.2,8.4-22.5,20.2-22.5c7,0,9.3,3.5,10.5,6.3c0.2-0.4,0.3-1.2,0.5-2.4l0.8-4.8
	c0.6-3.4,1.2-6.8,1.2-6.8c1-5.9,0.1-7.4-4.4-7.8c-0.1,0-0.7-0.1-0.9-0.1l0.4-2.1L525.6,41.7z M509.6,80.6c0.9-5,1.4-13.9-6.7-13.9
	c-7.9,0-10.5,9.9-11.6,16.2c-1.2,6.9-2.2,16.9,5.8,16.9c8.3,0,11-10.8,11.8-15.6L509.6,80.6z"></path>
<path d="M545.2,61.5c13,0,17.7,9,15.5,21.8c-2.5,14.5-9.8,21.6-23,21.6c-14.4,0-17.7-9.3-15.5-21.7
	C524.7,68.4,532.2,61.5,545.2,61.5 M550.6,83.2c1.4-8.2,2.4-18.3-5.9-18.3c-8.5,0-11,10.5-12.4,18.4c-1.3,7.5-2.5,18.2,5.9,18.2
	C546.6,101.5,549,92.1,550.6,83.2 M550.6,83.2c1.4-8.2,2.4-18.3-5.9-18.3c-8.5,0-11,10.5-12.4,18.4c-1.3,7.5-2.5,18.2,5.9,18.2
	C546.6,101.5,549,92.1,550.6,83.2 M545.2,61.5c13,0,17.7,9,15.5,21.8c-2.5,14.5-9.8,21.6-23,21.6c-14.4,0-17.7-9.3-15.5-21.7
	C524.7,68.4,532.2,61.5,545.2,61.5"></path>
<path d="M156.8,96c-0.6,3.3,2.6,3.4,7.6,3.4c9.6,0,14.4-4.3,16-13.2c1.5-8.5-4.3-11.6-12-11.6h-7.9L156.8,96z M192.3,58.6
	c-1.5,8.4-8,11.9-12.6,13.4c5.8,1.3,12.4,4.8,10.4,15.9c-1.4,8-6.6,12-12.4,14c-2.9,1-5.9,1.5-8.7,1.7c-2.7,0.3-5.2,0.3-7.1,0.3
	h-16.8l8.3-47.6c0.8-4.4,1.1-6.5,0.3-7.7c-0.8-1.2-3-1.6-6.9-2.3l0.4-2.2h26.4C183.8,44.1,194.5,46.5,192.3,58.6 M161.3,70.1h5.7
	c7.5,0,13.7-2.4,15.2-11c1.4-7.8-2.5-10.4-10.5-10.4c-5.3,0-6.7,0.3-7.4,4.4L161.3,70.1z"></path>
<path d="M216.5,80.8l0.9-4.4c1-5.7,2-11.5-3.3-11.5c-5.3,0-6.7,4.4-7.4,8.2c0,0.2-0.1,0.6-0.1,0.8l-11,0c2.2-6.2,6.3-12.4,19-12.4
	c12.7,0,13.6,6.6,12,15.4l-4.7,27h-9.2l0.8-4.8c-0.6,0.6-1,0.9-1.4,1.3c-0.7,0.7-1.6,1.4-2.6,2.1c-2.1,1.3-4.7,2.4-8.2,2.4
	c-7,0-11.2-5-10.2-10.4C193.1,82.1,210.5,81,216.5,80.8 M201.3,93.1c-0.7,4,0.8,6.7,3.9,6.7c5,0,8.8-4.6,9.9-10.5l0.9-4.9
	C212.1,84.5,202.7,85.2,201.3,93.1 M201.3,93.1c-0.7,4,0.8,6.7,3.9,6.7c5,0,8.8-4.6,9.9-10.5l0.9-4.9
	C212.1,84.5,202.7,85.2,201.3,93.1 M216.5,80.8l0.9-4.4c1-5.7,2-11.5-3.3-11.5c-5.3,0-6.7,4.4-7.4,8.2c0,0.2-0.1,0.6-0.1,0.8l-11,0
	c2.2-6.2,6.3-12.4,19-12.4c12.7,0,13.6,6.6,12,15.4l-4.7,27h-9.2l0.8-4.8c-0.6,0.6-1,0.9-1.4,1.3c-0.7,0.7-1.6,1.4-2.6,2.1
	c-2.1,1.3-4.7,2.4-8.2,2.4c-7,0-11.2-5-10.2-10.4C193.1,82.1,210.5,81,216.5,80.8"></path>
<path d="M258.6,80.8c1.2-7.1,2.2-12.9-3.4-12.9c-5.7,0-12.1,8.1-13.2,14.3l-3.8,21.7h-9.2l5.2-29.8c1-5.9,0-7.4-4.9-7.6
	c-0.1,0-0.7-0.1-0.8-0.1l0.4-2.1l16.8-2.9l-1.9,10.9c2.9-4.2,8.7-10.9,16.6-10.9c8.2,0,9.9,5.8,8.7,12.7l-5.2,29.7h-9.2L258.6,80.8z
	"></path>
<path d="M296.7,74c0.7-4.1,0.6-9.1-4.5-9.1c-5.8,0-8.3,6.3-9.8,14.8c-2.3,13,2.5,20,10.3,20c2.6,0,6.1-0.5,8.3-1.1
	c0.1,0,0.4-0.1,0.4-0.1l-0.7,4.3c-1.8,0.6-3.1,1.1-5,1.5c-1.9,0.4-4.3,0.6-8,0.6c-12.5,0-18.4-8.9-16-22.3
	c2.1-12.1,8.7-21.1,21.4-21.1c9.6,0,15.3,4.7,14.4,11.7c0,0.2-0.1,0.6-0.1,0.8L296.7,74z"></path>
<path d="M329.4,61.5c13,0,17.7,9,15.5,21.8c-2.5,14.5-9.8,21.6-23,21.6c-14.4,0-17.7-9.3-15.5-21.7
	C308.9,68.4,316.4,61.5,329.4,61.5 M334.8,83.2c1.4-8.2,2.4-18.3-5.9-18.3c-8.5,0-11,10.5-12.4,18.4c-1.3,7.5-2.5,18.2,5.9,18.2
	C330.8,101.5,333.2,92.1,334.8,83.2 M334.8,83.2c1.4-8.2,2.4-18.3-5.9-18.3c-8.5,0-11,10.5-12.4,18.4c-1.3,7.5-2.5,18.2,5.9,18.2
	C330.8,101.5,333.2,92.1,334.8,83.2 M329.4,61.5c13,0,17.7,9,15.5,21.8c-2.5,14.5-9.8,21.6-23,21.6c-14.4,0-17.7-9.3-15.5-21.7
	C308.9,68.4,316.4,61.5,329.4,61.5"></path>
<path d="M578.2,76.4c-4.4,0-7.9-3.5-7.9-7.9c0-4.4,3.6-7.9,7.9-7.9c4.4,0,7.9,3.6,7.9,7.9C586.2,72.9,582.6,76.4,578.2,76.4z
	 M578.2,61.8c-3.7,0-6.7,3-6.7,6.7c0,3.7,3,6.7,6.7,6.7c3.7,0,6.7-3,6.7-6.7C584.9,64.8,581.9,61.8,578.2,61.8z"></path>
<g>
	<path d="M52.3,92.9v-4.3c0-0.7,0.5-1.3,1.1-1.5L59,85v-6.5l-5.6,2.1c-0.6,0.2-1.2,1-1.2,1.6l0,4.3c0,0.7-0.5,1.3-1.2,1.5L22.9,99.1
		v6.5l28.3-11.1C51.8,94.2,52.3,93.5,52.3,92.9z"></path>
	<path d="M52.3,80.2v-4.3c0-0.7,0.5-1.3,1.1-1.5l5.6-2.1v-6.5l-5.6,2.1c-0.6,0.2-1.2,1-1.2,1.6l0,4.3c0,0.7-0.5,1.3-1.2,1.5
		L22.9,86.2v6.6l28.3-11C51.8,81.5,52.3,80.8,52.3,80.2z"></path>
	<path d="M71.7,112.7c-0.3,0-0.6,0.2-0.8,0.5c-0.3,0.3-0.5,0.7-0.7,1.5l1.9-1.1c0.1-0.2,0.1-0.2,0.1-0.3
		C72.2,112.9,72,112.7,71.7,112.7z"></path>
	<path d="M64,113.7c-0.3,0.5-0.6,1.5-0.6,2.1c0,0.4,0.1,0.6,0.3,0.6c0.2,0,0.6-0.2,1-0.6c0.6-0.6,1.1-1.4,1.2-2l0.1-0.7
		c-0.2-0.2-0.5-0.3-0.7-0.3C64.9,112.8,64.4,113.1,64,113.7z"></path>
	<path d="M54.3,112.7c-0.3,0-0.6,0.2-0.8,0.5c-0.3,0.3-0.5,0.7-0.7,1.5l1.9-1.1c0.1-0.2,0.1-0.2,0.1-0.3
		C54.8,112.9,54.6,112.7,54.3,112.7z"></path>
	<path d="M46.6,113.7c-0.3,0.5-0.6,1.5-0.6,2.1c0,0.4,0.1,0.6,0.3,0.6c0.2,0,0.6-0.2,1-0.6c0.6-0.6,1.1-1.4,1.2-2l0.1-0.7
		c-0.2-0.2-0.5-0.3-0.7-0.3C47.4,112.8,46.9,113.1,46.6,113.7z"></path>
	<path d="M84.4,115.7c0,0.6,0.4,1,1.1,1c0.8,0,1.4-0.6,1.5-1.3c0-0.3-0.1-0.6-0.3-0.8l-0.7-0.7l-0.7,0.5
		C84.8,114.7,84.4,115.2,84.4,115.7z"></path>
	<path d="M117.7,76.5v-50H22.9v53.2l29.3-11.3v-6l6.8-3v-7c8.2-1.2,14.9-6,18-9.2l0,9.3l7-2.9v56h0.5v0H22.9v15.8h94.9v-15.8
		l-32.8,0V48.9L117.7,76.5z M77.5,42.6L77.5,42.6C77.5,42.6,77.5,42.6,77.5,42.6L77.5,42.6z M78,50.9l0-7.9l6.3,5.3L78,50.9z
		 M49.3,117.6h-1.4l0.3-1.7c-0.1,0.2-0.2,0.4-0.3,0.5c-0.2,0.3-0.4,0.5-0.7,0.7c-0.5,0.4-1.1,0.7-1.6,0.7c-0.7,0-1.1-0.6-1.1-1.7
		c0.1-2.4,1.5-4.4,3.2-4.4c0.4,0,0.6,0.1,1.1,0.3l0.6-3.2l1.5-0.2L49.3,117.6z M52.8,116.2c0.1,0.2,0.3,0.3,0.5,0.3
		c0.2,0,0.5-0.1,0.7-0.2c0.3-0.1,0.5-0.3,1.3-0.9l0.5,0.9c-0.4,0.3-0.5,0.4-0.8,0.6c-0.3,0.2-0.5,0.3-0.6,0.4
		c-0.5,0.3-1.1,0.4-1.6,0.4c-1.1,0-1.6-0.7-1.6-2c0.1-2.4,1.4-4,3.3-4c1.1,0,1.6,0.4,1.6,1.2c0,0.6-0.3,1.1-1,1.4l-2.5,1.3
		C52.7,115.9,52.7,116.1,52.8,116.2z M60.7,113.2c-0.6-0.3-0.8-0.4-1.2-0.4c-0.5,0-0.8,0.2-0.8,0.4c0,0.1,0,0.2,0.1,0.2
		c0.1,0.2,0.2,0.3,0.8,0.8c0.8,0.7,1.1,1.1,1.1,1.7c0,1-0.8,1.7-2,1.7c-0.2,0-0.6,0-0.9-0.1c-0.5-0.1-0.6-0.1-1.1-0.2l0.4-1.2
		c0.6,0.2,1,0.3,1.3,0.3c0.5,0,0.7-0.2,0.7-0.5c0-0.2-0.1-0.4-0.4-0.7c-0.4-0.4-0.6-0.6-0.7-0.6c-0.2-0.2-0.3-0.3-0.5-0.5
		c-0.2-0.3-0.3-0.6-0.3-0.9c0-1,0.8-1.7,2.2-1.7c0.6,0,1.1,0.1,1.7,0.3L60.7,113.2z M66.7,117.6h-1.4l0.3-1.7
		c-0.1,0.2-0.2,0.4-0.3,0.5c-0.2,0.3-0.4,0.5-0.7,0.7c-0.5,0.4-1.1,0.7-1.6,0.7c-0.7,0-1.1-0.6-1.1-1.7c0.1-2.4,1.5-4.4,3.2-4.4
		c0.4,0,0.6,0.1,1.1,0.3l0.6-3.2l1.5-0.2L66.7,117.6z M70.2,116.2c0.1,0.2,0.3,0.3,0.5,0.3c0.2,0,0.5-0.1,0.7-0.2
		c0.3-0.1,0.5-0.3,1.3-0.9l0.5,0.9c-0.3,0.3-0.5,0.4-0.8,0.6c-0.3,0.2-0.5,0.3-0.6,0.4c-0.5,0.3-1.1,0.4-1.5,0.4
		c-1.1,0-1.6-0.7-1.6-2c0.1-2.4,1.4-4,3.3-4c1.1,0,1.6,0.4,1.6,1.2c0,0.6-0.3,1.1-1.1,1.4l-2.5,1.3
		C70.1,115.9,70.1,116.1,70.2,116.2z M80.7,117.6h-1.5l0.8-4.3l-1.6,0.6l-0.3-1.2l3-1.1h0.7L80.7,117.6z M97,115.6
		c-0.3-0.2-0.8-0.3-1.1-0.3h-0.8l0.7-4.2h3.7l-0.2,1.2h-2.2l-0.3,1.9c0.6,0.1,0.9,0.1,1.2,0.3c0.6,0.3,1,1,0.9,1.8
		c0,1.8-1.6,3.2-3.4,3.2c-0.5,0-0.9-0.1-1.6-0.3l0.4-1.2c0.6,0.2,0.9,0.3,1.3,0.3c0.9,0,1.7-0.9,1.7-1.9
		C97.4,116.1,97.2,115.8,97,115.6z M91.7,115.6c-0.3-0.2-0.8-0.3-1.1-0.3h-0.8l0.7-4.2h3.7l-0.2,1.2h-2.2l-0.3,1.9
		c0.6,0.1,0.9,0.1,1.2,0.3c0.6,0.3,1,1,0.9,1.8c0,1.8-1.6,3.2-3.4,3.2c-0.5,0-0.9-0.1-1.6-0.3l0.4-1.2c0.6,0.2,0.9,0.3,1.3,0.3
		c0.9,0,1.7-0.9,1.7-1.9C92.1,116.1,91.9,115.8,91.7,115.6z M86.9,109.4c1.3,0,2.1,0.6,2,1.5c0,0.2-0.1,0.5-0.2,0.7
		c-0.2,0.4-0.4,0.7-1,1.1l-0.8,0.5l0.8,0.7c0.5,0.5,0.8,1.1,0.8,1.7c0,1.3-1.4,2.2-3.4,2.2c-1.5,0-2.3-0.6-2.3-1.8
		c0-0.7,0.6-1.6,1.2-2l1-0.7l-0.5-0.5c-0.4-0.4-0.6-1-0.6-1.4C84.1,110.1,85.2,109.4,86.9,109.4z"></path>
	<path d="M86.2,112.4l0.7-0.5c0.3-0.2,0.4-0.5,0.4-0.8c0-0.4-0.3-0.7-0.8-0.7c-0.6,0-1,0.4-1,0.8c0,0.2,0.1,0.5,0.2,0.6L86.2,112.4z
		"></path>
</g>
<path d="M581.4,71c-0.3-1.2-0.5-2.2-2-2.5v0c0.9-0.2,2.2-0.7,2.2-2.4c0-2.5-2.3-2.7-4-2.7h-2.2v10.2h1.6v-4.6h0.6
	c1.6,0,1.9,0.9,2.1,1.8l0.6,2.7h1.6L581.4,71z M577.6,68.1H577v-3.7h0.6c1.5,0,2.3,0.4,2.3,1.8C580,67.8,578.7,68.1,577.6,68.1z"></path>
</svg>
