<?xml version="1.0"?>

<!-- Generator: Adobe Illustrator 19.2.0, SVG Export Plug-In . SVG Version: 6.00 Build 0)  -->
<svg version="1.1" id="Layer_1" xmlns="http://www.w3.org/2000/svg" xmlns:xlink="http://www.w3.org/1999/xlink" x="0px" y="0px" width="612px" height="186px" viewBox="0 0 612 186" style="enable-background:new 0 0 612 186;" xml:space="preserve">
<path d="M57.2,126.1c-0.9,0-3.7,0-4.9,0.1v16.5c1.4,0.2,3.5,0.4,6.1,0.4c7.3,0,11-3.5,11-8.8C69.4,128.5,64.5,126.1,57.2,126.1
	 M58.8,102c-2.3,0-4.5,0.1-6.5,0.2v15.4c1.4,0.1,2.7,0.1,4.5,0.1c7.6,0,11.6-3.2,11.6-8.4C68.4,104.9,65.9,102,58.8,102 M58.1,152.4
	c-3.5,0-9.6-0.2-16.9-0.2v-59c4.9-0.2,12.4-0.4,19.5-0.4c12.5,0,19.4,5.2,19.4,14.6c0,5.9-3.7,11-9.1,13.2v0.2
	c6.8,1.5,10.3,7.3,10.3,13.2C81.3,142.6,75.5,152.4,58.1,152.4"></path>
<path d="M109.8,132c-12.1,0-14.8,3.6-14.8,7.3c0,2.9,2,4.9,5.3,4.9c5.7,0,9.5-5.5,9.5-11V132z M110.7,152.3c0-2.7,0.1-5.4,0.5-7.8
	l-0.1-0.1c-2.2,5.1-7.6,8.7-14.3,8.7c-8.1,0-12.8-4.7-12.8-12c0-10.9,10.6-16.7,25.8-16.7v-2.5c0-4.8-2.2-7.2-8.7-7.2
	c-4,0-9.4,1.4-13.2,3.6l-1-9.8c4.5-1.7,10.2-2.8,16-2.8c14.4,0,18.4,5.9,18.4,15.9l0.4,30.7L110.7,152.3z"></path>
<path d="M477.5,132c-12.1,0-14.8,3.6-14.8,7.3c0,2.9,2,4.9,5.3,4.9c5.7,0,9.5-5.5,9.5-11V132z M478.3,152.3c0-2.7,0.1-5.4,0.5-7.8
	l-0.1-0.1c-2.1,5.1-7.6,8.7-14.3,8.7c-8.1,0-12.8-4.7-12.8-12c0-10.9,10.6-16.7,25.8-16.7v-2.5c0-4.8-2.3-7.2-8.7-7.2
	c-4.1,0-9.4,1.4-13.2,3.6l-1-9.8c4.5-1.7,10.2-2.8,16-2.8c14.4,0,18.4,5.9,18.4,15.9l0.4,30.7L478.3,152.3z"></path>
<path d="M191.4,153.1c-12.4,0-20.1-6.6-20.1-22.2c0-14.2,7.3-25.2,23.1-25.2c3.1,0,6.3,0.5,9.2,1.3l-1.2,10.2
	c-2.4-0.9-5.2-1.7-8.1-1.7c-7.3,0-11,5.5-11,14.1c0,7.8,3,13.2,10.6,13.2c3.1,0,6.4-0.7,8.8-1.9l0.9,10
	C200.5,152.1,196.1,153.1,191.4,153.1"></path>
<path d="M228.3,115.6c-5.1,0-10.1,4.1-10.1,13.4c0,9.4,3.3,14.1,10,14.1c5.7,0,10-4.7,10-13.9C238.1,120.4,235,115.6,228.3,115.6
	 M227.1,153.1c-12.7,0-20.8-6.7-20.8-22.9c0-14.2,9.3-24.6,22.8-24.6c12.7,0,20.8,7.2,20.8,22.9C250,142.9,240.5,153.1,227.1,153.1"></path>
<path d="M293.1,115.6c-5.1,0-10.2,4.1-10.2,13.4c0,9.4,3.3,14.1,10,14.1c5.6,0,10-4.7,10-13.9C302.9,120.4,299.8,115.6,293.1,115.6
	 M291.9,153.1c-12.7,0-20.8-6.7-20.8-22.9c0-14.2,9.3-24.6,22.8-24.6c12.7,0,20.8,7.2,20.8,22.9
	C314.7,142.9,305.3,153.1,291.9,153.1"></path>
<path d="M441.7,100.7c-3.9,0-7.1-3.2-7.1-7.2c0-3.9,3.2-7.1,7.1-7.1c4,0,7.2,3.1,7.2,7.1C448.9,97.5,445.6,100.7,441.7,100.7
	 M447.4,152.2h-12.2v-45.5c5.7-0.7,5.6-0.5,12.2-0.3V152.2z"></path>
<path d="M153.5,105.6c10.1,0,13.3,6.6,13.3,14.6v32.1h-11.4V123c0-4.8-1.3-7.6-5.5-7.6c-5.8,0-10.4,6.8-10.4,14.8v22h-11.6V109
	c3-1.3,6.6-2.1,10.6-2.5l-0.3,8.2l0.1,0.1C141.1,109.3,146.3,105.6,153.5,105.6"></path>
<path d="M255,91c3.1-1.4,6.9-2.3,11.1-2.7v63.9H255V91"></path>
<path d="M408.3,144.2c-2.3,0-4.1-0.3-5.7-0.8v-12.3c0-7.3,3.4-14,9.1-14c5,0,7.3,4.1,7.3,12.2C418.9,140.1,414.5,144.2,408.3,144.2
	 M414.8,107.9c-6,0-10.7,3-12.8,7.7h-0.1c0.4-2.3,0.7-5.9,0.7-8.5V88.3c-4.2,0.4-8,1.3-11.1,2.8V151c4.9,1.4,9.8,2.1,16,2.1
	c14.6,0,23-10.2,23-24.9C430.5,115.4,425,107.9,414.8,107.9"></path>
<path d="M371.9,105.6c8.6,0,13.4,4.9,13.4,15.2v31.4h-11.5v-28.9c0-4.9-1.1-7.9-5.3-7.9c-5,0-10.2,6.1-10.2,15v21.9h-11.3v-28.9
	c0-4.5-0.9-7.9-5.3-7.9c-5.3,0-10.2,6.4-10.2,15v21.9h-11.5v-43c3.1-1.4,6.7-2.3,10.9-2.7c0,2.3-0.2,5.8-0.5,8.2h0.1
	c2.7-5.6,8.1-9.2,14.7-9.2c7.9,0,11.2,4.8,12.3,9.2C359.4,110.2,364.4,105.6,371.9,105.6"></path>
<path d="M569.1,91.6c0.6,2.2,0.4,4.2-2.2,5.2c-3.1,1.3-5.4,2.1-9.2,3.6c-2,0.7-3.8,1.5-6,2.3c-2.1,0.8-4.3,1.7-6.6,2.5
	c-9.4,3.6-20.1,7.6-33.5,12.6c-2.9,1-5.8-0.5-6.8-3.6c-2.2-7-4.7-13.8-7.1-20.1c-1-2.9,0.5-5.5,3.3-6.4c6.8-1.9,12.8-3.4,18.7-4.8
	c5.8-1.4,11-2.7,15.9-3.7c9.9-2.2,16.2-3.6,22.9-4.8c3.3-0.6,4.4,0.8,5.3,2.9C565.8,82,567.5,86.7,569.1,91.6"></path>
<path d="M567.5,65.4c0.9,2.2,0,3.5-2,3.8c-8.9,1.6-17.5,2.7-34,6.3c-8.3,1.8-17.4,3.9-28,6.7c-10.6,2.9-21.9,6.4-32.7,10.5
	c-3.1,1.2-6.1,0-6.8-2.5c-1.5-5.9-2.8-11.1-4-16.2c-0.5-2.2,1.2-4.8,4.1-5.9c4.8-1.9,9.6-3.6,14.8-5.2c4.9-1.7,9.8-2.9,14.7-4.2
	c9.8-2.4,18.7-4.1,27-5.4c16.6-2.4,27.6-3.2,37-3c3.4,0.1,4.2,1.1,5.2,3L567.5,65.4z"></path>
<path d="M555.8,42.7c1,1.6,0.1,2.8-1.3,2.8c-5.9,0.1-16.4,0.4-28.6,1.9c-6.1,0.8-12.5,1.7-19.6,3.2c-7.1,1.4-14.5,3.1-22.1,5.4
	c-2.6,0.8-5,0.8-6-2c-1.5-4.2-2.5-7.3-3.8-10.9c-0.9-2.7,0.5-4,2.8-4.7c6.9-2,13.5-3.5,20-4.8c6.6-1.2,12.6-2.1,18.5-2.6
	c11.7-1.2,25.7-1.4,31.7-0.4c1.6,0.3,2.9,0.4,4.2,2.6L555.8,42.7z"></path>
</svg>
