<?xml version="1.0"?>

<!-- Generator: Adobe Illustrator 19.1.0, SVG Export Plug-In . SVG Version: 6.00 Build 0)  -->
<svg version="1.1" id="Layer_1" xmlns="http://www.w3.org/2000/svg" xmlns:xlink="http://www.w3.org/1999/xlink" x="0px" y="0px" width="600px" height="200px" viewBox="0 0 600 200" enable-background="new 0 0 600 200" xml:space="preserve">
<path fill="#231F20" d="M108.726,167.977v12.436v1.428c0,1.03,0.252,1.806,0.759,2.33c0.505,0.526,1.256,0.786,2.252,0.786
	c1.471,0,2.829-0.339,4.073-1.015c1.241-0.679,2.196-1.659,2.858-2.947c0.664-1.288,0.993-2.724,0.993-4.306
	c0-1.812-0.369-3.439-1.105-4.88c-0.738-1.441-1.836-2.444-3.294-3.011C113.802,168.232,111.623,167.956,108.726,167.977
	L108.726,167.977z M108.726,165.837c2.69,0,4.675-0.308,5.952-0.926c1.279-0.617,2.259-1.488,2.942-2.606
	c0.682-1.122,1.022-2.55,1.022-4.286c0-1.737-0.336-3.161-1.009-4.272c-0.673-1.111-1.633-1.953-2.883-2.535
	c-1.251-0.578-3.258-0.857-6.023-0.839L108.726,165.837L108.726,165.837z M118.974,166.577c3.655,0.857,6.222,1.894,7.698,3.109
	c2.121,1.735,3.182,3.977,3.182,6.738c0,2.91-1.158,5.316-3.475,7.219c-2.842,2.304-6.977,3.454-12.397,3.454h-19.46v-1.036
	c1.789,0,3.003-0.168,3.64-0.503c0.638-0.338,1.085-0.776,1.342-1.314c0.257-0.536,0.386-1.864,0.386-3.979v-25.198
	c0-2.115-0.129-3.446-0.386-3.994s-0.708-0.986-1.357-1.314c-0.647-0.326-1.856-0.488-3.625-0.488v-1.036h18.349
	c4.386,0,7.489,0.399,9.316,1.195c1.825,0.796,3.264,1.988,4.319,3.57c1.053,1.584,1.581,3.271,1.581,5.055
	c0,1.883-0.671,3.556-2.017,5.027C124.726,164.549,122.361,165.714,118.974,166.577L118.974,166.577z"></path>
<path fill="#231F20" d="M152.927,174.929l-4.919-11.543l-5.064,11.543H152.927L152.927,174.929z M153.715,176.778h-11.583
	l-1.432,3.264c-0.453,1.092-0.679,1.994-0.679,2.705c0,0.943,0.371,1.638,1.113,2.086c0.436,0.265,1.508,0.462,3.217,0.595v0.894
	h-10.91v-0.894c1.176-0.181,2.145-0.683,2.902-1.501c0.759-0.819,1.695-2.509,2.807-5.072l11.749-26.77h0.458l11.825,27.512
	c1.128,2.613,2.054,4.259,2.781,4.938c0.548,0.513,1.324,0.81,2.323,0.893v0.894h-15.805v-0.894h0.655
	c1.273,0,2.168-0.183,2.684-0.55c0.356-0.267,0.533-0.649,0.533-1.15c0-0.3-0.048-0.607-0.146-0.925
	c-0.032-0.149-0.274-0.773-0.725-1.873L153.715,176.778L153.715,176.778z"></path>
<path fill="#231F20" d="M181.188,152.741l16.138,20.673v-14.291c0-2.019-0.281-3.385-0.842-4.098
	c-0.77-0.959-2.064-1.422-3.879-1.39v-0.894h10.841v0.894c-1.389,0.183-2.321,0.419-2.798,0.708
	c-0.477,0.289-0.848,0.762-1.115,1.415c-0.267,0.654-0.399,1.775-0.399,3.365v27.974h-0.831l-22.133-27.868v21.247
	c0,1.94,0.438,3.251,1.318,3.931c0.88,0.68,1.887,1.02,3.021,1.02h0.788v0.894h-11.715v-0.894c1.806-0.017,3.064-0.397,3.773-1.145
	c0.71-0.746,1.066-2.015,1.066-3.806v-23.552l-0.775-0.978c-0.693-0.925-1.307-1.532-1.84-1.823
	c-0.531-0.291-1.297-0.453-2.296-0.488v-0.894L181.188,152.741L181.188,152.741z"></path>
<path fill="#231F20" d="M237.751,151.965v11.631h-0.934c-0.708-3.042-2.032-5.374-3.965-6.994c-1.935-1.62-4.129-2.43-6.578-2.43
	c-2.046,0-3.926,0.603-5.635,1.81c-1.707,1.208-2.958,2.787-3.747,4.736c-1.016,2.496-1.525,5.274-1.525,8.332
	c0,3.008,0.371,5.748,1.111,8.22c0.74,2.471,1.899,4.339,3.476,5.605c1.577,1.264,3.62,1.896,6.131,1.896
	c2.062,0,3.948-0.462,5.661-1.389c1.715-0.924,3.521-2.518,5.421-4.781v2.897c-1.838,1.966-3.752,3.39-5.745,4.274
	c-1.991,0.884-4.315,1.325-6.975,1.325c-3.499,0-6.606-0.717-9.322-2.156c-2.716-1.436-4.813-3.501-6.287-6.192
	c-1.476-2.692-2.213-5.559-2.213-8.597c0-3.206,0.818-6.244,2.457-9.118c1.639-2.875,3.849-5.104,6.636-6.69
	c2.783-1.586,5.741-2.379,8.873-2.379c2.308,0,4.746,0.517,7.311,1.547c1.486,0.599,2.43,0.898,2.833,0.898
	c0.516,0,0.964-0.195,1.344-0.587c0.378-0.39,0.626-1.01,0.738-1.858L237.751,151.965L237.751,151.965z"></path>
<path fill="#231F20" d="M259.815,153.872c-3.01,0-5.299,1.57-6.871,4.705c-1.277,2.576-1.916,6.274-1.916,11.094
	c0,5.73,0.988,9.965,2.962,12.705c1.376,1.915,3.299,2.871,5.776,2.871c1.667,0,3.059-0.41,4.175-1.237
	c1.422-1.055,2.531-2.744,3.323-5.062c0.792-2.319,1.189-5.346,1.189-9.078c0-4.44-0.405-7.762-1.214-9.965
	s-1.839-3.761-3.094-4.667C262.892,154.326,261.448,153.872,259.815,153.872L259.815,153.872z M259.522,152.261
	c5.238-0.198,9.493,1.365,12.767,4.683c3.273,3.321,4.91,7.474,4.91,12.462c0,4.262-1.221,8.011-3.661,11.248
	c-3.234,4.295-7.801,6.442-13.698,6.442c-5.916,0-10.49-2.047-13.723-6.144c-2.554-3.236-3.83-7.076-3.83-11.519
	c0-4.988,1.659-9.147,4.982-12.474C250.59,153.63,254.674,152.063,259.522,152.261L259.522,152.261z"></path>
<path fill="#231F20" d="M315.003,173.308l-5.778-13.972l-5.951,13.972H315.003L315.003,173.308z M315.934,175.546h-13.611
	l-1.685,3.95c-0.53,1.324-0.796,2.414-0.796,3.275c0,1.141,0.436,1.981,1.306,2.524c0.513,0.321,1.773,0.559,3.782,0.72v1.082
	h-12.819v-1.082c1.383-0.219,2.52-0.826,3.409-1.816c0.889-0.992,1.989-3.036,3.301-6.14l13.801-32.401h0.538l13.896,33.3
	c1.324,3.163,2.413,5.156,3.268,5.976c0.643,0.62,1.553,0.982,2.728,1.081v1.082h-18.569v-1.082h0.768
	c1.497,0,2.546-0.222,3.153-0.666c0.416-0.323,0.628-0.785,0.628-1.392c0-0.364-0.058-0.735-0.173-1.118
	c-0.039-0.181-0.321-0.936-0.852-2.269L315.934,175.546L315.934,175.546z"></path>
<path fill="#231F20" d="M365.46,151.331l-19.325,32.972h6.252c2.956,0,5.025-0.196,6.205-0.59c1.922-0.616,3.579-1.747,4.968-3.397
	c1.388-1.65,2.35-3.862,2.883-6.631h0.947l-1.334,12.604h-30.133l19.365-33.033h-4.883c-1.892,0-3.139,0.06-3.74,0.181
	c-1.133,0.222-2.196,0.666-3.193,1.327c-0.997,0.662-1.821,1.54-2.477,2.639c-0.654,1.102-1.171,2.492-1.54,4.177h-0.9l0.878-10.25
	h26.027V151.331z"></path>
<path fill="#231F20" d="M399.612,151.331v9.439h-0.878c-0.516-2.184-1.091-3.752-1.72-4.707c-0.633-0.955-1.497-1.715-2.595-2.281
	c-0.617-0.31-1.691-0.464-3.23-0.464h-2.455v27.011c0,1.789,0.089,2.906,0.276,3.354c0.183,0.447,0.543,0.839,1.078,1.174
	c0.533,0.336,1.264,0.501,2.192,0.501h1.075v0.932h-17.137v-0.932h1.083c0.944,0,1.709-0.181,2.285-0.541
	c0.417-0.241,0.746-0.653,0.988-1.238c0.177-0.412,0.265-1.496,0.265-3.251v-27.011h-2.456c-2.231,0-3.851,0.499-4.859,1.496
	c-1.417,1.392-2.313,3.376-2.688,5.955h-0.876v-9.439h29.652V151.331z"></path>
<path fill="#231F20" d="M414.933,153.318V167.6h0.662c2.116,0,3.648-0.697,4.599-2.089c0.948-1.394,1.552-3.45,1.815-6.17h0.88
	v18.317h-0.88c-0.198-1.996-0.61-3.63-1.239-4.906c-0.632-1.273-1.366-2.13-2.201-2.569c-0.835-0.44-2.046-0.658-3.635-0.658v9.841
	c0,1.922,0.074,3.1,0.231,3.529c0.153,0.43,0.44,0.783,0.861,1.055c0.427,0.275,1.103,0.413,2.045,0.413h1.971
	c3.082,0,5.555-0.756,7.412-2.272c1.856-1.514,3.19-3.816,4.002-6.91h0.907l-1.483,11.107h-28.465v-0.932h1.087
	c0.953,0,1.721-0.181,2.3-0.541c0.419-0.241,0.742-0.653,0.967-1.238c0.177-0.412,0.267-1.496,0.267-3.251v-23.037
	c0-1.581-0.039-2.554-0.119-2.915c-0.16-0.601-0.463-1.065-0.897-1.393c-0.613-0.48-1.452-0.721-2.518-0.721h-1.087v-0.932h27.549
	v10.246h-0.875c-0.472-2.505-1.134-4.304-1.983-5.395c-0.854-1.09-2.056-1.892-3.613-2.404c-0.908-0.307-2.613-0.46-5.109-0.46
	h-3.451V153.318z"></path>
<path fill="#231F20" d="M467.802,150.524v12.108h-0.934c-0.712-3.167-2.041-5.594-3.981-7.281c-1.94-1.687-4.142-2.53-6.599-2.53
	c-2.052,0-3.942,0.628-5.655,1.883c-1.715,1.258-2.969,2.902-3.761,4.932c-1.02,2.599-1.528,5.489-1.528,8.673
	c0,3.132,0.369,5.984,1.114,8.558c0.742,2.572,1.903,4.516,3.487,5.834c1.584,1.317,3.637,1.974,6.154,1.974
	c2.069,0,3.96-0.481,5.683-1.446c1.717-0.961,3.529-2.621,5.437-4.976v3.016c-1.845,2.046-3.763,3.528-5.763,4.449
	c-1.998,0.919-4.334,1.379-7.001,1.379c-3.51,0-6.628-0.747-9.356-2.244c-2.723-1.495-4.829-3.644-6.309-6.447
	c-1.48-2.802-2.218-5.786-2.218-8.949c0-3.337,0.82-6.5,2.465-9.492c1.643-2.994,3.86-5.314,6.657-6.965
	c2.792-1.652,5.759-2.475,8.902-2.475c2.315,0,4.765,0.536,7.341,1.61c1.489,0.622,2.436,0.936,2.842,0.936
	c0.517,0,0.967-0.203,1.35-0.612c0.378-0.406,0.626-1.051,0.739-1.934L467.802,150.524L467.802,150.524z"></path>
<path fill="#231F20" d="M490.386,174.43l-4.936-12.017l-5.083,12.017H490.386L490.386,174.43z M491.18,176.355h-11.628l-1.435,3.398
	c-0.453,1.137-0.68,2.076-0.68,2.814c0,0.982,0.371,1.705,1.118,2.172c0.437,0.276,1.51,0.481,3.227,0.619v0.932h-10.947v-0.932
	c1.18-0.189,2.151-0.71,2.912-1.562c0.762-0.852,1.7-2.611,2.818-5.279l11.79-27.869h0.461l11.866,28.64
	c1.129,2.72,2.063,4.434,2.79,5.141c0.552,0.533,1.329,0.842,2.33,0.928v0.932h-15.859v-0.932h0.655c1.277,0,2.177-0.19,2.695-0.572
	c0.356-0.278,0.536-0.675,0.536-1.197c0-0.313-0.05-0.634-0.147-0.962c-0.034-0.156-0.278-0.807-0.729-1.951L491.18,176.355
	L491.18,176.355z"></path>
<path fill="#231F20" d="M403.521,108.606c-7.296,39.447-71.187,31.08-71.187,31.08c12.6-1.821,21.118-5.801,26.881-10.394
	c12.467-9.937,12.015-22.741,12.015-22.741c-1.643-42.826-41.113-67.287-74.625-80.386c-33.41,13.142-72.526,37.575-74.165,80.205
	c0,0-0.447,12.804,12.017,22.741c5.762,4.593,14.282,8.573,26.881,10.394c0,0-63.89,8.367-71.187-31.08
	c-0.904-4.88-0.939-10.491,0.117-16.94c0,0,5.745-20.575,30.694-40.724c7.065-5.706,15.671-11.378,26.12-16.538
	c10.044-4.961,21.798-9.446,35.523-13.039c-18.677-6.03-32.866-8.272-32.866-8.272c17.403,0.628,32.882,2.441,46.643,5.116
	c13.988-2.773,29.761-4.655,47.55-5.297c0,0-14.503,2.293-33.488,8.474c13.991,3.619,25.95,8.164,36.144,13.199
	c10.454,5.16,19.058,10.832,26.124,16.538c24.948,20.149,30.694,40.724,30.694,40.724
	C404.461,98.115,404.423,103.726,403.521,108.606z"></path>
<path fill="#231F20" d="M270.404,118.374c6.261,6.261,14.88,10.163,24.409,10.265c4.822,0.071,9.669-0.898,14.101-2.785
	c4.163-1.773,7.913-4.328,11.069-7.48c2.384-2.384,4.423-5.109,6.045-8.097c1.325-2.446,2.369-5.064,3.088-7.817
	c0.739-2.833,1.134-5.809,1.134-8.875c0-9.68-3.926-18.444-10.267-24.788c-3.156-3.152-6.906-5.707-11.069-7.48
	c-4.451-1.896-9.264-2.82-14.101-2.785c-9.529,0.101-18.148,4.004-24.409,10.265c-6.343,6.344-10.267,15.108-10.267,24.788
	c0,3.066,0.393,6.041,1.131,8.875c0.717,2.753,1.763,5.372,3.089,7.817C265.979,113.265,268.02,115.99,270.404,118.374
	L270.404,118.374z"></path>
</svg>
