<?xml version="1.0"?>

<svg xmlns:dc="http://purl.org/dc/elements/1.1/" xmlns:cc="http://creativecommons.org/ns#" xmlns:rdf="http://www.w3.org/1999/02/22-rdf-syntax-ns#" xmlns:svg="http://www.w3.org/2000/svg" xmlns="http://www.w3.org/2000/svg" id="svg60" xml:space="preserve" enable-background="new -0.407 -0.044 205 26" height="139.8" width="799.4" version="1.1" viewBox="0 0 799.4 139.8"><defs id="defs2"></defs><path d="m 699.4,115 h -0.7 l -1.1,-2.1 h -0.8 v 2.1 h -0.7 v -4.5 h 1.9 c 0.3,0 0.7,0 1.1,0.4 0.3,0.4 0.3,0.6 0.3,0.9 0,0.9 -0.3,1.2 -1.1,1.3 z m -1.8,-2.6 c 0.4,0 1.5,0 1.5,-0.7 0,-0.6 -0.8,-0.7 -1.1,-0.7 h -1.2 v 1.4 z m -4.1,0.3 c 0,-2.2 1.9,-3.9 4.1,-3.9 2.2,0 4.1,1.7 4.1,3.9 0,2.2 -1.9,4 -4.1,4 -2.2,0 -4.1,-1.8 -4.1,-4 m 0.8,0 c 0,1.8 1.4,3.2 3.3,3.2 1.8,0 3.3,-1.4 3.3,-3.2 0,-1.7 -1.5,-3.2 -3.3,-3.2 -1.9,0 -3.3,1.5 -3.3,3.2 m 40.8,-74.34 c -37.5,9.97 -73.1,26.08 -105,47.27 7,3.52 14.1,7.31 21.1,11.35 C 682.8,75.28 717.3,58.4 754.4,47.27 748,44.1 741.7,41.12 735.1,38.36 m 25.2,11.85 C 723.9,62.44 689.8,79.84 659,101.6 c 7.8,4.7 15.2,9.7 22.6,15 29,-22.92 61.3,-42.07 95.8,-56.61 -5.6,-3.44 -11.5,-6.69 -17.1,-9.78 M 723.2,37.78 C 708.7,31.48 693.9,26.2 678.3,22 c -4.8,1.01 -9.6,2.13 -14.5,3.36 15.2,4.43 30.1,10.04 44.2,16.72 5.2,-1.54 10,-2.97 15.2,-4.3 m -23,6.87 C 686.1,37.82 671.3,32.07 656,27.47 c -5.2,1.53 -10.3,3.2 -15.5,5.01 15.5,4.6 30.4,10.42 45.2,17.38 4.5,-1.83 9.7,-3.57 14.5,-5.21 m -58.3,-6.58 c -18.1,5.7 -35.2,13.14 -51.5,22.18 5.2,1.89 10.4,3.89 15.2,6.08 15.9,-9.37 33,-17.24 50.4,-23.49 -4.8,-1.7 -9.2,-3.29 -14.1,-4.77 m 20.4,7.28 c 5.6,2.2 11.2,4.56 16.7,7.08 -17.4,7.04 -34.1,15.35 -50,24.89 -5.2,-2.82 -10.8,-5.49 -16.4,-8.02 16,-9.28 32.7,-17.3 49.7,-23.95 M 387.7,72.31 c -5.9,0 -10.1,3.15 -12.5,5.82 v 0 c -1.3,-3.34 -4.2,-5.82 -8.5,-5.82 -5.2,0 -9.6,2.71 -12.5,5.49 v 0 -4.45 h -13.7 v 43.45 h 13.7 V 85.81 c 1.2,-1.59 3.3,-2.67 4.8,-2.67 2.6,0 3.3,1.56 3.3,3.9 v 29.76 h 13.8 V 85.81 c 0.9,-1.19 2.9,-2.67 4.8,-2.67 2.6,0 3.3,1.56 3.3,3.9 v 29.76 h 13.6 V 82.18 c 0,-6.01 -4.1,-9.87 -9.7,-9.87 m 72.8,6.94 h -0.4 v -5.9 h -13.7 v 43.45 h 14.1 V 88.71 c 1.8,-2.01 4.1,-3.38 7.8,-3.38 2.6,0 4.1,0.56 5.9,1.19 V 72.31 c -5.5,0 -10.7,2.33 -13.7,6.94 M 301.8,55.13 287.3,116.8 h 13.5 l 2.7,-12.4 h 14.3 l 2.4,12.4 h 15.2 L 322.2,55.13 Z m 3.9,38.32 5.2,-25.15 h 0.4 l 4.4,25.15 z M 519.5,81.03 c 2.2,0 3.4,1.22 4.1,2.96 0.7,1.64 0.7,3.71 0.7,5.46 h 11.9 c 0,-4.34 -2.2,-17.25 -17.1,-17.25 -13.3,0 -20,11.87 -20,23.78 0,10.72 6.7,21.82 19.3,21.82 10.4,0 16.3,-5.6 17.4,-16.2 l -10.7,-1.5 c 0,3.3 -0.8,8.3 -5.6,8.3 -3.7,0 -5.2,-3.2 -5.2,-12.98 0,-8.64 0.4,-14.39 5.2,-14.39 m -40.4,-25.9 h 14 v 12.49 h -14 z m 0,18.22 h 14 v 43.45 h -14 z m -56,-1.15 c -13,0 -19.3,10.38 -19.3,22.74 0,11.96 5.9,22.86 19.3,22.86 12.6,0 17,-9.9 17.4,-11.9 l -9.3,-3.5 c -0.7,3.5 -3.7,6 -7,6 -5.6,0 -6.7,-6.5 -6.7,-10.27 h 23.7 v -2.97 c 0,-11.35 -4.8,-22.96 -18.1,-22.96 m 5.1,17.58 h -10.7 c 0,-4.08 1.5,-8.75 5.6,-8.75 4.8,0 5.1,4.71 5.1,8.75 M 576.3,109.8 V 85.59 c 0,-9.65 -8.9,-13.28 -17.5,-13.28 -7.8,0 -15.5,3.45 -17,12.06 l 12.2,2.52 c 0,-2.56 1.1,-5.72 4.5,-5.72 2.6,0 3.7,1.71 3.7,4.31 v 3.75 c -9.3,1.07 -22.3,4.41 -22.7,15.67 0,8 5.2,12.8 12.3,12.8 4.1,0 8.2,-2.3 10.7,-4.8 0,0.7 0,2.7 0.4,3.9 h 14.5 c -0.4,-0.6 -1.1,-2.1 -1.1,-7 m -14.1,-4.1 c -1.1,1.6 -3,2.7 -4.5,2.7 -2.6,0 -4.1,-1.5 -4.1,-4.6 0,-5.49 3.8,-7.34 8.6,-7.82 z M 54.5,84.77 v -0.48 c 4.4,-1.74 10.1,-6.01 10.1,-14.06 0,-8.54 -7.3,-15.1 -18.2,-15.1 H 22 V 116.8 H 45.8 C 57.5,116.8 66,110.9 66,100.3 66,92.45 61.1,86.96 54.5,84.77 M 37.2,66.07 h 5.4 c 3.6,0 7.6,0.93 7.6,6.83 0,3.67 -2.3,6.68 -7.9,6.68 h -5.1 z m 5.7,39.33 H 37.2 V 90 h 5.7 c 5,0 7.9,3.05 7.9,7.65 0,6.25 -4.5,7.75 -7.9,7.75 m 115.8,11.4 h 14.1 v -15.6 l 2.9,-3.33 v 0 l 6.9,18.93 h 14.6 L 185.4,86.74 197.1,73.35 h -14 l -10.3,13.17 v 0 -31.39 h -14 z M 140.3,72.31 c -5.4,0 -9.3,2.52 -12.2,5.49 h -0.4 V 73.35 H 113.9 V 116.8 H 128 V 85.74 c 1.3,-1.63 3,-2.71 4.6,-2.71 2.3,0 3.2,1.37 3.2,3.86 v 29.91 h 14 V 82.44 c 0,-5.98 -3.5,-10.13 -9.6,-10.13 m -34.3,13.28 c 0,-9.65 -8.8,-13.28 -17.2,-13.28 -8,0 -15.8,3.45 -17.4,12.06 l 12.3,2.52 c 0,-2.56 1.2,-5.72 4.6,-5.72 2.4,0 3.6,1.71 3.6,4.31 v 3.75 c -9.3,1.07 -22.1,4.41 -22.3,15.67 -0.4,8 5.1,12.8 12,12.8 4.2,0 8.4,-2.3 10.8,-4.8 0,0.7 0,2.7 0.4,3.9 h 14.5 c -0.5,-0.6 -1.4,-2.1 -1.4,-7 V 85.59 Z M 91.8,105.7 c -1.2,1.6 -2.9,2.7 -4.5,2.7 -2.5,0 -4.1,-1.5 -4.1,-4.6 0,-5.49 3.7,-7.34 8.6,-7.82 z M 255.7,68.49 v 4.86 h -5.8 v 9.9 h 5.8 v 33.55 h 14 V 83.25 h 7.7 v -9.9 h -7.7 v -4.42 c 0,-2.64 1.3,-4.08 5,-4.08 0.8,0 1.8,0 2.7,0.37 V 54.44 c -2.3,-0.26 -4.4,-0.53 -7.2,-0.53 -9.2,0 -14.5,3.9 -14.5,14.58 M 227,72.2 c -13.1,0 -19.6,9.64 -19.6,22.63 0,13.47 6.3,22.97 19.6,22.97 13.4,0 19.6,-9.5 19.6,-22.97 0,-12.99 -6.5,-22.63 -19.6,-22.63 m 0,36.7 c -3.5,0 -5,-3.1 -5,-14.07 0,-10.06 1,-13.8 5,-13.8 4,0 5,3.74 5,13.8 0,10.97 -1.5,14.07 -5,14.07" id="path46"></path><metadata id="metadata4370"><rdf:rdf><cc:work rdf:about=""><dc:title></dc:title></cc:work></rdf:rdf></metadata></svg>