<?xml version="1.0"?>

<svg xmlns="http://www.w3.org/2000/svg" viewBox="0 0 1762 331.07" height="331.07" width="1762">
 <path d="m 922.52,35 v 79.17 h -80.03 v 104.34 h 52.84 c 0.86,-0.73 1.06,-1.79 1.06,-2.48 l -3.28,-42.39 c -0.1,-1.07 -0.73,-1.2 -1.35,-0.47 L 879.51,186 c -0.86,0.87 -2.4,-0.56 -1.93,-1.69 l 13.92,-27.2 c 0.71,-1.5 3.95,-4.22 5.49,-4.68 l 10.16,-2.52 c 1.68,-0.46 2.95,-1.18 3.71,-1.72 l 9.66,-8.59 c 1.7,-1.19 1.8,-1.47 2.4,-4.17 l 7.3,-52.27 c 0.7,-4.43 2.6,-6.02 6.3,-7.05 3,-0.83 7.4,-1.68 15.4,-2.04 0,0 4.5,0.1 6.7,0.14 6.3,0.15 7.8,5.13 8.1,6.79 0.3,1.65 7,47.27 7,47.27 0.3,1.32 0.8,0.46 1,-0.1 0.1,-0.52 0.9,-4.63 1,-5.36 0,0 5.6,-23.32 6.3,-26.45 0.9,-3.91 4.3,-5.54 6.6,-5.8 1.9,-0.19 11.38,-0.81 13.78,-0.76 2.4,0.1 5.5,1.55 7,5.03 l 17.6,43.07 c 0.7,1.42 1.9,1.04 2.7,1.11 l 15.9,0.77 c 0.9,0.1 2.5,0 3.3,0.34 l 15.2,3.14 c 0.8,0.25 3.1,1.24 4,4 l 4.2,13.84 c 1.5,3.64 1.6,4.16 1.2,8.27 l -1.1,14.33 c -0.2,3.88 -1.6,3.88 -1.8,0.15 l -2.5,-14.77 c -0.2,-1.11 -0.5,-0.58 -0.5,0 v 49.42 h 35.3 V 114.17 h -79.5 V 35 Z m 25.9,10.51 c 6,0 9.1,7.25 9.1,11.67 0,4.06 -2.5,12.96 -8.4,12.96 -5.9,0 -9.2,-8.1 -9.2,-12.56 0,-5.9 3.4,-12.07 8.5,-12.07 z m 46,20.86 c 4.5,0 7.88,5.1 7.88,12.44 0,4.2 -3.98,9.17 -6.98,9.17 h -0.1 c -3,0 -8.1,-3.38 -8.1,-11.14 0,-4.46 2.7,-10.47 7.3,-10.47 z m 188.28,13.44 v 138.44 h 21 v -60.47 h 56.2 v 60.47 h 21 V 79.81 h -21 v 59.11 h -56.2 V 79.81 Z m 339.3,0 v 111.22 c 0,14.58 8.1,27.22 27,27.22 h 12.2 v -16.92 h -8.7 c -8,0 -10.7,-3.89 -10.7,-11.47 V 79.81 Z m 127.5,0 v 138.44 h 19.8 v -60.47 c 0,-14.78 9,-21.58 20.1,-21.58 11,0 19.8,6.61 19.8,21.58 v 60.47 h 19.8 v -63.58 c 0,-21.39 -12.2,-36.16 -34.2,-36.16 -9.7,0 -18.7,3.68 -25.5,11.07 V 79.81 Z M 33,80.16 V 218.6 h 56 c 24.5,0 41.79,-13.61 41.79,-39.1 0,-17.49 -10.1,-27.79 -20.8,-32.07 9.34,-3.69 18.67,-14.39 18.67,-29.36 0,-23.32 -16.14,-37.91 -41.8,-37.91 z m 1552.4,11.31 v 29.95 h -11.3 v 15.17 h 11.3 v 54.25 c 0,14.19 8.5,27.41 27,27.41 h 11.8 v -16.92 h -8.1 c -7.4,0 -10.9,-4.27 -10.9,-11.47 v -53.27 h 19 v -15.17 h -19 V 91.47 Z M 451.03,91.82 v 29.95 h -11.27 v 15.17 h 11.27 v 54.25 c 0,14.19 8.56,27.41 27.03,27.41 h 11.86 v -16.92 h -8.16 c -7.39,0 -10.89,-4.27 -10.89,-11.47 v -53.27 h 19.05 V 121.77 H 470.87 V 91.82 Z m 168.55,0 v 29.95 h -11.27 v 15.17 h 11.27 v 54.25 c 0,14.19 8.56,27.41 27.03,27.41 h 11.86 v -16.92 h -8.16 c -7.39,0 -10.89,-4.27 -10.89,-11.47 v -53.27 h 19.05 V 121.77 H 639.42 V 91.82 Z M 54,99.02 h 31.11 c 13.41,0 22.56,7 22.56,19.84 0,12.83 -9.14,19.83 -22.56,19.83 H 54 Z m 908.92,6.14 c -0.3,0 -0.4,1.46 -0.3,2.46 l 4,121.38 h -5.9 l -10,-82.58 c -0.5,-3.42 -1.3,-1.83 -1.3,-0.27 l -6.6,71.25 -0.2,1.91 -5.5,-0.27 -2.2,-108.14 c -0.1,-2.24 -0.6,-1.83 -1.1,-0.25 l -8,29.74 c -0.5,1.61 -1.6,3.41 -2.3,4.34 l -9.5,11.79 c -1.3,1.43 -1.2,2.72 -0.8,4.44 l 8.6,57.54 h 0.4 v 18.73 h 101.18 v -8.24 -10.49 h 24 l -3.1,-68.04 c 0,-2.09 -1,-2.75 -2,-3.13 l -16.1,-4.98 c -2.3,-0.51 -3.5,-2.64 -4.1,-3.93 0,0 -11.2,-23.87 -11.9,-22.93 -0.5,0.69 -0.6,53.73 -0.6,53.73 l -1.6,48.26 v 1.29 l -3.1,0.13 -0.2,-1.39 c -0.9,-7.59 -5.08,-44.32 -5.58,-47.5 -0.5,-3.57 -1.5,-4.79 -1.8,0.27 -0.3,5.03 -3,58.72 -3,58.72 h -3.6 l -4.8,-58.47 c 0,0 -0.6,-53.9 -1.1,-54.68 -1,-1.3 -11.7,26.89 -11.7,26.89 -0.7,1.19 -1.4,0.79 -1.7,0 l -8.1,-36.43 c -0.2,-0.82 -0.3,-1.14 -0.4,-1.15 z m 388.48,13.34 c -25.2,0 -41.8,18.47 -41.8,50.35 0,37.53 19.7,50.56 44.4,50.56 17.3,0 26.8,-5.25 36.9,-15.36 l -12.6,-11.86 c -7,7 -12.9,10.11 -23.9,10.11 -16.2,0 -25.1,-10.69 -25.1,-27.61 v 0 h 63.9 v -8.74 c 0,-28 -15.3,-47.44 -41.8,-47.44 z m 100,0 c -16.3,0 -26.1,3.31 -35.4,14.2 l 13,12.25 c 5.5,-7 10.7,-9.53 21.6,-9.53 15.4,0 21.6,6.02 21.6,18.47 v 7 h -26.1 c -22.5,0 -34,11.86 -34,28.39 0,8.36 2.7,15.94 7.8,21.19 6,6.03 14.2,8.94 26.4,8.94 12.3,0 19.1,-2.91 26.3,-10.11 v 8.95 h 19.4 v -65.92 c 0,-22.36 -13.6,-33.83 -40.6,-33.83 z m -1259.94,0.35 c -16.34,0 -26.06,3.31 -35.39,14.2 l 13.03,12.25 c 5.45,-7 10.7,-9.53 21.59,-9.53 15.36,0 21.58,6.02 21.58,18.47 v 7 h -26.06 c -22.56,0 -34.03,11.86 -34.03,28.39 0,8.36 2.73,15.94 7.78,21.19 6.03,6.03 14.19,8.94 26.44,8.94 12.25,0 19.06,-2.91 26.25,-10.11 v 8.95 h 19.44 v -65.92 c 0,-22.36 -13.61,-33.83 -40.63,-33.83 z m 194.63,0 c -20.6,0 -37.13,10.89 -37.13,30.14 0,17.31 10.69,25.66 29.16,27.22 l 15.75,1.36 c 9.53,0.77 13.23,5.05 13.23,11.66 0,9.33 -9.54,13.61 -21.59,13.61 -9.72,0 -20.42,-2.14 -28.39,-10.3 l -13.03,13.03 c 11.67,11.47 25.29,14.19 41.42,14.19 23.53,0 41.02,-10.69 41.02,-31.31 0,-17.51 -10.89,-26.25 -29.36,-27.81 l -15.55,-1.36 c -10.51,-0.97 -13.61,-5.45 -13.61,-11.28 0,-7.39 6.02,-12.63 17.88,-12.63 9.34,0 18.09,1.95 24.31,7.19 l 12.45,-12.63 c -9.14,-7.97 -21.78,-11.08 -36.56,-11.08 z m 160,0 c -16.33,0 -26.06,3.31 -35.38,14.2 l 13.02,12.25 c 5.45,-7 10.7,-9.53 21.59,-9.53 15.36,0 21.58,6.02 21.58,18.47 v 7 h -26.05 c -22.57,0 -34.03,11.86 -34.03,28.39 0,8.36 2.72,15.94 7.77,21.19 6.03,6.03 14.2,8.94 26.45,8.94 12.24,0 19.05,-2.91 26.24,-10.11 v 8.95 h 19.45 v -65.92 c 0,-22.36 -13.62,-33.83 -40.64,-33.83 z m 173.4,0 c -25.27,0 -41.8,18.47 -41.8,50.35 0,37.53 19.64,50.56 44.33,50.56 17.31,0 26.83,-5.25 36.94,-15.36 l -12.63,-11.86 c -7,7 -12.84,10.11 -23.92,10.11 -16.13,0 -25.08,-10.69 -25.08,-27.61 v 0 h 63.96 v -8.74 c 0,-28 -15.36,-47.44 -41.8,-47.44 z m -471.06,1.17 34.41,93.91 -5.44,15.36 c -2.92,7.98 -5.84,10.5 -14.2,10.5 h -5.06 v 17.9 h 7.98 c 7.59,0 14.77,-1.75 20.22,-7.2 2.92,-2.92 5.26,-6.8 7.2,-12.25 L 337.09,120.02 H 315.9 l -22.94,69.41 -23.53,-69.41 z m 810.47,2.4 c 3.8,0 5.6,3.95 5.6,7.23 0,3.26 -2.2,10.21 -8,10.21 -1.8,0 -5,-2.75 -5,-6.95 0,-4.46 3.6,-10.49 7.4,-10.49 z m -158.34,8.92 c 3.12,0 6.39,3.42 6.39,8.92 0,5.49 -3.63,8.53 -6.12,8.53 -2.49,0 -6.26,-2.5 -6.26,-9.7 0,-3.56 2.84,-7.75 5.99,-7.75 z m 450.84,3.69 c 9.4,0 16.4,5.06 19.5,12.45 1.9,4.47 2.5,7.39 2.7,13.42 h -44.3 c 0.2,-6.03 0.6,-8.95 2.5,-13.42 3.1,-7.39 10.3,-12.45 19.6,-12.45 z m -631.9,0.35 c 9.33,0 16.33,5.05 19.44,12.44 1.95,4.47 2.54,7.39 2.73,13.42 h -44.33 c 0.19,-6.03 0.59,-8.95 2.53,-13.42 3.1,-7.39 10.3,-12.44 19.63,-12.44 z M 54,157.55 h 33.05 c 14.59,0 22.75,8.74 22.75,21 0,12.24 -8.16,21.19 -22.75,21.19 H 54 Z m 1395,17.15 h 23.2 v 7.97 c 0,7.01 -1.4,11.67 -4.3,14.59 -5.2,5.05 -10.9,5.64 -18.5,5.64 -12.4,0 -18.1,-5.06 -18.1,-14.01 0,-8.94 6.1,-14.19 17.7,-14.19 z m -1259.87,0.35 h 23.14 v 7.97 c 0,7.01 -1.37,11.67 -4.28,14.59 -5.25,5.05 -10.89,5.64 -18.47,5.64 -12.45,0 -18.09,-5.06 -18.09,-14.01 0,-8.94 6.04,-14.19 17.7,-14.19 z m 354.62,0 h 23.14 v 7.97 c 0,7.01 -1.37,11.67 -4.28,14.59 -5.25,5.05 -10.89,5.64 -18.47,5.64 -12.45,0 -18.08,-5.06 -18.08,-14.01 0,-8.94 6.03,-14.19 17.69,-14.19 z m 513.35,6.23 c -0.2,0 -0.4,0.2 -0.4,0.54 l -5.9,36.69 h 14.1 l -7.3,-36.83 c -0.1,-0.3 -0.3,-0.43 -0.5,-0.4 z m -153.06,1.95 c -0.33,0 -0.59,0.48 -0.59,1.21 l -3.67,32.88 c 0,0.43 0,0.83 0.14,1.2 h 15.2 c 0.4,-0.6 0.7,-1.28 0.5,-1.7 L 905.15,184.3 c -0.34,-0.79 -0.77,-1.12 -1.11,-1.07 z m 190.76,37.07 c -4.3,0 -8.1,3.3 -8.1,8.24 0,4.69 3.4,8.24 8.1,8.24 4.3,0 8,-3.29 8,-8.24 0,-4.94 -3.7,-8.24 -8,-8.24 z m 0,1.46 c 3.5,0 6.3,2.78 6.3,6.78 0,4.03 -2.8,6.81 -6.3,6.81 -3.9,0 -6.3,-3.05 -6.3,-6.81 0,-4 2.7,-6.78 6.3,-6.78 z m -3.2,2.38 v 9.11 h 1.6 v -3.9 h 1.3 l 2.4,3.9 h 1.7 l -2.6,-4.01 c 1.4,-0.16 2.4,-0.82 2.4,-2.48 0,-1.85 -1.1,-2.62 -3.3,-2.62 z m 1.6,1.27 h 1.8 c 0.9,0 1.9,0.13 1.9,1.25 0,1.3 -1,1.43 -2.1,1.43 h -1.6 z M 922.42,242.8 v 16.98 H 1023.3 V 242.8 Z m 0,26.43 v 11.46 h 100.88 v -11.46 z m 0,25.05 v 5.8 h 100.88 v -5.8 z"></path>
</svg>