<?xml version="1.0"?>

<!-- Generator: Adobe Illustrator 19.2.0, SVG Export Plug-In . SVG Version: 6.00 Build 0)  -->
<svg version="1.1" id="Layer_1" xmlns="http://www.w3.org/2000/svg" xmlns:xlink="http://www.w3.org/1999/xlink" x="0px" y="0px" width="634px" height="231px" viewBox="0 0 634 231" enable-background="new 0 0 634 231" xml:space="preserve">
<path fill-rule="evenodd" clip-rule="evenodd" d="M526.725,23.988c14.112,0,16.806,3.505,21.756,18.302L603,203.632h-48.578
	l-11.842-38.777h-65.378l-11.785,38.79h-28.033l55.001-179.69L526.725,23.988L526.725,23.988z M534.479,138.54h-49.403
	l24.533-81.968L534.479,138.54L534.479,138.54z"></path>
<path fill-rule="evenodd" clip-rule="evenodd" d="M251.502,203.69h-75.477V23.93h78.228c36.673,0,49.453,29.891,30.879,57.473
	l-8.774,13.016C337.881,126.374,317.876,203.69,251.502,203.69L251.502,203.69z M242.531,103.026l14.987-22.378
	c3.79-5.603,4.595-9.129,4.595-13.058c0-10.98-9.662-20.204-20.781-20.204H218.29v132.17h12.767
	c21.363,0,37.579-11.544,37.579-38.556C268.636,118.71,258.171,106.811,242.531,103.026L242.531,103.026z"></path>
<path fill-rule="evenodd" clip-rule="evenodd" d="M99.484,203.69H24V23.93h78.235c36.666,0,49.454,29.891,30.878,57.473
	l-8.774,13.016C185.864,126.374,165.863,203.69,99.484,203.69L99.484,203.69z M90.507,103.026l14.992-22.378
	c3.792-5.603,4.592-9.129,4.592-13.058c0-10.98-9.65-20.204-20.768-20.204H66.278v132.17h12.761c21.371,0,37.58-11.544,37.58-38.556
	C116.618,118.71,106.158,106.811,90.507,103.026L90.507,103.026z"></path>
<path fill-rule="evenodd" clip-rule="evenodd" d="M430.056,23.93h28.369l-54.772,179.697l-43.128-0.025L301.773,23.955l31.748-0.026
	c12.261,0,15.481,3.164,21.889,23.514l34.019,112.973L430.056,23.93L430.056,23.93z"></path>
</svg>
