<?xml version="1.0"?>

<!-- Generator: Adobe Illustrator 19.2.0, SVG Export Plug-In . SVG Version: 6.00 Build 0)  -->
<svg version="1.1" id="Layer_1" xmlns="http://www.w3.org/2000/svg" xmlns:xlink="http://www.w3.org/1999/xlink" x="0px" y="0px" width="634px" height="310px" viewBox="0 0 634 310" enable-background="new 0 0 634 310" xml:space="preserve">
<path d="M285.409,130.38c-3.665,0-5.473,1.464-5.473,4.361v70.146c0,17.143,11.646,25.729,34.994,25.729
	c18.537,0,32.662-5.191,42.363-15.541c8.586-9.146,12.85-21.308,12.85-36.599c0-14.893-5-26.651-14.957-35.223
	c-10-8.581-24.312-12.874-43.012-12.874 M356.689,121.779c37.777,6.232,56.639,25.792,56.639,58.638
	c0,18.822-7.48,33.951-22.432,45.366c-14.982,11.435-34.418,17.123-58.305,17.123c-8.693,0-74.779,0.329-92.171,0.329V23.095
	c11.602,0,39.561,1.119,54.557,0.938c80.667-0.938,104.113,17.546,104.113,52.631C399.09,98.619,384.963,113.635,356.689,121.779
	 M279.936,108.93c0,4.892,0.663,7.873,2,8.939c1.341,1.041,5.093,1.581,11.292,1.581h5.703c39.118,0,58.692-13.576,58.692-40.719
	c0-28.951-17.6-43.411-52.779-43.411c-9.435,0-15.752,0.903-19.004,2.687c-3.944,2.21-5.904,6.837-5.904,13.837V108.93z"></path>
<path d="M504.975,101.704c10.123,0,19.766,1.292,28.936,3.9c12.25,3.473,18.361,8.389,18.361,14.74
	c0,16.519-3.66,24.771-10.965,24.771c-3.604,0-7.234-2.982-10.973-8.954c-0.393-0.692-1.076-1.901-1.988-3.591
	c-8.916-15.32-18.082-22.973-27.537-22.973c-14.367,0-25.6,7.727-33.705,23.164c-6.109,11.789-9.16,23.955-9.16,36.53
	c0,15.644,4.037,28.955,12.152,39.928c8.561,11.583,20.447,18.248,35.689,20.017c2.77,0.319,11.916,1.297,31.066-5.433
	c4.328-1.518,8.051-3.733,12.133-5.668c2.043-0.998,6.205-1.705,6.779,1.482c0.619,3.414-2.344,7.078-4.584,9.27
	c-3.629,3.556-16.184,15.29-48.897,17.663c-1.455,0.122-2.875,0.147-4.293,0.147c-24.742,0-44.035-7.564-57.867-22.708
	c-12.107-13.169-18.164-29.368-18.164-48.672c0-20.379,6.842-37.354,20.57-50.892C457.684,109.288,478.52,101.704,504.975,101.704"></path>
<path d="M566.771,108.492c0,0,9.689,0.521,16.758,1.086c9.678,0.746,15.562,0.879,15.562,0.879l0.215,132.675h-32.541"></path>
<path d="M566.815,75.75c0-9.868,7.039-17.87,15.748-17.87s15.748,8.002,15.748,17.87c0,9.828-7.039,17.825-15.748,17.825
	S566.815,85.578,566.815,75.75"></path>
<path d="M241.594,279.126c0.29,3.085,2.623,4.229,5.506,4.229c2.02,0,5.561-0.418,5.408-3.208c-0.133-2.839-4.047-3.148-7.962-4.022
	c-3.959-0.869-7.8-2.289-7.8-7.226c0-5.329,5.736-6.979,10.167-6.979c4.991,0,9.51,2.082,10.173,7.5h-5.609
	c-0.472-2.539-2.589-3.246-4.941-3.246c-1.557,0-4.426,0.373-4.426,2.49c0,2.628,3.944,3.006,7.913,3.899
	c3.896,0.895,7.854,2.289,7.854,7.102c0,5.816-5.836,7.923-10.875,7.923c-6.11,0-10.684-2.74-10.787-8.463"></path>
<path d="M274.833,283.355c-4.814,0-6.936-4.392-6.936-8.626c0-4.185,2.122-8.556,6.936-8.556c4.809,0,6.9,4.371,6.9,8.556
	C281.734,278.964,279.642,283.355,274.833,283.355 M274.833,287.589c7.805,0,12.284-5.378,12.284-12.859
	c0-7.436-4.48-12.81-12.284-12.81c-7.825,0-12.305,5.373-12.305,12.81C262.529,282.211,267.008,287.589,274.833,287.589"></path>
<path d="M293.282,262.588h5.079v3.369h0.133c1.611-2.387,3.64-4.037,7.5-4.037c2.967,0,5.732,1.272,6.809,4.037
	c1.813-2.476,4.126-4.037,7.647-4.037c5.123,0,8.145,2.27,8.145,8.208v16.783h-5.354v-14.2c0-3.855-0.262-6.537-4.436-6.537
	c-3.631,0-5.192,2.392-5.192,6.474v14.264h-5.354v-15.619c0-3.331-1.036-5.118-4.293-5.118c-2.775,0-5.329,2.268-5.329,6.287v14.45
	h-5.354"></path>
<path d="M347.107,283.355c-4.801,0-6.932-4.392-6.932-8.626c0-4.185,2.131-8.556,6.932-8.556c4.783,0,6.914,4.371,6.914,8.556
	C354.021,278.964,351.891,283.355,347.107,283.355 M347.107,287.589c7.805,0,12.283-5.378,12.283-12.859
	c0-7.436-4.479-12.81-12.283-12.81c-7.826,0-12.305,5.373-12.305,12.81C334.803,282.211,339.281,287.589,347.107,287.589"></path>
<path d="M369.607,279.126c0.291,3.085,2.633,4.229,5.506,4.229c2.01,0,5.551-0.418,5.404-3.208
	c-0.123-2.839-4.033-3.148-7.957-4.022c-3.949-0.869-7.795-2.289-7.795-7.226c0-5.329,5.73-6.979,10.162-6.979
	c4.99,0,9.51,2.082,10.172,7.5h-5.6c-0.477-2.539-2.604-3.246-4.951-3.246c-1.562,0-4.426,0.373-4.426,2.49
	c0,2.628,3.959,3.006,7.895,3.899c3.924,0.895,7.883,2.289,7.883,7.102c0,5.816-5.846,7.923-10.875,7.923
	c-6.129,0-10.693-2.74-10.777-8.463"></path>
<path d="M393.627,274.774c0-5.025,2.283-10.35,7.947-10.35c6.303,0,8.527,5.324,8.527,10.35c0,5.044-2.225,10.364-8.527,10.364
	C395.91,285.139,393.627,279.818,393.627,274.774 M413.053,253.3h-2.951v13.954h-0.104c-1.271-3.502-4.803-5.334-8.424-5.334
	c-7.396,0-10.93,6.007-10.93,12.854c0,6.897,3.533,12.855,10.93,12.855c3.527,0,7.393-2.146,8.66-5.32h0.094v4.603h2.725V253.3z"></path>
<path d="M420.461,286.911h2.957v-24.284h-2.957V286.911z M420.461,258.064h2.957v-4.773h-2.957V258.064z"></path>
<path d="M440.178,265.107h-4.805v21.804h-2.963v-21.804h-4.154v-2.48h4.154v-2.2c-0.053-4.22,1.145-7.127,5.881-7.127l2.49,0.182
	v2.568l-2.162-0.25c-3.291,0-3.191,2.082-3.246,4.7v2.127h4.805"></path>
<path d="M465.129,275.585c0.221-6.833-2.879-13.665-10.688-13.665c-7.727,0-10.969,6.454-10.969,12.854
	c0,6.916,3.242,12.855,10.969,12.855c6.125,0,9.307-3.193,10.59-8.719h-2.973c-0.943,3.674-3.291,6.229-7.617,6.229
	c-5.699,0-7.957-5.222-8.002-9.554 M446.439,273.09c0.461-4.426,3.148-8.665,8.002-8.665c4.803,0,7.584,4.185,7.721,8.665H446.439z"></path>
<path d="M470.812,262.627h2.73v5.708h0.098c1.514-3.91,4.82-6.209,9.191-6.018v2.938c-5.379-0.275-9.039,3.684-9.039,8.729v12.928
	h-2.98"></path>
<path d="M506.939,275.585c0.23-6.833-2.879-13.665-10.693-13.665c-7.717,0-10.969,6.454-10.969,12.854
	c0,6.916,3.252,12.855,10.969,12.855c6.119,0,9.328-3.193,10.6-8.719h-2.977c-0.934,3.674-3.291,6.229-7.623,6.229
	c-5.703,0-7.953-5.222-8.002-9.554 M488.244,273.09c0.463-4.426,3.145-8.665,8.002-8.665c4.803,0,7.578,4.185,7.727,8.665H488.244z"></path>
<path d="M512.578,262.627h2.961v4.21h0.1c1.08-2.938,4.346-4.917,7.775-4.917c6.822,0,8.881,3.586,8.881,9.372v15.619h-2.957
	v-15.158c0-4.189-1.365-7.328-6.176-7.328c-4.715,0-7.523,3.581-7.623,8.331v14.155h-2.961"></path>
<path d="M544.309,262.627h4.947v2.48h-4.947v16.391c0,1.94,0.285,3.085,2.412,3.232l2.535-0.147v2.524l-2.648,0.104
	c-3.934,0-5.305-1.316-5.269-5.482v-16.622h-4.225v-2.48h4.225v-7.309h2.971"></path>
<path d="M575.666,275.585c0.25-6.833-2.879-13.665-10.674-13.665c-7.731,0-10.988,6.454-10.988,12.854
	c0,6.916,3.258,12.855,10.988,12.855c6.111,0,9.322-3.193,10.596-8.719h-2.982c-0.937,3.674-3.301,6.229-7.613,6.229
	c-5.713,0-7.971-5.222-8.006-9.554 M556.986,273.09c0.461-4.426,3.158-8.665,8.006-8.665c4.795,0,7.57,4.185,7.713,8.665H556.986z"></path>
<path d="M595.912,269.749c-0.137-3.659-2.961-5.324-6.359-5.324c-2.623,0-5.732,1.036-5.732,4.185c0,2.643,3.006,3.576,5.029,4.102
	l3.959,0.899c3.385,0.516,6.935,2.515,6.935,6.724c0,5.266-5.246,7.295-9.766,7.295c-5.648,0-9.498-2.628-9.981-8.566h2.982
	c0.225,4.003,3.188,6.076,7.137,6.076c2.799,0,6.644-1.219,6.644-4.617c0-2.81-2.643-3.772-5.324-4.396l-3.807-0.869
	c-3.859-1.047-6.793-2.383-6.793-6.504c0-4.936,4.867-6.832,9.141-6.832c4.85,0,8.715,2.544,8.91,7.829"></path>
<path d="M24.018,212.948c7.529-22.389,28.979-34.903,47.615-47.065c13.758-8.979,27.797-17.501,41.692-26.249
	c5.015-3.143,9.937-6.376,14.917-9.519c11.823-7.456,21.225-18.268,28.052-30.331c3.458-6.145,6.312-12.511,9.077-18.989
	c3.846-8.939,6.936-20.63,16.317-25.247c6.71-3.276,15.443-1.493,20.526,3.915c4.962,5.285,6.11,13.021,4.774,19.937
	c-2.81,14.622-11.238,27.83-21.867,38.027c-6.243,5.987-13.297,10.418-20.674,14.814c-9.761,5.811-19.545,11.558-29.373,17.266
	c-12.924,7.559-25.709,14.745-37.792,23.601c-12.182,8.92-23.347,18.724-33.804,29.574c-7.751,8.041-12.614,17.624-17.747,27.433
	c-1.861,3.561-3.644,8.709-7.004,11.184c-2.358,1.689-6.238,2.161-8.763,0.644C20.962,236.506,21.601,221.495,24.018,212.948"></path>
<path d="M184.852,219.24c-6.13-4.7-3.998-13.228-4.416-19.912c-0.501-7.978-1.964-16.765-5.477-24.01
	c-3.816-7.834-12.437-9.588-19.259-13.793c-6.425-3.964-5.904-11.911,0.653-15.428c13.581-7.255,29.289,1.493,36.563,13.385
	c4.554,7.441,7.393,16.042,10.104,24.284c2.78,8.438,6.435,19.318,2.078,27.772C201.661,218.224,191.724,224.496,184.852,219.24"></path>
<path d="M133.46,148.534c-31.093-12.373-63.482-36.142-66.925-72.259c-0.869-9.185,0.668-18.498,3.08-27.369
	c2.028-7.461,4.347-15.443,8.061-22.251c6.469-11.877,22.024-14.495,33.008-7.004c12.894,8.816,4.799,24.731,1.685,36.544
	c-2.083,7.894-3.915,16.013-5.231,24.078c-1.302,7.991-1.513,16.219,1.135,23.975c2.176,6.41,6.125,12.201,11.308,16.559
	c5.85,4.892,13.375,7.427,20.197,10.619c4.735,2.21,14.304,5.457,11.268,12.545C148.17,150.651,139.241,150.066,133.46,148.534"></path>
<path d="M62.669,236.112c-0.771-2.854,0.167-6.645,0.987-9.395c0.373-1.292,0.894-2.702,1.581-4.249
	c4.303-9.927,10.635-17.074,16.053-22.512c5.412-5.438,11.892-10.811,18.448-14.809c12.104-7.412,30.822-17.914,37.443-20.247
	c9.716-3.354,15.601,0.579,15.601,0.579s14.652,9.996,15.487,31.751c0.806,21.74-14.289,29.678-14.289,29.678
	s-10.31,6.67-35.007,11.788c-14.819,3.085-29.918,5.123-44.438,4.249C66.206,242.444,63.46,239.095,62.669,236.112"></path>
</svg>
