<?xml version="1.0"?>

<svg xmlns="http://www.w3.org/2000/svg" viewBox="0 0 1082 431.7" width="1082" height="431.7">
  <path d="m 358.6,409.2 c -1.3,-0.2 -1.4,-0.6 -1.4,-3.9 0,-3 0.2,-3.5 1.2,-3.5 0.7,0 1.7,-0.5 2.3,-1.2 1,-1.1 0.8,-1.9 -3,-12.7 -2.2,-6.3 -4.4,-11.9 -4.9,-12.5 -0.5,-0.6 -0.9,-2.5 -0.9,-4.4 l 0,-3.4 7.6,0 7.5,0 0,3.6 c 0,1.9 -0.3,3.6 -0.6,3.6 -1,0 -0.7,2.5 0.6,6.2 1.3,3.7 1.6,3.5 2.7,-1.9 0.7,-3 0.7,-4 0.1,-4.2 -0.5,-0.1 -0.8,-1.6 -0.8,-3.8 l 0,-3.5 6.3,0 6.2,0 0,3.8 c 0,2.1 -0.2,4.1 -0.6,4.4 -0.3,0.4 -2.2,6.4 -4.3,13.5 -2.1,7 -4.4,14.1 -5.3,15.5 -2.3,4 -6.8,5.5 -12.7,4.4 z m 409,-4 c 0.7,-2.4 0.7,-9.9 0.7,-16.6 0,-6.7 0,-14.1 -0.7,-16.6 l 0,-4.4 6,0 c 3.9,0 6.5,0.2 6.5,0.5 0,0.4 1.4,0.2 2,-0.3 5.3,-2.1 11.9,-0.5 13.2,3.2 1.3,3.1 0.6,21.7 -0.7,24.3 -1.3,3.5 -7.2,4.8 -11.8,2.9 -2.7,-1.3 -2.7,-1.3 -2.7,1.1 0.7,1.2 0.7,4 1.4,6.2 l 0,4.2 -6.6,0 -7.3,0 z m 16.5,-15.4 c 0.6,-0.5 0.6,-3 0.6,-6.5 0,-6.3 -0.6,-8 -3.2,-7.4 -1.4,0.3 -1.4,0.9 -1.4,7.1 0,6.7 0,7.4 2.7,7.5 0,0.1 0.6,-0.2 1.3,-0.7 z m -534.3,8.4 c -5.7,-2 -6.6,-4.5 -6.3,-16.6 0.2,-7.6 0.4,-8.9 1.6,-10.6 2.3,-3.1 4.5,-3.8 12.1,-3.8 5.7,0 7.3,0.2 9.2,1.3 3.4,2.1 4.6,5 4.6,11.4 l 0,5.4 -7.9,0 -7.9,0 0,2.9 c 0,2.1 0.3,3.1 1.1,3.3 1.4,0.6 2.9,-0.7 2.9,-2.6 0,-1.5 0.1,-1.6 5.9,-1.6 l 5.9,0 0,4 c 0,3.3 -0.2,4 -1.4,4.8 -4.2,2.7 -14.9,3.8 -19.8,2.1 z m 9.2,-21.6 c -0.1,-1.8 -0.4,-2.1 -1.8,-2.1 -1.4,0 -1.7,0.3 -1.9,2.1 -0.1,2 0,2.1 1.9,2.1 1.9,0 2,-0.1 1.8,-2.1 z m 21,21.6 c -5.6,-2 -6.6,-4.5 -6.2,-16.6 0.2,-7.6 0.4,-8.9 1.5,-10.6 2.3,-3.1 4.5,-3.8 12.1,-3.8 11.2,0 13.3,1.9 13.7,11.9 l 0.3,6.2 -8,0 -7.9,0 0,2.9 c 0,2.1 0.3,3.1 1,3.3 1.5,0.6 2.9,-0.7 2.9,-2.6 0,-1.5 0.2,-1.6 5.9,-1.6 l 6,0 0,4 c 0,3.3 -0.2,4 -1.5,4.8 -4.1,2.7 -14.9,3.8 -19.8,2.1 z m 9.3,-21.6 c -0.1,-1.8 -0.5,-2.1 -1.9,-2.1 -1.3,0 -1.7,0.3 -1.8,2.1 -0.2,2 -0.1,2.1 1.8,2.1 2,0 2.1,-0.1 1.9,-2.1 z m 153.1,21.6 c -3.7,-1.5 -3.9,-2.4 -4.4,-12.8 -0.3,-5.3 -0.7,-11.5 -1,-13.8 l -0.4,-4 6.3,0 6.2,0 0.3,10.8 c 0.2,11.3 0.5,12.5 3.2,12 0.7,-0.1 0.9,-1.4 0.8,-7.4 -0.1,-4 -0.3,-9.1 -0.5,-11.4 l -0.5,-4 6.3,0 6.4,0 0,10.3 c 0,8 0.2,10.9 0.9,12.3 0.6,1 1,3.3 1,5.1 l 0,3.2 -6.2,0 c -4.2,0 -6.3,-0.3 -6.4,-0.8 -0.2,-0.5 -1.1,-0.5 -3,0.3 -3.3,1.4 -6.3,1.4 -9,0.2 z m 34.6,0.2 c -1.6,-0.2 -3.9,-1.2 -5.1,-1.9 -2.2,-1.4 -2.2,-1.5 -2.2,-5.6 l 0,-4.3 5.5,0 5.6,0 0,2 c 0,2.1 1.4,3.5 2.9,2.9 3.4,-1.3 0.8,-4.5 -4.8,-5.8 -6,-1.6 -7.9,-2.7 -9,-5.4 -2.3,-5.5 0.6,-11.2 6.4,-12.7 4.1,-1.2 11.4,-0.6 15.5,1.3 l 3.5,1.4 0,3.9 0,3.9 -5.2,0 c -4.9,0 -5.2,-0.1 -5.4,-1.4 -0.2,-0.8 -0.8,-1.8 -1.4,-2.2 -1,-0.6 -1.4,-0.4 -2.2,0.6 -0.9,1.1 -0.8,1.4 0.2,2.4 0.7,0.6 3.2,1.6 5.8,2.2 2.5,0.6 5.3,1.6 6.2,2.3 3.9,2.8 4.2,10.2 0.7,13.7 -3.1,3.1 -9.7,4.2 -17,2.7 z m 78.7,0 c -1.4,-0.4 -3.4,-1.7 -4.5,-2.9 l -1.9,-2.3 0,-9.9 c 0,-11.1 0.5,-12.9 4.1,-14.9 1.6,-0.9 3.7,-1.2 9.3,-1.2 6.4,0 7.5,0.2 9.6,1.5 3.3,2 3.9,3.9 3.9,10.7 l 0,5.9 -7.9,0 -7.9,0 0,2.2 c 0,4.5 3.6,6 4.4,1.8 l 0.4,-2 5.5,0 5.5,0 0,4.2 0,4.2 -3.5,1.5 c -3.9,1.7 -13,2.4 -17,1.2 z m 9.1,-20.7 c 0.6,-1.3 -0.5,-3.2 -1.9,-3.4 -1.2,-0.3 -2.7,2.1 -2.2,3.5 0.5,1.3 3.6,1.2 4.1,-0.1 z m 22.1,20.8 c -1.6,-0.3 -3.8,-1.2 -5,-1.8 -1.9,-1.2 -2.1,-1.5 -2.3,-5.6 l -0.2,-4.5 5.7,0 5.6,0 0,2.3 c 0,2.3 1.1,3.3 3,2.6 1.1,-0.4 1.3,-3.1 0.1,-4.1 -0.5,-0.4 -2.8,-1.1 -5.2,-1.7 -6,-1.6 -8.2,-3.1 -9.2,-6.2 -1.6,-5.6 1.2,-10.4 6.8,-11.9 3.9,-1.2 11.4,-0.5 15.6,1.3 l 3.4,1.4 0,3.9 0,3.9 -5.2,0 c -4.9,0 -5.3,-0.1 -5.5,-1.4 -0.3,-2.1 -2.2,-3.2 -3.5,-1.8 -1.6,1.5 -0.5,3.1 2.6,3.8 10.2,2.5 12.5,4.3 12.5,10.1 0,6.8 -3.5,9.8 -11.8,10.1 -2.6,0.1 -5.9,-0.1 -7.4,-0.4 z m 28.7,-0.2 c -1.7,-0.5 -3.9,-1.4 -4.8,-2 -1.6,-1 -1.7,-1.6 -1.7,-5.4 l 0,-4.3 5.3,0 c 5,0 5.2,0.1 5.2,1.6 0,0.8 0.4,2.1 1,2.8 0.7,1 1.1,1.1 2.1,0.5 0.7,-0.4 1.3,-1.3 1.4,-2.1 0.3,-1.7 -1.9,-2.8 -7.4,-4.1 -2.9,-0.6 -4.5,-1.4 -6.1,-3 -2.2,-2.2 -2.3,-2.4 -2,-6.2 0.3,-5 2.4,-7.4 7.3,-8.6 4.5,-1.1 11.7,-0.4 15.5,1.5 3,1.5 3,1.5 3.2,5.3 l 0.2,3.8 -5.1,0 c -5.2,0 -5.2,0 -5.9,-2.1 -0.9,-2.2 -2.5,-2.4 -3.8,-0.4 -1,1.6 0,2.4 4.6,3.5 8.9,2.3 10.8,4.1 10.8,10.4 0,4 -1.4,6.4 -4.7,8.1 -2.8,1.4 -11.3,1.8 -15.1,0.7 z m 47.3,-0.1 c -1.5,-0.5 -3.3,-1.6 -4.3,-2.5 -3.1,-2.8 -3.4,-4.7 -3.4,-18.4 0,-15.1 0.5,-17.3 5.4,-19.7 5.4,-2.8 15.2,-2.4 22.2,0.8 l 2.6,1.4 0,5.8 0,5.9 -6.2,0 -6.3,0 0,-2.5 c 0,-3.2 -0.8,-4.3 -2.7,-3.9 l -1.6,0.1 0,12.2 0,12.2 1.6,0.2 c 2.1,0.3 2.7,-0.8 2.7,-5.3 l 0,-3.8 6.3,0 6.2,0 0,7.2 c 0,6.8 0,7.2 -1.3,8.2 -4.6,2.9 -15.9,4 -21.2,2.1 z m 33.7,0.3 c -6.6,-1.6 -7.2,-3.8 -7.2,-16.1 0,-10.4 0,-11.8 3.9,-14 3.3,-1.8 15.8,-1.7 19.1,0.1 3.3,2.1 3.9,4.3 3.9,14.7 0,10.2 -0.6,12.3 -4.6,14.4 -2.6,1.3 -11.2,1.8 -15.1,0.9 z m 7.9,-8.3 c 1.3,-2.7 0.6,-13.6 0,-15.1 -1.3,-1 -1.3,-1.2 -2.6,-0.6 -0.7,0.7 -1.4,1.9 -1.4,8.2 0,7.4 0.7,9.2 2.7,9.2 0,0 0.6,-0.8 1.3,-1.7 z m 99.3,7.7 c -0.6,-0.7 -2,-1.6 -2.6,-2.2 0,-0.4 -0.7,-5 -0.7,-10 -0.6,-5.1 -0.6,-11.3 -1.3,-13.7 l 0,-4.5 5.9,0.2 6.6,0.2 0,10.6 c 0.7,11.2 0.7,12.6 3.3,11.8 1.3,-0.4 1.3,-0.8 1.3,-7.1 -0.6,-3.7 -0.6,-8.7 -1.3,-11.2 l 0,-4.4 5.9,0 6.6,0 0,10.9 c 0.7,6.2 0.7,13.1 1.3,15.5 l 0,4.5 -5.9,0 c -4,0 -6.6,-0.3 -6.6,-0.7 0,-0.4 -1.3,-0.3 -2.6,0.4 -3.3,1.3 -7.3,1.2 -9.9,-0.3 z m 33.6,0.3 c -4.6,-1.5 -5.3,-3.2 -5.3,-15 0,-5.1 0,-8.4 -0.7,-8.4 -0.6,0 -0.6,-1.7 -0.6,-3.6 0,-2 0,-3.6 0.6,-3.6 0,0 0.7,-1.4 0.7,-3.1 l 0.7,-3.1 5.2,-1.5 c 2.7,-0.8 5.3,-1.6 5.3,-1.6 0.6,0 0.6,2.1 0.6,4.6 l 0,4.7 2,0 c 2,0 2,0 2,3.6 0,3.5 0,3.6 -2,3.6 l -2,0 0,7.2 c 0,7.4 0.7,9.3 3.3,9.3 0.7,0 0.7,0.9 0.7,3.6 0,3.5 0,3.6 -2,3.6 -0.6,0 -2.6,0.1 -3.9,0.3 -1.3,0.2 -3.3,0 -4.6,-0.6 z m 19.7,0 c -2,-0.6 -3.9,-1.9 -4.6,-3 -2,-2 -2,-2 -2,-11.9 0,-11.1 0.7,-12.9 4,-14.9 1.9,-0.9 3.9,-1.2 9.8,-1.2 11.2,0 13.2,1.9 13.2,12.2 l 0,5.9 -7.9,0 -7.9,0 0,2.2 c 0,4.5 3.3,6 4.6,1.8 l 0,-2 5.9,0 5.3,0 0,4.2 0,4.2 -3.3,1.5 c -4.6,1.9 -13.8,2.4 -17.1,1 z m 9.2,-21 c 0,-2.9 -2.6,-4.1 -3.9,-1.7 -1.4,2 -0.7,3.2 1.9,3.2 1.4,0 2,-0.2 2,-1.5 z m 96.7,21.1 c -5.9,-2.1 -6.6,-3.2 -6.6,-15.1 0,-11 0.7,-12.8 4,-14.8 1.9,-0.9 3.9,-1.2 9.8,-1.2 6,0 7.3,0.2 9.2,1.5 3.3,2 4,3.9 4,10.7 l 0,5.9 -7.9,0 -7.9,0 0,2.2 c 0,4.5 3.3,6 4.6,1.8 l 0,-2 5.9,0 5.3,0 0,4.2 0,4.2 -3.3,1.5 c -4.6,1.8 -13.8,2.4 -17.1,1.1 z m 9.2,-20.6 c 0,-1.3 -0.6,-3.2 -2,-3.4 -1.3,-0.3 -2.6,2.1 -2.6,3.5 0.7,1.3 4,1.2 4.6,-0.1 z m 67.8,20.9 c -1,-0.4 -3,-1.2 -5,-1.7 l -2,-1.2 0,-4.6 0,-4.5 5,0 c 5,0 5,0.1 5,1.6 0,0.8 1,2.1 1,2.8 1,1 1,1.1 3,0.5 2,-1.8 1,-4.3 -4,-5.5 -6,-1.1 -10,-3.1 -10,-5 -1,-2.1 -1,-7 0,-9.2 0,-0.9 2,-2.3 3,-3.1 2,-1.3 3,-1.5 9,-1.5 6,0 7,0.2 10,1.7 l 3,1.6 0,3.8 0,3.8 -5,0 -5,0 -1,-2.1 c 0,-1.5 0,-1.9 -2,-1.7 -1,0.1 -1,0.6 -1,1.8 0,1.7 1,2.3 8,4 2,0.5 4,1.6 5,2.9 2,1.9 2,2.6 2,5.7 0,4.2 -1,7.2 -5,8.9 -2,1.2 -11,1.8 -14,1 z m -838.3,-1.9 c -0.2,-1 -1.6,-8.3 -3,-16.3 -1.6,-8 -3,-14.8 -3.4,-15.1 -0.3,-0.4 -0.6,-2.5 -0.6,-4.8 l 0,-4.1 7.9,0 7.9,0 0,3.6 c 0,2 -0.3,4.2 -0.5,4.8 -0.4,0.6 -0.3,3.8 0.1,7.4 0.4,3.4 0.9,5.8 1.1,5.2 0.3,-0.5 1.3,-5.5 2.3,-11 l 1.9,-10 4,0 4.2,0 0.6,3.4 c 0.4,1.9 1.5,6.9 2.3,11 1.4,7 1.6,7.4 2,5 0.9,-6.5 1.1,-10.7 0.5,-11.1 -0.4,-0.3 -0.7,-2.3 -0.7,-4.5 l 0,-3.8 6.9,0 6.9,0 0,3.9 c 0,2.2 -0.3,4.5 -0.7,5.1 -0.3,0.6 -1.8,7.7 -3.3,15.6 -1.4,8 -2.8,15.2 -2.9,16 -0.4,1.4 -0.7,1.5 -6.6,1.5 -5.9,0 -6.3,-0.1 -6.6,-1.5 -0.2,-0.8 -1,-5.2 -1.9,-9.7 -1.6,-9 -1.6,-9.1 -3.7,1.7 -0.8,3.9 -1.6,7.7 -1.7,8.3 -0.3,1.1 -1.2,1.2 -6.5,1.2 l -6.1,0 z m 102.5,-2.4 c 0.3,-2.2 0.5,-9.8 0.5,-16.9 0,-7 -0.2,-14.7 -0.5,-17 l -0.4,-4 6.6,0 6.6,0 0,10 0.1,10 1.6,-1.8 c 1.2,-1.3 1.6,-2.6 1.6,-4.5 l 0,-2.5 6.6,0 6.6,0 0,3.6 c 0,1.9 -0.3,3.6 -0.6,3.6 -0.3,0 -1.6,1.3 -3,3 l -2.4,2.9 2.4,4.8 c 1.4,2.6 2.9,5 3.3,5.3 0.6,0.3 1,1.8 1,4.1 l 0,3.6 -5.3,0 -5.3,0 -3.2,-6.5 c -3.1,-5.9 -3.3,-6.2 -3.3,-3.9 -0.1,1.3 0.3,2.6 0.6,2.8 0.4,0.2 0.7,2.1 0.7,4 l 0,3.6 -7.3,0 -7.3,0 z m 31.9,1 c 0,-1.8 0.5,-4.1 1,-5.1 0.7,-1.4 1,-4.4 1,-12.8 0,-8.3 -0.3,-11.3 -1,-12.7 -0.5,-1 -1,-3.3 -1,-5.1 l 0,-3.2 6.6,0 6.5,0 0.3,16.9 c 0.2,9.3 0.5,18.8 0.8,21 l 0.4,4.2 -7.3,0 -7.3,0 z m 64.5,-0.7 c 0,-2.2 0.3,-4.1 0.6,-4.3 0.4,-0.3 0.7,-5.3 0.7,-12.9 0,-7.5 -0.3,-12.5 -0.7,-12.8 -0.3,-0.2 -0.6,-2.2 -0.6,-4.4 l 0,-3.9 13.4,0.2 c 12.4,0.2 13.6,0.3 15.3,1.6 5.6,4.1 5.5,14.9 -0.1,17.5 l -1.6,0.7 2.1,1.1 c 6.1,3.3 5.9,15.7 -0.3,19.5 -1.9,1.1 -3.6,1.3 -15.5,1.5 l -13.3,0.2 z m 18.5,-5.9 c 1,-0.9 1.5,-1.9 1.5,-3.6 0,-2.9 -1.2,-4.4 -3.6,-4.4 -1.9,0 -1.9,0 -1.9,4.2 0,5.4 0.9,6.3 4,3.8 z m -0.4,-16.5 c 1.5,-0.6 1.7,-1 1.5,-3.1 -0.1,-2 -0.6,-2.7 -2,-3.4 -2.5,-1.2 -3.1,-0.6 -3.1,3.1 0,4.2 0.4,4.6 3.6,3.4 z m 79.9,22.8 c 0.1,-2 0.5,-3.9 1,-4.7 0.7,-0.9 1,-3 1,-7.3 0,-4.3 -0.3,-6.4 -1,-7.3 -0.5,-0.7 -0.9,-2.7 -1,-4.7 l 0,-3.4 6.6,0 6.6,0 0,11.1 c 0,6.8 0.2,11.3 0.6,11.6 0.3,0.2 0.7,2.1 0.7,4.3 l 0,3.9 -7.3,0 -7.2,0 z m 17.1,0 c 0.1,-2 0.5,-3.9 1,-4.7 0.7,-0.9 1,-3 1,-7.3 0,-4.3 -0.3,-6.4 -1,-7.3 -0.5,-0.7 -0.9,-2.7 -1,-4.7 l 0,-3.4 6.2,0 c 3.9,0 6.3,0.2 6.4,0.7 0.2,0.5 1.1,0.4 2.8,-0.4 4.5,-1.9 9.7,-1 12.3,2 0.7,0.8 1,4 1.4,10.8 0.2,5.2 0.6,11.4 0.8,13.6 l 0.5,4.2 -6.3,0 -6.3,0 0,-10.1 c 0,-8.9 -0.2,-10.4 -1.2,-11.7 -0.9,-1 -1.7,-1.3 -2.4,-1 -1,0.3 -1.1,1.2 -0.8,7.5 0.2,3.9 0.5,8.9 0.7,11.1 l 0.5,4.2 -7.3,0 -7.3,0 z M 719,394.9 c 0,-1.9 0,-3.8 0.6,-4 0.7,-0.2 0.7,-3.6 0.7,-7.9 0,-4.3 0,-7.6 -0.7,-7.9 -0.6,-0.2 -0.6,-2 -0.6,-4 l 0,-3.5 5.9,0 c 3.9,0 6.6,0.2 6.6,0.6 0,0.5 1.3,0.3 3.2,-0.3 4,-1.3 6.6,-1.3 9.3,0.2 2.6,1.3 2.6,1.3 5.2,0 5.3,-2.2 11.2,-1.2 13.2,2.3 0.6,0.8 1.3,5.2 1.3,10.3 0.7,4.9 0.7,10.9 1.3,13.3 l 0,4.5 -5.9,0 -6.6,0 0,-10.9 c -0.6,-11.3 -0.6,-12.4 -3.3,-11.9 -0.6,0.1 -1.3,1.5 -1.3,6.9 0,4.2 0,7.1 0.7,7.6 0.6,0.3 0.6,2.4 0.6,4.5 l 0,3.8 -5.9,0 -6.6,0 0,-9.7 c 0,-10.4 -0.6,-13 -3.3,-13 -0.6,0 -0.6,0.4 -0.6,7.2 0,4 0,9.1 0.6,11.3 l 0,4.2 -7.2,0 -7.2,0 z m 161.1,0.1 c 0,-2 0.7,-3.9 1.3,-4.7 0.7,-0.9 0.7,-3 0.7,-7.3 0,-4.3 0,-6.4 -0.7,-7.3 -0.6,-0.7 -1.3,-2.7 -1.3,-4.7 l 0,-3.4 5.9,0 c 4.6,0 6.6,0.2 6.6,0.7 0.7,0.7 0.7,0.6 2,-0.3 0.7,-0.6 2,-1.1 2.6,-1.1 2,0 2,0 2,5.1 l 0,5.2 -2,0.6 c -1.3,0.4 -2.6,1.3 -3.3,2.3 -0.6,2.3 -0.6,8.7 0,10.2 0.7,0.8 1.4,2.7 1.4,4.7 l 0,3.5 -7.3,0 -7.9,0 z m 39.5,-0.4 c 0,-2.2 0,-4.1 0.6,-4.3 0.7,-0.3 0.7,-5.3 0.7,-12.9 0,-7.5 0,-12.5 -0.7,-12.8 -0.6,-0.2 -0.6,-2.2 -0.6,-4.4 l 0,-3.8 7.2,0 7.3,0 2.6,7.7 c 2,4.2 3.3,8.5 3.9,9.4 0.7,1.7 0.7,-2.4 -0.6,-12.7 l 0,-4.4 6.6,0 6.5,0 0,4.4 c -0.6,2.5 -0.6,12 -1.3,21 l 0,16.7 -6.6,0 -5.9,0 -3.9,-9 -3.3,-9 -0.7,4.5 c 0,2.5 0,4.8 0.7,5.2 0.6,0.3 0.6,2.4 0.6,4.5 l 0,3.8 -6.5,0 -6.6,0 z m 71.7,-3.8 c -1.3,-4.3 -2.6,-9.6 -3.3,-11.7 -0.7,-2.2 -1.3,-5.7 -2,-7.8 l 0,-3.7 7.3,0 7.7,0 0,3.4 c 0,2 0,3.9 -1.2,4.3 -0.6,0.4 -0.6,1.7 0,4.2 l 1.2,3.5 2,-7.5 2,-7.6 4,-0.2 4,-0.2 2,7.3 c 1,4 2,7 2,6.8 1,-0.9 1,-6.8 1,-6.8 -1,0 -1,-1.4 -1,-3.6 l 0,-3.6 7,0 5,0 0,3.8 c 0,2.1 0,4.1 0,4.4 0,0.4 -1,4.7 -3,9.5 -1,4.9 -3,9.9 -3,11.1 l -1,2.2 -6,-0.2 -5,-0.2 -2,-5.3 c -1,-5.7 -1,-5.7 -3,1 l -2,4.3 -4.8,0.2 -5.9,0.2 z M 500.9,363.9 c -3.5,-3.5 -1,-7.5 4.8,-7.5 4,0 6.1,1.5 6.1,4.5 0,4.4 -7.5,6.5 -10.9,3 z m 125.6,-21.4 c -42.3,-3.7 -77.1,-18.2 -102.8,-43.1 -12.1,-11.6 -20,-22.8 -27.7,-38.6 -11.3,-23.3 -16.5,-47.3 -16.5,-76.1 0,-68.4 26.6,-116.81 78.8,-143.26 24.6,-12.49 51.5,-18.37 88.3,-19.33 33.6,-0.88 63.8,3.35 95.4,13.4 l 9.9,3.07 0,19.71 c 0,15.52 0,19.61 -0.7,19.35 -0.7,-0.2 -4,-1.58 -7.2,-3.08 -25,-11.04 -57.3,-16.54 -84.7,-14.63 -30.3,2.08 -50.1,9.82 -67.4,26.37 -5.9,5.6 -12.3,13.3 -16.2,19.5 -5.8,9.3 -11.3,23.9 -14.1,37.6 -3,14.3 -3.5,19.3 -3.5,39.5 0.1,16.6 0.3,20.1 1.5,27.6 5,28.9 14.8,49.9 30.8,65.9 16.5,16.6 38.2,25.8 67.4,28.7 9.8,0.9 28.9,0.4 38.8,-1 15.1,-2.3 32.9,-7.3 48,-13.6 l 7.3,-3.1 0,19.5 0,19.6 -9.3,3.1 c -23,7.3 -40.1,10.8 -64.7,12.9 -9.3,0.8 -41.9,0.8 -51.4,0 z m -575.18,-31.2 0,-27.4 -12.8,0 -12.9,0 0,-12.1 0,-12.2 12.9,0 12.8,0 0,-10.9 0,-10.9 -11.2,0 -11.2,0 0,-12.1 0,-12.2 35.56,0 35.52,0 0,12.2 0,12.1 -11.51,0 -11.52,0 0,10.9 0,10.9 12.17,0 12.16,0 0,12.2 0,12.1 -12.02,0.2 -11.98,0.2 -0.17,27.2 -0.17,27.1 -12.82,0 -12.82,0 z m 59.88,27 c 0,-0.2 2.2,-5.4 5,-11.6 l 5,-11.2 9.6,0 c 7,0 10,-0.2 10.9,-0.8 1.1,-0.8 1.2,-2.2 1.1,-15.7 0,-16.3 -0.5,-46.3 -1.1,-70.5 l -0.3,-15.7 12.8,0 12.9,0 0,58.2 c 0,55 -0.1,58.2 -1.3,60.7 -1.3,3 -3.5,5.2 -6.1,6.2 -2,0.7 -48.5,1 -48.5,0.4 z m 82.9,-313.18 84.7,0.25 c 75.5,0.22 85.5,0.36 92.5,1.37 29.4,4.2 48.6,12.26 61.4,25.7 11.6,12.19 16.8,26.56 16.8,45.86 0.1,11.3 -1.2,16.8 -5.8,25.4 -3.8,7.2 -7.5,11.9 -14.8,18.8 -12.3,11.8 -30.3,21.9 -52.8,29.8 l -7.7,2.7 8.3,1.9 c 23.8,5.2 47,15.8 60.7,27.6 11.8,10.4 18,21.6 21.5,38.9 1.8,9 1.6,27.6 -0.3,35.9 -3.4,14.8 -10.8,26.8 -22.2,36 -13.3,10.6 -27.9,16.8 -46.5,19.9 -17.1,2.9 -17.6,2.9 -108.2,3.2 l -87.6,0.2 z M 326.3,302.8 c 15,-2.3 27.2,-6.9 35.2,-13.4 10.7,-8.7 16.1,-23.8 15.2,-42.3 -2,-38.2 -26.1,-52.3 -92.3,-53.8 l -17.3,-0.4 0,43.5 c 0,26.7 0.2,45.5 0.7,48.7 1.4,10.4 5.6,15.2 15.7,17.9 4.5,1.2 6.3,1.3 20.4,1.1 9,-0.2 18.3,-0.7 22.4,-1.3 z M 320.8,155 c 32,-5.1 46.5,-14.6 50.5,-33.4 1.7,-7.7 2.1,-20.2 0.7,-26.2 C 368.8,81 357.7,68.45 343.4,63.14 334.3,59.75 330.1,59.42 297.3,59.42 l -30.2,0 0,48.78 0,48.8 22.5,-0.3 c 18.6,-0.2 24,-0.6 31.2,-1.7 z m 604.7,78.8 -88.8,-104.7 -0.7,206.8 -39.4,0 0,-308.1 23,0.17 22.4,0.17 89.4,104.86 89.6,104.8 0,-105 0,-104.98 20,0 19,0 0,310.78 -45,0 z m -814.3,22.5 0,-43.5 11.5,0 11.5,0 0,43.5 0,43.4 -11.5,0 -11.5,0 z M 29.32,153.4 c -3.8,-10.5 -7.6,-21.8 -7.3,-22.1 0.2,-0.1 2.7,-1.2 5.6,-2.4 2.9,-1.2 7.8,-3.8 10.9,-5.6 l 5.6,-3.5 0,-12.7 0,-12.8 -8.2,0 -8.1,0 -0.4,-2.5 c -0.2,-1.3 -0.4,-6.2 -0.4,-10.8 l 0,-8.41 18.7,0 18.66,0 0.22,22.81 c 0.2,22.2 0.25,23.1 1.7,26.2 0.89,1.9 1.73,3 2.08,2.6 0.87,-0.9 2.56,-10.2 3.29,-18 1.26,-13.7 2.13,-36.31 2.23,-58.46 l 0.11,-22.55 46.89,0 46.8,0 0,45.82 c 0,50.39 0.2,48.49 -4,51.59 -4,2.9 -6.4,3.3 -21.3,3.3 -7.8,0 -14.1,-0.2 -14.1,-0.4 0,-0.4 0.4,-2.2 1,-4.2 0.5,-2 1,-4 1,-4.4 0,-0.7 -3.7,-0.9 -15.8,-0.9 l -15.82,0 0,-16.7 0,-16.8 19.72,0 19.7,0 0,11.8 0,11.9 2.2,0 c 1.2,0 2.5,-0.4 3,-0.8 0.6,-0.6 0.8,-4.6 0.8,-13.8 l 0,-13.1 -24,0 -24.05,0 0,5.1 c 0,8.2 -2.56,39.8 -3.68,45.1 l -0.4,1.8 38.83,0.2 38.8,0.2 -4.4,11.4 -4.4,11.3 -50.3,-0.2 -50.51,-0.2 -2.52,-2 c -1.39,-1.1 -3.23,-3.4 -4.09,-5.1 l -1.57,-3.1 -3.99,2.4 c -3.8,2.2 -14.5,7.5 -17.1,8.4 -0.7,0.2 -1.3,0 -1.4,-0.4 z m 93.08,-54.8 0,-3.6 -4.6,0 -4.7,0 0,3.1 c 0,1.8 0.2,3.5 0.5,3.7 0.2,0.2 2.3,0.4 4.6,0.4 l 4.2,0 z m -12.5,-36.55 0,-2.63 -5.6,0 -5.62,0 0,-6.59 0,-6.58 5.62,0 5.6,0 0,-2.63 0,-2.64 -6.6,0 -6.59,0 0,11.85 0,11.86 6.59,0 6.6,0 z m 34.2,-9.23 0,-11.88 -8.4,0.19 -8.4,0.18 0,2.31 0,2.3 7.1,0.19 c 4.5,0.12 7,0.44 7,0.91 0,0.4 -0.3,3.35 -0.8,6.57 l -0.7,5.83 -6.5,0 -6.4,0 0,2.19 c 0,1.21 0.2,2.4 0.4,2.64 0.2,0.24 4.1,0.44 8.6,0.44 l 8.1,0 z m -102.48,3.3 c -4.5,-5.57 -6.4,-7.12 -17.5,-14.15 -0.8,-0.53 0.5,-1.71 6.9,-6.16 l 8,-5.51 2.3,1.12 c 4.8,2.27 9.76,6.07 15.39,11.78 3.19,3.22 5.79,6.08 5.79,6.35 0,0.42 -14.88,11.97 -15.78,12.29 -0.2,0.1 -2.5,-2.51 -5.1,-5.72 z"></path>
   
</svg>
