<?xml version="1.0"?>

<!-- Generator: Adobe Illustrator 19.1.0, SVG Export Plug-In . SVG Version: 6.00 Build 0)  -->
<svg version="1.1" id="Capa_1" xmlns="http://www.w3.org/2000/svg" xmlns:xlink="http://www.w3.org/1999/xlink" x="0px" y="0px" width="336.5px" height="113px" viewBox="-471 344 336.5 113" style="enable-background:new -471 344 336.5 113;" xml:space="preserve">

<path class="st0" d="M-435.7,410.1c3.8,0,6.8,3,6.8,6.8c0,3.8-3,6.8-6.8,6.8c-3.8,0-6.8-3-6.8-6.8
	C-442.5,413.1-439.5,410.1-435.7,410.1z M-421.1,412.1c2.7,0,4.8,2.1,4.8,4.8s-2.1,4.8-4.8,4.8s-4.8-2.1-4.8-4.8
	S-423.8,412.1-421.1,412.1z M-411.2,414.1c1.5,0,2.8,1.3,2.8,2.8c0,1.5-1.3,2.8-2.8,2.8c-1.5,0-2.8-1.3-2.8-2.8
	C-414,415.4-412.7,414.1-411.2,414.1z"></path>
<path class="st1" d="M-411,379.9c1.5,0,2.8,1.3,2.8,2.8c0,1.5-1.3,2.8-2.8,2.8s-2.8-1.3-2.8-2.8C-413.8,381.2-412.5,379.9-411,379.9
	z M-400.4,377.9c2.7,0,4.8,2.1,4.8,4.8c0,2.7-2.1,4.8-4.8,4.8s-4.8-2.1-4.8-4.8C-405.2,380-403.1,377.9-400.4,377.9z M-387,375.9
	c-3.5,0.3-6.3,3.2-6.3,6.8c0,3.6,2.8,6.5,6.3,6.8V375.9z"></path>
<path class="st1" d="M-382.5,406.4V376h11.8c2,0,3.7,0.2,5,0.6c1.3,0.4,2.5,1.3,3.4,2.6c1,1.3,1.4,2.9,1.4,4.7
	c0,1.7-0.5,3.1-1.5,4.4c-1,1.2-2.3,2-4.1,2.4c2.1,0.4,3.8,1.2,4.9,2.6c1.1,1.4,1.6,3,1.6,4.9c0,2.3-0.8,4.3-2.3,5.9
	s-3.9,2.4-7.1,2.4h-13.1V406.4z M-377.3,388.7h6.7c1.4,0,2.4-0.4,3.2-1.2c0.8-0.8,1.2-1.9,1.2-3.1c0-1.4-0.5-2.4-1.4-3.1
	c-0.9-0.7-2-1-3.2-1h-6.6v8.4H-377.3z M-377.3,401.8h7.1c1.5,0,2.7-0.4,3.6-1.2c0.9-0.8,1.3-1.8,1.3-3.2c0-1.3-0.4-2.3-1.3-3.1
	c-0.9-0.8-2.1-1.2-3.5-1.2h-7.1L-377.3,401.8L-377.3,401.8z"></path>
<path class="st1" d="M-341.2,399.2l4.6,0.6c-0.6,2-1.8,3.7-3.5,5c-1.7,1.3-3.9,2-6.5,2c-3.1,0-5.6-1-7.5-3.1
	c-1.9-2.1-2.8-4.9-2.8-8.5c0-3.4,1-6.2,2.9-8.4c1.9-2.2,4.5-3.3,7.8-3.3c3.2,0,5.7,1.1,7.4,3.3c1.8,2.2,2.6,5,2.6,8.5v0.6h-15.4
	c0,1.5,0.1,2.8,0.4,3.7s0.9,1.7,1.7,2.4c0.9,0.7,1.9,1,3.2,1C-343.8,402.9-342.1,401.6-341.2,399.2z M-341.5,392.5
	c0-1.6-0.5-2.9-1.5-4c-1-1-2.1-1.5-3.6-1.5c-1.4,0-2.6,0.5-3.5,1.4c-0.9,1-1.5,2.3-1.6,4.1H-341.5z"></path>
<path class="st1" d="M-312.8,406.4h-4.8c-0.4-1.4-0.7-2.9-0.8-4.5c-1.4,3.3-3.9,5-7.6,5c-2.2,0-4-0.7-5.4-2c-1.4-1.3-2-3-2-5
	c0-5.2,4.5-7.7,13.6-7.7c0.4,0,0.8,0,1.4,0v-1.7c0-2.3-1.6-3.5-4.8-3.5c-3.1,0-4.8,1.2-5.3,3.5l-4.3-0.6c0.2-1.9,1.2-3.4,2.9-4.6
	c1.7-1.2,4.1-1.8,7.3-1.8c1.7,0,3.2,0.1,4.3,0.4c1.1,0.3,2,0.8,2.8,1.5c0.8,0.7,1.3,1.4,1.6,2.2c0.3,0.8,0.4,2.2,0.4,4.1v10.2
	C-313.4,403.3-313.2,404.8-312.8,406.4z M-318.4,394.9c-6.6,0-9.8,1.6-9.8,4.7c0,0.9,0.3,1.7,1,2.4c0.7,0.7,1.7,1,3,1
	c1.9,0,3.4-0.6,4.4-1.8c1-1.2,1.5-2.6,1.5-4.2v-2.1H-318.4z"></path>
<path class="st1" d="M-297.4,402.4v4c-1.5,0.3-2.7,0.5-3.5,0.5c-1.4,0-2.5-0.3-3.5-0.8s-1.7-1.3-2.1-2.2c-0.5-0.9-0.7-2.4-0.7-4.4
	v-11.7h-2.8v-3.9h3.1l0.5-5.9l4.2-0.4v6.2h4.5v3.9h-4.5v11c0,1.4,0.3,2.4,0.8,2.9s1.5,0.8,2.9,0.8
	C-298.2,402.5-297.8,402.4-297.4,402.4z"></path>
<path class="st1" d="M-280.5,398.1l4.4,0.4c-0.6,2.8-1.7,4.9-3.3,6.3c-1.6,1.4-3.6,2-5.9,2c-3.1,0-5.5-1.1-7.2-3.4
	c-1.7-2.3-2.5-5-2.5-8.3c0-3.4,0.9-6.2,2.7-8.4c1.8-2.2,4.3-3.3,7.3-3.3c4.9,0,7.8,2.6,8.7,7.7l-4.4,0.6c-0.4-2.8-1.8-4.2-4.1-4.2
	c-1.7,0-3,0.8-3.8,2.3s-1.2,3.3-1.2,5.5c0,2.3,0.4,4,1.2,5.3c0.8,1.2,1.9,1.8,3.4,1.8C-282.7,402.4-281.2,401-280.5,398.1z"></path>
<path class="st1" d="M-263.9,406.8c-3.3,0-5.9-1.2-7.6-3.6c-1.8-2.4-2.6-5.1-2.6-8.2c0-3.3,1-6.1,2.9-8.3c1.9-2.2,4.5-3.3,7.7-3.3
	c3,0,5.5,1.1,7.4,3.2c1.9,2.2,2.9,5,2.9,8.4c0,3.5-1,6.4-3,8.6C-258.2,405.8-260.8,406.8-263.9,406.8z M-263.7,402.7
	c3.4,0,5.1-2.5,5.1-7.6c0-2.3-0.4-4.1-1.2-5.4c-0.8-1.3-2.1-2-3.8-2c-1.8,0-3.1,0.7-3.9,2.1c-0.8,1.4-1.3,3.2-1.3,5.5
	c0,2.4,0.4,4.3,1.3,5.6C-266.5,402-265.3,402.7-263.7,402.7z"></path>
<path class="st1" d="M-230.5,406.4h-4.7v-4.5c-1.3,3.3-3.5,5-6.6,5c-2.8,0-4.9-1.2-6.3-3.5c-1.5-2.3-2.2-5.2-2.2-8.6
	c0-3.2,0.8-5.9,2.3-8.3s3.7-3.5,6.5-3.5c2.9,0,4.9,1.3,6,4v-11h5.1v30.4H-230.5z M-235.6,393.1c0-1.8-0.4-3.2-1.3-4.3
	c-0.9-1-2-1.5-3.4-1.5c-1.5,0-2.7,0.7-3.5,2c-0.8,1.3-1.3,3.3-1.3,5.9c0,5,1.6,7.5,4.7,7.5c1.2,0,2.3-0.5,3.3-1.6s1.4-2.5,1.4-4.1
	v-3.9H-235.6z"></path>
<path class="st1" d="M-219.8,381.3h-5.1V376h5.1V381.3z M-219.8,406.4h-5.1v-22.5h5.1V406.4z"></path>
<path class="st1" d="M-195.5,406.4h-5.1v-14c0-1.5-0.3-2.6-1-3.4c-0.7-0.7-1.5-1.1-2.5-1.1c-1.3,0-2.5,0.6-3.5,1.7
	c-1,1.2-1.5,2.9-1.5,5.2v11.6h-5.1v-22.5h4.6v5.2c1.6-3.8,3.9-5.7,6.8-5.7c2,0,3.7,0.6,5.1,1.9c1.4,1.2,2.1,3.4,2.1,6.6v14.5H-195.5
	z"></path>
<path class="st1" d="M-169.3,379.6v3.9h-1.6c-0.7,0-1.3,0.1-1.8,0.2c-0.5,0.2-1,0.7-1.5,1.6c1.8,1.5,2.7,3.1,2.7,4.9
	c0,2-0.8,3.6-2.5,4.9c-1.7,1.3-3.9,2-6.6,2c-1.2,0-2.6-0.2-4.2-0.6c-1,0.5-1.6,1.2-1.6,2.2c0,0.5,0.3,1.1,0.8,1.5
	c0.5,0.5,1.3,0.7,2.3,0.7h6.7c2.3,0,4.1,0.6,5.4,1.8c1.3,1.2,1.9,2.6,1.9,4.4c0,2.1-1,3.9-2.9,5.3c-2,1.4-4.9,2.1-8.7,2.1
	c-7.3,0-10.9-2-10.9-6.1c0-2,1.1-3.5,3.3-4.6c-1.4-1.2-2.1-2.4-2.1-3.7c0-2,1.2-3.5,3.6-4.7c-2.1-1.3-3.1-3-3.1-5.2
	c0-1.9,0.8-3.5,2.3-4.8c1.5-1.3,3.9-2,7-2c1.4,0,2.9,0.2,4.3,0.5c0.7-2.9,2.5-4.3,5.4-4.3H-169.3L-169.3,379.6z M-186.4,405.2
	c-0.7,0.7-1.1,1.3-1.1,1.9c0,1,0.6,1.9,1.8,2.7c1.2,0.8,3.2,1.2,5.8,1.2c3.9,0,5.9-1,5.9-3c0-0.7-0.3-1.3-1-1.7
	c-0.7-0.4-1.5-0.6-2.3-0.6h-5.4C-183.8,405.7-185,405.5-186.4,405.2z M-180.8,394.1c2.8,0,4.1-1.3,4.1-3.9c0-1-0.3-1.8-1-2.5
	c-0.7-0.7-1.7-1-3-1s-2.4,0.4-3.1,1.1c-0.7,0.7-1.1,1.6-1.1,2.7s0.4,2,1.1,2.7C-183.1,393.7-182.1,394.1-180.8,394.1z"></path>
<g>
	<path class="st0" d="M-382.1,414.8h8.2v1.4h-6.7v3.4h6.2v1.3h-6.2v3.8h6.8v1.3h-8.3V414.8z"></path>
	<path class="st0" d="M-372.7,417.8h1.8l1.9,2.9l1.9-2.9h1.7l-2.8,4l2.9,4.2h-1.8l-2-3.1l-2,3.1h-1.8l2.9-4.2L-372.7,417.8z"></path>
	<path class="st0" d="M-358.6,418.3c0.6,0.5,0.9,1.2,1.1,2.3h-1.3c-0.1-0.5-0.3-0.9-0.6-1.3c-0.3-0.3-0.8-0.5-1.4-0.5
		c-0.9,0-1.5,0.4-1.9,1.3c-0.2,0.6-0.4,1.2-0.4,2.1c0,0.8,0.2,1.5,0.5,2.1c0.3,0.6,0.9,0.8,1.6,0.8c0.6,0,1-0.2,1.4-0.5
		c0.3-0.4,0.6-0.8,0.7-1.4h1.3c-0.2,1.1-0.5,1.9-1.2,2.4c-0.6,0.5-1.4,0.8-2.4,0.8c-1.1,0-1.9-0.4-2.6-1.2c-0.6-0.8-1-1.8-1-3
		c0-1.4,0.4-2.6,1.1-3.4c0.7-0.8,1.6-1.2,2.7-1.2S-359.2,417.8-358.6,418.3z"></path>
	<path class="st0" d="M-351.1,418c0.5,0.3,1,0.6,1.2,1.1c0.3,0.4,0.5,0.9,0.6,1.5c0.1,0.4,0.1,1,0.1,1.8h-6c0,0.8,0.2,1.5,0.6,2
		s0.9,0.8,1.7,0.8c0.7,0,1.3-0.2,1.7-0.7c0.2-0.3,0.4-0.6,0.5-1h1.4c0,0.3-0.2,0.6-0.4,1c-0.2,0.4-0.4,0.7-0.7,0.9
		c-0.4,0.4-0.9,0.7-1.6,0.8c-0.3,0.1-0.7,0.1-1.1,0.1c-1,0-1.9-0.4-2.6-1.1c-0.7-0.7-1.1-1.8-1.1-3.1c0-1.3,0.4-2.4,1.1-3.2
		c0.7-0.8,1.6-1.2,2.8-1.2C-352.2,417.6-351.6,417.8-351.1,418z M-350.6,421.3c-0.1-0.6-0.2-1.1-0.4-1.4c-0.4-0.7-1-1-1.9-1
		c-0.6,0-1.2,0.2-1.6,0.7s-0.7,1-0.7,1.8h4.6V421.3z"></path>
	<path class="st0" d="M-347.3,414.8h1.4v11.3h-1.4V414.8z"></path>
	<path class="st0" d="M-343.8,414.8h1.4v11.3h-1.4C-343.8,426.1-343.8,414.8-343.8,414.8z"></path>
	<path class="st0" d="M-335.3,418c0.5,0.3,1,0.6,1.2,1.1c0.3,0.4,0.5,0.9,0.6,1.5c0.1,0.4,0.1,1,0.1,1.8h-6c0,0.8,0.2,1.5,0.6,2
		c0.4,0.5,0.9,0.8,1.7,0.8c0.7,0,1.3-0.2,1.7-0.7c0.2-0.3,0.4-0.6,0.5-1h1.4c0,0.3-0.2,0.6-0.4,1c-0.2,0.4-0.4,0.7-0.7,0.9
		c-0.4,0.4-0.9,0.7-1.6,0.8c-0.3,0.1-0.7,0.1-1.1,0.1c-1,0-1.9-0.4-2.6-1.1c-0.7-0.7-1.1-1.8-1.1-3.1c0-1.3,0.4-2.4,1.1-3.2
		c0.7-0.8,1.6-1.2,2.8-1.2C-336.4,417.6-335.8,417.8-335.3,418z M-334.8,421.3c-0.1-0.6-0.2-1.1-0.4-1.4c-0.4-0.7-1-1-1.9-1
		c-0.6,0-1.2,0.2-1.6,0.7c-0.4,0.5-0.7,1-0.7,1.8h4.6V421.3z"></path>
	<path class="st0" d="M-331.6,417.8h1.3v1.2c0.4-0.5,0.8-0.8,1.2-1s0.9-0.3,1.5-0.3c1.2,0,2,0.4,2.4,1.2c0.2,0.4,0.3,1.1,0.3,1.9
		v5.3h-1.4v-5.2c0-0.5-0.1-0.9-0.2-1.2c-0.2-0.5-0.7-0.8-1.3-0.8c-0.3,0-0.6,0-0.8,0.1c-0.4,0.1-0.7,0.3-1,0.7
		c-0.2,0.3-0.4,0.6-0.5,0.8c-0.1,0.3-0.1,0.7-0.1,1.2v4.3h-1.4V417.8z"></path>
	<path class="st0" d="M-317.4,418.3c0.6,0.5,0.9,1.2,1.1,2.3h-1.3c-0.1-0.5-0.3-0.9-0.6-1.3c-0.3-0.3-0.8-0.5-1.4-0.5
		c-0.9,0-1.5,0.4-1.9,1.3c-0.2,0.6-0.4,1.2-0.4,2.1c0,0.8,0.2,1.5,0.5,2.1c0.3,0.6,0.9,0.8,1.6,0.8c0.6,0,1-0.2,1.4-0.5
		c0.3-0.4,0.6-0.8,0.7-1.4h1.3c-0.2,1.1-0.5,1.9-1.2,2.4c-0.6,0.5-1.4,0.8-2.4,0.8c-1.1,0-1.9-0.4-2.6-1.2c-0.6-0.8-1-1.8-1-3
		c0-1.4,0.4-2.6,1.1-3.4c0.7-0.8,1.6-1.2,2.7-1.2S-317.9,417.8-317.4,418.3z"></path>
	<path class="st0" d="M-309.8,418c0.5,0.3,1,0.6,1.2,1.1c0.3,0.4,0.5,0.9,0.6,1.5c0.1,0.4,0.1,1,0.1,1.8h-6c0,0.8,0.2,1.5,0.6,2
		c0.4,0.5,0.9,0.8,1.7,0.8c0.7,0,1.3-0.2,1.7-0.7c0.2-0.3,0.4-0.6,0.5-1h1.4c0,0.3-0.2,0.6-0.4,1c-0.2,0.4-0.4,0.7-0.7,0.9
		c-0.4,0.4-0.9,0.7-1.6,0.8c-0.3,0.1-0.7,0.1-1.1,0.1c-1,0-1.9-0.4-2.6-1.1c-0.7-0.7-1.1-1.8-1.1-3.1c0-1.3,0.4-2.4,1.1-3.2
		c0.7-0.8,1.6-1.2,2.8-1.2C-310.9,417.6-310.4,417.8-309.8,418z M-309.3,421.3c-0.1-0.6-0.2-1.1-0.4-1.4c-0.4-0.7-1-1-1.9-1
		c-0.6,0-1.2,0.2-1.6,0.7c-0.4,0.5-0.7,1-0.7,1.8h4.6V421.3z"></path>
	<path class="st0" d="M-301.5,415.5h1.4v2.3h1.3v1.2h-1.3v5.4c0,0.3,0.1,0.5,0.3,0.6c0.1,0.1,0.3,0.1,0.5,0.1c0.1,0,0.1,0,0.2,0
		s0.2,0,0.3,0v1.1c-0.2,0-0.3,0.1-0.5,0.1c-0.2,0-0.4,0-0.6,0c-0.6,0-1.1-0.2-1.3-0.5c-0.2-0.3-0.3-0.8-0.3-1.3V419h-1.1v-1.1h1.1
		V415.5L-301.5,415.5z"></path>
	<path class="st0" d="M-297.4,414.7h1.4v4.2c0.3-0.4,0.6-0.7,0.9-0.9c0.4-0.3,1-0.4,1.7-0.4c1.2,0,2,0.4,2.4,1.3
		c0.2,0.5,0.3,1.1,0.3,1.9v5.3h-1.4v-5.2c0-0.6-0.1-1-0.2-1.3c-0.3-0.5-0.7-0.7-1.4-0.7c-0.6,0-1.1,0.2-1.6,0.6s-0.7,1.1-0.7,2.2
		v4.4h-1.4V414.7z"></path>
	<path class="st0" d="M-284.2,421.1c0.3,0,0.5-0.2,0.6-0.4c0.1-0.1,0.1-0.3,0.1-0.5c0-0.5-0.2-0.8-0.5-1c-0.3-0.2-0.8-0.3-1.4-0.3
		c-0.7,0-1.2,0.2-1.5,0.6c-0.2,0.2-0.3,0.5-0.3,1h-1.3c0-1,0.4-1.7,1-2.1c0.6-0.4,1.4-0.6,2.2-0.6c1,0,1.8,0.2,2.4,0.6
		s0.9,0.9,0.9,1.7v4.8c0,0.1,0,0.3,0.1,0.3c0.1,0.1,0.2,0.1,0.4,0.1c0.1,0,0.1,0,0.2,0c0.1,0,0.2,0,0.2,0v1
		c-0.2,0.1-0.4,0.1-0.5,0.1s-0.3,0-0.5,0c-0.5,0-0.8-0.2-1-0.5c-0.1-0.2-0.2-0.4-0.2-0.8c-0.3,0.4-0.7,0.7-1.2,1
		c-0.5,0.3-1.1,0.4-1.7,0.4c-0.8,0-1.4-0.2-1.9-0.7s-0.7-1-0.7-1.7c0-0.8,0.2-1.4,0.7-1.8c0.5-0.4,1.1-0.7,1.9-0.8L-284.2,421.1z
		 M-287.1,424.8c0.3,0.2,0.6,0.3,1,0.3c0.5,0,1-0.1,1.4-0.3c0.8-0.4,1.2-1,1.2-1.8v-1.1c-0.2,0.1-0.4,0.2-0.7,0.3
		c-0.3,0.1-0.5,0.1-0.8,0.2l-0.8,0.1c-0.5,0.1-0.9,0.2-1.1,0.3c-0.4,0.2-0.6,0.6-0.6,1.2C-287.5,424.3-287.4,424.6-287.1,424.8z"></path>
	<path class="st0" d="M-279.5,415.5h1.4v2.3h1.3v1.2h-1.3v5.4c0,0.3,0.1,0.5,0.3,0.6c0.1,0.1,0.3,0.1,0.5,0.1c0.1,0,0.1,0,0.2,0
		s0.2,0,0.3,0v1.1c-0.2,0-0.3,0.1-0.5,0.1c-0.2,0-0.4,0-0.6,0c-0.6,0-1.1-0.2-1.3-0.5c-0.2-0.3-0.3-0.8-0.3-1.3V419h-1.1v-1.1h1.1
		V415.5L-279.5,415.5z"></path>
	<path class="st0" d="M-270.1,414.8l2.1,9.2l2.6-9.2h1.7l2.6,9.2l2.1-9.2h1.7l-3,11.3h-1.7l-2.6-9.4l-2.6,9.4h-1.6l-3-11.3H-270.1z"></path>
	<path class="st0" d="M-250.5,418.6c0.7,0.7,1.1,1.8,1.1,3.1c0,1.3-0.3,2.4-1,3.3c-0.6,0.9-1.6,1.3-3,1.3c-1.1,0-2-0.4-2.7-1.2
		c-0.7-0.8-1-1.8-1-3.1c0-1.4,0.3-2.5,1-3.3c0.7-0.8,1.6-1.2,2.8-1.2C-252.1,417.6-251.2,417.9-250.5,418.6z M-251.3,424.1
		c0.3-0.7,0.5-1.5,0.5-2.3c0-0.8-0.1-1.4-0.4-1.9c-0.4-0.8-1.1-1.1-2-1.1c-0.8,0-1.4,0.3-1.8,1c-0.4,0.6-0.6,1.4-0.6,2.3
		s0.2,1.6,0.6,2.2c0.4,0.6,1,0.9,1.8,0.9C-252.3,425.2-251.7,424.8-251.3,424.1z"></path>
	<path class="st0" d="M-247.6,417.8h1.3v1.4c0.1-0.3,0.4-0.6,0.8-1c0.4-0.4,0.9-0.6,1.5-0.6h0.1c0.1,0,0.2,0,0.3,0v1.5
		c-0.1,0-0.2,0-0.2,0c-0.1,0-0.1,0-0.2,0c-0.7,0-1.2,0.2-1.6,0.7c-0.4,0.4-0.6,1-0.6,1.6v4.7h-1.4L-247.6,417.8L-247.6,417.8z"></path>
	<path class="st0" d="M-242.4,414.8h1.3v6.6l3.6-3.5h1.8l-3.2,3.1l3.3,5.2h-1.8l-2.6-4.2l-1.1,1.1v3.1h-1.3V414.8z"></path>
	<path class="st0" d="M-233.7,423.5c0,0.5,0.2,0.8,0.4,1.1c0.4,0.4,1,0.7,1.9,0.7c0.5,0,1-0.1,1.4-0.3s0.6-0.6,0.6-1
		c0-0.4-0.2-0.6-0.5-0.8c-0.2-0.1-0.6-0.2-1.2-0.4l-1.1-0.3c-0.7-0.2-1.2-0.4-1.6-0.6c-0.6-0.4-0.9-0.9-0.9-1.6
		c0-0.8,0.3-1.4,0.9-1.9c0.6-0.5,1.3-0.7,2.3-0.7c1.3,0,2.2,0.4,2.7,1.1c0.3,0.5,0.5,1,0.5,1.5h-1.3c0-0.3-0.1-0.6-0.3-0.9
		c-0.3-0.4-0.9-0.5-1.7-0.5c-0.5,0-0.9,0.1-1.2,0.3c-0.3,0.2-0.4,0.5-0.4,0.8c0,0.4,0.2,0.6,0.5,0.9c0.2,0.1,0.5,0.2,0.9,0.3
		l0.9,0.2c1,0.2,1.7,0.5,2,0.7c0.5,0.4,0.8,0.9,0.8,1.7c0,0.7-0.3,1.4-0.8,1.9c-0.6,0.5-1.4,0.8-2.6,0.8c-1.2,0-2.1-0.3-2.6-0.8
		c-0.5-0.6-0.8-1.2-0.8-2.1L-233.7,423.5L-233.7,423.5z"></path>
</g>
<path class="st2" d="M-435.3,392.6c3.8,0,6.8,3,6.8,6.8c0,3.8-3,6.8-6.8,6.8c-3.8,0-6.8-3-6.8-6.8
	C-442.1,395.6-439.1,392.6-435.3,392.6z"></path>
<path class="st2" d="M-419.1,392.6c3.8,0,6.8,3,6.8,6.8c0,3.8-3,6.8-6.8,6.8c-3.8,0-6.8-3-6.8-6.8
	C-425.9,395.6-422.8,392.6-419.1,392.6z"></path>
<path class="st2" d="M-402.9,392.6c3.8,0,6.8,3,6.8,6.8c0,3.8-3,6.8-6.8,6.8c-3.8,0-6.8-3-6.8-6.8
	C-409.7,395.6-406.6,392.6-402.9,392.6z"></path>
<path class="st2" d="M-387,392.6c-3.6,0.2-6.5,3.1-6.5,6.8c0,3.7,2.9,6.6,6.5,6.8V392.6z"></path>
</svg>
