<?xml version="1.0"?>

<svg xmlns:dc="http://purl.org/dc/elements/1.1/" xmlns:cc="http://creativecommons.org/ns#" xmlns:rdf="http://www.w3.org/1999/02/22-rdf-syntax-ns#" xmlns:svg="http://www.w3.org/2000/svg" xmlns="http://www.w3.org/2000/svg" xml:space="preserve" enable-background="new 0 0 269.553 154.412" viewBox="0 0 335.6 220.4" height="220.4" width="335.6" y="0px" x="0px" id="Layer_1" version="1.1"><defs id="defs246"></defs><path d="m 276.9,33.76 h 25.7 V 185 h -25.7 z m -43.6,88.34 c -1.4,-6.8 -4.1,-12.4 -8,-17.6 -8,-10.57 -21,-17.24 -38.5,-17.24 -27.3,0 -44.1,18.54 -49,38.04 -4.5,-13.8 -16.5,-23.1 -29.1,-26.97 9.5,-6.92 14.5,-16.82 14.5,-28.11 0,-10.49 -4.4,-20.04 -11.7,-26.25 C 100.8,34.86 86.2,33 68.2,33 54.37,33 49.16,33 33,33 v 152 c 9.97,0 20.22,-0.1 30.21,0 8.89,0 17.58,0 25.67,-0.4 25.62,-1 43.22,-13.9 48.82,-33.3 1.9,8.7 5.6,15.7 10.4,21 9.9,10.9 24.2,15.1 38.6,15.1 17.8,0 30.6,-5.1 39.4,-13 l -12.6,-14.8 c -6.3,4.8 -14.4,7.6 -23.5,7.6 -17.9,-0.1 -25.8,-11.4 -26.5,-22.2 h 69.8 v 40 h 26.1 V 33.76 H 233.3 Z M 59.85,53.53 h 7.26 c 7.01,0 12.55,0.75 16.54,2.3 7.87,3.05 11.62,9.32 11.62,17.14 0,6.61 -2.52,17 -16.43,19.84 -2.33,0.48 -5.68,0.74 -10.42,0.74 -6.69,0 -8.57,0 -8.57,0 z M 89.39,162.7 c -3.27,0.6 -7.27,0.8 -10.52,0.8 -9.83,0 -19.02,0 -19.02,0 v -49.6 c 0,0 9.99,0 17.02,0 5.37,0 11.45,0.6 14.94,1.5 11.89,3.1 18.79,11.7 18.79,23 0,11.8 -6.3,21.6 -21.21,24.3 z M 164,126.1 c 2.3,-11.1 10.5,-19.1 22.6,-19.1 12,0 20.1,7.2 22.1,19.1 z" id="rect237"></path><metadata id="metadata4408"><rdf:rdf><cc:work rdf:about=""><dc:title></dc:title></cc:work></rdf:rdf></metadata></svg>