<?xml version="1.0"?>

<!-- Generator: Adobe Illustrator 19.1.0, SVG Export Plug-In . SVG Version: 6.00 Build 0)  -->
<svg version="1.1" id="Layer_1" xmlns="http://www.w3.org/2000/svg" xmlns:xlink="http://www.w3.org/1999/xlink" x="0px" y="0px" width="239.256px" height="200px" viewBox="-179 0 239.256 200" enable-background="new -179 0 239.256 200" xml:space="preserve">
<g>
	<path d="M-144.095,124.132c0.633-0.629,1.261-1.263,1.901-1.885c0.705-0.685,1.355-1.423,2.094-2.077
		c0.289-0.256,0.441-0.281,0.712-0.013c0.994,0.982,1.975,1.98,2.98,2.948c0.765,0.737,1.513,1.502,2.271,2.244
		c0.648,0.636,1.295,1.301,1.94,1.947c0.78,0.781,1.505,1.621,2.358,2.337c0.491,0.413,0.87,0.959,1.299,1.445
		c-0.09,0.078-0.173,0.088-0.246-0.022c-0.941-1.07-1.996-2.029-2.98-3.056c-0.739-0.771-1.517-1.506-2.257-2.276
		c-0.619-0.644-1.258-1.285-1.911-1.904c-0.821-0.777-1.586-1.613-2.387-2.412c-0.4-0.4-0.825-0.776-1.24-1.161
		c-0.145-0.134-0.267-0.076-0.372,0.057c-0.43,0.542-1.007,0.936-1.495,1.42c-0.825,0.819-1.519,1.796-2.539,2.414
		C-144.014,124.195-144.056,124.192-144.095,124.132z"></path>
	<path d="M-124.195,135.495c0.433,0.083,0.498,0.547,0.791,0.768c0.875,0.658,1.546,1.529,2.327,2.282
		c0.653,0.63,1.301,1.296,1.943,1.947c0.79,0.799,1.583,1.603,2.424,2.36c0.968,0.872,1.96,1.712,2.966,2.537
		c0.068,0.052,0.063,0.095-0.018,0.127c-1.015-0.533-1.827-1.328-2.656-2.093c-1.274-1.176-2.545-2.358-3.765-3.589
		c-0.648-0.654-1.282-1.323-1.94-1.968c-0.775-0.76-1.512-1.56-2.265-2.342C-124.334,135.446-124.269,135.437-124.195,135.495z"></path>
	<path d="M-131.566,76.924c-0.749,0.871-1.605,1.643-2.416,2.448c-0.661,0.656-1.286,1.359-1.996,1.978
		c-0.814,0.71-1.513,1.552-2.276,2.322c-0.659,0.666-1.322,1.329-2.014,1.96c-0.328,0.299-0.679,0.566-0.899,0.96
		c-0.18,0.324-0.431,0.567-0.77,0.719c-0.071,0.05-0.127,0.037-0.167-0.041c0.819-0.858,1.588-1.773,2.472-2.558
		c0.815-0.724,1.449-1.621,2.332-2.278c0.565-0.421,1.024-0.999,1.485-1.514c0.629-0.703,1.344-1.315,1.993-1.988
		c0.714-0.739,1.338-1.598,2.249-2.139c0.042,0.027,0.057,0.056,0.045,0.085C-131.54,76.909-131.553,76.924-131.566,76.924z"></path>
	<path d="M-113.762,145.515c0.006-0.042,0.012-0.084,0.018-0.127c0.657,0.371,1.252,0.852,1.888,1.232
		c2.218,1.327,4.562,2.362,7.254,1.853c0.686-0.13,1.336-0.453,2.003-0.687c-0.882,0.76-1.967,0.897-3.063,0.973
		c-1.666,0.116-3.154-0.41-4.652-1.114C-111.56,147.06-112.614,146.224-113.762,145.515z"></path>
	<path d="M-117.163,57.453c-0.401-0.029-0.671-0.332-1.01-0.489c-1.38-0.636-2.834-0.719-4.32-0.598
		c-0.999,0.081-1.941,0.318-2.757,0.935c-0.43,0.382-0.95,0.558-1.503,0.658c0.681-0.555,1.451-0.981,2.257-1.289
		c2.536-0.971,4.998-0.77,7.342,0.635c0.036,0.035,0.047,0.069,0.032,0.101C-117.137,57.437-117.15,57.453-117.163,57.453z"></path>
	<path d="M-117.163,57.453c0.003-0.05,0.006-0.099,0.009-0.149c0.93,0.393,1.726,1.008,2.578,1.519
		c0.874,0.525,1.513,1.291,2.365,1.825c0.684,0.429,1.173,1.172,1.887,1.625c0.15,0.095,0.151,0.29,0.133,0.463
		c-0.874-0.702-1.7-1.463-2.539-2.203c-0.781-0.688-1.663-1.233-2.436-1.919C-115.756,58.091-116.528,57.891-117.163,57.453z"></path>
	<path d="M-131.566,76.924c-0.002-0.044-0.004-0.087-0.006-0.131c0.404-0.264,0.104-0.449-0.08-0.63
		c-1.382-1.363-2.713-2.779-4.158-4.077c-0.077-0.069-0.139-0.155-0.207-0.233c-0.067-0.075-0.069-0.154-0.013-0.236
		c0.755,0.54,1.337,1.262,1.997,1.902c0.888,0.861,1.751,1.748,2.63,2.618C-131.047,76.493-130.983,76.771-131.566,76.924z"></path>
	<path d="M-96.028,128.014c0.006-0.25,0.141-0.442,0.313-0.596c0.678-0.608,1.28-1.297,1.942-1.914
		c0.812-0.756,1.485-1.667,2.439-2.27c-0.055,0.132-0.073,0.336-0.171,0.386c-0.859,0.442-1.346,1.282-2.003,1.925
		c-0.818,0.8-1.787,1.484-2.377,2.507C-95.946,128.088-95.993,128.073-96.028,128.014z"></path>
	<path d="M-160.04,109.354c-0.178,2.259,0.774,4.16,1.897,6.008c0.054,0.073,0.04,0.131-0.04,0.174
		c-1.431-2.025-2.419-4.173-1.887-6.747C-159.933,108.97-159.989,109.162-160.04,109.354z"></path>
	<path d="M-136.031,71.618c0.004,0.079,0.009,0.157,0.013,0.236c-0.844-0.663-1.519-1.499-2.299-2.228
		c-0.251-0.235-0.279-0.506-0.082-0.79c0.107-0.155,0.198-0.34,0.345-0.445c0.633-0.453,1.101-1.066,1.629-1.621
		c0.061-0.051,0.116-0.045,0.164,0.019c-0.454,0.617-0.953,1.173-1.571,1.652c-0.692,0.536-0.647,0.764-0.027,1.374
		C-137.252,70.416-136.641,71.017-136.031,71.618z"></path>
	<path d="M-128.787,131.056c0.082,0.007,0.164,0.015,0.246,0.022c0.671,0.673,1.354,1.334,2.008,2.023
		c0.315,0.332,0.599,0.69,0.987,0.946c0.209,0.138,0.413,0.289,0.452,0.567c-0.051,0.067-0.109,0.073-0.173,0.019
		C-126.514,133.513-127.701,132.334-128.787,131.056z"></path>
	<path d="M-160.04,109.354c-0.01-0.188-0.02-0.377-0.03-0.565c0.246-1.351,1.01-2.505,1.453-3.783
		c0.113-0.326,0.393-0.586,0.723-0.75c-0.712,0.989-1.042,2.164-1.576,3.239C-159.766,108.089-159.745,108.767-160.04,109.354z"></path>
	<path d="M-88.418,84.504c-0.327-0.114-0.546-0.382-0.784-0.602c-0.657-0.606-1.278-1.249-1.911-1.881
		c-0.117-0.117-0.244-0.236-0.219-0.428c1.024,0.75,1.727,1.844,2.759,2.588C-88.476,84.251-88.399,84.362-88.418,84.504z"></path>
	<path d="M-136.263,66.789c-0.054-0.006-0.109-0.012-0.164-0.019c0.946-0.918,1.891-1.836,2.837-2.754
		c0.047,0.088,0.08,0.173-0.053,0.217c-0.287,0.46-0.628,0.851-1.118,1.124c-0.428,0.239-0.552,0.773-0.909,1.089
		C-135.838,66.594-136.063,66.676-136.263,66.789z"></path>
	<path d="M-91.708,132.968c-0.562-0.266-1.051-0.606-1.33-1.195c-0.12-0.254-0.368-0.395-0.609-0.531
		c-0.42-0.237-0.717-0.577-0.856-1.046c0.044-0.061,0.089-0.059,0.134-0.001c0.243,0.421,0.554,0.77,0.995,0.998
		c0.126,0.065,0.273,0.16,0.327,0.279C-92.754,132.113-92.119,132.439-91.708,132.968z"></path>
	<path d="M-126.754,57.959c0.501-0.219,1.002-0.439,1.503-0.658c-0.026,0.166-0.146,0.26-0.283,0.313
		c-0.978,0.376-1.786,1.006-2.559,1.691c-0.132,0.117-0.286,0.174-0.466,0.134C-127.957,58.945-127.355,58.452-126.754,57.959z"></path>
	<path d="M-84.877,116.782c0.771-0.831,1.557-1.647,2.404-2.403c-0.008,0.083,0.016,0.206-0.03,0.242
		C-83.339,115.293-83.847,116.325-84.877,116.782z"></path>
	<path d="M-94.369,130.195c-0.045,0-0.09,0.001-0.134,0.001c-0.636-0.412-1.262-0.835-1.651-1.517
		c-0.038-0.164-0.307-0.286-0.088-0.495c0.071-0.057,0.143-0.114,0.214-0.17c0.048,0.013,0.095,0.025,0.143,0.038
		c-0.167,0.712,0.298,1.116,0.761,1.499C-94.869,129.762-94.549,129.895-94.369,130.195z"></path>
	<path d="M-104.364,68.55c-0.853-0.748-1.635-1.567-2.409-2.395c0.417,0.123,0.744,0.364,0.99,0.723
		c0.263,0.385,0.59,0.704,0.976,0.968C-104.563,68.013-104.328,68.2-104.364,68.55z"></path>
	<path d="M-100.84,146.887c0.505-0.456,0.903-1.043,1.598-1.266c0.315-0.101,0.417-0.462,0.693-0.619
		c0.017,0.156-0.033,0.317-0.145,0.394C-99.412,145.89-100.049,146.5-100.84,146.887z"></path>
	<path d="M-143.103,88.551c-0.787,0.604-1.231,1.565-2.131,2.051c-0.062,0.05-0.113,0.041-0.152-0.028
		c0.611-0.529,1.185-1.091,1.681-1.734C-143.575,88.67-143.36,88.531-143.103,88.551z"></path>
	<path d="M-101.854,70.971c-0.293-0.088-0.494-0.301-0.694-0.512c-0.439-0.463-0.876-0.928-1.314-1.392
		c0.434,0.132,0.773,0.384,1.02,0.768c0.298,0.464,0.756,0.766,1.164,1.119C-101.732,71.021-101.79,71.027-101.854,70.971z"></path>
	<path d="M-145.387,90.574c0.051,0.009,0.101,0.019,0.152,0.028c-0.312,0.793-0.977,1.221-1.672,1.618
		c0.01-0.241,0.19-0.39,0.36-0.473C-146.015,91.489-145.688,91.048-145.387,90.574z"></path>
	<path d="M-69.943,88.807c-0.337-0.03-0.499-0.302-0.674-0.526c-0.344-0.441-0.655-0.908-0.98-1.364
		c0.297,0.087,0.544,0.271,0.66,0.542C-70.71,87.993-70.262,88.35-69.943,88.807z"></path>
	<path d="M-144.095,124.132c0.042,0.003,0.085,0.005,0.127,0.008c-0.261,0.675-0.674,1.192-1.418,1.365
		C-144.938,125.064-144.385,124.722-144.095,124.132z"></path>
	<path d="M-131.816,62.362c-0.285,0.468-0.473,1.017-1.038,1.253c0.049-0.362,0.339-0.585,0.509-0.878
		C-132.205,62.562-132.066,62.383-131.816,62.362z"></path>
	<path d="M-82.728,79.825c-0.274,0.57-0.696,0.99-1.265,1.266C-83.63,80.61-83.204,80.193-82.728,79.825z"></path>
	<path d="M-142.103,87.27c0.056,0.014,0.111,0.027,0.167,0.041c-0.503,0.306-0.588,1.005-1.166,1.24
		C-142.811,88.091-142.587,87.579-142.103,87.27z"></path>
	<path d="M-125.267,134.633c0.058-0.006,0.115-0.013,0.173-0.019c0.3,0.294,0.6,0.587,0.899,0.881
		c-0.064,0.009-0.129,0.019-0.193,0.028C-124.765,135.309-125.036,134.991-125.267,134.633z"></path>
	<path d="M-132.346,62.737c-0.051,0.361-0.301,0.607-0.509,0.878l0.001-0.001c-0.147,0.099-0.273,0.264-0.487,0.157
		C-133.008,63.427-132.677,63.082-132.346,62.737z"></path>
	<path d="M-101.845,147.403c0.284-0.274,0.653-0.381,1.008-0.517C-101.074,147.252-101.423,147.397-101.845,147.403z"></path>
	<path d="M-101.854,70.971c0.058-0.006,0.116-0.011,0.175-0.017c0.223,0.217,0.403,0.459,0.474,0.769
		C-101.535,71.57-101.641,71.224-101.854,70.971z"></path>
	<path d="M-133.34,63.772c0.162-0.052,0.324-0.105,0.487-0.157c-0.2,0.286-0.483,0.468-0.789,0.619
		c0.018-0.072,0.036-0.145,0.053-0.217C-133.506,63.935-133.423,63.853-133.34,63.772z"></path>
	<path d="M-158.183,115.535c0.013-0.058,0.027-0.116,0.04-0.174c0.116,0.113,0.25,0.216,0.24,0.405
		C-158.055,115.76-158.126,115.656-158.183,115.535z"></path>
	<path d="M-69.714,100.684c0-0.211,0.045-0.397,0.265-0.489C-69.43,100.415-69.527,100.574-69.714,100.684z"></path>
	<path d="M-69.943,88.807c-0.382-0.234-0.672-0.568-0.869-0.954c-0.194-0.381-0.447-0.688-0.785-0.935
		c-0.676-0.992-1.579-1.788-2.393-2.654c-0.553-0.588-1.129-1.173-1.724-1.728c-0.87-0.812-1.695-1.666-2.526-2.517
		c-0.612-0.626-1.255-1.224-1.855-1.864c-0.356-0.38-0.685-0.357-1.046,0.047c-0.503,0.564-1.056,1.084-1.587,1.623
		c-0.373,0.471-0.795,0.891-1.265,1.266c-1.138,1.139-2.29,2.263-3.405,3.424c-0.388,0.404-0.685,0.531-1.02-0.011
		c-0.187-0.196-0.377-0.388-0.573-0.576c-0.795-0.763-1.621-1.497-2.342-2.335c-0.553-0.682-1.226-1.254-1.843-1.867
		c-0.503-0.5-0.936-1.077-1.489-1.522c-0.885-0.712-1.616-1.58-2.409-2.38c-0.629-0.636-1.264-1.283-1.903-1.901
		c-0.749-0.726-1.406-1.551-2.229-2.2c-0.223-0.258-0.364-0.578-0.62-0.81c-0.312-0.182-0.601-0.405-0.81-0.693
		c-0.339-0.466-0.742-0.85-1.227-1.154c-0.167-0.172-0.334-0.344-0.502-0.516c-0.102-0.129-0.096-0.327-0.251-0.42
		c-0.853-0.512-1.285-1.485-2.158-1.975c-0.433-0.275-0.619-0.776-1.015-1.091c-0.876-0.697-1.587-1.567-2.403-2.328
		c-0.1-0.568-0.681-0.628-1.011-0.953c-1.038-1.02-2.185-1.9-3.346-2.78c-0.862-0.654-1.754-1.193-2.711-1.657
		c-1.083-0.538-2.151-1.064-3.417-1.112c-1.623-0.062-3.183,0.044-4.604,0.923c-0.113,0.186-0.271,0.32-0.474,0.387
		c-0.482,0.16-0.858,0.471-1.264,0.763c-0.517,0.372-0.925,0.897-1.54,1.132c-0.773,0.561-1.4,1.287-2.148,1.882
		c-0.388,0.309-0.622,0.815-1.109,1.042c-0.412,0.312-0.654,0.776-1.016,1.133c-0.048,0.031-0.093,0.066-0.136,0.103
		c-0.277,0.157-0.432,0.466-0.735,0.59c-0.799,0.924-1.665,1.781-2.597,2.57c-0.532,0.573-0.961,1.247-1.653,1.664
		c-0.162,0.097-0.224,0.302-0.347,0.44c-0.24,0.269-0.182,0.467,0.057,0.695c0.729,0.695,1.403,1.446,2.152,2.122
		c1.611,1.437,3.087,3.012,4.625,4.523c0.32,0.314,0.299,0.533-0.158,0.653c-0.774,0.631-1.335,1.48-2.134,2.087
		c-0.075,0.057-0.115,0.173-0.17,0.262c-0.113,0.183-0.265,0.318-0.441,0.434c-0.88,0.58-1.372,1.566-2.251,2.151
		c-0.125,0.083-0.196,0.269-0.281,0.413c-0.09,0.153-0.211,0.251-0.355,0.344c-0.905,0.584-1.425,1.575-2.304,2.19
		c-0.093,0.065-0.139,0.207-0.207,0.312c-0.116,0.181-0.249,0.331-0.441,0.435c-0.457,0.245-0.8,0.613-1.055,1.057
		c-0.174,0.302-0.402,0.533-0.705,0.697c-0.492,0.339-0.68,0.941-1.133,1.313h-0.001c-0.252,0.183-0.579,0.291-0.736,0.569
		c-0.349,0.617-0.891,1.024-1.442,1.429c-0.317,0.776-1.074,1.123-1.625,1.671c-0.207,0.234-0.306,0.555-0.6,0.721
		c-0.909,0.512-1.346,1.531-2.237,2.079c-0.283,0.174-0.332,0.638-0.663,0.822c-0.914,0.51-1.328,1.558-2.243,2.073
		c-0.145,0.082-0.215,0.306-0.308,0.47c-0.084,0.149-0.178,0.28-0.327,0.375c-0.952,0.605-1.538,1.576-2.284,2.378
		c-0.879,0.943-1.664,1.994-2.325,3.119c-0.177,0.262-0.498,0.425-0.606,0.719c-0.538,1.464-1.364,2.822-1.616,4.39
		c-0.236,2.251,0.745,4.126,1.844,5.964c0.138,0.133,0.236,0.299,0.369,0.437c0.805,1.174,1.82,2.178,2.679,3.308
		c0.257,0.339,0.659,0.504,0.916,0.858c0.653,0.898,1.51,1.615,2.309,2.373c0.663,0.63,1.309,1.291,1.939,1.942
		c0.737,0.762,1.607,1.407,2.224,2.289c0.09,0.129,0.276,0.189,0.406,0.295c0.246,0.201,0.46,0.18,0.738,0.018
		c0.568-0.33,0.91-0.86,1.307-1.345c0.589-0.308,1.075-0.72,1.343-1.348c0.259-0.366,0.679-0.549,0.976-0.881
		c0.932-1.041,1.96-1.988,2.949-2.974c0.301-0.3,0.477-0.279,0.755,0.012c0.534,0.557,1.149,1.032,1.636,1.64
		c0.275,0.343,0.708,0.517,0.978,0.88c0.638,0.86,1.46,1.552,2.23,2.279c0.682,0.643,1.331,1.327,1.987,1.988
		c0.777,0.782,1.574,1.554,2.342,2.348c0.536,0.555,1.041,1.137,1.575,1.693c1.086,1.109,2.115,2.277,3.31,3.277
		c0.062,0.052,0.086,0.142,0.129,0.214c0.29,0.335,0.614,0.636,0.937,0.938c0.569,0.313,0.806,0.943,1.307,1.341
		c0.797,0.633,1.468,1.413,2.179,2.143c0.742,0.763,1.492,1.521,2.268,2.244c0.653,0.609,1.258,1.266,1.937,1.855
		c0.932,0.809,1.862,1.614,2.857,2.343c0.439,0.358,1.027,0.494,1.419,0.916c0.384,0.413,0.849,0.676,1.378,0.829
		c0.327,0.094,0.604,0.273,0.899,0.428c0.754,0.397,1.525,0.826,2.369,0.918c1.734,0.188,3.468,0.194,5.026-0.802
		c0.251-0.128,0.503-0.256,0.754-0.384c0.35-0.144,0.714-0.264,1.008-0.517l-0.003,0.001c0.551-0.219,0.765-0.873,1.357-1.045
		c0.441-0.128,0.747-0.421,0.933-0.839c0.733-0.614,1.398-1.307,2.123-1.922c0.719-0.61,1.352-1.309,2.009-1.966
		c0.763-0.763,1.521-1.554,2.297-2.303c0.672-0.648,1.198-1.452,2.021-1.962c0.321-0.199,0.515-0.599,0.773-0.902
		c0.092-0.108,0.163-0.263,0.055-0.331c-0.519-0.328-0.651-1.015-1.15-1.306c-0.576-0.336-0.941-0.816-1.287-1.342
		c-0.349-0.375-0.916-0.507-1.13-1.033c-0.13-0.318-0.362-0.545-0.667-0.711c-0.429-0.234-0.75-0.578-0.949-1.029
		c-0.543-0.496-1.25-0.824-1.574-1.543c-0.098-0.11-0.168-0.225-0.082-0.375c0.066-0.092,0.137-0.182,0.16-0.297
		c0.21-0.502,0.615-0.837,1.022-1.163c0.141-0.113,0.361-0.115,0.462-0.301c0.557-1.023,1.607-1.591,2.312-2.485
		c0.223-0.283,0.655-0.411,0.819-0.797c0.612-0.648,1.393-1.127,1.883-1.898c0.054-0.085,0.144-0.157,0.234-0.207
		c0.832-0.465,1.367-1.279,1.998-1.93c0.777-0.801,1.659-1.521,2.344-2.417c0.246-0.227,0.59-0.337,0.785-0.619
		c0.325-0.471,0.711-0.872,1.192-1.186c0.216-0.141,0.337-0.361,0.427-0.598c1.132-1.142,2.224-2.327,3.406-3.415
		c1.214-1.118,2.305-2.356,3.525-3.47c0.563-0.514,1.159-1.043,1.619-1.655c0.617-0.82,1.373-1.509,2.028-2.292
		c0.774-0.926,1.435-1.925,2.181-2.864c0.129-0.141,0.139-0.347,0.265-0.489c0.184-0.354,0.324-0.741,0.561-1.055
		c0.899-1.192,1.01-2.616,1.133-4.004C-67.539,92.723-68.64,90.719-69.943,88.807z M-95.306,103.193
		c-0.124,0.079-0.289,0.132-0.345,0.264c-0.305,0.713-0.96,1.078-1.504,1.555l0.009,0.004c-0.316,0.496-0.654,0.97-1.228,1.202
		c-0.172,0.07-0.232,0.235-0.313,0.377c-0.265,0.463-0.664,0.794-1.074,1.115c-0.482,0.7-1.064,1.3-1.772,1.774
		c-0.307,0.432-0.671,0.803-1.125,1.082c-0.123,0.076-0.27,0.133-0.264,0.317c-0.264,0.52-0.639,0.952-1.159,1.207
		c-0.332,0.162-0.33,0.542-0.574,0.719c-0.881,0.638-1.449,1.609-2.358,2.203c-0.26,0.17-0.3,0.453-0.488,0.627
		c-0.734,0.675-1.42,1.399-2.144,2.084c-0.185,0.002-0.338,0.117-0.423,0.24c-0.509,0.732-1.199,1.282-1.836,1.886
		c-0.252,0.528-0.64,0.928-1.139,1.226c-0.143,0.085-0.28,0.161-0.375,0.32c-0.35,0.585-0.364,0.586-0.863,0.088
		c-3.317-3.308-6.636-6.614-9.922-9.953c-0.118-0.256-0.336-0.428-0.528-0.621c-2.645-2.647-5.292-5.293-7.937-7.94
		c-0.488-0.488-0.488-0.493,0.004-0.988c1.231-1.237,2.47-2.466,3.699-3.704c1.018-1.013,2.035-2.028,3.047-3.047
		c1.017-1.009,2.029-2.022,3.038-3.038c1.017-1.009,2.028-2.022,3.038-3.038c1.017-1.009,2.03-2.024,3.04-3.04
		c0.662-0.728,1.436-1.347,2.05-2.121l0,0c0.357-0.193,0.537-0.672,0.908-0.747c0.427-0.087,0.445,0.531,0.801,0.698
		c0.48,0.225,0.874,0.569,1.075,1.094c0.051,0.133,0.175,0.252,0.301,0.315c0.702,0.351,1.152,0.95,1.591,1.564
		c1.059,0.808,1.864,1.886,2.849,2.748c0.751,0.658,1.253,1.57,2.161,2.052c0.205,0.109,0.36,0.288,0.465,0.502
		c0.202,0.411,0.516,0.709,0.924,0.914c0.056,0.028,0.136,0.049,0.16,0.096c0.463,0.924,1.522,1.3,2.014,2.196
		c0.124,0.226,0.321,0.386,0.552,0.502c0.369,0.185,0.646,0.463,0.833,0.83c0.138,0.271,0.339,0.478,0.609,0.618
		c0.364,0.189,0.651,0.457,0.837,0.828c0.147,0.291,0.37,0.508,0.66,0.655c0.348,0.176,0.608,0.439,0.791,0.785
		c0.068,0.128,0.139,0.291,0.255,0.353c0.749,0.4,1.173,1.116,1.712,1.719C-94.266,102.349-94.271,102.534-95.306,103.193z"></path>
	<path d="M-128.902,98.308c-1.227,1.24-2.442,2.491-3.688,3.711c-0.352,0.345-0.363,0.557-0.007,0.91
		c2.642,2.619,5.265,5.256,7.892,7.889c0.206,0.206,0.452,0.38,0.577,0.658c-0.085,0.056-0.164,0.079-0.221-0.036
		c-2.68-2.682-5.365-5.36-8.039-8.047c-1.05-1.055-0.979-0.842-0.045-1.769c1.12-1.111,2.243-2.22,3.365-3.329
		C-129.007,98.234-128.952,98.238-128.902,98.308z"></path>
	<path d="M-124.349,111.44c0.074,0.012,0.148,0.024,0.221,0.036c2.299,2.305,4.598,4.609,6.897,6.914
		c1.018,1.021,2.041,2.036,3.048,3.067c0.272,0.278,0.481,0.414,0.677-0.049c0.087-0.205,0.258-0.327,0.446-0.427
		c0.499-0.268,0.85-0.671,1.086-1.181c0.046-0.052,0.09-0.05,0.13,0.007c-0.088,0.492-0.426,0.815-0.791,1.099
		c-0.314,0.244-0.65,0.438-0.845,0.819c-0.144,0.281-0.401,0.267-0.635,0.06c-0.284-0.25-0.59-0.478-0.848-0.752
		c-2.909-3.095-5.974-6.035-8.958-9.055C-124.082,111.815-124.275,111.674-124.349,111.44z"></path>
	<path d="M-109.668,117.679c0.652-0.917,1.699-1.46,2.292-2.433c0.217-0.356,0.728-0.387,0.915-0.737
		c0.495-0.926,1.509-1.339,2.076-2.223c0.348-0.543,1.121-0.787,1.395-1.47c0.043-0.057,0.086-0.054,0.127,0.002
		c-0.052,0.134-0.069,0.302-0.161,0.398c-0.763,0.792-1.522,1.588-2.324,2.339c-0.195,0.183-0.387,0.362-0.572,0.559
		c-0.737,0.787-1.478,1.574-2.265,2.311c-0.258,0.242-0.537,0.448-0.742,0.747c-0.186,0.271-0.38,0.562-0.748,0.628
		C-109.757,117.756-109.755,117.716-109.668,117.679z"></path>
	<path d="M-110.079,86.919c-0.593-0.864-1.634-1.277-2.184-2.19c-0.342-0.568-1.068-0.735-1.421-1.314
		c-0.106-0.173-0.256,0.008-0.367,0.095c-0.225,0.175-0.36,0.482-0.703,0.486c0.095-0.111,0.184-0.227,0.286-0.331
		c0.632-0.642,0.541-0.504,1.267-0.016c0.835,0.562,1.243,1.515,2.13,1.999C-110.588,85.91-110.306,86.413-110.079,86.919z"></path>
	<path d="M-97.154,105.012c0.032-0.297,0.275-0.398,0.488-0.527c0.275-0.166,0.504-0.378,0.644-0.67
		c0.161-0.335,0.418-0.564,0.732-0.755c0.778-0.472,0.787-0.612,0.114-1.18c-0.043-0.036-0.054-0.11-0.081-0.166
		c0.265,0.026,0.45,0.19,0.636,0.36c0.221,0.203,0.311,0.449,0.038,0.63C-95.555,103.349-96.061,104.509-97.154,105.012z"></path>
	<path d="M-128.902,98.308c-0.055-0.004-0.111-0.009-0.166-0.013c1.059-1.058,2.118-2.116,3.177-3.175
		c0.072,0.049,0.077,0.104,0.014,0.165C-126.886,96.293-127.894,97.301-128.902,98.308z"></path>
	<path d="M-116.759,86.182c-1.013,1.011-2.027,2.023-3.04,3.034c-0.069-0.048-0.074-0.103-0.016-0.164
		c0.982-1.042,1.98-2.068,3.041-3.031C-116.709,86.069-116.704,86.122-116.759,86.182z"></path>
	<path d="M-125.877,95.286c-0.005-0.055-0.009-0.11-0.014-0.165c0.976-1.05,1.988-2.062,3.037-3.039
		c0.072,0.05,0.076,0.105,0.014,0.166C-123.853,93.26-124.865,94.273-125.877,95.286z"></path>
	<path d="M-122.84,92.247c-0.005-0.055-0.009-0.11-0.014-0.166c0.981-1.041,1.979-2.066,3.039-3.029
		c0.005,0.055,0.011,0.109,0.016,0.164C-120.813,90.227-121.827,91.237-122.84,92.247z"></path>
	<path d="M-99.815,107.667c0.89-0.883,1.779-1.767,2.669-2.651c0.026,0.186-0.083,0.334-0.192,0.442
		c-0.738,0.736-1.491,1.458-2.239,2.184C-99.645,107.756-99.727,107.735-99.815,107.667z"></path>
	<path d="M-109.668,117.679c-0.004,0.04-0.006,0.08-0.005,0.12c-0.287,0.138-0.513,0.328-0.679,0.615
		c-0.353,0.611-0.916,1.012-1.492,1.392c-0.043-0.002-0.087-0.005-0.13-0.007C-111.103,119.205-110.654,118.15-109.668,117.679z"></path>
	<path d="M-116.759,86.182c-0.005-0.054-0.011-0.107-0.016-0.161c0.594-0.754,1.321-1.378,2.021-2.026
		C-115.214,84.914-116.113,85.432-116.759,86.182z"></path>
	<path d="M-99.815,107.667c0.079-0.008,0.159-0.016,0.238-0.024c-0.551,0.801-1.241,1.465-2.016,2.045
		c-0.074-0.085-0.066-0.168,0.008-0.248C-100.901,108.943-100.313,108.349-99.815,107.667z"></path>
	<path d="M-101.585,109.44c-0.003,0.083-0.005,0.165-0.008,0.248c-0.316,0.497-0.794,0.812-1.27,1.129
		c-0.042-0.001-0.085-0.001-0.127-0.002C-102.582,110.295-101.968,109.985-101.585,109.44z"></path>
	<path d="M-96.242,128.184c0.029,0.165,0.059,0.33,0.088,0.495C-96.324,128.54-96.508,128.402-96.242,128.184z"></path>
	<path d="M-19.938,73.382c-0.076-1.753-1.365-3.357-3.092-3.732c-0.267-0.058-0.532-0.129-0.798-0.195
		c-0.14-0.035-0.318-0.041-0.329-0.231c-0.01-0.174,0.15-0.267,0.277-0.31c0.336-0.113,0.632-0.339,1-0.363
		c0.238-0.237,0.474-0.473,0.784-0.624c0.384-0.188,0.607-0.544,0.727-0.918c0.271-0.839,0.471-1.697,0.546-2.583
		c0.14-1.669,0.038-3.321-0.295-4.961c-0.124-0.248-0.149-0.524-0.214-0.788c-0.806-1.307-1.87-2.236-3.473-2.385
		c-0.249-0.023-0.51,0.014-0.74-0.124c-0.578-0.051-1.156-0.102-1.734-0.152c-0.231,0.015-0.461,0.042-0.692,0.042
		c-8.223-0.005-16.881-0.013-25.104-0.019c-0.861-0.001-1.298,0.003-1.298,0.884c0,8.35,0,16.699,0,25.049
		c0,0.857,0.438,0.859,1.323,0.859c6.389,0.001,12.995-0.016,19.383,0.008c2.888,0.011,5.879-0.149,8.762-0.26
		c0.82-0.031,1.744-0.093,2.467-0.612c1.586-1.02,2.425-2.439,2.489-4.356C-19.901,76.197-19.877,74.793-19.938,73.382z
		 M-45.494,62.268c2.467,0.021,5.122,0.01,7.122,0.01c0,0.01,0,0.019,0,0.029c3,0,5.171-0.007,7.617,0.003
		c1.136,0.005,1.962,0.744,1.985,1.945c0.026,1.314-0.581,2.146-1.757,2.184c-4.933,0.158-9.836,0.052-14.769,0.089
		c-0.432,0.003-0.587-0.133-0.577-0.58c0.024-1.012-0.085-2.025-0.121-3.036C-46.012,62.409-45.989,62.264-45.494,62.268z
		 M-28.175,75.658c-0.297,0.534-0.772,0.73-1.361,0.762c-3.243,0.175-6.489,0.142-9.734,0.145c-1.982,0.002-3.963-0.012-5.944,0.009
		c-0.486,0.005-0.681-0.139-0.669-0.645c0.027-1.138,0.007-2.276,0.01-3.415c0-0.143-0.035-0.299,0.094-0.414
		c0.22-0.113,0.456-0.057,0.684-0.057c3.774-0.004,7.549-0.031,11.323,0.011c1.549,0.017,3.104,0.01,4.65,0.182
		c0.875,0.097,1.29,0.493,1.314,1.377C-27.79,74.314-27.628,75.054-28.175,75.658z"></path>
	<path d="M8.332,70.895c-0.009-0.21-0.038-0.421-0.075-0.623c-0.115-0.644,0.11-1.333-0.145-1.934
		c-0.59-1.389-1.165-2.815-2.652-3.544c-0.053-0.026-0.091-0.086-0.136-0.129c-0.469-0.499-1.105-0.734-1.73-0.83
		c-2.241-0.346-4.509-0.428-6.773-0.527c-2.464-0.108-4.917,0.133-7.371,0.28c-0.864,0.052-1.751,0.123-2.594,0.445
		c-0.816,0.311-1.486,0.865-2.263,1.233c-0.167,0.17-0.333,0.34-0.5,0.51c-0.806,0.794-0.99,1.857-1.254,2.888
		c-0.204,0.799-0.232,1.616-0.291,2.432c-0.192,2.671-0.193,5.324,0.545,7.936c0.168,0.595,0.353,1.157,0.709,1.667
		c0.215,0.309,0.606,0.376,0.826,0.668c0.449,0.597,1.086,0.908,1.775,1.118c1.523,0.466,3.086,0.808,4.67,0.869
		c3.819,0.146,7.647,0.287,11.431-0.448c1.324-0.257,2.69-0.463,3.759-1.422c1.367-1.082,1.923-2.547,2.002-4.239
		c0.02-0.421-0.276-0.411-0.553-0.412c-2.044-0.003-4.088,0.007-6.132-0.01c-0.408-0.003-0.556,0.154-0.594,0.54
		c-0.055,0.565-0.376,0.861-0.95,1.003c-2.96,0.731-5.909,0.733-8.858-0.046c-0.772-0.152-1.081-0.743-1.325-1.396
		c-0.108-0.289-0.086-0.606-0.198-0.893c-0.002-0.162-0.005-0.324-0.007-0.487c-0.125-0.343,0.142-0.404,0.36-0.451
		c0.172-0.037,0.361-0.017,0.542-0.016c5.629,0.018,11.258-0.02,16.887,0.019c0.853,0.006,1.062-0.176,1.074-1.055
		C8.527,72.989,8.614,71.931,8.332,70.895z M1.099,70.698c-0.103,0.35-0.38,0.278-0.619,0.279c-1.728,0.005-3.455,0.003-5.183,0.003
		c-1.686,0-3.371-0.017-5.056,0.01c-0.535,0.009-0.647-0.208-0.592-0.683c0.138-1.192,1.096-2.202,2.478-2.321
		c2.476-0.213,4.963-0.314,7.432,0.117C0.727,68.306,1.437,69.542,1.099,70.698z"></path>
	<path d="M-17.162,104.864c-0.129-1.148-0.263-2.285-0.567-3.405c-0.198-0.729-0.62-1.379-0.709-2.141
		c-0.095-0.242-0.29-0.385-0.504-0.51c-0.355-0.236-0.615-0.575-0.924-0.86c-0.153-0.141-0.302-0.272-0.507-0.359
		c-1.659-0.704-3.403-1.137-5.182-1.217c-2.141-0.096-4.281-0.296-6.424-0.275c-3.473,0.033-6.946-0.1-10.421,0.149
		c-2.05,0.147-4.505,0.069-6.514,0.579c-1.069,0.272-2.457,0.538-3.457,1.217v-0.001c0,0.44-0.2,0.764-0.62,1.021
		c-0.232,0.25-0.225,0.536-0.324,0.858c-0.413,1.346-0.729,2.703-0.841,4.109c-0.36,4.519-0.425,9.044,0.257,13.541
		c0.242,1.594,0.497,3.267,1.899,4.401c0.484,0.692,1.317,0.902,1.996,1.273c0.63,0.345,1.385,0.53,2.154,0.6
		c0.833,0.076,1.673,0.121,2.504,0.213c1.808-0.011,3.616,0.096,5.423,0.118c5.155,0.061,10.31,0.009,15.461-0.202
		c1.007-0.041,2.046-0.148,2.987-0.616c1.647-0.825,3.184-1.753,3.555-3.778c0.71-2.181,0.886-4.446,0.92-6.709
		C-16.962,110.202-16.863,107.529-17.162,104.864z M-25.456,113.502c-0.03,0.547-0.079,1.087-0.253,1.609
		c-0.223,0.918-0.955,1.258-1.745,1.534c-1.826,0.447-3.683,0.532-5.552,0.519c-2.442-0.017-4.885,0.032-7.326-0.022
		c-0.971-0.022-1.959-0.086-2.906-0.375c-0.253-0.08-0.507-0.161-0.76-0.241c-0.929-0.227-1.699-1.208-1.849-2.153
		c-0.341-2.142-0.144-4.292-0.153-6.437c-0.004-0.8,0.065-1.635,0.367-2.41l-0.012-0.008c0.426-1.258,1.271-2.029,2.606-2.199
		c0.289-0.037,0.582-0.076,0.877-0.081c3.238-0.064,6.477-0.092,9.715-0.047c1.113,0.016,2.227,0.046,3.34,0.047
		c1.219,0.001,2.271,0.35,3.014,1.381c0.554,0.848,0.595,1.821,0.625,2.779C-25.405,109.431-25.343,111.466-25.456,113.502z"></path>
	<path d="M8.277,105.13c0.967,0.57,1.824,1.26,2.497,2.175c0.256,0.347,0.45,0.703,0.531,1.123c0.449,0.846,0.616,1.755,0.707,2.703
		c0.379,3.929,0.087,7.865,0.177,11.797c0.02,0.875,0.001,0.876-0.843,0.876c-1.916,0-3.832,0.002-5.748-0.003
		c-0.205-0.001-0.422,0.063-0.614-0.069c-0.009-2.171-0.017-4.342-0.029-6.513c-0.008-1.413,0.001-2.826-0.04-4.237
		c-0.056-1.926-0.85-2.959-2.737-3.31c-2.188-0.407-4.427-0.569-6.551,0.248c-1.662,0.64-2.254,1.201-2.293,3.009
		c-0.073,3.33-0.057,6.662-0.076,9.993c-0.005,0.893-0.001,0.894-0.887,0.895c-1.898,0.001-3.796-0.015-5.693,0.01
		c-0.513,0.007-0.688-0.135-0.686-0.673c0.018-5.967,0.018-11.934,0-17.901c-0.002-0.535,0.166-0.68,0.683-0.672
		c1.813,0.027,3.627,0.029,5.44-0.001c0.538-0.009,0.699,0.171,0.666,0.687c-0.039,0.609-0.011,1.222-0.006,1.834
		c0.001,0.162-0.03,0.359,0.212,0.39c0.182,0.023,0.242-0.102,0.31-0.249c0.602-1.305,1.604-2.174,2.98-2.554
		c3.041-0.841,6.12-0.806,9.211-0.319c0.639,0.182,1.289,0.326,1.942,0.42C7.759,104.836,8.022,104.946,8.277,105.13z"></path>
	<path d="M22.708,116c5.711,0,11.422,0,17.133,0c0.822,0,0.818-0.138,0.834-0.98c0.036-1.834-0.053-3.726-0.285-5.551
		c-0.16-1.26-0.758-2.304-1.573-3.192c-0.534-0.583-1.184-1.14-1.934-1.394c-0.83-0.281-1.722-0.401-2.595-0.532
		c-2.889-0.435-5.801-0.308-8.707-0.307c-2.158,0.001-4.284,0.26-6.392,0.713c-0.813,0.174-1.436,0.65-2.069,1.129
		c-0.839,0.738-1.485,1.527-1.791,2.699c-0.429,1.643-0.51,3.3-0.66,4.959c-0.123,1.362,0.078,2.72,0.253,4.068
		c0.191,1.464,0.385,2.946,1.435,4.119c0.165,0.184,0.303,0.408,0.501,0.545c0.542,0.376,1.109,0.716,1.666,1.07
		c0.596,0.376,1.289,0.57,1.951,0.615c1.755,0.118,3.504,0.317,5.266,0.356c2.627,0.058,5.244-0.109,7.862-0.269
		c0.891-0.054,1.768-0.204,2.637-0.47c0.701-0.215,1.254-0.668,1.909-0.931c0.411-0.165,0.734-0.395,0.929-0.795
		c0.845-0.93,1.317-2.014,1.397-3.276c0.054-0.856,0.033-0.908-0.813-0.909c-1.873-0.002-3.746-0.003-5.62,0
		c-0.776,0.001-0.783,0.012-0.965,0.764c-0.165,0.685-0.684,0.925-1.304,0.998c-2.458,0.292-4.917,0.247-7.381,0.043
		c-1.091-0.091-1.769-0.646-2.23-1.589c-0.215-0.439-0.211-0.76-0.235-1.219C21.888,115.866,21.893,116,22.708,116z M23.82,108.947
		c2.411-0.618,4.834-0.54,7.265-0.207c0.493,0.068,0.968,0.267,1.455,0.391c0.252,0.064,0.403,0.227,0.492,0.447
		c0.118,0.292,0.244,0.666,0.308,0.972c0.262,1.248,0.157,1.449-1.101,1.449c-1.537,0-3.075,0-4.612,0
		c-1.685,0-3.37-0.101-5.054-0.068c-0.561,0.011-0.682-0.24-0.637-0.747C22.035,110.078,22.769,109.217,23.82,108.947z"></path>
	<path d="M-53.376,143.614c-0.125-0.336-0.232-0.673-0.254-1.038c-0.078-1.285-0.051-1.3,1.223-1.263
		c0.406,0.012,0.484,0.187,0.505,0.535c0.105,1.703,0.102,1.798,1.78,1.969c2.539,0.259,5.092,0.27,7.624-0.151
		c0.753-0.125,1.207-0.652,1.298-1.417c0.03-0.25,0.043-0.505,0.033-0.756c-0.052-1.306-0.339-1.637-1.648-1.677
		c-2.189-0.068-4.38-0.065-6.569-0.12c-0.859-0.022-1.724-0.049-2.522-0.464c-0.807-0.419-1.445-0.903-1.619-1.913
		c-0.192-1.115-0.173-2.172,0.258-3.214c0.131-0.317,0.372-0.558,0.662-0.745c1.115-0.761,2.409-0.746,3.673-0.817
		c1.851-0.104,3.705-0.108,5.557-0.005c1.149,0.064,2.249,0.271,3.092,1.158c0.497,0.683,0.55,1.468,0.517,2.271
		c-0.003,0.083,0.041-0.003-0.008,0.061c-0.371,0.479-0.891,0.159-1.338,0.231c-0.268,0.043-0.411-0.096-0.426-0.402
		c-0.072-1.437-0.032-1.618-1.827-1.78c-2.258-0.203-4.528-0.123-6.79,0.052c-0.419,0.032-0.828,0.13-1.191,0.364h0.001
		c-0.556,0.614-0.703,2.085-0.28,2.777c0.163,0.267,0.423,0.451,0.7,0.505c0.593,0.117,1.161,0.348,1.786,0.336
		c2.208-0.04,4.416,0.011,6.624,0.06c0.566,0.012,1.109,0.192,1.665,0.279c0.461,0.072,0.743,0.428,0.947,0.834
		c0.927,1.41,0.914,3.34-0.004,4.735c-0.498,0.757-1.307,1.014-2.082,1.146c-2.917,0.496-5.861,0.399-8.801,0.219
		c-0.64-0.039-1.209-0.306-1.752-0.628C-52.979,144.492-53.237,144.097-53.376,143.614z"></path>
	<path d="M10.416,145.376c-1.304,0.129-1.304,0.129-1.304-1.137c0-2.382-0.001-4.764,0.001-7.146c0-0.329-0.078-0.754,0.456-0.696
		c0.381,0.041,1.019-0.328,1.002,0.517c-0.006,0.288,0.161,0.351,0.357,0.195c1.571-1.252,3.387-0.872,5.158-0.79
		c0.729,0.033,1.385,0.322,2.047,0.592c0.125,0.071,0.257,0.144,0.335,0.264c0.285,0.439,0.555,0.404,0.828-0.007
		c2.395-1.375,4.865-1.206,7.358-0.337c0.877,0.306,1.275,1.071,1.359,1.9c0.21,2.078,0.065,4.169,0.088,6.254
		c0.007,0.612-0.469,0.394-0.783,0.426c-0.337,0.035-0.632,0.009-0.627-0.468c0.013-1.306,0.01-2.613-0.001-3.92
		c-0.004-0.505-0.029-1.011-0.077-1.513c-0.112-1.175-0.668-1.722-1.857-1.923c-1.157-0.196-2.306-0.196-3.454,0.044
		c-1.141,0.238-1.607,0.759-1.794,1.899c-0.276,1.676-0.166,3.363-0.189,5.046c-0.011,0.822-0.306,1.035-1.129,0.83
		c-0.368-0.092-0.291-0.366-0.292-0.602c-0.007-1.37-0.001-2.74-0.005-4.109c-0.001-0.358-0.045-0.717-0.027-1.074
		c0.033-0.663-0.192-1.191-0.736-1.578c-0.134-0.207-0.365-0.275-0.561-0.395c-0.909-0.153-1.818-0.275-2.747-0.248
		c-0.769,0.023-1.502,0.191-2.195,0.484c-0.479,0.202-0.756,0.652-0.883,1.166c-0.213,0.86-0.234,1.74-0.259,2.619
		C10.446,142.905,10.565,144.142,10.416,145.376z"></path>
	<path d="M-15.651,144.497c-0.839,0.802-1.894,0.941-2.986,0.988c-1.834,0.078-3.667,0.112-5.495-0.099
		c-0.609-0.21-1.316-0.194-1.771-0.763v-0.001c-0.718-0.438-0.739-1.155-0.76-1.878c-0.01-0.355,0.144-0.502,0.495-0.465
		c0.146,0.015,0.296,0.016,0.442,0c0.352-0.038,0.513,0.043,0.534,0.465c0.047,0.947,0.598,1.356,1.559,1.451
		c1.177,0.115,2.353,0.084,3.529,0.121c0.762,0.024,1.511-0.087,2.263-0.153c0.465-0.041,0.92-0.264,1.022-0.796
		c0.114-0.6,0.242-1.288-0.357-1.676c-0.459-0.297-1.06-0.352-1.626-0.354c-1.643-0.008-3.287,0.023-4.93-0.017
		c-0.588-0.014-1.224,0.109-1.754-0.314c-0.746-0.596-1.13-1.356-1.011-2.312c0.129-1.036,0.582-1.786,1.704-2.082
		c0.638-0.168,1.295-0.107,1.915-0.309c0.111-0.03,0.224-0.029,0.338-0.031c1.035-0.002,2.069-0.001,3.103-0.001
		c1.259,0.136,2.525,0.25,3.549,1.127c0.199,0.15,0.26,0.387,0.324,0.599c0.103,0.338,0.254,0.791,0.003,1.023
		c-0.307,0.285-0.799,0.11-1.212,0.095c-0.143-0.005-0.212-0.124-0.23-0.26c-0.106-0.831-0.741-1.092-1.417-1.209
		c-1.774-0.306-3.559-0.255-5.334,0.013c-0.512,0.077-0.935,0.36-1.151,0.87c-0.131,0.996,0.152,1.338,1.155,1.411
		c1.765,0.13,3.533,0.045,5.3,0.058c0.791,0.006,1.531,0.128,2.222,0.548c0.556,0.339,0.94,0.772,0.992,1.437
		c0.044,0.566,0.049,1.132-0.011,1.699C-15.281,144.012-15.381,144.292-15.651,144.497z"></path>
	<path d="M30.287,140.955c-0.417-0.557-0.791-1.122-0.795-1.867c-0.008-1.608,0.698-2.457,2.302-2.667
		c2.116-0.278,4.236-0.306,6.352,0.013c0.655,0.099,1.223,0.438,1.792,0.743c0.342,0.183,0.633,1.422,0.429,1.759
		c-0.235,0.387-0.65,0.157-0.983,0.2c-0.237,0.031-0.467,0-0.501-0.329c-0.037-0.362-0.116-0.712-0.495-0.889
		c-0.084-0.062-0.181-0.097-0.277-0.136c-1.717-0.518-3.463-0.468-5.212-0.236c-0.443,0.059-0.939-0.037-1.305,0.337
		c-0.132,0.141-0.202,0.328-0.331,0.471c-0.233,0.439-0.23,0.873,0.036,1.299c0.071,0.074,0.144,0.145,0.234,0.197
		c0.54,0.223,1.115,0.201,1.677,0.209c1.451,0.022,2.902,0.011,4.353,0.005c0.423-0.002,0.84,0.028,1.251,0.122
		c1.214,0.194,1.724,0.906,1.91,1.871c0.277,1.435-0.102,2.41-1.03,2.989c-0.242,0.151-0.529,0.121-0.755,0.279
		c-0.822,0.162-1.658,0.26-2.487,0.292c-1.572,0.061-3.156,0.099-4.712-0.189c-0.647-0.12-1.414-0.118-1.768-0.878
		c-0.568-0.471-0.561-1.121-0.572-1.776c-0.007-0.392,0.151-0.534,0.527-0.495c0.167,0.017,0.338,0.017,0.504,0
		c0.328-0.034,0.423,0.098,0.439,0.428c0.05,1.019,0.508,1.368,1.546,1.489c1.345,0.157,2.688,0.068,4.031,0.117
		c0.614,0.022,1.204-0.173,1.819-0.142c0.627,0.031,1.074-1.259,0.892-1.828c-0.316-0.987-1.13-0.97-1.872-0.994
		c-1.619-0.052-3.24-0.016-4.861-0.016C31.689,141.333,30.96,141.305,30.287,140.955z"></path>
	<path d="M-37.548,138.676c-0.469-0.522-0.76-1.155-1.099-1.759c-0.237-0.421-0.066-0.498,0.356-0.582
		c0.946-0.19,1.324,0.438,1.658,1.081c0.818,1.576,1.829,3.047,2.529,4.688c0.138,0.324,0.327,0.637,0.604,0.877
		c0.057,0.062,0.101,0.133,0.139,0.207c0.15,0.294,0.27,0.754,0.543,0.781c0.332,0.033,0.366-0.484,0.58-0.725
		c0.767-0.77,0.855-1.902,1.461-2.749c0.833-1.164,1.151-2.596,2.004-3.747c0.366-0.494,1.376-0.52,1.66-0.016
		c-0.583,0.91-1.191,1.795-1.541,2.846c-0.164,0.491-0.52,0.94-0.796,1.402c-0.607,1.019-1.012,2.139-1.636,3.146
		c-0.33,0.982-0.899,1.832-1.475,2.677c-0.782,1.149-1.816,1.84-3.259,1.784c-0.21-0.008-0.42,0.003-0.63,0.002
		c-0.83-0.002-0.855-0.042-0.824-0.847c0.014-0.372,0.148-0.541,0.531-0.519c0.251,0.015,0.509-0.051,0.755-0.015
		c1.215,0.176,1.827-0.614,2.394-1.473c0.243-0.369-0.157-0.258-0.284-0.35c-0.439-0.661-0.66-1.438-1.128-2.086
		c-0.777-1.077-1.176-2.377-2.013-3.423C-37.298,139.531-37.29,139.041-37.548,138.676z"></path>
	<path d="M-5.406,144.733c-1.999,1.069-4.027,1.087-6.08,0.164c-0.899-0.746-0.875-1.782-0.876-2.808
		c-0.002-1.286-0.014-2.572,0.004-3.858c0.008-0.59-0.23-0.862-0.828-0.827c-0.336,0.019-0.674-0.001-1.012-0.002
		c-0.318-0.001-0.452-0.159-0.443-0.475c0.009-0.303,0.176-0.402,0.448-0.401c0.379,0.001,0.76-0.02,1.138-0.001
		c0.493,0.025,0.693-0.215,0.688-0.68c-0.003-0.295,0.015-0.591,0.001-0.885c-0.022-0.456,0.115-0.712,0.638-0.705
		c0.506,0.007,0.525,0.309,0.511,0.672c-0.001,0.021,0,0.042,0,0.063c0.011,1.718-0.179,1.523,1.581,1.532
		c1.328,0.006,2.656,0.001,3.984,0.002c0.304,0,0.618-0.017,0.604,0.432c-0.013,0.418-0.301,0.45-0.617,0.451
		c-1.56,0-3.12-0.002-4.68,0.003c-0.783,0.002-0.869,0.085-0.871,0.874c-0.005,1.433-0.006,2.867,0.003,4.3
		c0.007,1.082,0.449,1.547,1.527,1.706c0.842,0.125,1.678,0.135,2.516-0.007c0.205-0.035,0.435-0.018,0.504-0.288
		c0.499-0.613,0.556-1.356,0.557-2.092c0.001-0.675,0.438-0.566,0.858-0.591c0.516-0.031,0.512,0.292,0.518,0.653
		C-4.718,142.947-4.799,143.903-5.406,144.733z"></path>
	<path d="M-1.36,141.269c2.866,0,5.733,0.001,8.599-0.001c0.609,0,0.829-0.213,0.696-0.793c-0.104-0.456-0.073-0.92-0.178-1.367
		c-0.196-0.832-0.545-1.633-1.238-2.124c-0.513-0.364-1.163-0.615-1.818-0.673c-1.826-0.161-3.662-0.213-5.483,0.003
		c-0.897,0.107-1.763,0.431-2.334,1.232c-0.784,1.185-0.679,2.528-0.668,3.847c0.01,1.306,0.137,2.578,1.429,3.344
		c0.156,0.247,0.408,0.356,0.669,0.432c1.173,0.338,2.386,0.371,3.591,0.464c1.071,0.082,2.141-0.022,3.187-0.212
		c0.695-0.126,1.474-0.209,1.903-0.933l0.004,0.006c0.506-0.203,0.734-0.612,0.79-1.123c0.03-0.269,0.195-0.607-0.209-0.754
		c-0.441-0.16-1.247,0.005-1.378,0.277c-0.429,0.884-1.134,1.297-2.112,1.289c-1.159-0.01-2.319-0.018-3.477,0.004
		c-0.586,0.011-1.111-0.155-1.627-0.398c-0.737-0.348-1.118-0.907-1.1-1.74C-2.097,141.271-2.113,141.27-1.36,141.269z
		 M-2.089,139.093C-2.085,139.01-1.981,139-1.985,139h0.112l0,0h-0.113c1.54-1,3.398-1.339,5.255-1.262
		c0.879,0.036,1.743,0.026,2.414,0.745c0.161,0.172,0.309,0.294,0.391,0.513c0.243,0.649,0.069,0.877-0.617,0.878
		c-2.234,0.003-4.472,0.071-6.706,0.07C-2.135,139.943-2.138,140.01-2.089,139.093z"></path>
</g>
</svg>
