<?xml version="1.0"?>

<svg xmlns="http://www.w3.org/2000/svg" viewBox="0 0 820.2 179.2" width="820.2" height="179.2"> <path d="m 380.6,21.9 -5.2,25.9 31.3,0 5.3,-25.9 -31.4,0 z m 140.3,0 -12.2,57.2 1.8,-8.3 c 11.1,-2.4 22,-4.8 32.9,-6.9 l 9,-42 -31.5,0 z m 47.9,0 -5.2,25.9 31.3,0 5.3,-25.9 -31.4,0 z M 249.5,22 221,155.7 c 21.5,-8 44.6,-16 68.6,-24 -0.5,0 -1.1,0 -1.7,0 l -25.3,0 6.6,-31.1 25.8,0 c 8,0 13.2,1.2 15.7,3.6 2.7,2.4 4,5.7 4,9.8 0,4.4 -1.2,8 -3.7,10.8 12.5,-4 25.2,-8 38.1,-11.9 0,0.3 0.1,0.6 0.1,0.9 -0.4,-13.9 -7.6,-23.1 -21.7,-27.2 l 0,-0.4 c 8.8,-2.7 15.2,-7.1 19.2,-13.1 4.1,-6.1 6.1,-12.5 6.1,-19.3 0,-5.4 -1.3,-10.3 -3.8,-14.8 -2.6,-4.4 -6.2,-8.2 -10.6,-10.8 -4.5,-2.8 -9.3,-4.4 -14.1,-5.1 C 319.4,22.4 313.2,22 305.6,22 l -56.1,0 z m 30.5,23.2 20.7,0 c 7.6,0 12.7,1.1 15.3,3.4 2.7,2.1 3.9,5 3.9,8.9 0,3.2 -1.2,6.4 -3.6,9.6 -2.3,3.2 -5.5,5.2 -9.3,6.3 -3.9,0.9 -9.5,1.4 -16.6,1.4 l -16.5,0 6.1,-29.6 z M 665.9,57 c -13.9,0 -20.5,-0.4 -29.8,9.3 8.7,-9 14.9,-9.2 27.1,-9.2 l 2.7,0 c 8.8,0 18.6,2.3 23,6.8 2.9,2.9 4.9,6.4 5.8,10.3 -24.2,-1 -54.1,0.1 -90.5,4 l 4,-19 -20.9,97.7 31.6,0 9.2,-42.4 c 2.1,-9.7 5.2,-20.2 9.3,-25.4 4.2,-5.2 8.7,-10.9 20.7,-10.9 4.8,0 4.2,8.9 4.2,14.4 0,1.6 -1.2,7.8 -3.5,19 l -9.6,45.3 31.4,0 11.3,-53.3 c 2.4,-11.4 3.6,-19.3 3.6,-23.2 0,-6.5 -2.1,-12.1 -6.6,-16.6 -4.4,-4.6 -14.2,-6.8 -23,-6.8 z m -293.2,2.2 -20.9,97.7 31.4,0 9.6,-44.2 c -10.8,2.5 -21.9,5.1 -33.2,7.7 l 2.4,-11.2 c 11.1,-3.3 22.3,-6.5 33.6,-9.6 l 8.7,-40.4 -31.6,0 z m 41.7,0 -5.7,19.5 47.3,0 -54.1,56.1 -4.8,22.1 82.5,0 5.2,-22.5 -44.1,0 50.2,-56 1.8,-19.2 -78.3,0 z m 146.5,0 -20.9,97.7 31.4,0 L 588,80 c -10.4,1.2 -21.1,2.7 -32.4,4.4 L 560,63.6 c 7.8,-1.4 15.6,-2.9 23.3,-4.4 l -22.4,0 z m 73.1,8.6 0,0.1 0.4,0.3 -0.4,-0.4 z m 81.6,6.1 c -3.4,3.8 -6.3,8 -8.6,12.8 -3.9,7.7 -5.7,15.9 -5.7,24.7 0,12.5 4.1,23.1 12.2,31.8 8.2,8.7 15.6,13.1 35,13.1 9.7,0 18.1,-2.2 26.9,-6.4 8.8,-4.3 16,-11.2 21.4,-21 L 767,124.1 c -4.3,5.9 -10.7,12.2 -18,12.2 -10.7,0 -16.1,-5.4 -17.2,-18.6 0,-15 2.9,-26.3 11.5,-33.5 5.7,-5 13.6,-9 19.6,-2.7 2.6,2.8 4.4,7.7 4.4,12.7 0,2.4 0,4.1 -0.4,5.4 l -35.1,18.1 62.3,0 c 2.3,-2.2 3.3,-7.8 3.7,-12.9 -0.3,3.7 -0.9,7.7 -2.1,10.4 -3.6,-10.9 -12.3,-21.6 -30,-29.6 -0.8,-1.7 -1.8,-3.2 -2.8,-4.4 -4.2,-4.2 -9.1,-3.7 -13.6,-1.3 -9.5,-2.7 -20.6,-4.7 -33.7,-6 z M 491.2,75.2 490.8,78.6 476,95 c -14.1,2.8 -29.1,5.8 -44.4,9.2 l 18.1,-19 c 13.8,-3.4 27.6,-6.8 41.5,-10 z m 49.2,2.9 -1.2,5.7 c -10.5,1.7 -21.3,3.4 -32.6,5.4 l -14.5,67.7 31.5,0 16.8,-78.8 z M 120.6,89.8 c -11.2,0 -20,2.9 -26.43,8.9 -6.2,5.9 -9.3,14.1 -9.4,24.5 l 0,0.1 0,0.3 c 0.1,10.4 3.2,18.5 9.4,24.4 6.43,6 15.23,9.1 26.43,9.1 7.9,0 14.9,-1.4 21.2,-3.8 l 0,-8.1 c -5.5,2.7 -11.2,4 -17.3,4 -13.5,0 -23.3,-8.4 -23.3,-25.9 0,-17.7 9.4,-25.7 23.3,-25.7 6.1,0 11.8,1.4 17.3,3.9 l 0,-8.1 C 135.5,91 128.5,89.8 120.6,89.8 Z m -98.6,0.6 0,65.6 32.07,0 c 16.1,0 23.7,-6 23.7,-16.8 0,-8.7 -5.8,-14.9 -19.6,-17.5 11.5,-3.7 17.4,-8.8 17.4,-16.1 0,-9.7 -7.8,-15.2 -22.1,-15.2 L 22,90.4 Z m 132.5,0.7 0,64.4 8.2,0 0,-43.5 37.6,44 9.4,0 0,-64.9 -8.2,0 0,44 -37.4,-44 -9.6,0 z m 643.7,4.1 c 0,0.7 0,1.9 -0.1,3.2 0.1,-1.3 0.1,-2.5 0.1,-3.2 0,0 0,0 0,0 z m -760.93,2.3 11,0 c 2.9,0 11.3,1.1 11.3,10.3 0,9.7 -9.7,10.2 -20.7,10.2 l -1.6,0 0,-20.5 z m 760.83,1.4 c 0,0.6 0,1.2 0,1.9 0,-0.7 0,-1.3 0,-1.9 z m -0.1,2.8 c 0,0.7 -0.1,1.4 -0.1,2.1 0,-0.7 0.1,-1.4 0.1,-2.1 z m -448.8,13.2 c 0,2.8 -0.4,5.6 -0.9,8.2 0.6,-2.7 0.9,-5.4 0.9,-8.2 z m -0.9,8.3 c -39.1,9.5 -81.4,20.5 -127.4,33.2 l -0.2,0.7 76.9,0 c 16.6,0 29.4,-4.3 38.3,-13.1 6.5,-6.4 10.6,-13.3 12.4,-20.8 z m -311.03,2.3 1.6,0 c 12.3,0 21.4,1.3 21.4,12 0,10.5 -9,11.3 -16.3,11.3 -3.1,0 -4.8,-0.7 -5.6,-1.5 -1.1,-1 -1.1,-3 -1.1,-7.3 l 0,-14.5 z"></path><path style="opacity:0.5; " d="m 583.3,59.33 c -7.8,1.47 -15.5,2.93 -23.4,4.4 l 0,0 -4.4,20.79 c 11.4,-1.73 22.2,-3.2 32.6,-4.4 l 0,0 4.4,-20.79 -9.2,0 z m 139.1,7.86 c -2.5,2 -4.9,4.27 -7,6.8 l 0,0 c 13.2,1.33 24.4,3.33 33.8,6 l 0,0 c 4.6,-2.4 9.5,-2.93 13.6,1.33 l 0,0 c 1.1,1.2 2,2.67 2.8,4.4 l 0,0 c 17.8,8 26.4,18.68 30,29.58 l 0,0 c 2.6,-5.7 2.6,-16.91 2.6,-20.25 l 0,0 c 0,-11.46 -5.6,-21.32 -13.5,-29.32 l 0,0 C 776.7,57.86 769.6,54.8 754.8,54.8 l 0,0 c -17.7,0 -29.2,9.73 -32.4,12.39 m -88.1,1.07 -0.4,-0.27 3.2,-8.66 -28.9,0 -4,18.93 c 36.4,-3.87 66.3,-4.93 90.5,-4 l 0,0 c -0.9,-3.87 -2.9,-7.33 -5.9,-10.27 l 0,0 C 684.4,59.46 674.7,57.2 665.9,57.2 l 0,0 c -0.9,0 -1.8,0 -2.8,0 l 0,0 c -12.9,0 -19.2,0.26 -28.8,11.06 m -123.8,2.67 -4,18.39 c 11.3,-2 22.1,-3.73 32.7,-5.46 l 0,0 4.2,-19.87 c -10.9,2.14 -21.8,4.54 -32.9,6.94 m -60.8,14.39 -18.1,18.98 c 15.3,-3.4 30.2,-6.45 44.4,-9.25 l 0,0 14.8,-16.39 0.4,-3.34 c -13.9,3.2 -27.8,6.54 -41.5,10 m -87.7,23.98 -2.4,11.2 c 11.3,-2.7 22.4,-5.2 33.2,-7.7 l 0,0 2.8,-13.08 C 384.3,102.8 373.1,106 362,109.3 m -141,46.5 -0.2,0.7 c 46,-12.7 88.4,-23.7 127.5,-33.2 l 0,0 c 0.5,-2.7 0.9,-5.5 0.9,-8.3 l 0,0 c 0,-0.6 0,-1.3 -0.1,-2 l 0,0 c -45.8,13.8 -89.5,28.4 -128.1,42.8"></path></svg>