 <svg viewBox="0 0 333 108" height="208" width="633"    xmlns="http://www.w3.org/2000/svg"
><path class="logotype logotext" d="m 61.76,22 0,0.1 c 2.39,0.8 4.62,1.92 6.65,3.25 2.03,1.35 3.85,2.96 5.45,4.72 3.16,3.56 5.32,7.83 6.43,12.3 2.18,8.93 0.34,18.78 -5.16,25.57 -1.38,1.68 -2.93,3.17 -4.67,4.38 -1.74,1.2 -3.63,2.12 -5.59,2.7 -0.99,0.29 -2,0.49 -3.01,0.6 -0.52,0.1 -1.01,0.1 -1.49,0.1 l -0.8,0 -0.74,0 C 56.86,75.58 54.9,75.1 53.05,74.24 49.32,72.58 46.04,69.52 43.54,65.7 c -2.46,-3.73 -4.12,-8.17 -5.37,-13 0,-0.16 -0.1,-0.31 -0.1,-0.46 l -0.1,0 c -1.52,4.62 -1.53,9.8 -0.1,14.7 1.43,4.9 4.42,9.56 8.69,12.84 2.11,1.64 4.6,2.92 7.08,3.76 2.64,0.85 5.29,1.28 8,1.28 5.4,0 10.66,-1.69 15.05,-4.52 8.85,-5.64 14.27,-15.54 15.13,-25.44 0.45,-5 -0.2,-10.07 -2.05,-14.64 C 88,35.7 84.99,31.67 81.15,28.97 c 3.16,3.48 5.21,7.68 6.26,12.01 1.03,4.4 1.08,8.94 0.21,13.26 -0.45,2.16 -1.08,4.26 -1.93,6.3 -0.84,1.97 -0.84,1.97 0,0 0.59,-1.43 1.06,-2.85 1.45,-4.32 C 87.63,50.98 87,45.7 85.2,40.82 83.33,35.7 80.09,31.14 75.95,27.82 71.86,24.45 66.81,22.38 61.76,22 Z m 19.39,6.97 c 0,-0 -0.1,-0.1 -0.1,-0.1 l 0,0 c 0,0 0.1,0.1 0.11,0.1 z M 52.83,23.19 c -5.4,-0.1 -10.69,1.53 -15.12,4.3 -8.94,5.5 -14.51,15.31 -15.52,25.21 -0.53,4.98 0,10.06 1.82,14.65 1.73,4.6 4.72,8.71 8.57,11.47 -3.15,-3.55 -5.16,-7.8 -6.15,-12.2 -0.96,-4.4 -0.94,-8.96 0,-13.25 0.14,-0.63 0.3,-1.24 0.47,-1.86 -0.63,5.47 -0,10.98 1.86,16.07 1.87,5.09 5.11,9.66 9.24,12.99 4.1,3.36 9.15,5.43 14.2,5.81 l 0.1,0 0,-0.1 C 49.91,85.5 47.68,84.38 45.64,83.06 43.61,81.7 41.8,80.1 40.2,78.34 37.03,74.78 34.87,70.51 33.77,66.04 31.59,57.1 33.42,47.26 38.93,40.48 c 1.37,-1.68 2.93,-3.19 4.67,-4.39 1.73,-1.2 3.62,-2.12 5.59,-2.71 0.99,-0.28 1.99,-0.49 3.01,-0.6 0.52,-0.1 1.01,-0.1 1.49,-0.1 l 0.8,0 0.74,0 c 1.97,0.13 3.93,0.62 5.78,1.47 3.73,1.67 7,4.72 9.51,8.55 2.39,3.63 4.02,7.93 5.26,12.62 0.1,0.28 0.1,0.55 0.14,0.84 l 0.1,0 C 77.58,51.55 77.68,46.38 76.31,41.44 74.96,36.52 72.05,31.82 67.82,28.47 65.74,26.8 63.28,25.48 60.81,24.6 58.18,23.71 55.54,23.29 52.83,23.19 Z M 27.91,48.46 c -0.1,0.16 -0.12,0.32 -0.18,0.48 0.1,-0.16 0.12,-0.32 0.18,-0.48 z m -0.38,1.04 c -0.22,0.66 -0.43,1.32 -0.62,1.99 0.19,-0.67 0.4,-1.33 0.62,-1.99 z M 195,43.16 l 6.1,0 0,9.66 0.9,0 6.4,-9.66 6.6,0 -8,11.97 0,0.1 8.4,12.99 -6.9,0 -6.5,-10.16 -0.9,0 0,10.16 -6.1,0 0,-25.03 m -13.8,-0.45 c 6.2,0 9.4,3.52 9.4,3.52 l -2.8,4.63 c 0,0 -2.8,-2.55 -6.3,-2.55 -4.8,0 -7.1,3.53 -7.1,7.14 0,3.71 2.5,7.53 7.1,7.53 3.8,0 6.7,-3.08 6.7,-3.08 l 3.1,4.48 c 0,0 -3.5,4.2 -10.1,4.2 -7.8,0 -13.1,-5.57 -13.1,-12.99 0,-7.28 5.6,-12.88 13.1,-12.88 m -25.6,6.12 c 0,0 -0.6,2.72 -1,4.31 l -1.5,4.85 5,0 -1.4,-4.85 c -0.5,-1.59 -1,-4.31 -1,-4.31 l -0.1,0 z m 3.9,14.07 -7.8,0 -1.5,5.25 -6.3,0 8.5,-25.02 6.4,0 8.5,25.02 -6.3,0 -1.5,-5.25 m -34.2,-19.77 6.1,0 0,19.77 10.2,0 0,5.26 -16.3,0 0,-25.03 m -12.1,19.77 c 1.8,0 2.6,-1.23 2.6,-2.63 0,-1.4 -0.8,-2.54 -2.5,-2.54 l -4.7,0 0,5.17 4.6,0 z m -0.5,-10.08 c 1.5,0 2.2,-1.12 2.2,-2.31 0,-1.16 -0.7,-2.13 -2.3,-2.13 l -4,0 0,4.44 4.1,0 z m -10.2,-9.69 10.1,0 c 5,0 8.5,2.24 8.5,6.54 0,2.1 -1,4.24 -2.9,5.32 l 0,0.1 c 2.9,0.87 3.9,3.42 3.9,5.62 0,5.47 -4.5,7.47 -9.5,7.47 l -10.1,0 0,-25.03 m 192.9,0.5 1.5,0 0,10.92 1.2,0 11.3,-10.92 1.9,0 -11.9,11.54 0,0.11 12.4,12.89 -1.9,0 -11.8,-12.18 -1.2,0 0,12.18 -1.5,0 0,-24.52 m -14.9,-0.44 c 5.8,0 8.8,3.08 8.8,3.08 l -0.9,1.12 c 0,0 -2.9,-2.76 -7.8,-2.76 -6,0 -10.6,4.72 -10.6,11.06 0,6.37 4.5,11.41 10.7,11.41 5.2,0 8.3,-3.32 8.3,-3.32 l 0.9,1.05 c 0,0 -3.3,3.71 -9.2,3.71 -7.2,0 -12.3,-5.75 -12.3,-12.85 0,-7.11 5.2,-12.5 12.1,-12.5 m -34.8,0.42 1.5,0 0,16.02 c 0,4.64 3,7.47 7.6,7.47 4.6,0 7.7,-2.83 7.7,-7.53 l 0,-15.96 1.5,0 0,16.1 c 0,5.4 -3.8,8.83 -9.2,8.83 -5.4,0 -9.1,-3.43 -9.1,-8.83 l 0,-16.1 m -18.2,23.1 c 6.5,0 10.9,-3.81 10.9,-10.85 0,-7 -4.4,-10.85 -10.9,-10.85 l -5.9,0 0,21.7 5.9,0 z m -7.4,-23.1 7.7,0 c 7.2,0 12.2,4.48 12.2,12.25 0,7.81 -5,12.25 -12.2,12.25 l -7.7,0 0,-24.5"></path></svg>