<?xml version="1.0"?>

<svg xmlns:dc="http://purl.org/dc/elements/1.1/" xmlns:cc="http://creativecommons.org/ns#" xmlns:rdf="http://www.w3.org/1999/02/22-rdf-syntax-ns#" xmlns:svg="http://www.w3.org/2000/svg" xmlns="http://www.w3.org/2000/svg" style="overflow:visible" xml:space="preserve" enable-background="new 0 0 300.005 60.469" overflow="visible" viewBox="0 0 344 104.47" height="104.47" width="344.01" id="Layer_1" version="1.1"><defs id="defs4293"></defs><path d="m 305.96,43.359 c 5.44,0 8.9,3.624 8.9,8.84 0,5.006 -3.39,8.831 -8.96,8.831 -5.08,0 -8.84,-3.948 -8.84,-8.713 0,-5.334 3.62,-8.958 8.9,-8.958 m 8.9,-6.023 0,4.514 -0.12,0 c -2.2,-3.639 -6.16,-5.271 -10.36,-5.271 -9.27,0 -14.85,6.898 -14.85,15.803 0,8.516 5.96,15.415 14.98,15.415 3.77,0 7.65,-1.436 9.86,-4.381 l 0.1,0 0,2.198 c 0,5.949 -2.24,10.09 -9.52,10.09 -4.2,0 -7.33,-1.574 -10.34,-4.347 l -4.51,6.155 c 4.25,3.776 9.34,4.957 14.92,4.957 11.73,0 16.98,-6.903 16.98,-17.741 l 0,-27.392 -7.14,0 z m -44.98,0 7.53,0 0,4.765 0.13,0 c 1.63,-3.447 4.94,-5.522 8.89,-5.522 0.95,0 1.82,0.192 2.7,0.447 l 0,7.268 c -1.25,-0.31 -2.45,-0.561 -3.64,-0.561 -7.08,0 -8.08,5.959 -8.08,7.592 l 0,16.099 -7.53,0 0,-30.088 z m -27.84,12.037 c 0.57,-4.332 3.33,-7.149 7.77,-7.149 4.7,0 7.59,2.759 7.65,7.149 l -15.42,0 z m 22.95,5.64 0,-2.065 c 0,-10.473 -5.71,-16.364 -14.1,-16.364 -9.11,0 -16.37,6.333 -16.37,15.798 0,9.465 7.26,15.789 16.37,15.789 4.75,0 9.21,-1.691 12.71,-6.009 l -5.39,-4.066 c -1.88,2.307 -4.33,4.066 -8.08,4.066 -4.2,0 -7.59,-2.699 -8.09,-7.149 l 22.95,0 z M 223.6,52.382 c 0,4.706 -3.32,9.023 -8.84,9.023 -5.52,0 -8.85,-4.317 -8.85,-9.023 0,-4.701 3.33,-9.033 8.85,-9.033 5.52,0 8.84,4.332 8.84,9.033 m -24.95,15.041 7.15,0 0,-4.51 0.11,0 c 2.21,3.624 6.15,5.257 10.36,5.257 9.26,0 14.85,-6.894 14.85,-15.789 0,-8.9 -5.96,-15.798 -14.55,-15.798 -5.63,0 -8.65,2.626 -10.21,4.583 l -0.19,0 0,-19.166 -7.52,0 0,45.423 z m -52.73,-30.087 7.15,0 0,4.706 0.11,0 c 1.32,-2.822 4.2,-5.463 9.22,-5.463 4.64,0 7.85,1.814 9.41,5.581 2.19,-3.816 5.39,-5.581 9.89,-5.581 8.03,0 10.85,5.713 10.85,12.922 l 0,17.923 -7.52,0 0,-17.048 c 0,-3.757 -1.12,-7.017 -5.58,-7.017 -4.7,0 -6.46,3.884 -6.46,7.764 l 0,16.3 -7.51,0 0,-17.923 c 0,-3.708 -1.51,-6.141 -5.14,-6.141 -4.95,0 -6.9,3.624 -6.9,7.641 l 0,16.423 -7.52,0 0,-30.087 z m -29.79,15.046 c 0,-4.701 3.32,-9.022 8.84,-9.022 5.52,0 8.83,4.322 8.83,9.022 0,4.7 -3.31,9.023 -8.83,9.023 -5.52,0 -8.84,-4.322 -8.84,-9.023 m -7.52,0 c 0,9.465 7.27,15.789 16.36,15.789 9.09,0 16.37,-6.323 16.37,-15.789 0,-9.466 -7.28,-15.798 -16.37,-15.798 -9.1,0 -16.36,6.333 -16.36,15.798 m -28.599,0 c 0,-4.701 3.324,-9.022 8.841,-9.022 5.517,0 8.831,4.322 8.831,9.022 0,4.7 -3.314,9.023 -8.831,9.023 -5.518,0 -8.841,-4.322 -8.841,-9.023 m -7.523,0 c 0,9.465 7.267,15.789 16.364,15.789 9.086,0 16.368,-6.323 16.368,-15.789 0,-9.466 -7.281,-15.798 -16.368,-15.798 -9.097,0 -16.364,6.333 -16.364,15.798 M 59.955,22 l 0,45.424 7.5,0 0,-45.424 -7.5,0 z m -30.058,7.813 6.52,0 c 5.959,0 8.585,1.883 8.585,5.708 0,3.324 -2.626,5.581 -7.897,5.581 l -7.208,0 0,-11.289 z M 22,67.423 l 15.98,0 c 8.398,0 16.796,-3 16.796,-12.657 0,-5.708 -4.002,-10.09 -9.579,-10.724 l 0,-0.132 c 4.563,-1.367 7.71,-4.69 7.71,-9.706 0,-8.088 -6.903,-11.157 -13.61,-11.157 l -17.297,0 0,44.376 z m 7.897,-19.555 7.582,0 c 6.392,0 9.411,1.632 9.411,6.274 0,5.821 -5.654,6.515 -9.726,6.515 l -7.267,0 0,-12.789 z" id="path4289"></path><metadata id="metadata4848"><rdf:rdf><cc:work rdf:about=""><dc:title></dc:title></cc:work></rdf:rdf></metadata></svg>