<?xml version="1.0"?>

    <svg xmlns="http://www.w3.org/2000/svg" viewBox="0 0 196 196" width="196" height="196">
        <path d="M 98.1,5 C 46.7,5 5,46.7 5,98 c 0,24.9 9.7,48.3 27.2,65.9 17.6,17.6 41,27.3 65.9,27.3 24.8,0 48.2,-9.7 65.8,-27.3 17.6,-17.6 27.3,-41 27.3,-65.9 0,-24.8 -9.7,-48.2 -27.3,-65.8 C 146.3,14.6 122.9,5 98.1,5 Z m 0,3.2 c 24,0 46.5,9.3 63.5,26.3 17,17 26.3,39.5 26.3,63.5 0,49.6 -40.3,89.9 -89.8,89.9 -24,0 -46.6,-9.3 -63.6,-26.3 C 17.5,144.6 8.2,122.1 8.2,98 8.2,74 17.5,51.5 34.5,34.5 51.5,17.5 74.1,8.2 98.1,8.2 Z m 0,3.7 c -47.6,0 -86.2,38.6 -86.2,86.1 0,47.6 38.6,86.2 86.2,86.2 47.6,0 86.1,-38.6 86.1,-86.2 0,-47.5 -38.5,-86.1 -86.1,-86.1 z m -12.7,4.6 6.9,0 6.2,16.2 6.2,-16.2 6.8,0 0,22.8 -4.6,0 0,-15.9 -5.9,15.9 -5,0 -6,-15.9 0,15.9 -4.6,0 0,-22.8 z m 64.6,17.4 3.5,4.3 -8.9,11.7 13.6,-5.8 3.8,4.6 -8.6,12.1 13.3,-6.3 3.5,4.4 -20.9,10.1 -4.1,-5.1 8.2,-12.1 0,0 L 140,57.3 135.8,52.2 150,33.9 Z M 45,37.2 c 1,0 1.9,0.4 2.9,1.1 0.9,0.8 1.3,1.1 2.5,3.2 0.2,0.7 0.4,2 -0.1,3.4 2.6,-1.6 5.5,-1.2 7.3,0.6 2.8,2.7 2.4,6 -0.3,9.1 L 45.7,68.5 28.3,53.9 39.3,40.7 c 1.6,-1.9 3.6,-3.5 5.7,-3.5 z M 98.1,43 c 30.3,0 55,24.7 55,55 0,30.4 -24.7,55.1 -55,55.1 C 67.7,153.1 43,128.4 43,98 43,67.7 67.7,43 98.1,43 Z m -54.6,0.3 c -0.7,0 -1.4,0.2 -1.7,0.7 l -6.7,7.9 4.1,3.4 6.6,-7.8 c 0.8,-1 0.8,-2.4 -0.4,-3.5 -0.6,-0.4 -1.3,-0.7 -1.9,-0.7 z m 54.6,3.3 c -28.5,0 -51.5,23 -51.5,51.4 l 51.5,0 0,-51.4 z m 0,51.4 0,51.5 c 28.4,0 51.5,-23 51.5,-51.5 l -51.5,0 z m -47,-49.3 c -0.7,0 -1.5,0.3 -1.9,0.8 l -7,8.3 4.3,3.7 6.9,-8.3 c 1,-1.1 0.8,-2.8 -0.5,-3.9 -0.5,-0.4 -1.2,-0.6 -1.8,-0.6 z"></path>
    </svg>