<?xml version="1.0"?>

<!-- Generator: Adobe Illustrator 19.1.0, SVG Export Plug-In . SVG Version: 6.00 Build 0)  -->
<svg version="1.1" id="Layer_1" xmlns="http://www.w3.org/2000/svg" xmlns:xlink="http://www.w3.org/1999/xlink" x="0px" y="0px" width="426px" height="200px" viewBox="87 0 426 200" enable-background="new 87 0 426 200" xml:space="preserve">
<path d="M366.308,106.537c0,11.293,0.02,22.582-0.012,33.873c-0.01,4.106-0.219,8.214-0.179,12.319
	c0.017,1.836-0.592,2.503-2.442,2.437c-3.821-0.133-8.581,1.265-11.201-0.527c-2.451-1.676-0.639-6.756-0.631-10.317
	c0.049-22.243,0.327-44.486,0.387-66.73c0.009-3.631,0.797-5.435,4.945-4.978c3.782,0.416,7.654,0.237,11.47,0.029
	c2.459-0.135,3.338,0.765,4.021,3.109c5.187,17.756,10.412,35.504,16.426,53.004c0.268,0.777,0.625,1.522,1.365,3.311
	c2.67-8.107,5.134-15.291,7.396-22.537c3.491-11.186,6.93-22.391,10.193-33.647c0.718-2.489,1.758-3.397,4.354-3.247
	c3.955,0.23,7.949,0.277,11.897-0.01c2.96-0.215,3.567,1.055,3.579,3.611c0.031,8.07,0.254,16.139,0.318,24.21
	c0.14,17.002,0.159,34.005,0.408,51.007c0.042,2.921-0.603,4.078-3.679,3.728c-3.625-0.41-8.73,1.535-10.558-0.723
	c-1.937-2.395-0.99-7.259-1.014-11.048c-0.08-12.58-0.031-25.161-0.735-37.882c-2.075,6.354-4.097,12.723-6.238,19.056
	c-3.074,9.093-6.318,18.13-9.3,27.252c-0.834,2.554-2.034,3.422-4.778,3.378c-8.634-0.14-8.663,0.003-11.47-8.199
	c-4.612-13.476-9.187-26.968-13.775-40.453C366.805,106.555,366.556,106.546,366.308,106.537z"></path>
<path d="M434.647,72.695c4.773,0,9.301,0.115,13.82-0.045c2.414-0.086,2.624,1.409,3.104,3.124
	c4.783,16.995,9.547,33.995,15.122,50.756c0.311,0.927,0.365,1.959,1.482,2.813c5.734-16.994,10.905-34.052,15.529-51.253
	c1.215-4.523,3.07-6.082,7.453-5.42c3.141,0.474,7.489-1.426,9.138,0.849c1.152,1.589-1.113,5.731-1.978,8.698
	c-6.828,23.47-14.36,46.717-22.004,69.931c-0.946,2.881-2.201,3.872-5.285,3.822c-11.017-0.177-11.016-0.048-14.587-10.813
	c-7.474-22.53-14.417-45.222-20.85-68.068C435.216,75.747,435.002,74.36,434.647,72.695z"></path>
<path d="M329.616,111.001c6.195,2.79,10.91,6.388,13.007,12.599c4.646,13.768-3.473,27.048-18.935,30.402
	c-10.352,2.247-20.925,0.788-31.39,1.136c-2.409,0.08-1.758-1.733-1.768-2.984c-0.049-5.813-0.014-11.628-0.014-17.442
	c0.002-19.428,0.061-38.857-0.066-58.283c-0.019-2.931,0.709-3.879,3.739-3.799c9.902,0.262,19.857-0.488,29.651,1.684
	c12.588,2.792,19.199,14.028,15.39,26.118C337.793,104.99,335.758,107.298,329.616,111.001z M318.234,141.653
	c6.089-1.446,8.989-4.978,9.033-11.003c0.048-6.285-2.834-10.428-8.764-11.757c-3.278-0.734-6.726-0.681-10.088-1.038
	c-1.854-0.198-2.505,0.56-2.446,2.398c0.102,3.248,0.029,6.502,0.029,9.753C305.999,143.87,306.579,144.424,318.234,141.653z
	 M305.994,96.898c0,9.573,1.339,10.517,10.877,7.677c5.481-1.635,7.968-5.692,6.969-11.379c-0.999-5.669-6.534-8.818-15.377-7.819
	c-5.248,0.594-1.283,5.201-2.433,7.712c-0.216,0.467-0.031,1.118-0.032,1.685C305.994,95.483,305.994,96.191,305.994,96.898z"></path>
<g>
	<path d="M311.026,56.917c0,1.553-0.09,3.113,0.031,4.658c0.085,1.077-0.405,1.599-1.225,2.087
		c-7.434,4.432-16.173,0.484-17.645-8.025c-0.671-3.878-0.478-7.709,1.339-11.29c1.772-3.486,4.699-5.333,8.582-5.626
		c2.636-0.198,5.213,0.017,7.643,1.231c0.784,0.39,1.203,0.728,0.81,1.683c-0.369,0.894-0.272,2.246-0.893,2.699
		c-0.728,0.533-1.587-0.661-2.443-1c-4.823-1.904-8.772,0.171-9.788,5.259c-0.603,3.018-0.522,6.003,0.819,8.842
		c1.27,2.688,3.562,4.018,6.16,3.67c1.089-0.147,1.808-0.509,1.637-1.847c-0.128-1.005-0.107-2.048,0-3.058
		c0.119-1.117-0.354-1.365-1.341-1.267c-0.701,0.07-1.431-0.074-2.123,0.033c-1.255,0.197-1.441-0.367-1.412-1.469
		c0.075-2.742,0.023-2.744,2.774-2.746c2.042-0.001,4.085,0.033,6.125-0.017c0.774-0.018,0.985,0.245,0.966,0.988
		C310.994,53.455,311.026,55.187,311.026,56.917z"></path>
	<path d="M337.002,62.784c-1.646,1.93-3.335,2.726-5.516,2.385c-2.527-0.397-3.95-1.705-4.448-4.213
		c-0.385-1.939-0.191-3.892-0.217-5.839c-0.033-2.617,0.03-5.235-0.03-7.851c-0.02-0.889,0.252-1.179,1.115-1.085
		c1.176,0.127,2.745-0.501,3.428,0.264c0.58,0.656,0.2,2.188,0.204,3.333c0.014,2.927-0.012,5.855,0.01,8.784
		c0.015,2.015,0.762,2.933,2.289,2.921c1.552-0.011,2.996-1.477,3.006-3.117c0.019-3.682,0.043-7.365-0.017-11.045
		c-0.015-0.959,0.27-1.226,1.186-1.147c1.096,0.096,2.561-0.352,3.212,0.202c0.761,0.647,0.242,2.155,0.25,3.287
		c0.029,4.701-0.012,9.404,0.031,14.107c0.009,0.881-0.245,1.19-1.105,1.084c-0.482-0.059-0.978-0.044-1.463-0.006
		C337.694,64.945,336.478,65.046,337.002,62.784z"></path>
	<path d="M318.788,48.59c1.322-1.94,2.917-2.755,4.99-2.686c0.774,0.026,1.04,0.272,0.89,1.023c-0.062,0.3-0.054,0.617-0.06,0.928
		c-0.03,1.331-0.28,2.207-2.046,2.031c-1.968-0.198-3.953,2.001-3.829,4.05c0.197,3.27,0.02,6.56,0.075,9.841
		c0.016,0.888-0.247,1.168-1.103,1.074c-1.134-0.121-2.645,0.483-3.307-0.252c-0.557-0.623-0.191-2.102-0.191-3.203
		c-0.008-4.7,0.013-9.401-0.022-14.101c-0.005-0.823,0.148-1.257,1.071-1.115c0.39,0.06,0.796,0.012,1.196,0.012
		C318.58,46.191,318.58,46.191,318.788,48.59z"></path>
	<path d="M349.21,63.419c0,2.842-0.025,5.371,0.014,7.897c0.014,0.802-0.119,1.168-1.065,1.176c-3.532,0.028-3.53,0.067-3.53-3.476
		c0-7.191,0.026-14.383-0.027-21.574c-0.01-1.09,0.326-1.367,1.327-1.268c0.792,0.079,1.595,0.011,2.396,0.018
		c0.415,0.004,0.928-0.156,0.895,0.59c-0.026,0.528,0.301,0.26,0.511,0.159c5.115-2.472,8.953-0.577,9.989,5.01
		c0.541,2.913,0.471,5.842-0.453,8.68c-1.108,3.403-3.909,5.115-7.146,4.498C351.046,64.926,350.18,64.357,349.21,63.419z
		 M349.203,59.206c-0.012,0.529,0.165,0.914,0.523,1.295c1.724,1.842,4.08,1.324,4.974-1.183c0.697-1.953,0.736-3.985,0.414-6.033
		c-0.174-1.113-0.437-2.161-1.209-3.033c-0.843-0.952-1.922-1.171-3.02-0.751c-1.065,0.411-1.83,1.153-1.695,2.522
		c0.11,1.098,0.023,2.216,0.023,3.324C349.212,56.634,349.231,57.92,349.203,59.206z"></path>
	<path d="M377.927,55.049c-0.088,1.73-0.229,3.27-0.749,4.753c-1.234,3.53-3.893,5.475-7.493,5.472
		c-3.573-0.003-6.299-1.981-7.448-5.529c-0.984-3.037-1.018-6.115,0.128-9.118c1.316-3.455,4.546-5.326,8.256-4.905
		c3.823,0.434,6.406,2.945,7.025,6.858C377.783,53.454,377.847,54.339,377.927,55.049z M372.41,51.259
		c-0.539-1.148-1.348-1.988-2.735-1.965c-1.376,0.026-2.243,0.842-2.686,2.03c-1.069,2.853-1.008,5.729,0.165,8.54
		c0.472,1.128,1.316,1.856,2.665,1.819c1.298-0.035,2.017-0.817,2.505-1.869c0.647-1.392,0.809-2.887,0.819-4.405
		C373.152,53.981,373.026,52.571,372.41,51.259z"></path>
</g>
<path d="M187.723,31.359c-3.619-9.663-9.882-15.381-19.346-19.315c13.134,0,25.051,0,37.891,0
	C197.174,15.897,190.975,21.62,187.723,31.359z M187.496,45.73c0-16.05-12.877-28.957-28.886-28.957V74.69l28.886,29.309
	l28.538-29.309V16.773C200.368,16.773,187.496,29.68,187.496,45.73L187.496,45.73z M187.496,161.92
	c0,15.701,12.872,28.608,28.538,28.608V132.61H158.61v57.918C174.619,190.529,187.496,177.621,187.496,161.92L187.496,161.92z
	 M129.725,103.651c-15.659,0.348-28.537,13.258-28.537,28.96h57.422V74.69h-57.422C101.188,90.74,114.066,103.651,129.725,103.651
	L129.725,103.651z M244.919,103.651c16.009,0,28.538-12.911,28.538-28.961h-57.422v57.92h57.422
	C273.456,116.909,260.928,103.999,244.919,103.651L244.919,103.651z"></path>
</svg>
