<?xml version="1.0"?>

<svg xmlns="http://www.w3.org/2000/svg" viewBox="0 180 612 612" width="612" height="612">

		<path d="M 510,180 H 102 C 45.9,180 0,225.9 0,282 v 408 c 0,56.1 45.9,102 102,102 h 408 c 56.1,0 102,-45.9 102,-102 V 282 C 612,225.9 566.1,180 510,180 Z m -55.8,429.8 c -5,12.2 -12.8,22.7 -23.5,31.5 -10.7,8.8 -24.3,15.8 -41,21 -16.7,5.2 -36.5,7.8 -59.5,7.8 h -164 V 313 h 173.5 c 32,0 57.7,7.3 77,22 19.3,14.7 29,36.8 29,66.5 0,18 -4.4,33.4 -13.2,46.2 -8.8,12.8 -21.4,22.8 -37.8,29.8 v 1 c 22,4.7 38.7,15.1 50,31.2 11.3,16.2 17,36.4 17,60.8 0,14 -2.5,27.1 -7.5,39.3 z m -86,-160 c 10,-8.5 15,-20.8 15,-36.8 0,-18 -4.5,-30.7 -13.5,-38 -9,-7.3 -22,-11 -39,-11 h -102 v 98.5 h 102 c 15,0 27.5,-4.3 37.5,-12.7 z m 15.3,72 C 373,512.3 358.3,507.6 339.3,507.6 H 228.8 V 619 h 110.5 c 19,0 33.8,-4.9 44.2,-14.8 10.5,-9.8 15.8,-23.8 15.8,-41.8 -0.1,-17.6 -5.3,-31.2 -15.8,-40.6 z"></path>
</svg>
