<?xml version="1.0"?>

<svg xmlns="http://www.w3.org/2000/svg" viewBox="0 0 552.6 102.7" height="102.7" width="552.6">
   <path d="m 492.2,53.92 c 0,-2.44 0.3,-5.15 1.5,-6.95 0.9,-2.41 3.3,-4.21 6,-4.21 2.7,0 5.1,1.5 6.3,3.3 1.8,2.41 1.8,5.12 1.8,7.86 0,2.43 0,4.87 -1.2,7.31 -1.5,2.4 -3.9,4.03 -6.9,4.03 -2.4,0 -4.8,-1.36 -5.7,-3.49 -1.5,-2.44 -1.8,-5.42 -1.8,-7.85 z m -4.8,0 c 0,7.31 3.9,14.86 12.3,14.86 8.4,0 12.9,-7.01 12.9,-14.86 0,-7.25 -4.2,-14.47 -12.3,-14.47 -8.7,0 -12.9,6.61 -12.9,14.47 m -2.1,14.31 -4.2,0.55 c -6.1,0 -8.2,-3.79 -8.2,-9.18 V 43.36 h -4.8 v -3.61 h 4.8 v -6.92 l 4.5,-0.3 v 7.22 h 6.4 v 3.61 h -6.4 v 16.78 c 0,3.22 0.9,5.12 4.6,5.12 l 3.3,-0.3 v 3.24 m -267.1,0 h 4.1 V 30.12 h -4.1 z m -12.9,0 h 4 V 30.12 h -4 z m 254.1,0 h 3.9 V 30.12 h -3.9 z M 446.2,40.05 h 4.2 v 28.18 h -4.2 z m -0.3,-9.93 h 4.8 v 4.82 h -4.8 z m -41.5,9.93 v 4.81 c 1.5,-2.71 4.8,-5.41 8.4,-5.41 4.2,0 7.2,2.7 7.8,6.01 1.8,-3.31 4.8,-6.01 9.3,-6.01 3,0 5.7,1.5 6.9,3.91 1.5,2.4 1.5,5.41 1.5,8.12 v 16.75 h -4.5 V 51.48 c 0,-1.81 0,-3.91 -0.6,-5.72 -0.9,-1.8 -2.7,-3 -4.8,-3 -2.1,0 -4.2,1.5 -5.4,3.3 -1.5,2.11 -1.5,4.22 -1.5,7.04 v 15.13 h -4.2 V 50.28 c 0,-1.51 0,-3.31 -0.9,-4.82 -1.2,-1.5 -3,-2.7 -4.8,-2.7 -2.1,0 -3.9,1.5 -5.1,2.7 -1.5,2.11 -1.8,4.52 -1.8,6.56 v 16.21 h -4.3 V 40.05 h 4 m -15.7,15.76 c 0,4.87 -3.6,9.45 -8.7,9.45 -3.3,0 -6,-1.36 -6,-4.88 0,-5.65 6,-6.46 11.1,-6.46 h 3.6 z m -3.6,-5.23 c -3.3,0 -7.5,0.3 -10.5,1.71 -2.7,1.35 -5.1,4.6 -5.1,7.85 0,5.66 4.5,8.64 9.9,8.64 4.2,0 7.5,-1.9 9.3,-5.96 l 0.6,5.41 h 4.2 c -0.3,-1.89 -0.6,-4.06 -0.6,-5.95 v -11.1 c 0,-3.01 0,-6.62 -2.4,-9.03 -2.1,-2.7 -5.4,-2.7 -8.1,-2.7 -5.1,0 -11.1,1.8 -12,7.82 l 3.9,0.3 c 0.6,-3.61 4.2,-4.81 7.5,-4.81 4.8,0 6.9,1.8 6.9,6.91 v 0.91 h -3.6 M 358.9,68.23 V 49.98 h -17.4 v 18.25 h -4.2 V 30.12 h 4.2 v 16.25 h 17.4 V 30.12 h 4.8 v 38.11 h -4.8 m -52.3,12.43 h 3.6 V 22 h -3.6 z m 216,-35.8 v 0 c 1.2,-3.01 4.8,-5.41 8.7,-5.41 3.3,0 6,1.2 8.1,4.21 1.2,2.4 1.2,6.32 1.2,8.9 v 15.67 h -4.2 V 50.58 c 0,-1.51 0,-3.31 -0.9,-5.12 -1.2,-1.5 -3,-2.4 -4.8,-2.4 -2.1,0 -4.2,1.2 -5.7,2.7 -1.8,2.11 -2.4,4.82 -2.4,7.61 v 14.86 h -4.2 V 40.05 h 4.2 v 4.81 m -259,0 h 0.3 c 1.3,-3.01 4.9,-5.41 8.7,-5.41 3.3,0 6,1.2 8.1,4.21 1.2,2.4 0.9,6.32 0.9,8.9 v 15.67 h -4.2 V 50.58 c 0,-1.51 0.3,-3.31 -0.6,-5.12 -0.9,-1.5 -3,-2.4 -4.8,-2.4 -2.4,0 -4.3,1.2 -6,2.7 -1.6,2.11 -2.1,4.82 -2.1,7.61 v 14.86 h -4.3 V 40.05 h 4 v 4.81 m -30.5,6.32 c 0,-4.21 3.2,-8.72 8.1,-8.72 4.8,0 7.8,4.21 7.6,8.72 z m 15.9,8.69 c -1.3,3.22 -4,5.39 -7.5,5.39 -3,0 -6.3,-1.9 -7.6,-4.58 -1.1,-1.89 -1.1,-4.06 -1.1,-6.22 h 20.6 c 0.2,-7.79 -3.6,-15.01 -12.2,-15.01 -8.4,0 -13,6.92 -13,14.74 0,7.82 4.3,14.59 12.7,14.59 5.4,0 10.3,-3.25 12.2,-8.37 L 249,59.87 m -57.5,-6.5 h -11.7 l 5.7,-18.13 z m -3,-23.25 h -5.1 l -12.5,38.11 h 4.1 l 3.5,-11.07 h 14 l 3.8,11.07 h 4.6 L 188.5,30.12 m -42.7,50.54 h 3.5 V 22 h -3.5 z m -24.6,-38.2 -15.4,22.25 h 15.4 v 3.52 h -20.8 v -3.52 l 15.1,-21.35 h -13.8 v -3.31 h 19.5 v 2.41 M 77.41,53.92 c 0,-2.44 0.3,-5.15 1.36,-6.95 1.08,-2.41 3.79,-4.21 6.46,-4.21 2.44,0 4.61,1.5 5.96,3.3 1.62,2.41 1.89,5.12 1.89,7.86 0,2.43 -0.3,4.87 -1.35,7.31 -1.35,2.4 -3.79,4.03 -6.5,4.03 -2.7,0 -5.11,-1.36 -6.19,-3.49 -1.36,-2.44 -1.63,-5.42 -1.63,-7.85 z m -4.87,0 c 0,7.31 3.79,14.86 12.15,14.86 8.66,0 13,-7.01 13,-14.86 0,-7.25 -4.06,-14.47 -12.19,-14.47 -8.36,0 -12.96,6.61 -12.96,14.47 m -24.64,0 c 0,-2.44 0.3,-5.15 1.4,-6.95 1.3,-2.41 3.8,-4.21 6.48,-4.21 2.44,0 4.88,1.5 6.23,3.3 1.36,2.41 1.63,5.12 1.63,7.86 0,2.43 -0.3,4.87 -1.36,7.31 -1.35,2.4 -3.52,4.03 -6.5,4.03 -2.68,0 -5.18,-1.36 -6.18,-3.49 -1.4,-2.44 -1.7,-5.42 -1.7,-7.85 z m -4.8,0 c 0,7.31 3.8,14.86 12.14,14.86 8.64,0 13.24,-7.01 13.24,-14.86 0,-7.25 -4.06,-14.47 -12.42,-14.47 -8.36,0 -12.96,6.61 -12.96,14.47 M 16.6,64.44 V 50.28 h 8.7 c 2.1,0 4.5,0 6.2,1.2 1.8,1.35 2.9,3.79 2.9,5.96 0,2.16 -0.8,4.03 -2.4,5.38 -1.6,1.35 -4.1,1.62 -6.2,1.62 z m 0,-17.77 V 34.03 h 8.7 c 1.8,0 3.4,0 5.1,0.6 1.9,1.21 2.9,3.01 2.9,5.12 0,2.1 -1,4.21 -2.4,5.11 -1.9,1.81 -4.6,1.81 -7,1.81 z m 9.5,21.56 c 3.5,0 6.4,-0.3 9.1,-2.43 2.7,-2.17 3.8,-4.88 3.8,-8.09 0,-4.88 -3.2,-8.64 -7.8,-9.84 4,-0.9 6.7,-4.21 6.7,-8.42 0,-3.01 -1.6,-5.72 -4,-7.52 C 31.2,30.42 29,30.12 26.1,30.12 H 12 v 38.11 h 14.1"></path></svg>