<?xml version="1.0"?>

<svg xmlns="http://www.w3.org/2000/svg" viewBox="0 0 265.8 89.4" height="358.1" width="1066">
  <path d="m 64.39,5.492 c -12.86,0 -21.43,11.188 -21.43,24.668 0,1.22 0.11,2.43 0.25,3.59 H 43.08 C 40.49,30.07 35.31,28.24 29.11,27.97 v -0.13 c 6.74,-1.36 11.32,-4.78 11.32,-10.5 0,-8.721 -9.38,-10.879 -16.94,-10.879 -2.04,0 -6.7,0.125 -8.13,0.125 -3.34,0 -6.935,-0.06 -10.066,-0.125 v 0.718 c 0,0.412 0.06,0.626 0.469,0.626 5.507,0.207 5.527,0.958 5.527,9.475 v 24.63 c 0,8.5 -0,9.26 -5.465,9.47 -0.48,0 -0.531,0.21 -0.531,0.62 v 0.75 c 3.197,-0.1 6.266,-0.12 9.526,-0.12 4.1,0 5.85,0.12 11.23,0.12 11.3,0 18.34,-5.37 18.81,-12.25 h 0.13 c 3.47,8.1 11.02,13.19 21.03,13.19 4.69,0 9.05,-1.49 12.59,-4.35 h 0.1 l 0.59,3.54 c 0.1,0.27 0.28,0.34 0.75,0.34 h 0.41 c 0,-2.25 0,-8.38 0.12,-12.94 h 0.16 c 3.4,8.44 11.08,13.41 20.36,13.41 9.1,0 12.4,-5.66 16.3,-5.66 0.4,0 0.5,-0.11 0.5,-0.65 0,-0.68 -0.1,-2.66 -0.1,-3.82 v -3.12 c 0,-5.79 0,-6.55 3.9,-6.75 0.5,0 0.5,-0.22 0.5,-0.63 v -0.75 c -3.2,0.1 -5.3,0.16 -8.5,0.16 -3.4,0 -7.4,-0.1 -10.5,-0.16 v 0.75 c 0,0.41 0.1,0.63 0.5,0.63 6.9,0.2 6.9,0.96 6.9,6.4 v 4.35 c 0,4.63 -3,7.5 -9.1,7.5 -10.09,0 -14.45,-9.75 -14.45,-22 0,-11.58 3.15,-22.667 14.35,-22.667 6.3,0 11.6,4.277 12,12.037 0,0.48 0.3,0.5 0.6,0.5 h 0.7 C 114.6,16.68 114.5,9.162 114.5,5.961 h -0.4 c -0.4,0 -0.6,0.07 -0.7,0.344 l -0.6,3.406 h -0.1 c -3.2,-2.928 -7.7,-4.219 -12,-4.219 -13.16,0 -21.87,11.188 -21.87,24.668 0,2.24 0.18,4.34 0.66,6.31 l -0.13,1.91 c -0.75,10.34 -6.79,13.56 -13.18,13.56 -10.15,0 -15,-9.34 -15,-22 0,-11.51 2.86,-22.667 14.03,-22.667 5.65,0 10.54,3.617 11.56,9.537 0.1,0.48 0.28,0.47 0.62,0.47 h 0.69 C 78.01,14.14 77.92,9.162 77.92,5.961 h -0.4 c -0.48,0 -0.68,0.07 -0.75,0.344 l -0.6,3.343 h -0.1 C 72.98,6.79 68.62,5.492 64.39,5.492 Z M 23.74,8.211 c 5.71,0.07 9.34,3.419 9.34,9.759 0,7.08 -4.37,9.59 -11.59,9.59 H 18.64 V 9.023 c 0,-0.477 0.1,-0.62 0.75,-0.687 0.96,-0.06 3.25,-0.125 4.35,-0.125 z m -5.1,20.979 h 2.72 c 8.17,0 15.6,1.96 15.6,10.75 0,6.94 -4.08,11.03 -11.22,11.03 -6.13,0 -7.1,-1.02 -7.1,-9.53 z M 136.2,70.94 c -3.5,0 -5.5,2.83 -5.5,6.4 0,4.29 2.4,6.57 5.7,6.57 1.8,0 2.8,-0.49 3.3,-0.72 h 0.1 l 0.3,0.47 c 0,0.12 0.1,0.12 0.2,0.12 h 0.3 c 0,-0.86 0,-3.2 0,-4.03 h -0.5 c -0.1,0 -0.1,0 -0.1,0.12 -0.3,2.27 -1.5,3.19 -3.4,3.19 -2.6,0 -3.9,-2.15 -3.9,-5.75 0,-2.67 0.6,-5.56 3.5,-5.56 1.7,0 2.7,1.03 3.1,2.91 0,0.12 0.1,0.12 0.2,0.12 h 0.4 c 0,-0.85 0,-2.86 0,-3.72 h -0.3 c -0.1,0 -0.2,0 -0.2,0.13 l -0.3,0.4 c -0.7,-0.41 -1.7,-0.65 -2.9,-0.65 z m 84.8,0 c -3.8,0 -5.6,2.87 -5.6,6.4 0,4.33 2.4,6.57 5.7,6.57 2.6,0 3,-1.53 4.1,-1.54 0.1,0 0.2,-0.1 0.2,-0.18 0,-0.19 -0.1,-0.73 -0.1,-1.03 v -0.47 c 0,-1.56 0,-1.58 1.1,-1.82 0.1,0 0.2,-0.1 0.2,-0.15 v -0.6 c -0.9,0 -1.5,0.1 -2.3,0.1 -0.9,0 -1.7,0 -2.5,-0.1 v 0.6 c 0,0.1 0,0.14 0.1,0.15 1.8,0.24 1.8,0.26 1.8,1.72 v 0.53 c 0,1.22 -1,1.97 -2.5,1.97 -3,0 -3.8,-2.95 -3.8,-5.75 0,-2.63 0.6,-5.59 3.6,-5.59 1.7,0 2.7,0.93 3.1,2.72 0.1,0.12 0.1,0.12 0.2,0.12 h 0.4 c 0,-0.83 0,-2.66 0,-3.53 h -0.3 c -0.1,0 -0.2,0 -0.2,0.13 l -0.3,0.4 v 0 c -0.7,-0.41 -1.7,-0.65 -2.9,-0.65 z M 45.99,71.22 c 0,0.89 0,2.67 0,3.5 h 0.47 c 0.12,0 0.14,0 0.15,-0.13 0.29,-2.37 1.08,-2.53 2.63,-2.53 h 1.15 c 0.19,0 0.22,0.1 0.22,0.19 v 8.19 c 0,2.28 0,2.31 -1.4,2.56 -0.13,0 -0.13,0 -0.13,0.16 v 0.5 c 0.85,0 1.49,0 2.38,0 0.87,0 1.54,0 2.37,0 v -0.5 c 0,-0.11 0,-0.15 -0.12,-0.16 -1.42,-0.25 -1.41,-0.28 -1.41,-2.56 v -8.19 c 0,-0.12 0,-0.19 0.19,-0.19 h 1.19 c 1.53,0 2.29,0.2 2.59,2.22 0,0.11 0.1,0.13 0.19,0.13 h 0.47 c 0,-0.84 0,-2.3 0,-3.19 -0.78,0 -1.78,0 -3.31,0 h -4.31 c -1.53,0 -2.49,0 -3.28,0 z m 29.59,0 v 0.47 c 0,0.11 0,0.14 0.13,0.15 1.38,0.25 1.4,0.28 1.4,2.57 v 6.03 c 0,2.28 0,2.31 -1.4,2.56 -0.12,0 -0.13,0 -0.13,0.16 v 0.5 c 0.86,0 1.65,0 2.53,0 0.94,0 1.38,0 2.44,0 3.14,0 5.06,-1.58 5.06,-3.5 0,-2.12 -1.9,-3.05 -3.94,-3.16 v -0.1 c 1.48,-0.32 2.72,-1.24 2.72,-2.82 0,-2.34 -2.52,-2.9 -4.56,-2.9 -0.71,0 -1.04,0 -1.75,0 -0.88,0 -1.68,0 -2.5,0 z M 80.17,72 c 1.55,0 2.54,0.65 2.54,2.28 0,1.81 -1.11,2.47 -3.13,2.47 H 78.8 v -4.53 c 0,-0.12 0,-0.17 0.22,-0.19 0.26,0 0.86,0 1.15,0 z m 10.41,2.87 c -2.21,0 -4.12,1.47 -4.12,4.63 0,2.65 1.79,4.34 4.12,4.34 2.2,0 4.13,-1.47 4.13,-4.62 0,-2.66 -1.8,-4.35 -4.13,-4.35 z m 7.38,0 c -1.48,0 -2.6,1.01 -2.6,2.47 0,2.91 4.41,2.22 4.41,4.5 0,0.79 -0.69,1.29 -1.78,1.28 -1.19,0 -1.85,-0.67 -2.1,-2.03 0,-0.1 -0.1,-0.1 -0.12,-0.1 h -0.41 c 0,0.6 0,2.17 0,2.75 h 0.25 c 0.1,0 0.14,0 0.19,-0.1 l 0.22,-0.32 c 0.48,0.28 1.03,0.47 2,0.47 1.48,0 2.98,-0.83 2.98,-2.65 0,-2.92 -4.42,-2.22 -4.42,-4.5 0,-0.55 0.39,-1.1 1.35,-1.1 1.08,0 1.64,0.85 1.9,1.94 0,0.1 0.1,0.1 0.13,0.1 h 0.34 c 0,-0.56 0,-1.93 0,-2.53 h -0.2 c -0.12,0 -0.15,0 -0.21,0.1 l -0.18,0.28 c -0.45,-0.45 -1.15,-0.6 -1.75,-0.6 z m 15.34,0 c -2.2,0 -4.1,1.47 -4.1,4.63 0,2.65 1.7,4.34 4.1,4.34 2.2,0 4.1,-1.47 4.1,-4.62 0,-2.66 -1.8,-4.35 -4.1,-4.35 z m 32.3,0 c -2.2,0 -4.1,1.47 -4.1,4.63 0,2.65 1.8,4.34 4.1,4.34 2.2,0 4.1,-1.47 4.1,-4.62 0,-2.66 -1.8,-4.35 -4.1,-4.35 z m 17.2,0 c -1.5,0 -2.6,1.01 -2.6,2.47 0,2.91 4.4,2.22 4.4,4.5 0,0.79 -0.7,1.29 -1.8,1.28 -1.2,0 -1.8,-0.67 -2.1,-2.03 0,-0.1 0,-0.1 -0.1,-0.1 h -0.4 c 0,0.6 0,2.17 0,2.75 h 0.3 c 0.1,0 0.1,0 0.1,-0.1 l 0.3,-0.32 c 0.4,0.28 1,0.47 2,0.47 1.4,0 3,-0.83 3,-2.65 0,-2.92 -4.5,-2.22 -4.5,-4.5 0,-0.55 0.4,-1.1 1.4,-1.1 1.1,0 1.7,0.81 1.9,1.72 0,0.1 0,0.1 0.1,0.1 h 0.4 c 0,-0.58 0,-1.87 0,-2.47 h -0.3 c -0.1,0 -0.1,0 -0.2,0.12 l -0.2,0.28 c -0.5,-0.34 -1.1,-0.47 -1.7,-0.47 z m 45.3,0 c -2.7,0 -4,2 -4,4.44 0,2.97 1.7,4.53 4,4.53 1.9,0 2.4,-0.93 3.1,-0.93 0.1,0 0.2,0 0.2,-0.13 0,-0.13 -0.1,-0.5 -0.1,-0.72 v -0.4 c 0,-1.05 0,-1.06 0.8,-1.22 0.1,0 0.1,0 0.1,-0.13 v -0.4 c -0.6,0 -1.1,0 -1.7,0 -0.6,0 -1.5,0 -2.1,0 v 0.4 c 0,0.1 0,0.11 0.1,0.13 1.4,0.15 1.4,0.15 1.4,1.12 v 0.28 c 0,0.84 -0.6,1.35 -1.6,1.35 -2,0 -2.6,-2.03 -2.6,-3.88 0,-1.79 0.4,-3.72 2.5,-3.72 1.1,0 1.8,0.63 2.1,1.85 0,0.1 0,0.1 0.1,0.1 h 0.4 c 0,-0.57 0,-1.99 0,-2.59 h -0.3 c -0.1,0 -0.1,0 -0.2,0.12 l -0.2,0.28 c -0.5,-0.3 -1.1,-0.47 -2,-0.47 z m 31.3,0 c -2.2,0 -4.1,1.47 -4.1,4.63 0,2.65 1.8,4.34 4.1,4.34 2.2,0 4.1,-1.47 4.1,-4.62 0,-2.66 -1.7,-4.35 -4.1,-4.35 z M 55.21,75.09 v 0.41 c 0,0.1 0,0.12 0.1,0.12 1.08,0.17 1.09,0.2 1.09,1.75 v 3.97 c 0,1.58 0,1.6 -1.09,1.75 -0.1,0 -0.1,0 -0.1,0.13 v 0.44 c 0.58,0 1.33,0 1.93,0 0.61,0 1.34,0 1.91,0 v -0.44 c 0,-0.1 0,-0.11 -0.1,-0.13 -1.07,-0.15 -1.07,-0.17 -1.07,-1.75 v -1.78 h 3.85 v 1.78 c 0,1.58 0,1.6 -1.06,1.75 -0.1,0 -0.1,0 -0.1,0.13 v 0.44 c 0.58,0 1.31,0 1.91,0 0.6,0 1.33,0 1.9,0 v -0.44 c 0,-0.1 0,-0.11 -0.1,-0.13 -1.06,-0.15 -1.06,-0.17 -1.06,-1.75 v -3.97 c 0,-1.55 0,-1.58 1.06,-1.75 0.1,0 0.1,-0.1 0.1,-0.12 v -0.41 c -0.58,0 -1.3,0 -1.9,0 -0.6,0 -1.34,0 -1.91,0 v 0.41 c 0,0.1 0,0.12 0.1,0.12 1.07,0.17 1.06,0.2 1.06,1.75 v 1.47 h -3.85 v -1.47 c 0,-1.55 0,-1.58 1.07,-1.75 0.1,0 0.1,-0.1 0.1,-0.12 v -0.41 c -0.59,0 -1.3,0 -1.91,0 -0.6,0 -1.36,0 -1.93,0 z m 9.84,0 v 0.41 c 0,0.1 0,0.12 0.13,0.12 1.08,0.17 1.06,0.2 1.06,1.75 v 3.97 c 0,1.58 0,1.6 -1.06,1.75 -0.1,0 -0.13,0 -0.13,0.13 v 0.44 c 0.58,0 1.34,0 1.94,0 h 2.72 c 1.05,0 1.71,0 2.25,0 0,-0.62 0,-1.98 0,-2.57 h -0.41 c -0.1,0 -0.11,0 -0.12,0.1 -0.2,1.45 -0.7,1.75 -1.75,1.75 h -0.82 c -1.14,0 -1.18,-0.14 -1.18,-1.72 v -1.81 h 0.15 c 1.05,0 1.32,0.13 1.44,1.18 0,0.1 0,0.1 0.12,0.1 h 0.41 c 0,-0.53 0,-0.85 0,-1.41 0,-0.56 0,-1.07 0,-1.59 h -0.41 c -0.1,0 -0.11,0 -0.12,0.1 -0.12,0.95 -0.39,1.12 -1.44,1.12 h -0.15 v -2.93 c 0,-0.1 0,-0.16 0.15,-0.16 h 1.19 c 1.06,0 1.58,0.19 1.78,1.53 0,0.1 0,0.1 0.13,0.1 h 0.37 c 0,-0.57 0,-1.66 0,-2.28 -0.54,0 -1.23,0 -2.28,0 h -2.03 c -0.6,0 -1.36,0 -1.94,0 z m 36.15,0 c 0,0.62 0,1.97 0,2.53 h 0.4 c 0.1,0 0.1,0 0.1,-0.1 0.2,-1.64 0.7,-1.78 1.8,-1.78 h 0.7 c 0.1,0 0.1,0.1 0.1,0.16 v 5.4 c 0,1.58 0,1.6 -1,1.75 -0.1,0 -0.1,0 -0.1,0.13 v 0.44 c 0.6,0 1.3,0 1.9,0 0.6,0 1.3,0 1.9,0 v -0.44 c 0,-0.1 0,-0.11 -0.1,-0.13 -1.1,-0.15 -1.1,-0.17 -1.1,-1.75 v -5.4 c 0,-0.1 0,-0.16 0.2,-0.16 h 0.7 c 1,0 1.6,0.14 1.8,1.78 0,0.1 0,0.1 0.1,0.1 h 0.4 c 0,-0.56 0,-1.91 0,-2.53 -0.6,0 -1.2,0 -2.3,0 h -3.2 c -1.1,0 -1.8,0 -2.3,0 z m 16.6,0 v 0.41 c 0,0.1 0,0.12 0.1,0.12 1.1,0.17 1.1,0.2 1.1,1.75 v 2.69 c 0,2.6 0,2.88 -1.1,3.03 -0.1,0 -0.1,0 -0.1,0.13 v 0.44 c 0.6,0 1,0 1.6,0 0.6,0 1.5,0 2.1,0 v -0.44 c 0,-0.1 -0.1,-0.11 -0.1,-0.13 -1.5,-0.14 -1.5,-0.43 -1.5,-3.03 v -3.34 0 l 4.1,5.81 c 0.3,0.44 0.6,0.9 0.9,1.31 h 1 v -5.22 c 0,-2.57 0,-2.83 1.1,-3 0.1,0 0.1,-0.1 0.1,-0.12 v -0.41 c -0.6,0 -1,0 -1.6,0 -0.7,0 -1.5,0 -2.1,0 v 0.41 c 0,0.1 0,0.12 0.1,0.12 1.5,0.16 1.5,0.43 1.5,3 v 2.72 0 l -4.4,-6.25 c -0.3,0 -0.8,0 -1.3,0 -0.3,0 -1.1,0 -1.5,0 z m 32.3,0 v 0.41 c 0,0.1 0.1,0.12 0.2,0.12 1,0.17 1,0.2 1,1.75 v 2.69 c 0,2.6 0,2.88 -1,3.03 -0.1,0 -0.2,0 -0.2,0.13 v 0.44 c 0.6,0 1.1,0 1.7,0 0.6,0 1.5,0 2,0 v -0.44 c 0,-0.1 0,-0.11 -0.1,-0.13 -1.5,-0.14 -1.5,-0.43 -1.5,-3.03 v -3.34 h 0.1 l 4,5.81 c 0.3,0.44 0.7,0.9 0.9,1.31 h 1 v -5.22 c 0,-2.57 0.1,-2.83 1.1,-3 0.1,0 0.1,-0.1 0.1,-0.12 v -0.41 c -0.6,0 -1,0 -1.6,0 -0.6,0 -1.5,0 -2.1,0 v 0.41 c 0,0.1 0,0.12 0.1,0.12 1.5,0.16 1.5,0.43 1.5,3 v 2.72 0 L 153,75.09 c -0.4,0 -0.8,0 -1.4,0 -0.3,0 -1,0 -1.5,0 z m 16.1,0 v 0.41 c 0,0.1 0,0.12 0.1,0.12 1.1,0.17 1.1,0.2 1.1,1.75 v 3.25 c 0,2.2 1.1,3.22 3.5,3.22 2.1,0 3.2,-1.02 3.2,-3.34 v -1.88 c 0,-2.65 0,-2.83 1,-3 0,0 0,-0.1 0,-0.12 v -0.41 c -0.6,0 -0.8,0 -1.4,0 -0.7,0 -1.5,0 -2,0 v 0.41 c 0,0.1 0,0.12 0,0.12 1.6,0.19 1.5,0.37 1.5,3 v 2.1 c 0,1.45 -0.7,2.22 -2.1,2.22 -1.6,0 -2.2,-0.83 -2.2,-2.1 v -3.47 c 0,-1.55 -0.1,-1.58 1,-1.75 0.1,0 0.1,-0.1 0.1,-0.12 v -0.41 c -0.6,0 -1.3,0 -1.9,0 -0.6,0 -1.3,0 -1.9,0 z m 9.5,0 v 0.41 c 0,0.1 0,0.12 0.1,0.12 1.1,0.17 1.1,0.2 1.1,1.75 v 3.97 c 0,1.58 0,1.6 -1.1,1.75 -0.1,0 -0.1,0 -0.1,0.13 v 0.44 c 0.6,0 1.2,0 1.8,0 h 2.9 c 1.1,0 1.5,0 2,0 0,-0.62 0,-2.22 0,-2.79 H 182 c -0.1,0 -0.1,0 -0.1,0.1 -0.2,1.61 -0.7,1.97 -1.8,1.97 h -0.6 c -1.1,0 -1.1,-0.13 -1.1,-1.72 v -3.85 c 0,-1.55 0,-1.58 1.3,-1.75 0.1,0 0.1,-0.1 0.1,-0.12 v -0.41 c -0.6,0 -1.6,0 -2.2,0 -0.6,0 -1.3,0 -1.9,0 z m 6,0 c 0,0.62 0,1.97 0,2.53 h 0.4 c 0.1,0 0.1,0 0.1,-0.1 0.2,-1.64 0.7,-1.78 1.8,-1.78 h 0.7 c 0.1,0 0.2,0.1 0.2,0.16 v 5.4 c 0,1.58 0,1.6 -1.1,1.75 -0.1,0 -0.1,0 -0.1,0.13 v 0.44 c 0.6,0 1.3,0 1.9,0 0.6,0 1.3,0 1.9,0 v -0.44 c 0,-0.1 0,-0.11 -0.1,-0.13 -1.1,-0.11 -1.1,-0.13 -1.1,-1.71 v -5.4 c 0,-0.1 0,-0.16 0.2,-0.16 h 0.7 c 1,0 1.6,0.14 1.8,1.78 0,0.1 0,0.1 0.1,0.1 h 0.4 c 0,-0.56 0,-1.91 0,-2.53 -0.6,0 -1.2,0 -2.3,0 H 184 c -1.1,0 -1.8,0 -2.3,0 z m 8.2,0 v 0.41 c 0,0.1 0.1,0.12 0.2,0.12 1,0.17 1,0.2 1,1.75 v 3.97 c 0,1.58 0,1.6 -1,1.75 -0.1,0 -0.2,0 -0.2,0.13 v 0.44 c 0.6,0 1.3,0 2,0 0.6,0 1.3,0 1.9,0 v -0.44 c 0,-0.1 0,-0.11 -0.1,-0.13 -1.1,-0.15 -1.1,-0.17 -1.1,-1.75 v -3.97 c 0,-1.55 0,-1.58 1.1,-1.75 0.1,0 0.1,-0.1 0.1,-0.12 v -0.41 c -0.6,0 -1.3,0 -1.9,0 -0.6,0 -1.4,0 -2,0 z m 4.5,0 v 0.41 c 0,0.1 0,0.12 0.2,0.12 1,0.17 1,0.2 1,1.75 v 2.69 c 0,2.6 0,2.88 -1,3.03 -0.1,0 -0.2,0 -0.2,0.13 v 0.44 c 0.6,0 1,0 1.6,0 0.6,0 1.5,0 2.1,0 v -0.44 c 0,-0.1 0,-0.11 -0.1,-0.13 -1.5,-0.14 -1.5,-0.43 -1.5,-3.03 v -3.34 h 0.1 l 4,5.81 c 0.3,0.44 0.7,0.9 0.9,1.31 h 1 v -5.22 c 0,-2.57 0,-2.83 1.1,-3 0.1,0 0.1,-0.1 0.1,-0.12 v -0.41 c -0.6,0 -1,0 -1.6,0 -0.6,0 -1.5,0 -2.1,0 v 0.41 c 0,0.1 0,0.12 0.1,0.12 1.5,0.16 1.5,0.43 1.5,3 v 2.72 l -4.4,-6.25 c -0.3,0 -0.8,0 -1.3,0 -0.3,0 -1,0 -1.5,0 z m 32.4,0 v 0.41 c 0,0.1 0.1,0.12 0.2,0.12 1,0.17 1,0.2 1,1.75 v 3.97 c 0,1.58 0,1.6 -1,1.75 -0.1,0 -0.2,0 -0.2,0.13 v 0.44 c 0.6,0 1.3,0 1.9,0 0.6,0 1.4,0 2,0 v -0.44 c 0,-0.1 0,-0.11 -0.1,-0.13 -1.1,-0.15 -1.1,-0.17 -1.1,-1.75 v -1.81 h 0.9 c 1.1,0 1.3,0.66 1.6,1.88 0.3,1.26 0.6,2.34 1.8,2.34 0.6,0 1.1,-0.29 1.5,-0.75 0,0 0,0 0,-0.1 0,0 0,0 0,-0.1 L 235,82.49 c -0.1,0.15 -0.3,0.35 -0.6,0.35 -1,0 -0.2,-3.23 -2.8,-3.72 v 0 c 1.8,-0.28 2.4,-1.17 2.4,-2.07 0,-1.49 -1.6,-2 -3.3,-2 -0.5,0 -1.4,0 -2,0 -0.6,0 -1.3,0 -1.9,0 z m 17.1,0 v 0.41 c 0,0.1 0,0.12 0.1,0.12 1.1,0.17 1.1,0.2 1.1,1.75 v 3.25 c 0,2.2 1.1,3.22 3.5,3.22 2.2,0 3.3,-1.02 3.3,-3.34 v -1.88 c 0,-2.65 0,-2.83 0.9,-3 0.1,0 0.1,-0.1 0.1,-0.12 v -0.41 c -0.6,0 -0.9,0 -1.5,0 -0.6,0 -1.4,0 -2,0 v 0.41 c 0,0.1 0,0.12 0.1,0.12 1.5,0.19 1.5,0.37 1.5,3 v 2.1 c 0,1.45 -0.7,2.22 -2.2,2.22 -1.6,0 -2.2,-0.83 -2.2,-2.1 v -3.47 c 0,-1.55 0,-1.58 1.1,-1.75 0.1,0 0.1,-0.1 0.1,-0.12 v -0.41 c -0.6,0 -1.4,0 -2,0 -0.6,0 -1.3,0 -1.9,0 z m 9.5,0 v 0.41 c 0,0.1 0,0.12 0.1,0.12 1.1,0.17 1.1,0.2 1.1,1.75 v 3.97 c 0,1.58 0,1.6 -1.1,1.75 -0.1,0 -0.1,0 -0.1,0.13 v 0.44 c 0.6,0 1.3,0 2,0 0.6,0 1.5,0 2.1,0 v -0.44 c 0,-0.1 0,-0.11 -0.1,-0.13 -1.3,-0.15 -1.3,-0.17 -1.3,-1.75 v -1.22 h 0.7 c 3.1,0 3.8,-1.51 3.8,-2.78 0,-1.83 -2,-2.25 -3.5,-2.25 -0.5,0 -1.1,0 -1.7,0 -0.7,0 -1.4,0 -2,0 z m -162.94,0.5 c 1.52,0 2.59,1.03 2.59,3.72 0,2.55 -0.8,3.82 -2.38,3.81 -1.52,0 -2.56,-1.04 -2.56,-3.71 0,-2.55 0.77,-3.82 2.35,-3.82 z m 22.74,0 c 1.5,0 2.5,1.03 2.5,3.72 0,2.55 -0.8,3.82 -2.3,3.81 -1.5,0 -2.6,-1.04 -2.6,-3.71 0,-2.55 0.8,-3.82 2.4,-3.82 z m 32.3,0 c 1.6,0 2.6,1.03 2.6,3.72 0,2.55 -0.8,3.82 -2.4,3.81 -1.5,0 -2.6,-1.04 -2.6,-3.71 0,-2.55 0.9,-3.82 2.4,-3.82 z m 93.8,0 c 1.5,0 2.6,1.03 2.6,3.72 0,2.55 -0.8,3.82 -2.4,3.81 -1.5,0 -2.5,-1.04 -2.5,-3.71 0,-2.55 0.7,-3.82 2.3,-3.82 z m -9.3,0.19 c 0.2,0 0.5,0 0.7,0 0.9,0 1.7,0.41 1.7,1.47 0,1.2 -0.8,1.66 -2.1,1.66 h -0.8 v -3 c 0,-0.1 0.2,-0.12 0.5,-0.13 z m 26.5,0 c 0.2,0 0.4,0 0.6,0 1.1,0 1.9,0.5 1.9,1.69 0,1.4 -0.8,1.97 -2.3,1.97 h -0.6 v -3.53 c 0,-0.1 0.1,-0.12 0.4,-0.13 z M 78.8,77.47 h 0.78 c 2.64,0 4.16,0.69 4.16,2.69 0,1.83 -1.12,2.65 -3.25,2.65 -1.65,0 -1.69,-0.18 -1.69,-2.5 z"></path>
</svg>
