<?xml version="1.0"?>
<!--?xml version="1.0" encoding="UTF-8" standalone="no"?-->
<svg xmlns:dc="http://purl.org/dc/elements/1.1/" xmlns:cc="http://creativecommons.org/ns#" xmlns:rdf="http://www.w3.org/1999/02/22-rdf-syntax-ns#" xmlns:svg="http://www.w3.org/2000/svg" xmlns="http://www.w3.org/2000/svg" xml:space="preserve" enable-background="new 0 0 191 95" viewBox="0 0 191 95" height="95px" width="191px" y="0px" x="0px" id="Layer_1" version="1.1"><defs id="defs4199"></defs><path d="m 186,71.35 c -1.1,0 -1.7,-0.81 -1.5,-1.94 0.2,-1.14 1.1,-1.94 2.2,-1.94 1.1,0 1.7,0.8 1.5,1.94 -0.2,1.12 -1.1,1.94 -2.2,1.94 l 0,0 z m -0.1,0.61 c 1.4,0 2.7,-1.15 3,-2.55 0.2,-1.42 -0.7,-2.56 -2.1,-2.56 -1.4,0 -2.8,1.14 -3,2.56 -0.3,1.4 0.7,2.55 2.1,2.55 l 0,0 z m 1,-2.33 c 0.5,-0 0.8,-0.23 0.9,-0.75 0.1,-0.65 -0.2,-0.85 -0.9,-0.85 l -1.4,0 -0.5,2.76 0.6,0 0.2,-1.16 0.5,0 0.4,1.16 0.7,0 -0.5,-1.16 0,0 z m -1,-0.42 0.1,-0.76 0.7,0 c 0.2,0 0.6,-0 0.6,0.35 -0.1,0.35 -0.3,0.42 -0.6,0.41 l -0.8,0 0,0 z m -28.8,2.73 3.6,-20.19 8,0 1.3,12.59 5.8,-12.59 8,0 -3.6,20.19 -6,0 1.1,-6.16 0.7,-3.15 1,-3.65 -0.1,0 -6,12.96 -4.6,0 -1.3,-12.96 -0.1,0 -0.2,2.97 -0.4,3.13 -1.2,6.86 -6,0 z m -9.5,-15.78 c 2.9,-0.1 3.5,2.83 3,5.58 -0.6,3.33 -2.1,5.78 -5,5.78 -3.2,0 -3.4,-3.21 -2.9,-5.78 0.4,-2.55 1.9,-5.58 4.9,-5.58 l 0,0 z m 0.9,-4.94 c -6.3,0 -11.3,4.12 -12.4,10.45 -1.2,6.87 2.3,10.79 8.6,10.79 6,0 11.3,-3.86 12.5,-10.72 1,-5.32 -1.5,-10.52 -8.7,-10.52 l 0,0 z m -19.3,8.24 c 0.2,-2.09 -0.9,-3.3 -3,-3.3 -2.3,0 -4,1.99 -4.7,5.88 -0.5,2.83 -0.4,5.49 3,5.49 2.1,0 3.4,-1.49 4,-3.42 l 6.4,0 c -1.6,5.21 -5.9,8.35 -11.2,8.35 -6.7,0 -10,-4.09 -8.8,-10.64 1.1,-6.53 6.3,-10.6 11.9,-10.6 6.2,0 9.1,3.06 8.7,8.24 l -6.3,0 0,0 z m -27.4,-3.01 1.3,0 c 3.5,0 4.7,1.12 4,5.34 -0.7,3.83 -2.7,5.46 -5.8,5.46 l -1.38,0 1.88,-10.8 0,0 z m -0.6,15.49 c 6.5,0 11.2,-2.9 12.5,-10.51 1.2,-6.67 -2.3,-9.68 -8.8,-9.68 l -8.87,0 -3.56,20.19 8.73,0 0,0 z m -17.61,-6.86 -4.19,0 3.33,-7.24 0.86,7.24 0,0 z m -7.41,6.86 1.22,-2.66 6.6,0 0.31,2.66 6.6,0 -3.68,-20.19 -6.73,0 -10.8,20.19 6.48,0 0,0 z M 63.21,56.16 c 2.93,-0.1 3.54,2.83 3.05,5.58 -0.59,3.33 -2.14,5.78 -4.99,5.78 -3.18,0 -3.39,-3.21 -2.94,-5.78 0.45,-2.55 1.89,-5.58 4.88,-5.58 l 0,0 z m 0.93,-4.94 c -6.28,0 -11.3,4.12 -12.41,10.45 -1.22,6.87 2.33,10.79 8.66,10.79 5.97,0 11.28,-3.86 12.49,-10.72 0.94,-5.32 -1.54,-10.52 -8.74,-10.52 l 0,0 z m -24.38,5.23 3.08,0 c 1.54,0 2.54,0.68 2.28,2.11 -0.24,1.41 -1.42,1.93 -3.47,1.93 l -2.6,0 0.71,-4.04 0,0 z m 0.52,8.45 c 3.09,0 3.38,0.86 2.92,3.51 -0.32,1.78 -0.38,3.08 -0.29,3.53 l 6.7,0 0.11,-0.62 c -0.78,0 -0.54,-0.91 -0.1,-3.53 0.72,-4.07 -0.49,-4.58 -2.48,-5.34 2.47,-0.66 3.85,-2.62 4.27,-4.96 0.69,-3.92 -1.21,-5.74 -7.93,-5.74 l -9.54,0 -3.56,20.19 6.62,0 1.24,-7.04 2.02,0 0,0 z m -19.5,-1.42 c 2.1,0 3.61,0.12 3.29,1.91 -0.27,1.52 -1.55,1.86 -3.17,1.86 l -2.87,0 0.66,-3.77 2.09,0 0,0 z m 1.47,-7.03 c 1.41,0 2.69,0 2.41,1.6 -0.2,1.18 -1.26,1.76 -2.58,1.76 l -2.74,0 0.59,-3.36 2.32,0 0,0 z m -1.83,15.49 c 5.22,0 8.94,-1.56 9.74,-6.07 0.38,-2.2 -0.46,-4.07 -2.55,-4.63 1.46,-0.84 3.08,-2.36 3.44,-4.43 0.71,-4.01 -2.72,-5.06 -7.27,-5.06 l -9.65,0 -3.55,20.19 9.84,0 0,0 z m 85.58,-24.8 -7.52,0 -3.22,-33.68 c -0.19,-1.71 -1.07,-1.58 -1.07,-1.58 0,0 -0.88,-0.13 -1.08,1.58 l -3.23,33.67 -7.55,0 4.44,-36.58 c 1.25,-8.805 7.43,-8.429 7.43,-8.429 0,0 6.2,-0.399 7.4,8.429 l 4.4,36.59 0,0 z m -104.165,34.8 9.695,0 c 5.25,0 11.85,-7.22 20.6,-7.13 12.79,0.14 19.26,12.52 31.51,12.38 8.35,-0.1 8.49,-5.38 11.58,-10.63 l 7.94,0 C 80.88,81.81 77.65,93.25 63.77,93.39 49.78,93.52 45.73,81.14 32.27,81.14 c -7.81,0 -13.74,6.85 -20.87,6.85 l -9.565,0 0,-6.05 0,0 z m 187.065,0 -12.5,0 c -5.3,0 -11.9,-7.22 -20.6,-7.13 -12.8,0.14 -19.3,12.52 -31.5,12.38 -8.4,-0.1 -8.5,-5.38 -11.6,-10.63 l -7.9,0 c 2.2,5.25 5.5,16.69 19.3,16.83 14,0.13 18.1,-12.25 31.6,-12.25 7.8,0 13.7,6.85 20.8,6.85 l 12.4,0 0,-6.05 0,0 z" id="path4195"></path><metadata id="metadata4748"><rdf:rdf><cc:work rdf:about=""><dc:title></dc:title></cc:work></rdf:rdf></metadata></svg>