<?xml version="1.0"?>
<!--?xml version="1.0" encoding="UTF-8" standalone="no"?-->
<svg xmlns:dc="http://purl.org/dc/elements/1.1/" xmlns:cc="http://creativecommons.org/ns#" xmlns:rdf="http://www.w3.org/1999/02/22-rdf-syntax-ns#" xmlns:svg="http://www.w3.org/2000/svg" xmlns="http://www.w3.org/2000/svg" xml:space="preserve" style="enable-background:new 0 0 438.93 144;" viewBox="0 0 438.93 144" height="144px" width="438.93px" y="0px" x="0px" id="Layer_1" version="1.1"><defs id="defs33"></defs><path d="m 397.85,56.29 c 2.34,-1.93 3.84,-4.86 3.84,-8.13 0,-5.83 -4.72,-10.54 -10.55,-10.54 h -40.83 c 10.45,10.56 20.4,15.98 28.19,18.67 -7.79,2.67 -17.74,8.11 -28.19,18.67 h 40.83 c 5.82,0 10.55,-4.71 10.55,-10.54 0,-3.27 -1.49,-6.19 -3.84,-8.13 z m -7.23,12.97 h -24.44 c 9.32,-6.5 17.32,-9.67 24.44,-9.67 2.66,0 4.82,2.17 4.82,4.84 0,2.66 -2.16,4.83 -4.82,4.83 z m 0,-16.27 c -7.12,0 -15.12,-3.16 -24.44,-9.66 h 24.44 c 2.66,0 4.82,2.17 4.82,4.83 0,2.67 -2.16,4.83 -4.82,4.83 z m 18.27,-13.44 c 0,0.97 -0.34,1.8 -1.04,2.49 -0.69,0.69 -1.53,1.04 -2.5,1.04 -0.97,0 -1.8,-0.34 -2.49,-1.04 -0.69,-0.69 -1.04,-1.52 -1.04,-2.49 0,-0.96 0.35,-1.8 1.04,-2.49 0.69,-0.69 1.52,-1.04 2.49,-1.04 0.97,0 1.8,0.35 2.5,1.04 0.7,0.69 1.04,1.52 1.04,2.49 z m -0.5,0 c 0,-0.83 -0.29,-1.55 -0.89,-2.14 -0.6,-0.59 -1.31,-0.89 -2.14,-0.89 -0.83,0 -1.54,0.29 -2.14,0.89 -0.6,0.59 -0.9,1.31 -0.9,2.14 0,0.83 0.3,1.55 0.89,2.14 0.59,0.59 1.31,0.89 2.14,0.89 0.83,0 1.55,-0.3 2.14,-0.89 0.61,-0.6 0.9,-1.31 0.9,-2.14 z m -1.36,2.05 h -0.67 l -0.79,-1.75 h -1.13 v 1.75 h -0.6 v -4.11 h 1.73 c 0.47,0 0.82,0.12 1.06,0.36 0.23,0.24 0.34,0.51 0.34,0.8 0,0.22 -0.1,0.43 -0.19,0.63 -0.13,0.2 -0.33,0.34 -0.61,0.42 z m -2.59,-2.23 h 1.06 c 0.28,0 0.49,-0.07 0.62,-0.21 0.14,-0.14 0.2,-0.31 0.2,-0.51 0,-0.21 -0.1,-0.37 -0.22,-0.48 -0.14,-0.11 -0.32,-0.16 -0.54,-0.16 h -1.13 v 1.36 z m -90.25,67.16 V 52.31 h 34.88 v 8.05 h -25.12 v 14.72 h 20.16 v 7.88 h -20.16 v 15.2 h 25.44 v 8.37 z m -47.8,-54.22 h 20 c 3.09,0 10.16,0.08 16.75,6.75 5.29,5.36 7.72,12.76 7.72,20.32 0,11.46 -5.29,18.29 -9.03,21.62 -2.27,2.03 -8.37,5.53 -17.64,5.53 H 266.38 V 52.31 Z m 10,46.25 h 8.21 c 8.46,0 15.69,-6.5 15.69,-19.59 0,-9.92 -5.28,-18.94 -14.55,-18.94 h -9.34 v 38.53 z m -12.6,7.97 h -10.41 l -4.39,-12.92 h -20.81 l -4.23,12.92 h -8.37 l 18.05,-54.22 h 11.95 z M 246.39,85.8 238.51,61.58 230.62,85.8 Z m -28.69,2.93 c -2.11,14.31 -11.95,18.62 -20.57,18.62 -18.21,0 -21.71,-18.62 -21.71,-27.97 0,-14.06 6.5,-27.88 22.03,-27.88 11.54,0 18.29,7.32 20.24,19.19 l -9.1,0.97 c -0.97,-4.31 -2.85,-12.28 -11.06,-12.28 -10.89,0 -11.54,14.88 -11.54,19.76 0,15.52 6.18,20 11.87,20 5.12,0 9.92,-4.06 10.73,-11.46 z m -68.04,18.61 c -17.07,0 -22.84,-15.85 -22.84,-28.13 0,-14.63 8.29,-27.72 23.25,-27.72 15.28,0 22.84,13.33 22.84,27.88 0,16.59 -9.02,27.97 -23.25,27.97 z m 10,-42.03 c -2.76,-5.61 -7.56,-5.94 -9.75,-5.94 -10.24,0 -12.52,10.49 -12.52,20.16 0,6.42 1.06,19.92 12.36,19.92 4.88,0 8.54,-3.01 10.16,-6.26 1.3,-2.6 2.44,-6.18 2.44,-13.9 0,-2.19 -0.17,-8.86 -2.69,-13.98 z m -45.44,41.22 -8.45,-22.27 H 92.03 v 22.27 H 82.28 V 52.31 h 23.49 c 6.75,0 10.81,1.3 14.15,4.23 2.76,2.52 4.88,6.18 4.88,11.71 0,10.16 -6.99,13.17 -9.75,14.39 l 9.51,23.9 H 114.22 Z M 92.03,76.45 h 12.2 c 4.8,0 10.41,-1.63 10.41,-8.37 0,-4.07 -2.68,-7.97 -9.59,-7.97 H 92.03 Z M 37.46,52.31 H 58.6 c 4.23,0 10.49,0 14.63,5.2 2.44,3.01 3.01,6.34 3.01,8.86 0,1.63 -0.08,9.84 -9.84,12.11 2.19,0.49 5.61,1.14 8.45,4.39 2.52,3.01 3.09,6.42 3.09,8.86 0,3.9 -1.54,8.37 -4.39,10.81 -4.15,3.5 -8.21,3.98 -12.36,3.98 H 37.46 Z m 9.27,22.84 h 11.95 c 4.71,0 7.89,-3.09 7.89,-7.89 0,-6.34 -5.94,-7.23 -8.13,-7.23 H 46.73 Z m 0,23.25 h 12.68 c 5.04,0 8.62,-2.76 8.62,-7.81 0,-4.39 -3.25,-7.72 -8.62,-7.72 H 46.73 Z" id="path24"></path><metadata id="metadata4252"><rdf:rdf><cc:work rdf:about=""><dc:title></dc:title></cc:work></rdf:rdf></metadata></svg>