<?xml version="1.0"?>

<svg xmlns="http://www.w3.org/2000/svg" viewBox="0 0 1000 444" width="1000" height="444"> <path d="m 507.8,222.6 c -34.6,-2 -23.8,-72.9 12.6,-70.9 37.5,2 25.5,73 -12.6,70.9 z m 46.1,-85.9 -2.8,16 c -4,-8 -15.4,-18 -33.6,-18 -32.4,0 -51.7,27 -55.1,55 -3.5,32.5 17.6,51.5 38.6,51.5 20.5,0 31.3,-8.9 37.6,-19.1 l 0,1.6 c -2.3,9.5 5.6,15.4 13,15.4 l 6.9,0 17.6,-102.4 -22.2,0 m -164.3,87.9 c -37,-2.1 -25,-73.9 13.1,-71.9 34.1,2 23.3,73.9 -13.1,71.9 z M 410,134.7 c -19.3,0 -31.8,9 -38.6,19 l 0.6,-1 c 1.7,-10 -6.3,-16 -13.7,-16 l -6.8,0 c 0,0 -19.4,110.2 -22.2,123.5 -2.8,15.6 9.7,19.2 13.7,19.2 3.4,0 2.8,0 5.6,0 L 358.9,223 c 4,8 15.9,18.2 34.1,18.2 33,0 53.4,-25.7 55.7,-55.5 1.7,-32 -17,-51 -38.7,-51 M 263.9,241.2 c 35.8,0 49.5,-18.6 53.5,-40.5 1.7,-8 8.5,-45 9.1,-48 1.1,-11 -8,-16 -14.8,-16 -2.3,0 -6.3,0 -6.3,0 0,0 -10.2,56 -11.3,63 -2.3,13.5 -8.6,22.9 -27.3,22.9 -10.8,0 -21.1,-6.3 -18.8,-20.9 1.1,-5 8,-46 8.5,-49 2.3,-11 -7.4,-16 -14.8,-16 -1.1,0 -6.2,0 -6.2,0 -1.1,9 -8,45 -10.2,59 -1.2,5 -1.2,11.1 -1.2,14.8 2.3,19.1 19.3,30.8 39.8,30.8 M 159.3,221.4 c -2.8,0.8 -7.4,1.2 -17.1,1.2 -7.4,0 -17,0 -17,0 l 8.5,-47.9 25,0 c 33,0 30.2,39.5 0.6,46.7 z m -14.2,-109.7 22.2,0 c 27.2,0 25,37 1.7,45 -2.9,1 -7.4,1 -14.8,1 -7.4,0 -17.1,0 -17.1,0 l 8,-46 z m 39.8,53 c 10.2,-3 29,-13 29,-35 0,-23 -15.4,-33.97 -41,-33.97 -16.4,0 -41.5,0 -50.6,0 L 96.66,239.1 c 2.9,0 30.84,0 46.14,0 10.8,0 21,-0.6 26.2,-1.6 26.1,-5.4 36.9,-24.3 38.6,-37.8 2.9,-19 -9.1,-32 -22.7,-35 m 558.1,135 c 0,1.9 1,2.1 1,0.9 6,-7.2 23,-32.5 33,-43.3 12,-12.7 22,-15 36,-5.4 15,9.5 26,21.1 39,25.7 14,4.6 44,2.7 44,2.7 l -5,26 c 0,0 -27,2 -45,-2.9 -17,-4.9 -33,-17.8 -40,-22.4 -7,-4.6 -12,-4.9 -16,-0.6 -4,4.5 -23,33 -33,46.8 -9,13.8 -26,21 -34,2.2 -6,-16.6 -9,-204.7 -10,-205.7 0,-2 -1,-2 -2,0 0,1 -54,233.3 -61,257.8 -9,27.2 -28.4,35.1 -37,12.5 -9.1,-22.6 -15.3,-57.8 -18.7,-71.2 -2.9,-12.5 -6.3,-12.2 -18.2,-3.8 -11.4,8.4 -29,20.8 -48.4,20.8 -19.3,0 -189.9,0 -189.9,0 L 343,312 c 0,0 155.2,0 179.6,0 24.5,0 35.9,-17.1 48.9,-25.8 13.1,-8.7 27.3,-11.6 37.6,3 10.2,14.1 13.6,43.3 20.9,74.1 0,0.7 0,0.7 1,0 16,-78.6 53,-230.6 64,-275.57 11,-45.95 38,-46.95 41,-3 3,43.97 7,190.27 7,214.87"></path> </svg>