<?xml version="1.0"?>

<!-- Generator: Adobe Illustrator 19.1.0, SVG Export Plug-In . SVG Version: 6.00 Build 0)  -->
<svg version="1.1" id="Capa_1" xmlns="http://www.w3.org/2000/svg" xmlns:xlink="http://www.w3.org/1999/xlink" x="0px" y="0px" width="792px" height="383.36px" viewBox="0 0 792 383.36" enable-background="new 0 0 792 383.36" xml:space="preserve">
<g>
	<path d="M33.828,47.757h26.561c10.681,0,18.896,1.344,24.633,4.027c5.739,2.683,10.27,6.807,13.602,12.366
		c3.327,5.559,4.992,11.732,4.992,18.525c0,6.338-1.461,12.106-4.376,17.311c-2.914,5.202-7.199,9.423-12.851,12.655
		c7,2.521,12.388,5.475,16.162,8.868c3.773,3.397,6.71,7.506,8.81,12.324c2.103,4.817,3.153,10.032,3.153,15.657
		c0,11.446-3.955,21.13-11.862,29.051c-7.908,7.917-18.511,11.878-31.824,11.878h-37V47.757z M47.014,61.729v45.674h7.712
		c9.359,0,16.244-0.918,20.649-2.762c4.402-1.847,7.893-4.752,10.462-8.733c2.571-3.971,3.859-8.384,3.859-13.233
		c0-6.533-2.157-11.653-6.472-15.377c-4.315-3.715-11.182-5.57-20.603-5.57H47.014z M47.014,121.758v54.699h16.7
		c9.847,0,17.062-1.02,21.65-3.055c4.587-2.037,8.272-5.218,11.056-9.554c2.781-4.331,4.173-9.022,4.173-14.061
		c0-6.338-1.955-11.865-5.865-16.585c-3.915-4.717-9.293-7.955-16.139-9.695c-4.591-1.17-12.575-1.748-23.955-1.748H47.014z"></path>
</g>
<g>
	<path d="M137.409,84.903h12.822v49.27c0,12.022,0.611,20.301,1.836,24.828c1.835,6.463,5.333,11.566,10.501,15.318
		c5.165,3.752,11.327,5.624,18.48,5.624c7.154,0,13.224-1.823,18.209-5.475c4.982-3.654,8.42-8.454,10.319-14.404
		c1.283-4.074,1.925-12.702,1.925-25.891v-49.27h13.096v51.788c0,14.55-1.602,25.509-4.807,32.876
		c-3.206,7.374-8.03,13.144-14.47,17.314c-6.445,4.169-14.519,6.254-24.227,6.254c-9.705,0-17.811-2.085-24.315-6.254
		c-6.499-4.169-11.355-9.988-14.559-17.456c-3.207-7.467-4.81-18.704-4.81-33.706V84.903z"></path>
</g>
<g>
	<path d="M303.172,96.445l-8.238,9.021c-6.858-7.048-13.558-10.573-20.11-10.573c-4.164,0-7.728,1.455-10.695,4.366
		c-2.969,2.908-4.457,6.301-4.457,10.183c0,3.428,1.223,6.691,3.67,9.796c2.446,3.17,7.591,6.884,15.421,11.146
		c9.544,5.246,16.032,10.285,19.456,15.135c3.366,4.919,5.051,10.441,5.051,16.583c0,8.665-2.879,16.001-8.626,22.012
		c-5.749,6.017-12.935,9.023-21.551,9.023c-5.753,0-11.243-1.325-16.466-3.972c-5.232-2.653-9.555-6.307-12.979-10.968l8.059-9.694
		c6.547,7.824,13.493,11.736,20.84,11.736c5.134,0,9.51-1.743,13.123-5.238c3.61-3.491,5.416-7.595,5.416-12.317
		c0-3.878-1.193-7.336-3.582-10.377c-2.382-2.973-7.768-6.725-16.148-11.25c-8.994-4.915-15.118-9.765-18.354-14.549
		c-3.242-4.779-4.871-10.246-4.871-16.39c0-8.013,2.585-14.678,7.756-19.976c5.166-5.304,11.69-7.953,19.586-7.953
		C284.646,82.19,293.88,86.942,303.172,96.445z"></path>
</g>
<g>
	<path d="M330.33,41.456c2.922,0,5.41,1.099,7.477,3.298c2.068,2.199,3.1,4.849,3.1,7.952c0,3.042-1.032,5.659-3.1,7.858
		c-2.068,2.198-4.555,3.295-7.477,3.295c-2.856,0-5.316-1.097-7.389-3.295c-2.068-2.2-3.096-4.817-3.096-7.858
		c0-3.104,1.028-5.753,3.096-7.952C325.014,42.555,327.474,41.456,330.33,41.456z M323.965,84.903h12.82v258.296h-12.82V84.903z"></path>
</g>
<path d="M363.436,84.903h12.824v18.914c5.129-7.242,10.803-12.659,17.034-16.246c6.228-3.592,13.005-5.382,20.332-5.382
	c7.449,0,14.057,2.006,19.826,6.012c5.767,4.008,10.026,9.407,12.775,16.196c2.747,6.792,4.122,17.36,4.122,31.711v54.312h-12.822
	v-50.332c0-12.155-0.476-20.27-1.423-24.346c-1.49-6.979-4.339-12.237-8.55-15.756c-4.211-3.525-9.71-5.287-16.488-5.287
	c-7.753,0-14.705,2.712-20.842,8.144c-6.14,5.433-10.182,12.156-12.131,20.175c-1.231,5.231-1.834,14.808-1.834,28.705v38.697
	h-12.824V84.903z"></path>
<g>
	<path d="M561.712,155.411l10.812,6.013c-3.548,7.372-7.639,13.317-12.284,17.844c-4.648,4.529-9.867,7.97-15.676,10.329
		c-5.808,2.357-12.378,3.54-19.706,3.54c-16.258,0-28.967-5.636-38.131-16.922c-9.172-11.279-13.756-24.037-13.756-38.263
		c0-13.381,3.878-25.308,11.64-35.784c9.84-13.317,23.009-19.977,39.511-19.977c16.99,0,30.552,6.825,40.697,20.462
		c7.212,9.634,10.876,21.661,11.001,36.078h-89.659c0.244,12.255,3.946,22.301,11.093,30.139c7.152,7.833,15.988,11.758,26.5,11.758
		c5.075,0,10.013-0.937,14.808-2.802c4.799-1.871,8.879-4.347,12.24-7.438C554.169,167.293,557.805,162.298,561.712,155.411z
		 M561.712,127c-1.711-7.244-4.198-13.032-7.473-17.363c-3.268-4.329-7.596-7.824-12.973-10.476
		c-5.381-2.649-11.038-3.976-16.961-3.976c-9.787,0-18.187,3.329-25.219,9.992c-5.135,4.845-9.017,12.121-11.643,21.823H561.712z"></path>
</g>
<path d="M649.821,96.445l-8.245,9.021c-6.859-7.048-13.558-10.573-20.105-10.573c-4.171,0-7.732,1.455-10.703,4.366
	c-2.969,2.908-4.45,6.301-4.45,10.183c0,3.428,1.223,6.691,3.67,9.796c2.448,3.17,7.585,6.884,15.417,11.146
	c9.547,5.246,16.032,10.285,19.456,15.135c3.368,4.919,5.046,10.441,5.046,16.583c0,8.665-2.88,16.001-8.623,22.012
	c-5.748,6.017-12.931,9.023-21.547,9.023c-5.752,0-11.241-1.325-16.473-3.972c-5.226-2.653-9.549-6.307-12.973-10.968l8.057-9.694
	c6.55,7.824,13.497,11.736,20.838,11.736c5.141,0,9.513-1.743,13.13-5.238c3.609-3.491,5.409-7.595,5.409-12.317
	c0-3.878-1.186-7.336-3.573-10.377c-2.384-2.973-7.774-6.725-16.157-11.25c-8.993-4.915-15.116-9.765-18.353-14.549
	c-3.244-4.779-4.865-10.246-4.865-16.39c0-8.013,2.579-14.678,7.753-19.976c5.166-5.304,11.695-7.953,19.586-7.953
	C631.289,82.19,640.518,86.942,649.821,96.445z"></path>
<path d="M722.63,96.445l-8.245,9.021c-6.859-7.048-13.567-10.573-20.109-10.573c-4.17,0-7.729,1.455-10.703,4.366
	c-2.965,2.908-4.443,6.301-4.443,10.183c0,3.428,1.219,6.691,3.665,9.796c2.446,3.17,7.593,6.884,15.423,11.146
	c9.546,5.246,16.031,10.285,19.459,15.135c3.355,4.919,5.044,10.441,5.044,16.583c0,8.665-2.873,16.001-8.628,22.012
	c-5.744,6.017-12.931,9.023-21.547,9.023c-5.75,0-11.24-1.325-16.471-3.972c-5.223-2.653-9.546-6.307-12.981-10.968l8.061-9.694
	c6.549,7.824,13.497,11.736,20.838,11.736c5.147,0,9.519-1.743,13.13-5.238c3.612-3.491,5.415-7.595,5.415-12.317
	c0-3.878-1.189-7.336-3.577-10.377c-2.389-2.973-7.772-6.725-16.157-11.25c-8.995-4.915-15.113-9.765-18.358-14.549
	c-3.24-4.779-4.86-10.246-4.86-16.39c0-8.013,2.582-14.678,7.747-19.976c5.175-5.304,11.698-7.953,19.59-7.953
	C704.098,82.19,713.325,86.942,722.63,96.445z"></path>
<g>
	<g>
		<path d="M151.04,343.199l19.21-142.037h2.173l54.534,116.547l54.009-116.547h2.143l19.305,142.037h-13.145l-13.252-101.584
			l-47.43,101.584h-3.425l-47.995-102.355l-13.176,102.355H151.04z"></path>
	</g>
	<g>
		<path d="M364.061,238.138h12.761v18.831c5.109-7.209,10.76-12.601,16.959-16.172c6.203-3.576,12.956-5.359,20.25-5.359
			c7.414,0,13.992,1.996,19.737,5.989c5.749,3.988,9.983,9.367,12.723,16.125c2.734,6.758,4.103,17.283,4.103,31.575v54.073H437.83
			v-50.114c0-12.102-0.482-20.18-1.423-24.237c-1.482-6.955-4.321-12.182-8.509-15.691c-4.199-3.508-9.67-5.263-16.419-5.263
			c-7.72,0-14.641,2.702-20.752,8.112c-6.109,5.408-10.137,12.1-12.079,20.085c-1.217,5.212-1.827,14.741-1.827,28.579v38.53
			h-12.761V238.138z"></path>
	</g>
	<g>
		<path d="M576.976,197.582v145.617h-12.581v-18.056c-5.35,6.884-11.354,12.069-18.014,15.546
			c-6.65,3.473-13.934,5.215-21.837,5.215c-14.045,0-26.036-5.391-35.972-16.174c-9.942-10.781-14.91-23.896-14.91-39.349
			c0-15.124,5.014-28.066,15.046-38.816c10.025-10.752,22.097-16.127,36.198-16.127c8.145,0,15.516,1.837,22.117,5.504
			c6.594,3.668,12.384,9.174,17.371,16.516v-59.875H576.976z M525.96,248.473c-7.102,0-13.665,1.85-19.675,5.544
			c-6.015,3.699-10.793,8.891-14.349,15.579c-3.55,6.687-5.323,13.764-5.323,21.217c0,7.402,1.792,14.469,5.373,21.223
			c3.578,6.753,8.393,12.006,14.435,15.772c6.039,3.758,12.522,5.64,19.445,5.64c6.985,0,13.601-1.865,19.856-5.596
			c6.252-3.727,11.064-8.774,14.433-15.139c3.371-6.368,5.061-13.538,5.061-21.508c0-12.155-3.778-22.314-11.341-30.481
			C546.317,252.555,537.01,248.473,525.96,248.473z"></path>
	</g>
</g>
<g>
	<g>
		<path d="M762.033,103.994l-3.984,0.095c-0.06-3.427-0.191-4.741-0.47-5.639c-0.525-0.733-1.372-1.103-2.542-1.103
			c-0.493,0-0.324-0.006-0.773,0.006c0,2.271-0.012,4.538,0.071,6.856l-3.848,0.038c0.106-2.67,0-5.651,0-9.001
			c0-3.219,0.028-5.538,0-7.823c0,0,4.961-0.295,5.643-0.268c4.28,0.176,5.567,2.092,5.576,4.509
			c0.009,1.865-0.402,3.005-2.956,4.001v0.197c0.851,0.248,1.602,0.946,2.244,2.092C761.636,99.097,762.033,100.122,762.033,103.994
			z M758.552,92.187c-0.064-2.571-3.07-2.554-4.532-2.403c0.057,1.357,0.057,2.937,0.057,4.919c0.466,0.017,0.392,0.008,0.711,0.008
			C757.487,94.711,758.604,94.391,758.552,92.187z"></path>
	</g>
</g>
<g>
	<path d="M756.259,110.31c-7.944,0-14.408-6.553-14.408-14.608s6.464-14.608,14.408-14.608c7.947,0,14.413,6.553,14.413,14.608
		S764.207,110.31,756.259,110.31z M756.259,82.094c-7.394,0-13.408,6.104-13.408,13.608s6.015,13.608,13.408,13.608
		c7.396,0,13.413-6.104,13.413-13.608S763.656,82.094,756.259,82.094z"></path>
</g>
</svg>
