<?xml version="1.0"?>

<svg xmlns:dc="http://purl.org/dc/elements/1.1/" xmlns:cc="http://creativecommons.org/ns#" xmlns:rdf="http://www.w3.org/1999/02/22-rdf-syntax-ns#" xmlns:svg="http://www.w3.org/2000/svg" xmlns="http://www.w3.org/2000/svg" style="overflow:visible" xml:space="preserve" enable-background="new 0 0 302.136 133.06" overflow="visible" viewBox="0 0 346.14 177.06" height="177.06" width="346.14" id="Layer_1" version="1.1"><defs id="defs4188"></defs><path d="m 323.29,131.12 -4.6,8.24 5.45,15.37 -2.77,0 -4.36,-12.75 -0.1,0 -3.08,5.51 0,7.24 -2.54,0 0,-23.61 2.54,0 0,12.02 0.1,0 6.6,-12.02 z m -28.01,0 5.72,0 c 3.77,0 6.46,2.21 6.46,6.1 0,2.66 -1.17,4.89 -3.78,5.8 l 3.98,11.71 -2.7,0 -3.78,-11.2 -3.35,0.14 0,11.06 -2.55,0 0,-23.61 z m 2.55,10.33 2.24,0 c 3.65,0 4.83,-1.44 4.83,-4.09 0,-2.64 -1.18,-4.1 -4.83,-4.1 l -2.24,0 0,8.19 z m -12.23,13.61 c -3.97,0 -6.67,-3.33 -6.67,-12.13 0,-8.81 2.7,-12.14 6.67,-12.14 4.01,0 6.66,3.33 6.66,12.14 0,8.8 -2.65,12.13 -6.66,12.13 m 0,-22.13 c -2.28,0 -4.11,2 -4.11,10 0,8 1.83,9.99 4.11,9.99 2.3,0 4.11,-1.99 4.11,-9.99 0,-8 -1.81,-10 -4.11,-10 m -17.09,-1.81 3.65,18.43 0.1,0 2.62,-18.43 2.37,0 -3.8,23.61 -2.18,0 -3.72,-18.55 -0.1,0 -3.71,18.55 -2.16,0 -3.92,-23.61 2.34,0 2.84,18.43 0,0 3.52,-18.43 z m -18.73,23.61 0,-21.47 -4.83,0 0,-2.14 12.24,0 0,2.14 -4.86,0 0,21.47 z m -8.79,-13.41 0,2.17 -6.09,0 0,9.09 8.64,0 0,2.15 -11.16,0 0,-23.61 10.78,0 0,2.14 -8.26,0 0,8.06 z m -11.96,-10.2 0,23.61 -2.74,0 -7.35,-20.53 -0.1,0 0,20.53 -2.53,0 0,-23.61 3.96,0 6.1,17.39 0.1,0 0,-17.39 z m -24.39,6.07 c -0.21,-2.41 -1.17,-4.26 -3.63,-4.26 -1.98,0 -3.25,1.32 -3.25,3.12 0,5.35 9.46,5.41 9.46,13 0,3.75 -2.14,6 -6.02,6 -3.69,0 -5.92,-2.71 -5.99,-6.66 l 2.36,0 c 0.1,2.79 1.38,4.52 3.91,4.52 2.11,0 3.48,-1.4 3.48,-3.89 0,-5.36 -9.5,-6.01 -9.5,-12.73 0,-3.36 2.3,-5.51 5.68,-5.51 3.42,0 5.65,2.28 5.84,6.41 l -2.34,0 z m -19.53,-6.07 3.67,18.43 0.1,0 2.62,-18.43 2.34,0 -3.8,23.61 -2.17,0 -3.71,-18.55 -0.1,0 -3.72,18.55 -2.16,0 -3.95,-23.61 2.38,0 2.81,18.43 0.1,0 3.56,-18.43 z m -14.8,10.2 0,2.17 -6.07,0 0,9.09 8.63,0 0,2.15 -11.18,0 0,-23.61 10.79,0 0,2.14 -8.24,0 0,8.06 z m -11.96,-10.2 0,23.61 -2.75,0 -7.32,-20.53 -0.1,0 0,20.53 -2.56,0 0,-23.61 3.99,0 6.08,17.39 0.1,0 0,-17.39 z m -35.29,5.25 c 0,3.83 2.54,5.97 4.79,7.84 1.86,1.55 3.46,2.88 3.46,4.86 0,1.18 -0.75,1.85 -2.08,1.85 -1.19,0 -1.96,-1.19 -2.1,-3.27 l 0,-0.32 -4.46,0.61 0,0.31 c 0.15,3.39 2.18,6.8 6.36,6.8 4.14,0 6.71,-2.42 6.71,-6.33 0,-3.72 -2.61,-5.96 -4.93,-7.94 -1.78,-1.48 -3.31,-2.81 -3.31,-4.43 0,-0.93 0.3,-2.02 1.72,-2.02 0.52,0 1.71,0.23 1.87,2.31 l 0,0.34 4.47,-0.5 0,-0.31 c -0.4,-3.69 -2.67,-5.97 -5.93,-5.97 -4.17,0 -6.57,2.26 -6.57,6.17 m -14.52,0 c 0,3.83 2.55,5.97 4.78,7.84 1.87,1.55 3.47,2.88 3.47,4.86 0,1.18 -0.76,1.85 -2.07,1.85 -1.21,0 -1.98,-1.19 -2.13,-3.27 l 0,-0.32 -4.45,0.61 0,0.31 c 0.18,3.39 2.2,6.8 6.39,6.8 4.14,0 6.71,-2.42 6.71,-6.33 0,-3.72 -2.62,-5.96 -4.94,-7.94 -1.77,-1.48 -3.32,-2.81 -3.32,-4.43 0,-0.93 0.3,-2.02 1.74,-2.02 0.5,0 1.69,0.23 1.88,2.31 l 0,0.34 4.46,-0.5 0,-0.31 c -0.39,-3.69 -2.65,-5.97 -5.92,-5.97 -4.18,0 -6.57,2.26 -6.57,6.17 m -9.24,14.23 0,-6.34 5.21,0 0,-4.11 -5.21,0 0,-5.49 6.8,0 0,-4.15 -11.467,0 0,24.21 11.927,0 0,-4.12 z m -12.25,-20.09 0,12.31 c -0.813,-2.24 -4.504,-12.31 -4.504,-12.31 l -4.266,0 0,24.21 4.266,0 0,-13.48 c 0.833,2.36 4.73,13.48 4.73,13.48 l 4.05,0 0,-24.21 -4.276,0 z m -17.282,0 4.641,0 0,24.21 -4.641,0 z m -15.741,5.86 c 0,3.83 2.537,5.97 4.783,7.84 1.846,1.55 3.459,2.88 3.459,4.86 0,1.18 -0.759,1.85 -2.078,1.85 -1.187,0 -1.961,-1.19 -2.115,-3.27 l -0.01,-0.32 -4.44,0.61 0.01,0.31 c 0.164,3.39 2.194,6.8 6.386,6.8 4.124,0 6.702,-2.42 6.702,-6.33 0,-3.72 -2.631,-5.96 -4.946,-7.94 -1.756,-1.48 -3.312,-2.81 -3.312,-4.43 0,-0.93 0.311,-2.02 1.724,-2.02 0.522,0 1.708,0.23 1.872,2.31 l 0.03,0.34 4.461,-0.5 -0.04,-0.31 c -0.396,-3.69 -2.673,-5.97 -5.927,-5.97 -4.165,0 -6.565,2.26 -6.565,6.17 m -7.324,-5.86 0,18.14 c 0,1.58 -0.575,2.27 -1.867,2.27 -1.276,0 -1.862,-0.69 -1.862,-2.27 l 0,-18.14 -4.63,0 0,17.97 c 0,4.11 2.42,6.57 6.492,6.57 4.092,0 6.523,-2.46 6.523,-6.57 l 0,-17.97 -4.656,0 z m -24.727,0 0,24.21 6.718,0 c 4.287,0 6.629,-2.51 6.629,-7.13 0,-2.77 -0.992,-4.52 -3.011,-5.59 1.846,-1.03 2.558,-3.15 2.558,-4.94 0,-4.33 -2.205,-6.55 -6.576,-6.55 l -6.318,0 z m 5.896,3.94 c 1.598,0 2.341,0.96 2.341,3.06 0,1.65 -0.928,2.7 -2.404,2.7 l -1.177,0 0,-5.76 1.24,0 z m -0.227,9.68 c 2.151,0 3.021,0.97 3.021,3.35 0,2.35 -0.765,3.32 -2.631,3.32 l -1.403,0 0,-6.67 1.013,0 z m 272.941,-64.575 0,-55.609 20.53,0 0,96.264 -71.63,-57.578 0,55.618 -20.51,0 0,-96.25 z m -104.59,0 0,-55.609 20.52,0 0,96.264 -71.63,-57.578 0,55.618 -20.52,0 0,-96.25 z M 22.253,23.946 l 56.689,0 c 16.965,0 31.998,8.406 31.998,25.228 0,8.707 -5.31,15.599 -13.609,18.752 11.499,3.164 19.799,10.984 19.799,22.992 0,16.832 -14.69,27.332 -34.117,27.332 l -60.76,0 0,-94.304 z m 20.508,37.695 33.866,0 c 9.023,0 13.806,-4.968 13.806,-10.673 0,-5.548 -4.783,-10.494 -13.806,-10.494 l -33.866,0 0,21.167 z m 0,40.069 37.942,0 c 9.176,0 15.905,-5.091 15.905,-11.709 0,-6.76 -6.729,-11.87 -15.905,-11.87 l -37.942,0 0,23.579 z" id="polygon4184"></path><metadata id="metadata4224"><rdf:rdf><cc:work rdf:about=""><dc:title></dc:title></cc:work></rdf:rdf></metadata></svg>