<?xml version="1.0"?>
<svg xmlns="http://www.w3.org/2000/svg" viewBox="0 0 423.3 96.66" height="96.66" width="423.3">
<path d="m 308.5,48.94 c 0,3.54 -2.9,6.41 -6.4,6.41 -3.6,0 -6.4,-2.87 -6.4,-6.41 0,-3.53 2.8,-6.4 6.4,-6.4 3.5,0 6.4,2.87 6.4,6.4 M 111,47.36 C 215,-8.638 359,-7.898 307,42.37 328.6,-12.96 161.8,22.96 111,47.36 m 307.3,14.03 -1.1,0 0,-2.34 0.1,-0.89 -0.2,0.7 -0.7,2.53 -1,0 -0.8,-2.54 -0.2,-0.68 0.1,0.88 0.1,2.34 -1.1,0 0,-4.4 1.4,0 1,3.18 1,-3.18 1.4,0 0,4.4 z m -6.5,0 -1.1,0 0,-3.51 -1.3,0 0,-0.89 3.8,0 0,0.89 -1.4,0 0,3.51 m -22.9,11.87 c 0.9,0.91 1.8,1.73 3.7,2.54 1.8,0.72 3.1,0.82 3.9,0.82 1.2,0 2.6,-0.44 2.6,-1.54 0,-1.25 -1.4,-1.48 -2.5,-1.63 -0.8,-0.14 -2.9,-0.48 -5.1,-1.15 -2.3,-0.67 -6.9,-2.01 -6.9,-7.29 0,-2.21 1,-4.22 2.5,-5.66 2.9,-2.78 7.1,-2.88 8.8,-2.88 1.8,0 3.7,0.24 5.6,0.67 3.4,0.82 4.8,1.87 6.2,2.93 l -5.3,4.84 c -1.7,-1.05 -3.7,-2.35 -6.4,-2.35 -0.4,0 -2.1,0 -2.1,1.3 0,0.91 0.7,1.05 4,1.87 4.4,1.01 5.5,1.25 6.7,1.87 2.5,1.34 3.8,3.64 3.8,6.47 0,4.9 -4,9.21 -11.8,9.21 -7.1,0 -11.1,-3.26 -13.2,-4.98 l 5.5,-5.04 m -20.5,-23.03 10,0 -0.1,7.82 4.2,0 0,5.38 -4.3,0 -0.1,9.54 c 0,0.96 0.1,2.59 2.7,2.59 0.6,0 1.2,-0.1 1.8,-0.19 l 0,6.76 c -2.2,0.29 -4.2,0.53 -6.2,0.53 -1.1,0 -4.6,0 -6.6,-2.06 -1.7,-1.68 -1.7,-3.89 -1.7,-5.13 l 0.2,-12.04 -3.4,0 0,-5.38 3.4,0 0.1,-7.82 m -4.1,25.43 c -0.6,1.34 -1.1,2.4 -2.4,3.64 -1.4,1.44 -4.6,3.98 -10.3,3.98 -8.2,0 -13.3,-5.56 -13.3,-13.57 0,-4.13 1.5,-7.48 3.6,-9.59 3.4,-3.6 8.4,-3.79 10.2,-3.79 1.7,0 6.5,0 10.2,3.88 1,0.96 1.4,1.63 2,2.59 l -7.5,4.27 c -0.6,-2.2 -1.8,-3.79 -4.2,-3.79 -3,0 -4.5,2.98 -4.5,6.72 0,1.97 0.4,5.71 4.3,5.71 3,0 4,-2.88 4.4,-4.18 l 7.5,4.13 m -37.6,-9.21 c -0.1,-0.39 -0.1,-0.77 -0.2,-1.15 -0.4,-1.78 -2,-2.55 -3.3,-2.55 -3,0 -3.5,2.6 -3.7,3.7 l 7.2,0 z m 9.5,10.07 c -2.9,4.46 -7.2,6.81 -13.2,6.81 -9.2,0 -13.7,-6.62 -13.7,-13.52 0,-8.11 5.6,-13.34 13.7,-13.34 3,0 6.9,0.77 9.9,3.69 3.7,3.6 3.7,7.73 3.8,11.52 l -17.3,0 c 0,1.1 0.1,2.39 1.2,3.5 0.2,0.24 1.1,1.15 2.9,1.15 2.3,0 3.5,-1.2 4.6,-3.21 l 8.1,3.4 M 297,57.43 l 9.9,0 0,24.51 c 0,3.7 0,5.66 -1.7,7.34 -2.5,2.54 -7.9,2.44 -11.9,2.34 l 0,-7.23 c 2.8,0.1 3.7,-0.58 3.7,-2.64 l 0,-24.32 m -12.3,12.42 c 0,-1.15 -0.1,-2.06 -0.3,-2.92 -0.8,-3.12 -3.2,-3.12 -3.5,-3.12 -0.9,0 -1.8,0.43 -2.5,1.1 -1.3,1.39 -1.3,3.6 -1.3,4.9 0,1.1 0,2.11 0.3,3.07 0.8,2.63 2.8,2.92 3.5,2.92 0.9,0 1.8,-0.38 2.4,-1.05 0.7,-0.72 1.4,-2.07 1.4,-4.9 z m -7.4,-21.39 0,10.75 c 1,-0.92 2.6,-2.45 6.3,-2.45 5.5,0 10.9,3.88 10.9,12.57 0,7.82 -4.1,13.62 -11.2,13.62 -1,0 -2.4,-0.1 -3.7,-0.62 -1.4,-0.53 -1.9,-1.06 -2.6,-1.83 l 0,1.83 -9.6,0 0,-33.87 9.9,0 M 239,65.39 c 0,5.9 2.4,9.45 7.5,9.45 4.3,0 7.3,-3.4 7.3,-9.78 0,-1.63 -0.1,-3.12 -0.6,-4.46 -1.7,-4.71 -5.8,-4.85 -6.7,-4.85 -3.9,0 -7.5,2.64 -7.5,9.64 z m 25.6,-0.33 c 0,8.58 -5,18.37 -18.3,18.37 -13.9,0 -18.1,-10.27 -18.1,-17.99 0,-9.69 6,-18.23 18.3,-18.23 13.3,0 18.1,9.79 18.1,17.85 m -64.5,8.2 c 0.9,0.91 1.8,1.73 3.7,2.54 1.8,0.72 3.2,0.82 4,0.82 1.2,0 2.6,-0.44 2.6,-1.54 0,-1.25 -1.5,-1.48 -2.5,-1.63 -0.9,-0.14 -3,-0.48 -5.2,-1.15 -2.3,-0.67 -6.9,-2.01 -6.9,-7.29 0,-2.21 1,-4.22 2.5,-5.66 3,-2.78 7.2,-2.88 8.8,-2.88 1.9,0 3.7,0.24 5.6,0.67 3.4,0.82 4.9,1.87 6.3,2.93 l -5.4,4.84 c -1.6,-1.05 -3.7,-2.35 -6.3,-2.35 -0.4,0 -2.2,0 -2.2,1.3 0,0.91 0.7,1.05 4,1.87 4.4,1.01 5.5,1.25 6.7,1.87 2.5,1.34 3.9,3.64 3.9,6.47 0,4.9 -4.1,9.21 -11.8,9.21 -7.1,0 -11.2,-3.26 -13.3,-4.98 l 5.5,-5.04 m -26,0 c 0.9,0.91 1.8,1.73 3.7,2.54 1.8,0.72 3.2,0.82 4,0.82 1.2,0 2.6,-0.44 2.6,-1.54 0,-1.25 -1.5,-1.48 -2.5,-1.63 -0.9,-0.14 -3,-0.48 -5.2,-1.15 -2.3,-0.67 -6.9,-2.01 -6.9,-7.29 0,-2.21 1,-4.22 2.5,-5.66 3,-2.78 7.2,-2.88 8.8,-2.88 1.9,0 3.7,0.24 5.6,0.67 3.4,0.82 4.9,1.87 6.3,2.93 l -5.4,4.84 c -1.6,-1.05 -3.7,-2.35 -6.3,-2.35 -0.4,0 -2.2,0 -2.2,1.3 0,0.91 0.7,1.05 4,1.87 4.4,1.01 5.5,1.25 6.7,1.87 2.5,1.34 3.9,3.64 3.9,6.47 0,4.9 -4.1,9.21 -11.8,9.21 -7.1,0 -11.2,-3.26 -13.3,-4.98 l 5.5,-5.04 m -16.3,-6.81 c -0.1,-0.39 -0.1,-0.77 -0.1,-1.15 -0.5,-1.78 -2,-2.55 -3.4,-2.55 -2.9,0 -3.5,2.6 -3.7,3.7 l 7.2,0 z m 9.5,10.07 c -2.9,4.46 -7.2,6.81 -13.1,6.81 -9.3,0 -13.8,-6.62 -13.8,-13.52 0,-8.11 5.6,-13.34 13.7,-13.34 3,0 7,0.77 10,3.69 3.6,3.6 3.7,7.73 3.8,11.52 l -17.4,0 c 0.1,1.1 0.1,2.39 1.2,3.5 0.2,0.24 1.2,1.15 3,1.15 2.2,0 3.5,-1.2 4.5,-3.21 l 8.1,3.4 M 120.2,60.79 c 0.8,-1.15 2.7,-3.94 8.1,-3.94 4,0 5.9,1.54 6.8,2.31 2.3,2.3 2.5,5.61 2.5,7.48 l 0,15.69 -9.9,0 0,-13.58 c 0,-1.25 -0.1,-3.74 -3.4,-3.74 -3.5,0 -3.6,2.73 -3.6,4.08 l 0,13.24 -9.9,0 0,-24.85 9.4,0 0,3.31 m -23.27,-3.31 9.87,0 0,24.85 -9.87,0 0,-24.85 z m 0,-9.02 9.87,0 0,6.57 -9.87,0 0,-6.57 M 74.4,73.26 c 0.9,0.91 1.8,1.73 3.7,2.54 1.8,0.72 3.2,0.82 4,0.82 1.2,0 2.6,-0.44 2.6,-1.54 0,-1.25 -1.5,-1.48 -2.5,-1.63 -0.9,-0.14 -2.9,-0.48 -5.2,-1.15 -2.3,-0.67 -6.9,-2.01 -6.9,-7.29 0,-2.21 1,-4.22 2.5,-5.66 3,-2.78 7.2,-2.88 8.8,-2.88 1.9,0 3.73,0.24 5.63,0.67 3.4,0.82 4.8,1.87 6.2,2.93 l -5.3,4.84 c -1.7,-1.05 -3.73,-2.35 -6.33,-2.35 -0.4,0 -2.2,0 -2.2,1.3 0,0.91 0.7,1.05 4,1.87 4.43,1.01 5.53,1.25 6.73,1.87 2.5,1.34 3.9,3.64 3.9,6.47 0,4.9 -4.1,9.21 -11.83,9.21 -7.1,0 -11.2,-3.26 -13.3,-4.98 l 5.5,-5.04 m -34.6,-15.78 9.9,0 0,13.53 c 0,1.48 0,4.02 3.6,4.02 3.5,0 3.5,-2.73 3.6,-4.41 l 0,-13.14 9.9,0 0,24.85 -9.4,0 0,-3.65 c -0.4,0.72 -0.5,1.15 -1.3,1.82 -1.8,1.78 -4.4,2.45 -6.9,2.45 -4,0 -6,-1.53 -6.9,-2.45 -2.4,-2.35 -2.4,-5.56 -2.5,-7.91 l 0,-15.11 m -24.1,-1.87 0,5.75 5.9,0 c 1,0 3.5,0 3.5,-2.83 0,-2.78 -2.3,-2.88 -3.2,-2.92 l -6.2,0 z m -0.1,12.85 0,6.57 6.8,0 c 0.9,0 1.9,-0.1 2.7,-1 0.6,-0.53 0.9,-1.35 0.9,-2.21 0,-3.17 -2.9,-3.31 -3.9,-3.36 l -6.5,0 z m -10.6,-20 20,0 c 2.2,0.1 6.1,0.24 8.6,2.73 1.6,1.44 2.3,3.7 2.3,5.86 0,2.49 -1,4.6 -2.4,5.94 -0.9,0.92 -1.7,1.3 -2.8,1.83 1.3,0.38 2.6,0.72 3.9,2.06 2,1.87 2.3,4.08 2.3,5.75 0,2.55 -0.8,5.19 -2.5,6.91 -2.5,2.59 -6,2.69 -8.7,2.79 L 5,82.33 5,48.46"></path></svg>