<svg
   xmlns="http://www.w3.org/2000/svg"
   viewBox="0 0 2184 256.6"
   height="256.6"
   width="2184"
   >

   <path
     d="M 34.7,39.65 C 31,37.02 26,37.9 23.4,41.55 22.5,43.01 22,44.61 22,46.07 L 22,174.4 116.5,96.89 34.7,39.65 m 198.6,2.04 c -2.6,-3.79 -7.5,-4.67 -11.2,-2.04 L 23.4,178.7 c 1.5,2.1 3.9,3.5 6.6,3.5 l 0,0 0,0 196.8,0 c 4.4,0 8,-3.6 8,-8.1 l 0,-128.03 c 0,-1.46 -0.4,-3.06 -1.5,-4.38 m 1708.7,23.1 -25,0 0,-32.29 c 0,-1.02 0,-1.9 -2,-2.77 -1,-2.34 -4,-2.92 -5,-1.31 l 0,0 -13,8.75 c -5,2.48 -6,6.56 -6,11.24 l 0,16.38 -9,0 c -4,0 -8,3.2 -8,7.2 l 0,7.5 c 0,3.9 4,7.1 8,7.1 l 9,0 0,63.61 c 0,25.4 13,33.9 34,33.9 9,0 20,-4 20,-4 0,0 2,-1 2,-5.3 0,-1.4 -2,-11.3 -2,-11.3 0,-2.4 -2,-4.3 -5,-3.8 -1,0.3 -4,0.8 -9,0.8 -8,0 -14,-4.2 -14,-14.4 l 0,-59.51 25,0 c 4,0 7,-3.2 7,-7.1 l 0,-7.5 c 0,-4 -3,-7.2 -7,-7.2 m -930,59.31 c 0,22 -15.8,36.9 -32.8,36.9 -18,0 -31,-14.2 -31,-36.9 l 0,-0.4 c 0,-22.4 13,-37.11 31,-37.11 17,0 32.8,15.01 32.8,37.11 l 0,0.4 z m 34,39.8 0,0 c -4,0 -6,-2.3 -6,-5.1 l 0,-86.81 c 0,-4 -3,-7.2 -7,-7.2 l -12,0 c -4,0 -7,3.2 -7,7.2 l 0,11.4 c -9,-11.9 -19.8,-19.7 -39.8,-19.7 -27,0 -53,21.5 -53,60.01 l 0,0.4 c 0,38.2 26,59.9 53,59.9 20,0 33.8,-8.9 39.8,-19.8 3,10.6 13,18.4 25,18.4 l 0,0 7,0 c 2,0 5,-2.3 5,-5.1 l 0,-8.5 c 0,-2.8 -3,-5.1 -5,-5.1 M 545.2,124.1 c 0,22 -16,36.9 -33,36.9 -18,0 -31,-14.2 -31,-36.9 l 0,-0.4 c 0,-22.4 14,-37.11 31,-37.11 17,0 33,15.01 33,37.11 l 0,0.4 z m 33,39.8 0,0 0,0 c -2,0 -5,-2.3 -5,-5.1 l 0,-86.81 c 0,-4 -3,-7.2 -7,-7.2 l -12,0 c -4,0 -7,3.2 -7,7.2 l 0,11.4 c -9,-11.9 -21,-19.7 -40,-19.7 -27,0 -53,21.5 -53,60.01 l 0,0.4 c 0,38.2 26,59.9 53,59.9 20,0 34,-8.9 40,-19.8 3,10.6 13,18.4 25,18.4 l 0,0 6,0 c 3,0 5,-2.3 5,-5.1 l 0,-8.5 c 0,-2.8 -2,-5.1 -5,-5.1 m 305,-39.8 c 0,22 -16,36.9 -33,36.9 -17,0 -31,-14.2 -31,-36.9 l 0,-0.4 c 0,-22.4 14,-37.11 31,-37.11 17,0 33,15.01 33,37.11 l 0,0.4 z m -27,-60.41 c -19,0 -31,7.8 -39,19.7 l 0,-11.4 c 0,-4 -4,-7.2 -8,-7.2 l -12,0 c -4,0 -7,3.2 -7,7.2 l 0,151.71 c 0,4 3,7.2 7,7.2 l 12,0 c 4,0 8,-3.2 8,-7.2 l 0,-59.5 c 8,10.7 20,19.8 39,19.8 27,0 53,-21.7 53,-59.9 l 0,-0.4 c 0,-38.51 -26,-60.01 -53,-60.01 M 1488,136.5 c 0,0 0,0 0,0 l 0,0 0,0 m 67,-108.96 -12,0 c -2,0 -4,1.17 -5,2.92 l -50,67.83 -50,-67.83 c -1,-1.75 -4,-2.92 -6,-2.92 l -12,0 c -4,0 -7,3.21 -7,7.15 l 0,140.61 c 0,4.1 3,7.3 7,7.3 l 12,0 c 4,0 7,-3.2 7,-7.3 l 0,-97.61 45,56.51 c 0,0 0,0 0,0.1 l 0,0.4 0,0 c 1,1.1 2,1.8 4,1.8 1,0 3,-0.7 3,-1.8 l 0,0 1,-0.4 c 0,-0.1 0,-0.1 0,-0.1 l 44,-56.51 0,97.61 c 0,4.1 3,7.3 7,7.3 l 12,0 c 4,0 7,-3.2 7,-7.3 l 0,-140.61 c 0,-3.94 -3,-7.15 -7,-7.15 m 496,96.36 0,0.4 c 0,20.2 -14,36.5 -35,36.7 -20,-0.2 -33,-16.5 -33,-36.7 l 0,-0.8 c 0,-20.1 13,-36.61 33,-36.71 21,0.1 35,16.61 35,36.71 l 0,0.4 z m -35,-60.21 c -35,0 -61,26.9 -61,60.01 l 0,0.5 c 0,33 26,59.9 61,59.9 37,0 61,-26.9 61,-59.9 l 0,-0.5 c 0,-33.11 -24,-60.01 -61,-60.01 m -344,60.21 0,0.4 c 0,20.2 -13,36.5 -33,36.7 -23,-0.2 -36,-16.5 -36,-36.7 l 0,-0.8 c 0,-20.1 13,-36.61 36,-36.71 20,0.1 33,16.61 33,36.71 l 0,0.4 z m -33,-60.21 c -37,0 -64,26.9 -64,60.01 l 0,0.5 c 0,33 27,59.9 64,59.9 34,0 61,-26.9 61,-59.9 l 0,-0.5 c 0,-33.11 -27,-60.01 -61,-60.01 m 520,1.3 c 0,-0.1 -1,-0.2 -1,-0.2 0,-0.2 0,-0.2 0,-0.3 -3,-0.5 -6,-0.8 -9,-0.8 -13,0 -25,8.1 -31,19.7 l 0,-11.4 c 0,-4 -3,-7.2 -7,-7.2 l -12,0 c -4,0 -7,3.2 -7,7.2 l 0,103.41 c 0,4 3,7.2 7,7.2 l 12,0 c 4,0 7,-3.2 7,-7.2 l 0,-43.8 c 0,-35.31 19,-41.71 29,-40.81 2,0.2 5,0.4 7,0.7 0,0 0,0 0,0 0,0.1 1,0.1 1,0.1 1,0 4,-1.8 4,-4.1 l 3,-17.1 c 0,-0.2 0,-0.4 0,-0.7 0,-2 -2,-3.8 -3,-4.7 m -856,-1.3 c -18,0 -28,9.1 -36,19.7 l 0,-11.4 c 0,-4 -3,-7.2 -7,-7.2 l -12,0 c -4,0 -7,3.2 -7,7.2 l 0,103.31 c 0,4.1 3,7.3 7,7.3 l 12,0 c 4,0 7,-3.2 7,-8.3 l 0,-62.3 c 0,-14.01 11,-25.41 26,-25.41 13,0 25,11.4 25,25.41 l 0,63.3 c 0,4.1 3,7.3 7,7.3 l 12,0 c 4,0 7,-3.2 7,-7.3 l 0,-67.4 c 0,-26.71 -15,-44.21 -41,-44.21 m 472,0 c -19,0 -29,9.1 -36,19.7 l 0,-11.4 c 0,-4 -3,-7.2 -8,-7.2 l -11,0 c -5,0 -7,3.2 -7,7.2 l 0,103.31 c 0,4.1 2,7.3 7,7.3 l 11,0 c 5,0 8,-3.2 8,-8.3 l 0,-62.3 c 0,-14.01 12,-25.41 25,-25.41 14,0 26,11.4 26,25.41 l 0,63.3 c 0,4.1 3,7.3 7,7.3 l 12,0 c 4,0 7,-3.2 7,-7.3 l 0,-67.4 c 0,-26.71 -16,-44.21 -41,-44.21 m -582,60.41 c 0,22 -15,36.9 -32,36.9 -18,0 -32,-14.2 -32,-36.9 l 0,-0.4 c 0,-22.4 14,-37.11 32,-37.11 17,0 32,15.01 32,37.11 l 0,0.4 z m 22,-59.31 -12,0 c -5,0 -8,3.2 -8,7.2 l 0,11.6 c -8,-12 -20,-19.9 -39,-19.9 -27,0 -53,21.5 -53,60.01 l 0,0.4 c 0,38.2 26,59.9 53,59.9 20,0 31,-8.8 39,-19.6 l 0,-0.2 0,10.6 c 0,20 -14,38.2 -36,38.2 -13,0 -26,-6.1 -32,-16.4 -2,-3.4 -6,-4.4 -9,-2.4 l -6,3.4 c -3,2.1 -4,6.5 -2,9.9 10,16.2 28,27.1 50,27.1 38,0 62,-27.4 62,-60.2 l 0,-102.41 c 0,-4 -3,-7.2 -7,-7.2 M 396.2,52.78 c 12,0 22,3.65 32,10.51 1,1 2,1.5 4,1.5 2,0 3,-0.8 5,-2.1 l 9,-9.18 c 1,-1.46 2,-3.35 2,-5.39 0,-1.91 -1,-3.8 -3,-4.97 -14,-11.38 -31,-17.21 -49,-17.21 -43.5,0 -78.9,35.45 -78.9,79.06 0,43.5 35.4,79 78.9,79 18,0 35,-6 49,-17.3 2,-1.1 3,-3 3,-5 0,-2 -1,-3.9 -2,-5.3 l -9,-9.2 c -2,-1.3 -3,-2.1 -5,-2.1 -2,0 -3,0.5 -4,1.5 -10,6.9 -20,10.5 -32,10.5 -29,0 -52.1,-23.4 -52.1,-52.1 0,-28.91 23.1,-52.22 52.1,-52.22 m 1457.8,12.01 -13,0 c -3,0 -6,3.2 -6,7.2 l 0,103.31 c 0,4.1 3,7.3 6,7.3 l 13,0 c 3,0 7,-3.2 7,-7.3 l 0,-103.31 c 0,-4 -4,-7.2 -7,-7.2 M 1848,22 c -8,0 -16,1.89 -16,9.77 l 0,7.73 c 0,7.88 8,9.93 16,9.93 8,0 15,-2.05 15,-9.93 l 0,-7.73 C 1863,23.89 1856,22 1848,22 M 731.2,63.59 c -17,0 -30,7.6 -39,19.8 -6,-12.2 -18,-19.8 -35,-19.8 -17,0 -27,9.6 -35,19.8 l 0,-11.4 c 0,-4 -3,-7.2 -7,-7.2 l -12,0 c -4,0 -7,3.2 -7,7.2 l 0,103.31 c 0,4.1 3,7.3 7,7.3 l 12,0 c 4,0 7,-3.2 7,-7.3 l 0,-59 c 0,-17.71 10,-28.61 25,-28.61 15,0 23,10 23,28.01 l 0,59.6 c 0,4.1 4,7.3 8,7.3 l 12,0 c 4,0 7,-3.2 7,-7.3 l 0,-59 c 0,-18.61 10,-28.61 25,-28.61 15,0 23,9.8 23,28.21 l 0,59.4 c 0,4.1 3,7.3 7,7.3 l 12,0 c 4,0 7,-3.2 7,-7.3 l 0,-67.5 c 0,-28.31 -14,-44.21 -40,-44.21 m 350.8,1.2 -12,0 c -3,0 -7,3.2 -7,7.2 l 0,103.31 c 0,4.1 4,7.3 7,7.3 l 12,0 c 4,0 8,-3.2 8,-7.3 l 0,-103.31 c 0,-4 -4,-7.2 -8,-7.2 M 1076,22 c -8,0 -15,1.89 -15,9.77 l 0,7.73 c 0,7.88 7,9.93 15,9.93 9,0 15,-2.05 15,-9.93 l 0,-7.73 c 0,-7.88 -6,-9.77 -15,-9.77"
      /> </svg>