<?xml version="1.0"?>
<!--?xml version="1.0" encoding="UTF-8" standalone="no"?-->
<svg xmlns="http://www.w3.org/2000/svg" viewBox="0 0 525.37 212.93" height="212.93" width="525.37">
   <path d="m 73.06,22 c -3.99,0.35 -7.47,1.33 -9.92,5.26 0,0 4.07,18.02 9.64,32.54 6.35,-5.54 14.31,-9.47 23.78,-11.15 2.39,3.4 4.74,6.87 6.91,10.45 0.53,-3.75 1.3,-7.36 2.1,-10.76 -2.87,0 -5.78,0.35 -8.55,0.84 C 86.6,34.41 74.78,22.03 74.78,22.03 h -1.72 z m 43.39,2.1 v 0.35 c -1.16,0 -2.39,0.35 -3.65,0.56 0,0 -3.89,10.03 -6.94,22.94 h 1.47 V 47.6 c 7.01,0 13.22,1.02 18.69,2.73 0,5.05 -0.35,10.1 -0.81,14.31 -0.35,2.11 -0.66,4.49 -1.08,6.88 -3.9,-2.35 -8.38,-3.72 -14.1,-4.04 3.68,7.54 6.73,15.44 9.36,23.5 -0.35,0.77 -0.49,1.47 -0.56,1.83 -0.63,3.01 4.53,7.25 7.3,7.5 a 25.41,25.41 0 0 1 0,-0.88 h -0.6 c -1.26,-0.35 -2.49,-0.7 -3.58,-1.68 -1.15,-0.91 -1.89,-2.1 -2.24,-3.26 -0.35,-1.23 -0.35,-2.42 0.66,-3.26 0.57,-0.67 1.34,-1.06 2.18,-1.13 h 0.88 c 1.08,0.36 2.35,0.64 3.33,1.48 A 25.41,25.41 0 0 1 133,80.04 c -1.96,-2.63 -4.07,-4.91 -6.42,-6.7 2.07,-4.8 4.04,-8.94 5.05,-10.59 0.91,-1.33 2.98,-4.07 5.65,-7.3 7.4,4.53 12.59,10.53 15.82,16.7 a 25.41,25.41 0 0 1 1.12,0 c 5.29,-9.05 9.89,-28.9 9.89,-28.9 -1.83,-3.82 -4.32,-5.65 -8.28,-6.42 -4.24,1.79 -13.22,11.86 -19.08,19.08 -3.33,-2 -6.87,-3.58 -10.59,-4.77 0.35,-11.36 -0.63,-22.48 -0.63,-22.48 -2.46,-3.05 -5.47,-4.49 -8.94,-4.45 z M 32.77,47.56 c 0,0 0,0 0,0 0,0 0,0 0,0 z m 0,0 c -7.02,1.51 -12.77,9.09 -10.1,19.89 0,0 15.85,16.73 29.49,28.27 C 54.97,83.83 60.19,72.36 68.36,63.66 48.48,52.58 33.19,47.67 32.77,47.56 Z m 19.39,48.16 c 0,0 0,0 0,0 0,0 0,0 0.35,0.35 0,0 0,0 0,0 0,0 0,0 -0.35,0 z m 0.35,0.35 c -1.89,7.82 -2.73,15.81 -2.73,23.32 0,34.23 14.59,71.54 57.48,71.54 24.51,0 39.49,-12.24 47.2,-30.19 l -19.15,-7.37 c -6.27,10.49 -14.41,17.78 -28.05,17.78 -25.25,0 -36.13,-27.25 -36.13,-51.76 0,-3.47 0.36,-7.02 0.6,-10.63 14.06,6.98 33.49,14.42 39.49,16.66 -1.89,-0.95 -3.26,-2.7 -3.72,-4.77 -1.22,-6.35 3.97,-12.55 10.17,-13.22 1.69,-0.35 3.72,0 5.16,1.16 -1.61,-1.72 -18.69,-19.54 -36.58,-33.25 -0.42,0.39 -0.84,0.74 -1.26,1.16 -0.49,0.49 -0.98,1.08 -1.51,1.65 C 76.61,86 73.06,97.43 71.73,108.73 h -0.35 c 0,0 -0.35,-0.35 -0.39,-0.35 -2.84,-1.44 -5.5,-2.91 -7.75,-4.21 -2.94,-1.79 -6.45,-4.53 -10.13,-7.61 -0.35,-0.35 -0.42,-0.35 -0.6,-0.49 z M 73.13,60.93 c -1.26,1.05 -2.42,2.17 -3.54,3.33 1.02,0.56 2.07,1.19 3.12,1.79 1.16,0.73 2.42,1.47 3.65,2.31 -1.09,-2.28 -2.21,-4.77 -3.23,-7.43 z m 34.06,6.59 c -0.84,0 -1.58,0.35 -2.32,0.35 h -0.59 c -0.49,0 -1.02,0 -1.51,0.35 -5.89,0.74 -10.8,2.91 -14.91,6.07 12.03,9.08 23.01,19.57 33.64,30.19 -1.93,-8.2 -7.93,-24.86 -13.54,-36.65 h -0.77 z m 16.9,3.68 c 0.88,0.49 1.72,1.02 2.56,1.54 -2.21,5.05 -4.59,10.81 -6.17,14.98 1.58,-5.72 2.74,-11.43 3.61,-16.52 z m 26.73,5.61 a 20.81,20.81 0 0 0 -11.68,3.86 20.81,20.81 0 0 0 -4.84,29 20.81,20.81 0 0 0 29.04,4.84 20.81,20.81 0 0 0 4.84,-29 20.81,20.81 0 0 0 -17.36,-8.7 z m -27.78,14.28 h -0.7 c -0.63,0 -1.19,0.35 -1.61,0.77 -0.53,0.63 -0.67,1.47 -0.43,2.45 0.36,1.02 0.92,2.11 1.83,2.95 1.09,0.84 2.24,1.26 3.26,1.4 h 0.49 a 25.41,25.41 0 0 1 0.49,-6.17 c -1.09,-0.88 -2.35,-1.3 -3.33,-1.44 z m 52.57,9.96 -20.27,87.85 h 11.57 l 5.62,-24.55 h 15.25 l 5.61,24.55 h 11.68 l -20.52,-87.85 z m 31.92,0 v 87.85 h 11.18 v -53.24 l 21.46,53.17 h 9.5 v -87.85 h -11.3 v 53.16 l -21.45,-53.16 z m 50.54,0 v 87.85 h 17.5 c 7.5,0 13.2,-2.35 17,-7.01 3.5,-4.32 5.3,-10.46 5.3,-18.49 v -36.96 c 0,-8.03 -1.8,-14.14 -5.3,-18.34 -3.8,-4.7 -9.5,-7.05 -17,-7.05 z m 46.7,0 v 87.85 h 38.3 v -11.22 h -27 v -76.63 z m 42.4,0 v 87.85 h 36.2 v -11.19 h -25 v -27.18 h 25 v -11.22 h -25 v -27.04 h 25 v -11.22 z m 44.3,0 v 87.85 h 11.2 v -38.26 h 7 c 7.4,0 13.4,-2.25 16.9,-6.7 3.8,-4.1 5.6,-10.21 5.6,-18.24 0,-7.85 -1.8,-13.89 -5.6,-18.09 -3.9,-4.39 -9.5,-6.56 -16.9,-6.56 z m 49.1,0 v 87.85 h 11.2 v -87.85 z m 20.3,0 v 87.85 h 11.3 v -53.24 l 21.3,53.17 h 9.9 v -87.85 h -11.6 v 53.16 l -21.4,-53.16 z m -341.69,7.47 v 0 h -1.3 c -5.36,0.66 -10.06,6.2 -9.01,11.64 0.42,2.14 2.14,3.93 4.31,4.35 3.23,0.91 6.95,-0.63 9.02,-3.33 2.31,-3.26 2.84,-8.21 0.35,-11.4 -0.84,-0.95 -2,-1.26 -3.3,-1.3 z m 4.21,0.63 c 0.46,0.56 0.84,1.16 1.12,1.79 -0.35,-0.56 -0.56,-1.09 -0.94,-1.62 z m 145.88,3.12 h 6.3 c 1.4,0 2.8,0 4,0.35 1.4,0.35 2.6,0.84 3.5,1.79 1,0.95 1.9,2.38 2.5,4.28 0.6,1.93 0.9,4.52 0.9,7.75 v 36.96 c 0,3.26 -0.3,5.82 -0.9,7.75 -0.6,1.9 -1.5,3.34 -2.5,4.28 -0.9,0.95 -2.1,1.58 -3.5,1.93 -1.2,0.35 -2.6,0.35 -4,0.35 h -6.3 z m 133.4,0 h 7 c 1.8,0 3.5,0 4.6,0.46 1.7,0.35 2.8,0.94 3.5,1.92 1,0.95 1.8,2.28 2.1,4.04 0.7,1.75 0.7,4.07 0.7,6.91 0,5.43 -0.7,9.04 -2.5,10.87 -0.3,0.38 -1,0.95 -2.1,1.65 -1,0.73 -3.1,1.08 -6.3,1.08 h -7 z M 121.85,123.6 c -2.35,2.17 -5.79,3.29 -9.02,2.45 0,0 0.35,0 0.35,0.35 3.48,1.13 6.6,-0.35 8.81,-2.56 z m 58.29,7.96 5.01,21.6 h -9.99 z"></path>

</svg>
