 <svg 
   xmlns="http://www.w3.org/2000/svg"
   height="110"
   width="770"
   viewbox="0 0 770 110" > 

   <path
     d="m 377.19,54.608 c 0,27.396 -22.21,49.602 -49.61,49.602 -27.4,0 -49.61,-22.207 -49.61,-49.602 0,-27.397 22.21,-49.606 49.61,-49.606 27.4,-0 49.61,22.208 49.61,49.606 z m -49.61,-37.54 c -20.73,0 -37.54,16.808 -37.54,37.54 0,20.735 16.81,37.538 37.54,37.538 20.73,0 37.54,-16.803 37.54,-37.538 0,-20.733 -16.81,-37.54 -37.54,-37.54 z m 0,69.126 c -17.45,0 -31.59,-14.138 -31.59,-31.587 0,-17.446 14.14,-31.586 31.59,-31.586 17.45,0 31.59,14.14 31.59,31.586 0,17.449 -14.14,31.587 -31.59,31.587 z m 437.41,4.864 0,11.102 -57.14,0 0,-94.967 13.29,0 0,83.865 43.85,0 z M 656.18,7.193 c 3.29,6.852 6.44,13.771 9.46,20.761 3.01,6.988 6.05,14.319 9.11,21.993 3.06,7.674 6.19,15.784 9.39,24.324 3.2,8.544 6.62,17.839 10.28,27.889 l -14.53,0 c -1.55,-4.112 -3.01,-8.177 -4.38,-12.197 -1.38,-4.02 -2.79,-8.085 -4.25,-12.196 l -43.03,0 -8.63,24.393 -13.85,0 c 3.66,-10.049 7.08,-19.344 10.28,-27.888 3.2,-8.54 6.33,-16.649 9.39,-24.324 3.06,-7.674 6.1,-15.005 9.11,-21.993 3.02,-6.99 6.17,-13.909 9.46,-20.761 l 12.19,0 z m -6.44,15.21 c -3.19,6.852 -6.23,13.978 -9.11,21.378 -2.88,7.399 -5.73,15.122 -8.56,23.159 l 35.35,0 c -2.92,-7.947 -5.82,-15.644 -8.7,-23.091 -2.88,-7.445 -5.87,-14.594 -8.98,-21.446 z m -77.97,81.807 c -6.67,0 -12.74,-1.09 -18.23,-3.28 -5.48,-2.198 -10.18,-5.418 -14.11,-9.666 -3.93,-4.248 -6.97,-9.432 -9.11,-15.554 -2.15,-6.119 -3.22,-13.155 -3.22,-21.104 0,-7.948 1.18,-15.005 3.56,-21.172 2.37,-6.166 5.62,-11.35 9.73,-15.553 4.11,-4.201 8.86,-7.4 14.25,-9.594 C 560.03,6.097 565.74,5 571.77,5 c 4.11,0 7.79,0.273 11.03,0.822 3.24,0.548 6.05,1.188 8.43,1.918 2.37,0.732 4.29,1.463 5.76,2.193 1.45,0.732 2.46,1.279 3.01,1.644 l -3.97,10.964 c -0.83,-0.549 -2.02,-1.142 -3.57,-1.782 -1.55,-0.638 -3.35,-1.278 -5.41,-1.919 -2.05,-0.637 -4.32,-1.164 -6.78,-1.576 -2.47,-0.41 -5.07,-0.616 -7.81,-0.616 -4.66,0 -8.91,0.87 -12.75,2.604 -3.84,1.737 -7.12,4.248 -9.86,7.537 -2.74,3.29 -4.87,7.287 -6.38,11.991 -1.5,4.706 -2.26,9.982 -2.26,15.827 0,5.666 0.66,10.827 1.99,15.486 1.32,4.659 3.33,8.656 6.03,11.99 2.69,3.336 6.03,5.916 10,7.743 3.98,1.828 8.66,2.74 14.05,2.74 6.03,0 11.03,-0.639 15,-1.919 3.98,-1.278 6.97,-2.419 8.98,-3.426 l 3.43,10.963 c -0.64,0.458 -1.78,1.028 -3.43,1.713 -1.65,0.683 -3.7,1.353 -6.17,1.983 -2.46,0.64 -5.34,1.19 -8.63,1.65 -3.29,0.45 -6.85,0.68 -10.69,0.68 z m -78.25,-97.017 13.3,0 0,94.967 -13.3,0 0,-94.967 z m -35.21,94.967 c -2.01,-3.381 -4.32,-7.173 -6.92,-11.376 -2.6,-4.201 -5.41,-8.564 -8.43,-13.087 -3.02,-4.521 -6.14,-9.112 -9.39,-13.771 -3.24,-4.66 -6.46,-9.16 -9.66,-13.499 -3.19,-4.339 -6.3,-8.429 -9.32,-12.266 -3.01,-3.837 -5.8,-7.216 -8.35,-10.141 l 0,74.14 -13.02,0 0,-94.967 10.55,0 c 4.29,4.568 8.88,9.889 13.77,15.964 4.89,6.076 9.73,12.333 14.53,18.773 4.79,6.44 9.31,12.768 13.56,18.98 4.25,6.214 7.83,11.74 10.76,16.581 l 0,-70.298 13.02,0 0,94.967 -11.1,0 z m -207.47,0 c -2.01,-3.381 -4.32,-7.173 -6.92,-11.376 -2.61,-4.201 -5.41,-8.564 -8.43,-13.087 -3.01,-4.521 -6.14,-9.112 -9.39,-13.771 -3.24,-4.66 -6.46,-9.16 -9.66,-13.499 -3.2,-4.339 -6.3,-8.429 -9.32,-12.266 -3.01,-3.837 -5.8,-7.216 -8.35,-10.141 l 0,74.14 -13.02,0 0,-94.967 10.55,0 c 4.29,4.568 8.88,9.889 13.77,15.964 4.89,6.076 9.73,12.333 14.53,18.773 4.79,6.44 9.31,12.768 13.56,18.98 4.25,6.214 7.83,11.74 10.76,16.581 l 0,-70.298 13.02,0 0,94.967 -11.1,0 z M 134.09,7.193 c 3.28,6.852 6.44,13.771 9.45,20.761 3.02,6.988 6.05,14.319 9.11,21.993 3.06,7.674 6.19,15.784 9.39,24.324 3.2,8.544 6.62,17.839 10.28,27.889 l -14.53,0 c -1.55,-4.112 -3.01,-8.177 -4.38,-12.197 -1.37,-4.02 -2.79,-8.085 -4.25,-12.196 l -43.03,0 -8.632,24.393 -13.841,0 c 3.653,-10.049 7.079,-19.344 10.277,-27.888 3.197,-8.54 6.326,-16.649 9.386,-24.324 3.06,-7.674 6.1,-15.005 9.11,-21.993 3.02,-6.99 6.17,-13.909 9.46,-20.761 l 12.2,0 z m -6.44,15.21 c -3.2,6.852 -6.24,13.978 -9.12,21.378 -2.87,7.399 -5.73,15.122 -8.56,23.159 l 35.35,0 c -2.92,-7.947 -5.82,-15.644 -8.7,-23.091 -2.88,-7.445 -5.87,-14.594 -8.97,-21.446 z M 49.674,104.21 c -6.67,0 -12.744,-1.09 -18.226,-3.28 C 25.967,98.732 21.26,95.512 17.334,91.264 13.404,87.016 10.366,81.832 8.221,75.71 6.073,69.591 5,62.555 5,54.606 5,46.658 6.187,39.601 8.563,33.434 c 2.374,-6.166 5.618,-11.35 9.729,-15.553 4.111,-4.201 8.86,-7.4 14.252,-9.594 C 37.934,6.097 43.645,5 49.674,5 c 4.111,0 7.788,0.273 11.031,0.822 3.242,0.548 6.051,1.188 8.428,1.918 2.374,0.732 4.293,1.463 5.755,2.193 1.461,0.732 2.467,1.279 3.016,1.644 l -3.975,10.964 c -0.822,-0.549 -2.01,-1.142 -3.562,-1.782 -1.555,-0.638 -3.357,-1.278 -5.413,-1.919 -2.056,-0.637 -4.316,-1.164 -6.783,-1.576 -2.466,-0.41 -5.07,-0.616 -7.811,-0.616 -4.659,0 -8.907,0.87 -12.744,2.604 -3.838,1.737 -7.126,4.248 -9.867,7.537 -2.74,3.29 -4.864,7.287 -6.372,11.991 -1.507,4.706 -2.261,9.982 -2.261,15.827 0,5.666 0.662,10.827 1.987,15.486 1.322,4.659 3.333,8.656 6.029,11.99 2.693,3.336 6.029,5.916 10.003,7.743 3.975,1.828 8.655,2.74 14.047,2.74 6.029,0 11.031,-0.639 15.005,-1.919 3.975,-1.278 6.965,-2.419 8.976,-3.426 l 3.426,10.963 c -0.64,0.458 -1.781,1.028 -3.426,1.713 -1.645,0.683 -3.7,1.353 -6.167,1.983 -2.466,0.64 -5.344,1.19 -8.633,1.65 -3.289,0.45 -6.852,0.68 -10.689,0.68 z"  /> </svg>