<?xml version="1.0"?>

<!-- Generator: Adobe Illustrator 19.1.0, SVG Export Plug-In . SVG Version: 6.00 Build 0)  -->
<svg version="1.1" id="Layer_1" xmlns="http://www.w3.org/2000/svg" xmlns:xlink="http://www.w3.org/1999/xlink" x="0px" y="0px" width="500.2px" height="184.9px" viewBox="0 0 500.2 184.9" style="enable-background:new 0 0 500.2 184.9;" xml:space="preserve">

<g>
	<g>
		<g>
			<path class="st0" d="M370.3,48.2c-1,0-1.8,0.6-2.1,1.5l-25.1,80.4c-0.2,0.7-0.1,1.4,0.3,1.9c0.4,0.5,1.1,0.9,1.7,0.9h9.8
				c1,0,1.8-0.6,2.1-1.5l17.4-56.7c0.3-0.9,0.7-1.5,1.6-1.5c0.8,0,1.2,0.7,1.5,1.5l17.4,56.7c0.3,0.9,1.1,1.5,2.1,1.5h9.8
				c0.7,0,1.3-0.3,1.7-0.9c0.4-0.5,0.5-1.3,0.3-1.9l-25.1-80.4c-0.3-0.9-1.1-1.5-2.1-1.5H370.3z"></path>
			<path class="st1" d="M267.9,48.2h-9.4c-1.2,0-2.2,1-2.2,2.2v80.4c0,1.2,1,2.2,2.2,2.2h9.4c1.2,0,2.2-1,2.2-2.2V50.4
				C270.1,49.2,269.1,48.2,267.9,48.2 M340.5,48.2h-52.4c-1.2,0-2.2,1-2.2,2.2v8.5c0,1.2,1,2.2,2.2,2.2H305c1.3,0,2.3,1,2.3,2.3
				v67.4c0,1.2,1,2.2,2.2,2.2h9.4c1.2,0,2.2-1,2.2-2.2V63.3c0-1.3,1-2.3,2.3-2.3h17.2c1.2,0,2.2-1,2.2-2.2v-8.5
				C342.7,49.2,341.7,48.2,340.5,48.2 M465.6,120.1h-26.9c-1.3,0-2.3-1-2.3-2.3V50.4c0-1.2-1-2.2-2.2-2.2h-9.3c-1.2,0-2.2,1-2.2,2.2
				v80.4c0,1.2,1,2.2,2.2,2.2h40.7c1.2,0,2.2-1,2.2-2.2v-8.5C467.8,121.1,466.8,120.1,465.6,120.1 M212.8,88.8h-8.3
				c-1.3,0-2.3-1-2.3-2.3V63.3c0-1.3,1-2.3,2.3-2.3h8.3c7.8,0,14.2,6.4,14.2,14.2C227,82.8,220.7,88.8,212.8,88.8 M214.3,48.2
				l-22.8,0c-0.6,0-1.1,0.2-1.5,0.6c-0.4,0.4-0.6,1-0.6,1.5v80.4c0,1.2,1,2.2,2.2,2.2h8.5c1.2,0,2.2-1,2.2-2.2v-26.8
				c0-1.3,1-2.3,2.3-2.3h9.8c14.5,0,26.4-11.9,26.4-26.4C240.7,60.6,228.6,48.2,214.3,48.2 M90.3,119.4c-0.4-0.9-1.1-1.3-2-1.3
				c-0.3,0-0.5,0.1-0.8,0.1c-3.3,1.2-6.8,1.9-10.4,1.9c-16.4,0-29.5-13.3-29.5-29.7c0-16.4,13.1-29.5,29.5-29.5
				c3.5,0,7,0.5,10.3,1.7c0.2,0.1,0.5,0.1,0.8,0.1c0.9,0,1.6-0.5,2-1.3l3.8-8.5c0.2-0.6,0.3-1.2,0-1.7c-0.2-0.6-0.7-1-1.2-1.2
				c-5-2-10.3-3-15.7-3C53.4,47.2,34,66.6,34,90.5s19.4,43.3,43.3,43.3c5.4,0,10.7-1,15.7-3c0.6-0.2,1-0.6,1.2-1.2
				c0.2-0.5,0.2-1.2,0-1.7L90.3,119.4z M149.2,49.7c-0.3-0.9-1.1-1.5-2.1-1.5h-11.3c-1,0-1.8,0.6-2.1,1.5l-25.1,80.4
				c-0.2,0.7-0.1,1.4,0.3,1.9c0.4,0.6,1.1,0.9,1.7,0.9h9.8c1,0,1.8-0.6,2.1-1.5l17.4-56.7c0.3-0.9,0.7-1.5,1.6-1.5
				c0.8,0,1.2,0.7,1.5,1.5l17.4,56.7c0.3,0.9,1.1,1.5,2.1,1.5h9.8c0.7,0,1.3-0.3,1.7-0.9c0.4-0.5,0.5-1.3,0.3-1.9L149.2,49.7z"></path>
		</g>
	</g>
</g>
</svg>
