<svg     xmlns="http://www.w3.org/2000/svg"
 height="60" viewBox="0 0 300 60" width="300">

  <path class="logotype logotext" d="m 204.1,5.322 16.9,0 0,51.258 -16.9,0 z M 180.9,25.22 161.2,24.3 c -3.4,-0.31 -6.6,0.51 -6.6,-3.81 0,-4.3 2.7,-4.1 12,-4.1 9.7,0 12.4,-0.35 12.4,4.72 l 16.6,0 c 0,-4.44 -0.6,-8.58 -4.4,-12.429 -4.3,-4.311 -10.8,-4.344 -24.7,-4.344 -12.4,0 -19.5,0.136 -23.7,4.344 -3.3,3.359 -4.2,8.659 -4.2,11.799 0,9.9 4.7,15.05 14.5,15.52 l 22.5,1.04 c 4.4,0.28 5.5,1.13 5.5,4.17 0,3.84 -2.4,4.31 -8.2,4.31 l -9.4,0 c -6.7,0 -8.4,-1.19 -8.4,-4.8 l -16.6,0 c 0,3.19 0.2,8.59 3.2,11.53 4.1,4.11 6.5,5.46 26.4,5.46 19.8,0 21.6,-1.04 26,-5.46 3.4,-3.41 3.6,-7.66 3.6,-10.79 0,-12.02 -5.2,-15.73 -16.8,-16.24 m -85.35,11.09 7.35,-19.74 2.6,0 7.4,19.74 -17.35,0 M 92.15,4.973 70.06,56.76 l 17.84,0 3.45,-9.23 25.75,0 3.4,9.23 17.9,0 -22.1,-51.787 -24.15,0 z M 53.24,36.65 c -0.17,2.99 -0.58,4.26 -1.57,5.25 -1.47,1.47 -5.99,1.55 -12.87,1.55 -6.88,0 -12.3,-0.1 -13.77,-1.55 -1.49,-1.49 -1.67,-3.72 -1.67,-11.2 0,-7.47 0.18,-9.79 1.67,-11.27 1.47,-1.48 6.89,-1.56 13.77,-1.56 6.88,0 11.23,0.1 12.7,1.56 0.89,0.88 0.96,2.06 1.16,4.44 l 16.93,0 C 69.86,16.77 68.77,12.45 64.91,8.595 60.81,4.488 54.56,3.875 38.8,3.875 22.81,3.875 16.38,4.588 11.8,9.163 7.23,13.73 6.62,18.02 6.62,30.76 c 0,12.75 0.61,16.93 5.18,21.51 4.11,4.11 10.78,5.25 27,5.25 12.65,0 22.03,-0.15 26.76,-4.87 3.79,-3.79 4.74,-7.59 4.95,-16.01 l -17.27,0 m 221.06,5.27 c -1.5,1.48 -6.7,1.55 -13.5,1.55 -6.8,0 -12,-0.1 -13.5,-1.55 -1.4,-1.48 -1.6,-3.62 -1.6,-11.11 0,-7.47 0.2,-9.62 1.6,-11.1 1.5,-1.47 6.7,-1.54 13.5,-1.54 6.8,0 12,0.1 13.5,1.54 1.4,1.48 1.6,3.63 1.6,11.1 0,7.49 -0.2,9.63 -1.6,11.11 M 287.4,9.178 c -4.9,-5.034 -13.8,-5.195 -26.6,-5.195 -12.8,0 -21.6,0.162 -26.6,5.195 -4.6,4.572 -5.4,8.942 -5.4,21.692 0,12.74 0.8,17.1 5.4,21.67 5,5.04 13.8,5.2 26.6,5.2 12.8,0 21.7,-0.16 26.6,-5.2 4.6,-4.57 5.4,-8.93 5.4,-21.67 0,-12.75 -0.8,-17.12 -5.4,-21.692 z"></path></svg>