<svg xmlns="http://www.w3.org/2000/svg" class="community-logo logo cassandra" width="380px" height="222px" viewBox="0 0 280 188">
<path class="logotype" d="m 201.4,5 c 0,0 -16.9,19.53 -21.2,17.27 l 8.2,-16.637 c 0,0 -8.2,16.627 -19.2,13.797 5.1,-6.51 7,-12.475 7,-12.475 0,0 -8.4,13.615 -18.9,9.935 -2.5,-0.87 3,-7.124 3,-7.124 0,0 -7,6.834 -11.8,5.984 -4.8,-0.84 0.3,-9.621 0.3,-9.621 0,0 -8.5,13.301 -10.2,12.741 -1.7,-0.57 0.9,-9.343 0.9,-9.343 0,0 -6.3,10.193 -9.7,9.623 -3.4,-0.56 0,-10.472 0,-10.472 0,0 -3.7,11.042 -6.5,10.192 -2.8,-0.85 -3.4,-7.36 -3.4,-7.36 0,0 -0.7,8.84 -4.8,9.62 C 84.54,27.08 50.86,40.1 8.682,82.27 34.29,68.46 50.02,50.47 77.73,38.6 c -0.82,3.42 -1.27,6.96 -1.27,10.6 0,27.36 24.74,49.54 55.14,49.54 30.5,0 55.2,-22.18 55.2,-49.54 0,-6.58 -1.4,-12.85 -4,-18.59 27.4,7 42,19.7 48.1,19.96 26.6,1.13 43.3,-24.63 43.3,-24.63 0,0 -16.7,19.25 -28.9,14.58 10.9,-6.37 19.3,-21.93 19.3,-21.93 0,0 -21.3,21.93 -36,18.68 13.3,-10.48 19.8,-28.592 19.8,-28.592 0,0 -16.9,26.072 -27.4,27.172 12.1,-10.75 17.2,-26.039 17.2,-26.039 0,0 -13.8,20.379 -24.6,21.799 14.4,-13.02 15,-21.23 15,-21.23 0,0 -20,25.82 -28,21.79 9.6,-10.47 16.1,-23.775 16.1,-23.775 0,0 -16.7,22.645 -21.2,18.965 -3.1,-0.57 5.1,-10.76 5.1,-10.76 0,0 -10.2,9.06 -13,6.8 C 192.7,20.28 201.4,5 201.4,5 Z m -55.1,21.12 c 4.7,0 9.2,0.22 13.4,0.6 3.4,1.13 6.5,2.62 9.1,4.56 -0.6,3.06 -1.6,6.02 -3,8.82 -0.3,-0.1 -0.7,-0.13 -1,-0.13 -2.5,0 -4.4,1.98 -4.4,4.43 0,1.06 0.4,2.03 1,2.79 -2.7,3.43 -5.9,6.4 -9.6,8.71 -0.1,-0.67 -0.3,-1.33 -0.5,-1.96 l 5.7,-4.3 -6.4,2.3 c -0.4,-0.69 -0.8,-1.35 -1.2,-1.98 l 4.4,-6.08 -6.1,4.05 c -0.6,-0.62 -1.3,-1.19 -2,-1.69 l 2.1,-7.09 -4.2,5.9 c -0.7,-0.34 -1.5,-0.62 -2.2,-0.84 l -0.1,-7.42 -2.9,6.91 c -0.4,-0 -0.7,-0.1 -1.1,-0.1 -0.4,0 -0.9,0 -1.3,0.1 l -2.4,-7.05 0.1,7.45 c -0.7,0.19 -1.4,0.41 -2.1,0.69 l -3.9,-6.9 2.2,7.75 c -0.7,0.43 -1.4,0.9 -2,1.44 l -6.7,-4.84 5.1,6.4 c -0.5,0.56 -1,1.16 -1.4,1.79 l -8.2,-3.03 7.1,5.22 c -0.3,0.64 -0.5,1.3 -0.7,1.98 l -8.4,0.26 c -2.1,-1.51 -4.1,-3.23 -5.9,-5.15 1.1,-2.93 2.6,-5.64 4.4,-8.1 0.6,0.21 1.2,0.32 1.8,0.32 2.7,0 4.9,-2.18 4.9,-4.88 0,-0.67 -0.2,-1.31 -0.4,-1.9 8.1,-6.53 19,-9.78 29.6,-8.31 -0.9,-0.28 -1.8,-0.53 -2.8,-0.74 z m -18.9,0.84 c -3.8,1.25 -7.4,3.13 -10.6,5.58 -0.6,-0.23 -1.2,-0.35 -1.8,-0.35 -2.7,0 -4.9,2.19 -4.9,4.88 0,0.6 0.1,1.18 0.3,1.71 -1.8,2.25 -3.3,4.73 -4.5,7.41 -3.2,-4.36 -5.5,-9.4 -6.67,-14.73 8.27,-2.05 17.57,-3.59 28.17,-4.5 z m -28.99,4.69 c 0.39,6.66 2.59,12.83 6.09,18.01 -0.3,1.12 -0.6,2.27 -0.9,3.44 -0.9,4.1 -1.1,8.2 -0.6,12.14 -2.1,1.04 -3.62,3.23 -3.62,5.77 0,3.55 2.92,6.42 6.42,6.42 0.3,0 0.7,-0 1,-0.1 1.7,3.26 3.9,6.24 6.5,8.84 0,0 0,0.1 -0.1,0.14 C 97.66,79.34 86.8,63.7 86.8,45.52 c 0,-5.04 1.86,-8.94 4.82,-11.98 2.19,-0.66 4.45,-1.3 6.79,-1.89 z m 71.19,0.22 c 4,3.23 6.7,7.64 6.7,13.65 0,7.9 -2.1,15.31 -5.7,21.75 -4.9,-4.07 -10.9,-6.76 -17.2,-7.75 0.9,-0.63 1.9,-1.3 2.8,-2.01 l 2.8,-0.67 -1.9,-0.1 c 2.7,-2.3 5,-4.98 7,-7.98 0.2,0 0.4,0.1 0.7,0.1 2.4,0 4.4,-1.98 4.4,-4.43 0,-1.3 -0.6,-2.47 -1.5,-3.28 1.1,-2.93 1.7,-6.03 1.9,-9.25 z m 58.2,20.72 c -2.5,0.1 -4.7,1.23 -5.8,4.38 C 208.8,82.02 181.2,96.03 148.9,100.7 116.7,105.4 92.89,98.58 73.36,93.08 47.67,85.84 27.29,98.72 5,87.54 c 5.16,4.08 11.04,8.06 28.02,8.12 5.76,0 24.2,-0.91 27.6,2.07 3.4,2.97 -11.46,16.97 -11.46,16.97 0,0 25.14,-21.25 27.59,-14 1.53,4.5 -7.21,16.6 -7.21,16.6 0,0 8.77,-11.9 15.28,-14.5 4.48,-1.7 8.25,-1.5 11.47,3 2.12,3 -10.2,17.4 -10.2,17.4 0,0 16.61,-16.1 19.51,-15.3 3,0.9 0,15.3 0,15.3 0,0 6.1,-14.6 9.4,-15.7 4.4,-1.5 -10.2,34 -10.2,34 0,0 17.9,-32.8 21.2,-33.6 5.7,-1.3 9.6,22.9 9.6,22.9 0,0 -2.8,-21.1 0.2,-22.5 19,-8.56 8,36.6 8,36.6 0,0 12.5,-30.7 4.8,-37.5 20.2,13.4 17.7,37.5 17.7,37.5 0,0 5.3,-11.5 -9.5,-39.6 8,-0.5 20.2,20.9 20.2,20.9 0,0 -13.2,-23.4 -4.3,-23.8 17.7,-0.8 19.5,31 19.5,31 0,0 5.3,-4.5 -8.9,-35.67 9.1,-5.8 31,28.87 31,28.87 0,0 -20.2,-33.83 -17,-36.09 3.3,-2.26 15.2,10.79 15.2,10.79 0,0 -9.1,-12.49 -6.7,-13.76 2.4,-1.28 26.5,24.76 26.5,24.76 0,0 -21.2,-25.47 -17.6,-28.58 2.2,-1.85 8.5,1.57 13.4,4.66 -6.8,-4.82 -16.5,-12.39 -13.4,-14.02 6.6,-3.38 25.1,8.08 25.1,8.08 0,0 -11.2,-9.2 -9.3,-11.46 1.8,-2.27 23.7,14.43 23.7,14.43 0,0 -19.4,-15.28 -20.4,-19.1 -0.9,-3.82 15.3,1.27 15.3,1.27 0,0 -17.9,-8.35 -18.2,-10.75 -0.3,-2.41 11.9,2.69 11.9,2.69 0,0 -8.7,-7.1 -15,-6.93 z m 0.3,35.79 c 3.2,2.36 5.9,4.11 5.9,4.11 0,0 -2.6,-1.98 -5.9,-4.11 z M 107.6,53.58 c 2.5,2.69 5.4,4.99 8.5,6.83 l -2.1,0.46 3.4,0.24 c 1.9,1.03 4,1.88 6.1,2.54 l -7.6,4.83 8.5,-3.08 c 0.2,0.41 0.5,0.8 0.7,1.18 l -1.9,2.43 c -4,3.82 -7,8.49 -8.8,13.63 -1.7,-2.16 -3.1,-4.48 -4.2,-6.92 1.2,-1.17 2,-2.84 2,-4.7 0,-3.14 -2.2,-5.75 -5.2,-6.31 -0.4,-3.52 -0.3,-7.13 0.5,-10.73 0.1,-0.14 0.1,-0.27 0.1,-0.4 z m 7.5,1.61 7.6,1.95 c -0.1,0.4 -0.1,0.81 -0.1,1.23 0,0.21 0,0.42 0.1,0.63 l -0.3,0 c -2.5,-0.99 -5,-2.29 -7.3,-3.85 z m 36.1,8.06 c 6.4,0.58 12.5,2.95 17.8,6.63 -7.9,12.25 -21.8,20.37 -37.5,20.37 -3.9,0 -7.7,-0.51 -11.3,-1.45 -1.2,-1.01 -2.3,-2.1 -3.4,-3.25 2.3,-5.86 6,-11.13 10.8,-15.09 l -2.3,8.68 5.4,-7.65 c 0.5,0.26 1.1,0.51 1.6,0.71 l -0.7,8.82 3,-8.19 c 0.7,0.13 1.4,0.2 2.1,0.23 l 2.6,8.52 0.6,-8.72 c 0.5,-0.1 1.1,-0.22 1.6,-0.38 l 3.9,7.39 -2.2,-8 c 0.7,-0.31 1.4,-0.68 2,-1.1 l 6.6,5.12 -4.4,-6.81 c 0.5,-0.45 0.9,-0.94 1.4,-1.46 l 7.4,2.9 -5.7,-5.6 c 0.3,-0.54 0.5,-1.1 0.7,-1.67 z m 86.5,113.15 c 2.9,0 8.3,-5.2 9.8,-15 0,-0.6 0.1,-0.8 0.2,-1.4 -0.7,-0.3 -1.6,-0.4 -2.5,-0.4 -2.2,0 -4.5,0.6 -6.5,3.4 -2.1,2.9 -3,6.6 -3,9.5 0,2.5 0.7,3.9 1.9,3.9 l 0.1,0 z m -9.7,-2.7 c 0,-3.6 1.2,-9.8 5.7,-14.3 3.8,-3.9 8.5,-4.9 12.8,-4.9 2.8,0 6.7,0.9 9.1,1.4 -0.6,2.6 -2.1,12.6 -2.7,18.4 -0.3,2.4 -0.5,5.8 -0.3,7.1 -2,0.8 -5.7,1.1 -6.8,1.1 -0.5,0 -0.6,-2.5 -0.4,-4.8 0,-0.8 0.1,-1.9 0.2,-2.4 -2.3,3.9 -7,7.2 -11.8,7.2 -3.5,0 -5.8,-2.9 -5.8,-8.8 l 0,0 z m -11.5,-10.5 c 3.2,-7.1 6.9,-8.7 9.4,-8.7 0.8,0 2,0.5 2.5,1.1 0.3,2 -1.3,5.9 -2.7,7.4 -0.7,-0.3 -1.6,-0.7 -2.6,-0.7 -2.1,0 -6.1,3.2 -8.6,16.9 -0.2,1.1 -0.5,1.6 -1.2,1.9 -1,0.6 -5,1.1 -6.9,1.1 0.8,-4.9 2.4,-14.9 3,-20.8 0.2,-1.5 0.2,-4.2 0.1,-5.3 1.2,-0.6 5.7,-1.6 6.7,-1.6 0.5,0 1,3.3 0.1,8.7 l 0.2,0 z m -31.2,13.1 c 2.6,0 8,-4.9 9.5,-13.6 0,-0.5 0.2,-1.4 0.3,-1.9 -0.7,-0.8 -1.8,-1.2 -3.4,-1.2 -6.1,0 -8.8,7.2 -8.8,12.4 0,2.9 1,4.3 2.3,4.3 l 0.1,0 z m -4,6.2 c -3.8,0 -6.2,-3.4 -6.2,-9.3 0,-9.7 6,-18.7 16.3,-18.7 1.8,0 3.4,0.5 4.4,1.1 0.5,-2.8 1.8,-11.3 1.9,-13.8 1.6,-0.3 5.2,-0.8 6.9,-0.8 0.6,0 0.8,0.6 0.6,2.1 -1.5,9 -4.1,26.3 -4.5,30.1 -0.4,3.3 -0.5,6.5 -0.4,8.3 -1.9,0.8 -5.8,1 -6.8,1 -0.5,0 -0.7,-2.8 -0.6,-5.2 0.1,-0.8 0.2,-2 0.2,-2.1 -3,4.9 -7.2,7.3 -11.7,7.3 l -0.1,0 z m -26.5,-20.2 c 2.8,-4.4 6.4,-7.8 11.4,-7.8 4.3,0 5.7,4 4.9,9.6 -0.4,2.7 -1.2,6.4 -1.6,9.9 -0.5,3 -0.8,5.6 -0.7,7.4 -1.6,0.8 -6.1,1.1 -7.1,1.1 -0.5,0 -0.5,-3.3 0,-6.8 0.5,-2.9 1.5,-8.1 2,-11.1 0.3,-1.7 0.2,-3.8 -1.4,-3.8 -2.3,0 -7.5,3.5 -10.2,18 -0.2,1.2 -0.6,1.9 -1.3,2.4 -0.9,0.5 -2.8,1 -6.7,1 0.7,-3.6 1.8,-11.1 2.7,-16.6 0.7,-5.1 1.1,-8.3 0.9,-9.6 1,-0.3 6.3,-1.5 6.9,-1.5 0.7,0 0.8,1.9 0.2,6.4 0,0.4 -0.1,1.1 -0.2,1.4 l 0.2,0 z m -31.4,14.1 c 2.9,0 8.3,-5.2 9.8,-15 0,-0.6 0.1,-0.8 0.2,-1.4 -0.7,-0.3 -1.6,-0.4 -2.5,-0.4 -2.2,0 -4.5,0.6 -6.5,3.4 -2.1,2.9 -3,6.6 -3,9.5 0,2.5 0.7,3.9 1.9,3.9 l 0.1,0 z m -9.7,-2.7 c 0,-3.6 1.2,-9.8 5.7,-14.3 3.8,-3.9 8.5,-4.9 12.8,-4.9 2.8,0 6.7,0.9 9.1,1.4 -0.6,2.6 -2.1,12.6 -2.7,18.4 -0.3,2.4 -0.5,5.8 -0.3,7.1 -2,0.8 -5.7,1.1 -6.8,1.1 -0.5,0 -0.6,-2.5 -0.4,-4.8 0,-0.8 0.1,-1.9 0.2,-2.4 -2.3,3.9 -7,7.2 -11.8,7.2 -3.5,0 -5.8,-2.9 -5.8,-8.8 l 0,0 z m -9.2,-19.2 c 2.4,0 4.8,0.9 5.9,2.1 -0.1,1.6 -1.4,4.5 -3.5,3.7 -0.9,-0.3 -1.8,-0.6 -3,-0.6 -1.6,0 -3,0.8 -3,2.3 0,1.1 0.8,1.9 4.8,4.8 2.9,2.1 4.1,3.9 4.1,6.6 0,4.3 -4.2,9.1 -11.39,9.1 -2.94,0 -5.52,-1.2 -6.36,-2.4 -1.08,-1.8 -0.24,-5.3 0.96,-4.7 1.56,0.8 4.14,1.6 6.24,1.6 1.95,0 3.25,-0.9 3.25,-2.1 0,-1 -0.9,-1.9 -4.57,-4.5 -3.06,-2.3 -4.02,-4.4 -4.02,-6.8 0,-4.9 4.26,-9.1 10.49,-9.1 l 0.1,0 z m -20.73,0 c 2.46,0 4.8,0.9 5.88,2.1 -0.1,1.6 -1.38,4.5 -3.48,3.7 -0.9,-0.3 -1.8,-0.6 -3,-0.6 -1.62,0 -3,0.8 -3,2.3 0,1.1 0.84,1.9 4.86,4.8 2.88,2.1 4.02,3.9 4.02,6.6 0,4.3 -4.14,9.1 -11.34,9.1 -2.94,0 -5.52,-1.2 -6.36,-2.4 -1.08,-1.8 -0.24,-5.3 0.96,-4.7 1.56,0.8 4.14,1.6 6.24,1.6 1.98,0 3.24,-0.9 3.24,-2.1 0,-1 -0.9,-1.9 -4.56,-4.5 -3.06,-2.3 -4.02,-4.4 -4.02,-6.8 0,-4.9 4.26,-9.1 10.5,-9.1 l 0.1,0 z m -32.82,21.9 c 2.94,0 8.28,-5.2 9.78,-15 0.1,-0.6 0.12,-0.8 0.24,-1.4 -0.66,-0.3 -1.56,-0.4 -2.46,-0.4 -2.22,0 -4.5,0.6 -6.54,3.4 -2.1,2.9 -3,6.6 -3,9.5 0,2.5 0.72,3.9 1.92,3.9 l 0.1,0 z m -9.66,-2.7 c 0,-3.6 1.2,-9.8 5.7,-14.3 3.84,-3.9 8.52,-4.9 12.78,-4.9 2.82,0 6.66,0.9 9.06,1.4 -0.6,2.6 -2.04,12.6 -2.7,18.4 -0.3,2.4 -0.42,5.8 -0.3,7.1 -1.98,0.8 -5.7,1.1 -6.72,1.1 -0.54,0 -0.66,-2.5 -0.48,-4.8 0.1,-0.8 0.18,-1.9 0.24,-2.4 -2.34,3.9 -6.96,7.2 -11.82,7.2 -3.48,0 -5.76,-2.9 -5.76,-8.8 l 0,0 z m -7.98,-19.2 c 2.28,0 4.44,0.6 5.52,1.6 0.18,1.7 -1.32,4.4 -2.28,4.4 -1.14,-0.4 -2.22,-0.6 -3.54,-0.6 -5.46,0 -8.16,5.6 -8.16,11.2 0,3.5 1.2,5.6 3.96,5.6 2.94,0 5.94,-2 7.62,-3.5 0.42,0.3 0.96,1.2 0.96,2.3 0,1.2 -0.36,2.4 -1.44,3.4 -1.92,2 -5.16,3.6 -9.84,3.6 -5.4,0 -9.12,-3.1 -9.12,-10.2 0,-9.4 6.18,-17.8 16.26,-17.8 l 0.1,0 z">
</path>
</svg>