<svg xmlns="http://www.w3.org/2000/svg" viewBox="0 0 409.48 163.75" height="163.75" width="409.48">
  <path class="logotext" d="m 276.17,22.003 3.88,18.338 1.81,0 c 1.74,0 2.6,-0.688 2.95,-2.151 0.35,-1.525 2.35,-9.388 2.35,-9.388 l 2.46,11.539 1.18,0 3.21,0 3.87,-18.338 -2.97,0 -2.51,11.199 -2.38,-11.199 -4.73,0 -2.34,11 -2.49,-11 -4.29,0 z m 31.59,0 0,18.338 3.97,0 0,-9.301 0.37,0 2.82,7.287 c 0,0 0.63,2.089 2.96,2.076 l 1.39,0 3.64,-9.375 0.36,0.125 0,9.299 3.98,0 0,-18.338 -0.58,0 -3.56,0 -5.6,14.438 0,-0.112 -5.6,-14.437 -3.56,0 -0.58,0 z m 27.75,0 c -5.15,0 -5.15,4.786 -5.16,4.924 l 0,2.638 0,2.813 0,3.037 0,0.125 c 0,0.712 0.17,4.824 5.16,4.824 l 8.49,0 0,-2.437 -6.34,0 c -2.85,0 -3.01,-2.388 -3.01,-2.813 l 0,-0.125 0,-2.824 9.35,0 0,-2.438 -9.35,0 0,-2.324 c 0,-0.175 0,-2.976 2.73,-2.988 l 6.62,0 0,-2.412 -8.49,0 z m 40.89,0 -5.5,18.338 2.95,0 4.22,-14.088 3.12,11.025 c 0,0 0.72,3.063 4.29,3.063 l 0.87,0 -5.19,-18.338 -1.56,0 -2.97,0 -0.23,0 z m -28.14,0.03 0,0.02 -1.17,0 -0.15,0 0,18.326 0.15,0 4.33,0 4.35,0 c 5.14,0 5.14,-4.788 5.15,-4.926 l 0,-8.475 0,-0.125 c 0,-0.712 -0.17,-4.824 -5.15,-4.824 l -4.35,0 -3.16,0 z m -99.63,0.02 c -5.13,0 -5.13,4.788 -5.15,4.925 l 0,8.489 0,0.125 c 0,0.712 0.18,4.824 5.15,4.824 l 8.52,0 0,-2.438 -6.35,0 c -2.85,0 -3.01,-2.386 -3.01,-2.824 l 0,-0.125 0,-7.588 c 0,-0.162 0,-2.963 2.73,-2.988 l 6.63,0 0,-2.4 -8.52,0 z m 16.38,0 c -4.96,0 -5.14,4.463 -5.16,4.9 l 0,8.514 0,0.125 c 0,0.725 0.17,4.824 5.16,4.824 l 8.5,0 0,-2.438 -6.35,0 c -2.85,0 -3,-2.387 -3.01,-2.812 l 0,-0.125 0,-7.588 c 0,-0.162 0,-2.961 2.75,-2.986 l 6.61,0 0,-2.414 -8.5,0 z m 98.89,0 0,18.338 4.3,0 0,-18.338 -4.3,0 z m -12.67,2.425 0.19,0 2.19,0 c 2.85,0 3.01,2.4 3.02,2.825 l 0,-0.05 0,0.125 0,7.611 c 0,0.338 -0.12,2.938 -2.72,2.963 l -2.48,0 -0.19,0 0,-13.475 z m -131.13,6.946 -2.24,9.236 -5.65,0 -11.63,71.23 0,0.14 0,0 0,0.11 0,-0.15 1.06,-2.36 -1.08,2.51 11.51,-18.129 0,47.729 13.8,0 0,-69.458 12.63,-19.889 -11.01,0 9.46,-20.929 -16.85,0 z M 26.132,52.99 l 0,18.051 20.838,0 0,-18.051 -20.838,0 z m 52.437,0 0,24.301 -25.736,0 0,12.312 25.736,0 0,52.097 18.051,0 0,-52.097 25.88,0 0,38.747 c 0,4.1 1.28,7.42 3.51,9.72 2.21,2.3 5.41,3.63 9.36,3.63 l 63.7,0 0,-13.23 -56.91,0 c -1.14,0 -2.16,-0.3 -2.9,-0.94 -0.73,-0.65 -1.14,-1.63 -1.13,-2.77 l 0,-35.157 11.21,0 0,27.347 32.53,0 c 10.63,0 10.8,-6.94 10.93,-10.56 l 0,-16.787 8.21,0 0,-12.324 -8.2,0 0,-24.289 -14.96,0 0,24.289 -39.31,0 0,-24.289 -16.04,0 0,24.289 -8.19,0 0,0.01 -17.69,0 0,-24.301 -18.051,0 z m 71.141,0 0,18.051 14.96,0 0,-18.051 -14.96,0 z m 101.19,0 -2.11,6.926 -9.84,0 -6.94,11.15 13.4,0 -1.94,6.213 -13.15,0 0,11.737 9.62,0 -3.96,13.164 0,7.27 39.65,0 -15.9,19.82 -24.26,0 0,12.41 45.76,0 9.98,-12.41 -14.69,0 15.7,-19.5 0,-11.866 -39.35,0 2.65,-8.888 36.7,0 0,-11.737 -33.16,0 1.91,-6.213 42.74,0 0,32.794 c 0,5.03 0.13,7.4 2.83,11.06 l 5.03,6.64 -16.17,20.14 15.75,0 7.66,-10.27 5.75,7.38 c 1.76,1.95 3.54,2.93 5.89,2.93 l 11.52,0 c 3.98,0 8.09,-2.56 9.33,-8.1 l 3.92,-20.51 0,28.61 12.83,0 0,-28.61 3.76,18.3 c 1.7,6.89 6.48,10.31 12.66,10.31 l 3,0 0,-10.31 -0.41,0 c -1.46,0 -4.4,-0.55 -5.64,-4.65 l -3.06,-13.6 7.1,0 0,-10.33 -17.46,0 0,-4.459 5.32,0 0,-0.04 c 5.85,0 10.61,-1.475 10.61,-9.775 l 0,-17.537 1.93,0 0,-11.137 -1.93,0 0,-6.914 -11.46,0 0,6.276 0,0.638 -19.5,0 0,-6.914 -10.99,0 0,6.914 -1.64,0 -1.01,0 0,0.01 -2.87,0 0,-0.01 -2.57,0 0,-6.914 -11.72,0 0,6.926 -6.7,0 0,-6.926 -11.72,0 0,6.926 -39.41,0 2.12,-6.926 -15.54,0 z m 102.05,18.051 19.11,0 0,4.963 -19.11,0 0,-4.963 z m -37.55,0.02 6.7,0 0,29.339 0,0 c 0,6.35 -3.34,11.32 -3.34,11.32 l -3.36,-4.7 0,-35.999 z m 18.47,0 7.7,0 0,27.362 13.55,0 0,3.737 0,0.64 -17.4,0 0,10.31 7.33,0 -3.13,15.54 c -0.55,2 -1.36,2.72 -3.3,2.72 l -1.5,0 c -2.08,0 -3.77,-0.72 -5.2,-2.27 l -5.72,-7.53 c 0,0 7.67,-9.61 7.67,-21.06 l 0,-29.449 z m -311.875,6.213 0,12.313 8.486,0 0,41.723 c 0,5.19 1.614,10.3 10.102,10.3 l 26.688,0 0,-12.45 -16.05,0 c -1.413,0 -2.451,-0.14 -3.239,-0.7 -0.8,-0.57 -1.087,-1.54 -1.062,-2.64 l 0,-48.546 -24.924,0 z M 353,83.852 l 19.06,0 0,1.813 c 0,2.212 -1.54,2.85 -3.2,2.85 l -15.86,0 0,-4.663 z m -188.33,5.75 13.19,0 0,11.768 c 0,2.44 -1.99,2.94 -3,2.94 l -10.19,0 0,-14.708 z" id="path3594"></path></svg>