<svg
   xmlns="http://www.w3.org/2000/svg"
   viewBox="0 0 204 56"
     height="56"
   width="204">
  <path    d="m 27.875,6.4199 -4.637,4.6641 3.104,0 0,0.475 0,11.791 0,0 1.533,1.541 1.518,-1.528 0,-11.699 0,-0.5 3.199,0 -4.717,-4.7461 z m -15.033,6.1391 0,7.343 2.906,-2.863 8.08,7.957 1.514,0 0,-1.232 -8.059,-8.108 3.078,-3.097 -7.519,0 z m 8.929,0 -3.078,3.097 6.649,6.688 0,-9.785 -3.569,0 0,0 z m 8.625,0.09 0,9.703 6.659,-6.699 -2.985,-3.004 0,0 -3.672,0 z m 5.084,0 2.985,3.004 -8.069,8.119 0,1.309 1.444,0 0,0 8.031,-8.082 2.969,2.986 0,-7.336 -7.362,0 z m 118.68,2.821 c -4.74,0 -8.22,1.185 -10.53,3.492 -2.12,2.123 -3.19,5.077 -3.19,8.976 0,4.789 1.21,8.159 3.58,10.243 2.14,1.893 5.54,2.886 10.25,2.886 4.24,0 7.4,-0.859 9.53,-2.504 2.62,-2.04 3.96,-5.427 3.96,-10.33 0,-4.385 -0.94,-7.506 -2.73,-9.431 -2.04,-2.179 -5.63,-3.332 -10.87,-3.332 z m -82.855,0.441 c -1.625,0 -3.212,0.317 -4.772,0.955 -1.961,0.808 -3.466,2.303 -4.551,4.567 -0.991,2.054 -1.494,4.425 -1.494,7.13 0,2.799 0.561,5.221 1.668,7.295 1.226,2.288 2.837,3.692 4.883,4.313 1.081,0.305 2.171,0.457 3.274,0.457 l 10.851,0 0,-3.664 -9.969,0.04 0,0 c -1.806,0 -3.288,-0.967 -4.255,-2.717 -0.834,-1.485 -1.241,-3.278 -1.241,-5.351 0,-2.418 0.309,-4.402 0.957,-5.959 0.834,-2.007 2.327,-3.137 4.246,-3.137 l 10.19,0 0,-3.924 -9.785,0 z m 56.675,0 0,6.686 -3.23,0 0,2.968 3.23,0 0,9.391 c 0,0.976 0.1,1.808 0.25,2.494 0.15,0.641 0.47,1.229 1.01,1.787 0.88,0.901 2.32,1.391 3.62,1.391 l 4.24,0 0,-2.711 -1,0 c -1.09,0 -2.03,-0.288 -2.75,-0.889 l 0,-0.01 0,-0.01 c -0.63,-0.602 -0.97,-1.411 -0.97,-2.309 l 0,-9.133 4.96,0 0,-2.968 -4.96,0 0,-6.686 -4.38,0 z m 51.2,0 c -2.53,0 -4.51,0.686 -6.03,2.041 l 0,0 c -1.49,1.331 -2.22,3.024 -2.22,5.211 0,1.95 0.74,3.489 2.28,4.756 1.56,1.278 3.34,1.908 5.41,1.908 l 7.57,0 c 1.61,0 2.86,0.273 3.76,0.908 0.9,0.636 1.37,1.652 1.37,2.86 0,1.071 -0.5,2.002 -1.39,2.617 l 0,0 0,0 C 189.15,36.746 188.19,37 187.11,37 l -14.49,0 0,3.631 17.69,0.03 c 2.19,0 3.93,-0.712 5.33,-2.162 1.41,-1.456 2.1,-3.203 2.1,-5.346 0,-2.091 -0.68,-3.685 -2.07,-4.916 l 0,0 0,0 c -1.36,-1.248 -3.25,-1.888 -5.76,-1.888 l -8.34,0 c -1.05,0 -2.01,-0.34 -2.78,-1.002 l 0,0 0,0 c -0.75,-0.693 -1.15,-1.601 -1.15,-2.607 0,-0.93 0.44,-1.771 1.21,-2.407 0.77,-0.637 1.58,-0.996 2.41,-0.996 l 14.82,0 0,-3.408 -16.87,0 z m -139.307,2.506 -6.623,6.664 9.592,0 0,-3.678 -2.969,-2.986 z m -24.125,0.02 -2.906,2.864 0,3.689 9.56,0 -6.654,-6.553 z M 153.94,19.06 c 2.75,0 4.92,0.894 6.37,2.684 1.29,1.601 1.91,3.736 1.91,6.338 0,2.796 -0.44,4.955 -1.4,6.476 -1.22,1.946 -3.4,2.915 -6.3,2.915 -3.4,0 -5.87,-0.969 -7.21,-2.979 -0.97,-1.456 -1.41,-3.591 -1.41,-6.412 0,-2.477 0.58,-4.54 1.75,-6.137 l 0,0 c 1.42,-1.913 3.57,-2.883 6.29,-2.883 z M 92.439,22.6 c -2.003,0 -3.81,0.889 -5.505,2.773 -1.663,1.85 -2.481,4.011 -2.481,6.572 0,2.341 0.747,4.374 2.27,6.178 l 0,0 c 1.542,1.774 3.277,2.615 5.312,2.615 l 8.465,0 0,-2.564 -5.93,0 c -0.857,0 -1.598,-0.06 -2.232,-0.194 l -0.01,0 -0.01,0 C 91.679,37.813 91.107,37.5 90.631,37.052 l 0,0 0,0 C 90.18,36.601 89.851,36.144 89.67,35.661 l 0,-0.02 0,-0.02 c -0.133,-0.455 -0.205,-0.916 -0.205,-1.539 l 0,-0.5 10.985,0 0,-2.969 -11.022,0 0,-0.5 c 0,-1.363 0.479,-2.621 1.461,-3.462 l 0,0 0,0 c 0.517,-0.435 1.093,-0.734 1.711,-0.875 0.617,-0.161 1.326,-0.235 2.137,-0.235 l 5.743,0 0,-2.931 -8.021,0 z m 12.691,0 0,18.031 4.11,0 0,-14.77 5.5,0 c 0.74,0 1.44,0.259 2.01,0.744 l 0,0 0,0 c 0.3,0.273 0.54,0.569 0.72,0.891 0.2,0.325 0.29,0.703 0.29,1.096 l 0,12.027 4.11,0 0,-12.432 c 0,-1.294 -0.38,-2.465 -1.15,-3.562 0,0 0,0 0,0 -0.67,-0.915 -1.53,-1.485 -2.65,-1.754 l 0,0 0,0 c -0.7,-0.175 -1.94,-0.279 -3.66,-0.279 l -9.28,0 z m -93.788,0.183 -4.9162,4.842 4.9182,4.844 0,-2.885 0,-0.5 12.248,0 1.48,-1.459 -1.648,-1.623 0,0 -12.08,0 0,-3.219 z m 33,0.133 0,3.168 -0.5,0 -11.586,0 -1.563,1.572 1.42,1.428 11.629,0 0.514,0 0,3.4 4.799,-4.826 -4.713,-4.742 z m -31.998,7.168 0,3.369 0,0 3.404,3.352 6.828,-6.723 -10.232,0 z m 11.656,0 -8.252,8.127 -3.404,-3.354 0,8.227 8.164,0 -3.508,-3.457 8.342,-8.217 0,-1.326 -1.342,0 z m 6.342,0 0,1.512 7.793,7.675 0.361,0.356 -3,2.957 7.246,0 0,-7.156 -2.513,2.527 0,0 -0.356,0.356 -8.178,-8.229 0,0 -1.351,0 z m 2.763,0 6.77,6.809 2.867,-2.885 0,-3.924 -9.637,0 z m -5.357,0.361 -1.406,1.385 0,12.254 -3.393,0 4.799,4.725 4.799,-4.725 -3.205,0 0,-0.5 0,-11.568 0,0 -1.594,-1.569 z m -2.406,2.369 -6.918,6.813 3.51,3.457 3.408,0 0,-10.27 z m 5,0.186 0,9.584 3.728,0 3.002,-2.957 L 30.342,33 Z" />
</svg>
