<?xml version="1.0"?>
<!--?xml version="1.0" encoding="UTF-8" standalone="no"?-->
<svg xmlns="http://www.w3.org/2000/svg" viewBox="0 0 140 30" height="30px" width="140px" y="0px" x="0px"> <path d="m 28.032,3.749 v 0 L 28.757,1.66 h 0.587 v 2.535 h -0.35 V 1.911 h -0.01 L 28.173,4.195 H 27.844 L 27.032,1.911 v 0 2.284 h -0.36 V 1.66 h 0.63 z M 24.254,1.66 h 2.049 v 0.302 h -0.849 v 2.233 h -0.35 V 1.962 h -0.85 z m -8.348,27.342 c 1.606,-0.145 3.129,-0.564 4.532,-1.216 l -4.532,-7.847 v 9.063 M 13.435,1.66 C 11.83,1.802 10.306,2.22 8.903,2.872 l 4.532,7.847 V 1.66 m 5.846,14.904 7.85,4.529 c 0.648,-1.396 1.068,-2.92 1.211,-4.529 H 19.281 M 2.21,9.562 C 1.563,10.96 1.144,12.488 1,14.094 h 9.061 L 2.21,9.562 M 1,16.564 c 0.146,1.609 0.563,3.133 1.21,4.529 l 7.851,-4.529 H 1 m 27.342,-2.47 C 28.197,12.488 27.778,10.96 27.131,9.562 l -7.85,4.532 h 9.061 m -5.766,12.459 c 1.287,-0.908 2.41,-2.033 3.318,-3.318 l -7.848,-4.531 4.53,7.849 M 25.894,7.424 C 24.986,6.14 23.863,5.013 22.577,4.108 l -4.53,7.846 7.847,-4.53 M 8.903,27.786 c 1.403,0.651 2.927,1.071 4.532,1.216 V 19.939 L 8.903,27.786 M 20.438,2.872 C 19.036,2.22 17.513,1.803 15.906,1.66 v 9.059 L 20.438,2.872 M 6.765,4.108 C 5.48,5.014 4.355,6.14 3.449,7.424 L 11.296,11.953 6.765,4.108 M 3.449,23.234 c 0.907,1.285 2.031,2.41 3.316,3.318 l 4.531,-7.85 -7.847,4.532 m 87.818,-1.635 -3.646,-8.725 h 1.847 l 2.74,6.909 2.797,-6.909 h 1.776 L 91.636,24.983 H 89.94 Z m -7.711,0.03 h -1.657 v -8.757 h 1.657 v 1.691 h 0.04 c 0.243,-1.203 1.356,-1.815 2.563,-1.815 0.209,0 0.386,0.02 0.575,0.02 v 1.569 c -0.228,-0.09 -0.488,-0.09 -0.715,-0.09 -2.095,0.07 -2.461,1.185 -2.461,3.036 v 4.342 m -5.53,-8.753 h 1.654 v 8.757 h -1.62 V 20.34 h -0.03 c -0.664,1.096 -1.782,1.552 -3.003,1.552 -1.832,0 -2.88,-1.394 -2.88,-3.157 v -5.863 h 1.659 v 5.18 c 0,1.521 0.347,2.634 1.937,2.634 0.68,0 1.604,-0.346 1.956,-1.254 0.313,-0.818 0.331,-1.848 0.331,-2.06 v -4.5 m -10.973,0 v -1.863 l 1.657,-0.525 v 2.388 h 2.025 v 1.203 h -2.025 v 5.624 c 0,0.626 0.49,0.922 1.084,0.922 0.261,0 0.61,-0.03 0.87,-0.103 v 1.272 c -0.382,0.02 -0.749,0.104 -1.13,0.104 -0.403,0 -0.718,-0.02 -1.118,-0.09 -0.262,-0.05 -0.701,-0.191 -0.978,-0.578 -0.298,-0.418 -0.385,-0.451 -0.385,-1.623 v -5.53 H 65.56 V 12.87 h 1.499 m -8.624,1.294 h 0.03 c 0.56,-1.1 1.78,-1.552 2.652,-1.552 0.611,0 3.318,0.159 3.318,2.967 v 6.052 h -1.66 v -5.514 c 0,-1.449 -0.609,-2.233 -2.009,-2.233 0,0 -0.906,-0.05 -1.604,0.646 -0.245,0.243 -0.698,0.63 -0.698,2.339 v 4.762 H 56.81 v -8.757 h 1.625 v 1.29 m -9.5,3.402 c -0.121,1.536 0.507,3.121 2.198,3.121 1.292,0 1.937,-0.504 2.132,-1.776 h 1.744 c -0.264,1.989 -1.797,2.982 -3.892,2.982 -2.809,0 -3.924,-1.987 -3.924,-4.569 0,-2.566 1.288,-4.712 4.063,-4.712 2.618,0.05 3.855,1.709 3.855,4.132 v 0.822 h -6.176 m 4.434,-1.148 c 0.03,-1.469 -0.631,-2.602 -2.236,-2.602 -1.379,0 -2.198,1.168 -2.198,2.602 z M 44.088,12.28 c -0.09,-1.206 -1.379,-2.008 -2.67,-2.008 -3.109,0 -3.684,2.845 -3.684,5.063 0,2.601 0.787,5.059 3.528,5.059 1.341,0 2.563,-0.663 2.771,-2.006 h 1.832 c -0.172,2.112 -2.302,3.506 -4.761,3.506 -3.718,0 -5.198,-3.034 -5.198,-6.559 0,-3.09 1.357,-6.685 5.579,-6.563 2.426,0.069 4.244,1.258 4.432,3.508 h -1.829 m 79.772,9.351 V 9.032 h 2.62 v 7.386 0.03 l 2.59,-3.678 h 2.91 l -3.02,3.835 3.21,5.025 h -3.05 l -2.64,-4.797 v 0.04 4.762 z m -8.3,-7.747 v 0.05 c 0.54,-0.803 1.36,-1.326 2.69,-1.326 0.87,0 2.56,0.643 2.87,1.917 0.14,0.541 0.18,1.102 0.18,1.398 v 5.704 h -2.62 v -5.268 c 0,-0.943 -0.28,-2.005 -1.57,-2.005 -0.82,0 -1.53,0.733 -1.57,2.005 v 5.268 h -2.61 V 12.87 h 2.6 v 1.011 m -7.79,-4.849 h 2.79 v 2.253 h -2.79 z m 0.1,3.842 h 2.62 v 8.755 h -2.62 z m -1.65,6.663 v 2.094 H 98.023 V 9.032 h 2.707 v 10.505 z m 31.5,-4.697 v 0 l 0.71,-2.088 h 0.6 v 2.537 h -0.35 v -2.286 0 l -0.81,2.286 h -0.33 l -0.81,-2.286 v 0 2.286 h -0.35 v -2.537 h 0.63 z m -3.78,-2.088 h 2.05 v 0.304 h -0.85 v 2.233 h -0.35 v -2.233 h -0.85 z"></path></svg>