 <svg 
   xmlns="http://www.w3.org/2000/svg"
   viewBox="0 0 309.9 84.82"
    height="84.82"
   width="309.9" > 
   <path
     d="M 43.19,0 C 37.36,0 31.71,1.141 26.38,3.395 21.23,5.571 16.61,8.684 12.65,12.65 8.683,16.62 5.57,21.24 3.392,26.38 1.139,31.71 0,37.37 0,43.19 c 0,3.33 0.377,6.65 1.131,9.87 0.732,3.13 1.818,6.18 3.229,9.07 2.601,5.32 6.82,10.63 11.59,14.61 3.11,-1.7 4.87,-3.58 5.24,-5.58 0.37,-1.93 -0.48,-4 -2.66,-6.52 -5.17,-5.93 -8.01,-13.55 -8.01,-21.45 0,-18.01 14.65,-32.67 32.67,-32.67 0,0 0.15,0 0.15,0 0,0 0.12,0 0.15,0 18.01,0 32.67,14.66 32.67,32.67 0,7.9 -2.85,15.52 -8.01,21.44 -2.16,2.51 -3.03,4.67 -2.66,6.61 0.39,2.01 2.16,3.86 5.24,5.5 4.77,-3.97 8.99,-9.28 11.59,-14.61 1.41,-2.89 2.5,-5.94 3.23,-9.07 0.75,-3.22 1.13,-6.54 1.13,-9.87 0,-5.82 -1.14,-11.48 -3.4,-16.81 C 81.11,21.24 77.99,16.62 74.03,12.65 70.06,8.684 65.44,5.571 60.3,3.395 54.97,1.141 49.31,0 43.49,0 l -0.15,0 -0.15,0 z m 0,17.47 c -1.22,0 -2.44,0.1 -3.63,0.25 -3.51,0.5 -6.95,1.76 -9.96,3.63 -2.87,1.79 -5.42,4.19 -7.38,6.95 -2.02,2.85 -3.47,6.16 -4.19,9.57 -0.78,3.71 -0.73,7.61 0.14,11.29 0.81,3.38 2.33,6.64 4.41,9.41 0.56,0.75 1.18,1.44 1.84,2.16 0.22,0.24 0.44,0.48 0.67,0.73 0,0 0,0 0,0 0,0 0.1,0.1 0.1,0.1 2.29,2.66 3.46,5.53 3.46,8.52 0,4.52 -2.51,8.67 -6.46,10.8 2.29,1.27 4.71,2.34 7.19,3.17 0.83,0.27 1.67,0.53 2.51,0.75 0.5,-0.31 2.21,-1.59 3.89,-3.91 1.6,-2.21 3.49,-5.88 3.39,-10.8 -0.1,-2.95 -0.66,-5.84 -1.77,-8.56 -1.1,-2.69 -2.68,-5.16 -4.7,-7.34 l 0,0 c -0.15,-0.17 -0.3,-0.34 -0.45,-0.51 -0.76,-0.88 -1.54,-1.79 -2.17,-2.86 -0.78,-1.31 -1.34,-2.69 -1.67,-4.1 -0.52,-2.18 -0.55,-4.49 -0.1,-6.68 0.43,-2.01 1.28,-3.96 2.48,-5.65 1.16,-1.63 2.67,-3.05 4.37,-4.11 1.77,-1.11 3.8,-1.85 5.88,-2.14 0.69,-0.1 1.42,-0.15 2.14,-0.15 l 0.16,0 0.15,0 c 0.73,0 1.45,0.1 2.15,0.15 2.08,0.29 4.11,1.03 5.88,2.14 1.7,1.06 3.21,2.48 4.37,4.11 1.19,1.69 2.05,3.64 2.47,5.65 0.47,2.19 0.44,4.5 -0.1,6.68 -0.33,1.41 -0.9,2.79 -1.67,4.1 -0.63,1.07 -1.41,1.98 -2.17,2.86 -0.15,0.17 -0.3,0.34 -0.45,0.51 l 0,0 c -2.02,2.18 -3.6,4.65 -4.7,7.34 -1.12,2.72 -1.71,5.61 -1.77,8.56 -0.1,4.92 1.79,8.59 3.39,10.8 1.67,2.32 3.39,3.6 3.89,3.91 0.84,-0.22 1.68,-0.48 2.51,-0.75 2.48,-0.83 4.9,-1.9 7.19,-3.17 -3.95,-2.13 -6.46,-6.28 -6.46,-10.8 0,-2.95 1.13,-5.73 3.45,-8.51 0,-0.1 0.1,-0.1 0.1,-0.11 0,0 0,0 0,0 0.23,-0.25 0.45,-0.49 0.67,-0.73 0.66,-0.72 1.28,-1.41 1.84,-2.16 2.08,-2.77 3.6,-6.03 4.41,-9.41 0.87,-3.68 0.92,-7.58 0.14,-11.29 -0.72,-3.41 -2.17,-6.72 -4.19,-9.57 -1.96,-2.76 -4.51,-5.16 -7.38,-6.95 -3.01,-1.87 -6.45,-3.13 -9.96,-3.63 -1.19,-0.17 -2.41,-0.25 -3.63,-0.25 l -0.15,0 -0.17,0 z m 0.16,17.61 c -4.7,0 -8.53,3.82 -8.53,8.52 0,4.71 3.83,8.53 8.53,8.53 4.7,0 8.52,-3.82 8.52,-8.53 0,-4.7 -3.82,-8.52 -8.52,-8.52 z M 306.9,21.56 c -2,-2.01 -4.5,-3.11 -9.3,-3.11 l -8.5,0 c -4.4,0 -6.7,1.01 -13.5,6.6 l 0,-20.578 C 272.4,2.688 269,1.398 265.3,0.6012 c -0.1,0 -0.1,0 -0.1,0 l 0,71.9988 10.4,0 0,-41.87 c 0.7,-0.38 1.5,-0.63 2.1,-1.01 2.9,-1.26 5.3,-1.9 8,-1.9 l 7.1,0 c 3.4,0 4.4,0.38 5.5,1.4 1,1.01 1.4,2.65 1.4,5.31 l 0,38.07 10.4,0 0,-38.83 c 0,-7.46 -1,-10.13 -3.2,-12.23 m -62.3,40.57 c -0.9,0.88 -2.2,1.26 -5.5,1.26 l -7.8,0 c -3.2,0 -6,-0.89 -9.9,-2.78 -0.1,-0.13 -0.4,-0.26 -0.6,-0.38 l 0,-29.48 c 4,-2.02 6.8,-2.91 10.1,-2.91 l 8.2,0 c 3.3,0 4.6,0.38 5.5,1.27 1.5,1.52 1.9,4.43 1.9,16.44 0,12.15 -0.4,15.06 -1.9,16.58 z m -3.1,-43.66 -7.2,0 c -4.5,0 -6.7,1.01 -13.5,6.6 l 0,-6.49 -10.4,0 0,65.94 c 3.7,0 10.4,0 10.4,0 l 0,-18.35 c 6.8,5.57 9,6.58 13.5,6.58 l 7.2,0 c 5.8,0 8.8,-1.01 11,-3.29 2.9,-2.91 4.3,-7.08 4.3,-23.91 0,-16.82 -1.4,-20.87 -4.3,-23.77 -2.2,-2.3 -5.2,-3.31 -11,-3.31 m -72.6,22.28 24.7,0 c 0,-9.11 -0.7,-11.14 -1.5,-12.02 -0.7,-0.63 -1.6,-1.01 -4.7,-1.01 l -12.4,0 c -3.1,0 -3.8,0.25 -4.7,1.01 -0.9,1.01 -1.3,2.78 -1.4,12.02 z m 0,8.22 c 0.1,10.63 0.8,12.78 1.5,13.53 0.8,0.76 1.5,1.02 4.6,1.02 l 14,0 c 2.3,0 3.1,-0.38 3.7,-1.02 0.6,-0.75 0.9,-1.89 1,-6.7 l 10.1,0 c -0.1,8.35 -1,11.39 -3.6,14.17 -1.8,1.64 -4.1,2.65 -8.9,2.65 l -17.5,0 c -5.3,0 -8.4,-0.88 -10.7,-3.16 -3.4,-3.41 -4.4,-7.71 -4.4,-23.91 0,-16.19 1,-20.38 4.4,-23.87 2.3,-2.2 5.4,-3.1 10.7,-3.1 l 14.8,0 c 5.4,0 8.8,0.99 10.8,3 3.4,3.49 4.4,7.66 4.4,23.47 l 0,2.78 c 0,0.76 -0.2,1.14 -1.1,1.14 l -33.8,0 m -17.6,3.92 c 0,11.26 -1,14.3 -3.6,17.08 -1.7,1.52 -4.2,2.65 -8.9,2.65 l -16.4,0 c -5.4,0 -8.6,-0.88 -10.8,-3.16 -3.5,-3.41 -4.5,-7.71 -4.5,-23.91 0,-16.19 1,-20.38 4.5,-23.87 2.2,-2.2 5.4,-3.1 10.8,-3.1 l 16.3,0 c 4.9,0 7.1,0.99 8.8,2.7 2.6,2.6 3.6,6.18 3.6,16.3 l -10.1,0 c -0.2,-6.95 -0.5,-8.22 -1.2,-8.85 -0.6,-0.51 -1.4,-0.89 -3.6,-0.89 l -12.6,0 c -3.1,0 -3.9,0.38 -4.7,1.02 -0.8,1.01 -1.3,2.91 -1.3,16.69 0,13.79 0.5,15.69 1.3,16.7 0.8,0.76 1.6,1.01 4.7,1.01 l 12.6,0 c 2.2,0 3.2,-0.12 3.9,-0.88 0.7,-0.63 1.1,-2.66 1.1,-9.49 l 10.1,0"  /> </svg>