<?xml version="1.0"?>

<svg xmlns="http://www.w3.org/2000/svg" viewBox="0 0 415.3 409.2" height="409.2" width="415.3">
   <path style="opacity:0.25;" d="m 119.9,139.7 v 0 H 100 v 0 c 0,40.1 24.8,74.4 59.9,88.5 l 7.4,-18.5 c -27.8,-11.1 -47.4,-38.3 -47.4,-70 M 269.2,125 h 20.3 C 284.2,91.11 261,63.06 229.8,50.91 l -7.2,18.57 c 23.7,9.26 41.6,30.08 46.6,55.52 M 195.3,41.97 c 21.9,0 42.1,7.23 58.5,19.44 L 265.7,45.38 C 246.1,30.7 221.7,22 195.3,22 145.3,22 102.7,53.12 85.59,97 l 18.61,7.3 c 14.2,-36.47 49.7,-62.33 91.1,-62.33 m 0,195.53 c -26.9,0 -51.4,-11 -69.1,-28.7 L 112.1,223 c 21.3,21.3 50.7,34.5 83.2,34.5 60.1,0 109.6,-45 116.8,-103.1 H 292 c -7.1,47 -47.8,83.1 -96.7,83.1 m 10.7,-70.4 7.6,19.7 c 14.4,-5.6 25.6,-17.5 30.1,-32.4 h -22.9 c -3.3,5.8 -8.6,10.3 -14.8,12.7 m -61.2,-27.4 c 0,7.2 1.5,14.1 4.2,20.4 l 19.4,-8.5 c -1.6,-3.7 -2.5,-7.7 -2.5,-11.9 0,-16.2 13.1,-29.4 29.4,-29.4 V 89.15 c -27.9,0 -50.5,22.65 -50.5,50.55"></path>
     <path d="M 195.3,215.1 V 235 c 47.6,0 87.1,-35 94.2,-80.6 h -20.3 c -6.8,34.6 -37.3,60.7 -73.9,60.7 m 0,-150.77 v 0 -19.91 0 c -40.4,0 -74.9,25.24 -88.8,60.78 l 18.5,7.2 C 136,84.31 163.4,64.33 195.3,64.33 M 292,125 h 20.1 C 310,107.7 304,91.52 295.2,77.37 l -17,10.59 c 6.9,11.1 11.7,23.64 13.8,37.04 m -190.2,43 c -0.5,-1.1 -0.7,-2.2 -1,-3.3 0,0 0,0 0,0 -0.5,-1.1 -0.5,-2.1 -0.8,-3.2 0,-0.5 0,-0.5 0,-0.6 0,-0.9 -0.44,-1.9 -0.53,-2.7 0,-0.5 0,-0.8 -0.46,-1.3 0,-0.7 -0.45,-1.4 -0.45,-2.1 0,-0.7 0,-1.3 -0.46,-1.9 -0.55,-4.3 -0.87,-8.6 -0.87,-13 H 77.28 c 0,4.8 0.46,9.5 0.82,14.2 v 0 c 0,0 0,0.4 0,0.4 0,1.3 0.46,2.5 0.55,3.8 0,0.5 0,0.7 0,1.1 0,1 0.46,2 0.55,3 0,0.6 0,1.1 0.46,1.7 0,0.8 0.45,1.6 0.54,2.4 0,0.7 0.46,1.4 0.51,2.2 0,0.6 0.45,1.2 0.5,1.8 0,0.9 0.45,1.7 0.68,2.6 0,0.4 0,0.7 0.46,1 v 0 c 1.37,4.6 3.01,9 4.93,13.3 l 18.22,-8 c -1.5,-3.6 -2.9,-7.3 -4,-11.1 z M 213.6,92.62 206,112.3 c 6.2,2.5 11.5,6.9 14.8,12.7 h 22.9 C 239.2,110.2 228,98.19 213.6,92.62 m -54,82.88 c 9.1,9.1 21.8,14.8 35.7,14.8 v -21.1 c -8.1,0 -15.5,-3.4 -20.8,-8.7 z m 35.7,17.2 c -29.2,0 -53,-23.8 -53,-53 0,-29.2 23.8,-53.01 53,-53.01 24.1,0 44.5,16.21 50.9,38.31 h 20.6 c -6.9,-33.2 -36.3,-58.22 -71.5,-58.22 -40.2,0 -72.9,32.73 -72.9,72.92 0,40.2 32.7,73 72.9,73 35.2,0 64.6,-25.1 71.5,-58.3 h -20.6 c -6.4,22.1 -26.8,38.3 -50.9,38.3 m 125.1,146.1 h 38.2 v 16 h -38.2 v 31 h -17.7 v -80.1 h 61 v 16 h -43.3 z m -87.5,-0.6 h 38.3 v 15.9 h -38.3 v 17.1 h 44.2 v 15.9 h -62 v -81.3 h 61.4 v 15.8 h -43.6 z m -63.8,-32.5 h 17.7 v 80.1 h -17.7 v -32.2 h -32.5 v 32.2 H 119 v -80.1 h 17.6 v 31.7 h 32.5 z M 22,346 v 0 c 0,-22.8 17.16,-41.4 41.77,-41.4 15.11,0 24.15,5 31.59,12.3 l -11.23,13 c -6.16,-5.7 -12.46,-9.1 -20.48,-9.1 -13.5,0 -23.23,11.3 -23.23,24.9 v 0 c 0,13.8 9.5,25.2 23.23,25.2 9.16,0 14.77,-3.6 21.07,-9.4 l 11.19,11.4 C 87.69,381.7 78.56,387.2 63.09,387.2 39.51,387.2 22,369 22,346 m 367.3,-31.1 v 0 l -3.1,-4.4 v 6.3 h -1.1 v -8.2 h 1.2 l 2.9,4.5 2.9,-4.5 h 1.2 v 8.2 h -1.1 v -6.3 z m -8.6,1.9 h -1.2 v -7.1 h -2.6 v -1.1 h 6.4 v 1.1 h -2.6 z"></path>
   </svg>