<?xml version="1.0"?>
<!--?xml version="1.0" encoding="UTF-8" standalone="no"?-->
<svg xmlns:dc="http://purl.org/dc/elements/1.1/" xmlns:cc="http://creativecommons.org/ns#" xmlns:rdf="http://www.w3.org/1999/02/22-rdf-syntax-ns#" xmlns:svg="http://www.w3.org/2000/svg" xmlns="http://www.w3.org/2000/svg" viewBox="0 0 832.6 263.8" version="1.1" id="svg2" height="263.8" width="832.6">
  <defs id="defs4"></defs>
  <path d="m 213.1,148.8 -16.8,-16.3 c 0,0 -3.9,-2.9 -8.3,1.3 0,0 -16.2,15.8 -30,28.5 -13.1,11.9 -26.2,24.2 -31.1,27.7 0,0 -21.2,21.7 -48.06,0.5 0,0 -36.59,-28.7 -72.791,-78 l -1.183,5.8 c 0,0 -1.351,4.8 1.858,9.3 0,0 28.266,41.7 63.056,71.6 0,0 17.34,18.5 39.52,22.5 0,0 18.3,5 35.7,-9 8.5,-6.5 27,-23.8 42.5,-38.5 14.3,-13.6 25.6,-25.4 25.6,-25.4 M 245,183 230.2,166.7 c 0,0 -1.8,-2.4 -5.3,0.6 -3.5,3 -49.1,47.4 -66.5,59.4 -10,8 -20.7,12 -32.6,13 -8.9,1 -18.5,-1 -28.74,-5 -11.14,-5 -28.15,-19 -44.08,-35.2 C 41.72,187.8 30.52,174.9 21.11,162.4 14.75,153.9 8.616,145.4 4,138 c 0,0 0,10.3 4.504,19 0,0 18.636,35.6 55.006,68.7 3.55,4 34.57,35 64.69,34 0,0 28.1,2 53.7,-19 4.2,-4 49.1,-42.5 63.1,-57.7 M 50.95,115 67.78,131.3 c 0,0 3.87,2.9 8.3,-1.3 0,0 16.15,-15.8 29.92,-28.5 13.1,-11.87 26.2,-24.17 31.1,-27.67 0,0 21.2,-21.9 48.1,-0.5 0,0 36.7,28.67 72.8,77.97 l 1.2,-5.8 c 0,0 1.3,-4.8 -1.9,-9.3 0,0 -28.2,-41.67 -63,-71.57 0,0 -17.4,-18.4 -39.6,-23 0,0 -18.3,-4.3 -35.6,9.3 -8.5,6.7 -27.07,24 -42.51,38.7 C 62.25,103.2 50.95,115 50.95,115 M 18.97,80.83 33.76,97.13 c 0,0 1.86,2.4 5.33,-0.6 3.47,-3 49.13,-47.3 66.51,-59.8 10,-7.1 20.7,-11.7 32.5,-12.5 9,-0.7 18.6,0.5 28.8,4.9 11.2,5 28.2,18.7 44.1,35.3 11.2,11.6 22.5,24.5 31.9,36.97 6.3,8.5 12.5,17 17.1,24.4 0,0 0,-10.3 -4.5,-19 0,0 -18.7,-35.57 -55,-69.17 -3.6,-3.2 -34.6,-34.302 -64.7,-33.602 0,0 -28.1,-1.6 -53.72,19.402 -4.16,3.5 -49.08,42.2 -63.11,57.4 m -5.41,10.3 c 0,0 25.95,34.27 54.54,56.97 0,0 10.83,9.3 22.43,-1.2 C 102.1,136.4 150,92.93 150,92.93 c 0,0 17.9,-17.9 38.1,-0.2 0,0 42.3,37.67 65.5,69.27 0,0 1.4,1.1 0,3.1 -1.1,2.1 -3.4,7.6 -3.4,7.6 0,0 -25.4,-32.9 -54.8,-57.2 0,0 -11.4,-8.7 -21.3,0.5 -9.8,9.2 -56.4,51.8 -63.8,57.2 -7.4,5.4 -19.66,11.1 -37,-4.4 -13.56,-12.1 -49.03,-45.6 -62.99,-66.7 0,0 -1.257,-1.2 -0.25,-3.47 1.44,-2.7 3.5,-7.5 3.5,-7.5 M 354.5,222.7 c -13.8,0 -25,-11 -25,-25.2 0,-14 11.2,-25.3 25,-25.3 9.3,0 17.4,5.2 21.7,12.8 l 10,0 c -4.9,-12.7 -17.2,-21.8 -31.6,-21.8 -18.8,0 -34,15.3 -34,34.2 0,19.3 15.2,34.3 34,34.3 14.5,0 27,-9 31.8,-22 l -9.9,0 c -4.2,8 -12.5,13 -22,13 m 468,-33.4 c -5.5,-7.5 -14.7,-6.8 -14.7,-6.8 -5.3,0 -10.3,2.3 -13.5,5 -5,4.4 -6.6,11 -6.6,11 -4.2,16.2 3.3,26.2 3.3,26.2 3.7,5 11.1,7 16.9,7 10.1,1 17.5,-3 17.5,-3 l 0,-8 c -29.5,11 -29.8,-11 -29.8,-11 l 31.8,0 c 0.3,-9.9 -1.9,-16.3 -4.9,-20.4 z m -26.1,12.4 c 0,0 2,-11 11.4,-11 9.3,0 9.7,11 9.7,11 l -21.1,0 M 731.5,184.4 C 719.4,178.6 711,187 711,187 l 0,-27.2 -9.6,0 0,71.9 7.3,0 1.3,-5 c 4.2,5 11.7,6 11.7,6 6.5,0 11.5,-3 15,-7 4.1,-4 6.2,-11 6.5,-14 0.9,-7.1 0.7,-21.3 -11.7,-27.3 z m -9.1,39.3 c -8.6,0 -11.5,-5 -11.5,-5 l 0,-23.2 c 0,0 4.2,-4.7 11.3,-4.7 7,0 10.3,5.5 11.2,13.7 0.9,8.2 -1.2,19.2 -11,19.2 m -52.2,-41.1 c -13.6,0 -24.7,11.1 -24.7,24.8 0,13.3 11.1,24.3 24.7,24.3 13.6,0 24.7,-11 24.7,-24.3 0,-13.7 -11.1,-24.8 -24.7,-24.8 z m 0,41.1 c -9,0 -16.3,-7 -16.3,-16.3 0,-9.1 7.3,-16.4 16.3,-16.4 9,0 16.3,7.3 16.3,16.4 0,9.3 -7.3,16.3 -16.3,16.3 m -63.9,-10 -20.3,-48.6 -12.8,0 0,66.6 9.6,0 0,-50.9 21.1,50.9 4.7,0 21.1,-50.5 0,50.5 9.7,0 0,-66.6 -12.7,0 -20.4,48.6 m -71.2,-29.8 c -11.3,-4.1 -23.4,1.5 -23.4,1.5 l 0,8.7 c 0,0 25,-11.2 25,8.5 l -0.1,0.5 c 0,0 -13.7,-4.1 -21.2,0.5 0,0 -11.8,6.1 -6.5,20.1 0,0 4.1,9 14.8,9 3.7,0 8.1,-2 13.3,-5 l 0.8,4 8.1,0 0,-30.7 c 0,0 1,-12.7 -10.8,-17.1 z m 1.2,35.8 c 0,0 -4.3,4 -12.6,4 0,0 -7.7,0 -6.5,-8 1.1,-8 11,-7 19.1,-5 l 0,9 M 489.6,183 c 0,0 -11.5,-3 -18.9,6.1 l -1.5,-5.6 -7.2,0 0,47.2 9.1,0 0,-31.6 0,-0.1 c 1.8,-2.9 6.7,-9.5 15.3,-8.1 0,0 5,0.8 5,9.1 0,8.7 0,30.7 0,30.7 l 9.5,0 0,-30.4 c 0,0 1.3,-14.2 -11.3,-17.3 m -68,0 c 0,0 -11.1,-2.9 -18.4,5.6 l 0,-29 -9.5,0 0,71.1 9.5,0 0,-32 c 1.6,-3.1 6.2,-9.6 15.2,-7.8 0,0 5,0.8 5,9.1 0,8.7 0,30.7 0,30.7 l 9.5,0 0,-30.4 c 0,0 1.2,-14.2 -11.3,-17.3 m 328.8,-7.6 9.5,0 0,-10.4 -9.5,0 0,10.4 z m 19.8,56.3 9,0 0,-72.1 -9,0 0,72.1 z m -19.8,0 9.5,0 0,-47.8 -9.5,0 0,47.8 z m -307.6,-56.3 9.4,0 0,-10.4 -9.4,0 0,10.4 z m 0,56.3 9.4,0 0,-47.8 -9.4,0 0,47.8 z m 354,-187.37 0.5,-24.6 -12.5,0 c 0,0 0,11 0.1,24.6 l -15.4,0 0,11.2 15.5,0 c 0.2,8.6 -0.1,17.4 -0.6,23.5 -1.1,14 -3.3,19.7 -3.3,19.7 -6.1,23.17 -24.2,33.37 -24.2,33.37 l 9,8.5 c 32.2,-20.7 30.3,-66.67 30.3,-66.67 l 0.4,-18.4 20,0 -2.4,60.77 c 0,7.6 -7.4,7.2 -7.4,7.2 l -13.9,0 2.3,12 13.2,0 c 17,0 17.6,-17.3 17.6,-17.3 l 2.6,-73.87 -31.8,0 M 759,121.3 770.4,116.9 C 768,111 756.6,85.83 756.6,85.83 l -10.5,4.5 c 2.9,6.2 5.8,13.07 8.1,18.77 -5.2,1.2 -18.9,4.4 -25.6,6.6 0,0 3.3,-5.4 9.3,-22.17 5,-13.7 5.9,-17.8 7.9,-20.4 l 27.2,0 0,-11.2 -59.2,0 0,11.2 19.1,0 c -0.9,3.5 -4.1,16.1 -9.2,28.27 -2.9,6.9 -6,13.5 -10,18.5 l 2.8,8.8 c 0,0 29.9,-9.1 41.4,-10.2 0.7,1.8 1.1,2.8 1.1,2.8 m -40.1,-79.17 50,0 0,-11.3 -50,0 0,11.3 z m -50.5,37.8 c 1,-1.8 1.9,-3.6 2.7,-5.5 l -11,-1.8 c 1.7,-0.9 3.3,-1.9 4.8,-2.9 21.9,-14.4 29.1,-30.5 29.1,-30.5 l 0,-9.6 -37.7,0 c 1.5,-2.4 2.9,-4.9 4,-7.3 l -10.9,-4.2 c 0,0 -8.9,19.4 -26.4,32.6 l 9.5,7.3 c 0,0 8.3,-7.7 16.4,-17.9 l 32.2,0 c -4.4,7 -10.8,12.8 -17.6,17.6 l -14.2,-11.8 -7.5,7.8 12,10 c -14.6,8.1 -28.4,11.7 -28.4,11.7 l 7.2,9.2 c 10.4,-4 18.2,-7.1 25,-10.6 -1.8,3.1 -6.4,10.2 -14.8,17.9 -5.1,4.7 -12,9.77 -20,14.07 l 8.6,8.6 c 0,0 17.1,-8.8 29.7,-24.07 l 24.2,0 c -2.6,11.57 -10,19.77 -18.9,25.37 l -13,-12.7 -8.2,6.7 c 0,0 7.3,6.9 11.2,11.2 -17.5,7.3 -36.1,7.8 -36.1,7.8 l 4.9,9.7 c 23.5,-1.8 39.4,-8.3 50.5,-16.7 18.4,-14 22.8,-31.67 22.8,-31.67 l 0,-10.3 -30.1,0 m -45.9,18 7.7,-9 -19.5,-16.6 0,-5.8 16.4,0 0,-10.5 -16.4,0 0,-16.9 c 7.6,-1.8 16.8,-3.6 16.8,-3.6 l -2.4,-11.2 c -9.9,3.2 -42.9,6.7 -42.9,6.7 l 1.7,11.1 15.3,-2.5 0,16.4 -18.5,0 0,10.5 17.3,0 c -1.4,4.4 -7.3,22.2 -19.4,39.07 l 8.5,9.2 c 0,0 7,-11.3 12.1,-22.77 l 0,46.97 11.5,0 0,-52.37 11.8,11.3 m -96,5.37 9.1,-7.17 c -4.8,-5.6 -13.5,-15.4 -13.5,-15.4 l -8.5,6.4 c 7.4,8.1 12.9,16.17 12.9,16.17 m -15.7,1.4 0,-24.47 25.4,0 0,-10.5 -25.4,0 0,-15.4 27.6,0 0,-10.5 -66.4,0 0,10.5 27.7,0 0,15.4 -25.6,0 0,10.5 25.6,0 0,24.47 -29.6,0 0,10.5 70.1,0 0,-10.5 -29.4,0 m 47.6,-81.07 -105.3,0 0,111.77 105.3,0 0,-111.77 z m -105.3,0 z m 93.7,101.17 -82.4,0 0,-90.27 82.4,0 0,90.27 z m -122,-82.67 -46,0 0,-22.3 -12.1,0 0,22.3 -45.6,0 0,62.87 45.6,0 0,34.3 12.1,0 0,-34.3 46,0 0,-62.87 z m -58.1,51.8 -33.8,0 0,-40.7 33.8,0 0,40.7 z m -33.8,0 z m 80.1,0 -34.2,0 0,-40.7 34.2,0 0,40.7 z" id="path3173"></path>
  <metadata id="metadata4266">
    <rdf:rdf>
      <cc:work rdf:about="">
        <dc:title></dc:title>
      </cc:work>
    </rdf:rdf>
  </metadata>
</svg>
