<?xml version="1.0"?>
<!--?xml version="1.0" encoding="UTF-8" standalone="no"?-->
<svg xmlns="http://www.w3.org/2000/svg" viewBox="0 0 168.21 96.48" height="96.48" width="168.21">

  <path d="m 116.04,86.65 h -1.11 l 0.73,-0.92 c -1,-0.9 -1.75,-1.38 -1.75,-1.38 l -0.9,0.9 1.26,1.4 h -1.71 v -2.47 h 3.42 V 82.7 h -3.42 v -1.83 h 3.42 V 79.4 h -8.85 v 1.47 h 3.11 v 1.83 h -3.11 v 1.48 h 3.11 v 2.47 h -3.16 v 1.47 h 8.96 z m 1.5,-10.19 h -10.46 v 1.47 h 9.74 v 10.7 c 0,0.53 -0.43,0.96 -0.96,0.96 H 106.3 V 76.46 h -2.32 v 14.6 h 13.06 c 1.16,0 2.1,-0.94 2.1,-2.1 V 78.05 c 0,-0.88 -0.72,-1.59 -1.6,-1.59 M 99.18,84.8 c 0,0.53 -0.43,0.96 -0.95,0.96 h -2.98 v -6.02 h 3.93 z m 0.92,-6.54 H 95.25 V 76.2 h -2.51 v 2.06 h -3.16 v 1.48 h 3.16 v 6.02 h -3.93 v -7.5 h -2.52 v 8.97 h 6.45 v 4.25 h 0.41 c 1.41,0 2.05,-0.66 2.1,-1.74 v -2.51 h 4.27 c 1.17,0 2.13,-0.92 2.18,-2.09 v -5.37 c -0.1,-0.84 -0.74,-1.51 -1.6,-1.51 m 34.18,6.42 h 2.55 V 83.2 h -2.85 v -2.26 h 2.85 v -1.48 h -1.85 l 1.69,-2.11 -1.6,-1.15 -2.12,3.26 h -1.51 l 1.24,-0.89 c -1.07,-1.47 -1.96,-2.37 -1.96,-2.37 l -1.19,0.7 1.52,2.56 h -1.86 v 1.48 h 2.46 v 2.26 h -2.46 v 1.48 h 2.19 l -2.59,6.62 h 1.12 c 0.58,0 1.18,-0.4 1.42,-0.94 l 1.58,-3.95 2.18,4.89 h 2.16 z m -8.12,-1.12 h -1.79 v -1.81 h 1.79 z m 0,3.28 -1.78,0.5 v -2.3 h 1.79 z m 3.11,-0.88 -1,0.28 v -8.26 c 0,-0.91 -0.55,-1.47 -1.24,-1.47 h -5.26 v 1.47 h 4.4 v 2.29 h -1.79 v -1.52 h -2 v 9.15 l -0.88,0.25 v 1.66 l 4.66,-1.31 v 2.98 h 0.83 c 0.69,0 1.13,-0.41 1.28,-1.19 v -2.38 l 1,-0.28 v -1.67 m 13.1,-6.81 c -1.16,-1.53 -2.35,-2.36 -2.35,-2.36 l -1.15,0.83 1.94,2.67 z m 7.24,2.33 h 2.33 v 1 h -2.33 z m 2.33,0 z m 0,3.41 h -2.33 v -1 h 2.33 z m -4.34,-2.41 h -2.34 v -1 h 2.34 z m 0,2.41 h -2.34 v -1 h 2.34 z m 0.68,-5.45 c -0.95,-0.65 -2.02,-1.14 -2.02,-1.14 l -0.8,1.01 0.8,0.7 h -3.01 v 8.85 h 0.62 c 0.64,0 1.39,-0.43 1.39,-1.33 v -1.22 h 2.34 v 2.55 h 0.62 c 0.78,0 1.33,-0.4 1.39,-1.34 v -1.21 h 2.33 v 0.59 c 0,0.3 -0.32,0.48 -0.59,0.48 h -0.93 l 0.42,1.48 h 1.45 c 0.98,0 1.77,-0.79 1.77,-1.77 v -5.87 c 0,-0.67 -0.54,-1.21 -1.21,-1.21 h -2.34 l 3.08,-1.86 v -1.69 h -10.45 v 1.47 h 7.64 z M 143,89.55 c -0.53,0 -0.96,-0.43 -0.96,-0.96 v -7.64 h -3.32 v 1.47 h 1.1 v 6.75 c 0,1.15 1.02,1.85 1.79,1.85 h 12.68 V 89.55 H 143 M 51.09,88.77 c -0.55,0.77 -1.24,1.4 -2.07,1.86 -1,0.58 -2.11,0.85 -3.32,0.85 -1.76,0 -3.28,-0.62 -4.54,-1.86 -1.26,-1.26 -1.88,-2.77 -1.88,-4.56 0,-1.9 0.71,-3.49 2.13,-4.77 1.24,-1.11 2.67,-1.67 4.29,-1.67 1.16,0 2.26,0.29 3.29,0.87 0.85,0.47 1.55,1.09 2.09,1.85 l -2.31,1.65 c -0.14,-0.33 -0.33,-0.63 -0.56,-0.9 -0.64,-0.77 -1.46,-1.15 -2.45,-1.15 -0.97,0 -1.77,0.4 -2.43,1.15 -0.64,0.77 -0.97,1.76 -0.97,2.97 0,1.23 0.33,2.24 0.96,3 0.64,0.77 1.45,1.15 2.43,1.15 0.97,0 1.79,-0.38 2.44,-1.16 0.24,-0.28 0.44,-0.59 0.58,-0.94 l 2.32,1.66 m -39.31,2.58 c 2.95,0 3.91,-1.61 3.91,-1.61 l 0.15,1.44 H 18.5 V 78.87 h -3.09 v 7.46 c 0,1.59 -0.91,2.9 -2.66,2.9 -1.84,0 -2.56,-1.62 -2.56,-2.9 v -7.46 h -3.1 v 7.24 c 0,3.75 2.46,5.21 4.69,5.24 M 27.69,78.71 c -2.94,0 -3.91,1.59 -3.91,1.59 l -0.15,-1.43 h -2.66 v 12.31 h 3.1 v -7.46 c 0,-1.59 0.91,-2.9 2.66,-2.9 1.83,0 2.35,1.62 2.35,2.9 v 7.46 h 2.87 v -7.24 c 0,-3.75 -2.03,-5.2 -4.26,-5.23 m 30.19,2.03 c -0.99,0 -1.81,0.4 -2.46,1.2 -0.66,0.8 -0.99,1.84 -0.99,3.09 0,1.28 0.32,2.33 0.97,3.12 0.66,0.79 1.47,1.19 2.47,1.19 1,0 1.82,-0.4 2.48,-1.2 0.66,-0.81 0.99,-1.85 0.99,-3.11 0,-1.27 -0.33,-2.3 -0.97,-3.1 -0.65,-0.79 -1.47,-1.19 -2.49,-1.19 z m -0.22,-2.15 c 1.15,0 2.24,0.3 3.25,0.87 1.02,0.58 1.81,1.36 2.38,2.34 0.57,1 0.86,2.07 0.86,3.2 0,1.15 -0.29,2.24 -0.87,3.25 -0.57,1 -1.35,1.79 -2.34,2.34 -0.99,0.58 -2.08,0.85 -3.27,0.85 -1.76,0 -3.26,-0.62 -4.5,-1.87 -1.24,-1.24 -1.85,-2.75 -1.85,-4.54 0,-1.91 0.7,-3.5 2.09,-4.77 1.24,-1.11 2.65,-1.67 4.25,-1.67 M 34.28,91.18 h 2.9 V 78.87 h -2.9 z M 79.59,78.77 c -1.83,0 -3.11,0.72 -4.19,1.91 -0.73,-1.32 -1.93,-1.87 -3.2,-1.91 -2.6,-0.1 -3.74,1.59 -3.74,1.59 l -0.1,-1.49 h -2.8 v 12.31 h 3.12 v -7.43 c 0,-1.58 0.83,-2.88 2.44,-2.88 1.68,0 2.17,1.62 2.17,2.89 v 7.42 h 2.82 v -7.27 0 c 0,-2.07 0.98,-3.06 2.41,-3.06 1.68,0 2.16,1.62 2.16,2.89 v 7.42 h 2.83 v -7.21 c 0,-3.73 -1.88,-5.15 -3.92,-5.2 M 35.71,77.58 c -1.01,0 -1.68,-0.73 -1.68,-1.61 0,-0.95 0.7,-1.67 1.71,-1.67 1.03,0 1.67,0.72 1.7,1.67 0,0.88 -0.67,1.61 -1.7,1.61 v 0 M 35.71,59.39 c -1.01,0 -1.68,-0.74 -1.68,-1.63 0,-0.95 0.7,-1.65 1.71,-1.65 1.03,0 1.67,0.7 1.7,1.65 0,0.89 -0.67,1.63 -1.7,1.63 v 0 M 34.28,73 h 2.9 V 60.65 h -2.9 z M 46.42,60.53 c -2.96,0 -3.91,1.6 -3.91,1.6 L 42.36,60.69 H 39.69 V 73 h 3.09 v -7.47 c 0,-1.58 0.93,-2.9 2.67,-2.9 1.84,0 2.37,1.63 2.37,2.9 V 73 h 2.86 v -7.25 c 0,-3.75 -2.04,-5.21 -4.26,-5.22 M 19.9,69.97 c -0.69,0.98 -1.55,1.76 -2.62,2.36 -1.25,0.71 -2.65,1.08 -4.17,1.08 -2.24,0 -4.15,-0.8 -5.73,-2.37 C 5.79,69.46 5,67.56 5,65.3 c 0,-2.41 0.89,-4.43 2.69,-6.02 1.57,-1.42 3.37,-2.11 5.41,-2.11 1.47,0 2.86,0.36 4.16,1.09 1.07,0.61 1.95,1.38 2.63,2.34 l -2.66,1.91 c -0.19,-0.46 -0.46,-0.85 -0.77,-1.22 -0.89,-1.02 -2.01,-1.53 -3.39,-1.53 -1.35,0 -2.46,0.51 -3.36,1.55 -0.89,1.04 -1.33,2.36 -1.33,3.98 0,1.67 0.44,3 1.32,4.04 0.88,1.03 1.99,1.54 3.35,1.54 1.36,0 2.48,-0.52 3.38,-1.57 0.33,-0.37 0.6,-0.79 0.8,-1.25 0,0 1.98,1.42 2.67,1.92 m 1.11,-14.79 h 3.11 v 6.95 c 0,0 1.16,-1.6 3.57,-1.6 2.23,0 4.26,1.48 4.26,5.22 v 7.27 h -2.83 v -7.47 c 0,-1.29 -0.51,-2.91 -2.35,-2.91 -1.74,0 -2.64,1.31 -2.65,2.91 v 7.47 H 21.01 V 55.18 m 40.39,14.5 c -0.68,0.72 -1.58,1.06 -2.67,1.06 -1.03,0 -1.88,-0.37 -2.56,-1.1 -0.66,-0.73 -0.99,-1.68 -0.99,-2.85 0,-1.08 0.34,-2 1.01,-2.74 0.69,-0.74 1.54,-1.09 2.56,-1.09 1.09,0 1.97,0.35 2.65,1.08 0.67,0.74 1.01,1.68 1.01,2.81 0,1.14 -0.34,2.09 -1.01,2.83 z m 0.83,-8.96 v 1.42 c -1.18,-1.16 -2.52,-1.75 -4.03,-1.75 -1.73,0 -3.17,0.62 -4.32,1.83 -1.16,1.22 -1.74,2.76 -1.74,4.6 0,1.84 0.58,3.41 1.74,4.65 1.16,1.23 2.62,1.83 4.41,1.83 1.42,0 2.72,-0.54 3.94,-1.65 v 1.29 h 3 V 60.72 h -3 m 71.56,0.36 c -1.5,1.5 -3.92,1.5 -5.42,0 -1.44,-1.44 -2.7,-2.71 -2.7,-2.71 l 4.09,-4.09 -5.15,-5.15 -4.09,4.1 -4.1,-4.1 -5.15,5.15 4.1,4.09 c 0,0 -1.27,1.27 -2.71,2.71 -1.5,1.5 -3.93,1.5 -5.42,0 -1.49,-1.49 -1.49,-3.92 0,-5.41 1.57,-1.57 13.22,-13.33 13.22,-13.33 0,0 11.76,11.76 13.33,13.33 1.49,1.49 1.49,3.92 0,5.41 z M 107.24,18.82 c -1.49,-1.49 -1.49,-3.92 0,-5.41 1.49,-1.5 3.92,-1.5 5.42,0 1.44,1.44 2.71,2.71 2.71,2.71 l -4.1,4.09 5.15,5.15 4.1,-4.1 4.09,4.1 5.15,-5.15 -4.09,-4.09 c 0,0 1.26,-1.27 2.7,-2.71 1.5,-1.5 3.92,-1.5 5.42,0 1.49,1.49 1.49,3.92 0,5.41 -1.57,1.57 -13.33,13.33 -13.33,13.33 0,0 -11.65,-11.76 -13.22,-13.33 z m 18.42,18.43 c 0,0 12.07,-12.07 13.28,-13.28 4.34,-4.34 4.34,-11.37 0,-15.71 -4.34,-4.34 -11.38,-4.34 -15.72,0 -1.7,1.7 -2.7,2.71 -2.7,2.71 0,0 -1.01,-1.01 -2.71,-2.71 -4.35,-4.34 -11.38,-4.34 -15.72,0 -4.34,4.34 -4.34,11.37 0,15.71 1.21,1.21 13.28,13.28 13.28,13.28 0,0 -12.07,12.07 -13.28,13.27 -4.34,4.34 -4.34,11.37 0,15.71 4.34,4.34 11.37,4.34 15.72,0 1.7,-1.7 2.71,-2.71 2.71,-2.71 0,0 1,1.01 2.7,2.71 4.34,4.34 11.38,4.34 15.72,0 4.34,-4.34 4.34,-11.37 0,-15.71 -1.21,-1.2 -13.28,-13.27 -13.28,-13.27 z m 29.15,2.7 c -1.5,1.5 -3.92,1.5 -5.42,0 -1.21,-1.21 -2.71,-2.7 -2.71,-2.7 0,0 1.5,-1.5 2.71,-2.71 1.5,-1.5 3.92,-1.5 5.42,0 0.75,0.75 1.12,1.73 1.12,2.71 0,0.98 -0.37,1.96 -1.12,2.7 z m 5.15,-10.56 c -4.34,-4.34 -11.38,-4.34 -15.72,0 -1.24,1.24 -2.71,2.71 -2.71,2.71 l -4.09,-4.1 -5.15,5.15 4.1,4.1 -4.1,4.09 5.15,5.15 4.09,-4.1 c 0,0 1.47,1.47 2.71,2.71 4.34,4.34 11.38,4.34 15.72,0 2.17,-2.17 3.25,-5.01 3.25,-7.85 0,-2.85 -1.08,-5.69 -3.25,-7.86 z M 91.53,39.95 c -1.5,1.5 -3.93,1.5 -5.42,0 -0.75,-0.74 -1.12,-1.72 -1.12,-2.7 0,-0.98 0.37,-1.96 1.12,-2.71 1.49,-1.5 3.92,-1.5 5.42,0 1.21,1.21 2.71,2.71 2.71,2.71 0,0 -1.5,1.49 -2.71,2.7 z m 11.95,6.54 5.15,-5.15 -4.1,-4.09 4.1,-4.1 -5.15,-5.15 -4.09,4.1 c 0,0 -1.47,-1.47 -2.71,-2.71 -4.34,-4.34 -11.38,-4.34 -15.72,0 -2.17,2.17 -3.25,5.01 -3.25,7.86 0,2.84 1.08,5.68 3.25,7.85 4.34,4.34 11.38,4.34 15.72,0 1.24,-1.24 2.71,-2.71 2.71,-2.71 l 4.09,4.1"></path>

</svg>
