<?xml version="1.0"?>
<!--?xml version="1.0" encoding="UTF-8" standalone="no"?-->
<svg xmlns="http://www.w3.org/2000/svg" height="286.18" width="1032.9" version="1.0" viewBox="0 0 1032.9 286.18">

  <path d="m 208.49,2 4,15.62 c 26.14,6.35 29.78,21.06 29.78,21.06 4.35,17.07 -21.43,36.68 -21.43,36.68 -26.15,19.43 -67,29.59 -67,29.59 -3.52,0.88 -6.98,1.64 -10.36,2.29 2.53,-19.79 6.19,-31.7 6.19,-31.7 9.98,-31.78 24.69,-31.78 24.69,-31.78 6.72,0 11.8,5.63 11.8,5.63 l 12.17,-3.27 C 178.9,4.36 151.66,4.36 151.66,4.36 c -27.23,0 -46.48,41.04 -46.48,41.04 -9.712,20.8 -14.522,45.85 -16.912,65.56 -4.76,-0.33 -7.42,-0.74 -7.42,-0.74 -31.96,-5.08 -36.5,-21.97 -36.5,-21.97 C 40.898,75 56.328,59.56 56.328,59.56 71.398,44.85 98.638,33.23 98.638,33.23 L 95.548,21.25 C 48.888,39.04 22.918,65.73 22.918,65.73 -3.4119,92.61 2.5881,116.94 2.5881,116.94 c 7.08,29.23 54.8299,39.4 54.8299,39.4 9.36,1.92 19.18,2.89 28.94,3.22 2.84,49.84 18.822,83.76 18.822,83.76 19.25,40.86 46.48,40.86 46.48,40.86 22.7,0 40.67,-30.15 40.67,-30.15 17.44,-29.96 23.06,-76.26 23.06,-76.26 l -21.78,5.44 c -2.91,24.88 -9.81,40.13 -9.81,40.13 -6.9,15.26 -15.07,15.26 -15.07,15.26 -11.62,0 -19.61,-27.79 -19.61,-27.79 -5.3,-18.19 -7.08,-41.43 -7.68,-55 14.38,-2.21 23.84,-4.55 23.84,-4.55 59.92,-15.07 97.5,-46.12 97.5,-46.12 C 300.19,73.91 292.75,44.85 292.75,44.85 288.03,25.79 264.96,14.53 264.96,14.53 242.45,3.27 208.49,2 208.49,2 Z m 212.45,6.36 c -0.55,0.54 -1.27,0.72 -1.27,0.72 l 2.36,5.45 h -1.64 l 1.64,5.26 c 1.09,6 1.09,17.8 1.09,17.8 l -0.73,3.09 -0.91,3.26 0.55,6 c -0.18,2.36 -2.9,5.08 -2.9,5.08 v 2.9 c -10.54,3.82 -11.99,5.81 -11.99,5.81 l -5.63,1.64 c -2.54,1.64 -7.81,3.63 -7.81,3.63 -3.45,3.45 -7.08,4 -7.08,4 l -0.54,0.36 h -0.55 v 0.18 h -1.45 c 2,-3.99 0,-8.17 0,-8.17 l -1.27,-2.18 -1.45,-5.44 c -1.28,-4.36 -2.18,-4.73 -2.18,-4.73 l -1.64,2.55 -1.27,3.27 h -1.09 l -2.36,5.99 -2.18,5.45 -2.9,7.98 c 0.18,0.91 -3.27,7.99 -3.27,7.99 l -1.46,1.45 c 0,5.09 -2.17,6.54 -2.17,6.54 l -1.46,3.64 c -1.09,2.72 -1.27,2.35 -1.27,2.35 0.18,1.46 -0.91,9.08 -0.91,9.08 -0.54,7.63 2,9.08 2,9.08 1.09,1.64 0.55,2.18 0.55,2.18 l 2.72,5.45 0.91,-0.19 1.09,1.83 c 1.82,4.17 5.63,3.08 5.63,3.08 l 6.9,-2 1.45,6.18 c 0.73,3.99 2.18,5.08 2.18,5.08 l 5.26,1.09 5.45,0.55 5.27,-2.37 11.8,-2.72 c 7.63,-1.63 11.44,-3.63 11.44,-3.63 3.09,5.81 2.54,10.53 2.54,10.53 l -0.54,9.44 1.09,4 0.72,3.81 0.36,17.62 1.82,5.44 -0.73,2.18 v 6.54 l 1.82,5.44 0.55,6.18 h 1.09 l -0.55,-5.63 2,0.36 0.36,2.72 0.55,-0.18 -0.36,-3.45 c -2,-0.72 -2,-4.35 -2,-4.35 0,-3.27 1.45,-5.45 1.45,-5.45 1.09,0.36 2.72,6.36 2.72,6.36 1.46,4.53 1.64,7.44 1.64,7.44 h 3.81 v 1.63 l -1.09,-0.91 c -1.81,1.1 -2.18,6.91 -2.18,6.91 -0.18,5.81 0.91,5.99 0.91,5.99 0.54,0 3.45,-2.18 3.45,-2.18 l -0.73,1.09 v 0.54 h 1.09 l 0.54,3.09 c 1.28,0 1.28,-7.44 1.28,-7.44 h 0.72 l 1.28,1.09 0.54,-0.55 v -7.08 l 1.45,1.27 1.82,-1.63 1.09,-2.37 c 0.36,-1.63 -0.54,-6.35 -0.54,-6.35 1.45,-7.26 1.63,-11.08 1.63,-11.08 v -3.99 l 5.26,-11.81 c 1.46,-4.53 1.64,-11.8 1.64,-11.8 l 0.54,-12.16 2.18,-3.09 c 2,-1.82 2.18,-2.91 2.18,-2.91 l 4.18,-11.8 c 3.27,-8.53 5.44,-9.44 5.44,-9.44 l 10.53,-2.36 c 6.91,-2.18 6.36,-5.81 6.36,-5.81 3.45,0 4.91,-15.07 4.91,-15.07 l 2.9,-14.89 2.54,-4.9 1.09,-11.44 2,-11.26 c 0.54,-5.27 -2.55,-7.81 -2.55,-7.81 -1.99,-1.82 -7.62,-3.27 -7.62,-3.27 l -0.54,0.36 c 1.27,0.73 3.99,1.64 3.99,1.64 2.54,1.27 3.08,3.27 3.08,3.27 0.73,2.9 -1.08,7.62 -1.08,7.62 -1.64,4.18 -4.36,6.54 -4.36,6.54 l 0.18,2 C 491.58,64.1 487.4,69 487.4,69 l -5.81,7.99 -5.09,3.27 c -6.9,0.18 -9.08,2.36 -9.08,2.36 l -0.9,-0.73 c -1.09,-1.63 -1.09,-9.98 -1.09,-9.98 l -0.73,-6.54 c 1.09,-1.64 1.09,-2.72 1.09,-2.72 v -3.64 c 1.82,-2.17 12.53,-6.17 12.53,-6.17 9.63,-3.99 10.71,-7.81 10.71,-7.81 l 0.55,0.55 c -0.18,1.63 1.45,2 1.45,2 0,-2.73 1.81,-2.73 1.81,-2.73 l 3.82,0.73 v -0.55 l -6.17,-2.72 c 0,1.45 -1.09,1.45 -1.09,1.45 l -2.37,-0.36 -0.17,1.09 0.9,0.54 -1.27,2 h -0.54 c 0,-0.91 -3.46,-0.91 -3.46,-0.91 l 1.09,-3.99 c -3.08,-1.45 -3.27,1.27 -3.27,1.27 h -0.36 l -0.54,-1.09 h -0.55 l -0.18,0.91 h -2.18 l -1.45,1.63 -1.63,-0.54 1.09,-1.09 -1.09,-2.18 c 2.17,0 3.26,-2.54 3.26,-2.54 l -13.43,0.91 c 0,1.81 3.81,1.27 3.81,1.27 4.18,-0.55 4.72,0.9 4.72,0.9 l -4.17,-0.36 -3.82,0.55 -0.54,1.63 -1.09,-0.73 -1.09,-0.9 -2.73,-1.09 c -1.63,1.09 -2.54,0.9 -2.54,0.9 l -1.81,-1.09 -1.82,-1.81 C 449.99,37.04 440.37,20.7 440.37,20.7 433.29,8.9 420.94,8.36 420.94,8.36 Z m 235.69,6.99 c -0.3,0 -0.6,0 -0.9,0.1 l -14.5,2.18 c 0,0 -10.2,1.09 -12.9,4.17 l -3.7,-0.36 -3.8,0.91 -0.5,0.54 -6.9,0.73 -5.5,1.09 h -1.9 l -7.1,2.54 -6.4,3.09 -6.4,2.36 c 0,0 -5.6,4.72 -8.5,4.17 0,0 -12.3,3.09 -17.2,6 0,0 0,0.36 3.2,1.08 0,0 3.3,0.91 3.7,2.73 l 3.6,1.09 c 0,0 8.7,1.45 13.6,-1.82 0,0 1.1,0.55 7.3,-2.18 0,0 1.2,-1.63 4.4,-1.63 l 3.8,-2.18 4.9,-1.45 7,-2.73 7.3,-1.99 6.5,-0.73 2.7,-1.09 7.5,-0.36 7.5,0.36 2.8,0.18 3.1,1.09 2.2,3.27 2.6,4.72 c 0,0 -1.5,7.08 0,8.54 0,0 -1.1,2.17 -1.7,16.16 l -1.4,15.07 -1.1,10.71 0.9,15.07 c 0,0 0,2.9 -1.5,7.81 0,0 1.7,7.62 0,9.26 0,0 3.7,22.88 3.1,24.15 l -2,4.9 -1.6,4.72 -0.2,2.73 0.7,0.9 -0.5,3.27 0.4,3.09 c 0,0 -0.4,2.36 -1.5,2.36 l -2.7,-1.82 -2.2,-2.54 v -0.18 c 0,0 -4.7,-3.99 -6.9,-2.9 0,0 0,6.71 4.3,13.43 l 1,0.55 c 0,0 0.5,3.08 5.6,11.08 l 0.5,1.09 4.2,12.34 c 0,0 3.1,4.36 15.1,9.8 l 1.1,-0.17 v -0.91 c 0,0 1.1,0 3.6,-2.91 0,0 3.3,-4.18 3.6,-8.9 v -9.25 l 1.1,-6.54 v -6.72 l -1.6,-5.99 c 0,0 -0.9,-4.72 1.1,-5.45 0,0 0,-9.62 -0.9,-10.17 0,0 1.6,-7.44 0.5,-15.98 l 0.4,-6.72 v -6.9 l -1.1,-15.07 -0.4,-15.43 -0.5,-13.8 -1.7,-13.08 c 0,0 0.6,-3.81 1.5,-5.26 0,0 -0.5,-2.18 0.2,-9.08 0,0 -2.4,-0.18 -1.1,-8.72 l 1.6,-10.53 c 0,0 -0.5,-2.72 -5.2,-8.71 l -6.8,-7.45 c 0,0 -3.1,-1.67 -5.4,-1.72 z m 326.1,1.72 -2.2,0.55 -3.4,5.81 -0.2,0.54 -2,-0.54 -2.3,1.63 0.1,0.18 -1.2,0.91 -4.2,3.09 c 0,0 -2.6,2.36 -0.6,1.81 h 0.6 l -1.1,0.91 -5.3,1.82 -0.5,1.63 1.4,0.55 2.9,-0.73 2,-2.54 2.1,0.36 1.2,-0.36 6,-0.55 c 0,0 0.4,1.09 -5.5,1.09 l -3.2,1.45 2,1.09 6.1,0.73 c 0,0 2.1,0.36 4.8,2.54 l 3.6,3.82 -2.7,3.08 -2.4,1.09 -2.3,0.18 -9.5,2 -7.3,0.55 -5.8,1.63 -12.1,1.45 -5.1,1.64 -3.1,1.81 h -0.5 l -0.6,-1.09 -1.5,1.46 c 0,0 -0.5,1.09 -0.5,2.72 0,0 0,2.36 1.5,3.27 l 3.3,0.91 c 0,0 2.1,1.08 3.2,1.08 l 6.9,-1.99 7.4,-1.46 6.9,-1.81 11.3,-1.63 35.57,-0.91 9.1,-1.27 2.7,0.54 2.6,0.18 c 0,0 3.2,-1.63 4.3,-1.09 l 0.4,-1.81 v -3.63 l 2.2,-1.46 c 0,0 4.3,-2.9 2.7,-5.08 l -5.8,-1.64 -6.6,0.19 h -9.4 c 0,0 -3.5,0 -3.3,-1.82 l 0.4,-2.54 c 0,0 -1.1,-3.27 -0.6,-4.36 l -0.3,-5.63 -3.6,-2.72 -2.17,-0.18 -2.4,-2 -10.2,-4.36 z m -210.1,15.98 -0.5,5.99 c 0,0 -3.1,4.9 -3.8,7.45 0,0 -2.6,19.43 -4.2,21.42 l -3.1,2.73 -3.4,1.63 -3.9,2.54 -9.4,6.72 -0.2,0.36 3.9,0.55 2.1,2.36 4.4,-1.27 4.7,-0.55 0.2,3.63 0.9,1.28 -3.1,4.9 c 0,0 0,4.18 -14.7,13.98 0,0 -0.5,-1.63 0,-7.26 l 1.1,-7.45 -0.4,-3.08 -2.2,-3.82 c 0,0 -2.5,-3.27 -2.7,-4.72 0,0 -3.1,-0.54 -3.3,-3.27 l -1.6,-3.26 c 0,0 -0.5,0 -1.5,3.26 l -1.6,3.82 -0.5,1.99 -0.6,0.19 c 0,0 0,1.63 -2.2,4.53 l -2.1,3.82 c 0,0 -0.6,2.36 0,13.07 l -0.9,10.71 -1.7,10.53 -2.1,7.09 c 0,0 -1.7,3.63 0,7.62 0,0 0.8,1.64 4.3,3.64 0,0 3.5,1.63 5.3,1.99 l 2.1,2.37 c 0,0 1.1,2.72 2.1,3.08 l 5.4,3.81 5.3,0.91 4.3,1.64 3.1,12.53 c 0,0 2.7,10.71 6.2,11.8 h 0.3 c 0,0 0.3,1.09 2.2,2.54 l 2.7,1.63 c 0,0 5,3.28 8.8,4.36 l 9.6,1.46 8.4,0.18 9.6,0.91 c 0,0 8.1,-0.91 9,-2.55 l 8.4,-1.08 c 0,0 9.1,-2.18 8.5,-3.09 l 1.1,-0.19 16.4,-4.17 4,-1.64 h -0.8 l 0.8,-1.63 h 0.5 l -0.2,-1.09 h 0.6 l 0.5,0.54 0.2,-0.54 -0.2,-0.55 0.8,-1.08 -0.8,0.18 1.3,-2.36 2,-2 h 0.2 v 1.09 l 1.4,-1.82 h 0.4 v 0.19 l -0.7,0.54 0.3,0.54 c 0,0 -0.3,0.55 0.4,0.37 l 0.2,-1.09 0.8,-0.55 0.3,0.19 0.8,-1.09 0.6,-0.19 v -1.63 l -1.1,-0.55 -0.6,0.73 v -1.27 l -0.5,-0.36 v 0.54 l -0.5,-0.18 v -0.91 l -0.7,-0.73 1.2,-0.9 -0.3,-0.55 -1.5,1.45 0.6,-1.81 h 0.9 l 0.3,-0.54 -2.3,-0.19 -0.8,0.55 -0.3,-0.36 0.3,-1.28 -1.6,-0.36 1.1,-0.54 -0.6,-0.55 v -0.54 l 0.8,0.36 v -0.36 l -1.1,-1.09 -0.2,0.36 -0.9,-1.09 -0.2,-0.36 -1.1,0.36 -0.3,-0.54 v 0.72 h 0.9 v 1.64 h -0.4 l -1.1,-2.18 -0.5,-0.18 -0.6,0.18 1.1,-0.73 h 0.4 l -2,-0.36 c 0,0 -1.1,0 -1.3,0.91 l -2,1.09 -3.1,2.17 -3.3,0.73 -3.2,1.45 -10.7,2 -9.1,2.72 -3.3,0.55 -17.6,1.82 -4.5,-1.64 c 0,0 -0.9,0 -1.5,-0.73 l -0.5,-1.99 c 0,0 -3.7,-7.45 -3.1,-9.26 l 5.1,-6.72 2.7,-2.36 c 0,0 1.8,-1.45 4.9,-1.09 l 3.1,-0.55 3.8,-0.54 2.4,-1.45 3,-0.55 3.1,-0.72 2.9,-0.73 12.4,-1.64 1.6,-1.27 1.5,-2.17 2.5,-3.64 c 0,0 2.8,-2.17 2.9,-4.35 v -2.73 l 1,-3.27 -2.8,-6.35 -2.9,-5.99 5.3,-13.44 0.9,-3.45 c 0,0 0.7,-2.72 1.6,-2.72 l 0.7,-3.82 1,-4.17 c 0,0 1.1,-2.36 0.7,-3.82 l -0.6,-3.45 0.6,-2.36 -0.7,-2.72 c 0,0 -1.1,-1.63 -1.1,-2.72 l -2.7,-4 -2.2,-6.18 c 0,0 -1.1,-2.72 -5.7,-4.53 l -0.7,0.54 -4.2,-1.63 c 0,0 -2.7,-1.82 -5.2,-1.09 l -5.7,-0.91 -9.9,4.72 -10.9,5.99 h -3.3 l 2.2,-13.98 c 0,0 0.5,-7.44 -7.3,-11.07 l -4.4,-2.18 z m -293.4,5.45 -1.46,1.09 v 0.36 l 1.46,0.54 1.81,-0.54 0.91,-0.54 1.82,0.18 c 0,0 2.18,0.54 3.99,0 h 0.55 z m 5.44,3.27 v 2.17 l 0.55,0.37 0.18,-1.09 z m 1.09,0 v 0.9 h 2.55 z m 137.27,4.17 -4.7,1.27 -5.3,1.09 -10,2.18 -5.1,2.91 -4.3,1.09 c 0,0 -0.7,0.54 -1.8,0.72 l -2,0.37 -2,0.54 -7.3,3.27 -3.6,2.18 -2.5,0.54 -0.8,0.55 -0.3,0.36 -1.3,1.63 -2.5,1.28 -3.1,2.18 c 0,0 -5.7,0 -4.6,4.17 h 1.1 c 0,0 0,0.73 6.9,3.63 l 0.2,3.27 c 0,0 0.5,2.36 2.2,3.45 h 7.2 l 2.4,0.36 h 3.8 c 0,0 1.1,0 1.1,0.73 l 0.5,3.63 0.4,2.73 -0.4,4.17 -1.2,2.73 -3.1,0.54 -2.4,1.46 -6.9,2.72 -2.7,2.17 -4.2,2.73 -2.2,2.18 0.2,0.9 v 0.74 l -2.1,1.99 0.3,2.18 0.7,0.55 2.6,2.35 3.6,0.55 1.6,2.91 2.2,2.17 2.7,0.55 2.2,-0.37 -0.3,1.64 c 0,0 -0.8,1.64 0,1.64 l -1.1,3.63 -1.3,2.54 -0.6,1.27 -3.2,2.54 -1.7,2.18 -1.6,2.91 v 1.27 l -1.2,2.72 -1.1,1.63 v 2.18 l 1.4,4 1.7,2.54 c 0,0 1,1.45 1.4,1.09 0,0 0,0.36 1.8,1.09 0,0 3.8,0.54 6,0 l 7.4,-1.64 4.2,-2.17 7.5,-2.55 1.6,-1.27 c 0,0 1.1,0 5.5,-3.27 0,0 0.9,0.55 3,-1.63 0,0 0,0.18 2.9,-1.45 l 2.6,-0.73 c 0,0 1.4,-0.54 2.7,-1.45 l 3.6,-1.09 4.9,-3.27 3.7,-3.09 c 0,0 1.8,-1.09 2.3,-3.26 l 0.9,-1.64 0.6,-0.91 h -2.2 c 0,0 -1.5,0 -0.5,-2.17 l 1.2,-2.37 -4.3,-0.36 c 0,0 -2.8,0 -2.8,-1.09 l -7.6,0.54 0.8,-2.9 0.3,-2.36 1.1,-2.9 c 0,0 -0.9,0 -0.9,-1.64 l 1.1,-0.91 2,-0.18 4.3,-6.17 4.8,-4.91 0.1,-1.27 1.1,-2.17 v -2.37 l -0.5,-2.72 -2.9,-2.91 -5.3,-3.63 -2.2,-1.09 -0.9,-0.9 -1.8,-1.28 0.5,-0.9 c 0,0 0,-2.36 1.3,-5.09 l 5.5,-5.81 c 0,0 1.4,0 4,-5.26 l 1.8,-2.36 0.5,-2.37 -0.2,-2.35 0.6,-1.64 -0.4,-2.54 -2.7,-4.72 -1.3,-1.82 c 0,0 0,-2.18 -3.6,-2.18 z m 284.7,4 -1.1,3.45 v 1.63 c 0,0 -2.2,6.54 -2.2,9.62 l -3.6,5.64 -0.5,1.99 -1.1,2.18 -3.1,6.54 -4.9,10.71 -2.7,3.27 -4.2,6.35 -1.2,4.18 -1.5,4.36 0.4,4.18 0.1,6.35 c 0,0 1,0.55 1.5,0.72 l 1.8,2.73 0.4,5.81 -0.4,5.99 0.9,-1.27 0.7,-2.18 v -0.36 h 0.4 l 0.2,0.36 -0.6,1.09 0.4,0.55 h 0.5 l 0.9,-1.64 1.7,-5.08 2.9,-3.27 1.6,-1.09 11.3,-10.89 c 0,0 3.3,-1.09 5.2,3.44 l 0.6,4.18 1.1,8.18 v 10.52 l -1.3,6 -1.3,10.71 -1.6,4.9 -2.2,
     12.72 -0.2,13.61 c 0,0 0,5.81 5.5,6.36 l 2.5,-2.91 c 0,0 4,0.19 2.4,-1.99 v -2.19 l 2.2,-1.63 h 2 l 2.7,-4.36 1.1,-8.35 1.6,-18.16 0.5,-6.17 1.1,-6.18 2.1,-24.15 c 0,0 -1,-5.44 -0.6,-7.62 l 1.6,-3.82 c 0,0 0.7,-1.63 0.7,-5.98 l -0.5,-2 -1.6,-1.46 -1.7,-1.81 c 0,0 -1.2,-0.55 -2.8,-1.45 l -5.3,-2.37 -3.3,0.73 0.7,-3.27 1.1,-2.72 0.4,-5.45 0.7,-2.72 c 0,0 0.4,-3.63 -1.8,-8.35 l -3.8,-7.63 -0.4,-2.18 -1.8,-4.72 z m -355.9,0.54 -0.7,2.91 -1.6,4.9 c 0,0 -0.9,2.72 -0.6,5.81 l 0.6,2.18 v 7.63 l 0.5,4.72 -0.9,3.45 -0.2,5.81 -1,2.54 -1.7,6.9 0.6,1.27 v 5.81 l -1,3.27 v 2.54 l -0.5,5.08 -0.9,3.64 -0.7,11.44 h -0.4 l -0.6,3.45 -1.2,2.9 c 0,0 -0.6,4.18 0.5,6.72 l 0.2,3.45 0.4,4.72 c 0,0 0.1,2.54 -1,3.81 l -0.5,4.36 c 0,0 -0.5,9.99 5.3,14.89 0,0 2,1.82 3.6,1.27 l 1.3,-1.63 c 0,0 2.1,-2.91 2.1,-8.17 l -0.6,-8.72 -0.6,-2.54 1.1,-8.17 c 0,0 0,-3.63 0.5,-5.08 0,0 -2.7,-1.82 -0.9,-10.54 l 0.4,-5.08 0.1,-3.27 c 0,0 0.6,-2.72 1,-2.72 l 0.5,-2.73 0.6,-2 2.7,-12.89 2.5,-7.44 V 93.7 l -1.1,-2 v -2.91 l 0.8,-1.99 0.9,-4.36 h -0.4 l 0.4,-3.27 -0.4,-3.27 c 0,0 -1.3,0 -1.3,-8.89 l -1.6,-5.27 -1.4,-1.64 -1.7,-3.26 -1.6,-5.09 z m 431.1,15.25 -5.8,1.64 -5.5,2.18 c 0,0 -1.1,0.18 -1.6,1.63 0,0 -0.7,1.82 0.4,3.82 0,0 1.2,1.63 3.4,2.17 l 6.9,3.64 1.7,1.63 9.6,4.36 4.7,1.09 h 6.47 l 2.2,0.9 c 0,0 1.1,0.55 2,0 0,0 1.3,-0.9 3.5,-5.26 l 1.4,-1.64 v -2.17 l 0.2,-2.55 -2.4,-2.17 -1.4,-3.64 c 0,0 -2.4,-0.72 -3.5,-1.27 l -2.2,-2.18 -2.3,-1.09 h -2.17 -3.2 c 0,0 -3.9,0 -5.5,-1.09 z m -176.5,0.55 8.2,1.82 -0.2,1.09 1.6,2.17 V 73 c 0,0 0,1.45 -2.2,3.63 h -2.5 -0.5 c 0,0 -8.6,5.99 -13.7,7.08 l -4.1,0.55 h -2 c 0,0 -2.2,0.54 -4.6,0 0,0 -3.4,-0.55 -4,-2.37 l 0.6,-3.81 c 0,0 0.9,-2.72 1.6,-3.08 0,0 0,-1.46 2.6,-2.55 l 2.5,-1.09 c 0,0 2.2,-1.08 6.2,-2.17 l 3.1,-1.64 4.1,-1.09 z m -387.3,8.72 2.17,8.71 1.27,5.81 c 1.09,3.63 0.55,5.99 0.55,5.99 l -3.45,5.09 -4.18,5.44 c -4.9,3.09 -8.53,4.18 -8.53,4.18 l -9.26,1.27 c -4.54,0.55 -9.63,5.27 -9.63,5.27 -5.08,4.35 -6.9,4.18 -6.9,4.18 -0.9,0.54 -1.99,0.72 -1.99,0.72 -1.1,-2.72 1.09,-4.36 1.09,-4.36 -0.73,-1.09 0.54,-4.17 0.54,-4.17 l 2.73,-3.27 1.99,-3.82 1.09,-4.72 c 2,-1.27 1.64,-2.72 1.64,-2.72 l 9.44,-10.9 11.44,-5.08 c 8.17,-3.45 9.99,-7.62 9.99,-7.62 z m 567.6,18.33 -12.5,0.91 -11.1,1.82 -0.2,1.27 c 0,0 -0.5,1.09 0,2.36 l 1.8,3.63 2.8,3.45 5.1,4.18 c 0,0 1.2,1.45 3.8,2 l 5.4,0.18 4.7,0.91 c 0,0 2.2,0.18 6,2.35 l 3.9,-0.54 h 2.7 l 2.67,-1.27 c 0,0 2.9,-0.54 3.1,-0.91 0,0 1.4,-0.54 2.7,-2.9 l 1.6,-4.18 v -1.64 l 0.4,-1.45 c 0,0 0.2,-1.09 1.6,-1.63 l 1.8,-1.09 v -3.81 c 0,0 0,-0.55 -2.7,-1.09 l -3.4,-0.37 -3.9,0.55 -10.47,-2.36 z m -352.4,3.09 1.2,3.81 c 0,0 0.4,3.09 -3.2,7.09 l -1.1,1.45 -0.2,0.54 -1.1,2.18 -0.5,2.55 -1.7,1.09 -0.5,1.08 0.5,0.18 c 0,0 1.8,0.55 4.9,-1.09 l 2.9,-0.72 3.5,-0.36 2.3,-0.18 1.5,-0.37 c 0,0 3.3,1.09 5.8,-2.72 l 0.6,-4.91 -0.6,-2.72 -0.9,-2 -1.1,-0.54 -1.6,-0.73 -3.8,-0.36 -0.6,-0.55 -3.6,-1.63 z m 173.7,1.09 0.6,0.54 c 0,0 0.9,0.92 0.3,2 l -1.8,8.72 -1.2,2.18 c 0,0 -1.5,2 -8.8,5.26 0,0 -7.4,4.9 -11.6,1.82 l -1.5,-3.81 1,-2.91 c 0,0 -0.4,-2.54 0.4,-3.99 l 2.3,-2.73 6,-3.27 7.8,-2.72 z m -59,18.88 3.6,1.46 c 0,0 1.7,1.63 0.6,6.53 l -2.2,6.72 -0.3,1.28 -1.7,2.54 -3.8,0.72 c 0,0 -1.1,0 -4.7,2 0,0 -1.6,1.09 -3.7,1.81 l -1.2,1.46 -0.4,-0.37 1.5,-4.53 -0.6,-2.73 0.7,-2.54 0.4,-2.54 2.2,-6 0.9,-2.72 h 0.2 c 0,0 2,0 4.7,-1.63 l 3.8,-1.09 z m 249.9,8.9 -8.5,5.81 -17.1,8.35 -2.2,0.91 -2.2,0.55 c 0,0 -2.2,0 -3.1,-0.91 l -1.8,-2.18 -1.6,-1.81 -1.1,-2.73 -3.3,-1.45 -3.4,-1.45 c 0,0 -1.6,-0.73 -2.4,-2.36 l -0.9,-1.09 -1.3,0.54 -1.1,6.9 -0.3,5.45 1.6,7.44 c 0,0 -0.7,4.36 -0.2,8.17 l 0.2,8.72 -0.2,6.36 3,12.16 0.5,1.27 v 4.54 c 0,0 0.5,2.36 2.5,3.27 l 3.3,0.73 4.3,2 1.5,1.81 c 0,0 0.7,1.09 1.8,0.91 0,0 0.9,-0.37 0.9,-2.72 l 2.2,-3.82 0.4,-4.18 1.1,-4.35 0.7,-3.09 1.6,-14.89 -0.7,-2.18 -1.5,-2.18 0.4,-2.9 v -2.73 l 0.6,-0.36 8.1,0.36 3.1,-3.45 c 0,0 4.5,-4.35 7.4,-5.44 l 1.3,1.99 c 0,0 1.1,2.91 0.4,7.45 l -6.2,7.08 -3.8,3.81 c 0,0 -2.4,2 -2.9,4.36 l -1.3,0.91 -0.1,1.81 -0.4,5.09 c 0,0 0,4.36 0.5,5.44 l 2.4,1.64 2.7,1.09 2.2,1.82 8.7,0.72 9.07,-1.81 5.2,1.09 7,-0.18 2.8,-1.64 2.2,-0.91 2,-2.18 v -2.9 l 0.6,-6.72 -2.6,-1.27 -0.5,-0.36 -2.9,-2.37 -0.4,-2.18 4.2,-11.07 0.2,-5.99 c 0,0 -0.7,-1.45 0.3,-4.36 V 140 l -3.1,-3.45 -3.2,-4.9 -3.8,-3.09 -1.7,-1.45 -4.3,-1.09 -4.5,0.36 z m -361,27.06 c 0,0 -1.5,1.09 -7.3,2.54 l -5.4,2.18 -1.7,0.36 -4.9,1.82 -5.6,0.91 -7.6,3.26 -3.8,0.73 -3.8,1.81 -2.2,0.19 -5.3,1.09 c 0,0 -4.3,2.18 -5.4,2.54 l -2.6,-0.55 -4.3,0.73 -4.2,1.09 h -6.3 l -3,0.55 -3.2,-0.19 3.4,7.63 c 0,0 3.4,6.35 4.5,6.54 l 3.3,0.9 5.1,-1.45 c 0,0 3.6,-0.73 4.2,-1.82 h 1.1 c 0,0 4.7,-1.08 5.8,-2.72 l 5.8,-1.45 5.5,-2.54 2.5,-0.73 4,-2 4.3,-2.72 11.3,-7.99 c 0,0 4.5,-2.9 14.9,-7.81 l 2.5,-2.36 v -0.54 z m -209,53.02 c 0,0 -0.54,1.63 0.73,4.9 l 0.91,3.09 h 0.36 l 0.72,-1.63 v -3.27 h -0.54 l -0.18,0.18 0.54,-1.82 z m 16.71,0.91 -0.19,7.44 c 0,0 1.28,0 1.28,-3.45 0,0 0.36,-3.27 -1.09,-3.99 z m -12.53,2.18 c 0,0 -1.46,1.27 -0.37,7.08 h 0.55 l 0.36,-0.55 c 0,0 0.55,-5.44 -0.54,-6.53 z m -43.4,18.88 c -12.89,0 -21.43,6.9 -21.43,6.9 -8.53,6.54 -8.53,17.62 -8.53,17.62 v 2.17 c 0,11.81 8.17,17.8 8.17,17.8 8.53,5.99 21.97,5.99 21.97,5.99 l 9.44,-0.55 5.45,-1.63 v -7.26 l -5.45,1.27 -8.53,0.91 c -6.9,0 -11.62,-4.18 -11.62,-4.18 -4,-4.36 -4,-13.26 -4,-13.26 v -0.54 c 0,-8.53 4.36,-12.89 4.36,-12.89 4.54,-4.54 12.53,-4.54 12.53,-4.54 l 7.44,0.54 5.27,1.27 v -7.62 l -5.81,-1.45 z m 483.32,0 c -13.1,0 -21.6,6.9 -21.6,6.9 -8.5,6.54 -8.5,17.62 -8.5,17.62 v 2.17 c 0,11.81 8.5,17.8 8.5,17.8 8,5.99 21.6,5.99 21.6,5.99 l 9.5,-0.55 5.4,-1.63 v -7.26 l -5.4,1.27 -8.6,0.91 c -6.5,0 -11.6,-4.18 -11.6,-4.18 -4,-4.36 -4,-13.26 -4,-13.26 v -0.54 c 0,-8.17 4.6,-12.89 4.6,-12.89 4.7,-4.54 12.7,-4.54 12.7,-4.54 l 7.5,0.54 4.8,1.27 v -7.62 l -5.8,-1.45 z m 48.9,0 c 0,0 -13.4,0 -20.2,6.9 0,0 -7.2,6.9 -7.2,17.25 v 2.72 c 0,0 0,11.26 7.8,17.62 0,0 7,5.99 19.4,5.99 0,0 12.4,0 19.4,-5.99 0,0 7.8,-6.36 7.8,-17.62 v -2.72 c 0,0 0,-10.35 -7.2,-17.25 0,0 -6.5,-6.9 -19.8,-6.9 z m -507.35,0.91 v 48.84 h 14.9 v -20.88 h 17.06 v 20.88 h 14.71 v -48.84 h -14.71 v 20.33 h -17.06 v -20.33 z m 62.1,0 v 48.84 h 14.9 v -48.84 z m 29.42,0 v 48.84 h 10.71 V 246.4 l 32.82,30.69 h 6.4 v -48.84 h -10.3 v 29.05 l -31.64,-29.05 z m 77.93,0 -22.2,48.84 h 12 l 4.9,-11.62 h 22 l 4.7,11.62 h 15.4 l -23,-48.84 z m 59.9,0 v 7.08 h 14.7 v 41.76 h 14.9 v -41.76 h 14.3 v -7.08 z m 50.8,0 v 48.84 h 41.6 v -7.08 h -26.8 v -13.8 h 19.6 v -7.44 h -19.6 v -13.44 h 25.2 v -7.08 z m 51.1,0 v 48.84 h 39.2 v -7.08 h -24.5 v -41.76 z m 49,0 v 48.84 h 42.1 v -7.08 h -27.2 v -13.8 h 19.4 v -7.44 h -19.4 v -13.44 h 25.2 v -7.08 z m 162.1,0 v 48.84 h 10 v -27.96 l 19.1,27.96 h 8 l 19.87,-27.96 v 27.96 h 13.5 v -48.84 h -9.7 l -25.17,35.59 -24.7,-35.59 z m -35.2,6.36 c 0,0 8,0 9.8,3.99 0,0 2.2,4.9 2.2,13.43 v 1.46 c 0,0 0,8.71 -2.8,13.44 0,0 -2.7,4.17 -9.2,4.17 0,0 -7.6,0 -9.8,-3.99 0,0 -2.3,-3.27 -2.3,-13.62 v -1.46 c 0,0 0,-9.8 2.5,-13.61 0,0 2,-3.81 9.6,-3.81 z m -332.3,5.62 8.4,18.16 h -16 z"></path>
</svg>
