<?xml version="1.0"?>

<svg xmlns="http://www.w3.org/2000/svg" viewBox="0 0 1133.9 295.87" height="295.87" width="1133.9" version="1.0">

  <path d="m 147.97,35.398 c -17.26,0 -33.6,3.913 -48.22,10.812 h 96.44 C 181.55,39.311 165.21,35.398 147.97,35.398 Z M 80.53,57.835 c -4.1,3.036 -7.95,6.422 -11.62,10 h 29.65 c 4.59,-3.924 9.61,-7.283 14.91,-10 z m 90.6,0 v 10 h 55.84 c -3.61,-3.578 -7.53,-6.964 -11.62,-10 z M 58.28,79.96 c -2.43,3.187 -4.66,6.555 -6.78,10 h 28.66 c 1.99,-3.516 4.24,-6.866 6.72,-10 z m 112.85,0 v 10 h 73.28 c -2.08,-3.445 -4.36,-6.813 -6.78,-10 z M 44.97,102.62 c -1.45,3.22 -2.76,6.58 -3.87,10 h 30.31 c 0.73,-3.42 1.68,-6.78 2.87,-10 z m 80.84,0 v 52.15 h 45.85 v 53.41 l -45.85,-0.19 H 52.78 c 2.21,3.49 4.59,6.84 7.16,10 h 65.87 v 11.59 H 70.56 c 3.81,3.61 7.87,6.94 12.13,10.04 h 43.12 v 10.53 h -24.93 c 12.02,5.54 25.18,8.99 39.06,9.97 2.65,0.19 5.34,0.34 8.03,0.34 2.69,0 5.36,-0.15 8,-0.34 13.88,-0.98 27.04,-4.43 39.03,-9.97 h -12.53 c 2.62,-1.34 12.13,-6.55 21.69,-16.28 -1.95,2.01 -3.96,3.94 -6.1,5.75 h 15.13 c 4.29,-3.1 8.36,-6.43 12.16,-10.04 h -17.22 c 2.94,-3.41 5.81,-7.27 8.34,-11.59 h 19.5 c 2.56,-3.16 4.92,-6.51 7.13,-10 h -21.69 c 1.4,-3.44 2.59,-7.17 3.47,-11.09 h 24.4 c 1.57,-3.23 3,-6.58 4.25,-10 H 226.5 c 0.3,-2.94 0.39,-5.97 0.31,-9.13 0,0 0.16,-0.63 0.29,-1.9 H 257 c 0.84,-3.29 1.49,-6.64 2.03,-10.07 h -32.47 c -0.53,-3.09 -1.46,-6.82 -2.96,-11.03 h 36.65 c 0.15,-2.24 0.22,-4.52 0.22,-6.84 0,-1.05 0,-2.11 0,-3.19 h -41.09 c -1.81,-3.83 -3.95,-7.55 -6.32,-11.06 h 46.57 c -0.42,-3.38 -1.03,-6.74 -1.75,-10 H 205 c -3.86,-4.15 -8.19,-7.83 -12.87,-11.06 h 62.75 c -1.14,-3.42 -2.45,-6.78 -3.88,-10 z m -87.75,21.06 c -0.73,3.26 -1.32,6.62 -1.75,10 h 33.57 c -0.11,-1.71 -0.16,-3.48 -0.16,-5.25 0,-1.62 0.1,-3.2 0.16,-4.75 z m -2.56,21.06 c 0,1.08 -0.1,2.14 -0.1,3.19 0,2.32 0.1,4.6 0.22,6.84 h 38.59 c -0.79,-2.21 -1.49,-4.5 -2.09,-6.84 -0.29,-1.05 -0.53,-2.11 -0.75,-3.19 z m 1.35,21.06 c 0.55,3.43 1.23,6.78 2.06,10.07 h 46.81 c -2.41,-3.2 -4.6,-6.51 -6.5,-10.07 z m 5.53,21.1 c 1.26,3.42 2.67,6.77 4.25,10 h 61.72 c -4.04,-2.75 -9.12,-7.08 -12.38,-10 z M 1089.9,171.64 H 986.86 c 0,0 0,27.47 0,40.38 0,14.24 12,13.44 12,13.44 h 78.34 c 14,0 12.7,-9.8 12.7,-9.8 z m -15.8,37.5 H 1003 v -25.6 h 71.1 v 25.6 m -83.34,-50.16 h 95.04 v -11.92 h -94.84 l -0.2,11.92 m 0.5,-24.53 h 94.54 v -16.33 h -94.54 z m -8.5,-41.24 0.2,16.07 H 1098.5 V 93.21 H 982.76 M 1084,79.72 c 5.9,-0.24 6.7,-11.61 6.7,-11.61 h -99.44 v 11.61 c 0,0 86.84,0.32 92.74,0 m -101.04,-16 h -19.4 c -5.4,45.56 -34.4,71.7 -34.4,71.7 v 27.97 c 16,-12.47 24.3,-24.62 24.3,-24.62 v 86.98 h 16.3 V 112.91 c 13.7,-23.6 13.2,-49.19 13.2,-49.19 m -245.1,127.1 c 0,15.8 14.5,14.23 14.5,14.23 h 47.6 c 0.3,21.46 15.5,20.23 15.5,20.23 h 71 v -15.6 c 0,0 -54.4,0 -59.3,0 -4.9,0 -3.4,-5.16 -3.4,-5.16 h 51.8 c 11.2,0 11.4,-8.8 11.4,-8.8 v -44.8 h -148.8 c 0,0 -0.3,24.08 -0.3,39.9 z m 86.2,-27.69 h 38.6 v 8.8 h -38.6 z m 0,20.98 h 38.6 v 8.8 h -38.6 z m -62.1,-21.51 h 38.5 v 8.79 h -38.5 z m 0,21.51 h 38.5 v 8.8 h -38.5 v -8.8 m 67.6,-41.4 h 36.6 V 130.9 h -36.6 z m 0,-20.87 h 36.9 v -7.72 h -36.9 z m -71.1,20.87 h 36.9 v -11.9 h -36.9 z m 0,-20.95 h 37.2 v -7.82 h -37.2 z m 65.6,-32.92 V 80.3 h 62.4 V 68.11 H 738.66 V 80.3 h 66 v 8.54 h -74 v 53.57 h 18.9 v -38.57 h 54.8 v 38.57 h 19.7 v -38.57 h 51.2 v 38.85 h 19.2 V 88.84 h -70.4 m -198.7,90.71 h 62.1 v -15.46 h -32.7 l 7.7,-14.12 h 28.5 V 134.5 h -21.9 l 7.1,-13.51 h 11 v -16.08 h -152.6 v 16.33 h 14.8 l 6.6,13.03 h -25.4 v 15.92 h 31.6 l 6.8,13.44 h -34.2 v 15.73 h 66.3 v 13.01 h -70.9 v 12.15 h 70.9 v 20.54 h 23.9 v -20.32 h 66.9 v -12.6 h -66.5 z m -59,-58.56 h 34.2 v 13.73 h -26.5 z m 34.4,42.87 h -13.4 l -6.9,-13.45 h 20.3 z m 24.4,-42.87 h 32.7 l -6.7,13.1 h -26 z m 0,28.32 19.2,0.22 -6.9,13.66 h -12.3 V 149.31 M 658.06,76.4 V 63.81 h -23.9 V 76 h -46.1 V 63.81 h -20.6 V 76 h -37.1 v 11.89 h 37.3 v 12.37 h 19.9 V 87.89 h 46.6 v 12.37 h 23.9 V 88.59 h 33.8 V 76.4 h -33.8 m -228.5,8.8 V 63.55 h -23.4 v 21.24 h -71.2 c 0,0 0,82.46 0,98.75 0,16.39 11.1,16.17 11.1,16.17 h 59.7 v 30.25 h 24.2 v -29.84 h 55.7 c 13.9,0 14.8,-11.67 14.8,-11.67 V 85.1 Z m -23.7,94.58 h -46.5 v -71.57 h 46.5 z m 70.3,0.7 h -46.4 l 0.5,-72.05 h 46.1 l -0.2,72.05"></path>

</svg>
