 <svg
   xmlns="http://www.w3.org/2000/svg"
   viewBox="0 0 83 89"
   height="89"
   width="83">

  <path
     d="m 22.220187,62.073502 c 0,1.23375 1.01625,2.23375 2.27375,2.23375 1.25625,0 2.27375,-1 2.27375,-2.23375 0,-1.2325 -1.0175,-2.23125 -2.27375,-2.23125 -1.2575,0 -2.27375,0.99875 -2.27375,2.23125 m 17.7525,11.75625 c 0,3.525 -1.37875,4.99375 -3.3725,4.99375 -2.01125,0 -3.13875,-1.70625 -3.13875,-4.69875 0,-3.055 1.74875,-5.58125 4.985,-5.58125 0.6675,0 1.13375,0.06625 1.52625,0.16125 z m 0.19375,5.7825 0,1.145 c 0,3.1425 -1.935,4.3625 -4.33625,4.3625 -2.15875,0 -3.75125,-0.64875 -4.25375,-0.825 l 0,3.108747 c 0.41,0.11 2.1625,0.66125 4.66375,0.66125 4.44125,0 7.40875,-1.8325 7.40875,-8.114997 l 0,-13.55625 c -0.57,-0.145 -2.655,-0.6975 -5.055,-0.6975 -6.23,0 -8.9075,4.175 -8.9075,8.6925 0,4.1525 2.09,7.40875 6.09125,7.40875 2.63875,0 3.9075,-1.59375 4.32,-2.185 z m -21.18375,-1.9175 c -1,0.46875 -2.6,0.7775 -4.14875,0.7775 -4.22375,0 -7.3337503,-3.02125 -7.3337503,-7.62375 0,-4.57375 3.0887503,-7.63125 7.3337503,-7.63125 2.10375,0 3.60125,0.515 4.14875,0.775 l 0,-3.29 c -0.9225,-0.3425 -2.42125,-0.68875 -4.53875,-0.68875 -6.5550003,0 -10.9600003,4.53125 -10.9600003,10.835 0,5.9575 4.05375,10.82875 10.9600003,10.82875 2.025,0 3.55,-0.32125 4.53875,-0.69125 z m 55.62125,-3.865 c 0,3.525 -1.38,4.99375 -3.3725,4.99375 -2.01375,0 -3.145,-1.70625 -3.145,-4.69875 0,-3.055 1.75625,-5.58125 4.99,-5.58125 0.66125,0 1.13,0.06625 1.5275,0.16125 z m 4.13875,7.62375 c -0.11875,-0.85875 -0.46375,-3.125 -0.46375,-5.07375 l 0,-9.98625 c -0.57375,-0.145 -2.66,-0.6975 -5.055,-0.6975 -6.2325,0 -8.90625,4.175 -8.90625,8.6925 0,4.1525 2.0825,7.40875 6.0875,7.40875 2.92375,0 4.235,-1.89125 4.73,-2.9 l 0.09625,0 c 0.03625,0.47875 0.16875,2.10625 0.21125,2.55625 z m -52.40875,-15.36375 -3.675,0 0,15.36375 3.675,0 z m 21.47625,15.36375 0,-10.63125 c 0,-1.425 -0.13,-4.15875 -0.1675,-4.77875 l 3.3025,0 0.155,2.16125 0.06875,0 c 0.38375,-0.605 1.62,-2.50875 4.50125,-2.50875 3.47875,0 5.41125,2.55625 5.41125,5.7425 l 0,10.015 -3.6725,0 0,-9.28875 c 0,-1.95625 -1.08875,-3.435 -2.96,-3.435 -1.93125,0 -2.96,1.56 -2.96,3.435 l 0,9.28875 z m -24.60075,-60.491 c -1.805,-0.81625 -3.15625,-2.4525 -3.37625,-4.03875 1.34,-0.8825 3.45625,-0.95 5.26375,-0.13375 1.88875,0.855 2.33125,2.30125 2.3425,3.57125 -0.96125,0.83375 -2.3375,1.4575 -4.23,0.60125 m 5.17875,-9.54125 c -1.16125,-1.7850003 -1.4325,-4.0450003 -0.71375,-5.6062503 1.72125,-0.0225 3.675,1.145 4.835,2.92875 1.21375,1.8687503 0.775,3.4312503 0.0475,4.5862503 -1.35375,0.195 -2.9575,-0.03875 -4.16875,-1.90875 m 2.6875,9.4525 c -1.4325,-1.21375 -2.23625,-3.055 -2.02375,-4.55875 1.44875,-0.455 3.3975,0.035 4.83,1.2475 1.5,1.27375 1.52375,2.70375 1.2025,3.86625 -1.09375,0.505 -2.50875,0.715 -4.00875,-0.555 m 4.38125,-4.56875 c -0.61625,-1.99125 -0.26875,-4.19625 0.8275,-5.48 1.62875,0.43875 3.15875,2.06625 3.775,4.05875 0.645,2.08625 -0.18625,3.44125 -1.18125,4.33625 -1.325,-0.1775 -2.77875,-0.8275 -3.42125,-2.915 m -7.545,14.54625 c -1.42625,0.2775 -2.93125,-0.13125 -3.73875,-0.9875 0.425,-1.09875 1.67125,-2.04 3.10125,-2.3175 1.49375,-0.29 2.3725,0.38875 2.92,1.14625 -0.22375,0.91 -0.7825,1.86625 -2.2825,2.15875 m -3.77,-4.225 c -1.62375,-0.17625 -3.105,-1.11 -3.68625,-2.29875 0.82,-1.0375 2.46875,-1.63625 4.095,-1.46 1.7025,0.185 2.42125,1.205 2.7575,2.2 -0.54375,0.9025 -1.4625,1.74375 -3.16625,1.55875 m -0.145,-12.0675 c -1.275,-1.08125 -1.99,-2.71625 -1.80125,-4.05375 1.28875,-0.40625 3.02,0.03125 4.295,1.10875 1.33125,1.1325 1.35625,2.40375 1.07,3.4375 -0.97375,0.45125 -2.23125,0.63625 -3.56375,-0.4925 m 8.68875,-8.5762503 c -0.515,-1.66 -0.2225,-3.49875 0.68875,-4.5675 1.36,0.3675 2.63625,1.72375 3.15,3.38125 0.5375,1.74 -0.15875,2.8675 -0.98625,3.6175 -1.10625,-0.15 -2.31375,-0.69125 -2.8525,-2.43125 m -21.35,43.0750003 c 0,0.045 0.02875,0.08125 0.08625,0.08125 0.0525,0 0.14875,-0.04375 0.2525,-0.08125 5.1025,-1.83 12.635,-4.07375 23.2075,-4.76 0.0125,-0.095 0.07625,-0.56625 0.07625,-0.92875 0,-0.765 -0.09125,-1.56375 -0.115,-1.69625 -10.83375,0.99375 -18.31,4.135 -23.2225,7.15375 -0.19875,0.12375 -0.285,0.1525 -0.285,0.23125 m 43.51875,-28.69625 c 0.01125,-1.27 0.4525,-2.71625 2.3425,-3.57125 1.80375,-0.81625 3.92375,-0.74875 5.2625,0.13375 -0.22125,1.58625 -1.57125,3.2225 -3.375,4.03875 -1.89375,0.85625 -3.2675,0.2325 -4.23,-0.60125 m -5.1175,-7.03125 c -0.72625,-1.155 -1.165,-2.7175 0.04875,-4.5862503 1.15875,-1.78375 3.1125,-2.95125 4.83375,-2.92875 0.7175,1.56125 0.445,3.82125 -0.7125,5.6062503 -1.21125,1.87 -2.81875,2.10375 -4.17,1.90875 m -2.53,8.09875 c -0.31875,-1.1625 -0.295,-2.5925 1.205,-3.86625 1.43375,-1.2125 3.38,-1.7025 4.83125,-1.2475 0.21,1.50375 -0.59375,3.345 -2.02625,4.55875 -1.4975,1.27 -2.91625,1.06 -4.01,0.555 m -3.79375,-2.20875 c -0.99375,-0.895 -1.82375,-2.25 -1.18,-4.33625 0.61375,-1.9925 2.14875,-3.62 3.77625,-4.05875 1.09625,1.28375 1.44375,3.48875 0.8275,5.48 -0.645,2.0875 -2.095,2.7375 -3.42375,2.915 m 8.68625,9.4725 c 0.54875,-0.7575 1.42375,-1.43625 2.92125,-1.14625 1.43,0.2775 2.67375,1.21875 3.1,2.3175 -0.80625,0.85625 -2.31125,1.265 -3.74125,0.9875 -1.4975,-0.2925 -2.05875,-1.24875 -2.28,-2.15875 m 2.885,-3.625 c 0.3375,-0.995 1.05625,-2.015 2.75875,-2.2 1.62625,-0.17625 3.2725,0.4225 4.09375,1.46 -0.58125,1.18875 -2.06125,2.1225 -3.685,2.29875 -1.705,0.185 -2.62625,-0.65625 -3.1675,-1.55875 m -0.2525,-10.01625 c -0.28625,-1.03375 -0.26375,-2.305 1.07125,-3.4375 1.275,-1.0775 3.00625,-1.515 4.29375,-1.10875 0.18875,1.3375 -0.5275,2.9725 -1.80125,4.05375 -1.3325,1.12875 -2.59125,0.94375 -3.56375,0.4925 m -7.9775,-6.6375003 c -0.82875,-0.75 -1.5225,-1.8775 -0.985,-3.6175 0.51375,-1.6575 1.79,-3.01375 3.14375,-3.38125 0.91875,1.06875 1.20625,2.9075 0.695,4.5675 -0.53875,1.74 -1.7475,2.28125 -2.85375,2.43125 m 23.91625,40.4125003 c -4.91,-3.01875 -12.3875,-6.16 -23.22125,-7.15375 -0.02125,0.1325 -0.11375,0.93125 -0.11375,1.69625 0,0.3625 0.0625,0.83375 0.075,0.92875 10.57125,0.68625 18.1025,2.93 23.2075,4.76 0.105,0.0375 0.20375,0.08125 0.25125,0.08125 0.06,0 0.08875,-0.03625 0.08875,-0.08125 0,-0.07875 -0.08875,-0.1075 -0.2875,-0.23125 m -29.52375,-38.6675 c -1.40375,-0.6537503 -2.78625,-1.8675003 -2.78625,-4.3912503 0,-2.41 1.1375,-4.7275 2.78625,-5.7674999464599 C 42.795687,1.0400017 43.933187,3.3575017 43.933187,5.7675017 c 0,2.52375 -1.38,3.7375 -2.78625,4.3912503 m -3.4535,16.404875 c 0,1.9575 1.545,3.5425 3.45125,3.5425 1.91125,0 3.4575,-1.585 3.4575,-3.5425 0,-1.96 -1.54625,-3.54375 -3.4575,-3.54375 -1.90625,0 -3.45125,1.58375 -3.45125,3.54375 m -8.254875,-3.001125 c 1.45625,0 10.9125,4.17375 10.9125,19.16625 0,7.165 -2.41125,13.1375 -3.835,13.1375 -0.6275,0 -0.86625,-0.6275 -0.86625,-1.8325 0,-2.6525 0.935,-5.0025 0.935,-10.665 0,-10.9325 -4.5025,-15.34375 -6.51875,-17.82625 -0.595,-0.735 -1.04625,-1.21375 -1.04625,-1.645 0,-0.17625 0.125,-0.335 0.41875,-0.335 m 23.83375,0.335 c 0,0.43125 -0.45125,0.91 -1.04625,1.645 -2.015,2.4825 -6.51625,6.89375 -6.51625,17.82625 0,5.6625 0.93125,8.0125 0.93125,10.665 0,1.205 -0.23625,1.8325 -0.86375,1.8325 -1.42375,0 -3.83625,-5.9725 -3.83625,-13.1375 0,-14.9925 9.4575,-19.16625 10.91625,-19.16625 0.29125,0 0.415,0.15875 0.415,0.335" />

</svg>
