<?xml version="1.0"?>

<svg xmlns="http://www.w3.org/2000/svg" viewBox="0 0 219.8 138.5" height="138.5" width="219.8"> <path class="only-light-background" d="m 138.9,69.5 c 0,-17.3 -1.4,-35.6 17.3,-35.6 18.7,0 17.8,18.3 17.8,35.6 0,16.9 0.9,35.2 -17.8,35.2 -18.7,0 -17.3,-18.3 -17.3,-35.2 l 0,0 z M 22,22 l 0,94.5 175.8,0 0,-94.5 L 22,22 Z m 4.1,3.4 168.2,0 0,87 0,0.7 -168.9,0 0,-87 0.7,0.7 0,-1.4 z m 0.7,1.4 0,84.9 166.1,0 0,-84.9 -166.1,0 z m 38.1,4.8 c 11.9,0 17.8,6.4 17.8,6.4 l 5.5,-5 1.4,0 0.4,20.5 -2.3,0 C 87.7,53.5 85.5,33 65.8,33 47.6,33 46.2,50.3 46.2,64 c 0,22.4 2.3,40.7 20.5,40.7 19.7,0 22.9,-20.6 22.9,-20.6 l 1.8,0 0,21 -1.4,0 -4.1,-4.1 c 0,0 -8.2,5.5 -19.2,5.5 C 47.1,106.5 32.5,90 32.5,70 32.5,49 46.2,31.6 64.9,31.6 Z m 91.3,0.5 c 19.2,0 31.1,21 31.1,37.4 0,16.4 -11.9,37.4 -31.1,37.4 -18.7,0 -31,-21 -31,-37.4 0,-16.4 12.3,-37.4 31,-37.4 z m -60.7,0.9 29.7,0 0,1.8 -9.2,0 0,68 9.2,0 0,2.3 -29.7,0 0,-2.3 9.1,0 0,-68 -9.1,0 0,-1.8 z"></path>
<path class="only-dark-background" style="display:none" d="m 26.8,26.8 0,84.9 166.1,0 0,-84.9 -166.1,0 z m -0.7,-1.4 168.2,0 0,87 0,0.7 -168.9,0 0,-87 0.7,0.7 0,-1.4 z m 38.8,6.2 c 11.9,0 17.8,6.4 17.8,6.4 l 5.5,-5 1.4,0 0.4,20.5 -2.3,0 C 87.7,53.5 85.5,33 65.8,33 47.6,33 46.2,50.3 46.2,64 c 0,22.4 2.3,40.7 20.5,40.7 19.7,0 22.9,-20.6 22.9,-20.6 l 1.8,0 0,21 -1.4,0 -4.1,-4.1 c 0,0 -8.2,5.5 -19.2,5.5 C 47.1,106.5 32.5,90 32.5,70 32.5,49 46.2,31.6 64.9,31.6 Z m 91.3,0.5 c -18.7,0 -31,21 -31,37.4 0,16.4 12.3,37.4 31,37.4 19.2,0 31.1,-21 31.1,-37.4 0,-16.4 -11.9,-37.4 -31.1,-37.4 z m 0,1.8 c 18.7,0 17.8,18.3 17.8,35.6 0,16.9 0.9,35.2 -17.8,35.2 -18.7,0 -17.3,-18.3 -17.3,-35.2 0,-17.3 -1.4,-35.6 17.3,-35.6 z M 95.5,33 l 29.7,0 0,1.8 -9.2,0 0,68 9.2,0 0,2.3 -29.7,0 0,-2.3 9.1,0 0,-68 -9.1,0 0,-1.8 z"></path>
   </svg>