<svg xmlns="http://www.w3.org/2000/svg"  height="450" width="800" viewBox="0 0 800 450" class="feature-company-logo">
  <path class="logotext logotype" d="m 754.7,401.8 3.7,0 5.1,14 0.1,0 4.9,-14 3.6,0 0,17 -2.4,0 0,-13.9 -0.1,0 -5.1,13.9 -2.3,0 -5,-13.9 -0.1,0 0,13.9 -2.4,0 0,-17 z m -1.2,0 0,2 -5.8,0 0,15 -2.4,0 0,-15 -5.8,0 0,-2 14,0 z m 18.6,-251.3 c 0,-8.9 -7.2,-16.1 -16.1,-16.1 -8.9,0 -16.2,7.2 -16.2,16.1 l 0,34 c 0,8.9 7.3,16.2 16.2,16.2 8.9,0 16.1,-7.3 16.1,-16.2 l 0,-34 z M 683.3,106 c 0,-8.95 -7.2,-16.19 -16.4,-16.19 -8.9,0 -16.1,7.24 -16.1,16.19 l 0,78.5 c 0,8.9 7.2,16.2 16.1,16.2 9.2,0 16.4,-7.3 16.4,-16.2 l 0,-78.5 z M 594.2,45 c 0,-8.91 -7.2,-16.15 -16.1,-16.15 -8.9,0 -16.2,7.24 -16.2,16.15 l 0,171.7 c 0,9 7.3,16.2 16.2,16.2 8.9,0 16.1,-7.2 16.1,-16.2 l 0,-171.7 z m -89,61 c 0,-8.95 -7.2,-16.19 -16.2,-16.19 -8.9,0 -16.1,7.24 -16.1,16.19 l 0,78.5 c 0,8.9 7.2,16.2 16.1,16.2 9,0 16.2,-7.3 16.2,-16.2 l 0,-78.5 z m -89,44.5 c 0,-8.9 -7.3,-16.1 -16.2,-16.1 -8.9,0 -16.2,7.2 -16.2,16.1 l 0,34 c 0,8.9 7.3,16.2 16.2,16.2 8.9,0 16.2,-7.3 16.2,-16.2 l 0,-34 z M 327.3,106 c 0,-8.95 -7.3,-16.19 -16.2,-16.19 -9,0 -16.3,7.24 -16.3,16.19 l 0,78.5 c 0,8.9 7.3,16.2 16.3,16.2 8.9,0 16.2,-7.3 16.2,-16.2 l 0,-78.5 z m -89,-61 c 0,-8.91 -7.3,-16.15 -16.2,-16.15 -9,0 -16.2,7.24 -16.2,16.15 l 0,171.7 c 0,9 7.2,16.2 16.2,16.2 8.9,0 16.2,-7.2 16.2,-16.2 l 0,-171.7 z m -89,61 c 0,-8.95 -7.3,-16.19 -16.2,-16.19 -9,0 -16.2,7.24 -16.2,16.19 l 0,78.5 c 0,8.9 7.2,16.2 16.2,16.2 8.9,0 16.2,-7.3 16.2,-16.2 l 0,-78.5 z m -89.04,44.5 c 0,-8.9 -7.27,-16.1 -16.19,-16.1 -8.93,0 -16.21,7.2 -16.21,16.1 l 0,34 c 0,8.9 7.28,16.2 16.21,16.2 8.92,0 16.19,-7.3 16.19,-16.2 l 0,-34 z M 394.8,318.9 c -0.5,-0.1 -14.3,-3.9 -25.6,-3.9 -13,0 -20.1,4.3 -20.1,10.6 0,7.8 9.6,10.6 14.9,12.3 l 9,2.8 c 21.2,6.8 30.9,21.3 30.9,37 0,32.5 -28.6,43.4 -53.6,43.4 -17.3,0 -33.6,-3.1 -35.2,-3.5 l 0,-29.8 c 2.9,0.8 16.6,4.9 30.8,4.9 16.2,0 23.7,-4.8 23.7,-12.1 0,-6.6 -6.4,-10.4 -14.5,-12.9 -2,-0.7 -5,-1.6 -7,-2.3 -18.2,-5.7 -33.3,-16.4 -33.3,-37.8 0,-24.2 18.1,-40.4 48.2,-40.4 15.8,0 30.8,3.8 31.8,4.1 l 0,27.6 z m 242,1.3 c -19.4,0 -33.7,15.2 -33.7,34 0,18.8 14.3,34 33.7,34 19.4,0 33.8,-15.2 33.8,-34 0,-18.8 -14.4,-34 -33.8,-34 m 68.3,34 c 0,37 -28.5,66.9 -68.3,66.9 -39.8,0 -68.3,-29.9 -68.3,-66.9 0,-37 28.5,-67 68.3,-67 39.8,0 68.3,30 68.3,67 M 193.5,326.6 c -1.3,-0.7 -11.8,-6.9 -27.4,-6.9 -21.2,0 -35.8,14.7 -35.8,34.5 0,19.2 14,34.5 35.8,34.5 15.3,0 26,-6.1 27.4,-6.9 l 0,34.7 c -4.1,1.2 -15.2,4.6 -29.8,4.6 -36.7,0 -68.83,-25.3 -68.83,-66.9 0,-38.7 29.13,-67 68.83,-67 15.4,0 26.7,3.7 29.8,4.7 l 0,34.7 z m 340.6,0 c -1.3,-0.7 -11.8,-6.9 -27.4,-6.9 -21.1,0 -35.7,14.7 -35.7,34.5 0,19.2 14,34.5 35.7,34.5 15.3,0 26,-6.1 27.4,-6.9 l 0,34.7 c -4,1.2 -15.2,4.6 -29.7,4.6 -36.7,0 -68.9,-25.3 -68.9,-66.9 0,-38.7 29.1,-67 68.9,-67 15.3,0 26.7,3.7 29.7,4.7 l 0,34.7 z m -263.1,92.2 -32.6,0 0,-129.3 32.6,0 0,129.3 z"></path>
  </svg>
