<?xml version="1.0"?>

<svg xmlns:dc="http://purl.org/dc/elements/1.1/" xmlns:cc="http://creativecommons.org/ns#" xmlns:rdf="http://www.w3.org/1999/02/22-rdf-syntax-ns#" xmlns:svg="http://www.w3.org/2000/svg" xmlns="http://www.w3.org/2000/svg" viewBox="0 0 339.9 121.2" id="svg4965" height="121.2" width="339.9" version="1.1">
  <defs id="defs4967"></defs>
  <path d="M 141.1,42.17 C 131.9,29.55 117.2,22 102.1,22 87.11,22 72.31,29.55 63.43,42.17 l -0.49,0.65 h 11.1 0.24 c 7.65,-7.9 17.51,-12.07 27.82,-12.07 10.4,0 20.2,4.17 27.9,12.07 h 0.2 11.1 z M 290.5,32.5 v 45.4 l 3.2,-4.74 c 0,0 13.6,-19.71 15.3,-22.24 h 6.2 c -1.5,1.74 -12.1,16.5 -12.1,16.5 0,0 14,29.12 14.8,30.77 H 312 C 311.5,97.5 299.6,72.1 299.6,72.1 l -9.1,12.56 v 13.53 h -5.4 v -62.5 c 0.5,-0.27 4.2,-2.44 5.4,-3.19 z m -45.6,24.05 c 2.9,-4.29 7.4,-6.65 12.6,-6.65 10.6,0 16,6.7 16,19.35 V 98.2 h -5.4 V 70.45 c 0,-10.76 -4,-15.78 -11.9,-15.78 -7.9,0 -12.5,5.9 -12.5,15.78 v 27.74 h -5.5 V 50.92 h 5.5 v 7.33 z M 210.6,49.9 c 10.9,0 16,4.95 16,15.08 V 98.2 h -5.4 V 91.29 L 220,92.5 c -4,4.51 -8.6,6.71 -14.3,6.71 -4.5,0 -14.6,-1.43 -14.6,-14.9 0,-11 9.2,-14.92 17.5,-14.92 4.5,0 8.7,0.99 11.6,2.71 l 1,0.5 v -6.78 c 0,-7.53 -3.7,-11.35 -11.1,-11.35 -4.4,0 -8.4,1.14 -12.6,3.48 -0.2,-0.84 -1.7,-3.67 -1.9,-4.49 4.2,-2.29 9.6,-3.57 15,-3.56 z m -14,33.94 c 0,7.09 3.7,10.98 10.3,10.98 5.7,0 10.6,-2.68 14.1,-7.54 l 0.2,-0.25 V 76.67 l -0.5,-0.25 c -3.4,-2.02 -7.1,-2.84 -12.3,-2.84 -7.4,0 -11.8,3.8 -11.8,10.14 z m -43,-51.33 v 25.3 l 1,-1.18 c 4.2,-4.51 8.7,-6.73 13.8,-6.73 10.6,0 16.6,8.7 16.6,23.87 0,15.46 -6.9,25.44 -17.3,25.44 -5.2,0 -9.4,-1.98 -13.1,-6.23 l -1,-1.27 V 98.2 H 148 V 35.69 c 0.5,-0.27 4.2,-2.44 5.6,-3.18 z m 0,29.42 v 0.25 24.61 0.24 c 3.3,4.76 8.2,7.59 13.4,7.59 8.3,0 12.5,-6.92 12.5,-20.59 0,-12.18 -4.6,-19.18 -12.8,-19.18 -4.7,0 -9.1,2.43 -13.1,7.25 m -28.3,36.1 h 9.9 V 50.6 h -9.9 z m -7.9,-10.36 c -2.7,1.6 -5.1,2.39 -7.4,2.39 -2.9,0 -4.4,-1.65 -4.4,-5.38 V 59.64 h 9.9 v -8.98 h -9.9 V 35.85 l -9.62,5.12 v 9.69 h -8.13 v 8.98 h 8.13 v 26.84 c 0,7.3 4.42,12.31 10.82,12.44 4.5,0 6.9,-1.21 8.7,-2.17 v 0 l 2.4,-9.18 z M 69.35,98.19 h 9.86 V 50.6 h -9.86 z m -11.1,-14 -0.24,0.24 c -3.46,3.51 -7.4,5.38 -11.35,5.38 -8.63,0 -15.04,-6.44 -15.04,-15.31 0,-8.88 6.41,-15.32 15.04,-15.32 3.95,0 7.89,1.88 11.35,5.38 l 0.24,0.25 5.68,-6.69 -0.25,-0.24 c -4.69,-5.42 -10.11,-8.06 -16.77,-8.06 -6.9,0 -13.07,2.29 -17.51,6.4 -4.93,4.47 -7.4,10.76 -7.4,18.23 0,7.44 2.47,13.76 7.4,18.22 4.44,4.14 10.61,6.41 17.51,6.41 6.66,0 12.08,-2.64 16.77,-8.06 l 0.25,-0.25 z" id="path1284"></path>
  <metadata id="metadata4180">
    <rdf:rdf>
      <cc:work rdf:about="">
        <dc:title></dc:title>
      </cc:work>
    </rdf:rdf>
  </metadata>
</svg>
