<?xml version="1.0"?>

<svg xmlns="http://www.w3.org/2000/svg" viewBox="0 0 119.97 53.269" height="53.269" width="119.97"><path d="m 82.649,15.357 v 22.54 H 75.89 v -3.089 -16.341 -3.11 z m -57.324,3.117 -3.562,5.75 c -1,-1.662 -2.963,-2.737 -4.963,-2.737 -2.838,0 -4.913,2.312 -4.913,5.15 0,2.837 2.075,5.15 4.913,5.15 2,0 3.963,-1.075 4.963,-2.737 l 3.562,5.761 c -2.15,2.24 -5.175,3.631 -8.513,3.631 C 10.288,38.442 5,33.162 5,26.637 5,20.125 10.288,14.824 16.812,14.824 c 3.351,0 6.363,1.4 8.513,3.65 z M 30.763,5 C 33.112,5 35,6.9 35,9.225 c 0,2.35 -1.9,4.25 -4.237,4.25 -2.35,0 -4.238,-1.9 -4.238,-4.25 C 26.525,6.9 28.413,5 30.763,5 Z m 3.387,10.363 v 22.538 h -6.762 v -3.09 -16.336 -3.112 z m 1.812,5.887 V 15.363 H 52.975 V 21.25 H 47.837 V 37.901 H 41.1 V 21.25 Z M 67.5,28.925 74.388,37.9 h -8.525 l -4.3,-6.725 V 37.9 H 54.8 V 15.363 h 8.863 c 2.637,0 4.762,0.736 6.162,2.137 1.25,1.25 1.887,2.937 1.887,5.038 0,3.1 -1.637,5.5 -4.212,6.387 z m -1.85,-6.051 c 0,-0.75 -0.187,-1.312 -0.6,-1.724 -0.8,-0.801 -2.338,-0.913 -3.488,-0.926 v 5.313 c 2.9,0 4.088,-0.8 4.088,-2.663 z m 13.613,16.927 c 2.337,0 4.237,1.89 4.237,4.23 0,2.34 -1.9,4.238 -4.237,4.238 -2.338,0 -4.238,-1.9 -4.238,-4.238 0,-2.34 1.9,-4.23 4.238,-4.23 z M 82.65,15.363 H 75.875 Z M 92.85,25.7 85.925,15.362 H 94.2 l 2.662,4.775 3.1,-4.775 h 8.298 l -7.46,10.363 7.84,12.175 h -8.11 L 96.763,31.262 92,37.9 h -8.188 z m 20.63,-6.2 h -0.5 c 0,-0.125 0,-0.212 0,-0.375 0,-0.65 -0.2,-0.813 -0.75,-0.813 h -0.54 V 19.5 h -0.48 v -3 h 1.02 c 0.63,0 1.28,0.137 1.28,0.875 0,0.5 -0.38,0.675 -0.74,0.724 0.46,0.125 0.68,0.375 0.68,0.901 0,0.212 0,0.425 0,0.5 z m -0.53,-2.125 c 0,-0.35 -0.3,-0.513 -0.76,-0.513 h -0.54 v 1.088 h 0.54 c 0.49,0 0.76,-0.188 0.76,-0.575 z m -0.7,-2.1 c 1.5,0 2.72,1.225 2.72,2.737 0,1.512 -1.22,2.725 -2.72,2.725 -1.51,0 -2.75,-1.212 -2.75,-2.724 0,-1.512 1.24,-2.737 2.75,-2.738 z m 2.36,2.737 c 0,-1.3 -1.06,-2.375 -2.36,-2.375 -1.31,0 -2.38,1.075 -2.38,2.375 0,1.312 1.07,2.362 2.38,2.362 1.31,0 2.36,-1.05 2.36,-2.362 z"></path></svg>