<?xml version="1.0"?>

<svg xmlns="http://www.w3.org/2000/svg" viewBox="0 0 490 166.7" height="166.7" width="490">  <path d="m 86,55 c 3,2.7 5,6.2 6,10.2 l 0,0 9,0 L 90,55 86,55 Z m -5,0 0,10.2 10,0 C 89,61 86,57.5 83,55 l 0,0 -2,0 z m -4,0 c -3,2.5 -6,6 -8,10.2 l 0,0 10,0 0,-10.2 -2,0 z m -7,0 -11,10.2 9,0 c 1,-4 3,-7.5 6,-10.2 l 0,0 -4,0 z m 23,12 c 1,3.6 2,7.5 2,11.7 l 0,0 10,0 0,-9.4 -3,-2.3 -9,0 z m -12,0 0,11.7 12,0 C 93,74.5 93,70.5 91,67 l 0,0 -10,0 z m -12,0 c -2,3.5 -2,7.5 -2,11.7 l 0,0 12,0 0,-11.7 -10,0 z m -11,0 -3,2.3 0,9.4 10,0 c 0,-4.2 1,-8.1 2,-11.7 l 0,0 -9,0 z m 37,13.5 c 0,4.2 -1,8.1 -2,11.7 l 0,0 9,0 3,-2.2 0,-9.5 -10,0 z m -14,0 0,11.7 10,0 c 2,-3.5 2,-7.5 2,-11.7 l 0,0 -12,0 z m -14,0 c 0,4.2 0,8.2 2,11.7 l 0,0 10,0 0,-11.7 -12,0 z m -12,0 0,9.5 3,2.2 9,0 C 66,88.6 65,84.7 65,80.5 l 0,0 -10,0 z M 92,94 c -1,4.1 -4,7.6 -6,10.3 l 0,0 4,0 11,-10.3 -9,0 z m -11,0 0,10.3 2,0 c 3,-2.5 6,-6.1 8,-10.3 l 0,0 -10,0 z m -12,0 c 2,4.2 5,7.8 8,10.3 l 0,0 2,0 0,-10.3 -10,0 z m -10,0 11,10.3 4,0 C 72,101.6 69,98.1 68,94 l 0,0 -9,0 z m 343,-25.7 7,0 0,5.3 c 3,-3.3 6,-6 11,-6 8,0 15,6 15,16.6 l 0,0.1 c 0,10.5 -7,16.5 -15,16.5 -5,0 -8,-2.6 -11,-5.6 l 0,16.5 -7,0 0,-43.4 z m 26,16 0,-0.1 C 428,78 423,74 418,74 c -5,0 -9,4.1 -9,10.2 l 0,0.1 c 0,6.1 4,10.2 9,10.2 5,0 10,-3.9 10,-10.2 m -62,4.5 0,-20.3 7,0 0,18.1 c 0,5 3,7.8 7,7.8 4,0 7,-2.9 7,-7.9 l 0,-18 8,0 0,31.9 -8,0 0,-5 c -2,3 -5,5.6 -10,5.6 -7,0 -11,-4.8 -11,-12.2 m -39,-4.2 0,-0.1 c 0,-9.1 7,-16.7 17,-16.7 10,0 17,7.5 17,16.6 l 0,0.1 c 0,9 -7,16.6 -17,16.6 -10,0 -17,-7.5 -17,-16.5 m 27,0 0,-0.1 c 0,-5.6 -4,-10.3 -10,-10.3 -6,0 -10,4.6 -10,10.2 l 0,0.1 c 0,5.5 4,10.2 10,10.2 6,0 10,-4.6 10,-10.1 m -49,-16.1 7,0 0,7.2 c 2,-4.8 6,-8 12,-7.8 l 0,7.7 -1,0 c -6,0 -11,4.2 -11,12.6 l 0,12.1 -7,0 0,-31.8 z m -47,10.9 0,-0.1 c 0,-11.8 9,-21.8 22,-21.8 7,0 12,2 16,5.7 l -5,5.6 c -3,-2.8 -6,-4.5 -12,-4.5 -7,0 -13,6.8 -13,14.9 l 0,0.1 c 0,8.7 6,15.1 14,15.1 4,0 8,-1.3 10,-3.2 l 0,-7.9 -10,0 0,-6.5 18,0 0,17.7 c -5,3.6 -11,6.6 -18,6.6 -13,0 -22,-9.4 -22,-21.7 m -47,-21.3 31,0 0,6.6 -24,0 0,11 22,0 0,6.6 -22,0 0,11.4 25,0 0,6.6 -32,0 0,-42.2 z m -50,0 8,0 13,20 13,-20 7,0 0,42.2 -7,0 0,-30.3 -13,19.9 0,0 -14,-19.7 0,30.1 -7,0 0,-42.2 z m -45,21.3 0,-0.1 c 0,-12 9,-21.8 22,-21.8 8,0 12,2.7 16,6.5 l -4,5.5 c -4,-3.1 -7,-5.2 -12,-5.2 -8,0 -14,6.6 -14,14.9 l 0,0.1 c 0,8.2 6,15 14,15 5,0 8,-2.1 12,-5.5 l 5,4.8 c -5,4.6 -10,7.5 -18,7.5 -12,0 -21,-9.6 -21,-21.7"></path> </svg>