<?xml version="1.0"?>

<svg xmlns:dc="http://purl.org/dc/elements/1.1/" xmlns:cc="http://creativecommons.org/ns#" xmlns:rdf="http://www.w3.org/1999/02/22-rdf-syntax-ns#" xmlns:svg="http://www.w3.org/2000/svg" xmlns="http://www.w3.org/2000/svg" viewBox="0 0 271.5 359.7" height="359.7" width="271.5" xml:space="preserve" version="1.1" id="svg4141"><metadata id="metadata4147"><rdf:rdf><cc:work rdf:about=""><dc:format>image/svg+xml</dc:format><dc:type rdf:resource="http://purl.org/dc/dcmitype/StillImage"></dc:type><dc:title></dc:title></cc:work></rdf:rdf></metadata><defs id="defs4145"></defs><path d="M 135.7,22 C 72.93,22 22,72.9 22,135.6 c 0,62.8 50.93,113.7 113.7,113.7 62.8,0 113.8,-50.9 113.8,-113.7 C 249.5,72.9 198.5,22 135.7,22 Z m -42.88,52.4 7.98,0 0,129 -7.98,0 0,-129 z m 109.88,15.8 11.1,0 0,16.9 -0.2,0.1 10.8,0 0,8 -10.6,0 0,0 0,43.8 c 0.2,4.2 2.8,5.6 5.8,5.6 2.2,-0.2 6.6,0 6.6,0 l 0,8 c 0,0 -8.6,0 -10.3,0.1 -3.7,0 -7,-1.7 -6,-1.2 -5,-2.4 -6.8,-7.5 -7.2,-13.5 l 0,-67.8 z M 67.58,105.3 c 9.15,0.1 18.21,5.5 17.89,16.3 l 0,6.5 -10.76,0 -0.13,-7.1 c 0,-7.9 -14.11,-7.8 -14.26,0.5 l 0,-0.5 0,37.9 c 0.15,8.1 14.23,8 14.23,0 l 0,-8.5 10.94,0 0,7.8 c 0.63,21.6 -36.39,21.2 -36.1,0 l 0,-37.2 c -0.14,-10.5 9.05,-15.7 18.17,-15.7 z m 108.22,0 c 9.3,0.1 18.4,5.5 18,16.3 l 0,17.9 c 0,1 -0.7,2 -2.1,2 l -23,0 0,17.4 c 0,8.1 14.3,8 14.3,0 l 0,-8.4 10.8,0 0,7.7 c 0.7,21.6 -36.5,21.2 -36,0 l 0,-37.2 c -0.2,-10.5 9,-15.7 18,-15.7 z m -41,0.7 c 3.7,0 6.2,1.4 5.6,1.1 4.7,2.2 6.8,7.4 7,13.4 l 0,44.1 7,0 0,8 -17.9,0 0,-52.6 c 0,-7.8 -13.3,-7.5 -13.3,0.3 l 0,52.3 -15.8,0 0,-8 5,0 0,-49.4 -6.1,0 0,-8.1 15.5,0 0,6 c 0,0 2,-2.9 6.9,-5.7 2.1,-1.1 4.3,-1.4 6.1,-1.4 z m 40.9,9 c -3.4,0 -7,2 -7,6 l 0,12.3 14.3,0 0,-12.3 c 0,-3.9 -3.7,-6 -7.3,-6 z m 29.6,167.3 0,4.9 0.2,0 c 1.1,-2 2.6,-3.6 4.4,-4.5 1.8,-1 3.9,-1.5 6.2,-1.5 3.5,0 6.1,1 7.9,2.8 1.9,1.9 2.8,5 2.8,9.2 l 0,31 -10.7,0 0,-28.9 c 0,-2.1 -0.4,-3.7 -1.1,-4.5 -0.8,-0.9 -1.9,-1.3 -3.5,-1.3 -3.8,0 -5.7,2.3 -5.7,6.9 l 0,27.8 -10.8,0 0,-41.9 10.3,0 m -30.5,22.3 c -0.8,0.4 -1.6,0.6 -2.3,0.8 -2.1,0.5 -3.7,1.2 -4.6,2.3 -1,1.1 -1.4,2.6 -1.4,4.5 0,1.6 0.3,2.9 0.9,4.1 0.6,1.1 1.7,1.7 3.1,1.7 0.7,0 1.5,-0.1 2.3,-0.3 0.7,-0.3 1.5,-0.7 2.1,-1.2 0.7,-0.5 1.2,-1.2 1.6,-2 0.4,-0.8 0.6,-1.8 0.6,-3 l 0,-8.2 c -0.7,0.6 -1.5,1 -2.3,1.3 z m -17.3,-10.4 c 0,-2.5 0.4,-4.5 1.2,-6.1 0.7,-1.7 1.8,-3 3.1,-4 1.3,-1 2.9,-1.8 4.7,-2.2 1.8,-0.4 3.7,-0.7 5.7,-0.7 3.2,0 5.8,0.4 7.8,1 2,0.6 3.5,1.5 4.6,2.6 1.1,1.2 1.8,2.5 2.2,4.1 0.4,1.6 0.6,3.3 0.6,5.2 l 0,22 c 0,2 0.1,3.5 0.3,4.6 0.2,1.1 0.5,2.3 1,3.5 l -10.3,0 c -0.3,-0.6 -0.6,-1.4 -0.8,-2.1 -0.2,-0.8 -0.3,-1.5 -0.5,-2.2 l -0.1,0 c -1.3,2.2 -2.7,3.6 -4.4,4.2 -1.6,0.7 -3.7,1 -6.3,1 -1.9,0 -3.5,-0.3 -4.7,-1 -1.3,-0.6 -2.4,-1.5 -3.2,-2.7 -0.7,-1.1 -1.3,-2.4 -1.7,-3.8 -0.3,-1.5 -0.5,-2.9 -0.5,-4.3 0,-1.9 0.2,-3.6 0.6,-5.1 0.4,-1.4 1.1,-2.6 1.9,-3.6 0.9,-1 2,-1.9 3.3,-2.6 1.3,-0.6 2.9,-1.2 4.8,-1.8 l 6,-1.6 c 1.7,-0.4 2.8,-1 3.4,-1.7 0.6,-0.7 0.9,-1.8 0.9,-3.2 0,-1.6 -0.4,-2.9 -1.1,-3.8 -0.8,-0.9 -2,-1.3 -3.9,-1.3 -1.6,0 -2.9,0.5 -3.7,1.4 -0.8,1 -1.2,2.4 -1.2,4 l 0,1.2 -9.7,0 0,-1 m -27.1,19.4 c 0.7,2.3 2.3,3.5 4.7,3.5 2.3,0 3.8,-1.2 4.5,-3.5 0.7,-2.3 1.1,-5.7 1.1,-10.3 0,-4.6 -0.4,-8 -1.1,-10.3 -0.7,-2.3 -2.2,-3.5 -4.5,-3.5 -2.4,0 -4,1.2 -4.7,3.5 -0.7,2.3 -1,5.7 -1,10.3 0,4.6 0.3,8 1,10.3 z m -1.5,-31.3 0,4.5 0.2,0 c 1.2,-2 2.5,-3.4 4,-4.3 1.5,-0.8 3.3,-1.3 5.5,-1.3 4.4,0 7.6,1.8 9.7,5.2 2.1,3.5 3.1,9.1 3.1,16.9 0,7.8 -1,13.4 -3.1,16.7 -2.1,3.4 -5.3,5.1 -9.7,5.1 -2,0 -3.8,-0.4 -5.2,-1.1 -1.4,-0.8 -2.7,-2 -3.9,-3.7 l -0.1,0 0,17.4 -10.8,0 0,-55.4 10.3,0 m -30.54,22.3 c -0.83,0.4 -1.58,0.6 -2.25,0.8 -2.19,0.5 -3.74,1.2 -4.68,2.3 -0.93,1.1 -1.4,2.6 -1.4,4.5 0,1.6 0.31,2.9 0.94,4.1 0.62,1.1 1.66,1.7 3.11,1.7 0.73,0 1.48,-0.1 2.26,-0.3 0.78,-0.3 1.49,-0.7 2.14,-1.2 0.65,-0.5 1.18,-1.2 1.62,-2 0.4,-0.8 0.6,-1.8 0.6,-3 l 0,-8.2 c -0.73,0.6 -1.51,1 -2.34,1.3 z M 81.08,294.2 c 0,-2.5 0.38,-4.5 1.16,-6.1 0.78,-1.7 1.83,-3 3.16,-4 1.32,-1 2.88,-1.8 4.67,-2.2 1.79,-0.4 3.7,-0.7 5.72,-0.7 3.22,0 5.81,0.4 7.81,1 2,0.6 3.5,1.5 4.6,2.6 1.1,1.2 1.8,2.5 2.2,4.1 0.4,1.6 0.6,3.3 0.6,5.2 l 0,22 c 0,2 0.1,3.5 0.3,4.6 0.1,1.1 0.5,2.3 1,3.5 l -10.3,0 c -0.3,-0.6 -0.6,-1.4 -0.8,-2.1 -0.2,-0.8 -0.3,-1.5 -0.5,-2.2 l -0.2,0 c -1.2,2.2 -2.64,3.6 -4.28,4.2 -1.63,0.7 -3.75,1 -6.34,1 -1.87,0 -3.46,-0.3 -4.76,-1 -1.29,-0.6 -2.33,-1.5 -3.11,-2.7 -0.78,-1.1 -1.35,-2.4 -1.71,-3.8 -0.37,-1.5 -0.55,-2.9 -0.55,-4.3 0,-1.9 0.21,-3.6 0.62,-5.1 0.42,-1.4 1.06,-2.6 1.91,-3.6 0.86,-1 1.95,-1.9 3.27,-2.6 1.33,-0.6 2.92,-1.2 4.79,-1.8 l 6.08,-1.6 c 1.61,-0.4 2.72,-1 3.34,-1.7 0.64,-0.7 0.94,-1.8 0.94,-3.2 0,-1.6 -0.4,-2.9 -1.13,-3.8 -0.75,-0.9 -2.04,-1.3 -3.85,-1.3 -1.67,0 -2.91,0.5 -3.74,1.4 -0.83,1 -1.25,2.4 -1.25,4 l 0,1.2 -9.65,0 0,-1 m -6.94,14.5 c 0,5.9 -1.37,10.1 -4.12,12.6 -2.76,2.5 -6.96,3.8 -12.62,3.8 -2.96,0 -5.39,-0.4 -7.28,-1.2 -1.9,-0.8 -3.4,-2 -4.52,-3.4 -1.11,-1.5 -1.88,-3.3 -2.29,-5.2 -0.42,-2 -0.63,-4.1 -0.63,-6.3 l 0,-2.4 10.28,0 0,1.7 c 0,3 0.33,5.2 0.98,6.6 0.64,1.5 1.98,2.2 4.01,2.2 2.02,0 3.36,-0.7 4.01,-2.2 0.65,-1.4 0.97,-3.6 0.97,-6.6 l 0,-39.7 11.21,0 0,40.1" style="stroke-width:1.139" id="rect5107"></path></svg>