<?xml version="1.0"?>

<svg xmlns="http://www.w3.org/2000/svg" viewBox="0 0 1000 1000" width="1000" height="1000">
   <path d="M 500,51 C 252,51 51,252 51,500 51,748 252,949 500,949 748,949 949,748 949,500 949,252 748,51 500,51 Z m -169.4,207.3 31.4,0 0,509.8 -31.4,0 0,-509.8 z m 433.4,62.2 44,0 0,67 -1,0.5 43,0 0,31.2 -42,0 0,0.4 0,172.5 c 1,16.6 11,22.1 23,22 9,-0.1 26,0.1 26,0.1 l 0,32 c 0,0 -34,0 -41,0.1 -14,0.1 -27,-6.4 -23,-4.7 -20,-8.7 -27,-29.6 -29,-52.9 l 0,-268.2 z m -533.1,59.8 c 36.1,0.3 72,21.6 70.6,64.3 l 0,25.5 -42.5,0 -0.5,-27.6 c 0,-31.9 -55.7,-30.9 -56.3,1.6 l 0.1,-1.6 0,149 c 0.6,32.5 56.2,31.9 56.2,0 l 0,-32.9 43.2,0 0,30.8 c 2.6,85.3 -143.7,83.2 -142.5,0 l 0,-146.9 c -0.6,-41.6 35.7,-62.4 71.7,-62.2 z m 427.5,0 c 36.1,0.3 72.1,21.6 70.6,64.4 l 0,70.4 c 0,4.4 -3,8 -8,8 l -91,-0.1 0,68.5 c 0,32.5 56,31.9 56,0 l 0,-32.8 43,0 0,30.7 c 3,85.3 -144,83.2 -142,0 l 0,-146.9 c -1,-41.6 35.2,-62.4 71.4,-62.2 z m -161.8,2.5 c 14.2,0.1 24,5.7 21.4,4.7 19,8.5 27,29.4 28,52.7 l 0,174 28,0 0,32 -71,0 0,-208 c 0,-30.3 -52,-29.4 -52,1.4 l 0,206.6 -63,0 0,-32 20,0 0,-194.8 -24,-0.2 0,-31.7 61,0 0,23.3 c 0,0 8,-11 27,-21.8 8.6,-4.7 17.2,-6.2 24.6,-6.2 z M 658,418.5 c -14,-0.1 -28,7.8 -28,23.8 l 0,48.3 56,-0.1 0,-48 c 0,-15.9 -14,-24 -28,-24 z"></path>

</svg>
