<?xml version="1.0"?>

<!-- Generator: Adobe Illustrator 19.1.0, SVG Export Plug-In . SVG Version: 6.00 Build 0)  -->
<svg version="1.1" id="Layer_1" xmlns="http://www.w3.org/2000/svg" xmlns:xlink="http://www.w3.org/1999/xlink" x="0px" y="0px" width="600px" height="400px" viewBox="0 0 600 400" enable-background="new 0 0 600 400" xml:space="preserve">
<path d="M496.666,165.446c1.995-2.694,3.71-5.046,5.466-7.368c0.989-1.307,2.001-2.601,3.075-3.839
	c4.352-5.016,9.264-9.437,14.72-13.2c3.945-2.721,8.272-4.788,13.073-5.461c2.295-0.322,4.698-0.254,6.914,0.617
	c3.423,1.345,4.908,4.216,5.143,7.634c0.349,5.065-0.491,10.055-1.366,15.043c-0.356,2.029-0.874,4.069-0.846,6.192
	c1.839-2.717,3.753-5.336,5.809-7.85c3.092-3.78,6.362-7.371,10.051-10.607c3.199-2.807,6.517-5.39,10.217-7.494
	c4.261-2.424,8.766-4.038,13.721-3.548c4.188,0.415,6.967,2.504,7.808,7.195c0.628,3.501,0.192,6.962-0.241,10.448
	c-0.475,3.82-1.279,7.579-1.859,11.379c-0.404,2.646-1.038,5.255-1.542,7.887c-0.616,3.217-1.024,6.463-1.456,9.71
	c-0.303,2.278-0.299,4.564-0.454,6.833c-0.257,3.761,0.542,7.47,1.801,11.04c0.569,1.612,1.059,3.266,1.968,4.736
	c0.503,0.814,0.225,1.463-0.347,2.058c-2.017,2.102-4.471,3.296-7.397,3.347c-2.166,0.038-4.374,0.313-6.378-0.938
	c-2.673-1.669-3.681-4.31-4.236-7.185c-0.628-3.257-0.464-6.582-0.246-9.843c0.279-4.172,0.941-8.319,1.64-12.458
	c0.909-5.389,2.149-10.708,3.07-16.093c0.547-3.199,0.895-6.406,1.164-9.631c0.087-1.047-0.215-2.029-0.415-3.01
	c-0.555-2.731-2.957-2.721-5.01-2.268c-3.416,0.754-5.932,3.017-8.576,5.055c-2.144,1.652-4.024,3.605-5.864,5.578
	c-5.038,5.4-9.394,11.317-13.219,17.634c-2.9,4.79-5.17,9.846-6.68,15.241c-0.766,2.736-1.148,5.525-1.52,8.341
	c-0.334,2.534,0.027,4.875,0.652,7.261c0.181,0.692-0.078,1.012-0.844,1.315c-3.225,1.272-6.51,1.309-9.835,0.713
	c-2.211-0.396-3.556-2.93-3.58-4.788c-0.05-3.773,0.8-7.393,1.591-11.01c1.346-6.154,2.988-12.242,4.107-18.451
	c0.815-4.521,1.929-8.995,2.588-13.537c0.481-3.318,0.956-6.693,0.632-10.067c-0.309-3.223-1.896-4.017-5.398-3.258
	c-3.499,0.759-6.087,3.121-8.757,5.248c-2.949,2.349-5.585,5.062-7.998,7.966c-3.532,4.249-6.841,8.678-9.744,13.372
	c-3.055,4.939-5.664,10.119-7.282,15.746c-0.837,2.911-1.362,5.859-1.761,8.866c-0.36,2.714-0.184,5.274,0.626,7.852
	c0.187,0.596,0.041,1.011-0.795,1.34c-3.281,1.289-6.633,1.411-9.974,0.68c-2.408-0.527-3.348-2.201-3.444-4.683
	c-0.17-4.359,0.99-8.51,1.93-12.682c1.385-6.15,2.898-12.27,4.032-18.477c0.679-3.714,1.591-7.385,2.28-11.098
	c0.605-3.259,1.023-6.553,1.562-9.825c0.464-2.823,0.954-5.632,0.908-8.518c-0.029-1.821-0.302-3.541-1.209-5.125
	c-0.564-0.985-0.321-1.616,0.776-1.812c3.326-0.595,6.606-1.437,10.051-1.264c3.149,0.158,5.401,2.34,5.486,5.485
	c0.101,3.717-0.841,7.26-1.644,10.829C498.681,156.813,497.712,160.92,496.666,165.446z"></path>
<path d="M74.895,108.542c5.332,0.024,10.654,0.245,15.722,2.114c2.735,1.008,5.358,2.384,6.114,5.55
	c0.657,2.751,0.308,5.416-1.221,7.908c-1.303,2.123-3.166,3.708-4.889,5.427c-1.013,1.01-1.541,0.886-2.181-0.351
	c-2.337-4.517-6.264-7.169-10.775-9.056c-5.331-2.23-10.979-2.81-16.657-2.334c-5.262,0.441-10.091,2.382-14.32,5.627
	c-5.128,3.936-8.935,8.982-12.16,14.524c-3.808,6.542-6.081,13.64-7.444,21.02c-0.551,2.983-0.878,6.028-1.027,9.094
	c-0.106,2.199-0.246,4.4-0.203,6.598c0.154,7.858,2.887,14.637,8.985,19.73c3.253,2.717,7.075,4.364,11.403,4.908
	c3.688,0.464,7.384,0.457,10.955-0.148c5.489-0.928,10.77-2.708,15.663-5.537c3-1.735,5.749-3.792,8.482-5.885
	c0.775-0.594,0.938-0.382,1.209,0.455c1.035,3.195,0.399,5.892-1.944,8.333c-6.13,6.385-13.74,10.186-22.04,12.792
	c-3.936,1.236-7.949,2.035-12.087,2.44c-7.082,0.692-13.863-0.045-20.233-3.322c-6.681-3.437-11.276-8.768-14.074-15.736
	c-1.337-3.329-2.008-6.752-2.368-10.303c-0.773-7.626,0.322-15.01,2.272-22.366c1.634-6.164,4.045-11.991,7.052-17.567
	c2.205-4.087,4.84-7.912,7.815-11.514c1.905-2.307,3.879-4.534,6.06-6.562c4.878-4.535,10.277-8.264,16.445-10.923
	c5.231-2.255,10.631-3.623,16.254-4.343C68.762,108.725,71.815,108.503,74.895,108.542z"></path>
<path d="M384.014,108.536c5.336,0.016,10.66,0.248,15.726,2.122c2.727,1.009,5.35,2.394,6.117,5.547
	c0.669,2.751,0.335,5.435-1.231,7.903c-1.511,2.38-3.551,4.233-5.693,6.01c-0.534,0.443-0.684,0.443-1.001-0.213
	c-2.608-5.405-7.245-8.414-12.656-10.358c-4.958-1.781-10.173-2.244-15.355-1.74c-6.199,0.602-11.601,3.231-16.276,7.446
	c-6.508,5.868-10.805,13.114-13.972,21.179c-1.79,4.559-2.916,9.276-3.756,14.057c-0.391,2.226-0.522,4.528-0.716,6.801
	c-0.205,2.404-0.254,4.796-0.225,7.194c0.095,7.92,2.845,14.686,8.935,19.908c2.42,2.075,5.287,3.326,8.325,4.293
	c3.534,1.125,7.159,1.056,10.722,0.797c7.394-0.537,14.241-2.917,20.582-6.82c2.378-1.464,4.568-3.156,6.789-4.816
	c0.895-0.669,0.973-0.405,1.294,0.496c1.126,3.164,0.41,5.787-1.883,8.162c-6.131,6.348-13.713,10.185-21.996,12.807
	c-3.889,1.231-7.868,1.991-11.944,2.429c-6.177,0.663-12.139,0.061-17.949-2.117c-2.618-0.982-4.97-2.429-7.158-4.142
	c-5.125-4.012-8.439-9.268-10.39-15.415c-1.687-5.315-1.987-10.823-1.585-16.308c0.59-8.055,2.519-15.86,5.681-23.299
	c2.945-6.928,6.668-13.406,11.45-19.287c4.517-5.555,9.651-10.396,15.731-14.127c5.547-3.403,11.526-5.813,17.986-7.063
	C374.357,109.054,379.148,108.526,384.014,108.536z"></path>
<path d="M434.236,247.93c0.696,1.485,0.178,3.049,0.28,4.572c0.035,0.527-0.481,0.377-0.789,0.381c-1.23,0.016-2.461,0.016-3.692,0
	c-0.309-0.004-0.822,0.142-0.785-0.386c0.105-1.523-0.416-3.086,0.284-4.569C431.101,248.056,432.669,248.054,434.236,247.93z"></path>
<path d="M140.229,247.907c0.186-0.051,0.271,0.05,0.319,0.209c0.336,1.474-0.034,2.981,0.208,4.46
	c-1.826,0.508-3.651,0.515-5.477-0.004c0.245-1.477-0.128-2.983,0.209-4.456c0.048-0.161,0.136-0.261,0.322-0.209
	C137.283,248.067,138.756,248.067,140.229,247.907z"></path>
<path d="M279.618,257.059c0.358,0.431,0.213,0.945,0.213,1.423c0.008,10.498,0.008,20.997,0,31.495c0,0.478,0.147,0.993-0.214,1.422
	c-0.025-5.181-0.071-10.361-0.069-15.542C279.55,269.592,279.593,263.325,279.618,257.059z"></path>
<path d="M548.073,270.411c0.218-0.35,0.571-0.329,0.914-0.329c5.146,0,10.292,0,15.438,0c0.296,0,0.591,0.003,0.816,0.242
	C559.518,270.353,553.796,270.382,548.073,270.411z"></path>
<path d="M128.308,262.95c-0.475-1.57-0.105-3.177-0.206-4.763C128.7,259.752,128.302,261.36,128.308,262.95z"></path>
<path fill="#404040" d="M434.236,247.93c-1.568,0.35-3.135,0.352-4.703-0.001C431.101,247.806,432.669,247.804,434.236,247.93z"></path>
<path d="M421.136,262.654c-0.47-1.573-0.111-3.181-0.204-4.77C421.524,259.451,421.131,261.061,421.136,262.654z"></path>
<path d="M11.095,276.028c0.475,1.57,0.105,3.177,0.206,4.763C10.703,279.226,11.102,277.618,11.095,276.028z"></path>
<path d="M301.397,271.249c-0.349-1.568-0.352-3.135,0.001-4.703C301.521,268.114,301.523,269.682,301.397,271.249z"></path>
<path d="M140.229,247.907c-1.473,0.396-2.945,0.397-4.418,0C137.283,247.907,138.756,247.907,140.229,247.907z"></path>
<path d="M135.489,248.117c-0.101,1.484,0.261,2.989-0.209,4.456C135.292,251.084,134.888,249.577,135.489,248.117z"></path>
<path d="M140.756,252.576c-0.468-1.468-0.108-2.975-0.208-4.46C141.148,249.578,140.746,251.087,140.756,252.576z"></path>
<path d="M323.033,261.468c-0.471-1.468-0.108-2.975-0.208-4.461C323.4,258.471,323.039,259.978,323.033,261.468z"></path>
<path d="M29.02,262.654c-0.359-1.469-0.36-2.938,0.001-4.406C29.142,259.717,29.144,261.186,29.02,262.654z"></path>
<path d="M253.087,262.654c-0.359-1.469-0.36-2.938,0.001-4.406C253.208,259.717,253.21,261.185,253.087,262.654z"></path>
<path fill="#3D3D3D" d="M372.024,251.146c0.098-1.286-0.26-2.597,0.209-3.862C372.239,248.575,372.593,249.885,372.024,251.146z"></path>
<path fill="#404040" d="M535.012,246.722c-1.275,0.392-2.55,0.392-3.825,0C532.462,246.722,533.737,246.722,535.012,246.722z"></path>
<path d="M70.578,246.722c-1.275,0.392-2.55,0.392-3.825,0C68.028,246.722,69.303,246.722,70.578,246.722z"></path>
<path d="M492.942,282.184c-1.418-0.006-3.207,0.506-4.15-0.166c-0.918-0.655-0.261-2.56-0.283-3.912
	c-0.05-3.045-0.017-6.092-0.014-9.138c0.001-0.537,0.042-1.077-0.222-1.575c0.11-0.878,0.153-1.756-0.023-2.632
	c-0.829-3.941-3.475-5.162-7.172-3.51c-2.531,1.131-3.847,2.583-3.636,5.657c0.321,4.667,0.049,9.373,0.11,14.062
	c0.014,1.055-0.284,1.303-1.309,1.291c-3.457-0.038-3.458,0.005-3.458-3.41c0-6.911,0.024-13.821-0.025-20.731
	c-0.007-1.063,0.193-1.586,1.35-1.381c0.335,0.059,0.689,0.009,1.035,0.009c2.289,0,2.289,0,2.47,2.303
	c3.413-2.801,7.148-4.291,11.341-2.188c2.594,1.302,3.924,3.683,3.995,6.661c0.272,0.765,0.119,1.557,0.122,2.333
	c0.017,4.961,0.013,9.922,0.003,14.883C493.075,281.22,493.198,281.722,492.942,282.184z M582.425,283.047
	c1.154-0.36,2.352-0.62,3.454-1.099c3.202-1.393,4.738-3.815,4.596-7.387c-0.13-3.267-1.382-5.113-4.473-6.28
	c-2.177-0.822-4.524-0.953-6.688-1.771c-0.872-0.329-1.827-0.55-2.231-1.645c-0.88-2.384,0.554-4.403,3.235-4.574
	c3.036-0.194,5.777,0.522,8.199,2.383c0.688,0.528,1.054,0.451,1.043-0.493c-0.011-1.037-0.077-2.081,0.02-3.109
	c0.091-0.967-0.373-1.378-1.162-1.743c-2.954-1.369-6.097-1.332-9.209-1.134c-2.122,0.135-4.15,1.044-5.51,2.689
	c-3.776,4.565-2.052,11.033,4.346,12.406c1.967,0.422,3.977,0.726,5.853,1.533c1.244,0.535,1.731,1.646,1.722,2.788
	c-0.007,0.893-0.308,2.01-1.315,2.445c-1.615,0.698-3.31,1.2-5.098,0.792c-2.235-0.51-4.346-1.303-6.176-2.76
	c-0.72-0.573-1.342-0.657-1.267,0.637c0.063,1.083,0.064,2.175-0.005,3.257c-0.048,0.754,0.237,1.104,0.919,1.381
	c1.92,0.78,3.918,1.252,5.932,1.683C579.882,282.923,581.154,282.921,582.425,283.047z M403.415,280.798
	c2.052,1.447,4.527,1.622,6.844,2.27c1.176-0.161,2.353-0.162,3.529,0c0.945-0.221,1.863-0.55,2.793-0.802
	c3.031-0.82,4.674-2.867,5.459-5.758c0.663-2.442-0.377-5.755-2.29-7.141c-1.184-0.857-2.553-1.326-3.977-1.671
	c-1.821-0.441-3.697-0.671-5.442-1.408c-1.052-0.444-1.836-1.053-1.865-2.35c-0.048-2.196,1.295-3.495,3.587-3.657
	c2.999-0.212,5.639,0.651,8.053,2.34c0.382,0.267,0.666,0.6,1.031,0.03c-0.251-1.582,0.134-3.191-0.204-4.77
	c-3.885-2.037-7.965-2.369-12.12-1.13c-3.763,1.123-5.455,3.658-5.36,7.914c0.069,3.099,1.843,5.262,5.219,6.34
	c2.246,0.717,4.653,0.785,6.808,1.821c1.009,0.485,1.55,1.188,1.599,2.361c0.053,1.273-0.172,2.34-1.408,2.932
	c-1.519,0.727-3.14,1.105-4.798,0.751c-2.29-0.49-4.465-1.327-6.329-2.803c-0.475-0.376-0.869-0.623-1.333-0.041
	C403.462,277.61,403.077,279.219,403.415,280.798z M372.233,247.283c-0.171-0.62-0.657-0.611-1.169-0.627
	c-0.626-0.02-1.243-0.065-1.876-0.168c-2.996-0.49-7.765,0.502-9.327,4.258c-0.521,1.252-0.931,2.497-0.909,3.894
	c0.03,1.891-0.171,2.024-1.969,2.116c-0.34,0.017-0.96-0.228-0.93,0.374c0.06,1.229-0.416,2.507,0.271,3.688
	c2.506-0.206,2.506-0.206,2.506,2.216c0,5.852-0.004,11.705,0.007,17.557c0.001,0.531-0.135,1.082,0.133,1.594
	c1.484,0,2.969,0,4.453,0c0.268-0.512,0.132-1.064,0.133-1.595c0.011-6.199,0.008-12.398,0.006-18.598
	c0-0.638-0.135-1.309,0.905-1.262c1.914,0.088,3.833-0.085,5.748,0.088c0.701-0.968,0.137-2.066,0.314-3.089
	c0.131-0.756-0.165-1.043-0.962-1.001c-1.226,0.065-2.458,0.017-3.688,0.017c-2.333,0-2.254,0.003-2.176-2.201
	c0.09-2.575,1.735-3.666,3.996-3.76c1.477-0.062,2.86,0.577,4.326,0.361C372.368,249.873,371.984,248.561,372.233,247.283z
	 M313.846,257.062c-1.628-0.512-3.257-0.506-4.886-0.004c0.142,0.535,0.072,1.08,0.072,1.62c0.005,7.302,0,14.603,0.01,21.905
	c0.001,0.533-0.134,1.086,0.133,1.6c1.484,0,2.969,0,4.453,0c0.258-0.461,0.133-0.962,0.134-1.443
	c0.01-5.053,0.001-10.106,0.015-15.159c0.001-0.473-0.166-0.984,0.176-1.421c0.145-0.012,0.348,0.034,0.426-0.045
	c1.871-1.888,4.161-2.495,6.754-2.352c0.615,0.034,1.357,0.356,1.898-0.295c-0.243-1.479,0.128-2.986-0.208-4.461
	c-2.159-0.657-4.137-0.235-6.056,0.886c-0.973,0.568-1.709,1.501-2.842,1.806C313.602,258.829,313.784,257.944,313.846,257.062z
	 M531.187,246.722c-0.185-0.051-0.273,0.048-0.323,0.208c-0.215,0.366-0.129,0.77-0.129,1.157c-0.005,10.984-0.005,21.969,0,32.953
	c0,0.387-0.092,0.791,0.137,1.154c1.484,0,2.968,0,4.452,0c0.229-0.362,0.137-0.767,0.137-1.154c0.005-10.984,0.005-21.969,0-32.953
	c0-0.388,0.086-0.791-0.129-1.157c-0.049-0.158-0.135-0.259-0.32-0.208C533.737,246.88,532.462,246.88,531.187,246.722z
	 M434.253,260.04c0-3.316-0.001-3.266-3.389-3.324c-1.1-0.019-1.389,0.255-1.38,1.371c0.057,6.901,0.028,13.802,0.028,20.703
	c0,3.495,0,3.458,3.538,3.467c0.958,0.003,1.241-0.242,1.226-1.218c-0.057-3.795-0.023-7.591-0.023-11.386
	C434.253,266.448,434.253,263.244,434.253,260.04z M530.591,247.969c-0.013,11.077-0.014,22.155,0.005,33.232
	c0.001,0.323-0.297,0.802,0.277,0.993c-0.003-11.755-0.005-23.51-0.008-35.265C530.364,247.165,530.591,247.62,530.591,247.969z
	 M535.601,281.201c0.019-11.077,0.018-22.155,0.005-33.232c0-0.349,0.227-0.804-0.274-1.04c-0.003,11.755-0.005,23.51-0.008,35.265
	C535.898,282.004,535.6,281.524,535.601,281.201z M363.693,280.735c0.031-6.211,0.041-12.423,0-18.635
	c-0.006-0.945,0.214-1.269,1.206-1.233c1.769,0.065,3.543-0.024,5.315-0.049c-1.791-0.498-3.623-0.054-5.425-0.233
	c-1.157-0.115-1.398,0.384-1.392,1.448c0.043,6.717,0.023,13.434,0.025,20.15C364.043,281.806,363.691,281.206,363.693,280.735z
	 M308.888,281.77c-0.001,0.209,0.039,0.382,0.289,0.414c0.001-7.9,0.005-15.799-0.003-23.699c0-0.479,0.145-0.994-0.213-1.426
	C308.936,265.296,308.913,273.533,308.888,281.77z M358.677,263.43c0,5.818-0.008,11.635,0.017,17.453
	c0.002,0.426-0.325,0.98,0.275,1.301c0.001-6.727-0.02-13.453,0.026-20.18c0.007-1.083-0.282-1.576-1.403-1.411
	c-0.426,0.063-0.891-0.11-1.269,0.224C358.677,261.008,358.677,261.008,358.677,263.43z M493.222,281.332
	c0.016-5.639,0.014-11.279,0.004-16.918c-0.001-0.309,0.171-0.706-0.275-0.892c-0.003,6.221-0.006,12.441-0.009,18.662
	C493.452,282.041,493.221,281.618,493.222,281.332z M313.904,280.882c0.037-5.574,0.039-11.148,0.05-16.722
	c-0.532,0.411-0.319,0.998-0.32,1.509c-0.014,5.505-0.006,11.01-0.004,16.515C314.229,281.862,313.901,281.309,313.904,280.882z
	 M381.502,270.378c5.129-0.027,10.258-0.051,15.386-0.076c-0.237-0.227-0.535-0.221-0.832-0.221c-5.086,0-10.173-0.001-15.259,0.002
	c-0.385,0-0.806-0.083-1.07,0.327C380.319,270.4,380.91,270.382,381.502,270.378z M442.244,272.195c0-1.705,0-3.411,0-5.116
	C441.785,268.785,441.785,270.49,442.244,272.195z M396.624,275.976c0.001,1.605,0.001,3.209,0.002,4.814
	C397.092,279.185,397.097,277.581,396.624,275.976z M403.415,280.798c-0.093-1.589,0.266-3.197-0.204-4.77
	C403.216,277.621,402.823,279.23,403.415,280.798z M558.418,283.047c-1.37-0.355-2.74-0.351-4.11-0.001
	C555.678,283.171,557.048,283.169,558.418,283.047z M327.632,271.542c0.47-1.369,0.115-2.779,0.208-4.166
	C327.237,268.737,327.649,270.15,327.632,271.542z M389.781,283.068c-1.271-0.401-2.545-0.369-3.82-0.023
	C387.235,283.053,388.508,283.061,389.781,283.068z M582.425,283.047c-1.271-0.357-2.542-0.355-3.814-0.001
	C579.882,283.171,581.153,283.169,582.425,283.047z M565.564,266.487c-0.001,1.209-0.001,2.418-0.002,3.627
	C566.032,268.905,566.027,267.696,565.564,266.487z M413.788,283.068c-1.176-0.39-2.353-0.387-3.529,0
	C411.436,283.068,412.612,283.068,413.788,283.068z"></path>
<path d="M313.926,259.699c-0.01,0.047-0.005,0.106-0.032,0.139c-0.048,0.057-0.115,0.098-0.174,0.146
	c-0.103-0.98-0.281-1.964,0.127-2.922C313.873,257.941,313.899,258.82,313.926,259.699z"></path>
<path d="M96.042,280.071c-1.421,1.316-2.915,2.091-4.438,2.66c-2.002,0.747-4.168,0.706-6.175-0.078
	c-3.782-1.478-4.963-4.697-5.037-8.379c-0.109-5.431-0.003-10.866-0.039-16.298c-0.006-0.916,0.167-1.262,1.189-1.259
	c3.57,0.012,3.57-0.033,3.57,3.6c0,3.803-0.048,7.607,0.024,11.409c0.028,1.495,0.192,3.008,0.628,4.458
	c0.672,2.24,2.869,2.663,4.575,2.41c2.019-0.299,3.666-1.459,5.298-2.612c0.563-0.398,0.44-0.935,0.441-1.457
	c0.005-5.482,0.04-10.965-0.027-16.447c-0.014-1.137,0.31-1.38,1.393-1.362c3.376,0.056,3.377,0.008,3.377,3.348
	c0,6.964-0.023,13.929,0.025,20.892c0.007,1.04-0.256,1.437-1.301,1.287c-0.484-0.07-0.986-0.012-1.48-0.012
	C96.11,282.232,96.11,282.232,96.042,280.071z M183.651,275.551c0.084-3.991-0.122-7.985,0.109-11.976
	c1.151-1.229,2.6-2.065,4.134-2.612c3.05-1.088,5.654-0.036,6.177,2.471c0.233,1.115,0.448,2.269,0.431,3.454
	c-0.057,3.947-0.022,7.895-0.022,11.843c0,3.538,0.001,3.489,3.487,3.529c1.07,0.012,1.286-0.314,1.277-1.322
	c-0.049-5.674,0.033-11.35-0.048-17.024c-0.034-2.364-0.846-4.634-2.7-6.119c-2.884-2.311-6.166-2.496-9.491-0.848
	c-1.065,0.528-2.071,1.174-3.086,1.754c-0.347-0.646,0.349-1.773-0.498-1.853c-1.503-0.142-3.082-0.455-4.574,0.21
	c0.142,0.535,0.072,1.08,0.072,1.62c0.005,7.302,0,14.603,0.01,21.905c0.001,0.533-0.134,1.086,0.133,1.6c1.484,0,2.969,0,4.453,0
	C183.826,279.978,183.604,277.762,183.651,275.551z M11.301,280.791c0.342,0.528,0.9,0.695,1.455,0.85
	c1.697,0.474,3.397,0.937,5.096,1.405c1.271-0.123,2.542-0.125,3.813,0.001c2.29-0.57,4.556-1.097,6.252-3.007
	c1.992-2.243,2.527-4.783,1.745-7.563c-0.706-2.511-2.632-3.839-5.082-4.468c-2.003-0.514-4.013-1.006-6.013-1.533
	c-1.461-0.384-2.317-1.386-2.489-2.851c-0.156-1.332,0.883-2.577,2.539-3.031c3.226-0.884,6.125-0.004,8.853,1.764
	c0.423,0.274,0.88,1.051,1.55,0.296c-0.122-1.469-0.125-2.938,0.001-4.406c-0.147-0.183-0.255-0.449-0.445-0.536
	c-3.802-1.737-7.835-2.308-11.788-1.074c-5.444,1.699-6.729,6.687-4.857,10.816c1.003,2.213,3.042,3.211,5.284,3.811
	c1.912,0.511,3.887,0.759,5.758,1.455c1.363,0.508,1.988,1.467,1.968,2.866c-0.02,1.417-0.762,2.338-2.083,2.816
	c-3.831,1.388-7.081-0.071-10.199-2.103c-0.511-0.333-0.903-0.962-1.564-0.271C11.346,277.608,10.96,279.215,11.301,280.791z
	 M235.368,280.791c0.142,0.278,0.385,0.418,0.666,0.533c1.994,0.811,4.089,1.263,6.176,1.745c1.176-0.161,2.353-0.162,3.529,0
	c0.755-0.398,1.648-0.564,2.413-0.737c3.356-0.76,5.023-2.934,5.823-6.044c-0.236-0.983,0.119-2.007-0.206-2.984
	c-0.035-0.474-0.084-0.916-0.26-1.394c-1.012-2.746-3.366-3.548-5.845-4.194c-1.719-0.448-3.48-0.763-5.164-1.316
	c-1.772-0.583-2.153-1.331-2.07-3.371c0.059-1.451,1.043-2.122,2.285-2.44c3.149-0.806,6.02-0.084,8.704,1.659
	c0.475,0.308,0.896,1.183,1.667,0.408c-0.122-1.469-0.125-2.938,0.001-4.406c-0.894-1.178-2.3-1.407-3.566-1.649
	c-3.413-0.653-6.842-1.038-10.134,0.687c-3.301,1.729-4.395,4.525-3.996,8.037c0.319,2.81,2.032,4.44,4.612,5.463
	c2.266,0.898,4.715,0.999,6.969,1.91c2.296,0.927,2.867,3.423,1.017,5.065c-1.366,1.212-3.129,1.379-4.792,1.162
	c-2.456-0.321-4.754-1.24-6.699-2.854c-0.469-0.389-0.872-0.614-1.336-0.039C235.412,277.608,235.027,279.215,235.368,280.791z
	 M122.146,283.068c0.864-0.279,1.712-0.715,2.594-0.799c1.389-0.133,2.518-0.702,3.568-1.536c-0.251-1.578,0.136-3.184-0.208-4.757
	c-0.323-0.518-0.558-0.11-0.805,0.081c-1.428,1.11-2.935,2.101-4.742,2.432c-3.41,0.624-6.847,0.192-8.432-4.433
	c-0.784-2.288-0.938-4.591-0.561-6.966c0.708-4.46,4.013-7.72,8.88-6.473c1.617,0.414,3.07,1.232,4.422,2.201
	c0.489,0.35,0.895,0.807,1.446,0.133c-0.251-1.58,0.135-3.187-0.206-4.763c-2.488-1.596-5.221-2.063-8.151-2.068
	c-4.861-0.007-8.904,3.011-10.565,7.303c-1.157,2.99-1.033,6.067-0.787,9.079c0.291,3.564,1.824,6.667,4.995,8.747
	c1.637,1.073,3.53,1.267,5.32,1.82C119.991,282.911,121.069,282.911,122.146,283.068z M71.027,281.04
	c0.005-10.984,0.005-21.969,0-32.953c0-0.388,0.086-0.791-0.129-1.157c-0.049-0.158-0.135-0.259-0.32-0.208
	c-1.275,0.158-2.55,0.158-3.825,0c-0.185-0.051-0.273,0.049-0.323,0.208c-0.215,0.366-0.129,0.77-0.129,1.157
	c-0.005,10.984-0.005,21.969,0,32.953c0,0.387-0.092,0.791,0.137,1.154c1.484,0,2.968,0,4.452,0
	C71.119,281.832,71.027,281.427,71.027,281.04z M140.378,280.732c0.011-4.341-0.012-8.682,0.012-13.023
	c0.019-3.549-0.102-7.099,0.071-10.647c-1.628-0.513-3.257-0.506-4.886-0.004c0.142,0.535,0.072,1.08,0.072,1.62
	c0.005,7.302,0,14.603,0.01,21.905c0.001,0.533-0.134,1.086,0.133,1.6c1.484,0,2.969,0,4.453,0
	C140.502,281.72,140.377,281.216,140.378,280.732z M66.157,247.969c-0.013,11.077-0.014,22.155,0.005,33.232
	c0.001,0.323-0.297,0.802,0.276,0.993c-0.003-11.755-0.005-23.51-0.008-35.264C65.93,247.165,66.157,247.62,66.157,247.969z
	 M71.167,281.201c0.019-11.077,0.018-22.155,0.005-33.232c0-0.349,0.227-0.804-0.273-1.04c-0.003,11.755-0.005,23.51-0.008,35.265
	C71.464,282.003,71.166,281.524,71.167,281.201z M178.775,281.77c-0.001,0.209,0.039,0.383,0.289,0.414
	c0.001-7.9,0.005-15.799-0.002-23.699c0-0.479,0.145-0.994-0.213-1.426C178.824,265.296,178.8,273.533,178.775,281.77z
	 M140.522,281.178c-0.006-8.038-0.035-16.077-0.06-24.115c-0.361,0.43-0.214,0.946-0.214,1.425
	c-0.008,7.899-0.004,15.798-0.003,23.696C140.8,281.981,140.522,281.508,140.522,281.178z M135.503,281.77
	c-0.001,0.209,0.039,0.383,0.288,0.414c0.001-7.9,0.005-15.799-0.002-23.699c0-0.479,0.145-0.994-0.213-1.426
	C135.552,265.296,135.528,273.533,135.503,281.77z M183.805,281.622c-0.012-6.016-0.029-12.031-0.045-18.047
	c-0.419,0.463-0.238,1.03-0.239,1.549c-0.012,5.686-0.006,11.373-0.004,17.059C183.87,282.129,183.805,281.849,183.805,281.622z
	 M35.605,272.196c-0.091-1.686,0.261-3.389-0.206-5.059C35.4,268.826,35.029,270.53,35.605,272.196z M235.368,280.791
	c-0.101-1.586,0.269-3.193-0.206-4.763C235.168,277.618,234.769,279.226,235.368,280.791z M228.574,275.976
	c0.001,1.607,0.003,3.214,0.004,4.821C229.039,279.19,229.049,277.583,228.574,275.976z M128.1,275.976
	c0.107,1.584-0.269,3.189,0.208,4.757C128.3,279.145,128.704,277.538,128.1,275.976z M21.666,283.047
	c-1.271-0.357-2.542-0.355-3.813-0.001C19.123,283.171,20.395,283.169,21.666,283.047z M221.731,283.068
	c-1.275-0.392-2.55-0.392-3.825,0C219.181,283.068,220.456,283.068,221.731,283.068z M245.739,283.068
	c-1.176-0.39-2.353-0.387-3.529,0C243.386,283.068,244.562,283.068,245.739,283.068z M206.708,271.245
	c0.469-1.067,0.112-2.186,0.207-3.277C206.345,269.029,206.711,270.149,206.708,271.245z M122.146,283.068
	c-1.077-0.387-2.155-0.386-3.233,0C119.991,283.068,121.069,283.068,122.146,283.068z"></path>
<path d="M253.975,276.287c-0.438-0.969-0.131-1.99-0.206-2.984C254.366,274.261,253.964,275.288,253.975,276.287z"></path>
<path d="M488.249,264.76c0.394,0.874,0.356,1.752,0.023,2.632C488.265,266.514,488.257,265.637,488.249,264.76z"></path>
<path d="M299.356,175.857c0.361-4.481,1.072-8.909,1.869-13.312c1.324-7.316,3.093-14.528,6.256-21.323
	c0.895-1.923,0.765-2.122-1.081-3.258c-2.7-1.662-5.706-1.78-8.705-1.504c-2.197,0.202-3.5,1.877-4.448,3.695
	c-0.42,0.804-0.743,0.214-0.987,0.09c-4.639-2.354-9.461-3.954-14.696-4.485c-4.562-0.462-9.027-0.232-13.439,0.827
	c-6.012,1.443-11.311,4.372-15.88,8.496c-4.844,4.373-8.763,9.505-11.808,15.3c-5.209,9.913-8.387,20.276-7.294,31.644
	c0.295,3.067,0.82,6.033,2.043,8.908c2.506,5.893,6.789,9.464,13.162,10.127c6.058,0.63,11.618-1.113,16.673-4.433
	c3.218-2.113,6.169-4.52,8.942-7.248c2.402-2.364,4.657-4.842,6.806-7.398c3.008-3.577,5.633-7.466,8.35-11.316
	c-0.584,1.545-0.408,3.188-0.446,4.717c-0.098,3.978-0.979,7.916-0.439,11.936c0.301,2.24,0.468,4.49,1.246,6.622
	c2.663,7.293,10.415,7.816,15.265,4.18c0.925-0.693,1.12-1.431,0.657-2.596c-2.013-5.064-2.701-10.397-2.885-15.805
	c-0.053-1.56,0.16-3.119,0.231-4.672C298.892,181.977,299.11,178.92,299.356,175.857z M288.951,155.743
	c-1.407,5.987-4.092,11.433-7.293,16.658c-3.934,6.42-8.768,12.092-14.276,17.178c-3.604,3.327-7.599,6.148-12.439,7.437
	c-5.41,1.441-8.979-0.606-10.64-6.763c-0.476-1.765-0.737-3.605-0.632-5.203c0.213-7.721,1.744-14.88,4.742-21.737
	c2.211-5.058,4.964-9.789,8.961-13.59c2.482-2.36,5.594-3.913,9.103-4.422c6.034-0.875,11.44,0.811,16.608,3.815
	c2.016,1.172,3.706,2.733,5.622,4.003C289.924,153.925,289.126,154.997,288.951,155.743z"></path>
<path d="M472.189,156.625c-0.864-4.373-2.501-8.411-5.414-11.829c-5.339-6.264-12.34-8.982-20.394-9.243
	c-2.191-0.071-4.386-0.03-6.599,0.211c-4.565,0.498-8.913,1.643-13.056,3.571c-6.128,2.852-11.273,6.962-15.689,12.086
	c-2.555,2.965-4.868,6.07-6.754,9.478c-3.792,6.852-5.746,14.192-5.612,22.668c-0.175,4.78,0.829,9.869,3.505,14.636
	c3.004,5.353,7.405,8.999,13.089,11.107c5.384,1.997,10.958,2.092,16.619,1.529c4.577-0.456,8.915-1.684,13.031-3.62
	c5.267-2.477,9.757-6.02,13.771-10.266c4.475-4.734,8.096-9.95,10.634-15.964c2.077-4.922,3.087-10.056,3.438-15.333
	C472.959,162.637,472.779,159.609,472.189,156.625z M457.064,169.199c-0.428,8.01-2.212,15.641-6.824,22.361
	c-3.361,4.899-7.697,8.652-13.659,9.902c-5.995,1.257-11.698,0.652-16.188-4.109c-3.034-3.216-4.627-7.187-5.403-11.501
	c-0.431-2.399-0.74-4.81-0.615-6.597c0.012-8.13,1.41-15.299,5.095-21.849c3.176-5.646,7.425-10.259,13.872-12.217
	c5.252-1.595,10.444-1.48,15.159,1.631c4.41,2.91,6.555,7.397,7.656,12.39C456.88,162.484,457.244,165.835,457.064,169.199z"></path>
<path d="M301.398,266.547c-0.194-0.407-0.167-0.849-0.233-1.279c-0.495-3.199-1.712-6.006-4.468-7.94
	c-3.318-2.328-8.121-1.546-11.48,0.999c-0.253,0.192-0.401,0.61-0.644,0.489c-0.692-0.671,0.274-1.894-0.686-1.986
	c-1.395-0.133-2.884-0.453-4.269,0.228c0.142,0.535,0.072,1.081,0.072,1.621c0.005,10.366,0.005,20.733,0,31.099
	c0,0.54,0.071,1.086-0.073,1.621c0.871,0.657,1.875,0.148,2.801,0.319c1.534,0.283,1.979-0.328,1.902-1.869
	c-0.136-2.719-0.038-5.449-0.038-8.175c0.098-0.071,0.196-0.143,0.294-0.214c0.787,1.131,2.076,0.916,3.119,1.241
	c3.911,1.218,8.497-0.377,11.052-3.936c1.616-2.25,2.259-4.837,2.65-7.516C301.273,269.682,301.271,268.114,301.398,266.547z
	 M295.55,274.683c-1.089,2.907-4.195,4.523-7.255,3.765c-4.012-0.995-4.012-0.995-4.012-5.017c0-1.086,0-2.172,0-3.258
	c0-1.974,0.014-3.949-0.008-5.923c-0.007-0.635,0.163-0.99,0.764-1.388c1.342-0.888,2.661-1.675,4.275-2.034
	c3.19-0.709,5.587,0.453,6.457,3.544C296.738,267.802,296.828,271.271,295.55,274.683z"></path>
<g>
	<path d="M521.315,263.583c-0.073-0.231-0.188-0.458-0.211-0.694c-0.275-2.786-1.593-4.827-4.253-5.859
		c-3.836-1.489-7.778-1.075-11.672-0.397c-2.488,0.433-2.46,0.597-2.46,3.115c0,0.494,0.003,0.988,0,1.482
		c-0.004,0.68,0.122,1.017,0.953,0.679c1.699-0.692,3.47-1.193,5.285-1.473c2.002-0.309,4.001-0.281,5.841,0.715
		c1.17,0.634,1.957,2.384,1.508,3.666c-0.412,1.178-1.604,0.825-2.505,0.801c-1.915-0.05-3.798,0.188-5.635,0.64
		c-5.027,1.238-7.933,3.809-7.502,9.608c0.197,2.654,1.41,4.883,3.819,6.174c2.684,1.439,5.415,1.59,8.325,0.286
		c1.185-0.531,2.227-1.253,3.542-2.005c-0.409,1.949,0.609,2.068,1.938,1.926c0.928-0.099,1.873-0.049,2.81-0.065
		c-0.001-5.725-0.006-11.451,0.003-17.176C521.102,264.529,520.954,264.013,521.315,263.583z M516.401,275.702
		c-1.756,1.789-3.787,2.986-6.383,2.976c-2.248-0.009-3.983-1.184-4.315-2.93c-0.445-2.337,0.606-4.243,2.875-5.088
		c2.49-0.927,5.097-1.157,7.732-1.16C516.926,271.558,516.753,273.629,516.401,275.702z"></path>
	<path d="M521.315,263.583c-0.177,5.667-0.024,11.335-0.083,17.002c-0.006,0.533,0.134,1.085-0.134,1.598
		c0.249-0.031,0.289-0.205,0.289-0.414C521.362,275.708,521.339,269.645,521.315,263.583z"></path>
	<path d="M516.31,269.499c0.03,2.068,0.061,4.135,0.091,6.203C516.504,273.632,516.672,271.562,516.31,269.499z"></path>
</g>
<path d="M565.564,266.487c0.034-4.432-1.635-7.918-5.838-9.725c-1.943-0.835-4.019-1.037-6.243-0.676
	c-3.902,0.634-6.706,2.551-8.539,5.99c-2.05,3.846-2.05,7.962-1.209,12.042c0.742,3.598,2.902,6.339,6.373,7.787
	c1.327,0.554,2.796,0.77,4.2,1.14c1.37-0.124,2.74-0.125,4.11,0.001c0.885-0.271,1.756-0.7,2.659-0.786
	c3.428-0.328,4.179-1.06,4.179-4.355c0-0.345,0.031-0.694-0.008-1.035c-0.042-0.365,0.206-0.843-0.247-1.067
	c-0.443-0.219-0.701,0.212-1.018,0.421c-2.761,1.825-5.775,2.796-9.098,2.428c-1.948-0.216-3.649-0.936-4.96-2.591
	c-1.346-1.7-1.461-3.695-1.85-5.65c0.942-0.411,1.932-0.176,2.893-0.17c4.758,0.029,9.518-0.145,14.275,0.082
	c0.186,0.051,0.274-0.049,0.322-0.21C565.783,268.905,565.779,267.696,565.564,266.487z M560.948,266.525
	c-3.879,0-7.819-0.023-11.759,0.018c-0.825,0.009-0.913-0.409-0.806-0.993c0.711-3.886,4.076-5.93,7.778-5.391
	c3.08,0.449,4.438,2.343,4.63,5.321C560.812,265.822,561.237,266.044,560.948,266.525z"></path>
<path d="M396.888,270.302c0.686-1.535,0.313-3.159,0.282-4.723c-0.05-2.516-0.94-4.816-2.702-6.663
	c-2.606-2.732-5.853-3.273-9.473-2.792c-3.831,0.509-6.587,2.455-8.399,5.778c-1.673,3.068-1.932,6.379-1.644,9.82
	c0.333,3.976,1.817,7.194,5.255,9.421c1.772,1.148,3.825,1.309,5.755,1.903c1.274-0.106,2.548-0.156,3.82,0.023
	c0.898-0.278,1.784-0.736,2.697-0.795c1.557-0.101,2.856-0.738,4.148-1.483c0.212-1.605,0.219-3.209-0.002-4.814
	c-0.691-0.568-1.04,0.17-1.437,0.442c-2.764,1.892-5.856,2.689-9.105,2.206c-3.772-0.562-6.19-3.078-6.355-8.212
	c0.121-0.078,0.223-0.179,0.389-0.178C385.707,270.262,391.298,270.132,396.888,270.302z M383.785,260.609
	c2.793-1.189,6.634-0.439,7.74,1.882c0.344,0.721,0.686,1.459,0.895,2.225c0.39,1.425,0.057,1.808-1.426,1.809
	c-3.697,0.002-7.395,0-11.222,0C380.176,263.808,381.233,261.695,383.785,260.609z"></path>
<g>
	<path d="M212.172,270.091c5.473,0.007,10.946,0.033,16.419,0.06c0.083,0,0.165,0.099,0.247,0.151
		c0.694-2.389,0.372-4.768-0.185-7.108c-1.484-6.237-7.572-8.195-13.168-6.857c-4.887,1.169-8.68,6.353-8.57,11.63
		c-0.334,1.076,0.034,2.195-0.207,3.277c0.073,0.33,0.18,0.655,0.216,0.989c0.46,4.273,2.279,7.668,6.318,9.54
		c1.467,0.68,3.083,0.956,4.664,1.294c1.275-0.158,2.55-0.158,3.825,0c0.898-0.278,1.778-0.659,2.696-0.811
		c1.481-0.245,2.886-0.632,4.15-1.46c0.205-1.607,0.219-3.214-0.004-4.821c-0.432-0.599-0.897-0.03-1.088,0.138
		c-0.833,0.732-1.844,1.121-2.807,1.572c-2.556,1.196-5.29,1.429-7.951,0.643c-3.412-1.007-4.673-3.798-5.11-7.074
		C211.227,270.593,211.253,270.09,212.172,270.091z M211.915,265.072c1.156-4.579,6.754-6.476,10.41-3.854
		c1.559,1.117,1.924,2.919,2.069,4.736c0.06,0.756-0.521,0.561-0.914,0.565c-1.824,0.016-3.647,0.007-5.471,0.007
		c-1.627,0-3.256-0.064-4.878,0.021C211.931,266.61,211.562,266.471,211.915,265.072z"></path>
	<path d="M212.86,270.373c5.326-0.018,10.653-0.046,15.979-0.071c-5.503-0.175-11.008-0.026-16.512-0.08
		c-0.786-0.008-0.927,0.377-0.709,1.033C211.525,270.246,212.22,270.376,212.86,270.373z"></path>
</g>
<path d="M350.366,265.345c-1.296-7.333-7.791-10.596-14.33-8.997c-4.843,1.185-8.316,6.247-8.196,11.027
	c-0.344,1.375,0.044,2.787-0.208,4.166c0.073,0.28,0.193,0.558,0.213,0.842c0.362,5.268,3.34,9.113,8.447,10.423
	c2.381,0.611,4.752,0.439,7.248-0.453c3.622-1.294,5.482-3.829,6.504-7.184C351.023,271.957,350.947,268.63,350.366,265.345z
	 M345.076,274.454c-0.668,2.559-3.235,4.652-5.88,4.49c-3.092-0.189-4.89-1.332-5.936-4.573c-0.502-1.555-0.822-3.19-0.688-4.457
	c0.028-2.852,0.297-5.266,1.761-7.308c1.495-2.086,3.747-2.648,6.131-2.259c2.326,0.379,3.915,1.878,4.565,4.168
	C345.964,267.809,345.95,271.107,345.076,274.454z"></path>
<g>
	<path d="M171.285,268.029c-0.073-0.33-0.196-0.657-0.213-0.99c-0.323-6.27-5.161-11.985-12.955-10.928
		c-4.599,0.624-7.468,3.052-9.039,7.3c-0.955,2.584-1.044,5.232-0.831,7.922c0.393,4.957,1.878,9.053,7.167,10.992
		c3.845,1.41,7.371,1.108,10.681-0.95c3.641-2.264,4.908-5.926,4.983-10.069C171.173,270.216,170.816,269.096,171.285,268.029z
		 M164.845,276.128c-1.879,3.408-7.79,4.187-10.303-0.069c-1.406-2.382-1.761-5.113-1.33-7.959c0.224-1.482,0.342-2.949,0.937-4.349
		c0.882-2.076,2.49-3.198,4.653-3.426c2.546-0.268,4.712,0.45,6.091,2.83c1.184,2.045,1.22,4.321,1.496,6.515
		C166.109,271.921,165.958,274.109,164.845,276.128z"></path>
	<path d="M171.285,268.029c-0.241,1.081,0.127,2.201-0.207,3.277C171.648,270.246,171.282,269.126,171.285,268.029z"></path>
</g>
<path d="M57.928,264.728c-0.551-2.634-1.794-4.867-4.025-6.52c-2.683-1.988-5.606-2.539-8.89-2.093
	c-3.172,0.431-5.504,2.033-7.32,4.519c-1.406,1.925-1.959,4.183-2.295,6.502c0.254,1.679-0.138,3.384,0.206,5.059
	c0.172,4.101,1.946,7.353,5.402,9.534c2.052,1.294,4.423,1.558,6.854,1.406c3.912-0.244,6.923-1.892,8.809-5.395
	C58.907,273.583,58.86,269.184,57.928,264.728z M53.452,271.848c-0.442,2.43-1.005,4.851-3.327,6.214
	c-3.405,1.999-8.151,0.871-9.383-4.546c-0.639-2.81-0.651-5.672,0.2-8.499c0.987-3.279,3.16-4.963,6.625-4.683
	c3.132,0.253,4.488,1.722,5.508,5.09c0.223,0.736,0.254,1.53,0.373,2.297C53.607,269.097,53.602,270.473,53.452,271.848z"></path>
<path d="M53.452,271.848c-0.001-1.376-0.002-2.751-0.003-4.127C53.846,269.097,53.839,270.473,53.452,271.848z"></path>
<g>
	<path d="M464.783,265.692c-0.819-5.872-5.678-10.405-12.875-9.633c-5.476,0.587-9.82,6.139-9.664,11.02
		c-0.215,1.705-0.215,3.411,0,5.116c0.17,4.105,1.949,7.357,5.407,9.538c2.054,1.295,4.429,1.568,6.859,1.399
		c3.893-0.27,6.893-1.898,8.813-5.402C465.423,273.898,465.36,269.833,464.783,265.692z M460.091,271.849
		c-0.442,2.43-1.005,4.85-3.325,6.214c-3.361,1.975-8.19,0.855-9.388-4.551c-0.623-2.812-0.645-5.672,0.204-8.497
		c0.985-3.276,3.162-4.961,6.627-4.679c3.13,0.255,4.486,1.722,5.505,5.09c0.223,0.736,0.254,1.529,0.373,2.296
		C460.485,269.097,460.478,270.473,460.091,271.849z"></path>
	<path d="M460.088,267.722c0.001,1.376,0.002,2.751,0.003,4.127C460.241,270.473,460.246,269.097,460.088,267.722z"></path>
</g>
<path d="M157.248,144.533c-6.552,1.153-11.206,5.057-14.839,10.36c-4.942,7.216-6.658,15.358-6.72,25.036
	c-0.051,1.096,0.086,3.263,0.461,5.4c0.28,1.596,0.634,3.193,1.128,4.734c2.982,9.314,10.269,13.737,19.856,12.133
	c6.386-1.069,11.137-4.687,14.648-9.875c7.482-11.054,9-23.256,5.363-35.854C174.388,146.914,166.762,142.859,157.248,144.533z"></path>
<path d="M220.001,167.522C220.001,167.522,220.001,167.522,220.001,167.522c-0.605-0.775-1.296-1.464-2.069-2.072h0
	c-0.189-0.222-0.363-0.458-0.569-0.664c-17.372-17.377-34.746-34.752-52.123-52.124c-0.205-0.205-0.441-0.378-0.662-0.567
	c-0.394-0.395-0.789-0.789-1.183-1.184c-0.601-0.601-1.201-1.203-1.802-1.804c-0.098-0.101-0.196-0.202-0.294-0.304
	c-0.039-0.164-0.115-0.272-0.308-0.21c-0.297-0.2-0.595-0.399-0.892-0.599c-0.199-0.101-0.397-0.202-0.596-0.303
	c-0.291-0.022-0.581-0.045-0.872-0.067c-0.205-0.421-0.595-0.195-0.902-0.257c-0.317-0.448-0.763-0.271-1.178-0.245
	c-0.393-0.001-0.786-0.002-1.179-0.003c0,0,0,0,0,0c0,0,0,0,0,0c-0.296,0.099-0.593,0.199-0.889,0.298
	c-0.25-0.051-0.481-0.049-0.614,0.222c-0.728,0.027-1.366,0.235-1.783,0.888c-0.886,0.15-1.268,0.908-1.796,1.49h0
	c-0.363,0.329-0.742,0.644-1.088,0.99c-12.632,12.638-25.263,25.275-37.888,37.919c-5.682,5.691-11.35,11.396-17.025,17.094
	c-0.681,0.515-1.283,1.11-1.793,1.796c-0.47,0.318-0.874,0.701-1.172,1.188c-0.342,0.322-0.544,0.716-0.608,1.181
	c-0.393,0.193-0.217,0.57-0.281,0.869c-0.567,0.862-0.059,1.807-0.208,2.701c-0.103,0.678,0.154,1.254,0.509,1.802
	c0.011,0.095,0.034,0.187,0.07,0.276c0.168,0.298,0.336,0.596,0.503,0.894c0.061,0.216-0.045,0.513,0.288,0.598
	c0.029,0.094,0.059,0.189,0.088,0.283c0.295,0.673,0.882,1.071,1.421,1.514c0.394,0.394,0.788,0.788,1.182,1.182
	c1.878,1.878,3.757,3.757,5.635,5.635c5.034,5.03,10.069,10.061,15.103,15.091c0.498,0.499,0.997,0.997,1.495,1.495
	c0.325,0.363,0.632,0.742,0.976,1.086c7.06,7.065,14.118,14.133,21.19,21.186c3.466,3.457,6.96,6.887,10.441,10.329
	c0.603,0.694,1.146,1.458,2.076,1.769c0.241,0.598,0.793,0.826,1.316,1.061c1.489,0.669,3.017,0.84,4.68,0.867
	c1.93,0.031,3.544-0.446,4.831-1.695c7.616-7.396,14.964-15.061,22.663-22.377c5.558-5.282,10.874-10.818,16.298-16.242
	c6.506-6.506,13.012-13.011,19.516-19.519C223.586,175.913,223.455,170.253,220.001,167.522z M181.169,195.814
	c-6.246,6.972-13.696,11.964-22.879,14.157c-3.217,0.768-6.49,1.152-8.478,1.137c-7.196-0.004-12.81-1.014-17.793-4.336
	c-7.467-4.978-10.939-12.167-11.421-20.957c-0.719-13.094,3.768-24.328,12.325-34.055c7.194-8.177,15.924-13.766,26.887-15.288
	c6.927-0.962,13.781-0.703,20.206,2.484c8.752,4.34,13.089,11.699,13.877,21.202C195.034,173.923,190.273,185.652,181.169,195.814z"></path>
</svg>
