<?xml version="1.0"?>

<svg xmlns="http://www.w3.org/2000/svg" width="226.5" height="226.1" viewBox="0 0 226.5 226.1"> <path d="m 34.58,21.99 c -6.94,0 -12.54,5.6 -12.54,12.54 l 0,61.25 c 0,6.92 5.63,12.52 12.54,12.52 l 61.26,0 c 6.96,0 12.56,-5.6 12.56,-12.52 l 0,-61.25 c 0,-6.94 -5.6,-12.54 -12.56,-12.54 l -61.26,0 z m 96.82,0 c -6.9,0 -12.6,5.6 -12.6,12.54 l 0,61.25 c 0,6.92 5.7,12.52 12.6,12.52 l 61.2,0 c 7,0 12.6,-5.6 12.6,-12.52 l 0,-61.25 c 0,-6.94 -5.6,-12.54 -12.6,-12.54 l -61.2,0 z m 30.5,25.55 c 5.3,0 9.7,1.67 13.2,5.02 3.5,3.35 5.3,7.54 5.3,12.58 0,5.04 -1.8,9.22 -5.3,12.52 -3.6,3.31 -8.1,4.96 -13.5,4.96 -5.1,0 -9.4,-1.65 -12.8,-4.96 -3.5,-3.3 -5.2,-7.44 -5.2,-12.42 0,-5.11 1.8,-9.33 5.2,-12.68 3.5,-3.35 7.8,-5.02 13.1,-5.02 z m -94.58,0 c 3.18,0 6.68,0.73 10.49,2.21 0.66,0.25 1.49,1.18 1.49,2.16 0,1.27 -1.03,2.31 -2.31,2.31 -0.36,0 -0.74,-0.14 -1.04,-0.28 -2.86,-1.2 -5.62,-1.76 -8.39,-1.76 -3.91,0 -7.16,1.24 -9.75,3.71 -2.57,2.47 -3.87,5.57 -3.87,9.29 0,3.75 1.28,6.83 3.81,9.25 2.54,2.41 5.8,3.62 9.77,3.62 3.01,0 5.96,-0.67 8.87,-2.01 0,0 0.61,-0.2 0.94,-0.2 1.29,0 2.34,1.05 2.34,2.35 0,0.93 -0.58,1.83 -1.52,2.18 -3.22,1.45 -6.89,2.19 -10.93,2.19 -3.82,0 -7.06,-0.76 -9.71,-2.29 -2.65,-1.54 -4.76,-3.65 -6.31,-6.34 -1.55,-2.7 -2.32,-5.61 -2.32,-8.74 0,-4.98 1.77,-9.17 5.32,-12.56 3.54,-3.4 7.91,-5.09 13.12,-5.09 z m 94.88,4.61 c -3.9,0 -7.1,1.23 -9.7,3.68 -2.5,2.44 -3.7,5.57 -3.7,9.37 0,3.69 1.2,6.75 3.8,9.2 2.5,2.45 5.7,3.68 9.4,3.68 3.9,0 7.1,-1.25 9.6,-3.75 2.6,-2.5 3.8,-5.6 3.8,-9.33 0,-3.62 -1.2,-6.67 -3.8,-9.14 -2.5,-2.47 -5.7,-3.71 -9.4,-3.71 z M 34.58,117.8 c -6.94,0 -12.54,5.6 -12.54,12.5 l 0,61.3 c 0,6.9 5.63,12.5 12.54,12.5 l 61.26,0 c 6.96,0 12.56,-5.6 12.56,-12.5 l 0,-61.3 c 0,-6.9 -5.6,-12.5 -12.56,-12.5 l -61.26,0 z m 96.82,0 c -6.9,0 -12.6,5.6 -12.6,12.5 l 0,61.3 c 0,6.9 5.7,12.5 12.6,12.5 l 61.2,0 c 7,0 12.6,-5.6 12.6,-12.5 l 0,-61.3 c 0,-6.9 -5.6,-12.5 -12.6,-12.5 l -61.2,0 z m -78.43,25.9 9.9,0 c 4.65,0 8.33,0.6 11.04,2.1 2.71,1.4 4.86,3.4 6.46,6.1 1.6,2.7 2.4,5.7 2.4,8.9 0,2.2 -0.44,4.4 -1.32,6.5 -0.88,2.1 -2.14,4 -3.77,5.5 -1.67,1.7 -3.6,2.9 -5.8,3.7 -1.29,0.5 -2.47,0.9 -3.55,1 -1.08,0.3 -3.14,0.3 -6.17,0.3 l -9.21,0 c -1.02,0 -1.6,-0.8 -1.6,-1.5 l 0,-0.1 0,-31 c 0,-0.9 0.68,-1.5 1.62,-1.5 z m 100.73,0 15.6,0 c 1.2,0 2.2,1 2.2,2.2 0,1.2 -1,2.2 -2.2,2.2 l -12.2,0 0,10.4 11.8,0 c 1.2,0 2.2,1 2.2,2.2 0,1.2 -1,2.2 -2.2,2.2 l -11.8,0 0,10.6 12.7,0 0,0 c 1.2,0 2.2,0.9 2.2,2.1 0,1.2 -1,2.2 -2.2,2.2 l -16.1,0 c -0.8,0 -1.6,-0.7 -1.6,-1.5 l 0,-31.1 c 0,-0.8 0.7,-1.5 1.6,-1.5 z m -97.46,4.3 0,25.5 6.26,0 c 2.45,0 4.35,-0.3 5.71,-0.6 1.35,-0.3 2.48,-0.7 3.39,-1.2 0.9,-0.5 1.73,-1.2 2.48,-1.9 2.42,-2.5 3.62,-5.6 3.62,-9.3 0,-3.7 -1.24,-6.7 -3.72,-9 -0.91,-0.8 -1.96,-1.6 -3.14,-2.1 -1.19,-0.6 -2.31,-0.9 -3.37,-1.1 C 66.41,148 64.71,148 62.36,148 l -6.12,0 z"></path> </svg>