<?xml version="1.0"?>

<svg xmlns:dc="http://purl.org/dc/elements/1.1/" xmlns:cc="http://creativecommons.org/ns#" xmlns:rdf="http://www.w3.org/1999/02/22-rdf-syntax-ns#" xmlns:svg="http://www.w3.org/2000/svg" xmlns="http://www.w3.org/2000/svg" viewBox="0 0 344.3 149.2" version="1.1" id="svg2" height="149.2" width="344.3">
  <defs id="defs4"></defs>
  <metadata id="metadata7">
    <rdf:rdf>
      <cc:work rdf:about="">
        <dc:format>image/svg+xml</dc:format>
        <dc:type rdf:resource="http://purl.org/dc/dcmitype/StillImage"></dc:type>
        <dc:title></dc:title>
      </cc:work>
    </rdf:rdf>
  </metadata>
  <path id="path3872" d="M 141.8,66 H 168 L 146.4,51 c -5,-3 -10.6,-1 -12.6,4 -1.7,6 2.6,11 8,11 M 197.6,51 176,66 h 26.5 c 5.5,0 9,-5 7.4,-11 -1,-3 -4.1,-5 -7.7,-5 -1.5,0 -3.1,0 -4.6,1 m -9.6,-13 -10.9,25 23,-15 c 5.3,-4 4.5,-10 1.5,-13 -1.2,-1 -3.5,-3 -5.9,-3 -2.9,0 -6,2 -7.7,6 m -15.3,-7 h 2.2 c 0,0 1.2,0 1.3,0 -0.8,1 -3.2,1 -2.9,5 l 3.7,25 11.5,-28 c 2.3,-6 -2.6,-11 -7,-11 -0.2,0 -0.4,0 -0.6,0 -3.9,0 -8.4,3 -8.2,9 m -10.5,-9 c -3.7,0 -9.3,5 -6.8,11 l 11.5,28 4,-29 c 1,-7 -4.4,-10 -8.7,-10 m -19.8,13 c -3.2,2 -4.3,9 1.4,13 l 23,15 -11.1,-25 c -2.4,-6 -8.8,-7 -13.3,-3 m 162.7,51 v 2 37 1 h 4 v -1 -37 -2 z m -10.4,-3 a 2.145,2.145 0 1 0 0,4 h 24.7 a 2.145,2.145 0 1 0 0,-4 z m -20.4,0 c -3.1,0 -6.2,0 -8.6,2 -2.5,2 -4.1,5 -4.1,8 0,4 1.1,6 3.1,8 2,2 4.5,3 7.7,5 3.2,1 6,3 7.9,4 1.8,1 2.6,3 2.6,5 0,2 -0.9,4 -2.4,5 -1.5,2 -3.6,3 -5.9,3 -5.5,0 -9.7,-4 -11.1,-6 l -3.2,3 c 1.8,2 7,7 14.3,7 3.2,0 6.4,-1 8.8,-3 2.3,-2 3.9,-5 3.9,-9 0,-4 -1.9,-6 -4.4,-8 -2.5,-2 -5.5,-4 -8.6,-5 0,0 0,0 0,0 -3.2,-2 -5.5,-3 -6.7,-4 -1.3,-1 -1.8,-2 -1.8,-5 0,-2 0.9,-3 2.4,-5 1.5,0 3.7,-1 6,-1 4.2,0 7.7,2 7.7,2 a 2.189,2.189 0 1 0 2.4,-3 c 0,0 -4.4,-3 -10.1,-3 z m -48.6,23 v 4 h 18.7 v -4 z m 9.7,-24 a 2.084,2.084 0 0 0 -1.9,2 l -16.4,40 a 2.191,2.191 0 1 0 3.9,2 l 14.4,-36 14.9,36 h 4.5 L 237.4,84 a 2.084,2.084 0 0 0 -2,-2 z m -78.7,0 a 2.084,2.084 0 0 0 -1.9,2 L 141.9,115 129,84 a 2.084,2.084 0 0 0 -4,0 l -7.4,40 a 2.12,2.12 0 1 0 4.1,1 l 6.1,-33 12.1,30 a 2.084,2.084 0 0 0 3.9,0 l 12.2,-30 6.3,34 h 4.3 l -7.8,-42 a 2.084,2.084 0 0 0 -2.1,-2 z M 89.56,83 C 78.6,83 67.4,91 67.4,105 c 0,12 10.3,22 22.33,22 13.77,0 21.97,-12 21.97,-22 0,-12 -9.3,-22 -22.14,-22 z m 0,4 c 10.39,0 17.84,9 17.84,18 0,8 -6.4,18 -17.67,18 C 80,123 71.7,115 71.7,105 71.7,93 80.8,87 89.56,87 Z M 44.1,83 c -12,0 -22.1,9 -22.1,22 0,11 9.5,22 22.2,22 8.8,0 14.4,-5 16.2,-7 l -3,-4 c -1.1,2 -5.5,7 -13.2,7 -10.4,0 -17.9,-9 -17.9,-18 0,-10 8.1,-18 17.8,-18 8.2,0 12.5,5 12.5,5 a 2.23,2.23 0 1 0 3.3,-3 c 0,0 -5.7,-6 -15.8,-6 z m 150.1,0 c -12,0 -22.1,9 -22.1,22 0,11 9.5,22 22.2,22 8.8,0 14.4,-5 16.2,-7 l -3.1,-4 c -1,2 -5.4,7 -13.1,7 -10.4,0 -17.9,-9 -17.9,-18 0,-10 8.1,-18 17.8,-18 8.2,0 12.5,5 12.5,5 a 2.23,2.23 0 1 0 3.3,-3 c 0,0 -5.7,-6 -15.8,-6 z"></path>
</svg>
