<?xml version="1.0" encoding="UTF-8" standalone="no"?>
<svg xmlns="http://www.w3.org/2000/svg"  height="253"  width="660" viewBox="0 0 660 253">
  <path d="m 524.8,202.9 c 2.2,0 3.9,1.7 3.9,3.9 0,2.2 -1.7,4 -3.9,4 -2.1,0 -3.9,-1.8 -3.9,-4 0,-2.1 1.8,-3.9 3.9,-3.9 z m 0,0.6 c -1.7,0 -3.1,1.5 -3.1,3.3 0,1.9 1.4,3.4 3.2,3.4 1.7,0 3.1,-1.5 3.1,-3.3 0,-1.9 -1.4,-3.4 -3.2,-3.4 z m -0.7,5.6 -0.7,0 0,-4.4 c 0.4,0 0.7,-0.1 1.2,-0.1 0.7,0 1.2,0.2 1.4,0.4 0.3,0.1 0.4,0.4 0.4,0.9 0,0.5 -0.4,0.9 -0.9,1 l 0,0 c 0.4,0.1 0.7,0.4 0.8,1.1 0.1,0.6 0.2,0.9 0.3,1 l -0.8,0 c -0.1,-0.1 -0.2,-0.5 -0.3,-1.1 -0.1,-0.5 -0.3,-0.7 -0.9,-0.7 l -0.5,0 z m 0,-2.4 0.5,0 c 0.6,0 1.1,-0.2 1.1,-0.7 0,-0.4 -0.3,-0.8 -1.1,-0.8 -0.2,0 -0.4,0 -0.5,0 z m -16.1,19 c -1.5,2.2 -5,8.5 -8.2,8.5 -1.6,0 -2.7,-1.3 -2.7,-3.9 0,-7.6 6.1,-15.7 12.1,-15.7 0.8,0 1.5,0.2 2,0.5 l 1.4,-4.5 c 0.5,-1.5 0.6,-2.1 0.6,-2.6 0,-0.5 -0.1,-0.9 -1.5,-0.9 -0.2,0 -0.5,-0.1 -0.5,-0.4 0,-0.3 0.1,-0.6 1.2,-0.6 0.7,0 1.4,-0.1 2.1,-0.2 1.8,-0.3 2.3,-1 2.7,-1 0.2,0 0.4,0.1 0.4,0.3 0,0.1 -0.2,0.8 -0.8,2.6 -3,9.8 -6.9,21.7 -6.9,23.5 0,0.1 0,0.3 0.2,0.3 0.4,0 1.1,-1 2,-2.6 1.1,-1.8 1.2,-2.5 1.5,-2.5 0.2,0 0.4,0.1 0.4,0.4 0,0.4 -2.7,7.2 -6,7.2 -0.8,0 -1.6,-0.3 -1.6,-1.7 0,-1.5 1.1,-4.8 1.7,-6.7 l -0.1,0 z m 1,-10.1 c -3.6,0 -8.5,9.7 -8.5,14.1 0,1 0.4,1.5 1.2,1.5 2.4,0 9,-10.6 9,-14.1 0,-0.9 -0.5,-1.5 -1.7,-1.5 z m -18.5,8.8 c 2.1,-4.8 4.4,-9.8 7,-9.8 0.8,0 1.4,0.5 1.4,2.1 0,2 -1,4 -2.4,4 -0.7,0 -1.1,-0.5 -1.1,-1.1 0,-0.5 0.2,-1 0.2,-1.4 0,-0.3 -0.1,-0.3 -0.3,-0.3 -1.2,0 -5.3,9.6 -7.1,14.9 -0.1,0.5 -0.1,0.7 -0.8,0.7 l -2,0 c -0.3,0 -0.5,-0.1 -0.5,-0.2 0,-0.5 4.4,-14.2 4.4,-15.7 0,-0.3 -0.1,-0.4 -0.3,-0.4 -0.4,0 -1.1,1 -1.7,2 -1.2,1.8 -1.4,2.2 -1.6,2.2 -0.2,0 -0.3,-0.1 -0.3,-0.4 0,-0.7 2.8,-6.4 5.6,-6.4 1,0 1.4,0.4 1.4,1.4 0,1.8 -1.1,5.1 -1.9,8.4 z m -6.9,-9.8 c 0.5,0 0.6,0.1 0.6,0.3 0,0.6 -4.7,14.4 -4.7,15.9 0,0.4 0.1,0.4 0.4,0.4 0.3,0 1.2,-1.2 2.1,-2.9 0.8,-1.5 0.8,-1.8 1.1,-1.8 0.2,0 0.3,0.1 0.3,0.3 0,0.9 -2.7,7.4 -6.2,7.4 -0.7,0 -1.2,-0.7 -1.2,-1.7 0,-2.1 1,-5 1.6,-7.3 l -0.1,-0.1 c -1.7,2.7 -5.2,9.1 -9.2,9.1 -1.7,0 -2.6,-1.5 -2.6,-3.5 0,-7.1 6.9,-15.7 12.1,-15.7 1.2,0 2.1,0.4 2.8,0.9 0.4,-1 0.6,-1.3 1.3,-1.3 l 1.7,0 z m -5.2,1.5 c -4.3,0 -9.1,9.8 -9.1,14 0,0.9 0.4,1.5 1.1,1.5 3.1,0 9.6,-11.9 9.6,-14 0,-1 -0.7,-1.5 -1.6,-1.5 z m -19.5,-1 c 0.3,0 0.5,0.1 0.5,0.5 0,1.1 -4,12.1 -4,15.2 0,0.9 0.5,1.3 1.3,1.3 3.4,0 7.2,-8.7 7.2,-11.4 0,-1.6 -1.1,-2.4 -1.1,-3.9 0,-1.2 0.8,-2.2 1.7,-2.2 0.8,0 1.6,0.5 1.6,2.3 0,3.1 -4.7,17.3 -11.1,17.3 -1.5,0 -2.6,-1 -2.6,-3 0,-1.6 0.5,-3.2 0.8,-4.5 l -0.1,-0.1 c -1.2,2.3 -4,7.5 -7.4,7.5 -1.7,0 -2.6,-1.1 -2.7,-3.1 -0.1,-4 4.2,-12.4 4.2,-13.6 0,-0.3 -0.1,-0.6 -0.4,-0.6 -0.6,0 -1.5,1.1 -2.7,2.9 -1,1.3 -1.1,1.9 -1.4,1.9 -0.3,0 -0.5,-0.1 -0.5,-0.5 0,-0.6 3.4,-6.5 6.6,-6.5 0.9,0 1.7,0.7 1.7,1.8 0,1.5 -1.3,4.9 -2.4,8 -1,2.7 -2,5.2 -2,6.5 0,0.7 0.4,1.2 1.1,1.2 1.5,0 5.6,-4.5 7.9,-12.5 1.2,-4.2 1.1,-4.6 2,-4.6 l 1.8,0 z m -24.5,9.3 c 2,-4.8 4.3,-9.8 6.9,-9.8 0.8,0 1.4,0.5 1.4,2.1 0,2 -1,4 -2.3,4 -0.8,0 -1.2,-0.5 -1.2,-1.1 0,-0.5 0.2,-1 0.2,-1.4 0,-0.3 -0.1,-0.3 -0.3,-0.3 -1.2,0 -5.3,9.6 -7,14.9 -0.2,0.5 -0.2,0.7 -0.9,0.7 l -2,0 c -0.3,0 -0.4,-0.1 -0.4,-0.2 0,-0.5 4.3,-14.2 4.3,-15.7 0,-0.3 -0.1,-0.4 -0.3,-0.4 -0.4,0 -1.1,1 -1.7,2 -1.1,1.8 -1.4,2.2 -1.5,2.2 -0.2,0 -0.4,-0.1 -0.4,-0.4 0,-0.7 2.9,-6.4 5.7,-6.4 0.9,0 1.3,0.4 1.3,1.4 0,1.8 -1,5.1 -1.9,8.4 z m -13.1,-9.8 c 3.5,0 5.9,2.9 5.9,7.7 0,4.6 -4.1,11.8 -10.8,11.8 -3.5,0 -5.8,-2.9 -5.8,-7.6 0,-4.7 4,-11.9 10.7,-11.9 z m -4.4,18.5 c 3.9,0 6.8,-9.2 6.8,-13.7 0,-2.7 -1.1,-3.8 -2.9,-3.8 -3.9,0 -6.8,9.3 -6.8,13.7 0,2.8 1.1,3.8 2.9,3.8 z m -5.1,-16.5 -3.6,0 -4.9,17.5 c -1.6,5.7 -4.3,9 -8.4,9 -2.1,0 -3.5,-1 -3.5,-2.9 0,-1.5 0.9,-2.2 1.9,-2.2 1.1,0 1.5,0.9 1.5,2.9 0,0.9 0.2,1.1 0.6,1.1 1.8,0 2.9,-1.9 3.5,-3.9 l 6,-21.5 -3.3,0 0.3,-1.4 3.4,0 1.3,-3.9 c 1.2,-3.5 4,-6.4 8.3,-6.4 1.7,0 3.1,0.6 3.1,2.3 0,1.2 -0.8,2.1 -1.9,2.1 -1.3,0 -1.8,-0.7 -1.9,-2 -0.1,-0.9 -0.3,-1.1 -0.8,-1.1 -1.4,0 -2.8,1.6 -3.7,4.9 l -1.1,4.1 3.5,0 z m -21.1,0.6 -2.8,0 c 0.5,1.2 0.9,2.4 0.9,3.4 0,3.8 -3.1,7.3 -7,7.3 -1.5,0 -2.7,-0.6 -3.4,-1 -0.5,0.1 -0.9,0.5 -0.9,1 0,3 9.2,3.6 9.2,8.7 0,4.1 -3.2,6.5 -8.7,6.5 -4.6,0 -7.2,-2.3 -7.2,-5.1 0,-3.7 3.2,-4.2 5.9,-5.4 -0.9,-0.8 -1.6,-1.7 -1.6,-3.1 0,-1.4 1.3,-2.7 2.5,-3.3 -1,-1.2 -1.8,-2.6 -1.8,-4.7 0,-4 3.3,-6.9 7.3,-6.9 0.9,0 1.7,0.2 2.3,0.4 0.6,0.3 1.1,0.5 1.5,0.5 l 4.3,0 z M 379.6,242 c 2.5,0 4.5,-1.1 4.5,-3.4 0,-2.3 -3.7,-3.7 -6.4,-5.3 -0.9,0.1 -3.9,1.1 -3.9,4 0,2.9 3.1,4.7 5.8,4.7 z m 1.3,-15.1 c 2.5,0 4.8,-4.5 4.8,-8.8 0,-1.6 -0.7,-2.5 -1.9,-2.5 -2.8,0 -4.9,4.9 -4.9,8 0,2.1 0.6,3.3 2,3.3 z m -25.5,6.6 c -0.4,0 -0.6,-0.1 -0.6,-0.5 0,-0.9 4.7,-13.6 4.7,-15.3 0,-0.4 -0.2,-0.5 -0.4,-0.5 -0.7,0 -1.6,0.9 -2.3,1.9 -1,1.3 -1.2,2.1 -1.6,2.1 -0.2,0 -0.4,-0.1 -0.4,-0.4 0,-0.6 3.4,-6.2 6.4,-6.2 1,0 1.6,0.6 1.6,1.7 0,1.9 -1,4.8 -1.7,6.7 l 0.1,0.1 c 2.4,-3.6 4.9,-8.5 8.7,-8.5 1.5,0 2.4,0.9 2.4,2.6 0,2.3 -4.2,11.6 -4.2,13.4 0,0.4 0.1,0.7 0.5,0.7 0.6,0 1.5,-1.2 2.6,-2.8 1,-1.6 0.9,-2.1 1.3,-2.1 0.2,0 0.4,0.2 0.4,0.4 0,0.9 -3.6,7.4 -6.8,7.4 -0.9,0 -1.7,-0.7 -1.7,-1.8 0,-0.7 0.2,-1.9 0.7,-3.2 l 3.5,-9.7 c 0.3,-0.9 0.4,-1.6 0.4,-2 0,-0.7 -0.3,-0.9 -0.6,-0.9 -2.7,0 -7.4,7.4 -9.9,15.3 -0.5,1.5 -0.6,1.7 -1.2,1.7 l -1.9,0 z m -7.5,-13.8 c 0.2,-0.9 0.5,-1.6 0.5,-2.1 0,-0.2 -0.1,-0.4 -0.4,-0.4 -0.4,0 -0.9,0.4 -1.9,1.8 -1.3,1.8 -1.3,2.5 -1.8,2.5 -0.2,0 -0.3,-0.1 -0.3,-0.4 0,-1.1 3.3,-6.6 6.4,-6.6 0.9,0 1.5,0.5 1.5,1.8 0,2.2 -4.4,13.1 -4.4,14.7 0,0.4 0.1,0.5 0.3,0.5 0.3,0 0.9,-0.3 2.4,-2.5 1.3,-2.2 1.4,-2.7 1.7,-2.7 0.2,0 0.3,0.1 0.3,0.3 0,0.8 -3.3,7.5 -6.7,7.5 -0.8,0 -1.4,-0.5 -1.4,-1.8 0,-0.9 0.4,-2.7 0.9,-4.2 z m 4.7,-12.6 c 0.8,0 1.3,0.7 1.3,2.1 0,1.8 -1.1,3.2 -2.2,3.2 -1,0 -1.5,-0.8 -1.5,-1.7 0,-1.9 1.2,-3.6 2.4,-3.6 z m -21.9,27.1 c -2,0 -2.8,-1.2 -2.8,-3.2 0,-3.6 4.2,-12.6 4.2,-13.4 0,-0.5 -0.1,-0.7 -0.5,-0.7 -0.4,0 -1.4,1.1 -2.3,2.2 -1.4,1.8 -1.4,2.5 -1.8,2.5 -0.2,0 -0.3,-0.2 -0.3,-0.5 0,-0.4 3.2,-6.5 6.5,-6.5 1.3,0 1.8,0.9 1.8,2.2 0,2.5 -4.5,11.5 -4.5,14.4 0,0.7 0.4,1.3 1.2,1.3 3.5,0 8.5,-8.2 8.5,-12.1 0,-1.2 -1.2,-1.6 -1.2,-3.6 0,-1.5 0.9,-2.2 1.8,-2.2 0.9,0 1.5,0.6 1.5,2.7 0,5.4 -5.9,16.9 -12.1,16.9 z m -8.7,-2.6 c 0.5,0 1.4,-1.2 2.3,-2.6 1.2,-2 1.1,-2.5 1.6,-2.5 0.2,0 0.3,0.2 0.3,0.4 0,0.9 -3.4,7.2 -6.5,7.2 -1.1,0 -1.7,-0.7 -1.7,-2.1 0,-3.5 6.8,-22.1 6.8,-24.2 0,-0.3 0,-0.6 -0.8,-0.7 l -0.8,0 c -0.5,0 -0.7,-0.1 -0.7,-0.4 0,-0.5 0.4,-0.6 1.5,-0.6 0.8,0 1.5,0 2.1,-0.2 1.8,-0.3 2.3,-1 2.7,-1 0.2,0 0.4,0.1 0.4,0.3 0,0.1 -0.2,0.8 -0.8,2.6 -2.8,9.2 -7,21.1 -7,23.2 0,0.4 0.2,0.6 0.6,0.6 z m -10.8,-17 c 3.4,0 5.8,2.9 5.8,7.7 0,4.6 -4.1,11.8 -10.8,11.8 -3.5,0 -5.8,-2.9 -5.8,-7.6 0,-4.7 4,-11.9 10.8,-11.9 z m -4.5,18.5 c 3.9,0 6.8,-9.2 6.8,-13.7 0,-2.7 -1.1,-3.8 -2.8,-3.8 -3.9,0 -6.8,9.3 -6.8,13.7 0,2.8 1,3.8 2.8,3.8 z M 298.5,220 c -1.2,0 -1.3,-4.4 -4,-4.4 -1.2,0 -2.2,0.9 -2.2,2.6 0,3 5.2,6.1 5.2,9.8 0,3.2 -2.7,6.2 -6.5,6.2 -2.8,0 -5,-1.1 -5,-2.4 0,-1 0.2,-2.2 0.3,-2.8 0.2,-1.1 0.4,-1.4 1,-1.4 0.6,0 0.7,0.5 1.2,2.1 0.5,1.6 1.5,3.4 3.2,3.4 1.3,0 2.5,-0.9 2.5,-3 0,-3.3 -5,-5.5 -5,-9.4 0,-3.8 3.1,-6.1 6.3,-6.1 2.3,0 4.5,0.9 4.5,1.7 0,0.8 -0.7,3.7 -1.5,3.7 z m 346.6,-90.4 c 3.3,0 6,2.8 6,6.2 0,3.4 -2.7,6.2 -6.1,6.2 -3.3,0 -6.1,-2.7 -6.1,-6.2 0,-3.4 2.8,-6.2 6.1,-6.2 z m 0,1 c -2.7,0 -5,2.3 -5,5.2 0,2.9 2.2,5.2 5,5.2 2.7,0 4.9,-2.3 4.9,-5.2 0,-2.9 -2.2,-5.2 -4.9,-5.2 z m -1.2,8.8 -1.1,0 0,-6.9 c 0.6,-0.1 1.1,-0.1 1.9,-0.1 1.1,0 1.8,0.2 2.2,0.5 0.4,0.3 0.6,0.7 0.6,1.4 0,0.9 -0.6,1.4 -1.3,1.7 l 0,0 c 0.6,0.2 1,0.7 1.1,1.7 0.2,1.1 0.3,1.5 0.4,1.7 l -1.1,0 c -0.2,-0.2 -0.4,-0.9 -0.5,-1.8 -0.1,-0.8 -0.6,-1.1 -1.5,-1.1 l -0.7,0 0,2.9 z m 0,-3.8 0.8,0 c 0.9,0 1.7,-0.4 1.7,-1.2 0,-0.6 -0.5,-1.2 -1.7,-1.2 -0.4,0 -0.6,0 -0.8,0.1 z m -54.6,-5.9 11.9,0 0,-9.9 18.7,-6.8 0,16.7 15.7,0 0,11.9 -15.7,0 0,15.2 c 0,6.8 0.9,10.4 8.3,10.4 1.8,0 4.5,-0.2 7.4,-0.6 l 0,11.9 c -1.7,0.3 -6.7,1.1 -12.5,1.1 -14.3,0 -21.9,-5.5 -21.9,-17.3 l 0,-20.7 -11.9,0 0,-11.9 z m -21.6,-21.3 18.6,0 0,70.1 -18.6,0 z m -9.4,60.1 c 0,3.1 0.2,6.7 0.4,10 l -18.1,0 c -0.2,-2.9 -0.3,-5.8 -0.3,-8.8 l -0.2,0 c -4.9,6.5 -12.2,10.6 -20.7,10.6 -17.8,0 -24.5,-10.1 -24.5,-22.8 l 0,-27.8 18.7,0 0,25 c 0,7.8 3.3,13.2 11.8,13.2 7.7,0 14.3,-5.9 14.3,-16.7 l 0,-21.5 18.6,0 0,38.8 z M 428.8,144.1 c 0.9,-12.7 15.2,-16.2 28,-16.2 19.1,0 29.9,4.5 29.9,21 l 0,18.7 c 0,3.6 0.1,7.3 0.4,10.9 l -18,0 c -0.2,-1.7 -0.4,-5.3 -0.4,-7.9 l -0.2,0 c -4.5,7.4 -12.8,9.7 -21.1,9.7 -13.9,0 -22,-5.6 -22,-15.8 0,-11.6 10.9,-16.8 29.1,-16.8 l 13.6,0 c 0,-7.8 -3.6,-9.7 -11,-9.7 -6.9,0 -9,2.7 -9.1,6.1 z m 31.5,13.1 c -12.5,0 -15.1,3.3 -15.1,7.4 0,3 2.8,5.1 8.1,5.1 12.1,0 14.8,-7.4 14.8,-12.5 z m -54.2,21.3 -23,0 -23,-48.8 21,0 14.8,38.1 15.2,-38.1 18.1,0 z M 258.5,139.7 c 0,-3.1 -0.2,-6.7 -0.4,-10 l 18,0 c 0.2,2.9 0.4,5.8 0.4,8.8 l 0.2,0 c 4.7,-6.9 10.9,-10.6 20.1,-10.6 7.3,0 14.2,3.3 17.5,11 4.1,-6.5 10.8,-11 20.6,-11 10.4,0 23,3.8 23,22.9 l 0,27.7 -18.6,0 0,-25.5 c 0,-7.3 -2.8,-12.7 -10.4,-12.7 -6.2,0 -11.4,5.1 -11.4,12.2 l 0,26 -18.6,0 0,-25 c 0,-7.3 -1.7,-13.2 -10.1,-13.2 -6.5,0 -11.7,5.9 -11.7,14.8 l 0,23.4 -18.6,0 0,-38.8 z m -108,0 c 0,-3.1 -0.1,-6.7 -0.4,-10 l 18,0 c 0.2,2.9 0.4,5.8 0.4,8.8 l 0.2,0 c 4.7,-6.9 10.9,-10.6 20.1,-10.6 7.3,0 14.2,3.3 17.5,11 4.1,-6.5 10.8,-11 20.6,-11 10.4,0 23,3.8 23,22.9 l 0,27.7 -18.6,0 0,-25.5 c 0,-7.3 -2.8,-12.7 -10.4,-12.7 -6.2,0 -11.4,5.1 -11.4,12.2 l 0,26 -18.6,0 0,-25 c 0,-7.3 -1.7,-13.2 -10.1,-13.2 -6.5,0 -11.7,5.9 -11.7,14.8 l 0,23.4 -18.6,0 0,-38.8 z m -40.4,-11.8 c 27.5,0 35.4,14.6 35.4,26.2 0,11.6 -7.9,26.2 -35.4,26.2 -27.5,0 -35.3,-14.6 -35.3,-26.2 0,-11.6 7.8,-26.2 35.3,-26.2 z m 0,41.8 c 8.8,0 15.6,-5.6 15.6,-15.6 0,-10 -6.8,-15.5 -15.6,-15.5 -8.7,0 -15.5,5.5 -15.5,15.5 0,10 6.8,15.6 15.5,15.6 z m -36.7,-9.5 c -1.7,15.9 -17.46,20.1 -31.83,20.1 -14.48,0 -31.57,-6.6 -31.57,-26 0,-19.5 15.92,-26.4 32.83,-26.4 13.31,0 28.27,4 29.97,19.1 l -19.18,0 c -1.05,-6 -4.76,-8.4 -10.79,-8.4 -8.34,0 -13.02,6.5 -13.02,15.4 0,8.6 3.89,15.7 13.02,15.7 6.12,0 10.59,-3.1 10.79,-9.5 z M 400.1,10 c -24.3,0 -45.9,5.73 -58.5,16.86 l -1.7,1.49 5.1,1.1 0.5,-0.36 c 9.9,-8.88 30.1,-15.29 50.5,-15.26 7.2,0 18.1,1.5 27.1,5.84 0.8,0.41 1.6,0.87 2.4,1.32 -19.6,8.05 -36.5,19.37 -48.3,30.05 -4.9,4.27 -7.3,6.25 -10.8,8.54 -3.5,-2.29 -5.9,-4.27 -10.8,-8.54 -21.3,-19.41 -59.8,-41 -100.1,-41 -15.6,0 -31,3.56 -42.7,9.25 -5.8,2.86 -10.7,6.23 -14.1,10.05 -3.5,3.78 -5.5,8.07 -5.5,12.59 0,4.5 1.9,8.77 5.1,12.57 4.9,5.74 12.9,10.53 22.8,13.9 9.9,3.4 21.7,5.4 34.4,5.4 24.3,0 45.9,-5.7 58.6,-16.85 l 1.6,-1.48 -5.1,-1.1 -0.4,0.36 C 300.3,63.61 280.1,70 259.6,70 c -7.1,0 -18.1,-1.5 -27,-5.85 -4.5,-2.16 -8.5,-5.04 -11.3,-8.75 -2.9,-3.73 -4.6,-8.25 -4.6,-13.94 0,-5.51 0.9,-9.98 2.5,-13.58 2.5,-5.37 6.7,-8.95 12.6,-11.24 5.8,-2.3 13.3,-3.22 22,-3.22 27.3,0 48.5,14.07 65.9,29.05 8.7,7.47 16.5,15.16 23.5,21.36 7.1,6.17 13.5,10.97 19.7,12.47 0,0 1.8,0.4 3.6,0.4 1.7,0 3.5,-0.4 3.5,-0.4 2.9,-0.7 5.8,-2.1 8.9,-4.1 6.7,1.1 13.8,1.6 21.2,1.6 12.7,0 24.6,-2 34.5,-5.4 9.9,-3.37 17.8,-8.16 22.7,-13.9 3.3,-3.8 5.2,-8.07 5.2,-12.57 l -23.5,0 c -0.1,5.49 -1.8,9.9 -4.6,13.52 -2.8,3.71 -6.8,6.58 -11.3,8.74 -9,4.31 -19.9,5.81 -27.1,5.81 -4.3,0 -8.6,-0.3 -12.9,-0.8 2.2,-1.6 4.3,-3.41 6.6,-5.37 10.6,-9.31 22.7,-21.94 37.3,-32.22 2.1,-1.49 4.3,-2.91 6.5,-4.28 0.3,0.35 0.6,0.71 0.9,1.09 2.8,3.61 4.5,8.03 4.6,13.51 l 23.5,-0.1 c 0,-4.49 -1.9,-8.77 -5.2,-12.57 -2.7,-3.25 -6.5,-6.19 -11.1,-8.76 9.9,-4.38 20.8,-7.16 32.9,-7.16 l 3.6,0 -5,-3.35 -0.4,0 c -13.6,0 -27,2.52 -39.5,6.52 -1.1,-0.4 -2.1,-0.79 -3.2,-1.16 C 424.7,12 412.8,10 400.1,10 Z m 62.7,51.27 c 2.9,0 5.2,2.34 5.2,5.23 0,3 -2.3,5.3 -5.2,5.3 -2.8,0 -5.2,-2.3 -5.2,-5.3 0,-2.91 2.4,-5.23 5.2,-5.23 z m 0,0.81 c -2.3,0 -4.2,1.98 -4.2,4.42 0,2.5 1.9,4.5 4.3,4.5 2.3,0 4.2,-2 4.2,-4.5 0,-2.44 -1.9,-4.42 -4.3,-4.42 z m -0.9,7.52 -1,0 0,-5.9 c 0.5,-0.1 1,-0.14 1.7,-0.14 0.9,0 1.5,0.18 1.8,0.45 0.4,0.25 0.5,0.66 0.5,1.22 0,0.76 -0.5,1.27 -1.1,1.37 l 0,0 c 0.5,0.1 0.9,0.6 1,1.5 0.1,0.9 0.3,1.2 0.4,1.4 l -1,0 c -0.2,-0.2 -0.3,-0.7 -0.4,-1.5 -0.2,-0.7 -0.5,-1 -1.3,-1 l -0.6,0 z m 0,-3.3 0.6,0 c 0.8,0 1.5,-0.3 1.5,-0.98 0,-0.52 -0.4,-1.01 -1.5,-1.01 -0.3,0 -0.5,0 -0.6,0 z" />
</svg>
