<?xml version="1.0"?>

<!-- Generator: Adobe Illustrator 19.1.0, SVG Export Plug-In . SVG Version: 6.00 Build 0)  -->
<svg version="1.1" id="Layer_1" xmlns="http://www.w3.org/2000/svg" xmlns:xlink="http://www.w3.org/1999/xlink" x="0px" y="0px" width="600px" height="400px" viewBox="0 0 600 400" enable-background="new 0 0 600 400" xml:space="preserve">
<path d="M364.034,152.299c-1.809,2.177-3.972,4.076-6.305,5.822c-11.514,8.615-24.979,13.254-39.92,14.822
	c-14.338,1.504-28.194-0.095-41.444-5.189c-8.951-3.441-16.511-8.472-22.936-14.966c-5.395-5.452-6.516-11.541-4.866-18.281
	c2.325-9.497,7.831-17.605,14.601-25.138c1.295-1.441,2.705-2.804,4.049-4.213c0.454-0.476,0.78-0.748,1.391-0.064
	c11.409,12.767,26.146,22.209,41.238,31.259c9.722,5.829,19.774,11.199,30.764,15.076c2.516,0.888,5.093,1.616,7.744,2.152
	C354.675,154.857,358.195,154.56,364.034,152.299z"></path>
<path d="M357.095,82.192c8.406,5.553,14.729,12.57,18.728,21.06c5.946,12.622,5.651,25.042-1.996,37.189
	c-3.663,5.818-7.996,7.61-16.239,6.102c-3.453-0.632-6.724-1.768-9.914-3.065c-10.889-4.423-20.859-10.196-30.837-15.948
	c0.34-0.704,1.035-0.893,1.58-1.21c9.562-5.569,18.855-11.445,27.296-18.29c3.219-2.61,6.214-5.4,8.805-8.507
	c1.457-1.748,2.723-3.592,3.648-5.604c1.85-4.027,1.754-7.881-1.342-11.468C356.913,82.364,357.004,82.278,357.095,82.192z"></path>
<path d="M179.745,202.106c7.291,0,14.582,0.004,21.872-0.002c2.355-0.002,4.683,0.191,6.986,0.63
	c3.893,0.743,6.291,2.783,7.165,6.195c0.447,1.743,0.729,3.498,0.729,5.287c-0.002,10.468,0.015,20.936-0.021,31.404
	c-0.005,1.395-0.166,2.807-0.445,4.181c-0.985,4.867-3.877,7.064-9.882,7.618c-0.737,0.068-1.478,0.148-2.217,0.151
	c-16.802,0.064-33.609,0.408-50.403-0.177c-6.734-0.235-9.712-3.033-10.502-8.869c-0.211-1.559-0.299-3.115-0.298-4.681
	c0.005-9.443,0.011-18.886-0.005-28.328c-0.003-1.624,0.127-3.234,0.374-4.839c0.792-5.139,3.694-7.634,9.6-8.267
	c1.903-0.204,3.808-0.313,5.729-0.308C165.534,202.117,172.64,202.106,179.745,202.106z M179.609,209.539
	c-8.217,0-16.435,0.016-24.652-0.019c-1.134-0.005-1.61,0.175-1.606,1.305c0.046,12.626,0.036,25.252,0.013,37.878
	c-0.002,0.864,0.199,1.217,1.321,1.215c16.496-0.037,32.993-0.046,49.489-0.007c1.422,0.003,1.749-0.391,1.745-1.566
	c-0.043-12.464-0.043-24.928,0.001-37.392c0.004-1.135-0.371-1.447-1.66-1.439C196.044,209.563,187.826,209.539,179.609,209.539z"></path>
<path d="M428.544,212.826c-8.688,12.15-18.267,23.538-27.305,35.243c-1.074,1.391-2.964,1.284-4.205-0.188
	c-6.699-7.95-13.383-15.909-20.088-23.855c-2.99-3.544-6.123-7.003-8.413-11.032c0.103,1.737,0.29,3.473,0.295,5.21
	c0.031,12.682,0.008,25.365,0.06,38.047c0.005,1.155-0.391,1.486-1.672,1.43c-1.973-0.087-3.956-0.073-5.93-0.003
	c-1.134,0.04-1.499-0.285-1.483-1.281c0.056-3.615,0.022-7.231,0.022-10.847c0-13.87,0.025-27.74-0.037-41.609
	c-0.006-1.456,0.461-1.707,2.106-1.913c4.85-0.607,7.746,1.091,10.552,4.559c8.267,10.216,17.036,20.122,25.609,30.148
	c1.306,1.527,1.309,1.525,2.504,0.026c8.857-11.108,17.726-22.209,26.546-33.339c0.743-0.937,1.481-1.41,2.837-1.344
	c2.156,0.105,4.328,0.095,6.485,0.003c1.316-0.056,1.659,0.326,1.648,1.449c-0.058,6.26-0.028,12.52-0.028,18.781
	c0,11.225-0.027,22.451,0.035,33.676c0.007,1.354-0.418,1.782-1.963,1.701c-2.155-0.113-4.326-0.079-6.486-0.009
	c-1.135,0.037-1.476-0.278-1.46-1.275c0.224-13.92-0.387-27.845,0.367-41.761C428.571,214.071,428.544,213.498,428.544,212.826z"></path>
<path d="M288.316,238.087c5.01-6.285,10.015-12.567,15.022-18.847c4.234-5.309,8.5-10.599,12.676-15.943
	c0.723-0.925,1.483-1.258,2.721-1.213c2.159,0.079,4.327,0.082,6.485-0.001c1.271-0.049,1.705,0.263,1.683,1.425
	c-0.077,4.153-0.03,8.309-0.03,12.463c0,13.327-0.02,26.654,0.031,39.981c0.005,1.292-0.287,1.837-1.906,1.738
	c-2.091-0.127-4.203-0.104-6.298-0.005c-1.372,0.065-1.771-0.275-1.758-1.513c0.074-7.068,0.006-14.136,0.044-21.204
	c0.039-7.334-0.279-14.673,0.477-22.017c-0.244,0.023-0.423,0.002-0.449,0.047c-2.706,4.756-6.45,8.928-9.844,13.294
	c-5.547,7.137-11.171,14.229-16.763,21.34c-1.495,1.9-3.169,1.918-4.751,0.041c-7.941-9.425-15.869-18.858-23.822-28.276
	c-1.718-2.035-2.899-4.34-4.447-6.499c0.144,2.157,0.262,4.286,0.261,6.419c-0.007,12.248-0.022,24.496,0.031,36.743
	c0.005,1.237-0.302,1.724-1.812,1.627c-1.844-0.118-3.709-0.095-5.557-0.005c-1.306,0.064-1.675-0.322-1.656-1.451
	c0.071-4.208,0.029-8.417,0.028-12.625c0-13.273,0.021-26.546-0.035-39.819c-0.006-1.313,0.4-1.545,1.895-1.752
	c5.011-0.691,7.973,1.144,10.847,4.7c8.186,10.13,16.883,19.945,25.389,29.877C287.215,237.12,287.532,237.734,288.316,238.087z"></path>
<path d="M61.026,229.776c0,6.204,0.037,12.408-0.032,18.611c-0.014,1.227,0.407,1.528,1.778,1.524
	c13.466-0.044,26.932-0.05,40.398,0.005c1.602,0.007,1.951-0.458,1.919-1.753c-0.091-3.613-0.009-7.228-0.047-10.842
	c-0.01-0.938,0.084-1.386,1.423-1.087c2.626,0.587,5.304,0.995,7.962,1.47c0.606,0.108,1.252,0.125,1.229,0.908
	c-0.114,3.875,0.374,7.778-0.562,11.616c-1.155,4.736-3.917,6.705-9.869,7.209c-3.143,0.266-6.293,0.221-9.442,0.221
	c-10.007,0.001-20.014,0.009-30.021-0.007c-2.656-0.004-5.291-0.176-7.89-0.757c-3.671-0.82-5.84-2.858-6.708-6.017
	c-0.521-1.894-0.771-3.819-0.771-5.769c0.003-10.142,0.003-20.284,0-30.426c-0.001-2.059,0.278-4.087,0.852-6.083
	c1.142-3.974,4.474-5.613,8.756-6.143c1.767-0.219,3.566-0.33,5.352-0.334c11.86-0.029,23.72-0.018,35.58-0.012
	c2.662,0.001,5.288,0.225,7.869,0.864c3.139,0.778,5.069,2.536,5.952,5.241c1.242,3.805,0.824,7.706,0.899,11.579
	c0.011,0.572-0.356,0.687-0.91,0.773c-2.914,0.454-5.827,0.917-8.728,1.431c-1.27,0.225-0.942-0.554-0.946-1.064
	c-0.023-3.291-0.069-6.583,0.017-9.871c0.031-1.18-0.298-1.558-1.729-1.553c-13.528,0.05-27.056,0.055-40.584-0.005
	c-1.563-0.007-1.787,0.477-1.776,1.66C61.056,217.368,61.026,223.572,61.026,229.776z"></path>
<path d="M534.113,202.062c10.871,0,21.742,0.021,32.613-0.027c1.35-0.006,1.87,0.245,1.764,1.499
	c-0.132,1.556-0.127,3.132-0.001,4.689c0.099,1.229-0.37,1.541-1.751,1.532c-8.4-0.055-16.801,0.019-25.2-0.065
	c-1.767-0.018-2.261,0.352-2.253,1.939c0.076,14.726,0.016,29.452,0.086,44.178c0.007,1.579-0.507,2.046-2.274,1.939
	c-2.213-0.134-4.45-0.115-6.666-0.003c-1.494,0.076-1.837-0.371-1.83-1.625c0.057-10.195,0.032-20.39,0.032-30.585
	c0-4.801-0.042-9.602,0.031-14.402c0.018-1.157-0.406-1.433-1.672-1.426c-8.524,0.044-17.048-0.011-25.571,0.055
	c-1.568,0.012-2.053-0.402-1.94-1.733c0.123-1.448,0.119-2.917,0-4.366c-0.104-1.266,0.347-1.637,1.837-1.629
	C512.247,202.089,523.18,202.062,534.113,202.062z"></path>
<path d="M244.181,140.135c-1.921-2.66-3.13-5.568-3.916-8.59c-3.714-14.271,0.534-26.972,10.179-38.555
	c3.288-3.948,7.338-7.258,11.565-10.442c7.794-5.871,16.927-7.392,26.821-6.631c4.547,0.35,9.005,1.138,13.417,2.264
	c-0.327,0.622-1.028,0.622-1.563,0.821c-21.634,8.032-38.913,20.453-50.563,38.464c-3.45,5.334-5.938,11.009-6.289,17.243
	C243.729,136.521,243.948,138.316,244.181,140.135z"></path>
<path d="M276.462,74.5c12.179-5.64,25.071-7.931,38.667-7.124c11.521,0.684,22.286,3.567,32.115,8.895
	c6.201,3.361,7.447,8.03,3.844,13.562c-0.981,1.506-2.251,2.827-3.451,4.197c-0.796,0.909-1.326,0.901-2.292,0.137
	c-6.389-5.057-13.441-9.3-21.114-12.73c-10.251-4.582-20.982-7.786-32.59-8.323c-4.708-0.218-9.375,0.004-13.921,1.241
	C277.322,74.462,276.882,74.454,276.462,74.5z"></path>
<path d="M470.941,229.924c0-8.686,0.049-17.373-0.045-26.059c-0.017-1.548,0.536-1.909,2.18-1.832
	c2.464,0.115,4.941,0.056,7.411,0.016c0.864-0.014,1.227,0.206,1.183,0.998c-0.06,1.077-0.014,2.157-0.014,3.237
	c0,16.564-0.022,33.127,0.04,49.691c0.005,1.43-0.392,1.872-2.038,1.774c-2.214-0.132-4.452-0.121-6.668-0.003
	c-1.595,0.085-2.107-0.284-2.092-1.762C470.984,247.297,470.941,238.61,470.941,229.924z"></path>
<path d="M342.532,283.34c-1.423,0.772-2.714,1.336-4.266,1.349c-3.306,0.028-5.386-1.258-6.217-4.06
	c-0.552-1.861-0.553-3.747,0.187-5.577c1.235-3.056,4.469-4.669,8.086-3.951c1.18,0.234,2.25,0.589,3.511,0.266
	c1.18-0.302,1.72,0.143,1.688,1.341c-0.093,3.505-0.01,7.014-0.04,10.521c-0.044,5.064-2.877,7.294-8.658,6.844
	c-0.737-0.057-1.472-0.159-2.2-0.277c-1.173-0.189-1.848-1.397-1.325-2.289c0.255-0.435,0.601-0.215,0.933-0.153
	c1.084,0.201,2.156,0.507,3.251,0.59C341.41,288.243,342.789,287.023,342.532,283.34z M342.641,277.532
	c0-0.86-0.076-1.727,0.02-2.58c0.114-1.01-0.403-1.413-1.458-1.667c-3.734-0.9-6.023,0.374-6.581,3.681
	c-0.166,0.984-0.049,1.935,0.157,2.883c0.421,1.939,1.869,2.879,4.075,2.708c2.897-0.225,3.787-0.989,3.788-3.251
	C342.641,278.715,342.641,278.124,342.641,277.532z"></path>
<path d="M482.211,283.367c-1.566,0.853-3.17,1.422-5.042,1.324c-2.331-0.122-4.039-1.04-4.953-2.87
	c-1.271-2.543-1.295-5.156,0.163-7.654c1.295-2.218,3.461-3.312,6.338-3.196c1.836,0.074,3.583,0.952,5.508,0.391
	c0.696-0.203,0.94,0.268,0.933,0.855c-0.051,4.149,0.074,8.306-0.174,12.445c-0.211,3.517-2.408,5.189-6.424,5.436
	c-1.494,0.092-2.953-0.128-4.418-0.316c-0.841-0.108-1.263-0.427-1.258-1.27c0.006-1.036,0.146-1.516,1.533-1.035
	c0.952,0.33,2.04,0.437,3.077,0.49C481.209,288.155,482.599,286.81,482.211,283.367z M482.348,277.671
	c0-1.024-0.019-2.049,0.008-3.073c0.014-0.535-0.147-0.855-0.772-1.108c-3.581-1.454-6.863,0.079-7.318,3.491
	c-0.136,1.018-0.088,2.038,0.232,3.047c0.614,1.937,1.986,2.762,4.25,2.5c2.906-0.336,3.601-0.962,3.602-3.239
	C482.349,278.749,482.349,278.21,482.348,277.671z"></path>
<path d="M545.017,275.556c0,2.697,0.02,5.394-0.02,8.09c-0.007,0.454,0.403,1.239-0.585,1.265c-0.715,0.019-1.752,0.483-2.128-0.386
	c-0.348-0.805-0.647-0.483-1.173-0.236c-5.01,2.345-9.343,0.272-9.795-4.692c-0.132-1.453-0.143-2.911,0.41-4.323
	c1.358-3.468,4.998-5.127,8.984-3.943c1.325,0.394,1.59,0.138,1.513-0.962c-0.075-1.075,0.059-2.162-0.036-3.234
	c-0.095-1.076,0.483-1.22,1.536-1.234c1.113-0.015,1.33,0.37,1.314,1.24C544.985,269.946,545.017,272.751,545.017,275.556z
	 M542.261,277.772c0-1.025,0.008-2.05-0.004-3.075c-0.005-0.424-0.011-0.801-0.539-1.102c-2.672-1.525-6.538-0.292-7.323,2.429
	c-0.427,1.479-0.395,3.012,0.004,4.496c0.538,2.001,2.005,2.794,4.418,2.518c2.503-0.286,3.443-1.193,3.445-3.323
	C542.263,279.067,542.263,278.419,542.261,277.772z"></path>
<path d="M394.126,275.583c0,2.693,0.019,5.386-0.018,8.078c-0.006,0.456,0.383,1.241-0.602,1.251
	c-0.701,0.007-1.716,0.511-2.096-0.415c-0.356-0.868-0.746-0.387-1.207-0.174c-4.803,2.217-8.709,0.569-9.666-4.116
	c-0.316-1.546-0.285-3.111,0.227-4.641c1.219-3.643,4.964-5.445,9.087-4.23c1.336,0.394,1.6,0.127,1.526-0.972
	c-0.072-1.073,0.057-2.158-0.037-3.229c-0.094-1.074,0.489-1.21,1.537-1.233c1.181-0.027,1.272,0.47,1.262,1.281
	C394.103,269.982,394.125,272.782,394.126,275.583z M391.4,277.691c0-1.021,0.003-2.041-0.001-3.061
	c-0.002-0.435-0.066-0.781-0.603-1.059c-2.806-1.455-6.474-0.266-7.261,2.475c-0.451,1.572-0.457,3.2,0.119,4.772
	c0.684,1.868,2.081,2.538,4.448,2.205c2.407-0.339,3.301-1.215,3.301-3.236C391.402,279.088,391.403,278.389,391.4,277.691z"></path>
<path d="M421.528,266.959c2.785-0.372,2.782-0.371,3.669,1.836c1.632,4.058,3.267,8.114,4.909,12.169
	c0.034,0.083,0.157,0.138,0.261,0.226c0.617-0.2,0.59-0.762,0.76-1.178c1.528-3.747,3.149-7.472,4.473-11.275
	c0.627-1.799,1.637-2.331,3.744-1.762c-1.132,2.76-2.262,5.523-3.4,8.284c-1.126,2.732-2.296,5.45-3.372,8.197
	c-0.396,1.01-0.841,1.549-2.281,1.566c-1.537,0.018-1.795-0.701-2.184-1.653c-1.987-4.86-4.031-9.702-6.03-14.559
	C421.831,268.213,421.412,267.641,421.528,266.959z"></path>
<path d="M506.222,273.86c-0.3-2.295-0.301-2.298,2.047-2.663c1.653-0.257,3.326-0.269,4.98-0.098
	c2.766,0.285,4.385,1.599,4.516,3.946c0.168,3.011,0.066,6.033,0.083,9.05c0.003,0.472-0.09,0.946-0.775,0.834
	c-0.688-0.113-1.78,0.55-1.999-0.5c-0.185-0.884-0.494-0.618-1.011-0.307c-1.3,0.783-2.708,1.236-4.326,1.19
	c-2.611-0.074-4.47-1.408-4.93-3.61c-0.441-2.118,0.707-3.9,3.094-4.772c1.737-0.635,3.605-0.66,5.431-0.898
	c0.573-0.075,1.506,0.311,1.649-0.589c0.14-0.881-0.302-1.623-1.226-1.999c-1.204-0.49-2.514-0.556-3.81-0.343
	C508.738,273.299,507.55,273.585,506.222,273.86z M514.842,279.532c-0.383-0.253,0.961-1.564-0.524-1.611
	c-1.808-0.057-3.706,0.073-5.35,0.918c-1.728,0.888-1.911,3.052-0.293,3.875c1.49,0.758,3.057,0.52,4.586-0.077
	C514.667,282.087,515.41,281.255,514.842,279.532z"></path>
<path d="M440.262,273.853c-0.652-1.85,0.168-2.564,2.134-2.693c1.789-0.117,3.578-0.281,5.342,0.006
	c2.75,0.448,4.07,1.871,4.129,4.432c0.06,2.637,0.039,5.277-0.001,7.915c-0.008,0.546,0.444,1.428-0.83,1.43
	c-0.964,0.002-2.237,0.397-2.075-1.319c-1.763,1.114-3.45,1.81-5.471,1.684c-2.323-0.145-4.099-1.416-4.579-3.373
	c-0.519-2.119,0.447-3.885,2.622-4.83c1.874-0.814,3.928-0.831,5.935-1.077c0.535-0.066,1.373,0.249,1.53-0.524
	c0.161-0.795-0.164-1.521-0.991-1.944c-1.228-0.627-2.599-0.663-3.95-0.466C442.788,273.277,441.544,273.591,440.262,273.853z
	 M448.927,279.46c-0.19-0.298,0.695-1.504-0.497-1.53c-1.986-0.043-4.096,0.017-5.81,1.143c-1.435,0.942-1.346,2.997,0.175,3.687
	c1.585,0.719,3.168,0.425,4.752-0.229C448.986,281.938,449.274,280.993,448.927,279.46z"></path>
<path d="M564.997,283.588c-1.795,1.07-3.391,1.814-5.359,1.724c-2.503-0.114-4.357-1.411-4.851-3.518
	c-0.489-2.083,0.656-3.923,3-4.823c1.787-0.687,3.721-0.689,5.603-0.947c0.565-0.078,1.515,0.326,1.611-0.609
	c0.09-0.874-0.353-1.618-1.286-1.98c-1.335-0.518-2.754-0.549-4.174-0.271c-1.079,0.211-2.152,0.445-3.228,0.669
	c-0.526-2.244-0.509-2.307,2.064-2.653c1.834-0.247,3.696-0.324,5.521,0.032c2.431,0.475,3.703,1.644,3.806,3.789
	c0.144,3.012,0.069,6.032,0.099,9.049c0.005,0.553-0.102,0.948-0.9,0.909C565.93,284.912,564.7,285.277,564.997,283.588z
	 M565.033,279.643c-0.327-0.482,0.593-1.679-0.618-1.717c-1.937-0.061-3.984,0.026-5.691,1.042
	c-1.634,0.973-1.501,3.149,0.169,3.905C561.567,284.082,565.033,282.328,565.033,279.643z"></path>
<path d="M259.408,281.645c0.233,2.613,0.239,2.634-2.282,3.213c-0.889,0.204-1.814,0.37-2.728,0.393
	c-3.038,0.077-5.877-0.468-7.536-2.943c-1.745-2.603-1.658-5.393-0.167-8.057c1.516-2.707,5.197-3.931,8.73-3.1
	c2.897,0.681,4.562,3.056,4.461,6.182c-0.028,0.869-0.367,1.1-1.303,1.088c-2.901-0.039-5.804,0.023-8.704-0.03
	c-1.213-0.022-1.466,0.348-1.238,1.343c0.529,2.306,2.585,3.631,5.589,3.492C256.052,283.141,257.685,282.539,259.408,281.645z
	 M252.842,276.577c1.046,0,2.094-0.037,3.137,0.011c0.95,0.043,1.13-0.305,1.003-1.061c-0.298-1.776-1.724-2.719-4.128-2.643
	c-2.177,0.069-4.095,1.47-4.207,2.993c-0.048,0.652,0.33,0.701,0.873,0.699C250.626,276.573,251.734,276.576,252.842,276.577z"></path>
<path d="M410.765,281.615c0.198,2.645,0.205,2.666-2.315,3.243c-0.889,0.204-1.814,0.371-2.728,0.393
	c-3.04,0.075-5.877-0.478-7.533-2.954c-1.743-2.606-1.652-5.397-0.146-8.057c1.539-2.718,5.214-3.931,8.733-3.083
	c2.923,0.705,4.535,3.038,4.418,6.191c-0.033,0.884-0.395,1.082-1.315,1.07c-2.84-0.039-5.682,0.031-8.52-0.034
	c-1.266-0.029-1.618,0.313-1.378,1.399c0.497,2.25,2.644,3.596,5.641,3.435C407.439,283.122,409.069,282.532,410.765,281.615z
	 M404.082,276.576c1.165,0,2.331-0.017,3.495,0.006c0.745,0.015,0.916-0.226,0.805-0.87c-0.269-1.574-1.302-2.57-3.035-2.78
	c-2.405-0.292-4.399,0.594-5.155,2.26c-0.454,1.001-0.275,1.519,1.132,1.4C402.236,276.515,403.162,276.578,404.082,276.576z"></path>
<path d="M365.474,283.575c-1.844,1.099-3.504,1.854-5.528,1.733c-2.388-0.142-4.246-1.468-4.705-3.472
	c-0.472-2.062,0.581-3.858,2.782-4.78c1.827-0.765,3.823-0.764,5.764-1.027c0.579-0.079,1.56,0.305,1.656-0.568
	c0.1-0.902-0.351-1.728-1.398-2.085c-1.229-0.42-2.531-0.491-3.826-0.26c-1.19,0.213-2.365,0.488-3.551,0.736
	c-0.376-2.272-0.382-2.303,2.033-2.644c1.954-0.276,3.933-0.381,5.875,0.066c2.387,0.549,3.549,1.792,3.598,3.937
	c0.063,2.746,0.051,5.495,0.008,8.241c-0.009,0.578,0.504,1.51-0.924,1.509C366.28,284.96,365.206,285.168,365.474,283.575z
	 M365.321,279.494c-0.247-0.274,0.982-1.555-0.583-1.58c-1.82-0.028-3.721,0.072-5.364,0.934c-1.701,0.893-1.842,3.089-0.225,3.899
	c1.514,0.758,3.074,0.493,4.595-0.13C365.128,282.051,365.912,281.23,365.321,279.494z"></path>
<path d="M329.915,278.193c0.043,4.628-2.87,7.266-7.786,7.102c-2.899-0.097-5.2-1.51-6.196-3.897
	c-0.802-1.925-0.838-3.914-0.237-5.879c0.971-3.181,3.854-4.805,7.869-4.516c3.487,0.251,5.932,2.453,6.343,5.739
	C329.967,277.22,329.915,277.709,329.915,278.193z M327.077,278.168c-0.001-1.026-0.036-2.049-0.508-3.011
	c-0.699-1.427-1.918-2.163-3.724-2.205c-1.854-0.043-3.295,0.549-4.008,2.062c-0.977,2.074-0.982,4.209,0.048,6.277
	c0.713,1.432,2.094,2.06,3.859,2.037c1.774-0.022,3.048-0.745,3.784-2.157C327.025,280.218,327.073,279.194,327.077,278.168z"></path>
<path d="M292.143,278.002c0.009-4.245,2.658-6.904,6.999-7.039c4.092-0.127,6.934,1.974,7.49,5.531
	c0.151,0.964,0.197,1.921,0.061,2.895c-0.546,3.914-3.258,6.019-7.664,5.907c-3.93-0.099-6.665-2.61-6.884-6.325
	C292.127,278.649,292.143,278.325,292.143,278.002z M295.025,278.164c-0.002,0.973,0.046,1.941,0.485,2.853
	c0.75,1.559,2.105,2.342,4.039,2.309c1.942-0.033,3.278-0.867,3.897-2.47c0.711-1.84,0.71-3.717-0.029-5.544
	c-0.643-1.59-1.998-2.372-3.966-2.361c-1.95,0.011-3.273,0.761-3.983,2.353C295.057,276.231,295.036,277.195,295.025,278.164z"></path>
<path d="M458.63,272.666c1.672-1.057,3.213-1.792,5.114-1.711c2.779,0.117,4.669,1.618,4.813,4.229
	c0.163,2.955,0.026,5.923,0.091,8.884c0.023,1.075-0.769,0.848-1.475,0.892c-0.849,0.052-1.395-0.056-1.376-1.006
	c0.051-2.476,0.046-4.955-0.024-7.431c-0.036-1.265,0.108-2.732-1.758-3.206c-1.957-0.497-3.623,0.198-5.135,1.235
	c-0.523,0.359-0.341,0.891-0.344,1.356c-0.015,2.585-0.047,5.171,0.013,7.755c0.022,0.943-0.226,1.34-1.419,1.326
	c-1.111-0.013-1.487-0.262-1.469-1.272c0.066-3.607,0.002-7.216,0.051-10.824c0.008-0.568-0.553-1.54,0.864-1.547
	C457.547,271.341,458.774,271.006,458.63,272.666z"></path>
<path d="M276.525,278.144c0-1.887-0.018-3.774,0.014-5.66c0.007-0.419-0.297-1.131,0.586-1.107c0.707,0.019,1.758-0.521,2.089,0.416
	c0.361,1.022,0.839,0.473,1.305,0.208c1.223-0.693,2.526-1.095,4.006-1.04c2.513,0.093,4.242,1.257,4.651,3.432
	c0.613,3.261,0.182,6.562,0.248,9.845c0.022,1.097-1.037,0.616-1.667,0.708c-0.881,0.129-1.179-0.231-1.167-1
	c0.038-2.425,0.035-4.852-0.006-7.277c-0.022-1.283,0.089-2.683-1.622-3.323c-1.43-0.535-4.239,0.176-5.32,1.218
	c-0.49,0.472-0.363,1.006-0.366,1.527c-0.016,2.587-0.058,5.176,0.017,7.762c0.029,0.998-0.464,1.112-1.42,1.127
	c-1.031,0.016-1.406-0.245-1.37-1.177C276.576,281.919,276.525,280.031,276.525,278.144z"></path>
<path d="M499.071,283.608c-1.616,0.847-2.914,1.671-4.617,1.699c-3.063,0.051-5.204-1.41-5.363-4.064
	c-0.181-3.012-0.038-6.038-0.098-9.057c-0.019-0.947,0.636-0.859,1.325-0.851c0.727,0.008,1.496-0.159,1.474,0.903
	c-0.051,2.48-0.054,4.962,0.02,7.441c0.038,1.271-0.074,2.776,1.723,3.262c1.924,0.52,3.625-0.176,5.162-1.198
	c0.547-0.364,0.385-0.876,0.388-1.339c0.016-2.481,0.007-4.961,0.008-7.442c0-0.838-0.267-1.679,1.38-1.675
	c1.526,0.003,1.491,0.658,1.482,1.6c-0.034,3.505,0.009,7.011-0.036,10.516c-0.007,0.58,0.517,1.556-0.889,1.539
	C500.077,284.93,498.726,285.4,499.071,283.608z"></path>
<path d="M237.625,276.9c0-2.104-0.109-4.214,0.038-6.311c0.099-1.41-0.482-1.765-1.977-1.649c-1.41,0.11-2.842-0.021-4.26,0.038
	c-1.054,0.044-1.194-0.406-1.203-1.179c-0.01-0.788,0.32-1.013,1.185-1.009c5.128,0.025,10.256,0.027,15.383-0.001
	c0.906-0.005,1.176,0.29,1.152,1.044c-0.022,0.682-0.123,1.155-1.089,1.135c-1.482-0.03-2.972,0.07-4.446-0.027
	c-1.412-0.093-1.908,0.258-1.878,1.578c0.099,4.315,0.006,8.632,0.059,12.948c0.013,1.031-0.14,1.531-1.558,1.533
	c-1.396,0.003-1.441-0.556-1.423-1.467C237.656,281.325,237.625,279.112,237.625,276.9z"></path>
<path d="M273.898,281.777c0.196,2.648,0.196,2.648-2.605,3.226c-3.663,0.757-7.048-0.263-8.651-2.607
	c-1.877-2.744-1.471-7.187,0.862-9.426c2.135-2.048,6.447-2.589,9.644-1.252c1.555,0.651,0.541,1.786,0.902,2.866
	c-3.008-1.388-5.93-2.829-8.576,0.046c-1.673,1.818-1.463,5.586,0.211,7.302C267.356,283.646,269.801,283.617,273.898,281.777z"></path>
<path d="M309.626,275.408c0-2.747,0.049-5.494-0.025-8.239c-0.028-1.029,0.408-1.273,1.5-1.264c1.02,0.009,1.4,0.248,1.393,1.189
	c-0.043,5.547-0.05,11.094,0.005,16.641c0.01,1.036-0.422,1.225-1.497,1.254c-1.235,0.034-1.412-0.426-1.395-1.341
	C309.66,280.901,309.626,278.154,309.626,275.408z"></path>
<path d="M524.589,273.064c1.556-0.739,2.78-1.686,4.483-1.739c1.07-0.033,1.402,0.285,1.368,1.194
	c-0.03,0.795-0.016,1.382-1.269,1.172c-0.921-0.154-1.828,0.134-2.694,0.43c-1.382,0.473-2.154,1.185-2.039,2.664
	c0.17,2.196,0.022,4.409,0.055,6.614c0.014,0.925,0.078,1.602-1.473,1.608c-1.681,0.007-1.353-0.861-1.355-1.674
	c-0.008-3.389-0.048-6.779,0.037-10.167c0.016-0.618-0.774-1.67,0.883-1.85C524.067,271.156,524.682,271.682,524.589,273.064z"></path>
<path d="M352.242,278.074c0,1.941-0.046,3.884,0.02,5.824c0.03,0.883-0.359,1.091-1.292,1.078c-0.921-0.012-1.482-0.065-1.464-1.102
	c0.064-3.828,0.066-7.658-0.001-11.486c-0.019-1.076,0.619-1.038,1.492-1.071c0.965-0.036,1.295,0.237,1.265,1.095
	C352.198,274.298,352.243,276.186,352.242,278.074z"></path>
<path d="M551.786,278.03c-0.001,1.942-0.058,3.886,0.023,5.825c0.042,1.014-0.502,1.122-1.449,1.121
	c-0.901-0.001-1.325-0.152-1.313-1.058c0.051-3.829,0.061-7.66-0.005-11.489c-0.017-1.016,0.49-1.092,1.432-1.119
	c1.092-0.031,1.363,0.331,1.332,1.219C551.742,274.361,551.787,276.196,551.786,278.03z"></path>
<path d="M355.068,264.719c-1.926,1.415-2.086,4.546-5.871,4.378c0.811-1.415,1.469-2.685,2.249-3.894
	C352.309,263.867,353.782,264.813,355.068,264.719z"></path>
<path d="M550.493,269.031c-1.253,0.219-1.716-0.121-1.716-1.239c0-1.121,0.62-1.185,1.598-1.176c0.999,0.01,1.743-0.027,1.713,1.229
	C552.061,269.014,551.543,269.262,550.493,269.031z"></path>
<path d="M244.588,140.832c-0.033,0.037-0.065,0.073-0.097,0.11c-0.04-0.083-0.09-0.165-0.112-0.251
	c-0.006-0.024,0.068-0.065,0.106-0.098C244.518,140.672,244.553,140.752,244.588,140.832z"></path>
<path d="M356.822,82.451c-0.139-0.138-0.279-0.276-0.418-0.414c0.298-0.178,0.528-0.125,0.69,0.156
	C357.004,82.278,356.913,82.364,356.822,82.451z"></path>
</svg>
