<?xml version="1.0"?>

<svg xmlns="http://www.w3.org/2000/svg" width="344" height="93.67" viewBox="0 0 344 93.67">
 
  <g class="only-light-background">
    <path d="M 308.1,48.42 315.8,40.66 297.2,22 272.3,46.84 297.2,71.67 Z" style="opacity:0.25"></path>
    <path d="m 297.2,71.67 24.8,-24.83 -6.2,-6.18 -7.7,7.76 z"></path>
  </g>

  <g style="display:none" class="only-dark-background">
    <path d="M 308.1,48.42 315.8,40.66 297.2,22 272.3,46.84 297.2,71.67 Z"></path>
    <path style="opacity:0.25" d="m 297.2,71.67 24.8,-24.83 -6.2,-6.18 -7.7,7.76 z"></path>
  </g>

  <path d="m 38.61,49.58 c -1.17,2.35 -3.64,4.11 -7.33,4.11 -5.76,0 -9.28,-3.82 -9.28,-9.2 0,-5.02 2.94,-9.3 8.89,-9.3 5.82,0 8.44,3.5 8.56,6.97 l -5.97,0 c -0.49,-1.83 -1.64,-2.2 -2.45,-2.2 -1.05,0 -2.84,0.73 -2.84,4.43 0,3.69 1.79,4.43 2.84,4.43 0.64,0 1.52,-0.27 2.13,-1.3 0.19,-0.32 0.42,-0.81 0.47,-1.22 l 5.82,0 c 0,1.12 -0.37,2.4 -0.84,3.28 m 8.64,4.11 c -4.36,0 -7.22,-2.62 -7.22,-6.91 0,-4.33 3.03,-6.8 7.22,-6.8 4.21,0 7.34,2.55 7.34,6.9 0,4.38 -3.16,6.81 -7.34,6.81 m 0.1,-9.94 c -1.52,0 -1.66,2.11 -1.66,3.21 0,1.1 0.17,3.18 1.66,3.18 1.5,0 1.67,-2.1 1.67,-3.18 0,-1.1 -0.17,-3.21 -1.67,-3.21 m 40.28,9.37 0,-6.92 c 0,-1.2 -0.39,-1.69 -1.24,-1.69 -0.86,0 -1.42,0.79 -1.42,1.79 l 0,6.83 -5.46,0 0,-6.9 c 0,-1.2 -0.39,-1.67 -1.25,-1.67 -0.88,0 -1.44,0.76 -1.44,1.76 l 0,6.81 -5.36,0 0,-6.9 c 0,-1.2 -0.4,-1.67 -1.25,-1.67 -0.88,0 -1.44,0.76 -1.44,1.76 l 0,6.81 -5.36,0 0,-6.9 c 0,-1.2 -0.39,-1.67 -1.25,-1.67 -0.88,0 -1.44,0.76 -1.44,1.76 l 0,6.81 -5.36,0 0,-12.41 4.87,0 0.12,1.1 c 0.81,-1 2.18,-1.74 3.89,-1.74 1.71,0 3.45,0.83 4.04,1.91 0.66,-1.02 2.32,-1.88 4.09,-1.88 2.03,0 3.37,1.03 4.01,1.96 0.59,-0.93 2.2,-1.96 3.91,-1.96 2.16,0 3.31,0.88 4.11,1.96 1.25,-1.67 2.89,-1.96 3.9,-1.96 3.81,0 4.72,2.47 4.72,5.23 l 0,7.79 -5.39,0 m 13.27,0.56 c -4.32,0 -7.18,-2.62 -7.18,-6.91 0,-4.33 3.04,-6.8 7.18,-6.8 4.3,0 7.4,2.55 7.4,6.9 0,4.38 -3.2,6.81 -7.4,6.81 m 0.1,-9.94 c -1.47,0 -1.62,2.11 -1.62,3.21 0,1.1 0.17,3.18 1.62,3.18 1.5,0 1.7,-2.1 1.7,-3.18 0,-1.1 -0.2,-3.21 -1.7,-3.21 m 16.2,9.37 0,-6.87 c 0,-1.2 -0.5,-1.67 -1.3,-1.67 -0.9,0 -1.5,0.76 -1.5,1.76 l 0,6.78 -5.3,0 0,-12.38 4.9,0 0.1,1.25 c 1,-1.25 2.4,-1.89 3.9,-1.89 1.8,0 4.7,1.03 4.7,4.21 l 0,8.81 -5.4,0 m 23.4,-0 -5.6,0 c 0,0 -0.7,-2.18 -1,-3.55 -0.5,-1.66 -0.6,-2.38 -0.6,-2.38 0,0 0,0.71 -0.4,2.38 -0.3,1.27 -1.1,3.57 -1.1,3.57 l -5.6,0 -3.7,-12.38 5.8,0 c 0,0 0.6,2.13 0.9,3.32 0.3,1.38 0.4,2.18 0.4,2.18 0,0 0.1,-0.78 0.5,-2.18 0.3,-1.26 0.9,-3.32 0.9,-3.32 l 4.9,0 c 0,0 0.7,2.06 0.9,3.32 0.5,1.48 0.5,2.18 0.5,2.18 0,0 0.1,-0.68 0.5,-2.18 0.2,-1.17 0.9,-3.32 0.9,-3.32 l 5.5,0 -3.7,12.38 m 8.6,-5.36 c 0.1,1.25 0.6,2.33 2.1,2.33 0.6,0 1.5,-0.34 1.7,-1.1 l 5.2,0 c -0.1,0.54 -0.4,1.17 -0.7,1.59 -1.3,2.05 -4,3.08 -6.5,3.08 -4.5,0 -7.3,-2.71 -7.4,-6.6 -0.1,-3.46 1.9,-7.08 7,-7.08 4.8,0 7.7,2.92 7.7,7.78 l -9.1,0 z m 2,-4.62 c -1.1,0 -1.8,0.83 -1.9,1.88 l 3.7,0 c -0.1,-1 -0.8,-1.88 -1.8,-1.88 M 168,53.1 167.8,52 c -0.9,0.93 -2.8,1.66 -4.2,1.66 -0.9,0 -2.9,-0.17 -4,-1.61 -0.9,-1.18 -1,-3.09 -0.2,-4.31 1,-1.64 3.4,-2.25 5.7,-2.54 0.9,-0.1 2.1,-0.37 2.1,-1.13 0,-0.59 -0.3,-1.1 -1.1,-1.1 -0.8,0 -1.5,0.66 -1.5,1.49 l -5.1,0 0.1,-0.15 c 0.5,-2.95 2.6,-4.45 6.3,-4.45 6.2,0 6.9,2.15 7,5.87 l 0,3.48 c 0,2.37 0.2,2.91 0.4,3.89 l -5.3,0 z m -0.7,-5.48 c 0,0 -0.7,0.22 -1.4,0.42 -0.4,0.12 -1.5,0.31 -1.5,1.14 0,0.42 0.4,0.94 1.1,0.91 1.4,-0.1 1.8,-0.85 1.8,-2.08 l 0,-0.39 m 7,-11.99 5.4,0 0,17.47 -5.4,0 z m 12.2,17.89 c -3.6,0 -4.5,-1.72 -4.5,-5.02 l 0,-4.36 -1.6,0 0,-3.42 1.6,0 0,-5.09 5.4,0 0,5.09 2.1,0 0,3.42 -2.1,0 0,3.38 c 0,1.2 0.3,1.96 1.5,1.96 0.2,0 0.5,0 0.7,-0.1 0.1,0 0.1,0 0.1,0 l 0,3.5 c -1,0.46 -2.1,0.66 -3.2,0.66 m 17.8,-0.44 -5.3,0 0,-6.85 c 0,-1.2 -0.6,-1.69 -1.4,-1.69 -0.9,0 -1.5,0.78 -1.5,1.79 l 0,6.75 -5.5,0 0,-17.47 5.1,0 0,6.34 c 0.9,-1.01 2.4,-1.89 3.9,-1.89 1.8,0 4.7,1.03 4.7,4.21 l 0,8.81 m 3.2,-17.46 -0.2,0 0,17.5 6.9,0 c 3.8,0 6,-1.87 6,-4.99 0,-2.76 -2,-4 -3.3,-4.29 1.5,-0.46 2.5,-1.86 2.5,-3.71 0,-2.82 -2,-4.51 -5.3,-4.51 l -6.6,0 z m 6.6,1.39 c 1.4,0 3.8,0.41 3.8,3.16 0,2.03 -1.3,3.14 -3.7,3.14 l -5.3,0 0,-6.3 5.2,0 z m 0.1,7.71 c 1.7,0 4.5,0.44 4.5,3.38 0,3.16 -2.8,3.63 -4.5,3.63 l -5.3,0 0,-7.01 5.3,0 m 18,7.09 -0.2,0 -0.6,0 c -0.3,0 -0.7,-0.11 -0.7,-1.14 l 0,-6.8 c 0,-2.38 -1.5,-3.63 -4.3,-3.63 -2.9,0 -4.5,1.39 -4.8,3.91 l 0,0.15 1.5,0 0,-0.12 c 0,-0.61 0.2,-1.14 0.5,-1.55 0.6,-0.72 1.5,-1.1 2.7,-1.1 2.8,0 3,1.76 3,2.3 l 0,0.36 c 0,0.79 -0.5,1 -1.3,1.09 -1.7,0.25 -4,0.64 -5.3,1.42 -0.2,0.14 -0.9,0.56 -1.2,1.21 -0.6,0.95 -0.6,2.43 -0.1,3.52 0.5,1.25 1.9,1.94 3.7,1.94 1.9,0 3.4,-0.83 4.2,-2.33 l 0,0.19 c 0.1,1.26 0.7,1.87 1.9,1.87 l 1,-0.17 0,-0.11 0,-1.07 z m -2.9,-5.36 0,1.82 c 0,1 -0.8,3.85 -4.1,3.85 -1.6,0 -2.7,-0.98 -2.7,-2.37 0,-1.86 1.4,-2.24 2.9,-2.64 1.1,-0.31 2.8,-0.56 3.9,-0.66 m 9.1,-6.15 c -1.7,0 -3.2,0.92 -3.9,2.3 l 0,-1.96 -1.4,0 0,12.48 1.4,0 0,-6.97 c 0,-2.73 1.6,-4.56 3.9,-4.56 2,0 3,1.21 3,3.69 l 0,7.84 1.4,0 0,-7.84 c 0,-1.23 0,-4.98 -4.4,-4.98 m 10.8,5.03 c 0.2,-0.16 4.9,-4.69 4.9,-4.69 l -1.9,0 c 0,0 -5.9,5.57 -6.3,5.99 l 0,-11.01 -1.4,0 0,17.5 1.4,0 0,-4.71 c 0.1,-0.1 2,-1.84 2.2,-2.02 0.2,0.25 4.6,6.73 4.6,6.73 l 1.8,0 c 0,0 -5.2,-7.61 -5.3,-7.79"></path>  
</svg>
