<?xml version="1.0"?>

<!-- Generator: Adobe Illustrator 19.1.0, SVG Export Plug-In . SVG Version: 6.00 Build 0)  -->
<svg version="1.1" id="Layer_1" xmlns="http://www.w3.org/2000/svg" xmlns:xlink="http://www.w3.org/1999/xlink" x="0px" y="0px" width="600px" height="200px" viewBox="0 0 600 200" enable-background="new 0 0 600 200" xml:space="preserve">
<path d="M97.111,134.116h-8.948h-5.48h-5.777h-6.827h-7h-6.214h-6.108c-1.851,0-3.612-0.376-5.21-1.053
	c-1.596-0.675-3.028-1.649-4.224-2.855c-1.197-1.2-2.162-2.629-2.819-4.21c-0.654-1.581-1.009-3.315-0.989-5.131
	c0,0,0.032-2.376,0.097-5.885c0.029-1.75,0.073-3.774,0.12-5.91c0.053-2.13,0.111-4.374,0.176-6.572
	c0.064-2.197,0.129-4.348,0.196-6.328c0.062-1.98,0.132-3.788,0.185-5.307c0.117-3.04,0.199-5.002,0.199-5.002l0.37-8.061
	l0.129-2.517L30.5,75.766l-0.786,9.859l-0.575,8.649c0,0-0.12,2.089-0.284,5.304c-0.085,1.608-0.173,3.521-0.264,5.598
	c-0.088,2.077-0.179,4.33-0.258,6.619c-0.079,2.288-0.147,4.613-0.197,6.808c-0.056,2.194-0.103,4.266-0.129,6.049
	c-0.053,3.573-0.076,5.976-0.076,5.976c-0.009,3.629,1.431,6.929,3.782,9.332c2.35,2.406,5.621,3.911,9.259,3.943
	c0,0,2.429,0.012,6.09,0.018c1.828,0.003,3.966,0.003,6.255,0c2.282,0,4.717-0.012,7.141-0.029c2.423-0.017,4.817-0.041,7.047-0.065
	c2.23-0.023,4.283-0.053,6.026-0.079c3.479-0.05,5.756-0.091,5.756-0.091l9.529-0.211c0,0,2.769-0.079,5.515-0.158
	c2.74-0.079,5.469-0.159,5.469-0.159l0.123-9.013H97.111L97.111,134.116z"></path>
<path d="M122.775,107.634c-0.285-2.579-0.569-5.158-0.569-5.158l-1.162-7.886c0,0-0.299-1.734-0.772-4.26
	c-0.472-2.532-1.129-5.826-1.828-8.979c-0.698-3.16-1.426-6.182-1.977-8.391c-0.551-2.206-0.933-3.629-0.933-3.629
	c-0.575-2.062-1.948-4.128-3.732-5.8c-1.778-1.666-3.984-2.963-6.196-3.523c0,0-1.526-0.355-3.873-0.875
	c-2.338-0.519-5.539-1.182-8.854-1.798c-3.318-0.619-6.736-1.179-9.356-1.57c-2.614-0.384-4.392-0.628-4.392-0.628l-7.991-0.852
	c0,0-2.564-0.179-5.14-0.349c-2.57-0.173-5.146-0.337-5.146-0.337l0.346,5.229l2.837,0.138l8.458,0.622c0,0,1.895,0.188,4.682,0.51
	c1.394,0.164,3.007,0.358,4.715,0.59c1.704,0.229,3.506,0.481,5.283,0.754c3.544,0.549,6.977,1.153,9.488,1.628
	c2.517,0.472,4.148,0.807,4.148,0.807c2.382,0.528,4.723,1.854,6.589,3.603c1.866,1.748,3.28,3.94,3.82,6.161
	c0,0,0.352,1.535,0.874,3.908c0.516,2.376,1.185,5.627,1.819,9.032c0.64,3.397,1.226,6.941,1.643,9.664
	c0.411,2.725,0.669,4.583,0.669,4.583l0.956,8.432l0.258,2.869l5.891,0.68C123.333,112.809,123.057,110.221,122.775,107.634
	 M112.407,115.489l-0.751-8.891c0,0-0.217-1.969-0.569-4.858c-0.176-1.449-0.393-3.113-0.64-4.867
	c-0.243-1.757-0.51-3.603-0.798-5.41c-0.569-3.626-1.185-7.095-1.66-9.624c-0.475-2.523-0.804-4.16-0.804-4.16
	c-0.51-2.368-1.948-4.674-3.89-6.495c-1.942-1.819-4.401-3.169-6.935-3.655c0,0-1.734-0.308-4.401-0.739
	c-1.332-0.214-2.904-0.455-4.618-0.704c-1.707-0.246-3.556-0.502-5.433-0.736c-1.878-0.238-3.782-0.455-5.583-0.643
	c-1.804-0.188-3.503-0.352-4.97-0.475c-2.94-0.255-4.923-0.396-4.923-0.396l-8.822-0.399c0,0-2.787-0.026-5.571-0.044
	c-2.784-0.012-5.566-0.012-5.566-0.012l-0.196,8.482l-0.15,7.537c0,0-0.032,1.848-0.082,4.717c-0.02,1.439-0.047,3.149-0.076,5.021
	c-0.029,1.875-0.059,3.917-0.088,6.011c-0.029,2.089-0.053,4.233-0.082,6.278c-0.02,2.045-0.041,3.99-0.059,5.686
	c-0.035,3.385-0.053,5.7-0.053,5.7c-0.029,3.56,1.444,6.817,3.855,9.199c1.203,1.191,2.64,2.159,4.236,2.834
	c1.596,0.669,3.35,1.047,5.193,1.053c0,0,2.417,0.015,6.002,0.044c1.79,0.018,3.861,0.041,6.05,0.065
	c2.192,0.023,4.495,0.053,6.762,0.094c2.268,0.035,4.492,0.073,6.539,0.108c2.048,0.038,3.926,0.073,5.504,0.108
	c3.151,0.071,5.19,0.117,5.19,0.117l8.405,0.223l9.523,0.299c0,0-0.117-2.878-0.255-5.744
	C112.56,118.347,112.407,115.489,112.407,115.489 M100.836,112.416c-1.118,1.285-2.752,2.019-4.653,1.895
	c0,0-1.314-0.079-3.327-0.19c-2.007-0.111-4.729-0.261-7.516-0.396c-2.787-0.141-5.645-0.264-7.81-0.355
	c-2.165-0.088-3.626-0.144-3.626-0.144l-6.619-0.191l-8.467-0.152l-0.117-8.153l-0.117-6.258c0,0-0.029-1.358-0.073-3.362
	c-0.044-2.001-0.109-4.638-0.173-7.199c-0.129-5.118-0.27-9.935-0.27-9.935c-0.053-1.71,0.745-3.207,2.071-4.251
	c1.326-1.039,3.18-1.634,5.246-1.537c0,0,1.35,0.088,3.356,0.24c2.004,0.153,4.665,0.364,7.294,0.61
	c2.629,0.241,5.21,0.51,7.138,0.722c1.927,0.211,3.195,0.358,3.195,0.358l5.337,0.751l6.378,1.039l1.059,5.949l0.81,5.036
	c0,0,0.683,4.858,1.297,9.948c0.305,2.547,0.593,5.143,0.798,7.109c0.208,1.966,0.34,3.295,0.34,3.295
	C102.55,109.306,101.951,111.131,100.836,112.416"></path>
<path d="M171.182,81.181l-1.42,8.703c-1.209-1.047-2.52-1.842-3.943-2.382c-1.42-0.534-2.899-0.804-4.436-0.804
	c-2.611,0-4.77,0.91-6.46,2.734c-1.696,1.822-2.541,4.151-2.541,6.977c0,2.558,0.71,4.532,2.13,5.932
	c1.426,1.399,3.433,2.101,6.032,2.101c1.115,0,2.271-0.135,3.456-0.408c1.185-0.273,2.432-0.683,3.732-1.226l-1.308,8.159
	c-1.077,0.346-2.265,0.604-3.565,0.786c-1.3,0.182-2.705,0.273-4.21,0.273c-4.495,0-8.094-1.394-10.802-4.181
	c-2.705-2.781-4.057-6.484-4.057-11.09c0-2.224,0.349-4.348,1.047-6.363c0.692-2.021,1.713-3.852,3.063-5.504
	c1.584-1.926,3.553-3.396,5.915-4.417c2.365-1.021,5.008-1.526,7.933-1.526c1.669,0,3.28,0.182,4.847,0.557
	C168.161,79.876,169.692,80.436,171.182,81.181"></path>
<path d="M170.384,101.385c0-3.691,1.209-6.718,3.62-9.089c2.411-2.368,5.498-3.556,9.259-3.556c3.474,0,6.255,0.986,8.332,2.954
	c2.083,1.966,3.127,4.597,3.127,7.877c0,3.649-1.221,6.654-3.661,9.004c-2.441,2.356-5.586,3.532-9.435,3.532
	c-3.403,0-6.126-0.977-8.173-2.925C171.408,107.229,170.384,104.63,170.384,101.385 M183.114,94.989
	c-1.493,0-2.758,0.628-3.799,1.884c-1.045,1.255-1.567,2.79-1.567,4.6c0,1.335,0.381,2.394,1.144,3.186
	c0.76,0.786,1.772,1.182,3.04,1.182c1.59,0,2.904-0.607,3.925-1.819c1.027-1.212,1.54-2.767,1.54-4.662
	c0-1.349-0.384-2.417-1.147-3.198C185.476,95.383,184.434,94.989,183.114,94.989"></path>
<path d="M195.28,111.225l3.45-21.751h6.736l-0.475,3.62c1.051-1.478,2.156-2.567,3.321-3.262c1.162-0.701,2.441-1.045,3.832-1.045
	c1.614,0,2.928,0.329,3.955,0.992c1.027,0.66,1.884,1.737,2.57,3.227c1.109-1.478,2.23-2.552,3.374-3.218
	c1.138-0.666,2.391-1.001,3.755-1.001c2.2,0,3.873,0.607,5.029,1.819c1.156,1.215,1.734,2.981,1.734,5.31
	c0,0.601-0.026,1.229-0.085,1.883c-0.059,0.654-0.153,1.326-0.282,2.013l-1.807,11.412h-7.17l1.807-11.518
	c0.029-0.173,0.047-0.355,0.065-0.54c0.018-0.188,0.018-0.461,0.018-0.821c0-1.103-0.235-1.93-0.71-2.485
	c-0.475-0.554-1.173-0.83-2.109-0.83c-1.247,0-2.215,0.466-2.896,1.402c-0.681,0.933-1.185,2.496-1.52,4.694l-1.508,10.098h-7.188
	l1.807-11.518c0.012-0.059,0.026-0.141,0.041-0.261c0.1-0.689,0.152-1.17,0.152-1.444c0-0.959-0.24-1.699-0.722-2.203
	c-0.481-0.51-1.17-0.768-2.077-0.768c-1.238,0-2.183,0.446-2.846,1.335c-0.66,0.895-1.162,2.479-1.505,4.762l-1.593,10.098H195.28z"></path>
<path d="M231.765,120.832l4.976-31.358h7.238l-0.478,3.019c1.08-1.238,2.259-2.162,3.538-2.781c1.273-0.619,2.64-0.924,4.09-0.924
	c2.511,0,4.565,0.933,6.158,2.811c1.593,1.872,2.391,4.301,2.391,7.288c0,3.761-1.08,6.886-3.245,9.37
	c-2.159,2.482-4.867,3.726-8.127,3.726c-1.467,0-2.787-0.317-3.972-0.939c-1.185-0.625-2.3-1.59-3.35-2.896
	c0,0.689-0.017,1.323-0.053,1.904c-0.035,0.584-0.088,1.091-0.161,1.52l-1.423,9.261L231.765,120.832L231.765,120.832z
	 M251.791,99.853c0-1.39-0.423-2.508-1.279-3.356c-0.857-0.848-1.972-1.273-3.35-1.273c-1.531,0-2.808,0.593-3.82,1.766
	c-1.012,1.179-1.52,2.658-1.52,4.436c0,1.349,0.422,2.441,1.27,3.265s1.954,1.235,3.318,1.235c1.566,0,2.852-0.569,3.867-1.71
	C251.286,103.075,251.791,101.623,251.791,99.853"></path>
<path d="M264.5,89.474h7.625l-1.423,9.001c-0.17,1.197-0.305,2.189-0.405,2.986c-0.103,0.798-0.153,1.314-0.153,1.561
	c0,1.03,0.247,1.825,0.739,2.371c0.499,0.546,1.221,0.816,2.165,0.816c2.212,0,3.708-2.505,4.483-7.516
	c0.041-0.27,0.076-0.481,0.106-0.622l1.355-8.596h7.645l-1.549,9.843l-0.065,0.455c-0.763,4.665-1.942,7.78-3.553,9.347
	c-1.018,0.974-2.268,1.708-3.741,2.203c-1.467,0.496-3.13,0.742-4.982,0.742c-3.204,0-5.727-0.722-7.569-2.171
	c-1.845-1.449-2.77-3.421-2.77-5.903c0-0.572,0.053-1.294,0.153-2.162c0.1-0.872,0.299-2.209,0.604-4.019L264.5,89.474z"></path>
<path d="M293.726,111.225h-4.935l4.136-31.528h6.525c2.511,0,4.318,0.141,5.427,0.431c1.103,0.287,2.089,0.774,2.952,1.464
	c0.948,0.745,1.669,1.672,2.171,2.79c0.505,1.113,0.757,2.36,0.757,3.736c0,1.622-0.29,3.074-0.874,4.365
	c-0.581,1.282-1.42,2.353-2.529,3.213c-0.948,0.748-2.06,1.282-3.339,1.596c-1.276,0.314-3.257,0.475-5.92,0.475h-1.42h-1.185
	L293.726,111.225z M296.073,93.264h1.658c3.101,0,5.213-0.37,6.34-1.109c1.127-0.736,1.693-2.012,1.693-3.82
	c0-1.523-0.472-2.594-1.423-3.21c-0.945-0.616-2.776-0.929-5.492-0.929h-1.59L296.073,93.264z"></path>
<path d="M328.383,111.225h-4.627l0.34-2.238c-0.798,1.018-1.731,1.781-2.775,2.28c-1.05,0.504-2.253,0.757-3.614,0.757
	c-2.676,0-4.738-0.845-6.196-2.529c-1.458-1.687-2.183-4.081-2.183-7.182c0-3.661,0.889-6.616,2.67-8.854
	c1.778-2.235,4.113-3.359,7-3.359c1.361,0,2.629,0.284,3.796,0.854c1.174,0.566,2.253,1.431,3.245,2.593l0.405-2.734h4.635
	L328.383,111.225z M314.128,101.667c0,1.948,0.452,3.473,1.361,4.562c0.904,1.094,2.159,1.64,3.764,1.64
	c1.851,0,3.318-0.742,4.392-2.221c1.08-1.479,1.62-3.518,1.62-6.114c0-1.766-0.481-3.169-1.444-4.21
	c-0.962-1.041-2.265-1.561-3.899-1.561c-1.766,0-3.172,0.707-4.222,2.13C314.653,97.313,314.128,99.24,314.128,101.667"></path>
<path d="M346.775,94.901c-0.311-0.229-0.654-0.405-1.021-0.528c-0.37-0.12-0.757-0.182-1.173-0.182c-1.649,0-2.951,0.61-3.899,1.833
	c-0.948,1.218-1.587,3.101-1.916,5.642l-1.291,9.558h-4.63l2.693-20.413h4.453l-0.343,2.646c0.807-1.132,1.687-1.977,2.637-2.529
	c0.957-0.552,1.989-0.83,3.092-0.83c0.499,0,0.997,0.062,1.485,0.196c0.49,0.129,0.962,0.329,1.426,0.601L346.775,94.901z"></path>
<path d="M351.856,111.225l2.153-16.453h-3.532l0.54-3.957h3.491l1.009-7.735h4.63l-0.968,7.735h3.702l-0.534,3.957h-3.702
	l-2.157,16.453H351.856z"></path>
<path d="M377.702,104.958l3.339,2.608c-1.194,1.564-2.488,2.708-3.878,3.424c-1.391,0.719-2.995,1.074-4.8,1.074
	c-3.033,0-5.48-0.912-7.346-2.746c-1.866-1.825-2.799-4.236-2.799-7.223c0-3.503,1.071-6.378,3.215-8.622
	c2.147-2.25,4.882-3.374,8.197-3.374c2.775,0,4.979,0.859,6.622,2.573c1.643,1.719,2.467,4.019,2.467,6.9
	c0,0.246-0.012,0.56-0.035,0.939c-0.018,0.381-0.053,0.839-0.094,1.367h-15.57c0,1.854,0.467,3.33,1.399,4.43
	c0.933,1.097,2.174,1.643,3.726,1.643c1.077,0,2.098-0.261,3.069-0.783C376.183,106.642,377.016,105.909,377.702,104.958
	 M367.428,98.566h10.532c-0.041-1.379-0.475-2.467-1.282-3.265c-0.81-0.798-1.898-1.197-3.266-1.197
	c-1.549,0-2.863,0.405-3.94,1.209S367.716,97.201,367.428,98.566"></path>
<path d="M386.207,105.216c0.76,1.065,1.605,1.878,2.52,2.435c0.921,0.561,1.878,0.839,2.863,0.839c0.977,0,1.76-0.217,2.347-0.654
	c0.592-0.44,0.886-1.015,0.886-1.734c0-1.021-1.091-2.136-3.274-3.339l-0.176-0.088c-2.08-1.179-3.447-2.195-4.102-3.045
	c-0.651-0.856-0.977-1.886-0.977-3.092c0-1.924,0.71-3.485,2.13-4.682c1.423-1.203,3.271-1.801,5.554-1.801
	c1.397,0,2.682,0.261,3.858,0.777c1.176,0.519,2.28,1.303,3.318,2.347l-2.863,2.972c-0.663-0.816-1.402-1.443-2.218-1.872
	c-0.821-0.431-1.678-0.646-2.587-0.646c-0.728,0-1.355,0.217-1.872,0.666c-0.516,0.443-0.774,0.968-0.774,1.572
	c0,0.989,0.915,1.937,2.752,2.843c0.678,0.346,1.2,0.616,1.573,0.819c1.596,0.877,2.693,1.746,3.297,2.614
	c0.604,0.869,0.904,1.942,0.904,3.221c0,2.036-0.71,3.661-2.13,4.876s-3.333,1.822-5.733,1.822c-1.572,0-3.045-0.32-4.401-0.96
	c-1.355-0.64-2.552-1.566-3.588-2.787L386.207,105.216z"></path>
<path d="M216.037,143.395l-1.851-2.47c-1.083,1.053-2.153,1.822-3.21,2.303c-1.056,0.484-2.194,0.728-3.409,0.728
	c-1.79,0-3.221-0.516-4.295-1.549c-1.071-1.033-1.605-2.411-1.605-4.122c0-1.458,0.443-2.737,1.335-3.84
	c0.892-1.106,2.441-2.271,4.65-3.485c-0.601-0.991-1.036-1.845-1.297-2.558c-0.267-0.716-0.396-1.391-0.396-2.036
	c0-1.396,0.44-2.496,1.32-3.309c0.88-0.804,2.086-1.212,3.617-1.212c1.476,0,2.643,0.367,3.5,1.1
	c0.866,0.733,1.297,1.725,1.297,2.978c0,1.088-0.346,2.074-1.033,2.948c-0.692,0.874-1.86,1.799-3.503,2.767
	c0.516,0.836,1.071,1.678,1.663,2.544c0.593,0.857,1.235,1.754,1.921,2.682l2.699-2.972l1.713,2.01l-2.975,3.116l3.303,4.38h-3.444
	V143.395z M212.748,138.745c-0.604-0.833-1.203-1.713-1.807-2.634c-0.604-0.927-1.238-1.948-1.895-3.066
	c-1.655,0.959-2.822,1.819-3.497,2.591c-0.675,0.768-1.009,1.602-1.009,2.488c0,0.933,0.311,1.696,0.945,2.294
	s1.438,0.898,2.411,0.898c0.737,0,1.49-0.205,2.265-0.61C210.929,140.294,211.792,139.643,212.748,138.745 M209.92,129.668
	c1.273-0.889,2.112-1.573,2.514-2.048c0.402-0.469,0.601-0.945,0.601-1.426c0-0.604-0.194-1.071-0.581-1.408
	c-0.387-0.335-0.927-0.502-1.614-0.502c-0.651,0-1.168,0.185-1.555,0.554c-0.381,0.367-0.569,0.857-0.569,1.473
	c0,0.437,0.1,0.933,0.293,1.476C209.204,128.336,209.509,128.961,209.92,129.668"></path>
<path d="M257.843,143.395l12.178-21.851l7.675,21.851h-3.415l-1.708-4.97h-8.367l-2.775,4.97H257.843z M265.524,135.627h6.146
	l-1.623-5.196c-0.079-0.252-0.155-0.581-0.243-0.992c-0.088-0.411-0.194-0.954-0.317-1.623c-0.211,0.496-0.417,0.971-0.628,1.417
	c-0.199,0.443-0.405,0.863-0.607,1.256L265.524,135.627z"></path>
<path d="M311.681,123.753l-0.528,3.588c-0.816-0.848-1.696-1.487-2.649-1.898c-0.954-0.419-1.986-0.628-3.11-0.628
	c-1.147,0-2.215,0.199-3.195,0.598c-0.98,0.393-1.813,0.968-2.505,1.714c-0.81,0.871-1.438,1.875-1.872,3.007
	c-0.434,1.136-0.651,2.309-0.651,3.524c0,2.165,0.66,3.925,1.983,5.286c1.326,1.355,3.045,2.036,5.152,2.036
	c1.053,0,2.063-0.179,3.034-0.546c0.974-0.361,1.916-0.901,2.822-1.619l-0.734,4.019c-0.956,0.37-1.878,0.651-2.758,0.839
	c-0.877,0.188-1.725,0.278-2.538,0.278c-3.066,0-5.536-0.936-7.416-2.805c-1.884-1.872-2.819-4.327-2.819-7.373
	c0-1.684,0.296-3.286,0.895-4.802c0.599-1.517,1.45-2.825,2.55-3.928c1.021-1.021,2.194-1.804,3.518-2.338
	c1.32-0.537,2.734-0.804,4.245-0.804c1.361,0,2.587,0.153,3.67,0.455C309.862,122.668,310.827,123.132,311.681,123.753"></path>
<path d="M346.109,123.753l-0.531,3.588c-0.813-0.848-1.696-1.487-2.646-1.898c-0.957-0.419-1.989-0.628-3.11-0.628
	c-1.147,0-2.215,0.199-3.198,0.598c-0.977,0.393-1.813,0.968-2.505,1.714c-0.816,0.871-1.438,1.875-1.872,3.007
	c-0.437,1.136-0.651,2.309-0.651,3.524c0,2.165,0.663,3.925,1.983,5.286c1.332,1.355,3.045,2.036,5.152,2.036
	c1.053,0,2.065-0.179,3.037-0.546c0.971-0.361,1.913-0.901,2.819-1.619l-0.73,4.019c-0.96,0.37-1.875,0.651-2.758,0.839
	c-0.877,0.188-1.725,0.278-2.538,0.278c-3.066,0-5.536-0.936-7.417-2.805c-1.878-1.872-2.822-4.327-2.822-7.373
	c0-1.684,0.299-3.286,0.898-4.802c0.598-1.517,1.446-2.825,2.547-3.928c1.027-1.021,2.2-1.804,3.52-2.338
	c1.32-0.537,2.734-0.804,4.245-0.804c1.364,0,2.585,0.153,3.67,0.455C344.287,122.668,345.255,123.132,346.109,123.753"></path>
<path d="M362.347,143.395l2.758-21.02h11.8l-0.376,2.975h-8.535l-0.677,5.28h8.508l-0.385,2.946h-8.537l-0.877,6.789h8.534
	l-0.413,3.03H362.347z"></path>
<path d="M391.779,139.778l2.312-1.913c0.575,1.15,1.191,1.98,1.854,2.491c0.657,0.513,1.432,0.771,2.324,0.771
	c1.109,0,2.013-0.326,2.699-0.977c0.692-0.648,1.033-1.499,1.033-2.544c0-0.733-0.182-1.361-0.546-1.872
	c-0.361-0.51-1.003-1.039-1.918-1.572c-0.2-0.117-0.478-0.276-0.851-0.49c-1.57-0.869-2.629-1.605-3.175-2.206
	c-0.393-0.434-0.686-0.93-0.88-1.493c-0.199-0.563-0.293-1.179-0.293-1.842c0-1.848,0.593-3.35,1.778-4.512
	c1.185-1.162,2.734-1.746,4.653-1.746c1.291,0,2.423,0.264,3.397,0.792c0.968,0.525,1.772,1.309,2.4,2.353l-2.007,1.851
	c-0.469-0.766-0.991-1.338-1.567-1.71c-0.575-0.373-1.217-0.558-1.924-0.558c-1.033,0-1.872,0.302-2.511,0.907
	c-0.64,0.601-0.962,1.385-0.962,2.338c0,1.147,0.921,2.221,2.769,3.215c0.461,0.241,0.81,0.431,1.051,0.575
	c1.414,0.824,2.417,1.675,3.004,2.561c0.592,0.886,0.886,1.971,0.886,3.254c0,1.989-0.64,3.57-1.924,4.747
	c-1.279,1.167-3.025,1.757-5.228,1.757c-1.49,0-2.764-0.346-3.82-1.033C393.269,142.233,392.418,141.18,391.779,139.778"></path>
<path d="M435.157,121.873c3.198,0,5.738,0.93,7.634,2.793c1.895,1.863,2.84,4.351,2.84,7.472c0,1.672-0.308,3.254-0.927,4.735
	c-0.61,1.473-1.49,2.758-2.629,3.852c-1.1,1.033-2.376,1.825-3.82,2.374c-1.44,0.552-2.981,0.824-4.618,0.824
	c-3.051,0-5.515-0.936-7.387-2.813c-1.878-1.878-2.816-4.339-2.816-7.393c0-1.702,0.305-3.297,0.904-4.788
	c0.604-1.488,1.47-2.776,2.599-3.855c1.074-1.024,2.321-1.813,3.743-2.368C432.106,122.152,433.596,121.873,435.157,121.873
	 M442.328,132.194c0-2.209-0.669-3.993-2.012-5.345c-1.344-1.355-3.119-2.033-5.331-2.033c-1.088,0-2.13,0.208-3.119,0.616
	c-0.992,0.414-1.848,1.003-2.576,1.766c-0.839,0.862-1.479,1.845-1.922,2.946c-0.44,1.1-0.66,2.253-0.66,3.456
	c0,2.194,0.663,3.972,1.989,5.333c1.326,1.367,3.045,2.048,5.169,2.048c2.4,0,4.412-0.836,6.032-2.517
	C441.521,136.782,442.328,134.697,442.328,132.194"></path>
<path d="M466.021,143.395h-3.262l2.758-21.021h3.791c1.672,0,2.881,0.097,3.614,0.291c0.739,0.191,1.396,0.513,1.971,0.971
	c0.64,0.499,1.13,1.121,1.467,1.872c0.34,0.745,0.516,1.572,0.516,2.482c0,1.731-0.478,3.145-1.426,4.233
	c-0.945,1.091-2.288,1.781-4.019,2.054l5.815,9.118h-3.702l-5.557-9.004h-0.763L466.021,143.395z M467.54,131.722h0.663
	c2.065,0,3.47-0.258,4.219-0.775c0.745-0.516,1.121-1.408,1.121-2.673c0-1.071-0.317-1.822-0.939-2.256
	c-0.634-0.428-1.854-0.643-3.673-0.643h-0.528L467.54,131.722z"></path>
<path d="M493.897,143.395l2.758-21.02h3.356l-2.799,21.02H493.897z"></path>
<path d="M528.865,121.873c3.195,0,5.738,0.93,7.631,2.793c1.895,1.863,2.846,4.351,2.846,7.472c0,1.672-0.311,3.254-0.927,4.735
	c-0.616,1.473-1.496,2.758-2.635,3.852c-1.097,1.033-2.37,1.825-3.814,2.374c-1.449,0.552-2.987,0.824-4.621,0.824
	c-3.054,0-5.518-0.936-7.39-2.813c-1.875-1.878-2.81-4.339-2.81-7.393c0-1.702,0.299-3.297,0.904-4.788
	c0.601-1.488,1.467-2.776,2.596-3.855c1.071-1.024,2.321-1.813,3.744-2.368C525.811,122.152,527.307,121.873,528.865,121.873
	 M536.038,132.194c0-2.209-0.675-3.993-2.016-5.345c-1.347-1.355-3.119-2.033-5.328-2.033c-1.088,0-2.13,0.208-3.119,0.616
	c-0.991,0.414-1.848,1.003-2.576,1.766c-0.845,0.862-1.484,1.845-1.924,2.946c-0.44,1.1-0.657,2.253-0.657,3.456
	c0,2.194,0.663,3.972,1.989,5.333c1.32,1.367,3.045,2.048,5.167,2.048c2.403,0,4.409-0.836,6.032-2.517
	C535.228,136.782,536.038,134.697,536.038,132.194"></path>
<path d="M555.202,139.778l2.312-1.913c0.575,1.15,1.191,1.98,1.854,2.491c0.657,0.513,1.438,0.771,2.323,0.771
	c1.112,0,2.012-0.326,2.702-0.977c0.689-0.648,1.03-1.499,1.03-2.544c0-0.733-0.179-1.361-0.546-1.872
	c-0.361-0.51-1.003-1.039-1.919-1.572c-0.194-0.117-0.475-0.276-0.851-0.49c-1.567-0.869-2.626-1.605-3.174-2.206
	c-0.39-0.434-0.683-0.93-0.88-1.493c-0.199-0.563-0.294-1.179-0.294-1.842c0-1.848,0.593-3.35,1.778-4.512s2.74-1.746,4.653-1.746
	c1.291,0,2.423,0.264,3.397,0.792c0.968,0.525,1.772,1.309,2.406,2.353l-2.013,1.851c-0.47-0.766-0.992-1.338-1.564-1.71
	c-0.575-0.373-1.218-0.558-1.927-0.558c-1.033,0-1.866,0.302-2.512,0.907c-0.64,0.601-0.962,1.385-0.962,2.338
	c0,1.147,0.924,2.221,2.77,3.215c0.464,0.241,0.813,0.431,1.05,0.575c1.417,0.824,2.417,1.675,3.01,2.561
	c0.587,0.886,0.88,1.971,0.88,3.254c0,1.989-0.64,3.57-1.922,4.747c-1.282,1.167-3.025,1.757-5.228,1.757
	c-1.493,0-2.767-0.346-3.826-1.033C556.692,142.233,555.844,141.18,555.202,139.778"></path>
</svg>
