<?xml version="1.0"?>

<!-- Generator: Adobe Illustrator 19.1.0, SVG Export Plug-In . SVG Version: 6.00 Build 0)  -->
<svg version="1.1" id="Layer_1" xmlns="http://www.w3.org/2000/svg" xmlns:xlink="http://www.w3.org/1999/xlink" x="0px" y="0px" width="600px" height="400px" viewBox="0 0 600 400" enable-background="new 0 0 600 400" xml:space="preserve">
<path fill="#2E2A25" d="M236.955,360.667c-87.489,0-158.666-71.177-158.666-158.667c0-87.489,71.177-158.666,158.666-158.666
	c26.206,0,52.177,6.525,75.108,18.869l-7.465,13.868c-20.645-11.114-44.035-16.987-67.643-16.987
	c-78.805,0-142.916,64.112-142.916,142.916s64.112,142.917,142.916,142.917c0.561,0,1.119-0.003,1.677-0.01l0.185,15.75
	C238.198,360.664,237.577,360.667,236.955,360.667z"></path>
<path fill="#2E2A25" d="M236.955,320.711c-65.457,0-118.711-53.254-118.711-118.711c0-65.458,53.254-118.712,118.711-118.712
	c19.759,0,39.329,4.957,56.593,14.334l-10.859,19.992c-13.94-7.573-29.755-11.576-45.734-11.576
	c-52.914,0-95.961,43.048-95.961,95.962s43.048,95.961,95.961,95.961V320.711z"></path>
<path fill="#2E2A25" d="M236.955,279.401c-42.679,0-77.402-34.721-77.402-77.402s34.722-77.402,77.402-77.402
	c12.585,0,25.083,3.092,36.145,8.943l-13.911,26.298c-6.887-3.644-14.369-5.491-22.234-5.491c-26.275,0-47.652,21.376-47.652,47.652
	s21.377,47.652,47.652,47.652V279.401z"></path>
<path fill="#2E2A25" d="M208.324,202.743c0-5.742,0.86-10.562,2.577-14.458c1.282-2.871,3.032-5.447,5.247-7.728
	c2.218-2.281,4.647-3.973,7.287-5.076c3.512-1.487,7.562-2.232,12.151-2.232c8.306,0,14.952,2.577,19.937,7.73
	c4.987,5.153,7.48,12.318,7.48,21.494c0,9.102-2.475,16.222-7.422,21.361c-4.948,5.141-11.561,7.709-19.841,7.709
	c-8.383,0-15.048-2.557-19.995-7.67C210.799,218.758,208.324,211.715,208.324,202.743z M220.052,202.359
	c0,6.383,1.473,11.221,4.421,14.516c2.948,3.293,6.692,4.941,11.228,4.941c4.539,0,8.261-1.634,11.172-4.903
	c2.909-3.268,4.363-8.171,4.363-14.708c0-6.46-1.415-11.279-4.249-14.458c-2.832-3.179-6.593-4.768-11.286-4.768
	c-4.689,0-8.471,1.608-11.343,4.826C221.487,191.021,220.052,195.873,220.052,202.359z"></path>
<path fill="#2E2A25" d="M274.172,230.583v-56.371h17.035l10.228,38.452l10.112-38.452h17.073v56.371h-10.573v-44.374l-11.189,44.374
	h-10.96l-11.151-44.374v44.374H274.172z"></path>
<path fill="#2E2A25" d="M342.366,230.583v-56.371h18.266c6.921,0,11.433,0.282,13.535,0.846c3.23,0.846,5.934,2.685,8.114,5.518
	c2.177,2.832,3.268,6.492,3.268,10.977c0,3.462-0.629,6.371-1.883,8.729c-1.258,2.358-2.852,4.211-4.789,5.556
	c-1.935,1.347-3.903,2.237-5.903,2.673c-2.717,0.538-6.651,0.808-11.804,0.808h-7.422v21.263H342.366z M353.747,183.748v15.996
	h6.231c4.484,0,7.484-0.294,8.996-0.884s2.698-1.512,3.558-2.769c0.858-1.256,1.289-2.717,1.289-4.385
	c0-2.049-0.603-3.741-1.808-5.076c-1.205-1.331-2.731-2.165-4.577-2.499c-1.359-0.256-4.088-0.385-8.189-0.385H353.747z"></path>
<path fill="#2E2A25" d="M442.324,230.583h-12.383l-4.922-12.804h-22.531l-4.654,12.804H385.76l21.957-56.371h12.035L442.324,230.583
	z M421.367,208.28l-7.767-20.918l-7.614,20.918H421.367z"></path>
<path fill="#2E2A25" d="M447.917,212.242l11.074-1.077c0.667,3.717,2.018,6.446,4.057,8.189c2.037,1.743,4.787,2.615,8.248,2.615
	c3.666,0,6.427-0.776,8.287-2.326c1.858-1.552,2.787-3.365,2.787-5.441c0-1.333-0.391-2.468-1.172-3.403
	c-0.783-0.937-2.148-1.75-4.096-2.442c-1.333-0.461-4.37-1.282-9.112-2.461c-6.101-1.512-10.382-3.37-12.843-5.576
	c-3.461-3.1-5.19-6.882-5.19-11.343c0-2.871,0.813-5.556,2.44-8.056c1.629-2.499,3.973-4.402,7.038-5.71
	c3.062-1.307,6.761-1.962,11.093-1.962c7.075,0,12.4,1.552,15.977,4.654c3.575,3.102,5.453,7.243,5.633,12.419l-11.382,0.501
	c-0.487-2.897-1.531-4.98-3.134-6.248c-1.601-1.27-4.006-1.904-7.208-1.904c-3.309,0-5.898,0.68-7.769,2.039
	c-1.205,0.872-1.806,2.037-1.806,3.498c0,1.333,0.564,2.475,1.692,3.423c1.436,1.205,4.922,2.461,10.459,3.767
	c5.537,1.309,9.632,2.661,12.286,4.057c2.652,1.398,4.729,3.307,6.229,5.73c1.499,2.422,2.249,5.416,2.249,8.977
	c0,3.23-0.897,6.257-2.692,9.075c-1.794,2.822-4.332,4.917-7.613,6.287c-3.281,1.372-7.371,2.058-12.265,2.058
	c-7.128,0-12.6-1.647-16.42-4.941C450.942,223.347,448.661,218.548,447.917,212.242z"></path>
<path fill="#2E2A25" d="M295.427,272.407h3.107v0.154c0,1.323,0.467,2.244,1.4,2.762s2.174,0.776,3.722,0.776
	c1.354,0,2.488-0.395,3.408-1.184c0.916-0.791,1.376-1.832,1.376-3.126c0-1.046-0.395-1.904-1.183-2.57
	c-0.79-0.656-1.988-1.312-3.594-1.97l-1.246-0.508c-1.69-0.697-2.951-1.388-3.785-2.07c-0.836-0.684-1.458-1.439-1.866-2.271
	c-0.41-0.831-0.615-1.759-0.615-2.786c0-1.805,0.637-3.329,1.912-4.57c1.275-1.242,3.271-1.863,5.985-1.863
	c2.49,0,4.24,0.461,5.255,1.384c1.013,0.923,1.521,1.999,1.521,3.23v0.154h-3.107v-0.154c0-0.39-0.156-0.774-0.468-1.154
	s-0.781-0.655-1.405-0.822c-0.624-0.171-1.311-0.255-2.058-0.255c-1.524,0-2.654,0.383-3.385,1.147
	c-0.731,0.764-1.097,1.634-1.097,2.61c0,0.656,0.174,1.275,0.523,1.854c0.347,0.579,0.825,1.06,1.436,1.439s1.635,0.889,3.08,1.524
	l1.459,0.631c2.336,1.015,3.896,2.08,4.686,3.198c0.778,1.118,1.167,2.323,1.167,3.613c0,1.2-0.318,2.36-0.954,3.483
	c-0.636,1.121-1.518,1.972-2.646,2.552s-2.63,0.868-4.507,0.868c-1.784,0-3.274-0.212-4.469-0.637
	c-1.195-0.424-2.102-1.121-2.721-2.094c-0.622-0.971-0.931-2.035-0.931-3.191V272.407z"></path>
<path fill="#2E2A25" d="M327.207,278.482c-2.984,0-5.419-1.097-7.306-3.292s-2.83-5.317-2.83-9.367s0.943-7.169,2.83-9.358
	c1.887-2.189,4.322-3.285,7.306-3.285c2.984,0,5.421,1.095,7.314,3.285c1.89,2.189,2.837,5.308,2.837,9.358
	s-0.947,7.173-2.837,9.367C332.628,277.385,330.191,278.482,327.207,278.482z M327.214,276.098c2.177,0,3.876-0.937,5.098-2.81
	s1.832-4.358,1.832-7.458c0-3.088-0.61-5.571-1.832-7.449s-2.921-2.816-5.098-2.816c-2.165,0-3.862,0.938-5.088,2.816
	c-1.227,1.878-1.841,4.361-1.841,7.449c0,3.1,0.614,5.585,1.841,7.458C323.351,275.161,325.048,276.098,327.214,276.098z"></path>
<path fill="#2E2A25" d="M343.854,277.759v-23.871h3.107v21.241h12.52v2.63H343.854z"></path>
<path fill="#2E2A25" d="M364.683,253.888h3.107v15.36c0,2.237,0.217,3.738,0.653,4.503c0.436,0.764,1.116,1.347,2.039,1.747
	s1.953,0.6,3.092,0.6c1.097,0,2.068-0.2,2.916-0.6c0.844-0.4,1.477-1.034,1.89-1.9c0.417-0.868,0.624-2.681,0.624-5.441v-14.268
	h2.861v15.058c0,2.789-0.321,4.748-0.962,5.875s-1.565,2.02-2.775,2.676s-2.733,0.984-4.568,0.984c-1.702,0-3.261-0.261-4.676-0.784
	s-2.469-1.335-3.16-2.437c-0.694-1.102-1.039-2.972-1.039-5.607V253.888z"></path>
<path fill="#2E2A25" d="M395.173,277.759v-21.487h-8.121v-2.384h19.226v2.384h-7.998v21.487H395.173z"></path>
<path fill="#2E2A25" d="M414.91,277.759h-3.107v-23.871h3.107V277.759z"></path>
<path fill="#2E2A25" d="M431.542,278.482c-2.984,0-5.419-1.097-7.306-3.292s-2.83-5.317-2.83-9.367s0.943-7.169,2.83-9.358
	c1.887-2.189,4.322-3.285,7.306-3.285s5.421,1.095,7.314,3.285c1.89,2.189,2.837,5.308,2.837,9.358s-0.947,7.173-2.837,9.367
	C436.963,277.385,434.526,278.482,431.542,278.482z M431.549,276.098c2.177,0,3.876-0.937,5.098-2.81s1.832-4.358,1.832-7.458
	c0-3.088-0.61-5.571-1.832-7.449s-2.921-2.816-5.098-2.816c-2.165,0-3.862,0.938-5.088,2.816c-1.227,1.878-1.841,4.361-1.841,7.449
	c0,3.1,0.614,5.585,1.841,7.458C427.687,275.161,429.384,276.098,431.549,276.098z"></path>
<path fill="#2E2A25" d="M451.048,277.759h-2.861v-23.871h3.076l10.908,16.962l0.996,1.895l-0.062-1.876v-16.98h2.861v23.871h-3.045
	L451.98,260.72l-0.993-1.926l0.062,1.923V277.759z"></path>
<path fill="#2E2A25" d="M472.725,272.407h3.107v0.154c0,1.323,0.467,2.244,1.4,2.762s2.174,0.776,3.722,0.776
	c1.354,0,2.488-0.395,3.408-1.184c0.916-0.791,1.376-1.832,1.376-3.126c0-1.046-0.395-1.904-1.183-2.57
	c-0.79-0.656-1.988-1.312-3.594-1.97l-1.246-0.508c-1.69-0.697-2.951-1.388-3.785-2.07c-0.836-0.684-1.458-1.439-1.866-2.271
	c-0.41-0.831-0.615-1.759-0.615-2.786c0-1.805,0.637-3.329,1.912-4.57c1.275-1.242,3.271-1.863,5.985-1.863
	c2.49,0,4.24,0.461,5.255,1.384c1.013,0.923,1.521,1.999,1.521,3.23v0.154h-3.107v-0.154c0-0.39-0.156-0.774-0.468-1.154
	c-0.313-0.379-0.781-0.655-1.405-0.822c-0.624-0.171-1.311-0.255-2.058-0.255c-1.524,0-2.654,0.383-3.385,1.147
	c-0.731,0.764-1.097,1.634-1.097,2.61c0,0.656,0.174,1.275,0.523,1.854c0.347,0.579,0.825,1.06,1.436,1.439s1.635,0.889,3.08,1.524
	l1.459,0.631c2.336,1.015,3.896,2.08,4.686,3.198c0.778,1.118,1.167,2.323,1.167,3.613c0,1.2-0.318,2.36-0.954,3.483
	c-0.636,1.121-1.518,1.972-2.646,2.552c-1.128,0.579-2.63,0.868-4.507,0.868c-1.784,0-3.274-0.212-4.469-0.637
	c-1.195-0.424-2.102-1.121-2.721-2.094c-0.622-0.971-0.931-2.035-0.931-3.191V272.407z"></path>
</svg>
