<?xml version="1.0"?>

<!-- Generator: Adobe Illustrator 19.1.0, SVG Export Plug-In . SVG Version: 6.00 Build 0)  -->
<svg version="1.1" id="Layer_1" xmlns="http://www.w3.org/2000/svg" xmlns:xlink="http://www.w3.org/1999/xlink" x="0px" y="0px" width="597.4px" height="184.9px" viewBox="0 0 597.4 184.9" style="enable-background:new 0 0 597.4 184.9;" xml:space="preserve">

<g>
	<path class="st0" d="M27.8,121.5v-4.1h7.4V61.3h-7.4v-4.1h40.2v-2.7h5.3v15.5H68v-7H47.7v23h15.6v-6.6l5.3-0.1v19.2l-5.3,0.1v-6.8
		H47.7v24.1h21.1v-7.2h5.3v13H27.8L27.8,121.5z M77.6,121.5h46v-13h-5.3v7.2H97.5V61.3h7.3v-4.1H77.6v4.1H85v56.1h-7.4V121.5
		L77.6,121.5z"></path>
	<path class="st0" d="M173.4,122.8c-20.6,0-35.2-13.8-35.2-33.2c0-19.2,14.6-33.5,34.2-33.5c6.3,0,10.7,0.9,16.4,3.3v-4.1h5.4v17.5
		h-5.4v-6.2c-5.6-3.9-8.7-5-13.8-5c-13.5,0-23,11.3-23,27.5c0,15.8,10.4,28.1,23.9,28.1c4.9,0,8.4-1.1,13-3.9v-7.4h5.5v13
		C186,121.7,180.8,122.8,173.4,122.8L173.4,122.8z M244.9,121.5h12.4v-4.2h-4c-1.9,0-3.1-0.9-5.4-4.3l-13.8-21.2
		c9.2-2.8,13.6-8.5,13.6-17.3c0-5.2-1.6-9.4-4.8-12.6c-3.5-3.5-8.2-4.8-16.6-4.8h-28.8v4.1h7.4v56.1h-7.4v4.1H225v-4.1h-7.3V92.9
		h2.6l14.6,22.9C238.2,120.9,239.2,121.5,244.9,121.5L244.9,121.5z M223.8,62.6c6.9,0,10.9,4.5,10.9,12.3c0,7.7-4.6,13.1-11.3,13.1
		h-5.8V62.6H223.8L223.8,62.6z M285,122.8c17.9,0,32.3-14.8,32.3-33.4c0-18.6-14.3-33.3-32.3-33.3c-17.9,0-32.2,14.7-32.2,33.3
		C252.8,107.9,267.1,122.8,285,122.8L285,122.8z M285,61.6c9.8,0,18.5,13.1,18.5,27.8c0,14.8-8.7,27.9-18.5,27.9
		c-9.7,0-18.4-13.1-18.4-27.9C266.6,74.6,275.2,61.6,285,61.6L285,61.6z M371.2,61.3h8.2v-4.1h-22v4.1h7.7v40.8l-31.6-44.9h-19.4
		v4.1h7l3.1,5v51.2h-8.1v4.1h22v-4.1h-7.7V74.8l33.9,47.8h6.8V61.3L371.2,61.3z M382.8,121.5h27.3v-4.1h-7.3V61.3h7.3v-4.1h-27.3
		v4.1h7.4v56.1h-7.4V121.5L382.8,121.5z M432.9,122.8c11.4,0,19.5-7.8,19.5-18.9c0-3.8-0.9-7-2.7-10c-1.7-2.6-3.7-4.8-6-6.3
		c-1.1-0.8-3.9-2.5-8.4-5.5c-9.4-5.9-11.6-8.4-11.6-12.3c0-4.6,3.9-8.2,9-8.2c3.6,0,6.2,1,10.3,3.6v6.7h5.3V55.2H443v2.9
		c-3.7-1.6-6.7-2.1-10.5-2.1c-11.9,0-19.8,7.1-19.8,17.8c0,4.3,1.3,8.2,3.7,11c2.5,2.9,3.7,3.9,13.3,9.9c9.1,5.8,11.9,9,11.9,13.3
		c0,5.1-4.4,8.7-10.4,8.7c-4.8,0-8.1-1.3-12.5-4.8v-7.2h-5.4v17.5h5.4V119C423.2,121.6,427.3,122.8,432.9,122.8L432.9,122.8z
		 M503.6,71h5.4V54.5h-5.4v2.7h-46.2v-2.7h-5.4V71h5.4v-8.1h16.9v54.5h-9.4v4.1h31.4v-4.1h-9.4V62.9h16.8V71L503.6,71z M541.1,121.5
		h23.8v-4.1h-4.1l-24.2-62.3h-5.9l-25.1,62.3h-6v4.1h20.2v-4.1h-7.8l6.3-15.8h23.7l6,15.8h-6.8V121.5L541.1,121.5z M530.4,71.3
		l9.3,24.4h-19.1L530.4,71.3L530.4,71.3z"></path>
	<path class="st0" d="M147.4,141.5c-3.2,0-5.4-2.1-5.4-5.1c0-3,2.2-5.2,5.3-5.2c1,0,1.7,0.1,2.5,0.5v-0.6h0.8v2.7h-0.8v-1
		c-0.9-0.6-1.3-0.8-2.1-0.8c-2.1,0-3.5,1.7-3.5,4.2c0,2.4,1.6,4.3,3.7,4.3c0.7,0,1.3-0.2,2-0.6v-1.1h0.8v2
		C149.3,141.4,148.5,141.5,147.4,141.5L147.4,141.5z M185,141.5c2.7,0,5-2.3,5-5.2c0-2.9-2.2-5.1-5-5.1c-2.8,0-5,2.3-5,5.1
		C180,139.3,182.2,141.5,185,141.5L185,141.5z M185,132.1c1.5,0,2.9,2,2.9,4.3c0,2.3-1.3,4.3-2.9,4.3c-1.5,0-2.8-2-2.8-4.3
		C182.1,134.1,183.5,132.1,185,132.1L185,132.1z M227.1,141.3h4.5v-0.6h-1.3v-8.6h1.3v-0.6h-3l-3.1,7l-3.6-7h-2.7v0.6h1.3v8.6h-1.3
		v0.6h3.5v-0.6h-1.3v-6.3l3.6,7.1l3.3-7.3v6.5h-1.3V141.3L227.1,141.3z M261,141.3h7.1v-2h-0.8v1.1H264v-3.7h2.4v1l0.8,0v-3l-0.8,0
		v1H264v-3.5h3.1v1.1h0.8V131h-0.8v0.4H261v0.6h1.1v8.6H261V141.3L261,141.3z M305,141.3h1.9v-0.6h-0.6c-0.3,0-0.5-0.1-0.8-0.7
		l-2.1-3.3c1.4-0.4,2.1-1.3,2.1-2.7c0-0.8-0.3-1.4-0.7-1.9c-0.5-0.5-1.3-0.7-2.6-0.7h-4.4v0.6h1.1v8.6h-1.1v0.6h4.2v-0.6h-1.1v-3.8
		h0.4l2.2,3.5C304,141.3,304.1,141.3,305,141.3L305,141.3z M301.8,132.3c1.1,0,1.7,0.7,1.7,1.9c0,1.2-0.7,2-1.7,2h-0.9v-3.9H301.8
		L301.8,132.3z M340.9,141.5c1.1,0,1.9-0.2,3.2-0.6v-2h-0.8v1.1c-0.7,0.4-1.3,0.6-2,0.6c-2.1,0-3.7-1.9-3.7-4.3
		c0-2.5,1.5-4.2,3.5-4.2c0.8,0,1.3,0.2,2.1,0.8v1h0.8v-2.7h-0.8v0.6c-0.9-0.4-1.6-0.5-2.5-0.5c-3,0-5.3,2.2-5.3,5.2
		C335.5,139.4,337.8,141.5,340.9,141.5L340.9,141.5z M373.7,141.3h4.2v-0.6h-1.1v-8.6h1.1v-0.6h-4.2v0.6h1.1v8.6h-1.1V141.3
		L373.7,141.3z M413,141.3h3.7v-0.6H416l-3.7-9.6h-0.9l-3.9,9.6h-0.9v0.6h3.1v-0.6h-1.2l1-2.4h3.6l0.9,2.4h-1V141.3L413,141.3z
		 M411.4,133.6l1.4,3.8h-2.9L411.4,133.6L411.4,133.6z M445.5,141.3h7.1v-2h-0.8v1.1h-3.2v-8.4h1.1v-0.6h-4.2v0.6h1.1v8.6h-1.1
		V141.3L445.5,141.3z"></path>
	<path class="st0" d="M130.4,141.5h-1.9V55.7h1.9V141.5z"></path>
</g>
</svg>
