<?xml version="1.0"?>

<svg xmlns="http://www.w3.org/2000/svg" viewBox="0 0 1764 607.1" width="1764" height="607.1"><path d="m 566,66 c -62,0 -120,0.8 -170,17.5 -81,26.7 -139,88.6 -139,165.7 0,63.9 39,112.2 119,129.2 51,10.9 106,10.3 171,10.3 l 126,0 18,-64.2 -152,0 c -38,0 -68,-2 -98,-12.6 -32,-11.7 -52,-36.6 -52,-72.7 0,-41.9 27,-74.7 68,-92.6 39,-17 91,-16.4 146,-16.4 l 143,0 140,0 -69,258.5 125,0 69,-258.5 157,0 c -35,31 -57,72.1 -57,119 0,63.9 40,112.2 120,129.2 51,10.9 106,10.3 170,10.3 l 126,0 18,-64.2 -152,0 c -37,0 -68,-2 -97,-12.6 -32,-11.7 -53,-36.6 -53,-72.7 0,-41.9 27,-74.7 69,-92.6 39,-17 91,-16.4 145,-16.4 l 141,0 2,0 18,-64.2 -2,0 -196,0 -656,0 -198,0 z m -327,405.7 -16,53.6 10,0 5,-18.2 c 2,-8.2 11,-14 18,-14 7,0 9,2.6 9,6.1 0,2.1 0,3.5 -1,5 l -6,21.1 10,0 6,-21.4 c 0,-1.7 1,-4.4 1,-6.1 0,-7.4 -8,-10 -14,-10 -8,0 -15,2.9 -20,7.3 l 0,0 7,-23.4 -10,0 z m 120,0 -16,53.6 10,0 15,-53.6 -9,0 z m 26,0 -16,53.6 10,0 15,-53.6 -9,0 z m 1000,0 -15,53.6 9,0 6,-18.2 c 2,-8.2 11,-14 18,-14 6,0 8,2.6 8,6.1 0,2.1 0,3.5 0,5 l -6,21.1 9,0 6,-21.4 c 1,-1.7 1,-4.4 1,-6.1 0,-7.4 -7,-10 -13,-10 -9,0 -15,2.9 -20,7.3 l 0,0 7,-23.4 -10,0 z m -162,1.1 -3,18.5 6,0 7,-18.5 -10,0 z m -637,0.6 c -4,0 -7,1.8 -7,4.4 0,2.4 2,4.1 6,4.1 4,0 6,-1.7 6,-4.4 0,-2.3 -2,-4.1 -5,-4.1 z m -378,0 c -11,0 -21,2.4 -29,7.1 -11,5.5 -17,14.9 -17,24.6 0,12.9 12,21.1 32,21.1 8,0 15,-1.2 19,-2.6 l -1,-5 c -4,1.4 -10,2 -16,2 -17,0 -23,-7.3 -23,-16.7 0,-7.6 4,-14.6 11,-19.3 6,-3.6 14,-5.6 22,-5.6 7,0 12,0.9 15,2 l 3,-4.9 c -2,-1.2 -8,-2.7 -16,-2.7 z m 1146,0 c -11,0 -21,2.4 -29,7.1 -10,5.5 -16,14.9 -16,24.6 0,12.9 12,21.1 31,21.1 9,0 16,-1.2 20,-2.6 l -1,-5 c -5,1.4 -11,2 -16,2 -18,0 -24,-7.3 -24,-16.7 0,-7.6 5,-14.6 12,-19.3 6,-3.6 14,-5.6 22,-5.6 6,0 12,0.9 15,2 l 3,-4.9 c -2,-1.2 -8,-2.7 -17,-2.7 z m -605,0.9 -1,5.6 22,0 -13,45.4 10,0 13,-45.4 22,0 1,-5.6 -54,0 z m -667,5 -16,54.8 78,-54.8 -62,0 z m 240,8.5 c -24,0 -38,13.5 -38,26.4 0,6.7 6,12 16,12 8,0 15,-2.6 21,-10.3 l 1,0 c -1,3.8 -2,7.4 -2,9.4 l 9,0 c 0,-4.1 1,-10.5 3,-17 l 5,-19 c -4,-0.9 -9,-1.5 -15,-1.5 z m 104,0 c -18,0 -30,12.6 -30,23.7 0,8 6,14.7 21,14.7 7,0 14,-1.5 18,-2.9 l -2,-4.7 c -3,1.1 -8,2.3 -14,2.3 -6,0 -10,-1.4 -13,-4.7 -1,-2 -1,-5.5 -1,-7 21,0.3 37,-2.4 37,-12 0,-5 -6,-9.4 -16,-9.4 z m 58,0 c -7,0 -15,2.9 -20,8.2 l 1,-7.3 -8,0 c -1,3.2 -2,6.7 -3,10.5 l -7,26.1 9,0 5,-17.9 c 3,-8.8 12,-14.3 19,-14.3 6,0 9,2.9 9,6.4 0,1.5 -1,3.2 -1,4.7 l -6,21.1 9,0 6,-21.4 c 1,-2 1,-4.1 1,-5.8 0,-7.7 -7,-10.3 -14,-10.3 z m 59,0 c -22,0 -35,12.3 -35,24.9 0,6.5 5,12.6 17,12.6 7,0 14,-2.6 19,-7.6 l 0,0 -2,5.3 c -3,9.9 -10,12.9 -19,12.9 -6,0 -12,-0.9 -15,-2.4 l -3,5 c 4,1.8 10,2.6 17,2.6 6,0 13,-0.8 19,-4.1 6,-3.2 9,-8.5 11,-16.4 l 8,-30.2 c -4,-1.4 -11,-2.6 -17,-2.6 z m 87,0 c -7,0 -15,2.9 -20,8.2 l 1,-7.3 -8,0 c -1,3.2 -2,6.7 -3,10.5 l -7,26.1 9,0 5,-17.9 c 3,-8.8 13,-14.3 19,-14.3 6,0 9,2.9 9,6.4 0,1.5 -1,3.2 -1,4.7 l -6,21.1 9,0 6,-21.4 c 1,-2 2,-4.1 2,-5.8 0,-7.7 -8,-10.3 -15,-10.3 z m 59,0 c -22,0 -35,12.3 -35,24.9 0,6.5 6,12.6 17,12.6 8,0 14,-2.6 19,-7.6 l 0,0 -2,5.3 c -3,9.9 -10,12.9 -19,12.9 -6,0 -12,-0.9 -15,-2.4 l -2,5 c 3,1.8 9,2.6 16,2.6 6,0 13,-0.8 19,-4.1 6,-3.2 9,-8.5 11,-16.4 l 9,-30.2 c -5,-1.4 -12,-2.6 -18,-2.6 z m 133,0 c -18,0 -31,11.1 -31,23.4 0,8.3 8,15 22,15 18,0 30,-11.7 30,-23.2 0,-7.6 -6,-15.2 -21,-15.2 z m 64,0 c -7,0 -14,2.6 -19,7.9 l 1,-7 -8,0 c -1,3.2 -2,6.7 -3,10.5 l -7,26.1 9,0 5,-18.5 c 2,-7.6 11,-13.7 18,-13.7 7,0 8,3.2 8,6.4 0,1.2 0,2.7 -1,4.4 l -6,21.4 9,0 6,-18.7 c 2,-8.3 10,-13.5 17,-13.5 6,0 8,2.6 8,6.4 0,1.5 0,3.2 -1,4.7 l -5,21.1 8,0 7,-21.7 c 0,-2 0,-4.4 0,-6.1 0,-6.8 -6,-9.7 -13,-9.7 -8,0.3 -15,2.9 -20,8.2 0,-4.7 -4,-8.2 -13,-8.2 z m 87,0 c -18,0 -31,11.1 -31,23.4 0,8.3 8,15 22,15 l 0,0 c 19,0 31,-11.7 31,-23.2 0,-7.6 -8,-15.2 -22,-15.2 z m 61,0 c -7,0 -13,3.8 -16,8.8 l -1,0 c 1,-2.7 2,-5.3 2,-7.9 l -8,0 c -1,3.5 -2,8.2 -3,13.2 l -7,23.4 10,0 4,-16.1 c 3,-8.5 10,-15 18,-15 1,0 2,0 2,0 l 2,-6.1 c -1,-0.3 -1,-0.3 -3,-0.3 z m 37,0 c -8,0 -13,3.8 -17,8.8 l -1,0 c 1,-2.7 2,-5.3 2,-7.9 l -8,0 c -1,3.5 -2,8.2 -3,13.2 l -7,23.4 10,0 4,-16.1 c 2,-8.5 10,-15 18,-15 1,0 2,0 3,0 l 1,-6.1 c 0,-0.3 -1,-0.3 -2,-0.3 z m 33,0 c -18,0 -31,11.1 -31,23.4 0,8.3 8,15 22,15 l 0,0 c 19,0 31,-11.7 31,-23.2 0,-7.6 -7,-15.2 -22,-15.2 z m 148,0 c -12,0 -20,5 -20,11.4 0,3.8 4,7.1 10,9.4 6,2.1 7,3.8 7,6.7 0,3.3 -4,5.9 -10,5.9 -4,0 -9,-1.2 -12,-2.3 l -3,4.7 c 3,1.4 8,2.6 14,2.6 12,0 21,-4.4 21,-12 0,-4.4 -4,-7.6 -10,-9.7 -5,-1.8 -7,-3.5 -7,-6.2 0,-3.2 3,-5.5 9,-5.5 4,0 8,0.9 10,1.7 l 2,-4.7 c -2,-1.1 -6,-2 -11,-2 z m 217,0 c -24,0 -38,13.5 -38,26.4 0,6.7 6,12 16,12 7,0 15,-2.6 21,-10.3 0,3.8 -1,7.4 -1,9.4 l 9,0 c 0,-4.1 0,-10.5 2,-17 l 6,-19 c -4,-0.9 -10,-1.5 -15,-1.5 z m 58,0 c -8,0 -15,2.9 -20,8.2 l 0,0 1,-7.3 -8,0 c -1,3.2 -2,6.7 -3,10.5 l -7,26.1 9,0 5,-17.9 c 3,-8.8 12,-14.3 19,-14.3 7,0 9,2.9 9,6.4 0,1.5 -1,3.2 -1,4.7 l -6,21.1 9,0 6,-21.4 c 1,-2 1,-4.1 1,-5.8 0,-7.7 -7,-10.3 -14,-10.3 z m 59,0 c -21,0 -35,12.3 -35,24.9 0,6.5 6,12.6 17,12.6 7,0 14,-2.6 19,-7.6 l 0,0 -2,5.3 c -3,9.9 -10,12.9 -19,12.9 -6,0 -12,-0.9 -15,-2.4 l -3,5 c 4,1.8 10,2.6 17,2.6 6,0 14,-0.8 19,-4.1 6,-3.2 9,-8.5 11,-16.4 l 9,-30.2 c -4,-1.4 -11,-2.6 -18,-2.6 z m 55,0 c -18,0 -30,12.6 -30,23.7 0,8 6,14.7 21,14.7 7,0 14,-1.5 18,-2.9 l -2,-4.7 c -3,1.1 -8,2.3 -14,2.3 -6,0 -10,-1.4 -13,-4.7 -1,-2 -1,-5.5 -1,-7 21,0.3 37,-2.4 37,-12 0,-5 -6,-9.4 -16,-9.4 z m 46,0 c -12,0 -20,5 -20,11.4 0,3.8 3,7.1 10,9.4 5,2.1 7,3.8 7,6.7 0,3.3 -4,5.9 -10,5.9 -5,0 -9,-1.2 -12,-2.3 l -3,4.7 c 3,1.4 8,2.6 14,2.6 12,0 21,-4.4 21,-12 0,-4.4 -4,-7.6 -10,-9.7 -5,-1.8 -8,-3.5 -8,-6.2 0,-3.2 4,-5.5 10,-5.5 4,0 8,0.9 10,1.7 l 2,-4.7 c -2,-1.1 -6,-2 -11,-2 z m -1110,0.9 -10,36.6 9,0 11,-36.6 -10,0 z m 558,0 5,36.6 9,0 16,-19.9 c 2,-3.2 4,-6.2 6,-9.7 l 1,0 c 0,3.2 0,6.5 0,10 l 4,19.6 9,0 27,-36.6 -10,0 -14,21.1 c -3,3.5 -4,6.4 -6,9.4 0,-2.4 0,-5.6 -1,-9.7 l -4,-20.8 -8,0 -16,21.1 c -3,3.8 -5,7 -6,9.4 0,-3 0,-5.3 0,-10 l -2,-20.5 -10,0 z m -711,4.1 c 5,0 9,1.7 9,4.7 l 0,0 c 0,5.5 -12,7 -27,6.7 3,-5.6 10,-11.4 18,-11.4 z m 1215,0 c 5,0 9,1.7 9,4.7 l 0,0 c 0,5.5 -12,7 -27,6.7 3,-5.6 9,-11.4 18,-11.4 z m -818,0 c 9,0 12,6.1 12,10.2 0,8.5 -8,18.2 -19,18.2 l 0,0 c -8,0 -13,-4.4 -13,-10.2 0,-8.6 8,-18.2 20,-18.2 z m 151,0 c 10,0 13,6.1 13,10.2 0,8.5 -9,18.2 -20,18.2 -8,0 -13,-4.4 -13,-10.2 0,-8.6 8,-18.2 20,-18.2 z m 131,0 c 10,0 13,6.1 13,10.2 0,8.5 -9,18.2 -20,18.2 -8,0 -13,-4.4 -13,-10.2 0,-8.6 8,-18.2 20,-18.2 z m -783,0.3 c 3,0 5,0 6,0.3 l -3,11.1 c -2,9.7 -12,16.4 -20,16.4 -7,0 -9,-3.8 -9,-7.9 0,-10.3 12,-19.9 26,-19.9 z m 1146,0 c 4,0 6,0 7,0.3 l -3,11.1 c -3,9.7 -12,16.4 -20,16.4 -7,0 -9,-3.8 -9,-7.9 0,-10.3 11,-19.9 25,-19.9 z m -925,0 c 4,0 7,0.6 9,1.1 l -4,12.1 c -1,7.3 -10,14 -18,14 -8,0 -10,-4.7 -10,-8.8 0,-9.1 9,-18.4 23,-18.4 z m 146,0 c 4,0 7,0.6 9,1.1 l -3,12.1 c -2,7.3 -10,14 -19,14 -8,0 -10,-4.7 -10,-8.8 0,-9.1 9,-18.4 23,-18.4 z m 897,0 c 4,0 8,0.6 9,1.1 l -3,12.1 c -2,7.3 -10,14 -19,14 -8,0 -10,-4.7 -10,-8.8 0,-9.1 10,-18.4 23,-18.4 z"></path> </svg>