<?xml version="1.0"?>
<!--?xml version="1.0" encoding="UTF-8" standalone="no"?-->
<svg xmlns="http://www.w3.org/2000/svg" viewBox="0 0 1193.2 410.35" height="410.35" width="1193.2"> <path d="m 246.23,22 -4.7,0.16 -4.53,0.65 -4.45,0.97 -4.29,1.54 -4.29,1.78 -4.13,2.35 -4.14,2.68 -3.96,3.15 -3.97,3.49 -3.81,3.97 -3.81,4.29 -3.64,4.86 -3.65,5.18 -3.48,5.66 -3.49,5.99 -3.24,6.56 -3.16,6.56 -2.91,6.89 -2.67,6.96 -2.51,7.2 -2.35,7.29 -2.19,7.53 -1.94,7.69 -1.7,7.86 v 0 l -8.89,-0.66 -8.84,-0.32 -8.74,-0.16 -8.58,0.16 -5.19,0.1 -4.94,0.24 -4.86,0.25 -4.62,0.41 -4.61,0.4 -4.38,0.56 -8.49,1.38 -4.139,0.73 -3.881,0.89 -3.891,0.89 -3.65,1.06 -3.639,1.05 -3.4,1.21 -3.4,1.21 -3.161,1.38 -3.15,1.3 -2.93,1.46 -2.898,1.54 -2.682,1.69 -2.679,1.7 -2.42,1.87 -2.43,1.86 -2.189,2.02 -2.18,1.95 -1.951,2.1 -1.94,2.19 -1.711,2.35 -3.148,4.77 -1.381,2.51 -1.131,2.68 -2.189,5.18 -1.539,5.42 -0.571,2.75 -0.4,2.76 -0.24,2.83 -0.08,2.91 -0.08,2.76 0.24,2.91 0.24,2.92 0.57,3 0.571,2.91 0.718,3.08 2.032,6.23 1.048,3.07 1.381,3.17 3.16,6.39 3.639,6.48 4.291,6.72 4.779,6.72 5.43,6.97 2.842,3.39 3.148,3.57 3.161,3.56 3.48,3.64 6.641,6.81 3.49,3.31 3.639,3.41 7.361,6.55 3.808,3.24 3.971,3.32 3.89,3.08 4.04,3.16 8.35,6.23 4.21,3 4.38,3.08 8.99,5.99 9.14,5.75 9.56,5.67 4.85,2.74 5.03,2.84 5.02,2.67 5.19,2.75 5.09,2.59 5.27,2.68 10.85,5.18 11.09,5.11 5.67,2.42 5.83,2.51 -3.47,-3.57 -3.33,-3.72 -1.7,-2.02 -1.62,-2.11 -3.16,-4.37 -3.15,-4.86 -3.08,-5.02 -3,-5.34 -2.91,-5.67 -1.7,-3.72 -5.59,-3.16 -5.35,-3.16 -5.26,-3.24 -5.03,-3.24 -5.1,-3.4 -4.77,-3.32 -4.78,-3.4 -4.54,-3.4 -4.53,-3.57 -4.29,-3.56 -4.3,-3.64 -4.05,-3.64 -4.04,-3.81 -3.81,-3.72 -3.81,-3.88 -3.48,-3.82 -4.78,-5.5 -4.29,-5.26 -3.97,-5.26 -3.4,-5.11 -3.07,-5.1 -2.6,-4.93 -2.269,-4.86 -1.701,-4.7 -1.45,-4.78 -0.97,-4.53 -0.571,-4.54 -0.08,-4.28 0.241,-4.38 0.73,-4.13 1.051,-4.13 1.619,-3.89 1.779,-3.96 2.272,-3.65 1.219,-1.77 1.371,-1.62 1.379,-1.63 1.541,-1.45 3.239,-3 3.64,-2.67 1.95,-1.3 2.1,-1.13 2.11,-1.13 2.27,-0.98 4.61,-2.02 5.02,-1.7 2.59,-0.81 2.75,-0.65 5.84,-1.21 6.07,-1.06 6.48,-0.73 3.32,-0.32 3.48,-0.16 3.48,-0.16 h 3.73 3.55 l -0.89,9.46 -0.56,9.79 -0.41,9.96 -0.1,10.29 0.1,8.99 0.25,8.83 0.4,8.66 0.73,8.51 0.32,4.13 0.49,4.21 1.05,8.17 1.22,8.02 1.54,8.02 1.54,7.68 0.81,3.73 0.98,3.81 2.02,7.37 2.19,7.37 2.35,7.04 2.59,6.96 2.84,6.72 3,6.73 1.7,3.72 2.92,5.67 3,5.35 3.08,5.02 3.15,4.86 3.16,4.37 1.62,2.11 1.7,2.02 3.33,3.72 3.48,3.56 2.1,1.94 2.27,1.86 2.27,1.7 2.27,1.7 2.26,1.46 2.27,1.38 2.35,1.21 2.43,1.14 2.35,0.89 2.43,0.9 2.43,0.72 2.51,0.66 2.43,0.4 2.59,0.32 2.59,0.24 2.59,0.1 1.3,-0.1 h 1.37 l 1.3,-0.1 h 1.38 l 2.19,-0.33 2.26,-0.4 4.37,-1.14 2.1,-0.73 2.19,-0.81 2.1,-0.89 2.19,-0.97 1.94,-1.14 2.1,-1.21 4.05,-2.75 1.94,-1.54 2.02,-1.62 1.95,-1.7 1.94,-1.78 3.24,-3.48 3.24,-3.73 0.33,-0.56 0.4,-0.49 0.81,-0.98 1.62,-2.02 0.73,-1.13 0.81,-1.05 1.62,-2.19 1.46,-2.34 0.33,-0.65 0.16,-0.32 0.25,-0.25 0.81,-1.13 1.46,-2.51 1.54,-2.43 2.92,-5.34 2.91,-5.51 1.38,-3.07 1.46,-3 2.68,-6.15 0.56,-1.62 0.65,-1.54 1.3,-3.08 1.13,-3.24 0.57,-1.62 0.65,-1.54 0.49,-1.7 0.56,-1.62 1.14,-3.24 0.97,-3.4 0.49,-1.7 0.56,-1.62 1.86,-6.8 0.81,-3.49 0.89,-3.4 0.32,-1.86 0.41,-1.78 0.81,-3.56 0.65,-3.64 0.73,-3.56 0.57,-3.73 0.65,-3.64 1.05,-7.45 0.4,-3.89 0.49,-3.8 0.72,-7.77 v -1.05 l 0.1,-0.97 0.16,-1.94 0.32,-3.89 0.25,-4.05 v -1.05 l 0.1,-0.97 0.16,-1.94 0.24,-8.1 v -2.11 -1.05 l 0.1,-0.97 0.1,-4.05 -0.1,-5.67 -0.1,-5.51 -0.4,-10.77 -0.56,-7.69 -0.65,-7.53 -0.81,-7.45 -0.89,-7.21 -1.14,-7.2 -1.21,-6.96 -1.38,-6.88 -1.54,-6.64 -1.7,-6.72 -1.86,-6.48 -2.03,-6.4 -2.1,-6.15 -2.35,-6.15 -2.34,-5.91 -2.59,-5.91 -2.72,-5.6 v 0 l -3.41,-6.56 -3.39,-5.99 -1.79,-2.92 -1.7,-2.75 -3.57,-5.18 -3.72,-4.86 -3.73,-4.29 -1.94,-2.11 -1.86,-1.86 -3.89,-3.49 -4.05,-3.15 -4.05,-2.68 -4.21,-2.35 -4.21,-1.78 -4.38,-1.54 -4.37,-0.97 -4.54,-0.65 z m -0.1,54.8 3.16,0.1 1.54,0.16 1.62,0.32 3.08,0.65 3.08,1.05 2.91,1.3 2.92,1.62 2.83,1.86 2.92,2.27 1.29,1.13 1.39,1.29 1.29,1.3 1.38,1.46 2.59,2.99 1.29,1.62 1.38,1.78 2.43,3.56 2.5,3.96 1.13,2.02 1.22,2.19 2.43,4.61 v -0.1 l 1.38,3 1.46,3.16 1.29,3.15 1.3,3.32 1.13,3.24 1.21,3.4 2.19,6.88 1.86,7.04 0.81,3.56 0.89,3.72 0.64,3.64 0.73,3.8 0.57,3.81 0.65,3.97 v 0 l -14.97,-5.91 -7.37,-2.83 -7.29,-2.52 -14.5,-4.93 -7.2,-2.27 -7.05,-2.03 -14.17,-3.96 -7.05,-1.78 -6.88,-1.54 -6.97,-1.54 -6.8,-1.3 -13.49,-2.34 1.84,-5.93 2.1,-5.75 2.27,-5.59 2.59,-5.43 2.27,-4.61 2.43,-4.21 2.43,-3.96 2.51,-3.56 2.51,-3.4 2.68,-2.99 2.67,-2.76 2.83,-2.42 2.75,-2.27 2.83,-1.86 2.92,-1.62 2.99,-1.3 3,-1.05 3.15,-0.65 3.16,-0.49 z m 204.32,52.5 -3.32,0.24 -3.32,0.24 -3.15,0.49 -3.17,0.48 -2.99,0.65 -2.91,0.73 -2.76,0.89 -2.83,0.89 -2.68,1.05 -2.59,1.14 -2.42,1.38 -2.52,1.29 -2.34,1.54 -2.27,1.62 -2.11,1.78 -4.21,3.48 -3.89,3.81 -3.64,3.97 -3.32,4.28 -3.24,4.46 -2.84,4.78 -2.66,4.93 -2.35,5.27 -2.19,5.34 -2.03,5.43 -1.86,5.42 -1.54,5.59 -1.45,5.5 -1.22,5.59 -1.05,5.67 -0.81,5.75 -0.81,5.5 -0.65,5.42 -0.56,5.27 -0.41,5.27 -0.41,5.01 -0.15,4.94 -0.1,4.78 0.1,4.78 v 4.12 l 0.15,4.38 0.24,4.46 0.5,4.69 0.4,4.7 0.64,4.94 0.73,5.02 0.9,5.25 1.05,5.11 1.21,5.18 1.38,5.1 1.62,5.18 1.7,5.02 1.86,5.02 2.03,4.94 2.34,5.02 2.35,4.7 2.68,4.61 1.37,2.19 1.54,2.19 3.16,4.28 3.32,3.89 3.65,3.8 3.8,3.57 4.13,3.49 2.03,1.53 2.19,1.46 2.17,1.38 2.35,1.29 2.35,1.14 2.43,1.05 5.11,1.94 5.26,1.46 5.59,1.13 2.83,0.41 3,0.32 3.08,0.24 3.15,0.16 5.59,-0.32 5.67,-0.64 2.83,-0.49 2.92,-0.57 2.92,-0.65 2.91,-0.73 2.75,-0.97 2.67,-0.97 2.6,-1.05 2.59,-1.05 2.35,-1.3 1.13,-0.65 0.57,-0.32 0.65,-0.25 2.26,-1.37 0.49,-0.4 0.57,-0.33 1.13,-0.65 v -39.51 h -1.13 l -1.62,2.02 -1.62,2.11 -1.79,1.95 -1.77,2.02 -0.33,0.16 -0.16,0.1 -0.1,0.16 -0.48,0.49 -0.97,0.97 -0.32,0.16 -0.17,0.1 -0.1,0.16 -0.48,0.49 -0.97,0.98 -2.11,1.69 -2.19,1.78 -0.65,0.32 -0.32,0.17 -0.16,0.1 -0.1,0.16 -1.13,0.81 -0.65,0.32 -0.33,0.17 -0.16,0.1 -0.1,0.16 -1.13,0.73 -1.31,0.57 -0.64,0.24 -0.56,0.32 -2.59,1.05 -1.47,0.33 -0.72,0.16 -0.65,0.24 -2.92,0.65 -1.53,0.17 -1.47,0.16 -3.07,0.24 -2.1,-0.16 -2.03,-0.24 -3.81,-0.66 -3.64,-0.96 -1.79,-0.66 -1.61,-0.64 -3.32,-1.78 -3,-1.95 -1.46,-1.13 -1.37,-1.22 -1.38,-1.29 -1.21,-1.3 -2.52,-2.99 -2.34,-3.16 -2.19,-3.32 -1.86,-3.4 -1.87,-3.64 -1.61,-3.81 -1.54,-3.97 -1.21,-4.05 -2.52,-8.34 -2.02,-8.25 -1.54,-8.18 -0.89,-8.02 -0.57,-3.97 -0.4,-3.72 -0.33,-3.56 -0.24,-3.32 -0.24,-3.16 -0.1,-2.91 -0.1,-2.76 0.1,-2.51 -0.1,-2.99 v -3.08 l 0.1,-3.32 0.16,-3.32 0.16,-3.64 0.32,-3.65 0.33,-3.8 0.48,-3.97 1.05,-8.42 1.54,-8.34 2.03,-8.26 2.67,-8.25 1.21,-4.14 1.54,-3.88 0.74,-1.95 0.89,-1.77 1.86,-3.49 2.02,-3.4 2.19,-3.16 2.34,-2.99 2.6,-2.84 2.67,-2.75 3,-2.27 1.54,-1.05 1.7,-0.89 1.7,-0.89 1.86,-0.73 3.64,-1.29 3.97,-0.98 2.03,-0.4 2.18,-0.24 4.46,-0.17 2.67,0.1 2.67,0.25 2.52,0.4 2.59,0.65 2.42,0.73 2.43,0.89 2.35,1.05 2.35,1.38 4.37,2.35 4.05,2.67 3.73,2.83 1.78,1.54 1.78,1.7 v -36.51 l -2.35,-1.22 -2.27,-1.05 -2.43,-1.05 -2.35,-0.9 -5.01,-1.69 -2.6,-0.73 -2.59,-0.57 -5.42,-1.22 -5.35,-0.81 -5.27,-0.48 -5.1,-0.16 z m 357.62,0 -3.08,0.1 -2.91,0.24 -2.92,0.4 -2.75,0.57 -2.75,0.73 -2.59,0.97 -2.6,1.05 -2.43,1.38 -2.42,1.38 -2.19,1.54 -2.19,1.61 -2.02,1.79 -2.03,1.78 -1.86,1.94 -1.78,1.95 -1.62,2.18 -3.4,4.21 -2.84,4.37 -2.51,4.45 -1.95,4.54 h -1.2 v -33.06 h -37.26 v 250.77 h 37.26 v -146.4 l -0.1,-5.1 0.1,-4.85 0.16,-4.78 0.32,-4.62 0.33,-4.53 0.57,-4.29 0.56,-4.22 0.81,-3.96 0.65,-3.97 0.88,-3.72 1.14,-3.49 1.37,-3.31 1.54,-3.16 0.82,-1.54 0.97,-1.38 1.94,-2.66 2.27,-2.52 1.13,-1.21 1.3,-1.06 1.29,-1.05 1.46,-0.89 3,-1.7 1.62,-0.73 1.78,-0.56 1.7,-0.65 1.87,-0.49 4.04,-0.73 2.03,-0.32 2.18,-0.17 4.62,-0.16 7.69,0.49 z m 302.73,0 -4.3,0.1 -4,0.24 -4,0.32 -3.8,0.57 -3.8,0.57 -3.6,0.81 -3.4,0.89 -3.4,1.13 -3.4,1.05 -3.1,1.38 -3.1,1.38 -2.9,1.7 -2.9,1.7 -2.7,1.86 -2.6,1.94 -2.4,2.19 -2.5,2.18 -2.2,2.35 -2.2,2.35 -1.9,2.51 -1.8,2.51 -1.6,2.75 -1.6,2.76 -1.2,2.91 -1.3,2.92 -1.1,3.07 -0.8,3.08 -0.8,3.24 -0.6,3.24 -0.4,3.48 -0.3,3.48 -0.1,3.65 0.1,3.56 0.4,3.56 0.6,3.4 0.8,3.4 1,3.24 1.2,3.24 1.4,3.16 1.6,3.08 1.8,2.75 1.9,2.83 2,2.76 2.3,2.83 2.2,2.67 2.4,2.67 2.5,2.59 2.7,2.67 5.4,4.7 5.8,4.7 5.7,4.62 6.1,4.52 6,4.3 5.9,4.45 5.6,4.45 5.5,4.62 2.6,2.19 2.5,2.26 2.4,2.35 2.3,2.43 2.1,2.43 2,2.51 2,2.51 1.8,2.59 1.5,2.51 1.4,2.67 1.1,2.67 1.1,2.83 0.7,2.76 0.6,2.91 0.4,3.01 0.2,3.07 -0.1,1.94 -0.2,2.03 -0.2,0.89 -0.1,0.97 -0.3,1.94 -0.5,1.78 -0.4,1.87 -0.7,1.78 -0.6,1.77 -0.8,1.63 -0.9,1.62 -1,1.54 -1,1.62 -1.2,1.45 -1.2,1.46 -1.3,1.38 -1.3,1.45 -1.6,1.22 -0.8,0.56 -0.8,0.65 -1.7,1.13 -1.6,1.14 -1.8,0.89 -1.7,0.97 -1.9,0.81 -1.9,0.81 h -0.3 l -0.2,0.1 -0.5,0.16 -1,0.33 -2,0.64 -2.1,0.49 -2.1,0.49 -2.3,0.32 -2.3,0.33 -2.3,0.16 -2.4,0.16 -4.2,-0.24 -4,-0.41 -3.9,-0.65 -3.7,-0.81 -3.6,-1.13 -3.4,-1.21 -3.3,-1.55 -3.2,-1.61 -3.1,-1.87 -3,-1.94 -6,-4.05 -2.9,-2.26 -2.7,-2.27 -5.5,-4.7 v 37.09 l 2.8,1.86 2.9,1.78 3,1.7 3.2,1.62 3.1,1.45 3.4,1.38 3.4,1.3 3.7,1.21 3.4,1.06 3.6,1.05 3.4,0.8 3.6,0.74 3.4,0.56 1.7,0.17 1.8,0.24 3.4,0.25 3.5,0.23 3,-0.16 1.5,-0.1 h 1.5 l 2.9,-0.25 1.5,-0.16 0.3,-0.1 h 0.4 0.8 l 2.8,-0.41 0.7,-0.16 0.3,-0.1 h 0.4 l 1.4,-0.15 2.8,-0.57 2.7,-0.49 2.6,-0.72 2.6,-0.73 2.5,-0.81 2.6,-0.81 2.5,-0.98 2.4,-0.97 2.3,-1.13 1.2,-0.56 1.2,-0.49 2.1,-1.3 2.2,-1.29 0.9,-0.73 1.1,-0.65 2.1,-1.29 0.9,-0.81 1,-0.73 1.9,-1.46 1.8,-1.54 1.9,-1.45 1.6,-1.71 1.7,-1.62 1.5,-1.78 1.6,-1.69 1.5,-1.87 1.5,-1.86 1.3,-1.95 0.7,-0.97 0.3,-0.49 0.2,-0.23 0.2,-0.17 1.1,-2.1 1.2,-2.03 0.9,-2.18 1,-2.11 1.7,-4.37 0.7,-2.27 0.4,-1.13 0.1,-0.57 0.3,-0.48 0.4,-2.35 0.6,-2.27 0.4,-2.43 0.2,-1.21 0.2,-1.14 0.5,-4.85 0.2,-2.51 0.1,-2.44 -0.3,-4.13 -0.4,-3.96 -0.6,-3.8 -0.8,-3.65 -1,-3.65 -1.1,-3.32 -1.5,-3.31 -1.5,-3 -1.8,-2.99 -1.9,-2.92 -2,-2.84 -2,-2.66 -2.4,-2.75 -2.3,-2.6 -2.5,-2.51 -2.6,-2.43 -5.5,-4.77 -5.7,-4.62 -5.9,-4.62 -6,-4.45 -5.9,-4.05 -5.8,-3.97 -5.6,-4.04 -5.3,-4.05 -2.8,-2.19 -2.5,-2.11 -2.5,-2.18 -2.3,-2.1 -2.2,-2.28 -2,-2.18 -3.8,-4.53 -0.9,-1.3 -0.8,-1.21 -1.4,-2.52 -1.2,-2.59 -0.9,-2.58 -0.8,-2.76 -0.5,-2.76 -0.4,-2.9 v -2.92 l 0.1,-3.56 0.5,-3.32 0.8,-3.16 1.1,-2.99 1.3,-2.92 1.8,-2.67 2,-2.59 2.4,-2.35 2.5,-2.27 1.3,-1.05 1.5,-0.89 3,-1.7 1.5,-0.74 1.7,-0.56 1.6,-0.65 1.8,-0.48 1.8,-0.41 1.9,-0.24 1.9,-0.32 2,-0.17 4.2,-0.1 3.8,0.1 3.8,0.41 3.6,0.56 3.6,0.89 3.4,1.06 3.3,1.38 3.2,1.61 3.2,1.87 3,1.86 3,2.02 2.8,2.03 2.8,2.27 2.5,2.18 2.4,2.43 2.3,2.43 2.2,2.59 h 0.8 v -39.43 l -2.9,-1.87 -2.8,-1.61 -3,-1.62 -2.9,-1.46 -3.2,-1.46 -3.1,-1.29 -3.1,-1.3 -3.2,-1.05 -3.3,-1.14 -3.2,-0.88 -3.3,-0.81 -3.4,-0.57 -3.5,-0.57 -3.4,-0.24 -3.6,-0.24 z m -594.4,4.12 62.16,125.38 -62.16,125.39 h 41.88 l 40.44,-103.62 40.43,103.62 h 41.89 L 618.89,258.8 681.06,133.42 H 639.17 L 598.74,237.04 558.3,133.42 Z m 327.22,0 v 184.53 l -0.1,3.89 0.25,3.8 0.32,3.73 0.56,3.72 0.57,3.49 0.82,3.48 0.89,3.32 1.21,3.31 1.13,3.08 1.38,3.08 1.54,2.92 1.7,2.91 1.78,2.67 2.02,2.67 2.11,2.51 2.35,2.52 2.35,2.18 2.67,2.11 2.83,1.94 3,1.87 2.99,1.69 3.33,1.54 3.48,1.38 3.65,1.37 3.63,1.06 3.98,1.05 3.96,0.88 4.29,0.74 4.3,0.56 4.61,0.41 4.7,0.25 4.94,0.23 2.35,-0.16 2.42,-0.1 2.27,-0.17 1.14,-0.1 h 1.21 l 1.06,-0.16 1.13,-0.1 2.27,-0.17 4.37,-0.56 0.97,-0.25 1.05,-0.16 2.11,-0.33 4.05,-0.88 0.89,-0.33 0.97,-0.24 1.94,-0.48 0.9,-0.33 0.96,-0.24 1.95,-0.49 0.81,-0.41 0.89,-0.31 1.78,-0.65 3.4,-1.38 1.54,-0.81 1.63,-0.73 0.73,-0.49 0.8,-0.4 1.62,-0.8 1.38,-0.98 1.45,-0.89 2.84,-1.94 2.59,-2.11 1.21,-1.13 1.3,-1.05 1.05,-1.31 1.14,-1.21 2.11,-2.59 1.94,-2.67 1.86,-2.75 1.71,-2.92 1.53,-2.91 1.37,-3.08 1.31,-3.08 0.52,-1.7 0.6,-1.61 0.9,-3.32 0.4,-1.79 0.1,-0.89 0.3,-0.81 0.3,-1.78 0.1,-0.89 0.3,-0.81 0.5,-3.64 0.4,-3.72 0.1,-1.94 0.1,-1.87 v -1.95 -0.96 -0.5 l 0.1,-0.4 V 133.42 h -37.45 v 157.41 l -0.1,4.21 -0.1,4.21 -0.16,4.13 -0.16,4.21 -0.32,3.97 -0.34,4.04 -0.48,3.97 -0.47,3.97 -0.41,1.78 -0.33,1.86 -0.24,0.81 -0.16,0.9 -0.41,1.78 -0.56,1.62 -0.5,1.7 -0.64,1.62 -0.32,0.8 -0.16,0.41 -0.1,0.48 -0.82,1.46 -0.24,0.33 -0.16,0.4 -0.32,0.81 -0.49,0.65 -0.24,0.32 -0.16,0.41 -0.81,1.45 -0.97,1.3 -0.98,1.38 -1.05,1.29 -0.98,1.38 -1.13,1.13 -1.13,1.13 -1.29,0.97 -1.3,0.98 -1.46,0.81 -1.46,0.89 -1.62,0.73 -1.62,0.72 -1.78,0.49 -1.78,0.57 -1.95,0.4 -0.97,0.16 -0.48,0.1 -0.41,0.16 -2.1,0.24 -2.1,0.25 -2.2,0.16 -2.18,0.16 -4.45,-0.32 -2.11,-0.25 -1.94,-0.24 -3.81,-0.81 -1.78,-0.57 -1.62,-0.49 -1.7,-0.72 -1.54,-0.73 -2.83,-1.7 -1.37,-0.98 -1.23,-0.97 -1.13,-1.13 -0.98,-1.13 -2.01,-2.67 -1.87,-2.68 -0.89,-1.45 -0.73,-1.38 -1.38,-3 -0.72,-1.69 -0.57,-1.62 -1.06,-3.32 -0.88,-3.49 -0.57,-3.64 -1.06,-7.94 -0.4,-4.04 -0.24,-3.97 -0.25,-4.21 -0.1,-4.13 -0.1,-4.21 0.1,-4.21 V 133.42 Z m -657.48,32.55 5.58,0.57 5.75,0.89 11.58,2.03 11.73,2.51 12.07,3.15 12.07,3.65 6.16,2.02 6.24,2.19 6.23,2.18 6.32,2.51 6.31,2.51 6.48,2.84 6.56,2.83 6.56,3 6.4,3 6.32,3.15 0.47,-0.87 v 1.1 l -0.16,6.39 -0.25,6.31 -0.24,3.07 -0.16,3.16 -0.49,6.15 -0.41,2.91 -0.32,3 -0.82,5.91 -0.48,2.84 -0.41,2.91 -1.05,5.66 -1.29,5.43 -0.42,1.29 -0.31,1.38 -0.65,2.75 -0.81,2.59 -0.41,1.29 -0.32,1.38 -1.54,5.17 -1.86,5.02 -0.97,2.43 -0.49,1.21 -0.41,1.29 -0.57,1.14 -0.49,1.21 -0.97,2.44 -1.13,2.34 -1.05,2.43 -2.43,4.45 -1.22,2.11 -1.13,2.1 -1.29,1.95 -1.21,1.94 -2.43,3.73 -1.38,1.62 -1.29,1.7 -2.59,3.08 -0.73,0.65 -0.65,0.73 -1.29,1.38 -0.41,0.25 -0.33,0.32 -0.65,0.65 -1.29,1.29 -2.92,2.1 -1.46,0.89 -1.37,0.97 -2.92,1.62 -2.91,1.38 -3.08,0.97 -3.08,0.73 -1.62,0.25 -0.81,0.1 -0.73,0.16 -1.62,0.1 h -0.82 -0.4 l -0.33,0.1 -3.32,-0.16 -3.16,-0.49 -3.15,-0.73 -3,-0.97 -2.99,-1.38 -2.92,-1.62 -2.83,-1.87 -2.75,-2.1 -2.83,-2.51 -2.67,-2.75 -2.68,-3.08 -2.51,-3.31 -2.51,-3.73 -2.43,-3.89 -2.43,-4.21 -2.27,-4.45 -2.35,-4.77 -2.02,-4.86 -1.94,-5.02 -1.7,-5.1 -1.7,-5.26 -1.46,-5.34 -1.37,-5.43 -1.14,-5.5 -1.13,-5.75 -0.88,-5.8 -0.81,-6 -0.56,-5.99 -0.57,-6.23 -0.32,-6.32 -0.25,-6.4 0.1,-6.47 -0.1,-5.1 0.17,-4.94 0.48,-9.63 0.33,-4.78 0.49,-4.61 0.48,-4.61 0.73,-4.46 z"></path></svg>