<?xml version="1.0"?>

<svg xmlns="http://www.w3.org/2000/svg" viewBox="0 0 390 112" height="112" width="390"> <path d="M 83.12,65.65 C 59.66,73.12 34.86,75.78 22.2,72.45 l 0,2.93 c 0,8.13 6.53,14.67 14.66,14.67 l 38.39,0 c 8,0 14.53,-6.54 14.53,-14.67 l 0,-11.99 c -2.13,0.8 -4.4,1.46 -6.66,2.26 m -12,-31.19 c 6.26,-1.33 12.13,-2.27 17.6,-2.8 -2.14,-5.6 -7.47,-9.6 -13.73,-9.6 l -38.39,0 c -8.14,0 -14.67,6.67 -14.67,14.67 l 0,16.66 C 32.33,46.06 50.99,38.73 71.12,34.46 m 210.78,23.19 0,22.13 -29,0 c -6,0 -10.9,-4.93 -10.9,-11.06 0,-6.13 4.9,-11.07 10.9,-11.07 l 29,0 z m -18.7,-35.32 -9.6,0 -6.3,10.26 15.9,0 c 8.8,0 16.5,6.27 18.3,14.8 l -28.6,0 c -11.7,0 -21.2,9.6 -21.2,21.33 0,11.73 9.5,21.33 21.2,21.33 l 39.2,0 0,-38.79 c 0,-16 -12.9,-28.93 -28.9,-28.93 m -36.8,0 -18.8,32.66 -18.6,-32.66 -12.8,0 24.9,43.86 -13.7,23.86 12.6,0 39.2,-67.72 -12.8,0 z m -81.7,11.06 26,0 -6.3,-11.06 -19.7,0 c -15.6,0 -28.3,12.8 -28.3,28.39 l 0,10.93 c 0,15.6 12.7,28.4 28.3,28.4 l 19.7,0 6.3,-11.07 -26,0 c -9.5,0 -17.2,-7.73 -17.2,-17.33 l 0,-10.93 c 0,-9.59 7.7,-17.33 17.2,-17.33 m 216.6,17.33 0,39.33 -11,0 0,-39.33 c 0,-9.59 -7.8,-17.33 -17.2,-17.33 l -17.4,0 0,56.66 -11,0 0,-67.72 28.4,0 c 15.6,0 28.2,12.8 28.2,28.39"></path></svg>