<?xml version="1.0"?>
<!--?xml version="1.0" encoding="UTF-8" standalone="no"?-->
<svg xmlns:dc="http://purl.org/dc/elements/1.1/" xmlns:cc="http://creativecommons.org/ns#" xmlns:rdf="http://www.w3.org/1999/02/22-rdf-syntax-ns#" xmlns:svg="http://www.w3.org/2000/svg" xmlns="http://www.w3.org/2000/svg" id="svg5241" version="1.2" viewBox="0 0 472.96999 111.98449" height="111.9845pt" width="472.97pt">
  <defs id="defs3786"></defs>
  <path id="path9659" d="m 329.49,65.2545 c 0,3.951 -0.82,5.943 -4.03,5.943 -5.19,0 -8.81,-4.206 -8.81,-11.221 v -5.976 c 0,-7.048 3.7,-11.263 8.81,-11.263 3.62,0 4.03,1.935 4.03,6.051 z m -2.55,-24.83 c -4.53,0 -7.91,1.992 -10.29,5.985 v -5.985 c -4.86,0.412 -10.05,0.576 -15.56,0.741 v 2.445 h 4.53 v 43.962 h -4.45 v 2.412 h 21.24 v -2.412 h -5.76 v -20.005 c 2.38,3.984 5.76,5.886 10.29,5.886 8.31,0 14.73,-7.105 14.73,-16.432 0,-9.649 -6.33,-16.597 -14.73,-16.597 m 97.47,-14.43994 c -2.96,-0.32926 -5.84,1.35014 -6.01,4.47034 0,2.6426 1.65,4.5361 3.87,4.6349 2.88,0.082 3.29,-2.2887 4,-2.3463 0.8,0 0.8,0.8315 0.8,2.6674 0,2.1236 -2.16,4.2396 -4.72,5.8206 v 2.379 c 4.82,-2.667 7.22,-5.82 7.62,-9.7144 0.9,-4.1492 -1.8,-7.45875 -5.39,-7.91154 M 266.18,72.4905 v -2.445 h -3.87 v -29.621 c -5.68,0.494 -11.19,0.741 -16.71,0.741 v 2.445 h 5.6 v 14.761 c 0,6.142 -3.95,11.419 -7.74,11.419 -2.31,0 -3.21,-1.35 -3.21,-4.248 v -25.118 c -4.86,0.494 -10.21,0.659 -16.05,0.741 v 2.445 h 5.18 v 20.582 c 0,2.634 0,4.569 1.32,6.075 1.56,1.993 4.28,3.022 7.9,3.022 5.77,0 9.63,-2.536 12.76,-8.134 v 7.878 c 5.11,-0.329 9.72,-0.494 14.82,-0.576 m 159.63,-11.517 h 2.06 c 1.8,6.849 5.8,10.356 11.4,10.356 4.7,0 7.6,-2.601 7.6,-5.656 0,-3.671 -3.5,-3.35 -10,-4.313 -7.5,-1.12 -11.14,-3.442 -11.14,-9.707 0,-6.948 4.44,-11.196 11.24,-11.196 2.8,0 5.5,0.741 7.6,1.836 l 1.7,-1.449 h 1.6 v 8.875 h -2.1 c -1.6,-4.89 -4.6,-7.327 -8.9,-7.327 -4.6,0 -7.4,2.058 -7.4,4.272 0,2.898 3.4,2.989 10.2,3.862 8,1.029 11.3,3.729 11.3,10.932 0,7.336 -4.5,11.929 -12.2,11.929 -3.7,0 -6.8,-0.93 -9,-2.601 l -2.2,1.737 h -1.92 v -11.55 m -34.83,29.044 c -3.29,0 -5.27,-1.77 -5.27,-4.89 0,-2.601 2.14,-4.692 4.86,-4.692 3.46,0 3.71,2.7 5.02,2.7 0.99,0 1.49,-0.823 2.06,-2.314 l 3.54,-8.207 -14.65,-28.971 h -3.46 v -2.445 h 19.18 v 2.445 h -3.95 l 7.9,16.852 5.85,-13.633 c 0,-0.494 0.82,-1.004 0.82,-1.77 0,-0.823 -0.82,-1.449 -2.14,-1.449 h -3.04 v -2.445 h 12.51 v 2.445 h -2.22 c -1.24,0 -2.06,0.659 -2.8,2.412 l -15.15,35.664 c -2.39,5.565 -5.11,8.298 -8.73,8.298 M 347.36,70.0455 V 25.1201 h -5.27 v -2.1898 c 5.76,0 11.19,-0.4117 16.38,-0.9303 v 26.5585 c 3.05,-5.491 6.83,-7.969 12.68,-7.969 7.57,0 9.22,3.177 9.22,9.969 v 19.487 h 4.61 v 2.445 h -19.6 v -2.445 h 4.2 v -21.899 c 0,-2.865 -0.98,-4.116 -3.29,-4.116 -3.79,0 -7.82,5.079 -7.82,11.254 v 14.761 h 4.03 v 2.445 h -19.92 v -2.445 h 4.78 m -78.96,0 h 4.2 v -26.435 h -4.28 v -2.445 c 4.94,-0.165 10.05,-0.247 15.07,-0.741 v 8.521 c 2.14,-5.401 5.84,-8.356 9.71,-8.356 4.04,0 7,2.799 7,6.462 0,3.277 -2.31,5.722 -5.68,5.722 -2.8,0 -5.1,-2.28 -5.1,-5.335 0,-1.515 0.98,-2.157 0.98,-2.931 0,-0.247 0,-0.494 -0.82,-0.494 -1.89,0 -6.01,5.5 -6.01,11.962 v 14.053 h 5.76 v 2.446 h -20.99 v -2.446 m -104.31,0.017 h 3.13 c 2.06,0 3.13,-1.482 3.13,-3.96 V 25.3753 h -6.26 v -2.445 h 21.82 l 9.06,27.6282 9.71,-27.6282 h 20.83 v 2.445 h -6.26 v 44.6702 h 6.26 v 2.445 h -26.1 v -2.544 h 7.08 v -43.92901 0 L 190.94,72.4905 h -2.72 L 173.07,25.54 v 40.3235 c 0,3.021 0.99,4.182 3.79,4.182 h 3.46 v 2.445 H 164.1 v -2.445 m -44.38,0 v -26.435 h -5.27 v -2.445 c 5.19,0 10.54,-0.165 16.22,-0.576 v 7.911 c 3.05,-5.499 6.92,-8.01 12.76,-8.01 8.32,0 9.22,3.861 9.22,11.353 v 18.169 h 4.61 v 2.445 h -19.51 v -2.445 h 4.12 v -21.932 c 0,-2.865 -0.99,-4.248 -3.29,-4.248 -3.71,0 -7.82,5.212 -7.82,11.353 v 14.827 h 4.03 v 2.445 h -19.84 v -2.445 h 4.77 M 98.73,56.5685 c -6.26,0 -8.73,1.515 -8.73,6.076 0,4.38 1.16,6.273 4.37,6.273 3.04,0 5.27,-2.124 5.27,-5.623 v -6.726 z m -10.87,16.754 c -5.43,0 -8.39,-2.857 -8.39,-7.813 0,-6.463 7.24,-11.098 20.17,-11.098 v -7.582 c 0,-3.252 -0.91,-4.314 -5.36,-4.314 -2.71,0 -4.03,0.659 -4.03,1.836 0,0.823 1.4,1.926 1.4,4.182 0,3.022 -1.89,4.693 -5.35,4.693 -3.05,0 -4.69,-1.77 -4.69,-4.89 0,-4.924 5.18,-7.879 14.73,-7.879 4.53,0 7.91,0.741 9.88,1.737 3.13,1.605 3.3,3.606 3.3,7.269 v 15.98 c 0,2.19 0.9,4.701 2.88,4.701 0,0 0,3.178 -5.11,3.178 -3.46,0 -6.25,-1.993 -7.41,-5.434 -3.13,3.828 -6.83,5.434 -12.02,5.434 M 48.1,70.0455 c 4.69,0 7.74,-0.412 9.96,-3.087 2.72,-3.376 3.21,-7.722 3.21,-16.046 v -3.638 c 0,-8.488 0,-13.4443 -2.22,-17.1736 -2.22,-4.14927 -5.43,-4.6926 -10.95,-4.6926 h -6.59 v 44.6372 z m -19.76,0 V 25.4083 H 22 v -2.478 h 26.68 c 6.91,0 12.35,1.1937 17.2,4.70078 6.34,4.52792 10.21,11.41042 10.21,20.25242 0,8.85 -3.95,15.535 -10.45,20.17 -4.37,3.12 -10.05,4.437 -17.29,4.437 H 22 v -2.445 h 6.34"></path>
  <metadata id="metadata9723">
    <rdf:rdf>
      <cc:work rdf:about="">
        <dc:title></dc:title>
      </cc:work>
    </rdf:rdf>
  </metadata>
</svg>
