<?xml version="1.0"?>

<!-- Created with Inkscape (http://www.inkscape.org/) -->

<svg xmlns="http://www.w3.org/2000/svg" width="329.08" height="84.387" viewBox="0 0 329.08 84.387"> <path d="m 50.376,47.808 c 6.898,7.425 12.99,11.758 19.89,7.953 l 0,0 C 81.594,49.513 84.338,27.82 101.11,22.859 l 0,0 C 99.122,22.269 97.136,22 95.162,22 l 0,0 C 78.653,22 62.943,40.805 50.376,47.808 M 22,32.639 c 12.581,1.762 6.507,18.359 18.557,21.929 l 0,0 c 3.429,0.999 7.446,-0.216 11.524,-2.489 l 0,0 c -0.864,-0.723 -1.687,-1.51 -2.453,-2.392 l 0,0 C 47.317,47.045 44.867,44.104 42.26,41.064 l 0,0 C 35.646,33.304 30.07,31.603 26.453,31.603 l 0,0 C 23.63,31.603 22,32.639 22,32.639 m 281.94,16.03 -12.25,0 0,13.011 -3.17,0 0,-27.924 3.17,0 0,11.994 12.25,0 0,-11.994 3.14,0 0,27.924 -3.14,0 0,-13.011 z M 272,36.261 c -5.46,0 -9.42,5.488 -9.42,11.428 0,6.018 3.94,11.446 9.42,11.446 4.65,0 7.26,-3.784 8.23,-5.782 l 2.9,0 c -1.68,4.897 -5.85,9.034 -11.13,9.034 -6.66,0 -12.09,-6.585 -12.09,-14.698 0,-8.074 5.43,-14.68 12.09,-14.68 5.28,0 9.43,4.153 11.13,9.053 l -2.86,0 c -1.13,-2.037 -3.54,-5.801 -8.27,-5.801 m -33.57,-2.505 16.4,0 0,2.919 -13.28,0 0,9.074 12.95,0 0,2.92 -12.95,0 0,10.133 13.6,0 0,2.878 -16.72,0 0,-27.924 z m -12.19,27.924 -3.1,0 0,-25.004 -6.91,0 0,-2.92 16.93,0 0,2.92 -6.92,0 0,25.004 z m -57.2,-4.506 c -1.31,0 -2.39,-0.548 -2.39,-2.334 l 0,-15.518 c 0,-1.726 1.08,-2.254 2.39,-2.254 1.29,0 2.37,0.528 2.37,2.254 l 0,15.518 c 0,1.786 -1.08,2.334 -2.37,2.334 m 7.04,-23.244 c -1.22,-0.666 -2.81,-1.055 -4.67,-1.234 -0.67,-0.08 -1.43,-0.1 -2.19,-0.1 -0.92,0 -1.77,0.02 -2.57,0.117 -2.16,0.236 -3.78,0.784 -4.84,1.649 -1.49,1.194 -2.23,2.915 -2.23,5.074 l 0,15.343 c 0,2.156 0.74,3.862 2.23,5.076 1.06,0.844 2.68,1.412 4.84,1.628 0.8,0.1 1.65,0.154 2.57,0.154 0.76,0 1.52,-0.06 2.19,-0.118 1.86,-0.174 3.45,-0.584 4.67,-1.234 1.7,-0.901 2.54,-2.603 2.54,-5.075 l 0,-16.224 c 0,-2.452 -0.84,-4.174 -2.54,-5.059 m 31.31,-0.504 -4.8,0 -2.18,0 -0.1,0 0,21.417 c 0,1.786 -1.06,2.334 -2.4,2.334 -1.29,0 -2.36,-0.548 -2.36,-2.334 l 0,-21.417 -6.9,0 -0.18,0 0,0.195 0,21.165 c 0,2.156 0.74,3.861 2.22,5.075 1.47,1.157 3.97,1.782 7.42,1.782 2.86,0 5.18,-0.451 6.86,-1.351 1.69,-0.902 2.53,-2.604 2.53,-5.075 l 0,-21.596 0,-0.195 -0.16,0 z m -61.43,0 -9.05,0 -6.17,27.965 6.36,0 4.2,-23.243 3.05,23.243 7.17,0 -5.56,-27.965 z m -30.75,13.228 0,1.449 0,0.646 c 0,1.51 0,2.785 -0.15,3.861 0,0.512 -0.1,0.962 -0.1,1.291 -0.12,0.942 -0.37,1.689 -0.71,2.217 -0.24,0.393 -0.67,0.605 -1.21,0.726 -0.1,0.02 -0.2,0.04 -0.3,0.04 l -0.2,0 -1.82,0 0,0 0,-0.158 0,-18.713 0,-0.138 0,0 1.82,0 0.2,0 c 0.1,0 0.2,0.02 0.3,0.06 0.54,0.1 0.97,0.313 1.21,0.707 0.34,0.511 0.59,1.254 0.71,2.211 0,0.334 0.1,0.764 0.1,1.296 0.11,1.073 0.15,2.348 0.15,3.858 l 0,0.646 z m 6.92,-6.959 c -0.38,-1.312 -0.9,-2.427 -1.57,-3.31 -0.32,-0.434 -0.73,-0.823 -1.16,-1.156 -1.47,-1.198 -3.44,-1.803 -6.01,-1.803 l -1.57,0 -8.53,0 -0.18,0 0,0.195 0,27.592 0,0.178 0.18,0 8.53,0 1.57,0 c 2.57,0 4.54,-0.629 6.01,-1.802 0.43,-0.337 0.84,-0.727 1.16,-1.157 0.67,-0.865 1.19,-1.977 1.57,-3.293 0.45,-1.607 0.66,-3.488 0.66,-5.684 l 0,-0.979 0,-2.135 0,-0.941 c 0,-2.197 -0.21,-4.097 -0.66,-5.705"></path> </svg>