<?xml version="1.0"?>

<!-- Generator: Adobe Illustrator 19.1.0, SVG Export Plug-In . SVG Version: 6.00 Build 0)  -->
<svg version="1.1" id="Layer_1" xmlns="http://www.w3.org/2000/svg" xmlns:xlink="http://www.w3.org/1999/xlink" x="0px" y="0px" width="566.9px" height="198.1px" viewBox="-356 221.9 566.9 198.1" style="enable-background:new -356 221.9 566.9 198.1;" xml:space="preserve">

<path d="M-249.4,330.1v-3.3c-1.6,2.6-4,3.8-7.1,3.8c-2,0-3.9-0.6-5.6-1.7s-3-2.7-4-4.8c-0.9-2-1.4-4.4-1.4-7s0.4-4.9,1.3-7
	s2.1-3.7,3.8-4.8c1.7-1.1,3.6-1.7,5.7-1.7c1.5,0,2.9,0.3,4.1,1c1.2,0.7,2.2,1.5,2.9,2.6v-12.9h4.3V330L-249.4,330.1L-249.4,330.1z
	 M-263.1,317.2c0,3.3,0.7,5.8,2.1,7.4s3,2.5,4.9,2.5s3.5-0.8,4.8-2.4s2-3.9,2-7.2c0-3.5-0.7-6.1-2-7.8c-1.3-1.6-3-2.5-5-2.5
	c-1.9,0-3.5,0.8-4.8,2.4C-262.5,311.2-263.1,313.7-263.1,317.2z M-221.8,326.8c-1.6,1.4-3.1,2.4-4.6,2.9c-1.5,0.6-3.1,0.9-4.8,0.9
	c-2.8,0-5-0.7-6.5-2.1s-2.3-3.1-2.3-5.3c0-1.3,0.3-2.4,0.9-3.5c0.6-1,1.3-1.9,2.2-2.5s2-1.1,3.1-1.4c0.9-0.2,2.2-0.5,3.9-0.7
	c3.5-0.4,6.1-0.9,7.7-1.5c0-0.6,0-1,0-1.1c0-1.8-0.4-3-1.2-3.8c-1.1-1-2.7-1.5-4.9-1.5c-2,0-3.5,0.4-4.5,1.1s-1.7,2-2.2,3.9
	l-4.2-0.6c0.4-1.8,1-3.3,1.9-4.5s2.2-2,3.9-2.6s3.6-0.9,5.8-0.9s4,0.3,5.3,0.8c1.4,0.5,2.4,1.2,3,2c0.7,0.8,1.1,1.8,1.4,3
	c0.1,0.7,0.2,2.1,0.2,4v5.8c0,4.1,0.1,6.6,0.3,7.7s0.5,2.1,1,3.1h-4.5C-221.4,329.2-221.7,328.1-221.8,326.8L-221.8,326.8z
	 M-222.2,317.1c-1.6,0.7-3.9,1.2-7.1,1.6c-1.8,0.3-3.1,0.5-3.8,0.9c-0.7,0.3-1.3,0.8-1.7,1.4s-0.6,1.3-0.6,2.1
	c0,1.2,0.4,2.1,1.3,2.9c0.9,0.8,2.2,1.2,3.9,1.2s3.1-0.4,4.5-1.1c1.3-0.7,2.3-1.7,2.9-3c0.5-1,0.7-2.4,0.7-4.4L-222.2,317.1
	L-222.2,317.1z M-201.8,326.2l0.6,3.9c-1.2,0.3-2.3,0.4-3.3,0.4c-1.6,0-2.8-0.3-3.7-0.8s-1.5-1.2-1.8-2s-0.5-2.6-0.5-5.2v-14.9h-3.2
	v-3.4h3.2v-6.4l4.3-2.6v9h4.3v3.4h-4.3v15.2c0,1.2,0.1,2.1,0.2,2.4c0.1,0.4,0.4,0.7,0.7,0.9c0.3,0.2,0.9,0.3,1.5,0.3
	C-203.2,326.3-202.5,326.3-201.8,326.2z M-180.8,326.8c-1.6,1.4-3.1,2.4-4.6,2.9c-1.5,0.6-3.1,0.9-4.8,0.9c-2.8,0-5-0.7-6.5-2.1
	s-2.3-3.1-2.3-5.3c0-1.3,0.3-2.4,0.9-3.5c0.6-1,1.3-1.9,2.2-2.5s2-1.1,3.1-1.4c0.9-0.2,2.2-0.5,3.9-0.7c3.5-0.4,6.1-0.9,7.7-1.5
	c0-0.6,0-1,0-1.1c0-1.8-0.4-3-1.2-3.8c-1.1-1-2.7-1.5-4.9-1.5c-2,0-3.5,0.4-4.5,1.1s-1.7,2-2.2,3.9l-4.2-0.6c0.4-1.8,1-3.3,1.9-4.5
	c0.9-1.1,2.2-2,3.9-2.6s3.6-0.9,5.8-0.9s4,0.3,5.3,0.8c1.4,0.5,2.4,1.2,3,2c0.7,0.8,1.1,1.8,1.4,3c0.1,0.7,0.2,2.1,0.2,4v5.8
	c0,4.1,0.1,6.6,0.3,7.7s0.5,2.1,1,3.1h-4.5C-180.3,329.2-180.6,328.2-180.8,326.8L-180.8,326.8z M-181.1,317.1
	c-1.6,0.7-3.9,1.2-7.1,1.6c-1.8,0.3-3.1,0.5-3.8,0.9c-0.7,0.3-1.3,0.8-1.7,1.4s-0.6,1.3-0.6,2.1c0,1.2,0.4,2.1,1.3,2.9
	c0.9,0.8,2.2,1.2,3.9,1.2s3.1-0.4,4.5-1.1s2.3-1.7,2.9-3c0.5-1,0.7-2.4,0.7-4.4L-181.1,317.1L-181.1,317.1z"></path>
<path d="M61.1,282.8c2.8-2.5,6.1-4.6,10-6.2c6.5-2.7,13.7-4.1,21.7-4.1c9,0.2,16.6,1.7,23.3,4.5v-12.1H51.4
	c3.8,4.5,6.8,9.7,8.9,15.6C60.6,281.3,60.8,282,61.1,282.8z"></path>
<path d="M-72,307.2c-2,0-3.7,0.7-5,2c-1.4,1.4-2.1,3.2-2.2,5.5H-65c-0.2-2.2-0.7-3.8-1.6-4.9C-68,308.1-69.7,307.2-72,307.2z"></path>
<path d="M90.9,338.4c-10.9-2.6-18.5-5.1-22.8-7.4c-1.7-0.9-3.3-1.9-4.7-2.9c-0.4,2-0.9,3.9-1.4,5.7c-2.1,7.1-4.8,13-8.1,17.6
	c-0.7,1-1.5,2-2.3,3l10-0.9c0.7,6,2.3,10.8,4.9,14.7c0.6,0.9,1.2,1.6,1.9,2.4h-18c-1.6-3.6-2.6-7.4-3.2-11.4
	c-1.3,1.2-2.7,2.3-4.1,3.3c-3.9,2.7-8.6,4.7-14.1,6.1c-4.7,1.2-10.1,1.8-16,2v-14.3c5.6-0.3,10.1-1,13.5-2.1c4.4-1.5,8-3.6,10.6-6.3
	c3.7-3.8,6.6-8.9,8.6-15.4c2.1-6.4,3.1-14.2,3.1-23.4c0-12.7-2-22.4-6.1-29.3c-4.1-6.8-9-11.4-14.8-13.7c-1.2-0.4-2.6-0.8-4.1-1.2
	h-200.6v105.8h292.9v-24.6c-1.2-0.7-2.6-1.2-4.1-1.9C108.8,343,101.8,341.1,90.9,338.4z M-152.2,326.4c-0.9,1.3-2.1,2.3-3.7,3
	c-1.6,0.7-3.4,1-5.4,1c-3.3,0-5.8-0.7-7.6-2.1c-1.3-1.2-2.4-3.3-2.9-6l4.3-0.7c0.2,1.7,0.9,3.1,2,4c1.1,0.9,2.6,1.4,4.6,1.4
	s3.5-0.4,4.5-1.2s1.4-1.8,1.4-2.9c0-1-0.4-1.8-1.3-2.3c-0.6-0.4-2.1-0.9-4.4-1.5c-3.2-0.8-5.4-1.5-6.6-2.1c-1.2-0.6-2.2-1.4-2.8-2.5
	c-0.6-1-1-2.2-1-3.5c0-1.2,0.3-2.2,0.8-3.2s1.2-1.8,2.1-2.4c0.7-0.5,1.6-0.9,2.7-1.3c1.1-0.4,2.4-0.5,3.7-0.5c2,0,3.8,0.3,5.3,0.9
	c1.5,0.6,2.6,1.4,3.3,2.4c0.7,1,1.2,2.4,1.5,4l-4.2,0.6c-0.2-1.4-0.7-2.4-1.7-3.2c-0.9-0.8-2.2-1.1-3.9-1.1c-2,0-3.4,0.3-4.3,1
	c-0.9,0.7-1.3,1.4-1.3,2.3c0,0.6,0.2,1.1,0.5,1.5c0.3,0.5,0.9,0.9,1.6,1.2c0.4,0.2,1.7,0.5,3.8,1.1c3.1,0.8,5.2,1.5,6.4,2
	s2.2,1.3,2.9,2.3c0.7,1,1,2.3,1,3.7C-150.9,323.7-151.3,325.1-152.2,326.4z M-134.3,330.5c-1,2.8-1.8,4.8-2.4,5.9
	c-0.8,1.4-1.6,2.5-2.7,3.2c-1,0.7-2.2,1-3.6,1c-0.7,0-1.6-0.2-2.6-0.6l-0.5-4.1c1,0.3,1.8,0.4,2.5,0.4c1,0,1.7-0.2,2.3-0.5
	c0.6-0.3,1-0.8,1.4-1.4c0.3-0.5,0.7-1.5,1.3-3.3c0.1-0.3,0.2-0.6,0.4-1.1l-9.7-26h4.6l5.3,15c0.7,1.9,1.3,3.9,1.9,6
	c0.5-2,1.1-3.9,1.8-5.8l5.4-15.1h4.3L-134.3,330.5z M-102.9,326.4c-0.9,1.3-2.1,2.3-3.7,3c-1.6,0.7-3.4,1-5.4,1
	c-3.3,0-5.8-0.7-7.6-2.1c-1.3-1.2-2.4-3.3-2.9-6l4.3-0.7c0.2,1.7,0.9,3.1,2,4c1.1,0.9,2.6,1.4,4.6,1.4s3.5-0.4,4.5-1.2
	s1.4-1.8,1.4-2.9c0-1-0.4-1.8-1.3-2.3c-0.6-0.4-2.1-0.9-4.4-1.5c-3.2-0.8-5.4-1.5-6.6-2.1c-1.2-0.6-2.2-1.4-2.8-2.5
	c-0.6-1-1-2.2-1-3.5c0-1.2,0.3-2.2,0.8-3.2s1.2-1.8,2.1-2.4c0.7-0.5,1.6-0.9,2.7-1.3c1.2-0.3,2.4-0.5,3.7-0.5c2,0,3.8,0.3,5.3,0.9
	c1.5,0.6,2.6,1.4,3.3,2.4c0.7,1,1.2,2.4,1.5,4l-4.2,0.6c-0.2-1.4-0.7-2.4-1.7-3.2c-0.9-0.8-2.2-1.1-3.9-1.1c-2,0-3.4,0.3-4.3,1
	s-1.3,1.4-1.3,2.3c0,0.6,0.2,1.1,0.5,1.5c0.3,0.5,0.9,0.9,1.6,1.2c0.4,0.2,1.7,0.5,3.8,1.1c3.1,0.8,5.2,1.5,6.4,2s2.2,1.3,2.9,2.3
	c0.7,1,1,2.3,1,3.7C-101.6,323.7-102,325.1-102.9,326.4z M-89.5,330.5c-1.6,0-2.8-0.3-3.7-0.8c-0.9-0.5-1.5-1.2-1.8-2
	s-0.5-2.6-0.5-5.2v-14.9h-3.2v-3.4h3.2v-6.4l4.3-2.6v9h4.3v3.4h-4.3v15.2c0,1.2,0.1,2.1,0.2,2.4c0.1,0.4,0.4,0.7,0.7,0.9
	c0.3,0.2,0.9,0.3,1.5,0.3c0.6-0.1,1.2-0.1,2-0.2l0.6,3.9C-87.4,330.4-88.5,330.5-89.5,330.5z M-60.5,318.3h-19c0.2,2.8,1,5,2.4,6.5
	c1.4,1.5,3.2,2.3,5.3,2.3c1.6,0,2.9-0.4,4.1-1.3c1.1-0.9,2-2.3,2.6-4.1l4.5,0.6c-0.7,2.6-2,4.7-3.9,6.2c-1.9,1.4-4.3,2.2-7.3,2.2
	c-3.7,0-6.7-1.2-8.9-3.5s-3.3-5.6-3.3-9.8c0-4.3,1.1-7.7,3.3-10.1c2.2-2.4,5.1-3.6,8.6-3.6c3.4,0,6.2,1.2,8.4,3.5
	c2.2,2.4,3.2,5.7,3.2,9.9C-60.5,317.4-60.5,317.8-60.5,318.3z M-20.4,330.1h-4.3v-16.3c0-1.8-0.1-3-0.4-3.8
	c-0.3-0.8-0.8-1.4-1.5-1.9c-0.7-0.5-1.6-0.7-2.6-0.7c-1.8,0-3.3,0.6-4.5,1.8s-1.8,3.1-1.8,5.8v15.1h-4.3v-16.8c0-2-0.3-3.4-1-4.4
	s-1.9-1.5-3.5-1.5c-1.2,0-2.4,0.3-3.4,1s-1.8,1.6-2.2,2.9c-0.5,1.2-0.7,3.1-0.7,5.4v13.4h-4.5v-25.9h3.9v3.7
	c0.8-1.3,1.9-2.3,3.2-3.1c1.3-0.8,2.8-1.2,4.5-1.2c1.9,0,3.4,0.4,4.6,1.2c1.2,0.8,2.1,1.9,2.6,3.3c2-3,4.7-4.5,7.9-4.5
	c2.6,0,4.5,0.7,5.9,2.1c1.4,1.4,2.1,3.6,2.1,6.6V330.1z M3.8,326.4c-0.9,1.3-2.1,2.3-3.7,3c-1.6,0.7-3.4,1-5.4,1
	c-3.3,0-5.8-0.7-7.6-2.1c-1.3-1.2-2.4-3.3-2.9-6l4.3-0.7c0.2,1.7,0.9,3.1,2,4c1.1,0.9,2.6,1.4,4.6,1.4s3.5-0.4,4.5-1.2
	S1,324,1,322.9c0-1-0.4-1.8-1.3-2.3c-0.6-0.4-2.1-0.9-4.4-1.5c-3.2-0.8-5.4-1.5-6.6-2.1c-1.2-0.6-2.2-1.4-2.8-2.5
	c-0.6-1-1-2.2-1-3.5c0-1.2,0.3-2.2,0.8-3.2s1.2-1.8,2.1-2.4c0.7-0.5,1.6-0.9,2.7-1.3c1.1-0.4,2.4-0.5,3.7-0.5c2,0,3.8,0.3,5.3,0.9
	c1.5,0.6,2.6,1.4,3.3,2.4s1.2,2.4,1.5,4l-4.2,0.6c-0.2-1.4-0.7-2.4-1.7-3.2c-0.9-0.8-2.2-1.1-3.9-1.1c-2,0-3.4,0.3-4.3,1
	c-0.9,0.7-1.3,1.4-1.3,2.3c0,0.6,0.2,1.1,0.5,1.5c0.3,0.5,0.9,0.9,1.6,1.2c0.4,0.2,1.7,0.5,3.8,1.1c3.1,0.8,5.2,1.5,6.4,2
	s2.2,1.3,2.9,2.3c0.7,1,1,2.3,1,3.7C5.1,323.7,4.7,325.1,3.8,326.4z"></path>
<path d="M114.2,292.3c-4.6-3.8-11.5-5.7-20.6-5.7c-9.5,0-16.4,1.7-20.7,5.2c-4.3,3.5-6.5,7.7-6.5,12.6c0,4.3,1.5,7.7,4.6,10.5
	c3,2.7,10.9,5.6,23.6,8.4c9.3,2.2,16.5,4.1,21.5,5.7v-34.9C115.5,293.5,114.9,292.8,114.2,292.3z"></path>
<path class="st0" d="M-618.3,725.2l2-0.2c0.1,0.8,0.3,1.4,0.7,2c0.3,0.5,0.9,0.9,1.6,1.2c0.7,0.3,1.5,0.5,2.4,0.5
	c0.8,0,1.5-0.1,2.1-0.4c0.6-0.2,1.1-0.6,1.4-1s0.5-0.9,0.5-1.4s-0.1-0.9-0.4-1.3c-0.3-0.4-0.8-0.7-1.4-0.9c-0.4-0.2-1.4-0.4-2.8-0.8
	c-1.5-0.3-2.5-0.7-3.1-1c-0.8-0.4-1.3-0.9-1.7-1.5c-0.4-0.6-0.6-1.2-0.6-2s0.2-1.6,0.7-2.3s1.1-1.2,2-1.6c0.9-0.4,1.8-0.5,2.9-0.5
	c1.2,0,2.2,0.2,3.1,0.6c0.9,0.4,1.6,0.9,2.1,1.7c0.5,0.7,0.7,1.6,0.8,2.5l-2,0.1c-0.1-1-0.5-1.8-1.1-2.3c-0.6-0.5-1.6-0.8-2.8-0.8
	c-1.3,0-2.2,0.2-2.8,0.7s-0.9,1-0.9,1.7c0,0.6,0.2,1,0.6,1.4s1.5,0.7,3.2,1.1c1.7,0.4,2.9,0.7,3.5,1c0.9,0.4,1.6,1,2,1.6
	c0.5,0.7,0.7,1.4,0.7,2.3s-0.2,1.6-0.7,2.4c-0.5,0.7-1.2,1.3-2.1,1.8c-0.9,0.4-1.9,0.6-3.1,0.6c-1.4,0-2.6-0.2-3.6-0.6
	c-1-0.4-1.7-1-2.3-1.9C-618.1,727.2-618.4,726.3-618.3,725.2L-618.3,725.2z"></path>
<path id="_x31_" class="st0" d="M-553.3,730.3l6.1-15.9h2.3l6.5,15.9h-2.4l-1.8-4.8h-6.7l-1.7,4.8H-553.3z M-548.7,723.7h5.4
	l-1.7-4.4c-0.5-1.3-0.9-2.4-1.1-3.3c-0.2,1-0.5,2.1-0.9,3.1L-548.7,723.7L-548.7,723.7z"></path>
<path class="st0" d="M-485.4,730.3v-15.9h11.5v1.9h-9.4v4.9h8.8v1.8h-8.8v5.4h9.8v1.8h-11.9V730.3z"></path>
<path class="st0" d="M-408,724.7l2.1,0.5c-0.5,1.7-1.2,3-2.4,3.9c-1.1,0.9-2.6,1.4-4.2,1.4c-1.7,0-3.1-0.3-4.2-1
	c-1.1-0.7-1.9-1.7-2.4-3c-0.6-1.3-0.9-2.7-0.9-4.3s0.3-3.1,0.9-4.3c0.6-1.2,1.5-2.2,2.7-2.8c1.2-0.7,2.4-1,3.9-1
	c1.6,0,2.9,0.4,4,1.2c1.1,0.8,1.8,2,2.3,3.4l-2.1,0.5c-0.4-1.2-0.9-2-1.6-2.5c-0.7-0.5-1.6-0.8-2.6-0.8c-1.2,0-2.2,0.3-3.1,0.9
	c-0.9,0.6-1.4,1.4-1.7,2.4c-0.3,1-0.5,2-0.5,3.1c0,1.4,0.2,2.5,0.6,3.5c0.4,1,1,1.8,1.8,2.3c0.8,0.5,1.7,0.7,2.7,0.7
	c1.2,0,2.2-0.3,3-1C-408.8,727-408.3,726-408,724.7L-408,724.7z"></path>
<path id="_x34_" class="st0" d="M-353.7,730.3l6.1-15.9h2.3l6.5,15.9h-2.4l-1.8-4.8h-6.8l-1.7,4.8H-353.7z M-349.2,723.7h5.4
	l-1.7-4.4c-0.5-1.3-0.9-2.4-1.1-3.3c-0.2,1-0.5,2.1-0.9,3.1L-349.2,723.7L-349.2,723.7z"></path>
</svg>
