<?xml version="1.0"?>

<!-- Generator: Adobe Illustrator 19.1.0, SVG Export Plug-In . SVG Version: 6.00 Build 0)  -->
<svg version="1.1" id="Layer_1" xmlns="http://www.w3.org/2000/svg" xmlns:xlink="http://www.w3.org/1999/xlink" x="0px" y="0px" width="600px" height="400px" viewBox="0 0 600 400" enable-background="new 0 0 600 400" xml:space="preserve">
<path fill="#2E2A25" d="M391.008,158.143c0.435,0.042,0.87,0.119,1.306,0.12c3.838,0.007,7.677,0.002,11.515-0.004
	c0.377-0.001,0.754-0.019,1.129-0.051c0.278-0.024,0.473-0.188,0.49-0.473c0.034-0.564,0.056-1.13,0.056-1.695
	c0-6.041-0.007-12.082-0.009-18.122c0-0.503,0.011-1.006,0.031-1.509c0.015-0.372,0.247-0.574,0.595-0.6
	c0.438-0.034,0.88-0.027,1.32-0.027c15.92-0.006,31.84-0.014,47.76-0.012c1.128,0,2.256,0.065,3.387,0.242
	c-1.541,0.187-3.085,0.354-4.624,0.564c-4.566,0.624-9.019,1.695-13.284,3.466c-8.11,3.368-14.674,8.7-19.846,15.761
	c-4.6,6.28-7.636,13.272-9.331,20.857c-0.109,0.489-0.239,0.981-0.124,1.49c-0.42,1.136-0.492,2.343-0.61,3.521
	c-1.497,14.94,2.453,28.303,12.017,39.862c6.663,8.054,15.258,13.167,25.457,15.544c3.064,0.714,6.169,1.167,9.294,1.494
	c-0.005,0.15-0.01,0.301-0.015,0.451c-2.015-0.01-4.03-0.028-6.045-0.029c-17.131-0.008-34.262-0.011-51.392-0.023
	c-2.593-0.002-2.276,0.282-2.281-2.346c-0.013-6.928-0.01-13.856-0.009-20.784c0-1.821,0.05-1.71-1.781-1.71
	c-12.281-0.003-24.563-0.001-36.844-0.013c-2.552-0.003-2.23,0.306-2.243-2.168c-0.017-3.275-0.006-6.55-0.005-9.825
	c0-0.441-0.01-0.883,0.019-1.322c0.022-0.348,0.21-0.589,0.589-0.6c0.566-0.017,1.133-0.026,1.699-0.026
	c12.092-0.005,24.185-0.003,36.277-0.017c2.627-0.003,2.273,0.302,2.278-2.329c0.013-6.739-0.001-13.478-0.005-20.217
	c0-0.504-0.007-1.007-0.02-1.511c-0.009-0.368-0.212-0.577-0.576-0.593c-0.503-0.021-1.007-0.025-1.51-0.025
	c-21.665-0.009-43.331-0.017-64.996-0.025c-0.252,0-0.504-0.005-0.756,0.001c-1.168,0.029-1.193,0.049-1.216,1.138
	c-0.011,0.504-0.003,1.008-0.003,1.512c0.001,19.524,0.004,39.048-0.001,58.572c-0.001,2.606,0.274,2.272-2.338,2.286
	c-2.834,0.016-5.668,0.006-8.502,0.004c-0.44,0-0.883,0-1.321-0.037c-0.268-0.022-0.475-0.208-0.496-0.478
	c-0.044-0.563-0.059-1.129-0.059-1.694c-0.003-6.802,0.001-13.604,0-20.406c0-2.565,0.152-2.226-2.216-2.232
	c-5.353-0.014-10.707-0.001-16.06-0.004c-1.701-0.001-3.402-0.027-5.074-0.405c-0.122-0.028-0.249-0.036-0.373-0.059
	c-3.182-0.59-5.201-2.383-5.816-5.626c-0.234-1.237-0.499-2.47-0.528-3.735c-0.03-1.322-0.076-2.644-0.077-3.966
	c-0.006-7.495,0-14.989,0.001-22.484c0-0.504,0.012-1.008-0.007-1.511c-0.027-0.722-0.153-0.836-0.91-0.873
	c-0.251-0.012-0.504-0.005-0.756-0.005c-8.188,0.002-16.375,0.005-24.562,0.005c-1.758,0-1.657-0.051-1.656,1.63
	c0.007,9.069-0.006,18.139,0.029,27.208c0.019,4.993,0.601,9.925,1.911,14.753c0.678,2.498,1.626,4.892,2.89,7.159
	c2.861,5.132,7.159,8.529,12.638,10.501c1.481,0.533,2.99,0.973,4.543,1.253c1.542,0.277,3.082,0.57,5.048,0.934
	c-1.284,0.035-2.148,0.078-3.011,0.078c-9.321,0.007-18.642,0.008-27.963,0.011c-0.063,0-0.126-0.001-0.189,0
	c-2.053,0.021-1.706-0.013-2.206-1.593c-1.819-5.758-3.593-11.531-5.387-17.297c-8.519-27.39-17.04-54.779-25.558-82.169
	c-0.203-0.651-0.382-1.31-0.561-1.926c0.581-0.365,1.098-0.255,1.592-0.255c11.525-0.004,23.051,0,34.576,0.003
	c0.126,0,0.252-0.002,0.378,0.001c1.234,0.03,1.255,0.03,1.257,1.279c0.009,6.298-0.004,12.596,0.013,18.894
	c0.007,2.619-0.346,2.296,2.308,2.295c42.953-0.006,85.906-0.019,128.859-0.033C389.75,158.186,390.379,158.158,391.008,158.143z"></path>
<path fill="#2E2A25" d="M180.301,264.994c-0.094-0.167-0.211-0.305-0.423-0.309c-0.629-0.009-1.258-0.023-1.887-0.023
	c-35.498,0.005-70.996,0.012-106.494,0.016c-0.628,0-1.257-0.013-1.884-0.047c-0.271-0.015-0.462-0.192-0.491-0.476
	c-0.032-0.312-0.048-0.627-0.048-0.94c-0.002-4.532,0-9.063,0.001-13.595c0-0.126-0.003-0.252,0.002-0.378
	c0.036-0.903,0.124-1.01,0.954-1.041c0.566-0.021,1.133-0.008,1.699-0.007c31.47,0.007,62.94,0.015,94.41,0.016
	c0.75,0,1.511,0.113,2.249-0.124c0.629,0.015,1.258,0.044,1.887,0.044c100.979,0.004,201.959,0.007,302.938,0.007
	c0.818,0,1.635-0.03,2.453-0.045c0.739,0.233,1.5,0.121,2.25,0.121c19.828-0.008,39.655-0.027,59.483-0.037
	c2.731-0.001,2.43-0.279,2.436,2.403c0.009,3.965-0.003,7.931-0.007,11.897c0,0.503,0.002,1.007-0.017,1.51
	c-0.017,0.452-0.284,0.675-0.724,0.684c-0.566,0.012-1.133,0.014-1.699,0.013c-12.589-0.007-25.178-0.017-37.767-0.017
	c-0.688,0-1.386-0.101-2.063,0.114c-0.755-0.015-1.51-0.042-2.265-0.042c-101.366-0.002-202.732-0.002-304.098-0.001
	c-3.148,0-6.296,0.007-9.444,0.021C181.261,264.761,180.741,264.65,180.301,264.994z"></path>
<path fill="#2E2A25" d="M361.881,111.829c0.816,0.033,1.631,0.096,2.447,0.095c57.546-0.007,115.091-0.02,172.637-0.024
	c3.32,0,2.85-0.435,2.871,2.93c0.024,3.84,0.006,7.681,0.004,11.522c0,0.44-0.009,0.881-0.032,1.32
	c-0.019,0.366-0.245,0.582-0.594,0.603c-0.565,0.033-1.132,0.028-1.699,0.027c-41.428-0.004-82.856-0.006-124.284-0.014
	c-15.299-0.003-30.599-0.018-45.898-0.02c-0.688,0-1.386-0.101-2.064,0.115c-1.07-0.015-2.14-0.042-3.21-0.042
	c-96.744,0-193.487,0.002-290.231,0.004c-0.693,0-1.386,0.002-2.078-0.015c-0.431-0.01-0.706-0.217-0.719-0.681
	c-0.009-0.315-0.016-0.629-0.016-0.944c0-4.409,0.001-8.818,0.003-13.227c0-0.315,0.007-0.63,0.021-0.944
	c0.02-0.457,0.294-0.672,0.722-0.69c0.503-0.022,1.007-0.02,1.511-0.02c13.227,0.002,26.453,0.009,39.68,0.008
	c82.635-0.006,165.27-0.014,247.906-0.021C359.866,111.813,360.874,111.824,361.881,111.829z"></path>
<path fill="#2E2A25" d="M156.703,235.98c-0.478,0.471-0.486,1.146-0.73,1.718c-0.479,1.123-0.48,1.155-1.618,1.187
	c-0.314,0.009-0.629,0.003-0.944,0.003c-13.213,0.001-26.426,0.006-39.639-0.006c-0.671-0.001-1.384,0.19-2.009-0.222
	c0.103-0.409,0.436-0.409,0.739-0.463c2.476-0.44,4.95-0.888,7.384-1.53c6.753-1.78,12.72-5.025,17.959-9.626
	c2.036-1.787,3.938-3.711,5.714-5.756c0.451-0.52,0.952-1.008,1.228-1.659c0,0,0.073-0.111,0.073-0.111
	c0.475-0.288,0.809-0.682,0.918-1.241c3.104-3.867,5.388-8.196,7.072-12.836c2.752-7.584,3.58-15.406,2.747-23.424
	c-1.033-9.951-4.532-18.931-10.632-26.855c-7.191-9.341-16.551-15.316-28.101-17.811c-2.402-0.519-4.816-0.943-7.265-1.161
	c-0.251-0.022-0.501-0.037-0.719-0.286c1.075-0.251,2.144-0.174,3.203-0.174c10.078-0.006,20.155-0.002,30.233,0.001
	c15.053,0.003,30.107,0.003,45.16,0.015c2.517,0.002,2.038-0.292,2.865,2.034c8.737,24.603,17.466,49.209,26.197,73.814
	c0.189,0.534,0.403,1.059,0.574,1.598c0.225,0.711,0.076,0.92-0.649,0.949c-0.377,0.015-0.756,0.006-1.134,0.007
	c-7.432,0.002-14.864,0.007-22.297-0.001c-0.615-0.001-1.255,0.138-1.956-0.239c0.173-0.642,0.342-1.304,0.528-1.962
	c3.259-11.5,6.52-22.999,9.781-34.498c0.169-0.596,0.437-1.176,0.291-1.814c-0.496-0.244-1.009-0.153-1.506-0.153
	c-7.369-0.004-14.738-0.001-22.108,0.001c-0.252,0-0.505,0.018-0.756,0c-0.582-0.041-0.911,0.179-1.096,0.771
	c-0.617,1.981-1.29,3.945-1.936,5.918c-5.778,17.635-11.555,35.27-17.33,52.906C156.849,235.371,156.784,235.678,156.703,235.98z"></path>
<path fill="#2E2A25" d="M124.453,198.568c-0.582,0.528-0.737,1.297-1.084,1.954c-2.743,5.195-6.778,9.027-12.101,11.492
	c-2.304,1.067-4.768,1.613-7.267,1.961c-2.244,0.313-4.501,0.544-6.773,0.561c-1.29,0.01-1.324-0.016-1.347-1.392
	c-0.009-0.567-0.002-1.134-0.002-1.7c0.002-11.147,0.004-22.295,0.005-33.442c0-0.504,0.011-1.008-0.006-1.511
	c-0.031-0.983-0.088-1.057-1.11-1.066c-2.204-0.018-4.408-0.009-6.613-0.008c-5.794,0.001-11.588,0.007-17.382,0.001
	c-1.666-0.002-1.68-0.018-1.684-1.661c-0.008-3.905-0.001-7.809,0-11.714c0-0.126-0.003-0.252,0.002-0.378
	c0.034-1.02,0.106-1.104,1.05-1.134c0.44-0.014,0.882-0.003,1.322-0.003c4.975,0.001,9.951,0.006,14.926-0.003
	c0.498-0.001,0.997-0.081,1.495-0.124c2.015,0.016,4.03,0.067,6.044,0.039c2.837-0.039,5.667,0.091,8.491,0.33
	c2.324,0.196,4.619,0.589,6.849,1.294c4.577,1.447,8.362,4.073,11.32,7.833c4.152,5.279,6.273,11.296,6.174,18.031
	c-0.045,3.038-0.619,6.003-1.68,8.862C124.863,197.379,124.662,197.975,124.453,198.568z"></path>
<path fill="#2E2A25" d="M457.525,239.021c0.005-0.15,0.01-0.301,0.015-0.451c0.262-0.367,0.669-0.384,1.019-0.291
	c1.413,0.379,2.858,0.294,4.292,0.367c0.061,0.003,0.14,0,0.179,0.035c0.077,0.069,0.189,0.169,0.182,0.246
	c-0.01,0.102-0.1,0.25-0.19,0.283c-0.772,0.282-4.418,0.231-5.36-0.062C457.607,239.132,457.57,239.064,457.525,239.021z"></path>
<path fill="#2E2A25" d="M145.778,218.274c-0.109,0.559-0.443,0.953-0.918,1.241C144.615,218.602,144.737,218.438,145.778,218.274z"></path>
<path fill="#2E2A25" d="M501.997,214.085c-10.703,0-21.407-0.002-32.11,0.001c-2.962,0.001-5.9-0.193-8.835-0.667
	c-7.658-1.235-13.275-5.446-17.415-11.807c-2.529-3.886-3.754-8.203-3.923-12.837c-0.164-4.466,0.365-8.818,2.297-12.884
	c3.846-8.092,10.023-13.247,19.002-14.761c2.55-0.43,5.12-0.641,7.703-0.641c22.981,0.007,45.961,0.025,68.942,0.038
	c2.055,0.001,1.963-0.069,1.962,1.953c-0.002,16.559-0.001,33.118-0.002,49.676c0,0.44-0.005,0.881-0.029,1.321
	c-0.019,0.351-0.203,0.593-0.573,0.611c-0.565,0.027-1.132,0.037-1.698,0.037c-11.774,0.002-23.548,0.001-35.321,0.001
	C501.997,214.113,501.997,214.099,501.997,214.085z M472.556,200.416c-0.057-0.13-0.114-0.26-0.171-0.389
	c1.604-1.503,3.207-3.007,4.813-4.509c2.991-2.796,5.985-5.588,8.972-8.388c1.106-1.037,2.12-2.155,2.922-3.451
	c3.116-5.038,1.803-11.053-3.209-14.186c-4.068-2.543-8.464-2.818-12.867-1.097c-4.867,1.903-7.337,5.718-7.86,10.854
	c-0.059,0.576,0.145,0.831,0.716,0.842c1.196,0.023,2.393,0.021,3.59,0.012c1.677-0.012,1.766,0.232,2.033-1.807
	c0.632-4.83,5.977-7.016,9.782-5.056c2.052,1.057,3.209,2.746,3.197,5.16c-0.008,1.659-0.58,3.089-1.583,4.349
	c-0.704,0.884-1.483,1.716-2.292,2.507c-4.189,4.095-8.405,8.163-12.593,12.258c-0.85,0.831-2.057,1.482-2.401,2.602
	c-0.337,1.099-0.142,2.367-0.143,3.561c-0.001,1.62,0.014,1.634,1.697,1.634c7.307,0.001,14.614-0.007,21.921-0.012
	c0.252,0,0.504,0.006,0.756-0.007c0.833-0.042,0.938-0.139,0.954-1.045c0.02-1.133,0.007-2.268,0.005-3.401
	c-0.002-1.323,0.006-2.646-0.016-3.968c-0.011-0.642-0.188-0.849-0.743-0.859c-1.259-0.023-2.52-0.024-3.779-0.003
	c-0.562,0.009-0.735,0.216-0.753,0.849c-0.026,0.944-0.015,1.889-0.031,2.834c-0.007,0.442-0.232,0.713-0.689,0.714
	C480.709,200.418,476.633,200.416,472.556,200.416z M505.554,186.426c0,0.755-0.037,1.512,0.006,2.264
	c0.171,2.972,0.732,5.869,1.916,8.609c2.194,5.075,6.506,9.055,13.515,8.503c3.38-0.266,6.128-1.741,8.336-4.267
	c1.644-1.88,2.716-4.075,3.398-6.461c1.393-4.871,1.486-9.793,0.523-14.749c-0.361-1.86-0.907-3.662-1.769-5.355
	c-2.247-4.411-5.697-7.104-10.747-7.524c-3.777-0.314-7.085,0.738-9.861,3.343c-1.83,1.717-3.017,3.85-3.858,6.187
	C505.915,180.029,505.47,183.189,505.554,186.426z M498.937,205.282c0-0.003,0-0.007,0-0.01c0.813,0,1.627,0.015,2.44-0.007
	c0.345-0.009,0.606-0.225,0.61-0.581c0.02-1.563,0.02-3.127,0.013-4.69c-0.002-0.452-0.284-0.68-0.715-0.683
	c-1.627-0.009-3.254-0.01-4.88,0.007c-0.342,0.004-0.601,0.212-0.605,0.582c-0.018,1.564-0.025,3.127-0.021,4.691
	c0.001,0.45,0.282,0.681,0.717,0.688C497.31,205.291,498.123,205.282,498.937,205.282z"></path>
<path fill="#2E2A25" d="M529.294,186.187c-0.13,3.952-0.784,7.314-2.661,10.355c-0.601,0.974-1.325,1.841-2.182,2.592
	c-2.845,2.488-6.602,2.505-9.46,0.039c-1.357-1.171-2.363-2.614-3.085-4.245c-1.485-3.351-2.04-6.834-1.606-10.499
	c0.293-2.475,0.93-4.814,2.137-6.99c0.899-1.621,2.049-3.028,3.659-3.994c2.374-1.424,4.776-1.422,7.159-0.03
	c1.446,0.845,2.532,2.067,3.393,3.486c1.257,2.072,2.061,4.312,2.34,6.723C529.102,184.622,529.345,185.611,529.294,186.187z"></path>
</svg>
