<?xml version="1.0"?>

<svg xmlns="http://www.w3.org/2000/svg" viewBox="0 0 152.8 188.1" height="188.1" width="152.8"><path d="m 88.93,133.5 -3.84,3.9 -3.84,-3.9 3.84,-3.8 3.84,3.8 m 41.17,27.8 c 0,1.5 0,3.2 0.7,4.6 -1.1,-0.1 -1.7,-0.3 -3.6,-0.3 -1.1,0 -1.7,0.1 -2.6,0.3 0.2,-0.6 0.3,-0.9 0.4,-1.7 0.2,-1 0.2,-4.6 0.2,-5.9 l 0,-5 c 0,-2.1 0,-5.3 -0.1,-6.4 -0.1,-0.8 -0.3,-2.9 -3,-2.9 -2.6,0 -3.5,1.9 -3.9,3.5 -0.3,1.6 -0.3,3.4 -0.3,10.2 0,6 0,6.5 0.5,8.2 -0.8,-0.1 -1.8,-0.2 -3.2,-0.2 -1.1,0 -1.8,0 -2.7,0.2 0.3,-0.8 0.5,-1.2 0.6,-3.8 0.1,-2.5 0.2,-15 -0.2,-18 -0.2,-1.8 -0.7,-2.2 -1.2,-2.7 3.8,-0.2 5,-0.8 6.1,-1.4 l 0,5 c 0.6,-1.5 1.7,-4.7 6.4,-4.7 5.8,0 5.8,4.2 5.9,7 l 0,14 m -26.7,-8.6 c -0.1,3 -0.2,5 -0.9,6.6 -1,2.1 -2.65,2.7 -3.85,2.7 -2.79,0 -3.39,-2.3 -3.39,-4.6 0,-4.3 3.9,-4.7 5.64,-4.7 l 2.5,0 z m -12.77,5.7 c 0,3 0.88,5.9 3.48,7.1 1.15,0.5 2.31,0.5 2.68,0.5 4.31,0 5.71,-3.1 6.61,-5.1 0,2.1 0,3.3 0.1,5 0.9,-0.1 1.7,-0.2 3.1,-0.2 0.8,0 1.5,0.1 2.3,0.2 -0.5,-0.8 -0.8,-1.3 -0.9,-3.1 -0.1,-1.8 -0.1,-3.5 -0.1,-6 l 0,-9.4 c 0,-3.6 -1,-7 -7.92,-7 -4.59,0 -7.28,1.4 -8.62,2.1 0.56,1 1.02,1.9 1.43,3.8 1.81,-1.5 4.18,-2.4 6.58,-2.4 3.83,0 3.83,2.6 3.83,6.2 -0.9,0 -1.6,-0.1 -2.8,-0.1 -5.94,0 -9.83,2.2 -9.83,8.4 m -2.04,7.5 c -0.92,-0.2 -1.57,-0.3 -2.92,-0.3 -1.48,0 -2.5,0.1 -3.56,0.3 0.46,-0.9 0.65,-1.3 0.78,-4.4 0.19,-4.1 0.24,-15.1 -0.1,-17.4 -0.23,-1.8 -0.65,-2.1 -1.29,-2.5 3.79,-0.4 4.86,-0.7 6.62,-1.5 -0.37,2 -0.42,3 -0.42,6.2 -0.1,15.9 -0.14,17.7 0.88,19.6 m -13.8,-12.8 c 0,4.3 -0.79,10.1 -6.17,10.1 -0.74,0 -1.66,-0.2 -2.27,-0.3 -0.1,-1.7 -0.1,-4.6 -0.1,-7.9 0,-4 0.42,-6.1 0.74,-7.1 0.97,-3.3 3.15,-3.3 3.57,-3.3 3.52,0 4.22,4.9 4.22,8.5 z m -13.3,5 c 0,3.4 0,5.4 -0.56,6.9 1.9,0.7 4.26,1.1 7.09,1.1 1.81,0 7.04,0 9.87,-5.8 1.34,-2.6 1.81,-6.3 1.81,-9 0,-1.7 -0.19,-5.3 -1.53,-7.6 -1.3,-2.2 -3.38,-3.3 -5.61,-3.3 -4.45,0 -5.74,3.7 -6.44,5.6 0,-2.4 0.1,-10.6 0.42,-14.9 -3.01,1.4 -4.87,1.7 -6.86,1.9 1.81,0.7 1.81,3.8 1.81,13.7 l 0,11.4 m -14.29,-7.5 c 0.1,-3.8 0.83,-7.3 4.12,-7.3 3.62,0 3.89,4 3.8,7.3 l -7.92,0 z m 12.51,0.5 c 0,-5.4 -1.06,-10.8 -7.92,-10.8 -9.46,0 -9.46,10.5 -9.46,12.7 0,9.4 4.22,13.1 11.31,13.1 3.15,0 4.68,-0.4 5.52,-0.7 -0.1,-1.6 0.18,-2.7 0.46,-4.1 -0.97,0.6 -2.23,1.4 -5.01,1.4 -7.22,0 -7.32,-6.6 -7.32,-8.9 l 12.33,0 0.1,-2.7 m -24.21,-3.6 c 0,0.1 0,7.5 -0.14,9.5 -0.1,1.5 -0.23,4.9 -3.57,4.9 -3.43,0 -4.26,-3.9 -4.54,-5.6 -0.32,-1.9 -0.32,-3.5 -0.32,-4.2 0,-2.2 0.13,-8.4 5.37,-8.4 1.58,0 2.46,0.4 3.15,0.8 l 0,3 z M 22,153 c 0,13 6.95,13 7.97,13 2.87,0 4.73,-1.5 5.51,-4.3 l 0.1,4.2 c 0.88,-0.1 1.76,-0.2 3.19,-0.2 0.51,0 0.93,0 1.3,0.1 0.37,0 0.74,0 1.16,0.1 -0.74,-1.5 -1.3,-4.9 -1.3,-12.1 0,-7 0,-18.9 0.61,-22.6 -1.67,0.8 -3.11,1.3 -6.26,1.6 1.25,1.4 1.25,2.1 1.25,8.2 -0.88,-0.3 -1.99,-0.6 -3.89,-0.6 -8.3,0 -9.64,7.2 -9.64,12.6 M 39.74,51.28 c 0.47,-1.44 0.55,-2.3 0.73,-3.13 -1.29,1.65 -0.6,2.01 -0.73,3.13 m 2.39,-9.97 c 0.23,2.15 -1.62,2.99 0.41,1.57 1.09,-2.46 -0.43,-0.68 -0.41,-1.57 M 77.6,22.45 c 1.01,-0.37 2.48,-0.21 3.55,-0.45 -1.39,0.12 -2.78,0.19 -4.16,0.36 l 0.61,0.1 m 32.5,40.21 -0.3,0.56 c -0.4,2.85 -1.2,5.68 -2.6,8.31 1.5,-2.77 2.5,-5.8 2.9,-8.87 M 68.98,71.6 c -0.52,-0.57 -0.83,-1.26 -1.17,-1.95 0.33,1.21 1,2.25 1.63,3.31 L 68.98,71.6 m -2.32,0.1 -0.21,1.04 c 0.98,1.34 1.76,2.78 3.01,3.82 -0.9,-1.76 -1.57,-2.48 -2.8,-4.86 M 103.8,60.96 c 0.1,2.42 -0.7,3.59 -1.5,5.67 l -1.3,0.64 c -1.01,2.06 0.2,1.31 -0.6,2.94 -1.66,1.46 -5.01,4.59 -6.09,4.87 -0.78,0 0.53,-0.92 0.71,-1.28 -2.21,1.52 -1.78,2.28 -5.16,3.2 l -0.1,-0.22 c -8.32,3.92 -19.9,-3.85 -19.74,-14.44 -0.1,0.67 -0.26,0.5 -0.44,0.77 -0.43,-5.45 2.52,-10.92 7.49,-13.16 4.86,-2.41 10.56,-1.42 14.04,1.83 -1.91,-2.51 -5.72,-5.17 -10.23,-4.92 -4.42,0.1 -8.56,2.88 -9.94,5.93 -2.26,1.43 -2.52,5.5 -3.51,6.24 -1.33,9.76 2.5,13.98 8.97,18.94 1.02,0.68 0.29,0.79 0.42,1.31 -2.15,-1 -4.12,-2.52 -5.74,-4.39 0.86,1.26 1.79,2.48 2.99,3.44 -2.03,-0.68 -4.74,-4.91 -5.53,-5.08 3.5,6.26 14.18,10.97 19.78,8.63 -2.59,0.1 -5.88,0.1 -8.79,-1.02 -1.22,-0.63 -2.88,-1.93 -2.59,-2.17 7.64,2.85 15.53,2.16 22.13,-3.14 1.73,-1.31 3.53,-3.54 4.03,-3.57 -0.8,1.21 0.2,0.58 -0.5,1.64 1.7,-2.7 -0.7,-1.1 1.8,-4.66 l 0.9,1.25 c -0.4,-2.25 2.8,-4.97 2.5,-8.51 0.7,-1.09 0.8,1.16 0,3.66 1,-2.77 0.2,-3.21 0.5,-5.5 0.3,0.77 0.7,1.59 0.9,2.4 -0.7,-2.68 0.7,-4.51 1,-6.06 -0.3,-0.15 -1,1.18 -1.2,-1.98 0,-1.37 0.4,-0.72 0.5,-1.05 -0.3,-0.16 -1,-1.21 -1.4,-3.23 0.3,-0.47 0.8,1.23 1.3,1.3 -0.3,-1.6 -0.8,-2.83 -0.8,-4.06 -1.2,-2.59 -0.4,0.35 -1.4,-1.11 -1.4,-4.11 1.1,-0.95 1.2,-2.82 2,2.89 3.2,7.38 3.7,9.24 -0.4,-2.27 -1.1,-4.46 -1.8,-6.59 0.6,0.26 -1,-4.66 0.7,-1.4 -1.8,-6.95 -8,-13.44 -13.7,-16.48 0.7,0.64 1.58,1.43 1.26,1.56 -2.83,-1.68 -2.33,-1.82 -2.74,-2.53 -2.3,-0.94 -2.46,0.1 -3.98,0 -4.35,-2.3 -5.19,-2.06 -9.19,-3.5 l 0.18,0.85 c -2.88,-0.96 -3.36,0.36 -6.47,0 -0.19,-0.15 1,-0.54 1.98,-0.68 -2.79,0.37 -2.66,-0.55 -5.39,0.1 0.68,-0.47 1.39,-0.78 2.1,-1.18 -2.27,0.14 -5.42,1.32 -4.45,0.24 -3.7,1.66 -10.28,3.98 -13.98,7.44 l -0.11,-0.77 c -1.69,2.03 -7.38,6.06 -7.84,8.69 l -0.45,0.11 c -0.88,1.49 -1.45,3.18 -2.15,4.71 -1.15,1.97 -1.68,0.76 -1.52,1.07 -2.27,4.59 -3.39,8.45 -4.36,11.61 0.69,1.04 0,6.23 0.27,10.39 -1.13,20.55 14.42,40.47 31.43,45.07 2.49,0.9 6.19,0.9 9.34,1 -3.71,-1.1 -4.19,-0.6 -7.82,-1.8 -2.61,-1.3 -3.18,-2.7 -5.04,-4.3 l 0.74,1.3 c -3.63,-1.3 -2.11,-1.6 -5.07,-2.5 l 0.79,-1.1 c -1.18,-0.1 -3.12,-1.9 -3.65,-3 l -1.29,0.1 c -1.54,-1.88 -2.37,-3.26 -2.31,-4.33 l -0.41,0.75 c -0.48,-0.81 -5.7,-7.16 -2.99,-5.68 -0.5,-0.46 -1.17,-0.75 -1.89,-2.07 l 0.55,-0.63 c -1.3,-1.68 -2.4,-3.83 -2.32,-4.54 0.7,0.94 1.18,1.11 1.66,1.27 -3.29,-8.16 -3.48,-0.45 -5.97,-8.31 l 0.53,0 C 46.33,76.66 46.09,76 45.76,75.35 l 0.23,-2.28 c -2.37,-2.74 -0.66,-11.65 -0.32,-16.53 0.24,-1.99 1.98,-4.1 3.3,-7.42 l -0.8,-0.14 c 1.54,-2.69 8.8,-10.8 12.16,-10.38 1.63,-2.05 -0.32,0 -0.64,-0.52 3.58,-3.71 4.7,-2.62 7.12,-3.29 2.6,-1.54 -2.24,0.61 -1,-0.59 4.5,-1.15 3.19,-2.61 9.06,-3.19 0.62,0.35 -1.44,0.54 -1.95,1 3.75,-1.84 11.87,-1.42 17.14,1.02 6.12,2.86 13.04,11.31 13.24,19.26 l 0.3,0.1 c -0.1,3.16 0.5,6.81 -0.6,10.17 l 0.8,-1.59 m -24.91,-37.36 -0.56,0.11 0.53,0 0,-0.1 M 77.3,23.16 c 0.8,0.14 1.73,0.25 1.59,0.45 0.88,-0.2 1.08,-0.37 -1.59,-0.45 m 16.65,36.78 c 0.18,-2.69 -0.53,-1.84 -0.77,-0.81 0.28,0.14 0.5,1.9 0.77,0.81 m -2.96,7.71 c 0.89,-1.23 1.54,-2.58 1.77,-3.97 -0.2,0.99 -0.74,1.85 -1.25,2.75 -2.79,1.76 -0.26,-1.04 0,-2.11 -3,3.78 -0.41,2.27 -0.52,3.33 m -8.02,2 c -1.49,0 0.28,0.76 2.23,1.06 0.54,-0.42 1.03,-0.84 1.46,-1.26 -1.21,0.3 -2.44,0.31 -3.69,0.2"></path> </svg>