<?xml version="1.0"?>

<svg xmlns="http://www.w3.org/2000/svg" viewBox="0 0 929.5 209" height="209" width="929.5">
  <path d="m 864.5,165.2 c 0,-12 9,-21.8 22,-21.8 12,0 21,9.8 21,21.8 0,12.1 -9,21.8 -21,21.8 -13,0 -22,-9.7 -22,-21.8 M 22.1,184.7 h 46.5 c 68.2,0 94.2,-40.8 94.2,-79.4 C 162.8,52.25 129,22 67.6,22 50.8,22 32.2,22.7 22,23.87 Z M 74.5,153 c -5.2,-0.1 -10.7,0.3 -13.5,0.1 0,0 -0.2,-98.29 0,-98.31 2.9,-0.3 8,-0.57 14,-0.57 23.1,0 46.8,15.16 46.8,49.88 0,39.8 -30.2,49.3 -47.3,48.9 M 502,55.32 h 39.4 V 24.69 H 502 Z m 70.6,-20.84 v 32.06 h -15.2 v 29.22 h 15.2 v 48.74 c 0,25.9 12.2,42.4 39.9,42.4 12,0 26,-3.2 28,-3.9 0,0 0,-30.5 0,-30.6 -2,0.4 -9,1.9 -14,1.9 -5.5,0 -15.3,-1.5 -15.3,-16.4 V 95.75 h 25.3 V 66.48 c 0,0 -21.9,0 -25.3,0 0,-3.45 0,-36.41 0,-36.41 l -38.6,4.37 m 90.9,0 V 66.5 h -15 v 29.22 h 15 v 48.78 c 0,25.9 13,42.4 40,42.4 13,0 26,-3.2 28,-3.9 0,0 0,-30.5 0,-30.6 -1,0.4 -9,1.9 -14,1.9 -5,0 -15,-1.5 -15,-16.4 V 95.75 h 25 V 66.48 c 0,0 -22,0 -25,0 0,-3.45 0,-36.41 0,-36.41 l -39,4.37 M 502,184.5 h 39.4 V 66.56 H 502 Z m -78.7,-26.8 c -12.7,0 -21.1,-12.6 -21.1,-32.2 0,-15.5 5.6,-32.13 21.3,-32.13 15.1,0 20.5,17.23 20.5,32.03 0,19.6 -8.2,32.3 -20.7,32.3 z m -0.5,29.2 c 30.7,0 61.8,-19.4 61.8,-62.5 0,-25.72 -15.2,-60.23 -59.8,-60.23 -46,0 -62.7,33.45 -62.7,62.13 0,36.1 25,60.6 60.7,60.6 M 796.5,91.46 c 15,0 19,13.14 19,20.34 0,0 -39,0 -39,0 0,-10.2 7,-20.34 20,-20.34 z m 41,60.74 c -6,2.2 -15,5.1 -28,5.1 -17,0 -30,-5.7 -32,-19.1 h 72 c 1,-2.6 2,-6.8 2,-15.5 0,-30.6 -15,-58.7 -54,-58.7 -38,0 -58,29.6 -58,62.8 0,38.2 27,60.1 64,60.1 24,0 34,-5.5 40,-7.7 l -6,-27 M 232.2,91.46 c 14.3,0 18.7,13.14 18.7,20.34 -0.1,0 -38.8,0 -38.8,0 0,-10.2 7.1,-20.34 20.1,-20.34 z m 41.2,60.74 c -6.3,2.2 -15.8,5.1 -28,5.1 -17,0 -30.3,-5.7 -32.5,-19.1 h 72.5 c 0.6,-2.6 1.5,-6.8 1.5,-15.5 C 286.9,92.1 271.7,64 232.8,64 195.1,64 175,93.61 175,126.8 c 0,38.2 26.7,60.1 64,60.1 23.5,0 33.9,-5.5 40.3,-7.7 l -5.9,-27 m 31.4,32.3 h 39.4 V 24.64 h -39.4 z"></path>

</svg>
