<?xml version="1.0"?>

<svg xmlns="http://www.w3.org/2000/svg" viewBox="0 0 476 153.77" height="153.77" width="476"><path d="m 448.73,90.237 1.69,4.732 1.7,-4.732 1.88,0 0,6.611 -1.21,0 0,-5.335 -1.83,5.335 -1.06,0 -1.85,-5.335 0,5.335 -1.21,0 0,-6.611 1.89,0 z m -8.65,1.103 0,-1.103 5.64,0 0,1.103 -2.16,0 0,5.508 -1.32,0 0,-5.508 -2.16,0 M 150.8,116.99 c -0.71,-0.7 -1.55,-1.06 -2.57,-1.06 l -47.62,0 c -0.704,0 -1.263,-0.18 -1.7,-0.56 -0.421,-0.39 -0.652,-0.81 -0.652,-1.33 l 0,-3.69 48.292,0 c 1.02,0 1.86,-0.36 2.58,-1.07 0.69,-0.7 1.07,-1.56 1.07,-2.56 0,-1.02 -0.38,-1.86 -1.07,-2.58 -0.72,-0.69 -1.56,-1.05 -2.58,-1.05 l -51.909,0 c -1.013,0 -1.865,0.36 -2.568,1.05 -0.705,0.72 -1.051,1.56 -1.051,2.58 l 0,6.56 c 0,1.52 0.266,2.88 0.817,4.09 0.564,1.21 1.269,2.24 2.134,3.1 0.834,0.86 1.823,1.52 2.936,2.01 1.11,0.47 2.218,0.71 3.321,0.71 l 48,0 c 1.02,0 1.86,-0.35 2.57,-1.06 0.7,-0.7 1.07,-1.57 1.07,-2.57 0,-1.01 -0.37,-1.86 -1.07,-2.57 m -56.159,-19.493 53.589,0 c 1.02,0 1.86,-0.359 2.57,-1.068 0.7,-0.7 1.07,-1.561 1.07,-2.557 0,-1.022 -0.37,-1.858 -1.07,-2.579 -0.71,-0.693 -1.55,-1.056 -2.57,-1.056 l -53.589,0 c -1.013,0 -1.865,0.363 -2.568,1.056 -0.705,0.721 -1.051,1.557 -1.051,2.579 0,0.996 0.346,1.857 1.051,2.557 0.703,0.709 1.555,1.068 2.568,1.068 m -65.307,0 0,18.453 39.27,0 c 1.721,0 3.144,-0.33 4.244,-0.96 1.137,-0.62 2.008,-1.4 2.648,-2.3 0.639,-0.91 1.067,-1.91 1.301,-2.99 0.245,-1.08 0.363,-2.07 0.363,-2.98 0,-0.91 -0.118,-1.9 -0.363,-2.99 -0.234,-1.09 -0.662,-2.07 -1.301,-2.98 -0.64,-0.9 -1.511,-1.673 -2.648,-2.306 -1.1,-0.625 -2.523,-0.947 -4.244,-0.947 l -39.27,0 z m 54.911,9.223 c 0,1.86 -0.299,3.76 -0.92,5.67 -0.613,1.92 -1.477,3.65 -2.63,5.21 -1.138,1.57 -2.538,2.85 -4.166,3.89 -1.634,1.03 -3.487,1.6 -5.564,1.7 l -45.302,0 c -1.013,0 -1.885,-0.35 -2.578,-1.06 C 22.361,121.42 22,120.58 22,119.57 l 0,-25.698 c 0,-1.006 0.361,-1.864 1.085,-2.568 0.693,-0.71 1.565,-1.067 2.578,-1.067 l 44.532,0 c 2.183,0 4.152,0.523 5.871,1.524 1.736,1.002 3.216,2.303 4.439,3.883 1.22,1.585 2.154,3.357 2.791,5.286 0.641,1.95 0.949,3.88 0.949,5.79 M 433.63,96.736 c -2.57,2.259 -4.95,4.214 -7.11,5.864 -2.17,1.64 -4.2,3.01 -6.12,4.11 1.92,1.12 3.93,2.48 6.05,4.12 2.13,1.64 4.5,3.59 7.18,5.86 0.4,0.36 0.75,0.78 1.02,1.27 0.27,0.52 0.4,1.05 0.4,1.6 0,1 -0.33,1.87 -1.04,2.57 -0.7,0.71 -1.56,1.06 -2.57,1.06 -0.86,0 -1.72,-0.35 -2.57,-1.06 -3.22,-2.82 -5.93,-5.02 -8.12,-6.61 -2.2,-1.59 -4.17,-2.76 -5.9,-3.51 -1.75,-0.75 -3.4,-1.22 -4.95,-1.41 -1.58,-0.16 -3.33,-0.26 -5.29,-0.26 l -1.67,0 c -1.67,0 -3.2,0.19 -4.6,0.41 -1.42,0.24 -2.95,0.75 -4.58,1.55 -1.64,0.81 -3.51,2.01 -5.6,3.56 -2.08,1.56 -4.65,3.66 -7.67,6.27 -0.39,0.31 -0.79,0.56 -1.2,0.77 -0.41,0.19 -0.87,0.29 -1.36,0.29 -1.02,0 -1.87,-0.35 -2.57,-1.06 -0.7,-0.7 -1.06,-1.57 -1.06,-2.57 0,-0.55 0.14,-1.08 0.39,-1.6 0.29,-0.49 0.64,-0.91 1.05,-1.27 2.56,-2.27 4.93,-4.2 7.1,-5.81 2.17,-1.63 4.2,-2.97 6.12,-4.09 -1.92,-1.1 -3.93,-2.48 -6.08,-4.11 -2.14,-1.65 -4.52,-3.633 -7.14,-5.944 -0.41,-0.343 -0.76,-0.775 -1.05,-1.284 -0.25,-0.501 -0.39,-1.037 -0.39,-1.58 0,-1.022 0.36,-1.858 1.06,-2.579 0.7,-0.693 1.55,-1.056 2.57,-1.056 0.49,0 0.95,0.1 1.36,0.304 0.41,0.199 0.81,0.452 1.2,0.752 3.09,2.725 5.67,4.865 7.8,6.424 2.1,1.566 4.02,2.743 5.69,3.513 1.68,0.78 3.28,1.29 4.76,1.52 1.49,0.22 3.12,0.33 4.87,0.33 l 1.16,0 c 1.96,0 3.69,-0.1 5.2,-0.22 1.51,-0.15 3.13,-0.61 4.83,-1.36 1.72,-0.75 3.69,-1.939 5.86,-3.515 2.2,-1.592 4.92,-3.823 8.21,-6.692 0.85,-0.693 1.71,-1.056 2.57,-1.056 1.01,0 1.87,0.363 2.57,1.056 0.71,0.721 1.04,1.557 1.04,2.579 0,0.543 -0.13,1.079 -0.4,1.58 -0.27,0.509 -0.62,0.941 -1.02,1.284 m -67.94,25.394 c -0.73,0.71 -1.58,1.06 -2.58,1.06 -1.01,0 -1.87,-0.35 -2.58,-1.06 -0.69,-0.7 -1.05,-1.57 -1.05,-2.57 l 0,-25.688 c 0,-1.022 0.36,-1.858 1.05,-2.579 0.71,-0.693 1.57,-1.056 2.58,-1.056 1,0 1.85,0.363 2.58,1.056 0.69,0.721 1.03,1.557 1.03,2.579 l 0,25.688 c 0,1 -0.34,1.87 -1.03,2.57 m -14.82,0 c -0.69,0.71 -1.57,1.06 -2.57,1.06 -1.01,0 -1.87,-0.35 -2.57,-1.06 -0.71,-0.7 -1.06,-1.57 -1.06,-2.57 l 0,-9.22 -44.66,0 0,9.22 c 0,1 -0.37,1.87 -1.08,2.57 -0.7,0.71 -1.55,1.06 -2.55,1.06 -1.03,0 -1.87,-0.35 -2.57,-1.06 -0.71,-0.7 -1.05,-1.57 -1.05,-2.57 l 0,-25.688 c 0,-1.022 0.34,-1.858 1.05,-2.579 0.7,-0.693 1.54,-1.056 2.57,-1.056 1,0 1.85,0.363 2.55,1.056 0.71,0.721 1.08,1.557 1.08,2.579 l 0,9.208 44.66,0 0,-9.208 c 0,-1.022 0.35,-1.858 1.06,-2.579 0.7,-0.693 1.56,-1.056 2.57,-1.056 1,0 1.88,0.363 2.57,1.056 0.7,0.721 1.05,1.557 1.05,2.579 l 0,25.688 c 0,1 -0.35,1.87 -1.05,2.57 M 226.08,93.888 c 0,-1.022 0.35,-1.858 1.05,-2.579 0.72,-0.693 1.58,-1.057 2.57,-1.057 l 45.29,0 c 1.4,0 2.73,0.252 3.96,0.79 1.23,0.529 2.32,1.251 3.25,2.162 0.94,0.905 1.67,1.958 2.2,3.171 0.52,1.213 0.8,2.517 0.8,3.925 0,1.42 -0.28,2.73 -0.8,3.93 -0.53,1.21 -1.26,2.27 -2.2,3.18 -0.93,0.91 -2.02,1.62 -3.25,2.15 -1.23,0.53 -2.56,0.79 -3.96,0.79 l -39.31,0 c -0.65,0.11 -1.21,0.41 -1.67,0.92 -0.45,0.5 -0.67,1.13 -0.67,1.89 l 0,6.42 c 0,1 -0.37,1.87 -1.09,2.57 -0.74,0.71 -1.59,1.06 -2.55,1.06 -0.99,0 -1.85,-0.35 -2.57,-1.06 -0.7,-0.7 -1.05,-1.57 -1.05,-2.57 l 0,-7.27 c 0,-1.24 0.23,-2.44 0.67,-3.58 0.46,-1.14 1.1,-2.12 1.93,-2.94 0.84,-0.83 1.79,-1.5 2.88,-1.96 1.08,-0.49 2.28,-0.73 3.58,-0.73 l 40.15,0 c 0.75,0 1.42,-0.25 2,-0.79 0.56,-0.53 0.87,-1.19 0.87,-2.01 0,-0.75 -0.31,-1.408 -0.87,-1.958 -0.58,-0.561 -1.25,-0.828 -2,-0.828 l -45.59,0 c -0.99,0 -1.85,-0.36 -2.57,-1.069 -0.7,-0.7 -1.05,-1.561 -1.05,-2.557 M 227.77,131.77 160.28,119.56 238.19,22 c 0,0 -37.27,64.062 -41.16,83.51 -3.43,17.21 30.74,26.26 30.74,26.26"></path> </svg>