<?xml version="1.0"?>
<!--?xml version="1.0" encoding="UTF-8" standalone="no"?-->
<svg xmlns="http://www.w3.org/2000/svg" viewBox="0 0 244.62 74.906" height="74.906" width="244.62">
  <path d="m 222.62,49.605 h -5.75 l -2.41,-6.167 h -10.02 l -2.4,6.167 h -5.39 l 10.3,-24.726 h 5.55 m 0.39,14.441 -3.44,-8.739 -3.44,8.739 z M 190.67,24.986 h -22.1 v 4.274 h 8.28 v 20.345 h 5.53 V 29.26 h 8.29 m -29.7,16.069 h -10.6 V 24.986 h -5.52 v 24.619 h 16.12 M 117.43,38.933 h 10.46 V 34.658 H 117.43 V 29.26 h 11.82 v -4.274 h -17.32 v 24.618 h 17.71 v -4.276 h -12.21 m -41.65,4.276 h 8.701 c 8.933,0 14.27,-4.626 14.27,-12.312 0,-7.684 -5.332,-12.306 -14.27,-12.306 H 75.78 m 5.495,4.274 h 3.201 c 5.801,0 8.701,2.861 8.701,8.032 0,5.17 -2.9,8.035 -8.701,8.035 H 81.28 Z M 41.344,22 23.418,49.607 41.344,40.979 59.266,49.607 Z m 0,22.732 L 22,52.906 h 19.344 v 0 h 19.344 z"></path>

</svg>
