<svg    xmlns="http://www.w3.org/2000/svg"

   viewbox="0 0 1145 161"
   height="160.9"
   width="1145">

  <path
     d="m 983.5,148.2 c -6.2,-0.7 -18.1,-3.6 -20.7,-4.9 -2.8,-1.5 -2.8,-0.8 0.3,-13.5 l 0.9,-3.6 6.8,2 c 5.2,1.5 9.8,2 21,2.1 l 14.2,0.2 3,-2.9 c 2,-2.4 2,-3.8 2,-10.2 0,-4 0,-8.1 -1,-9 -1,-2.5 -5,-4.2 -17.9,-7.5 -26,-6.35 -29.6,-10.15 -29.6,-31.45 0,-12.4 1.2,-17 5.8,-22.2 6.4,-7.3 17,-10 36.7,-9 11,0.6 23,2.2 24,3.5 1,1 -1,16.6 -2,16.4 -1,-0.1 -5,-0.6 -9,-1.2 -12,-1.8 -26.9,-1.6 -30.7,0.3 -3.9,2 -4.3,3.2 -4.3,12.1 0,9.3 1.3,10.6 14,14.1 24,6.7 27,7.9 31,13.6 6,7.55 5,33.55 -1,42.05 -5,7.4 -25,11.5 -43.5,9.2 z M 12.2,116.7 12.5,85.45 22,79.75 c 5.2,-3.1 10.1,-5.7 10.7,-5.8 1,0 1.3,6.1 1.3,27.55 l 0,27.6 12.2,-0.4 c 9,-0.3 13.1,-0.8 15.4,-2 5.4,-2.9 5.9,-5.6 5.9,-33.25 0,-13.8 -0.3,-26.2 -0.8,-27.7 -0.4,-1.5 -2.2,-3.7 -4,-5 -3.1,-2.3 -4,-2.3 -27,-2.7 l -23.7,-0.3 0,-9.5 0,-9.5 26.2,0.4 c 24.7,0.3 26.7,0.5 32.3,2.7 3.8,1.5 7.7,4 10.6,7 7.4,7.3 7.9,10.1 7.9,44.6 0,32.85 -0.5,36.15 -6.6,43.25 -7.8,9.2 -16.3,11.2 -47.7,11.2 l -22.7,0 0.2,-31.2 z m 113.3,30 c -0.3,-0.7 -0.4,-25.1 -0.3,-54.25 l 0.3,-53 33.3,-0.3 33.2,-0.3 0,9.6 0,9.5 -22.5,0 -22.5,0 0,12.4 0,12.5 20.8,0.3 20.7,0.3 0,9 0,8.95 -20.7,0.2 -20.8,0.3 0,13.5 0,13.5 22.5,0 22.5,0 0,9.5 0,9.5 -33,0 c -25.5,0 -33.2,-0.3 -33.5,-1.2 z M 227,143.2 c -0.1,-7.7 4.1,-101.65 4.5,-103.05 0.3,-0.9 3.6,-1.2 11.9,-1.2 l 11.4,0 12.8,32.2 c 7,17.8 13.2,33.45 13.8,34.95 1,2.6 2.1,0.2 14.8,-31.95 l 13.6,-34.7 11.9,0 11.8,0 2.2,46.5 c 1.2,25.65 2.2,50.05 2.2,54.35 l 0.1,7.7 -10.4,0 c -8.5,0 -10.5,-0.4 -11,-1.7 -0.3,-0.8 -0.7,-9.5 -0.7,-19.2 -0.1,-9.7 -0.4,-24.2 -0.8,-32.15 l -0.6,-14.4 -9.4,23.65 -9.5,23.7 -13.1,0 -13.1,0 -9.5,-23.7 -9.4,-23.65 -0.6,12.9 c -0.4,7.15 -0.7,20.25 -0.8,29.15 0,8.9 -0.4,18.2 -0.7,20.8 l -0.7,4.6 -10.3,0 -10.4,0 0,-4.7 z m 141,3.5 c 0,-0.7 7.6,-25.1 16.8,-54.25 l 16.7,-53 14.5,-0.3 14.5,-0.3 16.8,53.3 c 9.2,29.25 16.7,53.85 16.7,54.55 0,1 -2.5,1.2 -10.7,1 l -10.8,-0.3 -3.4,-11.3 -3.5,-11.2 -19.6,0 -19.7,0 -3.3,11.5 -3.4,11.5 -10.8,0 c -8,0 -10.8,-0.3 -10.8,-1.2 z m 62,-40.6 c -0.2,-3.1 -13.9,-47.35 -14.4,-46.15 -1,2.5 -13.6,45.35 -13.6,46.15 0,0.4 6.3,0.8 14,0.8 7.7,0 14,-0.4 14,-0.8 z m 66,-12.65 0,-54.5 14,0 14,0 19.9,39.7 20,39.75 0,-39.75 0.1,-39.7 10.5,0 10.5,0 0,54.5 0,54.45 -14,0 -14,0 -19.9,-39.8 -20,-39.65 0,39.65 -0.1,39.8 -10.5,0 -10.5,0 0,-54.45 z m 127,23.25 0,-31.25 9.9,-5.8 c 5.5,-3.1 10.2,-5.7 10.5,-5.7 0.3,0 0.6,12.4 0.6,27.55 l 0,27.6 12.9,-0.3 c 11.3,-0.4 13.3,-0.7 15.8,-2.5 5.1,-3.8 5.3,-4.9 5.3,-33.25 0,-22.8 -0.2,-26.7 -1.7,-29.1 -3,-5.1 -4.9,-5.5 -30.1,-5.8 l -23.2,-0.4 0,-9.5 0,-9.5 25.7,0.4 c 20.7,0.3 26.8,0.8 31,2.1 7.8,2.6 13.3,7.2 16.8,14.2 l 3,6 0,32 0,32.05 -3,5.9 c -3.6,7 -8,10.7 -16,13.7 -5.5,2 -8.3,2.2 -31.8,2.6 l -25.7,0.4 0,-31.4 z m 113,-23.25 0,-53.5 25.8,0 c 27.6,0 32,0.5 38.2,5 5.5,3.9 7,8.7 7,23 0,13.9 -1.2,17.5 -7,20.8 -3.2,1.8 -3.9,3.2 -1.7,3.2 0.8,0 3.2,1.3 5.4,2.9 5.7,4.1 7.3,8.75 7.3,21.75 0,13.2 -1.3,17.6 -6.6,23 -6.7,6.7 -10.2,7.3 -41.6,7.3 l -26.8,0 0,-53.45 z m 51.6,34.15 c 2.3,-2 2.7,-3.3 3.1,-9.4 0.4,-4.3 0.1,-8.5 -0.7,-10.8 -1.8,-5.4 -5.2,-6.5 -20.5,-6.5 l -12.5,0 0,14.5 0,14.5 13.9,0 c 13.2,0 14.1,-0.1 16.7,-2.3 z m -6.1,-44.15 c 4.4,-1.8 5.5,-4.6 5.5,-13.9 0,-11.7 -2.8,-13.6 -20.3,-13.6 l -9.7,0 0,14.5 0,14.5 10.5,0 c 7,0 11.7,-0.5 14,-1.5 z M 838,146 c 0,-0.7 24.9,-80.65 31.6,-101.35 l 1.6,-4.8 14.5,0.3 14.6,0.3 16.7,53 16.7,52.95 -10.5,0.3 c -6.1,0.2 -10.8,-0.1 -11.1,-0.7 -0.3,-0.5 -2,-5.5 -3.6,-11.1 l -3,-10 -20,0.2 -19.9,0.3 -3.2,10.5 -3.1,10.5 -10.7,0.3 C 842.3,146.9 838,146.6 838,146 Z m 62,-39.4 c 0,-0.8 -13.9,-47.95 -14.2,-48.25 -0.3,-0.2 -3.5,10 -7.3,22.8 -3.8,12.8 -7,23.75 -7.3,24.45 -0.3,1 2.9,1.3 14.2,1.3 8,0 14.6,-0.2 14.6,-0.3 z m 168,-13.15 0,-53.5 33,0 32,0 0,9 0,9 -22,0 -23,0 0,13 0,13 21,0 21,0 0,9 0,8.95 -21,0 -21,0 0,13.5 0,13.6 23,0 22,0 0,9 0,9 -32,0 -33,0 0,-53.55 z m -794.6,-59.2 -9.1,-21.8 9.4,-0.3 c 5.2,-0.2 13.3,-0.2 18.2,0 l 8.7,0.3 -8.7,21 c -4.9,11.5 -9,21.3 -9.1,21.8 -0.2,0.4 -4.4,-9 -9.4,-21 z"
     />

</svg>
