<?xml version="1.0"?>

<svg xmlns="http://www.w3.org/2000/svg" viewBox="0 0 410 392" width="410" height="392">
   <path d="m 317.1,365.4 c 0.8,-2.1 1.9,-5 6.4,-19 1,-3.2 2.6,-8.2 3.7,-11.4 1,-3.5 2.6,-8 3.2,-10.3 0.8,-2.4 2.3,-6.9 3.1,-9.8 1.1,-2.9 2.7,-8 3.7,-10.9 1.1,-3.1 3.2,-10 4.8,-15.1 1.9,-5.3 4,-11.6 4.8,-14.1 0.8,-2.5 2.1,-7.2 3.4,-10.5 1.1,-3.2 2.4,-7.6 3.2,-9.7 0.5,-2.2 1.6,-5.4 2.4,-7.3 0.5,-1.9 2.1,-7 3.4,-11.4 1.6,-4.4 2.9,-8.8 3.4,-9.8 0.3,-1 1.1,-3.9 1.9,-6.5 1.1,-2.5 2.4,-7.1 3.4,-10.2 1.1,-3 3.2,-9.8 4.8,-15 1.9,-5.3 3.4,-10 3.4,-10.6 0.3,-0.6 2.2,-5.7 3.7,-11.4 1.9,-5.7 4,-11.8 4.5,-13.5 0.6,-1.7 1.1,-3.3 1.1,-3.5 0,-0.3 -1.9,-1.7 -9.3,-7.1 -5.3,-3.7 -15,-10.8 -18.7,-13.6 -1.4,-1 -3.5,-2.4 -4.5,-3.3 -1.4,-0.9 -3,-2 -3.5,-2.5 -0.8,-0.6 -3.2,-2.3 -5.3,-3.9 -2.4,-1.5 -5.3,-3.8 -6.9,-4.9 -1.5,-1.1 -11.1,-8.1 -21.1,-15.4 -10.3,-7.43 -21.2,-15.34 -24.4,-17.61 -3.1,-2.28 -8.4,-6.14 -11.7,-8.55 -3.4,-2.43 -7.8,-5.64 -9.8,-7.12 -2.1,-1.48 -6.1,-4.36 -8.9,-6.43 -2.8,-2.06 -7.4,-5.4 -10.2,-7.41 -2.8,-2.01 -7.1,-5.16 -9.6,-7.01 -2.6,-1.82 -6.6,-4.75 -9,-6.49 -2.4,-1.74 -6.3,-4.6 -8.7,-6.36 -2.5,-1.75 -6.4,-4.62 -8.8,-6.37 -2.4,-1.75 -5.7,-4.15 -7.4,-5.34 l -2.9,-2.15 -11,8 c -6.1,4.4 -12.5,9.03 -14.2,10.3 -1.8,1.26 -3.4,2.41 -3.6,2.55 -0.2,0.26 -3.4,2.58 -9.8,7.19 -5.9,4.26 -9.8,7.11 -11.3,8.2 -0.7,0.53 -3.7,2.75 -6.7,4.89 -5.1,3.68 -11.1,8.05 -17.8,12.97 -1.6,1.16 -3.4,2.48 -4.1,2.91 -1.3,0.9 -12.9,9.36 -17.8,12.96 -1.8,1.33 -7.2,5.27 -11.99,8.67 -4.8,3.5 -9.6,7 -10.6,7.7 -1.8,1.4 -4,2.9 -17.5,12.7 -3.8,2.8 -7.8,5.7 -9,6.6 -3.7,2.7 -16.7,12.1 -19.6,14.2 -1.5,1.1 -4.7,3.5 -7.2,5.3 -2.5,1.8 -5.5,3.9 -6.5,4.7 -1.1,0.8 -2,1.5 -2,1.7 0,0.3 4.1,13 5.9,18.6 0.5,1.4 2.2,6.5 3.8,11.4 1.5,4.7 2.9,9 3,9.4 0.1,0.3 1,2.9 1.8,5.6 0.9,2.8 2.6,7.9 3.7,11.4 1.2,3.5 3.4,10.3 4.9,15.1 5,15.3 6.3,19.3 7.1,21.6 0.4,1.2 2,6.3 3.7,11.3 3.6,11.4 9.5,29.4 11.9,36.8 1,2.9 3.1,9.5 4.7,14.6 1.7,5 3.7,11.4 4.7,14.3 2.8,8.7 5.9,18.2 7.3,22.5 0.7,2.3 2.1,6.6 3.1,9.7 1,3 2.2,6.4 2.6,7.7 l 0.7,2.4 H 204.7 316.6 Z m -225.39,3.7 c -0.3,-0.2 -1.4,-3.4 -2.6,-7.1 -1.2,-3.5 -3,-9 -4,-11.9 -1,-3.2 -4.9,-15.4 -8.7,-27 -3.8,-11.7 -7.7,-23.6 -8.6,-26.5 -0.9,-2.9 -3.3,-10 -5.2,-15.9 -5.4,-16.8 -9.7,-29.8 -11.6,-35.8 -1,-3 -3.5,-10.7 -5.6,-17.1 -2,-6.3 -4.4,-13.4 -5.1,-15.8 -2.5,-7.5 -5,-15.4 -8.5,-26 -1.8,-5.6 -4.8,-14.8 -6.6,-20.4 -2.3,-7 -3.3,-10.5 -3.2,-10.9 0.2,-0.6 0.8,-1.1 11.4,-8.7 1.1,-0.9 3.1,-2.3 4.4,-3.2 1.2,-0.9 4.6,-3.4 7.6,-5.6 3,-2.1 6.8,-4.9 8.4,-6 1.6,-1.2 3.4,-2.5 3.9,-2.9 0.6,-0.4 2.1,-1.5 3.3,-2.4 2.4,-1.8 19.5,-14.2 21.8,-15.8 0.7,-0.5 8.6,-6.2 17.49,-12.7 16.1,-11.72 17.4,-12.64 24.9,-18.12 2.2,-1.56 4.8,-3.49 5.8,-4.23 1.1,-0.77 5.6,-4.1 10.2,-7.41 4.6,-3.31 9,-6.46 9.7,-7.01 0.7,-0.53 3.7,-2.73 6.7,-4.9 3,-2.14 6,-4.36 6.8,-4.89 0.7,-0.56 5.3,-3.88 10.2,-7.41 4.8,-3.53 9.5,-6.95 10.4,-7.6 0.8,-0.65 2.9,-2.12 4.5,-3.28 1.6,-1.15 4.1,-2.95 5.5,-4 1.5,-1.04 4.1,-2.95 5.8,-4.23 2.1,-1.57 3.4,-2.32 3.9,-2.32 0.5,0 1.6,0.65 3.3,1.93 1.4,1.06 4.4,3.22 6.6,4.81 2.2,1.58 5.5,3.96 7.3,5.3 1.8,1.32 4.5,3.26 5.9,4.3 2.3,1.64 11.7,8.44 16.8,12.21 7.7,5.58 13.6,9.84 14.8,10.74 0.9,0.58 3,2.11 4.7,3.38 1.7,1.27 4.5,3.31 6.2,4.53 4.1,2.94 16.4,11.91 22.5,16.32 7.1,5.16 22.5,16.28 27,19.68 2.4,1.5 4.7,3.4 5.8,4.1 3.4,2.5 5,3.7 10.3,7.4 2.9,2.1 7.7,5.6 10.6,7.8 2.9,2.1 6.9,5 8.7,6.4 1.9,1.3 5.1,3.7 7.4,5.2 2.2,1.6 6.7,5 10.4,7.5 3.4,2.6 7.9,6 10.3,7.6 2.6,2 4,3 4,3.5 0.2,0.4 -0.3,2.3 -1.4,5.5 -0.8,2.6 -3.9,12 -6.9,20.8 -2.6,8.8 -5.8,18.2 -6.6,20.9 -0.8,2.7 -2.1,6.1 -2.6,7.7 -0.3,1.5 -2.1,6.6 -3.7,11.3 -1.3,4.8 -5,15.8 -8,24.5 -2.6,8.8 -5.8,17.9 -6.3,20.3 -0.8,2.4 -3.2,9.1 -5,15 -1.9,5.9 -4.5,13.5 -5.6,17.2 -1,3.5 -3.4,10.6 -5,15.9 -1.9,5 -4.8,14 -6.6,19.9 -1.9,5.8 -5.1,15.3 -6.9,21.1 -1.9,5.9 -3.7,11.4 -4,12.2 -0.2,1.1 -0.8,1.9 -1,2.1 -0.3,0.5 -4,0.5 -113,0.5 -108.39,0 -112.59,0 -112.99,-0.5 z m 220.39,-8.7 c 0.5,-1.6 5.3,-16.2 9,-27.8 1.3,-4 3.7,-11.4 5.3,-16.4 1.8,-5.3 3.4,-10.6 3.7,-11.4 0.5,-1 2.1,-5.8 3.4,-10.6 1.6,-5 3.7,-11.3 4.8,-14.4 1.1,-3 3.2,-10 5,-15.5 1.9,-5.4 4.3,-13.2 5.6,-17.2 1.3,-4 2.9,-8.8 3.4,-10.8 3.7,-11.4 8.5,-25.8 10.1,-30.6 1,-3 3.2,-9.5 4.5,-14.3 1.6,-4.8 3.2,-9.5 3.7,-10.5 0.2,-1.1 1,-3.9 1.8,-6.4 0.8,-2.5 2.4,-7.3 3.5,-10.7 1.3,-3.4 2.1,-6.2 2.1,-6.2 -0.3,-0.2 -13.8,-9.9 -20.4,-14.7 -12.4,-9.1 -14,-10.2 -16.7,-12.1 -2.3,-1.7 -8.7,-6.4 -15.3,-11.2 -5.8,-4.3 -13.2,-9.7 -15.3,-11.1 -1.1,-0.9 -3.2,-2.3 -4.5,-3.2 -1.4,-1 -6.4,-4.8 -11.4,-8.42 -5.3,-3.71 -11.8,-8.47 -14.7,-10.59 -2.9,-2.11 -6,-4.34 -6.8,-4.89 -0.7,-0.59 -2.5,-1.83 -3.8,-2.78 -1.3,-0.98 -4.6,-3.36 -7.3,-5.29 -2.7,-1.96 -6.4,-4.66 -8.3,-6.06 -1.9,-1.38 -4.5,-3.28 -5.8,-4.24 -1.3,-0.95 -3.5,-2.51 -4.8,-3.46 -1.3,-0.95 -2.6,-1.91 -2.9,-2.12 -0.4,-0.21 -3.8,-2.72 -7.7,-5.55 -3.8,-2.84 -7.4,-5.4 -7.7,-5.69 -2.4,-1.68 -4.2,-2.94 -6.2,-4.42 -9.3,-6.78 -13.5,-9.74 -13.7,-9.74 -0.3,0 -4.1,2.68 -16.8,11.97 -1.2,0.85 -2.9,2.05 -3.7,2.67 -1.7,1.18 -5.9,4.28 -10,7.32 -1.4,0.95 -3.2,2.3 -4.1,2.99 -1,0.69 -6.1,4.37 -11.3,8.18 -5.2,3.78 -11.7,8.46 -14.3,10.34 -2.6,1.91 -5.6,4.13 -6.8,4.92 -1.1,0.82 -3,2.25 -4.3,3.18 -1.3,0.95 -3.9,2.8 -5.7,4.13 -6.1,4.44 -36.29,26.45 -37.39,27.15 -0.6,0.4 -2.9,2 -5,3.6 -4.7,3.4 -8.2,6 -13.9,10.1 -2.3,1.7 -5.4,4 -7.1,5.2 -1.5,1.1 -3.5,2.6 -4.3,3.1 -0.8,0.6 -2.3,1.7 -3.3,2.4 -1,0.8 -4.3,3.1 -7.2,5.2 -13.7,9.9 -17.8,13 -17.9,13.2 -0.1,0.1 1.6,5.5 3.7,11.9 5.8,18 14.3,44.2 20.3,62.6 1.7,5.2 3.4,10.3 3.7,11.4 0.4,1 2,6.1 3.7,11.3 3,9.3 4.8,14.7 8.6,26.4 1,3.1 3.3,10 5,15.6 1.8,5.3 5.5,16.9 8.4,25.7 2.8,8.7 5.9,18.2 6.8,20.9 2.6,8.2 5.3,16.1 5.6,17.2 l 0.3,0.7 H 204.7 311.8 Z m -215.79,2.4 c -0.3,-0.6 -0.6,-0.8 -0.6,-0.8 0,-0.3 -6.1,-19.1 -7,-21.7 -0.2,-0.8 -1.8,-5.6 -3.4,-10.6 -3.8,-11.6 -9.3,-28.8 -11.9,-36.5 -1,-3.2 -2.5,-7.9 -3.4,-10.6 -0.9,-2.7 -1.7,-5.2 -1.8,-5.6 -0.3,-0.9 -3.4,-10.2 -7,-21.5 -1.7,-5.3 -4,-12.2 -5.1,-15.5 -1,-3.3 -2.3,-7.3 -2.9,-9 -0.5,-1.7 -1.2,-3.7 -1.4,-4.5 -0.5,-1.3 -5.3,-16 -9,-27.6 -3.5,-10.9 -8.7,-26.7 -10.9,-33.5 -1.3,-3.9 -2.3,-7.5 -2.3,-7.8 0,-1 -1,-0.3 11.5,-9.3 6.5,-4.7 10.3,-7.4 14.5,-10.6 1,-0.7 5.1,-3.7 9.1,-6.6 4,-2.9 8.2,-5.9 9.2,-6.6 2.2,-1.7 12.2,-8.9 15.7,-11.5 2.3,-1.6 5.3,-3.8 13.89,-10.1 1.6,-1.1 8.1,-5.76 14.3,-10.28 6.2,-4.56 12.5,-9.08 13.9,-10.11 3.3,-2.49 21.7,-15.8 26.4,-19.21 0.9,-0.66 5.9,-4.31 11.1,-8.07 5.2,-3.78 10.8,-7.89 12.6,-9.15 1.7,-1.25 4.2,-3.01 5.4,-3.92 2.3,-1.65 3.3,-2.39 12.1,-8.76 3.2,-2.32 4.9,-3.46 5.4,-3.46 0.5,0 2.1,1.05 5,3.18 2.4,1.74 5.4,3.95 6.8,4.9 1.3,0.95 4.5,3.28 7.1,5.18 2.6,1.9 5.6,4.06 6.6,4.81 1,0.74 3.1,2.27 4.6,3.36 1.6,1.11 4.8,3.49 7.3,5.29 2.5,1.8 6.2,4.47 8.2,5.95 5.4,3.86 21.1,15.29 23.5,17.04 1.1,0.82 3,2.2 4.2,3.07 1.2,0.87 2.9,2.12 3.8,2.78 0.9,0.66 2.4,1.72 3.3,2.38 0.9,0.66 2.4,1.72 3.2,2.38 1.1,0.66 3.7,2.62 6.1,4.37 2.4,1.72 5.8,4.23 7.7,5.57 5.2,3.8 10.8,7.8 11.6,8.4 1.1,0.8 6.6,4.8 10.6,7.7 1.8,1.4 6.1,4.5 9.2,6.7 3.2,2.3 7.2,5.3 9.3,6.7 1.9,1.3 4.5,3.2 5.8,4.2 4,3 26.2,19.2 28.1,20.5 2.3,1.7 3.1,2.4 3.1,3.2 0,0.3 -1,3.9 -2.3,7.9 -2.2,6.2 -4.5,13.9 -10.9,33.4 -0.8,2.6 -3.2,9.5 -5,15.4 -1.9,5.9 -4,12.4 -4.8,14.5 -0.5,2 -2.1,6.7 -3.4,10.4 -1.1,3.7 -3.5,11 -5,16.3 -1.9,5.2 -3.5,10.2 -3.7,11 -0.3,0.8 -1.6,5 -3.2,9.4 -2.4,7.5 -5.3,16.5 -9.3,28.9 -1,2.9 -2.9,9 -4.5,13.5 -1.3,4.3 -2.9,9 -3.4,10.6 -0.3,1.3 -1.6,5 -2.4,7.9 -1.1,2.9 -3.2,9.6 -5,15.1 -1.9,5.3 -3.2,9.8 -3.2,10.1 0,0 -0.3,0.5 -0.5,0.8 l -0.8,0.5 H 204.7 96.81 Z m 44.39,-34.2 c 14.6,-7.9 31.1,-12.7 50.2,-14.5 4.8,-0.5 23,-0.5 27.4,0 11.3,1 18.1,2.4 27.3,5 7.7,2.4 16.4,5.8 22.7,9.3 2.7,1.6 4,1.6 7.3,0.5 1.8,-0.5 2.4,-0.8 3.6,-1.9 1.8,-1.8 2.5,-3.7 1.9,-5.8 -0.1,-0.5 -0.4,-1.3 -0.6,-1.8 -0.3,-0.3 -0.3,-0.8 -0.1,-1.3 0.2,-0.6 0.4,-0.8 1.9,-1.1 1.9,-0.3 2.9,-0.8 3.9,-1.9 1.6,-1.3 2.1,-3.7 1,-6 l -0.5,-1.1 -2.9,-1.3 c -1.5,-0.6 -3.6,-1.3 -4.6,-1.6 l -1.8,-0.8 v 0.5 c 0,0.6 0.1,1.1 0.3,1.6 0.2,0.8 0.2,1.1 -0.4,1.6 -0.5,0.5 -0.7,0.5 -1.4,0.3 -13.5,-5.1 -24.7,-7.4 -43.6,-9.6 -9.7,-1 -25.5,-1.6 -35.1,-1.3 -25.3,1.1 -45.5,4.2 -61.2,10.1 l -3.3,1 -0.6,-0.5 c -0.6,-0.5 -0.7,-0.8 -0.4,-1.6 0.1,-0.5 0.3,-1 0.3,-1.6 v -0.5 l -1.8,0.8 c -1,0.3 -3.1,1 -4.7,1.6 -2.8,1 -2.8,1.3 -3.3,2.4 -1.7,3.9 0.3,6.8 4.9,7.9 1.4,0.3 1.7,0.5 1.9,1.1 0.2,0.5 0.1,1 -0.3,1.8 -0.7,1.3 -0.8,2.4 -0.3,4.2 0.6,2.2 2.4,4 5.3,4.8 3.1,1.1 4.6,1.1 7,-0.3 z m 134.8,-25.1 c 0,-1.3 0.1,-2.6 0.3,-3.2 l 0.3,-0.8 h -1.4 c -3.6,0 -8.6,-1 -11.7,-2.6 -9.8,-5 -13.9,-15.6 -8.4,-21.7 0.4,-0.5 4.8,-3.5 9.6,-6.6 4.8,-3.1 8.8,-5.9 8.9,-6.1 0.4,-0.9 0.6,-2.9 0.3,-4.4 -0.2,-1.5 -1.3,-4.2 -2.1,-5.2 -0.5,-0.6 -0.3,-0.8 -6.9,5.3 -4.6,4.3 -4.7,4.4 -4.8,5.7 -0.2,1.2 -0.9,2.3 -1.6,2.3 -0.1,0 -3.3,-0.5 -7,-1.1 l -6.8,-1.1 -1,1 c -0.6,0.5 -1.6,1.4 -2.2,1.9 -1,0.8 -1.1,1 -1.2,2.5 -0.1,0.9 -0.3,2.2 -0.4,2.9 -0.1,1.2 -0.1,1.2 0.7,1.6 1.5,0.5 3.1,2.6 3.7,4.6 0.6,1.8 0.6,2.4 0.5,5.3 -0.1,3 -0.2,3.8 -0.9,5.9 l -0.8,2.4 1.6,1.9 c 0.9,0.8 2.4,2.4 3.4,3.4 1.5,1.6 1.8,1.9 3.1,1.9 3.8,0.5 14.1,3.1 19.5,5 2.4,0.8 4.7,1.6 4.9,1.6 0.3,0 0.4,-0.5 0.4,-2.4 z m -109.8,-5.3 c 12.9,-2.1 35,-3.4 49,-2.6 11.2,0.5 21.7,1.5 29,2.6 0.9,0.3 1.6,0.3 1.7,0 0.1,0 -0.8,-1.1 -2,-2.4 -1.4,-1.6 -2.3,-2.1 -2.7,-2.1 -0.2,0 -2.6,0 -5.2,0.3 -6.6,0.2 -11.5,-0.6 -17.2,-2.4 l -2.6,-1.1 -1.4,0.8 c -0.7,0.6 -2.1,1.4 -3.1,1.6 -1.7,0.5 -2.3,0.5 -6.7,0.5 -4.5,0 -4.8,0 -6.7,-0.5 -1.1,-0.5 -2.5,-1.3 -3.1,-1.6 l -1,-0.8 -1.8,0.6 c -2.6,1 -6.5,2.1 -9.8,2.3 -3.3,0.6 -9.1,0.6 -11.9,0.3 l -1.9,-0.3 -2.1,2.4 c -1.9,1.9 -2.5,2.7 -2.2,2.7 0,0 0.8,0 1.7,-0.3 z m 74.8,-6.9 c 0.6,-1 1.5,-3.7 1.8,-6.1 0.6,-4 -0.4,-7.8 -2.4,-9.1 -1.3,-0.9 -2.1,-0.8 -4.3,0.3 -2.6,1.3 -5.3,1.9 -9.5,2.2 -2.3,0.2 -3.6,0.4 -3.7,0.6 -0.2,0.6 -2.2,2.7 -4,4.1 l -1.8,1.5 v 2 l 0.1,1.9 1.3,0.5 c 2,0.8 6.1,1.9 8.5,2.4 1.4,0 4.2,0.3 7.9,0.3 5.3,0 5.8,-0.3 6.1,-0.6 z M 231.1,276 c 1,-0.3 2.9,-1 4.1,-1.7 l 2.2,-1.1 0.1,-1.8 c 0.1,-1.1 0.2,-1.9 0.1,-2 0,0 -1,0.5 -2.3,1.1 -2.7,1.4 -5.9,2.5 -8.9,3 l -2.4,0.5 -0.1,1 c -0.1,0.5 -0.2,1.1 -0.4,1.4 -0.1,0.4 0.1,0.4 2.8,0.2 1.6,-0.1 3.7,-0.4 4.8,-0.6 z m 48.2,-6.9 3.9,-2.2 0.4,-1.4 c 0.4,-2.1 0.2,-4.3 -0.8,-6.1 -1,-2 -1.2,-2.2 -3,-1.4 -0.8,0.4 -2.1,1 -2.8,1.3 -1.2,0.5 -1.4,0.7 -1.4,1.4 0,1.3 -1,3.5 -1.8,4 -1.5,0.9 -1.5,0.8 -0.7,2 0.8,1.2 1.7,3.4 1.7,4.1 0,0.2 0.1,0.4 0.2,0.4 0.2,0 2.1,-1 4.3,-2.1 z m -15.1,-13.4 c 1.1,-1 2.8,-2.6 3.7,-3.4 2.6,-2.4 2.7,-2.6 2.9,-5 0.1,-2.4 -0.5,-4.6 -1.7,-5.7 l -0.6,-0.6 -0.3,0.6 c -0.2,0.3 -1.9,3 -3.9,6 -5.3,8.1 -5.9,9 -5.9,9.1 0,0.1 0.3,0.8 0.7,1.7 l 0.7,1.5 1.2,-1.2 c 0.7,-0.6 2.1,-2 3.2,-3 z m -14.4,2.3 c 1,-0.4 2,-1 3,-2.1 1.4,-1.3 1.6,-1.7 2.3,-4 0.4,-1.4 1.1,-3.8 1.7,-5.4 6.2,-20.2 10.8,-40.9 14,-63.1 1,-6.6 2.4,-18.2 2.4,-19.3 0,-0.7 -1.2,0.7 -2.4,2.6 -1.7,3 -1.5,1.8 -4.7,20 -0.9,4.9 -2,10.9 -2.4,13.3 -0.4,2.5 -1.1,6.1 -1.5,8.2 -0.3,2.2 -0.8,4.5 -0.9,5.2 -0.7,3.9 -1.7,9.6 -3,17.1 -0.9,4.6 -1.8,9.3 -2.1,10.4 -1.6,6.4 -5.1,13.2 -8.4,16.5 l -1.2,1.1 h 0.9 c 0.4,0 1.5,-0.2 2.3,-0.5 z m 30.2,-2.2 c 4.5,-2.1 4.5,-2 4.9,-5.2 0.2,-1.9 0.1,-3.8 -0.6,-6 -0.5,-2 -0.5,-2 -3.5,0.7 -1.5,1.4 -2.7,2.6 -2.8,2.6 -0.1,0.1 -1.2,1.1 -2.5,2.2 l -2.3,2.1 0.8,1.4 c 0.4,0.7 0.9,1.8 1.1,2.4 0.5,1.7 0.5,1.8 0.7,1.7 0.1,-0.1 2,-0.9 4.2,-1.9 z M 261,249 c 7.2,-11 6.7,-10.1 6.5,-11.8 -0.2,-2 -1.5,-4.5 -2.8,-5.4 -0.6,-0.5 -1.2,-0.8 -1.3,-0.8 0,0 -0.5,1.5 -1,3.4 -1.1,4.3 -3.4,11.8 -5,16.5 -1.1,3.3 -1.2,4.3 -0.6,4.1 0.1,0 2,-2.7 4.2,-6 z m 16.7,-3.6 c 2,-1.7 4.3,-3.8 5.1,-4.6 l 1.5,-1.4 v -1.7 c 0,-1.9 -0.6,-3.5 -1.7,-4.6 l -0.6,-0.6 -0.8,0.9 c -0.4,0.5 -1.9,2.2 -3.3,3.8 -5.6,6.6 -5.5,6.4 -5.2,7.3 0.3,0.9 0.2,4.3 -0.2,5.2 -0.2,0.6 0.3,0.2 5.2,-4.3 z m -1.5,-9.2 4.4,-5.2 v -1.4 c 0,-1.9 -0.4,-3.2 -1.4,-4.3 -0.9,-1.1 -1,-1.1 -1.4,-0.3 -0.3,0.6 -2.2,4.2 -5.7,10.9 l -2,3.7 0.7,0.8 c 0.4,0.5 0.8,0.9 0.8,0.9 0.1,0 2.2,-2.3 4.6,-5.1 z m -3,-6.7 c 3.6,-6.8 3.6,-6.6 2.9,-8.7 -0.4,-0.9 -1.8,-2.5 -2.3,-2.5 -0.1,0 -0.9,1.7 -1.8,3.8 -0.7,2 -2,5.2 -2.7,7.1 l -1.3,3.3 0.5,0.9 c 0.3,0.5 0.6,1.3 0.6,1.8 0.1,0.5 0.3,0.8 0.5,0.8 0.1,-0.1 1.7,-3 3.6,-6.5 z m -3.9,-5.9 c 1.5,-3.9 2.6,-7.1 2.6,-7.6 0,-1.2 -1,-3.3 -1.8,-3.9 -0.3,-0.2 -1,-0.5 -1.4,-0.7 -0.7,-0.2 -0.7,-0.1 -0.9,0.8 -0.2,1.1 -0.9,4 -2.7,11.5 -0.6,2.9 -1.1,5.3 -1,5.4 0.2,0 0.7,0.3 1.2,0.7 0.5,0.4 1,0.6 1.1,0.6 0.2,-0.1 1.5,-3.1 2.9,-6.8 z m 8.5,72.2 c 1,-1.8 1,-1.6 -1,-2.1 -2.1,-0.3 -4.6,-1 -7,-2.4 -3.6,-1.8 -6,-3.9 -8.2,-7.2 -1,-1.6 -1.1,-1.9 -0.9,-2.6 0.3,-1 -0.3,-0.7 7.6,-3.7 4.4,-1.8 4.5,-1.8 4.5,-5.3 0,-1.9 -0.1,-2.4 -0.8,-3.6 -1.1,-2.2 -1.3,-2.2 -3.6,-0.7 -11.7,7.5 -12.8,8.3 -13.7,10.5 -0.9,2 -0.7,5.2 0.5,7.9 3,6.3 10.5,10.8 19,10.8 h 2.6 z m -20,-32.9 c 0.3,-2.1 -0.5,-4.3 -2,-5.8 l -0.7,-0.7 -1.1,1.1 c -0.6,0.6 -1.9,1.5 -3,2.1 -1.8,0.8 -2.2,0.9 -4.2,0.9 h -2.2 v 0.7 c 0,0.9 -0.4,0.7 6.1,1.8 2.7,0.5 5,0.9 5.2,0.9 0.1,0.1 0.6,0.1 1,0.1 0.6,0.1 0.7,0 0.9,-1.1 z m 62.8,-0.9 c 4.7,-3.6 8.7,-8 11.4,-12.6 0.5,-1.1 1,-2 1,-2.1 -0.3,-0.1 -15.3,0.7 -42.9,2.4 l -2.9,0.2 -0.5,2.2 c -0.6,2.7 -0.8,3.1 -2.1,3.8 -0.6,0.3 -1.1,0.6 -1.1,0.6 0,0.1 0.4,0.7 0.8,1.4 0.4,0.6 1,2 1.2,3 l 0.5,1.8 3.9,0.2 c 2.4,0.1 8.4,0.4 13.7,0.6 5.1,0.3 10.6,0.5 11.9,0.5 l 2.4,0.1 z m -28.3,-14.5 c 1.3,0 5.3,-0.3 9.2,-0.5 8.2,-0.5 14.6,-0.8 19.1,-1.2 2.9,-0.2 3.1,-0.2 4.2,-0.9 1.3,-1 5.3,-4.3 6.1,-5.3 3.2,-3.6 5.5,-7.5 6.9,-11.4 1.3,-2.6 2.6,-8.1 2.4,-8.3 0,0 -1.6,0.6 -3.5,1.3 -3.4,1.5 -5,2.2 -13.5,5.7 -16.7,6.7 -24.1,9.7 -30.4,12.2 -4,1.6 -7.1,2.9 -7.1,2.9 -0.1,0.1 0.1,0.8 0.4,1.6 0.3,0.9 0.6,2.2 0.6,3 l 0.3,1.4 1.6,-0.2 c 0.8,0 2.3,-0.2 3.7,-0.3 z m -1.9,-9.6 c 2.1,-0.8 5.6,-2.3 7.9,-3.1 2.2,-0.9 6.7,-2.8 10.4,-4.2 3.4,-1.4 9.8,-4 14.5,-5.9 4.5,-1.8 8.2,-3.4 8.5,-3.5 1,-0.5 3.7,-5.8 5,-9.7 1.6,-4.7 2.1,-7.6 2.1,-12.6 v -4.5 c -0.2,-0.2 -5,3.1 -7.1,4.8 -1.3,0.8 -0.8,0.6 -7.2,5.1 -3.1,2.2 -6.6,4.9 -7.9,5.9 -1.3,0.9 -4,2.7 -5.6,3.9 -2.9,2.1 -10.8,7.9 -16.6,12.3 -1.6,1.1 -4.3,3 -5.8,4.2 -1.9,1.3 -3.2,2.4 -3.2,2.6 0,0.2 0.2,0.8 0.4,1.3 0.3,0.6 0.4,1.5 0.4,2.9 0,1.1 0.2,2.1 0.2,2.1 0.3,0 1.9,-0.7 4,-1.6 z m -1.8,-9.7 c 0.8,-0.7 2.9,-2.2 4.2,-3.2 3.2,-2.4 9.8,-7.1 11.4,-8.3 1,-0.8 6.1,-4.5 15.8,-11.7 1.4,-1 3.2,-2.2 4,-2.7 0.5,-0.5 2.7,-2 4.5,-3.3 2.9,-2.3 3.2,-2.3 3.7,-4 2.1,-6.4 0.8,-17.4 -3.2,-25.1 -0.5,-0.9 -1,-1.7 -1.3,-1.8 0,0 -0.8,1.1 -1.8,2.4 -0.8,1.3 -4.3,5.9 -7.4,10.1 -3.5,4.2 -7.2,9.1 -8.8,10.8 -1.3,1.8 -4.2,5.4 -6.3,8.1 -2.1,2.7 -4.5,6 -5.6,7.3 -1,1.3 -2.4,3.2 -3.2,4.1 -0.8,1 -2.9,3.6 -4.5,5.8 -3.1,3.7 -5.3,6.7 -7.2,9 -0.6,0.9 -0.6,1.1 -0.4,2 0.1,0.6 0.2,1.5 0.2,1.9 0,0.6 0.2,1.1 0.6,1.4 0.7,0.5 0.3,0.7 5.3,-2.8 z m -3,-9.1 c 2.4,-2.9 5.1,-6.6 6.4,-8.2 1.3,-1.5 5,-6.3 8.2,-10.5 3.2,-4.1 6.6,-8.4 7.4,-9.5 0.8,-1 4.5,-5.7 8.2,-10.4 5.8,-7.2 6.9,-8.8 6.9,-9.5 0,-1.6 -0.8,-7 -1.3,-9.7 -0.8,-3.4 -2.2,-6.8 -3.2,-9.3 -1.3,-2.3 -3.7,-6.2 -4.2,-6.2 -0.3,0 -2.7,3.2 -3.5,5.3 -0.5,1.1 -2.4,4.6 -4,7.8 -1.3,3.2 -3.1,6.8 -3.7,7.9 -1.5,3.3 -3.9,8.5 -5.5,11.8 -1.9,4 -17.5,36.3 -18.7,38.8 l -0.9,1.9 0.4,1.3 c 0.3,0.9 0.9,1.6 1.8,2.5 0.8,0.7 1.4,1.3 1.5,1.3 0.1,0 2,-2.4 4.2,-5.3 z m -2.4,-15.9 c 1.8,-3.7 4.3,-8.9 5.6,-11.5 1.1,-2.6 2.9,-6.2 3.7,-8.1 1.1,-1.8 2.1,-4.3 2.9,-5.6 0.6,-1.4 2.7,-5.8 4.5,-10 4.3,-8.4 6.4,-12.8 8.2,-16.9 1.4,-2.7 1.4,-2.8 1.4,-4.6 -0.6,-5.6 -3,-12.5 -6.1,-17.2 -1.3,-1.9 -4,-4.9 -4.5,-4.9 0,0 -0.3,0.2 -0.6,0.6 0,0.3 -0.5,2.4 -1.3,4.5 -0.8,2.2 -2.4,8.5 -3.9,14.1 -3.7,13.9 -9,33.5 -11.7,43.3 -5.7,21.3 -7.4,27.8 -7.4,28.4 0,0.6 0.2,0.9 0.8,1.1 0.4,0.2 0.9,0.6 1.1,0.8 0.4,0.4 0.7,-0.2 7.3,-14 z m -10.3,7.8 c 0,-0.2 0.3,-1.4 0.7,-2.7 0.7,-2.4 7.3,-26.9 8.8,-32.7 0.5,-1.9 1.6,-5.9 2.3,-8.9 1.5,-5.4 4.7,-17.5 5.7,-21.2 0.3,-1 1.3,-4.4 2.1,-7.3 0.8,-2.9 1.3,-5.6 1.3,-5.9 0,-2.2 -1.8,-8.1 -3.7,-11.7 -2.1,-4.3 -7.3,-11.8 -8.2,-11.8 -0.1,0 -0.2,0.3 -0.2,0.7 0,0.4 -0.3,2.9 -0.7,5.6 -0.4,2.7 -1.2,9 -1.8,14 -0.7,5.1 -1.4,10.5 -1.6,12.2 -2.3,17.3 -2.7,20.5 -2.5,20.7 0.9,0.6 -2.8,27.5 -6,43.8 -0.4,1.8 -0.6,3.3 -0.6,3.4 0.1,0 0.6,0.2 1.3,0.5 0.7,0.2 1.5,0.8 2,1.2 0.7,0.8 1.1,0.8 1.1,0.1 z m 14.6,80.9 c 6.9,-0.6 10.8,-1.4 14.8,-3.5 2.7,-1.3 7.2,-5 6.9,-5.4 l -3.4,-1.7 -3.2,-1.7 -5.8,-0.5 c -3.2,-0.3 -7.7,-0.7 -10.1,-0.9 -11.4,-1 -12.6,-1 -13.1,-0.6 -0.3,0.3 -2.7,1.3 -5.4,2.4 -2.7,1 -5,2 -5.2,2.1 -0.3,0.3 1.6,2.9 3.2,4.5 2.7,2.3 6.5,4.5 10,5 2,0.5 5.6,0.5 11.3,0.3 z m 19.6,-15.2 c 6.3,-1.5 11.9,-4.7 15.1,-8.7 0.8,-0.9 1.3,-1.8 1.3,-1.9 0,-0.1 -1.1,-0.1 -2.7,0 -1.3,0.1 -9,-0.2 -16.9,-0.5 -8.2,-0.4 -15.3,-0.8 -16.4,-0.8 l -1.7,-0.1 -0.3,1.4 c -0.2,0.8 -0.6,1.7 -0.9,2.1 -0.3,0.3 -1.9,1.3 -3.6,2.2 -5.5,3 -6.2,3.4 -6.2,4.1 0,0.6 0.1,0.7 1.5,0.8 3.5,0.3 7.3,0.7 10.7,1 1.8,0.1 6.1,0.5 9,0.7 6.1,0.6 7.4,0.6 11.1,-0.3 z M 235,254.3 c 1.6,-0.5 3.3,-1.2 3.7,-1.4 1.5,-0.8 2.8,-3 3.6,-6 1,-3.7 1.2,-8.9 0.3,-7.4 -0.2,0.5 -1.9,1.3 -3.3,1.8 -1,0.3 -1.1,0.3 -1.7,-0.2 -0.3,-0.4 -0.6,-1.1 -0.7,-1.7 -0.2,-0.6 -0.4,-1.3 -0.5,-1.4 -0.2,-0.2 -0.2,-0.4 -0.1,-0.4 0.1,0 0,-0.4 -0.3,-0.8 -0.2,-0.4 -0.5,-0.8 -0.7,-0.8 -0.6,0 -2.1,1.6 -2.5,2.6 -0.3,0.6 -0.7,0.9 -1.4,1.2 -1.2,0.3 -2.1,-0.1 -3.8,-1.8 -1.4,-1.4 -1.4,-1.4 -2.4,0.9 -1.6,4 -2.2,8.5 -1.3,10.6 0.5,1.3 2.4,3.1 4.4,4 0.7,0.4 1.7,1.1 2.2,1.4 0.5,0.4 0.9,0.6 1.2,0.5 0.2,-0.1 1.7,-0.6 3.3,-1.1 z m 5.4,-16.1 c 0.4,-0.2 1,-0.8 1.4,-1.3 0.7,-0.7 1,-0.9 1.8,-0.9 0.7,0 1,0.2 1.1,0.5 0.2,0.3 0.3,0.3 0.8,-0.4 1.4,-2.3 2.3,-7.1 2,-10.2 -0.1,-1.4 -0.1,-1.5 -0.5,-1.1 -0.3,0.4 -1.7,1.1 -3.3,1.7 -0.8,0.3 -2.2,-0.4 -2.2,-1.2 0,-0.8 -0.8,-2.8 -1.3,-3.5 l -0.5,-0.7 -0.9,0.7 c -0.5,0.4 -1.2,1.1 -1.4,1.7 -0.7,1.2 -1.4,1.9 -2.1,1.9 -0.7,0 -3.4,-1.8 -3.9,-2.7 l -0.5,-0.7 -0.5,0.8 c -0.8,1.6 -1.4,3.5 -2,6.2 -0.4,2.4 -0.5,3 -0.2,4.6 0.3,1.7 0.7,2.5 1.9,3.4 0.4,0.4 0.6,0.2 1.5,-1 1,-1.5 2.6,-2.4 4,-2.4 0.7,-0.1 1,0.1 1.5,0.7 0.8,0.9 2,3.4 2,4 0,0.5 0.5,0.5 1.3,-0.1 z m 4.7,-15 c 0.6,-0.4 1.2,-1 1.4,-1.3 0.4,-0.7 2.1,-1.2 2.4,-0.6 0.2,0.4 0.3,0.4 1,-1.1 0.8,-1.7 1.6,-6.1 1.6,-8.7 0,-1.2 -0.1,-2.2 -0.3,-2.2 -0.1,0 -0.2,0.1 -0.2,0.3 0,0.2 -2.5,1.6 -3.7,1.9 -0.9,0.3 -2,-0.6 -2.2,-1.8 -0.2,-1.2 -1.3,-3.3 -1.7,-3.3 -0.5,0 -1.8,1.3 -2.4,2.5 -0.4,0.7 -0.8,1.2 -1.3,1.4 -0.8,0.2 -1,0.2 -2.1,-0.5 -0.7,-0.4 -1.6,-1.1 -2.1,-1.5 -0.4,-0.5 -0.8,-0.8 -0.9,-0.8 -0.3,0 -1.4,2.6 -1.9,4.7 -0.3,1.3 -0.5,3 -0.6,4.7 0,2.4 0.1,2.8 0.7,3.7 0.4,0.6 1,1.3 1.4,1.5 0.7,0.5 0.7,0.5 1.2,-0.1 0.3,-0.4 0.8,-1 1.1,-1.4 0.9,-1.1 2.9,-2 3.9,-1.8 0.5,0.2 1,0.5 1.2,0.7 0.5,0.6 2,3.7 2,4.1 0,0.4 0.4,0.3 1.5,-0.4 z m 3.2,-14.6 c 0.4,-0.2 1.1,-0.9 1.6,-1.5 0.8,-0.8 1.2,-1 2,-1 0.9,0 1,-0.2 1.4,-1.2 0.3,-0.6 0.7,-2 0.9,-3.1 0.4,-2 0.6,-6.8 0.4,-7.3 -0.1,-0.2 -0.6,0 -1.1,0.4 -0.5,0.4 -1.5,0.9 -2.3,1.2 -1.2,0.5 -1.4,0.5 -2,0.1 -0.6,-0.4 -0.8,-0.7 -0.9,-1.6 -0.1,-0.6 -0.5,-1.6 -0.9,-2.3 -0.5,-1 -0.8,-1.2 -1.1,-1 -0.7,0.4 -1.6,1.4 -2.2,2.6 -0.3,0.5 -0.8,1.2 -1.2,1.4 -0.6,0.3 -0.8,0.3 -1.9,-0.3 -0.7,-0.4 -1.7,-1.1 -2.3,-1.6 -1.1,-1.1 -1.3,-1.2 -1.1,-0.6 0.1,0.2 0,0.3 -0.1,0.2 -0.2,0 -0.3,-0.1 -0.3,0 0,0 -0.2,0.7 -0.5,1.5 -0.8,2.3 -1.3,5.2 -1.3,7.5 0,1.9 0.1,2.2 0.8,3.2 0.9,1.4 2.1,2.5 2.5,2.5 0.2,0 0.5,-0.4 0.8,-0.9 0.4,-1 2,-2.4 3.2,-2.8 1.2,-0.5 2.3,0.1 3.2,1.5 0.5,0.7 1,1.8 1.2,2.4 0.2,0.6 0.3,1.1 0.4,1.1 z m 4.7,-16.5 c 0.6,-0.8 1,-1.1 1.7,-1.2 0.9,-0.1 1,-0.3 1.4,-1.3 0.7,-1.6 1.3,-6.6 1.1,-8.7 -0.1,-1 -0.2,-1.9 -0.2,-2 -0.1,0 -0.4,0.2 -0.7,0.5 -0.7,0.7 -3.1,1.9 -3.8,1.9 -0.7,0 -1.8,-1.1 -1.8,-1.7 0,-0.7 -1.1,-3.2 -1.6,-3.5 -0.4,-0.3 -1.8,1.1 -2.4,2.4 -0.3,0.7 -0.7,1.3 -1.3,1.6 -0.7,0.4 -0.8,0.4 -2.1,-0.3 -0.8,-0.4 -1.7,-1.2 -2.2,-1.7 -1,-1 -1.1,-0.9 -1.8,1.2 -0.9,2.5 -1.4,5.7 -1.2,7.8 0.1,2.2 0,2 2.4,4.6 l 1.2,1.3 0.6,-0.9 c 1.2,-2.1 3.6,-3.6 5,-3.3 0.8,0.2 2.2,2 2.8,3.5 0.2,0.7 0.4,1.3 0.5,1.4 0.2,0.4 1.5,-0.5 2.4,-1.6 z m 1.4,-14.3 c 0.6,-0.4 1.2,-1 1.4,-1.4 0.4,-0.7 0.7,-1 1.5,-1 0.4,0 0.6,-0.2 0.7,-0.7 0.1,-0.4 0.3,-1.2 0.6,-1.9 0.4,-1.5 0.7,-6.6 0.4,-8.2 l -0.2,-1.1 -0.8,0.6 c -1.2,1.1 -3.6,2.1 -4.2,1.8 -0.7,-0.4 -1.2,-1.1 -1.2,-1.7 0,-0.5 -1.1,-2.9 -1.6,-3.4 -0.4,-0.4 -2,1.3 -2.5,2.6 -0.5,1.1 -1.3,1.7 -2.1,1.7 -0.6,0 -2.4,-1.1 -3.5,-2.1 l -1,-1 -0.5,1.3 c -1.6,4.7 -1.9,11.1 -0.5,11.1 1.4,0.5 1.8,3 3.4,3.2 0.1,0 0.5,-0.6 0.9,-1.2 1,-1.7 2.7,-2.8 4.1,-2.8 0.9,0 1.2,0.1 1.7,0.8 0.8,1.1 1.8,3.3 1.8,3.8 0,0.6 0.4,0.5 1.6,-0.4 z m 1.7,-15.2 c 0.5,-0.4 1.2,-1 1.4,-1.4 0.2,-0.5 0.6,-0.8 0.9,-0.9 0.8,-0.1 1.5,-1.9 1.8,-5.4 0.3,-2.3 0.3,-3.4 0,-4.8 -0.1,-1.1 -0.4,-1.9 -0.4,-1.9 -0.1,0 -0.5,0.3 -0.8,0.6 -0.3,0.4 -1.3,0.9 -2.1,1.2 -1.4,0.6 -1.5,0.6 -2.2,0.2 -0.4,-0.2 -0.8,-0.9 -1.2,-2 -0.3,-0.9 -0.8,-1.9 -1.1,-2.3 l -0.6,-0.8 -1,1.2 c -0.6,0.6 -1.2,1.5 -1.3,1.9 -0.2,0.5 -0.6,1.1 -1,1.3 -0.9,0.5 -2.5,0 -4.2,-1.6 l -1.3,-1.2 -0.4,1.1 c -0.9,2.7 -1.5,7.3 -1.2,9.8 0.1,1.1 0.2,1.3 1,1.6 0.5,0.2 1,0.6 1.2,0.9 0.4,0.8 1,1.4 1.9,1.9 0.6,0.5 0.6,0.5 1.5,-0.9 1.3,-1.9 3.4,-3.2 4.5,-2.8 1,0.3 3.2,3.5 3.2,4.6 0,0.5 0.3,0.4 1.4,-0.3 z m 2.2,-16.5 c 0.3,-0.4 0.6,-0.9 0.6,-1.1 0,-0.1 0.2,-0.3 0.5,-0.3 1.3,0 2.1,-8 1.2,-11.4 -0.2,-0.8 -0.2,-0.8 -0.8,-0.2 -0.3,0.3 -1.3,0.9 -2.2,1.3 -1.6,0.8 -1.6,0.8 -2.4,0.4 -0.5,-0.3 -0.8,-0.8 -0.9,-1.3 -0.2,-0.9 -1.6,-3.6 -2,-3.6 -0.4,0 -2.1,2.3 -2.3,3 -0.2,0.8 -1.1,1.5 -1.9,1.5 -0.8,0 -2.4,-0.8 -3.5,-2 l -1,-0.9 -0.3,0.7 c -0.1,0.4 -0.4,1.1 -0.5,1.4 -0.7,1.8 -1,7.3 -0.6,9.4 0.2,0.7 0.3,0.8 1,0.9 0.6,0.1 1.1,0.3 1.5,0.9 0.6,0.9 1.4,1.6 2.1,2.1 0.3,0.2 0.5,0 1,-0.7 0.8,-1.3 1.6,-2.2 2.7,-2.8 1.5,-0.8 2.4,-0.7 3.3,0.4 0.7,0.9 1.7,2.7 2.1,3.7 0.1,0.4 0.1,0.4 0.9,0 0.5,-0.3 1.1,-0.9 1.5,-1.4 z M 258,131.4 c 1.2,-1.1 2.1,-2.7 2.4,-4.1 0.5,-2.2 0.6,-4.9 0.3,-7.5 -0.1,-1.6 -0.3,-2.8 -0.4,-2.8 -0.1,0 -0.6,0.4 -1.2,0.9 -1.3,1 -2.6,1.7 -3.2,1.7 -0.7,0 -1.7,-0.8 -1.7,-1.3 0,-0.5 -1.1,-2.8 -1.7,-3.5 -0.3,-0.5 -0.4,-0.5 -1.3,0.4 -0.5,0.6 -1.1,1.5 -1.3,2.1 -0.2,0.7 -0.6,1.2 -1.2,1.5 -0.8,0.4 -0.9,0.3 -2.2,-0.3 -0.8,-0.3 -1.7,-1 -2.2,-1.5 -0.5,-0.5 -1,-0.8 -1.1,-0.6 0,0.1 -0.3,1.2 -0.7,2.5 -0.4,1.6 -0.5,3.1 -0.5,5.3 0,3.9 0.1,4.3 1.5,4.4 0.7,0 1.1,0.2 1.4,0.6 0.6,0.9 2.4,2.6 2.8,2.6 0.2,0 0.4,-0.3 0.5,-0.6 0.4,-1.6 3.5,-4.2 4.6,-3.8 0.8,0.3 1.9,1.2 2.2,1.8 0.1,0.3 0.5,1 0.7,1.4 0.3,0.4 0.5,1 0.5,1.3 0.1,0.6 0.9,0.4 1.8,-0.5 z m 1.1,-16.5 c 0.2,-0.6 0.6,-0.9 1.3,-1 1,-0.2 1,-0.4 1.5,-1.8 0.3,-0.9 0.5,-2.4 0.5,-3.3 0,-3.3 -1.5,-4.4 -4.7,-3.4 -0.4,0.2 -0.7,0 -1.1,-0.3 -0.5,-0.5 -0.6,-0.8 -0.4,-2.1 0.3,-3 -0.9,-4.54 -3.4,-4.54 -2.6,0 -4,1.94 -3.4,4.64 0.2,0.9 0.2,1.1 -0.5,1.6 -0.5,0.4 -0.8,0.5 -1.5,0.3 -3,-0.8 -5.1,2.1 -4.4,6.1 0.3,1.6 0.5,2 1.7,3.3 1.2,1.3 2.7,2.5 3,2.2 0,-0.1 0.3,-0.6 0.7,-1.3 1,-1.6 2.8,-3.1 3.8,-3.1 0.9,0 2.1,1.2 3,2.9 0.4,0.8 0.8,1.6 0.9,1.8 0.3,0.5 2.5,-1.1 3,-2 z M 186,251.4 c 2,-1 3.7,-2.7 4.6,-4.6 1,-2.4 1.5,-7.6 0.6,-7.6 -0.6,0 -2.6,1.6 -3.8,2.9 -1.6,1.8 -2.8,4.1 -3.3,6.4 -0.3,1.7 -0.3,3.7 0.1,3.7 0.1,0 0.9,-0.4 1.8,-0.8 z m -13.4,-5.5 c -0.5,-2.6 -2.8,-5.8 -5.6,-7.8 -1.3,-0.9 -4.5,-2.1 -4.7,-1.9 -0.5,0.8 1.3,5.5 2.7,7.2 1.5,1.9 4.5,3.5 6.7,3.5 h 1.1 z m 11.4,-11 c 4.2,-2 6.5,-7.8 5.3,-13.4 -0.3,-1.3 -0.3,-1.4 -1,-1.2 -2.7,0.6 -6.6,5.8 -7.5,9.6 -0.3,1.4 -0.2,5.2 0.1,5.8 0.3,0.4 1.3,0.1 3.1,-0.8 z m -13.2,-4.3 c 0.2,-0.8 -0.4,-3.6 -1.3,-5.4 -1.2,-2.5 -4.1,-5.2 -6.6,-6.4 -1.1,-0.6 -2.4,-1.1 -3,-1.2 l -1,-0.1 v 1 c 0,1.7 0.8,4.6 1.7,6.4 0.9,1.8 2.9,4 4.2,4.7 2.4,1.2 5.6,1.8 6,1 z m 9.6,-12.4 c 2,-0.9 4,-2.8 5,-4.7 1,-2 1.6,-5.1 1.4,-6.9 -0.2,-1.7 -0.9,-4.4 -1.2,-4.4 -0.1,0 -0.7,0.3 -1.4,0.8 -3.8,2.5 -6.6,8.3 -6.2,12.6 0.2,1.4 0.7,3.2 0.9,3.2 0.1,0 0.7,-0.3 1.5,-0.6 z m -12.5,-5.4 c 0,-5 -4.3,-10.7 -9.3,-12.5 -2,-0.7 -2.1,-0.5 -1.9,2.2 0.4,4.7 2.6,8.6 6,10.3 1.6,0.8 3.1,1.2 4.2,1.2 l 1,0.1 z M 178,200.9 c 0.7,-0.3 2,-1.2 2.7,-1.9 0.8,-0.8 1.5,-1.3 1.6,-1.1 0.2,0.1 0.2,0 0.1,-0.1 -0.1,-0.2 0.1,-1 0.4,-1.7 1.4,-3 1.6,-6.9 0.5,-9.9 -0.3,-0.9 -0.6,-1.6 -0.7,-1.7 -0.6,-0.6 -3.6,2.3 -5,4.8 -1.4,2.5 -2,4.6 -2,7.3 0,1.9 0.6,5 0.9,5 0.1,0 0.8,-0.3 1.5,-0.7 z m -13,-4.6 c 0.5,-3.2 -1.7,-8.6 -4.6,-11 -1.6,-1.4 -4.5,-3 -5.4,-3 -1.2,0 -0.8,5.7 0.7,8.6 0.9,2 2.9,4.1 4.5,5 1.2,0.7 3.9,1.5 4.4,1.4 0.2,-0.1 0.3,-0.5 0.4,-1 z m 10.7,-12.5 c 2.7,-1.6 4.9,-5 5.4,-8.1 0.4,-2.8 -0.4,-7.4 -1.5,-8.7 l -0.5,-0.6 -1.4,1.3 c -3,2.7 -4.7,6.7 -4.7,10.9 0,2.1 0.5,4.5 1.2,5.6 0.2,0.3 0.2,0.3 1.5,-0.4 z m -13.5,-4.2 c 0.8,-3.7 -0.9,-8.2 -4.3,-11.6 -2.4,-2.4 -5.2,-4 -5.7,-3.2 -0.4,0.7 -0.3,5.6 0.2,7.2 1.2,4 4.2,7.1 7.9,8.2 1.3,0.4 1.7,0.3 1.9,-0.6 z m 11.3,-13.2 c 3.8,-2.3 5.8,-7.8 4.7,-13 -0.3,-1.6 -1.8,-4.7 -2.2,-4.7 -0.6,0 -3.3,3.2 -4.1,4.8 -1.3,2.8 -1.7,4.7 -1.5,7.8 0.1,2.2 0.2,2.9 0.8,4.3 0.4,0.9 0.8,1.6 0.9,1.6 0,0 0.7,-0.3 1.4,-0.8 z m -14.1,-4.2 c 0.4,-1.7 0.4,-2.1 -0.1,-4.4 -0.5,-2.7 -1.9,-5.3 -3.7,-7.3 -1.5,-1.5 -4.5,-3.6 -5.3,-3.6 -0.4,0 -0.9,2.1 -0.9,4.2 0,5.3 2.9,10.1 7.3,11.9 2.1,0.8 2.4,0.7 2.7,-0.8 z m 13.2,-14.3 c 2.8,-3 3.9,-7.6 2.9,-11.9 -0.5,-1.9 -1.9,-4.7 -2.5,-4.9 -0.6,-0.3 -2.7,2 -3.8,4.3 -1.4,2.9 -2,6.1 -1.6,8.9 0.3,2 1,3.8 1.8,5.2 0.4,0.5 0.4,0.5 1.2,0.1 0.5,-0.3 1.3,-1 2,-1.7 z m -16.1,-2.1 c 0.4,-1.3 0.4,-4.9 -0.1,-6.6 -0.9,-2.9 -2.7,-5.9 -4.9,-7.8 -1.2,-1.1 -3.5,-2.3 -3.7,-2.1 -0.4,0.5 -0.9,3 -0.9,4.9 0,5.2 2.6,9.7 6.8,11.7 1.1,0.5 2,0.9 2.2,0.9 0.1,-0.1 0.4,-0.5 0.6,-1 z m 12.7,-15.4 c 3.3,-3.7 3.9,-9.7 1.5,-14.6 -0.9,-1.6 -1.1,-1.7 -1.9,-0.8 -2.8,3.6 -3.9,9.4 -2.6,13.5 0.5,1.4 1.4,3 1.7,3 0.1,0 0.7,-0.5 1.3,-1.1 z m -16.2,-2 c 0.1,-0.2 0.2,-1.3 0.3,-2.4 0.3,-4.5 -2.2,-10 -5.9,-12.5 -0.7,-0.5 -1.3,-0.7 -1.3,-0.7 -0.3,0.3 -0.9,3.3 -0.9,4.6 0,1.8 0.8,4.7 1.8,6.5 1,1.7 2.8,3.5 4.3,4.4 1.4,0.7 1.4,0.7 1.7,0.1 z m 6,-14.8 c 1.1,-2 1.4,-4.3 1,-6.5 -0.4,-2.2 -1.5,-4.5 -2.8,-5.7 l -0.9,-0.9 -0.6,1.3 c -0.8,1.9 -1.2,4.7 -0.8,7 0.4,2.5 2.3,6 3.2,6 0.2,0 0.6,-0.5 0.9,-1.2 z m -20,190.7 c 6.1,-2.1 12.3,-3.4 20.7,-5 0.7,-0.3 1.3,-0.8 2.3,-1.9 0.7,-0.8 2.1,-2.4 3.1,-3.4 l 1.7,-1.9 -0.8,-2.4 c -0.7,-2.1 -0.8,-2.9 -0.9,-5.8 -0.1,-2.9 0,-3.6 0.4,-5.3 0.7,-2.1 2.3,-4.1 3.8,-4.7 0.8,-0.4 0.8,-0.4 0.6,-2 -0.4,-4 -0.4,-4.1 -1.1,-4.7 -0.4,-0.3 -1.4,-1.1 -2.2,-1.9 l -1.4,-1.3 -6.9,1.1 c -8.4,1.4 -7.9,1.5 -8.7,-2.1 -0.1,-0.4 -1.7,-2 -4.2,-4.3 -5.8,-5.5 -6.7,-6.3 -6.8,-6.3 -0.3,0 -1.9,2.9 -2.3,4.3 -0.5,1.7 -0.6,4.3 -0.2,5.4 0.2,0.4 0.9,1.1 1.5,1.5 3.9,2.4 16.1,10.5 16.8,11.2 4,3.6 3.9,10.1 -0.2,15.7 -4,5.3 -10.4,8.5 -18.3,9 h -2.6 l 0.3,0.8 c 0.2,0.6 0.3,1.9 0.3,3.2 0,1.3 0.1,2.4 0.2,2.4 0.1,0 2.3,-0.8 4.9,-1.6 z m -4.8,-12.7 c 2.5,-0.8 6.2,-2.7 8.1,-4.2 1.9,-1.7 4.3,-4.6 4.1,-5.2 -0.1,-0.1 -2.3,-1.1 -5.1,-2.2 -2.7,-1.1 -5.2,-2.1 -5.5,-2.4 -0.3,-0.2 -0.8,-0.4 -1.4,-0.3 -1,0 -2.3,0.1 -18.9,1.6 l -8.6,0.7 -3.3,1.7 c -1.8,0.9 -3.3,1.7 -3.4,1.7 -0.2,0.3 2.3,2.4 4.5,3.8 3.4,2.4 7.1,3.7 11.6,4.5 5.6,0.8 15.1,1.1 17.9,0.3 z m 48.4,0 c 2.9,-0.5 5.9,-1.3 8.4,-2.1 l 1.6,-0.8 0.1,-1.9 0.1,-2 -1.8,-1.5 c -1.8,-1.4 -3.5,-3.1 -4,-4 -0.2,-0.3 -0.9,-0.5 -3.8,-0.6 -4.2,-0.4 -6.9,-1 -9.4,-2.3 -2.2,-1.1 -3,-1.2 -4.3,-0.3 -2.8,1.9 -3.4,8.2 -1.3,13.6 0.6,1.6 0.7,1.9 1.6,1.9 1.8,0.3 10.1,0.3 12.8,0 z m -66.3,-14.8 c 19.9,-1.7 18.4,-1.5 18.2,-2.4 -0.1,-0.6 -1.7,-1.7 -7.3,-4.7 -2.3,-1.2 -2.7,-1.6 -3.2,-3.5 l -0.4,-1.5 -1.9,0.1 c -1,0 -8.2,0.4 -16.1,0.8 -7.79,0.3 -15.49,0.6 -16.99,0.5 -1.5,-0.1 -2.7,0 -2.7,0.1 0,0.5 3.4,4.1 5,5.3 1.8,1.4 6,3.6 8.4,4.4 1.59,0.5 6.39,1.6 7.19,1.6 0.3,0.1 4.7,-0.3 9.8,-0.7 z m 69.5,-0.4 c -0.1,-0.3 -0.3,-0.9 -0.3,-1.4 l -0.2,-1 -2.3,-0.5 c -3.1,-0.6 -6.2,-1.6 -9,-3 -1.2,-0.6 -2.2,-1.1 -2.3,-1.1 0,0.1 0,0.9 0.2,2 l 0.1,1.8 2.2,1.1 c 3,1.6 6.2,2.3 10.3,2.4 1.2,0.1 1.4,0 1.3,-0.3 z m -78.2,-13 c 7.7,-0.4 14.3,-0.6 14.9,-0.6 0.9,0 0.9,0 1.2,-1.7 0.2,-0.8 0.8,-2.2 1.3,-3 0.5,-0.8 0.9,-1.5 0.9,-1.6 0,0 -0.5,-0.3 -1.1,-0.6 -1.2,-0.6 -1.7,-1.6 -2.2,-4.2 -0.1,-0.9 -0.4,-1.8 -0.5,-1.8 -0.2,0 -3.8,-0.3 -8,-0.5 -4.2,-0.2 -10.4,-0.6 -13.6,-0.8 -3.29,-0.2 -9.39,-0.6 -13.49,-0.8 -4.2,-0.2 -8.3,-0.4 -9.1,-0.5 -0.8,0 -1.5,0 -1.5,0.1 0,0.4 2.7,4.7 4.1,6.5 2.4,3.1 6,6.6 9.4,8.9 1.3,1 1.9,1.2 2.8,1.3 0.5,0 7.29,-0.3 14.89,-0.7 z m 51.1,-0.4 c 6.6,-1.1 6.1,-0.9 6.1,-1.8 0,-0.8 0,-0.8 -1.3,-0.6 -2.6,0.2 -6,-1 -8.1,-3 l -1.1,-1.2 -0.7,0.7 c -1.5,1.4 -2.3,3.8 -1.9,5.9 0.2,1.3 -0.6,1.3 7,0 z m -36.1,-16.5 c 0.1,-0.7 0.4,-2 0.7,-2.9 0.3,-0.8 0.4,-1.5 0.4,-1.6 -0.1,0 -0.7,-0.3 -1.5,-0.6 -0.8,-0.3 -4.8,-1.9 -8.8,-3.5 -7.6,-3.1 -17.19,-7 -26.39,-10.7 -9.5,-3.9 -11.5,-4.7 -14.5,-6 -1.7,-0.7 -3.1,-1.3 -3.3,-1.3 -0.5,0 1.6,7 3.2,10.4 1.4,2.9 3.9,6.8 6.1,9.1 1.9,2.2 6.6,6.1 7.5,6.3 0.3,0 5.1,0.3 10.6,0.6 5.59,0.4 13.39,0.8 17.39,1.1 4,0.2 7.5,0.5 7.8,0.5 0.5,0 0.6,-0.1 0.8,-1.4 z m 0.4,-8.6 c -0.1,-1 0.1,-1.9 0.5,-3.1 0.3,-0.9 0.5,-1.7 0.5,-1.8 0,0 -2.6,-2 -5.7,-4.3 -3.2,-2.3 -5.8,-4.2 -5.9,-4.3 -0.1,-0.1 -1.1,-0.9 -2.3,-1.7 -2.4,-1.7 -4.9,-3.6 -10.39,-7.6 -2.1,-1.5 -5,-3.7 -6.5,-4.7 -5.2,-3.8 -11.4,-8.3 -13.5,-9.9 -5.1,-3.7 -8.9,-6.3 -9.1,-6.1 -0.1,0.1 -0.2,2.1 -0.1,4.5 0,3.5 0.1,5 0.6,7.1 1.1,5.1 2.7,9.4 5.2,13.3 0.6,1 1.2,1.9 1.3,1.9 0,0 3,1.2 6.6,2.7 3.6,1.4 9.6,3.9 13.4,5.4 18.29,7.4 23.19,9.4 23.99,9.7 1.5,0.7 1.5,0.6 1.4,-1.1 z m 3.8,-9.4 0.3,-2 -2.9,-3.6 c -1.6,-2 -3.4,-4.3 -4,-5.1 -0.6,-0.8 -2.2,-2.9 -3.6,-4.7 -1.4,-1.7 -3.4,-4.3 -4.5,-5.7 -1.1,-1.4 -4.7,-6 -8.1,-10.3 -18.19,-23.3 -19.29,-24.6 -20.89,-27 -0.7,-1.1 -1.4,-2 -1.5,-2 -0.4,0.1 -1.9,3.1 -2.7,5.2 -2.8,7.5 -3.5,16.3 -1.7,21.6 l 0.6,1.8 4.1,3 c 2.3,1.6 5.1,3.7 6.3,4.5 6.4,4.7 15.19,11.1 15.99,11.7 0.5,0.4 3.1,2.3 5.8,4.3 2.7,2 7.3,5.3 10.2,7.4 5.3,3.9 5.3,3.9 5.8,3.4 0.4,-0.4 0.6,-1.2 0.8,-2.5 z m 2.7,-5.4 c 0.9,-0.9 1.5,-1.7 1.8,-2.5 0.4,-1.2 0.4,-1.3 -0.4,-2.9 -0.4,-0.9 -2.3,-4.9 -4.2,-8.9 -2,-4 -4.2,-8.6 -4.9,-10.2 -0.8,-1.6 -2.4,-4.8 -3.5,-7.2 -1.1,-2.3 -2.5,-5.2 -3.2,-6.6 -0.9,-2.1 -2.5,-5.4 -9.1,-19.2 -0.9,-1.8 -2.3,-4.7 -3.2,-6.4 -4.29,-9 -4.99,-10.5 -6.19,-12 l -1.2,-1.7 -0.9,1.3 c -3.5,4.9 -5.7,10.5 -7,17.7 -0.3,1.5 -0.6,3.9 -0.7,5.1 l -0.1,2.3 2.3,2.9 c 1.3,1.6 2.9,3.6 3.6,4.5 4.1,5.2 11.69,15 18.19,23.2 2.4,3 5.1,6.5 5.9,7.6 4.9,6.3 11.3,14.3 11.4,14.3 0,0 0.6,-0.6 1.4,-1.3 z m 5.7,-6.9 c 0.5,0 0,-2.3 -1.6,-8.5 -0.9,-3.3 -2.2,-7.9 -2.8,-10.3 -0.7,-2.4 -1.8,-6.8 -2.7,-9.8 -2.4,-9.3 -9,-33.8 -11.8,-44.2 -1.4,-5.4 -3.2,-11.7 -3.9,-13.9 l -1.5,-4.5 c -0.1,-0.4 -0.2,-0.6 -0.4,-0.6 -0.4,0 -3.3,3.1 -4.5,5 -3.2,4.8 -5.5,11.4 -6,17 l -0.1,1.9 3,6.4 c 1.7,3.5 3.8,7.9 4.8,9.9 4.8,10 5.7,11.9 8,16.7 1.3,2.8 3.4,7.1 4.6,9.6 1.2,2.5 2.7,5.6 3.3,6.9 1.4,2.8 4.7,9.8 7.5,15.5 l 2,4.2 0.9,-0.7 c 0.5,-0.3 1,-0.6 1.2,-0.6 z m 4.7,-6.7 c 1.2,-0.3 1.2,-0.3 0.8,-2 -1.4,-5.7 -4.2,-23.4 -5.3,-32.3 -0.2,-1.4 -0.4,-3.3 -0.5,-4.3 -0.6,-4.2 -0.9,-8.7 -0.6,-8.9 0.2,-0.2 -0.5,-6.3 -2.6,-21.6 -0.3,-2.1 -1.5,-11.1 -2.3,-17.2 -0.2,-1.6 -0.6,-4.8 -0.9,-7.2 -0.3,-2.3 -0.6,-4.9 -0.7,-5.7 -0.1,-0.9 -0.3,-1.5 -0.4,-1.5 -0.3,0 -3.4,3.9 -5.1,6.5 -3.4,5.1 -5.5,10.1 -6.4,14.9 l -0.4,2.5 2.4,9 c 1.4,5 2.6,9.6 2.8,10.3 0.2,0.8 2,7.4 3.9,14.7 2,7.4 5.2,19.2 7.1,26.3 1.9,7.2 3.7,14.1 4.1,15.5 0.4,1.4 0.8,2.7 0.8,2.9 0.1,0.2 0.4,0 1.1,-0.6 0.6,-0.5 1.6,-1.1 2.2,-1.3 z m 132.4,114.6 c -0.3,-0.2 -0.4,-0.8 -0.4,-2.3 0,-1.1 -0.1,-2.2 -0.1,-2.2 0,0 -0.5,0 -0.9,0.3 -0.5,0.3 -0.9,0.5 -1.3,1.3 -0.4,1.1 -0.9,1.4 -1.3,0.8 -0.2,-0.5 3.1,-7.1 3.5,-7.1 0.7,0 0.7,0.8 0,2.1 -0.4,0.8 -0.7,1.3 -0.7,1.3 0,0.3 0.9,-0.2 2.1,-0.8 1.8,-0.8 2.1,-1 2.7,-0.5 0.6,0.3 0.6,0.3 -1.2,1.1 l -1.8,0.7 0.2,3 c 0.2,2.6 0.1,2.9 -0.8,2.3 z M 135,320.7 c -0.9,-1.9 -1.6,-3.4 -1.7,-3.4 -0.1,-0.3 2.5,-1.6 3.4,-1.6 1,0 2.6,1.3 3.2,2.6 0.6,1.3 0.7,3.2 0.1,4 -0.3,0.5 -2.8,1.8 -3.2,1.8 -0.1,0 -0.9,-1.5 -1.8,-3.4 z m 3.5,1.3 c 1,-0.5 1.1,-1.3 0.3,-2.9 -0.6,-1.3 -1,-1.8 -1.6,-2.1 -0.5,-0.3 -2.3,0.3 -2.3,0.8 0,0.5 2.2,4.8 2.4,4.8 0.2,0 0.7,-0.3 1.2,-0.6 z m 128,-0.8 c -0.3,0 -0.4,-0.2 -0.4,-1 0,-1.4 -0.1,-1.4 -1.2,-1.6 -1.4,-0.5 -1.4,-0.5 -2.1,0.2 -0.4,0.3 -0.7,0.6 -1,0.3 -0.3,0 -0.5,-0.3 -0.4,-0.3 0.1,-0.5 5.2,-6 5.5,-6 1,0 1.1,0.2 0.8,3.4 -0.5,4.8 -0.6,5.3 -1.2,5 z m -0.1,-4.5 c 0.1,-0.5 0.2,-1.3 0.2,-1.6 0,-0.5 -0.1,-0.5 -1.1,0.6 -0.5,0.5 -1,1 -1,1.3 0,0.3 1.1,0.8 1.6,0.8 0.1,0 0.2,-0.5 0.3,-1.1 z m -123.8,4 c -0.1,-0.3 -0.9,-1.9 -1.7,-3.4 -1,-2.7 -1.2,-3.2 -1,-3.5 0.2,-0.2 0.5,-0.2 0.5,-0.2 0.1,0 0.9,1.5 1.8,3.7 1.3,2.6 1.6,3.7 1.3,3.7 -0.5,0.2 -0.6,0.2 -0.9,-0.3 z m 1.3,-4 c -0.7,-1.8 -1.4,-3.4 -1.4,-3.7 -0.1,-0.2 0.5,-0.5 1.8,-1 2.3,-0.8 3,-0.8 3.7,0.8 0.4,0.8 0.4,1 -0.1,1.8 -0.6,1.1 -0.6,1.1 0,1.3 0.7,0 2.6,1.9 2.4,2.2 -0.3,0.5 -1.1,0.2 -2.5,-0.8 -2.2,-1.6 -3.1,-1.4 -2.1,0.8 0.7,1.5 0.7,1.8 0,1.8 -0.4,0.3 -0.7,-0.3 -1.8,-3.2 z m 1.9,-1.6 c 0.5,-0.2 1,-0.5 1.1,-0.8 0.3,-0.5 -0.1,-1.5 -0.7,-1.5 -0.4,-0.3 -1.8,0.2 -2.3,0.8 -0.1,0 0.7,1.8 0.8,1.8 0.1,0 0.6,-0.3 1.1,-0.3 z m 111.6,2.2 c -0.4,-0.3 -0.6,-0.8 -0.6,-0.8 0,-1.4 1.3,-1.9 1.3,-0.6 0,0.8 0.5,1.1 1.2,0.8 0.2,0 0.9,-1.3 1.5,-3.1 0.6,-1.6 1.2,-3 1.3,-3 0.1,0 0.3,0 0.5,0.3 0.3,0.3 0.2,0.5 -0.5,2.7 -1.5,3.9 -1.9,4.5 -3.3,4.5 -0.6,0 -1,-0.3 -1.4,-0.8 z m -106,0 c -0.5,-1.1 -2.5,-6.9 -2.5,-6.9 0,-0.3 4,-1.6 4.4,-1.6 0.4,0.3 0.5,1.1 0.1,1.1 -0.1,0 -0.9,0.2 -1.7,0.5 -1.4,0.5 -1.5,0.5 -1.2,1.3 0.5,1.1 0.6,1.1 2.2,0.5 1.3,-0.5 1.5,-0.5 1.6,-0.2 0.3,0.8 -0.1,1 -1.4,1.6 -0.8,0 -1.4,0.2 -1.4,0.5 0,0.2 0.7,2.1 0.8,2.1 0.1,0 0.8,-0.3 1.6,-0.5 1.5,-0.6 2.1,-0.6 2.1,0 0,0.2 0,0.5 -0.1,0.5 -0.1,0 -1.1,0.3 -2.2,0.8 -1.9,0.8 -2.1,0.8 -2.3,0.3 z m 103.7,-0.6 c -0.3,-0.2 -0.4,-0.5 -0.4,-1 0,-1.1 -0.1,-1.1 -1.3,-1.4 l -1.2,-0.5 -0.7,0.8 c -0.5,0.5 -0.8,0.8 -1.1,0.5 -0.3,0 -0.5,-0.2 -0.5,-0.2 0.1,0 1,-1.6 2.2,-3.2 1.5,-2.4 2.4,-3.4 2.8,-3.4 0.3,0 0.6,0 0.7,0.2 0.2,0.8 0.4,8.5 0.2,8.5 -0.1,0 -0.4,-0.3 -0.7,-0.3 z m -0.4,-5 c 0,-0.8 -0.1,-1.6 -0.1,-1.6 -0.2,0 -1.8,2.4 -1.8,2.4 0,0.3 1.1,0.8 1.5,0.8 0.3,0 0.4,-0.5 0.4,-1.6 z m -97.2,3.7 c 0,-0.3 -0.5,-1.8 -0.9,-3.4 -0.5,-1.9 -0.9,-3.5 -1,-3.7 -0.1,-0.3 0.1,-0.6 0.4,-0.6 0.5,-0.2 0.6,0 1,1.4 0.2,0.5 0.4,1.3 0.4,1.5 0,0.8 0.5,0 1.2,-1.8 0.6,-1.3 0.9,-1.9 1.4,-2.1 0.3,-0.3 0.7,-0.3 0.7,-0.3 0,0.3 -0.2,1.1 -0.6,1.9 l -0.7,1.8 1.7,1.9 c 1,1 1.8,1.8 1.8,2.1 0,0.2 -0.3,0.2 -0.7,0.2 -0.6,0 -1,-0.2 -1.9,-1.5 -0.6,-0.8 -1.3,-1.4 -1.4,-1.4 -0.1,0 -0.3,0.3 -0.5,0.8 -0.3,0.8 -0.3,1.4 0.2,2.7 0.1,0.5 -1,1 -1.1,0.5 z m 87.7,-2.6 c 0.2,-1.1 1.7,-6.7 1.9,-6.9 0.2,0 2.9,0.8 3.5,1 0.5,0.6 0.6,0.8 0.6,1.9 0,0.8 -0.1,1.3 -0.7,1.8 -0.9,0.8 -1.4,0.8 -3.3,0.3 -0.3,0 -0.5,0.3 -0.7,1.3 -0.3,1.4 -0.5,1.6 -0.9,1.6 -0.4,0 -0.5,0 -0.4,-1 z m 4.8,-3.5 c 0.4,-0.8 0,-1.3 -1.1,-1.6 -1,-0.2 -1.2,-0.2 -1.5,1.1 -0.2,1.1 0,1.3 1.5,1.3 0.6,0 0.8,-0.2 1.1,-0.8 z m -85.2,0.8 -0.7,-2.9 H 163 c -0.8,0 -1,-0.3 -1,-0.5 0,-0.6 0,-0.6 4.3,-1.6 0.5,-0.3 0.6,-0.3 0.6,0.3 0,0.5 -0.1,0.7 -0.3,0.7 -0.1,0 -0.5,0 -0.9,0.3 l -0.6,0.3 0.8,2.9 c 0.7,3.2 0.8,3.7 0.1,3.7 -0.3,0 -0.6,-1.1 -1.2,-3.2 z m 75.7,2.7 c -0.1,-0.3 -1,-0.3 -1.9,-0.6 -0.9,-0.2 -1.6,-0.5 -1.6,-0.8 0,-0.2 0.9,-4.7 1.4,-6.8 0.1,-0.3 0.3,-0.6 0.7,-0.3 0.4,0 0.5,0.3 0.4,0.5 -0.4,1.9 -1,5.1 -1.1,5.6 0,0.5 0.2,0.8 1.5,0.8 1.2,0.2 1.5,0.5 1.5,1 0.1,0.6 -0.2,0.6 -0.9,0.6 z m -70.6,-1.6 c -2,-2.1 -1.9,-6.4 0.3,-7.2 1.7,-0.5 3.1,0 4.1,1.9 0.7,1.3 0.7,4.2 0,5 -1.3,1.3 -3.1,1.6 -4.4,0.3 z m 3.2,-0.8 c 0.9,-0.8 0.6,-3.7 -0.3,-4.8 -0.4,-0.5 -1.8,-0.8 -2.4,-0.2 -1.3,0.7 -0.7,4.7 0.8,5.2 0.6,0.3 1.4,0 1.9,-0.2 z m 61.6,0.8 c 0,-0.3 -0.1,-0.8 -0.2,-1.1 -0.2,-0.5 -0.4,-0.8 -1.2,-0.8 -0.6,-0.2 -1.2,-0.2 -1.4,-0.5 -0.3,0 -0.5,0.3 -0.8,0.8 -0.3,1 -0.9,1.3 -1.4,0.8 -0.1,0 3.3,-6.9 3.7,-7.4 0.1,0 0.4,0 0.7,0.2 0.6,0.3 0.7,0.6 1.1,3.7 0.3,1.9 0.5,3.7 0.6,4 0.1,0.5 0,0.5 -0.4,0.5 -0.3,0 -0.6,-0.2 -0.7,-0.2 z m -0.9,-6.1 c -0.1,-0.3 -0.4,0 -0.8,0.8 -0.8,1.8 -0.8,1.8 0.1,2.1 l 0.8,0.3 0.1,-1.6 c 0.1,-0.8 0,-1.6 -0.2,-1.6 z m -57.2,5.3 c 0,-0.3 -0.2,-2.1 -0.4,-4 -0.3,-1.6 -0.4,-3.2 -0.3,-3.2 0.3,-0.5 3.5,-0.8 4.1,-0.5 0.9,0.3 1.5,1.9 1.1,2.9 -0.2,0.5 -0.6,1.1 -0.8,1.1 -0.5,0.2 -0.5,0.2 0,0.5 0.2,0.3 0.8,1.1 1.3,1.6 0.7,1.1 0.8,1.3 0.4,1.3 -0.7,0.3 -0.8,0.3 -1.9,-1 -0.9,-1.4 -1.2,-1.6 -1.9,-1.6 -0.8,0 -0.8,0 -0.6,1 0.3,1.9 0.3,2.1 -0.4,2.4 -0.4,0 -0.6,0 -0.6,-0.5 z m 3.3,-4.8 c 0.3,-0.2 0.1,-1.3 -0.4,-1.6 -0.2,-0.2 -0.8,-0.2 -1.4,-0.2 -0.9,0.2 -0.9,0.2 -0.9,1.3 0,0.5 0,1 0.1,1 0.2,0.3 2.2,-0.2 2.6,-0.5 z m 3.2,3.7 c 1.6,-7.4 1.6,-7.4 2.3,-7.7 0.5,0 0.8,0 0.9,0.6 0.1,0.2 0.8,2.1 1.6,3.7 1.2,2.6 1.4,3.2 1.1,3.4 -0.6,0.6 -0.7,0.3 -1.1,-0.5 -0.4,-1.1 -0.8,-1.3 -2.5,-0.8 -0.6,0 -0.8,0.3 -1,0.8 -0.2,1.1 -0.5,1.3 -1.1,1.3 -0.2,0 -0.3,-0.2 -0.2,-0.8 z m 3.7,-2.9 c 0,0 -0.2,-0.8 -0.6,-1.6 -0.7,-1.6 -0.8,-1.6 -1.2,0.8 l -0.2,1.1 h 0.9 c 0.5,0 1,0 1.1,-0.3 z m 40.5,2.4 c -0.6,-1.3 -1.3,-2.4 -2,-2.4 -0.4,0 -0.5,0.3 -0.6,1.6 -0.1,1.9 -0.2,1.9 -0.8,1.6 -0.4,0 -0.5,-0.3 -0.3,-1.9 0.1,-1 0.3,-2.6 0.4,-3.7 0.1,-1.3 0.2,-2.1 0.3,-2.1 0,-0.3 1,0 2.1,0 1.6,0.3 2,0.3 2.4,0.8 0.9,1.1 0.3,3.2 -1.1,3.7 -0.1,0 0.1,0.8 0.5,1.9 1,1.8 1,1.8 0.2,1.8 -0.5,0 -0.8,-0.2 -1.1,-1.3 z m 0.5,-4.5 c 0,-0.8 0,-0.8 -1.1,-1.1 -1.4,-0.2 -1.6,0 -1.6,1.4 v 0.8 h 1.3 1.4 z m -10.5,4.8 h -0.8 l 0.2,-2.7 c 0.1,-1.3 0.2,-3.2 0.3,-4 l 0.2,-1.3 h 1.7 c 1.4,0.3 1.9,0.5 2.4,0.8 1.6,1.6 1.2,6.1 -0.8,7.2 -0.7,0.2 -1.6,0.2 -3.2,0 z m 3.4,-1.9 c 0.5,-1.3 0.5,-3.4 0,-4.2 -0.3,-0.3 -0.8,-0.6 -1.4,-0.6 l -1.1,-0.2 -0.1,1.3 c -0.1,0.5 -0.2,1.9 -0.2,2.9 v 1.6 h 1.2 c 1.1,0 1.2,0 1.6,-0.8 z m -29.6,-0.5 c -0.3,-4.3 -0.4,-4.3 -1.4,-4.3 -0.7,0 -0.9,0 -0.9,-0.5 0,-0.5 0.7,-0.8 3.3,-0.8 1.5,0 1.6,0 1.7,0.5 0.1,0.6 0,0.6 -0.9,0.6 h -1 l 0.2,3.4 c 0.2,3.5 0.2,3.5 -0.3,3.5 -0.5,0 -0.6,-0.3 -0.7,-2.4 z m 7.5,1.8 c -0.3,-0.2 -0.6,-0.5 -0.8,-1 -0.3,-0.8 -0.3,-0.8 0,-1.1 0.6,-0.3 0.8,-0.3 1.1,0.5 0.2,0.6 1.1,0.8 1.4,0.3 0.1,-0.3 0.3,-1.8 0.3,-3.4 0.1,-2.9 0.2,-3.2 0.6,-3.2 0.5,0 0.6,0 0.6,2.9 0,3.2 -0.3,4.2 -1,5 -0.6,0.3 -1.6,0.3 -2.2,0 z m 4.9,0 c -0.1,0 -0.1,-1.8 -0.1,-3.9 v -4 h 2.3 c 2.4,0 2.4,0 2.4,0.8 0,0.5 0,0.5 -1.8,0.5 h -1.9 v 1.1 0.8 h 1.7 c 1.7,0 1.8,0 1.8,0.8 0,0.5 -0.1,0.5 -1.8,0.5 h -1.7 l 0.1,1 v 1.4 h 2 c 1.8,0 1.9,0 1.8,0.5 0,0.5 -0.2,0.8 -2.3,0.8 -1.2,0 -2.4,0 -2.5,-0.3 z m 6.4,-3.7 c 0.1,-2.4 0.2,-4.2 0.2,-4.2 h 0.6 c 0.3,0.3 1,1.3 1.8,2.9 1.3,2.6 1.3,2.6 1.4,1.9 0.2,-3.8 0.4,-4.5 0.7,-4.5 0.3,0 0.4,0.7 0.4,3.9 v 4 h -0.7 c -0.6,0 -0.8,-0.3 -1.9,-2.7 -1.1,-2.3 -1.3,-2.6 -1.4,-1.8 -0.1,0.3 -0.2,1.6 -0.2,2.6 0,1.6 -0.1,1.9 -0.6,1.9 -0.5,0 -0.5,0 -0.3,-4 z m -70.1,-7.9 c 6.5,-1.3 11.8,-5 14.2,-10.1 1.1,-2.1 1.1,-2.3 1.1,-4.9 0,-4.4 -0.3,-4.8 -9.8,-10.9 -4.9,-3.2 -6.4,-4 -6.7,-3.9 -0.2,0.2 -0.8,1 -1.2,1.9 -0.7,1.3 -0.8,1.8 -0.8,3.7 0,3.3 -0.1,3.3 5.8,5.6 2.8,1.1 5.3,2 5.6,2.2 0.3,0.1 0.6,0.5 0.8,1 0.3,1.6 -3.5,6.4 -7,8.8 -2.8,1.8 -7.9,3.7 -10.1,3.7 -0.4,0 -0.8,0 -0.9,0.2 -0.1,0 0.3,0.8 0.8,1.6 l 0.9,1.6 h 2.5 c 1.3,0 3.5,-0.3 4.8,-0.5 z m -5.1,-26.7 c 0.2,-1 1,-2.6 1.8,-3.8 0.6,-0.8 0.6,-0.8 -0.9,-1.7 -0.8,-0.5 -1.5,-1.9 -1.7,-3.5 -0.1,-0.7 -0.3,-1.3 -0.5,-1.4 -0.1,-0.1 -1.4,-0.7 -2.9,-1.3 l -2.6,-1.1 -0.6,0.7 c -1.2,1.5 -1.8,3.5 -1.6,5.8 0.1,1.2 0.2,2.2 0.5,2.6 0.4,0.6 7.4,4.7 8,4.7 0.2,0 0.4,-0.4 0.5,-1 z m 15.6,-11.9 c 0.9,-1.8 1.2,-1 -3,-7.3 -7.1,-10.9 -6.4,-10 -7,-9.5 -1,0.9 -1.7,3 -1.7,5 0,2.7 0.2,3.3 2.3,5.2 2.5,2.3 5.2,4.9 7.1,6.6 0.8,0.9 1.6,1.5 1.6,1.5 0,0 0.3,-0.6 0.7,-1.5 z m 11,-1.3 c -1.8,-1.9 -2.8,-3.2 -4.4,-6.4 -1.6,-3 -3,-6.7 -3.8,-9.7 -0.2,-1.1 -1.3,-6.5 -2.2,-11.9 -1.9,-10.6 -4.3,-23.7 -5.3,-29.6 -0.4,-2.1 -1.5,-8.1 -2.4,-13.4 -1,-5.3 -2,-10.9 -2.3,-12.5 -0.2,-1.6 -0.7,-3.5 -1.1,-4.4 -0.7,-1.6 -2.2,-4.1 -3.1,-4.9 -0.6,-0.6 -0.6,-0.7 -0.1,3.9 3.5,30.5 8.9,56.3 17.3,82.5 1.4,4 1.4,4.1 2.8,5.5 1.6,1.4 3.6,2.4 5.1,2.4 h 0.9 z m -27,-0.9 c 0.2,-0.6 0.7,-1.8 1.1,-2.5 l 0.8,-1.4 -2.5,-2.2 c -1.3,-1.2 -3.7,-3.4 -5.2,-4.7 l -2.7,-2.5 -0.5,1.2 c -1,2.2 -1.1,6.5 -0.3,9 0.3,0.9 0.6,1.1 4.5,2.8 2.3,1.1 4.3,1.8 4.3,1.7 0.1,-0.1 0.3,-0.7 0.5,-1.4 z m 2.5,-6.8 c -0.3,-0.8 -0.4,-4 -0.1,-4.8 0.3,-0.9 0.5,-0.6 -4.4,-6.2 -1.8,-2.2 -3.7,-4.4 -4.1,-4.9 l -0.8,-0.9 -0.6,0.6 c -1.1,1.1 -1.7,2.7 -1.7,4.6 v 1.7 l 2.4,2.3 c 1.4,1.2 3.9,3.5 5.7,5.2 3.1,2.8 4.1,3.4 3.6,2.4 z m 1.8,-8.9 0.7,-0.8 -1.9,-3.6 c -1.1,-1.9 -2.7,-5 -3.6,-6.7 -0.9,-1.8 -1.9,-3.6 -2.2,-4 -0.5,-0.9 -0.5,-0.9 -1.1,-0.4 -1,0.7 -1.5,2.1 -1.6,4.3 l -0.2,1.9 4.5,5.1 c 2.4,2.8 4.4,5.1 4.5,5.1 0.1,0 0.5,-0.4 0.9,-0.9 z m 1.9,-5.7 c 0.3,-0.8 0.6,-1.7 0.6,-2 0.1,-0.5 -0.9,-3.5 -5.1,-14.1 -0.5,-1.2 -2.6,1.3 -3.1,3.6 -0.1,0.8 0,1.3 1.1,3.4 2.4,4.3 4.2,7.6 5,9.2 0.4,0.8 0.8,1.4 0.9,1.4 0,-0.1 0.3,-0.8 0.6,-1.5 z m 3.1,-4.6 c 0.1,-0.2 0.6,-0.5 1.1,-0.7 0.7,-0.3 0.8,-0.4 0.6,-1 -0.1,-0.4 -0.8,-3.7 -1.7,-7.3 -0.8,-3.7 -1.7,-7.4 -1.9,-8.3 -0.1,-0.9 -0.3,-1.6 -0.4,-1.6 -0.1,0 -0.5,0.1 -1,0.3 -1.8,0.8 -2.8,2.4 -2.8,4.6 0,0.5 0.6,2.3 1.2,4 0.7,1.7 1.8,4.5 2.4,6.1 0.7,1.7 1.3,3.3 1.5,3.7 0.2,0.7 0.5,0.7 1,0.2 z m 9.4,24.7 c 0.1,-0.1 -0.4,-1.9 -1,-3.9 -0.7,-2 -1.5,-4.6 -1.9,-5.7 -0.7,-2.4 -3.1,-10.7 -3.6,-12.8 -0.2,-0.8 -0.4,-1.4 -0.5,-1.4 -0.1,0 -0.7,0.3 -1.3,0.8 -1.3,0.9 -2.6,3.5 -2.8,5.6 l -0.2,1.4 3.1,4.8 c 1.8,2.6 4.2,6.2 5.4,8.1 1.2,1.9 2.3,3.4 2.4,3.4 0.1,0 0.3,-0.1 0.4,-0.3 z m 54.8,32 c -0.1,-0.2 -0.2,-0.2 -0.2,0 0,0.3 0.1,0.6 0.1,0.6 0.1,-0.3 0.2,-0.3 0.1,-0.6 z m -2.4,-1.5 c 1.8,-2.6 2.5,-3.9 2.5,-4.6 0,-1.5 -0.1,-1.5 -3.2,-1.5 -3.1,0 -3.2,0 -3.2,1.5 0,0.8 2.7,5.6 3.2,5.6 0.1,0 0.4,-0.4 0.7,-1 z m 5,-8.4 c 0.8,-0.5 0.8,-1.8 0.2,-2.6 -0.4,-0.4 -0.9,-0.4 -5.2,-0.4 -4.3,0 -4.7,0 -5.2,0.5 -0.7,0.7 -0.7,1.3 0,2.2 l 0.5,0.7 h 4.6 c 3.7,0 4.7,-0.1 5.1,-0.4 z m 0.5,-5.4 c 0.4,-0.2 0.9,-1.2 0.9,-1.6 0,-0.2 -0.3,-0.6 -0.6,-0.9 -0.7,-0.7 -0.7,-0.7 -5.6,-0.7 -4.8,0 -5.8,0.1 -6.3,0.9 -0.3,0.5 -0.2,1.5 0.4,2 0.5,0.5 0.8,0.5 5.7,0.5 2.9,0 5.4,-0.1 5.5,-0.2 z m 1.1,-5.9 c 0.5,-0.8 0.5,-1.4 -0.2,-2.1 -0.5,-0.5 -0.8,-0.5 -6.4,-0.5 -6.4,0 -6.8,0.1 -6.8,1.6 0,1.4 0.1,1.5 6,1.6 6.4,0.2 6.9,0.1 7.4,-0.6 z m 0.4,-5.2 c 0.6,-0.7 0.6,-1.6 0,-2.4 -0.6,-0.5 -0.8,-0.5 -6.9,-0.5 -7.1,0 -7.4,0 -7.4,1.7 0,1.6 0.3,1.7 7.4,1.7 6,0 6.4,0 6.9,-0.5 z m 0.5,-5.5 c 0.6,-0.5 0.6,-1.6 0.1,-2.3 -0.4,-0.4 -1,-0.4 -7.6,-0.4 -7.8,0 -7.9,0 -7.9,1.7 0,1.5 0.4,1.6 8.2,1.5 5.8,-0.1 6.8,-0.1 7.2,-0.5 z m 0.5,-5.4 c 0.6,-0.6 0.7,-1.5 0.1,-2.3 -0.4,-0.6 -0.4,-0.6 -7.9,-0.6 -6.7,0 -7.7,0.1 -8.1,0.5 -0.6,0.5 -0.6,1.8 0,2.5 0.4,0.4 1,0.5 7.9,0.5 7.1,0 7.5,-0.1 8,-0.6 z M 214,244 c 0.5,-0.4 0.6,-1.5 0.3,-2 -0.6,-0.8 -1.5,-0.9 -8.9,-0.9 -8,0 -8.6,0 -9,1.3 -0.2,0.6 -0.2,0.9 0.2,1.4 l 0.4,0.7 h 8.3 c 7.3,0 8.3,-0.1 8.7,-0.5 z m 0.6,-5.3 c 0.2,-0.3 0.5,-0.8 0.5,-1.2 0,-0.4 -0.3,-0.9 -0.5,-1.2 -0.4,-0.5 -0.9,-0.5 -9.2,-0.5 -8.3,0 -8.7,0 -9.2,0.5 -0.7,0.7 -0.6,1.7 0.2,2.3 0.7,0.6 1,0.6 9.2,0.6 8.1,0 8.6,0 9,-0.5 z m 0.5,-5.4 c 0.2,-0.2 0.5,-0.6 0.6,-1 0.1,-0.6 0,-0.9 -0.5,-1.4 l -0.7,-0.7 h -9 c -8.7,0 -9,0 -9.7,0.6 -0.7,0.6 -0.8,1.4 -0.2,2.3 l 0.4,0.5 h 9.3 c 7.1,0 9.4,0 9.8,-0.3 z m 0.3,-5.2 c 0.3,-0.2 0.7,-0.6 0.8,-1 0.2,-0.7 -0.2,-1.8 -0.8,-2 -0.2,-0.1 -4.8,-0.2 -10.1,-0.2 -8.7,0 -9.7,0.1 -10.2,0.5 -0.6,0.5 -0.6,1.7 0.1,2.4 0.5,0.6 0.6,0.6 10,0.6 6.5,0 9.7,-0.1 10.2,-0.3 z m 0.9,-5.8 c 0.3,-0.3 0.6,-0.7 0.6,-1 0,-0.5 -0.6,-1.5 -0.9,-1.7 -0.2,-0.1 -4.9,-0.2 -10.5,-0.2 -8.8,0 -10.3,0 -10.8,0.4 -0.7,0.5 -0.8,1.8 -0.2,2.5 0.4,0.5 1.1,0.5 10.9,0.5 10,0 10.4,0 10.9,-0.5 z m 0.6,-5.5 c 0.7,-0.6 0.6,-1.8 -0.1,-2.3 -0.5,-0.4 -2,-0.4 -11.5,-0.4 -5.9,0 -10.9,0.1 -11.1,0.2 -0.5,0.3 -0.9,1.3 -0.7,1.8 0.4,1.2 0.1,1.1 11.8,1.1 10,0 11.2,0 11.6,-0.4 z m 0.4,-5.3 c 0.4,-0.2 0.6,-0.6 0.6,-1.3 0,-1.7 0.1,-1.7 -12.4,-1.7 -7.4,0 -11.4,0.1 -11.7,0.3 -1.1,0.6 -1.2,2.3 -0.1,2.9 0.1,0.1 5.4,0.3 11.6,0.3 9.9,0 11.5,-0.1 12,-0.5 z M 218,206 c 0.5,-0.5 0.6,-1.5 0.2,-2.3 -0.3,-0.5 -0.7,-0.5 -12.7,-0.5 h -12.4 l -0.4,0.6 c -0.3,0.3 -0.5,0.8 -0.5,1 0,0.2 0.2,0.7 0.5,1 l 0.4,0.6 h 12.2 c 10.8,0 12.3,-0.1 12.7,-0.4 z m 0.4,-5.4 c 0.8,-0.7 0.9,-1.4 0.3,-2.2 l -0.6,-0.7 h -12.6 c -12.3,0 -12.6,0 -13.2,0.5 -0.3,0.3 -0.6,0.8 -0.6,1.2 0,0.3 0.3,0.9 0.6,1.2 0.6,0.5 0.9,0.5 13.1,0.5 11.5,0 12.5,0 13,-0.5 z m 0.8,-5.4 c 0.6,-0.7 0.6,-1.7 0.1,-2.3 l -0.5,-0.7 h -13.3 c -12.6,0 -13.2,0.1 -13.8,0.5 -0.6,0.7 -0.7,1.4 -0.1,2.3 l 0.4,0.5 h 13.4 c 10.5,0 13.6,0 13.8,-0.3 z m 0.4,-5.5 c 0.8,-0.7 0.9,-1.6 0.2,-2.4 -0.5,-0.5 -0.9,-0.5 -14.4,-0.5 -12.4,0 -13.8,0.1 -14.3,0.5 -0.6,0.5 -0.6,1.8 0.1,2.4 0.5,0.5 0.9,0.6 14.1,0.6 13.4,0 13.6,0 14.3,-0.6 z m 0.7,-5.5 c 0.5,-0.4 0.7,-1.5 0.3,-2 -0.5,-0.9 -1.4,-0.9 -15.2,-0.9 -10.6,0 -14,0 -14.5,0.3 -0.8,0.4 -1,1.9 -0.3,2.6 0.4,0.5 1,0.5 14.8,0.5 13.1,0 14.5,-0.1 14.9,-0.5 z m -0.1,-5.1 c 1,0 1.5,-1.8 0.7,-2.7 -0.4,-0.4 -1.2,-0.4 -15.4,-0.4 -8.2,0 -15.1,0.1 -15.3,0.2 -0.9,0.6 -0.8,2.5 0.2,2.9 0.3,0.1 22.9,0.2 29.8,0 z m 1.2,-5.7 c 0.6,-0.5 0.6,-1.9 0,-2.5 -0.4,-0.5 -1.2,-0.5 -15.8,-0.5 h -15.5 l -0.7,0.7 c -0.5,0.5 -0.6,0.8 -0.5,1.4 0.4,1.4 -0.1,1.4 16.5,1.4 14.1,0 15.6,-0.1 16,-0.5 z m 0.4,-5.3 c 0.8,-0.5 0.9,-2.3 0.1,-2.7 -0.3,-0.2 -6,-0.3 -16.7,-0.3 h -16.1 l -0.5,0.7 c -0.5,0.8 -0.2,1.9 0.6,2.4 0.8,0.4 31.9,0.3 32.6,-0.1 z m 0.8,-5.8 c 0.6,-0.7 0.5,-1.5 -0.1,-2.3 -0.4,-0.4 -1.5,-0.4 -17.1,-0.4 -16.3,0 -16.6,0 -17.1,0.5 -0.3,0.3 -0.6,0.8 -0.6,1.2 0,0.4 0.3,0.9 0.6,1.2 0.5,0.5 0.8,0.5 17.1,0.5 h 16.7 z m 0.5,-5.2 c 0.6,-0.7 0.7,-1.7 0.2,-2.3 l -0.6,-0.7 h -17 c -16.9,-0.1 -17.1,-0.1 -17.8,0.5 -0.8,0.6 -0.9,1.6 -0.2,2.4 0.4,0.4 1.3,0.4 17.8,0.4 13.6,0 17.4,0 17.6,-0.3 z m 0.6,-5.5 c 0.7,-0.8 0.7,-1.7 0,-2.4 -0.5,-0.5 -0.8,-0.5 -18.3,-0.5 -19.7,0 -18.7,-0.1 -18.7,1.8 0,1.7 -0.8,1.7 18.8,1.7 h 17.7 z m 0.6,-5.5 c 0.6,-0.5 0.6,-1.7 0,-2.3 -0.4,-0.4 -2.1,-0.4 -19,-0.4 -13.4,0 -18.5,0.1 -18.8,0.3 -0.5,0.4 -0.4,2 0.1,2.5 0.4,0.3 2.4,0.4 18.8,0.4 16.8,0 18.5,0 18.9,-0.5 z m -30.5,-9.3 c 0,-2.5 0,-4.5 -0.1,-4.5 -0.1,0 -0.5,0.2 -1.1,0.5 -1.1,0.7 -1.4,0.7 -2.5,0 -0.5,-0.3 -1,-0.5 -1.1,-0.5 -0.2,0 -0.3,8.6 0,8.8 0.1,0.1 1.2,0.2 2.5,0.2 h 2.3 z m 7.1,0 c 0,-2.5 0,-4.5 -0.1,-4.5 -0.1,0 -0.7,0.3 -1.4,0.6 l -1.1,0.6 -1,-0.6 c -1.2,-0.7 -1.6,-0.6 -1.5,0.3 0.1,0.3 0.1,2.3 0.1,4.3 v 3.8 h 2.5 l 2.4,-0.1 z m 7,0 c 0,-2.5 -0.1,-4.5 -0.2,-4.5 0,0 -0.5,0.2 -1,0.5 -1,0.7 -1.7,0.7 -2.5,0 -1.3,-1 -1.4,-0.8 -1.4,3.8 0,2.4 0.1,4.4 0.2,4.5 0.1,0.1 1.2,0.2 2.5,0.2 h 2.4 z m 7.1,-0.1 V 132 l -1.1,0.7 c -1.2,0.8 -1.7,0.8 -2.7,0.1 -0.5,-0.3 -0.9,-0.5 -1,-0.5 -0.1,0 -0.2,2 -0.2,4.5 v 4.5 h 2.5 2.5 z m 7,0 c 0,-2.4 0,-4.4 -0.1,-4.4 -0.1,0 -0.7,0.3 -1.3,0.6 l -1.1,0.6 -1,-0.5 c -0.5,-0.3 -1.1,-0.6 -1.2,-0.6 -0.1,-0.1 -0.2,1.9 -0.2,4.4 v 4.5 h 2.4 l 2.4,-0.1 z m -29.1,-6.4 c 0.9,-0.5 1.8,-0.9 2,-0.9 0.2,0 1.1,0.4 1.9,0.9 l 1.6,1 1.3,-0.8 c 2,-1.3 2.4,-1.3 4.2,-0.2 l 1.5,1 1.6,-1 c 0.8,-0.5 1.7,-0.9 1.9,-0.9 0.3,0 1.1,0.4 2,0.9 l 1.6,1 1.6,-1 c 0.8,-0.5 1.7,-0.9 1.9,-0.9 0.2,0 1.1,0.4 1.9,1 l 1.6,0.9 1.5,-0.9 c 0.9,-0.5 1.9,-1 2.4,-1.1 1.3,-0.3 1.9,-1.9 0.9,-2.9 -0.4,-0.4 -1.3,-0.4 -18.9,-0.4 -20.4,0 -19.2,-0.1 -19.2,1.7 0,1 0.7,1.7 1.7,1.7 0.3,0 1.1,0.4 1.8,0.9 0.7,0.5 1.4,0.9 1.5,0.9 0.1,0.1 0.9,-0.4 1.7,-0.9 z m 0.9,-9.9 c 0,-1.9 0,-3.4 -0.1,-3.4 -0.1,0 -0.5,0.2 -1,0.5 -1.1,0.6 -1.5,0.6 -2.6,0 -0.5,-0.3 -1,-0.5 -1.1,-0.5 -0.1,0 -0.2,1.5 -0.2,3.4 v 3.4 h 2.5 2.5 z m 7.2,0 c 0,-1.9 -0.1,-3.4 -0.2,-3.4 -0.1,0 -0.6,0.2 -1.1,0.5 -1.1,0.6 -1.6,0.6 -2.6,0 -0.4,-0.3 -0.9,-0.5 -1,-0.5 -0.2,0 -0.3,5.4 -0.2,6.8 0,0 1.2,0.1 2.6,0.1 h 2.5 z m 6.9,0 c 0,-1.9 -0.1,-3.4 -0.3,-3.4 -0.1,0 -0.5,0.2 -0.9,0.5 -1,0.6 -1.7,0.6 -2.5,0 -1.3,-1 -1.4,-0.8 -1.4,2.9 v 3.4 h 2.5 2.6 z m 7.1,0 c 0,-1.9 -0.1,-3.4 -0.2,-3.4 -0.1,0 -0.6,0.2 -1.1,0.5 -1.1,0.6 -1.5,0.6 -2.5,0 -0.5,-0.3 -0.9,-0.5 -1,-0.5 -0.1,0 -0.2,1.5 -0.2,3.4 v 3.4 h 2.5 2.5 z m 6.9,0 c 0,-1.8 -0.1,-3.3 -0.1,-3.4 -0.1,-0.1 -0.5,0.1 -0.9,0.4 -1,0.7 -1.9,0.7 -2.7,0 -0.4,-0.3 -0.8,-0.5 -0.9,-0.5 -0.1,0 -0.2,1.6 -0.2,3.4 v 3.5 l 2.4,-0.1 2.4,-0.1 z M 193,115 c 0.9,-0.5 1.7,-1 1.9,-1 0.2,0 1.1,0.5 1.9,1 l 1.6,1 1.6,-1 c 1.8,-1.1 2.2,-1.1 4.1,0.2 l 1.2,0.8 1.1,-0.6 c 0.6,-0.4 1.4,-0.8 1.8,-1.1 0.7,-0.4 1.1,-0.3 3.4,1.1 l 0.9,0.5 1.5,-0.9 c 1.8,-1.1 2.2,-1.1 4.1,0.1 l 1.4,0.8 1.2,-0.7 c 1.1,-0.6 1.2,-0.8 1,-1.4 -1.1,-4.5 -6.3,-8.5 -12.5,-9.4 -2,-0.3 -2.2,-0.6 -2.9,-3.8 -0.4,-1.53 -0.7,-2.88 -0.8,-3.01 -0.1,-0.11 -0.4,1.03 -0.8,2.51 -0.7,3.3 -1.1,3.9 -2.8,4.2 -4,0.7 -8.1,2.7 -10.4,5 -1,1.1 -2.5,4.1 -2.4,4.8 0.1,0.4 0.5,0.8 1.2,1.2 0.5,0.3 1,0.6 1.1,0.6 0,0 0.7,-0.4 1.6,-0.9 z m 6.7,-12.8 c -0.2,-0.1 -0.5,-0.1 -0.7,0 -0.1,0.1 0,0.2 0.4,0.2 0.4,0 0.5,0 0.3,-0.2 z"></path>
  </svg>
