<?xml version="1.0"?>

<svg xmlns="http://www.w3.org/2000/svg" viewBox="0 0 410.84105 154.34911" width="410.84105" height="154.34911"> <path d="m 290,19.18 52.2,0 c 15.8,0 27.2,3.42 32.7,12.12 5.5,8.68 0.8,19.48 0,22.13 l -41.3,0 c 1,-3.83 1,-7.81 -6.5,-7.81 l -30.7,0 c -10.6,0 -13.5,2.07 -15.1,6.79 -1.7,4.75 -0.8,9.83 7.7,9.83 l 48.9,0 c 16.8,0 23.2,4.6 27.6,13.84 4.5,9.2 -1,34.62 -9.6,44.72 -8.6,10.2 -23.6,14.2 -45.6,14.2 l -50.8,0 c -15.5,0 -26.9,-5.6 -30.2,-12.9 -3.2,-7.2 0,-21.1 2.7,-26.03 l 39.6,0 c -2.8,9.53 -0.4,12.03 6.5,12.03 l 34.4,0 c 10.5,0 13.5,-6.7 14,-10.46 0.5,-3.8 -0.9,-9.07 -7.1,-9.07 l -53.4,0 c -25.5,0 -26.8,-22.4 -25.9,-28.56 0.8,-6.2 6.2,-21.47 16.1,-30.04 9.8,-8.55 21,-10.79 33.8,-10.79 m -44.1,0 -38,0 -7.9,26.46 38,0 7.9,-26.46 z m -72.5,115.92 38,0 24.6,-82.47 -38,0 -24.6,82.47 z M 34.75,108.3 51.54,51.96 l 36.08,0 -16.81,56.34 23.99,0 c 23.2,0 35.7,-3.2 46.5,-18.43 9,-15.26 9.5,-28.3 5,-34.62 -3.9,-5.5 -8.5,-9.52 -23.7,-9.52 l -69.2,0 7.87,-26.45 70.83,0 c 35,0 42.5,13.96 48.5,23.99 6,10 9,31.05 -4,56.6 -13,25.53 -33.8,35.33 -58.5,35.33 l -55.28,0 c -20.06,0 -22.56,-2.5 -27.19,-8.6 -4.62,-6.1 -0.88,-18.3 -0.88,-18.3"></path> </svg>