 <svg 
   xmlns="http://www.w3.org/2000/svg" 
   viewBox="0 0 202 177"
   height="177"
   width="202">
   
  <path
     d="m 78.47,85.21 c -1.56,0 -2.82,1.26 -2.82,2.81 0,1.55 1.26,2.81 2.82,2.81 1.55,0 2.81,-1.26 2.81,-2.81 0,-0.38 -0.1,-0.75 -0.21,-1.08 -0.2,0.36 -0.58,0.6 -1.01,0.6 -0.64,0 -1.15,-0.51 -1.15,-1.15 0,-0.42 0.23,-0.79 0.58,-0.99 -0.32,-0.12 -0.66,-0.19 -1.02,-0.19 z m 16.76,-74 0,16.42 -32.84,0 0,16.42 -16.42,0 0,16.79 -14.04,0 -0.23,2.48 c -0.78,8.29 0.36,16.58 3.79,24.16 l 1.47,3 0.17,0.28 c 10.13,17.24 27.92,24.44 47.3,24.44 37.57,0 68.47,-16.75 82.77,-52.16 9.5,0.49 19.2,-2.32 23.8,-11.39 l 1.2,-2.32 -2.2,-1.3 c -5.5,-3.17 -12.9,-3.6 -19.1,-1.77 -0.8,-6.63 -5.1,-12.44 -10.3,-16.6 l -2.1,-1.65 -1.7,1.99 c -3.4,4.01 -4.5,10.68 -4,15.8 0.3,3.77 1.5,7.59 3.8,10.62 -1.7,1.06 -3.7,1.9 -5.5,2.51 -3.6,1.23 -7.6,1.91 -11.4,1.91 l -8.3,0 0,-16.79 -16.4,0 0,-32.84 -19.77,0 z m 2.74,2.74 14.23,0 0,14.23 -14.23,0 0,-14.23 z m -32.84,16.42 14.23,0 0,14.23 -14.23,0 0,-14.23 z m 16.42,0 14.23,0 0,14.23 -14.23,0 0,-14.23 z m 16.42,0 14.23,0 0,14.23 -14.23,0 0,-14.23 z m -49.26,16.42 14.23,0 0,14.23 -14.23,0 0,-14.23 z m 16.42,0 14.23,0 0,14.23 -14.23,0 0,-14.23 z m 16.42,0 14.23,0 0,14.23 -14.23,0 0,-14.23 z m 16.42,0 14.23,0 0,14.23 -14.23,0 0,-14.23 z m 16.43,0 14.3,0 0,14.23 -14.3,0 0,-14.23 z m -35.93,37.3 c 2.17,0 3.92,1.76 3.92,3.93 0,2.17 -1.75,3.93 -3.92,3.93 -2.17,0 -3.93,-1.76 -3.93,-3.93 0,-2.17 1.76,-3.93 3.93,-3.93 z m -7.59,10.56 c 0.1,0.18 0.16,0.36 0.24,0.54 0,0.11 0.1,0.23 0.16,0.35 0.89,1.89 2.01,3.79 3.16,5.36 3.19,4.4 7.8,8.3 14.46,11.5 -1.48,0 -2.97,0.1 -4.47,0.1 -20.31,-0.2 -31.28,-7 -40.19,-15.93 2.67,0.14 5.22,0.22 7.64,0.22 2.1,0 4.1,-0.1 6,-0.16 0.63,0 1.25,-0.1 1.85,-0.13 2.83,-0.22 5.42,-0.57 7.76,-1.04 0.18,0 0.36,-0.1 0.54,-0.1 0,0 0,0 0,0 0.5,-0.11 0.98,-0.22 1.46,-0.34 0,0 0,0 0,0 0.47,-0.12 0.94,-0.24 1.39,-0.37 z m -34.13,41.55 0,-11.8 c 0,-1.5 0.97,-2.8 2.57,-2.8 l 0.44,0 c 1.6,0 2.56,1.3 2.56,2.8 l 0,24.7 c 0,6.1 -2.98,10.9 -8.18,13.9 -2.4,1.4 -5.06,2.2 -7.86,2.2 l -1.1,0 c -6.03,0 -10.83,-3 -13.89,-8.2 -1.419,-2.4 -2.141,-5.1 -2.141,-7.9 l 0,-1.1 c 0,-6 2.981,-10.8 8.171,-13.9 2.41,-1.4 5.07,-2.1 7.86,-2.1 l 1.1,0 c 4.09,0 7.55,1.6 10.47,4.2 m -22.04,12.4 c 0,4.3 2.11,7.6 5.93,9.7 1.55,0.9 3.22,1.3 4.98,1.3 4.28,0 7.45,-2 9.64,-5.6 1.02,-1.7 1.49,-3.6 1.49,-5.5 0,-3.8 -1.78,-6.7 -4.83,-8.9 -1.84,-1.4 -3.92,-2 -6.19,-2 -4.66,0 -8.01,2.3 -10.03,6.5 -0.68,1.4 -0.99,2.9 -0.99,4.5 m 46.91,-16.6 0.77,0 c 6.45,0 11.35,3.1 14.46,8.8 1.24,2.2 1.91,4.7 1.91,7.2 l 0,1.1 c 0,6.1 -2.98,10.9 -8.18,13.9 -2.4,1.4 -5.06,2.2 -7.86,2.2 l -1.1,0 c -6.03,0 -10.83,-3 -13.89,-8.2 -1.42,-2.4 -2.14,-5.1 -2.14,-7.9 l 0,-1.1 c 0,-6 2.99,-10.8 8.17,-13.9 2.41,-1.4 5.07,-2.1 7.86,-2.1 m -10.47,16.6 c 0,4.2 2.08,7.3 5.65,9.5 1.68,1 3.53,1.5 5.49,1.5 4.18,0 7.26,-2.1 9.42,-5.6 1.02,-1.7 1.48,-3.6 1.48,-5.5 0,-4 -1.89,-7 -5.13,-9.1 -1.77,-1.2 -3.75,-1.8 -5.89,-1.8 -4.66,0 -8.01,2.3 -10.03,6.5 -0.68,1.4 -0.99,2.9 -0.99,4.5 M 101.9,138 c -0.8,-0.4 -2.43,-0.5 -3.33,-0.5 -4.65,-0.2 -8.01,2.4 -9.98,6.5 -0.69,1.4 -1,2.9 -1,4.5 0,4.7 2.51,8.1 6.76,10.1 1.55,0.8 3.56,0.9 5.22,0.9 1.53,0 3.63,-0.9 5.03,-1.5 l 0.2,-0.2 1,0 0.1,0.1 c 1.3,0.2 2.3,1 2.3,2.4 l 0,0.5 c 0,3.4 -6.2,4.2 -8.63,4.4 -8.33,0.6 -14.56,-4 -16.94,-12 -0.41,-1.4 -0.6,-2.7 -0.6,-4.2 l 0,-1.1 c 0,-6 2.99,-10.8 8.17,-13.9 2.41,-1.4 5.07,-2.1 7.86,-2.1 l 1.11,0 c 3.03,0 5.73,0.8 8.13,2.5 l 0.2,0.1 0.2,0.3 c 0.2,0.4 0.5,0.9 0.5,1.4 l 0,0.6 c 0,1.4 -1.1,2.2 -2.4,2.4 l -0.1,0 -0.3,0 c -0.8,0 -2.7,-0.8 -3.5,-1.2 m 18.1,3.8 c 2.1,-2.2 4.3,-4.3 6.5,-6.5 0.6,-0.6 2.9,-3.1 3.8,-3.1 l 1,0 0.1,0 c 1.3,0.3 2.3,1.1 2.3,2.5 l 0,0.5 c 0,1 -1.1,2 -1.7,2.7 -1.3,1.3 -2.7,2.6 -4,4 l -6.7,6.8 c 2.9,2.9 5.8,5.8 8.7,8.7 0.8,0.8 1.6,1.6 2.3,2.5 0.3,0.3 0.7,0.6 1,1 0.2,0.4 0.4,0.8 0.4,1.3 l 0,0.5 -0.1,0.2 c -0.3,1.3 -1.1,2.3 -2.5,2.3 l -0.4,0 c -1,0 -2,-1.1 -2.6,-1.7 -1.3,-1.2 -2.6,-2.5 -3.9,-3.7 l -4.2,-4.2 0,6.7 c 0,1.5 -1,2.8 -2.6,2.8 l -0.4,0 c -1.6,0 -2.6,-1.3 -2.6,-2.8 l 0,-37.8 c 0,-1.5 1,-2.8 2.6,-2.8 l 0.4,0 c 1.6,0 2.6,1.3 2.6,2.8 l 0,17.3 z m 69.3,-9.6 0.6,0 c 1.6,0 2.8,1.1 2.8,2.8 0,2.3 -2.2,2.9 -4.1,2.9 -2.5,0 -4.9,1.5 -6.7,3.2 -2.1,2.1 -3,4.8 -3,7.8 l 0,13.5 c 0,1.5 -1,2.8 -2.6,2.8 l -0.4,0 c -1.6,0 -2.6,-1.3 -2.6,-2.8 l 0,-14.3 c 0,-5.4 2.7,-9.9 7.1,-13 2.6,-1.9 5.7,-2.9 8.9,-2.9 m -39.5,26.7 c 2,0.7 4.3,0.6 6.4,0.3 1.1,-0.5 3.8,-1.7 4.8,-1.5 l 0.1,0 0.2,0.1 c 0.6,0.3 1.2,0.7 1.5,1.3 0.7,1.5 0.4,3 -1.1,3.8 l -0.5,0.3 c -5.2,3 -10.8,2.6 -16.1,-0.3 -2.5,-1.3 -4.5,-3.3 -5.9,-5.8 l -0.3,-0.6 c -3.4,-5.9 -2.9,-12 0.9,-17.6 1.3,-1.9 3,-3.4 5,-4.6 l 0.8,-0.4 c 5,-2.9 10.3,-2.7 15.4,-0.2 2.8,1.4 5,3.4 6.5,6 l 0.3,0.5 c 1.1,1.9 -0.3,3.6 -1.8,4.8 -1.8,1.3 -3.5,2.9 -5.2,4.3 -3.6,3.2 -7.3,6.4 -11,9.6 m -4.8,-3.3 c 4.1,-3.6 8.3,-7.1 12.4,-10.7 1.4,-1.2 2.9,-2.5 4.3,-3.7 -1.1,-1.4 -3,-2.5 -4.6,-3.1 -3.2,-1.2 -6.3,-0.8 -9.3,0.9 -3.8,2.2 -5.5,5.8 -5.3,10.2 0,1.7 0.5,3.4 1.4,4.9 0.3,0.5 0.7,1 1.1,1.5"
      /> </svg>
