<svg
   xmlns="http://www.w3.org/2000/svg"
   viewBox="0 0 300 217.28975"    height="218"
   width="300"
   >
  <path
     d="m 297.33908,162.05096 c 0.28849,0 0.45568,-0.059 0.45568,-0.38985 0,-0.30795 -0.3311,-0.33089 -0.5737,-0.33089 l -0.44585,0 0,0.72074 0.56387,0 z m -0.56387,1.76581 -0.64255,0 0,-2.99106 1.12118,0 c 0.77041,0 1.22609,0.21622 1.22609,0.90092 0,0.55038 -0.32455,0.75022 -0.71795,0.7797 l 0.76057,1.31044 -0.75729,0 -0.68844,-1.25802 -0.30161,0 0,1.25802 z m 0.46224,-3.62662 c -1.10479,0 -1.99321,0.85178 -1.99321,2.13272 0,1.27767 0.88842,2.13928 1.99321,2.13273 l 0,0.007 c 1.07529,0 1.98666,-0.86161 1.98666,-2.13928 0,-1.28094 -0.91137,-2.13272 -1.98666,-2.13272 z m 0,4.91084 c -1.47851,0 -2.79311,-1.01886 -2.79311,-2.77812 0,-1.75597 1.3146,-2.77811 2.79311,-2.77811 1.47196,0 2.78656,1.02214 2.78656,2.77811 0,1.75926 -1.3146,2.77812 -2.78656,2.77812 m -91.25821,13.58687 c -4.58635,0 -7.76631,-3.84939 -7.76631,-9.1337 0,-5.10413 2.99637,-7.67258 6.59595,-7.67258 4.02576,0 7.39259,3.23677 7.39259,9.10422 0,5.28104 -2.19975,7.70206 -6.22223,7.70206 z m -110.426466,-5.93298 2.780004,-5.64796 0.137688,0 2.825904,5.64796 -5.743596,0 z M 56.331119,170.1504 c -0.855638,0.41606 -1.937479,0.50452 -3.379934,0.50452 l -0.632713,0 0,-6.80442 c 0,-1.18266 0.137689,-1.48406 2.029271,-1.48406 1.757172,0 4.507671,1.15973 4.507671,4.00009 0,1.44803 -0.678609,2.84036 -2.524295,3.78387 z m -35.599127,8.01656 c -3.098,0 -4.520785,-0.88454 -4.520785,-4.4096 l 0,-15.19445 c 0,-0.9861 0.06557,-1.90012 0.38684,-1.97875 0.455685,-0.15725 1.294931,-0.27519 2.780004,-0.27519 5.491163,0 12.529686,2.37516 12.529686,10.88313 0,7.00426 -5.619016,10.97486 -11.175745,10.97486 z m 200.170098,-8.11484 c 0,-5.779 -6.59595,-9.69064 -15.15561,-9.69064 -6.73036,0 -11.24131,1.97548 -13.76233,4.58323 1.54408,-2.99433 2.57347,-4.89773 2.71444,-5.12706 2.17679,-3.52178 2.75378,-3.85594 6.34024,-4.177 l 0,-1.34974 -15.30969,0 0,1.34974 2.43251,0.15725 c 2.75377,0.16381 2.94719,0.81575 2.1145,3.09917 -0.89825,2.36206 -3.26519,8.01001 -5.51083,12.69808 l -0.12458,-0.21622 -9.73656,-17.06181 -4.48473,0 -8.39246,17.06181 -0.12786,0.21622 -6.08781,-13.45813 c -0.76712,-1.64459 -0.57698,-2.136 1.79651,-2.33912 l 2.04894,-0.15725 0,-1.34974 -19.98783,0 0,1.34974 c 2.9472,0.23916 4.10116,0.61591 5.82883,3.93785 l 0.78351,1.52337 -9.54315,0 -7.14015,11.71198 -8.16626,-11.71198 -10.96921,0 0,0.93696 c 3.6881,0.2064 4.06182,0.74695 3.73399,4.47185 l -0.51469,5.97884 c -0.23276,2.68966 -0.51142,4.25563 -0.74418,5.17293 -0.0787,0.31123 -0.13113,0.69125 -0.40979,0.7535 -0.31799,0.0491 -1.02611,-1.0549 -1.63259,-2.14256 -1.70472,-3.01727 -3.63237,-6.50629 -5.56329,-10.0248 l -3.04882,-5.59226 -3.098003,0.41606 -8.969446,15.28945 c -0.104905,0.17691 -0.203255,0.33416 -0.301604,0.48814 -0.340944,0.44882 -0.691722,1.02541 -1.042501,1.26129 -0.999883,0.71091 -3.596302,0.89109 -5.41904,0.89109 -1.409672,0 -2.45873,-0.0295 -3.186514,-0.26536 -0.819576,-0.26864 -0.911369,-1.22198 -0.911369,-2.76173 l 0,-4.81911 2.275145,0 c 3.920854,0 4.055264,0.17691 4.510949,2.78139 l 2.006323,0 0,-6.98132 -2.006323,0 c -0.455685,2.25066 -0.590095,2.42429 -4.510949,2.42429 l -2.275145,0 0,-5.70692 c 0,-1.03525 0.09179,-1.24819 1.81946,-1.24819 l 0.776959,0 c 2.412833,0 3.917575,0.17691 4.645359,0.67815 0.727784,0.47503 1.232644,1.51682 1.688328,2.96485 l 2.003045,-0.0885 c -0.229481,-2.2179 -0.455684,-4.37684 -0.501581,-4.87808 l -21.594203,0 0,0.93696 c 3.052103,0.18019 3.415995,0.59952 3.415995,3.7937 l 0,9.75944 c 0,2.81087 -0.285212,3.30884 -2.74722,3.50868 -0.442571,-0.20967 -0.842525,-0.46193 -1.262148,-0.78626 -0.721227,-0.59297 -1.714554,-1.59873 -3.245523,-3.16469 -1.308044,-1.36285 -2.973424,-3.40057 -3.606137,-4.2327 3.334037,-0.85505 5.815715,-2.39153 5.815715,-4.99602 0,-1.74287 -1.35394,-3.07296 -3.157009,-3.81663 -1.757172,-0.74039 -4.101161,-1.00248 -7.615505,-1.00248 l -13.788556,0 c -0.996605,-1.29405 -2.317762,-2.40464 -3.763495,-3.25314 -4.327365,-2.57172 -10.91676,-3.52178 -18.860096,-3.52178 l -18.86337378,0 0,1.54303 c 4.19951028,0.23915 4.71748258,0.51434 4.71748258,4.7929 l 0,13.05845 c 0,4.27528 -0.5179723,4.76669 -5.2321766522,5.00257 l 0,1.32681 16.6636308522,0 c 14.922849,0 27.131262,-4.23597 27.131262,-14.08714 0,-1.37595 -0.416345,-2.67 -1.108068,-3.84611 2.137456,0.23915 2.41939,0.89764 2.41939,3.71507 l 0,9.75944 c 0,3.19417 -0.357335,3.61679 -3.56024,3.79042 l 0,0.94351 14.24424,0 0,-0.94351 c -3.111113,-0.17363 -3.471726,-0.59625 -3.471726,-3.79042 l 0,-3.548 0.586817,0 c 0.855638,0 1.488351,0.44555 1.891582,1.06473 1.127738,1.65442 2.389886,3.48902 3.740548,4.76342 1.803068,1.71339 3.291419,2.59793 9.690673,2.68966 0.931039,-0.0328 1.517856,-0.1376 1.835851,-0.23588 l 15.712922,0 5.150219,0 5.297743,0 0,-0.94351 -1.29821,-0.0852 c -2.065332,-0.1507 -2.10795,-0.65522 -1.481794,-1.92961 l 1.347384,-2.84036 7.356523,0 1.61292,3.01727 c 0.58354,1.06472 0.49503,1.57252 -1.16707,1.72322 l -1.34411,0.11466 0,0.94351 8.27772,0 5.80588,0 5.72393,0 0,-0.94351 c -3.03572,-0.14415 -4.06183,-0.62573 -4.24869,-1.71994 -0.18686,-0.9173 -0.23276,-2.33585 -0.0918,-4.88136 l 0.32783,-6.56198 0.0918,0 8.53999,13.77918 2.52102,0 9.0055,-14.8177 0.18687,0 0.14096,10.41138 c 0.0459,3.27935 -0.0951,3.5873 -3.59302,3.79042 l 0,0.94351 14.60486,0 0,-0.94351 c -3.35699,-0.20312 -3.45206,-0.51107 -3.59303,-3.79042 l -0.46552,-9.90686 c -0.1213,-2.68639 0.007,-3.29574 2.33088,-3.548 l 9.51036,18.47053 4.93058,0 8.58588,-16.26245 0.12785,0 9.4153,16.26245 4.93057,0 c 1.84569,-3.97716 3.66187,-7.71189 5.24857,-10.88968 -0.0328,0.27847 -0.0524,0.55366 -0.0524,0.83212 0,5.36949 6.12715,9.65788 15.57851,9.65788 8.98256,0 15.81127,-3.91491 15.81127,-10.15584 m 11.69826,-0.32394 c -0.87203,0.40951 -1.97354,0.49796 -3.44222,0.49796 l -0.64255,0 0,-6.71268 c 0,-1.16956 0.13769,-1.46768 2.06861,-1.46768 1.78668,0 4.58635,1.14335 4.58635,3.95095 0,1.42837 -0.68844,2.79777 -2.57019,3.73145 z m 53.81995,-1.86736 -1.01955,-0.29158 c -3.00949,-0.81901 -4.76666,-1.69045 -4.76666,-3.15486 0,-1.39561 1.66538,-2.53568 4.02576,-2.53568 3.65531,0 5.2748,2.07048 6.29435,4.00009 l 2.03583,-0.20639 c -0.50814,-1.98531 -0.83269,-3.41368 -1.01955,-4.55375 -0.59993,-0.11467 -1.34083,-0.2326 -2.40628,-0.40624 -1.34083,-0.2326 -2.81934,-0.35381 -4.25524,-0.35381 -7.26473,0 -11.06101,2.68966 -11.06101,5.98539 0,3.1221 4.25852,4.67169 8.09742,5.74952 l 0.695,0.20311 c 2.86852,0.76006 4.62897,1.77892 4.62897,3.50541 0,1.89357 -1.85225,2.88622 -4.25852,2.88622 -4.53718,0 -7.26473,-3.24004 -8.23511,-4.93377 l -2.0391,0.38002 c 0.4983,1.74615 1.02938,3.18763 1.39983,4.43254 -1.53097,-0.18346 -2.75705,-0.63229 -4.91746,-2.47672 -2.87179,-2.4505 -5.878,-5.13361 -8.7039,-7.90845 1.91453,-1.43164 4.19295,-2.91898 6.65496,-4.43581 2.36694,-1.48734 3.77989,-1.84771 6.37959,-2.02134 l 0,-0.92713 -12.21497,0 0,0.92713 1.73422,0.11466 c 1.22937,0.0885 0.72779,0.88455 0.0885,1.41199 -2.64232,2.21791 -5.42232,4.37684 -8.7498,6.77166 l 0,-4.55375 c 0,-3.15159 0.36717,-3.57093 3.37337,-3.74456 l 0,-0.92713 -14.21801,0 0,0.92713 c 3.18979,0.17363 3.55368,0.59297 3.55368,3.74456 l 0,9.62839 c 0,1.85754 -0.13113,2.90588 -0.83924,3.31212 -1.0589,0.48486 -1.81946,0.17363 -2.60626,-0.40951 -0.73434,-0.58642 -1.74078,-1.79202 -3.30125,-3.33833 -1.33099,-1.34319 -3.02916,-3.35798 -3.6717,-4.17372 3.39632,-0.84523 5.91734,-2.36533 5.91734,-4.93377 0,-1.71994 -1.37361,-3.03365 -3.20946,-3.76422 -1.78996,-0.72729 -4.17657,-0.99265 -7.7532,-0.99265 l -14.58518,0 0.26554,0.92713 c 3.07833,0.17363 3.1734,0.59297 3.1734,3.74456 l 0,9.62839 c 0,3.15159 -0.36717,3.57093 -3.6258,3.74783 l 0,0.92386 14.77204,0 0,-0.92386 c -3.17012,-0.1769 -3.53729,-0.59624 -3.53729,-3.74783 l 0,-3.49885 0.59993,0 c 0.87203,0 1.5113,0.43572 1.92437,1.04835 1.1474,1.63476 2.43578,3.44315 3.80939,4.70117 1.83585,1.69045 3.3242,2.78139 9.71034,2.65362 0.48191,0 2.30137,-0.12777 2.71772,-0.2326 l 11.13312,0 0,-0.92386 c -3.23568,-0.1769 -3.69465,-0.59624 -3.60285,-3.74783 l 0,-4.66841 0.0918,0 c 3.32748,3.18107 8.0843,7.46946 9.81853,9.3401 l 10.48074,0 0,-0.60608 c 0.57043,0.1507 1.3605,0.33089 2.38005,0.55039 1.25231,0.25881 3.14718,0.49141 4.99942,0.49141 7.17293,0 11.756,-2.62414 11.756,-6.21472 0,-3.41368 -3.65859,-4.9305 -7.91383,-6.12954 M 68.03566,38.505805 l 0,117.499805 m -0.0035,-117.50209 0,117.50044 M 65.982597,37.930667 c 22.45532,2.716792 70.518613,44.025797 70.947933,56.606937 l -1.71725,0.285116 C 129.92061,75.952649 79.140523,39.218603 65.982597,39.359523 M 162.1518,100.79475 c 0.51124,-0.82913 0.35721,-1.140463 0.60956,-2.801999 0.10159,-2.333361 -0.7046,-4.142371 -0.7046,-4.142371 l -3.72289,1.051979 c 1.11097,1.510785 2.42512,4.588069 3.81793,5.892391 z m -17.0414,10.0577 c 0,0 -0.46208,2.24488 -0.0229,4.16531 1.25844,-0.32116 2.25143,-1.32071 3.20182,-1.71397 0.95038,-0.39326 3.55903,-1.03887 5.32543,-1.91388 0,0 0.0197,-0.34083 -0.60955,-1.28138 -0.4752,-0.69477 -1.49768,-4.12599 -2.49395,-7.79644 0,0 -0.36704,-2.585705 -0.75703,-2.418568 -0.26545,0.111428 -0.35393,3.169048 -0.47847,4.486478 -0.15403,1.61893 -0.0787,1.06836 -0.0787,1.06836 0,0 1.01593,0.16059 0.8619,0.70788 -0.19663,0.67837 -0.89139,4.51597 -1.14046,5.14846 -0.20319,0.50797 -0.29495,0.30478 -1.19618,0.11471 -1.10441,-0.22941 -2.61192,-0.56696 -2.61192,-0.56696 z m 17.30685,-31.090718 c 0.28512,-0.707874 -1.79262,0.258898 -2.18261,0.455529 -1.21911,0.609558 -2.04169,-0.403094 -1.84506,-0.95694 0.23924,-0.678378 0.0819,-1.127354 -0.41948,-1.055255 -0.41292,0.06227 -0.50468,-0.485025 -0.27528,-0.796358 -0.4162,0 -0.603,-0.317888 -0.69477,-0.540737 0.59973,-0.222849 0.0492,-0.858624 -0.19663,-0.953663 -0.24579,-0.09831 -0.78325,-0.196631 -0.8324,-0.632498 -0.0492,-0.435866 0.39654,-0.996266 0.83896,-1.284659 0.43914,-0.288393 0.62266,-0.796358 0.12453,-1.697585 -0.41293,-0.753755 -0.63577,-2.103958 -0.24579,-2.592259 -0.88156,0.09831 -1.32071,1.16668 -1.32071,1.16668 -0.58989,-1.068365 -0.24906,-2.133452 -0.0524,-2.664357 -0.29167,0.288393 -0.78325,1.160126 -0.78325,1.160126 0.63577,-5.617107 7.24915,-7.966854 9.01555,-8.353562 3.27064,-0.717706 8.38634,-0.868456 7.59981,1.694308 0,0 1.02904,-2.031859 -0.88156,-2.562764 1.07819,-0.05243 1.95976,1.160126 1.52061,1.933543 0.53746,-0.337551 1.52062,-0.580063 1.86145,-0.09504 -0.53746,0.04916 -1.61893,0.629221 -1.66809,1.065088 0.97988,-0.193355 1.99253,0.380154 2.74629,3.683564 0.3441,1.497676 0.934,6.341366 -1.17652,7.940636 0,0 0.0983,-0.288393 0.14748,-0.675102 0,0 -0.29495,1.160126 -1.91061,1.160126 0,0 -0.13108,0.507965 -0.0328,0.796358 0,0 1.94338,-0.7472 2.72663,-0.45553 0,0 -0.88157,1.743466 -1.27483,2.418568 1.27483,0 5.12553,2.484111 5.37787,8.238861 0.5899,0.966771 1.27483,6.557661 0.5899,9.077821 -5.44342,17.290469 -45.05484,27.230189 -51.82224,25.050859 0,0 -1.90405,-1.4518 -0.32444,-2.33336 0.5309,-0.29495 0.1573,0.1573 1.31743,0.47847 0.76358,0.21301 1.34692,-0.0131 2.26454,-0.52108 1.0192,-0.56367 3.074,-1.04214 4.49958,-2.0548 1.42558,-1.01593 2.51033,-1.24533 4.02439,-4.08665 0.31789,-0.59645 0.49486,-1.41575 0.61284,-2.42513 0.0295,-0.21301 -0.10159,-0.1147 -1.4944,-0.61611 -0.80291,-0.29167 -1.42558,0.0885 -1.42558,-1.32071 0,-1.40919 0.56695,-3.65407 0.71771,-4.20136 0.15402,-0.54401 0.65871,-0.61939 2.08429,-0.54401 0.61283,-1.31088 1.13719,-3.63113 1.51406,-4.905958 0,0 -0.39654,0.07537 -1.2781,0.07537 -0.90451,0 -1.27483,0.625944 -2.74629,1.110969 -1.47146,0.488301 -2.26126,0.347382 -2.54966,-0.580063 -0.39326,-1.258442 -0.39326,-1.841782 -0.78652,-2.710238 -0.28512,-0.639053 -1.27483,-0.58334 -1.0782,-1.261719 0.19663,-0.678379 0.49158,-0.966772 0.88484,-1.160126 0.48831,-0.485025 1.66482,-0.389986 2.74301,-1.360035 1.08148,-0.966771 1.70742,0.05899 2.06136,0.776695 0.29822,0.609557 0.40637,0.694764 1.07819,1.550112 0.34411,0.435866 1.56978,0.144196 2.35303,0 l 0.68821,-2.808554 c -0.49158,-0.09832 -2.54966,-0.485024 -4.80764,-1.64515 -2.25471,-1.163404 -3.9228,-2.231768 -4.80437,-2.133452 -3.15593,0.347382 -2.34319,-0.242513 -3.82448,-2.520161 -0.88156,-1.356758 -0.68821,-1.451796 -1.76313,-1.936821 -1.39936,-0.62922 -0.49158,-2.035136 0.095,-1.93682 0.58006,0.09504 1.56978,-0.485024 2.45134,-0.678379 -0.27856,-1.379698 0.11798,-2.172778 1.37314,-2.035136 -0.29494,0.871733 0.98316,2.713515 2.45134,3.198539 1.47146,0.481748 2.06136,2.903593 2.06136,3.388617 1.37314,1.356757 7.76039,1.261719 9.13353,1.261719 0.70787,-1.091305 0.95366,-1.382975 3.63441,-1.382975 1.70086,0 3.09694,0.406372 4.36849,1.89094 1.19618,0.380154 0.20974,-0.714428 2.26454,-0.940554 2.0548,-0.226127 3.05762,-1.110969 3.93263,-1.353481 0.87174,-0.242512 0.85863,-0.760308 1.4944,-1.294491 0.37033,-0.308056 0.68166,-1.042147 1.19946,-1.301045 0.51779,-0.255621 0.4588,-1.933543 0.65216,-2.251431 m 12.56446,19.321017 c 0,0 9.94628,-7.390068 13.81336,-28.223178 2.33336,-12.587694 1.34693,-24.765739 -4.2374,-36.874964 -8.21593,-17.818093 -28.01344,-30.3467978 -46.96544,-32.3786568 31.61507,-7.1704961 60.08731,11.3521928 70.9512,34.6005928 10.56895,22.622457 9.66444,46.313278 -6.6953,68.440877 -3.37223,4.56513 -22.79942,26.67634 -57.27221,25.51622 -2.43167,0.43259 -8.45188,-0.76359 -10.31004,-1.47802 0,0 -3.12317,-1.19289 -6.90832,-2.83804 -3.8376,-1.66809 -12.86626,-6.60682 -18.12288,-11.40135 4.40783,2.61847 12.31897,5.47291 19.81063,6.14145 4.71916,-0.57351 29.4849,-4.92234 45.9364,-21.504931 m -41.57446,29.472441 c 0,0 -0.85207,1.24861 -1.63204,2.11379 -0.78325,0.8619 -1.02576,1.31415 -0.47519,1.63204 0.55384,0.31789 1.02576,0.69477 2.20882,1.48457 -0.32444,1.87783 -1.65498,4.7552 -2.52999,6.4659 -0.87501,1.70742 -1.90077,3.50987 -2.75939,4.37505 -0.85863,0.8619 -2.85116,2.57587 -4.10633,3.83104 -1.25844,1.25516 -2.72007,2.17605 -3.58852,2.32353 -1.57305,0.25889 -2.0548,-0.92417 -2.26782,-0.63578 -0.97005,1.32726 -0.45881,2.69385 1.34365,2.93964 0.59973,0.0819 0.96677,0.70132 2.06791,1.17324 1.10441,0.46864 2.77578,0.0754 3.70978,-0.39327 0.93728,-0.46863 2.99535,-1.70086 4.49631,-2.47428 1.50095,-0.77341 3.03468,-0.71115 4.76831,-0.8619 1.43869,-0.12125 1.59272,-2.55948 1.07164,-3.75566 -0.76686,-1.80246 -0.17041,-3.133 0.73409,-5.26645 0.90451,-2.13345 3.25098,-4.46681 3.25098,-4.46681 0,0 0.62922,-0.31461 1.68448,0.43914 1.01265,0.72754 1.22239,-0.43586 2.52343,-1.99253 1.05854,-1.25844 2.18917,-2.6152 1.53045,-3.22148 -0.79308,-0.72754 -0.58334,-1.03231 -0.58334,-1.03231 0,0 0.78325,-1.0061 1.59272,-1.65499 m -8.50071,-31.376814 c 0.15731,0.334274 0.80619,2.002364 0.85862,2.284204 0.0557,0.28839 1.92699,0.61939 1.53373,-0.714429 -0.39326,-1.33054 -0.87501,-2.379241 -0.87501,-2.379241 m 74.20546,113.40887 c 0.96349,1.71397 3.66718,4.99444 8.16021,4.99444 2.38252,0 4.21774,-1.00282 4.21774,-2.92653 0,-1.74347 -1.74346,-2.77578 -4.58479,-3.54592 l -0.68821,-0.20647 c -3.80482,-1.09458 -8.02256,-2.66108 -8.02256,-5.82029 0,-3.34274 3.75894,-6.05953 10.95893,-6.05953 1.41902,0 2.8872,0.11798 4.21447,0.35394 1.05525,0.17697 1.78934,0.29495 2.38579,0.41293 0.18352,1.15357 0.50141,2.60209 1.0061,4.611 l -2.01547,0.20647 c -1.00938,-1.94993 -2.61193,-4.04733 -6.2365,-4.04733 -2.33664,0 -3.98507,1.15029 -3.98507,2.56931 0,1.47802 1.74019,2.36614 4.71916,3.19199 l 1.00938,0.29495 c 4.21774,1.21256 7.83904,2.74956 7.83904,6.207 0,3.6344 -4.53891,6.29548 -11.64386,6.29548 -1.83195,0 -3.71306,-0.23595 -4.95184,-0.50141 -1.37314,-0.29494 -2.33664,-0.53418 -2.88721,-0.71115 -0.36704,-1.35675 -0.96349,-2.95275 -1.51078,-4.93545 m -21.44038,-4.63887 c 0,5.34838 3.11661,9.25151 7.60964,9.25151 3.94246,0 6.09558,-2.45461 6.09558,-7.80299 0,-5.94155 -3.30014,-9.22202 -7.2426,-9.22202 -3.52953,0 -6.46262,2.60209 -6.46262,7.7735 z m 22.23247,0.50141 c 0,6.32498 -6.69203,10.28711 -15.49456,10.28711 -9.25807,0 -15.26516,-4.34556 -15.26516,-9.78242 0,-4.78798 4.95183,-10.3166 15.90749,-10.3166 8.38961,0 14.85223,3.96212 14.85223,9.81191 m -31.86708,5.08686 c 0,3.19199 0.36705,3.39845 3.52954,3.57542 l 0,1.15357 -14.85224,0 0,-1.15357 c 3.16249,-0.17697 3.52954,-0.38343 3.52954,-3.57542 l 0,-9.75292 c 0,-3.19199 -0.36705,-3.39845 -3.52954,-3.57542 l 0,-1.15357 14.85224,0 0,1.15357 c -3.16249,0.17697 -3.52954,0.38343 -3.52954,3.57542 m -28.19041,9.80962 c 0,2.62831 1.00938,3.133 3.20837,3.133 3.94246,0 7.93081,-2.80856 7.93081,-8.03896 0,-6.35447 -4.99772,-8.12743 -8.8943,-8.12743 -1.05526,0 -1.65171,0.0885 -1.9696,0.20646 -0.2294,0.059 -0.27528,0.73737 -0.27528,1.47801 l 0,11.34892 z m 2.24488,-14.51141 c 5.64004,0 10.31332,0.70788 13.38733,2.62831 2.15311,1.33054 3.94246,3.51971 3.94246,6.05953 0,7.36057 -8.6649,10.52306 -19.25351,10.52306 l -11.82738,0 0,-1.15357 c 3.34601,-0.17697 3.71306,-0.38343 3.71306,-3.57541 l 0,-9.75293 c 0,-3.19198 -0.36705,-3.39845 -3.34602,-3.57541 l 0,-1.15358 m -16.967,-0.0541 0,1.15357 c -3.02485,0.17697 -3.39189,0.38343 -3.39189,3.57542 l 0,6.03003 c 0,4.19481 2.29075,6.59043 6.37086,6.59043 4.67655,0 7.24259,-2.60209 7.24259,-7.47855 l 0,-1.77296 c 0,-2.89704 -0.18024,-4.52252 -0.36377,-5.43686 -0.23268,-1.03559 -1.46818,-1.41902 -4.49303,-1.50751 l 0,-1.15357 11.59799,0 0,1.15357 c -2.20228,0.059 -3.39518,0.47192 -3.62458,1.50751 -0.18024,0.91434 -0.36704,2.53982 -0.36704,5.43686 l 0,2.27765 c 0,2.53982 -0.73082,5.2304 -3.29686,7.06235 -2.01875,1.41902 -5.5024,2.21538 -8.71078,2.21538 -3.30013,0 -6.41674,-0.38343 -8.66489,-1.59599 -2.4284,-1.27155 -3.48366,-3.39845 -3.48366,-6.85589 l 0,-6.47245 c 0,-3.19199 -0.36704,-3.39845 -3.57541,-3.57542 l 0,-1.15357 m -0.23694,0.036 c 0.0852,1.3502 0.31133,3.41483 0.49813,5.22057 l -2.01547,0.0885 c -0.68821,-1.77624 -1.1929,-2.5431 -1.87783,-3.04451 -0.77997,-0.53418 -2.29404,-0.71115 -4.49303,-0.71115 l -1.10114,0 0,12.94491 c 0,3.19198 0.36705,3.40172 4.21775,3.57869 l 0,1.1503 -16.045134,0 0,-1.1503 c 3.667178,-0.17697 4.034224,-0.38671 4.034224,-3.57869 l 0,-12.94491 -0.779972,0 c -3.070729,0 -4.30623,0.35721 -5.040321,0.88812 -0.550568,0.44242 -1.101137,1.21256 -1.697586,2.86754 l -1.923711,0 c 0.157305,-2.12362 0.360491,-3.89003 0.47847,-5.30905 m -18.470259,13.13988 c 0.963494,1.71397 3.667178,4.99444 8.160208,4.99444 2.382519,0 4.217746,-1.00282 4.217746,-2.92653 0,-1.74347 -1.743466,-2.77578 -4.584791,-3.54592 l -0.688211,-0.20647 c -3.80482,-1.09458 -8.022566,-2.66108 -8.022566,-5.82029 0,-3.34274 3.758939,-6.05953 10.955653,-6.05953 1.422301,0 2.887206,0.11798 4.217746,0.35394 1.055256,0.17697 1.789347,0.29495 2.382519,0.41293 0.183523,1.15357 0.504687,2.60209 1.009375,4.611 l -2.015473,0.20647 c -1.009375,-1.94993 -2.611922,-4.04733 -6.236497,-4.04733 -2.336637,0 -3.988342,1.15029 -3.988342,2.56931 0,1.47802 1.743466,2.36614 4.722433,3.19199 l 1.009376,0.29495 c 4.217746,1.21256 7.839043,2.74956 7.839043,6.207 0,3.6344 -4.538911,6.29548 -11.643863,6.29548 -1.835228,0 -3.713059,-0.23595 -4.951837,-0.50141 -1.373144,-0.29494 -2.336638,-0.53418 -2.887207,-0.71115 -0.367045,-1.35675 -0.963494,-2.95275 -1.514062,-4.93545 m 104.102299,-21.0127 130.14057,0 0,-0.71443 -130.14057,0 0,0.71443 z m -163.9022052,0.0131 130.1405752,0 0,-0.71443 -130.1405752,0 0,0.71443 z M 162.7607,188.36754 c -0.47519,-1.43541 -1.79262,-1.73036 -2.82166,-1.73036 -1.6812,0 -3.07729,1.14374 -3.07729,3.00191 0,1.68775 1.04871,3.26736 3.23459,3.26736 0.39654,0 0.64889,-0.0885 0.64889,-0.59973 l 0,-1.04542 c 0,-0.72754 -0.0623,-0.80619 -1.72381,-0.8914 l 0,-0.4883 5.29267,0 0,0.4883 c -0.80947,0.0983 -0.87173,0.13109 -0.87173,0.8914 l 0,0.78325 c 0,0.39326 0.0164,0.74064 0.095,0.98971 -0.98315,0.1868 -2.26781,0.43587 -3.58197,0.43587 -3.78843,0 -6.03986,-1.40264 -6.03986,-3.62458 0,-2.49066 2.88393,-3.77532 6.25944,-3.77532 1.22239,0 2.47428,0.1868 3.02812,0.28511 0.0492,0.37033 0.12781,0.934 0.25562,1.97943 m -15.70755,3.23197 c -0.0328,1.17651 0.12781,1.25189 1.25189,1.31743 l 0,0.42276 -4.94529,0 0,-0.42276 c 1.02904,-0.0655 1.15685,-0.14092 1.15685,-1.31743 l 0,-3.5918 c 0,-1.17324 -0.12781,-1.25189 -1.2355,-1.31416 l 0,-0.42603 4.94528,0 0,0.42603 c -1.04542,0.0623 -1.17323,0.14092 -1.17323,1.31416 l 0,1.69758 c 1.15685,-0.89139 2.12362,-1.69758 3.04123,-2.52343 0.22285,-0.19664 0.39982,-0.41293 -0.0295,-0.4457 l -0.603,-0.0426 0,-0.42603 4.24724,0 0,0.42603 c -0.90123,0.0623 -1.39281,0.11798 -2.21866,0.67183 -0.85535,0.56695 -1.64843,1.1208 -2.3137,1.65498 0.98316,1.03232 2.02858,2.03514 3.02813,2.94947 0.85534,0.78325 1.14046,0.8914 1.79262,0.94711 l 0,0.42276 -3.64751,0 c -0.60301,-0.69477 -2.10724,-2.29404 -3.26737,-3.48038 l -0.0295,0 m -10.60334,1.2391 c 0.33427,0.6325 1.26827,1.8385 2.82166,1.8385 0.82585,0 1.45835,-0.37032 1.45835,-1.07491 0,-0.64233 -0.603,-1.02577 -1.58616,-1.3076 l -0.23596,-0.0754 c -1.31743,-0.40309 -2.77578,-0.97988 -2.77578,-2.14328 0,-1.22895 1.30105,-2.23177 3.78844,-2.23177 0.49158,0 0.99954,0.0459 1.45835,0.13109 0.36704,0.0655 0.61939,0.10814 0.82585,0.15403 0.0623,0.42275 0.17369,0.95694 0.34738,1.6943 l -0.69804,0.0787 c -0.34738,-0.71771 -0.90123,-1.49113 -2.15312,-1.49113 -0.80946,0 -1.37969,0.42276 -1.37969,0.94711 0,0.54402 0.603,0.86846 1.63204,1.17324 l 0.35066,0.10814 c 1.45507,0.44898 2.70696,1.01266 2.70696,2.28748 0,1.3371 -1.5665,2.31698 -4.02439,2.31698 -0.6325,0 -1.28466,-0.0885 -1.71397,-0.1868 -0.4752,-0.10815 -0.80619,-0.19336 -0.99627,-0.2589 -0.12781,-0.50141 -0.33427,-1.08803 -0.52435,-1.81884"
/>

</svg>
