<?xml version="1.0"?>

<svg xmlns="http://www.w3.org/2000/svg" viewBox="0 0 557.5 212.5" width="557.5" height="212.5"> <path d="m 476.5,82.78 13.6,26.02 -15.7,27.2 12.9,0 8.9,-16 7.9,16 16,0 -15.9,-29.8 13.8,-23.42 -12.8,0 -6.9,12.3 -5.7,-12.3 -16.1,0 z m -21,9.18 c 4.6,0 6.2,3.67 6.2,17.34 0,14.2 -1.9,17.4 -6.2,17.4 -4.4,0 -6.3,-3.3 -6.3,-17.4 0,-13.02 1.5,-17.34 6.2,-17.34 l 0.1,0 z m 0,-10.35 c -15.9,0 -21.7,11.11 -21.7,27.69 0,17.1 6.3,27.8 21.6,27.8 15.6,0 21.8,-10.8 21.8,-27.8 0,-16.58 -6,-27.69 -21.7,-27.69 m -53.8,19.99 c 0,-2.74 0,-5.45 1.8,-7.49 1,-1.41 2.7,-2.26 4.7,-2.26 4.3,0 6.5,3.56 6.5,17.55 0,13.7 -2.1,17.4 -6.8,17.4 -6.2,0 -6.2,-6.9 -6.2,-13 l 0,-12.2 z m -14.6,-37.54 0,71.94 8.8,0 c 1.1,-3.8 1.7,-4.9 2.8,-6.9 1.3,2.6 3.8,8 12.2,8 2.9,0 5.8,-0.6 8.7,-2.1 9.7,-5.1 10.4,-21.1 10.4,-26 0,-12.85 -4.2,-26.96 -17.1,-26.96 -6.5,0 -9.4,3.45 -11.2,5.71 l 0,-23.69 -14.6,0 z m -32.6,40.04 c 0,-4.72 0,-12.25 6.8,-12.25 5.6,0 6,7.42 6,16.85 0,11.2 -0.5,17.7 -6.6,17.7 -6.2,0 -6.2,-4.5 -6.2,-12.1 l 0,-10.2 z m -14.6,-21.32 0,71.12 14.6,0 0,-21.8 c 1.7,1.6 4.3,4.5 10.2,4.5 17,0 17.9,-20.4 17.9,-27.9 0,-8.98 -1.6,-17.29 -6.9,-22.58 -2.6,-2.58 -6.4,-4.1 -10,-4.1 -7.3,0 -10.2,5.29 -12,8.74 l 0,-7.98 -13.8,0 z m -26,9.18 c 4.6,0 6.2,3.67 6.2,17.34 0,14.2 -1.9,17.4 -6.2,17.4 -4.4,0 -6.3,-3.3 -6.3,-17.4 0,-13.02 1.5,-17.34 6.2,-17.34 l 0.1,0 z m 0,-10.35 c -15.8,0 -21.6,11.11 -21.6,27.69 0,17.1 6.2,27.8 21.5,27.8 15.6,0 21.8,-10.8 21.8,-27.8 0,-16.58 -5.9,-27.69 -21.7,-27.69 m -51.9,1.17 0,53.22 14.8,0 0,-23 c 0,-4.1 0,-16.42 10.9,-16.42 0.6,0 1.2,0 2.5,0.22 l 0,-14.45 c -0.7,-0.22 -1.5,-0.33 -2.6,-0.33 -8.6,0 -11.2,9.07 -12.5,13.6 l 0,-12.84 -13.1,0 z m -40,-6.3 2.8,0 c 6.3,0 15,0.69 15,22.85 0,23.47 -8.8,24.27 -15,24.27 l -2.8,0 0,-47.12 z m -15.7,59.52 18.9,0 c 5.5,0 13.2,0 19.6,-5 7.7,-5.9 11.7,-18 11.7,-31.45 0,-35.36 -22.3,-35.49 -33.2,-35.49 l -17,0 0,71.94 z m -90.3,-18.8 -28.67,23.9 -12.28,-8 0,8.9 40.95,24.6 41,-24.6 0,-8.9 -12.3,8 L 116,117.2 Z M 185.4,64.06 144.6,37.28 115.9,61.3 157.2,86.7 185.4,64.06 Z M 115.9,112.1 144.6,136 185.4,109.3 157.2,86.65 115.9,112.1 Z M 46.48,109.3 87.33,136 115.9,112.1 74.77,86.65 46.48,109.3 Z M 87.33,37.28 46.48,63.92 74.77,86.62 115.9,61.16 87.33,37.28 Z"></path> </svg>