<?xml version="1.0"?>
<svg xmlns="http://www.w3.org/2000/svg" width="1000" height="1000" viewBox="0 0 1000 1000">
<path style="display:none" class="only-dark-background" d="M 441.68 25.723 C 443.44 54.84 442.02 93.689 441.27 107.05 C 439.51 138.26 425.26 171.39 396.62 187.13 C 343.22 223.6 280.17 245.86 233.07 291.37 C 211.19 311.59 190.83 333.52 173.68 357.94 C 142.21 402.99 120.65 454.75 110.17 508.66 C 99.761 562.93 100.53 619.4 113.39 673.2 C 125.86 725.23 148.8 774.83 181.75 817.08 C 262.63 922.1 397.07 984.63 529.72 974.61 C 588.95 971.8 647.32 954.73 699.29 926.33 C 772.47 886.57 833.64 823.18 866.09 746.04 C 892.11 683.97 901.73 615.37 894.99 548.48 C 890.12 499.04 876.32 450.53 854.59 405.85 C 832.12 359.78 800.56 318.24 762.04 284.4 C 713.67 237.86 650.6 212.16 591.36 182.77 C 551.38 161.16 524.49 123.18 494.97 89.855 C 487.54 79.525 464.86 46.283 441.68 25.723 z M 469.94 103.99 C 501.96 140.18 531.65 181.78 574.54 205.95 C 633.77 235.91 697.68 260.08 745.75 307.81 C 855.79 404.94 896.25 568.58 850.45 707.03 C 807.15 845.5 669 940.93 526.06 946.57 C 363.12 958.32 198.16 851.67 148.75 694.69 C 105.18 564.24 143.63 410.8 246 318.21 C 292.79 269.38 358.52 248.28 412.84 210.22 C 450.29 188.51 467.5 145.59 469.94 103.99 z M 429.31 586.4 C 428.18 586.4 427.05 586.41 425.91 586.43 C 384.61 586.66 343.99 606.13 318.12 638.34 C 278.45 683.05 279.47 768.86 339.24 795.95 C 394.4 819.04 456.84 802.82 506.1 772.84 C 549.33 751.42 587.42 715.16 636.31 708.28 C 678.64 719.34 702.21 761.43 734.78 787.67 C 768.36 826.73 812.79 783.21 825.63 748.41 C 842.4 705.74 857.57 647.17 821.52 609.99 C 784.87 581.67 744.81 620.36 713.99 639.33 C 683.62 657.39 648.73 692.6 610.86 673.94 C 552.11 642.11 500.43 586.71 429.31 586.4 z M 620.89 763.36 C 616.66 763.34 612.55 763.89 608.75 765.11 C 581.24 764.28 558.75 784.09 540.79 802.64 C 532.22 839.58 571.76 802.97 584.11 794.18 C 616.56 773.93 649.56 798.77 666.36 817.95 C 686.3 791.7 650.53 763.49 620.89 763.36 z M 685.89 851.9 C 641.49 880.92 585.6 885.44 534.14 878.46 C 510.49 880.23 457.2 832.02 464.09 878.87 C 504.56 913.28 561.82 908.8 611.14 903.86 C 635.1 897.2 703.49 883.6 685.89 851.9 z "></path>
<path class="only-light-background" d="m 469.94286,64.38776 c -2.44518,41.60604 -19.64938,84.51819 -57.10443,106.2281 C 358.5215,208.67616 292.78615,229.78371 245.99534,278.60993 143.6285,371.20396 105.18422,524.64069 148.74948,655.09082 198.1595,812.07002 363.12486,918.71847 526.06454,906.96559 668.99515,901.32631 807.14897,805.90168 850.45044,667.43174 896.25409,528.97565 855.79119,365.34171 745.74869,268.20931 697.68251,220.47705 633.76546,196.306 574.53833,166.351 531.65248,142.1834 501.96157,100.58033 469.94286,64.38776 z m -44.03641,482.43732 c 72.88393,-1.47962 125.27693,55.18334 184.95619,87.51211 37.8683,18.65954 72.75374,-16.54922 103.1252,-34.60749 30.82632,-18.96584 70.88636,-57.65521 107.5351,-29.34096 36.04208,37.17851 20.88029,95.75397 4.10263,138.42065 -12.83188,34.7979 -57.26868,78.3192 -90.84652,39.26395 -32.56565,-26.23876 -56.13837,-68.33461 -98.47264,-79.39501 -48.89074,6.8767 -86.97682,43.13867 -130.21011,64.56356 -49.25887,29.97744 -111.69178,46.20254 -166.85797,23.10731 -59.76441,-27.09056 -60.7874,-112.90276 -21.12027,-157.61037 25.87378,-32.21035 66.49421,-51.67853 107.78839,-51.91375 z m 182.84758,178.68425 c 30.41235,-9.72152 80.39847,22.84262 57.60951,52.83688 -16.80092,-19.17931 -49.80018,-44.01529 -82.25095,-23.76139 -12.34925,8.78308 -51.89403,45.39797 -43.32137,8.45358 17.95659,-18.55087 40.44495,-38.35496 67.96281,-37.52907 z m 77.13987,86.78659 c 17.59741,31.70673 -50.7901,45.30412 -74.75167,51.96441 -49.31897,4.9427 -106.58061,9.41815 -147.05508,-24.98745 -6.89007,-46.85575 46.3979,1.36029 70.04816,-0.40895 51.46525,6.976 107.35877,2.45683 151.75859,-26.56801 z"></path>
</svg>