<?xml version="1.0"?>

<svg xmlns="http://www.w3.org/2000/svg" height="417.26" width="1011.8" viewBox="0 0 1011.8 417.26"><path d="m 911.26,358.59 c 0,-14.41 11.77,-26.21 27.5,-26.21 14.4,0 26.2,11.8 26.2,26.21 0,15.7 -11.79,27.5 -26.2,27.5 -15.73,0 -27.5,-11.78 -27.5,-27.5 z m 49.75,0 c 0,-11.78 -10.48,-22.27 -22.25,-22.27 -13.09,0 -22.26,10.47 -22.26,22.27 0,11.79 9.17,22.27 22.26,22.27 11.8,0 22.25,-10.48 22.25,-22.27 z m -28.79,1.31 v 14.41 h -3.93 v -31.43 h 9.18 c 6.53,0 11.77,1.31 11.77,7.86 0,3.93 -1.3,6.55 -6.53,7.86 v 0 c 5.24,1.32 5.73,2.49 6.53,6.55 0.51,2.57 0.87,6.1 1.32,9.16 h -6.55 c -0.21,-2.65 -0.32,-5.54 -0.61,-7.94 -0.67,-5.63 -2.31,-5.63 -7.25,-6.47 z m 5.25,-3.95 c 5.24,0 6.53,-2.61 6.53,-5.23 0,-2.61 -1.29,-3.93 -5.24,-3.93 h -6.54 v 9.16 z m -430.9,19.66 c 269.8,0 464.94,-65.48 464.94,-167.63 C 971.5,107.13 776.38,41.65 506.57,41.65 V 22 c 280.27,0 483.27,73.34 483.27,185.97 0,113.95 -203,187.29 -483.28,187.29 z m 0,-333.96 c -269.79,0 -464.93,65.48 -464.93,166.33 0,102.15 195.14,167.63 464.93,167.63 v 19.65 C 226.31,395.26 22,321.91 22,207.98 22,95.34 226.31,22 506.57,22 Z M 184.4,170 v -27.5 c 0,-5.25 -3.93,-10.48 -10.47,-7.86 -5.25,2.61 -20.95,7.86 -30.13,13.09 v 22.25 H 116.3 V 132 c 18.34,-11.77 47.14,-23.57 60.25,-27.48 14.4,-5.233 35.35,2.61 35.35,24.88 V 170 Z m 27.5,0 v 117.88 c 0,18.34 -15.7,31.43 -30.12,26.18 -15.7,-5.23 -48.45,-17.02 -65.49,-28.8 V 170 h 27.5 v 100.84 c 9.18,2.63 19.65,7.86 27.5,11.79 10.48,2.63 13.09,-1.31 13.09,-7.86 V 170 Z M 342.86,69.14 v 239.68 c 0,36.66 -24.89,36.66 -51.09,32.74 C 265.58,336.32 242,333.7 242,300.95 V 87.49 l 26.2,-6.54 v 217.4 c 0,11.8 11.78,13.1 23.57,15.71 11.79,1.32 23.59,3.93 23.59,-10.48 V 73.09 Z m 356.23,273.74 c -10.47,2.61 -15.71,2.61 -27.5,5.24 V 70.46 c 11.79,1.31 18.35,1.31 28.83,3.93 l 45.83,168.95 V 80.93 c 11.76,2.62 17.01,3.93 27.5,6.55 v 243.59 c -10.49,2.63 -18.34,2.63 -28.79,5.25 L 699.09,175.23 Z m 167.64,-41.93 c -9.16,3.93 -15.71,6.55 -26.18,10.48 V 134.64 c -13.09,-5.25 -26.18,-9.17 -37.98,-11.8 v -27.5 c 48.45,11.78 73.34,24.89 100.84,41.91 V 170 c -9.17,-7.85 -22.28,-15.71 -36.68,-22.26 z M 409.66,170 V 65.22 c 18.33,-2.61 47.14,-3.93 73.34,-3.93 13.09,0 30.12,6.55 30.12,30.12 v 78.57 H 484.31 V 95.34 c 0,-5.25 -2.63,-6.55 -5.25,-6.55 -2.63,0 -39.29,1.32 -41.9,1.32 V 170 Z m 103.46,0 v 66.79 c 0,27.5 -23.58,34.05 -40.6,34.05 h -35.36 v 83.81 c -5.25,0 -20.96,-1.31 -27.5,-1.31 V 170 h 27.5 v 73.34 h 36.67 c 6.55,0 10.48,-1.32 10.48,-11.8 V 170 Z m 129.64,0 h -27.5 v -65.48 c 0,-13.09 -11.78,-14.41 -23.55,-14.41 -10.48,-1.32 -23.58,0 -23.58,14.41 V 170 h -27.5 V 96.66 c 0,-31.44 24.88,-35.37 51.09,-34.05 26.19,1.31 51.08,6.55 51.08,37.98 V 170 Z m 0,0 v 145.38 c 0,32.74 -24.87,37.98 -51.06,39.27 -26.2,1.32 -51.09,-2.61 -51.09,-34.04 V 170 h 27.5 v 142.75 c 0,14.4 13.09,15.7 23.58,15.7 11.76,-1.31 23.56,-2.61 23.56,-15.7 V 170 Z"></path>
   </svg>