<?xml version="1.0"?>

<!-- Generator: Adobe Illustrator 19.2.0, SVG Export Plug-In . SVG Version: 6.00 Build 0)  -->
<svg version="1.1" id="Layer_1" xmlns="http://www.w3.org/2000/svg" xmlns:xlink="http://www.w3.org/1999/xlink" x="0px" y="0px" width="316.556px" height="146.358px" viewBox="0 0 316.556 146.358" enable-background="new 0 0 316.556 146.358" xml:space="preserve">
<path id="e" d="M43.003,34.356c-21.145,0-38.766,8.971-38.766,36.036c0,21.442,11.849,34.944,39.312,34.944
	c32.326,0,34.398-21.294,34.398-21.294H62.284c0,0-3.358,11.466-19.69,11.466c-13.302,0-22.869-8.986-22.869-21.58h59.861v-7.904
	C79.586,53.564,71.675,34.356,43.003,34.356z M42.457,44.457c12.662,0,21.295,7.757,21.295,19.383H20.071
	C20.071,51.497,31.338,44.457,42.457,44.457z"></path>
<path id="b" d="M79.575,8.148v83.597c0,4.745-0.339,11.408-0.339,11.408h14.939c0,0,0.536-4.785,0.536-9.159
	c0,0,7.381,11.548,27.451,11.548c21.135,0,35.49-14.674,35.49-35.695c0-19.557-13.186-35.285-35.456-35.285
	c-20.854,0-27.334,11.261-27.334,11.261V8.148H79.575z M118.34,44.901c14.353,0,23.479,10.651,23.479,24.945
	c0,15.328-10.54,25.355-23.376,25.355c-15.317,0-23.58-11.961-23.58-25.219C94.863,57.628,102.277,44.901,118.34,44.901z"></path>
<path id="a" d="M194.781,34.356c-31.812,0-33.852,17.419-33.852,20.202h15.834c0,0,0.83-10.169,16.926-10.169
	c10.459,0,18.564,4.787,18.564,13.991v3.276h-18.564c-24.645,0-37.674,7.209-37.674,21.84c0,14.398,12.038,22.232,28.307,22.232
	c22.172,0,29.314-12.251,29.314-12.251c0,4.872,0.375,9.675,0.375,9.675h14.076c0,0-0.546-5.952-0.546-9.76V60.479
	C227.542,38.898,210.134,34.356,194.781,34.356L194.781,34.356z M212.254,71.485v4.367c0,5.697-3.516,19.861-24.212,19.861
	c-11.333,0-16.192-5.656-16.192-12.217C171.849,71.561,188.213,71.485,212.254,71.485L212.254,71.485z"></path>
<path d="M219.015,37.088h17.813l25.565,51.217L287.9,37.088h16.137l-46.459,91.184h-16.927l13.406-25.419L219.015,37.088z"></path>
</svg>
