<?xml version="1.0"?>

<svg xmlns="http://www.w3.org/2000/svg" viewBox="0 0 513.9 154.3" height="154.3" width="513.9"><path d="m 491.9,75.14 0,4.98 -46.9,0 c 0.4,7.03 2.5,12.37 6.3,16.05 3.8,3.67 9.1,5.53 15.8,5.53 4,0 7.8,-0.5 11.4,-1.5 3.7,-0.92 7.4,-2.36 11,-4.28 l 0,9.68 c -3.7,1.5 -7.4,2.7 -11.3,3.5 -3.8,0.8 -7.7,1.2 -11.7,1.2 -9.9,0 -17.7,-2.8 -23.5,-8.6 -5.8,-5.78 -8.7,-13.57 -8.7,-23.4 0,-10.16 2.8,-18.22 8.3,-24.19 5.5,-5.97 12.9,-8.95 22.2,-8.95 8.3,0 14.9,2.69 19.8,8.06 4.8,5.37 7.3,12.68 7.3,21.92 m -10.2,-3 C 481.6,66.57 480,62.11 477,58.79 c -3.1,-3.33 -7.1,-4.99 -12.1,-4.99 -5.7,0 -10.3,1.61 -13.7,4.82 -3.4,3.22 -5.4,7.74 -5.9,13.58 l 36.4,-0.1 z m -54,-23.66 0,9.64 c -2.9,-1.47 -5.9,-2.58 -9,-3.32 -3.1,-0.74 -6.3,-1.11 -9.6,-1.11 -5.1,0 -8.9,0.78 -11.4,2.33 -2.5,1.55 -3.8,3.88 -3.8,6.98 0,2.36 0.9,4.22 2.7,5.57 1.8,1.35 5.5,2.63 10.9,3.85 l 3.5,0.78 c 7.3,1.55 12.4,3.74 15.5,6.57 3,2.82 4.5,6.77 4.5,11.83 0,5.76 -2.2,10.3 -6.8,13.7 -4.6,3.3 -10.8,5 -18.8,5 -3.3,0 -6.8,-0.3 -10.4,-0.9 -3.6,-0.7 -7.4,-1.7 -11.4,-2.9 l 0,-10.58 c 3.8,1.96 7.5,3.43 11.1,4.38 3.7,1 7.3,1.5 10.9,1.5 4.8,0 8.5,-0.8 11.1,-2.47 2.6,-1.65 3.9,-3.97 3.9,-6.96 0,-2.77 -1,-4.89 -2.8,-6.37 -1.9,-1.48 -6,-2.9 -12.3,-4.27 l -3.6,-0.83 c -6.3,-1.33 -10.8,-3.37 -13.6,-6.12 -2.9,-2.76 -4.3,-6.53 -4.3,-11.34 0,-5.84 2.1,-10.34 6.3,-13.52 4.1,-3.18 10,-4.77 17.6,-4.77 3.7,0 7.3,0.28 10.6,0.83 3.3,0.56 6.4,1.39 9.2,2.5 m -93.2,50.93 0,32.89 -10.3,0 0,-85.65 10.3,0 0,9.42 c 2.1,-3.69 4.8,-6.44 8.1,-8.23 3.3,-1.79 7.2,-2.69 11.7,-2.69 7.6,0 13.7,3 18.4,8.98 4.7,5.99 7.1,13.86 7.1,23.61 0,9.76 -2.4,17.63 -7.1,23.66 -4.7,5.9 -10.8,8.9 -18.4,8.9 -4.5,0 -8.4,-0.9 -11.7,-2.7 -3.3,-1.7 -6,-4.5 -8.1,-8.19 m 34.7,-21.67 c 0,-7.5 -1.6,-13.38 -4.7,-17.65 -3,-4.27 -7.3,-6.4 -12.7,-6.4 -5.4,0 -9.6,2.13 -12.7,6.4 -3.1,4.27 -4.6,10.15 -4.6,17.65 0,7.5 1.5,13.39 4.6,17.65 3.1,4.27 7.3,6.41 12.7,6.41 5.4,0 9.7,-2.14 12.7,-6.41 3.1,-4.26 4.7,-10.15 4.7,-17.65 m -67.6,-31.09 10.2,0 0,62.05 -10.2,0 0,-62.05 z m -23,-24.16 10.2,0 0,86.21 -10.2,0 z m -9.2,26.55 0,9.53 c -2.9,-1.59 -5.8,-2.78 -8.7,-3.58 -2.9,-0.79 -5.8,-1.19 -8.8,-1.19 -6.6,0 -11.8,2.1 -15.4,6.29 -3.7,4.19 -5.5,10.08 -5.5,17.65 0,7.57 1.8,13.46 5.5,17.65 3.6,4.2 8.8,6.31 15.4,6.31 3,0 5.9,-0.4 8.8,-1.2 2.9,-0.8 5.8,-1.99 8.7,-3.58 l 0,9.38 c -2.9,1.4 -5.8,2.4 -8.9,3 -3,0.7 -6.3,1 -9.7,1 -9.4,0 -16.8,-2.9 -22.3,-8.8 -5.5,-5.86 -8.3,-13.78 -8.3,-23.76 0,-10.12 2.8,-18.08 8.4,-23.88 5.5,-5.8 13.2,-8.71 22.8,-8.71 3.2,0 6.3,0.33 9.2,0.98 3,0.64 5.9,1.61 8.8,2.91 m -52.9,26.1 0,4.98 -46.9,0 c 0.4,7.03 2.5,12.37 6.3,16.05 3.8,3.67 9.1,5.53 15.8,5.53 4,0 7.8,-0.5 11.4,-1.5 3.7,-0.92 7.4,-2.36 11,-4.28 l 0,9.68 c -3.7,1.5 -7.4,2.7 -11.3,3.5 -3.8,0.8 -7.7,1.2 -11.7,1.2 -9.9,0 -17.7,-2.8 -23.5,-8.6 -5.8,-5.78 -8.7,-13.57 -8.7,-23.4 0,-10.16 2.8,-18.22 8.3,-24.19 5.4,-5.97 12.8,-8.95 22.2,-8.95 8.3,0 14.9,2.69 19.8,8.06 4.8,5.37 7.3,12.68 7.3,21.92 m -10.2,-3 c -0.1,-5.57 -1.7,-10.03 -4.7,-13.35 -3.1,-3.33 -7.1,-4.99 -12.1,-4.99 -5.7,0 -10.3,1.61 -13.7,4.82 -3.4,3.22 -5.4,7.74 -5.9,13.58 l 36.4,-0.1 z M 301.6,22 l 10.2,0 0,12.91 -10.2,0 z M 30.53,77.17 c 0,-25.83 19.39,-47.29 44.63,-51.06 -0.63,-0 -1.26,-0.1 -1.89,-0.1 C 44.96,26.06 22,48.94 22,77.17 c 0,28.23 22.95,51.13 51.27,51.13 0.63,0 1.26,-0.1 1.89,-0.1 C 49.93,124.4 30.53,103 30.53,77.17 Z M 129.3,63.06 C 127.1,55.43 122.9,48.58 116.9,42.52 109.3,34.91 100.4,30.34 90.25,28.8 87.68,28.42 85.04,28.21 82.31,28.21 68.81,28.21 57.26,32.98 47.66,42.52 41.64,48.58 37.52,55.43 35.31,63.06 M 33.44,79.9 c 0.1,2.02 0.31,3.98 0.63,5.9 l 9.1,0 6.89,0 73.64,0 6.9,0 c 0.3,-1.92 0.5,-3.88 0.6,-5.9 m -88.38,-11.37 -8.75,0 c -0.32,1.92 -0.53,3.89 -0.63,5.9 l 10.39,0 5.22,0 75.25,0 6.9,0 c -0.1,-2.01 -0.3,-3.98 -0.6,-5.9 m -78.55,22.74 -16.74,0 c 2.22,7.61 6.33,14.43 12.35,20.43 9.61,9.6 21.15,14.4 34.65,14.4 2.7,0 5.32,-0.2 7.86,-0.6 10.13,-1.5 19.03,-6.1 26.73,-13.8 6,-6 10.2,-12.82 12.4,-20.43 l -6.8,0 -9.9,0 -60.55,0 z"></path></svg>