<?xml version="1.0"?>

<svg xmlns:dc="http://purl.org/dc/elements/1.1/" xmlns:cc="http://creativecommons.org/ns#" xmlns:rdf="http://www.w3.org/1999/02/22-rdf-syntax-ns#" xmlns:svg="http://www.w3.org/2000/svg" xmlns="http://www.w3.org/2000/svg" version="1.1" id="svg2" viewBox="0 0 170.34041 120.18078" height="120.18078mm" width="170.34041mm">
  <defs id="defs4"></defs>
  <g transform="translate(-52.796168,-181.75087)" id="layer1"></g>
  <path id="path4206" d="m 127.93798,96.889455 0.0234,-1.29117 1.53823,-0.023 1.53823,-0.0231 0.26094,-0.24376 0.26093,-0.24375 0,-1.82177 c 0,-1.74905 -0.0271,-2.08963 -0.16636,-2.08963 -0.035,0 -0.20335,0.22647 -0.3742,0.50326 -0.45432,0.73606 -0.95721,1.34589 -1.26429,1.53313 -0.22456,0.13693 -0.42858,0.16437 -1.22398,0.16463 l -0.95449,3.4e-4 0.0232,-1.44729 0.0232,-1.44728 0.31767,-0.10913 c 0.81938,-0.28148 1.38943,-1.00867 2.44973,-3.12501 0.4173,-0.8329 0.84705,-1.6543 0.95501,-1.82532 0.18734,-0.29677 0.19256,-0.34741 0.1143,-1.11029 -0.0451,-0.43964 -0.0636,-0.94222 -0.0412,-1.11685 l 0.0408,-0.3175 -1.79112,-10e-4 c -0.9851,-6.8e-4 -1.87683,-0.0241 -1.98161,-0.0522 -0.18595,-0.0498 -0.1905,-0.0791 -0.1905,-1.22651 l 0,-1.17548 1.98967,0 1.98967,0 0,-0.84667 0,-0.84667 1.56633,0 1.56634,0 0,0.28097 c 0,0.47424 0.23456,1.10806 0.50646,1.36857 0.21315,0.20421 0.32795,0.2457 0.67987,0.2457 0.49967,0 0.50154,-0.044 -0.0448,1.06189 -0.25508,0.51634 -0.48491,0.84656 -0.75421,1.08361 -0.38672,0.34039 -0.38734,0.34186 -0.38734,0.90177 l 0,0.56083 0.72537,0 c 0.71288,0 0.72437,0.003 0.66769,0.1905 -0.10992,0.36302 -1.07573,2.39256 -1.2129,2.54881 -0.12275,0.1398 -0.14246,0.68235 -0.18016,4.95929 l -0.0423,4.80232 -0.22263,0.3363 c -0.28794,0.43497 -1.01397,0.82284 -1.8693,0.99864 -0.48489,0.0997 -1.1545,0.13414 -2.60571,0.13414 l -1.9531,0 0.0234,-1.29117 z M 23.863673,91.886075 c 0,-7.21116 0.109384,-6.49012 -0.984566,-6.49012 -0.412034,0 -0.714472,-0.0396 -0.7765,-0.1016 -0.06878,-0.0688 -0.1016,-0.46323 -0.1016,-1.22094 l 0,-1.11934 0.275166,-0.0583 c 0.844225,-0.17876 1.283936,-0.72204 1.961712,-2.42377 0.253285,-0.63594 0.548929,-1.29269 0.656987,-1.45946 l 0.196468,-0.3032 1.629834,-0.001 1.629833,-10e-4 0,0.27846 c 0,0.17663 -0.247685,0.78306 -0.677333,1.65838 l -0.677334,1.37993 0,8.03595 0,8.03595 -1.566333,0 -1.566334,0 0,-6.20988 z m 72.023113,6.15344 c -0.031,-0.031 -0.0564,-2.8314 -0.0564,-6.223 l 0,-6.16656 -1.86267,0 -1.86266,0 0,-1.27 0,-1.27 1.8536,0 c 2.04436,0 1.9564,0.0248 1.9564,-0.55033 0,-0.57508 0.088,-0.55034 -1.9564,-0.55034 l -1.8536,0 0,-1.18533 0,-1.18533 3.53716,0 c 3.95599,0 3.83367,0.0182 3.999,-0.59577 l 0.0904,-0.33557 1.393744,0 1.39374,0 0,1.0795 c 0,0.92129 -0.0246,1.11923 -0.16559,1.35056 -0.28896,0.47391 -0.87857,0.68229 -2.20996,0.78106 -0.491804,0.0365 -1.006154,0.11999 -1.143004,0.18558 -0.22609,0.10837 -0.24881,0.1578 -0.24881,0.54144 l 0,0.4222 1.751674,0.0229 c 2.23388,0.0292 2.14507,-0.10985 1.10785,1.73396 l -0.46438,0.8255 -1.13407,0 -1.134074,0 0,0.30716 c 0,0.45776 -0.23864,8.92159 -0.29607,10.50076 -0.0377,1.03714 -0.0248,1.3759 0.0535,1.402 0.0568,0.0189 0.0752,0.0798 0.0409,0.13525 -0.0674,0.1091 -2.68354,0.15073 -2.78988,0.0444 z m 49.727564,-0.0722 c -0.91541,-0.20495 -1.48705,-0.54489 -2.30381,-1.37002 -0.40562,-0.40978 -0.81796,-0.84982 -0.91631,-0.97788 -0.0984,-0.12806 -0.20909,-0.23283 -0.24606,-0.23283 -0.037,0 -0.51998,0.46054 -1.07336,1.02342 -0.55337,0.56288 -1.19662,1.13402 -1.42946,1.2692 l -0.42333,0.24579 -1.5875,7.6e-4 -1.5875,7.6e-4 0,-1.2065 0,-1.2065 0.46605,0.029 c 0.75544,0.047 1.40914,-0.31137 2.41247,-1.32272 0.44905,-0.45263 0.92426,-0.96735 1.05602,-1.14383 l 0.23958,-0.32086 -0.21076,-0.22947 c -0.50662,-0.55155 -2.88671,-3.82583 -3.00489,-4.13381 -0.0374,-0.0975 0.22708,-0.11733 1.56131,-0.11733 l 1.60634,0 0.5156,0.62334 c 0.64487,0.77995 1.25286,1.40873 1.36186,1.40873 0.0975,0 0.97983,-1.12248 1.59724,-2.032 l 0.43107,-0.635 -3.74078,-0.0423 -3.74078,-0.0423 0,-1.22767 0,-1.22766 1.98967,-0.0423 1.98967,-0.0423 0.0154,-0.84667 c 0.008,-0.46566 0.0356,-0.94888 0.0602,-1.07381 0.0434,-0.21972 0.0293,-0.22909 -0.42939,-0.2864 -0.26083,-0.0326 -1.13566,-0.0411 -1.94409,-0.0188 l -1.46985,0.0404 0,-1.25525 0,-1.25525 1.88383,-0.0228 1.88384,-0.0228 0,-0.82562 0,-0.82562 1.49976,9e-5 1.49977,8e-5 0.0242,0.8255 0.0242,0.8255 2.27424,0.0226 2.27423,0.0226 -0.0597,0.40076 c -0.0858,0.57552 -0.42837,1.24539 -0.78989,1.54441 -0.47111,0.38967 -0.98773,0.50736 -2.22705,0.50736 -0.59389,0 -1.17752,0.0372 -1.29697,0.0826 -0.21717,0.0826 -0.21718,0.0826 -0.21718,1.143 l 0,1.06043 2.23693,0 2.23693,0 0.0594,0.55481 c 0.0327,0.30514 0.0415,0.74109 0.0196,0.96878 -0.0805,0.83825 -0.95867,2.33063 -2.93124,4.98168 -0.56595,0.76061 -1.029,1.42941 -1.029,1.48621 0,0.0568 0.0944,0.29282 0.2099,0.52448 0.24392,0.48949 0.77061,0.92481 1.57346,1.30049 0.52873,0.24741 1.72419,0.59755 2.04019,0.59755 0.3078,0 0.19162,0.53594 -0.33105,1.52709 -0.26776,0.50775 -0.53399,0.942 -0.59163,0.965 -0.28241,0.11265 -0.9678,0.11452 -1.46154,0.004 z m -87.735841,-0.0149 -0.8255,-0.032 0,-1.04442 0,-1.04441 0.333516,0.009 c 0.240932,0.006 0.391813,-0.046 0.543525,-0.18855 0.284851,-0.2676 0.388507,-0.54658 0.596483,-1.60537 l 0.177476,-0.90353 1.375834,-0.0233 1.375833,-0.0233 0,0.29709 c 0,0.16339 -0.09525,0.74822 -0.211673,1.29962 -0.334805,1.58571 -0.740746,2.65209 -1.155921,3.0365 -0.229763,0.21274 -0.85185,0.27549 -2.209573,0.22286 z m 5.815388,-0.39889 c -0.37595,-0.39237 -0.61859,-0.93004 -0.882396,-1.95532 -0.174455,-0.67801 -0.379802,-2.44915 -0.299097,-2.57973 0.03296,-0.0533 0.525327,-0.0873 1.266312,-0.0873 l 1.21238,0 0.311669,0.90225 c 0.484373,1.40221 0.921765,1.89175 1.690207,1.89175 l 0.304705,0 0,1.10067 0,1.10067 -1.623181,0 -1.623179,0 -0.35742,-0.37302 z m 45.005783,-0.80326 c 0,-1.31326 0.0166,-1.27906 -0.62076,-1.27905 -0.19409,0 -1.07303,0.0952 -1.95318,0.21166 -0.88015,0.11642 -1.93743,0.21167 -2.3495,0.21167 l -0.74922,0 0,-1.22383 0,-1.22383 0.27516,-0.0401 c 0.15134,-0.022 0.84667,-0.0835 1.54517,-0.13659 1.30476,-0.0992 2.27932,-0.24276 3.28034,-0.4833 l 0.57101,-0.13721 0.0217,-6.90776 0.0217,-6.90776 1.3335,-0.0233 1.3335,-0.0233 -10e-6,6.83898 -2e-5,6.83899 0.72289,-0.03 c 0.39759,-0.0165 0.85833,-0.005 1.02386,0.0265 0.37049,0.0695 0.36909,0.0779 -0.24383,1.45389 -0.41988,0.94266 -0.46043,1.00131 -0.7305,1.05652 -0.76173,0.15571 -0.93861,0.58378 -0.79016,1.9122 0.0549,0.49116 0.0791,0.92652 0.0538,0.96746 -0.0253,0.0409 -0.65336,0.0744 -1.39568,0.0744 l -1.34967,0 0,-1.17628 z m -38.423258,0.96296 c -0.154507,-0.0671 -0.397278,-0.20487 -0.539491,-0.30613 -0.768287,-0.54707 -1.507921,-2.49536 -1.507921,-3.97205 l 0,-0.5885 1.2173,0 c 0.885212,0 1.241815,0.0295 1.307163,0.10828 0.04942,0.0596 0.20249,0.49686 0.340145,0.97179 0.412339,1.42264 0.710578,1.76806 1.502305,1.73998 l 0.459087,-0.0163 0,1.09579 0,1.09578 -1.248833,-0.003 c -0.89478,-0.002 -1.328477,-0.0379 -1.529755,-0.12533 z m -42.038303,-0.0125 c -0.03104,-0.031 -0.05645,-0.56394 -0.05645,-1.18421 l 0,-1.12776 2.8575,-0.0223 2.8575,-0.0223 0.02668,-0.80433 c 0.01467,-0.44238 0.0021,-1.04246 -0.02791,-1.3335 l -0.05459,-0.52917 -2.660261,0 -2.660262,0 0,-1.10066 0,-1.10067 2.709334,0 2.709334,0 0,-1.27 0,-1.27 -2.878667,0 -2.878667,0 0,-1.143 0,-1.143 2.878667,0 2.878667,0 0,-0.87718 c 0,-0.48245 -0.02423,-1.05395 -0.05384,-1.27 l -0.05384,-0.39282 -2.655491,0 -2.655493,0 0,-1.18533 0,-1.18534 2.791471,0 2.791471,0 0.0237,-1.0795 0.0237,-1.0795 0.508,-0.0281 c 0.2794,-0.0154 0.974725,-0.002 1.545167,0.0297 l 1.037167,0.0578 0,1.09214 0,1.09214 2.667,0 c 2.07791,0 2.666688,0.0234 2.665585,0.10583 -0.0016,0.11722 -0.602219,1.25837 -0.958142,1.82034 l -0.227901,0.35983 -1.941274,0 c -1.067701,0 -1.953818,0.0286 -1.969147,0.0635 -0.01533,0.0349 -0.0147,0.60643 0.0014,1.27 l 0.02928,1.2065 2.618267,0 2.618268,0 0,0.26341 c 0,0.17351 -0.180578,0.5614 -0.529167,1.13666 l -0.529167,0.87326 -1.947333,0.0275 c -1.528325,0.0216 -2.001987,0.0551 -2.201333,0.15565 l -0.254001,0.12814 0,1.09952 0,1.09953 2.688167,0.0224 2.688167,0.0224 0,0.23618 c 0,0.13687 -0.214615,0.59917 -0.510413,1.09947 l -0.510416,0.8633 -2.066924,0 c -1.136808,0 -2.079255,0.0286 -2.094326,0.0635 -0.01507,0.0349 -0.01457,0.64453 0.0011,1.35467 l 0.02851,1.29117 2.703234,0 c 1.79568,0 2.703236,0.0292 2.703236,0.0871 0,0.20709 -1.038016,2.09106 -1.222495,2.21879 -0.112082,0.0776 -13.375575,0.0858 -13.453061,0.008 z m 46.968987,-0.0245 c -0.6845,-0.28113 -1.50208,-2.34556 -1.619332,-4.08889 l -0.04983,-0.74083 1.371522,0 1.37152,0 0.12268,0.29361 c 0.0675,0.16149 0.12268,0.38317 0.12268,0.49263 0,0.40208 0.26052,1.06823 0.50982,1.30359 0.13894,0.13117 0.41445,0.31521 0.61223,0.40897 l 0.35961,0.17047 0,1.09953 0,1.09953 -1.31233,0.0169 c -0.72178,0.009 -1.39164,-0.0157 -1.48857,-0.0555 z m 16.89791,-1.35268 c 0,-1.11044 0.0101,-1.18283 0.17158,-1.23409 0.40783,-0.12944 0.41697,-0.20172 0.55765,-4.41122 0.073,-2.18354 0.14711,-4.01769 0.16474,-4.0759 0.0236,-0.0779 0.33471,-0.10583 1.1777,-0.10583 l 1.14566,0 -0.002,0.5715 c -0.001,0.31432 -0.0753,2.3241 -0.16425,4.46616 -0.17055,4.10527 -0.22889,4.58197 -0.64877,5.30089 -0.31292,0.5358 -0.62339,0.66811 -1.56771,0.66811 l -0.83414,0 0,-1.17962 z m 8.593664,1.06011 c -0.53337,-0.23706 -0.904704,-0.88595 -1.046784,-1.82922 -0.0761,-0.5052 -0.14445,-5.43635 -0.11059,-7.97843 l 0.0144,-1.0795 1.152884,0 1.15288,0 -0.0516,0.1905 c -0.24959,0.92219 -0.25754,1.16489 -0.10549,3.22006 0.19664,2.65782 0.25163,3.0501 0.65966,4.70587 0.3483,1.41331 0.36035,1.58525 0.18341,2.61507 l -0.0473,0.27516 -0.77374,-0.003 c -0.45413,-0.002 -0.87867,-0.0499 -1.02775,-0.1162 z m -43.645671,-6.27282 0,-1.22767 1.182387,0 1.182388,0 0.30234,-0.26545 c 0.563489,-0.49475 1.0906,-1.83315 1.862027,-4.72791 0.215904,-0.81017 0.429512,-1.5421 0.474684,-1.6265 0.07385,-0.138 0.213809,-0.15347 1.388508,-0.15347 1.634253,0 1.590155,-0.0431 1.268625,1.24099 -0.624041,2.49229 -1.719208,5.94451 -2.187924,6.89683 -0.282715,0.5744 -0.600979,0.85369 -1.145075,1.00482 -0.168461,0.0468 -1.211168,0.0853 -2.317126,0.0856 l -2.010834,4.7e-4 0,-1.22767 z m 8.466667,-3.89467 0,-5.12233 -4.233333,0 -4.233334,0 0,-1.31154 0,-1.31154 4.212167,-0.022 4.212167,-0.022 0.07976,-0.35983 0.07976,-0.35984 1.491478,0 1.491478,0 0.07976,0.35984 0.07976,0.35983 4.550834,0.0219 4.550833,0.0219 0,0.36281 c 0,0.29027 -0.10627,0.54829 -0.53151,1.29043 l -0.53152,0.92762 -3.928932,0.022 c -3.507725,0.0197 -3.945427,0.0369 -4.082817,0.16129 -0.145418,0.1316 -0.153888,0.41348 -0.153888,5.12148 l 0,4.98221 -1.566333,0 -1.566334,0 0,-5.12234 z m 7.408334,4.75017 c -1.088181,-0.41558 -0.992645,-0.2729 -1.763393,-2.6335 -0.997683,-3.05564 -1.536077,-5.1882 -1.480221,-5.86311 l 0.02628,-0.31756 1.224972,0 1.224974,0 0.191745,0.33867 c 0.223707,0.39512 0.635714,1.61464 1.129859,3.34433 0.43196,1.51202 0.69319,2.16664 0.98699,2.4733 l 0.22614,0.23604 1.59283,0 1.59282,0 0,0.29005 c 0,0.18554 -0.18438,0.65841 -0.51172,1.31233 l -0.51172,1.02228 -1.71078,-0.004 c -1.572998,-0.004 -1.751689,-0.02 -2.218777,-0.19842 z m 32.07801,-0.47325 c -0.84142,-0.33978 -1.89761,-2.71012 -1.9246,-4.31925 l -0.0121,-0.71967 1.28702,-0.0233 c 1.4771,-0.0268 1.40333,-0.0653 1.50285,0.78534 0.12898,1.10265 0.3849,1.77443 0.77281,2.0286 0.23032,0.15091 0.89008,0.15378 1.24215,0.005 0.13706,-0.0578 0.14817,0.0271 0.14817,1.13195 l 0,1.19439 -1.41817,-0.005 c -0.77999,-0.003 -1.49916,-0.0381 -1.59816,-0.078 z m 0.0847,-6.18067 c -0.86108,-0.34772 -2.02671,-2.95994 -2.12567,-4.76375 l -0.0453,-0.8255 1.22862,0 c 0.8902,0 1.25321,0.0296 1.3179,0.10758 0.10526,0.12683 0.30124,0.8607 0.4729,1.77077 0.23226,1.23137 0.58178,1.63289 1.36355,1.56642 0.23284,-0.0198 0.49001,-0.0641 0.5715,-0.0984 0.13706,-0.0578 0.14817,0.0271 0.14817,1.13195 l 0,1.19439 -1.37583,-0.005 c -0.75671,-0.003 -1.45684,-0.0381 -1.55584,-0.078 z M 24.962294,70.467945 c -1.043788,-0.43045 -2.061499,-1.4046 -2.594894,-2.48384 L 22.04334,67.328415 22.02167,46.600685 22,25.872955 l 0.176897,-0.528 c 0.408576,-1.21951 1.437384,-2.47024 2.43657,-2.96215 l 0.558949,-0.27518 16.634711,-0.0222 c 18.220842,-0.0243 17.068589,-0.054 17.901786,0.46037 0.874327,0.53971 1.96099,1.90169 2.215336,2.77661 0.110143,0.37888 0.124029,1.66964 0.104404,9.70427 l -0.02264,9.26727 -0.288806,0.59085 c -0.43352,0.8869 -1.427049,1.84776 -2.414099,2.33473 l -0.755573,0.37277 -11.267095,0.0423 -11.267095,0.0423 -0.351644,0.18804 c -0.193404,0.10343 -0.469106,0.33055 -0.612671,0.50472 -0.545144,0.66135 -0.517532,0.31682 -0.515492,6.43204 0.0021,6.35746 -0.03299,6.03581 0.716898,6.56832 0.841722,0.59773 0.348987,0.56578 8.787747,0.56969 7.464342,0.003 7.610878,3.4e-4 8.12098,-0.17147 0.285711,-0.0962 0.685144,-0.28899 0.887628,-0.4283 0.672294,-0.46255 0.65665,-0.3914 0.704222,-3.20267 l 0.04233,-2.5017 0.271784,-0.52005 c 0.694593,-1.32909 2.389759,-2.41552 3.769344,-2.41579 1.467465,-2.5e-4 3.232842,1.11686 3.90056,2.46828 l 0.270979,0.54845 0.02351,5.62367 c 0.02612,6.24847 0.03781,6.09565 -0.539,7.04846 -0.422831,0.69847 -1.335932,1.5204 -2.118969,1.90741 l -0.658726,0.32557 -16.641407,0.0196 -16.641407,0.0196 -0.467713,-0.19289 z m 27.79013,-30.4709 c 0.165295,-0.12608 0.419498,-0.40884 0.564894,-0.62835 l 0.264358,-0.3991 0,-4.24923 0,-4.24924 -0.341128,-0.38754 c -0.197296,-0.22414 -0.559985,-0.4969 -0.86019,-0.64692 l -0.519062,-0.25938 -9.955978,8.5e-4 -9.955977,8.5e-4 -0.429333,0.19991 c -0.236134,0.10996 -0.551553,0.34771 -0.700933,0.52834 -0.504395,0.60993 -0.52093,0.76725 -0.518875,4.93696 0.0017,3.54614 0.01171,3.79518 0.165434,4.13384 0.220662,0.48614 0.581489,0.9462 0.890386,1.13526 0.244194,0.14946 0.682661,0.15498 10.67526,0.13445 l 10.420607,-0.0215 0.300537,-0.22924 z m 17.466253,30.54845 c -0.686122,-0.21877 -1.284986,-0.59774 -1.872044,-1.18465 -0.655591,-0.65542 -1.05212,-1.33395 -1.207684,-2.06656 -0.06914,-0.32559 -0.09451,-6.09695 -0.09251,-21.03966 0.0026,-19.49138 0.01078,-20.61421 0.152937,-21.0255 0.387058,-1.11988 1.442307,-2.34691 2.441319,-2.83872 l 0.574419,-0.28278 17.106232,0 17.106234,0 0.56751,0.27938 c 1.06439,0.524 2.06149,1.67942 2.48518,2.87977 l 0.19984,0.56618 0.002,5.7208 c 0.002,4.98055 -0.0156,5.78031 -0.13269,6.18067 -0.32931,1.12618 -1.39837,2.18955 -2.65053,2.63643 -0.625,0.22305 -1.81409,0.24513 -2.46433,0.0458 -1.01816,-0.31218 -2.15792,-1.16686 -2.585514,-1.93883 l -0.25081,-0.45283 -0.0475,-3.47133 c -0.0525,-3.83899 -0.0747,-4.00982 -0.61088,-4.70863 -0.23073,-0.30069 -0.3582,-0.37946 -0.82333,-0.50877 -0.51675,-0.14365 -1.17806,-0.15306 -10.83733,-0.1541 -9.90704,-0.001 -10.30002,0.005 -10.63934,0.15886 -0.45124,0.20488 -1.01475,0.7684 -1.21963,1.21963 -0.14931,0.32883 -0.16011,0.61095 -0.16184,4.22856 -0.002,3.23573 0.0189,3.92583 0.12358,4.17646 0.29683,0.7104 1.56651,1.79102 4.82019,4.10243 0.88071,0.62565 1.89036,1.40928 2.24367,1.74139 l 0.64236,0.60384 0.0423,7.6578 0.0423,7.6578 0.23325,0.30577 c 0.14278,0.18716 0.45404,0.41447 0.80245,0.58603 l 0.5692,0.28026 6.2623,0.0238 c 4.26915,0.0162 6.40337,-0.005 6.70553,-0.0682 0.76713,-0.15926 1.36387,-0.72726 1.64337,-1.56425 0.079,-0.2367 0.11859,-0.93767 0.13133,-2.32833 0.0161,-1.7615 0.0381,-2.04548 0.19164,-2.47639 0.388784,-1.09127 1.215494,-1.95736 2.298254,-2.40774 0.47772,-0.19871 0.67006,-0.22974 1.44035,-0.23233 1.05977,-0.004 1.58845,0.16006 2.47918,0.76734 0.71415,0.48689 1.10661,0.93159 1.44718,1.63979 l 0.26464,0.55033 0,5.84378 0,5.84378 -0.28904,0.59089 c -0.41307,0.84441 -1.35268,1.76758 -2.24656,2.20724 l -0.67292,0.33098 -16.937744,0.0159 c -13.53168,0.0127 -17.005848,-0.006 -17.276411,-0.0921 z m 46.290893,-0.0473 c -1.04927,-0.37882 -2.20722,-1.39066 -2.69648,-2.35622 l -0.24507,-0.48367 0,-6.05366 0,-6.05367 0.20681,-0.42333 c 0.44046,-0.9016 1.69851,-1.85135 2.9195,-2.20406 1.63253,-0.47158 3.95217,0.6665 4.7378,2.32449 l 0.26389,0.5569 0.0262,2.36615 0.0262,2.36616 0.28879,0.39341 c 0.15884,0.21638 0.43485,0.49463 0.61337,0.61835 l 0.32458,0.22493 5.67405,0 5.67404,0 0.34498,-0.29529 c 0.18974,-0.16241 0.48234,-0.50224 0.65024,-0.75518 l 0.30526,-0.45989 0,-5.63905 0,-5.63904 -0.34515,-0.37444 c -0.18983,-0.20594 -0.54137,-0.50037 -0.78119,-0.65428 l -0.43604,-0.27983 -8.76943,-0.0423 -8.76944,-0.0423 -0.6623,-0.32736 c -0.87636,-0.43315 -1.72374,-1.25445 -2.08018,-2.01615 l -0.25636,-0.54783 0.0222,-9.89966 0.0222,-9.89966 0.22892,-0.48852 c 0.45572,-0.97251 1.57017,-1.74486 3.15774,-2.18843 0.62821,-0.17552 0.88613,-0.19137 3.556,-0.21854 1.58327,-0.0161 7.75547,1.2e-4 13.71601,0.0361 l 10.83733,0.0654 0.55033,0.29589 c 1.04238,0.56045 2.15039,1.87368 2.54251,3.0134 0.15631,0.45433 0.16677,0.72282 0.16582,4.26046 -0.001,4.01101 -0.0181,4.21326 -0.42109,5.0016 -0.44731,0.87501 -1.69764,1.81127 -2.718,2.03526 -0.7287,0.15996 -2.06215,0.0795 -2.53257,-0.15282 -0.69947,-0.34543 -1.72514,-1.14736 -2.00856,-1.57042 -0.3927,-0.58621 -0.44578,-0.87073 -0.4463,-2.39262 0,-1.13106 -0.0286,-1.44437 -0.1661,-1.84398 -0.20108,-0.58445 -0.53619,-1.06692 -0.92712,-1.33482 l -0.29179,-0.19995 -7.69053,-0.0225 c -7.533,-0.022 -7.69728,-0.019 -8.02069,0.14596 -0.39379,0.2009 -1.10852,0.80123 -1.25275,1.05223 -0.0769,0.13386 -0.10359,1.28012 -0.10583,4.54794 l -0.003,4.36898 0.19062,0.28769 c 0.10704,0.16153 0.37622,0.38051 0.61384,0.49935 l 0.42321,0.21167 10.87967,0.0423 10.87967,0.0423 0.4567,0.19407 c 1.45463,0.61814 2.64337,1.9502 3.01555,3.37913 0.19269,0.73978 0.18935,22.52197 -0.004,23.26261 -0.32898,1.26306 -1.35816,2.50375 -2.54828,3.07199 l -0.66646,0.3182 -14.01233,0.0186 c -13.5741,0.018 -14.02626,0.0136 -14.45745,-0.14208 z"></path>
  <metadata id="metadata4209">
    <rdf:rdf>
      <cc:work rdf:about="">
        <dc:title></dc:title>
      </cc:work>
    </rdf:rdf>
  </metadata>
</svg>
