<?xml version="1.0"?>
<!--?xml version="1.0" encoding="UTF-8" standalone="no"?-->
<svg xmlns="http://www.w3.org/2000/svg" viewBox="0 0 200 118" height="118px" width="200px"><path d="m 193.52,6.4902 c -2.03,0 -3.66,1.5806 -3.66,3.5608 0,2.02 1.62,3.599 3.66,3.599 2.07,0 3.65,-1.579 3.65,-3.599 0,-1.9802 -1.58,-3.5608 -3.65,-3.5608 z m 0,0.7207 c 1.58,0 2.73,1.2794 2.73,2.8591 0,1.56 -1.15,2.821 -2.71,2.821 -1.61,0 -2.78,-1.26 -2.78,-2.84 0,-1.5602 1.17,-2.8501 2.76,-2.8401 z M 6.1191,8.2305 V 89.439 H 53.131 V 74.6 H 24.41 V 56.02 H 50.971 V 41.18 H 24.41 V 23.119 H 52.949 V 8.2305 Z m 49.5409,0 V 89.439 h 28.77 c 13.1,0 23.59,-3.77 31.46,-11.32 7.88,-7.56 11.81,-17.649 11.81,-30.299 0,-26.4 -14.43,-39.5895 -43.27,-39.5895 z m 74.74,0 V 89.439 h 31.2 c 9.21,0 16.48,-2.179 21.8,-6.539 5.33,-4.36 7.99,-10.261 7.99,-17.701 0,-5.1 -1.72,-9.419 -5.18,-12.969 -3.45,-3.55 -8.06,-5.68 -13.84,-6.4 V 45.6 c 4.6,-1.29 8.39,-3.57 11.35,-6.86 2.96,-3.28 4.45,-7.11 4.45,-11.49 0,-6.04 -2.44,-10.719 -7.31,-14.039 -4.87,-3.3201 -11.84,-4.9805 -20.9,-4.9805 z m 63.1,0.02 c -0.59,0 -1.04,0.039 -1.37,0.1094 V 11.91 h 0.83 0 v -1.439 h 0.39 c 0.45,0 0.63,0.178 0.73,0.568 0.11,0.41 0.17,0.741 0.28,0.871 h 0.89 c -0.1,-0.13 -0.15,-0.35 -0.26,-0.89 -0.11,-0.48 -0.3,-0.74 -0.65,-0.87 v -0.04 c 0.43,-0.1296 0.74,-0.4299 0.74,-0.8199 0,-0.35 -0.16,-0.6293 -0.35,-0.7793 C 194.48,8.3598 194.17,8.25 193.5,8.25 Z m -0.1,0.5898 c 0.52,0 0.76,0.2211 0.76,0.5411 0,0.37 -0.37,0.5195 -0.83,0.5195 h -0.39 V 8.8809 c 0.1,-0.02 0.24,-0.041 0.46,-0.041 z M 148.69,21.699 h 6.85 c 8.91,0 13.37,2.981 13.37,8.951 0,3.21 -1.09,5.731 -3.26,7.561 -2.17,1.84 -5.14,2.75 -8.92,2.75 h -8.04 V 21.711 Z M 73.949,23.131 H 82.9 c 8.08,0 14.36,2.208 18.83,6.648 4.47,4.43 6.71,10.52 6.71,18.26 0,8.19 -2.26,14.662 -6.77,19.422 -4.51,4.76 -10.73,7.139 -18.66,7.139 h -9.061 z m 74.741,31.42 h 10.03 c 4.22,0 7.52,0.929 9.88,2.779 2.36,1.85 3.54,4.391 3.54,7.641 0,3.4 -1.2,6.079 -3.6,8.039 -2.4,1.97 -5.71,2.951 -9.94,2.951 h -9.91 z m -12.35,43.068 c -0.87,0 -1.68,0.09 -2.46,0.281 -0.77,0.18 -1.45,0.47 -2.04,0.87 -0.59,0.4 -1.05,0.899 -1.39,1.51 -0.34,0.61 -0.52,1.34 -0.52,2.19 0,1.09 0.31,2.01 0.94,2.78 0.62,0.77 1.57,1.42 2.85,1.95 0.5,0.2 0.97,0.41 1.4,0.6 0.43,0.2 0.81,0.41 1.12,0.62 0.32,0.21 0.57,0.44 0.75,0.69 0.18,0.25 0.28,0.53 0.28,0.85 0,0.24 -0.1,0.46 -0.17,0.66 -0.12,0.21 -0.29,0.38 -0.52,0.53 -0.23,0.15 -0.52,0.25 -0.86,0.35 -0.35,0.12 -0.75,0.12 -1.22,0.12 -0.79,0 -1.57,-0.14 -2.34,-0.42 -0.77,-0.28 -1.49,-0.7 -2.15,-1.25 v 3.61 c 0.6,0.3 1.3,0.53 2.08,0.68 0.81,0.13 1.66,0.23 2.56,0.23 0.87,0 1.7,-0.1 2.49,-0.25 0.79,-0.17 1.48,-0.45 2.07,-0.83 0.58,-0.38 1.05,-0.88 1.4,-1.5 0.35,-0.61 0.52,-1.38 0.52,-2.29 0,-0.66 -0.1,-1.24 -0.29,-1.74 -0.19,-0.5 -0.48,-0.94 -0.85,-1.33 -0.38,-0.39 -0.82,-0.73 -1.34,-1.04 -0.52,-0.31 -1.11,-0.6 -1.76,-0.87 -0.48,-0.19 -0.91,-0.39 -1.29,-0.57 -0.38,-0.19 -0.7,-0.38 -0.97,-0.57 -0.27,-0.2 -0.47,-0.4 -0.62,-0.62 -0.12,-0.21 -0.22,-0.46 -0.22,-0.73 0,-0.25 0.1,-0.48 0.2,-0.68 0.13,-0.2 0.31,-0.38 0.55,-0.52 0.23,-0.14 0.52,-0.23 0.86,-0.33 0.35,-0.12 0.73,-0.12 1.14,-0.12 0.3,0 0.62,0.1 0.96,0.1 0.34,0 0.68,0.11 1.02,0.21 0.35,0.1 0.68,0.22 1,0.36 0.32,0.14 0.62,0.31 0.89,0.5 v -3.41 c -0.55,-0.21 -1.15,-0.37 -1.81,-0.47 -0.66,-0.1 -1.41,-0.151 -2.26,-0.151 z M 6.1895,97.881 V 114.22 H 15.99 v -3 H 9.8691 v -3.74 H 15.211 V 104.5 H 9.8691 v -3.63 h 5.7399 v -2.989 z m 14.4005,0 v 16.339 h 3.471 v -8.97 c 0,-1.18 -0.03,-2.07 -0.09,-2.64 h 0.05 c 0.15,0.3 0.42,0.75 0.82,1.35 l 6.73,10.26 h 3.709 V 97.881 h -3.468 v 9.029 c 0,1.11 0.03,1.86 0.09,2.24 h -0.05 c -0.25,-0.44 -0.531,-0.89 -0.821,-1.33 l -6.478,-9.939 z m 35.279,0 v 16.339 h 9.801 v -3 h -6.119 v -3.74 h 5.34 v -2.98 h -5.34 v -3.63 h 5.738 v -2.989 z m 14.391,0 v 16.339 h 3.679 v -6.25 h 0.991 c 0.23,0 0.441,0 0.631,0.14 0.2,0.1 0.378,0.23 0.558,0.41 0.18,0.18 0.351,0.39 0.531,0.64 0.18,0.26 0.359,0.54 0.549,0.86 l 2.541,4.2 h 4.231 l -3.112,-4.89 c -0.16,-0.25 -0.329,-0.5 -0.529,-0.77 -0.2,-0.26 -0.399,-0.5 -0.609,-0.73 -0.21,-0.23 -0.43,-0.43 -0.66,-0.6 -0.22,-0.17 -0.462,-0.27 -0.702,-0.37 0.55,-0.16 1.06,-0.38 1.51,-0.66 0.45,-0.28 0.84,-0.61 1.16,-1 0.32,-0.38 0.571,-0.82 0.741,-1.3 0.17,-0.48 0.259,-1.01 0.259,-1.58 0,-2.96 -1.979,-4.439 -5.939,-4.439 z m 17.179,0 v 16.339 h 3.68 v -5.63 h 1.75 c 1.97,0 3.551,-0.5 4.731,-1.52 1.18,-1.01 1.769,-2.34 1.769,-3.98 0,-3.47 -2.06,-5.209 -6.17,-5.209 z m 15.841,0 v 16.339 h 3.67 v -6.25 h 0.99 c 0.23,0 0.43,0 0.63,0.14 0.2,0.1 0.38,0.23 0.56,0.41 0.18,0.18 0.36,0.39 0.53,0.64 0.18,0.26 0.36,0.54 0.55,0.86 l 2.54,4.2 h 4.23 l -3.08,-4.89 c -0.16,-0.25 -0.34,-0.5 -0.53,-0.77 -0.19,-0.26 -0.39,-0.5 -0.61,-0.73 -0.21,-0.23 -0.43,-0.43 -0.66,-0.6 -0.23,-0.17 -0.46,-0.27 -0.71,-0.37 0.55,-0.16 1.06,-0.38 1.51,-0.66 0.45,-0.28 0.84,-0.61 1.16,-1 0.32,-0.38 0.57,-0.82 0.74,-1.3 0.16,-0.48 0.26,-1.01 0.26,-1.58 0,-2.96 -1.98,-4.439 -5.95,-4.439 z m 16.49,0 v 2.849 h 1.37 v 10.64 h -1.37 v 2.85 h 6.41 v -2.85 h -1.37 v -10.64 h 1.37 v -2.849 z m 25.9,0 v 16.339 h 9.8 v -3 h -6.12 v -3.74 h 5.34 v -2.98 h -5.34 v -3.63 h 5.74 v -2.989 z m 14.4,0 v 16.329 h 5.79 c 2.64,0 4.74,-0.76 6.33,-2.28 1.58,-1.51 2.37,-3.55 2.37,-6.09 0,-5.31 -2.9,-7.959 -8.7,-7.959 z m 18.99,0 v 16.279 h 6.26 c 1.85,0 3.31,-0.44 4.38,-1.32 1.07,-0.88 1.61,-2.06 1.61,-3.56 0,-1.02 -0.34,-1.89 -1.04,-2.6 -0.69,-0.72 -1.62,-1.14 -2.78,-1.29 0.93,-0.26 1.7,-0.72 2.29,-1.38 0.59,-0.66 0.89,-1.43 0.89,-2.31 0,-1.21 -0.49,-2.149 -1.47,-2.819 -0.98,-0.67 -2.38,-1 -4.2,-1 z m -139.97,0.01 v 2.989 h 4.631 v 13.34 h 3.689 v -13.34 h 4.66 v -2.989 z m 143.64,2.699 h 1.38 c 1.79,0 2.69,0.6 2.69,1.8 0,0.64 -0.21,1.15 -0.65,1.52 -0.44,0.37 -1.04,0.55 -1.8,0.55 h -1.62 z m -108.781,0 h 1.66 c 1.71,0 2.561,0.71 2.561,2.14 0,0.68 -0.251,1.26 -0.731,1.72 -0.48,0.45 -1.11,0.68 -1.9,0.68 h -1.59 z m 33.001,0 h 1.67 c 1.71,0 2.56,0.71 2.56,2.14 0,0.68 -0.24,1.26 -0.73,1.72 -0.48,0.45 -1.11,0.68 -1.9,0.68 h -1.6 z m -15.831,0.1 h 1.451 c 1.95,0 2.93,0.84 2.93,2.52 0,1.71 -0.97,2.57 -2.93,2.57 h -1.451 z m 72.631,0.17 h 1.81 c 1.62,0 2.88,0.45 3.78,1.34 0.9,0.89 1.35,2.11 1.35,3.67 0,1.65 -0.46,2.95 -1.37,3.91 -0.9,0.95 -2.16,1.43 -3.75,1.43 h -1.82 z m 18.98,6.33 h 2.01 c 0.86,0 1.52,0.19 1.99,0.56 0.48,0.37 0.71,0.88 0.71,1.54 0,0.68 -0.24,1.22 -0.72,1.61 -0.48,0.39 -1.15,0.59 -2,0.59 h -1.99 z"></path><metadata></metadata></svg>