<?xml version="1.0"?>
<svg xmlns="http://www.w3.org/2000/svg" viewBox="0 0 563.2 224.2" height="224.2" width="563.2"><path id="path7189" d="m 114.5,12 0,142.2 20.2,0 0,-142.2 -20.2,0 z m 207,46.2 0,48.7 c 0.7,26.4 22.3,47.5 48.8,47.5 26.5,0 48.1,-21.1 48.9,-47.4 l 0,-0.6 0,-48.1 -20.1,0 0,48.1 c 0,0.2 0,0.3 -0.1,0.5 -0.7,15.2 -13.3,27.4 -28.7,27.4 -15.4,0 -27.9,-12.1 -28.7,-27.3 l 0,-48.8 -20.1,0 z m -131,0.2 c -26.7,0 -48.4,21.39 -48.9,48 0.5,26.6 22.2,48 48.9,48 15.8,0 29.8,-7.5 38.8,-19.1 8.9,11.6 23,19.1 38.8,19.1 10.7,0 20.6,-3.5 28.8,-9.3 0,31.1 0,67.1 0,67.1 l 20,0 0,-106 c -0.5,-26.5 -22.2,-47.8 -48.8,-47.8 -15.8,0 -29.9,7.52 -38.8,19.18 -9,-11.66 -23,-19.18 -38.8,-19.18 z m 281.2,0 c -4.9,0 -9.5,0.7 -14,1.99 C 438,65.9 423.5,83.7 422.9,105 c 0,0.5 0,0.9 -0.1,1.4 l 0.1,0 c 0,26.3 21.3,47.7 47.6,47.7 11.3,0 21.8,-4.1 30,-10.7 l 0,11 20.1,0 0,-17.7 0,-0.4 0,-30.1 C 519.9,79.7 498.3,58.4 471.7,58.4 Z M 58.42,59.19 C 45.13,59.19 34.06,63.7 25.23,72.8 16.41,81.8 12,93.19 12,106.9 c 0,13.4 4.41,24.5 13.28,33.4 8.84,8.9 20.31,13.3 34.39,13.3 9.08,0 16.9,-1.6 23.5,-4.8 6.63,-3.2 12.25,-8.2 17.03,-14.9 l -19,-8.9 c -6.07,5.9 -13.28,8.8 -21.7,8.8 -7.02,0 -12.83,-1.8 -17.36,-5.6 -4.54,-3.8 -7.32,-8.8 -8.37,-15.2 l 72.33,0 0.1,-4.4 C 106.2,93.79 101.7,81.8 92.87,72.8 84.04,63.7 72.55,59.19 58.42,59.19 Z m 1.13,19.11 c 5.78,0 10.85,1.49 15.23,4.7 4.39,3.1 7.32,7.19 8.8,12.22 l -48.81,0 C 37.29,89.59 40.06,85.7 43.02,83.5 47.77,80 53.26,78.3 59.55,78.3 Z m 130.95,0.2 c 15.5,0 28.3,12.37 28.7,27.9 -0.4,15.5 -13.2,27.9 -28.7,27.9 -15.6,0 -28.3,-12.4 -28.8,-27.9 0.5,-15.53 13.2,-27.9 28.8,-27.9 z m 77.6,0 c 15.5,0 28.1,12.29 28.7,27.6 0,0 0,1.8 0,1.9 -1.3,14.8 -13.6,26.3 -28.7,26.3 -15.6,0 -28.3,-12.4 -28.8,-27.9 0.5,-15.53 13.2,-27.9 28.8,-27.9 z m 203.6,0 c 11,0 20.6,6.2 25.4,15.37 1.9,3.75 2.9,8.03 2.9,12.53 0,16 -12.9,28.8 -28.8,28.8 -15.9,0 -28.8,-12.8 -28.8,-28.8 0.4,-15.53 13.7,-27.9 29.3,-27.9 z m 60.1,64.1 0,1.5 3.1,0 0,9.5 1.7,0 0,-9.5 3,0 0,-1.5 -7.8,0 z m 9.7,0 0,11 1.7,0 0,-7.4 2.6,5.4 1.2,0 2.5,-5.4 0,7.4 1.7,0 0,-11 -1.7,0 -3.1,6.8 -3.2,-6.8 -1.7,0 z"></path>
   </svg>