 <svg 
   xmlns="http://www.w3.org/2000/svg"
   viewBox="0 0 218 77"
  
   height="132"
   width="132" >
  
  <path
     d="m 197.54,8.91 c 6.43,-5.98 12.1,-3.83 14.09,-1.84 1.99,1.99 3.3,6.35 -1.37,11.03 -2.31,2.3 -7.06,5.97 -7.06,5.97 0,0 7.51,0 7.36,0 0.76,-0.15 2.11,-2.78 2.6,-3.52 0.31,-0.46 0.61,-0.31 0.61,0.31 0,0.61 0,7.81 0,7.81 -2.14,-0.16 -14.85,-0.16 -16.84,-0.16 l 0,-2.6 c 3.36,-2.6 6.58,-6.28 9.03,-9.34 2.45,-3.07 2.05,-11.24 -6.58,-6.44 -1.38,0.77 -2.3,0 -1.84,-1.22 m -4.29,21.29 0.46,-14.1 c -6.29,-0.76 -21.79,-3.31 -34.63,6.13 -13.31,9.8 -16.94,34.84 0.31,46.12 11.49,7.5 32.48,2.29 34.01,1.53 0.61,-0.31 1.38,-0.77 1.38,-1.38 0,-0.62 0.15,-13.18 0.15,-13.79 0,-0.61 -0.92,-0.46 -1.38,0.15 -0.45,0.62 -2.81,9.6 -5.05,10.73 -4.94,2.49 -16.69,4.07 -22.83,-8.43 -4.04,-8.23 -4.16,-19.38 1.68,-29.56 6.08,-10.59 17.47,-7.55 18.85,-6.74 2.6,1.53 4.2,4.92 5.36,9.19 0.46,1.68 1.54,1.38 1.69,0.15 M 65.13,16.1 l 22.21,0.47 17.01,34.92 17.62,-34.46 c 0,0 13.78,0 15.01,0 1.23,0 5.98,-0.46 6.74,-0.62 0.77,-0.15 0.92,1.38 0.31,1.69 -0.62,0.3 -7.97,3.37 -8.73,4.44 l 4.44,42.59 c 0.61,1.38 8.1,4.54 9.34,4.75 0.92,0.15 0.64,1.25 0.15,1.22 -4.74,-0.3 -26.17,-0.3 -30.79,0 -0.46,0 -2.39,-0.72 -0.3,-1.38 2.45,-0.76 7.35,-2.45 8.42,-4.29 L 123.5,28.36 102.36,71.1 98.84,71.1 79.53,29.28 76.16,65.13 c 1.38,2.75 7.82,3.98 8.58,4.29 0.76,0.3 0.76,1.44 0.15,1.38 -4.59,-0.46 -21.76,-0.16 -23.58,0.15 -0.93,0.15 -2.59,-1.01 -0.47,-1.69 6,-1.89 7.97,-0.15 9.35,-14.09 L 73.87,24.53 C 74.32,19.48 67.9,18.86 64.98,17.79 64.55,17.63 64.06,16.1 65.13,16.1 m -59.28,0.31 47.64,0.16 0,14.09 c 0.15,0.92 -1.05,0.76 -1.23,-0.15 -0.46,-2.3 -4.43,-7.82 -5.2,-8.28 l -19.92,0 0,17.16 16.69,0 c 1.23,-0.46 3.19,-3.82 4.45,-7.2 0.46,-1.22 1.39,-0.46 1.38,-0.15 -0.31,5.51 -0.23,15.61 -0.15,19.76 0,1.54 -0.77,1.99 -1.23,0.61 -0.45,-1.37 -2.76,-6.12 -4.29,-7.35 l -16.85,0 0,19.61 21.6,0 c 1.22,-0.92 4.39,-7.84 4.75,-9.65 0.15,-0.77 1.38,-0.77 1.38,-0.16 l 0,16.24 -33.86,-0.46 c -6.89,0 -8.58,0 -15.16,0.62 -1.08,0.1 -1.06,-1.49 -0.31,-1.84 7.5,-3.52 8.43,-1.54 8.43,-12.26 l 0,-29.26 c 0,-7.96 -2.29,-7.65 -8.43,-9.96 C 4.9,17.7 5.24,16.57 5.85,16.41"
     />
</svg>
