<?xml version="1.0"?>

<svg xmlns="http://www.w3.org/2000/svg" viewBox="0 0 386.5 337.2" width="386.5" height="337.2"><path d="m 204.1,22 8.8,24.5 35.4,0 -60,144.1 96.6,0 -8.9,-24.6 -52.9,0 60,-144 m 0,0 -115.8,0 c -3.9,0 -8.4,3 -9.9,6.5 L 92.67,184 c -1.51,3.6 0.46,6.6 4.41,6.6 l 59.42,0 c 4,0 8.4,-3 10,-6.6 l 4.8,-11.4 c 1.5,-3.6 -0.5,-6.6 -4.4,-6.6 l -35,0 c -3.9,0 -5.9,-3 -4.4,-6.6 l 14.3,-34.2 c 1.5,-3.6 6,-6.6 9.9,-6.6 l 34.7,0 c 3.9,0 8.4,-3 9.9,-6.6 l 4.8,-11.4 C 202.7,97 200.7,94 196.7,94 l -34.8,0 c -3.9,0 -5.9,-3 -4.4,-6.6 l 14,-34.1 c 1.5,-3.8 6,-6.8 9.9,-6.8 l 66.9,0 M 58.49,266.3 c 0,-0.5 -0.1,-0.5 0.21,-0.5 5.49,-0.8 10.87,-2.4 15.35,-5.4 2.23,-1.5 4.2,-3.3 5.75,-5.5 1.56,-2.1 2.73,-4.6 3.46,-7.1 0.1,-0.3 0.1,-0.3 0.51,-0.2 l 0.83,0.3 c 0.43,0.1 0.43,0.1 0.36,0.4 -0.66,2.7 -1.77,5.5 -3.39,7.9 -1.6,2.5 -3.67,4.6 -6.05,6.4 -4.78,3.6 -10.53,5.6 -16.34,6.7 -0.28,0 -0.28,0 -0.33,-0.4 m 7.03,-20.6 c -0.25,0.3 -0.25,0.3 -0.3,0.3 -1.09,-0.8 -2.48,-1.5 -3.82,-2.1 -1.37,-0.6 -2.81,-1.1 -4.15,-1.4 -0.1,0 -0.1,0 0,-0.5 l 0.18,-0.8 c 0.1,-0.4 0.1,-0.4 0.15,-0.4 1.62,0 3.24,0.3 4.86,0.7 1.62,0.4 3.19,0.8 4.83,1.7 0.1,0.1 0.1,0 -0.18,0.4 m 193.35,0.2 c 0,0.2 -0.2,0.3 -0.2,0.3 l -21.5,0 c -0.2,0 -0.3,-0.1 -0.3,-0.3 l -0.2,-1.8 c 0,-0.1 0.1,-0.2 0.2,-0.2 l 21.8,0 c 0,0 0.2,0.1 0.2,0.2 m -118.1,12.7 c 0,0.1 -0.2,0.3 -0.3,0.3 l -21.7,0 c -0.1,0 -0.3,-0.2 -0.3,-0.3 l -0.4,-1.8 c 0,-0.2 0,-0.3 0.2,-0.3 l 22.2,0 c 0.1,0 0.3,0.1 0.3,0.3 m 58.4,-9.6 c 0,0.2 -0.2,0.3 -0.3,0.3 l -21.9,0 c -0.2,0 -0.3,-0.1 -0.4,-0.3 l -0.2,-1.8 c 0,-0.1 0.1,-0.2 0.3,-0.2 l 22.2,0 c 0.1,0 0.3,0.1 0.3,0.2 m 129.6,-2 c 0,0.1 -0.3,0.2 -0.3,0.2 l -1,0 c -0.3,0 -0.3,-0.1 -0.3,-0.2 l 0,-3.1 c 0,-0.2 0,-0.3 0.3,-0.3 l 1,0 c 0,0 0.3,0.1 0.3,0.3 m -3.6,3.1 c 0,0.1 0,0.2 -0.2,0.2 l -1,0 c -0.3,0 -0.3,-0.1 -0.3,-0.2 l 0,-3.1 c 0,-0.2 0,-0.3 0.3,-0.3 l 1,0 c 0.2,0 0.2,0.1 0.2,0.3 m -63.7,3.1 c 0,0.1 0,0.2 -0.3,0.2 l -1,0 c -0.3,0 -0.3,-0.1 -0.3,-0.2 l 0,-3.1 c 0,-0.2 0,-0.3 0.3,-0.3 l 1,0 c 0.3,0 0.3,0.1 0.3,0.3 m -3.6,3.1 c 0,0.1 0,0.2 -0.2,0.2 l -1,0 c 0,0 -0.3,-0.1 -0.3,-0.2 l 0,-3.1 c 0,-0.2 0.3,-0.3 0.3,-0.3 l 1,0 c 0.2,0 0.2,0.1 0.2,0.3 m 51.9,16.5 c -0.3,0.4 -0.3,0.4 -0.3,0.3 -1,-0.8 -2.5,-1.6 -3.8,-2.2 -1.5,-0.7 -2.7,-1.3 -4,-1.5 -0.3,0 -0.3,0 0,-0.5 l 0,-0.9 c 0.2,-0.4 0.2,-0.4 0.2,-0.4 1.6,0 3.3,0.5 4.9,0.9 1.7,0.5 3.2,1 4.8,1.8 0.2,0.1 0.2,0.1 0,0.4 m -1.8,-5.1 c -0.3,0.3 -0.3,0.3 -0.3,0.3 -1,-0.8 -2.5,-1.6 -3.8,-2.3 -1.5,-0.6 -2.7,-1.2 -4,-1.5 -0.3,0 -0.3,0 0,-0.4 l 0,-0.9 c 0.2,-0.4 0.2,-0.4 0.2,-0.4 1.6,0.1 3.3,0.4 4.9,0.9 1.7,0.4 3.2,0.9 4.8,1.8 0.2,0.1 0.2,0 0,0.4 m 24.5,20.1 c 0,-0.5 0,-0.5 0.3,-0.5 5.3,-0.8 10.8,-2.4 15.1,-5.4 2.3,-1.5 4.3,-3.3 5.9,-5.5 1.5,-2.1 2.7,-4.6 3.5,-7.1 0,-0.3 0,-0.3 0.5,-0.2 l 0.8,0.3 c 0.5,0.1 0.5,0.1 0.2,0.4 -0.5,2.7 -1.8,5.5 -3.3,7.9 -1.5,2.5 -3.5,4.6 -6,6.4 -4.9,3.6 -10.4,5.6 -16.2,6.7 -0.5,0 -0.5,0 -0.5,-0.4 m -34.2,-2.6 c 0,-0.5 0,-0.5 0.3,-0.5 5.3,-0.8 10.8,-2.4 15.4,-5.4 2,-1.5 4,-3.3 5.6,-5.5 1.5,-2.1 2.7,-4.6 3.5,-7.1 0,-0.3 0,-0.3 0.5,-0.2 l 0.8,0.3 c 0.5,0.1 0.5,0.1 0.5,0.4 -0.8,2.7 -1.8,5.5 -3.6,7.9 -1.5,2.5 -3.5,4.6 -6,6.4 -4.9,3.6 -10.4,5.6 -16.2,6.7 -0.3,0 -0.3,0 -0.5,-0.4 M 169.8,240.3 c -0.7,0 -1.3,0.6 -1.3,1.3 0,0.7 0.6,1.2 1.3,1.2 0.7,0 1.3,-0.5 1.3,-1.2 0,-0.7 -0.6,-1.3 -1.3,-1.3 m 0,4.1 c -1.6,0 -2.8,-1.3 -2.8,-2.8 0,-1.6 1.2,-2.9 2.8,-2.9 1.6,0 2.8,1.3 2.8,2.9 0,1.5 -1.2,2.8 -2.8,2.8 m -0.5,0.1 c 0.4,0 0.4,0 0.4,0.3 -0.2,2.7 -0.6,5.4 -1.3,8.1 -0.8,2.8 -2.1,5.5 -4.1,7.7 -1.9,2.2 -4.3,3.9 -6.8,5.2 -2.5,1.3 -5,2.3 -7.6,3.1 -0.2,0.1 -0.2,0.1 -0.4,-0.3 l -0.3,-0.9 c -0.1,-0.4 -0.1,-0.4 0.2,-0.4 2.4,-1 4.9,-2.1 7.1,-3.4 2.3,-1.4 4.3,-3 5.9,-5 1.5,-2 2.4,-4.3 3,-6.8 0.5,-2.5 0.7,-5 0.8,-7.6 0,-0.3 0,-0.3 0.5,-0.2 m 0.3,2.7 c 0,0.1 -0.2,0.2 -0.3,0.2 l -22,0 c -0.1,0 -0.2,-0.1 -0.3,-0.2 l -0.2,-1.8 c 0,-0.2 0.1,-0.3 0.3,-0.3 l 22.2,0 c 0.1,0 0.3,0.1 0.3,0.3 M 51.94,268.1 c 0,0.2 -0.1,0.3 -0.25,0.3 l -29.2,0 c -0.15,0 -0.27,-0.1 -0.29,-0.3 L 22,266.3 c 0,-0.1 0.1,-0.2 0.23,-0.2 l 29.46,0 c 0.15,0 0.25,0.1 0.25,0.2 M 49.36,247 c 0,0.1 -0.1,0.2 -0.25,0.2 l -23.52,0 c -0.15,0 -0.28,-0.1 -0.29,-0.2 l -0.2,-1.8 c 0,-0.2 0.1,-0.3 0.23,-0.3 l 23.78,0 c 0.15,0 0.25,0.1 0.25,0.3 m 182.24,-1.9 c 0.4,0.2 0.4,0.2 0.3,0.4 -2.6,3.9 -6.2,7 -10.1,9.3 -4,2.3 -8.2,3.9 -12.6,4.9 -0.3,0.1 -0.2,0.1 -0.3,-0.4 l -0.2,-0.8 c -0.1,-0.4 -0.1,-0.4 0.1,-0.5 4.1,-1.3 8.1,-3.1 11.7,-5.5 3.5,-2.4 6.5,-5.4 8.5,-8.9 0.1,-0.2 0.1,-0.2 0.4,0.1 m -6.1,8.9 c 0.1,0 0.2,0.1 0.2,0.3 l 0,17.8 c 0,0.1 -0.1,0.2 -0.2,0.2 l -2.3,0 c -0.1,0 -0.3,-0.1 -0.3,-0.2 l 0,-17.8 c 0,-0.2 0.2,-0.3 0.3,-0.3 m -18.1,-1 c 0.4,0.1 0.4,0.1 0.4,0.3 -0.5,2.3 -1.1,4.7 -2.1,7 -0.9,2.2 -2.3,4.4 -4.3,6.2 -1.8,1.8 -4.1,3 -6.4,3.9 -2.3,0.9 -4.7,1.4 -7,1.8 -0.2,0 -0.2,0 -0.3,-0.4 l -0.2,-0.8 c -0.1,-0.5 -0.1,-0.5 0.2,-0.5 2.2,-0.5 4.4,-1.2 6.5,-2.2 2.1,-0.9 4,-2.1 5.4,-3.7 3.1,-3.2 4.2,-7.6 4.7,-12 0,-0.2 0,-0.2 0.5,-0.1 m 0.3,2.8 c 0,0.2 -0.2,0.3 -0.3,0.3 l -23,0 c -0.1,0 -0.3,-0.1 -0.3,-0.3 l -0.2,-1.8 c 0,-0.1 0.1,-0.2 0.2,-0.2 l 23.3,0 c 0.1,0 0.3,0.1 0.3,0.2 m 144.7,-2 c -0.2,0.3 -0.2,0.3 -0.2,0.3 -1.3,-0.8 -2.5,-1.6 -3.8,-2.3 -1.5,-0.6 -3,-1.2 -4.3,-1.5 0,0 0,0 0,-0.4 l 0.2,-0.9 c 0,-0.4 0,-0.4 0.3,-0.4 1.5,0.1 3.3,0.4 4.8,0.9 1.5,0.4 3.3,0.9 4.8,1.8 0,0.1 0,0 -0.2,0.4 M 261.1,244 c 0.5,0.1 0.5,0.1 0.2,0.4 -0.2,2.9 -1,5.9 -2.2,8.7 -1.6,2.8 -3.3,5.3 -5.6,7.4 -2.1,2.1 -4.7,3.8 -7.3,5.2 -2.6,1.4 -5.4,2.5 -8.1,3.5 -0.3,0.1 -0.3,0.1 -0.4,-0.4 l -0.3,-0.8 c -0.1,-0.4 -0.1,-0.4 0.1,-0.5 5.3,-2.1 10.4,-4.9 14.3,-8.9 2,-2 3.5,-4.3 4.5,-6.8 1,-2.5 1.5,-5.2 1.8,-7.9 0,-0.2 0,-0.2 0.5,-0.2 m -220.09,2.2 c 0.15,0 0.25,0.1 0.25,0.3 l 0,21.1 c 0,0.2 -0.1,0.3 -0.25,0.3 l -2.33,0 c -0.15,0 -0.25,-0.1 -0.25,-0.3 l 0,-21.1 c 0,-0.2 0.1,-0.3 0.25,-0.3 m 76.02,1.1 c 0,0.1 -0.1,0.2 -0.3,0.2 l -14.22,0 c -0.12,0 -0.25,-0.1 -0.28,-0.2 l -0.2,-1.8 c 0,-0.2 0.1,-0.3 0.23,-0.3 l 14.47,0 c 0.2,0 0.3,0.1 0.3,0.3 m 0.7,15.7 c -0.3,0.3 -0.3,0.3 -0.4,0.2 -1.8,-1.4 -3.9,-2.6 -6,-3.5 -2.2,-1 -4.5,-1.6 -6.82,-1.9 -0.13,0 -0.13,0 -0.1,-0.5 l 0.1,-0.8 c 0.1,-0.5 0.1,-0.5 0.17,-0.5 2.55,0 5.15,0.5 7.55,1.2 2.5,0.8 5,1.8 7.3,3.3 0.1,0.1 0.1,0.1 -0.2,0.5 M 98.75,240.4 c 0.43,0.1 0.43,0.1 0.4,0.2 -0.4,2.9 -1.04,5.8 -2.4,8.6 -0.69,1.3 -1.55,2.6 -2.58,3.8 -1.02,1.1 -2.15,2.1 -3.32,3 -0.12,0.1 -0.12,0.1 -0.38,-0.2 L 89.94,255 c -0.25,-0.3 -0.28,-0.3 -0.15,-0.4 2.05,-1.9 3.72,-4.1 4.58,-6.6 0.93,-2.5 1.21,-5.2 1.31,-7.8 0,-0.2 0,-0.2 0.43,-0.1 m 18.39,4.5 c 0.4,0.1 0.4,0.1 0.4,0.3 -0.5,2.7 -1,5.4 -1.7,8.1 -0.7,2.7 -1.8,5.5 -3.5,7.9 -1.8,2.4 -4.3,4.3 -6.9,5.6 -2.6,1.2 -5.4,2 -8.15,2.5 -0.28,0.1 -0.28,0.1 -0.36,-0.4 l -0.15,-0.8 c -0.1,-0.5 -0.1,-0.5 0.18,-0.5 2.63,-0.6 5.18,-1.5 7.48,-2.8 2.3,-1.3 4.3,-3 5.7,-5.2 1.4,-2.1 2.2,-4.6 2.7,-7.1 0.6,-2.6 0.9,-5.2 1.2,-7.9 0.1,-0.2 0.1,-0.2 0.5,-0.2 M 262.4,269 c -0.3,0.2 -0.3,0.2 -0.3,0.1 -1.3,-2 -2.8,-3.9 -4.3,-5.5 -1.8,-1.6 -3.8,-3.1 -5.8,-3.9 -0.1,0 -0.1,0 0,-0.4 l 0.4,-0.8 c 0.1,-0.4 0.1,-0.4 0.2,-0.4 2.4,0.7 4.7,2 7,3.6 2,1.6 4,3.4 5.5,5.7 0,0.1 0,0.1 -0.2,0.3 m 38.4,-49.9 c 0.3,0.2 0.3,0.2 -0.2,0.9 L 256,314.5 c -0.5,0.8 -0.5,0.8 -0.7,0.6 l -0.8,-0.4 c -0.2,-0.2 -0.2,-0.1 0,-0.9 l 46.1,-96.5 c 0.2,-0.8 0.2,-0.8 0.7,-0.6"> </path></svg>