<?xml version="1.0"?>
<!--?xml version="1.0" encoding="UTF-8" standalone="no"?-->
<svg xmlns="http://www.w3.org/2000/svg" viewBox="0 0 173.539 156.934" height="156.934px" width="173.539px"><path d="m 42.779,126.07 h 2.873 c 1.293,0 2.459,-0.75 2.446,-2.17 0,-1.26 -1.04,-2.16 -2.37,-2.14 h -2.949 z m -5.009,-8.11 h 9.437 c 2.563,0 6.133,1.12 6.133,5.12 0,2.56 -1.161,4 -3.368,4.66 0.104,0 1.26,0.5 1.738,1.95 0.02,0 2.699,7.51 2.73,7.53 h -5.564 l -1.98,-5.79 c -0.304,-0.89 -0.965,-1.48 -1.903,-1.48 -0.815,0 -2.097,0 -2.097,0 v 7.27 H 37.77 Z m 86.66,-0.47 c 5.44,0 9.6,3.19 9.6,10.14 0,6.64 -4.18,10.06 -9.6,10.06 -5.4,0 -9.55,-3.34 -9.55,-10.06 0,-6.95 4.12,-10.14 9.55,-10.14 z m -4.19,10.14 c 0,2.93 1.26,6.26 4.19,6.25 2.94,0 4.17,-3.32 4.2,-6.25 0,-2.66 -1.26,-6.25 -4.2,-6.25 -2.93,0 -4.19,3.31 -4.19,6.25 z m 27.8,9.59 -6.68,-12.66 v 12.66 h -4.85 v -19.26 h 6.64 l 6.33,12.42 v -12.42 h 4.81 v 19.26 z m -35.64,-18.94 -0.35,4.01 c -2.64,-1.45 -7.65,-1.49 -7.65,0.79 0,3.38 8.93,0.94 8.93,8.18 0,7.11 -8.51,7.19 -14.02,5.54 l 0.393,-4.24 c 3.457,1.61 8.347,1.96 8.347,-0.83 0,-3.07 -8.969,-1.34 -8.969,-8.22 0,-5.65 6.989,-7.16 13.319,-5.23 z m -15.804,0 -0.353,4.01 c -2.639,-1.45 -7.649,-1.49 -7.649,0.79 0,3.38 8.932,0.94 8.932,8.18 0,7.11 -8.502,7.19 -14.018,5.54 l 0.391,-4.24 c 3.455,1.61 8.349,1.96 8.349,-0.83 0,-3.07 -8.971,-1.34 -8.971,-8.22 0,-5.65 6.989,-7.16 13.319,-5.23 z m -15.416,0.3 -0.352,4.12 c -4.23,-2.45 -10.715,-1.67 -10.829,4.75 -0.119,6.42 6.677,7.35 10.986,5.17 l 0.271,4.21 c -7.608,2.37 -16.697,0 -16.657,-9.38 0.04,-9.15 9.202,-11.68 16.581,-8.87 z m -19.104,18.64 h -5.237 v -19.26 h 5.237 z m -28.5,-7.63 h -9.131 v 3.59 h 9.676 v 4.03 H 19.248 v -19.25 h 14.719 v 4 h -9.522 v 3.48 h 9.131 z M 67.563,98.224 C 63.448,99.732 58.889,97.619 57.38,93.503 55.871,89.387 57.984,84.829 62.099,83.321 L 105.98,67.233 c 4.11,-1.508 8.67,0.604 10.18,4.72 1.51,4.114 -0.6,8.673 -4.72,10.183 z m 0,-23.75 C 63.448,75.982 58.889,73.869 57.38,69.753 55.871,65.637 57.984,61.08 62.099,59.571 L 105.98,43.484 c 4.11,-1.509 8.67,0.604 10.18,4.719 1.51,4.114 -0.6,8.673 -4.72,10.182 z m 0,-23.75 C 63.448,52.232 58.889,50.12 57.38,46.004 55.871,41.888 57.984,37.331 62.099,35.822 L 105.98,19.735 c 4.11,-1.509 8.67,0.604 10.18,4.719 1.51,4.114 -0.6,8.673 -4.72,10.182 z"></path></svg>