<?xml version="1.0"?>
<!--?xml version="1.0" encoding="UTF-8" standalone="no"?-->
<svg xmlns="http://www.w3.org/2000/svg" version="1.1" viewBox="0 0 1636 777" height="777pt" width="1636pt">
  <defs id="defs48"></defs>
  <path d="m 1111.3,705.87 c 0,-1.47 0,-2.94 0,-4.39 10,0.1 20,0.15 30.1,0.14 0,1.43 0,2.87 0,4.31 -2.1,0.51 -4.2,1.1 -6.3,1.75 1.5,7 5.5,13.08 8.3,19.56 2.2,-3.94 4.1,-7.99 6,-12.08 0.9,-2.2 1.9,-4.59 1.3,-7 -1.6,-1.26 -3.8,-1.59 -5.7,-2.18 -0.1,-1.46 -0.2,-2.91 -0.2,-4.35 8.5,0 17.1,-0.1 25.7,0.1 0,1.42 0,2.86 0,4.3 -3.2,0.8 -6.5,1.35 -9.2,3.38 -2.7,2.02 -4.2,5.15 -5.8,8.04 -2.6,5.01 -5.4,9.92 -8,14.94 -1.5,2.61 -0.9,5.73 -1,8.61 0.1,3.31 -0.5,7.06 1.5,9.95 2.6,2.69 6.7,2.46 10.2,3 -0.1,1.47 0,2.95 0,4.44 -12.1,0.1 -24.2,-0.18 -36.2,-0.1 0,-1.49 0,-2.97 0,-4.44 4,-0.81 10.6,-0.21 11.2,-5.6 0.3,-5.31 1.6,-11.24 -1.4,-16.02 -2.7,-5.36 -5.4,-10.73 -7.9,-16.16 -1.3,-2.57 -2.6,-5.28 -4.8,-7.15 -2.2,-1.79 -5.1,-2.33 -7.8,-3.04 z m 172.3,-0.3 c 8.5,-6.63 20.9,-6.31 29.9,-0.88 -0.3,5.27 -0.7,10.54 -1,15.82 -1.4,0 -2.9,0 -4.3,0 -1.3,-4.83 -2.2,-11.05 -7.4,-13.26 -3.9,-1.88 -9.4,0.24 -10.2,4.77 -0.9,3.67 1.4,7.12 4.4,9.08 5.8,4.18 13.2,6.31 18.1,11.86 5.3,5.79 4.6,15.72 -1.1,20.99 -5.3,4.98 -13,6.37 -20,5.94 -5.2,-0.44 -10.9,-1.51 -15.1,-4.69 -1.2,-5.73 -1.9,-11.55 -2.9,-17.32 1.5,-0.26 3,-0.51 4.6,-0.75 2,5.5 4.7,11.18 9.7,14.54 3.5,2.35 8.5,3.25 12.3,0.96 4,-2.56 4,-8.8 0.6,-11.91 -6.1,-5.89 -15.5,-7.36 -20.9,-14.18 -5.1,-6.31 -2.9,-16.28 3.3,-20.98 z M 781.05,700.7 c 9.11,0.1 18.22,0.16 27.33,0.14 0,1.41 0,2.83 0,4.26 -1.83,0.57 -3.72,1.01 -5.41,1.91 -2.04,1.57 -0.67,4.17 -0.22,6.19 2.5,7.67 4.41,15.54 7.25,23.1 2.85,-8.1 6.02,-16.11 8.57,-24.3 -0.28,-4.13 -4.71,-6.04 -8.24,-6.86 -0.1,-1.41 -0.1,-2.83 -0.12,-4.22 9.34,-0.2 18.69,0 28.04,-0.1 0,1.43 0,2.88 0,4.34 -2.19,0.8 -4.87,0.91 -6.48,2.79 -0.27,2.66 0.65,5.27 1.36,7.81 2.24,7.16 4.31,14.37 6.65,21.5 2.66,-9.08 6.41,-17.93 7.78,-27.32 0.31,-3.72 -4.51,-3.68 -6.98,-4.76 0,-1.43 0,-2.85 0,-4.27 8.01,0.1 16.02,-0.14 24.03,0.13 0,1.37 -0.1,2.76 -0.1,4.16 -3.82,1.09 -7.86,2.97 -9.16,7.07 -5.95,15.6 -11.31,31.44 -17.1,47.11 -1.65,-0.37 -3.29,-0.71 -4.92,-1.04 -4.03,-12.18 -7.27,-24.63 -11.6,-36.7 -4.6,12.36 -8.91,24.83 -13.23,37.29 -1.7,-0.15 -3.39,-0.32 -5.08,-0.47 -4.3,-13.49 -8.44,-27.03 -12.65,-40.54 -1.05,-3.15 -1.71,-6.51 -3.48,-9.35 -1.34,-2.23 -4.04,-2.76 -6.3,-3.54 0,-1.46 0,-2.91 0,-4.35 z m -159.88,-0.32 c 9.25,0 18.5,0.17 27.76,0.1 5.86,0 12.13,0.23 17.3,3.32 6.22,3.84 6.84,13.29 2.46,18.76 -1.78,2.4 -4.4,3.95 -6.91,5.48 5.18,11.45 13.79,23.1 26.73,26 -0.25,1.41 -0.5,2.84 -0.74,4.27 -7.71,-0.49 -16.22,0.4 -22.95,-4.14 -6.6,-5.02 -10.05,-12.83 -14.12,-19.81 -1.16,-2.25 -3.96,-2.23 -6.06,-2.86 0,5.47 -0.61,11.07 0.57,16.46 1.73,4.58 7.61,4.22 11.63,4.76 0,1.51 0,3.02 0,4.55 -11.92,0 -23.84,-0.19 -35.76,-0.1 0,-1.49 0,-2.97 0,-4.43 2.88,-0.56 6,-0.62 8.57,-2.17 1.83,-1.65 1.73,-4.4 1.93,-6.67 0.13,-9.99 0,-19.98 0.1,-29.97 -0.1,-2.36 0.1,-5.06 -1.61,-6.95 -2.52,-1.88 -5.87,-1.63 -8.83,-2.06 0,-1.52 0,-3.03 0,-4.54 m 23.47,5.31 c 0,6.82 0,13.65 0,20.48 2.97,-0.56 6.11,-1.1 8.57,-3.01 4.28,-3.05 5.39,-10.08 1.61,-13.93 -2.67,-2.68 -6.66,-3 -10.18,-3.54 z m -162.44,-5.52 c 11.31,0 22.62,0 33.94,0 0,1.44 0.1,2.88 0.14,4.33 -3.29,1 -8.26,0.34 -9.86,4.09 -1.36,5.34 -0.57,10.94 -0.76,16.4 0.23,7.64 -0.83,15.39 0.52,22.97 1.14,4.28 6.63,3.6 10.03,4.61 -0.1,1.4 -0.11,2.81 -0.16,4.23 -11.32,0.1 -22.64,0 -33.96,0 0,-1.47 0,-2.93 0,-4.38 2.98,-0.65 6.31,-0.6 8.9,-2.39 1.57,-1.98 1.49,-4.67 1.63,-7.06 0.1,-9.68 0,-19.37 0,-29.06 -0.11,-2.39 0,-5.1 -1.6,-7.05 -2.6,-1.73 -5.87,-1.8 -8.83,-2.44 0,-1.44 0,-2.87 0,-4.29 z m 497.09,4.33 c 3.46,-1.33 5.95,-4.02 8.52,-6.54 0.6,-0.12 1.79,-0.37 2.39,-0.49 6.32,15.88 12.13,31.95 18.43,47.85 0.8,1.96 1.6,4.09 3.3,5.57 1.9,1.46 4.3,2.09 6.5,2.95 0,1.41 0,2.84 0,4.28 -9.9,-0.2 -19.72,0.14 -29.56,-0.21 0,-1.41 0,-2.82 0,-4.22 2.4,-0.5 4.81,-1.13 6.92,-2.43 -0.59,-5.17 -2.78,-9.92 -4.56,-14.75 -5.24,0 -10.47,0 -15.7,0 -1.42,4.69 -4.25,9.64 -2.87,14.63 2.45,2.05 5.89,1.82 8.87,2.44 0,1.47 0,2.95 0,4.44 -9.08,-0.36 -18.17,-0.1 -27.25,-0.21 0,-1.4 0,-2.79 0.1,-4.16 2.77,-1.03 6.44,-1.49 7.67,-4.62 5.84,-13.2 11.4,-26.53 17.19,-39.76 0.83,-1.51 0.18,-3.2 0.1,-4.77 m -1.33,24.88 c 3.52,0 7.05,0 10.59,0 -1.78,-4.55 -3.49,-9.13 -5.34,-13.65 -2.04,4.45 -3.55,9.1 -5.25,13.67 z M 349.46,696.41 c 0.95,0 1.92,0 2.88,0 5.92,15.47 11.74,30.97 17.71,46.42 0.96,2.27 1.77,4.76 3.61,6.52 1.89,1.59 4.38,2.12 6.65,2.97 0,1.41 0.1,2.84 0.13,4.27 -9.91,0.11 -19.82,-0.1 -29.73,-0.1 0,-1.42 0,-2.84 0,-4.25 2.2,-0.82 5.96,-0.47 6.72,-3.19 -0.32,-4.89 -2.76,-9.29 -4.32,-13.85 -5.29,0 -10.58,-0.1 -15.87,0 -1.27,4.77 -4.53,9.97 -2.42,14.9 2.58,1.51 5.67,1.49 8.55,1.91 0,1.48 0,2.97 0,4.48 -9.04,0 -18.08,0 -27.12,0 0,-1.46 0,-2.92 0,-4.36 3.02,-0.91 6.75,-1.66 7.85,-5.09 5.69,-12.98 11.23,-26.04 16.9,-39.03 0.95,-1.58 0.41,-3.36 0.1,-5.01 3.37,-1.36 6.14,-3.75 8.33,-6.61 m -4.8,18.73 c -1.87,4.15 -3.2,8.51 -4.91,12.73 3.56,0.17 7.12,0.18 10.69,0 -1.76,-4.22 -3.14,-8.59 -5.06,-12.74 -0.18,0 -0.54,0 -0.72,0 z M 921.99,599.96 C 969.67,550.47 1017.4,501 1065,451.52 c 10,10.65 20.1,21.26 29.9,32.01 -41.1,42.4 -82.1,84.89 -123.23,127.26 2.41,0.24 4.84,0.46 7.27,0.65 0.12,3.08 0.15,6.17 0.1,9.27 -25.45,-0.13 -50.9,0 -76.35,-0.25 5.93,-7.27 12.93,-13.61 19.3,-20.5 z M 1275.7,415.53 c 54.4,0 108.8,0.15 163.3,0.3 23,-0.17 46.2,0.13 69,3.64 18,2.75 35.8,7.21 52,15.47 14.4,7.57 27.8,17.33 38.3,29.79 11,13.07 18.5,29.24 20.6,46.28 2.1,16.97 -0.8,34.74 -9.4,49.63 -7.6,13.46 -19.2,24.32 -31.9,32.95 -17,11.53 -36.5,19.03 -56.5,23.22 -20.8,4.09 -42,4.58 -63.1,4.79 -50.5,-0.13 -100.9,-0.19 -151.4,-0.33 0,-2.69 0,-5.37 0.1,-8.06 2.9,-2.41 8.6,-3.48 8.2,-8.19 0,-49.8 -0.1,-99.59 -0.1,-149.39 17.3,0 34.5,-0.14 51.8,0.1 0.1,43.7 -0.3,87.4 -0.2,131.11 29.9,-0.1 59.7,0.16 89.6,0.12 19.5,0 39.2,-1.31 58,-6.75 14.8,-4.38 28.7,-12.59 38.8,-24.36 14.1,-16.39 16.8,-41.02 8,-60.54 -7,-15.46 -20.9,-26.86 -35.9,-34.13 -18.8,-8.21 -39.7,-9.77 -60,-10.56 -60.4,-0.4 -120.9,-0.23 -181.4,-0.55 0,-7.19 0,-14.39 -0.1,-21.58 -2.6,-1.73 -5.2,-3.42 -7.7,-5.13 0,-2.61 0,-5.21 0,-7.81 z m -205,30.37 c 9.8,-10.74 20.1,-21.05 30.2,-31.47 65.5,69.01 131,137.99 196.4,207.04 -25.9,-0.14 -51.8,0 -77.7,-0.2 0.1,-3.17 0.1,-6.33 0.1,-9.49 2.9,0 5.7,-0.14 8.6,-0.39 -19.8,-21.81 -40.4,-42.79 -60.4,-64.33 -1.2,-1.02 -2.1,-2.8 -3.9,-2.74 -31.3,-0.25 -62.7,-0.12 -94,-0.23 -4.7,-0.36 -8.3,2.84 -12.3,4.64 -2.8,-1.4 -5.5,-2.84 -8.3,-4.36 8,-8.7 15.9,-17.39 23.9,-26.07 2.6,-2.62 4.7,-5.82 7.7,-8.02 17.3,-0.24 34.6,-0.11 51.9,0 -12.9,-13.16 -26.2,-25.94 -38.7,-39.44 -7.8,-8.32 -15.6,-16.65 -23.5,-24.92 z M 690.71,414.44 c 22.85,-0.15 45.71,0 68.57,0.1 0,2.62 0,5.24 0,7.86 -2.88,2.03 -6.16,3.53 -8.78,5.91 -0.39,30.35 0.1,60.73 0,91.1 8.59,-10.75 17.19,-21.49 25.69,-32.3 19.26,-0.52 38.51,0.34 57.77,0.1 25.15,-0.1 50.29,0.19 75.44,0.1 -0.1,-19.6 0.2,-39.19 0.1,-58.79 -2.91,-1.92 -5.87,-3.77 -8.84,-5.59 0,-2.69 0,-5.37 0,-8.05 22.89,-0.1 45.77,0 68.66,0.1 0,2.7 0,5.39 -0.1,8.1 -2.69,1.69 -5.7,2.97 -8.04,5.15 -0.69,1.5 -0.35,3.23 -0.45,4.84 0.44,37.3 0.37,74.61 0.47,111.91 -17.52,18.57 -34.94,37.23 -52.54,55.73 0.14,-26.11 0.47,-52.22 0.7,-78.34 -18.79,-0.34 -37.59,-0.1 -56.39,-0.26 -27.35,0.14 -54.7,-0.51 -82.04,-0.17 -6.41,0.32 -11.08,5.38 -16.76,7.69 -1.27,-0.29 -2.51,-0.64 -3.72,-1.05 -0.1,26.15 0.1,52.29 0.12,78.43 2.68,1.72 5.36,3.43 8.07,5.13 0,2.67 0,5.34 0,8.02 -22.77,0.13 -45.55,0 -68.32,-0.15 0,-2.55 -0.18,-5.12 0.1,-7.65 2.31,-3.09 8.33,-3.6 8.18,-8.3 -0.16,-58.94 0,-117.89 -0.34,-176.83 -2.6,-1.56 -5.13,-3.25 -7.63,-4.96 0,-2.6 0,-5.2 0,-7.79 z m -83.54,-0.28 c 22.65,0.11 45.3,0.14 67.95,0.12 0,2.61 0,5.23 0.1,7.86 -2.83,2.73 -8.73,3.93 -7.93,8.84 0,58.61 0.27,117.22 0.1,175.84 2.44,1.8 4.93,3.54 7.4,5.32 0,2.64 0,5.28 0,7.92 -22.66,-0.56 -45.34,0.1 -68.01,-0.41 0,-2.61 0,-5.21 0,-7.8 2.78,-2.15 6.6,-3.39 8.55,-6.35 0.75,-25.8 0,-51.67 0.45,-77.5 -0.19,-33.28 0.36,-66.57 0,-99.84 -2.44,-2.55 -5.79,-3.99 -8.58,-6.1 0,-2.64 0,-5.27 0,-7.9 z M 253.81,452.5 c 10.36,-13.09 20.97,-25.99 31.34,-39.07 103.77,0.27 207.54,0.26 311.3,0.78 -11.1,13.32 -22.14,26.69 -33.17,40.07 -2.01,3.01 -6.17,1.42 -9.2,1.78 -0.1,-2.24 -0.19,-4.48 -0.28,-6.72 -23.59,-1.05 -47.22,-0.17 -70.83,-0.62 -11.74,0 -23.49,0 -35.23,0 -0.17,52.48 -0.35,104.97 -0.3,157.46 2.75,1.77 5.54,3.49 8.36,5.16 0,2.71 0,5.43 0,8.15 -22.8,0 -45.6,-0.19 -68.4,-0.11 0,-2.7 0,-5.39 0,-8.08 2.7,-1.92 5.9,-3.25 8.17,-5.68 0.86,-3.13 0.26,-6.44 0.38,-9.63 0.41,-49.12 0.24,-98.26 0.43,-147.38 -38.13,-0.2 -76.27,-0.12 -114.4,-0.36 -7.13,-0.4 -12.62,4.97 -18.94,7.4 -3.09,-1.02 -6.16,-2.07 -9.22,-3.17 z M 121.13,416.82 c 18.06,-3.52 36.55,-3.32 54.87,-3.55 31,0.18 62,0.12 92.99,0.26 -11.43,13.77 -22.94,27.49 -34.38,41.26 -2.84,0 -5.69,0 -8.53,0.1 0.3,-2.1 0.59,-4.21 0.86,-6.31 -2.6,-0.48 -5.24,-0.81 -7.89,-0.74 -14.69,0.13 -29.38,-0.1 -44.07,0.12 -10.62,0.64 -21.36,-0.25 -31.88,1.75 -20.51,2.19 -41.26,9.48 -56.16,24.22 -12.94,12.29 -20.63,30.43 -18.29,48.37 7.73,-11.14 15.14,-22.51 22.96,-33.59 29.47,0 58.94,0.21 88.41,0.16 19.98,0.33 39.98,-0.21 59.96,0.34 22.69,-0.1 45.39,0 68.08,0.15 -11.35,13.97 -22.62,28 -33.96,41.97 -2.93,0 -5.85,0 -8.78,-0.12 0.31,-2.26 0.63,-4.51 0.97,-6.75 -4.67,-1.11 -9.5,-0.66 -14.26,-0.81 -61.13,0 -122.27,-0.33 -183.4,-0.26 1.66,14.58 9.02,28.32 20.37,37.63 14.11,12.17 32.38,18.08 50.57,20.63 25.95,3.94 52.26,2.49 78.39,2.66 35.04,0.1 70.07,-0.13 105.1,0.14 5.72,-0.35 9.94,-4.93 15.07,-6.98 4.27,-0.42 8.57,-0.1 12.85,-0.13 -11.58,13.97 -23.12,27.97 -34.78,41.88 -38.39,-0.1 -76.79,0 -115.18,-0.34 -25.01,0 -50.14,0.42 -75.01,-2.8 C 105.66,613.33 85.67,607.23 67.64,597.32 53.05,589.4 39.39,579.15 29.54,565.63 9.51,538.65 9.64,499.1 28.45,471.52 c 9.48,-14.33 22.85,-25.73 37.53,-34.47 16.97,-9.93 35.61,-17.39 55.15,-20.19 z M 389.54,83.8 c 7.2,4.95 12.64,11.88 18.54,18.21 5.6,6.15 11.06,13.08 19.19,15.93 0.53,3.43 0.67,7.59 -2.13,10.14 -3.12,2.95 -7.58,4.76 -9.27,9 -1.55,3.21 -1.55,6.83 -1.6,10.32 54.91,0 109.83,0 164.74,0 5.61,-0.11 11.64,0.85 15.98,4.68 4.53,3.89 6.2,10.11 6.26,15.88 -0.1,3.38 -0.8,6.7 -0.76,10.08 0,32.33 0,64.66 0,96.98 -0.1,3.1 0.45,6.47 -1.29,9.24 -6.95,13.63 -21.28,22.3 -36.13,24.58 -13.94,2.17 -29.25,1.33 -41.36,-6.58 -6.46,-4.19 -11.64,-10.36 -14.56,-17.49 -0.8,-1.81 -0.72,-3.82 -0.74,-5.75 0.1,-7.23 0,-14.47 0,-21.7 -38.32,-0.1 -76.65,0 -114.98,0 0,-10.86 0,-21.71 0,-32.56 45.21,0 90.43,0 135.65,0 0.11,14.07 -0.19,28.14 0.13,42.2 3.54,6.97 10.95,11.65 18.51,13.25 5.42,0.92 11.55,1.08 16.26,-2.22 4.78,-3.3 6.97,-9.29 6.93,-14.94 -0.13,-25.02 0,-50.05 -0.1,-75.07 -0.11,-7.46 -8.35,-11.46 -14.89,-11.84 -54.83,-0.1 -109.66,0 -164.49,-0.1 0,-30.75 -0.1,-61.5 0,-92.26 z M 912.59,65.54 c 7.43,-7.72 15.24,-15.07 22.62,-22.84 8.12,7.82 16.12,15.78 23.92,23.93 -8.04,7.78 -15.68,15.97 -23.89,23.56 -7.25,-7.25 -14.49,-14.5 -21.75,-21.73 -0.69,-0.77 -2.22,-1.93 -0.9,-2.92 z M 884.77,43.69 c 0.84,-1.37 2.02,0.1 2.73,0.72 7.27,7.26 14.47,14.59 21.83,21.76 -2.45,3.56 -5.89,6.25 -8.82,9.38 -4.87,4.73 -9.47,9.75 -14.48,14.32 -0.32,-0.15 -0.95,-0.43 -1.26,-0.58 -7.67,-7.49 -15.16,-15.18 -22.79,-22.71 7.47,-7.75 15.15,-15.3 22.79,-22.89 z m 107.4,-20.93 c 1.48,-0.15 3.04,-1.09 4.51,-0.56 7.92,11.55 17.22,22.17 27.72,31.39 2.6,2.76 8.3,3.58 7.7,8.4 0.8,5.81 -4.4,9 -8.6,11.69 -5.2,3.62 -5.6,10.55 -5.7,16.31 -0.5,37.33 -0.1,74.66 0.2,111.98 11.4,11.6 22.7,23.33 34,34.96 10.9,-11.14 21.6,-22.46 32.5,-33.57 1.3,-1.02 1.2,-2.77 1.3,-4.29 0.1,-34.34 0.7,-68.68 0.2,-103.01 -0.5,-6.23 0.7,-12.99 -2.4,-18.7 -2.6,-5 -9.5,-5.9 -11.4,-11.38 -0.5,-2.89 -1.4,-7.25 2,-8.77 5.5,-3.28 10.1,-7.88 14.5,-12.51 6.7,-7.09 13.3,-14.41 18.4,-22.71 1.5,0.2 2.9,0.39 4.4,0.59 0.3,64.3 0.1,128.62 0.1,192.92 -9.2,9.55 -18.3,19.14 -27.4,28.7 -4.1,4.62 -8.8,8.72 -12.5,13.67 11,10.95 21.9,21.89 32.8,32.92 -17.6,17.47 -35,35.14 -52.5,52.7 -17.7,-17.52 -35.2,-35.11 -52.74,-52.65 10.94,-11.02 21.94,-22.03 32.94,-32.94 -12.9,-13.47 -26.7,-26.04 -39.74,-39.38 -0.61,-2.45 -0.23,-5.02 -0.31,-7.52 0,-62.75 0,-125.49 0,-188.24 m 36.75,268.11 c 7.7,7.62 15.3,15.35 23.1,22.99 7.6,-7.67 15.3,-15.33 23,-23.03 -7.7,-7.62 -15.2,-15.43 -23,-22.88 -8,7.28 -15.5,15.18 -23.1,22.92 z m 127,-277.36 c 5.4,10.04 13.8,17.92 22.2,25.42 7.4,6.4 14.9,13.03 23.9,17.17 3.5,1.36 2.5,5.94 2,8.83 -2.7,5.75 -10.3,6.07 -14,10.96 -4,5.13 -3,12.07 -3.3,18.16 -0.4,54.25 -0.2,108.51 0.3,162.76 -10.4,0.1 -20.8,0 -31.3,0 0,-55.94 0,-111.88 0,-167.81 0.1,-25.17 -0.2,-50.34 0.2,-75.5 z M 647.42,42.33 c 9.41,-8.25 19.08,-16.71 25.05,-27.91 0.3,52.54 0.2,105.09 0.36,157.63 0,17.88 0.17,35.76 -0.35,53.63 59.75,0.1 119.49,0 179.24,0 -0.11,-4.59 0,-9.17 0.48,-13.73 0.35,-6.87 -4.66,-12.78 -10.59,-15.58 -9.46,-4.63 -20.25,-5.38 -30.61,-5.35 -18.35,0.16 -36.7,0.43 -55.04,0.1 -3.99,-0.2 -8.1,0.1 -11.96,-1.04 -6.89,-2.62 -10.89,-9.72 -12.36,-16.61 -1.11,-6.17 -1,-13.03 2.46,-18.48 1.55,-2.58 4.07,-4.31 6.57,-5.88 3.74,8.1 13.4,9.73 21.31,10.89 23.6,2.62 47.39,0.91 71.07,0.58 13.92,0 28.54,4.76 37.72,15.69 11.51,13.52 14.39,32.21 13.5,49.42 15.96,0 31.92,0 47.88,0 -0.39,-21.26 -0.1,-42.53 -0.62,-63.79 0,-4.75 -1.81,-9.8 -5.98,-12.43 -3.57,-2.64 -8.92,-3.84 -10.46,-8.49 -0.58,-2.85 -1.34,-7.32 2.21,-8.53 6.76,-3.19 12.5,-8.07 18.11,-12.94 9.89,-8.88 20.07,-18.01 26.17,-30.05 0,55.61 -0.15,111.22 0,166.83 -26.04,0 -52.08,-0.11 -78.11,0.1 0,8.85 0.24,18.07 3.99,26.26 1.38,3.37 4.36,5.58 6.86,8.08 -6.47,4.64 -14.61,7.2 -22.55,5.51 -6.52,-1.29 -12.9,-4.87 -16.08,-10.91 -5.02,-8.79 -4.42,-19.25 -4.04,-29 -69.68,-0.1 -139.35,0 -209.03,0 -0.62,-56.1 0.37,-112.2 -1.05,-168.28 -0.1,-4.4 -0.8,-9.24 -4.22,-12.35 -3.72,-3.77 -9.92,-4.49 -12.66,-9.27 -0.96,-3.06 -1.92,-8.25 2.03,-9.54 7.73,-3.52 14.24,-9.09 20.7,-14.51 z"></path>
  </svg>
