<?xml version="1.0"?>
<!--?xml version="1.0" encoding="UTF-8" standalone="no"?-->
<svg xmlns="http://www.w3.org/2000/svg" height="67.147" width="151.29" viewBox="0 0 151.29 67.147">

  <g class="logomark">
    <path d="m 112.8,40.577 c -0.41,0 -0.76,-0.07 -1.03,-0.203 -1.29,-0.666 -2.3,-3.883 -2.28,-7.191 0,-2.157 1.37,-3.347 3.41,-3.347 1.1,0 2.38,0.341 3.76,1.053 3.96,2.047 4.99,5.264 2.29,7.19 -2.13,1.532 -4.59,2.498 -6.15,2.498 m -0.51,-14.058 c -0.58,0 -1.12,0.07 -1.57,0.226 -1.78,0.549 -2.48,2.211 -2.35,4.525 0.13,2.311 0.85,4.71 1.38,6.453 0.59,1.771 0.99,2.888 1.72,3.261 0.21,0.112 0.47,0.163 0.77,0.163 0.69,0 1.63,-0.271 2.87,-0.654 1.73,-0.576 4.1,-1.382 6.06,-2.607 1.98,-1.226 2.92,-2.764 2.33,-4.535 -0.54,-1.743 -2.6,-3.721 -5.42,-5.18 -2.09,-1.077 -4.15,-1.652 -5.79,-1.652 m -7.19,-1.996 c -1.01,1.326 -1.04,3.509 -0.36,6.213 0.95,3.808 2.59,7.657 3.36,10.227 0.88,2.628 0.88,3.978 1.22,4.154 0,0.01 0.1,0.03 0.13,0.03 0.45,0 1.57,-0.703 3.97,-1.426 2.53,-0.865 6.62,-1.756 10.28,-3.184 2.57,-1.008 4.34,-2.28 4.84,-3.864 -0.82,1.107 -2.31,2.036 -4.29,2.808 -3.66,1.429 -7.74,2.321 -10.28,3.183 -2.39,0.726 -3.52,1.43 -3.97,1.43 -0.1,0 -0.1,-0.01 -0.12,-0.03 -0.35,-0.177 -0.35,-1.523 -1.23,-4.155 -0.76,-2.567 -2.41,-6.418 -3.36,-10.228 -0.52,-2.076 -0.63,-3.845 -0.19,-5.156" style="opacity:0.5"></path>
    <path d="m 109.47,22 c -0.78,0 -1.46,0.09 -2.03,0.291 -1.22,0.365 -1.97,1.14 -2.34,2.232 0.43,-0.542 1.01,-0.942 1.78,-1.175 0.58,-0.197 1.26,-0.29 2.04,-0.29 2.66,0 6.35,1.11 10.19,3.089 4.95,2.557 8.61,5.789 9.38,8.359 0.26,0.778 0.27,1.497 0.1,2.162 0.7,-0.94 0.9,-2.009 0.49,-3.217 -0.76,-2.569 -4.41,-5.8 -9.37,-8.357 C 115.88,23.113 112.17,22 109.52,22" style="opacity:0.25; "></path>
    <path d="m 112.24,41.147 c -0.3,0 -0.56,-0.04 -0.77,-0.163 -0.73,-0.373 -1.13,-1.49 -1.72,-3.261 -0.53,-1.743 -1.25,-4.142 -1.38,-6.453 -0.13,-2.314 0.57,-3.976 2.35,-4.525 0.45,-0.152 0.99,-0.226 1.57,-0.226 1.63,0 3.7,0.575 5.79,1.652 2.82,1.459 4.88,3.437 5.42,5.18 0.59,1.771 -0.36,3.309 -2.33,4.535 -1.96,1.225 -4.33,2.031 -6.06,2.607 -1.24,0.383 -2.18,0.654 -2.87,0.654 m -3.32,-18.089 c -0.78,0 -1.46,0.09 -2.04,0.29 -0.77,0.233 -1.35,0.633 -1.78,1.175 -0.44,1.311 -0.33,3.081 0.19,5.156 0.95,3.811 2.6,7.661 3.36,10.229 0.88,2.631 0.88,3.978 1.23,4.153 0,0.01 0.1,0.03 0.12,0.03 0.45,0 1.58,-0.703 3.97,-1.43 2.53,-0.862 6.62,-1.755 10.28,-3.182 1.98,-0.772 3.47,-1.702 4.29,-2.808 0.22,-0.664 0.21,-1.384 -0.1,-2.162 -0.75,-2.573 -4.41,-5.804 -9.37,-8.362 -3.83,-1.979 -7.52,-3.089 -10.18,-3.089"></path>
  </g>
  <path d="m 46.636,29.864 c 0.57,0 0.869,0.01 1.184,-0.277 0.248,-0.228 0.249,-0.639 0.249,-1.105 v -1.197 h -1.315 c -0.885,0.01 -1.029,0.56 -1.029,1.037 v 1.542 h 0.92 m 1.433,14.632 V 30.903 h -1.311 c -0.882,0.01 -1.034,0.567 -1.034,1.041 v 12.562 z m 52.212,-2.035 c -1.782,0 -2.442,-0.07 -2.442,-1.382 v -8.005 h 2.071 c 0.741,0 1.281,-0.346 1.281,-1.089 0,-0.743 -0.54,-1.09 -1.281,-1.09 h -2.071 v -2.23 -0.01 -1.366 h -1.002 c -0.199,0 -0.335,0 -0.487,0.02 -0.948,0.1 -0.852,1.023 -0.852,1.023 v 2.563 h -0.641 c -0.738,0 -1.277,0.346 -1.277,1.089 0,0.743 0.539,1.089 1.277,1.089 h 0.641 v 6.786 1.726 c 0,2.872 1.993,2.908 4.783,2.908 h 1.39 v -0.937 c 0,-0.66 -0.54,-1.088 -1.39,-1.088 m -57.955,0 c -1.783,0 -2.446,-0.07 -2.446,-1.382 v -8.009 h 2.072 c 0.744,0 1.277,-0.346 1.277,-1.089 0,-0.743 -0.533,-1.09 -1.277,-1.09 h -2.072 v -2.231 -0.01 -1.366 h -0.998 c -0.201,0 -0.337,0 -0.49,0.03 -0.947,0.1 -0.854,1.023 -0.854,1.023 v 2.563 h -0.638 c -0.74,0 -1.277,0.346 -1.277,1.089 0,0.743 0.537,1.089 1.277,1.089 h 0.638 v 6.786 1.726 c 0,2.871 1.996,2.908 4.788,2.908 h 1.38 v -0.937 c 0,-0.66 -0.529,-1.088 -1.379,-1.088 M 79.177,27.204 h -1.312 c -1.137,0 -1.032,1.033 -1.032,1.033 v 12.638 3.623 h 2.35 z m 13.145,8.477 c 0,-2.367 -0.641,-4.792 -4.15,-4.792 h -4.928 c -0.77,0 -1.278,0.347 -1.278,1.091 0,0.747 0.508,1.094 1.278,1.094 h 4.581 c 1.623,0 2.157,0.372 2.157,1.515 v 0.348 c -0.1,0.698 -0.883,0.864 -1.278,0.956 -3.291,0.773 -7.719,-0.07 -7.719,4.658 0,2.528 2.155,4.019 5.11,4.019 0.04,0 2.968,0.145 4.046,-1.337 v 0.129 c 0.07,0.746 0.428,1.138 1.191,1.138 h 0.975 z m -2.34,3.937 c 0,2.317 -1.306,3.143 -3.516,3.143 -1.996,0 -3.14,-0.718 -3.14,-2.317 0,-1.188 1.011,-1.954 2.216,-2.167 1.206,-0.215 3.042,-0.296 4.44,-0.615 z M 74.539,35.681 c 0,-2.367 -0.641,-4.792 -4.151,-4.792 h -4.924 c -0.773,0 -1.28,0.347 -1.28,1.091 0,0.747 0.507,1.094 1.28,1.094 h 4.578 c 1.624,0 2.157,0.372 2.157,1.515 v 0.348 c -0.1,0.698 -0.882,0.864 -1.278,0.956 -3.291,0.773 -7.718,-0.07 -7.718,4.658 0,2.528 2.153,4.019 5.108,4.019 0.04,0 2.969,0.145 4.049,-1.337 v 0.129 c 0.07,0.746 0.429,1.138 1.194,1.138 h 0.97 z m -2.34,3.937 c 0,2.317 -1.304,3.143 -3.516,3.143 -1.996,0 -3.139,-0.718 -3.139,-2.317 0,-1.188 1.009,-1.954 2.215,-2.167 1.208,-0.215 3.043,-0.296 4.44,-0.615 z M 59.523,30.895 c 0.744,0 1.279,0.347 1.279,1.09 0,0.747 -0.535,1.092 -1.279,1.092 h -5.456 c -1.145,0.09 -1.29,1.237 -1.197,1.947 0.04,0.228 0.14,0.424 0.3,0.559 0.356,0.304 0.974,0.41 1.615,0.52 l 4.153,0.731 c 2.182,0.399 3.007,1.505 3.007,3.476 0,3.061 -1.89,4.194 -4.843,4.194 h -6.896 v -1.09 c 0,-0.745 0.507,-1.093 1.276,-1.093 h 5.456 c 2.13,0 2.678,-0.653 2.675,-1.823 0,-1.064 -0.294,-1.452 -1.717,-1.693 l -4.205,-0.692 c -2.127,-0.346 -3.052,-1.466 -3.168,-2.893 -0.169,-2.094 0.7,-4.325 3.569,-4.325 z m -27.339,7.2 -7.832,0.804 c 0.309,2.472 2.157,3.397 4.123,3.402 h 5.02 c 0.715,0 1.189,0.483 1.189,1.169 v 1.006 H 28.425 C 24.933,44.476 22,42.203 22,37.553 c 0,-3.965 2.774,-6.664 6.713,-6.664 2.83,0 5.128,1.729 5.753,4.336 0.376,1.585 -0.478,2.669 -2.282,2.87 M 30.74,36.319 c 0.633,-0.07 1.1,-0.189 1.328,-0.418 0.229,-0.228 0.205,-0.697 0.05,-1.053 -0.479,-1.125 -1.778,-1.946 -3.435,-1.946 -2.534,0 -4.326,1.632 -4.326,4.131 0,0 6.067,-0.678 6.38,-0.714"></path>

</svg>
