<?xml version="1.0"?>

<svg xmlns="http://www.w3.org/2000/svg" viewBox="0 0 207 42.4" width="207" height="42.4">
 
  <path d="m 193.9,11.3 c 0.5,0 0.9,0.2 1.3,0.5 0.4,0.4 0.5,0.8 0.5,1.3 0,0.5 -0.1,0.9 -0.5,1.3 -0.3,0.4 -0.8,0.5 -1.3,0.5 -0.5,0 -0.9,-0.1 -1.3,-0.5 -0.3,-0.4 -0.5,-0.8 -0.5,-1.3 0,-0.5 0.2,-0.9 0.5,-1.3 0.4,-0.3 0.8,-0.5 1.3,-0.5 z m 2.1,1.8 c 0,-0.6 -0.2,-1.1 -0.6,-1.5 -0.4,-0.4 -0.9,-0.6 -1.5,-0.6 -0.6,0 -1.1,0.2 -1.5,0.6 -0.4,0.4 -0.6,0.9 -0.6,1.5 0,0.6 0.2,1.1 0.6,1.5 0.4,0.4 0.9,0.6 1.5,0.6 0.6,0 1.1,-0.2 1.5,-0.6 0.4,-0.4 0.6,-0.9 0.6,-1.5 z m -1.5,-0.4 c 0,0.1 -0.1,0.2 -0.3,0.3 -0.1,0 -0.2,0.1 -0.4,0.1 l -0.4,0 0,-0.9 0.4,0 c 0.2,0 0.4,0.1 0.5,0.1 0.1,0.1 0.2,0.2 0.2,0.4 z m -1.5,-0.8 0,2.4 0.4,0 0,-0.9 0.3,0 c 0.3,0 0.5,0 0.5,0 0.2,0.1 0.3,0.3 0.3,0.6 l 0,0.1 0,0.1 c 0,0 0,0 0,0 0,0 0,0.1 0,0.1 l 0.4,0 0,-0.1 c -0.1,0 -0.1,0 -0.1,-0.1 0,-0.1 0,-0.1 0,-0.2 l 0,-0.1 c 0,-0.1 -0.1,-0.3 -0.1,-0.4 -0.1,-0.1 -0.2,-0.2 -0.4,-0.2 0.2,0 0.3,-0.1 0.3,-0.1 0.2,-0.1 0.3,-0.3 0.3,-0.5 0,-0.3 -0.2,-0.5 -0.4,-0.6 -0.2,0 -0.3,-0.1 -0.6,-0.1 l -0.9,0 z m -138.34,10.9 0,-3.6 -6.68,0 3.44,-5.7 -3.09,-1.9 -3.54,5.9 -3.53,-5.9 -3.09,1.9 3.44,5.7 -6.69,0 0,3.6 6.69,0 -3.44,5.8 3.09,1.8 3.53,-5.9 3.54,5.9 3.09,-1.8 -3.44,-5.8 z m 73.74,-8.3 -1.3,-2.2 c -0.5,-0.6 -1.3,-1.1 -2.1,-1.1 l -1,0 -1,0 c -0.8,0 -1.6,0.5 -2,1.1 l -0.8,1.3 -10.6,17.8 4.9,0 2.5,-4 13.4,0 2.6,4 5.6,0 -10.2,-16.9 z m -9.3,9 4.7,-8.1 4.6,8.1 -9.3,0 z m 49.2,5.9 c 0,0 -0.1,0.8 0.4,1.4 0.5,0.6 1.8,0.5 1.8,0.5 l 19.8,0 0,-3.8 -17.1,0 0,-4.6 11.4,0 0,-3.6 -11.4,0 0,-4.5 16.6,0 0,-3.6 -19.3,0 c 0,0 -1.3,-0.1 -1.9,0.5 -0.4,0.6 -0.3,1.5 -0.3,1.5 l 0,16.2 z m -28.4,-18.2 13,0 c 7.9,0 12.2,3.4 12.2,10 0,4 -1.8,6.7 -4.8,8.5 -2.1,1.3 -4.9,1.6 -8.7,1.6 l -11.7,0 0,-20.1 z m 11,16.1 c 6.3,0 9.3,-0.9 9.3,-6.1 0,-4.4 -2.6,-6.2 -7.2,-6.2 l -8.2,0 0,12.3 6.1,0 z m -66.78,-16.1 18.18,0 c 3.3,0 4.8,1.2 4.8,4.1 l 0,4.5 c 0,3 -1.5,4.2 -4.8,4.2 l -0.9,0 7.2,7.3 -5.6,0 -6.4,-7.3 -7.64,0 0,7.3 -4.84,0 0,-20.1 z m 4.84,3.7 0,5.4 11.14,0 c 1.6,0 2.2,-0.3 2.2,-1.7 l 0,-2 c 0,-1.4 -0.6,-1.7 -2.2,-1.7 l -11.14,0 z m -18.49,16.4 -4.92,0 0,-16.3 -9.76,0 0,-3.8 24.49,0 0,3.8 -9.81,0 0,16.3 z m -37.5,0 0,-3.8 -17.01,0 0,-4.6 11.44,0 0,-3.7 -11.44,0 0,-4.4 16.64,0 0,-3.6 -19.39,0 c 0,0 -1.3,-0.1 -1.81,0.5 -0.51,0.6 -0.39,1.4 -0.39,1.4 l 0,16.2 c 0,0 -0.13,0.9 0.39,1.5 0.51,0.6 1.81,0.5 1.81,0.5 l 19.74,0 z"></path>
 
</svg>
