<?xml version="1.0"?>
<!--?xml version="1.0" encoding="UTF-8" standalone="no"?-->
<svg xmlns:dc="http://purl.org/dc/elements/1.1/" xmlns:cc="http://creativecommons.org/ns#" xmlns:rdf="http://www.w3.org/1999/02/22-rdf-syntax-ns#" xmlns:svg="http://www.w3.org/2000/svg" xmlns="http://www.w3.org/2000/svg" id="svg837" version="1.2" viewBox="0 0 206.08 66.785" height="66.785pt" width="206.08pt">
  <defs id="defs256"></defs>
  <path d="m 5,31.065 v 0.48 h 67.08 v -0.96 H 5 v 0.48 m 95.04,0.72 0.24,-3.6 0.96,-3.12 1.44,-3 2.16,-2.64 2.28,-2.4 2.64,-2.16 2.88,-1.92 2.88,-1.68 3,-1.4399 2.88,-1.2 2.64,-1.2 2.52,-0.72 1.92,-0.84 1.68,-0.48 1.2,-0.12 h 0.48 -0.96 l -1.44,0.12 -2.28,0.48 -2.64,0.6 -2.88,0.96 -3.12,0.96 -3.48,1.2 -3.36,1.6799 -3.36,1.92 -3.24,2.16 -2.88,2.4 -2.64,2.76 -2.28,3.12 -1.44,3.36 -0.96,3.84 -0.24,4.44 h 73.44 l -0.48,3.36 -0.72,3.12 -1.68,2.88 -2.04,2.64 -2.4,2.52 -2.64,2.16 -2.64,1.92 -3,1.68 -2.88,1.68 -2.88,1.2 -2.76,0.96 -2.4,0.96 -1.92,0.72 -1.68,0.36 -1.2,0.36 h -0.48 0.96 c 13.94,-2.6 33.68,-9.7 35.88,-25.92 l 0.24,-4.08 h -73.32 m 6,30 h -0.48 l -0.96,-0.36 -1.92,-0.6 -2.16,-0.48 -3,-0.96 -3.12,-1.2 -3.12,-1.44 -3.48,-1.68 C 83.06,52.735 76.18,47.375 74,42.465 l -1.44,-3.36 -0.84,-3.84 0.24,-4.2 h -5.04 l 0.24,4.56 0.96,4.2 1.68,3.6 2.52,3.12 2.88,2.88 3.12,2.76 3.36,1.92 c 7.29,4.15 15.44,6.28 23.64,7.68 h 0.72 m 6.6,0 h -0.72 l -1.56,-0.24 -2.16,-0.48 -2.64,-0.48 -3,-0.96 -3.36,-0.72 -3.36,-1.44 -3.48,-1.44 c -5.6,-2.48 -12.39,-6.11 -15.48,-11.64 l -1.68,-3.12 -1.2,-3.6 -0.48,-4.2 0.48,-4.08 1.2,-3.6 1.92,-3.36 2.4,-3 3,-2.64 3.36,-2.4 3.36,-1.92 3.72,-1.68 3.36,-1.4399 3.6,-1.2 3.24,-0.96 2.88,-0.72 2.4,-0.84 1.92,-0.24 1.2,-0.12 h 0.6 -0.6 l -1.2,0.12 c -5.04,1.64 -10.72,3.4 -15.24,6.1199 l -3,1.68 -2.88,2.16 c -5.57,4.07 -10.74,10.85 -10.2,18.12 l 0.24,3.72 0.96,3.6 1.68,3.12 2.28,2.64 2.4,2.76 2.64,2.4 2.88,1.92 3.24,1.92 3.12,1.44 2.88,1.44 3,0.96 2.4,0.96 2.52,0.72 1.68,0.36 1.2,0.36 h 0.48 m 6.24,0 h -0.96 c -13.72,-2.74 -33.22,-9 -36.96,-24.36 l -0.48,-3.96 0.48,-3.84 1.2,-3.6 1.8,-3.36 2.16,-3 2.88,-2.28 3,-2.52 6.72,-3.84 3.48,-1.4399 3.36,-1.2 3.12,-0.96 3,-0.96 2.64,-0.6 1.92,-0.48 1.44,-0.12 h 0.72 -0.72 l -1.44,0.12 c -3.77,1.12 -8.69,3.09 -12.12,4.9199 l -3,1.44 -2.88,1.92 c -4.61,3.06 -9.05,7.52 -10.92,12.84 l -0.96,3.36 -0.48,3.6 0.48,3.72 c 2.76,14.48 18.99,21.43 31.8,24.6 h 0.72 m 6.84,0 h -1.44 C 111.36,59.505 90.52,51.755 87.8,37.185 l -0.48,-3.72 0.48,-3.6 0.96,-3.36 c 2.44,-5.71 7.41,-9.64 12.36,-13.08 l 3.48,-1.68 3.36,-1.68 c 4.76,-1.6699 9.42,-3.7499 14.4,-4.6799 l 1.92,-0.12 h 1.2 -1.44 l -1.68,0.36 -2.28,0.6 -2.4,0.6 -2.64,1.32 -2.64,1.2 -2.88,1.4399 -2.76,1.68 -2.64,1.92 -2.76,2.16 c -4.86,4.26 -8.77,10.24 -8.64,16.92 l 0.48,4.2 0.96,3.84 1.68,3.36 1.92,3.12 2.76,2.76 2.64,2.16 2.88,1.92 3.12,1.68 3,1.44 3.12,1.2 2.64,0.96 2.4,0.48 2.28,0.48 1.68,0.48 0.96,0.24 h 0.48 m 36,-56.5199 h 0.48 l 0.96,0.12 1.68,0.48 2.16,0.84 2.76,0.72 2.88,0.96 3.12,1.44 3.24,1.4399 c 6.02,3.11 9.93,5.61 14.04,11.16 l 1.44,2.88 1.2,3.12 0.24,3.6 h 5.16 l -0.72,-3.84 -1.44,-3.6 -2.28,-3.12 c -5.9,-8.81 -23.78,-15.2499 -34.2,-16.1999 h -0.72 m -6.36,0 h 0.72 l 1.44,0.12 2.28,0.24 2.64,0.84 2.88,0.72 3.24,0.96 3.6,1.2 3.36,1.4399 3.6,1.68 3.48,2.16 3.12,2.16 3,2.64 2.4,3 1.68,3.36 1.2,3.6 0.48,4.08 -0.48,4.2 -1.2,3.6 -1.92,3.36 -2.52,3 -2.88,2.64 -6.72,4.32 -3.72,1.68 -3.6,1.44 c -4.74,1.83 -9.27,2.76 -14.16,3.84 l -1.2,0.24 h -0.24 0.48 c 11.29,-2.88 22.91,-7.98 29.76,-17.88 l 1.68,-3.12 0.96,-3.6 0.24,-3.72 c 0.57,-7.45 -4.74,-13.8 -10.2,-18.12 l -3.24,-2.16 -2.88,-1.68 C 167.8,8.6351 162.36,7.0551 157.04,5.3851 l -1.2,-0.12 h -0.48 m -6.24,0 h 0.6 l 1.56,0.12 2.16,0.48 2.4,0.6 3.24,0.72 3.12,0.96 6.72,2.8799 3.72,1.68 3.12,1.92 3.24,2.4 2.88,2.64 2.16,3 2.04,3.36 0.84,3.36 0.6,4.08 -0.6,3.96 -0.84,3.6 -2.04,3.12 -2.16,2.88 -2.88,2.76 -3,2.16 -3.36,2.16 -3.48,1.68 -6.72,2.88 -3.36,0.96 -3,0.72 -2.4,0.72 -1.92,0.48 -1.44,0.24 h -0.84 0.84 l 1.2,-0.36 c 3.68,-1.24 9.16,-2.84 12.36,-4.68 l 3,-1.68 2.88,-1.68 c 5,-3.56 8.35,-7.21 10.92,-12.84 l 0.96,-3.36 0.48,-3.72 -0.48,-3.84 -0.96,-3.36 c -1.92,-5.64 -6.48,-10.16 -11.52,-13.08 l -2.88,-1.92 -5.76,-2.8799 -3,-0.96 -2.4,-0.72 -2.16,-0.84 -1.92,-0.48 -1.32,-0.12 h -0.6 m -6.84,0 h 1.44 l 1.92,0.12 c 4.69,0.79 10.13,3.09 14.64,4.6799 l 3.36,1.68 3.24,1.68 c 5.25,3.08 9.71,7.48 12.24,13.08 l 1.08,3.36 0.48,3.6 -0.48,3.72 -1.08,3.36 c -2.26,5.44 -7.35,9.78 -12.24,12.84 l -3.48,1.92 -3.48,1.44 c -5.32,2.63 -8.81,3.16 -14.28,4.68 l -1.92,0.36 h -1.2 l 1.44,-0.24 1.68,-0.12 c 4.71,-1.82 8.35,-2.32 12.84,-5.4 l 2.76,-1.44 2.64,-2.16 c 3.95,-2.31 8.52,-8.07 10.2,-12.36 l 0.72,-3.12 0.48,-3.48 -0.48,-4.32 -0.96,-3.6 c -1.25,-4.66 -7.78,-11.59 -12.12,-13.56 l -3,-1.68 -3.12,-1.4399 c -4.25,-1.53 -7.45,-2.64 -11.88,-3.6 h -1.44 M 58.4,12.225 v -0.48 l -0.24,-0.48 v -0.72 l -0.24,-0.24 h -0.24 v -0.24 L 56.72,9.5851 h -0.24 c -1.08,-0.15 -2.04,0.16 -2.76,0.9599 v 1.2 l 0.24,0.24 0.6,0.48 0.72,0.24 3.84,0.96 1.92,0.96 1.08,0.48 0.84,0.48 0.6,0.72 0.48,0.96 0.24,1.32 v 1.08 l -0.48,2.04 -0.48,1.44 -1.2,1.2 -1.32,1.2 -1.44,0.72 -1.68,0.72 -1.92,0.24 -2.04,0.24 -2.64,-0.24 -2.16,-0.48 -1.44,-0.96 -1.2,-1.2 -0.96,-1.2 -0.48,-1.44 -0.24,-1.44 v -1.56 h 6.72 v 0.72 l 0.36,0.36 v 0.84 l 0.24,0.6 0.36,0.24 0.24,0.24 0.6,0.24 h 0.6 l 0.6,0.24 h 0.48 l 0.48,-0.24 h 0.48 L 56,21.945 h 0.48 l 0.24,-0.24 v -0.24 l 0.24,-0.24 v -0.6 l -0.24,-0.96 -1.2,-0.72 -1.8,-0.12 -1.8,-0.6 -2.04,-0.96 -1.68,-1.2 -0.96,-1.92 v -2.64 l 0.24,-1.44 0.72,-1.4399 0.96,-1.2 1.2,-0.96 1.32,-0.84 1.68,-0.36 1.68,-0.24 h 1.92 c 3.64,-0.16 6.76,0.35 7.8,4.32 l 0.24,1.1999 0.24,1.68 H 58.4 M 75.92,5.6251 71.12,26.985 H 63.8 L 68.6,5.6251 h 7.32 m -27.48,0 H 29.72 l -1.2,5.6399 h 5.64 l -3.48,15.72 h 7.08 l 3.6,-15.72 h 5.88 l 1.2,-5.6399 m -19.68,0 -1.2,5.6399 H 16.64 l -0.48,2.4 h 9.24 l -1.2,4.56 h -9 l -0.72,3.24 h 10.68 l -1.2,5.52 h -18 l 4.8,-21.3599 h 18" id="path298"></path>
  <metadata id="metadata4996">
    <rdf:rdf>
      <cc:work rdf:about="">
        <dc:title></dc:title>
      </cc:work>
    </rdf:rdf>
  </metadata>
</svg>
