<?xml version="1.0" encoding="UTF-8" standalone="no"?>
<svg
   xmlns:dc="http://purl.org/dc/elements/1.1/"
   xmlns:cc="http://creativecommons.org/ns#"
   xmlns:rdf="http://www.w3.org/1999/02/22-rdf-syntax-ns#"
   xmlns:svg="http://www.w3.org/2000/svg"
   xmlns="http://www.w3.org/2000/svg"
   viewBox="0 0 627.68842 223.2637"
   height="223.2637"
   width="627.68842"
   xml:space="preserve"
   version="1.1"
   id="svg8471"><metadata
     id="metadata8477"><rdf:RDF><cc:Work
         rdf:about=""><dc:format>image/svg+xml</dc:format><dc:type
           rdf:resource="http://purl.org/dc/dcmitype/StillImage" /><dc:title></dc:title></cc:Work></rdf:RDF></metadata><defs
     id="defs8475"><linearGradient
       id="linearGradient8493"
       spreadMethod="pad"
       gradientTransform="matrix(0,167.18256,-167.18256,0,301.28711,32.825082)"
       gradientUnits="userSpaceOnUse"
       y2="0"
       x2="1"
       y1="0"
       x1="0"><stop
         id="stop8495"
         offset="0"
         style="stop-opacity:1;stop-color:#f28622" /><stop
         id="stop8497"
         offset="0.7776"
         style="stop-opacity:1;stop-color:#ee6024" /><stop
         id="stop8499"
         offset="1"
         style="stop-opacity:1;stop-color:#ee6024" /></linearGradient><linearGradient
       id="linearGradient8515"
       spreadMethod="pad"
       gradientTransform="matrix(0,-28,-28,0,463.8,315.1)"
       gradientUnits="userSpaceOnUse"
       y2="0"
       x2="1"
       y1="0"
       x1="0"><stop
         id="stop8517"
         offset="0"
         style="stop-opacity:1;stop-color:#f28622" /><stop
         id="stop8519"
         offset="0.7776"
         style="stop-opacity:1;stop-color:#ee6024" /><stop
         id="stop8521"
         offset="1"
         style="stop-opacity:1;stop-color:#ee6024" /></linearGradient><linearGradient
       id="linearGradient8537"
       spreadMethod="pad"
       gradientTransform="matrix(0,-28,-28,0,466.3,315.1)"
       gradientUnits="userSpaceOnUse"
       y2="0"
       x2="1"
       y1="0"
       x1="0"><stop
         id="stop8539"
         offset="0"
         style="stop-opacity:1;stop-color:#f28622" /><stop
         id="stop8541"
         offset="0.7776"
         style="stop-opacity:1;stop-color:#ee6024" /><stop
         id="stop8543"
         offset="1"
         style="stop-opacity:1;stop-color:#ee6024" /></linearGradient><clipPath
       id="clipPath8551"
       clipPathUnits="userSpaceOnUse"><path
         id="path8553"
         d="M 0,600 800,600 800,0 0,0 0,600 Z" /></clipPath></defs><g
     transform="matrix(4.33,0,0,-4.33,-1418,1411)"
     id="g8525"><g
       id="g8527"><g
         id="g8533"><g
           id="g8535"><path
             d="m 467,314.4 c -0.1,0 -0.1,0 -0.2,-0.2 l 0,0 -0.5,-1.2 -0.6,1.2 c -0.1,0.2 -0.1,0.2 -0.2,0.2 l 0,0 -0.1,0 c -0.2,0 -0.2,-0.1 -0.2,-0.2 l 0,0 0,-2 c 0,-0.1 0,-0.1 0.1,-0.1 l 0,0 0.1,0 c 0.1,0 0.1,0 0.1,0.1 l 0,0 0,1.7 0.5,-1.1 c 0.1,-0.1 0.1,-0.2 0.3,-0.2 l 0,0 c 0.1,0 0.1,0.1 0.2,0.2 l 0,0 0.5,1.1 0,-1.7 c 0,-0.1 0,-0.1 0.2,-0.1 l 0,0 0,0 c 0.1,0 0.2,0 0.2,0.1 l 0,0 0,2 c 0,0.1 -0.1,0.2 -0.3,0.2 l 0,0 -0.1,0 z m -4,0 c -0.1,0 -0.2,0 -0.2,-0.1 l 0,0 0,-0.1 c 0,-0.1 0.1,-0.1 0.2,-0.1 l 0,0 0.7,0 0,-1.9 c 0,-0.1 0,-0.1 0.1,-0.1 l 0,0 0.1,0 c 0.1,0 0.1,0 0.1,0.1 l 0,0 0,1.9 0.7,0 c 0.1,0 0.1,0 0.1,0.1 l 0,0 0,0.1 c 0,0.1 0,0.1 -0.1,0.1 l 0,0 -1.7,0 z m -125.7,6.3 c -2.6,0 -4.7,-2.6 -4.7,-6 l 0,-29.4 c 0,-3.4 2.1,-6 4.7,-6 l 0.1,0 119.4,5.1 c 2.6,0.1 4.8,2.3 4.8,4.8 l 0,21.6 c 0,2.5 -2.2,4.7 -4.8,4.8 l -119.3,5.1 -0.2,0 z m 95.5,-11.5 c 1.2,0 1.9,-0.6 1.9,-1.5 0,-1.1 -0.8,-2 -2,-2 -1.2,0 -1.9,0.6 -1.9,1.5 0,1.2 0.8,2 2,2 z m -25.2,0 0.4,0 c 0.9,0 1.8,-0.4 1.5,-1.7 l -1.1,-5.3 c 0.8,1.2 2.1,2 3.8,2 2.5,0 4.6,-1.8 4.6,-5.1 0,-3.8 -2.4,-7.4 -6.2,-7.4 -1.7,0 -3.3,0.8 -4,2.3 -0.5,-1.5 -1.2,-2.1 -2.6,-2.1 -0.6,0 -1.2,0.3 -1.2,0.4 l 3.2,15.2 c 0.3,1.3 0.7,1.7 1.6,1.7 z m -62.4,0 8.7,0 c 1,0 1.6,-0.4 1.6,-1.1 0,-0.4 -0.2,-1.3 -0.6,-1.7 -0.3,-0.3 -0.6,-0.4 -1.4,-0.4 l -7.2,0 -0.8,-3.8 5.3,0 c 0.9,0 1.4,-0.4 1.4,-1 0,-0.4 -0.1,-1.2 -0.5,-1.6 -0.2,-0.2 -0.6,-0.4 -1.3,-0.4 l -5.6,0 -0.8,-4.2 7.1,0 c 1,0 1.5,-0.4 1.5,-1 0,-0.4 -0.2,-1.3 -0.6,-1.7 -0.2,-0.3 -0.6,-0.4 -1.4,-0.4 l -8.6,0 c -1.5,0 -2.1,0.8 -1.8,2.3 l 2.8,13.1 c 0.2,1.3 1,1.9 2.2,1.9 z m 54,-2.2 c 0.8,0 1.3,-0.3 1.3,-0.4 l -0.6,-2.8 2,0 c 0.8,0 1.3,-0.3 1.3,-0.9 0,-0.3 -0.1,-1.1 -0.5,-1.4 -0.2,-0.2 -0.5,-0.4 -1.2,-0.4 l -2.2,0 -1,-4.9 c -0.4,-1.4 0.1,-2 1.1,-2 0.6,0 1.1,0.3 1.4,0.6 0.1,0.1 0.6,-0.3 0.6,-1 0,-0.6 -0.2,-1 -0.6,-1.4 -0.5,-0.5 -1.4,-0.8 -2.5,-0.8 -2.8,0 -4,1.6 -3.4,4.5 l 1.1,5 -0.6,0 c -0.8,0 -1.3,0.4 -1.3,0.9 0,0.4 0.2,1.1 0.5,1.5 0.3,0.2 0.5,0.3 1.2,0.3 l 0.7,0 0.2,0.7 c 0.3,1.8 1,2.5 2.5,2.5 z m 40.9,0 c 0.8,0 1.3,-0.3 1.3,-0.4 l -0.6,-2.8 2,0 c 0.9,0 1.3,-0.3 1.3,-0.9 0,-0.3 -0.1,-1.1 -0.5,-1.4 -0.2,-0.2 -0.5,-0.4 -1.2,-0.4 l -2.2,0 -1,-4.9 c -0.4,-1.4 0.1,-2 1.1,-2 0.6,0 1.1,0.3 1.4,0.6 0.1,0.1 0.6,-0.3 0.6,-1 0,-0.6 -0.2,-1 -0.6,-1.4 -0.5,-0.5 -1.4,-0.8 -2.5,-0.8 -2.8,0 -4,1.6 -3.4,4.5 l 1.1,5 -0.6,0 c -0.8,0 -1.3,0.4 -1.3,0.9 0,0.4 0.2,1.1 0.5,1.5 0.3,0.2 0.5,0.3 1.2,0.3 l 0.7,0 0.2,0.7 c 0.3,1.8 1,2.5 2.5,2.5 z M 426,304.2 c 1.2,0 2.2,-0.7 2.2,-1.7 0,-1.7 -1.5,-2.2 -1.6,-2.2 -0.3,0.4 -0.8,0.7 -1.6,0.7 -1.6,0 -2.6,-1.7 -3.1,-4.2 l -0.7,-3.3 c -0.3,-1.2 -0.7,-1.6 -1.6,-1.6 l -0.3,0 c -1,0 -1.8,0.3 -1.5,1.6 l 2.1,10.3 c 0.1,0.1 0.5,0.2 1,0.2 1,0 1.9,-0.5 1.9,-2.1 0.7,1.4 1.8,2.3 3.2,2.3 z m -37.6,-0.1 c 2.5,0 3.9,-1.6 3.9,-3.8 0,-0.9 -0.3,-2.1 -0.7,-3.5 -0.4,-1.2 -0.6,-2.2 -0.6,-2.7 0,-0.7 0.3,-0.9 1,-1 0,0 -0.2,-1.4 -2.1,-1.4 -1.6,0 -2.4,0.8 -2.4,2.1 0,0.7 0.2,1.6 0.6,2.9 0.3,1.1 0.6,2.1 0.6,2.6 0,1.2 -0.7,1.9 -2,1.9 -1.2,0 -2,-0.5 -2.7,-1.7 l -1.3,-6.1 c -0.3,-1.2 -0.7,-1.6 -1.6,-1.6 l -0.3,0 c -1,0 -1.8,0.4 -1.5,1.6 l 2.1,10.3 c 0.1,0.1 0.5,0.2 1,0.2 1,0 1.9,-0.5 1.9,-2.1 1,1.4 2.3,2.3 4.1,2.3 z m -14.3,0 c 3,0 4.7,-1.4 4.7,-3.5 0,-2.4 -1.6,-3.9 -6.9,-3.9 -0.7,0 -1.5,0 -2.4,0.1 l 0,-0.1 c 0,-1.6 1,-2.7 2.9,-2.7 1.6,0 2.7,0.7 3.5,1.8 0,0 1.5,-0.2 1.5,-1.3 0,-0.7 -0.2,-1 -0.7,-1.5 -0.9,-0.9 -2.3,-1.4 -4.4,-1.4 -3.9,0 -5.7,2.1 -5.8,5.1 0,0 0,0 0,0 0,0 0,0 0,0 0.1,4.3 3.4,7.4 7.6,7.4 z m 77.5,0 c 3,0 4.7,-1.4 4.7,-3.5 0,-2.4 -1.6,-3.9 -6.9,-3.9 -0.7,0 -1.5,0 -2.4,0.1 l 0,-0.1 c 0,-1.6 1,-2.7 2.9,-2.7 1.6,0 2.7,0.7 3.5,1.8 0,0 1.5,-0.2 1.5,-1.3 0,-0.7 -0.2,-1 -0.7,-1.5 -0.9,-0.9 -2.3,-1.4 -4.4,-1.4 -3.9,0 -5.7,2.1 -5.8,5.1 0,0 0,0 0,0 0,0 0,0 0,0 0.1,4.3 3.4,7.4 7.6,7.4 z m -95.5,0 c 0.7,0 1.2,-0.2 1.7,-0.7 0.7,-0.6 1,-1.7 1.1,-3.4 l 0.4,-4.4 4.9,8.5 c 0,0 2.3,-0.1 2.3,-1.7 0,-0.6 -0.2,-1 -0.7,-1.8 l -5,-7.7 c -0.6,-0.9 -1.5,-1.1 -2.2,-1.1 -0.9,0 -1.8,0.3 -1.9,1.3 l -1,6.8 c -0.2,1.9 -0.8,2.3 -1.8,2.4 0,0 0.2,1.8 2.2,1.8 z m 75.3,-0.1 0.4,0 c 0.9,0 1.8,-0.4 1.5,-1.7 l -1.6,-7.4 c -0.3,-1.3 0,-1.8 1,-2 0,0 -0.2,-1.2 -2,-1.2 -2.3,0 -2.8,1.4 -2.4,3.3 l 1.6,7.3 c 0.2,1.3 0.7,1.7 1.5,1.7 z m -57.5,-2.2 c -1.8,0 -3.3,-1.3 -4,-2.9 0.6,0 1.2,-0.1 1.7,-0.1 3.3,0 4.3,0.8 4.3,1.7 0,0.6 -0.7,1.3 -2,1.3 z m 77.5,0 c -1.8,0 -3.3,-1.3 -4,-2.9 0.6,0 1.2,-0.1 1.7,-0.1 3.3,0 4.3,0.8 4.3,1.7 0,0.6 -0.7,1.3 -2,1.3 z M 411,301.5 c -1.3,0 -2.5,-0.8 -3.2,-1.9 l -0.4,-1.7 c -0.3,-1.9 0.7,-3.5 2.7,-3.5 2.2,0 3.4,2.1 3.4,4.2 0,1.8 -1.1,2.9 -2.5,2.9 z"
             id="path8545" /></g></g></g></g></svg>