<?xml version="1.0"?>
<!--?xml version="1.0" encoding="UTF-8" standalone="no"?-->
<svg xmlns="http://www.w3.org/2000/svg" viewBox="0 0 1077 361" height="361" width="1077"> <path d="m 930.783,274.933 c 0,-14.013 6.946,-23.434 18.188,-25.92 -16.029,-6.975 -18.188,-20.299 -18.188,-33.527 l 0,-14.975 c 0,-31.632 19.354,-39.853 43.073,-39.853 l 34.914,0 c 26.052,0 39.857,11.003 39.857,39.984 l 0,12.312 c 0.107,5.701 -1.57,24.032 -17.273,26.728 14.341,2.68 17.381,21.665 17.273,31.564 l 0,19.804 c 0,34.142 -21.165,39.411 -40.087,39.411 l -34.685,0 c -41.907,0 -43.073,-26.291 -43.073,-38.647 l 0,-16.881 z m 47.642,-44.007 23.073,0 c 13.143,0 14.875,-6.764 14.875,-14.286 l 0,-10.86 c 0,-13.751 -5.921,-16.687 -15.08,-16.687 l -21.721,0 c -10.438,0 -16.533,1.53 -16.533,16.687 l 0,10.861 c 0,11.885 7.555,14.285 15.386,14.285 z m 1.147,71.083 21.622,0 c 10.033,0 15.179,-4.763 15.179,-13.813 l 0,-15.953 c 0,-9.206 -5.115,-14.36 -14.625,-14.36 l -23.323,0 c -10.087,0 -15.386,4.5 -15.386,14.36 l 0,15.953 c 0,9.506 4.524,13.813 16.533,13.813 z m -126.658,-95.04 c 11.984,0 36.158,0.706 56.343,7.248 l 0,20.043 c 0,0 -22.017,-1.371 -42.526,-1.371 -14.841,0 -21.875,0.882 -21.875,36.952 0,31.32 5.291,35.853 21.875,35.853 21.198,0 44.131,-2.155 44.131,-2.155 l 0,20.248 c -17.895,9.103 -38.82,7.601 -57.947,7.828 -22.8,0 -40.323,-11.93 -40.323,-62.451 -10e-4,-50.407 16.822,-62.195 40.322,-62.195 z m -92.613,-37.447 c 0,-3.459 1.844,-5.757 5.518,-5.757 l 24.197,0 c 3.459,0 5.172,2.532 5.172,5.757 l 0,20.424 c 0,3.454 -1.943,5.297 -5.172,5.297 l -24.197,0 c -3.213,0 -5.518,-2.07 -5.518,-5.297 l 0,-20.424 z m 1.158,38.59 32.266,0 0,122.349 -32.266,0 0,-122.349 z m -95.446,0 27.194,0 5.069,15.44 c 8.474,-8.187 19.881,-16.692 35.091,-16.692 5.291,0 10.372,0.204 13.632,1.457 l 0,31.143 c -3.26,-0.313 -10.741,-0.632 -17.688,-0.632 -13.346,0 -23.061,2.185 -31.034,13.621 l 0,78.012 -32.264,0 0,-122.349 z m -128.108,-58.526 32.049,0 0,64.63 c 11.21,-5.103 26.793,-7.947 37.163,-7.947 33.902,0 39.943,25.55 39.943,63.595 0,37.105 -9.836,61.979 -39.943,61.979 -14.525,0 -29.29,-7.556 -36.934,-13.706 l -5.736,12.324 -26.542,0 0,-180.875 z m 60.849,154.682 c 10.412,0 16.051,-8.387 16.051,-35.667 0,-31.234 -5.879,-37.043 -16.051,-37.043 -11.156,0 -20.142,1.332 -28.57,4.603 l 0,60.562 c 6.878,4.438 16.455,7.545 28.57,7.545 z M 414.729,287.757 c 0,-17.796 9.617,-33.561 35.854,-33.561 0,0 35.941,0.239 35.941,0 0,0 0.229,-7.601 0,-7.829 0,-13.057 -6.106,-15.104 -16.355,-15.104 -10.633,0 -41.328,1.917 -51.383,2.639 l 0,-19.912 c 16.105,-6.259 32.932,-8.079 55.743,-8.176 26.345,-0.113 44.251,8.995 44.251,39.273 l 0,85.374 -25.475,0 -6.781,-13.479 c -1.352,2.663 -18.526,15.242 -37.215,14.86 -23.545,-0.632 -34.58,-16.658 -34.58,-32.57 l 0,-11.515 z m 43.705,18.166 c 13.5,0 28.09,-9.473 28.09,-9.473 l 0,-22.433 -29.604,2.293 c -8.518,0.796 -9.924,7.106 -9.924,12.454 l 0,5.94 c -10e-4,10.171 5.506,11.219 11.438,11.219 z m -135.4,-93.897 19.17,-3.914 0,-22.813 c 0,-20.937 8.417,-35.939 36.071,-35.939 11.298,0 20.839,1.439 30.871,5.53 l 0,19.145 c -0.229,0 -22.006,-0.228 -22.006,-0.228 -12.977,-0.228 -12.671,6.27 -12.671,19.093 l 0,15.213 27.763,0 0,24.657 -27.763,0 0,97.691 -32.265,0 0,-97.691 -19.17,0 0,-20.744 z m -60.65,-84.182 c -0.659,0 -1.19,-0.532 -1.19,-1.19 l 0,-41.393 c 0,-0.659 0.531,-1.19 1.19,-1.19 0.654,0 1.19,0.532 1.19,1.19 l 0,41.392 c 0,0.659 -0.536,1.191 -1.19,1.191 z m 0,-1.191 0,-41.391998 M 252.64,127.844 c -0.655,0 -1.191,-0.532 -1.191,-1.19 l 0,-41.393 c 0,-0.659 0.536,-1.19 1.191,-1.19 0.658,0 1.189,0.532 1.189,1.19 l 0,41.392 c 0,0.659 -0.531,1.191 -1.189,1.191 z m 0,-1.191 0,-41.391998 M 242.902,127.844 c -0.659,0 -1.19,-0.532 -1.19,-1.19 l 0,-41.393 c 0,-0.659 0.531,-1.19 1.19,-1.19 0.659,0 1.19,0.532 1.19,1.19 l 0,41.392 c 10e-4,0.659 -0.53,1.191 -1.19,1.191 z m -10e-6,-1.191 0,-41.391998 M 223.421,127.844 c -0.658,0 -1.189,-0.532 -1.189,-1.19 l 0,-41.393 c 0,-0.659 0.531,-1.19 1.189,-1.19 0.655,0 1.191,0.532 1.191,1.19 l 0,41.392 c 0,0.659 -0.536,1.191 -1.191,1.191 z m 1e-5,-1.191 0,-41.391998 M 233.158,127.844 c -0.655,0 -1.187,-0.532 -1.187,-1.19 l 0,-41.393 c 0,-0.659 0.531,-1.19 1.187,-1.19 0.659,0 1.19,0.532 1.19,1.19 l 0,41.392 c 10e-4,0.659 -0.531,1.191 -1.19,1.191 z m 0,-1.191 0,-41.391998 m -21.69,-8.048002 0,57.5 63.115,0 0,-57.5 -63.115,0 z m 57.769,52.154 -52.42,0 0,-46.808 52.42,0 0,46.808 z M 178.301,67.832 c -0.659,0 -1.19,-0.531 -1.19,-1.187 l 0,-41.395 c 0,-0.655 0.531,-1.19 1.19,-1.19 0.659,0 1.19,0.535 1.19,1.19 l 0,41.396 c 0,0.654 -0.531,1.186 -1.19,1.186 z m -10e-6,-1.187003 0,-41.394997 M 168.557,67.832 c -0.655,0 -1.187,-0.531 -1.187,-1.187 l 0,-41.395 c 0,-0.655 0.531,-1.19 1.187,-1.19 0.659,0 1.19,0.535 1.19,1.19 l 0,41.396 c 0,0.654 -0.531,1.186 -1.19,1.186 z m 1e-5,-1.187003 0,-41.394997 M 158.82,67.832 c -0.655,0 -1.19,-0.531 -1.19,-1.187 l 0,-41.395 c 0,-0.655 0.535,-1.19 1.19,-1.19 0.659,0 1.191,0.535 1.191,1.19 l 0,41.396 c 0,0.654 -0.532,1.186 -1.191,1.186 z m 1e-5,-1.187003 0,-41.394997 M 139.339,67.832 c -0.659,0 -1.19,-0.531 -1.19,-1.187 l 0,-41.395 c 0,-0.655 0.531,-1.19 1.19,-1.19 0.655,0 1.19,0.535 1.19,1.19 l 0,41.396 c 0,0.654 -0.535,1.186 -1.19,1.186 z m 0,-1.187003 0,-41.394997 m 9.74,42.582 c -0.659,0 -1.19,-0.531 -1.19,-1.187 l 0,-41.395 c 0,-0.655 0.532,-1.19 1.19,-1.19 0.655,0 1.19,0.535 1.19,1.19 l 0,41.396 c 0.001,0.654 -0.535,1.186 -1.19,1.186 z m -1e-5,-1.187003 0,-41.394997 m -21.69299,-8.045 0,57.493 63.115,0 0,-57.493 -63.115,0 z m 57.769,52.15 -52.42,0 0,-46.805 52.42,0 0,46.805 z m -90.937,36.376 c -0.659,0 -1.19,-0.532 -1.19,-1.19 l 0,-41.389 c 0,-0.659 0.532,-1.19 1.19,-1.19 0.658,0 1.19,0.532 1.19,1.19 l 0,41.388 c 0.001,0.659 -0.531,1.191 -1.19,1.191 z m 2e-6,-1.19 0,-41.389 M 84.478,105.731 c -0.659,0 -1.19,-0.532 -1.19,-1.19 l 0,-41.389 c 0,-0.659 0.532,-1.19 1.19,-1.19 0.655,0 1.19,0.532 1.19,1.19 l 0,41.388 c 0,0.659 -0.535,1.191 -1.19,1.191 z m -3e-6,-1.19 0,-41.389 M 74.733,105.731 c -0.651,0 -1.19,-0.532 -1.19,-1.19 l 0,-41.389 c 0,-0.659 0.539,-1.19 1.19,-1.19 0.663,0 1.194,0.532 1.194,1.19 l 0,41.388 c 10e-4,0.659 -0.531,1.191 -1.194,1.191 z m 2e-6,-1.19 0,-41.389 M 55.256,105.731 c -0.659,0 -1.19,-0.532 -1.19,-1.19 l 0,-41.389 c 0,-0.659 0.532,-1.19 1.19,-1.19 0.659,0 1.19,0.532 1.19,1.19 l 0,41.388 c 0,0.659 -0.531,1.191 -1.19,1.191 z m 10e-7,-1.19 0,-41.389 M 64.997,105.731 c -0.659,0 -1.19,-0.532 -1.19,-1.19 l 0,-41.389 c 0,-0.659 0.532,-1.19 1.19,-1.19 0.655,0 1.19,0.532 1.19,1.19 l 0,41.388 c 0,0.659 -0.536,1.191 -1.19,1.191 z m 2e-6,-1.19 0,-41.389 M 43.303,55.096 l 0,57.5 63.116,0 0,-57.5 -63.116,0 z m 57.77,52.154 -52.42,0 0,-46.8 52.42,0 0,46.8 z m -53.29175,15.10742 c -4.022216,0.0557 -6.90625,1.83203 -6.90625,1.83203 l 5.259766,5.25977 c 0,0 1.752937,-4.55956 5.960937,-0.35156 4.211,4.208 -1.751906,10.86714 -3.503906,12.61914 -1.756,1.755 -5.612313,5.61093 -9.820313,4.21093 -4.211,-1.403 -0.351562,-10.16601 -0.351562,-10.16601 l -10.876953,-4.56055 c -3.856,3.86 -2.104016,13.32372 2.458984,17.88672 4.56,4.56 10.521485,6.3125 10.521485,6.3125 -10.523,10.523 9.466859,24.90045 16.130859,31.56445 6.112608,6.11353 27.258728,18.99105 41.275391,23.51758 3.645012,29.25976 5.669922,66.86133 5.669922,66.86133 3.968,0 14.55078,6.61719 14.55078,6.61719 0.24816,0.0741 0.49069,0.13604 0.73828,0.20898 -0.1856,8.08431 -0.79779,23.55237 -2.88672,37.47852 0,0 15.86975,4.96111 19.34375,10.91211 0,0 28.26645,-2.97738 32.73242,-1.98438 l 0,-9.42187 -13.39062,-5.95118 0.83984,-23.91796 c 9.13274,0.87212 17.51314,1.01009 24.97266,0.70898 0.38655,5.88158 0.66038,16.13411 -0.56445,29.62891 0,0 9.42631,4.46087 16.86133,9.42187 0,0 21.3292,-1.98419 26.7832,-0.99219 l 0,-7.4414 -12.89453,-7.4375 0,-27.17578 c 4.72656,-1.13344 7.3164,-2.0586 7.3164,-2.0586 5.99612,-20.60847 8.37843,-45.87199 9.32032,-63.91406 11.89786,-4.1166 29.03528,-14.61146 34.08789,-19.66406 5.668,-5.664 22.65979,-17.88708 13.71679,-26.83008 0,0 5.06741,-1.49319 8.94141,-5.36719 3.879,-3.878 5.36975,-11.92803 2.09375,-15.20703 l -9.24609,3.875 c 0,0 3.28121,7.45833 -0.30079,8.65235 -3.574,1.18999 -6.85365,-2.08999 -8.34765,-3.58399 -1.49,-1.49 -6.55547,-7.15254 -2.98047,-10.72851 3.579,-3.583 5.07031,0.29296 5.07031,0.29296 l 4.47266,-4.47461 c 0,0 -7.7552,-4.76932 -14.9082,2.38868 -7.154,7.157 -5.06641,14.01562 -5.06641,14.01562 l -27.73633,32.74609 c -9.57168,-6.09338 -19.12177,-10.87388 -28.46875,-14.59179 -1.82933,-15.73958 -18.14943,-28.05274 -38.01172,-28.05274 -14.64834,0 -27.36513,6.6973 -33.77148,16.52344 -16.89025,0.94415 -29.118949,4.11028 -33.687502,5.4668 L 64.369141,143.47266 c 0,0 2.457015,-8.06447 -5.958985,-16.48047 -3.683312,-3.68157 -7.500516,-4.67813 -10.628906,-4.63477 z m 7.865234,30.86133 c 0,0 -4.724906,14.99312 10.246094,28.20313 14.973,13.20996 29.226563,22.17968 29.226563,22.17968 -11.447,-2.639 -31.998172,-14.97183 -37.576172,-20.54883 -5.578,-5.578 -22.306953,-17.61592 -13.501953,-26.41992 0,0 8.374468,-0.18806 11.605468,-3.41406 z m 95.011716,5.38086 c -10.059,3.451 -13.08398,11.52734 -13.08398,11.52734 l -6.69531,0 c 9.55,-9.545 19.77929,-11.52734 19.77929,-11.52734 z m 15.30274,8.04883 c 1.19815,-0.0258 2.45051,0.0654 3.72851,0.28515 6.818,1.172 11.75244,5.56627 11.02344,9.82227 -0.046,0.26761 -0.11362,0.52802 -0.20117,0.78125 -8.50897,-2.29146 -16.7338,-3.79324 -24.51563,-4.68359 0.0116,-0.11407 0.0116,-0.22789 0.0312,-0.3418 0.58988,-3.45231 4.74161,-5.7514 9.9336,-5.86328 z m -63.92383,13.14062 c 7.72059,0.20007 13.18245,3.39717 16.98828,8.38672 15.45057,-0.16008 77.54493,0.0863 96.16797,13.94336 0,0 -43.39059,-11.99465 -92.31641,-7.05859 9.35506,22.93368 -0.42968,63.59961 -0.42968,63.59961 0,-80.346 -22.31836,-78.85938 -22.31836,-78.85938 0.65097,-0.0232 1.28671,-0.0278 1.9082,-0.0117 z m 54.46875,21.94141 c 17.49532,0.12906 35.11495,2.3842 52.50976,5.99414 5.558,1.224 9.5343,7.31544 9.0293,13.39844 -1.13,12.204 -2.26444,24.66175 -3.39844,37.34375 -0.427,5.418 -4.75096,10.51979 -9.79296,11.21679 -0.007,0 -0.0115,0.004 -0.0195,0.004 -19.294,2.475 -38.8279,2.47611 -58.1289,0.0371 -6.427,-0.865 -11.97941,-6.9223 -12.31641,-13.1543 -0.786,-13.589 -1.56751,-27.00447 -2.35351,-40.23047 -0.381,-6.825 4.68057,-13.23695 11.39257,-14.25195 0.325,-0.048 0.65424,-0.0777 0.99024,-0.0977 4.01981,-0.20625 8.05051,-0.28954 12.08789,-0.25976 z m -4.49805,6.5293 c -2.68833,-0.0135 -5.37481,0.0164 -8.05469,0.0918 -0.17599,0.007 -0.35143,0.0181 -0.52343,0.0371 -1.579,0.179 -3.00091,0.97417 -4.00391,2.20117 -1.059,1.296 -1.58323,2.98353 -1.49023,4.76954 0.786,13.66699 1.57133,27.49651 2.36133,41.47851 0.16499,3.141 3.09992,6.15477 6.41992,6.50977 5.4141,0.5575 10.84757,0.9424 16.28711,1.1875 -3.02797,-3.69204 -4.88672,-8.56713 -4.88672,-13.80078 -0.004,-15.319 10.2792,-21.87386 10.2832,-21.88086 -3.692,8.794 -0.34766,6.13457 -0.34766,6.14257 12.113,-6.488 7.04111,-21.89153 7.03711,-21.89453 17.512,13.113 5.00391,32.46911 5.00391,32.53711 -0.749,1 -1.19727,2.2875 -1.19727,3.6875 0,3.178 2.2951,5.73388 5.1211,5.67188 2.83,-0.064 5.12109,-2.68732 5.12109,-5.82032 -0.003,-0.996 -0.23262,-1.92042 -0.64062,-2.73242 l 0,-0.0937 c 2.20226,3.06941 5.48596,9.57979 0.26562,18.17188 5.37357,-0.24752 10.73917,-0.6316 16.08594,-1.1875 1.939,-0.209 3.71648,-2.38117 3.89648,-4.70117 0,-0.012 0.002,-0.0271 0.006,-0.0371 l 0,-0.0391 c 1.138,-13.015 2.26921,-25.84131 3.40821,-38.44531 0.127,-1.715 -0.34011,-3.39834 -1.28711,-4.65234 -0.453,-0.599 -1.21841,-1.35969 -2.31641,-1.55469 -18.73637,-3.34775 -37.73053,-5.55178 -56.54883,-5.64648 z m 20.61914,43.76562 c -1.47868,0 -6.10366,6.60927 -6.52148,12.62891 3.08348,0.10515 6.16673,0.17329 9.25195,0.17773 -0.10938,-0.61473 -0.28162,-1.23364 -0.56836,-1.83789 -1.779,-3.52 -2.16611,-10.96875 -2.16211,-10.96875 z m -38.9375,47.80273 c 2.314,3.63501 4.63086,19.17479 4.63086,19.17579 5.949,0 18.51172,2.97851 18.51172,2.97851 -6.278,0 -21.82031,1.65039 -21.82031,1.65039 l -1.32227,-23.80469 z m 64.45703,8.32422 3.13672,12.72852 c 9.924,0.004 16.04102,2.15234 16.04102,2.15234 -4.96,-0.662 -18.84961,0.33008 -18.84961,0.33008 l -0.32813,-15.21094 z"></path></svg>