<?xml version="1.0"?>
<!--?xml version="1.0" encoding="UTF-8" standalone="no"?-->
<svg xmlns="http://www.w3.org/2000/svg" viewBox="0 0 178.32 67.04" height="67.04" width="178.32">
    <path d="m 137.04,29.05 c -2.03,-0.54 -4.08,-0.54 -6.1,0 -3.03,0.81 -5.06,2.72 -5.71,5.77 -0.36,1.66 -0.43,3.43 -0.33,5.14 0.21,3.9 2.63,6.68 6.37,7.55 0.1,0 0.11,0 0.16,0 v 0 c 0,0 0,0 0,0 0.14,0 0.29,0.1 0.43,0.1 0.1,0 0.1,0 0.15,0 0,0 0,0 0,0 0.18,0 0.4,0.1 0.63,0.1 0.73,0.1 1.67,0.13 2.45,0 0,0 0,0 0,0 0,0 0.1,0 0.12,0 3.87,-0.2 6.8,-2.64 7.66,-6.38 0.47,-2.05 0.47,-4.11 0,-6.17 -0.72,-3.23 -2.68,-5.3 -5.89,-6.16 z m 0.25,11.28 c 0,0.12 0,0.24 -0.1,0.36 -0.39,1.72 -1.64,2.65 -3.31,2.58 -1.79,-0.1 -3.02,-1.13 -3.2,-2.92 -0.12,-1.31 -0.14,-2.64 0,-3.95 0.17,-2.07 1.46,-3.2 3.4,-3.16 1.59,0 2.73,0.93 3.13,2.47 0.38,1.53 0.11,4.27 0.1,4.62 z m 7.78,-20.41 v 27.52 h 5.84 v -8.42 l 5.38,8.43 h 6.19 l -5.84,-9.16 5.84,-9.12 h -6.19 l -5.38,8.41 V 20.04 19.92 19.21 Z M 82.9,38.89 c 0,-1.28 0,-2.56 -0.19,-3.82 -0.5,-3.44 -2.59,-5.62 -5.98,-6.19 -1.29,-0.22 -2.66,-0.19 -3.98,-0.1 -3.6,0.34 -6.33,2.58 -6.89,5.96 -0.34,2.05 -0.38,4.22 -0.11,6.27 0.41,3.09 1.92,5.06 4.52,6.01 0,0 0,0 0,0 0,0 0,0 0,0 0,0 0,0 0,0 1.19,0.36 7.01,1.88 12.13,-0.7 l -0.21,-0.75 c 0,0 0,0 0,0 -0.24,-1.01 -0.52,-2 -0.79,-3 v -0.1 c 0,0 -0.11,0 -0.3,0.1 0,0 0,0 0,0 -0.22,0.1 -0.45,0.13 -0.67,0.2 0,0 -0.1,0 -0.12,0 -0.78,0.22 -1.89,0.49 -3.06,0.64 -0.98,0.1 -1.98,0.1 -2.98,0 -1.63,-0.27 -2.87,-1.14 -2.81,-3.2 h 0.93 c 3.19,0 6.38,0 9.58,0 0.1,0 0.15,0 0.23,0 v 0 c 0,0 0.69,0 0.71,0 0,0 0,-0.18 0,-0.2 z m -5.25,-2.51 h -6.31 c 0,-1.25 0.19,-2.42 1.3,-3.13 1.18,-0.75 2.49,-0.78 3.71,-0.11 1.24,0.68 1.33,1.91 1.3,3.24 z m -12.72,9.73 c -0.25,-0.92 -0.54,-1.84 -0.82,-2.72 l -0.26,-0.98 c 0,0 -6.83,3.28 -7.89,-2.95 -0.1,-1.03 -0.1,-2.09 0.1,-3.1 0.27,-1.91 1.43,-2.94 3.29,-3.11 0.63,-0.1 1.28,0 1.9,0.1 0.85,0.14 1.67,0.4 2.6,0.63 0.32,-0.98 0.65,-1.96 0.96,-2.94 0.1,-0.15 0.1,-0.29 0.12,-0.4 v 0 l 0.15,-0.59 c 0,-0.1 -0.13,-0.16 -0.26,-0.24 0,0 0,0 0,0 -0.16,-0.13 -0.42,-0.24 -0.84,-0.39 -0.17,-0.1 -0.33,-0.12 -0.5,-0.17 -0.15,-0.1 -0.25,-0.1 -0.25,-0.1 v 0 c -1.79,-0.51 -3.63,-0.55 -5.5,-0.36 -3.94,0.42 -6.62,2.74 -7.36,6.58 -0.39,2.02 -0.37,4.07 0.1,6.09 0.67,3.03 2.51,5 5.5,5.87 1.95,0.57 3.95,0.6 5.94,0.29 0.84,-0.13 2.04,-0.56 2.9,-0.87 l 0.33,-0.12 -0.16,-0.52 z M 42.85,31.31 c -0.1,-0.1 -0.14,-0.15 -0.19,-0.21 v 0 c 0,0 0,0 0,0 -0.1,-0.1 -0.14,-0.14 -0.14,-0.14 v 0 c -1.31,-1.34 -1.81,-1.67 -2.84,-1.97 -3.96,-1.17 -7.82,0.91 -9.04,4.89 -0.75,2.45 -0.76,4.97 -0.32,7.45 0.95,5.37 4.94,7.17 9.2,6.28 1.31,-0.27 2.28,-1.09 3.18,-2.22 0,0 0.1,-0.1 0.18,-0.29 v 2.36 h 5.45 V 28.97 h -5.45 v 2.34 z m -0.48,9.29 c -0.18,1.71 -1.56,2.73 -3.2,2.67 -1.67,-0.1 -2.78,-0.96 -3.14,-2.57 -0.43,-2.28 0.1,-5 0.12,-5.22 0.44,-1.53 1.55,-2.29 3.19,-2.25 1.61,0 2.84,0.99 3.03,2.65 0.16,1.56 0.16,3.17 0,4.72 z M 29.53,28.96 h -4.17 v -2.77 c 0.3,-2.62 4.63,-2.12 4.63,-2.12 v -0.18 0 -4.3 0 0 0 c -0.15,0 -8.6,-2.04 -10.28,4.39 0,0 0,0 0,0 0,0 0,0 0,0 -0.26,0.8 -0.25,4.49 -0.24,4.95 h -3.61 v 4.93 h 3.83 v 13.4 h 5.58 v -13.4 h 4.27 l 0.48,-4.93 h -0.48 z m 87.61,0.09 c -2.03,-0.54 -4.08,-0.54 -6.1,0 -3.03,0.81 -5.06,2.72 -5.72,5.77 -0.36,1.66 -0.43,3.43 -0.33,5.14 0.22,3.9 2.63,6.68 6.38,7.55 0,0 0.11,0 0.16,0 v 0 c 0,0 0,0 0,0 0.14,0 0.29,0.1 0.43,0.1 0,0 0.1,0 0.15,0 0,0 0,0 0,0 0.18,0 0.4,0.1 0.63,0.1 0.73,0.1 1.67,0.13 2.45,0 0,0 0,0 0,0 0,0 0.1,0 0.12,0 3.87,-0.2 6.8,-2.64 7.66,-6.38 0.47,-2.05 0.47,-4.11 0,-6.17 -0.73,-3.22 -2.68,-5.3 -5.89,-6.16 z m 0.24,11.28 c 0,0.12 0,0.24 -0.1,0.36 -0.39,1.72 -1.64,2.65 -3.31,2.58 -1.79,-0.1 -3.02,-1.13 -3.2,-2.92 -0.12,-1.31 -0.13,-2.64 0,-3.95 0.17,-2.07 1.46,-3.2 3.4,-3.16 1.59,0 2.73,0.93 3.13,2.47 0.39,1.53 0.12,4.27 0.1,4.62 z M 96.45,28.71 c -2.2,-0.24 -4.11,0.43 -5.72,2.37 v -0.6 0 -10.46 -0.12 -0.71 l -5.84,0.71 v 27.51 h 5.84 v -1.63 c 0.79,0.56 1.55,1.24 2.45,1.56 3.4,1.22 7.88,0.23 9.45,-4.32 1.01,-2.92 0.98,-5.91 0.22,-8.86 -0.83,-3.28 -3.02,-5.09 -6.4,-5.45 z m 0.88,11.92 c -0.26,1.81 -1.7,2.76 -3.41,2.63 -0.43,0 -0.82,-0.12 -1.16,-0.26 -1.38,-0.79 -1.8,-2.12 -1.92,-2.96 0,0 0,0 0,0 -0.1,-1.29 -0.2,-3.99 0.43,-5.26 0.53,-0.98 1.47,-1.51 2.7,-1.55 1.76,-0.1 3.09,0.81 3.35,2.6 0.22,1.57 0.23,3.23 0,4.8 z"></path></svg>