<?xml version="1.0"?>

<svg xmlns="http://www.w3.org/2000/svg" viewBox="0 0 771.66522 134.48984" width="771.66522" height="134.48984">
  <path d="m 101.96546,112.45421 c -0.0626,-0.0553 -1.65659,-0.17429 -3.54218,-0.26442 -4.07378,-0.1947 -6.34376,-0.72603 -9.42791,-2.20674 -3.9615,-1.90192 -6.75647,-5.02675 -8.16747,-9.13136 -0.74956,-2.18048 -1.07872,-7.992229 -0.59868,-10.570698 1.01284,-5.440401 4.29836,-9.713176 9.33753,-12.143323 3.6874,-1.778262 11.47861,-3.637448 19.76479,-4.716405 8.85595,-1.15315 12.43025,-2.621729 13.70146,-5.629539 0.51772,-1.224966 0.49327,-4.481063 -0.0473,-6.301417 -0.83297,-2.804943 -3.43427,-5.293526 -6.47817,-6.197469 -4.12364,-1.224588 -11.35082,-1.102678 -15.37672,0.259381 -4.80797,1.626651 -7.3312,4.594549 -7.9083,9.30196 l -0.22765,1.857016 -5.1213,0.07822 c -2.81671,0.04302 -5.21482,-0.02127 -5.32914,-0.142847 -0.38007,-0.40425 0.56087,-5.734497 1.3886,-7.86618 2.62524,-6.760826 8.40371,-11.107154 17.21254,-12.946555 2.58472,-0.539719 11.96162,-0.776963 15.2765,-0.386508 9.14719,1.077433 14.79901,4.990057 16.80295,11.632301 0.54217,1.797072 0.58459,2.835185 0.67365,16.488236 0.19856,30.441217 0.0951,28.520017 1.57794,29.313587 0.72729,0.38923 3.3026,0.37684 4.34882,-0.0209 l 0.73782,-0.2805 0,4.15008 0,4.15007 -0.97389,0.40692 c -2.49355,1.04188 -7.34196,1.41359 -9.75656,0.74801 -3.2059,-0.8837 -5.30687,-3.58528 -5.70909,-7.34118 l -0.20041,-1.87136 -2.03645,1.96148 c -1.12004,1.07882 -2.65681,2.38382 -3.41502,2.89999 -3.28704,2.23773 -8.69284,4.09052 -12.95591,4.44051 -1.22969,0.10096 -2.50598,0.23906 -2.8362,0.3069 -0.33022,0.0678 -0.65163,0.0781 -0.71423,0.0228 z m 9.6111,-10.29361 c 5.69879,-1.8097 9.79274,-5.581073 11.27782,-10.3892 0.48908,-1.583462 0.56717,-2.658193 0.56717,-7.80578 0,-3.283222 -0.0537,-5.969493 -0.11938,-5.969493 -0.0657,0 -0.75314,0.318326 -1.52775,0.707389 -1.96538,0.987158 -4.04159,1.432136 -11.9969,2.571196 -3.81161,0.545759 -7.72533,1.198323 -8.69715,1.450151 -4.37919,1.134757 -7.83101,3.596879 -9.11075,6.498547 -0.93974,2.130735 -0.96939,6.654017 -0.0549,8.376067 1.90982,3.596373 4.76319,5.129083 10.22261,5.491143 3.57485,0.23708 6.74878,-0.0756 9.43925,-0.93002 z m 158.83481,10.03956 c -3.62708,-0.31338 -6.99561,-1.19961 -10.09973,-2.65716 -9.55591,-4.48699 -14.82802,-12.850058 -16.45994,-26.110145 -0.54693,-4.444013 -0.54946,-6.22656 -0.0144,-10.168852 0.47643,-3.510419 0.5402,-3.81232 1.3539,-6.40996 3.62204,-11.562969 12.13489,-19.332981 23.32916,-21.293448 2.82425,-0.494618 7.10136,-0.541649 10.22691,-0.112461 11.59264,1.591848 20.4153,10.842003 23.23931,24.365339 0.56804,2.720203 1.13002,8.012381 1.13437,10.682483 l 0.002,1.499896 -24.14119,0 -24.14118,0 -0.0243,0.642814 c -0.18233,4.81181 1.10503,9.433906 3.60791,12.95379 2.11755,2.977978 4.8903,5.015864 8.81342,6.477554 2.06448,0.7692 2.75572,0.87794 6.35851,1.00024 3.14663,0.10682 4.5236,0.0301 6.21488,-0.34615 5.70315,-1.26882 9.57436,-4.837745 11.32781,-10.443245 l 0.49153,-1.571322 5.20797,-0.078 5.20797,-0.07799 -0.19022,1.014003 c -0.33931,1.80867 -1.59237,5.335448 -2.63096,7.404901 -1.35182,2.693593 -2.55438,4.285503 -4.93098,6.527463 -5.61261,5.29465 -13.74513,7.57618 -23.88313,6.70025 z m 21.28424,-40.300764 c 0,-1.586038 -1.08273,-5.309217 -2.21015,-7.60003 -2.10209,-4.271279 -6.83463,-8.10516 -11.53871,-9.347643 -2.45489,-0.64841 -7.21285,-0.636045 -9.67809,0.02516 -4.6868,1.257035 -8.82483,4.599554 -11.09407,8.961332 -1.27917,2.458729 -2.33357,5.991378 -2.33357,7.818353 l 0,1.097077 18.4273,0 18.42729,0 0,-0.95423 z m 170.44028,40.310834 c -11.12683,-0.9263 -20.17186,-7.72522 -23.91231,-17.974346 -3.75126,-10.278672 -3.74515,-21.69368 0.0165,-30.6962 3.01962,-7.226785 8.90667,-13.289211 15.64963,-16.115852 3.58073,-1.501047 6.18017,-2.037472 10.65115,-2.198011 6.78842,-0.243755 11.51446,0.914482 16.20133,3.970529 8.5417,5.569589 13.54324,15.776567 14.00726,28.585509 l 0.15268,4.213993 -24.22218,0 -24.22218,0 0.18656,2.653973 c 0.38854,5.527431 2.15556,9.67241 5.57872,13.08619 3.84785,3.837275 8.01374,5.390665 14.46052,5.392045 5.65172,10e-4 9.39375,-1.28514 12.45674,-4.28211 1.70808,-1.671265 3.40581,-4.631962 3.99278,-6.963037 l 0.33143,-1.316227 5.22609,0 5.2261,0 -0.38846,1.642743 c -3.00105,12.690881 -12.25618,19.827761 -26.13045,20.149881 -1.49275,0.0346 -3.86059,-0.0324 -5.26183,-0.14908 z M 483.5297,71.496577 c -1.12196,-8.115201 -5.60562,-13.77831 -12.84923,-16.229273 -1.91587,-0.648251 -2.78798,-0.774721 -5.42545,-0.78673 -5.58539,-0.02543 -9.14857,1.382124 -12.87245,5.085029 -3.21967,3.201541 -5.12948,7.116051 -5.68147,11.64528 l -0.20018,1.642742 18.6082,0 18.60819,0 -0.18761,-1.357048 z M 22,66.568349 22,22 l 29.28369,0 29.28368,0 0,4.999655 0,4.999654 -23.2841,0 -23.2841,0 0,14.141882 0,14.141875 20.42716,0 20.42715,0 0,4.999655 0,4.999654 -20.42715,0 -20.42716,0 0,20.427158 0,20.427157 -5.99958,0 -5.99959,0 0,-44.568341 z m 123.99141,0 0,-44.568349 5.28535,0 5.28535,0 0,17.053443 0,17.053437 1.01782,-1.697359 c 3.67371,-6.12641 11.62453,-9.559477 21.26635,-9.182544 6.77053,0.26468 11.08167,1.861351 14.71799,5.450924 2.49844,2.466337 4.14562,5.6141 5.05593,9.66198 0.57487,2.5562 0.60204,3.572944 0.71439,26.727046 l 0.11679,24.069763 -5.3029,0 -5.30289,0 -0.005,-22.498441 c -0.005,-24.503248 -0.0259,-24.85697 -1.62353,-28.01462 -1.03833,-2.052227 -3.62467,-4.412548 -5.67613,-5.180094 -2.52016,-0.942912 -5.40704,-1.239414 -8.60048,-0.883324 -8.09682,0.902852 -13.13055,5.156203 -15.56374,13.150913 -0.64911,2.13279 -0.65256,2.238268 -0.74568,22.784141 l -0.0935,20.641425 -5.27305,0 -5.27306,0 0,-44.568341 z m 64.28127,12.284865 0,-32.283482 4.99965,0 4.99966,0 0,6.916373 0,6.916367 1.35705,-2.359027 c 2.98756,-5.193446 6.38275,-8.618506 10.5629,-10.655852 2.76417,-1.347217 6.67012,-2.23715 9.84275,-2.242582 l 2.19262,-0.0038 0.0307,5.571042 0.0307,5.571047 -1.22338,0.03645 c -1.3129,0.03913 -1.49586,0.05606 -4.02438,0.372433 -8.20815,1.027015 -13.92366,5.600189 -16.45348,13.164977 -1.54651,4.624481 -1.74406,7.489603 -1.74406,25.295218 l 0,15.984262 -5.28535,0 -5.28535,0 0,-32.283481 z m 99.70738,0 0,-32.283482 4.9932,0 4.99322,0 0.0779,5.193237 0.0779,5.193237 1.10093,-1.784438 c 2.13673,-3.463377 5.91847,-6.610532 9.85323,-8.199853 3.67409,-1.484028 4.98399,-1.689362 10.61578,-1.66409 4.90051,0.02198 5.47199,0.08045 7.84891,0.802881 8.02182,2.438116 12.08991,7.379558 13.43156,16.31507 0.35406,2.358134 0.42922,6.859909 0.43062,25.783932 l 0.003,22.926982 -5.28535,0 -5.28534,0 -0.004,-22.784135 c -0.005,-24.823685 -0.007,-24.866972 -1.63243,-27.853171 -1.08133,-1.986742 -3.70003,-4.319554 -5.68092,-5.0607 -4.92589,-1.843012 -11.88504,-1.171528 -16.43544,1.585841 -3.46567,2.10008 -6.46243,6.31433 -7.74137,10.886447 -0.60951,2.17891 -0.62559,2.685224 -0.72181,22.72714 l -0.0984,20.498578 -5.26978,0 -5.26978,0 0,-32.283476 z m 64.28126,-12.284865 0,-44.568349 5.4326,0 5.43259,0 -0.009,16.49886 c -0.005,9.074374 -0.004,16.755986 0.003,17.070246 0.007,0.354994 0.35163,-0.05448 0.90862,-1.081144 2.04312,-3.76599 7.00518,-7.118193 12.65873,-8.551831 2.22004,-0.562969 3.25411,-0.648679 7.5709,-0.627517 5.60025,0.02746 7.74887,0.436587 11.24499,2.141219 5.3908,2.628459 8.35614,6.896702 9.80901,14.118861 0.39412,1.95913 0.47654,5.662041 0.5771,25.92678 l 0.11734,23.641216 -5.43965,0 -5.43968,0 -0.0778,-23.784069 -0.0778,-23.784064 -0.67336,-1.669505 c -1.34438,-3.333448 -4.1923,-5.892521 -7.75457,-6.968183 -2.09794,-0.633497 -7.45263,-0.617784 -9.99931,0.02932 -6.22274,1.581231 -10.3762,5.639361 -12.61178,12.322376 l -0.66902,1.999863 -0.0839,20.927125 -0.0839,20.927117 -5.41768,0 -5.41768,0 0,-44.56834 z m 127.70544,12.284865 0,-32.283482 5.42819,0 5.42821,0 0,32.283482 0,32.283476 -5.42821,0 -5.42819,0 0,-32.283476 z m 36.62401,31.966846 c -6.77588,-0.84119 -9.29699,-3.51904 -10.05731,-10.68261 -0.1501,-1.414183 -0.27512,-11.924174 -0.27786,-23.355525 l -0.005,-20.784273 -5.42819,0 -5.4282,0 0,-4.71396 0,-4.71396 5.4244,0 5.4244,0 0.0752,-9.642194 0.0752,-9.64219 5.28535,0 5.28535,0 0.0752,9.64219 0.0752,9.642194 6.43538,0 6.43536,0 -0.0361,4.71396 -0.0361,4.71396 -6.40305,0 -6.40303,0 0,21.312488 c 0,23.51243 -0.0711,22.571084 1.79021,23.69695 0.79389,0.48022 1.62729,0.57894 5.92354,0.70169 l 4.99965,0.14284 0.0785,4.6515 0.0785,4.65149 -5.79242,-0.0554 c -3.18584,-0.0305 -6.60329,-0.15609 -7.59434,-0.27912 z m 24.35748,-1.04042 c 0.0725,-0.74637 0.20462,-2.32529 0.29358,-3.50869 0.59136,-7.86658 4.59465,-15.692661 11.3255,-22.140363 3.43959,-3.294918 10.10913,-8.227421 20.53584,-15.187448 5.72429,-3.821062 8.05827,-5.778168 10.09853,-8.467816 2.77238,-3.654806 3.60589,-5.943717 3.61141,-9.917271 0.008,-5.816512 -2.35535,-9.823314 -7.13897,-12.102792 -1.79216,-0.854007 -1.99169,-0.884908 -5.71389,-0.884908 -3.68306,0 -3.92618,0.0365 -5.39471,0.8097 -4.84361,2.550248 -7.21144,6.894225 -8.4351,15.474891 -0.0672,0.471395 -0.13279,1.467756 -0.14573,2.21413 l -0.0235,1.357049 -8.61169,0 -8.61169,0 0.18827,-3.620112 c 0.86643,-16.660614 9.5714,-27.936065 24.03463,-31.131714 2.8416,-0.627851 9.29084,-0.83222 12.5027,-0.396198 12.83328,1.742187 22.15821,9.774687 24.67935,21.258864 0.59387,2.705186 0.59284,9.329019 -0.003,12.032144 -1.25323,5.69629 -3.9509,10.444834 -8.37847,14.748012 -2.94991,2.86704 -4.67711,4.161087 -12.63144,9.463677 -7.8998,5.266248 -9.50914,6.425406 -13.05996,9.406628 -2.022,1.69765 -5.5009,5.461322 -5.7768,6.249657 -0.0597,0.170701 7.52634,0.272107 20.35574,0.272107 l 20.45095,0 0,7.713753 0,7.71375 -32.14226,0 -32.14229,0 0.13185,-1.35705 z m 91.57938,-26.923313 0,-28.280359 -10.92782,-0.07482 -10.92782,-0.07482 0,-6.713823 0,-6.713817 3.71404,-0.186535 c 7.66098,-0.384771 12.5079,-2.24958 16.60813,-6.389869 2.35389,-2.376905 4.16848,-5.683092 4.77944,-8.708259 l 0.37503,-1.857011 7.04603,-0.07641 7.04602,-0.07642 0,43.716254 0,43.716252 -8.85653,0 -8.85652,0 0,-28.280362 z m 30.95394,25.460093 c 0.36292,-5.53778 1.4291,-9.496702 3.78725,-14.062493 4.06029,-7.861476 10.60744,-13.674152 29.11152,-25.845734 6.77068,-4.453599 10.97453,-9.063982 12.35824,-13.553322 0.64621,-2.096517 0.63815,-6.709548 -0.0154,-8.891462 -1.1121,-3.712278 -4.26151,-6.874554 -7.96777,-8.000295 -1.60871,-0.488633 -2.52885,-0.57882 -5.02899,-0.49293 -2.67633,0.09194 -3.27501,0.209719 -4.77422,0.939223 -4.77815,2.325019 -7.80602,8.152635 -8.37422,16.117524 l -0.19664,2.756344 -8.49941,0.07567 -8.49941,0.07567 0.003,-2.789772 c 0.007,-11.591117 5.24001,-22.240629 13.60949,-27.696135 5.6466,-3.680637 11.56791,-5.160654 19.49133,-4.871809 8.66566,0.315905 15.4275,3.061095 20.92198,8.493927 4.11046,4.064377 6.32282,8.24279 7.28516,13.759391 0.61781,3.541616 0.41497,9.426139 -0.43666,12.667356 -1.18023,4.491844 -3.70814,8.856292 -7.22344,12.471257 -3.11621,3.204594 -5.06694,4.702895 -13.06772,10.037061 -4.01413,2.676236 -8.78848,5.998947 -10.60964,7.383811 -3.15984,2.402792 -6.79593,5.897283 -8.21078,7.890969 l -0.65893,0.928508 20.58947,0 20.58946,0 0,7.713751 0,7.71375 -32.18357,0 -32.18358,0 0.18482,-2.82027 z M 502.17246,34.488506 c -0.0776,-0.202265 -0.16227,-3.094922 -0.18816,-6.428129 L 501.9373,22 l 5.44294,0 5.44294,0 0,6.42813 0,6.428123 -5.25479,0 c -4.02129,0 -5.28791,-0.08632 -5.39591,-0.367747 z"></path>

</svg>
