 <svg 
   xmlns="http://www.w3.org/2000/svg"
 viewBox="-1.772 -1.772 189 63.27"
   height="327.4"
   width="977.2" >
 
  <path
     style="opacity:0.3333"
     d="m 167.6,2.465 c -8.4,0 -15.2,6.832 -15.2,15.265 l 0,0 0,11.81 0,0 c 0,1.92 1.5,3.46 3.4,3.46 l 0,0 0,0 11.8,0 c 8.4,0 15.3,-6.84 15.3,-15.26 0,-8.436 -6.9,-15.273 -15.3,-15.273 z m 4.5,3.626 c 4,0 7.1,3.208 7.1,7.169 0,3.95 -3.1,7.13 -7.1,7.13 l -3.8,0 0,3.8 c 0,3.97 -3.1,7.18 -7.1,7.18 -4,0 -7.2,-3.21 -7.2,-7.18 0,-3.96 3.2,-7.13 7.2,-7.13 l 3.8,0 0,-3.8 c 0,-3.961 3.1,-7.169 7.1,-7.169 z m 0,3.366 c -2,0 -3.8,1.713 -3.8,3.803 l 0,3.25 c 0,0.29 0.3,0.55 0.6,0.55 l 3.2,0 c 2.1,0 3.8,-1.71 3.8,-3.8 0,-2.09 -1.7,-3.803 -3.8,-3.803 z M 161.2,20.39 c -2.1,0 -3.8,1.72 -3.8,3.8 0,2.1 1.7,3.8 3.8,3.8 2.1,0 3.8,-1.72 3.8,-3.8 l 0,-3.28 c 0,-0.29 -0.3,-0.52 -0.6,-0.52 l -3.2,0 z"
  />
  <path 
     d="m 164.9,17.05 0,-3.79 0,0 c 0,-3.962 3.2,-7.169 7.1,-7.169 0.6,0 1.1,0.06 1.6,0.213 0.9,0.212 1.5,0.876 1.5,1.648 0,0.935 -0.7,1.614 -1.7,1.614 -0.5,0 -0.7,-0.09 -1.4,-0.09 -2.1,0 -3.7,1.684 -3.7,3.774 l 0,3.27 0,0 c 0,0.29 0.2,0.53 0.5,0.53 l 0,0 2.5,0 c 0.9,0 1.7,0.74 1.7,1.67 0,0.93 -0.8,1.67 -1.7,1.67 l -3,0 0,3.81 0,0 c 0,3.95 -3.2,7.16 -7.2,7.16 -0.6,0 -1,-0.1 -1.6,-0.21 -0.8,-0.21 -1.4,-0.88 -1.4,-1.65 0,-0.94 0.6,-1.62 1.7,-1.62 0.4,0 0.6,0.1 1.3,0.1 2.1,0 3.8,-1.69 3.8,-3.78 l 0,-3.28 c 0,-0.3 -0.3,-0.54 -0.5,-0.54 l 0,0 -2.5,0 c -0.9,0 -1.7,-0.74 -1.7,-1.66 0,-0.94 0.8,-1.67 1.7,-1.67 l 3,0 m -24.1,19.58 c 4.5,0 7.4,3.58 7.4,7.91 0,4.34 -2.9,7.89 -7.4,7.89 -4.4,0 -7.3,-3.55 -7.3,-7.89 0,-4.33 2.9,-7.91 7.3,-7.91 z m -47.14,0 c 4.45,0 7.34,3.58 7.34,7.91 0,4.34 -2.89,7.89 -7.34,7.89 -4.46,0 -7.37,-3.55 -7.37,-7.89 0,-4.33 2.91,-7.91 7.37,-7.91 z m -29.87,0 c 4.45,0 7.27,3.41 7.27,7.91 0,4.51 -2.82,7.89 -7.27,7.89 -4.45,0 -7.28,-3.55 -7.28,-7.89 0,-4.33 2.83,-7.91 7.28,-7.91 z M 34.26,36.37 c 3.68,0 6.35,2.6 6.84,6 l -13.68,0 c 0.55,-3.56 3.11,-6 6.84,-6 z M 140.8,31.78 c -7,0 -12.8,5.7 -12.8,12.76 0,7.07 5.6,12.73 12.3,12.73 3.4,0 6.4,-1.72 7.7,-3.53 l 0.7,1.68 c 0.4,0.94 1.3,1.62 2.3,1.62 1.4,0 2.5,-1.11 2.5,-2.49 l 0,-6.53 0,-3.48 c 0.1,-6.84 -4.8,-12.76 -12.7,-12.76 z m -16,0 c -3.8,0 -6.2,1.12 -8.4,3.89 l -0.2,-1.3 c -0.2,-1.34 -1.3,-2.38 -2.7,-2.38 -1.5,0 -2.7,1.21 -2.7,2.72 l 0,0 0,19.58 c 0,1.5 1.2,2.72 2.7,2.72 1.5,0 2.7,-1.22 2.7,-2.72 l 0,-10.5 c 0,-4.78 4.2,-7.19 8.6,-7.19 1.3,0 2.4,-1.1 2.4,-2.43 0,-1.34 -1.1,-2.42 -2.4,-2.42 z m -31.14,0 c -7.07,0 -12.76,5.7 -12.76,12.76 0,7.07 5.69,12.73 12.76,12.73 7.04,0 12.74,-5.66 12.74,-12.73 0,-7.06 -5.7,-12.76 -12.74,-12.76 z m -59.4,0 c -7.06,0 -12.55,5.7 -12.55,12.76 0,7.07 5.66,12.73 12.73,12.73 3.89,0 7.84,-1.67 10.18,-4.17 0.5,-0.5 0.78,-1.15 0.78,-1.77 0,-0.44 -0.16,-0.89 -0.44,-1.28 -0.44,-0.55 -1.13,-0.9 -1.8,-0.9 -0.5,0 -0.93,0.11 -1.32,0.5 -1.95,1.89 -4.39,3.08 -7.23,3.08 -4,0 -7,-2.81 -7.28,-6.53 l 17.17,0 c 1.06,0 2.03,-0.71 2.03,-1.77 0,-7.17 -5.26,-12.65 -12.27,-12.65 z m -16,-12.67 c -5.64,0 -10.21,4.58 -10.21,10.21 l 0,3.19 -3.33,0 c -1.23,0 -2.24,1.01 -2.24,2.23 0,1.23 1.01,2.47 2.24,2.47 l 3.33,0 0,17.11 c 0,1.5 1.22,2.72 2.73,2.72 1.5,0 2.72,-1.22 2.72,-2.72 l 0,-17.11 3.68,0 c 1.22,0 2.24,-1.24 2.24,-2.47 0,-1.22 -1.02,-2.23 -2.24,-2.23 l -3.68,0 0,-3.19 c 0,-2.62 2.13,-5.1 4.76,-5.1 l 0.72,0 c 1.49,0.22 2.89,-0.46 3.1,-1.94 0.22,-1.5 -0.83,-2.86 -2.32,-3.08 -0.49,-0.1 -1,-0.11 -1.5,-0.11 z m 55.53,-0.1 c -1.5,0 -2.73,1.17 -2.73,2.67 l 0,14.36 c -1.39,-2.56 -4.38,-4.3 -7.94,-4.3 -7.23,0 -12.07,5.48 -12.07,12.76 0,7.3 5,12.73 12.07,12.73 3.15,0 5.87,-1.3 7.51,-3.56 l 0.61,1.54 c 0.37,1.05 1.4,1.79 2.58,1.79 1.5,0 2.7,-1.2 2.7,-2.69 l 0,0 0,-32.6 c 0,-1.53 -1.23,-2.7 -2.73,-2.7 z" />
 
</svg>
