<?xml version="1.0"?>
<!--?xml version="1.0" encoding="UTF-8" standalone="no"?-->
<svg xmlns="http://www.w3.org/2000/svg" height="365.64" width="944.03" viewBox="0 0 944.03 365.64">
   <path d="m 901.47,313.95 6.26,18.41 h 0.1 l 5.93,-18.41 h 8.27 v 26.77 h -5.5 v -18.98 h -0.1 l -6.55,18.98 h -4.54 l -6.56,-18.78 h -0.1 v 18.78 h -5.53 v -26.77 z m -33.12,4.88 v -4.95 h 21.95 v 4.95 h -8.03 v 21.82 h -5.88 v -21.82 z m -107.09,-40.5 c -52.71,0 -95.46,-42.72 -95.46,-95.44 0,-52.71 42.75,-95.435 95.46,-95.435 52.71,0 95.44,42.725 95.44,95.435 0,52.72 -42.73,95.44 -95.44,95.44 m 0,-256.175 c -88.81,0 -160.74,71.975 -160.74,160.735 0,88.78 71.93,160.75 160.74,160.75 88.8,0 160.75,-71.97 160.75,-160.75 0,-88.76 -71.95,-160.735 -160.75,-160.735 M 582.16,251.95 c -17.09,16.24 -40.21,26.25 -65.68,26.25 -52.7,0 -95.42,-42.75 -95.42,-95.46 0,-52.7 42.72,-95.427 95.42,-95.427 25.13,0 47.95,9.712 65.02,25.587 7.99,-20.95 19.51,-40.138 33.83,-56.85 C 588.07,34.75 553.77,22 516.48,22 427.7,22 355.75,93.975 355.75,182.74 c 0,88.77 71.95,160.73 160.73,160.73 37.87,0 72.64,-13.11 100.1,-35 -14.5,-16.58 -26.22,-35.67 -34.42,-56.52 m -250.15,88.5 H 265.27 V 29.08 h 66.74 z M 244.46,95.83 V 29.093 H 22 V 340.52 H 88.75 V 229.29 H 222.22 V 162.57 H 88.75 V 95.83 Z"></path>
   </svg>