<?xml version="1.0"?>

<svg xmlns="http://www.w3.org/2000/svg" viewBox="0 0 300 115" height="115" width="300">
   <path class="only-light-background" d="M 149.5,7.301 C 71,7.301 7.529,30.1 7.529,58.4 c 0,28.2 63.471,51 141.971,51 78.4,0 141.9,-22.8 141.9,-51 0,-28.3 -63.5,-51.099 -141.9,-51.099 z m 0.7,3.399 c 75.5,0 136.7,21.1 136.7,47.1 0,26.1 -61.2,47.2 -136.7,47.2 C 74.7,105 13.46,83.9 13.46,57.8 13.46,31.8 74.7,10.7 150.2,10.7 Z m 0,4.1 c -72.9,0 -131.93,19.3 -131.93,43 0,23.8 59.03,43.1 131.93,43.1 72.8,0 131.9,-19.3 131.9,-43.1 0,-23.7 -59.1,-43 -131.9,-43 z m -35.7,7.66 c 13.6,-0.1 26.7,3.37 40.3,4.94 12,1.5 23.4,1.5 35.4,-1.2 1.5,-0.3 2.5,0.6 2.4,2 -0.2,2 -1.8,4 -5.7,6.1 -4.5,2.5 -9.2,3.2 -14.1,3.3 -11.9,0.1 -23,-4.5 -34.4,-7 0,0.5 0.1,1.1 -0.3,1.4 -6.4,4.7 -12.1,9.4 -15.9,16 -0.2,0.1 -0.1,0.3 0.1,0.2 3.4,-0.1 6.4,-0.2 9.5,-0.5 0.5,0 0.5,-0.1 0.5,-0.5 -0.3,-2.3 0.4,-4.9 2.4,-6.7 2.1,-1.8 4.7,-2 6.4,-0.7 2,1.5 1.8,4.2 0.7,6.2 -1.1,2.1 -2.9,3.2 -4.6,3.7 0,0 -0.4,0.1 -0.3,0.4 0.1,0.6 2.4,1.9 2.6,2.2 0.2,0.3 0.1,0.8 -0.3,1.2 -0.2,0.3 -0.6,0.6 -1.1,0.6 -0.4,0 -0.6,-0.2 -1.2,-0.5 -1,-0.5 -2.3,-1.5 -3.2,-2.6 -0.3,-0.3 -0.5,-0.3 -1.2,-0.3 -3.4,0.2 -8.6,0.7 -12.2,1.1 -0.9,0.1 -1,0.3 -1.2,0.6 -5.6,9.3 -11.7,19.3 -18.3,26 -7.2,7.1 -13.1,9 -19.4,9.1 -7.9,0 -14.9,-4.8 -15.7,-13.2 -0.4,-4.6 0.9,-8.8 3.5,-12.2 2.4,-3 6.4,-5.6 9.8,-6.2 1.1,-0.2 2.5,0 3.1,0.7 1,1.1 0.7,2.3 -0.2,2.8 -2.6,1.3 -5.7,3.5 -7.2,6.5 -1.3,2.5 -1.5,5.5 0.4,8.4 3.1,4.7 12,4.8 20.2,-2.7 2.1,-1.9 3.9,-3.7 5.8,-5.8 3.6,-4.1 4.8,-5.6 9.6,-12.2 0.1,-0.1 0.1,-0.2 0.1,-0.2 -0.1,-0.1 -0.2,-0.1 -0.3,-0.1 -3.2,0 -6,1 -8.7,3 -0.8,0.6 -2,0.5 -2.5,-0.2 -0.5,-0.9 -0.1,-2 0.8,-2.6 4.4,-3 9.2,-3.6 14.1,-4.4 0,0 0.3,0 0.6,-0.3 2,-2.6 3.5,-4.9 5.7,-7.5 2.1,-2.6 4.9,-5 7,-6.8 3,-2.6 4.9,-3.4 6.9,-4.4 0.5,-0.3 -0.1,-0.6 -0.3,-0.6 -10.8,-2 -22,-4.6 -32.8,-0.7 -7.4,2.7 -10.7,8.6 -9.1,12.5 1.1,2.8 4.8,3.2 8.2,1.5 2.9,-1.3 5.5,-3.6 7.4,-6.5 1.1,-1.6 3.3,-0.4 2.1,2.4 -3.2,7.3 -9.2,13.1 -16.5,13.3 -6.2,0.2 -10.2,-4.3 -10.2,-9.9 0,-11 12.4,-18.3 25.5,-19.4 2,-0.16 3.9,-0.24 5.8,-0.24 z m 24,19.16 c -0.5,0 -1,0.2 -1.4,0.58 -1.4,1.1 -1.8,2.8 -1.6,4.1 0.1,0.5 0.2,0.6 0.5,0.5 1,-0.2 2.2,-1.1 2.9,-2.1 0.7,-0.9 1,-2.3 0.3,-2.8 -0.2,-0.19 -0.4,-0.28 -0.7,-0.28 z m 89.1,0.28 h 7.3 c 0.4,0 0.6,0.2 0.4,0.5 -1.1,1.9 -22.3,33.9 -23.7,37.2 -0.4,1.1 -0.4,1.9 0,2.4 1.1,1.5 3.6,0.7 5.1,-0.4 4.6,-3.1 7.8,-6.9 11.3,-10.3 0.2,-0.1 0.6,-0.2 0.8,0 0.5,0.5 1.3,1.1 1.8,1.7 0.3,0.2 0.2,0.5 0.1,0.7 -3.5,4.1 -7.3,8.1 -11,10.8 -5.6,4.4 -11.3,5.5 -14.1,2.7 -1.1,-1 -1.6,-2.5 -1.7,-3.8 0,-0.6 -0.4,-0.7 -0.7,-0.4 -3.4,3.3 -9.2,7 -14.5,4.4 -4.4,-2.2 -5.4,-7.4 -4.6,-11.8 0,-0.1 -0.1,-0.7 -0.6,-0.4 -0.9,0.7 -2.1,1.4 -3.6,2 -1.9,0.6 -2.7,0.9 -4.4,0.9 -2.2,0 -4.1,-0.9 -5.5,-3.1 -0.8,-1.1 -1.1,-2.8 -1.1,-4.1 0,-0.1 -0.2,-0.4 -0.4,-0.1 -3.7,5.5 -7,10.8 -10.6,16.3 -0.2,0.3 -0.4,0.5 -0.7,0.5 h -7.1 c -0.4,0 -0.6,-0.3 -0.4,-0.8 1.2,-2.4 8.1,-12.3 12.8,-20.7 1.3,-2.3 1,-3.5 0.2,-4 -1,-0.7 -3,0.3 -4.7,1.5 -4.5,3.5 -8.4,8.8 -10.3,11.2 -1.2,1.4 -2.3,3.5 -5.3,6.7 -4.7,5.1 -10.9,8 -17,6 -3.3,-1.1 -5.6,-3.7 -6.6,-6.9 -0.1,-0.7 -0.5,-0.8 -0.8,-0.4 -1,1.2 -3,3 -4.7,4.1 -0.1,0.1 -0.6,0.4 -1,0.2 -0.3,-0.2 -1.6,-1.9 -1.8,-2.4 -0.2,-0.4 0,-0.8 0.2,-1 2.4,-2 3.7,-3.2 4.7,-4.5 0.8,-1 1.4,-2 2.1,-3.8 1.4,-3.6 4.7,-10.3 11.3,-13.8 2.5,-1.3 5,-2.3 7.9,-2.6 1.2,-0.2 2.2,0 2.5,0.9 0.2,0.4 0.5,1.3 0.7,1.9 0.1,0.4 0,0.7 -0.4,0.9 -3.9,1.4 -7.8,3.7 -10.5,7.2 -3,4.1 -3.8,9 -1.8,11.8 1.5,2 3.9,2.4 6.2,1.6 3.5,-1.1 6.5,-4.3 8,-7.9 1.7,-3.9 2,-8.6 0.8,-12.7 -0.3,-0.7 -0.1,-1.2 0.4,-1.6 0.9,-0.7 2.2,-1.3 2.6,-1.5 0.8,-0.5 1.7,-0.1 2.2,0.5 1.3,1.9 2,4.5 2,7.3 0.1,0.6 0.4,0.6 0.6,0.3 2.3,-2.4 4.5,-5 6.9,-7 2.2,-1.7 5.1,-3.1 7.8,-3.1 3.4,0.1 5.1,2.4 5,6.5 0,0.6 0.4,0.5 0.6,0.2 1.1,-1.5 1.8,-2.2 2.9,-3.2 2.4,-1.9 4.9,-2.8 7.4,-2.6 3.2,0.2 5.7,3 5.1,6.3 -0.3,2 -1.4,3.9 -3.4,4.8 -1.6,0.8 -3.5,0.7 -4.8,-0.5 -1.1,-1 -1.5,-2.4 -1.2,-3.9 0.1,-0.3 -0.3,-0.5 -0.7,-0.2 -3,3.2 -3.2,7.2 -1.2,9.1 2.2,2 5.5,0.7 7.9,-0.9 4.4,-2.9 7.8,-6.7 11.8,-9.7 2.7,-2 5.7,-3.8 9,-4.2 1.9,-0.3 3.7,-0.1 5.5,0.6 2.4,1 3.9,3 4.1,4.7 0.1,0.5 0.5,0.6 0.8,0.2 1.9,-3 12.1,-18.2 13,-19.8 0.2,-0.5 0.5,-0.5 1.1,-0.5 z m -22.4,19.98 c -2.4,0 -5.6,2.11 -8.4,5.52 -2.8,3.5 -4.4,7 -4.4,10.5 0,1.2 0.4,2.7 1.5,3.3 2.5,1.3 5.4,-0.6 7.6,-2.4 1.4,-1.2 2.6,-2.4 3.6,-3.9 1.1,-1.7 2,-2.8 2.9,-4.7 0.1,-0.2 0,-0.3 -0.1,-0.4 -0.3,-0.1 -0.6,-0.3 -0.6,-0.5 -0.1,-0.2 -0.1,-0.3 0,-0.5 1.2,-2.4 2,-5.4 -0.6,-6.6 -0.5,-0.23 -1,-0.33 -1.5,-0.32 z"></path>
  <path style="display:none;" class="only-dark-background" d="m 150,10.32 c -75.47,0 -136.71,21.1 -136.71,47.1 0,26.11 61.24,47.28 136.71,47.28 75.5,0 136.7,-21.17 136.7,-47.28 0,-26 -61.2,-47.1 -136.7,-47.1 z m 0,4.1 c 72.8,0 131.9,19.3 131.9,43 0,23.8 -59.1,43.18 -131.9,43.18 -72.87,0 -131.9,-19.38 -131.9,-43.18 0,-23.7 59.03,-43 131.9,-43 z m -35.7,7.7 c -1.9,0 -3.8,0 -5.8,0.2 -13.07,1.1 -25.47,8.4 -25.47,19.4 0,5.6 4,10.1 10.2,9.9 7.27,-0.2 13.27,-6 16.47,-13.3 1.2,-2.8 -1,-4 -2.1,-2.4 -1.9,2.9 -4.5,5.2 -7.4,6.5 -3.37,1.7 -7.07,1.3 -8.17,-1.5 -1.6,-3.9 1.7,-9.8 9.07,-12.5 10.8,-3.9 22,-1.3 32.8,0.7 0.2,0 0.8,0.3 0.3,0.6 -2,1 -3.9,1.8 -6.9,4.4 -2.1,1.8 -4.9,4.2 -7,6.8 -2.2,2.6 -3.7,4.9 -5.7,7.5 -0.3,0.3 -0.6,0.3 -0.6,0.3 -4.9,0.8 -9.7,1.4 -14.07,4.4 -0.9,0.6 -1.3,1.7 -0.8,2.6 0.5,0.7 1.67,0.8 2.47,0.2 2.7,-2 5.5,-3 8.7,-3 0.1,0 0.2,0 0.3,0.1 0,0 0,0.1 -0.1,0.2 -4.8,6.6 -6,8.1 -9.6,12.2 -1.87,2.1 -3.67,3.9 -5.77,5.8 -8.2,7.5 -17.1,7.4 -20.2,2.7 -1.9,-2.9 -1.7,-5.9 -0.4,-8.4 1.5,-3 4.6,-5.2 7.2,-6.5 0.9,-0.5 1.2,-1.7 0.2,-2.8 -0.6,-0.7 -2,-0.9 -3.1,-0.7 -3.4,0.6 -7.4,3.2 -9.8,6.2 -2.6,3.4 -3.9,7.6 -3.5,12.2 0.8,8.4 7.8,13.2 15.7,13.2 6.3,-0.1 12.2,-2 19.37,-9.09 6.6,-6.71 12.7,-16.7 18.3,-26 0.2,-0.3 0.3,-0.5 1.2,-0.6 3.6,-0.4 8.8,-0.9 12.2,-1.1 0.7,0 0.9,0 1.2,0.3 0.9,1.1 2.2,2.1 3.2,2.6 0.6,0.3 0.8,0.5 1.2,0.5 0.5,0 0.9,-0.3 1.1,-0.6 0.4,-0.4 0.5,-0.9 0.3,-1.21 -0.2,-0.29 -2.5,-1.6 -2.6,-2.2 -0.1,-0.3 0.3,-0.4 0.3,-0.4 1.7,-0.5 3.5,-1.6 4.6,-3.7 1.1,-2 1.3,-4.7 -0.7,-6.2 -1.7,-1.3 -4.3,-1.1 -6.4,0.7 -2,1.8 -2.7,4.4 -2.4,6.7 0,0.4 0,0.5 -0.5,0.5 -3.1,0.3 -6.1,0.4 -9.5,0.5 -0.2,0.1 -0.3,-0.1 -0.1,-0.2 3.8,-6.6 9.5,-11.3 15.9,-16 0.4,-0.3 0.3,-0.9 0.3,-1.4 11.4,2.5 22.5,7.1 34.4,7 4.9,-0.1 9.6,-0.8 14.1,-3.3 3.9,-2.1 5.5,-4.1 5.7,-6.1 0.1,-1.4 -0.9,-2.3 -2.4,-2 -12,2.7 -23.4,2.7 -35.4,1.2 -13.6,-1.6 -26.7,-5 -40.3,-4.9 z m 24,19.12 c 0.3,0 0.5,0.1 0.7,0.28 0.7,0.5 0.4,1.9 -0.3,2.8 -0.7,1 -1.9,1.9 -2.9,2.1 -0.3,0.1 -0.4,0 -0.5,-0.5 -0.2,-1.3 0.2,-3 1.6,-4.1 0.4,-0.38 0.9,-0.59 1.4,-0.58 z m 89.1,0.28 c -0.6,0 -0.9,0 -1.1,0.5 -0.9,1.6 -11.1,16.8 -13,19.8 0.1,-0.2 0.2,-0.3 0.3,-0.5 -0.1,-0.1 -0.2,-0.2 -0.3,-0.4 -0.4,-0.5 -1.5,-1.6 -2.5,-2.5 1,1 1.6,2.1 1.7,3.2 -0.2,-1.7 -1.7,-3.7 -4.1,-4.7 -1.8,-0.7 -3.6,-0.9 -5.5,-0.6 -3.3,0.4 -6.3,2.2 -9,4.2 -4,3 -7.4,6.8 -11.8,9.7 -2.4,1.6 -5.7,2.9 -7.9,0.9 -2,-1.9 -1.8,-5.9 1.2,-9.09 0.4,-0.3 0.8,-0.11 0.7,0.2 -0.3,1.5 0.1,2.89 1.2,3.89 1.3,1.2 3.2,1.3 4.8,0.5 2,-0.9 3.1,-2.79 3.4,-4.79 0.6,-3.3 -1.9,-6.1 -5.1,-6.3 -2.5,-0.2 -5,0.7 -7.4,2.6 -1.1,1 -1.8,1.7 -2.9,3.2 -0.2,0.3 -0.6,0.4 -0.6,-0.2 0.1,-4.1 -1.6,-6.4 -5,-6.5 -2.7,0 -5.6,1.4 -7.8,3.1 -2.4,2 -4.6,4.6 -6.9,7 -0.2,0.3 -0.5,0.3 -0.6,-0.3 0,-2.8 -0.7,-5.4 -2,-7.3 -0.5,-0.6 -1.4,-1 -2.2,-0.5 -0.4,0.2 -1.7,0.8 -2.6,1.5 -0.5,0.4 -0.7,0.9 -0.4,1.6 1.2,4.1 0.9,8.8 -0.8,12.7 -1.5,3.6 -4.5,6.8 -8,7.9 -2.3,0.8 -4.7,0.4 -6.2,-1.6 -2,-2.8 -1.2,-7.7 1.8,-11.8 2.7,-3.5 6.6,-5.8 10.5,-7.2 0.4,-0.2 0.5,-0.5 0.4,-0.9 -0.2,-0.6 -0.5,-1.5 -0.7,-1.9 -0.3,-0.9 -1.3,-1.1 -2.5,-0.9 -2.9,0.3 -5.4,1.3 -7.9,2.6 -6.6,3.5 -9.9,10.2 -11.3,13.8 -0.7,1.8 -1.3,2.8 -2.1,3.8 -1,1.3 -2.3,2.5 -4.7,4.5 -0.2,0.2 -0.4,0.6 -0.2,1 0.2,0.5 1.5,2.2 1.8,2.4 0.4,0.2 0.9,-0.1 1,-0.2 1.7,-1.1 3.7,-2.9 4.7,-4.1 0.3,-0.4 0.7,-0.3 0.8,0.4 1,3.2 3.3,5.8 6.6,6.9 6.1,2 12.3,-0.9 17,-6 3,-3.2 4.1,-5.3 5.3,-6.7 1.9,-2.4 5.8,-7.7 10.3,-11.2 1.7,-1.2 3.7,-2.2 4.7,-1.5 0.8,0.5 1.1,1.7 -0.2,4 -4.7,8.4 -11.6,18.3 -12.8,20.7 -0.2,0.5 0,0.8 0.4,0.8 h 7.1 c 0.3,0 0.5,-0.2 0.7,-0.5 3.6,-5.5 6.9,-10.8 10.6,-16.3 0.2,-0.3 0.4,0 0.4,0.1 0,1.3 0.3,3 1.1,4.1 1.4,2.2 3.3,3.1 5.5,3.1 1.7,0 2.5,-0.3 4.4,-0.9 1.5,-0.6 2.7,-1.3 3.6,-2 0.5,-0.3 0.6,0.3 0.6,0.4 -0.8,4.4 0.2,9.6 4.6,11.8 5.3,2.6 11.1,-1.1 14.5,-4.4 0.3,-0.3 0.7,-0.2 0.7,0.4 0.1,1.3 0.6,2.8 1.7,3.8 2.8,2.8 8.5,1.7 14.1,-2.7 3.7,-2.7 7.5,-6.7 11,-10.8 0.1,-0.2 0.2,-0.5 -0.1,-0.7 -0.5,-0.6 -1.3,-1.2 -1.8,-1.7 -0.2,-0.2 -0.6,-0.1 -0.8,0 -3.5,3.4 -6.7,7.2 -11.3,10.3 -1.5,1.09 -4,1.9 -5.1,0.4 -0.4,-0.5 -0.4,-1.3 0,-2.4 1.4,-3.3 22.6,-35.3 23.7,-37.2 0.2,-0.3 0,-0.5 -0.4,-0.5 z M 205,61.5 c 0.5,0 1,0.1 1.5,0.32 2.6,1.21 1.8,4.2 0.6,6.6 -0.1,0.2 -0.1,0.3 0,0.5 0,0 -0.1,-0.1 -0.1,-0.1 0.1,0.5 0.2,1.3 0.3,1.97 -0.7,1.35 -1.5,2.35 -2.4,3.74 -1,1.5 -2.2,2.7 -3.6,3.9 -2.2,1.8 -5.1,3.7 -7.6,2.4 -1.1,-0.6 -1.5,-2.1 -1.5,-3.3 0,-3.5 1.6,-7 4.4,-10.5 2.8,-3.41 6,-5.5 8.4,-5.53 z"></path>
  </svg>
