<?xml version="1.0"?>
<!--?xml version="1.0" encoding="UTF-8" standalone="no"?-->
<svg xmlns="http://www.w3.org/2000/svg" viewBox="0 0 287.94 106.26" height="106.26" width="287.94">
  <path d="m 244,46.55 v 37.63 h -7.93 V 22 h 6.66 l 15.19,37.63 V 22 h 8.02 v 62.18 h -6.75 L 244,46.55 v 0 m -36.66,37.71 h -8.18 L 213.5,22.08 h 6.33 l 14.51,62.18 h -8.27 L 222.1,66.88 h -10.79 l -3.97,17.38 m 9.37,-40.58 -3.55,15.27 h 7.09 L 216.71,43.68 M 161.77,54.4 v 29.78 h -7.93 V 22 h 7 L 173.41,65.79 185.9,22 h 7 v 62.18 h -7.93 V 54.4 l -8.61,29.78 h -5.99 l -8.6,-29.78 v 0 M 148.26,30.01 h -17.8 v 19.15 h 17.8 v 7.94 h -17.8 v 19.23 h 17.8 v 7.93 H 122.53 V 22.08 h 25.73 v 7.93 0 m -36.7,23.63 c 1.51,1.46 2.67,3.2 3.46,5.23 0.84,2.02 1.26,4.33 1.26,6.92 v 18.39 h -8.01 V 65.79 c 0,-5.46 -2.65,-8.19 -7.94,-8.19 H 96.37 95.36 V 84.18 H 87.42 V 22 h 12.91 c 5.35,0 9.37,1.57 12.07,4.72 2.47,2.87 3.71,7.2 3.71,12.99 0,5.74 -1.24,10.1 -3.71,13.08 -0.11,0.11 -0.25,0.26 -0.42,0.42 -0.11,0.17 -0.26,0.31 -0.42,0.43 m -11.23,-4.05 c 2.14,0 3.6,-0.26 4.39,-0.76 0.85,-0.51 1.38,-0.9 1.6,-1.18 1.24,-1.58 1.86,-4.22 1.86,-7.94 0,-2.08 -0.17,-3.74 -0.51,-4.97 -0.33,-1.3 -0.84,-2.28 -1.51,-2.96 -0.62,-0.73 -1.44,-1.21 -2.45,-1.43 -0.96,-0.23 -2.08,-0.34 -3.38,-0.34 h -4.97 v 19.58 h 1.01 3.96 M 68.08,84.18 c -2.98,0 -5.37,-0.54 -7.17,-1.6 -1.8,-1.07 -3.15,-2.17 -4.05,-3.29 -2.37,-3.04 -3.55,-7.32 -3.55,-12.83 V 39.71 c 0,-5.51 1.18,-9.78 3.55,-12.82 0.45,-0.56 0.98,-1.13 1.6,-1.69 0.67,-0.56 1.46,-1.07 2.36,-1.52 0.96,-0.5 2.03,-0.9 3.21,-1.18 1.18,-0.34 2.53,-0.5 4.05,-0.5 3.04,0 5.43,0.53 7.17,1.6 1.8,1.07 3.15,2.16 4.05,3.29 2.36,3.04 3.54,7.31 3.54,12.82 v 26.75 c 0,5.51 -1.18,9.79 -3.54,12.83 -0.9,1.12 -2.25,2.22 -4.05,3.29 -1.74,1.06 -4.13,1.6 -7.17,1.6 m 0,-54.17 c -0.62,0 -1.32,0.1 -2.11,0.17 -0.73,0.11 -1.46,0.48 -2.2,1.1 -0.73,0.56 -1.35,1.52 -1.85,2.87 -0.45,1.29 -0.68,3.15 -0.68,5.56 v 26.75 c 0,2.48 0.23,4.39 0.68,5.74 0.5,1.29 1.12,2.25 1.85,2.87 0.74,0.56 1.47,0.9 2.2,1.01 0.79,0.11 1.49,0.17 2.11,0.17 0.56,0 1.24,-0.1 2.02,-0.17 0.79,-0.11 1.55,-0.45 2.28,-1.01 0.73,-0.62 1.32,-1.58 1.77,-2.87 0.51,-1.35 0.76,-3.26 0.76,-5.74 V 39.71 c 0,-2.41 -0.25,-4.27 -0.76,-5.56 -0.45,-1.35 -1.04,-2.31 -1.77,-2.87 -0.73,-0.62 -1.49,-0.99 -2.28,-1.1 -0.78,-0.11 -1.46,-0.17 -2.02,-0.17 m -20.34,0 H 29.93 V 49.16 H 47.74 V 57.1 H 29.93 V 84.26 H 22 V 22.08 h 25.74 v 7.93 0"></path>
</svg>
