<?xml version="1.0"?>

<svg xmlns="http://www.w3.org/2000/svg" viewBox="0 0 303.2 128.3" height="128.3" width="303.2"> <path d="M 151.6,22 C 80.03,22 22,40.87 22,64.15 22,87.43 80.03,106.3 151.6,106.3 223.2,106.3 281.2,87.43 281.2,64.15 281.2,40.87 223.2,22 151.6,22 Z M 53.95,48.05 c 0.1,0 0.13,0 1.24,0.1 1.15,0 3.32,0.1 7.71,0.1 l 0.53,0 c 4.6,0 6.9,-0.1 8.05,-0.1 1.2,0 1.24,-0.1 1.29,-0.1 0.71,0 0.75,0.22 0.75,0.8 l 0,4.69 c 0,0.13 0,0.84 -0.49,0.84 -0.48,0 -0.79,-0.66 -0.88,-0.88 -1.06,-2.44 -1.77,-3.9 -8.28,-3.9 -1.51,0 -2.26,0.1 -2.26,2.17 l 0,5.89 c 0,2.39 0.13,2.43 0.71,2.52 0.66,0.1 2.04,0.1 2.7,0.1 3.59,0 4.07,-1.02 4.78,-3.27 0.1,-0.36 0.27,-0.72 0.71,-0.72 0.44,0 0.53,0.32 0.53,0.76 0,0.62 -0.13,3.63 -0.13,4.29 0,0.4 0,1.16 0.1,2.17 l 0.18,2.09 c 0,0.3 0,0.83 -0.54,0.83 -0.44,0 -0.66,-0.4 -0.71,-0.71 -0.1,-0.21 -0.39,-1.45 -0.48,-1.68 -0.62,-2.39 -3.46,-2.39 -4.56,-2.39 -3.28,0 -3.28,0 -3.28,2.08 l 0,7.53 c 0,1.73 0,3.05 2.04,3.19 1.28,0 1.9,0.1 1.9,0.75 0,0.62 -0.58,0.62 -0.93,0.62 -1.51,0 -3.85,-0.18 -5.35,-0.18 -1.47,0 -3.82,0.18 -5.28,0.18 -0.35,0 -0.93,0 -0.93,-0.66 0,-0.62 0.67,-0.66 1.6,-0.71 2.21,-0.18 2.21,-1.33 2.21,-3.15 l 0,-18.72 0,0 c 0,-1.82 0,-3.02 -2.21,-3.15 -0.93,-0.1 -1.6,-0.13 -1.6,-0.75 0,-0.62 0.58,-0.62 0.89,-0.62 z m 151.25,2.53 c 0.5,0 0.5,0.61 0.5,1.51 l -0.3,4.61 c 0,0.75 -0.1,1.2 -0.6,1.2 -0.2,0 -0.4,0 -0.6,-0.83 -0.6,-3.62 -2.5,-3.62 -4.9,-3.62 -2.2,0 -2.4,0 -2.4,1.25 l 0,17.2 0,0 c 0,1.55 0.1,2.56 1.9,2.68 0.8,0 1.4,0.1 1.4,0.64 0,0.57 -0.5,0.56 -0.8,0.56 -1.3,0 -3.2,-0.14 -4.5,-0.14 -0.6,0 -3.7,0.14 -4.4,0.14 -0.3,0 -0.8,0 -0.8,-0.56 0,-0.53 0.5,-0.57 1.3,-0.64 1.9,-0.12 1.9,-1.13 1.9,-2.61 l 0,-17.54 c 0,-0.98 -0.3,-0.98 -1,-0.98 -2.3,0 -4.8,0 -6.7,3.58 -0.4,0.61 -0.5,0.76 -0.9,0.76 -0.3,0 -0.5,-0.26 -0.5,-0.49 0,-0.19 0.1,-0.42 0.1,-0.61 l 1.6,-5.31 c 0.1,-0.46 0.2,-0.68 0.5,-0.68 0.3,0 0.5,0.18 0.5,0.53 0.2,1.01 0.9,1.05 1.7,1.05 l 12.1,0 c 3.9,0 4.1,-0.49 4.3,-1.17 0.2,-0.3 0.3,-0.53 0.6,-0.53 z M 87.03,51.9 c 7.06,0 12.75,5.17 12.75,11.66 0,7.32 -6.45,12.45 -12.87,12.45 -6.6,0 -12.89,-4.9 -12.89,-12.11 0,-6.79 5.69,-12 13.01,-12 z m 89.37,0 c 2.2,0 4.4,0.61 5,0.87 0.4,0.26 0.4,0.6 0.4,3.92 0,0.84 0,1.14 -0.5,1.14 -0.4,0 -0.5,-0.23 -0.9,-1.4 -0.5,-1.47 -1.1,-3.62 -4.3,-3.62 -3.1,0 -4.1,2.15 -4.1,3.62 0,2.68 2.2,3.62 5.2,4.87 2.1,0.9 6.1,2.75 6.1,7.02 0,4.18 -3.1,7.69 -8.1,7.69 -3,0 -5.3,-1.02 -6,-1.51 -0.4,-0.3 -0.5,-0.83 -0.5,-1.77 0,-0.15 0,-2.03 0.1,-3.39 0,-0.16 0.1,-0.68 0.5,-0.68 0.4,0 0.5,0.29 0.6,0.63 0.7,3.36 3.2,5.74 5.9,5.74 1.6,0 4.5,-1.13 4.5,-4.19 0,-2.94 -2.6,-4.38 -5.3,-5.62 -3,-1.36 -6,-2.83 -6,-6.83 0,-3.47 2.6,-6.49 7.4,-6.49 z m -75.5,0.23 c 0.4,0 2.2,0.15 2.7,0.15 1,0 6,-0.15 7.2,-0.15 6.6,0 7.2,4.6 7.2,5.92 0,4.42 -3.9,5.32 -5.2,5.59 0.5,0.3 1,0.52 1.9,2.11 l 3.6,6.49 c 0.8,1.32 1.3,2.26 2.3,2.41 1.3,0.16 1.6,0.19 1.6,0.68 0,0.42 -0.4,0.45 -0.6,0.45 -0.5,0 -3,-0.15 -3.6,-0.15 -0.3,0 -1.6,0.15 -2,0.15 -0.7,0 -0.8,-0.33 -1.2,-1.13 l -4.6,-8.6 c -0.8,-1.62 -1,-1.77 -2.7,-1.77 -0.7,0 -0.7,0.22 -0.7,0.87 l 0,6.79 c 0,1.58 0,2.6 1.8,2.71 0.9,0 1.4,0.1 1.4,0.64 0,0.53 -0.5,0.49 -0.8,0.49 -0.7,0 -4.4,-0.15 -4.5,-0.15 -0.7,0 -3.7,0.15 -4.4,0.15 -0.3,0 -0.78,0 -0.78,-0.52 0,-0.53 0.58,-0.57 1.38,-0.61 1.8,-0.15 1.8,-1.13 1.8,-2.71 l 0,-16 c 0,-1.55 0,-2.57 -1.8,-2.68 -0.9,0 -1.38,-0.1 -1.38,-0.6 0,-0.53 0.15,-0.53 1.38,-0.53 z m 24.3,0 c 0.3,0 2.2,0.15 2.7,0.15 1,0 6,-0.15 7.1,-0.15 6.7,0 7.3,4.6 7.3,5.92 0,4.42 -3.9,5.32 -5.2,5.59 0.5,0.3 0.9,0.52 1.8,2.11 l 3.7,6.49 c 0.7,1.32 1.2,2.26 2.3,2.41 1.2,0.16 1.5,0.19 1.5,0.68 0,0.42 -0.3,0.45 -0.6,0.45 -0.5,0 -2.9,-0.15 -3.5,-0.15 -0.3,0 -1.7,0.15 -2,0.15 -0.7,0 -0.9,-0.33 -1.3,-1.13 l -4.5,-8.6 c -0.9,-1.62 -1.1,-1.77 -2.8,-1.77 -0.6,0 -0.7,0.22 -0.7,0.87 l 0,6.79 c 0,1.58 0,2.6 1.9,2.71 0.8,0 1.4,0.1 1.4,0.64 0,0.53 -0.5,0.49 -0.8,0.49 -0.7,0 -4.4,-0.15 -4.6,-0.15 -0.6,0 -3.7,0.15 -4.3,0.15 -0.3,0 -0.8,0 -0.8,-0.52 0,-0.53 0.5,-0.57 1.3,-0.61 1.9,-0.15 1.9,-1.13 1.9,-2.71 l 0,-16 c 0,-1.55 0,-2.57 -1.9,-2.68 -0.8,0 -1.3,-0.1 -1.3,-0.6 0,-0.53 0.1,-0.53 1.4,-0.53 z m 105.1,0 c 0.4,0 2.2,0.15 2.7,0.15 1,0 6,-0.15 7.2,-0.15 6.6,0 7.2,4.6 7.2,5.92 0,4.42 -3.9,5.32 -5.2,5.59 0.5,0.3 1,0.52 1.9,2.11 l 3.6,6.49 c 0.8,1.32 1.3,2.26 2.4,2.41 1.2,0.16 1.5,0.19 1.5,0.68 0,0.42 -0.4,0.45 -0.6,0.45 -0.5,0 -3,-0.15 -3.6,-0.15 -0.3,0 -1.6,0.15 -2,0.15 -0.7,0 -0.8,-0.33 -1.2,-1.13 l -4.6,-8.6 c -0.8,-1.62 -1,-1.77 -2.7,-1.77 -0.7,0 -0.7,0.22 -0.7,0.87 l 0,6.79 c 0,1.58 0,2.6 1.9,2.71 0.8,0 1.3,0.1 1.3,0.64 0,0.53 -0.5,0.49 -0.8,0.49 -0.7,0 -4.4,-0.15 -4.5,-0.15 -0.6,0 -3.7,0.15 -4.4,0.15 -0.3,0 -0.8,0 -0.8,-0.52 0,-0.53 0.6,-0.57 1.4,-0.61 1.8,-0.15 1.8,-1.13 1.8,-2.71 l 0,-16 0,0 c 0,-1.55 0,-2.57 -1.8,-2.68 -0.8,0 -1.4,-0.1 -1.4,-0.6 0,-0.53 0.2,-0.53 1.4,-0.53 z m -81.9,0 c 0,0 0.1,0 0.9,0.1 0.8,0 2.5,0.1 5.7,0.1 l 1.8,0 c 3.9,0 5.8,0 6.8,-0.1 1,0 1,-0.1 1.1,-0.1 0.5,0 0.5,0.3 0.5,1.17 l 0,3.47 c 0,0.19 0,0.64 -0.4,0.64 -0.4,0 -0.5,-0.15 -1.2,-1.55 -0.4,-0.98 -1.3,-2.41 -6.7,-2.41 -1.9,0 -2,0.26 -2,2.15 l 0,5.47 c 0,1.21 0,1.51 2.2,1.51 4.2,0 4.5,-0.83 5.2,-2.83 0.2,-0.49 0.4,-0.57 0.6,-0.57 0.2,0 0.4,0.12 0.4,0.53 0,0.53 -0.3,4.42 -0.3,5.25 0,0.26 0.1,1.58 0.1,1.88 0,0.23 0,0.75 -0.4,0.75 -0.3,0 -0.6,-0.18 -0.8,-0.9 -0.7,-2.9 -1.8,-2.94 -4.9,-2.94 -1.8,0 -2.1,0 -2.1,1.13 l 0,6.49 c 0,2.68 0.8,3.09 4,3.09 1.6,0 4,0 5.6,-3.2 0.7,-1.32 0.8,-1.47 1.1,-1.47 0.3,0 0.5,0.34 0.5,0.56 0,0.49 -0.5,2.91 -0.6,4.3 0,0.72 -0.4,1.13 -1.5,1.13 -1.9,0 -4.5,0 -6.7,-0.1 -2.2,0 -4,-0.1 -4.2,-0.1 l -0.4,0 c -1.6,0 -2.5,0 -3.1,0.1 -0.6,0 -0.9,0.1 -1.2,0.1 -0.3,0 -0.8,0 -0.8,-0.56 0,-0.53 0.6,-0.57 1.4,-0.64 1.9,-0.12 1.9,-1.13 1.9,-2.68 l 0,-15.92 c 0,-1.55 0,-2.57 -1.9,-2.68 -0.9,0 -1.4,-0.1 -1.4,-0.64 0,-0.53 0.5,-0.53 0.8,-0.53 z m 60.2,0 c 0.1,0 0.1,0 0.9,0.1 0.9,0 2.5,0.1 5.7,0.1 l 1.8,0 c 3.9,0 5.8,0 6.8,-0.1 1,0 1.1,-0.1 1.2,-0.1 0.4,0 0.4,0.3 0.4,1.17 l 0,3.47 c 0,0.19 0,0.64 -0.4,0.64 -0.4,0 -0.4,-0.15 -1.1,-1.55 -0.5,-0.98 -1.4,-2.41 -6.7,-2.41 -1.9,0 -2.1,0.26 -2.1,2.15 l 0,5.47 c 0,1.21 0,1.51 2.2,1.51 4.2,0 4.5,-0.83 5.2,-2.83 0.2,-0.49 0.4,-0.57 0.6,-0.57 0.2,0 0.4,0.12 0.4,0.53 0,0.53 -0.3,4.42 -0.3,5.25 0,0.26 0.2,1.58 0.2,1.88 0,0.23 0,0.75 -0.5,0.75 -0.3,0 -0.5,-0.18 -0.7,-0.9 -0.8,-2.9 -1.9,-2.94 -5,-2.94 -1.8,0 -2.1,0 -2.1,1.13 l 0,6.49 c 0,2.68 0.8,3.09 4,3.09 1.6,0 4,0 5.6,-3.2 0.7,-1.32 0.8,-1.47 1.1,-1.47 0.4,0 0.5,0.34 0.5,0.56 0,0.49 -0.4,2.91 -0.5,4.3 -0.1,0.72 -0.5,1.13 -1.5,1.13 -2,0 -4.6,0 -6.8,-0.1 -2.2,0 -3.9,-0.1 -4.1,-0.1 l -0.5,0 c -1.5,0 -2.5,0 -3.1,0.1 -0.6,0 -0.9,0.1 -1.2,0.1 -0.3,0 -0.8,0 -0.8,-0.56 0,-0.53 0.6,-0.57 1.4,-0.64 1.9,-0.12 1.9,-1.13 1.9,-2.68 l 0,-15.92 c 0,-1.55 0,-2.57 -1.9,-2.68 -0.8,0 -1.4,-0.1 -1.4,-0.64 0,-0.53 0.5,-0.53 0.8,-0.53 z M 86.57,52.89 c -5.28,0 -8.03,4.86 -8.03,10.22 0,6.11 3.58,11.92 8.68,11.92 5.28,0 8.03,-5.85 8.03,-11.32 0,-4.49 -2.68,-10.82 -8.68,-10.82 z m 21.93,0.3 c -1.7,0 -1.7,0.9 -1.7,2.38 l 0,6.33 0,0 c 0,1.32 0,1.4 1.8,1.4 1.4,0 5.1,0 5.1,-4.72 0,-1.36 -0.5,-5.39 -5.2,-5.39 z m 24.3,0 c -1.7,0 -1.8,0.9 -1.8,2.38 l 0,6.33 c 0,1.32 0,1.4 1.9,1.4 1.4,0 5.1,0 5.1,-4.72 0,-1.36 -0.5,-5.39 -5.2,-5.39 z m 105.1,0 c -1.7,0 -1.7,0.9 -1.7,2.38 l 0,6.33 c 0,1.32 0,1.4 1.9,1.4 1.3,0 5.1,0 5.1,-4.72 0,-1.36 -0.6,-5.39 -5.3,-5.39 z"></path> </svg>