<?xml version="1.0"?>

<svg xmlns="http://www.w3.org/2000/svg" viewBox="0 0 1043.01 221.223" height="221.223" width="1043.01">
  <path d="M 351.002,108.092 V 29.3443 h 19.037 c 24.113,0 30.403,14.0071 30.403,37.4966 0,25.1366 -3.779,41.2511 -30.403,41.2511 z m -123.379,85.693 c -31.645,0 -41.494,-20.099 -41.494,-83.814 0,-62.8316 9.435,-82.5331 40.225,-82.5331 31.452,0 40.639,20.1291 40.639,82.3351 0,62.633 -9.187,84.012 -39.37,84.012 m -1.379,5.438 c 49.219,0 69.994,-37.295 69.994,-90.077 0,-51.7296 -19.92,-87.146 -69.36,-87.146 -50.268,0 -70.187,36.8676 -70.187,89.453 0,51.758 19.919,87.77 69.553,87.77 m 243.613,-1.049 h 80.23 v -4.613 L 523.491,192.32 V 29.1318 h 28.913 l 17.602,54.2627 h 4.828 L 573.179,23.694 H 446.875 l -1.931,59.7005 h 5.049 l 17.822,-54.2627 h 29.107 V 192.32 l -27.037,1.241 z m 389.837,0.635 h 4.414 V 30.6079 l 24.527,-2.3175 v -4.613 h -56.337 v 4.613 l 24.499,2.3175 V 143.52 L 783.685,23.6912 H 737.17 v 4.613 l 18.209,2.3175 3.145,4.8115 V 191.078 l -25.768,2.511 v 4.613 h 57.634 v -4.613 l -24.527,-2.511 V 47.3628 Z M 22,198.174 h 80.23 v -4.613 l -27.6448,-1.048 v -84.412 h 28.0858 l 3.752,36.241 h 4.828 V 68.5266 h -4.828 l -3.752,34.3354 H 74.5852 V 29.3525 h 46.9298 l 17.602,54.0364 h 4.8 L 142.538,23.6885 H 22.0828 v 4.6129 L 47.658,29.3498 V 192.51 l -25.5752,1.049 z m 871.436,0 h 122.774 l 4.8,-65.138 h -4.61 l -21.16,59.472 -48.778,0.275 v -84.641 h 28.059 l 3.117,36.242 h 4.828 V 68.568 h -4.828 l -3.117,34.335 H 946.462 V 29.3939 h 48.778 l 16.36,53.2115 h 4.8 l -1.1,-58.8755 H 893.574 v 4.6129 l 25.768,1.0484 V 192.552 l -25.768,1.048 z m -235.254,1.049 c 43.177,0 50.681,-19.671 50.681,-40.427 V 30.5968 l 22.651,-2.3175 v -4.6129 h -51.316 v 4.6129 l 20.94,2.3175 V 158.796 c 0,21.779 -10.677,30.577 -33.714,30.577 -32.5,0 -38.542,-10.903 -38.542,-32.028 V 29.3443 l 26.568,-1.0484 v -4.613 h -77.057 v 4.613 l 23.037,1.0484 V 154.186 c 0,31.201 17.161,45.037 56.752,45.037 m -359.241,-1.049 h 76.671 v -4.613 l -24.72,-1.048 V 113.34 h 15.284 c 19.479,0 25.355,3.159 28.914,26.591 l 8.801,58.249 h 47.123 v -4.613 l -21.768,-1.048 -8.801,-55.289 c -3.173,-20.099 -14.65,-24.911 -33.935,-26.817 24.278,-4.186 40.004,-16.3415 40.004,-43.986 0,-27.2168 -9.242,-42.733 -54.682,-42.733 h -73.084 v 4.6129 l 25.548,1.0484 V 192.516 l -25.355,1.048 z"></path>
 </svg>
