<?xml version="1.0"?>

<svg xmlns="http://www.w3.org/2000/svg" viewBox="0 0 313.1 98.38" version="1.1" height="98.38" width="313.1">
   
 
  <path d="m 258.1,22.03 c -4.5,0 -8.2,3.7 -8.2,8.2 0,3 0,43.3 0,43.3 0,0.8 0.3,1.5 0.8,2 0.5,0.5 1.3,0.8 2,0.8 l 11.2,0 c 15,0 27.2,-12.2 27.2,-27.1 0,-15 -12.2,-27.2 -27.2,-27.2 l -5.8,0 z m 0,5.6 5.8,0 c 12,0 21.6,9.6 21.6,21.6 0,11.9 -9.6,21.5 -21.6,21.5 l -5.9,0 c -1.4,0 -2.5,-1.1 -2.5,-2.5 0,-7.5 0,-35.4 0,-38 0,-1.5 1.1,-2.6 2.6,-2.6 z m -31.9,-5.6 c -1.9,0.2 -3.8,0.6 -5.7,1.4 -5.5,2.2 -8.8,6.7 -8.9,11.6 -0.1,4.8 2.8,9.6 8.3,12.5 l 15,8 c 4,2.1 5.3,5 5.1,7.7 -0.3,2.7 -2.2,5.6 -6.3,7.3 -5.3,2.1 -12.2,-0.8 -15.8,-2.8 -0.8,-0.6 -1.8,-0.6 -2.7,-0.2 -0.8,0.5 -1.3,1.4 -1.3,2.4 0,0.9 0.6,1.8 1.5,2.2 4.1,2.3 12.3,6.3 20.2,3 5.5,-2.2 9,-6.6 9.4,-11.4 0.5,-4.9 -2.3,-9.9 -7.7,-12.7 l -15.1,-8 c -4.1,-2.2 -5.6,-5.2 -5.6,-7.9 0.1,-2.7 1.8,-5.4 5.8,-7 5.5,-2.3 11.5,-0.1 15,1.9 0.8,0.5 1.8,0.6 2.6,0.1 0.9,-0.5 1.3,-1.3 1.3,-2.3 0,-0.9 -0.5,-1.7 -1.3,-2.2 -3.2,-1.8 -8.2,-3.9 -13.8,-3.6 z m -82.7,15 c -10.3,0.5 -18.6,9.2 -18.6,19.7 0,10.8 8.8,19.6 19.6,19.6 4.9,0 9.1,-1.6 12.5,-4.5 0.5,-0.5 0.8,-1.1 0.8,-1.8 0,-1.4 -1.2,-2.5 -2.6,-2.5 -0.7,0 -1.3,0.2 -1.7,0.7 -2.5,1.9 -5.6,3 -9,3 -5.8,0 -10.8,-3.4 -13.1,-8.4 -0.2,-0.3 -0.3,-0.7 -0.3,-1.1 0,-1.4 1.1,-2.5 2.5,-2.5 l 28.1,0 c 1.4,0 2.5,-1.1 2.5,-2.5 0,-10.9 -8.8,-19.7 -19.7,-19.7 -0.3,0 -0.6,0 -1,0 z m 1,5.1 c 5.9,0 11,3.5 13.3,8.5 0,0 0,0 0,0 0.1,0.3 0.2,0.6 0.2,1 0,1.4 -1.2,2.5 -2.6,2.5 l -21.8,0 c -1.4,0 -2.5,-1.1 -2.5,-2.5 0,-0.4 0.1,-0.8 0.3,-1.1 2.3,-5 7.3,-8.4 13.1,-8.4 z m 42.3,-20.1 c -7.8,0 -14.2,6.4 -14.2,14.2 l 0,10.3 0,27.3 c 0,1.4 1.1,2.5 2.5,2.5 l 21.8,0 c 8.5,0 15.5,-6.9 15.5,-15.5 0,-6.8 -4.4,-12.6 -10.6,-14.7 2.5,-2.6 4.1,-6.1 4.1,-9.9 0,-7.8 -6.3,-14.1 -14.1,-14.2 0,0 0,0 -0.1,0 0,0 0,0 -0.1,0 -0.4,0 -1.6,0 -4.8,0 z m 0,5.1 c 3.2,0 4.4,0 4.8,0 0.1,0 0.1,0 0.1,0 5,0 9.1,4 9.1,9.1 0,5 -4.1,9.1 -9.1,9.1 l -11.5,0 c -1.4,0 -2.5,-1.2 -2.5,-2.6 l 0,-3 0,-3.5 c 0,-5.1 4,-9.1 9.1,-9.1 z m -6.6,23.3 16.7,0 c 5.7,0 10.4,4.6 10.4,10.4 0,5.8 -4.7,10.4 -10.4,10.4 l -19.2,0 0,-18.3 c 0,-1.4 1.1,-2.5 2.5,-2.5 z m -36.7,-13.4 c -10.3,0.5 -18.6,9.2 -18.6,19.7 0,10.8 8.8,19.6 19.6,19.6 4.9,0 9.1,-1.6 12.5,-4.5 0.5,-0.5 0.8,-1.1 0.8,-1.8 0,-1.4 -1.2,-2.5 -2.6,-2.5 -0.7,0 -1.3,0.2 -1.7,0.7 -2.5,1.9 -5.6,3 -9,3 -5.8,0 -10.8,-3.4 -13.1,-8.4 -0.2,-0.3 -0.3,-0.7 -0.3,-1.1 0,-1.4 1.1,-2.5 2.5,-2.5 l 28.1,0 c 1.4,0 2.5,-1.1 2.5,-2.5 0,-10.9 -8.8,-19.7 -19.7,-19.7 -0.3,0 -0.6,0 -1,0 z m 1,5.1 c 5.9,0 11,3.5 13.3,8.5 0,0 0,0 0,0 0.1,0.3 0.2,0.6 0.2,1 0,1.4 -1.2,2.5 -2.6,2.5 l -21.8,0 c -1.4,0 -2.5,-1.1 -2.5,-2.5 0,-0.4 0.1,-0.8 0.3,-1.1 2.3,-5 7.3,-8.4 13.1,-8.4 z m -79.7,-5.1 c -7.9,0 -14.8,6.3 -14.8,14 l 0,22.8 c 0,1.4 1.1,2.5 2.5,2.5 1.4,0 2.5,-1.1 2.5,-2.5 l 0,-22.8 c 0,-5.1 4.6,-8.9 9.8,-8.9 3.5,0 6.2,1.8 8.2,4.1 0.5,0.4 1.1,0.7 1.7,0.7 1.3,0 2.4,-1.1 2.4,-2.4 0,-0.5 -0.1,-0.9 -0.3,-1.2 -2.1,-3.4 -7.4,-6.3 -12,-6.3 z m -28.7,-15 c -7.8,0 -14.1,6.9 -14.1,14.8 l 0,37 c 0,1.4 1.1,2.5 2.5,2.5 1.4,0 2.6,-1.1 2.6,-2.5 l 0,-17.7 c 0,-2 1.6,-3.6 3.6,-3.6 l 11.6,0 c 1.4,0 2.5,-1.1 2.5,-2.5 0,-1.5 -1.1,-2.6 -2.5,-2.6 l -11.6,0 c -2,0 -3.6,-1.6 -3.6,-3.6 l 0,-7 c 0,-5.1 4,-9.7 9,-9.7 l 12,0 c 1.4,0 2.6,-1.2 2.6,-2.6 0,-1.4 -1.2,-2.5 -2.6,-2.5 l -12,0 z m 62.2,15 c -10.4,0.5 -18.7,9.2 -18.7,19.7 0,10.8 8.8,19.6 19.7,19.6 4.8,0 9.1,-1.6 12.5,-4.5 0.5,-0.5 0.7,-1.1 0.7,-1.8 0,-1.4 -1.1,-2.5 -2.5,-2.5 -0.7,0 -1.3,0.2 -1.8,0.7 -2.5,1.9 -5.5,3 -8.9,3 -5.8,0 -10.9,-3.4 -13.2,-8.4 -0.2,-0.3 -0.2,-0.7 -0.2,-1.1 0,-1.4 1.1,-2.5 2.5,-2.5 l 28,0 c 1.4,0 2.6,-1.1 2.6,-2.5 0,-10.9 -8.9,-19.7 -19.7,-19.7 -0.3,0 -0.7,0 -1,0 z m 1,5.1 c 5.9,0 10.9,3.5 13.2,8.5 0,0 0,0 0,0 0.1,0.3 0.2,0.6 0.2,1 0,1.4 -1.1,2.5 -2.5,2.5 l -21.8,0 c -1.4,0 -2.5,-1.1 -2.5,-2.5 0,-0.4 0,-0.8 0.2,-1.1 2.3,-5 7.4,-8.4 13.2,-8.4 z"></path>
</svg>
