<svg
 xmlns="http://www.w3.org/2000/svg"
  viewBox="0 0 752 385"
  height="285" width="512">
  <path class="logotype logotext" d="m 332.5,88 c 5.6,6 13.4,10 22,10 17.3,0 31.2,-14 31.2,-32 0,-17 -13.9,-31 -31.2,-31 0,0 -24,-2 -34.8,29 l 0,-23 c 8,-11 20.5,-19 34.8,-19 24.4,0 44,20 44,44 0,25 -19.6,44 -44,44 -12.1,0 -23.1,-5 -31.1,-12 L 308.2,81 c -4.1,-5 -9.8,-7 -16.1,-7 -12.6,0 -22.8,10 -22.8,23 0,12 10.2,22 22.8,22 0,0 16.9,3 27.6,-18 l 0,18 c -6.6,8 -16.5,13 -27.6,13 -19.6,0 -35.6,-16 -35.6,-35 0,-20 16,-36 35.6,-36 9.9,0 18.7,4 25.2,10 l 15.2,17 m 55.2,55 -8.6,29 c 6.9,-13 17.8,-13 17.8,-13 l 27.5,0 0,127 c 0,7 -5.4,15 -12.4,15 l 51.8,0 c -7,0 -12.4,-8 -12.4,-15 l 0,-127 22.9,0 c 7.1,0 12.8,6 12.8,13 l 8.5,-29 -107.9,0 m 192.4,26 c -8.5,-14 -28.4,-13 -28.4,-13 -31.6,0 -30.2,25 -30.2,25 0,0 -2.1,13 13.7,21 l 31.8,17 c 30.6,17 27,41 27,41 0,0 1.4,45 -62.6,45 0,0 -18.6,1 -29.1,-3 L 493,272 c 9.5,15 38.7,17 38.7,17 35.8,-1 36.1,-27 36.1,-27 0,0 1.7,-10 -12.4,-18 l -31.6,-18 c -33,-18 -29.2,-42 -29.2,-42 0,0 -0.8,-44 55.9,-44 0,0 25.5,1 29.6,5 l 0,24 m 51.6,90 c 0,16 13.4,30 29.8,30 16.4,0 29.7,-14 29.7,-31 l 0,-100 c 0,-7 -5.4,-15 -12.4,-15 l 51.8,0 c -7,0 -12.4,8 -12.4,15 l 0,98 c 0,31 -25.3,49 -56.5,49 -31.4,0 -57,-18 -57,-49 l 0.1,-98 c 0,-7 -5.4,-15 -12.5,-15 l 52,0 c -7.1,0 -12.6,8 -12.6,15 l 0,101 m -323,-101 c 0,-7 5.4,-15 12.6,-15 l -52,0 c 7.1,0 12.5,8 12.5,15 l 0,160 c 0,0 -0.5,29 -22.9,45 0,0 50,-7 50,-54 L 308.7,158 M 165.2,259 c 0,16 13.3,30 29.6,30 16.4,0 29.8,-14 29.8,-31 l 0,-100 c 0,-7 -5.4,-15 -12.5,-15 l 51.9,0 c -7.1,0 -12.5,8 -12.5,15 l 0,98 c 0,31 -25.2,49 -56.5,49 -31.4,0 -56.9,-18 -56.9,-49 l 0,-98 c 0,-7 -5.4,-15 -12.4,-15 l 51.8,0 c -7.1,0 -12.3,8 -12.3,15 l 0,101 m -103.8,-35 36.1,0 c 7,0 13.6,5 13.6,12 l -0.1,-28 -49.6,0 0,-49 48.1,0 c 7.1,0 13.6,6 13.6,13 l 0,-29 -101.1,0 c 7.1,0 12.4,8 12.4,15 l 0,128 c 0,7 -5.3,15 -12.4,15 l 51.9,0 c -7.1,0 -12.5,-8 -12.5,-15 l 0,-62 m 277.7,-66 c 0,-7 -5.4,-15 -12.4,-15 l 51.8,0 c -7,0 -12.4,8 -12.4,15 l 0,128 c 0,7 5.4,15 12.4,15 l -51.8,0 c 7,0 12.4,-8 12.4,-15 l 0,-128"></path></svg>

