<?xml version="1.0"?>

<svg xmlns="http://www.w3.org/2000/svg" viewBox="0 0 101.6 32.06" width="101.6" height="32.06">
  <path d="M 16.08,5.795 C 10.15,5.888 5.801,9.876 5.801,16.11 c 0,6.26 4.309,9.98 10.279,10.16 3.22,0.1 5.66,-0.66 8.09,-1.97 l 0,-9.69 -7.56,0 -0.28,3.38 4.03,0 0,4.12 c -1.13,0.51 -2.42,0.77 -4.25,0.72 -3.87,-0.1 -6.358,-2.89 -6.309,-6.94 0.05,-3.73 2.299,-6.452 6.029,-6.625 2.29,-0.104 4.2,0.547 5.5,1.655 L 23.86,8.359 C 21.76,6.503 19.09,5.749 16.08,5.795 Z m 33.41,2.907 0,12.628 c 0,3.13 0.98,4.69 4.37,4.69 0.93,0 1.67,-0.11 2.53,-0.35 l 0.25,-3 c -0.77,0.26 -1.37,0.32 -1.93,0.32 -1.29,0 -1.63,-0.69 -1.63,-1.94 l 0,-5.5 3.31,0 0.25,-3.1 -3.56,0 0,-3.748 -3.59,0 z M 32.21,12.11 c -2.09,0 -4.06,0.59 -5.94,2.13 l 2.06,2.09 c 0.96,-0.9 2.25,-1.41 3.56,-1.41 1.82,0 2.78,0.79 2.78,2.26 l 0,0.15 -0.62,0 c -3.17,0 -8.23,0.33 -8.16,4.75 0.1,2.81 2.37,4.03 4.82,4.03 1.62,0 3.21,-0.45 4.18,-1.65 l 0.1,1.31 3.18,0 0,-8.72 c 0,-3.02 -1.81,-4.94 -5.93,-4.94 z m 33.43,0 c -1.96,0 -3.28,0.89 -4,2.03 l -0.1,-1.69 -3.31,0 0,13.32 3.59,0 0,-7.25 c 0,-1.68 0.78,-3.13 2.78,-3.13 2.08,0 2.19,1.87 2.19,3.35 l 0,7.03 3.62,0 0,-8.38 c 0,-2.69 -1.15,-5.28 -4.78,-5.28 z m 13.25,0 c -3.87,0 -6.84,2.82 -6.84,7 0,4.19 2.99,7 7,7 2.28,0 4.27,-0.76 5.94,-2.81 l -2.35,-1.78 c -1.18,1.2 -2.06,1.67 -3.68,1.62 -1.67,0 -3.03,-1.08 -3.32,-2.78 l 9.88,0 0,-1.06 c 0,-4.59 -2.36,-7.19 -6.63,-7.19 z m -38.5,0.34 0,13.32 3.63,0 0,-7.03 c 0,-1.56 1.01,-3.19 3.03,-3.19 l 0.97,0 0.28,-3.1 -0.91,0 c -1.54,0 -2.78,0.52 -3.5,1.66 l -0.1,-1.66 -3.41,0 z m 46.75,0 0,13.32 3.6,0 0,-7.03 c 0,-1.56 1.03,-3.19 3.06,-3.19 l 1.28,0 0.25,-3.1 -1.22,0 c -1.54,0 -2.79,0.52 -3.5,1.66 l -0.1,-1.66 -3.41,0 z m -8.34,2.47 c 1.74,-0.1 3.01,0.98 3.12,2.66 l -6.28,0 c 0.24,-1.47 1.41,-2.59 3.16,-2.66 z m -44.63,5.04 0.5,0 0,0.56 c 0,3.03 -5.17,3.82 -5.18,1.31 0,-1.78 2.98,-1.87 4.68,-1.87 z m 59.82,2.46 c -0.99,0 -1.82,0.76 -1.82,1.79 0,1.03 0.83,1.81 1.82,1.81 0.97,0 1.81,-0.78 1.81,-1.81 0,-1.03 -0.83,-1.79 -1.81,-1.79 z m 0,0.32 c 0.81,0 1.47,0.62 1.47,1.47 0,0.86 -0.66,1.5 -1.47,1.5 -0.82,0 -1.47,-0.64 -1.47,-1.5 0,-0.85 0.65,-1.47 1.47,-1.47 z m -0.69,0.47 0,2.06 0.31,0 0,-0.91 0.35,0 0.56,0.91 0.34,0 -0.59,-0.91 c 0.3,0 0.56,-0.22 0.56,-0.59 0,-0.41 -0.26,-0.56 -0.75,-0.56 l -0.78,0 z m 0.31,0.25 0.44,0 c 0.22,0 0.44,0.1 0.44,0.31 0,0.32 -0.24,0.34 -0.5,0.34 l -0.38,0 0,-0.65 z"></path>
   
</svg>
