<?xml version="1.0"?>

<!-- Generator: Adobe Illustrator 19.1.0, SVG Export Plug-In . SVG Version: 6.00 Build 0)  -->
<svg version="1.1" id="svg2527" xmlns:svg="http://www.w3.org/2000/svg" xmlns="http://www.w3.org/2000/svg" xmlns:xlink="http://www.w3.org/1999/xlink" x="0px" y="0px" width="1024px" height="233px" viewBox="212 184 1024 233" style="enable-background:new 212 184 1024 233;" xml:space="preserve">

<g id="layer1" transform="translate(-330,-522.12906)">
	<path id="path2418" class="st0" d="M659,706.2c-67.5,1.1-117,46.4-117,117.3c0,71.2,49.1,113.5,117,115.6
		c36.6,1.1,64.3-7.5,92.1-22.4V806.5h-86l-3.2,38.4h45.9v46.9c-12.9,5.8-27.6,8.7-48.4,8.2c-44.1-1.2-72.4-33-71.8-78.9
		c0.6-42.4,26.2-73.4,68.6-75.4c26-1.2,47.8,6.2,62.6,18.8l28.8-29.2C723.6,714.2,693.2,705.7,659,706.2z M1039.1,739.3v143.6
		c0,35.5,11.2,53.3,49.8,53.3c10.5,0,19-1.3,28.8-3.9l2.8-34.1c-8.8,2.9-15.7,3.6-22,3.6c-14.6,0-18.5-7.8-18.5-22v-62.6h37.7
		l2.8-35.2H1080v-42.7H1039.1z M842.4,778c-23.8,0-46.1,6.8-67.6,24.2l23.5,23.8c10.9-10.2,25.6-16,40.5-16c20.7,0,31.6,9,31.6,25.6
		v1.8h-7.1c-36.1,0-93.6,3.7-92.8,54c0.6,32,26.9,45.9,54.8,45.9c18.5,0,36.6-5.1,47.6-18.8l0.7,14.9H910v-99.2
		C910,799.9,889.4,778,842.4,778z M1222.9,778c-22.3,0-37.4,10.1-45.5,23.1l-1.1-19.2h-37.7v151.5h40.9v-82.5
		c0-19.1,8.9-35.6,31.6-35.6c23.6,0,24.9,21.3,24.9,38v80h41.2v-95.3C1277.3,807.5,1264.1,778,1222.9,778z M1373.6,778
		c-44.1,0-77.9,32.1-77.9,79.6c0,47.6,34,79.6,79.6,79.6c26,0,48.6-8.6,67.6-32l-26.7-20.3c-13.5,13.7-23.5,19-42,18.5
		c-19-0.5-34.5-12.3-37.7-31.6H1449v-12.1C1449,807.5,1422.2,778,1373.6,778z M935.6,781.9v151.5h41.2v-80
		c0-17.7,11.5-36.3,34.5-36.3h11l3.2-35.2h-10.3c-17.6,0-31.7,5.9-39.8,18.8l-1.1-18.8H935.6z M1467.5,781.9v151.5h40.9v-80
		c0-17.7,11.8-36.3,34.8-36.3h14.6l2.8-35.2h-13.9c-17.5,0-31.7,5.9-39.8,18.8l-0.7-18.8H1467.5z M1372.6,810
		c19.8-0.8,34.3,11.1,35.6,30.2h-71.5C1339.4,823.4,1352.7,810.8,1372.6,810z M864.8,867.3h5.7v6.4c0,34.4-58.8,43.5-59,14.9
		C811.4,868.3,845.5,867.3,864.8,867.3z M1545.4,895.4c-11.2,0-20.6,8.6-20.6,20.3c0,11.8,9.4,20.6,20.6,20.6
		c11.1,0,20.6-8.8,20.6-20.6C1566,903.9,1556.5,895.4,1545.4,895.4z M1545.4,898.9c9.2,0,16.7,7.1,16.7,16.7
		c0,9.8-7.5,17.1-16.7,17.1c-9.3,0-16.7-7.3-16.7-17.1C1528.7,906,1536,898.9,1545.4,898.9z M1537.6,904.2v23.5h3.6v-10.3h3.9
		l6.4,10.3h3.9l-6.8-10.3c3.4-0.4,6.4-2.5,6.4-6.8c0-4.7-3-6.4-8.5-6.4H1537.6z M1541.1,907.1h5c2.5,0,5,0.6,5,3.6
		c0,3.6-2.7,3.9-5.7,3.9h-4.3V907.1z"></path>
</g>
</svg>
