<?xml version="1.0"?>

<svg xmlns:dc="http://purl.org/dc/elements/1.1/" xmlns:cc="http://creativecommons.org/ns#" xmlns:rdf="http://www.w3.org/1999/02/22-rdf-syntax-ns#" xmlns:svg="http://www.w3.org/2000/svg" xmlns="http://www.w3.org/2000/svg" viewBox="0 0 412 102.5" height="102.5" width="412" xml:space="preserve" version="1.1" id="svg3638"><defs id="defs3642"></defs><path d="m 185,66.56 0,-33 8.6,0 15.6,20.05 0.1,-20.05 8.5,0 0,33 -8.5,0 -15.7,-20.19 0,20.19 -8.6,0 0,0 m -35.8,0 0,-33 18.9,0 0,7.4 -10.3,0 0,5.41 9.6,0 0,7.18 -9.6,0 0,5.78 10.3,0 0,7.23 -18.9,0 0,0 m -33.9,-11.71 0,-6.72 16.9,0 c 0,0.23 0,0.5 0,0.76 0,0.28 0,0.68 0,1.23 0,5.81 -1.6,9.54 -4.7,12.76 -3.1,3.18 -6,4.78 -11.6,4.78 -2.8,0 -5.4,-0.41 -7.6,-1.22 -2.1,-0.83 -4.1,-2.08 -5.7,-3.76 -1.6,-1.62 -2.9,-3.54 -3.81,-5.73 -0.88,-2.19 -1.1,-4.52 -1.1,-6.94 0,-2.5 0.44,-4.82 1.3,-6.91 0.85,-2.14 1.91,-4.04 3.71,-5.72 1.7,-1.66 3.6,-2.9 5.8,-3.72 2.2,-0.87 4.8,-1.3 7.4,-1.3 6.4,0 12.1,3.94 14.6,9.22 l -8,3.46 c -1.6,-2.78 -3.8,-5.1 -6.9,-5.1 -2.8,0 -5,1.04 -6.6,2.86 -1.6,1.85 -2.4,4.36 -2.4,7.53 0,3.22 0.8,5.74 2.4,7.57 1.6,1.86 4.1,2.68 6.9,2.83 3.1,0.19 6.3,-3.09 6.4,-5.88 l -7,0 0,0 m 127.6,-1.65 0.8,0 c 2.8,0 7.2,-0.39 7.2,3.63 0,3.65 -4.4,3.51 -7,3.51 l -1,0 0,-7.14 m 4.6,13.77 c 6.2,0 12,-2.29 12,-9.28 0,-4.62 -2,-7.84 -6.8,-8.46 l 0,-0.14 c 2.7,-1.36 3.8,-3.8 3.8,-6.78 0,-6.36 -4,-8.65 -10,-8.65 l -12.3,0 0,33.27 13.3,0 z m -4.6,-26.66 0.5,0 c 2.4,0 5.1,0.17 5.1,3.23 0,2.81 -2.4,3.22 -4.7,3.22 l -0.9,0 0,-6.45 z m 51,20.87 2.2,5.79 9.2,0 -12.6,-33.27 -9.4,0 -12.8,33.27 9.2,0 2.4,-5.79 11.8,0 m -2.4,-6.62 -7.2,0 3.6,-10.59 0.2,0 3.4,10.59 z m 26.8,12.41 8.6,0 0,-20.38 0.1,0 15.9,20.38 8.6,0 0,-33.27 -8.6,0 0,20.34 -0.2,0 -15.8,-20.34 -8.6,0 0,33.27 m 49.1,0 12.2,0 c 9.2,0 17,-7.28 17,-16.64 0,-9.35 -7.6,-16.63 -17,-16.63 l -12.2,0 0,33.27 m 8.6,-25.94 2,0 c 5.6,0 9.5,3.34 9.5,9.3 0,6.5 -4.4,9.31 -9.5,9.31 l -2,0 0,-18.61 z m 18.2,-7.33 0,-3.35 -1.4,0 0,-0.4 3.2,0 0,0.4 -1.3,0 0,3.35 -0.5,0 m 2.4,0 0,-3.75 0.8,0 0.9,2.89 1.1,-2.89 0.6,0 0,3.75 -0.4,0 0,-3.06 -1,2.8 -0.6,0 -1,-2.8 0,3.06 -0.4,0 M 44.26,12 c 17.77,0 32.26,14.47 32.26,32.24 0,4.75 -1.04,9.24 -2.9,13.3 0,-0.32 0,-0.65 0,-0.98 0,-2.8 -0.4,-5.51 -1.13,-8.07 0,-0.53 0,-1.06 0,-1.58 0.1,-15.64 -12.68,-28.38 -28.3,-28.38 -15.63,0 -28.38,12.74 -28.38,28.38 0,0.8 0,1.58 0.1,2.37 -0.59,2.33 -0.91,4.77 -0.91,7.28 0,0.44 0,0.86 0,1.3 C 13.08,53.71 12,49.11 12,44.24 12,26.47 26.49,12 44.26,12 m 0.1,23.95 c 12.87,0 23.36,10.48 23.36,23.33 0,1.22 -0.14,2.42 -0.28,3.58 0.54,1.98 0.82,4.07 0.82,6.22 0,0 0,0 0,0.13 1.76,-3.31 2.84,-7.04 3.08,-10.99 0,0 0,0 0,0 0,0 0,-0.13 0,-0.17 0,0 0,0 0,0 0,0 0,-0.13 0,-0.19 0,0 0,0 0,0 0,0 0,-0.13 0,-0.14 0,0 0,0 0,-0.14 0,0 0,-0.13 0,-0.13 0,0 0,-0.13 0,-0.15 0,0 0,0 0,-0.13 0,0 0,-0.13 0,-0.13 0,0 0,0 0,-0.13 0,0 0,-0.14 0,-0.15 0,0 0,0 0,-0.13 0,-0.14 0,-0.14 0,-0.18 0,-0.21 0,-0.41 0,-0.62 0,0 0,-0.14 0,-0.16 0,-0.18 0,-0.34 0,-0.5 C 70.61,40.88 58.76,29.45 44.3,29.45 c -14.7,0 -26.73,11.86 -27,26.51 l 0,0 c 0,0.16 0,0.31 0,0.47 0,0 0,0 0,0 0,0.13 0,0.25 0,0.37 0,0 0,0 0,0 0,0.13 0,0.25 0,0.37 0,0 0,0 0,0 0,0 0,0.13 0,0.15 0,0 0,0 0,0.13 0,0 0,0 0,0 0.16,3.93 1.17,7.67 2.85,11.01 0,-2.24 0.38,-4.38 0.98,-6.42 -0.11,-0.96 -0.17,-1.94 -0.17,-2.95 0,-12.85 10.49,-23.33 23.33,-23.33 z M 44.12,47.67 A 21.43,21.43 0 0 0 22.69,69.1 21.43,21.43 0 0 0 44.12,90.53 21.43,21.43 0 0 0 65.55,69.1 21.43,21.43 0 0 0 44.12,47.67 Z m 0,5.28 c 9.22,0 16.88,6.87 18.18,15.77 -4.92,4.09 -11.25,5.93 -18.12,5.93 -6.93,0 -13.3,-1.88 -18.25,-6.05 1.32,-8.83 8.99,-15.65 18.19,-15.65 z M 25.74,70.63 c 5.23,3.7 11.61,5.87 18.49,5.87 6.75,0 13.04,-2.09 18.22,-5.67 l 0,0 0,0.51 c 0,0.96 -0.13,1.91 -0.21,2.83 -4.28,5.16 -10.75,7.77 -17.96,7.77 -7.48,0 -14.15,-2.88 -18.42,-8.39 -0.13,-0.73 -0.15,-1.46 -0.15,-2.21 l 0,-0.71 z m 0.88,6.32 c 4.76,4.12 10.93,6.62 17.69,6.62 6.51,0 12.45,-2.31 17.13,-6.14 -2.52,7.13 -9.33,11.53 -17.31,11.53 -8.18,0 -15.12,-4.63 -17.51,-12.01 z" id="path3668"></path><metadata id="metadata4543"><rdf:rdf><cc:work rdf:about=""><dc:title></dc:title></cc:work></rdf:rdf></metadata></svg>