<?xml version="1.0"?>

<svg xmlns="http://www.w3.org/2000/svg" width="634" height="246" viewBox="0 0 634 246">
   <path d="M 54.3926 22 C 36.5046 22 22 36.5035 22 54.3945 L 22 191.295 C 22 209.194 36.5076 223.697 54.3926 223.697 L 580.004 223.697 C 597.881 223.697 611.027 212.573 611.027 194.678 L 611.027 54.3945 C 611.027 36.5035 597.881 22 580.004 22 L 54.3926 22 z M 174.668 49.9453 C 180.37 49.9453 184.096 52.6689 186.418 56.0039 L 182.254 58.4121 C 180.674 56.2241 177.912 54.5137 174.668 54.5137 C 168.879 54.5137 164.576 58.8932 164.576 65.0742 C 164.576 71.1742 168.879 75.6523 174.668 75.6523 C 177.65 75.6523 180.272 74.2894 181.59 73.0234 L 181.59 68.5039 L 172.822 68.5039 L 172.822 63.9844 L 186.676 63.9844 L 186.676 74.9082 C 183.827 78.1102 179.705 80.2617 174.66 80.2617 C 166.155 80.2617 159.311 74.251 159.311 65.082 C 159.311 55.874 166.159 49.9453 174.668 49.9453 z M 324.037 49.9453 C 332.762 49.9453 338.992 56.353 338.992 65.082 C 338.992 73.811 332.762 80.2129 324.037 80.2129 C 315.262 80.2129 309.078 73.811 309.078 65.082 C 309.078 56.353 315.262 49.9453 324.037 49.9453 z M 193.035 50.4316 L 213.072 50.4316 L 213.072 54.9512 L 198.16 54.9512 L 198.16 62.4941 L 212.766 62.4941 L 212.766 67.0078 L 198.16 67.0078 L 198.16 75.168 L 213.072 75.168 L 213.072 79.6875 L 193.035 79.6875 L 193.035 50.4316 z M 218.418 50.4316 L 241.268 50.4316 L 241.268 54.9434 L 232.408 54.9434 L 232.408 79.6875 L 227.275 79.6875 L 227.275 54.9434 L 218.418 54.9434 L 218.418 50.4316 z M 259.1 50.4316 L 264.234 50.4316 L 264.234 79.6934 L 259.1 79.6934 L 259.1 50.4316 z M 269.662 50.4316 L 292.516 50.4316 L 292.516 54.9434 L 283.65 54.9434 L 283.65 79.6875 L 278.525 79.6875 L 278.525 54.9434 L 269.662 54.9434 L 269.662 50.4316 z M 344.984 50.4316 L 350.248 50.4316 L 365.203 70.6953 L 365.203 50.4316 L 370.336 50.4316 L 370.336 79.6934 L 365.379 79.6934 L 350.111 58.7695 L 350.111 79.6934 L 344.984 79.6934 L 344.984 50.4316 z M 324.045 54.5078 C 318.123 54.5078 314.35 59.0232 314.35 65.0742 C 314.35 71.0872 318.123 75.6465 324.045 75.6465 C 329.914 75.6465 333.734 71.0872 333.734 65.0742 C 333.734 59.0262 329.914 54.5078 324.045 54.5078 z M 51.127 101.928 L 51.127 101.932 C 52.154 101.862 53.3294 102.176 54.5664 102.84 L 113.041 134.977 L 133.064 145.992 C 137.112 148.212 137.112 151.844 133.064 154.082 L 113.107 165.062 L 54.5586 197.256 C 52.8666 198.168 51.3085 198.38 50.0605 197.957 C 48.3375 197.367 47.2227 195.591 47.2227 192.895 L 47.2227 107.182 C 47.2227 104.459 48.3744 102.658 50.1504 102.102 C 50.4654 101.998 50.784 101.963 51.127 101.928 z M 369.975 107.705 L 383.193 107.705 C 380.33 109.366 379.474 110.374 379.104 113.607 L 379.104 166.051 C 379.104 169.645 379.745 170.2 382.783 170.486 C 384.366 170.661 385.953 170.767 387.523 170.945 L 384.096 172.98 L 367.811 172.98 C 369.947 170.211 370.311 169.936 370.311 168.094 L 370.311 166.016 L 370.281 111.049 L 363.082 111.049 L 369.975 107.705 z M 194.129 111.504 L 194.133 111.504 C 198.807 111.504 203.312 112.185 207.412 113.301 C 213.908 115.129 216.947 117.383 218.846 118.701 L 211.641 125.549 L 208.602 126.217 L 210.766 122.77 C 207.836 119.907 202.443 114.617 192.215 114.617 C 178.536 114.617 168.223 125.007 168.223 140.193 C 168.223 156.49 180.006 171.826 198.891 171.826 C 204.445 171.826 207.307 170.715 209.898 169.676 L 209.898 155.699 L 196.811 156.396 L 203.746 152.676 L 222.113 152.676 L 219.857 154.84 C 219.253 155.354 219.178 155.526 219.006 156.225 C 218.902 157.019 218.83 159.52 218.83 160.404 L 218.83 170.967 L 206.438 173.809 C 201.417 174.606 196.912 175.301 192.137 175.301 C 168.225 175.301 159.107 157.701 159.107 143.924 C 159.107 127.102 172.022 111.504 194.129 111.504 z M 492.076 114.242 L 496.758 114.242 L 496.758 174.168 L 492.076 174.168 L 492.076 114.242 z M 522.773 129.66 C 527.863 129.66 531.992 130.887 535.104 133.334 C 538.211 135.753 539.766 139.263 539.766 143.846 L 539.766 165.252 C 539.766 166.786 539.837 168.272 540.047 169.719 C 540.256 171.17 540.555 172.61 540.982 174.012 L 535.582 174.012 L 535.582 174.041 C 535.267 172.531 535.042 171.21 534.871 170.102 C 534.731 169.005 534.662 167.865 534.662 166.715 C 533.058 169.071 530.789 171.027 527.891 172.572 C 524.986 174.12 522.225 174.887 518.436 174.887 C 513.881 174.887 510.349 173.775 507.818 171.496 C 505.301 169.224 504.035 166.144 504.035 162.25 C 504.035 158.355 505.87 155.2 509.523 152.795 C 513.179 150.365 517.903 149.168 523.752 149.168 L 534.662 149.168 L 534.662 143.768 C 534.662 140.657 533.599 138.223 531.488 136.447 C 529.37 134.675 526.39 133.787 522.531 133.787 C 519 133.787 516.141 134.6 513.967 136.195 C 511.81 137.824 510.719 139.835 510.719 142.264 L 505.934 142.264 L 505.828 142.02 C 505.653 138.74 507.15 135.871 510.342 133.393 C 513.506 130.907 517.68 129.662 522.797 129.662 L 522.773 129.66 z M 466.273 129.695 L 466.273 129.699 C 477.868 129.699 485.686 138.5 485.686 152.424 C 485.686 166.26 477.875 175.24 466.273 175.24 C 460.173 175.24 454.699 172.097 451.189 167.164 L 451.189 190.719 L 446.512 190.719 L 446.512 130.783 L 451.189 130.783 L 451.189 137.604 C 454.234 133.196 459.809 129.695 466.273 129.695 z M 248.668 129.875 C 262.256 129.875 270.754 140.512 270.754 151.688 C 270.754 162.599 262.356 174.152 247.271 174.152 C 232.568 174.152 224.721 162.712 224.721 152.35 C 224.721 140.241 234.615 129.875 248.668 129.875 z M 297.873 129.875 C 311.465 129.875 319.975 140.512 319.975 151.688 C 319.975 162.599 311.564 174.152 296.486 174.152 C 281.786 174.152 273.922 162.712 273.922 152.35 C 273.922 140.241 283.813 129.875 297.873 129.875 z M 407.549 129.875 C 410.877 129.875 414.287 130.714 417.066 132.469 C 421.687 135.52 422.88 139.492 423.545 141.617 L 401.805 150.404 L 394.684 150.957 C 396.992 162.706 404.947 169.541 413.732 169.541 C 418.123 169.541 421.38 168.112 424.369 166.633 C 424.369 166.633 424.965 166.318 424.545 166.738 L 424.545 166.768 L 420.121 170.936 C 419.104 171.492 418.088 172.155 417.07 172.613 C 414.001 174.008 410.876 174.354 408.104 174.354 C 405.143 174.354 400.518 174.144 395.795 170.75 C 389.226 166.128 386.363 158.187 386.363 151.258 C 386.363 136.918 398.044 129.887 407.559 129.887 L 407.549 129.875 z M 544.656 130.764 L 549.871 130.764 L 565.678 168.676 L 581.336 130.764 L 586.627 130.764 L 564.148 183.678 C 561.82 189.135 558.15 191.756 553.109 191.756 C 551.596 191.756 549.603 191.476 548.432 191.127 L 549.236 186.812 C 550.232 187.26 551.936 187.535 553.02 187.535 C 555.876 187.535 557.881 186.362 559.664 182.23 L 563.076 174.502 L 544.656 130.764 z M 346.42 131.076 L 365.477 131.076 L 359.555 134.424 L 353.82 134.424 C 355.938 136.172 360.369 139.873 360.369 146.896 C 360.369 153.74 356.506 156.966 352.611 160.025 C 351.416 161.227 350.023 162.54 350.023 164.561 C 350.023 166.603 351.416 167.702 352.426 168.537 L 355.771 171.115 C 359.822 174.54 363.535 177.686 363.535 184.066 C 363.535 192.763 355.117 201.531 339.207 201.531 C 325.805 201.531 319.336 195.161 319.336 188.32 C 319.336 184.985 320.987 180.267 326.455 177.033 C 332.191 173.53 339.953 173.062 344.117 172.793 C 342.816 171.115 341.338 169.353 341.338 166.49 C 341.338 164.92 341.809 163.987 342.26 162.885 C 341.25 162.99 340.233 163.096 339.303 163.096 C 329.494 163.096 323.949 155.772 323.949 148.574 C 323.949 144.316 325.888 139.604 329.867 136.182 C 335.138 131.84 341.435 131.088 346.42 131.088 L 346.42 131.076 z M 246.262 132.748 C 243.203 132.748 240.161 133.944 237.945 135.891 C 234.323 139.125 233.688 143.184 233.688 147.176 C 233.688 156.311 238.222 171.381 249.412 171.381 C 253.027 171.381 256.708 169.633 258.84 166.676 C 261.056 163.718 261.611 160.034 261.611 156.43 C 261.611 148.288 257.721 132.748 246.262 132.748 z M 295.477 132.748 C 292.429 132.748 289.357 133.944 287.148 135.891 C 283.526 139.125 282.889 143.184 282.889 147.176 C 282.889 156.311 287.408 171.381 298.619 171.381 C 302.233 171.381 305.914 169.633 308.047 166.676 C 310.284 163.718 310.826 160.034 310.826 156.43 C 310.826 148.288 306.947 132.748 295.477 132.748 z M 404.947 132.924 C 401.252 132.924 394.316 135.8 394.316 145.795 C 394.316 147.347 394.491 149.012 394.596 150.676 L 411.418 143.361 C 413.183 142.722 414.109 142.166 414.109 140.879 C 414.109 137.184 409.932 132.924 404.947 132.924 z M 465.48 133.898 C 459.454 133.898 453.696 138.635 451.189 142.764 L 451.189 161.949 C 453.696 166.084 459.454 170.996 465.48 170.996 C 475.188 170.996 480.666 162.917 480.666 152.402 C 480.666 141.904 475.188 133.898 465.48 133.898 z M 340.596 134.107 C 338.198 134.107 335.594 135.308 334.115 137.168 C 332.559 139.098 332.096 141.596 332.096 143.998 C 332.096 150.189 335.706 160.463 343.648 160.463 C 345.969 160.463 348.463 159.33 349.924 157.869 C 352.067 155.733 352.244 152.789 352.244 151.111 C 352.244 144.465 348.284 134.107 340.596 134.107 z M 523.668 152.84 C 519.48 152.84 516.015 153.766 513.281 155.633 C 510.551 157.496 509.156 159.758 509.156 162.383 C 509.156 164.858 510.038 166.829 511.779 168.328 C 513.534 169.842 515.933 170.59 518.977 170.59 C 522.952 170.59 525.797 169.706 528.719 167.947 C 531.614 166.203 533.596 163.928 534.627 161.17 L 534.627 152.84 L 523.668 152.84 z M 345.135 175.326 L 345.135 175.342 C 344.299 175.342 339.304 175.515 335.434 176.822 C 333.392 177.574 327.48 179.782 327.48 186.35 C 327.48 192.905 333.862 197.635 343.742 197.635 C 352.621 197.635 357.338 193.378 357.338 187.652 C 357.338 182.926 354.286 180.431 347.266 175.432 C 346.508 175.327 346.044 175.326 345.135 175.326 z "></path>
     <g class="logo-shading">
 <path style="opacity:0.18;" d="M 113.041,134.994 54.57,102.844 c -1.654,-0.906 -3.188,-1.116 -4.422,-0.735 l 47.892,47.889 z"></path>
 <path style="opacity:0.04;" d="m 113.118,165.076 19.957,-10.98 c 4.048,-2.238 4.048,-5.87 0,-8.09 L 113.044,134.994 98.04,149.998 Z"></path>
 <path style="opacity:0.35;" d="m 50.144,102.106 c -1.776,0.556 -2.929,2.36 -2.929,5.083 v 85.724 c 0,2.692 1.118,4.464 2.842,5.055 L 98.03,149.995 Z"></path>
 <path style="opacity:0.26;" d="m 50.067,197.971 c 1.248,0.423 2.811,0.21 4.503,-0.702 L 113.114,165.076 98.04,150.002 Z"></path>
</g></svg>