<?xml version="1.0"?>

<svg xmlns="http://www.w3.org/2000/svg" viewBox="0 0 433.5 117.3" width="433.5" height="117.3"><path d="m 22,22 0,73.24 67.55,0 c 3.13,0 5.69,-2.57 5.69,-5.7 l 0,-19.95 C 94.41,69.7 93.45,69.77 92.29,69.85 86.91,92.79 49.24,98.32 39.36,85.94 29.46,73.55 37.13,51 56.47,35.56 69.25,25.36 83.9,22.08 95.24,23.74 L 95.24,22 22,22 Z m 161,0 c -1.4,0 -2.6,0.52 -3.6,1.56 -1.1,1.05 -1.6,2.31 -1.6,3.78 0,1.45 0.5,2.69 1.6,3.73 1,1.05 2.2,1.57 3.6,1.57 1.5,0 2.7,-0.52 3.8,-1.57 1,-1.04 1.5,-2.28 1.5,-3.73 0,-1.47 -0.5,-2.73 -1.5,-3.78 C 185.7,22.52 184.5,22 183,22 Z m 167.6,0 c -1.5,0 -2.7,0.52 -3.7,1.56 -1.1,1.05 -1.6,2.31 -1.6,3.78 0,1.45 0.5,2.69 1.6,3.73 1,1.05 2.2,1.57 3.7,1.57 1.4,0 2.7,-0.52 3.7,-1.57 1,-1.04 1.5,-2.28 1.5,-3.73 0,-1.47 -0.5,-2.73 -1.5,-3.78 C 353.3,22.52 352,22 350.6,22 Z m -212.5,1.19 c -8.8,0 -16.2,3.22 -22,9.67 -5.3,5.85 -7.9,12.75 -7.9,20.71 0,8.04 2.8,15.06 8.3,21.06 5.6,6.01 12.8,9.01 21.6,9.01 8.8,0 16,-3 21.6,-9.01 0.9,-1.02 1.8,-2.07 2.6,-3.14 l 0,2.55 c 0,4.16 -0.5,7.14 -1.4,8.85 -1,1.76 -2.6,3.23 -4.8,4.42 -2.4,1.2 -5.3,1.89 -8.7,1.81 -7.5,-0.16 -16.8,-1.19 -17.7,-1.29 l -1.2,-0.11 2.4,7.26 0.5,0.1 1,0 1.8,0 c 1.5,0 3.4,0 5.3,0.1 l 8.1,0 c 4.9,0 9,-0.97 12.6,-2.96 3.4,-1.99 5.9,-4.85 7.4,-8.53 1,-2.65 1.5,-6.65 1.5,-12.09 l 0,-43.59 -6.8,0 0,0.72 0,6.78 c -0.7,-0.93 -1.4,-1.83 -2.2,-2.71 -5.8,-6.41 -13.1,-9.61 -22,-9.61 z m 59.7,0.48 0,0 0,0.75 0,56.84 6.4,0 0,-17.69 c 0,-5.06 0.3,-8.55 0.7,-10.27 0.8,-2.79 2.2,-5.08 4.5,-6.95 2.3,-1.89 4.7,-2.8 7.5,-2.8 2.6,0 4.5,0.6 5.9,1.76 1.5,1.16 2.5,2.9 3.1,5.33 0.3,1.29 0.5,4.26 0.5,8.66 l 0,21.93 6.4,0 0,-23.38 c 0,-5.29 -0.4,-9.22 -1.6,-11.87 -1.1,-2.6 -2.9,-4.67 -5.2,-6.2 -2.3,-1.55 -5.1,-2.33 -8.1,-2.33 -2.9,0 -5.7,0.69 -8.2,2.06 -1.9,1.08 -3.7,2.71 -5.5,4.64 l 0,-20.51 -6.4,0 z m -59.7,5.4 c 6.5,0 12,2.4 16.7,7.22 4.7,4.82 7,10.65 7,17.48 0,4.41 -1.1,8.52 -3.2,12.33 -2.1,3.81 -5,6.75 -8.6,8.82 -3.6,2.07 -7.6,3.11 -11.9,3.11 -4.3,0 -8.3,-1.04 -11.9,-3.11 -3.6,-2.07 -6.5,-5.01 -8.6,-8.82 -2.1,-3.81 -3.2,-7.92 -3.2,-12.33 0,-6.83 2.3,-12.66 7,-17.48 4.7,-4.82 10.2,-7.22 16.7,-7.22 z m 250.4,8.43 0,0 c -6.8,0 -12.5,2.5 -17,7.43 -0.1,0.15 -0.2,0.33 -0.3,0.48 l 0,-6.92 -6.4,0 0,56.84 6.4,0 0,-19.35 c 0.2,0.32 0.4,0.66 0.7,0.97 l 0.1,0 c 4.2,4.59 9.7,6.92 16.5,6.92 6.7,0 12.2,-2.33 16.5,-6.92 l 0.1,0 c 4.2,-4.58 6.3,-10 6.3,-16.15 0,-6.1 -2,-11.45 -6,-15.92 -4.5,-4.91 -10.2,-7.39 -16.9,-7.39 z m -89.7,0 c -6.7,0 -12.4,2.5 -16.9,7.43 -4,4.47 -6.1,9.8 -6.1,15.88 0,6.15 2.2,11.57 6.4,16.15 l 0.1,0 c 4.3,4.59 9.8,6.92 16.5,6.92 6.8,0 12.3,-2.32 16.5,-6.92 4.4,-4.58 6.5,-10 6.5,-16.15 0,-6.1 -2,-11.45 -6,-15.92 -4.5,-4.91 -10.2,-7.39 -17,-7.39 z m -119,1 0,42.78 0.8,0 5.6,0 0,-42.78 -6.4,0 z m 56.7,0 0.5,1.05 15.7,35.27 -7.7,17.68 6.8,0 23.5,-54 -6.8,0 -12.4,28.58 -12.7,-28.58 -6.9,0 z m 110.7,0.1 0,0.67 0,34.79 c 0,4.17 -0.5,7.14 -1.4,8.84 l -0.1,0 c -0.9,1.72 -2.5,3.21 -4.8,4.41 -2.3,1.19 -5.2,1.88 -8.7,1.8 -7.4,-0.16 -16.8,-1.19 -17.7,-1.29 l -1.2,-0.11 2.4,7.27 0.5,0.1 c 0.4,0 1.4,0 2.9,0.1 1.5,0 3.4,0 5.3,0.1 l 8.1,0 c 4.8,0 8.9,-0.97 12.5,-2.96 3.5,-1.98 5.9,-4.87 7.4,-8.53 1.1,-2.68 1.5,-6.69 1.5,-12.12 l 0,-33.07 -6.7,0 z m -48.4,4.92 0,0 c 4.6,0 8.5,1.68 11.8,5.1 3.3,3.41 5,7.47 5,12.34 0,3.12 -0.8,6.01 -2.4,8.7 -1.4,2.69 -3.4,4.73 -6,6.2 -2.6,1.46 -5.3,2.19 -8.4,2.19 -3,0 -5.8,-0.74 -8.3,-2.19 -2.6,-1.46 -4.6,-3.51 -6.1,-6.21 -1.5,-2.7 -2.2,-5.6 -2.2,-8.71 0,-4.87 1.6,-8.93 4.8,-12.34 3.4,-3.43 7.3,-5.1 11.8,-5.1 z m 89.7,0 c 4.5,0 8.4,1.68 11.8,5.11 3.2,3.41 4.9,7.47 4.9,12.34 0,3.11 -0.8,6.01 -2.3,8.71 -1.5,2.7 -3.5,4.75 -6.1,6.21 -2.5,1.46 -5.2,2.19 -8.3,2.19 -3.1,0 -5.8,-0.73 -8.4,-2.19 -2.6,-1.47 -4.6,-3.51 -6,-6.2 -1.6,-2.69 -2.4,-5.58 -2.3,-8.7 0,-4.87 1.6,-8.93 4.9,-12.34 3.3,-3.42 7.2,-5.1 11.8,-5.1 l 0,-0 z m -56.4,23.81 c -1.5,0 -2.9,0.55 -4,1.65 -1.1,1.1 -1.6,2.44 -1.6,4.03 0,1.57 0.5,2.9 1.6,4.02 1.1,1.11 2.5,1.67 4,1.67 1.6,0 2.9,-0.56 4,-1.67 1.1,-1.12 1.7,-2.45 1.7,-4.02 0,-1.59 -0.6,-2.93 -1.7,-4.03 -1.1,-1.1 -2.4,-1.65 -4,-1.65 z"></path> </svg>