<?xml version="1.0"?>
<!--?xml version="1.0" encoding="UTF-8" standalone="no"?-->
<svg xmlns:svg="http://www.w3.org/2000/svg" xmlns="http://www.w3.org/2000/svg" height="138.01" width="296.97" viewBox="0 0 296.97 138.01">

  <path d="M 123.78,63.978 74.035,14.239 c -2.862,-2.865 -7.508,-2.865 -10.374,0 l -10.329,10.33 13.102,13.102 c 3.046,-1.028 6.537,-0.339 8.964,2.089 2.439,2.442 3.124,5.963 2.07,9.019 l 12.628,12.628 c 3.055,-1.053 6.58,-0.373 9.019,2.071 3.415,3.41 3.415,8.935 0,12.345 -3.411,3.412 -8.936,3.412 -12.349,0 -2.564,-2.566 -3.199,-6.334 -1.9,-9.494 l -11.777,-11.777 -0,30.991 c 0.832,0.412 1.616,0.961 2.309,1.651 3.41,3.409 3.41,8.933 0,12.348 -3.41,3.408 -8.938,3.408 -12.345,0 -3.41,-3.415 -3.41,-8.939 0,-12.348 0.843,-0.841 1.818,-1.478 2.859,-1.905 V 54.01 C 64.87,53.585 63.896,52.953 63.052,52.105 60.469,49.524 59.847,45.733 61.171,42.561 L 48.255,29.643 14.149,63.748 c -2.865,2.867 -2.865,7.513 0,10.378 l 49.742,49.734 c 2.864,2.87 7.509,2.87 10.376,0 L 123.78,74.361 c 2.86,-2.866 2.86,-7.513 0,-10.379 m 161.19,28.545 c -4.68,2.282 -11.53,4.349 -17.74,4.349 -12.94,0 -17.83,-5.217 -17.83,-17.515 v -28.5 c 0,-0.651 0,-1.088 -0.88,-1.088 h -7.61 V 40.091 C 250.48,39 254.29,34.213 255.49,22.355 h 10.33 v 15.453 c 0,0.759 0,1.087 0.87,1.087 h 15.34 v 10.878 h -16.21 v 25.999 c 0,6.419 1.53,8.919 7.4,8.919 3.05,0 6.2,-0.759 8.81,-1.739 l 2.94,9.576 M 224.98,31.367 c -6.2,0 -9.79,-3.593 -9.79,-9.797 0,-6.195 3.59,-9.57 9.79,-9.57 6.31,0 9.9,3.375 9.9,9.57 0,6.204 -3.59,9.797 -9.9,9.797 z m -14.04,65.376 v -8.59 l 5.55,-0.759 c 1.53,-0.221 1.74,-0.545 1.74,-2.18 V 53.231 c 0,-1.195 -0.32,-1.959 -1.41,-2.283 l -5.88,-2.069 1.2,-8.809 h 22.52 v 45.144 c 0,1.744 0.11,1.96 1.74,2.181 l 5.55,0.759 v 8.59 H 210.94 M 175.59,50.807 c -5.99,0 -10.44,2.939 -10.44,10.012 0,5.329 2.94,9.028 10.12,9.028 6.09,0 10.22,-3.587 10.22,-9.248 0,-6.416 -3.7,-9.792 -9.9,-9.792 z m -11.97,49.943 c -1.42,1.73 -2.83,3.58 -2.83,5.76 0,4.35 5.55,5.66 13.16,5.66 6.31,0 14.91,-0.44 14.91,-6.31 0,-3.49 -4.14,-3.7 -9.36,-4.03 z m 32.2,-49.614 c 1.96,2.503 4.03,5.985 4.03,10.989 0,12.075 -9.47,19.146 -23.17,19.146 -3.49,0 -6.64,-0.434 -8.6,-0.977 l -3.59,5.765 10.66,0.651 c 18.82,1.199 29.91,1.744 29.91,16.21 0,12.51 -10.98,19.58 -29.91,19.58 -19.69,0 -27.2,-5.01 -27.2,-13.6 0,-4.9 2.18,-7.5 5.99,-11.097 -3.59,-1.518 -4.79,-4.236 -4.79,-7.175 0,-2.395 1.2,-4.57 3.16,-6.638 1.95,-2.065 4.13,-4.135 6.74,-6.528 -5.33,-2.61 -9.36,-8.267 -9.36,-16.319 0,-12.509 8.27,-21.1 24.91,-21.1 4.68,0 7.51,0.431 10.02,1.088 h 21.21 v 9.244 l -10.01,0.762"></path>

</svg>
