<?xml version="1.0"?>
<!--?xml version="1.0" encoding="UTF-8" standalone="no"?-->
<svg xmlns="http://www.w3.org/2000/svg" viewBox="0 0 524.24 173.88" width="524.24" height="173.88">
  <path d="m 221.05,65.64 h -17.04 c 0,0 0,-22.52 0,-22.52 0,-0.86 -0.44,-1.28 -1.43,-1.28 h -23.23 c -0.9,0 -1.39,0.4 -1.39,1.26 v 23.27 c 0,0 -11.64,2.81 -12.42,3.04 -0.79,0.23 -1.36,0.95 -1.36,1.82 v 14.62 c 0,1.05 0.83,1.89 1.87,1.89 h 11.91 v 35.18 c 0,26.13 18.33,28.7 30.7,28.7 5.65,0 12.41,-1.81 13.53,-2.23 0.67,-0.24 1.07,-0.94 1.07,-1.7 V 131.6 c 0,-1.05 -0.88,-1.9 -1.88,-1.9 -0.99,0 -3.54,0.41 -6.15,0.41 -8.37,0 -11.21,-3.9 -11.21,-8.94 0,-5.03 0,-33.43 0,-33.43 h 17.04 c 1.04,0 1.89,-0.84 1.89,-1.89 V 67.53 c 0,-1.05 -0.85,-1.89 -1.89,-1.89 m 240.51,64.51 c -7.83,-0.24 -13.13,-3.79 -13.13,-3.79 V 88.71 c 0,0 5.23,-3.21 11.65,-3.79 8.12,-0.72 15.95,1.73 15.95,21.1 0,20.43 -3.53,24.46 -14.47,24.13 m 8.89,-67 c -12.81,0 -21.52,5.72 -21.52,5.72 V 28.6 c 0,-1.05 -0.84,-1.89 -1.87,-1.89 h -22.79 c -1.04,0 -1.88,0.84 -1.88,1.89 v 118.91 c 0,1.05 0.84,1.9 1.88,1.9 h 15.81 c 0.71,0 1.25,-0.37 1.65,-1.01 0.39,-0.64 0.96,-5.48 0.96,-5.48 0,0 9.32,8.83 26.96,8.83 20.71,0 32.58,-10.51 32.58,-47.16 0,-36.65 -18.96,-41.44 -31.78,-41.44 m -61.63,2.68 h -22.55 c -1.03,0 -1.87,0.85 -1.87,1.9 v 58.3 c 0,0 -5.73,4.19 -13.86,4.19 -8.13,0 -10.29,-3.69 -10.29,-11.65 V 67.73 c 0,-1.05 -0.84,-1.9 -1.88,-1.9 H 335.5 c -1.04,0 -1.88,0.85 -1.88,1.9 v 54.69 c 0,23.64 13.18,29.43 31.31,29.43 14.87,0 26.86,-8.21 26.86,-8.21 0,0 0.57,4.32 0.83,4.84 0.26,0.51 0.93,1.03 1.66,1.03 l 14.56,-0.1 c 1.03,0 1.88,-0.85 1.88,-1.89 V 67.7 c 0,-1.05 -0.84,-1.9 -1.88,-1.9 M 155.75,122.42 V 67.54 c 0,-1.04 -0.84,-1.89 -1.88,-1.89 h -22.65 c -1.04,0 -1.97,1.07 -1.97,2.11 v 78.64 c 0,2.31 1.44,2.99 3.3,2.99 h 20.41 c 2.24,0 2.79,-1.1 2.79,-3.03 z m 0,0 m 1.62,-78.21 c 0,-8.18 -6.55,-14.8 -14.65,-14.8 -8.08,0 -14.65,6.62 -14.65,14.8 0,8.17 6.57,14.8 14.65,14.8 8.1,0 14.65,-6.63 14.65,-14.8 M 322.47,28.6 c 0,-1.05 -0.83,-1.89 -1.87,-1.89 h -22.72 c -1.04,0 -1.89,0.84 -1.89,1.89 0,0 0,43.92 0,43.92 H 260.57 V 28.6 c 0,-1.05 -0.84,-1.89 -1.87,-1.89 h -22.72 c -1.04,0 -1.88,0.84 -1.88,1.89 v 118.91 c 0,1.05 0.84,1.9 1.88,1.9 h 22.72 c 1.03,0 1.87,-0.85 1.87,-1.9 V 96.65 h 35.42 c 0,0 -0.1,50.85 -0.1,50.86 0,1.05 0.84,1.9 1.88,1.9 h 22.78 c 1.04,0 1.87,-0.85 1.87,-1.9 z m 0,0 M 114.49,77.59 H 74.141 c -1.043,0 -1.887,0.85 -1.887,1.89 v 19.73 c 0,1.04 0.844,1.89 1.887,1.89 h 15.74 v 24.51 c 0,0 -3.53,1.2 -13.31,1.2 -11.524,0 -27.634,-4.21 -27.634,-39.63 0,-35.42 16.774,-40.08 32.524,-40.08 13.62,0 19.499,2.39 23.229,3.55 1.18,0.36 2.26,-0.81 2.26,-1.85 l 4.51,-19.06 c 0,-0.49 -0.17,-1.08 -0.73,-1.48 C 109.22,27.18 99.961,22 76.571,22 49.633,22 22,33.47 22,88.56 c 0,55.11 31.641,63.32 58.301,63.32 22.079,0 35.469,-9.44 35.469,-9.44 0.55,-0.3 0.61,-1.07 0.61,-1.43 V 79.48 c 0,-1.04 -0.85,-1.89 -1.89,-1.89"></path>
</svg>
