<?xml version="1.0"?>
<!--?xml version="1.0" encoding="UTF-8" standalone="no"?-->
<svg xmlns="http://www.w3.org/2000/svg" viewBox="0 0 300 72" width="300" height="72">
  <path d="M 260.01,41.88 V 59.13 H 249.19 V 12.51 h 15.17 q 5.05,0 8.61,1.05 3.58,1.03 5.82,2.88 2.27,1.86 3.3,4.39 1.02,2.53 1.02,5.5 0,2.27 -0.61,4.29 -0.61,2.02 -1.82,3.74 -1.19,1.7 -2.95,3.04 -1.72,1.35 -4,2.21 1.09,0.55 2.02,1.35 0.96,0.8 1.66,1.95 l 9.92,16.22 h -9.79 q -2.72,0 -3.9,-2.05 l -7.75,-13.53 q -0.51,-0.9 -1.21,-1.28 -0.67,-0.39 -1.92,-0.39 z m 0,-7.45 h 4.35 q 2.21,0 3.74,-0.55 1.57,-0.57 2.56,-1.56 0.99,-1 1.44,-2.31 0.45,-1.34 0.45,-2.88 0,-3.07 -2.02,-4.8 -1.98,-1.73 -6.17,-1.73 h -4.35 z M 243.08,12.51 v 8.32 h -19.14 v 10.88 h 14.66 v 8 h -14.66 v 11.1 h 19.14 v 8.32 H 213.06 V 12.51 Z m -34.41,0 v 8.57 H 195.55 V 59.13 H 184.73 V 21.08 h -13.12 v -8.57 z m -42.62,9.47 q -0.48,0.77 -1.02,1.15 -0.52,0.39 -1.35,0.39 -0.74,0 -1.6,-0.45 -0.83,-0.48 -1.92,-1.06 -1.06,-0.57 -2.43,-1.02 -1.38,-0.48 -3.14,-0.48 -3.04,0 -4.54,1.31 -1.47,1.28 -1.47,3.49 0,1.41 0.89,2.33 0.9,0.93 2.34,1.6 1.47,0.68 3.33,1.25 1.89,0.55 3.84,1.25 1.95,0.67 3.8,1.6 1.89,0.93 3.33,2.37 1.48,1.44 2.37,3.52 0.9,2.05 0.9,4.96 0,3.23 -1.12,6.05 -1.12,2.81 -3.27,4.92 -2.11,2.08 -5.24,3.3 -3.11,1.18 -7.08,1.18 -2.17,0 -4.45,-0.44 -2.24,-0.45 -4.35,-1.25 -2.11,-0.83 -3.96,-1.95 -1.86,-1.12 -3.24,-2.5 l 3.2,-5.06 q 0.35,-0.57 0.99,-0.92 0.64,-0.36 1.38,-0.36 0.96,0 1.92,0.61 0.99,0.61 2.21,1.35 1.25,0.73 2.85,1.34 1.6,0.61 3.77,0.61 2.95,0 4.58,-1.28 1.63,-1.31 1.63,-4.13 0,-1.63 -0.89,-2.66 -0.9,-1.02 -2.37,-1.69 -1.44,-0.67 -3.3,-1.19 -1.86,-0.51 -3.81,-1.12 -1.95,-0.64 -3.8,-1.53 -1.86,-0.93 -3.33,-2.4 -1.44,-1.51 -2.34,-3.71 -0.89,-2.24 -0.89,-5.51 0,-2.62 1.05,-5.12 1.06,-2.49 3.11,-4.45 2.04,-1.95 5.02,-3.1 2.98,-1.18 6.82,-1.18 2.14,0 4.16,0.35 2.04,0.32 3.87,0.99 1.82,0.64 3.39,1.57 1.6,0.89 2.85,2.05 z m -53.22,28.61 q 2.18,0 3.87,-0.71 1.73,-0.73 2.92,-2.08 1.18,-1.34 1.79,-3.26 0.64,-1.95 0.64,-4.42 V 12.51 h 10.81 v 27.61 q 0,4.29 -1.4,7.88 -1.38,3.58 -3.97,6.17 -2.59,2.59 -6.31,4.03 -3.71,1.44 -8.35,1.44 -4.67,0 -8.38,-1.44 -3.72,-1.44 -6.308,-4.03 Q 95.55,51.58 94.174,48 92.798,44.41 92.798,40.12 V 12.51 h 10.822 v 27.58 q 0,2.47 0.6,4.42 0.64,1.92 1.83,3.29 1.18,1.35 2.88,2.08 1.73,0.71 3.9,0.71 z m -41.826,-0.1 h 17.28 v 8.64 H 60.188 V 12.51 H 71.004 Z M 36.64,51.32 q 2.24,0 3.968,-0.38 1.728,-0.38 3.264,-1.02 v -7.08 h -4.608 q -1.024,0 -1.6,-0.54 -0.576,-0.54 -0.576,-1.38 v -5.95 h 16.576 v 19.68 q -1.792,1.31 -3.744,2.27 -1.92,0.93 -4.128,1.54 -2.176,0.61 -4.672,0.9 -2.464,0.28 -5.312,0.28 -5.12,0 -9.472,-1.79 -4.352,-1.82 -7.552,-4.99 -3.168,-3.2 -4.992,-7.55 Q 12,40.92 12,35.8 q 0,-5.21 1.728,-9.56 1.728,-4.39 4.928,-7.56 3.232,-3.16 7.776,-4.92 Q 31.008,12 36.64,12 q 2.912,0 5.472,0.48 2.56,0.48 4.704,1.31 2.176,0.83 3.968,1.98 1.792,1.15 3.2,2.5 l -3.136,4.77 q -0.448,0.67 -1.088,1.05 -0.608,0.39 -1.344,0.39 -0.96,0 -1.984,-0.64 Q 45.152,23.07 44,22.52 42.88,21.95 41.696,21.6 40.512,21.24 39.2,21.08 q -1.312,-0.16 -2.944,-0.16 -3.04,0 -5.472,1.09 -2.432,1.06 -4.16,3.01 -1.696,1.95 -2.624,4.7 -0.928,2.72 -0.928,6.08 0,3.72 1.024,6.6 1.024,2.88 2.816,4.86 1.824,1.98 4.288,3.04 2.496,1.02 5.44,1.02 z"></path>

</svg>
