<?xml version="1.0"?>
<!--?xml version="1.0" encoding="UTF-8" standalone="no"?-->
<svg xmlns="http://www.w3.org/2000/svg" height="500" width="410" viewBox="0 0 410 500">
  <path d="m 370.92,404.14 h 3.8 l 4.82,12.84 4.84,-12.84 h 3.8 v 18.87 h -2.49 v -16.57 l -4.86,12.94 h -2.57 l -4.87,-12.94 v 16.57 h -2.47 z m -18.71,0 h 15.97 v 2.15 h -6.7 v 16.72 h -2.57 v -16.72 h -6.7 z M 88.241,405.8 h 9.534 l 30.145,41.63 V 405.8 h 12.87 v 69.26 h -9.54 L 101.1,433.44 v 41.62 H 88.241 V 405.8 m 211.149,0 h 40.81 v 13.5 h -25.69 v 14.37 h 19.75 v 12.02 h -19.75 v 15.87 h 26.56 v 13.5 H 299.39 V 405.8 m -79.97,0 h 19.24 l 13.36,43.24 13.43,-43.24 h 16.26 l 7.36,69.26 h -14.3 l -4.41,-43.31 -13.51,43.52 h -9.59 l -13.51,-44.99 -4.4,44.78 H 215 l 7.35,-69.26 M 77.906,469.91 c -7.83,6.57 -19.472,6.5 -24.316,6.5 -9.775,0 -17.507,-3.22 -23.218,-9.65 -5.711,-6.47 -8.556,-15.22 -8.556,-26.26 0,-11.16 2.9,-19.95 8.721,-26.35 5.81,-6.4 13.772,-9.6 23.877,-9.6 3.899,0 7.633,0.43 11.192,1.3 3.591,0.86 6.963,2.14 10.137,3.84 l -4.075,12.04 c -1.779,-0.98 -3.811,-1.95 -5.711,-2.62 -3.218,-1.08 -6.447,-1.62 -9.698,-1.62 -6.019,0 -10.675,2 -13.948,5.98 -3.24,3.96 -4.866,9.64 -4.866,17.03 0,7.33 1.571,12.99 4.712,16.98 3.141,3.98 7.864,5.98 13.399,5.98 5.612,0 9.094,-1.41 10.95,-2.91 V 448.57 H 54.337 V 436.6 H 77.906 M 178.23,404.55 c -8.87,0.24 -15.89,3.44 -21.05,9.56 -5.34,6.37 -8.03,15.17 -8.03,26.4 0,11.19 2.69,19.98 8.03,26.35 5.37,6.37 12.74,9.55 22.14,9.55 9.42,0 16.81,-3.18 22.16,-9.55 5.34,-6.37 8.01,-15.16 8.01,-26.35 0,-11.23 -2.67,-20.03 -8.01,-26.4 -5.35,-6.38 -12.74,-9.56 -22.16,-9.56 -0.36,0 -0.73,0 -1.09,0 z m 0.67,12.94 c 0.14,0 0.28,0 0.42,0 4.63,0 8.23,2 10.76,6.02 2.55,4.03 3.82,9.69 3.82,17 0,7.27 -1.27,12.89 -3.82,16.91 -2.53,4.03 -6.13,6.05 -10.76,6.05 -4.6,0 -8.17,-2.02 -10.71,-6.05 -2.54,-4.02 -3.82,-9.64 -3.82,-16.91 0,-7.31 1.28,-12.97 3.82,-17 2.46,-3.89 5.89,-5.9 10.29,-6.02 z m 33.69,-120.15 c 3.23,24.65 -18.08,36.8 -38.94,20.92 C 107.22,267.69 283.62,242.46 272,173.38 262.34,116.03 86.39,133.68 66.353,223.42 52.79,284.11 122.18,368.31 194.58,368.31 c 35.62,0 76.71,-32.16 84.4,-72.91 5.87,-31.07 -69.08,-18.62 -66.39,1.94 z M 117.63,130.4 c 18.18,-3.71 19.18,-78.308 -13.25,-64.926 -32.436,13.385 -4.922,68.636 13.25,64.926 z m -43.045,34.43 c 15.277,-6.73 1.968,-72.504 -24.01,-54.57 -25.966,17.95 8.733,61.29 24.01,54.57 z m 98.435,-51.76 c 21.48,1.32 45.05,-81.968 4.68,-76.73 -40.36,5.238 -26.17,75.42 -4.68,76.73 z M 292.1,23.59 c -71.71,0 -85.17,102.14 -44.82,102.14 40.33,0 116.53,-102.14 44.82,-102.14 z"></path>
</svg>
