<?xml version="1.0"?>
<!--?xml version="1.0" encoding="UTF-8" standalone="no"?-->
<svg xmlns="http://www.w3.org/2000/svg" viewBox="0 0 1150 410" height="410" width="1150">
   <path d="m 1102.7,121.85 h 5.9 l 7.3,19.66 7.5,-19.66 h 5.8 v 28.84 h -3.8 v -25.34 l -7.4,19.78 h -4 l -7.5,-19.78 v 25.34 h -3.8 z m -28.7,0 h 24.6 v 3.24 h -10.4 v 25.6 h -3.8 v -25.6 H 1074 Z m -119.03,30.01 h 89.73 v 29.61 h -56.5 v 31.68 h 43.4 v 26.39 h -43.4 v 34.91 h 58.3 V 304.2 H 954.97 V 151.86 m -176,0 h 42.41 l 29.36,95.05 29.48,-95.05 h 35.82 l 16.17,152.34 h -31.43 l -9.69,-95.31 -29.75,95.69 h -21.08 l -29.74,-98.93 -9.7,98.55 h -31.55 l 16.16,-152.34 m -294.98,0 h 20.95 l 66.34,91.56 v -91.56 h 28.32 V 304.2 H 585.11 L 518.77,212.64 V 304.2 H 490.45 V 151.86 m -22.76,140.96 c -17.2,14.48 -42.8,14.35 -53.41,14.35 -21.46,0 -38.53,-7.11 -51.08,-21.34 -12.54,-14.09 -18.88,-33.36 -18.88,-57.67 0,-24.57 6.47,-43.84 19.27,-57.94 12.67,-14.1 30.26,-21.21 52.5,-21.21 8.54,0 16.81,1.04 24.57,2.85 7.89,1.94 15.39,4.78 22.38,8.53 l -9.06,26.38 c -3.88,-2.07 -8.4,-4.13 -12.54,-5.69 -7.11,-2.32 -14.23,-3.62 -21.34,-3.62 -13.19,0 -23.4,4.4 -30.65,13.19 -7.11,8.8 -10.73,21.21 -10.73,37.51 0,16.16 3.49,28.58 10.35,37.37 6.98,8.79 17.32,13.06 29.48,13.06 12.42,0 20.04,-3.1 24.05,-6.34 v -26.38 h -26.77 v -26.25 h 51.86 m 220.75,-70.61 c -19.53,0.52 -34.92,7.63 -46.3,21.08 -11.76,13.97 -17.71,33.37 -17.71,58.07 0,24.57 5.95,43.96 17.71,57.93 11.77,13.97 28.07,21.08 48.63,21.08 20.82,0 36.98,-7.11 48.75,-21.08 11.77,-13.97 17.72,-33.36 17.72,-57.93 0,-24.7 -5.95,-44.1 -17.72,-58.07 -11.77,-13.97 -27.93,-21.08 -48.75,-21.08 -0.78,0 -1.55,0 -2.33,0 z m 1.42,28.45 c 0.39,0 0.65,0 0.91,0 10.22,0 18.1,4.53 23.79,13.32 5.56,8.8 8.41,21.34 8.41,37.38 0,16.03 -2.85,28.32 -8.41,37.24 -5.69,8.79 -13.57,13.32 -23.79,13.32 -10.09,0 -17.98,-4.53 -23.54,-13.32 -5.56,-8.92 -8.4,-21.21 -8.4,-37.24 0,-16.04 2.84,-28.58 8.4,-37.38 5.43,-8.53 12.93,-13.06 22.63,-13.32 z M 206.17,314.69 c 3.49,26.67 -19.56,39.82 -42.14,22.64 -71.86,-54.71 118.99,-82 106.41,-156.75 -10.45,-62.05 -200.815,-42.94 -222.493,54.14 -14.674,65.66 60.403,156.75 138.743,156.75 38.53,0 82.98,-34.78 91.3,-78.88 6.35,-33.61 -74.74,-20.14 -71.82,2.1 z M 103.42,134.08 C 123.1,130.07 124.18,49.365 89.089,63.843 53.996,78.324 83.763,138.1 103.42,134.08 Z m -46.567,37.25 c 16.528,-7.28 2.129,-78.436 -25.976,-59.03 -28.0924,19.41 9.448,66.3 25.976,59.03 z M 163.36,115.34 c 23.24,1.42 48.73,-88.684 5.06,-83.017 -43.66,5.667 -28.31,81.597 -5.06,83.017 z M 292.19,18.529 c -77.59,0 -92.14,110.501 -48.5,110.501 43.64,0 126.08,-110.501 48.5,-110.501 z"></path>
 </svg>
