<?xml version="1.0"?>

<svg xmlns="http://www.w3.org/2000/svg" viewBox="0 0 165.1 165.1" height="165.1" width="165.1">

  <path d="M 0,0 V 165.1 H 165.1 V 0 Z m 21.54,9.93 h 7.74 v 9.59 H 28.1 c -1.01,-4.71 -3.19,-8.24 -6.22,-8.41 -2.02,-0.17 -3.2,1.01 -4.21,2.69 -1.01,2.02 -1.52,6.23 -1.52,11.28 0,4.71 0.17,8.24 0.68,10.76 0.33,1.18 1.18,3.03 3.36,3.03 1.18,0 2.02,-0.33 2.53,-1.01 0.84,-1.01 1.01,-3.02 1.01,-4.37 v -4.54 c 0,-1.69 -0.51,-2.7 -1.35,-3.2 -0.67,-0.34 -1.68,-0.34 -2.19,-0.51 v -1.17 h 9.43 v 24.06 h -1.18 c -0.5,-1.85 -0.84,-3.2 -1.68,-4.71 -0.84,-1.52 -2.36,-3.2 -4.88,-3.2 -2.7,-0.17 -4.72,1.52 -4.72,4.04 0,3.37 2.02,4.21 5.73,6.22 3.53,2.02 8.07,3.71 8.07,9.6 0,5.72 -4.88,9.25 -10.43,9.25 H 11.61 V 57.72 h 1.18 c 1.51,8.75 5.22,10.27 7.74,10.27 3.2,0 4.71,-2.02 4.71,-4.88 -0.17,-3.71 -2.69,-5.05 -6.22,-6.9 -5.05,-2.86 -7.41,-4.21 -7.41,-8.92 0.17,-4.04 3.37,-6.57 6.9,-7.57 C 11.11,38.87 8.92,32.14 9.088,24.91 9.088,17.67 13.29,9.93 21.54,9.93 Z m 33.32,0.5 h 5.89 v 27.26 h -5.89 z m 20.86,0 h 5.89 V 37.69 H 76.06 V 35.5 c -0.5,1.18 -1.85,2.53 -4.2,2.53 -5.89,0 -7.41,-7.57 -7.24,-12.12 0.17,-6.73 3.53,-11.11 7.74,-11.11 1.68,0 2.86,0.85 3.36,2.02 z m 22.18,4.2 c 2.2,0.11 3.7,1.15 4.4,3.21 0.7,-1.35 2.2,-3.03 4.7,-3.2 3.7,-0.17 6.2,2.02 6.2,6.73 v 16.32 h -5.7 V 20.7 c 0,-2.02 -0.1,-3.71 -1.5,-4.04 -0.5,-0.17 -1.2,0 -1.8,0.5 -0.9,0.84 -1.2,1.85 -1.2,3.37 V 37.69 H 97.27 V 20.7 c 0,-2.02 0,-3.71 -1.35,-4.04 -0.5,-0.17 -1.18,0 -1.85,0.5 -1.01,0.84 -1.18,1.85 -1.18,3.54 V 37.69 H 87.17 V 15.14 h 5.22 v 2.53 c 0.67,-1.52 2.35,-2.86 4.54,-3.03 0.34,0 0.66,0 0.97,0 z m 51.4,0 c 3.3,0.12 5.5,2.32 5.5,6.74 V 37.69 H 149 V 20.7 c 0,-2.02 0,-3.71 -1.4,-4.04 -0.5,-0.17 -1.3,0 -2,0.5 -0.9,0.84 -1.2,1.85 -1.2,3.54 v 16.99 h -5.7 V 15.14 h 5.4 v 2.53 c 0.6,-1.52 2.3,-2.86 4.5,-3.03 0.3,0 0.5,0 0.7,0 z m -107.23,0 c 2.02,0 3.7,0.84 5.05,2.02 2.52,2.02 3.87,5.72 3.87,9.76 0,4.21 -1.35,7.74 -3.87,9.76 -1.35,1.18 -3.03,2.02 -5.05,2.02 -2.02,0 -3.53,-0.84 -5.05,-2.02 -2.36,-2.02 -3.87,-5.55 -3.87,-9.76 0,-4.04 1.51,-7.74 3.87,-9.76 1.52,-1.18 3.03,-2.02 5.05,-2.02 z m 83.93,0 c 2.2,0 3.5,0.51 4.7,1.18 1.5,0.84 2.5,2.19 2.5,5.22 v 16.65 h -5.5 v -2.52 c -0.7,1.85 -2.5,3.03 -5.1,3.03 -2,0 -5.5,-1.01 -5.5,-6.23 0,-4.88 3.2,-5.89 6.7,-7.4 3.2,-1.35 3.6,-1.52 3.6,-2.86 V 18 c 0,-1.52 -0.9,-2.19 -2.6,-2.19 -0.7,0.17 -1.8,0.5 -1.8,1.34 -0.2,1.01 1,1.01 1.1,2.53 0.2,2.36 -1.6,3.2 -3.3,3.03 -1.2,0 -2.5,-0.67 -2.7,-2.52 -0.2,-3.04 3.2,-5.56 7.9,-5.56 z m -83.93,1.18 c -1.01,0 -1.68,0.5 -2.02,1.34 -0.84,1.69 -0.84,5.22 -0.84,9.26 0,4.21 0,7.57 0.84,9.26 0.34,0.84 1.01,1.34 2.02,1.34 1.18,0 1.68,-0.5 2.19,-1.34 0.67,-1.69 0.67,-5.05 0.67,-9.26 0,-4.04 0.17,-7.57 -0.67,-9.26 -0.51,-0.84 -1.01,-1.34 -2.19,-1.34 z m 30.96,0.33 c -2.18,0 -2.52,5.05 -2.52,9.59 0,2.7 0,5.22 0.17,7.24 0.33,2.19 1.01,3.53 2.19,3.53 0.84,0 1.34,-0.33 1.84,-1.01 1.35,-1.85 1.18,-6.22 1.18,-9.59 0,-3.2 0,-7.23 -1.18,-8.92 -0.5,-0.5 -0.83,-0.84 -1.68,-0.84 z m 54.37,8.08 -1.9,1.18 c -1.9,1.18 -2.2,2.69 -2.4,4.38 -0.1,1.34 -0.1,2.52 0,4.54 0.2,1.85 1.4,2.19 2.4,1.85 1.2,-0.5 1.9,-2.69 1.9,-5.05 z M 72.02,41.9 h 5.72 v 6.56 c 0.85,-1.17 2.36,-2.02 4.21,-2.18 3.7,-0.34 6.23,2.01 6.23,6.73 v 16.32 h -5.89 v -17 c 0,-2.02 0,-3.7 -1.35,-4.04 -0.5,-0.16 -1.34,0 -2.02,0.51 -0.84,0.84 -1.18,1.85 -1.18,3.53 v 17 h -5.72 v -6.06 c -1.01,2.86 -4.54,6.4 -8.58,6.4 -3.53,0 -9.76,-1.69 -9.76,-11.45 0,-9.08 6.06,-11.94 9.26,-11.94 2.52,0 4.2,0.67 5.21,2.35 0.84,1.35 1.01,3.53 -0.17,4.88 -1.51,1.52 -4.71,1.18 -5.21,-0.84 -0.51,-1.85 0.5,-2.69 1.17,-3.53 0.68,-0.68 0.51,-1.69 -1,-1.69 -2.02,0 -2.7,2.19 -3.03,4.88 -0.34,4.21 -0.34,8.08 0.17,11.45 0.33,2.35 1,4.54 3.86,4.54 4.04,0.17 8.08,-5.22 8.08,-10.94 z m -29.28,4.38 c 2.19,0 3.53,0.34 4.71,1.01 1.52,1.01 2.36,2.19 2.36,5.22 v 16.82 h -5.39 v -2.52 c -0.67,1.68 -2.52,2.86 -5.05,2.86 -2.18,0 -5.55,-0.84 -5.55,-6.06 0,-4.88 3.2,-5.89 6.56,-7.4 3.37,-1.51 3.71,-1.68 3.71,-2.86 v -3.7 c 0,-1.69 -0.84,-2.36 -2.53,-2.19 -0.67,0 -1.85,0.34 -1.85,1.18 -0.17,1.18 1.01,1.18 1.18,2.69 0.17,2.19 -1.68,3.03 -3.37,3.03 -1.17,-0.17 -2.52,-0.84 -2.69,-2.69 -0.17,-2.86 3.2,-5.39 7.91,-5.39 z m 57.22,0 h 5.84 v 6.06 h -1.1 c -0.7,-2.52 -1.7,-4.71 -4.4,-4.88 -1.69,-0.17 -3.21,0.84 -3.37,2.36 -0.17,1.51 0.33,2.86 3.37,4.54 3.9,2.18 6.9,3.19 6.9,7.74 0,4.88 -4.2,7.23 -7.75,7.23 h -6.73 v -8.41 h 1.18 c 0.84,4.38 2.19,7.07 5.38,7.24 2.02,0 3.52,-1.18 3.52,-3.37 0,-2.19 -1.3,-3.53 -4.53,-5.38 -3.53,-2.19 -5.72,-3.54 -5.72,-6.57 0,-4.03 2.86,-6.56 7.41,-6.56 z m -55.87,9.43 -1.85,1.17 c -1.86,1.18 -2.19,2.69 -2.36,4.38 -0.17,1.34 -0.17,2.69 0,4.54 0,2.02 1.18,2.36 2.19,1.85 1.34,-0.5 2.02,-2.52 2.02,-5.05 z"></path>
</svg>
