<?xml version="1.0"?>

<!-- Generator: Adobe Illustrator 19.2.0, SVG Export Plug-In . SVG Version: 6.00 Build 0)  -->
<svg version="1.1" id="Layer_1" xmlns="http://www.w3.org/2000/svg" xmlns:xlink="http://www.w3.org/1999/xlink" x="0px" y="0px" width="231.333px" height="246px" viewBox="0 0 231.333 246" enable-background="new 0 0 231.333 246" xml:space="preserve">
<path id="path8" d="M129.128,225.713c-0.46,0.253-0.938,0.554-1.408,0.767c-1.415,0.645-2.861,0.812-4.145,0.812
	c-1.371,0-3.503-0.088-5.684-1.662c-3.036-2.141-4.359-5.816-4.359-9.023c0-6.629,5.389-9.877,9.785-9.877
	c1.541,0,3.125,0.386,4.402,1.199c2.136,1.406,2.693,3.249,2.991,4.233l-10.047,4.058l-3.283,0.265
	c1.067,5.419,4.738,8.584,8.799,8.584c2.181,0,3.763-0.765,5.217-1.496L129.128,225.713z M125.114,212.974
	c0.809-0.297,1.24-0.555,1.24-1.157c0-1.707-1.925-3.677-4.235-3.677c-1.709,0-4.915,1.329-4.915,5.949
	c0,0.726,0.088,1.495,0.132,2.263L125.114,212.974"></path>
<path d="M112.505,226.648h-7.564c0.982-1.276,1.153-1.407,1.153-2.256v-6.969c0-3.334,0.046-8.084,0.175-12.527
	c0.04-2.184,0.211-4.916,0.251-6.884h-3.329l3.204-1.543h6.11c-1.322,0.772-1.751,1.029-1.919,2.528
	c-0.346,3.288-0.388,8.504-0.388,14.577v9.87c0,1.666,0.299,1.927,1.71,2.05c0.721,0.094,1.454,0.137,2.178,0.219L112.505,226.648"></path>
<path id="path12" d="M98.49,208.824c0.981,0.812,3.029,2.524,3.029,5.776c0,3.162-1.794,4.66-3.586,6.068
	c-0.557,0.556-1.203,1.159-1.203,2.098c0,0.935,0.646,1.453,1.115,1.834l1.54,1.194c1.878,1.585,3.59,3.037,3.59,5.982
	c0,4.021-3.89,8.082-11.239,8.082c-6.194,0-9.188-2.947-9.188-6.112c0-1.54,0.77-3.72,3.289-5.219
	c2.651-1.616,6.237-1.839,8.162-1.96c-0.599-0.773-1.281-1.581-1.281-2.905c0-0.732,0.216-1.152,0.431-1.672
	c-0.473,0.046-0.94,0.087-1.368,0.087c-4.532,0-7.095-3.377-7.095-6.709c0-1.967,0.895-4.152,2.732-5.732
	c2.438-2.01,5.345-2.353,7.651-2.353h8.803l-2.734,1.54H98.49L98.49,208.824z M95.455,227.804c-0.344-0.042-0.557-0.042-0.983-0.042
	c-0.385,0-2.691,0.086-4.486,0.686c-0.942,0.341-3.68,1.366-3.68,4.401c0,3.031,2.952,5.213,7.522,5.213
	c4.106,0,6.285-1.969,6.285-4.613C100.113,231.266,98.698,230.115,95.455,227.804 M96.698,219.683
	c0.979-0.982,1.062-2.348,1.062-3.12c0-3.069-1.835-7.866-5.381-7.866c-1.115,0-2.312,0.558-2.993,1.41
	c-0.729,0.897-0.943,2.059-0.943,3.168c0,2.865,1.668,7.611,5.345,7.611C94.858,220.886,96.011,220.365,96.698,219.683"></path>
<path id="path14" d="M72.039,227.206c-6.796,0-10.43-5.295-10.43-10.083c0-5.607,4.571-10.391,11.065-10.391
	c6.284,0,10.222,4.913,10.222,10.089C82.897,221.872,79.001,227.206,72.039,227.206 M77.38,223.74c1.021-1.36,1.28-3.071,1.28-4.739
	c0-3.76-1.795-10.943-7.094-10.943c-1.41,0-2.819,0.559-3.847,1.445c-1.662,1.502-1.965,3.39-1.965,5.228
	c0,4.229,2.095,11.194,7.267,11.194C74.688,225.924,76.395,225.111,77.38,223.74"></path>
<path id="path16" d="M49.297,227.206c-6.794,0-10.427-5.295-10.427-10.083c0-5.607,4.569-10.391,11.07-10.391
	c6.279,0,10.212,4.913,10.212,10.089C60.152,221.872,56.264,227.206,49.297,227.206 M54.641,223.74
	c1.022-1.36,1.282-3.071,1.282-4.739c0-3.76-1.794-10.943-7.093-10.943c-1.413,0-2.823,0.559-3.847,1.445
	c-1.669,1.502-1.973,3.39-1.973,5.228c0,4.229,2.099,11.194,7.272,11.194C51.947,225.924,53.656,225.111,54.641,223.74"></path>
<path d="M36.115,225.719l-5.737,1.317c-2.322,0.361-4.408,0.683-6.608,0.683c-11.059,0-15.268-8.136-15.268-14.504
	c0-7.779,5.973-14.991,16.193-14.991c2.158,0,4.242,0.319,6.125,0.844c3.007,0.84,4.412,1.878,5.295,2.48l-3.329,3.167l-1.402,0.322
	l0.999-1.6c-1.358-1.328-3.845-3.774-8.574-3.774c-6.325,0-11.098,4.815-11.098,11.822c0,7.535,5.452,14.63,14.184,14.63
	c2.566,0,3.891-0.52,5.088-1.006v-6.446l-6.05,0.322l3.208-1.721h8.491l-1.041,0.999c-0.28,0.24-0.321,0.317-0.401,0.638
	c-0.038,0.363-0.074,1.525-0.074,1.923V225.719"></path>
<path d="M147.498,226.648h-3.039l-4.438-19.354h2.399l3.641,17.354l3.797-17.354h3.081l3.839,17.354l3.558-17.354h2.358
	l-4.396,19.354h-3.041l-3.836-17.277L147.498,226.648"></path>
<path id="path22" d="M176.816,213.212c0-3.159-1.398-4.358-4.597-4.358c-2.479,0-3.958,1.359-4.32,3.597l-2.159-0.318
	c0.439-3.159,2.918-5.278,6.557-5.278c4.281,0,6.68,1.839,6.68,6.117v9.88c0,1.678,0.121,2.838,0.362,3.797h-2.242
	c-0.199-0.521-0.28-1.48-0.28-2.039c-0.917,1.357-3.079,2.478-5.115,2.478c-3.562,0-6.357-2.16-6.357-6.477
	c0-3.962,2.839-6.159,6.876-6.159c1.96,0,3.559,0.359,4.597,0.841V213.212L176.816,213.212z M176.816,217.371
	c-1.078-0.521-2.596-0.959-4.636-0.959c-2.721,0-4.642,1.358-4.642,4.198c0,2.997,1.8,4.438,4.281,4.438
	c2.198,0,4.197-1.601,4.996-3.319V217.371"></path>
<path d="M183.381,199.055h2.198v27.593h-2.198V199.055z"></path>
<path d="M190.259,199.055h2.201v27.593h-2.201V199.055z"></path>
<path id="path28" d="M203.379,225.007c2.359,0,4.08-1.4,4.52-5.038l2.236,0.32c-0.558,4.677-3.238,6.797-6.756,6.797
	c-4.6,0-7.32-3.359-7.32-10.276c0-6.196,2.319-9.956,7.081-9.956c4.999,0,6.995,4.157,6.995,9.794v0.723h-11.794
	C198.341,222.687,200.339,225.007,203.379,225.007 M207.777,215.372v-0.08c-0.12-3.6-1.561-6.399-4.638-6.399
	c-3.001,0-4.641,2.521-4.799,6.48H207.777"></path>
<path d="M220.337,226.529c-0.479,0.2-1.359,0.359-2.319,0.359c-2.878,0-3.797-1.44-3.797-4.201v-13.394h-2.516v-1.999h2.516v-6.241
	l2.24-0.88v7.121h3.876v1.999h-3.876v13.115c0,1.838,0.36,2.359,1.917,2.359c0.764,0,1.441-0.159,1.959-0.439V226.529"></path>
<path d="M88.782,86.355c0.336,2.882,0.54,5.782,0.54,8.703c0,13.928-3.797,27.546-10.98,39.377
	c-0.277,0.457-0.499,0.873-0.686,1.266c-1.396,2.816-1.887,5.775-1.626,8.804c0,0.008,0.005,0.069,0.005,0.069
	c-1.744-27.167-16.601-50.673-39.634-62.995c-7.635-4.093-10.518-13.619-6.433-21.257c2.736-5.117,8.041-8.29,13.858-8.29
	c2.567,0,5.12,0.638,7.398,1.855C66.148,61.879,79.323,73.307,88.782,86.355 M179.951,56.798
	c-2.776-12.152-6.896-24.017-12.252-35.278c-2.866-6.017-9.02-9.904-15.691-9.904c-2.579,0-5.089,0.568-7.438,1.688
	c-8.642,4.113-12.321,14.516-8.213,23.133c8.816,18.586,13.172,38.225,13.172,58.622c0,20.397-4.38,40.012-13.026,58.292
	c-0.131,0.279-1.643,3.517-1.643,7.255c-0.015,1.049,0.112,2.618,0.443,4.021c1.12,4.913,4.333,9.371,9.474,11.837
	c2.35,1.107,4.835,1.67,7.408,1.67c6.328,0,12.192-3.502,15.218-9.003c3.464-6.5,6.961-15.037,10.008-26.027
	c0.963-3.311,1.771-6.42,2.529-9.779c2.821-12.407,4.298-25.195,4.298-38.266C184.237,82.142,182.761,69.17,179.951,56.798
	 M106.667,38.637c-0.304-0.511-0.658-0.986-1.013-1.455c-1.149-1.516-2.527-2.772-4.075-3.789c-2.622-1.717-5.773-2.715-8.968-2.715
	c-2.65,0-4.009,0.322-5.916,1.086c-1.956,0.779-4.033,1.847-5.909,3.828c-1.862,1.965-2.98,3.968-3.762,6.058
	c-1.571,4.191-1.382,9.698,1.361,14.108c5.763,9.265,9.154,19.774,10.397,30.597c0.335,2.882,0.539,5.782,0.539,8.703
	c0,13.928-3.797,27.546-10.98,39.377c-0.251,0.415-0.473,0.842-0.686,1.266c-1.396,2.816-1.9,5.872-1.623,8.841
	c0.476,5.029,3.216,9.789,7.854,12.605c1.195,0.72,2.465,1.265,3.777,1.668c1.556,0.469,3.16,0.734,4.788,0.734
	c5.83,0,11.118-2.973,14.144-7.953c9.099-14.984,14.409-31.937,15.547-49.423c0.15-2.364,0.23-4.734,0.23-7.114
	C122.374,75.125,116.945,55.617,106.667,38.637 M136.496,153.35c8.652-18.28,13.032-37.895,13.032-58.292
	c0-7.012-0.48-12.124-0.844-15.36c-11.364-18.181-27.848-34.432-47.145-46.329c0.017,0.009,0.446,0.3,0.479,0.319
	c1.337,0.962,2.462,1.971,3.636,3.494c0.286,0.375,0.685,0.904,1.013,1.455c10.278,16.979,15.707,36.488,15.707,56.421
	c0,2.378-0.08,4.75-0.23,7.114c8.242,15.683,12.738,33.51,12.738,52.215c0,1.487,0.026,3.878-0.01,5.623
	c0.081-1.955,0.571-4.02,1.276-5.823C136.261,153.901,136.371,153.62,136.496,153.35"></path>
</svg>
