<?xml version="1.0"?>
<!--?xml version="1.0" encoding="UTF-8" standalone="no"?-->
<svg xmlns="http://www.w3.org/2000/svg" viewBox="0 0 433 171" width="433" height="171">
  <path d="m 71.922,120.4 c 14.641,0 25.672,-4.79 34.308,-13.79 8.89,-8.9 11.65,-21.36 11.65,-31.44 0,-3.13 -0.24,-6 -0.72,-8.41 H 71.922 V 80.2 h 32.158 c -0.96,7.56 -3.49,13.08 -7.314,16.92 -4.688,4.67 -12,9.84 -24.844,9.84 -19.797,0 -35.281,-15.96 -35.281,-35.76 0,-19.8 15.484,-35.77 35.281,-35.77 10.672,0 18.485,4.21 24.235,9.61 l 9.483,-9.48 C 97.594,27.89 86.922,22 71.922,22 44.797,22 22,44.07 22,71.2 c 0,27.12 22.797,49.2 49.922,49.2 z m 82.568,0 c 17.51,0 31.79,-13.44 31.79,-31.69 0,-18.35 -14.28,-31.67 -31.79,-31.67 -17.54,0 -31.82,13.32 -31.82,31.67 0,18.25 14.28,31.69 31.82,31.69 z m 0,-12.48 c -9.61,0 -17.9,-7.92 -17.9,-19.21 0,-11.39 8.29,-19.18 17.9,-19.18 9.59,0 17.87,7.79 17.87,19.18 0,11.29 -8.28,19.21 -17.87,19.21 z m 69.35,12.48 c 17.52,0 31.8,-13.44 31.8,-31.69 0,-18.35 -14.28,-31.67 -31.8,-31.67 -17.53,0 -31.81,13.32 -31.81,31.67 0,18.25 14.28,31.69 31.81,31.69 z m 0,-12.48 c -9.6,0 -17.89,-7.92 -17.89,-19.21 0,-11.39 8.29,-19.18 17.89,-19.18 9.6,0 17.88,7.79 17.88,19.18 0,11.29 -8.28,19.21 -17.88,19.21 z M 292,148.84 c 16.31,0 30.13,-9.59 30.13,-33 V 58.96 h -13.21 v 5.16 h -0.48 c -3.13,-3.72 -9.13,-7.08 -16.67,-7.08 -15.85,0 -30.36,13.92 -30.36,31.8 0,17.77 14.51,31.56 30.36,31.56 7.54,0 13.54,-3.36 16.67,-7.2 h 0.48 v 4.56 c 0,12.13 -6.48,18.6 -16.92,18.6 -8.51,0 -13.8,-6.11 -15.97,-11.29 l -12.11,5.05 c 3.49,8.41 12.72,18.72 28.08,18.72 z m 0.95,-40.92 c -9.59,0 -17.64,-8.03 -17.64,-19.08 0,-11.16 8.05,-19.31 17.64,-19.31 9.49,0 16.93,8.15 16.93,19.31 0,11.05 -7.44,19.08 -16.93,19.08 z m 52.69,-82.56 h -13.92 v 93.12 h 13.92 z m 38.16,95.04 c 14.51,0 22.92,-8.87 26.4,-14.04 l -10.81,-7.19 c -3.59,5.26 -8.51,8.75 -15.59,8.75 -7.08,0 -12.13,-3.24 -15.36,-9.6 L 410.8,80.79 409.36,77.2 c -2.64,-7.08 -10.69,-20.16 -27.12,-20.16 -16.32,0 -29.88,12.85 -29.88,31.67 0,17.77 13.44,31.69 31.44,31.69 z M 366.16,87.76 c -0.36,-12.23 9.48,-18.48 16.56,-18.48 5.52,0 10.2,2.76 11.77,6.72 z m 0,0"></path>
</svg>
