<?xml version="1.0"?>

<!-- Generator: Adobe Illustrator 19.1.0, SVG Export Plug-In . SVG Version: 6.00 Build 0)  -->
<svg version="1.1" id="Capa_1" xmlns="http://www.w3.org/2000/svg" xmlns:xlink="http://www.w3.org/1999/xlink" x="0px" y="0px" width="261px" height="219.9px" viewBox="0 0 261 219.9" style="enable-background:new 0 0 261 219.9;" xml:space="preserve">

<g>
	<g>
		<path class="st0" d="M141.9,51.7c-1.5-1.5-2.6-2.6-3.5-3.3c-0.8-0.8-1.7-1.4-2.6-1.9c-0.9-0.5-1.8-0.8-2.6-0.8
			c-2.2-0.1-4.2,0.8-6.1,2.6l-4.7,4.7l18.5,18.5l4.7-4.7c1.9-1.9,2.7-3.9,2.6-6c-0.1-1.3-0.6-2.6-1.6-3.8
			C145.7,55.6,144.1,53.9,141.9,51.7z"></path>
		<path class="st0" d="M193.8,85.2c0-0.3,0-0.6-0.1-0.9c0-0.1,0-0.2,0-0.4c0-0.3-0.1-0.6-0.1-0.8c0-0.1-0.1-0.3-0.1-0.4
			c-0.1-0.3-0.1-0.5-0.2-0.8c0-0.1-0.1-0.3-0.1-0.4c-0.1-0.2-0.2-0.5-0.3-0.7c-0.1-0.1-0.1-0.3-0.2-0.4c-0.1-0.2-0.2-0.5-0.4-0.7
			c-0.1-0.1-0.1-0.3-0.2-0.4c-0.2-0.2-0.3-0.5-0.5-0.7c-0.1-0.1-0.1-0.2-0.2-0.3c-0.3-0.3-0.5-0.7-0.9-1l-49-49
			c-4.7-4.7-12.4-4.5-17.2,0.3L76.2,76.7c-0.3,0.3-0.6,0.6-0.9,0.9c-0.2,0.2-0.3,0.4-0.5,0.6c-0.1,0.1-0.2,0.3-0.3,0.4
			c-0.2,0.3-0.3,0.6-0.5,0.8c0,0.1-0.1,0.1-0.1,0.2c-0.2,0.3-0.3,0.6-0.4,0.9c0,0.1-0.1,0.2-0.1,0.2c-0.1,0.3-0.2,0.6-0.3,0.8
			c0,0.1-0.1,0.2-0.1,0.3c-0.1,0.2-0.1,0.5-0.2,0.7c0,0.1-0.1,0.3-0.1,0.4c0,0.2-0.1,0.4-0.1,0.6c0,0.2-0.1,0.4-0.1,0.6
			c0,0.1,0,0.3,0,0.4c0,0.2,0,0.5,0,0.7c0,0,0,0,0,0v0c0,12.7,0,14.1,3.2,17.4l49,48.6c2.3,2.3,5.4,3.4,8.5,3.4v0c0,0,0,0,0,0
			c0,0,0,0,0,0v0c3.1,0,6.1-1.1,8.5-3.4l49-48.6c3.1-3.2,3.2-4.6,3.2-16.1c0,0,0-0.1,0-0.1c0-0.4,0-0.7,0-1.1
			C193.8,85.4,193.8,85.3,193.8,85.2z M130.9,87.4c-0.7,1.6-1.7,3.1-3,4.4c-1.3,1.3-2.7,2.2-4.2,2.9c-1.6,0.7-3.2,1-4.9,1
			c-1.2,0-2.3-0.2-3.2-0.5c-1-0.3-1.9-0.8-2.9-1.5c-1-0.6-2-1.5-3-2.5c-1-1-2.2-2.2-3.6-3.5c-1.4-1.4-2.5-2.6-3.5-3.6
			c-1-1-1.8-2-2.5-3c-0.6-1-1.1-1.9-1.4-2.9c-0.3-1-0.5-2-0.5-3.2c0-3.5,1.3-6.6,3.9-9.2c1.2-1.2,2.5-2.1,3.9-2.8
			c1.4-0.6,2.8-1,4.3-1.1c1.4-0.1,2.9,0.1,4.3,0.5c1.4,0.4,2.8,1.1,4.1,2.1l-2.7,2.7c-2-1.3-4-1.8-6-1.6c-2,0.2-3.8,1-5.4,2.6
			c-0.8,0.8-1.5,1.8-1.9,2.9c-0.5,1.1-0.7,2.2-0.6,3.3c0,0.8,0.1,1.6,0.3,2.3c0.2,0.7,0.6,1.4,1.1,2.2c0.5,0.8,1.2,1.6,2.1,2.6
			c0.9,1,2,2.1,3.3,3.4c1.3,1.3,2.5,2.4,3.4,3.3c1,0.9,1.8,1.6,2.6,2.1c0.8,0.5,1.5,0.9,2.2,1.1c0.7,0.2,1.5,0.3,2.3,0.3
			c1.1,0,2.2-0.2,3.3-0.7c1.1-0.5,2-1.1,2.9-2c0.9-0.9,1.6-2,2.1-3.2c0.5-1.2,0.7-2.5,0.5-3.8c-0.1-1.1-0.4-2.2-0.9-3.1
			c-0.5-0.9-1.3-1.9-2.3-2.9l-1.9-1.9l-6.3,6.3l-2.4-2.4l9-9l4.1,4c1.5,1.5,2.6,2.9,3.3,4.3c0.7,1.4,1.1,2.9,1.1,4.5
			C131.9,84,131.6,85.8,130.9,87.4z M149.5,69.9l-9,9L115,53.4l9-9c2.8-2.8,5.8-4.2,9-4.2c1.5,0,2.9,0.3,4.3,0.8
			c1.3,0.6,2.5,1.3,3.6,2.2c1.1,0.9,2.3,2,3.6,3.3l1.3,1.3l1.3,1.3c1.4,1.4,2.5,2.6,3.4,3.8c0.9,1.1,1.7,2.4,2.3,3.8
			c0.6,1.4,0.9,2.8,0.9,4.3C153.7,64.1,152.3,67.1,149.5,69.9z"></path>
	</g>
	<g>
		<g>
			<path class="st0" d="M54.3,191.5c-0.3,0.9-0.7,1.6-1.4,2.3c-0.7,0.8-1.6,1.4-2.5,1.8c-1,0.4-2,0.6-3,0.6c-1,0-2-0.2-2.9-0.6
				c-0.9-0.4-1.7-0.9-2.4-1.6c-0.5-0.5-0.9-1-1.1-1.5c-0.3-0.5-0.5-1.1-0.6-1.8c-0.1-0.7-0.2-1.4-0.2-2.2c0-0.8,0-1.8,0-2.9
				s0-2.1,0-2.9c0-0.8,0.1-1.6,0.2-2.2c0.1-0.7,0.3-1.2,0.6-1.8c0.3-0.5,0.6-1,1.1-1.5c1.5-1.4,3.2-2.2,5.3-2.2c1,0,1.9,0.2,2.8,0.5
				c0.8,0.3,1.6,0.7,2.2,1.3c0.6,0.6,1.1,1.2,1.6,2c0.4,0.8,0.7,1.6,0.8,2.5h-2.2c-0.3-1.3-0.9-2.4-1.8-3.1c-0.9-0.8-2-1.1-3.3-1.1
				c-0.7,0-1.3,0.1-2,0.4c-0.6,0.3-1.2,0.6-1.6,1.1c-0.3,0.3-0.6,0.7-0.8,1.1c-0.2,0.4-0.3,0.8-0.4,1.4c-0.1,0.5-0.2,1.2-0.2,1.9
				c0,0.8-0.1,1.7-0.1,2.8c0,1.1,0,2,0.1,2.8c0,0.8,0.1,1.4,0.2,1.9c0.1,0.5,0.2,1,0.4,1.4s0.5,0.7,0.8,1.1c0.5,0.5,1,0.8,1.6,1.1
				c0.6,0.3,1.3,0.4,2,0.4c0.8,0,1.5-0.2,2.2-0.5c0.7-0.3,1.3-0.7,1.8-1.3c0.4-0.5,0.7-1.1,0.9-1.7c0.2-0.6,0.3-1.3,0.3-2.1v-1.6
				h-5.1v-2h7.4v3.3C54.7,189.6,54.5,190.7,54.3,191.5z"></path>
			<path class="st0" d="M72.8,196.1l-4.8-9.3h-5v9.3h-2.2v-20.9h8c0.9,0,1.7,0.1,2.5,0.4c0.8,0.3,1.4,0.6,2,1.1
				c0.5,0.5,1,1.1,1.3,1.8c0.3,0.7,0.5,1.5,0.5,2.4c0,1.5-0.4,2.8-1.3,3.7c-0.8,1-1.9,1.6-3.3,1.9l5,9.5H72.8z M71.6,178.1
				c-0.8-0.6-1.8-1-3-1H63v7.7h5.6c1.2,0,2.2-0.3,3-0.9c0.8-0.6,1.2-1.6,1.2-2.9C72.7,179.7,72.3,178.7,71.6,178.1z"></path>
			<path class="st0" d="M94.1,192c-0.4,0.9-0.9,1.6-1.5,2.2c-0.7,0.6-1.4,1.1-2.3,1.5c-0.9,0.3-1.9,0.5-2.9,0.5
				c-1.1,0-2-0.2-2.9-0.5c-0.9-0.3-1.7-0.8-2.3-1.5c-0.6-0.6-1.2-1.4-1.5-2.2c-0.4-0.9-0.5-1.8-0.5-2.9v-14h2.2V189
				c0,0.8,0.1,1.5,0.4,2.2c0.2,0.6,0.6,1.2,1,1.6c0.4,0.5,1,0.8,1.6,1.1c0.6,0.3,1.3,0.4,2.1,0.4c0.8,0,1.5-0.1,2.1-0.4
				c0.6-0.3,1.2-0.6,1.6-1.1c0.4-0.4,0.8-1,1-1.6c0.2-0.6,0.4-1.4,0.4-2.2v-13.8h2.2v14C94.6,190.2,94.4,191.2,94.1,192z"></path>
			<path class="st0" d="M113.8,183.8c-0.3,0.8-0.8,1.4-1.3,1.9c-0.6,0.5-1.2,0.9-2,1.2c-0.8,0.3-1.7,0.4-2.6,0.4h-5.5v8.6h-2.2
				v-20.9h7.8c1,0,1.8,0.1,2.6,0.4c0.8,0.3,1.5,0.7,2,1.2c0.6,0.5,1,1.2,1.3,1.9c0.3,0.8,0.5,1.6,0.5,2.5S114.2,183.1,113.8,183.8z
				 M110.8,178.2c-0.8-0.7-1.9-1-3.2-1h-5.3v8.3h5.3c1.3,0,2.4-0.3,3.2-1c0.8-0.7,1.2-1.7,1.2-3.1S111.7,178.9,110.8,178.2z"></path>
			<path class="st0" d="M132.7,188.5c0,0.8-0.1,1.6-0.2,2.2c-0.1,0.7-0.3,1.2-0.6,1.8c-0.3,0.5-0.6,1-1.1,1.5
				c-0.7,0.7-1.5,1.2-2.4,1.6c-0.9,0.4-1.9,0.6-2.9,0.6c-2.1,0-3.9-0.7-5.3-2.2c-0.5-0.5-0.9-1-1.1-1.5c-0.3-0.5-0.5-1.1-0.6-1.8
				c-0.1-0.7-0.2-1.4-0.2-2.2c0-0.8,0-1.8,0-2.9s0-2.1,0-2.9c0-0.8,0.1-1.6,0.2-2.2c0.1-0.7,0.3-1.2,0.6-1.8c0.3-0.5,0.6-1,1.1-1.5
				c1.5-1.4,3.2-2.2,5.3-2.2c2.1,0,3.9,0.7,5.4,2.2c0.5,0.5,0.9,1,1.1,1.5c0.3,0.5,0.5,1.1,0.6,1.8c0.1,0.7,0.2,1.4,0.2,2.2
				c0,0.8,0,1.8,0,2.9S132.7,187.7,132.7,188.5z M130.4,182.8c0-0.8-0.1-1.4-0.2-1.9c-0.1-0.5-0.2-1-0.4-1.4
				c-0.2-0.4-0.5-0.7-0.8-1.1c-0.5-0.5-1-0.8-1.6-1.1c-0.6-0.3-1.3-0.4-2-0.4c-0.7,0-1.3,0.1-2,0.4c-0.6,0.3-1.2,0.6-1.6,1.1
				c-0.3,0.3-0.6,0.7-0.8,1.1c-0.2,0.4-0.3,0.8-0.4,1.4c-0.1,0.5-0.2,1.2-0.2,1.9c0,0.8-0.1,1.7-0.1,2.8c0,1.1,0,2,0.1,2.8
				c0,0.8,0.1,1.4,0.2,1.9c0.1,0.5,0.2,1,0.4,1.4c0.2,0.4,0.5,0.7,0.8,1.1c0.5,0.5,1,0.8,1.6,1.1c0.6,0.3,1.3,0.4,2,0.4
				c0.7,0,1.4-0.1,2-0.4c0.6-0.3,1.2-0.6,1.6-1.1c0.3-0.3,0.6-0.7,0.8-1.1c0.2-0.4,0.3-0.8,0.4-1.4c0.1-0.5,0.2-1.2,0.2-1.9
				c0-0.8,0-1.7,0-2.8C130.4,184.5,130.4,183.6,130.4,182.8z"></path>
			<path class="st0" d="M154,187.9c0,0.8-0.1,1.5-0.2,2.2c-0.1,0.7-0.3,1.4-0.6,2.1c-0.3,0.7-0.7,1.3-1.3,1.9
				c-0.7,0.7-1.5,1.2-2.5,1.5c-1,0.3-2,0.5-3.1,0.5h-7.6v-20.9h7.6c1.1,0,2.1,0.2,3.1,0.5c0.9,0.3,1.8,0.8,2.5,1.5
				c0.6,0.6,1,1.2,1.3,1.8c0.3,0.6,0.5,1.3,0.6,2c0.1,0.7,0.2,1.4,0.2,2.2c0,0.7,0,1.5,0,2.3C154,186.3,154,187.1,154,187.9z
				 M149.9,183.5c0-0.6-0.1-1.1-0.1-1.5c-0.1-0.4-0.1-0.8-0.3-1.1c-0.1-0.3-0.3-0.6-0.5-0.8c-0.4-0.4-0.8-0.8-1.3-1
				c-0.5-0.2-1.1-0.3-1.8-0.3h-3.1v13.6h3.1c0.7,0,1.3-0.1,1.8-0.3c0.5-0.2,0.9-0.5,1.3-1c0.4-0.5,0.6-1.1,0.7-2
				c0.1-0.8,0.2-2.1,0.2-3.6C149.9,184.7,149.9,184.1,149.9,183.5z"></path>
			<path class="st0" d="M170.1,196.1l-1.2-3.7h-7.4l-1.3,3.7h-4.3l7.6-20.9h3.2l7.6,20.9H170.1z M165.2,181.3l-2.6,7.6h5.2
				L165.2,181.3z"></path>
			<path class="st0" d="M182.8,178.8v17.3h-4.1v-17.3h-5.5v-3.6h15v3.6H182.8z"></path>
			<path class="st0" d="M205.6,192.5c-0.5,0.8-1,1.5-1.7,2.1c-0.7,0.6-1.4,1-2.3,1.2c-0.9,0.3-1.8,0.4-2.7,0.4
				c-1.2,0-2.2-0.2-3.1-0.6c-0.9-0.4-1.8-1-2.5-1.7c-0.5-0.5-0.9-1.1-1.2-1.7c-0.3-0.6-0.5-1.2-0.6-1.9c-0.1-0.7-0.2-1.4-0.2-2.2
				c0-0.8,0-1.6,0-2.5c0-0.9,0-1.7,0-2.5c0-0.8,0.1-1.5,0.2-2.2c0.1-0.7,0.3-1.3,0.6-1.9c0.3-0.6,0.7-1.2,1.2-1.7
				c0.7-0.7,1.6-1.3,2.5-1.7c0.9-0.4,2-0.6,3.1-0.6c1,0,1.9,0.1,2.7,0.4c0.8,0.3,1.6,0.7,2.3,1.2c0.7,0.6,1.2,1.2,1.7,2.1
				c0.5,0.8,0.8,1.8,1,2.9h-4.1c-0.2-0.8-0.6-1.5-1.1-2.1c-0.6-0.6-1.3-0.9-2.4-0.9c-0.6,0-1.1,0.1-1.5,0.3
				c-0.4,0.2-0.8,0.5-1.1,0.8c-0.2,0.2-0.4,0.5-0.5,0.7c-0.1,0.3-0.3,0.6-0.3,1c-0.1,0.4-0.1,1-0.2,1.6c0,0.7,0,1.5,0,2.5
				c0,1,0,1.8,0,2.5c0,0.7,0.1,1.2,0.2,1.6c0.1,0.4,0.2,0.8,0.3,1c0.1,0.3,0.3,0.5,0.5,0.7c0.3,0.3,0.7,0.6,1.1,0.8
				c0.5,0.2,1,0.3,1.5,0.3c1,0,1.8-0.3,2.4-0.9c0.5-0.6,0.9-1.3,1.1-2.1h4.1C206.4,190.7,206.1,191.7,205.6,192.5z"></path>
			<path class="st0" d="M226.3,188.1c0,0.8-0.1,1.5-0.2,2.2c-0.1,0.7-0.3,1.3-0.6,1.9c-0.3,0.6-0.7,1.2-1.2,1.7
				c-0.7,0.7-1.6,1.3-2.5,1.7c-0.9,0.4-2,0.6-3.2,0.6c-1.2,0-2.3-0.2-3.2-0.6c-0.9-0.4-1.7-1-2.5-1.7c-0.5-0.5-0.9-1.1-1.2-1.7
				c-0.3-0.6-0.5-1.2-0.6-1.9c-0.1-0.7-0.2-1.4-0.2-2.2c0-0.8,0-1.6,0-2.5c0-0.9,0-1.7,0-2.5c0-0.8,0.1-1.5,0.2-2.2
				c0.1-0.7,0.3-1.3,0.6-1.9c0.3-0.6,0.7-1.2,1.2-1.7c0.7-0.7,1.6-1.3,2.5-1.7c0.9-0.4,2-0.6,3.2-0.6c1.2,0,2.2,0.2,3.2,0.6
				c0.9,0.4,1.7,1,2.5,1.7c0.5,0.5,0.9,1.1,1.2,1.7c0.3,0.6,0.5,1.2,0.6,1.9c0.1,0.7,0.2,1.4,0.2,2.2c0,0.8,0,1.6,0,2.5
				C226.3,186.5,226.3,187.4,226.3,188.1z M222.2,183.1c0-0.7-0.1-1.2-0.2-1.6c-0.1-0.4-0.2-0.8-0.3-1c-0.1-0.3-0.3-0.5-0.5-0.7
				c-0.3-0.3-0.7-0.6-1.1-0.8c-0.4-0.2-0.9-0.3-1.5-0.3c-0.6,0-1.1,0.1-1.5,0.3c-0.5,0.2-0.8,0.5-1.1,0.8c-0.2,0.2-0.4,0.5-0.5,0.7
				c-0.1,0.3-0.2,0.6-0.3,1c-0.1,0.4-0.1,1-0.2,1.6c0,0.7-0.1,1.5-0.1,2.5c0,1,0,1.8,0.1,2.5c0,0.7,0.1,1.2,0.2,1.6
				c0.1,0.4,0.2,0.8,0.3,1c0.1,0.3,0.3,0.5,0.5,0.7c0.3,0.3,0.7,0.6,1.1,0.8c0.5,0.2,1,0.3,1.5,0.3c0.6,0,1.1-0.1,1.5-0.3
				c0.4-0.2,0.8-0.5,1.1-0.8c0.2-0.2,0.4-0.5,0.5-0.7c0.1-0.3,0.2-0.6,0.3-1c0.1-0.4,0.1-1,0.2-1.6c0-0.7,0.1-1.5,0.1-2.5
				C222.2,184.6,222.2,183.8,222.2,183.1z"></path>
		</g>
	</g>
</g>
</svg>
