<?xml version="1.0"?>

<!-- Generator: Adobe Illustrator 19.1.0, SVG Export Plug-In . SVG Version: 6.00 Build 0)  -->
<svg version="1.1" id="Layer_1" xmlns="http://www.w3.org/2000/svg" xmlns:xlink="http://www.w3.org/1999/xlink" x="0px" y="0px" width="306.59px" height="117.6px" viewBox="0 0 306.59 117.6" enable-background="new 0 0 306.59 117.6" xml:space="preserve">
<path fill="#231F20" d="M92.217,66.044h15.778l-2.158,6.338l-84.419,0.27l79.699-41.805h5.209L92.217,66.044z"></path>
<path fill="#231F20" d="M111.906,22.486h16.587l61.359,40.052H96.667L111.906,22.486z"></path>
<path fill="#231F20" d="M145.08,17.362l135.933,40.052h-88.195l-64.46-40.187L145.08,17.362z"></path>
<path fill="#231F20" d="M189.408,96.387c-0.586,0.462-0.98,1.043-1.384,1.05c-3.731,0.07-7.465,0.041-11.198,0.041
	c-0.086-0.156-0.172-0.311-0.258-0.467c0.44-0.435,0.811-1.114,1.332-1.262c2.132-0.605,3.177-2.149,3.724-4.089
	c1.541-5.465,3.04-10.942,4.501-16.429c0.908-3.412,0.508-4.171-3.08-5.711c0.672-0.472,1.14-1.086,1.601-1.081
	c5.04,0.055,10.089,0.048,15.114,0.389c3.161,0.214,5.379,2.49,6.054,5.424c0.606,2.634-0.413,5.13-3.29,6.81
	c-1.903,1.111-4.113,1.695-6.438,2.614c2.975,4.03,3.161,10.218,9.395,12.362c-0.345,0.528-0.608,1.322-0.917,1.34
	c-1.867,0.112-3.799,0.303-5.594-0.077c-0.794-0.168-1.472-1.536-1.939-2.488c-1.589-3.241-3.142-6.506-4.544-9.832
	c-0.704-1.67-2.002-1.846-3.298-1.468c-0.662,0.193-1.259,1.236-1.529,2.018c-0.608,1.763-1.025,3.596-1.464,5.413
	C185.442,94.072,186.024,95.148,189.408,96.387z M188.839,81.316c0.131,0.24,0.262,0.48,0.393,0.719
	c2.871-0.51,5.807-0.798,8.594-1.601c2.203-0.635,3.445-3.011,3.317-5.153c-0.141-2.369-1.567-4.198-4.077-4.736
	c-1.659-0.356-3.407-0.299-5.131-0.428C190.853,74.032,189.846,77.674,188.839,81.316z"></path>
<path fill="#231F20" d="M123.711,97.317c-1.178-7.671-2.33-15.173-3.535-23.022c-0.386,0.755-0.676,1.224-0.876,1.728
	c-1.927,4.857-3.925,9.688-5.723,14.592c-1.164,3.177-0.592,4.25,2.761,5.825c-0.601,0.423-1.027,0.98-1.466,0.991
	c-3.019,0.077-6.041,0.041-9.063,0.041c-0.094-0.171-0.188-0.342-0.282-0.514c0.505-0.441,1.018-0.874,1.515-1.325
	c0.976-0.886,2.348-1.598,2.849-2.702c2.902-6.405,5.651-12.881,8.33-19.383c0.831-2.018,0.348-2.593-2.832-3.985
	c0.747-0.501,1.232-1.102,1.743-1.124c2.381-0.103,4.768-0.046,6.846-0.046c0.906,7.562,1.792,14.951,2.677,22.339
	c0.206,0.041,0.413,0.081,0.619,0.122c4.393-7.584,10.767-13.907,14.006-22.394c2.676,0,5.512,0,8.908,0
	c-0.702,0.758-1.069,1.527-1.544,1.602c-2.283,0.358-3.155,1.973-3.488,3.886c-0.629,3.618-1.084,7.268-1.565,10.911
	c-0.295,2.24-0.535,4.489-0.742,6.739c-0.263,2.862,0.284,3.685,3.472,4.798c-0.77,0.485-1.241,1.035-1.723,1.045
	c-3.42,0.075-6.842,0.04-10.83,0.04c0.664-0.748,0.96-1.406,1.373-1.491c1.927-0.394,2.979-1.649,3.23-3.423
	c0.825-5.84,1.517-11.699,1.845-17.694c-0.598,0.887-1.209,1.766-1.794,2.662c-4.022,6.162-8.103,12.287-12.002,18.526
	C125.657,97.287,125.026,97.768,123.711,97.317z M163.082,72.135c0.086-0.311,0.107-0.697,0.307-0.907
	c0.386-0.405,0.868-0.991,1.328-1.008c2.26-0.084,4.532-0.096,6.789,0.042c2.278,0.139,3.177,1.191,3.297,3.484
	c0.023,0.444,0.044,0.888,0.09,1.808c0.751-0.436,1.573-0.625,1.72-1.048c0.667-1.928,1.144-3.922,1.75-6.111
	c-7.569,0-14.868-0.018-22.167,0.043c-0.454,0.004-0.903,0.633-1.55,1.117c3.717,1.596,4.178,2.381,3.314,5.585
	c-1.479,5.481-3.007,10.949-4.567,16.407c-0.574,2.009-1.673,3.594-3.844,4.25c-0.521,0.158-0.903,0.777-1.464,1.288
	c0.496,0.248,0.605,0.35,0.714,0.351c7.504,0.02,15.009,0.042,22.513,0.015c0.421-0.002,1.055-0.312,1.225-0.657
	c0.984-2.008,1.859-4.069,2.771-6.112c-0.157-0.175-0.314-0.35-0.471-0.526c-0.743,0.515-1.607,0.918-2.208,1.565
	c-3.441,3.702-7.678,4.824-12.517,3.929c-2.247-0.416-2.938-1.526-2.453-3.756c0.356-1.636,0.855-3.241,1.315-4.854
	c1.147-4.019,1.153-4.035,5.382-3.926c2.861,0.074,4.743,0.418,5.241,3.629c0.054,0.346,0.485,0.634,0.741,0.95
	c0.347-0.305,0.897-0.55,1.009-0.925c0.882-2.948,1.681-5.922,2.505-8.888c-0.12-0.145-0.239-0.289-0.359-0.434
	c-0.598,0.376-1.207,0.736-1.791,1.132c-1.248,0.846-2.393,2.216-3.743,2.455c-2.305,0.408-4.736,0.113-7.351,0.113
	C161.481,77.968,162.28,75.051,163.082,72.135z"></path>
<path fill="#231F20" d="M242.828,69.388c0.467-0.331,0.932-0.947,1.402-0.951c7.3-0.061,14.6-0.043,21.918-0.043
	c-0.506,4.596-1.465,6.673-3.135,6.714c-0.045-0.497-0.076-1.002-0.138-1.503c-0.276-2.237-1.243-3.24-3.507-3.358
	c-2.194-0.114-4.399-0.102-6.596-0.04c-0.444,0.012-1.156,0.407-1.268,0.772c-1.021,3.316-1.936,6.665-2.922,10.145
	c2.665,0,5.136,0.253,7.515-0.105c1.226-0.184,2.296-1.446,3.423-2.239c0.635-0.447,1.245-0.93,1.866-1.396
	c0.157,0.142,0.314,0.285,0.471,0.427c-0.858,3.083-1.7,6.17-2.6,9.241c-0.079,0.268-0.587,0.637-0.808,0.585
	c-0.341-0.08-0.759-0.427-0.881-0.758c-1.294-3.505-1.522-3.685-5.249-3.768c-4.295-0.095-4.307-0.098-5.391,3.957
	c-0.466,1.743-0.956,3.486-1.278,5.257c-0.349,1.92,0.372,2.961,2.318,3.311c4.973,0.893,9.352-0.123,12.798-4.115
	c0.501-0.581,1.345-0.866,2.031-1.289c0.173,0.162,0.346,0.324,0.519,0.485c-0.949,2.066-1.869,4.146-2.879,6.182
	c-0.15,0.302-0.72,0.558-1.097,0.559c-7.626,0.032-15.253,0.024-23.17-0.422c0.481-0.441,0.891-1.096,1.456-1.283
	c1.898-0.626,3.061-1.879,3.587-3.744c1.664-5.898,3.362-11.787,4.92-17.713C246.796,71.78,245.953,70.711,242.828,69.388z
	 M209.927,78.822c-3.977,6.988-1.398,15.119,5.504,17.97c5.665,2.34,11.013,1.132,16.017-2.094c0.36-0.232,0.757-0.604,0.872-0.989
	c0.633-2.126,1.183-4.276,1.754-6.392c-1.686-0.635-2.486-0.047-3.004,1.36c-0.375,1.02-0.947,1.979-1.514,2.916
	c-1.935,3.202-4.743,4.834-8.536,4.572c-3.679-0.254-6.401-2.113-7.242-5.65c-0.592-2.485-0.697-5.307-0.164-7.795
	c1.206-5.638,3.915-10.437,9.782-12.523c5.57-1.981,9.637,0.376,10.936,6.098c0.124,0.545,0.839,0.956,1.641,1.818
	c0.582-2.759,1.03-4.886,1.496-7.096C226.117,64.705,215.778,68.539,209.927,78.822z M291.567,89.981
	c-0.686,0.326-1.639,0.466-2.017,1.008c-3.104,4.445-7.617,5.142-12.51,4.873c-3.082-0.169-4.048-1.34-3.285-4.24
	c1.478-5.613,3.04-11.205,4.673-16.775c0.617-2.104,1.877-3.781,4.027-4.693c0.536-0.227,0.876-0.916,1.637-1.76
	c-4.094,0-7.52-0.022-10.944,0.029c-0.414,0.006-0.896,0.347-1.19,0.674c-0.097,0.108,0.218,0.869,0.486,0.977
	c2.299,0.925,2.109,2.824,1.647,4.585c-1.505,5.738-3.172,11.434-4.752,17.153c-0.534,1.933-1.695,3.27-3.499,4.132
	c-0.447,0.214-0.749,0.729-1.118,1.106c7.948,0.428,15.635,0.44,23.322,0.392c0.382-0.002,0.932-0.445,1.113-0.822
	c0.973-2.026,1.855-4.097,2.768-6.152C291.806,90.306,291.686,90.143,291.567,89.981z"></path>
<path fill="#231F20" d="M48.117,90.119c2.596,5.409,2.596,5.409,4.737,6.643c-1.178,1.309-3.426,1.174-4.235-0.356
	c-0.78-1.475-1.277-3.103-2.097-4.552c-0.417-0.736-1.27-1.226-1.926-1.827c-0.462,0.673-0.974,1.318-1.369,2.029
	c-0.244,0.44-0.291,0.985-0.457,1.472c-0.533,1.555-0.096,2.743,1.331,3.803c-2.116,0-4.232,0-6.365,0
	c-0.011-0.075-0.076-0.289-0.041-0.307c2.13-1.073,2.683-3.076,3.165-5.173c0.418-1.818,0.948-3.614,1.503-5.397
	c0.509-1.635,0.802-3.156-1.2-4.294c3.439-0.173,6.851-0.972,10.047,0.408c2.85,1.231,2.81,4.612,0.048,6.282
	C50.304,89.426,49.17,89.704,48.117,90.119z M44.035,89.169c1.768-0.251,3.206-0.266,4.511-0.69
	c1.487-0.483,2.232-1.707,1.959-3.346c-0.277-1.668-1.525-1.972-2.965-2.194c-1.7-0.262-2.087,0.685-2.361,2.018
	C44.922,86.206,44.517,87.424,44.035,89.169z"></path>
<path fill="#231F20" d="M36.503,86.897c-0.527-0.344-0.692-0.39-0.724-0.481c-1.495-4.336-6.326-5.196-9.396-1.637
	c-2.058,2.386-2.957,5.25-2.306,8.28c0.265,1.234,1.485,2.78,2.622,3.174c1.333,0.463,3.284,0.258,4.54-0.434
	c1.922-1.058,1.467-4.585-1.006-6.093c2.724,0,4.957,0,7.348,0c-0.178,0.243-0.327,0.468-0.498,0.676
	c-0.733,0.895-1.598,1.711-2.178,2.696c-0.715,1.214-0.859,3.235-1.841,3.727c-2.355,1.181-5.093,1.465-7.716,0.55
	c-3.79-1.322-5.366-5.557-3.591-9.434c2.651-5.791,9.891-8.011,15.774-4.693C37.209,84.384,36.875,85.57,36.503,86.897z"></path>
<path fill="#231F20" d="M103.183,88.34c0.022,5.29-5.674,10.216-10.859,9.393c-4.11-0.653-6.446-5.05-4.703-9.306
	c1.383-3.375,3.894-5.779,7.538-6.662C99.405,80.734,103.165,83.872,103.183,88.34z M101.027,87.722
	c-0.411-2.195-1.067-3.872-2.954-4.814c-1.599-0.798-3.972-0.147-5.454,1.396c-1.926,2.006-2.71,4.481-2.91,7.181
	c-0.187,2.511,0.842,4.448,2.652,5.077c2.029,0.705,4.562,0.014,5.731-2.041C99.305,92.389,100.067,89.999,101.027,87.722z"></path>
<path fill="#231F20" d="M67.243,82.081c1.907,0,3.814,0,6.198,0c-4.17,2.594-3.541,6.936-4.713,10.512
	c-1.296,3.953-3.931,5.795-8.025,5.15c-3.337-0.526-5.048-2.995-4.271-6.267c0.431-1.817,0.948-3.615,1.485-5.404
	c0.465-1.55,0.798-2.999-1.662-3.483c0.115-0.144,0.229-0.288,0.344-0.431c2.197,0,4.394,0,6.614,0c0,0.008,0.034,0.227-0.005,0.241
	c-2.188,0.785-2.711,2.669-3.171,4.65c-0.393,1.693-0.962,3.345-1.384,5.032c-0.567,2.268,0.26,3.579,2.543,4.164
	c3.014,0.773,5.383-0.529,6.263-3.537c0.542-1.853,0.96-3.743,1.417-5.62c0.458-1.881,0.941-3.785-2.034-4.456
	C66.975,82.448,67.109,82.264,67.243,82.081z M79.021,90.415c1.402-0.1,2.862,0.011,4.195-0.347
	c2.549-0.685,3.873-2.523,3.632-4.572c-0.236-2.01-1.997-3.372-4.647-3.545c-1.096-0.072-2.197-0.079-3.295-0.091
	c-1.417-0.015-2.834-0.004-4.251-0.004c-0.058,0.186-0.116,0.372-0.173,0.558c1.65,0.706,2.248,1.888,1.58,3.447
	c-1.63,3.801-0.891,8.602-5.071,11.443c2.478,0,4.694,0,6.562,0c-0.496-1.091-1.485-2.197-1.305-3.059
	c0.723-3.462,1.789-6.855,2.786-10.256c0.117-0.4,0.538-0.905,0.912-1.003c1.811-0.474,3.743,0.667,4.097,2.31
	c0.399,1.852-0.808,3.483-2.862,3.848c-0.719,0.128-1.443,0.22-2.165,0.329C79.017,89.788,79.019,90.102,79.021,90.415z"></path>
</svg>
