<?xml version="1.0"?>

<svg xmlns="http://www.w3.org/2000/svg" viewBox="0 0 280.22 69.387" height="153.81" width="530">
<path d="m 43.72,34.1 c -5.56,0 -13.69,-4.5 -21.62,-4.5 -7.93,0 -12.665,4.5 -13.489,5.11 -0.823,0.61 -1.338,2.96 1.132,2.24 2.467,-0.71 4.527,-0.71 8.447,-0.71 3.91,0 13.28,5.31 22.75,5.31 9.47,0 17.4,-7.25 19.15,-9.8 1.76,-2.55 0.11,-3.37 -1.23,-2.76 -1.34,0.61 -9.99,5.11 -15.14,5.11 z M 74.57,19.81 c -5.36,0 -13.2,-4.15 -20.85,-4.15 -7.64,0 -12.2,4.15 -13.01,4.72 -0.79,0.56 -1.29,2.74 1.1,2.08 2.39,-0.67 4.37,-0.67 8.14,-0.67 3.77,0 12.81,4.92 21.94,4.92 9.14,0 16.78,-6.71 18.47,-9.07 1.68,-2.37 0.1,-3.12 -1.19,-2.55 -1.3,0.57 -9.63,4.72 -14.6,4.72 z M 52.4,6.868 c -5.1,0 -12.56,-4.158 -19.85,-4.158 -7.27,0 -11.61,4.158 -12.37,4.725 -0.76,0.567 -1.23,2.735 1.04,2.078 2.27,-0.661 4.15,-0.661 7.75,-0.661 3.59,0 12.19,4.908 20.89,4.908 8.68,0 15.97,-6.703 17.57,-9.066 C 69.04,2.331 67.53,1.575 66.3,2.143 65.06,2.71 57.13,6.868 52.4,6.868 Z M 89.1,31.6 c -0.94,-0.88 -1.65,0.3 -3.77,1.18 -2.13,0.88 -2.83,0.77 -4.96,0.48 -3.48,-0.78 -9.59,-0.54 -11.19,0.23 -10.75,4.31 -4.98,12.29 -3.23,13.89 0,0 -2.62,1.37 -3,3.52 -0.49,2.76 0.78,4.26 0.82,4.3 -3.51,0.18 -5.76,3.72 -5.22,6.6 0.59,3.12 4.3,5.6 9.61,5.62 11.22,0.24 11.81,-6.94 11.81,-6.94 1.54,-8.73 -5.87,-9.14 -11.15,-8.72 -1.91,-1.71 -0.42,-3.31 -0.5,-3.31 17.84,0.43 13.35,-11.47 13.35,-11.47 3.01,-0.73 8.9,-3.96 7.43,-5.38 z M 65.21,56.62 c 6.99,1.27 9.81,-0.34 10.28,3.22 0.21,3.48 -2.74,4.47 -6.17,4.68 -3.44,0.22 -5.94,-1.52 -6.07,-3.75 -0.14,-2.22 1.81,-2 1.96,-4.15 z m 10.8,-15.19 c -0.64,2.85 -2.63,4.84 -4.43,4.44 -1.79,-0.41 -2.72,-3.05 -2.08,-5.91 0.65,-2.86 2.62,-4.85 4.42,-4.44 1.79,0.41 2.73,3.06 2.09,5.91 z m 24.59,-0.99 2.2,-3.71 c 0,0 -1.8,-3.81 -7.05,-3.81 -5.29,0 -8.34,3.81 -8.34,8.35 0,4.52 10.08,7.93 7.63,12.41 -4.07,4.17 -8.36,-2.63 -8.28,-3.08 -0.31,0.44 -2.41,3.34 -2.32,3.34 0.51,1.02 2.36,4.25 8.26,4.32 4.88,0.1 7.8,-3.56 7.9,-8.04 0.1,-6 -8.61,-9.06 -8.72,-11.8 -0.1,-2.76 5.81,-5.91 8.72,2.02 z m 83.8,16.89 c 1,-0.77 0.3,-2.32 -0.4,-2.51 -1,-1.89 1.9,-12.98 1.9,-16.02 0,-3.03 -5.1,-9.12 -15.6,-3.39 -1,0.65 -0.7,1.7 -0.4,2.05 0.2,0.36 0.7,0.6 1,0.36 0.9,-1.07 5.2,-2.2 7.2,-0.1 1.4,1.28 1.3,3.73 0.4,4.7 -1.2,0.1 -12.7,-0.24 -14.1,7.08 -2.3,12.99 12.2,6.15 13,5.62 0.7,-0.53 0.6,1.53 1.9,2.41 3.3,0.28 4.5,0.32 5.1,-0.22 z m -7.2,-5.42 c -1.2,3.1 -5.6,2.62 -5.9,0.42 -0.9,-7.35 6.7,-6.79 6.7,-6.79 0,0 0.3,3.25 -0.8,6.37 z m -58.7,-26.71 -6.3,2.2 -1.4,5.88 h -4.1 v 3.88 h 3.2 c 0,0 -3.4,12.14 -2.7,15.86 0.5,4.03 4.5,4.88 6.9,4.77 2.2,-0.1 2.9,-1.8 2.8,-2.44 -0.1,-0.63 -3.3,0.61 -3.6,-2.25 -0.2,-1.7 2.7,-15.94 2.7,-15.94 h 5 v -3.88 h -4 z m 9.4,32.51 h -7.7 c 0,0 4.5,-16.22 4.9,-24.17 0,0.1 6.7,0 6.7,0 0,0 -0.6,1.79 -0.8,3.36 1.9,-2.13 2.6,-4.04 7.8,-4.04 0.1,0 0,6.71 0,6.71 0,0 -4.9,-1.2 -6.6,0.54 -1.8,1.75 -3.6,3.15 -4.3,17.6 z m 133.5,0 h -7.7 c 0,0 4.5,-16.22 4.9,-24.17 0,0.1 6.7,0 6.7,0 0,0 -0.6,1.79 -0.8,3.36 1.9,-2.13 2.6,-4.04 7.8,-4.04 0.1,0 0,6.71 0,6.71 0,0 -4.9,-1.2 -6.6,0.54 -1.8,1.75 -3.6,3.15 -4.3,17.6 z M 154.1,32.87 c -9.7,0 -13.9,6.77 -13.9,13.69 0,6.91 4.1,11.48 12.4,11.48 3.9,0 6.2,-3.62 6.2,-3.62 0,0 0.1,-0.99 -0.7,-0.58 -0.7,0.42 -2.7,1.27 -5.4,1.27 -2.6,0 -5.4,-2.5 -5.4,-8.71 0,0 15.3,0 15.1,0 0.7,-2.51 1.3,-13.53 -8.3,-13.53 z m 1.4,10.73 h -7.4 c 0,-5.06 3.4,-8.33 6.2,-6.98 2.5,1.16 1.2,6.98 1.2,6.98 z m 88.7,-10.73 c -9.7,0 -13.9,6.77 -13.9,13.69 0,6.91 4,11.48 12.4,11.48 3.9,0 6.2,-3.62 6.2,-3.62 0,0 0.1,-0.99 -0.7,-0.58 -0.7,0.42 -2.7,1.27 -5.4,1.27 -2.6,0 -5.4,-2.5 -5.4,-8.71 0,0 15.2,0 15.1,0 0.7,-2.51 1.3,-13.53 -8.3,-13.53 z m 1.4,10.73 h -7.4 c 0,-5.06 4.1,-8.88 6.8,-7.52 2.6,1.17 0.6,7.52 0.6,7.52 z m -49.4,13.72 c -0.3,-6.44 2.5,-21.45 8.9,-20.04 2.7,0.61 2,4.39 1.1,8.49 -1.2,5.52 -3.3,11.54 -3.3,11.54 0,0 7.9,0.32 7.8,0 0.7,-9.9 2.8,-20.68 8.6,-19.88 4.8,0.67 -1.4,19.88 -1.4,19.88 0,0 6,0 7.2,0 -0.3,-3.25 1.5,-10.84 2.5,-16.33 0.9,-5.48 -1.2,-7.88 -5.6,-7.92 -4.4,-0.1 -8.8,3.81 -8.8,3.81 0.2,-3.3 -4.1,-3.82 -4.1,-3.82 -4.7,-0.29 -9.2,2.84 -9.2,2.84 l 0.5,-2.43 h -7 c 0,0 -0.4,3.86 -1.8,10.9 -1.4,7.04 -3.3,12.95 -3.3,12.95 z"></path>
</svg>