<?xml version="1.0"?>

  <svg xmlns="http://www.w3.org/2000/svg" viewBox="0 0 252.536 153.165" width="252.536" height="153.165">

	<path d="m 245.9,76.39 c 0.6,-0.42 1.2,-0.76 1.7,-1.02 0.6,-0.26 1.1,-0.39 1.5,-0.39 1,0 1.7,0.43 2.2,1.29 0.5,0.86 0.7,1.91 0.7,3.16 0,1.35 -0.3,2.73 -0.9,4.13 -0.5,1.41 -1.4,2.58 -2.6,3.51 -4.7,4.16 -8.9,7.96 -12.6,11.39 -3.7,3.44 -7.2,6.34 -10.4,8.84 -3.3,2.5 -6.5,4.4 -9.6,5.7 -3.1,1.4 -6.5,2.1 -10,2.1 -3.4,0 -5.9,-0.8 -7.8,-2.2 -1.8,-1.5 -2.7,-3.5 -2.7,-6 0,-0.2 0,-0.4 0,-0.6 0,-0.2 0,-0.4 0.1,-0.7 0.1,-1.5 0.8,-3.3 2,-5.3 1.2,-2.08 2.6,-4.18 4.3,-6.36 1.7,-2.19 3.4,-4.4 5.3,-6.63 1.9,-2.24 3.7,-4.36 5.3,-6.36 1.6,-2 2.9,-3.83 3.9,-5.5 1.1,-1.66 1.6,-3.01 1.6,-4.05 0,-0.63 -0.2,-1.12 -0.6,-1.49 -0.5,-0.36 -1.2,-0.54 -2.2,-0.54 -1.8,0 -3.6,0.45 -5.4,1.36 -1.9,0.91 -3.7,2.13 -5.6,3.67 -1.8,1.53 -3.6,3.29 -5.3,5.26 -1.7,1.98 -3.4,4.03 -4.9,6.16 -1.5,2.14 -2.9,4.28 -4.1,6.44 -1.3,2.16 -2.3,4.15 -3.2,5.97 -0.3,0.57 -0.7,1.37 -1.1,2.37 -0.5,1.1 -1,2.3 -1.6,3.6 -0.6,1.3 -1.2,2.6 -1.8,4 -0.7,1.3 -1.2,2.6 -1.8,3.9 -0.5,1.2 -1,2.3 -1.4,3.2 -0.4,1 -0.7,1.7 -0.9,2 -0.2,0.5 -0.6,1.4 -1.1,2.7 -0.5,1.3 -1,2.8 -1.7,4.5 -0.7,1.8 -1.4,3.6 -2.1,5.5 -0.7,2 -1.4,3.8 -2,5.5 -0.7,1.7 -1.2,3.2 -1.7,4.5 -0.5,1.3 -0.8,2.2 -0.9,2.7 -0.5,1.3 -1,2.6 -1.6,3.8 -0.6,1.2 -1.2,2.2 -2,3.2 -0.8,0.9 -1.7,1.6 -2.6,2.1 -1,0.6 -2.1,0.9 -3.4,0.9 -1.6,0 -2.9,-0.4 -3.9,-1.2 -1,-0.7 -1.5,-2.2 -1.5,-4.3 0,-1 0.1,-2.1 0.4,-3.2 0.2,-1.1 0.6,-2.2 0.9,-3.2 0.4,-1.1 0.8,-2.1 1.3,-3.1 0.4,-1.1 0.8,-2 1.1,-3 2.4,-5.2 4.8,-10.4 7.3,-15.6 2.4,-5.2 4.8,-10.4 7,-15.5 2.3,-5.16 4.4,-10.19 6.3,-15.13 2,-4.94 3.6,-9.67 4.8,-14.19 0.4,-0.94 0.9,-2.26 1.5,-3.98 0.6,-1.71 1.3,-3.4 2.1,-5.07 0.8,-1.66 1.7,-3.1 2.7,-4.33 0.9,-1.22 2,-1.83 3.1,-1.83 1.8,0 3.1,0.4 3.9,1.21 0.8,0.81 1.2,1.99 1.2,3.55 0,0.31 -0.1,0.81 -0.2,1.48 -0.1,0.68 -0.2,1.39 -0.3,2.15 -0.1,0.75 -0.3,1.46 -0.4,2.14 -0.2,0.68 -0.3,1.17 -0.5,1.48 1.7,-1.77 3.4,-3.52 5.3,-5.26 1.9,-1.74 3.8,-3.32 5.9,-4.72 2,-1.4 4,-2.55 6.2,-3.43 2.1,-0.89 4.2,-1.33 6.3,-1.33 1.4,0 2.9,0.21 4.3,0.62 1.4,0.42 2.7,1.03 3.8,1.84 1.1,0.8 2,1.82 2.7,3.04 0.7,1.22 1.1,2.64 1.1,4.25 0,2.13 -0.5,4.41 -1.6,6.82 -1.1,2.42 -2.4,4.85 -4.1,7.3 -1.6,2.44 -3.4,4.82 -5.2,7.13 -1.9,2.32 -3.7,4.42 -5.3,6.32 -1.7,1.9 -3.1,3.51 -4.2,4.83 -1.1,1.33 -1.7,2.21 -1.7,2.71 0,0.6 0.2,1.1 0.6,1.5 0.4,0.4 1,0.6 1.9,0.6 0.8,0 1.9,-0.4 3.3,-1.3 1.5,-0.8 3.5,-2.23 6.1,-4.28 2.6,-2.06 5.9,-4.81 10,-8.27 4,-3.45 8.9,-7.81 14.8,-13.06 z M 152.6,90.5 c -0.5,1.2 -0.9,2.59 -1.4,4.18 -0.5,1.58 -0.7,3 -0.7,4.25 0,0.78 0.1,1.37 0.4,1.87 0.3,0.5 0.8,0.7 1.5,0.7 0.9,0 2.1,-0.3 3.5,-1 1.3,-0.62 2.8,-1.48 4.4,-2.55 1.6,-1.06 3.3,-2.28 5,-3.66 1.8,-1.38 3.5,-2.81 5.2,-4.29 1.7,-1.49 3.4,-2.97 4.9,-4.45 1.6,-1.48 3,-2.85 4.2,-4.09 0.4,-0.37 0.8,-0.63 1.3,-0.78 0.4,-0.16 0.9,-0.24 1.2,-0.24 0.9,0 1.6,0.37 2.2,1.1 0.6,0.72 0.8,1.68 0.8,2.88 0,1.09 -0.3,2.32 -0.9,3.67 -0.6,1.35 -1.7,2.68 -3.2,3.97 -2.8,3.07 -5.7,5.98 -8.5,8.74 -2.9,2.8 -5.7,5.2 -8.5,7.3 -2.9,2.1 -5.7,3.8 -8.5,5 -2.8,1.3 -5.5,1.9 -8.1,1.9 -1.8,0 -3.3,-0.3 -4.5,-0.9 -1.2,-0.5 -2.2,-1.3 -2.9,-2.3 -0.7,-1 -1.2,-2.2 -1.5,-3.5 -0.4,-1.4 -0.5,-2.8 -0.5,-4.3 0,-2.5 0.3,-5.16 0.9,-7.84 0.7,-2.68 1.4,-5.14 2.3,-7.37 1.6,-4.06 3.1,-8.08 4.7,-12.09 1.6,-4 3,-7.67 4.3,-11 l 20,-50.3 c 0.8,-2.03 1.8,-3.46 3.2,-4.29 1.3,-0.83 2.7,-1.251 4,-1.251 1.4,0 2.6,0.441 3.8,1.331 1.1,0.88 1.6,2.31 1.6,4.29 0,0.93 -0.2,1.92 -0.5,2.96 -0.4,1.04 -0.9,2.16 -1.4,3.35 -1.1,2.45 -2.4,5.44 -4,8.97 -1.5,3.54 -3.1,7.38 -4.8,11.54 -1.8,4.16 -3.5,8.49 -5.4,12.99 -1.8,4.5 -3.6,8.88 -5.3,13.14 -1.7,4.27 -3.4,8.31 -4.9,12.13 -1.5,3.82 -2.8,7.14 -3.9,9.94 z m -2,3.9 c -2,2.6 -4.2,5.14 -6.8,7.6 -2.6,2.5 -5.2,4.7 -7.9,6.6 -2.7,1.9 -5.4,3.5 -8.1,4.6 -2.6,1.2 -5,1.8 -7.1,1.8 -2.1,0 -3.8,-0.7 -5.1,-2.1 -1.3,-1.4 -2,-3.8 -2,-7.2 0,-2.4 0.4,-5.2 1.1,-8.33 -1.2,2.03 -2.6,4.13 -4.3,6.13 -1.7,2.1 -3.7,4 -5.9,5.7 -2.2,1.7 -4.62,3.1 -7.34,4.2 -2.72,1.1 -5.68,1.6 -8.89,1.6 -1.44,0 -2.84,-0.2 -4.18,-0.6 -1.34,-0.3 -2.51,-0.9 -3.52,-1.8 -1.01,-0.9 -1.82,-2.1 -2.44,-3.6 -0.61,-1.5 -0.92,-3.3 -0.92,-5.5 0,-0.1 0.1,-0.9 0.26,-2.4 0.18,-1.56 0.74,-3.98 1.68,-7.28 0.95,-3.3 2.41,-7.58 4.38,-12.83 1.98,-5.25 4.77,-11.62 8.36,-19.11 0.93,-1.97 1.99,-3.39 3.2,-4.25 1.21,-0.86 2.51,-1.29 3.92,-1.29 0.61,0 1.29,0.1 1.89,0.28 0.7,0.18 1.3,0.46 1.9,0.85 0.5,0.39 1,0.89 1.3,1.49 0.4,0.59 0.6,1.28 0.6,2.06 0,0.52 -0.1,1.02 -0.2,1.48 -0.2,0.89 -0.7,2.04 -1.4,3.47 -0.8,1.43 -1.6,3.07 -2.6,4.92 -0.95,1.84 -1.97,3.83 -3.04,5.97 -1.08,2.13 -2.07,4.34 -3,6.62 -0.92,2.29 -1.71,4.62 -2.37,6.98 -0.66,2.37 -1.03,4.67 -1.12,6.91 0,0.93 0.22,1.79 0.66,2.57 0.44,0.76 1.16,1.16 2.18,1.16 2.85,0 5.57,-0.9 8.19,-2.8 2.6,-1.87 5,-4.2 7.1,-6.98 2.2,-2.78 4.2,-5.77 6,-8.97 1.8,-3.2 3.3,-6.12 4.5,-8.77 0.8,-1.77 1.5,-3.67 2.2,-5.7 0.6,-2.02 1.3,-3.89 2,-5.61 0.8,-1.72 1.6,-3.15 2.6,-4.29 1,-1.14 2.2,-1.72 3.6,-1.72 1.6,0 2.9,0.6 3.8,1.8 0.9,1.19 1.4,2.62 1.4,4.29 0,0.93 -0.3,2.22 -0.9,3.86 -0.6,1.64 -1.4,3.51 -2.3,5.61 -0.9,2.11 -1.8,4.36 -2.9,6.75 -1.1,2.39 -2,4.82 -2.9,7.29 -0.9,2.47 -1.7,4.89 -2.3,7.26 -0.6,2.36 -0.9,4.56 -0.9,6.59 0,1.89 1,2.79 2.9,2.79 1.4,0 3.1,-0.5 5.1,-1.4 2,-0.9 4.1,-2.24 6.4,-3.93 2.2,-1.69 4.4,-3.68 6.6,-5.96 2.2,-2.29 4.2,-4.76 5.9,-7.41 l 0.7,10.6 z M 67.53,79.12 c -0.17,0.26 -0.49,1.08 -0.95,2.45 -0.46,1.38 -1.02,3.11 -1.68,5.19 -0.66,2.08 -1.37,4.41 -2.14,6.98 -0.77,2.57 -1.56,5.2 -2.37,7.86 -0.82,2.7 -1.59,5.3 -2.34,7.9 -0.75,2.6 -1.42,4.9 -2.01,7 -0.59,2.1 -1.08,3.8 -1.48,5.2 -0.4,1.4 -0.64,2.2 -0.72,2.5 -0.22,0.8 -0.58,1.8 -1.06,2.8 -0.48,1 -1.05,1.9 -1.71,2.9 -0.66,0.9 -1.38,1.6 -2.17,2.2 -0.79,0.6 -1.61,0.9 -2.44,0.9 -1.4,0 -2.42,-0.5 -3.06,-1.4 -0.64,-0.9 -0.96,-2.6 -0.96,-5.1 0,-0.4 0,-0.8 0,-1.1 0,-0.4 0,-0.8 0.1,-1.2 0,-0.8 0.37,-2.4 0.99,-4.7 0.61,-2.3 1.35,-4.9 2.21,-7.7 0.85,-2.9 1.77,-5.9 2.76,-9 0.99,-3.1 1.88,-5.87 2.67,-8.32 -2.33,2.6 -4.85,5.19 -7.57,7.72 -2.73,2.6 -5.51,4.9 -8.37,7 -2.85,2 -5.73,3.7 -8.62,5 -2.9,1.3 -5.69,2 -8.37,2 -3.07,0 -5.71,-0.7 -7.93,-2.1 C 8.062,112.8 6.23,111 4.781,108.8 3.332,106.6 2.256,104.2 1.554,101.4 0.851,98.67 0.5,95.91 0.5,93.16 c 0,-0.37 0,-0.71 0,-1.02 0,-0.31 0.021,-0.62 0.066,-0.93 0.263,-5 0.976,-10.12 2.14,-15.37 C 3.869,70.59 5.394,65.36 7.283,60.16 9.17,54.97 11.35,49.88 13.84,44.92 c 2.47,-4.97 5.17,-9.66 8.09,-14.08 2.92,-4.42 6.03,-8.49 9.32,-12.21 3.29,-3.71 6.67,-6.91 10.14,-9.591 3.47,-2.677 6.97,-4.77 10.5,-6.278 C 55.43,1.254 58.93,0.5 62.4,0.5 c 3.99,0 7.85,1.092 11.58,3.275 3.73,2.184 7.22,5.721 10.47,10.605 0.75,1.09 1.22,2.2 1.42,3.32 0.2,1.11 0.3,2.17 0.3,3.15 0,2.34 -0.56,4.19 -1.68,5.54 -1.12,1.36 -2.45,2.03 -3.99,2.03 -1.4,0 -2.71,-0.74 -3.91,-2.22 -1.21,-1.48 -2.56,-3.6 -4.05,-6.36 -1.41,-2.49 -2.96,-4.3 -4.65,-5.42 -1.69,-1.12 -3.52,-1.67 -5.5,-1.67 -3.07,0 -6.35,1.27 -9.84,3.82 -3.49,2.55 -6.95,5.91 -10.37,10.1 -3.43,4.18 -6.71,8.97 -9.85,14.35 C 29.2,46.4 26.42,51.91 24,57.55 21.59,63.2 19.67,68.76 18.24,74.24 16.82,79.73 16.1,84.65 16.1,89.02 c 0,1.46 0.1,2.95 0.3,4.49 0.2,1.53 0.57,2.92 1.12,4.17 0.55,1.25 1.29,2.27 2.24,3.12 0.94,0.8 2.14,1.2 3.59,1.2 1.62,0 3.47,-0.6 5.53,-1.7 2.06,-1.06 4.2,-2.49 6.42,-4.26 2.21,-1.77 4.44,-3.77 6.68,-6.01 2.24,-2.23 4.33,-4.49 6.26,-6.78 1.93,-2.29 3.64,-4.49 5.13,-6.59 1.5,-2.11 2.61,-3.94 3.36,-5.5 l 6.13,-18.33 c 0.74,-1.97 1.72,-3.38 2.93,-4.21 1.2,-0.83 2.44,-1.25 3.72,-1.25 0.61,0 1.22,0.11 1.84,0.32 0.61,0.2 1.16,0.53 1.65,0.97 0.48,0.44 0.86,1.01 1.15,1.72 0.28,0.7 0.43,1.52 0.43,2.45 0,2.5 -0.22,4.84 -0.66,7.02 -0.44,2.19 -1,4.32 -1.68,6.4 -0.68,2.08 -1.44,4.17 -2.27,6.28 -0.84,2.1 -1.65,4.3 -2.44,6.59 z"></path>
 
</svg>
