<svg viewBox="0 0 664 173" xmlns="http://www.w3.org/2000/svg">
    <path class="only-light-background" d="m 286.8,110.7 c 0.2,0 0.3,0 0.5,0 l 31.8,0 -2.1,9.5 -32.4,0 c 0,0 0,0 0,0 -2.5,-0.1 -4.1,-2.2 -3.6,-4.7 0.6,-2.7 3.2,-4.8 5.8,-4.8 z m 308.7,-24.37 26.6,0 c 3.9,0 6.4,3.21 5.5,7.13 l -4.4,20.14 c -0.9,3.9 -4.8,7.1 -8.7,7.1 l -26.7,0 7.7,-34.37 z m -71,0 23.4,0 c 3.9,0 6.4,3.2 5.6,7.11 L 549,113.6 c -0.9,3.9 -4.8,7.1 -8.7,7.1 l -23.4,0 c -3.9,0 -6.4,-3.2 -5.6,-7.1 l 4.5,-20.16 c 0.9,-3.91 4.8,-7.11 8.7,-7.11 z m -78.1,0 23.4,0 c 3.9,0 6.4,3.2 5.5,7.11 l -4.4,20.16 c -0.9,3.9 -4.8,7.1 -8.7,7.1 l -23.4,0 c -4,0 -6.4,-3.2 -5.6,-7.1 l 4.5,-20.16 c 0.9,-3.91 4.8,-7.11 8.7,-7.11 z m -74.2,-0.5 26.6,0 -7.6,34.37 -26.7,0 c -3.9,0 -6.3,-3.2 -5.5,-7.1 l 4.5,-20.18 c 0.9,-3.91 4.8,-7.09 8.7,-7.09 z M 515.9,71.02 c -7.4,0 -14.8,6.05 -16.4,13.44 L 491,122.6 c -1.6,7.4 3.1,13.4 10.5,13.4 l 47.4,0 c 7.4,0 14.8,-6 16.4,-13.4 l 8.4,-38.13 c 1.7,-7.39 -3,-13.44 -10.4,-13.44 l -47.4,0 z m -78.1,0 c -7.4,0 -14.8,6.05 -16.4,13.44 l -8.5,38.14 c -1.6,7.4 3.1,13.4 10.5,13.4 l 47.4,0 c 7.4,0 14.8,-6 16.4,-13.4 l 8.4,-38.14 c 1.7,-7.39 -3,-13.44 -10.4,-13.44 l -47.4,0 z m 142.8,0 -11.9,53.48 -2.5,11.5 -4.8,21.8 18.2,0 4.9,-21.8 38.6,0 c 7.4,0 14.7,-6 16.4,-13.4 l 8.4,-38.11 c 1.7,-7.4 -3.1,-13.47 -10.4,-13.47 l -56.9,0 z M 272,70.53 l -3.4,15.29 49.2,0 c 3.7,0.15 6,3.13 5.3,6.82 l -0.6,2.82 -42.5,0 c -7.4,0 -14.8,6.04 -16.5,13.44 l -0.4,2.1 0,0 -2.5,11.1 c -1.6,7.4 3.1,13.4 10.5,13.4 l 60.8,0 1.7,-7.7 0,0 7.2,-32.31 -0.1,0 1.4,-6.3 0,0 1.2,-5.19 c 1.6,-7.3 -3,-13.29 -10.2,-13.44 l -61.1,0 z m -69.2,-21.76 -7.4,33.25 0.1,0 -0.3,1.31 c -0.1,0.38 -0.2,0.77 -0.3,1.16 l -6.1,27.61 0,0 -5.2,23.4 18.2,0 5.2,-23.4 0.1,0 4.1,-18.64 c 0,0 0,-0.1 0,-0.1 l 1.6,-7.03 26.6,0 c 3.9,0 6.4,3.21 5.6,7.13 l -4.2,18.84 -5.2,23.2 18.3,0 5.1,-23.2 0.1,0 6.1,-27.81 c 1.7,-7.4 -3,-13.47 -10.4,-13.47 l -38.7,0 4.9,-22.25 -18.2,0 z m 204.2,0 -4.8,21.78 -38.6,0 c -7.4,0 -14.8,6.04 -16.4,13.44 l -8.5,38.11 c -1.6,7.4 3.1,13.4 10.5,13.4 l 56.8,0 14.5,-64.92 4.8,-21.78 -18.3,0 z M 126.7,8.066 a 6.061,6.061 0 0 0 -1.3,0.09 c -7,-0.03 -13.8,2.084 -21.4,5.384 -7.2,3.11 -10.85,7.27 -14.71,12.19 a 6.061,6.061 0 0 0 -0.1,0.1 c -0.8,0.16 -1.6,0.31 -2.52,0.64 -2.29,0.8 -4.41,2.33 -6.42,4.29 -1.99,1.93 -3.68,3.92 -5.47,5.9 A 6.061,6.061 0 0 0 72.25,36.5 c -12.33,1.87 -21.56,5.35 -30.4,13.11 -2.63,2.3 -4.78,4.88 -6.71,7.58 -0.1,-0.4 0,-0.66 -0.24,-1.11 -0.32,-0.82 -0.93,-1.7 -1.66,-2.51 A 6.061,6.061 0 0 0 24.25,49.9 c -2.56,1.54 -5.58,3.86 -7.95,7.47 -1.19,1.8 -2.26,4.02 -2.38,6.81 -0.1,2.05 0.72,4.2 1.9,6.12 0.44,1.61 0.87,3.22 1.72,5.01 1.6,3.34 5.49,5.19 8.33,5.39 -0.24,3.15 -0.18,6.59 0.23,10.57 0.17,1.6 0.6,3.19 0.92,4.78 a 6.061,6.061 0 0 0 -1.33,2.05 c -0.25,0.64 -0.48,1.24 -0.72,1.86 -1.43,1.44 -2.87,2.94 -4.32,4.44 -0.52,0.5 -1.4,0.9 -2.42,3 -1.03,2.1 -0.78,4.1 -0.61,5.3 0.6,4.3 2.83,8 5.8,11 1.63,1.7 4.05,3.7 7.38,5.4 1.33,0.6 2.89,1.1 4.69,1.4 -0.92,2.4 -0.73,5.7 0.57,7.9 1.3,2.2 3.02,3.3 4.48,4.1 2.92,1.5 5.68,2 6.86,2.3 a 6.061,6.061 0 0 0 0.1,0 c 1.31,0.4 4.56,1.3 8.08,1.7 1.76,0.2 3.57,0.3 5.75,-0.1 2.18,-0.5 5.68,-2.3 6.68,-5.9 0.57,-2 0.67,-3.8 0.66,-5.6 0.91,-1.7 1.46,-2.5 2.54,-4.3 1.18,-1.9 1.72,-4.1 2.02,-6.3 0.85,0.1 1.71,0.1 2.56,0.2 -0.28,0.7 -0.69,1.4 -0.75,2 -0.23,2.3 0.25,3.9 0.75,5.4 1,2.9 2.46,5.1 3.13,6.2 1.42,2.3 3.08,5.2 6.1,7.7 3.01,2.6 8.85,4 13.4,1.6 4.08,-2.1 5.08,-4.8 5.68,-5.8 0.4,-0.3 0.9,-0.6 1.4,-1 1.1,-0.9 2.3,-1.9 3.5,-2.8 0.6,-0.5 1,-0.9 1.6,-1.3 1.8,0.8 3.3,1 5.1,1.1 a 6.061,6.061 0 0 0 0.2,0 c 2.2,0.2 7.3,0.3 9.1,0.3 1.8,0 4.1,0.4 7,-1.6 2.9,-2 3.6,-5.3 3.8,-7.7 0.2,-1.6 -0.2,-3.5 -0.8,-5.2 l -0.2,-7.7 c -0.1,-2.8 -0.8,-5.1 -1.6,-7.3 2.2,1.5 4.9,2.9 8.4,3 7.3,0.1 13.5,-4 15.7,-11.1 0.2,-0.75 0.4,-1.3 0.6,-1.96 6.7,0.91 13.9,0.56 20.7,-3.26 a 6.061,6.061 0 0 0 0.1,0 c 10.2,-5.75 15,-17.2 16,-27.54 1.1,-9.35 -0.4,-21.72 -4.2,-30.98 a 6.061,6.061 0 0 0 -0.1,-0.17 c -1,-2.44 -2.4,-3.96 -4.7,-5.39 -1.2,-0.72 -2.7,-1.4 -4.7,-1.49 -2,-0.1 -4.4,0.78 -6,2.32 -2.9,2.82 -4.3,5.17 -4.9,5.68 a 6.061,6.061 0 0 0 -0.1,0 c 0.1,0 -0.6,0.26 -0.7,0.27 -1,-2.01 -2.1,-4 -3.5,-5.91 -2,-2.91 -4.6,-4.55 -6.8,-5.84 a 6.061,6.061 0 0 0 -0.1,0 C 158.5,25.79 158,25.5 157.5,25.2 a 6.061,6.061 0 0 0 -0.5,-0.26 6.061,6.061 0 0 0 -0.7,-0.6 C 153.6,22.4 151,19.96 147.6,17.2 140.9,11.53 133.9,8.392 126.7,8.066 Z m -0.3,6.054 c 5.8,0.26 11.3,2.62 17.3,7.7 3.2,2.63 5.9,5.19 9.1,7.46 -1.2,0.1 -2.2,0.3 -3.5,0.82 1.6,-0.31 3.5,0 5.1,0.3 0.5,0.3 1,0.6 1.5,0.89 2.2,1.32 3.5,2.05 5,4.16 1.6,2.23 2.9,4.46 4.1,6.92 -0.8,-0.27 -1.4,-0.51 -2,-0.68 -0.4,-0.19 -0.9,-0.37 -1.4,-0.37 -0.9,-0.1 -1.9,0.15 -2.6,0.62 l -0.1,0.1 c -1.3,0.6 -3.2,1.29 -4.5,1.5 0.7,0.18 2.1,0.27 2.8,0 0.1,0 0.2,-0.1 0.3,-0.1 -0.3,0.53 -0.5,1.12 -0.6,1.77 -0.1,0.85 0.1,1.67 0.5,2.38 0,0.1 0.1,0.1 0.1,0.19 -0.2,-0.36 -0.3,-0.78 -0.3,-1.15 0.1,-0.97 0.9,-1.69 1.9,-1.59 1,0.1 1.7,0.96 1.6,1.93 0,0.21 -0.1,0.4 -0.2,0.58 -0.9,0.15 -1.7,0.41 -2.7,0.75 -0.5,0.21 -1.1,0.46 -1.8,0.73 2.9,-0.44 5.5,-0.51 8.3,-0.14 0.2,0.88 0.4,1.81 0.5,2.77 -0.3,0 -0.7,0.1 -1,0.1 l -0.1,0 c -1.3,-1.06 -2.8,-0.88 -4.8,-0.42 -6.1,1.4 -4.7,4.84 -7.5,10.02 2.9,-3.58 2.7,-7.32 7.5,-8.45 1.1,-0.26 1.8,-0.59 2.6,-0.48 -1.4,0.68 -2.5,1.81 -3,3.12 -1.3,3.7 -0.5,6.82 -1.9,10.27 1.7,-3.09 1.9,-6.1 3.4,-9.35 0.6,-1.17 2.7,-3.06 4,-3.06 l 1.1,0 c 0.3,2.06 0.5,4.1 0.4,5.79 -0.2,3.09 -1,7.68 -1.5,9.43 1.6,-2.07 2.3,-6.47 3.1,-9.56 0.7,-3.23 0.5,-7.09 -0.1,-10.55 -0.9,-4.75 4,-3.98 6.8,-6.22 2.1,-1.64 3.5,-4.27 5.4,-6.13 1.9,-1.84 4.9,0.87 5.7,2.67 3.2,7.83 4.7,20.15 3.8,28.05 -0.9,8.86 -5.2,18.53 -13,22.89 -10,5.56 -21.7,2.16 -31.6,-1.17 -2.1,-0.71 -3.6,-1.75 -5.5,-2.92 0.6,2.28 0.8,4.69 0.1,6.96 -1.1,3.61 -2.8,9.55 2.1,10.55 1.9,0.5 2.7,0.4 5.4,-1 -2.2,0.5 -3.3,0.4 -4.7,0.1 -1.3,-0.2 -2,-1.1 -2.4,-2 0.4,0.3 1.2,0.5 2.5,0.8 3.6,0.9 7.1,-0.9 7.8,-3.41 0.4,-1.47 0.3,-2.24 1.1,-4.24 0.8,0.23 1.6,0.44 2.4,0.63 -0.5,1.47 -0.9,2.93 -1.4,4.4 -1.2,3.82 -5.7,6.92 -9.7,6.82 -3.7,-0.1 -6.1,-2.4 -8.6,-4.7 -1.8,-1.56 -3.5,-3.06 -5.2,-4.55 -4.6,-1.45 -8.3,-3.15 -12.6,-6.33 3,3.59 5.1,5.57 9.4,7.35 -0.6,6.33 -2.8,10.93 -4.7,16.93 -0.9,2.8 -7.5,13.7 -9.4,14.8 -1.3,0.7 -9.6,7.7 -11.15,8.6 -1.16,1.5 -2.18,3.7 -3.92,4.6 -5.31,2.8 -8.72,-2.6 -11.57,-7.1 -1.3,-2.1 -4.91,-8 -1.77,-9.7 2.98,-1.6 4.65,-2.7 7.68,-4.7 0.45,0.8 1.21,1.6 1.71,2.4 l -0.33,-2.7 c -0.24,-1.6 -0.23,-2.9 -0.1,-4.5 0.12,-1.6 0.24,-3.1 0.37,-4.7 -0.46,1.6 -1.37,3.2 -1.83,4.8 -0.18,0.6 -0.32,1.1 -0.42,1.6 -6.81,1.4 -13.58,1.5 -20.39,0.3 -0.44,-2.5 -0.97,-5.2 -1.41,-7.1 -0.2,2.2 -0.1,8 -0.1,11.3 -0,2.5 -0.12,3.4 -1.42,5.5 -1.22,2 -1.74,2.5 -3.45,5.9 0.14,2.1 0.14,3.6 -0.43,5.6 -0.95,3.4 -10.53,0.8 -13.06,0.1 -3.11,-0.9 -9.54,-2.1 -7.93,-6.3 1.43,-3.6 2.33,-7.5 3.03,-12.6 C 38.5,111.9 33.2,100.6 32.18,90.65 31.39,82.9 31.87,78.13 33.54,73.4 36.2,65.89 39.91,59.39 45.88,54.16 53.92,47.1 61.43,44.27 73.2,42.48 70.37,45.65 67.57,49 64.52,52.59 c -3.09,3.64 -4.93,7.31 -6.89,11.29 -2.71,5.49 -2.65,7.58 0.94,12.41 3.1,4.15 4.77,6.02 6.12,10.09 -1.11,2.3 -1.52,4.25 -1.9,7.39 3.8,4.14 6.61,7.03 10.29,7.83 3.61,0.9 6.63,0.7 9.86,-0.9 7.17,-3.7 13.81,-8.44 21.86,-8.63 3.8,-9.21 3.4,-16.9 1.6,-25.8 -1.2,-6.08 -1.7,-11.84 -2.1,-18.04 -1.5,6.38 -1.8,12 -0.7,18.36 1.4,7.67 2.4,16.13 -1.3,22.87 -7.35,0.56 -13.62,5.01 -20.21,8.43 -2.65,1.37 -5.42,1.5 -8.35,0.7 -2.72,-0.75 -4.56,-2.55 -7.5,-5.94 -0,-3.39 0.73,-4.96 2.29,-8.04 2.5,-4.94 5.27,-9.54 8.31,-14.4 -3.72,4.49 -7.24,8.24 -10.17,12.75 -1.12,-3.19 -2.72,-4.81 -5.37,-8.4 -2.59,-3.5 -2.86,-5.04 -0.92,-9.09 1.94,-4.08 3.59,-7.66 6.91,-11.24 5.72,-6.17 10.96,-13.05 17.22,-19.14 3.39,-3.3 4.77,-3.19 9.28,-3.87 4.07,-0.62 8.01,-1.4 12.21,-2.36 -4,0.37 -7.91,0.51 -11.82,0.61 l -0.12,0 c 3.85,-4.91 6.04,-7.65 12.34,-10.37 7.7,-3.34 14,-5.19 19.9,-4.94 l 0.1,-0 z m 3,21.25 c -8.4,2.09 -10,5.61 -8.9,11.01 0.9,-4.06 2.6,-7.98 8.9,-11.01 z m -24.8,0.46 c -3.4,0.38 -6.79,0.73 -10.18,1.05 -2.85,0.27 -3.31,0.23 -5.33,2.22 -3.07,3.04 -6.05,13.45 -7,17.61 1.5,-3.46 5.26,-13.14 8.14,-15.6 0.79,-0.68 1.35,-1.1 1.95,-1.4 -2.07,3.46 -1.92,4.32 -1.19,8.95 0.61,-4.71 2.24,-6.53 4.91,-10.04 2.93,-0.74 5.7,-1.62 8.7,-2.79 z m 77.7,0.39 c -1.9,3.93 -4.9,7.22 -9,9.23 -2.2,1.08 -3.6,0.71 -6,0.48 2.5,0.74 4,1.6 6.5,0.74 4.9,-1.77 7.3,-5.76 8.5,-10.45 z M 165,42.53 c 0.2,0.36 0.3,0.73 0.5,1.1 -0.1,0.1 -0.3,0.2 -0.4,0.31 -0.2,-0.52 -0.5,-0.99 -0.9,-1.38 l 0.8,0 0,-0 z m -24.8,3.08 c -2.7,1.26 -5.9,0.95 -8.3,2.53 -2,1.4 -4.9,5.81 -7,7.68 1.6,-0.59 3,-1.61 4.4,-2.68 0,0.8 0.1,1.61 0.5,2.37 0.4,0.78 0.9,1.43 1.6,1.94 -0.2,-0.18 -0.4,-0.39 -0.5,-0.63 -0.6,-1.17 -0.1,-2.58 1.1,-3.13 1.2,-0.56 2.6,-0.1 3.2,1.11 0,0.11 0.1,0.22 0.1,0.34 -1.1,0.83 -2.2,1.8 -3,2.94 -0.8,0.99 -1.4,2.11 -1.8,3.34 3.9,-4.73 9.7,-8.3 15.2,-9.83 -1.5,-0 -3.3,0.26 -5.2,0.87 0,-0.62 -0.2,-1.23 -0.5,-1.81 -0.7,-1.38 -1.8,-2.38 -3.1,-2.87 1.2,-0.65 2.4,-1.33 3.3,-2.17 z M 27.42,55.08 c -0.53,1.14 -0.91,2.01 -1.17,2.9 -1.11,3.86 0.51,7.31 -3,10.11 1.65,3.32 1.58,4.65 5.41,3.11 1.48,-0.59 2.7,-1.42 3.78,-2.41 -0.52,1.35 -1,2.73 -1.45,4.16 -0.1,0.23 -0.12,0.47 -0.22,0.71 -2.74,1.16 -6.34,1.9 -7.72,-0.98 C 22.38,71.28 22,69.91 21.51,68.14 17,63.47 23.75,57.29 27.42,55.08 Z m 0.94,2.09 c 0.93,0.54 1.18,1.53 1.28,2.86 -0.56,-0.56 -1,-0.95 -1.72,-0.85 0.1,-0.47 0.14,-0.93 0.25,-1.36 0.1,-0.22 0.1,-0.44 0.19,-0.65 z M 141.4,82.01 c -1,0.17 -2.8,0.53 -3.8,0.7 -2.6,0.45 -2.9,1.08 -3.3,3.68 -0.2,1.23 -0.5,2.75 -0.7,3.98 0.5,-1.39 1.2,-3 1.8,-4.32 0.6,-1.4 1,-1.53 2.3,-2.27 1,-0.52 2.7,-1.24 3.7,-1.77 z M 31.39,100.3 c 2.08,7.1 5.61,14.2 9.54,20.1 l 0,0.2 c -0.25,1 -0.54,2 -1.13,2.8 -2.8,3.7 -9.94,-1.8 -12,-3.9 -2.26,-2.3 -3.77,-5 -4.13,-7.6 -0.26,-1.9 -0,-1.9 1.3,-3.2 1.75,-1.8 3.51,-3.6 5.26,-5.4 0.39,-1 0.77,-2 1.16,-3 z m 94.31,4.7 c 0.4,1.4 0.8,2.7 1.4,4.2 1,2.5 1.5,4 1.6,6.7 l 0.3,8.4 c 0.8,1.5 1,1.9 0.8,3.7 -0.3,3.6 -1.5,3.9 -4.7,3.8 -1.5,0 -7.3,-0.1 -8.8,-0.2 -2,-0.2 -3.2,-0.4 -3.9,-0.8 3.3,-2.4 8.9,-12.3 10,-15.8 1.1,-3.6 2.4,-6.7 3.3,-10 z m 14.5,3.2 0.2,0 c 0,0 0.1,0 0.1,0 l -0.3,0 z"> </path>
  <path class="only-dark-background" style="display:none" d="m 126.3,14.16 c -5.9,-0.25 -12.2,1.6 -19.9,4.94 -6.3,2.72 -8.49,5.46 -12.34,10.37 0,0 0.1,0 0.12,0 3.91,-0.1 7.82,-0.24 11.82,-0.61 -4.2,0.96 -8.14,1.74 -12.21,2.36 -4.51,0.68 -5.89,0.57 -9.28,3.87 -6.26,6.09 -11.5,12.97 -17.22,19.14 -3.32,3.58 -4.97,7.16 -6.91,11.24 -1.94,4.05 -1.67,5.59 0.92,9.09 2.65,3.59 4.25,5.21 5.37,8.4 2.93,-4.51 6.45,-8.26 10.17,-12.75 -3.04,4.86 -5.81,9.46 -8.31,14.4 -1.56,3.08 -2.33,4.65 -2.29,8.04 2.94,3.39 4.78,5.19 7.5,5.94 2.93,0.8 5.7,0.67 8.35,-0.7 6.59,-3.42 12.86,-7.87 20.21,-8.43 3.7,-6.74 2.7,-15.2 1.3,-22.87 -1.1,-6.36 -0.8,-11.98 0.7,-18.36 0.4,6.2 0.9,11.96 2.1,18.04 1.8,8.9 2.2,16.59 -1.6,25.8 -8.05,0.19 -14.69,4.93 -21.86,8.63 -3.23,1.6 -6.25,1.8 -9.86,0.9 -3.68,-0.8 -6.49,-3.69 -10.29,-7.83 0.38,-3.14 0.79,-5.09 1.9,-7.39 C 63.34,82.31 61.67,80.44 58.57,76.29 54.98,71.46 54.92,69.37 57.63,63.88 59.59,59.9 61.43,56.23 64.52,52.59 67.57,49 70.37,45.65 73.2,42.48 61.43,44.27 53.92,47.1 45.88,54.16 39.91,59.39 36.2,65.89 33.54,73.4 c -1.67,4.73 -2.15,9.5 -1.36,17.25 1.02,9.95 6.32,21.25 12.03,29.45 -0.7,5.1 -1.6,9 -3.03,12.6 -1.61,4.2 4.82,5.4 7.93,6.3 2.53,0.7 12.11,3.3 13.06,-0.1 0.57,-2 0.57,-3.5 0.43,-5.6 1.71,-3.4 2.23,-3.9 3.45,-5.9 1.3,-2.1 1.41,-3 1.42,-5.5 0,-3.3 -0.1,-9.1 0.1,-11.3 0.44,1.9 0.97,4.6 1.41,7.1 6.81,1.2 13.58,1.1 20.39,-0.3 0.1,-0.5 0.24,-1 0.42,-1.6 0.46,-1.6 1.37,-3.2 1.83,-4.8 -0.13,1.6 -0.25,3.1 -0.37,4.7 -0.13,1.6 -0.14,2.9 0.1,4.5 0.11,0.9 0.22,1.8 0.33,2.7 0,0 0,0 0,0 l 0,0 c 0,0 0,0 0,0 -0.5,-0.8 -1.26,-1.6 -1.71,-2.4 -3.03,2 -4.7,3.1 -7.68,4.7 -3.14,1.7 0.47,7.6 1.77,9.7 2.85,4.5 6.26,9.9 11.57,7.1 1.74,-0.9 2.76,-3.1 3.92,-4.6 1.53,-0.9 9.83,-7.9 11.13,-8.6 1.9,-1.1 8.5,-12 9.4,-14.8 1.9,-6 4.1,-10.6 4.7,-16.93 -4.3,-1.78 -6.4,-3.76 -9.4,-7.35 4.3,3.18 8,4.88 12.6,6.33 1.7,1.49 3.4,2.99 5.2,4.55 2.5,2.3 4.9,4.6 8.6,4.7 4,0.1 8.5,-3 9.7,-6.82 0.5,-1.47 0.9,-2.93 1.4,-4.4 -0.8,-0.19 -1.6,-0.4 -2.4,-0.63 -0.8,2 -0.7,2.77 -1.1,4.24 -0.7,2.51 -4.2,4.31 -7.8,3.41 -1.3,-0.3 -2.1,-0.5 -2.5,-0.8 0.4,0.9 1.1,1.8 2.4,2 1.4,0.3 2.5,0.4 4.7,-0.1 -2.7,1.4 -3.5,1.5 -5.4,1 -4.9,-1 -3.2,-6.94 -2.1,-10.55 0.7,-2.27 0.5,-4.68 -0.1,-6.96 1.9,1.17 3.4,2.21 5.5,2.92 9.9,3.33 21.6,6.73 31.6,1.17 7.8,-4.36 12.1,-14.03 13,-22.89 0.9,-7.9 -0.6,-20.22 -3.8,-28.05 -0.8,-1.8 -3.8,-4.51 -5.7,-2.67 -1.9,1.86 -3.3,4.49 -5.4,6.13 -2.8,2.24 -7.7,1.47 -6.8,6.22 0.6,3.46 0.8,7.32 0.1,10.55 -0.8,3.09 -1.5,7.49 -3.1,9.56 0.5,-1.75 1.3,-6.34 1.5,-9.43 0.1,-1.69 -0.1,-3.73 -0.4,-5.79 -0.3,0 -0.7,0 -1.1,0 -1.3,0 -3.4,1.89 -4,3.06 -1.5,3.25 -1.7,6.26 -3.4,9.35 1.4,-3.45 0.6,-6.57 1.9,-10.27 0.5,-1.31 1.6,-2.44 3,-3.12 -0.8,-0.11 -1.5,0.22 -2.6,0.48 -4.8,1.13 -4.6,4.87 -7.5,8.45 2.8,-5.18 1.4,-8.62 7.5,-10.02 2,-0.46 3.5,-0.64 4.8,0.42 0,0 0.1,0 0.1,0 0.3,-0 0.7,-0.1 1,-0.1 -0.1,-0.96 -0.3,-1.89 -0.5,-2.77 -2.8,-0.37 -5.4,-0.3 -8.3,0.14 0.7,-0.27 1.3,-0.52 1.8,-0.73 l 0,0 c 1,-0.34 1.8,-0.6 2.7,-0.75 0.1,-0.18 0.2,-0.37 0.2,-0.58 0.1,-0.97 -0.6,-1.83 -1.6,-1.93 -1,-0.1 -1.8,0.62 -1.9,1.59 0,0.37 0.1,0.79 0.3,1.15 0,-0.1 -0.1,-0.12 -0.1,-0.19 0,0 0,0 0,-0 -0.4,-0.71 -0.6,-1.53 -0.5,-2.38 0.1,-0.65 0.3,-1.24 0.6,-1.77 -0.1,0 -0.2,0.1 -0.3,0.1 -0.7,0.27 -2.1,0.18 -2.8,-0 1.3,-0.21 3.2,-0.9 4.5,-1.5 0,-0 0,-0 0.1,-0.1 0.7,-0.47 1.7,-0.71 2.6,-0.62 0.5,0 1,0.18 1.4,0.37 0.6,0.17 1.2,0.41 2,0.68 -1.2,-2.46 -2.5,-4.69 -4.1,-6.92 -1.5,-2.11 -2.8,-2.84 -5,-4.16 -0.5,-0.29 -1,-0.59 -1.5,-0.89 -1.6,-0.3 -3.5,-0.61 -5.1,-0.3 1.3,-0.52 2.3,-0.72 3.5,-0.82 -3.2,-2.27 -5.9,-4.83 -9.1,-7.46 -6,-5.08 -11.5,-7.44 -17.3,-7.7 z m 3.1,21.21 c -6.3,3.03 -8,6.95 -8.9,11.01 -1.1,-5.4 0.5,-8.92 8.9,-11.01 z m -24.8,0.46 c -3,1.17 -5.77,2.05 -8.7,2.79 -2.67,3.51 -4.3,5.33 -4.91,10.04 -0.73,-4.63 -0.88,-5.49 1.19,-8.95 -0.6,0.3 -1.16,0.72 -1.95,1.4 -2.88,2.46 -6.64,12.14 -8.14,15.6 0.95,-4.16 3.93,-14.57 7,-17.61 2.02,-1.99 2.48,-1.95 5.33,-2.22 3.39,-0.32 6.78,-0.67 10.18,-1.05 z m 77.7,0.39 c -1.2,4.69 -3.6,8.68 -8.5,10.45 -2.5,0.86 -4,-0 -6.5,-0.74 2.4,0.23 3.8,0.6 6,-0.48 4.1,-2.01 7.1,-5.3 9,-9.23 z M 165,42.56 c -0.3,0 -0.6,0 -0.8,0 0.4,0.39 0.7,0.86 0.9,1.38 0.1,-0.11 0.3,-0.21 0.4,-0.31 -0.2,-0.37 -0.3,-0.74 -0.5,-1.1 z m -24.8,3.05 c -0.9,0.84 -2.1,1.52 -3.3,2.17 1.3,0.49 2.4,1.49 3.1,2.87 0.3,0.58 0.5,1.19 0.5,1.81 1.9,-0.61 3.7,-0.89 5.2,-0.87 -5.5,1.53 -11.3,5.1 -15.2,9.83 0.4,-1.23 1,-2.35 1.8,-3.34 0,0 0,0 0,0 0.8,-1.14 1.9,-2.11 3,-2.94 0,-0.12 -0.1,-0.23 -0.1,-0.34 -0.6,-1.17 -2,-1.67 -3.2,-1.11 -1.2,0.55 -1.7,1.96 -1.1,3.13 0.1,0.24 0.3,0.45 0.5,0.63 -0.7,-0.51 -1.2,-1.16 -1.6,-1.94 -0.4,-0.76 -0.5,-1.57 -0.5,-2.37 -1.4,1.07 -2.8,2.09 -4.4,2.68 2.1,-1.87 5,-6.28 7,-7.68 2.4,-1.58 5.6,-1.27 8.3,-2.53 z m 266.8,3.16 -4.8,21.78 -38.6,-0 c -7.4,-0 -14.8,6.04 -16.4,13.44 l -8.5,38.14 c -1.6,7.4 3.1,13.4 10.5,13.4 l 56.8,0 14.5,-64.95 4.8,-21.78 -18.3,0 z m -204.2,0 -7.4,33.25 0.1,0 -0.3,1.31 c -0.1,0.38 -0.2,0.77 -0.3,1.16 l -6.1,27.61 0,0 -5.2,23.4 18.2,0 5.2,-23.4 0.1,0 4.1,-18.64 c 0,-0 0,-0.1 0,-0.1 l 1.6,-7.03 26.6,0 c 3.9,0 6.4,3.21 5.6,7.13 l -4.2,18.84 -5.2,23.2 18.3,0 5.1,-23.2 0.1,0 6.1,-27.81 c 1.7,-7.4 -3,-13.47 -10.4,-13.47 l -38.7,0 4.9,-22.25 -18.2,0 z M 27.42,55.08 c -3.67,2.21 -10.42,8.39 -5.91,13.06 0.49,1.77 0.87,3.14 1.54,4.54 1.38,2.88 4.98,2.14 7.72,0.98 0.1,-0.24 0.15,-0.48 0.22,-0.71 0.45,-1.43 0.93,-2.81 1.45,-4.16 -1.08,0.99 -2.3,1.82 -3.78,2.41 -3.83,1.54 -3.76,0.21 -5.41,-3.11 3.51,-2.8 1.89,-6.25 3,-10.11 0.26,-0.89 0.64,-1.76 1.17,-2.9 z m 0.94,2.09 c -0.1,0.21 -0.13,0.43 -0.19,0.65 -0.11,0.43 -0.19,0.89 -0.25,1.36 0.72,-0.1 1.16,0.29 1.72,0.85 -0.1,-1.33 -0.35,-2.32 -1.28,-2.86 z M 272,70.53 l -3.4,15.29 49.2,0 c 3.7,0.15 6,3.13 5.3,6.82 l -0.6,2.82 -42.5,-0 c -7.4,0 -14.8,6.06 -16.5,13.46 l -0.4,2.1 0,0 -2.5,11.1 c -1.6,7.4 3.1,13.4 10.5,13.4 l 60.8,0 1.7,-7.7 0,0 7.2,-32.33 -0.1,0 1.4,-6.3 0,0 1.2,-5.19 c 1.6,-7.3 -3,-13.29 -10.2,-13.44 l -61.1,-0 z m 308.6,0.49 -11.9,53.48 -2.5,11.5 -4.8,21.8 18.2,0 4.9,-21.8 38.6,0 c 7.4,0 14.7,-6 16.4,-13.4 l 8.4,-38.11 c 1.7,-7.4 -3.1,-13.47 -10.4,-13.47 l -56.9,0 z m -142.8,0 c -7.4,0 -14.8,6.05 -16.4,13.44 l -8.5,38.13 c -1.6,7.4 3.1,13.4 10.5,13.4 l 47.4,0 c 7.4,0 14.8,-6 16.4,-13.4 l 8.4,-38.13 c 1.7,-7.39 -3,-13.44 -10.4,-13.44 l -47.4,0 z m 78.1,0 c -7.4,0 -14.8,6.05 -16.4,13.44 L 491,122.6 c -1.6,7.4 3.1,13.4 10.5,13.4 l 47.4,0 c 7.4,0 14.8,-6 16.4,-13.4 l 8.4,-38.13 c 1.7,-7.39 -3,-13.44 -10.4,-13.44 l -47.4,0 z M 141.4,82.01 c -1,0.53 -2.7,1.25 -3.7,1.77 -1.3,0.74 -1.7,0.87 -2.3,2.27 -0.6,1.32 -1.3,2.93 -1.8,4.32 0.2,-1.23 0.5,-2.75 0.7,-3.98 0.4,-2.6 0.7,-3.23 3.3,-3.68 1,-0.17 2.8,-0.53 3.8,-0.7 z m 230.8,3.82 26.6,0 -7.6,34.37 -26.7,0 c -3.9,0 -6.3,-3.2 -5.5,-7.1 l 4.5,-20.18 c 0.9,-3.91 4.8,-7.09 8.7,-7.09 z m 74.2,0.5 23.4,0 c 3.9,0 6.4,3.2 5.5,7.11 l -4.4,20.16 c -0.9,3.9 -4.8,7.1 -8.7,7.1 l -23.4,0 c -4,0 -6.4,-3.2 -5.6,-7.1 l 4.5,-20.16 c 0.9,-3.91 4.8,-7.11 8.7,-7.11 z m 78.1,0 23.4,0 c 3.9,0 6.4,3.2 5.6,7.11 L 549,113.6 c -0.9,3.9 -4.8,7.1 -8.7,7.1 l -23.4,0 c -3.9,0 -6.4,-3.2 -5.6,-7.1 l 4.5,-20.16 c 0.9,-3.91 4.8,-7.11 8.7,-7.11 z m 71,0 26.6,0 c 3.9,0 6.4,3.21 5.5,7.13 l -4.4,20.14 c -0.9,3.9 -4.8,7.1 -8.7,7.1 l -26.7,0 7.7,-34.37 z M 31.39,100.3 c -0.39,1 -0.77,2 -1.16,3 -1.75,1.8 -3.51,3.6 -5.26,5.4 -1.31,1.3 -1.56,1.3 -1.3,3.2 0.36,2.6 1.87,5.3 4.13,7.6 2.06,2.1 9.2,7.6 12,3.9 0.59,-0.8 0.88,-1.8 1.13,-2.8 0,-0.1 0,-0.1 0,-0.2 -3.93,-5.9 -7.46,-13 -9.54,-20.1 z m 94.31,4.7 c -0.9,3.3 -2.2,6.4 -3.3,10 -1.1,3.5 -6.7,13.4 -10,15.8 0.7,0.4 1.9,0.6 3.9,0.8 1.5,0.1 7.3,0.2 8.8,0.2 3.2,0.1 4.4,-0.2 4.7,-3.8 0.2,-1.8 0,-2.2 -0.8,-3.7 -0.1,-2.8 -0.2,-5.6 -0.3,-8.4 -0.1,-2.7 -0.6,-4.2 -1.6,-6.7 -0.6,-1.5 -1,-2.8 -1.4,-4.2 z m 161.1,5.7 c 0.2,0 0.3,0 0.5,0 l 31.8,0 -2.1,9.5 -32.4,0 c 0,0 0,0 0,0 -2.5,-0.1 -4.1,-2.2 -3.6,-4.7 0.6,-2.7 3.2,-4.8 5.8,-4.8 z"> </path>
  </svg>