<?xml version="1.0"?>
<!--?xml version="1.0"?-->
<!--?xml version="1.0" encoding="UTF-8" standalone="no"?-->
<!-- Created with Inkscape (http://www.inkscape.org/) -->

<svg xmlns:svg="http://www.w3.org/2000/svg" xmlns="http://www.w3.org/2000/svg" xmlns:sodipodi="http://sodipodi.sourceforge.net/DTD/sodipodi-0.dtd" xmlns:inkscape="http://www.inkscape.org/namespaces/inkscape" version="1.0" width="800" height="81.152" viewBox="0 0 800 81.152" id="Layer_1" xml:space="preserve" inkscape:version="0.91+devel r14281" sodipodi:docname="hbr.svg"><sodipodi:namedview pagecolor="#ffffff" bordercolor="#666666" borderopacity="1" objecttolerance="10" gridtolerance="10" guidetolerance="10" inkscape:pageopacity="0" inkscape:pageshadow="2" inkscape:window-width="1390" inkscape:window-height="689" id="namedview25" showgrid="false" inkscape:zoom="0.76562" inkscape:cx="381.71" inkscape:cy="40.576" inkscape:window-x="0" inkscape:window-y="0" inkscape:window-maximized="0" inkscape:current-layer="Layer_1"></sodipodi:namedview><defs id="defs46"></defs><path id="path43" d="m 736.5,29.699 c 2.2,0.117 4.92,0.3 8.47,0.28 3.19,0 6.4,-0.169 9.24,-0.28 l 0.29,1.907 -3.01,0.45 c -1.89,0.143 -2.13,0.838 -1.75,2.497 1.77,8.455 5.15,21.777 8.08,35.029 2.68,-9.12 7.56,-30.32 9.84,-39.603 1.3,0.145 2.18,0.145 3.54,-0.04 1.54,6.941 7.51,29.36 10.21,40.184 4.21,-15.429 7.35,-29.687 8.16,-35.208 0.26,-1.844 0.14,-2.607 -1.82,-2.861 l -3.75,-0.451 0.43,-1.907 c 2.23,0 5.12,0.28 8.24,0.28 3.19,0 5.42,-0.28 7.15,-0.28 l 0.18,1.759 c -4.78,0.551 -5.4,1.224 -7.06,6.15 -2.97,9.079 -8.1,27.857 -11.76,42.949 -1.13,0.02 -1.62,0.134 -2.04,0.16 -0.45,0.1 -0.79,0.14 -1.71,0.279 -2.18,-9.226 -6.25,-23.947 -10.23,-38.475 -4.43,17.21 -7.62,28.24 -9.87,38.475 -0.73,-0.135 -1.48,-0.176 -2.17,-0.279 -0.62,-0.05 -1.14,-0.07 -1.54,-0.145 -3.65,-16.522 -9.13,-37.85 -11.56,-45.387 -0.92,-2.866 -1.67,-3.298 -5.74,-3.581 l 0.18,-1.905 m -1.35,42.806 -0.86,-0.283 c -1.78,3.15 -4.52,5.37 -8.82,5.37 -3.57,0 -6.61,-1.619 -8.54,-5.262 -1.74,-3.157 -3.46,-9.614 -2.98,-19.185 2.89,0 6.15,-0.02 8.46,-0.06 4.74,-0 10.07,-0.469 12.61,-1.178 1.15,-0.334 1.53,-2.755 1.53,-4.711 0.11,-6.153 -1.85,-18.618 -13.14,-18.618 -12.79,0 -17.4,15.666 -17.4,28.157 0,6.277 1.25,12.813 3.34,16.59 2.67,4.864 7.03,7.674 13.45,7.674 5.8,0 9.61,-2.737 11.81,-5.495 l 0.54,-2.996 M 722.81,30.68 c 6.69,0 6.64,10.593 6.64,14.9 0,3.242 -0.66,4.45 -2.1,4.688 -1.62,0.329 -4.32,0.605 -7.21,0.605 -1.94,0 -3.94,0 -5.98,0 0.11,-7.609 2.53,-20.193 8.53,-20.193 h 0.12 z m -24.49,-1.977 c -0.1,2.14 -0.45,8.404 -0.45,17.728 v 13.332 c 0,8.645 0.27,12.618 0.4,15.211 0.11,2.381 0.95,2.67 5.03,2.914 l -0.27,1.961 c -2.27,0 -5.24,-0.254 -9.4,-0.254 -4.03,0 -6.68,0.254 -8.73,0.254 l 0.1,-1.961 c 4.66,-0.135 5.4,-0.906 5.53,-3.007 0.12,-2.173 0.41,-6.851 0.41,-15.865 V 46.674 c 0,-6.361 -0.21,-11.301 -0.27,-13.127 -0,-1.708 -0.89,-1.993 -5.93,-1.724 v -1.981 c 1.78,-0.191 4.54,-0.143 7.19,-0.456 2.76,-0.349 5.71,-0.626 6.41,-0.683 M 693.91,6.396 c 2.84,0 4.17,1.806 4.17,4.885 0,2.75 -2.08,4.494 -4.66,4.494 -2.24,0 -4.02,-1.793 -4.02,-4.548 0,-2.67 1.75,-4.831 4.4,-4.831 h 0.11 z M 647.1,29.709 c 2.15,0.153 5.31,0.274 8.1,0.259 2.8,0 6.78,-0.164 8.87,-0.259 l 0.31,1.966 -2.54,0.285 c -1.9,0.233 -2.24,0.753 -1.75,2.73 2.79,12.584 6.84,27.463 8.52,34.959 2.88,-10.596 6.09,-22.729 8.57,-35.04 0.28,-1.632 0.1,-2.235 -1.29,-2.31 l -3.51,-0.624 0.18,-1.966 c 2.34,0 4.82,0.259 7.15,0.259 2.79,0 5.14,-0.259 6.94,-0.259 l -0.18,1.966 c -4,0.613 -4.67,1.022 -6.26,5.664 -2.12,6.533 -5.2,17.206 -8.48,29.19 -1.62,5.966 -2.83,11.146 -3.55,14.008 -0.59,0.02 -1.32,0.06 -2.02,0.181 -0.61,0.114 -1.27,0.14 -1.73,0.259 -2.92,-12.284 -8.94,-35.647 -11.54,-44.274 -1.39,-4.333 -1.92,-4.763 -5.64,-5.027 l -0.15,-1.967 m -0.47,42.796 -0.86,-0.283 c -1.78,3.15 -4.51,5.37 -8.82,5.37 -3.57,0 -6.61,-1.619 -8.54,-5.262 -1.74,-3.157 -3.46,-9.614 -2.98,-19.185 2.88,0 6.15,-0.02 8.46,-0.06 4.74,-0 10.08,-0.469 12.61,-1.178 1.14,-0.334 1.53,-2.755 1.53,-4.711 0.12,-6.153 -1.85,-18.618 -13.15,-18.618 -12.78,0 -17.39,15.666 -17.39,28.157 0,6.277 1.25,12.813 3.35,16.59 2.66,4.864 7.02,7.674 13.43,7.674 5.81,0 9.62,-2.737 11.81,-5.495 l 0.55,-2.996 M 634.29,30.68 c 6.69,0 6.64,10.593 6.64,14.9 0,3.242 -0.66,4.45 -2.1,4.688 -1.62,0.329 -4.32,0.605 -7.21,0.605 -1.94,0 -3.93,0 -5.97,0 0.1,-7.609 2.52,-20.193 8.52,-20.193 h 0.12 z m -58.02,19.763 c 0,16.345 -0.18,21.509 -0.46,24.21 -0.3,2.37 -1.03,3.063 -5.93,3.234 v 1.961 c 4.01,0 7.29,-0.254 10.79,-0.254 3.58,0 7.44,0.254 10.06,0.254 l 0.24,-1.961 c -6.27,-0.508 -6.69,-0.874 -6.88,-3.929 -0.27,-4.683 -0.34,-9.205 -0.34,-20.485 V 41.197 h 1.39 c 10.87,0 16.2,4.238 16.37,14.708 0,4.378 0.12,11.001 0.13,14.536 0,7.953 3.29,10.116 8.55,10.116 2.24,0 4.53,-0.44 5.88,-1.18 l 0.42,-2.143 c -1.17,0.527 -2.56,0.652 -3.8,0.652 -1.61,0 -2.51,-1.056 -2.51,-3.167 0,-5.801 -0.11,-16.551 -1.53,-21.733 -1.43,-6.248 -6.45,-10.592 -15.66,-13.094 v -0.318 c 8.83,-2.701 15.06,-7.667 15.06,-18.725 0,-4.584 -0.93,-9.034 -3.78,-12.214 -2.67,-3.009 -6.85,-4.802 -14.96,-4.802 -4.24,0 -8.11,0.223 -11.66,0.323 -3.43,0.106 -5.57,0.241 -7.46,0.261 l -0.38,1.886 4.28,0.153 c 1.52,0.015 1.87,0.455 1.98,1.981 0.1,3.079 0.2,9.237 0.2,21.583 V 50.443 M 583.75,25.58 C 583.91,13.687 584,9.829 584.2,8.424 c 0.1,-1.304 0.45,-1.754 1.2,-1.966 0.66,-0.158 1.99,-0.349 3.66,-0.349 5.14,0 7.81,2.178 9.17,5.461 1.07,2.501 1.58,6.031 1.58,9.943 0,10.639 -3.28,17.575 -14.69,17.575 h -1.38 V 25.58 Z m -39.41,18.334 c -0.56,-7.045 -3.33,-13.082 -8.4,-13.082 -4.19,0 -6.52,3.275 -6.52,8.727 0,2.463 0.59,4.571 2.36,6.331 2.27,2.121 8.99,6.656 12.14,9.189 3.74,3.141 5.39,6.877 5.39,11.071 0,9.05 -6.42,14.846 -15.32,14.846 -4.3,0 -8.74,-1.087 -10.74,-2.267 0,-1.997 0.11,-10.913 -0.1,-14.549 l 1.69,-0.444 c 0.17,2.32 0.78,5.11 1.74,7.847 1.74,4.854 4.9,7.142 8.7,7.142 4.88,0 8.12,-3.115 8.05,-8.999 0,-2.002 -0.62,-4.543 -2.52,-6.359 -2.51,-2.405 -8.67,-6.869 -11.38,-9.114 -3.49,-2.822 -5.29,-6.301 -5.29,-11.656 0,-7.563 4.68,-14.038 12.62,-14.038 3.07,0 5.43,1.172 6.64,2.274 l 0.89,-3.042 1.69,0.652 c -0.39,5.242 -0.35,10.419 0,14.916 l -1.69,0.555 m -30.36,0 c -0.57,-7.045 -3.34,-13.082 -8.4,-13.082 -4.19,0 -6.52,3.275 -6.52,8.727 0,2.463 0.58,4.571 2.36,6.331 2.26,2.121 8.99,6.656 12.13,9.189 3.75,3.141 5.39,6.877 5.39,11.071 0,9.05 -6.42,14.846 -15.31,14.846 -4.31,0 -8.75,-1.087 -10.75,-2.267 0,-1.997 0.12,-10.913 -0.1,-14.549 l 1.68,-0.444 c 0.17,2.32 0.78,5.11 1.74,7.847 1.75,4.854 4.9,7.142 8.71,7.142 4.87,0 8.12,-3.115 8.04,-8.999 0,-2.002 -0.62,-4.543 -2.51,-6.359 -2.51,-2.405 -8.68,-6.869 -11.4,-9.114 -3.47,-2.822 -5.28,-6.301 -5.28,-11.656 0,-7.563 4.69,-14.038 12.63,-14.038 3.06,0 5.41,1.172 6.64,2.274 l 0.89,-3.042 1.68,0.652 c -0.38,5.242 -0.35,10.419 0,14.916 l -1.68,0.555 m -26.92,28.591 -0.85,-0.283 c -1.78,3.15 -4.51,5.37 -8.82,5.37 -3.57,0 -6.62,-1.619 -8.54,-5.262 -1.74,-3.157 -3.46,-9.614 -2.98,-19.185 2.89,0 6.16,-0.02 8.46,-0.06 4.74,-0 10.08,-0.469 12.6,-1.178 1.16,-0.334 1.54,-2.755 1.54,-4.711 0.12,-6.153 -1.85,-18.618 -13.14,-18.618 -12.79,0 -17.39,15.666 -17.39,28.157 0,6.277 1.24,12.813 3.33,16.59 2.67,4.864 7.03,7.674 13.45,7.674 5.79,0 9.61,-2.737 11.81,-5.495 l 0.53,-2.996 M 474.73,30.68 c 6.69,0 6.64,10.593 6.64,14.9 0,3.242 -0.66,4.45 -2.09,4.688 -1.63,0.329 -4.32,0.605 -7.22,0.605 -1.94,0 -3.94,0 -5.97,0 0.1,-7.609 2.52,-20.193 8.52,-20.193 h 0.12 z m -60.26,47.208 c 4.33,-0.161 4.83,-0.601 4.98,-3.638 0.24,-3.685 0.35,-7.664 0.35,-15.626 v -9.511 c 0,-6.672 -0.1,-11.466 -0.24,-14.705 -0.1,-1.731 -0.66,-1.992 -5.13,-1.871 l 0,-1.842 c 1.79,-0.02 4.31,-0.232 6.29,-0.479 2.25,-0.274 4.31,-0.735 5.56,-1.084 0.2,2.473 0.49,5.218 0.52,6.967 3.3,-3.361 7.29,-7.537 12.95,-7.537 5.13,0 7.97,2.662 9.29,5.946 0.69,1.658 0.97,3.65 0.97,5.904 v 34.452 c 0,2.391 0.46,2.618 5.31,3.022 l -0.28,1.961 c -2.27,0 -5.11,-0.254 -9.17,-0.254 -3.81,0 -6.27,0.254 -7.84,0.254 l 0.25,-1.961 c 3.53,-0.135 4.14,-0.874 4.37,-2.971 0.13,-2.287 0.43,-7.984 0.43,-18.036 0,-16.527 -0,-17.554 -0.58,-19.213 -0.95,-2.967 -2.89,-4.706 -6.17,-4.706 -3.86,0 -6.88,2.518 -8.68,6.502 -0.79,1.586 -0.94,2.745 -0.94,4.858 v 19.674 c 0,4.276 0,7.821 0.23,10.346 0.31,2.873 0.74,3.25 4.76,3.546 l -0.36,1.961 c -1.56,0 -6.19,-0.254 -8.9,-0.254 -2.82,0 -5.99,0.176 -8,0.254 v -1.959 m -3.37,1.961 c -2.29,0 -5.25,-0.254 -9.41,-0.254 -4.03,0 -6.68,0.254 -8.73,0.254 l 0.1,-1.961 c 4.65,-0.135 5.39,-0.906 5.53,-3.007 0.12,-2.173 0.41,-6.851 0.41,-15.865 V 46.674 c 0,-6.361 -0.22,-10.734 -0.27,-12.561 -0,-1.708 -0.89,-1.992 -5.94,-1.723 v -1.834 c 1.78,-0.194 4.54,-0.427 7.2,-0.746 2.75,-0.349 5.21,-0.763 6.39,-1.107 -0,2.14 -0.44,8.404 -0.44,17.728 v 13.332 c 0,8.645 0.28,12.618 0.4,15.211 0.11,2.381 0.94,2.67 5.03,2.914 l -0.26,1.961 M 401.97,6.396 c 2.83,0 4.16,1.806 4.16,4.885 0,2.75 -2.07,4.494 -4.65,4.494 -2.23,0 -4.01,-1.793 -4.01,-4.548 0,-2.67 1.75,-4.831 4.4,-4.831 h 0.1 z m -16.13,37.518 c -0.56,-7.045 -3.34,-13.082 -8.41,-13.082 -4.18,0 -6.51,3.275 -6.51,8.727 0,2.463 0.59,4.571 2.36,6.331 2.27,2.121 8.99,6.656 12.14,9.189 3.74,3.141 5.39,6.877 5.39,11.071 0,9.05 -6.43,14.846 -15.32,14.846 -4.31,0 -8.74,-1.087 -10.74,-2.267 0,-1.997 0.11,-10.913 -0.1,-14.549 l 1.68,-0.444 c 0.18,2.32 0.79,5.11 1.75,7.847 1.74,4.854 4.89,7.142 8.7,7.142 4.88,0 8.12,-3.115 8.05,-8.999 0,-2.002 -0.62,-4.543 -2.52,-6.359 -2.51,-2.405 -8.68,-6.869 -11.39,-9.114 -3.49,-2.822 -5.29,-6.301 -5.29,-11.656 0,-7.563 4.69,-14.038 12.63,-14.038 3.06,0 5.42,1.172 6.63,2.274 l 0.9,-3.042 1.69,0.652 c -0.39,5.242 -0.36,10.419 0,14.916 l -1.69,0.555 M 343.6,29.842 c 2.19,0 5.11,-0.122 7.48,-0.244 2.43,-0.145 4.24,-0.377 5.27,-0.465 -0.26,3.627 -0.28,9.536 -0.38,16.377 v 15.34 c 0,9.565 0.1,12.826 0.35,15.051 0.2,1.702 0.58,1.853 5.22,1.691 l -0,1.698 c -1.62,0.118 -3.79,0.377 -6.23,0.797 -2.43,0.201 -4.43,0.568 -6.11,0.931 0,-2.634 -0.19,-6.22 -0.15,-9.448 -2.86,4.336 -7.98,9.428 -15.01,9.428 -4.44,0 -6.89,-1.977 -7.88,-4.301 -0.56,-1.422 -0.84,-3.135 -0.84,-5.655 0,-6.904 0.28,-18.732 0.3,-27.56 0,-5.961 -0.1,-8.416 -0.18,-9.974 -0.11,-1.871 -0.75,-2.029 -5.33,-2.029 l 0.4,-1.708 c 2.02,0 4.82,-0.09 7.32,-0.344 2.45,-0.207 4.46,-0.439 5.43,-0.672 -0.28,2.618 -0.58,11.165 -0.7,24.522 0,13.366 0,17.479 0.31,19.808 0.34,2.536 1.69,4.218 4.35,4.218 4.81,0 8.81,-3.922 10.91,-10.162 0.94,-2.751 0.94,-4.362 0.94,-6.55 V 46.946 c 0,-7.281 -0.13,-11.017 -0.28,-13.535 -0.14,-1.674 -0.76,-1.806 -5.06,-1.865 l -0.1,-1.704 m -53.58,9.854 c 1.15,-0.158 2.64,-0.349 4.28,-0.349 6.41,0 10.01,2.598 11.95,5.118 2,2.916 2.96,7.309 2.96,13.636 0,5.213 -0.73,9.897 -2.23,12.967 -2.05,4.232 -6.35,6.38 -12.34,6.38 -3.06,0 -4.05,-0.61 -4.16,-1.806 -0.3,-4.844 -0.46,-9.143 -0.46,-18.618 V 39.696 m -14.24,40.22 c 2.6,-0.259 6.06,-0.353 7.87,-0.353 1.92,0.08 3.25,0.1 4.97,0.197 1.91,0.1 3.41,0.1 5.99,0.1 5.55,0 11.53,-1.071 16.09,-4.543 5.14,-3.886 7.46,-9.338 7.46,-16.999 0,-7.629 -2.65,-12.159 -5.74,-14.884 -3.07,-2.729 -7.56,-4.187 -12.01,-5.172 v -0.45 c 1.88,-0.572 3.44,-1.361 5.18,-2.184 3.98,-2.297 8.45,-6.851 8.45,-15.332 0,-5.316 -1.34,-9.221 -3.98,-12.119 -2.69,-2.9 -6.89,-4.341 -14.47,-4.341 -4.75,0 -8,0.186 -11.09,0.308 -3.54,0.064 -5.88,0.175 -8.42,0.276 v 2.108 c 5.58,-0.243 5.9,0.111 6.1,1.62 0.23,4.716 0.32,10.228 0.32,17.206 v 32.54 c 0,7.372 -0.19,13.03 -0.41,17.429 -0.19,2.054 -0.86,2.421 -6.31,2.69 v 1.905 z m 14.26,-57.911 c 0,-6.841 0.24,-10.184 0.37,-13.798 0,-1.632 1.05,-2.24 4.64,-2.24 4.54,0 7.15,1.508 8.69,4.37 1.12,2.285 1.91,5.759 1.91,11.112 0,12.267 -4.45,15.795 -11.72,15.795 -1.39,0 -2.41,-0.02 -3.89,-0.137 V 22.005 Z M 237.82,3.399 c 5.06,-0.354 5.83,-0.259 5.94,1.692 0.26,4.879 0.35,11.868 0.35,25.316 -1.88,-1.265 -4.59,-1.85 -7.16,-1.85 -14.21,0 -19.99,14.308 -19.99,28.581 0,6.571 1.22,12.805 3.94,17.44 2.27,3.773 5.93,6.417 10.93,6.417 4.16,0 8.08,-2.447 11.97,-6.303 l 0.23,0.03 c 0.1,0.946 0.4,3.487 0.87,6.432 1.33,-0.444 3.43,-0.874 5.75,-1.153 2.38,-0.141 4.85,-0.379 5.91,-0.42 l 0.56,-2.038 -3.12,0.186 c -1.17,-0.02 -2.24,-0.32 -2.53,-2.214 -0.4,-3.132 -0.43,-7.069 -0.43,-17.53 l 0,-32.337 c 0,-12.631 0.41,-20.624 0.58,-25.645 -3.9,0.512 -9.59,1.33 -13.27,1.557 l -0.56,1.843 m -13.21,52.194 c 0,-13.278 4.1,-24.897 12.13,-24.897 3.64,0 5.63,2.225 6.69,4.404 0.66,1.325 0.68,3.358 0.68,14.952 0,18.212 -0.32,19.951 -1.16,21.58 -2,3.809 -5.19,5.247 -8.08,5.247 -2.62,0 -5.2,-1.392 -7.17,-4.988 -1.82,-3.115 -3.09,-9.153 -3.09,-16.181 z m -28.7,-6.624 c 0,-8.085 -0.54,-12.858 -0.79,-14.765 -0.21,-1.157 -0.78,-1.643 -1.88,-1.667 h -3.28 l 0.47,-1.705 c 2.41,-0.253 4.44,-0.51 6.5,-0.87 2.17,-0.349 3.69,-0.742 4.4,-0.946 l 0.35,0.396 c 0.37,3.449 0.71,8.892 0.72,10.699 h 0.34 c 1.94,-4.823 5.04,-11.552 11.15,-11.552 2.08,0 3.46,1.192 3.9,2.406 -0.21,0.95 -1.67,5.713 -2,6.533 h -1.11 c -0.9,-1.18 -2.9,-2.543 -4.92,-2.543 -2.62,0 -4.89,4.044 -6.01,7.938 -0.68,2.306 -0.91,4.075 -0.91,7.185 0,17.021 0,21.643 0.23,24.706 0.13,2.323 0.67,2.873 6.85,3.105 l -0.27,1.961 c -2.39,-0.02 -6.94,-0.254 -10.66,-0.254 -3.65,0 -6.59,0.233 -8.96,0.254 l 0.29,-1.961 c 4.19,-0.161 4.85,-0.859 5.05,-2.825 0.31,-2.702 0.54,-7.665 0.54,-14.271 V 48.969 m -20.63,-0.646 c -2.88,1.621 -5.94,3.213 -9.8,5.276 -3.28,1.766 -5.59,3 -7.73,4.702 -2.92,2.214 -4.21,5.668 -4.21,9.676 0,6.847 3.8,13.01 10.13,13.01 3.96,0 8.42,-2.976 11.76,-7.606 0.66,4.905 3.37,7.606 7.5,7.606 2.68,0 4.66,-0.927 5.5,-1.843 l 0.15,-1.671 c -0.67,0.279 -1.29,0.397 -2.16,0.397 -2.13,0 -4.2,-1.511 -4.2,-6.473 0,-8.838 0,-28.947 0,-32.527 0,-1.723 -0.32,-3.858 -1.24,-5.283 -1.28,-2.072 -4.19,-5.012 -10.28,-5.012 -8.87,0 -14.75,6.999 -14.75,11.641 0,1.632 0.8,2.468 2.01,3.019 1.21,0.574 2.43,0.748 3.38,0.652 l 1,-0.835 c 0.32,-7.133 2.75,-12.373 7.46,-12.373 4.17,0 5.48,3.544 5.48,8.566 v 9.078 m -13.95,18.2 c 0,-5.743 2.15,-8.35 4.4,-10.007 3.67,-2.767 7.01,-4.208 9.55,-5.555 l 0.1,13.528 c 0,1.33 -0.1,3.27 -0.31,4.217 -1.8,5.299 -4.63,7.897 -7.78,7.897 -3.91,0 -5.93,-4.486 -5.93,-9.961 V 66.523 Z M 116.48,29.709 c 2.15,0.153 5.3,0.274 8.1,0.259 2.8,0 6.78,-0.164 8.86,-0.259 l 0.32,1.966 -2.54,0.285 c -1.9,0.233 -2.24,0.753 -1.76,2.73 2.8,12.584 6.84,27.463 8.53,34.959 2.88,-10.596 6.08,-22.729 8.56,-35.04 0.29,-1.632 0.1,-2.235 -1.28,-2.31 l -3.51,-0.624 0.18,-1.966 c 2.34,0 4.82,0.259 7.15,0.259 2.79,0 5.14,-0.259 6.94,-0.259 l -0.17,1.966 c -4.01,0.613 -4.69,1.022 -6.27,5.664 -2.12,6.533 -5.2,17.206 -8.48,29.19 -1.62,5.966 -2.83,11.146 -3.55,14.008 -0.59,0.02 -1.32,0.06 -2.03,0.181 -0.6,0.114 -1.26,0.14 -1.73,0.259 -2.92,-12.284 -8.94,-35.647 -11.54,-44.274 -1.39,-4.333 -1.92,-4.763 -5.63,-5.027 l -0.15,-1.967 m -20.024,19.26 c 0,-8.085 -0.536,-12.858 -0.784,-14.765 -0.207,-1.157 -0.779,-1.643 -1.875,-1.667 h -3.283 l 0.471,-1.705 c 2.406,-0.253 4.44,-0.51 6.497,-0.87 2.166,-0.349 3.698,-0.742 4.398,-0.946 l 0.35,0.396 c 0.37,3.449 0.71,8.892 0.72,10.699 h 0.34 c 1.94,-4.823 5.04,-11.552 11.15,-11.552 2.09,0 3.46,1.192 3.91,2.406 -0.21,0.95 -1.68,5.713 -2,6.533 h -1.12 c -0.9,-1.18 -2.9,-2.543 -4.92,-2.543 -2.62,0 -4.89,4.044 -6,7.938 -0.69,2.306 -0.91,4.075 -0.91,7.185 0,17.021 0,21.643 0.22,24.706 0.13,2.323 0.66,2.873 6.85,3.105 l -0.28,1.961 c -2.38,-0.02 -6.93,-0.254 -10.653,-0.254 -3.651,0 -6.59,0.233 -8.955,0.254 l 0.292,-1.961 c 4.186,-0.161 4.853,-0.859 5.047,-2.825 0.303,-2.702 0.536,-7.665 0.536,-14.271 V 48.969 M 75.941,48.323 c -2.877,1.621 -5.946,3.213 -9.803,5.276 -3.275,1.766 -5.586,3 -7.726,4.702 -2.926,2.214 -4.207,5.668 -4.207,9.676 0,6.847 3.792,13.01 10.124,13.01 3.969,0 8.414,-2.976 11.759,-7.606 0.658,4.905 3.369,7.606 7.498,7.606 2.686,0 4.662,-0.927 5.501,-1.843 l 0.147,-1.671 c -0.662,0.279 -1.278,0.397 -2.153,0.397 -2.129,0 -4.201,-1.511 -4.201,-6.473 0,-8.838 0,-28.947 0,-32.527 0,-1.723 -0.316,-3.858 -1.234,-5.283 -1.281,-2.072 -4.196,-5.012 -10.284,-5.012 -8.875,0 -14.758,6.999 -14.758,11.641 0,1.632 0.802,2.468 2.025,3.019 1.198,0.574 2.422,0.748 3.369,0.652 L 63,43.052 c 0.324,-7.133 2.75,-12.373 7.457,-12.373 4.171,0 5.485,3.544 5.485,8.566 v 9.078 m -13.948,18.2 c 0,-5.743 2.153,-8.35 4.398,-10.007 3.677,-2.767 7.003,-4.208 9.549,-5.555 l 0.07,13.528 c 0,1.33 -0.06,3.27 -0.313,4.217 -1.806,5.299 -4.631,7.897 -7.777,7.897 -3.909,0 -5.93,-4.486 -5.93,-9.961 V 66.523 Z M 6.528,26.53 c 0,-8.293 0,-11.943 -0.111,-15.86 C 6.326,6.823 5.599,6.199 0.249,6.104 L 0.306,4.127 c 1.876,0 5.172,0.272 9.232,0.272 3.438,0 7.689,-0.272 10.708,-0.272 l -0.05,1.977 c -4.916,0.08 -5.487,1.139 -5.705,4.393 -0.222,2.872 -0.277,8.212 -0.44,14.657 v 13.78 c 2.399,0.116 6.655,0.145 11.048,0.145 4.483,0 9.182,-0.03 12.553,-0.145 v -13.75 c 0,-7.942 -0.02,-12.266 -0.217,-15.425 C 37.27,7.221 36.419,6.225 31.617,6.103 l 0.04,-1.977 c 3.902,0.264 7.604,0.272 10.253,0.272 3.478,0 7.641,-0.225 9.623,-0.272 v 1.977 c -5.133,0.122 -5.982,0.905 -6.093,4.561 -0.153,3.762 -0.264,8.226 -0.264,15.177 v 29.417 c 0,9.236 0.126,14.855 0.274,18.655 0.171,3 0.813,3.58 6.01,3.974 l -0.08,1.961 c -2.473,-0.09 -6.74,-0.254 -10.38,-0.254 -3.317,0 -7.402,0.07 -9.537,0.254 v -1.961 c 5.054,-0.166 5.744,-1.062 5.902,-4.083 0.1,-2.675 0.282,-6.334 0.282,-17.697 V 41.774 c -2.968,-0.117 -7.689,-0.28 -12.261,-0.28 -4.574,0 -8.941,0.163 -11.34,0.28 V 55.96 c 0,9.032 0.197,13.995 0.386,17.643 0.135,3.721 1.056,4.222 5.915,4.285 v 1.961 c -2.468,0 -6.205,-0.254 -11.063,-0.254 -3.674,0 -7.224,0.254 -9.283,0.254 V 77.888 C 5.284,77.774 5.874,76.884 6.132,73.898 6.264,71.109 6.531,66.649 6.531,54.561 V 26.53"></path></svg>