<?xml version="1.0"?>
 <svg xmlns="http://www.w3.org/2000/svg" viewBox="0 0 2560 900" height="900" width="2560"> <path d="m 2260,612.5 c -1,-11.2 -1,-24.8 -1,-40.8 l 0,-56.6 c 0,-27.2 -8,-48 -21,-62.7 -14,-14.8 -34,-22.1 -60,-22.1 -8,0 -18,0.9 -28,2.8 -9,1.6 -21,5.2 -33,10.8 l 9,24.5 c 9,-3.3 17,-5.7 24,-7.3 6,-1.5 14,-2 21,-2 19,0 31,4.8 39,14.8 8,10 12,22.8 12,38.4 l 0,74.2 c 0,0 0,25.2 2,33.5 0,4.1 3,7.7 6,11.2 1,3.6 4,6.4 8,8.5 l 26,0 c -1,-6.8 -2,-16 -4,-27.2 m -64,-4.1 c -9,4.5 -18,6.8 -26,6.8 -11,0 -19,-3.1 -24,-9 -7,-6 -9,-13 -9,-21.3 0,-3.7 1,-7.3 1,-10.9 1,-3.6 4,-7 6,-9.9 3,-3.1 8,-5.9 14,-8.3 5,-2.2 12,-4 21,-5.4 5,-0.8 9,-2.4 13,-4.8 3,-2.4 6,-4.9 8,-8.1 3,-3.1 4,-6 6,-9.2 0,-3.2 1,-6 1,-8.4 -20,2.4 -37,5.2 -52,8.8 -13,3.6 -25,8 -33,13.3 -9,5.4 -15,11.8 -19,19 -4,7.5 -5,16.2 -5,26.3 0,8 1,15.3 4,22.3 3,6.9 8,12.8 13,17.8 6,5.1 14,9.1 22,11.9 7,2.9 17,4.4 27,4.4 10,0 19,-1.5 27,-4.5 9,-3.1 16,-8.4 19,-13.5 5,-8.8 9,-39.2 9,-39.2 -8,10.1 -13,17.3 -23,21.9 m -966,4.1 c -3,-11.2 -3,-24.8 -3,-40.8 l 0,-56.6 c 0,-27.2 -7,-48 -21,-62.7 -14,-14.8 -34,-22.1 -59,-22.1 -10,0 -19,0.9 -28,2.8 -11,1.6 -22,5.2 -35,10.8 l 9,24.5 c 10,-3.3 18,-5.7 24,-7.3 8,-1.5 15,-2 22,-2 19,0 31,4.8 39,14.8 8,10 12,22.8 12,38.4 l 0,74.2 c 0,0 0,25.2 2,33.5 2,4.1 3,7.7 6,11.2 2,3.6 5,6.4 8,8.5 l 28,0 c -3,-6.8 -4,-16 -4,-27.2 m -66,-4.1 c -9,4.5 -18,6.8 -27,6.8 -10,0 -18,-3.1 -24,-9 -6,-6 -9,-13 -9,-21.3 0,-3.7 1,-7.3 1,-10.9 2,-3.6 4,-7 7,-9.9 4,-3.1 8,-5.9 13,-8.3 6,-2.2 12,-4 22,-5.4 5,-0.8 9,-2.4 13,-4.8 3,-2.4 6,-4.9 8,-8.1 3,-3.1 4,-6 6,-9.2 0,-3.2 1,-6 1,-8.4 -20,2.4 -38,5.2 -52,8.8 -14,3.6 -26,8 -34,13.3 -8,5.4 -14,11.8 -18,19 -4,7.5 -6,16.2 -6,26.3 0,8 2,15.3 4,22.3 3,6.9 8,12.8 14,17.8 5,5.1 13,9.1 21,11.9 8,2.9 17,4.4 28,4.4 10,0 19,-1.5 27,-4.5 9,-3.1 16,-8.4 19,-13.5 5,-8.8 9,-39.2 9,-39.2 -8,10.1 -13,17.3 -23,21.9 M 2330,434.3 c 4,4.5 6,9.3 9,14.5 1,5.2 3,11.1 4,17.5 l 0,6.9 4,-6.9 c 4,-10.3 12,-18.4 21,-25.1 10,-6.4 20,-9.7 31,-9.7 5,0 12,1.2 20,3.2 l -5,31.2 c -4,-1.2 -8,-1.9 -11,-2 -3,-0.4 -5,-0.4 -8,-0.4 -7,0 -12,1.2 -19,3.6 -5,2.5 -10,6.4 -16,11.7 -5,5.5 -9,12.3 -12,20.7 -2,8.5 -4,18.8 -4,30.5 l 0,109.7 -36,0 0,-135.8 c 0,-12.3 0,-24.4 -1,-37.1 -1,-12.4 -3,-23.2 -5,-32.5 l 28,0 z m -268,205.4 -36,0 0,-301 36,0 0,301 z m -113,0 c -7,-7.2 -11,-14.3 -12,-21.3 -3,-7 -4,-14.4 -4,-22.4 l 0,-161.7 37,0 0,155.3 c 0,7.4 0,15.3 1,23.7 2,8.3 3,17.1 6,26.4 l -28,0 z m -106,-56 c 0,9.3 0,16.8 4,22.7 4,5.8 12,8.6 20,8.6 4,0 6,-0.2 8,-0.9 2,-0.7 4,-1.3 8,-2.1 8,-1.9 15,-2 22,-0.4 6,1.6 13,5.2 18,11 -14,8.6 -26,14.2 -36,17 -9,2.8 -16,4.1 -24,4.1 -8,0 -16,-0.9 -22,-2.9 -8,-2 -14,-5.5 -18,-10.6 -6,-5 -10,-11.6 -14,-19.7 -2,-8 -4,-18.3 -4,-30.8 l 0,-145.4 38,0 0,149.4 z m -136,-77 76,133.1 -40,0 -60,-107.1 -32,34.3 c 0,-4 0,-8.4 -2,-13 0,-4.8 0,-9.7 2,-14.9 0,-5.2 2,-10.4 4,-15.5 2,-5.2 4,-9.7 8,-14.1 l 64,-75.2 44,0 -64,72.4 z m -76,133 -36,0 0,-301 36,0 0,301 z m -178,0 -72,-205.4 40,0 50,160.1 4,10 2,-10 50,-160.1 38,0 -72,205.4 -40,0 z m -94,0 -37,0 -72,-205.4 39,0 50,160.1 3,10 3,-10 36,-96.9 c 4,3.2 6,7.2 8,12.4 2,4.9 4,10.4 5,16.4 0,6 1,12.1 0,18.7 0,6.4 -1,12.8 -3,19.2 l -32,75.5 z m -372.6,-165.3 0,-123.4 37.6,0 0,288.7 -37.6,0 0,-137.4 -129.3,0 c 2.7,-7.6 6.7,-14.3 12,-19.6 5.4,-5.6 12,-8.3 21.3,-8.3 l 96,0 z M 803.8,351 l 37.3,0 0,288.7 -37.3,0 0,-288.7 z M 629.2,211.4 c -5.4,0 -10.7,0 -17.4,1.3 -13.3,1.4 -26.6,5.4 -39.9,12 l -342.9,0 c -52.8,0 -92.3,42.7 -87.9,95.1 l 19,228 c 4.4,52.6 51.2,95.5 104,95.5 l 160.3,0 c 3,21.3 4.4,35 18.6,45.3 12.9,-10.3 15.6,-24 18.2,-45.3 l 162.6,0 c 53.4,0 100,-42.9 104,-95.5 l 9.4,-109.4 c 4,3.5 9.3,5.5 15.9,4.7 10.7,-1.6 18.7,-11.6 17.4,-22.8 -1.4,-8 -6.7,-14.4 -14.7,-16.5 10.7,-22.3 14.7,-47.5 10.7,-73.2 -9.4,-69.9 -69.3,-119.2 -137.3,-119.2 z m 0,16 c 60,0 112,44 119.9,105.3 9.4,66 -37.3,126.8 -102.6,135.6 -66.6,8.8 -126.6,-37.6 -136,-103.6 -9.3,-66.7 37.4,-126.6 104,-136 5.3,0 9.3,0 14.7,-1.3 z m 18.6,53.3 c -12,0 -25.3,2.7 -38.6,6.7 -21.3,5.3 -72,33.3 -66.7,52 1.4,6.9 1.4,-7.5 6.7,-11.5 29.3,-21.9 52,-27.2 73.3,-31.2 30.7,-5.3 76,-2.6 86.7,10.7 33.3,41.7 -8,104.9 -8,104.9 0,0 21.3,-29.7 22.6,-41.3 2.7,-18.8 0,-58.3 -2.6,-66.3 0,-4 -29.4,-24 -73.4,-24 z m -206.6,9.4 c 0.8,0 1.8,0 2.7,0 20,-1.4 36,9.3 50.6,41.8 -2.6,11.5 -2.6,23.2 0,35.1 8,59.8 53.4,105.8 110.7,116.6 14.6,9.1 25.3,14 25.3,14 0,0 5.3,6 -10.7,5.2 -14.6,-0.9 -26.6,-8.9 -74.6,0 -33.3,6.3 -20,23.1 -41.3,35.6 4,-8.4 6.6,-16.5 9.3,-22.5 4,-8.3 8,-16.4 12,-24.3 -2.7,3.5 -4,6.8 -6.7,10.3 l -1.3,2 c -4,10.4 -13.3,28.4 -26.7,40 l -1.3,0.4 0,0 c -1.3,1.5 -4,3.5 -5.3,5.5 -4,6.6 -6.7,12.7 -9.3,18.7 -16,39.2 -10.7,60.5 -24,74.8 -2,2.1 -4.6,4.1 -7.6,5.9 -2.3,-1.4 -4.3,-2.7 -6,-4.2 -0.6,-0.6 -1.2,-1.2 -1.8,-1.7 C 421,629 427.6,607.8 411.1,569 c -2.5,-6.2 -5.9,-12.6 -9.9,-19.4 l -0.1,-0.2 c -1.5,-2 -3.3,-3.8 -5.3,-5.5 -2,-1.6 -4,-3.6 -6,-5.6 0,-0.3 0,-0.3 0,-0.4 -0.8,-0.7 -1.4,-1.2 -2,-2 -0.2,-0.3 -0.3,-0.4 -0.6,-0.4 -0.4,-0.8 -1,-1.5 -1.4,-2 -0.3,-0.4 -0.6,-0.7 -0.7,-0.8 -0.4,-0.7 -0.9,-1.2 -1.3,-1.9 -0.3,-0.1 -0.6,-0.5 -0.7,-0.9 -0.4,-0.4 -0.8,-1.1 -1.3,-1.6 -0.2,-0.4 -0.3,-0.8 -0.6,-1.1 l -1.2,-1.7 c -0.1,-0.3 -0.2,-0.4 -0.5,-0.8 -0.4,-0.8 -0.8,-1.2 -1.2,-2 -0.1,0 -0.1,-0.3 -0.3,-0.3 -4.1,-6.9 -7.3,-13.7 -9.3,-18.5 -1.3,-2 -2.5,-3.6 -3.7,-5.5 -0.4,-0.5 -1,-0.9 -1.2,-1.6 -1.1,-1.6 -2.2,-3.2 -3.2,-4.5 3.6,7.3 8,15.3 12.5,23.6 1.7,5.2 4.3,12.5 7.9,20 -18.7,-13.2 -8.6,-30 -38.7,-33.1 -48.8,-4.9 -59.2,-0.9 -74.9,0 -15.9,0.8 -9.9,-5.2 -9.9,-5.2 0,0 33.1,-15.6 65.9,-41.3 21.4,-16.8 42.4,-34.3 51.2,-67.2 20,-73.7 38.6,-99 66.6,-99 z m -204.2,4 c 36.4,0 75.6,18.6 85.6,42.2 2.5,6 7.3,24.4 7.3,24.4 0,0 -8.4,11.1 -9.2,14.4 -0.5,3.6 -43.2,90.8 -123.3,25.1 0,0 -26,-32 -15.2,-73.1 1,-3.2 -1,-11.7 1.5,-14.4 13.2,-13.3 32.8,-18.6 53.3,-18.6 z m 4.7,6.6 c -30.3,0 -50.1,14.7 -50.8,16 -1.5,6 -3.7,33.6 -1.7,46.8 1.2,8 16.2,28.7 16.2,28.7 0,0 -28.6,-43.9 -5.6,-72.7 7.5,-9.5 38.4,-10.8 60.4,-8.1 14.5,2.6 30.4,7.2 50.4,22.1 3.6,2.8 3.7,12.8 5.2,8 3.6,-12.9 -31.6,-32.8 -46.4,-36.8 -10,-2.7 -19.3,-4 -27.7,-4 z m 375.5,5.3 c -26.7,0 -48,22.3 -48,49 0,26.5 21.3,48.1 48,48.1 25.3,0 46.6,-21.6 46.6,-48.1 0,-5.1 -1.3,-9.6 -2.6,-14 -1.4,0.9 -4,2.1 -5.4,3.3 -12,6.8 -47.9,8.4 -70.6,-4.9 -1.3,-1.1 21.3,-18.3 49.3,-29.4 -5.3,-2.6 -12,-4 -17.3,-4 z m -353.4,12.7 c -5.7,0 -10.9,1.5 -15.7,4 17.3,7.9 31.3,18.3 30.1,18.8 -14,8.4 -36.5,8.3 -46.4,4.4 -0.4,2 -0.7,4 -0.7,6.4 0,18.4 14.7,33.6 32.7,33.6 18.1,0 32.8,-15.2 32.8,-33.6 0,-18.5 -14.7,-33.6 -32.8,-33.6 z m 488,93.6 c 4,0.8 8,4.4 9.3,9.2 0,6 -4,11.6 -9.3,12.4 -4,0.4 -8,-1.2 -10.6,-4.4 3.9,-5.5 7.9,-11.2 10.6,-17.2 z"></path> </svg>