<?xml version="1.0"?>

<svg xmlns="http://www.w3.org/2000/svg" height="457.1" width="385.4" viewBox="0 0 385.4 457.1">
     <path d="M 319.3,32.79 C 305.3,25.63 290.8,22 276.1,22 238.9,22 209.2,45.17 192.7,61.79 176.3,45.17 146.6,22 109.4,22 94.69,22 80.14,25.63 66.2,32.79 32.36,50.17 17.14,85.47 23.36,132.1 c 2.95,22.1 16.84,45.7 36.7,70 v 88.6 c 0,7.6 6.17,13.8 13.78,13.8 7.6,0 13.75,-6.2 13.75,-13.8 v -58.1 c 4.1,4.2 8.2,8.3 12.51,12.5 v 146.6 c 0,2.8 2.2,5 5,5 2.8,0 5,-2.2 5,-5 V 254.8 c 1.8,1.8 3.6,3.5 5.4,5.2 v 100.7 c 0,6.2 5.1,11.3 11.3,11.3 6.2,0 11.3,-5.1 11.3,-11.3 V 281 c 6.1,5.6 12.3,11.2 18.4,16.8 8.5,7.7 16.5,15 24.3,22.2 l 11.9,11 11.9,-11 c 1.1,-0.9 2.1,-1.9 3.2,-2.9 v 113 c 0,2.8 2.2,5 5,5 2.7,0 5,-2.2 5,-5 V 308 c 1.9,-1.8 3.8,-3.6 5.8,-5.4 V 380 c 0,4.2 3.4,7.5 7.5,7.5 4.2,0 7.5,-3.3 7.5,-7.5 v -91 c 59,-53.8 117.1,-108.8 123.5,-156.9 6.2,-46.63 -9,-81.93 -42.8,-99.31 z m 8,94.71 c -5,38 -69.8,97 -121.9,144.3 -4.2,3.8 -8.4,7.7 -12.7,11.6 -4.2,-3.9 -8.4,-7.7 -12.6,-11.5 C 128,224.5 63.18,165.5 58.11,127.5 56.2,113.1 56.84,100.7 60.02,90.37 c 3.74,-12 11,-20.7 22.19,-26.4 8.98,-4.59 18.09,-6.91 27.19,-6.91 38.6,0 68.8,41.21 69.1,41.61 L 192.7,118.5 207,98.67 c 0.3,-0.4 30.5,-41.61 69.1,-41.61 9.1,0 18.2,2.32 27.1,6.91 11.2,5.8 18.5,14.4 22.2,26.4 3.2,10.33 3.9,22.73 1.9,37.13 z"></path>

</svg>
