<?xml version="1.0"?>

<!-- Generator: Adobe Illustrator 19.1.0, SVG Export Plug-In . SVG Version: 6.00 Build 0)  -->
<svg version="1.1" id="Layer_1" xmlns="http://www.w3.org/2000/svg" xmlns:xlink="http://www.w3.org/1999/xlink" x="0px" y="0px" width="89px" height="89px" viewBox="-376 253.3 89 89" style="enable-background:new -376 253.3 89 89;" xml:space="preserve">
<path d="M-304.8,289c-2.6-8.4-10.4-14.2-19.2-14.2c-8.8,0-16.6,5.8-19.2,14.1c-1.4-0.5-2.9-0.8-4.5-0.8c-6.3,0-11.6,4.3-13.1,10.3
	c-5.6,0.2-10.3,4.1-11.5,9.6c-0.1,0.2,0,0.5,0.2,0.7c0.2,0.2,0.4,0.3,0.7,0.3h35.6c-0.2,1.5-1,9.3,9,12.3c0.1,0,0.1,0,0.2,0
	c0.1,0,0.2,0,0.3-0.1c0.2-0.1,5.6-2.3,7.4-7.2c0.6-1.6,0.8-3.3,0.5-5h25.9c0.4,0,0.8-0.3,0.8-0.7c0.2-1,0.3-2,0.3-2.9
	C-291.5,297.5-297.1,290.7-304.8,289z M-320.4,313.6c-1.4,3.8-5.4,5.8-6.4,6.3c-9.4-3-7.7-10.4-7.7-10.6c0.2-0.6,0.3-1.2,0.4-1.8
	c0,0,0,0,0,0l0,0c0.3-1.9,0.2-3.4,0-4.5c2.2,2,2.5,5.3,2.5,5.3c0,0.3,0.2,0.5,0.4,0.6c0.2,0.1,0.5,0.1,0.7,0
	c2.4-1.3,2.1-4.2,1.6-5.5c-0.9-2.4-1.1-3.8-1.1-3.8c-0.1-2.8,1.1-4.7,2.3-5.9c-1.9,6.7,2.6,9.9,2.7,10c0.2,0.1,0.5,0.2,0.7,0.1
	c0.2-0.1,0.4-0.3,0.4-0.6c0.2-1.8,1-3,1.9-3.8c-1,3.6,0.7,6.4,0.8,6.4c0.3,0.6,0.5,1.1,0.7,1.7c0.1,0.3,0.2,0.5,0.2,0.8
	c0,0,0,0.1,0,0.1c0.1,0.3,0.1,0.5,0.2,0.8C-319.8,310.7-319.9,312.2-320.4,313.6z M-293.3,307.4h-25.6c-0.2-0.8-0.6-1.6-1-2.4
	c-0.1-0.1-2.1-3.4,0.2-7.2c0.2-0.3,0.1-0.6-0.1-0.8c-0.2-0.2-0.5-0.3-0.8-0.2c-0.2,0-3.3,1.1-4.4,4.8c-1.2-1.4-2.7-4.5-0.4-9.7
	c0.1-0.3,0.1-0.6-0.2-0.9c-0.2-0.2-0.6-0.3-0.9-0.1c-0.2,0.1-5.3,2.7-5,8.8c0,0.1,0.2,1.6,1.1,4.1c0,0.1,0.6,1.7,0,2.8
	c-0.4-1.8-1.6-4.8-4.9-6.2c-0.3-0.1-0.6,0-0.9,0.2c-0.2,0.2-0.2,0.6-0.1,0.9c0.1,0.1,1.3,2.1,0.5,5.8h-34.9
	c1.4-4.3,5.5-7.3,10.2-7.3h0l0.1,0c0.4,0,0.8-0.3,0.8-0.7c1-5.6,5.9-9.7,11.6-9.7c1.5,0,3,0.3,4.4,0.9c0.9,0.4,2.7,1.5,3.9,3.4
	c0.1,0.2,0.4,0.3,0.6,0.3c0.1,0,0.1,0,0.2-0.1c0.3-0.2,0.4-0.6,0.2-0.9c-1-1.7-2.4-2.8-3.5-3.4c2.2-8,9.5-13.6,17.8-13.6
	c8,0,15.1,5.1,17.5,12.7c-2.2,0-3.8,0.8-3.8,0.8c-0.3,0.1-0.5,0.5-0.3,0.8c0.1,0.3,0.5,0.5,0.8,0.3c0,0,2.2-0.9,4.7-0.5
	c7,1.5,12,7.7,12,14.9C-293.2,306.1-293.2,306.8-293.3,307.4z"></path>
</svg>
