<svg xmlns="http://www.w3.org/2000/svg" width="144" height="144" viewBox="0 0 144 144" class="icon stroked icon-helpdesk icon-reception"><path fill="none" stroke="#666" stroke-width="2px" class="long"  d="m 116.1,78.89 0,38.01 -79.53,0 0,-38.01 m -8.73,-6.14 88.26,0 0,6.13 -88.26,0 z" /><path fill="none" stroke="#666" stroke-width="2px" class="short"  d="m 98.35,62.9 -0.57,9.38 m -21.5,-9.38 0.57,9.38 m -7.46,0.24 -0.23,-9.09 c 0,-7.55 6.73,-12.79 12.1,-12.79 l 12.11,0 c 5.05,0 12.23,5.71 12.13,12.79 l -0.2,9.21 M 81.27,42.24 c 3.41,3.41 8.93,3.41 12.34,0 3.41,-3.41 3.41,-8.94 0,-12.35 -3.41,-3.41 -8.93,-3.41 -12.34,0 -3.41,3.41 -3.41,8.94 0,12.35 z" /></svg>