 <svg   xmlns="http://www.w3.org/2000/svg" 
   width="132" height="132"
   viewBox="0 0 635 207"  > 
   <path
     d="m 104.55,170.55 0,-73.47 c 0,0 4.7,-17.58 -58.88,7.19 -0.12,0.31 -0.12,-67.94 -0.12,-67.94 l 20.8,-0.12 0,43.73 c 0,0 58.2,-22.94 58.2,17.38 0,40.33 0,73.23 0,73.23 l -20,0 0,0 z m 11.8,-107.88 c 0,0 -21.8,0 -22,0 7.9,-9.71 15.1,-26.34 15.1,-26.34 l 22.8,0 c 0,0 -3.9,10.84 -15.9,26.34 l 0,0 z m -70.44,107.75 0,-41.84 20.94,20.91 -20.94,20.93 0,0 z M 142.55,196 28.67,196 C 18.91,196 11,188.11 11,178.36 L 11,28.65 C 11,18.9 18.91,11 28.67,11 l 113.88,0 c 9.8,0 17.7,7.9 17.7,17.65 l 0,149.71 c 0,9.75 -7.9,17.64 -17.7,17.64 l 0,0 z m 11.6,-166.35 c 0,-6.96 -5.6,-12.6 -12.6,-12.6 l -111.88,0 c -6.97,0 -12.6,5.64 -12.6,12.6 l 0,147.7 c 0,6.96 5.63,12.61 12.6,12.61 l 111.88,0 c 7,0 12.6,-5.65 12.6,-12.61 l 0,-147.7 0,0 z m 88.8,126.43 0,-58.11 c 0,-4.09 -3,-5.86 -6.5,-5.86 -7.1,0 -16,1.77 -24,5.31 l 0,58.66 -16.4,0 0,-107.88 16.4,0 0,35.59 c 7.7,-2.86 17,-5.32 26.3,-5.32 14.9,0 20.4,9.14 20.4,21.68 l 0,55.93 -16.2,0 0,0 z m 46.8,-35.18 c 0.5,19.48 4.3,23.31 16.4,23.31 9.4,0 20,-3.14 28.2,-6.29 l 2.7,12.28 c -8.7,3.96 -19.3,7.77 -32,7.77 -27.3,0 -31.5,-14.99 -31.5,-38.87 0,-13.08 0.9,-24.94 4.1,-35.86 8.1,-3.13 19.1,-4.77 32.8,-4.77 22.4,0 29.2,12.41 29.2,34.1 l 0,8.33 -49.9,0 0,0 z m 20.7,-28.79 c -4.9,0 -12.7,0.14 -19.1,1.36 -0.6,3.27 -1.5,7.77 -1.7,16.1 l 34.1,0 c 0,-11.33 -2.1,-17.46 -13.3,-17.46 l 0,0 z m 59.9,5.31 0,58.66 -16.4,0 0,-66.02 c 13.8,-7.5 28.4,-9.82 37.9,-10.5 l 0,13.64 c -6.7,0.55 -15.1,1.36 -21.5,4.22 l 0,0 z m 64.7,60.55 c -24.4,0 -35.4,-11.99 -35.4,-39.41 0,-29.04 14.6,-40.09 35.4,-40.09 24.5,0 35.5,12 35.5,39.43 0,29.04 -14.6,40.07 -35.5,40.07 l 0,0 z m 0,-65.86 c -12.5,0 -19.5,7.23 -19.5,26.45 0,21.01 5.9,25.65 19.5,25.65 12.6,0 19.6,-7.1 19.6,-26.31 0,-21.02 -5.9,-25.79 -19.6,-25.79 l 0,0 z m 114.5,63.97 -19.3,0 c -4.5,-12.02 -10.8,-24.28 -20.4,-34.94 l -8.6,0 0,34.94 -16.4,0 0,-107.88 16.4,0 0,61.91 7.6,0 c 8.3,-8.59 14.7,-19.23 19.2,-29.73 l 18.4,0 c -6.2,12.68 -14.3,23.87 -23.3,33 10.8,13.63 19.3,28.1 26.4,42.7 l 0,0 z m 30.6,1.89 c -14.8,0 -20.4,-9.14 -20.4,-21.67 l 0,-55.92 16.2,0 0,57.96 c 0,4.1 3,5.87 6.6,5.87 7,0 16.7,-1.77 24.8,-5.33 l 0,-58.5 16.3,0 0,65.72 c -19.3,10.64 -34.2,11.87 -43.5,11.87 l 0,0 z"  /> 
   </svg>