<?xml version="1.0"?>

<svg xmlns="http://www.w3.org/2000/svg" viewBox="0 0 1055 504.5" width="1055" height="504.5"> <path d="m 579.4,385.4 32.3,0 c 0,-9.9 -4.9,-17 -14.8,-17 -9.8,0 -15.9,7.1 -17.5,17 m 19.7,40.5 c -19.2,0 -32.3,-12.6 -32.3,-33.4 0,-20.3 12,-34.5 29.6,-34.5 18.1,0 27.4,12.6 27.4,31.8 l 0,6 -45,0 c 1.7,13.1 9.9,19.2 22,19.2 7.1,0 12,-1.7 18,-6.1 l 0.6,0 0,11 c -5.5,4.4 -12.6,6 -20.3,6 m -63,-39.4 c 9.3,2.7 19.7,6.6 19.7,19.2 0,13.1 -10.9,20.2 -25.2,20.2 -8.2,0 -17,-2.2 -21.9,-6 l 0,-11.5 0.5,0 c 5.5,4.9 13.7,7.1 21.4,7.1 7.1,0 13.2,-2.7 13.2,-8.2 0,-6 -5,-7.1 -15.4,-11 -9.3,-2.7 -19.2,-6 -19.2,-18.6 0,-12.6 10.5,-19.7 23.6,-19.7 7.7,0 14.3,1.6 19.7,4.9 l 0,12.1 -0.5,0 c -4.9,-4.4 -11.5,-6.6 -19.2,-6.6 -7.7,0 -12,3.3 -12,7.7 0,5.5 4.9,6.5 15.3,10.4 m -56.4,-27.4 12.6,0 0,65.2 -12.6,0 0,-65.2 z m 6.5,-26.3 c 3.9,0 7.7,3.3 7.7,7.6 0,4.4 -3.8,7.7 -7.7,7.7 -4.4,0 -8.2,-3.3 -8.2,-7.7 0,-4.3 3.8,-7.6 8.2,-7.6 m -40.5,36.7 c 2.7,-7.1 8.7,-11.5 15.9,-11.5 3.3,0 5.4,0.5 6.5,1.1 l 0,12 -0.5,0 c -1.6,-0.5 -4.4,-1.1 -7.7,-1.1 -6.6,0 -12,4.4 -14.2,12.1 l 0,42.2 -12.6,0 0,-65.2 12.6,0 0,10.4 z M 386.5,415 c 12.6,0 19.7,-9.9 19.7,-23 0,-13.2 -7.1,-23.1 -19.7,-23.1 -6.6,0 -12.6,3.9 -15.9,10.5 l 0,25.2 c 3.3,6 9.3,10.4 15.9,10.4 m 2.2,-57 c 19.7,0 30.1,15.9 30.1,34 0,18.1 -10.4,33.9 -30.1,33.9 -7.7,0 -14.8,-4.3 -18.1,-8.7 l 0,32.3 -12.6,0 0,-90.4 12.6,0 0,7.7 c 3.3,-5 10.4,-8.8 18.1,-8.8 m -64.1,11.5 c 2.7,-7.1 8.7,-11.5 15.9,-11.5 2.7,0 5.4,0.5 6.5,1.1 l 0,12 -0.5,0 c -1.7,-0.5 -4.9,-1.1 -7.7,-1.1 -6.6,0 -12.6,4.4 -14.2,12.1 l 0,42.2 -12.6,0 0,-65.2 12.6,0 0,10.4 z m -71.3,15.9 32.4,0 c -0.6,-9.9 -5.5,-17 -15.4,-17 -9.3,0 -15.3,7.1 -17,17 m 19.2,40.5 c -19.2,0 -32.3,-12.6 -32.3,-33.4 0,-20.3 12,-34.5 30.1,-34.5 17.6,0 27.4,12.6 27.4,31.8 l 0,6 -44.9,0 c 1.1,13.1 9.8,19.2 21.3,19.2 7.2,0 12.7,-1.7 18.1,-6.1 l 0.6,0 0,11 c -5.5,4.4 -12.1,6 -20.3,6 m -57,-66.8 17,0 0,10.4 -17,0 0,35.6 c 0,7.1 3.9,9.9 11,9.9 2.2,0 3.8,-0.6 5.5,-1.1 l 0.5,0 0,10.4 c -1.6,1.1 -4.4,1.6 -7.7,1.6 -15.3,0 -21.3,-7.1 -21.3,-19.7 l 0,-36.7 -11.5,0 0,-10.4 11.5,0 0,-17.6 12,0 0,17.6 z M 159.6,358 c 14.8,0 23,9.3 23,25.2 l 0,41.1 -12.6,0 0,-40.6 c 0,-8.7 -4.4,-14.8 -13.7,-14.8 -7.6,0 -14.2,5 -16.4,12.1 l 0,43.3 -12.1,0 0,-65.2 12.1,0 0,9.3 c 3.8,-6 10.4,-10.4 19.7,-10.4 M 55,331.7 l 57.5,0 0,11.5 -44.9,0 0,27.9 40.5,0 0,11 -40.5,0 0,31.2 44.9,0 0,11 -57.5,0 0,-92.6 z m 925,-52.6 0,-21.4 c -3.3,-4.9 -7.7,-7.1 -12.6,-7.1 -8.8,0 -14.3,6.6 -14.3,17.5 0,11.5 5.5,17.6 14.3,17.6 4.9,0 9.3,-2.2 12.6,-6.6 m 0.5,15.3 c -4.4,5.5 -10.9,8.2 -19.7,8.2 -17,0 -28,-15.3 -28,-34.5 0,-18.6 11,-34.5 28,-34.5 8.8,0 14.8,2.8 19.2,7.7 l 0,-32.9 19.7,0 0,93.1 -19.2,0 0,-7.1 z m -75.1,-48.2 c 3.9,-7.7 8.8,-11.5 15.9,-11.5 2.8,0 5.5,0.6 6.6,1.1 l 0,18.6 -0.5,0 c -2.2,-1.1 -5,-1.6 -8.8,-1.6 -6,0 -11,3.8 -12.6,10.4 l 0,38.3 -19.7,0 0,-66.2 19.1,0 0,10.9 z m -52.6,34.5 0,-6 c -2.7,-1.6 -6.5,-2.2 -10.9,-2.2 -6,0 -9.9,2.8 -9.9,7.7 0,5.5 3.9,8.2 9.3,8.2 5.5,0 9.9,-2.7 11.5,-7.7 m 0.6,14.3 c -4.4,4.9 -10.4,7.6 -17.5,7.6 -12.7,0 -23.6,-8.2 -23.6,-21.9 0,-13.1 10.9,-21.3 25.7,-21.3 5,0 9.9,0.5 14.8,2.2 l 0,-1.1 c 0,-7.2 -3.8,-10.4 -14.8,-10.4 -6.5,0 -12.6,1.6 -18,4.9 l -1.1,0 0,-15.9 c 4.9,-2.7 14.2,-5.5 23,-5.5 19.7,0 30.7,9.9 30.7,26.3 l 0,41.6 -19.2,0 0,-6.5 z m -86.6,-23.6 0,30.1 -19.7,0 0,-93.1 19.7,0 0,53.2 19.7,-26.3 22.5,0 0,0.5 -24.1,30.1 24.1,34.5 0,1.1 -22.5,0 -19.7,-30.1 z m -84.9,-3.3 c 0,-20.8 14.8,-34.5 34.5,-34.5 7.1,0 13.7,1.7 18.6,5.5 l 0,16.4 -1.1,0 c -3.8,-3.3 -9.3,-4.9 -14.8,-4.9 -9.8,0 -17.5,6.6 -17.5,17.5 0,11.5 7.7,18.1 17.5,18.1 5.5,0 11,-2.2 14.8,-4.9 l 1.1,0 0,16.4 c -4.9,3.8 -11.5,4.9 -18.6,4.9 -19.7,0 -34.5,-13.1 -34.5,-34.5 m -29.6,12.6 0,-6 c -2.8,-1.6 -6.6,-2.2 -11,-2.2 -6,0 -9.9,2.8 -9.9,7.7 0,5.5 3.9,8.2 9.4,8.2 5.4,0 9.8,-2.7 11.5,-7.7 m 0.5,14.3 c -4.4,4.9 -10.4,7.6 -17.5,7.6 -12.6,0 -23.6,-8.2 -23.6,-21.9 0,-13.1 11,-21.3 25.8,-21.3 4.9,0 9.8,0.5 14.8,2.2 l 0,-1.1 c 0,-7.2 -3.9,-10.4 -14.3,-10.4 -7.1,0 -13.1,1.6 -18.6,4.9 l -1.1,0 0,-15.9 c 5.5,-2.7 14.2,-5.5 23,-5.5 19.7,0 30.7,9.9 30.7,26.3 l 0,41.6 -19.2,0 0,-6.5 z m -79.4,-41.1 c 10.4,0 15.3,-5.5 15.3,-13.7 0,-8.8 -4.9,-14.8 -15.3,-14.8 l -12.6,0 0,28.5 12.6,0 z M 609,240.2 c 0,20.3 -13.2,31.2 -34,31.2 l -14.2,0 0,30.1 -20.3,0 0,-93.1 34.5,0 c 20.8,0 34,11 34,31.8 m -116.2,-4.9 14.8,0 0,15.8 -14.8,0 0,26.9 c 0,5.5 2.2,8.2 8.2,8.2 1.7,0 3.9,0 6.1,-0.5 l 0.5,0 0,15.3 c -2.7,0.5 -6.6,1.6 -12.1,1.6 -15.8,0 -21.9,-7.1 -21.9,-24.1 l 0,-27.4 -25.2,0 0,26.9 c 0,5.5 2.2,8.2 8.2,8.2 1.7,0 3.3,0 5.5,-0.5 l 0.6,0 0,15.3 c -2.2,0.5 -6.1,1.6 -12.1,1.6 -15.9,0 -21.9,-7.1 -21.9,-24.1 l 0,-27.4 -10.4,0 0,-15.8 10.4,0 0,-18.1 19.7,0 0,18.1 25.2,0 0,-18.1 19.2,0 0,18.1 z m -122.7,25.2 24.1,0 c -0.6,-6.6 -3.3,-11.5 -11,-11.5 -6,0 -11,2.7 -13.1,11.5 m 15.3,42.1 c -20.3,0 -34.5,-12.5 -34.5,-33.9 0,-20.8 13.7,-35.1 31.8,-35.1 19.7,0 29.5,13.2 29.5,32.9 l 0,7.7 -42.1,0 c 2.7,10.4 10.4,13.1 18.6,13.1 7.1,0 12,-1.6 18.1,-5.5 l 1.1,0 0,15.4 c -5.5,3.8 -13.2,5.4 -22.5,5.4 m -47.1,0 c -15.9,0 -22.5,-6 -22.5,-21.3 l 0,-72.9 19.2,0 0,71.8 c 0,4.4 2.2,6 6,6 1.1,0 3.3,-0.5 4.4,-0.5 l 0,0 0,15.8 c -1.6,0.6 -4.4,1.1 -7.1,1.1 m -81.1,-39.9 -10.4,38.8 -18.1,0 -20.3,-65.7 0,-0.5 19.7,0 11,38.9 10.4,-38.9 15.3,0 11,38.9 11,-38.9 18.6,0 0,0.5 -20.3,65.7 -17.5,0 -10.4,-38.8 z m -95.4,-2.2 24.1,0 C 185.4,253.9 182.6,249 175,249 c -6.1,0 -11,2.7 -13.2,11.5 m 15.4,42.1 c -20.3,0 -34.6,-12.5 -34.6,-33.9 0,-20.8 13.7,-35.1 31.8,-35.1 19.7,0 29.6,13.2 29.6,32.9 l 0,7.7 -42.2,0 c 2.8,10.4 10.4,13.1 18.6,13.1 7.2,0 12.1,-1.6 18.1,-5.5 l 1.1,0 0,15.4 c -5.5,3.8 -13.1,5.4 -22.4,5.4 m -102,-1.1 -20.2,0 0,-93.1 20.2,0 0,36.7 36.2,0 0,-36.7 20.3,0 0,93.1 -20.3,0 0,-38.8 -36.2,0 M 358,127.8 l -282.8,0 0,-52.6 282.8,0 0,52.6 z M 55,55 l 0,93.1 323.3,0 0,-93.1"></path> </svg>