 <svg 
   xmlns="http://www.w3.org/2000/svg"
   viewBox="0 0 739.34668 204.09332"
   height="204.09332"
   width="739.34668"
   > <path
     id="path9855"
     d="M 28.338996,41.138358 4.9099558,81.717055 28.328404,122.35507 51.76592,81.717055 28.338996,41.138358 Z m 0.01267,0 23.429039,40.580817 46.868669,-0.002 -23.439628,-40.5787 -46.858083,0 z m 396.359454,0 c -9.02613,0 -15.67437,0.117333 -21.49269,0.474547 l 0,80.159565 12.94222,0 0,-34.676415 0.5932,0 24.93956,34.676415 16.26834,0 -21.13676,-27.907655 c -2.01899,-2.6118 -4.51327,-5.70031 -6.77088,-8.55046 13.06409,-1.4237 22.6833,-9.61788 22.6833,-22.44392 0,-15.912224 -11.4015,-21.732077 -28.02629,-21.732077 z M 293.5157,41.257025 c -9.7377,0 -18.88127,0.235866 -25.17684,0.355906 l 0,80.159559 c 8.90753,0.11859 16.98114,0.35592 21.85072,0.35592 24.58213,0 31.47105,-14.13112 31.47105,-24.581525 0,-8.31312 -4.86853,-16.27089 -15.31924,-18.28944 l 0,-0.23728 c 8.19453,-2.85015 13.65617,-10.09337 13.65617,-18.28732 0,-12.350221 -9.02402,-19.47582 -26.48186,-19.47582 z m -150.16068,0.355906 0,80.159559 12.94221,0 0,-35.983555 37.88391,0 0,35.983555 12.82358,0 0,-80.159559 -12.82358,0 0,33.132004 -37.88391,0 0,-33.132004 -12.94221,0 z m 87.84777,0 0,80.159559 12.94647,0 0,-80.159559 -12.94647,0 z m 109.5714,0 0,80.159559 42.27777,0 0,-11.04399 -29.33132,0 0,-24.939565 27.90765,0 0,-10.56733 -27.90765,0 0,-22.80194 29.33132,0 0,-10.806734 -42.27777,0 z m 133.17838,0 0,80.159559 12.58841,0 0,-26.958535 c 0,-11.40061 -0.23813,-27.66887 -0.71394,-35.50689 2.49336,5.3438 5.3449,11.04476 8.9085,16.86365 l 27.4331,45.601775 16.7429,0 0,-80.159559 -12.58842,0 0,23.751064 c 0,11.75711 0.35821,28.97536 0.83258,38.119055 -2.96917,-5.819025 -6.17682,-12.230025 -9.73897,-18.168675 l -26.48187,-43.701444 -16.98229,0 z m 107.09692,0 -28.736,80.159559 13.06085,0 6.17558,-17.69624 32.41803,0 6.17558,17.69624 14.37013,0 -29.09405,-80.159559 -14.37012,0 z m 40.71853,0 0,10.925366 21.96936,0 0,69.234193 12.94433,0 0,-69.234193 22.088,0 0,-10.925366 -57.00169,0 z m 70.39304,0 0,80.159559 42.27566,0 0,-11.04399 -29.33131,0 0,-24.939565 27.90553,0 0,-10.56733 -27.90553,0 0,-22.80194 29.33131,0 0,-10.806734 -42.27566,0 z M 291.3802,51.587065 c 11.398,0 15.07983,4.63344 15.07983,11.16476 0,8.07535 -6.29412,12.94434 -18.28944,12.94434 -2.73199,0 -4.74771,-5e-5 -6.88529,-0.11864 l 0,-23.75106 c 3.08633,-0.118 6.5313,-0.2394 10.0949,-0.2394 z m 131.54923,0.1208 c 10.80648,0 16.27045,3.79852 16.27045,12.5863 0,7.95677 -6.29431,13.30026 -16.74501,13.30026 -2.84915,0 -5.10683,-0.11853 -6.29422,-0.23728 l 0,-25.41412 c 1.89895,-0.118534 4.2754,-0.23516 6.76878,-0.23516 z m 164.65155,4.51251 0.23728,0 c 0.95163,4.39418 2.01879,8.19276 3.5634,12.34903 l 9.14365,25.17684 -25.65139,0 9.02502,-24.82093 c 1.54462,-4.27486 2.85043,-8.66784 3.68204,-12.70494 z M 98.634594,81.736115 75.197079,122.37625 98.624004,162.95496 122.05304,122.37625 98.634594,81.736115 Z m 189.891956,3.57824 c 11.28231,0 19.47583,3.32607 19.47583,12.46979 0,8.075925 -5.58154,13.774795 -17.33822,13.774795 -4.15656,0 -7.35982,-0.23727 -9.37882,-0.59319 l 0,-25.532755 c 1.7818,-0.11975 5.93524,-0.11864 7.24121,-0.11864 z m -213.344301,37.057655 -46.868674,0.004 23.439634,40.57658 46.858085,0 -23.429045,-40.58082 z" /> </svg>