<?xml version="1.0"?>

<!-- Generator: Adobe Illustrator 19.1.0, SVG Export Plug-In . SVG Version: 6.00 Build 0)  -->
<svg version="1.1" id="Layer_1" xmlns="http://www.w3.org/2000/svg" xmlns:xlink="http://www.w3.org/1999/xlink" x="0px" y="0px" width="600px" height="200px" viewBox="0 0 600 200" enable-background="new 0 0 600 200" xml:space="preserve">
<path d="M17.395,183.681c0.078-0.54,0.276-1.013,0.731-1.345c31.816,0.525,63.633,0.08,95.45,0.233
	c1.922,0.009,3.841-0.021,5.747-0.292c0.749,0.347,0.463,0.881,0.258,1.403C85.522,183.681,51.457,183.681,17.395,183.681z"></path>
<path d="M211.218,181.851c0.381,0.611,0.761,1.219,1.148,1.83c-23.946,0-47.892,0-71.831,0c-0.153-0.104-0.202-0.196-0.147-0.289
	c0.055-0.092,0.111-0.135,0.166-0.135c0.276-0.718,0.553-1.437,0.829-2.155c1.676,1.658,3.801,1.48,5.913,1.48
	c19.783-0.018,39.572-0.006,59.355-0.012C208.21,182.569,209.788,182.686,211.218,181.851z"></path>
<path d="M211.218,181.851c-0.295,1.603-1.529,1.394-2.665,1.394c-15.491,0-30.976,0-46.467,0c-5.753,0-11.512-0.049-17.266,0.03
	c-1.732,0.025-3.174-0.043-3.439-2.174c0.283-1.955,0.627-3.905,0.841-5.87c1.228-11.34-3.199-20.827-9.738-29.628
	c-4.936-6.646-11.525-11.565-17.634-16.992c-5.167-4.593-10.162-9.357-13.434-15.583c-4.23-8.034-4.157-15.89,0.988-23.58
	c4.295-6.422,9.615-11.939,14.994-17.422c0.276-0.083,0.587-0.191,0.725-0.424c1.412-2.45,3.721-2.345,6.115-2.315
	c6.312,0.074,12.636,0.074,18.948-0.012c1.547-0.022,2.769,0.356,3.782,1.48c4.347,7.417,8.731,14.813,13.029,22.251
	c16.314,28.207,32.603,56.42,48.892,84.636c0.215,0.365,0.368,0.765,0.552,1.145c0.43,1.111,0.639,2.351,1.768,3.058
	L211.218,181.851z"></path>
<path d="M120.01,182.385c-0.092,0.006-0.178,0.031-0.261,0.074c-0.807,0.638-1.716,0.804-2.754,0.804
	c-32.063-0.021-64.128-0.018-96.194,0c-1.041,0-1.96-0.108-2.677-0.927c4.884-8.516,9.748-17.038,14.654-25.536
	c16.576-28.723,33.172-57.433,49.735-86.165c0.706-1.231,1.48-1.815,2.993-1.778c4.338,0.117,8.679,0.043,13.047,0.043
	c0.064,0.946-0.715,1.071-1.157,1.418c-5.772,4.51-10.978,9.572-14.586,16.007c-6.693,11.933-5.719,24.105-0.298,36.103
	c4.052,8.986,11.033,15.617,18.721,21.557c5.366,4.144,10.352,8.688,14.686,13.944C122.03,165.328,124.492,173.255,120.01,182.385z"></path>
<path d="M114.803,14.842c7.012,12.123,13.821,23.9,20.759,35.9c-13.919,0-27.531,0-41.5,0
	C100.982,38.766,107.788,26.987,114.803,14.842z"></path>
<path d="M146.97,70.755c-3.371-2.094-7.11-1.078-10.696-1.197c-4.402-0.141-8.811,0.012-13.219-0.055
	c-1.658-0.03-3.061,0.126-4.009,1.75c-0.243,0.421-0.749,1.286-1.646,0.774c1.308-2.511,3.282-3.288,6.158-3.187
	c6.864,0.236,13.741,0.11,20.612,0.037C145.668,68.858,146.62,69.251,146.97,70.755z"></path>
<path d="M211.212,181.845c-1.701-0.375-1.731-1.716-1.768-3.058C210.23,179.693,210.789,180.727,211.212,181.845z"></path>
<path d="M291.271,99.191c-1.283-1.403-4.292-0.258-6.539-0.473c-1.597-0.153-2.64,0.123-2.186,2.493
	c-2.929-3.007-5.342-3.815-8.252-3.01c-2.616,0.725-4.206,2.604-4.556,5.133c-0.792,5.649-0.89,11.371-0.012,17.008
	c0.725,4.672,4.869,6.778,9.357,5.148c1.013-0.368,1.94-0.979,2.996-1.52c0,1.67,0.025,3.162-0.012,4.648
	c-0.019,0.829-0.534,1.295-1.332,1.412c-0.804,0.123-1.596-0.196-1.639-0.97c-0.123-2.124-1.504-1.943-2.947-1.866
	c-1.062,0.055-2.137-0.055-3.199,0.031c-1.074,0.092-2.683-0.605-3.113,0.405c-0.547,1.265,0.209,2.775,1.025,3.979
	c1.093,1.621,2.745,2.425,4.587,2.88c1.885,0.467,3.801,0.516,5.722,0.405c7.147-0.405,10.413-3.81,10.456-10.966
	c0.037-6.121,0.019-12.243,0-18.358C291.621,103.375,292.382,100.413,291.271,99.191z M282.128,117.498
	c-0.018,1.124-0.521,1.971-1.737,1.996c-1.209,0.024-1.805-0.768-1.817-1.91c-0.031-3.61-0.037-7.221-0.019-10.831
	c0.006-1.126,0.553-1.97,1.756-1.989c1.339-0.025,1.818,0.884,1.824,2.112c0,1.769,0,3.54-0.001,5.311
	C282.134,113.955,282.159,115.73,282.128,117.498z"></path>
<path d="M267.092,128.391c0.025,1.4-0.214,2.045-1.817,1.925c-2.051-0.157-4.12-0.08-6.183-0.025
	c-1.001,0.027-1.529-0.117-1.523-1.348c0.043-9.603,0.037-19.202-0.012-28.802c0-1.166,0.436-1.445,1.504-1.415
	c2.131,0.065,4.268,0.095,6.398-0.009c1.369-0.068,1.645,0.466,1.627,1.728c-0.068,4.694-0.031,9.385-0.031,14.082
	c0.006,0,0.006,0,0.012,0C267.067,119.147,267.012,123.771,267.092,128.391z M267.08,93.233c0.153-1.179-0.399-1.467-1.473-1.437
	c-1.922,0.062-3.856,0.157-5.765-0.025c-1.922-0.184-2.296,0.491-2.358,2.345c-0.074,2.223,0.614,2.953,2.732,2.622
	c0.694-0.104,1.418-0.015,2.131-0.012c0.999,0.001,2.006-0.091,2.989,0.022c1.467,0.172,1.928-0.439,1.744-1.808
	C267.006,94.381,267.006,93.795,267.08,93.233z"></path>
<path d="M255.23,128.568c0.018,1.446-0.448,1.811-1.799,1.741c-1.989-0.098-3.991-0.129-5.98,0.003
	c-1.554,0.101-2.124-0.307-2.069-1.974c0.123-4.055-0.068-8.123,0.092-12.178c0.068-1.737-0.602-1.873-2.051-1.949
	c-1.75-0.089-1.732,0.765-1.719,2.036c0.055,4.132-0.037,8.264,0.049,12.396c0.025,1.345-0.399,1.722-1.701,1.664
	c-2.204-0.098-4.415-0.074-6.619-0.006c-1.062,0.034-1.498-0.196-1.492-1.382c0.043-11.899,0.037-23.792,0.006-35.691
	c-0.006-1.127,0.35-1.474,1.467-1.431c2.131,0.086,4.28,0.114,6.41,0c1.467-0.08,1.983,0.344,1.934,1.876
	c-0.11,3.488,0.08,6.984-0.08,10.469c-0.08,1.774,0.804,1.664,2.045,1.734c1.461,0.08,1.756-0.445,1.719-1.814
	c-0.104-3.558,0.006-7.125-0.055-10.684c-0.018-1.206,0.368-1.63,1.59-1.581c2.204,0.086,4.421,0.123,6.625-0.003
	c1.424-0.083,1.621,0.513,1.615,1.728c-0.055,5.839-0.024,11.684-0.024,17.523S255.138,122.726,255.23,128.568z"></path>
<path d="M303.103,98.216c0.006-0.157,0.491-0.556,0.227-0.439c-0.043,0.018-0.08-0.037-0.074-0.166
	c0.058-0.653-0.003-1.314-0.047-1.974C303.216,96.402,303.219,97.224,303.103,98.216z"></path>
<path d="M303.238,128.162c-0.024-0.408-0.019-0.818-0.024-1.228c-0.035,0.693-0.077,1.388-0.005,2.077
	C303.251,128.771,303.256,128.488,303.238,128.162z"></path>
<path d="M303.209,95.637c-0.005-0.492-0.011-0.965,0.011-1.43c0.003-0.064-0.003-0.118-0.003-0.179
	C303.154,94.56,303.173,95.098,303.209,95.637z"></path>
<path d="M316.05,128.337c0.05,1.667-0.478,2.076-2.038,1.968c-1.915-0.132-3.849-0.12-5.765,0c-1.406,0.086-1.811-0.35-1.793-1.765
	c0.074-6.557,0.031-13.115,0.031-19.666c0-0.645,0.025-1.283-0.006-1.928c-0.056-1.05,0.092-2.413-1.406-2.422
	c-1.578-0.006-1.314,1.433-1.32,2.434c-0.031,7.055-0.006,14.11-0.037,21.165c-0.006,0.656,0.367,1.411-0.268,2
	c0-7.648,0-15.297,0-22.945c-0.147,0-0.295,0-0.442,0c0,0.694,0,1.384,0,2.081c0,6.051-0.092,12.108,0.055,18.156
	c0.055,2.094-0.706,2.655-2.56,2.395c-1.05-0.147-2.18-0.583-3.131-0.344c-2.278,0.571-2.505-0.528-2.499-2.339
	c0.043-9.4,0.025-18.801,0.018-28.201c-0.006-6.358-0.012-6.281,6.386-6.214c1.449,0.012,1.744,0.516,1.737,1.695
	c-0.012,1.67-0.006,3.346-0.006,5.016c0.202,0,0.411,0,0.614,0c0-2.235,0-4.464,0-6.699c0.036,1.257,0.09,2.518,0.108,3.778
	c0.018,1.277,0.006,2.554,0.006,3.874c0.779,0.123,0.92-0.578,1.326-0.857c2.186-1.52,4.531-2.06,7.067-1.096
	c2.518,0.961,3.518,3.12,3.672,5.554c0.227,3.622,0.159,7.263,0.184,10.895C316.013,119.361,315.915,123.855,316.05,128.337z"></path>
<path d="M303.213,107.795c0,5.293,0,10.586,0,15.878c0,1.089-0.015,2.176,0,3.261c0.017-0.345,0.032-0.69,0.029-1.033
	C303.207,119.866,303.225,113.83,303.213,107.795z"></path>
<path d="M303.209,129.012c-0.126,0.726-0.581,1.066-1.715,1.047c-1.768-0.03-3.524-0.337-5.317-0.153
	c-1.332,0.142-1.516-0.899-1.51-2.026c0.024-5.842,0.012-11.684,0.012-17.526c0-5.203-0.012-10.403,0-15.604
	c0.006-2.308,0.245-2.532,2.603-2.566c1.357-0.015,2.708,0.037,4.059,0.04c1.321,0.003,1.873,0.608,1.876,1.804
	c0.055-0.46,0.168-0.916,0.401-1.363c0.001,0.02,0.001,0.039,0.002,0.059c0-0.018,0-0.036,0-0.055
	c0.256-1.216-0.696-0.817-1.199-0.826c-2.13-0.046-4.267,0.083-6.385-0.052c-1.467-0.092-1.775,0.433-1.762,1.796
	c0.061,6.533,0.025,13.069,0.025,19.602c0,5.182-0.006,10.367,0,15.553c0,0.743-0.227,1.602,1.081,1.553
	c2.683-0.11,5.372-0.117,8.068-0.166c0-0.002,0-0.004,0-0.006c-0.001,0.001-0.001,0.002-0.002,0.002
	C303.319,129.757,303.248,129.385,303.209,129.012z"></path>
<path d="M405.421,123.08c0.001,1.334,0.001,2.669,0.003,4.002C405.465,125.749,405.446,124.415,405.421,123.08z"></path>
<path d="M405.421,123.08c-0.003-2.893-0.007-5.786-0.007-8.68c-0.003,1.719-0.005,3.437-0.025,5.154
	C405.373,120.73,405.398,121.905,405.421,123.08z"></path>
<path d="M405.389,105.734c-0.001-0.087-0.001-0.174-0.001-0.261c-0.006-0.285-0.037,0.113-0.068-0.169
	c-0.017-0.11-0.06-0.136-0.115-0.122c0.002,0.003,0.003,0.003,0.005,0.005C405.307,105.363,405.357,105.547,405.389,105.734z"></path>
<path d="M405.409,109.825c0.002,1.526,0.004,3.05,0.004,4.576C405.416,112.875,405.416,111.35,405.409,109.825z"></path>
<path d="M394.003,99.226c-0.068,2.916-0.08,5.833-0.037,8.749c0.018,0.974-0.191,1.327-1.265,1.388
	c-3.328,0.191-4.298,1.317-4.304,4.722c-0.012,4.838-0.043,9.68,0.019,14.515c0.019,1.262-0.258,1.787-1.633,1.713
	c-2.125-0.116-4.268-0.074-6.398-0.012c-1.038,0.024-1.572-0.185-1.566-1.382c0.031-9.603,0.031-19.209-0.012-28.815
	c-0.006-1.213,0.528-1.412,1.547-1.382c1.781,0.052,3.568,0.117,5.336-0.012c1.744-0.122,2.788,0.228,2.364,2.269
	c-0.055,0.239,0.037,0.509,0.116,1.4c1.191-2.333,2.603-3.466,4.402-4.129C393.481,97.918,394.034,98.016,394.003,99.226z"></path>
<path d="M344.296,91.836c-3.77-0.07-7.546,0.046-11.316-0.046c-1.369-0.037-1.652,0.43-1.633,1.707
	c0.061,5.833,0.025,11.672,0.025,17.511c0.005,0,0.005,0,0.011,0c0,5.907,0.031,11.819-0.024,17.726
	c-0.012,1.176,0.252,1.639,1.529,1.569c2.13-0.113,4.273-0.101,6.404-0.003c1.241,0.061,1.572-0.368,1.541-1.56
	c-0.074-3.131-0.031-6.263-0.031-9.397c0.006-4.544,0.006-4.544,4.599-4.719c4.869-0.184,7.429-2.668,7.681-7.567
	c0.104-2.06,0.086-4.129,0.068-6.192C353.095,94.826,350.301,91.95,344.296,91.836z M344.859,105.882
	c-0.11,1.826-1.768,2.861-3.475,2.253c-0.767-0.276-0.589-0.86-0.589-1.394c-0.013-2.127-0.055-4.255,0.012-6.373
	c0.025-0.844-0.595-2.18,1.173-2.1c1.425,0.062,2.77,0.258,2.874,2.088c0.055,0.988,0.006,1.983,0.011,2.978
	C344.865,104.181,344.908,105.035,344.859,105.882z"></path>
<path d="M366.074,114.993c2.984,0.098,5.98-0.012,8.97,0.058c1.124,0.025,1.688-0.151,1.615-1.471
	c-0.11-2.13,0.031-4.273-0.049-6.41c-0.153-4.107-2.628-7.31-6.521-8.59c-2.364-0.774-4.771-0.774-7.172-0.298
	c-4.936,0.973-7.687,4.178-7.871,9.201c-0.086,2.345-0.018,4.697-0.018,7.048c0,0.002-0.006,0.002-0.012,0.002
	c0,2.063-0.012,4.132,0.006,6.195c0.049,5.848,2.788,9.241,8.535,10.162c6.963,1.108,13.532-1.744,13.072-10.776
	c-0.025-0.497-0.043-1.001,0.006-1.492c0.086-0.946-0.307-1.222-1.234-1.194c-2.204,0.058-4.415,0.071-6.619-0.009
	c-1.105-0.043-1.314,0.43-1.277,1.384c0.055,1.495,0.037,2.99,0,4.485c-0.018,1.007-0.344,1.879-1.541,1.916
	c-1.283,0.037-1.467-0.872-1.474-1.882c-0.012-2.207,0.043-4.417-0.074-6.622C364.355,115.398,364.723,114.95,366.074,114.993z
	 M364.447,107.77c0.006-0.212,0-0.427,0-0.639c0.012,0,0.03,0,0.043,0c0-0.494-0.006-0.992,0-1.489
	c0.007-1.019,0.259-1.922,1.505-1.848c1.141,0.074,1.51,0.912,1.522,1.947c0.006,0.638,0.043,1.28,0,1.915
	c-0.061,1.007,0.51,2.232-1.492,2.241C364.14,109.91,364.41,108.887,364.447,107.77z"></path>
<path d="M405.191,105.168c0,0.007,0,0.013,0,0.02c0.005-0.002,0.009-0.005,0.014-0.006
	C405.2,105.175,405.196,105.173,405.191,105.168z"></path>
<path d="M405.425,128.034c-0.001-0.317,0-0.634-0.001-0.951c-0.032,1.034-0.097,2.067-0.233,3.099h0c0,0,0,0.001,0,0.001
	c0.153-0.024,0.307-0.049,0.454-0.067c0-0.001,0-0.002,0-0.003C405.216,129.461,405.431,128.727,405.425,128.034z"></path>
<path d="M405.407,107.121c0-0.458,0.06-0.934-0.018-1.387c0.011,1.363,0.014,2.727,0.02,4.09
	C405.408,108.923,405.409,108.023,405.407,107.121z"></path>
<path d="M558.313,118.565c-0.037,1.861-0.129,3.697-0.614,5.499c-1.449,5.446-6.085,7.969-12.636,6.901
	c-5.796-0.946-8.706-4.326-8.743-10.22c-0.031-4.273-0.043-8.546,0.006-12.814c0.073-5.526,3.039-8.906,8.479-9.762
	c1.418-0.221,2.837-0.252,4.261-0.111c7.312,0.712,9.295,5.925,8.872,11.887c-0.055,0.731-0.454,0.774-0.982,0.774
	c-0.853,0-1.707,0.012-2.566,0.003c-1.774-0.021-3.997,0.574-5.188-0.273c-1.166-0.823-0.282-3.184-0.368-4.869
	c-0.061-1.087-0.399-1.817-1.596-1.799c-1.252,0.025-1.467,0.903-1.467,1.916c0,2.923,0,5.839,0,8.756c0.006,0,0.006,0,0.011,0
	c0,2.922-0.006,5.839,0,8.755c0.006,1.099,0.283,2.001,1.652,1.989c1.35-0.012,1.645-0.958,1.688-2.014
	c0.061-1.563,0.073-3.131,0.012-4.697c-0.037-0.921,0.239-1.238,1.191-1.21c2.204,0.064,4.415,0.064,6.619,0
	C557.939,117.245,558.331,117.506,558.313,118.565z"></path>
<path d="M533.693,128.774c0.098,1.317-0.424,1.563-1.578,1.526c-2.063-0.074-4.138-0.108-6.195,0.009
	c-1.412,0.08-1.817-0.378-1.799-1.787c0.067-6.911,0.055-13.824,0.006-20.735c-0.006-1.243,0.54-3.238-1.394-3.226
	c-2.001,0.013-1.283,2.045-1.295,3.242c-0.068,6.84-0.098,13.68,0,20.52c0.025,1.652-0.46,2.09-2.038,1.986
	c-2.057-0.132-4.132-0.077-6.195-0.009c-1.043,0.033-1.326-0.344-1.326-1.351c0.037-9.622,0.049-19.24,0-28.858
	c-0.006-1.231,0.504-1.4,1.529-1.372c2.063,0.059,4.132,0.013,6.201,0.025c1.584,0.009,1.584,0.021,1.952,2.004
	c1.068-1.071,1.989-1.928,3.229-2.37c4.409-1.578,8.406,0.792,8.645,5.612c0.326,6.539,0.197,13.103,0.252,19.657
	C533.699,125.357,533.564,127.076,533.693,128.774z"></path>
<path d="M509.333,116.345c-0.101-2.837,0.243-7.037-0.174-11.231c-0.246-2.395-1.136-4.565-3.346-5.624
	c-4.593-2.195-9.443-2.345-13.993-0.123c-3.985,1.947-3.776,5.98-3.77,9.723c0,0.144,0.019,0.289-0.006,0.427
	c-0.153,1.081,0.227,1.514,1.388,1.461c1.989-0.092,3.991-0.095,5.98,0.006c1.185,0.062,1.443-0.399,1.4-1.467
	c-0.061-1.704-0.037-3.414,0.037-5.121c0.037-0.835,0.442-1.562,1.43-1.535c0.927,0.027,1.418,0.657,1.474,1.529
	c0.068,1.133-0.074,2.287,0.068,3.408c0.252,2.063-0.768,3.199-2.524,3.923c-2.1,0.866-4.212,1.713-6.275,2.653
	c-1.989,0.909-3.052,2.438-2.965,4.718c0.074,1.989-0.049,3.988,0.037,5.977c0.191,4.366,3.457,6.834,7.749,5.882
	c1.185-0.264,2.284-0.761,3.279-1.486c0.276-0.202,0.829-0.816,0.939-0.147c0.264,1.578,1.394,0.884,2.143,0.927
	c1.701,0.104,3.42-0.061,5.121,0.068c1.523,0.117,2.118-0.24,2.051-1.934C509.235,124.824,509.333,121.263,509.333,116.345z
	 M499.808,123.294c-0.007,0.97-0.412,1.658-1.431,1.781c-0.89,0.111-1.252-0.543-1.486-1.237c-0.989-2.935,0.129-6.395,2.917-8.446
	C499.808,118.228,499.808,120.761,499.808,123.294z"></path>
<path d="M580.044,117.418c-1.983,0.104-3.985,0.098-5.974,0.003c-1.271-0.061-1.817,0.255-1.701,1.636
	c0.123,1.486,0.068,2.99,0.006,4.482c-0.037,0.933-0.436,1.664-1.535,1.67c-1.148,0.009-1.425-0.752-1.443-1.698
	c-0.019-1.21-0.006-2.422-0.006-3.632c-0.006-4.86,0-4.808,4.857-4.878c2.388-0.034,5.747,1.09,6.901-0.433
	c1.209-1.597,0.442-4.777,0.362-7.257c-0.153-4.559-2.984-7.997-7.405-9.001c-2.382-0.54-4.808-0.51-7.184,0.178
	c-4.445,1.29-6.889,4.427-6.993,9.057c-0.049,2.351-0.006,4.7-0.006,7.049c0,0,0.007,0,0.013,0c0,2.419-0.068,4.844,0.012,7.263
	c0.147,4.218,2.481,7.27,6.484,8.565c2.849,0.921,5.765,0.989,8.62,0.135c3.696-1.105,5.839-3.665,6.318-7.509
	c0.166-1.335,0.055-2.704,0.184-4.046C581.664,117.811,581.314,117.353,580.044,117.418z M569.398,105.416
	c0-0.884,0.307-1.55,1.277-1.621c1.038-0.074,1.572,0.534,1.67,1.507c0.067,0.629,0.012,1.267,0.012,1.903
	c0.012,0,0.024,0,0.038,0.001c0,0.635,0.056,1.277-0.012,1.906c-0.123,1.149-1.056,0.639-1.658,0.694
	c-0.565,0.049-1.351,0.283-1.333-0.786C569.416,107.816,569.404,106.619,569.398,105.416z"></path>
<path d="M424.14,98.187c-2.124-0.374-4.268-0.331-6.367,0.141c-4.722,1.062-7.38,4.206-7.565,9.032
	c-0.092,2.345-0.018,4.7-0.018,7.049c0.011,0.001,0.03,0.001,0.042,0.001c0,2.637-0.135,5.28,0.031,7.902
	c0.264,4.19,2.831,7.178,6.858,8.273c2.161,0.586,4.366,0.685,6.564,0.365c5.25-0.749,8.295-3.622,8.664-8.94
	c0.344-5.029,0.319-10.118,0.025-15.153C432.079,101.957,429.083,99.065,424.14,98.187z M422.954,122.675
	c-0.006,1.096-0.546,2.026-1.799,1.925c-1.099-0.089-1.474-0.974-1.48-1.999c-0.006-2.849,0-5.698,0-8.547
	c0-2.702,0.012-5.409-0.006-8.114c-0.006-1.127,0.35-2.079,1.566-2.14c1.241-0.061,1.744,0.921,1.744,2.002
	C423.009,111.427,423.003,117.051,422.954,122.675z"></path>
<path d="M408.452,99.16c0.448,1.268,0.191,2.797,0.172,4.215c-0.006,0.59-0.559,0.627-0.958,0.553
	c-1.744-0.326-1.731,0.706-1.725,1.98c0.043,7.543,0.024,15.089,0.012,22.632c-0.006,0.531,0.27,1.142-0.307,1.575
	c0-0.001-0.001-0.001-0.001-0.002c0-8.362,0-16.723,0-25.085c-0.147,0-0.301,0-0.454,0c0,0.047,0,0.093,0,0.14
	c-0.167-0.196-0.268,0.233-0.067,0.047c0.028-0.026,0.045-0.019,0.067-0.028c0,8.333,0,16.661,0,24.995
	c-2.345,0.031-4.697-0.025-7.036,0.132c-1.443,0.095-1.774-0.383-1.762-1.771c0.062-7.54,0.018-15.086,0.031-22.632
	c0-0.995,0.264-2.094-1.369-1.971c-0.583,0.043-0.62-0.467-0.62-0.909c0-1.139,0-2.278,0.012-3.417
	c0.006-0.205,0.074-0.583,0.129-0.586c2.781-0.113,1.75-2.56,2.37-3.948c0.694-1.572,1.774-2.52,3.426-2.873
	c2.321-0.497,4.673-0.359,7.018-0.399c0.848-0.012,1.137,0.375,1.118,1.161c-0.025,0.782-0.049,1.572,0.006,2.348
	c0.073,0.973-0.234,1.476-1.302,1.418c-0.558-0.027-1.135,0.071-1.682,0.2c-0.669,0.166-1.252,0.605-1.191,1.308
	c0.08,0.871,0.89,0.392,1.375,0.5C406.647,98.948,408.114,98.205,408.452,99.16z"></path>
<path d="M464.418,127.561c0.006-6.533,0.012-13.066-0.012-19.599c-0.006-0.526,0.184-1.098-0.016-1.617
	c-0.063-0.108-0.138-0.23-0.237-0.39c-0.012,7.62-0.031,15.233-0.019,22.853c0,0.595-0.387,1.59,0.921,1.369
	c0-0.001,0-0.001-0.001-0.002C464.387,129.414,464.411,128.494,464.418,127.561z"></path>
<path d="M485.501,108.951c0-1.925-0.006-3.847-0.362-5.744c-0.927-4.915-5.919-6.892-9.971-3.945
	c-0.829,0.602-1.571,1.327-2.419,2.048c-1.4-2.014-3.07-3.3-5.52-3.331c-2.327-0.031-4.145,1.044-6.048,2.898
	c0.417-1.921-0.295-2.241-1.646-2.17c-2.125,0.11-4.267,0.07-6.404,0.015c-1.031-0.025-1.338,0.362-1.332,1.375
	c0.031,9.612,0.043,19.224-0.006,28.836c-0.006,1.243,0.534,1.391,1.535,1.366c1.781-0.049,3.574-0.16,5.336,0.015
	c2.044,0.203,2.756-0.303,2.695-2.563c-0.178-6.972-0.067-13.953-0.061-20.931c0-0.921-0.11-1.983,1.044-2.302
	c1.135-0.313,1.338,0.786,1.811,1.437c0.115,0.125,0.186,0.256,0.237,0.39c0.234,0.403,0.242,0.545,0.242,1.2
	c0,5.765-0.013,11.531,0.006,17.296c0,1.786-0.197,3.591,0.416,5.334c0.001,0.001,0.001,0.001,0.002,0.002
	c2.063,0.034,4.126-0.019,6.183,0.132c1.541,0.114,2.051-0.285,2.026-1.949c-0.111-6.904-0.074-13.812-0.025-20.719
	c0.012-1.151-0.614-3.073,1.246-3.073c1.909-0.006,1.455,1.952,1.467,3.205c0.043,6.907,0.049,13.815-0.012,20.722
	c-0.012,1.317,0.24,1.925,1.732,1.82c1.983-0.135,3.991-0.132,5.974-0.009c1.523,0.098,1.903-0.427,1.885-1.916
	C485.446,121.912,485.482,115.428,485.501,108.951z"></path>
<path d="M450.165,99.158c-0.061,2.984-0.049,5.974-0.006,8.964c0.012,0.903-0.245,1.173-1.191,1.228
	c-3.309,0.209-4.408,1.376-4.439,4.67c-0.036,4.835-0.067,9.677,0.025,14.515c0.024,1.427-0.399,1.845-1.793,1.771
	c-2.057-0.11-4.126-0.068-6.189-0.006c-1.019,0.031-1.516-0.147-1.51-1.357c0.049-9.609,0.049-19.212,0.006-28.821
	c-0.006-1.194,0.454-1.431,1.498-1.394c1.848,0.059,3.708,0.111,5.55-0.021c1.621-0.117,2.426,0.316,2.094,2.069
	c-0.061,0.317-0.006,0.654-0.007,0.98c1.388-1.64,2.763-2.914,4.679-3.531C449.753,97.945,450.183,98.09,450.165,99.158z"></path>
<path d="M375.761,152.25c0.001-3.272-0.091-6.551,0.032-9.817c0.074-1.842-1.087-1.378-2.082-1.449
	c-1.093-0.074-1.854-0.061-1.836,1.486c0.086,6.545,0.092,13.096,0.006,19.641c-0.025,1.811,1.093,1.406,2.112,1.48
	c1.124,0.08,1.86-0.012,1.805-1.52C375.687,158.802,375.767,155.523,375.761,152.25z"></path>
<path d="M395.631,140.953c-1.203-0.003-1.934,0.04-1.94,1.624c-0.006,1.679,0.749,1.894,2.192,1.624
	c1.228,0.381,1.744-0.031,1.805-1.535C397.756,140.931,396.878,140.959,395.631,140.953z"></path>
<path d="M388.46,161.044c-1.774,0.23-2.364-0.835-2.345-2.465c0.037-2.557,0.08-5.121-0.019-7.675
	c-0.049-1.29,0.466-1.633,1.609-1.517c0.424,0.046,0.854-0.012,1.277,0.009c0.792,0.04,1.173-0.267,1.179-1.102
	c0.006-0.878-0.461-1.013-1.203-1.081c-2.831-0.252-2.825-0.276-2.837-3.223c0-0.7,0-1.4,0-2.247
	c-2.586,0.582-4.458,1.328-3.881,4.232c0.264,1.308-0.718,1.308-1.615,1.252c-0.768-0.043-1.179,0.181-1.167,1.062
	c0.012,0.823,0.301,1.228,1.124,1.105c1.51-0.218,1.713,0.589,1.701,1.857c-0.025,2.981,0.117,5.965,0.117,8.949
	c0,2.266,1.382,3.137,3.322,3.42c0.902,0.135,1.866,0.19,2.757,0.034c0.663-0.117,1.891,0.636,1.928-0.866
	C390.438,161.496,389.916,160.857,388.46,161.044z"></path>
<path d="M397.62,155.234l-0.005,0c0-2.272-0.049-4.54,0.018-6.809c0.037-1.148-0.559-1.382-1.437-1.167
	c-0.854,0.212-2.389-0.841-2.407,1.062c-0.049,4.679-0.012,9.357-0.012,14.036c0,1.885,1.437,1.056,2.327,1.216
	c0.988,0.172,1.584-0.098,1.541-1.32C397.565,159.913,397.62,157.573,397.62,155.234z"></path>
<path d="M364.085,147.239c-0.939,0-2.051-0.362-1.958,1.351c0.117,2.201,0.043,4.415,0.031,6.619
	c-0.019,4.645-2.168,6.607-6.791,6.214c-2.493-0.212-3.66-1.277-3.758-3.745c-0.123-3.058-0.16-6.128-0.074-9.185
	c0.037-1.357-0.676-1.394-1.566-1.234c-0.872,0.157-2.351-0.761-2.333,1.179c0.031,3.414,0.043,6.834,0.123,10.248
	c0.055,2.358,1.375,3.816,3.549,4.525c3.893,1.265,7.571,0.924,11.445-1.974c-0.713,2.501,0.601,2.311,1.921,2.372
	c1.707,0.08,1.333-1.075,1.333-1.996c0.025-4.347-0.043-8.694,0.049-13.035C366.093,146.884,365.018,147.239,364.085,147.239z"></path>
<path d="M272.237,156.389c-1.142-0.338-2.855-1.811-3.886,0.264c-1.498,3.015-4.095,4.316-7.196,4.605
	c-3.899,0.356-7.657-0.227-10.088-3.73c-2.726-3.92-1.676-9.95,1.897-12.492c3.647-2.594,12.163-2.763,14.552,1.522
	c0.651,1.167,3.825,1.633,4.384,0.627c0.62-1.114-0.571-1.916-1.203-2.653c-1.424-1.658-3.309-2.671-5.415-3.229
	c-4.249-1.13-8.455-0.909-12.581,0.599c-5.053,1.845-7.656,5.747-7.386,10.966c0.258,4.958,3.586,9.023,8.467,10.312
	c1.934,0.512,3.911,0.675,5.913,0.761c4.855-0.135,9.38-1.05,12.223-5.56C272.268,157.825,273.441,156.745,272.237,156.389z"></path>
<path d="M341.078,155.452c-0.81-0.414-1.725-0.672-2.622-0.875c-2.56-0.589-5.145-1.093-7.712-1.676
	c-0.915-0.206-1.909-0.565-1.897-1.692c0.012-1.102,0.982-1.569,1.903-1.716c2.806-0.457,5.588-1.025,7.792,1.753
	c0.854,1.071,2.591,0.684,3.475-0.003c0.657-0.51-0.301-1.621-0.903-2.302c-0.227-0.264-0.528-0.494-0.847-0.632
	c-4.31-1.928-8.67-2.112-12.98-0.108c-1.394,0.648-2.333,1.864-2.192,3.601c0.141,1.713,1.216,2.689,2.683,3.273
	c0.982,0.39,2.032,0.642,3.07,0.872c2.223,0.491,4.457,0.909,6.68,1.4c0.792,0.175,1.492,0.608,1.67,1.467
	c0.172,0.795-0.374,1.341-0.927,1.799c-1.848,1.523-7.706,1.418-8.958-0.559c-1.332-2.106-2.88-1.747-4.801-1.415
	c0.228,1.382,0.848,2.3,1.707,3.085c3.285,2.984,12.409,2.922,15.645-0.114C344.007,159.599,343.675,156.793,341.078,155.452z"></path>
<path d="M320.084,152.165c-0.043-2.321-1.234-3.862-3.457-4.586c-3.93-1.277-7.675-1.007-11.457,1.649
	c0.487-2.571-1.134-1.963-2.319-1.982c-1.799-0.034-1.087,1.369-1.099,2.174c-0.074,4.058,0.037,8.123-0.074,12.175
	c-0.049,1.615,0.461,2.014,2.038,2.057c1.75,0.052,1.989-0.657,1.909-2.124c-0.104-1.99-0.031-3.988-0.031-5.98
	c0.012-4.679,2.081-6.576,6.754-6.201c2.665,0.218,3.85,1.43,3.886,4.095c0.037,2.92,0.074,5.842-0.012,8.762
	c-0.055,1.652,0.989,1.378,1.965,1.369c0.964-0.006,2.014,0.301,1.965-1.366C320.054,158.864,320.146,155.511,320.084,152.165z"></path>
<path d="M291.865,147.722c-1.615-0.611-3.279-0.909-5.004-0.844c-1.791-0.074-3.529,0.184-5.224,0.792
	c-3.696,1.323-5.581,3.883-5.594,7.663c-0.019,3.776,1.866,6.514,5.501,7.748c3.469,1.179,6.981,1.191,10.438-0.132
	c3.629-1.391,5.262-3.785,5.28-7.635C297.274,151.692,295.395,149.051,291.865,147.722z M286.764,161.564
	c-4.194,0.05-6.754-2.299-6.754-6.201c0-3.702,2.677-6.219,6.613-6.213c3.997,0.006,6.582,2.431,6.594,6.176
	C293.236,159.243,290.884,161.515,286.764,161.564z"></path>
<path d="M486.312,152.029c-0.141-0.012-0.283,0-0.424,0c-1.78,0.006-3.561,0.037-5.335-0.01c-0.952-0.025-1.406,0.214-1.425,1.295
	c-0.024,1.166,0.431,1.455,1.505,1.418c1.915-0.062,3.843-0.062,5.759,0.012c0.669,0.024,1.928-0.516,1.854,0.675
	c-0.086,1.326,1.026,3.091-0.945,3.969c-4.826,2.155-9.744,2.526-14.693,0.457c-3.156-1.32-4.673-3.859-4.777-7.202
	c-0.105-3.371,1.117-6.232,4.187-7.835c4.133-2.155,8.461-2.186,12.79-0.485c1.167,0.461,1.983,1.339,2.671,2.37
	c0.75,1.136,3.187,1.619,3.979,0.633c0.804-0.992-0.368-1.741-0.835-2.487c-0.676-1.105-1.689-1.971-2.88-2.456
	c-6.33-2.579-12.66-2.572-18.739,0.614c-3.874,2.026-5.636,5.587-5.452,9.91c0.178,4.313,2.493,7.392,6.41,9.056
	c7.184,3.051,14.282,2.474,21.226-0.906c0.577-0.282,1.234-0.513,1.209-1.317c-0.074-2.474,0.86-5.341-0.399-7.288
	C491.132,151.108,488.277,152.201,486.312,152.029z"></path>
<path d="M527.596,148.026c-1.83-0.847-3.776-1.203-6.122-1.148c-1.773-0.135-3.775,0.307-5.678,1.142
	c-2.763,1.21-4.39,3.285-4.636,6.352c-0.258,3.282,0.571,6.106,3.61,7.819c4.046,2.284,8.277,2.223,12.538,0.633
	c3.291-1.234,4.863-3.635,4.967-7.172C532.386,152.023,530.832,149.524,527.596,148.026z M521.751,161.566
	c-4.242,0-6.673-2.29-6.649-6.263c0.031-3.77,2.535-6.085,6.637-6.128c3.948-0.044,6.57,2.44,6.551,6.207
	C528.278,159.25,525.835,161.558,521.751,161.566z"></path>
<path d="M418.705,147.692c-3.991-1.434-7.804-1.176-11.739,1.507c0.331-2.514-1.253-1.953-2.438-1.959
	c-1.627-0.018-1.025,1.259-1.038,2.023c-0.049,4.203,0.043,8.409-0.055,12.608c-0.03,1.48,0.504,1.799,1.854,1.738
	c1.234-0.062,2.192,0.049,2.094-1.732c-0.147-2.554-0.092-5.13-0.012-7.693c0.104-3.229,2.284-4.98,5.98-4.924
	c3.377,0.049,4.642,1.366,4.672,4.906c0.019,2.708,0.068,5.415-0.006,8.123c-0.043,1.738,1.167,1.24,2.057,1.284
	c0.884,0.04,1.891,0.313,1.854-1.244c-0.092-3.49,0-6.984-0.11-10.471C421.756,149.826,420.651,148.389,418.705,147.692z"></path>
<path d="M578.902,150.058c-3.156-3.718-8.626-4.19-14.373-1.13c0.258-2.253-1.339-1.694-2.499-1.676
	c-1.627,0.022-0.933,1.345-0.939,2.082c-0.068,6.33-0.006,12.66-0.104,18.991c-0.025,1.492,0.774,1.443,1.725,1.357
	c0.909-0.086,2.272,0.617,2.174-1.314c-0.098-1.965-0.025-3.936-0.025-6.143c5.973,2.588,11.395,1.802,14.127-1.855
	C581.235,157.364,581.198,152.76,578.902,150.058z M570.564,161.565c-3.825,0.024-6.047-2.242-6.023-6.128
	c0.024-3.788,2.547-6.373,6.207-6.367c3.574,0.012,5.876,2.407,5.888,6.122C576.655,159.21,574.438,161.534,570.564,161.565z"></path>
<path d="M555.005,148.751c0.037-1.498-0.657-1.596-1.805-1.529c-1.062,0.061-2.087-0.236-2.026,1.535
	c0.111,2.843,0.068,5.704-0.166,8.534c-0.24,2.916-2.745,4.384-6.582,4.129c-2.72-0.181-3.831-1.464-3.862-4.534
	c-0.031-2.775-0.061-5.557,0-8.332c0.037-1.891-1.32-1.203-2.241-1.314c-1.001-0.117-1.719-0.067-1.664,1.382
	c0.135,3.125,0.006,6.263,0.068,9.394c0.055,3.11,1.148,4.556,4.151,5.369c3.745,1.016,7.319,0.685,10.745-2.115
	c-0.418,2.333,0.773,2.471,2.289,2.321c1.916-0.187,0.989-1.633,1.007-2.45C555.03,157.009,554.901,152.877,555.005,148.751z"></path>
<path d="M444.069,147.221c-0.663,0.095-1.406-0.209-1.48,0.97c-0.061,0.866-0.682,0.338-1.062,0.117
	c-2.806-1.652-5.79-1.777-8.866-1.031c-3.917,0.952-6.441,4.126-6.41,7.997c0.025,3.767,2.499,6.855,6.324,7.85
	c3.303,0.863,6.459,0.54,9.615-1.449c0.166,3.187-0.608,4.811-2.529,5.597c-2.659,1.087-7.049,0.752-8.252-0.924
	c-0.804-1.114-1.75-1.207-2.855-1.388c-1.775-0.289-1.762,0.497-1.179,1.762c0.718,1.575,2.1,2.296,3.622,2.735
	c2.916,0.844,5.907,0.912,8.866,0.279c4.617-0.982,6.367-3.205,6.373-7.905c0.006-4.196-0.098-8.396,0.043-12.59
	C446.334,147.436,445.647,147,444.069,147.221z M436.284,161.258c-3.93-0.068-6.165-2.456-5.999-6.41
	c0.142-3.534,2.653-5.775,6.355-5.683c3.677,0.095,6.005,2.61,5.894,6.377C442.436,159.158,440.06,161.326,436.284,161.258z"></path>
<path d="M508.803,147.227c-2.665-0.767-5.078-0.497-7.245,2.026c0.343-2.307-1.081-1.97-2.359-2.031
	c-1.781-0.083-1.234,1.188-1.24,2.038c-0.037,4.344,0.03,8.688-0.043,13.029c-0.025,1.523,0.927,1.339,1.83,1.271
	c0.866-0.061,2.143,0.528,2.088-1.234c-0.055-1.848-0.012-3.703-0.012-5.551c0.006-6.085,0.485-6.594,6.515-6.686
	c1.191-0.019,1.197-1.069,1.522-1.738C510.326,147.387,509.343,147.387,508.803,147.227z"></path>
</svg>
