<?xml version="1.0"?>

<svg xmlns="http://www.w3.org/2000/svg" viewBox="0 0 667 222.7" width="667" height="222.7"> <path d="m 623.5,137.2 -10.6,0 12.8,-14.9 10.7,0 -12.9,14.9 m -20.1,23.4 10.3,-12 -10.6,0 -9.8,11.4 -8.7,-11.4 -15.4,0 0,2.9 0.7,0 c 5.2,0.4 6.4,1.3 9.6,5.6 l 6.3,8.4 -10.3,11.9 10.7,0 4.6,-5.4 9.9,13.2 11.9,0 -18.9,-24.7 9.7,0 m 20.2,-23.3 c 0,0 0,10.3 0,11.4 -1.1,0 -6.7,0 -6.7,0 l 0,4.5 c 0,0 5.6,0 6.7,0 0,1.3 0,22.5 0,22.5 0,9.7 6.3,10.5 13.9,10.5 1.9,0 3.8,-0.3 5.9,-0.6 l 0.6,-0.1 0,-4.5 -0.9,0.2 c -0.9,0.1 -1.9,0.2 -3,0.2 -6.1,0 -6.4,-1.7 -6.4,-6.9 0,0 0,-20 0,-21.3 1.3,0 11.3,0 11.3,0 l 0,-4.5 c 0,0 -10,0 -11.3,0 0,-1.3 0,-11.4 0,-11.4 l -10.1,0 M 568.2,163 c 0,-10.1 -5.7,-15.2 -16.7,-15.2 -12.5,0 -18.9,6 -18.9,17.9 0,12.8 8.2,20.4 21.9,20.4 5.9,0 10.6,-1.5 12.3,-2 l 0.6,-0.2 0,-4.9 -1,0.4 c -1.6,0.6 -4.6,1.2 -7.9,1.2 -10.7,0 -14.7,-9 -14.9,-16.9 1.3,0 24.6,0 24.6,0 l 0,-0.7 z m -17.1,-11.2 c 5.4,0 6.8,3.9 7,7.4 -1.3,0 -13.2,0 -14.5,0 0.2,-2.6 1.9,-7.4 7.5,-7.4 m -28.7,-19 -10.1,0 c 0,0 0,36 0,39.8 -2,-3.1 -26.2,-39.8 -26.2,-39.8 l -23.3,0 0,3 2,0.4 c 6.2,1 6.7,1.1 6.7,7 l 0,42.1 10.8,0 c 0,0 0,-37.9 0,-41.7 2.1,3.1 27.5,41.7 27.5,41.7 l 13.3,0 0,-52.5 -0.7,0 m -198,4.4 c 0,0 0,10.3 0,11.4 -1.1,0 -6.7,0 -6.7,0 l 0,4.5 c 0,0 5.6,0 6.7,0 0,1.3 0,22.5 0,22.5 0,9.7 6.3,10.5 13.8,10.5 1.9,0 3.8,-0.3 5.9,-0.6 l 0.6,-0.1 0,-4.5 -0.8,0.1 c -0.9,0.2 -1.9,0.3 -3.1,0.3 -6,0 -6.3,-1.8 -6.3,-6.9 0,0 0,-20 0,-21.3 1.2,0 11.3,0 11.3,0 l 0,-4.5 c 0,0 -10.1,0 -11.3,0 0,-1.3 0,-11.4 0,-11.4 l -10.1,0 m 113,25.8 c 0,-10.1 -5.7,-15.2 -16.7,-15.2 -12.5,0 -18.9,6 -18.9,17.9 0,12.8 8.2,20.4 21.9,20.4 6,0 10.6,-1.5 12.3,-2.1 l 0.6,-0.1 0,-4.9 -1,0.3 c -1.6,0.6 -4.6,1.3 -7.8,1.3 -10.8,0 -14.8,-9 -15,-16.9 1.4,0 24.6,0 24.6,0 l 0,-0.7 z m -17.1,-11.2 c 5.4,0 6.8,3.9 7,7.4 -1.3,0 -13.2,0 -14.5,0 0.3,-2.6 1.9,-7.4 7.5,-7.4 m -39.5,-4 c -7.4,0 -11.7,4.6 -13.8,8 0,-4.1 0,-25.1 0,-25.1 l -0.8,0.1 -16,2 0,2.8 0.7,0 c 5,0.2 6,1.3 6,6.2 l 0,43.4 10.1,0 0,-18.7 c 0,-6.9 5.1,-12.2 9.5,-12.2 5.6,0 5.6,4.2 5.6,8 l 0,22.9 10,0 0,-24.1 c 0,-4 0,-13.4 -11.3,-13.4 M 289.1,163 c 0,-10.1 -5.6,-15.2 -16.7,-15.2 -12.5,0 -18.9,6 -18.9,17.9 0,12.8 8.2,20.4 21.9,20.4 6,0 10.6,-1.5 12.3,-2.1 l 0.6,-0.1 0,-4.9 -1,0.3 c -1.6,0.6 -4.6,1.3 -7.8,1.3 -10.8,0 -14.8,-9 -15,-16.9 1.4,0 24.6,0 24.6,0 l 0,-0.7 z M 272,151.8 c 5.4,0 6.8,3.9 7,7.4 -1.3,0 -13.2,0 -14.5,0 0.3,-2.6 1.9,-7.4 7.5,-7.4 m -22.7,4.3 0,-7.9 -0.6,-0.1 c -1.7,-0.2 -3.3,-0.3 -4.8,-0.3 -5.7,0 -8.7,4.1 -10.2,7.4 0,-3 0,-7.6 0,-7.6 l -0.9,0.2 -16,2.5 0,2.8 0.7,0 c 5.1,0.2 6.1,1.2 6.1,6 l 0,26.1 10.1,0 0,-18.8 c 0,-3.2 1,-10.5 10.5,-10.5 1.1,0 2.3,0.3 3.5,0.6 l 1.6,0.5 0,-1 m -47.1,-12.8 c 3.5,0 6.3,-2.5 6.3,-5.5 0,-3 -2.8,-5.4 -6.2,-5.4 -3.4,0 -6.2,2.4 -6.2,5.4 0,3 2.8,5.5 6.1,5.5 m -11.8,7.1 0,2.8 0.7,0 c 5,0.2 6,1.2 6,6 l 0,26.1 10,0 0,-37.6 -0.8,0.2 -15.9,2.5 m -22.7,-2.5 c -3.8,0 -7.4,1.8 -10.6,5.2 0,-1.8 0,-5.3 0,-5.3 l -0.9,0.1 -16,2.5 0,2.8 0.7,0 c 5,0.2 6,1.2 6,6 l 0,41.6 10.1,0 c 0,0 0,-15.7 0,-18.9 1.8,2.2 4.8,4.3 10.3,4.3 10.5,0 16.1,-6.8 16.1,-19.7 0,-11.9 -5.7,-18.6 -15.7,-18.6 z m -2.9,5.5 c 6.9,0 7.7,7.5 7.7,13.1 0,9.5 -2.5,14.2 -7.6,14.2 -6.5,0 -7.9,-6.2 -7.9,-11.3 l 0,-3.1 c 0,-3.9 0.7,-12.9 7.8,-12.9 m -41.4,9 c -3.9,-1.9 -7.4,-3.6 -7.4,-6.3 0,-3.1 3.8,-3.5 5.4,-3.5 4.1,0 7.8,2.3 9.4,3.3 l 1.6,0.9 0,-1.3 0,-6.2 -1.3,-0.3 c -1.8,-0.4 -5.2,-1.1 -9.1,-1.1 -9.5,0 -15.2,4 -15.2,10.8 0,6.2 5.9,9 11.1,11.6 4,2 7.9,3.8 7.9,6.8 0,2.7 -2.5,4.3 -6.8,4.3 -4.6,0 -8.6,-2.4 -11,-3.8 l -1.1,-0.7 0,7.8 0.8,0.1 c 2,0.5 5.8,1.4 11,1.4 10.2,0 16.3,-4.2 16.3,-11.2 0,-6.9 -6.2,-9.9 -11.6,-12.6 M 84.08,147.8 c -7.43,0 -11.85,5 -13.87,8 0,-2.7 0,-8.1 0,-8.1 l -0.83,0.1 -16.14,2.5 0,2.8 0.69,0 c 5.11,0.2 6.22,1.2 6.22,6.1 l 0,26 10.06,0 0,-19.2 c 0,-5.1 4.8,-11.7 9.9,-11.7 4.83,0 5.08,4.1 5.08,10.6 l 0,20.3 10.06,0 0,-26 c 0,-7.4 -3.96,-11.4 -11.17,-11.4 M 41.88,132 22,133.8 l 0,3 0.63,0 c 8,1 8,1 8,6.8 l 0,41.7 12.04,0 0,-53.4 -0.79,0.1 M 376.3,85.1 c -1.9,-5.7 -3,-11.7 -3,-18 0,-8.8 1.6,-17.4 5.8,-24.5 4.4,-7.4 11.1,-13.1 19.2,-16.1 7.7,-2.9 16,-4.5 24.7,-4.5 10.1,0 19.6,2.2 28.2,6 8.1,3.4 14.2,10.7 16,19.4 0.3,1.8 0.6,3.6 0.7,5.4 l -23.4,0 c -0.1,-2.3 -0.4,-4.5 -1.2,-6.5 -1.8,-4.7 -5.7,-8.3 -10.5,-9.7 -3.1,-1 -6.4,-1.5 -9.8,-1.5 -3.8,0 -7.6,0.7 -11,1.9 -5.7,2 -10.2,6.6 -12.2,12.4 -2,5.5 -3.1,11.5 -3.1,17.7 0,5.2 0.9,10.1 2.2,14.8 1.7,6.2 6.3,11.1 12.2,13.3 3.7,1.4 7.7,2.3 11.9,2.3 3.6,0 7.1,-0.6 10.4,-1.6 4.3,-1.4 7.9,-4.6 9.7,-8.8 1.3,-2.8 1.9,-5.8 1.9,-9 l 23.5,0 c -0.1,2.7 -0.5,5.4 -1.1,8 -2,8.3 -7.9,15.3 -15.6,18.5 -8.9,3.8 -18.6,5.9 -28.8,5.9 -7.9,0 -15.5,-1.2 -22.6,-3.5 -10.9,-3.4 -20.3,-11.2 -24.1,-21.9 m -206.9,23.3 22.3,0 0,-84.3 -22.3,0 0,84.3 z M 84.23,24.1 c 0,0 0,34 0,33.7 l 45.07,0 c 0,0.2 0,-33.7 0,-33.7 0,0 22.1,0 22.4,0 0,0 0,84.2 0,84.3 -0.1,0 -22.4,0 -22.4,0 0,0 0,-37 0,-37.1 0,0.1 -45.07,0 -45.07,0 0,0.2 0,37.2 0,37.1 l -22.34,0 c 0,0 0.12,-84.3 0,-84.3 l 22.34,0 m 503.17,84.3 22.3,0 0,-84.3 -22.3,0 0,84.3 z m -210.3,0 c 0.1,0 -25,0 -24.9,0 0.1,0 -7.3,-18.1 -7.3,-18.1 l -41.8,0 c 0,0 -7.2,18.2 -7.3,18.1 0,0 -24.9,0 -24.9,0 l 39.4,-84.3 c 0,0.1 27.4,0 27.4,0 l 39.4,84.3 z M 324,38.5 308.5,76.8 339.6,76.8 324,38.5 M 290.3,24.1 c 0,0.3 0,14.4 0,14.4 l -34.1,0 0,69.9 -22.4,0 0,-69.9 -34.1,0 c 0,0 0,-14.4 0,-14.4 0,0 90.6,0 90.6,0 m 212,0 c 0,0 0,34 0,33.7 l 45.1,0 c 0,0.2 -0.1,-33.7 0,-33.7 -0.1,0 22.1,0 22.3,0 0,0 0.1,84.2 0,84.3 0,0 -22.3,0 -22.3,0 0,0 0,-37 0,-37.1 0,0.1 -45.1,0 -45.1,0 0,0.2 0,37.2 0,37.1 l -22.4,0 c 0,0 0.2,-84.3 0,-84.3 l 22.4,0"></path></svg>