<?xml version="1.0"?>
<!--?xml version="1.0" encoding="UTF-8" standalone="no"?-->
<svg xmlns="http://www.w3.org/2000/svg" viewBox="0 0 722 164" height="164" width="722">
   <path d="m 626.49,87.515 c 0.21,-1.491 0.31,-3.571 0.31,-5.114 0,-19.667 -17.38,-35.611 -38.83,-35.611 -21.44,0 -38.82,15.944 -38.82,35.611 0,19.669 17.38,35.619 38.82,35.619 14.74,0 27.56,-7.53 34.14,-18.624 v 0 l -8.58,-3.173 v 0 c -5.18,7.917 -14.69,13.227 -25.56,13.227 -5.33,0 -9.65,-5.05 -9.65,-10.387 v 0 -11.545 h 48.17 v 0 z M 578.32,65.742 c 0,-5.332 4.32,-9.652 9.65,-9.652 5.34,0 9.66,4.32 9.66,9.652 v 0 12.686 H 578.32 Z M 367.08,87.515 c 0.2,-1.491 0.31,-3.571 0.31,-5.114 0,-19.667 -17.38,-35.611 -38.83,-35.611 -21.44,0 -38.83,15.944 -38.83,35.611 0,19.669 17.39,35.619 38.83,35.619 14.74,0 27.55,-7.53 34.13,-18.624 v 0 l -8.57,-3.173 v 0 c -5.19,7.917 -14.69,13.227 -25.56,13.227 -5.33,0 -9.66,-5.05 -9.66,-10.387 v 0 -11.545 h 48.18 v 0 z M 318.9,65.742 c 0,-5.332 4.33,-9.652 9.66,-9.652 5.34,0 9.66,4.32 9.66,9.652 v 0 12.686 H 318.9 Z M 159.28,46.79 c -21.45,0 -38.83,15.944 -38.83,35.611 0,19.669 17.38,35.619 38.83,35.619 21.44,0 38.83,-15.95 38.83,-35.619 0,-19.667 -17.39,-35.611 -38.83,-35.611 z m 9.66,52.273 c 0,5.337 -4.33,9.657 -9.66,9.657 -5.33,0 -9.66,-4.32 -9.66,-9.657 v 0 -33.321 0 c 0,-5.332 4.33,-9.652 9.66,-9.652 5.33,0 9.66,4.32 9.66,9.652 v 0 z M 524.73,86.948 511.67,50.024 H 492.54 L 479.47,88.463 465.84,50.024 h -26.7 -0.19 -10.6 L 414.9,82.401 395.97,50.024 h -32 l 37.68,64.386 -4.92,12.11 v 0 c -1.71,3.79 -5.79,3.98 -6.59,0.38 0,-6.51 -5.27,-11.78 -11.78,-11.78 -6.51,0 -11.78,5.27 -11.78,11.78 0,6.82 6.86,15.72 20.3,15.15 13.45,-0.57 19.12,-11.74 21.02,-16.47 v 0 l 31.14,-75.308 22.45,63.378 h 20.45 l 12.49,-36.549 12.88,36.549 h 19.31 L 548.4,50.024 H 537.23 Z M 236.91,56.082 234.83,50.024 h -28.02 v 63.626 h 28.02 v -38.252 0 c 0,-8.333 5.3,-12.876 9.85,-12.876 3.78,0 8.71,0.757 8.71,9.09 v 0 42.038 h 28.02 v -41.28 0 c 0,-23.102 -25.94,-32.189 -44.5,-16.288 z M 56.082,22 H 22 v 91.65 H 56.082 V 68.205 H 76.91 V 113.65 H 111 V 22 H 76.91 V 57.597 H 56.082 Z M 674.13,113.65 V 22 h 25.75 v 91.65 z M 662.01,22 h -25.75 v 91.65 h 25.75 z"></path></svg>