<?xml version="1.0"?>

<svg xmlns="http://www.w3.org/2000/svg" viewBox="0 0 567.23 255.44" height="255.44pt" width="567.23pt">

   <path d="m 418.59,33.05 c -1.03,0 -2.05,0.66 -2.41,1.69 l -4.01,12.36 -5.75,17.72 c -0.4,1.18 0.1,2.71 1.07,3.46 l 30.54,23.35 c 0.98,0.75 2.77,1.39 3.98,1.42 l 5.23,0.11 17.66,0.44 c 1.22,0 1.85,-0.87 1.39,-2 l -5.17,-12.35 -15.3,-36.92 -0.69,-1.67 c -0.46,-1.13 -1.82,-2.25 -3,-2.51 L 419.04,33.1 c -0.15,0 -0.3,-0.1 -0.45,-0.1 z m 30.32,9.4 14.58,35.18 0.52,1.25 0.11,0.26 6.99,3.05 c 1.1,0.5 2.08,1.88 2.19,3.12 l 2.05,28.03 c 0.1,1.18 1.01,2.71 2.05,3.35 l 9.01,5.51 c 1.04,0.64 1.9,0.17 1.93,-1.07 l 1.29,-46.24 V 74.6 c 0,-0.34 0,-0.69 -0.23,-1.04 v 0 l -14,-24.76 c -0.6,-1.07 -2.08,-2.11 -3.26,-2.34 z m -39.74,4.91 -37.15,8.34 c -1.21,0.29 -2.46,0.95 -2.8,1.5 -0.32,0.52 -1.21,1.79 -1.91,2.77 l -13.74,19.22 c -0.52,0.75 -1.12,1.97 -1.5,3 -0.11,0.35 -0.23,0.67 -0.29,0.96 l -8.68,32.73 -0.15,0.63 c 0,0 1.45,0.15 2.63,0.35 0.66,0.12 1.24,0.29 1.36,0.46 l 0.69,-1.99 9.12,-25.98 c 0.1,-0.23 0.23,-0.43 0.37,-0.57 0.47,-0.58 1.25,-0.55 1.88,0.14 l 2.66,3 c 0.83,0.93 1.81,2.6 2.22,3.75 l 16.39,47.86 c 0.41,1.16 1.74,2.11 2.95,2.11 h 9.96 c 1.21,0 2.13,-1.01 2.02,-2.22 l -1.91,-25.17 c -0.1,-1.22 0.81,-2.49 1.99,-2.83 l 29.21,-8.26 c 1.19,-0.34 2.6,0.26 3.18,1.36 l 19.54,35.16 c 0.58,1.06 2.05,1.96 3.26,1.96 h 9.24 c 1.24,0 1.93,-0.95 1.59,-2.14 l -13.17,-47.51 -7.07,-0.17 c -1.24,-0.1 -3.03,-0.66 -3.98,-1.42 L 404.23,69.29 c -0.98,-0.72 -1.44,-2.31 -1.07,-3.46 z m 60.47,2.48 c 1.79,0 3.26,1.44 3.26,3.23 0,1.79 -1.47,3.23 -3.26,3.23 -1.76,0 -3.23,-1.44 -3.23,-3.23 0,-1.79 1.47,-3.23 3.23,-3.23 z m -199.06,0.74 c -0.89,0 -1.73,0.57 -2.01,1.42 l -3.41,10.45 -4.85,14.98 c -0.31,0.98 0.1,2.28 0.9,2.92 l 25.8,19.71 c 0.81,0.61 2.31,1.16 3.35,1.19 l 4.39,0.1 14.92,0.38 c 1.04,0 1.56,-0.72 1.18,-1.68 L 292.99,57.03 c -0.38,-0.96 -1.53,-1.91 -2.54,-2.14 l -19.49,-4.27 c -0.12,0 -0.25,0 -0.38,0 z m 26.19,8.06 12.24,29.47 0.72,1.68 5.17,2.28 c 0.95,0.43 1.79,1.61 1.87,2.62 l 1.73,23.67 c 0.1,1.01 0.87,2.31 1.74,2.86 l 7.59,4.65 c 0.89,0.52 1.61,0.11 1.64,-0.93 l 1.1,-39.05 v -0.23 c 0,-0.29 0,-0.58 -0.17,-0.87 v 0 L 318.56,63.87 c -0.52,-0.9 -1.76,-1.76 -2.77,-1.94 z m -34.15,4.04 -31.37,7.05 c -0.99,0.2 -2.05,0.77 -2.34,1.24 -0.29,0.46 -1.01,1.5 -1.62,2.33 l -11.57,16.26 c -0.46,0.63 -0.96,1.64 -1.3,2.54 -0.1,0.28 -0.17,0.54 -0.23,0.8 l -7.07,27.11 c 0,0 1.29,0.14 2.39,0.1 0.12,0 0.17,0.1 0.26,0.1 0.41,0.1 0.75,0.17 0.81,0.32 l 0.14,-0.43 7.65,-21.91 c 0.1,-0.2 0.2,-0.38 0.32,-0.49 0.4,-0.49 1.04,-0.46 1.56,0.11 l 2.28,2.54 c 0.69,0.78 1.53,2.2 1.85,3.15 l 13.88,40.41 c 0.32,0.98 1.44,1.79 2.48,1.79 h 8.37 c 1.04,0 1.79,-0.84 1.74,-1.88 l -1.62,-21.24 c -0.1,-1.04 0.69,-2.11 1.67,-2.37 l 24.68,-7.01 c 0.98,-0.26 2.2,0.26 2.69,1.15 l 15.87,29.7 c 0.49,0.9 1.73,1.65 2.77,1.65 h 9.12 c 1.01,0 1.62,-0.81 1.33,-1.79 l -11.83,-40.18 -5.98,-0.15 c -1.04,0 -2.54,-0.57 -3.35,-1.18 L 258.47,81.18 c -0.81,-0.63 -1.22,-1.93 -0.9,-2.91 z m 51.21,2.23 c 1.35,0 2.42,1.09 2.42,2.45 0,1.33 -1.07,2.39 -2.42,2.39 -1.33,0 -2.43,-1.06 -2.43,-2.39 0,-1.36 1.1,-2.45 2.43,-2.45 z m -167.02,1.38 c -0.75,0 -1.47,0.48 -1.7,1.18 l -6.89,21.22 c -0.26,0.84 0.1,1.9 0.78,2.42 l 21.5,16.49 c 0.69,0.52 1.96,0.95 2.83,0.98 l 16.1,0.4 c 0.87,0 1.3,-0.63 0.96,-1.41 L 165.52,71.66 c -0.34,-0.78 -1.3,-1.59 -2.13,-1.79 l -16.25,-3.55 c -0.11,0 -0.22,0 -0.33,0 z m 22.41,6.84 10.53,25.34 0.35,0.84 3.69,1.62 c 0.78,0.34 1.48,1.33 1.56,2.19 l 1.45,19.74 c 0.1,0.87 0.72,1.94 1.44,2.37 l 6.35,3.9 c 0.72,0.43 1.36,0.11 1.38,-0.75 l 0.9,-32.62 v -0.17 c 0,-0.23 0,-0.49 -0.14,-0.75 v 0 l -9.88,-17.47 c -0.43,-0.72 -1.47,-1.47 -2.31,-1.61 z m -30.11,3.49 -25.14,5.66 c -0.84,0.17 -1.7,0.64 -1.96,1.04 -0.23,0.38 -0.84,1.24 -1.33,1.96 l -9.67,13.54 c -0.52,0.69 -1.105,1.96 -1.305,2.8 l -5.25,21.33 c -0.2,0.84 2.71,0.32 3,-0.46 l 5.775,-16.51 c 0.29,-0.81 0.98,-0.95 1.56,-0.32 l 1.91,2.14 c 0.57,0.63 1.27,1.82 1.53,2.62 l 11.6,33.72 c 0.26,0.84 1.18,1.5 2.05,1.5 h 6.98 c 0.87,0 1.53,-0.69 1.48,-1.56 l -1.36,-17.75 c -0.1,-0.84 0.58,-1.73 1.38,-1.96 l 20.61,-5.83 c 0.81,-0.26 1.82,0.2 2.23,0.95 l 13.27,24.76 c 0.41,0.78 1.45,1.39 2.31,1.39 h 7.59 c 0.87,0 1.36,-0.66 1.13,-1.5 l -9.61,-32.59 -4.65,-0.1 c -1.47,0 -3.32,-0.69 -4.47,-1.58 L 137.23,93.42 c -1.64,-1.27 -2.39,-3.63 -1.76,-5.6 z m 43.79,1.88 c 1.01,0 1.79,0.81 1.79,1.79 0,0.98 -0.78,1.79 -1.79,1.79 -0.98,0 -1.79,-0.81 -1.79,-1.79 0,-0.98 0.81,-1.79 1.79,-1.79 z m 175.84,14.63 c -0.29,0 -0.43,0.55 -0.43,0.55 l -7.05,20.03 -1.99,29.71 c -0.1,1.21 0.87,2.22 2.08,2.22 h 9.21 c 1.24,0 2.42,-0.98 2.64,-2.19 l 4.88,-24.77 c 0.1,-0.4 0.12,-0.87 0.15,-1.39 l -7.1,-20.69 c -0.26,-0.81 -1.04,-2.14 -1.62,-2.74 0,0 -0.46,-0.73 -0.77,-0.73 z m 143.02,7.08 c -1.21,0 -2.22,0.49 -2.13,1.7 l 0.92,10.48 7.13,1.79 c 0.38,0.11 0.72,0.26 1.04,0.43 l -1.83,-12.64 c -0.16,-1.22 -1.24,-1.73 -2.45,-1.76 z m -281.66,1.7 -6.46,18.56 -1.56,23.29 c -0.1,1.04 0.72,1.88 1.73,1.88 h 7.8 c 1.03,0 2.02,-0.84 2.25,-1.85 l 4.1,-20.93 v -0.11 l -6.3,-18.36 c -0.2,-0.6 -0.83,-1.7 -1.27,-2.16 z m -115.25,8.2 -4.68,13.3 c -0.11,0.32 -0.235,0.58 -0.405,0.81 l -0.61,1.68 -1.21,18.18 c -0.1,0.87 0.61,1.56 1.47,1.56 h 6.505 c 0.86,0 1.7,-0.69 1.87,-1.53 l 3.26,-16.6 -5.54,-16.16 c -0.11,-0.32 -0.4,-0.84 -0.66,-1.24 z m 319.5,0.13 c -0.56,0 -1.1,0.13 -1.1,0.13 l -6.2,1.79 c 0,0.1 -0.1,0.14 -0.1,0.23 l -1.88,31 c -0.1,1.21 0.87,2.22 2.08,2.22 h 7.48 c 1.21,0 2.42,-0.98 2.65,-2.19 l 4.07,-21.28 c 0,-0.14 0,-0.34 0.1,-0.52 l -5.46,-10.13 c 0,0 -0.37,-0.86 -1.09,-1.15 v 0 c -0.17,-0.1 -0.36,-0.11 -0.55,-0.13 z m 67.11,2.72 -0.23,8.26 c 0,0.69 -0.21,1.33 -0.47,1.88 l 9.12,0.83 c 1.22,0.15 2.95,-0.43 3.85,-1.27 l 3.75,-3.58 c 0.89,-0.83 0.65,-1.79 -0.52,-2.1 z m -215.56,3.06 -6.7,1.91 -1.56,25.83 c -0.1,1.01 0.75,1.88 1.77,1.88 h 6.32 c 1.01,0 2.02,-0.84 2.22,-1.85 l 3.38,-17.63 z m 56.66,2.11 -0.2,6.9 c 0,0.55 -0.12,1.07 -0.32,1.53 l 7.19,-0.98 c 0.98,-0.1 2.28,-0.35 3.2,-1.07 l 3.21,-3 c 0.75,-0.72 0.54,-1.53 -0.44,-1.82 z m -240.115,2.28 -2.97,0.26 c -0.32,0 -0.58,0.29 -0.6,0.61 v 0 l -0.1,0.89 c 0,0.32 0.23,0.58 0.52,0.61 l 2.51,0.26 0.14,-0.78 z m 58.585,1.1 -5.4,1.53 -1.29,21.04 c 0,0.87 0.63,1.56 1.5,1.56 h 5.25 c 0.87,0 1.7,-0.69 1.88,-1.53 l 2.65,-14 z m 47.97,1.15 -0.17,5.8 c 0,0.35 -0.11,0.7 -0.2,1.01 l 5.45,-1.64 c 0.78,-0.23 2.23,-0.52 2.98,-1.18 l 2.39,-2.23 c 0.61,-0.57 0.47,-1.27 -0.37,-1.5 z m 250.03,29.96 v 68.76 h 11.8 v -13.22 l 5.89,-6.18 11.46,19.4 h 15.01 l -18.15,-28.06 17.17,-17.98 h -16.28 l -15.1,16.71 v -39.43 z m -270.72,1.22 v 21.5 h -6.47 v 10.48 h 6.47 v 16.16 c 0,12.62 7.15,20.76 20.67,19.31 v -10.73 c -5.92,0.37 -8.87,-2.05 -8.87,-8.49 v -16.25 h 8.32 v -10.48 h -8.32 v -21.5 z M 33,154.38 v 66.65 h 12.755 v -27.76 h 24.8 v 27.76 h 12.76 v -66.65 h -12.76 v 25.61 h -24.8 v -25.61 z m 79.99,19.8 c -13.635,0 -24.655,10.44 -24.655,24.21 0,13.77 11.02,24.05 24.655,24.05 13.59,0 24.74,-10.28 24.74,-24.05 0,-13.77 -11.15,-24.21 -24.74,-24.21 z m 113.81,0 c -13.62,0 -24.65,10.44 -24.65,24.21 0,13.77 11.03,24.05 24.65,24.05 13.6,0 24.74,-10.28 24.74,-24.05 0,-13.77 -11.14,-24.21 -24.74,-24.21 z m 164.09,0 c -13.63,0 -24.64,10.44 -24.64,24.21 0,13.77 11.01,24.05 24.64,24.05 13.62,0 24.76,-10.28 24.76,-24.05 0,-13.77 -11.14,-24.21 -24.76,-24.21 z m -111.59,0 c -4.91,0 -8.95,2.13 -11.9,5.62 v -4.47 h -11.25 v 46.04 h 11.8 v -26.9 c 0,-5.17 3.67,-9.12 8.92,-9.12 7.77,0 8.61,6.43 8.61,9.12 v 26.9 h 11.77 v -26.9 c 0,-12.15 -7.16,-20.29 -17.95,-20.29 z m 233.83,0 c -13.34,0 -19.65,7.5 -19.65,14.75 0,10.27 10.97,12.52 19.22,13.76 8.03,1.25 9.64,2.31 9.64,4.91 0,2.69 -3.58,4.1 -8.31,4.1 -3.49,0 -8.22,-1.41 -9.84,-5.34 h -11.98 c 1.44,9.93 10.1,16.08 21.82,16.08 11.78,0 20.21,-6.44 20.21,-15.56 0,-10.02 -8.23,-12.5 -19.66,-14.38 -5.74,-0.89 -9.15,-1.7 -9.15,-4.12 0,-1.71 2.25,-3.67 7.71,-3.67 4.38,0 6.95,1.7 7.67,3.87 h 12.24 c -1.5,-8.69 -9.38,-14.4 -19.92,-14.4 z m -371.33,1.15 v 46.04 h 11.8 v -22.63 c 0,-3.64 0.43,-7.39 2.95,-9.99 2.68,-2.86 4.32,-3.06 11.34,-3.06 v -10.27 c -6.93,-0.18 -11.69,-0.29 -14.84,4.47 v -4.56 z m 155.97,0 14.29,46.04 h 12.25 l 8.31,-30.48 8.31,30.48 h 12.18 l 14.38,-46.04 h -12.5 l -8.06,32.18 -8.39,-32.18 h -11.81 l -8.4,32.18 -8.05,-32.18 z m 121.95,0 v 46.04 h 11.78 v -22.63 c 0,-3.64 0.46,-7.39 2.97,-9.99 2.69,-2.86 4.33,-3.06 11.34,-3.06 v -10.27 c -6.95,-0.18 -11.69,-0.29 -14.83,4.47 v -4.56 z M 112.98,185 c 6.67,0 12.09,5.51 12.09,13.48 0,7.79 -5.42,13.16 -12.09,13.16 -6.67,0 -12.1,-5.37 -12.1,-13.16 0,-7.97 5.43,-13.48 12.1,-13.48 z m 113.81,0 c 6.67,0 12.07,5.51 12.07,13.48 0,7.79 -5.4,13.16 -12.07,13.16 -6.67,0 -12.09,-5.37 -12.09,-13.16 0,-7.97 5.42,-13.48 12.09,-13.48 z m 164.1,0 c 6.67,0 12.09,5.51 12.09,13.48 0,7.79 -5.43,13.16 -12.09,13.16 -6.67,0 -12.1,-5.37 -12.1,-13.16 0,-7.97 5.43,-13.48 12.1,-13.48 z"></path>
  </svg>
