<?xml version="1.0" encoding="UTF-8" standalone="no"?>
<svg
   xmlns:dc="http://purl.org/dc/elements/1.1/"
   xmlns:cc="http://creativecommons.org/ns#"
   xmlns:rdf="http://www.w3.org/1999/02/22-rdf-syntax-ns#"
   xmlns:svg="http://www.w3.org/2000/svg"
   xmlns="http://www.w3.org/2000/svg"
   id="svg4987"
   x="0px"
   y="0px"
   version="1.1"
   width="300"
   viewBox="0 0 300.00001 56.179805"
   height="56.179806"
   xml:space="preserve"
   enable-background="new 0 0 174.146 30.701"><defs
     id="defs4991" /><path
     d="m 222.23438,2.7910156 -25.25391,25.2539064 25.25391,25.251953 0,-50.5058594 z m 0.006,0 25.25,25.2539064 -25.25195,25.25 50.50586,0 -25.25195,-25.25 25.2539,-25.2539064 -50.50586,0 z m 50.50586,0 0,50.5058594 L 298,28.044922 272.74609,2.7910156 Z m -93.15883,0.8407886 0.72863,17.1205708 -1.02797,0.03713 c -0.49659,-4.327713 -2.12789,-7.374516 -4.18385,-9.360855 -0.59172,-0.57084 -1.71484,-1.7264435 -3.33454,-2.7474589 -2.69873,-1.7009187 -6.71317,-3.2045958 -11.48178,-2.3552967 -7.16103,1.2762692 -10.84829,6.0077466 -12.69076,10.5628676 -2.26944,5.599341 -3.70582,15.176001 0.14387,23.255945 3.12106,6.557703 9.12185,9.288919 13.75122,9.994347 3.94484,0.601007 12.69076,0.415368 19.35521,-8.576528 l 1.06278,0.707749 c -5.17701,7.30258 -12.05262,11.980687 -19.9214,11.908752 -10.06628,-0.08818 -16.39194,-5.636469 -19.28327,-8.931564 -3.04912,-3.473773 -5.38817,-10.066283 -5.41834,-15.809494 -0.0232,-5.105077 1.10223,-10.785635 2.93542,-14.108576 3.15586,-5.7060832 9.74837,-11.3773593 18.43165,-12.2289789 6.50433,-0.6358141 10.77867,0.6381346 14.43112,2.7288956 1.8239,1.0465407 2.84956,1.1672061 3.84273,0.7448771 0.99085,-0.4269701 1.79142,-1.2762692 1.79142,-2.9423806 l 0.86786,0 z M 105.99178,50.437931 c 3.50162,1.083669 10.16838,1.916724 14.814,-1.413178 5.57382,-3.988921 6.74799,-13.737297 -1.11847,-18.816849 -3.16747,-2.046671 -11.07106,-1.905121 -13.69553,-1.287871 l 0,21.517898 z m 0,-24.367459 c 2.4806,0.635814 9.7855,0.80753 12.61882,-0.99317 4.44142,-2.819394 5.98222,-7.344349 5.16309,-11.344872 -0.49194,-2.404027 -1.76357,-4.6224149 -3.95875,-6.1655404 -4.32308,-3.049123 -10.56055,-2.5548588 -13.82316,-1.5616893 l 0,20.0652717 z m 16.30608,1.415498 c 9.01046,3.093213 11.57924,9.453674 9.90617,16.006736 -1.96314,7.704025 -10.65105,9.270355 -13.46812,9.643954 -1.27163,0.164755 -4.518,0.150832 -7.72723,0.150832 -5.72697,0.007 -12.97154,-0.0116 -18.789005,-0.0116 l 0,-0.921235 2.979509,0 c 1.893519,0 4.056216,-1.596496 4.056216,-4.005164 l 0,-40.3579518 c 0,-2.4109885 -2.162697,-4.0399721 -4.039973,-4.0399721 l -2.977188,0 0,-0.9235547 c 5.137564,0 12.621141,-0.00232 17.972191,0 4.32307,0 6.67141,0.4153676 8.18901,0.7100697 2.55021,0.4942643 9.99667,2.6940882 11.7672,9.6393129 1.37141,5.378894 -1.31108,12.159364 -7.86878,14.108575 M 89.512869,40.069985 c 0.178678,2.970226 -1.663791,7.478937 -4.21865,9.780863 -2.455078,2.218388 -5.954376,4.149035 -10.632482,4.149035 -5.316241,0 -9.889926,-2.835638 -11.556037,-3.473773 -1.009413,-0.387521 -2.332092,-0.345753 -3.121059,0.14155 -0.921234,0.56852 -1.487433,1.487434 -1.700918,3.190673 l -0.779685,0 0,-17.512733 0.779685,0 c 0.710069,5.388176 3.22548,8.553323 4.787169,10.351703 2.552539,2.94238 7.372195,4.608492 12.015494,3.863615 3.689579,-0.591725 7.72723,-4.594569 7.284017,-9.553455 -0.157794,-1.789098 -0.549956,-4.392687 -4.269701,-6.822239 -2.334412,-1.526882 -5.650392,-3.691899 -8.792334,-5.778019 -3.965717,-2.629114 -7.564796,-5.476355 -8.576529,-6.629638 -1.32732,-1.510639 -2.979508,-3.684937 -2.979508,-7.16103 0,-2.977188 1.134719,-6.3790253 3.545707,-8.6484639 2.410989,-2.2671182 5.671276,-3.9680369 10.349383,-3.9680369 4.680427,0 8.226135,2.4806032 9.430469,3.0468026 1.204334,0.5661994 2.536295,0.4339315 3.295095,0 0.744877,-0.4269701 1.241462,-1.0651046 1.454947,-2.7660234 l 0.779684,0 0,16.5914986 -0.779684,0 C 85.117862,13.481817 82.778809,9.4441662 81.147505,7.954412 79.518521,6.4646578 76.327848,4.4087042 71.577806,5.3299385 c -4.557441,0.8841065 -6.775829,2.944701 -7.195837,6.5925105 -0.320228,2.779946 1.18809,4.490147 2.055953,5.529726 1.772854,2.125568 13.020266,8.499952 18.113741,12.904241 2.624473,2.267119 4.680427,4.963527 4.961206,9.713569 m -49.229438,-9.99226 c -0.03481,0 0,18.041805 0,18.041805 0,2.269439 -1.949211,4.258098 -4.501749,4.258098 l -2.445796,0 0,0.918914 20.701086,0 0,-0.918914 -2.445796,0 c -2.517731,0 -4.50175,-2.021146 -4.50175,-4.258098 l 0,-18.324905 0,-21.870612 c 0,-2.199824 1.949212,-4.2534571 4.50175,-4.2534571 l 2.445796,0 0,-0.9235548 -20.701086,0 0,0.9235548 2.445796,0 c 2.587345,0 4.501749,2.0536331 4.501749,4.2534571 l 0,19.601174 -24.527573,0 0,-19.601174 c 0,-2.199824 1.984018,-4.2534571 4.501749,-4.2534571 l 2.443476,0 0,-0.9235548 -20.7010861,0 0,0.9235548 2.4481163,0 c 2.5502178,0 4.5017497,2.0536331 4.5017497,4.2534571 l 0,21.870612 0,18.324905 c 0,2.236952 -1.9515319,4.258098 -4.5017497,4.258098 l -2.4481163,0 0,0.918914 20.7010861,0 0,-0.918914 -2.443476,0 c -2.517731,0 -4.501749,-2.021146 -4.501749,-4.258098 0,0 0.03249,-18.041805 0,-18.041805 l 24.527573,0 z"
     id="path5018" /><metadata
     id="metadata5611"><rdf:RDF><cc:Work
         rdf:about=""><dc:title></dc:title></cc:Work></rdf:RDF></metadata></svg>