<?xml version="1.0"?>

<svg xmlns="http://www.w3.org/2000/svg" viewBox="0 0 237.8 87.15" height="87.15" width="237.8"><path d="m 215.8,22.05 c -0.3,-0.1 -1.4,0.15 -3.8,0.85 -8.1,2.3 -20.3,5.1 -29.7,12.9 -9.7,-8.5 -25.3,-12.2 -29,-12.9 -3.2,-0.7 -8.5,-1.5 -3.9,0.2 11.2,3.6 29.1,18.6 32.2,23.4 0.4,0.6 0.8,0.6 1.3,0 3.7,-4.7 13.5,-13.4 31.7,-23.5 1,-0.5 1.5,-0.87 1.2,-0.95 z M 22,32.5 l 0,32.4 7.5,0 0,-12.9 12.6,0 0,12.9 7.4,0 0,-25.6 5.7,0 0,25.6 7.9,0 0,-25.6 7.1,0 c -1.72,2.66 -2.64,5.94 -2.64,9.55 0,8.9 5.8,16 15.7,16 7.8,0 13.3,-4.9 14,-12.6 l -6.8,0 c -0.5,4.1 -2.9,6.9 -7.2,6.9 -6.3,0 -8.7,-5.2 -8.7,-10.3 0,-5.4 2.4,-10.5 8.7,-10.5 3.5,0 6.5,2.3 7,5.3 l 6.8,0 c -0.9,-7.1 -6.8,-11 -13.8,-11 -0.4,0 -0.78,0 -1.16,0.1 l 0.2,-0.2 -40.2,0 0,6.8 0,6 -12.6,0 0,-12.8 -7.5,0 z m 142.5,1.45 0,11.7 -0.1,0 c -1.2,-3.3 -4.6,-5.1 -8.1,-5.1 -7,0 -10.4,5.7 -10.4,12.3 0,6.6 3.4,12.3 10.4,12.3 3.4,0 7.1,-2.1 8.3,-5.1 l 0.1,0 0,4.4 2.6,0 0,-28.4 -2.8,-2.1 z m -53.4,6.6 c -7.1,0 -11,5.7 -11,12.3 0,6.7 3.9,12.3 11,12.3 7.1,0 11,-5.6 11,-12.3 0,-6.6 -3.9,-12.3 -11,-12.3 z m 23.7,0 c -3.3,0 -6.4,1.9 -7.4,4.7 l -0.1,0 0,-4 -2.8,0 0,23.2 2.8,0 0,-13.5 c 0.1,-4.6 2.8,-8 7.3,-8 4.6,0 5.9,3 5.9,7 l 0,14.5 2.8,0 0,-14.9 c 0,-5.6 -1.9,-9 -8.5,-9 z m 71.7,0.39 c -3.8,0.1 -6.6,2.25 -8,5.81 l -0.1,0 0,-5.5 -2.6,0 0,23.2 2.9,0 0,-12.3 c 0,-4.9 3.5,-8.6 8.6,-8.4 l 0,-2.8 c -0.3,-0 -0.5,-0 -0.8,-0 z m -31.3,1.71 c -2.9,2.3 -4.5,6 -4.5,10.2 0,6.7 3.9,12.3 11,12.3 7.1,0 11,-5.6 11,-12.3 0,-3.8 -1.3,-7.3 -3.7,-9.6 l -1.9,1.9 c 1.8,1.9 2.8,4.8 2.8,7.7 0,5 -2.7,9.9 -8.2,9.9 -5.4,0 -8.1,-4.9 -8.1,-9.9 0,-3.3 1.2,-6.5 3.5,-8.4 l -1.9,-1.8 z m -64.1,0.3 c 5.5,0 8.2,5 8.2,9.9 0,5 -2.7,9.9 -8.2,9.9 -5.4,0 -8.1,-4.9 -8.1,-9.9 0,-4.9 2.7,-9.9 8.1,-9.9 z m 45.2,0 c 6.1,0 8.2,5.1 8.2,9.9 0,4.8 -2.1,9.9 -8.2,9.9 -5.4,0 -7.6,-5.1 -7.6,-9.9 0,-4.8 2.2,-9.9 7.6,-9.9 z"></path> </svg>