<?xml version="1.0"?>

<svg xmlns="http://www.w3.org/2000/svg" viewBox="0 0 298 420" height="420px" width="298px">
  
  <path d="M 27.99 0.1348 L 27.99 56.75 L 46.91 56.75 L 46.91 37.8 L 64.22 37.8 L 64.22 56.75 L 83.15 56.75 L 83.15 0.1348 L 64.22 0.1348 L 64.22 18.83 L 46.91 18.83 L 46.91 0.1348 L 27.99 0.1348 z M 91.37 0.1348 L 91.37 18.91 L 108 18.91 L 108 56.75 L 127 56.75 L 127 18.91 L 143.6 18.91 L 143.6 0.1348 L 91.37 0.1348 z M 151.9 0.1348 L 151.9 56.75 L 170.4 56.75 L 170.4 28.69 L 183.5 48.82 L 183.8 48.82 L 196.8 28.69 L 196.8 56.75 L 215.7 56.75 L 215.7 0.1348 L 195.9 0.1348 L 183.8 20.03 L 171.7 0.1348 L 151.9 0.1348 z M 225.1 0.1348 L 225.1 56.75 L 270.6 56.75 L 270.6 38.04 L 244 38.04 L 244 0.1348 L 225.1 0.1348 z M 0.3125 82.65 L 27.38 386.3 L 148.9 420 L 270.7 386.2 L 297.8 82.65 L 0.3125 82.65 z M 149 107.5 L 270.6 107.5 L 247.5 366.9 L 149 394.2 L 149 355.6 L 148.9 355.6 L 72.59 334.4 L 67.37 275.9 L 84.6 275.9 L 104.8 275.9 L 107.4 305.6 L 148.9 316.8 L 149 316.8 L 149 257.3 L 148.9 257.3 L 65.71 257.3 L 56.56 154.7 L 55.66 144.7 L 148.9 144.7 L 149 144.7 L 149 107.5 z M 96.36 181.9 L 99.76 220.1 L 148.9 220.1 L 149 220.1 L 149 181.9 L 148.9 181.9 L 96.36 181.9 z "></path>
  <path style="opacity:0.5" d="m 149,107.5 0,37.2 93.2,0 -0.9,10 -1.7,18.9 -0.7,8.3 -0.2,0 -89.7,0 0,38.2 76.4,0 10.1,0 -0.9,10 -8.8,98 -0.6,6.3 -76.2,21.2 0,38.6 98.5,-27.3 23.1,-259.4 -121.6,0 z m 0,149.8 0,59.5 41.4,-11.2 4.4,-48.3 -45.8,0 z"></path>
   
</svg>
