<svg  xmlns="http://www.w3.org/2000/svg"
 height="400" width="400" viewBox=" 0 0 425 425" class="partner">
  <path class="logotype logotext" d="m 190.7,240.3 c 0,0 0.5,-0.4 0.3,-1.1 l 0,0 C 153.9,158.1 103.3,96.81 103.3,96.81 c 0,0 -27.59,26.19 -25.61,52.39 1.07,19.9 15.95,31.6 15.95,31.6 24.06,23.3 82.16,53.1 95.76,59.8 0,0 0.9,0 1.3,-0.3 z m -9,19.8 c -0.4,-0.7 -1.3,-0.7 -1.3,-0.7 l 0,0 -96.82,3.2 c 10.52,18.8 28.22,33.3 46.62,29.1 12.8,-3.2 41.5,-23.4 51,-30.2 l 0,0 c 0.8,-0.7 0.5,-1.4 0.5,-1.4 z m 1.4,-8.5 c 0.5,-0.7 -0.4,-1.4 -0.4,-1.4 l 0,0 c -42.5,-28.7 -124.92,-73 -124.92,-73 -7.51,23.4 2.58,42.2 2.58,42.2 10.53,22 30.59,28.7 30.59,28.7 9.25,3.9 18.45,4.2 18.45,4.2 1.5,0.4 57.7,0 72.7,0 0.6,0 1,-0.7 1,-0.7 z m 38.7,-19.1 c 0.7,0.3 1.4,-0.7 1.4,-0.7 l 0,0 c 9.2,-13.5 51,-75.5 59.5,-113.4 0,0 4.6,-18.4 0,-30.81 0,0 -6,-23.38 -31.9,-29.76 0,0 -7.4,-1.77 -15.2,-2.83 0,0 -28.7,36.85 -14.9,176.4 l 0.3,0 c 0,1.1 0.8,1.1 0.8,1.1 z m 22.6,26.9 c 0,0 -0.7,0 -1,0.7 0,0 0,1.1 0.3,1.4 l 0,0 c 9.2,6.8 37.6,26.3 51,30.2 0,0 25.2,8.5 46.8,-28.7 l -97.1,-3.6 z m -9.9,-19.1 c 0,0 0.7,0.3 1.4,0 13.8,-6.7 71.6,-36.2 95.7,-59.5 0,0 14.9,-12.1 15.9,-31.9 C 349,122 322,96.81 322,96.81 c 0,0 -50.6,60.89 -87.8,142.09 l 0.3,0 c 0,0 -0.7,0.7 0,1.4 z M 367,177.2 c -6,3.3 -12.2,6.3 -18,10 -7.6,4 -15,8.2 -22.5,12.4 -12.7,7.1 -25.3,14.4 -37.8,21.8 -4.8,2.4 -9.2,5.5 -13.9,8.2 -2.5,1.6 -11,7 -12.9,7.7 -3.1,2.6 -6.9,4.1 -10,6.6 -3.4,1.5 -6.1,4.3 -9.3,6 -1.8,1.7 0.5,2.6 2.1,2.1 l 75.2,0 c 12.6,-2 24.8,-7.4 33.7,-16.7 3.6,-3.7 6.7,-8 9.3,-12.5 2.6,-4.4 4.4,-9.3 5.5,-14.2 0.7,-2.8 1.1,-5.7 1.5,-8.6 0,-3.1 0.7,-6.1 0,-9.2 0.1,-2.2 -0.2,-4.4 -0.8,-6.5 -0.5,-2.4 -0.9,-5.3 -2,-7.1 z m -163.8,55.3 c -0.7,0.3 -1.4,-0.7 -1.4,-0.7 l 0,0 c -9.2,-13.5 -50.9,-75.5 -59.4,-113.4 0,0 -4.6,-18.4 0,-30.81 0,0 6,-23.38 31.8,-29.76 0,0 7.4,-1.77 15.2,-2.83 0,0 28.7,36.85 14.9,176.4 l -0.3,0 c 0,1.1 -0.8,1.1 -0.8,1.1 z m 167,137.5 0,-50.7 -12,0 0,50.7 z m -54.2,-30.2 31.9,0 0,8.9 -31.9,0 c 0,9.2 3.9,12.4 13.1,12.4 l 18.8,0 0,8.9 -19.5,0 c -6.4,0 -11.7,-0.4 -17,-4.3 -5.7,-4.2 -8.5,-11 -8.5,-20.2 0,-17.7 8.1,-26.2 25.9,-26.2 l 19.1,0 0,8.9 -18.8,0 c -8.5,0 -12.7,3.9 -13.1,11.6 z m -88.6,-20.5 12.8,39 10.6,-39 13.8,0 12.1,39 12,-39 11.7,0 -17,50.7 -14.2,0 -11.7,-37.9 -10.2,37.9 -13.9,0 -18.4,-50.7 z m -28.6,0 23.3,50.7 -12.7,0 -5,-12.1 -23.9,0 -4.9,12.1 -12.2,0 23.2,-50.7 12.2,0 z m -14.6,29.8 16.3,0 -8.3,-19.5 -8,19.5 z m -59.3,0.7 c 0,8.8 2.8,12.7 12.3,12.7 9.6,0 12.4,-3.9 12.4,-12.7 l 0,-30.5 11.5,0 0,30.8 c 0,6.4 -0.8,11 -3.2,13.5 -4.5,4.9 -11.1,7.1 -20.7,7.1 -9.5,0 -16.1,-2.2 -20.6,-7.1 -2.6,-2.8 -3.2,-7.1 -3.2,-13.5 l 0,-30.8 11.5,0 0,30.5 z m -32.5,-10 0,-20.5 11.5,0 0,50.7 -11.5,0 0,-20.9 -25.72,0 0,20.9 -11.56,0 0,-50.7 11.56,0 0,20.5 z"></path>
</svg>
