<?xml version="1.0"?>

<svg xmlns="http://www.w3.org/2000/svg" viewBox="0 0 339 141.2" height="141.2" width="339"> <path d="m 317,52.32 -23.5,0 0,39.19 c 0,1.78 -0.7,3.28 -1.8,4.51 -1.1,1.1 -2.6,1.64 -4.3,1.77 l -13.7,0 c -1.9,-0.13 -3.4,-0.68 -4.5,-1.77 -1.1,-1.23 -1.8,-2.73 -1.8,-4.51 l 0,-39.19 -23.5,0 0,41.24 c 0.2,5.47 1.1,10.24 3.5,14.04 2.3,3.9 5.3,6.7 9.2,8.6 4.1,1.9 8.8,3 14.1,3 l 22.8,0 0,-0.2 c 4.9,0 9.2,-1.1 12.7,-3.2 3.4,-2.2 6.2,-5.2 7.9,-9 1.9,-3.8 2.9,-8.33 2.9,-13.24 l 0,-41.24 z M 81.96,54.78 C 77.86,53 73.35,52.18 68.44,52.32 l -15.16,0 L 47.4,53 c -1.36,0.41 -2.05,0.69 -2.05,0.69 L 45.35,22 22,22 l 0,97.2 23.35,0 0,-39.29 c 0.14,-1.64 0.69,-3.28 1.92,-4.37 1.22,-1.1 2.59,-1.78 4.5,-1.78 l 13.66,0 c 1.64,0 3.14,0.69 4.37,1.78 1.23,1.09 1.77,2.73 1.91,4.37 l 0,39.29 23.36,0 0,-42.3 c 0,-5.87 -1.23,-10.65 -3.56,-14.34 -2.45,-3.55 -5.59,-6.14 -9.55,-7.78 z m 79.44,36.73 c -0.1,1.78 -0.6,3.28 -1.7,4.51 -1.3,1.1 -2.8,1.64 -4.5,1.77 l -13.7,0 c -1.8,-0.13 -3.3,-0.68 -4.4,-1.77 -1.2,-1.23 -1.7,-2.73 -1.9,-4.51 l 0,-39.19 -23.3,0 0,41.24 c 0,5.47 1.1,10.24 3.2,14.04 2.2,3.9 5.4,6.7 9.3,8.6 4.1,1.9 8.6,3 14.1,3 l 22.9,0 0,-0.2 c 5,0 9.2,-1.1 12.6,-3.2 3.4,-2.2 6.2,-5.2 8.1,-9 1.7,-3.8 2.7,-8.33 2.8,-13.24 l 0,-41.24 -23.5,0 0,39.19 z m 41.3,27.69 23.3,0 0,-97.2 -23.3,0 0,97.2 z"></path> </svg>