<?xml version="1.0"?>

<svg xmlns="http://www.w3.org/2000/svg" viewBox="0 0 100 100" width="100" height="100">
   
  <path d="m 35.28,8.527 0,8.943 c -5.46,0.15 -9.77,1.29 -12.84,3.6 -3.31,2.49 -5,6.35 -5,11.1 l 0,1.23 -2.17,-2.17 a 1.338,1.338 0 0 0 -0.96,-0.41 1.338,1.338 0 0 0 -0.93,2.3 l 2.18,2.16 -7.031,0 0,19.18 0,1.35 7.031,0 -2.18,2.16 a 1.341,1.341 0 1 0 1.89,1.9 l 2.17,-2.17 0,1.22 c 0,10.59 2.26,18.76 7.03,24.29 4.73,5.54 11.9,8.26 21.08,8.26 9.2,0 16.41,-3.15 21.13,-9.44 2.15,-2.87 3.79,-6.34 4.93,-10.41 4.08,-1.15 7.55,-2.78 10.41,-4.93 6.29,-4.72 9.45,-11.94 9.45,-21.14 0,-9.18 -2.72,-16.34 -8.25,-21.09 -5.55,-4.75 -13.7,-7.01 -24.3,-7.01 l -1.23,0 2.18,-2.18 a 1.338,1.338 0 0 0 -0.98,-2.3 1.338,1.338 0 0 0 -0.92,0.41 l -2.16,2.18 0,-7.033 -20.53,0 z m 2.68,2.673 15.16,0 0,7.04 -0.55,0.55 0.55,0.56 0,7.01 -7.37,0 a 1.338,1.338 0 0 0 -0.23,0 1.338,1.338 0 0 0 -0.18,0 l -7.38,0 0,-15.16 z m 19.73,8.92 1.23,0 c 10.22,0 17.69,2.2 22.55,6.38 4.86,4.17 7.34,10.39 7.34,19.05 0,8.62 -2.79,14.8 -8.4,19 -2.21,1.66 -4.9,3.01 -8.07,4.04 0.8,-3.82 1.22,-8.07 1.3,-12.78 l 8.92,0 0,-20.53 -20.52,0 0,7.04 -2.17,-2.18 a 1.338,1.338 0 0 0 -0.97,-0.41 1.338,1.338 0 0 0 -0.93,2.31 l 2.19,2.16 -3.47,0 c -3.36,0 -5.58,-1.18 -7.22,-3.81 -1.53,-2.44 -2.43,-6.22 -2.56,-11.35 l 8.9,0 0,-7.03 2.16,2.19 a 1.341,1.341 0 1 0 1.9,-1.89 l -2.18,-2.19 z m -22.41,0 0,7.56 0,1.33 8.95,0 c 0.13,5.44 1.04,9.7 2.96,12.75 2.09,3.33 5.42,5.1 9.5,5.1 l 3.47,0 -2.19,2.17 a 1.344,1.344 0 1 0 1.9,1.9 l 2.17,-2.19 0,5.69 0,1.35 8.91,0 c -0.1,5.15 -0.6,9.69 -1.54,13.6 -3.92,0.95 -8.45,1.46 -13.6,1.55 l 0,-8.91 -20.53,0 0,19.18 0,1.35 20.53,0 0,-8.94 c 4.7,-0.1 8.96,-0.5 12.77,-1.29 -1.03,3.16 -2.38,5.86 -4.03,8.08 -4.2,5.6 -10.37,8.38 -19,8.38 -8.66,0 -14.88,-2.44 -19.06,-7.3 -4.17,-4.87 -6.37,-12.34 -6.37,-22.56 l 0,-1.22 2.19,2.17 a 1.339,1.339 0 1 0 1.88,-1.9 L 22,55.81 l 7.04,0 0,-20.53 -7.02,0 2.17,-2.16 a 1.338,1.338 0 1 0 -1.88,-1.89 l -2.19,2.17 0,-1.23 c 0,-4.16 1.3,-7 3.93,-8.96 2.42,-1.82 6.15,-2.9 11.23,-3.06 z m -24.08,17.82 7.03,0 0.55,0.55 0.56,-0.55 7.03,0 0,15.16 -7.03,0 -0.56,-0.56 -0.55,0.56 -7.03,0 0,-15.16 z m 53.53,0 15.16,0 0,15.16 -15.16,0 0,-7.03 0.55,-0.55 -0.55,-0.55 0,-7.03 z m -26.77,26.76 15.16,0 0,15.16 -15.16,0 0,-15.16 z"></path>
  
</svg>
