<?xml version="1.0"?>

    <svg xmlns="http://www.w3.org/2000/svg" viewBox="0 0 434 65" width="434" height="65">
        <path d="m 228.5,53.48 29.5,0 c 6,0 9,-1.7 8,-10.3 l 0,-32.1 -9,0 0,30.3 c 0,3.6 0,4 -3,4 l -16.2,0 0,-34.3 -9.3,0 0,42.4 z m 199.6,-42.4 0,42.4 -9,0 0,-42.4 9,0 z m -152.1,0 29,0 c 5,0 9,0.6 9,9.1 l 0,33.3 -10,0 0,-30.2 c 0,-3.7 0,-4.5 -3,-4.5 l -16,0 0,34.7 -9,0 0,-42.4 z m -86.2,0 11.5,17.3 11.4,-17.3 11.3,0 -18,27.1 0,15.3 -9.3,0 0,-15.3 -18.2,-27.1 11.3,0 z m -55,0 9.3,0 0,16.8 20.6,0 0,-16.8 9.2,0 0,42.4 -9.2,0 0,-17.3 -20.6,0 0,17.3 -9.3,0 0,-42.4 z M 352,22.78 c 0,-2.4 -2,-4 -4,-4 l -16,0 0,26.6 16,0 c 4,-0.2 4,-2.4 4,-4.1 l 0,-18.5 z m 9,-2.6 0,23 c 0,7.3 -4,10.3 -9,10.3 l -29,0 0,-42.4 29,0 c 8,0 9,5 9,9.1 z m 49.1,-9.1 0,42.4 -9,0 0,-12.2 -21,0 0,12.2 -9.1,0 0,-33.3 c 0,-5.8 2,-9.1 9.1,-9.1 l 30,0 z m -9,7.7 -18,0 c -2,0.3 -3,1 -3,4.5 l 0,9.7 21,0 0,-14.2 z M 57.84,5.002 c -3.6,0.03 -7.19,0.255 -10.74,0.68 -13.3,1.9 -25.9,4.898 -35.9,14.098 -4.798,4.4 -7.697,11.1 -5.397,17.5 3.1,7.8 11.297,13 18.497,16 21.5,8.8 50.7,8.4 71.4,-1.5 7.2,-3.7 15.2,-9.6 16.1,-18.1 0.9,-9.3 -7.3,-16.2 -14.5,-20.1 C 94.7,12.08 91.9,10.98 89,9.98 79.4,6.605 68.62,4.918 57.84,5.002 Z M 58.7,9.48 c 9.5,-0.1 18.5,1.4 26.9,3.8 0.6,0.3 1.1,0.3 1.5,0.9 0.2,0.5 -0.4,0.9 -0.6,1.3 -7.1,5.5 -15,8.6 -23.2,11.2 -4.3,1 -8.5,2.9 -13.2,1.8 -1,-0.2 -2,-1 -2.6,-2 -1.1,-3.2 0.4,-6.5 1.7,-9.2 1.9,-3.6 5,-7.7 9.5,-7.8 z m -18.31,1.79 c 0.39,0 0.79,0 1.01,0.41 l -0.1,0.4 c -9.1,10.2 -14.9,22 -20.5,33.7 -1,1 -2.1,-0.4 -3,-0.8 -5,-3.2 -9.496,-8.5 -8.196,-14.8 C 11.7,22.18 20,17.78 27,14.88 c 4.2,-1.6 8.4,-2.9 13,-3.6 0.12,0 0.26,-0 0.39,-0 z m 56.41,7.21 c 1.4,0.1 2.6,1.3 3.7,2.2 4.2,3.4 8,8.1 6.8,13.8 -2.1,8.4 -11.3,12.8 -18.6,15.7 -3.9,1.4 -8,2.7 -12.3,3.1 -0.3,0 -0.7,0 -0.8,-0.4 l 0.1,-0.4 c 6.2,-7 10.9,-14.8 15,-22.7 1.9,-3.5 3.7,-7.2 5.3,-10.8 0.2,-0.3 0.4,-0.4 0.8,-0.5 z M 64.69,35.79 c 0.47,0 0.93,0 1.41,0.1 1.5,0.2 3,1.3 3.5,2.7 0.8,4.2 -1.3,7.7 -3.2,11.1 -2,3.1 -5.3,5.9 -9.4,5.4 -9,-0.1 -17.9,-1.5 -26.1,-4 -0.4,-0.1 -0.8,-0.3 -0.9,-0.7 -0.3,-0.4 0.1,-0.9 0.3,-1.1 7.5,-6.2 16.4,-8.9 25.3,-11.9 2.8,-0.87 5.83,-1.67 9.09,-1.59 z"></path>
    </svg>