<svg  xmlns="http://www.w3.org/2000/svg"  height="414" width="870" viewBox="0 0 870 414"> <path class="logotype logotext" d="m 55,55 0,20.8 147.9,0 0,-20.8 L 55,55 Z m 168.9,0 0,20.8 210.8,0 c 0,0 -21.5,-20.8 -50.1,-20.8 l -160.7,0 z m 252.2,0 0,20.8 127.5,0 L 596,55 476.1,55 Z m 218.9,0 -7.5,20.8 126.3,0 0,-20.8 -118.8,0 z m -640,40.45 0,20.75 147.9,0 0,-20.75 -147.9,0 z m 168.9,0 0,20.75 235.3,0 c 0,0 -2.8,-16 -7.6,-20.75 l -227.7,0 z m 252.2,0 0,20.75 141.5,0 -7,-20.75 -134.5,0 z m 203.8,0 -7,20.75 140.9,0 0,-20.75 -133.9,0 z m -582.4,40.45 0,20.8 64.1,0 0,-20.8 -64.1,0 z m 168.9,0 0,20.8 64.1,0 0,-20.8 -64.1,0 z m 126.4,0 0,20.8 64,0 c 0.1,0 4.1,-11 4.1,-20.8 l -68.1,0 z m 125.8,0 0,20.8 113.6,0 -7.6,-20.8 -106,0 z m 147.3,0 -7.6,20.8 114.2,0 0,-20.8 -106.6,0 z m -568.4,40.5 0,20.8 64.1,0 0,-20.8 -64.1,0 z m 168.9,0 0,20.8 163.6,0 c 0,0 13.7,-10.7 18.1,-20.8 l -181.7,0 z m 252.2,0 0,20.8 64,0 0,-11.6 4.1,11.6 117.4,0 4.3,-11.6 0,11.6 64.1,0 0,-20.8 -120.3,0 -6.4,17.6 -6.4,-17.6 -120.8,0 z m -421.1,40.4 0,20.8 64.1,0 0,-20.8 -64.1,0 z m 168.9,0 0,20.8 181.7,0 C 443.7,227.5 430,216.8 430,216.8 l -163.6,0 z m 252.2,0 0,20.8 64,0 0,-20.8 -64,0 z m 75.7,0 7.7,20.8 88,0 7.4,-20.8 -103.1,0 z m 114.1,0 0,20.8 64.1,0 0,-20.8 -64.1,0 z m -610.9,40.5 0,20.8 64.1,0 0,-20.8 -64.1,0 z m 168.9,0 0,20.8 64.1,0 0,-20.8 -64.1,0 z m 126.4,0 0,20.8 68.1,0 c 0,-9.8 -4.1,-20.8 -4.1,-20.8 l -64,0 z m 125.8,0 0,20.8 64,0 0,-20.8 -64,0 z m 90.2,0 7.5,20.8 59,0 7.6,-20.8 -74.1,0 z m 99.6,0 0,20.8 64.1,0 0,-20.8 -64.1,0 z m -652.2,40.4 0,20.9 147.9,0 0,-20.9 -147.9,0 z m 167.7,0 0,20.9 227.7,0 c 4.8,-4.8 7.6,-20.9 7.6,-20.9 l -235.3,0 z m 253.3,0 0,20.9 105.4,0 0,-20.9 -105.4,0 z m 146.2,0 7.7,20.9 30,0 7.3,-20.9 -45,0 z m 85,0 0,20.9 106.6,0 0,-20.9 -106.6,0 z m -652.2,40.5 0,20.8 147.9,0 0,-20.8 -147.9,0 z m 167.7,0 0,20.8 160.7,0 c 28.6,0 50.1,-20.8 50.1,-20.8 l -210.8,0 z m 253.3,0 0,20.8 105.4,0 0,-20.8 -105.4,0 z m 160.8,0 7.5,20.7 1.2,0.1 7.6,-20.8 -16.3,0 z m 70.4,0 0,20.8 106.6,0 0,-20.8 -106.6,0 z"></path></svg>
