<?xml version="1.0"?>

<svg xmlns="http://www.w3.org/2000/svg" viewBox="0 0 758.8 362.7" height="362.7" width="758.8"> <path id="path4153" d="m 170.4,33 c -17.1,0 -33,5 -46.4,13.5 l -82.62,0 0,3.9 83.72,0 97,0 c -4.6,-3.6 -9.6,-6.6 -14.9,-9.1 l 91.3,0 0,-3.8 -100.7,0 C 189.2,34.5 180,33 170.4,33 Z m 475.9,0.5 c -50.5,0 -86.2,40.5 -86.2,90.1 0,49.6 35.2,83.4 84.3,83.4 53.9,0 70.9,-18 71.2,-18.9 l 5.5,-24 c 0.2,-1.2 -1,-2.6 -2.2,-2.6 -1.4,0 -2.9,1.4 -3.3,3 -3.6,11.1 -27.1,35.1 -64.7,35.1 -46,0 -70,-41.7 -70,-83.4 0,-44.6 22.5,-75.7 69.3,-75.7 30.9,0 47.9,15.6 62.7,41.1 1,1.8 2.7,8 5.5,8 4.1,0 2,-8 1.5,-20.6 -0.7,-15.6 -0.7,-19.5 -3.4,-19.5 -2.4,0 -3.8,2.4 -5.7,2.4 -7,0 -19.4,-18.4 -64.5,-18.4 z m -319.2,2.2 c -1.9,0 -2.4,0.5 -2.4,2.6 0,5.2 19.1,0.4 19.4,18 l 0,122.6 c 0,23.8 -18.7,15.9 -18.7,22.8 0,2.4 0.7,3.6 5,3.6 3.4,0 8.4,-0.9 23,-0.9 10.3,0 20.6,0.9 26.1,0.9 4.1,0 4.8,-0.7 4.8,-2.4 0,-7.2 -21.3,-1.6 -21.3,-18 l 0,-128.6 c 0,-18 17.3,-12.5 17.3,-18.2 0,-1.9 -0.8,-2.4 -4.6,-2.4 -7.4,0 -14.8,0.9 -22.3,0.9 -8.8,0 -17.5,-0.9 -26.3,-0.9 z m 68.9,0 c -1.4,0 -3.3,0.6 -3.3,2.4 0,6.5 19.6,-1.2 19.6,23.1 l 0,119.5 c 0,22.7 -17,16.7 -17,22.2 0,1.5 0.5,2.4 2.4,2.4 1.7,0 24.7,-0.9 26.8,-0.9 12.3,0 24.5,0.9 36.7,0.9 66.4,0 92.5,-38.1 92.5,-93.2 0,-44.3 -41.7,-76.4 -84.1,-76.4 -20.6,0 -36.2,0.9 -52,0.9 -7.2,0 -14.1,-0.9 -21.6,-0.9 z m 59,6 c 45.5,0.2 81,30.3 81,83.6 0,55.4 -32.4,73.6 -66.4,73.6 -10.8,0 -29,-2.9 -36.9,-10.8 -2.2,-2.3 -1.5,-13.7 -1.5,-17.6 l 0,-113.8 c 0,-11.2 1,-15 23.8,-15 z M 106.8,60.9 c -2.9,3.2 -5.9,6.7 -8.29,10.4 l -57.5,0 0,3.7 58.3,0 145.39,0 c -2.1,-3.6 -4.5,-7.1 -7,-10.3 l 59.2,0 0,-3.8 -62.5,0 -127.6,0 z M 90.51,87 c -1.6,3.9 -2.8,8.1 -3.8,12.3 l -45.73,0 0,3.9 47.03,0 166.79,0 c -0.8,-4.3 -2.1,-8.4 -3.6,-12.4 l 45.8,0 0,-3.8 -50,0 0,0 -156.49,0 z m -5.8,24.2 c 0.2,4.9 -0.2,4.3 -0.2,7.4 0,1.3 0,3.1 0.1,4.9 l -44.57,0 0,3.8 47.57,0 168.19,0 c 0.3,-2.9 0.4,-5.8 0.4,-8.7 0,-1.2 -0.1,-2.4 -0.1,-3.6 l 41.7,0 0,-3.8 -41.9,0 -171.19,0 z m 1.5,24.4 c 0.9,4.2 2,8.2 3.4,12.1 l -49.86,0 0,3.8 53.86,0 156.19,0 c 2.1,-4.6 3.5,-7.8 4.7,-12.2 l 43.2,0 0,-3.7 -42.3,0 -169.19,0 z m 157.39,21.7 0,0.5 -151.19,0 c 4.2,5.8 8.09,11.3 12.39,16.3 l -65.37,0 0,3.8 71.47,0 121.6,0 c 4.3,-4.5 9.2,-10.2 13.2,-16.8 l 52.1,0 0,-3.8 -54.2,0 z m -131,24.9 c 15.3,13.8 35.5,22.3 57.8,22.3 20.3,0 38.9,-6.8 53.6,-18.5 l 74.7,0 0,-3.8 -75.1,0 0,0 -111,0 z m 109.1,50.5 c -4.5,0.5 -10.6,2.4 -12.4,3 -0.5,0.3 -0.5,1.2 0,1.5 l 1.8,0.9 c 1.4,0.6 2.4,1.7 0.1,8.6 l -15.7,46.6 c -1.7,5 -2.2,6.8 -2.2,8.4 0,1.5 0.9,2.9 3.9,2.9 8.1,0 14.4,-8.2 16.9,-13.1 0,-1 -0.6,-1.5 -1.6,-1.5 -4.5,5.3 -9.1,10.1 -11.3,10.1 -1.1,0 -1.2,-1 -0.4,-3.3 l 15.6,-46.5 c 3.5,-10.7 4.5,-13.4 5.8,-17 l -0.5,-0.6 z m 187.4,0 c -3.5,0.3 -10,1.7 -11.6,2.4 -0.4,0.3 -0.4,0.6 -0.2,1.2 l 2,1.4 c 1.6,1 1.1,2.5 -1.1,9 l -18.7,55.4 c -0.9,2.2 1.8,2.5 2.9,2.5 0.9,0 1.4,-0.4 1.7,-1.2 2.6,-5 7.5,-14.6 12,-20.6 5.1,-6.6 8.3,-9.9 12.5,-13 1.8,-1.4 3.9,-2.6 5.3,-2.6 1.4,0 2.1,1.1 2.1,2.9 0,5.5 -4.5,19 -7.1,25.4 -1.5,3.5 -2.5,5 -4,5 -0.7,0 -1.7,-0.7 -2.5,-1.3 -0.5,-0.4 -1,-0.6 -1.4,-0.6 -1.3,0 -2.7,1.5 -2.7,3.2 0,0.7 0.4,2.8 3.7,2.8 1.3,0 3.9,-0.6 7.2,-3.8 2.5,-2.6 4.4,-4.8 6.4,-8.1 3.4,-6.3 7.7,-16.3 7.7,-23.1 0,-3.4 -1.6,-6.6 -5.9,-6.6 -2.7,0 -5.9,1.2 -9.4,3.9 -3.6,2.4 -8.7,6.5 -15.6,16.2 l -0.2,-0.2 0,0.1 0,-0.2 0,0.1 10.2,-29.5 c 1.9,-5.5 5.1,-14.5 7.1,-20.1 l -0.4,-0.6 z m -319.09,3.9 c -0.2,0 -3.9,2.7 -7.2,3.3 -0.4,1.7 -1.7,4.2 -5.95,10.1 l -17.33,24.4 c -7.6,10.8 -13.4,18.6 -16.26,22.2 -1.97,2.4 -4.14,3.8 -7.1,4.2 l -2.66,0.3 c -0.59,0.6 -0.69,1.8 -0.19,2.4 3.54,-0.2 7.09,-0.3 10.93,-0.3 3.94,0 7,0.1 10.05,0.3 0.69,-0.4 0.96,-1.8 0.2,-2.4 l -3.64,-0.6 c -1.88,-0.3 -2.27,-0.9 -2.27,-1.5 0,-0.5 0.98,-2 4.43,-7.5 l 7.19,-11.1 c 1.87,-3 2.1,-3.1 5.02,-3.1 l 14.18,0 c 2.1,0 2.2,0.3 2.1,2.5 l -0.9,13.2 c -0.3,4.3 -0.82,5.7 -1.12,6.2 -0.38,0.6 -1.65,1.4 -3.83,1.6 l -3,0.3 c -0.9,0.4 -0.9,2 0.1,2.4 2.93,-0.2 6.76,-0.3 11.25,-0.3 4.4,0 8.1,0.1 11.2,0.3 0.7,-0.4 1,-1.8 0.4,-2.4 l -2.6,-0.3 c -5.3,-0.6 -5.4,-0.7 -4.8,-11.7 l 2,-37.2 c 0.4,-8.7 0.9,-12.9 0.9,-14.5 0,-0.5 -0.7,-0.8 -1.1,-0.8 z M 503,237.8 c -1.1,0.5 -1.2,1.8 -0.6,2.6 l 1.7,0.4 c 5.4,0.9 5.3,2.3 2.3,11.6 L 494.9,289 c -3.2,10.1 -4.1,11.3 -8.9,11.8 l -3,0.3 c -0.7,0.6 -0.7,1.9 0.1,2.4 3.8,-0.2 7.2,-0.3 11.1,-0.3 4.2,0 7.7,0.1 13.4,0.3 0.7,-0.4 1,-1.7 0.4,-2.4 l -3.9,-0.3 c -5,-0.4 -4.7,-2.6 -1.8,-11.8 l 4.3,-14.1 c 0.8,-2.6 1,-2.9 3.2,-2.9 l 7.3,0 c 8,0 10.2,1.2 10.1,4.4 l -0.1,3.7 c 0.7,0.6 2,0.8 2.6,0 0.4,-2.4 1.3,-6.1 2.5,-9.9 1.2,-3.6 2.7,-7.5 3.4,-9.3 -0.2,-0.6 -2.1,-0.7 -2.6,-0.1 l -1.7,3 c -2.1,4.2 -4.1,4.9 -13.5,4.9 l -6.8,0 c -2,0 -2.2,-0.4 -1.5,-2.5 l 6.8,-21.6 c 0.9,-3 0.9,-3.3 3.7,-3.3 l 5.4,0 c 5.1,0 8.2,0.3 10.5,0.7 4.3,1.2 4,3.8 3.4,8.9 0.3,0.7 2.1,0.9 2.5,0.1 1,-3.6 3.3,-11.4 4,-13.2 -2.8,0.3 -7.6,0.3 -13.9,0.3 l -18.3,0 c -2.1,0 -3.9,0 -5.6,0 -1.8,0 -3.4,-0.1 -5,-0.3 z m -419.69,9.5 c 0.2,0 0.2,1.2 0.2,2.5 l -1.6,21.6 c -0.1,1.8 -0.3,2 -1.97,2 l -12.46,0 c -2.17,0 -2.47,-0.3 -1.65,-1.5 l 13.66,-19.8 c 2.92,-4.2 3.52,-4.8 3.82,-4.8 z m 289.09,7.6 c -0.5,0 -1,0.1 -1.4,0.3 l -5.5,9.8 -7.9,1.3 c -0.9,0.5 -1.2,1.8 -1,2.9 l 7.6,0 -9.2,27.1 c -1,3 -1.4,4.4 -1.4,5.7 0,1.1 1.3,2.6 2.7,2.6 4.1,0 13.4,-6 18.9,-14.3 0.2,-1.2 -0.4,-1.6 -1.4,-1.6 -3.3,3.7 -9.7,8.8 -11.2,8.8 -0.8,0 -1.3,-0.6 -0.7,-2.4 l 8.8,-25.9 10.8,0 c 1.3,-0.8 1.9,-2.7 1.2,-3.8 l -10.8,0 2.9,-9.6 c -0.5,-0.6 -1.5,-0.9 -2.4,-0.9 z m 232,0 c -0.5,0 -1,0.1 -1.4,0.3 l -5.5,9.8 -7.9,1.3 c -1,0.5 -1.3,1.8 -1.1,2.9 l 7.7,0 -9.3,27.1 c -1,3 -1.4,4.4 -1.4,5.7 0,1.1 1.3,2.6 2.7,2.6 4.1,0 13.4,-6 18.9,-14.3 0.2,-1.2 -0.4,-1.6 -1.4,-1.6 -3.2,3.7 -9.7,8.8 -11.2,8.8 -0.8,0 -1.3,-0.6 -0.7,-2.4 l 8.9,-25.9 10.7,0 c 1.3,-0.8 1.9,-2.7 1.2,-3.8 l -10.7,0 2.8,-9.6 c -0.5,-0.6 -1.4,-0.9 -2.3,-0.9 z m -418.5,5.6 c -0.4,0 -0.9,0.1 -1.3,0.3 l -2.8,6.3 c -0.5,-1.1 -1.6,-2 -2,-2.1 -0.6,-0.3 -1.3,-0.6 -2.3,-0.6 -2.6,0 -5.1,0.7 -8.9,2.8 -4,2.3 -8.3,6.3 -13,12.8 -6.5,9 -8.7,16.8 -8.7,19.1 0,2.8 1.6,5.5 4.4,5.5 4.6,0 14.6,-6.8 21.6,-15.5 l 0.3,0 -3.2,9 c -0.8,2.3 -1,3.2 -1,3.9 0,0.7 0.6,2.6 2.9,2.6 5.4,0 12.4,-5.5 16.5,-11 0,-0.9 -0.7,-1.3 -1.4,-1.3 -5.6,4.9 -8.5,6.6 -10.1,6.6 -0.8,0 -1.3,-0.6 -0.7,-2.3 3.1,-9 11.7,-30.7 13.2,-34.3 -0.5,-1 -2,-1.8 -3.5,-1.8 z m 105.3,2.5 c -0.2,0 -0.3,0 -0.5,0 -1,1.2 -2.4,3.5 -5.8,3.5 -2.4,0 -5,-1.1 -7.2,-1.7 -1.8,-0.6 -4.4,-1 -6.3,-1 -2.3,0 -6.6,0.7 -10.3,4 -2.6,2.3 -4.4,5 -4.4,7.1 0,1.6 1.2,3.6 3.6,3.6 2.4,0 3.5,-1.7 3.5,-2.9 -0.8,-0.6 -1.6,-2.1 -1.6,-3.6 0,-1 0.6,-3.6 4.2,-3.6 2.8,0 6.7,0.6 11.3,2 1.8,0.6 2.2,1 1.1,2.2 -8.9,8.4 -14.9,14.1 -23.9,22.3 -4.4,4 -5.7,5.6 -5.7,7 0,1 0.5,3 3.8,2.7 1,-3.3 2.4,-5.1 5.7,-5.1 2.5,0 5.9,2 9.6,3.5 2.1,0.9 5.4,2.5 8.1,2.5 2.3,0 4.5,-0.8 7.9,-3.4 3,-2.5 5.1,-6 5.1,-8.6 0,-2.3 -1.5,-5 -4.3,-5 -0.7,0 -2.7,0.3 -1.9,2.9 0.7,2.2 1,3.8 1,4.7 0,2.8 -2.5,4.6 -4.6,4.6 -1.8,0 -4,-0.9 -6.2,-1.9 -3.8,-1.8 -7.7,-3.8 -12.3,-3.6 l -0.1,-0.3 c 12.3,-12.7 26.7,-25 32.1,-29.9 0.2,-1.1 -0.7,-2 -1.9,-2 z m -174,0 c -5,0 -11,4.1 -14.7,9.2 -0.1,0.7 0.4,1.5 1.2,1.5 3.2,-2.9 6.7,-5 8.9,-5 0.8,0 0.8,0.9 0.3,2.3 -0.5,1.3 -10.9,29.8 -11.4,31.1 -0.9,2.2 1.8,2.5 2.9,2.5 0.8,0 1.2,-0.3 1.7,-1.2 5.8,-10.8 9.9,-18.5 15.1,-25.1 5.4,-6.7 11.2,-11.7 13.6,-11.7 1.5,0 1.6,1.2 1.6,2.4 0,2 -1.3,5.4 -2.1,7.2 -2.3,5 -5.9,14.6 -8,19.5 -2,4.9 -2.3,5.6 -2.3,6.5 0,1.1 1.4,2.4 2.3,2.4 5.4,0 13.2,-4.7 17,-11 0,-0.9 -0.2,-1.6 -1.6,-1.5 -2.9,3.6 -7.6,6.8 -9.3,6.8 -0.7,0 -0.6,-0.9 -0.2,-1.9 0.3,-0.8 7.4,-16.9 9.2,-21.7 0.8,-2.4 1.6,-5.4 1.6,-6.9 0,-3.3 -1.7,-5.4 -5.5,-5.4 -7.4,0 -17.2,10.8 -24.2,21.5 l -0.3,-0.2 6.7,-17.2 c 0.9,-2.3 -0.2,-4.1 -2.5,-4.1 z m 111.2,0 c -4.8,0 -9.2,6.2 -11.2,12.6 0.2,0.9 0.8,1.7 1.8,1.4 2.1,-4.1 3.8,-7.5 5.8,-7.5 1.8,0 3.5,3.9 3.7,14.8 0.1,8.4 -0.6,17.5 -2,22.5 -1.8,6.5 -6.2,12.7 -8.6,14.8 -2.4,1.9 -4.2,2.7 -5.5,2.7 -1.5,0 -2.4,-1.3 -2.7,-1.8 -0.7,-0.9 -1.7,-1.5 -2.7,-1.5 -2.2,0 -3.9,1.7 -3.9,4.2 0,2.5 1.9,4.5 5.1,4.5 3.2,0 8.1,-1.5 15.4,-9.9 7.9,-9 11.3,-15.5 16.2,-23.7 8.8,-14.8 11.6,-27.5 11.5,-30.1 0,-1 -0.3,-1.5 -0.9,-1.9 -0.8,-0.5 -2.1,-0.9 -2.8,-0.9 -0.7,0 -2.2,0.1 -2.4,3.1 -0.1,2.4 -1.5,12.5 -3.6,18.2 -2.2,6 -5,12.1 -8.3,17 l -0.4,0 c 1.4,-8.2 1.6,-15.4 1.5,-21.7 -0.2,-6.9 -1,-16.8 -6,-16.8 z m 92,0 c -2.9,0 -6.7,0.8 -11.8,4.8 -10.8,8.1 -14.7,20.3 -14.7,26.4 0,4.9 2.1,10.4 8,10.4 4.1,0 9.7,-1.6 15.7,-8.9 0.2,-0.9 -0.4,-1.8 -1.2,-1.8 -4.4,3.8 -6.8,5.8 -10.4,5.8 -2.6,0 -4.7,-2.3 -4.7,-5.6 0,-4.1 0.7,-7.1 1.4,-8.9 14.2,-3.9 23.9,-8.8 23.9,-16.2 0,-2.7 -2.3,-6 -6.2,-6 z m 133.5,0 c -2.9,0 -6.7,0.8 -11.8,4.8 -10.8,8.1 -14.7,20.3 -14.7,26.4 0,4.9 2.1,10.4 8,10.4 4.1,0 9.7,-1.6 15.7,-8.9 0.2,-0.9 -0.4,-1.8 -1.2,-1.8 -4.4,3.8 -6.8,5.8 -10.4,5.8 -2.6,0 -4.7,-2.3 -4.7,-5.6 0,-4.1 0.7,-7.1 1.4,-8.9 14.2,-3.9 23.9,-8.8 23.9,-16.2 0,-2.7 -2.3,-6 -6.2,-6 z m 100.2,0 c -4.6,0 -14.5,7.8 -17,11.7 -0.1,0.9 0.7,1.7 1.7,1.5 2.3,-2.4 7.4,-6.9 9.3,-6.9 0.8,0 0.7,1.1 0,3 l -9,23.9 c -1.7,4.4 -1.2,8.4 2.8,8.4 5.3,0 17.5,-12.6 24.6,-21.6 l 0.2,0.1 -6.7,18.1 c -0.6,1.5 0.9,3.4 2.5,3.4 5.2,0 14.7,-7.8 17.2,-12.5 -0.1,-1.2 -0.8,-1.6 -1.7,-1.5 -2.6,3.2 -7.8,7.8 -9.7,7.8 -1,0 -0.9,-1.2 -0.4,-2.5 4.1,-11.7 10.6,-27.8 11.5,-30.5 -0.4,-1.2 -2.7,-2.2 -4.8,-1.8 -3.2,6 -8.4,17.4 -17.3,26.3 -5.2,5.1 -9.1,8.2 -10.6,8.2 -1.1,0 -1.5,-1 -0.7,-3.3 L 557.1,266 c 0.6,-1.8 -1.7,-3 -3,-3 z m 76.9,0 c -4.7,0 -14.5,7.8 -17.1,11.7 -0.1,0.9 0.7,1.7 1.7,1.5 2.4,-2.4 7.5,-6.9 9.4,-6.9 0.7,0 0.7,1.1 0,3 l -9.1,23.9 c -1.7,4.4 -1.2,8.4 2.9,8.4 5.3,0 17.5,-12.6 24.6,-21.6 l 0.2,0.1 -6.7,18.1 c -0.6,1.5 0.9,3.4 2.4,3.4 5.3,0 14.7,-7.8 17.3,-12.5 -0.1,-1.2 -0.9,-1.6 -1.8,-1.5 -2.6,3.2 -7.8,7.8 -9.6,7.8 -1,0 -0.9,-1.2 -0.4,-2.5 4.1,-11.7 10.5,-27.8 11.5,-30.5 -0.4,-1.2 -2.8,-2.2 -4.8,-1.8 -3.3,6 -8.4,17.4 -17.4,26.3 -5.1,5.1 -9,8.2 -10.5,8.2 -1.1,0 -1.6,-1 -0.7,-3.3 l 11,-28.8 c 0.6,-1.8 -1.7,-3 -2.9,-3 z m 44.7,0 c -4.7,0 -8.5,4.2 -11.6,9.5 -0.1,1.2 0.6,1.8 1.5,1.6 1.8,-2.4 4.5,-5.1 7,-5.1 0.9,0 1.1,0.9 0.8,2 -2.6,9.7 -8.8,27.1 -10.1,31.1 -0.7,2.1 2.1,2.5 3.2,2.5 0.8,0 1.3,-0.4 1.7,-1.2 5.2,-11.3 10.7,-23.3 16.8,-31.1 1.4,-1.9 2.5,-3 3.4,-3 1,0 1.6,1.4 2.1,3.9 0.4,2.1 1.9,2.1 3.1,0.6 1.2,-1.6 2.1,-4.5 2.1,-6 0,-1.5 -0.5,-4.8 -3.9,-4.8 -2.5,0 -5,2.1 -7.2,5.1 -2.6,3.3 -7.4,11.1 -10.4,16.7 l -0.5,0 4.3,-12.5 c 0.8,-2.7 2.6,-9.3 -2.3,-9.3 z m 43.9,0 c -2.9,0 -6.7,0.8 -11.9,4.8 -10.7,8.1 -14.6,20.3 -14.6,26.4 0,4.9 2,10.4 7.9,10.4 4.2,0 9.8,-1.6 15.8,-8.9 0.2,-0.9 -0.4,-1.8 -1.3,-1.8 -4.3,3.8 -6.8,5.8 -10.3,5.8 -2.7,0 -4.8,-2.3 -4.8,-5.6 0,-4.1 0.7,-7.1 1.4,-8.9 14.2,-3.9 24,-8.8 24,-16.2 0,-2.7 -2.3,-6 -6.2,-6 z m -401.2,3 c 1.8,0 2.3,1.4 2.3,2.4 0,0.8 -0.8,3.8 -3.8,6.6 -3.7,3.5 -6.7,5.4 -13.2,7.4 1.1,-2.9 3.4,-7.4 7.2,-11.6 3.6,-3.9 6.2,-4.8 7.5,-4.8 z m 133.5,0 c 1.8,0 2.3,1.4 2.3,2.4 0,0.8 -0.8,3.8 -3.8,6.6 -3.7,3.5 -6.7,5.4 -13.2,7.4 1.1,-2.9 3.4,-7.4 7.2,-11.6 3.6,-3.9 6.2,-4.8 7.5,-4.8 z m 265.7,0 c 1.8,0 2.3,1.4 2.3,2.4 0,0.8 -0.8,3.8 -3.9,6.6 -3.6,3.5 -6.7,5.4 -13.2,7.4 1.2,-2.9 3.5,-7.4 7.3,-11.6 3.5,-3.9 6.1,-4.8 7.5,-4.8 z m -543.2,2.1 c 2.6,0 4.2,1.7 4.9,3.6 -1.5,5.7 -5.7,14.3 -13.2,21.3 -5.6,5.1 -8.5,6.4 -9.5,6.4 -0.9,0 -1.5,-0.7 -1.5,-1.9 0,-7 6,-19.9 12.3,-25.5 3.1,-2.8 4.6,-3.9 7,-3.9 z"></path> </svg>