<?xml version="1.0"?>

<!-- Generator: Adobe Illustrator 19.1.0, SVG Export Plug-In . SVG Version: 6.00 Build 0)  -->
<svg version="1.1" id="Layer_1" xmlns="http://www.w3.org/2000/svg" xmlns:xlink="http://www.w3.org/1999/xlink" x="0px" y="0px" width="600px" height="200px" viewBox="0 0 600 200" enable-background="new 0 0 600 200" xml:space="preserve">
<g>
	<path d="M76.688,171.416v1.923h-5.444v14.231h-2.21V173.34H63.59v-1.923H76.688z"></path>
	<path d="M78.909,171.416h11.723v1.98h-9.59v4.902h8.864v1.872h-8.864v5.474h9.755v1.926H78.909V171.416z"></path>
	<path d="M105.149,172.592c1.116,1.078,1.735,2.302,1.859,3.673h-2.133c-0.237-1.041-0.711-1.865-1.42-2.473
		c-0.71-0.609-1.705-0.914-2.986-0.914c-1.563,0-2.825,0.56-3.786,1.679c-0.962,1.119-1.442,2.835-1.442,5.144
		c0,1.894,0.434,3.429,1.301,4.607c0.869,1.178,2.163,1.767,3.884,1.767c1.584,0,2.791-0.618,3.618-1.857
		c0.44-0.653,0.767-1.51,0.984-2.576h2.133c-0.188,1.703-0.811,3.128-1.87,4.279c-1.268,1.386-2.979,2.08-5.131,2.08
		c-1.856,0-3.414-0.569-4.675-1.706c-1.659-1.505-2.489-3.827-2.489-6.967c0-2.383,0.623-4.338,1.87-5.865
		c1.348-1.657,3.206-2.485,5.576-2.485C102.464,170.976,104.033,171.514,105.149,172.592z"></path>
	<path d="M110.043,171.416h2.21v6.674h8.303v-6.674h2.21v16.154h-2.21v-7.556h-8.303v7.556h-2.21V171.416z"></path>
	<path d="M126.253,171.416h2.578l8.056,13.053v-13.053h2.089v16.154h-2.459l-8.176-13.038v13.038h-2.089V171.416z"></path>
	<path d="M155.825,173.723c1.07,1.432,1.606,3.26,1.606,5.489c0,2.412-0.612,4.418-1.837,6.017
		c-1.437,1.877-3.486,2.815-6.148,2.815c-2.485,0-4.439-0.821-5.862-2.463c-1.268-1.584-1.903-3.588-1.903-6.007
		c0-2.182,0.543-4.052,1.628-5.606c1.393-1.994,3.453-2.991,6.18-2.991C152.342,170.976,154.454,171.893,155.825,173.723z
		 M153.894,184.022c0.861-1.383,1.293-2.974,1.293-4.77c0-1.901-0.497-3.431-1.491-4.59c-0.993-1.161-2.351-1.74-4.074-1.74
		c-1.672,0-3.035,0.574-4.091,1.723c-1.056,1.149-1.584,2.842-1.584,5.078c0,1.791,0.452,3.302,1.359,4.531
		c0.904,1.229,2.373,1.843,4.404,1.843C151.638,186.096,153.033,185.405,153.894,184.022z"></path>
	<path d="M160.037,171.416h2.188v14.228h8.105v1.926h-10.294V171.416z"></path>
	<path d="M185.869,173.723c1.07,1.432,1.606,3.26,1.606,5.489c0,2.412-0.612,4.418-1.837,6.017
		c-1.437,1.877-3.486,2.815-6.148,2.815c-2.485,0-4.439-0.821-5.862-2.463c-1.268-1.584-1.903-3.588-1.903-6.007
		c0-2.182,0.543-4.052,1.628-5.606c1.393-1.994,3.453-2.991,6.181-2.991C182.387,170.976,184.498,171.893,185.869,173.723z
		 M183.939,184.022c0.861-1.383,1.293-2.974,1.293-4.77c0-1.901-0.497-3.431-1.491-4.59c-0.993-1.161-2.351-1.74-4.074-1.74
		c-1.672,0-3.035,0.574-4.091,1.723c-1.056,1.149-1.584,2.842-1.584,5.078c0,1.791,0.452,3.302,1.359,4.531
		c0.904,1.229,2.373,1.843,4.404,1.843C181.683,186.096,183.077,185.405,183.939,184.022z"></path>
	<path d="M200.835,171.876c1.582,0.846,2.55,2.322,2.905,4.433h-2.166c-0.258-1.18-0.793-2.041-1.604-2.578
		c-0.811-0.54-1.834-0.809-3.069-0.809c-1.465,0-2.698,0.562-3.7,1.681c-1.001,1.124-1.502,2.796-1.502,5.015
		c0,1.923,0.413,3.485,1.239,4.692c0.826,1.205,2.174,1.808,4.042,1.808c1.43,0,2.614-0.423,3.551-1.271
		c0.937-0.846,1.417-2.214,1.439-4.106h-5.059v-1.816h7.093v8.644h-1.408l-0.528-2.077c-0.728,0.811-1.373,1.378-1.937,1.691
		c-0.945,0.543-2.146,0.816-3.602,0.816c-1.882,0-3.502-0.621-4.857-1.86c-1.479-1.554-2.218-3.688-2.218-6.4
		c0-2.705,0.722-4.856,2.168-6.457c1.373-1.523,3.15-2.287,5.332-2.287C198.45,170.996,199.744,171.292,200.835,171.876z"></path>
	<path d="M206.354,171.416h2.551l4.645,7.762l4.645-7.762h2.573l-6.118,9.643v6.51h-2.188v-6.51L206.354,171.416z"></path>
	<path d="M230.019,176.607c-0.232-0.535-0.347-1.053-0.347-1.552c0-1.041,0.351-1.904,1.052-2.59
		c0.703-0.684,1.641-1.029,2.819-1.029c1.118,0,1.992,0.32,2.62,0.958c0.629,0.638,0.943,1.4,0.943,2.285
		c0,1.034-0.325,1.938-0.974,2.715c-0.38,0.455-1.015,0.98-1.905,1.571l2.934,3.524c0.196-0.587,0.33-1.024,0.406-1.315
		c0.073-0.288,0.152-0.694,0.232-1.215h1.879c-0.122,1.034-0.371,2.026-0.743,2.974c-0.371,0.951-0.557,1.332-0.557,1.149
		l2.864,3.487h-2.549l-1.513-1.848c-0.598,0.653-1.145,1.129-1.642,1.43c-0.869,0.528-1.87,0.792-3.002,0.792
		c-1.673,0-2.89-0.452-3.649-1.359c-0.76-0.904-1.14-1.926-1.14-3.062c0-1.224,0.369-2.246,1.107-3.069
		c0.453-0.496,1.298-1.119,2.533-1.867C230.705,177.802,230.248,177.142,230.019,176.607z M234.773,185.644
		c0.584-0.371,1.033-0.792,1.347-1.251l-3.638-4.455c-1.028,0.689-1.698,1.217-2.013,1.584c-0.48,0.55-0.721,1.219-0.721,2.011
		c0,0.86,0.312,1.52,0.936,1.98c0.624,0.464,1.29,0.694,1.998,0.694C233.493,186.206,234.189,186.021,234.773,185.644z
		 M234.617,176.49c0.428-0.499,0.642-1.051,0.642-1.657c0-0.477-0.156-0.887-0.47-1.229c-0.313-0.345-0.736-0.516-1.267-0.516
		c-0.809,0-1.371,0.269-1.684,0.811c-0.16,0.279-0.241,0.582-0.241,0.912c0,0.445,0.123,0.872,0.369,1.283s0.656,0.941,1.229,1.591
		C233.882,177.196,234.357,176.798,234.617,176.49z"></path>
	<path d="M249.71,171.416h6.985c1.904,0,3.258,0.565,4.062,1.691c0.472,0.67,0.709,1.439,0.709,2.312
		c0,1.019-0.291,1.855-0.87,2.507c-0.301,0.345-0.733,0.66-1.295,0.943c0.826,0.318,1.447,0.672,1.857,1.068
		c0.726,0.704,1.09,1.676,1.09,2.916c0,1.041-0.33,1.982-0.985,2.825c-0.982,1.261-2.542,1.892-4.682,1.892h-6.87V171.416z
		 M255.876,178.244c0.934,0,1.659-0.127,2.177-0.386c0.816-0.401,1.222-1.127,1.222-2.175c0-1.056-0.433-1.767-1.298-2.136
		c-0.491-0.203-1.217-0.308-2.18-0.308h-3.944v5.005H255.876z M256.616,185.701c1.354,0,2.319-0.389,2.896-1.166
		c0.364-0.491,0.545-1.085,0.545-1.782c0-1.173-0.53-1.972-1.589-2.397c-0.562-0.227-1.305-0.342-2.231-0.342h-4.384v5.687H256.616z
		"></path>
	<path d="M267.152,171.416v9.986c0,1.173,0.22,2.148,0.665,2.923c0.657,1.175,1.764,1.76,3.324,1.76c1.87,0,3.143-0.633,3.815-1.901
		c0.362-0.689,0.543-1.618,0.543-2.781v-9.986h2.212v9.072c0,1.987-0.269,3.517-0.806,4.585c-0.987,1.953-2.847,2.928-5.584,2.928
		s-4.594-0.975-5.572-2.928c-0.538-1.068-0.806-2.598-0.806-4.585v-9.072H267.152z"></path>
	<path d="M282.482,182.357c0.049,0.916,0.257,1.659,0.626,2.231c0.699,1.073,1.931,1.608,3.698,1.608c0.789,0,1.51-0.117,2.16-0.352
		c1.256-0.455,1.887-1.268,1.887-2.444c0-0.88-0.266-1.505-0.799-1.879c-0.54-0.367-1.386-0.684-2.537-0.956l-2.119-0.496
		c-1.386-0.323-2.366-0.677-2.942-1.068c-0.995-0.672-1.491-1.681-1.491-3.023c0-1.452,0.489-2.642,1.466-3.575
		c0.978-0.929,2.361-1.395,4.152-1.395c1.647,0,3.047,0.408,4.201,1.227c1.151,0.816,1.728,2.124,1.728,3.92h-2.055
		c-0.108-0.865-0.332-1.527-0.677-1.992c-0.638-0.841-1.725-1.263-3.258-1.263c-1.237,0-2.126,0.271-2.666,0.814
		c-0.543,0.543-0.814,1.173-0.814,1.892c0,0.792,0.32,1.371,0.96,1.738c0.418,0.235,1.366,0.528,2.845,0.88l2.195,0.516
		c1.058,0.252,1.877,0.591,2.451,1.024c0.995,0.755,1.491,1.852,1.491,3.287c0,1.791-0.633,3.069-1.901,3.839
		c-1.271,0.77-2.744,1.156-4.426,1.156c-1.958,0-3.492-0.513-4.599-1.54c-1.109-1.019-1.654-2.402-1.63-4.147H282.482z"></path>
	<path d="M296.567,171.416h2.212v16.154h-2.212V171.416z"></path>
	<path d="M302.332,171.416h2.578l8.057,13.053v-13.053h2.087v16.154h-2.458l-8.175-13.038v13.038h-2.09V171.416z"></path>
	<path d="M318.806,171.416h11.721v1.98h-9.59v4.902h8.866v1.872h-8.866v5.474h9.756v1.926h-11.887V171.416z"></path>
	<path d="M335.051,182.357c0.049,0.916,0.257,1.659,0.626,2.231c0.699,1.073,1.931,1.608,3.698,1.608c0.789,0,1.51-0.117,2.16-0.352
		c1.256-0.455,1.887-1.268,1.887-2.444c0-0.88-0.266-1.505-0.799-1.879c-0.54-0.367-1.386-0.684-2.537-0.956l-2.119-0.496
		c-1.386-0.323-2.366-0.677-2.942-1.068c-0.995-0.672-1.491-1.681-1.491-3.023c0-1.452,0.489-2.642,1.466-3.575
		c0.978-0.929,2.361-1.395,4.152-1.395c1.647,0,3.047,0.408,4.201,1.227c1.151,0.816,1.728,2.124,1.728,3.92h-2.055
		c-0.108-0.865-0.332-1.527-0.677-1.992c-0.638-0.841-1.725-1.263-3.258-1.263c-1.237,0-2.126,0.271-2.666,0.814
		c-0.543,0.543-0.814,1.173-0.814,1.892c0,0.792,0.32,1.371,0.96,1.738c0.418,0.235,1.366,0.528,2.845,0.88l2.195,0.516
		c1.058,0.252,1.877,0.591,2.451,1.024c0.995,0.755,1.491,1.852,1.491,3.287c0,1.791-0.633,3.069-1.901,3.839
		c-1.271,0.77-2.744,1.156-4.426,1.156c-1.958,0-3.492-0.513-4.599-1.54c-1.109-1.019-1.654-2.402-1.63-4.147H335.051z"></path>
	<path d="M350.07,182.357c0.049,0.916,0.257,1.659,0.626,2.231c0.699,1.073,1.931,1.608,3.698,1.608c0.789,0,1.51-0.117,2.16-0.352
		c1.256-0.455,1.887-1.268,1.887-2.444c0-0.88-0.266-1.505-0.799-1.879c-0.54-0.367-1.386-0.684-2.537-0.956l-2.119-0.496
		c-1.386-0.323-2.366-0.677-2.942-1.068c-0.995-0.672-1.491-1.681-1.491-3.023c0-1.452,0.489-2.642,1.466-3.575
		c0.978-0.929,2.361-1.395,4.152-1.395c1.647,0,3.047,0.408,4.201,1.227c1.151,0.816,1.728,2.124,1.728,3.92h-2.055
		c-0.108-0.865-0.332-1.527-0.677-1.992c-0.638-0.841-1.725-1.263-3.258-1.263c-1.237,0-2.126,0.271-2.666,0.814
		c-0.543,0.543-0.814,1.173-0.814,1.892c0,0.792,0.32,1.371,0.96,1.738c0.418,0.235,1.366,0.528,2.845,0.88l2.195,0.516
		c1.058,0.252,1.877,0.591,2.451,1.024c0.995,0.755,1.491,1.852,1.491,3.287c0,1.791-0.633,3.069-1.901,3.839
		c-1.271,0.77-2.744,1.156-4.426,1.156c-1.958,0-3.492-0.513-4.599-1.54c-1.109-1.019-1.654-2.402-1.63-4.147H350.07z"></path>
	<path d="M370.132,171.416h7.229c1.427,0,2.583,0.403,3.461,1.215c0.88,0.809,1.32,1.948,1.32,3.414
		c0,1.261-0.393,2.358-1.178,3.294c-0.784,0.934-1.984,1.403-3.6,1.403h-5.044v6.828h-2.187V171.416z M378.62,173.635
		c-0.481-0.225-1.139-0.34-1.977-0.34h-4.323v5.599h4.323c0.975,0,1.767-0.21,2.375-0.628c0.609-0.418,0.912-1.156,0.912-2.212
		C379.93,174.867,379.492,174.063,378.62,173.635z"></path>
	<path d="M385.154,171.416h11.721v1.98h-9.59v4.902h8.866v1.872h-8.866v5.474h9.756v1.926h-11.887V171.416z"></path>
	<path d="M400.231,171.416h7.344c1.21,0,2.207,0.178,2.991,0.538c1.491,0.689,2.236,1.962,2.236,3.817c0,0.968-0.2,1.76-0.601,2.375
		c-0.398,0.616-0.958,1.11-1.676,1.483c0.63,0.257,1.105,0.594,1.425,1.012c0.318,0.418,0.496,1.097,0.533,2.036l0.076,2.165
		c0.024,0.616,0.073,1.075,0.156,1.373c0.132,0.516,0.364,0.846,0.704,0.992v0.362h-2.683c-0.076-0.139-0.132-0.318-0.176-0.538
		c-0.044-0.22-0.083-0.645-0.112-1.276l-0.132-2.696c-0.049-1.056-0.43-1.762-1.141-2.124c-0.408-0.195-1.044-0.296-1.914-0.296
		h-4.839v6.928h-2.19V171.416z M407.34,178.816c0.997,0,1.786-0.205,2.368-0.616s0.87-1.151,0.87-2.221
		c0-1.151-0.406-1.936-1.217-2.353c-0.435-0.22-1.017-0.33-1.745-0.33h-5.196v5.521H407.34z"></path>
	<path d="M416.443,171.416h11.205v1.98h-9.018v4.902h7.93v1.926h-7.93v7.346h-2.187V171.416z"></path>
	<path d="M443.296,173.723c1.07,1.432,1.606,3.26,1.606,5.489c0,2.412-0.613,4.418-1.838,6.017
		c-1.437,1.877-3.485,2.815-6.146,2.815c-2.485,0-4.44-0.821-5.863-2.463c-1.268-1.584-1.901-3.588-1.901-6.007
		c0-2.182,0.543-4.052,1.628-5.606c1.393-1.994,3.453-2.991,6.181-2.991C439.814,170.976,441.925,171.893,443.296,173.723z
		 M441.365,184.022c0.863-1.383,1.293-2.974,1.293-4.77c0-1.901-0.496-3.431-1.491-4.59c-0.992-1.161-2.351-1.74-4.074-1.74
		c-1.672,0-3.035,0.574-4.091,1.723c-1.056,1.149-1.584,2.842-1.584,5.078c0,1.791,0.452,3.302,1.359,4.531
		c0.904,1.229,2.373,1.843,4.404,1.843C439.11,186.096,440.505,185.405,441.365,184.022z"></path>
	<path d="M447.773,171.416h7.344c1.21,0,2.207,0.178,2.991,0.538c1.491,0.689,2.236,1.962,2.236,3.817c0,0.968-0.2,1.76-0.601,2.375
		c-0.398,0.616-0.958,1.11-1.676,1.483c0.63,0.257,1.105,0.594,1.425,1.012c0.318,0.418,0.496,1.097,0.533,2.036l0.076,2.165
		c0.024,0.616,0.073,1.075,0.156,1.373c0.132,0.516,0.364,0.846,0.704,0.992v0.362h-2.683c-0.076-0.139-0.132-0.318-0.176-0.538
		c-0.044-0.22-0.083-0.645-0.112-1.276l-0.132-2.696c-0.049-1.056-0.43-1.762-1.141-2.124c-0.408-0.195-1.044-0.296-1.914-0.296
		h-4.839v6.928h-2.19V171.416z M454.882,178.816c0.997,0,1.786-0.205,2.368-0.616s0.87-1.151,0.87-2.221
		c0-1.151-0.406-1.936-1.217-2.353c-0.435-0.22-1.017-0.33-1.745-0.33h-5.196v5.521H454.882z"></path>
	<path d="M463.719,171.416h3.133l4.646,13.656l4.614-13.656h3.111v16.154h-2.087v-9.536c0-0.327,0.005-0.875,0.02-1.637
		c0.015-0.762,0.024-1.579,0.024-2.454l-4.614,13.627h-2.168l-4.656-13.627v0.496c0,0.396,0.01,1,0.032,1.808
		c0.022,0.811,0.032,1.408,0.032,1.786v9.536h-2.087V171.416z"></path>
	<path d="M487.249,171.416h2.471l5.863,16.154h-2.397l-1.686-4.839h-6.337l-1.752,4.839h-2.243L487.249,171.416z M490.878,180.95
		l-2.488-7.138l-2.583,7.138H490.878z"></path>
	<path d="M497.557,171.416h2.578l8.057,13.053v-13.053h2.087v16.154h-2.459l-8.175-13.038v13.038h-2.089V171.416z"></path>
	<path d="M525.246,172.592c1.117,1.078,1.738,2.302,1.86,3.673h-2.133c-0.237-1.041-0.711-1.865-1.42-2.473
		c-0.709-0.609-1.706-0.914-2.986-0.914c-1.562,0-2.825,0.56-3.786,1.679c-0.96,1.119-1.442,2.835-1.442,5.144
		c0,1.894,0.435,3.429,1.303,4.607c0.868,1.178,2.16,1.767,3.883,1.767c1.584,0,2.791-0.618,3.619-1.857
		c0.437-0.653,0.767-1.51,0.982-2.576h2.133c-0.188,1.703-0.811,3.128-1.87,4.279c-1.268,1.386-2.979,2.08-5.132,2.08
		c-1.855,0-3.412-0.569-4.673-1.706c-1.659-1.505-2.49-3.827-2.49-6.967c0-2.383,0.623-4.338,1.87-5.865
		c1.347-1.657,3.206-2.485,5.577-2.485C522.562,170.976,524.131,171.514,525.246,172.592z"></path>
	<path d="M530.297,171.416h11.721v1.98h-9.59v4.902h8.866v1.872h-8.866v5.474h9.756v1.926h-11.887V171.416z"></path>
</g>
<g>
	<path d="M544.09,75.423c-1.576,1.584-3.483,2.375-5.719,2.375c-2.236,0-4.139-0.792-5.708-2.375
		c-1.562-1.576-2.342-3.485-2.342-5.728c0-2.224,0.788-4.12,2.364-5.699c1.569-1.567,3.464-2.351,5.686-2.351
		c2.236,0,4.142,0.784,5.719,2.351c1.576,1.571,2.364,3.47,2.364,5.699C546.455,71.931,545.666,73.839,544.09,75.423z
		 M533.467,64.787c-1.349,1.359-2.023,2.996-2.023,4.917c0,1.936,0.671,3.585,2.013,4.949c1.349,1.364,2.988,2.046,4.916,2.046
		c1.928,0,3.567-0.682,4.916-2.046c1.349-1.364,2.024-3.013,2.024-4.949c0-1.921-0.674-3.558-2.024-4.917
		c-1.356-1.364-2.995-2.043-4.916-2.043C536.458,62.744,534.823,63.424,533.467,64.787z M538.218,65.239
		c1.1,0,1.906,0.108,2.419,0.32c0.916,0.381,1.375,1.129,1.375,2.246c0,0.792-0.288,1.376-0.865,1.75
		c-0.307,0.198-0.733,0.34-1.281,0.428c0.693,0.11,1.2,0.401,1.521,0.87c0.321,0.467,0.481,0.926,0.481,1.371v0.65
		c0,0.205,0.007,0.423,0.022,0.657c0.015,0.235,0.04,0.389,0.077,0.462l0.055,0.11h-1.463c-0.007-0.029-0.015-0.059-0.022-0.088
		s-0.015-0.061-0.022-0.098l-0.033-0.286V72.93c0-1.024-0.279-1.698-0.836-2.028c-0.33-0.191-0.909-0.283-1.738-0.283h-1.232v3.485
		h-1.562v-8.864H538.218z M539.904,66.635c-0.393-0.22-1.024-0.327-1.892-0.327h-1.334v3.211h1.411c0.662,0,1.158-0.068,1.49-0.2
		c0.61-0.24,0.915-0.704,0.915-1.383C540.494,67.29,540.297,66.855,539.904,66.635z"></path>
</g>
<path d="M70.277,14.826c-15.34,0-27.776,12.436-27.776,27.776s12.436,27.776,27.776,27.776s27.776-12.436,27.776-27.776
	S85.617,14.826,70.277,14.826z M70.277,53.184c-5.844,0-10.581-4.737-10.581-10.581s4.737-10.581,10.581-10.581
	s10.581,4.737,10.581,10.581S76.121,53.184,70.277,53.184z"></path>
<g>
	<path d="M54.496,156.609v-4.015h11.725V97.016H54.496v-4.015c9.476,0.321,19.275-0.321,29.074-0.642v60.236h11.887v4.015H54.496z"></path>
	<path d="M145.479,144.686h-0.321c-3.855,8.513-11.404,13.332-21.524,13.332c-8.514,0-12.85-3.052-18.955-8.354
		c-6.425-5.621-9.637-16.384-9.637-24.735c0-15.903,13.974-33.895,30.679-33.895c10.442,0,17.509,6.106,19.437,13.656h0.321V52.322
		h-11.565v-4.015c9.797,0.321,19.436-0.642,28.913-2.41v105.696h11.565v4.015c-9.316,0-18.633-0.483-28.913,1.284V144.686z
		 M114.638,140.35c0,7.709,2.731,14.455,11.566,14.455c9.797,0,19.275-10.44,19.275-20.078v-17.026
		c0-10.121-6.585-23.453-18.954-23.453c-10.601,0-11.887,8.354-11.887,17.509V140.35z"></path>
	<path d="M195.579,121.111v12.849c0,11.244,0.643,21.845,14.297,21.845c11.565,0,20.4-8.351,23.612-19.274h4.016
		c-4.177,15.58-15.26,22.487-30.841,22.487c-17.509,0-30.199-16.867-30.199-33.251c0-17.668,14.457-33.733,31.965-33.733
		c14.939,0,28.754,10.28,28.754,26.184c0,3.373-1.446,2.892-4.016,2.892H195.579z M219.032,117.093
		c0-10.761,2.731-21.845-11.566-21.845c-13.332,0-11.887,11.727-11.887,21.845H219.032z"></path>
	<path d="M289.228,101.031c0-4.177-7.871-5.782-10.601-5.782c-6.103,0-13.653,3.052-11.244,6.103c0.963,1.287,2.25,4.66,2.25,7.711
		c0,4.177-4.018,7.067-7.711,7.067c-4.498,0-8.352-2.41-8.352-7.55c0-12.207,15.743-16.546,25.54-16.546
		c6.908,0,14.295,1.125,20.561,4.339c4.498,2.248,5.944,4.819,5.944,9.797v42.727c0,2.088,1.927,3.054,3.853,3.054
		c1.929,0,4.339-2.41,5.623-3.696l1.927,2.25c-4.177,5.14-8.513,8.513-15.259,8.513c-7.069,0-11.565-4.336-12.531-11.405
		c-5.782,7.069-14.455,11.405-23.451,11.405c-9.638,0-16.706-5.302-16.706-15.582c0-19.114,25.702-23.13,40.157-22.326V101.031z
		 M289.228,124.484c-9.959,0-23.291,1.284-23.291,14.295c0,7.067,2.892,12.369,10.442,12.369c5.621,0,9.797-4.336,11.727-9.476
		c0.963-2.41,1.123-5.302,1.123-8.354V124.484z"></path>
	<path d="M330.519,156.609h-2.571v-22.97h4.336c1.608,11.405,8.194,22.166,20.401,22.166c7.067,0,14.617-4.819,14.617-12.849
		c0-8.033-7.388-8.834-15.742-9.959c-16.546-2.25-22.808-8.996-22.808-21.365c0-12.207,8.351-19.597,20.24-19.597
		c5.621,0,11.244,1.767,15.742,5.14l2.569-4.174h2.731v18.953h-4.177c-0.963-8.672-7.871-16.705-16.864-16.705
		c-6.265,0-13.011,3.694-13.011,11.084c0,4.819,0.802,6.586,15.259,8.993c14.617,2.41,22.97,4.981,22.97,21.526
		c0,15.421-8.513,22.166-22.97,22.166c-5.299,0-12.207-3.052-16.063-6.746L330.519,156.609z"></path>
	<path d="M419.793,92.035c18.151,0,33.731,15.903,33.731,33.895c0,17.989-15.58,33.089-33.731,33.089
		c-18.151,0-33.733-15.099-33.733-33.089C386.06,107.938,401.642,92.035,419.793,92.035z M419.793,95.248
		c-15.742,0-14.619,12.528-14.619,30.682c0,20.882,0.324,29.875,14.619,29.875c14.295,0,14.616-8.993,14.616-29.875
		C434.41,107.776,435.535,95.248,419.793,95.248z"></path>
	<path d="M486.473,93.001h15.261v4.015h-15.261v55.579h13.815v4.015h-43.693v-4.015h12.531V97.016h-12.852v-4.015h12.852
		c0-16.065,3.052-37.749,21.041-44.497c2.571-0.963,5.302-1.606,8.194-1.606c7.388,0,16.222,4.015,16.222,12.69
		c0,4.981-3.694,8.354-8.672,8.354c-4.339,0-7.55-2.892-7.55-7.229c0-3.052,1.765-4.981,4.174-6.586
		c1.287-0.804,0-4.015-4.336-4.015c-7.55,0-11.727,12.369-11.727,17.83V93.001z"></path>
	<path d="M511.684,74.292c5.782,0,11.565-0.642,17.347-0.963v19.597h15.261v4.819h-15.261v44.173c0,5.14,0.162,8.834,6.265,8.834
		c5.14,0,8.192-4.015,9.797-8.513l3.214,1.606c-3.373,8.996-10.28,13.173-19.597,13.173c-14.616,0-17.026-4.978-17.026-13.815
		V97.745h-10.28v-4.819h10.28V74.292z"></path>
</g>
</svg>
