<?xml version="1.0"?>

<!-- Generator: Adobe Illustrator 19.1.0, SVG Export Plug-In . SVG Version: 6.00 Build 0)  -->
<svg version="1.1" id="Layer_1" xmlns="http://www.w3.org/2000/svg" xmlns:xlink="http://www.w3.org/1999/xlink" x="0px" y="0px" width="600px" height="200px" viewBox="0 0 600 200" enable-background="new 0 0 600 200" xml:space="preserve">
<g>
	<path d="M435.129,129.804c-0.115-9.343,0.065-18.692-0.113-28.032c-0.056-2.975,0.791-5.24,2.775-7.38
		c4.186-4.514,9.287-6.427,13.792-4.636c5.437,2.166,6.165,6.931,6.171,11.974c0.012,9.456,0.049,18.911-0.034,28.363
		c-0.016,1.926,0.384,2.771,2.528,2.69c4.172-0.16,8.354-0.101,12.53-0.017c1.606,0.031,2.406-0.304,2.391-2.147
		c-0.09-11.43,0.163-22.871-0.193-34.292c-0.342-10.998-8.631-18.671-19.657-19.065c-8.433-0.3-15.007,3.414-20.707,9.179
		c-1.036,1.047-1.743,2.197-3.077,0.032c-3.988-6.475-10.159-9.004-17.546-9.214c-7.191-0.202-13.133,2.794-19.069,7.526
		c0-1.337-0.086-2.008,0.016-2.646c0.448-2.788-0.412-3.935-3.491-3.672c-3.709,0.318-7.473,0.181-11.205,0.034
		c-2.098-0.082-2.864,0.479-2.853,2.724c0.089,16.27,0.086,32.539,0.001,48.809c-0.011,2.237,0.765,2.824,2.868,2.741
		c3.732-0.143,7.483-0.199,11.209,0.015c2.648,0.152,3.576-0.541,3.525-3.38c-0.179-10.11-0.079-20.228-0.058-30.34
		c0.003-1.171-0.304-2.402,0.646-3.452c2.786-3.079,5.932-5.597,10.14-6.336c5.597-0.986,9.931,1.926,11.409,7.434
		c0.466,1.737,0.43,3.482,0.434,5.232c0.019,9.343,0.071,18.69-0.036,28.032c-0.024,2.165,0.601,2.891,2.795,2.8
		c3.95-0.162,7.918-0.176,11.868,0.006C434.542,132.896,435.158,132.082,435.129,129.804z"></path>
	<path d="M302.413,126.346c11.314,10.528,34.27,9.362,45.699,1.155c0.522-0.376,1.138-0.746,1.119-1.508
		c-0.076-3.241,0.305-6.504-0.276-10c-0.718,0.368-1.21,0.554-1.631,0.844c-4.475,3.09-9.27,5.384-14.668,6.393
		c-9.833,1.837-18.409-3.103-20.596-11.818c-0.598-2.386-0.018-3.02,2.422-2.996c10.986,0.111,21.975-0.016,32.961,0.101
		c2.336,0.026,2.972-0.673,2.898-2.968c-0.572-17.719-12.557-28.966-30.261-28.264c-11.268,0.446-21.004,7.569-24.779,18.127
		C291.366,106.426,294.359,118.848,302.413,126.346z M312.438,96.58c1.231-5.748,5.186-8.874,11.32-8.793
		c5.663,0.075,9.657,3.589,10.706,9.202c0.341,1.821-0.185,2.291-1.942,2.228c-3.063-0.114-6.135-0.033-9.203-0.033
		c-2.958,0-5.928-0.167-8.871,0.053C312.057,99.416,312.046,98.413,312.438,96.58z"></path>
	<path d="M125.284,56.625c11.107,1.766,22.701-4.688,26.772-14.902c6.155-15.447-5.724-31.721-23.169-31.733
		c-14.55-0.01-26.008,11.299-25.025,24.699C104.706,46.179,112.998,54.67,125.284,56.625z"></path>
	<path d="M209.024,51.745c-10.986-1.518-20.379,2.561-24.917,10.864c-2.269,4.154-3.163,8.654-2.951,13.343
		c0.088,1.999-0.528,2.646-2.582,2.642c-5.09-0.009-5.09,0.097-5.09,5.261c0,0.658,0,1.319,0,1.978c0,4.626,0.002,4.756,4.741,4.643
		c2.33-0.054,3.004,0.667,2.947,2.971c-0.15,6.038-0.051,12.085-0.051,18.128c0,6.044,0.123,12.092-0.058,18.128
		c-0.077,2.556,0.813,3.202,3.213,3.082c3.727-0.185,7.48-0.216,11.202,0.009c2.56,0.154,3.098-0.757,3.075-3.164
		c-0.119-12.086-0.017-24.174-0.092-36.261c-0.012-2.01,0.324-2.93,2.658-2.902c5.226,0.064,5.227-0.075,5.227-5.167
		c0-0.439,0-0.879,0-1.319c0-5.292,0-5.401-5.311-5.386c-2.056,0.005-2.58-0.616-2.586-2.624c-0.024-7.27,2.709-9.933,10.222-10.019
		c2.234-0.028,5.209,1.608,6.431,0.017c1.129-1.468,0.363-4.422,0.368-6.722C215.49,52.637,215.478,52.637,209.024,51.745z"></path>
	<path d="M152.389,106.689c0.001-1.214-0.014-2.347-0.911-3.383c-5.394-6.23-10.773-12.476-16.061-18.795
		c-1.242-1.484-1.921-1.098-3.013,0.11c-5.085,5.626-10.221,11.201-15.403,16.735c-1.065,1.133-1.487,2.336-1.483,3.843
		c0.025,8.796,0.055,17.594-0.029,26.391c-0.019,2.055,0.742,2.631,2.712,2.588c5.276-0.11,10.555-0.037,15.833-0.037
		c5.059,0,10.12-0.112,15.172,0.05c2.386,0.075,3.284-0.542,3.236-3.094C152.29,122.964,152.383,114.826,152.389,106.689z"></path>
	<path d="M233.156,132.77c4.061-0.105,8.131-0.155,12.184,0.014c2.274,0.096,2.77-0.778,2.713-2.864
		c-0.133-4.938,0.33-9.917-0.132-14.815c-0.643-6.816,2.513-12.1,6.1-17.231c2.787-3.988,6.621-4.927,10.99-3.676
		c2.445,0.7,5.089,3.752,6.852,2.393c1.768-1.365,1.832-4.942,2.645-7.549c0.032-0.103,0.093-0.198,0.126-0.303
		c2.298-7.155,1.761-8.221-5.417-10.746c-0.206-0.073-0.42-0.126-0.631-0.185c-6.354-1.855-10.867,1.197-14.608,5.76
		c-2.102,2.565-3.759,5.497-5.967,8.789c0-4.18-0.071-7.76,0.03-11.333c0.05-1.748-0.321-2.59-2.332-2.524
		c-4.276,0.142-8.565,0.126-12.844,0.003c-1.765-0.05-2.199,0.532-2.194,2.235c0.058,16.58,0.069,33.159-0.01,49.74
		C230.654,132.479,231.417,132.814,233.156,132.77z"></path>
	<path d="M149.857,65.362c-13.294,0-26.587,0.039-39.88-0.04c-2.063-0.014-2.827,0.444-2.818,2.698
		c0.087,21.094,0.044,42.188,0.07,63.281c0.003,1.083-0.52,2.603,1.465,2.681c2.228,0.088,1.687-1.58,1.694-2.776
		c0.03-8.899,0.087-17.8-0.03-26.696c-0.032-2.449,0.563-4.351,2.217-6.217c6.478-7.312,12.88-14.696,19.149-22.188
		c1.644-1.964,2.424-2.047,4.059,0.017c5.17,6.518,10.564,12.856,15.871,19.265c0.254-0.073,0.509-0.146,0.764-0.219
		c0-9.314-0.047-18.628,0.033-27.941C152.469,65.087,151.162,65.362,149.857,65.362z"></path>
	<path d="M319.182,152.761c-0.008-0.813,0.275-2.021-0.978-2.07c-1.336-0.053-1.008,1.19-1.022,1.985
		c-0.043,2.741-0.016,5.484-0.016,9.046c-3.332-3.736-6.151-6.91-8.989-10.067c-0.509-0.567-1.079-1.25-1.949-0.904
		c-0.872,0.347-0.771,1.244-0.775,1.996c-0.014,3.514-0.018,7.026,0.006,10.539c0.005,0.844-0.146,1.975,1.091,2.021
		c1.266,0.047,1.122-1.082,1.185-1.935c0.196-2.641-0.354-5.338,0.511-8.518c2.825,3.3,5.306,6.2,7.791,9.098
		c0.578,0.675,1.181,1.383,2.197,1.165c1.235-0.266,0.939-1.33,0.947-2.143C319.218,159.568,319.218,156.165,319.182,152.761z"></path>
	<path d="M305.688,175.532c-4.59,0.36-1.429,4.1-2.338,6.099c-0.123,0.273-0.016,0.651-0.016,0.98
		c0.001,8.22,0.487,8.704,7.501,7.448c3.751-0.671,6.508-4.184,6.126-7.803C316.437,177.314,312.737,174.976,305.688,175.532z
		 M313.855,185.787c-1.208,2.045-4.922,3.137-7.07,2.341c-0.962-0.354-0.977-1.068-0.995-1.829c-0.027-1.204-0.006-2.41-0.006-3.615
		c-0.005,0-0.01,0-0.017,0c0-0.219-0.044-0.449,0.008-0.655c0.374-1.468-1.022-3.73,1.013-4.325
		c2.435-0.711,5.118-0.401,6.862,1.919C315.104,181.553,315.059,183.744,313.855,185.787z"></path>
	<path d="M266.367,175.495c-5.079,0.221-1.589,4.195-2.617,6.205c-0.134,0.261-0.019,0.649-0.019,0.979
		c0,8.235,0.248,8.487,7.262,7.428c3.909-0.588,6.764-4.147,6.349-7.914C276.812,177.369,273.316,175.193,266.367,175.495z
		 M273.674,186.459c-1.745,1.945-4.243,2.312-6.352,1.549c-2.408-0.872-0.546-3.483-1.125-4.957c0-0.482-0.051-0.715,0.008-0.917
		c0.441-1.518-1.196-3.923,1.182-4.491c2.582-0.617,5.403-0.245,6.931,2.444C275.537,182.233,275.418,184.516,273.674,186.459z"></path>
	<path d="M349.183,175.682c-0.799-0.37-1.5,0.025-2.026,0.654c-1.331,1.596-2.639,3.21-4.183,5.093
		c-1.42-1.731-2.575-3.178-3.775-4.586c-0.56-0.657-1.138-1.47-2.159-1.215c-1.181,0.296-0.887,1.368-0.896,2.185
		c-0.036,3.395-0.032,6.793,0.001,10.188c0.008,0.823-0.202,2.016,1.054,2.01c1.255-0.007,1.037-1.192,1.045-2.02
		c0.03-2.651,0.012-5.3,0.012-8.859c1.915,2.155,2.944,4.37,4.402,4.703c2.107,0.483,2.385-2.702,4.084-3.626
		c0.16-0.086,0.395-0.037,0.849-0.071c0,2.726-0.014,5.439,0.008,8.15c0.005,0.743-0.103,1.705,0.965,1.773
		c1.224,0.079,1.346-0.932,1.353-1.82c0.029-3.614,0.015-7.23,0.002-10.846C349.917,176.731,349.851,175.99,349.183,175.682z"></path>
	<path d="M287.193,175.389c-4.605-0.011-7.803,3.033-7.805,7.428c-0.001,4.527,3.033,7.5,7.66,7.503
		c4.696,0.005,8.238-3.267,8.173-7.551C295.156,178.616,291.656,175.399,287.193,175.389z M287.123,188.277
		c-3.292-0.017-5.686-2.416-5.587-5.602c0.093-3.032,2.443-5.177,5.648-5.16c3.221,0.019,5.518,2.172,5.579,5.226
		C292.828,185.923,290.413,188.295,287.123,188.277z"></path>
	<path d="M406.418,175.413c-4.576-0.025-7.908,3.085-7.922,7.401c-0.016,4.398,3.212,7.495,7.808,7.49
		c4.643-0.005,7.887-3.034,7.906-7.386C414.23,178.505,411.047,175.438,406.418,175.413z M406.281,188.286
		c-3.219-0.019-5.435-2.144-5.498-5.274c-0.067-3.274,2.171-5.481,5.587-5.507c3.353-0.028,5.773,2.257,5.731,5.409
		C412.061,186.072,409.642,188.306,406.281,188.286z"></path>
	<path d="M342.197,157.938c0.002,4.461,3.264,7.693,7.712,7.645c4.422-0.047,8.014-3.445,7.997-7.564
		c-0.019-4.34-3.358-7.537-7.89-7.55C345.401,150.455,342.192,153.517,342.197,157.938z M355.561,157.845
		c0.032,3.245-2.305,5.698-5.472,5.741c-3.112,0.042-5.791-2.466-5.85-5.478c-0.064-3.213,2.248-5.53,5.57-5.589
		C353.196,152.456,355.526,154.616,355.561,157.845z"></path>
	<path d="M208.477,157.917c-0.035-4.384-3.323-7.49-7.898-7.457c-4.59,0.033-7.734,3.141-7.683,7.598
		c0.051,4.405,3.397,7.631,7.822,7.536C205.213,165.498,208.509,162.234,208.477,157.917z M200.718,163.593
		c-3.064,0.03-5.651-2.555-5.663-5.657c-0.014-3.221,2.348-5.456,5.721-5.412c3.186,0.044,5.479,2.25,5.507,5.302
		C206.312,160.922,203.763,163.565,200.718,163.593z"></path>
	<path d="M122.603,152.203c-0.005-0.651-0.016-1.435-0.888-1.504c-1.149-0.093-1.101,0.834-1.105,1.589
		c-0.019,2.805-0.008,5.609-0.008,8.624c-1.88-0.635-2.526-1.989-3.456-2.988c-1.868-2.008-3.615-4.128-5.444-6.176
		c-0.495-0.555-1.029-1.294-1.919-0.96c-0.958,0.364-0.621,1.309-0.63,2.016c-0.038,3.407-0.037,6.814,0,10.222
		c0.008,0.81-0.258,2.051,1.035,1.999c1.237-0.048,0.907-1.267,0.972-2.087c0.206-2.615-0.369-5.296,0.451-8.194
		c2.843,3.275,5.422,6.262,8.026,9.228c0.575,0.655,1.195,1.405,2.22,1.073c0.978-0.321,0.752-1.234,0.757-1.963
		C122.632,159.458,122.623,155.832,122.603,152.203z"></path>
	<path d="M362.518,154.806c1.085,0.945,1.608,1.311,2.021,1.775c2.262,2.541,4.488,5.113,6.743,7.661
		c0.513,0.579,1.104,1.139,1.982,0.84c0.809-0.275,0.697-1.027,0.7-1.656c0.013-3.734,0.015-7.466-0.007-11.199
		c-0.004-0.626,0.076-1.442-0.826-1.525c-1.129-0.103-1.138,0.782-1.141,1.561c-0.013,2.921-0.005,5.841-0.005,9.465
		c-3.151-3.543-5.793-6.563-8.501-9.523c-0.615-0.673-1.158-1.876-2.339-1.387c-1.013,0.416-0.58,1.544-0.592,2.361
		c-0.049,3.182-0.061,6.368,0.009,9.55c0.019,0.853-0.498,2.319,1.045,2.259c1.136-0.045,0.889-1.325,0.9-2.154
		C362.542,160.38,362.518,157.925,362.518,154.806z"></path>
	<path d="M185.521,176.903c-2.934-2.002-6.332-1.528-9.595-1.213c-1.071,0.101-0.828,1.393-0.839,2.229
		c-0.034,2.749,0.203,5.521-0.074,8.241c-0.349,3.425,0.902,4.727,3.727,4.045c6.083-0.026,9.33-2.257,9.75-6.383
		C188.78,180.977,187.898,178.524,185.521,176.903z M182.779,187.903c-4.401,1.442-5.467,0.403-5.466-5.327
		c0-0.111-0.033-0.235,0.005-0.327c0.669-1.547-1.597-4.223,1.741-4.723c3.655-0.55,6.595,1.164,7.259,4.108
		C186.921,184.299,185.365,187.058,182.779,187.903z"></path>
	<path d="M230.371,156.77c-0.827-4.631-4.729-6.878-11.437-6.175c-4.067,0.426-1.244,3.817-2.049,5.688
		c-0.201,0.462-0.03,1.087-0.03,1.636c0.001,7.764,1.037,8.677,8.067,7.1c0.106-0.025,0.219-0.026,0.325-0.054
		C228.647,164.043,230.998,160.282,230.371,156.77z M225.773,162.53c-1.438,0.886-3.09,1.026-4.769,1.013
		c-1.377-0.013-2.018-0.599-1.981-1.984c0.034-1.206,0.007-2.414,0.007-3.622c-0.002,0-0.007,0-0.011,0
		c0-0.219-0.053-0.456,0.009-0.655c0.483-1.574-1.252-3.948,1.37-4.702c3.076-0.883,6.78,0.771,7.494,3.284
		C228.63,158.455,228.347,160.946,225.773,162.53z"></path>
	<path d="M458.36,156.873c1.323-1.473,0.995-3.341-0.314-4.794c-1.665-1.846-3.993-1.817-6.13-1.438
		c-2.233,0.397-1.148,2.463-1.336,3.822c-0.149,1.077-0.03,2.189-0.03,3.283c0,0.985-0.161,2.003,0.036,2.95
		c0.321,1.538-1.157,4.283,1.168,4.366c2.169,0.079,0.779-2.641,1.173-4.067c0.165-0.599-0.129-1.388,0.592-1.734
		c0.841-0.406,1.478,0.143,2.017,0.693c0.532,0.543,0.96,1.188,1.468,1.754c1.093,1.218,1.793,4.306,3.361,3.179
		c1.696-1.222-0.992-3.023-1.81-4.464C457.811,159.115,457.023,158.36,458.36,156.873z M454.321,156.925
		c-1.968-0.078-1.185-1.664-1.34-2.374c-0.157-1.589,0.388-2.175,1.668-1.983c1.349,0.202,2.283,0.921,2.172,2.349
		C456.713,156.339,455.676,156.979,454.321,156.925z"></path>
	<path d="M419.5,159.358c0-1.438-1.012-1.543-2.04-1.448c-0.901,0.084-2.185-0.551-2.573,0.739c-0.401,1.339,0.94,1.141,1.668,1.431
		c0.759,0.3,0.804,0.95,0.817,1.625c0.019,0.909-0.505,1.36-1.289,1.683c-2.956,1.21-6.859-0.962-7.353-4.113
		c-0.76-4.844,2.677-7.727,7.792-6.551c0.872,0.2,2.139,1.25,2.551-0.02c0.479-1.476-1.225-1.501-2.175-1.806
		c-3.49-1.118-7.215-0.08-9.177,2.638c-1.906,2.64-2.161,5.5-0.43,8.323c1.831,2.99,5.166,4.152,8.878,3.548
		c2.455-0.398,3.945-1.308,3.331-3.867C419.5,160.673,419.5,160.016,419.5,159.358z"></path>
	<path d="M179.13,159.21c0.025-0.984,0.005-1.969,0.005-2.954c0.002,0,0.006,0,0.011,0c0-1.205,0.021-2.41-0.009-3.613
		c-0.02-0.845,0.155-1.94-1.107-1.993c-1.548-0.068-1.261,1.206-1.278,2.127c-0.043,2.08-0.089,4.164,0,6.239
		c0.116,2.768-0.972,4.451-3.871,4.559c-2.74,0.1-4.093-1.435-4.165-4.681c-0.049-2.189-0.005-4.379-0.03-6.567
		c-0.008-0.76,0.017-1.687-1.076-1.659c-1.074,0.027-1.019,0.963-1.027,1.713c-0.025,2.3-0.041,4.598-0.006,6.896
		c0.061,4.092,2.361,6.405,6.253,6.335C176.755,165.545,179.027,163.243,179.13,159.21z"></path>
	<path d="M238.51,165.484c0.994-0.142,2.639,0.324,2.652-1.122c0.013-1.517-1.624-0.992-2.616-1.102
		c-1.515-0.17-3.421,0.543-3.361-2.232c0.056-2.564,1.814-1.851,3.218-2.041c0.966-0.132,2.639,0.589,2.642-0.996
		c0.002-1.59-1.68-0.978-2.634-0.986c-1.901-0.012-3.489,0.056-3.245-2.702c0.24-2.692,2.148-1.439,3.407-1.763
		c0.925-0.238,2.555,0.649,2.565-1.051c0.009-1.407-1.481-0.961-2.362-0.956c-7.358,0.043-5.797-0.746-5.981,5.763
		c-0.013,0.437-0.002,0.876-0.002,1.314c0.001,1.423,0.142,2.862-0.028,4.264c-0.331,2.705,0.747,3.879,3.449,3.645
		C236.978,165.451,237.76,165.594,238.51,165.484z"></path>
	<path d="M385.199,161.857c0.099-0.296-0.002-0.653,0.025-0.978c0.051-0.626-0.148-1.383,0.655-1.68
		c0.812-0.298,1.522,0.023,2.067,0.618c0.588,0.641,1.071,1.379,1.652,2.028c1.085,1.216,1.722,4.173,3.481,3.017
		c1.429-0.939-1.192-2.713-1.688-4.25c-0.325-1.006-2.052-1.294-1.119-2.998c2.446-4.464,0.669-7.123-4.548-7.076
		c-2.498,0.02-2.538,0.019-2.578,2.581c-0.045,2.953-0.077,5.91,0.026,8.86c0.037,1.069-0.678,2.989,0.918,3.004
		C386.094,165.003,384.844,162.946,385.199,161.857z M386.93,152.507c1.398,0.12,2.269,0.705,2.28,2.208
		c0.015,1.528-0.96,2.136-2.284,2.238c-1.825,0.142-1.759-1.192-1.742-2.536C385.06,153.238,385.369,152.371,386.93,152.507z"></path>
	<path d="M326.532,188.205c-0.986-0.025-1.975-0.079-2.958-0.023c-1.773,0.098-1.879-1.021-1.875-2.344
		c0.005-1.219,0.163-2.045,1.724-2.184c1.393-0.126,3.96,0.872,3.962-0.783c0.002-2.228-2.578-0.904-3.99-1.121
		c-1.512-0.232-1.679-1.018-1.7-2.235c-0.026-1.345,0.41-2.081,1.872-1.996c0.874,0.051,1.753,0.009,2.63-0.013
		c0.662-0.02,1.392-0.047,1.466-0.92c0.077-0.895-0.621-0.968-1.295-1.104c-5.837-1.168-7.079-0.176-7.083,5.693
		c-0.001,0.547,0,1.097,0.002,1.643c0.004,1.645,0.058,3.292-0.012,4.934c-0.077,1.837,0.728,2.589,2.551,2.484
		c1.529-0.09,3.068-0.019,4.601-0.033c0.691-0.005,1.424-0.137,1.467-0.961C327.937,188.401,327.229,188.222,326.532,188.205z"></path>
	<path d="M301.583,150.645c-1.125,0.078-0.937,1.04-0.947,1.762c-0.03,2.418-0.005,4.838-0.016,7.256
		c-0.012,2.6-1.514,3.794-3.929,3.906c-2.422,0.11-4.06-0.936-4.232-3.544c-0.124-1.861-0.01-3.742-0.205-5.593
		c-0.135-1.277,0.871-3.537-0.96-3.604c-2.11-0.077-0.792,2.221-1.104,3.433c-0.158,0.62-0.028,1.312-0.028,1.972
		c0.009,0,0.016,0,0.025,0c0,1.43-0.113,2.87,0.023,4.286c0.295,3.053,2.871,5.079,6.271,5.071c3.529-0.008,5.991-1.932,6.176-5.086
		c0.16-2.741,0.052-5.498,0.03-8.247C302.68,151.511,302.736,150.566,301.583,150.645z"></path>
	<path d="M374.425,187.014c-0.319-0.564-0.739-1.111-1.228-1.531c-2.357-2.026-2.085-3.79,0.061-5.924
		c0.973-0.968,3.378-2.688,2.063-3.646c-1.722-1.255-2.785,1.441-3.666,2.756c-1.627,2.432-2.74,1.957-4.229-0.097
		c-0.999-1.378-1.776-3.411-4.556-2.856c0.336,0.649,0.443,0.962,0.637,1.202c1.434,1.787,3.764,3.406,4.108,5.374
		c0.403,2.315-2.686,3.656-3.886,5.689c-0.35,0.594-1.477,1.093-0.683,1.862c0.807,0.78,1.6,0.022,2.232-0.61
		c0.388-0.388,0.757-0.793,1.115-1.206c3.195-3.675,3.161-3.649,6.353,0.023c0.845,0.972,1.708,3.062,3.225,1.726
		C376.98,188.885,374.97,187.976,374.425,187.014z"></path>
	<path d="M270.119,163.814c0.184,0.747,0.637,1.452,1.615,1.278c0.521-0.093,0.611-0.532,0.486-1.578
		c-1.704-3.764-3.474-8.126-5.666-12.265c-0.771-1.455-1.85-0.258-2.33,0.831c-1.536,3.501-3.064,7.007-4.536,10.535
		c-0.324,0.777-1.389,1.838,0.044,2.427c1.08,0.445,1.519-0.71,1.745-1.505c0.641-2.246,2.172-2.545,4.257-2.571
		C268.002,160.939,269.536,161.443,270.119,163.814z M265.468,154.685c1.132,1.315,2.649,2.491,1.612,4.13
		c-0.451,0.713-2.134,0.668-2.685,0.084C262.798,157.206,265.216,156.204,265.468,154.685z"></path>
	<path d="M255.846,176.176c-0.774-1.484-1.827-0.334-2.322,0.791c-1.639,3.723-3.285,7.44-4.876,11.182
		c-0.253,0.595-1.085,1.445,0.133,1.898c0.906,0.336,1.38-0.403,1.772-1.097c0.717-1.272,0.872-2.851,2.961-3.071
		c2.726-0.286,5.055-0.42,5.879,2.939c0.177,0.714,0.658,1.45,1.661,1.245c0.526-0.107,0.641-0.51,0.582-1.179
		C259.787,184.745,258.022,180.354,255.846,176.176z M256.396,183.829c-0.346,0.602-2.264,0.62-2.704-0.034
		c-1.099-1.63,0.444-2.799,1.368-4.651C255.74,181.055,257.326,182.212,256.396,183.829z"></path>
	<path d="M469.841,151.262c-0.838-1.589-1.813-0.2-2.27,0.834c-1.596,3.615-3.165,7.242-4.702,10.885
		c-0.268,0.637-1.012,1.526-0.053,2.017c1.005,0.516,1.738-0.323,1.933-1.213c0.592-2.703,2.473-2.725,4.724-2.839
		c2.445-0.124,3.313,1.108,3.926,3.04c0.206,0.647,0.636,1.19,1.429,1.098c0.732-0.086,0.77-0.633,0.654-1.45
		C473.692,159.628,471.987,155.327,469.841,151.262z M470.252,158.85c-0.432,0.621-2.266,0.648-2.7-0.044
		c-0.951-1.522,0.885-2.628,1.266-4.136C469.745,156.036,471.372,157.236,470.252,158.85z"></path>
	<path d="M222.103,177.499c1.094,0.06,2.194,0.013,3.291-0.018c0.573-0.014,1.119-0.182,1.183-0.863
		c0.087-0.906-0.591-0.981-1.266-1.12c-5.791-1.189-7.102-0.155-7.102,5.646c0,0.548,0,1.097,0,1.644
		c0,1.208,0.136,2.435-0.027,3.618c-0.409,2.965,0.654,4.387,3.736,3.783c1.581-0.311,4.362,1.038,4.478-1.004
		c0.101-1.822-2.679-0.789-4.162-0.937c-1.384-0.14-1.992-0.582-1.916-1.986c0.065-1.211-0.139-2.4,1.681-2.606
		c1.489-0.171,4.201,0.862,4.198-0.883c-0.002-1.933-2.684-0.852-4.169-1c-1.561-0.156-1.694-0.999-1.716-2.209
		C220.287,178.281,220.561,177.415,222.103,177.499z"></path>
	<path d="M195.031,177.505c0.986,0.051,1.975,0.008,2.965-0.014c0.67-0.014,1.413-0.058,1.473-0.926
		c0.059-0.881-0.665-0.943-1.334-1.071c-5.9-1.136-7.047-0.207-7.044,5.749c0,0.439,0,0.879,0,1.318
		c0,1.209,0.139,2.436-0.028,3.621c-0.434,3.079,0.622,4.654,3.88,4.001c1.549-0.31,4.302,1.143,4.381-1.073
		c0.063-1.754-2.724-0.721-4.219-0.867c-1.429-0.14-1.929-0.69-1.886-2.042c0.041-1.264,0.002-2.369,1.774-2.548
		c1.41-0.145,4.015,0.825,3.996-0.796c-0.024-2.147-2.608-0.897-4.039-1.079c-1.535-0.195-1.713-0.991-1.736-2.214
		C193.19,178.266,193.513,177.424,195.031,177.505z"></path>
	<path d="M332.055,163.22c-4.478,1.118-7.8-1.045-7.814-5.258c-0.013-4.119,3.128-6.125,7.92-5.109
		c0.833,0.174,2.087,1.164,2.414-0.341c0.28-1.29-1.192-1.329-2.074-1.608c-3.495-1.111-7.214-0.086-9.21,2.606
		c-1.96,2.642-2.183,5.49-0.46,8.323c1.957,3.222,5.383,4.375,9.504,3.353c1.136-0.28,2.885-0.333,2.426-1.952
		C334.272,161.508,332.896,163.011,332.055,163.22z"></path>
	<path d="M358.692,188.203c-0.543-0.047-1.098-0.062-1.641-0.006c-1.729,0.176-2.281-0.604-2.263-2.291
		c0.021-1.75,0.773-2.228,2.399-2.267c1.171-0.029,3.328,0.707,3.321-0.811c-0.011-2.043-2.249-0.719-3.453-1.1
		c-0.1-0.03-0.219-0.015-0.327-0.007c-1.725,0.143-1.902-0.912-1.924-2.285c-0.023-1.413,0.518-2.013,1.922-1.93
		c0.873,0.05,1.752,0.009,2.627-0.018c0.683-0.023,1.397-0.139,1.367-1.019c-0.027-0.864-0.767-0.875-1.426-0.984
		c-5.734-0.965-6.585-0.258-6.587,5.521c-0.002,0.547,0,1.094-0.002,1.641c-0.004,7.746-0.004,7.764,5.872,7.545
		c0.891-0.034,2.356,0.469,2.417-0.9C361.058,187.929,359.609,188.283,358.692,188.203z"></path>
	<path d="M394.023,187.943c-0.972,0.123-1.954,0.346-2.923,0.299c-3.26-0.159-5.378-2.394-5.311-5.479
		c0.068-3.056,2.28-5.189,5.571-5.214c1.073-0.009,2.151,0.29,3.221,0.476c0.623,0.108,1.374,0.492,1.685-0.352
		c0.346-0.951-0.416-1.318-1.139-1.673c-2.545-1.24-6.834-0.627-8.981,1.313c-2.449,2.209-3.225,5.359-2.006,8.375
		c1.303,3.219,3.716,4.766,7.202,4.691c0.981-0.1,1.973-0.136,2.937-0.319c1.192-0.223,2.768-0.592,2.301-2.099
		C396.195,186.712,394.913,187.83,394.023,187.943z"></path>
	<path d="M400.14,152.512c0.979,0.09,1.974,0.012,2.961-0.025c0.59-0.022,1.094-0.265,1.07-0.95
		c-0.021-0.652-0.522-0.823-1.096-0.98c-5.001-1.353-6.964,0.08-6.966,5.127c-0.001,0.66,0,1.318-0.001,1.977
		c0,1.097,0,2.193,0,3.292c0.005,4.306,0.008,4.373,4.211,4.263c1.276-0.033,3.601,0.782,3.606-0.818
		c0.003-1.659-2.319-0.825-3.578-0.83c-1.845-0.007-2.177-0.859-2.164-2.441c0.011-1.499,0.464-2.137,2.065-2.198
		c1.255-0.049,3.569,0.857,3.512-1.055c-0.051-1.682-2.353-0.798-3.628-0.843c-1.71-0.059-1.935-0.928-1.948-2.317
		C398.171,153.298,398.411,152.352,400.14,152.512z"></path>
	<path d="M280.2,163.76c0.006,0.725,0.3,1.309,1.1,1.384c1.005,0.097,1.346-0.54,1.378-1.419c0.025-0.659,0.1-1.329,0.016-1.976
		c-0.31-2.34,0.408-3.563,3.025-3.23c0.844,0.106,2.328,0.467,2.294-1.021c-0.032-1.473-1.504-1.021-2.352-0.946
		c-2.231,0.197-3.457-0.493-2.895-2.897c0.469-2.003,2.186-0.78,3.306-1.1c0.754-0.215,2.02,0.349,1.978-1.031
		c-0.039-1.29-1.238-0.948-2.049-1.002c-5.837-0.389-5.84-0.382-5.837,5.328c0,0.658,0,1.318,0,1.977c0.009,0,0.019,0,0.03,0
		C280.194,159.805,280.183,161.783,280.2,163.76z"></path>
	<path d="M447.114,150.519c-2.967-0.013-5.933-0.015-8.898,0.002c-0.776,0.003-1.691,0.031-1.589,1.137
		c0.104,1.115,1.136,0.96,1.806,0.855c2.751-0.427,3.141,1.079,2.916,3.275c-0.101,0.98-0.016,1.977-0.016,2.965
		c0.006,0,0.012,0,0.018,0c0,1.648-0.016,3.295,0.007,4.944c0.011,0.79,0.11,1.649,1.151,1.655c1.038,0.007,1.167-0.845,1.176-1.638
		c0.03-2.526,0.156-5.062-0.009-7.579c-0.161-2.459,0.181-4.125,3.246-3.622c0.653,0.107,1.714,0.327,1.796-0.827
		C448.792,150.63,447.91,150.522,447.114,150.519z"></path>
	<path d="M144.342,150.519c-2.631-0.033-5.263-0.035-7.894,0.002c-0.817,0.011-2.023-0.252-2.058,0.998
		c-0.036,1.318,1.222,1.079,1.992,0.993c2.193-0.238,2.975,0.668,2.739,2.8c-0.132,1.193-0.023,2.409-0.023,3.617
		c0.003,0,0.009,0,0.013,0c0,1.534-0.021,3.07,0.008,4.605c0.018,0.897,0.098,1.897,1.34,1.809c1.006-0.073,1.055-0.957,1.058-1.745
		c0.012-2.63,0.146-5.272-0.03-7.891c-0.155-2.313,0.357-3.599,2.996-3.193c0.668,0.103,1.727,0.265,1.771-0.867
		C146.306,150.301,145.159,150.531,144.342,150.519z"></path>
	<path d="M431.518,156.607c-1.098-0.671-2.653-1.256-2.128-2.877c0.602-1.858,2.241-1.292,3.621-0.978
		c0.599,0.135,1.262,0.665,1.565-0.328c0.182-0.595-0.113-1.065-0.669-1.324c-2.199-1.026-4.35-1.076-5.914,0.991
		c-1.379,1.818-1.118,3.725,0.687,5.216c0.922,0.762,2.024,1.303,2.984,2.024c1.075,0.809,2.189,1.738,1.182,3.251
		c-0.908,1.371-2.214,1.172-3.498,0.537c-0.578-0.286-1.126-0.635-1.866-1.056c-0.717,2.606,0.969,2.916,2.434,3.325
		c2.017,0.563,3.752-0.041,4.878-1.764c0.974-1.491,0.833-3.146-0.184-4.633C433.848,157.875,432.64,157.29,431.518,156.607z"></path>
	<path d="M232.177,181.339c-1.006-0.6-2.428-1.207-1.87-2.684c0.588-1.555,2.117-1.202,3.433-1.077
		c0.701,0.065,1.739,1.277,1.997-0.364c0.171-1.076-0.79-1.502-1.687-1.65c-2.284-0.371-4.467-0.318-5.533,2.263
		c-1.097,2.66,0.599,4.032,2.515,5.337c1.536,1.048,4.257,1.894,2.691,4.316c-1.276,1.977-3.315,0.458-4.931-0.419
		c-0.081-0.042-0.205-0.005-0.507-0.005c-0.388,2.148,0.843,2.823,2.326,3.109c1.885,0.36,3.768,0.351,5.062-1.434
		c0.98-1.354,1.206-2.808,0.273-4.298C235.035,182.984,233.597,182.185,232.177,181.339z"></path>
	<path d="M128.825,156.369c-1.008-0.699-2.221-1.421-1.623-2.849c0.588-1.4,1.97-1.031,3.182-0.937
		c0.659,0.049,1.667,1.471,1.968-0.285c0.201-1.171-0.9-1.418-1.708-1.626c-2.245-0.572-4.309-0.124-5.322,2.094
		c-1.127,2.463,0.272,4.064,2.307,5.443c1.557,1.057,4.605,1.806,2.939,4.479c-1.459,2.343-3.467,0.138-5.296-0.514
		c-0.376,0.922-0.377,1.576,0.099,2.115c1.378,1.563,4.789,1.755,6.337,0.259c1.877-1.816,1.962-3.93,0.288-5.87
		C131.164,157.715,129.902,157.117,128.825,156.369z"></path>
	<path d="M249.643,176.642c0.115-0.901-0.567-1.095-1.241-1.114c-1.531-0.039-3.063-0.012-4.594-0.012c0-0.009,0-0.016,0-0.024
		c-1.422,0-2.845-0.033-4.265,0.013c-0.707,0.024-1.76-0.258-1.851,0.809c-0.11,1.312,1.068,1.278,1.867,1.144
		c2.965-0.493,3.148,1.206,3.024,3.449c-0.128,2.289-0.079,4.593,0,6.887c0.027,0.849-0.504,2.279,1.077,2.223
		c1.258-0.045,0.874-1.297,0.898-2.088c0.058-1.857,0.062-3.719,0.01-5.576c-0.076-2.728-0.613-5.747,3.858-4.899
		C248.967,177.556,249.559,177.313,249.643,176.642z"></path>
	<path d="M192.742,151.525c-0.097-0.795-0.776-0.97-1.478-0.973c-1.533-0.006-3.067-0.002-4.599-0.002v-0.012
		c-1.314-0.005-2.63-0.04-3.941,0.009c-0.814,0.031-2.034-0.24-1.993,1.048c0.042,1.303,1.317,1.003,2.059,0.894
		c2.72-0.401,3.077,1.032,2.93,3.253c-0.152,2.289-0.084,4.6-0.005,6.897c0.028,0.872-0.488,2.356,0.907,2.389
		c1.717,0.042,1.046-1.589,1.099-2.532c0.106-1.857,0.092-3.724,0.018-5.584c-0.104-2.624-0.349-5.25,3.69-4.419
		C192.042,152.617,192.857,152.477,192.742,151.525z"></path>
	<path d="M163.461,150.566c-1.534-0.035-3.067-0.01-4.604-0.01v-0.02c-1.315,0-2.632-0.038-3.945,0.013
		c-0.811,0.033-2.017-0.296-2.097,0.946c-0.086,1.387,1.215,1.084,1.949,0.99c2.5-0.324,2.915,0.932,2.788,3.056
		c-0.153,2.512-0.058,5.04-0.017,7.564c0.012,0.809-0.256,2.02,1.065,1.964c1.286-0.058,0.925-1.273,0.95-2.064
		c0.058-1.972,0.131-3.954-0.005-5.918c-0.196-2.86-0.24-5.408,3.877-4.603c0.49,0.096,1.146-0.012,1.235-0.746
		C164.764,150.861,164.169,150.584,163.461,150.566z"></path>
	<path d="M208.265,188.242c-4.447-0.255-4.447-0.238-4.448-4.698c-0.001-0.548,0-1.094-0.004-1.642
		c-0.004-1.425,0.039-2.852-0.02-4.274c-0.033-0.8,0.251-2.033-1.082-1.941c-1.25,0.086-0.915,1.287-0.933,2.095
		c-0.044,2.08-0.016,4.163-0.016,6.245c-0.001,6.454,0,6.465,6.612,6.135c0.791-0.04,2.099,0.401,2.149-0.815
		C210.58,187.872,209.155,188.294,208.265,188.242z"></path>
	<path d="M256.54,165.249c0.692-0.059,1.75,0.255,1.793-0.855c0.054-1.315-1.097-1.049-1.92-1.124c-0.323-0.028-0.661-0.05-0.981,0
		c-2.778,0.43-4.017-0.523-3.704-3.538c0.256-2.484,0.054-5.018,0.032-7.529c-0.007-0.795-0.114-1.617-1.209-1.505
		c-0.873,0.089-0.885,0.845-0.894,1.49c-0.022,1.858-0.008,3.714-0.008,5.57C249.631,165.85,249.631,165.855,256.54,165.249z"></path>
	<path d="M483.969,163.537c-0.21-0.044-0.442-0.04-0.654-0.003c-2.875,0.499-3.565-0.912-3.354-3.51
		c0.194-2.388,0.067-4.805,0.026-7.208c-0.012-0.807,0.319-2.037-0.921-2.091c-1.554-0.067-1.083,1.339-1.125,2.209
		c-0.079,1.635-0.023,3.277-0.025,4.916c-0.002,7.558-0.001,7.578,6.009,7.365c0.868-0.03,2.386,0.493,2.406-0.807
		C486.354,163.061,484.826,163.721,483.969,163.537z"></path>
	<path d="M380.283,175.76c-1.118-0.084-1.161,0.771-1.171,1.546c-0.023,1.858-0.008,3.714-0.011,5.57
		c-0.002,1.856-0.024,3.713,0.01,5.569c0.013,0.725-0.119,1.657,0.969,1.75c1.087,0.093,1.177-0.749,1.18-1.536
		c0.012-3.822,0.009-7.645-0.005-11.467C381.253,176.523,381.138,175.824,380.283,175.76z"></path>
	<path d="M339.574,151.964c-0.009-0.7-0.232-1.335-1.09-1.322c-0.866,0.012-1.041,0.676-1.043,1.358
		c-0.015,3.93-0.013,7.859,0.002,11.79c0.004,0.697,0.225,1.342,1.083,1.326c0.853-0.016,1.046-0.67,1.051-1.364
		c0.019-1.965,0.007-3.931,0.006-5.896C339.581,155.892,339.596,153.926,339.574,151.964z"></path>
	<path d="M424.862,152.217c-0.009-0.699-0.233-1.334-1.09-1.322c-0.866,0.012-1.041,0.679-1.043,1.36
		c-0.015,3.93-0.014,7.859,0.002,11.788c0.004,0.697,0.225,1.34,1.082,1.325c0.854-0.015,1.047-0.669,1.052-1.363
		c0.019-1.965,0.007-3.93,0.006-5.895C424.869,156.146,424.885,154.181,424.862,152.217z"></path>
	<path d="M150.196,151.964c-0.009-0.7-0.231-1.335-1.09-1.322c-0.864,0.012-1.038,0.676-1.043,1.358
		c-0.014,3.93-0.013,7.859,0.002,11.79c0.003,0.697,0.225,1.342,1.082,1.326c0.854-0.016,1.046-0.67,1.051-1.364
		c0.02-1.965,0.009-3.931,0.006-5.896C150.203,155.892,150.218,153.926,150.196,151.964z"></path>
	<path d="M105.485,151.821c-0.009-0.699-0.232-1.335-1.09-1.323c-0.865,0.013-1.041,0.679-1.043,1.36
		c-0.015,3.931-0.014,7.859,0.002,11.79c0.003,0.697,0.225,1.34,1.083,1.325c0.853-0.015,1.046-0.669,1.052-1.362
		c0.019-1.966,0.007-3.932,0.006-5.895C105.492,155.75,105.507,153.785,105.485,151.821z"></path>
	<polygon points="150.211,165.055 150.211,165.055 150.211,165.055 	"></polygon>
	<path d="M348.926,148.362c-0.209,0.487-0.211,1.08,0.562,1.289c1.197-0.283,1.515-1.437,2.096-2.298
		c0.371-0.55,0.037-1.141-0.608-1.163C349.552,146.136,349.338,147.405,348.926,148.362z"></path>
	<path d="M357.41,171.152c-1.378,0.55-1.69,1.681-1.694,3.505c1.46-0.885,2.413-1.663,2.646-3.002
		C358.451,171.143,357.802,170.994,357.41,171.152z"></path>
	<path d="M150.21,165.052c-0.026-0.059-0.047-0.12-0.074-0.181c0.026,0.062,0.047,0.123,0.074,0.184l0,0V165.052z"></path>
	<polygon points="150.21,165.055 150.211,165.055 150.21,165.055 	"></polygon>
</g>
</svg>
