<?xml version="1.0"?>

<svg xmlns="http://www.w3.org/2000/svg" viewBox="0 0 244.906 65.0464" height="65.0464" width="244.906"><path d="m 76.917,14.73341 3.439,0 0,34.493 -3.439,0 0,-34.493 z m -6.2903,3.0544 0,-2.958 -10.24,0 0,2.958 3.414,0 0,28.594 -3.414,0 0,2.958 3.414,0 3.413,0 3.413,0 0,-2.958 -3.413,0 0,-28.594 3.413,0 z m 145.2243,28.3809 1.815,-2.532 c 2.341,1.959 4.777,3.01 7.262,3.01 2.723,0 4.634,-1.529 4.634,-3.87 l 0,-0.048 c 0,-2.197 -2.054,-3.344 -5.399,-4.73 -3.965,-1.719 -7.118,-3.296 -7.118,-7.166 l 0,-0.095 c 0,-4.061 3.296,-6.784 7.74,-6.784 2.818,0 5.732,1.099 7.834,2.675 l -1.672,2.628 c -1.911,-1.385 -4.06,-2.341 -6.258,-2.341 -2.628,0 -4.3,1.529 -4.3,3.487 l 0,0.096 c 0,2.102 2.15,3.153 5.542,4.586 4.108,1.816 6.975,3.536 6.975,7.31 l 0,0.095 c 0,4.443 -3.583,7.166 -8.074,7.166 -3.058,0 -6.354,-1.194 -8.981,-3.487 m -6.831,-5.5894 0,-3.105 c -1.576,-0.574 -3.582,-1.004 -6.019,-1.004 -3.965,0 -6.163,2.055 -6.163,5.208 l 0,0.143 c 0,3.105 2.341,5.064 5.303,5.064 3.821,0.048 6.879,-2.675 6.879,-6.306 m -15.622,1.433 0,-0.191 c 0,-5.112 3.679,-8.026 9.173,-8.026 2.628,0 4.539,0.43 6.402,1.003 l 0,-1.481 c 0,-4.013 -2.341,-6.163 -6.354,-6.163 -2.485,0 -4.635,0.765 -6.354,1.672 l -1.099,-2.819 c 2.34,-1.146 4.777,-2.006 7.835,-2.006 3.009,0 5.35,0.86 6.975,2.484 1.529,1.529 2.388,3.822 2.388,6.737 l 0,16.004 -3.391,0 0,-3.631 c -1.481,2.341 -3.918,4.157 -7.596,4.157 -4.157,0 -7.979,-2.819 -7.979,-7.74 m -23.0722,-17.6763 3.439,0 0,4.061 c 1.386,-2.485 3.632,-4.539 7.358,-4.539 5.064,0 8.122,3.488 8.122,9.077 l 0,16.291 -3.44,0 0,-15.335 c 0,-4.443 -2.102,-6.928 -5.733,-6.928 -3.631,0 -6.307,2.867 -6.307,7.119 l 0,15.144 -3.439,0 0,-24.89 z m -9.8408,4e-4 3.439,0 0,24.89 -3.439,0 0,-24.89 z m -0.191,-9.173 3.821,0 0,4.061 -3.821,0 0,-4.061 z m -38.8377,9.1726 3.439,0 0,3.965 c 1.386,-2.341 3.393,-4.443 6.976,-4.443 3.344,0 5.685,1.815 6.879,4.539 1.529,-2.437 3.822,-4.539 7.644,-4.539 4.825,0 7.93,3.344 7.93,9.125 l 0,16.243 -3.439,0 0,-15.335 c 0,-4.539 -2.007,-6.928 -5.398,-6.928 -3.249,0 -5.877,2.58 -5.877,7.071 l 0,15.192 -3.44,0 0,-15.383 c 0,-4.443 -2.006,-6.88 -5.398,-6.88 -3.344,0 -5.877,2.915 -5.877,7.119 l 0,15.144 -3.439,0 0,-24.89 z m -25.0316,16.3388 0,-16.339 3.44,0 0,15.336 c 0,4.442 2.102,6.927 5.733,6.927 3.631,0 6.307,-2.819 6.307,-7.071 l 0,-15.192 3.439,0 0,24.89 -3.439,0 0,-4.06 c -1.387,2.484 -3.632,4.538 -7.358,4.538 -5.064,0 -8.122,-3.487 -8.122,-9.029 m -9.5057,-25.9414 3.439,0 0,34.493 -3.439,0 0,-34.493 z M 12,12 l 0,41.0464 41.04347,0 0,-41.0464 L 12,12 Z m 8.9209,7.26709 c 0.24,0.0124 0.47516,0.0876 0.68115,0.22412 l 10.83546,7.29786 10.82812,-7.29786 c 0.414,-0.273 0.94528,-0.30084 1.38428,-0.0688 0.439,0.23201 0.70752,0.68606 0.70752,1.18506 l 0,23.68067 c 0,0.50001 -0.26852,0.95599 -0.70752,1.188 -0.439,0.237 -0.97028,0.20322 -1.38428,-0.0718 L 32.43751,38.10938 21.60205,45.4043 c -0.412,0.27501 -0.94321,0.30879 -1.38721,0.0718 -0.43199,-0.23201 -0.70898,-0.68799 -0.70898,-1.188 l 0,-23.68067 c 0,-0.499 0.27699,-0.95305 0.70898,-1.18506 0.222,-0.11599 0.46606,-0.16764 0.70606,-0.15527 z m 1.27588,3.87012 0,18.6211 c 1.573,-1.058 4.81652,-3.24391 7.83252,-5.27491 l -4.34619,-2.92089 c -0.372,-0.25 -0.59033,-0.66729 -0.59033,-1.11329 0,-0.445 0.21833,-0.86567 0.59033,-1.11767 l 4.34619,-2.92236 c -3.016,-2.02901 -6.25952,-4.21198 -7.83252,-5.27198 z m 20.47413,0 c -1.574,1.06 -4.81206,3.24297 -7.83106,5.27198 l 4.34472,2.92236 c 0.378,0.252 0.59327,0.67267 0.59327,1.11767 0,0.446 -0.21527,0.86329 -0.59327,1.11329 l -4.34472,2.92089 c 3.019,2.031 6.25706,4.21691 7.83106,5.27491 l 0,-18.6211 z m -10.2334,6.89502 c -1.558,1.04301 -2.87066,1.929 -3.59767,2.41699 0.72701,0.489 2.03967,1.37 3.59767,2.417 1.54599,-1.047 2.86486,-1.928 3.58887,-2.417 -0.72401,-0.48799 -2.04288,-1.37398 -3.58887,-2.41699 z"></path></svg>