<?xml version="1.0"?>

<!-- Generator: Adobe Illustrator 19.1.0, SVG Export Plug-In . SVG Version: 6.00 Build 0)  -->
<svg version="1.1" id="Layer_1" xmlns="http://www.w3.org/2000/svg" xmlns:xlink="http://www.w3.org/1999/xlink" x="0px" y="0px" width="600px" height="400px" viewBox="0 0 600 400" enable-background="new 0 0 600 400" xml:space="preserve">
<path fill="#2E2A25" d="M140.603,214.887c1.4-0.397,2.854-0.313,4.279-0.416c3.228-0.234,6.464-0.375,9.699-0.475
	c6.633-0.205,13.27-0.312,19.902-0.546c6.477-0.228,12.958-0.107,19.431-0.304c5.959-0.182,11.916-0.109,17.874-0.189
	c33.717-0.453,67.435-0.237,101.152-0.114c10.437,0.038,20.878-0.026,31.313,0.22c8.639,0.204,17.278,0.007,25.914,0.21
	c7.678,0.181,15.359,0.065,23.033,0.271c6.639,0.178,13.277,0.089,19.914,0.189c12.115,0.182,24.232,0.275,36.345,0.519
	c9.995,0.201,19.991,0.297,29.986,0.483c8.835,0.164,17.671,0.297,26.505,0.483c7.475,0.158,14.95,0.315,22.425,0.464
	c8.113,0.161,16.224,0.45,24.335,0.704c2.716,0.085,4.083,1.503,3.857,3.91c-0.114,1.22-0.716,1.857-1.929,1.817
	c-4.993-0.168-9.985-0.381-14.977-0.58c-0.639-0.026-1.276-0.089-1.915-0.102c-9.194-0.19-18.39-0.322-27.583-0.574
	c-8.794-0.241-17.59-0.309-26.385-0.476c-12.355-0.235-24.711-0.309-37.066-0.514c-6.518-0.108-13.039-0.013-19.553-0.213
	c-9.117-0.28-18.239-0.004-27.353-0.251c-9.078-0.245-18.158-0.041-27.234-0.228c-14.877-0.306-29.756-0.092-44.634-0.231
	c-43.397-0.407-86.794-0.229-130.191-0.11c-9.397,0.026-18.796,0.082-28.193,0.213c-8.036,0.112-16.071,0.297-24.105,0.473
	c-1.517,0.033-3.029,0.259-4.552,0.154c-0.832-0.405-1.728-0.439-2.627-0.444c-1.399-0.008-1.837-0.652-1.588-2.054
	c0.193-1.086,0.644-1.555,1.807-1.651C139.166,215.465,140.055,215.591,140.603,214.887z"></path>
<path fill="#2E2A25" d="M184.772,184.028c0.001-5.319,0.006-10.637-0.003-15.956c-0.002-1.444,0.081-2.877,0.368-4.293
	c1.068-5.266,4.345-8.275,9.538-9.332c2.201-0.448,4.429-0.684,6.669-0.691c7.758-0.025,15.516-0.024,23.274-0.002
	c2.281,0.006,4.551,0.221,6.787,0.702c5.657,1.218,8.973,4.906,9.55,10.668c0.127,1.271,0.193,2.553,0.195,3.83
	c0.015,10.957-0.005,21.914,0.031,32.871c0.003,1.021-0.209,1.372-1.308,1.352c-4.038-0.072-8.078-0.071-12.116-0.001
	c-1.124,0.019-1.475-0.222-1.468-1.419c0.055-9.517,0.027-19.035,0.034-28.553c0.001-1.407-0.11-2.797-0.514-4.149
	c-0.546-1.828-1.716-3.048-3.596-3.495c-0.814-0.194-1.646-0.378-2.477-0.418c-4.593-0.22-9.197-0.394-13.776,0.07
	c-4.191,0.425-6.179,2.692-6.257,6.91c-0.07,3.798-0.023,7.598-0.024,11.397c-0.002,6.118-0.02,12.237,0.02,18.355
	c0.006,0.944-0.16,1.316-1.218,1.3c-4.198-0.064-8.398-0.054-12.596-0.005c-0.91,0.01-1.138-0.26-1.133-1.146
	C184.789,196.025,184.771,190.027,184.772,184.028z"></path>
<path fill="#2E2A25" d="M282.94,153.741c6.639-0.002,13.278,0.02,19.916-0.024c0.998-0.007,1.291,0.262,1.268,1.264
	c-0.066,2.878-0.068,5.759,0,8.637c0.025,1.059-0.221,1.409-1.36,1.403c-10.318-0.048-20.636-0.024-30.954-0.031
	c-1.567-0.001-3.12,0.113-4.633,0.528c-2.752,0.755-4.818,3.755-4.596,6.574c0.032,0.404,0.157,0.583,0.56,0.573
	c0.36-0.009,0.72,0.003,1.08,0.003c12.838,0,25.675,0.013,38.513-0.023c1.074-0.003,1.428,0.246,1.395,1.369
	c-0.084,2.837-0.095,5.68,0.003,8.517c0.042,1.216-0.375,1.421-1.485,1.418c-12.838-0.038-25.675-0.027-38.513-0.019
	c-1.774,0.001-1.559-0.225-1.562,1.624c-0.01,5.479-0.029,10.958,0.02,16.437c0.009,0.971-0.29,1.19-1.21,1.179
	c-4.119-0.047-8.239-0.044-12.357-0.001c-0.897,0.009-1.245-0.187-1.245-1.167c0.004-11.558-0.041-23.116-0.055-34.673
	c-0.002-1.401,0.194-2.792,0.524-4.156c1.208-4.992,4.508-7.733,9.425-8.727c2.36-0.477,4.746-0.692,7.149-0.697
	C270.862,153.734,276.901,153.743,282.94,153.741z"></path>
<path fill="#2E2A25" d="M163.451,178.436c0-7.836,0.015-15.672-0.02-23.508c-0.004-0.934,0.236-1.221,1.194-1.209
	c4.197,0.052,8.396,0.041,12.593,0.006c0.823-0.007,1.1,0.22,1.097,1.074c-0.05,15.752-0.076,31.504-0.088,47.256
	c-0.001,0.776-0.145,1.126-1.044,1.115c-4.237-0.048-8.476-0.046-12.713-0.001c-0.886,0.01-1.037-0.313-1.035-1.105
	C163.461,194.188,163.451,186.312,163.451,178.436z"></path>
<path fill="#2E2A25" d="M44.87,211.194c-3.093-2.374-5.68-5.246-8.039-8.321c-6.985-9.106-9.699-19.431-8.836-30.814
	c1.013-13.349,6.728-24.394,16.218-33.634c0.826-0.804,1.538-1.742,2.585-2.299c0.451,0.284,0.351,0.645,0.165,1.039
	c-0.45,0.955-0.748,1.928-1.703,2.646c-1.183,0.889-1.828,2.177-1.485,3.789c0.13,0.609-0.072,1.265,0.083,1.938
	c1.171-0.508,1.996-1.345,2.83-2.195c0.691-0.704,0.919-0.649,1.353,0.089c-6.069,7.632-9.988,16.171-11.113,25.937
	c-0.933,8.097-0.307,16.011,2.413,23.724c1.161,3.29,2.802,6.339,4.652,9.283c-0.035,0.107-0.1,0.19-0.195,0.25
	c-0.282,0.12-0.504-0.004-0.71-0.181c-0.201-0.172-0.385-0.222-0.532,0.067c-0.062,0.09-0.138,0.16-0.227,0.217
	c-0.109,0.051-0.308,0.101-0.304,0.162c0.072,1.086-0.279,2.094-0.537,3.121c-0.046,0.181,0.096,0.437,0.263,0.507
	c1.329,0.557,1.72,2.122,3.041,2.739C45.609,209.64,45.555,210.423,44.87,211.194z"></path>
<path fill="#2E2A25" d="M89.975,151.558c0.006,5.479-0.005,10.958,0.034,16.437c0.007,0.94-0.315,1.264-1.246,1.259
	c-5.319-0.03-10.638-0.037-15.957-0.005c-1.02,0.006-1.291-0.398-1.284-1.353c0.035-4.881,0.339-9.746,0.749-14.607
	c0.073-0.868,0.443-1.209,1.332-1.319c3.374-0.416,6.758-0.693,10.146-0.939c0.32-0.42,0.786-0.48,1.264-0.523
	c1.352-0.122,2.675,0.148,4.006,0.299C89.467,150.859,89.852,151.058,89.975,151.558z"></path>
<path fill="#2E2A25" d="M108.506,156.352c0.169,3.825,0.441,7.646,0.471,11.479c0.009,1.121-0.381,1.429-1.451,1.42
	c-5.227-0.043-10.455-0.024-15.683-0.023c-0.702,0-1.354,0.055-1.346-1.003c0.046-5.546,0.049-11.093,0.067-16.639
	c0.517-0.515,1.107-0.232,1.678-0.153c2.886,0.322,5.733,0.82,8.468,1.842c0.333,0.124,0.697,0.146,1.056,0.099
	c2.185,0.802,4.548,1.141,6.536,2.47C108.449,155.981,108.523,156.148,108.506,156.352z"></path>
<path fill="#2E2A25" d="M108.464,179.615c-0.212,0.649-0.47,1.203-1.161,1.56c-5.048,2.607-10.277,4.76-15.721,6.387
	c-0.339,0.101-0.7,0.13-1.051,0.192c-0.005-5.596,0.012-11.193-0.034-16.789c-0.008-0.987,0.367-1.202,1.264-1.197
	c5.317,0.029,10.634,0.03,15.95-0.01c0.953-0.007,1.271,0.295,1.21,1.238C108.738,173.867,108.612,176.742,108.464,179.615z"></path>
<path fill="#2E2A25" d="M91.177,145.355c-0.654-0.083-0.672-0.562-0.671-1.064c0.005-3.785,0.023-7.57-0.005-11.355
	c-0.006-0.865,0.367-1.105,1.153-1.073c1.034,0.043,2.071,0.021,3.106,0.027c0.868,0.36,1.818-0.225,2.677,0.233
	c2.181,0.484,4.412,0.724,6.562,1.365c0.577,0.172,1.002,0.364,1.153,1.03c1.005,4.443,1.807,8.921,2.44,13.432
	c0.145,1.034-0.114,1.142-1.032,0.854c-4.234-1.325-8.529-2.409-12.931-3.024c-0.469-0.313-0.885,0.11-1.332,0.096
	C91.849,145.864,91.479,145.682,91.177,145.355z"></path>
<path fill="#2E2A25" d="M80.741,169.776c2.677,0,5.355,0.034,8.031-0.018c0.952-0.019,1.234,0.311,1.228,1.242
	c-0.033,5.114-0.011,10.229-0.016,15.343c0,0.309,0.138,0.722-0.14,0.901c-0.373,0.24-0.654-0.171-0.934-0.357
	c-6.082-4.045-11.608-8.743-16.531-14.144c-0.188-0.206-0.398-0.404-0.538-0.641c-0.37-0.622-0.397-1.342-0.163-1.967
	c0.23-0.614,0.912-0.334,1.392-0.339c2.557-0.026,5.114-0.012,7.671-0.012C80.741,169.782,80.741,169.779,80.741,169.776z"></path>
<path fill="#2E2A25" d="M75.092,144.574c-0.536,0.002-1.072,0.004-1.608,0.006c-0.28-0.321,0.181-0.781,0.236-1.22
	c0.318-2.562,1.052-5.045,1.401-7.598c0.104-0.763-0.012-1.07,0.702-1.334c2.691-0.993,5.477-1.613,8.273-2.213
	c1.66-0.357,3.322-0.346,4.995-0.328c0.871-0.035,0.907,0.538,0.906,1.191c-0.006,3.987,0.004,7.974,0.008,11.96
	c-0.772,0.504-1.597,0.568-2.507,0.462c-1.226-0.143-2.451-0.331-3.691-0.348c-0.482-0.007-0.97-0.057-1.236-0.563
	c-0.227-0.006-0.453-0.011-0.68-0.017C79.624,144.403,77.358,144.402,75.092,144.574z"></path>
<path fill="#2E2A25" d="M134.028,186.138c-0.918-0.266-1.107-0.943-0.968-1.774c0.105-0.629,0.269-1.252-0.092-1.854
	c-0.448-0.389-0.272-0.771,0.017-1.147c1.493-1.944,2.505-4.15,3.477-6.377c0.129-0.296,0.221-0.606,0.602-0.664
	c0.508-0.168,0.553-0.648,0.687-1.052c1.983-5.99,2.357-12.118,1.583-18.348c-0.735-5.91-2.8-11.294-6.312-16.114
	c-0.169-0.893-0.79-1.424-1.507-1.876c-0.154-0.168-0.307-0.336-0.461-0.504c-0.073-0.562-0.413-0.866-0.948-0.981
	c-0.159-0.156-0.317-0.313-0.476-0.469c-0.022-0.158-0.065-0.311-0.109-0.463c-0.16-0.549-0.34-1.153,0.322-1.456
	c0.68-0.311,0.819,0.334,1.09,0.754c0.369,0.574,1.079,0.727,1.564,1.168c6.086,6.117,9.551,13.517,10.489,22.048
	c1.077,9.804-0.567,18.946-7.121,26.752C135.224,184.543,134.639,185.351,134.028,186.138z"></path>
<path fill="#2E2A25" d="M48.041,143.431c-0.907-0.281-1.201,0.503-1.534,1.008c-0.352,0.534-0.712,0.895-1.334,1.088
	c-0.523,0.162-1.031,0.456-1.106,1.131c-0.031,0.286-0.155,0.595-0.511,0.535c-0.304-0.051-0.2-0.366-0.253-0.591
	c-0.345-1.475,0.179-3.021-0.371-4.482c-0.057-0.153,0.001-0.449,0.117-0.551c0.982-0.857,1.266-2.234,2.501-2.987
	c0.667-0.407,0.847-1.612,1.247-2.457c4.292-3.998,9.147-7.171,14.379-9.783c2.031-1.014,4.083-1.992,6.271-2.64
	c0.964,0.977,0.972,1.516,0.024,2.73c0.523-0.171,0.952-0.511,1.439-0.675c0.552-0.185,1.277-0.497,1.389,0.553
	c-7.726,3.643-14.423,8.681-20.235,14.919C49.386,141.959,48.716,142.697,48.041,143.431z"></path>
<path fill="#2E2A25" d="M85.424,195.438c0.816-0.156,1.651-0.249,2.442-0.487c0.791-0.238,1.478-0.136,2.154,0.282
	c-0.011,3.478-0.057,6.956-0.012,10.433c0.013,1.027-0.229,1.45-1.334,1.34c-3.993-0.399-7.896-1.183-11.703-2.461
	c-0.667-0.224-0.936-0.669-1.071-1.294c-0.422-1.952-0.856-3.901-1.286-5.851c-0.186-0.545,0.065-0.923,0.572-0.956
	C78.61,196.222,81.949,195.123,85.424,195.438z"></path>
<path fill="#2E2A25" d="M140.603,214.887c0.265,0.025,0.53,0.05,1.007,0.094c-1.118,0.737-2.218,0.798-3.242,1.014
	c-1.17,0.247-1.083,1.234-1.15,1.938c-0.074,0.777,0.734,0.648,1.333,0.752c0.828,0.145,1.846,0.004,2.345,0.986
	c-4.018,0.306-8.061,0.211-12.063,0.763c-0.433,0.06-0.894,0.08-1.286,0.25c-4.837,2.096-10.017,2.622-15.155,3.339
	c-1.382,0.193-2.776,0.297-4.164,0.442c-0.873-0.168-1.746-0.156-2.63-0.077c-0.462,0.041-1.006,0.009-1.084-0.635
	c-0.07-0.578,0.418-0.691,0.82-0.869c0.784-0.347,1.788-0.007,2.434-0.78c5.708-2.22,11.606-3.779,17.588-5.041
	C130.39,216,135.478,215.309,140.603,214.887z"></path>
<path fill="#2E2A25" d="M44.87,211.194c-0.036-0.805-0.044-1.574-1.12-1.792c-0.512-0.104-0.698-0.728-1.003-1.133
	c-0.288-0.383-0.558-0.727-1.018-0.951c-1.157-0.565-1.393-1.306-0.709-2.408c0.348-0.561,0.43-0.943,0.148-1.604
	c-0.486-1.142,0.579-0.74,1.082-0.874c0.699,0.828,0.699,0.828,1.933,0.216c4.242,5.841,9.469,10.594,15.74,14.177
	c3.37,1.926,6.918,3.457,10.636,4.584c0.098,0.987-0.563,0.981-1.229,0.909c-0.378-0.041-0.711-0.325-1.377-0.291
	c0.971,0.553,1.766,0.857,2.638,0.935c0.526,0.047,1.034,0.145,1.47,0.452c0.241,0.169,0.376,0.441,0.264,0.736
	c-0.11,0.289-0.346,0.277-0.586,0.138c-2.8-0.291-5.418-1.275-8.046-2.184c-6.588-2.279-12.534-5.718-17.944-10.1
	C45.44,211.753,45.162,211.464,44.87,211.194z"></path>
<path fill="#2E2A25" d="M125.314,166.677c-1.069,1.988-2.692,2.587-4.943,2.461c-3.624-0.204-7.266-0.076-10.901-0.088
	c-0.018-3.673-0.033-7.347-0.294-11.014c-0.138-0.259-0.09-0.542-0.082-0.813c0.027-0.92,0.293-1.145,1.172-0.857
	c1.312,0.431,2.56,1.023,3.781,1.666c0.767,0.581,1.721,0.786,2.547,1.275c1.056,0.624,2.108,1.239,3.066,2.006
	c1.829,0.908,3.418,2.157,4.936,3.502c0.417,0.37,0.792,0.784,0.903,1.364C125.473,166.359,125.404,166.522,125.314,166.677z"></path>
<path fill="#2E2A25" d="M71.719,153.34c-0.469,4.879-0.739,9.857-0.671,14.852c0.005,0.382,0.103,0.87-0.434,0.986
	c-0.643,0.138-1.281,0.128-1.734-0.481c-0.977-1.313-1.991-2.6-2.923-3.943c-2.053-2.959-3.794-6.095-5.217-9.409
	c-0.34-0.791-0.204-1.166,0.662-1.317c3.143-0.55,6.283-1.121,9.421-1.698C71.617,152.182,71.848,152.534,71.719,153.34z"></path>
<path fill="#2E2A25" d="M104.941,201.224c-0.063,1.247-0.506,2.414-0.754,3.623c-0.107,0.521-0.45,0.696-0.906,0.812
	c-3.885,0.994-7.827,1.476-11.842,1.399c-0.873-0.017-0.939-0.476-0.935-1.149c0.021-3.391,0.02-6.782,0.027-10.173
	c0.607-0.691,1.195-0.185,1.722,0.086c3.136,1.61,6.371,2.972,9.744,4.004c0.612,0.187,1.225,0.369,1.843,0.528
	c0.509,0.13,0.867,0.383,1.024,0.892L104.941,201.224z"></path>
<path fill="#2E2A25" d="M72.958,144.343c-1.167,0.633-2.485,0.502-3.731,0.676c-3.21,0.449-6.351,1.149-9.437,2.132
	c-0.404,0.129-0.927,0.62-1.281,0.034c-0.318-0.527-0.281-1.155,0.119-1.693c0.859-1.154,1.791-2.246,2.809-3.263
	c3.204-2.653,6.918-4.441,10.612-6.264c0.359-0.177,0.732-0.31,1.112-0.437c1.383-0.463,1.736-0.225,1.442,1.146
	c-0.486,2.26-0.914,4.529-1.299,6.808C73.256,143.768,73.256,144.133,72.958,144.343z"></path>
<path fill="#2E2A25" d="M70.301,126.311c-0.472-0.267-0.958-0.225-1.348,0.101c-0.861,0.72-1.897,0.46-2.863,0.587
	c-0.245,0.032-0.513-0.045-0.556-0.329c-0.044-0.295,0.218-0.39,0.448-0.47c1.628-0.564,1.628-0.563,1.467-2.497
	c0.165-0.07,0.33-0.14,0.495-0.211c1.321-0.262,2.661-0.463,3.825-1.216c3.721-1.273,7.579-1.898,11.462-2.385
	c3.492-0.438,7.006-0.654,10.518-0.488c3.327,0.158,6.671,0.24,9.953,0.928c0.201,1.148-0.648,0.776-1.131,0.845
	c0.297,0.062,0.687-0.048,1.043,0.083c0.281,0.103,0.464,0.344,0.372,0.651c-0.091,0.303-0.335,0.265-0.567,0.137
	c-2.615-0.242-5.226-0.613-7.847-0.704C86.773,121.038,78.342,122.713,70.301,126.311z"></path>
<path fill="#2E2A25" d="M71.739,224.287c-0.073-0.509-0.093-0.613-0.663-0.639c-0.964-0.045-1.842-0.416-2.768-0.585
	c-0.59-0.107-0.889-0.462-1.057-0.988c-0.099-0.311-0.151-0.621,0.07-0.904c0.303-0.389,0.554-0.024,0.83,0.059
	c0.789,0.236,1.543,0.982,2.409,0.178c5.981,1.737,12.104,2.543,18.312,2.516c6.345-0.028,12.678-0.386,18.898-1.819
	c-0.129,0.548-0.499,0.765-1.037,0.824c-0.434,0.048-0.864,0.154-1.286,0.271c-0.224,0.062-0.52,0.171-0.489,0.45
	c0.042,0.384,0.392,0.357,0.659,0.298c0.953-0.209,1.791,0.103,2.614,0.518c-5.997,0.677-12.012,1.064-18.043,1.32
	c-5.539,0.235-11.022-0.078-16.477-1.016C73.041,224.655,72.362,224.583,71.739,224.287z"></path>
<path fill="#2E2A25" d="M72.142,185.823c-0.189-1.338-0.266-2.691-0.39-4.038c0.312-0.592-0.058-0.978-0.422-1.354
	c-1.273-1.31-2.575-2.591-3.869-3.879c-0.263-0.262-0.54-0.482-0.887-0.531c-0.003-0.116-0.026-0.228-0.076-0.333
	c-1.217-1.77-2.58-3.428-3.914-5.107c-0.391-0.491-0.754-1.21-1.627-0.829c-2.279,0.01-4.558,0.067-6.835,0.01
	c-1.043-0.026-1.43,0.282-1.351,1.36c0.28,3.809,1.127,7.493,2.228,11.137c0.307,1.017,0.83,1.594,1.898,1.636
	c4.733,1.256,9.554,2.05,14.388,2.787C72.084,186.805,72.252,186.603,72.142,185.823z"></path>
<path fill="#2E2A25" d="M122.617,169.815c-3.976,4.185-8.519,7.62-13.64,10.287c0.145-3.153,0.504-6.296,0.458-9.457
	c-0.01-0.709,0.321-0.876,0.95-0.872C114.462,169.799,118.539,169.804,122.617,169.815z"></path>
<path fill="#2E2A25" d="M125.451,153.051c-1.271-4.542-3.72-8.349-7.087-11.603c-0.086-0.884-0.873-1.055-1.457-1.432
	c-0.615-0.321-0.961-1.03-1.696-1.178c-2.409-2.589-5.68-3.533-8.863-4.645c-0.621-0.217-0.684,0.052-0.566,0.582
	c0.278,1.247,0.552,2.495,0.779,3.752c0.535,2.956,1.047,5.917,1.566,8.876c-0.029,0.177-0.006,0.372,0.104,0.592
	c0.057,0.528-0.18,1.184,0.521,1.454c2.455,0.945,4.861,2.095,7.395,2.739c2.811,0.715,5.722,1.059,8.556,1.731
	C125.621,154.135,125.683,153.88,125.451,153.051z"></path>
<path fill="#2E2A25" d="M103.418,122.047c0.505-0.461-0.051-0.355-0.231-0.406c-0.846-0.239-1.765-0.213-2.792-0.694
	c1.202-0.535,2.455,0.43,3.307-0.615c4.007,0.408,7.8,1.636,11.519,3.099c6.09,2.395,11.49,5.888,16.222,10.409
	c0.374,0.357,0.704,0.76,1.054,1.141c-0.81-0.284-1.877-0.192-2.037-1.423c-0.02-0.156-0.218-0.274-0.364-0.149
	c-0.096,0.083-0.175,0.307-0.13,0.413c0.21,0.493,0.039,0.847-0.336,1.155c-5.723-5.163-12.298-8.846-19.623-11.18
	C107.844,123.107,105.616,122.624,103.418,122.047z"></path>
<path fill="#2E2A25" d="M72.766,190.415c-0.401,0.618-1.04,0.502-1.61,0.465c-1.645-0.108-3.287-0.269-4.93-0.409
	c-2.309-0.273-4.546-0.843-6.768-1.527c-1.536-0.473-2.613-1.274-3.021-2.882c-0.135-0.531-0.391-1.032-0.685-1.784
	c1.904,0.409,3.599,0.756,5.286,1.139c3.314,0.754,6.663,1.32,10.026,1.777c1.061,0.144,1.472,0.534,1.469,1.561
	C72.531,189.309,72.683,189.862,72.766,190.415z"></path>
<path fill="#2E2A25" d="M60.494,168.588c0.057,0.468-0.25,0.523-0.598,0.516c-2.427-0.049-4.857,0.114-7.282-0.092
	c-0.1-3.945,0.429-7.827,1.161-11.69c0.682,0.155,0.709,0.806,0.926,1.283C56.299,162.128,58.17,165.489,60.494,168.588z"></path>
<path fill="#2E2A25" d="M62.138,196.682c0.882-0.471,1.763,0.224,2.644,0.001c2.582,0.514,5.197,0.484,7.81,0.446
	c0.666-0.01,1.285-0.006,1.562,0.753c0.379,1.711,0.761,3.422,1.135,5.135c0.102,0.465,0.195,0.975-0.579,0.669
	c-4.319-1.704-8.41-3.835-12.184-6.552C62.368,197.022,62.265,196.834,62.138,196.682z"></path>
<path fill="#2E2A25" d="M88.816,131.432c-4,0.219-7.868,1.094-11.669,2.317c-0.496,0.159-1.145,0.729-1.493,0.242
	c-0.314-0.439,0.091-1.133,0.46-1.628c4.093-1.415,8.266-2.418,12.624-2.485c0.511-0.008,1.171-0.346,1.244,0.603
	C90.053,131.392,89.43,131.393,88.816,131.432z"></path>
<path fill="#2E2A25" d="M76.47,205.045c1.799,0.491,3.509,1.011,5.246,1.418c2.334,0.547,4.695,0.959,7.101,1.046
	c0.624,0.023,1.219,0.058,1.163,0.964c-0.058,0.943-0.747,0.678-1.237,0.661c-3.573-0.122-7.053-0.773-10.482-1.784
	C77.1,207.009,76.478,206.414,76.47,205.045z"></path>
<path fill="#2E2A25" d="M50.606,171.695c0.013-0.641,0.026-1.282,0.04-1.923c0.998-0.124,1.483,0.184,1.561,1.321
	c0.253,3.702,0.997,7.32,2.116,10.862c0.124,0.393,0.658,1.054,0.119,1.208c-0.591,0.168-1.436,0.049-1.758-0.827
	c-0.273-0.744-0.395-1.546-0.841-2.224c-0.02-0.751-0.161-1.474-0.472-2.161c-0.871-1.551-1.155-3.25-1.244-4.995
	C50.104,172.473,50.144,172,50.606,171.695z"></path>
<path fill="#2E2A25" d="M78.471,188.057c0.913,0.166,1.676,0.638,2.407,1.177c0.219,0.228,0.437,0.455,0.656,0.683
	c-1.595,0.239-3.189,0.478-4.784,0.717c-1.092,0.1-2.215-0.166-3.279,0.27c-0.809-3.425-0.809-3.426,2.631-3.089
	C76.892,187.893,77.681,187.977,78.471,188.057z"></path>
<path fill="#2E2A25" d="M96.725,131.635c-1.785-0.166-3.566-0.392-5.364-0.307c-0.717,0.034-0.878-0.365-0.861-0.979
	c0.024-0.863,0.619-0.39,0.957-0.397c4.17-0.089,8.17,0.8,12.08,2.161c0.411,0.143,0.975,0.149,1.133,0.889
	c-2.052-0.357-3.975-1.027-5.992-1.144C98.061,131.481,97.331,132.103,96.725,131.635z"></path>
<path fill="#2E2A25" d="M76.009,206.511c-4.688-1.763-8.738-4.335-12.278-7.786c0.337,0.194,0.68,0.38,1.011,0.585
	c3.125,1.936,6.375,3.632,9.826,4.902C75.664,204.615,76.016,205.296,76.009,206.511z"></path>
<path fill="#2E2A25" d="M91.824,209.144c-0.014,0-0.293-0.009-0.572,0.002c-0.484,0.019-0.731-0.161-0.738-0.689
	c-0.008-0.571,0.234-0.777,0.785-0.774c3.927,0.021,7.802-0.415,11.621-1.339c0.24-0.058,0.616-0.238,0.697,0.162
	c0.089,0.438-0.351,0.459-0.634,0.558C99.457,208.298,95.814,208.929,91.824,209.144z"></path>
<path fill="#2E2A25" d="M126.813,158.716c-2.783-2.08-5.571-3.745-8.461-5.244c0.031-0.094,0.062-0.188,0.093-0.282
	c1.527,0.309,3.056,0.612,4.582,0.927C126.365,154.806,126.467,154.927,126.813,158.716z"></path>
<path fill="#2E2A25" d="M105.575,201.473c2.248,0.316,4.497,0.633,6.745,0.949c-2.408,1.123-4.878,2.069-7.638,2.833
	C105.015,203.844,105.295,202.658,105.575,201.473z"></path>
<path fill="#2E2A25" d="M72.287,182.319c0.61,0.117,0.913,0.676,1.397,0.974c1.418,1.59,3.228,2.737,4.747,4.212
	c-1.671,0.053-3.285-0.409-4.935-0.548c-0.375-0.032-0.704-0.221-0.727-0.654C72.7,184.964,72.174,183.68,72.287,182.319z"></path>
<path fill="#2E2A25" d="M52.092,169.075c-1.086,0.22-1.585-0.161-1.464-1.323c0.078-0.752,0.034-1.517,0.045-2.276
	c0.36-1.995,0.618-4.009,1.146-5.973c0.172-0.641,0.425-1.172,1.252-1.58C52.371,161.724,51.943,165.378,52.092,169.075z"></path>
<path fill="#2E2A25" d="M75.123,132.851c-0.056,1.305-0.731,1.982-1.973,2.461c-2.894,1.118-5.627,2.592-8.265,4.235
	c-0.304,0.19-0.606,0.59-1.052,0.239c3.102-2.629,6.475-4.834,10.189-6.504C74.382,133.12,74.756,132.994,75.123,132.851z"></path>
<path fill="#2E2A25" d="M61.145,153.488c1.97-1.038,4.098-1.497,6.233-1.911c1.213-0.235,2.447-0.373,3.675-0.52
	c0.275-0.033,0.741-0.229,0.796,0.227c0.047,0.387-0.395,0.433-0.707,0.483c-2.089,0.337-4.182,0.653-6.268,1.006
	C63.626,152.984,62.388,153.248,61.145,153.488z"></path>
<path fill="#2E2A25" d="M56.361,187.368c-1.85-0.393-2.483-1.677-2.949-3.113c-0.086-0.266-0.045-0.531,0.28-0.498
	c0.544,0.056,1.186,0.047,1.458,0.64C55.579,185.328,55.929,186.294,56.361,187.368z"></path>
<path fill="#2E2A25" d="M72.526,150.896c2.443-0.011,4.879-0.585,7.328-0.09c-2.155,0.201-4.311,0.398-6.465,0.605
	C72.959,151.453,72.468,151.648,72.526,150.896z"></path>
<path fill="#2E2A25" d="M71.769,122.276c-0.091,0.171-0.146,0.456-0.277,0.496c-1.157,0.355-2.263,0.993-3.548,0.72
	C69.191,122.999,70.45,122.545,71.769,122.276z"></path>
<path fill="#2E2A25" d="M131.515,136.931c0.269-0.171,0.542-0.19,0.698,0.118c0.298,0.589,0.772,0.826,1.432,0.641
	c-0.048,0.591-0.333,0.856-0.623,1.117C132.519,138.182,132.017,137.556,131.515,136.931z"></path>
<path fill="#2E2A25" d="M44.183,202.646c-0.036,0.069-0.07,0.14-0.108,0.208c-0.273,0.497-0.608,1.008-1.246,0.851
	c-0.622-0.153-0.531-0.78-0.579-1.275l0,0c0.558-0.542,1.113,0.544,1.671,0.004c0,0,0.073-0.059,0.073-0.059
	C44.056,202.465,44.119,202.556,44.183,202.646z"></path>
<path fill="#2E2A25" d="M104.492,206.271c0.787-0.782,1.829-0.795,2.765-1.11C106.425,205.778,105.536,206.248,104.492,206.271z"></path>
<path fill="#2E2A25" d="M70.969,171.006c-0.481-0.318-0.777-0.609-0.895-1.058C71.013,169.825,71.013,169.825,70.969,171.006z"></path>
<path fill="#2E2A25" d="M130.105,135.446c0.882-0.22,1.202,0.104,0.948,0.981C130.738,136.1,130.422,135.773,130.105,135.446z"></path>
<g>
	<path fill="#2E2A25" d="M540.349,186.381c0.046-0.095,0.093-0.19,0.139-0.285c0.915,0,1.83,0.031,2.743-0.005
		c6.28-0.244,10.93-3.815,12.089-9.522c0.89-4.384,0.913-8.846-0.002-13.226c-0.901-4.315-3.458-7.286-7.832-8.529
		c-2.6-0.739-5.258-1.055-7.937-1.063c-12.956-0.037-25.913-0.014-38.869-0.041c-0.876-0.002-1.178,0.228-1.176,1.14
		c0.024,15.756,0.024,31.512,0.003,47.267c-0.001,0.867,0.311,1.065,1.114,1.058c4.119-0.033,8.239-0.061,12.356,0.015
		c1.159,0.021,1.365-0.383,1.354-1.424c-0.048-4.838,0-9.677-0.038-14.516c-0.007-0.881,0.222-1.184,1.136-1.158
		c2.238,0.063,4.479,0.056,6.717,0.003c0.907-0.022,1.551,0.236,2.192,0.908c4.884,5.122,9.817,10.196,14.711,15.309
		c0.565,0.59,1.122,0.876,1.964,0.869c4.678-0.041,9.357-0.016,14.036-0.026c0.376-0.001,0.787,0.132,1.248-0.22
		C550.963,197.397,545.656,191.889,540.349,186.381z M533.876,174.783c-3.073,0.103-6.152,0.024-9.228,0.024
		c0,0.014,0,0.028,0,0.042c-3.036,0-6.073-0.026-9.109,0.017c-0.886,0.013-1.278-0.168-1.251-1.172
		c0.07-2.555,0.045-5.114,0.01-7.67c-0.011-0.755,0.191-1.048,1.001-1.043c5.913,0.035,11.826,0.01,17.739,0.046
		c1.315,0.008,2.621,0.213,3.906,0.542c1.813,0.465,2.933,1.699,3.759,3.275c0.425,0.812,0.3,1.598-0.102,2.403
		C539.202,174.046,536.64,174.69,533.876,174.783z"></path>
	<path fill="#2E2A25" d="M357.652,154.58c-2.418-0.612-4.888-0.817-7.368-0.825c-7.635-0.026-15.271-0.021-22.906-0.003
		c-2.321,0.006-4.625,0.236-6.906,0.695c-5.25,1.057-8.532,4.107-9.573,9.427c-0.238,1.217-0.354,2.449-0.353,3.694
		c0.008,7.236,0.006,14.471,0,21.707c-0.001,1.123,0.083,2.237,0.279,3.341c0.804,4.516,3.093,7.826,7.617,9.29
		c1.639,0.531,3.323,0.855,5.04,1.014c5.108,0.475,10.228,0.092,14.34,0.227c4.799,0,8.596-0.004,12.394,0.002
		c2.004,0.003,3.99-0.187,5.967-0.497c5.276-0.827,8.899-3.55,10.197-8.919c0.406-1.678,0.555-3.388,0.555-5.112
		c0-6.516-0.006-13.032,0.005-19.548c0.002-1.321-0.066-2.635-0.201-3.949C366.163,159.532,363.09,155.956,357.652,154.58z
		 M351.878,186.09c-0.547,3.682-1.924,5.196-5.61,5.554c-4.893,0.476-9.823,0.5-14.711,0.004c-4.077-0.413-5.943-2.667-6.082-6.804
		c-0.071-2.115-0.013-4.235-0.013-7.025c0.115-1.918-0.26-4.525,0.182-7.103c0.57-3.329,2.263-5.112,5.593-5.445
		c5.133-0.513,10.296-0.519,15.428,0.019c3.316,0.348,4.709,1.893,5.239,5.243c0.364,2.305,0.182,4.627,0.167,6.94
		C352.053,180.346,352.303,183.227,351.878,186.09z"></path>
	<path fill="#2E2A25" d="M420.851,154.624c-2.663-0.636-5.362-0.888-8.085-0.891c-12.599-0.015-25.198,0.008-37.797-0.033
		c-1.134-0.004-1.407,0.352-1.402,1.423c0.037,7.759,0.02,15.518,0.019,23.278c-0.001,7.839,0.016,15.679-0.021,23.518
		c-0.005,1.01,0.309,1.276,1.295,1.263c4.119-0.052,8.239-0.047,12.359-0.001c0.89,0.01,1.156-0.232,1.148-1.137
		c-0.043-4.879,0.015-9.76-0.047-14.638c-0.014-1.082,0.307-1.322,1.342-1.316c7.639,0.043,15.279,0.022,22.918,0.023
		c2.524,0,5.027-0.192,7.51-0.684c5.033-0.997,8.284-3.907,9.276-8.967c0.875-4.464,0.918-9.007-0.088-13.456
		C428.265,158.512,425.383,155.707,420.851,154.624z M411.968,173.901c-1.283,0.759-2.815,0.867-4.3,0.909
		c-1.478,0.042-2.958,0.032-4.437,0.038s-2.958,0.001-4.437,0.001c-3.118,0-6.236-0.022-9.354,0.015
		c-0.804,0.009-1.127-0.19-1.11-1.061c0.052-2.597,0.045-5.197,0.003-7.794c-0.013-0.781,0.226-1.029,1.015-1.024
		c5.876,0.032,11.752,0.009,17.629,0.04c1.276,0.007,2.555,0.16,3.796,0.489c0.932,0.247,1.811,0.606,2.525,1.303
		C416.124,169.571,415.201,171.988,411.968,173.901z"></path>
	<path fill="#2E2A25" d="M492.429,201.438c-2.7-9.98-5.453-19.947-8.082-29.946c-1.435-5.457-3.92-10.278-7.911-14.287
		c-2.303-2.313-5.044-3.58-8.375-3.49c-2.277,0.061-4.558,0.047-6.836,0.002c-2.376-0.047-4.539,0.597-6.357,2.088
		c-4.352,3.569-7.774,7.891-9.369,13.338c-3.186,10.881-5.875,21.899-8.748,32.866c-0.281,1.071,0.063,1.173,0.971,1.166
		c4.198-0.033,8.396-0.04,12.593,0.007c0.841,0.009,1.177-0.256,1.372-1.058c1.122-4.617,2.321-9.215,3.426-13.835
		c0.239-0.997,0.654-1.343,1.694-1.333c5.197,0.052,10.395,0.054,15.592-0.001c1.054-0.011,1.427,0.361,1.671,1.341
		c1.138,4.571,2.378,9.116,3.53,13.684c0.22,0.872,0.543,1.248,1.513,1.208c2.076-0.084,4.157-0.026,6.236-0.026
		c2.079,0,4.16-0.055,6.236,0.022c1.096,0.041,1.369-0.298,0.947-1.278C492.471,201.761,492.471,201.592,492.429,201.438z
		 M470.364,175.75c-1.877-0.011-3.754-0.004-5.631-0.005c-1.877-0.001-3.755-0.028-5.631,0.013c-0.781,0.017-0.959-0.186-0.728-0.96
		c0.627-2.104,1.121-4.276,2.367-6.113c2.913-4.296,5.178-4.093,7.934,0.07c1.246,1.881,1.706,4.114,2.425,6.225
		C471.356,175.733,470.908,175.754,470.364,175.75z"></path>
</g>
<path fill="#2E2A25" d="M43.92,202.434c-0.559,0.739-1.115,0.224-1.671-0.004c-0.003-0.556-0.796-1.208-0.15-1.588
	c0.445-0.261,0.586,0.672,0.979,0.973C43.354,202.028,43.553,202.342,43.92,202.434z"></path>
<path fill="#2E2A25" d="M109.465,186.999c6.249-3.164,12.042-6.984,17.094-11.873c0.187-0.181,0.352-0.473,0.7-0.284
	c0.381,0.352,0.31,0.781,0.222,1.222c-0.545,2.739-1.364,5.398-2.261,8.039c-0.201,0.592-0.575,0.804-1.109,0.917
	c-4.234,0.895-8.481,1.722-12.79,2.172C110.703,187.256,110.004,187.798,109.465,186.999z"></path>
<path fill="#2E2A25" d="M107.302,188.007c0.197,1.69-0.341,3.296-0.587,4.932c-0.312,2.079-0.357,2.06-2.342,1.457
	c-2.106-0.64-4.141-1.466-6.168-2.313c0.263-0.475,0.779-0.522,1.211-0.689C102.086,190.361,104.756,189.33,107.302,188.007z"></path>
<path fill="#2E2A25" d="M108.952,195.51c-2.274-0.494-2.057-0.222-1.675-2.404c0.261-1.491,0.499-2.988,0.711-4.487
	c0.07-0.497,0.212-0.784,0.778-0.85c5.07-0.59,10.1-1.432,15.092-2.494c0.104-0.022,0.223,0.024,0.451,0.053
	c-1.349,3.517-3.095,6.764-5.057,9.904c-1.193,0.231-2.386,0.462-3.579,0.693C113.408,196.188,111.158,196.21,108.952,195.51z"></path>
<path fill="#2E2A25" d="M129.869,171.967c-0.251,1.993-0.503,3.986-0.754,5.979c-0.3,0.979-0.6,1.958-0.9,2.937
	c-0.25,0.794-0.493,1.59-0.756,2.38c-0.099,0.297-0.2,0.62-0.575,0.695c-0.383,0.077-0.804,0.383-1.145,0.149
	c-0.442-0.303-0.052-0.742,0.061-1.075c0.97-2.867,1.725-5.786,2.132-8.785c0.156-1.148,1.113-1.695,1.687-2.529
	C129.703,171.802,129.786,171.884,129.869,171.967z"></path>
<path fill="#2E2A25" d="M120.243,194.744c1.712-2.882,3.258-5.848,4.526-8.955c0.09-0.22,0.158-0.489,0.325-0.629
	c0.438-0.366,1.059-0.624,1.521-0.373c0.381,0.207-0.067,0.709-0.216,1.042c-1.029,2.298-2.266,4.48-3.733,6.529
	c-0.436,0.614-0.823,1.273-1.329,1.823C121.079,194.461,120.788,194.917,120.243,194.744z"></path>
<g>
	<path fill="#2E2A25" d="M373.819,240.378c2.999-0.01,5.999,0.015,8.998-0.01c2.366-0.02,2.038,0.41,2.129-2.078
		c0.037-1.009-0.301-1.295-1.289-1.278c-3.198,0.055-6.398,0.03-9.598,0.009c-0.401-0.003-1.027,0.252-1.166-0.264
		c-0.158-0.589,0.167-1.168,0.689-1.553c0.513-0.379,1.121-0.391,1.723-0.393c2.44-0.005,4.879,0.021,7.318-0.015
		c2.608-0.039,2.252,0.525,2.318-2.372c0.019-0.826-0.323-1.009-1.068-0.994c-1.879,0.039-3.759,0.013-5.639,0.013
		c0,0.004,0,0.008,0,0.012c-1.8,0-3.599,0-5.399,0c-0.12,0-0.24,0.004-0.36,0.012c-2.432,0.153-3.746,1.161-3.932,3.367
		c-0.229,2.705-0.269,5.436,0.039,8.14c0.197,1.731,1.14,2.606,2.863,2.919c0.743,0.135,1.507,0.2,2.262,0.206
		c3.039,0.023,6.079,0.029,9.118,0.004c2.365-0.019,2.027,0.417,2.119-2.081c0.036-0.988-0.253-1.31-1.267-1.287
		c-2.798,0.064-5.598,0.023-8.398,0.015c-0.912-0.003-1.776-0.145-2.236-1.078C372.568,240.707,372.758,240.381,373.819,240.378z"></path>
	<path fill="#2E2A25" d="M314.961,237.007c-3.196,0.073-6.395,0.03-9.593,0.022c-1.09-0.003-1.263-0.31-0.745-1.254
		c0.449-0.819,1.224-0.967,2.051-0.971c2.478-0.012,4.957,0.017,7.435-0.021c2.592-0.04,2.269,0.557,2.33-2.355
		c0.017-0.821-0.31-1.007-1.057-0.991c-1.878,0.041-3.757,0.014-5.636,0.014c0,0.01,0,0.02,0,0.029c-1.919,0-3.84-0.065-5.755,0.016
		c-2.465,0.105-3.848,1.295-3.938,3.486c-0.104,2.514-0.089,5.037-0.004,7.553c0.065,1.919,1.085,2.958,2.971,3.377
		c0.71,0.158,1.423,0.198,2.143,0.198c3.038-0.001,6.076,0,9.114,0c2.179,0,2.138-0.001,2.168-2.144
		c0.013-0.915-0.227-1.247-1.201-1.226c-2.837,0.062-5.676,0.024-8.514,0.011c-0.867-0.004-1.684-0.151-2.128-1.042
		c-0.509-1.022-0.329-1.331,0.812-1.333c3.238-0.006,6.477-0.05,9.713,0.024c1.083,0.025,1.46-0.32,1.306-1.35
		c-0.029-0.196-0.031-0.403-0.001-0.598C316.618,237.271,316.09,236.981,314.961,237.007z"></path>
	<path fill="#2E2A25" d="M554.054,239.563c-3.091-1.199-6.188-2.381-9.271-3.599c-0.355-0.14-1.025-0.122-0.867-0.764
		c0.124-0.505,0.666-0.33,1.038-0.332c3.039-0.012,6.079-0.007,9.119-0.007c2.293,0,2.256,0,2.287-2.26
		c0.012-0.852-0.166-1.192-1.11-1.179c-3.759,0.054-7.518,0.028-11.278,0.022c-1.018-0.002-1.974,0.235-2.905,0.632
		c-1.644,0.7-1.901,2.163-1.945,3.669c-0.041,1.424,0.808,2.226,2.119,2.702c2.928,1.063,5.832,2.193,8.743,3.304
		c0.356,0.136,0.896,0.212,0.785,0.729c-0.099,0.46-0.605,0.268-0.93,0.27c-2.879,0.016-5.759-0.011-8.638,0.017
		c-2.383,0.024-2.044-0.447-2.122,2.197c-0.025,0.872,0.213,1.197,1.137,1.168c2.118-0.065,4.239-0.021,6.358-0.021
		c0-0.003,0-0.005,0-0.007c2.12,0,4.24,0.03,6.359-0.01c1.711-0.032,3.123-1.192,3.388-2.683
		C556.628,241.679,555.783,240.234,554.054,239.563z"></path>
	<path fill="#2E2A25" d="M333.318,239.604c-3.126-1.214-6.26-2.407-9.381-3.633c-0.361-0.142-1.017-0.145-0.861-0.776
		c0.125-0.506,0.667-0.328,1.039-0.329c2.998-0.013,5.997-0.007,8.995-0.007c2.492,0,2.46,0.001,2.421-2.483
		c-0.012-0.753-0.267-0.942-0.975-0.937c-3.878,0.03-7.756,0.017-11.634,0.026c-0.974,0.002-1.889,0.259-2.774,0.664
		c-1.57,0.718-1.802,2.136-1.848,3.602c-0.044,1.435,0.793,2.233,2.1,2.711c2.962,1.081,5.902,2.223,8.85,3.344
		c0.328,0.125,0.794,0.206,0.723,0.659c-0.078,0.506-0.573,0.305-0.886,0.307c-2.838,0.017-5.677,0.011-8.516,0.011
		c-2.409,0-2.384-0.001-2.31,2.47c0.02,0.675,0.223,0.9,0.899,0.889c2.158-0.033,4.318-0.012,6.476-0.012c0-0.003,0-0.005,0-0.008
		c2.199,0,4.398,0.037,6.596-0.012c1.649-0.037,3.067-1.308,3.272-2.808C335.735,241.61,334.923,240.227,333.318,239.604z"></path>
	<path fill="#2E2A25" d="M180.066,239.566c-3.129-1.211-6.264-2.407-9.388-3.63c-0.333-0.13-0.918-0.143-0.799-0.705
		c0.113-0.533,0.642-0.365,1.014-0.367c3.08-0.011,6.159-0.006,9.239-0.006c2.266,0,2.233,0,2.242-2.318
		c0.003-0.811-0.199-1.117-1.065-1.108c-3.799,0.044-7.599,0.024-11.399,0.022c-0.934-0.001-1.829,0.19-2.68,0.559
		c-1.471,0.638-2.138,1.828-2.096,3.688c0.033,1.469,0.554,2.131,2.199,2.757c2.8,1.065,5.607,2.111,8.401,3.19
		c0.418,0.161,1.145,0.199,1.07,0.77c-0.085,0.653-0.785,0.322-1.194,0.327c-2.719,0.034-5.439,0.018-8.159,0.018
		c-2.4,0-2.364,0-2.34,2.432c0.008,0.763,0.261,0.942,0.971,0.929c2.119-0.039,4.239-0.014,6.359-0.016
		c2.16-0.002,4.32,0.025,6.479-0.01c1.761-0.029,3.167-1.212,3.42-2.79C182.605,241.654,181.735,240.212,180.066,239.566z"></path>
	<path fill="#2E2A25" d="M197.01,231.544c-3.067-0.15-6.153-0.146-9.22,0.003c-2.291,0.112-3.396,1.241-3.564,3.445
		c-0.193,2.546-0.205,5.113,0.012,7.659c0.171,2.001,1.099,2.88,3.061,3.28c1.664,0.339,3.347,0.094,5.019,0.193
		c1.635-0.081,3.28,0.134,4.905-0.137c2.272-0.379,3.292-1.48,3.37-3.789c0.076-2.274,0.073-4.554,0.001-6.829
		C200.519,232.987,199.371,231.659,197.01,231.544z M196.274,240.623c-0.12,1.533-0.664,2.052-2.18,2.123
		c-0.558,0.026-1.118,0.004-1.677,0.004c-3.712,0.011-3.908-0.187-3.918-3.921c-0.01-3.877,0.152-4.038,4.045-4.037
		c3.583,0.001,3.753,0.172,3.752,3.795C196.296,239.265,196.327,239.947,196.274,240.623z"></path>
	<path fill="#2E2A25" d="M275.934,231.491c-1.394-0.076-2.795-0.013-4.192-0.012c-1.438,0.001-2.879-0.066-4.312,0.016
		c-2.712,0.154-3.896,1.405-3.938,4.102c-0.033,2.156-0.037,4.314,0.003,6.47c0.045,2.417,0.976,3.632,3.344,3.884
		c3.215,0.343,6.467,0.335,9.682,0.005c2.353-0.242,3.307-1.49,3.344-3.887c0.034-2.156,0.03-4.314,0.002-6.47
		C279.832,232.918,278.622,231.637,275.934,231.491z M275.543,238.821c0.011,3.837-0.091,3.939-3.953,3.939
		c-3.552,0.001-3.767-0.215-3.767-3.806c0-0.759-0.028-1.521,0.029-2.275c0.09-1.182,0.706-1.792,1.938-1.847
		c1.275-0.057,2.557-0.055,3.832,0.002c1.335,0.059,1.848,0.613,1.914,1.951C275.57,237.462,275.543,238.142,275.543,238.821z"></path>
	<path fill="#2E2A25" d="M435.609,231.473c-1.356-0.056-2.717-0.01-4.075-0.01c0,0.002,0,0.005,0,0.007
		c-1.438,0-2.881-0.067-4.314,0.015c-2.653,0.151-3.851,1.387-3.905,4.011c-0.046,2.237-0.047,4.476,0.006,6.712
		c0.054,2.302,0.983,3.46,3.234,3.72c3.257,0.377,6.546,0.346,9.804,0.024c2.307-0.228,3.307-1.54,3.341-3.904
		c0.03-2.117,0.022-4.236,0.003-6.353C439.677,232.914,438.405,231.589,435.609,231.473z M435.356,238.803
		c0.007,3.841-0.112,3.961-3.933,3.957c-3.58-0.004-3.773-0.197-3.773-3.784c0-0.678-0.015-1.357,0.014-2.033
		c0.062-1.439,0.632-2.052,2.043-2.105c1.234-0.047,2.473-0.044,3.707,0.005c1.321,0.052,1.87,0.622,1.936,1.928
		C435.384,237.446,435.356,238.125,435.356,238.803z"></path>
	<path fill="#2E2A25" d="M473.316,231.642c-1.736-0.409-3.505-0.093-4.558-0.169c-2.136,0-3.578-0.068-5.011,0.015
		c-2.677,0.155-3.894,1.47-3.917,4.14c-0.019,2.198-0.031,4.396,0.009,6.593c0.04,2.177,1.026,3.448,3.15,3.688
		c3.375,0.38,6.78,0.397,10.156-0.008c2.028-0.243,3.005-1.451,3.048-3.507c0.052-2.436,0.051-4.875-0.003-7.312
		C476.147,233.159,475.214,232.089,473.316,231.642z M467.925,242.76c-3.497,0-3.749-0.249-3.75-3.705
		c0-0.558-0.005-1.117,0.001-1.675c0.018-1.927,0.584-2.527,2.467-2.565c1.076-0.022,2.154-0.025,3.229,0.019
		c1.427,0.058,1.933,0.568,1.999,1.971c0.031,0.676,0.005,1.355,0.005,2.033C471.893,242.667,471.798,242.76,467.925,242.76z"></path>
	<path fill="#2E2A25" d="M484.804,234.823c2.478-0.035,4.956,0.009,7.434-0.024c2.515-0.033,2.209,0.477,2.277-2.306
		c0.021-0.871-0.312-1.084-1.118-1.063c-1.837,0.048-3.677,0.015-5.515,0.015c0,0.008,0,0.016,0,0.024
		c-1.918,0-3.839-0.064-5.755,0.016c-2.712,0.113-3.996,1.48-4.032,4.182c-0.026,1.918-0.011,3.837-0.006,5.755
		c0.008,3.278,1.246,4.606,4.541,4.666c3.636,0.067,7.274,0.004,10.911,0.038c0.737,0.007,0.979-0.247,0.968-0.964
		c-0.031-2.078-0.029-4.157-0.003-6.235c0.009-0.697-0.191-1.035-0.951-0.981c-0.756,0.053-1.522,0.062-2.276-0.002
		c-0.881-0.075-1.101,0.329-1.064,1.12c0.044,0.957,0.001,1.918,0.007,2.877c0.003,0.505-0.115,0.835-0.731,0.824
		c-1.678-0.03-3.359,0.031-5.035-0.044c-1.296-0.058-1.934-0.757-1.997-2.086c-0.055-1.157-0.039-2.318-0.012-3.477
		C482.487,235.49,483.117,234.846,484.804,234.823z"></path>
	<path fill="#2E2A25" d="M421.452,240.265c0-1.479,0.01-2.959-0.002-4.438c-0.025-2.92-1.312-4.29-4.223-4.357
		c-2.637-0.061-5.278-0.055-7.915-0.003c-2.966,0.059-4.22,1.302-4.297,4.268c-0.064,2.437-0.023,4.877-0.024,7.316
		c-0.001,3.071,0.002,3.01,3.037,3.091c1.174,0.031,1.386-0.404,1.364-1.437c-0.056-2.557-0.042-5.117,0.002-7.675
		c0.026-1.542,0.619-2.141,2.086-2.199c1.118-0.044,2.239-0.038,3.357-0.009c1.721,0.045,2.254,0.602,2.27,2.363
		c0.017,1.879,0.004,3.758,0.004,5.637c0,3.4,0,3.38,3.388,3.307c0.714-0.015,0.99-0.196,0.968-0.946
		C421.419,243.544,421.452,241.904,421.452,240.265z"></path>
	<path fill="#2E2A25" d="M298.144,240.11c-0.003,0-0.006,0-0.009,0c0-1.559,0.034-3.119-0.008-4.677
		c-0.067-2.511-1.217-3.812-3.736-3.914c-2.953-0.12-5.919-0.125-8.872,0.005c-2.573,0.114-3.732,1.456-3.763,4.019
		c-0.029,2.438-0.024,4.878-0.003,7.316c0.009,1.031-0.438,2.373,0.184,3.011c0.681,0.698,2.049,0.123,3.107,0.247
		c0.87,0.102,1.068-0.265,1.054-1.081c-0.045-2.678-0.037-5.357-0.004-8.036c0.018-1.48,0.652-2.121,2.123-2.182
		c1.157-0.048,2.319-0.042,3.477-0.001c1.557,0.055,2.083,0.577,2.112,2.129c0.037,1.958,0.015,3.918,0.015,5.877
		c0,3.411-0.001,3.385,3.402,3.304c0.759-0.018,0.948-0.281,0.933-0.98C298.119,243.469,298.144,241.79,298.144,240.11z"></path>
	<path fill="#2E2A25" d="M237.139,237.362c0-0.919,0-1.837,0-2.756c0-3.22,0.001-3.19-3.27-3.176
		c-0.841,0.003-1.087,0.246-1.071,1.083c0.05,2.635,0.032,5.272,0.013,7.908c-0.012,1.729-0.568,2.285-2.307,2.33
		c-1.078,0.028-2.158,0.036-3.234-0.009c-1.538-0.063-2.153-0.69-2.181-2.247c-0.034-1.917-0.013-3.834-0.013-5.751
		c-0.001-3.515,0.001-3.499-3.514-3.306c-0.615,0.034-0.842,0.221-0.837,0.837c0.027,3.394-0.028,6.79,0.058,10.183
		c0.053,2.087,1.019,3.207,3.109,3.453c3.333,0.392,6.701,0.384,10.034,0.012c2.19-0.244,3.156-1.532,3.203-3.768
		c0.034-1.597,0.007-3.195,0.007-4.793C237.135,237.362,237.137,237.362,237.139,237.362z"></path>
	<path fill="#2E2A25" d="M401.866,242.738c-2.795,0.065-5.594,0.04-8.39,0.007c-1.673-0.02-2.323-0.645-2.42-2.309
		c-0.063-1.075-0.057-2.158-0.012-3.235c0.071-1.736,0.707-2.359,2.457-2.381c2.477-0.032,4.955,0.016,7.432-0.023
		c2.575-0.04,2.215,0.539,2.274-2.402c0.015-0.733-0.234-0.978-0.962-0.963c-1.877,0.038-3.756,0.013-5.634,0.013
		c0,0.008,0,0.017,0,0.025c-1.958,0-3.918-0.064-5.873,0.016c-2.562,0.105-3.838,1.25-3.965,3.712
		c-0.133,2.588-0.221,5.194,0.08,7.779c0.191,1.64,1.128,2.563,2.739,2.909c0.784,0.168,1.578,0.23,2.38,0.228
		c3.077-0.008,6.154-0.003,9.23-0.003c2.007,0,1.94-0.003,2.019-2.057C403.264,242.961,402.895,242.714,401.866,242.738z"></path>
	<path fill="#2E2A25" d="M245.737,234.806c2.437-0.034,4.874-0.014,7.311-0.015c2.516-0.001,2.491,0.001,2.366-2.542
		c-0.032-0.641-0.258-0.815-0.856-0.807c-1.917,0.025-3.835,0.009-6.184,0.009c-1.917,0.136-4.289-0.275-6.618,0.244
		c-1.657,0.369-2.627,1.397-2.683,3.084c-0.089,2.673-0.095,5.354,0.004,8.026c0.062,1.676,1.078,2.677,2.72,3.066
		c0.782,0.185,1.576,0.241,2.378,0.239c3.036-0.006,6.073-0.002,9.109-0.002c2.136,0,2.092-0.001,2.137-2.154
		c0.019-0.923-0.223-1.239-1.191-1.216c-2.755,0.065-5.513,0.034-8.27,0.016c-2.023-0.014-2.61-0.622-2.636-2.674
		c-0.012-0.959-0.018-1.918,0.003-2.876C243.366,235.461,243.974,234.831,245.737,234.806z"></path>
	<path fill="#2E2A25" d="M517.648,242.737c-2.755,0.07-5.513,0.042-8.27,0.01c-1.816-0.021-2.449-0.682-2.478-2.475
		c-0.016-0.999-0.014-1.998-0.001-2.996c0.023-1.806,0.636-2.438,2.472-2.459c2.437-0.029,4.875,0.016,7.311-0.019
		c2.55-0.036,2.254,0.531,2.301-2.392c0.012-0.713-0.216-0.99-0.958-0.974c-1.877,0.041-3.755,0.013-5.633,0.013
		c0,0.007,0,0.013,0,0.02c-1.918,0-3.838-0.058-5.753,0.014c-2.522,0.095-3.951,1.303-4.041,3.522
		c-0.102,2.513-0.091,5.035,0.001,7.548c0.071,1.95,1.143,3.032,3.105,3.371c0.704,0.122,1.427,0.177,2.143,0.182
		c3.036,0.019,6.073,0.028,9.109,0.002c2.259-0.019,1.938,0.397,2.042-2.038C519.045,242.996,518.696,242.71,517.648,242.737z"></path>
	<path fill="#2E2A25" d="M534.701,236.384c-0.366-1.374-1.022-2.597-1.971-3.656c-1.508-1.682-5.228-1.899-6.899-0.381
		c-0.926,0.841-1.73,1.822-2.125,3.008c-1.16,3.481-1.914,7.073-2.868,10.758c1.069,0,2.031-0.088,2.969,0.023
		c1.126,0.133,1.546-0.355,1.741-1.381c0.214-1.129,0.163-2.598,0.966-3.245c0.811-0.653,2.232-0.177,3.385-0.195
		c1.774-0.028,1.775-0.007,2.234,1.763c0.801,3.088,0.801,3.067,4.002,3.048c0.825-0.005,1.154-0.124,0.884-1.069
		C536.2,242.179,535.47,239.276,534.701,236.384z M530.743,237.758c-0.238,0.499-1.097,0.097-1.683,0.221
		c-0.578-0.161-1.477,0.313-1.714-0.287c-0.241-0.611,0.256-1.373,0.665-1.967c0.7-1.019,1.463-1.002,2.126,0.065
		C530.51,236.391,531.045,237.127,530.743,237.758z"></path>
	<path fill="#2E2A25" d="M365.527,231.43c-2.358,0.039-4.717,0.014-7.075,0.014c-1.999,0-3.998-0.03-5.996,0.007
		c-2.624,0.049-2.205-0.55-2.272,2.386c-0.016,0.718,0.21,1.003,0.954,0.979c1.318-0.044,2.64,0.035,3.956-0.027
		c0.86-0.04,1.087,0.285,1.071,1.104c-0.046,2.358-0.016,4.717-0.016,7.075c0.001,3.184,0.001,3.138,3.174,3.171
		c1.018,0.011,1.177-0.379,1.165-1.255c-0.041-2.997,0.009-5.996-0.032-8.994c-0.011-0.823,0.221-1.155,1.077-1.099
		c0.955,0.063,1.918,0.034,2.877,0.01c2.448-0.062,2.204,0.553,2.255-2.324C366.68,231.592,366.313,231.417,365.527,231.43z"></path>
	<path fill="#2E2A25" d="M217.84,242.743c-2.836,0.05-5.674,0.032-8.511,0.01c-1.902-0.015-2.498-0.615-2.526-2.529
		c-0.027-1.838-0.008-3.676-0.008-5.515c0-3.332,0.001-3.302-3.314-3.28c-0.854,0.006-1.083,0.286-1.072,1.103
		c0.04,3.036-0.008,6.074,0.027,9.111c0.036,3.089,1.275,4.345,4.388,4.444c1.796,0.057,3.596,0.01,5.394,0.01
		c0,0.004,0,0.008,0,0.013c1.479,0,2.957,0,4.436,0c2.265,0,2.229,0,2.246-2.276C218.908,243.014,218.7,242.728,217.84,242.743z"></path>
	<path fill="#2E2A25" d="M456.897,242.743c-2.837,0.045-5.676,0.033-8.514,0.005c-1.843-0.018-2.447-0.64-2.462-2.459
		c-0.016-1.879-0.005-3.758-0.005-5.636c-0.001-3.329,0-3.311-3.371-3.223c-0.691,0.018-0.999,0.171-0.991,0.936
		c0.036,3.317-0.01,6.636,0.035,9.953c0.029,2.12,1.038,3.245,3.109,3.609c2.224,0.391,4.469,0.07,6.318,0.183
		c1.823,0,3.262-0.001,4.701,0c2.299,0.001,2.262,0.001,2.265-2.283C457.982,242.999,457.741,242.73,456.897,242.743z"></path>
	<path fill="#2E2A25" d="M500.672,238.894c0.004,0,0.007,0,0.011,0c0-1.398,0-2.795,0-4.193c0-3.425,0.002-3.4-3.427-3.276
		c-0.773,0.028-0.921,0.332-0.917,1.011c0.021,4.233,0.028,8.465-0.006,12.698c-0.007,0.817,0.301,1.039,1.054,0.988
		c0.755-0.051,1.52-0.055,2.274,0.001c0.771,0.057,1.045-0.204,1.027-1C500.64,243.047,500.672,240.97,500.672,238.894z"></path>
	<path fill="#2E2A25" d="M261.591,238.792c0.004,0,0.008,0,0.012,0c0-1.359,0-2.717,0-4.076c0-3.332,0-3.299-3.284-3.288
		c-0.87,0.003-1.059,0.295-1.05,1.1c0.038,3.476,0.015,6.953,0.015,10.43c0,3.215,0,3.182,3.272,3.172
		c0.873-0.003,1.07-0.3,1.052-1.105C261.559,242.949,261.591,240.87,261.591,238.792z"></path>
</g>
</svg>
