<?xml version="1.0"?>

<!-- Generator: Adobe Illustrator 19.1.0, SVG Export Plug-In . SVG Version: 6.00 Build 0)  -->
<svg version="1.1" id="Layer_1" xmlns="http://www.w3.org/2000/svg" xmlns:xlink="http://www.w3.org/1999/xlink" x="0px" y="0px" width="410px" height="300px" viewBox="0 0 410 300" enable-background="new 0 0 410 300" xml:space="preserve">
<path fill-rule="evenodd" clip-rule="evenodd" fill="#1A171B" d="M49.412,276.201c-0.063,0.318-0.222,0.603-0.476,0.841
	c-0.238,0.254-0.619,0.46-1.127,0.603c-0.524,0.159-1.175,0.27-1.984,0.349c-0.809,0.079-1.794,0.127-2.984,0.127
	c-1.207,0-2.191-0.048-2.953-0.127c-0.746-0.079-1.349-0.191-1.778-0.349c-0.445-0.143-0.73-0.349-0.889-0.603
	c-0.159-0.238-0.19-0.524-0.095-0.841l11.397-56.905c0.032-0.318,0.175-0.603,0.444-0.841c0.254-0.254,0.651-0.46,1.159-0.603
	c0.508-0.158,1.159-0.27,1.952-0.349c0.794-0.08,1.778-0.127,2.952-0.127c1.175,0,2.143,0.048,2.905,0.127
	c0.762,0.079,1.365,0.191,1.81,0.349c0.46,0.143,0.746,0.349,0.889,0.603c0.143,0.238,0.175,0.524,0.111,0.841L49.412,276.201
	L49.412,276.201z M103.026,274.315c-0.104,0.586-0.3,1.108-0.6,1.578c-0.287,0.456-0.626,0.835-1.03,1.134
	c-0.391,0.313-0.822,0.535-1.291,0.678c-0.469,0.13-0.965,0.209-1.474,0.209h-4.277c-0.926,0-1.669-0.091-2.256-0.274
	c-0.587-0.169-1.095-0.496-1.513-0.952c-0.417-0.456-0.795-1.082-1.121-1.865c-0.339-0.795-0.678-1.8-1.03-3.025l-7.302-22.077
	c-0.561-1.708-1.069-3.429-1.552-5.164c-0.47-1.734-0.913-3.442-1.356-5.151h-0.065c-0.261,2.008-0.548,3.99-0.887,5.933
	c-0.326,1.956-0.704,3.912-1.109,5.868l-5.047,25.259c-0.039,0.248-0.169,0.483-0.352,0.678c-0.195,0.209-0.483,0.378-0.861,0.496
	c-0.391,0.13-0.874,0.235-1.473,0.313c-0.6,0.078-1.343,0.117-2.23,0.117c-0.9,0-1.63-0.039-2.204-0.117
	c-0.574-0.078-1.017-0.182-1.317-0.313c-0.3-0.117-0.509-0.287-0.587-0.496c-0.091-0.196-0.104-0.43-0.026-0.678l8.906-44.479
	c0.222-1.187,0.743-2.087,1.565-2.686c0.809-0.6,1.734-0.9,2.752-0.9h5.229c0.847,0,1.565,0.091,2.164,0.287
	s1.108,0.496,1.526,0.913c0.417,0.417,0.782,0.965,1.108,1.63c0.313,0.665,0.613,1.473,0.9,2.438l7.368,22.272
	c0.482,1.434,0.926,2.843,1.317,4.238c0.391,1.408,0.808,2.803,1.239,4.212h0.078c0.287-1.839,0.6-3.729,0.939-5.672
	c0.339-1.956,0.691-3.847,1.056-5.672l4.695-23.302c0.052-0.261,0.169-0.483,0.339-0.678c0.183-0.183,0.457-0.339,0.822-0.456
	c0.378-0.117,0.848-0.209,1.434-0.261c0.587-0.065,1.33-0.104,2.217-0.104c0.887,0,1.63,0.039,2.217,0.104
	c0.587,0.052,1.03,0.143,1.343,0.261c0.3,0.117,0.508,0.274,0.6,0.456c0.104,0.195,0.13,0.417,0.078,0.678L103.026,274.315
	L103.026,274.315z M150.205,230.005c0,0.157-0.013,0.431-0.052,0.822c-0.039,0.391-0.104,0.835-0.196,1.317
	c-0.078,0.482-0.196,0.991-0.326,1.513c-0.117,0.522-0.274,1.004-0.469,1.447c-0.196,0.443-0.417,0.808-0.665,1.096
	c-0.261,0.273-0.548,0.417-0.887,0.417h-16.157l-2.673,13.287h15.204c0.352,0,0.613,0.143,0.756,0.431
	c0.156,0.273,0.235,0.639,0.235,1.108c0,0.17-0.026,0.456-0.078,0.848c-0.052,0.404-0.117,0.835-0.209,1.304
	c-0.091,0.469-0.209,0.965-0.339,1.487c-0.143,0.522-0.313,1.004-0.495,1.422c-0.196,0.417-0.417,0.769-0.678,1.043
	c-0.248,0.287-0.548,0.43-0.874,0.43h-15.087l-3.664,18.452c-0.052,0.274-0.183,0.522-0.392,0.717
	c-0.195,0.209-0.508,0.378-0.938,0.496c-0.418,0.13-0.952,0.235-1.617,0.313c-0.665,0.078-1.474,0.117-2.451,0.117
	c-0.991,0-1.799-0.039-2.426-0.117c-0.613-0.078-1.108-0.182-1.46-0.313c-0.365-0.117-0.6-0.287-0.73-0.496
	c-0.13-0.196-0.157-0.443-0.078-0.717l8.946-44.858c0.222-1.121,0.678-1.93,1.369-2.425c0.691-0.495,1.447-0.743,2.295-0.743h23.146
	c0.43,0,0.704,0.143,0.822,0.417C150.152,229.106,150.205,229.497,150.205,230.005L150.205,230.005z M198.035,244.949
	c0,2.23-0.196,4.629-0.6,7.172c-0.417,2.556-1.069,5.073-1.969,7.589c-0.913,2.504-2.1,4.903-3.573,7.198
	c-1.486,2.295-3.273,4.316-5.385,6.051c-2.112,1.747-4.603,3.142-7.459,4.186c-2.843,1.043-6.09,1.565-9.741,1.565
	c-3.077,0-5.802-0.339-8.15-1.03c-2.36-0.678-4.342-1.747-5.959-3.169c-1.617-1.421-2.842-3.221-3.664-5.385
	c-0.835-2.164-1.252-4.707-1.252-7.641c0-2.399,0.209-4.89,0.639-7.511c0.417-2.608,1.095-5.164,2.021-7.667
	c0.926-2.517,2.138-4.903,3.651-7.172c1.5-2.269,3.312-4.264,5.425-5.998c2.112-1.734,4.577-3.104,7.407-4.108
	c2.829-1.004,6.037-1.5,9.623-1.5c3.09,0,5.803,0.339,8.163,1.043c2.36,0.704,4.329,1.774,5.933,3.208
	c1.604,1.447,2.83,3.26,3.651,5.451C197.631,239.42,198.035,241.989,198.035,244.949L198.035,244.949z M187.421,245.901
	c0-1.552-0.17-2.96-0.522-4.225c-0.339-1.265-0.887-2.321-1.656-3.195c-0.769-0.861-1.76-1.526-2.999-1.995
	c-1.238-0.483-2.738-0.717-4.525-0.717c-2.217,0-4.16,0.431-5.842,1.291c-1.682,0.848-3.156,1.956-4.395,3.338
	c-1.252,1.369-2.295,2.947-3.143,4.721c-0.834,1.76-1.513,3.56-2.021,5.385c-0.508,1.812-0.874,3.599-1.082,5.32
	c-0.222,1.734-0.326,3.26-0.326,4.551c0,1.578,0.17,2.999,0.509,4.238c0.352,1.252,0.913,2.308,1.682,3.156
	c0.783,0.848,1.787,1.513,3.025,1.969c1.226,0.456,2.751,0.691,4.564,0.691c2.191,0,4.121-0.43,5.803-1.265
	c1.682-0.835,3.143-1.943,4.381-3.299c1.226-1.369,2.269-2.934,3.104-4.681c0.848-1.76,1.526-3.547,2.034-5.359
	c0.508-1.799,0.861-3.573,1.083-5.307C187.316,248.783,187.421,247.244,187.421,245.901L187.421,245.901z M252.676,219.613
	c0,0.222-0.032,0.571-0.079,1.048c-0.048,0.476-0.111,1.016-0.222,1.603c-0.111,0.587-0.254,1.206-0.429,1.841
	c-0.159,0.635-0.365,1.206-0.603,1.746c-0.222,0.524-0.508,0.952-0.826,1.302c-0.333,0.333-0.683,0.508-1.048,0.508h-15.111
	l-9.683,48.508c-0.095,0.302-0.254,0.587-0.508,0.825c-0.254,0.254-0.635,0.46-1.143,0.603c-0.508,0.159-1.159,0.286-1.952,0.381
	c-0.794,0.095-1.794,0.143-3,0.143c-1.175,0-2.159-0.048-2.921-0.143c-0.778-0.095-1.381-0.222-1.794-0.381
	c-0.429-0.143-0.698-0.349-0.841-0.603c-0.143-0.238-0.175-0.524-0.111-0.825l9.667-48.508h-14.968
	c-0.476,0-0.794-0.175-0.952-0.508c-0.175-0.349-0.254-0.81-0.254-1.397c0-0.254,0.016-0.619,0.064-1.095
	c0.048-0.476,0.127-1.032,0.238-1.635c0.095-0.603,0.238-1.222,0.413-1.857c0.174-0.635,0.381-1.206,0.619-1.746
	c0.254-0.524,0.54-0.952,0.841-1.27c0.318-0.333,0.651-0.492,1.032-0.492h42.413c0.365,0,0.651,0.175,0.857,0.508
	C252.565,218.518,252.676,218.994,252.676,219.613L252.676,219.613z M286.466,229.849c0-0.965-0.339-1.447-0.991-1.447h-24.606
	c-0.848,0-1.604,0.248-2.295,0.743c-0.691,0.495-1.148,1.304-1.369,2.425l-8.633,43.097c-0.104,0.561-0.117,1.03-0.039,1.434
	c0.065,0.392,0.222,0.717,0.431,0.991c0.221,0.261,0.495,0.456,0.821,0.574c0.339,0.117,0.704,0.169,1.108,0.169h24.841
	c0.326,0,0.613-0.13,0.874-0.378c0.247-0.261,0.482-0.6,0.665-1.017c0.196-0.417,0.352-0.874,0.483-1.356
	c0.13-0.483,0.235-0.965,0.326-1.434c0.091-0.469,0.143-0.9,0.169-1.278c0.026-0.378,0.039-0.665,0.039-0.835
	c0-0.509-0.078-0.9-0.235-1.174c-0.143-0.261-0.378-0.405-0.691-0.405h-17.878l2.83-13.939h14.944c0.3,0,0.587-0.13,0.835-0.378
	c0.261-0.261,0.483-0.587,0.665-0.991c0.195-0.417,0.352-0.861,0.482-1.343c0.13-0.483,0.235-0.965,0.3-1.434
	c0.078-0.469,0.143-0.887,0.183-1.252c0.039-0.378,0.052-0.652,0.052-0.822c0-0.469-0.078-0.822-0.235-1.069
	c-0.143-0.261-0.404-0.391-0.756-0.391h-14.983l2.451-12.075h17.643c0.313,0,0.6-0.13,0.861-0.417
	c0.274-0.274,0.496-0.626,0.691-1.043c0.196-0.43,0.352-0.887,0.483-1.395c0.13-0.508,0.222-1.004,0.3-1.473
	c0.078-0.469,0.13-0.9,0.169-1.278C286.44,230.279,286.466,230.005,286.466,229.849L286.466,229.849z M326.694,233.174
	c0,0.717-0.13,1.669-0.365,2.869c-0.248,1.2-0.548,2.152-0.926,2.882c-0.365,0.73-0.782,1.095-1.239,1.095
	c-0.326,0-0.73-0.222-1.187-0.639c-0.456-0.417-1.056-0.874-1.787-1.356c-0.743-0.483-1.682-0.939-2.83-1.356
	c-1.147-0.417-2.569-0.626-4.277-0.626c-1.891,0-3.612,0.378-5.164,1.121c-1.552,0.757-2.934,1.747-4.16,2.986
	c-1.226,1.239-2.295,2.647-3.208,4.264c-0.926,1.604-1.682,3.26-2.282,4.995c-0.587,1.734-1.043,3.455-1.33,5.177
	c-0.3,1.721-0.443,3.325-0.443,4.798c0,1.786,0.222,3.351,0.665,4.695c0.456,1.356,1.095,2.477,1.93,3.364
	c0.848,0.887,1.878,1.565,3.103,2.008c1.213,0.444,2.595,0.665,4.121,0.665c1.813,0,3.351-0.183,4.642-0.574
	c1.291-0.378,2.386-0.795,3.286-1.252c0.9-0.469,1.656-0.887,2.256-1.265c0.6-0.378,1.134-0.574,1.617-0.574
	c0.339,0,0.561,0.117,0.678,0.365c0.104,0.235,0.17,0.574,0.17,1.004c0,0.183-0.026,0.456-0.078,0.809
	c-0.052,0.352-0.117,0.756-0.196,1.2c-0.065,0.443-0.156,0.939-0.261,1.46c-0.104,0.522-0.222,1.004-0.352,1.447
	c-0.117,0.443-0.274,0.848-0.43,1.226c-0.169,0.365-0.391,0.691-0.665,0.965c-0.287,0.287-0.835,0.652-1.643,1.096
	c-0.822,0.443-1.812,0.861-2.986,1.239c-1.173,0.378-2.49,0.704-3.977,0.978c-1.473,0.261-3.051,0.404-4.733,0.404
	c-2.777,0-5.281-0.378-7.511-1.108c-2.23-0.743-4.121-1.865-5.672-3.364c-1.552-1.5-2.752-3.391-3.586-5.66
	c-0.848-2.269-1.265-4.916-1.265-7.941c0-2.373,0.248-4.838,0.73-7.394c0.482-2.556,1.213-5.059,2.191-7.511
	c0.991-2.438,2.23-4.76,3.729-6.95c1.499-2.191,3.273-4.108,5.333-5.751c2.047-1.643,4.382-2.947,6.989-3.912
	c2.608-0.965,5.503-1.46,8.685-1.46c1.787,0,3.469,0.196,5.073,0.561c1.591,0.365,2.973,0.861,4.16,1.473
	c1.187,0.613,2.008,1.161,2.478,1.656C326.446,231.779,326.694,232.418,326.694,233.174L326.694,233.174z M364.158,276.493
	l9.363-46.748c0.052-0.261,0.013-0.496-0.091-0.691c-0.118-0.209-0.352-0.378-0.717-0.495c-0.352-0.13-0.848-0.222-1.487-0.287
	c-0.639-0.065-1.434-0.104-2.399-0.104c-0.978,0-1.787,0.039-2.452,0.104c-0.665,0.065-1.2,0.156-1.604,0.287
	c-0.404,0.117-0.717,0.287-0.913,0.495c-0.209,0.196-0.339,0.43-0.391,0.691l-3.586,18.177h-18.53l3.625-18.177
	c0.052-0.261,0.026-0.496-0.091-0.691c-0.117-0.209-0.352-0.378-0.704-0.495c-0.352-0.13-0.848-0.222-1.487-0.287
	c-0.639-0.065-1.447-0.104-2.412-0.104c-0.965,0-1.786,0.039-2.438,0.104c-0.665,0.065-1.2,0.156-1.604,0.287
	c-0.417,0.117-0.717,0.287-0.926,0.495c-0.196,0.196-0.313,0.43-0.339,0.691l-9.363,46.748c-0.078,0.261-0.052,0.495,0.078,0.691
	c0.13,0.209,0.365,0.378,0.73,0.495c0.352,0.13,0.848,0.222,1.461,0.287c0.626,0.065,1.434,0.104,2.425,0.104
	c0.978,0,1.786-0.039,2.438-0.104c0.639-0.065,1.174-0.156,1.604-0.287c0.417-0.117,0.73-0.287,0.926-0.495
	c0.208-0.196,0.339-0.43,0.391-0.691l3.964-20.016h18.491l-3.964,20.016c-0.078,0.261-0.052,0.495,0.065,0.691
	c0.13,0.209,0.365,0.378,0.717,0.495c0.339,0.13,0.835,0.222,1.461,0.287c0.639,0.065,1.447,0.104,2.412,0.104
	c0.965,0,1.786-0.039,2.451-0.104c0.652-0.065,1.187-0.156,1.604-0.287c0.404-0.117,0.704-0.287,0.913-0.495
	C363.988,276.988,364.106,276.754,364.158,276.493z"></path>
<path d="M281.762,90.012l-20.209-20.033c0.651-0.101,1.199-0.663,1.688-1.169l0.269-0.275c0.505-0.555,1.009-1.423,1.496-2.574
	c0.401-0.908,0.767-2.003,1.055-3.158c0.273-0.997,0.522-2.086,0.74-3.237c0.196-1.04,0.305-2.002,0.385-2.806
	c0.086-0.846,0.139-1.451,0.139-1.852c0-1.189-0.241-1.631-0.576-2.244l-0.061-0.1c-0.407-0.661-0.966-1.566-1.841-1.566h-22.339
	l-22.469-22.678c-8.33-8.331-21.962-8.44-30.292-0.109l-61.724,61.67c-8.33,8.331-8.33,21.935,0,30.265l35.43,35.417l-4.329,23.187
	c-0.197,0.656-0.124,1.269,0.206,1.763c0.334,0.535,0.92,0.939,1.728,1.198c0.735,0.272,1.772,0.478,3.17,0.627
	c1.411,0.147,3.145,0.222,5.154,0.222c1.958,0,3.709-0.074,5.207-0.222c1.459-0.144,2.607-0.346,3.502-0.617
	c0.943-0.266,1.658-0.652,2.107-1.133c0.509-0.476,1.216-1.99,1.334-2.583l0.858-3.519l7.357,7.357
	c8.33,8.331,21.962,8.331,30.292,0l61.724-61.632C290.092,111.882,290.092,98.343,281.762,90.012z M181.761,173.859l0.007,0.007
	l-0.969,3.977c-0.105,0.527-0.756,1.862-1.132,2.216c-0.366,0.391-0.981,0.716-1.787,0.942c-0.854,0.259-1.955,0.452-3.365,0.591
	c-1.473,0.145-3.2,0.218-5.133,0.218c-1.983,0-3.691-0.073-5.075-0.218c-1.334-0.142-2.312-0.333-3.004-0.59
	c-0.65-0.208-1.1-0.506-1.343-0.896c-0.211-0.315-0.25-0.7-0.108-1.181l4.768-25.524l-0.034-0.006l14.641-73.111
	c0.055-0.55,0.303-1.048,0.77-1.461c0.44-0.44,1.127-0.799,2.007-1.047c0.88-0.275,2.007-0.468,3.382-0.606
	c1.375-0.137,3.08-0.22,5.115-0.22c2.035,0,3.712,0.082,5.032,0.22c1.32,0.138,2.365,0.33,3.135,0.605
	c0.797,0.247,1.292,0.605,1.54,1.045c0.247,0.412,0.302,0.907,0.192,1.457L181.761,173.859z M219.035,151.606
	c-0.163,0.515-0.433,0.91-0.867,1.316c-0.434,0.433-1.084,0.74-1.951,0.983c-0.867,0.271-1.978,0.465-3.332,0.627
	c-1.355,0.163-3.061,0.232-5.12,0.232c-2.005,0-3.685-0.087-4.985-0.25c-1.327-0.162-2.357-0.382-3.061-0.653
	c-0.731-0.244-1.192-0.598-1.436-1.031c-0.244-0.406-0.298-0.71-0.19-1.225L214.592,69h-29.547c-0.813,0-1.355-0.482-1.626-1.051
	c-0.298-0.596-0.433-1.474-0.433-2.477c0-0.433,0.027-1.102,0.108-1.915c0.081-0.812,0.217-1.784,0.406-2.813
	c0.162-1.03,0.406-2.098,0.704-3.181c0.298-1.083,0.634-2.072,1.057-2.986c0.417-0.902,1.436-1.952,1.436-1.952L188.458,52H242
	h1.498h21.348c0.316,0,0.755,0.71,1.024,1.146c0.311,0.57,0.453,0.831,0.453,1.764c0,0.357-0.054,0.958-0.133,1.751
	c-0.078,0.783-0.184,1.718-0.373,2.72c-0.213,1.125-0.456,2.187-0.726,3.169c-0.277,1.111-0.623,2.151-1.004,3.014
	c-0.44,1.038-0.896,1.833-1.303,2.281l-0.265,0.271c-0.38,0.394-0.853,0.884-1.17,0.884h-0.785H260h-24.44L219.035,151.606z"></path>
</svg>
