<svg xmlns="http://www.w3.org/2000/svg" viewBox="0 0 248.9 94.6">
<path
  class="only-light-background"
  d="m 168.4,40.1 c 0,0.3 0,0.6 0.4,0.9 0.4,-0.5 1.1,-0.6 1.2,-0.6 -0.3,-0.5 -0.9,0 -1.6,-0.3 z M 168,33.3 c 0,0.5 0.4,0.7 0.5,0.8 0.4,0.3 0.6,0.3 1,0 0.4,0.3 0.5,-0.3 0.6,0 0,0.8 0,1.2 -0.1,1.9 -0.1,0.9 -0.9,0.8 -1.6,1.2 0,0.4 -0.4,1.1 0,1.5 0.4,-0.3 0.7,-0.4 1.3,-0.7 0,-0.4 0.4,-0.8 1,-1.1 0,-1.2 0.4,-2.4 0.4,-3.6 0,-0.3 -0.3,-0.6 -0.7,-0.8 l -3.2,0 c 0,0.5 0.4,0.8 0.8,0.8 z m 7.7,7.2 1.4,0.6 0,-0.7 -1.3,0 -0.1,0.1 z m -9.1,-10.2 c 0.6,-0.4 1.9,-1.3 2.6,-1.6 -0.1,-1.3 -1.6,-1.5 -2.3,-2 l -0.5,0 c -1.1,0.4 -1.4,1.5 -1.5,2.4 0.4,1.2 1.2,0.4 1.7,1.2 z m 5.6,-0.1 c -0.3,-0.3 -1.1,0.1 -1.5,0.3 -0.6,0.1 -1,0.5 -1,0.9 l 1.5,0 c 0.2,-0.4 0.7,-0.9 1,-1.2 z m 2.8,3.1 -0.3,0 c 0.3,1.1 0.3,2.3 0.3,3.5 0.5,0.1 1.1,0.4 1.1,1.2 0.5,0.3 1,0.4 1.6,0.8 0.2,-0.1 0.4,-0.5 0.5,-0.9 -0.5,-0.7 -1.7,-0.3 -1.7,-1.5 l -0.8,-0.3 c 0,-0.8 0,-1.6 -0.2,-2.1 l 0.2,-0.2 c 0,0.2 0.1,0.3 0.4,0.6 0.5,0 1,0.1 1.6,-0.3 0.2,-0.1 0.2,-0.8 0.5,-0.8 0.3,0 0.5,0 0.7,-0.3 0,0 0.3,0 0,-0.1 l -3,-0.4 c -0.2,0.4 -0.9,0.4 -0.9,0.8 z m -0.4,-3 c 0.6,0 0.4,1 0.9,1.1 l 1.2,0 c 0,-0.4 -0.1,-0.4 -0.2,-0.4 -0.7,0 -0.7,-1.1 -1.3,-0.8 -0.2,0 -0.5,-0.3 -0.9,0 0,0.1 0,0.1 0.3,0.1 z m 5.4,0.7 0.4,0 c 0.4,-0.4 0.6,0 0.9,-0.4 0.3,-0.7 0.3,-1.9 -0.3,-2.6 -0.2,-0.5 -0.9,-0.8 -1.6,-1.3 l -0.9,0.5 c -0.6,0.3 -0.8,0.8 -0.8,1.5 0.9,0.4 1.9,1.5 2.3,2.3 z m -5.8,34.8 -1.5,0.3 c -0.4,0.5 -0.5,0.8 -0.5,1.1 l 0.6,-0.3 c 0.2,0 0.3,0.3 0.4,0.5 -0.1,0.7 -0.9,0.7 -1.2,1 -0.4,1.3 0.8,2.1 1,3.2 l 1.6,0 c -0.7,-1.2 -0.8,-3.1 -0.8,-3.5 0,-0.7 0,-1.6 0.4,-2.3 z m 1.5,1.1 c -0.3,0 -0.7,0.8 -0.7,1.1 0,1.1 0.2,2.5 0.7,3.6 l 1,0 c 0,-1.2 0.2,-2.5 0.2,-3.6 -0.2,0 0.1,0.2 -1.2,-1.1 z m 3.2,0.5 c -0.3,0 -1,0.4 -1,0.7 0,0.6 -0.2,3.5 -0.2,3.5 l 0.9,0 c 0.4,-1.2 1.2,-2.8 1.2,-3.5 0,-0.5 -0.4,-0.7 -0.9,-0.7 z m 17.3,-0.8 c 0.6,0.3 0.6,1 0.6,1.1 0,0.4 -0.3,0.8 -0.6,1.1 -0.2,-0.3 -0.2,-0.7 -0.5,-1.1 -0.3,0 -0.4,0.7 -0.4,1 0,1.2 0.5,2.1 0.9,2.9 l 1.2,0 c -0.1,-1.1 -0.4,-2 -0.4,-3.2 0,-0.7 0.4,-1.5 0.6,-1.9 l -1.4,0.1 z m 13.2,-2.8 -0.8,-1.2 c 0.3,-0.4 0.3,-0.9 0.7,-1.6 0.1,0 0.5,0.9 0.5,1.1 0,0.8 0,1 -0.4,1.7 z m -0.9,2.7 c 0,-0.7 -0.8,-1.1 -1.4,-2.3 l 0.6,-0.9 c 0.4,0.2 0.9,0.6 0.9,1.3 0,0 -0.1,0.4 0,0.7 0,0.1 0.3,0.1 0.3,0.4 -0.3,0.4 -0.3,0.4 -0.4,0.8 z m -1.9,-6.2 c -1,0 -0.4,-1.9 -2.4,-1.9 -0.4,0 -0.7,0.7 -1.2,0.8 0,-0.1 0.1,-0.9 0.1,-0.9 0,-0.3 0.1,-0.8 0.7,-1.1 1,0 0.8,0.4 1.6,0.7 0.4,0.1 0.7,0.4 1.2,0.4 l 0,2 z m -0.7,2.8 C 205,63 205,61.9 204.8,61.8 c -0.6,-0.8 -1.6,-0.1 -2.2,-0.1 -0.3,-0.8 0.1,-0.8 0.1,-1.4 0.4,0 0.8,-0.3 1.2,0 0.7,-0.3 1.1,0.4 1.7,0.4 0.2,0.3 0.5,1 0.6,1.1 0,0.5 -0.1,0.7 -0.3,1.3 z m -1.3,1.9 c -0.7,-0.4 -1.1,-0.5 -1.9,-0.5 0,-0.6 -0.4,-1.2 -0.7,-1.2 -0.8,0 -0.7,0.5 -1.3,0.5 l 1.2,-1.2 c 0.1,-0.3 0.1,-0.3 0.4,-0.3 0.4,0.3 0.5,0.4 0.9,0.4 0,0.3 0,0.4 -0.1,0.8 0.4,0.3 0.7,-0.1 0.9,0.3 0.4,0.1 0.8,0.3 0.8,0.8 0,0.2 -0.2,0.4 -0.2,0.4 z M 202,44.6 c 0.6,-0.3 0.8,-0.2 1.1,0 0,0.8 0.9,0.4 1.5,0.7 0.2,0.4 0.4,0.6 0.5,1.2 -0.9,-0.3 -1.5,-0.7 -2.3,-0.7 -0.2,0 -1.5,0.4 -1.6,0.7 -0.4,-0.6 0.3,-1.7 0.8,-1.9 z m -0.4,3.5 c 0.4,-0.4 1.1,-1 1.6,-1 1,0 1.8,0.7 1.8,1.4 -0.8,0 -1,-0.2 -1.5,-0.2 -0.7,0 -1.5,0.3 -1.9,1 -0.3,-0.5 -0.1,-0.8 0,-1.2 z m 4.2,1.7 c 0.4,0 0.7,-0.2 0.9,-0.2 0.7,0 1.2,1 1.4,1.8 -1.1,-0.6 -2.7,-1 -3.7,-1 -0.5,0 -2.1,0.6 -2.7,1.2 l -0.2,-1.2 c 0.8,-0.2 0.8,-0.8 1.3,-0.8 0.4,0 1,-0.2 1.4,-0.2 0.4,0 0.6,-0.2 0.8,-0.2 0.6,0 0.4,0.6 0.8,0.6 z m 1.5,7.6 c -0.4,-0.2 -1.4,-0.3 -1.4,-0.7 0,-0.6 -0.3,-0.7 -0.9,-0.7 -0.6,0 -1,0.1 -1.8,0.4 0,0 -0.4,-0.5 -0.5,-1.1 0.3,-0.1 1.3,-0.4 1.9,-0.4 0.9,0 1.9,0 1.9,0.4 0,0.6 0.8,0.7 0.8,2.1 z m -0.8,-3.7 c -0.3,-0.2 0,-0.8 -0.7,-0.8 -0.3,0 -0.7,0.4 -0.7,0.4 -0.3,0.2 -1.1,-0.4 -1.1,0 0,0.7 -0.5,1 -1.2,1 -0.2,0 -0.5,0 -0.8,-0.2 l 0,-1.3 c 1.8,0 1.6,-0.6 2.4,-0.6 0.6,0 1,0.3 1.4,0.3 0.7,0 0.3,-0.3 0.9,-0.3 0.7,0 1,0.6 1.4,0.7 0,0.4 0.4,1 0.4,1.5 -1,0 -1.9,-0.3 -2,-0.7 z m -7.3,4.1 c -0.3,-0.8 -0.8,-1.7 -1.1,-2.5 0,-0.1 -0.1,-0.1 0.1,-0.2 0.2,0 0.7,0 0.7,0.1 0.2,0.3 0.4,0.7 0.4,1.1 0,0.5 -0.2,0.9 -0.1,1.5 z m -1.9,1.3 c -0.4,0 -0.4,-0.3 -0.4,-0.8 -0.1,-0.8 -0.4,-1.5 -0.7,-2.3 -0.2,-1.1 -0.9,-2 -1.5,-3.2 -0.1,-0.6 -0.8,-0.8 -1.3,-1.2 0.7,0 1.3,0 1.9,0.5 0,0.3 0.1,0.4 0.5,0.8 1,0 0.7,1.2 1.5,1.8 -0.4,0.4 -0.5,0.6 -0.8,0.9 0.4,0.3 0.8,0.4 0.9,0.8 0,0.8 -0.1,1.8 -0.1,2.7 z m -2.1,3.2 c 0.2,-0.6 0.2,-2 0,-2 -0.3,-0.1 -0.9,0 -0.9,-0.3 0,-0.4 0.2,-0.9 0.2,-1.2 0,-0.5 -0.4,-0.8 -0.4,-1 0,-0.8 0.9,-1 1.2,-1.5 0.1,0.5 0.1,1.1 0.1,1.7 0,0.3 0.4,1.1 0,1.8 0,0.4 0.8,0.1 0.8,0.5 0,0.7 -0.8,1.5 -1,2 z m -1.3,-7 c 0,0.3 -0.4,0.6 -0.5,0.6 0,0 -0.7,-0.7 -0.8,-1.4 -0.1,-0.5 0.4,-1.4 0.4,-1.4 0.1,0 0.3,0.2 0.4,0.2 0.1,0.2 0,0.6 0.1,1 0.4,0.2 0.7,0.8 0.4,1 z m -1.4,5.8 c 0,-0.8 -0.2,-1.5 -0.7,-2 0,-0.3 0.4,-0.3 0.1,-0.7 0,0 -0.8,-0.4 -0.8,-0.9 0,-0.5 0.6,-1 0.8,-1.4 0,-0.1 0.6,0.3 0.6,1.1 0,0.2 0,0.6 -0.2,0.8 -0.1,0.4 0.8,0.4 0.8,0.8 0,0.8 -0.5,1.5 -0.6,2.3 z M 191.3,51 c 0.4,0.4 0.9,1 0.9,1.4 0,0.4 -0.3,0.5 -0.5,0.8 0,0 -0.6,-0.7 -0.6,-1 0,-0.5 0,-0.8 0.2,-1.2 z m 6,-0.2 c 0.3,0.2 0.5,0.4 0.8,0.8 l 0,1.1 c -1.2,-0.7 -1.9,-1.9 -2.9,-3.1 1,0 1.3,1 2.1,1.2 z m -9.1,-2.2 1,-0.5 c 0.4,0.4 1,0.5 1.2,0.7 -0.4,0.4 -1.4,0.5 -2.2,-0.2 z m 1.3,16.8 c -0.3,-0.4 -0.4,-0.8 -0.7,-0.8 0.4,-1.5 -0.4,-2.7 -0.6,-3.9 l 0,-0.4 c 0.4,0.7 1.4,1.4 1.3,2 0.1,1.2 0.1,2.3 0.1,3.1 l -0.1,0 z m -1.9,2 c -0.2,-0.8 -0.5,-2 -1.5,-2 -0.1,-0.5 -0.2,-0.8 -0.8,-1.2 l -1,-0.1 c 0.1,0.5 0.9,0.5 0.4,1.3 0.5,0.4 0.9,0.4 1.2,1.1 0.2,0.4 0,0.9 0.1,1.2 l -0.8,0.4 c 0,-0.7 0.1,-2 -0.8,-2.3 -0.8,0.3 -0.9,-0.8 -1.5,-1.2 -0.3,0 -0.3,-0.7 -0.7,-0.4 -0.6,0.4 -1.4,0 -2.1,0.4 l 0.7,-1.1 c 0.5,-0.4 1,-0.2 1.6,-0.4 l 1.1,-0.1 c 1,0 2,0.5 3.1,0.9 0.5,0.3 0.8,0.7 0.8,1.4 0.2,0.1 0.8,0.1 0.8,0.5 -0.2,0.3 -0.4,1.1 -0.6,1.6 z m -4.1,0.3 -0.4,0.4 c -0.5,-0.4 -0.2,-1.5 -0.9,-1.6 -0.6,0 -1.2,-0.7 -1.4,-0.8 l 0.5,-0.3 c 0,0 0.3,-0.1 0.5,0 0.3,0.3 0.6,0.4 0.6,0.7 0.2,0.4 0.7,0 0.9,0.4 0.2,0.4 0.3,0.9 0.2,1.2 z m -4.3,-5 0.6,-1.6 c 0.6,0 1,-0.2 1.2,-0.2 0.6,-0.2 1,-0.2 1.4,-0.2 l 0,0.2 c 1.5,0 3.2,-0.2 4.3,1 l 0.1,1.1 c -0.5,-0.4 -1.3,-0.4 -1.6,-1.1 -0.5,-0.1 -0.9,-0.1 -1.6,-0.1 -0.5,0.1 -1.2,0.1 -1.8,0.1 -0.1,0 0,-0.1 -0.2,-0.2 -0.8,0.2 -1.6,0.2 -2.4,1 z m -0.6,-11.9 c -0.8,-1.2 -0.4,-2.3 0,-3.3 0.3,0.8 0.4,1.7 0.6,2.3 0.1,0.6 0.9,0.8 1.2,1.2 -0.6,0.2 -1.5,0.4 -1.8,-0.2 z m -1.5,5.1 c -0.8,-0.7 -1.3,-1.5 -2.1,-2.6 l 2.1,0.4 c 0.4,0.3 1.2,1.2 1.6,1.6 -0.2,0.3 -1,0.6 -1.6,0.6 z m 0,3.6 c -0.1,0 -1,-0.4 -1.3,-0.7 -0.1,-0.4 -0.1,-0.8 -0.1,-0.8 l 1,0 0.7,1.5 -0.3,0 z M 174.7,45 c -0.1,0 0,0.4 -0.1,0.4 0,0.3 -0.3,0.8 -0.3,1.3 -0.3,0.2 -0.8,0.4 -1.3,0.2 l 0,-0.4 c -0.2,-0.3 -0.2,-0.8 -0.2,-1.1 l -0.1,-0.1 c -0.4,0.1 -0.4,0.4 -0.4,0.6 -0.1,0.3 -0.4,0.6 -0.4,1 -0.5,0 -0.8,-0.2 -1.2,-0.4 l 0,-1.2 c 0,-0.3 0,-0.3 -0.2,-0.3 l -0.6,0.7 c -0.6,-0.4 -0.7,-1.5 -0.7,-2.2 2.2,-1.2 4.8,-0.8 6.5,-0.1 0.2,0.1 0.5,0.1 0.8,0.2 -0.2,0.8 -0.4,2.1 -1.3,2.6 0,-0.5 -0.2,-0.8 -0.5,-1.2 z m -1.6,7 -0.3,-1.4 c 0.4,-0.2 0.8,-0.5 1.4,-1.2 0,1 -0.2,2.2 -1.1,2.6 z m -0.9,7.9 -0.8,-1.1 2,0 0.4,0.8 c -0.6,0.4 -1,0.4 -1.6,0.3 z m -1.9,-2.5 c 0.1,-0.4 0.5,-0.6 0.8,-1 0.3,-0.4 0.8,-1.1 0.9,-1.5 0.7,-0.4 1,-0.4 1.5,-0.4 -0.1,0.8 -0.5,1.1 -1.2,2 -0.4,0.3 -1.2,0.5 -2,0.9 z m -0.4,-8.1 c 0.4,0 0.8,0 1.2,0.3 0,0.6 0.3,1.2 0.3,2 -0.9,-0.8 -1.5,-1.5 -1.5,-2.3 z m -0.4,6 c -0.4,0 -1.1,0.3 -1.9,0 0.4,-0.2 0.8,-0.4 1.3,-0.8 l 1.1,-1 1.1,0 c -0.4,0.8 -0.8,1.6 -1.6,1.8 z M 168,61.9 C 167.7,61 167.1,60 166.2,60 c -0.4,-0.4 -0.8,-0.8 -0.9,-1.2 -0.4,-0.4 -0.8,0 -1.3,-0.4 -0.6,0 -1.3,0 -1.8,0.4 l 0,-0.4 0.9,-1 c 1,0.1 2.2,0 2.5,0.6 0.6,0.4 1.3,0.8 1.5,1.1 0,0.1 0,0.1 0,0.4 0.2,0.1 0.8,0.3 1,0.4 0,0.4 -0.1,2 -0.1,2 z m -1.5,3.1 c -0.3,-0.4 0,-1.1 -0.4,-1.5 0,-0.2 0.3,-0.4 0.1,-0.5 -0.1,-0.3 -1.7,-0.8 -1.7,-0.8 -0.5,-0.4 -1.2,-0.8 -1.8,-1.3 -0.5,-0.2 -0.9,0.1 -1.6,0.2 0,-0.1 0,-0.2 0,-0.2 0.3,-0.6 0.3,-1.3 1.1,-1.3 0.4,0 0.9,0 1.2,0.4 0.6,0 0.8,0.6 1.2,0.7 0.7,0.7 1.2,1 1.6,1.2 0,0.4 0.2,0.7 0.4,0.8 0.9,0 0.6,0.8 0.9,1.4 l -1,0.9 z M 165,67.4 164.1,65 c -1.1,-1.1 -2.3,-1.2 -3,-1.7 -0.5,-0.2 -0.5,0.2 -0.8,0 0,-0.3 0,-0.7 0.4,-1.1 l 0.8,0 0.8,0.4 c 0.4,0.4 1.4,0.4 1.4,1.2 0,0.1 -0.1,0.3 0.3,0.8 l 1.3,0.4 0.1,1.1 -0.4,1.3 z m -5.1,2.6 c 0,-0.7 0.4,-1.5 0.4,-2.3 0,0 -0.5,-0.5 -1.1,-0.5 -0.4,0.2 -0.4,0.5 -0.5,0.9 -0.4,0.8 -1.2,1.6 -1.3,2.4 -0.2,0 -0.2,-0.1 -0.2,-0.1 0,-1.3 0.2,-3.6 1,-4.6 0.6,-0.8 1.2,-0.8 2,-0.9 l 0.7,0.1 -0.6,0.8 c 0.6,0.3 1.4,0.8 1.4,1.6 0,1.1 -1.8,2.6 -1.8,2.6 z m -3.3,-1.9 c -0.2,-0.5 -0.6,-1.2 -1.3,-1.2 -0.5,1.1 -0.6,1.5 -0.1,3.1 -0.4,0.4 -0.7,0.5 -1.2,0.8 -0.3,-0.5 -0.3,-1.5 -0.3,-2 0,-1 0.2,-1.9 0.4,-2.7 0.4,-0.4 0.7,-1.1 1.1,-1.5 l 1.5,0 c -0.7,0 -0.7,0.7 -0.7,1.1 0.4,0.1 1,0.3 1,0.9 0,0.6 -0.2,1.1 -0.4,1.5 z m -3.1,0 c -0.2,0 -0.6,-0.4 -1,-0.4 -0.4,0.8 0,1.4 0,2.3 0,0.4 -0.1,0.8 -0.1,0.8 -0.3,0 -0.8,-0.5 -0.9,-1.1 l 0,-2.1 1.2,-1.5 c 0.8,0.5 1,1.3 0.8,2 z m 8.6,-18 c 0.1,-0.5 0.5,-0.8 0.6,-0.9 0.4,0.1 0.7,0.1 1.3,0.2 -0.7,0.7 -1.4,1 -1.7,1.8 0,-0.4 -0.1,-0.8 -0.2,-1.1 z m 0.1,-15.6 1.1,-0.4 -0.7,0.8 c 0.1,1.3 -0.4,2.3 -0.4,3.5 l -0.7,-2.2 c 0.2,-0.5 0.3,-1 0.7,-1.7 z m 0,-2.7 c 0.3,-0.4 0.4,-0.8 0.8,-1.2 l 0,1.6 -0.9,0.3 0.1,-0.7 z m 4.7,21.3 c 0.2,-0.2 0.3,0 0.6,0 l -0.6,2 c -0.7,0.5 -1.6,0.2 -2.4,0.2 1.1,-0.2 1.9,-1.4 2.4,-2.2 z m -1.3,-1.7 c 0,0.6 -0.3,1.3 -1,1.9 -0.1,0.2 -0.5,0.4 -0.5,0.4 0,-0.8 0.4,-1.5 0.4,-2.1 0.4,-0.2 0.8,-0.4 1.1,-0.2 z m 1.5,-1.6 c -0.9,-0.2 -1.8,-1 -2.2,-1.7 -0.3,-0.6 -0.4,-1.2 -0.4,-1.6 0.5,0 0.9,0.4 1.1,0.6 l 0,0.2 c 0.6,0.8 1.3,1.5 1.5,2.5 z m 1.7,-2.1 -0.4,1.7 c -0.4,-0.8 -0.8,-1.6 -0.9,-2.5 l 1.3,0.8 z m 8.3,3.9 c -0.6,-0.4 -1.9,-0.6 -1.6,-1.4 0.3,-0.6 0.7,-0.8 1,-1 0.1,0.9 0.2,1.6 0.6,2.4 z M 164.6,26.4 c 0.3,0 0.7,-0.1 0.8,-0.4 0.7,-0.1 1.1,-0.8 1.9,-0.4 0.6,0 1.1,0.3 1.5,0.4 0,0.3 0,0.4 0.3,0.7 0.8,0 0.8,0.8 1.2,1.5 0.4,0.1 0.8,0.1 1.1,0.1 0.8,0.3 1.4,0.3 1.7,0.7 1.1,-0.7 2.1,-0.8 3.4,-0.7 0.1,-0.4 0.4,-0.9 0.5,-1.6 0.1,0.4 0.1,0 0.4,0 0.5,-0.4 1.2,-1.1 2.2,-0.8 0.5,0.4 1.4,0.1 2,0.8 0.4,0.5 0.6,1.3 1,2 -0.4,0.8 0,1.9 -0.8,2.3 l -0.8,0.8 c -0.2,0 -0.2,0.3 -0.6,0.3 0.4,0.9 0.1,2.3 -0.3,3.2 0.3,-0.1 0.7,-0.1 0.7,-0.5 0.1,0.1 0,0.4 0,0.5 0,0.3 0,0.4 0,0.4 0,0.7 -0.4,1.4 -1,1.9 -0.2,0.8 -0.9,1.9 -1.9,2 l 0,0.3 c 2.1,0 3.7,0.5 5.6,1.5 l 0,0.9 c -1.7,-0.9 -3.4,-1.6 -5.4,-1.8 0,0.5 0,0.9 -0.2,1 1.7,0.8 3.1,1.5 4.5,2.7 l 0,1.2 c -1.4,-1.4 -2.8,-2.7 -4.6,-3.1 -0.1,0.3 -0.7,0.5 -0.8,1.1 -0.9,-0.7 -2,-1.4 -3.1,-1.5 -0.4,0 -0.7,-1.5 -0.7,-1.5 0.7,-0.3 1.1,-0.7 1.4,-1.3 l 0.5,0 c 0.4,0 0.4,-0.3 0.4,-0.7 0,-0.8 -1.7,-0.8 -2.5,-0.8 -1,0 -1.6,0 -2.2,0.4 -0.3,0 -0.1,0.4 -0.1,0.7 0,0.1 0.4,0.4 0.4,0.4 0.3,0 0.5,-0.3 0.8,-0.3 -0.1,0.8 0.1,1.2 0.9,1.6 l -0.1,1.4 c -1.6,0 -2.7,0.6 -3.9,1.2 -0.4,-0.3 -0.7,-0.7 -0.9,-1.1 -1.7,0.5 -4.5,2.7 -4.5,2.7 0,0 0,-0.6 0,-1 1.2,-1 2.8,-1.6 4.1,-2.2 l 0,-1 c -0.6,-0.3 -1.1,0 -1.7,0 -1.2,0.1 -2.4,0.7 -3.2,1.4 0,-0.4 -0.1,-1 -0.1,-1 1.5,-0.8 3.3,-1.5 5.1,-1.2 0,-0.1 0,-0.5 0,-0.5 -0.1,-0.3 -0.1,-0.7 -0.4,-0.7 -0.8,-0.8 -1.6,-2 -1.6,-2.8 l 0.5,-0.3 c -0.3,-0.8 -0.5,-2.8 0,-3.5 -0.8,-0.4 -1.6,-1.1 -1.9,-1.6 -0.2,-0.7 -0.5,-1.1 -0.6,-1.9 0.4,-0.8 0.6,-1.1 1,-1.9 z m 19.1,9.8 c 0,0.2 -0.2,1.4 -0.2,1.4 l -1.1,0.3 0.7,-3 c 0.2,0.5 0.6,1.1 0.6,1.3 z m 0.2,10.3 1.3,1.2 c -0.8,0 -1.7,0.4 -2.1,-0.4 0.2,-0.2 0.5,-0.6 0.8,-0.8 z m 1,-6.6 c 0.3,0.5 0.3,0.8 0.6,1.1 0.5,-0.3 0.5,0.4 0.6,0.5 0.2,0.4 0.5,0.8 0.5,1.2 -0.9,0 -1.3,-0.4 -1.7,-1.2 0,-0.4 -0.1,-1 0,-1.6 z m 2.6,5.8 c -0.1,0.5 -0.7,0 -0.8,0 l -1.2,0 c -0.2,-0.3 -0.3,-0.4 -0.3,-0.7 0.5,-0.2 0.9,-0.4 1.4,-0.2 0.2,0.5 0.5,0.9 0.9,0.9 z m -6.7,14.2 c 0,-0.4 0.2,-0.8 0.8,-1.1 0.8,0.3 1.5,-1.4 2.3,-0.5 0.4,0.1 0.8,0.1 1,0.1 1,0.4 1.2,1.2 1.7,1.9 -0.7,0 -1.3,0 -1.7,-0.7 -0.1,0 -0.4,-0.4 -0.5,-0.1 -0.7,0.5 -1.3,-0.4 -2.2,-0.3 -0.4,0.4 -0.8,0.7 -1.4,0.8 l 0,-0.1 z m 1.4,-8.3 c 0.6,-0.4 1.3,-0.4 1.5,-0.6 0.6,0.6 1.1,1.5 2,2.1 -0.5,0 -1.4,0 -2,-0.4 -0.8,-0.5 -1.1,-0.7 -1.5,-1.1 z m -0.2,2.1 c 0.4,0.2 1.1,0.6 1.5,0.8 0,0 -0.3,0 -0.4,0 -1.5,0.6 -2.7,-0.4 -3.9,-1.2 0.6,-0.2 1.6,-0.4 2.4,-0.4 l 0.4,0.8 z m 0,-4.4 c -0.7,0.1 -1.2,-0.5 -1.9,-0.8 -0.3,-0.8 -0.3,-1.6 -0.5,-2 0.5,0.4 1.7,0.4 1.4,1.6 0,0.4 0.6,0.7 1,1.2 z m 7,1.5 -0.7,0.2 c -1.5,0 -2.2,-0.4 -2.8,-0.9 0.5,0 1.2,-0.7 1.2,-0.7 0.7,0.7 1.6,1.2 2.3,1.4 z M 211.2,33 c -0.4,-0.5 -1,-1.2 -1.5,-1.2 0.4,0 0.9,-0.4 1.6,-0.4 0.3,0.7 0.8,1.1 0.9,1.6 l 0.2,0.8 C 212.1,33.3 211.6,33 211.2,33 Z m -4.3,-2 c -0.3,-0.4 -0.7,0 -1,0 -0.3,0 -0.4,0 -0.9,-0.4 0.8,0 1.2,-0.4 1.9,-0.7 0.5,0.4 1,0.6 1.4,1.1 l -1.4,0 z m 13.1,7 c -1.9,-1.9 -4,-2.8 -5.6,-4.7 -0.8,-0.8 -1.5,-1.6 -2,-2.7 -0.7,-0.7 -1.1,-1.1 -1.9,-1.5 0.1,0.4 0.3,0.8 0.4,1.2 l -0.1,0 c -0.7,0 -1.4,-0.4 -1.9,-0.8 l 0.5,-0.5 c -0.1,-0.3 -0.5,-0.3 -0.8,-0.3 -2.1,-0.4 -4.2,0.8 -6.3,1.2 l 0,0.3 c 1.3,0.4 1.6,2 2.4,2.8 l 0.8,0 c 0.3,0 0.7,0.3 1,0.3 0,-0.3 -0.3,-0.8 -0.3,-0.8 0.3,-0.3 0.5,-0.3 0.8,0 0.7,0.4 1.6,-0.3 2.3,0.8 -0.8,0 -1.6,0 -2.3,0.4 0,0.1 0.4,0.4 0.3,0.7 -0.7,-0.3 -1.5,0 -1.8,-0.6 l -0.1,0.2 c 0.8,0.9 2,1.7 3.2,2.1 1.8,0.3 3.2,-0.5 5,-0.1 6.2,2.9 10.5,9.9 10.5,16.9 0,10 -5.7,14 -9.3,14 -0.7,0 -1.8,-0.4 -2.2,-0.8 0.4,-1.5 0.7,-3.1 0.7,-5.5 0,-5.8 -2.3,-12 -5.4,-15.2 -1.4,-1.5 -3.1,-2.7 -4.8,-2.7 -0.8,0 -1.6,0 -2.2,0.7 -0.6,0.5 -1,1.6 -0.9,2.3 -1.1,0.8 -2.8,1.2 -4.2,1.2 -1.5,0 -3.3,-0.6 -5.1,-1.9 l 0,-2 c -0.4,-0.2 -1.7,-1 -1.1,-1.6 0.4,0.1 0.7,0.4 0.8,0.5 -0.1,-0.9 -0.1,-2 -0.8,-2.8 -0.2,0 -0.6,0 -1,-0.3 -0.4,-0.4 -0.8,-0.9 -0.8,-1.6 0.4,0.7 1,0.4 1.4,0.8 -0.6,-1.6 -0.4,-2.3 -1.6,-4.7 -0.2,-1.2 -1.5,-1.9 -2.3,-2.7 -0.4,-0.3 -0.5,-0.7 -1,-0.7 -0.6,-0.1 -0.6,-0.8 -0.6,-1.2 0.2,0 0.6,0.3 0.8,0.4 -0.8,-1.9 -1.3,-3.9 -3.1,-5 l -0.4,0.3 -2.1,0 c 0.3,-0.3 0.8,-0.4 1.2,-0.7 -0.4,-0.4 -0.7,-0.5 -1.5,-0.5 -0.4,0.1 -0.9,0.5 -1.5,0.5 l -0.1,0 c 0,-0.4 -0.1,-0.9 0.7,-1.2 -0.8,-0.1 -1.5,-0.1 -2.5,0 -0.1,0.7 -0.5,1.1 -0.5,1.6 -0.4,0.3 -0.5,0.7 -0.9,1.1 0,-0.8 0.4,-1.6 0.5,-2.4 -0.5,0.1 -1.2,0.5 -1.5,0.5 -1,-0.5 -2.4,-1 -2.9,-1 0.8,0.5 0.4,1.4 0.5,2.1 l -0.5,-0.3 c -0.2,-0.5 -0.8,-0.9 -1,-1.6 -0.8,0 -1.3,0.3 -2,0.7 l 0,0.1 c 0.4,0 1,0.4 1.2,0.8 -0.9,0 -1.6,-0.4 -2.5,-0.4 0,0 0,-0.1 -0.2,-0.1 -0.4,0.1 -0.8,0.5 -1,0.8 -1,0.8 -1.7,1.5 -2.1,2.7 0.3,0 0.7,0 0.8,0.1 -0.5,0.2 -0.8,0.8 -1.3,1 l 0,2 c -0.4,0.4 -0.9,0.8 -1.2,1.6 -0.7,2.2 -0.8,4.6 -0.8,7.3 -0.2,0.5 -0.4,0.6 -0.7,0.8 l 0,2.1 c 0,0 0.8,-0.8 1.2,-1 l 0,1.7 c -0.5,0 -0.9,0.7 -0.9,1.1 0,0.5 0.1,1 0.1,1.6 0,0.3 0,0.3 0.1,0.5 0,-0.2 0.3,-0.5 0.7,-0.6 0,0 0.3,-0.3 0.8,-0.3 -0.4,0.4 -0.5,0.9 -0.8,1.5 -0.4,0.4 -0.4,0.4 -0.4,0.4 0,0 -0.1,0.2 -0.1,0.4 0.5,2.8 1.3,5.2 2.4,7.9 -1.1,1.8 -2.3,5.1 -3.1,8.3 -0.7,-0.6 -1.6,-0.8 -2.4,-0.8 -0.8,0.2 -1.6,0.4 -2.2,1.2 -0.8,-0.4 -1.8,-0.2 -2.4,0.3 -1.2,1.1 -1.2,1.6 -1.2,2.4 -0.3,0.3 -0.8,1 -0.8,1.9 0,1.2 0.1,2 0.8,3.1 l 20.5,0 c -0.2,-0.4 -0.5,-0.9 -0.7,-1.2 -0.4,-0.8 -0.2,-1.9 -0.2,-2.7 0.4,-0.8 0.9,-1.6 1.4,-2.3 0.1,-0.4 0,-0.4 0.1,-0.5 l 1,-0.3 c 0.5,0 0.9,-0.4 1.6,-0.4 0.4,0.7 0.4,-0.4 1.1,-0.7 1.4,-0.2 2.9,0 3.7,1.1 0,0.3 0.2,0.3 0.2,0.4 l -0.7,0 c -0.8,-0.4 -1.8,-0.8 -2.7,-0.4 0,0.4 -0.1,0.4 -0.1,0.8 0,0.3 0,0.3 0,0.7 0.5,0 0.9,0.5 1.4,0.8 0.3,-0.4 1.1,-0.8 1.7,-0.8 0.6,0 1.6,0.4 1.6,1.5 l 0,1.5 c 0.5,0.5 1.2,0.6 1.8,0.9 -0.2,0.5 -0.6,0.5 -1,0.5 l -1.1,0 c -0.1,-0.1 -0.4,-0.1 -0.4,-0.5 -0.4,0.5 -0.7,1.1 -0.9,1.6 l 15.7,0 c -0.3,-0.5 -0.6,-0.9 -0.7,-1.2 -0.3,-0.8 -0.3,-1.9 -0.3,-2.7 l 1.5,-2 c 0.8,0 1.5,-0.3 3,-0.4 0.2,-0.4 0,-0.7 1.2,-0.7 0.9,0 1.6,0.3 1.9,0.4 0.1,0.3 0.1,0.3 0,0.6 -0.3,0.2 -0.8,-0.3 -1.2,-0.2 -0.3,0.3 0.1,0.4 0.1,0.7 0.3,0.3 -1.2,-0.3 -1.2,-0.3 0,0 -0.3,0.8 -0.4,1.1 0,0 0.5,0.5 0.8,0.8 0.3,0.4 -0.4,0.8 -0.4,1.2 -0.3,-0.1 -0.8,-0.5 -0.8,-0.4 -0.3,1.1 0,2 -0.2,3.1 l 1.5,0 0.2,-2.3 c 0.1,-1.3 1.7,-3.7 2.7,-3.7 0.5,0 0.9,0.2 1.3,0.5 0.3,0.5 0.9,0.8 0.9,1.1 0,0.2 -0.4,0.4 -1,0.4 -0.3,0 -0.3,-0.4 -0.7,-0.7 l -0.8,0.8 c 0,0 0.9,0.8 0.9,1.4 0,0.6 -0.1,0.9 -0.5,1.3 l -0.8,-1.6 c -0.4,0 -1.1,0.8 -1.1,1.2 0,0.5 -0.3,0.8 -0.3,1.6 l 8.4,0 c 0.9,0 1.7,-0.3 2.7,-0.8 l 1.6,0 c 3.3,0 6,-0.9 8.4,-3.4 3.3,-3.2 5.2,-8.3 5.2,-13.3 0,-5.9 -2.5,-11.8 -6.8,-16.1 m -196.62,33.6 0,-1.5 c 3.24,0 5.54,-0.2 5.54,-5 l 0,-25 c 0,-4.8 -1.76,-5 -5.54,-5 l 0,-1.4 19.18,0 0,1.4 c -3.92,0 -5.54,0.2 -5.54,5 l 0,25 c 0,4.8 2.03,5 5.54,5 l 0,1.5 -19.18,0 0,0 z m 66.06,-28.8 0,29.1 -2.29,0 -29.05,-30 c 0.14,0.8 0.14,1.5 0.14,2.3 l 0,18.2 c 0,5.7 0,7.7 5.13,7.7 l 0,1.5 -13.65,0 0,-1.5 c 5.14,0 5.14,-2.4 5.14,-7.7 l 0,-20.8 c 0,-3.1 0,-6.5 -5.4,-6.5 l 0,-1.4 12.83,0 23.91,24.5 c -0.13,-0.6 -0.13,-1 -0.13,-2 l 0,-13.4 c 0,-5.4 0.13,-7.7 -5,-7.7 l 0,-1.4 13.65,0 0,1.4 c -5,0 -5.28,2.2 -5.28,7.7 l 0,0 z m 47.16,16 0,9.7 c -5.4,2.7 -10.5,4.1 -15.6,4.1 -14.2,0 -22.77,-8.4 -22.77,-19 0,-11.3 9.77,-20.8 22.17,-20.8 3.1,0 5.4,0.6 7.9,1.4 1.7,0.5 2.8,1.2 3.9,1.2 0.9,0 1.2,-1.6 1.3,-2.6 l 1.4,0 1.2,13.1 -1.6,0 c -0.7,-2.5 -1.9,-4.7 -3.5,-6.2 -2.6,-2.5 -6.1,-3.9 -10.2,-3.9 -8.5,0 -13.5,6.8 -13.5,16.9 0,10 6.1,16.9 14.2,16.9 2.4,0 4.6,-0.6 7.3,-1.8 l 0,-10 c 0,-3.2 -0.5,-4.4 -5.1,-4.4 l 0,-1.5 17.1,0 0,1.5 c -4.3,0 -4.2,1.3 -4.2,5.4 l 0,0"
  />
<path style="display:none" class="only-dark-background"
  d="m 164.7,68.24 c -0.8,0 -0.6,1.4 -0.8,2.09 -0.1,0.1 -0.3,0.3 -0.1,0.5 l 1.8,0 c 0,0 0.2,-1.19 0.2,-1.39 -0.2,-0.3 -0.6,-0.9 -1.1,-1.2 z m 2.4,-10.33 c -0.7,-0.5 -1.7,-1 -3.2,-1.49 -0.4,-0.2 -1.3,0 -1.7,0 -1,1.69 -1.4,3.38 -2.2,5.26 -0.1,0.4 -0.4,1.1 -0.4,1.1 -0.6,-0.3 -1.3,-0.6 -1.9,-0.6 -1.1,0 -1.9,0.4 -2.3,1.39 -0.3,-0.1 -0.9,-0.4 -1.5,-0.2 -0.9,0.1 -1.7,0.6 -2.1,1.4 -0.4,0.49 -0.5,0.99 -0.4,1.49 -0.6,0.2 -1,0.89 -1.3,1.39 -0.3,0.99 0.7,2.78 1,3.18 l 1.3,0 c -0.2,-1.19 -0.7,-1.69 -0.3,-2.78 0.2,-0.7 1.1,-0.9 1.4,-1.1 0,-0.49 -0.7,-0.79 -0.5,-1.39 0.2,-0.6 1,-0.6 1.8,-0.5 -0.1,0.8 -0.3,1.79 -0.4,2.79 -0.1,1.19 0.5,2.98 0.5,2.98 l 1.3,0 c 0.2,0 0.2,0 0.2,0 -0.2,-0.4 -0.3,-0.8 -0.3,-1.19 -0.1,-0.4 -0.1,-0.6 -0.1,-1 0.1,-0.5 0.1,-0.99 0.1,-1.39 1.3,-0.6 0.9,0.3 1.2,0.5 0,0 0.5,-1.1 -0.2,-1.59 -0.1,-0.2 -0.9,0 -0.9,-0.2 0,-0.1 0.2,-0.5 0.3,-0.9 0.2,-0.49 0.4,-0.59 0.6,-0.99 0.2,-0.1 0.6,-0.1 1.1,0 0.1,0 0.8,0.1 1.2,0.3 -0.2,0.4 -0.7,1.09 -0.8,1.49 -0.5,1.49 -0.5,3.28 -0.4,4.97 0,0 0.8,0 1.4,0 0,-0.9 -0.1,-1.89 0,-2.78 0.3,-1.2 0.7,-1.3 0.8,-1.3 0.3,0 0.5,0.2 0.7,0.5 0.2,1.29 -0.6,2.39 -0.6,3.58 0.4,0 1.1,0 1.1,0 0,0 0.4,-0.2 0.5,-0.5 0.3,-0.79 0.8,-1.59 0.9,-2.28 0.1,-0.7 -0.1,-1.2 -0.5,-1.89 -0.4,-0.6 -0.8,-0.9 -1.7,-1.59 -0.3,-0.5 0,-1.1 0,-1.1 0,0.1 0.5,-0.1 0.8,-0.1 1,0.2 1.3,0.2 1.8,0.5 0.4,0.1 0.8,0.3 1.2,0.6 0.4,0.3 0.8,0.99 1.2,1.89 0,0 0.2,-1.59 0.2,-2.19 -0.5,-0.5 -1,-1 -1.8,-1.39 -0.6,-0.5 -2,-0.8 -2.6,-1.1 0,0 0.2,-0.39 0.2,-0.59 0.8,-0.2 1.7,-0.2 2.1,0 1.2,0.3 2.8,1.09 3.4,1.59 0,0 0.3,-0.5 0.3,-0.7 0,0 -1.8,-1.19 -1.7,-1.59 -0.5,-0.4 -0.9,-0.69 -1.4,-0.89 -0.7,-0.1 -2.3,-0.2 -2.3,-0.2 0,0 0.4,-0.5 0.8,-0.9 l 1,0 c 0.5,0 1.8,0.4 2.6,0.8 1.1,0.5 1.8,0.79 1.9,1.09 0.1,-0.4 0.3,-0.89 0.4,-1.09 -1.4,-0.6 -1.3,-1.09 -1.8,-1.29 z m -3,-3.58 c 0.1,-0.4 0,-0.6 0.1,-1 0,-0.29 0,-0.89 0.1,-1.29 -0.2,-0.1 -0.7,0.2 -1,0.2 -0.4,0 -1.3,0 -1.3,0.1 0.1,0.2 0.1,0.5 0.2,0.7 0.2,0.29 0.3,0.59 0.3,1.19 0,0.4 0.1,0.79 0,1.29 0,0 1.6,-0.89 1.6,-1.19 z m -1.5,-2.88 c 0.3,-0.4 1,-1.2 1.3,-1.4 -0.3,-0.29 -0.4,-0.59 -0.5,-0.89 -0.5,0 -2.5,0.79 -2.5,0.79 0.4,0.6 0.7,1.2 0.9,1.99 0.3,-0.1 0.6,-0.3 0.8,-0.49 z m 4.9,0.59 -0.8,0 c 0,0 -0.3,1 -0.3,1.79 -0.1,0.4 -0.2,0.6 -0.2,0.8 -0.3,0.49 -0.4,0.59 -0.7,1.19 0.4,0.2 0.8,-0.1 1.1,-0.1 0.2,-0.1 0.6,-0.2 0.7,-0.4 0.2,-0.1 0.6,-0.99 0.7,-1.19 l 0,-0.9 c -0.1,-0.29 0,-0.79 0,-1.19 -0.1,-0.2 -0.4,-0.1 -0.5,0 z m 7,9.25 c -0.1,-0.1 -0.1,-0.4 -0.3,-0.6 -0.2,-0.8 -0.1,-1.19 -0.2,-1.89 0,0 -0.8,0 -1.1,0 -0.2,0.1 -0.4,0 -0.6,0.1 0,0.5 0.1,0.9 0.5,1.49 0.4,0.8 1.7,0.9 1.7,0.9 z M 161.1,49.26 c 0,0 0.3,-0.2 0.3,-0.5 0.7,-0.69 1.5,-1.39 1.6,-1.49 -0.3,-0.69 -0.4,-0.79 -0.8,-1.19 -0.1,0.2 -0.8,0.5 -0.9,0.79 -0.2,0.1 -0.5,0.3 -0.6,0.4 0,0.2 0.1,0.4 0.2,0.6 0,0.3 0.2,0.89 0.2,1.39 z m 10,4.47 c 0,-0.1 -0.4,-0.1 -0.6,-0.1 -0.3,0 -0.6,0.1 -0.8,0.1 -0.3,0.4 -0.4,0.7 -0.5,1.29 -0.2,0.3 -0.4,0.6 -0.6,0.8 0,0 1.2,-0.2 1.5,-0.2 0.4,-0.3 0.6,-0.4 0.9,-0.89 0.1,-0.4 0.2,-0.5 0.1,-1 z m 16.5,9.94 c -0.3,-0.1 -2.8,-1.19 -3.2,-1.19 -0.7,0.1 -2,0.1 -2.8,0.5 -0.2,-0.4 -0.3,-1 0,-1.4 0.1,-0.29 1.4,-0.29 1.8,-0.29 1.4,0.1 2.2,0.39 2.6,0.39 0.4,0.4 0.8,0.4 0.9,0.4 0,0 -0.1,-0.79 -0.2,-0.99 -0.6,-0.3 -1.1,-0.4 -1.5,-0.5 -0.6,-0.3 -0.9,-0.4 -1.9,-0.6 -0.4,0 -0.4,0.2 -1.2,0.2 0,-0.2 0.1,-0.3 0.3,-0.39 0.2,-0.4 0.5,-0.6 0.7,-0.9 l 2.1,0 c 0.5,0.1 0.8,0.3 1.5,0.5 0.3,0 0,-0.6 0,-1 -0.2,-0.1 -0.3,-0.29 -0.6,-0.39 -0.5,-0.1 -0.9,-0.2 -1.4,-0.5 -0.4,-0.1 -1.2,-0.4 -1.8,-0.3 -0.7,0.3 -0.7,0.2 -1.2,0.4 -0.6,0.89 -1,1.89 -1.3,2.98 0,0.2 -0.7,1.69 -0.7,1.99 0,0.1 -0.1,0.4 -0.1,0.4 -0.5,-0.2 -2.9,-0.5 -3.5,0.1 -0.3,0.29 -0.6,0.49 -0.9,1.29 -0.6,-0.4 -1,-0.5 -1.5,-0.5 -0.6,0 -1.4,0.3 -1.8,0.99 0,0.1 -1,1.99 -0.9,3.78 0.1,1 0.5,1.39 1,2.19 l 1.5,0 c -0.2,-0.5 -0.4,-1.19 -0.7,-1.89 -0.1,-0.7 0.1,-1.79 0.3,-2.78 0,0 0.4,-0.3 0.8,-0.4 0.2,-0.3 0.3,-0.2 0.7,-0.2 0.2,0 0.2,0.2 0.2,0.2 -0.6,0.5 -0.6,0.99 -0.7,1.79 0,0.3 0.5,2.28 1.1,3.28 l 1,0 c 0,0 -0.3,-2.59 -0.1,-2.78 0,-0.5 0.1,-0.9 0.2,-1.3 0.3,0.1 0.5,0.1 0.8,0.2 0.4,0.3 0.4,0.6 0.4,0.9 0,0.69 0,0.79 -0.1,1.19 0,0.4 0,0.4 0,0.6 0,0.69 0.1,1.19 0.1,1.19 l 1,0 c 0,-1.19 0.2,-1 0.3,-1.69 0.1,-0.5 0,-0.7 0.1,-1.09 0,-0.3 0.2,-0.5 0.3,-0.7 0.4,-0.2 0.7,-0.2 1.2,-0.1 0,0.4 0,0.8 -0.2,1.19 -0.1,0.6 -0.2,1.2 -0.5,1.89 0,0.1 -0.1,0.3 -0.2,0.5 l 1.4,0 c 0,0 0.3,-0.5 0.4,-1.19 0.4,0.39 0.9,0.19 1.2,0.19 0.4,-0.19 0.6,-0.59 0.9,-0.79 -0.5,-0.4 -1.7,-0.3 -1.7,-0.8 -0.3,-0.89 0,-0.99 0,-1.49 0,-0.79 -0.8,-0.99 -1.5,-1.19 -0.2,-0.1 -0.7,-0.1 -1,-0.1 -0.3,0.1 -0.5,0.5 -0.8,0.5 0,0 -0.5,-0.4 -0.9,-0.5 -0.3,0 -1,-0.2 -1,-0.2 0.1,-0.3 0.2,-0.49 0.3,-0.69 0.2,-0.1 0.6,-0.5 0.7,-0.5 0.3,-0.1 0.7,0 0.9,0.1 0.7,0.2 1.2,0.3 1.3,0.3 0.2,0 0.5,0.3 0.5,0.3 0.4,-0.3 0.4,-0.6 0.6,-0.6 0.8,-0.2 1,-0.3 1.8,-0.3 0.7,0 1.2,1.09 1.6,1.49 0.1,0.2 1,1.39 1.5,2.39 0.3,-0.1 0.4,-0.4 0.7,-0.4 0,-0.2 -0.1,-1.19 -0.3,-1.39 -0.4,-1.1 -1.1,-1.39 -1.1,-1.59 0.2,0 0.7,0.2 1,0.2 0.3,0.2 0.7,0.29 1,0.49 0.2,0.2 0.4,0.3 0.6,0.4 0.1,0.5 0.1,0.9 0.4,1.39 0,0.1 0,0.3 0.1,0.4 0.4,-0.79 0.8,-0.89 1,-1.49 -0.2,-1.19 -0.9,-1.69 -1.5,-2.09 z m -1.1,5.87 c -0.2,0.49 -0.5,0.99 -0.5,1.29 l 1.4,0 c 0.4,-0.5 0.6,-1 0.3,-1.79 -0.4,0.1 -1.2,-0.3 -1.2,0.5 z m -14,-12.63 c 0.4,-0.2 0.7,-0.39 1.1,-0.49 0.3,-0.2 0.5,-2.19 0.5,-2.19 0,0 -0.8,0.1 -0.9,0.2 -0.1,0 -0.7,0 -0.9,0.3 0,0.39 0,0.79 -0.1,1.29 -0.3,0.4 -1,0.59 -1,1.19 0,0 0.6,0.2 0.7,0.2 0.3,-0.2 0.5,-0.4 0.6,-0.5 z M 159.9,42.3 c 0,0 0,0.4 0,0.7 0,0.2 0.1,1.59 0.1,1.98 0.1,0.4 0.1,0.8 0.3,1.1 0.1,0.3 0.2,0.5 0.2,0.79 0,0 0.3,-0.1 0.4,-0.39 0.4,-0.4 0.5,-0.7 0.8,-1.3 -0.1,-0.79 -0.4,-1.59 -0.4,-1.89 0,-0.99 0.1,-1.19 0.3,-1.88 -0.5,0.29 -1.2,0.69 -1.7,0.89 z m 17.6,17.99 c 0.1,0 0.3,-0.3 0.3,-0.3 -0.2,-0.49 -0.3,-1.09 -0.4,-1.59 0,0 -0.4,-0.29 -0.8,-0.29 -0.3,0 -0.5,-0.1 -0.8,0 0.1,0.39 0.1,0.69 0.3,1.09 0.4,0.5 0.9,0.69 1.4,1.09 z M 165.9,46.58 c -0.1,-0.2 -0.5,-0.3 -0.8,-0.5 -0.2,0 -0.5,0.5 -0.5,1.09 0,0.2 0.1,1.09 0.3,1.49 0,0.1 0.2,0.2 0.5,0.4 0.4,0.2 0.8,0.4 1.2,0.6 0,0 -0.4,-1.1 -0.6,-1.79 -0.1,-0.4 0.2,-0.9 -0.1,-1.29 z m 2.7,3.97 c 0.2,-0.5 0.6,-0.79 0.6,-1.69 0,0 -0.2,-0.6 -0.3,-0.79 -0.1,-0.3 -0.3,-0.6 -0.7,-0.8 -0.1,0 -0.3,-0.3 -0.5,-0.1 0,0 -0.1,1 -0.2,1.09 0.2,0.4 0.5,0.6 0.6,1 0.1,0.4 0.3,0.89 0.5,1.29 z m 3.6,1.99 c 0.3,-0.3 0,-0.99 0,-1.39 -0.2,-0.3 0,-0.7 -0.2,-1.1 -0.1,-0.29 -0.4,-0.39 -0.6,-0.39 -0.3,0 -0.9,-0.4 -0.9,-0.1 -0.7,0 -0.2,0.59 -0.2,0.99 0,0.5 1.3,1.79 1.3,1.79 0.3,0.1 0.3,0 0.6,0.2 z M 159.7,41.8 c 0.3,-0.39 1.1,-1.09 1.5,-1.59 0.2,-0.29 0.8,-0.89 2.1,-1.59 0.1,-0.49 0.2,-0.89 0.2,-1.39 -1.3,0.4 -2.2,0.7 -2.4,0.9 -0.7,0.39 -1,0.69 -1.6,0.99 0,0.8 0,0.8 0.1,1.19 l 0.1,1.49 z m 20.2,14.32 c -0.4,-0.3 -1.1,-1 -1.5,-1.39 -0.2,-0.3 -0.1,-0.6 -0.4,-0.9 -0.2,0 -0.5,0 -0.8,0.1 -0.4,0 -0.6,0 -1,0.2 0.1,0.2 0.1,0.5 0.4,0.6 0.5,0.49 0.5,0.59 1,1.39 0.2,0.3 0.8,0.4 1.3,0.4 0.3,0 0.8,-0.3 1,-0.4 z m -5.1,-6.96 c -0.6,0.1 -1.6,0.3 -1.6,0.6 -0.1,0.39 0,0.79 0,1.09 0.1,0.2 0.1,0.5 0.1,0.79 0,0.3 -0.1,0.6 0,0.9 0.2,-0.2 0.8,-0.5 0.9,-0.7 0.3,-0.39 0.6,-0.69 0.7,-0.99 0.1,-0.4 0,-1.09 -0.1,-1.69 z m 1.7,-0.3 c -0.4,0.3 -0.7,0.4 -0.7,0.7 0,0.49 0.1,0.99 0.1,1.29 0,0.3 0,0.6 0.2,0.7 0.4,0.1 0.5,0.1 1,0.39 0,0.1 0.5,0.4 0.5,0.4 0,0 -0.2,-1.19 -0.4,-1.69 l 0,-1.99 c -0.5,0.1 -0.6,0.2 -0.7,0.2 z M 161.4,37.03 c 0.2,-0.2 1.6,-1.19 1.7,-1.29 0.3,-0.3 0.4,-0.1 0.5,-0.4 0,-0.69 0.3,-0.69 0.2,-0.99 -0.2,-0.3 -1.2,0 -1.4,0 -0.7,0.1 -1.9,0.5 -1.9,0.79 -0.1,0.3 -0.1,1.2 -0.1,1.4 0.1,0.29 0.1,0.69 0.3,1.09 0.4,-0.4 0.5,-0.5 0.7,-0.6 z m 27.7,22.47 c -0.1,-0.1 -0.4,-0.2 -0.6,-0.3 l 0,0.5 c 0,0.49 0.1,0.59 0.1,0.89 0,0.2 0.4,1.99 0.4,2.49 0.7,0.1 0.7,0.59 1,0.89 0,0 -0.2,-1.49 -0.2,-3.38 0,-0.2 -0.4,-0.89 -0.7,-1.09 z m -7.7,-4.67 c 0.6,0.39 1.6,0.29 2.5,0.19 -0.5,-0.39 -0.6,-0.69 -0.9,-0.89 -0.4,-0.3 -0.6,-0.4 -1.2,-0.9 l -1.6,0 c 0.3,0.6 0.4,1 1.2,1.6 z m -4.9,-8.25 c 0.2,-0.2 0.5,-0.7 0.5,-0.8 0.2,-0.6 0.2,-1.19 0.2,-1.69 -1,-0.6 -2.3,-0.8 -3.6,-0.8 -1.2,0 -2.5,0.2 -3.8,1.1 0.1,0.5 0.3,0.79 0.5,1.39 0.2,0 0.3,0.2 0.4,0.2 0.3,-0.2 0.5,-0.6 0.9,-0.8 l 0,0.6 c 0,0.3 0,0.6 0.2,0.99 0,0.4 0.4,0.4 0.9,0.4 0.5,0 0.6,-0.89 0.6,-1.09 0,0 0.2,0.5 0.9,0.89 0,0 1,0 1,-0.1 0.1,-0.59 0.2,-0.79 0.1,-1.29 0,0 0.8,0.5 1.2,1 z m 4,4.77 c -0.5,-0.8 -0.6,-1.59 -0.6,-1.69 -0.3,-0.2 0.2,-1.1 -0.4,-1.1 -0.3,-0.2 -1.1,-0.39 -1.1,-0.39 -0.1,0.39 -0.1,1.09 0,1.49 0,0.39 0.7,1.49 0.9,1.69 0.2,0.1 0.8,0.1 0.9,0.1 0.2,-0.1 0.3,-0.1 0.3,-0.1 z m -19.8,-16.6 c 0.2,-0.4 0.2,-0.4 0.5,-0.7 0.5,-0.3 0.8,-0.6 1.4,-1.09 0.1,-0.3 0.3,-0.1 0.7,-0.4 0.1,-0.1 0.2,-0.2 0.2,-0.4 0,-0.2 -0.1,-0.49 -0.2,-0.69 -0.2,-0.3 -0.4,-0.9 -0.4,-1.1 0,-0.99 0.1,-1.19 0.2,-2.08 -0.5,-0.1 -1.1,-0.1 -1.4,0.39 -0.3,0.4 -0.3,0.7 -0.3,1.1 0,0.59 0.2,1.19 0.3,1.89 -0.5,0.39 -0.8,0.69 -1.3,0.89 0.1,0.79 0.3,2.19 0.3,2.19 z m 26,18.29 c -0.3,-0.2 -0.6,-0.5 -1,-0.7 -0.5,-0.1 -0.7,-0.4 -1,-0.89 -0.1,-0.3 -0.3,-0.5 -0.5,-0.8 -0.3,0 -0.4,0.2 -0.7,0.3 -0.2,0.2 -0.8,0.2 -1,0.6 0.1,0.29 0.2,0.49 0.5,0.79 0.1,0.1 0.3,0.4 0.8,0.6 0.9,0.49 1.2,0.69 1.2,0.69 0.7,0.1 1.7,-0.59 1.7,-0.59 z m -6.2,-5.67 c 0,0 0.1,0.7 0.3,1.29 0.1,0.2 0.4,0.5 0.5,0.5 0.3,0.1 0.8,0.3 1.2,0.3 0,0 0,-0.2 0,-0.3 -0.4,-0.4 -0.9,-1.29 -0.9,-1.49 -0.3,-0.2 -0.3,-0.2 -0.7,-0.2 -0.1,-0.1 -0.3,-0.1 -0.4,-0.1 z m 11.6,9.15 c -0.1,0.39 -0.5,0.59 -0.5,1.09 0,0 0.7,0.69 0.8,0.99 0.1,0.3 0,1.39 0.1,1.69 0.4,-0.4 0.7,-0.49 0.7,-0.99 -0.2,-0.1 -0.3,-1.19 -0.4,-1.89 0,-0.3 -0.4,-0.7 -0.7,-0.89 z m 10.4,8.84 c -0.7,0 -1.5,0.8 -2,3.18 -0.1,0.9 -0.3,1.59 -0.1,2.09 l 1.1,0.2 c 0.3,-0.4 0.3,-1 0.6,-1.59 0,-0.2 0.2,-0.2 0.5,-0.2 0.3,0.1 0.8,0.79 1,0.99 0.2,-0.2 0.4,-0.79 0.4,-1.09 0,-0.2 -0.4,-0.4 -0.5,-0.4 -0.4,-0.3 -0.6,-0.49 -1.2,-0.49 -0.1,-0.5 0.7,-1.2 0.7,-1.2 0.9,0 1.8,1 1.8,1 0.3,-0.1 0.4,-0.5 0.7,-0.7 -0.8,-1.39 -2.3,-1.79 -3,-1.79 z m -6.7,-6.76 c -0.1,-0.2 -0.3,-0.59 -0.4,-0.79 0,-0.2 0,-0.4 -0.1,-0.8 0,0 -1,0.6 -1.1,0.8 0.5,0.59 0.3,0.99 0.4,1.49 0,0.2 0.5,0.4 0.7,0.69 0,0.2 -0.3,1.3 -0.3,1.3 0.8,-1 0.8,-2.29 0.8,-2.69 z m 10.3,11.23 c -0.1,0.3 -0.3,0.6 -0.5,0.8 0.1,0.2 0.4,0.2 0.5,0.2 l 1.3,0 c 0.1,-0.2 0.1,-0.5 0.3,-0.8 0,-0.2 0.1,-0.49 0.1,-0.89 0,0 -0.3,0 -0.8,0 -0.4,0 -0.8,0.3 -0.9,0.69 z M 188.5,51.35 c 0.1,0 0.6,0 0.6,0 0.3,0 0.3,-0.5 0,-0.5 -0.9,-0.3 -1.7,-0.6 -2.2,-1.29 -0.1,0.1 -0.9,0.39 -1.2,0.59 0,0 0.3,0.7 1,1.3 0.3,0.39 1.1,0.1 1.8,-0.1 z m -5.8,-4.38 c 0.4,0.5 0.8,0.9 1.2,1.29 0.1,0.3 0.5,0.3 0.8,0.3 l 1.3,0 c 0.4,-0.2 0.7,-0.2 0.9,-0.39 -0.5,-0.3 -1.2,-0.5 -1.7,-0.8 -0.5,-0.2 -0.9,-0.5 -1.3,-0.89 -0.2,0 -0.4,0.1 -0.5,0.1 -0.3,0.19 -0.4,0.29 -0.7,0.39 z m -13.5,-6.06 c 0,0 0.5,-0.1 0.9,-0.1 0.2,0 0.5,0 0.8,0.1 -0.2,0.1 -0.7,0.4 -0.7,0.4 -0.3,0.1 -0.4,0.3 -0.8,0.39 -0.1,-0.29 -0.2,-0.79 -0.2,-0.79 z m 0,-2.78 c 0.2,-0.4 0.7,-0.6 1.1,-0.7 0.6,-0.2 0.4,-1.19 0.4,-1.29 0.2,-0.3 0,-0.7 0,-0.9 -0.2,0.1 -0.2,0 -0.8,0.1 -0.5,0 -0.7,-0.2 -1,-0.49 -0.3,-0.2 -0.9,-0.8 -1.2,-1.3 0.7,-0.1 1.2,-0.1 1.9,-0.1 0.5,0 1.6,0 1.6,0 0.4,0.1 0.7,0.4 0.7,0.6 0,0.2 -0.1,0.9 -0.1,1.09 -0.2,0.7 -0.2,1 -0.3,2.09 l 0,0.4 c -0.1,0.3 -0.6,0.4 -0.9,0.6 -0.1,0.39 -0.1,0.69 -0.5,0.79 -0.4,0.1 -0.7,0.5 -0.9,0.4 -0.4,-0.3 -0.3,-0.9 0,-1.29 z m -2.3,-6.46 c -0.2,-0.2 -0.7,-0.6 -1,-1.1 -0.4,-0.5 -0.3,-0.99 -0.3,-1.19 0.3,-0.7 1.2,-1 1.7,-1.09 0.3,0 0.6,0 0.9,0.19 0.6,0.3 0.8,0.3 1.1,1.2 0,0.1 0,0.2 -0.1,0.2 0,0 -0.8,0.49 -1.1,0.79 -0.6,0.4 -0.8,1 -1.2,1 z m 4,-0.1 c 0.3,-0.3 0.7,-0.5 1,-0.5 0.3,-0.1 0.8,-0.3 0.8,0 0,0.5 -0.4,0.79 -0.8,1.29 -0.3,0.3 -0.4,0.1 -1,0.1 -0.2,0 -0.7,0 -0.7,0 0,-0.4 0.3,-0.5 0.7,-0.89 z m 5.3,-0.5 c 0.3,0 2.5,0.5 1,1.09 -0.2,0.3 -0.9,0.2 -1.5,0.2 0,-0.3 0,-0.79 -0.3,-0.79 -0.2,-0.3 -0.6,-0.3 -0.6,-0.5 -0.6,-0.5 0.7,-0.1 1.4,0 z m 2.5,-2.59 c 0.4,-0.29 0.9,-0.49 1.4,-0.29 0.6,0.1 0.7,0.19 1,0.49 0.3,0.5 0.2,1.49 0.1,2.09 -0.1,0.4 -0.5,0.7 -0.8,0.7 -0.7,-0.8 -1.3,-1.3 -2.2,-1.59 -0.2,-0.5 0.2,-1 0.5,-1.4 z m 0.8,5.37 c -0.2,0.2 -0.4,0.4 -0.7,0.5 -0.1,0 -0.3,0.3 -0.3,0.4 -0.2,0.39 -0.6,0.49 -1.1,0.49 -0.3,0 -0.8,0 -1.1,-0.49 0,0 0.2,1.49 0.2,1.89 0,0.1 0.1,0.1 0.1,0.1 0.5,0.1 0.6,0.7 0.9,0.9 0,0 0.1,0.1 0.3,0.1 0.5,0.4 1.7,0.89 1.1,0.89 0,0.3 -0.4,0.9 -0.5,0.9 -0.4,-0.4 -1,-0.6 -1.6,-0.9 -0.1,-0.2 -0.2,-0.49 -0.3,-0.69 -0.3,-0.3 -0.4,-0.3 -0.8,-0.5 0,-0.89 -0.2,-0.89 -0.2,-1.79 0,-0.2 -0.2,-1.59 -0.2,-1.59 0,-0.1 0.4,-0.5 0.8,-0.6 0,0 2.4,0 3.6,0.1 0,0 -0.1,0.3 -0.2,0.3 z M 178,41.7 c -0.5,-0.1 -0.9,-0.49 -1.5,-0.49 0,-0.4 0,-0.4 0.1,-0.5 0.8,-0.2 1.2,0.1 1.6,0.2 0,0.1 -0.2,0.79 -0.2,0.79 z m -8.3,1.79 c 0.4,0 0.8,-0.39 1.2,-0.49 0.7,-0.3 1.4,-0.6 2.2,-0.7 0.2,-0.1 0.2,-0.4 0.2,-0.6 0.2,-0.29 0.2,-0.29 0.2,-0.69 0,-0.1 -0.6,-0.2 -0.8,-0.7 -0.3,-0.39 0,-0.79 -0.2,-0.79 -0.3,0.3 -0.9,0.49 -1,0 -0.1,-0.4 -0.1,-0.9 0.3,-1 1.3,-0.49 2.7,-0.49 4,0 0.3,0 0.4,0.3 0.4,0.5 0.1,0.3 0,0.5 -0.3,0.8 -0.4,0.1 -0.7,-0.4 -0.7,0 0,0.39 -0.3,0.89 -1,1.09 -0.1,0.1 0,0.5 0.2,0.89 0,0.1 0,0.4 0.1,0.4 0.5,0.1 1.3,0.2 1.7,0.5 0.5,0.3 1.4,0.99 1.6,0.89 0.4,-0.3 0.5,-0.59 0.7,-0.89 1.5,0.59 2.6,0.99 4.4,2.19 0.2,0 0.2,-0.5 0.2,-0.8 -0.6,-0.4 -2.5,-1.39 -2.7,-1.49 -0.5,-0.2 -0.8,-0.4 -1.3,-0.5 0,0 0,-0.69 0,-1.09 0.9,0.3 2.6,0.4 4.4,1.39 0.2,-0.3 0.4,-0.6 0.3,-0.7 -2.1,-0.99 -3.6,-1.39 -4.9,-1.39 0,-0.1 -0.2,-0.3 0,-0.39 0.4,-0.3 0.6,-0.4 0.7,-0.5 0.4,-0.5 0.6,-1 0.8,-1.49 0.3,-0.8 0.7,-0.5 0.9,-2.19 -0.4,0 -0.5,0.3 -0.8,0.4 0.1,-0.4 0.2,-0.8 0.2,-1.19 0.1,-0.7 0.4,-1.2 0.4,-2.09 0.3,-0.2 1,-0.5 1.1,-1 0,-0.19 0,-0.59 0.2,-1.09 0,-0.7 0.1,-1.39 -0.2,-1.89 0,-0.1 -0.9,-1.39 -1.5,-1.79 -0.8,-0.3 -1.2,-0.2 -1.9,-0.1 -0.8,0 -1.8,0.8 -1.8,2.19 -0.8,0 -2.4,0.1 -3.3,0.89 -0.8,-0.39 -1.4,-0.49 -2.1,-0.69 l -1.1,0 c -0.2,-0.5 -0.4,-1 -0.9,-1.39 -0.7,-0.3 -1.5,-0.9 -2.4,-0.9 -0.4,0 -0.8,-0.1 -1.2,0.2 -0.4,0.2 -1,0.5 -1.1,1 -0.3,0.59 -0.6,1.09 -0.6,1.78 0,0.6 0.4,1.1 0.8,1.79 0.1,0.2 0.3,0.2 0.5,0.3 0.2,0 0.7,0.3 0.8,0.4 0.2,0.1 -0.1,0.5 -0.1,1.29 0,0.6 0,0.6 0.1,1.1 0,0.49 0.2,1.09 0.3,1.39 -0.4,0 -0.7,-0.3 -0.9,-0.1 0,0.3 0.2,0.89 0.5,1.39 0.6,0.6 1.3,1.29 1.7,1.99 0,0.2 0,0.39 0.1,0.39 -0.9,0.2 -1.8,0.2 -2.7,0.4 -0.8,0.3 -1.6,0.6 -2.4,1 0,0.49 0.1,0.89 0.1,0.89 0.2,0 1.2,-0.6 2.3,-0.89 1.7,-0.5 2.6,-0.4 2.6,-0.4 0.1,0.3 0.2,0.69 0.1,0.79 -1.5,0.6 -3.1,1.4 -4.5,2.29 0.2,0.3 0,0.6 0.3,0.89 1.2,-0.79 3,-1.69 4.3,-2.18 0.6,-0.1 0.6,0 0.8,0 0.2,0.2 0.4,0.69 0.7,0.69 z m 24.6,11.34 c 0,0 -0.2,-0.5 -0.2,-0.6 -0.1,-0.3 -0.3,-0.6 -0.7,-0.8 0,-0.1 -0.1,0.5 -0.2,0.8 -0.2,0.2 -0.2,0.1 -0.4,0.6 0.2,0.39 0.4,0.69 0.6,0.99 0,0.2 0.4,0.7 0.4,0.7 0,0 0.5,-1 0.5,-1.3 l 0,-0.39 z m 16.6,14.61 c 0,0 -0.5,0 -0.6,0 -0.3,-0.2 -0.4,-0.2 -0.5,0 -0.4,0.39 -0.4,0.99 -0.7,1.39 l 1.6,0 c 0.2,-0.3 0.5,-0.4 0.5,-0.9 0,-0.1 0,-0.39 -0.3,-0.49 z m -18.1,-17.4 c 0,-1.09 -0.3,-1.09 -0.8,-1.59 0,0 -0.4,0.7 -0.6,1.1 0.5,0.49 0.6,1.19 0.6,1.19 0.5,-0.5 0.5,-0.4 0.8,-0.7 z m 5,4.48 c 0,-0.4 -0.2,-0.8 -0.4,-1 -0.2,-0.4 -0.2,-0.89 -0.2,-1.19 -0.1,-0.2 -0.6,-1 -0.9,-1.39 -0.3,-0.2 -0.3,-0.9 -0.4,-1.3 l -1.6,0.3 c 0.8,1 1.5,1.99 1.9,3.08 0.1,0.3 1.2,4.18 1.2,4.18 0.4,-0.2 -0.2,-2.09 0,-2.19 0.1,-0.3 0.1,-0.4 0.4,-0.49 z M 188,46.48 c -0.2,-0.2 -0.4,-0.7 -0.6,-0.9 -0.1,-0.2 -0.2,-0.5 -0.4,-0.6 -0.1,-0.1 -0.6,0 -0.9,0 -0.2,0 -0.4,0 -0.6,0.1 0.2,0.3 0.5,1.2 0.6,1.2 0.2,0.2 0.2,0.3 0.4,0.49 0.7,0.1 1.2,0 1.9,0.2 0.2,-0.39 -0.3,-0.39 -0.4,-0.49 z m 3.5,2.78 c 0,0 -1.6,-0.9 -1.8,-1.19 -0.4,0 -0.4,0 -0.8,0.29 -0.3,0 -0.4,0.2 -0.5,0.4 0.3,0.3 0.5,0.4 0.9,0.7 0.1,0.1 0.2,0.1 0.6,0 l 1.1,0 c 0.2,0 0.5,0.1 0.5,-0.2 z m 21.9,18.79 c 0,0 -0.1,0.39 -0.3,0.59 -0.2,0.6 -0.3,0.9 -0.3,1.29 0.3,0.2 0.5,0.1 1,0.1 0.2,0 0.4,0.1 0.6,0.1 0.2,-0.1 0,-0.3 0,-0.49 -0.2,0 -0.6,-1.1 -1,-1.59 z M 199.5,57.11 c 0.5,-0.4 0.6,-1.09 0.7,-1.49 0.2,-0.4 -0.1,-1.19 -0.2,-1.39 -0.4,0 -0.7,-0.3 -0.9,-0.3 -0.3,0 -0.4,-0.6 -0.8,-0.5 0.1,0.3 0.4,1.59 0.5,1.79 0.1,0.1 0.7,1 0.7,1.89 z m 10,6.96 c 0,-0.1 -0.4,-0.4 -0.5,-0.4 0,-0.1 -0.2,-0.59 -0.3,-0.69 -0.2,-0.2 -0.2,-0.3 -0.5,-0.3 0,0.1 0,0.3 -0.1,0.49 0,0.3 -0.3,0.4 -0.2,0.7 0.2,0.2 0.3,0.2 0.6,0.3 0.1,0.2 0.5,1.19 0.6,1.29 0.1,-0.1 0.1,-0.89 0.4,-1.39 z M 186.9,43.49 c 0.4,0 0.7,0.2 0.9,0.2 0,-0.4 -0.1,-0.59 -0.2,-0.99 -0.2,-0.6 -0.4,-1 -0.6,-1.39 0,-0.4 0,-0.6 -0.1,-0.9 -0.1,0 -0.2,0 -0.4,-0.1 -0.4,0 -0.9,-0.1 -0.9,-0.1 0,0.3 0.1,1 0.1,1.4 0,0.1 0.6,1.19 0.7,1.39 0.1,0.2 0.3,0.29 0.5,0.49 z m 12.3,8.35 c -0.1,-0.39 -0.5,-0.49 -0.8,-0.79 0,0 -1.6,-0.6 -1.8,-0.6 -0.3,0.1 0.6,0.6 0.6,0.9 0.6,0.49 1.9,1.59 1.9,1.59 l 0.1,-1.1 z m -15.9,-16 c -0.2,0.2 -0.3,0.4 -0.3,0.5 -0.3,0.39 -0.6,0.69 -0.4,1.09 0.1,0.5 0.1,0.99 0.5,1.39 0.4,0.3 0.9,0.2 1.5,0.6 0,0 -0.4,-1.69 -0.7,-2.39 -0.1,-0.49 -0.4,-0.79 -0.6,-1.19 z m 24.9,9.64 c -1.7,-1.59 -3.5,-2.68 -5.3,-2.68 -1.6,0 -2.8,1.19 -2.8,2.28 0,4.58 1.8,7.46 3,10.04 0.4,0.6 0.5,1.1 0.5,1.79 0.2,1.59 -1.3,4.67 -2.2,6.26 -0.1,-0.1 -0.8,-0.19 -1.3,-0.19 -1.3,0 -1.8,0.89 -2.1,1.59 -0.4,0 -0.6,-0.2 -0.9,-0.2 -1.6,-0.2 -2.9,1.19 -2.9,2.78 0,1.59 0.4,2.49 1.1,3.68 l 1.3,0 c -0.2,-0.4 -0.6,-2.29 -0.7,-2.78 -0.1,-0.8 0.1,-1.3 0.5,-1.69 0.6,-0.8 1.8,-0.5 1.8,-0.5 -0.4,0.6 -1,1.69 -1,2.68 0.2,0.6 0.3,1.59 0.7,2.29 l 1,0 c 0.3,-0.8 0,-1.39 0,-2.09 0,-0.3 0,-0.69 0.2,-1.09 0,-0.3 0.6,0.49 0.6,0.49 0,0 0.5,-0.59 0.5,-1.19 0,-0.3 -0.7,-0.2 -0.9,-0.59 -0.1,-0.4 0.3,-1.3 0.3,-1.3 0.8,-0.49 1.4,-0.29 1.7,-0.29 0.4,0 0.5,0.1 1,0.1 0.4,0 0.6,-0.79 0.6,-1.19 0.1,0.2 0.5,0.4 0.6,0.4 0.4,0.1 0.5,0.1 0.9,0.3 0.5,0.2 1.1,0.49 1.6,0.99 l 0,-0.1 c -0.2,-0.49 0.1,-1.19 -0.3,-1.39 0,0 -0.6,-0.5 -1.2,-0.79 -0.2,-0.3 -0.6,-0.3 -0.7,-0.5 -0.2,-0.1 -0.2,-0.3 -0.2,-0.5 0,-0.3 0.2,-0.69 0.3,-0.69 0.3,-0.1 0.4,0 0.9,0.29 0.5,0.3 1,0.6 1.4,0.9 0,0 0.2,0.2 0.2,0.1 0.5,-0.2 0.5,-0.4 0.5,-1.1 -0.5,-0.69 0,-0.79 -0.8,-1.29 -0.3,0 -1.7,-0.49 -1.7,-0.49 0,-0.3 0.4,-0.9 0.4,-0.9 0.1,-0.1 0.4,-0.1 0.5,0.1 0.8,0.5 1.3,0.5 2.1,0.8 0.1,-0.4 0.1,-0.6 -0.1,-0.9 -0.3,-0.4 -0.7,-0.79 -0.9,-0.89 -0.6,-0.1 -0.8,-0.2 -1.2,-0.4 0,-0.4 -0.1,-0.7 -0.3,-1.19 0,-0.3 0.3,-0.2 0.6,-0.2 0.5,-0.1 2.7,0.69 2.7,0.69 0,-0.49 -0.1,-0.89 -0.4,-1.19 -0.3,-0.2 -0.5,-0.5 -1.2,-0.7 -0.9,-0.29 -1.7,-0.19 -2.3,-0.59 -0.5,-0.5 -0.7,-0.6 -0.8,-1.1 0.4,-0.1 1,-0.29 1.4,-0.29 0.7,0 1.1,-0.1 1.9,0.19 0.2,0.1 1.1,0.9 1.5,0.9 0,0 -0.2,-1.09 -0.5,-1.39 -0.4,0 -1,-0.8 -1.3,-0.9 -1.3,-0.49 -1.6,-0.29 -2.3,-0.2 -0.4,0.2 -0.8,0 -1.2,0 -0.1,-0.19 0.2,-0.59 0.1,-0.79 0,-0.2 -0.5,-0.3 -0.5,-0.6 0,0 2.1,-0.2 2.9,-0.1 0.2,0.1 1,0.7 1.3,0.7 0,0 0.2,-0.9 -0.2,-1.69 -0.6,-0.1 -1.3,0 -1.8,-0.1 -0.5,-0.2 -1,0 -1.4,0 -0.4,0 -0.8,-0.2 -1.2,-0.2 -0.3,-0.3 -0.4,-0.69 -0.4,-1.09 0,0 3.3,-0.1 3.5,-0.3 -0.1,-0.1 -0.4,-0.2 -0.5,-0.5 -0.5,-0.89 -0.9,-0.99 -1.6,-0.99 -0.3,0 -1.3,0.4 -1.8,0.3 0,-1.1 0.5,-1.89 1.3,-1.89 1.6,0 3.1,0.59 4.5,1.99 3.2,3.28 4.9,9.44 4.9,13.91 0,1.99 -0.3,3.88 -0.5,5.47 0.4,0.1 0.6,0.1 1,0.1 0.4,-1.49 0.8,-3.58 0.8,-5.47 0,-6.46 -2.3,-11.83 -5.2,-14.91 z m -19.6,-5.27 c 0.3,1 0.7,2.19 0.8,3.78 0,0.4 -0.1,0.7 0,1.09 l 1.8,0.7 c 0,0 -0.2,-1.59 -0.5,-3.38 -0.3,-1.49 -0.4,-1.99 -0.8,-2.58 -0.2,0.1 -0.4,0.1 -0.6,0.1 -0.4,0.1 -0.7,0.29 -0.7,0.29 z m 4.3,7.26 c 0.3,0.3 0.4,0.79 0.5,1.69 0.2,0.5 0.4,0.6 0.7,1.39 0.4,-0.3 1,-0.1 1,-0.1 0,-0.69 -0.4,-1.29 -0.4,-1.39 -0.1,-0.3 -0.5,-0.99 -0.6,-1.29 0.1,0 0.5,0.49 1.2,0.49 0.1,0 0.5,0.1 0.7,0 0,0 0.4,0.3 0.4,0.5 0.3,0.4 0.3,0.7 0.4,1 0.3,0 0.4,0 0.4,-0.1 0.6,0 0.8,-0.1 0.8,-0.1 -0.1,-0.3 -0.2,-0.5 -0.2,-0.8 -0.2,-0.2 -0.4,-0.89 -0.4,-0.89 l 2.3,-0.4 c 0,-0.3 -0.1,-0.89 -0.5,-1.09 -1.2,0.39 -2.4,0.49 -3.3,0.49 -1.3,0 -2.6,-0.29 -4.4,-0.99 -0.1,0.2 0,0.7 0,0.7 0.8,0.69 0.8,0.29 1.4,0.89 z M 164.2,26.6 c 0.9,-0.5 2.5,-1.4 3,-1.89 0.1,0.3 1.7,1.19 2.4,1.49 0.5,0.4 1,0.59 1.5,0.79 0.3,-0.39 0.5,-0.79 0.8,-1.59 0.4,0.2 0.9,0.2 1.3,0.3 0,0.5 0,1.09 0.1,1.59 0,0.2 0.3,0.1 0.8,-0.2 0.8,-0.2 1.6,-0.3 2,-0.49 0.9,-0.5 1.4,-1.5 2.2,-1.5 0.6,0 1.8,0.4 2.1,0.6 0.3,0.2 0.5,0.3 0.9,0.3 0.5,0 0.9,-0.5 1.3,-0.8 -1.2,-0.69 -2.4,-1.49 -3.7,-1.98 -0.7,0.59 -1.3,1.09 -1.7,1.09 -0.4,0 -0.1,-0.7 -0.1,-1.19 -0.4,0 -0.6,0 -1,-0.2 -0.3,0.89 -0.4,2.09 -1.1,2.28 -0.2,0.2 -0.4,0.2 -0.5,0.2 l 0,-1.09 c 0,-0.1 0.5,-0.99 0.4,-1.09 0,0 -1.2,0.19 -1.4,0.39 -0.2,0.1 -1,0.5 -1.1,0.5 0,0 -0.4,-0.1 -0.5,-0.1 -0.4,-0.3 -0.7,-0.3 -1,-0.6 -0.6,1.6 -0.7,1.99 -0.7,1.69 0,0 -1.8,-1.09 -2.5,-1.88 -1.7,0.19 -1.7,0.49 -3.1,0.99 -0.5,0.5 -1.2,1.19 -1.7,1.89 -0.3,0.5 -0.5,0.79 -0.8,1.29 l 1.3,0.5 c 0.1,-0.1 0.7,-1 0.8,-1.29 z M 209,61.09 c 0.4,0.1 0.6,0.99 0.9,1.19 0.4,0.5 0.3,-0.89 0.1,-1.09 0,-0.1 0,-1.2 -0.2,-1.2 -0.2,-0.1 -0.3,-0.49 -0.4,-0.59 -0.2,0.4 0,0.59 0,0.99 0,0.3 -0.6,0.5 -0.4,0.7 z M 186.3,35.24 c -0.2,0 -0.6,-0.1 -1.1,-0.29 -0.4,0 -0.6,0 -0.6,0 0.1,0.39 0.5,0.79 0.6,1.09 0,0.1 0,0.5 0.2,0.69 0.2,0 0.6,0.1 0.9,0.3 0.1,0 0.9,0.1 1.1,0.4 0.3,0 1.2,0.99 1.3,1.09 0.4,0.3 0.8,0.5 1.1,0.4 0.2,0 0,-0.4 0,-0.5 -0.5,-0.79 -0.9,-2.18 -1.1,-2.18 -0.3,-0.1 -0.6,0 -1.1,-0.2 -0.3,-0.3 -1.1,-0.7 -1.3,-0.8 z m -2.1,-3.08 c 0.1,0.3 0.4,0.3 0.6,0.4 0.3,0.3 0.6,0.4 0.9,0.7 0.6,0.49 0.8,1.09 1.5,1.59 0.2,0.1 0.4,0.29 0.5,0.29 0.1,0 0.7,0.3 0.8,0.5 0,-0.99 -0.4,-1.79 -0.7,-2.29 0,-0.1 -0.1,-0.29 -0.4,-0.39 -0.4,-0.4 -0.7,-0.8 -0.9,-0.8 -0.4,-0.3 -0.6,-0.69 -1,-1.09 -0.4,0 -0.7,0.4 -0.9,0.5 -0.2,0.29 -0.7,0.49 -0.4,0.59 z m -0.5,-3.08 c 0,0.3 0.1,0.7 0.2,1.09 0.7,0.4 1.5,0.6 1.5,0.6 0.1,-0.4 -0.2,-0.7 -0.2,-1.09 -0.2,-0.9 -0.6,-1.79 -0.8,-2.79 l 0,-0.49 c -0.5,-0.3 -1,-0.4 -1.7,-0.7 0,0 0,0.8 0.3,1.19 0.3,0.6 0.7,1.59 0.7,2.19 z m 27.5,3.28 -0.5,-0.69 1.4,-0.4 0.7,2.18 -1.6,-1.09 z m -4.7,-1.19 -0.8,0.5 -1,-0.7 1.1,-0.7 1.4,0.9 -0.7,0 z m 20.2,24.85 c 0.2,-0.8 0.2,-1.59 0.2,-2.09 -0.3,-0.2 -0.7,-0.3 -0.9,-0.3 0,-0.4 -0.2,-0.89 0,-1.39 0.2,0 0.7,0.1 0.7,0 0,-0.79 -0.1,-1.59 -0.2,-1.99 -0.3,-0.1 -0.7,-0.2 -1.1,-0.3 0,-0.39 -0.1,-0.79 -0.2,-1.09 0.4,-0.1 0.6,-0.1 0.9,-0.1 0,0 -0.3,-1.09 -0.4,-1.59 -0.3,-0.2 -0.7,-0.2 -0.9,-0.2 -0.1,-0.2 -0.3,-0.49 -0.4,-0.89 0.3,-0.1 0.5,-0.1 0.8,-0.2 -0.3,-0.7 -0.4,-0.9 -0.7,-1.29 l -0.9,0 c -0.1,-0.2 -0.3,-0.5 -0.3,-0.7 0.2,-0.2 0.4,-0.3 0.6,-0.4 -0.2,-0.39 -0.4,-0.79 -0.7,-1.09 -0.2,0 -0.5,0.2 -0.8,0 -0.1,0 -0.5,-0.5 -0.4,-0.5 0.2,-0.2 0.4,-0.29 0.6,-0.49 -0.4,-0.5 -0.6,-0.9 -0.9,-1.1 -0.3,0 -0.6,0 -0.8,0.1 0,0 -0.3,-0.4 -0.4,-0.49 -0.4,0 0.2,-0.6 0.2,-0.6 -0.4,-0.5 -0.7,-0.9 -1.3,-1.39 -0.2,0 -0.5,0.2 -0.6,0.2 0,0 -0.5,-0.4 -0.5,-0.5 0,-0.2 0.5,-0.4 0.5,-0.4 0,0 -0.9,-0.99 -1.6,-1.39 -0.2,0.2 -0.4,0.2 -0.6,0.2 -0.4,-0.4 -0.9,-0.7 -0.9,-0.7 0,0 0.3,-0.2 0.3,-0.39 -0.6,-0.3 -0.9,-0.6 -1.4,-1 -0.5,-0.2 -0.8,-0.6 -0.9,-0.99 -0.9,-1.39 -2.1,-3.38 -5,-3.78 0,0 0.7,0.89 1.1,1.49 0,0.1 0,0.1 -0.6,0.1 l -0.9,0 c -0.2,-0.4 -0.4,-0.5 -0.5,-0.7 -0.3,-0.49 -0.4,-0.69 -0.6,-0.89 -0.6,-0.4 -3.2,0.99 -5.4,1.49 0.5,0.6 1.1,1 1.2,1.29 0.6,0.6 1.5,1.79 2.2,2.69 0.1,-0.2 0.3,-0.3 0.5,-0.4 1.7,-0.3 1.7,-0.7 1.7,-0.7 0,0 -1.3,-0.99 -0.4,-0.99 0,0 0.7,0.1 0.9,-0.1 0.7,-0.1 1.5,-0.3 1.9,0 0.5,0.4 0.7,0.89 1.1,1.29 -0.2,0 -0.5,-0.2 -0.7,-0.2 -0.8,-0.1 -1.6,0 -2.3,0.2 0,0 1.1,0.9 1.3,1.2 -0.2,-0.1 -1,0 -1,0 -0.4,0.19 -0.9,0.29 -1,0.29 -0.4,0.1 -0.8,0 -1.1,0.1 0.5,0.3 2.9,1.2 4.1,1.2 1,0 1.6,-0.2 2.6,-0.5 0.1,-0.2 0.3,-0.3 0.5,-0.2 0.5,0.2 0.7,0.3 0.9,0.5 3.4,2.08 7.2,6.86 8.4,9.44 1.1,2.39 1.8,5.07 1.8,7.55 0.1,3.38 -1.1,6.66 -3.4,9.65 -1.3,1.59 -3.8,2.98 -6.4,3.28 0.8,0.89 1.2,2.28 1.6,3.57 0,0 0.9,-0.19 1.4,-0.39 0,-1 -0.6,-2.19 -0.6,-2.49 0,0 0.7,-0.49 1.4,-0.49 0.1,0.39 0.5,1.09 1,1.98 0.6,-0.3 0.9,-0.59 1.3,-0.89 0,-0.7 -0.4,-1.39 -0.6,-2.19 0.9,-0.4 1.4,-0.5 1.4,-0.5 0.3,0.4 0.9,0.7 1.1,1.1 0,0 0.6,-0.6 0.9,-1.19 -0.3,-0.6 -0.7,-0.9 -0.9,-1.4 l 1,-1.19 c 0,0 0.7,0.5 0.9,0.8 0.4,-0.5 0.8,-1 0.9,-1.69 -0.6,-0.6 -0.9,-0.6 -1,-1 0.3,-0.4 0.4,-0.89 0.6,-1.29 0.4,0.2 0.7,0.4 1,0.5 0.2,-0.5 0.5,-1.2 0.5,-1.69 -0.3,-0.3 -0.7,-0.4 -0.9,-0.7 0.1,-0.59 0.2,-1.29 0.2,-1.29 0,0 0.7,0.2 0.9,0.2 m -203.47,14.81 0,-1.49 c 3.24,0 5.55,-0.2 5.55,-4.87 l 0,-24.16 c 0,-4.77 -1.76,-4.87 -5.55,-4.87 l 0,-1.49 19.2,0 0,1.49 c -3.92,0 -5.54,0.1 -5.54,4.87 l 0,24.16 c 0,4.67 2.03,4.87 5.54,4.87 l 0,1.49 -19.2,0 0,0 z m 66.14,-27.93 0,28.13 -2.3,0 L 57.99,42 c 0.13,0.8 0.13,1.39 0.13,2.19 l 0,17.69 c 0,5.47 0,7.46 5.15,7.46 l 0,1.49 -13.67,0 0,-1.49 c 5.14,0 5.14,-2.39 5.14,-7.46 l 0,-20.18 c 0,-2.98 0,-6.26 -5.41,-6.26 l 0,-1.49 12.86,0 23.93,23.86 c -0.13,-0.6 -0.13,-1 -0.13,-1.99 l 0,-12.92 c 0,-5.27 0.13,-7.46 -5.01,-7.46 l 0,-1.49 13.67,0 0,1.49 c -5.01,0 -5.28,2.09 -5.28,7.46 l 0,0 z m 47.23,15.5 0,9.35 c -5.4,2.68 -10.5,3.97 -15.7,3.97 -14.2,0 -22.69,-8.15 -22.69,-18.39 0,-10.93 9.79,-20.07 22.19,-20.07 3.1,0 5.4,0.49 7.9,1.29 1.7,0.49 2.7,1.19 3.8,1.19 1,0 1.2,-1.59 1.4,-2.48 l 1.3,0 1.3,12.62 -1.7,0 c -0.7,-2.49 -1.9,-4.57 -3.4,-5.96 -2.6,-2.49 -6.1,-3.78 -10.2,-3.78 -8.5,0 -13.5,6.46 -13.5,16.3 0,9.74 6.1,16.4 14.2,16.4 2.4,0 4.6,-0.5 7.3,-1.69 l 0,-9.74 c 0,-3.08 -0.5,-4.27 -5.2,-4.27 l 0,-1.5 17.2,0 0,1.5 c -4.3,0 -4.2,1.29 -4.2,5.26 l 0,0"
  />
</svg>