 <svg 
   xmlns="http://www.w3.org/2000/svg"
   height="150.3"
   width="750.4"
 
   viewBox="0 0 750.4 150.3"
 > <path
     d="m 704.6,53.85 c -2.5,0 -4.7,-0.31 -6.4,-1.07 -1.2,-0.46 -2.4,-1.22 -3.3,-2.14 -1.1,-0.91 -1.8,-1.82 -2.3,-2.89 -0.6,-1.37 -0.9,-3.05 -0.9,-4.88 0,-3.36 1.1,-5.95 3.3,-8.08 2.3,-1.99 5.5,-3.05 9.5,-3.05 4,0 7.2,1.06 9.4,3.05 2.3,1.98 3.4,4.72 3.4,7.92 0,3.36 -1.1,6.11 -3.4,8.09 -2.2,1.98 -5.3,3.05 -9.3,3.05 z m -0.1,-4.73 c 2.9,0 5,-0.61 6.4,-1.83 1.5,-1.22 2.1,-2.75 2.1,-4.58 0,-1.83 -0.7,-3.35 -2.1,-4.57 -1.4,-1.22 -3.7,-1.83 -6.6,-1.83 -2.9,0 -5,0.61 -6.4,1.68 -1.3,1.06 -2.1,2.59 -2.1,4.57 0,1.83 0.8,3.36 2.1,4.58 1.6,1.37 3.7,1.98 6.6,1.98 z m 12.5,29.28 -25,0 0,-9.61 c 0,-2.44 0.1,-4.12 0.6,-5.34 0.5,-1.06 1.2,-1.98 2.4,-2.59 1.3,-0.61 2.5,-0.91 4,-0.91 1.8,0 3.4,0.45 4.6,1.52 1.2,1.07 2,2.44 2.3,4.42 0.6,-0.91 1.3,-1.83 2.1,-2.44 0.8,-0.61 2.1,-1.52 4.1,-2.59 l 4.9,-2.74 0,5.49 -5.5,3.35 c -2,1.22 -3.2,1.98 -3.6,2.44 -0.5,0.46 -1,0.92 -1.1,1.37 -0.2,0.46 -0.3,1.22 -0.3,2.29 l 0,0.92 10.3,0 0,4.42 z m -14.5,-4.58 0,-3.35 c 0,-2.13 -0.1,-3.51 -0.3,-4.12 -0.1,-0.61 -0.6,-0.91 -1.1,-1.22 -0.4,-0.3 -1,-0.46 -1.8,-0.46 -0.9,0 -1.5,0.16 -2,0.61 -0.4,0.46 -0.9,0.92 -0.9,1.68 0,0.31 -0.1,1.53 -0.1,3.36 l 0,3.5 6.2,0 z m 5.2,15.41 1.5,-4.42 c 2.8,0.61 4.7,1.82 6.1,3.35 1.4,1.52 2,3.66 2,6.1 0,3.05 -1.1,5.49 -3.4,7.44 -2.2,2 -5.3,2.9 -9.3,2.9 -4.1,0 -7.3,-0.9 -9.6,-2.9 -2.2,-1.95 -3.5,-4.54 -3.5,-7.59 0,-2.75 0.9,-5.04 2.8,-6.71 1,-1.07 2.6,-1.83 4.6,-2.29 l 1.2,4.57 c -1.2,0.31 -2.3,0.77 -3.1,1.68 -0.7,0.92 -1,1.83 -1,3.05 0,1.68 0.6,3.05 1.9,4.12 1.4,1.07 3.5,1.57 6.4,1.57 3.2,0 5.4,-0.5 6.8,-1.57 1.3,-1.07 1.9,-2.44 1.9,-3.97 0,-1.22 -0.4,-2.28 -1.2,-3.2 -0.7,-0.91 -2.3,-1.68 -4.1,-2.13 z m 9.3,26.07 -25,0 0,-4.6 25,0 0,4.6 z m 0,28.8 -25,0 0,-6.8 17.1,-4.2 -17.1,-4.1 0,-6.8 25,0 0,4.2 -19.7,0 19.7,4.6 0,4.4 -19.7,4.5 19.7,0 0,4.2 z m -85.9,-111.15 -7.3,0 -26.4,0 -14,61.92 -15.7,-61.92 -27.6,0 -4.1,0 -33.1,0 0,69.85 -26.5,-69.69 -57.7,0 -27.1,73.19 C 387.8,97.46 371.7,91.97 371.7,91.97 396.1,84.65 400.9,67.27 395.8,51.1 389.6,31.12 345.4,33.11 345.4,33.11 l -69,-0.16 6.9,18.76 c 0,0 -26.2,-6.25 -42.6,3.81 -16.3,10.07 -22.1,25.01 -16.6,41.48 5.8,17.4 20.2,19.8 24,19.8 3.8,0 16.3,-5.5 16.3,-5.5 l -8.9,-27.41 36.5,-9 14,48.21 c 0,0 -4.4,11.4 -42.2,21.3 l 63.1,0 0,-41 c 0,0 4.3,0 11,0 12.9,0 14.2,11.3 14.2,11.3 l 0,29.7 67.4,0 8.5,-23.9 36,0 8.5,24.8 30.4,0 0,0 37.2,0 0,-85.2 24.2,85.1 33.9,0 25.5,-86.93 0,86.93 37.2,0 0,-112.09 -29.8,0 z m -304.2,50.18 0,-25.93 c 0,0 27.9,-4.57 27.9,11.29 0,0 3.4,17.69 -27.9,14.64 z m 108.1,10.52 12.8,-34.92 12.8,34.92 -25.6,0 z m -222.3,50.65 -1.1,0 c 0.5,0.1 0.8,0.1 1.1,0 z m -23.5,-15 c -9,-10.2 -14.6,-24.1 -14.5,-40.23 0,-10.06 4.1,-25.77 15.7,-39.04 l 0,-17.08 -37.2,0 0,79.35 -23,-79.35 -28.2,0 -32.06,0 -2.29,0 0,112.05 34.35,0 0,-80.63 23.6,79.93 27.5,0 34.7,0 2.5,0 21.2,0 c -8,-0.5 -21.4,-14.1 -22.3,-15 z M 433.5,93.65 M 4.978,32.96 l 43.012,0 0,112.14 -43.012,0 z M 733.9,26.55 c -5.3,0 -9.9,-4.58 -9.9,-9.91 0,-5.64 4.6,-9.915 9.9,-9.915 5.4,0 9.9,4.275 9.9,9.915 0,5.33 -4.5,9.91 -9.9,9.91 l 0,0 z m 0,1.37 c 6.3,0 11.5,-5.18 11.5,-11.44 0,-6.25 -5.1,-11.433 -11.5,-11.433 -6.2,0 -11.4,5.183 -11.4,11.433 0,6.41 5,11.44 11.4,11.44 l 0,0 z m 1.7,-10.98 c 2.4,0 4.3,-0.91 4.3,-3.35 0,-1.22 -0.6,-2.14 -1.6,-2.75 -0.9,-0.61 -2.1,-0.61 -3.3,-0.61 l -5.3,0 0,12.66 1.5,0 0,-5.95 3,0 3.7,5.95 1.8,0 -4.1,-5.95 0,0 z m -4.4,-1.22 0,-4.57 3.6,0 c 1.9,0 3.4,0.3 3.4,2.44 0,2.44 -2.7,2.13 -4.6,2.13 l -2.4,0 0,0 z"  /> </svg>