<svg  xmlns="http://www.w3.org/2000/svg" width="512" height="120" viewBox="0 0 1124 286.7" class="partner silver">
  <path class="logotype logotext" d="m 365.7,231 c 0,-1 17.7,-113 18.4,-116 0.3,-2 2,-3 12.4,-8 6.7,-4 12.3,-7 12.6,-7 0.3,0 -4.3,-4 -10,-8 -9.8,-6 -10.6,-7 -10.3,-8 0.4,-2 3.3,-21 3.3,-21 0,0 21.8,0 48.5,0 l 48.5,0 4.5,2 c 2.4,1 5.6,3 6.9,4 3.3,3 6.7,8 8.1,13 2.3,6 2.2,8 -2.6,38 -3.9,24 -4.9,29 -6.5,33 -4.3,10 -13.8,20 -23.7,23 -6.6,2 -8.5,3 -32.3,2 -19.3,0 -24.1,0 -27.2,-1 -2.1,0 -3.9,0 -4.1,0 -0.1,0 -1.7,10 -3.4,21 l -3.1,22 -12.7,4 c -6.9,2 -15.9,5 -19.9,6 -6.2,2 -7.4,2 -7.4,1 z M 456,155 c 2.6,-2 5.7,-5 7,-7 1.5,-3 9.3,-52 8.7,-55 -0.4,-3 -2.7,-5 -5.4,-7 -1.6,-1 -4.2,-1 -20.6,-1 -15.1,0 -18.8,0 -19,1 -0.3,0 -11.1,68 -11.1,69 0,0 4.2,1 19.2,1 16.5,0 19.5,0 21.2,-1 z M 73.52,179 c -17.5,-1 -18.7,-1 -18.5,-2 0.2,0 2.6,-15 5.3,-32 2.7,-17 5.2,-31 5.6,-32 0.3,0 6.1,-3 12.8,-7 l 12.2,-6 -3.5,-3 c -1.9,-1 -6.6,-4 -10.5,-7 -3.9,-2 -7.1,-5 -7.1,-5 0,0 3,-19 3.4,-21 l 0.3,-1 18.9,0 c 12.28,-1 18.78,0 18.78,0 0,2 -18.28,115 -18.58,116 -0.1,0 -8.7,0 -19.1,0 z m 35.28,-1 c 0,0 18,-113 18.3,-114 0.3,-2 0.6,-2 45.5,-1 l 45.2,0 4.7,2 c 5.9,3 10.5,8 13.3,13 2.8,6 3.4,11 2.3,19 -0.6,5 -11.2,72 -12.5,80 l -0.3,2 -18.9,0 c -10.4,0 -18.9,0 -18.9,0 0,-1 3,-19 6.6,-42 3.9,-25 6.5,-43 6.3,-44 -0.4,-2 -2.9,-6 -5.3,-7 -1.6,-1 -4.1,-1 -17.3,-1 -12.2,0 -15.4,0 -15.9,1 -0.4,0 -3.7,20 -7.4,43 -3.7,24 -7.1,45 -7.4,46 l -0.5,4 -18.9,0 c -10.4,0 -18.9,0 -18.9,-1 z m 132.8,0 c 0,-1 0.7,-6 1.6,-12 l 1.7,-10 37.1,0 c 41.2,-1 38.7,0 42.7,-5 6.8,-7 4.5,-17 -4,-19 -1.5,0 -12.6,0 -24.7,0 -19.9,0 -22.3,0 -25.6,-1 -6.6,-3 -12.3,-7 -15.9,-13 -4.9,-9 -4.8,-22 0.2,-32 4.1,-8 10.9,-15 18.7,-19 8.7,-4 7.9,-4 58.1,-4 l 44.7,0 -1.8,11 -1.8,11 -36.6,0 c -36.3,0 -36.6,0 -39,1 -1.4,1 -3.4,3 -4.5,4 -5.3,6 -4.8,13 1.1,17 1.9,2 2.5,2 26.1,2 22.9,0 24.3,0 28.2,2 7.9,2 15.3,10 17.7,18 1.6,5 1.5,15 -0.3,20 -4.4,13 -13,22 -26,27 l -4.5,2 -46.7,0 c -46.3,1 -46.6,1 -46.5,0 z m 342.3,0 c -50.2,0 -46.4,0 -53.6,-4 -8.3,-6 -13.5,-16 -12.5,-26 0.3,-4 12.7,-82 13.3,-84 0.2,-2 0.7,-2 19.2,-1 l 18.9,0 -0.3,1 c -1.5,7 -12.9,81 -12.7,83 0.3,3 1.7,5 4.6,7 1.9,2 2.4,2 18.1,2 l 16,0 0.4,-2 c 0.3,-1 13.8,-87 14.3,-90 l 0.1,-1 18.9,0 c 10.2,0 18.6,0 19.2,0 0,0 -18.6,115 -18.6,115 0,1 -20.5,1 -45.3,0 z m 62.1,0 c -0.6,0 13.2,-84 13.9,-87 4.8,-12 13.8,-22 27,-26 l 4.8,-2 29.4,0 c 16.8,-1 30,-1 30,-1 0,1 -2.4,5 -5.4,10 -3,5 -6,10 -6.6,11 l -1.2,2 -15.6,0 c -13.8,0 -15.6,0 -17.4,1 -3,2 -6,5 -7.2,7 -0.6,1 -3.6,19 -7.2,44 l -7.2,42 -18.6,0 c -10.3,0 -18.7,0 -18.7,-1 z m 186.7,0 c -2.4,0 -6,-3 -7.2,-5 -0.6,-2 -1.2,-6 -1.2,-56 l 0,-54 16.2,0 16.8,-1 0,-3 0,-4 10.8,0 11.4,0 0,4 0.6,3 12.6,1 c 7.8,0 12.6,0 13.8,1 1.8,1 4.8,5 5.4,7 0.6,2 0.6,9 0.6,21 -0.6,20 -0.6,20 -3.6,23 -3.6,3 -3.6,3 -33.6,3 l -28.2,0 0,3 0,3 7.8,0 7.2,0 7.2,7 6.6,7 3,-3 c 1.2,-1 4.8,-4 6.6,-7 l 4.2,-4 11.4,0 c 7.2,0 11.4,0 11.4,0 -0.6,2 -9,12 -15.6,19 l -7.8,8 16.2,14 16.2,14 -15,0 -14.4,0 -14.4,-14 c -7.8,-8 -17.4,-18 -21.6,-23 -4.2,-4 -7.8,-9 -8.4,-9 -1.2,-1 -1.2,32 0,34 1.2,1 1.8,1 9,1 l 8.4,1 -1.8,5 -2.4,5 -13.2,0 c -7.2,0 -13.8,0 -15,-1 z m 55.8,-72 c 1.2,-1 1.2,-2 1.2,-15 0,-13 0,-15 -1.2,-16 -0.6,-2 -0.6,-2 -21,-2 l -20.4,0 0,6 0,6 18,0 c 9.6,0 17.4,1 17.4,1 0,0 -0.6,2 -1.8,5 l -1.2,5 -16.2,0 -16.2,0 0,6 0,6 20.4,0 c 19.2,0 19.8,0 21,-2 z m 157.5,68 0,-6 3,0 c 2,0 3,0 4,-1 1,-1 1,-2 1,-17 l 0,-15 -6,0 -7,0 0,5 c 0,3 0,11 -1,18 0,7 0,13 0,14 0,1 -1,2 -8,4 -3,1 -7,2 -7,2 0,0 0,-3 0,-7 0,-4 0,-15 1,-24 0,-9 0,-21 0,-26 0,-6 0,-18 0,-27 l 0,-16 8,0 7,0 0,7 0,8 7,0 6,0 0,-10 0,-10 -14,0 -14,0 0,-5 0,-6 19,1 c 18,0 19,0 21,1 0,1 1,2 2,3 1,2 1,5 1,53 0,55 0,52 -3,56 -3,2 -6,3 -14,3 l -6,0 0,-5 z m 8,-60 0,-10 -6,0 -7,0 0,10 0,10 7,0 6,0 0,-10 z m -269.9,53 0,-12 6,-4 c 6,-5 16.8,-15 22.8,-22 l 3.6,-4 -0.6,14 0,13 -6,6 c -7.8,8 -24,20 -25.2,20 -0.6,0 -0.6,-5 -0.6,-11 z m 147.4,0 0,-12 4,-4 c 5,-3 20,-18 25,-23 l 2,-3 0,14 0,14 -7,6 c -8,7 -19,16 -23,18 l -1,2 0,-12 z m 55,2 0,-10 -8,0 -8,0 0,-5 0,-5 8,-1 8,0 0,-5 0,-6 -7,0 -9,0 0,-27 0,-27 8,-1 8,0 0,-4 0,-5 -7,0 -9,0 0,-5 0,-5 8,0 8,-1 0,-3 0,-4 8,0 7.5,0 0,4 1,3 7,0 8,0 0,6 0,5 -8,0 -8,0 0,5 0,4 5,1 c 5,0 7,1 9,4 1,1 2,2 2,26 l 0,24 -8,0 -8,0 0,6 0,5 8,0 8,0 0,6 0,5 -8,0 -8,0 0,7 0,7 -7.5,3 c -3,1 -7,2 -7,2 -1,0 -1,-4 -1,-9 z m 16.5,-48 0,-6 -8.5,0 -8,0 0,6 0,5 8,0 8.5,0 0,-5 z m 0,-22 0,-6 -8.5,0 -8,0 0,5 c 0,3 0,5 0,6 0,1 2,1 8,1 l 8.5,-1 0,-5 z m -190.1,19 c -4.2,-3 -18,-11 -23.4,-13 l -5.4,-3 0,-9 c 0,-6 0,-10 0.6,-10 1.2,0 18,9 24.6,13 l 6.6,4 0,10 c 0,5 0,10 0,10 0,0 -1.8,-1 -3,-2 z m 143.6,-2 c -4,-2 -11,-6 -16,-9 l -10,-5 0,-10 0,-10 10,6 c 6,2 13,6 16,8 l 6,4 0,10 c 0,5 0,10 0,10 0,0 -3,-2 -6,-4 z M 809.9,88 c -3.6,-2 -10.8,-6 -16.2,-9 l -9.6,-5 0,-9 0,-10 9.6,5 c 4.8,2 12,6 15.6,9 l 6.6,4 0,9 c 0,6 0,10 0,10 0,0 -3,-2 -6,-4 z m 146.6,0 c -3,-2 -10,-6 -16,-8 l -10,-6 0,-9 0,-10 10,5 c 6,3 13,7 16,9 l 6,4 0,9 c 0,6 0,10 0,10 0,0 -3,-2 -6,-4 z"></path>
</svg>