<?xml version="1.0"?>

<!-- Generator: Adobe Illustrator 19.1.0, SVG Export Plug-In . SVG Version: 6.00 Build 0)  -->
<svg version="1.1" id="Layer_1" xmlns="http://www.w3.org/2000/svg" xmlns:xlink="http://www.w3.org/1999/xlink" x="0px" y="0px" width="600px" height="200px" viewBox="0 0 600 200" enable-background="new 0 0 600 200" xml:space="preserve">
<path d="M225.127,97.728c0,9.504-0.105,17.354,0.054,25.198c0.06,2.965-0.381,4.363-3.94,4.424
	c-12.133,0.208-12.13,0.374-12.13-11.886c0-12.694,0.151-25.392-0.091-38.081c-0.072-3.853,1.224-4.417,4.824-4.853
	c8.229-0.996,13.606,1.589,17.539,9.118c3.407,6.523,8.186,12.33,13.37,19.938c0-9.491,0.117-17.263-0.06-25.027
	c-0.066-2.933,0.715-3.87,3.805-3.94c12.274-0.279,12.271-0.407,12.271,11.672c0,12.886-0.085,25.774,0.06,38.659
	c0.035,3.118-0.735,4.101-4.082,4.44c-8.41,0.852-14.472-1.054-18.442-9.477C235.156,111.229,230.225,105.384,225.127,97.728z"></path>
<path d="M309.757,128.07c-13.97,0.134-20.444-3.506-23.817-12.862c-1.569-4.35-1.519-7.106,4.238-6.659
	c2.096,0.163,4.27,0.109,6.334-0.26c3.133-0.562,4.779,0.196,5.66,3.569c0.835,3.196,3.6,4.951,6.955,5.223
	c3.62,0.293,7.396-0.034,8.359-4.276c0.955-4.206-2.487-5.602-5.722-6.58c-5.323-1.61-10.838-2.55-15.914-5.007
	c-5.95-2.88-9.502-7.503-9.118-14.094c0.39-6.694,4.096-11.564,10.632-13.712c8.477-2.786,17.009-2.718,25.481,0.186
	c2.43,0.834,4.464,2.288,6.056,4.269c2.085,2.592,4.355,5.822,3.43,8.836c-0.982,3.202-5.048,1.586-7.687,1.879
	c-3.905,0.435-8.348,1.794-10.25-4.162c-0.734-2.298-4.099-2.635-6.685-2.376c-2.177,0.219-4.313,0.963-4.731,3.458
	c-0.472,2.826,1.897,3.571,3.877,4.147c4.239,1.234,8.608,2.037,12.826,3.338c10.818,3.336,15.716,9.222,14.996,17.677
	c-0.8,9.391-7.91,16.104-18.573,17.374C314.016,128.284,311.874,128.07,309.757,128.07z"></path>
<path d="M360.801,111.827c2.489-7.682,4.688-13.817,6.422-20.081c0.945-3.413,2.678-4.341,6.09-4.293
	c9.417,0.133,9.36-0.011,12.413,9c1.578,4.659,2.601,9.547,5.329,14.373c1.654-6.48,3.447-12.338,4.569-18.322
	c0.76-4.051,2.523-5.181,6.566-5.073c9.903,0.265,9.921,0.046,6.403,9.548c-2.931,7.918-6.272,15.711-8.708,23.778
	c-1.532,5.07-3.796,6.818-9.237,6.725c-5.417-0.092-8.391-1.274-9.578-6.925c-1.09-5.186-3.205-10.157-5.227-16.315
	c-2.322,7.061-4.398,13.031-6.226,19.077c-0.818,2.706-1.925,4.008-5.119,4.031c-10.105,0.074-10.1,0.245-13.617-9.228
	c-3.716-10.009-7.436-20.017-11.166-30.061c0.854-0.25,1.216-0.431,1.586-0.452c13.27-0.717,13.272-0.714,16.48,12.091
	C358.667,103.23,359.54,106.762,360.801,111.827z"></path>
<path d="M549.717,91.527c2.521-1.558,4.048-2.728,5.751-3.515c10.535-4.871,20.323,0.834,20.881,12.416
	c0.379,7.872,0.017,15.777,0.193,23.663c0.057,2.597-0.906,3.102-3.307,3.244c-12.421,0.73-12.409,0.806-12.421-11.529
	c-0.003-3.655,0.039-7.315-0.128-10.963c-0.142-3.093-1.045-5.856-4.88-5.876c-3.826-0.02-5.629,2.481-5.816,5.862
	c-0.316,5.757-0.451,11.549-0.183,17.303c0.18,3.862-0.707,5.32-4.939,5.249c-10.627-0.179-10.63,0.048-10.63-10.468
	c0-13.085,0.168-26.175-0.099-39.254c-0.085-4.132,1.22-5.116,5.178-5.047c10.401,0.182,10.404-0.009,10.404,10.669
	C549.717,85.753,549.717,88.225,549.717,91.527z"></path>
<path d="M526.418,113.373c-4.075,12.512-14.192,17.334-29.554,14.466c-10.311-1.925-16.195-8.833-16.329-19.172
	c-0.154-11.891,5.173-19.081,15.817-21.345c5.546-1.18,11.054-1.002,16.556,0.348c3.261,0.8,6.113,2.33,8.439,4.702
	c2.034,2.076,4.48,4.813,3.732,7.385c-0.584,2.008-4.361,1.58-6.773,1.788c-3.361,0.29-7.283,2.296-9.34-2.603
	c-0.267-0.636-1.62-0.925-2.526-1.165c-4.338-1.154-7.55,0.382-9.499,4.357c-2.529,5.159-1.145,12.268,2.99,14.532
	c4.068,2.228,7.993,1.724,10.499-2.424c1.404-2.325,3.084-2.492,5.272-2.21C519.124,112.468,522.55,112.888,526.418,113.373z"></path>
<path d="M464.571,72.524c0,2.97,0.099,5.081-0.02,7.18c-0.257,4.572-0.845,8.531,6.348,8.144c4.261-0.23,1.536,4.557,2.085,6.999
	c0.427,1.906,0.618,4.762-2.8,4.222c-5.307-0.835-6.136,1.857-5.662,6.23c0.288,2.663-0.017,5.384,0.123,8.07
	c0.126,2.424,1.279,4.212,4.005,3.669c6.531-1.301,3.709,4.118,4.652,6.583c1.405,3.674-1.615,4.07-4.108,4.296
	c-2.865,0.26-5.764,0.342-8.639,0.262c-7.229-0.203-10.88-3.788-11.176-11.123c-0.193-4.802-0.099-9.618-0.028-14.426
	c0.032-2.122-0.017-3.668-2.937-3.568c-4.959,0.168-2.64-3.808-2.709-5.907c-0.068-2.063-2.067-5.911,2.94-5.636
	c1.137,0.063,2.822,0.015,2.537-1.486c-1.475-7.779,5.289-8.052,9.476-10.629C460.257,74.421,462.045,73.74,464.571,72.524z"></path>
<path d="M199.699,100.342c0,7.674-0.108,15.35,0.057,23.022c0.062,2.84-0.529,3.913-3.719,4.002
	c-13.168,0.373-13.165,0.507-13.165-12.47c0-12.663,0.088-25.326-0.06-37.987c-0.037-3.153,0.761-4.238,4.132-4.293
	c12.758-0.211,12.757-0.35,12.757,12.185C199.701,89.981,199.699,95.161,199.699,100.342z"></path>
<path d="M434.325,107.38c0,5.369-0.171,10.744,0.065,16.102c0.137,3.091-0.974,3.774-3.91,3.843
	c-11.401,0.27-11.398,0.384-11.398-10.715c0-8.245,0.196-16.495-0.089-24.731c-0.126-3.671,1.122-4.429,4.555-4.427
	c10.777,0.002,10.777-0.148,10.777,10.724C434.325,101.245,434.325,104.313,434.325,107.38z"></path>
<path d="M42.469,127.07c0.831,6.449,4.834,11.891,5.807,18.295c-7.616,0-15.232,0-24.287,0
	C30.611,138.808,36.539,132.938,42.469,127.07z"></path>
<path d="M426.653,83.173c-3.612-0.411-8.155,1.912-7.764-4.959c0.248-4.37,1.145-6.286,5.676-5.539
	c1.299,0.214,2.663,0.031,3.997,0.034c5.161,0.011,8.189,4.606,5.577,9.134C432.395,84.868,428.891,82.316,426.653,83.173z"></path>
<g>
	<path d="M75.525,86.747c-1.234-1.254-2.658-1.33-4.213-1.319c-9.616,0.071-19.234,0.125-28.852,0.185c-5.869,0-11.737,0-17.049,0
		c4.077,4.49,8.262,9.098,12.447,13.706c0,0,0,0.001,0,0.001c5.24,5.414,10.479,10.829,15.719,16.243
		c16.702-0.022,33.402-0.042,50.101-0.063C95.047,105.176,84.93,96.31,75.525,86.747z"></path>
	<path d="M53.577,115.563c-3.702,3.836-7.405,7.671-11.109,11.507c0.831,6.449,4.836,11.891,5.807,18.295
		c3.646,0.054,7.311-0.108,10.935,0.202c9.357,0.8,17.548-0.156,24.062-8.579c6.013-7.776,14.666-13.29,20.408-21.487
		C86.978,115.521,70.277,115.543,53.577,115.563z"></path>
</g>
<path d="M36.764,70.35c1.808,4.104,4.013,8.06,4.7,12.581c-5.474,0-10.949,0-17.144,0C28.294,78.066,32.263,73.958,36.764,70.35z"></path>
<g>
	<path d="M74.962,23.675c-0.905-0.937-2.09-0.834-3.218-0.828c-10.9,0.059-21.8,0.137-32.7,0.21
		c0.101,0.547,0.133,1.073,0.109,1.582c0.023-0.509-0.008-1.034-0.109-1.581c-4.765-0.242-9.535-0.599-15.061,0.29
		c4.259,4.055,7.941,7.557,11.621,11.06c0,0,0-0.001,0-0.001c6.087,6.196,12.174,12.393,18.261,18.589
		c16.608,0.014,33.216,0.026,49.825,0.037C95.187,42.198,84.47,33.527,74.962,23.675z"></path>
	<path d="M36.766,70.35c1.806,4.104,4.013,8.058,4.7,12.581c5.36,0.06,10.718,0.185,16.076,0.163
		c8.855-0.037,18.554,2.367,24.003-7.99c0.136-0.257,0.752-0.219,1.006-0.462c7.261-6.99,14.84-13.674,21.139-21.607
		c-16.608-0.012-33.216-0.026-49.824-0.039C48.166,58.781,42.464,64.565,36.766,70.35z"></path>
</g>
<g>
	<path d="M127.655,146.795c-16.703-0.035-33.407-0.071-50.11-0.106c0.019,0.347-0.106,0.837,0.076,1.02
		c9.239,9.248,18.527,18.446,27.739,27.719c1.395,1.404,2.965,1.536,4.722,1.519c10.189-0.103,20.377-0.182,30.567-0.268
		c-0.075-4.585,3.494-8.151,3.54-12.701C138.677,158.25,133.166,152.523,127.655,146.795z"></path>
	<path d="M143.354,130.252c-0.484-4.323-3.563-7.858-3.725-12.279c-0.86-0.384-1.718-1.091-2.581-1.099
		c-9.402-0.077-18.805-0.028-28.209-0.06c-1.466-0.005-2.575,0.562-3.554,1.561c-9.245,9.439-18.491,18.876-27.737,28.314
		c16.703,0.035,33.407,0.071,50.11,0.106C132.619,141.026,138.836,136.446,143.354,130.252z"></path>
	<path d="M144.189,163.978c-0.048,4.551-3.617,8.118-3.541,12.701c5.175,0,10.35,0,14.914,0
		C151.81,172.488,147.999,168.233,144.189,163.978z"></path>
</g>
<g>
	<path d="M144.251,66.941C144.251,66.941,144.25,66.941,144.251,66.941c4.587-3.568,8.592-7.693,12.694-12.533
		c-6.655,0-12.554,0-18.454,0c-9.595-0.06-19.191-0.119-28.785-0.183c-1.538-0.011-3.003-0.029-4.221,1.261
		c-9.182,9.727-19.386,18.457-27.981,28.759c16.731,0.029,33.461,0.055,50.192,0.083C133.212,78.533,138.731,72.737,144.251,66.941z
		"></path>
	<path d="M144.275,101.4c-5.526-5.691-11.054-11.381-16.58-17.072c-16.731-0.028-33.461-0.055-50.192-0.083
		c8.682,10.428,18.802,19.445,28.398,28.978c1.284,1.276,2.771,1.111,4.273,1.103c10.157-0.048,20.313-0.122,30.47-0.187
		c5.219,0,10.439,0,15.788,0c-4.249-4.452-8.203-8.598-12.157-12.741C144.275,101.4,144.275,101.4,144.275,101.4z"></path>
</g>
<path d="M143.354,130.254c-0.484-4.323-3.563-7.859-3.725-12.279c5.233,0,10.467,0,16.913,0
	C151.617,122.561,147.485,126.407,143.354,130.254z"></path>
</svg>
