<svg  xmlns="http://www.w3.org/2000/svg" viewBox=" 0 0 293 194" height="194" width="293">
  <path d="m 252.2,45.15 q 1.4,0 2.6,0.66 1.2,0.67 1.9,1.89 0.7,1.23 0.7,2.57 0,1.32 -0.7,2.54 -0.6,1.23 -1.9,1.9 -1.2,0.67 -2.6,0.67 -1.4,0 -2.6,-0.67 -1.2,-0.67 -1.9,-1.9 -0.7,-1.22 -0.7,-2.54 0,-1.34 0.7,-2.57 0.7,-1.22 1.9,-1.89 1.3,-0.66 2.6,-0.66 z m 0,0.85 q -1.1,0 -2.2,0.56 -1,0.54 -1.6,1.58 -0.6,1.02 -0.6,2.13 0,1.1 0.6,2.12 0.6,1.01 1.6,1.59 1,0.55 2.2,0.55 1.2,0 2.2,-0.55 1,-0.58 1.6,-1.59 0.6,-1.02 0.6,-2.12 0,-1.11 -0.6,-2.13 -0.6,-1.04 -1.6,-1.58 Q 253.3,46 252.2,46 Z m -2.3,7.1 0,-5.5 1.9,0 q 1.1,0 1.5,0.14 0.5,0.16 0.7,0.54 0.3,0.37 0.3,0.81 0,0.59 -0.5,1.05 -0.4,0.44 -1.2,0.49 0.4,0.13 0.6,0.3 0.3,0.33 0.8,1.09 l 0.7,1.08 -1.1,0 -0.5,-0.87 q -0.7,-1.02 -1.1,-1.28 -0.2,-0.19 -0.7,-0.19 l -0.5,0 0,2.34 -0.9,0 z m 0.9,-3.1 1.1,0 q 0.8,0 1.1,-0.23 0.3,-0.24 0.3,-0.61 0,-0.25 -0.1,-0.44 -0.1,-0.19 -0.5,-0.28 -0.2,-0.1 -0.9,-0.1 l -1,0 0,1.66 z M 98.59,82.33 c 4.41,0 6.21,2.17 6.21,5.72 l 0,41.75 15.1,0 0,-41.81 c 0,-8.49 -4.5,-17.86 -17.7,-17.86 l -31.06,0 0,59.67 15,0 0,-47.47 M 188.5,81.59 c -5.2,0 -9.1,2.66 -10.8,6.26 -1,2.17 -1.3,3.82 -1.5,6.49 l 23.3,0 c -0.4,-6.52 -3.4,-12.75 -11,-12.75 m -12.3,23.01 c 0,7.7 4.9,13.4 13.4,13.4 6.6,0 10,-1.9 13.8,-5.7 l 9.3,9 c -6,5.8 -12.2,9.4 -23.2,9.4 -14.4,0 -28.2,-7.8 -28.2,-30.88 0,-19.61 12,-30.71 27.9,-30.71 15.9,0 25.1,13 25.1,30.02 l 0,5.47 -38.1,0 m -27.6,25.1 c -12.3,0 -17.5,-8.6 -17.5,-17 l 0,-58.86 15,0 0,16.29 11.4,0 0,12.2 -11.4,0 0,29.47 c 0,3.5 1.7,5.3 5.2,5.3 l 6.2,0 0,12.6 -8.9,0 M 42.58,47.41 l 15.16,0 0,14.42 -15.16,0 z m 15.16,22.72 -15.16,0 0,44.37 c 0,7.9 3.8,14.8 15.16,15.9 m 180.66,-85.05 -15.2,0 0,67.85 c 0,7.9 3.8,14.8 15.2,15.9 m 53,-74.05 C 277.5,-12.12 147.5,-16.37 63.75,34.8 l 0,5.66 C 147.4,-2.731 266.2,-2.456 277,59.42 c 3.7,20.5 -7.8,41.78 -28.4,54.08 l 0,16.1 c 24.8,-9.1 50,-38.52 42.8,-74.55 M 138.9,172.6 C 81.12,178 20.86,169.6 12.43,124.3 8.232,101.9 18.43,78.19 31.89,63.48 l 0,-7.87 C 7.625,76.96 -5.552,104 2.056,135.8 c 9.704,41 61.414,64.1 140.344,56.4 31.3,-3 72.2,-13.1 100.5,-28.8 l 0,-22.2 c -25.7,15.4 -68.4,28.2 -104,31.4 z" class="logotype logotext"></path>
</svg>
