<?xml version="1.0"?>

<!-- Generator: Adobe Illustrator 19.1.0, SVG Export Plug-In . SVG Version: 6.00 Build 0)  -->
<svg version="1.1" id="Layer_1" xmlns="http://www.w3.org/2000/svg" xmlns:xlink="http://www.w3.org/1999/xlink" x="0px" y="0px" width="518px" height="200px" viewBox="-40 0 518 200" enable-background="new -40 0 518 200" xml:space="preserve">
<path d="M130.021,88.332h9.519v47.065h-9.519V88.332z"></path>
<path d="M179.438,135.396h-9.018v-17.394c0-3.678-0.189-6.056-0.572-7.138c-0.383-1.079-1.008-1.919-1.868-2.517
	c-0.861-0.601-1.904-0.899-3.118-0.899c-1.55,0-2.941,0.422-4.185,1.285c-1.226,0.858-2.075,1.992-2.534,3.395
	c-0.46,1.412-0.684,4.029-0.684,7.836v15.431h-9.012v-34.098h8.334v5.004c2.965-3.84,6.708-5.759,11.217-5.759
	c1.981,0,3.796,0.354,5.44,1.079c1.65,0.713,2.894,1.627,3.737,2.747c0.843,1.105,1.432,2.367,1.762,3.775
	c0.33,1.42,0.501,3.439,0.501,6.074V135.396z"></path>
<path d="M204.246,101.299v7.156h-6.148v13.807c0,2.806,0.053,4.43,0.171,4.895c0.118,0.457,0.377,0.843,0.79,1.143
	c0.407,0.301,0.902,0.454,1.497,0.454c0.813,0,2.004-0.295,3.56-0.872l0.802,7.008c-2.086,0.908-4.438,1.356-7.073,1.356
	c-1.615,0-3.071-0.277-4.362-0.825c-1.297-0.551-2.246-1.255-2.847-2.128c-0.607-0.875-1.031-2.045-1.261-3.528
	c-0.189-1.052-0.289-3.183-0.289-6.386v-14.924h-4.12v-7.156h4.12v-6.737l9.012-5.305v12.042H204.246z"></path>
<path d="M230.251,124.622l9.006,1.521c-1.155,3.292-2.977,5.803-5.47,7.518c-2.487,1.724-5.605,2.584-9.342,2.584
	c-5.918,0-10.297-1.945-13.144-5.823c-2.246-3.109-3.365-7.038-3.365-11.771c0-5.658,1.474-10.091,4.432-13.297
	c2.947-3.206,6.678-4.81,11.187-4.81c5.075,0,9.071,1.68,12,5.034c2.935,3.363,4.338,8.499,4.209,15.422h-22.569
	c0.065,2.688,0.79,4.774,2.175,6.262c1.379,1.491,3.1,2.24,5.169,2.24c1.403,0,2.576-0.377,3.537-1.155
	C229.037,127.581,229.762,126.337,230.251,124.622 M230.841,115.45c-0.065-2.617-0.737-4.603-2.027-5.965
	c-1.279-1.361-2.847-2.036-4.686-2.036c-1.963,0-3.589,0.71-4.874,2.148s-1.916,3.383-1.892,5.853
	C217.362,115.45,230.841,115.45,230.841,115.45z"></path>
<path d="M255.679,135.396h-9.012v-34.098h8.346v4.845c1.438-2.287,2.735-3.79,3.89-4.512c1.149-0.728,2.458-1.088,3.925-1.088
	c2.069,0,4.067,0.566,5.983,1.701l-2.823,7.854c-1.521-0.984-2.941-1.471-4.255-1.471c-1.267,0-2.334,0.351-3.218,1.043
	c-0.884,0.693-1.568,1.948-2.081,3.772c-0.507,1.824-0.754,5.632-0.754,11.42v10.534H255.679z"></path>
<path d="M279.161,135.396l-10.963-47.064h9.772l6.938,32.335l8.593-32.335h11.364l8.164,32.883l7.161-32.883h9.554l-11.281,47.064
	h-10.238l-9.26-35.188l-9.336,35.188H279.161z"></path>
<path d="M338.88,111.743l-8.075-1.521c0.92-3.286,2.511-5.723,4.768-7.309c2.252-1.577,5.599-2.37,10.05-2.37
	c4.032,0,7.044,0.477,9.018,1.432c1.986,0.949,3.365,2.157,4.167,3.619c0.808,1.473,1.22,4.161,1.22,8.075l-0.171,10.533
	c0,2.988,0.135,5.204,0.419,6.628c0.289,1.423,0.813,2.944,1.591,4.568h-8.924c-0.23-0.586-0.525-1.456-0.866-2.608
	c-0.153-0.524-0.254-0.866-0.312-1.038c-1.545,1.497-3.195,2.623-4.945,3.371c-1.757,0.74-3.625,1.12-5.617,1.12
	c-3.507,0-6.277-0.955-8.293-2.864c-2.016-1.907-3.036-4.323-3.036-7.244c0-1.927,0.466-3.642,1.385-5.157
	c0.926-1.521,2.211-2.67,3.878-3.475c1.656-0.807,4.043-1.515,7.179-2.113c4.226-0.79,7.149-1.527,8.776-2.216v-0.908
	c0-1.733-0.424-2.971-1.297-3.713c-0.866-0.737-2.499-1.105-4.898-1.105c-1.633,0-2.894,0.315-3.802,0.952
	C340.177,109.038,339.452,110.149,338.88,111.743 M351.093,119.064c-1.161,0.395-2.994,0.849-5.511,1.397
	c-2.505,0.54-4.15,1.067-4.921,1.58c-1.179,0.84-1.78,1.91-1.78,3.2c0,1.276,0.483,2.373,1.432,3.295
	c0.937,0.931,2.14,1.397,3.607,1.397c1.621,0,3.183-0.542,4.656-1.621c1.096-0.813,1.815-1.821,2.163-3.006
	c0.236-0.772,0.354-2.252,0.354-4.427L351.093,119.064L351.093,119.064z"></path>
<path d="M377.363,135.396h-9.006v-34.098h8.334v4.845c1.444-2.287,2.741-3.79,3.89-4.512c1.161-0.728,2.475-1.088,3.943-1.088
	c2.063,0,4.055,0.566,5.971,1.701l-2.811,7.854c-1.538-0.984-2.947-1.471-4.261-1.471c-1.267,0-2.34,0.351-3.224,1.043
	c-0.872,0.693-1.574,1.948-2.075,3.772c-0.501,1.824-0.76,5.632-0.76,11.42v10.534H377.363z"></path>
<path d="M414.048,124.622l9.006,1.521c-1.149,3.292-2.971,5.803-5.464,7.518c-2.493,1.724-5.606,2.584-9.348,2.584
	c-5.918,0-10.303-1.945-13.138-5.823c-2.246-3.109-3.366-7.038-3.366-11.771c0-5.658,1.474-10.091,4.421-13.297
	c2.953-3.206,6.69-4.81,11.199-4.81c5.069,0,9.065,1.68,12.006,5.034c2.929,3.363,4.332,8.499,4.197,15.422h-22.557
	c0.059,2.688,0.778,4.774,2.163,6.262c1.385,1.491,3.1,2.24,5.163,2.24c1.414,0,2.587-0.377,3.537-1.155
	C412.834,127.581,413.559,126.337,414.048,124.622 M414.638,115.45c-0.065-2.617-0.737-4.603-2.022-5.965
	c-1.285-1.361-2.853-2.036-4.692-2.036c-1.963,0-3.584,0.71-4.869,2.148c-1.291,1.438-1.921,3.383-1.898,5.853
	C401.157,115.45,414.638,115.45,414.638,115.45z"></path>
<path d="M446.755,88.402c2.039,0,4.032,0.524,5.971,1.568c1.939,1.049,3.448,2.552,4.533,4.491c1.085,1.945,1.621,3.981,1.621,6.094
	c0,2.087-0.531,4.102-1.597,6.036c-1.061,1.927-2.564,3.425-4.485,4.497c-1.927,1.067-3.937,1.594-6.042,1.594
	c-2.098,0-4.12-0.528-6.041-1.594c-1.927-1.073-3.425-2.57-4.497-4.497c-1.067-1.933-1.603-3.949-1.603-6.036
	c0-2.113,0.536-4.149,1.627-6.094c1.091-1.939,2.611-3.442,4.551-4.491C442.729,88.927,444.716,88.402,446.755,88.402
	 M446.755,90.418c-1.703,0-3.36,0.436-4.981,1.309c-1.609,0.872-2.882,2.128-3.79,3.751c-0.908,1.63-1.356,3.318-1.356,5.078
	c0,1.745,0.442,3.419,1.332,5.028c0.902,1.603,2.151,2.85,3.76,3.748c1.609,0.89,3.289,1.344,5.034,1.344s3.425-0.454,5.039-1.344
	c1.609-0.899,2.853-2.145,3.743-3.748c0.89-1.609,1.332-3.283,1.332-5.028c0-1.759-0.448-3.448-1.356-5.078
	c-0.908-1.624-2.175-2.879-3.79-3.751C450.103,90.854,448.447,90.418,446.755,90.418 M441.421,107.293V94.179h4.503
	c1.538,0,2.647,0.124,3.342,0.371c0.69,0.242,1.232,0.66,1.639,1.261s0.619,1.244,0.619,1.921c0,0.955-0.342,1.786-1.026,2.499
	c-0.684,0.707-1.603,1.108-2.729,1.194c0.46,0.192,0.837,0.427,1.114,0.699c0.524,0.513,1.173,1.376,1.933,2.593l1.603,2.576h-2.57
	l-1.173-2.075c-0.919-1.615-1.656-2.635-2.21-3.053c-0.389-0.295-0.955-0.448-1.698-0.448h-1.25v5.576
	C443.518,107.293,441.421,107.293,441.421,107.293z M443.519,99.919h2.6c1.238,0,2.092-0.177,2.54-0.548
	c0.448-0.365,0.684-0.855,0.684-1.468c0-0.383-0.112-0.734-0.33-1.043c-0.218-0.306-0.525-0.542-0.908-0.69
	c-0.395-0.156-1.102-0.23-2.151-0.23h-2.434L443.519,99.919L443.519,99.919z"></path>
<path d="M70.072,43.094v30.909c0,15.732-0.513,27.532-1.521,35.406c-1.002,7.857-2.676,14.735-5.016,20.635
	c-2.346-5.791-4.026-12.784-5.028-20.989c-1.002-8.199-1.509-19.881-1.509-35.052V43.094H31.871v30.909
	c0,15.888-0.507,27.764-1.532,35.624c-0.649,4.992-1.562,9.546-2.753,13.674c0.984,3.607,3.696,12.107,9.684,23.046
	c1.126-2.346,2.157-4.68,3.106-7.002c1.515-3.74,2.888-7.53,4.102-11.382c1.049,3.592,2.381,7.267,3.984,11.037
	c1.592,3.766,3.425,7.648,5.47,11.644h23.099c6.413-8.765,11.046-18.867,13.887-30.325c2.853-11.453,4.279-26.382,4.279-44.784
	V43.094H70.072z"></path>
<path d="M25.265,130.044c-1.267-3.283-3.978-12.537-4.969-20.252c-0.996-7.721-1.485-19.648-1.485-35.789V43.094H-6.322v32.441
	c0,18.407,1.421,33.331,4.244,44.778c2.829,11.464,7.427,21.567,13.804,30.331h23.347C30.145,142.039,26.52,133.316,25.265,130.044"></path>
<path d="M-5.904,23.431c0,7.374,5.982,13.341,13.344,13.341c7.368,0,13.338-5.968,13.338-13.341c0-7.368-5.971-13.338-13.338-13.338
	C0.079,10.093-5.904,16.063-5.904,23.431"></path>
<path d="M-6.234,175.653l4.433-0.43c0.265,1.488,0.802,2.582,1.621,3.28c0.819,0.699,1.916,1.046,3.301,1.046
	c1.468,0,2.576-0.309,3.318-0.931c0.743-0.619,1.114-1.344,1.114-2.178c0-0.533-0.153-0.987-0.466-1.361
	c-0.318-0.374-0.86-0.701-1.644-0.976c-0.531-0.186-1.745-0.513-3.642-0.987c-2.44-0.604-4.156-1.347-5.146-2.231
	c-1.379-1.244-2.075-2.758-2.075-4.544c0-1.146,0.324-2.219,0.972-3.221c0.654-0.999,1.597-1.759,2.823-2.284
	c1.22-0.524,2.705-0.784,4.438-0.784c2.835,0,4.963,0.619,6.395,1.86s2.181,2.903,2.258,4.972l-4.556,0.2
	c-0.194-1.161-0.613-1.992-1.255-2.499c-0.642-0.513-1.603-0.766-2.888-0.766c-1.326,0-2.358,0.271-3.106,0.819
	c-0.483,0.348-0.725,0.813-0.725,1.397c0,0.536,0.224,0.99,0.678,1.373c0.572,0.48,1.969,0.984,4.185,1.509
	c2.216,0.519,3.861,1.061,4.916,1.621c1.067,0.56,1.892,1.323,2.493,2.293c0.601,0.972,0.902,2.169,0.902,3.595
	c0,1.291-0.36,2.505-1.079,3.631c-0.719,1.132-1.733,1.969-3.047,2.517c-1.309,0.548-2.947,0.825-4.904,0.825
	c-2.859,0-5.051-0.66-6.572-1.98C-5.025,180.1-5.939,178.182-6.234,175.653"></path>
<path d="M16.488,174.592c0-1.432,0.354-2.823,1.061-4.173c0.707-1.341,1.709-2.369,3.006-3.074c1.302-0.71,2.753-1.064,4.35-1.064
	c2.476,0,4.497,0.802,6.083,2.408c1.58,1.609,2.37,3.637,2.37,6.089c0,2.472-0.796,4.524-2.393,6.151
	c-1.597,1.624-3.601,2.434-6.03,2.434c-1.497,0-2.924-0.336-4.285-1.011c-1.361-0.678-2.393-1.671-3.1-2.979
	S16.488,176.473,16.488,174.592 M20.921,174.822c0,1.624,0.383,2.865,1.155,3.731c0.772,0.858,1.721,1.288,2.847,1.288
	c1.132,0,2.075-0.43,2.841-1.288c0.76-0.866,1.143-2.116,1.143-3.76c0-1.597-0.383-2.832-1.143-3.696
	c-0.766-0.86-1.709-1.291-2.841-1.291c-1.126,0-2.075,0.43-2.847,1.291C21.304,171.961,20.921,173.201,20.921,174.822"></path>
<path d="M38.32,160.434h4.321v22.563H38.32V160.434z"></path>
<path d="M59.41,182.997v-2.446c-0.595,0.869-1.379,1.562-2.346,2.063s-1.992,0.752-3.071,0.752c-1.096,0-2.081-0.239-2.953-0.725
	c-0.878-0.48-1.503-1.158-1.892-2.03c-0.395-0.866-0.589-2.075-0.589-3.619v-10.338h4.326v7.509c0,2.299,0.077,3.707,0.242,4.226
	c0.159,0.518,0.442,0.931,0.866,1.232c0.424,0.301,0.955,0.454,1.597,0.454c0.743,0,1.403-0.203,1.986-0.613
	c0.583-0.404,0.99-0.902,1.202-1.503c0.212-0.601,0.324-2.075,0.324-4.409v-6.896h4.326v16.344L59.41,182.997L59.41,182.997z"></path>
<path d="M83.734,171.486l-4.261,0.767c-0.147-0.849-0.471-1.491-0.978-1.922c-0.507-0.43-1.167-0.648-1.98-0.648
	c-1.079,0-1.934,0.371-2.576,1.12c-0.643,0.743-0.961,1.986-0.961,3.728c0,1.942,0.324,3.31,0.978,4.111
	c0.649,0.802,1.527,1.197,2.623,1.197c0.819,0,1.491-0.23,2.016-0.695c0.524-0.466,0.89-1.27,1.108-2.411l4.25,0.725
	c-0.442,1.951-1.291,3.421-2.546,4.415c-1.244,0.996-2.924,1.494-5.028,1.494c-2.393,0-4.297-0.752-5.717-2.261
	s-2.134-3.601-2.134-6.265c0-2.7,0.713-4.801,2.14-6.301c1.426-1.503,3.354-2.258,5.788-2.258c1.992,0,3.572,0.43,4.745,1.285
	C82.379,168.421,83.222,169.73,83.734,171.486"></path>
<path d="M88.591,160.434h4.326v3.996h-4.326V160.434z M88.591,166.653h4.326v16.344h-4.326V166.653z"></path>
<path d="M97.922,174.592c0-1.432,0.354-2.823,1.061-4.173c0.707-1.341,1.715-2.369,3.012-3.074c1.297-0.71,2.747-1.064,4.344-1.064
	c2.475,0,4.503,0.802,6.083,2.408c1.58,1.609,2.37,3.637,2.37,6.089c0,2.472-0.796,4.524-2.393,6.151
	c-1.592,1.624-3.601,2.434-6.03,2.434c-1.491,0-2.923-0.336-4.279-1.011c-1.367-0.678-2.399-1.671-3.106-2.979
	C98.275,178.064,97.922,176.473,97.922,174.592 M102.354,174.822c0,1.624,0.383,2.865,1.155,3.731
	c0.772,0.858,1.721,1.288,2.847,1.288c1.132,0,2.075-0.43,2.841-1.288c0.76-0.866,1.144-2.116,1.144-3.76
	c0-1.597-0.383-2.832-1.144-3.696c-0.766-0.86-1.709-1.291-2.841-1.291c-1.126,0-2.075,0.43-2.847,1.291
	C102.737,171.961,102.354,173.201,102.354,174.822"></path>
<path d="M134.625,182.997h-4.326v-8.34c0-1.768-0.094-2.906-0.277-3.427c-0.189-0.516-0.489-0.92-0.902-1.205
	c-0.413-0.289-0.92-0.433-1.503-0.433c-0.749,0-1.42,0.206-2.016,0.616c-0.595,0.413-1.002,0.952-1.22,1.63
	c-0.224,0.681-0.33,1.93-0.33,3.757v7.403h-4.326v-16.344h4.014v2.399c1.432-1.845,3.224-2.77,5.387-2.77
	c0.955,0,1.827,0.171,2.617,0.519c0.79,0.342,1.391,0.778,1.798,1.312c0.401,0.536,0.684,1.14,0.843,1.818s0.242,1.644,0.242,2.909
	v10.156H134.625z"></path>
<path d="M150.056,177.793l4.303,0.725c-0.554,1.58-1.427,2.782-2.623,3.607s-2.688,1.241-4.485,1.241
	c-2.841,0-4.945-0.928-6.313-2.785c-1.073-1.491-1.615-3.365-1.615-5.635c0-2.708,0.707-4.83,2.128-6.36
	c1.415-1.538,3.206-2.305,5.37-2.305c2.434,0,4.35,0.802,5.753,2.408c1.409,1.606,2.08,4.07,2.016,7.376h-10.834
	c0.03,1.291,0.377,2.284,1.049,3c0.666,0.713,1.497,1.073,2.487,1.073c0.678,0,1.25-0.189,1.715-0.56
	C149.466,179.21,149.814,178.618,150.056,177.793 M150.297,173.425c-0.03-1.252-0.354-2.204-0.973-2.858
	c-0.613-0.649-1.362-0.976-2.246-0.976c-0.943,0-1.721,0.345-2.34,1.035c-0.619,0.684-0.919,1.618-0.908,2.8h6.467L150.297,173.425
	L150.297,173.425z"></path>
<path d="M158.172,178.329l4.338-0.66c0.183,0.843,0.554,1.485,1.12,1.918c0.566,0.436,1.356,0.657,2.369,0.657
	c1.12,0,1.963-0.206,2.529-0.619c0.377-0.289,0.566-0.672,0.566-1.155c0-0.324-0.1-0.595-0.307-0.813
	c-0.212-0.206-0.695-0.395-1.444-0.572c-3.495-0.769-5.699-1.474-6.637-2.107c-1.291-0.881-1.939-2.107-1.939-3.675
	c0-1.42,0.56-2.605,1.68-3.575c1.12-0.964,2.853-1.447,5.198-1.447c2.24,0,3.902,0.365,4.987,1.091
	c1.09,0.731,1.845,1.809,2.252,3.236l-4.079,0.754c-0.177-0.636-0.507-1.126-0.996-1.462c-0.483-0.342-1.179-0.51-2.08-0.51
	c-1.143,0-1.957,0.162-2.452,0.474c-0.324,0.23-0.489,0.525-0.489,0.878c0,0.309,0.141,0.572,0.43,0.79
	c0.389,0.283,1.739,0.69,4.038,1.214c2.305,0.522,3.914,1.164,4.827,1.924c0.902,0.769,1.356,1.842,1.356,3.215
	c0,1.497-0.625,2.785-1.874,3.861c-1.256,1.079-3.106,1.615-5.564,1.615c-2.222,0-3.984-0.448-5.281-1.35
	C159.421,181.111,158.567,179.882,158.172,178.329"></path>
<path d="M193.442,160.434v8.293c1.397-1.63,3.059-2.446,4.998-2.446c1.002,0,1.898,0.186,2.694,0.554
	c0.802,0.371,1.409,0.843,1.815,1.418c0.401,0.575,0.678,1.211,0.825,1.907c0.153,0.701,0.224,1.783,0.224,3.248v9.59h-4.326v-8.635
	c0-1.715-0.077-2.8-0.242-3.266c-0.165-0.46-0.454-0.825-0.872-1.096c-0.419-0.277-0.931-0.413-1.562-0.413
	c-0.719,0-1.356,0.177-1.921,0.528c-0.566,0.345-0.978,0.875-1.238,1.577c-0.265,0.701-0.395,1.742-0.395,3.115v8.19h-4.326v-22.563
	h4.326V160.434z"></path>
<path d="M208.962,174.592c0-1.432,0.354-2.823,1.061-4.173c0.707-1.341,1.715-2.369,3.006-3.074c1.302-0.71,2.753-1.064,4.35-1.064
	c2.475,0,4.503,0.802,6.083,2.408c1.58,1.609,2.37,3.637,2.37,6.089c0,2.472-0.796,4.524-2.393,6.151
	c-1.597,1.624-3.601,2.434-6.03,2.434c-1.491,0-2.924-0.336-4.285-1.011c-1.356-0.678-2.393-1.671-3.1-2.979
	C209.315,178.064,208.962,176.473,208.962,174.592 M213.394,174.822c0,1.624,0.383,2.865,1.155,3.731
	c0.772,0.858,1.715,1.288,2.847,1.288s2.075-0.43,2.841-1.288c0.76-0.866,1.143-2.116,1.143-3.76c0-1.597-0.383-2.832-1.143-3.696
	c-0.766-0.86-1.709-1.291-2.841-1.291s-2.075,0.43-2.847,1.291C213.777,171.961,213.394,173.201,213.394,174.822"></path>
<path d="M245.659,182.997h-4.32v-8.34c0-1.768-0.1-2.906-0.283-3.427c-0.183-0.516-0.483-0.92-0.896-1.205
	c-0.418-0.289-0.913-0.433-1.503-0.433c-0.749,0-1.42,0.206-2.016,0.616c-0.595,0.413-1.002,0.952-1.226,1.63
	c-0.218,0.681-0.324,1.93-0.324,3.757v7.403h-4.326v-16.344h4.014v2.399c1.427-1.845,3.224-2.77,5.387-2.77
	c0.955,0,1.827,0.171,2.617,0.519c0.79,0.342,1.385,0.778,1.792,1.312c0.407,0.536,0.69,1.14,0.849,1.818s0.236,1.644,0.236,2.909
	v10.156H245.659z"></path>
<path d="M261.089,177.793l4.309,0.725c-0.554,1.58-1.432,2.782-2.623,3.607c-1.197,0.825-2.694,1.241-4.486,1.241
	c-2.841,0-4.951-0.928-6.313-2.785c-1.079-1.491-1.615-3.365-1.615-5.635c0-2.708,0.707-4.83,2.122-6.36
	c1.42-1.538,3.206-2.305,5.376-2.305c2.428,0,4.344,0.802,5.753,2.408s2.075,4.07,2.016,7.376h-10.834
	c0.03,1.291,0.377,2.284,1.043,3c0.672,0.713,1.503,1.073,2.493,1.073c0.678,0,1.25-0.189,1.709-0.56
	C260.506,179.21,260.854,178.618,261.089,177.793 M261.331,173.425c-0.024-1.252-0.348-2.204-0.967-2.858
	c-0.619-0.649-1.361-0.976-2.245-0.976c-0.943,0-1.721,0.345-2.34,1.035c-0.619,0.684-0.913,1.618-0.908,2.8h6.46V173.425z"></path>
<path d="M269.206,178.329l4.344-0.66c0.183,0.843,0.554,1.485,1.12,1.918c0.566,0.436,1.356,0.657,2.369,0.657
	c1.12,0,1.963-0.206,2.529-0.619c0.377-0.289,0.566-0.672,0.566-1.155c0-0.324-0.1-0.595-0.306-0.813
	c-0.218-0.206-0.696-0.395-1.45-0.572c-3.483-0.769-5.694-1.474-6.631-2.107c-1.291-0.881-1.939-2.107-1.939-3.675
	c0-1.42,0.56-2.605,1.68-3.575c1.114-0.964,2.853-1.447,5.198-1.447c2.24,0,3.902,0.365,4.987,1.091
	c1.09,0.731,1.833,1.809,2.246,3.236l-4.079,0.754c-0.171-0.636-0.507-1.126-0.99-1.462c-0.489-0.342-1.184-0.51-2.086-0.51
	c-1.137,0-1.951,0.162-2.446,0.474c-0.33,0.23-0.489,0.525-0.489,0.878c0,0.309,0.142,0.572,0.43,0.79
	c0.389,0.283,1.733,0.69,4.037,1.214c2.305,0.522,3.914,1.164,4.828,1.924c0.902,0.769,1.35,1.842,1.35,3.215
	c0,1.497-0.625,2.785-1.874,3.861c-1.255,1.079-3.106,1.615-5.558,1.615c-2.228,0-3.99-0.448-5.287-1.35
	C270.455,181.111,269.606,179.882,269.206,178.329"></path>
<path d="M297.332,166.653v3.448h-2.953v6.584c0,1.338,0.024,2.11,0.083,2.334c0.059,0.221,0.183,0.401,0.383,0.548
	c0.2,0.142,0.448,0.215,0.731,0.215c0.401,0,0.984-0.139,1.745-0.416l0.365,3.354c-1.002,0.43-2.14,0.642-3.419,0.642
	c-0.778,0-1.479-0.127-2.104-0.389c-0.625-0.262-1.085-0.601-1.379-1.014c-0.295-0.418-0.495-0.978-0.607-1.688
	c-0.094-0.498-0.141-1.518-0.141-3.047v-7.123h-1.986v-3.448h1.986V163.4l4.344-2.523v5.776L297.332,166.653L297.332,166.653z"></path>
<path d="M305.142,171.639l-3.925-0.71c0.442-1.577,1.202-2.75,2.275-3.51c1.084-0.757,2.682-1.138,4.804-1.138
	c1.927,0,3.365,0.23,4.314,0.684c0.937,0.454,1.603,1.037,1.992,1.742c0.383,0.702,0.578,1.995,0.578,3.87l-0.053,5.048
	c0,1.438,0.071,2.496,0.212,3.177c0.142,0.687,0.395,1.411,0.778,2.195h-4.279c-0.112-0.286-0.254-0.713-0.413-1.279
	c-0.077-0.253-0.13-0.425-0.159-0.507c-0.737,0.719-1.526,1.258-2.369,1.615c-0.837,0.359-1.739,0.536-2.694,0.536
	c-1.68,0-3.006-0.454-3.979-1.367c-0.967-0.908-1.456-2.066-1.456-3.46c0-0.926,0.224-1.751,0.66-2.47
	c0.448-0.728,1.061-1.282,1.857-1.662c0.796-0.389,1.945-0.725,3.442-1.014c2.016-0.377,3.425-0.731,4.203-1.058v-0.433
	c0-0.831-0.206-1.423-0.619-1.777c-0.406-0.351-1.185-0.534-2.322-0.534c-0.766,0-1.367,0.156-1.804,0.46
	C305.761,170.349,305.407,170.879,305.142,171.639 M310.93,175.146c-0.56,0.183-1.432,0.407-2.635,0.663
	c-1.197,0.256-1.986,0.51-2.352,0.754c-0.566,0.401-0.849,0.91-0.849,1.523c0,0.604,0.224,1.129,0.678,1.568
	c0.454,0.445,1.026,0.663,1.727,0.663c0.778,0,1.521-0.257,2.228-0.769c0.525-0.389,0.866-0.866,1.031-1.432
	c0.112-0.368,0.171-1.07,0.171-2.107v-0.863L310.93,175.146L310.93,175.146z"></path>
<path d="M319.495,178.329l4.344-0.66c0.177,0.843,0.554,1.485,1.12,1.918c0.566,0.436,1.356,0.657,2.37,0.657
	c1.114,0,1.957-0.206,2.529-0.619c0.377-0.289,0.566-0.672,0.566-1.155c0-0.324-0.1-0.595-0.307-0.813
	c-0.218-0.206-0.701-0.395-1.45-0.572c-3.483-0.769-5.7-1.474-6.631-2.107c-1.291-0.881-1.939-2.107-1.939-3.675
	c0-1.42,0.56-2.605,1.674-3.575c1.12-0.964,2.859-1.447,5.204-1.447c2.24,0,3.896,0.365,4.987,1.091
	c1.09,0.731,1.833,1.809,2.246,3.236l-4.079,0.754c-0.171-0.636-0.507-1.126-0.99-1.462c-0.489-0.342-1.179-0.51-2.087-0.51
	c-1.138,0-1.951,0.162-2.446,0.474c-0.33,0.23-0.495,0.525-0.495,0.878c0,0.309,0.142,0.572,0.436,0.79
	c0.389,0.283,1.733,0.69,4.038,1.214c2.299,0.522,3.908,1.164,4.822,1.924c0.908,0.769,1.356,1.842,1.356,3.215
	c0,1.497-0.625,2.785-1.874,3.861c-1.255,1.079-3.106,1.615-5.558,1.615c-2.228,0-3.99-0.448-5.287-1.35
	C320.744,181.111,319.895,179.882,319.495,178.329"></path>
<path d="M350.333,166.653h4.032v2.399c0.525-0.819,1.232-1.488,2.122-2.001c0.896-0.51,1.886-0.769,2.977-0.769
	c1.898,0,3.507,0.743,4.827,2.231c1.326,1.488,1.986,3.563,1.986,6.221c0,2.729-0.66,4.845-1.998,6.366
	c-1.332,1.509-2.947,2.263-4.845,2.263c-0.908,0-1.721-0.177-2.458-0.536c-0.737-0.357-1.509-0.973-2.316-1.845v8.234h-4.326
	v-22.563L350.333,166.653L350.333,166.653z M354.618,174.545c0,1.839,0.359,3.195,1.084,4.073c0.731,0.878,1.621,1.315,2.664,1.315
	c1.008,0,1.845-0.401,2.511-1.208c0.666-0.802,0.996-2.122,0.996-3.961c0-1.715-0.342-2.989-1.026-3.819
	c-0.69-0.828-1.538-1.244-2.558-1.244c-1.055,0-1.934,0.407-2.629,1.223C354.965,171.739,354.618,172.948,354.618,174.545"></path>
<path d="M374.522,171.639l-3.926-0.71c0.436-1.577,1.202-2.75,2.275-3.51c1.079-0.757,2.682-1.138,4.804-1.138
	c1.927,0,3.365,0.23,4.309,0.684s1.609,1.037,1.998,1.742c0.377,0.702,0.572,1.995,0.572,3.87l-0.041,5.048
	c0,1.438,0.065,2.496,0.206,3.177c0.135,0.687,0.395,1.411,0.778,2.195h-4.279c-0.118-0.286-0.254-0.713-0.419-1.279
	c-0.071-0.253-0.124-0.425-0.153-0.507c-0.737,0.719-1.527,1.258-2.375,1.615c-0.837,0.359-1.733,0.536-2.688,0.536
	c-1.686,0-3.006-0.454-3.978-1.367c-0.973-0.908-1.456-2.066-1.456-3.46c0-0.926,0.224-1.751,0.66-2.47
	c0.442-0.728,1.061-1.282,1.857-1.662c0.796-0.389,1.939-0.725,3.442-1.014c2.016-0.377,3.424-0.731,4.202-1.058v-0.433
	c0-0.831-0.206-1.423-0.619-1.777c-0.413-0.351-1.185-0.534-2.322-0.534c-0.772,0-1.373,0.156-1.803,0.46
	C375.135,170.349,374.788,170.879,374.522,171.639 M380.31,175.146c-0.56,0.183-1.432,0.407-2.635,0.663
	c-1.202,0.256-1.986,0.51-2.352,0.754c-0.566,0.401-0.849,0.91-0.849,1.523c0,0.604,0.224,1.129,0.678,1.568
	c0.448,0.445,1.025,0.663,1.721,0.663c0.778,0,1.526-0.257,2.234-0.769c0.525-0.389,0.866-0.866,1.031-1.432
	c0.112-0.368,0.171-1.07,0.171-2.107L380.31,175.146L380.31,175.146z"></path>
<path d="M394.533,182.997h-4.32v-16.344h4.014v2.322c0.69-1.099,1.302-1.818,1.857-2.169c0.548-0.351,1.173-0.525,1.868-0.525
	c0.984,0,1.934,0.271,2.847,0.816l-1.338,3.77c-0.731-0.472-1.403-0.707-2.033-0.707c-0.601,0-1.12,0.168-1.538,0.501
	c-0.418,0.333-0.754,0.937-0.996,1.809c-0.236,0.872-0.36,2.699-0.36,5.479v5.048L394.533,182.997L394.533,182.997z"></path>
<path d="M407.465,171.639l-3.92-0.71c0.436-1.577,1.202-2.75,2.281-3.51c1.073-0.757,2.676-1.138,4.798-1.138
	c1.927,0,3.365,0.23,4.309,0.684c0.949,0.454,1.609,1.037,1.998,1.742c0.383,0.702,0.572,1.995,0.572,3.87l-0.047,5.048
	c0,1.438,0.077,2.496,0.212,3.177c0.136,0.687,0.395,1.411,0.772,2.195h-4.273c-0.118-0.286-0.254-0.713-0.419-1.279
	c-0.071-0.253-0.124-0.425-0.153-0.507c-0.737,0.719-1.526,1.258-2.369,1.615c-0.837,0.359-1.745,0.536-2.694,0.536
	c-1.686,0-3.012-0.454-3.979-1.367c-0.967-0.908-1.456-2.066-1.456-3.46c0-0.926,0.224-1.751,0.666-2.47
	c0.436-0.728,1.061-1.282,1.851-1.662c0.796-0.389,1.939-0.725,3.436-1.014c2.022-0.377,3.43-0.731,4.203-1.058v-0.433
	c0-0.831-0.206-1.423-0.613-1.777c-0.413-0.351-1.185-0.534-2.322-0.534c-0.766,0-1.373,0.156-1.804,0.46
	C408.084,170.349,407.736,170.879,407.465,171.639 M413.253,175.146c-0.548,0.183-1.427,0.407-2.629,0.663
	c-1.197,0.256-1.986,0.51-2.352,0.754c-0.572,0.401-0.849,0.91-0.849,1.523c0,0.604,0.224,1.129,0.678,1.568
	c0.454,0.445,1.026,0.663,1.721,0.663c0.784,0,1.527-0.257,2.234-0.769c0.518-0.389,0.866-0.866,1.031-1.432
	c0.112-0.368,0.165-1.07,0.165-2.107L413.253,175.146L413.253,175.146z"></path>
<path d="M438.792,182.997v-18.746h-6.696v-3.817h17.93v3.817h-6.678v18.746H438.792z M454.4,160.434h4.556v22.563H454.4V160.434z"></path>
</svg>
