<?xml version="1.0"?>

<!-- Generator: Adobe Illustrator 19.1.0, SVG Export Plug-In . SVG Version: 6.00 Build 0)  -->
<svg version="1.1" id="Layer_1" xmlns="http://www.w3.org/2000/svg" xmlns:xlink="http://www.w3.org/1999/xlink" x="0px" y="0px" width="770px" height="268px" viewBox="0 0 770 268" style="enable-background:new 0 0 770 268;" xml:space="preserve">

<path class="st0" d="M393.6,79.6h25v17.8h-25v73.4c0,3.6,0.9,6.1,2.6,7.5c1.7,1.3,4.4,2,8.1,2h14.3v17.8h-20.3
	c-8.4,0-14.6-2.6-18.7-7.9c-4.1-5.3-6.2-12.1-6.2-20.5V97.3h-25.4V79.6h25.4"></path>
<path class="st0" d="M464.5,197.9c-13.7,0-23.9-2.9-30.4-8.6c-6.5-5.8-9.8-15.5-9.8-29.2v-42.6c0-13.6,2.9-23.3,8.8-29.1
	c5.8-5.8,15.5-8.8,29.1-8.8h11.1c11.4,0,19.9,3.2,25.6,9.5c5.7,6.3,8.5,15.4,8.5,27.2V147h-63v17.8c0,4.7,1.4,8.5,4.4,11.2
	c2.9,2.8,7.4,4.1,13.4,4.1h43.4v17.8H464.5z M444.4,129.3h43.3v-17.8c0-4.1-1.3-7.5-4-10.2c-2.7-2.7-6.1-4-10.2-4h-13.8
	c-6,0-10,1.4-12.2,4.1c-2.1,2.8-3.2,6.5-3.2,11.2V129.3z"></path>
<path class="st0" d="M444.4,129.3h43.3v-17.8c0-4.1-1.3-7.5-4-10.2c-2.7-2.7-6.1-4-10.2-4h-13.8c-6,0-10,1.4-12.2,4.1
	c-2.1,2.8-3.2,6.5-3.2,11.2V129.3z M464.5,197.9c-13.7,0-23.9-2.9-30.4-8.6c-6.5-5.8-9.8-15.5-9.8-29.2v-42.6
	c0-13.6,2.9-23.3,8.8-29.1c5.8-5.8,15.5-8.8,29.1-8.8h11.1c11.4,0,19.9,3.2,25.6,9.5c5.7,6.3,8.5,15.4,8.5,27.2V147h-63v17.8
	c0,4.7,1.4,8.5,4.4,11.2c2.9,2.8,7.4,4.1,13.4,4.1h43.4v17.8H464.5z"></path>
<path class="st0" d="M578.3,190.8c-6.2,4.7-14.9,7.1-26.3,7.1h-35.3v-17.8h37.6c8.7,0,13-3.6,13-10.6V157c0-7.1-3.4-10.7-10.2-10.7
	h-8.8c-10.9,0-19.1-2.3-24.6-7c-5.5-4.6-8.3-12.3-8.3-23.1v-6.8c0-11,3.1-18.8,9.2-23.2c6.2-4.4,14.9-6.6,26.3-6.6h31.7v17.8h-34.1
	c-3.8,0-6.9,0.9-9.4,2.6c-2.5,1.7-3.7,4.4-3.7,8v8.5c0,3.8,1.1,6.5,3.4,8.2c2.3,1.7,4.9,2.5,7.9,2.5h8c10.6,0,18.6,2.6,24.1,7.7
	c5.5,5.1,8.3,12.8,8.3,22.9v10.7C587.5,178.6,584.4,186.1,578.3,190.8z"></path>
<path class="st0" d="M596.6,197.9V97.3h-0.1V79.6h21.6v100.6h0.3v17.8H596.6z M702.2,168.3v-10.7c0-10.1-2.8-17.7-8.3-22.9
	c-5.5-5.1-17.1-7.7-27.7-7.7h-8c-3,0-5.6-0.8-7.9-2.5c-2.3-1.7-3.4-4.4-3.4-8.2V108c0-3.6,1.2-6.3,3.7-8c2.4-1.7,5.6-2.6,9.4-2.6
	h37.6V79.6h-35.3c-11.4,0-20.1,2.2-26.3,6.6c-6.2,4.4-9.2,12.2-9.2,23.2v6.8c0,10.7,2.8,18.4,8.3,23.1c5.5,4.7,13.7,7,24.6,7h8.8
	c6.8,0,13.7,3.6,13.7,10.7v12.6c0,7.1-7.9,10.6-16.6,10.6h-37.7v17.8h35.3c11.4,0,23.7-2.4,29.8-7.1
	C699.1,186.1,702.2,178.6,702.2,168.3z M596.2,71.3h22.5V50h-22.5V71.3z"></path>
<path class="st0" d="M192.2,197.9V97.3h-34.8V79.6h54.9v100.6h36.8v17.8H192.2z M277.5,197.9v-87.6c0-1.3,0.2-2.6,0.7-4.1
	c0.5-1.5,1.3-2.9,2.5-4.1c1.2-1.3,2.8-2.4,4.7-3.3c2-1,4.5-1.4,7.5-1.4h15.6c4.7,0,8.5,1.4,11.2,4.1c2.8,2.8,4.1,6.5,4.1,11.2v85.2
	h20.1v-80.5c0-13.7-3.2-23.5-9.6-29.2c-6.4-5.8-15.8-8.6-28.3-8.6h-10.9c-3.6,0-7,0.4-10.2,1.3c-3.2,0.9-6.1,2.3-8.8,4.4v-5.7h-18.9
	v118.4H277.5z M189.5,71.3H212V50h-22.5V71.3z M246.8,80.8h-25.7v93.7h25.7V80.8z"></path>
<path class="st0" d="M184.2,163.2H83.6V198H65.8v-54.9h100.6v-38.6h17.8V163.2z M158.4,79.5h-31.1v57.4h31.1V79.5z M183.2,169.3
	H90.6V198h92.6V169.3z M119.9,111.5h-54v25.4h54V111.5z M119.9,79.5h-54v26.4h54V79.5z"></path>
</svg>
