<svg
 xmlns="http://www.w3.org/2000/svg"
 viewBox="0 0 400 117"
 height="117" width="400">
 <path  d="m 394.565,104.618 c 2.917,0 5.357,2.299 5.357,5.315 0,3.069 -2.44,5.374 -5.357,5.374 -2.93,0 -5.387,-2.305 -5.387,-5.374 10e-4,-3.016 2.458,-5.315 5.387,-5.315 z m 0,9.905 c 2.475,0 4.388,-1.971 4.388,-4.59 0,-2.556 -1.913,-4.531 -4.388,-4.531 -2.502,0 -4.418,1.976 -4.418,4.531 0,2.62 1.916,4.59 4.418,4.59 z m -2.086,-7.691 2.412,0 c 1.488,0 2.19,0.586 2.19,1.789 0,1.123 -0.711,1.602 -1.645,1.699 l 1.789,2.76 -1.046,0 -1.699,-2.691 -1.031,0 0,2.691 -0.971,0 0,-6.248 z m 0.97,2.772 1.017,0 c 0.858,0 1.642,-0.04 1.642,-1.026 0,-0.831 -0.711,-0.957 -1.37,-0.957 l -1.288,0 0,1.983 z m -4.113,-74.982 c 1.975,0 3.129,0.657 3.129,2.805 l 0,11.621 c 0,1.979 -1.315,3.135 -3.301,3.135 l -19.125,0 0,58.48 c 0,2.971 -1.315,4.125 -4.288,4.125 l -11.486,0 c -2.972,0 -4.288,-1.154 -4.288,-4.125 l -0.004,-58.48 -19.12,0 c -1.984,0 -3.305,-1.156 -3.305,-3.135 l 0,-11.621 c 0,-2.148 1.159,-2.805 3.133,-2.805 l 58.655,0 z M 372.114,12.105 C 372.114,5.42 366.694,0 360.009,0 c -6.682,0 -12.102,5.42 -12.102,12.105 0,6.685 5.42,12.099 12.102,12.099 6.685,0 12.105,-5.414 12.105,-12.099 z M 184.556,34.622 c 1.979,0 3.135,0.657 3.135,2.805 l 0,11.621 c 0,1.979 -1.318,3.135 -3.302,3.135 l -19.125,0 0,58.48 c 0,2.971 -1.319,4.125 -4.292,4.125 l -11.483,0 c -2.971,0 -4.288,-1.154 -4.288,-4.125 l 0,-58.48 -19.13,0 c -1.979,0 -3.299,-1.156 -3.299,-3.135 l 0,-11.621 c 0,-2.148 1.154,-2.805 3.136,-2.805 l 58.648,0 z M 167.333,12.105 C 167.333,5.42 161.918,0 155.232,0 c -6.682,0 -12.105,5.42 -12.105,12.105 0,6.685 5.424,12.099 12.105,12.099 6.686,0 12.101,-5.414 12.101,-12.099 z m -58.813,102.684 -11.88,0 c -2.969,0 -3.958,-1.483 -3.958,-4.292 l 0,-44.887 c 0,-9.071 -2.471,-15.509 -12.543,-15.509 -6.438,0 -14.355,3.472 -19.47,7.921 l 0,52.641 c 0,2.813 -1.156,4.125 -3.956,4.125 l -12.051,0 c -2.476,0 -3.963,-1.312 -3.963,-3.959 l 0,-72.062 c 0,-2.642 1.163,-4.125 4.129,-4.125 l 10.721,0 c 2.309,0 3.803,0.657 3.963,3.132 l 0.163,4.405 c 7.597,-6.101 17.168,-9.564 26.74,-9.564 18.482,0 26.071,11.549 26.071,29.536 l 0,48.346 c -0.001,2.809 -0.988,4.292 -3.966,4.292 z M 293.494,37.918 c 0,-1.975 0.997,-3.296 2.972,-3.296 l 13.959,0 c 1.983,0 3.138,1.156 3.138,3.296 l 0,72.746 c 0,2.971 -1.322,4.125 -4.131,4.125 l -11.646,0 c -2.962,0 -4.292,-1.154 -4.292,-4.125 l 0,-72.746 z M 0,37.918 c 0,-1.975 0.992,-3.296 2.969,-3.296 l 13.96,0 c 1.979,0 3.134,1.156 3.134,3.296 l 0,72.746 c 0,2.971 -1.326,4.125 -4.125,4.125 l -11.646,0 C 1.331,114.789 0,113.635 0,110.664 L 0,37.918 Z m 268.553,76.871 -10.563,0 c -2.146,0 -3.791,-1.154 -3.952,-3.296 l -0.168,-4.13 c -7.596,6.114 -16.672,9.409 -26.244,9.409 -18.48,0 -26.067,-11.708 -26.067,-29.539 l 0,-48.809 c 0,-2.807 1.649,-3.798 4.281,-3.798 l 11.557,0 c 2.643,0 4.13,0.821 4.13,3.798 l 0,45.341 c 0,9.08 2.309,15.347 12.214,15.347 6.261,0 14.188,-3.461 19.139,-7.917 l 0,-52.771 c 0,-2.807 1.488,-3.798 4.12,-3.798 l 11.717,0 c 2.644,0 4.132,0.821 4.132,3.798 l 0,71.748 c -0.002,3.463 -0.999,4.617 -4.296,4.617 z" />
   </svg>