 <svg 
   xmlns="http://www.w3.org/2000/svg"
   viewBox="0 0 247.1 292.5"
   height="292.5"
   width="247.1">
 
  <path
     d="m 205.3,124.9 c 0,0 0.1,0 0.1,0 -17.6,-18.1 -30.5,-40.72 -36.9,-66.06 0,0 -0.1,0.1 -0.2,0.1 l -1.4,-5.23 c -3.8,22.65 1,49.19 16.1,74.99 C 156.5,92.18 150.2,53.71 158.6,24.79 156.7,20.08 147.8,11.32 123.5,11.32 96.59,11.32 90.47,21.68 88.96,25.45 l -11.21,38.85 -0.1,0 c -7.07,24.21 -20.44,46.6 -39.28,64.5 0.1,0 0.1,0 0.19,0.1 l -2.17,2.2 c 24.77,-9.5 47,-32.42 59.15,-65.76 -13.56,53.06 -48.69,85.06 -82.67,90.16 -3.104,4.1 -6.439,16.2 5.92,37.4 13.58,23.2 25.7,23.2 29.66,22.6 l 38.43,-9.6 c 23.92,-6.5 49.62,-7 74.52,-0.6 l 0,0 2.2,0.4 C 141.4,189.4 108.2,183.8 72.38,194.1 127.2,172.4 176.8,185.2 198.9,213.9 l 0.7,0.2 c 4.7,0.8 17.3,-2.2 29.5,-24.4 13,-23.6 6.8,-34 4.2,-37.1 l -28,-27.9 z m -31.4,129.2 0,4.6 -1.3,0 0,-4.6 -1.4,0 0,-1.1 4.1,0 0,1.1 -1.4,0 z m 6.2,4.6 0,-3.5 -0.1,0.4 -1.4,3.3 -1.5,-3.3 -0.1,-0.4 0,3.5 -1.3,0 0,-5.7 1.6,0 1.1,2.7 0.1,0.2 0.2,-0.2 1.1,-2.7 1.6,0 0,5.7 -1.3,0 z m -20.6,22.6 -2.1,-5.5 -10.2,0 -2,5.5 -5.5,0 10.2,-26.4 4.9,0 10.1,26.4 -5.4,0 z m -6.3,-17 q -0.2,-0.6 -0.5,-1.2 -0.2,-0.7 -0.4,-1.3 -0.2,0.6 -0.4,1.3 -0.2,0.6 -0.4,1.2 l -2.7,6.8 6.9,0 -2.5,-6.8 z m -42.6,17 0,-26.4 11.3,0 q 2.5,0 4.2,0.7 1.7,0.7 2.8,1.9 1.1,1.2 1.6,2.7 0.4,1.5 0.4,3 0,0.9 -0.2,2 -0.2,0.9 -0.7,1.8 -0.5,1 -1.1,1.7 -0.8,0.9 -1.8,1.6 -1,0.5 -2.3,0.9 -1.3,0.3 -2.9,0.3 l -6.2,0 0,9.8 -5.1,0 z m 11.6,-14.6 q 0.9,0 1.6,-0.3 0.6,-0.4 1,-0.9 0.5,-0.4 0.7,-1.1 0.2,-0.6 0.2,-1.2 0,-0.6 -0.2,-1.1 -0.2,-0.7 -0.6,-1.3 -0.4,-0.4 -1,-0.8 -0.8,-0.3 -1.7,-0.3 l -6.5,0 0,7 6.5,0 z m -32.96,14.6 0,-26.4 5.09,0 0,26.4 -5.09,0 z" />
</svg>
