<?xml version="1.0"?>

<!-- Generator: Adobe Illustrator 19.1.0, SVG Export Plug-In . SVG Version: 6.00 Build 0)  -->
<svg version="1.1" id="Layer_1" xmlns="http://www.w3.org/2000/svg" xmlns:xlink="http://www.w3.org/1999/xlink" x="0px" y="0px" width="484px" height="200px" viewBox="58 0 484 200" enable-background="new 58 0 484 200" xml:space="preserve">
<g>
	<path d="M524.177,121.722c-5.868,0-11.503,0-17.109,0c1.986-7.634,0.675-15.301,0.993-22.899c0.05-1.138-0.58-1.707-1.821-1.897
		c-6.055-0.943-7.11-0.184-6.959,5.949c0.153,6.175-0.943,12.454,1.445,18.732c-5.787,0-11.458,0-16.969,0
		c1.874-7.573,0.672-15.259,0.926-22.877c0.039-1.174-0.68-1.821-1.913-1.782c-0.446,0.014-0.893,0-1.333-0.008
		c-5.55-0.081-5.681-0.078-5.52,5.369c0.187,6.398-0.996,12.9,1.442,19.351c-5.718,0-11.315,0-16.713,0
		c1.063-10.281,1.317-20.564-0.212-31.171c4.078,0,8.468,0.033,12.852-0.017c1.894-0.022,1.567,1.495,2.036,2.84
		c1.244-2.293,3.107-2.94,5.472-2.867c4.111,0.128,8.225,0.064,12.337,0.022c2.223-0.022,4.17,0.466,5.508,2.41
		c1.322-1.467,2.728-2.558,4.94-2.438c3.216,0.167,6.446-0.011,9.667,0.05c6.047,0.117,8.967,2.834,9.26,8.981
		c0.254,5.322,0.117,10.666,0.248,15.999C522.802,117.555,523.237,119.608,524.177,121.722z"></path>
	<path d="M409.533,94.071c-6.406-2.128-12.964-1.16-19.446-1.216c-2.131-0.014-3.199,1.3-3.199,3.445
		c0.003,4.889,0.022,9.779-0.008,14.668c-0.017,2.326,1.077,3.548,3.392,3.587c6.298,0.111,12.635,0.714,18.88-1.319
		c0.061,0.315,0.203,0.622,0.165,0.907c-1.032,7.715-1.038,7.715-8.987,7.715c-7.001,0-14.004,0.045-21.005-0.011
		c-7.188-0.056-10.847-3.743-10.914-10.933c-0.045-4.669-0.022-9.338-0.003-14.004c0.028-7.651,3.606-11.285,11.182-11.307
		c8.557-0.025,17.12,0.112,25.671-0.075c2.61-0.061,3.676,0.837,3.704,3.266C408.986,90.551,410.026,92.202,409.533,94.071z"></path>
	<path d="M287.809,85.597c5.6,0,11.698,0.022,17.789-0.017c1.386-0.006,1.668,0.714,1.668,1.88
		c-0.017,10.791-0.033,21.576,0.017,32.368c0.008,1.648-0.672,2.067-2.189,2.05c-5.885-0.056-11.773-0.022-17.407-0.022
		C289.55,109.723,289.36,97.791,287.809,85.597z"></path>
	<path d="M298.296,72.349c1.113,0,2.223-0.005,3.336,0c4.605,0.014,5.576,1.132,5.378,5.796c-0.101,2.446-1.286,3.799-3.632,3.883
		c-3.551,0.131-7.115,0.145-10.666,0.011c-3.247-0.123-3.838-2.354-3.782-5.121c0.05-2.761,1.046-4.51,4.033-4.563
		C294.74,72.321,296.517,72.349,298.296,72.349z"></path>
	<path d="M211.523,92.966c0-8.454,0.017-16.911-0.008-25.365c-0.011-3.866-0.848-4.697-4.714-4.7
		c-15.351-0.014-30.703-0.014-46.057,0c-3.868,0.003-4.691,0.851-4.736,4.677c-0.008,0.887-0.008,1.78-0.003,2.672
		c0.042,3.846,1.037,4.853,4.998,4.864c7.899,0.028,15.798,0.005,23.696,0.011c4.446,0.006,5.347,0.87,5.35,5.165
		c0.008,12.797-0.084,25.593,0.073,38.384c0.033,2.717-0.817,3.286-3.347,3.238c-8.345-0.153-16.687-0.111-25.032-0.017
		c-1.821,0.019-3.174-0.522-4.432-1.771c-17.284-17.192-23.392-37.765-16.255-61.029c7.257-23.671,23.975-37.971,48.587-41.472
		c37.72-5.372,69.871,24.581,67.659,62.611c-0.921,15.87-7.506,29.305-19.229,40.164c-1.155,1.071-2.321,1.495-3.866,1.484
		c-6.563-0.061-13.131-0.165-19.686,0.039c-2.666,0.084-3.085-0.909-3.051-3.258C211.599,110.103,211.523,101.534,211.523,92.966z
		 M211.512,30.579c-0.028-2.435-1.319-3.695-3.726-3.715c-4.549-0.036-9.095-0.011-13.645-0.011c-2.569,0-3.983,1.367-4.041,3.855
		c-0.106,4.546-0.101,9.098-0.011,13.644c0.047,2.488,1.478,3.913,4,3.944c4.546,0.056,9.098,0.075,13.644-0.017
		c2.527-0.047,3.818-1.478,3.793-4.055c-0.025-2.215-0.005-4.435-0.008-6.655C211.515,35.239,211.537,32.91,211.512,30.579z"></path>
	<path d="M114.657,158.466c17.686,0,35.369-0.028,53.052,0.039c1.897,0.011,3.138-0.96,4.424-1.975
		c11.24-8.892,22.581-17.664,33.634-26.784c4.627-3.818,9.62-1.955,14.858-2.569c-0.641,2.268-3.023,2.51-3.464,4.68
		c7.556,0,15.033,0,23.083,0c-2.527,4.212-6.7,6.063-9.344,10.03c4.061,0,7.748,0,11.717,0c-0.803,2.63-2.954,3.42-4.36,4.845
		c-5.232,5.302-10.632,10.445-15.84,15.772c-1.456,1.492-2.937,2.017-4.979,2.011c-12.345-0.031-12.423-0.07-21.524,8.566
		c-2.998,2.845-6.011,4.359-10.317,4.117c-6.649-0.379-13.349,0.128-20.009-0.115c-3.782-0.137-7.012,0.572-9.687,3.294
		c-2.831,2.881-6.209,3.587-10.233,3.545c-18.018-0.204-36.038-0.087-54.059-0.087c-1.06,0-2.12,0-3.18,0
		c-0.061-0.212-0.12-0.424-0.179-0.63c4.873-3.113,9.745-6.225,14.621-9.338c-0.05-0.206-0.106-0.413-0.159-0.617
		c-6.987,0-13.976,0-20.963,0c-0.067-0.226-0.131-0.454-0.195-0.68c3.997-2.469,7.996-4.94,12.797-7.907c-6.931,0-13.011,0-19.092,0
		c-0.064-0.24-0.126-0.477-0.19-0.719c6.56-3.827,13.12-7.659,19.68-11.48c4.131-2.41,8.362-4.652,12.37-7.246
		c3.874-2.505,7.896-3.927,12.54-3.297c4.407,0.6,8.348-0.524,11.79-3.344c6.775-5.553,14.453-7.874,23.194-6.697
		c1.746,0.234,3.57-0.134,5.327,0.067c4.424,0.497,8.345-0.421,11.664-3.514c1.032-0.957,2.326-1.216,3.715-1.2
		c2.878,0.028,5.76,0.006,8.652,0.006c0.276,1.305-0.764,1.609-1.406,2.07c-9.014,6.493-18.079,12.922-27.068,19.451
		c-1.623,1.177-3.255,1.685-5.241,1.66c-6.342-0.081-12.688,0.117-19.022-0.089c-3.503-0.115-6.504,0.633-9.324,2.73
		c-2.376,1.766-4.987,3.216-7.494,4.803C114.517,158.065,114.587,158.265,114.657,158.466z M160.139,164.552
		c-8.931,0-17.864-0.005-26.798,0.011c-0.424,0.003-0.915,0.089-1.261,0.312c-5.877,3.871-11.734,7.765-17.594,11.653
		c8.501,0.564,16.782,0.396,25.046,0.647c3.453,0.103,6.192-0.848,8.828-2.912c3.952-3.101,8.036-6.027,12.069-9.025
		C160.335,165.01,160.237,164.781,160.139,164.552z"></path>
	<path d="M331.816,88.961c1.841-3.09,3.877-3.43,6.253-3.369c5.11,0.134,10.225-0.003,15.335,0.056
		c6.036,0.073,9.952,3.657,10.152,9.589c0.19,5.662,0.193,11.338-0.003,16.997c-0.198,5.762-4.052,9.419-9.882,9.55
		c-5.333,0.12-10.669-0.022-16.001,0.061c-1.696,0.028-2.976-0.658-4.491-1.986c0.075,2.109-1.208,3.115-2.407,4.181
		c-1.328,1.177-3.021,2.133-3.911,3.584c-2.862,4.658-7.082,5.196-11.954,4.797c-3.592-0.29-7.227-0.056-11.385-0.056
		c2.834-3.489,5.852-5.891,8.755-8.384c1.57-1.35,2.159-2.84,2.134-4.914c-0.106-9.667,0.011-19.334-0.106-29.001
		c-0.056-4.435-0.217-4.432,4.282-4.432c3.224,0,6.448,0.075,9.667-0.031C330.132,85.542,331.576,85.834,331.816,88.961z
		 M345.081,103.749c0-0.775,0.011-1.551,0-2.326c-0.139-9.795,1.409-8.373-8.724-8.557c-2.446-0.045-3.42,0.998-3.386,3.347
		c0.05,3.322-0.011,6.644,0.014,9.966c0.075,9.494-1.23,8.306,8.953,8.37c0.111,0,0.22-0.005,0.332-0.005
		c1.936,0.056,2.836-0.887,2.811-2.823c-0.036-2.655-0.011-5.316-0.011-7.971C345.076,103.749,345.079,103.749,345.081,103.749z"></path>
	<path d="M435.438,121.856c-4.337,0-8.674,0.05-13.009-0.011c-5.601-0.084-7.994-2.332-8.133-7.848
		c-0.128-5.221-0.128-10.454,0.011-15.675c0.134-4.937,2.114-7.447,6.995-7.614c9.433-0.335,18.894-0.324,28.332-0.039
		c4.722,0.145,6.599,2.159,7.051,6.85c0.575,5.972,0.667,11.999-0.084,17.962c-0.547,4.351-2.733,6.209-7.157,6.328
		c-4.664,0.126-9.338,0.025-14.007,0.025C435.438,121.845,435.438,121.851,435.438,121.856z M441.061,104.602
		c-0.106-8.87,1.155-7.491-7.826-7.692c-2.279-0.053-3.252,0.719-3.163,3.046c0.106,2.873,0.022,5.757,0.022,8.635
		c0,7.62,0,7.57,7.768,7.179c2.187-0.112,3.294-0.909,3.213-3.197c-0.075-2.1-0.014-4.206-0.014-6.309
		C441.061,105.71,441.067,105.155,441.061,104.602z"></path>
</g>
</svg>
