<?xml version="1.0"?>

<!-- Generator: Adobe Illustrator 19.1.0, SVG Export Plug-In . SVG Version: 6.00 Build 0)  -->
<svg version="1.1" id="Layer_1" xmlns="http://www.w3.org/2000/svg" xmlns:xlink="http://www.w3.org/1999/xlink" x="0px" y="0px" width="600px" height="200px" viewBox="0 0 600 200" enable-background="new 0 0 600 200" xml:space="preserve">
<path d="M201.343,114.119c4.12-3.184,3.839-7.137,4.721-10.459c4.476-16.853,8.705-33.77,13.039-50.659
	c1.549-6.037,10.883-9.856,16.436-6.868c2.375,1.278,0.934,2.798,0.537,4.234c-6.694,24.113-13.421,48.218-20.127,72.328
	c-1.852,6.66-6.482,9.783-13.111,9.687c-6.987-0.102-11.449-3.574-13.328-10.621c-4.706-17.653-9.697-35.232-14.545-52.848
	c-0.442-1.603-0.418-3.399-3.2-4.701c-4.642,16.739-9.294,33.285-13.807,49.869c-4.051,14.884-7.125,18.647-15.889,18.327
	c-11.732-0.43-12.925-9.761-15.233-18.226c-5.473-20.084-11.168-40.108-16.475-60.234c-0.637-2.416-4.969-7.293,1.244-7.596
	c4.615-0.225,11.76-4.429,14.031,4.374c4.495,17.435,8.996,34.868,13.521,52.296c0.899,3.462,1.915,6.895,3.1,11.143
	c2.875-1.796,3.183-3.877,3.731-5.896c4.429-16.284,9.032-32.52,13.309-48.843c1.933-7.378,3.579-14.352,13.487-14.312
	c10,0.041,11.435,7.418,13.37,14.571c4.117,15.207,8.2,30.423,12.35,45.62C199.279,108.126,200.295,110.884,201.343,114.119z"></path>
<path d="M47.978,112.267c-0.002-10.977-0.102-21.955,0.03-32.93c0.108-9.011,3.235-12.17,12.192-12.334
	c8.16-0.151,16.33-0.198,24.484,0.041c13.289,0.389,21.974,7.721,23.519,20.724c0.857,7.203,0.857,14.689-0.063,21.882
	c-1.859,14.552-10.393,21.567-25.18,21.913c-1.407,0.032-2.815,0.008-4.222,0.012c-14.865,0.024-15.205,0.012-15.739,14.985
	c-0.227,6.37-3.936,5.409-7.841,5.6c-4.459,0.22-7.508-0.213-7.298-6.12C48.264,134.794,47.98,123.526,47.978,112.267z
	 M62.858,99.569c0,5.052-0.019,10.103,0.008,15.155c0.014,2.549-0.02,4.696,3.553,5.478c18.982,4.159,27.282-2.297,27.262-21.576
	c-0.002-1.403,0.025-2.807-0.024-4.208c-0.474-13.448-5.246-16.587-22.195-16.93c-13.585-0.276-7.2,9.507-8.537,15.366
	C62.438,94.984,62.848,97.324,62.858,99.569z"></path>
<path d="M451.581,131.483c-5.918,0-11.854,0.284-17.752-0.063c-10.459-0.616-16.555-5.834-18.928-16.07
	c-2.319-10.007-2.043-20.111-0.388-30.198c0.227-1.386,0.532-2.775,0.953-4.115c4.757-15.116,24.518-16.919,44.53-13.279
	c11.689,2.126,17.865,13.526,16.005,26.92c-0.877,6.316-4.422,9.507-10.774,9.529c-9.302,0.03-18.618-0.284-27.897,0.19
	c-2.903,0.149-8.124-3.194-8.661,2.963c-0.526,6.044,1.38,11.644,8.449,12.482c6.401,0.758,12.928,0.486,19.4,0.598
	c4.227,0.073,8.468,0.218,12.681-0.039c4.351-0.264,5.065,1.923,5.055,5.646c-0.01,3.618-0.394,5.874-4.921,5.614
	c-5.9-0.34-11.833-0.083-17.753-0.083C451.581,131.542,451.581,131.513,451.581,131.483z M443.888,92.848
	c3.365,0,6.739,0.157,10.091-0.054c2.323-0.147,5.466,1.27,6.678-1.816c1.195-3.039,0.183-6.077-1.806-8.659
	c-5.39-6.995-22.691-6.822-28.139,0.222c-2.035,2.631-2.919,5.768-1.888,8.69c1.09,3.089,4.368,1.317,6.656,1.551
	C438.258,93.063,441.085,92.848,443.888,92.848z"></path>
<path d="M305.448,99.401c-0.124,24.308-9.663,33.279-35.178,33.082c-24.442-0.188-34.14-9.853-33.812-33.687
	c0.337-24.408,9.66-33.135,35.29-33.035C296.374,65.858,305.572,75.039,305.448,99.401z M290.635,97.821
	c-0.151-6.426,0.12-14.503-8.53-18.872c-15.383-7.769-30.235,0.769-30.8,17.809c-0.112,3.34-0.024,6.761,0.567,10.037
	c1.759,9.739,6.707,13.929,16.611,14.542C284.241,122.312,290.569,116.02,290.635,97.821z"></path>
<path d="M547.635,131.574c-6.48,0-12.978-0.289-19.434,0.098c-4.618,0.278-4.848-2.026-4.821-5.571
	c0.025-3.52,0.261-5.861,4.845-5.732c9.853,0.278,19.719,0.093,29.58,0.071c3.484-0.008,7.052-0.191,7.843-4.579
	c0.809-4.501-1.877-6.766-5.81-7.911c-8.097-2.355-16.314-4.351-24.284-7.073c-10.508-3.591-14.41-10.958-12.431-21.738
	c1.356-7.393,5.705-11.701,13.113-11.938c12.382-0.396,24.787-0.088,37.172-0.403c4.207-0.107,4.413,1.999,4.337,5.165
	c-0.076,3.191,0.428,6.032-4.52,5.844c-9.284-0.35-18.591-0.135-27.888-0.081c-3.662,0.022-7.64-0.225-8.434,4.809
	c-0.801,5.065,2.521,7.047,6.558,8.28c8.327,2.543,16.803,4.652,24.997,7.564c10.889,3.87,15.292,14.733,10.619,25.258
	c-2.27,5.114-6.458,7.731-12.003,7.855c-6.477,0.146-12.959,0.034-19.438,0.034C547.635,131.544,547.635,131.559,547.635,131.574z"></path>
<path d="M484.064,108.046c0-7.029-0.535-14.108,0.117-21.078c1.193-12.774,7.943-18.931,20.799-19.868
	c3.365-0.245,6.765-0.007,10.128-0.261c3.609-0.273,5.185,0.999,4.808,4.765c-0.295,2.941,0.799,5.788-4.247,6.259
	c-15.177,1.414-17.509,4.346-17.535,19.551c-0.015,9.296-0.506,18.628,0.168,27.875c0.481,6.602-2.934,6.242-7.505,6.406
	c-5.118,0.185-7.882-0.723-7.291-6.76c0.545-5.58,0.117-11.256,0.117-16.89C483.767,108.046,483.916,108.046,484.064,108.046z"></path>
<path d="M313.582,107.202c0-6.182-0.266-12.38,0.051-18.545c0.836-16.255,18.522-27.513,33.776-21.745
	c3.591,1.358,1.632,4.244,1.982,6.43c0.366,2.27,0.156,3.936-3.198,4.496c-17.115,2.858-18.129,4.244-18.138,21.427
	c-0.005,8.713-0.504,17.464,0.159,26.126c0.525,6.858-3.371,6.176-7.753,6.254c-4.271,0.078-7.659,0.271-7.049-5.905
	c0.604-6.123,0.132-12.353,0.132-18.537C313.558,107.202,313.57,107.202,313.582,107.202z"></path>
<path d="M368.066,88.986c0,12.39-0.308,24.792,0.137,37.167c0.205,5.707-2.72,5.757-6.697,5.429
	c-3.545-0.293-7.846,1.673-7.752-5.212c0.339-24.777,0.327-49.562-0.01-74.339c-0.081-5.912,2.624-6.257,7.129-6.149
	c4.207,0.102,7.56-0.237,7.332,5.939C367.744,64.194,368.068,76.596,368.066,88.986z"></path>
<path d="M411.852,68.069c-6.43,6.932-12.851,13.873-19.294,20.794c-7.708,8.28-7.701,9.494,0.257,17.895
	c7.334,7.742,14.674,15.476,22.834,24.08c-9.072,1.039-16.732,2.742-22.847-5.795c-4.379-6.113-10.34-11.075-15.429-16.7
	c-6.56-7.251-6.707-12.786-0.41-20.096c5.316-6.171,11.016-12.011,16.367-18.154C398.714,63.913,405.358,68.36,411.852,68.069z"></path>
<path d="M24.069,98.378c-0.002-8.706,0.35-17.433-0.12-26.114c-0.339-6.235,3.301-5.839,7.428-5.851
	c4.239-0.012,7.652-0.037,7.557,5.991c-0.283,17.97-0.261,35.95-0.024,53.923c0.088,6.665-4.368,5.026-8.024,5.243
	c-3.87,0.229-7.161,0.318-6.92-5.392C24.354,116.927,24.071,107.647,24.069,98.378z"></path>
<path d="M31.366,45.772c4.259-0.391,7.582-0.413,7.654,5.72c0.076,6.555-3.597,6.255-8.104,6.409
	c-4.705,0.161-7.09-0.669-7.049-6.342C23.907,45.486,27.1,45.341,31.366,45.772z"></path>
</svg>
