<?xml version="1.0"?>

<!-- Generator: Adobe Illustrator 19.1.0, SVG Export Plug-In . SVG Version: 6.00 Build 0)  -->
<svg version="1.1" id="Layer_1" xmlns="http://www.w3.org/2000/svg" xmlns:xlink="http://www.w3.org/1999/xlink" x="0px" y="0px" width="841.9px" height="595.3px" viewBox="-218 23.7 841.9 595.3" style="enable-background:new -218 23.7 841.9 595.3;" xml:space="preserve">

<g>
	<g>
		<path class="st0" d="M58.3,375.2h4l-5.6,29.3H70l-0.7,3.5H52.1L58.3,375.2z"></path>
		<path class="st0" d="M73.5,408.1l4.5-23.6h4l-4.5,23.6H73.5z M87.8,374.6l-6.5,7h-3.1l4.8-7H87.8z"></path>
		<path class="st0" d="M109.7,373.5l-5.2,27.1c-0.4,2.4-0.8,5.2-1,7.5h-3.7l0.6-4.7h-0.1c-2.1,3.4-5.1,5.2-8.5,5.2
			c-4.5,0-7-3.8-7-8.6c0-8.4,6.2-16.1,14.6-16.1c1.5,0,3.2,0.3,4.2,0.8l2.1-11.3h4V373.5z M102.9,388.2c-0.8-0.6-2.1-1-3.8-1
			c-5.7,0-10,6-10,12.3c0,2.8,1,5.8,4.4,5.8c3.1,0,6.9-3.6,7.9-8.9L102.9,388.2z"></path>
		<path class="st0" d="M127.2,406.7c-1.8,1-4.6,1.9-7.8,1.9c-6.2,0-9-4.3-9-9.5c0-7.1,5.3-15.1,12.9-15.1c4.5,0,6.9,2.7,6.9,6.1
			c0,6.2-7,7.8-15.7,7.6c-0.2,1,0,3.2,0.5,4.5c0.9,2.1,2.8,3.2,5.3,3.2c2.8,0,4.9-0.8,6.3-1.6L127.2,406.7z M126.3,390.1
			c0-1.9-1.5-3-3.6-3c-3.8,0-6.7,3.8-7.7,7.5C121.3,394.7,126.3,393.8,126.3,390.1L126.3,390.1z"></path>
		<path class="st0" d="M132.3,408.1l2.9-15.2c0.6-3.1,0.9-6.2,1.2-8.4h3.6c-0.1,1.7-0.3,3.3-0.6,5.1h0.1c1.6-3.2,4-5.7,7.2-5.7
			c0.4,0,0.8,0,1.2,0.1l-0.8,4c-0.3,0-0.7-0.1-1.1-0.1c-3.5,0-6.6,4.2-7.6,9.7l-1.9,10.4h-4.2L132.3,408.1L132.3,408.1z"></path>
		<path class="st0" d="M173.6,406.7c-1.8,1-4.6,1.9-7.8,1.9c-6.2,0-9-4.3-9-9.5c0-7.1,5.3-15.1,12.9-15.1c4.5,0,6.9,2.7,6.9,6.1
			c0,6.2-7,7.8-15.7,7.6c-0.2,1,0,3.2,0.5,4.5c0.9,2.1,2.8,3.2,5.3,3.2c2.8,0,4.9-0.8,6.3-1.6L173.6,406.7z M172.7,390.1
			c0-1.9-1.5-3-3.6-3c-3.8,0-6.7,3.8-7.7,7.5C167.8,394.7,172.7,393.8,172.7,390.1L172.7,390.1z"></path>
		<path class="st0" d="M178.7,408.1l3.1-16.7c0.5-2.6,0.9-4.9,1.1-6.9h3.7l-0.6,4.6h0.1c2.1-3.3,5.3-5.2,8.8-5.2
			c2.8,0,5.9,1.6,5.9,6.5c0,1.1-0.2,2.6-0.4,3.8l-2.6,13.8h-4l2.6-13.6c0.1-0.9,0.3-2,0.3-3c0-2.3-0.9-4.1-3.7-4.1
			c-2.9,0-7,3.5-8,9.3l-2.1,11.4h-4.2V408.1L178.7,408.1z"></path>
		<path class="st0" d="M229.7,407.1c-1.2,0.6-3.7,1.5-6.8,1.5c-6.1,0-9.1-4.1-9.1-9.1c0-8.1,5.9-15.5,14.4-15.5
			c2.2,0,4.2,0.6,4.9,1.1l-1.2,3.2c-0.9-0.4-2.2-0.9-4-0.9c-6.1,0-10,6-10,11.6c0,3.8,2,6.3,5.8,6.3c2.4,0,4.2-0.7,5.5-1.3
			L229.7,407.1z"></path>
		<path class="st0" d="M250.7,406.7c-1.8,1-4.6,1.9-7.8,1.9c-6.2,0-9-4.3-9-9.5c0-7.1,5.3-15.1,12.9-15.1c4.5,0,6.9,2.7,6.9,6.1
			c0,6.2-7,7.8-15.7,7.6c-0.2,1,0,3.2,0.5,4.5c0.9,2.1,2.8,3.2,5.3,3.2c2.8,0,4.9-0.8,6.3-1.6L250.7,406.7z M249.8,390.1
			c0-1.9-1.5-3-3.6-3c-3.8,0-6.7,3.8-7.7,7.5C244.8,394.7,249.8,393.8,249.8,390.1L249.8,390.1z"></path>
		<path class="st0" d="M255.7,408.1l2.9-15.2c0.6-3.1,0.9-6.2,1.2-8.4h3.6c-0.1,1.7-0.3,3.3-0.6,5.1h0.1c1.6-3.2,4-5.7,7.2-5.7
			c0.4,0,0.8,0,1.2,0.1l-0.8,4c-0.3,0-0.7-0.1-1.1-0.1c-3.5,0-6.6,4.2-7.6,9.7l-1.9,10.4h-4.2V408.1L255.7,408.1z"></path>
		<path class="st0" d="M282.6,378.8l-1.1,5.7h5.7l-0.6,3.2H281l-2.1,11.5c-0.3,1.3-0.5,2.5-0.5,3.8c0,1.4,0.7,2.3,2.2,2.3
			c0.7,0,1.4,0,1.9-0.2l-0.2,3.2c-0.7,0.3-1.9,0.4-3.1,0.4c-3.6,0-5-2.1-5-4.6c0-1.4,0.2-2.7,0.5-4.4l2.3-11.9h-3.4l0.6-3.2h3.4
			l0.8-4.3L282.6,378.8z"></path>
		<path class="st0" d="M287.4,408.1l4.5-23.6h4l-4.5,23.6H287.4z M294.9,380.2c-1.4,0-2.4-1.1-2.4-2.6c0-1.6,1.3-2.9,2.8-2.9
			s2.5,1.1,2.5,2.6C297.8,379,296.6,380.2,294.9,380.2L294.9,380.2z"></path>
		<path class="st0" d="M299.1,408.1l3.8-20.4h-3.1l0.6-3.2h3.2l0.2-1.3c0.6-3.3,1.8-6.3,3.8-8.2c1.5-1.4,3.6-2.1,5.6-2.1
			c1.7,0,2.7,0.3,3.3,0.6l-0.9,3.2c-0.6-0.3-1.5-0.4-2.4-0.4c-3.2,0-4.8,3.1-5.5,7l-0.2,1.1h5.3l-0.6,3.2H307l-3.8,20.4L299.1,408.1
			L299.1,408.1z"></path>
		<path class="st0" d="M312.3,408.1l4.5-23.6h4l-4.5,23.6H312.3z M319.9,380.2c-1.4,0-2.4-1.1-2.4-2.6c0-1.6,1.3-2.9,2.8-2.9
			s2.5,1.1,2.5,2.6C322.7,379,321.5,380.2,319.9,380.2L319.9,380.2z"></path>
		<path class="st0" d="M339.6,407.1c-1.2,0.6-3.7,1.5-6.8,1.5c-6.1,0-9.1-4.1-9.1-9.1c0-8.1,5.9-15.5,14.4-15.5
			c2.2,0,4.2,0.6,4.9,1.1l-1.2,3.2c-0.9-0.4-2.2-0.9-4-0.9c-6.1,0-10,6-10,11.6c0,3.8,2,6.3,5.8,6.3c2.4,0,4.2-0.7,5.5-1.3
			L339.6,407.1z"></path>
		<path class="st0" d="M359,408.1c0-1.4,0.2-3.7,0.5-6.1h-0.1c-2.6,4.9-5.8,6.6-9.2,6.6c-4.2,0-6.8-3.3-6.8-7.8
			c0-8.2,6-16.9,16.3-16.9c2.2,0,4.7,0.4,6.3,0.9l-2.4,12.3c-0.8,4.1-1.1,8.3-1,10.9H359V408.1z M361.6,387.5
			c-0.6-0.2-1.4-0.3-2.8-0.3c-6.1,0-11.1,6.3-11.1,12.9c0,2.6,0.9,5.2,4,5.2c3.4,0,7.4-4.4,8.5-10.7L361.6,387.5z"></path>
		<path class="st0" d="M384.9,407.1c-1.2,0.6-3.7,1.5-6.8,1.5c-6.1,0-9.1-4.1-9.1-9.1c0-8.1,5.9-15.5,14.4-15.5
			c2.2,0,4.2,0.6,4.9,1.1l-1.2,3.2c-0.9-0.4-2.2-0.9-4-0.9c-6.1,0-10,6-10,11.6c0,3.8,2,6.3,5.8,6.3c2.4,0,4.2-0.7,5.5-1.3
			L384.9,407.1z"></path>
		<path class="st0" d="M389.4,408.1l4.5-23.6h4l-4.5,23.6H389.4z M396.9,380.2c-1.4,0-2.4-1.1-2.4-2.6c0-1.6,1.3-2.9,2.8-2.9
			s2.5,1.1,2.5,2.6C399.8,379,398.6,380.2,396.9,380.2L396.9,380.2z"></path>
		<path class="st0" d="M410,408.6c-5.9,0-9.2-4.4-9.2-9.7c0-7.8,5.4-15,13.1-15c6.4,0,9.3,4.8,9.3,9.8
			C423.1,401,418,408.6,410,408.6L410,408.6z M410.5,405.4c4.8,0,8.4-6.1,8.4-11.6c0-2.7-1.3-6.6-5.5-6.6c-5.1,0-8.4,6.2-8.4,11.6
			C405,402.6,407.1,405.4,410.5,405.4L410.5,405.4z M421.9,374.6l-6.5,7h-3.1l4.8-7H421.9z"></path>
		<path class="st0" d="M426,408.1l3.1-16.7c0.5-2.6,0.9-4.9,1.1-6.9h3.7l-0.6,4.6h0.1c2.1-3.3,5.3-5.2,8.8-5.2
			c2.8,0,5.9,1.6,5.9,6.5c0,1.1-0.2,2.6-0.4,3.8l-2.7,13.9h-4l2.6-13.6c0.1-0.9,0.3-2,0.3-3c0-2.3-0.9-4.1-3.7-4.1
			c-2.9,0-7,3.5-8,9.3l-2.2,11.4L426,408.1L426,408.1z"></path>
		<path class="st0" d="M154.1,422.2l-5.2,27.1c-0.4,2.4-0.8,5.2-1,7.5h-3.7l0.6-4.7h-0.1c-2.1,3.4-5.1,5.2-8.5,5.2
			c-4.5,0-7-3.8-7-8.6c0-8.4,6.2-16.1,14.6-16.1c1.5,0,3.2,0.3,4.2,0.8l2.1-11.3h4L154.1,422.2L154.1,422.2z M147.3,436.9
			c-0.8-0.6-2.1-1-3.8-1c-5.7,0-10,6-10,12.3c0,2.8,1,5.8,4.4,5.8c3.1,0,6.9-3.6,7.9-8.9L147.3,436.9z"></path>
		<path class="st0" d="M171.6,455.5c-1.8,1-4.6,1.9-7.8,1.9c-6.2,0-9-4.3-9-9.5c0-7.1,5.3-15.1,12.9-15.1c4.5,0,6.9,2.7,6.9,6.1
			c0,6.2-7,7.8-15.7,7.6c-0.2,1,0,3.2,0.5,4.5c0.9,2.1,2.8,3.2,5.3,3.2c2.8,0,4.9-0.8,6.3-1.6L171.6,455.5z M170.7,438.8
			c0-1.9-1.5-3-3.6-3c-3.8,0-6.7,3.8-7.7,7.5C165.7,443.4,170.7,442.5,170.7,438.8L170.7,438.8z"></path>
		<path class="st0" d="M183.4,466.4l4.7-24.8c0.5-2.8,1-6,1.3-8.4h3.7l-0.6,4.5h0.1c2.1-3.1,5.2-5,8.5-5c5.1,0,7.2,4.2,7.2,8.5
			c0,8.3-5.9,16.1-13.8,16.1c-2.5,0-4.1-0.5-5.1-1.1h-0.1l-1.9,10.2L183.4,466.4L183.4,466.4z M190,452.8c1.1,0.8,2.6,1.3,4.5,1.3
			c5.2,0,9.5-6.5,9.5-12.7c0-2.5-1.1-5.5-4.5-5.5c-3.2,0-7.1,3.6-8.3,10.2L190,452.8z"></path>
		<path class="st0" d="M211.2,456.8l2.9-15.2c0.6-3.1,0.9-6.2,1.2-8.4h3.6c-0.1,1.7-0.3,3.3-0.6,5.1h0.1c1.6-3.2,4-5.7,7.2-5.7
			c0.4,0,0.8,0,1.2,0.1l-0.8,4c-0.3,0-0.7-0.1-1.1-0.1c-3.5,0-6.6,4.2-7.6,9.7l-1.9,10.4h-4.2V456.8L211.2,456.8z"></path>
		<path class="st0" d="M235.9,457.3c-5.9,0-9.2-4.4-9.2-9.7c0-7.8,5.4-15,13.1-15c6.4,0,9.3,4.8,9.3,9.8
			C249,449.8,243.8,457.3,235.9,457.3L235.9,457.3z M236.4,454.1c4.8,0,8.4-6.1,8.4-11.6c0-2.7-1.3-6.6-5.5-6.6
			c-5.1,0-8.4,6.2-8.4,11.6C230.8,451.3,233,454.1,236.4,454.1L236.4,454.1z"></path>
		<path class="st0" d="M252.4,456.8l3.8-20.4h-3.1l0.6-3.2h3.2l0.2-1.3c0.6-3.3,1.8-6.3,3.8-8.2c1.5-1.4,3.6-2.1,5.6-2.1
			c1.7,0,2.7,0.3,3.3,0.6l-0.9,3.2c-0.6-0.3-1.5-0.4-2.4-0.4c-3.2,0-4.8,3.1-5.5,7l-0.2,1.1h5.3l-0.6,3.2h-5.2l-3.8,20.4
			L252.4,456.8L252.4,456.8z"></path>
		<path class="st0" d="M282.6,455.5c-1.8,1-4.6,1.9-7.8,1.9c-6.2,0-9-4.3-9-9.5c0-7.1,5.3-15.1,12.9-15.1c4.5,0,6.9,2.7,6.9,6.1
			c0,6.2-7,7.8-15.7,7.6c-0.2,1,0,3.2,0.5,4.5c0.9,2.1,2.8,3.2,5.3,3.2c2.8,0,4.9-0.8,6.3-1.6L282.6,455.5z M281.7,438.8
			c0-1.9-1.5-3-3.6-3c-3.8,0-6.7,3.8-7.7,7.5C276.7,443.4,281.7,442.5,281.7,438.8L281.7,438.8z"></path>
		<path class="st0" d="M287.9,452.7c1.1,0.7,3.1,1.5,5.1,1.5c2.7,0,4.5-1.8,4.5-3.8c0-1.9-0.8-3-3.3-4.4c-2.7-1.5-4.2-3.6-4.2-6
			c0-4.1,3.6-7.3,8.6-7.3c2.1,0,4,0.6,4.9,1.2l-1.1,3.1c-0.8-0.5-2.3-1.1-4-1.1c-2.5,0-4.2,1.6-4.2,3.6c0,1.7,1.1,2.8,3.3,3.9
			c2.6,1.5,4.4,3.6,4.4,6.2c0,5-4,7.7-9,7.7c-2.5,0-4.8-0.8-5.8-1.6L287.9,452.7z"></path>
		<path class="st0" d="M305.8,456.8l4.5-23.6h4l-4.5,23.6H305.8z M313.3,428.9c-1.4,0-2.4-1.1-2.4-2.6c0-1.6,1.3-2.9,2.8-2.9
			s2.5,1.1,2.5,2.6C316.2,427.7,315,428.9,313.3,428.9L313.3,428.9z"></path>
		<path class="st0" d="M326.4,457.3c-5.9,0-9.2-4.4-9.2-9.7c0-7.8,5.4-15,13.1-15c6.4,0,9.3,4.8,9.3,9.8
			C339.5,449.8,334.4,457.3,326.4,457.3L326.4,457.3z M326.9,454.1c4.8,0,8.4-6.1,8.4-11.6c0-2.7-1.3-6.6-5.5-6.6
			c-5.1,0-8.4,6.2-8.4,11.6C321.4,451.3,323.5,454.1,326.9,454.1L326.9,454.1z"></path>
		<path class="st0" d="M342.4,456.8l3.1-16.7c0.5-2.6,0.9-4.9,1.1-6.9h3.7l-0.6,4.6h0.1c2.1-3.3,5.3-5.2,8.8-5.2
			c2.8,0,5.9,1.6,5.9,6.5c0,1.1-0.2,2.6-0.4,3.8l-2.6,13.8h-4l2.5-13.6c0.1-0.9,0.3-2,0.3-3c0-2.3-0.9-4.1-3.7-4.1
			c-2.9,0-7,3.5-8,9.3l-2.1,11.4h-4.1V456.8L342.4,456.8z"></path>
		<path class="st0" d="M384.1,456.8c0-1.4,0.2-3.7,0.5-6.1h-0.1c-2.6,4.9-5.8,6.6-9.2,6.6c-4.2,0-6.8-3.3-6.8-7.8
			c0-8.2,6-16.9,16.3-16.9c2.2,0,4.7,0.4,6.3,0.9l-2.4,12.3c-0.8,4.1-1.1,8.3-1,10.9h-3.6V456.8L384.1,456.8z M386.6,436.2
			c-0.6-0.2-1.4-0.3-2.8-0.3c-6.1,0-11.1,6.3-11.1,12.9c0,2.6,0.9,5.2,4,5.2c3.4,0,7.4-4.4,8.5-10.7L386.6,436.2z"></path>
		<path class="st0" d="M393.9,456.8l6.6-34.6h4l-6.6,34.6H393.9z"></path>
		<path class="st0" d="M422,455.5c-1.8,1-4.6,1.9-7.8,1.9c-6.2,0-9-4.3-9-9.5c0-7.1,5.3-15.1,12.9-15.1c4.5,0,6.9,2.7,6.9,6.1
			c0,6.2-7,7.8-15.7,7.6c-0.2,1,0,3.2,0.5,4.5c0.9,2.1,2.8,3.2,5.3,3.2c2.8,0,4.9-0.8,6.3-1.6L422,455.5z M421.1,438.8
			c0-1.9-1.5-3-3.6-3c-3.8,0-6.7,3.8-7.7,7.5C416.1,443.4,421.1,442.5,421.1,438.8L421.1,438.8z"></path>
		<path class="st0" d="M427.3,452.7c1.1,0.7,3.1,1.5,5.1,1.5c2.7,0,4.5-1.8,4.5-3.8c0-1.9-0.8-3-3.3-4.4c-2.7-1.5-4.2-3.6-4.2-6
			c0-4.1,3.6-7.3,8.6-7.3c2.1,0,4,0.6,4.9,1.2l-1.1,3.1c-0.8-0.5-2.3-1.1-4-1.1c-2.5,0-4.2,1.6-4.2,3.6c0,1.7,1.1,2.8,3.3,3.9
			c2.6,1.5,4.4,3.6,4.4,6.2c0,5-4,7.7-9,7.7c-2.5,0-4.8-0.8-5.8-1.6L427.3,452.7z"></path>
		<path class="st0" d="M447,457.3c-1.6,0-2.7-1.3-2.7-2.9c0-1.8,1.3-3.3,3.1-3.3c1.7,0,2.7,1.3,2.7,2.9
			C450.2,455.9,448.9,457.3,447,457.3L447,457.3z"></path>
	</g>
	<g>
		<path class="st0" d="M-33,223.6c0-1.5,1-2.9,3.4-3.8c2.4-1.1,5.1-1.7,8-1.7c3.3,0,6.5,0.6,8.7,1.5c2.4,1,3.4,2.4,3.4,3.9
			c0,1.3-1,2.7-3.4,3.6c-2.3,1-5.4,1.7-8.4,1.7c-3.3,0-5.9-0.6-8.4-1.5C-31.9,226.3-33,224.9-33,223.6L-33,223.6z M-33,247h-4.9
			c-0.5,0-1.1-0.2-1.1-0.3c-0.3,0-0.8-0.3-0.8-0.5c0-0.3,0.4-0.6,0.8-0.8c0-0.2,0.5-0.3,1.1-0.3h28.4v62.2h6.7
			c0.5,0,1.3,0.2,1.6,0.4c0,0.1,0.3,0.4,0.3,0.7c0,0.3,0,0.6-0.3,0.6c-0.3,0.2-1.1,0.3-1.3,0.3h-36c-0.5-0.3-1.3-0.6-1.3-1
			c0-0.3,0.8-0.7,1.3-1h5.4V247L-33,247L-33,247z M8.9,247H2.8c-0.9,0-1.7-0.2-1.9-0.3c-0.3,0-0.8-0.3-0.8-0.5s0.8-0.6,1.4-1
			c7.8-2.6,13.1-5.3,16.5-8c3.6-2.7,6.7-5.8,9-9.4c2.1-2.5,3.4-4.5,3.4-5.3v-2.8c0.3-0.3,0.6-0.3,1-0.3c0.3,0,0.6,0,0.9,0.2
			c0,0.2,0.4,0.3,0.4,0.4v25.1h19.1c0.6,0,1.3,0.1,1.7,0.3c0.3,0.2,0.6,0.4,0.6,0.8c0,0.3-0.4,0.4-0.4,0.5c-0.6,0.2-1.3,0.3-1.9,0.3
			H32.7v55.2c0,1.7,0.4,2.9,1.4,3.5c0.6,0.4,1.9,0.7,3.2,0.7c2.7,0,5.4-0.9,7.8-2.4c3-2.3,5-5.8,5-10.5v-8.6c0-0.4,0.4-1,0.7-1.3
			c0.3-0.2,1-0.4,1.3-0.4c0.4,0,1,0.2,1.4,0.4c0.3,0.3,0.6,0.9,0.6,1.3v6.7c0,6.7-2.3,11.6-7.1,14.3c-4.6,2.8-10.2,4.2-17.4,4.2
			c-6.7,0-11.7-0.8-14.3-2.4c-4-2.2-6.5-5.1-6.5-9.2L8.9,247L8.9,247z"></path>
		<path class="st0" d="M0.6,361.9v-37.2c-40.8,7-80.8-16.9-89.4-57C-90.8,296-74.3,351.4,0.6,361.9z"></path>
		<path class="st0" d="M99,271.7H61.8c7,40.8-16.8,80.8-57,89.4C33,363.1,88.4,346.6,99,271.7z"></path>
		<path class="st0" d="M-90.2,265H-53c-7-40.8,16.9-80.7,57-89.3C-24.2,173.7-79.6,190.2-90.2,265z"></path>
		<path class="st0" d="M8.4,174.8v37.1c40.8-6.9,80.8,16.9,89.3,57.1C99.7,240.7,83.2,185.2,8.4,174.8z"></path>
		<path class="st0" d="M108.9,265c0-4.1,0.9-8.6,2.4-13.4c1.7-5.1,4.1-10,7.4-14.4c3.1-4.5,7.1-8.2,11.6-11s9.8-4.3,15.5-4.3
			c4.3,0,8.9,1.1,13.6,3.2c4.8,2.2,8.9,5.2,12.5,9.4c3.9,3.9,6.5,8.6,7.9,13.7h-15.1c-5.5-7-11.8-10.8-18.7-10.8
			c-4.3,0-8.4,1.5-12,4.1c-3.7,2.8-6.6,6.6-9,11c-1.7,3.9-2.9,8-3.2,12.5L108.9,265L108.9,265z"></path>
		<path class="st0" d="M181.7,265c1.3-3.4,3-6.7,5.1-9.7c2.3-2.6,4.6-4.7,7.1-6.4c2.4-1.7,4.7-3,7.2-3.8c2.4-0.9,4.9-1.1,7.3-1.1
			c5.1,0,9.7,1.4,14.1,4.5c4.3,3.1,7.9,7.4,10.5,12.7c0.7,1.1,1.1,2.4,1.7,3.8h-15.9c-1-1.1-2-2.1-3.1-3c-2.3-1.6-5.1-2.4-8-2.4
			c-4.3,0-8,1.8-11,5.4H181.7z"></path>
		<path class="st0" d="M274.5,265c1-3.2,2.7-6.4,4.8-9.3c2.3-3.4,5.1-6.4,8.9-8.6c3.4-2.1,7.5-3.1,12.1-3.1c4.5,0,9,1.3,13.3,4.2
			c4.3,2.8,7.9,6.8,10.5,12c0.9,1.5,1.5,3.1,2,4.7h-14c-1.3-1.7-2.8-3.2-4.6-4.5c-2.1-1.3-4.4-1.9-7-1.9c-4,0.2-7.1,1.5-9.7,4.1
			c-0.7,0.6-1.3,1.5-2,2.3L274.5,265L274.5,265L274.5,265z"></path>
		<path class="st0" d="M330.8,265c0.6-2.3,1.5-4.3,2.4-6c2.8-5.1,6.3-8.7,10.2-11.2c4.3-2.6,8.5-3.8,12.6-3.8c4,0,7.4,0.8,10.6,2.8
			c3.1,1.7,5.4,4.5,6.7,8v-9.1h11.6v19.2h-16.2c-1-1.3-2.3-2.6-3.6-3.6c-2.3-1.8-5.1-2.8-7.9-2.8c-3.1,0-5.9,1-8.2,2.8
			c-1.3,1-2.5,2.3-3.5,3.6L330.8,265L330.8,265L330.8,265z"></path>
		<path class="st0" d="M390,265c1-3.2,2.6-6.4,4.8-9.3c2.3-3.4,5.1-6.4,8.8-8.6c3.5-2.1,7.6-3.1,12.1-3.1c4.6,0,9.1,1.3,13.4,4.2
			c4.3,2.8,7.9,6.8,10.5,12c0.8,1.5,1.5,3.1,2,4.7h-14c-1.3-1.7-2.8-3.2-4.6-4.5c-2.1-1.3-4.4-1.9-7.1-1.9c-3.9,0.2-7.1,1.5-9.7,4.1
			c-0.6,0.6-1.3,1.5-1.9,2.3L390,265L390,265z"></path>
		<path class="st0" d="M110.5,278.3c-0.9-3.9-1.3-8.4-1.5-12.9c0-0.2,0-0.3,0-0.5h12.9c0,0.6,0,1.3,0,2c0,4.1,0.7,8,1.8,11.4H110.5z
			"></path>
		<path class="st0" d="M179.2,278.3c0-0.2,0-0.2,0-0.4c0.2-4.5,1-9,2.4-13.1h15c-0.2,0.2-0.2,0.2-0.3,0.4c-2.3,3.9-3.8,8.4-4.1,13.1
			H179.2z"></path>
		<path class="st0" d="M223.3,278.3c0-3.2-0.7-6.4-2.2-9.2c-0.6-1.7-1.5-3.1-2.4-4.3h16c1.5,4.1,2.3,8.6,2.3,13.1c0,0.2,0,0.2,0,0.4
			H223.3L223.3,278.3z"></path>
		<path class="st0" d="M238.5,264.9h12.9v13.4h-12.9V264.9z M256.2,264.9h12.9v13.4h-12.9V264.9z"></path>
		<path class="st0" d="M272.2,278.3c0-0.4,0-0.4,0-0.8c0-3.5,0.5-7.1,1.8-11c0.2-0.5,0.3-1.1,0.5-1.7h14.2c-1.5,2-2.5,4.1-3.1,6.4
			h29.8c-0.7-1.9-1.5-3.9-3-5.8c-0.2-0.2-0.3-0.3-0.3-0.5h14c1.3,3.9,2,8.4,2,13c0,0.1,0,0.3,0,0.4H272.2L272.2,278.3z"></path>
		<path class="st0" d="M328.7,278.3c0-0.4,0-1.1,0-1.7c0.2-4.3,0.8-8.4,1.9-11.8h14.8c-0.9,1.1-1.5,2.4-2,3.9
			c-1.1,3-1.8,6.3-1.8,9.5h-12.9V278.3z"></path>
		<path class="st0" d="M372.9,278.3L372.9,278.3c0-3.4-0.7-6.7-2.2-9.7c-0.6-1.3-1.3-2.6-2.1-3.8h16.2v13.4h-11.9V278.3z"></path>
		<path class="st0" d="M387.7,278.3c0-0.4,0-0.4,0-0.8c0-3.5,0.5-7.1,1.8-11c0.2-0.5,0.3-1.1,0.4-1.7h14.3c-1.5,2-2.4,4.1-3.1,6.4
			h29.8c-0.7-1.9-1.5-3.9-3-5.8c-0.2-0.2-0.3-0.3-0.3-0.5h14c1.3,3.9,1.9,8.4,1.9,13c0,0.1,0,0.3,0,0.4H387.7L387.7,278.3z"></path>
		<path class="st0" d="M110.5,278.3c1,4.1,2.1,8,3.8,11.5c3.1,6.9,7.5,12.3,12.8,16.2c5.2,3.8,11.2,6.1,17.6,6.5c3,0,6-0.4,9.5-1.3
			c3.1-0.8,6.4-2.3,9.7-4.5c3.4-1.9,6.4-4.5,9-8c2.8-3.2,5.1-7.2,6.7-11.8h-15.5c-5,6.4-11,9.9-17.9,10c-3.1,0-6.1-0.9-9.2-2.4
			c-2.8-1.3-5.4-3.4-7.6-6c-2.3-2.8-4.1-5.9-5.4-9.7c0-0.2-0.2-0.5-0.2-0.7h-13.3V278.3L110.5,278.3z"></path>
		<path class="st0" d="M179.2,278.3c0.2,6.1,1.5,12,4.1,17.1c2.6,5.2,6.1,9.5,10.6,12.6c4.3,3.1,9.2,4.5,14.2,4.5
			c5.4,0,10-1.5,14.5-4.5c4.4-3.1,8-7.4,10.5-12.8c2.6-5.1,3.9-10.8,3.9-16.9h-13.6c0,0.2,0,0.3,0,0.5c0,3.6-0.6,6.7-1.9,9.7
			c-1.3,2.8-3.1,5.1-5.6,6.7c-2.3,1.7-5,2.6-8.1,2.8c-2.9-0.2-5.4-1.1-7.7-3c-2.3-1.7-4.3-4.1-5.6-6.9c-1.3-3-2.1-6.1-2.3-9.3
			c0-0.2,0-0.3,0-0.5L179.2,278.3L179.2,278.3z"></path>
		<path class="st0" d="M238.5,224.7h12.9V265h-12.9V224.7z M256.2,224.7h12.9V265h-12.9V224.7z M238.5,278.3h12.9v32.5h-12.9V278.3z
			 M256.2,278.3h12.9v32.5h-12.9V278.3z"></path>
		<path class="st0" d="M272.2,278.3c-0.2,0.9-0.2,1.5-0.3,2.2c0.2,3.9,0.9,8,2.4,11.8c1.5,3.9,3.8,7.4,6.2,10.5
			c2.8,3.1,5.9,5.6,9.3,7.2c3.7,1.8,7.2,2.6,11.2,2.6c4.1-0.2,7.8-1.1,11.2-2.8c3.5-1.7,6.3-4.3,8.7-7.2c2.4-3.1,4.1-6.5,5.6-10.5
			H312c-2.8,3.6-6.7,5.6-11.4,5.9c-2.2-0.2-4.4-0.7-6.5-1.8c-1.9-1-3.8-2.4-5.2-4.5c-1.5-1.7-2.5-4.1-3-6.7h41.9
			c0.4-2.4,0.4-4.7,0.4-6.7H272.2z"></path>
		<path class="st0" d="M328.7,278.3c0.2,6.3,1.5,12.1,3.9,17.1c2.6,5.6,6.1,9.9,10.2,12.7c4.1,3,8.3,4.4,12.9,4.4
			c3.3,0,6.5-0.8,9.7-2.6c3-1.8,5.6-4.6,7.7-8c-0.3,6.7-2.1,11.8-5.4,15.1c-3.1,3.1-7,4.7-11.3,4.7c-2.6,0-5-0.6-7.2-1.7
			c-2.3-1.1-4.1-2.6-5.1-4.3h-14.8c2.2,6.9,5.6,12.3,10.6,16.1c4.9,3.7,10.3,5.6,16.1,5.6c3.8,0,7.4-0.6,10.8-2.1
			c3.5-1.7,6.5-3.8,9.3-6.9c2.6-3,4.8-6.7,6.5-11.2c1.6-4.5,2.3-9.5,2.3-15.1v-23.8h-12c0,3.5-0.7,6.5-2,9.7c-1.1,3-3,5.4-5.2,7.2
			c-2.4,1.8-5.2,2.8-8.6,2.8c-3-0.2-5.8-1.1-8-3c-2.3-1.8-4.1-4.1-5.4-7.1c-1.1-2.8-1.8-6-2-9.3c0-0.2,0-0.2,0-0.3L328.7,278.3
			L328.7,278.3z"></path>
		<path class="st0" d="M387.7,278.3c-0.2,0.9-0.2,1.5-0.3,2.2c0.2,3.9,0.9,8,2.4,11.8c1.4,3.9,3.8,7.4,6.2,10.5
			c2.8,3.1,5.9,5.6,9.3,7.2c3.7,1.8,7.2,2.6,11.2,2.6c4.1-0.2,7.7-1.1,11.2-2.8c3.4-1.7,6.2-4.3,8.7-7.2c2.4-3.1,4.1-6.5,5.6-10.5
			h-14.5c-2.8,3.6-6.7,5.6-11.5,5.9c-2.1-0.2-4.4-0.7-6.4-1.8c-1.9-1-3.8-2.4-5.2-4.5c-1.5-1.7-2.4-4.1-3-6.7h41.9
			c0.3-2.4,0.3-4.7,0.3-6.7H387.7z"></path>
	</g>
</g>
</svg>
