<?xml version="1.0"?>
<!--?xml version="1.0" encoding="UTF-8" standalone="no"?-->
<svg xmlns="http://www.w3.org/2000/svg" viewBox="0 0 265.48 222.72" height="222.72pt" width="265.48pt">

  <path d="m 75.688,33 -13.71,19.38 v 85.98 h 13.71 V 74.175 h 6.757 L 93.793,58.432 H 75.688 Z M 33.005,55.05 V 78.173 L 49.378,55.05 Z m 77.755,3.75 c -6.59,0 -11.785,1.912 -15.61,5.73 -3.818,3.825 -5.73,9.075 -5.73,15.75 v 13.718 c 0,8.992 3.87,15.482 11.61,19.442 -2.512,0.58 -3.802,2.82 -4.222,6.51 -0.473,4.15 2.805,5.07 4.352,5.55 -4.645,1.16 -8.252,3.24 -10.81,6.24 -2.565,3 -3.847,6.99 -3.847,11.34 0,5.43 1.642,9.41 4.935,12.6 3.285,3.2 9.762,4.79 15.852,4.79 h 10.91 c 9.63,0 20.17,-8.21 20.17,-17.39 0,-11.93 -9.83,-18.45 -18.37,-18.45 h -7.96 c -3.07,0 -4.63,-2.7 -4.06,-4.94 0.54,-2.11 0.87,-4.42 5.1,-4.8 7.35,-0.64 12.62,-2.8 15.82,-6.38 3.2,-3.58 4.79,-8.42 4.79,-14.513 V 70.702 l 7.02,-9.727 h -16.6 c -1.07,-0.578 -2.71,-1.08 -4.94,-1.523 -2.23,-0.435 -5.03,-0.652 -8.41,-0.652 z m 0.73,11.752 c 2.5,0 4.73,0.75 6.67,2.25 1.93,1.5 2.9,3.9 2.9,7.186 v 14.294 c 0,3.098 -0.97,5.423 -2.9,6.978 -1.94,1.54 -4.17,2.31 -6.67,2.31 -2.62,0 -4.87,-0.77 -6.75,-2.31 -1.89,-1.555 -2.84,-3.88 -2.84,-6.978 V 79.988 c 0,-3.286 0.95,-5.686 2.84,-7.186 1.88,-1.5 4.13,-2.25 6.75,-2.25 z m 33.13,1.41 v 38.748 l 27.74,-38.748 z m -97.905,2.73 -13.71,19.155 v 44.993 h 13.71 z m 59.255,62.718 h 14.28 c 4.21,0 6.01,2.64 6.01,5.22 0,2.58 -3.96,5.22 -7.08,5.22 h -13.37 c -2.57,0 -6.94,-1.2 -6.828,-5.22 0.113,-4.04 3.848,-5.22 6.988,-5.22 z M 178,169.68 v 19.73 h 2.45 v -8.11 c 0,-0.48 0,-0.84 0.16,-1.17 0.48,-1.33 1.7,-2.45 3.29,-2.45 2.3,0 3.11,1.81 3.11,4.01 v 7.72 h 2.44 v -8 c 0,-4.64 -2.88,-5.75 -4.69,-5.75 -0.92,0 -1.78,0.25 -2.51,0.69 -0.75,0.39 -1.35,1.03 -1.74,1.72 h -0.1 v -8.39 z m 51.93,0 v 8 h -0.1 c -0.6,-1.05 -1.98,-2.02 -4.07,-2.02 -3.25,0 -6.06,2.72 -6.03,7.22 0,4.09 2.53,6.84 5.79,6.84 2.19,0 3.8,-1.14 4.55,-2.64 h 0.1 l 0.12,2.33 h 2.19 c -0.1,-0.91 -0.11,-2.27 -0.11,-3.47 v -16.26 z m -167.803,1 6.143,18.73 h 2.67 l 6.697,-18.73 H 75.05 l -3.165,9.26 c -0.863,2.44 -1.613,4.81 -2.138,6.97 h -0.08 c -0.525,-2.16 -1.222,-4.47 -2.002,-7 l -2.918,-9.23 z m 103.973,0 -6.36,18.73 h 2.5 l 1.95,-5.89 h 6.64 l 2,5.89 h 2.59 l -6.4,-18.73 z m -55.35,2.06 -2.38,0.74 v 2.48 h -2.09 v 1.86 h 2.09 v 7.34 c 0,1.59 0.27,2.78 0.94,3.53 0.58,0.64 1.5,1.03 2.64,1.03 0.94,0 1.69,-0.17 2.17,-0.33 L 114,187.52 c -0.36,0.11 -0.75,0.17 -1.41,0.17 -1.36,0 -1.84,-0.94 -1.84,-2.61 v -7.26 h 3.5 v -1.86 h -3.5 z m 56.69,0.1 h 0.1 c 0.28,1.09 0.55,2.2 0.94,3.42 l 1.86,5.39 h -5.64 l 1.84,-5.42 c 0.36,-1.14 0.67,-2.3 0.92,-3.39 z m -83.51,2.81 c -3.923,0 -6.345,3.19 -6.345,7.28 0,4.03 2.505,6.79 6.622,6.79 2.146,0 3.638,-0.48 4.5,-0.87 l -0.442,-1.72 c -0.893,0.36 -1.972,0.67 -3.728,0.67 -2.445,0 -4.53,-1.37 -4.59,-4.68 h 9.428 c 0.08,-0.27 0.08,-0.66 0.08,-1.17 0,-2.47 -1.14,-6.33 -5.527,-6.33 z m 62.69,0 c -3.92,0 -6.34,3.19 -6.34,7.28 0,4.03 2.5,6.79 6.61,6.79 2.14,0 3.65,-0.48 4.51,-0.87 l -0.44,-1.72 c -0.9,0.36 -1.98,0.67 -3.73,0.67 -2.45,0 -4.53,-1.37 -4.59,-4.68 h 9.43 c 0.1,-0.27 0.1,-0.66 0.1,-1.17 0,-2.47 -1.14,-6.33 -5.53,-6.33 z m 52.18,0 c -3.92,0 -6.34,3.19 -6.34,7.28 0,4.03 2.5,6.79 6.62,6.79 2.14,0 3.64,-0.48 4.5,-0.87 l -0.45,-1.72 c -0.89,0.36 -1.97,0.67 -3.72,0.67 -2.45,0 -4.53,-1.37 -4.59,-4.68 h 9.43 c 0.1,-0.27 0.1,-0.66 0.1,-1.17 0,-2.47 -1.13,-6.33 -5.53,-6.33 z m -99.615,0 c -2.22,0 -3.78,1.25 -4.447,2.5 h -0.08 l -0.135,-2.2 h -2.175 c 0.09,1.12 0.112,2.23 0.112,3.64 v 9.81 h 2.445 v -8.11 c 0,-0.39 0.08,-0.84 0.165,-1.14 0.45,-1.36 1.703,-2.5 3.285,-2.5 2.315,0 3.105,1.83 3.105,4 v 7.75 h 2.46 v -8.03 c 0,-4.61 -2.89,-5.72 -4.762,-5.72 z m 39.155,0 c -1.65,0 -3.15,1.14 -3.76,2.94 h -0.1 l -0.12,-2.64 h -2.13 c 0.1,1.26 0.11,2.61 0.11,4.2 v 9.25 h 2.44 v -7.17 c 0,-0.41 0,-0.8 0.1,-1.17 0.33,-1.8 1.56,-3.11 3.27,-3.11 0.34,0 0.59,0 0.87,0.1 v -2.28 c -0.22,-0.1 -0.42,-0.1 -0.66,-0.1 z m 73.35,0 c -1.68,0 -3.33,0.46 -4.44,1.16 l 0.55,1.64 c 0.95,-0.64 2.26,-1 3.54,-1 2.75,0 3.05,2.01 3.05,3.12 v 0.27 c -5.19,0 -8.09,1.75 -8.09,5.01 0,1.94 1.4,3.86 4.12,3.86 1.92,0 3.39,-0.95 4.12,-2 h 0.1 l 0.22,1.69 h 2.19 c -0.14,-0.91 -0.19,-2.05 -0.19,-3.22 v -5.03 c 0,-2.7 -1,-5.5 -5.15,-5.5 z m -94.77,0.3 v 7.86 c 0,4.71 2.54,5.9 4.65,5.9 2.39,0 3.84,-1.42 4.45,-2.5 h 0.1 l 0.13,2.19 h 2.17 c -0.1,-1.05 -0.11,-2.27 -0.11,-3.67 v -9.75 h -2.45 v 8.23 c 0,0.47 -0.1,0.92 -0.22,1.25 -0.45,1.11 -1.59,2.25 -3.22,2.25 -2.2,0 -3,-1.75 -3,-4.31 v -7.42 z m -33.185,1.42 c 2.723,0 3.39,2.45 3.368,3.98 h -7.118 c 0.188,-1.7 1.245,-3.98 3.75,-3.98 z m 62.685,0 c 2.72,0 3.39,2.45 3.37,3.98 h -7.12 c 0.2,-1.7 1.25,-3.98 3.75,-3.98 z m 52.19,0 c 2.72,0 3.39,2.45 3.36,3.98 h -7.12 c 0.19,-1.7 1.25,-3.98 3.76,-3.98 z m 27.68,0.2 c 1.84,0 3.17,1.27 3.53,2.8 0.1,0.33 0.11,0.72 0.11,1.06 v 2.33 c 0,0.39 0,0.73 -0.11,1.06 -0.45,1.81 -1.95,2.92 -3.58,2.92 -2.62,0 -3.99,-2.25 -3.99,-5.01 0,-2.94 1.51,-5.16 4.04,-5.16 z m -11.84,4.97 v 2.33 c 0,0.25 0,0.53 -0.11,0.78 -0.39,1.14 -1.54,2.25 -3.31,2.25 -1.23,0 -2.28,-0.72 -2.28,-2.33 0,-2.62 3.03,-3.09 5.7,-3.03 z"></path>

</svg>
