<?xml version="1.0"?>

<!-- Generator: Adobe Illustrator 19.1.0, SVG Export Plug-In . SVG Version: 6.00 Build 0)  -->
<svg version="1.1" id="Capa_1" xmlns="http://www.w3.org/2000/svg" xmlns:xlink="http://www.w3.org/1999/xlink" x="0px" y="0px" width="1920px" height="810px" viewBox="0 0 1920 810" style="enable-background:new 0 0 1920 810;" xml:space="preserve">

<path class="st0" d="M1438.7,321v49.3h-11.2V321H1438.7z"></path>
<path class="st0" d="M1448.8,344.5c0-3.7-0.1-6.7-0.3-9.6h5.7l0.4,5.8h0.1c1.8-3.4,5.9-6.7,11.7-6.7c4.9,0,12.5,2.9,12.5,15.1v21.1
	h-6.4v-20.4c0-5.7-2.1-10.5-8.2-10.5c-4.2,0-7.5,3-8.6,6.6c-0.3,0.8-0.4,1.9-0.4,3v21.3h-6.4V344.5z"></path>
<path class="st0" d="M1496.9,324.7v10.2h9.2v4.9h-9.2v19.1c0,4.4,1.2,6.9,4.8,6.9c1.7,0,2.9-0.2,3.7-0.4l0.3,4.8
	c-1.2,0.5-3.2,0.9-5.7,0.9c-3,0-5.4-1-6.9-2.7c-1.8-1.9-2.5-5-2.5-9.2v-19.3h-5.5v-4.9h5.5v-8.5L1496.9,324.7z"></path>
<path class="st0" d="M1516.5,353.8c0.1,8.7,5.7,12.3,12.1,12.3c4.6,0,7.4-0.8,9.8-1.8l1.1,4.6c-2.3,1-6.1,2.2-11.8,2.2
	c-10.9,0-17.4-7.2-17.4-17.8c0-10.7,6.3-19.1,16.6-19.1c11.6,0,14.6,10.2,14.6,16.7c0,1.3-0.1,2.3-0.2,3H1516.5z M1535.3,349.2
	c0.1-4.1-1.7-10.5-8.9-10.5c-6.5,0-9.4,6-9.9,10.5H1535.3z"></path>
<path class="st0" d="M1580,334.9c-0.1,2.6-0.3,5.4-0.3,9.7v20.5c0,8.1-1.6,13.1-5,16.2c-3.4,3.2-8.4,4.2-12.9,4.2
	c-4.2,0-8.9-1-11.8-2.9l1.6-4.9c2.3,1.5,6,2.8,10.4,2.8c6.6,0,11.4-3.4,11.4-12.4v-3.9h-0.1c-2,3.3-5.8,5.9-11.3,5.9
	c-8.8,0-15.1-7.5-15.1-17.3c0-12,7.8-18.8,15.9-18.8c6.1,0,9.5,3.2,11,6.1h0.1l0.3-5.3H1580z M1573.3,348.9c0-1.1-0.1-2-0.4-2.9
	c-1.2-3.7-4.3-6.8-9-6.8c-6.1,0-10.5,5.2-10.5,13.4c0,6.9,3.5,12.7,10.5,12.7c4,0,7.5-2.5,8.9-6.6c0.4-1.1,0.5-2.3,0.5-3.4V348.9z"></path>
<path class="st0" d="M1589.9,346c0-4.2-0.1-7.8-0.3-11h5.6l0.2,6.9h0.3c1.6-4.8,5.5-7.8,9.8-7.8c0.7,0,1.2,0.1,1.8,0.2v6.1
	c-0.7-0.1-1.3-0.2-2.2-0.2c-4.5,0-7.7,3.4-8.6,8.3c-0.1,0.9-0.3,1.9-0.3,3v18.9h-6.4V346z"></path>
<path class="st0" d="M1633.1,370.3l-0.5-4.5h-0.2c-2,2.8-5.8,5.3-10.8,5.3c-7.2,0-10.8-5-10.8-10.2c0-8.6,7.6-13.2,21.3-13.2V347
	c0-2.9-0.8-8.2-8-8.2c-3.3,0-6.7,1-9.2,2.6l-1.5-4.2c2.9-1.9,7.2-3.1,11.6-3.1c10.8,0,13.5,7.4,13.5,14.5v13.2
	c0,3.1,0.1,6.1,0.6,8.5H1633.1z M1632.1,352.2c-7-0.1-15,1.1-15,8c0,4.2,2.8,6.1,6.1,6.1c4.6,0,7.5-2.9,8.6-5.9
	c0.2-0.7,0.4-1.4,0.4-2V352.2z"></path>
<path class="st0" d="M1656.2,324.7v10.2h9.2v4.9h-9.2v19.1c0,4.4,1.2,6.9,4.8,6.9c1.7,0,2.9-0.2,3.7-0.4l0.3,4.8
	c-1.2,0.5-3.2,0.9-5.7,0.9c-3,0-5.4-1-6.9-2.7c-1.8-1.9-2.5-5-2.5-9.2v-19.3h-5.5v-4.9h5.5v-8.5L1656.2,324.7z"></path>
<path class="st0" d="M1679.8,325c0.1,2.2-1.5,4-4.1,4c-2.3,0-3.9-1.8-3.9-4c0-2.3,1.7-4,4-4C1678.3,320.9,1679.8,322.7,1679.8,325z
	 M1672.6,370.3v-35.4h6.4v35.4H1672.6z"></path>
<path class="st0" d="M1721.8,352.3c0,13.1-9.1,18.8-17.6,18.8c-9.6,0-17-7-17-18.2c0-11.8,7.7-18.8,17.5-18.8
	C1714.9,334.1,1721.8,341.5,1721.8,352.3z M1693.7,352.7c0,7.8,4.5,13.6,10.7,13.6c6.1,0,10.7-5.8,10.7-13.7c0-6-3-13.6-10.6-13.6
	S1693.7,346,1693.7,352.7z"></path>
<path class="st0" d="M1729.9,344.5c0-3.7-0.1-6.7-0.3-9.6h5.7l0.4,5.8h0.1c1.8-3.4,5.9-6.7,11.7-6.7c4.9,0,12.5,2.9,12.5,15.1v21.1
	h-6.4v-20.4c0-5.7-2.1-10.5-8.2-10.5c-4.2,0-7.5,3-8.6,6.6c-0.3,0.8-0.4,1.9-0.4,3v21.3h-6.4V344.5z"></path>
<path class="st0" d="M1437,418.1h-13.2v-9.4h37.9v9.4h-13.5V458H1437V418.1z"></path>
<path class="st0" d="M1471.6,441.5c0.1,8.7,5.7,12.3,12.1,12.3c4.6,0,7.4-0.8,9.8-1.8l1.1,4.6c-2.3,1-6.1,2.2-11.8,2.2
	c-10.9,0-17.4-7.2-17.4-17.8c0-10.7,6.3-19.1,16.6-19.1c11.6,0,14.6,10.2,14.6,16.7c0,1.3-0.1,2.3-0.2,3H1471.6z M1490.5,436.9
	c0.1-4.1-1.7-10.5-8.9-10.5c-6.5,0-9.4,6-9.9,10.5H1490.5z"></path>
<path class="st0" d="M1529.9,456.7c-1.7,0.9-5.4,2-10.2,2c-10.7,0-17.6-7.2-17.6-18.1c0-10.9,7.5-18.8,19-18.8c3.8,0,7.2,1,8.9,1.8
	l-1.5,5c-1.5-0.9-3.9-1.7-7.5-1.7c-8.1,0-12.5,6-12.5,13.4c0,8.2,5.3,13.2,12.3,13.2c3.7,0,6.1-1,7.9-1.8L1529.9,456.7z"></path>
<path class="st0" d="M1537.4,406.1h6.4v22.1h0.1c1-1.8,2.6-3.4,4.6-4.5c1.9-1.1,4.2-1.8,6.6-1.8c4.8,0,12.4,2.9,12.4,15.1V458h-6.4
	v-20.3c0-5.7-2.1-10.5-8.2-10.5c-4.2,0-7.5,2.9-8.6,6.4c-0.4,0.9-0.4,1.8-0.4,3.1V458h-6.4V406.1z"></path>
<path class="st0" d="M1578,432.2c0-3.7-0.1-6.7-0.3-9.6h5.7l0.4,5.8h0.1c1.8-3.4,5.9-6.7,11.7-6.7c4.9,0,12.5,2.9,12.5,15.1V458
	h-6.4v-20.4c0-5.7-2.1-10.5-8.2-10.5c-4.2,0-7.5,3-8.6,6.6c-0.3,0.8-0.4,1.9-0.4,3V458h-6.4V432.2z"></path>
<path class="st0" d="M1650.6,440.1c0,13.1-9.1,18.8-17.6,18.8c-9.6,0-17-7-17-18.2c0-11.8,7.7-18.8,17.5-18.8
	C1643.7,421.8,1650.6,429.2,1650.6,440.1z M1622.5,440.4c0,7.8,4.5,13.6,10.7,13.6c6.1,0,10.7-5.8,10.7-13.7c0-6-3-13.6-10.6-13.6
	S1622.5,433.7,1622.5,440.4z"></path>
<path class="st0" d="M1658.7,406.1h6.4V458h-6.4V406.1z"></path>
<path class="st0" d="M1708,440.1c0,13.1-9.1,18.8-17.6,18.8c-9.6,0-17-7-17-18.2c0-11.8,7.8-18.8,17.5-18.8
	C1701.1,421.8,1708,429.2,1708,440.1z M1679.9,440.4c0,7.8,4.5,13.6,10.7,13.6c6.1,0,10.7-5.8,10.7-13.7c0-6-3-13.6-10.6-13.6
	S1679.9,433.7,1679.9,440.4z"></path>
<path class="st0" d="M1746.6,422.7c-0.1,2.6-0.3,5.4-0.3,9.7v20.5c0,8.1-1.6,13.1-5,16.2c-3.4,3.2-8.4,4.2-12.9,4.2
	c-4.2,0-8.9-1-11.8-2.9l1.6-4.9c2.3,1.5,6,2.8,10.4,2.8c6.6,0,11.4-3.4,11.4-12.4V452h-0.1c-2,3.3-5.8,5.9-11.3,5.9
	c-8.8,0-15.1-7.5-15.1-17.3c0-12,7.8-18.8,15.9-18.8c6.1,0,9.5,3.2,11,6.1h0.1l0.3-5.3H1746.6z M1740,436.6c0-1.1-0.1-2-0.4-2.9
	c-1.2-3.7-4.3-6.8-9-6.8c-6.1,0-10.5,5.2-10.5,13.4c0,6.9,3.5,12.7,10.5,12.7c4,0,7.5-2.5,8.9-6.6c0.4-1.1,0.5-2.3,0.5-3.4V436.6z"></path>
<path class="st0" d="M1759.3,422.7l7.7,20.9c0.8,2.3,1.7,5.1,2.3,7.2h0.1c0.7-2.1,1.4-4.8,2.3-7.4l7-20.8h6.8l-9.7,25.2
	c-4.6,12.1-7.8,18.4-12.1,22.2c-3.1,2.8-6.3,3.9-7.9,4.2l-1.6-5.4c1.6-0.5,3.7-1.5,5.6-3.1c1.8-1.4,4-3.9,5.4-7.2
	c0.3-0.7,0.5-1.2,0.5-1.5c0-0.4-0.1-0.9-0.4-1.7l-13.1-32.6H1759.3z"></path>
<path class="st0" d="M1469.6,554.3c-7-2-12.9-4.2-19.4-6.9c-1.1-0.4-2.3-0.7-3.4-0.7c-11.1-0.7-21.5-8.9-21.5-25
	c0-14.8,9.4-25.9,24.1-25.9c15.1,0,23.3,11.4,23.3,24.9c0,11.2-5.2,19.1-11.7,22v0.3c3.8,1.1,8,2,11.9,2.8L1469.6,554.3z
	 M1460.8,521c0-9-4.2-16.4-11.8-16.4s-12,7.5-12,16.7c-0.1,9.4,4.5,16.5,11.9,16.5C1456.4,537.7,1460.8,530.6,1460.8,521z"></path>
<path class="st0" d="M1510,536.1c0,3.7,0.1,6.9,0.3,9.7h-5.7l-0.4-5.8h-0.1c-1.7,2.8-5.4,6.6-11.7,6.6c-5.6,0-12.2-3.1-12.2-15.5
	v-20.7h6.4V530c0,6.7,2,11.3,7.9,11.3c4.3,0,7.3-3,8.5-5.8c0.4-1,0.6-2.1,0.6-3.3v-21.7h6.4V536.1z"></path>
<path class="st0" d="M1540.3,545.8l-0.5-4.5h-0.2c-2,2.8-5.8,5.3-10.8,5.3c-7.2,0-10.8-5-10.8-10.2c0-8.6,7.6-13.2,21.3-13.2v-0.7
	c0-2.9-0.8-8.2-8-8.2c-3.3,0-6.7,1-9.2,2.6l-1.5-4.2c2.9-1.9,7.2-3.1,11.6-3.1c10.8,0,13.5,7.4,13.5,14.5v13.2
	c0,3.1,0.1,6.1,0.6,8.5H1540.3z M1539.3,527.7c-7-0.1-15,1.1-15,8c0,4.2,2.8,6.1,6.1,6.1c4.6,0,7.5-2.9,8.6-5.9
	c0.2-0.7,0.4-1.4,0.4-2V527.7z"></path>
<path class="st0" d="M1555.9,493.9h6.4v51.9h-6.4V493.9z"></path>
<path class="st0" d="M1580.4,500.4c0.1,2.2-1.5,3.9-4.1,3.9c-2.3,0-3.9-1.8-3.9-3.9c0-2.3,1.7-4,4-4
	C1578.8,496.4,1580.4,498.2,1580.4,500.4z M1573.2,545.8v-35.4h6.4v35.4H1573.2z"></path>
<path class="st0" d="M1598,500.2v10.2h9.2v4.9h-9.2v19.1c0,4.4,1.2,6.9,4.8,6.9c1.7,0,2.9-0.2,3.7-0.4l0.3,4.8
	c-1.2,0.5-3.2,0.9-5.7,0.9c-3,0-5.4-0.9-6.9-2.7c-1.8-1.9-2.5-5-2.5-9.2v-19.3h-5.5v-4.9h5.5v-8.5L1598,500.2z"></path>
<path class="st0" d="M1617.5,510.4l7.7,20.9c0.8,2.3,1.7,5.1,2.3,7.2h0.1c0.7-2.1,1.4-4.8,2.3-7.4l7-20.8h6.8l-9.6,25.2
	c-4.6,12.1-7.8,18.3-12.1,22.1c-3.1,2.8-6.3,3.9-7.9,4.2l-1.6-5.4c1.6-0.5,3.7-1.5,5.6-3.1c1.8-1.4,4-3.9,5.4-7.2
	c0.3-0.7,0.5-1.2,0.5-1.5s-0.1-0.9-0.4-1.7l-13.1-32.6H1617.5z"></path>
<path class="st0" d="M1389.6,340.9c0,4.6-3.7,8.3-8.3,8.3s-8.3-3.7-8.3-8.3s3.7-8.3,8.3-8.3S1389.6,336.3,1389.6,340.9z
	 M1381.3,424.3c-4.6,0-8.3,3.7-8.3,8.3c0,4.6,3.7,8.3,8.3,8.3s8.3-3.7,8.3-8.3C1389.6,428,1385.9,424.3,1381.3,424.3z M1381.3,516.1
	c-4.6,0-8.3,3.7-8.3,8.3s3.7,8.3,8.3,8.3s8.3-3.7,8.3-8.3S1385.9,516.1,1381.3,516.1z"></path>
<path class="st0" d="M748.8,316.3h-90v-63.6h257.5v63.6h-91.5v271.4h-76V316.3z"></path>
<path class="st0" d="M1191.1,645.3c-47.7-13.9-87.5-28.3-132.2-47.2c-7.5-3-15.4-4.5-23.4-5c-75.6-5-146.1-60.6-146.1-170
	c0-100.4,63.6-176,163.5-176c102.4,0,158.6,77.5,158.6,169c0,76-35.3,129.7-79.5,149.6v2c25.8,7.5,54.7,13.4,81,18.9L1191.1,645.3z
	 M1131.5,419.1c0-61.1-28.8-111.8-80.5-111.8c-51.7,0-81.5,50.7-81.5,113.3c-0.5,63.6,30.3,112.3,81,112.3
	C1101.7,533,1131.5,484.7,1131.5,419.1z"></path>
<path class="st0" d="M636.2,587.6h-65.3c2.3-33.5,3.4-71.9,3.4-115.3c0-43-2.8-80.7-8.2-113.1l69.9-7c-2.1,31.4-3.2,71.4-3.2,120.1
	C632.8,513.9,633.9,552.4,636.2,587.6z"></path>
<path class="st0" d="M566.4,289.2c0.2,1.5,0.4,2.9,0.7,4.3l-340.8,36.1c-7.3,17-24.3,28.9-44,28.9c-26.4,0-47.9-21.4-47.9-47.9
	s21.4-47.9,47.9-47.9c18.7,0,34.9,10.7,42.8,26.4H566.4z M606.9,244.1c-17,0-31.5,10.4-37.6,25.1L368,203.6c0-0.6,0-1.2,0-1.8
	c0-20.1-16.3-36.3-36.3-36.3c-20.1,0-36.3,16.3-36.3,36.3s16.3,36.3,36.3,36.3c12.4,0,23.4-6.2,29.9-15.7l206.7,49.5
	c-1.4,4.1-2.1,8.4-2.1,13c0,1.5,0.1,3,0.2,4.4c0.2,1.5,0.4,2.9,0.7,4.3c0.9,3.9,2.3,7.7,4.2,11.1L520,331.2
	c-7.5-8.2-18.2-13.3-30.1-13.3c-22.5,0-40.7,18.2-40.7,40.7s18.2,40.7,40.7,40.7c22.5,0,40.7-18.2,40.7-40.7c0-4.9-0.9-9.5-2.4-13.8
	l46.3-35.3c7.4,9.8,19.2,16.1,32.4,16.1c22.5,0,40.7-18.2,40.7-40.7S629.4,244.1,606.9,244.1z"></path>
<path class="st0" d="M1308,594.9h-7.5V250.6h7.5V594.9z"></path>
</svg>
