<?xml version="1.0"?>

<svg xmlns="http://www.w3.org/2000/svg" viewBox="0 0 1282.6 360" height="360" width="1282.6">

  <path d="m 172.4,266.4 c 0,-0.3 3.7,-9.7 8.2,-21.1 7.1,-18 8.2,-20.6 8.8,-20.8 0.7,-0.2 752.7,-1.6 837.6,-1.6 21,0 28,0.1 28,0.4 0,0.5 -17,42.6 -17,43.1 0,0.6 -865.6,0.6 -865.6,0 z" style="opacity:0.5"></path>
  <path d="m 516.5,215.8 c -0.2,-0.3 6.6,-18.8 22.7,-62 12.6,-33.9 23.1,-61.87 23.3,-62.18 0.3,-0.52 0.5,0 0.6,0.42 0.1,0.26 6.8,16.26 15.1,35.56 8.3,19.4 15,35.3 15,35.5 -0.1,0.1 -17.2,11.9 -38,26.2 -20.9,14.3 -38,26.1 -38.1,26.2 -0.1,0.2 9.3,0.4 26.8,0.4 l 26.8,0.1 -26.9,0.1 c -21.3,0.1 -27,0 -27.3,-0.3 z" style="opacity:0.5"></path>
  <path d="m 831.6,218.1 c -13.6,-1.3 -27.2,-8.6 -36.8,-19.7 -4.5,-5.2 -8.4,-10.9 -10.5,-15.2 -0.5,-0.9 -0.9,-1.5 -1.1,-1.5 -0.2,0 -1.6,1.6 -3.1,3.6 -8.8,11.8 -22.1,20.6 -37.5,25.1 -9.1,2.7 -17.4,3.9 -28.7,4.1 -17.4,0.4 -32.5,-1.7 -53.2,-7.3 -1.5,-0.4 -2.9,-0.6 -3,-0.5 -0.1,0.1 0.8,2.1 1.9,4.5 1.2,2.5 2,4.6 1.9,4.7 -0.2,0.4 -62.7,0.4 -62.9,0 -0.1,-0.1 -2.6,-8.8 -5.5,-19.3 -2.9,-10.4 -5.5,-19.3 -5.6,-19.8 -0.4,-0.6 -0.5,-0.7 -0.7,-0.3 -0.2,0.3 -3.8,9.2 -8.1,19.9 l -7.7,19.3 -27,0.1 c -14.8,0 -26.9,0 -26.9,-0.2 0,-0.1 17.1,-11.9 38.1,-26.3 32.8,-22.4 38,-26.1 37.9,-26.7 -0.1,-0.3 -6.9,-16.4 -15.2,-35.7 -8.5,-19.7 -14.9,-35.13 -14.7,-35.29 0.3,-0.39 59.9,-0.31 74.8,0.11 18.7,0.52 22.5,0.99 28.7,3.55 8.3,3.46 15.6,11.53 18.5,20.43 0.3,0.9 0.7,1.7 0.9,1.8 0.2,0.1 1.9,-1.3 3.9,-3.3 12.5,-12.2 27.2,-19.69 45,-22.92 12.4,-2.25 26.4,-2.15 40.9,0.3 8.5,1.44 19.8,4.53 27.4,7.48 3.3,1.24 3.5,1.44 3.2,2.04 -0.4,0.6 -26.2,28.1 -27.1,28.8 -0.7,0.5 -0.8,0.5 -4.2,-0.9 -7.7,-3.2 -17.1,-6 -22.6,-6.9 -1.3,-0.2 -4,-0.3 -6,-0.2 -4.2,0.1 -5.6,0.6 -7.3,2.6 -2.2,2.5 -2.1,4.7 0.4,6.9 2.8,2.4 7.5,3.9 16.7,5.1 8.8,1.2 17.2,3.7 22.4,6.7 2.5,1.5 5.5,4.1 6.4,5.7 0.4,0.6 0.9,1.1 1.1,1.1 0.2,0 1.4,-2 2.6,-4.4 12.8,-25.8 33.1,-44.2 59.4,-53.75 5,-1.82 12.4,-3.74 17.3,-4.46 4.4,-0.65 15.3,-0.48 20.8,0.33 11.9,1.75 21.5,6.05 28.8,12.88 6.7,6.3 11.5,15.7 13.3,25.8 0.2,1.6 0.4,3.3 0.4,3.9 0,1.4 0.5,1.7 1,0.7 0.2,-0.4 3.8,-9.4 8,-19.9 l 7.5,-19.21 27.6,-0.1 28,-0.1 4,11.31 c 2,6.2 8,20 12,30.7 4,10.6 8,19.5 8,19.8 1,0.6 -1,3.7 12,-31 6,-16.1 11,-29.58 11,-29.84 1,-0.42 4,-0.5 28,-0.58 15,-0.1 27,0 27,0.16 1,0.3 -48,123.66 -48,124.06 0,0.1 -13,0.2 -28,0.2 -21,0 -27,-0.1 -27,-0.4 -0.1,-0.2 -5.1,-14.4 -11.1,-31.6 -6.6,-18.8 -11.1,-31.2 -11.4,-31.2 -0.3,-0.1 -4.1,9.6 -12.4,31.2 -6.6,17.3 -12.2,31.5 -12.4,31.6 -0.3,0.1 -12.5,0.1 -27.2,0.1 -21,0 -26.7,-0.1 -26.8,-0.4 -0.1,-0.2 2.1,-7 4.8,-15.1 6,-17.6 5.9,-17.4 5.7,-17.6 -0.2,-0.1 -2.2,1.5 -4.6,3.5 -26.7,22.9 -51.4,33.6 -73,31.5 z m -165.7,-35 c 6.2,-7.2 11.6,-13.5 12.1,-14 l 0.8,-0.9 3.9,2.6 c 7.1,4.7 15.6,8.5 22.7,9.9 4.4,0.9 10.5,0.9 14,0 2.8,-0.7 5.6,-2.3 7.2,-3.9 2.1,-2.3 2.3,-3.8 0.4,-5.8 -2.5,-2.8 -6.5,-4.1 -16.1,-5.5 -10.4,-1.5 -14.9,-2.8 -19.5,-5.5 -2.9,-1.7 -6.5,-4.9 -8.4,-7.6 -1.4,-2.1 -4,-6.9 -4.6,-8.9 -0.2,-0.7 -0.6,-1.2 -0.8,-1.2 -0.2,0 -1.1,1.2 -2.1,2.6 -2.2,3.3 -7,8.1 -10.7,10.7 -3.4,2.4 -8.9,5.2 -13,6.5 -3,1 -8.5,2.2 -9.8,2.3 -0.4,0 -0.8,0.1 -1,0.4 -0.2,0.3 1.4,4.5 6,15.4 3.4,8.3 6.4,15.3 6.5,15.6 0.1,0.3 0.4,0.6 0.7,0.5 0.2,-0.1 5.5,-6 11.7,-13.2 z m 187,6.2 c 12.7,-4 25,-17.8 30.5,-34.1 6.5,-19.6 1.5,-36.6 -11.7,-39.2 -14.4,-2.8 -33.4,14.1 -40.4,35.7 -1.9,6 -2.3,9.1 -2.3,15.6 0,5 0.1,6.2 0.7,8.4 2,7.5 6.3,12.5 12.2,14.1 2.5,0.7 8.1,0.5 11,-0.5 z M 610.8,147.6 c 10,-2.2 15.9,-6.8 17.8,-14 1,-4 -1.1,-7.7 -5.4,-9.7 -2.9,-1.4 -5.7,-1.8 -10.6,-1.7 l -4.5,0.1 -5.6,12.6 c -4.4,9.8 -5.6,12.8 -5.3,13.1 0.5,0.6 10.3,0.3 13.6,-0.4 z m -418.1,68.7 c -0.4,-0.3 6.9,-20.3 31.4,-87.5 17.5,-47.88 32,-87.34 32.2,-87.66 0.2,-0.31 0.6,-0.64 0.9,-0.73 0.3,-0.1 14,-0.27 30.5,-0.39 26,-0.19 30,-0.16 30,0.24 0,0.25 -4,11.94 -8.9,25.97 -5,14.03 -8.9,25.65 -8.8,25.82 0.1,0.2 9.3,0.31 25.4,0.31 13.9,0 25.3,0.11 25.4,0.24 0.1,0.14 -0.3,14.6 -0.8,32.2 -1,36 -1,39 -0.6,38.9 0.2,-0.1 12.1,-16.1 26.5,-35.7 l 26.2,-35.48 77.5,-0.1 c 47.7,0 77.5,0 77.5,0.22 0,0.34 -12,30.76 -12.5,31.76 -0.3,0.6 -0.9,0.6 -24.7,0.6 -13.4,0 -24.6,0.1 -24.8,0.3 -0.5,0.2 -4.3,10.8 -4.3,11.7 0,0.6 -1.6,0.6 24.5,0.1 10.6,-0.2 19.4,-0.4 19.6,-0.3 0.3,0.1 0.4,0.4 0.2,0.8 -0.1,0.4 -3,7.4 -6.5,15.6 l -6.3,14.9 -21.3,0.1 -21.3,0.1 -2.9,6.7 c -1.6,3.7 -2.9,7 -2.8,7.2 0.2,0.4 0.6,0.5 2.3,0.3 3.9,-0.3 46.8,-0.5 47,-0.2 0.1,0.1 -2.7,7.6 -6.2,16.7 l -6.3,16.5 -52.8,0.1 c -29,0 -52.8,0 -52.9,-0.2 -0.2,-0.1 7.9,-21.7 17.9,-48.1 10.1,-26.3 18.3,-48.1 18.4,-48.5 0.2,-0.4 0.1,-0.7 -0.1,-0.7 -0.1,0 -18.7,21.6 -41.2,48.1 -22.4,26.5 -41.2,48.5 -41.6,48.9 l -0.8,0.9 h -26.2 -26.3 l -0.1,-0.7 c -0.1,-0.4 -3.1,-23.1 -6.8,-50.3 -3.6,-27.3 -6.6,-49.7 -6.7,-49.8 -0.1,-0.1 -0.3,0 -0.4,0.2 -0.2,0.1 -8.9,22.8 -19.3,50.3 -10.4,27.6 -19.1,50.3 -19.4,50.5 -0.4,0.3 -6.9,0.4 -30,0.4 -16.2,0 -29.6,-0.1 -29.9,-0.3 z"></path>

</svg>
