<?xml version="1.0"?>
<!--?xml version="1.0" encoding="UTF-8" standalone="no"?-->
<svg xmlns="http://www.w3.org/2000/svg" viewBox="0 0 529.3 269.02" height="269.02pt" width="529.3pt">

  <path d="m 315.93,22 c 2.02,0 2.74,1.369 1.63,3.051 l -8.81,13.382 c -1.1,1.663 -3.67,3.026 -5.63,3.026 h -32.98 c -2.02,0 -2.73,-1.344 -1.63,-3.026 l 8.93,-13.407 C 278.55,23.369 281.12,22 283.12,22 Z m 0,0 M 71.443,22 c 2,0 2.738,1.369 1.638,3.051 l -8.839,13.382 c -1.1,1.663 -3.637,3.026 -5.644,3.026 h -32.96 c -2,0 -2.731,-1.344 -1.613,-3.026 L 32.939,25.026 C 34.064,23.369 36.602,22 38.627,22 Z m 0,0 M 447.74,222.67 c -9.5,7.24 -20.13,13.12 -32.02,17.61 -11.83,4.5 -24.12,6.74 -36.86,6.74 -9.98,0 -18.27,-1.29 -24.89,-3.93 -6.61,-2.61 -11.86,-6.23 -15.72,-10.87 -3.86,-4.61 -6.63,-10.15 -8.24,-16.65 -1.63,-6.47 -2.41,-13.72 -2.41,-21.68 -0.25,-21.98 5.47,-37.87 17.19,-47.76 11.74,-9.84 29.44,-14.77 53.17,-14.77 h 47.9 v -9.82 c 0,-5.54 -0.63,-10.28 -1.69,-14.16 -1.13,-3.91 -3.19,-7.13 -6.19,-9.615 -3,-2.54 -7,-4.29 -11.94,-5.3 -5.03,-1.03 -11.38,-1.54 -19.11,-1.54 -3,0 -6.67,0.13 -11.04,0.38 -4.37,0.25 -8.87,0.5 -13.48,0.75 -4.61,0.25 -9.23,0.63 -13.87,1.1 -4.61,0.5 -8.79,0.88 -12.52,1.12 -3.74,0.5 -6.3,0.56 -7.67,0.25 -1.39,-0.37 -2.32,-1.95 -2.81,-4.69 l -3.37,-13.672 c -0.5,-2.488 -0.25,-4.52 0.76,-6.126 0.98,-1.588 3.61,-3.276 7.86,-5.007 4,-1.469 8.72,-2.713 14.21,-3.688 5.5,-1 11.08,-1.781 16.85,-2.419 5.74,-0.631 11.41,-1.119 17.04,-1.463 5.62,-0.375 10.65,-0.562 15.14,-0.562 16.2,0 29.14,1.638 38.76,4.832 9.57,3.275 16.88,7.838 21.88,13.676 5,5.882 8.25,13.039 9.75,21.529 1.44,8.505 2.25,17.945 2.25,28.445 v 72.25 c 0,3.74 0,6.67 0.63,8.77 0.62,2.15 1,3.76 1.87,4.88 0.88,1.12 2.13,1.96 3.94,2.44 1.69,0.5 4.06,0.88 7.06,1.1 2.75,0.25 4.63,0.76 5.63,1.52 1,0.73 1.5,2.12 1.5,4.1 v 15.75 c 0,4.22 -3,6.83 -9,7.84 -3,0.5 -6,0.92 -9,1.31 -3,0.37 -5.82,0.56 -8.57,0.56 -8.75,0 -15.81,-1.63 -21.12,-4.88 -5.44,-3.23 -9.07,-9.21 -11.07,-17.95 z m -2.25,-62.11 h -45.66 c -9.5,0 -16.97,2.18 -22.46,6.55 -5.49,4.36 -8.23,12.67 -8.23,24.9 0,8.21 1.69,13.89 5.05,17.02 3.37,3.12 9.41,4.69 18.14,4.69 3.99,0 8.38,-0.5 13.12,-1.49 4.74,-1.01 9.47,-2.4 14.21,-4.13 4.7,-1.76 9.33,-3.71 13.89,-5.81 4.44,-2.1 8.44,-4.18 11.94,-6.18 z m 0,0 m -138.2,76.35 c 0,2 -0.43,3.69 -1.29,5.05 -0.88,1.37 -2.69,2.08 -5.44,2.08 h -26.57 c -4.99,0 -7.5,-2.39 -7.5,-7.13 V 67.755 c 0,-4.756 2.51,-7.125 7.5,-7.125 h 26.57 c 2.75,0 4.56,0.681 5.44,2.05 0.85,1.387 1.29,3.05 1.29,5.075 z m 0,0 m -119.91,-86.46 59.51,85.71 c 1.24,2 1.51,3.8 0.73,5.44 -0.73,1.61 -2.37,2.42 -4.84,2.42 h -31.83 c -2.47,0 -4.42,-0.44 -5.79,-1.29 -1.37,-0.89 -2.72,-2.33 -3.96,-4.33 l -37.4,-58.38 -37.44,58.38 c -2.24,3.74 -5.59,5.62 -10.11,5.62 H 84.826 c -2.519,0 -4.057,-0.76 -4.688,-2.25 -0.625,-1.49 -0.313,-3.37 0.925,-5.61 L 140.56,150.45 84.432,68.099 C 83.188,66.368 82.87,64.68 83.507,63.067 84.138,61.436 85.682,60.63 88.195,60.63 h 31.795 c 2.76,0 4.56,0.437 5.44,1.293 0.88,0.876 2.06,2.319 3.53,4.32 l 35.19,54.277 34.8,-54.277 c 1.27,-2.001 2.38,-3.444 3.39,-4.32 1,-0.856 2.61,-1.293 4.86,-1.293 h 33.33 c 2.95,0 4.71,0.756 5.22,2.244 0.5,1.487 0.13,3.225 -1.12,5.225 z m 0,0 M 62.774,236.91 c 0,2 -0.438,3.69 -1.294,5.05 -0.875,1.37 -2.682,2.08 -5.445,2.08 H 29.445 C 24.488,244.04 22,241.65 22,236.91 V 67.755 c 0,-4.756 2.488,-7.125 7.445,-7.125 h 26.59 c 2.763,0 4.57,0.681 5.445,2.05 0.881,1.387 1.294,3.05 1.294,5.075 z m 0,0"></path>

</svg>
