<?xml version="1.0"?>
<!--?xml version="1.0" encoding="UTF-8" standalone="no"?-->
<svg xmlns="http://www.w3.org/2000/svg" viewBox="0 0 732 381" width="732" height="381">
  <path d="m 91.17,189.26 c 6.4,-3.72 112.87,-66.82 117.28,-69.39 5.72,-3.33 11.98,1.89 10.62,7.25 -1.09,4.29 -20.14,86.86 -22.06,94.21 -1.25,4.83 -6.53,8.74 -11.32,7.51 -5.35,-1.38 -90.36,-25.26 -96.45,-27.03 -4.46,-1.29 -4.37,-8.88 1.93,-12.55 m 350.7,7.32 V 181.86 H 362.2 l 7.58,-8.77 70.05,-86.56 V 71.81 h -89.37 v 14.72 h 69.62 c -4.09,4.2 -8.4,9.14 -12.94,14.81 l -63.92,79.92 v 15.32 z m 0,0 M 328.27,71.81 h -16.12 v 17.62 h 16.12 z m 0,32.11 h -16.12 v 92.66 h 16.12 z m 0,0 m 193.4,92.51 V 180.41 H 472.9 v -25.6 h 43.75 V 138.79 H 472.9 V 117.9 h 47.07 v -16.02 h -64.69 v 94.55 z m 31.42,0 v -62.05 l 35.37,62.05 h 17.66 v -94.55 h -16.35 v 63.34 l -35.9,-63.34 h -17.12 v 94.55 z m 79.53,-11.21 c 7.68,8.57 18.01,12.86 31,12.86 12.84,0 23.09,-4.3 30.77,-12.93 7.67,-8.62 11.5,-20.56 11.5,-35.82 0,-15.39 -3.86,-27.41 -11.59,-36.05 -7.74,-8.65 -18.04,-12.97 -30.91,-12.97 -7.12,0 -13.4,1.25 -18.84,3.75 -4.1,1.84 -7.86,4.68 -11.3,8.51 -3.44,3.83 -6.15,8.15 -8.14,12.96 -2.66,6.54 -3.99,14.62 -3.99,24.25 0,15.05 3.83,26.86 11.5,35.44 m 13.39,-60.51 c 4.45,-5.4 10.31,-8.1 17.58,-8.1 7.28,0 13.11,2.67 17.5,8 4.39,5.34 6.59,13.43 6.59,24.27 0,10.97 -2.26,19.2 -6.77,24.68 -4.51,5.49 -10.28,8.23 -17.32,8.23 -7.03,0 -12.83,-2.76 -17.4,-8.3 -4.57,-5.52 -6.86,-13.64 -6.86,-24.36 0,-10.88 2.23,-19.02 6.68,-24.42 m 56.82,226.43 v 7.3 h -3.5 v -7.32 l -6.38,-10.09 h 4.12 l 4.1,6.89 4.01,-6.89 h 4.05 z m -18.24,7.3 -7.02,-11.35 v 11.35 h -3.27 v -17.41 h 3.42 l 7.13,11.63 v -11.63 h 3.27 v 17.41 z m -23.98,-13.35 -2.35,6.46 h 4.75 z m 5.05,13.35 -1.52,-3.95 h -6.96 l -1.44,3.95 h -3.73 l 6.79,-17.41 h 3.71 l 6.98,17.41 z M 643.8,344.87 c -0.38,-0.42 -0.84,-0.67 -1.41,-0.77 -0.43,-0.1 -1.27,-0.13 -2.54,-0.13 h -1.7 v 4.95 h 1.93 c 1.39,0 2.31,-0.1 2.78,-0.28 0.47,-0.18 0.83,-0.46 1.1,-0.85 0.26,-0.39 0.39,-0.84 0.39,-1.35 0,-0.64 -0.18,-1.16 -0.55,-1.57 m 3.6,4.21 c -0.39,0.73 -0.89,1.3 -1.48,1.72 -0.6,0.42 -1.21,0.69 -1.82,0.83 -0.84,0.16 -2.06,0.24 -3.65,0.24 h -2.3 v 6.57 h -3.51 v -17.41 h 5.64 c 2.14,0 3.53,0.1 4.18,0.26 1,0.26 1.84,0.83 2.51,1.7 0.67,0.88 1.01,2.01 1.01,3.4 0,1.06 -0.2,1.96 -0.58,2.69 m -22.44,9.36 v -13.7 l -3.45,13.7 h -3.39 l -3.44,-13.7 v 13.7 h -3.27 v -17.41 h 5.26 l 3.16,11.88 3.13,-11.88 h 5.27 v 17.41 z m -24.11,-13.23 c -0.88,-0.98 -2.04,-1.47 -3.49,-1.47 -1.45,0 -2.62,0.5 -3.5,1.49 -0.89,0.99 -1.33,2.49 -1.33,4.49 0,1.98 0.45,3.47 1.36,4.49 0.91,1.01 2.07,1.53 3.47,1.53 1.4,0 2.55,-0.51 3.45,-1.52 0.9,-1.01 1.35,-2.52 1.35,-4.54 0,-2 -0.44,-3.49 -1.31,-4.47 m 2.65,11.15 c -1.53,1.59 -3.57,2.38 -6.13,2.38 -2.59,0 -4.65,-0.79 -6.17,-2.37 -1.53,-1.58 -2.3,-3.75 -2.3,-6.53 0,-1.77 0.27,-3.26 0.8,-4.46 0.4,-0.89 0.94,-1.69 1.62,-2.39 0.69,-0.71 1.44,-1.23 2.25,-1.57 1.09,-0.46 2.34,-0.69 3.76,-0.69 2.56,0 4.61,0.8 6.16,2.39 1.54,1.59 2.31,3.8 2.31,6.64 0,2.81 -0.77,5.01 -2.3,6.6 M 576.13,337.2 c -1.1,-0.83 -2.48,-1.24 -4.14,-1.24 -1.91,0 -3.51,0.46 -4.8,1.37 -1.28,0.92 -2.18,2.15 -2.7,3.7 -0.52,1.54 -0.78,3.13 -0.78,4.77 0,2.12 0.3,3.96 0.92,5.54 0.62,1.58 1.58,2.76 2.88,3.54 1.3,0.78 2.71,1.17 4.22,1.17 1.85,0 3.41,-0.53 4.69,-1.6 1.27,-1.06 2.14,-2.64 2.59,-4.73 l 3.29,0.83 c -0.69,2.71 -1.93,4.77 -3.72,6.19 -1.79,1.42 -3.98,2.13 -6.57,2.13 -2.69,0 -4.87,-0.55 -6.55,-1.64 -1.68,-1.09 -2.95,-2.67 -3.83,-4.74 -0.88,-2.07 -1.32,-4.3 -1.32,-6.67 0,-2.59 0.5,-4.85 1.49,-6.78 0.99,-1.93 2.4,-3.39 4.22,-4.39 1.83,-1.01 3.84,-1.51 6.04,-1.51 2.49,0 4.58,0.64 6.27,1.9 1.7,1.27 2.88,3.05 3.55,5.35 l -3.24,0.76 c -0.58,-1.81 -1.42,-3.12 -2.51,-3.95 m -39.76,21.24 -7.02,-11.35 v 11.35 h -3.27 v -17.41 h 3.42 l 7.13,11.63 v -11.63 h 3.26 v 17.41 z m -20.94,-13.23 c -0.87,-0.98 -2.03,-1.47 -3.48,-1.47 -1.45,0 -2.62,0.5 -3.51,1.49 -0.88,0.99 -1.33,2.49 -1.33,4.49 0,1.98 0.46,3.47 1.37,4.49 0.91,1.01 2.07,1.53 3.47,1.53 1.4,0 2.55,-0.51 3.45,-1.52 0.9,-1.01 1.34,-2.52 1.34,-4.54 0,-2 -0.43,-3.49 -1.31,-4.47 m 2.66,11.15 c -1.53,1.59 -3.57,2.38 -6.13,2.38 -2.59,0 -4.65,-0.79 -6.18,-2.37 -1.52,-1.58 -2.29,-3.75 -2.29,-6.53 0,-1.77 0.27,-3.26 0.8,-4.46 0.39,-0.89 0.93,-1.69 1.61,-2.39 0.69,-0.71 1.44,-1.23 2.26,-1.57 1.08,-0.46 2.33,-0.69 3.75,-0.69 2.56,0 4.62,0.8 6.16,2.39 1.54,1.59 2.31,3.8 2.31,6.64 0,2.81 -0.76,5.01 -2.29,6.6 m -23.67,-15.33 h 3.52 v 17.41 h -3.52 z m -10.24,2.94 v 14.47 h -3.51 v -14.47 h -5.17 v -2.94 h 13.84 v 2.94 z m -21.09,1.12 -2.35,6.46 h 4.75 z m 5.05,13.35 -1.52,-3.95 h -6.96 l -1.44,3.95 h -3.73 l 6.78,-17.41 h 3.72 l 6.97,17.41 z m -22.63,-13.92 c -0.65,-0.52 -1.45,-0.78 -2.38,-0.78 -1.29,0 -2.34,0.46 -3.14,1.39 -0.81,0.92 -1.21,2.43 -1.21,4.5 0,2.2 0.4,3.77 1.19,4.7 0.79,0.94 1.82,1.41 3.09,1.41 0.93,0 1.74,-0.3 2.41,-0.89 0.67,-0.6 1.15,-1.54 1.45,-2.81 l 3.41,1.08 c -0.53,1.9 -1.39,3.32 -2.61,4.24 -1.22,0.92 -2.76,1.38 -4.63,1.38 -2.31,0 -4.21,-0.79 -5.7,-2.37 -1.49,-1.58 -2.23,-3.74 -2.23,-6.48 0,-2.9 0.75,-5.15 2.24,-6.75 1.5,-1.61 3.47,-2.41 5.91,-2.41 2.13,0 3.86,0.63 5.19,1.89 0.79,0.75 1.38,1.82 1.78,3.21 l -3.48,0.83 c -0.21,-0.9 -0.64,-1.62 -1.29,-2.14 m -19.52,-3.49 h 3.52 v 17.41 h -3.52 z m -17.57,17.41 v -17.27 h 3.51 v 14.34 h 8.74 v 2.93 z m -10.11,-13.57 c -0.37,-0.42 -0.84,-0.67 -1.41,-0.77 -0.42,-0.1 -1.26,-0.13 -2.53,-0.13 h -1.7 v 4.95 h 1.93 c 1.38,0 2.31,-0.1 2.78,-0.28 0.47,-0.18 0.83,-0.46 1.09,-0.85 0.27,-0.39 0.4,-0.84 0.4,-1.35 0,-0.64 -0.18,-1.16 -0.56,-1.57 m 3.61,4.21 c -0.39,0.73 -0.89,1.3 -1.48,1.72 -0.6,0.42 -1.21,0.69 -1.83,0.83 -0.83,0.16 -2.05,0.24 -3.64,0.24 h -2.3 v 6.57 h -3.51 v -17.41 h 5.64 c 2.14,0 3.53,0.1 4.18,0.26 1,0.26 1.83,0.83 2.51,1.7 0.67,0.88 1.01,2.01 1.01,3.4 0,1.06 -0.2,1.96 -0.58,2.69 m -22.75,-4.21 c -0.37,-0.42 -0.84,-0.67 -1.41,-0.77 -0.42,-0.1 -1.27,-0.13 -2.53,-0.13 h -1.7 v 4.95 h 1.93 c 1.38,0 2.31,-0.1 2.77,-0.28 0.47,-0.18 0.84,-0.46 1.1,-0.85 0.27,-0.39 0.4,-0.84 0.4,-1.35 0,-0.64 -0.18,-1.16 -0.56,-1.57 m 3.6,4.21 c -0.38,0.73 -0.88,1.3 -1.48,1.72 -0.6,0.42 -1.2,0.69 -1.82,0.83 -0.84,0.16 -2.06,0.24 -3.65,0.24 h -2.29 v 6.57 h -3.52 v -17.41 h 5.65 c 2.14,0 3.53,0.1 4.18,0.26 0.99,0.26 1.83,0.83 2.51,1.7 0.67,0.88 1,2.01 1,3.4 0,1.06 -0.19,1.96 -0.58,2.69 m -28.91,-7.74 c -0.79,-2.1 -1.38,-3.81 -1.76,-5.16 -0.32,1.6 -0.77,3.18 -1.34,4.75 l -2.74,7.3 h 8.44 z m 6.52,17.1 -2.91,-7.53 h -10.4 l -2.73,7.53 h -3.49 l 9.55,-24.87 h 3.54 l 10.19,24.87 z m 0,0 m 148.01,-50.71 c -0.49,-0.4 -1.24,-0.59 -2.23,-0.59 -1.02,0 -1.82,0.21 -2.4,0.63 -0.37,0.27 -0.55,0.63 -0.55,1.08 0,0.41 0.17,0.77 0.52,1.06 0.44,0.37 1.52,0.76 3.23,1.16 1.71,0.41 2.97,0.83 3.79,1.26 0.82,0.43 1.46,1.02 1.93,1.77 0.46,0.75 0.69,1.67 0.69,2.77 0,1 -0.27,1.93 -0.83,2.8 -0.55,0.87 -1.34,1.52 -2.35,1.95 -1.02,0.42 -2.28,0.63 -3.79,0.63 -2.2,0 -3.89,-0.51 -5.07,-1.53 -1.18,-1.02 -1.89,-2.5 -2.12,-4.44 l 3.43,-0.34 c 0.2,1.15 0.62,2 1.25,2.53 0.63,0.54 1.48,0.81 2.55,0.81 1.13,0 1.98,-0.24 2.55,-0.72 0.58,-0.48 0.87,-1.04 0.87,-1.68 0,-0.41 -0.12,-0.76 -0.37,-1.05 -0.24,-0.29 -0.66,-0.54 -1.26,-0.75 -0.41,-0.15 -1.35,-0.4 -2.82,-0.77 -1.88,-0.46 -3.2,-1.03 -3.96,-1.72 -1.07,-0.96 -1.61,-2.12 -1.61,-3.5 0,-0.89 0.26,-1.72 0.76,-2.49 0.5,-0.77 1.23,-1.36 2.17,-1.77 0.95,-0.4 2.09,-0.6 3.43,-0.6 2.19,0 3.83,0.48 4.94,1.44 1.1,0.96 1.68,2.23 1.73,3.83 l -3.51,0.16 c -0.15,-0.9 -0.47,-1.54 -0.97,-1.93 m -19.15,0 c -0.49,-0.4 -1.23,-0.59 -2.22,-0.59 -1.02,0 -1.82,0.21 -2.4,0.63 -0.37,0.27 -0.56,0.63 -0.56,1.08 0,0.41 0.18,0.77 0.52,1.06 0.45,0.37 1.52,0.76 3.23,1.16 1.72,0.41 2.98,0.83 3.8,1.26 0.82,0.43 1.46,1.02 1.92,1.77 0.47,0.75 0.7,1.67 0.7,2.77 0,1 -0.28,1.93 -0.83,2.8 -0.56,0.87 -1.34,1.52 -2.35,1.95 -1.02,0.42 -2.28,0.63 -3.79,0.63 -2.2,0 -3.89,-0.51 -5.07,-1.53 -1.18,-1.02 -1.89,-2.5 -2.12,-4.44 l 3.42,-0.34 c 0.21,1.15 0.63,2 1.25,2.53 0.63,0.54 1.48,0.81 2.55,0.81 1.13,0 1.99,-0.24 2.56,-0.72 0.58,-0.48 0.86,-1.04 0.86,-1.68 0,-0.41 -0.12,-0.76 -0.36,-1.05 -0.24,-0.29 -0.66,-0.54 -1.26,-0.75 -0.42,-0.15 -1.35,-0.4 -2.82,-0.77 -1.88,-0.46 -3.21,-1.03 -3.97,-1.72 -1.06,-0.96 -1.6,-2.12 -1.6,-3.5 0,-0.89 0.25,-1.72 0.76,-2.49 0.5,-0.77 1.22,-1.36 2.17,-1.77 0.94,-0.4 2.09,-0.6 3.42,-0.6 2.19,0 3.84,0.48 4.94,1.44 1.11,0.96 1.68,2.23 1.74,3.83 l -3.52,0.16 c -0.15,-0.9 -0.47,-1.54 -0.97,-1.93 m -14.18,11.28 v 2.93 h -13.24 v -17.41 h 12.91 v 2.94 h -9.4 v 3.86 h 8.75 v 2.94 h -8.75 v 4.74 z m -23.41,2.93 -7.01,-11.36 v 11.36 h -3.27 v -17.41 h 3.42 l 7.13,11.63 v -11.63 h 3.26 v 17.41 z m -20.1,-17.41 h 3.51 v 17.41 h -3.51 z m -10.75,3.2 c -0.5,-0.4 -1.24,-0.59 -2.23,-0.59 -1.02,0 -1.82,0.21 -2.4,0.63 -0.37,0.27 -0.56,0.63 -0.56,1.08 0,0.41 0.18,0.77 0.53,1.06 0.44,0.37 1.51,0.76 3.23,1.16 1.71,0.41 2.97,0.83 3.79,1.26 0.82,0.43 1.46,1.02 1.92,1.77 0.47,0.75 0.7,1.67 0.7,2.77 0,1 -0.28,1.93 -0.83,2.8 -0.56,0.87 -1.34,1.52 -2.35,1.95 -1.02,0.42 -2.28,0.63 -3.79,0.63 -2.21,0 -3.89,-0.51 -5.08,-1.53 -1.17,-1.02 -1.88,-2.5 -2.11,-4.44 l 3.42,-0.34 c 0.21,1.15 0.63,2 1.26,2.53 0.62,0.54 1.47,0.81 2.54,0.81 1.13,0 1.99,-0.24 2.56,-0.72 0.57,-0.48 0.86,-1.04 0.86,-1.68 0,-0.41 -0.12,-0.76 -0.36,-1.05 -0.24,-0.29 -0.66,-0.54 -1.26,-0.75 -0.42,-0.15 -1.35,-0.4 -2.82,-0.77 -1.88,-0.46 -3.2,-1.03 -3.97,-1.72 -1.07,-0.96 -1.6,-2.12 -1.6,-3.5 0,-0.89 0.25,-1.72 0.76,-2.49 0.5,-0.77 1.22,-1.36 2.17,-1.77 0.94,-0.4 2.09,-0.6 3.42,-0.6 2.19,0 3.84,0.48 4.94,1.44 1.1,0.96 1.68,2.23 1.74,3.83 l -3.52,0.16 c -0.14,-0.9 -0.47,-1.54 -0.96,-1.93 m -15.2,10.37 c -0.19,0.87 -0.54,1.6 -1.05,2.19 -0.51,0.59 -1.19,1.07 -2.05,1.42 -0.85,0.35 -1.97,0.53 -3.35,0.53 -1.66,0 -2.92,-0.2 -3.78,-0.58 -0.86,-0.38 -1.54,-0.88 -2.04,-1.49 -0.5,-0.62 -0.82,-1.26 -0.98,-1.93 -0.23,-1 -0.35,-2.48 -0.35,-4.43 v -9.28 h 3.52 v 9.43 c 0,1.49 0,2.46 0.13,2.91 0.15,0.71 0.51,1.28 1.07,1.71 0.57,0.44 1.34,0.65 2.33,0.65 0.99,0 1.75,-0.2 2.25,-0.61 0.51,-0.41 0.82,-0.91 0.92,-1.5 0.1,-0.59 0.15,-1.58 0.15,-2.96 v -9.63 h 3.52 v 9.14 c 0,2.09 -0.1,3.57 -0.29,4.43 m -26.4,-16.46 c -0.4,-0.63 -0.96,-1.06 -1.7,-1.29 -0.74,-0.23 -2,-0.35 -3.78,-0.35 h -4.98 v 7.52 h 5.38 c 1.46,0 2.51,-0.1 3.14,-0.29 0.84,-0.25 1.47,-0.66 1.89,-1.24 0.43,-0.58 0.64,-1.3 0.64,-2.17 0,-0.83 -0.2,-1.55 -0.59,-2.18 m -10.46,17.37 h 6.2 c 1.06,0 1.81,0 2.24,-0.13 0.76,-0.13 1.39,-0.35 1.9,-0.67 0.51,-0.32 0.93,-0.78 1.25,-1.38 0.33,-0.61 0.5,-1.31 0.5,-2.1 0,-0.93 -0.24,-1.74 -0.72,-2.42 -0.47,-0.68 -1.13,-1.16 -1.97,-1.44 -0.84,-0.28 -2.06,-0.42 -3.64,-0.42 h -5.76 z m 10.81,-10.31 c 1.51,0.45 2.66,1.2 3.47,2.26 0.81,1.07 1.22,2.32 1.22,3.77 0,1.17 -0.25,2.25 -0.74,3.25 -0.49,1 -1.1,1.77 -1.83,2.31 -0.72,0.55 -1.63,0.96 -2.72,1.24 -1.09,0.27 -2.43,0.41 -4.01,0.41 h -9.49 v -24.88 h 9.34 c 1.9,0 3.42,0.26 4.57,0.76 1.15,0.51 2.04,1.28 2.7,2.33 0.65,1.04 0.97,2.14 0.97,3.28 0,1.06 -0.29,2.06 -0.86,3 -0.58,0.94 -1.45,1.7 -2.62,2.27 m -34.6,10.31 v 2.93 h -13.24 v -17.41 h 12.91 v 2.94 h -9.4 v 3.86 h 8.75 v 2.94 h -8.75 v 4.74 z m -23.99,-10.99 c -0.66,-0.52 -1.45,-0.78 -2.38,-0.78 -1.29,0 -2.34,0.46 -3.14,1.38 -0.81,0.93 -1.21,2.43 -1.21,4.51 0,2.2 0.39,3.77 1.19,4.7 0.79,0.93 1.82,1.4 3.09,1.4 0.93,0 1.73,-0.29 2.41,-0.89 0.67,-0.59 1.15,-1.53 1.45,-2.8 l 3.41,1.08 c -0.53,1.9 -1.4,3.31 -2.61,4.23 -1.22,0.93 -2.76,1.39 -4.63,1.39 -2.31,0 -4.21,-0.79 -5.7,-2.37 -1.49,-1.58 -2.23,-3.74 -2.23,-6.48 0,-2.9 0.74,-5.15 2.24,-6.75 1.5,-1.61 3.46,-2.41 5.9,-2.41 2.14,0 3.87,0.63 5.19,1.89 0.8,0.75 1.39,1.81 1.79,3.21 l -3.49,0.83 c -0.2,-0.9 -0.63,-1.62 -1.28,-2.14 m -20.06,0.2 c -0.32,-0.36 -0.75,-0.59 -1.32,-0.69 -0.29,0 -1.14,-0.1 -2.57,-0.1 h -2.75 v 4.42 h 2.61 c 1.68,0 2.74,-0.1 3.16,-0.21 0.42,-0.14 0.75,-0.39 0.98,-0.74 0.24,-0.35 0.36,-0.78 0.36,-1.31 0,-0.58 -0.16,-1.05 -0.47,-1.41 m -0.51,6.04 c 0.76,0.44 1.39,0.93 1.89,1.46 0.49,0.53 1.16,1.47 2,2.82 l 2.12,3.4 h -4.2 l -2.54,-3.79 c -0.9,-1.35 -1.52,-2.21 -1.86,-2.56 -0.33,-0.35 -0.68,-0.59 -1.05,-0.72 -0.37,-0.13 -0.96,-0.2 -1.77,-0.2 h -0.72 v 7.27 h -3.51 v -17.41 h 7.4 c 1.86,0 3.21,0.16 4.06,0.47 0.84,0.31 1.51,0.87 2.02,1.67 0.51,0.8 0.76,1.71 0.76,2.74 0,1.31 -0.38,2.38 -1.15,3.24 -0.77,0.85 -1.92,1.38 -3.45,1.61 m -16.56,3.84 c -0.19,0.87 -0.54,1.6 -1.05,2.19 -0.52,0.59 -1.2,1.07 -2.05,1.42 -0.86,0.35 -1.97,0.53 -3.35,0.53 -1.66,0 -2.92,-0.2 -3.78,-0.58 -0.86,-0.38 -1.54,-0.88 -2.04,-1.49 -0.5,-0.62 -0.83,-1.26 -0.99,-1.93 -0.23,-1 -0.34,-2.48 -0.34,-4.43 v -9.28 h 3.51 v 9.43 c 0,1.49 0.1,2.46 0.13,2.91 0.16,0.71 0.52,1.28 1.08,1.71 0.56,0.44 1.34,0.65 2.32,0.65 1,0 1.75,-0.2 2.26,-0.61 0.51,-0.41 0.81,-0.91 0.91,-1.5 0.11,-0.59 0.16,-1.58 0.16,-2.96 v -9.63 h 3.52 v 9.14 c 0,2.09 -0.1,3.57 -0.29,4.43 m -24.19,-9.39 c -0.87,-0.98 -2.03,-1.47 -3.48,-1.47 -1.45,0 -2.62,0.49 -3.51,1.48 -0.89,1 -1.33,2.5 -1.33,4.5 0,1.97 0.46,3.47 1.37,4.48 0.91,1.02 2.07,1.53 3.47,1.53 1.4,0 2.55,-0.5 3.45,-1.51 0.9,-1.01 1.35,-2.53 1.35,-4.55 0,-1.99 -0.44,-3.48 -1.32,-4.46 m 2.66,11.15 c -1.53,1.58 -3.58,2.38 -6.13,2.38 -2.59,0 -4.65,-0.79 -6.18,-2.37 -1.53,-1.58 -2.29,-3.76 -2.29,-6.53 0,-1.77 0.26,-3.26 0.79,-4.47 0.4,-0.88 0.94,-1.68 1.63,-2.38 0.68,-0.71 1.43,-1.23 2.25,-1.57 1.08,-0.46 2.33,-0.69 3.75,-0.69 2.57,0 4.62,0.8 6.16,2.39 1.54,1.59 2.31,3.8 2.31,6.64 0,2.81 -0.76,5.01 -2.29,6.6 m -27.27,-19.11 c -0.98,-0.81 -2.42,-1.21 -4.33,-1.21 -1.99,0 -3.44,0.37 -4.35,1.1 -0.91,0.73 -1.37,1.61 -1.37,2.64 0,0.89 0.32,1.62 0.97,2.2 0.63,0.58 2.29,1.17 4.96,1.77 2.67,0.61 4.51,1.14 5.51,1.59 1.45,0.67 2.51,1.51 3.2,2.54 0.69,1.02 1.04,2.2 1.04,3.54 0,1.32 -0.38,2.57 -1.14,3.74 -0.76,1.17 -1.85,2.08 -3.27,2.73 -1.42,0.65 -3.01,0.98 -4.79,0.98 -2.25,0 -4.14,-0.33 -5.66,-0.99 -1.52,-0.66 -2.71,-1.64 -3.58,-2.96 -0.86,-1.32 -1.32,-2.81 -1.36,-4.47 l 3.1,-0.27 c 0.15,1.24 0.49,2.26 1.03,3.06 0.54,0.8 1.37,1.44 2.5,1.93 1.13,0.5 2.4,0.74 3.82,0.74 1.25,0 2.36,-0.19 3.33,-0.56 0.96,-0.37 1.67,-0.88 2.14,-1.53 0.47,-0.65 0.71,-1.37 0.71,-2.13 0,-0.78 -0.23,-1.47 -0.68,-2.05 -0.46,-0.58 -1.2,-1.07 -2.25,-1.47 -0.66,-0.25 -2.14,-0.66 -4.42,-1.21 -2.29,-0.55 -3.89,-1.06 -4.81,-1.55 -1.18,-0.62 -2.07,-1.4 -2.65,-2.32 -0.58,-0.92 -0.87,-1.95 -0.87,-3.09 0,-1.26 0.35,-2.43 1.06,-3.53 0.72,-1.09 1.76,-1.91 3.13,-2.48 1.37,-0.57 2.89,-0.85 4.56,-0.85 1.84,0 3.47,0.3 4.88,0.89 1.41,0.59 2.49,1.47 3.25,2.62 0.76,1.16 1.16,2.47 1.22,3.92 l -3.15,0.24 c -0.18,-1.57 -0.75,-2.76 -1.73,-3.56 m -37.95,21.23 -7.02,-11.36 v 11.36 h -3.27 v -17.41 h 3.42 l 7.13,11.63 v -11.63 h 3.26 v 17.41 z m -16.23,-2.93 v 2.93 h -13.24 v -17.41 h 12.91 v 2.94 h -9.39 v 3.86 h 8.74 v 2.94 h -8.74 v 4.74 z m -23.23,-10.64 c -0.37,-0.42 -0.84,-0.67 -1.41,-0.78 -0.42,-0.1 -1.26,-0.12 -2.53,-0.12 h -1.7 v 4.95 h 1.93 c 1.38,0 2.31,-0.1 2.78,-0.28 0.46,-0.18 0.83,-0.47 1.09,-0.85 0.27,-0.39 0.4,-0.84 0.4,-1.36 0,-0.63 -0.18,-1.15 -0.56,-1.56 m 3.6,4.21 c -0.39,0.73 -0.88,1.3 -1.48,1.72 -0.59,0.41 -1.2,0.69 -1.82,0.82 -0.84,0.17 -2.05,0.25 -3.64,0.25 h -2.3 v 6.57 h -3.51 v -17.41 h 5.64 c 2.13,0 3.53,0.1 4.18,0.26 1,0.26 1.83,0.83 2.51,1.7 0.67,0.88 1.01,2.01 1.01,3.39 0,1.07 -0.2,1.97 -0.59,2.7 m -24.67,-8.36 c -0.69,-1.51 -1.69,-2.68 -3.01,-3.52 -1.32,-0.83 -2.8,-1.24 -4.43,-1.24 -2.33,0 -4.34,0.8 -6.02,2.4 -1.68,1.6 -2.52,4.27 -2.52,8.02 0,2.99 0.81,5.36 2.42,7.08 1.61,1.73 3.63,2.59 6.06,2.59 2.48,0 4.52,-0.87 6.12,-2.61 1.6,-1.75 2.4,-4.22 2.4,-7.42 0,-2.03 -0.34,-3.79 -1.02,-5.3 m 2.89,12.09 c -1.02,1.99 -2.46,3.5 -4.33,4.52 -1.87,1.02 -3.88,1.54 -6.04,1.54 -2.34,0 -4.43,-0.57 -6.28,-1.7 -1.84,-1.13 -3.24,-2.68 -4.19,-4.63 -0.95,-1.96 -1.42,-4.03 -1.42,-6.21 0,-4.13 1.11,-7.37 3.32,-9.7 2.22,-2.34 5.08,-3.51 8.59,-3.51 2.3,0 4.37,0.55 6.21,1.65 1.84,1.1 3.25,2.63 4.21,4.59 0.97,1.96 1.46,4.19 1.46,6.68 0,2.52 -0.51,4.77 -1.53,6.77 m -41.9,2.7 v 2.93 H 84.3 v -17.41 h 12.91 v 2.94 h -9.4 v 3.86 h 8.75 v 2.94 h -8.75 v 4.74 z m -23.31,2.93 v -7.61 h -6.89 v 7.61 h -3.51 v -17.41 h 3.51 v 6.85 h 6.89 v -6.85 h 3.51 v 17.41 z M 48.95,300 v 21.94 H 45.66 V 300 h -8.2 v -2.94 H 57.18 V 300 Z m 0,0 M 60.88,147.23 c 6.33,-3.83 112.74,-67.03 117.11,-69.66 5.66,-3.43 4.08,-11.42 -1.27,-12.8 -4.29,-1.1 -85.89,-23.96 -93.26,-25.8 -4.84,-1.21 -10.81,1.54 -12.02,6.34 -1.35,5.35 -21.14,91.41 -22.51,97.59 -1,4.54 5.71,8.1 11.95,4.33 M 47,22 C 33.19,22 22,33.19 22,47 v 174.59 c 0,13.81 11.19,25 25,25 h 172.47 c 13.81,0 25,-11.19 25,-25 V 47 c 0,-13.81 -11.19,-25 -25,-25 z m 0,4.75 h 172.47 c 2.74,0 5.38,0.54 7.88,1.59 2.41,1.02 4.58,2.48 6.44,4.34 1.86,1.86 3.32,4.03 4.34,6.43 1.05,2.5 1.59,5.15 1.59,7.89 v 174.59 c 0,2.74 -0.54,5.38 -1.59,7.88 -1.02,2.42 -2.48,4.58 -4.34,6.44 -1.86,1.86 -4.03,3.32 -6.44,4.34 -2.5,1.06 -5.14,1.59 -7.88,1.59 H 47 c -2.73,0 -5.39,-0.53 -7.88,-1.59 -2.41,-1.02 -4.58,-2.48 -6.44,-4.34 -1.86,-1.86 -3.32,-4.02 -4.34,-6.44 -1.05,-2.5 -1.59,-5.14 -1.59,-7.88 V 47 c 0,-2.74 0.54,-5.39 1.59,-7.89 1.02,-2.4 2.48,-4.57 4.34,-6.43 1.86,-1.86 4.03,-3.32 6.44,-4.34 2.49,-1.05 5.15,-1.59 7.88,-1.59 z"></path>

</svg>
