<?xml version="1.0"?>

<!-- Generator: Adobe Illustrator 19.1.0, SVG Export Plug-In . SVG Version: 6.00 Build 0)  -->
<svg version="1.1" id="Layer_1" xmlns="http://www.w3.org/2000/svg" xmlns:xlink="http://www.w3.org/1999/xlink" x="0px" y="0px" width="600px" height="400px" viewBox="0 0 600 400" enable-background="new 0 0 600 400" xml:space="preserve">
<path fill="#2E2A25" d="M305.411,162.176c-0.002-9.317,0.21-18.642-0.098-27.949c-0.139-4.205,1.391-6.292,5.234-7.72
	c9.957-3.703,20.055-6,30.723-4.37c13.625,2.083,21.453,10.151,21.888,23.841c0.487,15.358-0.016,30.746,0.227,46.116
	c0.073,4.598-2.351,4.47-5.666,4.659c-4.082,0.233-5.105-1.344-5.051-5.195c0.189-13.507,0.145-27.02,0.043-40.529
	c-0.099-13.103-5.172-18.126-18.233-18.365c-16.581-0.303-18.321,1.388-18.32,17.811c0,13.743-0.138,27.489,0.086,41.228
	c0.065,4-1.201,5.116-5.118,5.078c-3.92-0.039-5.982-0.548-5.816-5.258C305.654,181.751,305.413,171.96,305.411,162.176z"></path>
<path fill="#2E2A25" d="M199.926,158.767c0-6.754-0.276-13.523,0.098-20.256c0.247-4.441-1.354-5.792-5.548-5.375
	c-3.535,0.351-6.829,0.654-6.846-4.976c-0.016-5.383,2.829-5.717,6.614-5.224c4.688,0.611,6.282-1.34,5.729-5.834
	c-0.254-2.062-0.294-4.237,0.072-6.27c0.828-4.608,5.068-4.517,8.232-4.772c3.895-0.314,1.847,3.322,2.377,5.228
	c0.18,0.648,0.019,1.39,0.029,2.088c0.162,10.886-1.348,9.205,9.789,9.62c2.833,0.106,6.831-2.087,8.293,2.537
	c1.638,5.179-0.309,7.543-6.039,7.65c-12.055,0.225-12.053,0.225-12.05,12.159c0.002,10.014-0.061,20.029,0.02,30.043
	c0.084,10.459,2.694,12.657,13.117,11.621c1.853-0.184,5.022-2.484,4.998,1.979c-0.018,3.232,1.331,6.894-3.735,8.39
	c-11.962,3.532-23.869-3.84-24.823-16.264c-0.569-7.407-0.104-14.893-0.104-22.343C200.073,158.767,200,158.767,199.926,158.767z"></path>
<path fill="#2E2A25" d="M86.876,167.131c0,12.812,0.292,25.633-0.081,38.435c-0.385,13.235-7.871,21.074-19.911,21.671
	c-1.893,0.094-4.771,1.054-4.451-2.44c0.26-2.836-2.056-6.604,2.736-8.162c10.245-3.329,11.099-4.506,11.123-15.14
	c0.054-23.994,0.183-47.991-0.112-71.982c-0.064-5.223,1.479-6.907,6.582-6.93c5.836-0.027,4.036,4.03,4.07,6.81
	c0.156,12.578,0.068,25.158,0.068,37.738C86.893,167.131,86.885,167.131,86.876,167.131z"></path>
<path fill="#2E2A25" d="M177.921,151.856c0.001,13.285-0.139,26.571,0.086,39.852c0.069,4.073-1.364,5.062-5.221,5.071
	c-3.88,0.009-5.171-1.045-5.145-5.067c0.165-26.102,0.166-52.206,0.001-78.308c-0.025-4.007,1.455-5.748,5.128-6.925
	c4.331-1.388,5.251,0.085,5.207,4.125C177.828,124.354,177.92,138.106,177.921,151.856z"></path>
<path fill="#2E2A25" d="M87.542,110.911c0.854,5.065,0.246,8.064-5.347,7.446c-3.461-0.382-6.774,0.637-6.66-5.097
	c0.132-6.686,4.945-6.608,9.009-7.285C89.747,105.109,86.932,109.611,87.542,110.911z"></path>
<path fill="#2E2A25" d="M433.188,150.545c-1.193-20.034-12.698-30.173-32.467-28.99c-3.482,0.209-6.978,0.667-10.396,1.361
	c-9.36,1.9-9.38,2.026-8.196,12.772c29.374-5.883,38.671-2.509,40.033,14.877c-2.816-0.133-5.567-0.306-8.32-0.385
	c-7.95-0.226-15.846-0.031-23.424,2.876c-11.181,4.289-15.724,10.771-15.456,22.181c0.245,10.446,5.702,17.373,16.491,20.799
	c8.482,2.693,17.004,2.619,25.459-0.076c10.806-3.444,15.838-9.692,16.305-20.926C433.555,166.882,433.672,158.682,433.188,150.545z
	 M422.529,172.054c0.107,9.59-4.01,13.982-13.619,14.959c-4.864,0.495-9.721,0.553-14.487-1.016
	c-5.452-1.796-8.522-5.213-8.744-11.169c-0.219-5.849,2.337-9.742,7.52-12.156c4.044-1.884,10.262-2.924,17.762-2.872
	C424.802,160.834,422.372,157.918,422.529,172.054z"></path>
<path fill="#2E2A25" d="M156.091,149.697c-1.215-19.364-13.053-29.446-32.505-28.152c-3.018,0.201-6.036,0.616-9.017,1.142
	c-10.333,1.823-10.327,1.859-9.435,13.274c9.16-2.446,18.025-4.316,27.205-2.478c6.225,1.246,10.389,4.555,12.314,10.896
	c1.583,5.215-0.034,6.595-5.134,6.106c-10.073-0.966-20.015-0.491-29.401,3.988c-8.533,4.072-12.422,10.924-12.212,20.205
	c0.208,9.207,4.163,16.179,12.799,19.915c9.825,4.251,19.821,4.357,30.034,1.094c9.938-3.174,15.018-10.002,15.454-20.107
	C156.564,166.968,156.63,158.296,156.091,149.697z M145.454,171.65c0.169,10.475-3.852,14.564-14.481,15.432
	c-4.886,0.399-9.753,0.44-14.426-1.399c-4.749-1.869-7.491-5.175-7.876-10.432c-0.402-5.499,1.83-9.419,6.546-12.06
	c3.815-2.137,10.419-3.358,18.31-3.406C148.353,160.716,145.242,158.483,145.454,171.65z"></path>
<path fill="#2E2A25" d="M245.326,124.678c-4.208,2.327-2.603,6.344-2.03,9.317c0.741,3.844,3.811,0.796,5.558,0.447
	c7.378-1.475,14.719-2.469,22.172-0.827c5.908,1.302,10.061,4.518,11.699,10.659c1.225,4.592,0.438,6.837-5.023,6.229
	c-9.351-1.041-18.628-0.506-27.503,3.069c-9.448,3.805-14.166,10.578-14.231,20.325c-0.067,10.101,4.75,17.43,14.086,21.219
	c8.511,3.455,17.241,3.659,26.068,1.406c12.614-3.22,17.9-9.972,18.022-22.964c0.035-3.732,0.005-7.465,0.01-11.197
	c0.005-3.266,0.019-6.532,0.003-9.798C294.026,126.849,268.126,112.068,245.326,124.678z M283.509,171.859
	c0.132,10.31-3.647,14.274-13.909,15.191c-5.11,0.456-10.19,0.488-15.116-1.408c-5.194-1.998-7.688-5.947-7.816-11.244
	c-0.121-5.015,2.135-8.945,6.752-11.296c5.78-2.944,12.057-3.132,18.605-3.289C286.052,160.701,283.335,158.341,283.509,171.859z"></path>
<path fill="#2E2A25" d="M523.724,117.027c-19.438,3.202-39.032,2.055-58.576,2.194c-17.69,0.126-18.919,1.31-18.305,19.156
	c0.008,0.233,0.025,0.469-0.002,0.699c-0.441,3.673,1.251,4.843,4.834,4.814c17.009-0.139,34.037,0.4,51.025-0.22
	c20.883-0.762,37.028-13.274,43.266-33.348C538.181,113.916,531.06,115.818,523.724,117.027z M461.2,134.613
	c-1.818,0.181-3.177-0.899-3.478-2.73c-0.338-2.063,1.309-2.7,2.544-3.352c2.23,0.183,3.306,1.243,3.351,3.135
	C463.657,133.249,462.724,134.462,461.2,134.613z"></path>
<path fill="#2E2A25" d="M515.431,147.812c-17.054,3.088-34.302,2.138-51.494,2.213c-18.116,0.079-18.022,0.017-17.179,18.338
	c0.161,3.497,1.06,5.022,4.774,4.938c13.251-0.302,26.59,0.485,39.739-0.775c17.337-1.661,29.793-11.195,37.877-28.006
	C523.852,145.807,519.684,147.042,515.431,147.812z M460.48,164.454c-1.867-0.171-2.878-1.424-2.636-3.226
	c0.189-1.411,1.229-2.356,2.793-2.452c2.027-0.125,2.822,1.004,2.917,2.875C463.314,163.441,462.423,164.632,460.48,164.454z"></path>
<path fill="#2E2A25" d="M486.093,178.945c-11.41,0.154-22.82,0.365-34.231,0.487c-2.749,0.029-5.207,0.032-5.034,3.893
	c0.328,7.325-1.954,13.587-8.8,18.104c35.555,5.271,64.766-5.929,69.282-26.467C500.401,177.911,493.321,178.847,486.093,178.945z
	 M461.246,193.672c-1.774,0.241-3.11-0.784-3.426-2.532c-0.35-1.932,0.963-2.802,2.669-3.188c1.904-0.02,2.997,0.869,3.01,2.799
	C463.508,192.261,462.729,193.471,461.246,193.672z"></path>
<g>
	<path fill="#2E2A25" d="M99.932,219.467c0-0.931,0.13-1.808,0.391-2.628s0.641-1.538,1.141-2.153s1.117-1.101,1.853-1.455
		c0.735-0.354,1.577-0.532,2.525-0.532s1.794,0.178,2.538,0.532s1.367,0.84,1.872,1.455s0.889,1.333,1.154,2.153
		c0.265,0.82,0.397,1.697,0.397,2.628c0,0.932-0.132,1.808-0.397,2.628c-0.265,0.821-0.649,1.534-1.154,2.142
		c-0.504,0.606-1.128,1.087-1.872,1.442c-0.744,0.354-1.589,0.531-2.538,0.531s-1.791-0.177-2.525-0.531
		c-0.735-0.355-1.353-0.836-1.853-1.442c-0.5-0.607-0.88-1.32-1.141-2.142C100.062,221.274,99.932,220.398,99.932,219.467z
		 M101.842,219.467c0,0.692,0.092,1.347,0.276,1.962c0.184,0.615,0.449,1.149,0.795,1.603c0.346,0.453,0.767,0.812,1.263,1.076
		c0.496,0.266,1.051,0.397,1.667,0.397s1.171-0.132,1.667-0.397c0.496-0.265,0.917-0.623,1.263-1.076s0.613-0.987,0.801-1.603
		s0.282-1.27,0.282-1.962s-0.094-1.346-0.282-1.961s-0.455-1.154-0.801-1.615c-0.346-0.462-0.767-0.825-1.263-1.09
		s-1.051-0.397-1.667-0.397s-1.171,0.133-1.667,0.397c-0.496,0.265-0.917,0.628-1.263,1.09c-0.346,0.461-0.611,1-0.795,1.615
		C101.934,218.121,101.842,218.774,101.842,219.467z"></path>
	<path fill="#2E2A25" d="M115.426,212.929h1.91l-0.077,2c0.402-0.727,0.878-1.279,1.43-1.66c0.551-0.38,1.194-0.57,1.929-0.57
		c0.137,0,0.289,0.013,0.455,0.038c0.167,0.026,0.314,0.064,0.442,0.116v1.974c-0.41-0.146-0.727-0.218-0.949-0.218
		c-0.513,0-0.968,0.096-1.365,0.288s-0.735,0.449-1.013,0.77c-0.278,0.32-0.489,0.692-0.635,1.115s-0.218,0.865-0.218,1.327v7.871
		h-1.91V212.929z"></path>
	<path fill="#2E2A25" d="M135.855,231.338h-1.949v-7.333c-0.23,0.359-0.504,0.678-0.82,0.955c-0.316,0.278-0.647,0.509-0.994,0.692
		c-0.346,0.185-0.703,0.323-1.07,0.417c-0.368,0.094-0.718,0.141-1.051,0.141c-0.889,0-1.675-0.177-2.359-0.531
		c-0.684-0.355-1.258-0.84-1.724-1.455c-0.466-0.616-0.821-1.336-1.064-2.16c-0.244-0.825-0.366-1.707-0.366-2.647
		s0.124-1.82,0.372-2.641c0.248-0.821,0.609-1.536,1.083-2.147c0.475-0.611,1.056-1.094,1.744-1.449
		c0.688-0.354,1.476-0.531,2.365-0.531c0.342,0,0.694,0.049,1.058,0.146c0.363,0.099,0.718,0.244,1.064,0.437
		s0.671,0.43,0.974,0.711c0.304,0.282,0.566,0.603,0.789,0.962v-1.975h1.949V231.338z M133.907,219.416
		c0-0.701-0.092-1.359-0.275-1.975c-0.184-0.615-0.442-1.151-0.776-1.608c-0.333-0.457-0.733-0.818-1.199-1.084
		c-0.466-0.265-0.985-0.397-1.558-0.397c-0.564,0-1.075,0.133-1.532,0.397c-0.458,0.266-0.851,0.627-1.179,1.084
		c-0.329,0.457-0.582,0.993-0.756,1.608c-0.175,0.615-0.263,1.273-0.263,1.975c0,0.7,0.088,1.361,0.263,1.98
		c0.175,0.62,0.427,1.16,0.756,1.622c0.329,0.461,0.722,0.824,1.179,1.089c0.457,0.266,0.968,0.397,1.532,0.397
		c0.556,0,1.064-0.128,1.526-0.384c0.461-0.257,0.859-0.605,1.192-1.045c0.333-0.44,0.594-0.957,0.782-1.552
		c0.188-0.594,0.291-1.229,0.308-1.903V219.416z"></path>
	<path fill="#2E2A25" d="M149.926,225.749h-1.91v-1.975c-0.675,0.778-1.408,1.34-2.199,1.686c-0.791,0.347-1.601,0.52-2.429,0.52
		c-0.607,0-1.152-0.09-1.635-0.27c-0.483-0.179-0.893-0.439-1.23-0.781c-0.338-0.342-0.596-0.752-0.776-1.231
		c-0.179-0.479-0.269-1.021-0.269-1.628v-9.371h1.936v9.128c0,0.453,0.053,0.833,0.16,1.141s0.263,0.56,0.468,0.757
		c0.205,0.196,0.455,0.337,0.75,0.423c0.295,0.085,0.626,0.128,0.993,0.128c0.582,0,1.128-0.104,1.641-0.314
		c0.513-0.209,0.961-0.486,1.346-0.833c0.384-0.346,0.688-0.743,0.91-1.192c0.222-0.448,0.333-0.912,0.333-1.391v-7.846h1.91
		V225.749z"></path>
	<path fill="#2E2A25" d="M155.6,219.813c0.008,0.606,0.115,1.196,0.32,1.769c0.205,0.573,0.485,1.079,0.84,1.52
		c0.354,0.44,0.771,0.793,1.25,1.058c0.479,0.265,0.995,0.397,1.551,0.397c1.88,0,3.124-0.872,3.73-2.615h1.756
		c-0.145,0.684-0.393,1.293-0.743,1.827c-0.351,0.534-0.771,0.982-1.263,1.346c-0.491,0.363-1.034,0.641-1.628,0.833
		c-0.594,0.192-1.211,0.289-1.853,0.289c-0.915,0-1.741-0.188-2.48-0.564s-1.368-0.883-1.884-1.52
		c-0.518-0.637-0.917-1.376-1.199-2.218c-0.282-0.842-0.423-1.732-0.423-2.673c0-0.871,0.139-1.705,0.417-2.5
		c0.277-0.794,0.675-1.493,1.192-2.096s1.143-1.081,1.878-1.436c0.735-0.354,1.56-0.532,2.474-0.532c0.88,0,1.677,0.16,2.391,0.48
		c0.714,0.32,1.321,0.763,1.821,1.327c0.5,0.564,0.884,1.235,1.153,2.013c0.27,0.777,0.404,1.62,0.404,2.525v0.77H155.6z
		 M163.317,218.313c-0.017-0.547-0.118-1.06-0.301-1.538c-0.184-0.479-0.444-0.894-0.782-1.244
		c-0.337-0.351-0.743-0.626-1.218-0.827c-0.474-0.2-1.011-0.301-1.609-0.301c-0.538,0-1.036,0.107-1.493,0.32
		c-0.458,0.214-0.857,0.502-1.199,0.865s-0.611,0.78-0.808,1.25c-0.197,0.471-0.299,0.962-0.308,1.475H163.317z"></path>
	<path fill="#2E2A25" d="M170.94,221.941c0.008,0.479,0.091,0.885,0.25,1.218c0.158,0.333,0.369,0.603,0.634,0.808
		c0.265,0.205,0.579,0.354,0.942,0.448c0.363,0.095,0.758,0.142,1.186,0.142c0.351,0,0.716-0.032,1.096-0.097
		c0.38-0.063,0.731-0.173,1.051-0.326c0.321-0.154,0.585-0.363,0.795-0.629c0.209-0.265,0.314-0.603,0.314-1.013
		c0-0.367-0.111-0.684-0.333-0.948c-0.223-0.265-0.518-0.498-0.885-0.699c-0.368-0.2-0.784-0.38-1.25-0.538s-0.942-0.324-1.429-0.5
		c-0.487-0.175-0.964-0.365-1.43-0.57s-0.882-0.451-1.25-0.737c-0.367-0.286-0.662-0.624-0.884-1.013s-0.333-0.856-0.333-1.403
		c0-0.573,0.126-1.073,0.378-1.5c0.252-0.428,0.587-0.78,1.006-1.058c0.418-0.278,0.901-0.485,1.449-0.622
		c0.547-0.137,1.115-0.205,1.705-0.205c0.667,0,1.289,0.07,1.866,0.212c0.577,0.141,1.079,0.356,1.506,0.647
		c0.427,0.29,0.767,0.66,1.02,1.108c0.252,0.449,0.391,0.98,0.417,1.596c-0.163,0-0.342-0.004-0.539-0.013
		c-0.197-0.008-0.359-0.013-0.487-0.013h-0.923c-0.043-0.351-0.147-0.643-0.314-0.878s-0.376-0.423-0.628-0.564
		c-0.252-0.141-0.543-0.241-0.872-0.301s-0.677-0.09-1.045-0.09c-0.846,0-1.491,0.156-1.936,0.468
		c-0.444,0.312-0.667,0.725-0.667,1.237c0,0.342,0.111,0.639,0.333,0.891c0.222,0.253,0.517,0.477,0.885,0.673
		c0.367,0.197,0.784,0.381,1.25,0.552s0.944,0.344,1.436,0.52c0.492,0.175,0.97,0.365,1.436,0.57s0.882,0.444,1.25,0.718
		c0.367,0.273,0.662,0.592,0.884,0.955s0.333,0.793,0.333,1.288c0,0.71-0.141,1.314-0.423,1.814c-0.282,0.5-0.66,0.91-1.134,1.23
		s-1.028,0.554-1.66,0.698c-0.633,0.146-1.295,0.219-1.987,0.219c-0.667,0-1.299-0.088-1.897-0.264
		c-0.599-0.175-1.124-0.441-1.577-0.801s-0.816-0.808-1.089-1.346c-0.274-0.539-0.423-1.167-0.449-1.885H170.94z"></path>
	<path fill="#2E2A25" d="M185.715,209.045v3.884h2.025v1.654h-2.025v8.461c0,0.29,0.036,0.532,0.109,0.725
		c0.072,0.191,0.173,0.346,0.301,0.461c0.128,0.115,0.28,0.199,0.455,0.25c0.175,0.052,0.37,0.077,0.583,0.077
		c0.128,0,0.263-0.007,0.404-0.02c0.141-0.013,0.305-0.04,0.493-0.083v1.577c-0.239,0.067-0.502,0.119-0.788,0.153
		c-0.287,0.034-0.575,0.052-0.866,0.052c-0.35,0-0.684-0.045-1-0.135c-0.316-0.09-0.596-0.235-0.84-0.437
		c-0.244-0.2-0.436-0.459-0.577-0.775c-0.141-0.315-0.211-0.705-0.211-1.166v-9.141h-2.025v-1.654h2.025v-3.884H185.715z"></path>
	<path fill="#2E2A25" d="M191.979,216.429c0.034-0.641,0.209-1.196,0.526-1.666c0.316-0.471,0.715-0.859,1.198-1.167
		s1.02-0.534,1.609-0.68c0.59-0.146,1.175-0.218,1.756-0.218c0.641,0,1.265,0.07,1.872,0.212c0.606,0.141,1.145,0.365,1.615,0.673
		c0.47,0.308,0.846,0.707,1.128,1.198c0.282,0.492,0.423,1.083,0.423,1.775v6.872c0,0.137,0.026,0.273,0.077,0.41
		s0.12,0.259,0.205,0.365s0.186,0.192,0.301,0.256c0.115,0.064,0.237,0.097,0.365,0.097c0.094,0,0.19-0.011,0.289-0.032
		s0.211-0.054,0.34-0.096v1.576c-0.274,0.077-0.506,0.135-0.699,0.173c-0.192,0.039-0.404,0.059-0.635,0.059
		c-0.556,0-1.015-0.205-1.378-0.616c-0.363-0.41-0.57-1.042-0.622-1.896c-0.411,0.538-0.816,0.972-1.218,1.301
		s-0.801,0.583-1.198,0.763c-0.397,0.18-0.799,0.299-1.205,0.359c-0.406,0.06-0.819,0.09-1.237,0.09
		c-0.539,0-1.043-0.086-1.513-0.257c-0.47-0.171-0.878-0.417-1.224-0.737s-0.62-0.707-0.821-1.16s-0.301-0.957-0.301-1.513
		s0.122-1.032,0.366-1.43c0.243-0.397,0.566-0.736,0.968-1.019c0.401-0.282,0.859-0.521,1.372-0.718
		c0.513-0.197,1.034-0.372,1.564-0.526c0.53-0.153,1.051-0.299,1.564-0.436s0.97-0.29,1.372-0.461
		c0.401-0.171,0.724-0.37,0.968-0.597s0.365-0.502,0.365-0.827c0-0.76-0.278-1.31-0.833-1.646c-0.556-0.338-1.329-0.507-2.32-0.507
		c-0.384,0-0.75,0.038-1.096,0.115c-0.346,0.077-0.652,0.197-0.917,0.359c-0.265,0.162-0.487,0.371-0.667,0.628
		c-0.179,0.256-0.295,0.564-0.346,0.923H191.979z M200.17,218.608c-0.265,0.282-0.613,0.517-1.045,0.705
		c-0.432,0.188-0.893,0.356-1.384,0.506c-0.492,0.15-0.987,0.293-1.487,0.43s-0.951,0.302-1.353,0.493
		c-0.402,0.192-0.729,0.426-0.98,0.699c-0.252,0.273-0.378,0.615-0.378,1.025c0,0.376,0.064,0.694,0.192,0.955
		c0.128,0.261,0.299,0.477,0.513,0.647c0.214,0.171,0.455,0.295,0.725,0.372c0.269,0.076,0.541,0.115,0.814,0.115
		c0.803,0,1.587-0.241,2.353-0.725c0.765-0.482,1.442-1.229,2.032-2.237V218.608z"></path>
	<path fill="#2E2A25" d="M207.306,212.929h1.936v1.975c0.675-0.777,1.406-1.34,2.192-1.686c0.786-0.347,1.589-0.52,2.41-0.52
		c0.615,0,1.164,0.09,1.647,0.27c0.482,0.179,0.893,0.438,1.23,0.775c0.337,0.338,0.594,0.748,0.769,1.23
		c0.175,0.483,0.263,1.028,0.263,1.635v9.371h-1.91v-9.141c0-0.444-0.054-0.822-0.161-1.135c-0.107-0.312-0.263-0.563-0.468-0.756
		s-0.455-0.331-0.75-0.417c-0.295-0.085-0.626-0.128-0.994-0.128c-0.589,0-1.141,0.104-1.653,0.314
		c-0.513,0.209-0.962,0.486-1.346,0.833c-0.385,0.346-0.686,0.743-0.904,1.192c-0.218,0.448-0.327,0.912-0.327,1.391v7.846h-1.936
		V212.929z"></path>
	<path fill="#2E2A25" d="M232.375,225.979h-1.91v-1.975c-0.453,0.753-1.004,1.318-1.653,1.699c-0.65,0.38-1.316,0.57-2,0.57
		c-0.889,0-1.671-0.178-2.346-0.532s-1.241-0.837-1.699-1.448c-0.457-0.611-0.803-1.329-1.038-2.154
		c-0.235-0.824-0.353-1.707-0.353-2.646c0-0.94,0.113-1.823,0.34-2.647c0.226-0.825,0.566-1.545,1.019-2.16
		c0.453-0.615,1.015-1.101,1.686-1.455s1.451-0.532,2.34-0.532c0.316,0,0.643,0.054,0.98,0.16c0.338,0.107,0.669,0.255,0.994,0.442
		c0.325,0.188,0.637,0.412,0.936,0.673c0.299,0.261,0.564,0.545,0.794,0.853v-7.115h1.91V225.979z M230.465,219.288
		c-0.017-0.676-0.109-1.311-0.275-1.904s-0.402-1.11-0.705-1.551c-0.304-0.44-0.673-0.789-1.109-1.045
		c-0.436-0.257-0.932-0.385-1.487-0.385c-0.564,0-1.068,0.133-1.513,0.397s-0.818,0.628-1.122,1.09
		c-0.303,0.461-0.537,1.002-0.699,1.621c-0.163,0.62-0.244,1.28-0.244,1.981c0,0.7,0.081,1.358,0.244,1.974
		c0.162,0.615,0.396,1.152,0.699,1.609s0.677,0.818,1.122,1.083s0.949,0.397,1.513,0.397c0.573,0,1.081-0.133,1.526-0.397
		c0.444-0.265,0.818-0.626,1.122-1.083s0.534-0.994,0.692-1.609c0.158-0.615,0.237-1.273,0.237-1.974V219.288z"></path>
	<path fill="#2E2A25" d="M236.024,219.467c0-0.931,0.13-1.808,0.391-2.628s0.641-1.538,1.141-2.153s1.117-1.101,1.853-1.455
		c0.735-0.354,1.577-0.532,2.525-0.532s1.794,0.178,2.538,0.532s1.367,0.84,1.872,1.455s0.889,1.333,1.154,2.153
		c0.265,0.82,0.397,1.697,0.397,2.628c0,0.932-0.132,1.808-0.397,2.628c-0.265,0.821-0.649,1.534-1.154,2.142
		c-0.504,0.606-1.128,1.087-1.872,1.442c-0.744,0.354-1.589,0.531-2.538,0.531s-1.791-0.177-2.525-0.531
		c-0.735-0.355-1.353-0.836-1.853-1.442c-0.5-0.607-0.88-1.32-1.141-2.142C236.154,221.274,236.024,220.398,236.024,219.467z
		 M237.934,219.467c0,0.692,0.092,1.347,0.276,1.962c0.184,0.615,0.449,1.149,0.795,1.603c0.346,0.453,0.767,0.812,1.263,1.076
		c0.496,0.266,1.051,0.397,1.667,0.397s1.171-0.132,1.667-0.397c0.496-0.265,0.917-0.623,1.263-1.076s0.613-0.987,0.801-1.603
		s0.282-1.27,0.282-1.962s-0.094-1.346-0.282-1.961s-0.455-1.154-0.801-1.615c-0.346-0.462-0.767-0.825-1.263-1.09
		s-1.051-0.397-1.667-0.397s-1.171,0.133-1.667,0.397c-0.496,0.265-0.917,0.628-1.263,1.09c-0.346,0.461-0.611,1-0.795,1.615
		C238.026,218.121,237.934,218.774,237.934,219.467z"></path>
	<path fill="#2E2A25" d="M262.255,221.941c0.008,0.479,0.092,0.885,0.25,1.218s0.369,0.603,0.635,0.808
		c0.265,0.205,0.578,0.354,0.941,0.448c0.363,0.095,0.759,0.142,1.187,0.142c0.35,0,0.716-0.032,1.096-0.097
		c0.38-0.063,0.73-0.173,1.052-0.326c0.32-0.154,0.585-0.363,0.794-0.629c0.21-0.265,0.314-0.603,0.314-1.013
		c0-0.367-0.111-0.684-0.333-0.948c-0.223-0.265-0.518-0.498-0.885-0.699c-0.367-0.2-0.784-0.38-1.25-0.538s-0.942-0.324-1.43-0.5
		c-0.486-0.175-0.963-0.365-1.429-0.57s-0.883-0.451-1.25-0.737c-0.368-0.286-0.663-0.624-0.885-1.013
		c-0.223-0.389-0.333-0.856-0.333-1.403c0-0.573,0.126-1.073,0.378-1.5c0.252-0.428,0.587-0.78,1.006-1.058
		c0.419-0.278,0.902-0.485,1.449-0.622s1.115-0.205,1.705-0.205c0.666,0,1.288,0.07,1.865,0.212
		c0.576,0.141,1.079,0.356,1.506,0.647c0.428,0.29,0.768,0.66,1.02,1.108c0.252,0.449,0.391,0.98,0.416,1.596
		c-0.162,0-0.342-0.004-0.538-0.013c-0.196-0.008-0.358-0.013-0.487-0.013h-0.923c-0.043-0.351-0.147-0.643-0.313-0.878
		c-0.167-0.235-0.377-0.423-0.629-0.564c-0.252-0.141-0.543-0.241-0.871-0.301c-0.329-0.06-0.678-0.09-1.045-0.09
		c-0.847,0-1.492,0.156-1.937,0.468c-0.444,0.312-0.666,0.725-0.666,1.237c0,0.342,0.111,0.639,0.333,0.891
		c0.223,0.253,0.518,0.477,0.885,0.673c0.367,0.197,0.784,0.381,1.25,0.552s0.944,0.344,1.436,0.52
		c0.491,0.175,0.97,0.365,1.436,0.57s0.883,0.444,1.25,0.718c0.368,0.273,0.662,0.592,0.885,0.955s0.333,0.793,0.333,1.288
		c0,0.71-0.141,1.314-0.423,1.814s-0.66,0.91-1.135,1.23c-0.474,0.32-1.027,0.554-1.66,0.698c-0.632,0.146-1.294,0.219-1.986,0.219
		c-0.667,0-1.3-0.088-1.897-0.264c-0.599-0.175-1.124-0.441-1.577-0.801s-0.816-0.808-1.09-1.346
		c-0.273-0.539-0.423-1.167-0.448-1.885H262.255z"></path>
	<path fill="#2E2A25" d="M274.095,219.467c0-0.931,0.131-1.808,0.392-2.628c0.26-0.82,0.641-1.538,1.141-2.153
		s1.117-1.101,1.853-1.455c0.734-0.354,1.576-0.532,2.525-0.532c0.948,0,1.795,0.178,2.538,0.532
		c0.744,0.354,1.367,0.84,1.872,1.455c0.504,0.615,0.889,1.333,1.153,2.153s0.397,1.697,0.397,2.628
		c0,0.932-0.133,1.808-0.397,2.628c-0.265,0.821-0.649,1.534-1.153,2.142c-0.505,0.606-1.128,1.087-1.872,1.442
		c-0.743,0.354-1.59,0.531-2.538,0.531c-0.949,0-1.791-0.177-2.525-0.531c-0.735-0.355-1.353-0.836-1.853-1.442
		c-0.5-0.607-0.881-1.32-1.141-2.142C274.226,221.274,274.095,220.398,274.095,219.467z M276.005,219.467
		c0,0.692,0.092,1.347,0.275,1.962s0.449,1.149,0.795,1.603c0.347,0.453,0.768,0.812,1.263,1.076
		c0.496,0.266,1.052,0.397,1.667,0.397s1.171-0.132,1.666-0.397c0.496-0.265,0.917-0.623,1.264-1.076
		c0.346-0.453,0.612-0.987,0.801-1.603c0.188-0.615,0.282-1.27,0.282-1.962s-0.095-1.346-0.282-1.961
		c-0.188-0.615-0.455-1.154-0.801-1.615c-0.347-0.462-0.768-0.825-1.264-1.09c-0.495-0.265-1.051-0.397-1.666-0.397
		s-1.171,0.133-1.667,0.397c-0.495,0.265-0.916,0.628-1.263,1.09c-0.346,0.461-0.611,1-0.795,1.615S276.005,218.774,276.005,219.467
		z"></path>
	<path fill="#2E2A25" d="M292,207.711v18.269h-1.91v-18.269H292z"></path>
	<path fill="#2E2A25" d="M306.468,225.749h-1.91v-1.975c-0.676,0.778-1.408,1.34-2.199,1.686c-0.79,0.347-1.6,0.52-2.429,0.52
		c-0.607,0-1.152-0.09-1.635-0.27c-0.483-0.179-0.894-0.439-1.23-0.781c-0.338-0.342-0.597-0.752-0.775-1.231
		c-0.18-0.479-0.27-1.021-0.27-1.628v-9.371h1.936v9.128c0,0.453,0.054,0.833,0.16,1.141c0.107,0.308,0.263,0.56,0.468,0.757
		c0.205,0.196,0.455,0.337,0.75,0.423c0.295,0.085,0.626,0.128,0.994,0.128c0.581,0,1.128-0.104,1.641-0.314
		c0.513-0.209,0.962-0.486,1.346-0.833c0.385-0.346,0.688-0.743,0.91-1.192c0.223-0.448,0.334-0.912,0.334-1.391v-7.846h1.91
		V225.749z"></path>
	<path fill="#2E2A25" d="M319.064,216.941c-0.128-0.461-0.291-0.854-0.487-1.18c-0.196-0.324-0.427-0.587-0.692-0.788
		c-0.265-0.2-0.568-0.346-0.91-0.436s-0.722-0.135-1.141-0.135c-0.607,0-1.146,0.131-1.615,0.391
		c-0.47,0.261-0.867,0.613-1.192,1.058c-0.325,0.445-0.572,0.96-0.743,1.545c-0.171,0.586-0.257,1.199-0.257,1.84
		c0,0.667,0.086,1.32,0.257,1.961c0.171,0.642,0.418,1.21,0.743,1.705c0.325,0.496,0.72,0.896,1.186,1.199s0.989,0.455,1.57,0.455
		c0.471,0,0.887-0.083,1.25-0.25s0.68-0.396,0.949-0.686c0.27-0.291,0.491-0.626,0.666-1.007c0.176-0.38,0.306-0.788,0.392-1.225
		h2.103c-0.095,0.761-0.287,1.442-0.577,2.045c-0.291,0.603-0.667,1.115-1.128,1.539c-0.462,0.423-1.007,0.745-1.635,0.968
		c-0.628,0.222-1.327,0.333-2.096,0.333c-0.649,0-1.237-0.097-1.763-0.288c-0.526-0.192-0.996-0.455-1.41-0.789
		c-0.415-0.333-0.773-0.727-1.077-1.179c-0.304-0.453-0.554-0.94-0.75-1.462s-0.344-1.064-0.442-1.628
		c-0.099-0.564-0.147-1.128-0.147-1.692c0-0.923,0.135-1.782,0.404-2.577c0.269-0.795,0.653-1.484,1.153-2.07
		c0.5-0.585,1.104-1.047,1.814-1.384c0.709-0.338,1.5-0.507,2.371-0.507c0.761,0,1.44,0.107,2.038,0.32
		c0.599,0.214,1.116,0.511,1.552,0.892c0.436,0.38,0.79,0.829,1.063,1.346c0.273,0.518,0.475,1.079,0.603,1.686H319.064z"></path>
	<path fill="#2E2A25" d="M327.148,207.711v2.257h-1.91v-2.257H327.148z M327.148,212.929v13.051h-1.91v-13.051H327.148z"></path>
	<path fill="#2E2A25" d="M331.193,219.467c0-0.931,0.131-1.808,0.392-2.628c0.26-0.82,0.641-1.538,1.141-2.153
		s1.117-1.101,1.853-1.455c0.734-0.354,1.576-0.532,2.525-0.532c0.948,0,1.795,0.178,2.538,0.532
		c0.744,0.354,1.367,0.84,1.872,1.455c0.504,0.615,0.889,1.333,1.153,2.153s0.397,1.697,0.397,2.628
		c0,0.932-0.133,1.808-0.397,2.628c-0.265,0.821-0.649,1.534-1.153,2.142c-0.505,0.606-1.128,1.087-1.872,1.442
		c-0.743,0.354-1.59,0.531-2.538,0.531c-0.949,0-1.791-0.177-2.525-0.531c-0.735-0.355-1.353-0.836-1.853-1.442
		c-0.5-0.607-0.881-1.32-1.141-2.142C331.324,221.274,331.193,220.398,331.193,219.467z M333.104,219.467
		c0,0.692,0.092,1.347,0.275,1.962s0.449,1.149,0.795,1.603c0.347,0.453,0.768,0.812,1.263,1.076
		c0.496,0.266,1.052,0.397,1.667,0.397s1.171-0.132,1.666-0.397c0.496-0.265,0.917-0.623,1.264-1.076
		c0.346-0.453,0.612-0.987,0.801-1.603c0.188-0.615,0.282-1.27,0.282-1.962s-0.095-1.346-0.282-1.961
		c-0.188-0.615-0.455-1.154-0.801-1.615c-0.347-0.462-0.768-0.825-1.264-1.09c-0.495-0.265-1.051-0.397-1.666-0.397
		s-1.171,0.133-1.667,0.397c-0.495,0.265-0.916,0.628-1.263,1.09c-0.346,0.461-0.611,1-0.795,1.615S333.104,218.774,333.104,219.467
		z"></path>
	<path fill="#2E2A25" d="M346.688,212.929h1.936v1.975c0.675-0.777,1.406-1.34,2.192-1.686c0.786-0.347,1.59-0.52,2.41-0.52
		c0.615,0,1.164,0.09,1.647,0.27c0.482,0.179,0.893,0.438,1.23,0.775s0.594,0.748,0.77,1.23c0.175,0.483,0.263,1.028,0.263,1.635
		v9.371h-1.91v-9.141c0-0.444-0.054-0.822-0.16-1.135c-0.107-0.312-0.263-0.563-0.468-0.756c-0.206-0.192-0.456-0.331-0.75-0.417
		c-0.295-0.085-0.627-0.128-0.994-0.128c-0.59,0-1.141,0.104-1.653,0.314c-0.513,0.209-0.962,0.486-1.347,0.833
		c-0.384,0.346-0.686,0.743-0.903,1.192c-0.218,0.448-0.327,0.912-0.327,1.391v7.846h-1.936V212.929z"></path>
	<path fill="#2E2A25" d="M362.81,219.813c0.009,0.606,0.115,1.196,0.32,1.769c0.206,0.573,0.485,1.079,0.84,1.52
		s0.771,0.793,1.25,1.058s0.996,0.397,1.552,0.397c1.88,0,3.123-0.872,3.73-2.615h1.756c-0.146,0.684-0.393,1.293-0.743,1.827
		s-0.771,0.982-1.263,1.346c-0.492,0.363-1.034,0.641-1.628,0.833c-0.595,0.192-1.212,0.289-1.853,0.289
		c-0.915,0-1.742-0.188-2.48-0.564c-0.74-0.376-1.368-0.883-1.885-1.52c-0.518-0.637-0.917-1.376-1.199-2.218
		c-0.281-0.842-0.423-1.732-0.423-2.673c0-0.871,0.139-1.705,0.417-2.5c0.277-0.794,0.675-1.493,1.192-2.096
		c0.517-0.603,1.143-1.081,1.878-1.436c0.734-0.354,1.56-0.532,2.474-0.532c0.881,0,1.678,0.16,2.392,0.48
		c0.713,0.32,1.32,0.763,1.82,1.327s0.885,1.235,1.153,2.013c0.27,0.777,0.404,1.62,0.404,2.525v0.77H362.81z M370.527,218.313
		c-0.018-0.547-0.117-1.06-0.302-1.538c-0.184-0.479-0.444-0.894-0.781-1.244c-0.338-0.351-0.744-0.626-1.218-0.827
		c-0.475-0.2-1.011-0.301-1.609-0.301c-0.538,0-1.036,0.107-1.493,0.32c-0.457,0.214-0.857,0.502-1.199,0.865s-0.61,0.78-0.808,1.25
		c-0.196,0.471-0.299,0.962-0.308,1.475H370.527z"></path>
	<path fill="#2E2A25" d="M378.149,221.941c0.008,0.479,0.092,0.885,0.25,1.218s0.369,0.603,0.635,0.808
		c0.265,0.205,0.578,0.354,0.941,0.448c0.363,0.095,0.759,0.142,1.187,0.142c0.35,0,0.716-0.032,1.096-0.097
		c0.38-0.063,0.73-0.173,1.052-0.326c0.32-0.154,0.585-0.363,0.794-0.629c0.21-0.265,0.314-0.603,0.314-1.013
		c0-0.367-0.111-0.684-0.333-0.948c-0.223-0.265-0.518-0.498-0.885-0.699c-0.367-0.2-0.784-0.38-1.25-0.538s-0.942-0.324-1.43-0.5
		c-0.486-0.175-0.963-0.365-1.429-0.57s-0.883-0.451-1.25-0.737c-0.368-0.286-0.663-0.624-0.885-1.013
		c-0.223-0.389-0.333-0.856-0.333-1.403c0-0.573,0.126-1.073,0.378-1.5c0.252-0.428,0.587-0.78,1.006-1.058
		c0.419-0.278,0.902-0.485,1.449-0.622s1.115-0.205,1.705-0.205c0.666,0,1.288,0.07,1.865,0.212
		c0.576,0.141,1.079,0.356,1.506,0.647c0.428,0.29,0.768,0.66,1.02,1.108c0.252,0.449,0.391,0.98,0.416,1.596
		c-0.162,0-0.342-0.004-0.538-0.013c-0.196-0.008-0.358-0.013-0.487-0.013h-0.923c-0.043-0.351-0.147-0.643-0.313-0.878
		c-0.167-0.235-0.377-0.423-0.629-0.564c-0.252-0.141-0.543-0.241-0.871-0.301c-0.329-0.06-0.678-0.09-1.045-0.09
		c-0.847,0-1.492,0.156-1.937,0.468c-0.444,0.312-0.666,0.725-0.666,1.237c0,0.342,0.111,0.639,0.333,0.891
		c0.223,0.253,0.518,0.477,0.885,0.673c0.367,0.197,0.784,0.381,1.25,0.552s0.944,0.344,1.436,0.52
		c0.491,0.175,0.97,0.365,1.436,0.57s0.883,0.444,1.25,0.718c0.368,0.273,0.662,0.592,0.885,0.955s0.333,0.793,0.333,1.288
		c0,0.71-0.141,1.314-0.423,1.814s-0.66,0.91-1.135,1.23c-0.474,0.32-1.027,0.554-1.66,0.698c-0.632,0.146-1.294,0.219-1.986,0.219
		c-0.667,0-1.3-0.088-1.897-0.264c-0.599-0.175-1.124-0.441-1.577-0.801s-0.816-0.808-1.09-1.346
		c-0.273-0.539-0.423-1.167-0.448-1.885H378.149z"></path>
	<path fill="#2E2A25" d="M412.406,207.813v1.757h-6.013v16.409h-1.936V209.57h-6.013v-1.757H412.406z"></path>
	<path fill="#2E2A25" d="M414.631,223.454v2.525h-2.461v-2.525H414.631z"></path>
	<path fill="#2E2A25" d="M421.036,207.813v18.166h-1.936v-18.166H421.036z"></path>
	<path fill="#2E2A25" d="M428.068,223.454v2.525h-2.461v-2.525H428.068z"></path>
</g>
</svg>
