<?xml version="1.0"?>

<svg xmlns="http://www.w3.org/2000/svg" viewBox="0 0 442.1 274.7" width="442.1" height="274.7">
   
  <path d="m 205.4,222.5 5,-6.3 0.3,6.3 -5.3,0 z m 13,-12 -8.3,0 c -1.1,0 -2.2,0.6 -2.9,1.5 l -15.7,18.1 7.8,0 3.1,-3.8 8.4,0 0.2,3.8 9.3,0 m -86.2,-7.6 5,-6.3 0.3,6.3 -5.3,0 z m 13,-12 -8.4,0 c -0.9,0 -2.1,0.6 -2.8,1.5 l -15.7,18.1 7.8,0 3.1,-3.8 8.4,0 0.3,3.8 9.3,0 m -71.6,-7.6 5,-6.3 0.3,6.3 -5.3,0 z m 13,-12 -8.3,0 c -1.1,0 -2.2,0.6 -2.9,1.5 l -15.7,18.1 7.7,0 3.2,-3.8 8.4,0 0,3.8 9.3,0 m 188.2,-4.2 5.9,-15.4 -9.3,0 -7.6,19.6 21.2,0 1.6,-4.2 m -31.6,-9.1 c -0.6,1.4 -2.3,2.5 -4,2.5 l -5.2,0 1.9,-5 5.2,0 c 1.7,0 2.6,1.1 2.1,2.5 m -0.7,-6.2 -14.5,0 -7.5,19.5 9.3,0 2.8,-7.1 2.8,0 1.8,7.1 10.2,0 -2.5,-7.8 c 4.2,-0.9 6.6,-2.8 7.6,-5.5 1.6,-3.9 -1.3,-6.2 -10,-6.2 m -142.5,6.2 c -0.6,1.4 -2.3,2.5 -4,2.5 l -5.2,0 1.9,-5 5.2,0 c 1.7,0 2.6,1.1 2.1,2.5 m -0.7,-6.2 -14.5,0 -7.5,19.5 9.3,0 2.8,-7.1 5.1,0 c 8.7,0 13.3,-2.3 14.8,-6.2 1.6,-3.9 -1.3,-6.2 -10,-6.2 m -52.9,12.9 c -2.6,6.7 -8.9,7.2 -13.3,7.2 -2.6,0 -4.7,-0.2 -6.5,-0.6 l 1.5,-4.2 c 4.3,0.5 8,0.1 9.4,-3.6 l 4.6,-11.8 9.3,0 m 265.7,19.7 -7.6,0 -6.3,-11.6 -4.4,11.6 -7.6,0 7.5,-19.6 8.8,0 5.6,10.3 4,-10.3 7.5,0 m -164.8,19.6 -7.5,0 -6.4,-11.6 -4.4,11.6 -7.6,0 7.5,-19.6 8.8,0 5.6,10.3 4,-10.3 7.5,0 m 178.2,19.6 -22.7,0 7.5,-19.6 22.7,0 -1.4,3.8 -13.4,0 -1.5,3.9 11.1,0 -1.4,3.8 -11.2,0 -1.5,3.9 13.4,0 m -61.8,4.2 -9.3,0 7.5,-19.6 9.3,0 m -78,19.6 -9.3,0 7.5,-19.6 9.3,0 M 395.5,224 c -2,5.1 -8.8,6.7 -16.1,6.7 -7.4,0 -12.1,-1.6 -11,-6.7 l 9.3,0 c -0.3,1.4 0.6,2.2 3.4,2.2 2.7,0 4.5,-0.9 5,-2.2 1.3,-3.3 -17.1,-0.1 -14.2,-7.7 1.7,-4.3 8.1,-6.3 15.4,-6.3 7.4,0 11.5,1.5 10.7,6.3 l -9.2,0 c 0,-1.3 -0.3,-2.3 -3,-2.3 -2.8,0 -4.2,1 -4.7,2.3 -1.4,3.4 17.3,0 14.4,7.7 M 253.7,121.1 c -14,13.6 -35,4.9 -32.8,-11.8 1.6,-12.9 17.4,-25.8 29.4,-32.8 l 0,-0.3 c -1.5,-1.5 -4.8,-4.9 -6.9,-7.4 -5.8,-7 -16,-7.3 -22,0.4 l -34.5,3.2 0,0.3 36.9,2.1 c 6.6,0.4 8.7,6.4 2.4,11.2 -23.5,17.8 -27.6,36.6 -22.4,51.6 l -0.3,0 c -2.1,-3.1 -3.8,-6.9 -4.6,-10.8 -11.3,-7.1 -20.5,-20.5 -20.5,-37.2 0,-24.2 19.8,-44.1 44.2,-44.1 24.4,0 44.1,19.9 44.1,44.1 0,13.1 -5.6,24.2 -13,31.4 m 8.6,41.4 -21.2,0 7.5,-19.6 9.4,0 -6,15.5 11.9,0 -1.6,4.1 z m -33.1,0 -0.1,-3.8 -8.5,0 -3.1,3.8 -7.7,0 15.7,-18.1 c 0.7,-0.9 1.8,-1.5 2.8,-1.5 l 8.4,0 1.9,19.6 -9.4,0 z m -32,0.8 c -2.5,0 -4.7,-0.3 -6.4,-0.7 l 1.5,-4.1 c 4.3,0.5 8,0 9.4,-3.7 l 4.6,-11.8 9.3,0 -5,13.1 c -2.6,6.6 -8.9,7.2 -13.4,7.2 M 291,118.5 c 0.4,-4.4 0.3,-10.6 -0.4,-15.2 l 0,0 c -1.5,6.7 -5.8,15.7 -15.1,23.1 l 0,0 c 8.2,-8.8 13.1,-19.5 13.8,-30.6 -1.6,-6.1 -3.9,-12 -7,-17.3 l 0,0 c 1.5,11.2 -1.2,26 -12,38 l -0.3,0 C 279.3,103 281.8,86.6 277.7,71.8 265.2,54.9 245.2,44 222.5,44 c -22.6,0 -42.6,10.9 -55.1,27.8 -4.1,14.8 -1.7,31.2 7.7,44.7 l 0,0 c -10.9,-12 -13.5,-26.8 -11.9,-38 l 0,0 c -3,5.2 -5.4,11.1 -6.9,17.2 0.7,11.1 5.6,21.9 13.8,30.6 l 0,0 c -9.4,-7.4 -13.7,-16.4 -15.1,-23.1 l 0,0 c -0.6,4.6 -0.7,10.8 -0.3,15.2 2.3,7.3 7.4,13.5 12.5,18 l 0,0.3 c -5.7,-3.6 -8.9,-7.1 -11.1,-10.2 l 0,0 c 6.3,30.8 33.9,54.5 67.1,54.5 33.2,0 60.8,-23.7 67.1,-54.5 l 0,0 c -2.8,3 -6,6.5 -11.8,10.1 l 0,-0.3 c 5.2,-4.4 10.2,-10.6 12.6,-18 m -67.3,36.8 5.3,0 -0.3,-6.3"></path>
   
</svg>
