<?xml version="1.0"?>
<!--?xml version="1.0" encoding="UTF-8" standalone="no"?-->
<svg xmlns="http://www.w3.org/2000/svg" viewBox="0 0 500 70" height="70" width="500">
   <path d="M 18.64,3.284 V 38 c 0,0.44 0,0.84 0,1.26 0.16,-0.22 0.25,-0.51 0.47,-0.66 0.49,1.65 0.1,-1.31 0.73,-0.88 1.02,2.29 -1.13,2.63 0.73,3.53 -1.16,0.51 -0.98,-0.12 -1.83,0.46 0.25,-0.77 0.1,-1.01 -0.2,-1.19 -0.1,0.61 -0.15,1.19 -0.28,1.73 0.71,-0.19 1.66,-0.64 1.99,0.48 -1.43,-0.71 -0.12,1.92 -1.09,1.78 -0.25,-0.62 -1.02,-0.63 -1.14,-1.41 -0.15,0.45 -0.33,0.88 -0.53,1.27 0.73,0.18 1.38,0.72 1.84,1.81 0,-0.26 0.3,-0.51 0.38,0 -0.74,0.88 -0.98,0.11 -1.46,-0.45 0.14,2.98 -2.09,3.07 -2.56,5.32 0.3,0.1 0.72,0 0.73,0.44 -2,1.06 -0.35,-3.5 -1.81,-1.77 0,-0.7 0.1,-1.25 0.23,-1.73 -0.1,-0.1 -0.17,-0.13 -0.26,-0.24 0.39,0 0.35,-0.54 0.57,-0.78 0,-0.1 0.1,-0.17 0.1,-0.27 -0.84,0.47 -1.88,0.78 -3.11,0.93 0,0 -0.65,0.13 -0.98,0.1 -0.2,0 -0.38,0 -0.59,0 -1.364,0 -2.936,-0.14 -4.507,-0.72 v 6.15 C 7.561,53.72 9.562,54 11.84,54 22.63,54 25.86,47.29 25.86,40.28 v -18 c -0.3,0.61 -0.68,1.13 -1.47,1.14 -1.01,-1.29 1.2,-1.14 0.74,-3.1 0.31,0.19 0.53,0.22 0.73,0.21 V 20 c -0.31,-0.13 -0.71,-0.26 -1.26,0 0.1,0.1 0.11,0.16 0.16,0.31 -0.87,-0.17 0.2,2.02 -1.1,1.33 -0.1,-0.48 0.24,-1.39 0.56,-1.67 -0.44,-0.85 -1.31,-1.18 -1.73,-2.03 0.45,0 0.86,-0.13 0.73,-0.88 -0.45,0.1 -0.74,0.69 -0.73,-0.46 1.87,-0.11 2.22,0.68 3.37,0.65 V 6.564 H 24.63 C 25.04,5.169 24.06,5.489 23.9,4.791 24.58,4.686 23.69,4.063 24.26,3.905 c 0.23,0.779 0.97,0.948 1.52,1.337 V 3.284 Z m 13.86,0 V 46.62 c 0.52,0.1 0.72,-0.28 0.96,0.26 -0.35,0.32 -0.57,0.83 -0.96,1.11 v 5.15 h 7.71 c 0,-0.54 0.17,-0.96 0.39,-1.31 -1.82,-1.73 -3.21,0.82 -2.56,-1.33 -0.46,0 -0.49,0.57 -1.08,0.44 -0.6,-0.9 -1.2,-1.8 -1.46,-3.1 1.4,0.1 0.12,-0.36 0.36,-1.33 1.63,-0.65 1.12,1.3 2.55,0.88 0,-1.24 0.7,-1.68 1.22,-2.3 V 30.43 h 4.65 c 3.72,0 7.68,0.4 10.22,2.42 0,-0.1 0.1,-0.1 0.1,-0.15 h 0.73 c -0.1,0.64 0.21,0.86 0.32,1.31 0.5,0.64 0.89,1.4 1.16,2.28 0.19,0 0.42,0 0.66,0.42 -0.19,0.14 -0.35,0.23 -0.48,0.28 0.15,0.68 0.24,1.4 0.24,2.23 0,3.36 -1.47,5.39 -3.74,6.56 0,0.48 0,1.04 -0.35,1.1 0,-0.32 0,-0.68 0.1,-0.97 -1.59,0.75 -3.52,1.14 -5.64,1.29 0,0.39 -0.1,0.67 -0.41,0.64 0,-0.12 -0.15,-0.37 -0.29,-0.61 -0.18,0 -0.39,0 -0.59,0 0.46,0.6 1,1.07 0.88,2.36 -1.47,-0.18 -1.62,0.82 -2.18,-0.44 -0.76,1.31 0.79,4.02 0,3.54 -1.73,-1.45 -1.17,-2.02 -3.28,-0.89 0.44,0.24 0.64,0.75 0.8,1.32 h 3.31 c 0.52,0 1.04,0 1.57,0 -1.08,-0.93 -1.75,-2.1 -0.95,-1.18 1.77,-1.76 3,-0.24 4.66,-1.89 -0.91,1.65 -0.29,1.08 1.05,0.22 0,0.2 0,0.41 0,0.58 0,0 0,0 0.1,0 0.1,0 0.17,0 0.29,-0.1 0.13,-0.11 0.25,-0.24 0.25,-0.24 l 0.34,-0.33 -0.23,-0.39 0.57,0.14 c 0,0 0,0.28 0.26,0 0.25,-0.25 0.1,-0.53 0.1,-0.53 0,0 0.59,-0.31 0.61,-0.26 0,0 0.1,0.3 0.11,0.33 0.1,0 1.27,0.26 1.27,0.26 l 2.12,-0.63 v -0.85 c 0.38,-1.15 -0.68,-0.64 0.57,-1.21 0.66,0.2 1.18,0.99 1.06,1.49 0.15,0.1 0.32,-0.19 0.46,-0.12 0.12,-0.85 -0.46,-0.69 0.33,-1.73 0.39,0.25 1.19,0.75 1.85,1.27 1.69,-1.97 2.69,-4.62 2.69,-8.19 0,-6.39 -4,-10.63 -9.88,-11.76 -0.73,0.2 -0.91,0.45 -1.24,0.42 0,0.15 -1.42,0.42 -1.53,-1.13 0.29,-0.1 0.72,0 0.73,-0.44 -0.69,-0.19 -0.91,-0.96 -1.82,-0.89 -0.8,2.15 -2,1.72 -2.9,3.55 -0.3,-1.74 -0.67,-1.3 -1.46,-1.77 0.75,-0.25 0.77,-0.69 0.36,-1.33 1.07,0.11 1.35,0.61 1.83,0 -0.58,-0.25 -0.11,-1.76 -0.58,-2.13 -0.26,0 -0.55,0.1 -0.83,0.1 0.56,1.32 -0.61,1.07 -1.05,0.11 -0.1,0 -0.12,0 -0.18,0 -0.31,0.96 -0.57,2.03 -0.65,3.3 0.45,0 0.86,0.13 0.73,0.88 h -1.1 c -0.1,-0.82 -0.22,-1.48 -0.72,-1.77 0.25,1.19 -0.76,0.86 -1.09,1.33 -1.03,-0.93 0.1,-1.66 -1.1,-2.2 0.32,-0.56 0.46,-1.04 0.48,-1.49 H 39.63 V 9.139 h 7.5 c 4.16,0 9.22,1.511 9.22,7.431 0,3.3 -1.18,5.23 -3.1,6.39 0.16,0.31 0.28,0.4 0.71,-0.45 0,1.22 0.6,0.89 0,1.77 1.35,0 1.17,0.67 1.82,-0.44 -0.12,1.03 0.1,1.7 0.36,2.22 -0.55,0.1 -0.76,0.52 -0.91,1.05 3.03,-1.06 5.37,-2.69 6.78,-5.1 -0.65,-0.15 -1.34,-0.23 -1.24,-1.27 0.64,0 1.12,-0.1 1.46,-0.45 0.11,-0.28 0.52,0.14 0.52,0.14 0.49,-1.31 0.74,-2.83 0.74,-4.58 C 63.49,6.641 56.35,3.286 46,3.286 Z M 21.18,7.807 c 1.11,0.05 0.96,1.574 1.64,0.09 0.14,1.062 -0.67,0.96 -0.38,2.213 0.55,-0.704 1.49,-0.326 1.82,0.44 -2.74,-0.593 -0.66,1.92 -2.55,2.21 0.82,-1.68 -0.51,-1.93 -1.08,-3.096 1.48,-0.474 0.85,-1.004 0,-1.771 0.21,-0.07 0.39,-0.09 0.55,-0.09 z m 3.51,5.863 c 0.32,1.56 -0.89,2.35 -1.08,0.89 0.72,0.14 0.72,-0.59 1.08,-0.89 z m 95.91,2.18 v 0 c -7.3,0 -13,3.64 -13,11.22 v 0.68 c 0.1,0 0.3,0 0.4,0.1 -0.1,1.38 0.9,2.51 1.4,1.77 0.2,0.55 0.3,1.19 0.4,1.78 0.6,-0.14 1.9,-1.27 1.9,-0.44 -0.5,0 -1.4,1.42 -1.9,0.66 0.3,0.75 0.6,1.37 1.2,1.55 0.7,-0.56 2.6,-1.81 2.6,0.43 -1.1,-0.22 -1.8,0 -2.4,0.36 0.5,0.4 1,0.79 1.6,1.14 0.1,0 0.2,0 0.3,0.15 0.1,0.11 0.3,0.22 0.5,0.33 0.1,0 0.2,-0.1 0.2,-0.15 0,0.11 0.1,0.22 0.1,0.31 1.9,1.1 4.2,2 5.9,3.01 0,-0.1 -0.1,-0.15 -0.1,-0.25 0.4,-0.1 0.6,-0.5 0.7,-0.89 0.7,-0.18 1,0.65 1.1,0 -0.2,0 -0.4,-0.11 -0.3,-0.44 0.7,-0.33 1.4,1.62 0.7,1.76 -0.1,-0.9 -1,-0.2 -1.4,0.26 1.7,1.1 2.9,2.39 2.9,4.2 0,3.93 -3.7,5.22 -6.9,5.22 -0.9,0 -2,-0.17 -3.3,-0.52 -0.3,0.25 -0.6,0.26 -0.7,-0.2 -0.3,-0.1 -0.5,-0.15 -0.8,-0.23 -0.1,0.59 -0.8,1.14 -1.5,1.37 v 0.11 c 0,0 0,-0.11 -0.1,-0.11 -1,0.28 -1.9,0 -1.8,-1.25 0.4,0.62 1.3,0.69 1.8,1.25 v 0 c -0.2,-0.59 -1.2,-1.56 -0.4,-1.68 0.1,0.56 0.5,0.91 1.2,0.89 0,-0.22 -0.1,-0.53 -0.2,-0.91 -1,-0.35 -1.9,-0.78 -2.7,-1.28 l -0.1,3.04 v 0.47 l -0.2,2.43 c 3.2,1.64 6.7,2 10.1,2 6.4,0 12.6,-3.58 12.6,-11.37 0,-6.28 -4.5,-8.55 -8.7,-10.48 v -0.1 h -0.2 c 0.1,0 0.1,0.1 0.2,0.1 0,0.22 0.2,0.48 -0.1,0.57 -0.3,-0.85 -1.1,-0.98 -1.7,-1.46 -2.9,-1.32 -5.1,-2.76 -5.1,-5.55 v -0.61 c -0.2,-0.35 -0.5,-0.54 -0.8,-0.77 -0.1,2.65 1.3,3.27 1.4,5.76 -0.7,-3.01 -2.5,-2.57 -3.2,-4.88 2,0.53 2,-1.72 1.4,-3.1 1.1,-0.21 1,-1.99 1.8,-2.66 -0.4,2.08 0.9,-0.61 1.1,0.89 -0.3,0.1 -1.1,1.46 -0.4,1.33 0.4,-1.11 1.3,-1.7 1.1,-3.55 h 1.5 c 0.4,1.42 -2.2,1.47 -0.7,2.67 0.2,0 0.4,-0.1 0.4,-0.45 -1,0.25 1.6,-1.79 1.8,0 -0.7,0.37 -1.1,0.76 -1.3,1.21 0.7,-0.18 1.5,-0.26 2.4,-0.26 1.4,0 5.5,0.94 7,1.86 l 0.6,-5.86 c -2.6,-0.79 -5.3,-1.43 -8.3,-1.43 z m -34.23,0 c -2.27,0 -3.33,0.22 -4.85,0.57 0.22,0.45 0.55,0.72 0,0.79 -0.35,-1.22 -0.95,0.58 -1.43,-0.38 -0.23,0.1 -0.45,0.15 -0.67,0.23 0.2,0.21 0.31,0.56 0.29,1.04 -0.27,-0.36 -0.69,-0.54 -1.09,-0.75 -0.14,0.1 -0.28,0.13 -0.41,0.21 0.27,0.46 0.57,0.91 0,0.99 -0.11,-0.37 -0.29,-0.62 -0.56,-0.76 -0.16,0.1 -0.33,0.14 -0.49,0.22 0.12,0.83 0.31,2.2 0,2.75 -0.1,-0.67 -1.56,-1.87 -0.73,-2.21 v -0.1 c -5.2,3.12 -8.39,8.8 -8.57,15.79 0.51,0.28 0.97,0.61 0.97,1.51 h -0.96 c 0.42,10.03 7.84,18.2 18.54,18.2 6.62,0 11.99,-3.18 15.09,-8 0,-0.23 0.2,-0.51 0.4,-0.91 -1.2,-0.61 -1.96,-1.57 -2.79,-2.65 v 0 c 0,0 0,0 0,0 -0.34,-0.36 -0.55,-0.86 -0.81,-1.31 0.56,0 0.9,0.31 1.17,0.68 -0.1,-0.55 -0.65,-1.21 0,-1.57 -1.34,0 -0.91,-0.65 -0.73,-1.77 -0.29,0 -0.59,-0.22 -0.86,-0.49 -0.1,0.14 -0.16,0.31 -0.28,0.51 -0.1,-0.1 -0.1,-0.19 -0.13,-0.28 -0.22,1.18 -0.56,2.31 -1.01,3.41 -1.66,3.92 -4.91,6.98 -10.05,6.98 -7.93,0 -11.43,-7.14 -11.43,-13.65 0,-1.46 0.21,-2.9 0.56,-4.29 -0.24,0.24 -0.45,0.27 -0.51,-0.16 0.22,0 0.43,-0.1 0.36,-0.44 -0.5,0 -0.8,0.21 -1.08,0.44 -0.59,-1.74 1.57,-0.15 1.44,-1.32 -0.22,0 -0.43,-0.1 -0.36,-0.45 0.39,-0.1 0.6,0.1 0.7,0.25 0,-0.1 0.1,-0.16 0.1,-0.23 -0.1,-0.9 0.12,-1.99 -0.73,-1 0,-2.5 1.46,-3.27 0,-4.43 0.88,-0.68 1.85,-1.06 2.74,-0.93 -0.17,-0.31 -0.49,-0.42 -0.65,-0.72 0.68,0 0.77,-0.34 0.37,-0.88 0.92,0 1.41,0.64 1.45,1.77 -0.18,0 -0.33,0 -0.45,0.1 0.35,0.2 0.68,0.52 0.96,0.98 1.76,-1.42 3.96,-2.3 6.55,-2.3 2.36,0 4.41,0.74 6.08,1.98 0,-0.22 0.11,-0.37 0.38,-0.31 0.28,0.26 0.38,0.6 0.38,0.93 1.57,1.4 2.76,3.26 3.52,5.36 0.51,-0.52 1.2,-0.75 1.56,-0.1 -0.49,0 -0.35,0.77 -0.73,0.88 0,-0.52 -0.31,-0.4 -0.6,-0.14 0.1,0.26 0.14,0.52 0.21,0.79 0.37,0.31 0.57,0.89 0.3,1.31 0.1,0.48 0.14,0.96 0.18,1.44 0,-0.15 0.12,-0.27 0.26,-0.3 0,0.7 1.37,1.3 1.05,1.91 0.31,-0.4 0.6,-0.82 0.83,-1.03 1.55,0.46 3.25,0.53 4.05,-0.45 0.4,0.18 0.7,0.41 1.1,0.62 0,-0.27 0,-0.55 0,-0.81 -0.7,-0.39 -1.3,-0.94 -1.8,-1.58 1,-0.73 -0.2,-0.92 0.6,-3.06 H 103 c 0,-0.77 -0.1,-1.38 -0.3,-1.77 0.3,0 0.5,-0.1 0.7,-0.1 -0.5,-1.42 -1.4,-2.72 -2.2,-3.9 h -0.1 c 0,-0.11 -0.1,-0.14 -0.1,-0.2 -0.4,-0.46 -0.8,-0.93 -1.15,-1.35 -0.2,-0.11 -0.39,-0.28 -0.5,-0.56 C 97.4,18.93 86.34,15.83 86.34,15.83 Z m 59.03,0 c -4.4,0 -8.3,1.4 -10.5,4.26 0,0.1 -0.1,0.12 -0.1,0.15 -1.4,1.74 -2.3,4 -2.3,6.81 v 0.82 c 1,0.22 2.2,1.57 1.4,2.17 -0.1,-0.53 -0.4,-0.28 -0.9,0 1,2.12 2.6,3.62 4.4,4.86 v 0 c 0.2,0.1 0.3,0.14 0.4,0.22 0.1,-0.1 0.2,-0.14 0.4,-0.24 v 0.42 c 1.9,1.15 4.2,2.06 6,3.05 2.2,-2.3 2.3,-2.42 4.2,-4.8 0.2,1.31 -0.7,1.53 -1.1,2.22 0.4,0 0.4,0.37 0.7,0.45 0,-0.54 0.1,-1.05 0.8,-0.88 -0.6,1.38 -0.1,1.52 1.1,1.77 0,2.23 -0.7,3.42 -1.7,5.19 0.1,0.31 0.1,0.66 0.1,1.02 0,1.36 -0.5,2.39 -1.2,3.17 0.6,0.57 1.1,1.15 2.5,0.81 0.5,0.77 0.3,3.38 -0.4,2.21 1,-1.37 -1.6,1.52 -1.6,0.44 0.7,-0.54 1.2,-1.37 2,-1.77 -1.3,-0.62 -2.7,1.52 -2,0.45 0,-0.45 0.3,-0.53 0.4,-0.89 -0.6,-0.72 -1.1,-0.59 -1.6,-0.59 -0.5,0.4 -1.2,0.68 -1.8,0.9 0.2,0.26 0.4,0.47 0.5,0.58 -0.3,0.1 -0.7,0 -0.7,0.45 1.3,-0.52 2.1,-2.3 2.5,0.43 -2.4,-0.48 0.1,2.23 -0.7,2.22 -0.1,-0.83 -0.6,0.25 -0.7,-0.45 1,-0.22 -2.5,-0.51 -1.1,-0.44 0.4,0 0.8,-0.13 0.7,-0.89 h -1 c 0,1.19 -0.6,0.88 0,1.76 -1.4,0.32 -0.4,-1.6 0,-1.76 0.1,-0.68 0,-1.22 -0.1,-1.7 -0.8,0.2 -1.7,0.28 -2.4,0.28 -2.1,0 -5.8,-0.85 -8.4,-2.57 l -0.5,6 c 3.2,1.65 6.6,2 10.1,2 6.5,0 12.7,-3.57 12.7,-11.36 0,-4.84 -2.8,-7.29 -5.9,-9.06 v 0 h -0.1 0.1 -0.1 v 0 0 c -2.3,-1.21 -4.8,-2.1 -6.6,-3.23 -0.2,0.12 -0.3,0.22 -0.6,0.2 v -0.64 c -1.7,-1.03 -2.7,-2.29 -2.7,-4.17 0,-3 3.1,-4.43 6.5,-4.43 1.5,0 5.6,0.94 7,1.86 l 0.6,-5.86 c -2.5,-0.78 -5.1,-1.43 -8.3,-1.43 z m -61.37,0.92 c -0.38,1.25 0.6,3.04 0,3.11 0,-0.28 -0.1,-0.54 -0.37,-0.45 -0.48,-0.1 -1.35,1.49 -1.46,0.45 0.49,0 0.34,-0.78 0.73,-0.9 0.94,0.74 -0.1,-2.29 1.1,-2.21 z m 4.37,0.56 c 1.09,1.49 -1.35,1.34 0,0 z m 54.6,1.1 c 0.6,0 0.7,1.6 0.1,1.45 0,-0.57 -0.5,-0.61 -0.4,-1.33 0.1,-0.1 0.2,-0.11 0.3,-0.12 z m -5.6,1.3 c 0,0 0.1,0.1 0.1,0.15 -0.2,0.92 -1,1.42 -0.4,2.21 -0.4,-0.1 -1.2,0.17 -1.3,-0.45 0.5,-0.27 1.2,-1.96 1.6,-1.91 z m -57.02,0.15 c 1,0 0.74,0.73 1.46,0 -0.24,1 -1.33,1.92 -1.82,1.32 -0.1,0.36 0,0.88 -0.36,0.89 -0.1,-1.1 0.57,-1.36 0.72,-2.21 z m 14.98,1.29 c -0.33,1.42 0.93,0.92 1.08,1.78 -1.54,0.63 -2.52,-1.36 -1.08,-1.78 z m 4.05,0 c 0.44,0 0.53,1.12 -0.1,1.29 0,-0.44 -0.28,-0.53 -0.35,-0.89 0.14,-0.3 0.28,-0.41 0.41,-0.4 z m -2.54,1.52 c 0.1,0 0.13,0 0.22,0 0.34,0.1 0.68,0.34 0.1,0.66 -0.53,-0.41 -0.49,-0.61 -0.3,-0.66 z m 1.1,0.4 c 0.26,0 0.58,0.85 -0.12,1.17 -0.14,-0.88 0,-1.17 0.12,-1.17 z m -44.74,1.15 c -0.1,0.83 -0.6,-0.25 -0.73,0.45 -0.1,0.64 0.57,1.97 0.71,2.98 0.29,-0.1 0.57,-0.15 0.84,-0.23 -0.19,-0.42 -0.31,-0.25 0.27,-1.41 -1.26,1.56 -0.21,-1.64 -1.09,-1.79 z m -29.62,0 c 0.1,0.35 0,0.88 0.35,0.89 0,-0.27 0.1,-0.52 0.38,-0.44 v 0.88 c -0.38,0 -0.45,0.36 -0.73,0.46 0,-0.74 -1.02,-0.26 -1.1,-0.9 0.52,-0.1 0.61,-0.73 1.1,-0.89 z m 74.66,1.74 c 0.63,0 0.92,0.34 1.08,0.89 -0.62,0 -0.93,-0.34 -1.08,-0.89 z m 1.58,3.14 c 0.1,0 0.1,0.12 0.15,0.44 -0.33,-0.1 -0.7,1.92 -1.04,0.45 0.38,0.17 0.68,-0.89 0.89,-0.89 z m 38.05,1.3 c 0.6,0 0.9,0.34 1.1,0.88 -0.6,0 -0.9,-0.34 -1.1,-0.88 z m 3.7,0 c 0.7,0.1 1.2,0.29 1.4,0.88 -1.2,0.11 0.8,1.47 -0.3,1.34 -0.2,-0.76 -0.5,0.1 -1.1,0 z m -39.2,0.6 c 0.2,0 0.5,0.85 -0.2,1.18 -0.2,-0.9 0,-1.18 0.2,-1.18 z m 0.7,0.78 c 0,0 0.2,0.14 0.2,0.4 0,0.61 1.1,0.5 0.4,0.88 -0.7,0.32 -0.8,-1.37 -0.6,-1.28 z m -2,1.48 c 0.1,0.1 0.2,0.24 -0.3,0.66 -0.7,-0.34 -0.3,-0.6 0.1,-0.66 0,0 0.1,0 0.2,0 z m -3.21,0.67 c 0,0.32 -0.1,0.59 -0.2,0.72 v 0.17 c 0,0.36 0,0.75 0,1.12 0.36,0 0.76,-0.37 1.13,-0.83 0,0 -0.11,0.11 -0.17,0.14 -0.18,-0.52 -0.38,-1 -0.72,-1.32 z m 24.61,0 c 0.4,0.95 1,1.74 1.3,2.74 0,0 0.1,-0.11 0.2,-0.13 0,0.6 0.7,0.42 0.7,0.89 -0.5,0.11 -0.6,0.7 -1,0.88 v -1.19 c -0.7,0.1 -0.1,-1.47 -1.2,-0.98 0.9,-1.3 -0.6,-1.64 0,-2.21 z m 20.6,1.74 c 0.4,0 0.4,0.78 0,0.87 0,-0.48 -0.5,-0.69 0,-0.87 z m -73.65,0.47 c 0,0.77 -0.27,1.13 -0.73,1.32 0,-0.76 0.29,-1.12 0.73,-1.32 z m 76.45,0.53 c 0.3,1.07 -0.5,1.9 -1.1,2.06 0.5,0.31 1,0.64 1.5,0.96 0,-0.35 0.3,-0.46 0.3,-0.8 -1.8,-0.25 0.6,-1.58 0.7,-2.22 z m 3.4,0.45 c -1.2,0.64 -2,1.68 -2.6,2.91 0.2,0.21 0.5,0.44 0.7,0.69 0.6,-1 1.4,-2.06 1.9,-3.6 z m -25.2,3.18 c 0.5,0 1,0.97 0.3,1.27 0,-0.59 -0.7,-0.41 -0.8,-0.89 0.2,-0.28 0.3,-0.38 0.5,-0.38 z m -99.35,0.25 v 0 c 0.1,0 0.21,0 0.35,0.11 0.1,1.01 -0.11,1.67 -0.73,1.78 0.1,-0.7 -0.27,-1.88 0.38,-1.87 z m -3.14,0.51 c 0.68,0.1 1.23,0.29 1.46,0.88 -2.09,0.69 0.95,2.62 0.36,2.67 -1.03,-0.47 -1.51,-0.47 -2.54,0 0.11,-1.03 -1.05,-0.5 -1.09,-1.34 0.92,0.34 1.67,0.66 2.18,-0.44 -0.98,0.31 -0.7,-0.92 -1.09,-1.32 1,0.1 1.25,0.85 0.72,-0.45 z m 106.99,0.26 c 0.3,-0.1 0.6,0.11 -0.1,0.65 -0.6,-0.31 -0.3,-0.59 0.1,-0.65 z m -29.98,0.65 c 0,0.76 -0.28,1.15 -0.73,1.33 0,-0.76 0.29,-1.12 0.73,-1.33 z m -74.51,0.86 c 1.07,0.13 1.8,1.51 0.62,1.81 0.1,-1.17 -1.41,-0.36 -1.09,-1.78 0.16,0 0.31,0 0.47,0 z m 47.51,0.45 c 1.53,-0.12 -0.19,1.86 -0.34,0 0.13,0 0.24,0 0.34,0 z m 54.28,0.51 c 0.7,0.18 1.6,0.16 1.5,1.32 -0.7,0 -1.2,0.11 -1.5,0.44 0,-1.21 0.6,-0.88 0,-1.76 z m 24.4,0.36 c 0.2,0 0.4,0.1 0.4,0.53 -0.7,-0.44 -1.2,1.32 -1.5,0 0.2,-0.1 0.7,-0.51 1.1,-0.53 z m -71.04,2.57 v 0 c 0.63,0 0.68,1.62 0.1,1.46 0,-0.27 0,-0.52 -0.36,-0.45 v -0.87 c 0.11,-0.1 0.21,-0.14 0.3,-0.14 z m 1.25,0.46 c 0.1,0 0.16,0 0.27,0.11 0,0.45 -0.29,0.53 -0.36,0.89 1.01,1.09 2.45,-0.34 2.55,0 -0.44,1.41 0,1.32 -0.73,2.66 0.46,0 0.5,-0.57 1.09,-0.44 -0.46,1.1 0.19,1.38 -0.36,1.78 -0.34,-1.35 -1.64,-0.84 -0.37,0 -1.04,1.28 -1.13,-0.88 -2.54,-0.45 0.1,-0.67 -0.14,-1.64 0.36,-1.78 -0.32,0.91 0.94,1.99 1.09,0.89 -1.69,-0.23 2.52,-1.88 -0.73,-1.33 -0.39,-0.86 -0.77,-2.37 -0.27,-2.33 z m -34.69,0.1 c -0.27,0 -0.54,0 -0.83,0 h -0.56 c 0.22,0.39 0.51,0.83 0.89,1.44 0.46,-0.18 0.75,-0.57 0.74,-1.33 -0.1,0 -0.16,-0.1 -0.24,-0.12 z M 134,48.56 v 0 c 0.1,0 0.2,0 0.3,0.1 0.1,1.01 -0.1,1.66 -0.7,1.77 0.1,-0.69 -0.2,-1.87 0.4,-1.86 z m -54.47,1.2 c 0,0 -0.1,0.11 -0.2,0.21 -0.2,0.79 -0.19,1.85 -0.73,2.23 -1.13,-0.8 1.03,-2.62 0.93,-2.44 z"></path>
  <path d="m 429.5,2.615 v 8.725 h 5.8 c -0.1,-0.79 -1,-0.56 -0.8,-1.836 0.8,0.148 0.9,-0.671 1.3,-0.995 0.6,0.95 3,1.351 1.2,0 0.8,0.111 0.9,-0.558 1.6,-0.496 V 2.615 Z m -230.4,1.85 c -0.5,0.17 -0.9,0.365 -1.2,0.04 v -0.02 c -15.7,0.329 -25.3,9.405 -25.3,25.395 0,3.67 0.6,6.89 1.7,9.69 1.2,-0.4 0.1,-1.48 -0.2,-2.44 0.9,0.15 0.9,-0.67 1.3,-0.99 -0.6,2.78 2.1,1.66 3.2,2.48 0.4,-0.92 -1.2,-1.66 0,-1.98 1.5,1.28 0,3.18 -0.8,4.47 0.6,0 0.4,0.87 0.8,0.99 0.2,-1.22 2.8,1.21 1.3,1.99 -1,-0.84 -0.8,2.19 -1.1,2.68 4.7,4.63 11.6,6.91 19.9,6.91 3.7,0 7.4,-0.68 10.9,-1.5 l -0.4,-7.98 c -2.3,1.16 -6.7,1.98 -10.4,1.98 -4.4,0 -7.9,-1.34 -10.6,-3.63 0,0.11 -0.2,0.23 -0.3,0.37 -1.7,-1.61 0.3,1.68 -0.4,1.49 -0.1,-0.39 -0.4,-0.58 -0.8,-0.49 0,0.69 -0.1,1.9 -0.4,0.99 -0.2,-1.15 0.1,-1.91 0.4,-2.49 -1.6,-0.14 0,-0.52 0.9,-0.41 -2.4,-2.25 -3.9,-5.27 -4.6,-8.79 -0.9,-1.1 -1.5,-3.59 -2.6,-2.52 0.6,-0.14 1.1,0.67 0.4,1 -0.2,-0.85 -0.5,0.1 -1.2,0 -0.3,-2.88 1.7,-2.62 0.4,-5.47 -1.4,0.15 0,1.35 -0.8,1.49 -0.1,-0.6 -0.5,-0.3 -0.9,0 -0.5,-1.61 1.4,-0.38 0.9,-1.99 -1.2,1.85 -0.8,-3.68 -0.4,-2.48 0.1,0.39 0,0.98 0.4,0.99 1.4,-0.36 0.2,-1.49 0,-2.48 0.8,0.15 0.8,-0.67 1.2,-1 -0.5,2.67 1.9,1.76 3.1,2.4 0.1,-0.17 0.1,-0.35 0.2,-0.52 -0.3,-0.64 -1,-1.13 0,-1.38 0.1,0.14 0.2,0.28 0.3,0.43 2.3,-5.83 7.5,-9.74 14.6,-9.74 3.4,0 6.7,0.48 10.3,2.53 l 0.7,-8.048 c -2.4,-0.913 -5,-1.482 -7.4,-1.764 -0.3,0.682 -0.8,1.055 -1.5,1.326 0,-0.809 -0.1,-1.257 -0.3,-1.486 -0.5,-0.02 -0.9,-0.04 -1.3,-0.04 z m 2.9,1.531 c 0,0.783 0.1,1.724 -0.9,1.492 0,-0.854 0.4,-1.273 0.9,-1.492 z m 2.2,0.617 c 0.2,0.02 0.4,0.13 0.6,0.381 0,-0.756 0.8,1.191 1.2,2.482 -0.8,0.147 -1,0.994 -1.6,1.494 0.9,-1.867 -0.8,-1.087 0,-2.486 h -1.2 c 0,0.635 0.5,0.687 0.4,1.49 -1.3,0.496 -1.2,-4.603 -0.8,-2.98 0.7,1.107 0.7,-0.469 1.4,-0.381 z m -7.1,0.25 c 0.8,-0.12 0.6,0.936 1.2,1.125 0,-0.279 0.3,-0.565 0.4,0 -0.6,0.792 -1.7,-0.01 -2,-0.994 0.1,-0.07 0.3,-0.114 0.4,-0.131 z m 257.8,0.934 -9.1,2.933 v 7.02 h -6.7 c 0.7,1.33 2.1,2.21 2.8,2.56 v 0 c 0.6,0.26 0.4,0.26 0,0 -0.9,1.15 0,2.49 1,4.12 h 2.9 v 5.16 c 1.3,-0.14 2.3,1 2.4,-2.19 0.5,-1.17 3.7,5.01 1,6.45 -1.5,-0.85 0.1,-1.63 0.4,-2.67 -2.1,-0.89 -2.9,-0.13 -3.8,0.54 V 42.3 c 0,6.95 3.9,11.38 11.1,11.38 2.7,0 4.8,-0.27 6.7,-0.81 l -0.2,-7.23 c -1,0.61 -2.6,0.95 -4.2,0.95 h -0.1 c -1.7,0.44 -2.2,2.15 -3.4,3.18 1.9,-3.96 -1.6,-2.46 -0.1,-5.19 0,-0.1 -0.1,-0.15 -0.1,-0.22 h -2.4 c 0,1.38 1.1,1.49 0.9,3.25 -2.8,1.07 -2.7,-10.04 -1.8,-6.5 1.4,2.19 1.6,-0.42 2.7,-0.79 v -2.3 c -0.6,0 -1.4,-0.14 -1.5,0.49 0.2,1.4 1.5,1.15 0.8,1.49 0.2,0.2 -3.1,-0.55 -2,-0.5 1.4,-0.83 0.9,-1.76 2.4,-2.98 0,0.26 0.1,0.49 0.3,0.5 V 24.43 h 3.7 c -0.1,-0.11 -0.3,-0.26 -0.5,-0.46 1.3,-1.35 2.4,-1.2 3.6,-1.31 l -1.8,-4.91 h -5 z M 195.2,8.353 c 0.8,-0.12 1.5,0.935 0.5,1.123 0,-0.302 -0.1,-0.589 -0.4,-0.498 1,1.152 -0.3,1.712 -0.8,2.492 -0.7,-0.78 0.1,-1.943 0.4,-2.988 0.1,-0.07 0.2,-0.112 0.3,-0.129 z m -13.6,2.997 c 0.4,-0.1 0.7,0.12 -0.1,0.74 -0.6,-0.36 -0.2,-0.67 0.1,-0.74 z m 7.1,1.96 c 0,0.85 -0.3,1.28 -0.8,1.49 0,-0.85 0.3,-1.27 0.8,-1.49 z m -7.5,2.55 c 0.4,0 0.7,0.44 -0.1,1.2 -0.6,-0.84 -0.2,-1.22 0.1,-1.2 z m 139.5,1.07 c -0.4,0 -0.8,0 -1.1,0.1 -0.3,0.72 0.1,1.42 -0.2,3.07 -1,0.3 -1.9,0.72 -3.3,0.5 -0.1,-2.04 1.8,-0.93 0.8,-2.98 0.8,-0.48 1.4,1.49 1.6,0 -0.5,0.12 -0.7,0 -0.6,-0.31 -1.4,0.31 -2.8,0.87 -4.1,1.76 0,0.52 0,1.07 -0.4,1.14 v -0.9 c -1.1,0.85 -2.2,1.96 -3.2,3.4 h -0.1 V 17.8 h -3.5 c 0,0.1 0.1,0.19 0.1,0.32 -1,-0.68 -1.6,1.28 -1.7,0 0.2,-0.1 0.3,-0.2 0.4,-0.32 h -3.8 v 4.75 c 1.6,0.98 2.6,-0.95 3.6,-2.49 1.3,1.93 -2.4,2.74 -2.6,4.89 -0.1,1.96 1.6,2.62 3,3.45 -1,3.41 -1,3.76 -2.2,6.14 -0.5,1.55 2.1,0.9 2,2.11 1.9,0.26 1,-3.37 3.4,-2.4 0.3,1.43 -0.1,2.18 -0.8,3.22 1.3,0 1.6,0.6 2.7,0.1 v -1.66 c 0,-4.57 0.8,-11.8 6.8,-11.8 3.6,0 4.7,2.16 5.1,4.57 0.5,-0.33 1,-0.62 1.2,-0.82 V 27.6 c 0.1,0 0.1,0.14 0,0.26 -0.2,1.6 0.7,1.97 0.4,3.72 -0.5,0 -1,-0.1 -1.4,-0.26 v 0.7 20.93 h 9.1 V 35.82 c 0,-1.08 0.1,-2.31 0.2,-3.56 -0.6,0.45 -1.4,1.07 -0.9,3.23 -0.7,-0.72 -4.1,-1.68 -4.7,0 -1,-0.18 0,-1.65 0.9,-1.28 0.1,-0.69 -0.4,-0.73 -0.4,-1.28 -1.2,-0.35 -1.1,0.6 -2.2,0.43 0.8,-1.51 -0.2,-1.05 -0.4,-2.56 1.3,-0.72 2.4,-1.59 3.8,-2.12 0,-1.07 -0.7,-1.32 0,-2.13 0.9,0.1 0.3,1.4 1.3,1.27 -0.3,0.4 -0.7,0.65 -1.3,0.86 0.3,1.27 1,-0.41 1.8,0 -1,1.37 0.1,2.22 -1.8,2.55 0.1,0.34 0.5,0.42 0.5,0.85 1.1,0.13 0.3,-1.65 1.7,-1.28 -0.4,0.38 -0.5,0.97 -0.4,1.71 1,0 1.7,-2.49 1.2,-2.56 0.5,-0.3 1.1,-0.6 1.5,-0.94 0.9,-2.76 2.6,-4.99 6,-4.99 5.3,0 5.3,4.64 5.3,7.91 v 11.84 c 0.5,-1.39 1.1,-2.82 1.4,-4.19 2.8,-1.86 6.4,2.54 2.7,3.24 -0.1,-0.98 -0.2,-1.92 -1.3,-1.62 3.2,3.76 -1.1,5.59 -2.7,8.1 C 344,49.2 344,49.16 344,49.09 v 3.77 h 9.1 V 30.71 c 0,-5.62 -1.3,-10.24 -5.2,-12.42 -0.1,0.23 -0.3,0.39 -0.6,0.5 0,-0.32 0.1,-0.56 0.2,-0.77 -1.5,-0.7 -3.3,-1.09 -5.5,-1.09 -4,0 -8.2,1.73 -10.4,5.34 0.1,0 0.2,0 0.3,0 0.3,1.53 -1.1,0.95 -0.8,2.48 1.2,-0.31 0.8,-2.67 2,-2.98 -0.2,1.3 0.2,1.79 1.3,1.5 -0.2,2.69 -1.1,1.83 -2.1,3.97 -1,-0.88 -1.4,-2.08 -4,-1.99 -0.5,-2 0.6,-2.21 1.2,-2.98 -0.3,0 -0.5,-0.1 -0.4,-0.49 0.5,-0.38 0.8,-0.39 1,-0.25 -0.7,-1.11 -1.5,-1.98 -2.5,-2.67 0,0.12 -0.1,0.3 -0.5,0.57 -0.7,-0.41 -0.2,-0.74 0.2,-0.75 -1.8,-1.18 -4,-1.73 -6.6,-1.73 z m 27.2,1.36 c 0,0 0,0 0,0 v 0 c 0,0 0,0 0,0 z M 226.5,16.93 c -5.6,0 -10.5,2.07 -13.9,5.79 0.8,1.29 2.5,1.35 2.2,3.8 -1.2,0.1 -1.3,0.4 -1.2,2.98 -2.6,-0.37 0.1,-3.55 0,-5.46 -0.4,0.84 -1.2,0.15 -1.5,-0.67 -2.5,3.09 -4,7.21 -4,12.18 0,10.09 6.8,18.13 18.4,18.13 11.6,0 18.4,-8.04 18.4,-18.13 0,-11.59 -8,-18.62 -18.4,-18.62 z m 186.9,0 c -4.8,0 -8.7,1.57 -11.5,5.59 h -0.2 v -4.77 h -8.6 v 11.1 c 1.2,-0.11 1.8,-0.64 2.7,0 -0.7,0.28 -2,1.24 -2.7,0.88 V 30 c 0.9,0 0.7,0.78 1.5,0 -0.3,1.13 1.9,2.89 0.8,1.98 -0.8,-0.52 -1.9,-0.59 -2.3,-1.55 v 22.44 h 9.1 V 39.28 c -0.2,0.2 -0.6,0.22 -1.2,-0.29 0.6,-0.83 1,-0.91 1.2,-0.73 v -0.87 c -1.3,0.54 -2.5,1.14 -3.2,2.32 -2.9,-3.33 -4.5,-2.3 -2.9,-8.12 2.9,0.17 4.3,1.78 6.1,3.06 0.2,-3.63 1.3,-8.34 5,-10 -0.2,-0.15 -0.4,-0.34 -0.5,-0.61 0.6,0.1 1.4,-0.24 1.7,0.22 0.5,-0.14 1.1,-0.24 1.8,-0.24 5.9,0 6,5.8 6,10.1 v 10.87 c 0.1,-0.13 0.4,-0.26 0.7,-0.38 2,0 2.5,4.19 0,4.77 0.1,-1.11 -0.4,-1.93 -0.7,-2.6 v 6.08 h 9.1 V 30.71 c 0,-6.06 -2.1,-10.91 -6.9,-12.85 0.1,0.24 0.1,0.54 0,0.95 -0.8,-0.13 -2,0.15 -2.1,-0.87 0.3,0 0.7,-0.12 0.7,-0.55 -1.1,-0.29 -2.3,-0.46 -3.6,-0.46 z m 5,0.93 c 0,0 0,0 0,0 v 0 c 0,0 0,0 0,0 z M 265.5,16.93 c -3.4,0 -7.5,1.44 -10.4,5.73 H 255 v -4.91 h -8.6 v 14.48 c 0.6,-0.11 1,-0.14 1.5,0.26 -0.4,0.15 -0.9,0.51 -1.5,0.75 v 12.95 c 0.6,0 1.2,0.1 1.1,0.92 -0.4,0 -0.7,0 -1.1,0 v 5.77 h 9.2 V 48.8 c -0.6,0.37 -1.3,0.4 -1.6,-0.19 0.7,0 1.2,-0.36 1.6,-0.76 V 36.66 c -2,0 -2.1,-2.19 -3.2,-3.09 -0.1,0.92 -0.2,1.8 -1.3,1.52 -0.3,-5.67 3.2,-4.6 4.5,-1.42 0.3,-4.39 1.6,-9.65 6.8,-9.65 3,0 4.3,1.52 4.8,3.43 0,-0.1 0.1,-0.1 0.2,-0.1 0.3,1.09 1.4,-0.94 1.6,-1.49 0,-0.99 -1.1,-0.63 -0.8,-1.99 0.8,0.15 0.8,-0.67 1.2,-0.99 0.7,0.95 3,1.35 1.3,0 0.7,0.11 0.9,-0.56 1.6,-0.5 1.2,1.15 0.8,4.19 0.4,4.98 -0.6,-0.58 -1,-1.44 -2,-1.5 -0.6,1.18 -0.9,0.93 -0.4,2.49 -0.9,0.65 -1.9,1.2 -2.7,1.27 0.1,0.78 0.1,1.57 0.1,2.29 v 20.94 h 9.1 V 40.58 c -0.3,-0.35 -0.7,-0.64 -1.3,-0.67 -0.6,1.17 -0.9,0.92 -0.4,2.48 -1.3,0.96 -2.9,1.73 -3.7,1 1.5,0 0,-1.94 0.8,-1.99 0.3,1.09 1.4,-0.94 1.7,-1.49 0,-0.99 -1.1,-0.63 -0.8,-1.99 0.8,0.15 0.8,-0.67 1.2,-0.99 0.6,0.95 3,1.35 1.2,0 0.6,0.1 0.8,-0.34 1.3,-0.47 v -0.64 -0.45 c -0.2,0.2 -0.5,0.35 -0.8,0.45 0.4,-2.8 -1.9,-3.89 0.8,-4.47 0.3,0.88 -1.2,2.06 0,2.48 v -0.11 c 0.1,-1.16 0.2,-2.39 0.5,-3.57 -0.1,-0.14 -0.2,-0.43 -0.3,-0.93 2.7,-2.74 -4.1,-1.77 -3.1,-5.56 1.5,-0.1 1.7,0.71 0.8,1.85 2.4,-0.32 3.3,0.48 4.5,0.48 1,-1.19 2.4,-1.97 4.4,-1.97 5.2,0 5.2,4.64 5.2,7.91 V 52.86 H 298 V 42.2 c -0.1,0.21 -0.1,0.39 -0.2,0.51 -0.6,-0.58 -1,-1.44 -2.1,-1.49 -0.6,1.17 -0.8,0.92 -0.4,2.48 -1.3,0.96 -2.8,1.73 -3.6,0.99 1.5,0 0,-1.94 0.8,-1.98 0.3,1.08 1.3,-0.94 1.6,-1.49 0,-0.99 -1.1,-0.64 -0.8,-1.99 0.8,0.15 0.8,-0.67 1.2,-1 0.6,0.95 3,1.35 1.2,0 0.8,0.11 0.9,-0.56 1.7,-0.49 0.3,0.27 0.4,0.65 0.6,1.07 v -8.1 c 0,-7.84 -2.5,-13.77 -11.1,-13.77 -4.3,0 -8.9,1.97 -11,6.2 -2,-4.37 -5.5,-6.2 -10.4,-6.21 z M 380,17.75 v 2.1 c 0.3,-0.18 0.7,-0.11 0.7,0.77 -0.3,0.1 -0.6,0.1 -0.7,0 v 14.27 c 0,3.92 -1.1,9.85 -5.8,11.32 0.1,0.25 0.1,0.46 0,0.6 2.1,-0.73 2.6,2.43 -0.4,2.48 -1.3,-1.65 -3.5,-0.14 -3.6,0 v -0.1 c 0.1,-0.55 -1.3,-0.27 -1.7,0.59 -0.1,-2.07 -0.2,-0.11 -0.8,0 -0.6,-2.41 -3.8,-5.89 -5.3,-3.98 -0.1,-1.01 -1.1,-0.97 -1.2,-1.99 0.7,-0.19 1,0.74 1.2,0 -1.4,-1.08 -1.9,-3.28 -3.7,-3.97 0.3,-1.53 0.3,-0.96 0,-2.49 1.2,-0.84 2.2,-1.97 3.7,-2.48 0.9,1.46 2.2,2.51 3.6,3.34 v -1.17 c -0.9,-0.34 -1.5,-1.65 -0.3,-1.91 -0.2,0.72 0,0.87 0.3,0.97 V 17.7 h -1.1 c 0,0.57 0.2,0.94 0.4,1.3 h -0.8 c -0.4,-0.57 -0.4,-1.01 0,-1.3 h -4.4 c -0.2,1.11 -0.9,1.61 -1.6,1.95 -0.1,-2.02 -0.9,-1.79 -1.7,-1.52 v 21.73 c 0,7.91 3.6,13.77 12,13.77 4,0 7.5,-1.57 10.1,-4.13 -0.5,-1.18 0.5,-2.78 0.9,-4.24 1.3,-0.89 3,1.22 1.3,1.55 0,-0.47 -0.1,-0.91 -0.7,-0.77 1,1.06 0.6,1.8 0,2.47 v 4.3 h 8.7 v -12.8 c -0.6,0.33 -1.5,-0.38 -1.8,-1.23 1.3,-0.57 1,0.78 1.7,0.99 0,-0.12 0.1,-0.23 0.1,-0.29 V 22.13 c -0.4,-0.45 -0.5,-1.14 -0.9,0.28 -1.9,-0.12 -3.2,-4.46 -1.7,-3.48 0.2,-0.49 -0.1,-0.86 -0.3,-1.18 z m 49.5,0 v 35.11 h 9.1 V 25.23 c 0,0 0,0 -0.1,0.1 -0.8,-0.69 -0.7,-2.16 -2.4,-2.11 h 0.1 c 0.4,-0.95 1.2,-1.56 2.5,-1.48 v -0.35 c -1.3,-0.97 -3.2,0.13 -4.8,-2.06 0.1,-0.51 0.2,-1.02 0.2,-1.53 z m 33.5,0 v 4.55 c 0.4,-0.16 0.7,-0.39 1.1,-0.76 -0.8,3.42 -0.4,1.91 1.3,0.81 0,2.28 -1.1,3.27 -2.4,3.91 l 1,2.75 c 0.1,-1.34 0.7,-2.05 1.6,-2.44 -0.1,1.52 0.2,3.31 -1.4,3.11 l 1.6,4.41 c 1.3,-0.34 2.8,0.54 3.4,1.96 -1.6,-0.14 -1.5,1.84 -1.4,3.37 l 5.5,15.22 c 0,3.75 -2.2,6.27 -5.9,6.27 -2.3,0 -3.6,-0.21 -4.7,-0.62 l -0.6,6.75 c 2.1,0.62 4.3,0.96 6.4,0.96 8.2,0 11,-5.62 13.4,-12.13 -0.8,0.26 -1,1.72 -2.5,1.77 0.8,-2.62 -0.1,-2.14 -1.1,-0.67 -1.5,-1.77 0.9,-0.53 0.5,-2.69 -1.1,0.2 -1.1,1.82 -2.2,2.02 0.1,-2.12 0.4,-4.01 2.2,-4.03 0.8,0.41 0.1,2.59 1.1,2.69 0.7,-0.97 2.1,-1.02 2.8,-2.02 -0.4,0.97 -0.4,1.35 -0.3,1.58 0.3,-0.64 0.5,-1.28 0.7,-1.93 l 0.3,-0.68 c -0.3,-0.45 -0.6,-0.91 -0.7,-1.53 0.8,-0.34 1,0 1.1,0.38 l 1.2,-3.07 c -1.8,-0.7 0.6,-3.57 0.4,-5.35 -0.6,1.35 -2.4,-1.23 -1.2,-1.99 0.3,1.61 1.9,1.71 2.4,3.15 l 9.7,-25.75 H 487 l -8.4,25.64 h -0.2 l -3,-9.35 c -0.8,0.23 -1.5,-1.65 -0.8,-1.5 0,0.33 0.2,0.45 0.4,0.56 l -5,-15.35 z m -175.7,0.46 c 0.2,0 0.5,0.21 0.6,0.85 -0.6,0 -0.9,0.24 -1.2,0.5 v -0.99 c 0.2,-0.21 0.4,-0.34 0.6,-0.36 z m 33.3,0.85 c 0.9,0.73 3,-0.1 3.2,1.49 h -1.2 c 0,0.5 0.4,0.6 0.4,1 -1,-0.5 -2.3,-0.82 -2.4,-2.49 z m 61.7,0.23 c 0.7,0 1.1,0.46 -0.5,1.66 -1.7,-0.9 -0.3,-1.66 0.5,-1.66 z m 14.6,0.27 c 0.5,0 0.6,0.87 0,0.99 0.1,-0.55 -0.6,-0.77 0,-0.99 z m -171.2,0.1 c 0,1.27 0.7,1.74 1.2,2.48 v -1.49 c 3.4,2.55 9.5,4.34 9.8,8.95 1.6,1.33 2.9,3.13 4.9,3.98 0,-0.28 0.3,-0.57 0.4,0 -0.5,0.24 -0.9,0.53 -1.2,0.99 1.5,0.39 1.2,2.75 1.2,3.48 -0.8,-2.56 -2.6,-1.01 -3.7,-3.48 h -0.1 c -1.2,1 -1.4,1.76 -1.6,2.99 -0.5,0 -1,-0.23 -1.5,-0.44 -0.5,4.95 -2.7,9.48 -8.7,9.48 -1.8,0 -3.3,-0.46 -4.5,-1.23 0.1,0.2 0.2,0.37 0.2,0.54 h -1.2 V 44.9 c 0.1,0 0.2,0 0.3,-0.1 -2,-1.7 -3,-4.46 -3.4,-7.39 -1.3,-0.33 -1.3,1.83 -3.2,1.9 0.8,-2.8 -0.2,-2.29 -1.2,-0.72 -1.5,-1.88 0.9,-0.56 0.6,-2.87 -1.2,0.21 -1.2,1.94 -2.4,2.16 0.1,-2.27 0.4,-4.29 2.4,-4.32 0.8,0.45 0.6,-1.65 1.7,-1.54 0.5,-0.75 1.4,0.4 2,1.36 0.1,-2.18 0.8,-4.27 1.9,-5.93 -0.4,-0.34 -1.2,-0.27 -1,-1.38 h 0.9 c 0,-0.31 0,-0.59 0.4,-0.5 0.1,0.85 -0.7,1.27 0,1.49 h 0.1 c 0.1,-0.2 0.3,-0.39 0.5,-0.58 -0.4,-1.12 -0.1,-2.98 -0.2,-4.39 1.1,0.66 1.4,0.17 1.6,-1.03 -0.7,-0.1 -0.4,-0.73 0.1,-0.87 v -0.1 c 2.1,-0.64 1.7,0.86 3.6,-0.5 z m 136.1,0.26 c 0.2,0 0.4,0.12 0.6,0.37 0,-0.75 0.8,1.2 1.3,2.49 -0.9,0.15 -1.1,1 -1.7,1.49 0.9,-1.86 -0.8,-1.08 0,-2.48 h -1.2 c 0,0.63 0.5,0.68 0.4,1.49 -1.2,0.49 -1.2,-4.61 -0.8,-2.99 0.7,1.11 0.7,-0.46 1.4,-0.37 z m -2.1,1.48 c 0,0.78 0.1,1.73 -0.9,1.49 0,-0.85 0.4,-1.27 0.9,-1.49 z m -42,0.32 c 0.1,0 0.2,0.17 0.3,0.56 -0.8,-0.44 -0.8,2.52 -1.2,0.99 0.1,-0.33 0.5,-1.59 0.9,-1.55 z m -140.6,0.1 c 0,0.31 0.1,0.59 0.4,0.5 v 0.99 c -0.6,0.1 -1.5,-0.18 -1.6,0.5 0.2,1.4 1.5,1.15 0.8,1.49 0.2,0.2 -3.1,-0.56 -2,-0.5 1.4,-0.83 0.9,-1.76 2.4,-2.98 z m 135.8,0 c 0.4,-0.1 0.7,0.12 -0.1,0.74 -0.7,-0.36 -0.3,-0.67 0.1,-0.74 z m 11.8,0.24 c -0.5,1.56 0,1.12 0,2.98 -1.8,0.36 0.3,-0.99 -0.8,-0.99 0,0.3 -0.1,0.59 -0.5,0.49 0.4,-0.86 0,-2.66 1.3,-2.48 z m 110.4,0.31 c 0.4,-0.1 0.7,0.11 -0.1,0.73 -0.7,-0.36 -0.3,-0.67 0.1,-0.73 z m -127.7,0.29 c 0.2,0 0.4,0.1 0.6,0.14 -0.8,0.11 0.2,0.81 -0.4,0.99 -0.2,-1.04 -1.1,0.72 -1.7,-0.49 v 1.98 c -1,-0.25 -1.7,-0.94 -2.4,-1.49 1.4,0.1 2.7,-1.23 3.9,-1.13 z m -20.3,0.4 c 0.4,0 0.5,0.87 0,0.99 0,-0.56 -0.6,-0.77 0,-0.99 z m 39.6,1.48 c 0.7,0 2.2,1.52 1.2,1.99 0.2,-1.55 -1.1,1.27 -1.2,-0.49 0.3,-0.11 0.8,0 0.8,-0.5 -0.5,-0.1 -0.9,-0.15 -0.8,-1 z m 126.3,0 c 0,0.86 -0.3,1.28 -0.8,1.49 0,-0.85 0.3,-1.27 0.8,-1.49 z m 17.1,0.5 c 0,0.68 0.2,1.09 0.5,1.49 h -0.9 c -0.4,-0.71 -0.4,-1.21 0.4,-1.49 z m -36.6,0.54 c 0.7,-0.12 1.5,0.93 0.5,1.12 0,-0.3 -0.1,-0.59 -0.5,-0.5 1,1.16 -0.3,1.71 -0.8,2.49 -0.6,-0.78 0.2,-1.94 0.4,-2.98 0.1,-0.1 0.2,-0.12 0.4,-0.13 z m -183.1,0.73 c 1.2,0.87 -0.6,3.08 -1.3,1.49 1,0.16 0.5,-1.43 1.3,-1.49 z m 180.3,0.15 c 0.9,-0.12 0.7,0.94 1.3,1.13 0,-0.28 0.3,-0.57 0.4,0 -0.6,0.79 -1.7,0 -2.1,-1 0.2,-0.1 0.3,-0.11 0.4,-0.13 z m 4,0.37 c 0.4,0 0.7,0.44 -0.1,1.19 -0.6,-0.84 -0.2,-1.21 0.1,-1.19 z m -219.9,0.85 c 0,0.66 0.7,0.46 0.8,1 -0.6,0 -0.4,0.87 -0.8,0.99 0.4,-0.93 -1.3,-1.66 0,-1.99 z m 132.9,0 c 0.5,0 0.6,0.87 0,0.99 0,-0.55 -0.5,-0.77 0,-0.99 z m -92.3,0.18 c 0.3,0 0.6,0.22 0.6,0.93 -1.7,0.27 -1.1,-0.91 -0.6,-0.93 z m -5.1,1.1 c 0,0.82 1.2,0.27 1.3,0.99 -0.4,0.11 -0.5,0.42 -0.5,0.99 1.1,-0.25 -0.6,2.75 -0.8,1 0.5,-0.11 0.7,-0.55 0.8,-1 -0.7,-0.19 -1,0.74 -1.2,0 0.3,0 0.5,-0.1 0.4,-0.49 -0.1,-0.59 -0.7,-1.13 0,-1.49 z m 3.6,0.1 c 0,0 0.1,0 0.1,0 0,0.78 1,0.39 0.8,1.49 -0.8,0.41 -1.5,-1.39 -0.9,-1.5 z m 131.9,0.1 c 0.4,2 2.8,1.66 2.5,4.48 -1.2,0.1 -1.4,0.39 -1.2,2.98 -2.6,-0.38 0.1,-3.56 0,-5.47 -0.7,1.35 -2.5,-1.23 -1.3,-1.99 z m -36,0 c 0,0.31 0.1,0.59 0.4,0.5 v 1 c -0.6,0.1 -1.5,-0.18 -1.6,0.49 0.2,1.4 1.5,1.16 0.8,1.49 0.2,0.2 -3.2,-0.55 -2.1,-0.49 1.4,-0.84 1,-1.76 2.5,-2.99 z m -173.6,0.1 c 0.8,0 1.8,0.14 0.9,0.93 -1.7,-1.61 0.4,1.68 -0.4,1.49 -0.1,-0.39 -0.3,-0.58 -0.8,-0.49 0,0.69 -0.1,1.89 -0.4,0.99 -0.1,-1.16 0.1,-1.91 0.4,-2.49 -1.2,-0.11 -0.5,-0.38 0.3,-0.43 z m 221.3,0 c 0.3,0 0.6,0.33 0.9,1.21 -1.3,-0.41 -1.2,-1.23 -0.9,-1.21 z m -1.2,0.11 c 0.1,0 0.2,0.19 0.2,0.56 -0.2,0.14 -1.5,1.24 -1.6,0 0.6,0.36 1,-0.66 1.4,-0.56 z m -33.9,0.86 c 0.5,0 1,0.37 1.3,0.91 -1.4,-0.13 0.1,3.28 -1.3,1.99 0.3,0 0.5,-0.1 0.5,-0.5 -1.1,0.15 -1.1,-1.04 -1.3,-1.99 0.3,-0.29 0.5,-0.42 0.8,-0.41 z m -87.7,0.1 c 0.6,0.1 1.5,-0.18 1.7,0.49 -0.6,0.65 -1.6,0.66 -1.7,-0.49 z m 122.7,0 c 0,0.93 1.3,0.34 1.2,1.49 -0.7,0.12 -2.4,-0.94 -1.2,-1.49 z m -186.3,0.1 c 0.2,0 0.4,0.11 0.5,0.55 -0.7,0.13 -0.3,1.09 0,1.49 h -0.8 c -1,-0.21 -0.3,-1.94 0.3,-2.04 z m 188.3,0.16 c -0.1,0.58 0.1,1.41 -0.5,1.49 0.1,-0.59 -0.1,-1.41 0.5,-1.49 z m -13.7,0.57 c 0.1,0.71 0.6,0.84 0.8,1.5 -1.1,-0.64 -1.3,0.25 -1.7,-0.5 0.6,0 0.4,-0.87 0.9,-1 z m -34.5,0.34 c -0.3,1.28 -0.4,2.82 -1.2,3.48 -0.1,-1.76 0.3,-2.97 1.2,-3.48 z m -172.9,0.18 v 1 c 0.6,-0.16 0.8,-0.71 1.7,-0.5 -0.1,0.74 -0.5,3.59 -1.2,1.99 1.3,-0.41 -2.1,-1.74 -0.5,-2.49 z m 96.4,1.34 c -0.6,0.34 0,2.14 -1.1,1.93 -0.2,-0.71 -0.6,-1.21 -1.2,-1.49 -0.4,1.47 -1.6,1.63 -2.1,1 2,-1.49 3.1,-0.97 4.4,-1.44 z m -26.4,0.74 c 0.9,0.17 1.9,0.32 1.6,1.98 -1.6,0.64 -1,-1.36 -1.6,-1.98 z M 360,34 c 0.1,0 0.2,0.15 0.4,0.62 -0.6,-0.1 -0.5,2.88 -1.2,1 0.4,0.1 0.5,-1.59 0.8,-1.62 z m 22.9,0.19 c 0.5,0.3 0.1,1.91 0.8,1.99 0.5,-0.72 1.5,-0.76 2,-1.5 -0.7,1.86 0.3,0.79 0.4,2.49 -1.6,-1.17 -1.2,0.94 -2.8,0.99 0.6,-1.93 -0.1,-1.58 -0.9,-0.49 -1,-1.31 0.7,-0.39 0.5,-1.99 -0.9,0.14 -0.8,1.34 -1.7,1.49 0.1,-1.57 0.3,-2.97 1.7,-2.98 z m -81.3,0.13 v 18.54 h 8.7 v -0.49 c -0.6,-0.1 -1.5,0.17 -1.6,-0.5 1.1,0.36 0.8,-0.99 1.6,-0.99 0.1,0.34 0.2,0.6 0.4,0.85 V 38.51 c -0.1,0.21 -0.2,0.37 -0.3,0.42 0,-0.29 -0.1,-0.57 -0.4,-0.48 0,0.5 0.3,0.59 0.4,0.99 -0.8,-0.47 -1.4,1.49 -1.7,0 1,-0.93 -0.2,-1.06 -1,-1.56 -0.1,0.1 -0.1,0.16 -0.1,0.25 0,-0.2 -0.1,-0.38 -0.2,-0.53 0,0 0,-0.1 -0.1,-0.1 -0.7,-0.94 -2.2,-0.71 -3.2,0 -0.7,-1.21 -1.1,-2.6 -2.5,-3.24 z m -27.2,0.54 c 0,0.66 0.8,0.46 0.9,0.99 -0.3,0.15 -1.6,1.24 -1.7,0 0.6,0 0.4,-0.86 0.8,-0.99 z m 178.2,0.15 c 0.4,0 0.5,0.87 0,1 0,-0.56 -0.6,-0.78 0,-1 z m 21.2,0 c 0.1,0.39 0,0.98 0.4,1 0,-0.31 0.1,-0.59 0.4,-0.5 -0.1,0.93 -0.2,1.66 -0.8,1.99 0.5,-1.24 -1.2,-2.06 0,-2.49 z m -73.5,4.18 c 0.5,2.63 -1.2,0.58 0,0 z m -183.8,0.24 c 0.1,0.71 0.6,0.85 0.8,1.5 -1,-0.64 -1.3,0.25 -1.6,-0.5 0.5,0 0.3,-0.87 0.8,-1 z m 90.2,0.5 c 0.6,0.1 1.5,-0.18 1.6,0.5 -0.5,0.64 -1.5,0.65 -1.6,-0.5 z m -51.6,0 c 0,0.31 0.1,0.59 0.4,0.5 v 1 c -0.6,0.1 -1.5,-0.18 -1.6,0.49 0.2,1.4 1.5,1.15 0.8,1.49 0.2,0.2 -3.1,-0.55 -2,-0.49 1.4,-0.84 0.9,-1.76 2.4,-2.99 z m 53.6,0.97 c 0.3,0.89 -1.1,2.07 0,2.49 0.2,-0.59 0.5,-1.13 0.9,-1.49 0.1,1.93 -0.5,3.11 -1.7,3.48 0.4,-2.8 -1.9,-3.89 0.8,-4.48 z m 174.5,0.55 c 0.1,0.71 0.7,0.84 0.8,1.49 -1,-0.63 -1.3,0.25 -1.6,-0.5 0.5,0 0.4,-0.87 0.8,-0.99 z M 359.5,41.6 c 0.8,0 1.3,2.4 0.6,2.51 -0.4,-0.65 -0.4,-1.83 -0.8,-2.49 0.1,0 0.1,0 0.2,0 z m 111.1,0.86 c -0.6,1.61 1.3,0.38 0.8,1.99 -1.2,0.1 -2.3,-1.68 -0.8,-1.99 z m 12.1,0.8 c 0.2,0 0.5,0.17 0.5,0.85 -1.6,0.36 -1.1,-0.79 -0.5,-0.85 z m 1.2,0.24 c 0.4,-0.1 0.7,0.11 -0.1,0.73 -0.6,-0.36 -0.2,-0.67 0.1,-0.73 z m -247.3,0 c 0,0.65 0.7,0.45 0.8,0.99 -0.5,0 -0.3,0.87 -0.8,0.99 0.4,-0.92 -1.2,-1.66 0,-1.98 z m 68.6,0.32 c 0.9,-0.1 1.5,1.88 0.7,2.02 -0.2,-0.73 -0.6,-1.25 -0.8,-1.98 0.1,0 0.1,0 0.1,0 z M 189.1,44.4 v 1 c 0.6,-0.16 0.8,-0.71 1.7,-0.5 -0.2,0.74 -0.6,3.59 -1.3,1.99 1.4,-0.41 -2,-1.74 -0.4,-2.49 z m 84.1,0 c 0.4,0 0.5,0.87 0,1 0,-0.56 -0.6,-0.77 0,-1 z M 207,45.19 c 0.5,0 1,0.38 1.2,0.92 -1.3,-0.13 0.2,3.27 -1.2,1.98 0.3,0 0.5,-0.1 0.4,-0.5 -1,0.15 -1,-1.03 -1.2,-1.98 0.2,-0.3 0.5,-0.42 0.8,-0.42 z m 13.1,0.21 c 0.1,1.08 -0.3,1.58 -1.2,1.49 -0.3,-1.34 0.9,-0.96 1.2,-1.49 z m 143.8,0.4 c 0.7,0 1.1,0.38 1.2,0.99 -0.7,0 -1,-0.38 -1.2,-0.99 z m -54.6,0 c 0.9,-0.1 1.2,2.27 0.7,2.04 -0.2,-0.74 -0.6,-1.25 -0.8,-1.99 0.1,0 0.1,0 0.1,0 z m -58.4,0.7 c 0.1,0 0.2,0.19 0.2,0.56 -1.5,0.65 0.7,2.99 -1.6,2.98 0,-1.85 0.5,-1.41 0,-2.98 0.6,0.35 1.1,-0.66 1.4,-0.56 z m 80,0.49 c 0.2,0 0.3,0.12 0.3,0.35 -0.8,0 -0.3,1.65 -1.2,1.49 -0.4,-1.02 0.4,-1.88 0.9,-1.84 z m 118.6,0.61 c 0.4,0.1 0.8,0.37 0.1,0.74 -0.8,-0.62 -0.4,-0.8 -0.1,-0.74 z m -261.6,0.24 c 0,0.5 0.3,0.59 0.4,0.99 -0.7,1.36 -1.4,-0.72 -0.4,-0.99 z m 1.2,0 c 0.1,1.23 -0.2,2.06 -0.8,2.48 -0.8,-0.91 0.3,-1.68 0.8,-2.48 z m 33.5,0.34 c 0.6,0.31 0.1,1.91 0.8,1.99 0.5,-0.72 1.6,-0.75 2.1,-1.49 -0.7,1.85 0.2,0.78 0.4,2.48 -1.6,-1.16 -1.3,0.94 -2.9,0.99 0.6,-1.93 -0.1,-1.58 -0.8,-0.49 -1.1,-1.31 0.7,-0.39 0.4,-1.99 -0.8,0.15 -0.8,1.35 -1.6,1.49 0.1,-1.57 0.3,-2.96 1.6,-2.98 z M 208,49.13 c 0.3,-0.1 1.2,0.28 0.3,0.74 -0.6,-0.47 -0.5,-0.69 -0.3,-0.74 z m 87.9,0.63 c 0,0 0.1,0 0.1,0.1 0.4,0.17 0.5,1.32 0,1.49 -0.9,0.31 -0.9,-1.66 -0.1,-1.54 z m -101.6,1.1 c -0.5,1.61 1.3,0.38 0.8,1.99 -1.1,0.1 -2.2,-1.68 -0.8,-1.99 z m 100.2,0 c 0.4,0.1 0.8,0.38 0.1,0.74 -0.8,-0.62 -0.5,-0.8 -0.1,-0.74 z m -88.9,0.31 c 0,0.68 0.2,1.09 0.4,1.49 h -0.8 c -0.5,-0.72 -0.4,-1.21 0.4,-1.49 z m 123.5,0.4 c 0.3,0.1 0.7,0.37 0.1,0.73 -0.8,-0.62 -0.5,-0.8 -0.1,-0.73 z"></path>
   </svg>