<svg xmlns="http://www.w3.org/2000/svg" viewBox="0 0 542.9 356.6">
  <path d="m 446.1,47.3 c 22.9,0 33.3,16.17 35.4,27.49 l 3.9,0 C 490.5,62.54 494.3,55.11 499.7,47.66 488.6,37.36 473,32 452.4,32 c -43.9,0 -74.8,25.71 -81.9,61.44 -15,75.66 101.6,52.36 81.9,109.46 -5.2,15.5 -21.5,37.1 -53.1,40.6 -24.1,2.7 -44.3,-12.2 -48.5,-27.3 l -3.9,0 c -3.8,12.1 -9.5,21.4 -15.6,27.6 9.7,9.2 26.9,19.4 54.2,19.4 50.7,0 87.2,-33.2 95.1,-72.5 C 494.7,119.5 386,144.7 398,84.44 403,59.15 426.5,47.3 446.1,47.3 Z m -171.9,91.6 0,-0.7 c 34.4,-7.3 60.3,-25.4 66.5,-57.58 C 347.9,43.34 318,33.23 280.5,33.23 l -35.2,1.67 c 0,0 -23.3,-0.7 -34.5,-1.67 -4.1,27.94 -8.4,56.61 -13.9,84.87 l -11.1,56.6 c -5.4,28.3 -12.3,56.9 -19.2,85.5 10.8,-0.9 21.7,-1.6 32.2,-1.6 l 31.6,1.6 c 38.2,0 86.7,-17.4 96.2,-66.1 7.2,-37.5 -13.7,-53.3 -52.6,-55.3 z m -48.5,-29.2 c 4,-20.8 9.4,-41.9 14.1,-62.57 6.4,-1.06 14.1,-1.67 25.3,-1.67 25,0 52.5,5.89 45.5,41.43 -7.1,36.51 -41,47.41 -71.9,47.41 l -17.9,0 4.9,-24.6 z m 71,83.2 c -6.9,35.5 -35.4,55.2 -63.7,55.2 -11.9,0 -24,-0.7 -32,-1.5 3.6,-22.1 6.6,-44.6 10.9,-66.6 l 6.5,-33.6 14.9,0 c 43.7,0 70.6,8.9 63.4,46.5 z M 134.5,33.32 115.8,124.3 98.27,221 c -9.77,53.2 -17.33,90.6 -51.82,93.6 l 0,10 c 40.47,0 66.95,-25.4 74.55,-67.2 6.1,-33.7 19.6,-90.9 27.3,-133.1 l 18.3,-90.98 c -5.7,1.05 -11.1,1.67 -16.3,1.67 -5.3,0 -10.4,-0.71 -15.8,-1.67 z"></path>
  <path d="M 152.3,302 43.21,192.8 152.3,83.7 261.5,192.8 Z" style="opacity:0.2;"></path>
</svg>
