<?xml version="1.0"?>
<!--?xml version="1.0" encoding="UTF-8" standalone="no"?-->
<svg viewBox="0 0 830 270" height="270" width="830" xmlns="http://www.w3.org/2000/svg">
  <path d="m 323.69,93.49 q -2.81,0.35 -4.78,0.7 -1.97,0.35 -4.43,0.98 -2.88,0.78 -3.73,2.75 -0.77,1.97 -0.77,4.5 v 54.98 q 0,7.6 -3.1,13.92 -3.02,6.33 -8.36,10.62 -5.42,4.22 -12.1,6.33 -6.68,2.18 -14.27,2.18 -13.15,0 -21.23,-6.33 -8.02,-6.33 -8.02,-17.37 0,-6.54 3.66,-10.83 3.72,-4.28 10.19,-4.28 6.12,0 9.71,3.58 3.65,3.59 3.65,8.86 0,4.5 -3.16,8.37 -3.1,3.8 -7.1,7.03 v 0.91 q 0.63,1.41 2.74,2.4 2.11,0.98 4.29,0.98 8.43,0 13.22,-6.05 4.85,-6.04 4.85,-18.28 v -56.32 q 0,-2.53 -0.78,-4.22 -0.77,-1.69 -3.72,-2.95 -2.11,-0.92 -5.14,-1.55 -2.95,-0.63 -4.92,-0.91 V 88 h 53.3 z m 56.32,50.76 q 0,-4.22 -0.42,-8.65 -0.42,-4.43 -1.48,-7.24 -1.19,-3.3 -3.3,-4.99 -2.04,-1.69 -5.21,-1.69 -5.41,0 -8.64,5.49 -3.24,5.48 -3.52,17.36 z m 26.86,26.72 q -2.46,4.01 -5.98,7.6 -3.44,3.51 -7.87,6.04 -4.71,2.68 -9.56,4.01 -4.79,1.41 -11.04,1.41 -10.41,0 -18,-2.96 -7.53,-2.95 -12.45,-7.94 -4.92,-4.99 -7.38,-11.74 -2.39,-6.82 -2.39,-14.77 0,-7.17 2.6,-13.71 2.67,-6.61 7.52,-11.74 4.78,-5 12.03,-8.09 7.31,-3.09 16.31,-3.09 9.84,0 16.17,2.39 6.33,2.39 10.48,6.61 4,4 5.83,9.49 1.83,5.41 1.83,11.39 v 4.57 h -47.53 q 0,14.42 5.55,21.94 5.56,7.52 17.65,7.52 6.61,0 11.89,-3.58 5.27,-3.66 9,-9.21 z m 99.63,16.81 h -42.33 v -5.14 q 1.34,-0.14 3.24,-0.35 1.9,-0.21 2.88,-0.7 1.48,-0.77 2.11,-2.25 0.63,-1.48 0.63,-4.36 v -32.91 q 0,-7.17 -2.67,-10.76 -2.6,-3.65 -7.73,-3.65 -2.82,0 -5.28,0.84 -2.39,0.85 -4.71,2.46 -2.04,1.41 -3.3,2.89 -1.2,1.47 -2.04,2.6 v 37.76 q 0,2.46 0.7,4.15 0.71,1.61 2.32,2.46 1.13,0.63 2.81,1.12 1.69,0.49 3.31,0.7 v 5.14 h -42.75 v -5.14 q 1.76,-0.14 3.52,-0.35 1.82,-0.28 3.09,-0.7 2.25,-0.77 3.09,-2.39 0.85,-1.62 0.85,-4.22 v -40.92 q 0,-2.18 -1.13,-4.29 -1.12,-2.11 -2.95,-3.45 -1.27,-0.84 -3.24,-1.4 -1.89,-0.57 -4.21,-0.78 v -5.13 l 33.53,-1.83 1.06,1.06 v 10.19 h 0.28 q 1.97,-1.76 4.78,-4.22 2.81,-2.46 5.2,-4 2.61,-1.69 6.82,-2.89 4.22,-1.19 9,-1.19 11.47,0 17.16,6.54 5.77,6.47 5.77,17.22 v 34.46 q 0,2.6 0.77,4.15 0.77,1.54 2.88,2.46 1.13,0.49 2.75,0.98 1.68,0.49 3.79,0.7 z m 96.96,0 h -33.11 q -6.12,-10.76 -11.18,-18.21 -5.07,-7.53 -9.57,-13.93 l -4.22,3.59 v 15.33 q 0,2.53 0.71,4.15 0.77,1.61 2.88,2.39 1.27,0.56 2.95,0.98 1.69,0.42 3.38,0.56 v 5.14 h -43.52 v -5.14 q 1.75,-0.14 3.51,-0.35 1.76,-0.28 3.09,-0.7 2.25,-0.77 3.03,-2.39 0.84,-1.62 0.84,-4.22 v -78.4 q 0,-2.32 -1.05,-4.78 -0.99,-2.53 -2.96,-3.8 -1.33,-0.84 -4,-1.4 -2.68,-0.57 -4.86,-0.71 v -5.13 l 34.95,-1.83 1.05,1.13 v 72.56 q 5.21,-4.64 11.68,-10.76 6.54,-6.12 10.47,-10.12 2.32,-2.39 2.53,-3.59 0.29,-1.26 0.29,-1.55 0,-1.26 -2.25,-2.11 -2.18,-0.84 -6.61,-1.47 v -4.99 h 35.72 v 4.85 q -7.04,1.97 -10.76,3.72 -3.66,1.69 -8.02,4.57 -2.88,1.9 -5.62,4.01 -2.68,2.04 -6.19,5.13 6.89,9.99 12.73,18.5 5.83,8.51 12.23,18 2.18,3.3 5.41,4.43 3.24,1.12 6.47,1.4 z m 34.81,-95.91 q 0,5.34 -4.15,9.14 -4.08,3.73 -9.7,3.73 -5.7,0 -9.85,-3.73 -4.08,-3.8 -4.08,-9.14 0,-5.34 4.08,-9.14 4.15,-3.8 9.85,-3.8 5.69,0 9.77,3.8 4.08,3.8 4.08,9.14 z m 10.26,95.91 H 604.1 v -5.14 q 1.82,-0.14 3.58,-0.35 1.76,-0.21 3.03,-0.7 2.25,-0.84 3.16,-2.39 0.91,-1.62 0.91,-4.22 v -40.92 q 0,-2.46 -1.12,-4.29 -1.13,-1.9 -2.81,-3.03 -1.27,-0.84 -3.87,-1.61 -2.53,-0.78 -4.64,-0.99 v -5.13 l 34.45,-1.83 1.06,1.06 v 55.83 q 0,2.46 1.05,4.22 1.06,1.68 3.02,2.53 1.41,0.63 3.1,1.12 1.69,0.49 3.51,0.7 z m 99.28,0 h -42.32 v -5.14 q 1.33,-0.14 3.23,-0.35 1.9,-0.21 2.88,-0.7 1.48,-0.77 2.11,-2.25 0.64,-1.48 0.64,-4.36 v -32.91 q 0,-7.17 -2.68,-10.76 -2.6,-3.65 -7.73,-3.65 -2.81,0 -5.27,0.84 -2.39,0.85 -4.71,2.46 -2.04,1.41 -3.31,2.89 -1.19,1.47 -2.04,2.6 v 37.76 q 0,2.46 0.7,4.15 0.71,1.61 2.32,2.46 1.13,0.63 2.82,1.12 1.68,0.49 3.3,0.7 v 5.14 H 655 v -5.14 q 1.76,-0.14 3.52,-0.35 1.83,-0.28 3.09,-0.7 2.25,-0.77 3.1,-2.39 0.84,-1.62 0.84,-4.22 v -40.92 q 0,-2.18 -1.13,-4.29 -1.12,-2.11 -2.95,-3.45 -1.26,-0.84 -3.23,-1.4 -1.9,-0.57 -4.22,-0.78 v -5.13 l 33.54,-1.83 1.05,1.06 v 10.19 h 0.28 q 1.97,-1.76 4.78,-4.22 2.82,-2.46 5.21,-4 2.6,-1.69 6.82,-2.89 4.22,-1.19 9,-1.19 11.46,0 17.15,6.54 5.77,6.47 5.77,17.22 v 34.46 q 0,2.6 0.77,4.15 0.78,1.54 2.89,2.46 1.12,0.49 2.74,0.98 1.69,0.49 3.79,0.7 z m 39.31,2.39 q -6.82,0 -13.36,-2.04 -6.47,-1.97 -10.05,-4.22 l -2.11,4.78 h -5.49 l -0.91,-26.23 h 5.13 q 1.05,3.17 3.52,7.18 2.46,3.93 5.62,7.1 3.31,3.16 7.52,5.34 4.29,2.18 9.14,2.18 6.4,0 9.5,-2.46 3.16,-2.53 3.16,-7.73 0,-2.82 -1.41,-4.64 -1.4,-1.83 -3.86,-3.17 -2.74,-1.4 -6.05,-2.39 -3.23,-0.98 -8.01,-2.39 -4.79,-1.41 -8.23,-2.81 -3.38,-1.48 -7.03,-4.57 -3.17,-2.75 -5.07,-6.61 -1.89,-3.87 -1.89,-9.21 0,-9.92 8.29,-16.04 8.37,-6.11 21.87,-6.11 6.4,0 11.74,1.33 5.42,1.27 9.07,2.82 l 1.48,-4.15 h 5.34 l 1.13,23.97 h -4.99 q -2.46,-7.31 -8.44,-12.58 -5.98,-5.35 -12.87,-5.35 -5.41,0 -8.51,2.25 -3.09,2.25 -3.09,6.26 0,5.35 4.5,7.74 4.57,2.39 12.73,4.5 12.58,3.23 18.42,8.86 5.83,5.55 5.83,14.2 0,11.53 -9.07,17.86 -9,6.33 -23.55,6.33 z"></path>
  <path d="m 138.1,222.1 c 0.2,0 0.39,0 0.56,0.1 0.68,5.94 3.03,11.94 2.74,18.45 -2.61,0.88 -4.11,1.65 -7.62,1.65 -0.24,-5.53 -0.98,-13.97 -0.76,-19.24 1.51,0.1 3.64,-0.92 5.08,-0.92 z m 28.03,-20.87 c -2.2,0 -4.14,0.44 -5.14,1.52 4.5,0.36 10.37,0.47 15.1,0.36 -1.92,-0.89 -6.3,-1.92 -9.96,-1.88 z m 1.2,-6.32 c -2.65,0 -5.1,0.48 -6.11,2.01 4.26,0.35 9.2,-0.33 13.41,-0.77 -1.81,-0.62 -4.65,-1.2 -7.3,-1.24 z m -28.73,-4.48 c 1.35,4.89 1.8,10.62 2.21,16.38 -2.83,1.58 -5.76,3 -8.78,4.25 0.12,1.89 0.26,3.79 0.4,5.69 3.03,-1.19 5.97,-2.52 8.83,-4.03 0,-0.16 0,-0.33 0,-0.49 0.12,1.57 0.27,3.13 0.45,4.65 -3.25,0.71 -5.62,1.07 -9.12,1.59 -0.19,-2.48 -0.37,-4.95 -0.52,-7.41 -0.41,-6.61 -0.68,-13.19 -0.59,-19.82 2.48,-0.83 4.67,-0.78 7.16,-0.81 z m -25.66,-0.75 c 5.36,0.1 10.5,0.48 15.06,1.43 1.33,8.68 0.83,17.24 1.81,25.75 1.29,11.31 0.32,24.23 2.53,34.83 -12.03,3.74 -28.44,3.38 -42.052,-0.76 -6.128,-18.79 -9.474,-36.63 -11.782,-57.85 9.838,-1.84 22.654,-3.52 34.434,-3.4 z m 34.97,-0.1 c 0.44,0 0.87,0.1 1.29,0.16 v 0 c 3.3,5.67 4,15.11 3.89,21.95 -2.05,0.4 -3.38,1.58 -5.88,1.5 -0.64,-7.8 -2.45,-16 -3.19,-23.42 1.19,0 2.57,-0.25 3.89,-0.19 z m 24.44,-1.53 c -6.2,0.18 -11.05,1.83 -13.82,5.72 5.04,0.32 8.66,-4.69 13.82,-5.72 z m 0.42,-6.97 c 2.37,0.1 4.73,1.97 5.75,3.54 1.87,2.81 3.61,11.1 4.58,15.5 1.46,6.54 -1.81,12.92 -7.02,14.18 v 0 c -3.79,0.91 -9.6,1.16 -12.08,0 3.04,-1.66 7.6,-1.67 11.11,-2.81 -5.03,-2.16 -12.48,-0.12 -18.54,-0.5 -0.73,-7.47 -1.28,-15.58 -3.05,-21.48 3.54,-3.75 12.07,-4.66 16.92,-7.76 0.74,-0.48 1.54,-0.66 2.33,-0.64 z m 2.96,-4.24 c 0.12,0 0.23,0.1 0.34,0.1 -0.11,0 -0.22,-0.1 -0.34,-0.1 z m -0.8,-0.14 c 0.11,0 0.23,0 0.34,0.1 -0.11,0 -0.23,0 -0.34,-0.1 z m -0.78,-0.1 c 0.1,0 0.19,0 0.28,0 -0.1,0 -0.18,0 -0.28,0 z m -44.43,-10.37 c -1.02,0 -1.84,0.81 -1.84,1.83 0,1.01 0.82,1.83 1.84,1.83 1.01,0 1.83,-0.82 1.83,-1.83 0,-1.02 -0.82,-1.83 -1.83,-1.83 z m -14.48,-8.03 c 5.46,6.92 8.78,15.83 12.44,24.43 -8.64,-2.6 -17.47,-6.83 -25.04,-11.11 1.49,-6.44 7.31,-9.77 12.6,-13.32 z m 12.64,-0.48 c -1.01,0 -1.83,0.82 -1.83,1.83 0,1.02 0.82,1.84 1.83,1.84 1.02,0 1.84,-0.82 1.84,-1.84 0,-1.01 -0.82,-1.83 -1.84,-1.83 z m 12.26,-2.54 c 3.27,0 5.94,2.12 7.42,4.49 -4.61,7.88 -9.02,15.99 -14.49,22.96 2.29,-6.75 3.27,-18.03 3.62,-26.62 1.2,-0.56 2.36,-0.82 3.45,-0.83 z m -14.04,-2.81 c 0.12,0 0.25,0 0.38,0 2.37,0.25 4.25,3.52 7.64,3.31 -0.55,8.83 -0.26,17.7 -2.73,25.79 -4.59,-8.42 -7.3,-18.59 -13.24,-25.76 0.63,-0.67 1.19,-1.41 1.8,-2.09 2.53,1.06 4.23,-1.17 6.15,-1.26 z m -3.13,-9.78 c 4.65,0 4.59,9.31 -2.22,7.19 -0.49,-2.82 -1.07,-3.62 -0.84,-6.08 1.17,-0.77 2.19,-1.1 3.06,-1.11 z m -26.178,-6.74 c 0.304,0 0.624,0 0.976,0.1 4.492,0.86 9.712,2.93 13.192,4.83 h 0.1 c 2.12,1.16 3.35,2.6 6.58,2.84 -0.1,0.43 -0.1,0.85 -0.1,1.29 -1.77,1.16 -4.62,1.15 -6.56,2.13 2.86,0.12 5.11,0.81 7.05,1.78 0,1.08 -0.12,2.15 -0.12,3.23 -3.24,2.22 -6.2,5.52 -10.01,7.59 -1.8,0.99 -8.122,3.52 -10.042,3.07 -1.088,-0.25 -1.184,-1.59 -1.616,-2.87 -0.928,-2.71 -3.048,-7.04 -3.24,-11.13 -0.216,-4.84 -0.688,-12.76 3.84,-12.85 z m -19.048,-1.11 c 2.821,1.95 8.28,1.47 12.432,2.2 0.216,1.32 -0.864,3.08 -0.84,4.93 -3.496,-0.21 -14.478,-4.21 -11.592,-7.13 z m 53.306,-0.1 c -2.38,1.54 -4.4,3.48 -6.68,5.14 -5.05,0.25 -7.81,-0.35 -11.52,-3.25 0.1,-0.24 0.45,-0.13 0.45,-0.43 5.41,2.42 12.28,-0.97 17.75,-1.46 z m 9.66,-0.25 c 0.79,0 1.53,0.11 2.19,0.5 2.02,1.17 2.87,7.85 3.03,11.12 0.13,2.69 -0.25,5.41 -1.35,6.85 -5.65,-0.17 -10.76,-0.84 -15.24,-2.1 0.31,-1.83 -0.26,-3.63 0.19,-4.95 1.25,-0.91 3.34,-0.89 5.23,-1.11 -1.63,-0.8 -3.92,-1.12 -5.8,-0.64 0,-1.28 -0.62,-2.07 -0.97,-3.06 2.68,-0.96 8.45,-6.41 12.72,-6.61 z m -75.608,-5.12 c 1.124,0.17 6.904,7.67 7.782,8.3 v 0 c 4.97,3.53 11.145,6.31 16.913,9.07 0.352,2.65 1.168,6.08 2.608,10.66 1.584,5.08 2.896,12.24 9.595,8.58 -0.64,2.9 -4.363,4.7 -3.331,8.07 0.64,2.12 7.671,4.74 9.901,6 4.12,2.32 7.87,3.6 11.03,4.96 -14.36,0.4 -27.851,1.56 -41.125,3.36 -1.589,-2.45 -0.948,-6.25 -1.116,-10.18 -0.189,-4.26 1.585,-13.86 -0.09,-14.46 -1.893,-0.67 -2.246,3.16 -2.316,4.01 -0.35,4.5 2.142,14.03 -0.318,19.41 -2.695,-0.76 -4.021,-2.79 -6.546,-3.7 -0.99,3.11 2.051,3.26 1.739,5.24 -0.413,2.62 -5.377,0.43 -5.347,4.32 3.231,0.52 8.182,-1 11.634,0.45 0.904,10.59 2.355,20.63 3.944,31.87 -13.739,-0.71 -22.631,-7.53 -32.756,-12.27 -0.63,-22.39 -4.198,-45.62 -13.036,-64.59 9.27,-7.15 19.644,-14.72 30.738,-19.09 0.03,0 0.06,0 0.09,0 z m 81.228,-4.83 c 3.9,3.14 6.25,6.1 9.99,9.46 2.03,1.81 6.02,3.99 6.42,6.93 0.23,1.65 -0.78,5.67 -1.15,7.51 -1.64,8.1 -5.32,18.8 -8.83,27.28 -1.27,3.09 -2.49,6.93 -4.17,7.61 -4.61,1.82 -10.2,-0.18 -14.12,2.25 5.27,-9.13 10.99,-17.75 16.15,-26.99 -0.78,-1.84 -2.71,-2.62 -3.27,-4.66 3.62,-6.84 1.96,-28.07 -7.29,-23.59 1.3,-1.9 4.69,-3.46 6.27,-5.8 z m -37.88,-19.18 c -5.02,0 -0.79,2.8 0.1,3.89 1.76,2.26 3.82,6.12 7.04,7.82 5.06,2.71 15.12,1.59 18.76,0.1 1.35,-0.54 2.44,-2.06 2.94,-3.34 -11.38,0.27 -24.88,1.41 -28.81,-8.45 z m 1.08,-5.56 c 2.6,6.98 14.33,9.43 24.25,8.94 0,-2.07 0,-4.15 -0.42,-5.86 -7.72,0.24 -18.16,-0.1 -23.83,-3.08 z m 42.64,-3.73 c -5.21,2.38 -9.41,5.84 -16.22,6.49 -0.32,1.12 -0.18,3.96 0,5.83 8.9,-0.19 13.2,-6.55 16.23,-12.32 z M 54.626,75.77 c -2.47,0 -4.708,1.59 -5.236,5.43 1.096,-0.72 1.978,-2.76 3.954,-1.79 -1.734,3.39 -1.32,9.98 1.04,12.12 -0.01,-4.01 -0.638,-10.88 2.79,-10.68 2.397,0.15 2.884,5.29 4.928,6.45 C 63.51,80.52 58.744,75.83 54.626,75.77 Z M 161.82,70.59 c 0,0.11 0,0.22 0,0.33 14.36,15.55 23.18,36.53 23.18,59.64 0,16.9 -4.74,32.67 -12.9,46.01 0,0 0,0 0.1,0 -6.05,0.26 -13.05,3.49 -17.71,5.8 3.93,-10.32 7.3,-21.02 10.76,-32.6 1.04,-3.46 3.08,-8.39 2.62,-11.99 -0.43,-3.37 -5.7,-6.92 -8.47,-9.6 -1.54,-1.48 -8.73,-6.94 -9.15,-8.98 -0.4,-1.98 2.93,-6.46 4.01,-8.7 1.53,-3.2 2.64,-7.12 3.4,-9.8 2.58,-9.07 4.09,-19.69 4.21,-30.11 z M 43.387,66.15 c 0.309,1.41 0.626,2.84 0.387,4.04 -0.201,1.01 -1.566,2.3 -1.84,2.95 -3.487,8.32 -0.692,19.25 3.34,25.16 2.436,3.57 6.471,6.74 11.792,7.58 0.211,3.19 0.979,5.93 2.451,9.16 0.93,2.04 4.41,5.7 3.129,8.32 -0.644,1.3 -6.311,4.17 -8.19,5.29 -6.344,3.81 -10.94,6.13 -16.798,10.36 -3.789,2.73 -9.715,3.08 -8.78,9.37 0.63,4.24 3.045,9.51 4.428,13.77 1.496,4.59 3.641,8.8 4.872,13.56 1.496,5.8 2.336,11.42 2.906,17.02 0.27,2.63 0.48,5.27 0.665,7.92 -0.185,-2.64 -0.395,-5.29 -0.665,-7.92 -0.264,-0.26 -0.535,-0.52 -0.797,-0.78 -15.352,-15.71 -24.851,-37.41 -24.851,-61.39 0,-23.99 9.499,-45.68 24.851,-61.4 1.008,-1.03 2.043,-2.03 3.1,-3.01 z m -0.315,-1.61 c 0.02,0.12 0.04,0.24 0.06,0.36 -0.02,-0.12 -0.04,-0.24 -0.06,-0.36 z m -0.114,-1.06 c 0,0.24 0.03,0.47 0.06,0.72 -0.03,-0.25 -0.05,-0.48 -0.06,-0.72 z M 130.6,58.94 c -0.26,0 -0.58,0.1 -0.95,0.34 -0.24,8.99 6.44,16.44 11.43,22.45 2.43,2.93 5.37,4.61 2.67,9.16 -4.36,1.65 -11.42,6.41 -17.48,5.37 -3.21,-0.56 -2.49,-4.2 -3.64,-6.18 -2.22,2.91 -1.35,7.33 0.93,9.3 10.68,1.07 17.95,-3.48 24.47,-7.68 -0.26,-1.64 1.97,-4.6 1.35,-7.06 -0.21,-0.86 -2.14,-2.08 -3.32,-3.37 -4.78,-5.21 -11.33,-13 -13.93,-19.09 -0.23,-0.55 -0.4,-3.09 -1.53,-3.24 z m -20.56,-3.53 c -1.35,3.83 2.31,10.33 4.37,13.62 -2.68,2.6 -7.49,0.44 -11.07,0.27 -3.412,5.4 6.67,6.41 11,5.13 1.19,-0.34 3.24,-2.12 3.52,-2.92 1.2,-3.38 -1.22,-4.86 -2.47,-6.07 -2.77,-2.7 -3.4,-6.45 -5.35,-10.02 z m 39.61,-0.11 c -0.27,4.9 1.54,7.84 2.8,11.31 -2.18,1.38 -6.44,0.52 -8.91,1.6 -0.17,7.26 11.23,3.68 12.97,-0.36 -2.59,-3.77 -4.37,-8.28 -6.42,-12.55 z M 68.231,40.5 c 3.511,8.94 -2.521,19.56 -0.275,29.33 0.688,3 3.069,7.64 -0.731,7.74 C 67.325,69.06 56.758,63.65 48.797,68.66 48.264,62.2 47.342,53.12 51.746,48.27 55.81,43.8 61.412,41.01 68.231,40.5 Z M 100.7,39.56 c -5.14,0 -10.996,5.5 -12.524,9.69 -0.624,1.71 -1.6,5.05 0.856,5.65 2.76,-6.14 7.272,-12.06 16.358,-9.94 1.75,-2.87 -1.37,-4.98 -3.68,-5.32 -0.33,-0.1 -0.67,-0.1 -1.01,-0.1 z M 83.464,20.11 c 0.464,0 0.88,0.31 1.28,0.74 -0.06,1.58 -1.616,1.55 -2.672,2.06 -1.637,2.01 -4.031,2.95 -6.023,5.16 -2.044,2.26 -4.331,8.33 -7.039,9 -1.36,0.34 -2.908,-0.25 -4.092,-0.15 -3.129,0.19 -5.332,1.79 -8.505,2.26 4.097,-8.96 16.875,-16.21 26.843,-19.03 0.07,0 0.144,0 0.208,0 z M 108.1,15.55 c 9.44,-0.1 19.94,3.24 27.06,7.26 5.95,3.35 10.34,9.83 14.52,15.23 -5.87,-1.74 -10.86,1.25 -9.95,6.09 4.91,-4.5 13.3,0 15.78,4.93 2.37,4.75 2.36,11.8 2.72,18.87 0.88,17.15 -3.14,34.84 -11.75,47.24 -2.31,3.31 -4.24,6.93 -7.48,9.2 -7.81,5.49 -19.68,10.46 -29.84,7.05 -13.432,-4.51 -19.528,-13.46 -26.92,-23.7 0.2,5.63 4.16,10.25 8.072,14.55 3.4,3.75 7.504,7.99 11.918,9.74 -3.678,-0.87 -9.334,-1.13 -10.87,2.17 -8.592,-0.57 -16.585,-1.45 -20.65,-7.28 -3.204,-4.58 -6.46,-12.39 -7.92,-18.43 -0.297,-1.23 -0.808,-3.88 -0.684,-4.55 0.48,-2.62 5.142,-3.78 3.308,-7.43 -3.383,0 -4.145,3.08 -7.252,3.39 -8.039,0.8 -13.712,-10.66 -13.346,-17.56 0.309,-5.88 5.275,-11.5 12.068,-10.76 4.802,0.53 6.433,5.77 7.365,10.43 2.768,0.15 6.765,-0.12 8.073,-2.28 -0.187,-5.27 -2.634,-9.49 -2.466,-14.33 0.316,-9.1 5.273,-17.31 1.449,-26.27 4.093,-9.29 16.103,-16.62 24.983,-21.05 3.44,-1.72 7.512,-2.47 11.812,-2.51 z M 108.91,10 c -7.59,0 -15.11,1.13 -21.286,3.41 -4.24,1.56 -8.347,2.96 -12.071,5.15 -9.962,5.84 -20.535,9.76 -23.491,21.53 -6.32,2.83 -8.804,10.23 -9.109,19.21 -2.278,1.91 -4.47,3.93 -6.551,6.06 C 20.086,82.06 10,105.12 10,130.56 c 0,25.44 10.086,48.5 26.402,65.19 1.714,1.75 3.506,3.42 5.354,5.02 0.138,1.98 0.27,3.96 0.398,5.95 0.263,4.07 -0.17,8.37 0.885,10.61 1.088,2.32 5.117,3.06 8.03,4.42 8.409,3.88 17.33,9.82 28.362,8.64 2.625,8.84 5.113,18.26 8.273,26 11.312,4.07 29.166,3.44 40.926,2.02 3.57,-0.43 7.34,-2.19 8.18,-5.29 -0.25,-1.91 -0.53,-3.8 -0.41,-6.06 3.68,-0.76 8.68,-1.39 9.49,-5.46 1.14,-5.7 -3.6,-13.88 -2.02,-20.14 2.13,-0.69 4.4,-1.23 4.06,-4.59 3.59,-1.87 7.84,-2.29 12.38,-2.12 0.59,1.14 1.42,2.23 2.17,2.84 6.36,1.28 12.52,1.39 17.8,-0.33 5.98,-1.95 8.83,-14.18 7.47,-20 -0.97,-4.12 -3.17,-10.87 -5.04,-14.87 -1.16,-2.47 -2.84,-4.01 -4.83,-4.89 7.98,-13.76 12.55,-29.81 12.55,-46.94 0,-25.44 -10.08,-48.5 -26.4,-65.2 -0.77,-0.79 -1.57,-1.57 -2.37,-2.33 C 161.11,53.36 159.24,44.26 155.75,37.2 152.69,31.01 144.14,22.46 138.78,18.42 131.29,12.75 120.02,10.07 108.91,10 Z"></path>
   </svg>