<svg
   xmlns="http://www.w3.org/2000/svg"
   viewBox="0 0 1000 1000"
   width="1000" height="1000">
   <path d="M 984,447.8 789.9,461 c 0,0 2.2,33.4 40.2,47.1 40.8,14.7 97.4,-2 97.4,-2 l 49.3,64.6 c 0,0 -36.9,20 -109.5,20.7 -94.7,0.9 -166,-54.5 -171.7,-152.2 -0.8,-13.9 0,-27.7 2.4,-41.1 123.1,-3.5 205.8,-12.9 205.8,-12.9 0,0 1.4,-26.6 -22.3,-40 -13.6,-7.7 -35.5,-9.6 -45,-8.5 -5.9,0.7 -53.7,5.8 -120.9,10.4 24.7,-46.3 70.8,-79.7 130.8,-80.2 91.4,-0.9 124.5,59.7 135.1,113.3 5.4,27.1 2.5,67.6 2.5,67.6 z M 593.5,274 535,458.8 515.8,398.3 c -34.9,-0.9 -68.4,-2.4 -100.3,-4.1 l 73.1,195.5 88.9,0 L 698,274 593.5,274 Z m -117.3,0 -105.7,0 29.5,78.9 c 32.9,0.8 67,1.3 101.7,1.3 L 476.2,274 Z m -148.5,76.5 0,-76.5 -98.2,0 0,71.5 c 30.2,1.8 63.2,3.6 98.2,5 z m -98.2,28.3 0,210.7 98.2,0 0,-201.4 c -35.7,-2.8 -68.5,-6 -98.2,-9.3 z m -69.5,-38.1 0,-66.7 -98.2,0 0,58.1 c 17.5,1.8 51.9,5.1 98.2,8.6 z m 0,29.7 C 110.5,363.8 76.5,358 61.8,355.3 l 0,243.5 c 0,0 1.4,19.9 -9.7,33.4 C 37,650.5 15.3,653 15.3,653 L 51,733.1 c 0,0 20.5,-3.7 40.7,-13.4 25,-12 42.3,-24.7 55.7,-48.8 13.4,-24.1 12.6,-51 12.6,-51 l 0,-249.5 z" />
 </svg>