<?xml version="1.0"?>

<svg xmlns="http://www.w3.org/2000/svg" viewBox="0 0 277.9 92.13" height="92.13" width="277.9">

  <path d="m 199.3,30.1 c -0.7,0.2 -1.2,0.9 -1.4,1.9 -0.2,1 -0.6,1.6 -1.1,1.7 -0.5,0.2 -1.3,0.2 -1.7,-0.1 -1.2,-1.1 -3.6,-2.5 -7.8,-2.5 -6.7,0 -9.6,4.8 -9.6,9.1 0,5.1 2,7.6 6.3,8.5 0.2,0 0.2,0.3 0,0.4 -3.7,0.7 -6.9,1.8 -6.9,5.3 0,2.1 1.2,3.2 2.7,3.9 1.7,0.7 4.1,1 7.1,1.1 2.7,0 4.5,0.1 5.8,0.2 1.3,0.2 2.3,0.6 3.1,1.1 0.8,0.6 1.2,1.6 1.2,2.7 0,1.7 -0.9,3 -2.6,3.9 -1.6,0.9 -3.8,1.4 -6.5,1.4 -2.3,0 -4.3,-0.3 -6,-1.4 -1.3,-0.8 -1.5,-2.3 -1.3,-3.4 0.3,-1.2 -0.1,-2.3 -1.4,-2.6 -0.8,0 -1.7,0.3 -2.1,1 -0.4,0.6 -0.5,1.3 -0.5,2.2 0,2.8 2.2,4.2 3.9,4.7 2.6,0.7 4.3,1 6.7,1 3.1,0 5.7,-0.5 7.5,-1.5 1.8,-0.9 3.1,-2 3.8,-3.3 0.7,-1.3 1.1,-2.7 1.1,-3.9 0,-1.8 -0.4,-3.2 -1.2,-4.3 -2.3,-3.2 -5.7,-2.8 -13.4,-3.2 -3.7,0 -4.4,-0.6 -4.4,-1.8 0,-1.6 1.4,-2.3 6.7,-3.1 5.2,-0.8 10.1,-2.7 10.1,-9.1 0,-1.9 -0.4,-3.4 -0.9,-4.5 1.1,0.2 2.1,0.2 3,-0.1 1,-0.3 1.7,-0.9 2.1,-1.6 0.4,-0.8 0.6,-1.6 0.4,-2.3 -0.3,-1.5 -1.4,-1.8 -2.7,-1.4 m -11.8,17.6 c -3.2,0 -4.9,-1.1 -4.9,-7.5 0,-4.5 1.5,-7.8 4.9,-7.8 3.9,0 5,3 5,7.7 0,6.7 -2.1,7.6 -5,7.6 m 65.5,5.5 c 0.6,0.7 1.5,1 2.9,1.1 v 1.5 h -11.4 v -1.5 c 0.8,-0.1 1.4,-0.2 1.9,-0.5 0.5,-0.4 0.7,-1 0.8,-1.7 0,-0.7 0.3,-1.6 0.3,-2.9 v -7.9 c 0,-1.9 0,-4.3 -0.8,-5.6 -0.5,-1.2 -1.5,-1.8 -3.3,-1.8 -2,0 -3.8,1 -4.8,2.7 -0.9,1.6 -0.9,4.2 -0.9,6.9 v 6.3 c 0,1.7 0.3,2.8 0.7,3.5 0.4,0.6 1.2,0.9 2.4,1 v 1.5 h -12 v -1.5 c 0.9,0 1.6,-0.2 2,-0.4 0.8,-0.3 1.2,-0.8 1.4,-1.5 0.3,-0.6 0.3,-1.5 0.3,-2.8 V 32.9 h -3.7 v -1.2 h 7.5 l 0.8,4.4 h 0.4 c 0.9,-1.9 3,-4.7 7.9,-4.7 1.3,0 2.5,0.3 3.6,0.8 1,0.5 1.9,1.4 2.5,2.4 0.6,1.1 0.8,2.5 0.8,4.1 v 10.9 c 0,1.2 0,2.8 0.7,3.6 m -28.1,0.2 c -1.5,0 -1.9,-0.8 -2,-2.2 l -0.1,-3.1 V 38 c 0,-2.2 -0.4,-3.6 -1.7,-4.9 -1.2,-1.3 -3.7,-2 -7.2,-2 -3.4,0 -6,0.7 -7.6,1.9 -1.5,1.2 -2.1,2.3 -2.1,3.9 0,0.7 0.1,1.2 0.6,1.6 0.4,0.3 0.9,0.5 1.5,0.5 1.3,0 2.1,-0.7 2.4,-2.5 0.2,-1.3 0.5,-2.1 1.1,-2.8 0.7,-0.7 1.8,-1.1 3.3,-1.1 1.7,0 3,0.5 3.6,1.4 0.7,0.9 1,2.1 1,3.5 v 4.1 c -4.4,0.4 -14.8,1.2 -14.3,9.1 0.1,3.1 2.9,5.9 6.4,5.9 3.9,0 6.4,-2.3 8.1,-4 0.2,1.6 1.8,3.7 4.6,3.7 3.2,0 5.1,-1.6 5.4,-5.5 H 227 c -0.2,1.7 -1.2,2.6 -2.1,2.6 m -7.2,-2.6 c 0,0.1 0,0.2 -0.1,0.2 l -0.1,0.1 c -2.3,2.2 -4.1,2.9 -5.5,2.9 -3.3,0 -3.8,-2.8 -3.8,-4.2 0,-4.5 6.1,-6.7 9.5,-6.7 v 7.7 M 170.1,31.5 c -4.2,0 -5.7,2.5 -6.9,5.1 0,0 -0.3,-0.1 -0.3,0 0,0 -0.8,-4.9 -0.8,-4.9 H 154 V 33 h 4.4 v 5.1 11.5 c 0,1.7 0,3 -0.5,3.6 -0.5,0.8 -1.5,1.2 -3.2,1.2 H 154 v 1.5 h 13.8 V 54.3 H 167 c -1.8,0 -2.7,-0.4 -3.2,-1.1 -0.4,-0.7 -0.6,-1.9 -0.6,-3.6 V 41 c 0,-2.9 2.3,-6.2 4.9,-6.2 2.8,0 2.9,3.9 5.9,2.5 2.1,-1 1.6,-5.8 -3.9,-5.8 m -29.9,-0.4 c -7.1,0 -11.5,4.7 -11.5,12.9 0,12 9.3,12.8 11.3,12.8 4,0 11.6,-2.5 11.6,-13 0,-8.2 -4.8,-12.7 -11.4,-12.7 m 0,24.2 c -5.3,0 -6.1,-2.6 -6.1,-11.2 0,-6.5 0.3,-11.5 6.1,-11.5 6.2,0 6.2,5.1 6.2,11.1 0,8.7 -1.5,11.6 -6.2,11.6 m -17.8,-3.1 c -0.3,-0.6 -0.3,-1.3 -0.3,-2.3 V 23.2 h 3.5 V 22 H 117 c 0,0.3 -10.3,25.8 -10.3,25.8 0,0.1 -0.3,0.2 -0.3,0.2 0,0 -0.3,-0.1 -0.3,-0.2 0,0 -10.9,-25.5 -11,-25.8 h -9.6 v 1.2 h 4 v 25.7 c 0,0 0,2.3 0,2.4 0,0.6 -0.3,1.1 -0.6,1.6 -0.3,0.5 -0.9,0.8 -1.5,1.1 -0.5,0.1 -1.2,0.2 -2,0.3 v 1.5 h 9.7 v -1.5 c -0.8,-0.1 -1.2,-0.1 -1.6,-0.3 -0.7,-0.2 -1.2,-0.6 -1.6,-1.1 -0.3,-0.4 -0.5,-1 -0.6,-1.6 0,0 0,-2.4 0,-2.4 V 26.8 h 0.6 c 0,0 12.3,28.7 12.4,29 h 1.1 L 117,27.1 h 0.3 v 22.8 c 0,1 0,1.8 -0.3,2.4 -0.3,0.7 -0.7,1.2 -1.5,1.6 -0.5,0.2 -1.3,0.3 -2.4,0.4 v 1.5 h 13.3 v -1.5 c -1.3,-0.1 -2.1,-0.2 -2.6,-0.5 -0.8,-0.3 -1.3,-0.9 -1.5,-1.6 M 68,22.1 H 54.4 v 1.2 h 3.9 v 26.3 c 0,2.1 0,2.2 -0.3,2.8 -0.3,0.7 -0.8,1.2 -1.7,1.5 -0.5,0.3 -1.5,0.4 -2.7,0.5 v 1.5 H 68.2 V 54.4 C 67,54.4 66,54.1 65.4,54 64.5,53.6 64,53.1 63.7,52.4 63.4,51.8 63.3,51.3 63.3,50.3 v -8.6 h 3.6 c 10.6,0 13.5,-4.1 13.5,-9.8 0,-5.8 -1.8,-9.8 -12.4,-9.8 M 66.1,40.4 H 63.3 V 23.5 l 2.5,-0.1 c 8.2,0 10,3.4 10,8.8 0,5.4 -3.3,8.2 -9.7,8.2 m 10.5,10.9 c -0.8,0 -1.4,0.3 -2,0.8 -0.5,0.5 -0.7,1.2 -0.7,1.9 0,0.8 0.3,1.4 0.7,1.9 0.6,0.6 1.2,0.8 2,0.8 0.7,0 1.4,-0.2 1.9,-0.8 0.6,-0.5 0.8,-1.1 0.8,-1.9 0,-0.7 -0.3,-1.4 -0.8,-1.9 -0.5,-0.5 -1.1,-0.8 -1.9,-0.8 m -29.8,0 c -0.8,0 -1.4,0.3 -2,0.8 -0.5,0.5 -0.8,1.2 -0.8,1.9 0,0.8 0.3,1.4 0.8,1.9 0.6,0.6 1.2,0.8 2,0.8 0.7,0 1.4,-0.2 1.9,-0.8 0.6,-0.5 0.8,-1.1 0.8,-1.9 0,-0.7 -0.3,-1.4 -0.8,-1.9 -0.5,-0.5 -1.1,-0.8 -1.9,-0.8 M 45.9,22.1 H 32 v 1.2 h 4.4 v 23.1 c 0,6.9 -1.9,8.8 -6.2,8.8 -2.7,0 -3.1,-2 -3.1,-3.1 0,-2.5 -0.3,-4 -2.5,-4 -2.3,0 -2.6,2.3 -2.6,3 0,3.2 2.5,5.6 8.8,5.6 7.5,0 10.5,-2.5 10.5,-11 V 23.3 h 4.6 v -1.2"></path>

</svg>
