<?xml version="1.0"?>
<!--?xml version="1.0" encoding="UTF-8" standalone="no"?-->
<svg xmlns:dc="http://purl.org/dc/elements/1.1/" xmlns:cc="http://creativecommons.org/ns#" xmlns:rdf="http://www.w3.org/1999/02/22-rdf-syntax-ns#" xmlns:svg="http://www.w3.org/2000/svg" xmlns="http://www.w3.org/2000/svg" viewBox="0 0 330 100" id="svg97" version="1.1" width="330" height="100">
  <defs id="defs11"></defs>
  <metadata id="metadata13">
    <rdf:rdf>
      <cc:work rdf:about="">
        <dc:format>image/svg+xml</dc:format>
        <dc:type rdf:resource="http://purl.org/dc/dcmitype/StillImage"></dc:type>
        <dc:title></dc:title>
      </cc:work>
    </rdf:rdf>
  </metadata>
  <path d="m 312.42,65.318 c 0.61,0 0.96,-0.175 0.96,-0.825 0,-0.641 -0.34,-0.788 -0.98,-0.788 h -1.36 v 1.613 z m -0.14,0.555 h -1.24 v 1.708 h -0.59 v -4.44 h 1.98 c 1.12,0 1.56,0.461 1.56,1.338 0,0.717 -0.31,1.211 -1.08,1.353 l 1.01,1.749 h -0.64 z m -0.25,-3.86 c -1.86,0 -3.37,1.511 -3.37,3.366 0,1.855 1.51,3.365 3.37,3.365 1.85,0 3.36,-1.51 3.36,-3.365 0,-1.855 -1.51,-3.366 -3.36,-3.366 m 0,7.231 c -2.13,0 -3.87,-1.733 -3.87,-3.865 0,-2.13 1.74,-3.866 3.87,-3.866 2.13,0 3.86,1.736 3.86,3.866 0,2.132 -1.73,3.865 -3.86,3.865 M 7.5827,82.229 C 31.325,82.229 32.336,71.591 32.336,56.582 V 7.697 h -5.601 v 48.885 c 0,11.31 0.447,20.385 -19.1523,20.385 -0.7414,0 -1.444,-0.03 -2.1299,-0.05 v 5.281 c 0.6887,0.02 1.3968,0.03 2.1299,0.03 M 238.97,34.022 h 41.66 c -0.56,-12.207 -1.34,-22.623 -19.15,-22.623 -17.13,0 -21.84,9.297 -22.51,22.623 m -5.6,4.146 c 0,-18.031 5.15,-31.9206 28.23,-31.9206 23.85,0 24.63,16.0146 24.52,32.9256 h -47.26 c 0.11,14.898 3.8,25.986 23.18,25.986 10.31,0 15.01,-2.802 20.05,-6.495 l 3.13,4.143 c -5.6,4.143 -12.2,7.392 -23.18,7.392 -24.19,0 -28.67,-14.001 -28.67,-32.031 m -26.94,4.046 c 9.89,0 14.81,-4.821 14.81,-14.559 0,-9.733 -5.31,-14.357 -15.05,-14.357 H 183.2 V 42.214 Z M 177.72,7.811 h 28.63 c 14.19,0 20.63,7.056 20.63,19.599 0,12.627 -6.35,20.302 -20.71,20.302 H 183.2 v 21.249 h -5.48 z m -15.75,0 h 5.47 v 61.144 h -5.47 z m -10.39,23.85 v 37.297 h -5.71 V 31.55 c 0,-10.752 0.11,-19.824 -19.6,-19.824 -19.6,0 -19.15,9.072 -19.15,20.385 v 36.847 h -5.6 V 32.111 c 0,-15.009 1.01,-25.6476 24.75,-25.6476 23.85,0 25.31,10.6386 25.31,25.1976 M 41.972,44.991 V 7.6945 h 5.712 V 45.102 c 0,10.752 -0.111,19.824 19.599,19.824 19.6,0 19.153,-9.072 19.153,-20.385 V 7.6945 h 5.601 V 44.541 c 0,15.009 -1.011,25.65 -24.754,25.65 -23.856,0 -25.311,-10.641 -25.311,-25.2 M 318.92,6.475 c -23.75,0 -24.75,10.638 -24.75,25.647 v 36.847 h 5.59 V 32.122 c 0,-11.313 -0.44,-20.385 19.16,-20.385 2.1,0 3.96,0.111 5.64,0.308 V 6.711 c -1.73,-0.1527 -3.6,-0.236 -5.64,-0.236 m -31.41,85.001 0.91,-1.366 c 2.03,1.274 4.01,1.708 6.04,1.708 3.49,0 5.04,-0.981 5.04,-3.305 0,-2.394 -2.01,-2.735 -5.04,-3.282 -3.65,-0.639 -6.11,-1.255 -6.11,-4.671 0,-3.263 2.1,-4.537 6.11,-4.537 2.65,0 4.54,0.591 5.88,1.505 l -0.96,1.458 c -1.2,-0.797 -3,-1.322 -4.92,-1.322 -3.03,0 -4.33,0.844 -4.33,2.849 0,2.144 1.76,2.552 4.77,3.099 3.69,0.661 6.35,1.208 6.35,4.832 0,3.351 -2.14,4.967 -6.74,4.967 -2.55,0 -4.86,-0.522 -7,-1.935 m -9.58,-7.248 -3.37,3.691 v 5.267 H 272.8 V 76.297 h 1.76 v 9.322 l 8.54,-9.322 h 2.08 l -6.06,6.631 6.88,10.258 h -2.03 z m -14.63,0.417 c 2.39,0 3.87,-0.73 3.87,-3.396 0,-2.622 -1.43,-3.305 -3.94,-3.305 h -5.49 v 6.701 z m -0.5,1.641 h -5.06 v 6.884 h -1.76 V 76.281 h 7.3 c 3.92,0 5.7,1.572 5.7,4.923 0,2.916 -1.4,4.627 -4.34,5.013 l 4.08,6.953 h -1.91 z m -12.27,-1.558 c 0,-4.56 -2.12,-7.02 -6.73,-7.02 -4.58,0 -6.67,2.46 -6.67,7.02 0,4.582 2.09,7.045 6.67,7.045 4.61,0 6.73,-2.463 6.73,-7.045 m -15.2,-0.02 c 0,-6.018 3.07,-8.706 8.47,-8.706 5.43,0 8.53,2.688 8.53,8.706 0,6.04 -3.1,8.73 -8.53,8.73 -5.4,0 -8.47,-2.69 -8.47,-8.73 M 210.6,76.431 h 1.85 l 4.44,13.971 4.54,-13.971 h 1.55 l 4.51,13.971 4.47,-13.971 h 1.73 l -5.43,17.003 h -1.54 l -4.56,-14.062 -4.54,14.062 h -1.57 z m -10.33,1.71 h -6.34 V 76.43 h 14.48 v 1.711 h -6.34 v 15.181 h -1.8 z m -20.21,-1.71 h 11.17 v 1.711 h -9.37 v 5.581 H 191 v 1.688 h -9.14 v 6.268 h 9.46 v 1.641 h -11.26 z m -18.11,0 h 1.96 l 10.1,13.926 V 76.431 h 1.73 V 93.32 H 174.1 L 163.68,78.983 V 93.32 h -1.73 z" id="path85"></path>
</svg>
