<?xml version="1.0"?>
<!--?xml version="1.0" encoding="UTF-8" standalone="no"?-->
<svg xmlns="http://www.w3.org/2000/svg" height="2168" width="2721" viewBox="0 0 2722 2169">
  <path d="m 734.2,22.2 v 254.7 l 128.9,236.1 -209,940 c -47.3,3 -94.8,-1 -140.9,-12 -88.3,-21 -170.4,-67 -234.1,-131 48.3,53 107.5,96 173,126 145.1,66 312.1,64 470.3,43 182.6,-24 363.6,-72 547.6,-73 122,-1 243,18 358,56 L 1618,513 1746,276.9 V 22.2 H 1519 V 158.7 H 1357 V 22.2 H 1110 V 158.7 H 943.7 V 22.2 Z M 2620,308.1 a 80.22,82.44 61.68 0 0 -83,65.8 80.22,82.44 61.68 0 0 63,94.2 80.22,82.44 61.68 0 0 97,-64.3 80.22,82.44 61.68 0 0 -63,-94.3 80.22,82.44 61.68 0 0 -14,-1.4 z m -163,108.5 c -21,-0.1 -42,0.7 -62,2.2 -140,10.3 -277,57.9 -393,136.6 -116,78.8 -211,188.3 -273,314.5 L 2575,1499 1827,856.6 c 74,-147.3 195,-270.8 340,-347.9 101,-53.2 213,-84.6 327,-91.1 -12,-0.6 -25,-0.9 -37,-1 z M 1250,687.8 h 1 c 8,0 17,1.7 24,5.2 8,3.6 15,9.2 20,15.9 5,6.8 8,14.9 10,23.2 1,8.3 2,16.8 2,25.2 V 914.8 H 1195 V 757.3 c 0,-8.4 0,-16.8 2,-25.1 1,-8.2 4,-16.2 9,-23 5,-6.8 12,-12.3 20,-16 7,-3.6 16,-5.3 24,-5.4 z M 2592,1817 v 12 h 15 v 46 h 13 v -46 h 14 v -12 z m 46,0 v 58 h 13 v -36 l 1,4 15,33 14,-33 1,-3 v 35 h 13 v -58 h -16 l -11,27 -1,3 -2,-3 -11,-27 z m -256,1 c -17,0 -32,3 -46,7 -14,5 -26,11 -36,19 -10,7 -19,16 -26,27 -8,10 -14,22 -19,34 -4,12 -7,25 -10,38 -2,13 -3,26 -3,39 0,13 1,26 3,39 3,13 6,26 10,38 5,12 11,24 19,34 7,11 16,20 26,28 10,7 22,13 36,18 14,4 29,7 46,7 17,0 32,-3 46,-7 13,-5 25,-11 35,-18 11,-8 19,-17 27,-28 7,-10 13,-22 18,-34 4,-12 8,-25 10,-38 2,-13 3,-26 3,-39 0,-13 -1,-26 -3,-39 -2,-13 -6,-26 -10,-38 -5,-12 -11,-24 -18,-34 -8,-11 -16,-20 -27,-27 -10,-8 -22,-14 -35,-19 -14,-4 -29,-7 -46,-7 z m -2360,6 v 316 h 61 v -79 l 59,-72 81,151 h 71.5 L 183,1937 275.1,1824 H 203 L 83,1975 v -151 z m 512.5,0 -121.1,316 h 65.5 l 24.3,-65 h 122 l 24.5,65 h 65.5 L 594.1,1824 Z m 265.8,0 v 59 h 90.4 v 257 h 60.9 v -257 h 90.4 v -59 z m 386.7,0 v 316 h 226 v -58 h -165 v -76 h 91 v -58 h -91 v -66 h 155 v -58 z m 376,0 v 316 h 213 v -59 h -152 v -257 z m 345,0 v 316 h 214 v -59 h -153 v -257 z m 474,53 c 9,0 18,2 25,5 8,2 14,7 20,12 5,5 10,11 14,18 4,6 7,14 10,21 2,8 4,16 5,24 1,9 2,17 2,25 0,11 -2,23 -4,36 -3,12 -7,23 -13,33 -6,11 -14,19 -24,26 -9,6 -21,10 -35,10 -14,0 -26,-3 -36,-10 -10,-6 -18,-14 -24,-24 -6,-11 -10,-22 -12,-34 -3,-13 -4,-25 -4,-37 0,-8 0,-16 1,-24 1,-8 3,-16 6,-24 2,-7 5,-15 9,-22 4,-6 9,-13 15,-18 5,-5 12,-9 19,-12 8,-3 16,-5 26,-5 z m -1817.7,31 c 1.3,5 2.9,10 4.6,15 1.9,5 3.7,10 5.3,14 l 31.1,82 H 523 l 31.4,-82 c 1.6,-4 3.3,-9 5.3,-14 1.9,-5 3.4,-10 4.6,-15 z"></path>
 </svg>
