<?xml version="1.0"?>

<!-- Generator: Adobe Illustrator 19.1.0, SVG Export Plug-In . SVG Version: 6.00 Build 0)  -->
<svg version="1.1" id="Layer_1" xmlns="http://www.w3.org/2000/svg" xmlns:xlink="http://www.w3.org/1999/xlink" x="0px" y="0px" width="600px" height="400px" viewBox="0 0 600 400" enable-background="new 0 0 600 400" xml:space="preserve">
<path d="M436.535,336.987c-4.662,0-9.092,0.047-13.518-0.067c-0.488-0.013-1.169-0.863-1.395-1.463
	c-4.048-10.759-8.091-21.522-11.995-32.334c-0.7-1.938-1.574-2.649-3.681-2.554c-4.305,0.196-8.626,0.059-13.199,0.059
	c0,12.142,0,24.158,0,36.266c-4.5,0-8.74,0-13.142,0c0-27.837,0-55.682,0-83.608c0.452-0.042,0.858-0.113,1.263-0.113
	c10.559-0.002,21.12-0.11,31.677,0.039c11.261,0.159,19.854,7.801,21.861,18.877c1.909,10.537-3.355,21.259-12.555,25.869
	C426.718,310.893,431.594,323.854,436.535,336.987z M392.727,266.789c0,6.702,0.006,13.106-0.005,19.511
	c-0.002,1.233,0.861,1.065,1.626,1.066c5.994,0.004,11.988,0.008,17.982-0.005c0.714-0.001,1.446-0.023,2.14-0.171
	c4.402-0.943,7.134-4.684,7.25-9.868c0.114-5.064-2.727-9.099-7.409-10.123c-1.902-0.416-3.922-0.373-5.89-0.391
	C403.275,266.757,398.129,266.789,392.727,266.789z"></path>
<path d="M515.974,336.987c-4.474,0-8.785,0.041-13.093-0.061c-0.45-0.011-1.09-0.787-1.288-1.336
	c-2.442-6.756-4.858-13.521-7.175-20.321c-0.446-1.31-1.051-1.722-2.409-1.711c-7.558,0.064-15.118,0.061-22.676,0.001
	c-1.269-0.01-1.868,0.337-2.295,1.584c-2.324,6.797-4.78,13.549-7.119,20.341c-0.397,1.153-0.921,1.565-2.167,1.538
	c-4.076-0.089-8.154-0.033-12.5-0.033c0.814-2.417,1.572-4.704,2.355-6.984c8.575-24.967,17.169-49.929,25.697-74.912
	c0.512-1.5,1.157-2.046,2.766-1.969c3.112,0.149,6.242,0.147,9.354-0.001c1.512-0.072,2.059,0.524,2.506,1.834
	c5.871,17.226,11.788,34.437,17.695,51.651c3.245,9.456,6.495,18.91,9.738,28.366C515.575,335.587,515.741,336.214,515.974,336.987z
	 M480.974,276.998c-0.147,0.004-0.294,0.007-0.441,0.011c-2.739,7.583-5.479,15.167-8.275,22.908c5.662,0,11.089,0,16.762,0
	C486.304,292.179,483.639,284.589,480.974,276.998z"></path>
<path d="M292.577,343.584c75.231,0,150.462-0.004,225.693,0.026c1.857,0.001,3.135-0.159,4.074-2.209
	c1.355-2.957,4.983-4.029,8.059-2.914c3.063,1.11,4.847,4.32,4.263,7.671c-0.506,2.903-3.553,5.565-6.565,5.423
	c-2.807-0.132-5.133-1.377-6.201-4.145c-0.485-1.257-1.208-1.646-2.429-1.529c-0.535,0.051-1.079,0.008-1.619,0.008
	c-150.342,0-300.683,0-451.025,0c-0.72,0-1.487,0.148-2.145-0.054c-0.575-0.176-1.028-0.75-1.535-1.148
	c0.527-0.373,1.007-0.909,1.592-1.076c0.667-0.19,1.428-0.053,2.147-0.053C142.115,343.584,217.346,343.584,292.577,343.584z
	 M523.886,344.7c-0.032,2.419,1.711,4.283,4.073,4.355c2.244,0.068,4.291-1.889,4.357-4.166c0.065-2.24-1.9-4.294-4.171-4.361
	C525.822,340.459,523.918,342.324,523.886,344.7z"></path>
<path d="M300.548,337.009c-6.489-16.211-12.793-31.958-19.097-47.706c-0.121,0.025-0.242,0.05-0.363,0.075
	c0,15.784,0,31.568,0,47.481c-4.453,0-8.732,0-13.128,0c0-27.834,0-55.638,0-83.675c4.237,0,8.413-0.038,12.585,0.062
	c0.399,0.01,0.919,0.824,1.143,1.364c5.937,14.327,11.842,28.667,17.755,43.004c0.291,0.706,0.614,1.399,1.048,2.383
	c0.335-0.637,0.568-1.006,0.732-1.403c6.01-14.556,12.033-29.107,17.988-43.685c0.532-1.302,1.126-1.83,2.591-1.782
	c3.708,0.122,7.423,0.041,11.26,0.041c0,27.933,0,55.739,0,83.683c-4.245,0-8.53,0-13.034,0c0-15.737,0-31.524,0-47.311
	c-0.156-0.033-0.312-0.067-0.468-0.1C313.289,305.131,307.017,320.823,300.548,337.009z M104.582,253.141
	c-1.145-0.014-1.829,0.368-2.531,1.259c-7.944,10.079-15.935,20.12-23.915,30.17c-0.389,0.489-0.791,0.968-1.187,1.451
	c-0.141-0.049-0.282-0.098-0.423-0.147c0-10.859,0-21.719,0-32.604c-4.48,0-8.713,0-13.004,0c0,27.945,0,55.788,0,83.613
	c4.392,0,8.627,0,13.031,0c0-0.751,0-1.397,0-2.044c0-5.879-0.007-11.757,0.003-17.636c0.005-2.938-0.674-6.132,0.262-8.742
	c0.959-2.675,3.503-4.787,5.371-7.13c1.016-1.275,2.071-2.519,3.203-3.893c0.424,0.764,0.722,1.28,1.002,1.806
	c6.263,11.73,12.579,23.433,18.734,35.22c1.032,1.976,2.163,2.688,4.368,2.581c4.034-0.196,8.085-0.056,12.388-0.056
	c-0.523-1.012-0.891-1.751-1.283-2.477c-8.485-15.705-16.958-31.417-25.489-47.097c-0.649-1.192-0.6-1.96,0.258-3.003
	c2.781-3.379,5.453-6.849,8.165-10.284c5.42-6.865,10.84-13.73,16.548-20.96C114.632,253.168,109.606,253.204,104.582,253.141z
	 M168.906,323.921c1.066,1.59,2.228,3.128,3.468,4.587c10.745,12.634,32.338,13.624,43.85,0.558
	c10.061-11.42,9.192-28.322-2.451-37.791c-4.815-3.915-10.545-5.798-16.504-7.147c-3.261-0.738-6.643-1.262-9.693-2.543
	c-6.62-2.779-7.356-9.9-1.716-14.379c4.652-3.694,12.332-3.35,16.735,0.838c1.246,1.185,2.271,2.602,3.497,4.03
	c3.545-1.803,7.187-3.656,10.893-5.541c-5.511-10.166-13.779-15.322-25.169-14.709c-10.502,0.565-17.399,6.522-20.98,16.028
	c-3.879,10.299-1.145,19.489,8.946,24.94c3.319,1.793,7.088,2.886,10.771,3.839c4.219,1.092,8.62,1.482,12.542,3.618
	c6.946,3.784,8.818,11.607,4.302,18.076c-5.706,8.174-17.116,8.834-23.962,1.266c-1.826-2.019-3.238-4.414-4.944-6.78
	c-3.965,1.999-8.063,4.066-12.419,6.262C167.091,320.833,167.911,322.436,168.906,323.921z M349.564,336.858
	c4.457,0,8.796,0,13.14,0c0-27.925,0-55.719,0-83.601c-4.424,0-8.716,0-13.14,0C349.564,281.247,349.564,309.041,349.564,336.858z
	 M251.11,336.863c0-27.92,0-55.714,0-83.56c-4.462,0-8.796,0-13.196,0c0,27.889,0,55.643,0,83.56
	C242.408,336.863,246.747,336.863,251.11,336.863z M150.993,253.275c-4.456,0-8.746,0-13.079,0c0,27.944,0,55.78,0,83.614
	c4.441,0,8.735,0,13.079,0C150.993,308.955,150.993,281.123,150.993,253.275z"></path>
<path d="M143.458,155.75c0.189-16.137,5.474-29.201,14.567-40.78c12.273-15.629,27.99-26.043,47.524-30.245
	c4.763-1.025,9.691-1.48,14.568-1.74c11.458-0.611,22.375,1.587,32.47,7.214c7.132,3.975,12.731,9.502,16.649,16.719
	c5.061,9.321,10.214,18.617,12.86,28.979c1.059,4.148,1.642,8.44,2.138,12.702c0.33,2.831-0.238,3.106-2.995,2.673
	c-12.578-1.975-25.162-3.909-37.74-5.881c-11.1-1.741-22.195-3.517-33.293-5.272c-4.723-0.747-9.435-1.599-14.182-2.14
	c-1.3-0.148-2.844,0.403-4.045,1.057c-15.046,8.195-30.05,16.467-45.064,24.721c-2.137,1.175-2.644,0.943-2.91-1.533
	C143.732,159.664,143.569,157.095,143.458,155.75z M311.488,144.332c1.004,2.411,1.474,2.677,3.963,1.848
	c10.942-3.643,21.913-7.209,32.78-11.067c4.999-1.775,10.002-3.767,14.615-6.353c7.375-4.135,10.299-11.354,8.367-19.241
	c-1.212-4.946-3.971-9.039-7.404-12.754c-6.755-7.311-14.892-9.077-23.703-4.523c-10.751,5.556-19.312,13.71-26.033,23.706
	c-3.334,4.958-4.82,10.643-4.861,17.386C309.245,136.659,309.927,140.584,311.488,144.332z M410.503,75.026
	c-7.523-9.643-18.752-12.27-29.106-6.854c-7.021,3.672-10.18,10.361-8.488,18.024c1.496,6.775,5.51,11.878,10.86,16.02
	c5.928,4.589,12.973,6.901,19.915,9.327c3.538,1.237,7.229,2.095,10.908,2.846c2.411,0.492,3.112-0.113,3.478-2.425
	c0.551-3.476,0.956-6.976,1.423-10.466C419.227,91.684,416.559,82.788,410.503,75.026z M277.827,165.634
	c0.36,0,0.72,0.007,1.08-0.001c2.182-0.048,2.979-0.729,3.344-2.93c0.304-1.831-0.852-2.614-2.344-3.062
	c-1.316-0.395-2.641-0.799-3.99-1.033c-7.476-1.299-14.958-2.57-22.445-3.806c-9.904-1.635-19.815-3.23-29.724-4.838
	c-9.144-1.483-18.297-2.911-27.426-4.479c-2.05-0.352-3.675-0.014-5.353,1.224c-14.621,10.789-29.286,21.519-43.938,32.267
	c-26.884,19.721-53.771,39.439-80.642,59.177c-0.962,0.706-2.634,1.551-1.706,2.877c0.993,1.419,2.359,0.115,3.398-0.597
	c22.8-15.62,45.518-31.362,68.41-46.846c13.059-8.833,26.506-17.091,39.561-25.928c5.541-3.751,10.56-8.282,15.745-12.545
	c1.693-1.392,3.429-1.78,5.499-1.226c1.326,0.355,2.677,0.652,4.036,0.838c4.323,0.592,8.661,1.072,12.981,1.684
	c7.693,1.089,15.377,2.239,23.064,3.372c7.744,1.141,15.487,2.292,23.231,3.438c5.733,0.849,11.466,1.696,17.199,2.545
	C277.813,165.72,277.82,165.677,277.827,165.634z M455.701,226.935c-8.185-12.62-16.395-25.224-24.603-37.829
	c-13.048-20.039-26.112-40.067-39.125-60.129c-1.019-1.57-1.938-1.808-3.679-1.041c-24.658,10.859-49.35,21.639-74.032,32.443
	c-0.657,0.288-1.444,0.48-1.903,0.968c-0.563,0.597-1.203,1.5-1.126,2.194c0.054,0.491,1.233,1.181,1.931,1.208
	c1.405,0.054,2.91-0.042,4.227-0.498c14.074-4.87,28.175-9.669,42.149-14.814c7.289-2.683,14.365-5.954,21.482-9.088
	c2.236-0.985,4.25-2.461,6.436-3.573c2.187-1.112,2.913-0.776,3.87,1.436c3.53,8.161,7.61,16.053,12.82,23.25
	c5.445,7.52,11.47,14.619,16.944,22.119c10.67,14.621,21.141,29.387,31.668,44.112c1.062,1.486,2.255,2.597,4.718,2.685
	C456.78,229.011,456.334,227.912,455.701,226.935z M295.194,101.205c-0.653,6.722-1.486,13.428-2.27,20.137
	c-0.784,6.709-1.6,13.414-2.401,20.12c-0.673,5.641-1.374,11.279-2.007,16.925c-0.391,3.488-1.129,6.959-0.251,10.507
	c0.264,1.066,0.098,2.275-0.039,3.399c-1.009,8.249-1.999,16.502-3.115,24.737c-1.196,8.828-2.532,17.636-3.788,26.456
	c-0.573,4.024-1.159,8.049-1.586,12.09c-0.064,0.604,0.605,1.729,1.123,1.859c1.073,0.269,1.404-0.651,1.568-1.668
	c1.498-9.326,3.073-18.639,4.567-27.965c1.39-8.677,2.684-17.37,4.07-26.049c0.846-5.298,1.216-10.721,4.029-15.528
	c0.467-0.799,0.62-1.809,0.802-2.744c0.786-4.047,1.532-8.103,2.287-12.156c2.483-13.335,4.989-26.667,7.428-40.01
	c0.632-3.461,1.324-6.949,1.492-10.448c0.188-3.93-1.668-5.643-5.297-5.663C297.812,95.182,295.566,97.376,295.194,101.205z
	 M409.863,65.473c13.091-4.012,26.17-8.067,39.289-11.983c1.315-0.392,3.026-0.325,4.307,0.169
	c18.724,7.217,38.027,10.957,58.129,9.58c4.192-0.287,8.34-1.463,12.459-2.436c2.02-0.477,2.759-1.949,2.315-3.622
	c-0.433-1.633-2.125-2.589-4.001-2.056c-5.832,1.658-11.751,2.719-17.81,3.122c-6.893,0.458-13.767,0.592-20.599-0.59
	c-10.402-1.799-20.481-4.801-30.395-8.374c-1.732-0.624-3.343-0.594-5.065,0.019c-8.454,3.01-16.929,5.963-25.395,8.94
	c-4.007,1.41-8.023,2.796-12.009,4.264c-1.431,0.527-2.858,1.198-2.936,3.421C408.956,65.715,409.415,65.61,409.863,65.473z"></path>
<path fill="#FFFFFF" d="M523.886,344.7c0.032-2.376,1.936-4.241,4.26-4.173c2.272,0.067,4.237,2.122,4.171,4.361
	c-0.066,2.277-2.114,4.234-4.357,4.166C525.597,348.983,523.854,347.119,523.886,344.7z"></path>
</svg>
