<?xml version="1.0"?>
<!--?xml version="1.0" encoding="UTF-8" standalone="no"?-->
<svg xmlns="http://www.w3.org/2000/svg" viewBox="0 0 394 247.5" height="247.5pt" width="394pt">


  <path d="m 228.63,137.75 c 18.28,-0.1 36.56,0.12 54.84,-0.1 5.77,15.69 10.82,31.65 16.27,47.46 0.45,-0.71 1.09,-1.31 1.32,-2.14 5.21,-15.09 10.54,-30.14 15.8,-45.22 18.38,0 36.76,0 55.14,0 v 87.66 c -11.25,0.14 -22.51,0 -33.76,0 0,-20.18 0.1,-40.37 -0.1,-60.56 -1.57,0.88 -1.73,2.87 -2.4,4.36 -6.53,18.75 -13.23,37.44 -19.76,56.19 -10.58,0 -21.17,0.14 -31.74,-0.1 -6.63,-19.17 -13.49,-38.25 -20.18,-57.39 -0.24,-1.07 -0.84,-1.85 -1.78,-2.35 0,19.94 0,39.89 0,59.84 -11.23,0 -22.46,0 -33.69,0 0,-29.24 0,-58.49 0,-87.74 z m -206.63,0 c 11.1,0 22.2,0 33.31,0 0.02,10.62 -0.02,21.25 0.01,31.88 11.01,-10.54 21.77,-21.33 32.78,-31.87 11.19,0 22.38,0 33.57,0 -12.9,13.11 -26.15,25.88 -38.95,39.08 16.13,15.64 31.71,31.86 47.98,47.33 0.14,-28.8 0,-57.61 0.1,-86.42 11.35,0 22.7,0 34.05,0 0,21.85 0,43.7 0,65.55 18.13,-0.1 36.25,0.1 54.37,-0.1 0.25,7.41 0,14.83 0.12,22.24 -44.06,0 -88.13,0 -132.19,0 -10.42,-10.55 -20.98,-20.96 -31.45,-31.46 -0.15,10.51 0.02,21.01 -0.09,31.52 -11.19,-0.1 -22.38,0 -33.57,-0.1 z m 108.47,-19.37 c -0.28,-7.64 -0.15,-15.3 -0.1,-22.94 43.97,0.13 87.94,0.03 131.91,0.05 0,7.61 0,15.21 0,22.81 -43.95,0 -87.9,-0.1 -131.84,0.1 z M 258.96,52.89 c 9.61,-2.16 20.03,4.41 22.24,14.01 1.93,7.39 -1.01,15.7 -7.24,20.15 -5.79,4.32 -14.1,4.86 -20.4,1.33 -6.88,-3.57 -10.97,-11.68 -9.78,-19.33 0.91,-7.89 7.35,-14.77 15.18,-16.16 z m -44.06,0.02 c 10.72,-2.55 22.43,6.02 22.84,17.11 0.86,7.53 -3.45,15.1 -10.14,18.53 -7.03,3.79 -16.34,2.45 -22.07,-3.09 -6.43,-6.02 -7.77,-16.62 -2.95,-24.01 2.71,-4.37 7.25,-7.57 12.32,-8.54 z m -43.99,-0.02 c 11.05,-2.62 23.23,6.6 22.92,18.11 0.89,10.35 -8.53,19.94 -18.82,19.67 -9.08,0.39 -17.56,-6.74 -18.99,-15.67 -2.03,-9.81 5.06,-20.28 14.89,-22.11 z m -43.97,0.02 c 11.06,-2.66 23.2,6.54 22.96,18.05 0.85,10.06 -7.95,19.49 -17.96,19.68 -8.97,0.77 -17.75,-5.84 -19.64,-14.6 -2.77,-10.02 4.47,-21.24 14.64,-23.13 z M 190.52,22 h 10.98 c 0.1,3.73 0.1,7.45 0.1,11.18 3.67,-0.01 7.35,0.01 11.02,-0.02 0,3.66 0,7.32 -0.1,10.98 -3.64,0 -7.29,0.02 -10.93,0 0,3.6 0,7.21 0,10.82 -3.62,0.23 -7.24,0.18 -10.86,0.15 0,-3.66 0,-7.33 0,-11 -3.68,0.05 -7.35,0.03 -11.02,0.04 -0.1,-3.65 0,-7.31 -0.1,-10.96 3.7,-0.01 7.4,-0.02 11.09,0 -0.1,-3.73 0.25,-7.48 -0.18,-11.19 z"></path>
</svg>
