<?xml version="1.0"?>

<svg xmlns="http://www.w3.org/2000/svg" viewBox="0 0 347.19 73.943" width="347.19" height="73.943"><path d="m 312.57,49.76 0,-19.49 -5.69,0 0,-5.996 18.31,0 0,5.996 -5.69,0 0,19.49 -6.93,0 z m -17.38,-25.487 7.04,0 0,25.486 -7.04,0 0,-25.486 z m -31.65,25.487 0,-25.486 6.67,0 9.65,13.096 c 0.19,0.275 0.49,0.802 0.92,1.624 0.43,0.8 0.9,1.752 1.41,2.866 -0.15,-1.051 -0.25,-1.984 -0.31,-2.823 -0.1,-0.817 -0.1,-1.539 -0.1,-2.177 l 0,-12.586 6.69,0 0,25.486 -6.69,0 -9.64,-13.181 c -0.19,-0.246 -0.51,-0.785 -0.93,-1.604 -0.43,-0.802 -0.88,-1.755 -1.39,-2.835 0.15,1.066 0.24,2.016 0.29,2.835 0.1,0.819 0.1,1.554 0.1,2.197 l 0,12.588 -6.67,0 z m -21.28,0 0,-25.486 15.64,0 0,5.553 -8.85,0 0,4.459 8.34,0 0,5.44 -8.34,0 0,4.326 8.85,0 0,5.708 -15.64,0 z m -18.83,-5.216 2.44,0 c 1.66,0 2.82,-0.195 3.51,-0.604 0.69,-0.428 1.05,-1.1 1.05,-2.066 0,-1.08 -0.32,-1.822 -0.95,-2.246 -0.64,-0.427 -1.81,-0.635 -3.52,-0.635 l -2.53,0 0,5.551 z m 0,-10.128 1.39,0 c 1.72,0 2.89,-0.193 3.53,-0.554 0.64,-0.379 0.96,-1.017 0.96,-1.938 0,-0.966 -0.3,-1.624 -0.9,-2.015 -0.6,-0.377 -1.76,-0.573 -3.49,-0.573 l -1.49,0 0,5.08 z m -6.43,15.343 0,-25.486 6.97,0 c 2.88,0 4.89,0.08 6.05,0.278 1.13,0.179 2.12,0.488 2.95,0.95 0.93,0.524 1.66,1.213 2.15,2.098 0.5,0.869 0.74,1.884 0.74,3.015 0,1.458 -0.37,2.606 -1.1,3.459 -0.75,0.85 -1.91,1.491 -3.52,1.933 1.81,0.133 3.23,0.788 4.26,1.919 1.02,1.131 1.53,2.637 1.53,4.538 0,1.361 -0.28,2.557 -0.86,3.589 -0.57,1.037 -1.4,1.834 -2.47,2.409 -0.87,0.462 -1.95,0.789 -3.22,0.984 -1.29,0.199 -3.4,0.314 -6.31,0.314 l -7.17,0 z M 28.22,24.402 C 27.531,23.206 28.499,22 29.613,22 l 18.965,0 c 1.565,0 1.98,1.476 1.344,2.476 l -3.41,5.916 c -0.553,1.108 -1.918,1.076 -2.524,0.06 l -3.297,-5.755 c -0.918,-1.539 -2.196,-1.57 -3.13,0 l -3.236,5.59 c -0.46,0.853 0.254,2.1 1.393,2.1 l 18.956,0 c 1.32,0 1.96,1.458 1.43,2.393 l -9.405,16.274 c -0.614,1.211 -2.352,1.151 -3.039,0.02 l -3.328,-5.672 c -0.679,-1.216 0.245,-2.62 1.362,-2.62 l 7.064,0 c 1.064,0 1.687,-1.1 1.079,-2.165 L 46.733,35.16 C 45.918,33.782 44.618,33.7 43.758,35.1 l -9.244,15.922 c -0.597,1.213 -2.041,1.223 -2.737,0.06 l -9.523,-16.26 c -0.752,-1.329 0.295,-2.46 1.459,-2.46 l 6.572,0 c 1.622,0 2.064,1.445 1.426,2.477 l -3.393,5.902 c -0.499,0.901 0.297,2.047 1.395,2.047 l 6.859,0 c 1.039,0 1.728,-0.97 1.127,-2.033 L 28.22,24.402 Z m 146.1,-0.163 6.63,0 12.14,15.602 0.1,0 0,-15.602 6.63,0 0,25.52 -6.63,0 -12.15,-15.636 -0.1,0 0,15.636 -6.63,0 0,-25.52 z m -20.01,-0.85 c -7.34,0 -14.1,5.423 -14.1,13.125 0,8.26 5.92,14.08 14.1,14.08 8.19,0 14.1,-5.82 14.1,-14.08 0,-7.702 -6.75,-13.125 -14.1,-13.125 m 0,6.438 c 3.97,0 7.21,3.214 7.21,6.738 0,4.393 -3.24,7.605 -7.21,7.605 -3.96,0 -7.2,-3.212 -7.2,-7.605 0,-3.524 3.24,-6.738 7.2,-6.738 m -24.72,14.309 7.95,0 0,5.624 -14.57,0 0,-25.52 6.62,0 0,19.896 z m -26.6,-20.747 c -7.336,0 -14.106,5.423 -14.106,13.125 0,8.26 5.92,14.08 14.106,14.08 8.19,0 14.1,-5.82 14.1,-14.08 0,-7.702 -6.77,-13.125 -14.1,-13.125 m 0,6.438 c 3.96,0 7.21,3.214 7.21,6.738 0,4.393 -3.25,7.605 -7.21,7.605 -3.956,0 -7.196,-3.212 -7.196,-7.605 0,-3.524 3.24,-6.738 7.196,-6.738 m -23.286,-5.588 8.22,0 -10.15,12.079 11.06,13.441 -8.6,0 -8.55,-11.081 -0.1,0 0,11.081 -6.63,0 0,-25.52 6.63,0 0,10.522 0.1,0 8.02,-10.522 z"></path> </svg>