<?xml version="1.0"?>

<!-- Generator: Adobe Illustrator 19.1.0, SVG Export Plug-In . SVG Version: 6.00 Build 0)  -->
<svg version="1.1" id="Layer_1" xmlns="http://www.w3.org/2000/svg" xmlns:xlink="http://www.w3.org/1999/xlink" x="0px" y="0px" width="580px" height="154px" viewBox="-9 74 580 154" enable-background="new -9 74 580 154" xml:space="preserve">
<path d="M23.951,153.17c1.048,0.48,1.287-0.572,1.748-1.018c14.496-14.027,28.981-28.066,43.407-42.165
	c1.253-1.225,2.472-1.719,4.194-1.628c6.967,0.37,13.94,0.629,21.545,0.957c-0.965,0.87-1.559,1.39-2.136,1.928
	c-16.971,15.844-33.922,31.708-50.946,47.495c-1.307,1.212-1.188,1.74-0.062,2.929c16.96,17.905,33.868,35.859,50.783,53.806
	c0.36,0.382,0.668,0.811,1.001,1.219c-0.536,1.211-1.64,0.919-2.582,0.922c-6.168,0.016-12.336,0.032-18.504-0.002
	c-0.143-0.01-0.285-0.02-0.428-0.03c-11.552-11.64-23.107-23.277-34.653-34.923c-4.17-4.206-8.318-8.433-12.476-12.651
	c-0.365-0.371-0.653-0.859-1.279-0.822c-0.684,2.051-0.252,4.162-0.275,6.24c-0.03,2.632-0.239,5.275,0.137,7.902
	c0.082,9.647,0.106,19.293-0.331,28.934c-0.622-3.066-0.138-6.165-0.27-9.247c-0.061-1.415-0.018-2.834-0.007-4.251
	c-0.129,6.159,0.197,12.321-0.186,18.479c-2.719,0.808-5.502,0.329-8.25,0.341c-2.139,0.009-4.343,0.519-6.432-0.412
	c0-44.801,0.01-89.603-0.044-134.404c-0.002-1.565,0.3-1.923,1.874-1.876c4.568,0.134,9.142,0.048,13.713,0.048
	c0.13,8.036,0.302,16.071,0.377,24.107c0.063,6.751,0.012,13.502,0.011,20.254c-0.38,3.521-0.062,7.052-0.166,10.577
	c0,5.022-0.01,10.043,0.011,15.065C23.727,151.685,23.514,152.465,23.951,153.17z M388.308,218.608
	c-1.376,0.003-2.751,0.005-4.127,0.008c-18.115-1.987-29.935-12.543-37.913-28.122c-3.631-7.091-5.521-14.73-5.899-22.715
	c0.27-3.341,0.272-6.682-0.001-10.024c-0.088-0.972-0.124-1.937,0.352-2.838c0.507-0.545,0.265-1.141,0.119-1.731
	c2.145-14.975,8.483-27.683,20.618-37.027c16.915-13.025,38.362-10.857,52.629,5.094c6.059,6.774,9.959,14.636,12.037,23.453
	c0.327,1.389,0.133,2.201-1.335,2.803c-3.437,1.41-6.789,3.026-10.194,4.517c-0.557,0.244-1.391,1.096-1.579-0.443
	c-0.956-7.85-5.371-13.742-10.914-18.936c-1.658-1.553-3.566-2.839-5.36-4.246c-6.597-5.174-13.77-5.433-21.275-2.406
	c-12.273,4.95-18.726,14.435-21,27.14c-0.092,0.514-0.249,1.016-0.376,1.523c-0.552,0.683-0.327,1.419-0.145,2.152
	c0,2.754,0.001,5.508,0.001,8.262c-0.135,0.736-0.46,1.482,0.121,2.178c1.064,5.515,2.331,10.969,5.045,15.958
	c4.886,8.982,11.511,15.997,21.643,19.012c0.863,0.257,1.734,0.487,2.601,0.729c1.325,0.466,2.653,0.421,3.982,0.022
	c12.104-4.195,20.613-12.186,25.342-24.114c0.704-1.776,1.141-3.659,1.702-5.492c1.207,0.248,2.413,0.253,3.62-0.004
	c3.259,0,6.518,0,10.039,0c-4.174,11.236-7.644,22.299-15.016,31.496c-5.481,6.838-12.167,11.798-21.084,13.157
	c-1.054-0.258-1.212-0.243-1.674,0.154C389.614,218.316,388.961,218.462,388.308,218.608z M228.284,107.982
	c4.372,1.954,7.368,5.419,10.004,9.237c1.841,2.665,3.472,5.462,4.534,8.55c-0.225,0.669-0.127,1.36-0.127,2.042
	c-0.005,29.256-0.005,58.512,0.001,87.767c0,0.679-0.119,1.373,0.155,2.034c-1.365,0.874-2.875,0.331-4.31,0.39
	c-2.502,0.103-5.016-0.068-7.515,0.065c-1.532,0.082-2.119-0.298-2.116-1.933c0.022-9.26-0.052-18.52-0.093-27.78
	c0.277-0.577,0.169-1.194,0.169-1.795c0.006-17.232,0.006-34.463,0-51.695c0-0.601,0.107-1.218-0.168-1.795
	c-0.023-0.447-0.153-0.919-0.052-1.336c0.71-2.958-0.794-4.651-3.245-5.833c-0.32-0.661-0.929-0.382-1.407-0.382
	c-12.583-0.016-25.165-0.015-37.748-0.004c-0.502,0-1.077-0.2-1.473,0.328c-0.047,0.987-0.135,1.973-0.135,2.96
	c-0.007,28.418-0.028,56.835,0.04,85.253c0.005,2.044-0.425,2.803-2.591,2.644c-2.804-0.205-5.635-0.025-8.453-0.072
	c-0.531-0.009-1.228,0.394-1.61-0.371c3.403-0.486,6.824-0.164,10.235-0.184c1.365-0.008,1.841-0.34,1.839-1.786
	c-0.039-28.467-0.029-56.933-0.043-85.4c0,24.422,0,48.845,0,73.267c0,3.961-0.073,7.924,0.035,11.882
	c0.045,1.647-0.545,2.079-2.096,2.018c-2.738-0.108-5.484-0.068-8.225-0.012c-1.16,0.023-1.725-0.345-1.591-1.56
	c0.041-0.376,0.005-0.761,0.005-1.142c0-34.124,0-68.248,0.001-102.372c0-3.035,0.004-3.049,2.986-3.05
	c16.757-0.006,33.515,0.001,50.272-0.014C226.472,107.9,227.373,108.091,228.284,107.982z M463.285,218.625
	c-1.226,0-2.451,0-3.677,0c-1.229-0.241-2.543,0.136-3.717-0.508c0.14-0.089,0.216-0.205,0.229-0.345
	c-0.482,0.226-1.049-0.086-1.516,0.239c-8.203-1.47-14.818-8.423-16.472-17.441c-1.603-8.74-1.154-17.601-1.364-26.417
	c-0.384-16.138-0.664-32.278-0.918-48.419c-0.023-1.451-0.473-1.811-1.836-1.769c-2.962,0.089-5.928,0.028-9.272,0.028
	c2.592-5.836,5.182-11.666,7.771-17.496c0.915-0.435,1.949,0.083,2.862-0.359c1.543,0.128,1.605-0.814,1.597-2.011
	c-0.041-6.545-0.029-13.09-0.007-19.636c0.002-0.738-0.237-1.521,0.229-2.218c0.498,1.246,0.221,2.547,0.228,3.818
	c0.035,6.266,0.016,12.531,0.023,18.797c0.004-7.254,0.009-14.508,0.007-21.762c0-0.314-0.053-0.599-0.262-0.842
	c0.51-0.72,1.259-0.347,1.885-0.356c3.043-0.044,6.087-0.02,9.131-0.02c3.764,0,3.73,0,3.778,3.668
	c0.088,6.768,0.265,13.536,0.296,20.304c0.007,1.429,0.437,1.792,1.809,1.779c6.696-0.061,13.393-0.048,20.089,0.027
	c0.399,0.004,1.637-0.888,1.439,0.682c-2.023-0.493-4.078-0.202-6.116-0.22c-5.37-0.048-10.74-0.015-16.11-0.001
	c4.801-0.023,9.603,0.009,14.404,0c1.897-0.004,3.794-0.024,5.69,0.011c0.709,0.013,1.567-0.299,1.994,0.642
	c-2.189,4.893-4.148,9.892-6.744,14.598c-3.645-0.266-7.29-0.308-10.935-0.012c-0.15,0.021-0.3,0.037-0.449,0.062
	c-1.677,0.282-3.921-0.9-4.912,0.461c-0.81,1.112-0.265,3.21-0.321,4.87c-0.116,3.466,0.234,6.941-0.187,10.402
	c-0.687-2.071-0.214-4.201-0.286-6.301c-0.091-2.621-0.023-5.248-0.008-7.872c-0.249,22.06,0.462,44.124-0.56,66.182
	c0.186-3.341-0.124-6.682,0.28-10.022c0.008-0.067,0.257-0.087,0.415-0.102c0.025,3.027,0.329,6.082,0.013,9.073
	c-0.517,4.894,4.277,11.116,9.176,11.597c0.21,0.021,0.405,0.187,0.607,0.285c0.898,0.628,1.902,0.153,2.849,0.272
	c0.039,0.005,0.118-0.053,0.123-0.088c0.009-0.067-0.023-0.14-0.038-0.21c3.404-0.805,6.664-2.012,9.796-3.56
	c1.183-0.585,1.877-0.766,1.804,1.056c-0.214,5.32-0.321,10.647-0.365,15.972c-0.011,1.271-0.766,1.453-1.645,1.747
	C470.581,218.388,466.93,218.476,463.285,218.625z"></path>
<path d="M555.648,133.038c-3.041-12.146-9.983-20.654-22.405-24.017c-5.501-1.489-11.127-1.634-16.763-1.114
	c-8.905,0.823-17.272,3.34-24.842,8.224c-0.684,0.441-1.448,0.768-1.398,1.856c0.256,5.518,0.456,11.038,0.684,16.758
	c2.467-1.394,4.633-2.786,6.936-3.889c8.683-4.159,17.455-7.846,27.5-6.516c7.461,0.988,12.262,5.02,13.958,12.335
	c0.29,1.251,0.48,2.526,0.716,3.789c0.235,0.048,0.058-0.501,0.274-0.26c0.02,0.022,0.035,0.037,0.046,0.047
	c-0.019,0.005-0.04,0.036-0.046,0.142c-0.141,2.73,0.302,5.477-0.238,8.195c-3.262-0.077-6.526-0.247-9.787-0.207
	c-3.772,0.047-7.567-0.15-11.303,0.615c-0.019,0.091-0.041,0.237,0.111,0.151c-0.005,0.069-0.009,0.139-0.014,0.208
	c-0.597-0.217-1.266,0.126-1.843-0.238c-2.593,0.107-5.104,0.709-7.6,1.335c-14.221,3.569-22.991,13.295-24.357,26.958
	c0.28,0.629,0.184,1.259,0.153,1.838c-0.021-0.218-0.075-0.412-0.25-0.559c-0.85,5.091-0.997,10.182-0.016,15.274
	c0.209-0.161,0.31-0.353,0.182-0.614c0.144,0.183,0.11,0.401,0.102,0.607c-0.017,0.422,0.09,0.862-0.163,1.253
	c0.148,0.89,0.226,1.799,0.456,2.667c2.809,10.635,8.859,18.091,20.103,20.452c0.458,0.096,1.119-0.017,1.316,0.67
	c3.962,0,7.924,0,11.886,0c1.117-0.805,2.315-0.436,3.5-0.242c1.369-0.294,2.856,0.075,4.129-0.741
	c2.604-0.456,5.236-0.192,7.854-0.18c2.693,0.012,5.414-0.373,8.078,0.339c4.01,0.292,8.026,0.075,12.04,0.115
	c0.703,0.007,1.348-0.184,1.886-0.663c0-27.125,0-54.249,0-81.374C555.848,135.292,555.918,134.114,555.648,133.038z
	 M541.071,194.301c-0.035,2.357-0.08,4.714-0.101,7.071c-0.018,1.999-1.079,2.571-2.975,2.63c-3.326,0.104-6.643,0.482-9.963,0.745
	c-4.457,0.493-8.914,0.511-13.37-0.013c-7.908-1.522-12.207-6.556-13.826-14.201c-0.513-0.528-0.309-1.112-0.134-1.694
	c-0.004-1.533-0.007-3.066-0.011-4.599c-0.165-0.736-0.375-1.475,0.129-2.171c0.555-0.711,0.377-1.601,0.575-2.4
	c2.047-8.272,7.892-12.111,15.769-13.689c5.775-1.157,11.617-0.844,17.44-0.993c1.934-0.102,3.879-0.516,5.783,0.179
	c-0.004-0.017-0.006-0.034-0.009-0.051l0.116,0.089c-0.036-0.014-0.071-0.024-0.107-0.037c0.766,3.614,0.525,7.279,0.288,10.9
	c-0.205,3.121,0.006,6.186,0.285,9.269c0.108,1.225-0.126,2.474,0.235,3.684C541.008,190.776,541.651,192.553,541.071,194.301z"></path>
<path d="M518.945,149.004c0.013-0.003,0.025-0.004,0.038-0.007C518.997,148.929,519.009,148.89,518.945,149.004z"></path>
<path d="M337.685,169.417c-0.109-3.268-0.017-6.543-0.161-9.809c-0.103-2.337-0.153-4.7-0.843-6.975
	c-0.196,0.114-0.211,0.35-0.343,0.507c0.109-0.156,0.055-0.334,0.069-0.503c0.034-0.429-0.088-0.877,0.166-1.278
	c-1.56-10.512-5.06-20.264-11.613-28.732c-5.885-7.603-13.499-12.519-23.077-14.174c-0.524,0.217-1.074,0.219-1.604,0.09
	c-0.281-0.069,0.075-0.325,0.177-0.038s0.299-0.432,0.144-0.17c-4.636-0.965-9.275-0.924-13.916-0.033
	c0.122,0.187,0.287,0.28,0.515,0.229c-0.155,0.122-0.338,0.073-0.506,0.067c-0.417-0.015-0.855,0.097-1.237-0.175
	c-1.187,0.211-2.391,0.356-3.559,0.644c-20.107,4.953-31.977,22.261-34.327,40.918c0.22,0.77,0.216,1.531,0.153,2.175
	c-0.033-0.147-0.115-0.311-0.28-0.473c-0.493,0.911-0.421,1.889-0.34,2.868c0.286,3.19,0.286,6.38,0,9.569
	c-0.014,2.217,0.218,4.405,0.782,6.553c0.148-0.118,0.237-0.246,0.27-0.368c0.066,0.624,0.12,1.332-0.116,2.039
	c0.758,5.584,2.177,11.002,4.264,16.231c7.568,18.957,22.93,33.311,49.972,28.597c11.569-2.017,18.866-9.43,24.824-18.761
	c0.533-0.835,0.198-1.168-0.383-1.645c-1.882-1.545-3.732-3.128-5.602-4.688c-4.747-3.959-4.837-4.054-9.527,0.209
	c-4.34,3.945-8.948,7.267-14.863,8.334c-1.138,0.66-2.32,0.319-3.495,0.156c-0.163,0-0.326,0-0.488,0
	c-1.348,0.197-2.697,0.392-4.028-0.1c-0.584-0.141-1.162-0.328-1.754-0.417c-8.051-1.213-14.339-5.129-18.616-12.126
	c-2.605-4.263-4.004-8.951-5.034-13.807c-0.401-1.891-0.181-2.464,1.892-2.448c10.801,0.081,21.603,0.035,32.405,0.001
	c12.625-0.039,25.251-0.162,37.875-0.116C337.423,171.774,337.739,171.046,337.685,169.417z M321.526,153.958
	c-0.471,0.588-1.131,0.336-1.704,0.336c-18.105,0.014-36.211,0.013-54.316,0.007c-0.523,0-1.072,0.113-1.55-0.224
	c-0.073-5.488,1.705-10.508,4.05-15.339c3.683-7.588,9.548-12.522,17.918-14.266c0.706-0.606,1.482-0.311,2.245-0.174
	c1.229,0.001,2.457,0.001,3.686,0.002c0.869-0.155,1.743-0.398,2.571,0.151c3.458,0.794,6.968,1.371,10.237,2.88
	c8.556,3.95,12.923,11.169,15.458,19.783C320.777,149.341,321.763,151.534,321.526,153.958z"></path>
<path d="M166.633,153.978c-0.149,0.1-0.257,0.195-0.239,0.261c0.082,0.293-0.102,0.116-0.064-0.179
	c0.077-0.593-0.132-1.214,0.169-1.783c-1.689-11.479-6.108-21.746-13.797-30.486c-14.881-16.918-38.069-18.899-54.578-4.632
	c-10.324,8.922-16.027,20.425-18.33,33.741c0.227,0.545,0.208,1.097,0.12,1.712c-0.008-0.181-0.079-0.335-0.238-0.45
	c-0.618,2.127-0.801,4.307-0.798,6.51c0.267,2.732,0.273,5.463-0.002,8.195c-0.028,2.214,0.2,4.396,0.787,6.536
	c0.186-0.128,0.274-0.297,0.225-0.525c0.113,0.16,0.07,0.344,0.064,0.516c-0.015,0.42,0.092,0.859-0.166,1.247
	c2.091,12.505,7.259,23.505,16.56,32.228c15.82,14.836,37.783,14.835,53.222,0.154c9.678-9.204,14.961-20.659,16.937-33.752
	c-0.309-0.633-0.093-1.311-0.164-1.964c-0.009-0.08-0.056-0.153-0.043-0.237c0.106,0.177,0.146,0.399,0.345,0.513
	C167.7,165.712,167.697,159.845,166.633,153.978z M79.849,153.028c0.009,0.187-0.218-0.345,0.051-0.316
	C79.885,152.816,79.868,152.921,79.849,153.028z M152.341,166.746c-0.425,0.771-0.38,1.604-0.322,2.438
	c0.182,0.448,0.284,0.89-0.095,1.297c-1.041,4.325-2.04,8.664-4.102,12.659c-4.15,8.043-9.945,14.23-18.943,16.808
	c-0.865,0.248-1.731,0.491-2.596,0.736c-0.558,0.424-1.152,0.275-1.746,0.107c-1.23,0-2.459,0.001-3.689,0.001
	c-0.72,0.139-1.451,0.415-2.11-0.175c-14.672-3.71-21.521-14.328-24.796-28.094c-0.227-0.956-0.379-1.93-0.566-2.896
	c-0.145-0.2-0.256-0.418-0.331-0.654c-0.068-0.868-0.091-1.74-0.288-2.595c0.16-2.22-0.331-4.467,0.287-6.666
	c0.375-0.778,0.403-1.603,0.324-2.441c-0.183-0.448-0.286-0.889,0.095-1.295c1.011-3.961,1.879-7.966,3.689-11.676
	c4.061-8.327,9.858-14.919,19.047-17.493c9.894-2.771,18.326,0.422,25.273,7.616c6.295,6.52,9.46,14.557,10.49,23.492
	c0.086,0.749,0.257,1.488,0.389,2.232C152.795,162.347,152.809,164.547,152.341,166.746z"></path>
</svg>
