<?xml version="1.0"?>

<svg xmlns="http://www.w3.org/2000/svg" height="243.7" width="617.7" viewBox="0 0 617.7 243.7"><path d="M 584.7,75.89 C 556.1,16.56 502.5,22.28 502.5,22.28 c -35.9,-2.86 -49.2,17.15 -49.2,17.15 -39,10 -50,45.06 -50,45.06 -20.1,49.21 10.4,92.11 10.4,92.11 26.1,43.6 76.7,45.1 76.7,45.1 37.1,0.7 48.1,-17.2 48.1,-17.2 31.2,-7.9 46.9,-37.9 46.9,-37.9 23.6,-46.4 -0.7,-90.71 -0.7,-90.71 z M 451.4,44.43 c 85.9,-30.01 123.3,20.73 123.3,20.73 l -2.9,-0.72 C 517.7,17.99 450.2,49.43 450.2,49.43 c -3.6,-2.14 1.2,-5 1.2,-5 z m -3.1,17.15 C 546.4,22.28 586.1,85.19 586.1,85.19 522.6,25.14 449,68.02 449,68.02 c -4.9,0 -0.7,-6.44 -0.7,-6.44 z M 590.4,106.6 C 542.1,43 450.2,81.59 450.2,81.59 c -3,-0.7 0,-6.4 0,-6.4 115.9,-39.34 140.2,31.41 140.2,31.41 z m -48.3,92.9 C 456.3,229.7 418.5,178.8 418.5,178.8 l 3.1,0.7 c 54.2,46.5 121.7,15 121.7,15 3.7,2.1 -1.2,5 -1.2,5 z m 3.1,-17.2 c -98,39.4 -137.6,-23.5 -137.6,-23.5 63.3,60 136.9,17.1 136.9,17.1 4.9,0 0.8,6.4 0.8,6.4 z m -141.9,-45 c 48.1,63.6 140,25 140,25 3.1,0.8 0,6.5 0,6.5 -116.3,39.3 -140,-31.5 -140,-31.5 z m 187.1,12.2 c 0,0 -13.6,-69.31 -108,-46.4 0,0 9.2,2.1 12.8,1.4 0,0 61.5,-13.61 83.1,27.8 0,0 -10.7,19.3 -34.4,27.9 l -5.4,-4.3 c 0,0 -116.3,42.2 -137.6,-42.1 0,0 26.1,72.1 131.5,36.4 0,0 -1.2,-5.7 -8.6,-4.3 0,0 -110.6,36.4 -119.8,-53.61 0,2.9 9.9,71.51 108.3,47.91 0,0 0,-2.9 -12.8,-2.2 0,0 -63.9,16.5 -84.6,-28.5 0,0 15.2,-19.31 33.4,-27.21 l 6.8,5.7 c 0,0 110.3,-41.42 137.5,38.61 0,0 -29.8,-65.73 -131.5,-32.11 l 7.3,5 c 0,0 89.5,-31.47 119.2,32.81 0,0 4.3,8.6 2.8,17.2 M 363.7,64.44 293,63.73 c 0,0 -33.7,2.14 -33.3,35.06 0,32.81 37.4,32.11 38.8,32.81 l 22.6,-0.7 c 0,0 18.3,0 21.6,13.6 3.3,13.5 -9.7,20.7 -9.7,20.7 l -5.8,1.4 -62.1,-0.7 0,19.3 72.2,0 c 0,0 30.8,-0.7 35.3,-31.4 4.4,-30.8 -26.8,-40.7 -26.8,-40.7 l -13.9,-0.8 -30.8,-0.7 c 0,0 -13,-2.1 -12.5,-14.31 0.8,-12.8 15,-14.3 15,-14.3 l 60.1,0 0,-18.55 M 234,120.2 c 0,0 12.1,-7.9 12.2,-23.61 l 0,-2.8 C 244,65.87 215.5,63.73 215.5,63.73 l -72.7,-0.72 -0.7,122.19 76.9,0.7 c 0,0 29.4,-1.4 32.9,-35 l 0,-2.9 c 0,-15.7 -18.1,-27.8 -18.1,-27.8 z M 167.4,82.99 c 0,0 25,-1.4 38.4,0 13.5,1.5 13.4,14.3 13.4,14.3 -2.9,15.01 -13.5,13.61 -13.5,13.61 l -38.5,0 0,-27.91 z m 40,82.91 -40.5,0 0,-35 40,0 c 0,0 17.8,0.7 16.7,17.9 -0.9,15.7 -16.4,17.1 -16.4,17.1 m -159.4,-43.6 46.83,62.9 34.17,0 L 78.63,123 127.5,63.73 94.73,63.01 47.8,122.3 M 23,63.73 22,184.5 l 26,0 0,-120.77 -25.1,0"></path></svg>