<?xml version="1.0"?>
<!--?xml version="1.0" encoding="UTF-8" standalone="no"?-->
<svg xmlns="http://www.w3.org/2000/svg" width="1766.7" height="562.91" viewBox="0 0 1766.7 562.91">
  <path d="M 138.01,0 A 52.498,52.498 0 0 0 85.518,52.498 52.498,52.498 0 0 0 138.01,105 52.498,52.498 0 0 0 190.51,52.498 52.498,52.498 0 0 0 138.01,0 Z M 391.16,26.709 V 134.67 c 2.9,-0.42 5.86,-0.65 8.88,-0.65 34.4,0 62.5,28.1 62.5,62.5 0,34.4 -28.1,62.5 -62.5,62.5 -3.02,0 -5.98,-0.23 -8.88,-0.64 v 17.21 c 1.11,-0.52 2.33,-0.94 3.67,-1.18 1.65,-0.3 3.22,-0.32 4.69,-0.13 4.43,0.55 8.02,2.92 10.33,4.94 3.09,2.7 5.1,5.43 6.46,7.02 6.72,7.9 10.45,17.27 12.8,26.12 4.14,15.61 7.14,33.3 3.21,50.87 -4.11,18.39 -15.24,33.16 -25.22,45.98 -4.91,6.31 -10.3,12.06 -15.94,17.44 v 52.9 h 94.81 v -165.2 l 55.92,-42.74 162.62,207.94 H 816.36 L 607.14,218.26 800.61,26.709 H 690.05 L 485.97,232.08 V 26.709 Z m 436.12,0 167.4,452.841 h 96.12 L 1257.3,26.709 h -98 l -92.9,290.861 c -3,10.07 -6,20.25 -9,30.53 -2.8,10.07 -5.2,19.17 -7.4,27.32 -2.3,9.64 -4.6,18.85 -6.7,27.64 -2.4,-9 -4.8,-18.43 -7.4,-28.29 -2.4,-8.35 -4.9,-17.57 -7.7,-27.64 -2.8,-10.07 -5.7,-19.92 -8.7,-29.56 L 926.27,26.709 Z m 479.22,0 V 479.55 h 84.2 V 205.08 c 0,-8.35 -0.2,-18.21 -0.6,-29.56 -0.5,-11.36 -0.9,-22.18 -1.3,-32.47 -0.7,-11.99 -1.3,-24.21 -2,-36.63 4.8,16.92 9.2,32.99 13.5,48.21 2,6.42 3.9,13.06 5.8,19.92 1.9,6.86 3.8,13.5 5.5,19.93 1.9,6.42 3.6,12.42 5.1,17.99 1.7,5.58 3.2,10.39 4.5,14.47 l 81.7,252.61 h 67.4 L 1652,226.94 c 1.3,-4.08 2.8,-8.89 4.5,-14.47 1.7,-5.57 3.4,-11.57 5.1,-17.99 2,-6.43 3.9,-13.07 5.8,-19.93 1.9,-6.86 3.8,-13.5 5.5,-19.92 4,-15.22 8.3,-31.29 12.8,-48.21 -0.4,10.71 -0.9,21.74 -1.6,33.1 -0.4,9.64 -0.8,20.25 -1.3,31.82 -0.2,11.57 -0.3,22.81 -0.3,33.74 v 274.47 h 84.2 V 26.709 h -126.3 l -79.7,254.861 c -1.1,3.22 -2.2,6.86 -3.5,10.93 -1.3,4.07 -2.6,8.36 -3.9,12.86 -1.3,4.49 -2.6,9.1 -3.8,13.81 -1.3,4.72 -2.6,9.32 -3.9,13.82 -2.8,10.29 -5.7,21 -8.7,32.14 -3,-11.35 -5.8,-22.28 -8.3,-32.78 -2.4,-9 -4.9,-18.32 -7.4,-27.96 -2.4,-9.64 -4.6,-17.78 -6.8,-24.43 l -81,-253.251 z M 400.09,144 a 52.498,52.498 0 0 0 -52.49,52.5 52.498,52.498 0 0 0 52.49,52.5 52.498,52.498 0 0 0 52.5,-52.5 52.498,52.498 0 0 0 -52.5,-52.5 z m -182.2,98.8 v 0 c -11.47,-0.1 -23.07,2.2 -33.17,7.6 -10.73,5.8 -19.55,15.1 -24.95,26 -5.39,10.9 -7.39,23.2 -7.86,35.4 -0.46,11.9 0.48,23.9 1.16,35.9 0.69,12.4 1.11,24.8 1.24,37.3 0.62,3.9 0.88,7.9 0.78,12 0,2.01 -0.17,4.07 -0.19,6.12 0,0.11 -0.11,0.21 -0.13,0.32 -1.48,3.68 -3.3,7.18 -5.31,10.59 -1.87,-0.26 -3.75,-0.37 -5.63,-0.35 -7.89,0.1 -15.81,2.29 -23.44,4.62 -15.36,4.7 -30.619,9.9 -45.089,16.9 -9.52,4.6 -18.657,10 -27.757,15.4 -7.96,4.7 -15.929,9.5 -23.139,15.3 -7.03,5.6 -13.322,12.2 -18.4824,19.6 -1.695,2.5 -3.2791,5 -4.3891,7.8 -1.11998,2.7 -1.74068,5.7 -1.47068,8.7 0.2194,2.43 1.03468,4.73 2.17378,6.87 0.3367,1.91 1.1051,3.78 2.168,5.37 1.26,2 2.92,3.7 4.76,5.1 3.6804,2.9 8.0174,4.8 12.2174,6.8 6.04,3 11.863,6.4 18.033,9.1 5.84,2.6 12.116,4.5 18.476,4.2 6.22,-0.3 12.124,-2.7 18.104,-4.4 6.375,-1.92 13.062,-3.07 19.663,-2.57 0,0.16 -0.11,0.31 -0.17,0.47 -3.433,9.66 -5.713,19.76 -6.671,29.97 h 23.143 c 0,-4.19 0.25,-8.38 0.66,-12.55 0.4,-4.03 0.97,-8.04 1.69,-12.03 3.7,1.98 7.21,4.26 10.54,6.81 1.06,0.8 2.12,1.6 3.33,2.2 1.2,0.6 2.6,0.9 3.89,0.5 1,-0.2 1.88,-0.9 2.57,-1.6 0.68,-0.8 1.18,-1.7 1.59,-2.7 1.4,-3.2 1.89,-6.7 1.6,-10.2 -0.3,-3.5 -1.36,-6.9 -2.96,-10 -2.9,-5.62 -7.43,-10.14 -12.48,-13.99 1.17,-3.1 2.42,-6.17 3.76,-9.19 4.63,-10.5 10.21,-20.5 16.67,-30 -0.62,-6 -0.1,-12.1 1.67,-17.9 2.85,-9.5 8.68,-17.8 14.45,-25.9 3.33,-4.7 6.73,-9.5 8.25,-15 1.42,-5.2 1.09,-10.7 1.3,-16 0.1,-1.4 0.15,-2.79 0.32,-4.17 2.44,2.05 4.72,4.29 6.81,6.67 15.11,18.53 29.78,22.82 50.32,9.5 7.33,-4.2 13.57,-10.5 21.62,-13.1 1.77,-0.5 3.59,-0.9 5.3,-1.6 0.85,-0.4 1.67,-0.9 2.39,-1.4 0.67,-0.56 1.25,-1.21 1.65,-2.02 0.21,0.41 0.43,0.8 0.62,1.22 1.61,3.4 2.86,6.9 4.31,10.3 3.53,8.4 8.16,16.2 11.95,24.5 5.26,11.4 8.88,23.6 10.71,36 6.88,7.1 12.62,15.4 16.93,24.3 11.47,23.65 12.32,51 9.76,77.35 h 38.28 c 2.96,-16.96 3.04,-34.42 0.79,-51.47 -2.5,-18.95 -7.8,-37.45 -14.88,-55.26 0.98,-0.53 1.95,-1.08 2.91,-1.64 7.46,-4.2 14.65,-9 21.56,-14.1 14.5,-10.8 27.77,-23.2 39.34,-37.1 10.36,-12.4 19.53,-26.3 23.35,-42 3.71,-15.2 2.16,-31.4 -3.11,-46.1 -2.79,-7.8 -6.57,-15.1 -10.76,-22.2 -1.34,-2.3 -2.75,-4.6 -4.76,-6.3 -1,-0.8 -2.16,-1.5 -3.41,-1.9 -0.7,-0.29 -1.43,-0.44 -2.17,-0.47 h -0.75 c -0.33,0 -0.66,0.1 -0.98,0.15 -2.09,0.5 -3.87,2 -4.97,3.8 -1.11,1.8 -1.62,4 -1.8,6.1 -0.37,4.2 0.4,8.4 0.69,12.5 0.51,7.2 -0.47,14.7 -4.04,20.9 -3.69,6.5 -9.8,11.2 -14.92,16.6 -8.89,9.4 -14.87,21 -21.89,31.9 -5.52,8.5 -11.8,16.6 -19.41,23.2 -4.88,4.28 -10.35,8.01 -16.42,10.25 -0.14,-0.28 -0.28,-0.57 -0.41,-0.85 -4.26,-9.3 -8.13,-18.8 -13.17,-27.7 -0.79,-1.39 -1.62,-2.75 -2.47,-4.1 -0.65,-8.49 -1.55,-16.97 -1.98,-25.44 -0.87,-17.1 0.18,-34.4 -4.29,-50.9 -2.18,-8 -5.64,-15.7 -10.11,-22.7 -5.24,-8.2 -11.88,-15.6 -19.77,-21.3 -12.6,-9.1 -28.19,-13.8 -43.74,-14 z m 176.6,46.38 c 0,0.3 -0.57,2.2 -0.47,2.36 -0.14,13.91 6,28.27 0.73,41.77 -0.73,1.32 -1.49,2.55 -2.29,3.67 -8.44,10.78 -14.17,23.3 -20.39,35.46 -9.15,16.1 -11.48,37.8 -29.33,47.3 -12.83,5.1 -28.96,6.5 -41.25,-0.7 12.67,-7.2 27.87,-11.1 37.99,-22.1 10.37,-13.5 18.07,-29 28.51,-42.5 5.99,-11.9 20.34,-17.9 23.11,-31.5 3.19,-11 -0.86,-22.6 3.19,-33.4 0.11,-0.25 0.16,-0.3 0.2,-0.36 z m -150.92,11.14 h 1.76 c 1.73,0.1 3.41,0.5 5.19,1.6 4.94,3.3 7.36,7.1 9.21,11.7 0.51,1.2 0.99,3.3 0.4,4 -2.55,-5.1 -6.18,-9.8 -10.96,-13 -2.46,-1.6 -5.22,-2.8 -8.11,-3.4 0.46,-1 1.63,-0.8 2.51,-0.9 z m -67.18,3.7 h 0.55 0.88 c 2.05,0 4.09,0.5 5.93,1.3 2.1,0.9 4.27,2.3 6.15,3.7 0.76,0.5 1.58,1.1 2.08,1.9 1.56,2.3 2.33,5 2.75,7.7 -1.68,-3.5 -4.16,-6.9 -7.49,-9.6 -1.8,-1.5 -3.81,-2.8 -5.91,-3.7 -1.54,-0.7 -3.23,-1.1 -4.94,-1.3 z m 64.35,6.8 c 2.23,0.54 4.36,1.49 6.29,2.74 4.93,3.2 8.43,8.3 10.36,13.9 1.78,5.1 2.31,10.6 2,16 -0.24,4.2 -1,8.5 -2.79,12.3 -0.94,2.06 -2.19,3.97 -3.71,5.62 -1.46,-0.54 -2.99,-0.85 -4.49,-1.16 -5.99,-1.5 -11.82,-3.6 -17.34,-6.4 -2.74,-1.3 -5.42,-2.8 -8.12,-4.3 -1.28,-0.69 -2.57,-1.36 -3.89,-1.97 -0.57,-1.14 -1.08,-2.33 -1.63,-3.45 -0.68,-1.46 -1.47,-2.82 -2.43,-4.04 -0.83,-4.65 -0.78,-9.39 0.8,-13.8 1.23,-3.42 3.3,-6.46 5.87,-9.01 -0.47,1.63 -0.71,3.35 -0.78,5.07 -0.1,2.5 0.18,5 1.01,7.4 0.84,2.4 2.24,4.6 4.18,6.2 1.99,1.6 4.51,2.6 7.08,2.7 2.58,0.2 5.18,-0.6 7.29,-2 1.69,-1.2 3.05,-2.8 4.02,-4.6 0.97,-1.9 1.54,-3.9 1.81,-5.9 0.47,-3.6 -0.1,-7.3 -1.71,-10.6 -0.94,-1.8 -2.25,-3.4 -3.82,-4.7 z m -5.86,0.9 h 0.7 c 1.93,0.3 3.87,1.6 5.05,3.3 1.31,2 2.66,4.9 1.69,7.1 -0.25,0.5 -1.02,0.8 -1.53,0.6 -1.63,-0.7 -1.31,-3.7 -2.47,-5.2 -0.6,-0.8 -1.45,-1.3 -2.25,-1.8 -0.82,-0.5 -1.97,-0.4 -2.59,-1.2 -0.35,-0.5 -0.74,-1.3 -0.46,-1.9 0.32,-0.7 1.11,-0.9 1.86,-0.9 z m -60.56,2.2 c 0.55,0 1.14,0.3 1.6,0.5 1.58,0.8 2.88,2.5 3.4,4.2 0.58,2 0.89,4.8 -0.56,6.1 -0.37,0.4 -1.13,0.4 -1.51,0 -1.2,-1.1 0,-3.4 -0.62,-4.9 -0.3,-0.8 -0.88,-1.5 -1.42,-2.1 -0.57,-0.7 -1.6,-1 -1.9,-1.9 -0.19,-0.5 -0.25,-1.2 0.15,-1.6 0.24,-0.2 0.54,-0.3 0.86,-0.3 z m 4.56,0.25 c 0.93,0.24 1.83,0.58 2.69,0.99 1.92,1 3.62,2.3 5.11,3.9 3.09,3.1 5.31,7.1 6.69,11.3 1.24,3.76 1.78,7.69 1.95,11.7 -1.27,1.71 -2.41,3.51 -3.6,5.27 -6.65,2.69 -12.67,6.98 -17.31,12.39 -1.59,1.33 -3.14,2.7 -4.65,4.09 -0.24,-0.21 -0.47,-0.43 -0.69,-0.65 -1.81,-1.9 -3.17,-4.1 -4.14,-6.5 -1.93,-4.8 -2.31,-10.1 -2.68,-15.2 -0.41,-5.7 -0.82,-11.6 0.99,-17 0.11,-0.34 0.23,-0.67 0.36,-1 0,2.1 0.3,4.18 1.02,6.16 0.81,2.3 2.16,4.4 3.78,6.1 1.07,1.2 2.3,2.2 3.72,2.9 1.42,0.7 3.06,1 4.59,0.6 1.41,-0.4 2.63,-1.3 3.54,-2.4 0.91,-1.1 1.53,-2.5 1.96,-3.9 1.27,-4.1 1.06,-8.5 -0.21,-12.6 -0.68,-2.21 -1.68,-4.36 -3.12,-6.15 z m -102.854,3.82 a 52.498,52.498 0 0 0 -52.5,52.5 52.498,52.498 0 0 0 52.5,52.5 52.498,52.498 0 0 0 52.484,-52.5 52.498,52.498 0 0 0 -52.484,-52.5 z m 129.204,28.04 v 0 c 3.07,-0.1 6.13,0.33 9.08,1.25 3.01,0.9 5.84,2.3 8.62,3.8 2.7,1.5 5.38,3 8.12,4.3 5.52,2.8 11.35,4.9 17.34,6.4 1.95,0.4 3.93,0.8 5.76,1.7 1.34,0.6 2.62,1.4 3.37,2.7 0.37,0.59 0.59,1.28 0.6,2.07 0.25,0.34 0.49,0.71 0.67,1.11 0.82,1.7 0.77,3.8 0.44,5.7 -0.34,1.9 -0.95,3.8 -1.23,5.7 -0.25,1.8 -0.22,3.7 -1.01,5.3 -0.81,1.7 -2.41,2.9 -4.12,3.7 -1.7,0.8 -3.55,1.3 -5.32,1.9 -8.11,3 -14.27,9.7 -21.62,14.2 -23.21,12.74 -35.16,9.53 -50.32,-10.3 -2.71,-3.5 -5.75,-6.8 -9.48,-9.1 -0.71,-0.5 -1.43,-0.9 -2.1,-1.3 -0.67,-0.5 -1.29,-1.1 -1.72,-1.8 -0.21,-0.34 -0.36,-0.75 -0.47,-1.17 0,-0.1 -0.1,-0.14 -0.1,-0.21 -0.13,-0.3 -0.12,-0.6 -0.12,-1 0,-0.6 0.14,-1.2 0.27,-1.8 0.33,-1.7 0.5,-3.3 1.04,-4.9 0.67,-2 1.9,-3.8 3.24,-5.5 2.35,-2.9 5.14,-5.4 8.22,-7.5 5.07,-5.9 11.76,-10.5 19.15,-13.1 3.75,-1.3 7.72,-2.08 11.68,-2.15 z m 6.29,5.23 c -0.69,0.1 -1.33,0.2 -1.91,0.5 -0.35,0.2 -0.74,0.7 -0.62,1.1 0.37,1.2 2.27,1 3.37,1.6 0.97,0.5 1.77,1.6 2.86,1.6 1.04,0 2.66,-0.4 2.8,-1.4 0.18,-1.4 -1.81,-2.2 -3.09,-2.7 -1.04,-0.4 -2.27,-0.7 -3.41,-0.7 z m -21.37,0.9 c -1.39,0.2 -3.1,2.2 -2.43,3.4 0.21,0.3 0.83,0.8 1.27,0.5 0.65,-0.3 1.21,-1.6 1.91,-2.1 0.48,-0.4 0.37,-1.6 -0.18,-1.8 z m 58.75,18.71 v 0.1 c -0.73,0 -1.47,0.1 -2.17,0.35 -0.92,0.3 -1.76,0.8 -2.51,1.4 -0.74,0.6 -1.43,1.3 -2.13,2 -2.06,2 -4.31,3.8 -6.6,5.5 -5.05,3.7 -10.33,7.3 -16.19,9.6 -3.83,1.5 -7.86,2.5 -11.89,3.3 -5.08,1 -10.24,1.8 -15.41,1.6 -5.17,-0.2 -10.39,-1.4 -14.76,-4.2 -1.98,-1.3 -3.75,-2.8 -5.68,-4.1 -1.87,-1.36 -3.93,-2.42 -6.16,-2.76 0.1,0.3 0.22,0.6 0.43,0.8 0.28,0.3 0.67,0.5 1.05,0.6 0.39,0.1 0.79,0.1 1.18,0.2 1.88,0.5 3.5,1.6 4.94,2.9 1.43,1.3 2.73,2.8 4.23,4 4.06,3.3 9.42,4.7 14.66,4.7 5.23,0.1 10.4,-1 15.51,-2.1 4.01,-0.9 8.01,-1.9 11.87,-3.3 5.92,-2.2 11.43,-5.5 16.2,-9.6 2.16,-1.9 4.18,-4 6.6,-5.5 2.15,-1.3 4.56,-2.2 6.74,-3.5 0.2,-0.1 0.38,-0.2 0.55,-0.4 0.18,-0.1 0.34,-0.3 0.44,-0.5 0.14,-0.32 0.14,-0.63 0.11,-0.95 -0.34,0 -0.67,-0.1 -1.01,-0.1 z m 102.79,3.52 c 0.25,0 1.52,3.15 0.23,1.35 -0.28,-1 -0.31,-1.35 -0.23,-1.35 z m -205.38,44.63 v 0.1 c -5.1,7.86 -10.84,15.4 -15.23,23.65 -5.72,10.76 -9.06,22.57 -12.73,34.26 -6.86,1.62 -13.61,3.72 -20.202,6.2 -9.273,3.55 -18.163,7.95 -26.604,13.1 h -0.42 c -4.65,0.3 -9.511,0 -13.621,-2.2 -4.57,-2.5 -7.679,-6.9 -10.979,-10.9 -1.65,-2 -3.399,-3.9 -5.449,-5.5 -0.02,0 -0.04,0 -0.07,-0.1 2.078,-4.48 5.638,-8.18 9.302,-11.59 8.05,-7.3 17.012,-13.6 26.202,-19.5 12.939,-8.3 26.461,-15.9 40.981,-21 9.32,-3.22 19.01,-5.42 28.82,-6.51 z m -29,61.27 c -1.09,3.39 -2.23,6.75 -3.48,10.07 -1.38,3.64 -2.9,7.23 -4.48,10.79 -6.78,-3.43 -14.062,-5.77 -21.554,-6.14 5.671,-3.1 11.172,-6.51 16.964,-9.39 4.08,-1.98 8.3,-3.69 12.55,-5.33 z"></path>

</svg>
