<?xml version="1.0"?>

<svg xmlns="http://www.w3.org/2000/svg" viewBox="0 0 326.03 173.99" height="173.99" width="326.03">  <path d="m 257.64,29.799 c -15.52,0 -26.25,6.158 -33.51,14.745 -1.23,-2.57 -2.17,-3.7 -3.48,-5.18 -5.94,-6.719 -15.51,-9.859 -28.33,-9.859 -12.54,0 -22.98,3.916 -30.23,10.079 -3.77,-6.12 -12.75,-10.183 -23.58,-10.183 -14.15,0 -29.55,2.01 -38.705,16.743 -0.212,-5.31 -0.699,-8.109 -3.683,-11.274 -3.623,-3.83 -9.488,-4.839 -15.202,-4.839 -10.415,0 -18.247,4.546 -23.884,13.813 -8.176,13.06 -28.006,56.05 -27.553,76.866 0.28,13.45 9.307,23.14 25.453,23.52 12.619,0.3 22.512,-3.08 28.808,-9.42 5.646,6.12 14.266,9.73 24.576,9.73 11.48,0 23.04,-3.45 29.87,-10.98 5.75,7.05 14.79,11.16 26.42,11.11 15.22,-0.1 28.57,-7.28 37.3,-18.34 4.78,13.03 16.92,18.21 30.19,18.21 29.06,0 41.82,-19.98 52.46,-51.576 2.39,-7.13 5.59,-19 6.12,-28.98 0.88,-16.61 -6.15,-34.185 -33.04,-34.185 z m 39.32,45.445 c -1.35,10.78 -8.64,30.766 -12.51,38.746 -10.4,21.42 -24.29,37.88 -51.03,37.88 -14.29,0 -26.05,-4.57 -32.93,-13.32 -10.06,8.82 -22.52,13.44 -35.94,13.44 -10.34,0 -19.47,-2.99 -26.43,-8.51 -7.7,5.42 -18.06,8.44 -29.57,8.44 -9.596,0 -18.234,-2.63 -25,-7.5 -7.478,4.95 -17.28,7.42 -28.791,7.15 -19.148,-0.45 -32.37,-12.6 -32.75,-30.23 C 21.505,97.924 41.235,55.044 50.537,40.194 57.489,28.763 68.115,22.622 81.122,22.622 c 14.124,0 19.248,4.037 21.758,9.168 10.9,-9.263 25.35,-9.79 35.63,-9.79 11.36,0 18.48,3.01 24.54,7.841 8.38,-5.021 17.97,-7.625 29.41,-7.625 14.62,0 25.47,3.398 33.05,10.885 8.83,-7.357 19.9,-10.705 32.28,-10.705 16.38,0 27.15,5.909 33.48,14.707 8.91,12.421 7.33,24.931 5.69,38.141 M 138.52,31.481 c -14.12,0 -28.35,1.905 -36.95,15.753 l -3.547,5.72 -0.285,-6.72 c -0.211,-5.21 -0.695,-7.37 -3.114,-9.94 -2.67,-2.821 -7.146,-4.191 -13.701,-4.191 -9.626,0 -16.859,4.192 -22.125,12.831 -8.108,12.94 -27.682,55.496 -27.246,75.726 0.28,13.12 9.042,21.16 23.438,21.5 11.864,0.27 21.296,-2.77 27.281,-8.81 l 1.531,-1.55 1.467,1.6 c 5.386,5.85 13.572,9.06 23.051,9.06 12.07,0 22.4,-3.76 28.33,-10.3 l 1.62,-1.79 1.53,1.88 c 5.54,6.82 14.13,10.45 24.81,10.35 13.92,-0.1 26.92,-6.47 35.67,-17.56 l 2.29,-2.9 1.29,3.48 c 5.37,14.65 20,16.84 28.24,16.84 27.98,0 40.06,-19.19 50.49,-50.166 2.59,-7.68 5.52,-19.19 6.02,-28.43 0.37,-6.96 -0.57,-16.72 -7.16,-23.66 -5.24,-5.533 -13.25,-8.336 -23.8,-8.336 -13.34,0 -24.09,4.718 -31.94,14.026 l -2.08,2.45 -1.38,-2.9 c -1.12,-2.35 -1.93,-3.32 -3.15,-4.7 -5.37,-6.09 -14.39,-9.169 -26.78,-9.169 -11.35,0 -21.62,3.406 -28.89,9.589 l -1.83,1.56 -1.27,-2.05 c -3.44,-5.587 -12,-9.193 -21.81,-9.193 z m 0.48,6.76 c 7.55,0 16.25,3.223 16.25,10.353 0,9.88 -8.37,13.65 -16.67,14.13 -3.55,0.2 -9,0.4 -12.26,0.17 0,0 -2.77,4.22 -5.71,11.71 15.38,-2.16 21.9,1.33 19.3,10.22 -3.51,12.01 -13.92,12.8 -26.66,10.52 -1,2.7 -2.88,8.326 -4.4,14.306 4.93,-1.23 8.63,-2.1 14.97,-1.94 7.22,0.18 11.84,3.18 11.84,9.15 0,14.48 -16,18.73 -27.1,18.73 -12.2,0 -22.904,-6.94 -22.904,-20.27 0,-15.636 8.47,-39.326 16.414,-55.106 9.77,-19.39 19.75,-21.973 36.93,-21.973 z m 53.75,0.403 c 14.5,0 25.93,5.21 24.25,18.8 -1.22,9.97 -6.21,15.82 -15.27,16.53 -2.54,0.2 -12.91,-0.1 -9.47,-9.88 1.2,-3.43 1.7,-6.12 -3.4,-6.12 -4.17,0 -6.88,2.63 -8.91,5.48 -4.45,6.25 -14.11,31.33 -15.61,41.616 -1.02,7.06 2.02,8.49 5.35,8.49 5.34,0 11.33,-5.65 13.37,-14.966 0,0 -10.17,-0.25 -7.36,-9.27 2.71,-8.75 7.89,-10.64 16.45,-10.99 16.88,-0.69 15.21,11.77 13.86,18.41 -4.38,21.576 -19.74,38.916 -41.47,38.916 -14.87,0 -24.1,-8.24 -24.1,-23.4 0,-10.8 5.36,-27.766 9.61,-37.686 9.04,-21.13 18.53,-35.93 42.7,-35.93 z m 66,0.13 c 28.74,0.34 23.61,25.91 21.37,37.03 -2.55,12.72 -8.3,27.766 -14.54,38.986 -10.18,18.3 -22.54,20.86 -33.33,20.73 -10.78,-0.13 -22.96,-4.11 -23.04,-20.76 -0.1,-11.95 5.08,-28.826 9.47,-39.876 7.62,-20.06 15.42,-36.4 40.07,-36.11 z m -177.661,0.41 c 7.215,0 9.009,3.7 8.901,8.14 -0.281,11.84 -19.428,47.84 -25.707,61.906 15.038,-2.61 18.82,2.83 18.341,7.85 -1.41,15.08 -15.242,18.44 -27.248,18.17 -8.707,-0.21 -16.535,-4.2 -16.754,-14.3 -0.379,-17.69 17.658,-58.596 26.153,-72.146 3.916,-6.45 8.693,-9.62 16.314,-9.62 z m 174.661,19.21 c -2.47,0 -4.63,0.44 -6.56,3.42 -4.35,5.65 -17.06,40.366 -16.83,47.296 0.1,2.48 1.45,4.66 4.52,4.66 3.51,0 5.46,-2.42 7.2,-5.36 3.99,-6.77 15.24,-37.456 15.55,-45.136 0.1,-2.23 -0.28,-4.88 -3.88,-4.88 z M 295.51,28.79 v -2.036 h 1.38 c 1.02,0 1.55,0.354 1.55,1.009 0,0.526 -0.33,1.026 -1.37,1.026 h -1.56 z m 4.98,4.251 -0.87,-1.5 c -0.75,-1.32 -0.96,-1.518 -1.59,-1.751 v -0.03 c 1.26,-0.147 2.01,-0.966 2.01,-2.088 0,-1.181 -0.75,-2.078 -2.35,-2.078 h -3.71 v 7.452 h 1.53 v -3.053 h 0.28 c 0.65,0 0.92,0.07 1.22,0.371 0.3,0.302 0.75,0.931 1.02,1.466 l 0.6,1.216 h 1.86 z m -3.67,-9.539 c 3.2,0 5.81,2.587 5.81,5.788 0,3.182 -2.61,5.787 -5.81,5.787 -3.19,0 -5.76,-2.605 -5.76,-5.787 0,-3.2 2.57,-5.788 5.76,-5.788 z m 0,-1.423 c -3.98,0 -7.19,3.217 -7.19,7.211 0,3.985 3.21,7.185 7.19,7.185 4,0 7.21,-3.2 7.21,-7.185 0,-3.994 -3.22,-7.211 -7.21,-7.211"></path></svg>