<?xml version="1.0"?>

<!-- Generator: Adobe Illustrator 19.1.0, SVG Export Plug-In . SVG Version: 6.00 Build 0)  -->
<svg version="1.1" id="Layer_1" xmlns="http://www.w3.org/2000/svg" xmlns:xlink="http://www.w3.org/1999/xlink" x="0px" y="0px" width="522px" height="200px" viewBox="39 0 522 200" enable-background="new 39 0 522 200" xml:space="preserve">
<g>
	<path d="M332.415,89.731c-9.218,0-15.899,6.517-15.899,15.788c0,8.857,7.081,15.793,16.118,15.793
		c9.217,0,15.904-6.698,15.904-15.793C348.538,96.667,341.452,89.731,332.415,89.731z"></path>
	<path d="M459.419,89.731c-9.212,0-15.899,6.517-15.899,15.788c0,8.857,7.086,15.793,16.129,15.793
		c9.206,0,15.899-6.698,15.899-15.793C475.548,96.667,468.462,89.731,459.419,89.731z"></path>
	<path d="M196.676,88.788c-5.408,0-9.881,2.067-12.693,5.592c-2.565,3.209-4.134,7.689-3.338,13.421l28.814-11.165
		C207.128,91.956,202.621,88.788,196.676,88.788z"></path>
	<path d="M65.313,27.419V173.15h468.268V27.419H65.313z M162.989,133.561h-54.214V60.705h16.72v58.72h37.494V133.561z
		 M198.434,122.264c6.332,0,10.3-1.15,17.243-5.945l10.43,7.487c-5.34,5.772-16.748,10.711-27.914,10.711
		c-19.928,0-33.634-12.065-33.634-28.99c0-16.498,13.677-28.994,31.817-28.994c9.985,0,18.185,3.178,23.724,9.188
		c3.816,4.136,6.285,9.566,7.199,15.655l-42.168,16.334C188.277,120.607,192.737,122.264,198.434,122.264z M293.711,133.561h-16.495
		V101.65c0-7.421-7.064-11.852-13.891-11.852c-8.829,0-13.598,6.106-13.598,11.852v31.911h-16.495V77.477h16.498l-0.003,8.036h0.003
		l-0.003,0.008c4.805-5.992,12.671-8.988,19.588-8.988c14.51,0,24.397,9.36,24.397,22.261v34.767H293.711z M332.415,134.505
		c-18.041,0-32.18-12.541-32.18-28.986c0-16.252,14.234-28.986,32.399-28.986c18.047,0,32.18,12.55,32.18,28.986
		C364.814,121.771,350.58,134.505,332.415,134.505z M387.011,133.544l-24.723-56.067h18.846l14.909,38.207l14.915-38.207h18.851
		l-24.728,56.067H387.011z M459.419,134.505c-18.041,0-32.169-12.541-32.169-28.986c0-16.252,14.234-28.986,32.399-28.986
		c18.041,0,32.169,12.55,32.169,28.986C491.818,121.771,477.59,134.505,459.419,134.505z M498.398,126.908h-2.671v6.653h-1.653
		v-6.653h-2.666v-1.419h6.99V126.908z M508.954,133.561h-1.603v-5.736l-2.66,3.878h-0.174l-2.666-3.878v5.736h-1.603v-8.072h1.766
		l2.615,3.824l2.615-3.824h1.71L508.954,133.561L508.954,133.561z"></path>
</g>
</svg>
