<?xml version="1.0"?>

    <svg xmlns="http://www.w3.org/2000/svg" width="512" height="256" viewBox="0 0 400 80">
        <path d="m 52.5,73.2 c 15.7,0 29.6,-5.5 38.2,-14 L 83,59.3 c -7.4,6.2 -18.2,10 -30.4,10 -22.7,0 -40.4,-13.5 -40.4,-30.2 0,-19.3 17.7,-30.2 40.4,-30.2 1.5,0 2.6,0.5 1.8,1.9 -4.7,5.7 -18.2,23.9 -20.7,27.9 -4.8,7.8 -4.6,17.4 7.2,18.1 l 49.8,0 c 2.6,0 3.3,-1.2 4.1,-2.4 3.4,-4.5 5,-9.8 5,-15.3 C 99.8,24.7 89.8,14 74.9,8.7 l -2.3,3.4 c 12.4,4.5 20.5,13.7 20.5,27 0,2.3 -0.3,4.5 -1,6.6 -0.5,1.9 -1.6,3.4 -3.6,3.4 l -39.8,0 c -5.1,0 -3.2,-5.2 -1.3,-7.7 C 50.2,36.5 65.2,16 68.7,12.2 69.8,10.8 72.3,7.9 68.7,6.8 63.7,5.7 58.1,5 52.5,5 26.2,5 5,18.5 5,39.1 5,59.9 26.2,73.2 52.5,73.2 m 322.4,-36 -28.3,0 c 0.3,-3.6 2.9,-7.1 7.4,-7.1 l 33.4,0 0,-6.8 -34.9,0 c -13.9,0 -19.7,10.5 -19.7,20.7 l 39,0 c 1.3,0 4.4,0.3 4.4,3.5 0,3.2 -2.7,3.5 -7.4,3.5 l -40.6,0 0,-27.7 -11.9,0 0,27.7 -22.8,0 c -7,0 -7.7,-5 -7.7,-7.7 l 0,-20 -21.7,0 -17.7,11.8 -16.1,-11.8 -46.6,0 c -13.9,0 -22.3,9.7 -23.5,18.1 l 9.6,0 c -3.8,2.5 -6.5,6.1 -8,9.6 l -27.1,0 c -6.9,0 -7.6,-5 -7.6,-7.7 l 0,-20 -12,0 0,19 c 0,13 9.1,15.6 13.6,15.6 l 95.6,0 17.9,-11.9 16.2,11.9 18.8,0 -25.1,-18.5 20.7,-13.8 0,18.3 c 0,11.7 11.5,14 14.7,14 l 87.3,0 c 4.2,0 16.2,-0.6 16.2,-10 0,-9.5 -8.8,-10.7 -16.1,-10.7 M 222.3,51 177.4,51 c 0.3,-3.5 4.2,-7 8.7,-7 l 26.6,0 0,-6.8 -36.3,0 c 0.3,-3.6 4.2,-7.1 8.7,-7.1 l 30.4,0 0,-4 21,15.6 -14.2,9.3 z"></path>
    </svg>