<?xml version="1.0"?>

<svg xmlns="http://www.w3.org/2000/svg" height="150" width="470" viewBox="0 0 470 150">
 <path d="m 33.97,37.52 a 1.918,1.918 0 0 0 -1.9,2 l 0,73.98 a 1.918,1.918 0 0 0 1.9,2 l 60.66,0 a 1.918,1.918 0 0 0 1.9,-2 l 0,-47.98 a 1.918,1.918 0 0 0 -0.6,-1 l -26.16,-27 a 1.918,1.918 0 0 0 -1.4,0 l -34.4,0 z m 1.9,4 31.7,0 25.06,25 0,44.98 -56.76,0 0,-69.98 z m 42.6,-4 c -0.7,0 -1.5,0 -1.8,1 -0.3,1 -0.1,1 0.4,2 l 16.16,16 c 0.6,1 1.4,1 2.1,1 0.7,-1 1.2,-1 1.2,-2 l 0,-16 c 0,-1 -0.9,-2 -1.9,-2 l -16.16,0 z m 350.43,65.98 0,-2 -3,0 0,13 3,0 0,-7 c 0,-3 1,-5 4,-5 2,0 2,2 2,4 l 0,8 3,0 0,-9 c 0,-3 -2,-5 -5,-5 -2,0 -3,1 -4,3 l 0,0 m -12,-3 c -4,0 -7,3 -7,8 0,4 3,7 7,7 4,0 6,-3 6,-7 0,-5 -2,-8 -6,-8 m 0,13 c -3,0 -4,-3 -4,-5 0,-3 1,-6 4,-6 3,0 4,3 4,6 0,2 -1,5 -4,5 m -12,1 2,0 0,-13 -2,0 0,13 m 1,-15.01 c 1,0 1,-1 1,-2 0,-1 0,-1 -1,-1 -1,0 -1,0 -1,1 0,1 0,2 1,2 m -4,2.01 -4,0 0,-3.01 -2,0 0,3.01 -2,0 0,1 2,0 0,9 c 0,3 1,4 3,4 2,0 2,0 3,-1 l 0,-1 c -1,0 -1,0 -2,0 -1,0 -2,-1 -2,-3 l 0,-8 4,0 0,-1 m -16,-1 c -1,0 -2,1 -4,1 l 0,2 c 2,-1 3,-1 4,-1 2,0 3,1 3,3 l 0,1 c -1,0 -1,0 -2,0 -4,0 -6,1 -6,4 0,3 2,5 4,5 2,0 3,-1 4,-3 l 0,0 0,2 2,0 0,-9 c 0,-3 -2,-5 -5,-5 m 3,9 c 0,2 -1,4 -3,4 -2,0 -3,-1 -3,-3 0,-2 1,-3 4,-3 1,0 1,0 2,0 l 0,2 m -14,-6 c -1,-2 -2,-3 -4,-3 -4,0 -6,3 -6,8 0,4 2,7 6,7 2,0 3,-1 4,-3 l 0,0 0,2 3,0 0,-20.01 -3,0 0,9.01 0,0 m 0,5 c 0,3 -1,5 -4,5 -2,0 -4,-2 -4,-5 0,-4 2,-6 4,-6 2,0 4,2 4,5 l 0,1 m -22,-5 0,-2 -2,0 0,13 2,0 0,-7 c 0,-3 2,-5 4,-5 2,0 2,2 2,4 l 0,8 3,0 0,-9 c 0,-3 -2,-5 -5,-5 -2,0 -3,1 -4,3 l 0,0 m -9,9 0,2 3,0 0,-13 -3,0 0,7 c 0,3 -1,5 -3,5 -3,0 -3,-1 -3,-4 l 0,-8 -2,0 0,9 c 0,3 1,5 4,5 2,0 3,-1 4,-3 l 0,0 m -18,-12 c -4,0 -6.4,3 -6.4,8 0,4 2.4,7 6.4,7 4,0 6,-3 6,-7 0,-5 -2,-8 -6,-8 m 0,13 c -2.7,0 -4,-3 -4,-5 0,-3 1.3,-6 4,-6 2.8,0 4,3 4,6 0,2 -1.2,5 -4,5 m -15.9,1 0,-8 6.6,0 0,-2 -6.6,0 0,-7.01 7.6,0 0,-2 -9.9,0 0,19.01 2.3,0 m -11.9,-13 -3.2,0 0,-3.01 -2.3,0 0,3.01 -2.2,0 0,1 2.2,0 0,9 c 0,3 1.3,4 3.4,4 1.1,0 1.9,0 2.5,-1 l -0.3,-1 c -0.4,0 -0.9,0 -1.5,0 -1.3,0 -1.8,-1 -1.8,-3 l 0,-8 3.2,0 0,-1 m -19.1,2 0,-2 -2.3,0 0,13 2.3,0 0,-7 c 0,-3 1.7,-5 3.8,-5 2.1,0 2.6,2 2.6,4 l 0,8 2.3,0 0,-9 c 0,-3 -1.4,-5 -4.3,-5 -1.9,0 -3.4,1 -4.3,3 l -0.1,0 m -5.6,5 c 0,0 0.1,-1 0.1,-1 0,-4 -1.8,-7 -5.3,-7 -3.7,0 -6.4,4 -6.4,8 0,4 2.7,7 6.4,7 1.7,0 2.9,-1 4.2,-1 l -0.2,-2 c -1,1 -2.5,1 -3.6,1 -2.7,0 -4.4,-2 -4.5,-5 l 9.3,0 m -5.4,-6 c 2.1,0 3.2,2 3.2,4 l -7,0 c 0.3,-2 1.6,-4 3.8,-4 m -11.6,4 0,8 2.3,0 0,-9 c 0,-3 -1.3,-5 -4,-5 -1.9,0 -3.4,2 -4.3,3 l 0,0 c -0.6,-1 -1.7,-3 -3.8,-3 -1.9,0 -3.1,1 -4,3 l -0.1,0 -0.1,-2 -2.2,0 0,13 2.3,0 0,-7 c 0,-3 1.3,-5 3.4,-5 1.7,0 2.4,2 2.4,4 l 0,8 2.3,0 0,-7 c 0,-3 1.3,-5 3.4,-5 1.7,0 2.4,2 2.4,4 m -22.7,6 0.1,2 2.2,0 0,-13 -2.3,0 0,7 c 0,3 -1.7,5 -3.7,5 -2.2,0 -2.7,-1 -2.7,-4 l 0,-8 -2.3,0 0,9 c 0,3 1.5,5 4.3,5 2,0 3.4,-1 4.3,-3 l 0.1,0 m -19.9,-5 c 0,-3 2,-5 4.6,-5 1.4,0 2.6,1 3.6,1 l 0.2,-2 c -0.8,0 -2.1,-1 -3.6,-1 -4.1,0 -7.2,3 -7.2,8 0,4 2.8,7 6.5,7 1.6,0 2.8,0 4.2,-1 l -0.2,-2 c -1.2,1 -2.4,1 -3.6,1 -2.7,0 -4.5,-2 -4.5,-6 m -11.1,-7 c -4,0 -6.4,3 -6.4,8 0,4 2.4,7 6.4,7 4,0 6.4,-3 6.4,-7 0,-5 -2.4,-8 -6.4,-8 m 0,13 c -2.8,0 -4,-3 -4,-5 0,-3 1.2,-6 4,-6 2.8,0 4,3 4,6 0,2 -1.2,5 -4,5 m -24.3,-18.01 0,19.01 c 1.3,0 3.3,1 4.8,1 5.6,0 10.9,-4 10.9,-11 0,-6.01 -4.1,-9.01 -10.9,-9.01 -1.5,0 -3.3,0 -4.8,0 m 2.3,2 c 0.8,0 1.7,0 2.8,0 5.2,0 8.1,3.01 8.1,7.01 0,6 -3.7,9 -8.2,9 -0.8,0 -1.8,0 -2.7,0 l 0,-16.01 m -11.9,11.01 c 0,0 0.1,-1 0.1,-1 0,-4 -1.8,-7 -5.3,-7 -3.7,0 -6.4,4 -6.4,8 0,4 2.7,7 6.4,7 1.7,0 2.9,-1 4.2,-1 l -0.2,-2 c -1,1 -2.5,1 -3.6,1 -2.7,0 -4.4,-2 -4.5,-5 l 9.3,0 m -5.4,-6 c 2.1,0 3.2,2 3.2,4 l -7,0 c 0.3,-2 1.6,-4 3.8,-4 m -18,1 0,-9.01 -2.3,0 0,20.01 2.3,0 0,-7 c 0,-3 1.7,-5 3.7,-5 2.2,0 2.7,2 2.7,4 l 0,8 2.3,0 0,-9 c 0,-3 -1.5,-5 -4.3,-5 -2,0 -3.4,1 -4.4,3 l 0,0 m -4.5,-8.01 -13.5,0 0,2 5.6,0 0,17.01 2.3,0 0,-17.01 5.6,0 0,-2 m 296,-25.97 c 0,-2 1,-3 1,-4 0,-8 -5,-15 -13,-15 -9,0 -16,8 -16,18 0,11 7,16 16,16 4,0 7,0 10,-2 l -1,-4 c -2,1 -6,2 -9,2 -6,0 -10,-4 -10,-11 l 22,0 m -13,-14 c 5,0 8,4 8,9 l -17,0 c 1,-6 4,-9 9,-9 m -39,12 c 0,-8 5,-12 11,-12 3,0 6,0 9,2 l 0,-5 c -2,-1 -5,-2 -8,-2 -11,0 -18,6 -18,18 0,11 7,16 16,16 4,0 7,0 10,-2 l -1,-4 c -2,1 -5,2 -8,2 -7,0 -11,-4 -11,-13 m -18,17 6,0 0,-33 -6,0 0,33 m 3,-38 c 2,0 4,-1 4,-3 0,-2 -2,-4 -4,-4 -2,0 -3,2 -3,4 0,2 1,3 3,3 m -23,3 0,2 -6,0 0,4 6,0 0,29 5,0 0,-29 9,0 0,-4 -9,0 0,-3 c 0,-6 3,-9 7,-9 2,0 4,0 5,0 l 1,-4 c -2,0 -4,-1 -6,-1 -8,0 -12,5 -12,15 m -19.1,0 0,2 -5.4,0 0,4 5.4,0 0,29 6.1,0 0,-29 8,0 0,-4 -8,0 0,-3 c 0,-6 2,-9 7,-9 2,0 3,0 4,0 l 1,-4 c -1,0 -4,-1 -6,-1 -8,0 -12.1,5 -12.1,15 m -30.8,-12 c -12.1,0 -22.1,9 -22.1,24 0,14 10,23 22.1,23 12.2,0 22.1,-9 22.1,-23 0,-15 -9.9,-24 -22.1,-24 m 0,5 c 9.1,0 15.9,6 15.9,19 0,12 -6.8,19 -15.9,19 -9,0 -15.9,-7 -15.9,-19 0,-13 6.9,-19 15.9,-19 m -27.4,23 c 0,-8 -5,-15 -13.6,-15 -10.4,0 -17.1,7 -17.1,18 0,11 6.9,16 17.1,16 4.8,0 8.1,0 11.3,-2 l -0.9,-7 c -3,2 -6,2 -9.3,2 -5.4,0 -8.9,-2 -9.3,-7 l 21.4,0 c 0.3,-1 0.4,-3 0.4,-5 m -14.6,-8 c 3.9,0 5.8,3 5.9,7 l -12.7,0 c 0.6,-4 3.3,-7 6.8,-7 m -18.7,-7 c -4.3,0 -8.4,3 -10.3,7 l -0.1,0 -0.2,-6 -8.8,0 0,33 9,0 0,-13 c 0,-6 1.2,-9 3.3,-10 1.8,-2 4,-2 6.9,-2 l 0.2,-9 m -49.1,5 -0.1,0 0,-20 -9,0 0,49 8.8,0 0.2,-4 0.1,0 c 2.9,3 5.7,4 10.3,4 8.8,0 14.6,-8 14.6,-17 0,-10 -5.2,-17 -14.2,-17 -4.7,0 -7.6,1 -10.7,5 m -0.1,11 c 0,-5 2.6,-9 7.4,-9 5.4,0 8.1,4 8.1,10 0,6 -2.6,10 -8,10 -4.6,0 -7.5,-3 -7.5,-9 l 0,-2 m -24.6,18 9,0 0,-33 -9,0 0,33 m 4.5,-36 c 2.8,0 5.2,-2 5.2,-5 0,-3 -2.4,-6 -5.2,-6 -2.9,0 -5.2,3 -5.2,6 0,3 2.3,5 5.2,5 m -39.6,-10 0,46 29.6,0 0,-7 -20.6,0 0,-39 -9,0"></path>
</svg>
