<?xml version="1.0" encoding="UTF-8" standalone="no"?>
<svg
   xmlns:dc="http://purl.org/dc/elements/1.1/"
   xmlns:cc="http://creativecommons.org/ns#"
   xmlns:rdf="http://www.w3.org/1999/02/22-rdf-syntax-ns#"
   xmlns:svg="http://www.w3.org/2000/svg"
   xmlns="http://www.w3.org/2000/svg"
   viewBox="0 0 291 79.46"
   version="1.1"
   id="svg3070"
   height="79.46"
   width="291">
  <defs
     id="defs3072" />
  <path
     d="m 189.45,16.168 0,16.82 -0.15,0 c -1.61,-2.353 -4.97,-3.928 -9.44,-3.928 -8.57,0 -16.1,6.854 -16.02,18.569 0,10.85 6.8,17.918 15.29,17.918 4.62,0 9,-2.003 11.2,-5.853 l 0.22,0 0.43,5.066 9.89,0 c -0.15,-2.353 -0.29,-6.427 -0.29,-10.423 l 0,-38.169 -11.13,0 z m 0,33.104 c 0,0.856 -0.1,1.711 -0.22,2.421 -0.66,3.072 -3.3,5.211 -6.51,5.211 -4.61,0 -7.62,-3.714 -7.62,-9.566 0,-5.493 2.56,-9.917 7.69,-9.917 3.44,0 5.86,2.353 6.51,5.279 0.15,0.642 0.15,1.361 0.15,2.003 l 0,4.569 z m -27.82,1.527 c 0.14,-0.856 0.36,-2.509 0.36,-4.375 0,-8.653 -4.4,-17.432 -15.96,-17.432 -12.36,0 -18.08,9.78 -18.08,18.657 0,10.976 6.95,17.83 19.11,17.83 4.83,0 9.29,-0.719 12.96,-2.217 l -1.47,-7.35 c -3.01,1.002 -6.08,1.498 -9.88,1.498 -5.2,0 -9.73,-2.139 -10.1,-6.679 l 23.06,0.1 z M 138.5,43.274 c 0.28,-2.859 2.19,-7.068 6.95,-7.068 5.05,0 6.22,4.501 6.22,7.068 l -13.17,0 z m -31.8,-27.106 -11.133,0 0,48.592 11.133,0 0,-10.85 2.78,-3.5 8.7,14.35 13.69,0 -14.63,-20.777 12.8,-14.136 -13.4,0 c 0,0 -9.14,12.649 -9.94,14.146 l 0,-27.825 z m -49.661,48.592 11.122,0 0,-18.686 c 0,-1.002 0.1,-2.003 0.369,-2.723 0.798,-1.993 2.635,-4.063 5.707,-4.063 4.035,0 5.639,3.072 5.639,7.563 l 0,17.909 11.122,0 0,-19.192 c 0,-10.276 -5.493,-15.069 -12.814,-15.069 -5.998,0 -8.633,3.364 -10.091,5.648 l 0.1,0 0,-4.861 -11.132,0 c 0.146,3.141 0,33.474 0,33.474 z m -5.172,0 0,-33.474 -11.122,0 0,33.474 11.122,0 z M 46.306,26.717 c 3.879,0 6.299,-2.567 6.299,-5.785 -0.1,-3.276 -2.42,-5.775 -6.222,-5.775 -3.811,0 -6.3,2.499 -6.3,5.775 0,3.218 2.421,5.785 6.155,5.785 l 0.1,0 z M 5.57,64.76 l 30.741,0 0,-10.092 -19.619,0 0,-38.5 -11.122,0 0,48.592 z M 217.21,2.6645 c -3,0 -5.44,2.3819 -5.44,5.318 l 0,63.5045 c 0,2.936 2.44,5.309 5.44,5.309 l 62.77,0 c 3.01,0 5.45,-2.373 5.45,-5.309 l 0,-63.5045 c 0,-2.9361 -2.44,-5.318 -5.45,-5.318 l -62.77,0 z M 228.6,15.109 c 3.81,0 6.13,2.508 6.23,5.784 0,3.218 -2.42,5.785 -6.29,5.785 l -0.1,0 c -3.73,0 -6.14,-2.567 -6.14,-5.785 0,-3.276 2.48,-5.784 6.29,-5.784 z m 32.8,15.351 c 7.32,0 12.81,4.783 12.81,15.069 l 0,19.192 -11.13,0 0,-17.908 c 0,-4.502 -1.6,-7.564 -5.63,-7.564 -3.07,0 -4.91,2.071 -5.71,4.064 -0.27,0.719 -0.37,1.72 -0.37,2.712 l 0,18.696 -11.09,0 c 0,0 0.15,-30.333 0,-33.474 l 11.12,0 0,4.716 c 1.48,-2.285 4.12,-5.503 10,-5.503 z m -38.43,0.787 11.12,0 0,33.474 -11.12,0 0,-33.474 z"
     id="path26" />
  <metadata
     id="metadata5388">
    <rdf:RDF>
      <cc:Work
         rdf:about="">
        <dc:title></dc:title>
      </cc:Work>
    </rdf:RDF>
  </metadata>
</svg>
