<?xml version="1.0"?>

<svg xmlns="http://www.w3.org/2000/svg" viewBox="0 0 521.2 157.4" width="521.2" height="157.4"> &gt;<path d="m 229.5,44 -26.5,0 0,-19.5 26.5,0 0,19.5 z m -118.4,83.1 -5.1,-6 3.6,0 3.4,4.5 3.5,-4.5 3.2,0 -5,6 5.5,6.6 -3.6,0 -3.8,-5 -3.9,5 -3.4,0 5.6,-6.6 z m -14.53,6.6 -2.8,0 0,-2 0,0 c -0.9,1.4 -3,2.2 -5.2,2.2 -4,0 -5.9,-2 -5.9,-5.3 l 0,-7.5 2.9,0 0,6.5 c 0,2.9 0.8,4.3 3.4,4.5 3.3,0 4.7,-2.1 4.7,-5.2 l 0,-5.8 2.9,0 0,12.6 z m -38.71,-12.6 2.81,0 0,2 0.1,0 c 0.86,-1.4 2.96,-2.3 5.1,-2.3 4.1,0 5.9,2.1 5.9,5.4 l 0,7.5 -2.9,0 0,-6.5 c 0,-2.9 -0.8,-4.4 -3.3,-4.5 -3.29,0 -4.77,2.1 -4.77,5.2 l 0,5.8 -2.9,0 0,-12.6 z m -11.14,-2.8 -3.25,0 0,-2.6 3.25,0 0,2.6 z m -3.09,2.8 2.9,0 0,12.6 -2.9,0 0,-12.6 z m -21.52,-4.6 3.06,0 0,15 8.98,0 0,2.2 -12.04,0 0,-17.2 z m 92.59,-24.4 3.1,0 0,17.2 -3.1,0 0,-17.2 z m -17.73,0 12.13,0 0,2.2 -9,0 0,5 8.2,0 0,2.2 -8.2,0 0,5.6 9,0 0,2.2 -12.13,0 0,-17.2 z m -21.2,0 3.1,0 0,7.6 9.1,-7.6 4.1,0 -10.1,8.1 10.9,9.1 -4.5,0 -9.5,-8.4 0,8.4 -3.1,0 0,-17.2 z m -21.25,0 3.06,0 0,7.6 9.19,-7.6 4.1,0 -10.12,8.1 10.92,9.1 -4.5,0 -9.59,-8.4 0,8.4 -3.06,0 0,-17.2 z m -9.44,0 3.06,0 0,17.2 -3.06,0 0,-17.2 z m -22.97,0 4.17,0 9.48,13.8 0.1,0 0,-13.8 3.06,0 0,17.2 -3.93,0 -9.73,-14.1 -0.1,0 0,14.1 -3.06,0 0,-17.2 z M 203,56.7 l 26.5,0 0,77 -26.5,0 0,-77 z M 86.47,59.4 c 0.7,3.1 1.1,6.2 1.8,14.1 l -4.9,1.6 c 0,-5 -0.4,-9.4 -1.2,-14.4 l 4.3,-1.3 z m -13.5,1.5 c -0.3,8.6 -0.7,13.5 -2,20 l -5.3,-2.5 c 1.4,-4.9 2.1,-10.9 2.3,-18.6 l 5,1.1 z m 23.4,-29.1 c 1.4,3 3.2,5.3 5.63,7.6 2.6,-2.6 4.2,-4.7 5.9,-7.6 l -11.53,0 z M 116.6,29 c -5.5,9.4 -5.6,9.5 -9.6,14.2 3.6,2.3 7.8,3.9 12.3,4.9 -1.2,2.3 -1.9,4.2 -2.7,7.2 -5.6,-1.9 -10.8,-4.5 -14.4,-7.5 -3.63,2.8 -6.63,4.6 -10.83,6.6 -0.8,-2.1 -2,-4.2 -3.7,-6.2 3.3,-1.1 6.8,-2.9 9.7,-4.9 -3,-3.3 -5.6,-7.4 -7.2,-11.5 -1.4,0.1 -2.3,0.1 -3.1,0.3 l 0,-7.1 c 1.3,0.2 3.3,0.3 6.3,0.3 l 15.03,0 c 2.2,0 3.4,-0.1 4.5,-0.3 l 3.7,4 z m -6.3,30.7 c 2.5,0 4.1,-0.1 5.6,-0.4 l 0,7.1 c -1.8,-0.2 -3.4,-0.3 -5.6,-0.3 l -5.2,0 0,9.2 7.1,0 c 3,0 4.7,-0.1 6.2,-0.4 l 0,7.2 c -1.9,-0.3 -3.7,-0.4 -6.3,-0.4 l -18.93,0 c -2.6,0 -4.5,0.1 -6.4,0.4 l 0,-7.2 c 1.6,0.3 3,0.4 5.6,0.4 l 6.7,0 0,-9.2 -3.9,0 c -2.1,0 -3.9,0.1 -5.7,0.3 l 0,-7 c 1.5,0.3 2.9,0.3 5.7,0.3 l 3.9,0 0,-1.3 c 0,-3.3 -0.1,-5 -0.3,-6.4 l 6.63,0 c -0.2,1.7 -0.3,3.3 -0.3,6.4 l 0,1.3 5.2,0 z M 65.57,50.6 c 0.9,0.2 1.6,0.2 2.9,0.2 0.8,0 1.2,0 2,0 0.8,-1.2 1.7,-2.5 2.8,-4.3 -2.1,-3.4 -5.5,-7.9 -7.85,-10.3 l 2.95,-5.6 2.3,2.6 c 1.8,-3.5 4,-9 4.4,-11.2 l 5.8,2.8 c -0.5,0.9 -0.5,1 -2.1,4.5 -1.4,3.1 -3,6.2 -4.4,8.6 0.4,0.5 0.7,1 1.1,1.5 l 1,1.5 c 3.4,-6 4.5,-8.5 5.5,-11.5 l 5.1,3.5 c -0.3,0.4 -0.4,0.6 -0.7,1.2 -1,1.6 -1.9,3.3 -2.7,4.9 -2.4,4.1 -5.5,9.2 -7.1,11.6 2.6,-0.2 4.6,-0.4 6.2,-0.6 -0.6,-1.8 -0.9,-2.7 -1.8,-5.3 l 3.8,-2.2 c 2.2,5.6 3.5,9.2 4.6,13.8 l -4.4,2.6 c -0.3,-1.8 -0.4,-2.4 -0.7,-3.3 -1.7,0.3 -2.6,0.4 -3.8,0.5 l 0,21 c 0,3.3 0,4.9 0.3,7 l -6.3,0 c 0.3,-2.1 0.3,-3.8 0.3,-7.1 l 0,-20.3 -2.2,0.2 c -3.4,0.2 -5.5,0.5 -6.3,0.6 l -0.7,-6.9 z m -36.71,21.7 26.79,0 0,-17 -26.79,0 0,17 z m 0,-23.9 26.79,0 0,-15.4 -26.79,0 0,15.4 z M 22.35,32.7 c 0,-2.6 -0.12,-4.9 -0.29,-7.1 1.84,0.3 3.74,0.4 6.39,0.4 l 27.89,0 c 2.76,0 4.49,-0.1 6.22,-0.4 -0.23,2.6 -0.29,4.5 -0.29,6.8 l 0,42.9 c 0,3.4 0.12,5.6 0.35,8 l -6.97,0 0,-4 -26.79,0 0,4 -6.86,0 c 0.23,-2.3 0.35,-5 0.35,-8 l 0,-42.6 z m 415.25,61.8 -24.1,-37.8 31.5,0 11.4,23 12,-23 29.1,0 -24.1,37.5 25.8,39.5 -32.1,0 -12.9,-23.9 -12.8,23.9 -30,0 26.2,-39.2 z m -28.5,39.2 -24.2,0 0,-14.3 -0.3,0 c -5.3,11.1 -16,16 -28.1,16 -21,0 -29.4,-14.8 -29.4,-30.7 l 0,-48 26.5,0 0,37.2 c 0,14.5 5.1,19.3 12.4,19.3 10.9,0 16.6,-7.5 16.6,-24 l 0,-32.5 26.5,0 0,77 z m -170.3,-77 24.2,0 0,14.2 0.3,0 c 5.3,-11.1 16,-16 28.1,-16 21,0 29.4,14.8 29.4,30.8 l 0,48 -26.5,0 0,-37.2 c 0,-14.5 -5.1,-19.4 -12.4,-19.4 -10.9,0 -16.6,7.6 -16.6,24.1 l 0,32.5 -26.5,0 0,-77 z m -112.6,-32.1 27.4,0 0,88.7 42.6,0 0,20.4 -70,0 0,-109.1 z"></path></svg>