<?xml version="1.0"?>
 <svg xmlns="http://www.w3.org/2000/svg" viewBox="0 0 584 228" height="228" width="584"> <path d="m 517.4,79.81 12,0 0,32.69 2.5,0 13,-15.38 15.3,0 -17.2,19.98 17.2,25.8 -14.3,0 -14,-21.2 -2.5,0 0,21.2 -12,0 0,-63.09 z m -29.7,53.89 c 5,0 10.5,-3.6 10.5,-3.6 l 0,-8.3 -11.1,0.8 c -3.2,0.3 -3.7,2.7 -3.7,4.7 l 0,2.2 c 0,3.8 2,4.2 4.3,4.2 m -16.4,-6.8 c 0,-6.7 3.6,-12.6 13.4,-12.6 0,0 13.5,0.1 13.5,0 0,0 0,-2.8 0,-2.9 0,-4.9 -2.3,-5.6 -6.2,-5.6 -3.9,0 -15.4,0.7 -19.2,1 l 0,-7.5 c 6.1,-2.32 12.4,-3 20.9,-3.04 9.8,0 16.5,3.34 16.5,14.64 l 0,32 -9.5,0 -2.5,-5.1 c -0.5,1 -7,5.7 -14,5.6 -8.7,-0.3 -12.9,-6.3 -12.9,-12.2 l 0,-4.3 z m -30.7,5.2 c 10.1,0 13.2,-3.3 13.2,-20.3 0,-19.68 -3.6,-21.31 -13.2,-21.31 -9.3,0 -13.3,1.21 -13.3,21.31 0,17.2 2.5,20.3 13.3,20.3 m 0,-52.72 c 14.9,0 25.3,2.84 25.3,32.42 0,27.8 -9.8,31.4 -25.3,31.4 -15.5,0 -25.4,-2.8 -25.4,-31.4 0,-29.58 10.9,-32.42 25.4,-32.42 m -48.1,36.82 c 2.5,0 3.8,-1.2 3.8,-3.4 0,-5.7 -0.8,-6.8 -6.6,-6.8 -6.4,0 -8.8,0.4 -8.7,10.2 l 11.5,0 z M 389,96.77 c 13.2,0 19.3,1.53 19.3,16.63 0,8.2 -4.4,11.5 -12.7,11.5 l -14.6,0 c 0,8.3 3.2,8.7 9.7,8.7 7,0 10.3,0.1 16.8,-0.9 l 0,8.2 c -6.5,2.4 -16.3,2.4 -23.4,2.4 -11.7,0 -15.1,-6.7 -15.1,-23.5 0,-19.7 5.5,-23.03 20,-23.03 m -53.8,0.35 10,31.58 10.3,-31.58 12.9,0 -16.6,45.78 -13.5,0 -16,-45.78 12.9,0 z m -30,0 12,0 0,45.78 -12,0 0,-45.78 z m 0,-15.16 c 0,-1.29 0.7,-2.15 2,-2.15 l 8.1,0 c 1.3,0 1.9,0.95 1.9,2.15 l 0,7.93 c 0,1.29 -0.7,1.98 -1.9,1.98 l -8.1,0 c -1.2,0 -2,-0.78 -2,-1.98 l 0,-7.93 z m -44.9,-2.15 12,0 0,47.49 c 0,4.5 2.9,4.4 5.4,4.4 l 21.6,0 0,11.2 -25.9,0 c -6.9,0 -13.1,-2.6 -13.1,-12.3 l 0,-50.79 z m -145,119.79 c 0.1,0 0.1,0 0.1,0 0,0 0,0 -0.1,0 m 4.5,-181.61 c -53.03,0 -96.01,42.99 -96.01,96.01 0,53 42.98,96 96.01,96 53,0 96,-43 96,-96 0,-53.02 -43,-96.01 -96,-96.01 z m 0,10.22 c 47.4,0 85.8,38.4 85.8,85.79 0,24.2 -10.1,46.1 -26.2,61.7 -11.9,-5.7 -30.9,-9.7 -52.7,-10.4 l 0,-18.4 18.9,-24.4 c 5.2,-2.9 8.9,-6.9 10.1,-11.6 1.4,0.3 2.8,0.6 4.2,0.6 8.9,0 16.2,-7.2 16.2,-16.13 0,-8.9 -7.3,-16.12 -16.2,-16.12 -0.4,0 -0.8,0.1 -1.2,0.13 0.2,-1.07 0.3,-2.16 0.3,-3.29 0,-9.09 -7.4,-16.44 -16.4,-16.44 -2.2,0 -4.3,0.44 -6.2,1.22 -1.8,-7.58 -8.5,-13.23 -16.6,-13.23 -7.5,0 -13.8,4.87 -16.1,11.61 -2.9,-2.47 -6.65,-4.03 -10.77,-4.03 -9.26,0 -16.76,7.51 -16.76,16.76 0,1.28 0.17,2.51 0.44,3.72 -8.1,1.17 -14.35,8.08 -14.35,16.51 0,6.99 4.26,12.99 10.32,15.49 -0.1,0.5 -0.19,1 -0.19,1.6 0,6.8 7.2,12.3 16.11,12.3 1.59,0 3.1,-0.2 4.55,-0.6 l 20.45,24.6 0,19.7 C 91.43,166 72.2,169.9 60.18,175.6 44.05,160 34.02,138.2 34.02,114 34.02,66.61 72.43,28.21 119.8,28.21 Z m -0.2,24.06 c 0.3,0 0.6,0 0.9,0 5.1,0.19 9.9,3.09 12.3,7.98 1.1,2.1 1.6,4.32 1.5,6.51 0.5,-0.29 0.9,-0.55 1.4,-0.79 6.2,-3.07 13.7,-0.54 16.8,5.65 2,4.02 1.6,8.6 -0.6,12.16 6.3,-3.11 13.9,-0.55 17,5.74 3.2,6.31 0.6,13.98 -5.7,17.18 -1.3,0.6 -1.4,-0.2 -0.6,-0.9 3.9,-3.5 5.1,-9.24 2.7,-14.14 -2.8,-5.65 -9.6,-8.04 -15.3,-5.53 -0.9,0.46 -3.3,1.12 -2.3,-0.24 2.6,-3.4 3.2,-8.1 1.2,-12.18 -2.7,-5.44 -11.4,-5.98 -15.2,-2.84 -0.7,2.23 -1.7,3.99 -3.2,5.61 -1.2,1.22 -3.1,0.65 -2.3,-1.12 0.7,-1.29 1.3,-2.59 1.6,-4 0.6,-2.84 0.3,-5.9 -1.1,-8.71 -3,-6.15 -10.2,-8.9 -16.5,-6.57 -0.4,0.16 -1.5,-0.34 -0.6,-1.13 0.6,-0.5 1.3,-0.84 2,-1.19 1.9,-0.96 4,-1.45 6,-1.5 z m -17,62.93 c 4.3,6.7 14.2,11.5 25.6,11.5 2.6,0 5.1,-0.3 7.5,-0.8 -3.7,7.3 -8.5,14 -13.4,14 -6,0 -15.6,-11.5 -22.88,-21.6 1.28,-0.9 2.28,-2 3.18,-3.1 z m 3,56.3 c 5.5,0 -11.06,11.8 -11.06,24.5 -7.47,-2 -16.75,-6.9 -23.35,-11.4 -1.36,-0.9 13.84,-13.1 34.41,-13.1 z m 34.8,1.4 c 19,0 28.7,11.3 27.3,12.2 -6.9,4.6 -15.4,8.8 -25,11.6 -11.3,-11.3 -7.1,-23.8 -2.3,-23.8 z m -17.7,0.9 c 5.1,0 -5.1,6.9 12.6,24.6 -3,0.6 -10.7,1.6 -16.6,1.3 -13.5,-7.2 -5.6,-25.9 4,-25.9 z"></path> </svg>