<?xml version="1.0"?>

<svg xmlns:dc="http://purl.org/dc/elements/1.1/" xmlns:cc="http://creativecommons.org/ns#" xmlns:rdf="http://www.w3.org/1999/02/22-rdf-syntax-ns#" xmlns:svg="http://www.w3.org/2000/svg" xmlns="http://www.w3.org/2000/svg" viewBox="0 0 323.1 220.4" height="220.4" width="323.1" xml:space="preserve" version="1.1" id="svg6869"><defs id="defs6873"></defs><path d="m 295.1,32.2 -1,0 0,2.3 1.1,0 c 1.1,0 1.6,-0.4 1.6,-1.2 0,-0.9 -0.9,-1.1 -1.7,-1.1 z m 1.8,5.4 -1.9,-2.5 -0.9,0 0,2.5 -0.7,0 0,-6 1.9,0 c 1.5,0 2.2,0.6 2.2,1.7 0,0.9 -0.8,1.7 -1.7,1.7 l 1.9,2.6 -0.8,0 z m -1.5,-7.7 c -2.6,0 -4.6,2.1 -4.6,4.7 0,2.6 2,4.8 4.6,4.8 2.6,0 4.6,-2.2 4.6,-4.8 0,-2.6 -2,-4.7 -4.6,-4.7 z m 0,10 c -2.8,0 -5.3,-2.3 -5.3,-5.3 0,-3 2.5,-5.3 5.3,-5.3 2.8,0 5.3,2.3 5.3,5.3 0,3 -2.5,5.3 -5.3,5.3 m -135.8,74.4 0,37.3 -8.5,0 0,-37.3 -13.4,0 0,-7.2 35.2,0 0,7.2 -13.3,0 m 138.5,36.1 c -2.3,1.4 -4.8,2.1 -7,2.1 -4.2,0 -6.1,-2.2 -6.1,-6.8 l 0,-19.5 -4.7,0 0,-5.2 4.7,-0.8 0,-9.4 7.6,0 0,9.4 6.8,0 0,6 -6.8,0 0,13.9 c 0,3.6 0.3,4.6 1.6,4.6 0.9,0 2.1,-0.5 4.3,-2 l 2.6,5.9 c -1.1,0.6 -2.1,1.3 -3,1.8 m -19.8,-1.8 -3,-6.2 c -2.9,1.9 -4.1,2.5 -6,3 -1.3,0.4 -2.5,0.5 -3.8,0.5 -2.9,0 -5.6,-1.4 -7,-3.7 -0.7,-1.3 -0.9,-2.4 -1.1,-5 l 20.9,0 0,-3.5 c 0,-8.5 -5.5,-14.4 -13.2,-14.4 -9,0 -15.8,7.5 -15.8,17.5 0,9.5 5.9,15.7 15.2,15.7 3.7,0 7.1,-0.7 10.4,-2.2 0.7,-0.4 1.9,-0.9 3.4,-1.7 z m -8.1,-16.5 -12.3,0 c 0.6,-4.3 3,-6.7 6.6,-6.7 3.8,0 5.5,1.9 5.7,6.7 m -30.9,23.4 c 0,1.2 -0.9,2.6 -2.4,3.7 -1.9,1.6 -4.5,2.5 -6.9,2.5 -3.7,0 -6.7,-1.6 -6.7,-3.5 0,-0.8 0.6,-2.1 1.5,-3.6 0.2,-0.2 0.4,-0.6 0.7,-1.1 l 9.8,0 c 2.7,0 4,0.7 4,2 z m 8.7,-29.2 0,-6.1 -6.3,0.4 -4.7,0 c -3,-1 -4.3,-1.3 -6.6,-1.3 -8.3,0 -13.4,4.6 -13.4,12.1 0,3 0.9,5.6 2.7,7.7 0.8,0.9 1.4,1.4 2.8,2.5 -0.8,0.6 -1.5,1 -1.9,1.4 -3.1,2 -4.1,3.4 -4.1,5.2 0,1.9 1.2,3.2 4.4,4.3 -3.7,3.1 -5.1,5.2 -5.1,7.6 0,4.8 5.3,7.9 12.9,7.9 10.6,0 18.1,-5.6 18.1,-13.5 0,-5 -2.8,-7.5 -9,-7.5 l -11,0 c -1.6,0 -2.1,-0.3 -2.1,-0.9 0,-0.8 1,-1.8 3.1,-3.4 1,0.2 1.5,0.2 2.3,0.2 8.2,0 13.8,-4.8 13.8,-11.9 0,-2.1 -0.4,-3.2 -1.4,-4.7 l 5.5,0 z m -12.4,4.7 c 0,3.3 -2.3,5.8 -5.2,5.8 -2.9,0 -5.2,-2.5 -5.2,-5.7 0,-3.3 2.3,-6 5.2,-6 2.9,0 5.2,2.7 5.2,5.9 m -23.5,-1.2 c -0.8,-0.7 -1.5,-0.9 -2.4,-0.9 -1.3,0 -2.7,0.8 -3.9,2.3 -1.5,1.8 -2.2,3.7 -2.2,6 l 0,14.4 -8,0 0,-31.4 6.9,0 0.4,6.9 c 3,-5.3 5,-7.4 7.4,-7.4 1.7,0 3.1,0.8 4.4,2.3 l -2.6,7.8 M 192,145.9 c -2.2,-0.2 -2.5,-0.6 -2.5,-3.5 l 0,-13.1 c 0,-6.9 -3.4,-10 -10.9,-10 -8.5,0 -13.3,3.2 -13.3,8.7 0,0.9 0,1.3 0.4,2.2 l 7.7,-1.7 c -0.2,-0.4 -0.2,-0.5 -0.2,-0.8 0,-1.5 1.9,-2.8 4.3,-2.8 2.7,0 3.9,1.5 3.9,4.9 l 0,2.6 -8.9,2.6 c -4.6,1.4 -6.5,2.8 -7.6,5.7 -0.3,1.1 -0.5,2.1 -0.5,3.2 0,5 3.8,8.5 9.1,8.5 3.2,0 5.8,-1.1 8.8,-3.8 1.4,2.8 2.7,3.4 6.7,3.4 l 1.7,0 1.3,-6.1 z m -10.6,-2.1 c -1.1,0.9 -1.6,1.1 -2.1,1.4 -1.1,0.6 -2.3,0.9 -3.3,0.9 -2,0 -3.2,-1.2 -3.2,-3.2 0,-0.8 0.1,-1.4 0.6,-2.6 l 8,-2.7 0,6.2 m -137.55,-29.5 0,37.3 -8.5,0 0,-37.3 -13.35,0 0,-7.2 35.21,0 0,7.2 -13.36,0 m 89.25,37.3 0,-20.2 c 0,-3.9 -0.7,-5.3 -2.6,-5.3 -1.7,0 -4.1,1.7 -7.6,5.5 l -1.1,1.1 0,18.9 -8.1,0 0,-49.2 8.1,0 0,23 c 3.8,-4.1 6.9,-5.8 10.9,-5.8 5.7,0 8.5,3 8.5,8.9 l 0,23.1 -8.1,0 m -26,-0.9 c -2.9,1.2 -6.1,1.8 -9.17,1.8 -9.73,0 -16.01,-6.4 -16.01,-16.3 0,-10.1 6.69,-16.9 16.68,-16.9 1.8,0 3.5,0.2 5.1,0.5 2.3,0.6 3.4,1 6.1,2.6 l -3.9,6.1 c -2.4,-1.8 -3.9,-2.4 -6.35,-2.4 -5.33,0 -9.11,4.2 -9.11,10.1 0,5.6 3.37,9.4 8.23,9.4 2.73,0 4.63,-0.7 8.13,-2.7 l 3,6.6 c -1.2,0.5 -2.1,0.9 -2.7,1.2 m -29.3,-2.1 -2.97,-6.2 c -2.91,1.9 -4.12,2.5 -6.01,3 -1.28,0.4 -2.49,0.5 -3.71,0.5 -2.97,0 -5.68,-1.4 -7.03,-3.7 -0.74,-1.3 -0.95,-2.4 -1.08,-5 l 20.8,0 0,-3.5 c 0,-8.5 -5.4,-14.4 -13.17,-14.4 -8.98,0 -15.74,7.5 -15.74,17.5 0,9.5 5.88,15.7 15.2,15.7 3.65,0 7.03,-0.7 10.34,-2.2 0.75,-0.4 1.88,-0.9 3.37,-1.7 z m -8.1,-16.5 -12.29,0 c 0.67,-4.3 3.1,-6.7 6.68,-6.7 3.78,0 5.4,1.9 5.61,6.7 M 219.1,70.5 c -3.2,0 -5.9,-2.6 -5.9,-5.9 0,-3.3 2.7,-6 5.9,-6 3.3,0 6,2.7 6,6 0,3.3 -2.7,5.9 -6,5.9 z m 0,-21.1 c -8.3,0 -15.1,6.8 -15.1,15.2 0,8.3 6.8,15.1 15.1,15.1 8.4,0 15.1,-6.8 15.1,-15.1 0,-8.4 -6.7,-15.2 -15.1,-15.2 m 25,14.9 c 0,13.8 -11.2,25 -25,25 -13.7,0 -24.9,-11.2 -24.9,-25 0,-13.7 11.2,-24.9 24.9,-24.9 13.8,0 25,11.2 25,24.9 z M 300,55.2 C 299.7,55.2 267.8,22 219.4,22 171.1,22 138.9,55.2 138.9,55.2 l 0,5 c 0,0 25.5,-21.7 65.2,-26.6 -11.4,5.6 -19.2,17.3 -19.2,30.7 0,18.9 15.4,34.3 34.2,34.3 18.9,0 34.3,-15.4 34.3,-34.3 0,-13.5 -7.9,-25.2 -19.4,-30.8 40.1,4.7 66,26.7 66,26.7 l 0,-5 M 106.6,185.5 C 105.2,185.4 105,185 105,183 l 0,-9.4 c 0,-4.9 -2.2,-7.1 -7.02,-7.1 -5.52,0 -8.68,2.2 -8.68,6.2 0,0.6 0,0.9 0.27,1.5 l 4.98,-1.2 c -0.1,-0.3 -0.13,-0.4 -0.13,-0.6 0,-1.1 1.27,-2 2.84,-2 1.72,0 2.5,1.1 2.5,3.6 l 0,1.8 -5.77,1.9 c -2.98,0.9 -4.2,2 -4.9,4.1 -0.22,0.7 -0.35,1.5 -0.35,2.3 0,3.5 2.44,6 5.9,6 2.06,0 3.77,-0.8 5.66,-2.7 1,2 1.8,2.5 4.4,2.5 l 1.1,0 0.8,-4.4 z M 99.76,184 c -0.74,0.6 -1,0.8 -1.35,1 -0.7,0.4 -1.49,0.6 -2.15,0.6 -1.31,0 -2.09,-0.8 -2.09,-2.3 0,-0.6 0.1,-1 0.38,-1.9 l 5.21,-1.8 0,4.4 m -37.29,1.5 c -1.4,-0.1 -1.62,-0.5 -1.62,-2.5 l 0,-9.4 c 0,-4.9 -2.19,-7.1 -7.03,-7.1 -5.52,0 -8.67,2.2 -8.67,6.2 0,0.6 0,0.9 0.26,1.5 l 4.98,-1.2 c -0.1,-0.3 -0.13,-0.4 -0.13,-0.6 0,-1.1 1.27,-2 2.85,-2 1.71,0 2.49,1.1 2.49,3.6 l 0,1.8 -5.77,1.9 c -2.98,0.9 -4.2,2 -4.9,4.1 -0.22,0.7 -0.35,1.5 -0.35,2.3 0,3.5 2.44,6 5.89,6 2.07,0 3.78,-0.8 5.71,-2.7 0.91,2 1.74,2.5 4.36,2.5 l 1.1,0 0.83,-4.4 z M 55.6,184 c -0.73,0.6 -1,0.8 -1.35,1 -0.71,0.4 -1.48,0.6 -2.15,0.6 -1.31,0 -2.1,-0.8 -2.1,-2.3 0,-0.6 0.1,-1 0.39,-1.9 l 5.21,-1.8 0,4.4 m 67,5.2 0,-15 c 0,-3 -0.5,-4 -1.8,-4 -1.2,0 -2.8,1.2 -5.1,4.1 l -0.8,0.8 0,14.1 -5.5,0 0,-21.8 5.5,0 0,2.3 c 2.6,-3.1 4.7,-4.4 7.4,-4.4 3.8,0 5.7,2.2 5.7,6.7 l 0,17.2 -5.4,0 m -50.9,-7.7 c -0.1,-0.5 -0.14,-1 -0.14,-1.6 l 0,-3.1 c 0,-0.4 0,-0.9 0.14,-1.3 0.45,-2.3 2.18,-3.9 4.17,-3.9 3.11,0 4.68,3 4.68,6.7 0,4 -1.75,6.8 -4.76,6.8 -2.03,0 -3.64,-1.6 -4.09,-3.6 z m 0.61,5.8 c 0.83,1.4 2.65,2.4 5.03,2.4 4.38,0 8.93,-3.6 8.95,-11.7 0,-7.1 -3.89,-11.1 -8.16,-11.1 -2.88,0 -5.09,1.2 -6.53,3.5 l -0.11,0.1 -0.61,0 -0.28,-3.1 -4.84,0 c 0.1,2 0.15,4.4 0.15,7.2 l 0,23.8 5.65,0 0,-11.3 0.64,0 0.11,0.2 m -41.42,-2.6 c -1.11,0 -2.12,-0.2 -2.97,-0.5 l -0.61,4.9 c 1.21,0.4 2.94,0.6 4.25,0.6 6.1,-0.1 9.65,-2.8 9.71,-11.6 l 0,-19.3 -5.65,0 0,19.3 c 0,2.4 -0.42,4.1 -1.26,5.1 -0.85,1.1 -2.08,1.5 -3.47,1.5" id="path6915"></path><metadata id="metadata7480"><rdf:rdf><cc:work rdf:about=""><dc:title></dc:title></cc:work></rdf:rdf></metadata></svg>