<?xml version="1.0"?>
<!--?xml version="1.0" encoding="UTF-8" standalone="no"?-->
<svg xmlns="http://www.w3.org/2000/svg" viewBox="0 0 343.12 267.74" height="267.74" width="343.12"> <path d="m 22,245.5 v -13.59 h 2.72 l 3.23,9.62 c 0.3,0.9 0.52,1.57 0.65,2.01 0.16,-0.49 0.4,-1.22 0.73,-2.18 l 3.27,-9.46 h 2.43 v 13.59 h -1.74 v -11.38 l -3.97,11.38 h -1.63 l -3.95,-11.57 v 11.57 H 22 Z m 16.25,0 v -13.59 h 1.81 v 13.59 z m 8.46,0 v -11.99 h -4.5 v -1.6 h 10.82 v 1.6 h -4.52 v 11.99 z m 8.2,0 v -13.59 h 6.05 c 1.22,0 2.14,0.12 2.77,0.37 0.63,0.24 1.14,0.67 1.52,1.29 0.38,0.62 0.57,1.3 0.57,2.05 0,0.97 -0.31,1.78 -0.94,2.44 -0.63,0.66 -1.6,1.08 -2.9,1.26 0.48,0.23 0.84,0.45 1.09,0.68 0.53,0.48 1.03,1.09 1.5,1.81 l 2.37,3.7 h -2.27 l -1.81,-2.83 c -0.53,-0.81 -0.96,-1.44 -1.31,-1.87 -0.34,-0.43 -0.65,-0.74 -0.92,-0.91 -0.27,-0.17 -0.54,-0.29 -0.82,-0.36 -0.21,0 -0.54,-0.1 -1.01,-0.1 h -2.09 v 6.03 h -1.8 z m 1.81,-7.59 h 3.88 c 0.82,0 1.47,-0.1 1.94,-0.26 0.47,-0.17 0.82,-0.44 1.06,-0.82 0.24,-0.37 0.36,-0.78 0.36,-1.22 0,-0.64 -0.23,-1.17 -0.7,-1.59 -0.47,-0.41 -1.21,-0.62 -2.22,-0.62 h -4.32 z m 10.43,7.59 5.24,-13.59 h 1.95 l 5.59,13.59 h -2.06 l -1.59,-4.12 h -5.71 l -1.5,4.12 z m 3.94,-5.58 h 4.63 l -1.43,-3.76 c -0.43,-1.14 -0.76,-2.08 -0.97,-2.82 -0.17,0.87 -0.42,1.74 -0.74,2.6 z m 14.84,5.58 v -13.59 h 1.81 v 13.59 z m 4.97,0 v -13.59 h 1.85 l 7.17,10.67 v -10.67 h 1.73 V 245.5 H 99.8 l -7.17,-10.68 v 10.68 z m 17.26,0 v -11.99 h -4.5 v -1.6 h 10.82 v 1.6 h -4.52 v 11.99 z m 8.21,0 v -13.59 h 9.87 v 1.6 h -8.06 v 4.16 h 7.55 v 1.59 h -7.55 v 4.63 h 8.38 v 1.6 h -10.19 z m 19.07,-5.33 v -1.59 h 5.78 v 5.04 c -0.89,0.71 -1.8,1.23 -2.75,1.59 -0.94,0.35 -1.91,0.53 -2.9,0.53 -1.34,0 -2.56,-0.28 -3.65,-0.86 -1.1,-0.57 -1.92,-1.4 -2.48,-2.48 -0.56,-1.08 -0.84,-2.29 -0.84,-3.63 0,-1.32 0.28,-2.56 0.84,-3.7 0.55,-1.15 1.35,-2 2.4,-2.56 1.04,-0.55 2.24,-0.83 3.6,-0.83 0.98,0 1.88,0.16 2.68,0.48 0.8,0.32 1.42,0.76 1.88,1.33 0.45,0.57 0.8,1.31 1.04,2.22 l -1.63,0.45 c -0.21,-0.69 -0.46,-1.24 -0.76,-1.63 -0.31,-0.4 -0.74,-0.71 -1.31,-0.95 -0.56,-0.24 -1.19,-0.36 -1.88,-0.36 -0.83,0 -1.54,0.13 -2.14,0.38 -0.6,0.25 -1.09,0.58 -1.46,0.99 -0.37,0.41 -0.65,0.85 -0.86,1.34 -0.35,0.84 -0.52,1.75 -0.52,2.73 0,1.21 0.21,2.22 0.63,3.04 0.42,0.82 1.03,1.42 1.83,1.82 0.8,0.4 1.65,0.59 2.55,0.59 0.78,0 1.55,-0.15 2.29,-0.45 0.75,-0.3 1.31,-0.62 1.69,-0.96 v -2.53 z m 8.47,5.33 v -13.59 h 6.05 c 1.22,0 2.14,0.12 2.77,0.37 0.63,0.24 1.14,0.67 1.52,1.29 0.38,0.62 0.57,1.3 0.57,2.05 0,0.97 -0.31,1.78 -0.94,2.44 -0.63,0.66 -1.6,1.08 -2.9,1.26 0.48,0.23 0.84,0.45 1.09,0.68 0.53,0.48 1.03,1.09 1.5,1.81 l 2.37,3.7 h -2.27 l -1.81,-2.83 c -0.53,-0.81 -0.96,-1.44 -1.31,-1.87 -0.34,-0.43 -0.65,-0.74 -0.92,-0.91 -0.27,-0.17 -0.54,-0.29 -0.82,-0.36 -0.21,0 -0.54,-0.1 -1.01,-0.1 h -2.09 v 6.03 h -1.8 z m 1.8,-7.59 h 3.88 c 0.82,0 1.47,-0.1 1.94,-0.26 0.47,-0.17 0.82,-0.44 1.06,-0.82 0.24,-0.37 0.36,-0.78 0.36,-1.22 0,-0.64 -0.23,-1.17 -0.7,-1.59 -0.47,-0.41 -1.21,-0.62 -2.22,-0.62 h -4.32 z m 10.44,7.59 5.24,-13.59 h 1.94 l 5.59,13.59 h -2.06 l -1.59,-4.12 h -5.71 l -1.5,4.12 z m 3.94,-5.58 h 4.63 l -1.43,-3.76 c -0.43,-1.14 -0.76,-2.08 -0.97,-2.82 -0.18,0.87 -0.42,1.74 -0.74,2.6 z m 9.66,1.21 1.7,-0.15 c 0.1,0.68 0.27,1.24 0.56,1.67 0.3,0.44 0.75,0.79 1.37,1.06 0.62,0.27 1.32,0.4 2.09,0.4 0.69,0 1.3,-0.1 1.82,-0.3 0.53,-0.21 0.92,-0.48 1.18,-0.84 0.26,-0.36 0.39,-0.74 0.39,-1.16 0,-0.43 -0.12,-0.8 -0.38,-1.12 -0.25,-0.32 -0.66,-0.59 -1.23,-0.8 -0.37,-0.14 -1.18,-0.36 -2.43,-0.66 -1.25,-0.3 -2.13,-0.58 -2.63,-0.85 -0.65,-0.34 -1.14,-0.76 -1.46,-1.27 -0.32,-0.5 -0.48,-1.07 -0.48,-1.69 0,-0.68 0.19,-1.33 0.58,-1.92 0.39,-0.6 0.96,-1.05 1.71,-1.36 0.75,-0.31 1.59,-0.46 2.5,-0.46 1.01,0 1.9,0.16 2.68,0.49 0.77,0.32 1.37,0.8 1.78,1.43 0.41,0.63 0.64,1.34 0.67,2.14 l -1.73,0.13 c -0.1,-0.86 -0.41,-1.51 -0.95,-1.95 -0.54,-0.44 -1.33,-0.66 -2.38,-0.66 -1.09,0 -1.89,0.2 -2.39,0.6 -0.5,0.4 -0.75,0.88 -0.75,1.44 0,0.49 0.18,0.89 0.53,1.21 0.35,0.32 1.26,0.64 2.72,0.97 1.47,0.33 2.48,0.62 3.02,0.87 0.79,0.37 1.38,0.83 1.76,1.39 0.38,0.56 0.57,1.21 0.57,1.93 0,0.72 -0.21,1.41 -0.62,2.04 -0.42,0.64 -1.01,1.14 -1.79,1.49 -0.78,0.35 -1.66,0.53 -2.63,0.53 -1.24,0 -2.27,-0.18 -3.1,-0.54 -0.84,-0.36 -1.49,-0.9 -1.97,-1.62 -0.43,-0.71 -0.68,-1.53 -0.71,-2.44 z m 13.64,4.37 v -13.59 h 1.8 v 13.59 z m 10.6,0 v -13.59 h 1.81 v 13.59 z m 4.97,0 v -13.59 h 1.85 l 7.17,10.67 v -10.67 h 1.73 v 13.59 h -1.85 l -7.17,-10.68 v 10.68 z m 13.88,0 v -13.59 h 9.21 v 1.6 h -7.4 v 4.21 h 6.4 v 1.6 h -6.4 v 6.17 h -1.81 z m 11,-6.62 c 0,-2.26 0.61,-4.02 1.82,-5.3 1.22,-1.28 2.79,-1.91 4.71,-1.91 1.26,0 2.4,0.3 3.41,0.9 1.01,0.6 1.78,1.44 2.31,2.51 0.53,1.07 0.79,2.29 0.79,3.65 0,1.38 -0.28,2.61 -0.84,3.7 -0.56,1.09 -1.35,1.91 -2.37,2.47 -1.03,0.56 -2.13,0.84 -3.31,0.84 -1.29,0 -2.43,-0.31 -3.45,-0.93 -1.01,-0.62 -1.78,-1.46 -2.3,-2.53 -0.51,-1.08 -0.77,-2.21 -0.77,-3.4 z m 1.87,0 c 0,1.64 0.44,2.93 1.33,3.87 0.89,0.94 2,1.41 3.33,1.41 1.36,0 2.48,-0.47 3.36,-1.43 0.88,-0.95 1.32,-2.3 1.32,-4.05 0,-1.1 -0.19,-2.07 -0.57,-2.9 -0.38,-0.83 -0.92,-1.47 -1.65,-1.92 -0.72,-0.45 -1.53,-0.68 -2.43,-0.68 -1.28,0 -2.38,0.44 -3.3,1.31 -0.93,0.88 -1.39,2.34 -1.39,4.39 z m 13.54,6.59 v -13.59 h 6.05 c 1.22,0 2.14,0.12 2.77,0.37 0.63,0.24 1.14,0.67 1.52,1.29 0.38,0.62 0.57,1.3 0.57,2.05 0,0.97 -0.31,1.78 -0.94,2.44 -0.63,0.66 -1.59,1.08 -2.9,1.26 0.48,0.23 0.84,0.45 1.09,0.68 0.53,0.48 1.03,1.09 1.5,1.81 l 2.37,3.7 h -2.27 l -1.81,-2.83 c -0.53,-0.81 -0.96,-1.44 -1.31,-1.87 -0.34,-0.43 -0.65,-0.74 -0.92,-0.91 -0.27,-0.17 -0.54,-0.29 -0.82,-0.36 -0.21,0 -0.54,-0.1 -1.01,-0.1 h -2.09 v 6.03 h -1.8 z m 1.81,-7.59 h 3.88 c 0.82,0 1.47,-0.1 1.94,-0.26 0.47,-0.17 0.82,-0.44 1.06,-0.82 0.24,-0.37 0.36,-0.78 0.36,-1.22 0,-0.64 -0.23,-1.17 -0.7,-1.59 -0.47,-0.41 -1.21,-0.62 -2.22,-0.62 h -4.32 z m 11.88,7.59 v -13.59 h 2.72 l 3.23,9.62 c 0.3,0.9 0.52,1.57 0.65,2.01 0.16,-0.49 0.4,-1.22 0.73,-2.18 l 3.27,-9.46 h 2.43 v 13.59 h -1.74 v -11.38 l -3.97,11.38 h -1.63 l -3.95,-11.57 v 11.57 h -1.74 z m 14.44,0 5.24,-13.59 h 1.95 l 5.59,13.59 h -2.06 l -1.59,-4.12 h -5.71 l -1.5,4.12 z m 3.93,-5.58 h 4.63 l -1.43,-3.76 c -0.43,-1.14 -0.76,-2.08 -0.97,-2.82 -0.17,0.87 -0.42,1.74 -0.74,2.6 z m 12.34,5.58 v -11.99 h -4.5 v -1.6 h 10.82 v 1.6 h -4.52 v 11.99 z m 8.49,0 v -13.59 h 1.81 v 13.59 z m 4.91,0 v -13.59 h 1.81 v 6.74 l 6.78,-6.74 h 2.45 l -5.73,5.51 5.98,8.09 h -2.38 l -4.86,-6.88 -2.23,2.17 v 4.71 h -1.82 z m 11.29,0 5.24,-13.59 h 1.95 l 5.59,13.59 h -2.06 l -1.59,-4.12 h -5.71 l -1.5,4.12 z m 3.94,-5.58 h 4.63 l -1.43,-3.76 c -0.43,-1.14 -0.76,-2.08 -0.97,-2.82 -0.17,0.87 -0.42,1.74 -0.74,2.6 z M 187.21,132.1 c 9.06,0 16.45,7.39 16.45,16.45 0,9.06 -7.39,16.45 -16.45,16.45 -9.06,0 -16.45,-7.39 -16.45,-16.45 0,-9.06 7.39,-16.45 16.45,-16.45 z M 92.39,22 c -2.62,0 -5.43,0.69 -8.62,2.5 -71.3,86.86 52.17,80.21 70.12,136.7 l 14.76,-13.08 C 140.66,88.52 65.42,107.8 74.55,38.49 80.27,32.16 93.4,29.04 94.83,37.6 L 102,24.95 C 98.83,23.27 95.76,22.03 92.39,22 Z m 152.66,2.68 -18.95,17.43 v 0 c 29.93,-11.66 45.77,21.02 35.34,46.14 21.44,-18.47 18.92,-62.66 -16.39,-63.58 z m 16.39,63.58 c -3.82,3.29 -8.4,5.77 -13.69,7.04 -25.49,6.1 -41.97,8.05 -54.75,27.5 24.44,-8.94 35.65,-7.75 47.95,-13.45 10.23,-4.74 16.9,-12.46 20.48,-21.06 0,0 0,0 0,0 z M 103.67,27.48 94.77,42.1 c -0.59,-3.5 -2.9,-5.89 -5.85,-6.75 v 45.99 c 10.85,9.73 26.28,15.75 41.34,24.35 V 27.48 Z m 108.43,0 v 75.42 c 9.88,-5.2 21.81,-7.36 36.9,-10.97 1.54,-0.37 3.02,-0.85 4.44,-1.42 v -42.5 c -7.62,-6 -18.65,-8.08 -32.5,-2.87 l 18.15,-17.66 z m 41.34,76.77 c -3.11,2.99 -6.85,5.6 -11.24,7.64 -8.82,4.09 -17.11,4.65 -30.1,7.93 v 83.47 h 41.34 z m -164.52,5.54 v 93.5 h 41.34 v -68.43 c -12.95,-9.33 -28.44,-16.79 -41.34,-25.07 z"></path></svg>