<?xml version="1.0"?>
<!--?xml version="1.0" encoding="UTF-8" standalone="no"?-->
<svg xmlns:dc="http://purl.org/dc/elements/1.1/" xmlns:cc="http://creativecommons.org/ns#" xmlns:rdf="http://www.w3.org/1999/02/22-rdf-syntax-ns#" xmlns:svg="http://www.w3.org/2000/svg" xmlns="http://www.w3.org/2000/svg" xml:space="preserve" id="svg2033" viewBox="0 0 584.64504 127.94199" height="127.94199" width="584.64502" version="1.0"><defs id="defs2880"></defs><path d="m 192.35,32.814 v 49.131 h 25.9 V 94.052 H 177.02 V 32.814 h 15.33 m 57.93,61.238 -0.45,-4.307 c -3.59,3.764 -7.63,5.508 -12.67,5.508 -6.25,0 -11.29,-2.572 -13.87,-6.971 -1.93,-3.312 -2.2,-4.967 -2.2,-12.221 V 49.989 h 14.41 v 25.518 c 0,6.438 1.84,9.098 6.34,9.098 4.77,0 7.16,-3.123 7.16,-9.098 V 49.989 h 14.41 v 44.063 z m 45.83,-51.503 h -2.4 c -5.33,0 -6.7,1.281 -6.7,6.148 v 1.291 h 8.53 v 9.726 h -8.53 V 94.051 H 272.6 V 59.714 h -6.24 v -9.725 h 6.24 v -1.291 c 0,-11.563 4.31,-15.884 15.6,-15.884 h 7.91 z m 22.12,-6.336 v 13.776 h 8.18 v 9.726 h -8.18 v 17.447 c 0.1,6.43 0.47,6.799 5.97,6.799 h 2.85 v 10.092 h -10.83 c -8.55,0 -12.41,-3.943 -12.41,-12.934 V 59.714 h -6.05 v -9.725 h 6.05 V 36.213 Z m 26.44,-3.399 v 22.127 c 2.68,-4.316 6.43,-6.243 12.04,-6.243 6.05,0 10.93,2.572 13.58,7.253 1.93,3.399 2.21,5.237 2.21,12.583 V 94.052 H 358.17 V 69.091 c 0,-6.341 -1.93,-9.184 -6.34,-9.184 -4.77,0 -7.16,3.119 -7.16,9.184 V 94.052 H 330.26 V 32.814 Z m 33.97,31.222 c 0,-10.002 7.82,-15.885 20.85,-15.885 13.68,0 20.47,5.691 20.47,17.254 v 22.502 c 0,3.852 0,3.852 1.19,6.145 h -13.3 l -0.83,-3.662 c -4.59,4.035 -8.54,5.498 -14.32,5.498 -9.74,0 -16.8,-5.779 -16.8,-13.76 0,-6.621 4.31,-11.303 12.76,-13.691 1.29,-0.365 5.51,-1.193 12.76,-2.568 3.13,-0.645 4.31,-1.651 4.31,-3.759 0,-2.483 -2.57,-4.138 -6.42,-4.138 -4.69,0 -7.43,2.207 -7.53,6.065 h -13.14 z m 27.45,8.899 c -1.83,0.557 -2.38,0.732 -3.85,1.201 -1.74,0.453 -3.3,0.812 -5.23,1.188 -4.68,1.193 -6.99,3.039 -6.99,5.873 0,2.857 2.21,4.504 5.81,4.504 6.97,0 10.27,-3.119 10.27,-9.639 v -3.127 z m 32.06,-22.946 0.46,4.952 c 3.39,-4.316 7.42,-6.243 12.75,-6.243 6.16,0 11.13,2.661 13.7,7.253 1.82,3.399 2.2,5.331 2.2,12.583 V 94.052 H 452.84 V 69.091 c 0,-6.519 -1.84,-9.184 -6.33,-9.184 -4.7,0 -7.07,3.119 -7.07,9.184 V 94.052 H 425.01 V 49.989 Z m 60.78,13.771 c -0.38,-4.134 -2.12,-5.691 -6.51,-5.691 -3.59,0 -5.79,1.375 -5.79,3.676 0,2.108 2.1,3.391 6.88,4.124 l 4.97,0.922 c 10.46,1.744 15.33,6.145 15.33,13.771 0,9.365 -7.99,15.326 -20.48,15.326 -14.78,0 -22.86,-5.873 -22.86,-16.514 h 14.04 v 0.541 c 0,3.676 3.04,5.977 7.9,5.977 4.22,0 6.79,-1.566 6.79,-4.049 0,-2.572 -2.39,-4.037 -7.99,-5.047 l -4.58,-0.734 c -10.47,-1.836 -14.98,-5.602 -14.98,-12.573 0,-9.558 7.98,-15.338 21.13,-15.338 9.17,0 14.87,2.474 17.81,7.8 1.28,2.212 1.46,2.946 1.84,7.809 z m 20.1,0.276 c 0.1,-9.923 7.9,-15.885 21.03,-15.885 13.69,0 20.38,5.691 20.38,17.254 v 22.502 c 0,3.764 0,3.764 1.2,6.145 h -13.4 l -0.73,-3.662 c -5.33,4.307 -8.46,5.498 -14.32,5.498 -9.84,0 -16.9,-5.779 -16.9,-13.76 0,-6.621 4.32,-11.303 12.75,-13.691 1.29,-0.365 5.52,-1.281 12.77,-2.568 3.03,-0.645 4.31,-1.651 4.31,-3.759 0,-2.483 -2.57,-4.138 -6.33,-4.138 -4.69,0 -7.53,2.301 -7.53,6.065 h -13.23 z m 27.56,8.899 c -1.84,0.557 -2.49,0.732 -3.96,1.201 -1.57,0.271 -3.3,0.646 -5.23,1.188 -4.68,1.193 -6.98,3.039 -6.98,5.873 0,2.857 2.2,4.504 5.89,4.504 6.97,0 10.28,-3.119 10.28,-9.639 z M 115.8,63.489 c 0,25.428 -20.478,45.811 -46.01,45.811 -25.254,0 -45.8,-20.477 -45.8,-45.732 0,-25.788 20.545,-46.091 46.628,-46.091 24.793,0 45.182,20.844 45.182,46.012 m -87.051,0 c 0,22.674 18.368,41.041 41.041,41.041 22.772,0 41.24,-18.278 41.24,-40.962 C 111.03,40.431 92.839,22.261 69.524,22.261 47.216,22.26 28.749,40.884 28.749,63.489 Z m 31.04,-1.848 -0.562,1.109 C 57.118,62.287 53.266,60.814 49.225,58.976 l -0.552,1.02 1.656,0.911 c 5.872,3.035 7.804,3.67 11.203,3.67 6.789,0 11.934,-3.853 14.327,-10.646 4.218,-0.823 9.638,-1.188 16.062,-1.188 5.508,0 10.289,0.271 16.439,1.01 l -1.56,1.927 c -2.85,-0.375 -8.089,-0.739 -11.854,-0.739 -4.493,0 -7.342,0.09 -8.81,0.182 l -0.729,1.656 c 3.765,-0.183 5.134,-0.183 8.08,-0.183 4.957,0 8.893,0.183 12.113,0.454 l -1.56,2.02 c -5.784,-0.172 -8.444,-0.271 -12.751,-0.271 -2.395,0 -4.139,0.1 -6.986,0.177 l -0.739,1.655 c 2.474,-0.177 5.873,-0.271 9.46,-0.271 3.399,0 7.426,0.09 9.826,0.183 l -1.57,2.029 c -1.634,-0.103 -4.856,-0.103 -7.34,-0.103 -3.941,0 -8.897,0.182 -11.47,0.557 l -0.739,1.463 c 4.682,-0.454 7.617,-0.636 12.762,-0.636 2.02,0 3.301,0 5.607,0.183 l -1.755,2.11 c -3.124,-0.184 -4.119,-0.184 -5.321,-0.184 -8.721,0 -14.406,1.281 -20.112,4.498 5.232,5.229 13.953,8.811 21.768,8.811 0.641,0 1.005,0 2.661,-0.09 l -3.774,3.775 C 72.826,77.536 69.15,76.062 50.142,64.771 42.623,60.454 36.464,57.518 31.498,56.044 l 0.65,-2.291 c 1.202,0.178 3.764,0.917 6.159,1.744 l 1.094,-2.483 z" id="path2876"></path><metadata id="metadata10"><rdf:rdf><cc:work rdf:about=""><dc:title></dc:title></cc:work></rdf:rdf></metadata></svg>