<?xml version="1.0"?>

<!-- Generator: Adobe Illustrator 19.1.0, SVG Export Plug-In . SVG Version: 6.00 Build 0)  -->
<svg version="1.1" id="Layer_1" xmlns="http://www.w3.org/2000/svg" xmlns:xlink="http://www.w3.org/1999/xlink" x="0px" y="0px" width="506px" height="135px" viewBox="0 0 506 135" enable-background="new 0 0 506 135" xml:space="preserve">
<g>
	<path d="M95.393,29.891c-2.171,7.618-10.109,12.035-17.725,9.865c-7.614-2.178-12.026-10.108-9.854-17.727
		c2.17-7.609,10.101-12.018,17.715-9.845C93.146,14.359,97.563,22.285,95.393,29.891"></path>
	<path d="M58.364,45.374c-1.958,6.873-9.119,10.864-15.997,8.903c-6.88-1.96-10.86-9.133-8.903-16.004
		c1.96-6.882,9.127-10.864,16.006-8.903C56.352,31.332,60.325,38.499,58.364,45.374"></path>
	<path d="M42.701,78.404c-1.753,6.145-8.156,9.698-14.294,7.95c-6.138-1.753-9.701-8.149-7.95-14.292
		c1.749-6.14,8.152-9.693,14.29-7.943C40.889,65.87,44.449,72.27,42.701,78.404"></path>
	<g>
		<path d="M60.345,59.012h9.947l20.59,35.707l21.172-35.707h9.389v41.902h-4.374V62.317h-2.365L92.19,100.914h-2.986L67.085,62.317
			h-2.36v38.597h-4.38V59.012z"></path>
		<path d="M136.438,82.709h18.539c1.569,0,2.817,0.225,3.756,0.693c0.936,0.464,1.52,1.055,1.754,1.778v-4.225
			c0-1.844-0.555-3.298-1.672-4.343c-1.257-1.203-3.145-1.811-5.67-1.811h-12.615c-2.443,0-4.289,0.383-5.532,1.151
			c-1.243,0.759-1.862,1.783-1.862,3.076v0.721h-4.495V79.03c0-2.451,0.943-4.381,2.825-5.797c1.879-1.406,4.526-2.107,7.941-2.107
			h14.282c3.913,0,6.814,0.945,8.696,2.836c1.727,1.728,2.59,4.282,2.59,7.655v19.297H160.6v-2.352
			c-0.619,0.721-1.341,1.293-2.187,1.718c-0.842,0.417-1.918,0.634-3.223,0.634h-18.972c-6.087,0-9.129-2.533-9.129-7.602v-3.614
			c0-2.121,0.719-3.801,2.182-5.003C130.874,83.368,133.261,82.709,136.438,82.709z M153.931,86.384h-15.914
			c-2.568,0-4.299,0.334-5.206,1.027c-0.896,0.686-1.346,1.783-1.346,3.315v2.17c0,1.405,0.486,2.477,1.458,3.223
			c0.987,0.742,2.679,1.111,5.095,1.111h15.914c2.337,0,4.009-0.417,5.029-1.264c1.014-0.842,1.527-2.226,1.527-4.155
			C160.487,88.193,158.3,86.384,153.931,86.384z"></path>
		<path d="M183.908,71.125h12.589c2.578,0,4.586,0.337,6.008,1.024c0.811,0.407,1.679,1.144,2.604,2.229v-3.253h4.263v32.078
			c0,3.503-0.945,6.075-2.828,7.716c-2.03,1.813-5.352,2.714-9.953,2.714h-12.043c-3.493,0-6.275-0.727-8.347-2.168
			c-2.066-1.449-3.107-3.376-3.107-5.788h4.721c0,1.206,0.607,2.222,1.822,3.042c1.215,0.828,3.029,1.245,5.467,1.245h11.272
			c5.824,0,8.733-2.335,8.733-7.004v-5.544c-0.424,1.041-1.153,1.858-2.197,2.413c-1.391,0.72-3.467,1.084-6.238,1.084h-12.308
			c-8.477,0-12.711-3.701-12.711-11.098v-6.872c0-3.862,1-6.796,3.007-8.8C176.662,72.131,179.744,71.125,183.908,71.125z
			 M195.863,74.743h-9.947c-3.604,0-6.15,0.668-7.643,1.993c-1.5,1.323-2.244,3.509-2.244,6.571v5.971
			c0,5.35,3.292,8.017,9.887,8.017h9.947c2.985,0,5.268-0.737,6.858-2.23c1.589-1.492,2.388-3.41,2.388-5.787v-5.727
			c0-2.735-0.776-4.886-2.332-6.452C201.229,75.532,198.924,74.743,195.863,74.743z"></path>
		<path d="M273.176,71.125c4.064,0,7.306,1.049,9.724,3.131c2.259,1.971,3.401,4.469,3.401,7.489v19.167h-4.378V82.709
			c0-2.622-0.843-4.585-2.529-5.924c-1.689-1.314-4.136-1.982-7.359-1.982h-8.733c-3.332,0-5.883,0.668-7.671,1.982
			c-1.782,1.338-2.669,3.39-2.669,6.158v17.97h-4.373V82.821c0-2.646-0.891-4.65-2.661-5.995c-1.76-1.346-4.124-2.023-7.081-2.023
			h-9.037c-3.417,0-6.048,0.872-7.887,2.59c-1.54,1.455-2.298,3.225-2.298,5.316v18.204h-4.38V71.125h4.38v4.586
			c0.646-1.454,1.646-2.534,2.984-3.249c1.62-0.886,3.784-1.336,6.513-1.336h10.246c3.61,0,6.359,0.607,8.233,1.813
			c1.381,0.884,2.478,2.248,3.283,4.095C251.73,75.187,252.77,73.84,254,73c1.839-1.251,4.528-1.875,8.06-1.875H273.176z"></path>
		<path d="M300.31,82.709h18.543c1.566,0,2.819,0.225,3.753,0.693c0.938,0.464,1.523,1.055,1.758,1.778v-4.225
			c0-1.844-0.565-3.298-1.667-4.343c-1.267-1.203-3.15-1.811-5.674-1.811h-12.617c-2.451,0-4.292,0.383-5.537,1.151
			c-1.24,0.759-1.855,1.783-1.855,3.076v0.721h-4.5V79.03c0-2.451,0.941-4.381,2.824-5.797c1.883-1.406,4.53-2.107,7.94-2.107
			h14.292c3.912,0,6.81,0.945,8.693,2.836c1.723,1.728,2.587,4.282,2.587,7.655v19.297h-4.384v-2.352
			c-0.607,0.721-1.336,1.293-2.173,1.718c-0.846,0.417-1.922,0.634-3.225,0.634h-18.967c-6.096,0-9.138-2.533-9.138-7.602v-3.614
			c0-2.121,0.721-3.801,2.179-5.003C294.747,83.368,297.134,82.709,300.31,82.709z M317.811,86.384h-15.915
			c-2.576,0-4.312,0.334-5.215,1.027c-0.893,0.686-1.345,1.783-1.345,3.315v2.17c0,1.405,0.486,2.477,1.466,3.223
			c0.982,0.742,2.665,1.111,5.094,1.111h15.915c2.334,0,4.009-0.417,5.024-1.264c1.015-0.842,1.527-2.226,1.527-4.155
			C324.363,88.193,322.177,86.384,317.811,86.384z"></path>
		<path d="M348.191,59.012h22c9.522,0,14.287,3.961,14.287,11.869h-4.382c0-2.507-0.772-4.354-2.299-5.517
			c-1.728-1.35-4.574-2.015-8.53-2.015h-21.25c-3.216,0-5.45,0.582-6.67,1.762c-1.074,1.051-1.609,2.785-1.609,5.206
			c0,2.664,0.773,4.442,2.326,5.358c1.553,0.908,4.962,1.358,10.222,1.358l12.947,0.304c7.565,0,12.72,0.867,15.471,2.604
			c2.742,1.717,4.113,4.773,4.113,9.154c0,4.348-1.067,7.394-3.193,9.163c-2.131,1.771-5.676,2.655-10.629,2.655h-21.59
			c-4.339,0-7.705-0.99-10.104-2.954c-2.396-1.965-3.598-4.946-3.598-8.925h4.373c0,2.537,0.751,4.382,2.248,5.555
			c1.691,1.317,4.529,1.981,8.52,1.981h19.924c3.415,0,5.878-0.568,7.401-1.688c1.519-1.123,2.272-3.098,2.272-5.908
			c0-2.777-0.85-4.643-2.532-5.606c-1.962-1.132-5.775-1.688-11.462-1.688l-14.682-0.369c-6.565,0-11.013-0.884-13.364-2.654
			c-2.03-1.537-3.054-4.331-3.054-8.409c0-3.904,1.049-6.755,3.149-8.547C340.58,59.901,343.817,59.012,348.191,59.012z"></path>
		<path d="M403.064,71.004h12.04c4.604,0,8.005,1.188,10.191,3.548c1.883,2.013,2.821,4.734,2.821,8.188v6.502
			c0,3.454-0.963,6.179-2.877,8.184c-2.227,2.321-5.607,3.488-10.136,3.488h-12.04c-8.711,0-13.067-3.892-13.067-11.672V82.74
			c0-3.605,0.997-6.418,2.998-8.422C395.182,72.114,398.545,71.004,403.064,71.004z M394.379,89.242c0,5.328,3.02,7.989,9.06,7.989
			h11.251c2.885,0,5.066-0.604,6.562-1.802c1.662-1.323,2.49-3.388,2.49-6.188v-6.559c0-2.568-0.781-4.528-2.333-5.897
			c-1.562-1.356-3.805-2.043-6.72-2.043h-11.251c-3.072,0-5.363,0.621-6.838,1.871c-1.484,1.245-2.222,3.28-2.222,6.129V89.242z"></path>
		<path d="M452.417,70.881v4.348h-12.786v38.171h-4.373V75.229h-3.679v-4.348h3.679v-0.727c0-3.715,0.919-6.501,2.76-8.362
			c1.839-1.861,4.512-2.78,8.013-2.78h6.321v4.337h-6.321c-2.198,0-3.8,0.508-4.846,1.519c-1.033,1.021-1.554,2.821-1.554,5.416
			v0.597H452.417z"></path>
		<path d="M469.389,97.231h8.205c2.256,0,3.947-0.521,5.05-1.567c0.85-0.798,1.267-1.7,1.267-2.717h4.721
			c0,2.015-0.781,3.763-2.36,5.26c-1.927,1.8-4.686,2.707-8.277,2.707h-8.651c-3.419,0-6.021-0.885-7.827-2.655
			c-1.918-1.892-2.88-4.707-2.88-8.442V75.472h-3.74v-4.346h3.74v-5.728h4.373v5.728h22.465v4.346h-22.465v14.891
			c0,2.333,0.585,4.061,1.753,5.18C465.932,96.67,467.467,97.231,469.389,97.231z"></path>
	</g>
	<g>
		<path d="M215.551,106.099h0.535v7.2h-0.535V106.099z"></path>
		<path d="M222,106.099h0.505l4.968,6.264v-6.264h0.514v7.2h-0.401l-5.071-6.397v6.397H222V106.099z"></path>
		<path d="M233.829,106.099h0.504l4.968,6.264v-6.264h0.514v7.2h-0.401l-5.07-6.397v6.397h-0.515V106.099z"></path>
		<path d="M248.949,113.422c-0.549,0-1.044-0.101-1.486-0.304c-0.442-0.201-0.822-0.472-1.136-0.812
			c-0.315-0.34-0.559-0.731-0.731-1.178c-0.171-0.445-0.257-0.916-0.257-1.409v-0.021c0-0.493,0.088-0.965,0.262-1.413
			c0.175-0.449,0.42-0.846,0.736-1.188c0.315-0.343,0.696-0.615,1.141-0.818c0.445-0.202,0.943-0.304,1.492-0.304
			c0.541,0,1.035,0.102,1.481,0.304c0.446,0.203,0.826,0.474,1.142,0.812c0.315,0.34,0.559,0.732,0.73,1.179
			c0.171,0.445,0.257,0.915,0.257,1.409c0.007,0.007,0.007,0.013,0,0.02c0,0.495-0.088,0.966-0.262,1.415
			c-0.175,0.449-0.42,0.846-0.736,1.188c-0.315,0.344-0.698,0.616-1.146,0.817C249.986,113.322,249.491,113.422,248.949,113.422z
			 M248.97,112.939c0.445,0,0.855-0.083,1.229-0.252c0.374-0.168,0.696-0.397,0.967-0.689c0.27-0.291,0.481-0.632,0.632-1.022
			c0.151-0.391,0.226-0.81,0.226-1.255v-0.021c0-0.445-0.077-0.865-0.231-1.26c-0.154-0.394-0.367-0.736-0.638-1.028
			c-0.271-0.291-0.595-0.522-0.972-0.694c-0.378-0.171-0.789-0.257-1.234-0.257c-0.446,0-0.855,0.084-1.229,0.252
			c-0.374,0.168-0.696,0.397-0.967,0.688c-0.271,0.292-0.482,0.633-0.633,1.024c-0.151,0.392-0.227,0.811-0.227,1.256v0.02
			c0,0.446,0.078,0.866,0.232,1.261c0.154,0.395,0.367,0.737,0.638,1.028c0.27,0.292,0.595,0.523,0.972,0.694
			C248.112,112.854,248.524,112.939,248.97,112.939z"></path>
		<path d="M257.485,106.099h0.598l2.818,6.624l2.828-6.624h0.565l-3.168,7.252h-0.473L257.485,106.099z"></path>
		<path d="M272.256,106.048h0.515l3.353,7.251h-0.587l-0.915-2.016h-4.248l-0.915,2.016h-0.557L272.256,106.048z M274.396,110.8
			l-1.893-4.166L270.6,110.8H274.396z"></path>
		<path d="M281.349,106.099h0.505l4.968,6.264v-6.264h0.514v7.2h-0.4l-5.071-6.397v6.397h-0.515V106.099z"></path>
		<path d="M293.177,106.099h2.397c0.561,0,1.078,0.091,1.548,0.273c0.47,0.181,0.874,0.434,1.214,0.755
			c0.34,0.322,0.602,0.701,0.787,1.137c0.185,0.437,0.277,0.907,0.277,1.415v0.02c0,0.508-0.093,0.981-0.277,1.42
			c-0.186,0.438-0.447,0.819-0.787,1.142c-0.34,0.322-0.744,0.576-1.214,0.761c-0.47,0.186-0.986,0.278-1.548,0.278h-2.397V106.099z
			 M295.573,112.816c0.5,0,0.953-0.081,1.357-0.242c0.405-0.161,0.747-0.382,1.029-0.661c0.28-0.278,0.498-0.604,0.652-0.98
			c0.155-0.374,0.231-0.778,0.231-1.212v-0.021c0-0.427-0.076-0.828-0.231-1.207c-0.154-0.378-0.372-0.708-0.652-0.991
			c-0.282-0.281-0.624-0.505-1.029-0.67c-0.404-0.165-0.857-0.248-1.357-0.248h-1.861v6.233H295.573z"></path>
		<path d="M308.215,113.422c-0.549,0-1.044-0.101-1.486-0.304c-0.441-0.201-0.821-0.472-1.136-0.812
			c-0.315-0.34-0.56-0.731-0.73-1.178c-0.172-0.445-0.258-0.916-0.258-1.409v-0.021c0-0.493,0.088-0.965,0.263-1.413
			c0.175-0.449,0.42-0.846,0.735-1.188s0.696-0.615,1.142-0.818c0.445-0.202,0.943-0.304,1.491-0.304
			c0.542,0,1.035,0.102,1.481,0.304c0.445,0.203,0.826,0.474,1.142,0.812c0.315,0.34,0.56,0.732,0.73,1.179
			c0.171,0.445,0.257,0.915,0.257,1.409c0.007,0.007,0.007,0.013,0,0.02c0,0.495-0.087,0.966-0.262,1.415
			c-0.175,0.449-0.42,0.846-0.736,1.188c-0.315,0.344-0.697,0.616-1.146,0.817C309.252,113.322,308.757,113.422,308.215,113.422z
			 M308.235,112.939c0.445,0,0.855-0.083,1.229-0.252c0.373-0.168,0.695-0.397,0.967-0.689c0.271-0.291,0.481-0.632,0.633-1.022
			c0.15-0.391,0.226-0.81,0.226-1.255v-0.021c0-0.445-0.077-0.865-0.231-1.26c-0.154-0.394-0.366-0.736-0.638-1.028
			c-0.271-0.291-0.595-0.522-0.972-0.694c-0.377-0.171-0.789-0.257-1.234-0.257c-0.445,0-0.855,0.084-1.228,0.252
			c-0.374,0.168-0.696,0.397-0.967,0.688c-0.271,0.292-0.482,0.633-0.633,1.024c-0.151,0.392-0.227,0.811-0.227,1.256v0.02
			c0,0.446,0.077,0.866,0.232,1.261s0.367,0.737,0.638,1.028c0.271,0.292,0.595,0.523,0.972,0.694
			C307.379,112.854,307.79,112.939,308.235,112.939z"></path>
		<path d="M326.152,106.583h-2.51v-0.483h5.555v0.483h-2.509v6.717h-0.536V106.583z"></path>
		<path d="M334.525,106.099h5.122v0.483h-4.588v2.85h4.124v0.483h-4.124v2.9h4.639v0.483h-5.173V106.099z"></path>
		<path d="M348.38,113.422c-0.514,0-0.991-0.096-1.43-0.287c-0.438-0.192-0.817-0.455-1.137-0.787
			c-0.318-0.332-0.567-0.726-0.745-1.178c-0.179-0.453-0.268-0.936-0.268-1.45v-0.021c0-0.507,0.091-0.986,0.273-1.439
			c0.182-0.452,0.432-0.849,0.751-1.188c0.318-0.34,0.697-0.606,1.137-0.803c0.439-0.195,0.919-0.294,1.44-0.294
			c0.322,0,0.613,0.028,0.874,0.083c0.261,0.055,0.502,0.134,0.726,0.236c0.223,0.102,0.432,0.226,0.626,0.365
			c0.196,0.141,0.387,0.297,0.571,0.468l-0.38,0.391c-0.158-0.149-0.322-0.291-0.494-0.421c-0.172-0.131-0.355-0.242-0.551-0.334
			c-0.194-0.093-0.407-0.167-0.638-0.222c-0.229-0.055-0.479-0.082-0.745-0.082c-0.433,0-0.833,0.082-1.203,0.247
			c-0.371,0.164-0.691,0.393-0.962,0.684c-0.27,0.291-0.483,0.633-0.638,1.023c-0.154,0.392-0.232,0.812-0.232,1.266v0.02
			c0,0.453,0.079,0.877,0.237,1.271c0.158,0.396,0.372,0.737,0.643,1.028c0.27,0.292,0.592,0.521,0.962,0.689
			c0.37,0.169,0.772,0.252,1.204,0.252c0.521,0,0.974-0.096,1.357-0.287c0.384-0.192,0.757-0.47,1.121-0.834l0.36,0.35
			c-0.192,0.186-0.391,0.355-0.592,0.51c-0.202,0.154-0.419,0.287-0.647,0.396c-0.23,0.109-0.479,0.194-0.746,0.256
			C348.987,113.392,348.695,113.422,348.38,113.422z"></path>
		<path d="M356.413,106.099h0.505l4.968,6.264v-6.264h0.514v7.2h-0.4l-5.071-6.397v6.397h-0.515V106.099z"></path>
		<path d="M371.533,113.422c-0.55,0-1.045-0.101-1.486-0.304c-0.442-0.201-0.822-0.472-1.137-0.812
			c-0.315-0.34-0.56-0.731-0.73-1.178c-0.171-0.445-0.257-0.916-0.257-1.409v-0.021c0-0.493,0.087-0.965,0.262-1.413
			c0.175-0.449,0.42-0.846,0.736-1.188c0.315-0.343,0.695-0.615,1.141-0.818c0.445-0.202,0.943-0.304,1.491-0.304
			c0.542,0,1.035,0.102,1.481,0.304c0.445,0.203,0.826,0.474,1.142,0.812c0.316,0.34,0.56,0.732,0.73,1.179
			c0.172,0.445,0.258,0.915,0.258,1.409c0.007,0.007,0.007,0.013,0,0.02c0,0.495-0.088,0.966-0.263,1.415
			c-0.175,0.449-0.42,0.846-0.735,1.188c-0.316,0.344-0.698,0.616-1.147,0.817C372.569,113.322,372.074,113.422,371.533,113.422z
			 M371.553,112.939c0.446,0,0.855-0.083,1.229-0.252c0.374-0.168,0.696-0.397,0.967-0.689c0.271-0.291,0.481-0.632,0.633-1.022
			c0.151-0.391,0.226-0.81,0.226-1.255v-0.021c0-0.445-0.076-0.865-0.23-1.26c-0.154-0.394-0.367-0.736-0.638-1.028
			c-0.271-0.291-0.595-0.522-0.972-0.694c-0.378-0.171-0.789-0.257-1.234-0.257c-0.446,0-0.855,0.084-1.229,0.252
			c-0.374,0.168-0.695,0.397-0.967,0.688c-0.272,0.292-0.483,0.633-0.633,1.024c-0.15,0.392-0.227,0.811-0.227,1.256v0.02
			c0,0.446,0.077,0.866,0.232,1.261c0.154,0.395,0.366,0.737,0.638,1.028c0.271,0.292,0.595,0.523,0.972,0.694
			C370.696,112.854,371.107,112.939,371.553,112.939z"></path>
		<path d="M380.688,106.099h0.535v6.717h4.227v0.483h-4.762V106.099z"></path>
		<path d="M394.048,113.422c-0.549,0-1.044-0.101-1.486-0.304c-0.441-0.201-0.821-0.472-1.136-0.812
			c-0.315-0.34-0.559-0.731-0.73-1.178c-0.172-0.445-0.258-0.916-0.258-1.409v-0.021c0-0.493,0.088-0.965,0.263-1.413
			c0.175-0.449,0.42-0.846,0.735-1.188s0.696-0.615,1.142-0.818c0.445-0.202,0.943-0.304,1.491-0.304
			c0.542,0,1.035,0.102,1.482,0.304c0.445,0.203,0.826,0.474,1.142,0.812c0.315,0.34,0.559,0.732,0.73,1.179
			c0.171,0.445,0.257,0.915,0.257,1.409c0.007,0.007,0.007,0.013,0,0.02c0,0.495-0.088,0.966-0.262,1.415
			c-0.175,0.449-0.421,0.846-0.736,1.188c-0.315,0.344-0.697,0.616-1.147,0.817C395.085,113.322,394.59,113.422,394.048,113.422z
			 M394.068,112.939c0.445,0,0.855-0.083,1.229-0.252c0.373-0.168,0.695-0.397,0.967-0.689c0.27-0.291,0.481-0.632,0.633-1.022
			c0.15-0.391,0.226-0.81,0.226-1.255v-0.021c0-0.445-0.077-0.865-0.231-1.26c-0.154-0.394-0.366-0.736-0.638-1.028
			c-0.271-0.291-0.595-0.522-0.972-0.694c-0.377-0.171-0.789-0.257-1.234-0.257c-0.446,0-0.855,0.084-1.228,0.252
			c-0.374,0.168-0.696,0.397-0.967,0.688c-0.272,0.292-0.482,0.633-0.633,1.024c-0.151,0.392-0.227,0.811-0.227,1.256v0.02
			c0,0.446,0.077,0.866,0.232,1.261s0.367,0.737,0.638,1.028c0.271,0.292,0.595,0.523,0.972,0.694
			C393.211,112.854,393.623,112.939,394.068,112.939z"></path>
		<path d="M406.505,113.422c-0.569,0-1.078-0.098-1.528-0.293c-0.448-0.195-0.827-0.461-1.136-0.797
			c-0.309-0.335-0.545-0.729-0.71-1.178c-0.164-0.449-0.247-0.928-0.247-1.435v-0.021c0-0.486,0.084-0.954,0.252-1.403
			c0.168-0.448,0.408-0.846,0.72-1.188c0.312-0.344,0.688-0.618,1.127-0.823c0.439-0.206,0.926-0.31,1.461-0.31
			c0.294,0,0.564,0.021,0.807,0.062c0.243,0.041,0.471,0.104,0.68,0.186c0.209,0.081,0.407,0.181,0.596,0.298
			c0.189,0.117,0.372,0.251,0.551,0.401l-0.35,0.401c-0.281-0.247-0.603-0.453-0.962-0.617c-0.36-0.165-0.812-0.247-1.353-0.247
			c-0.44,0-0.841,0.086-1.203,0.257c-0.363,0.171-0.678,0.404-0.941,0.698c-0.265,0.295-0.469,0.636-0.611,1.026
			c-0.145,0.391-0.217,0.801-0.217,1.233v0.02c0,0.466,0.07,0.897,0.211,1.294c0.141,0.397,0.345,0.739,0.612,1.027
			c0.267,0.287,0.591,0.514,0.972,0.678c0.38,0.165,0.811,0.246,1.29,0.246c0.227,0,0.45-0.021,0.669-0.066
			c0.22-0.044,0.428-0.104,0.623-0.179c0.195-0.076,0.379-0.163,0.55-0.262c0.172-0.1,0.322-0.203,0.452-0.312v-2.061h-2.406v-0.483
			h2.921v2.77c-0.329,0.288-0.735,0.539-1.219,0.755C407.631,113.315,407.094,113.422,406.505,113.422z"></path>
		<path d="M415.041,106.099h0.534v7.2h-0.534V106.099z M416.018,104.062l0.627,0.309l-1.101,1.061h-0.432L416.018,104.062z"></path>
		<path d="M424.225,106.048h0.515l3.353,7.251h-0.586l-0.916-2.016h-4.248l-0.915,2.016h-0.557L424.225,106.048z M426.365,110.8
			l-1.893-4.166l-1.902,4.166H426.365z"></path>
	</g>
</g>
</svg>
