<?xml version="1.0" encoding="UTF-8" standalone="no"?>
<svg
   xmlns:dc="http://purl.org/dc/elements/1.1/"
   xmlns:cc="http://creativecommons.org/ns#"
   xmlns:rdf="http://www.w3.org/1999/02/22-rdf-syntax-ns#"
   xmlns:svg="http://www.w3.org/2000/svg"
   xmlns="http://www.w3.org/2000/svg"
   viewBox="0 0 568.2 157.3"
   height="157.3"
   width="568.2"
   xml:space="preserve"
   version="1.1"
   id="svg7133"><defs
     id="defs7137" /><path
     d="m 552.3,107.4 -0.6,0 0,-1.5 0.9,0 c 0.5,0 1.1,0.1 1.1,0.7 0,0.8 -0.7,0.8 -1.4,0.8 z m 1.9,-0.8 c 0,-0.8 -0.4,-1.2 -1.3,-1.2 l -1.8,0 0,4.4 0.6,0 0,-2 0.8,0 1.3,2 0.5,0 -1.2,-2 c 0.6,0 1.1,-0.4 1.1,-1.2 m -1.7,4.2 c -1.8,0 -3.2,-1.4 -3.2,-3.2 0,-1.8 1.4,-3.3 3.2,-3.3 1.8,0 3.2,1.5 3.2,3.3 0,1.8 -1.4,3.2 -3.2,3.2 z m 0,-7 c -2,0 -3.8,1.7 -3.8,3.8 0,2 1.8,3.8 3.8,3.8 2.1,0 3.7,-1.8 3.7,-3.8 0,-2.1 -1.6,-3.8 -3.7,-3.8 M 402.8,46.7 c -3.1,0 -5.6,2.4 -5.6,5.3 0,3.1 2.4,5.5 5.4,5.5 l 0,0.4 0,-0.4 c 3.1,0 5.5,-2.4 5.6,-5.3 0,-3.1 -2.5,-5.5 -5.4,-5.5 m -192.4,0 c -3.1,0 -5.6,2.4 -5.6,5.3 0,3.1 2.4,5.5 5.5,5.5 l 0,0.4 0,-0.4 c 3,0 5.4,-2.4 5.6,-5.3 0,-3.1 -2.6,-5.5 -5.5,-5.5 m 150.9,-26.5 0,0 0,0 M 171.9,82 c -2.4,9.8 -6.9,21.4 -15.2,22 -0.3,0 -0.5,0 -0.7,0 -3.4,0 -5.4,-2.2 -5.7,-6.6 -0.5,-5.6 1.9,-12.2 6,-16.7 2.7,-2.8 5.7,-4.4 8.4,-4.4 l 0.1,0 c 3.5,0 6,2.8 7.1,5.5 l 0.1,0.1 -0.1,0.1 z m 76,-53.8 0.1,-0.2 c 0.8,0 1.5,0.4 2.1,1.2 2.7,3.8 2.7,17.2 -2,32.4 -2.6,8.8 -6.2,17 -10.4,23.9 l -0.6,1.1 -0.2,-1.2 c -0.5,-3.8 -0.6,-7.6 -0.9,-11 -1.2,-23 5.9,-46 11.9,-46.2 z m -63.1,80 c 8,-0.7 14.4,-11.6 16.7,-16.2 l 0.6,-1.2 0.3,1.2 c 1.1,6.7 4.7,17.6 15.7,17.8 l 0.2,0 c 4.8,0 10.2,-3 15.8,-8.6 l 0.4,-0.4 0.3,0.4 c 3.7,6.3 8.7,9.6 14,9.4 7.9,-0.4 12.5,-6 12.9,-9.9 0.2,-0.9 -0.1,-1.9 -0.6,-2.5 -0.7,-0.7 -1.8,-0.8 -2.4,-0.2 l -0.4,0.4 c -1.9,1.8 -5.2,5 -9,5.2 -4.5,0.2 -7.8,-2.5 -10,-8.1 l -0.1,-0.3 0.1,-0.1 c 12.6,-16.3 21.2,-41.1 20.4,-57.7 -0.4,-7.8 -2.6,-17 -11,-17 -0.3,0 -0.4,0 -0.7,0 -3.2,0.2 -6.1,1.8 -8.7,4.6 -7.8,8.8 -12,30.2 -10.5,54.8 0.4,5.2 1.2,9.8 2.7,14.2 l 0.1,0.2 -0.1,0.2 c -4.7,5.4 -9.2,8.4 -13,8.4 -8.8,0 -8.4,-14.8 -7.7,-27 0.1,-2.6 0.4,-4.3 -0.4,-5.2 -0.5,-0.7 -1.5,-1.1 -2.9,-1.1 l -0.2,0 c -3,0 -3.7,0.7 -5.3,5.3 -3.3,9.6 -9.9,25.9 -16.5,25.9 -1.9,-0.1 -3.2,-0.7 -4.3,-1.9 -3.2,-4.1 -0.7,-14.4 1.2,-22.5 0.4,-1.5 0.8,-2.9 1.1,-4.3 0.4,-1.8 0.2,-3.3 -0.4,-4.2 -0.7,-0.8 -2.2,-1.2 -3.9,-1.1 -2.9,0.3 -4.6,1.5 -5.6,6.8 l -0.1,1.2 -0.7,-0.8 c -1.2,-1.9 -3.6,-4 -8.1,-4 -0.4,0 -0.8,0 -1.2,0 -4.8,0.4 -10.3,3.7 -14.3,8.7 -4.6,5.8 -6.8,13.2 -6.2,20.8 0.1,0.2 0.1,0.6 0.2,1 l 0,0.3 -0.1,0.1 c -2.8,3.1 -5.6,4.6 -8.4,4.6 -4.4,0 -6.9,-3.2 -6.9,-8.6 0,-9 6.1,-36.2 6.1,-46.1 0,-10.5 -4.7,-16.3 -12.8,-16.3 l -0.1,0 c -11.8,0 -21.1,13.5 -29.9,41.1 -0.8,2.5 -1.8,5.5 -2.4,8 l -1.4,4.1 0.4,-4.2 C 88.5,73.8 89.1,64.3 89.5,55.5 89.9,42 88,33.5 83.9,29.1 81.6,26.8 78.7,25.6 74.8,25.6 l -0.1,0 c -14.4,0 -21.5,24.6 -26.5,41.8 -1.5,5.2 -4.6,16.9 -6.6,24.9 l 1.2,-1.9 C 43.8,80.3 46.3,55 46.2,41.2 46,26.4 41.1,19.9 30.3,19.8 l -0.1,0 c -5.9,0 -9.9,2.9 -12.2,5.3 -3.8,3.9 -6.1,9.5 -6,14.4 0.1,2.9 1.9,5.6 3.3,5.6 0.9,0 1.4,-1.2 1.6,-1.9 3.3,-11.2 7.7,-16.5 13.3,-16.5 2.2,0 4,0.7 5.3,2.1 4.3,4.7 3.5,17.2 2.1,40.2 -0.5,7.3 -1,15.7 -1.4,25.2 -0.2,1.6 -0.2,3.2 -0.3,4.6 -0.4,6.7 -0.8,11.9 1.7,12.3 3.2,0.4 5.4,-0.9 6.4,-4.1 1.6,-4.8 5.2,-17.9 12.3,-41.8 C 63,42.3 68,34 74.4,34 c 7.6,0 8.1,12.8 6.7,39.9 -0.3,5.9 -0.7,12.3 -1,19.3 0,1.1 -0.1,2 -0.1,3 -0.2,5.8 -0.5,10.5 1.2,12.2 0.5,0.6 1.2,0.8 2.1,0.8 3.2,0 4.3,-2.8 5.9,-7.4 0.3,-1 0.5,-1.8 0.9,-2.7 11.1,-30.7 19.4,-57.2 30.3,-57.2 3.4,0 5.9,2.7 5.9,7.9 0,12.1 -5.9,35.4 -5.9,47.3 0,4.3 1.2,8 3.5,10.7 2.4,2.8 5.7,4.2 9.6,4.2 l 0.1,0 c 3.8,0 7.5,-1.7 11.5,-5.3 l 0.3,-0.3 0.4,0.4 c 2.5,3.4 6.6,5.2 11,5 7,-0.6 12.7,-6.7 14.8,-12.4 l 0.4,-1.2 0.4,1.2 c 1.6,4.2 5.1,9.3 12.4,8.8 m 347,-29.4 0,0 0,0 m -16.1,17.2 0,-0.1 -0.3,-0.5 0.1,-0.2 c 5.2,-10.6 11.1,-16.8 16.3,-16.8 l 0.1,0 c 5.9,0 9.9,5.4 9.8,12.8 0,5 -2.2,7.9 -4,9.4 -2.2,1.7 -5,2.8 -7.8,2.8 -6.8,0 -11.4,-4 -14.2,-7.4 z m -1.4,40.4 c -0.9,1.2 -2,1.7 -3.4,1.7 -1.8,0 -3,-0.7 -3.9,-1.7 -2.4,-3.2 -1.7,-10.8 2.3,-24.4 0.4,-1.6 0.9,-3.3 1.4,-4.9 l 0.4,-1.3 0.4,1.3 c 4.7,15.8 5.5,25.7 2.8,29.3 z M 347,63.9 c 0.2,-3.5 0.4,-6.8 0.8,-9.9 2.7,-20.1 8.2,-34.2 13.5,-34.2 l 0,0 c 2.5,0 3.7,1.8 3.7,5.6 -0.1,9 -5.8,22.1 -17.2,38.8 l -0.9,1.3 0.1,-1.6 z m 183.6,46 0.1,0 c 11.1,0 18.8,-7.6 19,-18.5 0,-5.5 -1.6,-10.4 -4.4,-13.9 -3.1,-3.9 -7.4,-5.9 -12.4,-5.9 l -0.2,0 c -6.6,0 -13,5.1 -19.2,15.8 l -0.5,0.8 -0.3,-1 c -1.6,-4.5 -2.9,-8.2 -3.7,-10.5 -0.7,-1.6 -0.8,-2.3 -0.9,-2.5 -0.3,-1.2 -1.2,-1.9 -2.6,-1.9 -0.8,0 -1.6,0.3 -2.4,0.8 -0.8,0.4 -1.2,1.1 -1.4,1.9 l 0,0.1 c -6.2,19.2 -11.2,28.7 -15.6,28.7 -0.6,0 -1.1,-0.3 -1.5,-0.7 -1.1,-1.2 -0.8,-4.3 -0.4,-8.4 0.3,-2.9 0.5,-6.4 0.4,-10 -0.3,-6.9 -4,-11.2 -10.1,-11.2 -7.9,0 -13,8.3 -15.2,13.2 l -0.7,1.5 -0.1,-1.6 c -0.7,-6.2 -2.7,-13.5 -9.2,-13.5 -7.6,0 -13.3,8.9 -16.8,16.4 l -0.9,2 0,-2.3 c 0.4,-10 0.8,-15.8 1,-17.4 0.3,-1.6 0.2,-2.7 -0.4,-3.4 -0.5,-0.5 -1.4,-0.8 -2.9,-0.6 -2.4,0.1 -3.6,1.6 -5.5,6.5 -3,8.1 -10.8,26.9 -17,26.9 -1.2,0 -2.3,-0.4 -3,-1.2 -2.6,-2.9 -1.6,-11 -0.1,-22.2 l 0.1,-0.8 c 0.7,-5.4 -0.5,-6.6 -3.3,-7 -0.4,-0.1 -0.7,-0.1 -0.9,-0.1 -2.3,0 -3.4,2.1 -5.5,8.3 -3.9,10.9 -8.8,22.4 -14.5,22.4 -0.2,0 -0.4,0 -0.7,-0.2 -2.9,-0.4 -2.9,-4.9 -2.8,-10.6 0,-3.1 0,-6.7 -0.4,-9.9 -0.9,-5.6 -4.3,-9.2 -8.8,-9.2 -9.1,0 -15.1,11.6 -18,18.5 l -0.5,1.5 -0.3,-1.6 C 347.7,86 347.2,81.4 347,75.8 l 0,-0.3 0,-0.1 C 364,54.2 371.6,38.7 371.7,25.5 371.8,17.1 368,12 361.3,12 356.5,12 345.2,16 341.2,53.1 340.4,60 340,67 340,74 l 0,0.2 -0.2,0.1 c -7.7,11.2 -24.2,30.5 -40.3,30.5 -14.7,0 -26.3,-11.8 -26.3,-32.8 0,-28 19.7,-45.2 34.7,-45.2 l 0.1,0 c 3.2,0.2 6,1 8,2.7 2.1,1.7 3.2,4.3 3.2,7.1 0,3.8 -1.4,5.8 -2.6,7.8 -0.2,0.4 -0.5,1 -0.9,1.5 -0.3,0.5 -0.5,1.3 -0.1,1.9 0.4,0.6 1.4,1.2 2.6,1.2 3.5,0 9,-5.2 9,-13 0.1,-8.1 -6.8,-16.4 -18.9,-16.4 -18.4,0 -43.2,20.3 -43.2,53.1 0,23.2 14.5,39.2 34.2,39.2 14,0 27.7,-10 40,-26.8 l 0.8,-0.9 0,1.2 c 0.3,6.1 0.8,10.9 1.1,14.5 0.2,2.3 0.4,3.9 0.4,4.8 0,2 0.2,3.3 0.9,4.1 0.7,1 1.7,1.4 3.5,1.4 2.6,0 3.2,-1.9 4.4,-6.6 l 0.2,-1.3 c 1.4,-5.6 6.4,-23.9 13.9,-23.9 1.2,0 2.1,0.3 2.8,1.1 1.7,1.7 1.6,5.3 1.3,9.6 -0.1,2.5 -0.2,5.2 0,7.9 0.7,7 3.8,10.5 9.4,10.6 5.7,0 11.7,-6.2 14.9,-12 l 0.7,-1 0.1,1.2 c 0.7,3 3.2,13.2 11.5,13.2 7.3,0 13.7,-7.9 20.6,-23.9 l 1,-2.1 0,2.2 c -0.2,6.2 -0.6,13.6 -0.6,19.4 0,4.4 0.4,6.1 2.6,6.1 0.1,0 0.2,0 0.4,0 2,0 3.3,-1.2 4,-3.5 5.3,-18.2 9.8,-26.8 14.2,-26.8 4.4,0 4.8,8 5.2,22.3 l 0,1.1 c 0.1,4.9 0.3,7 3.5,7.2 2.2,0 2.8,-1.9 4.1,-6.4 0.1,-1 0.4,-1.9 0.7,-3 C 465.1,87 468.7,81 473,81 c 3.7,0 4,3.8 4,5.2 0.3,2.6 -0.1,5.6 -0.4,8.2 -0.1,2.6 -0.4,5.2 -0.4,7.8 0.3,5.7 3.5,8.9 8.9,8.9 7.1,0 13.5,-8.4 19.2,-24.8 l 0.4,-1.1 0.4,1.1 c 1.1,2.5 2.4,6.1 3.6,10.3 l 0,0.1 0,0.1 c -5.4,12.2 -9.3,25.6 -9.3,32.8 -0.1,9.4 4.1,15.6 10.9,15.7 l 0,0 c 3.8,0 12.3,-1.5 12.4,-15.1 0.2,-5.6 -1.2,-13.4 -3.8,-23.2 l -0.4,-1.2 1,0.6 c 3.4,2.3 7.2,3.5 11.1,3.5 m -365.9,-33.2 0,0 0,0"
     id="path7163" /><metadata
     id="metadata7790"><rdf:RDF><cc:Work
         rdf:about=""><dc:title></dc:title></cc:Work></rdf:RDF></metadata></svg>