<?xml version="1.0"?>

<!-- Generator: Adobe Illustrator 19.1.0, SVG Export Plug-In . SVG Version: 6.00 Build 0)  -->
<svg version="1.1" id="Capa_1" xmlns="http://www.w3.org/2000/svg" xmlns:xlink="http://www.w3.org/1999/xlink" x="0px" y="0px" width="270.7px" height="206.5px" viewBox="-504 217.5 270.7 206.5" style="enable-background:new -504 217.5 270.7 206.5;" xml:space="preserve">

<path class="st0" d="M-391.5,352.1c-7.1,0-10.7,3.5-13.5,5.9s-2.4,4.6,0.4,4.6s6.2-8.8,12.4-8.8c5.3,0,5.3,4.6,5.3,8.5
	c0,0.4,0,3.6,0,3.6c0,4.3-5.2,2.9-12.1,5.4c-5.1,1.8-10.7,4.8-10.7,12.4s6.6,10,11.2,10s8.6-2.4,9.8-3.5c1.3-1.1,1.8-0.7,2.3,0.1
	c0.5,0.8,0.6,3.1,2.8,3.1c2.3,0,2.6-1.4,2.6-1.4s0-24,0-29.7C-381,356.7-384.4,352.1-391.5,352.1L-391.5,352.1z M-386.9,371.5
	L-386.9,371.5c0,0,0,12.1,0,14.4s-5.4,5.1-8.6,5.1s-8.2-1.3-8.2-7.2c0-5.9,5-9,7.5-10.3c3.8-2,6.6-3,8-3
	C-386.9,370.5-386.9,371.5-386.9,371.5z"></path>
<path class="st0" d="M-314.1,352.1c-7.1,0-10.7,3.5-13.5,5.9s-2.4,4.6,0.4,4.6s6.2-8.8,12.4-8.8c5.3,0,5.3,4.6,5.3,8.5
	c0,0.4,0,3.6,0,3.6c0,4.3-5.2,2.9-12.1,5.4c-5.1,1.8-10.7,4.8-10.7,12.4s6.6,10,11.2,10s8.6-2.4,9.8-3.5c1.3-1.1,1.8-0.7,2.3,0.1
	c0.5,0.8,0.6,3.1,2.8,3.1c2.3,0,2.6-1.4,2.6-1.4s0-24,0-29.7C-303.6,356.7-307,352.1-314.1,352.1L-314.1,352.1z M-309.6,371.5
	L-309.6,371.5c0,0,0,12.1,0,14.4s-5.4,5.1-8.6,5.1s-8.2-1.3-8.2-7.2c0-5.9,5-9,7.5-10.3c3.8-2,6.6-3,8-3
	C-309.5,370.5-309.6,371.5-309.6,371.5z"></path>
<path class="st0" d="M-417.8,348.2c0,0,0-0.5,0-0.7c0-2.4-1-6-5.1-6s-4.7,3.3-4.7,3.3s-12.1,39.4-12.6,40.8s-1.1,0.4-1.1,0.4
	s-10.2-37-10.9-38.5c-0.7-1.6-1.8-6-6.7-6s-4.6,4.7-4.6,4.7s0,45.9,0,46c0,0.7,0.5,1.2,1.2,1.2c0.1,0,0.7,0,0.8,0
	c0.6,0,1.2-0.5,1.2-1.2v-41.1c0,0,0,0,0-0.1c0-3.5,0.2-3.9,0.9-3.9s1.2,1.8,1.2,1.8s9.8,32.9,11.6,38.4c1.8,5.4,2.6,6.1,4.4,6.1
	s3.3-3.3,3.3-3.3s8.8-28,10.5-33.8c1.4-4.7,2.6-9.1,3.7-9.1c0.3,0,0.9,0.1,0.9,2.3c0,13,0,41.8,0,41.8c0,0.5,0,0.4,0,0.4
	c0,0.7,0.8,1.8,3,1.8c2.7,0,3-1.4,3-2s0-1.5,0-1.5L-417.8,348.2L-417.8,348.2z"></path>
<path class="st0" d="M-339.7,364.2c0-11.5-8.6-12.1-11.9-12.1s-10.3,3.9-11.1,3.9c-0.4,0-0.5-0.3-0.6-0.6v-0.5c0-1.6-1.3-2.9-3-2.9
	s-3,1.3-3,2.9v35.8c0,1.6,1.3,2.9,3,2.9c1.6,0,3-1.3,3-2.9v-30.5c0-0.1,0.1-0.2,0.1-0.3c0-1.7,5.6-5.3,11.4-5.3s6.1,6.4,6.1,6.4
	v29.7c0,1.6,1.3,2.9,3,2.9s3-1.3,3-2.9v-24.5C-339.7,365.5-339.7,364.9-339.7,364.2z"></path>
<path class="st0" d="M-279,370.1c0,0-9.1-2.6-9.1-8.4c0-7,4.4-7.9,6.4-7.9c0,0,2.5-0.3,4.7,1.7c2.1,2.1,2.6,3.5,4.3,3.5
	s2.7-2.9-0.4-4.9c-3.1-2.1-5.5-2.1-8.6-2.1s-11.9,2-11.9,10.4s9.3,11.4,10.7,12.1c0,0,8,3.1,8,8.5c0,5.8-3.7,8.6-6.9,8.6
	c-4.1,0-5.4-1.5-7.5-3.6s-2.3-3.3-4-3.3s-2.8,2.3-0.1,4.9c2.1,2,5.1,4.1,12.1,4.1c3.1,0,11.9-3,11.9-11.4
	C-269.5,373.7-279,370.1-279,370.1z"></path>
<path class="st0" d="M-379.6,262.1c0,0-20.3-22.5-47.4-22.5s-44.2,20.2-44.2,44.1c0,1.6,0,4.8,0,4.8s2-18.5,24.7-30.6
	C-423.8,245.8-387.1,256.1-379.6,262.1z"></path>
<path class="st0" d="M-352.3,306.3c0,0,20.3,22.5,47.4,22.5s44.2-20.2,44.2-44.1c0-1.6,0-4.7,0-4.7s-2,18.5-24.7,30.6
	C-308.1,322.6-344.8,312.3-352.3,306.3z"></path>
<path class="st0" d="M-303.6,240c-12.7,0-27.8,2.7-59.4,17.6c-31.7,14.8-50.1,25.1-70.3,25.1c-20.2,0-22.9-12.4-22.9-12.4
	s-11.2,8.5-11.1,24.2c0,15.7,15.4,34.1,38.6,34.1s49.5-14.2,63.9-20.9c14.5-6.7,46.5-22.7,65.5-22.7s22.6,13,22.6,13
	s11.2-5.7,11.1-23.5C-265.6,249.1-290.9,240-303.6,240L-303.6,240z M-350.1,268.3L-350.1,268.3c2.8,2,3.1,6.2,1.3,6.4
	c-1.8,0.2-2.6-2.6-3.5-4.3c-0.9-1.7-4.3-5.1-4.3-5.1C-354.6,265.5-352.9,266.3-350.1,268.3L-350.1,268.3z M-369.4,268.4
	L-369.4,268.4c0.3,1,0.9,2.3,1.6,1.7s1.6-1.9,1.6-1.9s1,2.4,1.5,3.3s0.5,4.9-1.6,4.6c-2-0.2-4-3.6-4.3-5.4s-0.3-4.3-0.3-4.3
	S-369.8,267.4-369.4,268.4L-369.4,268.4z M-390.1,293.6L-390.1,293.6c-1.6-1.8,0.8-4.7,1.9-6.9c1.1-2.2,2.2-8.4,2.2-8.4
	c1.4,2.2,1.8,4.6,1.8,9.2C-384.3,292-388.5,295.4-390.1,293.6L-390.1,293.6z M-349.5,291.5L-349.5,291.5c-3.3,1.1-17.8,4.9-23.3,1
	c-4.1-2.8-5.5-5.9-4.9-13.6c0.7-7.7,2.1-5.9,2-1c0,0-0.1,8.3,1.8,10s6.3,2.6,12,2.6s9.1-2.4,8.3-5.5c-0.8-3.2-1.1-5-1.1-5
	s2.5,2.6,4.6,5.4C-347.9,288.2-346.2,290.4-349.5,291.5z"></path>
</svg>
