 <svg 
   xmlns="http://www.w3.org/2000/svg"
   viewBox="0 0 244 60"
   
   height="60"
   width="244">
   
  <path
     d="m 32.1,8 c -10.54,0 -19.06,8.52 -19.06,19.06 0,3.97 1.21,7.64 3.28,10.69 l -4.16,4.16 5.34,5.34 4.21,-4.21 c 2.99,1.95 6.56,3.09 10.39,3.09 3.82,0 7.37,-1.14 10.35,-3.07 l 3.95,3.95 5.34,-5.35 -3.88,-3.87 c 2.08,-3.05 3.3,-6.75 3.3,-10.73 C 51.16,16.69 42.9,8.26 32.6,8 32.46,8 32.3,8 32.1,8 Z m 0,6.31 c 7.03,0 12.76,5.72 12.76,12.75 0,7.03 -5.73,12.75 -12.76,12.75 -2.07,0 -4.03,-0.51 -5.77,-1.39 l 4.12,-4.12 -5.34,-5.34 -0.35,0.35 -3.85,3.85 c -0.99,-1.81 -1.56,-3.89 -1.56,-6.1 0,-7.03 5.73,-12.75 12.75,-12.75 z m 0,9.1 c -2.02,0 -3.65,1.63 -3.65,3.65 0,2.02 1.63,3.65 3.65,3.65 2.02,0 3.66,-1.63 3.66,-3.65 0,-2.02 -1.64,-3.65 -3.66,-3.65 z m 186.2,-9.34 c -4,0 -7.3,1.32 -9.8,3.97 -2.5,2.62 -3.8,6.07 -3.8,10.35 0,4.28 1.3,7.74 3.8,10.39 2.5,2.62 5.8,3.93 9.8,3.93 3.1,0 5.7,-0.8 7.9,-2.4 l 2.7,2.25 2.9,-3.51 -2.4,-2 c 1.6,-2.47 2.4,-5.35 2.4,-8.66 0,-4.28 -1.2,-7.73 -3.8,-10.35 -2.5,-2.65 -5.7,-3.97 -9.7,-3.97 z m -148.39,0.55 -3.7,27.54 3.93,0 2.6,-20.81 7.63,14.28 7.48,-14.28 2.6,20.81 3.93,0 -3.66,-27.54 -3.22,0 -7.16,13.65 -7.24,-13.65 -3.19,0 z m 126.89,0 0,27.54 5,0 0,-27.54 -5,0 z m 21.5,4.29 c 2.6,0 4.6,0.86 6,2.59 1.3,1.74 2,4.03 2,6.89 0,1.99 -0.3,3.73 -1,5.19 l -3.5,-2.91 -2.9,3.5 3.3,2.8 c -1.1,0.6 -2.4,0.9 -3.9,0.9 -2.6,0 -4.6,-0.86 -6,-2.59 -1.4,-1.74 -2.1,-4.03 -2.1,-6.89 0,-2.86 0.7,-5.15 2.1,-6.89 1.4,-1.73 3.4,-2.59 6,-2.59 z m -114,3.58 c -2.6,0 -4.76,0.67 -6.49,2 l 0.51,2.88 c 1.68,-1.16 3.38,-1.74 5.08,-1.74 1.5,0 2.5,0.32 3.2,0.95 0.7,0.6 1,1.77 1,3.5 -1.4,0 -2.7,0.16 -3.9,0.39 -1.3,0.21 -2.5,0.56 -3.7,1.03 -1.17,0.47 -2.12,1.18 -2.86,2.12 -0.71,0.95 -1.06,2.06 -1.06,3.35 0,1.63 0.54,2.96 1.61,4.01 1.1,1.05 2.51,1.58 4.31,1.58 2.3,0 4.3,-0.95 5.9,-2.84 0.5,1.03 1,1.76 1.6,2.21 0.7,0.42 1.8,0.63 3.4,0.63 l 0.3,0 0.5,-2.84 -0.3,0 c -1,0 -1.6,-0.29 -1.9,-0.86 -0.2,-0.61 -0.4,-1.67 -0.4,-3.19 l 0,-3.94 c 0,-3.43 -0.5,-5.83 -1.5,-7.2 -1,-1.36 -2.8,-2.04 -5.3,-2.04 z m 21,0 c -2.4,0 -4.5,0.81 -6.3,2.44 l -0.4,-2.05 -2.8,0 0,19.28 3.5,0 0,-14.01 c 1,-1.67 2.7,-2.52 5.3,-2.52 1.8,0 3.1,0.48 3.9,1.42 0.8,0.92 1.2,2.41 1.2,4.49 l 0,10.62 3.5,0 0,-10.62 c 0,-6.04 -2.6,-9.05 -7.9,-9.05 z m 18.5,0 c -2.6,0 -4.8,0.67 -6.5,2 l 0.5,2.88 c 1.6,-1.16 3.3,-1.74 5,-1.74 1.5,0 2.6,0.32 3.2,0.95 0.7,0.6 1,1.77 1,3.5 -1.3,0 -2.6,0.16 -3.9,0.39 -1.2,0.21 -2.4,0.56 -3.6,1.03 -1.2,0.47 -2.2,1.18 -2.9,2.12 -0.7,0.95 -1.1,2.06 -1.1,3.35 0,1.63 0.6,2.96 1.6,4.01 1.1,1.05 2.6,1.58 4.4,1.58 2.3,0 4.2,-0.95 5.9,-2.84 0.4,1.03 0.9,1.76 1.6,2.21 0.6,0.42 1.7,0.63 3.3,0.63 l 0.3,0 0.5,-2.84 -0.3,0 c -1,0 -1.6,-0.29 -1.8,-0.86 -0.3,-0.61 -0.4,-1.67 -0.4,-3.19 l 0,-3.94 c 0,-3.43 -0.5,-5.83 -1.6,-7.2 -1,-1.36 -2.8,-2.04 -5.2,-2.04 z m 18.5,0 c -2.5,0 -4.4,0.73 -5.8,2.2 -1.4,1.47 -2.1,3.32 -2.1,5.55 0,2.57 1.1,4.67 3.4,6.3 -0.8,0.39 -1.4,0.86 -1.8,1.41 -0.3,0.53 -0.5,1.01 -0.5,1.46 0,1 0.7,1.81 2,2.44 -2.3,0.81 -3.5,2.25 -3.5,4.33 0,1.52 0.8,2.87 2.2,4.05 1.5,1.18 3.8,1.77 6.9,1.77 3,0 5.3,-0.6 7,-1.81 1.8,-1.18 2.6,-2.6 2.6,-4.25 0,-0.71 -0.2,-1.36 -0.5,-1.97 -0.4,-0.57 -0.8,-1.05 -1.4,-1.41 -0.5,-0.34 -1.1,-0.66 -1.9,-0.95 -0.8,-0.29 -1.5,-0.5 -2,-0.63 -0.6,-0.13 -1.3,-0.26 -2,-0.39 -2.5,-0.42 -4.2,-0.75 -4.9,-0.98 -0.8,-0.24 -1.1,-0.59 -1.1,-1.07 0,-0.42 0.3,-0.81 0.9,-1.18 0.8,0.24 1.8,0.36 2.8,0.36 2.4,0 4.3,-0.76 5.6,-2.29 1.5,-1.52 2.2,-3.31 2.2,-5.39 0,-1.65 -0.6,-3.18 -1.8,-4.6 0.8,-0.18 1.5,-0.28 2.3,-0.28 l 0.9,0 0.4,-2.36 -0.3,0 c -1.7,0 -3.3,0.37 -4.7,1.1 -1.5,-0.94 -3.1,-1.41 -4.9,-1.41 z m 19.6,0 c -2.8,0 -5.1,0.94 -6.8,2.83 -1.7,1.89 -2.6,4.24 -2.6,7.05 0,2.91 0.9,5.33 2.8,7.27 1.8,1.95 4.4,2.92 7.6,2.92 2.1,0 4.3,-0.5 6.5,-1.5 l -0.5,-2.79 c -1.7,0.76 -3.5,1.14 -5.5,1.14 -4.4,0 -6.8,-2.3 -7.3,-6.89 l 14,0 c 0.1,-0.6 0.1,-1.23 0.1,-1.89 0,-2.54 -0.7,-4.53 -2.3,-5.98 -1.5,-1.44 -3.5,-2.16 -6,-2.16 z m -19.6,2.83 c 1.4,0 2.5,0.42 3.4,1.26 0.9,0.81 1.3,1.95 1.3,3.42 0,1.45 -0.4,2.64 -1.2,3.58 -0.8,0.95 -2,1.42 -3.4,1.42 -1.3,0 -2.5,-0.43 -3.3,-1.3 -0.9,-0.89 -1.3,-2.08 -1.3,-3.58 0,-1.44 0.4,-2.6 1.2,-3.46 0.8,-0.89 1.9,-1.34 3.3,-1.34 z m 19.6,0.31 c 1.5,0 2.7,0.4 3.5,1.19 0.8,0.78 1.2,1.87 1.2,3.26 l -10.2,0 c 0.8,-2.96 2.6,-4.45 5.5,-4.45 z m -74.3,6.89 0,4.61 c -0.6,0.78 -1.3,1.41 -2.2,1.88 -0.9,0.48 -1.8,0.71 -2.7,0.71 -2,0 -3,-0.98 -3,-2.95 0,-1.44 0.6,-2.48 1.8,-3.11 1.2,-0.65 3.3,-1.03 6.1,-1.14 z m 39.4,0 0,4.61 c -0.5,0.78 -1.3,1.41 -2.2,1.88 -0.8,0.48 -1.7,0.71 -2.7,0.71 -2,0 -3,-0.98 -3,-2.95 0,-1.44 0.6,-2.48 1.8,-3.11 1.3,-0.65 3.3,-1.03 6.1,-1.14 z m 13.5,10.19 c 1.9,0.32 3.1,0.48 3.5,0.48 3.4,0.63 5.2,1.62 5.2,2.99 0,0.81 -0.6,1.52 -1.6,2.12 -1.1,0.63 -2.5,0.95 -4.4,0.95 -1.8,0 -3.2,-0.31 -4.2,-0.91 -1.1,-0.58 -1.6,-1.32 -1.6,-2.24 0,-0.68 0.3,-1.35 0.9,-2.01 0.6,-0.66 1.3,-1.11 2.2,-1.38 z"  />
   
</svg>
