<?xml version="1.0"?>

<svg xmlns="http://www.w3.org/2000/svg" viewBox="0 0 241.87 92.502" width="241.87" height="92.502">
   <path d="m 215.39,63.403 c -0.51,0 -0.9,0.09 -1.18,0.26 -0.24,0.08 -0.45,0.19 -0.63,0.341 l 0,-0.476 -1.17,0 0,6.781 1.17,0 0,-3.485 c 0,-0.399 0,-0.779 0.1,-0.939 l 0.18,-0.522 c 0.17,-0.297 0.33,-0.445 0.59,-0.547 l 0,-0.02 c 0.19,-0.139 0.49,-0.213 0.89,-0.213 0.53,0 0.94,0.146 1.23,0.434 0.28,0.334 0.39,0.786 0.39,1.563 l 0,3.733 1.18,0 0,-3.856 c 0,-1.008 -0.22,-1.718 -0.68,-2.248 -0.54,-0.54 -1.21,-0.802 -2.06,-0.802 m -7.67,5.974 c -0.68,0 -1.19,-0.213 -1.67,-0.687 -0.42,-0.482 -0.64,-1.069 -0.64,-1.744 0,-0.673 0.22,-1.262 0.63,-1.738 0.47,-0.466 0.98,-0.693 1.56,-0.693 0.68,0 1.26,0.217 1.67,0.631 0.47,0.466 0.7,1.034 0.7,1.737 0,0.675 -0.22,1.262 -0.64,1.747 -0.46,0.508 -0.96,0.747 -1.61,0.747 m -0.1,-6.041 c -0.97,0 -1.81,0.367 -2.44,1.058 -0.69,0.763 -1.04,1.619 -1.04,2.552 0,0.944 0.36,1.807 1.04,2.489 0.64,0.701 1.48,1.056 2.5,1.056 0.97,0 1.81,-0.364 2.44,-1.056 0.69,-0.763 1.05,-1.621 1.05,-2.552 0,-0.946 -0.37,-1.807 -1.05,-2.496 -0.72,-0.715 -1.51,-1.051 -2.5,-1.051 m -5.62,-0.192 1.18,0 0,-1.675 -1.18,0 0,1.675 z m 0,7.161 1.18,0 0,-6.781 -1.18,0 0,6.781 z m -2,-8.836 -1.24,0 0,2.055 -1.18,0 0,1.239 1.18,0 0,5.542 1.24,0 0,-5.542 1.19,0 0,-1.239 -1.19,0 0,-2.055 z m -4.6,5.415 c 0,0.55 0,0.912 -0.1,1.137 -0.1,0.227 -0.11,0.384 -0.2,0.475 l 0,0.06 c -0.1,0.25 -0.3,0.473 -0.52,0.582 -0.3,0.123 -0.59,0.237 -0.92,0.237 -0.56,0 -0.95,-0.158 -1.23,-0.494 -0.28,-0.33 -0.4,-0.782 -0.4,-1.501 l 0,-3.858 -1.18,0 0,3.92 c 0,1.014 0.25,1.75 0.74,2.236 0.47,0.546 1.15,0.81 2.07,0.81 0.51,0 0.9,-0.09 1.21,-0.276 0.2,-0.123 0.38,-0.253 0.53,-0.394 l 0,0.485 1.18,0 0,-6.781 -1.18,0 0,3.359 z m -7.1,3.421 1.18,0 0,-8.836 -1.18,0 0,8.836 z m -4.49,-0.928 c -0.65,0 -1.22,-0.244 -1.61,-0.693 -0.47,-0.467 -0.7,-1.033 -0.7,-1.738 0,-0.701 0.23,-1.274 0.71,-1.749 0.4,-0.46 0.9,-0.682 1.54,-0.682 0.63,0 1.21,0.222 1.61,0.631 0.47,0.466 0.7,1.034 0.7,1.737 0,0.675 -0.22,1.262 -0.64,1.747 -0.46,0.508 -0.97,0.747 -1.61,0.747 m -0.1,-6.041 c -0.97,0 -1.81,0.367 -2.44,1.058 -0.69,0.763 -1.05,1.619 -1.05,2.552 0,0.944 0.37,1.807 1.05,2.489 0.63,0.701 1.48,1.056 2.5,1.056 1,0 1.79,-0.344 2.44,-1.049 0.7,-0.705 1.05,-1.543 1.05,-2.559 0,-0.946 -0.37,-1.807 -1.05,-2.489 -0.64,-0.701 -1.48,-1.058 -2.5,-1.058 m -5.22,3.139 c -0.1,-0.07 -0.27,-0.121 -0.59,-0.197 -0.1,-0.03 -0.16,-0.06 -0.24,-0.09 -0.17,-0.06 -0.32,-0.116 -0.38,-0.178 l -0.1,-0.04 c -0.18,-0.05 -0.25,-0.171 -0.27,-0.22 0,-0.05 -0.11,-0.227 -0.11,-0.415 0,-0.239 0.1,-0.427 0.2,-0.555 0.13,-0.13 0.32,-0.197 0.56,-0.197 0.28,0 0.45,0.06 0.53,0.17 l 0,0.05 c 0.14,0.1 0.23,0.297 0.23,0.534 l 0,0.186 1.24,0 0,-0.186 c 0,-0.58 -0.19,-1.079 -0.55,-1.438 -0.34,-0.33 -0.8,-0.49 -1.44,-0.49 -0.56,0 -1.1,0.206 -1.44,0.552 -0.41,0.406 -0.62,0.891 -0.62,1.439 0,0.519 0.18,0.874 0.35,1.167 0.21,0.273 0.71,0.54 1.51,0.807 l 0.1,0.02 c 0.37,0.158 0.63,0.274 0.72,0.452 l 0,0.04 0,0.03 c 0.12,0.07 0.17,0.248 0.17,0.531 0,0.332 -0.1,0.541 -0.26,0.68 -0.17,0.176 -0.39,0.257 -0.68,0.257 -0.23,0 -0.49,-0.141 -0.68,-0.382 -0.22,-0.221 -0.32,-0.488 -0.32,-0.866 l 0,-0.185 -1.25,0 0,0.201 c 0.1,0.745 0.28,1.279 0.66,1.659 0.39,0.457 0.92,0.687 1.57,0.687 0.64,0 1.12,-0.179 1.63,-0.613 0.41,-0.412 0.61,-0.904 0.61,-1.501 0,-0.454 -0.12,-0.869 -0.33,-1.15 -0.21,-0.334 -0.47,-0.545 -0.94,-0.752 m -7.71,-2.812 c -0.16,0.08 -0.29,0.195 -0.42,0.325 l 0,-0.471 -1.11,0 0,6.781 1.17,0 0,-4.044 c 0,-0.522 0.11,-0.906 0.35,-1.153 0.14,-0.227 0.42,-0.345 0.99,-0.408 l 0.16,-0.02 0,-1.22 -0.19,0 c -0.38,0 -0.66,0.06 -0.95,0.208 m -6.27,0.847 c 0.64,0 1.16,0.174 1.51,0.524 0.36,0.258 0.62,0.71 0.76,1.288 l -4.35,0 c 0.13,-0.536 0.35,-0.944 0.71,-1.306 0.34,-0.341 0.79,-0.506 1.37,-0.506 m 0.1,-1.179 c -0.93,0 -1.73,0.344 -2.43,1.052 -0.66,0.653 -0.99,1.514 -0.99,2.558 0,0.974 0.33,1.835 0.99,2.557 0.67,0.675 1.46,0.988 2.49,0.988 0.72,0 1.38,-0.197 1.98,-0.596 0.53,-0.397 0.98,-0.984 1.3,-1.689 l 0.12,-0.262 -1.33,0 0,0.09 c -0.25,0.443 -0.54,0.777 -0.87,0.995 -0.34,0.23 -0.75,0.343 -1.21,0.343 -0.58,0 -1.15,-0.238 -1.5,-0.64 -0.41,-0.362 -0.64,-0.807 -0.67,-1.359 l 5.72,0 0,-0.246 c 0,-1.1 -0.33,-2.021 -0.99,-2.744 -0.7,-0.697 -1.56,-1.052 -2.56,-1.052 m -5.32,-1.862 -1.18,0 0,2.055 -1.24,0 0,1.239 1.24,0 0,5.542 1.18,0 0,-5.542 1.25,0 0,-1.239 -1.25,0 0,-2.055 z m -4.05,0 -1.18,0 0,2.055 -1.24,0 0,1.239 1.24,0 0,5.542 1.18,0 0,-5.542 1.24,0 0,-1.239 -1.24,0 0,-2.055 z m -6.54,3.046 c 0.59,0 1.1,0.179 1.51,0.524 0.32,0.23 0.55,0.631 0.74,1.288 l -4.41,0 c 0.1,-0.52 0.29,-0.928 0.66,-1.297 0.4,-0.336 0.91,-0.515 1.5,-0.515 m 0.1,-1.179 c -0.97,0 -1.79,0.344 -2.49,1.044 -0.71,0.648 -1.06,1.485 -1.06,2.566 0,1.014 0.35,1.851 1.06,2.557 0.64,0.647 1.5,0.988 2.49,0.988 0.72,0 1.38,-0.197 1.97,-0.592 0.54,-0.357 0.94,-0.879 1.31,-1.693 l 0.12,-0.262 -1.34,0 -0.1,0.113 c -0.17,0.397 -0.46,0.745 -0.8,0.977 -0.34,0.23 -0.75,0.343 -1.21,0.343 -0.6,0 -1.13,-0.209 -1.61,-0.631 -0.36,-0.359 -0.59,-0.818 -0.67,-1.368 l 5.77,0 0,-0.246 c 0,-1.072 -0.31,-1.991 -0.93,-2.744 -0.7,-0.697 -1.56,-1.052 -2.56,-1.052 m -5.58,3.548 c 0,0.666 -0.21,1.26 -0.63,1.8 -0.48,0.48 -1,0.694 -1.68,0.694 -0.57,0 -1.09,-0.237 -1.48,-0.687 -0.48,-0.543 -0.7,-1.065 -0.7,-1.682 0,-0.673 0.21,-1.262 0.64,-1.747 0.45,-0.51 0.96,-0.747 1.6,-0.747 0.63,0 1.15,0.218 1.61,0.682 0.42,0.478 0.64,1.063 0.64,1.687 m -2.25,-3.484 c -0.54,0 -1.07,0.136 -1.53,0.405 -0.21,0.142 -0.47,0.328 -0.71,0.592 0,-0.09 0,-0.174 0,-0.251 l 0,-2.677 -1.18,0 0,8.837 1.19,0 -0.1,-0.826 c 0.22,0.218 0.46,0.42 0.76,0.614 0.45,0.26 0.98,0.397 1.52,0.397 0.99,0 1.78,-0.332 2.5,-1.048 0.66,-0.664 0.99,-1.464 0.99,-2.434 0,-1.042 -0.34,-1.902 -0.99,-2.554 -0.65,-0.719 -1.44,-1.055 -2.5,-1.055 m 77.96,-26.782 c -0.7,-1.663 -1.8,-2.995 -3.36,-4.081 -1.54,-1.002 -3.3,-1.51 -5.25,-1.51 -1.88,0 -3.66,0.46 -5.28,1.369 -1.32,0.735 -2.49,1.696 -3.57,2.911 l 0,-13.311 -4.21,0 0,35.661 4.21,0 0,-9.642 c 0,-3.41 0.14,-5.59 0.42,-6.665 0.47,-1.814 1.42,-3.301 2.88,-4.532 1.56,-1.246 3.12,-1.826 4.93,-1.826 1.54,0 2.82,0.385 3.79,1.125 0.96,0.842 1.62,2.014 1.96,3.487 0.24,0.953 0.36,2.86 0.36,5.672 l 0,12.381 4.22,0 0,-13.376 c 0,-3.383 -0.38,-6.037 -1.1,-7.663 m -26.32,16.149 0.27,-0.408 -3.34,-2.197 -0.28,0.355 c -2.21,2.805 -5.01,4.171 -8.58,4.171 -1.9,0 -3.65,-0.42 -5.19,-1.251 -1.52,-0.818 -2.7,-1.978 -3.6,-3.549 -0.87,-1.498 -1.31,-3.157 -1.31,-4.923 0,-2.651 0.96,-4.92 2.84,-6.748 1.98,-1.919 4.35,-2.851 7.26,-2.851 3.6,0 6.49,1.422 8.58,4.224 l 0.26,0.364 3.34,-2.118 -0.24,-0.408 c -0.74,-1.224 -1.7,-2.299 -2.86,-3.187 -1.07,-0.817 -2.4,-1.474 -4.07,-2.005 -1.52,-0.505 -3.2,-0.772 -4.89,-0.772 -2.8,0 -5.22,0.589 -7.38,1.8 -2.17,1.149 -3.93,2.821 -5.25,4.985 -1.25,2.253 -1.86,4.55 -1.86,7.027 0,3.67 1.36,6.867 4.07,9.505 2.63,2.57 6.06,3.874 10.17,3.874 2.64,0 5.02,-0.52 7.07,-1.545 2.11,-1.058 3.79,-2.517 4.99,-4.343 m -52.06,-10.72 c 0.6,-1.893 1.47,-3.343 2.6,-4.315 1.67,-1.487 3.69,-2.241 6.03,-2.241 1.37,0 2.73,0.299 4.03,0.89 1.21,0.548 2.24,1.342 3.07,2.367 0.71,0.814 1.26,1.923 1.62,3.299 l -17.35,0 z m 8.75,16.608 c 1.98,0 3.65,-0.276 5.09,-0.842 1.53,-0.574 2.88,-1.397 4.15,-2.529 1.2,-1.132 2.29,-2.645 3.15,-4.371 l 0.22,-0.424 -3.51,-1.875 -0.24,0.39 c -0.93,1.508 -1.84,2.703 -2.62,3.422 -0.99,0.772 -1.93,1.299 -2.98,1.67 -1.09,0.399 -2.25,0.592 -3.57,0.592 -2.48,0 -4.59,-0.872 -6.25,-2.592 -1.6,-1.656 -2.49,-3.765 -2.64,-6.27 l 22.53,0 0,-0.497 c -0.1,-3.516 -1.05,-6.507 -2.91,-8.889 -2.66,-3.302 -6.22,-4.976 -10.6,-4.976 -4.31,0 -7.77,1.633 -10.28,4.851 -2.01,2.519 -3.03,5.47 -3.03,8.773 0,3.512 1.19,6.679 3.54,9.412 2.41,2.795 5.66,4.155 9.96,4.155 M 115.59,32.537 c -1.62,-1.014 -3.34,-1.505 -5.24,-1.505 -1.91,0 -3.65,0.424 -5.35,1.306 -1.3,0.733 -2.47,1.696 -3.5,2.876 l 0,-3.561 -4.22,0 0,25.948 4.22,0 0,-9.644 c 0,-3.354 0.14,-5.532 0.42,-6.66 0.48,-1.83 1.46,-3.336 2.9,-4.491 1.37,-1.2 3,-1.81 4.84,-1.81 1.6,0 2.87,0.376 3.88,1.144 0.95,0.729 1.58,1.858 1.94,3.475 0.24,0.891 0.36,2.773 0.36,5.603 l 0,12.383 4.21,0 0,-13.316 c 0,-3.406 -0.36,-6.006 -1.1,-7.732 -0.74,-1.696 -1.87,-3.046 -3.36,-4.016 m -30.999,5.299 c 1.769,1.828 2.666,4.146 2.666,6.885 0,1.912 -0.386,3.499 -1.184,4.867 -0.826,1.476 -1.946,2.596 -3.424,3.422 -3.079,1.726 -6.36,1.749 -9.359,0 -1.432,-0.8 -2.573,-1.963 -3.483,-3.54 -0.83,-1.54 -1.251,-3.157 -1.251,-4.811 0,-1.689 0.431,-3.35 1.244,-4.8 0.874,-1.513 1.997,-2.659 3.444,-3.503 1.378,-0.861 2.947,-1.297 4.663,-1.297 2.629,0 4.816,0.912 6.684,2.777 m 2.54,-2.496 c -1.066,-1.228 -2.285,-2.216 -3.644,-2.949 -1.743,-0.902 -3.704,-1.359 -5.829,-1.359 -3.71,0 -6.888,1.327 -9.437,3.941 -2.615,2.613 -3.942,5.853 -3.942,9.623 0,3.726 1.303,6.983 3.875,9.681 2.555,2.619 5.73,3.946 9.441,3.946 2.11,0 3.971,-0.404 5.706,-1.237 1.431,-0.744 2.696,-1.691 3.83,-2.879 l 0,3.494 4.216,0 0,-25.948 -4.216,0 0,3.687 z M 56.198,32.421 c -1.364,-0.91 -3.03,-1.39 -4.818,-1.39 -1.974,0 -3.8,0.527 -5.436,1.573 -1.427,0.933 -2.623,2.181 -3.641,3.796 -0.496,-1.137 -0.974,-1.952 -1.509,-2.583 -0.679,-0.802 -1.61,-1.477 -2.874,-2.069 -1.259,-0.489 -2.422,-0.717 -3.663,-0.717 -1.802,0 -3.652,0.517 -5.366,1.506 -0.893,0.564 -1.775,1.376 -2.675,2.466 l 0,-3.35 -4.216,0 0,25.948 4.216,0 0,-11.076 c 0,-3.034 0.299,-5.295 0.896,-6.722 0.613,-1.473 1.517,-2.615 2.693,-3.401 2.162,-1.51 4.909,-1.708 6.921,-0.369 0.823,0.552 1.389,1.325 1.739,2.373 0.354,1.002 0.534,3 0.534,5.939 l 0,13.256 4.216,0 0,-10.265 c 0,-3.471 0.3,-5.988 0.902,-7.487 0.533,-1.422 1.418,-2.584 2.616,-3.44 1.282,-0.854 2.635,-1.288 4.024,-1.288 1.163,0 2.182,0.288 3.017,0.842 0.843,0.604 1.435,1.346 1.756,2.202 0.241,0.645 0.53,2.102 0.53,5.37 l 0,14.066 4.216,0 0,-14.126 c 0,-3.185 -0.317,-5.524 -0.969,-7.157 -0.662,-1.651 -1.708,-2.964 -3.109,-3.897 m 80.982,-9.546 -19.41,0 0,4.275 7.53,0 0,43.338 4.34,0 0,-43.338 7.54,0 0,-4.275 z"></path></svg>