<?xml version="1.0"?>

<svg xmlns="http://www.w3.org/2000/svg" viewBox="0 0 384 69" height="69" width="384">
  <path d="m 222.6,17.61 c -8.1,0 -13.6,6.34 -13.6,15.04 0,8.33 5,13.56 12.9,13.56 5.1,0 9.1,-2.54 10.6,-4.96 l -0.7,-0.86 c -1.7,2.19 -5.1,3.79 -8.7,3.79 -6.4,0 -10.2,-5.34 -10.2,-13.29 0,-7.65 3.7,-11.95 9.8,-11.95 4.7,0 7.4,2.4 8.8,7.11 h 0.8 L 232,17.93 h -0.8 c -0.3,0.57 -0.8,0.82 -1.5,0.82 -1.6,0 -3.1,-1.14 -7.1,-1.14 z M 21.53,18.28 v 0.82 c 1.43,0.28 3.5,0.65 3.36,3.79 l -0.86,16.68 c -0.19,3.56 -1.2,4.87 -3.67,5.15 v 0.82 h 8.75 v -0.82 c -2.66,-0.47 -3.42,-1.4 -3.28,-4.92 l 0.78,-16.76 8.75,22.31 h 1.09 l 8.56,-22.31 0.82,17.85 c 0.14,2.77 -0.61,3.6 -2.66,3.83 v 0.82 h 9.85 V 44.72 C 50.59,44.49 49.64,43.35 49.5,40.07 L 48.68,23 c -0.1,-2.47 0.95,-3.52 3.09,-3.71 v -0.86 h -6.8 l -8.05,20.98 -8.2,-21.13 z m 48.71,0 v 0.82 c 2.95,0.23 3.13,0.85 3.13,7.89 v 9.41 c 0,7.61 -0.32,8.09 -3.13,8.32 v 0.82 h 9.77 v -0.82 c -3.1,-0.42 -3.09,-0.65 -3.09,-8.83 v -1.52 l 1.29,-1.44 c 3.24,3.99 6.71,8.38 10.47,12.61 h 6.48 9.04 v -0.82 c -2.7,-0.18 -2.8,-0.14 -2.8,-6.13 V 28.55 h -6.35 v 0.82 c 2.75,0.1 3.08,0.24 3.08,5 v 4.18 c 0,5.98 -0.1,6.04 -2.97,6.17 -1.52,-0.14 -3.04,-0.57 -7.85,-6.13 -1.85,-2.19 -4.91,-5.87 -6.72,-8.2 l 5.82,-6.49 c 2.86,-3.14 4.41,-4.71 7.07,-4.8 v -0.82 h -9.14 v 0.82 c 1.19,0.23 1.64,0.67 1.64,1.52 0,0.57 -0.11,1.58 -1.87,3.48 l -7.19,7.93 v -5.12 c 0,-6.99 0.33,-7.43 3.09,-7.81 v -0.82 z m 29.38,1.09 c -1.24,0 -2.15,0.95 -2.15,2.19 0,1.24 0.91,2.19 2.15,2.19 1.28,0 2.18,-0.95 2.18,-2.19 0,-1.24 -0.9,-2.19 -2.18,-2.19 z m 89.68,0.31 c -2.5,0 -5.2,1.6 -5.2,5.12 0,1.34 0.4,2.56 1.1,3.99 -3.5,1.09 -5.3,4.14 -5.3,7.61 0,6.33 4.8,9.77 10.2,9.77 3.4,0 6,-1.07 8.5,-3.17 1.5,1.1 3,2.16 3.9,2.54 h 5.9 v -0.82 c -1.9,-0.19 -4.8,-1.75 -7.8,-3.98 1.1,-1.81 1.4,-4.42 1.6,-6.37 0.3,-1.66 1.5,-1.62 2.3,-1.72 v -0.74 h -7.7 v 0.74 c 1.8,0.24 3.6,0.48 3.6,3.28 0,1.48 -0.3,2.95 -0.9,3.95 -6.8,-5.28 -13,-12.59 -13,-16.25 0,-1.81 1.1,-2.66 2.8,-2.66 2.2,0 4.3,1.44 5.3,4.3 h 0.8 l -0.1,-5.12 h -0.8 c 0,0.33 -0.4,0.55 -0.5,0.55 -1,0 -2.3,-1.02 -4.7,-1.02 z m -55.4,8.52 c -3.5,0 -5.5,2.19 -5.5,4.8 0,5.71 9.7,4.56 9.7,9.22 0,1.57 -1.4,2.5 -3.9,2.5 -2.4,0 -4.5,-1.29 -5.2,-4.33 h -1 c 0,1.24 0.2,3.52 0.4,3.9 0.7,1.1 3.4,1.68 5.7,1.68 4,0 6.5,-2.35 6.5,-5.15 0,-6.28 -9.7,-5.29 -9.7,-9.34 0,-1.43 1.3,-2.15 2.9,-2.15 3.1,0 4.6,2.95 4.8,3.95 h 0.8 c 0,-2.48 -0.3,-4.03 -0.5,-4.22 -0.2,-0.19 -2.6,-0.86 -5,-0.86 z m 17.9,0 c -4.9,0 -8.3,3.94 -8.3,9.41 0,4.28 2.2,8.4 8.1,8.4 2.4,0 5.3,-0.98 7,-2.73 l -0.4,-0.82 c -1.6,0.95 -3.3,1.4 -5,1.4 -4.7,0 -6.7,-4.23 -6.5,-8.08 h 11.9 c 0.2,-3.9 -1.9,-7.58 -6.8,-7.58 z m 91.8,0 c -5.3,0 -9.1,3.87 -9.1,8.87 0,3.33 1.4,6.09 3.8,7.61 1.4,0.91 3.3,1.29 5.3,1.29 5.2,0 9,-3.81 9,-8.9 0,-3.28 -1.3,-6.02 -3.7,-7.54 -1.5,-0.91 -3.3,-1.33 -5.3,-1.33 z M 62.94,28.32 c -5.09,0 -8.91,4.56 -8.91,9.61 0,3.99 2.24,8.08 8.09,8.08 2.42,0 5.33,-0.97 6.95,-2.73 l -0.39,-0.82 c -1.57,0.95 -3.3,1.4 -4.96,1.4 -4.71,0 -6.49,-3.97 -6.49,-8.16 0,-1.95 0.47,-3.36 1.33,-4.22 0.81,-0.81 1.95,-1.09 3.09,-1.09 1.66,0 3.58,0.65 4.96,2.46 h 0.31 c 0.53,-0.67 1.05,-2.01 1.1,-3.01 -1.19,-0.95 -2.99,-1.48 -5.08,-1.48 z m 55.16,0 c -2.2,0 -4.5,1.04 -6.3,3.28 v -3.05 h -6.4 v 0.82 c 2.8,0.1 3.1,0.24 3.1,5 v 4.18 c 0,6.04 0,6.03 -3,6.17 v 0.82 h 9.1 v -0.82 c -2.7,-0.18 -2.8,-0.14 -2.8,-6.13 v -4.61 c 0,-1.57 2.2,-3.52 4.7,-3.52 2.1,0 3.8,0.91 3.8,5 v 3.4 c 0,5.67 -0.2,5.72 -2.6,5.86 v 0.82 h 8.9 v -0.82 c -3,-0.14 -3,-0.19 -3,-5.86 v -3.79 c 0,-5.13 -2.8,-6.75 -5.5,-6.75 z m 148.4,0 c -2.3,0 -4.6,1.47 -5.9,3.28 v -3.05 h -6.4 v 0.82 c 2.8,0.1 3.1,0.24 3.1,5 v 4.84 c 0,5.48 -0.1,5.47 -2.9,5.51 v 0.82 h 9 v -0.82 c -2.6,-0.23 -2.8,-0.24 -2.8,-5.66 v -4.92 c 0,-1.76 2.2,-3.68 4.6,-3.68 2.6,0 3.7,1.43 3.7,4.81 v 3.44 c 0,5.61 -0.1,5.87 -2.5,6.01 v 0.82 h 8.4 v -0.82 c -2.8,-0.23 -2.7,-0.48 -2.7,-5.86 V 34.1 c 0,-1.71 2.1,-3.64 4.7,-3.64 2.1,0 3.5,1.29 3.5,4.81 v 3.91 c 0,5.13 0,5.36 -2.5,5.54 v 0.82 h 8.9 v -0.82 c -3.1,-0.14 -2.9,-0.56 -2.9,-5.51 V 34.8 c 0,-4.71 -2.6,-6.48 -5.6,-6.48 -2.7,0 -4.9,1.52 -6.5,3.71 -0.6,-2.33 -2.3,-3.71 -5.2,-3.71 z m 32.6,0 c -2.5,0 -4.5,1.15 -5.9,2.77 V 28.55 H 287 v 0.82 c 2.6,0.1 2.9,0.26 2.9,5.82 v 11.6 c 0,6.05 0.2,6.5 -2.8,6.64 v 0.82 h 9.1 v -0.82 c -3.2,-0.1 -3,-0.62 -3,-6.95 v -2.3 c 1.3,1.28 3.3,1.79 5.1,1.79 5.2,0 8.4,-3.84 8.4,-8.98 0,-4.95 -3.2,-8.67 -7.6,-8.67 z m 16.6,0 c -1.9,0 -4.6,0.67 -6.1,1.95 0.1,0.81 0.8,2.38 1.3,2.85 l 0.4,-0.1 c 0.8,-1.85 2.1,-3.2 4.1,-3.2 2.3,0 3.2,1.58 3.2,3.44 v 1.95 c 0,1.28 -5.7,1.53 -8,3.48 -0.8,0.71 -1.4,1.61 -1.4,2.85 0,2.66 1.9,4.41 4.7,4.41 1.7,0 3.2,-0.58 4.8,-2.34 0.3,1.23 1.3,1.91 2.9,1.91 h 4.1 8.8 V 44.7 c -2.7,-0.18 -2.8,-0.14 -2.8,-6.13 v -4.61 c 0,-1.57 2.1,-3.52 4.7,-3.52 2.1,0 3.8,0.91 3.8,5 v 3.4 c 0,5.67 -0.2,5.72 -2.7,5.86 v 0.82 h 9 V 44.7 c -3,-0.14 -3.1,-0.19 -3.1,-5.86 v -3.79 c 0,-5.13 -2.7,-6.75 -5.5,-6.75 -2.1,0 -4.5,1.04 -6.2,3.28 v -3.05 h -6.4 v 0.82 c 2.8,0.1 3.1,0.24 3.1,5 v 4.18 c 0,6.04 0,6.03 -3,6.17 h -0.7 c -2.4,0 -2.7,-0.8 -2.7,-4.18 v -5.7 c 0,-1.09 -0.1,-2.08 -0.4,-2.89 -0.8,-2.66 -2.9,-3.63 -5.9,-3.63 z m -156.3,0.47 v 0.82 c 1.9,0.1 2.1,0.37 4.7,6.17 l 4.5,9.84 c -1.6,3.9 -3.9,6.02 -8.7,7.11 0.2,0.81 1.1,2.23 1.6,2.66 6.3,-2.57 7.5,-6.76 9.8,-13.09 l 3.3,-9.61 c 0.8,-2.19 2,-3.08 3.2,-3.08 v -0.82 h -6.2 v 0.82 c 1.5,0.1 2.3,0.91 1.7,2.57 l -3.3,9.65 -3.1,-7.46 c -0.9,-2.04 -1.2,-2.84 -1.2,-3.55 0,-0.67 0.4,-1.07 1.6,-1.21 v -0.82 z m 185.8,0 v 0.82 c 2,0.1 2.2,0.37 4.8,6.17 l 4.4,9.84 c -1.5,3.9 -3.9,6.02 -8.7,7.11 0.3,0.81 1.1,2.23 1.6,2.66 6.3,-2.57 7.6,-6.76 9.8,-13.09 l 3.4,-9.61 c 0.8,-2.19 2,-3.08 3.1,-3.08 v -0.82 h -6.1 v 0.82 c 1.5,0.1 2.3,0.91 1.7,2.57 l -3.3,9.65 -3.2,-7.46 c -0.8,-2.04 -1.1,-2.84 -1.1,-3.55 0,-0.67 0.3,-1.07 1.6,-1.21 v -0.82 z m -194.1,0.82 c 2.7,0 4.3,1.74 4.4,4.88 h -8.8 c 0.3,-3.14 1.7,-4.88 4.4,-4.88 z m 92.1,0 c 3,0 6,2.94 6,8.55 0,3.95 -1.7,6.37 -5.3,6.37 -3.1,0 -6,-2.84 -6,-8.6 0,-4.09 2,-6.32 5.3,-6.32 z m -57.3,0.43 c 2.3,4.23 6.8,8.72 11.5,12.14 -1.5,1.1 -3.9,1.41 -5.8,1.41 -5,0 -9,-3.53 -9,-8.24 0,-2.95 1.3,-4.79 3.3,-5.31 z m 111.6,0.42 c 3.6,0 5.8,2.63 5.8,6.96 0,4.42 -1.9,7.26 -5.4,7.26 -2.2,0 -4.7,-1.26 -4.7,-2.93 v -8.43 c 0,-1.43 2.1,-2.86 4.3,-2.86 z m 21.1,6.37 v 4.69 c 0,1.43 -1.9,2.58 -3.4,2.58 -1.4,0 -2.6,-0.9 -2.6,-2.85 0,-3.47 3.6,-3.09 6,-4.42 z"></path>
</svg>
