<?xml version="1.0"?>

<svg xmlns="http://www.w3.org/2000/svg" viewBox="41.5 29.5 736 573" height="573px" width="736px"><path d="m 416.7,513.7 10.6,26.2 -21.1,0 z m -140.7,-4.1 9.3,0 c 3.1,0 6.3,0.5 9.5,1.6 3.1,1.1 5.8,3.3 8,6.6 2.2,3.2 3.3,7.8 3.3,13.6 0,8.4 -2,14 -6.2,16.7 -4.1,2.6 -9,4 -14.6,4 l -9.3,0 z m 128.7,-14.5 -31.8,71.8 22.2,0 6,-14.5 31.1,0 5.9,14.5 22.2,0 -31.7,-71.8 z m -63.1,0 0,71.8 21.7,0 0,-71.8 z m -87.2,0 0,71.8 37.6,0 1.1,0 c 9.3,0 16.5,-2 21.6,-6 3.6,-2.8 6.8,-6.3 9.4,-10.8 2.8,-4.5 4,-10.4 4,-17.8 0,-4.2 -0.5,-8.1 -1.6,-11.6 -1.1,-3.7 -2.5,-6.8 -4.4,-9.5 -1.8,-2.7 -4,-5.1 -6.4,-7.1 -1.4,-1.3 -3,-2.4 -4.9,-3.5 -1.7,-1 -3.9,-2 -6.4,-2.8 -2.6,-0.8 -5.5,-1.5 -8.7,-2 -3.2,-0.4 -7,-0.7 -11.4,-0.7 z m -68.7,0 0,71.8 54.1,0 0,-14.4 -32.4,0 0,-15.3 30.1,0 0,-14.5 -30.1,0 0,-13.1 31.6,0 0,-14.5 z m -101.63,0 0,71.8 21.03,0 0,-41.6 19.6,24.2 1.7,0 19.5,-24.2 0,41.6 21.6,0 0,-71.8 -19.6,0 -22.1,26.9 -22.1,-26.9 z m 629.93,-0.5 0,71.9 21.6,0 0,-71.9 z m -85,0 0,71.9 21.6,0 0,-33.6 27.4,33.6 26.5,0 -31.1,-38.2 26.7,-33.7 -23.5,0 -26,32.2 0,-32.2 z m -39.9,0 0,71.9 21.7,0 0,-71.9 z m -134.5,0 30.4,72.8 12.7,0 19.1,-42.3 18.7,42.3 12.6,0 31,-72.8 -22.2,0 -15.6,39.8 -16.7,-39.8 -15.5,0 -17.1,39.8 -15,-39.8 z M 207.1,263 l 0,8.4 0.8,-0.3 c 2.7,-0.9 5.4,-0.3 8.4,0.4 1.4,0.2 2.6,0.5 3.8,0.9 -4.4,-2.8 -8.9,-6 -13,-9.4 z M 108,134 l 0,275.4 62.4,0 0,-11.4 c -34.8,-2.9 -35.5,-4.8 -35.5,-29.3 l 0,-193.3 c 0,-24.9 1.4,-27.1 35.5,-30 l 0,-11.4 z m 99.1,0 0,106 c 8.9,-3.4 17.9,-5.9 27.1,-7.2 l 0,-57.4 c 0,-24.9 1.3,-27.1 35.4,-30 l 0,-11.4 z m 332.7,0 0.8,0.2 -2.8,2.6 c -0.1,0.1 -0.3,0.2 -0.4,0.3 l 0,8.3 c 33.8,2.9 35.4,4.9 35.4,29.6 l 0,11.5 c 9.3,0.8 18.5,3 27.1,6.7 l 0,-59.2 z m 97.4,0 0,11.4 c 33.7,2.9 35.4,4.9 35.4,29.6 l 0,193.4 c 0,24.8 -1.7,26.7 -35.4,29.6 l 0,11.4 62.5,0 0,-275.4 z m -37.3,69.7 c -6.8,9.9 -16.5,17.4 -27.1,23.3 l 0,17.1 c 4.2,2.9 8,6 11.2,10 4.7,6 7.7,13.6 7.9,23.6 l 0.1,2.9 -2.8,-0.6 c -5.5,-1.2 -10.9,-1.3 -16.4,-0.7 l 0,40 c 0.1,1.7 0.2,3.4 0,5.1 l 0,44 c 0,24.1 -1.6,26.6 -32.6,29.4 -0.8,1.5 -1.7,3 -2.8,4.3 l 0,7.3 62.5,0 z m -392.8,71.2 0,134.5 41.5,0 c 1.3,-4.5 3,-8.8 4.9,-13 -18.9,-2.7 -19.3,-7.8 -19.3,-27.7 l 0,-16.7 c -3.5,-3.2 -6.3,-7.2 -8.3,-11.9 l -0.8,-1.9 1.8,-1 c 2.4,-1.5 4.9,-2.3 7.3,-3 l 0,-4.1 c -3.8,-2 -7.2,-4.7 -9.9,-8 -4,-5.2 -6.1,-11.9 -4,-19.1 l 1.1,-4 2.8,3 c 2.3,2.6 6,4.9 10,6.1 l 0,-7.7 c -5.5,-2.9 -10.2,-6.7 -14.2,-10.5 -7.5,-7 -12,-13.5 -12.9,-15 z m 197,-78.9 c -42.4,0 -76.8,34.4 -76.8,76.8 0,42.5 34.3,76.9 76.8,76.9 42.5,0 76.8,-34.4 76.8,-76.9 0,-42.4 -34.4,-76.8 -76.8,-76.8 z m -39,-128.96 c -11.5,16.73 -14.4,37.86 -10.9,57.56 0,0.2 0.1,0.4 0.2,0.5 l -0.1,-0.1 c 5.2,21.1 17.7,49.1 31.8,66 l 6.9,-1.2 c -1.9,-19.4 -2.7,-50.3 2.1,-70.5 C 390,100 379.9,80.18 365.1,67.04 Z m 73.8,20.06 c -9.8,-0.14 -17.6,3.62 -23.8,9.63 -6.1,5.87 -10.5,13.97 -13.4,22.47 0.1,0.5 0.2,1.1 0,1.6 -4.4,18.2 -3.9,49.5 -2,68.4 1.5,-0.1 2.9,-0.2 4.4,-0.2 2.1,0 4.2,0.1 6.4,0.3 6,-20.8 15.8,-47.4 29.4,-65.1 -0.6,-11.9 -2.4,-24.66 1,-36.96 -0.7,-0 -1.4,-0.14 -2,-0.14 z m -99,11.24 c -8.1,2.06 -12.8,7.16 -14.9,14.06 -2.3,7.5 -1.4,16.9 1.8,24.8 16.4,13.6 36.2,37.1 43.4,59 2.9,-1.2 5.8,-2.3 8.9,-3.2 -13.9,-17.5 -24.9,-42.7 -30.5,-63.2 -3.4,-1.2 -6.1,-3 -7.8,-5.5 -1.9,-2.8 -2.8,-6.1 -3,-9.4 -0.5,-5.6 0.7,-11.4 2.1,-16.56 z m 138.3,11.16 c -11,0.1 -23.4,8.3 -31.7,16.9 -0.1,0.2 -0.1,0.4 -0.3,0.6 l 0.1,0 c -12.9,15.8 -22.9,42.4 -29.1,63.2 6.1,1 12.1,2.6 17.8,4.9 12.3,-16 26.3,-34.4 40.2,-49.4 l -0.1,0.2 0.3,-0.3 c 2.9,-11.2 8.2,-22.6 17.1,-30.6 -4.4,-4 -9.1,-5.6 -14.3,-5.5 z m -83,9.6 -0.1,0.1 c 0.1,0 0.1,-0.1 0.1,-0.1 z m -96.3,3.8 c -3.1,7 -5.3,14.4 -5.6,21.9 7.6,9.1 20.8,18 30.5,25.8 l 0,0.1 c 6.4,5.3 11,13.9 14.7,22.6 2.9,6.9 5.2,13.7 7.1,19.6 5.5,-5.4 11.8,-10 18.6,-13.6 -6.3,-20.1 -26.1,-44 -41.9,-57.1 l 0.2,0.2 c -0.5,-0.3 -0.8,-0.8 -1.1,-1.3 -7.4,-6.1 -15.1,-12.2 -22.5,-18.2 z m 219.2,11.3 c -15.2,0.1 -30.5,6.7 -40.6,19 l -3.5,4.3 0,-0.3 c -11.2,12.9 -22.4,27.4 -32.7,40.6 7.2,3.6 13.9,8.2 19.7,13.6 21.5,-9 43.6,-29.7 55.8,-49 l 0.1,-0.1 0.2,-0.2 c 4.9,-7.9 9.1,-18.5 15.5,-25.8 -4.7,-1.3 -9.5,-2.1 -14.5,-2.1 z m -234.7,7.1 c -7.9,5 -10.7,12.4 -10.7,20.8 0.1,8.9 3.5,18.7 8,26.5 0,0.1 0,0.1 0.1,0.1 l 0,0.1 0.1,0.1 c 10.1,15.6 31.7,36 48.4,46.5 3,-6.1 6.7,-11.8 11.1,-17 -2.3,-6.6 -4.8,-14.7 -8,-22.4 -3.7,-8.3 -8.2,-16.1 -13,-20.1 -8.6,-7.2 -21.2,-15.7 -30,-25.2 -0.5,-0.4 -0.9,-0.9 -1.3,-1.5 l -0.2,0 -0.6,-0.6 c -0.3,-0.3 -0.4,-0.7 -0.6,-1.1 -1.4,-2.4 -2.3,-4.6 -3.3,-6.2 z m 256.5,20 c -5.8,0 -11.9,1.5 -17.1,4 -0.1,0.3 -0.2,0.6 -0.3,0.8 -12.5,19.7 -34,40.2 -56.6,50.5 3.5,3.7 6.6,7.8 9.3,12.2 14.7,-16.6 34,-29.6 54.4,-37.9 2.1,-10 7.2,-15.1 13.5,-16.9 5.6,-1.6 12,-0.9 18.3,-0.4 -4.3,-8.9 -12.4,-12.3 -21.5,-12.3 z m -298.4,20.6 c -3.6,8.3 -2.8,17.4 0.9,25.9 4.1,9.2 11.3,17.5 19.3,23 0.3,0.1 0.6,0.1 0.9,0.3 l 0,-0.1 c 15.3,8.4 41.9,16.2 60.4,21 0.9,-3.5 2.1,-7 3.4,-10.4 -17.4,-10.8 -38.5,-30.6 -50.1,-47.3 -11.7,-2.8 -24.1,-5.6 -34.8,-12.4 z m 324.9,8.6 c -11,-0.1 -22.2,1.8 -32.7,5.7 -0.2,0.2 -0.4,0.5 -0.6,0.6 l -0.1,0 -0.1,0.1 c -20.5,8 -39.7,21.2 -54.2,38 l 2.1,4.5 c 16,-3.4 35.4,-6.5 53.5,-6.8 5.4,-0.1 10.5,0.1 15.6,0.5 18.8,-7.7 38.9,-18 48.7,-35.6 -10.1,-4.6 -21,-6.8 -32.2,-7 z m -315.8,45.4 c -18.1,0 -34.6,4.2 -51.3,12.4 6,8.6 17.3,17.5 27.6,23.1 1.4,0.4 2.6,0.9 3.4,1.2 l 0.1,0 0.1,0.1 c 1.3,0.5 2.1,0.8 3.9,0.8 l 0.7,0 0.1,0 0.1,0.1 c 3.9,0.9 18.4,2.7 35.4,2.1 16,-0.5 34.6,-3.1 50,-10 0.2,-2.4 0.5,-4.7 0.9,-7 C 303,253.6 276.1,246 259.3,236.9 l 0,-0.1 -0.1,0 c -0.1,-0.1 -0.2,-0.4 -0.4,-0.5 -2.8,-0.2 -5.5,-0.4 -8.2,-0.4 z m 288.1,3.4 c -18.2,-0.1 -38.6,2.9 -55.3,6.5 1,3 1.9,6.2 2.5,9.5 22.2,3 46.1,12.1 65.3,23.4 11.7,-2.2 23.6,-5.4 36.3,-3.3 -0.7,-8 -3.1,-13.9 -6.8,-18.6 -4.1,-5.2 -9.7,-9 -15.9,-12.5 -5,-1.3 -9.5,-3.2 -14.1,-4.4 -3.8,-0.4 -7.8,-0.6 -12,-0.6 z m -51.5,23 c 0.4,3.4 0.7,6.9 0.7,10.5 0,5.9 -0.7,11.6 -1.9,17.1 18.6,8 41.9,17.6 59.1,28.6 l 0,0.1 c 7.8,2.2 15.3,6.9 21,12.1 1.2,-1.4 2,-3.1 2.3,-5.3 0.5,-2.9 0.3,-6.4 -0.3,-9.8 -1.2,-6.8 -4.1,-13.6 -5.4,-15.5 -3.1,-4.5 -8.4,-10.1 -14,-15 l -0.1,0 -0.1,-0.1 C 530.6,274.2 507.9,265.5 487.2,262.3 Z M 320.3,273 c -16,6.4 -33.8,8.8 -49.3,9.5 -17.7,0.6 -31.9,-1.1 -37.1,-2.2 -2.6,-0.2 -4.5,-0.7 -6,-1.4 -1.5,-0.5 -2.6,-1 -3.1,-1.1 l -1.6,-0.4 0,-0.1 c -2.6,-0.5 -5.3,-1.1 -7.7,-1.6 -1,-0.2 -1.9,-0.3 -2.8,-0.4 0.5,0.7 0.5,0.7 1.3,1.7 2.1,2.7 5.1,6.3 8.9,9.8 7.4,7 17.7,14 29,14.6 20.5,-0.6 49.5,-8.3 70.2,-11.6 -1.1,-5.5 -1.8,-11.1 -1.8,-16.8 z m 3.4,23.3 c -19,3 -46.7,10.4 -68.3,11.7 -4.6,4.8 -11.2,6.2 -17.5,5.4 -5.2,-0.7 -10.1,-2.9 -14,-5.9 -0.3,4.4 1.1,8.4 3.9,11.9 3.3,4.3 8.4,7.6 13.6,9.1 12.5,0.2 27.5,-3 42.6,-7.2 15.6,-4.5 31.1,-10 44,-13.6 -1.7,-3.7 -3.1,-7.5 -4.3,-11.4 z m 160.6,0.3 c -2.4,8.6 -6.3,16.5 -11.2,23.6 12.3,13.6 37.7,27.7 54.4,33.8 l -0.5,-0.1 c 0.7,0.1 1.3,0.4 1.8,0.7 9.3,3 19,5.9 28.4,9.1 0.8,-14.1 -5.1,-29.4 -15.5,-39.4 l -0.2,0 -0.1,-0.1 c -16,-10.3 -38.6,-19.6 -57.1,-27.6 z m -153.2,17.1 c -12.9,3.8 -28.8,9.4 -45.2,14 l -0.1,0 c -14.4,4.2 -29.2,7.5 -42.4,7.6 -4.3,2.5 -8.8,3.3 -12.6,4.8 4,7.9 10.5,13.3 18.3,16.4 8.3,3.4 18.1,4.1 27.1,2.6 17.6,-6.8 46.5,-22 62.5,-34 -2.8,-3.5 -5.4,-7.4 -7.6,-11.4 z m 137.8,11.9 c -3.4,4.2 -7.2,8.1 -11.3,11.5 15.4,9.9 33.6,25.9 44.7,40 7,0.3 15.2,0.7 20.8,6.7 5.1,5.5 5.6,13.3 6.4,19.8 7.5,-5 9.5,-12 8.5,-19.7 -1.2,-8.4 -6.5,-17.4 -12.9,-23.7 -17.2,-6.4 -42.3,-19.7 -56.2,-34.6 z m -125.7,4.7 c -15.6,11.7 -41.8,25.6 -60.2,33.5 -15.2,14.4 -27.8,32.2 -31.5,52.7 0.2,0 0.3,0.1 0.5,0.1 1.1,0 2.4,0 3.8,0.2 18.9,0.1 37.1,-8.6 52.1,-20.6 14.6,-15.2 31.3,-42 39.2,-62.1 -1.3,-1.3 -2.6,-2.5 -3.9,-3.8 z m 9.2,8.4 c -8.3,20.1 -23.5,44.7 -38.1,60.5 0.6,3.4 0.3,6.5 -1,9.2 -1.5,2.9 -3.9,5.4 -6.6,7.3 -4.6,3.2 -10.3,4.9 -15.5,6 5.4,6 12,7.7 19,6.3 7.7,-1.5 15.5,-6.7 20.8,-13.4 4.3,-20.9 16.8,-51.1 32.2,-68.8 -3.8,-2.1 -7.4,-4.5 -10.8,-7.1 z m 99.6,2.8 c -2.3,1.7 -4.8,3.1 -7.2,4.5 7.8,17.2 19.4,44.1 22.7,63.1 11.6,16 27.1,30.3 45.7,36 5.7,-22.1 -3.6,-46.7 -17.1,-65 l -0.4,-0.6 C 484.6,366 466.4,350.3 452,341.5 Z m -82.6,7.5 c -14.5,15.8 -28,47.2 -31.9,67.5 -1.3,9.7 -2.8,19.5 -4.9,29.1 18.4,-0.9 34.5,-12.5 42.2,-29.3 l -0.2,0.4 c 0.1,-0.3 0.2,-0.5 0.3,-0.7 l -0.1,0.2 c 5.4,-17.5 12.7,-42.3 16.1,-60.7 -7.5,-1.2 -14.7,-3.5 -21.5,-6.5 z m 69.4,0 c -3.9,1.7 -7.8,3.2 -11.9,4.3 2.6,20.4 1.1,47.3 -4.6,66.8 5.4,10.9 11.1,22.2 12.5,34.7 9.6,-2.4 16,-9 20,-17.4 4.4,-9 6,-20.1 5.6,-29.6 -3.6,-17.3 -14.3,-42.4 -21.6,-58.8 z m -18.5,5.9 c -5.2,1.1 -10.6,1.7 -16.2,1.7 -2.1,0 -4.3,-0.1 -6.4,-0.3 -3.5,18.6 -10.7,43.2 -16.3,61 1.5,10.4 -0.3,21.2 -4.5,30.7 3.2,1.6 8,2 12.9,1.1 5.5,-1 10.8,-3.6 13.2,-6.4 4.9,-6.1 9.2,-14.2 12.3,-21.9 0,-0.4 0.1,-0.8 0.3,-1.2 l -0.1,0.2 c 5.7,-17.8 7.1,-45.1 4.8,-64.9 z"></path></svg>