<?xml version="1.0"?>

<svg xmlns="http://www.w3.org/2000/svg" viewBox="0 0 708.66 141.73" height="141.73px" width="708.66px">

   <path d="m 63.66,35.46 c 10.16,0 20.32,0 30.48,0 v 49.19 c 0.28,0 0.56,0 0.84,0 L 115,35.46 c 9.9,0 20.6,0 30.4,0 l 0,70.84 c -6,0 -12,0 -18,0 0,-18.36 0,-36.69 0,-55.01 -0.4,-0.27 -1.3,-0 -1.8,-0.12 l -22,55.13 c -8.86,0 -17.74,0 -26.62,0 0,-18.01 0,-35.97 0,-53.93 0,-0.39 0,-0.8 0,-1.2 -0.28,0 -0.56,0 -0.84,0 L 49.38,106.3 c -6.92,-0.1 -14.16,0.1 -20.88,-0.2 z M 190.1,61.77 H 230 l -6.6,14.76 h -40.9 z m -28.5,-6.84 c 0,17.04 0,34.08 0,51.17 21.5,0 43.1,0 64.7,0 l 6.4,-13.73 c -17.4,-0.28 -35.4,0 -53,-0.12 0,-12.81 0,-23.85 0,-33.36 0,0 -0.4,-9.77 8.8,-9.84 11.7,-0.1 24.5,0 36.8,0 l 6.6,-13.8 c -0.6,0 -1.3,0 -1.9,0 -14.6,0 -29.1,0 -43.7,0 -24.7,0 -24.7,19.68 -24.7,19.68 m 158.7,4.89 v 20.64 c 0,0 0,25.54 -23.7,25.54 -12.3,0 -51.4,0 -51.4,0 0,-23.58 0,-47.18 0,-70.78 0,0 39.3,-0 51.4,-0 23.7,0 23.7,24.62 23.7,24.62 z M 288.1,49.14 c -7.5,0 -16.6,-0 -24.8,-0.12 v 43.2 c 7.3,0 15.2,0 21.8,0 17.4,-0.1 16.3,-15 16.3,-15 0,-4.8 0,-9.6 0,-14.4 0,0 0.1,-13.69 -13.3,-13.68 z m 46.5,-13.89 c 6,0 12,0 18,0 0,23.6 0,47.2 0,70.85 -6.3,-0.1 -12.9,0.1 -18.9,-0.2 0,-21.25 0,-44.36 0,-66.09 0,-1.73 -0.5,-5.25 0.9,-4.56 z m 83.7,14.88 c -0.6,0 -1.2,0.1 -1.9,0 l -35.2,55.97 c -7.9,0 -15.9,0 -23.8,0 0,-0.4 0,-0.8 0,-1.1 L 404,35.25 c 11.1,0 22.1,0 33.2,0 v 70.85 c -6.6,0 -12.3,0 -18.9,0 M 518.9,50.01 c -7.9,0 -15.8,0 -23.7,0 l 0,56.09 h -19.9 l 0,-56.09 c -9.6,0 -19.1,0 -28.6,0 l 6.7,-14.76 c 24.1,0 48.2,0 72.3,0 z m 38.3,11.73 H 597 L 590.4,76.5 H 549.5 Z M 528.6,54.9 c 0,17.04 0,34.08 0,51.1 21.6,0 43.1,0 64.7,0 l 6.5,-13.66 c -17.5,-0.28 -35.4,0 -53.1,-0.12 0,-12.82 0,-23.85 0,-33.36 0,0 -0.4,-9.77 8.8,-9.84 11.7,-0.1 24.6,0 36.8,0 l 6.6,-13.8 c -0.6,0 -1.2,0 -1.9,0 -14.5,0 -29.1,0 -43.7,0 -24.7,0 -24.7,19.68 -24.7,19.68 m 99.7,15.22 V 72.61 106 h -19 V 35.25 c 6.3,0 12.7,0 19,0 z M 658.8,106 628.3,72.61 v -2.49 l 32.4,-34.87 h 19.9 v 1.92 L 649.3,70.62 681.5,105 v 1 z"></path>

   </svg>