<?xml version="1.0"?>

<svg xmlns="http://www.w3.org/2000/svg" viewBox="0 0 404 130" height="130" width="404">
  <path d="m 354.9,82.27 0,-0.13 0,-0.13 c 0,-0.87 -0.2,-1.27 -0.4,-1.94 l -2,0.54 0,0 0,0 c 0.2,0.84 0.4,1.38 0.4,2.86 l 0,9.89 2.1,0 0,-8.13 c 0,-1.06 0.1,-1.45 0.6,-2.05 0.7,-0.6 1.5,-0.93 2.2,-0.93 0.2,0 0.4,0 0.6,0.13 l 0,0 c 0,0 0,0 0,0 l 0,-0.13 0.8,-2.15 c 0,0 -0.4,-0.15 -0.6,-0.15 -1.4,0 -2.8,0.84 -3.7,2.16 m -18.2,-1.57 -0.4,0 -1.7,0 -2,8.7 c -0.1,0.47 -0.4,1.76 -0.4,1.8 l 0,0 c 0,0 -0.4,-1.16 -0.5,-1.88 l -2.3,-8.7 -2.3,0 -2.2,8.6 c -0.3,0.93 -0.6,1.88 -0.6,1.88 l 0,0 c 0,0 -0.1,-0.96 -0.5,-2.16 l -2,-8.56 -2.1,0.43 0,0 0,0 3.6,12.95 2,0 2.5,-9.22 c 0.1,-0.43 0.3,-1.33 0.3,-1.33 l 0.1,0 2.9,10.53 2,0 3.6,-13.05 0,0 0,0 m 25.9,-6.03 -2.2,0.48 0,0 0,0 c 0.2,0.33 0.2,0.47 0.2,0.83 0.1,0.78 0.2,2.05 0.2,2.86 l 0,14.79 2.2,0 0,-15.24 c 0,-0.81 -0.2,-2.09 -0.3,-2.75 0,-0.3 0,-0.54 -0.1,-1.01 m 15.8,11.52 -1.7,-0.37 c -0.7,-0.16 -1.2,-0.36 -1.5,-0.72 -0.2,-0.28 -0.4,-0.67 -0.4,-1.14 0,-1.28 1.1,-2.13 2.6,-2.13 1,0 2.1,0.4 3.2,0.95 l 0.8,-1.52 0,0 0,0 c -1.1,-0.63 -2.7,-1.06 -4,-1.06 -2.7,0 -4.6,1.66 -4.7,4 0,0.87 0.4,1.66 0.9,2.28 0.6,0.68 1.2,1.04 2.4,1.31 l 1.6,0.33 c 1.5,0.32 2.2,0.96 2.2,2.12 0,1.37 -1.1,2.23 -2.6,2.23 -1.4,0 -2.8,-0.42 -4.1,-1.22 l 0,0 0,0 -0.8,1.5 c 0,0 0,0 0,0 0,0 0,0 0,0 1.3,0.82 3.1,1.3 4.8,1.3 2.9,0 4.8,-1.72 4.8,-4.25 0,-1.93 -1.1,-3.1 -3.5,-3.62 m -9,4.89 -4,-4.73 0.4,-0.46 4.6,-5.14 0,0 0,0 -0.9,0 -1.6,0 0,0 0,0 -4.9,5.61 6,7.37 2.6,0 0,0 0,0 -2.2,-2.63 m -51.5,-8.78 0.7,-1.6 0,0 0,0 -3.3,0 c 0,-1.71 0.2,-3.65 0.2,-3.67 l 0,0 0,0 -0.5,0.14 -1.6,0.33 0,0.36 c -0.1,1.32 -0.3,2.05 -0.3,2.71 l 0,0.16 0,0 -1.6,0 0,1.6 1.8,0 -0.2,8.86 c 0,1.29 0.4,2.13 1.4,2.59 0.5,0.22 0.9,0.36 1.7,0.36 0.8,0 1.6,-0.18 2.3,-0.52 l -0.3,-1.32 c 0,0 0,0 0,0 0,0 0,0 -0.1,0 -0.3,0.16 -0.7,0.24 -1.2,0.24 -1.4,0 -1.8,-0.48 -1.8,-1.91 l 0,-8.33 2.8,0 m 29,8.18 c -0.6,1.24 -1.5,1.94 -2.8,1.94 -1.2,0 -2.2,-0.52 -2.7,-1.3 -0.5,-0.8 -0.8,-2.41 -0.8,-4.23 0,-1.54 0.3,-2.58 0.7,-3.38 0.4,-0.82 1.4,-1.4 2.6,-1.4 1.1,0 2.2,0.52 2.7,1.66 0.4,0.86 0.7,2.08 0.7,3.9 0,1.28 -0.2,2 -0.4,2.81 z m -3,-10.06 c -3.4,0 -5.6,2.59 -5.6,6.81 0,4.27 2.2,6.91 5.6,6.91 1.5,0 2.6,-0.36 3.6,-1.26 1.5,-1.25 2,-2.84 2,-5.37 0,-2.1 -0.4,-3.65 -1.2,-4.82 -0.8,-1.28 -2.2,-2.27 -4.4,-2.27 m -49.2,-4.55 0,0.14 0.2,9.62 c 0,2.23 0.2,5.11 0.2,5.37 0,0 -0.1,-0.13 -0.1,-0.26 -0.3,-0.7 -1.1,-2.42 -1.6,-3.43 l -5.9,-11.37 -2.5,0 0,0 0,0 0,17.81 2.3,0 -0.2,-10.34 c 0,-1.76 -0.1,-3.31 -0.2,-4.82 0.1,0.22 0.2,0.47 0.4,0.74 0.4,0.97 1,2.25 1.6,3.5 l 5.7,10.92 2.3,0 0,-17.82 -2.2,0 0,0 m 12.8,10.08 -5.6,0 c 0.2,-2.67 1.1,-4.02 3,-4.02 1,0 1.8,0.44 2.4,1.15 0.4,0.61 0.5,1.47 0.5,2.88 l -0.3,0 z M 305,80.14 c -1.6,0 -2.8,0.6 -3.9,1.83 -1.2,1.28 -1.6,2.72 -1.6,4.9 0,4.29 2.2,6.91 5.8,6.91 1.7,0 3.3,-0.58 4.4,-1.62 l -0.8,-1.32 0,0 0,0 c -1,0.83 -1.9,1.23 -3.2,1.23 -1.2,0 -2.4,-0.47 -3.2,-1.59 -0.4,-0.68 -0.6,-1.61 -0.6,-2.82 l 0,-0.32 8,0 0,0 0,-0.27 c 0,-3.1 -0.2,-4.33 -1.4,-5.48 -0.8,-0.94 -2.2,-1.44 -3.5,-1.44 m -63.5,1.58 c -0.2,-0.18 -0.6,-0.35 -1,-0.5 -0.4,-0.17 -0.7,-0.13 -0.3,0.2 0.5,0.4 0.9,0.96 1.1,1.39 0.2,0.51 0.1,1.03 -0.2,1.51 -0.5,0.49 -1.2,0.97 -2.1,1.37 -2.8,1.13 -6,1.4 -9.1,1.4 -1.7,0 -3.6,-0.13 -5,-0.39 -1.6,-0.24 -2.8,-0.6 -3.9,-1.01 -1,-0.4 -1.7,-0.88 -2.1,-1.37 -0.4,-0.48 -0.5,-1 -0.3,-1.51 0.3,-0.41 0.7,-0.97 1.2,-1.37 0.3,-0.22 -0.1,-0.35 -0.4,-0.22 -0.4,0.15 -0.6,0.31 -1,0.5 -1,0.48 -1.6,1.05 -1.9,1.66 -0.4,0.67 -0.4,1.32 0,1.96 0.4,0.67 1.2,1.3 2.4,1.84 1.2,0.58 2.8,1.04 4.6,1.39 2,0.34 4.2,0.54 6.4,0.54 2.4,0 4.6,-0.2 6.4,-0.54 1.9,-0.35 3.5,-0.81 4.7,-1.39 1.2,-0.54 2,-1.17 2.4,-1.84 0.4,-0.64 0.5,-1.29 0.1,-1.96 -0.4,-0.61 -1,-1.18 -2,-1.66 -0.2,-0.18 1,0.48 0,0 m 9.1,-2.48 c -0.5,-0.24 -1.1,-0.47 -1.7,-0.68 -1,-0.31 -1.4,0 -0.3,0.4 0.8,0.37 1.6,0.78 2.3,1.21 0.6,0.45 1.3,0.95 1.8,1.48 0.6,0.55 0.8,1.11 1.1,1.68 0.3,0.59 0.3,1.19 0.1,1.79 -0.1,0.61 -0.4,1.22 -0.9,1.84 -0.5,0.62 -1.3,1.23 -2.3,1.81 -0.9,0.61 -2,1.17 -3.4,1.68 -1.4,0.53 -3,1 -4.7,1.4 -1.9,0.4 -3.9,0.72 -5.9,0.93 -2.1,0.23 -4.4,0.35 -6.8,0.35 -2.2,0 -4.5,-0.14 -6.6,-0.35 -2.1,-0.21 -4.1,-0.53 -5.9,-0.93 -1.7,-0.4 -3.3,-0.87 -4.8,-1.4 -1.3,-0.51 -2.5,-1.07 -3.4,-1.68 -1,-0.58 -1.6,-1.19 -2.2,-1.81 -0.5,-0.62 -0.8,-1.23 -0.9,-1.84 -0.1,-0.6 -0.1,-1.2 0.1,-1.79 0.2,-0.57 0.6,-1.13 1.1,-1.68 0.4,-0.53 1.1,-1.03 1.7,-1.48 0.8,-0.43 1.5,-0.84 2.4,-1.21 0.2,0 0.2,-0.14 0.3,-0.15 0.7,-0.25 0,-0.48 -0.5,-0.27 -0.7,0.22 -1.4,0.44 -1.9,0.7 -2,0.84 -3.7,1.84 -4.9,2.98 -1.4,1.28 -2,2.63 -1.9,3.99 0.1,1.49 1.2,2.98 3.1,4.37 2.1,1.49 5.3,2.83 9.4,3.8 4.3,1.03 9.5,1.63 14.9,1.63 5.6,0 10.7,-0.6 15.1,-1.63 4.1,-0.97 7.2,-2.31 9.3,-3.8 2,-1.39 3.1,-2.88 3.2,-4.37 0,-1.36 -0.5,-2.71 -1.8,-3.99 -1.4,-1.14 -3.1,-2.14 -5.1,-2.98 -0.5,-0.24 2,0.84 0,0 m 24,7.92 c 0,-0.14 0,-0.26 -0.4,-0.95 l -0.1,-0.51 c -0.2,-0.16 -0.2,-0.28 -0.3,-0.33 -1.2,-2.11 -3.2,-4.03 -6.1,-5.85 -2.7,-1.74 -5.9,-3.16 -9.4,-4.3 l -0.2,-0.13 c -0.2,-0.13 -0.4,-0.19 -0.7,-0.19 -0.1,0 -0.3,0 -0.4,0.14 l -0.3,0.14 0,0.23 c 0,0.31 0.3,0.44 1,0.69 0.9,0.34 1.7,0.68 2.6,1.08 1.8,0.79 3.2,1.63 4.4,2.54 2.6,1.76 5.4,4.57 5,8.09 -0.4,2.53 -2.3,4.93 -5.6,7.14 -2.4,1.58 -5.2,2.86 -9,4.03 -6,1.91 -12.8,3.01 -20.6,3.41 -1.5,0.1 -3.1,0.1 -4.7,0.1 -6,0 -11.7,-0.5 -17.3,-1.6 -3.6,-0.6 -6.8,-1.52 -9.7,-2.6 -3.6,-1.32 -6.3,-2.75 -8.4,-4.5 -1.9,-1.42 -4.8,-4.37 -4,-8.02 0.6,-2.59 2.8,-4.92 6.5,-7.15 1.3,-0.81 2.9,-1.56 4.7,-2.25 0.4,-0.16 0.8,-0.32 1.2,-0.47 0.1,0 0.5,-0.21 0.5,-0.58 0,-0.14 -0.1,-0.35 -0.5,-0.35 -0.7,0 -1.5,0.31 -2.2,0.57 -0.1,0.14 -0.4,0.16 -0.5,0.23 -3.7,1.35 -6.8,2.88 -9.3,4.68 -3.1,2.24 -5,4.57 -5.6,7.15 -0.7,2.81 0.2,5.82 2.6,8.47 4.2,4.42 10.3,6.72 15.2,8.32 5.8,1.7 12,2.8 19.1,3.3 2.6,0.2 5.3,0.3 8,0.3 4.6,0 9.2,-0.3 13.6,-0.9 7,-0.9 13,-2.4 18.4,-4.6 3,-1.3 5.6,-2.68 7.7,-4.3 2.5,-1.97 4.1,-4.1 4.8,-6.33 0.5,-1.53 0.5,-3.17 0,-4.72 M 176.1,53.48 c -1.2,-1.51 -2.7,-2.85 -6.7,-3.84 l -3.8,-1 c -3,-0.8 -3.5,-1.4 -3.6,-2.61 0,-1.43 1.2,-2.43 3.4,-2.47 2.3,0 4.4,0.64 7.6,2.24 l 0.6,0.3 3.3,-6.8 -0.5,-0.3 c -3,-1.44 -6.6,-3.06 -11.8,-3.05 -3.8,0 -7,1.08 -9.4,3.03 -2.3,1.93 -3.6,4.76 -3.6,8.05 0,2.2 0.7,4.6 2,6.16 1.2,1.54 4,3.04 6.2,3.46 l 3.8,0.7 c 3.3,0.66 4.4,1.53 4.4,3.29 0,1.62 -1.5,2.94 -3.6,2.96 -3.4,0 -7.8,-2 -10.3,-3.52 l -0.6,-0.37 -3.6,7.33 0.6,0.29 c 4.7,2.47 9.1,3.76 13.2,3.76 4.1,0 7.7,-1.16 10.3,-3.23 2.5,-2.05 4,-5.05 4,-8.53 0,-2.24 -0.6,-4.22 -1.9,-5.85 m -40.7,8.82 c -1.1,1.2 -2.5,1.88 -3.9,1.88 -1.8,0 -3.1,-1.38 -3.1,-3.67 0,-1.83 0.4,-2.79 1.4,-3.43 1.1,-0.64 2.9,-0.93 5.7,-0.93 l -0.1,6.15 z m 9.3,-2.73 0,-0.56 0.1,-10.69 c 0,-3.42 -0.1,-4.52 -0.5,-5.89 -1.4,-3.81 -5.3,-5.88 -10.8,-5.88 -3,0 -5.7,0.59 -8.9,1.91 -2.2,0.86 -3.1,1.34 -5.2,2.66 l -0.4,0.26 0.2,0.41 3.8,6.42 0.5,-0.29 c 3.4,-2.28 6.4,-3.53 8.9,-3.53 1.5,0 2.2,0.28 2.6,0.84 0.5,0.56 0.7,1.65 0.7,3.4 l 0,0.77 c -0.6,0 -0.9,0 -1.4,0 -5.2,0 -9.1,0.87 -11.8,2.76 -2.7,1.89 -4,4.84 -4,8.69 0,3.27 1,5.92 3,7.72 1.9,1.8 4.8,2.73 8.4,2.73 2.7,0 5,-0.64 6.7,-1.84 0.6,-0.37 0.8,-0.56 1.5,-1.29 1,1.51 2.7,2.76 4.4,3.52 l 0.4,0.15 5,-5.79 -0.5,-0.32 C 145.1,63.94 144.7,63 144.7,59.6 m 64.9,-2.76 -4.6,-19.74 -8.5,0 -4.9,19.89 -4,-19.95 -9.4,0.14 9,32.67 8.5,0 4.8,-20.18 4.7,20.18 8.5,0 9.3,-32.73 -9.7,0 -3.7,19.75 m 68.3,4.14 c -2,1.76 -3.6,2.48 -5.3,2.48 -1.3,0 -2.7,-0.61 -3.5,-1.6 -0.9,-1.2 -1.4,-3.6 -1.4,-7.73 0,-3.69 0.4,-6.3 1.3,-7.93 0.8,-1.6 1.9,-2.25 3.6,-2.28 1.3,0 3.1,0.85 4.7,2.36 l 0.4,0.37 4.6,-6.28 -0.2,-0.3 c -1.5,-1.19 -2,-1.67 -3.2,-2.31 -2,-0.91 -4.3,-1.48 -6.4,-1.48 -2.8,0 -6,0.95 -8.3,2.45 -3.9,2.64 -6.7,7.7 -6.7,15.16 0,5.24 1.2,9.46 3.8,12.4 2.4,2.93 6.1,4.52 10.5,4.52 l 0,0 c 3.2,0 5.7,-0.71 8.1,-2.07 1.1,-0.69 1.8,-1.19 3,-2.44 l 0.4,-0.31 -4.4,-5.79 -1,0.78 m -21.8,2.44 c -1.5,0.44 -2.2,0.61 -2.8,0.61 -1.5,0 -2.2,-0.25 -2.6,-0.82 -0.4,-0.59 -0.6,-1.79 -0.6,-3.79 l 0,-15.74 5.2,0 2.5,-6.53 -7.7,0 0,-1.42 c 0,-3.06 -0.2,-6.06 -0.6,-7.87 l -0.1,-0.5 -9.2,2.23 0.1,0.49 c 0.3,1.35 0.6,1.58 0.6,4.56 l 0,2.35 0,0 0,0.28 -3.2,0 0,6.41 3.2,0 0,17.05 c 0,2.9 0,3.66 0.5,5.08 1.1,3.09 4.8,5 9.1,5 2.2,0 4.5,-0.46 7,-1.47 l 0.3,-0.16 -1.2,-5.91 -0.5,0.15 m -31,5.85 9.4,1.47 0,-33.67 -9.4,0 0,32.2 M 48.5,70.09 55.6,42.91 c 0,1.35 0.14,2.71 0.24,4.13 l 0.67,23.05 9.77,0 -3.28,-44.23 -12.09,0 -6.72,26.5 -0.13,0 -6.7,-26.5 -12.11,0 -3.25,44.23 9.78,0 0.67,-23.05 c 0.1,-1.42 0.18,-2.78 0.23,-4.13 l 7.1,27.18 8.72,0 M 311.8,40.68 c -1.2,-2.96 -4.7,-4.88 -8.8,-4.88 -2.9,0 -6.1,1.08 -8.4,2.8 0,-0.49 0,-1.05 0,-1.56 l 0,-6.34 c 0,-3.07 -0.1,-6.07 -0.5,-7.88 l -0.2,-0.49 -9.4,2.22 0.1,0.5 c 0.3,1.2 0.5,4.2 0.5,7.14 l 0,37.33 9.5,0 0,-23.1 c 1.7,-1.54 4.3,-2.67 6.1,-2.66 2.2,0.14 2.7,0.72 2.7,3.87 l 0,21.89 9.2,0 0,-22.77 c 0,-3.6 -0.3,-4.27 -0.8,-6.07 M 115.6,63.45 c -1.5,0.44 -2.2,0.61 -2.8,0.61 -1.4,0 -2.1,-0.25 -2.5,-0.82 -0.4,-0.59 -0.7,-1.79 -0.6,-3.79 l 0,-15.74 5.2,0 2.4,-6.53 -7.7,0 0,-1.42 c 0,-3.06 -0.1,-6.06 -0.5,-7.87 l -0.1,-0.5 -9.37,2.23 0.14,0.49 c 0.33,1.35 0.63,1.58 0.63,4.56 l 0,2.35 0,0 0,0.28 -3.21,0 0,6.41 3.21,0 0,17.05 c 0,2.9 0,3.66 0.6,5.08 1,3.09 4.6,5 9,5 2.3,0 4.5,-0.46 7,-1.47 l 0.4,-0.16 -1.3,-5.91 -0.5,0.15 M 78.01,49.75 c 0.14,-4.08 1.71,-6.01 4.47,-6.04 1.56,0 2.52,0.53 3.26,1.64 0.67,1.05 0.9,2.13 0.91,4.4 l -8.64,0 z m 4.35,-13.13 c -4.33,0 -7.69,1.44 -10.39,4.45 -2.9,3.21 -4.11,7.18 -4.1,12.97 0,5.09 1.5,9.36 4.22,12.33 2.72,2.97 6.64,4.65 11.32,4.65 l 0,0 c 4.59,0 8.57,-1.48 12.3,-4.53 l 0.35,-0.28 -3.78,-5.81 -0.43,0.35 c -2.49,2.06 -5.04,3.06 -7.77,3.06 -3.97,0 -6.09,-2.37 -6.23,-6.97 l 18.41,0 0,-2.43 c 0,-6.71 -1.32,-11.17 -4.37,-14.29 -2.19,-2.24 -5.77,-3.49 -9.56,-3.5 M 229.9,85.15 c 1.5,0 3.1,-0.13 4.6,-0.64 0.9,-1.08 1.4,-2.45 1.4,-3.97 0,-3.39 -2.6,-6.14 -6.1,-6.14 -3.3,0 -6.1,2.75 -6.1,6.14 0,1.45 0.5,2.76 1.3,3.81 0.5,0.18 1.1,0.35 1.6,0.47 1.1,0.21 2.3,0.33 3.3,0.33"></path></svg>