<?xml version="1.0"?>
<!--?xml version="1.0" encoding="UTF-8" standalone="no"?-->
<svg xmlns="http://www.w3.org/2000/svg" height="205.13" width="717.7" viewBox="0 0 717.7 205.13">

  <path d="M 172.11,106.02 H 106 v 66.11 h 66.11 z m -73,0 H 33 v 66.11 H 99.11 Z M 172.11,33 H 106 v 66.113 h 66.11 z M 99.12,33 H 33 v 66.113 h 66.12 z m 571.39,62.943 v 28.207 c 0,3.61 0.63,6.2 1.89,7.68 1.27,1.46 3.35,2.2 6.06,2.2 0.75,0 1.7,-0.16 2.83,-0.48 1.14,-0.31 2.08,-0.73 2.84,-1.24 l 0.57,-0.39 v 11.57 l -0.19,0.11 c -0.82,0.49 -2.27,0.94 -4.35,1.4 -2.08,0.44 -4.1,0.66 -6.05,0.66 -11.79,0 -17.73,-6.4 -17.73,-19.03 V 95.943 h -21.1 V 144.23 H 621.05 V 95.943 h -9.91 v -11.46 h 9.91 v -8.269 c 0,-4.155 0.92,-7.909 2.73,-11.16 1.81,-3.254 4.4,-5.814 7.7,-7.607 3.29,-1.791 7.06,-2.694 11.21,-2.694 3.29,0 5.95,0.354 7.9,1.056 l 0.25,0.09 v 12.07 l -0.53,-0.233 c -2.09,-0.934 -4.17,-1.408 -6.18,-1.408 -2.79,0 -4.99,0.897 -6.52,2.663 -1.54,1.788 -2.33,4.468 -2.33,7.971 v 7.52 h 21.1 V 70.98 l 0.26,-0.08 13.37,-4.089 0.5,-0.148 v 17.819 h 14.19 v 11.461 z m -91.14,38.087 c 5.19,0 9.17,-1.68 11.81,-4.98 2.66,-3.34 4.01,-8.33 4.01,-14.81 0,-6.41 -1.43,-11.33 -4.26,-14.617 -2.82,-3.29 -6.74,-4.95 -11.67,-4.95 -5.09,0 -9.12,1.74 -11.99,5.17 -2.89,3.447 -4.36,8.407 -4.36,14.737 0,6.14 1.47,10.98 4.35,14.37 2.88,3.37 6.95,5.08 12.11,5.08 m 0.64,-50.988 c 9.28,0 16.63,2.762 21.87,8.211 5.23,5.44 7.88,13.027 7.88,22.527 0,9.62 -2.82,17.42 -8.4,23.18 -5.57,5.78 -13.25,8.7 -22.8,8.7 -9.16,0 -16.57,-2.77 -22.01,-8.25 -5.44,-5.49 -8.21,-13.01 -8.21,-22.37 0,-9.84 2.84,-17.717 8.41,-23.417 5.58,-5.694 13.4,-8.581 23.26,-8.581 m -54.6,0 c 2.05,0 4.41,0.244 7,0.724 2.62,0.485 4.77,1.084 6.4,1.783 l 0.22,0.1 v 12.988 l -0.58,-0.39 c -1.77,-1.2 -3.89,-2.19 -6.3,-2.92 -2.41,-0.73 -4.83,-1.11 -7.2,-1.11 -2.56,0 -4.6,0.58 -6.06,1.71 -1.45,1.13 -2.16,2.52 -2.16,4.263 0,1.96 0.58,3.5 1.71,4.6 1.16,1.14 4,2.61 8.43,4.39 5.56,2.24 9.55,4.78 11.85,7.54 2.31,2.78 3.48,6.22 3.48,10.25 0,5.59 -2.18,10.15 -6.48,13.58 -4.27,3.39 -10.13,5.11 -17.4,5.11 -2.36,0 -5.07,-0.31 -8.05,-0.92 -3,-0.62 -5.53,-1.41 -7.55,-2.33 l -0.22,-0.11 v -13.7 l 0.6,0.43 c 2.41,1.74 5.09,3.1 7.96,4.04 2.87,0.94 5.48,1.42 7.78,1.42 6.18,0 9.19,-1.95 9.19,-5.96 0,-1.41 -0.29,-2.55 -0.88,-3.39 -0.6,-0.85 -1.67,-1.73 -3.17,-2.6 -1.53,-0.88 -3.95,-2.01 -7.19,-3.34 -3.86,-1.66 -6.76,-3.28 -8.65,-4.84 -1.9,-1.56 -3.33,-3.43 -4.25,-5.55 -0.92,-2.12 -1.39,-4.61 -1.39,-7.41 0,-5.403 2.17,-9.863 6.43,-13.263 4.23,-3.377 9.78,-5.091 16.48,-5.091 m -59.99,50.984 c 5.19,0 9.16,-1.68 11.8,-4.98 2.66,-3.34 4.01,-8.32 4.01,-14.8 0,-6.41 -1.43,-11.33 -4.26,-14.623 -2.81,-3.29 -6.74,-4.95 -11.67,-4.95 -5.09,0 -9.12,1.74 -11.99,5.17 -2.89,3.453 -4.35,8.413 -4.35,14.743 0,6.14 1.46,10.97 4.35,14.36 2.87,3.37 6.94,5.08 12.11,5.08 m 0.63,-50.988 c 9.28,0 16.64,2.762 21.87,8.215 5.24,5.44 7.89,13.033 7.89,22.533 0,9.61 -2.83,17.41 -8.4,23.17 -5.58,5.78 -13.26,8.7 -22.8,8.7 -9.17,0 -16.58,-2.77 -22.02,-8.25 -5.44,-5.49 -8.2,-13.01 -8.2,-22.36 0,-9.84 2.83,-17.723 8.4,-23.423 5.58,-5.698 13.4,-8.585 23.26,-8.585 m -53.26,11.785 h 0.15 c 1.31,-3.36 3.03,-6.06 5.41,-8.016 2.71,-2.235 5.87,-3.37 9.4,-3.37 2.34,0 4.19,0.281 5.5,0.838 l 0.23,0.1 v 14.178 l -0.6,-0.43 c -0.65,-0.47 -1.75,-0.92 -3.27,-1.33 -1.54,-0.41 -2.96,-0.62 -4.23,-0.62 -3.73,0 -6.79,1.61 -9.08,4.803 -2.33,3.22 -3.51,7.49 -3.51,12.69 v 30.55 H 398.74 V 84.482 h 14.05 V 94.837 Z M 373.57,83.042 c 2.51,0 5.15,0.283 7.86,0.843 2.71,0.562 4.9,1.303 6.5,2.2 l 0.19,0.107 v 13.571 l -0.59,-0.43 c -4.26,-3.09 -8.76,-4.66 -13.38,-4.66 -5.4,0 -9.84,1.83 -13.18,5.437 -3.36,3.62 -5.06,8.53 -5.06,14.59 0,6.02 1.63,10.8 4.85,14.21 3.22,3.4 7.64,5.12 13.16,5.12 1.98,0 4.25,-0.44 6.73,-1.3 2.49,-0.87 4.81,-2.08 6.87,-3.58 l 0.6,-0.43 v 12.87 l -0.19,0.11 c -4.57,2.63 -10.27,3.96 -16.95,3.96 -5.72,0 -10.89,-1.25 -15.36,-3.73 -4.49,-2.48 -8.02,-6.06 -10.52,-10.63 -2.5,-4.57 -3.76,-9.75 -3.76,-15.39 0,-6.45 1.3,-12.23 3.87,-17.167 2.58,-4.96 6.36,-8.86 11.27,-11.593 4.89,-2.725 10.64,-4.108 17.09,-4.108 M 331.65,144.22 H 317.6 V 84.482 h 14.05 z m -6.88,-85.19 c 2.44,0 4.49,0.811 6.11,2.41 1.62,1.604 2.45,3.554 2.45,5.797 0,2.289 -0.85,4.223 -2.52,5.749 -1.65,1.516 -3.68,2.286 -6.04,2.286 -2.35,0 -4.38,-0.77 -6.01,-2.289 -1.65,-1.523 -2.48,-3.457 -2.48,-5.746 0,-2.324 0.84,-4.294 2.51,-5.86 1.65,-1.56 3.67,-2.347 5.98,-2.347 M 289.24,80.074 263.79,144.22 H 253.62 L 227.76,80.068 H 227.3 V 144.22 H 213.82 V 60.859 h 20.66 l 24.49,61.921 25.23,-61.921 h 19.85 V 144.22 H 289.71 V 80.074 Z"></path>
</svg>
