<?xml version="1.0"?>

<svg xmlns="http://www.w3.org/2000/svg" viewBox="0 0 448.11 136.48" width="448.11" height="136.48">
   <path d="M 425.85,117.51 V 99.79 c 0,-2.473 -1.89,-4.478 -4.39,-4.478 h -30.5 v -9.163 h 26.16 v 4.679 l 8.73,1.004 v -9.897 c 0,-2.543 -1.89,-4.482 -4.39,-4.482 h -34.9 c -2.42,0 -4.32,1.939 -4.32,4.482 v 17.654 c 0,2.471 1.9,4.491 4.32,4.491 h 30.56 v 9.16 h -26.16 v -4.62 l -8.72,-1.07 v 9.97 c 0,2.47 1.9,4.41 4.32,4.41 h 34.9 c 2.5,0 4.39,-1.94 4.39,-4.42 z m -59.23,0 V 77.448 h -8.74 V 113.23 H 331.72 V 77.448 h -8.73 v 40.062 c 0,2.47 1.91,4.42 4.34,4.42 h 34.9 c 2.47,0 4.39,-1.94 4.39,-4.42 z m -59.24,0 v -9.96 l -8.73,1.07 v 4.61 H 272.46 V 86.147 h 26.19 v 4.681 l 8.73,1.002 v -9.897 c 0,-2.544 -1.91,-4.482 -4.41,-4.482 h -34.9 c -2.43,0 -4.32,1.938 -4.32,4.482 v 35.577 c 0,2.48 1.89,4.42 4.32,4.42 h 34.9 c 2.5,0 4.41,-1.94 4.41,-4.42 z m -59.25,0 V 81.933 c 0,-2.544 -1.9,-4.482 -4.4,-4.482 h -34.89 c -2.43,0 -4.33,1.938 -4.33,4.482 v 35.577 c 0,2.48 1.9,4.42 4.33,4.42 h 34.89 c 2.5,0 4.4,-1.94 4.4,-4.42 z m -34.9,-31.363 h 26.17 v 27.083 h -26.17 z m -20.87,0 v -8.699 h -43.62 v 44.482 h 8.72 v -17.86 h 26.17 V 95.31 H 157.46 V 86.147 Z M 425.85,59.169 V 23.585 c 0,-2.544 -1.89,-4.483 -4.39,-4.483 h -34.9 c -2.42,0 -4.32,1.939 -4.32,4.483 v 35.584 c 0,2.473 1.9,4.414 4.32,4.414 h 34.9 c 2.5,0 4.39,-1.941 4.39,-4.414 z M 390.96,27.798 h 26.18 V 54.887 H 390.96 Z M 359.84,63.583 346.72,45.791 h 8.73 c 2.5,0 4.39,-1.941 4.39,-4.415 V 23.585 c 0,-2.544 -1.89,-4.483 -4.39,-4.483 h -39.22 v 44.479 h 8.72 V 45.789 h 10.81 l 13.06,17.792 h 11.02 z M 324.95,27.798 h 26.18 v 9.297 h -26.18 z m -31.12,31.371 v -9.968 l -8.73,1.07 v 4.616 H 258.94 V 27.798 h 26.16 v 4.683 l 8.73,1.004 v -9.9 c 0,-2.544 -1.91,-4.483 -4.41,-4.483 h -34.9 c -2.4,0 -4.32,1.939 -4.32,4.483 v 35.584 c 0,2.473 1.92,4.414 4.32,4.414 h 34.9 c 2.5,0 4.41,-1.941 4.41,-4.414 z m -74.75,4.414 h 8.73 V 19.105 h -8.73 z m -22.39,0 V 19.105 h -8.53 L 172.81,41.24 157.46,19.105 h -8.72 v 44.478 h 8.72 V 34.419 l 12.66,18.464 h 5.25 l 12.6,-18.464 V 63.583 Z M 104.37,39.129 h 20.06 V 122.25 H 41.311 V 102.19 H 104.37 Z M 21.25,19.066 h 83.12 V 39.129 H 41.311 V 102.19 H 21.25 Z"></path>
 </svg>