<?xml version="1.0"?>
<!--?xml version="1.0" encoding="UTF-8" standalone="no"?-->
<svg xmlns="http://www.w3.org/2000/svg" width="184px" height="90px" viewBox="0 0 184 90">
    <path d="m 153.06,83.523 c 0.11,0.05 0.21,0.102 0.31,0.149 0.37,0.212 0.77,0.404 1.18,0.587 0.42,0.184 0.85,0.338 1.3,0.477 0.23,0.04 0.47,0.09 0.72,0.133 0.25,0.03 0.49,0.06 0.72,0.06 h 0.18 0.19 c 0.51,-0.06 1.01,-0.229 1.48,-0.521 0.47,-0.305 0.82,-0.752 1.06,-1.344 0.1,-0.136 0.13,-0.262 0.17,-0.397 0,-0.134 0.1,-0.269 0.11,-0.425 0,-0.131 0,-0.264 0,-0.391 0,-0.125 0,-0.262 0,-0.385 0,-0.908 -0.32,-1.754 -0.93,-2.521 -0.61,-0.762 -1.3,-1.469 -2.06,-2.121 -0.26,-0.207 -0.51,-0.411 -0.74,-0.603 -0.23,-0.194 -0.47,-0.384 -0.71,-0.575 -0.86,-0.724 -1.64,-1.521 -2.35,-2.404 -0.7,-0.887 -1.17,-1.914 -1.4,-3.086 0,-0.1 0,-0.198 0,-0.312 0,-0.09 0,-0.202 0,-0.309 0,0 0,-0.01 0,-0.03 v -0.07 c 0,-0.106 -0.1,-0.228 -0.1,-0.362 0,-0.117 0,-0.237 0,-0.345 0,-0.946 0.21,-1.879 0.61,-2.768 0.4,-0.892 0.98,-1.663 1.7,-2.31 0.53,-0.492 1.1,-0.859 1.72,-1.092 0.64,-0.232 1.27,-0.375 1.92,-0.426 h 0.23 0.25 c 0.33,0 0.67,0.01 1.01,0.05 0.35,0.04 0.7,0.102 1.06,0.178 0.43,0.101 0.83,0.219 1.23,0.349 0.41,0.132 0.81,0.295 1.2,0.471 v 3.414 c 0,-0.02 -0.11,-0.05 -0.18,-0.09 -0.1,-0.05 -0.12,-0.08 -0.17,-0.105 -0.35,-0.174 -0.71,-0.354 -1.12,-0.517 -0.4,-0.177 -0.81,-0.306 -1.23,-0.409 -0.24,-0.06 -0.48,-0.104 -0.71,-0.143 -0.23,-0.04 -0.47,-0.06 -0.7,-0.06 h -0.11 -0.13 c -0.52,0.03 -1.03,0.173 -1.53,0.435 -0.49,0.256 -0.88,0.682 -1.18,1.277 -0.1,0.159 -0.14,0.332 -0.21,0.528 -0.1,0.19 -0.11,0.39 -0.14,0.601 0,0.1 0,0.198 0,0.31 0,0.101 0,0.208 0,0.308 0,0.106 0,0.213 0,0.309 0,0.105 0,0.195 0,0.275 0,0.208 0.1,0.408 0.14,0.611 0.1,0.191 0.14,0.371 0.21,0.55 0.43,0.804 0.95,1.498 1.61,2.086 0.66,0.586 1.33,1.16 2.04,1.734 0.78,0.622 1.54,1.28 2.25,1.946 0.72,0.683 1.27,1.498 1.67,2.459 0.1,0.23 0.17,0.494 0.24,0.797 0,0.302 0.1,0.591 0.11,0.88 0,0.157 0,0.305 0,0.446 0,0.14 0,0.293 0,0.449 0,0.15 0,0.313 0,0.486 0,0.171 0,0.344 -0.1,0.527 0,0.436 -0.14,0.879 -0.25,1.322 -0.12,0.443 -0.27,0.848 -0.46,1.201 -0.57,1.172 -1.38,1.996 -2.43,2.482 -1.04,0.486 -2.14,0.719 -3.29,0.719 -0.23,0 -0.48,-0.01 -0.72,-0.04 -0.24,-0.02 -0.5,-0.05 -0.76,-0.07 -0.55,-0.05 -1.11,-0.173 -1.65,-0.353 -0.55,-0.182 -1.06,-0.395 -1.53,-0.625 v -3.543 c 0.1,0.05 0.18,0.103 0.27,0.159 m -11.7,-21.198 h 3.52 v 25.494 h -3.52 z m -19.95,-0.02 h 12.93 v 3.172 h -4.75 V 87.832 H 126.1 V 65.494 h -4.69 z m -11.25,17.69 V 62.338 h 3.21 v 25.494 h -3.21 l -6.74,-17.863 v 17.863 h -3.33 V 62.338 h 3.25 z M 82.104,62.322 h 3.252 l 5.952,25.51 h -3.404 l -1.293,-5.07 h -5.84 l -1.213,5.07 h -3.491 z m 1.647,6.592 -2.353,11.008 h 4.659 z M 60.319,87.832 H 56.83 v -25.51 h 4.198 c 2.353,0 4.216,0.428 5.602,1.303 1.388,0.878 2.074,2.621 2.074,5.215 0,1.768 -0.351,3.211 -1.037,4.325 -0.696,1.117 -1.955,1.808 -3.776,2.103 L 70,87.832 H 66.236 L 60.403,75.434 h -0.09 v 12.398 z m 0,-14.389 c 1.442,0 2.608,-0.189 3.514,-0.604 0.894,-0.401 1.354,-1.472 1.388,-3.219 v -0.47 c 0,-1.797 -0.388,-2.875 -1.182,-3.237 -0.78,-0.371 -2.017,-0.554 -3.72,-0.554 z M 44.769,62.338 h 3.528 V 87.832 H 44.769 Z M 27.608,80.012 31.13,62.338 h 2.981 l 2.231,25.494 H 33.127 L 32.116,69.916 28.665,87.832 h -2.35 l -3.37,-17.916 -1.057,17.916 h -3.14 L 20.91,62.338 h 3.136 z M 151.23,2 l 0.53,3.604 c -12.19,0.07 -23.89,1.996 -35.07,5.679 -9.34,3.112 -19.8,8.079 -31.393,14.967 -14.511,8.802 -24.581,14.435 -30.09,17.015 -11.855,5.567 -23.853,8.737 -36.031,9.475 14.037,0.527 27.364,-1.26 40.142,-5.432 9.41,-3.109 20.01,-8.15 31.734,-15.168 12.858,-7.547 22.798,-12.848 29.818,-15.963 10.1,-4.334 20.4,-7.587 31,-9.74 l 0.53,3.576 11.49,-5.759 z M 182,22.66 C 151.22,61.376 96.992,58.748 80.611,38.58 90.396,45.033 108.82,52.32 119.91,49.932 102.42,46.951 92.543,37.998 89.904,34.149 95.988,38.512 111.93,48.41 127.86,45.52 116.67,44.151 103.64,38.481 98.27,29.196 c 9.01,6.611 24.45,15.443 38.78,12.263 C 124.7,39.711 112.03,34.056 106.39,23.931 116.46,30.854 153.71,45.609 182,22.66 M 2,32.566 C 32.808,-6.066 85.788,-3.797 102.17,16.361 92.387,9.92 77.99,5.007 66.728,6.619 84.494,8.824 90.147,16.974 92.874,20.799 86.698,16.461 71.031,6.961 55.1,9.852 66.289,11.221 79.146,16.469 84.42,25.783 75.409,19.16 60.329,10.705 46.01,13.973 58.349,15.637 70.751,20.889 76.296,31.039 66.319,24.094 30.311,9.701 2,32.566"></path></svg>