<?xml version="1.0"?>

<svg xmlns="http://www.w3.org/2000/svg" viewBox="0 0 1043 279.9" height="279.9" width="1043">
  <path d="m 245.5,93.9 h 46.4 v 152.2 h -46.4 z m 75.4,0.3 h 46.5 v 151.9 h -46.5 z m -148,-70.5 h 43.6 V 246.1 H 172.9 Z M 22,23.7 H 68.5 V 246.1 H 22 Z m 75.5,0 h 46.4 V 175.8 H 97.5 Z m 223.4,0 H 442.8 V 68.3 H 320.9 Z m -75.4,0 h 46.4 v 44.6 h -46.4 z m 647.4,183.5 -12.8,40.4 c -0.9,2.5 -1.7,4.7 -3.5,6.8 -2.5,2.8 -4.9,3 -7.7,3 h -7.8 v -8.7 h 3.8 c 1.7,0 4.5,0 4.5,-2.7 0,-1 -0.3,-1.9 -0.5,-2.7 L 858,207.2 h 11.4 l 6,26.8 6,-26.8 h 11.5 m -49.8,32.4 c -2.1,1.4 -4.7,3.2 -9.6,3.2 -3,0 -6,-0.8 -8.3,-2.5 -4.9,-3.2 -6.8,-9 -6.8,-15.5 0,-7.5 3.4,-18.3 15.5,-18.3 5.6,0 8.1,2.5 9.8,4.1 v -3.5 h 10 V 243 c -0.1,4.1 -0.3,8.9 -5.6,12.1 -3.7,2.3 -9.1,2.8 -12.4,2.8 -7.3,0 -12,-2.5 -14,-4.6 -2.8,-3 -2.8,-6.7 -2.8,-8.8 H 830 c 0.2,1.7 0.3,4.1 3.2,5.4 0.7,0.4 1.7,0.7 3.4,0.7 6.5,0 6.5,-3.9 6.5,-7 z m -13.6,-14.8 c 0,3.1 0.2,9.6 6.8,9.6 5.5,0 6.7,-4.3 6.7,-9.6 0,-1.8 -0.1,-5.5 -1.3,-7.3 -0.8,-1.4 -2.8,-2.9 -5.9,-2.8 -5.1,0.3 -6.3,4.8 -6.3,10.1 m -13,1.2 c 0,9.5 -5.3,19.8 -19.6,19.8 -10.2,0 -19.6,-6 -19.6,-19.8 0,-11.5 7.1,-20.6 21,-19.8 14.9,0.9 18.2,13 18.2,19.8 M 790,218.6 c -1.4,2.2 -1.8,4.7 -1.8,7.3 0,6 2.7,11.2 8.7,11.2 5.8,0 8.7,-4.8 8.7,-10.7 0,-4.1 -1,-7.4 -3,-9.4 -2.2,-2.1 -4.7,-2.2 -6.3,-2 -3.1,0.2 -4.9,1.3 -6.3,3.6 m -20.1,26.2 h -13.3 v -50.5 h 13.3 z M 750,226 c 0,9.5 -5.3,19.8 -19.6,19.8 -10.2,0 -19.6,-6 -19.6,-19.8 0,-11.5 7.1,-20.6 21,-19.8 14.9,0.9 18.2,13 18.2,19.8 m -26.5,-7.4 c -1.4,2.2 -1.8,4.7 -1.8,7.3 0,6 2.7,11.2 8.7,11.2 5.8,0 8.7,-4.8 8.7,-10.7 0,-4.1 -1,-7.4 -3,-9.4 -2.2,-2.1 -4.7,-2.2 -6.3,-2 -3.1,0.2 -4.9,1.3 -6.3,3.6 m -40,-8 c 1.1,-1.1 1.7,-2 3.6,-2.9 1.7,-0.8 4.1,-1.4 6.7,-1.4 2.1,0 4.6,0.4 6.5,1.5 3.8,2.1 4.8,5.5 4.8,11.3 v 25.5 h -10.7 v -21 c 0,-3.4 -0.1,-4.6 -0.5,-5.6 -0.8,-2 -2.7,-2.9 -4.8,-2.9 -5.7,0 -5.7,4.7 -5.7,9.3 v 20.2 h -10.7 v -37.3 h 10.8 v 3.3 m -43.3,-16.7 v 17.2 c 1.5,-1.6 4.7,-4.9 10.5,-4.9 2.6,0 5.6,0.7 7.7,2.6 3.2,2.8 3.8,6.3 3.8,11.2 v 24.6 H 651.5 V 225 c 0,-3 -0.1,-4.4 -0.5,-5.7 -1,-3.4 -3.9,-3.8 -5,-3.8 -1.9,0 -3.5,1 -4.4,2.2 -1.4,1.9 -1.4,5 -1.4,8.2 v 18.7 h -10.7 v -50.7 h 10.7 m -13.3,42 c -1.3,2.1 -2.8,4.5 -5.7,6.7 -2.8,2 -6.4,3.3 -10.5,3.3 -7,0 -18.1,-4.3 -18.1,-19.5 0,-10.9 6.2,-20.1 18.3,-20.1 4.1,0 11,1.2 15.6,9 l -8,4.6 c -0.6,-1.3 -1.3,-2.6 -3.1,-3.9 -1,-0.7 -2.3,-1.3 -4,-1.3 -5.8,0 -7.8,6.8 -7.8,11.3 0,5 2.4,11.2 8.1,11.2 0.6,0 3.3,0 5.5,-2.6 0.9,-1.1 1.3,-1.9 1.6,-3 l 8.1,4.3 m -36.5,-0.7 c -1.3,1.9 -2.5,3.8 -4.4,5.6 -3.1,3 -7.9,5.3 -13.8,5.3 -10.8,0 -18.4,-7.1 -18.4,-19.4 0,-9 4.3,-20.6 18.7,-20.6 2.2,0 8.5,0.2 13.1,5.4 4.8,5.2 5.1,12.5 5.2,16.7 h -26 c -0.1,4.7 2.5,9.4 8.3,9.4 5.8,0 7.9,-4 9.2,-6.6 z m -10.7,-13.8 c -0.2,-1.6 -0.5,-3.7 -2,-5.3 -1.3,-1.4 -3.4,-2.1 -5.2,-2.1 -2.6,0 -4.4,1.3 -5.5,2.4 -1.5,1.7 -1.8,3.4 -2.2,5 h 14.9 m -62.5,-27.5 h 38 v 10 h -12.8 v 40.7 H 530.1 V 203.9 H 517.2 Z M 873,117.5 c 0,-1.9 0.1,-4.4 1.5,-6.4 1.4,-1.8 4.4,-3.8 9.4,-3.8 2.2,0 4.3,0.4 6.4,0.7 v 8.2 h -2.6 c -4,0 -4.2,0.9 -4.2,5.9 h 7.2 v 6.7 h -7.1 v 29.8 h -10.7 v -29.8 h -5.7 v -6.7 h 5.8 v -4.6 M 863,140 c 0,9.5 -5.3,19.8 -19.5,19.8 -10.3,0 -19.7,-6 -19.7,-19.8 0,-11.5 7.1,-20.6 21,-19.8 14.9,0.9 18.2,13 18.2,19.8 m -26.5,-7.4 c -1.4,2.2 -1.8,4.7 -1.8,7.3 0,6 2.7,11.2 8.8,11.2 5.7,0 8.6,-4.8 8.6,-10.7 0,-4.1 -1,-7.4 -3,-9.4 -2.2,-2.1 -4.7,-2.2 -6.3,-2 -3.1,0.2 -4.9,1.2 -6.3,3.6 m -33.3,16.6 c -1.3,1.9 -2.5,3.8 -4.4,5.6 -3.1,3 -7.9,5.3 -13.8,5.3 -10.8,0 -18.4,-7.1 -18.4,-19.4 0,-9 4.3,-20.6 18.7,-20.6 2.2,0 8.5,0.2 13.2,5.4 4.7,5.2 5,12.5 5.1,16.7 h -26 c -0.1,4.7 2.5,9.4 8.3,9.4 5.8,0 7.9,-4 9.2,-6.6 z m -10.7,-13.8 c -0.2,-1.6 -0.5,-3.7 -2,-5.3 -1.3,-1.4 -3.4,-2.1 -5.2,-2.1 -2.6,0 -4.4,1.3 -5.5,2.4 -1.5,1.7 -1.8,3.4 -2.2,5 h 14.9 M 743.3,110.7 H 754 v 11.7 h 7 v 6.7 h -7.1 v 16.8 c -0.1,2.4 -0.1,4.3 2.8,4.3 h 3.9 v 8.6 c -2.4,0.3 -3.8,0.4 -5.7,0.4 -3.7,0 -7.8,-0.3 -10.1,-3.6 -1.4,-2.3 -1.5,-4.9 -1.5,-8.5 V 129 H 738 v -6.7 h 5.3 v -11.6 m -19.9,10.6 h 10.8 v 37.4 h -10.8 v -3.6 c -1,1.2 -1.7,2 -3.6,2.9 -2.2,1.2 -4.6,1.8 -6.9,1.8 -2.4,0 -6.8,-0.4 -9.3,-4 -1.9,-2.7 -2.3,-4.9 -2.3,-11 v -23.5 h 10.9 v 23.2 c 0,1.7 0,3.3 0.8,4.5 0.6,0.8 2.1,1.8 4.3,1.8 0.6,0 2.1,0 3.7,-0.9 2.3,-1.4 2.3,-3.3 2.4,-5.3 v -23.3 m -46.6,-10.6 h 10.7 v 11.7 h 7 v 6.7 h -7.1 v 16.8 c -0.1,2.4 -0.1,4.3 2.8,4.3 h 3.8 v 8.6 c -2.3,0.3 -3.7,0.4 -5.6,0.4 -3.7,0 -7.8,-0.3 -10.1,-3.6 -1.4,-2.3 -1.5,-4.9 -1.5,-8.5 V 129 h -5.3 v -6.7 h 5.3 v -11.6 m -19.9,-2.8 h 9.9 v 8.6 h -9.9 z m 0,13.4 h 9.9 v 37.5 h -9.9 z m -23.3,-10.6 h 10.7 v 11.7 h 7 v 6.7 h -7.1 v 16.8 c -0.1,2.4 -0.1,4.3 2.8,4.3 h 3.8 v 8.6 c -2.3,0.3 -3.7,0.4 -5.6,0.4 -3.7,0 -7.8,-0.3 -10.1,-3.6 -1.4,-2.3 -1.5,-4.9 -1.5,-8.5 V 129 h -5.3 v -6.7 h 5.3 V 110.7 M 597,146.2 c 2.9,2.9 6.6,5.2 10.6,5.2 2.6,0 6.5,-0.9 6.5,-3.7 0,-1.3 -0.8,-1.8 -1.4,-2.1 -1.6,-0.9 -4.1,-1.1 -6.2,-1.5 -1.6,-0.3 -3.3,-0.6 -4.9,-1.1 -2.2,-0.7 -4.5,-1.6 -6.1,-3.2 -1.6,-1.7 -2.7,-4.3 -2.7,-7.1 0,-6.1 5.2,-12.5 15.4,-12.5 8.6,0 13.7,3.8 16.2,5.6 l -6.6,6.3 c -3.4,-2.7 -6.6,-3.7 -9.1,-3.7 -4.2,0 -5.2,1.7 -5.2,2.8 0,2.1 2.3,2.5 5.8,3.2 7.3,1.3 15.8,3.3 15.8,12.2 0,8.8 -8.6,13.1 -17.2,13.1 -10.1,0 -15.4,-5 -17.7,-7.2 l 6.8,-6.3 m -33.2,-21.5 c 1,-1.1 1.7,-2 3.6,-2.9 1.7,-0.8 4.1,-1.4 6.7,-1.4 2.1,0 4.6,0.4 6.5,1.5 3.8,2.1 4.8,5.5 4.8,11.3 v 25.5 h -10.7 v -21 c 0,-3.4 -0.1,-4.6 -0.5,-5.6 -0.8,-2 -2.7,-2.9 -4.8,-2.9 -5.7,0 -5.7,4.7 -5.7,9.3 v 20.2 H 553 v -37.3 h 10.8 v 3.3 m -20,34.1 h -13.3 v -50.5 h 13.3 z M 992.7,60.2 c 2.9,2.9 6.6,5.2 10.3,5.2 3,0 7,-0.9 7,-3.7 0,-1.3 -1,-1.8 -2,-2.1 -1,-0.9 -4,-1.1 -6,-1.5 -1,-0.3 -3.1,-0.6 -4.7,-1.1 -2.2,-0.7 -4.5,-1.6 -6.1,-3.3 -1.6,-1.6 -2.7,-4.2 -2.7,-7 0,-6.1 5.2,-12.5 15.5,-12.5 8,0 14,3.8 16,5.6 l -7,6.3 c -3,-2.7 -6,-3.7 -9,-3.7 -4,0 -4.8,1.7 -4.8,2.8 0,2.1 1.8,2.5 5.8,3.2 7,1.3 16,3.3 16,12.2 0,8.8 -9,13.1 -17,13.1 -10.5,0 -15.8,-5 -18.1,-7.2 l 6.8,-6.3 M 966.1,24.7 h 10.7 v 11.7 h 7 v 6.7 h -7.1 v 16.8 c -0.1,2.3 -0.1,4.3 2.8,4.3 h 3.8 v 8.6 c -2.3,0.3 -3.7,0.6 -5.6,0.6 -3.7,0 -7.8,-0.4 -10.1,-3.7 -1.4,-2.4 -1.5,-5 -1.5,-8.6 V 43 h -5.3 v -6.7 h 5.3 V 24.7 m -20,0 h 10.7 v 11.7 h 7 v 6.7 h -7.1 v 16.8 c 0,2.3 0,4.3 2.8,4.3 h 3.9 v 8.6 c -2.4,0.3 -3.8,0.6 -5.7,0.6 -3.7,0 -7.8,-0.4 -10.1,-3.7 -1.4,-2.4 -1.5,-5 -1.5,-8.6 V 43 h -5.3 v -6.7 h 5.3 V 24.7 m -9.9,38.5 c -1.3,1.9 -2.5,3.8 -4.4,5.6 -3.1,3 -7.9,5.3 -13.8,5.3 -10.8,0 -18.4,-7.1 -18.4,-19.4 0,-9 4.3,-20.6 18.7,-20.6 2.2,0 8.5,0.2 13.1,5.4 4.8,5.2 5.1,12.5 5.2,16.7 h -26 c -0.1,4.7 2.5,9.4 8.3,9.4 5.8,0 7.9,-4 9.2,-6.6 z M 925.5,49.4 c -0.2,-1.6 -0.5,-3.7 -2,-5.3 -1.3,-1.4 -3.4,-2.1 -5.2,-2.1 -2.6,0 -4.4,1.3 -5.5,2.4 -1.5,1.7 -1.8,3.4 -2.2,5 h 14.9 m -55.8,10.8 c 2.9,2.9 6.6,5.2 10.6,5.2 2.6,0 6.5,-0.9 6.5,-3.7 0,-1.3 -0.8,-1.8 -1.4,-2.1 -1.6,-0.9 -4.1,-1.1 -6.2,-1.5 -1.6,-0.3 -3.3,-0.6 -4.9,-1.1 -2.2,-0.7 -4.5,-1.6 -6.1,-3.3 -1.6,-1.6 -2.7,-4.2 -2.7,-7 0,-6.1 5.2,-12.5 15.4,-12.5 8.6,0 13.7,3.8 16.2,5.6 l -6.6,6.3 c -3.4,-2.7 -6.6,-3.7 -9.1,-3.7 -4.2,0 -5.2,1.7 -5.2,2.8 0,2.1 2.3,2.5 5.8,3.2 7.3,1.3 15.8,3.3 15.8,12.2 0,8.8 -8.6,13.1 -17.2,13.1 -10.1,0 -15.4,-5 -17.7,-7.2 l 6.8,-6.3 M 846.4,35.3 h 10.8 v 37.4 h -10.8 v -3.6 c -1,1.2 -1.7,2 -3.6,2.9 -2.2,1.2 -4.6,1.8 -6.9,1.8 -2.4,0 -6.8,-0.4 -9.3,-4 -1.9,-2.7 -2.3,-4.9 -2.3,-11 V 35.3 h 10.9 v 23.2 c 0,1.7 0,3.3 0.8,4.5 0.6,0.8 2.1,1.8 4.3,1.8 0.6,0 2.1,0 3.7,-0.9 2.3,-1.4 2.3,-3.3 2.4,-5.3 V 35.3 M 793.2,22 v 17.2 c 1.5,-1.6 4.7,-5 10.5,-5 2.6,0 5.6,0.8 7.7,2.7 3.2,2.8 3.8,6.3 3.8,11.2 V 72.7 H 804.5 V 53.1 c 0,-3 -0.1,-4.4 -0.5,-5.7 -1,-3.4 -3.9,-3.8 -5,-3.8 -1.9,0 -3.5,1 -4.4,2.2 -1.4,1.9 -1.4,5 -1.4,8.2 V 72.7 H 782.5 V 22 h 10.7 m -13.3,41.9 c -1.3,2.1 -2.8,4.5 -5.7,6.7 -2.8,2 -6.4,3.3 -10.5,3.3 -7,0 -18.1,-4.3 -18.1,-19.5 0,-10.9 6.2,-20.1 18.3,-20.1 4.1,0 11,1.2 15.6,9 l -8,4.6 c -0.6,-1.3 -1.3,-2.6 -3,-3.9 -1.1,-0.7 -2.4,-1.3 -4.1,-1.3 -5.8,0 -7.7,6.8 -7.7,11.3 0,5 2.3,11.2 8.1,11.2 0.5,0 3.2,0 5.4,-2.6 0.9,-1.1 1.3,-1.9 1.6,-3 l 8.1,4.3 M 706.7,45.8 c 0.2,-2.6 0.6,-5.7 3.8,-8.3 3.4,-2.7 7.7,-3.3 12,-3.3 4.5,0 15.3,1.1 15.3,10.7 v 21.8 c 0,4 0.2,4.6 1,5.9 h -10.5 v -3.4 c -2.7,2 -5.8,4.4 -11.2,4.4 -8.4,0 -11.9,-6.2 -11.9,-11.4 0,-6 4.6,-9.4 7.6,-10.7 3,-1.3 9.9,-2.6 14.4,-3.5 v -2 c -0.1,-1.7 -0.2,-4.6 -4.1,-4.6 -4.7,0 -5.4,3 -5.7,4.4 z M 720.3,57 c -1.8,0.8 -4.6,1.8 -4.6,4.7 0,1.8 1.5,3.8 4.1,3.8 1.3,0 2.5,-0.5 3.7,-1.2 3.5,-2.3 3.7,-5.7 3.7,-9.6 l -6.9,2.3 m -46.8,3.2 c 2.9,2.9 6.6,5.2 10.6,5.2 2.6,0 6.5,-0.9 6.5,-3.7 0,-1.3 -0.8,-1.8 -1.4,-2.1 -1.6,-0.9 -4.1,-1.1 -6.2,-1.5 -1.6,-0.3 -3.3,-0.6 -4.9,-1.1 -2.2,-0.7 -4.5,-1.6 -6.1,-3.3 -1.6,-1.6 -2.7,-4.2 -2.7,-7 0,-6.1 5.2,-12.5 15.4,-12.5 8.6,0 13.7,3.8 16.2,5.6 l -6.6,6.3 c -3.4,-2.7 -6.6,-3.7 -9.1,-3.7 -4.2,0 -5.2,1.7 -5.2,2.8 0,2.1 2.3,2.5 5.8,3.2 7.3,1.3 15.8,3.3 15.8,12.2 0,8.8 -8.6,13.1 -17.2,13.1 -10.1,0 -15.4,-5 -17.7,-7.2 l 6.8,-6.3 m -36.6,0 c 2.9,2.9 6.6,5.2 10.6,5.2 2.6,0 6.5,-0.9 6.5,-3.7 0,-1.3 -0.8,-1.8 -1.4,-2.1 -1.6,-0.9 -4.1,-1.1 -6.2,-1.5 -1.6,-0.3 -3.3,-0.6 -4.9,-1.1 -2.2,-0.7 -4.5,-1.6 -6.1,-3.3 -1.6,-1.6 -2.7,-4.2 -2.7,-7 0,-6.1 5.2,-12.5 15.4,-12.5 8.6,0 13.7,3.8 16.2,5.6 l -6.6,6.3 c -3.4,-2.7 -6.6,-3.7 -9.1,-3.7 -4.2,0 -5.2,1.7 -5.2,2.8 0,2.1 2.3,2.5 5.8,3.2 7.3,1.3 15.8,3.3 15.8,12.2 0,8.8 -8.6,13.1 -17.2,13.1 -10.1,0 -15.4,-5 -17.7,-7.2 l 6.8,-6.3 M 593.7,45.8 c 0.2,-2.6 0.6,-5.7 3.8,-8.3 3.4,-2.7 7.7,-3.3 12,-3.3 4.4,0 15.3,1.1 15.3,10.7 v 21.8 c 0,4 0.2,4.6 1,5.9 h -10.5 v -3.4 c -2.7,2 -5.8,4.4 -11.2,4.4 -8.4,0 -11.9,-6.2 -11.9,-11.4 0,-6 4.6,-9.4 7.6,-10.7 3,-1.3 9.9,-2.6 14.4,-3.5 v -2 c -0.1,-1.7 -0.3,-4.6 -4.1,-4.6 -4.7,0 -5.4,3 -5.7,4.4 z M 607.3,57 c -1.8,0.8 -4.6,1.8 -4.6,4.7 0,1.8 1.5,3.8 4.1,3.8 1.3,0 2.5,-0.5 3.7,-1.2 3.5,-2.3 3.7,-5.7 3.7,-9.6 L 607.3,57 M 583.7,22.3 v 50.6 h -11.8 l 0.8,-36.1 0.1,-5 -0.4,1.8 c -0.6,2.8 -0.7,3.2 -1.3,5.3 l -9.3,34 h -10.6 l -8.9,-32.5 -2.2,-9.1 c 0.3,4 0.3,4.9 0.4,9.7 l 0.7,31.9 h -12 V 22.3 h 18.1 l 7.5,28.4 1.7,8.1 c 0.7,-3.5 0.8,-3.9 1.4,-6.3 l 7.9,-30.2 h 17.9"></path>

</svg>
