<?xml version="1.0"?>

<svg xmlns="http://www.w3.org/2000/svg" viewBox="0 0 235.637 86.9219" width="235.637" height="86.9219"><path d="m 41.1805,33.2364 c -0.9653,1.3531 -4.4446,6.696 -8.1039,12.2332 l -4.34691,-8.0375 -5.21992,13.9386 c 3.15039,7.93597 10.89223,13.5512 19.94963,13.5512 2.7707,0 5.4156,-0.53047 7.8496,-1.48789 C 50.2223,57.65393 46.9074,42.1723 41.1805,33.2364 m -12.73675,-1.3739 4.62075,7.7321 c 0,0 2.9152,-5.5079 8.096,-14.9024 0,0 9.0848,8.6914 16.9735,34.42111 C 62.3086,55.19534 64.9203,49.6348 64.9203,43.4614 64.9203,31.6098 55.3086,22 43.4594,22 31.60781,22 22,31.6098 22,43.4614 c 0,2.3164 0.36992,4.5425 1.04961,6.6316 0.56172,-1.8836 3.91758,-13.2203 5.39414,-18.2305 M 212.329,37.2614 c 0.229,0 0.386,-0.0606 0.386,-0.2524 0,-0.1801 -0.149,-0.2371 -0.392,-0.2371 l -0.301,0 0,0.4895 0.307,0 z m -0.577,-0.7243 0.571,0 c 0.396,0 0.648,0.143 0.648,0.4621 0,0.3387 -0.307,0.4422 -0.344,0.4485 l 0.339,0.6207 -0.308,0 -0.29,-0.5758 -0.346,0 0,0.5758 -0.27,0 0,-1.5313 z m 0.583,1.8778 c 0.627,0 1.065,-0.4563 1.065,-1.0868 0,-0.6324 -0.438,-1.0828 -1.065,-1.0828 -0.621,0 -1.071,0.4504 -1.071,1.0828 0,0.6305 0.45,1.0868 1.071,1.0868 m 0,-2.3828 c 0.758,0 1.302,0.5382 1.302,1.296 0,0.7633 -0.544,1.3 -1.302,1.3 -0.752,0 -1.296,-0.5367 -1.296,-1.3 0,-0.7578 0.544,-1.296 1.296,-1.296 m -74.982,-0.6704 c 0,0.8243 -0.672,1.4645 -1.498,1.4645 -0.854,0 -1.494,-0.6402 -1.494,-1.4957 0,-0.8539 0.64,-1.4941 1.494,-1.4941 0.856,0 1.498,0.6695 1.498,1.5253 m 42.689,5.4723 0,-2.5887 -0.615,0 c -1.088,0 -2.179,0.3411 -2.96,0.9539 -0.613,0.4758 -1.001,0.9536 -1.477,2.0774 l 0,-2.6473 -2.543,0 0,15.691 2.543,0 0,-7.9687 c 0,-1.8055 0.282,-2.7258 0.966,-3.7125 0.783,-1.159 1.973,-1.807 3.369,-1.807 0.061,0 0.717,0.002 0.717,0.002 m 21.455,-2.3114 0,2.3105 c 1.363,-1.8386 2.627,-2.5886 4.57,-2.5886 1.429,0 2.725,0.4781 3.644,1.2945 0.988,0.9535 1.329,2.0441 1.329,4.1898 l 0,10.5907 -2.545,0 0,-10.0129 c 0,-1.3961 -0.214,-2.1461 -0.623,-2.6903 -0.442,-0.648 -1.398,-1.0554 -2.451,-1.0554 -1.159,0 -2.215,0.4425 -2.998,1.3273 -0.75,0.8168 -0.926,1.5684 -0.926,2.8625 l 0,9.5688 -2.757,0 0,-15.7969 2.757,0 m -36.049,15.7976 2.8609,0 0,-21.4004 -2.8609,0 0,21.4004 z m -16.754,-8.7879 c 0.202,-1.2355 0.401,-1.8679 0.869,-2.6019 0.901,-1.3375 2.436,-2.1383 4.139,-2.1383 1.702,0 3.272,0.8008 4.239,2.1027 0.535,0.7696 0.834,1.4372 0.934,2.6375 l -10.181,0 z m 12.821,0.8696 c 0,-4.5074 -3.341,-7.8789 -7.813,-7.8789 -4.507,0 -7.745,3.3715 -7.745,8.1136 0,4.6715 3.27,8.0098 7.843,8.0098 2.937,0 5.575,-1.566 6.843,-4.1351 l -2.3,-0.734 c -0.92,1.5429 -2.681,2.5336 -4.543,2.5336 -2.803,0 -4.805,-2.0149 -5.139,-4.9891 l 12.818,0 c 0.036,-0.366 0.036,-0.6852 0.036,-0.9199 m -20.77,7.9011 0,-21.4277 2.536,-0.8105 0,22.2382 -2.536,0 m -6.15,0.0172 2.5371,0 0,-15.7969 -2.5371,0 0,15.7969 z m -9.982,-1.7793 c -3.004,0 -5.0071,-2.3375 -5.0071,-5.8406 0,-3.3715 2.1695,-5.809 5.1061,-5.809 2.906,0 4.976,2.4688 4.976,5.909 0,3.4383 -2.037,5.7406 -5.075,5.7406 m 0.434,-13.9211 c -2.238,0 -3.8728,0.9028 -5.4075,3.0055 l 0,-9.4859 -2.5375,0.8984 0,21.2828 2.5375,0 0,-2.5804 c 1.5015,2.1031 3.1695,3.0035 5.5405,3.0035 4.206,0 7.178,-3.3032 7.178,-8.0098 0,-4.7758 -3.003,-8.1141 -7.311,-8.1141 M 102,46.7 c 0,3.4047 2.1027,5.7094 5.2414,5.7094 3.0367,0 5.2082,-2.3711 5.2082,-5.7094 0,-3.4383 -2.0695,-5.7426 -5.1769,-5.7426 -3.17,0 -5.2727,2.3043 -5.2727,5.7426 m 13.052,0.0332 c 0,4.5051 -3.4383,8.0121 -7.877,8.0121 -4.5738,0 -7.7789,-3.3382 -7.7789,-8.0785 0,-4.7734 3.2051,-8.0453 7.8766,-8.0453 4.5406,0 7.7793,3.3715 7.7793,8.1117 m -20.4016,-9.7152 0,17.3027 2.8371,0 0,-21.4164 -2.843,0 -7.405,9.4668 -7.4047,-9.4668 -2.8098,0 0,21.4164 2.8625,0 0,-17.3027 7.352,9.4805 7.4109,-9.4805 m 88.6606,9.6082 c 0,3.4051 2.102,5.7074 5.241,5.7074 3.039,0 5.208,-2.3691 5.208,-5.7074 0,-3.4383 -2.069,-5.7426 -5.177,-5.7426 -3.17,0 -5.272,2.3043 -5.272,5.7426 m 13.051,0.0332 c 0,4.5055 -3.438,8.0121 -7.877,8.0121 -4.573,0 -7.778,-3.3383 -7.778,-8.0785 0,-4.7734 3.205,-8.0453 7.876,-8.0453 4.541,0 7.779,3.3715 7.779,8.1117"></path></svg>