 <svg 
   xmlns="http://www.w3.org/2000/svg"

   viewBox="0 0 187.7 151"
   height="151"
   width="187.7"
   version="1.0"> 

   <path 
     d="m 108.9,5 c -8.3,8.25 -15.56,18.26 -21.11,29.74 -0.39,0.82 -0.78,1.65 -1.16,2.48 0,0 0,0 0,0 -0.38,0.84 -0.75,1.68 -1.11,2.53 0,0 0,0 0,0 -1.06,2.5 -2.02,5.01 -2.88,7.53 0,0 0,0 0,0 -0.17,0.49 -0.33,0.99 -0.49,1.48 -0.11,0.33 -0.22,0.66 -0.33,1 -0.49,-0.37 -0.99,-0.74 -1.49,-1.1 -1.14,-0.8 -2.29,-1.58 -3.47,-2.33 0,0 0,0 0,0 -2.15,-1.37 -4.38,-2.65 -6.67,-3.85 -0.21,-0.11 -0.42,-0.22 -0.64,-0.34 0,0 0,0 0,0 -0.63,-0.32 -1.27,-0.63 -1.9,-0.94 0,0 0,0 0,0 -0.63,-0.3 -1.28,-0.6 -1.93,-0.9 0,0 0,0 0,0 -1.29,-0.58 -2.61,-1.13 -3.94,-1.66 0,0 0,0 0,0 -1.33,-0.52 -2.68,-1.02 -4.05,-1.48 0,0 0,0 0,0 -0.68,-0.23 -1.37,-0.45 -2.06,-0.67 0,0 0,0 0,0 -0.2,-0.1 -0.41,-0.12 -0.62,-0.18 -0.99,-0.3 -1.99,-0.59 -3,-0.86 -0.19,-0.1 -0.38,-0.1 -0.57,-0.15 0,0 0,0 0,0 -0.17,-0.1 -0.35,-0.1 -0.52,-0.13 -1.24,-0.32 -2.5,-0.61 -3.76,-0.87 0,0 0,0 0,0 -5.64,18.63 -9.6,62.24 20.49,78.5 -4.56,-10.7 -7.27,-22.92 -7.54,-35.98 l 0.22,0 c 5.76,0 11.33,1.12 16.58,3.2 0.1,0 0.15,0.1 0.22,0.1 0.29,0.11 0.57,0.23 0.85,0.35 0,0 0,0 0,0 0.3,0.13 0.6,0.25 0.89,0.38 0,0 0.11,0 0.17,0.1 0.22,0.1 0.45,0.21 0.68,0.32 0.1,0 0.17,0.1 0.26,0.13 0.1,0 0.12,0 0.18,0.1 0.21,0.1 0.42,0.2 0.63,0.3 0.36,0.18 0.72,0.38 1.07,0.57 0.28,0.15 0.56,0.29 0.84,0.44 0.1,0.1 0.18,0.11 0.27,0.17 0.4,0.22 0.8,0.45 1.2,0.69 0,0 0,0 0,0 0.13,0.1 0.26,0.15 0.39,0.23 0,0 0,0 0,0 0.41,0.25 0.82,0.52 1.23,0.79 0.19,0.12 0.39,0.24 0.58,0.37 0,0 0,0 0,0 0,0 0,0 0,0 0.61,0.4 1.21,0.82 1.81,1.26 0.46,0.34 0.91,0.69 1.37,1.05 0.14,0.11 0.28,0.21 0.42,0.32 0,0 0,0 0,0 0,0 0,0 0,0 0,0 0,0 0,0 0,0 0,0 0,0 0.16,0.13 0.32,0.26 0.48,0.39 0,0 0.1,0.1 0.1,0.1 0.38,0.32 0.77,0.63 1.15,0.96 0,0 0,0 0,0 0.32,-0.84 0.65,-1.67 0.99,-2.49 0,0 0,0 0,0 0,0 0,0 0,0 0.14,-0.34 0.29,-0.68 0.43,-1.01 0.21,-0.47 0.41,-0.95 0.61,-1.41 0,0 0,0 0,0 0.36,-0.8 0.72,-1.58 1.1,-2.35 0,0 0,0 0,0 0,0 0,0 0,0 0,0 0,0 0,0 0.12,-0.23 0.23,-0.45 0.34,-0.67 0.27,-0.54 0.54,-1.08 0.82,-1.6 0,0 0,0 0,0 0,0 0,0 0,0 0.19,-0.35 0.38,-0.7 0.57,-1.04 0.13,-0.22 0.24,-0.44 0.37,-0.66 0.1,-0.18 0.2,-0.37 0.3,-0.55 0,0 0,0 0,0 0,-0.1 0.1,-0.11 0.1,-0.17 0.18,-0.31 0.36,-0.6 0.54,-0.9 0,0 0,0 0,-0.1 0,-0.1 0.1,-0.12 0.11,-0.19 0.17,-0.29 0.34,-0.58 0.52,-0.87 0,0 0,0 0,-0.1 0,0 0,0 0.1,-0.1 0.41,-0.67 0.84,-1.34 1.27,-2 0.19,-0.25 0.39,-0.5 0.49,-0.75 0.3,-0.47 0.7,-0.93 1,-1.39 3.8,-5.37 8.2,-10.01 13.1,-13.75 7.2,12.9 11.5,28.91 11.5,46.26 0,3.2 -0.1,6.3 -0.4,9.4 C 159.9,72.54 125.3,21.09 108.9,5 Z M 47.57,129.2 c -4.67,0 -8.43,3.7 -8.43,8.4 0,4.7 3.76,8.4 8.43,8.4 4.67,0 8.43,-3.7 8.43,-8.4 0,-4.7 -3.76,-8.4 -8.43,-8.4 z m 126.73,0 c -4.7,0 -8.4,3.7 -8.4,8.4 0,4.7 3.7,8.4 8.4,8.4 2.3,0 4.5,-1 6,-2.5 l 0,1.3 c 0,0.7 0.5,1.2 1.2,1.2 0.7,0 1.2,-0.5 1.2,-1.2 l 0,-14.4 c 0,-0.7 -0.5,-1.2 -1.2,-1.2 -0.7,0 -1.2,0.5 -1.2,1.2 l 0,1.3 c -1.5,-1.6 -3.7,-2.5 -6,-2.5 z m -58.7,0 c -2.8,0 -6.5,0.7 -6.5,6.7 l 0,3.4 c 0,3.8 -1.9,4.3 -4.1,4.3 -0.7,0 -1.2,0.5 -1.2,1.2 0,0.7 0.5,1.2 1.2,1.2 2.8,0 6.5,-0.7 6.5,-6.7 l 0,-3.4 c 0,-3.9 1.8,-4.3 4.1,-4.3 0.6,0 1.2,-0.6 1.2,-1.2 0,-0.7 -0.6,-1.2 -1.2,-1.2 z m -28.98,0.1 c -0.42,-0.1 -0.89,0.1 -1.19,0.4 l -5.4,6.3 -4.04,0 0,-5.5 c 0,-0.7 -0.53,-1.2 -1.21,-1.2 -0.67,0 -1.2,0.5 -1.2,1.2 l 0,14.2 c 0,0.6 0.53,1.2 1.2,1.2 0.68,0 1.21,-0.6 1.21,-1.2 l 0,-6.4 3.22,0 6.7,7.1 c 0.48,0.5 1.39,0.7 1.88,0.2 0.48,-0.5 0.33,-1.2 -0.1,-1.7 l -6.02,-6.3 5.54,-6.4 c 0.43,-0.5 0.58,-1.2 0.1,-1.7 -0.18,-0.1 -0.42,-0.2 -0.68,-0.2 z m -80.417,0 C 5.528,129.3 5,129.8 5,130.5 l 0,14.2 c 0,0.6 0.528,1.2 1.203,1.2 0.674,0 1.205,-0.6 1.205,-1.2 l 0,-11.3 4.722,4.8 c 0.48,0.4 0.72,0.6 1.2,0.6 0.48,0 0.72,-0.2 1.21,-0.6 l 4.62,-4.8 0,11.3 c 0,0.6 0.53,1.2 1.2,1.2 0.68,0 1.21,-0.6 1.21,-1.2 l 0,-14.2 c 0,-0.7 -0.53,-1.2 -1.21,-1.2 -0.48,0 -0.72,0.1 -1.2,0.6 l -5.88,6 -5.872,-6 c -0.481,-0.5 -0.723,-0.6 -1.205,-0.6 z m 128.397,0 c -0.7,0 -1.2,0.5 -1.2,1.2 l 0,14.2 c 0,0.6 0.5,1.2 1.2,1.2 0.6,0 1.2,-0.6 1.2,-1.2 l 0,-6.4 11,0 0,6.4 c 0,0.6 0.6,1.2 1.2,1.2 0.7,0 1.3,-0.6 1.3,-1.2 l 0,-14.2 c 0,-0.7 -0.6,-1.2 -1.3,-1.2 -0.6,0 -1.2,0.5 -1.2,1.2 l 0,5.5 -11,0 0,-5.5 c 0,-0.7 -0.6,-1.2 -1.2,-1.2 z m -87.03,2.3 c 3.33,0 6.02,2.7 6.02,6 0,3.3 -2.69,6 -6.02,6 -3.32,0 -6.02,-2.7 -6.02,-6 0,-3.3 2.7,-6 6.02,-6 z m 126.73,0 c 3.3,0 6,2.7 6,6 0,3.4 -2.8,6 -6,6 -3.3,0 -6,-2.7 -6,-6 0,-3.3 2.7,-6 6,-6 z" /> </svg>