<?xml version="1.0"?>
<svg class="logo mongo-db community-logo" width="512px" height="222" viewBox=" 0 0 677 201" xmlns="http://www.w3.org/2000/svg">
<path class="logotype" d="M 45.54,5 C 45.26,8.776 45.11,10.25 41.52,14.08 35.96,18.42 7.435,42.32 5.106,90.95 2.783,139.6 39.53,162.4 39.53,162.4 c 1.39,-3.1 5.92,-15.7 6.9,-35 0.68,-13.1 0.5,-35.96 0.99,-44.83 C 47.91,73.77 48.06,10.4 45.54,5 Z m 3.12,5.84 c 3.2,35.25 3.69,72.72 3.69,72.72 0,0 1.06,30.84 0.49,43.34 -0.24,5.5 -1.68,29.5 -7.6,46 0.99,5.2 0.7,9.5 0.7,15.2 -0.15,1.3 1.98,0.7 4.69,1.2 6.85,1.3 2.31,-23.9 2.7,-23.8 0,0 43.06,-28.3 32.97,-87.23 C 76.58,35.48 53.65,21.42 51.18,16.04 48.46,12.24 48.9,12.55 48.66,10.84 Z M 504.8,78.56 c -0.7,0.8 -2.8,4.44 -2.5,5.24 3.4,0.41 5.8,0.81 7.6,1.21 3.5,0.81 5.3,1.89 5.7,6.06 0.3,4.98 0.1,20.73 0.1,28.83 0,11.3 0.2,21.2 -0.2,29.6 -0.3,4.4 -0.9,5.7 -3.4,6.7 -1.4,0.6 -2.3,0.7 -5.4,1.1 -1,0.1 -2.6,4.3 -2,5.3 l 0.1,0 c 11.8,0.2 25.8,0.4 34,0.4 15.4,0 26.1,-3.4 34.4,-9.6 8.4,-6 16.7,-16.5 16.7,-34.6 0,-12.8 -4.7,-23.29 -13.4,-30.83 -7.2,-6.18 -17.3,-9.41 -29.3,-9.41 -14.3,0 -19.6,0.4 -27.2,0.4 -4.1,0 -12.9,-0.4 -15.2,-0.4 z m 96.5,0 c -0.6,0.53 -2.7,4.57 -2.1,5.24 2.8,0.41 6.2,0.81 8.2,1.21 2.6,0.68 4,1.89 4.1,5.66 0.1,4.84 0,14.63 0,29.23 0,10.6 0,25.5 -0.3,29.7 -0.4,4.8 -0.8,5.9 -4,6.7 -2.4,0.7 -4,0.8 -6.2,1 -0.8,0.6 -2.7,4.9 -1.7,5.3 9.1,-0.1 25.5,0.6 31.7,0.6 8,0 15.9,-1 22.3,-3.8 10.5,-4.6 17.7,-11.8 17.7,-23.4 0,-11.8 -8.8,-18 -18.9,-20.6 -0.4,-0.1 -0.4,-0.4 0,-0.5 7.1,-3 12.5,-9.2 12.5,-16.83 0,-15.61 -14.4,-19.38 -24.9,-19.38 -8.4,0 -15.5,0.27 -24.3,0.27 -9.2,0 -12.8,-0.4 -14.1,-0.4 z m -64.2,6.05 c 8.9,0 16.7,1.48 22.7,5.25 10.6,6.46 15.8,17.44 15.8,31.04 0,14.2 -4.4,23 -10.8,28.8 -6.3,5.7 -12.7,6.9 -19.2,6.9 -5.1,0 -10.8,-0.9 -13.6,-3.2 -1.8,-1.2 -2.6,-4.1 -2.8,-5.7 -0.2,-1.9 -0.2,-17.5 -0.2,-28.6 0,-10.9 0,-29.38 0.2,-31.8 0,-0.54 0.9,-1.61 1.3,-1.88 1.5,-0.67 4,-0.81 6.6,-0.81 z m 93.7,0.27 c 12.2,0 20.3,4.44 20.3,16.12 0,5.1 -2,9.8 -6.4,12 -1.6,0.8 -4.6,1.5 -9.8,1.5 -3.6,0 -8,-0.2 -9.8,-0.3 -0.3,0 -0.7,-0.4 -0.7,-0.7 0,-8.7 0.2,-21.35 0.3,-26.2 0,-0.67 0.7,-2.02 1.2,-2.15 1.8,-0.27 4.1,-0.27 4.9,-0.27 z M 332.6,106.5 c -5.3,0 -12.4,3.6 -18.2,8.6 -0.2,0.2 -1.1,1 -1.1,-0.3 0.1,-1.3 0.3,-4 0.4,-5.7 0.1,-1.7 -0.9,-2.5 -0.9,-2.5 -3.8,1.9 -14.6,4.4 -18.5,4.8 -2.9,0.6 -3.8,3.4 -0.6,4.3 l 0,0 c 0,0 0.1,0 0.1,0 3.2,1 5.4,2.1 7,3.1 1.2,1 1.1,2.3 1.1,3.4 0.1,9 0.1,22.9 -0.3,30.4 -0.1,3 -0.9,4 -3.1,4.6 l 0.2,-0.1 c -1.6,0.4 -3,0.7 -5.1,0.9 -0.6,0.7 -0.6,4.6 0,5.4 1.4,0 8.4,-0.4 14.1,-0.4 7.9,0 12,0.4 14,0.4 0.8,-0.9 1.1,-4.5 0.6,-5.4 -2.4,-0.1 -4,-0.4 -5.6,-0.8 -2.2,-0.5 -2.8,-1.6 -2.9,-4 -0.3,-6.3 -0.3,-19.8 -0.3,-28.9 0,-2.6 0.7,-3.8 1.5,-4.5 2.8,-2.4 7.3,-4 11.2,-4 3.8,0 6.4,1.2 8.3,2.8 2.6,2.2 3.6,5.3 3.8,7.6 0.6,5.1 0.4,15.3 0.4,24.2 0,4.8 -0.4,6 -2.1,6.6 -0.9,0.4 -3,0.8 -5.6,1 -0.8,0.9 -0.6,4.6 0,5.4 3.5,0 7.6,-0.4 13.6,-0.4 7.5,0 12.3,0.4 14.2,0.4 0.8,-0.9 1.1,-4.4 0.5,-5.4 -3,-0.4 -5.2,-0.8 -7.8,-2 -0.4,-0.2 -0.9,-1.5 -0.9,-1.9 -0.3,-4.1 -0.3,-16.2 -0.3,-24.2 0,-6.4 -1.1,-12.1 -3.8,-16.1 -3.3,-4.6 -7.9,-7.3 -13.9,-7.3 z m -199.3,0.4 c -4.1,1.9 -14.4,4.3 -18.4,4.8 -1.5,0.2 -2.2,1.1 -2.2,1.8 0,0.7 0.6,1.3 1.7,1.6 3,0.9 5.4,1.9 7.3,3.2 1.2,1 1.2,2.4 1.2,3.4 l 0,0.3 c 0.2,9.6 0.1,23.2 -0.3,30.4 -0.1,3.1 -1,4.4 -3.4,5 -1.5,0.4 -2.7,0.7 -5.2,1.1 -0.2,0.2 -0.4,0.8 -0.5,1.8 0,1.3 0.2,2.3 0.5,2.7 1.3,0 2.7,-0.1 4.3,-0.2 2.4,-0.1 5.4,-0.2 9.6,-0.2 3.6,0 6.8,0.1 9.4,0.2 1.6,0.1 3.1,0.2 4.3,0.2 0.4,-0.9 0.6,-3.8 0.3,-4.6 -0.7,-0.1 -1.5,-0.2 -2.2,-0.3 -1.1,-0.2 -2.2,-0.4 -2.8,-0.6 -2.7,-0.6 -3.2,-2.3 -3.3,-3.7 -0.2,-4.7 -0.2,-15.5 -0.1,-24.2 0,-2.6 0,-5 0,-7.1 0,-1.1 0.5,-2.3 1.1,-2.7 3.8,-2.9 8.5,-4.7 12.3,-4.7 6.3,0 10.3,3.5 11.7,10.4 0.8,4.4 0.5,21.6 0.1,27.6 -0.1,2.6 -0.9,3.7 -2.9,4.3 -1.2,0.3 -2.4,0.5 -3.8,0.8 -0.6,0.1 -1.1,0.1 -1.7,0.3 -0.2,0.2 -0.4,1 -0.4,2.1 0,1.3 0.2,2.1 0.4,2.4 1.2,0 3.2,-0.1 5.4,-0.1 2.6,-0.1 5.7,-0.2 7.5,-0.2 6.1,0 10.3,0.1 14.5,0.3 0.1,-0.1 0.3,-0.4 0.4,-1.2 0.3,-1.3 0.3,-2.8 0.1,-3.4 -1.6,-0.2 -2.8,-0.5 -3.8,-0.7 -0.6,-0.2 -1.1,-0.3 -1.8,-0.5 -1.3,-0.5 -2.9,-1.1 -2.9,-3.7 -0.1,-3.9 -0.1,-9 0,-14.4 0,-2.6 0,-5.3 0,-7.8 0,-4.5 0,-7.4 -0.5,-9.9 l 0,-0.1 c 0,-0.3 0.1,-0.9 0.4,-1.1 4.6,-3.5 9.3,-4.7 12.3,-4.7 7.9,0 11.6,5.6 12.3,10.5 0.7,4.6 0.3,24.2 0.2,26.4 -0.1,3.1 -0.8,4.2 -3.1,5 -1.3,0.4 -2.4,0.6 -4.6,1 -0.3,0.7 -0.2,3.6 0.1,4.6 3.7,-0.3 7.5,-0.4 15,-0.4 3.7,0 6.8,0.1 9.1,0.3 1.3,0 2.3,0.1 3.1,0.1 0.4,-0.6 0.9,-3.8 0.7,-4.6 l -0.1,0 c -3,-0.5 -5.4,-0.9 -7,-1.7 -1.3,-0.4 -2.2,-2.2 -2.2,-2.8 0,-2.7 0,-6.6 0.1,-10.8 0,-4.7 0,-9.8 0,-13.8 0,-14 -6.6,-22.4 -17.8,-22.4 -4.7,0 -11.7,3.3 -18.8,8.7 -0.2,0.2 -0.5,0.3 -0.8,0.3 -0.3,0 -0.6,-0.1 -0.8,-0.4 -3.5,-5.8 -8.1,-8.6 -13.9,-8.6 -3.6,0 -10.5,2.2 -18.2,8.3 -0.2,0.2 -0.5,0.3 -0.7,0.3 -0.5,0 -1,-0.5 -1,-0.9 0,-1.5 0.1,-3.1 0.2,-4.4 0.1,-0.5 0.1,-0.9 0.1,-1.4 0.1,-1 -0.3,-1.6 -0.5,-1.9 z m 263,0 c -5.4,0 -13.9,3.2 -17.2,5.9 -4.9,3.5 -7.7,9 -7.7,15.1 0,9.4 4.2,15.6 12.5,18.5 0.3,0.1 0.4,0.3 0.5,0.6 0,0.3 -0.1,0.6 -0.3,0.7 -1.2,1.1 -3.5,2.4 -5.4,3.6 -1.4,0.8 -2.7,1.6 -3.4,2.1 -1.1,0.8 -0.9,1.5 -0.7,2.2 0,0.1 0,0.2 0,0.3 0.5,1.9 2.2,5.5 7.9,7.6 0.2,0.1 0.4,0.3 0.4,0.6 0,0.3 -0.1,0.5 -0.4,0.5 -6.8,4.7 -9.8,7.5 -11.1,8.9 -2.1,2.5 -2.4,5.1 -2.4,6.1 0,3.4 2,8.5 6.4,11.9 4.5,3.4 9.8,5 17.2,5 5.6,0 10.8,-1.2 16,-3.6 10.6,-5.1 16.9,-13.5 16.9,-22.3 0,-6 -3.5,-10.9 -9,-12.9 -4,-1.4 -12.5,-2 -19.4,-2.5 -1.2,-0.1 -2.3,-0.1 -3.3,-0.2 -5.2,-0.4 -6.3,-2.6 -6.3,-4.4 0,-2.1 2.4,-3.2 3.3,-3.5 l 0.1,0 c 0.2,0 1,-0.1 1.6,-0.1 1,-0.1 1.5,-0.2 1.7,-0.2 l 0,0 c 5.3,-0.5 10,-2.3 14,-5.4 4.2,-3.2 8.2,-7.5 8.2,-17.4 0,-0.9 -0.5,-4.1 -0.8,-5.2 0,0 0,-0.1 -0.1,-0.2 -0.1,-0.3 -0.2,-0.6 -0.1,-0.8 l 0.6,-0.2 c 0,0 1,0.3 3.1,0.5 0.2,0.1 0.4,0.1 0.6,0.1 2.1,0 4.3,-1 5.3,-2.3 1.2,-1.7 1.6,-4 1.5,-5.5 -0.1,-1.6 -0.4,-2.2 -0.5,-2.4 -1.7,1.6 -3.7,3.1 -8.4,3.1 -3.1,0 -5.4,-0.3 -7.8,-1.2 -4.4,-1.6 -7.5,-2.8 -13.2,-2.9 l -0.3,-0.1 z m -142.4,0 c -6.1,0 -12.8,2 -18.4,5.5 -8,5.3 -12,13 -12,22.8 0,14 7.3,29 27.8,29 5.7,0 12.5,-2.6 16.5,-5 8.2,-5.4 12.6,-14 12.6,-25 0,-16 -10.9,-27.3 -26.5,-27.3 z m 211.9,0 c -6,0 -12.8,2 -18.4,5.5 -7.9,5.3 -11.9,13 -11.9,22.8 0,14 7.3,29 27.7,29 5.7,0 12.6,-2.6 16.6,-5 8.2,-5.4 12.6,-14 12.6,-25 0,-16 -10.9,-27.3 -26.6,-27.3 z m -73.2,5.2 c 8.2,0 13.1,6 13.1,16.1 0,4.6 -1.5,8.9 -3.8,11 -1.6,1.7 -4.6,2.5 -6.3,2.5 -9.9,0 -13.4,-9.1 -13.4,-16.9 0,-7.7 4.1,-12.7 10.4,-12.7 z m -143.5,0.6 c 11.5,0 19.3,10.4 19.3,26 0,8.1 -1.9,13.9 -5.4,16.7 -2.2,2 -5,2.9 -8.3,2.9 -11.3,0 -19.2,-11 -19.2,-26.8 0,-8.4 2.4,-14.1 7.1,-17 1.7,-1.2 4,-1.8 6.5,-1.8 z m 212,0 c 11.5,0 19.2,10.4 19.2,26 0,8.1 -1.8,13.9 -5.3,16.7 -2.3,2 -5,2.9 -8.4,2.9 -11.3,0 -19.2,-11 -19.2,-26.8 0,-8.4 2.4,-14.1 7.1,-17 1.8,-1.2 4.1,-1.8 6.6,-1.8 z m 167.8,7.7 c 1.5,0 3,0 3.3,0 15.9,0 24.7,6.7 24.7,18.6 0,12.3 -8.3,17.6 -17.7,17.6 -3.5,0 -8.4,-0.3 -10.5,-1.5 -2.1,-0.9 -3.7,-4.2 -4,-6.4 -0.4,-5.4 -0.3,-19 -0.3,-27.5 0,-0.3 0.4,-0.5 0.9,-0.7 0.6,-0.1 2.1,-0.1 3.6,-0.1 z m -237.1,44.9 c 7.3,0 13.4,0.7 17,2 4.7,1.7 6.9,4.8 6.9,9.3 0,6.5 -5.4,13.1 -17.7,13.1 -6.2,0 -10.9,-1.4 -14.4,-4.4 -2.9,-2.5 -4.3,-5.2 -4.3,-8.7 0,-3.7 2.3,-6.9 7.3,-10.1 1.1,-0.5 2.8,-1.2 5.2,-1.2 z">
</path>
</svg>