 <svg 
   xmlns="http://www.w3.org/2000/svg"
   
   viewBox="0 0 744.2 330"
   height="330"
   width="744.2"
   >
  
  <path 
     d="M 16,7.097 16,207 l 25.49,0 0,-95.8 27.67,95.8 19.26,0 27.68,-95.8 0,95.8 25.5,0 0,-199.903 -22.5,0 L 78.92,147.9 38.51,7.097 Z m 295.2,4.203 0,154 c -0.8,0.5 -1.6,0.9 -2.5,1.4 -0.3,-3 -1.8,-6.7 -3.7,-12 -2,-5.6 -1.4,-13.7 -7.1,-17.2 -0.9,-0.5 -2,-0.8 -3,-0.8 -4.5,-0.2 -8.9,4.3 -10.1,8 -0.6,2 -1.2,4.2 -1.9,6.4 -1.1,-1.4 -2.4,-2.6 -3.5,-3.9 11.4,-12.9 18.2,-29.9 18.2,-48.37 0,-4.31 -0.3,-8.62 -1.1,-12.73 0.9,21.6 -5,44.9 -20.3,61 l 5.9,6.5 c -0.9,3.2 -1.9,6.4 -3,9.6 -1.1,3.3 -5.3,-13.1 -5.3,-13.1 l -11.6,8.7 c -6.2,3.9 -12.8,6.9 -19.8,8.7 -30.4,9 -65,-6 -80.4,-33.5 -7.8,-15 -11.7,-32.4 -10.4,-49.24 -0.9,4.59 -1.3,9.28 -1.3,14.07 0,40.47 33.1,73.57 73.7,73.57 13.7,0 26.8,-3.9 37.8,-10.5 4,4.4 8,8.9 12,13.3 -0.6,1.1 -1.2,2.2 -1.9,3.2 -3.1,4.1 -7.7,6.3 -10.8,10.1 -4.6,5.5 -4.2,13.6 -4.2,21 -1.6,6.7 -1.2,14.6 0.6,24.7 0,3.5 0.2,8.1 -1.1,11.6 l -0.3,0.5 c -0.9,-1.4 -2.3,-2.5 -4.2,-3.2 -0.8,-0.3 -1.4,-0.5 -2.1,-0.6 l -0.8,0 c -1.8,0 -3.6,0.7 -5,1.7 -2.4,1.9 -3.4,4.7 -3.2,7.6 0.1,1.2 0.4,1.6 0.9,2.4 0.3,0.9 0.8,1.8 1.5,3 0.8,1.4 1.7,3 2.8,4.7 -1,1.2 -2.1,2.4 -3.2,3.4 -15.7,14.4 -32.1,28.2 -47.7,42.8 l 71,14.9 c 1.3,-0.9 12.7,-12.7 18.7,-18.1 0.5,-0.4 1.5,-1.4 2.5,-2.7 1.6,1.1 3.1,1.9 4.3,2.5 0.6,0.3 1.3,0.5 1.9,0.6 0.7,0.2 1.7,0.3 2.7,-0.5 1.5,-1.1 2.4,-3 2.3,-4.8 0,-1.7 -0.7,-3.3 -1.5,-4.8 -0.5,-1 -1.2,-1.9 -1.8,-2.8 2.1,0.4 4.3,0.6 6.1,0.8 20.7,1.9 44.1,-7.3 60.8,-21.1 l 26.7,29.1 0.6,0.6 0.8,0.1 c 4.3,0.7 8.5,-1 11.6,-4 2.9,-2.8 4.9,-7.1 3.9,-11.6 l -0.1,-0.6 -0.5,-0.5 c -9.2,-10.1 -18.5,-20.3 -27.6,-30.3 5.9,-6.2 12,-12.7 15.2,-20.6 4.5,-11 -6.9,-15 -12.5,-21.3 -0.5,-0.5 -0.9,-1.2 -1.3,-1.9 l 25.2,0 0,-59 c 0,-8.3 -1.5,-15.8 -4.2,-22.3 -2.4,-6.5 -6.2,-12.1 -11.1,-16.9 0.5,-0.2 1,-0.7 1.4,-1.3 0.6,-0.5 0.9,-1 1.3,-1.3 8,-9.7 12,-23.53 12,-42 0,-18.66 -4,-32.64 -12,-41.81 C 382.8,16.36 369.9,11.3 352.8,11.3 Z m 224.6,0 0,146.6 c 0,16.7 3.7,29.4 11,38.3 2.6,3.5 6.7,7.1 12.1,10.2 5.5,3.1 12.6,4.6 21.7,4.6 9,0 16.3,-1.5 21.8,-4.6 5.3,-3.1 9.4,-6.7 12.1,-10.2 7.3,-8.9 10.8,-21.6 10.8,-38.3 l 0,-146.6 -25.4,0 0,146.6 c 0,6.9 -0.7,12.2 -2.2,16 -1.3,3.8 -2.9,6.6 -4.9,8.4 -1.9,1.7 -4,2.6 -6.2,3.1 -2.1,0.2 -4.2,0.3 -6,0.3 -1.8,0 -3.8,-0.1 -5.9,-0.3 -2.2,-0.4 -4.3,-1.4 -6.3,-3.1 -1.9,-1.7 -3.7,-4.6 -5.2,-8.4 -1.2,-3.8 -1.8,-9.1 -1.8,-16 l 0,-146.6 z m -64.3,0.28 c -15.7,0 -27.6,5.14 -35.8,15.45 -7.7,9.59 -11.6,23.28 -11.6,41.27 l 0,86.2 c 0,17.9 3.9,31.7 11.6,41.2 2.9,3.7 7.2,7.2 12.8,10.5 5.8,3.5 13.5,5.2 23,5.2 9.8,0 17.5,-1.8 23.1,-5.2 5.8,-3.3 10.1,-6.8 13,-10.5 7.8,-9.5 11.7,-23.3 11.7,-41.2 l 0,-41 -56.7,0 0,25.8 30.9,0 0,15.2 c 0,7.9 -0.8,14 -2.4,18.4 -1.5,4.2 -3.4,7.2 -5.7,9.2 -2.2,1.9 -4.5,2.9 -7.1,3.3 -2.5,0.4 -4.8,0.6 -6.8,0.6 -2,0 -4.2,-0.2 -6.8,-0.6 -2.3,-0.4 -4.7,-1.4 -6.9,-3.3 -2.4,-2 -4.5,-5 -6.1,-9.2 -1.4,-4.4 -2.1,-10.5 -2.1,-18.4 l 0,-86.2 c 0,-7.28 0.6,-12.92 1.9,-17.13 1.3,-4.12 2.9,-7.28 4.9,-9.19 2.1,-2.2 4.5,-3.54 7,-4.12 2.8,-0.57 5.5,-0.76 8.1,-0.76 2.8,0 5.4,0.19 7.9,0.76 2.8,0.58 5.1,1.92 7.1,4.12 2.2,1.91 3.9,5.07 5.1,9.19 1.3,4.21 1.9,9.85 1.9,17.13 l 0,12.73 25.8,0 0,-12.73 c 0,-17.99 -3.9,-31.68 -11.7,-41.27 -8.1,-10.31 -20.1,-15.45 -36.1,-15.45 z m 174,0 0,199.82 82.7,0 0,-25.4 -57.2,0 0,-61.9 57.2,0 0,-25.47 -57.2,0 0,-61.53 57.2,0 0,-25.52 z M 224,19.84 c -39.3,0 -71.3,32 -71.3,71.33 0,39.23 32,71.23 71.3,71.23 39.2,0 71.3,-32 71.3,-71.23 0,-39.33 -32.1,-71.33 -71.3,-71.33 z m 112.8,17.26 16,0 c 4.1,0 7.7,0.29 10.8,1.05 3.2,0.77 5.9,2.3 7.8,4.6 2.2,2.2 3.9,5.35 4.9,9.47 1.2,4.02 1.6,9.38 1.6,16.08 0,11.96 -1.9,20.38 -5.9,25.45 -0.7,0.96 -2.4,2.2 -5.2,3.83 -2.5,1.53 -7.1,2.3 -14,2.3 l -12.8,0 -3.2,0 z M 224,39.01 c 28.9,0 52.1,23.26 52.1,52.16 l 0,1.72 c -0.1,0.58 -0.1,1.15 -0.2,1.72 -1.3,-23.92 -21.3,-44.88 -45.1,-47.65 -2.4,-0.29 -4.8,-0.48 -7.2,-0.48 -23.4,0.28 -46.2,17.22 -50.3,40.77 -0.4,1.91 -1.2,6.89 -1.4,5.55 -0.1,-0.58 -0.1,-1.15 -0.1,-1.63 0,-28.9 23.3,-52.16 52.2,-52.16 z m 0,10.05 c 27.6,0 49.7,22.11 49.7,49.77 0,4.17 -0.5,8.17 -1.4,12.07 -7.8,19.1 -26.4,32.4 -48.3,32.4 -22,0 -40.5,-13.3 -48.4,-32.5 -0.9,-3.9 -1.4,-7.9 -1.4,-11.97 0,-27.66 22.1,-49.77 49.8,-49.77 z m -5.1,2.68 c -0.7,0 -1.5,0.19 -2.1,0.38 -3.7,1.15 -5.8,5.27 -4.5,8.9 1.1,3.64 5.1,5.65 8.8,4.5 3.6,-1.24 5.6,-5.26 4.5,-8.9 -1,-2.96 -3.7,-4.88 -6.7,-4.88 z m 0.4,3.25 c 1.5,0.1 2.8,1.15 3.2,2.68 0.7,1.92 -0.4,4.12 -2.4,4.79 -2,0.67 -4.2,-0.48 -4.9,-2.49 -0.6,-2.01 0.5,-4.11 2.5,-4.78 0.5,-0.2 1.1,-0.29 1.6,-0.2 z m 4.6,12.35 c -0.3,0 -0.5,0.1 -0.8,0.19 -1.9,0.67 -3,2.78 -2.4,4.69 0.7,1.91 2.8,3.06 4.7,2.39 1.9,-0.67 3.1,-2.77 2.4,-4.69 -0.5,-1.72 -2.2,-2.68 -3.9,-2.58 z m 0.5,1.63 c 0.9,0.1 1.6,0.67 1.8,1.53 0.3,1.05 -0.2,2.2 -1.3,2.49 -1,0.38 -2.2,-0.19 -2.6,-1.25 -0.4,-1.05 0.3,-2.2 1.4,-2.58 0.3,-0.1 0.5,-0.19 0.7,-0.19 z m 112.4,56.73 3.2,0 12.8,0 c 17,0 25.4,8.7 25.4,26.4 l 0,57.7 c -1.3,-3.1 -1.7,-6.2 -5,-8.8 -3.6,-2.9 -9.6,-3.5 -12.6,-6.6 -2.1,-2.2 -0.9,-6.9 -2.6,-9.9 -1.6,-2.8 -8.4,-5.1 -10.9,-8 -5.3,-6.2 -2.5,-13.6 -10.3,-16.1 z m -8.3,38.3 c 0.9,0 1.4,1.1 0.7,2.7 -1.9,2.7 -12.4,8.1 -15.1,9.7 -2.6,0.9 -11.9,4.4 -17,8 -10.3,7.3 -20.4,15.6 -26.5,26.6 -4.3,7.6 -4.7,27.5 -6.4,25.3 -5.4,-1.9 -4.2,-29.4 0.5,-32.3 3.1,-4.9 7.9,-8.8 13.2,-10.7 l 21.9,-14 c 21.3,-19.8 22.8,-12.9 27.2,-14.3 0.5,-0.6 1.1,-0.9 1.5,-1 z m 15.7,14.2 c 3.3,0.3 2.4,4.3 -0.1,5.1 -2.7,1.7 -5.6,3.1 -8.6,4.4 -4.3,2.1 -8.9,4 -12.2,7.6 -2,1.9 -2.6,5.5 -5.7,6 -4,-0.1 -3.7,-6.2 -0.5,-8.1 2.6,-2.7 5.7,-4.9 9.2,-6.7 3.1,-0.9 6.1,-2.2 9.1,-3.4 3.3,-1.1 5.3,-4.5 8.8,-4.9 z m 11.2,18.4 c 1.4,0.1 5.4,2.9 4.4,3.4 -3.3,1.4 -7.1,1.8 -9.2,5.2 -4,3.6 -8.2,7.2 -11.5,11.3 -2,1.7 -1.4,5.5 -4.1,6.1 -3.4,-0.6 -1.9,-4.3 -1.3,-6.4 1.9,-3.7 5,-6.6 7.6,-9.9 3.6,-4.2 7.6,-8.9 13.4,-9.7 0.3,-0.1 0.5,-0.1 0.7,-0.1 z m 19.1,19.2 0.1,0 0.1,0 0.1,0 0.2,0 c 1.7,0.2 1.9,1.8 3.1,2.8 -1.9,1.5 -4.9,1.4 -6,4.1 -5.6,5.7 -12.1,10.7 -17.2,16.9 -0.6,3.2 -5.4,1.8 -4.6,-0.8 2.8,-1.3 0.6,-5.1 3.8,-6.4 3.5,-1.9 5.6,-5.4 8,-8.4 3.1,-3.7 7.1,-7.3 12.1,-8.1 l 0.3,0 z M 254.3,250 c 0.8,0.1 1.6,0.3 2.2,0.9 1.3,1.3 5.4,10.3 6.2,11.8 9.1,10.4 16.2,14.1 25.4,25.3 0.8,1 1.9,2.4 1.6,3.9 -0.1,0.7 -0.7,1.3 -1.3,1.4 -1.2,-0.6 -2.4,-1.2 -3.7,-1.8 l -2.4,-1.8 c -10.4,-8.7 -19.1,-20.5 -27.8,-30.4 -1.1,-1.8 -2.2,-3.5 -3.2,-5.4 -0.6,-1.8 1.1,-3.9 3,-3.9 z m 121.5,6.5 27,29.7 c -0.2,6.3 -4.4,3.2 -6.8,2.3 -8.9,-9.6 -21.8,-22 -25.4,-24.5 1.9,-2.1 2.7,-5 4.8,-7.1 0.1,-0.1 0.2,-0.3 0.4,-0.4 z" />
</svg>
