<?xml version="1.0"?>

<svg xmlns="http://www.w3.org/2000/svg" viewBox="0 0 360 90" height="90" width="360">
  <path d="m 281,21.73 c 0,0 0,32.32 0,32.32 0,1.6 0.8,2.53 1.6,3.12 1,0.62 2.3,0.93 4.2,0.93 1.1,0 2.6,-0.39 2.6,-0.39 0,0 0,-2.89 0,-2.89 -0.4,0 -0.8,0 -1.3,0 -2.7,0 -3.1,-1.06 -3.1,-2.24 0,0 0,-30.9 0,-30.9 z m -85.5,0.33 c -3.1,0 -5.8,0.96 -7.8,2.68 -1.9,1.68 -2.9,4 -2.9,6.51 0,2.76 1.1,4.92 3.4,6.61 2.1,1.5 4.8,2.47 7.4,3.39 4.5,1.62 8.8,3.1 8.8,7.22 0,1.84 -0.6,3.41 -1.8,4.49 -1.3,1.18 -3.2,1.75 -5.6,1.75 -4.4,0 -7.5,-2.4 -9.3,-7.06 0,0 -3.9,1.04 -3.9,1.04 0.9,1.89 2.3,4.62 4.3,6.45 2.3,2.03 5.1,3.01 8.6,3.01 4.2,0 7.4,-1.07 9.4,-3.22 2.2,-2.24 2.7,-5.11 2.7,-7.11 0,-2.87 -1.2,-5.09 -3.7,-6.84 -2.1,-1.53 -4.9,-2.52 -7.6,-3.44 -4.4,-1.51 -8.6,-2.93 -8.5,-6.62 0,-1.72 0.6,-3.06 1.7,-3.99 1.1,-0.95 2.6,-1.43 4.7,-1.43 2.1,0 4,0.6 5.4,1.75 1.4,1.06 2.3,2.62 2.8,4.38 0,0 3.7,-0.49 3.7,-0.49 -1.6,-5.65 -5.7,-9.08 -11.8,-9.08 z m -173,0.49 v 35.11 h 4.05 v -32.1 l 0.11,0.11 9.62,31.99 h 3.12 l 9.68,-31.99 0.1,-0.11 v 32.1 h 4.05 V 22.55 H 46.5 l -8.58,28.22 v 0.11 l -0.1,-0.11 -8.58,-28.22 z m 192.7,0.71 v 8.42 h -3.9 v 3.23 c 0,0 3.9,0 3.9,0 0,0 0,18.05 0,19.14 0,1.6 0.7,2.53 1.6,3.12 0.9,0.62 2.2,0.93 4.1,0.93 1.1,0 2.7,-0.39 2.7,-0.39 0,0 0,-2.89 0,-2.89 -0.5,0 -0.9,0 -1.4,0 -2.7,0 -3,-1.06 -3,-2.24 0,0 0,-17.72 0,-17.72 h 4.4 v -3.23 h -4.4 V 23.26 Z M 69.59,31.19 c -3.41,0 -6.3,1.37 -8.32,3.94 -1.87,2.39 -2.89,5.77 -2.89,9.51 0,3.75 1.02,7.12 2.89,9.52 2.02,2.57 4.91,3.94 8.32,3.94 3.42,0 6.3,-1.37 8.31,-3.94 1.87,-2.4 2.9,-5.77 2.9,-9.52 0,-3.74 -1.03,-7.12 -2.9,-9.51 -2.01,-2.57 -4.89,-3.94 -8.31,-3.94 z M 303,31.25 c -1.7,0 -3.3,0.31 -4.7,0.93 -1.3,0.6 -2.5,1.5 -3.4,2.68 -1.8,2.29 -2.9,5.71 -2.9,9.84 0,4.6 1.3,8.11 3.7,10.44 2.5,2.47 5.8,2.96 8,2.96 5.8,0 8.7,-3.14 9.8,-6.02 0,0 -3.2,-1.58 -3.2,-1.58 -0.8,1.75 -2.6,4.43 -6.6,4.43 -2.3,0 -4.2,-0.95 -5.5,-2.68 -1.3,-1.68 -2,-4.01 -2,-6.79 0,0 17.7,0 17.7,0 0,0 0,-2.46 0,-2.46 0,-4.25 -1.2,-7.42 -3.3,-9.35 -1.7,-1.64 -4.2,-2.4 -7.6,-2.4 z m -192,0.1 c -4.5,0 -11.01,3.07 -11.01,13.4 0,10.03 6.51,13.4 10.81,13.4 2.6,0 4.9,-1.41 6.5,-3.45 0,0 0.2,-0.11 0.2,-0.11 0,0 0,4.92 0,4.92 0,3.46 -3,5.58 -6.2,5.58 -3.1,0 -5.8,-0.59 -8.1,-1.64 0,0 0,3.5 0,3.5 1.9,0.81 5,1.31 7.6,1.31 7.2,0 10.6,-3.95 10.6,-9.67 0,0 0,-26.75 0,-26.75 h -3 c 0,0 -0.9,2.74 -0.9,2.74 -1.4,-1.94 -3.4,-3.23 -6.5,-3.23 z m 26.2,0 c -5.8,0 -8.5,3.44 -9.6,5.58 0,0 3.2,1.69 3.2,1.69 0.4,-1.22 2.1,-4.04 6.4,-4.04 3.5,0 5.2,1.52 5.2,4.54 0,0 0,0.93 0,0.93 0,0 0.1,0.28 0,0.38 -0.2,0.16 -0.5,0.29 -1.4,0.38 -4.8,0.54 -8,1.33 -10.4,2.85 -2.5,1.64 -4.1,3.95 -4.1,7.1 0,2.25 1,4.16 2.5,5.53 1.3,1.25 3.1,1.91 5.1,1.97 4.3,0.13 7.1,-1.64 8.4,-3.72 0.1,1.43 0.7,2.25 1.8,2.84 1.1,0.57 2.8,0.46 3.5,0.28 0,0 0,-2.74 0,-2.74 -0.9,0 -1.4,-0.47 -1.4,-1.58 0,0 0,-12.53 0,-12.53 0,0 0,-1.64 0,-1.64 0,-2.58 -1,-4.7 -3,-6.07 -1.6,-1.13 -3.8,-1.75 -6.2,-1.75 z m 27.8,0 c -2.6,0 -5.3,1.37 -7.6,3.94 v -3.45 h -4 v 25.92 h 4 c 0,0 0,-19.25 0,-19.25 1.4,-1.47 4.5,-3.93 7.3,-3.93 2.8,0 4,1.38 4,4.48 0,0 0,18.7 0,18.7 h 4.1 c 0,0 0,-18.81 0,-18.81 0,-5.6 -4,-7.6 -7.8,-7.6 z m 73.2,0 c -5.7,0 -8.4,3.44 -9.6,5.58 0,0 3.2,1.69 3.2,1.69 0.5,-1.22 2.1,-4.04 6.5,-4.04 3.4,0 5.2,1.52 5.2,4.54 0,0 0,0.93 0,0.93 0,0 0,0.28 -0.1,0.38 -0.1,0.16 -0.5,0.29 -1.3,0.38 -4.9,0.54 -8.1,1.33 -10.4,2.85 -2.6,1.64 -4.2,3.95 -4.2,7.1 0,2.25 1.1,4.16 2.5,5.53 1.4,1.25 3.2,1.91 5.2,1.97 4.2,0.13 7,-1.64 8.4,-3.72 0.1,1.43 0.6,2.25 1.8,2.84 1,0.57 2.8,0.46 3.5,0.28 0,0 0,-2.74 0,-2.74 -0.9,0 -1.5,-0.47 -1.5,-1.58 0,0 0,-12.53 0,-12.53 0,0 0,-1.64 0,-1.64 0,-2.58 -1,-4.7 -3,-6.07 -1.6,-1.13 -3.8,-1.75 -6.2,-1.75 z m 27.9,0 c -2.7,0 -5.4,1.37 -7.6,3.94 v -3.45 h -4.1 v 25.92 h 4.1 c 0,0 0,-19.25 0,-19.25 1.4,-1.47 4.4,-3.93 7.3,-3.93 2.8,0 4,1.38 4,4.48 0,0 0,18.7 0,18.7 h 4 c 0,0 0,-18.81 0,-18.81 0,-5.6 -3.9,-7.6 -7.7,-7.6 z m -167.64,0.1 c -4.11,0 -6.54,1.59 -8.64,5.36 V 36.5 31.79 h -4.05 v 25.87 h 4.05 c 0,0 0,-14.66 0,-14.66 1,-5.32 3.82,-7.82 8.64,-7.82 0,0 0,-3.77 0,-3.77 z m 218.14,0.33 9,25.7 c 0,0 0,0.22 0,0.22 -0.5,2.46 -2.1,5.5 -3.5,6.45 -1.2,0.84 -2.5,0.93 -3.6,0.93 -0.5,0 -1.5,-0.17 -1.9,-0.27 0,0 0,3.12 0,3.12 0.5,0.13 1.8,0.38 2.6,0.38 2,0 3.6,-0.48 5,-1.48 1.6,-1.19 3.4,-4.29 4.3,-6.94 0,0 9,-28.11 9,-28.11 h -3.9 l -5.9,19.9 -0.1,0.44 -0.1,-0.44 -7,-19.9 z M 69.59,34.42 c 4.35,0 6.94,3.82 6.94,10.22 0,6.41 -2.59,10.23 -6.94,10.23 -4.35,0 -6.95,-3.82 -6.95,-10.23 0,-6.4 2.6,-10.22 6.95,-10.22 z m 41.71,0 c 2.3,0 4.3,0.99 6.2,3.34 0,0 0,12.36 0,12.36 -1.1,2.98 -4.1,4.7 -6.2,4.7 -4.2,0 -7,-2.6 -7,-10.39 0,-6.55 2.5,-10.01 7,-10.01 z m 191.9,0 c 4.6,0 6.7,2.45 6.7,7.77 0,0 -13.6,0 -13.6,0 0.3,-5.31 2.5,-7.77 6.9,-7.77 z m -160.7,9.14 c 0,0 0,6.56 0,6.56 -0.1,2.26 -4.4,5.01 -7.8,4.81 -1.9,-0.1 -3.8,-1.64 -4,-4.16 -0.3,-4.2 2.9,-5.95 9.9,-6.72 0.5,-0.1 1.5,-0.22 1.9,-0.49 z m 101.1,0 c 0,0 0,6.56 0,6.56 -0.2,2.26 -4.4,5.01 -7.9,4.81 -1.9,-0.1 -3.7,-1.64 -3.9,-4.16 -0.3,-4.2 2.8,-5.95 9.9,-6.72 0.5,-0.1 1.4,-0.22 1.9,-0.49 z"></path>

</svg>
