<?xml version="1.0"?>

<svg xmlns="http://www.w3.org/2000/svg" viewBox="0 0 1044 236.8" height="236.8" width="1044">
  <path d="M 118.4,22 C 65.2,22 22,65.2 22,118.4 c 0,53.3 43.2,96.4 96.4,96.4 53.2,0 96.4,-43.7 96.4,-96.4 C 214.8,65.2 171.6,22 118.4,22 Z m -28.9,20.6 28.9,96 28.9,-96 36.9,123.3 h -5.8 c 0,0 -2.1,-6.3 -3.8,-12.1 -8.5,-27.5 -19.2,-38.3 -35.1,-32.4 -4,1.4 -9.7,6.6 -12.9,11.9 -2.7,4.5 -6.9,12.2 -8.2,18.2 -1.4,-6 -5.6,-13.7 -8.2,-18.2 -3.3,-5.3 -8.9,-10.5 -12.9,-11.9 -15.9,-5.9 -26.7,4.9 -35.1,32.4 -1.7,5.8 -3.8,12.1 -3.8,12.1 h -5.8 z m 360.3,42.29 c -5.3,0.1 -10.7,0.69 -15.8,1.61 -15.8,3.7 -34.5,15.4 -37.7,32.9 -1.6,10.2 3.4,19 11.8,24.2 11.1,6.6 24.5,8.5 38,7.9 9.5,-0.9 19.5,-3.4 28,-8 8.5,-4.7 15.5,-11.5 19.2,-21.3 2.6,-6.3 2.3,-14.9 -1.7,-20.5 C 481.4,88.8 465.7,84.62 449.8,84.89 Z m 177.4,0 c -5.3,0.1 -10.6,0.69 -15.8,1.61 -15.8,3.7 -34.4,15.4 -37.7,32.9 -1.5,10.2 3.4,19 11.9,24.2 11,6.6 24.4,8.5 38,7.9 9.4,-0.9 19.4,-3.4 27.9,-8 8.5,-4.7 15.5,-11.5 19.2,-21.3 2.7,-6.3 2.3,-14.9 -1.6,-20.5 -10.2,-12.9 -26,-17.08 -41.9,-16.81 z m 191.1,0 c -5.3,0.1 -10.7,0.69 -15.8,1.61 -15.8,3.7 -34.5,15.4 -37.7,32.9 -1.5,10.2 3.4,19 11.8,24.2 11.1,6.6 24.4,8.5 38,7.9 9.6,-0.9 19.5,-3.4 28,-8 8.5,-4.7 15.5,-11.5 19.2,-21.3 2.7,-6.3 2.3,-14.9 -1.6,-20.5 C 850,88.8 834.2,84.62 818.3,84.89 Z m -519.6,1.41 -17.9,65 h 21.3 c 0,0 9.1,-33.8 9.3,-34.4 0.2,-0.7 0.6,-0.9 0.7,-0.9 0.1,0 0.4,0.3 0.4,0.4 l 8.3,34.9 H 335 l 27.6,-34.2 c 0.2,0 0.4,-0.1 0.5,0.1 l -9.1,34.1 h 25.9 l 17.7,-65 h -35.2 l -22.4,28 -6.8,-28 z m 203.2,0 -5.6,20.7 h 26.2 c 0.7,0 1.1,0.6 1,1.2 l -11.7,43.1 h 25.9 l 12.1,-44.1 0.5,-0.6 h 26.6 l 5.2,-20.3 z m 185,0 c -5.3,21.4 -10.9,43.4 -16,65 h 24.4 l 4.5,-19 0.6,-0.3 h 20.4 c 3.5,0.1 4.9,2.5 4.9,5.1 l -0.8,8.5 c -0.1,1.2 0.1,2.3 0.5,3.2 0.6,1.3 1.8,2.2 3.1,2.5 h 29.1 c -1.7,-1.4 -3.6,-3.5 -3.5,-5.9 0.3,-4.7 2.1,-9.8 0.9,-14.9 -0.7,-3.7 -4.6,-6 -7.8,-7.3 -0.5,-0.4 0.1,-0.7 0.4,-1 6.6,-2.5 13.9,-7.3 16.6,-14.4 2.1,-5.1 1.5,-11.9 -2.6,-15.9 -3.3,-3.3 -8.5,-5.6 -13.8,-5.6 H 718 Z m 191.6,0 -14.9,64.9 h 64.8 l 4.3,-18.7 H 895 c -0.4,0 -0.7,-0.5 -0.8,-0.9 l 10.2,-45.3 z m 96.8,0 -41.8,65 H 955 l 7.8,-11.6 h 23.4 6.6 c 0.2,0 0.3,0.2 0.4,0.5 l 2.6,11.1 h 27.2 l -15,-65 z m -525.5,15.9 c 4.6,0 9.1,1.1 12.5,3.5 1.9,1.2 3.5,3.2 4.3,5.2 1.4,7 -1.7,13.5 -7.2,18 -6.9,5.8 -17.2,8.3 -25.9,4.8 -3.4,-1.3 -6.9,-4.5 -7.4,-8.2 -0.6,-8.3 3.7,-16.1 11.1,-20.2 3.5,-2.1 8.1,-3.2 12.6,-3.1 z m 177.5,0 c 4.5,0 9.1,1.1 12.5,3.5 1.8,1.2 3.5,3.2 4.3,5.2 1.4,7 -1.8,13.5 -7.3,18 -6.9,5.8 -17.1,8.3 -25.9,4.8 -3.4,-1.3 -6.8,-4.5 -7.3,-8.2 -0.7,-8.3 3.6,-16.1 11.1,-20.2 3.4,-2.1 8,-3.2 12.6,-3.1 z m 191.1,0 c 4.5,0 9.1,1.1 12.4,3.5 2,1.2 3.6,3.2 4.3,5.2 1.5,7 -1.7,13.5 -7.2,18 -6.9,5.8 -17.1,8.3 -25.9,4.8 -3.4,-1.3 -6.9,-4.5 -7.4,-8.2 -0.5,-8.3 3.8,-16.1 11.2,-20.2 3.5,-2.1 8.1,-3.2 12.6,-3.1 z m -99.7,0.9 h 15.8 c 1.1,0.1 2.7,1.2 3.3,2.6 0.8,2.1 0.1,4.3 -1.4,5.8 -1.9,1.9 -3.6,2.7 -5.9,3 h -25.7 l 2.6,-11.3 z m 266.3,3.8 c 0.1,0 0.3,0 0.3,0.2 l 3.9,16.1 h -5.7 -9.6 l 11,-16.3 c 0,0 0.1,0 0.1,0 z"></path>
</svg>
