<?xml version="1.0"?>
<!--?xml version="1.0" encoding="UTF-8" standalone="no"?-->
<svg xmlns="http://www.w3.org/2000/svg" viewBox="0 0 792 288" height="288px" width="792px"> <path d="m 301.09,41.5 c -0.84,0.8 -0.84,2.14 0,2.95 0.8,0.73 2.15,0.73 2.91,0 0.77,-0.81 0.77,-2.15 0,-2.95 -0.77,-0.8 -2.11,-0.8 -2.91,0 z m -1.69,2.57 c -1.38,2.57 -18.93,20.88 -18.93,20.88 0,0 18.85,-17.97 21.15,-19.08 1.61,-0.96 2.03,-1.15 2.03,-1.15 l -2.87,-2.84 c 0,0 -1.03,1.76 -1.38,2.19 z m 13.53,-5.33 c -1.34,1.38 -1.34,3.57 0,4.98 1.38,1.34 3.64,1.34 4.94,0 1.38,-1.42 1.38,-3.6 0,-4.98 -1.3,-1.34 -3.56,-1.34 -4.94,0 z m -2.88,4.41 c -2.37,4.33 -32.19,35.63 -32.19,35.63 0,0 32.03,-30.69 36.02,-32.53 2.68,-1.65 3.37,-2.07 3.37,-2.07 l -4.79,-4.83 c 0,0 -1.79,2.99 -2.41,3.8 z m 26.79,1.64 c -1.91,1.96 -1.91,5.1 0,7.05 1.99,1.92 5.18,1.92 7.13,0 1.88,-1.95 1.88,-5.09 0,-7.05 -1.96,-1.91 -5.14,-1.91 -7.13,0 z m -4.1,6.29 c -3.34,6.13 -47.06,52 -47.06,52 0,0 46.9,-45.06 52.57,-47.66 3.79,-2.3 4.87,-2.76 4.87,-2.76 l -6.97,-6.97 c 0,-0.02 -2.45,4.2 -3.41,5.39 z m 25.21,46.32 c -0.73,0.8 -2.07,0.8 -2.91,0 -0.8,-0.84 -0.8,-2.15 0,-2.99 0.84,-0.77 2.19,-0.77 2.91,0 0.8,0.85 0.8,2.15 0,2.99 z m -2.53,1.65 c -2.53,1.42 -20.96,18.93 -20.96,18.93 0,0 18.05,-18.85 19.2,-21.15 0.92,-1.57 1.15,-2.07 1.15,-2.07 l 2.83,2.91 c 0,0 -1.76,1.04 -2.22,1.38 z m 5.41,-13.64 c -1.3,1.42 -3.56,1.42 -4.94,0 -1.34,-1.42 -1.34,-3.56 0,-4.98 1.38,-1.34 3.64,-1.34 4.94,0 1.41,1.42 1.41,3.56 0,4.98 z m -4.34,2.87 c -4.33,2.38 -35.63,32.23 -35.63,32.23 0,0 30.73,-32.11 32.53,-36.05 1.65,-2.64 2.03,-3.41 2.03,-3.41 l 4.79,4.87 c 0,-0.01 -2.95,1.79 -3.72,2.36 z m -3.17,-27.85 c -1.99,1.91 -5.17,1.91 -7.09,0 -1.91,-1.99 -1.91,-5.1 0,-7.01 1.92,-1.95 5.1,-1.95 7.09,0 1.95,1.91 1.95,5.01 0,7.01 z m -6.29,4.06 c -6.17,3.45 -52.84,47.94 -52.84,47.94 0,0 45.91,-47.7 48.51,-53.34 2.3,-3.83 2.76,-4.83 2.76,-4.83 l 6.93,6.86 c 0,0 -4.25,2.52 -5.36,3.37 z m 12.3,8.62 c -1.8,1.8 -4.6,1.8 -6.36,0 -1.76,-1.72 -1.76,-4.6 0,-6.32 1.76,-1.84 4.56,-1.84 6.36,0 1.76,1.72 1.76,4.6 0,6.32 z m -5.63,3.75 c -5.56,3.07 -46.55,42.07 -46.55,42.07 0,0 40.27,-41.92 42.61,-47.01 2.07,-3.49 2.53,-4.37 2.53,-4.37 l 6.25,6.29 c 0,0 -3.81,2.22 -4.84,3.02 z M 324.12,39.31 c -1.68,1.72 -1.68,4.6 0,6.36 1.76,1.73 4.75,1.73 6.48,0 1.72,-1.76 1.72,-4.64 0,-6.36 -1.73,-1.76 -4.72,-1.76 -6.48,0 z m -3.64,5.64 c -3.1,5.59 -41.38,45.67 -41.38,45.67 0,0 41.23,-39.43 46.32,-41.76 3.45,-2.11 4.37,-2.53 4.37,-2.53 l -6.25,-6.28 c 0,-0.01 -2.26,3.86 -3.06,4.9 z m -11.19,179.36 c -4.52,0 -8.12,-5.29 -8.12,-9.16 v -70.88 c 0,-3.83 12.95,-8.51 17.43,-8.51 0,0 5.98,-2.57 5.98,8.43 0,4.18 6.32,6.98 6.32,6.98 3.79,2.3 6.51,5.02 6.51,8.77 v 55.21 c 0,3.87 -3.64,9.16 -8.16,9.16 z m -2.84,-68.93 c -2.99,0 -5.29,-2.87 -5.29,-6.55 v -7.13 c 0,-3.56 1,-10.96 10.88,-10.96 h 1.8 c 9.27,0 10.92,7.4 10.92,10.96 v 7.13 c 0,3.68 -2.37,6.55 -5.36,6.55 z m 2.84,68.93 c -4.52,0 -8.12,-5.29 -8.12,-9.16 v -70.88 c 0,-3.83 12.95,-8.51 17.43,-8.51 0,0 5.98,-2.57 5.98,8.43 0,4.18 6.32,6.98 6.32,6.98 3.79,2.3 6.51,5.02 6.51,8.77 v 55.21 c 0,3.87 -3.64,9.16 -8.16,9.16 z m -2.84,-68.93 c -2.99,0 -5.29,-2.87 -5.29,-6.55 v -7.13 c 0,-3.56 1,-10.96 10.88,-10.96 h 1.8 c 9.27,0 10.92,7.4 10.92,10.96 v 7.13 c 0,3.68 -2.37,6.55 -5.36,6.55 z m 108.1,1.19 c 0,2.95 -2.22,5.32 -4.9,5.32 h -41.11 c -2.76,0 -4.98,-2.37 -4.98,-5.32 v -12.99 c 0,-2.95 2.22,-5.36 4.98,-5.36 h 41.11 c 2.68,0 4.9,2.41 4.9,5.36 z M 192.27,108.71 c 0,0 0,-10.62 11.34,-10.62 8.05,0 57.59,0 69.39,0 5.56,0 10.11,2.8 10.11,9.73 0,7.01 0,20.23 0,20.23 0,0 -0.57,8.55 -10.38,8.55 -8.39,0 -11.23,-6.25 -11.23,-8.59 0,-1.88 0,-7.05 0,-7.05 0,0 -0.19,-4.48 -5.44,-4.48 -2.64,0 -38.4,0 -38.4,0 0,0 -4.1,0.57 -4.1,5.63 0,5.1 0,19.28 0,19.28 0,0 -0.15,4.59 5.94,4.59 5.4,0 53.72,0 53.72,0 0,0 9.65,0.42 9.65,9.39 0,7.78 0,58.66 0,58.66 0,0 0.1,10.35 -11.8,10.35 -7.09,0 -2.61,0 -67.63,0 0,0 -11.34,-0.61 -11.34,-11.04 0,-7.01 0,-24.33 0,-24.33 0,0 0,-10.81 11.03,-10.81 10.88,0 10.73,11.08 10.73,11.08 v 7.93 c 0,0 0,4.64 5.4,4.64 3.64,0 19.73,0 25.17,0 3.37,0 5.29,-1.73 5.29,-4.87 0,-3.49 0,-26.86 0,-26.86 0,0 0.54,-5.33 -5.6,-5.33 -4.56,0 -43.18,0 -43.18,0 0,0 -8.74,-0.69 -8.74,-9.2 0,-5.27 0.1,-46.84 0.1,-46.84 z m 479.23,-0.5 c 0,0 0,-10.54 11.3,-10.54 9.28,0 69.7,0 69.7,0 0,0 9.92,0.69 9.92,9.7 0,7.01 0,20.73 0,20.73 0,0 -0.69,7.93 -10.92,7.97 -6.29,0.1 -10.96,-4.17 -10.96,-8.12 0,-1.91 0.1,-6.97 0.1,-6.97 0,0 -0.1,-4.64 -5.33,-4.64 -2.68,0 -38.35,0 -38.35,0 0,0 -4.06,0.27 -4.06,5.29 0,5.13 0,18.66 0,18.66 0,0 -0.8,5.25 5.9,5.25 5.4,0 52.38,0 52.38,0 0,0 10.96,1.08 10.96,10.77 0,7.78 0,58.17 0,58.17 0,0 0.27,9.84 -9.58,9.84 -7.36,0 -70.92,0 -70.92,0 0,0 -10.27,0.31 -10.27,-10.27 0,-7.01 0,-25.63 0,-25.63 0,0 -0.53,-10.65 11.04,-10.65 11.19,0 10.73,10.92 10.73,10.92 v 8.2 c 0,0 -0.27,4.9 5.48,4.9 4.52,0 25.29,0.1 25.29,0.1 0,0 5.21,0 5.21,-5.33 0,-3.45 0,-26.82 0,-26.82 0,0 0.54,-5.44 -5.71,-5.44 -4.56,0 -43.22,0 -43.22,0 0,0 -8.51,-0.19 -8.51,-9.08 0,-5.38 -0.16,-46.99 -0.16,-46.99 z m -537.71,105.1 c 0,-8.78 0,-43.87 0,-49.74 0,-5.29 -3.29,-7.66 -5.02,-8.85 -3.83,-2.68 -10.54,-7.4 -12.99,-9.88 -2.26,-2.26 -2.15,-6.13 -2.15,-6.13 v -17.74 c 0,0 -0.12,-4.33 4.56,-4.33 0,0 27.89,0 31.11,0 2.8,0 4.56,1.61 4.56,4.52 0,3.03 0.31,92.42 0.31,92.42 0,0 -0.46,10.81 10.73,10.81 10.81,0 11.54,-11.07 11.54,-11.07 0,0 0,-97.21 0,-105.53 0,-6.59 -4.64,-9.88 -9.97,-9.88 -9.77,0 -52.72,0 -62.49,0 -11,0 -11.57,10.5 -11.57,10.5 0,0 0,97.13 0,105.14 0,7.2 4.25,10.77 10.57,10.77 4.37,0 14.91,0.1 20.96,0.1 7.06,0 9.85,-4.81 9.85,-11.09 z m -62.87,-0.1 c 0,0 0,-42.91 0,-49.66 0,-5.29 -3.37,-7.78 -5.14,-9 -3.87,-2.64 -10.46,-7.28 -12.76,-9.73 -2.29,-2.26 -2.18,-6.13 -2.18,-6.13 v -17.47 c 0,-2.95 2.26,-4.6 4.45,-4.6 5.36,0 29.39,0 32.34,0 2.68,0 4.56,1.61 4.56,4.52 0,3.03 0.23,89.66 0.23,89.66 0,0 3.87,5.75 10.77,7.13 8.89,1.99 10.46,-2.37 10.46,-2.37 0,0 0,-99.47 0,-107.79 0,-8.31 -10.23,-9.88 -10.23,-9.88 0,0 -53.22,0 -64.22,0 -6.17,0 -9.62,3.87 -9.62,9.54 0,10.96 0,98.59 0,106.1 0,8.05 3.3,10.85 9.62,10.77 3.95,0 15.67,0.1 22.18,0.1 9.88,0 9.54,-11.17 9.54,-11.17 z m 62.87,0.1 c 0,-8.78 0,-43.87 0,-49.74 0,-5.29 -3.29,-7.66 -5.02,-8.85 -3.83,-2.68 -10.54,-7.4 -12.99,-9.88 -2.26,-2.26 -2.15,-6.13 -2.15,-6.13 v -17.74 c 0,0 -0.12,-4.33 4.56,-4.33 0,0 27.89,0 31.11,0 2.8,0 4.56,1.61 4.56,4.52 0,3.03 0.31,92.42 0.31,92.42 0,0 -0.46,10.81 10.73,10.81 10.81,0 11.54,-11.07 11.54,-11.07 0,0 0,-97.21 0,-105.53 0,-6.59 -4.64,-9.88 -9.97,-9.88 -9.77,0 -52.72,0 -62.49,0 -11,0 -11.57,10.5 -11.57,10.5 0,0 0,97.13 0,105.14 0,7.2 4.25,10.77 10.57,10.77 4.37,0 14.91,0.1 20.96,0.1 7.06,0 9.85,-4.81 9.85,-11.09 z m -62.87,-0.1 c 0,0 0,-42.91 0,-49.66 0,-5.29 -3.37,-7.78 -5.14,-9 -3.87,-2.64 -10.46,-7.28 -12.76,-9.73 -2.29,-2.26 -2.18,-6.13 -2.18,-6.13 v -17.47 c 0,-2.95 2.26,-4.6 4.45,-4.6 5.36,0 29.39,0 32.34,0 2.68,0 4.56,1.61 4.56,4.52 0,3.03 0.23,89.66 0.23,89.66 0,0 3.87,5.75 10.77,7.13 8.89,1.99 10.46,-2.37 10.46,-2.37 0,0 0,-99.47 0,-107.79 0,-8.31 -10.23,-9.88 -10.23,-9.88 0,0 -53.22,0 -64.22,0 -6.17,0 -9.62,3.87 -9.62,9.54 0,10.96 0,98.59 0,106.1 0,8.05 3.3,10.85 9.62,10.77 3.95,0 15.67,0.1 22.18,0.1 9.88,0 9.54,-11.17 9.54,-11.17 z m 501.72,-93.07 v 18.55 c 0,0 -0.15,3.87 2.11,6.13 3.53,3.48 15.86,11.8 15.86,11.8 0,0 2.19,0.31 2.19,6.94 0,6.74 0,33.37 0,33.37 0,0 0.27,4.9 4.02,4.9 3.72,0 34.64,0 34.64,0 0,0 3.14,-0.69 3.41,-5.98 0.19,-3.26 0.35,-4.9 0.35,-7.28 0,-0.73 -0.1,-10.46 9.66,-10.46 11,0 11.8,7.01 11.8,10.27 0,3.18 -0.1,27.32 -0.1,27.32 0,0 -0.65,8.58 -9.58,8.58 -6.74,0 -85.29,0 -85.29,0 0,0 -10.31,0.1 -10.31,-10.77 0,-8.01 0,-105.14 0,-105.14 0,0 0.54,-10.5 11.53,-10.5 11.08,0 83.22,0 83.22,0 0,0 10.19,1.57 10.19,9.88 0,8.31 0,30.08 0,30.08 0,0 -1.3,8.05 -10.42,8.05 -9.16,0 -10.81,-7.78 -10.81,-7.78 l -0.27,-16.98 c 0,0 -1.34,-4.52 -4.56,-4.52 -3.18,0 -53.11,0 -53.11,0 0,0 -4.56,-0.79 -4.56,3.54 z m -100.35,43.99 c 0,0 48.85,0 55.75,0 9.92,0 9.42,-9.92 9.42,-9.92 0,0 0,-40.23 0,-47.78 0,-8.51 -9.04,-8.54 -9.04,-8.54 0,0 -75.52,0 -84.65,0 -10.77,0 -10.46,10.15 -10.46,10.15 0,0 -0.27,95.02 -0.27,105.18 0,10.27 11.03,11.07 11.03,11.07 0,0 71.31,-0.1 80.97,0 11.99,0.1 12.41,-10.99 12.41,-10.99 0,0 0,-20.35 0,-24.64 0,-4.29 -2.61,-10.81 -10.54,-10.81 -10.42,0 -10.69,10.54 -10.69,10.54 0,0 0.19,5.17 0,8.47 -0.15,4.98 -4.56,5.4 -4.56,5.4 h -41.84 c -3.72,0 -4.02,-4.52 -4.02,-4.52 0,0 0.31,-21.5 0.31,-27.43 0,-5.95 6.18,-6.18 6.18,-6.18 z m -11.61,-18.5 c -6.94,0 -6.47,-6.13 -6.47,-6.13 0,0 0.34,-14.52 0.34,-18.58 0,-4.71 4.25,-4.98 4.25,-4.98 0,0 49.43,0 52.77,0 4.94,0 4.41,4.45 4.41,4.45 0,0 0,15.48 0,18.97 0,5.63 -5.25,6.44 -5.25,6.44 0,0 -44.61,-0.17 -50.05,-0.17 z"></path>
</svg>