<?xml version="1.0"?>

<!-- Generator: Adobe Illustrator 19.2.0, SVG Export Plug-In . SVG Version: 6.00 Build 0)  -->
<svg version="1.1" id="Layer_1" xmlns="http://www.w3.org/2000/svg" xmlns:xlink="http://www.w3.org/1999/xlink" x="0px" y="0px" width="600px" height="400px" viewBox="0 0 600 400" enable-background="new 0 0 600 400" xml:space="preserve">
<path d="M294.199,359.069c2.51-7.612,4.726-14.316,6.928-21.024c1.372-4.178,2.698-8.371,4.1-12.54
	c0.296-0.882,0.208-2.232,1.588-2.265c3.275-0.078,6.554-0.113,9.827-0.014c1.554,0.047,1.354,1.601,1.669,2.588
	c3.152,9.878,6.241,19.777,9.416,29.648c0.399,1.24,0.428,2.697,1.705,3.763c2.839-11.12,5.727-22.114,8.401-33.16
	c0.558-2.306,1.43-3.223,3.814-2.915c3.077,0.398,7.283-1.323,8.93,0.746c1.118,1.404-1.18,5.578-2.03,8.49
	c-4.265,14.614-8.605,29.207-12.788,43.844c-0.63,2.204-1.478,3.036-3.891,3.004c-8.001-0.107-8.013,0.011-10.513-7.783
	c-3.201-9.981-6.384-19.967-9.58-29.949c-0.024-0.076-0.134-0.125-0.548-0.489c-1.329,4.064-2.628,7.959-3.876,11.87
	c-2.535,7.948-5.087,15.891-7.527,23.868c-0.542,1.771-1.351,2.446-3.276,2.471c-8.083,0.107-8.096,0.182-10.452-7.728
	c-4.538-15.237-9.015-30.493-13.638-45.704c-0.651-2.142-0.426-2.788,1.903-2.647c2.927,0.177,5.874,0.1,8.809,0.021
	c1.426-0.039,2.155,0.243,2.546,1.862C288.39,336.099,291.206,347.135,294.199,359.069z"></path>
<path d="M228.202,350.918c0-8.241,0.066-16.482-0.043-24.721c-0.029-2.211,0.378-3.11,2.901-3.074
	c10.835,0.155,21.674,0.118,32.51,0.021c2.108-0.019,2.924,0.359,2.918,2.727c-0.021,8.766,0.077,8.766-8.739,8.766
	c-4.967,0-9.936,0.078-14.9-0.04c-1.812-0.043-2.225,0.542-2.264,2.295c-0.182,8.07-0.243,8.069,7.664,8.068
	c4.741-0.001,9.484,0.075,14.223-0.038c1.863-0.044,2.502,0.455,2.54,2.427c0.174,9.074,0.238,9.072-8.72,9.073
	c-4.515,0-9.032,0.058-13.546-0.028c-1.573-0.03-2.076,0.401-2.159,2.06c-0.465,9.328-0.517,9.325,8.82,9.326
	c5.306,0,10.612,0.073,15.916-0.034c1.859-0.038,2.489,0.437,2.532,2.417c0.195,9.007,0.264,9.005-8.791,9.006
	c-9.257,0-18.515-0.103-27.769,0.065c-2.624,0.048-3.192-0.789-3.149-3.254C228.293,367.627,228.202,359.272,228.202,350.918z"></path>
<path d="M537.586,321.805c5.195-0.049,10.031,1.166,14.493,3.907c1.878,1.154,2.793,2.202,0.617,3.932
	c-0.698,0.555-1.23,1.318-1.832,1.992c-2.56,2.866-4.503,6.467-9.408,2.55c-2.604-2.08-6.559-1.39-9.724,0.277
	c-3.815,2.009-3.981,6.319-0.405,8.743c2.083,1.412,4.515,2.015,6.892,2.727c1.619,0.485,3.232,0.992,4.835,1.527
	c6.651,2.22,11.172,6.228,11.545,13.739c0.376,7.571-3.106,14.005-10.021,16.936c-9.683,4.104-19.157,3.36-28.058-2.533
	c-1.878-1.243-2.881-2.492-0.517-4.267c0.71-0.533,1.232-1.315,1.841-1.982c1.446-1.585,2.615-3.794,4.411-4.591
	c2.104-0.934,3.199,2.019,5.052,2.837c3.687,1.628,7.31,2.238,11.108,0.588c1.965-0.854,3.478-2.125,3.671-4.437
	c0.203-2.437-1.049-4.042-3.059-5.211c-2.564-1.491-5.426-2.193-8.188-3.163c-1.701-0.597-3.407-1.183-5.095-1.817
	c-14.072-5.283-11.276-21.646-3.142-27.329C526.664,323.392,531.603,321.784,537.586,321.805z"></path>
<path d="M184.807,283.436c0,7.551-0.095,15.005,0.057,22.454c0.047,2.292-0.745,3.26-2.828,2.651
	c-1.687-0.492-4.862,1.869-4.944-1.716c-0.238-10.496-0.053-21.001-0.118-31.502c-0.011-1.695,0.651-2.002,2.183-2.073
	c9.499-0.437,9.494-0.473,12.63,8.424c1.637,4.645,3.285,9.287,5.163,14.593c2.563-7.154,4.951-13.562,7.126-20.042
	c0.699-2.081,1.528-3.015,3.95-2.998c8.941,0.061,8.943-0.051,8.942,8.9c-0.001,7.904-0.09,15.81,0.049,23.712
	c0.04,2.271-0.642,2.843-2.847,2.806c-5.136-0.087-5.137,0.033-5.136-5.202c0.001-6.659,0-13.317-0.513-20.121
	c-1.189,3.363-2.4,6.718-3.562,10.091c-1.468,4.261-3.062,8.49-4.277,12.824c-0.671,2.395-2.135,2.399-4.041,2.399
	c-1.832,0-3.054-0.173-3.713-2.354c-2.216-7.332-4.711-14.579-7.091-21.861C185.702,284.004,185.695,283.522,184.807,283.436z"></path>
<path d="M167.395,63.596c-5.019-3.48-9.257-6.264-13.304-9.3c-1.596-1.197-2.654-1.03-4.132,0.042
	c-4.1,2.976-8.296,5.819-13.193,9.23c1.444-4.891,2.364-9.128,3.963-13.091c1.42-3.52,0.958-5.665-2.401-7.716
	c-3.641-2.223-6.882-5.1-10.284-8.614c4.628,0,9.269-0.201,13.881,0.069c3.186,0.187,4.559-0.998,5.391-4.012
	c1.211-4.39,2.957-8.632,4.747-13.709c1.954,5.565,3.726,10.262,5.223,15.045c0.615,1.965,1.546,2.663,3.579,2.613
	c5.031-0.124,10.067-0.041,15.101-0.041c0.065,0.291,0.13,0.581,0.195,0.872c-3.811,2.896-7.507,5.963-11.475,8.624
	c-2.324,1.558-2.637,3.038-1.729,5.561C164.55,53.593,165.749,58.158,167.395,63.596z"></path>
<path d="M503.3,291.919c0,5.504-0.097,9.889,0.045,14.266c0.062,1.908-0.493,2.716-2.411,2.413c-0.11-0.017-0.226-0.003-0.339-0.001
	c-5.056,0.085-5.055,0.085-5.053-4.85c0.003-9.151,0.081-18.304-0.045-27.453c-0.032-2.308,0.501-3.138,2.952-3.064
	c4.849,0.147,4.856,0.002,4.863,4.824c0.005,2.999,0.001,5.998,0.001,9.829c3.824-4.061,7.322-7.37,10.316-11.086
	c2.302-2.857,4.889-3.988,8.423-3.536c1.423,0.182,2.889,0.03,5.256,0.03c-3.572,3.724-6.647,6.896-9.682,10.106
	c-1.935,2.046-5.198,4.054-5.347,6.25c-0.169,2.488,3.319,4.464,5.238,6.641c3.484,3.952,7.049,7.832,11.078,12.292
	c-3.749,0-6.841-0.034-9.931,0.016c-1.395,0.022-1.915-1.062-2.624-1.879C511.992,302.055,507.98,297.364,503.3,291.919z"></path>
<path d="M453.779,286.19c0,3.835,0.292,7.698-0.063,11.5c-0.676,7.245-6.345,11.761-14.417,11.899
	c-7.985,0.137-13.929-4.279-14.789-11.479c-0.912-7.636-0.197-15.338-0.367-23.009c-0.028-1.252,0.38-1.94,1.736-1.805
	c0.335,0.033,0.677,0.002,1.016-0.005c5.093-0.103,5.096-0.103,5.1,4.843c0.004,5.306-0.037,10.613,0.014,15.919
	c0.048,5.04,2.785,8.189,7.03,8.229c4.209,0.04,7.072-3.167,7.12-8.141c0.058-6.096,0.116-12.196-0.035-18.289
	c-0.054-2.166,0.663-2.666,2.693-2.602c6.363,0.199,5.135-0.635,5.196,5.149c0.027,2.596,0.005,5.194,0.005,7.79
	C453.939,286.19,453.859,286.19,453.779,286.19z"></path>
<path d="M553.909,276.217c-0.743,0.845-1.539,1.646-2.216,2.539c-1.575,2.076-3.135,3.727-5.858,1.441
	c-0.593-0.497-1.729-0.477-2.613-0.472c-2.354,0.013-4.785,0.381-5.266,3.152c-0.444,2.558,1.729,3.4,3.689,4.084
	c1.911,0.667,3.892,1.14,5.782,1.859c3.591,1.367,6.248,3.602,6.603,7.759c0.386,4.523-1.013,8.241-4.963,10.738
	c-5.285,3.341-13.905,2.839-18.904-0.913c-1.301-0.977-1.637-1.689-0.312-2.826c0.595-0.511,1.146-1.101,1.608-1.735
	c1.438-1.973,2.735-3.139,5.133-0.882c1.69,1.59,4.148,1.687,6.424,1.035c1.558-0.446,3.004-1.227,3.171-3.093
	c0.165-1.837-0.935-2.943-2.529-3.561c-2.2-0.854-4.442-1.602-6.648-2.442c-5.188-1.976-7.309-4.588-7.345-8.982
	c-0.039-4.643,2.674-8.474,7.326-10.346C542.633,271.301,549.288,272.314,553.909,276.217z"></path>
<path d="M281.507,272.285c1.438,0.244,2.895,0.408,4.308,0.751c2.193,0.532,5.324,1.194,5.478,3.16
	c0.123,1.573-2.62,3.365-4.078,5.07c-0.854,0.998-1.331-0.005-1.913-0.352c-2.043-1.216-4.236-1.548-6.509-0.953
	c-1.604,0.42-2.948,1.352-3.058,3.17c-0.101,1.671,1.03,2.742,2.446,3.306c2.088,0.831,4.266,1.431,6.386,2.185
	c5.256,1.87,7.334,4.491,7.388,9.246c0.057,5.009-2.604,8.9-7.416,10.567c-5.654,1.958-11.068,1.444-16.191-1.794
	c-1.554-0.982-2.121-1.896-0.472-3.264c0.43-0.357,0.837-0.771,1.159-1.226c1.577-2.233,3.058-3.44,5.726-1.024
	c1.69,1.53,4.168,1.536,6.444,0.751c1.464-0.505,2.683-1.303,2.867-2.98c0.188-1.713-0.887-2.797-2.265-3.428
	c-1.728-0.792-3.556-1.376-5.363-1.985c-6.848-2.307-9.283-5.22-8.795-10.584c0.51-5.612,4.729-9.567,11.131-10.376
	c0.888-0.112,1.802-0.015,2.703-0.015C281.491,272.436,281.499,272.361,281.507,272.285z"></path>
<path d="M490.181,277.538c-0.926,0.81-1.812,1.504-2.602,2.292c-1.853,1.847-3.491,2.924-6.135,0.787
	c-1.987-1.606-4.773-1.19-7.183-0.438c-4.25,1.327-7.172,6.193-6.954,11.277c0.228,5.307,3.336,9.528,7.889,10.589
	c2.783,0.648,5.556,0.333,7.57-1.74c1.563-1.608,2.508-1.391,4.112-0.16c4.732,3.633,4.553,5.072-1.231,7.775
	c-6.448,3.013-15.331,1.709-20.618-3.025c-5.476-4.904-7.354-13.3-4.665-20.848c2.418-6.784,8.645-11.214,16.336-11.587
	C481.865,272.209,486.523,273.332,490.181,277.538z"></path>
<path d="M253.841,273.272c-3.907,5.953-7.321,11.372-10.974,16.625c-1.692,2.434-2.575,4.875-2.334,7.852
	c0.2,2.468-0.168,4.987,0.088,7.444c0.304,2.914-0.872,3.576-3.566,3.462c-4.386-0.185-4.76-0.066-4.306-4.548
	c0.745-7.356-1.114-13.637-5.779-19.377c-2.736-3.366-4.838-7.248-7.568-11.421c2.88,0,5.193,0.12,7.487-0.039
	c1.722-0.12,2.645,0.535,3.43,2.013c1.903,3.582,3.966,7.078,6.234,11.082c2.061-3.352,4.189-6.329,5.793-9.566
	c1.4-2.824,3.284-3.958,6.348-3.559C250.128,273.427,251.605,273.272,253.841,273.272z"></path>
<path d="M127.378,96.62c1.254,3.477,2.571,6.346,3.294,9.358c0.689,2.875,2.228,3.694,4.96,3.531c2.974-0.177,5.966-0.04,9.084,0.7
	c-2.741,2.09-5.414,4.277-8.249,6.229c-1.498,1.032-1.721,2.049-1.166,3.687c1.114,3.286,2.038,6.637,3.275,10.737
	c-3.301-2.299-6.056-4.091-8.663-6.078c-1.731-1.319-3.073-1.642-4.95-0.072c-2.483,2.077-5.293,3.765-8.685,6.122
	c1.093-3.661,1.691-6.642,2.877-9.366c1.247-2.864,0.443-4.459-2.039-5.999c-2.457-1.525-4.66-3.459-6.912-6.068
	c3.525,0,7.052-0.077,10.574,0.034c1.635,0.051,2.397-0.514,2.883-2.085C124.713,103.943,125.982,100.603,127.378,96.62z"></path>
<path d="M304.478,294.146c0.001-3.836-0.105-7.675,0.044-11.505c0.077-1.967-0.59-2.627-2.489-2.447
	c-1.342,0.127-2.734-0.158-4.053,0.055c-3.088,0.499-3.725-0.799-3.696-3.701c0.027-2.702,0.787-3.386,3.421-3.321
	c7.328,0.181,14.668,0.211,21.994-0.011c2.893-0.088,2.784,1.414,2.645,3.328c-0.125,1.72,0.843,3.783-2.533,3.751
	c-7.497-0.07-7.504,0.113-7.497,7.809c0.005,5.866-0.072,11.735,0.087,17.597c0.064,2.35-0.646,3.295-3.018,2.917
	c-0.88-0.14-1.814-0.12-2.701-0.004c-1.835,0.24-2.285-0.566-2.239-2.286C304.551,302.27,304.477,298.207,304.478,294.146z"></path>
<path d="M577.005,375.21c-2.807,4.895-2.807,4.895-5.522,0.395c-1.09,1.051,1.093,3.987-1.602,3.689
	c-1.966-0.217-0.61-2.63-0.934-4.019c-0.149-0.64-0.132-1.365,0-2.013c0.189-0.926-0.814-2.368,1.086-2.628
	c1.565-0.215,2.58,0.254,2.967,1.899c0.203,0.864,0.607,1.682,0.935,2.562c1.213-0.803,1.339-2.126,1.686-3.245
	c0.499-1.609,1.692-1.2,2.737-1.18c1.38,0.026,1.126,1.16,1.145,1.997c0.036,1.573,0.01,3.149-0.039,4.723
	c-0.026,0.833,0.334,1.96-1.058,2.06c-1.71,0.124-1.205-1.211-1.296-2.117C577.045,376.679,577.043,376.019,577.005,375.21z"></path>
<path d="M563.948,370.648c0.9,0,1.809-0.076,2.699,0.019c1.143,0.123,1.307,1.361,0.559,1.49c-3.277,0.567-1.761,2.996-2.115,4.701
	c-0.196,0.947,0.702,2.578-1.164,2.568c-1.823-0.01-1.005-1.612-1.193-2.584c-0.331-1.715,1.132-4.111-2.116-4.727
	c-0.844-0.16-0.434-1.337,0.631-1.437c0.892-0.084,1.799-0.017,2.699-0.017C563.948,370.657,563.948,370.652,563.948,370.648z"></path>
<path d="M166.824,183.496c-0.008-0.113-0.015-0.226-0.024-0.338c-0.464-5.652-0.451-5.757-5.947-6.475
	c-2.148-0.281-3.059-1.083-3.238-3.272c-0.378-4.611-1.194-9.192-1.451-13.807c-0.156-2.811-1.188-3.513-3.908-3.499
	c-21.017,0.11-42.034,0.061-63.051,0.061c-21.243,0-42.486,0.046-63.729-0.058c-2.654-0.013-3.516,0.813-3.683,3.409
	c-0.298,4.615-1.111,9.195-1.45,13.809c-0.162,2.197-0.995,3.03-3.144,3.333c-5.479,0.773-5.465,0.871-6.004,6.407
	c-0.044,0.45-0.083,0.9-0.119,1.351c-0.423,5.216-0.421,5.335,4.931,5.275c2.305-0.026,3.169,0.63,3.22,2.999
	c0.063,2.924,0.576,5.838,0.89,8.756c3.251,30.202,6.518,60.402,9.745,90.606c3.023,28.297,6.022,56.597,8.96,84.902
	c0.209,2.013,0.886,2.578,2.912,2.574c31.525-0.067,63.051-0.066,94.576,0c2.091,0.004,2.619-0.696,2.807-2.669
	c0.909-9.555,1.989-19.094,3.011-28.639c3.052-28.52,6.108-57.039,9.156-85.559c2.52-23.581,5.054-47.161,7.496-70.75
	c0.19-1.834,0.913-2.14,2.531-2.192C167.268,189.526,167.266,189.469,166.824,183.496z M88.828,306.53
	c-18.618-0.096-33.521-15.154-33.397-33.746c0.122-18.404,15.148-33.338,33.531-33.326c18.517,0.012,33.728,15.208,33.655,33.622
	C122.544,291.596,107.364,306.625,88.828,306.53z"></path>
<path d="M489.447,323.956c-8.421-1.336-16.893-0.431-25.33-0.822c-2.363-0.109-2.798,0.722-2.771,2.851
	c0.106,8.347,0.043,16.695,0.042,25.043c-0.001,8.461,0.012,16.921-0.012,25.382c-0.004,1.557-0.104,2.853,2.187,2.794
	c7.553-0.195,15.136,0.137,22.659-0.407c8.494-0.615,15.996-3.932,21.388-10.831C520.767,351.133,510.898,327.358,489.447,323.956z
	 M500.266,351.827c-0.521,8.901-5.481,14.308-14.465,15.457c-3.229,0.413-6.525,0.274-9.781,0.521
	c-1.91,0.145-2.238-0.737-2.209-2.394c0.084-4.734,0.03-9.471,0.032-14.207c0.003-4.736,0.011-9.472-0.003-14.207
	c-0.004-1.261-0.214-2.496,1.78-2.386c3.925,0.218,7.873-0.25,11.771,0.735C496.084,337.543,500.756,343.458,500.266,351.827z"></path>
<path d="M454.694,378.432c-4.066-6.765-8.108-13.544-12.23-20.274c-1.038-1.694-1.728-2.715,1.096-3.387
	c3.019-0.719,5.369-2.799,7.055-5.485c6.382-10.164,1.001-23.047-10.75-25.282c-9.275-1.764-18.699-0.447-28.047-0.834
	c-2.181-0.09-1.595,1.435-1.597,2.525c-0.027,17.052-0.002,34.104-0.049,51.157c-0.004,1.627,0.24,2.481,2.163,2.357
	c2.587-0.166,5.198-0.148,7.788-0.012c1.914,0.101,2.498-0.557,2.459-2.475c-0.117-5.757-0.059-11.518-0.024-17.277
	c0.005-0.844-0.402-1.842,0.526-2.497c1.415-0.998,5.565,0.068,6.427,1.697c3.218,6.08,6.411,12.173,9.596,18.271
	c0.631,1.209,1.105,2.349,2.898,2.293c4.168-0.129,8.342-0.041,12.693-0.041C454.7,378.627,454.738,378.505,454.694,378.432z
	 M435.419,345.83c-3.786,0.875-7.639,0.377-11.461,0.516c-1.27,0.046-1.453-0.706-1.432-1.729c0.033-1.578,0.009-3.158,0.011-4.737
	c0.003-6.334,0.003-6.309,6.321-6.336c2.269-0.01,4.533,0.072,6.71,0.687c2.915,0.824,4.561,2.75,4.554,5.906
	C440.116,343.338,438.424,345.135,435.419,345.83z"></path>
<path d="M214.326,367.219c-2.3-3.829-4.597-7.66-7.002-11.668c4.722-1.04,8.12-3.296,10.198-7.233
	c5.467-10.356-0.027-22.167-11.474-24.345c-8.831-1.68-17.806-0.381-26.7-0.842c-2.486-0.129-2.945,0.747-2.93,3.029
	c0.1,14.459,0.016,28.919,0.083,43.379c0.015,3.126-1.412,7.515,0.619,9.048c2.117,1.597,6.272,0.413,9.525,0.615
	c1.863,0.116,2.283-0.649,2.259-2.342c-0.078-5.534-0.098-11.071,0.021-16.603c0.026-1.203-1.109-3.342,1.362-3.421
	c2.047-0.066,4.354-0.999,5.77,1.962c2.965,6.201,6.319,12.217,9.519,18.305c0.512,0.974,0.827,2.098,2.319,2.083
	c4.364-0.046,8.729-0.016,13.611-0.016C218.927,374.875,216.626,371.048,214.326,367.219z M201.854,345.807
	c-3.788,0.925-7.638,0.375-11.457,0.538c-1.191,0.051-1.577-0.502-1.54-1.624c0.053-1.578,0.013-3.159,0.013-4.739
	c0.001-6.445,0.001-6.42,6.565-6.44c2.157-0.007,4.289,0.129,6.372,0.67c2.978,0.773,4.593,2.677,4.639,5.827
	C206.494,343.232,204.889,345.066,201.854,345.807z"></path>
<path d="M403.437,376.283c-6.79-15.337-13.457-30.729-20.173-46.1c-3.11-7.117-3.118-7.017-10.817-7.057
	c-2.093-0.011-2.892,0.813-3.609,2.577c-2.035,5.005-4.265,9.931-6.41,14.891c-5.489,12.69-10.973,25.381-16.675,38.572
	c2.628,0,4.648,0,6.668,0c6.981-0.001,6.983,0,9.505-6.309c0.418-1.046,0.905-2.078,1.191-3.161
	c0.469-1.778,1.371-2.474,3.348-2.417c5.637,0.163,11.285,0.164,16.921-0.003c1.969-0.058,2.658,0.745,3.395,2.375
	c1.418,3.136,1.527,7.674,4.46,9.098c2.845,1.381,6.854,0.247,10.335,0.469C404.321,379.393,404.459,378.593,403.437,376.283z
	 M379.651,356.775c-0.224-0.017-0.45,0.001-0.675-0.004c-3.472-0.074-6.945-0.149-10.417-0.223c0.29-3.51,2.28-6.436,3.351-9.679
	c0.736-2.23,1.707-4.382,2.846-7.259c2.218,5.599,4.132,10.504,6.114,15.381C381.42,356.346,381.095,356.885,379.651,356.775z"></path>
<path d="M419.615,297.527c-0.595-3.822-2.998-6.126-7.03-7.45c4.788-2.999,6.118-5.805,5.173-10.152
	c-0.739-3.399-3.432-5.577-7.964-6.239c-5.391-0.787-10.827-0.216-16.239-0.406c-1.76-0.062-1.653,1.033-1.651,2.212
	c0.015,10.39,0.013,20.78,0.021,31.171c0.001,0.858-0.315,1.978,1.145,1.915c6.52-0.279,13.135,0.91,19.546-0.919
	C417.713,306.206,420.343,302.204,419.615,297.527z M399.717,280.63c0.003-0.185,0.215-0.516,0.353-0.528
	c2.901-0.254,5.881-0.73,8.57,0.725c1.348,0.729,1.961,2.158,1.368,3.785c-1.04,2.851-3.47,2.789-5.875,2.764
	c-0.113-0.001-0.225,0-0.583,0c-1.096-0.379-3.202,0.883-3.718-0.722C399.241,284.822,399.689,282.652,399.717,280.63z
	 M408.911,301.616c-2.624,0.806-5.35,0.383-8.034,0.442c-0.835,0.018-1.199-0.479-1.224-1.263c-0.021-0.673-0.023-1.347-0.029-2.02
	c-0.04-4.759-0.04-4.759,4.834-4.836c1.446,0.148,2.936,0.127,4.328,0.486c1.715,0.443,3.031,1.45,3.004,3.519
	C411.765,299.919,410.654,301.08,408.911,301.616z"></path>
<path d="M379.135,295.515c-0.484-0.812-1.286-1.396,0.377-2.236c5.25-2.653,6.89-6.133,5.898-11.503
	c-0.89-4.82-3.755-7.41-9.427-8.175c-5.166-0.697-10.379-0.157-15.569-0.316c-1.295-0.04-1.789,0.424-1.784,1.765
	c0.039,10.62,0.043,21.239-0.004,31.859c-0.006,1.347,0.438,1.803,1.742,1.702c1.123-0.087,2.272-0.126,3.385,0.01
	c1.993,0.243,2.833-0.321,2.664-2.528c-0.214-2.808-0.138-5.649-0.009-8.467c0.048-1.042-0.861-2.663,1.126-3.001
	c1.697-0.288,2.933,0.097,3.773,1.923c1.603,3.479,3.496,6.825,5.281,10.22c0.523,0.995,0.987,1.944,2.462,1.871
	c2.451-0.122,4.913-0.033,7.926-0.033C384.186,303.952,381.651,299.739,379.135,295.515z M373.889,287.747
	c-1.102,0.185-2.236,0.177-3.406,0.26c-1.273-0.493-3.418,0.838-3.872-0.84c-0.566-2.089-0.166-4.449-0.089-6.689
	c0.007-0.205,0.705-0.554,1.078-0.55c2.131,0.024,4.283-0.027,6.384,0.262c2.077,0.286,3.521,1.507,3.512,3.827
	C377.488,286.375,375.97,287.397,373.889,287.747z"></path>
<path d="M354.284,306.567c-4.652-10.49-9.249-21.007-13.712-31.579c-0.959-2.272-2.64-1.64-4.2-1.667
	c-1.471-0.026-2.985-0.466-3.865,1.628c-4.659,11.083-9.479,22.099-14.471,33.668c2.618,0,4.752-0.07,6.878,0.025
	c1.361,0.061,2.249-0.48,2.432-1.745c0.8-5.525,4.357-6.569,9.136-5.822c0.88,0.137,1.817,0.122,2.699-0.011
	c2.998-0.452,4.963,0.46,5.559,3.686c0.581,3.147,2.521,4.441,5.718,3.87c0.763-0.136,1.574-0.013,2.362,0.012
	C354.355,308.68,355.126,308.466,354.284,306.567z M338.78,294.664c-6.986,0.65-6.995,0.68-4.499-5.764
	c0.569-1.468,1.144-2.934,2.034-5.216c1.41,3.563,2.471,6.374,3.639,9.14C340.513,294.15,340.256,294.526,338.78,294.664z"></path>
</svg>
