<?xml version="1.0"?>
<!--?xml version="1.0" encoding="UTF-8" standalone="no"?-->
<svg xmlns="http://www.w3.org/2000/svg" viewBox="0 0 391 202" width="391" height="202">
  <path d="m 371.61,175.02 c 0,5.66 4.47,9.47 9.46,9.47 5,0 9.47,-3.81 9.47,-9.47 0,-5.65 -4.47,-9.46 -9.47,-9.46 -4.99,0 -9.46,3.81 -9.46,9.46 z m 16.81,0 c 0,4.29 -3.28,7.5 -7.35,7.5 -4.11,0 -7.34,-3.21 -7.34,-7.5 0,-4.29 3.23,-7.49 7.34,-7.49 4.07,0 7.35,3.2 7.35,7.49 z m -4.8,5.4 c 0,0 2.12,0 2.12,0 0,0 -3.1,-4.74 -3.1,-4.74 1.67,-0.18 2.93,-0.99 2.93,-2.95 0,-2.2 -1.39,-3.11 -4.07,-3.11 0,0 -4.21,0 -4.21,0 0,0 0,10.8 0,10.8 0,0 1.82,0 1.82,0 0,0 0,-4.67 0,-4.67 0,0 1.69,0 1.69,0 0,0 2.82,4.67 2.82,4.67 z m -4.51,-6.18 c 0,0 0,-3.1 0,-3.1 0,0 2.09,0 2.09,0 1.09,0 2.4,0.2 2.4,1.46 0,1.51 -1.19,1.64 -2.55,1.64 0,0 -1.94,0 -1.94,0 z M 276.54,24.833 c -1.65,-0.03 -2.81,0.18 -4.04,0.449 0,0.07 0,0.15 0,0.224 0.1,0 0.15,0 0.23,0 0.78,1.613 2.17,2.651 3.14,4.041 0.75,1.571 1.49,3.143 2.24,4.713 0.1,-0.07 0.15,-0.149 0.23,-0.224 1.39,-0.979 2.02,-2.546 2.02,-4.938 -0.56,-0.586 -0.64,-1.321 -1.13,-2.021 -0.64,-0.931 -1.88,-1.46 -2.69,-2.244 z m 100.34,85.527 c -7.9,-0.22 -13.93,0.52 -19.08,2.69 -1.46,0.62 -3.8,0.63 -4.04,2.47 0.8,0.84 0.93,2.1 1.57,3.14 1.23,1.99 3.31,4.66 5.16,6.06 2.03,1.53 4.12,3.17 6.29,4.49 3.86,2.36 8.18,3.7 11.9,6.06 2.19,1.4 4.37,3.15 6.5,4.72 1.06,0.77 1.77,1.98 3.15,2.47 0,-0.1 0,-0.15 0,-0.23 -0.73,-0.92 -0.91,-2.18 -1.58,-3.14 -0.97,-0.97 -1.94,-1.95 -2.91,-2.92 -2.86,-3.79 -6.48,-7.11 -10.33,-9.88 -3.07,-2.2 -9.94,-5.18 -11.22,-8.75 -0.1,-0.1 -0.15,-0.15 -0.23,-0.22 2.18,-0.25 4.73,-1.04 6.74,-1.57 3.37,-0.91 6.39,-0.68 9.88,-1.58 1.57,-0.45 3.14,-0.89 4.71,-1.34 0,-0.3 0,-0.6 0,-0.9 -1.76,-1.81 -3.02,-4.2 -4.94,-5.84 -5.03,-4.28 -10.51,-8.553 -16.16,-12.122 -3.13,-1.977 -7.01,-3.262 -10.33,-4.938 -1.11,-0.564 -3.08,-0.857 -3.81,-1.796 -1.75,-2.224 -2.7,-5.042 -4.04,-7.632 -2.82,-5.426 -5.59,-11.351 -8.08,-17.059 -1.71,-3.893 -2.82,-7.732 -4.94,-11.224 -10.19,-16.757 -21.16,-26.871 -38.16,-36.813 -3.62,-2.114 -7.97,-2.949 -12.57,-4.04 -2.47,-0.149 -4.94,-0.299 -7.41,-0.449 -1.5,-0.6296 -3.07,-2.4726 -4.49,-3.3666 -5.63,-3.5567 -20.07,-11.293 -24.24,-1.122 -2.63,6.4196 3.94,12.6836 6.29,15.9366 1.65,2.283 3.76,4.841 4.93,7.408 0.78,1.686 0.91,3.378 1.58,5.163 1.63,4.396 3.05,9.179 5.16,13.243 1.07,2.056 2.24,4.222 3.59,6.06 0.83,1.128 2.24,1.625 2.47,3.368 -1.39,1.939 -1.47,4.95 -2.24,7.407 -3.51,11.061 -2.19,24.81 2.91,32.993 1.57,2.52 5.26,7.913 10.33,5.843 4.43,-1.81 3.44,-7.413 4.71,-12.349 0.29,-1.12 0.11,-1.943 0.67,-2.693 0,0.07 0,0.149 0,0.224 1.35,2.694 2.7,5.387 4.05,8.075 2.99,4.823 8.29,9.853 12.79,13.253 2.33,1.76 4.17,4.81 7.18,5.84 0,-0.1 0,-0.15 0,-0.23 -0.1,0 -0.15,0 -0.22,0 -0.59,-0.91 -1.5,-1.29 -2.25,-2.02 -1.75,-1.72 -3.71,-3.86 -5.16,-5.84 -4.09,-5.55 -7.7,-11.633 -11,-17.956 -1.57,-3.02 -2.94,-6.353 -4.26,-9.427 -0.51,-1.186 -0.51,-2.978 -1.57,-3.592 -1.45,2.253 -3.59,4.074 -4.72,6.734 -1.79,4.252 -2.03,9.438 -2.69,14.818 -0.39,0.14 -0.22,0 -0.45,0.22 -3.13,-0.75 -4.22,-3.971 -5.39,-6.732 -2.93,-6.982 -3.48,-18.226 -0.89,-26.263 0.66,-2.079 3.69,-8.629 2.46,-10.549 -0.58,-1.917 -2.51,-3.026 -3.59,-4.491 -1.33,-1.81 -2.66,-4.194 -3.59,-6.285 -2.4,-5.444 -3.53,-11.556 -6.06,-17.059 -1.21,-2.63 -3.26,-5.293 -4.94,-7.631 -1.86,-2.591 -3.94,-4.499 -5.38,-7.633 -0.52,-1.113 -1.21,-2.8956 -0.45,-4.0396 0.24,-0.773 0.58,-1.095 1.34,-1.347 1.31,-1.0038 4.93,0.334 6.29,0.898 3.6,1.495 6.6,2.919 9.65,4.9376 1.47,0.971 2.94,2.848 4.71,3.367 0.68,0 1.35,0 2.02,0 3.16,0.727 6.7,0.226 9.66,1.122 5.21,1.586 9.89,4.053 14.14,6.735 12.94,8.169 23.51,19.798 30.75,33.67 1.16,2.233 1.67,4.365 2.69,6.734 2.07,4.777 4.68,9.693 6.74,14.365 2.05,4.661 4.05,9.365 6.95,13.244 1.53,2.039 7.43,3.133 10.1,4.265 1.88,0.792 4.96,1.622 6.74,2.692 3.4,2.053 6.69,4.493 9.88,6.743 1.59,1.12 6.48,3.58 6.73,5.61 z m -140.14,59.02 c 0,0 0,-30.52 0,-30.52 0,-7.76 5.44,-12.46 16.21,-13.94 1.11,-0.17 2.35,-0.25 3.46,-0.25 0,0 24.38,0 24.38,0 1.24,0 2.35,0.1 3.59,0.25 10.76,1.48 16.21,6.18 16.21,13.94 0,0 0,30.52 0,30.52 0,6.29 -2.31,9.66 -7.64,11.85 0,0 12.65,11.42 12.65,11.42 0,0 -14.91,0 -14.91,0 0,0 -10.24,-9.24 -10.24,-9.24 0,0 -10.3,0.66 -10.3,0.66 0,0 -13.74,0 -13.74,0 -2.35,0 -4.82,-0.34 -7.54,-1.08 -8.17,-2.22 -12.13,-6.51 -12.13,-13.61 z m 13.86,-0.74 c 0,0.41 0.12,0.82 0.25,1.32 0.74,3.55 4.08,5.53 9.15,5.53 0,0 11.67,0 11.67,0 0,0 -10.72,-9.68 -10.72,-9.68 0,0 14.92,0 14.92,0 0,0 9.34,8.44 9.34,8.44 1.72,-0.92 2.86,-2.32 3.25,-4.13 0.13,-0.41 0.13,-0.82 0.13,-1.23 0,0 0,-29.29 0,-29.29 0,-0.33 0,-0.74 -0.13,-1.15 -0.74,-3.3 -4.08,-5.2 -9.03,-5.2 0,0 -19.43,0 -19.43,0 -5.69,0 -9.4,2.47 -9.4,6.35 0,0 0,29.04 0,29.04 z m 58.06,0.29 c 0,8.81 6.54,13.75 19.76,14.74 1.23,0.1 2.47,0.16 3.7,0.16 0,0 33.47,0 33.47,0 0,0 0,-8.56 0,-8.56 0,0 -33.72,0 -33.72,0 -7.53,0 -10.37,-1.89 -10.37,-6.42 0,0 0,-44.29 0,-44.29 0,0 -12.84,0 -12.84,0 0,0 0,44.37 0,44.37 z m -137.16,14.9 c 0,0 36.92,0 36.92,0 4.32,0 8.52,-0.9 11.86,-2.47 5.55,-2.55 8.27,-6.01 8.27,-10.54 0,0 0,-9.38 0,-9.38 0,-3.7 -3.09,-7.16 -9.14,-9.47 -3.21,-1.23 -7.16,-1.89 -10.99,-1.89 0,0 -15.56,0 -15.56,0 -5.18,0 -7.65,-1.56 -8.27,-5.02 -0.13,-0.41 -0.13,-0.74 -0.13,-1.16 0,0 0,-5.84 0,-5.84 0,-0.33 0,-0.66 0.13,-1.07 0.62,-2.63 1.97,-3.38 6.54,-3.79 0.37,0 0.87,-0.1 1.24,-0.1 0,0 36.67,0 36.67,0 0,0 0,-8.56 0,-8.56 0,0 -36.05,0 -36.05,0 -5.19,0 -7.91,0.33 -10.38,1.07 -7.65,2.39 -10.99,6.17 -10.99,12.76 0,0 0,7.49 0,7.49 0,5.76 6.55,10.7 17.54,11.86 1.23,0.1 2.47,0.16 3.7,0.16 0,0 13.34,0 13.34,0 0.49,0 0.99,0 1.36,0.1 4.07,0.33 5.8,1.07 7.03,2.55 0.75,0.74 0.99,1.48 0.99,2.31 0,0 0,7.49 0,7.49 0,0.9 -0.62,2.06 -1.85,3.04 -1.11,0.99 -2.96,1.65 -5.43,1.81 -0.5,0 -0.87,0.1 -1.36,0.1 0,0 -35.44,0 -35.44,0 0,0 0,8.57 0,8.57 z m -71.06,-41.27 c 0,0 12.84,0 12.84,0 0,0 0,27.93 0,27.93 -0.12,1.52 0.49,5.08 7.52,5.19 3.59,0.1 27.7,0 27.93,0 0,0 0,-33.26 0,-33.26 0,0 12.86,0 12.86,0 0.1,0 0,45.36 0,45.56 0.1,11.18 -13.89,13.61 -20.32,13.8 0,0 -40.55,0 -40.55,0 0,0 0,-8.64 0,-8.64 0.1,0 40.52,0 40.62,0 8.27,-0.87 7.29,-4.98 7.29,-6.36 0,0 0,-3.37 0,-3.37 0,0 -27.29,0 -27.29,0 -12.7,-0.12 -20.79,-5.66 -20.89,-12.04 0,-0.59 0.27,-28.54 0,-28.81 z M 0.73828,183.82 c 0,0 12.84172,0 12.84172,0 0,0 0,-50.71 0,-50.71 0,0 19.881,44.21 19.881,44.21 2.345,5.35 5.556,7.25 11.853,7.25 6.298,0 9.385,-1.9 11.732,-7.25 0,0 19.88,-44.21 19.88,-44.21 0,0 0,50.71 0,50.71 0,0 12.842,0 12.842,0 0,0 0,-50.62 0,-50.62 0,-4.94 -1.976,-7.33 -6.05,-8.56 -9.755,-3.05 -16.3,-0.42 -19.264,6.17 0,0 -19.51,43.63 -19.51,43.63 0,0 -18.892,-43.63 -18.892,-43.63 -2.84,-6.59 -9.508,-9.22 -19.2629,-6.17 -4.0752,1.23 -6.05082,3.62 -6.05082,8.56 0,0 0,50.62 0,50.62 z" id="path30"></path>
</svg>
