<?xml version="1.0"?>

<svg xmlns="http://www.w3.org/2000/svg" viewBox="0 0 336 156.8" height="156.8" width="336">  <path d="m 91.4,22.85 -18.74,23.1 c -0.15,0 -26.75,-13 -26.75,-13 -0.79,-0.3 -1.45,-0.4 -1.86,-0.1 -0.42,0.4 -0.54,1 -0.35,1.9 l 6.31,28.98 c -0.1,0.13 -26.77,12.88 -26.77,12.88 -0.8,0.37 -1.24,0.88 -1.24,1.4 0,0.53 0.43,1.03 1.22,1.42 l 26.56,13.09 c 0.1,0.13 -6.59,28.98 -6.59,28.98 -0.2,0.9 -0.1,1.5 0.33,1.9 0.41,0.3 1.07,0.3 1.87,-0.1 l 26.74,-12.6 c 0.15,0 18.62,23.2 18.62,23.2 0.55,0.7 1.13,1 1.65,0.9 0.51,-0.1 0.91,-0.6 1.11,-1.5 l 6.69,-28.8 c 0.2,-0.1 29.9,0 29.9,0 0.9,0 1.5,-0.3 1.8,-0.8 0.2,-0.4 0,-1.1 -0.5,-1.8 L 113,78.62 c 0,-0.16 18.6,-23.29 18.6,-23.29 0.6,-0.69 0.8,-1.33 0.6,-1.8 -0.3,-0.48 -0.9,-0.75 -1.8,-0.75 l -7.5,-0.1 c -0.5,0 -1.1,0.23 -1.4,0.61 L 93.52,83.11 c -0.26,0.3 -0.49,0.4 -0.64,0.28 -0.12,-0.1 -0.14,-0.31 0.13,-0.65 0.56,-0.7 16.09,-19.5 23.89,-28.96 0.2,-0.23 0.2,-0.47 0.1,-0.68 -0.1,-0.24 -0.4,-0.4 -0.7,-0.4 l -9.8,-0.1 c -0.9,0 -1.7,0.72 -2,1.03 -4.59,4.86 -27.23,28.95 -27.7,29.48 -0.25,0.3 -0.49,0.4 -0.64,0.28 -0.11,-0.1 -0.13,-0.31 0.13,-0.65 L 99.77,54.23 c 0.53,-0.68 0.93,-1.13 0.73,-1.73 0,-0.32 -6.29,-28.65 -6.35,-28.95 -0.2,-0.9 -0.58,-1.4 -1.09,-1.5 -0.52,-0.2 -1.1,0.2 -1.66,0.8 M 220.7,88.6 c 0,-2.84 1.1,-6.61 11.4,-6.61 0,0 4,0 5.4,0 0,1.47 0,7.38 0,8.1 -3.5,3.09 -6.7,4.51 -10.2,4.51 -4.3,0 -6.6,-2.13 -6.6,-6 z m -10,-34.67 -0.8,0.3 2.6,10.99 1,-0.42 c 4.5,-1.79 9.9,-2.87 14.4,-2.87 8,0 9.6,2.93 9.6,8.36 0,0 0,0.93 0,1.7 -1.4,0 -5.2,0 -5.2,0 -17.3,0 -26.1,5.81 -26.1,17.29 0,10.22 6.8,16.32 18.2,16.32 5.9,0 10.8,-1.8 15.2,-5.4 0.3,1.4 0.9,4 0.9,4 l 16.1,-0.5 0,-8.18 c 0,0 -3.8,-0.36 -4.9,-0.46 0,-1.61 0,-25.93 0,-25.93 0,-12.43 -7.2,-18.49 -22,-18.49 -6.3,0 -13.4,1.24 -19,3.29 m 48.4,-21.28 0,8.1 c 0,0 4.8,0.6 5.3,0.7 0,1.6 0,60.55 0,60.55 7.1,2.1 14.9,3.3 21.4,3.3 17.9,0 28.2,-10.56 28.2,-29.01 0,-15.67 -8.1,-25.42 -21.1,-25.42 -5.6,0 -10.2,1.78 -14.6,5.44 0,-3.37 0,-24.36 0,-24.36 l -19.2,0.7 z m 31.1,30.31 c 5.8,0 8.8,4.98 8.8,14.81 0,7.2 -2.2,15.79 -12.3,15.79 -3.4,0 -6.3,-0.86 -8.4,-1.66 0,-1.2 0,-21.36 0,-22.08 4.1,-4.72 7.8,-6.86 11.9,-6.86 M 163.6,57.45 c -0.3,-1.82 -1,-5.46 -1,-5.46 l -15.7,0.85 0,8.15 c 0,0 3.9,0.49 4.4,0.56 0,1.56 0,42.65 0,42.65 l 14.4,0 c 0,0 0,-34.16 0,-34.91 4.3,-4.55 6.9,-6.47 11.5,-6.47 5,0 7.3,3.48 7.3,11.29 l 0,30.09 14.4,0 0,-32.63 c 0,-13.68 -6.5,-20.93 -18.9,-20.93 -6.5,0 -11.1,1.9 -16.4,6.81"></path> </svg>