<?xml version="1.0"?>

<svg xmlns="http://www.w3.org/2000/svg" viewBox="0 0 921.3 223.6" height="223.6" width="921.3">

  <path d="m 880.7,30.1 c 0,-5.9 4.5,-10.4 10.2,-10.4 5.6,0 10.1,4.5 10.1,10.4 0,6 -4.5,10.5 -10.1,10.5 -5.7,0 -10.2,-4.5 -10.2,-10.5 z m 10.2,12.5 c 6.8,0 12.6,-5.3 12.6,-12.5 0,-7.1 -5.8,-12.5 -12.6,-12.5 -6.9,0 -12.7,5.4 -12.7,12.5 0,7.2 5.8,12.5 12.7,12.5 z m -2.7,-11.5 h 2.5 l 3.8,6.2 H 897 L 892.9,31 c 2.1,-0.3 3.7,-1.4 3.7,-4 0,-2.8 -1.7,-4 -5.1,-4 H 886 v 14.3 h 2.2 z m 0,-1.9 v -4.4 h 3 c 1.5,0 3.1,0.3 3.1,2.1 0,2.2 -1.6,2.3 -3.4,2.3 z m -363,17.4 c 57.6,0 66,-1.8 66,60 v 0.2 c 0,61.9 -8.5,59.5 -66.1,59.5 h -65.8 l 0.1,-119.7 z m 20.6,80.8 V 85.7 h -41.7 v 41.7 z m 87,38.9 H 585.7 L 641.6,46.7 h 46.2 l 55.9,119.6 H 696.6 L 690,152.5 h -50.6 z m 31.9,-76.9 -13.2,28.5 h 26.4 z M 347.6,46.6 C 317,47.1 317.2,67.1 317.2,84.1 v 0 c 0,17.2 -0.8,38.1 30.4,38.5 m 0,0 h 61 v 8.2 h -86.7 v 35.5 h 83.2 12.1 c 31.3,-0.5 30.4,-21.4 30.4,-38.5 v 0 c 0,-17.2 0.8,-38 -30.4,-38.5 h -63.6 v -8.1 h 84.9 V 46.7 L 347.4,46.6 M 60.43,110.2 116.5,166.3 H 157 V 46.7 h -42.7 l -0.1,56 -56.08,-56 h -40.4 v 119.6 h 42.71 z m 677.67,-3.8 c 0,62.2 8.6,60.5 66.3,60.5 v 0 c 57.7,0 66.1,1.7 66.1,-60.5 v -0.1 c 0,-62.3 -8.4,-60.5 -66.1,-60.5 v 0 c -57.7,0 -66.3,-1.8 -66.3,60.5 z m 45.4,20.8 V 85.5 h 41.7 v 41.7 z m 82.1,78.7 v -40.6 h -40.5 v 40.6 z M 214.4,152.5 h 50.7 l 6.6,13.8 h 47 L 262.8,46.7 h -46.2 l -55.8,119.6 h 47.1 z m 38.5,-34.6 h -26.3 l 13.2,-28.5 z"></path>
</svg>
