<?xml version="1.0"?>

<svg xmlns="http://www.w3.org/2000/svg" viewBox="0 0 185 79" height="79" width="185">
  <path d="m 152.487,31.799 c -1.129,-0.713 -2.363,-1.069 -3.708,-1.069 -1.464,0 -2.761,0.666 -3.896,1.996 -1.136,1.33 -1.702,2.956 -1.702,4.876 0,0 0,15.409 0,15.409 0,0 -6.334,0 -6.334,0 0,0 0,-27.165 0,-27.165 0,0 6.334,0 6.334,0 0,0 0,2.595 0,2.595 1.764,-2.034 4.11,-3.052 7.035,-3.052 2.152,0 3.801,0.33 4.944,0.988 0,0 -2.673,5.422 -2.673,5.422 z M 90.575,30.806 c 2.914,0 5.004,0.653 6.267,1.961 1.265,1.307 1.896,3.56 1.896,6.764 0,3 -0.636,5.196 -1.908,6.585 -1.274,1.393 -3.366,2.087 -6.281,2.087 -1.534,0 -2.873,-0.464 -4.019,-1.392 0,0 0,-14.234 0,-14.234 1.179,-1.179 2.528,-1.771 4.045,-1.771 z m 1.407,22.738 c 4.144,0 7.412,-1.199 9.805,-3.597 2.393,-2.4 3.59,-5.821 3.59,-10.263 0,-9.528 -4.329,-14.295 -12.987,-14.295 -2.317,0 -4.27,0.762 -5.86,2.283 0,0 0,-1.826 0,-1.826 0,0 -6.333,0 -6.333,0 0,0 0,37.77 0,37.77 0,0 6.333,0 6.333,0 0,0 0,-11.263 0,-11.263 1.641,0.795 3.457,1.191 5.452,1.191 z M 44.645,53.011 c 0,0 0,-15.638 0,-15.638 0,-2.305 -0.445,-3.989 -1.333,-5.051 -0.888,-1.062 -2.338,-1.592 -4.352,-1.592 -0.931,0 -1.924,0.261 -2.982,0.784 -1.058,0.522 -1.882,1.171 -2.473,1.944 0,0 0,19.553 0,19.553 0,0 -6.334,0 -6.334,0 0,0 0,-27.165 0,-27.165 0,0 4.563,0 4.563,0 0,0 1.166,2.535 1.166,2.535 1.726,-1.993 4.268,-2.992 7.634,-2.992 3.227,0 5.774,0.967 7.642,2.899 1.867,1.934 2.803,4.629 2.803,8.088 0,0 0,16.635 0,16.635 0,0 -6.334,0 -6.334,0 z M 12,12 V 66.988 H 172.969 V 12 Z m 2,2 H 64.989 V 64.988 H 14 Z m 52.991,0 h 50.99 v 50.988 h -50.99 z m 52.99,0 h 50.988 v 50.988 h -50.988 z"></path>
</svg>
