<?xml version="1.0"?>
<!--?xml version="1.0" encoding="UTF-8" standalone="no"?-->
<svg xmlns="http://www.w3.org/2000/svg" viewBox="0 0 250 250" width="250" height="250">
   <path d="M 125,8.3556 C 60.58,8.3547 8.3556,60.584 8.3556,125 8.3556,189.42 60.58,241.65 125,241.65 189.41,241.65 241.65,189.42 241.65,125 241.65,60.584 189.41,8.3556 125,8.3556 Z m 0,3.3594 c 62.52,0 113.22,50.691 113.22,113.225 0,62.53 -50.7,113.2 -113.22,113.2 C 62.477,238.14 11.79,187.47 11.79,124.94 11.79,62.406 62.477,11.715 125,11.715 Z m 0.23,4.074 -0.61,9.657 c -0.1,0.949 0,1.996 0.18,2.936 0.69,3.135 3.73,4.236 6.58,4.418 1.58,0.1 3.22,-0.13 4.57,-0.973 2.57,-1.547 2.7,-4.008 2.95,-6.706 l 0.53,-8.43 c -0.3,0.03 -0.64,0.03 -0.95,0.01 -0.3,-0.02 -0.63,-0.06 -0.95,-0.13 l -0.45,7.173 c -0.1,1.16 -0.25,3.859 -0.73,4.876 -0.96,2.007 -2.2,2.736 -4.41,2.59 -1.03,-0.06 -1.92,-0.431 -2.63,-1.186 -0.8,-0.884 -0.94,-1.629 -1.09,-2.803 -0.13,-1.246 0,-3.183 0.13,-4.485 l 0.43,-6.726 c -0.59,0.01 -1.19,0.05 -1.79,0 -0.59,-0.04 -1.17,-0.145 -1.76,-0.231 z m -8.73,0.178 c -0.42,0 -0.84,0.02 -1.22,0.06 -5.15,0.567 -9.07,3.842 -8.4,9.997 0.53,4.831 4.69,7.521 9.73,6.965 1.6,-0.172 3.23,-0.643 4.57,-1.524 l 0.29,-2.087 -0.32,-0.107 c -0.96,1.131 -2.57,2.068 -4.03,2.233 -3.62,0.397 -5.92,-2.214 -6.36,-6.243 -0.38,-3.465 0.78,-7.391 4.69,-7.822 1.53,-0.17 3.14,0.559 4.17,1.74 l 0.32,-0.04 c 0.1,-0.85 0.15,-1.658 0.26,-2.486 -1.08,-0.452 -2.43,-0.673 -3.7,-0.684 z m 28.68,1.723 -3.74,15.84 c 0.59,0.09 1.19,0.156 1.77,0.295 0.58,0.137 1.14,0.338 1.69,0.527 l 1.75,-7.412 0.18,0.04 c 0.3,0.995 0.69,2.212 0.89,2.915 l 1.6,5.496 c 0.7,0.117 1.41,0.209 2.1,0.379 0.71,0.168 1.39,0.4 2.08,0.609 l -0.56,-1.647 c -0.88,-2.472 -1.82,-4.93 -2.57,-7.448 2.27,0.05 4.06,-1.041 4.6,-3.301 0.37,-1.57 -0.1,-2.775 -1.24,-3.776 -0.85,-0.742 -2.54,-1.094 -3.63,-1.352 z m -42.41,0.546 -8.75,2.254 4.025,15.646 8.755,-2.259 c -0.13,-0.306 -0.28,-0.633 -0.37,-0.955 0,-0.325 -0.14,-0.686 -0.14,-1.021 -1.36,0.551 -2.89,1.064 -5.22,1.691 l -1.505,-5.836 2.395,-0.613 c 1.03,-0.269 2,-0.418 2.88,-0.524 -0.14,-0.308 -0.28,-0.636 -0.37,-0.953 -0.1,-0.326 -0.15,-0.69 -0.15,-1.021 -0.82,0.33 -1.74,0.669 -2.77,0.933 l -2.388,0.614 -1.276,-4.938 c 2.334,-0.646 3.954,-0.868 5.404,-1.044 -0.13,-0.311 -0.28,-0.635 -0.38,-0.96 0,-0.319 -0.14,-0.684 -0.14,-1.014 z m 45.6,1.524 c 1.4,0.331 3.17,0.557 3.09,2.562 0,0.507 -0.1,0.858 -0.15,1.18 -0.57,2.376 -2.05,3.248 -4.41,2.442 z m 12.45,2.162 -5.56,15.297 c 0.58,0.157 1.16,0.292 1.71,0.494 0.56,0.204 1.09,0.474 1.64,0.717 l 5.55,-15.295 c -0.57,-0.16 -1.16,-0.292 -1.72,-0.498 -0.55,-0.198 -1.09,-0.471 -1.62,-0.715 z m -72.21,0.491 c -0.786,-0.03 -1.799,0.105 -2.794,0.497 -3.362,1.319 -4.275,4.106 -3.277,6.643 2.088,5.323 8.167,1.452 9.551,4.988 0.605,1.523 -0.312,2.772 -1.676,3.31 -1.524,0.599 -3.074,0.165 -4.002,-1.23 l -0.42,0.162 c 0.24,1.004 0.364,2.028 0.462,3.056 1.299,0.258 2.715,0.04 3.927,-0.445 3.424,-1.344 5.055,-4.33 3.944,-7.156 -1.988,-5.061 -8.483,-1.868 -9.656,-4.851 -0.496,-1.258 -0.165,-2.431 1.579,-3.114 1.258,-0.497 2.392,-0.07 3.292,0.921 l 0.335,-0.132 c -0.08,-0.835 -0.137,-1.651 -0.156,-2.465 -0.25,-0.101 -0.638,-0.17 -1.109,-0.184 z m 79.23,2.039 c -0.1,0.316 -0.17,0.65 -0.32,0.941 -0.15,0.325 -0.37,0.591 -0.56,0.868 1.17,0.392 2.6,0.902 4.1,1.644 l -6.43,13.098 c 0.57,0.218 1.13,0.415 1.66,0.672 0.53,0.267 1.04,0.592 1.54,0.897 l 6.44,-13.096 c 1.3,0.639 2.48,1.404 3.66,2.167 0.1,-0.319 0.19,-0.647 0.34,-0.964 0.15,-0.299 0.36,-0.567 0.55,-0.842 z m 13.22,6.638 c -0.31,3.595 -0.82,7.124 -1.09,10.653 l -3.85,5.666 c 0.51,0.299 1.05,0.572 1.53,0.906 0.49,0.333 0.94,0.728 1.4,1.102 l 4.13,-6.059 c 2.95,-1.666 6.05,-3.039 9.16,-4.587 -0.33,-0.172 -0.67,-0.368 -0.97,-0.583 -0.35,-0.222 -0.65,-0.457 -0.93,-0.708 -1.87,1.156 -5.55,3.419 -6.91,3.831 -0.1,-0.448 0.15,-1.732 0.36,-3.193 0.24,-1.532 0.52,-3.184 0.71,-4.623 -0.61,-0.364 -1.25,-0.702 -1.84,-1.102 -0.58,-0.405 -1.13,-0.863 -1.7,-1.303 z M 66.593,33.117 c -0.477,0.361 -0.939,0.74 -1.439,1.051 -0.504,0.321 -1.046,0.576 -1.569,0.855 l 8.632,13.65 7.599,-4.805 c -0.217,-0.25 -0.467,-0.516 -0.643,-0.796 -0.179,-0.283 -0.309,-0.623 -0.445,-0.926 -1.274,1.001 -2.671,2.079 -4.416,3.18 z M 125,35.287 c -49.511,0 -89.644,40.134 -89.644,89.653 0,49.5 40.136,89.64 89.644,89.64 49.5,0 89.64,-40.14 89.64,-89.64 0,-49.519 -40.14,-89.653 -89.64,-89.653 z m 0,2.207 c 48.29,0 87.43,39.148 87.43,87.446 0,48.29 -39.14,87.42 -87.43,87.42 -48.283,0 -87.435,-39.13 -87.436,-87.42 0,-48.298 39.153,-87.446 87.436,-87.446 z m -69.839,3.723 c -0.202,0.238 -0.403,0.438 -0.636,0.64 -0.238,0.205 -0.469,0.368 -0.735,0.526 l 5.487,16.92 c 0.276,-0.263 0.533,-0.543 0.825,-0.796 0.287,-0.24 0.588,-0.435 0.894,-0.666 -0.721,-1.54 -1.219,-3.044 -1.917,-4.814 l 4.214,-3.583 c 1.514,0.795 2.936,1.702 4.493,2.682 0.493,-0.48 0.949,-0.967 1.475,-1.41 0.52,-0.445 1.075,-0.822 1.628,-1.23 z m 1.582,4.636 5.192,2.839 -3.307,2.814 z m 147.957,4.136 -16.64,6.247 c 0.28,0.263 0.56,0.507 0.83,0.783 0.27,0.28 0.46,0.572 0.71,0.868 1.5,-0.787 2.99,-1.358 4.72,-2.138 l 3.78,4.041 c -0.73,1.553 -1.56,3.015 -2.49,4.617 0.52,0.468 1.02,0.903 1.48,1.41 0.48,0.5 0.87,1.037 1.3,1.572 l 7.54,-16.088 c -0.23,-0.195 -0.45,-0.383 -0.67,-0.614 -0.2,-0.221 -0.37,-0.442 -0.56,-0.698 z m -158.931,0.04 c -0.163,0.272 -0.355,0.539 -0.549,0.776 -0.201,0.24 -0.429,0.478 -0.663,0.685 l 8.554,7.08 c -5.075,0.146 -10.11,0.565 -15.089,0.815 l -1.498,1.81 12.5,10.347 c 0.179,-0.257 0.351,-0.539 0.552,-0.77 0.192,-0.246 0.442,-0.467 0.657,-0.691 l -8.844,-7.32 3.733,-0.267 c 3.883,-0.266 7.765,-0.384 11.877,-0.546 l 1.307,-1.54 z m 155.611,3.07 -2.61,5.312 -2.95,-3.178 z m -40.7,7.057 v 0.123 c -2.33,0.09 -4.69,0.649 -6.67,1.026 l -0.1,0.04 c -1.99,0.842 -4.44,1.998 -6.39,3.645 -1.95,1.641 -3.46,3.818 -3.41,6.599 -0.16,4.428 2.17,7.696 2.58,11.565 -0.1,2.248 -1.43,4.243 -3.26,5.93 -1.86,1.689 -4.12,3.044 -5.8,4.012 l -0.71,0.422 h -1.88 V 93.34 c -0.2,-1.313 -0.8,-3.161 -1.18,-4.428 0.1,-1.108 -0.19,-2.095 -0.45,-2.869 -0.3,-0.864 -0.42,-1.41 -0.25,-1.825 l 0.23,-0.427 -0.22,-0.421 c -1.12,-3.055 -1.38,-6.138 -1.49,-9.597 v -0.03 -0.12 -0.08 c -0.4,-1.748 -0.61,-3.782 -1.27,-5.763 h 0.14 l -0.39,-0.91 c -0.65,-1.498 -1.93,-2.434 -3.2,-3.038 -1.27,-0.607 -2.58,-0.92 -3.53,-1.121 -1.01,-0.218 -2.24,-0.354 -3.22,-0.439 -0.49,-0.05 -0.92,-0.07 -1.24,-0.09 -0.27,-0.03 -0.46,-0.03 -0.45,-0.03 h -0.1 c 0,0 -0.1,0.03 -0.12,0.03 -0.62,-0.03 -1.25,0.08 -1.81,0.34 -0.32,0.14 -0.65,0.325 -0.92,0.621 -0.13,0.123 -0.24,0.273 -0.32,0.442 l -2.24,-0.227 c -0.39,-0.04 -0.79,-0.04 -1.17,-0.04 h -0.15 c -0.18,0 -0.36,0 -0.55,0.04 -0.57,0.03 -1.13,0.1 -1.64,0.243 -0.6,0.157 -1.14,0.414 -1.59,0.796 l -0.22,0.195 v 0.03 l -0.55,1.066 c -0.1,0.127 -0.13,0.247 -0.18,0.377 -0.65,1.965 -0.19,3.963 0,5.919 l 0.1,0.855 0.34,2.79 0.97,-3.233 0.15,-0.171 c 0.37,0.14 1.7,0.678 4.62,2.085 0,0.09 0.1,0.163 0.1,0.185 v 0.254 l 0.29,0.23 c 0.28,0.292 0.42,0.461 0.5,0.656 0.1,0.193 0.1,0.507 0.1,1.034 l -0.86,2.427 -0.7,2.67 v 0.15 c 0,0.188 -0.21,0.714 -0.57,1.351 -0.31,0.589 -0.67,1.342 -0.68,2.249 -0.37,0.772 -0.87,1.855 -0.84,3.079 l -2,4.873 h -4.74 l 0.1,-0.24 c -2.29,-1.063 -4.889,-2.355 -6.36,-4.477 -0.498,-2.8 0.369,-5.496 1.14,-8.274 0.779,-2.814 1.43,-5.738 0.119,-8.808 l -0.03,-0.03 v -0.03 c -2.193,-3.899 -5.832,-5.871 -9.753,-6.579 -1.228,-0.221 -2.482,-0.318 -3.739,-0.312 -0.754,0 -1.507,0.05 -2.255,0.13 h -0.04 c -1.994,0.211 -3.947,0.673 -5.737,1.335 h -0.04 l -0.04,0.04 c -6.026,3.547 -9.188,8.898 -11.085,14.831 -1.894,5.932 -2.553,12.463 -3.599,18.505 v 0.04 l -1.94,27.571 c -0.494,6.81 0.368,13.6 -0.272,20.15 l -0.08,0.75 0.711,-0.23 c 1.374,-0.46 2.686,-1.31 3.804,-2.41 0.709,4.21 0.329,8.88 -0.07,13.16 l -0.06,0.55 h 0.549 c 2.141,0 3.804,-1.45 5.045,-3 -0.198,4.23 -0.744,8.26 -1.754,12.09 l -0.05,0.16 0.419,1.01 0.217,0.1 c 1.173,0.37 2.356,0.12 3.428,-0.34 0.871,-0.37 1.634,-0.93 2.375,-1.44 -0.338,1.52 -0.478,3.09 -0.673,4.61 h -2.024 c -2.176,0 -3.973,1.71 -4.11,3.86 v 0.1 c 0.13,2.08 1.827,3.71 3.906,3.82 v 3.41 h 2.157 v 1.41 H 71.85 v 5.87 h 10.692 v -5.87 h -1.615 v -1.41 h 3.431 v 1.41 H 82.74 v 5.87 h 10.789 v -5.87 h -2.157 v -1.41 h 2.157 v -3.37 H 104.7 l -0.14,0.32 a 0.16245,0.16245 0 0 0 0,0.16 l 1.71,2.34 a 0.16245,0.16245 0 0 0 0.2,0.1 l 2.77,-1.1 a 0.16245,0.16245 0 0 0 0.1,0.1 h -0.1 l 1.91,2.45 a 0.16245,0.16245 0 0 0 0.19,0.1 l 2.73,-1.15 a 0.16245,0.16245 0 0 0 0.11,0 h -0.1 l 2.02,1.58 a 0.16245,0.16245 0 0 0 0.16,0 l 2.71,-1.04 a 0.16245,0.16245 0 0 0 0.1,0 l 3.74,2 a 0.16245,0.16245 0 0 0 0.16,0 l 3.79,-1.97 2.61,1.01 a 0.16245,0.16245 0 0 0 0.17,0 l 2.01,-1.58 h -0.1 a 0.16245,0.16245 0 0 0 0.13,-0.1 l 2.72,1.16 a 0.16245,0.16245 0 0 0 0.19,-0.1 l 1.9,-2.45 h -0.1 a 0.16245,0.16245 0 0 0 0.12,-0.1 l 2.63,1.04 a 0.10382,0.10382 0 0 0 0.1,0 h 0.1 a 0.16245,0.16245 0 0 0 0.19,-0.1 l 1.71,-2.34 a 0.16245,0.16245 0 0 0 0,-0.16 l -0.13,-0.28 h 0.43 v 0.1 l 0.49,0.1 c 0,0 0.46,0.1 1.06,-0.14 h 7.84 l -0.12,0.18 0.47,-0.18 h 6.51 c 0.1,0.77 0.73,1.38 1.51,1.38 0.79,0 1.45,-0.61 1.53,-1.38 h 1.14 0.26 c 0.15,0 0.3,0.1 0.27,0 0.1,0.1 0.43,0.59 0.43,0.59 v -0.1 c 0.96,2.18 2.73,4.53 4.83,6.37 2.12,1.86 4.59,3.25 7.09,3.25 2.42,0 4.39,-1.1 5.9,-2.69 1.52,-1.57 2.64,-3.63 3.56,-5.71 0,0 0.32,-0.74 0.75,-1.58 0.42,-0.85 1,-1.84 1.25,-2.08 0.9,-0.93 2.73,-1.24 2.73,-1.24 l 6.03,-0.81 -6.03,-0.81 c 0,0 -1.83,-0.32 -2.72,-1.25 -0.25,-0.24 -0.84,-1.22 -1.26,-2.07 -0.42,-0.85 -0.74,-1.59 -0.74,-1.59 -0.67,-1.52 -1.47,-3.03 -2.44,-4.35 l 0.22,-0.17 -0.11,-0.31 c -1.16,-3.72 -1.81,-7.78 -2.45,-11.81 v -0.1 c 1.28,0.65 2.35,0.88 3.08,0.73 0.87,-0.17 1.33,-0.72 1.33,-0.72 l 0.16,-0.19 -0.1,-0.23 c -0.95,-3.79 -1.56,-8.47 -1.85,-13.01 0.33,0.67 0.67,1.35 1.18,1.95 0.75,0.77 1.83,1.43 3.03,1.16 l 2.18,-0.5 -0.15,-0.5 c -4.85,-15.27 -2.51,-32.72 -5.63,-48.965 l 0.27,-1.193 v -0.09 c -1,-6.098 -3.93,-11.351 -5.85,-16.907 v -0.03 -0.03 c -2.25,-4.646 -4.5,-10.199 -9.85,-13.113 -1.62,-1.377 -3.61,-1.849 -5.63,-1.887 z m -0.2,1.035 v 0.04 l 0.15,0.05 c 2.19,-0.08 4.25,0.279 5.86,1.657 v 0.04 0.03 c 5.05,2.703 7.21,8.006 9.49,12.716 1.91,5.491 4.67,10.562 5.7,16.238 -1.32,1.111 -2.96,2.011 -4.6,1.393 l -1.45,-1.559 c -2.86,-5.127 -5.18,-10.52 -7.5,-15.906 0.7,0.263 2.04,0.159 2.86,-0.38 0.97,-0.867 1.84,-1.946 2.32,-3.128 -1.46,1.182 -3.83,2.261 -5.83,1.454 l -0.26,-0.272 c -2.49,1.893 -5.88,3.616 -9.18,2.326 -0.58,1.556 -1.07,3.606 -2.95,4.148 l -1.46,0.105 c 0.37,0.919 1.34,1.887 1.84,2.859 0.32,1.562 0.59,3.775 -0.28,5.182 -0.53,1.503 -3.45,0.639 -2.32,2.855 0.17,1.562 0.33,3.391 -0.64,4.639 -1.4,1.504 -3.18,2.8 -4.91,2.583 -0.21,1.144 -1.48,2.999 -2.02,3.769 -0.19,-5.062 -1.05,-8.639 -1.05,-8.639 l -0.1,-0.374 h -4.78 c 1.45,-0.877 3.01,-1.903 4.47,-3.232 1.95,-1.783 3.53,-4.006 3.59,-6.647 v -0.04 -0.03 c -0.44,-4.2 -2.72,-7.395 -2.57,-11.469 v -0.03 -0.03 c -0.1,-2.436 1.23,-4.321 3.05,-5.854 1.81,-1.524 4.14,-2.651 6.09,-3.476 2,-0.384 4.29,-0.92 6.46,-1.004 z m 49.81,0.761 c -1.6,-0.03 -3.3,0.474 -5.01,1.579 -4.67,3.034 -4.35,8.147 -1.62,12.345 1.14,1.748 2.69,3.258 4.35,4.727 l 5.5,-3.577 c -0.36,-0.471 -0.74,-0.932 -1.07,-1.429 -0.32,-0.498 -0.59,-1.036 -0.87,-1.557 l -4.64,3.022 c -0.6,-0.293 -1.33,-0.829 -1.98,-1.826 -1.97,-3.025 -1.05,-6.115 2.43,-8.363 3.34,-2.169 7.39,-2.488 9.56,0.836 1.02,1.569 1.25,3.449 0.52,5.234 l 0.17,0.279 c 0.72,-0.364 1.55,-0.614 2.38,-0.744 -0.13,-2.053 -0.79,-3.876 -1.9,-5.585 -1.96,-3.015 -4.74,-4.906 -7.82,-4.941 z M 117.91,63.3 h 0.1 0.34 c 0,0 2.96,0.14 4.8,0.537 0.22,0.05 0.46,0.1 0.71,0.162 0.1,0 0.11,0.03 0.17,0.05 0.2,0.05 0.38,0.1 0.59,0.156 0.1,0.03 0.2,0.07 0.31,0.1 0.16,0.05 0.32,0.101 0.48,0.16 0.21,0.08 0.42,0.149 0.63,0.237 0.1,0.04 0.11,0.06 0.17,0.08 0.15,0.06 0.29,0.133 0.43,0.204 0.14,0.08 0.27,0.147 0.4,0.224 0,0 0,0 0,0.04 0.13,0.07 0.25,0.149 0.36,0.23 0,0 0.1,0.03 0.1,0.05 0.11,0.08 0.21,0.153 0.31,0.234 0,0.04 0.1,0.05 0.1,0.06 0.1,0.08 0.18,0.159 0.27,0.244 0,0.03 0.1,0.06 0.1,0.08 0.1,0.08 0.15,0.169 0.22,0.257 0,0.04 0.1,0.07 0.1,0.107 0.1,0.101 0.15,0.208 0.22,0.318 0,0.04 0,0.05 0.1,0.08 0.1,0.139 0.16,0.282 0.23,0.435 0.87,1.995 0.97,4.315 1.46,6.471 0.1,3.506 0.38,6.735 1.56,9.977 -0.7,1.722 1.08,3.5 0.64,5.387 0.34,1.133 0.85,2.749 1.09,3.885 0,0.16 0.1,0.312 0.1,0.449 h -0.54 l -1.76,-4.438 0.55,-0.06 -1.35,-4.315 0.6,0.06 -1.68,-3.636 0.67,0.134 -0.74,-3.574 h 0.41 l -0.67,-2.689 0.67,-0.07 -1.08,-3.434 0.67,3.164 -0.81,-0.133 0.88,2.762 -0.67,-0.134 1.01,3.707 -0.88,-0.06 1.62,3.57 c 0,0 -1.08,-0.471 -0.81,-0.06 0.26,0.406 1.69,4.451 1.69,4.451 l -0.81,0.06 1.87,4.712 h -0.81 c -1.06,-0.741 -1.06,-1.209 -1.66,-1.59 -0.21,0.167 0.34,0.579 0.39,0.849 l 0.49,0.741 h -5.88 c 0.28,-0.511 0.9,-0.991 0.26,-1.206 0,0 -0.1,-0.03 -0.13,-0.03 -0.65,0 -1.29,0.971 -1.8,1.225 h -6.13 c -0.17,-0.484 0.94,-0.991 0.51,-1.322 -0.76,0 -1.61,1.108 -2.25,1.322 h -4.23 c -0.27,-0.324 1.09,-0.62 0.82,-0.939 -0.64,0.159 -1.17,0.815 -1.81,0.939 h -0.94 l 1.83,-4.425 c -0.27,-1.03 0.43,-2.215 0.92,-3.239 -0.16,-1.403 1.29,-2.583 1.29,-3.879 l 0.66,-2.482 0.9,-2.586 V 76.492 76.32 76.118 c 0,-0.09 0,-0.185 0,-0.27 0,-0.06 0,-0.103 0,-0.149 0,-0.06 0,-0.123 0,-0.182 0,-0.03 0,-0.06 0,-0.08 -0.1,-0.202 -0.15,-0.384 -0.25,-0.552 -0.14,-0.227 -0.32,-0.435 -0.52,-0.656 -4.41,-2.164 -6.03,-2.722 -6.08,-2.739 0,0 0.17,-0.266 0.38,-0.559 v 0 c 0,0 0.14,-0.218 0.27,-0.396 0,0 0,0 0,0.03 -0.11,0.118 -0.2,0.241 -0.29,0.364 2.41,0.923 2.73,0.965 4.93,2.664 L 112.5,72.46 c 0,0 -0.98,-0.936 -3.48,-1.92 0.17,-0.198 0.35,-0.37 0.51,-0.419 1.97,-0.646 3.14,0.133 3.14,0.133 l 1.19,0.621 3.03,1.39 c 0,0 0.64,0 0,-0.204 -2.04,-0.907 -3.82,-3.048 -6.05,-2.983 v -0.03 c -0.41,0 -0.84,0.101 -1.27,0.286 -0.95,0.526 -1.38,1.894 -1.79,2.762 l -0.1,0.117 c -0.24,-2.586 -0.92,-5.013 0.54,-7.148 0.12,-0.133 0.27,-0.247 0.43,-0.35 0,-0.04 0.1,-0.05 0.11,-0.08 0.1,-0.04 0.12,-0.08 0.2,-0.107 0.1,-0.04 0.12,-0.06 0.18,-0.08 0.1,-0.03 0.16,-0.07 0.24,-0.09 0.1,-0.04 0.2,-0.06 0.3,-0.09 0,0 0.1,-0.04 0.14,-0.04 0.1,-0.03 0.19,-0.05 0.3,-0.06 l 0.16,-0.03 c 0.11,-0.03 0.21,-0.03 0.32,-0.05 0,0 0.1,0 0.12,-0.04 0.33,-0.04 0.68,-0.06 1.03,-0.06 v 0 c 1.1,-0.03 2.27,0.107 3.35,0.252 0.35,0.05 0.72,0.09 1.04,0.14 -0.1,-0.406 0.48,-0.769 1.12,-0.964 0.11,-0.03 0.21,-0.06 0.31,-0.08 h 0.1 c 0.12,-0.03 0.23,-0.04 0.35,-0.05 z m -1.81,1.118 0.49,1.348 c 0.46,1.521 0.1,1.716 0.15,2.108 l 0.18,0.501 c 1.11,-1.212 0.57,-2.58 -0.81,-3.954 z m -6.31,0.533 v 0 c -1.55,0.05 -2.09,2.066 -1.93,3.937 0.6,-1.67 0.73,-2.849 2.25,-3.918 -0.11,-0.03 -0.22,-0.03 -0.32,-0.03 z m -24.714,0.805 v 0 c 1.196,0 2.394,0.08 3.551,0.292 3.706,0.67 7.04,2.489 9.145,5.897 1.153,2.742 0.594,5.357 -0.176,8.126 -0.769,2.777 -1.754,5.682 -1.159,8.823 l 0.03,0.101 0.06,0.08 c 1.26,1.874 3.181,3.008 5.063,3.96 h -0.38 l -0.1,0.423 c 0,0 -0.58,4.093 -0.84,8.672 l -0.594,1.56 c -1.4,0.87 -2.588,0.16 -3.882,-0.38 -0.702,-0.97 -1.835,-1.99 -1.186,-3.342 0.429,-0.701 0.969,-1.076 1.401,-1.563 -1.245,0.43 -2.859,2.155 -4.37,0.751 -0.64,-1.56 -2.047,-2.96 -1.29,-4.902 0.428,-0.588 0.592,-1.349 1.29,-1.836 -0.698,-0.159 -1.56,0.428 -2.206,-0.215 -0.972,-1.507 -0.809,-3.125 -0.647,-4.957 0.595,-0.647 0.916,-1.293 1.67,-1.674 -0.864,-0.377 -2.053,-1.182 -1.942,-2.423 0.162,-2.697 0.919,-5.178 2.859,-7.118 L 91.3,75.876 c -2.268,2.047 -5.127,3.665 -8.197,2.586 -1.027,-0.432 -1.131,-1.563 -1.404,-2.427 -1.449,2.427 -4.363,3.021 -7.115,3.232 -1.507,-0.103 -2.371,-1.835 -3.772,-2.206 0.644,1.073 1.778,2.48 3.015,3.237 -0.536,5.763 -2.693,10.834 -5.172,15.798 -1.212,1.469 -3.291,1.303 -5.049,1.648 0.877,-5.481 1.586,-11.179 3.233,-16.332 1.848,-5.78 4.857,-10.851 10.614,-14.259 1.702,-0.624 3.56,-1.069 5.457,-1.271 0.712,-0.08 1.437,-0.119 2.155,-0.123 z m 33.964,1.41 c -0.83,0.04 -1.21,0.643 -1.62,1.544 l -0.41,0.279 c 1.14,-0.163 1.2,1.813 2.6,1.703 1.14,0.06 2.16,-0.69 2.71,-1.84 0.92,0.108 1.7,0.215 2.49,-0.204 l 0.14,-0.166 c -0.8,0.296 -1.69,0.133 -2.57,-0.149 -1.11,-0.355 -2.24,-1.16 -3.17,-1.163 h -0.17 z m -82.706,0.79 c -2.582,-0.06 -5.344,1.137 -7.356,4.853 -2.815,5.195 -1.095,10.039 3.057,12.291 4.737,2.559 9.133,0.923 11.629,-3.688 2.767,-5.117 0.997,-10.123 -3.079,-12.299 -1.219,-0.651 -2.702,-1.128 -4.251,-1.157 z m 82.456,0.06 c 0.1,0 0.1,0 0.14,0.04 -0.1,0.594 -0.23,1.195 0.55,1.501 0.98,0.198 1.11,-0.403 1.33,-1.082 0.12,-0.08 0.8,0.179 0.81,0.273 -0.1,0.435 -0.43,1.179 -1.09,1.452 -0.48,0.13 -0.84,0.153 -1.27,0 -0.65,-0.25 -1.21,-1.133 -1.21,-1.653 -0.1,-0.283 0.39,-0.513 0.74,-0.498 z m -3.34,0.637 c -0.7,0 -1.6,0.685 -1.9,0.77 0.63,0.149 1.94,0.227 2.41,0 0.17,-0.08 -0.17,-0.469 -0.1,-0.64 -0.12,-0.09 -0.27,-0.13 -0.43,-0.13 z m 31.06,0 c -3.39,5.818 3.13,10.728 1.3,16.546 3.45,-5.818 -3.19,-10.673 -1.3,-16.546 z M 115.3,69.79 c 0.87,0.769 2.76,1.689 2.35,3.337 -0.82,0.785 -1.26,0.487 -1.74,0.07 l -3.45,-2.143 c 0,0 2.49,1.816 3.67,2.936 0.99,0.25 2.09,-0.211 2.38,-1.26 0,-0.549 -0.81,-1.544 -1.84,-2.239 -0.41,-0.178 -0.92,-0.52 -1.37,-0.702 z m 45.23,1.049 c -0.22,0.432 0.22,1.134 0.65,1.407 l 0.1,-0.111 c 0,-0.591 -0.47,-1.019 -0.75,-1.296 z M 34.425,71.252 c 1.326,0.03 2.71,0.468 3.89,1.105 3.458,1.878 5.894,5.055 4.153,8.268 -1.694,3.129 -5.24,2.804 -7.951,1.335 -4.673,-2.53 -5.928,-5.451 -4.358,-8.352 0.953,-1.758 2.561,-2.395 4.266,-2.356 z m 62.701,0.715 c 1.24,2.752 -0.539,5.555 -1.186,8.141 -0.539,3.672 -2.05,7.927 1.293,10.787 -1.186,-1.615 -1.56,-3.669 -1.186,-5.718 0.06,-4.526 3.882,-8.951 1.079,-13.21 z m -9.486,1.296 c -0.92,0.757 -1.021,1.832 -1.515,2.749 0.813,-0.809 1.726,-1.67 1.515,-2.749 z m 28.46,1.674 c -0.39,0.171 -0.43,1.507 -0.59,2.208 l -1.08,2.48 c 0.92,-1.183 1.64,-2.324 2.11,-4.149 -0.22,-0.166 -0.22,-0.381 -0.44,-0.539 z m 50.63,0.266 c 2.43,5.234 4.42,10.676 7.11,15.799 0.11,1.241 -0.59,2.209 -1.29,3.129 -0.85,0.594 -1.94,0.967 -2.96,0.643 -4.26,-5.121 -7.33,-10.618 -10.14,-16.332 2.86,0.319 5.24,-1.297 7.28,-3.239 z M 153,76.08 v 0 h -0.24 l -0.26,0.539 c 0.97,0.594 2.16,1.404 3.07,1.404 -0.61,-0.709 -1.45,-1.94 -2.57,-1.956 z m 20.84,0.309 c 1.2,4.207 3.03,8.518 4.81,12.673 -1.67,-4.207 -2.91,-8.577 -4.81,-12.673 z m 49.46,0.536 -14.74,6.595 3.7,8.252 c 0.28,-0.179 0.58,-0.387 0.88,-0.527 0.3,-0.133 0.66,-0.21 0.97,-0.308 -0.76,-1.242 -1.53,-2.667 -2.54,-4.867 l 5.51,-2.46 0.99,2.252 c 0.44,0.975 0.76,1.907 1.01,2.752 0.28,-0.179 0.57,-0.39 0.88,-0.524 0.3,-0.136 0.65,-0.217 0.99,-0.311 -0.48,-0.748 -0.95,-1.605 -1.39,-2.577 l -1.01,-2.254 4.66,-2.076 c 1.02,2.19 1.51,3.733 1.93,5.139 0.29,-0.182 0.58,-0.393 0.88,-0.529 0.3,-0.133 0.65,-0.214 0.97,-0.305 z M 70.709,78.062 c -0.266,1.166 -0.519,2.335 -0.772,3.506 0.279,-1.16 0.535,-2.33 0.772,-3.506 z m -0.772,3.506 c -1.199,4.95 -2.824,9.732 -5.049,14.232 2.797,-4.282 3.961,-9.236 5.049,-14.232 z m 11.23,-3.396 c 0.381,0.865 1.296,1.504 1.94,2.21 -1.131,6.575 -4.421,12.238 -8.407,17.631 -0.757,0.698 -1.996,0.75 -2.967,0.377 -0.702,-0.329 -1.348,-1.076 -1.78,-1.673 1.942,-5.121 3.94,-10.248 4.747,-15.793 2.533,0.267 4.524,-1.404 6.467,-2.752 z m 82.593,0.644 c 0.76,3.829 2.92,7.007 4.64,10.35 0.86,1.349 1.46,3.349 2.97,3.779 -2.21,-4.855 -5.94,-9.061 -7.61,-14.129 z m -75.045,0.158 c -0.595,2.109 -2.369,5.342 0,7.122 -0.969,1.832 -1.884,3.937 -1.294,6.092 -2.588,3.775 -4.528,8.192 -8.407,11.112 -1.355,0.64 -2.428,-0.7 -2.86,-1.68 -1.728,-3.607 2.801,-5.875 3.61,-9.052 1.885,-3.831 3.508,-7.713 4.425,-11.917 1.78,0.159 3.232,-0.594 4.526,-1.677 z m 3.342,0 c -0.539,0.976 -1.617,1.248 -1.562,2.213 0.432,-0.702 1.507,-1.562 1.562,-2.213 z m 66.113,0 c 3.38,5.445 5.44,11.699 9.96,16.823 0.44,1.943 -0.1,3.779 -1.03,5.283 -0.81,1.02 -1.88,1.79 -3.12,1.46 -3.02,-3.725 -5.94,-7.497 -7.87,-11.648 -0.27,-1.024 0.65,-1.885 0.76,-2.859 0.32,-2.048 -0.38,-3.717 -0.87,-5.445 1.03,-0.972 1.77,-2.262 2.17,-3.614 z m -78.516,2.051 c -0.371,1.721 -0.803,3.394 -1.56,4.905 -0.162,0.592 -0.701,1.397 -0.162,1.836 l 1.832,-6.361 z m 44.376,2.157 -1.48,0.844 c -0.4,0.167 -2.08,-0.416 -1.82,-0.305 1.38,1.163 2.12,1.498 3.3,-0.539 z m -5.18,0.386 v 0 c -0.25,0 -0.41,0.202 -0.64,0.293 -0.86,0.487 -1.56,0.214 -2.49,0 v 0.27 c 0.38,0.217 0.7,0.487 1.19,0.376 0.76,-0.06 1.51,-0.321 2.05,-0.915 0,0 -0.1,-0.03 -0.11,-0.03 z m 32.55,0.673 c -0.1,0 -0.13,0 -0.2,0.03 0.76,1.185 2.1,1.943 3.24,2.752 -0.11,-0.546 -0.32,-1.03 -0.65,-1.459 -0.75,-0.556 -1.42,-1.348 -2.39,-1.312 z m -65.054,1.042 c -2.05,4.962 -4.37,9.76 -7.332,14.234 -0.54,0.593 -1.995,0.377 -1.726,1.453 1.456,0.54 2.047,-0.97 3.019,-1.668 2.209,-4.581 4.418,-9.164 6.039,-14.019 z m 70.954,0 c 1.56,5.176 4.52,9.705 7.22,14.393 0.33,0.434 1.08,1.514 1.57,0.764 -3.46,-4.802 -5.83,-10.091 -8.79,-15.157 z M 23.435,85.726 c -0.157,0.575 -0.298,1.156 -0.503,1.715 -0.204,0.555 -0.475,1.081 -0.728,1.627 l 15.268,5.638 c 0.159,-0.579 0.299,-1.154 0.501,-1.713 0.207,-0.555 0.479,-1.085 0.731,-1.631 z m 105.135,0.66 c 0,1.559 -1.41,1.987 -2.23,3.232 -0.84,0.428 -1.66,0.266 -2.47,-0.27 -0.11,0.702 0.27,1.241 0.81,1.67 0.86,0.809 1.51,-0.377 2.31,-0.54 0.87,-1.13 1.95,-2.644 1.58,-4.092 z m -6,0.476 c -0.54,1.245 -1.94,2.269 -2.8,3.24 -1.02,0.163 -1.72,-0.111 -2.59,-1.023 0.28,0.701 0.17,1.562 0.87,2.046 0.7,0.377 1.5,-0.159 2.1,0 1.02,-1.296 1.94,-2.696 2.42,-4.263 z M 116,88.048 c -1.13,0.432 -1.25,2.217 -2.7,2.054 -0.97,-0.273 -0.7,-1.297 -1.07,-1.94 -0.27,0.969 0,1.995 0.27,2.856 0.48,0.432 0.97,-0.325 1.45,0.107 0.54,-1.079 1.89,-1.829 2.05,-3.077 z m -23.562,0.381 -2.05,1.296 c 0.809,-0.166 1.832,-0.325 2.05,-1.296 z m -15.256,0.11 c -1.134,3.073 -2.269,6.362 -4.156,8.844 1.725,-0.651 1.887,-2.752 2.859,-3.886 0.163,-1.995 1.67,-3.019 1.297,-4.958 z m 151.608,1.105 -15.67,4.236 c 0.1,0.289 0.22,0.602 0.32,0.896 0.1,0.3 0.1,0.634 0.16,0.936 l 11.1,-2.995 -1.93,3.2 c -2.03,3.327 -4.18,6.553 -6.41,10.013 l 0.5,1.96 15.71,-4.25 c -0.13,-0.29 -0.23,-0.62 -0.33,-0.91 -0.1,-0.29 -0.17,-0.61 -0.17,-0.94 l -10.72,2.91 c 2.82,-4.22 5.38,-8.578 8.03,-12.788 z m -82.12,0.727 c 0.65,1.615 1.68,3.181 3.24,4.26 -0.38,-1.67 -1.35,-3.778 -3.24,-4.26 z m 7.77,1.027 h 0.49 c 2.2,4.525 4.85,8.842 8.29,12.832 0.44,1.72 -0.64,2.85 -1.56,3.98 -0.91,0.76 -2.05,1.09 -3.34,0.93 -2.7,-2.91 -4.36,-6.26 -6.36,-9.445 2,-2.261 2.05,-5.389 2.48,-8.297 z M 20.828,92.734 17.866,104.59 c 0.334,0 0.672,0 0.995,0.11 0.346,0.1 0.651,0.24 0.96,0.37 0.139,-1.24 0.339,-2.73 0.749,-4.36 l 14.151,3.54 c 0.1,-0.59 0.174,-1.18 0.319,-1.76 0.143,-0.58 0.354,-1.13 0.547,-1.69 L 21.43,97.259 c 0.357,-1.404 0.852,-2.722 1.354,-4.035 -0.332,-0.04 -0.673,-0.05 -1.018,-0.134 -0.321,-0.08 -0.627,-0.226 -0.938,-0.356 z M 174.5,93.341 c 0.7,1.667 2.8,1.988 4.36,1.937 1.67,13.592 1.73,27.822 4.97,40.762 -1.79,-13.47 -2.81,-27.6 -4.16,-41.409 0.64,-0.257 1.3,-0.647 1.82,-1.193 v 0.05 0.101 c 3.07,15.891 0.8,33.221 5.59,48.711 l -1.17,0.26 c -0.74,0.17 -1.49,-0.25 -2.12,-0.87 -0.61,-0.74 -1.07,-1.54 -1.44,-2.4 l -0.17,-0.4 -0.34,0.1 c -1.76,-4.73 -1,-10.55 -6.31,-13.57 -0.65,-10.09 -1.3,-20.17 -1.94,-30.252 0.32,-0.588 0.43,-1.287 0.91,-1.826 z m -86.592,0.156 c 2.37,0.972 0.27,3.989 1.833,5.659 0.432,0.813 2.047,0.813 1.566,1.944 -2.16,3.07 -3.723,6.74 -6.904,9.06 -1.62,0.65 -2.806,-1.19 -3.719,-2.21 -0.488,-0.87 -0.699,-1.78 -0.809,-2.81 3.827,-3.29 5.5,-7.706 8.033,-11.643 z m 7.116,1.027 -2.044,2.693 c 1.072,-0.699 1.559,-1.618 2.044,-2.693 z m 77.146,2.05 0.23,1.669 1.44,28.087 1.3,0.92 c 0.81,6.52 0.81,13.53 3.35,19.3 -1.62,-5.44 -1.67,-12.02 -1.95,-18.01 3.56,2.63 2.88,7.18 4.66,10.64 l -0.4,0.11 v 0.38 c 0.26,4.65 0.89,9.45 1.86,13.46 -0.24,0 -0.49,0 -0.77,-0.12 -8.85,-3.28 -4.38,-14.66 -11.17,-19.94 l -2.43,-26.14 -0.53,-3.73 c 0.97,-1.78 1.29,-3.823 1.67,-5.817 z m -17.73,1.022 c 1.24,3.074 3.13,5.874 4.91,8.674 0.64,0.22 1.29,0.81 2.04,0.38 0.22,-1.24 -1.24,-0.75 -1.78,-1.4 -1.84,-2.64 -3.61,-5.01 -5.17,-7.654 z M 63.586,97.89 c 0.691,0.769 2.085,0.62 2.702,1.542 -0.575,8.508 -1.465,16.958 -2.176,25.438 -0.495,5.9 -0.903,11.82 -1.059,17.8 1.393,-5.63 1.779,-11.73 2.105,-17.8 0.224,-4.27 0.422,-8.54 0.913,-12.61 l 0.646,-12.828 2.586,-1.403 2.323,2.431 c -0.845,8.15 -1.371,16.04 -1.531,24.41 0,0.7 -0.03,1.4 -0.04,2.11 -0.428,1.67 -1.777,2.97 -2.478,4.52 -2.262,4.86 -1.294,11.17 -6.31,14.78 0.06,0.1 0.117,0.15 0.176,0.19 -0.121,0.1 -0.241,0.11 -0.361,0.16 0.51,-6.44 -0.208,-12.94 0.256,-19.34 l 1.934,-27.532 c 0.107,-0.618 0.208,-1.241 0.309,-1.868 z m 35.482,1.805 -0.808,1.785 0.643,-0.65 z m 51.492,0.111 c 1.61,3.714 3.83,7.224 6.57,10.514 0.17,1.56 -1.07,2.8 -2.31,3.61 -1.25,0.43 -2.65,-0.32 -2.97,-1.56 -1.13,-4.1 -6.63,-7.44 -3.61,-12.19 0.75,-0.1 1.51,-0.211 2.32,-0.374 z m -76.943,1.284 v 0 c 0.462,0 0.92,0.1 1.241,0 0.647,1.61 1.352,3.23 2.697,4.41 -0.539,6.21 -0.721,12.82 -1.085,19.35 -0.218,3.91 -0.498,7.79 -0.961,11.55 -1.996,2.27 -2.538,5.18 -2.967,8.04 -1.943,4.52 -1.514,10.4 -6.741,13.2 l -0.162,0.38 h 0.05 c -0.06,0 -0.133,0 -0.201,0 0.419,-4.42 0.893,-9.31 -0.06,-13.74 l -0.219,-1.02 -0.162,0.21 c 1.157,-2.23 1.267,-5.05 2.534,-7.22 0.218,4.85 0.05,10.09 0.647,14.62 1.51,-5.4 0.487,-11.65 0.432,-17.31 0.539,-1.95 1.617,-3.66 2.801,-5.34 0.05,-1.14 0.08,-2.28 0.116,-3.41 0.244,-7.77 0.38,-15.44 0.799,-23.5 0.322,-0.24 0.783,-0.28 1.241,-0.27 z m 18.551,0.39 c 0.643,1.29 1.615,3.29 3.505,3.12 h 0.374 v 0.65 l -5.822,9.06 c -0.539,0.54 -1.455,0.65 -2.153,0.38 -1.134,-0.81 -2.596,-1.89 -2.596,-3.35 3.456,-2.53 4.59,-6.51 6.692,-9.86 z m -5.016,0.55 c -1.13,1.77 -2.264,3.54 -3.772,5.17 -0.377,0.54 -1.673,0.21 -1.404,1.01 h 1.131 c 1.673,-1.45 3.073,-3.98 4.045,-6.18 z m 62.108,0.9 3.24,8.25 c 0.43,0.91 1.35,1.73 2.43,1.57 0.69,-1.3 -1.08,-1.2 -1.51,-2.05 z m -2.98,1.67 v 0 l 5.02,9.82 c -0.77,1.83 -2.76,2.37 -4.54,2.58 -0.9,-0.1 -2.32,-0.37 -2.86,-0.83 0.52,-2.07 0.86,-4.11 1.07,-6.11 1.21,1.87 1.29,5.28 4,5.44 0.43,-0.17 0.22,-0.6 0.27,-0.92 -2.17,-0.95 -3.03,-3.8 -4.14,-5.84 0.1,-1.1 0.15,-2.18 0.18,-3.23 v -0.5 c 0.25,-0.17 0.61,-0.32 0.99,-0.41 z m 19.91,0 c 1.78,9.76 1.78,20.28 2.97,30.3 1.07,0.44 2.15,1.13 2.85,2.17 0.59,8.13 1.57,16.11 4.7,23.18 -0.39,-2.76 -1.35,-5.56 -1.73,-8.41 l -1.03,-9.98 c 1.25,3.82 1.95,8.48 4.27,10.67 v 1.39 c 0.62,3.93 1.27,7.93 2.42,11.66 l -0.28,0.24 c -1.29,-0.54 -2.83,-0.82 -3.92,-1.96 -5.29,-5.72 -4.31,-14.02 -9.71,-19.68 -2.04,-11.11 -2.75,-22.81 -4.42,-34.13 1.72,-1.61 1.14,-4.8 3.88,-5.45 z m -59.52,0.91 h 3.48 v 24.85 l -0.1,-0.1 c 0,0 -1.43,-1.74 -1.9,-2.37 -0.4,-0.54 -1.25,-1.89 -1.51,-2.3 z m 6.97,0 h 3.7 v 32.69 c -0.17,-0.14 -0.33,-0.27 -0.5,-0.41 h -0.38 v 0 h 0.38 c -0.16,-0.14 -0.32,-0.28 -0.49,-0.42 -0.45,-1.57 -1.28,-3.01 -2.7,-4.19 z m -12.52,0 h 2.08 v 13.25 c -0.77,-2.34 -1.48,-5.19 -1.88,-8.54 -0.17,-1.39 -0.22,-3.03 -0.2,-4.71 z m 19.99,0 h 3.44 v 35.35 c -1.1,0.65 -1.7,0.87 -1.7,0.87 0,0 -0.62,-0.22 -1.74,-0.88 z m 7.21,0 h 3.7 v 27.19 0 c -0.87,1.19 -1.37,2.43 -1.64,3.71 -0.1,0.1 -0.11,0.1 -0.16,0.15 h 0.13 v -0.1 c 0,0.1 0,0.16 -0.1,0.23 v -0.1 h -0.21 c -0.14,0.12 -0.27,0.22 -0.4,0.34 h 0.55 c 0,0 0,0.1 0,0.1 h -0.59 c -0.13,0.11 -0.27,0.23 -0.39,0.33 h 0.51 0.42 c 0,0 0,0 0,0.1 h -0.94 c -0.12,0.1 -0.24,0.21 -0.36,0.31 v 0 c -1.78,1.49 -3.18,2.44 -4.19,3.05 2.01,-1.31 3.64,-2.61 3.64,-2.61 z m 7.21,0 h 3.48 v 20.32 c 0,0 0,0 0,0.1 0,0.1 -0.58,0.84 -1.46,2.01 -0.37,0.5 -0.85,1.1 -1.37,1.75 -0.21,0.1 -0.41,0.1 -0.61,0.17 z m 6.96,0 h 2.03 c -0.14,4.05 -0.59,8.39 -2.03,12.81 z m -45.653,0.26 v 0 c 0.591,0.54 1.351,0 2.046,0 -0.208,1.19 0.832,1.93 1.347,2.83 0,0.54 0.1,1.06 0.14,1.54 v 0.1 c 0,0 0,0.1 0,0.1 -1.946,2.32 -2.647,5.39 -4.801,7.77 -1.511,1.18 -2.804,-0.55 -4.045,-1.19 -0.322,-0.43 -0.54,-0.91 -0.643,-1.4 2.855,-2.91 4.256,-6.36 5.98,-9.7 z m -17.95,0.1 v 0 h 0.208 c 0.809,2.16 1.189,5.39 3.993,5.81 0.123,4.33 0.1,8.74 -0.03,13.15 -0.218,6.89 -0.715,13.8 -1.371,20.49 -3.45,5.35 -4.909,11.49 -6.199,17.75 -0.539,2.48 -3.022,4.26 -5.178,5.29 h -1.07 l -0.03,-0.1 c 1.063,-4.09 1.655,-8.37 1.817,-12.87 v -0.21 l -0.815,-0.8 c 0.214,-0.33 0.412,-0.65 0.581,-0.94 1.024,-2.8 1.991,-5.6 3.018,-8.4 0.27,5.55 -0.432,11.37 -0.916,16.71 2.268,-6.15 2.209,-13.59 1.942,-20.44 0.267,-1.57 0.809,-3.08 2.21,-4.04 0,0 0.244,-5.84 0.516,-12.47 0.361,-8.67 0.777,-18.7 0.777,-18.7 0.12,-0.24 0.332,-0.27 0.543,-0.26 z m 13.444,1.3 c -1.352,2.21 -2.807,4.79 -4.799,6.36 0.646,0.1 1.075,-0.32 1.56,-0.64 z m -58.802,1.42 -17.045,5.01 c 0.02,0.31 0.02,0.59 -0.02,0.89 -0.03,0.31 -0.08,0.59 -0.156,0.9 l 15.71,8.32 c 0.01,-0.38 0,-0.75 0.04,-1.14 0.04,-0.37 0.114,-0.72 0.18,-1.1 -1.587,-0.6 -2.994,-1.33 -4.729,-2.12 l 0.535,-5.5 c 1.643,-0.49 3.295,-0.82 5.096,-1.2 0.02,-0.69 0,-1.36 0.08,-2.05 0.06,-0.68 0.199,-1.33 0.311,-2.01 z m 192.421,0.27 c -0.36,0 -0.74,0 -1.12,0.1 -4.86,0.43 -7.64,4.54 -7.18,9.59 0.13,1.59 0.56,3.24 1.42,4.59 l 2.09,0.34 v 0 l 0.11,-0.32 c -1.11,-0.97 -2.01,-2.61 -2.14,-4.07 -0.33,-3.64 2.33,-5.87 6.37,-6.23 3.47,-0.31 7.37,0.93 7.72,4.86 0.14,1.53 -0.63,3.13 -1.82,4.12 v 0.32 c 0.84,0.13 1.66,0.19 2.48,0.33 0.64,-1.44 0.87,-3.36 0.73,-4.92 -0.43,-4.83 -3.27,-8.65 -8.69,-8.66 z m -67.78,2.19 h 2.74 c 1.02,11.53 3.07,22.64 4.15,34.18 1.73,0.76 2.59,2.64 3.45,4.1 0.54,5.18 0.82,10.46 2.86,15.04 h 0.17 c -0.5,-3.28 -1.63,-6.74 -1.2,-10.35 1.36,4.1 2.76,8.25 5.83,11.65 l 0.99,6.15 -3.21,-1.63 c -7.43,-5.28 -6.52,-14.5 -11.64,-20.97 -2.53,-11.22 -3.93,-22.86 -5.28,-34.56 z m -57.63,0.22 c 0.27,1.88 0.63,3.6 1.04,5.14 -0.37,0.65 -1,1.27 -1.651,1.65 -0.429,-0.11 -0.805,0.1 -1.127,0.38 -0.11,0.22 0.101,0.37 0.266,0.48 0.861,0 1.622,-0.38 2.322,-0.86 0.12,-0.21 0.29,-0.44 0.46,-0.67 0.2,0.68 0.41,1.31 0.62,1.93 -0.29,0.17 -0.63,0.34 -0.81,0.41 -1.57,1.24 -3.345,0 -4.693,-0.81 l -0.38,-0.38 z m -15.867,1.47 c 0.757,1.23 1.728,3.22 3.505,3.12 h 0.371 c -0.05,2.94 -0.137,5.94 -0.251,8.98 -0.344,9.57 -0.948,19.5 -1.523,29.01 -4.422,4.6 -3.021,11.55 -6.253,16.61 -0.127,0.66 -0.417,1.27 -0.807,1.85 H 74.91 c 0.228,-1.68 0.374,-3.35 0.761,-4.86 l 0.06,-0.22 -0.549,-0.76 c 0.03,0 0.04,0 0.06,0 -0.322,-2.05 1.56,-3.24 1.943,-5.01 0.864,-2.48 1.13,-5.24 2.475,-7.56 -0.539,5.02 -0.968,10.19 -1.722,14.88 1.456,-2.52 1.456,-5.76 2.103,-8.62 0.487,-3.88 1.13,-7.6 1.403,-11.54 l 1.832,-1.83 c 0,0 0.497,-12.13 0.9,-21.9 0.273,-6.59 0.5,-12.1 0.5,-12.1 z m -58.123,1.51 -0.417,4.32 -5.287,-2.74 z m 126.03,1.25 c 0.28,0 0.63,0.21 1.05,0.62 l 1.56,-0.26 0.54,1.39 c 0.97,11.37 3.13,22.43 5.02,33.27 3.4,3.02 4.04,7.33 5.82,11.1 -4.96,-3.17 -7.71,-8.74 -9.54,-13.95 -1.73,-4.16 -2.7,-8.58 -4.27,-12.79 0,0 -1.99,-11.43 -2.37,-16.82 0.89,-0.67 1.18,-2.63 2.19,-2.56 z m -63.027,1.65 v 0 c 1.458,0.75 2.638,2.59 4.691,2.04 l 0.269,0.38 c 0.121,1.73 0.07,3.5 -0.06,5.27 -0.218,3.4 -0.604,6.82 -0.182,10.01 -0.04,0 -0.162,0.1 -0.162,0.1 l -0.28,0.12 -0.03,0.31 c -0.08,1.83 -0.233,3.64 -0.435,5.44 0.114,-1.92 0.134,-3.84 0.06,-5.79 -0.702,8.95 -2.212,17.57 -5.662,25.34 -0.969,2.53 -3.125,4.79 -3.772,7.11 1.046,-0.62 1.585,-1.64 2.294,-2.59 -0.995,1.59 -2.142,3.08 -3.678,4.31 1.417,-3.84 2.56,-7.96 3.704,-11.9 l 2.206,-2.6 c 0.428,-10.36 0.854,-20.1 0.987,-29.82 0.04,-2.56 0.06,-5.12 0.05,-7.69 z m 53.977,0.41 c 0.12,0.1 0.26,0.21 0.36,0.18 0.7,4.1 0.19,9.59 2.25,13.09 -0.17,0.7 -0.92,1.68 -1.79,1.84 -0.71,-0.1 -1.57,-0.1 -2.19,-0.42 -0.26,-0.15 -0.48,-0.33 -0.63,-0.61 -0.1,-0.15 -0.15,-0.33 -0.19,-0.54 l -1.02,-5.96 c 0.73,-1.28 1.36,-2.57 1.89,-3.85 0.87,2.42 0.24,5.46 1.06,7.98 0.52,-2.9 -0.3,-5.9 -0.79,-8.63 0.4,-1.02 0.75,-2.05 1.05,-3.08 z m 1.48,0.5 1.5,0.65 c 0.38,3.72 1.24,7.22 2.21,10.72 0.38,-1.61 -0.59,-3.01 -0.64,-4.69 -0.22,-1.89 -0.44,-3.83 -0.92,-5.66 0.43,-0.32 0.92,-0.42 1.46,-0.37 0.7,4.53 1.61,9 2.7,13.42 -0.1,-0.17 -0.19,-0.29 -0.3,-0.37 l -0.34,-0.54 -0.26,0.39 c -0.49,0 -1.03,0.12 -1.43,-0.12 -4.85,-2.49 -2.37,-8.68 -4.15,-12.78 z m -49.164,1.79 c 0.38,0.17 1.121,0.59 1.387,1.18 0.04,1.26 -0.04,2.53 -0.12,3.81 -0.186,2.65 -0.539,5.32 -0.793,7.93 0,0 0.377,0.21 0.423,0 0.698,-2.45 0.827,-5.31 0.906,-7.96 0.04,-1.2 0.06,-2.37 0.127,-3.43 l 1.942,0.38 c 0.05,0.85 0.06,1.92 0.03,3.05 -0.08,3.18 -0.488,6.99 -1.387,9.05 l -0.504,-0.12 -0.178,0.32 c -0.04,0 -0.15,0.16 -0.361,0.27 -0.214,0.1 -0.494,0.2 -0.773,0.27 -0.276,0.11 -0.556,0.12 -0.767,0.14 h -0.185 c -0.149,-0.1 -0.312,-0.12 -0.436,-0.12 h -0.162 c 0.423,-2.98 0.504,-6.47 0.611,-9.81 0.06,-1.73 0.113,-3.43 0.237,-5 z m 6.834,1.02 c 0.1,1.3 0.1,2.64 0,3.97 -0.17,2.56 -0.54,5.12 -0.61,7.56 0.84,-2.01 1.1,-4.85 1.26,-7.56 0.1,-1.02 0.11,-2.01 0.16,-2.96 0.7,1.63 1.36,2.87 1.88,3.73 -0.28,1.59 -0.48,4.37 -0.75,5.93 h -0.53 l -0.1,0.35 c -0.28,1.09 -0.73,1.84 -2.09,2.19 l -1.985,0.1 c 0.495,-3.05 0.665,-6.14 0.765,-9.38 0,-0.84 0,-1.68 0.1,-2.52 z m -70.592,4.35 -16.225,1.25 c 0.07,0.3 0.123,0.63 0.146,0.94 0.02,0.31 0.02,0.64 0,0.95 l 11.066,-0.81 c -3.549,3.6 -6.869,7.41 -10.275,11.05 l 0.179,2.35 16.185,-1.25 c -0.05,-0.31 -0.119,-0.65 -0.147,-0.94 -0.02,-0.31 0,-0.66 0,-0.96 l -11.448,0.88 2.495,-2.79 c 2.61,-2.87 5.32,-5.67 8.157,-8.64 z m 202.602,0.31 c -3.26,1.55 -6.56,2.9 -9.73,4.48 l -6.79,-0.45 v 1.79 c -0.1,0.59 -0.15,1.18 -0.25,1.77 l 7.31,0.47 c 2.95,1.69 5.68,3.65 8.61,5.56 V 138 c 0,-0.4 0.1,-0.78 0.14,-1.16 -1.96,-1.02 -5.77,-3.03 -6.82,-4 0.38,-0.26 1.56,-0.76 2.94,-1.32 1.44,-0.57 3,-1.17 4.33,-1.73 0,-0.71 -0.1,-1.43 0,-2.14 0,-0.71 0.16,-1.41 0.26,-2.12 z m -95.21,0.99 0.83,4.08 c 0,0 -0.62,-1.05 -1.63,-1.18 -0.61,-0.1 -0.99,-0.1 -1.26,-0.1 0.25,-0.31 0.48,-0.6 0.68,-0.86 0.79,-1.05 1.22,-1.68 1.38,-1.94 z m -29.33,4.58 c 0,0 0.26,0.28 0.33,0.37 h -0.1 l -0.28,-0.32 v 0 z m 37.28,1.38 0.39,0.12 0.41,0.3 h 0.12 c 0.34,0.1 0.87,0.17 1.41,0.18 0.32,0 0.67,-0.1 0.99,-0.24 l 0.72,1.17 0.63,2.81 c 1.7,4.43 2.64,9.36 4.28,14.01 1.65,4.63 4.01,8.99 8.56,12.09 l 0.8,0.41 1.45,0.6 0.74,1.08 c -0.1,0.1 -0.19,0.16 -0.28,0.24 -2.1,1.85 -3.86,4.19 -4.84,6.37 0,0 -0.36,0.53 -0.45,0.6 0.1,0 -0.1,0 -0.25,0.1 h -0.26 -1.15 v -1.6 c 0,-0.85 -0.69,-1.54 -1.54,-1.54 -0.83,0 -1.53,0.69 -1.53,1.54 v 1.6 h -3.14 v -0.1 c -0.1,-0.58 -0.23,-1.11 -0.49,-1.45 -0.11,-0.15 -0.27,-0.28 -0.49,-0.44 -0.23,-0.16 -0.5,-0.36 -0.81,-0.54 -0.62,-0.37 -1.38,-0.74 -2.14,-0.94 -0.22,-0.1 -0.45,-0.13 -0.68,-0.19 -1.51,-7.71 -3.51,-15.14 -4.89,-22.81 -0.91,-3.72 -1.1,-7.72 -2.15,-11.55 0.43,0 0.82,0 1.11,0 h 0.11 l 1.45,-0.14 h 0.1 c 0.79,-0.25 1.46,-0.88 1.82,-1.7 z m -42.59,0.46 c -0.3,0.5 -0.64,1.06 -0.91,1.3 l -0.11,0.1 v 0.14 c -3.17,11.02 -3.69,23.31 -6.551,34.42 -0.416,0 -1.157,0.2 -1.96,0.48 -0.87,0.31 -1.78,0.73 -2.169,1.47 -0.3,0.57 -0.55,1.01 -0.728,1.37 -0.03,0 -0.03,0.1 -0.05,0.1 H 81.998 l 0.994,-2.18 c 3.102,-2.34 4.743,-5.61 6.339,-8.63 3.16,-7.98 4.984,-16.72 5.445,-25.71 h 0.113 0.139 l 0.144,0.1 c 0.191,0.1 0.244,0 0.344,0 h 0.345 c 0.259,0 0.571,-0.1 0.899,-0.17 0.325,-0.1 0.663,-0.19 0.969,-0.34 0.175,-0.1 0.295,-0.25 0.445,-0.38 l 1.546,0.36 2.32,-0.1 c 1.31,-0.34 2.04,-1.15 2.45,-2.09 z m 28.91,0.1 7.13,2.5 0.24,-0.76 0.18,0.15 -0.1,-0.55 0.14,-0.41 c 0,0 0.11,0.1 0.14,0.1 0.11,0.1 0.22,0.11 0.34,0.14 1.09,3.78 1.27,7.92 2.24,11.89 1.36,7.58 3.31,14.89 4.79,22.41 -0.5,-0.1 -1.07,-0.1 -1.73,0 -0.96,0.17 -1.46,0.18 -1.9,0.21 -0.1,-0.12 -0.16,-0.23 -0.24,-0.35 -0.47,-0.56 -0.81,-1.01 -1.3,-1.32 -0.2,-0.12 -0.42,-0.21 -0.65,-0.27 -4.32,-5.17 -3.57,-12.6 -5.72,-18.74 -0.37,-1.94 -0.76,-3.94 -1.29,-5.81 0.32,6.19 2.26,12.02 3.34,18 0.97,1.51 0.81,3.55 1.19,5.29 -0.24,0.61 -0.45,1.23 -0.73,1.83 -0.28,0.2 -0.53,0.44 -0.74,0.68 -0.17,0.2 -0.27,0.41 -0.35,0.64 h -0.2 l -0.1,0.1 c -0.1,0 -0.17,0.1 -0.26,0.1 -0.55,0.1 -1.26,0.1 -1.93,0.11 -0.4,0 -0.81,0.1 -1.14,0.18 -0.36,0.1 -0.68,0.19 -0.91,0.41 0,0 0,0 0,0.1 l -0.33,-6.45 -0.43,-0.43 -0.83,-9.49 v -0.53 c 1.9,-1.98 3.09,-4.41 3.19,-6.99 l -0.11,-0.1 c -0.75,2.41 -2.35,4.45 -3.39,6.73 l -0.13,-0.16 c 0.46,-3.35 -0.33,-6.69 -0.76,-9.84 -0.37,-2.67 -0.46,-5.17 0.63,-7.51 v 0 c 0.65,-0.67 1.22,-1.28 1.73,-1.82 z m -24.42,0 v 0 c 1.37,0 2.72,0.14 2.75,0.14 0,0 0,0 0.1,0 0.46,0.47 0.95,1 1.51,1.56 v -0.32 c 1.92,1.98 2.27,4.62 2.1,7.53 -0.17,3.28 -1.03,6.81 -0.97,9.9 l -0.44,0.93 -0.38,12.75 c -0.55,1.16 -0.42,2.45 -0.37,3.64 -0.1,-0.1 -0.13,-0.1 -0.2,-0.14 -0.35,-0.21 -0.84,-0.36 -1.63,-0.43 -0.66,-0.2 -1.38,-0.24 -2.11,0 -0.19,0.1 -0.37,0.1 -0.54,0.17 h -0.31 -0.22 l -2.01,-5.08 c 0.37,-2.47 0.81,-5.07 0.65,-7.6 -0.94,4.4 -2.41,9.71 -6.65,13.04 h -0.721 -0.217 c -0.452,-0.1 -0.888,-0.17 -1.323,-0.26 -0.03,0 -0.06,0 -0.07,0 2.861,-11.19 3.401,-23.41 6.521,-34.22 0.32,-0.32 0.52,-0.67 0.74,-1.04 l -0.24,0.64 1.06,-0.69 0.26,0.23 c 0,-0.64 1.38,-0.81 2.76,-0.82 z m 25.97,0.9 c -1.19,1.35 -3.02,2.1 -3.88,3.24 1.5,-0.17 2.86,-0.87 4.1,-1.67 1.29,0.59 2.8,0.97 4.31,0.64 -1.73,-0.27 -3.29,-0.91 -4.53,-2.21 z m -25.13,0.49 c -1.67,1.12 -3.55,1.67 -5.44,2.37 v 0.21 c 1.83,0.11 3.88,0 5.44,-0.86 1.13,1.13 2.86,1.4 4.16,1.78 v -0.11 c -1.08,-0.97 -2.97,-2.04 -4.16,-3.39 z m -0.1,2.37 c -0.76,6.42 -2.21,12.56 -2.75,19.13 l 2.21,-12.67 c 1.67,2.6 1.88,6.42 4.91,8.26 -0.97,-2.97 -2.76,-5.62 -4.16,-8.42 l -0.75,-0.1 c 0.16,-2.11 0.75,-3.99 0.54,-6.2 z m 28.19,0.85 c 1.73,6 4.05,12.09 6.96,17.75 -2.48,-5.5 -4.15,-11.92 -6.69,-17.75 z m -9.4,0.1 1.27,0.1 v 0.1 z m 0.17,0.39 1.08,0.1 v 0.1 z m -11.63,0.1 c 0.14,0.12 1.64,1.31 3.55,2.53 -0.9,-0.54 -2.09,-1.33 -3.55,-2.53 z m -0.38,0.22 -0.42,0.1 v 0 z m 11.83,0 1.25,0.14 v 0.1 z m -19.97,0.14 -2.69,8.57 -5.18,10.84 0.22,0.27 c 4.9,-5.13 5.33,-12.08 7.65,-18.23 z m 8.8,0.11 -1.01,0.2 c 0,0 0,-0.1 0,-0.1 0,0 0,0 0,0 z m 10.33,0 1.82,0.25 h 0.26 v 0.11 z m 7.67,0.26 -0.16,0.1 0.16,2.06 h 0.1 v -0.38 z m -8.03,0.36 2.45,0.55 v 0.17 z m 1.84,0 0.6,0.12 v 0 z m -11.62,0 -1.13,0.33 v -0.1 z m 11.41,0.76 0.85,0.25 v 0.1 z m -1.91,0.1 2.84,1.08 c 0,0.1 0,0.14 0,0.21 z m -9.19,0.1 -1.39,0.63 v -0.11 z m 0.88,0 -2.28,1.15 v -0.19 z m 8.14,0.29 3.08,1.29 c 0,0.17 0,0.33 0.1,0.5 0,0.14 0,0.29 0.1,0.43 l -3.05,-1.79 3,1.54 c 0,-0.1 0,-0.13 0,-0.18 0,-0.1 0,-0.14 0,-0.22 z m 2.44,0.12 0.53,0.17 v 0 z m -10.25,0.15 -2.68,1.75 c 0,-0.1 0,-0.18 0,-0.27 z m 7.39,0.31 3.69,2.06 c 0,0.14 0,0.27 0.1,0.4 z m -9.21,0.25 -0.81,0.46 v -0.1 z m 1.94,0.2 -2.93,2.4 c 0,-0.12 0,-0.23 0,-0.35 z m 7.47,0.1 3.62,2.38 c 0.1,0.28 0.1,0.55 0.13,0.83 0.1,0.27 0.1,0.54 0.13,0.82 0,-0.12 0,-0.22 -0.1,-0.31 l -4.28,-3.51 3.96,2.82 0.24,0.18 c 0,-0.15 0,-0.3 -0.1,-0.45 z m -8.8,0.35 -1.51,1.13 v -0.15 z m 1.8,0.12 -3.66,3.8 c 0,-0.21 0.1,-0.4 0.1,-0.61 z m 6.55,0.15 4.35,3.57 c 0,0.2 0.1,0.39 0.1,0.57 l -0.41,-0.36 z m -0.57,0.12 4.39,3.91 0.68,0.65 c 0,0.27 0.1,0.54 0.1,0.81 z m -7.12,0.14 -2.35,2.21 c 0,-0.1 0,-0.2 0,-0.3 z m 1.74,0.42 -4.78,7.38 c 0,-0.41 0.1,-0.83 0.11,-1.26 z m 5.5,0 5.1,5.3 c 0,0.26 0,0.53 0.1,0.8 l -0.45,-0.51 z m -0.8,0.2 5.94,7.8 c 0,0.39 -0.1,0.79 -0.13,1.18 z m -5.92,0 -3.19,3.79 c 0,-0.19 0.1,-0.38 0.1,-0.55 z m 5.44,0.2 6.66,9.9 0.13,0.21 0.22,2.55 z m 1.08,0 4.59,5.27 0.79,0.93 v 0.86 z m -4.69,0.12 -5.98,13.35 0.1,-2.72 z m -0.41,0.1 -5.47,9.87 V 153 l 0.43,-0.93 v -0.11 -0.9 z m 3.81,0.11 7.3,13.18 0.35,3.93 z m -5.02,0 -3.58,4.69 c 0,-0.22 0.1,-0.46 0.1,-0.7 z m 3.11,1.34 v 27.13 h -2.43 z m 0.33,0 1.16,12.57 1.33,14.51 h -2.49 z m 101.09,0.25 -0.86,1.32 -2.83,4.28 -6.45,-1.77 4.17,5.22 -3.68,5.58 6.27,-2.34 4.18,5.22 -0.33,-6.69 6.26,-2.36 -6.44,-1.77 -0.23,-5.13 z m -102.76,0.53 -6.48,24.6 c -0.11,-0.12 -0.21,-0.23 -0.32,-0.34 0.1,-1.65 -0.25,-3.34 0.32,-4.38 l 0.1,-0.11 v -0.4 z m 3.02,0.1 8.15,24.77 c -0.48,0.37 -0.95,0.8 -1.26,1.34 z m -3.47,0.1 -5.89,17.97 0.1,-3.15 z m 3.91,0 8.24,21.08 -0.1,-1.01 -7.8,-19.98 7.14,15.69 -0.1,-0.86 0.18,2.06 0.43,0.42 0.18,3.68 0.16,3.12 c -0.13,0.1 -0.25,0.17 -0.39,0.27 z m -4.3,0.1 -5.37,13.77 0.1,-2.08 z m 1,0.46 -5.25,25.64 H 116 c -0.15,-0.13 -0.32,-0.25 -0.5,-0.36 0,-0.29 -0.15,-0.59 -0.29,-0.86 0,-0.1 -0.1,-0.11 -0.11,-0.16 z m 2.69,0 6.75,25.64 h -1.5 z m 99.51,0.35 -0.27,1.19 -1.69,6.15 -0.8,-2.12 -0.22,-0.55 z m -101.54,0.1 -2.3,25.19 h -1.45 z m 1.69,0 5.22,25.2 h -1.48 z m -2.02,0.1 -3.74,25.11 h -1.47 z m 1.71,0.17 3.72,24.94 h -1.38 l -2.27,-24.32 z m -96.784,0.89 -0.02,1.58 -0.06,5.12 -6.392,1.99 6.338,2.14 -0.09,6.7 4.004,-5.37 6.331,2.16 -3.859,-5.46 4.006,-5.36 -6.393,1.98 -2.954,-4.19 z m 0.468,1.52 0.358,1.16 v 0 l 1.898,6.12 0.403,-1.18 0.535,-1.58 5.298,-1.64 -6.235,4.4 h 2.917 l 3.195,4.53 -1.267,-0.95 -4.845,-3.62 0.868,2.78 -3.319,4.45 0.509,-1.5 1.938,-5.71 v 0 0 0 0 0 l -1.841,-1.38 -0.48,-0.35 z m 188.136,0.43 1.34,0.86 4.99,3.29 -2.25,0.1 -0.6,0.1 z m 8.66,2.35 5.34,1.47 -7.59,0.35 v 0 l 0.95,-0.76 z m -114.87,1.19 c 0.11,4.1 1.89,8.03 4.53,11.1 -1.41,-3.71 -2.97,-7.32 -4.26,-11.1 z m 27.54,0.55 -2.58,6.95 c 1.3,-1.19 1.72,-2.75 2.32,-4.26 0.49,-0.76 0.76,-2.16 0.26,-2.69 z m 85.01,0.1 v 0 l -0.74,2.76 -5.22,1.96 1.23,-0.99 z m 0.1,0 2.41,1.54 0.26,5.53 -0.56,-1.47 z m -199.901,2.56 h 1.581 l 6.027,0.1 -1.87,1.32 -0.488,0.34 z m 67.217,2.37 c -0.211,0.58 -0.426,1.15 -0.65,1.72 -0.406,0.76 -0.812,1.54 -1.238,2.3 0.679,-1.31 1.313,-2.65 1.888,-4.02 z m 79.294,6.35 0.37,0.54 c -0.13,0.11 -0.26,0.22 -0.39,0.33 -2,1.81 -3.7,4.06 -4.5,5.89 0,0 -0.11,0.25 -0.48,0.57 0,0 -0.11,0.1 -0.22,0.1 -0.1,0 -0.22,0.1 -0.33,0.1 -0.23,0.1 -0.42,0.1 -0.43,0.1 h -1.7 v -0.27 h 1.09 c 0,0 0.71,0.1 1.09,-0.21 0.36,-0.27 0.68,-0.87 0.68,-0.87 0.93,-2.1 2.72,-4.46 4.82,-6.26 z m -62.64,0.2 c 0.44,0.61 0.94,1.41 1.34,2.2 0.44,0.85 0.69,1.41 0.77,1.58 -0.1,0.1 -0.18,0.17 -0.26,0.25 -0.34,0.35 -0.62,0.72 -0.85,1.08 -0.1,0.15 -0.17,0.29 -0.25,0.43 -0.21,-0.21 -0.53,-0.5 -0.82,-0.63 -0.46,-0.2 -1.31,-0.24 -1.31,-0.24 0,0 -0.67,0.28 -0.7,0.55 0,0.27 0,0.57 0.1,0.67 0.13,0.1 0.44,0.3 1.11,0.47 0.44,0.12 0.83,0.24 1.1,0.33 -0.11,0.31 -0.19,0.54 -0.21,0.63 v 0 0 c 0,0 -0.1,0.19 -0.16,0.38 0,0.1 -0.1,0.19 -0.14,0.24 0,0.1 -0.1,0 0,0 h -0.39 v 0 c -0.24,0 -0.47,-0.13 -0.55,-0.2 -0.31,-0.24 -0.72,-0.49 -1.39,-0.64 -0.1,0 -0.11,0 -0.16,0 0,0 -0.1,0 -0.14,0 -0.28,-0.1 -0.4,-0.1 -0.54,-0.1 0.14,-0.18 0.3,-0.28 0.39,-0.51 0,0 0,-0.1 0,-0.1 h -0.11 c 0.12,-0.35 0.56,-1.68 0.72,-2.17 h 0.12 c 0,-0.1 0.12,-0.36 0.12,-0.36 v -0.45 c 0.16,-0.29 0.37,-0.67 0.47,-0.86 0.22,-0.42 0.73,-1.18 1.2,-1.82 0.29,-0.4 0.4,-0.56 0.54,-0.75 z m 63.13,0.5 v 0 l 1.62,2.37 c -0.48,0.77 -0.74,1.67 -0.69,2.64 v 0.17 0.1 h -0.1 -0.13 c -2.5,0 -4.52,2.03 -4.52,4.52 0,2.49 2.02,4.52 4.52,4.52 h 0.65 c 0,0.2 -0.1,0.42 -0.1,0.63 0,2.49 2.02,4.52 4.51,4.52 2.49,0 4.52,-2.03 4.52,-4.52 0,-0.23 -0.1,-0.51 -0.1,-0.73 h 0.77 c 2.48,-0.13 4.4,-2.25 4.27,-4.74 -0.12,-2.49 -2.24,-4.4 -4.73,-4.28 -0.19,0 -0.4,0.1 -0.59,0.1 v 0.11 c 0.2,-0.1 0.43,-0.1 0.65,-0.1 2.4,-0.12 4.44,1.72 4.57,4.13 0.11,2.4 -1.73,4.45 -4.13,4.57 h -0.84 -0.11 v 0.1 c 0,0.25 0.12,0.58 0.12,0.81 0,2.39 -1.95,4.34 -4.37,4.34 -2.4,0 -4.36,-1.95 -4.36,-4.34 0,-0.25 0,-0.49 0.1,-0.71 v -0.11 h -0.12 -0.73 c -2.41,0 -4.35,-1.94 -4.35,-4.34 0,-2.41 1.94,-4.36 4.35,-4.36 h 0.12 0.1 0.13 0.1 v -0.11 -0.15 -0.18 c 0,-0.87 0.18,-1.68 0.57,-2.38 l 0.23,0.33 -0.1,0.1 c -0.3,0.59 -0.46,1.26 -0.43,1.98 0,0.35 0.13,0.66 0.23,0.98 -0.32,-0.1 -0.64,-0.18 -0.99,-0.18 -2.17,0 -3.95,1.77 -3.95,3.95 0,2.17 1.78,3.94 3.95,3.94 0.61,0 1.14,-0.23 1.65,-0.47 -0.24,0.51 -0.47,1.05 -0.47,1.65 0,2.17 1.77,3.94 3.94,3.94 2.18,0 3.95,-1.76 3.95,-3.94 0,-0.62 -0.22,-1.15 -0.48,-1.66 0.54,0.21 1.08,0.42 1.68,0.39 2.18,-0.11 3.87,-1.98 3.75,-4.13 -0.12,-2.19 -1.96,-3.86 -4.14,-3.75 -0.18,0 -0.39,0 -0.61,0.1 l -1.03,-5.31 c 0.75,0.16 1.53,0.27 2.04,0.44 l 0.26,0.1 0.87,-0.74 c 0.21,0.32 1.93,2.92 2.44,4.05 0,0 1.31,3.04 2.16,3.91 1.18,1.22 3.2,1.49 3.2,1.49 0,0 -2.02,0.27 -3.2,1.47 -0.85,0.88 -2.16,3.92 -2.16,3.92 -1.81,4.08 -4.35,7.91 -8.73,7.91 -4.36,0 -9.36,-5.05 -11.17,-9.13 0,0 -0.31,-0.61 -0.68,-0.88 -0.37,-0.26 -1.08,-0.19 -1.08,-0.19 h -1.09 v -0.24 h 1.7 c 0,0 0.19,0 0.42,0.1 0.12,0 0.24,0.1 0.34,0.1 0.1,0 0.19,0.1 0.22,0.1 0.37,0.32 0.47,0.57 0.47,0.57 0.1,0.14 0.26,0 0.19,-0.1 0,0 -0.14,-0.31 -0.53,-0.65 -0.1,-0.1 -0.18,-0.1 -0.29,-0.13 -0.12,0 -0.25,-0.1 -0.36,-0.1 -0.24,-0.1 -0.46,-0.1 -0.46,-0.1 h -1.7 v -0.64 h 0.31 c 0,0 1.49,-0.11 2.23,0.2 0.14,0.1 0.29,0.18 0.43,0.32 l 0.62,0.85 c 0.8,1.82 2.39,4.15 4.29,6.02 1.91,1.89 4.12,3.32 6.16,3.32 2.04,0 3.68,-0.92 5.01,-2.29 1.33,-1.37 2.34,-3.19 3.14,-5 0,0 1.02,-2.57 1.88,-3.9 0.17,-0.26 0.34,-0.32 0.53,-0.5 h 0.1 c 0,0 0.87,-0.53 2.01,-0.93 v -0.19 h -0.79 c 0,0 -1.17,0.23 -2.01,1.51 -0.89,1.37 -1.9,3.93 -1.9,3.93 -0.79,1.8 -1.8,3.6 -3.1,4.95 -1.3,1.33 -2.89,2.23 -4.87,2.23 -1.95,0 -4.13,-1.4 -6.02,-3.26 -1.89,-1.86 -3.48,-4.19 -4.26,-5.97 l -0.26,-0.36 c -0.25,-0.5 -0.53,-1 -0.79,-1.19 -0.53,-0.4 -2.39,-0.27 -2.39,-0.27 h -0.31 v -4.11 h 1.7 c 0,0 0.21,0 0.45,-0.1 0.11,0 0.25,-0.1 0.36,-0.1 0.11,0 0.21,-0.1 0.29,-0.12 0.39,-0.34 0.53,-0.65 0.53,-0.65 0.78,-1.79 2.47,-4.03 4.47,-5.82 0.12,-0.1 0.24,-0.21 0.36,-0.31 z m -27.09,0.9 v 0 c 0.77,0 1.2,0.1 1.56,0.32 0.37,0.22 0.69,0.59 1.13,1.16 0,0 0,0 0,0 h -0.17 l 0.11,0.37 0.58,1.89 c -0.25,0.1 -0.49,0.17 -0.63,0.17 -0.95,0 -3,-0.81 -3,-0.81 0,0 0.4,0.85 1,1.44 0.61,0.62 1.56,0.66 2.07,0.75 0.24,0 0.62,-0.14 0.94,-0.32 l 0.48,1.54 h 0.25 c 0,0.11 -0.1,0.17 -0.16,0.25 0,0 -0.1,0.1 -0.11,0.1 v -0.1 l -0.39,0.12 c 0,0 -0.6,0.17 -1.28,0.28 -0.18,0 -0.38,0 -0.54,0 h -0.34 c -0.1,0 -0.23,-0.1 -0.35,-0.1 -0.15,-0.1 -0.26,-0.13 -0.26,-0.13 l -0.1,0.12 c -0.65,-0.18 -1.27,-0.55 -1.66,-0.97 0,0 0,-0.1 -0.1,-0.1 l -1.11,-2.77 v -0.15 c 0,0 0,0.1 0,0.1 l -0.46,-1.15 0.15,-0.67 c 0,-0.11 0.1,-0.22 0.17,-0.3 0.52,-0.61 1.45,-1.15 2.19,-1.16 z m 39.72,0.75 v 0.3 c 0.47,0.79 0.88,1.62 1.24,2.44 0,0 0.49,1.24 1.08,2.45 0.1,0.14 0.26,0 0.17,-0.1 -0.58,-1.2 -1.07,-2.44 -1.07,-2.44 -0.4,-0.9 -0.85,-1.81 -1.37,-2.66 z m -33.33,1.1 v 0 c 0.28,0 0.53,0 0.77,0.1 v -0.1 c 0.5,0.1 0.94,0.18 1.41,0.31 0.67,0.17 1.39,0.52 1.97,0.87 0.15,0.1 0.28,0.17 0.4,0.25 l -0.75,-0.4 c -0.97,-0.18 -2.01,-0.28 -3.02,-0.28 -1,0 -1.97,0.1 -2.8,0.28 1.51,1.19 3.94,-0.16 5.56,0.76 1.29,0.11 0.97,1.51 1.55,2.21 0.18,0 0.29,0.1 0.39,-0.11 0.1,-0.15 0.13,-0.3 0.15,-0.44 v 0.28 c 0,0.15 -0.12,0.22 -0.2,0.27 -0.23,0.11 -0.85,0.4 -1.1,0.51 -0.11,0 -0.14,0 -0.25,0.1 -0.31,0.1 -0.6,0.15 -0.76,0.1 -0.42,-0.15 -1.07,-0.22 -1.78,-0.3 -0.72,-0.1 -1.48,-0.14 -1.91,-0.22 -0.48,-0.1 -0.79,-0.1 -1.03,-0.1 -0.1,-0.8 -0.32,-1.63 -0.5,-2.29 -0.15,-0.5 -0.34,-1.02 -0.58,-1.52 0.35,0 0.8,-0.1 1.59,-0.21 0.34,-0.1 0.64,-0.1 0.91,-0.1 z m -37.75,0.12 v 0.1 c 1.59,0 2.27,0.19 2.61,0.38 0.16,0.11 0.26,0.22 0.38,0.36 0.11,0.15 0.24,0.33 0.45,0.5 0.18,0.17 0.38,0.37 0.54,0.56 0.1,0.11 0.18,0.23 0.24,0.33 0.18,0.3 0.21,0.51 0.17,0.6 l -0.1,0.1 c -0.1,0.1 -0.15,0.16 -0.14,0.15 0,0 0,0 -0.1,0.1 -0.1,-0.13 -0.12,-0.25 -0.12,-0.25 0,0 -2.43,-1.95 -3.55,-2.05 h -0.3 c -0.79,0 -1.94,0.38 -2.3,1.1 -0.22,0.46 -0.65,0.51 -0.76,0.63 -0.46,0.52 -0.38,0.97 -0.27,1.23 -0.11,0 -0.22,-0.1 -0.36,-0.1 h -0.21 c 0.1,-0.32 0.21,-0.81 0.71,-1.62 0.16,-0.25 0.33,-0.51 0.54,-0.74 0,0 0,0 0,0 0.62,-0.71 1.44,-1.26 2.54,-1.26 z m 67.93,0.16 0.1,0.38 c 0.12,0.36 0.21,0.75 0.22,1.15 l 0.1,0.48 v -0.4 c 0,-0.57 -0.17,-1.12 -0.39,-1.61 z m -39.71,0.1 v 0 c 0,0.53 0.1,1.05 0.2,1.47 0,0.1 0.1,0.2 0.1,0.3 l -1.99,0.6 -1.57,0.71 -1.49,1.01 c 0,0 -0.81,0.85 -0.88,0.98 0,0 -0.1,0.1 -0.1,0.16 -0.13,0 -0.28,-0.1 -0.42,-0.1 -0.16,0 -0.35,-0.1 -0.5,-0.11 -0.35,-0.1 -0.55,-0.1 -0.66,-0.1 -0.1,0 -0.1,0 -0.16,-0.1 v -0.34 c 0.1,-0.31 0.22,-0.79 0.52,-1.39 0.26,-0.53 0.81,-1.03 1.4,-1.45 0.58,-0.42 1.16,-0.75 1.54,-1.13 0.1,-0.1 0.28,-0.17 0.58,-0.25 0.3,-0.1 0.66,-0.11 1.06,-0.15 0.79,-0.1 1.68,-0.1 2.33,-0.16 z m -41.238,0.17 c 0.28,0 0.401,0 0.569,0.1 0.172,0 0.396,0.12 0.78,0.22 0.243,0.1 0.598,0.1 1.036,0.1 h 1.453 1.02 c 0,0.1 -0.1,0.1 -0.1,0.14 v 0 c -0.19,0.37 -0.37,0.72 -0.51,1 v 0 c -0.32,0 -1.02,-0.1 -1.783,0 -0.321,0 -0.627,0 -0.874,0 -0.978,0.1 -1.482,0.31 -1.679,0.45 -0.206,0.13 -1.553,0.36 -1.553,0.36 l -1.508,1.46 c -0.09,0 -0.205,0 -0.24,-0.1 -0.257,-0.1 -0.611,-0.16 -0.929,-0.23 -0.137,0 -0.248,-0.1 -0.335,-0.1 0.04,-0.1 0.09,-0.21 0.168,-0.37 0.06,-0.1 0.16,-0.3 0.228,-0.43 h -0.05 c 0.158,-0.3 0.334,-0.61 0.574,-1.07 0.222,-0.41 0.998,-0.87 1.81,-1.15 0.581,-0.2 1.179,-0.34 1.559,-0.41 l -0.03,0.1 h 0.15 0.159 z m 61.758,0.14 v 0 c 0.51,0 0.89,0.4 0.89,0.89 v 9.26 c 0,0.5 -0.38,0.9 -0.89,0.9 -0.49,0 -0.88,-0.4 -0.88,-0.9 v -9.28 c 0,-0.5 0.39,-0.91 0.88,-0.91 z m 11.86,0.24 0.1,0.1 c 1.26,1.64 2.87,2.49 4.27,3.36 l 0.13,0.13 v -0.34 c 0.1,0.1 0.2,0.14 0.28,0.21 v 0.1 l -0.1,0.1 v 0 c 0,0 0.1,0 0.1,0.1 0.13,0.12 0.31,0.34 0.49,0.54 0.18,0.21 0.38,0.43 0.66,0.6 0.1,0.1 0.3,0.17 0.57,0.17 0.29,0 0.56,-0.14 0.73,-0.35 l 0.12,-0.11 0.75,-1.98 c 0.1,0 0.21,-0.1 0.36,-0.1 1.92,-0.1 3.55,1.37 3.65,3.3 0.1,1.92 -1.39,3.56 -3.3,3.65 -0.67,0 -1.31,-0.13 -1.87,-0.44 l -0.78,-0.43 0.48,0.76 c 0.32,0.53 0.52,1.17 0.52,1.85 0,1.93 -1.55,3.47 -3.48,3.47 -1.92,0 -3.48,-1.55 -3.48,-3.47 0,-0.67 0.2,-1.33 0.53,-1.86 l -0.33,-0.32 c -0.53,0.35 -1.14,0.54 -1.84,0.54 -1.93,0 -3.49,-1.57 -3.49,-3.48 0,-1.93 1.56,-3.48 3.49,-3.48 0.42,0 0.83,0.1 1.2,0.21 l 0.49,0.19 -0.19,-0.49 c -0.15,-0.39 -0.27,-0.79 -0.27,-1.19 0,-0.46 0.13,-0.86 0.27,-1.26 z m 4.49,3.57 z m -22.57,-2.84 c 0,0 0.1,0.1 0.12,0.1 0.19,0.15 0.33,0.29 0.37,0.34 0.1,0.1 0.22,0.45 0.3,0.82 -0.14,-0.46 -0.47,-0.87 -0.79,-1.24 z m 56.82,0.79 c -0.1,0.21 -0.16,0.38 -0.26,0.58 -0.12,0.19 -0.22,0.36 -0.36,0.52 l 7.77,9.84 c 0.13,-0.25 0.22,-0.5 0.36,-0.73 0.12,-0.23 0.28,-0.44 0.42,-0.66 -0.85,-0.84 -1.55,-1.71 -2.45,-2.71 l 1.9,-3.39 c 1.2,0.14 2.37,0.4 3.63,0.67 0.21,-0.45 0.4,-0.88 0.63,-1.3 0.24,-0.43 0.52,-0.81 0.78,-1.22 z m -108.32,0.3 v 0 0.1 c 0,0 0,0.19 0,0.38 h -0.1 c 0,0.1 0,0.17 0,0.26 0,0.11 0,0.23 -0.1,0.34 0,0 0,0.14 0,0.21 0,0 -0.11,0.1 -0.24,0.14 -0.15,0.1 -0.34,0.14 -0.54,0.21 -0.4,0.14 -0.871,0.27 -1.304,0.34 l 0.06,0.38 c 0.05,0 0.09,0 0.127,0 h 0.104 0.04 0.04 0.03 c 0.413,-0.1 0.843,-0.18 1.203,-0.3 0.23,-0.1 0.43,-0.16 0.6,-0.25 0,0 0.1,0 0.1,-0.1 -0.1,0.6 -0.24,1.72 -0.16,2.74 0,0.45 0.14,0.9 0.31,1.31 h -5.515 c -0.04,0 -0.04,-0.1 -0.06,-0.1 -0.375,-0.69 -0.329,-1.85 -0.264,-2.39 0.05,-0.42 0.182,-0.77 0.237,-0.91 0.92,0.21 1.897,0.17 2.567,0.1 0.253,0 0.442,-0.1 0.591,-0.1 h -0.06 l -0.06,-0.13 -0.05,-0.1 v -0.13 l 0.03,-0.1 c -0.121,0 -0.3,0.1 -0.566,0.1 -0.64,0.1 -1.589,0.1 -2.404,-0.11 -0.101,0 -0.269,0 -0.464,-0.1 0.684,-0.27 0.334,-0.83 2.219,-0.95 0.958,-0.1 2.719,-0.56 3.619,-0.93 z m 7,0.1 c 0.38,0 1.07,0.64 1.83,0.86 0.82,0.24 1.99,-0.64 2.66,-0.77 0.6,-0.11 0.91,0.21 1.28,0.49 -0.11,0.1 -0.23,0.13 -0.36,0.21 -0.2,0.1 -0.39,0.21 -0.56,0.3 -0.17,0.1 -0.33,0.14 -0.34,0.14 -0.76,0.22 -2.47,0.29 -3.47,0.36 -0.59,0 -1.13,-0.1 -1.58,-0.22 -0.17,-0.1 -0.33,-0.13 -0.48,-0.19 0.17,-0.26 0.69,-1.08 0.96,-1.17 h 0.1 z m 6.65,0.18 v 0 0 c 0.66,0.37 1.22,0.92 1.76,1.71 0.54,0.81 0.47,2.57 0,3.75 -0.37,0.89 -2.72,2.02 -2.72,2.02 0,0 1.19,-2.47 1.07,-3.44 -0.1,-0.85 -0.63,-1.31 -1.11,-1.78 -0.39,-0.4 -1.18,-0.85 -1.18,-0.85 0,0 0.81,-0.75 1.35,-0.96 0,0 0,0 0,0 h -0.14 c 0,0 0.64,0.75 1.03,1.21 0.81,0.91 0.96,1.8 0.81,2.4 -0.33,1.28 -0.83,2.26 -0.83,2.26 0,0 0.58,-0.62 0.89,-1.38 0.55,-1.29 0.3,-2.07 0.15,-2.53 -0.36,-1.1 -1.65,-2.09 -1.65,-2.09 v 0 c 0,0 0,0 0,-0.1 0.4,-0.14 0.57,-0.33 0.59,-0.37 0,0 0,0 0,0 z m 24.27,0.13 c 0.17,0.34 0.35,0.68 0.57,1 -0.77,0.18 -2.01,0.55 -2.75,0.92 -0.76,0.37 -1.32,1.19 -2.79,0.95 -0.1,0 -0.18,0 -0.27,-0.1 0,-0.1 0.11,-0.15 0.19,-0.22 0.26,-0.22 0.56,-0.47 0.76,-0.63 0.44,-0.33 1.21,-0.73 1.62,-0.84 0.4,-0.1 1.48,-0.7 1.64,-0.84 0.17,-0.14 0.57,0 1.02,-0.27 z m -67.405,0.81 v 0 h 1.923 c 0,0.1 -0.03,0.18 -0.04,0.26 h -1.715 c -0.367,0 -1.212,0 -1.816,0.56 -0.09,0.1 0.06,0.22 0.133,0.14 0.536,-0.52 1.306,-0.49 1.683,-0.49 h 1.679 c -0.162,1 -0.377,1.95 -0.73,2.83 l -0.241,0.59 2.439,0.28 0.235,-0.77 c 0.958,-0.56 2.059,-1.27 3.047,-2.16 0.03,0 0.809,-0.33 1.592,-0.69 0.07,0 0.121,-0.1 0.191,-0.1 H 92.34 c -0.08,0.5 -0.224,1.86 0.221,3.45 0.06,0.23 0.143,0.44 0.231,0.66 H 71.21 c -1.082,-0.1 -1.823,-1.18 -1.823,-1.18 0,0.97 1.248,1.72 1.823,1.72 h 21.849 c 0.129,0.23 0.269,0.45 0.428,0.63 H 72.123 c -0.377,0 -1.15,0 -1.686,-0.47 h -0.08 v 0 c -0.08,0 -0.117,0.11 -0.06,0.16 0.605,0.58 1.449,0.55 1.816,0.55 h 21.549 c 0.07,0.1 0.156,0.15 0.237,0.23 H 71.948 c -1.755,0 -3.191,-1.37 -3.298,-3.1 0.107,-1.73 1.543,-3.1 3.298,-3.1 z m 2.846,0 h 4.213 c -0.289,0.12 -0.48,0.21 -0.62,0.26 h -3.636 c 0,-0.1 0.04,-0.17 0.05,-0.26 z m 6.543,0 H 92.16 v 0 c 0.04,0.13 0.08,0.2 0.14,0.25 H 80.761 c 0.153,-0.1 0.335,-0.15 0.459,-0.22 0.05,0 0.07,0 0.113,-0.1 z m 35.356,0 h 1.27 0.33 1.48 0.4 2.5 0.32 2.56 0.38 1.42 0.33 1.52 0.38 1.27 c 0,0.1 -0.1,0.18 -0.1,0.26 h -13.84 c -0.1,-0.1 -0.14,-0.17 -0.22,-0.26 z m 37.72,0 h 3.21 v 0.26 h -3.4 c 0,-0.1 0.14,-0.1 0.16,-0.18 0,0 0,-0.1 0,-0.1 z m -52.57,0.17 c 0,0 1.14,0.1 1.68,0.3 0.54,0.21 1.44,0.71 1.44,0.71 0,0 -0.26,0.33 -0.36,1 -0.1,0.68 -0.54,1.05 -0.44,2.07 0.1,1 1.42,1.99 1.86,2.38 0,0 -0.81,0.12 -2.13,-0.12 -1.08,-0.21 -2.19,-1.78 -2.28,-3.25 -0.11,-1.4 0.23,-3.09 0.23,-3.09 z m -60.437,0 -5.73,3.72 c -0.563,0.36 -1.134,0.83 -1.584,1.32 -1.488,1.71 -0.834,3.9 0.265,5.6 0.597,0.92 1.419,1.76 2.455,2.17 1.954,0.81 3.402,-0.16 5.036,-1.14 l 4.996,-3.23 c -0.145,-0.16 -0.289,-0.36 -0.402,-0.54 -0.118,-0.17 -0.232,-0.39 -0.322,-0.59 l -4.256,2.75 c -0.689,0.45 -2.289,1.48 -3.071,1.62 -1.538,0.29 -2.469,-0.1 -3.31,-1.39 -0.403,-0.62 -0.566,-1.27 -0.432,-1.99 0.165,-0.84 0.526,-1.22 1.132,-1.8 0.655,-0.59 1.819,-1.32 2.592,-1.8 l 3.989,-2.59 c -0.253,-0.32 -0.523,-0.65 -0.751,-1 -0.22,-0.34 -0.412,-0.73 -0.607,-1.11 z m 51.302,0 v 0 c 0,0 0.652,0.18 1.091,0.3 h -0.03 v 0 c 0,0 -0.1,1.38 -0.04,2.16 0.07,0.77 0.705,1.55 0.705,1.55 0,0 -0.267,-1.05 -0.267,-1.62 0,-0.56 0.09,-1.93 0.101,-1.98 0.438,0.1 1.452,0.29 1.452,0.29 0,0 -0.233,0.53 -0.302,1.12 -0.06,0.56 -0.146,1.76 0.302,2.59 0.913,1.66 2.563,1.92 2.563,1.92 0,0 -2.481,0.27 -3.368,-0.1 -0.893,-0.38 -1.722,-1.46 -2.057,-2.66 -0.529,-1.92 -0.169,-3.62 -0.169,-3.62 z m 10.515,0.18 c 0,0 -0.51,1.04 -0.51,1.88 0,1.49 0.1,1.99 0.41,2.6 0.25,0.52 1.58,1.25 1.58,1.25 0,0 -1.02,-0.78 -1.18,-1.98 -0.17,-1.22 0.1,-2.71 0.37,-3.42 z m -28.504,0.1 h 3.278 c -0.981,0.91 -2.163,1.66 -3.161,2.24 l -0.166,0.1 -0.1,0.34 -0.468,-0.1 c 0.282,-0.83 0.468,-1.69 0.614,-2.57 z m 42.334,0 h 13.63 c 0,0.13 -0.1,0.26 -0.1,0.38 -0.1,0.19 -0.1,0.37 -0.1,0.54 0,0.16 0.1,0.33 0.23,0.44 0.14,0.12 0.3,0.19 0.45,0.22 0,0.17 0,0.41 0.1,0.94 0.1,0.5 0.18,1.07 0.39,1.6 h -14.48 c 0.25,-0.63 0.4,-1.36 0.4,-2.06 0,-0.73 -0.1,-1.42 -0.43,-1.93 0,0 -0.1,-0.1 -0.1,-0.13 z m 37.21,0 h 3.36 v 4.12 h -3.43 c 0.22,-0.62 0.4,-1.35 0.37,-2.22 0,-0.87 -0.2,-1.59 -0.3,-1.9 z m -47.44,0.1 c 0,0 0.11,0 0.27,0.1 0.16,0.1 0.37,0.14 0.62,0.22 0.48,0.16 1.12,0.32 1.83,0.26 0.86,-0.1 2.29,-0.11 3.27,-0.31 0.1,0.1 0.73,0.44 1.04,0.74 0.48,0.49 0.94,0.88 1.01,1.6 0,0.25 -0.11,0.84 -0.29,1.44 h -9.97 c -0.1,-0.13 -0.1,-0.27 -0.11,-0.39 -0.1,-0.45 0,-0.73 0.12,-1.01 0.1,-0.28 0.25,-0.57 0.31,-0.96 0,-0.29 0.11,-0.51 0.17,-0.65 0.19,0 0.36,0 0.5,-0.1 0.24,0 0.32,-0.17 0.4,-0.28 0.1,-0.11 0.15,-0.24 0.21,-0.35 0.1,-0.15 0.1,-0.2 0.13,-0.29 0.13,0 0.31,-0.1 0.49,-0.1 z m 33.48,0.17 c 0.1,0.1 0.1,0.13 0.16,0.19 0.49,0.54 1.2,0.95 1.99,1.16 0.1,0.1 0.1,0.14 0.16,0.24 0.17,0.28 0.33,0.65 0.34,0.9 0,0.47 -0.1,0.97 -0.16,1.38 h -8.09 c -0.3,-0.72 -0.31,-1.63 -0.31,-1.96 1.65,0.18 2.6,-0.76 3.05,-0.98 0.7,-0.36 2.26,-0.81 2.86,-0.93 z m 13.33,0.1 v 0 c 0.1,0.24 0.23,0.67 0.26,1.52 0,1.04 -0.25,1.83 -0.55,2.52 -0.13,0.28 -0.62,0.68 -1.09,0.95 h -0.1 c 0.24,-0.42 0.43,-0.65 0.59,-1.18 0.31,-0.99 0,-2.17 -0.13,-2.59 -0.1,-0.37 -0.21,-0.52 -0.36,-0.73 h 0.15 0.13 c 0,0 0.1,0 0.13,-0.1 0.14,-0.1 0.27,-0.12 0.41,-0.18 0.1,0.17 0.2,0.45 0.31,0.91 0.16,0.78 0.1,1.89 0.1,1.89 0,0 0.37,-1.21 0.27,-1.91 -0.1,-0.45 -0.22,-0.82 -0.34,-1.05 0.1,0 0.13,-0.1 0.2,-0.1 z m -6.86,0.1 v 0 c 0.24,0 0.52,0 0.87,0.1 0.49,0.1 1.24,0.15 1.95,0.23 0.71,0.1 1.4,0.17 1.63,0.27 h 0.37 c 0,0.1 0.37,0.54 0.43,0.84 0.1,0.44 0.36,1.55 0.14,2.25 0,0 0,0 0,0.1 h -6.5 c 0,-0.1 0.1,-0.16 0.1,-0.23 0.23,-0.83 0.2,-1.97 0.17,-2.51 0.17,-0.1 0.33,-0.14 0.47,-0.24 0.23,-0.18 0.41,-0.45 0.42,-0.76 z m -47.613,0.32 h 0.03 z m 112.793,0 4.12,0.59 -1.49,2.66 z m -66.75,0.83 v 0 c 0,0.43 0.1,1.42 -0.1,2.12 -0.27,0.91 -1.15,1.66 -1.89,2.1 -0.35,0.22 -0.42,0.14 -0.65,0.17 0.23,-0.4 0.44,-0.76 0.62,-1.07 0.36,-0.61 0.45,-1.42 0.42,-2.17 0,-0.37 -0.2,-0.69 -0.37,-0.98 h 0.14 0.3 c 0.46,0 1,-0.1 1.51,-0.17 z m -13.3,0.16 h 0.26 c 0.11,0 0.15,0 0.25,0.1 0.14,0 0.3,0.1 0.46,0.11 0,0.49 0,1.37 0.12,1.77 0.2,0.57 0.8,1.15 0.8,1.15 0,0 -0.4,-1.17 -0.44,-1.75 0,-0.26 0.1,-0.73 0.1,-1.04 0.15,0.1 0.27,0.1 0.35,0.11 0,0.35 -0.1,1.52 0.46,2.5 0.29,0.55 0.58,0.86 0.9,1.06 0.32,0.19 0.63,0.24 0.93,0.33 0.34,0.1 0.44,0.1 0.73,0.1 -0.35,0.24 -0.81,0.46 -1.26,0.37 -0.46,-0.1 -1.14,-0.45 -1.73,-0.88 -0.58,-0.45 -1.11,-0.97 -1.29,-1.26 -0.32,-0.5 -0.51,-1.25 -0.58,-1.88 -0.1,-0.42 -0.1,-0.55 -0.1,-0.74 z m 12.44,0.27 -0.31,0.14 c 0,0 0,1.27 -0.1,1.68 -0.1,0.4 -0.4,1.17 -0.4,1.17 0,0 0.7,-1.02 0.8,-1.61 0.1,-0.62 0,-1.38 0,-1.38 z m 42.27,0.73 h 0.26 c -0.62,0.27 -1.05,0.47 -1.24,0.58 0.54,-0.37 0.98,-0.58 0.98,-0.58 z m 20.62,1.14 c -0.98,0.47 -1.99,1.4 -2.63,2.3 -2.12,2.97 -2.25,6.57 1.31,9.11 2.78,1.98 6.15,1.05 8.23,-1.87 0.65,-0.91 1.18,-1.99 1.34,-3.12 l -0.96,-1.13 -0.21,0.13 c 0.15,1.03 -0.12,2.31 -0.72,3.16 -1.48,2.1 -3.94,2.07 -6.27,0.43 -2,-1.44 -3.52,-3.88 -1.91,-6.14 0.64,-0.89 1.77,-1.37 2.86,-1.37 l 0.14,-0.2 c -0.39,-0.45 -0.8,-0.85 -1.18,-1.3 z m -90.39,0.78 v 0 h 15.09 c 0.13,0.19 0.32,0.41 0.53,0.62 h -16.36 c 0.28,-0.18 0.53,-0.4 0.73,-0.63 z m -20.38,0 h 5.4 c 0.1,0.14 0.17,0.28 0.27,0.41 0.1,0.1 0.11,0.16 0.16,0.22 h -5.096 c -0.243,-0.16 -0.493,-0.36 -0.734,-0.63 z m 8.48,0 h 9.45 c -0.1,0.24 -0.19,0.44 -0.27,0.63 h -8.58 c -0.11,-0.1 -0.22,-0.21 -0.33,-0.33 -0.1,-0.1 -0.18,-0.2 -0.27,-0.3 z m 30.08,0 h 7.56 c -0.1,0.17 -0.24,0.41 -0.37,0.63 h -6.22 c -0.21,-0.1 -0.39,-0.11 -0.53,-0.19 -0.14,-0.1 -0.28,-0.22 -0.44,-0.44 z m 10.36,0 h 6.57 c -0.11,0.22 -0.23,0.44 -0.34,0.63 h -6.72 c 0.18,-0.19 0.35,-0.4 0.49,-0.63 z m 8.62,0 h 3.63 v 0.63 h -4.09 c 0.18,-0.18 0.33,-0.36 0.42,-0.6 0,0 0,0 0,0 z m -56.448,0.84 h 4.918 c 0.1,0.1 0.16,0.16 0.24,0.24 h -4.547 c -0.144,0 -0.341,-0.1 -0.611,-0.24 z m 8.218,0 h 8.26 c -0.1,0.14 -0.1,0.16 -0.1,0.24 h -1.02 -0.33 -2.19 -0.35 -2.09 -0.35 -1.56 c -0.1,-0.1 -0.17,-0.15 -0.27,-0.24 z m 10.03,0 h 16.9 c 0.1,0.1 0.16,0.16 0.26,0.24 h -0.2 -1.89 -0.38 -1.88 -0.32 -1.76 -0.4 -3.12 -0.34 -3.04 -0.41 -1.84 -0.33 -1.63 l 0.1,-0.1 c 0.1,-0.1 0.18,-0.13 0.28,-0.18 z m 22.52,0 h 3.76 c -0.1,0.11 -0.1,0.14 -0.14,0.24 h -1.37 -0.36 -2.09 z m 6.37,0 h 6.8 c 0,0.1 -0.1,0.17 -0.13,0.24 h -6.93 c 0.1,-0.1 0.17,-0.16 0.26,-0.24 z m 8.61,0 h 4.33 v 0.25 h -4.66 c 0.12,-0.1 0.23,-0.16 0.33,-0.24 z m -80.734,0.77 h 19.376 v 2.32 h -2.158 v 3.54 h 0.07 v -3.46 h 2.157 v -2.39 h 0.712 v 2.84 h -2.157 v 3.03 h 1.381 v 3.79 h -8.39 v -3.74 h 1.619 v -3.04 h -5.055 v 3.04 h 0.841 v 3.74 H 72.61 v -3.74 h 2.158 v -3.01 h 0.03 v -0.5 H 72.68 v 0.1 h 2.054 v 0.41 h -2.125 z m 32.504,0.37 h 2.18 l -0.54,1.39 0.3,0.12 0.58,-1.51 h 2.15 l -0.46,1.42 -2.79,1.09 -1.58,-2.15 z m 5.03,0 h 2.24 l -0.79,3 0.31,0.1 0.81,-3.1 h 0.82 l -0.1,0.14 0.29,-0.14 h 0.92 l -0.59,2.91 -2.68,1.13 -1.83,-2.36 z m 4.89,0 h 1.93 l -0.57,3.86 h 0.32 l 0.57,-3.86 h 1.9 l -0.34,3.59 -2.52,0.98 -1.92,-1.51 z m 4.56,0 h 3.12 v 3.94 h 0.34 v -3.94 h 3.2 l 0.33,3.6 -3.71,1.92 -3.6,-1.94 z m 7.06,0 h 1.81 l 0.6,3.95 h 0.31 l -0.59,-3.95 h 1.94 l 0.64,3.06 -1.92,1.51 -2.45,-0.95 z m 4.44,0 h 1.95 l 0.83,3.1 0.31,-0.1 -0.8,-3 h 0.91 c 0.38,0.22 0.77,0.4 1.14,0.46 0.12,0 0.24,0 0.35,0 l 0.39,1.21 -1.82,2.35 -2.66,-1.13 z m 6.13,0 h 0.91 l 0.59,1.51 0.3,-0.12 -0.54,-1.39 h 2.18 l 0.17,0.36 -1.6,2.15 -2.78,-1.09 -0.32,-0.96 c 0.42,-0.1 0.8,-0.26 1.09,-0.46 z m -57.844,1.95 v 3.54 h 0.07 v -3.46 h 5.728 v 0.44 h 0.06 v -0.51 z m -31.205,1.32 -8.739,7.37 c 0.152,0.16 0.327,0.31 0.467,0.48 0.141,0.17 0.264,0.36 0.394,0.54 l 6.186,-5.2 -0.287,2.62 c -0.305,2.73 -0.711,5.43 -1.114,8.29 l 0.906,1.1 8.772,-7.38 c -0.165,-0.15 -0.331,-0.32 -0.47,-0.48 -0.14,-0.17 -0.28,-0.35 -0.394,-0.55 l -5.978,5.04 c 0.533,-3.52 0.874,-7.08 1.329,-10.56 z M 81,185.58 h 0.77 v 4.25 h -9.164 v -0.41 h 8.46 v -3.82 z m 10.984,0 h 0.774 v 4.25 h -9.165 v -0.41 h 8.457 v -3.82 z m 108.086,0.61 c -0.25,0.32 -0.47,0.68 -0.74,1.02 -0.26,0.3 -0.57,0.59 -0.88,0.89 l 8.8,7.37 c 0.23,-0.34 0.46,-0.7 0.74,-1.01 0.26,-0.31 0.58,-0.6 0.86,-0.9 z m -2.92,4.7 c -0.27,0 -0.55,0.1 -0.84,0.16 -0.74,0.25 -1.58,1.15 -2.12,1.71 l -2.5,2.54 8.21,8.01 c 0.27,-0.31 0.51,-0.65 0.8,-0.95 0.3,-0.29 0.63,-0.56 0.94,-0.83 l -3.84,-3.75 0.1,-0.1 c 0.7,0.19 1.58,0.38 2.07,0.52 l 3.92,1.02 c 0.32,-0.37 0.63,-0.76 0.98,-1.12 0.36,-0.37 0.75,-0.7 1.14,-1.03 l -1.21,-0.26 c -1.82,-0.37 -3.64,-0.69 -5.42,-1.17 0.84,-1.33 0.84,-2.81 -0.34,-3.96 -0.51,-0.5 -1.04,-0.74 -1.63,-0.79 z m -140.75,1.84 -8.083,8.15 c 0.318,0.26 0.65,0.53 0.946,0.82 0.299,0.3 0.558,0.61 0.832,0.93 l 8.079,-8.14 c -0.318,-0.26 -0.649,-0.53 -0.945,-0.82 -0.299,-0.3 -0.559,-0.61 -0.829,-0.94 z m 139.55,0.19 c 0.25,0 0.52,0.1 0.81,0.29 0.3,0.17 0.5,0.35 0.66,0.52 1.23,1.19 1.23,2.41 -0.11,3.53 l -3.21,-3.13 c 0.52,-0.54 1.1,-1.23 1.85,-1.21 z m -136.912,2.52 c -0.123,0.2 -0.243,0.42 -0.393,0.59 -0.162,0.19 -0.354,0.34 -0.53,0.49 0.735,0.48 1.609,1.08 2.506,1.86 l -6.712,7.78 c 0.338,0.24 0.685,0.49 1,0.75 0.318,0.28 0.601,0.58 0.894,0.88 l 6.715,-7.77 c 0.766,0.66 1.439,1.4 2.108,2.12 0.131,-0.2 0.244,-0.4 0.41,-0.58 0.153,-0.18 0.341,-0.34 0.52,-0.5 z m 131.682,0.76 -4.85,4.13 7.42,8.66 4.83,-4.14 c -0.18,-0.17 -0.37,-0.32 -0.53,-0.5 -0.15,-0.17 -0.27,-0.39 -0.4,-0.61 -0.69,0.78 -1.49,1.59 -2.79,2.71 l -2.76,-3.22 1.32,-1.15 c 0.57,-0.49 1.14,-0.89 1.66,-1.21 -0.16,-0.16 -0.37,-0.33 -0.53,-0.49 -0.15,-0.19 -0.28,-0.41 -0.41,-0.61 -0.4,0.47 -0.88,0.98 -1.45,1.45 l -1.33,1.14 -2.34,-2.73 c 1.29,-1.14 2.24,-1.79 3.09,-2.33 -0.17,-0.16 -0.38,-0.32 -0.53,-0.5 -0.14,-0.19 -0.28,-0.4 -0.4,-0.6 z m -124.323,5.45 -6.686,9.21 5.156,3.75 c 0.11,-0.2 0.221,-0.44 0.354,-0.63 0.139,-0.2 0.325,-0.37 0.49,-0.53 -0.903,-0.5 -1.877,-1.1 -3.261,-2.09 l 2.489,-3.44 1.412,1.03 c 0.605,0.44 1.125,0.89 1.573,1.32 0.11,-0.21 0.221,-0.44 0.357,-0.62 0.137,-0.2 0.322,-0.37 0.485,-0.54 -0.55,-0.29 -1.144,-0.64 -1.748,-1.08 l -1.41,-1.01 2.112,-2.92 c 1.399,0.98 2.237,1.75 2.988,2.45 0.111,-0.2 0.214,-0.44 0.351,-0.63 0.139,-0.19 0.328,-0.36 0.494,-0.54 z m 117.473,0.41 c -0.18,0.16 -0.36,0.35 -0.56,0.47 -0.18,0.13 -0.41,0.22 -0.61,0.33 0.54,3.07 0.84,6.05 1.17,8.69 -2.56,-1.44 -5.11,-2.84 -7.58,-4.36 -0.18,0.16 -0.36,0.35 -0.53,0.48 -0.21,0.12 -0.42,0.21 -0.63,0.32 1.9,3.8 3.64,7.31 5.03,10.44 0.2,-0.19 0.36,-0.36 0.58,-0.51 0.22,-0.14 0.46,-0.24 0.71,-0.36 -1.28,-1.97 -2.36,-4.04 -3.7,-6.7 2.54,1.47 5.09,2.87 7.25,4.17 0.15,-0.16 0.34,-0.25 0.54,-0.34 -0.48,-2.82 -0.86,-5.63 -1.27,-8.47 1.66,1.99 3.38,3.91 4.97,6.05 0.38,-0.29 0.7,-0.57 1.07,-0.83 0.39,-0.26 0.8,-0.48 1.2,-0.72 -2.33,-2.43 -4.7,-5.23 -7.64,-8.66 z m -111.144,4.19 -5.692,9.86 4.048,2.34 c 2.966,1.71 6.39,1.1 8.281,-2.18 1.368,-2.37 1.339,-5.26 -1.689,-7.16 z m 1.686,2.1 1.416,0.81 c 2.041,1.19 2.707,3 1.141,5.72 -1.96,3.39 -4.058,3.5 -6.053,2.36 l -1.228,-0.71 z m 94.978,2.5 c -0.19,0.14 -0.35,0.23 -0.55,0.35 -0.19,0.1 -0.38,0.15 -0.59,0.23 l 0.98,12.49 c 0.23,-0.14 0.45,-0.28 0.69,-0.4 0.23,-0.12 0.47,-0.19 0.72,-0.31 -0.25,-1.17 -0.34,-2.28 -0.52,-3.61 l 3.47,-1.76 c 0.91,0.79 1.74,1.64 2.64,2.58 0.41,-0.25 0.82,-0.51 1.24,-0.73 0.43,-0.22 0.88,-0.37 1.32,-0.58 z m 0.32,3.44 3.08,2.81 -2.73,1.39 z m -81.046,0.1 c -1.569,-0.1 -2.758,0.83 -3.32,2.19 -1.579,3.79 3.492,4.83 2.443,7.34 -0.452,1.08 -1.546,1.27 -2.521,0.86 -1.086,-0.44 -1.667,-1.43 -1.452,-2.63 l -0.333,-0.1 c -0.377,0.62 -0.825,1.21 -1.286,1.79 0.542,0.78 1.386,1.37 2.25,1.74 2.437,1.01 4.77,0.29 5.605,-1.73 1.501,-3.61 -3.447,-5.21 -2.563,-7.33 0.37,-0.9 1.127,-1.33 2.371,-0.82 0.894,0.38 1.267,1.17 1.238,2.13 l 0.24,0.1 c 0.377,-0.46 0.751,-0.92 1.147,-1.34 -0.207,-0.48 -1.036,-1.31 -2.17,-1.8 -0.598,-0.24 -1.163,-0.36 -1.686,-0.38 z m 71.456,1.16 -6.13,2.2 3.85,10.8 2.11,-0.76 -1.86,-5.22 4.01,-1.42 -0.51,-1.14 -3.93,1.39 -1.14,-3.22 4.12,-1.47 z m -66.697,0.82 c -0.04,0.22 -0.06,0.47 -0.123,0.7 -0.07,0.24 -0.191,0.45 -0.289,0.66 0.871,0.14 1.907,0.33 3.048,0.67 l -2.97,9.85 c 0.409,0.1 0.828,0.15 1.225,0.27 0.399,0.13 0.783,0.29 1.173,0.45 l 2.969,-9.84 c 0.978,0.3 1.884,0.68 2.794,1.09 0,-0.23 0.1,-0.48 0.13,-0.72 0.1,-0.22 0.19,-0.44 0.29,-0.65 z m 54.927,2.66 c -0.51,0 -1.06,0.1 -1.65,0.19 -4.11,0.91 -5.93,4.08 -5.21,7.36 0.8,3.75 3.74,5.36 7.39,4.57 4.04,-0.88 5.93,-4.16 5.21,-7.37 -0.51,-2.23 -2.18,-4.82 -5.74,-4.75 z m -42.05,0.64 -6.899,10.48 c 0.27,0 0.533,0 0.799,0.1 0.26,0.1 0.5,0.1 0.76,0.2 0.53,-1.08 1.14,-2.02 1.8,-3.18 l 3.84,0.76 c 0.22,1.19 0.34,2.36 0.48,3.66 0.5,0 0.96,0.1 1.44,0.18 0.49,0.1 0.93,0.23 1.4,0.35 l -2.39,-12.28 c -0.2,0 -0.4,0 -0.61,-0.1 -0.22,-0.1 -0.42,-0.1 -0.62,-0.18 z m 41.4,0.48 c 1.96,0.11 3.18,2.05 3.59,3.91 0.59,2.75 0,5.53 -2.55,6.09 -2.47,0.53 -3.95,-1.53 -4.4,-3.69 -0.81,-3.68 0.19,-5.72 2.49,-6.22 0.31,-0.1 0.59,-0.1 0.87,-0.1 z m -35.72,0.73 v 0.69 c 0,0.26 -0.1,0.49 -0.15,0.71 0.88,0 1.94,0 3.13,0.1 l -0.95,10.23 h 1.26 c 0.41,0 0.81,0.12 1.23,0.21 l 0.95,-10.24 c 1.02,0.1 1.98,0.3 2.96,0.51 v -0.72 c 0,-0.23 0,-0.45 0.13,-0.68 z m 21.18,0.59 v 0 h -0.45 c -2.6,0.1 -3.87,1.78 -3.78,3.74 0.16,4.1 5.2,2.9 5.31,5.63 0.1,1.18 -0.86,1.85 -1.91,1.85 -1.19,0.1 -2.12,-0.61 -2.44,-1.78 h -0.32 c -0.1,0.74 -0.22,1.46 -0.41,2.19 0.83,0.48 1.85,0.62 2.77,0.62 2.64,-0.12 4.46,-1.75 4.37,-3.93 -0.17,-3.91 -5.33,-3.27 -5.42,-5.57 -0.1,-0.97 0.45,-1.65 1.79,-1.74 0.98,0 1.65,0.51 2.03,1.4 h 0.26 c 0.15,-0.58 0.3,-1.15 0.47,-1.7 -0.34,-0.3 -1.24,-0.69 -2.27,-0.72 z m -11.72,0.37 v 11.41 h 6.36 c 0,-0.23 -0.1,-0.49 -0.1,-0.72 0,-0.23 0.1,-0.5 0.1,-0.72 -1.02,0.13 -2.16,0.24 -3.86,0.24 v -4.25 h 1.73 c 0.76,0 1.43,0.1 2.06,0.16 0,-0.26 -0.1,-0.49 -0.1,-0.72 0,-0.25 0.1,-0.49 0.1,-0.73 -0.62,0.1 -1.29,0.16 -2.05,0.16 h -1.73 v -3.59 c 1.69,0 2.83,0.1 3.85,0.22 0,-0.22 -0.1,-0.49 -0.1,-0.73 0,-0.22 0.1,-0.48 0.1,-0.72 z m -15.76,0.99 0.73,4.11 -3,-0.58 z"></path>
 </svg>