<?xml version="1.0"?>

<svg xmlns="http://www.w3.org/2000/svg" viewBox="0 0 1074 339" width="1074" height="339"> <path d="m 60.44,109.6 c 2,-0.8 3,-3.3 3,-5.2 l -38,-81.23 0,0 c 0,-0.2 0,-0.2 0,-0.2 -1,-0.9 -2,-1.1 -3,-0.9 0,0.6 -1,1.4 0,2.2 l 0,0.3 33,83.13 c 1,1.9 3,3 5,1.9 l 0,0 M 1037,96.77 c -5,0 -8,-2 -9,-5.8 0,-1.9 -1,-4.6 -1,-8.2 0,-3.8 1,-6.5 1,-8.4 1,-3.9 4,-5.8 9,-5.8 4,0 7,1.9 8,5.8 1,1.9 1,4.3 1,8.4 0,3.9 0,6.3 -1,8.2 -1,3.8 -4,5.8 -8,5.8 z m 14,-49 -3,0 c -1,0 -2,0.6 -2,1.7 l 0,17.2 c -2,-2.7 -6,-4.1 -10,-4.1 -7,0 -12,3.3 -14,9.6 -1,2.7 -1,6 -1,10.6 0,4.4 0,7.7 1,10.4 2,6.3 7,9.33 14,9.33 4,0 8,-1.4 10,-4.13 l 0,1.6 c 0,1.13 1,2.03 2,2.03 l 3,0 c 1,0 1,-0.9 1,-2.03 l 0,-50.5 c 0,-1.1 0,-1.7 -1,-1.7 m -37,48.4 -1,0 c -2,0 -3,-0.5 -3,-3.8 l 0,-42.9 c 0,-1.1 -1,-1.7 -2,-1.7 l -3,0 c 0,0 -1,0.6 -1,1.7 l 0,43.2 c 0,6.5 3,9.33 9,9.33 l 1,0 c 1,0 2,-0.6 2,-1.7 l 0,-2.43 c 0,-0.9 -1,-1.7 -2,-1.7 m -15.6,-30.9 c -3,-1.6 -5,-2.7 -9,-2.7 -4,0 -7,1.4 -9,4.1 l 0,-1.6 c 0,-0.9 -1,-1.7 -1,-1.7 l -3,0 c -1,0 -2,0.8 -2,1.7 l 0,34.9 c 0,1.13 1,2.03 2,2.03 l 3,0 c 0,0 1,-0.9 1,-2.03 l 0,-20.2 c 0,-4.1 1,-11.2 8,-11.2 2,0 4,0.3 6,1.7 0,0.2 1,0.2 1,0.2 0,0 1,-0.2 1,-0.8 l 2,-1.9 c 0,-0.6 0,-0.8 0,-1.4 0,-0.2 0,-0.8 0,-1.1 m -49,31.5 c -4,0 -8,-2.2 -9,-6.1 0,-2.1 -1,-4.3 -1,-8.1 0,-3.6 1,-5.8 1,-8 1,-3.8 5,-6 9,-6 5,0 8,2.2 9,6 1,2.2 1,4.4 1,8 0,3.8 0,6 -1,8.1 -1,3.9 -4,6.1 -9,6.1 z m 0,-34.2 c -7,0 -12,3.8 -15,10.1 0,3 -1,6 -1,9.9 0,4.1 1,7.1 1,9.8 3,6.5 8,10.13 15,10.13 8,0 13,-3.63 15,-10.13 1,-2.7 1,-5.7 1,-9.8 0,-3.9 0,-6.9 -1,-9.9 -2,-6.3 -7,-10.1 -15,-10.1 m -22,0.8 -3,0 c -1,0 -1,0.8 -2,1.4 l -8,26.8 -9,-26.8 c 0,-0.8 -1,-1.4 -2,-1.4 l -2,0 c -1,0 -2,0.3 -2,1.4 l -9,26.8 -9,-26.8 c 0,-0.6 0,-1.4 -2,-1.4 l -2,0 c -1,0 -1,0.3 -2,0.6 0,0.2 0,0.8 0,1.3 l 12,35.03 c 0,1.1 1,1.7 2,1.7 l 2,0 c 1,0 2,-0.6 2,-1.4 l 9,-27.13 9,26.83 c 0,1.1 1,1.7 2,1.7 l 2,0 c 1,0 2,-0.6 2,-1.7 l 11,-35.03 c 1,-0.5 0,-1.1 0,-1.3 0,-0.3 0,-0.6 -1,-0.6 m -73,1.9 c -2,-1.6 -5,-2.7 -8,-2.7 -4,0 -7,1.4 -9,4.1 l 0,-1.6 c 0,-0.9 -1,-1.7 -2,-1.7 l -2,0 c -1,0 -2,0.8 -2,1.7 l 0,34.9 c 0,1.13 1,2.03 2,2.03 l 2,0 c 1,0 2,-0.9 2,-2.03 l 0,-20.2 c 0,-4.1 1,-11.2 8,-11.2 2,0 4,0.3 6,1.7 0,0.2 0,0.2 1,0.2 0,0 1,-0.2 1,-0.8 l 2,-1.9 c 0,-0.6 0,-0.8 0,-1.4 0,-0.2 0,-0.8 -1,-1.1 m -48,3 c 5,0 8,2.2 9,6.3 0,1.4 1,2.8 1,4.7 l -20,0 c 0,-1.9 0,-3.3 1,-4.7 1,-4.1 4,-6.3 9,-6.3 z m 0,-5.7 c -7,0 -13,3.8 -15,10.1 -1,2.7 -1,5.5 -1,9.9 0,4.3 0,7.1 1,9.8 3,6.5 8,10.13 15,10.13 6,0 12,-2.2 15,-6.33 0,-0.8 0,-1.9 -1,-2.4 l -1,-1.7 c -1,-0.5 -2,-0.3 -3,0.3 -2,3 -5,4.4 -9,4.4 -5,0 -8,-2.2 -10,-6.6 -1,-1.4 -1,-3 -1,-5.7 l 24,0 c 1,0 2,-0.6 2,-1.7 0,-4.9 0,-7.4 -1,-10.1 -3,-6.3 -8,-10.1 -15,-10.1 m -24,0.8 -6,0 0,-10.1 c 0,-0.8 -1,-1.6 -2,-1.6 l -3,0 c -1,0 -1,0.8 -1,1.6 l 0,10.1 -4,0 c -1,0 -2,0.8 -2,1.7 l 0,2.1 c 0,1.1 1,1.7 2,1.7 l 4,0 0,22.4 c 0,7.6 3,10.73 10,10.73 l 2,0 c 1,0 2,-0.6 2,-1.7 l 0,-2.43 c 0,-0.9 -1,-1.7 -2,-1.7 l -1,0 c -4,0 -5,-0.8 -5,-5.2 l 0,-22.1 6,0 c 1,0 2,-0.6 2,-1.7 l 0,-2.1 c 0,-0.9 -1,-1.7 -2,-1.7 m -38,-0.8 c -5,0 -8,1.6 -10,4.1 l 0,-17.2 c 0,-1.1 -1,-1.7 -2,-1.7 l -3,0 c -1,0 -2,0.6 -2,1.7 l 0,50.5 c 0,1.13 1,2.03 2,2.03 l 3,0 c 1,0 2,-0.9 2,-2.03 l 0,-22.1 c 0,-5.7 3,-9.3 9,-9.3 6,0 9,3.3 9,9.9 l 0,21.5 c 0,1.13 0,2.03 1,2.03 l 3,0 c 1,0 2,-0.9 2,-2.03 l 0,-22.4 c 0,-9.5 -6,-15 -14,-15 m -44,33.6 c -4,0 -7,-1.9 -8,-5.7 -1,-1.9 -1,-4.4 -1,-8.2 0,-3.6 0,-6 1,-7.9 1,-3.9 4,-5.8 8,-5.8 5,0 8,1.9 9,5.8 0,1.9 1,4.1 1,7.9 0,4.1 -1,6.3 -1,8.2 -1,3.8 -4,5.7 -9,5.7 z m 14,-32.8 -3,0 c -1,0 -1,0.8 -1,1.7 l 0,1.6 c -2,-2.7 -6,-4.1 -10,-4.1 -7,0 -12,3.6 -14,9.6 -1,2.7 -1,5.7 -1,10.1 0,4.6 0,7.6 1,10.4 2,6 7,9.33 14,9.33 4,0 8,-1.4 10,-3.93 l 0,2.23 c 0,7.1 -3,10.4 -10,10.4 -4,0 -6,-1.4 -9,-3.6 0,-0.8 -1,-1 -2,-0.2 l -2,1.6 c -1,0.6 -1,1.4 0,2.2 2,3.6 7,5.7 12,5.7 10,0 17,-5.7 17,-16.1 l 0,-35.23 c 0,-0.9 -1,-1.7 -2,-1.7 m -40,0 -3,0 c -1,0 -1,0.8 -1,1.7 l 0,34.9 c 0,1.13 0,2.03 1,2.03 l 3,0 c 1,0 2,-0.9 2,-2.03 l 0,-34.9 c 0,-0.9 -1,-1.7 -2,-1.7 m 0,-15.6 -3,0 c -1,0 -2,0.6 -2,1.7 l 0,4.4 c 0,0.8 1,1.6 2,1.6 l 3,0 c 2,0 2,-0.8 2,-1.6 l 0,-4.4 c 0,-1.1 0,-1.7 -2,-1.7 m -11,17.5 c -2,-1.6 -5,-2.7 -8,-2.7 -4,0 -7,1.4 -9,4.1 l 0,-1.6 c 0,-0.9 -1,-1.7 -2,-1.7 l -2,0 c -1,0 -2,0.8 -2,1.7 l 0,34.9 c 0,1.13 1,2.03 2,2.03 l 2,0 c 1,0 2,-0.9 2,-2.03 l 0,-20.2 c 0,-4.1 1,-11.2 8,-11.2 2,0 4,0.3 6,1.7 0,0.2 1,0.2 1,0.2 0,0 1,-0.2 1,-0.8 l 2,-1.9 c 0,-0.6 0,-0.8 0,-1.4 0,-0.2 0,-0.8 -1,-1.1 m -48,3.3 c 5,0 8,1.9 9,5.8 1,1.9 1,4.6 1,8.4 0,3.6 0,6.3 -1,8.2 -1,3.8 -4,5.8 -9,5.8 -4,0 -7,-2 -8,-5.8 -1,-1.9 -1,-4.3 -1,-8.2 0,-4.1 0,-6.5 1,-8.4 1,-3.9 4,-5.8 8,-5.8 z m 1,-6 c -4,0 -8,1.4 -10,4.1 l 0,-17.2 c 0,-1.1 -1,-1.7 -2,-1.7 l -3,0 c -1,0 -1,0.6 -1,1.7 l 0,50.5 c 0,1.13 0,2.03 1,2.03 l 3,0 c 1,0 2,-0.9 2,-2.03 l 0,-1.6 c 2,2.73 6,4.13 10,4.13 7,0 12,-3.03 14,-9.33 1,-3 1,-6.3 1,-10.4 0,-4.3 0,-7.6 -1,-10.6 -2,-6.3 -7,-9.6 -14,-9.6 m -52,21.9 0,5.2 c 0,4.3 -4,7.3 -10,7.3 -3,0 -8,-1.1 -8,-6.3 0,-3 1,-6.2 10,-6.2 l 8,0 z m -8,-21.9 c -6,0 -10,1.4 -13,3.8 -1,0.6 -1,1.4 0,2.2 l 1,2.2 c 1,0.5 2,0.8 3,0 2,-1.6 4,-2.5 8,-2.5 8,0 9,2.5 9,7.7 l 0,3.3 -9,0 c -12,0 -15,6.3 -15,11.7 0,7.1 5,11.53 14,11.53 4,0 8,-1.4 10,-3.63 l 0,1.1 c 0,1.13 1,2.03 2,2.03 l 2,0 c 2,0 2,-0.9 2,-2.03 l 0,-24.3 c 0,-9.3 -4,-13.1 -14,-13.1 m -52,25.4 c 0,-1.6 1,-3.5 1,-6.3 0,-2.4 -1,-4.3 -1,-6.3 -1,-3 -3,-4.9 -7,-4.9 -3,0 -6,1.9 -7,4.9 0,2 -1,3.9 -1,6.3 0,2.8 1,4.7 1,6.3 1,3.3 4,4.9 7,4.9 4,0 6,-1.6 7,-4.9 z m -22,23.23 c 0,-0.2 0,-0.5 0,-1 l 5,-4.7 c 0,-0.5 1,-0.5 1,0 2,2.2 5,3.6 8,3.6 6,0 9,-3.3 9,-9.13 l 0,-3.8 0,0 c -2,2.7 -5,4.73 -10,4.73 -7,0 -11,-3.33 -13,-9.33 -1,-3 -2,-5.8 -2,-9.9 0,-4.1 1,-6.8 2,-9.5 2,-6.3 6,-9.6 13,-9.6 5,0 8,1.9 10,4.6 l 0,0 0,-3 c 0,-0.2 0,-0.8 1,-0.8 l 7,0 c 0,0 1,0.6 1,0.8 l 0,35.3 c 0,10.93 -7,17.53 -18,17.53 -5,0 -11,-2.2 -14,-5.8 m -17,-9.2 c 0,0 0,-0.6 0,-0.9 l 0,-22.13 c 0,-4.9 -3,-8.5 -8,-8.5 -4,0 -7,3.6 -7,8.5 l 0,22.13 c 0,0.3 0,0.9 -1,0.9 l -7,0 c 0,0 -1,-0.6 -1,-0.9 l 0,-36.93 c 0,-0.2 1,-0.8 1,-0.8 l 7,0 c 1,0 1,0.6 1,0.8 l 0,3 0,0 c 2,-2.4 5,-4.6 10,-4.6 8,0 14,6 14,14.2 l 0,24.33 c 0,0.3 -1,0.9 -1,0.9 l -8,0 m -42,0 c -1,0 -1,-0.6 -1,-0.9 l 0,-36.93 c 0,-0.2 0,-0.8 1,-0.8 l 7,0 c 1,0 1,0.6 1,0.8 l 0,36.93 c 0,0.3 0,0.9 -1,0.9 l -7,0 z m 0,-45.73 c -1,0 -1,-0.3 -1,-0.8 l 0,-6.8 c 0,-0.6 0,-0.9 1,-0.9 l 7,0 c 1,0 1,0.3 1,0.9 l 0,6.8 c 0,0.5 0,0.8 -1,0.8 l -7,0 m -13,45.93 c -8,0 -11,-3.53 -11,-11.23 l 0,-20.2 c 0,-0.3 0,-0.3 -1,-0.3 l -2,0 c -1,0 -1,-0.5 -1,-0.8 l 0,-5.5 c 0,-0.2 0,-0.8 1,-0.8 l 2,0 c 1,0 1,0 1,-0.3 l 0,-10.6 c 0,-0.6 0,-0.8 1,-0.8 l 7,0 c 0,0 1,0.2 1,0.8 l 0,10.6 c 0,0.3 0,0.3 0,0.3 l 5,0 c 1,0 1,0.6 1,0.8 l 0,5.5 c 0,0.3 0,0.8 -1,0.8 l -5,0 c 0,0 0,0 0,0.3 l 0,19.9 c 0,2.8 1,3.6 4,3.6 l 1,0 c 1,0 1,0.3 1,0.8 l 0,6.33 c 0,0.6 0,0.8 -1,0.8 l -3,0 m -30,-13.43 0,-2.7 c 0,-0.5 0,-0.5 0,-0.5 l -6,0 c -6,0 -9,1.6 -9,5.1 0,3.1 3,4.7 7,4.7 5,0 8,-2.2 8,-6.6 z m 1,13.23 c 0,0 -1,-0.6 -1,-0.9 l 0,-3.03 0,0 c -2,2.83 -5,4.73 -11,4.73 -6,0 -12,-3.93 -12,-11.83 0,-8.4 6,-12.3 15,-12.3 l 8,0 c 0,0 0,0 0,-0.2 l 0,-2 c 0,-4.3 -2,-6.2 -8,-6.2 -4,0 -7,1 -9,2.4 0,0.6 -1,0.3 -1,0 l -3,-5.2 c 0,-0.5 0,-0.8 0,-1.1 3,-2.2 7,-3.8 14,-3.8 11,0 16,4.1 16,13.4 l 0,25.13 c 0,0.3 -1,0.9 -1,0.9 l -7,0 m -52,0 c 0,0 0,-0.6 0,-0.9 l 0,-36.93 c 0,-0.2 0,-0.8 0,-0.8 l 8,0 c 0,0 0,0.6 0,0.8 l 0,3.3 0,0 c 2,-3 6,-4.9 11,-4.9 3,0 6,1.4 8,3.3 0,0.3 0,0.5 0,1.1 l -5,5.2 c 0,0.5 0,0.5 -1,0.2 -1,-1.1 -3,-1.9 -5,-1.9 -5,0 -8,3.6 -8,9.9 l 0,20.73 c 0,0.3 0,0.9 0,0.9 l -8,0 m -13,0.2 c -8,0 -11,-3.53 -11,-11.23 l 0,-20.2 c 0,-0.3 0,-0.3 0,-0.3 l -3,0 c 0,0 -1,-0.5 -1,-0.8 l 0,-5.5 c 0,-0.2 1,-0.8 1,-0.8 l 3,0 c 0,0 0,0 0,-0.3 l 0,-10.6 c 0,-0.6 1,-0.8 1,-0.8 l 7,0 c 1,0 1,0.2 1,0.8 l 0,10.6 c 0,0.3 0,0.3 1,0.3 l 5,0 c 0,0 1,0.6 1,0.8 l 0,5.5 c 0,0.3 -1,0.8 -1,0.8 l -5,0 c -1,0 -1,0 -1,0.3 l 0,19.9 c 0,2.8 1,3.6 4,3.6 l 2,0 c 0,0 1,0.3 1,0.8 l 0,6.33 c 0,0.6 -1,0.8 -1,0.8 l -4,0 m -51,-5.43 c 0,-0.6 0,-0.9 0,-1.1 l 5,-5 c 0,-0.2 0,-0.2 1,0 2,2.5 7,4.4 11,4.4 4,0 7,-1.9 7,-4.4 0,-2.4 -1,-3.8 -6,-4.3 l -5,-0.3 c -7,-0.8 -11,-4.9 -11,-11.5 0,-7.4 5,-12 15,-12 6,0 10,1.9 14,4.6 0,0.3 0,0.9 0,1.1 l -4,5 c 0,0.2 -1,0.2 -1,0 -2,-1.7 -6,-3.3 -10,-3.3 -4,0 -6,1.9 -6,4.1 0,2.2 2,3.5 7,4.1 l 4,0.3 c 7,0.8 11,4.9 11,11.2 0,7.6 -5,13.13 -15,13.13 -8,0 -14,-3.33 -17,-6.03 m -15,-21.6 c -1,-3 -4,-4.9 -7,-4.9 -4,0 -7,1.9 -8,4.9 0,0.8 0,1.9 0,3.3 0,0.2 0,0.2 0,0.2 l 15,0 c 1,0 1,0 1,-0.2 0,-1.4 0,-2.5 -1,-3.3 z m -23,16.9 c -1,-2.4 -1,-5.4 -1,-9.5 0,-3.9 0,-6.9 1,-9.3 2,-6.9 8,-10.7 16,-10.7 8,0 13,4.1 15,10.7 1,2.7 2,5.2 2,11.4 0,0.6 -1,0.9 -1,0.9 l -24,0 c 0,0 0,0 0,0.5 0,1.1 0,1.9 0,2.7 1,3.9 4,6 9,6 4,0 7,-1.6 9,-3.8 0,-0.3 1,-0.3 1,0 l 5,4.1 c 0,0.3 0,0.6 0,1.1 -3,3.8 -9,6.63 -16,6.63 -8,0 -14,-4.13 -16,-10.73 m -16,9.93 c -1,0 -1,-0.6 -1,-0.9 l 0,-22.13 c 0,-4.9 -3,-8.5 -7,-8.5 -5,0 -8,3.6 -8,8.5 l 0,22.13 c 0,0.3 0,0.9 -1,0.9 l -7,0 c -1,0 -1,-0.6 -1,-0.9 l 0,-52.43 c 0,-0.6 0,-0.9 1,-0.9 l 7,0 c 1,0 1,0.3 1,0.9 l 0,18.5 0,0 c 2,-2.4 5,-4.6 10,-4.6 9,0 14,6 14,14.2 l 0,24.33 c 0,0.3 -1,0.9 -1,0.9 l -7,0 m -61,-9.93 c -1,-2.4 -2,-5.4 -2,-9.5 0,-3.9 1,-6.9 2,-9.3 2,-6.9 8,-10.7 15,-10.7 6,0 11,2.5 14,6 0,0.3 0,0.8 0,1.1 l -5,4.4 c -1,0.3 -1,0.3 -1,0 -2,-2.2 -4,-3.6 -8,-3.6 -3,0 -6,1.7 -7,5.2 0,1.9 -1,4.1 -1,6.9 0,3 1,5.4 1,7.3 1,3.3 4,4.9 7,4.9 4,0 6,-1.3 8,-3.5 0,-0.3 0,-0.3 1,0 l 5,4.4 c 0,0.2 0,0.8 0,1.1 -3,3.53 -8,6.03 -14,6.03 -7,0 -13,-3.93 -15,-10.73 m -29,9.93 c 0,0 -1,-0.6 -1,-0.9 l 0,-36.93 c 0,-0.2 1,-0.8 1,-0.8 l 8,0 c 0,0 0,0.6 0,0.8 l 0,3.3 0,0 c 2,-3 6,-4.9 10,-4.9 3,0 6,1.4 8,3.3 1,0.3 1,0.5 0,1.1 l -4,5.2 c 0,0.5 -1,0.5 -1,0.2 -1,-1.1 -3,-1.9 -6,-1.9 -4,0 -7,3.6 -7,9.9 l 0,20.73 c 0,0.3 0,0.9 0,0.9 l -8,0 m -20,-14.83 c 1,-1.9 1,-4.6 1,-12.3 0,-7.7 0,-10.4 -1,-12.6 -1,-4.3 -3.96,-7.1 -9.96,-7.1 -5,0 -8,2.8 -10,7.1 0,2.2 -1,4.9 -1,12.6 0,7.7 1,10.4 1,12.3 2,4.4 5,7.1 10,7.1 6,0 8.96,-2.7 9.96,-7.1 z m -28.96,2.5 c -1,-3.3 -1,-6.3 -1,-14.8 0,-8.7 0,-11.5 1,-15 3,-8.5 10,-12.9 19,-12.9 9.96,0 16.96,4.4 18.96,12.9 2,3.5 2,6.3 2,15 0,8.5 0,11.5 -2,14.8 -2,8.4 -9,13.13 -18.96,13.13 -9,0 -16,-4.73 -19,-13.13 M 544.4,295.9 c 3,0 53,0.3 70,0 l 0,17.2 c -34,1.4 -68,1.9 -103,0.6 -30,-1.1 -35,-16.2 -35,-30.5 l 0,-86.1 137,0 0,16.4 -89,0 0,29.8 81,0 0,16.1 -81,0 c 0,8.7 0,18.6 0,20.5 1,11.1 6,15.2 20,16 m 228,18 c -26,3.6 -54,4.1 -81,1.7 -15,-1.4 -31,-4.7 -45,-12.1 -18,-9.2 -24,-30.2 -24,-49 1,-17.5 6,-36.1 21,-46.5 11,-6.6 22,-8.7 33,-10.9 32,-5.8 64,-4.4 95,-1.1 l 0,16.6 c -37,-7.1 -75,-5.2 -89,11.5 -8,10.4 -9,20.8 -9,29.5 0,15.9 6,39.6 38,44.2 20,3 41,0.8 61,-3 l 0,19.1 m -465,-116.8 38,0 c 8,0 18,7.9 23,12.3 l 65,72.7 0,-85 23,0 0,116 -39,0 c -7,-0.3 -14,-1.6 -22,-9.6 l -66,-72.5 0,82.1 -22,0 0,-116"></path></svg>