 <svg 
   xmlns="http://www.w3.org/2000/svg"
   viewBox="0 0 156.405 43.221"
   height="43.221"
   width="156.405" >

    <path
     d="m 8.015,12.91 c 0,0 0,0 0,0 0,0 0,0 0,0 z m 0.06,0.1 c 0,0 -0.02,0 -0.05,0 0,0 -0.01,0 -0.02,0 0,0 0,0 0,0 -0.01,0 0,0.1 0,0.12 l 0,28.33 -0.06,0 -7.699,0 0,-39.611 9.075,0 c 2.359,0.07 4.869,0.408 6.989,0.87 0.33,0.07 0.65,0.125 0.88,0.253 0.23,0.123 0.45,0.292 0.66,0.459 0.21,0.161 0.42,0.336 0.62,0.506 1.21,1.045 2.3,2.225 3.41,3.333 l 21.01,23.92 c 0,0 0,0 0,0 0,-0.13 0,-0.3 0,-0.45 l 0,-28.871 7.76,0 0,39.231 c 0,0.11 0,0.24 0,0.32 0,0.1 0,0.1 0,0.1 l -0.16,0 -2.22,0 c -0.74,0 -1.48,0 -2.22,0 -1.11,0 -2.23,0.1 -3.28,0 -3.08,-0.28 -6.1,-0.6 -8.87,-1.13 -0.31,0 -0.63,-0.12 -0.9,-0.2 -0.27,-0.1 -0.5,-0.25 -0.71,-0.4 C 31.85,39.34 31.45,39 31.06,38.64 29.51,37.2 28.07,35.69 26.65,34.18 25.2,32.66 23.81,31.09 22.41,29.54 20.29,27.2 18.24,24.84 16.18,22.45 14.81,20.87 13.45,19.31 12.07,17.69 10.91,16.32 9.668,14.88 8.506,13.49 8.381,13.34 8.214,13.13 8.08,12.98 c 0,0 0,0 0,0 z m 0,0 c 0,0 -0.01,0 0,0 z m 95.325,28.43 0,0 -28.4,0 c -5.04,0 -10.99,-0.63 -14.54,-2.91 -2.33,-1.57 -3.32,-4.95 -3.54,-7.21 -0.1,-0.83 0,-1.71 0,-2.62 0,-8.94 0,-17.89 0,-26.851 0,-0.01 0,-0.03 0,-0.03 l 45.28,0 c 0.1,0 0.3,-0.02 0.4,0 0,0.01 0,-0.01 0,0 0,0.01 0,0.08 0,0.119 0,1.996 0,4.172 0,6.1 l 0,0 -29.4,0 0,9.312 c 9.03,0 18.1,0 27.1,0 0,1.92 0,4.1 0,6.02 0,0.1 0,0.11 0,0.16 0,0 0,0.1 0,0 l -27.1,0 c 0,0 0,5.78 0,5.99 0,3.35 2.64,5.32 5.47,5.63 1.27,0 2.6,0 3.91,0 l 20.92,0 z m 52.8,-6.73 0,6.4 c -4.3,1.16 -9,1.85 -14.3,1.91 -7.9,0.24 -16.5,-0.38 -23.2,-2.6 -4.3,-1.49 -7.8,-3.8 -10.1,-7.31 -1.8,-2.82 -2.8,-6.44 -2.9,-11.03 0,-2.33 0.2,-4.45 0.7,-6.33 0.5,-2.37 1.4,-4.37 2.6,-6.064 7,-9.081 21,-9.254 30.6,-9.388 l 2.8,0 c 4.8,0.09 9.1,0.7 13,1.695 l 0,5.575 c 0,0.01 0,0.02 0,0.02 -5.7,-0.957 -11.7,-1.282 -17.2,-0.957 -3.8,0.238 -7.2,0.932 -9.8,2.466 -3.5,2.273 -5.1,5.913 -5.5,9.753 -0.2,1.85 -0.1,4.03 0.1,5.78 0.4,2.66 1.3,4.8 2.7,6.49 3.4,3.78 9.4,4.62 13.5,4.83 4,0.16 7.9,0 11.7,-0.4 1.9,-0.18 3.7,-0.37 5.3,-0.84 z"   /> </svg>