<?xml version="1.0"?>
 <svg xmlns="http://www.w3.org/2000/svg" viewBox="0 0 311 51" height="51" width="311">
  <path d="m 310.7,50.19 -29.2,0 0,-50.1875 29.2,0 0,3.3725 -25.6,0 0,19.825 21.9,0 0,3.38 -21.9,0 0,20.24 25.6,0 m -34.1,3.37 -3.7,0 -28.3,-43.656 0,43.656 -3.7,0 0,-50.1875 3.7,0 28.3,43.4775 0,-43.4775 3.7,0 0,50.1875 m -44.3,-50.1875 0,50.1875 3.2,0 0,-50.1875 -3.2,0 0,0 m -5,32.5775 c 0,5.1 -1.4,9.08 -3.9,11.92 -1.5,1.81 -3.3,3.21 -5.6,4.2 -2.1,0.99 -4.4,1.49 -6.8,1.49 -2.3,0 -4.4,-0.44 -6.5,-1.32 -2,-0.88 -3.8,-2.12 -5.3,-3.73 -1.5,-1.46 -2.4,-3.01 -3.1,-4.64 -0.5,-1.62 -0.9,-3.48 -1.1,-5.59 -0.1,-2.09 -0.4,-5.37 -0.4,-9.82 0,-4.44 0.3,-7.72 0.4,-9.81 0.2,-2.11 0.6,-3.97 1.1,-5.6 0.7,-1.626 1.6,-3.172 3.1,-4.639 1.5,-1.599 3.3,-2.839 5.3,-3.719 2.1,-0.8796 4.2,-1.3194 6.5,-1.3194 4.1,0 7.7,1.3064 10.7,3.9454 2.9,2.626 4.8,6.122 5.4,10.482 l -3.6,0 c -0.4,-2.22 -1.2,-4.18 -2.4,-5.883 -1.2,-1.706 -2.6,-2.999 -4.4,-3.892 -1.7,-0.893 -3.6,-1.333 -5.7,-1.333 -1.7,0 -3.3,0.306 -4.9,0.946 -1.5,0.627 -2.8,1.573 -4.2,2.839 -0.8,0.88 -1.4,1.8 -1.8,2.746 -0.5,0.947 -0.8,2.147 -1.1,3.587 -0.2,1.45 -0.5,3.11 -0.5,4.94 -0.1,1.86 -0.1,4.1 -0.1,6.71 0,3.92 0.1,6.89 0.2,8.93 0.2,2.04 0.6,3.77 1,5.2 0.5,1.42 1.3,2.7 2.3,3.83 1.2,1.24 2.7,2.19 4.2,2.84 1.6,0.66 3.2,0.98 4.9,0.98 1.9,0 3.7,-0.41 5.5,-1.23 1.6,-0.83 3,-2.01 4.4,-3.54 0.9,-1.31 1.7,-2.73 2.1,-4.27 0.4,-1.53 0.7,-3.37 0.7,-5.52 l 0,-4.43 -12.7,0 0,-3.32 16.3,0 0,8.02 m -37.7,17.61 -3.8,0 -28.2,-43.656 0,43.656 -3.8,0 0,-50.1875 3.8,0 28.2,43.4775 0,-43.4775 3.8,0 0,50.1875 m -41,0 -29.2,0 0,-50.1875 29.2,0 0,3.3725 -25.5,0 0,19.825 21.8,0 0,3.38 -21.8,0 0,20.24 25.5,0 m -33.8,-35.83 -11.9,0 0,39.2 -11.9,0 0,-39.2 -11.93,0 0,-10.9875 35.73,0 M 75.3,50.19 l -32.51,0 0,-50.1875 32.51,0 0,10.9875 -20.77,0 0,8.39 17.75,0 0,10.97 -17.75,0 0,8.86 20.77,0 0,10.98 m -36.3,0 -10.71,0 -16.02,-25.23 0,25.23 -12.27,0 0,-50.1875 10.73,0 16.01,25.2375 0,-25.2375 12.26,0 0,50.1875"></path>
   </svg>