<?xml version="1.0"?>
<!--?xml version="1.0" encoding="UTF-8" standalone="no"?-->
<svg xmlns="http://www.w3.org/2000/svg" viewBox="0 0 86.126251 99.160004" height="768" width="667">
  <path d="M 0,0 V 67.5 H 31.5 V 27 h 18 V 67.5 H 81 V 0 Z M 0.00312,79.498 V 95.529 H 3.4718 V 85.404 l 7.6872,10.125 h 2.969 V 79.498 h -3.437 v 9.906 L 3.2218,79.498 Z m 43.71888,0 -6.656,16.031 h 3.562 l 1.469,-3.562 h 6.312 l 1.469,3.562 h 3.625 L 46.878,79.498 Z m -13.813,0.75 v 3.094 h -1.437 v 2.969 h 1.437 v 5.75 c 0,2.817 1.451,3.656 3.563,3.656 1.159,0 1.992,-0.255 2.719,-0.688 v -2.781 c -0.502,0.276 -1.083,0.438 -1.719,0.438 -0.771,0 -1.094,-0.393 -1.094,-1.188 v -5.187 h 2.844 v -2.969 h -2.844 v -3.094 z m -8.062,2.875 c -3.545,0 -6.031,2.869 -6.031,6.344 v 0.03 c 0,3.726 2.716,6.312 6.374,6.313 2.203,0 3.835,-0.873 4.969,-2.282 l -1.969,-1.75 c -0.954,0.888 -1.809,1.25 -2.968,1.25 -1.547,0 -2.625,-0.807 -2.969,-2.375 h 8.469 c 0.03,-0.317 0.03,-0.665 0.03,-0.937 0,-3.453 -1.841,-6.594 -5.906,-6.594 z m 39.781,0 c -1.795,0 -2.972,0.834 -3.812,1.969 v -1.75 h -3.438 v 15.812 h 3.438 v -5.218 c 0.817,0.977 1.973,1.812 3.812,1.812 2.886,0 5.531,-2.214 5.531,-6.281 v -0.06 c 0,-4.066 -2.69,-6.281 -5.531,-6.281 z m 14.188,0 c -1.794,0 -2.942,0.834 -3.782,1.969 v -1.75 h -3.468 v 15.812 h 3.468 v -5.218 c 0.816,0.977 1.94,1.812 3.782,1.812 2.885,0 5.531,-2.214 5.531,-6.281 v -0.06 c 0,-4.066 -2.691,-6.281 -5.531,-6.281 z m 5.187,0.219 v 0.375 h 0.75 v 2.344 h 0.406 v -2.344 h 0.782 v -0.375 z m 2.438,0 v 2.719 h 0.406 v -2.25 l 0.812,2.25 h 0.25 l 0.813,-2.25 v 2.25 h 0.406 v -2.719 h -0.625 l -0.719,2.062 -0.718,-2.062 z m -38.188,0.375 2.094,5.156 h -4.219 z m -23.406,2.187 c 1.452,0 2.358,1.015 2.562,2.563 H 19.19 c 0.273,-1.565 1.223,-2.563 2.657,-2.563 z m 38.875,0.157 c 1.611,0 2.969,1.322 2.969,3.343 v 0.06 c 0,2.045 -1.358,3.343 -2.969,3.344 -1.611,0 -2.938,-1.322 -2.938,-3.344 v -0.06 c 0,-2.021 1.326,-3.343 2.938,-3.343 z m 14.219,0 c 1.613,0 2.968,1.322 2.968,3.343 v 0.06 c 0,2.045 -1.355,3.343 -2.968,3.344 -1.61,0 -2.969,-1.322 -2.969,-3.344 v -0.06 c 0,-2.021 1.358,-3.343 2.969,-3.343 z"></path>

</svg>
