<?xml version="1.0"?>

<!-- Generator: Adobe Illustrator 19.1.0, SVG Export Plug-In . SVG Version: 6.00 Build 0)  -->
<svg version="1.1" id="Layer_1" xmlns="http://www.w3.org/2000/svg" xmlns:xlink="http://www.w3.org/1999/xlink" x="0px" y="0px" width="404px" height="200px" viewBox="98 0 404 200" enable-background="new 98 0 404 200" xml:space="preserve">
<g>
	<path d="M399.728,139.221c-1.169,2.568-2.48,4.503-3.941,5.802c-1.454,1.296-2.935,1.945-4.428,1.945
		c-1.292,0-2.61-0.49-3.948-1.464c-1.02-0.753-1.87-1.636-2.533-2.643c-0.675-1-1.493-2.698-2.467-5.087
		c-0.974-2.386-1.643-4.594-1.993-6.62c-0.357-2.02-0.539-4.25-0.539-6.682v-7.159c0-3.464,0.474-7.003,1.422-10.62
		c0.948-3.616,2.24-6.396,3.883-8.337c1.643-1.942,3.429-2.909,5.344-2.909c2.961,0,5.506,1.98,7.642,5.948v-2.474
		c0-0.838,0.078-1.435,0.247-1.802c0.162-0.36,0.377-0.542,0.649-0.542c0.266,0,0.487,0.182,0.649,0.542
		c0.163,0.367,0.247,0.964,0.247,1.802v9.759c0,0.87-0.084,1.48-0.247,1.847c-0.162,0.36-0.383,0.542-0.649,0.542
		c-0.247,0-0.448-0.166-0.61-0.503c-0.162-0.334-0.26-0.88-0.286-1.633c-0.071-2.344-0.721-4.429-1.948-6.24
		c-1.643-2.487-3.526-3.727-5.629-3.727c-1.383,0-2.682,0.601-3.902,1.799c-0.916,0.864-1.636,1.929-2.175,3.185
		c-0.941,2.179-1.689,4.594-2.24,7.246c-0.403,1.958-0.597,4.159-0.597,6.617v6.159c0,5.253,0.968,9.808,2.896,13.678
		c1.935,3.867,4.182,5.802,6.746,5.802c1.533,0,2.909-0.659,4.13-1.967c1.214-1.315,2.39-3.299,3.532-5.954
		c0.24-0.581,0.507-0.877,0.812-0.877c0.253,0,0.461,0.156,0.617,0.461s0.234,0.698,0.234,1.175
		C400.643,136.926,400.338,137.906,399.728,139.221L399.728,139.221z M426.012,134.257c-0.967,4.006-2.299,7.129-4,9.363
		c-1.701,2.233-3.526,3.347-5.474,3.347c-2.89,0-5.428-2.406-7.63-7.224c-2.195-4.818-3.292-10.996-3.292-18.534
		c0-7.568,1.097-13.756,3.292-18.558c2.201-4.802,4.74-7.204,7.63-7.204c1.948,0,3.766,1.117,5.467,3.35
		c1.688,2.234,3.026,5.347,4,9.341c0.974,3.993,1.461,8.35,1.461,13.071C427.467,125.9,426.98,130.244,426.012,134.257
		L426.012,134.257z M423.11,105.791c-1.694-4.552-3.883-6.825-6.571-6.825c-2.513,0-4.669,2.169-6.454,6.513
		c-1.786,4.344-2.675,9.584-2.675,15.73c0,6.535,0.935,11.872,2.805,16.022c1.87,4.149,3.98,6.22,6.325,6.22
		c2.688,0,4.876-2.269,6.571-6.808c1.695-4.542,2.539-9.685,2.539-15.434C425.649,115.482,424.804,110.343,423.11,105.791
		L423.11,105.791z M455.244,145.081c-0.182,0.338-0.493,0.507-0.915,0.507h-2.39c-2.221-7.792-3.935-13.016-5.156-15.668
		c-1.214-2.649-2.61-4.721-4.188-6.201h-5.701v18.35h3.311c0.441,0,0.753,0.162,0.935,0.48c0.182,0.321,0.279,0.747,0.279,1.279
		c0,0.503-0.097,0.922-0.279,1.253c-0.182,0.338-0.494,0.507-0.935,0.507h-7.513c-0.429,0-0.734-0.169-0.915-0.507
		c-0.189-0.331-0.279-0.75-0.279-1.253c0-0.533,0.091-0.958,0.279-1.279c0.181-0.318,0.487-0.48,0.915-0.48h2.409v-41.972h-2.409
		c-0.429,0-0.734-0.163-0.915-0.481c-0.189-0.321-0.279-0.75-0.279-1.279c0-0.533,0.091-0.958,0.279-1.279
		c0.181-0.321,0.487-0.48,0.915-0.48h10.837c2.234,0,4.117,1.389,5.649,4.165c1.526,2.782,2.286,5.915,2.286,9.405
		c0,2.513-0.467,4.883-1.416,7.097c-0.948,2.224-2.526,4.071-4.746,5.552c1.279,1.734,2.377,3.688,3.286,5.866
		c0.909,2.179,2.37,6.649,4.37,13.405h1.37c0.422,0,0.734,0.162,0.915,0.48c0.188,0.321,0.279,0.747,0.279,1.279
		C455.524,144.331,455.433,144.75,455.244,145.081L455.244,145.081z M446.037,118.527c1.273-1.117,2.201-2.432,2.773-3.938
		c0.584-1.506,0.864-3.045,0.864-4.61c0-2.344-0.597-4.578-1.799-6.701c-1.201-2.12-2.662-3.182-4.383-3.182h-6.597v20.106h4.889
		C443.349,120.202,444.764,119.647,446.037,118.527L446.037,118.527z M458.92,145.588c-0.429,0-0.734-0.169-0.922-0.507
		c-0.182-0.331-0.273-0.75-0.273-1.253c0-0.533,0.091-0.958,0.273-1.279c0.188-0.318,0.493-0.48,0.922-0.48h2.409v-41.972h-2.409
		c-0.429,0-0.734-0.163-0.922-0.481c-0.182-0.321-0.273-0.75-0.273-1.279c0-0.533,0.091-0.958,0.273-1.279
		c0.188-0.321,0.493-0.48,0.922-0.48h18.837v12.103c0,0.838-0.078,1.442-0.247,1.805c-0.156,0.36-0.377,0.542-0.649,0.542
		c-0.266,0-0.487-0.182-0.649-0.542c-0.162-0.364-0.247-0.967-0.247-1.805v-8.584h-12.844v18.304h6.422v-3.98
		c0-0.838,0.084-1.435,0.26-1.802c0.169-0.36,0.389-0.542,0.656-0.542c0.26,0,0.474,0.182,0.643,0.542
		c0.169,0.367,0.26,0.964,0.26,1.802v11.48c0,0.834-0.091,1.435-0.26,1.799s-0.383,0.549-0.643,0.549
		c-0.266,0-0.487-0.185-0.656-0.549c-0.176-0.364-0.26-0.964-0.26-1.799v-3.98h-6.422v20.148h13.785V131.68
		c0-0.838,0.078-1.442,0.247-1.802c0.162-0.36,0.377-0.546,0.649-0.546c0.266,0,0.487,0.185,0.649,0.546
		c0.162,0.36,0.247,0.964,0.247,1.802v13.908L458.92,145.588L458.92,145.588z"></path>
	<path d="M321.44,99.616c-0.195,0.318-0.513,0.481-0.961,0.481h-1.584v45.491h-2.403l-13.778-43.858v40.339h3.448
		c0.461,0,0.786,0.162,0.98,0.48c0.195,0.321,0.292,0.747,0.292,1.279c0,0.503-0.097,0.922-0.292,1.253
		c-0.195,0.338-0.519,0.507-0.98,0.507h-6.883c-0.461,0-0.786-0.169-0.98-0.507c-0.189-0.331-0.292-0.75-0.292-1.253
		c0-0.533,0.104-0.958,0.292-1.279c0.195-0.318,0.519-0.48,0.98-0.48h1.558v-41.972h-2.513c-0.441,0-0.766-0.163-0.954-0.481
		c-0.201-0.321-0.299-0.75-0.299-1.279c0-0.533,0.097-0.958,0.299-1.279c0.188-0.321,0.513-0.48,0.954-0.48h4.896l13.805,43.939
		v-40.42h-3.448c-0.448,0-0.766-0.163-0.961-0.481c-0.188-0.321-0.286-0.75-0.286-1.279c0-0.533,0.091-0.958,0.279-1.279
		c0.182-0.321,0.506-0.48,0.967-0.48h6.902c0.448,0,0.766,0.159,0.961,0.48c0.188,0.321,0.286,0.747,0.286,1.279
		C321.725,98.866,321.628,99.295,321.44,99.616L321.44,99.616z M326.621,145.588c-0.441,0-0.76-0.169-0.954-0.507
		c-0.195-0.331-0.292-0.75-0.292-1.253c0-0.533,0.097-0.958,0.292-1.279c0.195-0.318,0.513-0.48,0.954-0.48h2.519v-41.972h-2.519
		c-0.441,0-0.76-0.163-0.954-0.481c-0.195-0.321-0.292-0.75-0.292-1.279c0-0.533,0.097-0.958,0.292-1.279s0.513-0.48,0.954-0.48
		h19.661v12.103c0,0.838-0.084,1.442-0.253,1.805c-0.169,0.36-0.396,0.542-0.682,0.542c-0.279,0-0.506-0.182-0.675-0.542
		c-0.176-0.364-0.26-0.967-0.26-1.805v-8.584H331.01v18.304h6.701v-3.98c0-0.838,0.091-1.435,0.266-1.802
		c0.182-0.36,0.416-0.542,0.695-0.542c0.266,0,0.487,0.182,0.669,0.542c0.175,0.367,0.26,0.964,0.26,1.802v11.48
		c0,0.834-0.084,1.435-0.26,1.799c-0.182,0.364-0.403,0.549-0.669,0.549c-0.279,0-0.513-0.185-0.695-0.549
		c-0.175-0.364-0.266-0.964-0.266-1.799v-3.98h-6.701v20.148h14.382V131.68c0-0.838,0.084-1.442,0.26-1.802
		c0.169-0.36,0.396-0.546,0.675-0.546s0.507,0.185,0.682,0.546c0.169,0.36,0.253,0.964,0.253,1.802v13.908L326.621,145.588
		L326.621,145.588z M374.664,114.128c-0.169,0.363-0.396,0.545-0.676,0.545c-0.286,0-0.513-0.182-0.682-0.545
		c-0.176-0.36-0.26-0.974-0.26-1.841v-12.191h-7.655v41.972h4.85c0.448,0,0.766,0.162,0.961,0.48
		c0.188,0.321,0.292,0.747,0.292,1.279c0,0.503-0.104,0.922-0.292,1.253c-0.195,0.338-0.513,0.507-0.961,0.507h-11.603
		c-0.442,0-0.76-0.169-0.955-0.507c-0.188-0.331-0.286-0.75-0.286-1.253c0-0.533,0.097-0.958,0.286-1.279
		c0.195-0.318,0.513-0.48,0.955-0.48h4.857v-41.972h-7.655v12.191c0,0.867-0.091,1.48-0.26,1.841
		c-0.169,0.363-0.396,0.545-0.675,0.545c-0.266,0-0.493-0.182-0.669-0.545c-0.182-0.36-0.266-0.974-0.266-1.841v-15.71h20.947v15.71
		C374.917,113.154,374.833,113.768,374.664,114.128L374.664,114.128z"></path>
	<path d="M205.725,15.656c-47.238,0-85.528,37.598-85.528,83.983c0,46.38,38.29,83.979,85.528,83.979
		c23.888,0,85.522,0.003,85.522,0.003s0-61.062,0-83.983C291.247,53.255,252.956,15.656,205.725,15.656z M205.725,55.703
		c15.999,0,28.972,13.194,28.972,29.472c0,16.275-12.973,29.466-28.972,29.466c-16.006,0-28.973-13.191-28.973-29.466
		C176.752,68.897,189.719,55.703,205.725,55.703z M244.385,141.646c-29.232,34.612-63.094,28.655-63.094,28.655
		c-47.608-6.363-50.816-57.562-50.816-57.562c-2.734-61.951,44.92-81.506,44.92-81.506c-55.757,46.488-12.207,98.187-12.207,98.187
		c23.473,27.2,59.192,10.59,59.192,10.59c31.706-11.46,40.732-47.981,40.732-47.981
		C261.943,123.731,244.385,141.646,244.385,141.646z"></path>
</g>
</svg>
