<svg
 xmlns="http://www.w3.org/2000/svg"
 width="600" height="120"
 viewbox="0 0 600 120">
<path class="logotext" d="m 580.4071,101.289 -53.79972,0 0,-92.289 53.79972,0 0,6.202 -47.04488,0 0,36.464 40.05102,0 0,6.202 -40.05102,0 0,37.217 47.04488,0 m -121.64811,-74.058 0,80.262 -6.86571,0 0,-92.289 6.86571,0 52.01622,79.948 0,-79.948 6.87147,0 0,92.289 -6.87147,0 z M 436.23678,9 l 0,92.289 5.96916,0 0,-92.289 -5.96916,0 0,0 z m 0,0 m -9.32739,59.909 c 0,9.378 -2.35176,16.687 -7.04329,21.92 -2.86819,3.318 -6.29457,5.893 -10.27769,7.722 -3.97928,1.823 -8.17694,2.738 -12.60017,2.738 -4.14199,0 -8.10111,-0.808 -11.88265,-2.426 -3.7777,-1.619 -7.08025,-3.903 -9.90909,-6.851 -2.58886,-2.696 -4.43763,-5.544 -5.55256,-8.536 -1.11493,-2.987 -1.81038,-6.409 -2.09163,-10.274 -0.27885,-3.859 -0.5913,-9.876 -0.5913,-18.056 0,-8.181 0.31245,-14.199 0.5913,-18.062 0.28125,-3.861 0.9767,-7.286 2.09163,-10.277 1.11493,-2.989 2.96418,-5.833 5.55256,-8.533 2.82932,-2.944 6.12275,-5.232 9.87981,-6.85 C 388.83577,9.806 392.80978,9 396.98872,9 c 7.64467,0 14.17009,2.415 19.58971,7.252 5.41434,4.84 8.77784,11.262 10.09051,19.276 l -6.62574,0 c -0.7948,-4.069 -2.29801,-7.669 -4.50435,-10.805 -2.20825,-3.136 -4.88927,-5.52 -8.05311,-7.161 -3.16384,-1.637 -6.66797,-2.461 -10.5215,-2.461 -3.10289,0 -6.07619,0.585 -8.91463,1.745 -2.84755,1.162 -5.38074,2.906 -7.61059,5.234 -1.54785,1.618 -2.74821,3.299 -3.60588,5.044 -0.85047,1.742 -1.52193,3.942 -1.99516,6.599 -0.47899,2.658 -0.77464,5.689 -0.89511,9.097 -0.11999,3.399 -0.17758,7.511 -0.17758,12.326 0,7.185 0.13486,12.657 0.41036,16.41 0.28893,3.758 0.90087,6.942 1.85837,9.56 0.95222,2.619 2.42232,4.965 4.405,7.037 2.19674,2.284 4.7208,4.027 7.58324,5.232 2.85667,1.208 5.83957,1.801 8.94246,1.801 3.49885,0 6.82539,-0.751 9.99068,-2.27 3.15856,-1.512 5.84917,-3.68 8.08094,-6.506 1.86222,-2.407 3.20656,-5.021 4.02536,-7.846 0.81016,-2.824 1.21668,-6.209 1.21668,-10.153 l 0,-8.153 -23.31366,0 0,-6.107 29.94515,0 0,14.758 -4.8e-4,0 0,0 m -128.16537,-47.882 0,80.262 -6.86523,0 0,-92.289 6.86523,0 52.01814,79.948 0,-79.948 6.86955,0 0,92.289 -6.86955,0 z m -16.3678,80.262 -53.79876,0 0,-92.289 53.79876,0 0,6.202 -47.05015,0 0,36.464 40.05822,0 0,6.202 -40.05822,0 0,37.217 47.05015,0 m -62.22527,-65.893 -21.94004,0 0,72.097 -21.8762,0 0,-72.097 -21.9362,0 0,-20.192 65.75244,0 m -132.473899,0 59.774159,0 0,20.192 -38.18113,0 0,15.446 32.63097,0 0,20.192 -32.63097,0 0,16.271 38.18113,0 0,20.188 -59.774159,0 z m -56.113086,45.893 0,46.396 -22.563975,0 0,-92.289 19.735139,0 29.429685,46.4 0,-46.4 22.563015,0 0,92.289 -19.72842,0 z">
</path>
</svg>