<?xml version="1.0"?>

<svg xmlns="http://www.w3.org/2000/svg" viewBox="0 0 344 125.2" height="125.2" width="344">
 
  <path d="m 225.6,82.57 0,-60.57 -13,0 0,60.06 0,11.71 0,0 c 10.2,0.51 20.6,1.01 30.5,1.52 l 0,0 0,-3.81 0,-7.89 c -5.8,-0.51 -11.7,-0.77 -17.5,-1.02 M 107.8,33.7 l 0,-11.7 -30.57,0 0,63.37 0,11.7 0,0 c 10.18,-0.76 20.36,-1.52 30.57,-2.29 l 0,0 0,-3.3 0,-8.4 c -5.9,0.25 -11.74,0.76 -17.59,1.27 l 0,-18.83 15.29,0 0,-11.96 -15.29,0 0,-19.86 17.59,0 z m -73.58,68 0,-44.84 15.27,43.01 c 4.58,-0.5 9.16,-1.01 14,-1.52 l 0,-76.35 -12.47,0 0,46.32 L 34.73,22 34.22,22 22,22 l 0,81.2 0,0 c 4.07,-0.5 8.14,-1 12.22,-1.5 m 97.98,-7.93 c 4.3,-0.26 8.6,-0.26 13,-0.51 l 0,-59.56 11.9,0 0,-11.7 -36.9,0 0,11.7 12,0 0,60.07 z M 172.1,93 c 3.3,0 6.9,0 10.2,0 l 0,-27.48 15.5,0 0,-11.96 -15.5,0 0,-19.86 17.8,0 0,-11.7 -30.5,0 0,71 c 0.8,0 1.5,0 2.5,0 m 96.2,4.33 0,-75.33 -12.7,0 0,74.06 c 4.1,0.51 8.4,0.76 12.7,1.27 m 9.7,0.76 c 4.1,0.51 8.4,0.77 12.5,1.28 l 9.1,-22.65 9,24.68 c 4.3,0.8 8.9,1.3 13.4,1.8 L 306.5,59.66 322,22 l -12.9,0 -0.3,0 -8.4,20.61 -7.1,-20.61 -13,0 13.5,37.41 -15.8,38.68 z"></path>
   
</svg>
