<?xml version="1.0"?>

<svg xmlns="http://www.w3.org/2000/svg" height="128.4" width="687" viewBox="0 0 687 128.4">
  <path d="M 22.85,103 H 43.01 V 55.47 h 0.22 L 80.15,103 H 100.3 V 25.44 H 80.15 v 47.4 H 79.94 L 43.01,25.44 H 22.85 V 103 M 178.7,42.52 V 25.44 H 134.5 V 103 h 44.2 V 85.93 h -24 v -13.4 h 22.7 V 55.47 H 154.7 V 42.52 h 24 m 67.7,0 h 16.7 V 25.44 h -53.5 v 17.08 h 16.6 V 103 h 20.2 V 42.52 m 79.3,17.18 v 15.83 h 16.4 C 341.3,84.47 334.6,89 325.9,89 312.6,89 305.4,76.77 305.4,64.73 c 0,-11.82 6.9,-24.48 20.2,-24.48 8.1,0 14,4.93 16.7,12.33 l 19.2,-8.01 c -6.7,-14.51 -19.1,-21.72 -35,-21.72 -25,0 -42.1,16.57 -42.1,41.78 0,24.37 17,40.97 41.4,40.97 12.9,0 24.3,-4.7 32,-15.26 6.9,-9.66 7.7,-19.32 7.9,-30.64 h -40 M 442.2,42.52 V 25.44 H 398 V 103 h 44.2 V 85.93 h -24 v -13.4 h 22.7 V 55.47 H 418.2 V 42.52 h 24 m 81.5,46.85 5,13.43 h 21.6 L 521,25.28 h -22 l -29.8,77.52 h 21.4 l 5.3,-13.43 h 27.8 m -5.4,-15.44 h -16.8 l 8.3,-24.7 h 0.2 z m 99.1,-2.72 c 11,-1.95 17,-11.2 17,-21.91 0,-16.56 -11.6,-23.86 -27,-23.86 H 577.3 V 103 h 20.2 V 73.17 h 0.2 l 19,29.83 h 25.1 L 617.4,71.21 M 597.5,40.86 h 1.9 c 6.6,0 14,1.22 14,9.67 0,8.45 -7.4,9.67 -14,9.67 h -1.9 z M 651.8,29.42 V 39.7 h 2.8 v -4.06 h 0.8 l 2,4.06 h 3.1 l -2.3,-4.51 c 1.4,-0.42 2.2,-1.45 2.2,-2.77 0,-1.93 -1.5,-3 -4.5,-3 z m 2.8,1.78 h 0.9 c 1.3,0 2,0.4 2,1.41 0,0.9 -0.7,1.33 -1.9,1.33 h -1 z m 1.1,-5.42 c -5,0 -9,4.03 -9,9 0,4.96 4,9 9,9 5,0 9,-4.04 9,-9 0,-4.97 -4,-9 -9,-9 z m 0,1 c 4.4,0 8,3.58 8,8 0,4.42 -3.6,8 -8,8 -4.4,0 -8,-3.58 -8,-8 0,-4.42 3.6,-8 8,-8 z"></path>
</svg>
