<?xml version="1.0"?>

<!-- Generator: Adobe Illustrator 19.1.0, SVG Export Plug-In . SVG Version: 6.00 Build 0)  -->
<svg version="1.1" id="Capa_1" xmlns="http://www.w3.org/2000/svg" xmlns:xlink="http://www.w3.org/1999/xlink" x="0px" y="0px" width="841.89px" height="186px" viewBox="21 58 841.89 186" enable-background="new 21 58 841.89 186" xml:space="preserve">
<path d="M249.578,114.9h23.377l-0.93,11.396l0.529,0.057c4.593-8.151,14.896-12.242,30.901-12.242
	c23.288,0,34.951,7.461,34.951,22.388v46.104h-23.608v-37.782v-2.539l-0.508-4.752c-1.11-5.055-6.872-7.573-17.315-7.573
	c-15.877,0-23.81,5.161-23.81,15.506v37.141h-23.586V114.9H249.578z"></path>
<path d="M411.439,159.917h23.126v2.561c0,12.904-14.074,19.356-42.243,19.356c-19.117,0-31.631-2.234-37.532-6.705
	c-5.892-4.479-8.853-13.954-8.853-28.426c0-12.875,3.091-21.528,9.264-25.949c6.172-4.429,18.205-6.643,36.12-6.643
	c17.156,0,28.669,2.159,34.492,6.46c5.842,4.314,8.752,12.796,8.752,25.42v8.715h-65.08c-0.141,1.477-0.201,2.449-0.201,2.907
	c0,6.502,1.46,6.982,4.382,9.152c2.901,2.165,8.723,3.243,17.446,3.243c8.452,0,13.945-0.642,16.505-1.911
	C410.167,166.828,411.439,164.099,411.439,159.917z M411.638,141.148l-0.089-2.619c0-5.252-1.34-6.092-3.991-7.664
	c-2.651-1.56-8.402-2.349-17.245-2.349c-8.593,0-14.174,0.947-16.755,2.842c-2.592,1.889-3.871,3.44-3.871,9.789h41.951V141.148z"></path>
<path d="M514.881,116.27v16.916h-37.683v27.058c0,6.112,3.451,9.165,10.335,9.165c7.572,0,11.363-3.693,11.363-11.093v-2.63h19.974
	v3.316c0,3.024-0.139,5.633-0.409,7.796c-1.3,10.063-12.433,15.094-33.382,15.094c-20.904,0-31.348-6.453-31.348-19.378v-29.328
	h-12.683V116.27h12.683v-15.895h23.467v15.895H514.881z"></path>
<path d="M547.472,100.375v81.438h-21.397v-81.438H547.472z"></path>
<g>
	<path d="M840.232,136.528h-22.366c-0.132-0.542-0.24-0.96-0.302-1.229c-0.468-3.123-1.769-3.461-3.919-4.243
		c-2.173-0.771-7.413-1.15-15.737-1.15c-11.911,0-17.795,1.029-17.893,6.271c-0.042,2.791,0.931,3.511,3.14,3.821
		c2.192,0.29,9.216,1.22,21.326,1.621c16.317,0.543,26.921,2.022,31.859,4.422c4.911,2.398,7.394,7.312,7.394,14.736
		c0,7.92-3.281,13.412-9.844,16.462c-6.542,3.063-18.324,4.595-35.291,4.595c-16.314,0-27.468-1.395-33.46-4.152
		c-5.983-2.764-8.983-11.783-8.983-19.349v-1.617h23.767c-0.34,0.897-0.32,1.878-0.22,2.42c1.131,6.17,8.293,6.981,22.258,6.981
		c14.444,0,18.534-1.451,18.587-7.163c0.066-4.33-4.172-3.93-13.567-4.372c-20.415-0.925-33.9-1.299-40.392-3.92
		c-6.482-2.631-9.733-8.09-9.733-16.375c0-7.42,2.95-12.441,8.881-15.085c5.924-2.621,17.306-3.928,34.162-3.928
		c15.896,0,26.599,1.277,32.101,3.808C837.494,121.614,840.232,129.146,840.232,136.528z"></path>
</g>
<path d="M184.157,97.675c26.299,14.476-7.902,55.7-17.536,63.16c31.131-57.899-28.498-49.996-37.272-47.816
	c-74.984,20.167-88.587,62.723-88.587,62.723C60.937,102.497,157.839,83.203,184.157,97.675z"></path>
<path d="M80.744,201.939c-26.309-14.476,7.892-55.687,17.535-63.148c-31.129,57.874,28.509,49.996,37.272,47.804
	c74.995-20.176,88.579-62.718,88.579-62.718C203.952,197.108,107.053,216.402,80.744,201.939z"></path>
<path d="M738.502,124.645c-5.15-4.893-12.566-7.613-26.44-7.613c-16.166,0-26.258,3.671-30.229,11.013l-0.501-6.2v-21.54h-23.147
	v81.219h23.147l-1.011-11.014h0.512c4.711,7.891,14.572,11.804,29.61,11.804c14.823,0,24.846-2.522,30.067-7.614
	c5.234-5.071,4.892-14.216,4.892-28.629C745.402,132.846,743.653,129.526,738.502,124.645z M723.986,151.625
	c0,7.072-5.781,12.851-12.862,12.851h-15.718c-7.07,0-12.861-5.778-12.861-12.851v-3.632c0-7.065,5.791-12.876,12.861-12.876h15.718
	c7.081,0,12.862,5.811,12.862,12.876V151.625z"></path>
<path d="M636.129,119.054c-5.972-3.293-17.425-4.943-34.361-4.943c-15.555,0-25.968,1.353-31.219,4.032
	c-5.262,2.709-7.884,9.323-7.884,17.326h23.058c0-6.233,5.73-6.763,17.225-6.763c7.945,0,13.195,0.84,15.757,2.54
	c2.552,1.692,3.83,5.141,3.83,10.345v5.649h-0.39c-3.341-5.07-12.793-6.142-28.359-6.142c-23.296,0-34.959,6.742-34.959,20.598
	c0,13.695,11.382,20.548,34.168,20.548c15.697,0,25.71-3.334,30.041-9.963l0.588,0.057l-1.089,9.125h22.567v-43.524
	C645.102,128.646,642.102,122.354,636.129,119.054z M615.222,167.175h-25.108c-3.201,0-5.791-3.158-5.791-6.359
	c0-3.202,2.621-5.882,5.791-6.221h25.108c3.192,0,5.803,3.019,5.803,6.221C621.024,164.017,618.414,167.175,615.222,167.175z"></path>
</svg>
