<?xml version="1.0"?>

<svg xmlns="http://www.w3.org/2000/svg" viewBox="0 0 445 162" height="162" width="445">
  <path d="m 402.8,125.9 c -0.9,2.4 -1.7,3.2 -3.4,3.2 -0.5,0 -1,0 -1.4,-0.2 l 0,-1.8 c 0.4,0.1 0.8,0.3 1.2,0.3 0.8,0 1.2,-0.4 1.6,-1.1 l 0.8,-2 -4.8,-12 2.3,0 3.5,9.8 0,0 3.4,-9.8 2.1,0 -5.3,13.6 z m -17.8,-13.6 1.8,0 0,1.9 0.1,0 c 0.8,-1.4 2.1,-2.1 3.9,-2.1 3.1,0 4.1,1.8 4.1,4.3 l 0,7.9 -2,0 0,-8.1 c 0,-1.5 -0.9,-2.4 -2.4,-2.4 -2.4,0 -3.6,1.6 -3.6,3.8 l 0,6.7 -1.9,0 0,-12 z m -2.2,12 c -0.3,0.2 -0.7,0.3 -1.4,0.3 -1,0 -1.6,-0.5 -1.6,-1.8 -1.1,1.2 -2.6,1.8 -4.3,1.8 -2.1,0 -3.9,-1 -3.9,-3.4 0,-2.7 2,-3.2 4,-3.6 2.2,-0.5 4.1,-0.3 4.1,-1.8 0,-1.7 -1.4,-2 -2.7,-2 -1.7,0 -2.9,0.5 -3,2.3 l -2,0 c 0.1,-3 2.4,-4 5.1,-4 2.2,0 4.5,0.4 4.5,3.3 l 0,6.1 c 0,1 0,1.4 0.6,1.4 0.2,0 0.4,-0.1 0.6,-0.1 l 0,1.5 z m -3.2,-6.2 0,0 c -0.7,0.6 -2.2,0.6 -3.5,0.8 -1.3,0.3 -2.4,0.7 -2.4,2.2 0,1.3 1.1,1.8 2.3,1.8 2.6,0 3.6,-1.7 3.6,-2.7 l 0,-2.1 z m -21.4,-5.8 2,0 0,1.7 0.1,0 c 0.6,-1.4 2.1,-1.9 3.8,-1.9 3.7,0 5.5,2.9 5.5,6.3 0,3.4 -1.8,6.2 -5.5,6.2 -1.2,0 -2.9,-0.5 -3.8,-1.9 l -0.1,0 0,6.2 -2,0 0,-16.6 z m 5.6,1.5 0,0 c -2.6,0 -3.6,2.3 -3.6,4.5 0,2.4 1,4.6 3.7,4.6 2.7,0 3.6,-2.3 3.6,-4.7 0,-2.2 -1.1,-4.4 -3.7,-4.4 m -25.7,-1.5 1.9,0 0,1.8 0,0 c 0.9,-1.3 2.2,-2 3.9,-2 1.4,0 2.8,0.5 3.3,2 0.8,-1.3 2.2,-2 3.7,-2 2.4,0 4,1 4,3.4 l 0,8.8 -1.9,0 0,-7.8 c 0,-1.5 -0.4,-2.7 -2.4,-2.7 -1.9,0 -3.1,1.2 -3.1,3.1 l 0,7.4 -2,0 0,-7.8 c 0,-1.6 -0.5,-2.7 -2.2,-2.7 -2.4,0 -3.2,2.2 -3.2,3.1 l 0,7.4 -2,0 0,-12 z m -8.4,-0.2 c 3.8,0 5.8,2.7 5.8,6.2 0,3.5 -2,6.3 -5.8,6.3 -3.8,0 -5.8,-2.8 -5.8,-6.3 0,-3.5 2,-6.2 5.8,-6.2 z m 0,10.8 0,0 c 2,0 3.7,-1.7 3.7,-4.6 0,-2.9 -1.7,-4.5 -3.7,-4.5 -2.1,0 -3.8,1.6 -3.8,4.5 0,2.9 1.7,4.6 3.8,4.6 m -10.2,-10.1 c -0.5,-2.4 -2.4,-3.6 -4.7,-3.6 -3.9,0 -5.6,3.3 -5.6,6.7 0,3.8 1.7,7 5.6,7 2.9,0 4.6,-2.1 4.8,-4.8 l 2.2,0 c -0.4,4.1 -3,6.6 -7.2,6.6 -5.1,0 -7.6,-3.8 -7.6,-8.6 0,-4.8 2.7,-8.7 7.8,-8.7 3.5,0 6.3,1.8 6.9,5.4 l -2.2,0 z m -29.4,7.7 c 0,1.8 1.6,2.4 3.2,2.4 1.2,0 2.9,-0.3 2.9,-1.8 0,-1.5 -1.9,-1.8 -3.9,-2.2 -2,-0.5 -3.9,-1.1 -3.9,-3.4 0,-2.4 2.3,-3.4 4.4,-3.4 2.7,0 4.8,0.8 5,3.7 l -2,0 c -0.2,-1.5 -1.5,-2 -2.8,-2 -1.2,0 -2.6,0.3 -2.6,1.5 0,1.4 2.1,1.7 4,2.1 1.9,0.5 3.9,1.1 3.9,3.4 0,2.9 -2.7,3.8 -5.1,3.8 -2.7,0 -5,-1.1 -5.1,-4.1 l 2,0 z m -14.4,-8.2 1.8,0 0,1.9 0.1,0 c 0.8,-1.4 2.2,-2.1 3.9,-2.1 3.1,0 4.1,1.8 4.1,4.3 l 0,7.9 -2,0 0,-8.1 c 0,-1.5 -0.9,-2.4 -2.4,-2.4 -2.4,0 -3.5,1.6 -3.5,3.8 l 0,6.7 -2,0 0,-12 z m -8.4,-0.2 c 3.8,0 5.8,2.7 5.8,6.2 0,3.5 -2,6.3 -5.8,6.3 -3.8,0 -5.9,-2.8 -5.9,-6.3 0,-3.5 2.1,-6.2 5.9,-6.2 z m 0,10.8 0,0 c 2,0 3.7,-1.7 3.7,-4.6 0,-2.9 -1.7,-4.5 -3.7,-4.5 -2.1,0 -3.8,1.6 -3.8,4.5 0,2.9 1.7,4.6 3.8,4.6 m -8.5,-12.7 -2,0 0,-2.4 2,0 0,2.4 z m -2,2.1 0,0 2,0 0,12 -2,0 0,-12 z m -5,0 2.4,0 0,1.8 -2.4,0 0,7.4 c 0,0.9 0.3,1.1 1.5,1.1 l 0.9,0 0,1.7 -1.5,0 c -2,0 -2.9,-0.4 -2.9,-2.6 l 0,-7.6 -2,0 0,-1.8 2,0 0,-3.6 2,0 0,3.6 z m -4.8,12 c -0.4,0.2 -0.8,0.3 -1.5,0.3 -1,0 -1.6,-0.5 -1.6,-1.8 -1.1,1.2 -2.6,1.8 -4.2,1.8 -2.2,0 -4,-1 -4,-3.4 0,-2.7 2,-3.2 4,-3.6 2.2,-0.5 4.1,-0.3 4.1,-1.8 0,-1.7 -1.4,-2 -2.7,-2 -1.7,0 -2.9,0.5 -3,2.3 l -1.9,0 c 0.1,-3 2.4,-4 5,-4 2.2,0 4.5,0.4 4.5,3.3 l 0,6.1 c 0,1 0,1.4 0.7,1.4 0.1,0 0.3,-0.1 0.6,-0.1 l 0,1.5 z m -3.2,-6.2 0,0 c -0.8,0.6 -2.3,0.6 -3.6,0.8 -1.3,0.3 -2.4,0.7 -2.4,2.2 0,1.3 1.1,1.8 2.3,1.8 2.6,0 3.7,-1.7 3.7,-2.7 l 0,-2.1 z m -12.1,-1.9 c -0.3,-1.5 -1.3,-2.4 -2.9,-2.4 -2.9,0 -3.8,2.2 -3.8,4.7 0,2.2 1,4.4 3.5,4.4 1.9,0 3.1,-1.1 3.3,-3 l 2,0 c -0.4,3 -2.2,4.7 -5.2,4.7 -3.7,0 -5.7,-2.5 -5.7,-6.1 0,-3.6 1.9,-6.4 5.7,-6.4 2.7,0 4.9,1.2 5.2,4.1 l -2.1,0 z m -11.4,-6 -2,0 0,-2.4 2,0 0,2.4 z m -2,2.1 0,0 2,0 0,12 -2,0 0,-12 z m -13.3,0 1.8,0 0,1.9 0.1,0 c 0.8,-1.4 2.2,-2.1 3.9,-2.1 3.1,0 4.1,1.8 4.1,4.3 l 0,7.9 -2,0 0,-8.1 c 0,-1.5 -0.9,-2.4 -2.4,-2.4 -2.4,0 -3.5,1.6 -3.5,3.8 l 0,6.7 -2,0 0,-12 z m -3.3,12 -1.8,0 0,-1.9 -0.1,0 c -0.8,1.5 -2.1,2.2 -3.9,2.2 -3.1,0 -4.1,-1.8 -4.1,-4.4 l 0,-7.9 2,0 0,8.2 c 0,1.4 0.9,2.4 2.4,2.4 2.4,0 3.6,-1.6 3.6,-3.8 l 0,-6.8 1.9,0 0,12 z m -30,-12 1.9,0 0,1.8 0,0 c 0.9,-1.3 2.3,-2 3.9,-2 1.5,0 2.8,0.5 3.3,2 0.8,-1.3 2.2,-2 3.8,-2 2.4,0 4,1 4,3.4 l 0,8.8 -2,0 0,-7.8 c 0,-1.5 -0.4,-2.7 -2.3,-2.7 -1.9,0 -3.2,1.2 -3.2,3.1 l 0,7.4 -1.9,0 0,-7.8 c 0,-1.6 -0.5,-2.7 -2.3,-2.7 -2.3,0 -3.2,2.2 -3.2,3.1 l 0,7.4 -2,0 0,-12 z m -20,0 1.8,0 0,1.8 0.1,0 c 0.8,-1.3 2.2,-2 3.8,-2 1.5,0 2.8,0.5 3.3,2 0.8,-1.3 2.3,-2 3.8,-2 2.4,0 4,1 4,3.4 l 0,8.8 -2,0 0,-7.8 c 0,-1.5 -0.4,-2.7 -2.3,-2.7 -1.9,0 -3.1,1.2 -3.1,3.1 l 0,7.4 -2,0 0,-7.8 c 0,-1.6 -0.5,-2.7 -2.3,-2.7 -2.3,0 -3.2,2.2 -3.2,3.1 l 0,7.4 -1.9,0 0,-12 z m -8.5,-0.2 c 3.8,0 5.9,2.7 5.9,6.2 0,3.5 -2.1,6.3 -5.9,6.3 -3.8,0 -5.8,-2.8 -5.8,-6.3 0,-3.5 2,-6.2 5.8,-6.2 z m 0,10.8 0,0 c 2.1,0 3.8,-1.7 3.8,-4.6 0,-2.9 -1.7,-4.5 -3.8,-4.5 -2,0 -3.7,1.6 -3.7,4.5 0,2.9 1.7,4.6 3.7,4.6 M 133,112.8 c -0.5,-2.4 -2.3,-3.6 -4.6,-3.6 -4,0 -5.6,3.3 -5.6,6.7 0,3.8 1.6,7 5.6,7 2.9,0 4.6,-2.1 4.8,-4.8 l 2.2,0 c -0.4,4.1 -3,6.6 -7.2,6.6 -5.1,0 -7.7,-3.8 -7.7,-8.6 0,-4.8 2.8,-8.7 7.9,-8.7 3.4,0 6.3,1.8 6.8,5.4 l -2.2,0 z m -28.2,-3.2 -5.53,0 0,-1.8 13.23,0 0,1.8 -5.5,0 0,14.7 -2.2,0 0,-14.7 z m -13.61,0 -5.52,0 0,-1.8 13.25,0 0,1.8 -5.52,0 0,14.7 -2.21,0 0,-14.7 z m -20.81,-1.8 2.34,0 8.73,13.4 0,0 0,-13.4 2.08,0 0,16.5 -2.41,0 -8.65,-13.3 0,0 0,13.3 -2.09,0 0,-16.5 z m -20.21,4.5 1.86,0 0,1.9 0,0 c 0.84,-1.4 2.18,-2.1 3.9,-2.1 3.16,0 4.13,1.8 4.13,4.3 l 0,7.9 -1.97,0 0,-8.1 c 0,-1.5 -0.93,-2.4 -2.44,-2.4 -2.39,0 -3.55,1.6 -3.55,3.8 l 0,6.7 -1.97,0 0,-12 z m -10.49,-4.5 2.44,0 6.47,16.5 -2.44,0 -1.81,-5 -7,0 -1.86,5 -2.27,0 6.47,-16.5 z m -1.65,9.7 0,0 5.62,0 -2.76,-7.7 0,0 -2.81,7.7 z M 407.3,43.16 c -2.8,0 -5.1,-2.28 -5.1,-5.08 0,-2.8 2.3,-5.08 5.1,-5.08 2.8,0 5.1,2.28 5.1,5.08 0,2.8 -2.3,5.08 -5.1,5.08 z m 0,-9.61 0,0 c -2.5,0 -4.5,2.03 -4.5,4.53 0,2.5 2,4.53 4.5,4.53 2.5,0 4.5,-2.03 4.5,-4.53 0,-2.5 -2,-4.53 -4.5,-4.53 m -2.3,1.38 3,0 c 1.2,0 1.9,0.64 1.9,1.65 0,0.76 -0.3,1.38 -1.1,1.6 l 0,0 c 0.7,0.14 0.9,0.68 0.9,1.3 0.1,0.62 0.1,1.3 0.4,1.74 l -0.9,0 c -0.3,-0.26 -0.1,-0.94 -0.3,-1.55 0,-0.62 -0.2,-1.14 -1,-1.14 l -2.1,0 0,2.69 -0.8,0 0,-6.3 z m 2.6,2.9 0,0 c 0.8,0 1.4,-0.2 1.4,-1.12 0,-0.61 -0.3,-1.08 -1.1,-1.08 l -2.1,0 0,2.2 1.8,0 z m -10.2,14.14 c -1.7,-1.38 -3.9,-2.06 -6.6,-2.06 -2.4,0 -4.3,0.43 -5.9,1.3 -1.6,0.86 -2.8,2.02 -3.8,3.44 -0.9,1.43 -1.6,3.08 -2,4.94 -0.4,1.86 -0.6,3.79 -0.6,5.77 0,1.85 0.2,3.63 0.6,5.37 0.4,1.73 1.1,3.27 2,4.63 1,1.35 2.2,2.43 3.6,3.25 1.5,0.81 3.3,1.23 5.3,1.23 3.2,0 5.8,-0.85 7.6,-2.53 1.8,-1.69 2.9,-4.06 3.3,-7.11 l 6.7,0 c -0.8,4.89 -2.6,8.67 -5.5,11.32 -3,2.65 -6.9,3.98 -12,3.98 -3,0 -5.7,-0.49 -8,-1.46 -2.3,-0.97 -4.3,-2.34 -5.8,-4.13 -1.6,-1.78 -2.8,-3.92 -3.5,-6.39 -0.8,-2.47 -1.2,-5.2 -1.2,-8.16 0,-2.95 0.3,-5.71 1.1,-8.3 0.8,-2.57 1.9,-4.82 3.5,-6.73 1.6,-1.91 3.5,-3.42 5.9,-4.52 2.3,-1.1 5,-1.65 8.1,-1.65 2.3,0 4.4,0.28 6.4,0.8 1.9,0.54 3.7,1.37 5.2,2.49 1.5,1.13 2.7,2.54 3.7,4.25 1,1.71 1.6,3.74 1.8,6.09 l -6.7,0 c -0.5,-2.5 -1.6,-4.44 -3.2,-5.82 m -33.8,32.69 -6.5,0 0,-39.58 6.5,0 0,39.58 z m -29.4,-6.63 c 1.5,-0.89 2.7,-2.06 3.6,-3.51 0.9,-1.46 1.6,-3.11 2,-4.95 0.5,-1.83 0.7,-3.67 0.7,-5.5 0,-1.74 -0.2,-3.45 -0.6,-5.13 -0.4,-1.69 -1.1,-3.21 -2,-4.56 -0.9,-1.35 -2,-2.43 -3.4,-3.25 -1.5,-0.81 -3.2,-1.23 -5.3,-1.23 -2,0 -3.8,0.4 -5.3,1.2 -1.5,0.78 -2.7,1.83 -3.7,3.17 -0.9,1.33 -1.6,2.86 -2,4.59 -0.4,1.74 -0.7,3.54 -0.7,5.44 0,1.78 0.2,3.57 0.6,5.35 0.3,1.79 0.9,3.41 1.8,4.87 0.9,1.45 2,2.62 3.5,3.52 1.4,0.89 3.2,1.33 5.3,1.33 2.1,0 4,-0.44 5.5,-1.34 z m 8.3,17.81 0,0 c -3,3.22 -7.6,4.86 -13.9,4.86 -1.9,0 -3.8,-0.2 -5.7,-0.6 -1.9,-0.46 -3.6,-1.13 -5.2,-2.05 -1.5,-0.92 -2.8,-2.11 -3.8,-3.6 -1.1,-1.47 -1.6,-3.28 -1.7,-5.43 l 6.5,0 c 0,1.18 0.4,2.18 1.1,2.99 0.7,0.81 1.5,1.48 2.5,1.98 1,0.51 2.1,0.89 3.3,1.12 1.1,0.23 2.3,0.34 3.3,0.34 2.2,0 4,-0.36 5.5,-1.11 1.5,-0.74 2.7,-1.75 3.7,-3.06 0.9,-1.3 1.6,-2.87 2.1,-4.71 0.4,-1.83 0.6,-3.85 0.6,-6.04 l 0,-2.62 -0.1,0 c -1.2,2.46 -2.9,4.26 -5.1,5.4 -2.3,1.16 -4.7,1.73 -7.3,1.73 -2.9,0 -5.5,-0.53 -7.7,-1.6 -2.2,-1.08 -4,-2.51 -5.5,-4.33 -1.5,-1.81 -2.6,-3.93 -3.3,-6.35 -0.8,-2.43 -1.2,-4.98 -1.2,-7.7 0,-2.35 0.3,-4.75 1,-7.23 0.6,-2.47 1.6,-4.73 3,-6.73 1.5,-2.02 3.3,-3.68 5.7,-4.98 2.3,-1.31 5.2,-1.97 8.6,-1.97 2.5,0 4.8,0.56 6.9,1.66 2.1,1.1 3.8,2.74 4.9,4.93 l 0.1,0 0,-5.66 6.1,0 0,36.21 c 0,6.48 -1.4,11.33 -4.4,14.55 M 293,65.55 c -1.4,0.29 -2.8,0.52 -4.2,0.69 -1.5,0.18 -2.9,0.39 -4.4,0.62 -1.5,0.23 -2.8,0.6 -4,1.11 -1.2,0.51 -2.1,1.24 -2.9,2.18 -0.7,0.95 -1.1,2.24 -1.1,3.87 0,1.08 0.2,1.97 0.7,2.71 0.4,0.74 1,1.35 1.7,1.81 0.7,0.45 1.5,0.78 2.4,0.99 0.9,0.2 1.9,0.31 2.9,0.31 2.1,0 4,-0.3 5.5,-0.89 1.5,-0.58 2.8,-1.32 3.7,-2.22 1,-0.88 1.7,-1.86 2.2,-2.9 0.4,-1.04 0.7,-2.03 0.7,-2.95 l 0,-6.66 c -0.8,0.61 -1.9,1.06 -3.2,1.33 z m 9.1,19.95 0,0 c -1.7,0 -3.1,-0.48 -4,-1.42 -1,-0.94 -1.5,-2.48 -1.5,-4.63 -1.8,2.15 -3.9,3.69 -6.3,4.63 -2.4,0.94 -4.9,1.42 -7.7,1.42 -1.8,0 -3.4,-0.19 -5,-0.57 -1.6,-0.39 -3,-1.02 -4.2,-1.92 -1.2,-0.89 -2.1,-2.04 -2.8,-3.43 -0.7,-1.41 -1.1,-3.12 -1.1,-5.1 0,-2.25 0.4,-4.09 1.2,-5.51 0.7,-1.43 1.7,-2.59 3,-3.49 1.3,-0.89 2.7,-1.56 4.3,-2.02 1.6,-0.46 3.3,-0.85 4.9,-1.16 1.8,-0.35 3.5,-0.62 5.1,-0.81 1.6,-0.16 3,-0.42 4.3,-0.75 1.2,-0.33 2.2,-0.82 2.9,-1.46 0.7,-0.64 1.1,-1.57 1.1,-2.79 0,-1.43 -0.3,-2.58 -0.9,-3.45 -0.5,-0.86 -1.2,-1.53 -2,-1.99 -0.9,-0.46 -1.8,-0.77 -2.9,-0.92 -1,-0.15 -2,-0.23 -3.1,-0.23 -2.7,0 -5,0.53 -6.8,1.58 -1.9,1.04 -2.9,3.01 -3,5.92 l -6.5,0 c 0.1,-2.44 0.6,-4.51 1.5,-6.19 0.9,-1.69 2.1,-3.05 3.7,-4.1 1.5,-1.05 3.3,-1.8 5.3,-2.26 1.9,-0.45 4,-0.69 6.2,-0.69 1.8,0 3.6,0.13 5.3,0.38 1.8,0.26 3.4,0.78 4.8,1.58 1.5,0.79 2.6,1.9 3.5,3.32 0.8,1.43 1.3,3.29 1.3,5.58 l 0,20.38 c 0,1.52 0.1,2.65 0.2,3.37 0.2,0.71 0.8,1.07 1.8,1.07 0.6,0 1.3,-0.14 2,-0.39 l 0,5.05 c -1.1,0.67 -2.6,1 -4.6,1 m -89.6,-40.42 0,5.82 0.2,0 c 2.9,-4.49 7.2,-6.74 12.7,-6.74 2.5,0 4.7,0.52 6.7,1.54 2,1.01 3.4,2.75 4.2,5.2 1.3,-2.15 3.1,-3.8 5.3,-4.98 2.1,-1.17 4.5,-1.76 7.1,-1.76 2,0 3.8,0.22 5.4,0.66 1.6,0.43 3,1.1 4.1,2.02 1.2,0.92 2.1,2.1 2.7,3.56 0.7,1.46 1,3.2 1,5.25 l 0,29.01 -6.5,0 0,-25.95 c 0,-1.23 -0.1,-2.38 -0.3,-3.45 -0.2,-1.07 -0.6,-2 -1.2,-2.79 -0.5,-0.79 -1.3,-1.42 -2.3,-1.88 -1,-0.46 -2.3,-0.69 -3.9,-0.69 -3.2,0 -5.7,0.92 -7.6,2.76 -1.8,1.83 -2.7,4.28 -2.7,7.35 l 0,24.65 -6.5,0 0,-25.95 c 0,-1.28 -0.1,-2.46 -0.4,-3.53 -0.2,-1.07 -0.6,-2 -1.2,-2.78 -0.5,-0.8 -1.3,-1.41 -2.2,-1.85 -1,-0.43 -2.2,-0.65 -3.6,-0.65 -1.9,0 -3.6,0.38 -4.9,1.15 -1.4,0.77 -2.5,1.69 -3.3,2.75 -0.8,1.08 -1.5,2.19 -1.8,3.33 -0.4,1.16 -0.6,2.12 -0.6,2.88 l 0,24.65 -6.5,0 0,-39.58 6.1,0 z m -13.3,0 0,5.74 -7.9,0 0,24.58 c 0,0.76 0.1,1.37 0.2,1.83 0.1,0.47 0.4,0.82 0.7,1.07 0.4,0.25 0.9,0.42 1.5,0.51 0.6,0.1 1.5,0.11 2.5,0.11 l 3,0 0,5.74 -5,0 c -1.7,0 -3.1,-0.12 -4.3,-0.35 -1.2,-0.22 -2.2,-0.64 -2.9,-1.26 -0.8,-0.61 -1.3,-1.48 -1.7,-2.6 -0.3,-1.13 -0.5,-2.6 -0.5,-4.44 l 0,-25.19 -6.7,0 0,-5.74 6.7,0 0,-11.87 6.5,0 0,11.87 7.9,0 z m -31.6,11.64 c -0.6,-1.37 -1.4,-2.56 -2.4,-3.57 -1,-0.99 -2.1,-1.78 -3.5,-2.36 -1.3,-0.59 -2.8,-0.89 -4.5,-0.89 -1.7,0 -3.2,0.3 -4.5,0.89 -1.4,0.58 -2.5,1.38 -3.5,2.41 -1,1.02 -1.7,2.2 -2.3,3.56 -0.6,1.35 -0.9,2.78 -1,4.32 l 22.7,0 c -0.1,-1.54 -0.4,-2.98 -1,-4.36 z m 1.6,25.41 0,0 c -3,2.25 -6.7,3.37 -11.2,3.37 -3.2,0 -5.9,-0.51 -8.2,-1.52 -2.4,-1.03 -4.3,-2.46 -5.9,-4.3 -1.6,-1.83 -2.8,-4.03 -3.6,-6.58 -0.7,-2.56 -1.2,-5.32 -1.3,-8.35 0,-3 0.5,-5.76 1.4,-8.26 0.9,-2.5 2.2,-4.67 3.9,-6.51 1.6,-1.84 3.6,-3.27 5.9,-4.28 2.2,-1.03 4.7,-1.55 7.4,-1.55 3.5,0 6.5,0.74 8.8,2.2 2.3,1.45 4.2,3.3 5.6,5.54 1.4,2.25 2.3,4.7 2.9,7.36 0.5,2.64 0.7,5.17 0.6,7.57 l -29.6,0 c -0.1,1.73 0.2,3.38 0.6,4.94 0.5,1.55 1.2,2.94 2.2,4.13 1.1,1.21 2.4,2.16 3.9,2.87 1.6,0.72 3.5,1.08 5.6,1.08 2.8,0 5,-0.64 6.8,-1.92 1.8,-1.27 2.9,-3.21 3.5,-5.81 l 6.4,0 c -0.9,4.43 -2.8,7.78 -5.7,10.02 m -64.5,-37.05 0,6.28 0.2,0 c 2.7,-4.8 7,-7.2 12.8,-7.2 2.6,0 4.8,0.36 6.5,1.07 1.8,0.71 3.2,1.72 4.2,2.99 1.1,1.28 1.9,2.8 2.3,4.56 0.4,1.76 0.7,3.71 0.7,5.85 l 0,26.03 -6.6,0 0,-26.8 c 0,-2.44 -0.7,-4.39 -2.1,-5.81 -1.4,-1.43 -3.4,-2.15 -5.9,-2.15 -2,0 -3.7,0.31 -5.2,0.92 -1.4,0.61 -2.6,1.48 -3.6,2.61 -1,1.12 -1.7,2.44 -2.2,3.94 -0.5,1.5 -0.7,3.16 -0.7,4.93 l 0,22.36 -6.51,0 0,-39.58 6.11,0 z m -19.94,11.2 c -0.22,0 -0.4,0 -0.59,0.1 2.16,0.44 3.55,3.72 3.55,7.47 0,3.73 -1.29,7.08 -3.43,7.61 0.2,0 0.36,0.1 0.58,0 2.42,0 4.36,-3.47 4.34,-7.67 0,-4.2 -2.04,-7.57 -4.45,-7.52 m 1.18,-3 c 0.35,0 0.72,0 1.08,0.1 -4,0.71 -6.49,5.3 -6.39,10.43 0.1,5.16 2.52,9.7 6.54,10.33 -0.37,0.1 -0.72,0.11 -1.09,0.11 -4.49,0 -8.18,-4.63 -8.22,-10.42 0,-5.79 3.57,-10.51 8.08,-10.54 M 77.52,43.1 c 0.81,0 1.61,0.1 2.41,0.18 -8.97,1.32 -15.9,10.07 -15.94,20.67 0,10.59 6.85,19.38 15.81,20.76 -0.81,0.12 -1.6,0.16 -2.42,0.16 -10.06,0 -18.22,-9.41 -18.19,-20.94 0,-11.53 8.26,-20.86 18.33,-20.83 m -6.75,-4.21 c 1.1,0 2.14,0.1 3.19,0.23 -11.92,1.58 -21.18,12.07 -21.23,24.79 0,12.71 9.16,23.27 21.07,24.9 -1.04,0.14 -2.09,0.22 -3.21,0.22 -13.44,0 -24.29,-11.32 -24.23,-25.14 0,-13.85 10.95,-25.04 24.41,-25 m -9.69,-3.01 c 1.26,0 2.47,0.1 3.68,0.24 -13.73,1.77 -24.35,13.51 -24.4,27.74 0,14.27 10.5,26.04 24.21,27.91 -1.2,0.15 -2.41,0.24 -3.66,0.24 C 45.45,91.95 32.95,79.35 33,63.84 33.04,48.34 45.62,35.83 61.08,35.88 M 82.77,48.9 c 0.59,0 1.14,0.1 1.67,0.14 -6.22,0.97 -11.05,7.3 -11.07,15 0,7.72 4.76,14.08 10.98,15.07 -0.54,0.1 -1.1,0.13 -1.67,0.13 -7.03,0 -12.7,-6.81 -12.66,-15.21 0,-8.39 5.72,-15.15 12.75,-15.13"></path></svg>