<?xml version="1.0"?>

<svg xmlns="http://www.w3.org/2000/svg" height="542.602" width="1176.93" viewBox="0 0 1176.93 542.602">

  <path d="m 685.248,509.332 c -4.556,0.218 -8.287,0.04 -8.287,-0.411 0,-0.445 5.225,-10.532 11.603,-22.417 6.384,-11.884 11.607,-22.261 11.607,-23.058 0,-0.798 -6.124,-12.527 -13.615,-26.065 -7.485,-13.538 -13.611,-24.816 -13.611,-25.062 0,-0.246 3.775,-0.449 8.387,-0.449 h 8.379 l 9.293,17.405 c 5.103,9.572 9.639,17.404 10.066,17.404 0.427,0 4.657,-7.832 9.393,-17.404 l 8.622,-17.405 h 8.28 8.27 l -11.88,23.094 c -6.53,12.701 -17.795,34.542 -25.046,48.531 l -13.169,25.438 z m 256.127,0.27 h -7.36 V 460.737 411.87 h 7.36 c 7.08,0 7.37,0.138 7.37,3.555 0,3.328 0.15,3.416 2.38,1.389 1.32,-1.19 4.61,-3.091 7.33,-4.224 2.71,-1.132 7.5,-2.045 10.66,-2.029 3.15,0.01 8.17,1.139 11.16,2.496 2.99,1.356 7.58,4.982 10.22,8.059 2.63,3.077 5.54,8.294 6.46,11.594 0.96,3.428 1.38,9.327 0.98,13.762 -0.39,4.271 -1.92,10.13 -3.4,13.022 -1.49,2.893 -4.42,6.884 -6.52,8.87 -2.08,1.985 -6.04,4.546 -8.77,5.689 -2.75,1.144 -7.43,2.08 -10.42,2.08 -2.99,0 -7.66,-0.927 -10.37,-2.06 -2.72,-1.132 -6.01,-3.034 -7.33,-4.224 -2.28,-2.069 -2.38,-1.245 -2.38,18.794 v 20.959 z m 24.77,-46.882 c 2.58,0 6.68,-1.202 9.11,-2.688 2.44,-1.486 5.31,-4.777 6.37,-7.315 1.06,-2.537 1.93,-6.761 1.93,-9.385 0,-2.624 -0.87,-6.848 -1.93,-9.385 -1.06,-2.538 -3.93,-5.829 -6.37,-7.316 -2.43,-1.485 -6.53,-2.695 -9.11,-2.687 -2.58,0 -6.18,0.768 -7.99,1.687 -1.82,0.922 -4.68,3.713 -6.37,6.203 -2.2,3.275 -3.04,6.462 -3.04,11.498 0,5.035 0.84,8.222 3.04,11.497 1.69,2.491 4.55,5.282 6.37,6.203 1.81,0.92 5.41,1.679 7.99,1.688 z m 119.465,46.612 c -4.59,0.218 -8.34,0.04 -8.34,-0.411 0,-0.445 5.22,-10.532 11.6,-22.417 6.39,-11.884 11.6,-22.243 11.6,-23.019 0,-0.775 -6.12,-12.466 -13.61,-25.978 -7.48,-13.511 -13.61,-24.808 -13.61,-25.103 0,-0.293 3.77,-0.534 8.38,-0.534 h 8.39 l 9.28,17.405 c 5.11,9.572 9.64,17.404 10.07,17.404 0.43,0 4.66,-7.832 9.4,-17.404 l 8.62,-17.405 h 8.27 8.27 l -11.88,23.094 c -6.53,12.701 -17.78,34.542 -24.99,48.531 l -13.11,25.438 z m -549.333,-32.69 c -0.573,0.649 -8.313,-13.354 -17.201,-31.116 -8.887,-17.763 -16.158,-32.602 -16.158,-32.976 0,-0.373 3.642,-0.68 8.092,-0.68 h 8.091 l 8.349,17.636 8.349,17.638 8.579,-20.238 c 4.719,-11.13 8.923,-20.025 9.342,-19.766 0.419,0.259 4.345,8.959 8.724,19.335 4.378,10.376 8.339,18.865 8.802,18.865 0.464,0 4.345,-7.531 8.626,-16.735 l 7.785,-16.735 h 8.501 8.502 l -16.384,32.801 c -9.012,18.04 -16.704,32.8 -17.095,32.8 -0.39,0 -4.283,-8.174 -8.652,-18.162 -4.367,-9.99 -8.306,-18.388 -8.753,-18.666 -0.447,-0.275 -4.334,7.446 -8.635,17.16 -4.303,9.713 -8.291,18.19 -8.864,18.839 z M 64.641,475.788 c -5.982,0.315 -9.691,-0.26 -13.661,-2.116 -2.998,-1.402 -7.383,-4.886 -9.745,-7.743 -2.362,-2.855 -5.181,-8.164 -6.265,-11.795 -1.083,-3.632 -1.97,-8.88 -1.97,-11.664 0,-2.785 1.231,-8.352 2.735,-12.372 1.698,-4.536 4.679,-9.065 7.858,-11.938 2.818,-2.545 7.378,-5.372 10.134,-6.282 2.756,-0.909 8.22,-1.386 12.143,-1.062 4.757,0.394 8.944,1.79 12.569,4.189 l 5.436,3.597 v -3.366 c 0,-3.187 0.39,-3.366 7.364,-3.366 h 7.362 v 31.462 31.462 h -7.362 c -6.974,0 -7.364,-0.178 -7.364,-3.366 v -3.366 l -5.511,3.647 c -4.172,2.761 -7.507,3.751 -13.723,4.079 z m 1.561,-13.074 c 2.43,0.01 6.222,-0.903 8.427,-2.044 2.205,-1.139 5.185,-4.001 6.622,-6.358 1.673,-2.743 2.614,-6.697 2.614,-10.98 0,-4.283 -0.941,-8.238 -2.614,-10.979 -1.437,-2.358 -4.417,-5.221 -6.622,-6.36 -2.205,-1.141 -6.403,-2.074 -9.328,-2.074 -3.827,0 -6.526,1.015 -9.62,3.619 -2.366,1.991 -5.123,5.587 -6.128,7.99 -1.004,2.404 -1.826,6.007 -1.826,8.007 0,2 1.228,6.174 2.728,9.273 1.686,3.482 4.37,6.444 7.029,7.756 2.365,1.166 6.288,2.134 8.718,2.15 z m 119.13,13.366 c -3.153,-0.03 -7.824,-0.96 -10.379,-2.067 -2.556,-1.109 -5.718,-2.986 -7.029,-4.172 -2.227,-2.016 -2.383,-1.925 -2.383,1.398 0,3.417 -0.286,3.555 -7.363,3.555 h -7.363 v -57.569 -57.567 h 7.363 7.363 v 29.66 c 0,28.396 0.108,29.569 2.393,27.496 1.314,-1.19 4.609,-3.091 7.319,-4.224 2.711,-1.132 7.51,-2.045 10.662,-2.029 3.153,0.01 8.176,1.139 11.163,2.496 2.987,1.356 7.584,4.982 10.218,8.059 2.632,3.077 5.542,8.294 6.466,11.594 0.962,3.428 1.379,9.327 0.978,13.762 -0.389,4.271 -1.922,10.13 -3.408,13.022 -1.487,2.893 -4.416,6.884 -6.508,8.87 -2.092,1.985 -6.044,4.546 -8.782,5.689 -2.738,1.144 -7.558,2.055 -10.71,2.027 z m -2.386,-13.36 c 2.577,0 6.68,-1.202 9.117,-2.688 2.438,-1.486 5.299,-4.777 6.359,-7.315 1.061,-2.537 1.928,-6.761 1.928,-9.385 0,-2.624 -0.867,-6.848 -1.928,-9.385 -1.06,-2.538 -3.921,-5.829 -6.359,-7.316 -2.437,-1.485 -6.419,-2.703 -8.849,-2.707 -2.429,0 -6.222,0.928 -8.427,2.069 -2.205,1.139 -5.185,4.002 -6.621,6.36 -1.689,2.767 -2.617,6.704 -2.619,11.116 0,4.899 0.858,8.111 3.047,11.36 1.679,2.491 4.541,5.282 6.359,6.203 1.82,0.92 5.415,1.679 7.993,1.688 z m 70.287,13.295 c -3.682,0 -9.021,-0.829 -11.866,-1.844 -2.844,-1.014 -6.966,-3.548 -9.159,-5.631 -2.194,-2.083 -5.282,-6.197 -6.864,-9.142 -2.257,-4.203 -2.874,-7.661 -2.873,-16.068 0,-9.502 0.471,-11.541 4.157,-18.073 3.295,-5.842 5.643,-8.15 11.362,-11.172 6.468,-3.419 8.204,-3.749 16.877,-3.217 7.52,0.463 10.837,1.369 14.931,4.077 3.455,2.287 6.438,5.919 8.687,10.58 1.885,3.904 3.829,10.258 4.321,14.125 l 0.895,7.029 h -23.602 c -12.981,0 -23.601,0.32 -23.601,0.712 0,0.392 0.867,2.789 1.928,5.326 1.06,2.538 3.921,5.829 6.359,7.315 2.437,1.486 6.419,2.704 8.849,2.707 2.429,0 6.132,-0.881 8.228,-1.965 2.096,-1.085 5.026,-3.639 6.512,-5.678 l 2.701,-3.708 6.174,3 6.176,3 -2.042,3.948 c -1.122,2.172 -4.148,5.556 -6.725,7.52 -2.576,1.965 -6.945,4.381 -9.708,5.366 -2.763,0.987 -8.035,1.793 -11.717,1.793 z m -0.717,-41.386 c 9.66,0 14.774,-0.499 14.774,-1.441 0,-0.793 -1.76,-3.202 -3.913,-5.355 -3.15,-3.151 -5.073,-3.914 -9.861,-3.914 -3.993,0 -7.108,0.913 -9.483,2.783 -1.945,1.529 -4.156,3.938 -4.914,5.354 -1.32,2.467 -0.763,2.573 13.397,2.573 z m 136.128,41.075 c -6.731,0.345 -10.953,-0.135 -14.25,-1.623 -2.577,-1.162 -6.399,-3.736 -8.491,-5.72 -2.091,-1.985 -5.094,-6.018 -6.67,-8.963 -2.235,-4.178 -2.872,-7.712 -2.891,-16.066 -0.01,-9.543 0.432,-11.512 4.148,-18.074 3.305,-5.833 5.67,-8.156 11.38,-11.173 6.467,-3.419 8.203,-3.749 16.877,-3.217 7.52,0.463 10.836,1.369 14.93,4.077 3.455,2.287 6.439,5.919 8.687,10.58 1.886,3.904 3.83,10.258 4.321,14.125 l 0.896,7.029 h -23.602 c -12.981,0 -23.602,0.32 -23.602,0.712 0,0.392 0.868,2.789 1.928,5.326 1.061,2.538 3.921,5.829 6.359,7.315 2.437,1.486 6.42,2.704 8.85,2.707 2.428,0 6.132,-0.881 8.228,-1.965 2.095,-1.085 5.01,-3.617 6.474,-5.627 l 2.665,-3.658 5.572,2.513 c 3.066,1.383 5.896,3.038 6.292,3.678 0.397,0.64 -0.858,3.233 -2.787,5.762 -1.93,2.529 -6.262,6.212 -9.629,8.185 -4.712,2.762 -8.321,3.699 -15.685,4.077 z m -2.248,-41.075 c 9.659,0 14.774,-0.499 14.774,-1.441 0,-0.793 -1.761,-3.202 -3.913,-5.355 -3.151,-3.151 -5.074,-3.914 -9.861,-3.914 -3.994,0 -7.109,0.913 -9.483,2.783 -1.945,1.529 -4.157,3.938 -4.914,5.354 -1.321,2.467 -0.764,2.573 13.397,2.573 z m 249.91,41.159 c -5.981,0.315 -9.69,-0.26 -13.661,-2.116 -2.997,-1.402 -7.386,-4.886 -9.752,-7.743 -2.367,-2.855 -5.259,-8.461 -6.427,-12.456 -1.353,-4.62 -1.864,-9.796 -1.407,-14.221 0.395,-3.827 1.938,-9.351 3.431,-12.276 1.491,-2.926 4.805,-7.156 7.362,-9.401 2.559,-2.246 6.878,-4.817 9.601,-5.717 2.723,-0.898 8.161,-1.366 12.084,-1.042 4.756,0.394 8.943,1.79 12.568,4.189 l 5.436,3.597 v -3.366 c 0,-3.187 0.39,-3.366 7.363,-3.366 h 7.364 v 31.462 31.462 h -7.364 c -6.973,0 -7.363,-0.178 -7.363,-3.366 v -3.366 l -5.512,3.647 c -4.172,2.761 -7.507,3.751 -13.723,4.079 z m 1.562,-13.074 c 2.429,0.01 6.222,-0.903 8.427,-2.044 2.205,-1.139 5.185,-4.001 6.622,-6.358 1.672,-2.743 2.614,-6.697 2.614,-10.98 0,-4.283 -0.942,-8.238 -2.614,-10.979 -1.437,-2.358 -4.417,-5.221 -6.622,-6.36 -2.205,-1.141 -6.403,-2.074 -9.329,-2.074 -3.826,0 -6.525,1.015 -9.619,3.619 -2.366,1.991 -5.124,5.587 -6.128,7.99 -1.004,2.404 -1.825,6.007 -1.825,8.007 0,2 1.227,6.174 2.728,9.273 1.685,3.482 4.37,6.444 7.029,7.756 2.364,1.166 6.288,2.134 8.717,2.15 z m 213.147,13.391 c -4.93,0 -9.61,-1.044 -14.14,-3.151 -3.72,-1.733 -8.9,-5.639 -11.5,-8.678 -2.6,-3.04 -5.43,-7.862 -6.29,-10.713 -0.85,-2.853 -1.54,-7.527 -1.54,-10.387 0,-2.859 0.66,-7.551 1.46,-10.427 0.92,-3.322 3.97,-7.733 8.36,-12.095 4.36,-4.335 8.94,-7.467 12.42,-8.495 3.03,-0.896 8.45,-1.622 12.05,-1.614 4.03,0 9.13,1.221 13.3,3.165 3.73,1.732 8.9,5.639 11.51,8.678 2.6,3.04 5.43,7.861 6.28,10.713 0.85,2.853 1.55,7.457 1.55,10.231 0,2.774 -0.7,7.378 -1.55,10.231 -0.85,2.851 -3.68,7.673 -6.28,10.713 -2.61,3.039 -7.78,6.945 -11.51,8.678 -4.53,2.107 -9.21,3.151 -14.12,3.151 z m 2.67,-14.28 c 1.84,-0.406 5.16,-1.742 7.36,-2.967 2.21,-1.226 5.11,-4.318 6.44,-6.869 1.64,-3.168 2.22,-6.495 1.82,-10.483 -0.33,-3.215 -1.78,-7.432 -3.23,-9.372 -1.44,-1.941 -5.43,-4.695 -8.85,-6.12 -6.15,-2.565 -6.28,-2.565 -12.55,0.03 -3.91,1.62 -7.49,4.348 -9.37,7.139 -1.7,2.531 -3.04,6.549 -3.04,9.138 0,2.541 0.96,6.642 2.13,9.112 1.17,2.47 2.97,5.19 4.01,6.046 1.02,0.854 4.13,2.347 6.9,3.318 2.77,0.971 6.54,1.431 8.38,1.025 z m 181.115,14.306 c -3.81,0 -8.7,-1.142 -12.12,-2.832 -3.14,-1.558 -7.53,-5.022 -9.74,-7.698 -2.21,-2.676 -4.92,-7.836 -6,-11.467 -1.08,-3.632 -1.96,-8.88 -1.96,-11.664 0,-2.785 1.24,-8.384 2.76,-12.443 1.85,-4.969 4.54,-8.911 8.22,-12.06 3.01,-2.573 7.55,-5.369 10.11,-6.211 2.55,-0.841 7.85,-1.264 11.77,-0.94 4.76,0.394 8.94,1.79 12.57,4.189 l 5.44,3.597 v -3.366 c 0,-3.187 0.39,-3.366 7.36,-3.366 h 7.35 v 31.462 31.462 h -7.35 c -7.07,0 -7.36,-0.138 -7.36,-3.555 0,-3.328 -0.15,-3.417 -2.4,-1.39 -1.31,1.19 -4.61,3.092 -7.31,4.224 -2.71,1.133 -7.82,2.06 -11.34,2.058 z m 2.7,-13.423 c 2.81,0.01 6.9,-0.897 9.1,-2.038 2.2,-1.139 5.19,-4.001 6.62,-6.358 1.68,-2.743 2.61,-6.697 2.61,-10.98 0,-4.283 -0.94,-8.238 -2.61,-10.979 -1.44,-2.358 -4.43,-5.221 -6.62,-6.36 -2.2,-1.141 -6.4,-2.074 -9.33,-2.074 -3.82,0 -6.52,1.015 -9.62,3.619 -2.36,1.991 -5.12,5.587 -6.12,7.99 -1.01,2.404 -1.83,6.007 -1.83,8.007 0,2 1.19,6.086 2.63,9.08 1.45,2.993 4.32,6.482 6.37,7.751 2.04,1.268 6.01,2.324 8.8,2.342 z m -736.071,12.086 h -7.363 v -24.768 -24.768 h -3.347 c -3.124,0 -3.347,-0.446 -3.347,-6.694 0,-6.248 0.223,-6.694 3.347,-6.694 3.308,0 3.347,-0.134 3.347,-11.38 v -11.379 h 7.363 7.364 v 11.379 11.38 h 9.371 9.372 v -11.38 -11.379 h 7.363 7.364 v 11.379 11.38 h 6.024 6.025 v 6.694 6.694 h -6.025 -6.024 v 24.768 24.768 h -7.364 -7.363 v -24.768 -24.768 h -9.372 -9.371 v 24.768 24.768 z m 132.541,0 h -7.364 V 443.332 411.87 h 7.364 c 6.433,0 7.363,0.333 7.363,2.638 0,2.501 0.252,2.466 4.874,-0.67 3.134,-2.127 6.746,-3.306 10.128,-3.306 2.892,0 6.572,0.683 8.181,1.519 1.608,0.837 3.163,1.729 3.458,1.984 0.293,0.256 -0.912,3.212 -2.678,6.569 -2.631,5.001 -3.696,5.942 -5.889,5.203 -1.473,-0.496 -4.343,-0.909 -6.377,-0.917 -2.034,0 -4.893,1.066 -6.352,2.386 -1.458,1.319 -3.255,4.569 -3.991,7.22 -0.736,2.65 -1.342,12.802 -1.346,22.559 v 17.739 h -7.363 z m 364.155,0 h -7.36 v -24.768 -24.768 h -3.35 c -3.12,0 -3.35,-0.446 -3.35,-6.694 0,-6.248 0.23,-6.694 3.35,-6.694 3.31,0 3.35,-0.134 3.35,-11.38 v -11.379 h 7.36 7.36 v 11.379 11.38 h 6.03 6.02 v 6.694 6.694 h -6.02 -6.03 v 24.768 24.768 z M 63.37,312.8 c -16.396,0 -18.281,-0.253 -21.649,-2.903 -2.029,-1.596 -4.531,-4.891 -5.547,-7.32 V 45.3974 c 0,-7.5626 4.2546,-11.4663 12.2952,-11.4663 5.0355,-0.2411 62.1378,-0.2699 62.1378,-0.2699 L 259.393,222.414 V 40.1952 c 0.895,-1.561 3.181,-3.82 5.711,-5.021 4.218,-2.002 36.842,-2.182 394.655,-2.174 335.376,0.01 391.891,0.282 403.051,1.965 7.14,1.077 17.82,3.822 23.73,6.102 5.91,2.279 14.34,6.789 18.74,10.022 4.38,3.233 10.52,9.068 13.61,12.968 3.1,3.9 7.08,10.33 8.84,14.29 1.77,3.96 4.11,11.145 5.24,15.967 1.11,4.821 2.14,13.7278 2.28,19.7928 0.22,9.335 -0.19,11.609 -2.55,14.827 -1.54,2.088 -4.85,4.517 -7.36,5.397 -2.51,0.877 -10.89,1.597 -18.62,1.597 -7.73,0 -16.11,-0.72 -18.62,-1.597 -2.5,-0.88 -5.71,-3.161 -7.13,-5.069 -1.48,-1.994 -3.03,-7.16 -3.65,-12.142 -0.59,-4.769 -2.03,-10.526 -3.2,-12.792 -1.26,-2.43 -4.49,-5.2618 -7.86,-6.8948 -3.15,-1.526 -9.94,-3.383 -15.1,-4.127 -5.38,-0.778 -39.59,-1.357 -80.335,-1.361 -55.19,0 -72.67,0.401 -78.69,1.818 -4.27,1.002 -8.91,2.868 -10.32,4.146 -1.41,1.276 -3.23,5.5288 -4.05,9.4488 -0.81,3.919 -1.06,9.318 -0.56,11.995 0.5,2.677 2.34,6.565 4.08,8.641 1.75,2.076 5.74,4.826 8.88,6.111 3.13,1.287 9.3,3.203 13.73,4.259 6.07,1.454 25.45,2.209 79.66,3.103 69.695,1.15 72.025,1.274 86.355,4.57 9.04,2.08 19.03,5.507 25.88,8.884 7.68,3.786 13.81,8.102 19.7,13.875 5.99,5.872 9.94,11.307 13.23,18.153 2.58,5.376 5.69,14.301 6.92,19.836 1.74,7.831 2.07,13.797 1.46,26.912 -0.44,9.267 -1.77,20.463 -2.98,24.882 -1.21,4.418 -4.34,12.118 -6.95,17.114 -9.82,17.176 -27.19,36.437 -42.48,36.437 l -89.735,0.41 c -61.82,0.282 -93.02,-0.07 -100.31,-1.107 -5.82,-0.836 -14.86,-3.047 -20.08,-4.916 -5.22,-1.871 -13.52,-6.056 -18.43,-9.304 -4.92,-3.246 -11.97,-9.217 -15.67,-13.267 -3.7,-4.05 -8.55,-11.113 -10.78,-15.696 -2.23,-4.583 -4.93,-11.748 -5.99,-15.922 -1.07,-4.175 -2.32,-12.308 -2.78,-18.074 -0.71,-8.64 -0.43,-11.307 1.56,-15.17 1.36,-2.62 4.49,-5.718 7.11,-7.026 3.63,-1.814 8.1,-2.341 19.79,-2.343 10.01,0 16.64,0.637 19.65,1.894 2.49,1.044 5.49,3.353 6.65,5.134 1.17,1.78 2.68,7.652 3.36,13.049 0.74,5.925 2.24,11.184 3.79,13.275 1.41,1.904 6.12,4.969 10.47,6.809 l 7.91,3.347 75.54,0.398 c 49.935,0.263 77.795,-0.08 82.195,-1.031 3.66,-0.784 8.63,-2.365 11.05,-3.513 2.62,-1.243 5.35,-4.069 6.76,-7.002 1.53,-3.186 2.39,-8.216 2.45,-14.289 0.1,-7.085 -0.58,-10.49 -2.62,-13.961 -1.56,-2.659 -5.22,-5.872 -8.7,-7.637 -3.3,-1.678 -9.02,-3.799 -12.7,-4.714 -4.8,-1.193 -25.78,-1.754 -74.085,-1.979 -53.99,-0.252 -70.34,-0.747 -82.24,-2.493 -8.17,-1.198 -20.32,-3.936 -27,-6.085 -6.68,-2.15 -15.88,-6.357 -20.44,-9.349 -4.56,-2.992 -11.13,-8.577 -14.59,-12.412 -3.46,-3.834 -8,-10.56 -10.08,-14.946 -2.09,-4.386 -4.79,-12.468 -6.01,-17.959 -1.71,-7.647 -2.06,-14.008 -1.53,-27.169 l 0.7,-17.1828 H 702.399 c 0,0 -0.267,209.4998 -2.028,212.9118 -1.12,2.159 -3.802,4.841 -5.957,5.958 -2.935,1.517 -8.439,2.031 -21.774,2.031 -14.001,0 -18.485,-0.45 -20.825,-2.09 -1.641,-1.149 -3.884,-3.83 -4.985,-5.958 -1.724,-3.335 -2,-212.8528 -2,-212.8528 H 315.486 v 26.1058 26.107 h 99.643 99.644 l 2.774,3.527 c 2.556,3.25 2.776,5.294 2.776,25.911 0,21.905 -0.07,22.46 -3.283,25.926 l -3.284,3.543 h -99.134 -99.136 v 25.437 25.437 h 103.148 103.149 l 3.285,3.287 c 3.238,3.235 3.287,3.634 3.287,26.541 0,22.579 -0.09,23.342 -3.098,26.168 l -3.099,2.911 H 389.83 257.502 l -4.449,-3.393 C 250.607,307.541 92.39,104.881 92.39,104.881 v 200.877 c 0,10.339 -21.8732,7.031 -29.02,7.042 z"></path>

</svg>
