<?xml version="1.0"?>
<svg xmlns="http://www.w3.org/2000/svg" width="250" height="62.629524" viewBox="0 0 250 62.629524">
   <path d="m 155.9,35.22 c -1,0 -1,-0.7 0,-1.4 2,-1.5 3,-1.9 3,-2 1,0 -1,3.4 -3,3.4 z m 68,-7.4 c 0,-0.1 0,-0.2 -1,-0.2 0,-0.1 0,-0.1 0,-0.1 -1,-0.7 -2,-0.4 -2,-0.4 0,0 0,0.4 -1,1.3 0,0 0,0.1 0,0.1 0,0.1 0,0.1 0,0.1 -4,3.1 -9,5.6 -14,6.7 2,-1.1 6,-4.9 3,-7 -2,-1.2 -5,-0.7 -8,0.7 1,-0.5 2,-1.6 1,-2.9 0,-1.4 -3,-1.7 -4,-1.2 0,1.3 0,2.1 -1,2.4 -6,5.4 -14,8.3 -15,7.7 0,-0.6 2,-2.7 2,-3.6 1,-0.7 1,-1.5 1,-2.2 -1,-1 -2,-1.1 -4,-0.6 -3,0.4 -5,-0.5 -6,-3 -1,-1.2 -3,-0.9 -4,-0.3 0,0.8 0,1.6 0,2.4 -1,3.8 -6,3.8 -8,2.5 -1,-0.8 -1,-2.3 -3,-2.5 -4,-0.6 -6,2 -6,2.8 -2,1.8 -12,6.4 -15,4.4 -2,-1.5 0,-6.8 3,-12.1 6,-8.1 8,-8 9,-7.1 0,0.5 1,1.6 0,3.5 0,0.2 -1,0.3 -1,0.4 -1,2.9 -2,2.8 -2,2.8 -1,1.7 0,2.7 1,3.1 0,0.6 1,0.4 1,0.3 1,-0.3 2,-1.1 2,-1.8 3,-3.8 4,-9.9 0,-12.1 -3,-1.6 -8,0.5 -13,9.3 -5,7.7 -6,13.8 -3,16.7 5,3.5 13,-1.1 16,-2.5 0,0.6 0,3.5 3,3.4 4,-0.2 6,-3.5 7,-5.1 2,0.8 8,2.1 12,-3.7 1,0.3 3,2 6,2 -1,2 -3,4.4 0,6.1 2,2.3 12,-3.3 15,-5 -1,3 -4,9.8 -7,15.9 -1,2.5 -3,5.8 -1,6.7 1,0.7 3,0 4,-1.8 0,-2.4 2,-8.9 4,-12.4 3,-6.8 6,-10.3 10,-10.3 0,0.5 0,1 -2,2.5 -1,1.7 -3,1.6 -3,3.4 0,1 1,1.3 1,1.4 3,0.7 9,-1.3 12,-2.3 3,-1.1 7,-3.1 10,-5.1 2,-0.9 2,-2.3 1,-3.3 z m -105,-6.8 c -2,0.2 -5,1 -7,3.6 -1,2.2 0,4.4 2,7 1,1.5 3,2.9 3,3.2 -1,0.2 -3,0.1 -5,-0.2 0,0 0,0 0,0 0,-0.1 -1,-0.2 -1,-0.3 -2,-0.4 -2,-0.9 -2,-0.9 l 0,0.2 c 0,0 0,0 0,0 l 0,-0.2 c -1,0.2 -1,0.7 -2,1.3 0,0.6 -1,1.7 0,2.3 0,0.4 1,0.7 2,0.7 2,0.1 7,0.8 9,1.1 2,0.1 3,-1 3,-1.7 1,-1 0,-2 0,-2.6 -3,-2.9 -6,-6.1 -5,-8.8 0,-1.2 3,-1 4,-0.7 2,0.6 3,-0.1 4,-1.5 0,-0.8 -1,-2.8 -5,-2.5 z m -52.01,3.4 c 0,0.3 0,1.1 -1,1.6 -2,1.2 -4,1.9 -5,2.4 1,-3 6,-4.7 6,-4 z m 43.01,6.4 c 1,-0.5 2,-1.7 1,-2.7 -1,-0.9 -3,-0.9 -3,-0.4 -1,0.3 -2,0.9 -4,1.1 -2,0.1 -2,-0.8 -4.01,-0.8 -1,0 -2,1 -3,3.1 -1,1.1 -3,3.5 -4,3.5 -1,0 -1,-2.1 -1,-4.9 0,-1.3 -1,-2.4 -2,-2.3 -1,0.1 -2,1.7 -2,2.4 -2,2.2 -4,4.4 -4,4.4 -1,0 -2,-2.1 -2,-3.7 0,0 1,-2.5 -2,-3 -1,-0.2 -2,0.4 -2,0.4 0,0.2 0,0.4 0,0.6 0,1 -2,2.6 -2,2.6 l 0,0 c -2,1.5 -6,4.3 -10,4.5 -5,0.2 -6,-2.1 -6,-3.2 4,-1.4 7,-3 8,-4.3 2,-1.4 3,-2.9 3,-4.4 0,-2 -2,-2.8 -3,-2.8 -3,0 -8,1.4 -11,8.3 -1,0.1 -2,0.1 -2,0 -1,-0.3 -1,-0.7 -1,-0.7 -1,0.2 -2,0.7 -2,1.4 0,1.2 0,2.2 1,2.7 1,0.4 2,0.7 4,0.5 0,2.1 1,5.9 9,5.6 5,-0.2 12,-5.1 13,-5.4 0,1.2 1,5.5 4,5.5 3,0 6,-4.5 6,-4.5 0,0 0,4.5 3,4.5 3,0 6,-3.9 7,-4.8 1,-0.8 2.01,-2.3 3.01,-2.3 0,-0.1 2,0.8 5,0 0,0 2,-0.4 3,-0.9 z M 61.89,9.123 c 0,-0.7 0,-1.5 0,-1.9 -2,-1.1 -3,-0.5 -4,0.6 -1,1.3 -3,4.097 -3,5.097 -6,9.6 -11,19.8 -11,19.8 0,0 -1,-4.8 -2,-8.6 0,-3.5 0,-6.9 0,-8.6 0,-0.6 0,-1.7 -2,-2.1 0,-0.2 -2,-0.4 -3,0 0,1.1 0,1.7 0,3 -1,1.3 -4,7.3 -4,8.2 -3,4.7 -6,10.6 -7,10.9 0,1.4 -1,3.2 0,3.8 2,0.6 4,0.3 4,-0.8 0,-0.2 1,-0.6 1,-0.6 0,0 -1,-0.4 0,-2.9 0,-0.6 1,-1.4 1,-2.2 0,-0.2 0,-0.3 1,-0.5 0,-0.2 0,-0.4 0,-0.6 2,-3.4 4,-7.8 6,-11.7 0,2.3 0,5.1 0,7.1 1,3.9 2,5.6 2,8.8 0,2.1 0,2.5 2,2.9 1,0.4 2,0 3,-1.3 2,-5.3 8,-17.5 13,-24.1 1,-0.7 3,-2.7 3,-4.297"></path>
  </svg>