<?xml version="1.0"?>

<!-- Generator: Adobe Illustrator 19.1.0, SVG Export Plug-In . SVG Version: 6.00 Build 0)  -->
<svg version="1.1" id="Layer_1" xmlns="http://www.w3.org/2000/svg" xmlns:xlink="http://www.w3.org/1999/xlink" x="0px" y="0px" width="600px" height="200px" viewBox="0 0 600 200" enable-background="new 0 0 600 200" xml:space="preserve">
<path d="M493.899,72.485c0.169-3.069,0.385-5.769,0.438-8.473c0.025-1.281,0.296-1.858,1.747-1.849
	c9.371,0.057,18.743,0.049,28.114,0.005c1.316-0.006,2.012,0.314,1.812,1.742c-0.033,0.238-0.003,0.484-0.002,0.727
	c0.134,30.778,0.242,61.557,0.457,92.335c0.016,2.27-0.634,2.782-2.802,2.75c-8.481-0.124-16.966-0.119-25.447,0
	c-1.979,0.028-2.456-0.592-2.359-2.442c0.148-2.8,0.038-5.615,0.038-8.592c-0.384,0.157-0.642,0.181-0.76,0.323
	c-6.827,8.232-15.781,12.161-26.252,13.218c-12.104,1.222-22.831-1.886-32.015-9.913c-8.115-7.093-12.916-16.201-15.393-26.546
	c-3.945-16.483-2.57-32.327,6.534-46.985c6.104-9.828,14.735-16.884,26.199-18.676c13.587-2.124,26.567,0.081,37.145,10.076
	C492.095,70.883,492.865,71.551,493.899,72.485z M451.24,105.87c-0.71,2.744-0.708,5.487,0.003,8.23
	c0.349,1.816,0.518,3.689,1.077,5.438c2.89,9.036,7.457,16.455,17.868,18.141c10.36,1.678,18.955-2.935,22.603-12.687
	c3.45-9.222,3.308-18.572-0.045-27.877c-5.874-16.3-25.54-16.512-34.628-6.655C454.073,94.848,452.125,100.106,451.24,105.87z"></path>
<path d="M278.845,118.946c-10.743,0-21.486-0.009-32.23,0.004c-4.716,0.006-4.681,0.023-3.757,4.559
	c1.713,8.41,6.134,14.384,14.687,16.876c8.713,2.539,20.363-0.339,24.593-8.607c0.517-1.01,1.293-1.221,2.363-1.216
	c8.804,0.037,17.61,0.071,26.413-0.017c1.971-0.019,1.833,0.644,1.34,2.12c-4.397,13.17-13.362,21.937-26.269,26.483
	c-15.692,5.528-31.499,5.368-46.939-0.99c-12.955-5.334-21.719-14.891-25.87-28.316c-5.154-16.669-4.208-32.793,5.609-47.7
	c8.212-12.469,20.14-19.667,34.609-22.208c10.074-1.769,20.258-1.182,29.993,2.562c16.254,6.253,25.023,18.826,29.253,35.092
	c1.652,6.351,1.985,12.873,2.005,19.423c0.005,1.704-0.644,1.954-2.117,1.947c-11.228-0.049-22.456-0.027-33.683-0.027
	C278.845,118.937,278.845,118.941,278.845,118.946z M282.116,100.535c0.581-0.287,0.469-0.641,0.098-1.019
	c-0.125-2.445-0.948-4.698-1.872-6.93c-5.689-13.738-23.04-14.933-31.551-5.658c-3.562,3.882-5.334,8.512-6.392,13.527
	c0.528,0.93,1.432,0.57,2.177,0.571c11.776,0.023,23.552,0.022,35.328,0.001c0.755-0.001,1.639,0.336,2.225-0.505L282.116,100.535z"></path>
<path d="M116.387,61.736c2.746,0.008,5.496,0.094,8.238-0.006c1.471-0.054,1.97,0.367,1.926,1.89
	c-0.107,3.671-0.034,7.347,0.219,11.121c2.888-3.129,5.693-6.19,9.098-8.596c7.815-5.522,16.535-7.636,26.034-6.987
	c4.868,0.333,9.575,1.269,14.014,3.274c9.868,4.458,14.617,12.668,16.547,22.894c0.528,2.797,0.466,5.622,0.485,8.446
	c0.148,21.241,0.279,42.483,0.5,63.724c0.021,2.02-0.322,2.758-2.587,2.719c-9.125-0.154-18.255-0.123-27.381-0.017
	c-1.977,0.023-2.569-0.454-2.56-2.503c0.076-17.932,0.033-35.864,0.026-53.796c-0.001-2.828-0.12-5.64-0.902-8.388
	c-1.812-6.359-6.053-9.592-12.642-10.022c-13.317-0.871-19.587,8.309-19.784,19.792c-0.299,17.362-0.147,34.732-0.088,52.099
	c0.007,2.104-0.381,2.876-2.712,2.834c-9.77-0.172-19.543-0.114-29.315-0.141c-0.002-25.092,0.03-50.185-0.064-75.277
	c-0.009-2.342,0.769-2.819,2.887-2.765c2.137,0.054,4.337,0.5,6.445-0.318c0.105-0.044,0.214-0.062,0.327-0.056
	c0.156,0.037,0.312,0.069,0.469,0.098c0.021,0.146,0.057,0.288,0.108,0.426c-0.001,2.637,0.066,5.278-0.033,7.912
	c-0.052,1.396,0.455,1.781,1.786,1.735c2.794-0.097,5.593-0.054,8.39-0.069c0.903-3.216,0.834-6.435,0.034-9.657l0.011,0.012
	c-0.579-0.829-1.45-0.485-2.199-0.501c-2.628-0.059-5.257-0.057-7.886-0.077c-0.035-3.2-0.07-6.402-0.104-9.603l0.009-0.009
	c3.423-0.15,6.874,0.499,10.271-0.365C116.839,68.319,116.084,65.005,116.387,61.736z"></path>
<path d="M419.07,160.153c-11.718,0-22.945-0.027-34.172,0.034c-1.408,0.008-1.746-0.935-2.263-1.788
	c-4.812-7.928-9.588-15.877-14.412-23.798c-1.647-2.703-1.703-2.676-3.315,0.153c-4.391,7.707-8.805,15.4-13.136,23.141
	c-0.758,1.355-1.596,1.884-3.2,1.885c-9.611,0.003-19.223,0.152-28.834,0.224c-1.351,0.01-2.732,0.097-4.264-0.553
	c2.728-4.175,5.4-8.283,8.089-12.379c7.97-12.14,15.917-24.295,23.957-36.388c1.012-1.522,0.984-2.588-0.01-4.073
	c-9.429-14.077-18.795-28.197-28.161-42.317c-0.468-0.706-1.175-1.316-1.233-2.3c0.87-0.448,1.76-0.216,2.609-0.207
	c10.258,0.112,20.515,0.283,30.773,0.35c1.484,0.01,2.28,0.494,3.027,1.779c3.607,6.205,7.305,12.358,11.038,18.488
	c1.635,2.685,1.724,2.648,3.267,0.042c3.658-6.177,7.306-12.359,10.945-18.546c0.583-0.991,1.097-1.766,2.535-1.768
	c9.692-0.013,19.384-0.143,29.077-0.231c0.484-0.004,0.969,0.03,1.453,0.041c1.54,0.035,1.754,0.524,0.864,1.85
	c-4.719,7.033-9.358,14.12-14.039,21.179c-4.681,7.06-9.339,14.136-14.102,21.14c-0.948,1.395-1.011,2.344-0.036,3.791
	c10.686,15.855,21.292,31.764,31.916,47.661C417.922,158.28,418.362,159.024,419.07,160.153z"></path>
<path d="M100.317,22.004c5.351,0,5.351,0,5.351,5.37c0,4.876,0,4.876-5.01,4.631c-5.253-0.257-5.253-0.257-5.487-5.499
	c-0.201-4.503-0.201-4.503,4.181-4.503C99.673,22.004,99.995,22.004,100.317,22.004z M105.666,61.74
	c0.035-2.559,0.089-5.117,0.099-7.676c0.006-1.548,0.625-2.398,2.284-2.318c2.235,0.109,4.472,0.212,6.709,0.233
	c1.236,0.012,1.201,0.752,1.119,1.6c-0.008,1.931-0.159,3.876,0.016,5.792c0.184,2.019-0.657,2.463-2.481,2.377
	c-2.57-0.122-5.15-0.003-7.726,0.012L105.666,61.74z M84.818,51.523c0.007-2.665,0.068-5.332-0.004-7.995
	c-0.034-1.257,0.359-1.71,1.646-1.666c2.501,0.085,5.007,0.047,7.511,0.015c0.953-0.012,1.539,0.192,1.482,1.325
	c-0.14,2.805-0.141,5.619-0.699,8.388C91.442,51.567,88.13,51.545,84.818,51.523z M95.537,61.835
	c3.376-0.032,6.752-0.063,10.128-0.095l0.02,0.02c-0.003,0.181-0.006,0.362-0.009,0.542c-0.002,3.023-0.004,6.046-0.006,9.07
	c0.003,0.184,0.006,0.369,0.01,0.553l-0.009,0.009c-0.191-0.01-0.381-0.02-0.572-0.031c-0.127,0.006-0.25-0.012-0.368-0.056
	c-2.257-0.799-4.597-0.371-6.88-0.313c-1.973,0.05-2.502-0.644-2.39-2.49C95.608,66.649,95.523,64.239,95.537,61.835z
	 M94.969,81.646c-2.741-0.007-5.484-0.083-8.221,0.009c-1.424,0.048-2.049-0.289-1.943-1.856c0.135-2.006,0.134-4.035,0-6.042
	c-0.105-1.566,0.519-1.904,1.943-1.856c2.737,0.092,5.481,0.015,8.222,0.008C94.97,75.155,94.969,78.401,94.969,81.646z
	 M84.835,52.114c-0.005,2.643-0.082,5.288,0.013,7.927c0.051,1.407-0.473,1.783-1.799,1.733c-2.798-0.104-5.602-0.077-8.403-0.103
	c-0.001-2.419,0.093-4.843-0.036-7.255c-0.092-1.728,0.333-2.504,2.246-2.383C79.506,52.2,82.174,52.1,84.835,52.114z
	 M64.067,51.577c-0.026-2.745-0.031-5.489-0.088-8.233c-0.02-0.966,0.203-1.528,1.329-1.462c2.963,0.175,5.95,0.038,8.871,0.728
	c-0.009,2.174-0.124,4.356,0.005,6.523c0.109,1.832-0.369,2.631-2.384,2.491C69.234,51.446,66.646,51.578,64.067,51.577z"></path>
</svg>
