<?xml version="1.0"?>

<!-- Generator: Adobe Illustrator 19.1.0, SVG Export Plug-In . SVG Version: 6.00 Build 0)  -->
<svg version="1.1" id="Layer_1" xmlns="http://www.w3.org/2000/svg" xmlns:xlink="http://www.w3.org/1999/xlink" x="0px" y="0px" width="595.3px" height="248.1px" viewBox="-341 196.9 595.3 248.1" style="enable-background:new -341 196.9 595.3 248.1;" xml:space="preserve">

<path class="st0" d="M-214.2,358.4L-214.2,358.4l-1.7-0.3l-1-0.3l0,0l-1-0.7l-0.7-1l0,0l-0.3-1l-0.3-1l0,0v-1.3l0.7-1.7l13.2-33.1
	l0,0l0.7-1.3l1-1.3l0,0l2.7-2.3l0,0l1.3-1l1.3-0.7l0,0l1.7-0.3h1.3l78.1-0.3l-4.3,10.6H-196l-3,7.9h63.6l-4,9.9H-190l-9.9-7.9
	l-6.6,16.6h74.2l-4.3,10.6h-77.6V358.4z"></path>
<path class="st0" d="M-67.2,358.4l-17.2-17.2l-6.6-6.6l-23.5-23.8H-96l16.9,17.2l6.6,6.6l23.5,23.8H-67.2L-67.2,358.4z"></path>
<path class="st0" d="M42.1,354.1L42.1,354.1l-1.3,1l-1.3,1l0,0l-1.3,1l-1.3,0.7l0,0l-1.7,0.3l-1.3,0.3h-101l4.3-10.6h97.3l3.6-8.9
	h-67.2l0,0h-1.7l-1-0.3l0,0l-1-0.7l-0.7-1l0,0l-0.3-1l-0.3-1.3l0,0v-1.3l0.7-1.3l5.6-14.2l0,0l0.7-1.3l1-1.3l0,0l1.3-1.3l1-1l0,0
	l1.7-1l1.3-0.7l0,0l1.7-0.3h1.3H60l-4.3,10.6h-74.2l-3,6.9h67.2l0,0l1.3,0.3l1.3,0.3l0,0l1,0.7l0.7,1l0,0l0.3,1l0.3,1l0,0l-0.3,1.3
	l-0.3,1.7l-6.3,15.6l0,0l-0.7,1.3L42.1,354.1L42.1,354.1L42.1,354.1z"></path>
<path class="st0" d="M101.3,337.2L93,358.4H81.7l8.3-21.2l-25.8-26.5h18.2l16.9,17.2l31.1-17.2h18.2L101.3,337.2L101.3,337.2z"></path>
<path class="st0" d="M215.8,354.1L215.8,354.1l-1,1l-1.3,1l0,0l-1.7,1l-1.3,0.7l0,0l-1.3,0.3l-1.7,0.3h-77.8l4.3-10.6h74.2l3.6-8.9
	h-67.2l0,0h-1.3l-1.3-0.3l0,0l-1-0.7l-0.7-1l0,0l-0.3-1l-0.3-1.3l0,0l0.3-1.3l0.3-1.3l5.6-14.2l0,0l0.7-1.3l1-1.3l0,0l1.3-1.3l1.3-1
	l0,0l1.3-1l1.3-0.7l0,0l1.7-0.3h1.3h77.8l-4.3,10.6h-74.2l-3,6.9h67.5l0,0l1.3,0.3l1,0.3l0,0l1,0.7l0.7,1l0,0l0.3,1l0.3,1l0,0v1.3
	l-0.7,1.7l-6.3,15.6l0,0l-0.7,1.3L215.8,354.1L215.8,354.1L215.8,354.1z"></path>
<path class="st0" d="M-226.4,356.1L-226.4,356.1l-2,1.3l-1.7,0.7l0,0l-2,0.3h-1.7l0,0l-2-0.3l-1.7-1l-53.1-33.1l-14.9,34.4h-11.3
	l17.9-41.4l0,0l1-2.3l1.6-1.7l0,0l1.7-1.3l2-0.7l0,0l1.7-0.3h2l0,0l1.6,0.7l1.7,0.7l53.6,33.1l14.6-34.4h11.3l-17.5,41.1l0,0
	l-1.3,2.6L-226.4,356.1L-226.4,356.1L-226.4,356.1z"></path>
<path class="st0" d="M-232.7,343.8L-232.7,343.8L-232.7,343.8z"></path>
<line class="st1" x1="-232.7" y1="343.8" x2="-232.7" y2="343.8"></line>
<path class="st0" d="M-209.8,310.7h-10.3l-14.6,34.1l6.3,3.3L-209.8,310.7z"></path>
<path class="st0" d="M-312.8,358.4h10.3l14.5-34.1l-6.3-3.3L-312.8,358.4z"></path>
<path class="st0" d="M92.6,290L92.6,290L82,287.7l-8-1.4l-6.5-0.9l0,0l2.3,0.6l2,0.6l2.2,1.1l0.9,0.9l0.9,0.8l0.5,0.9l0.3,1.1
	l-0.3,1.2L76,294l-0.8,1.4l-1.5,1.7l0,0v0.3l0.3,0.3h2l3.5-0.6l3.7-0.8l7.1-2l3.4-1.2l0,0l0.9-0.3l1.1-0.5v-0.6l-0.2-0.6l-0.9-0.6
	L92.6,290L92.6,290z"></path>
<path class="st0" d="M93.5,292.8L93.5,292.8l-14.3-0.3l-13.4,0.3l-12.9,0.6l-12.3,0.9l-11.7,1.4L18,297.1l-10.3,1.7l-10,2l-9.1,2.3
	l-8.6,2.6l-8,2.6l-7.7,2.6l-6.9,2.9l-6.6,2.9l-6,2.9l-5.7,3.1l-5.1,2.9l-4.6,3.1l-4.3,2.9l-3.7,2.9l-6.6,5.4l-5.1,5.1l-3.7,4
	l-2.3,3.4l-2,2.6h-21.4l0,0l2.3-2.9l3.1-3.4l4.6-4.3l6-5.1l7.4-6l4.6-2.9l4.9-3.1l5.1-3.1l5.7-3.1l6.3-3.1l6.6-3.1l7.4-2.9l7.4-3.1
	l8.3-2.9l8.9-2.6l9.1-2.6l9.7-2.3l10.6-2l10.9-1.7l11.4-1.7l12.3-1.1l12.6-1.1l13.4-0.6h14l14.6,0.3L93.5,292.8L93.5,292.8z"></path>
</svg>
