<svg
   xmlns="http://www.w3.org/2000/svg"
   height="34" viewBox="0 0 125 34"
   width="125">
  <path
     d="M 26.525641,5.0002754 A 2.50025,2.50025 0 0 0 24.06275,7.5354316 l 0,13.0273434 L 9.2697812,5.7678535 A 2.50025,2.50025 0 0 0 5.00025,7.5354316 l 0,19.0664064 a 2.50025,2.50025 0 1 0 5,0 l 0,-13.03125 14.794922,14.798828 a 2.50025,2.50025 0 0 0 4.267578,-1.767578 l 0,-19.0664064 A 2.50025,2.50025 0 0 0 26.525641,5.0002754 Z m 36.941406,0.029297 c -1.308989,0.01639 -2.485084,1.222261 -2.46875,2.53125 l 0,6.5156248 5,0 0,-6.5156248 c 0.01659,-1.329821 -1.201429,-2.547843 -2.53125,-2.53125 z m 8.052734,0.019531 a 2.50025,2.50025 0 0 0 -2.537109,2.5351562 l 0,19.0664063 a 2.50025,2.50025 0 0 0 4.267578,1.767578 l 14.794922,-14.798828 0,13.03125 a 2.50025,2.50025 0 1 0 5,0 l 0,-19.0664063 A 2.50025,2.50025 0 0 0 88.775641,5.8166816 l -14.792969,14.7949214 0,-13.0273433 A 2.50025,2.50025 0 0 0 71.519781,5.0491035 Z m 26.917969,0.00391 a 2.50025,2.50025 0 0 0 -1.734375,4.2949219 l 7.777345,7.7480464 -7.755861,7.728516 a 2.50025,2.50025 0 1 0 3.529301,3.541016 l 7.76757,-7.740235 7.76758,7.740235 a 2.50025,2.50025 0 1 0 3.52929,-3.541016 l -7.75585,-7.728516 7.77734,-7.7480464 a 2.50025,2.50025 0 0 0 -1.73438,-4.2949219 2.50025,2.50025 0 0 0 -1.79492,0.7539063 l -7.78906,7.761719 -7.78906,-7.761719 A 2.50025,2.50025 0 0 0 98.43775,5.0530097 Z m -60.296875,0.00781 -0.6875,1.28125 -5.3125,9.6562498 -0.6875,1.21875 0.6875,1.21875 5.3125,9.34375 0.71875,1.28125 1.46875,0 10.875,0 1.5625,0 0.6875,-1.40625 3.96875,-8 1.78125,-3.625 -4.03125,0 -10.15625,0.03125 c -1.320782,-0.01868 -2.535156,1.179086 -2.535156,2.5 0,1.320914 1.214374,2.518679 2.535156,2.5 l 6.125,-0.03125 -1.5,3.03125 -7.875,0 -3.90625,-6.875 3.9375,-7.125 8.376953,0 1.953125,4.007813 5.03125,0 -3.171875,-7.6015628 -0.6875,-1.40625 -1.5625,0 -11.408203,0 -1.5,0 z m 22.857422,11.0214838 0,10.464844 c -0.01633,1.308989 1.159761,2.51486 2.46875,2.53125 1.329821,0.01659 2.54784,-1.201429 2.53125,-2.53125 l 0,-10.464844 -5,0 z" />
</svg>
