<?xml version="1.0"?>

<svg xmlns="http://www.w3.org/2000/svg" viewBox="5 0.417 234 70.92" height="70.92" width="234"><path d="m 33.9,22.5 c -4.6,0 -6.1,0 -6.1,0 -0.7,0 -0.8,0.2 -0.8,0.8 l 0,25.2 c 0,0.7 0.1,0.9 0.8,0.9 l 5.3,0 c 0.7,0 0.8,-0.2 0.8,-0.9 l 0,-19.7 c 0,0 8.7,13.6 11.6,18.2 1.5,2.3 1.8,2.4 6,2.4 l 7.2,0 c 0.7,0 0.8,-0.2 0.8,-0.9 l 0,-25.2 c 0,-0.6 -0.1,-0.8 -0.8,-0.8 l -5.3,0 c -0.7,0 -0.8,0.2 -0.8,0.8 l 0,20.1 c 0,0 -10.6,-16.5 -12,-18.6 -1.6,-2.5 -2.1,-2.3 -6.7,-2.3 z m 157.4,0 c -4.6,0 -6.1,0 -6.1,0 -0.7,0 -0.8,0.2 -0.8,0.8 l 0,25.2 c 0,0.7 0.1,0.9 0.8,0.9 l 5.3,0 c 0.7,0 0.8,-0.2 0.8,-0.9 l 0,-19.7 c 0,0 8.7,13.6 11.7,18.2 1.4,2.3 1.7,2.4 6,2.4 l 7.1,0 c 0.7,0 0.8,-0.2 0.8,-0.9 l 0,-25.2 c 0,-0.6 -0.1,-0.8 -0.8,-0.8 l -5.3,0 c -0.7,0 -0.8,0.2 -0.8,0.8 l 0,20.1 c 0,0 -10.6,-16.5 -12,-18.6 -1.5,-2.5 -2.1,-2.3 -6.7,-2.3 z m -124.6,0 c -0.6,0 -0.7,0.2 -0.7,0.7 l 0,25.3 c 0,0.7 0.1,0.9 0.9,0.9 l 6.1,0 c 0.7,0 0.8,-0.2 0.8,-0.9 l 0,-25.3 c 0,-0.5 -0.2,-0.7 -0.7,-0.7 l -6.4,0 z m 22.1,0 c -4.9,0 -7.7,1.8 -8.5,5.6 -0.1,0.8 -0.2,1.8 -0.2,2.6 0,0.8 0.1,1.7 0.1,2.4 0.3,2.2 1.7,4.7 7.4,5.3 4.6,0.4 11.1,1 13.3,1.2 1,0.1 1.2,0.8 1.2,1.2 0,0.2 0.1,0.4 0.1,0.7 0,0.3 0,0.6 -0.1,1 0,0.6 -0.3,0.9 -1.1,0.9 -0.4,0 -19.9,0 -19.9,0 -0.7,0 -0.9,0.2 -0.9,0.9 l 0,4.2 c 0,0.7 0.2,0.8 0.9,0.8 l 19.7,0 c 4.8,0 8,-0.8 8.9,-5 0.2,-0.9 0.2,-2.1 0.2,-2.9 0,-1.3 -0.1,-2.4 -0.2,-2.8 -0.9,-4.5 -4.2,-5.3 -8.9,-5.8 -2.6,-0.2 -9.5,-0.9 -11.8,-1.1 -0.8,-0.1 -1,-0.6 -1.1,-1.1 0,-0.3 -0.1,-0.5 -0.1,-0.6 0,-0.3 0.1,-0.4 0.1,-0.6 0.1,-0.7 0.4,-1.1 1.3,-1.1 0.5,0 18.8,0 18.8,0 0.6,0 0.8,-0.1 0.8,-0.8 l 0,-4.2 c 0,-0.7 -0.2,-0.8 -0.8,-0.8 0,0 -19.2,0 -19.2,0 z m 34.6,0 c -5,0 -7.8,1.8 -8.5,5.6 -0.2,0.8 -0.2,1.8 -0.2,2.6 0,0.8 0,1.7 0.1,2.4 0.3,2.2 1.6,4.7 7.3,5.3 4.6,0.4 11.1,1 13.3,1.2 1,0.1 1.2,0.8 1.3,1.2 0,0.2 0,0.4 0,0.7 0,0.3 0,0.6 0,1 -0.1,0.6 -0.4,0.9 -1.2,0.9 -0.3,0 -19.9,0 -19.9,0 -0.7,0 -0.8,0.2 -0.8,0.9 l 0,4.2 c 0,0.7 0.1,0.8 0.8,0.8 l 19.7,0 c 4.9,0 8.1,-0.8 8.9,-5 0.2,-0.9 0.2,-2.1 0.2,-2.9 0,-1.3 -0.1,-2.4 -0.1,-2.8 -0.9,-4.5 -4.2,-5.3 -9,-5.8 -2.5,-0.2 -9.5,-0.9 -11.8,-1.1 -0.8,-0.1 -1,-0.6 -1.1,-1.1 0,-0.3 0,-0.5 0,-0.6 0,-0.3 0,-0.4 0,-0.6 0.1,-0.7 0.5,-1.1 1.3,-1.1 0.5,0 18.8,0 18.8,0 0.7,0 0.8,-0.1 0.8,-0.8 l 0,-4.2 c 0,-0.7 -0.1,-0.8 -0.8,-0.8 l -19.1,0 z m 40.3,0 c -1.3,0 -1.6,0 -2.6,0 -4.1,0.1 -3.4,-0.2 -4.8,2.8 0,0 -7.1,15.9 -10.1,22.6 0,0 -0.1,0.3 -0.1,0.3 -0.6,1.1 -0.2,1.2 0.7,1.2 l 6.4,-0.1 c 0.4,0 0.6,-0.2 0.7,-0.4 0,0 0.9,-2.1 2.1,-4.9 l 15.4,0 c 1.2,2.7 2.1,4.8 2.1,4.9 0.2,0.3 0.4,0.5 0.8,0.5 l 6.5,0 c 1,0 1.2,0.1 0.8,-0.8 -1.1,-2.8 -8.7,-19.4 -9.8,-21.9 -2,-4.5 -1.2,-4 -5.5,-4.2 -0.4,0 -1.3,0 -2.6,0 z m 0.1,5.9 c 0.3,0 0.7,0 0.8,0.1 0.2,0 0.5,0.1 0.6,0.4 0.5,1.3 2.2,5.4 3.9,9.4 l -10.7,0 c 2,-4.7 3.9,-9.3 4,-9.4 0.1,-0.3 0.3,-0.4 0.6,-0.4 0.2,0 0.5,-0.1 0.8,-0.1 z"></path> </svg>