<?xml version="1.0"?>
<!--?xml version="1.0" encoding="UTF-8" standalone="no"?-->
<svg xmlns="http://www.w3.org/2000/svg" viewBox="0 0 232.98 62.7" height="62.7" width="232.98"> <path d="m 157.28,38.711 c 0.11,-0.06 0.25,-0.06 0.36,0 l 3,1.727 c 0.1,0.06 0.17,0.182 0.17,0.312 v 3.455 c 0,0.129 -0.1,0.248 -0.17,0.313 l -3,1.726 c -0.11,0.06 -0.25,0.06 -0.36,0 l -2.99,-1.726 c -0.12,-0.06 -0.18,-0.184 -0.18,-0.313 V 40.75 c 0,-0.13 0.1,-0.249 0.18,-0.312 l 2.99,-1.727 m 72.18,-16.024 h 0.72 l 1.05,3.094 1.05,-3.094 h 0.71 v 3.66 h -0.48 v -2.16 c 0,-0.08 0,-0.198 0,-0.369 0,-0.175 0,-0.362 0,-0.558 l -1.05,3.088 h -0.49 l -1.06,-3.088 v 0.11 c 0,0.09 0,0.226 0,0.413 0,0.181 0,0.316 0,0.405 v 2.16 h -0.48 v -3.66 m -0.4,-10e-4 v 0.436 h -1.24 v 3.225 h -0.5 v -3.225 h -1.23 v -0.436 h 2.97 m -20.28,27.995 c -6.43,0 -7.78,-2.953 -7.78,-5.431 0,-0.235 0.19,-0.422 0.43,-0.422 h 1.9 c 0.21,0 0.39,0.152 0.43,0.36 0.28,1.935 1.13,2.911 5.02,2.911 3.1,0 4.43,-0.701 4.43,-2.344 0,-0.947 -0.38,-1.65 -5.19,-2.121 -4.03,-0.399 -6.51,-1.288 -6.51,-4.505 0,-2.966 2.5,-4.735 6.68,-4.735 4.72,0 7.04,1.635 7.34,5.141 0,0.122 0,0.238 -0.11,0.328 -0.1,0.08 -0.19,0.135 -0.31,0.135 h -1.9 c -0.2,0 -0.38,-0.14 -0.42,-0.331 -0.46,-2.037 -1.57,-2.688 -4.6,-2.688 -3.37,0 -3.77,1.179 -3.77,2.061 0,1.069 0.46,1.38 5.04,1.984 4.51,0.598 6.66,1.444 6.66,4.619 0,3.204 -2.68,5.038 -7.34,5.038 m -4.54,11.688 c -0.53,0 -1.07,-0.141 -1.53,-0.413 l -4.92,-2.904 c -0.72,-0.41 -0.37,-0.555 -0.13,-0.64 0.98,-0.339 1.18,-0.417 2.22,-1.009 0.11,-0.06 0.25,-0.04 0.36,0.03 l 3.78,2.239 c 0.14,0.08 0.32,0.08 0.45,0 l 14.7,-8.485 c 0.14,-0.08 0.22,-0.236 0.22,-0.398 V 33.823 c 0,-0.167 -0.1,-0.322 -0.22,-0.405 l -14.69,-8.479 c -0.14,-0.08 -0.32,-0.08 -0.46,0 L 189.3,33.42 c -0.14,0.08 -0.24,0.241 -0.24,0.403 v 16.965 c 0,0.162 0.1,0.316 0.24,0.393 l 4.03,2.327 c 2.18,1.092 3.52,-0.195 3.52,-1.487 V 35.27 c 0,-0.236 0.19,-0.424 0.43,-0.424 h 1.86 c 0.24,0 0.42,0.188 0.42,0.424 v 16.751 c 0,2.916 -1.58,4.588 -4.35,4.588 -0.85,0 -1.51,0 -3.38,-0.92 l -3.85,-2.219 c -0.95,-0.551 -1.55,-1.58 -1.55,-2.682 V 33.823 c 0,-1.103 0.6,-2.132 1.55,-2.68 l 14.7,-8.494 c 0.92,-0.526 2.16,-0.526 3.08,0 l 14.7,8.493 c 0.95,0.552 1.54,1.578 1.54,2.681 v 16.965 c 0,1.102 -0.59,2.127 -1.54,2.682 l -14.7,8.487 c -0.47,0.272 -1,0.413 -1.55,0.413 M 63.288,22.844 c 0.582,-0.337 1.3,-0.337 1.882,0 l 15.59,8.996 c 0.583,0.336 0.941,0.958 0.941,1.631 v 18.007 c 0,0.673 -0.358,1.294 -0.94,1.631 L 65.17,62.113 c -0.582,0.336 -1.3,0.336 -1.884,0 L 47.7,53.109 C 47.118,52.772 46.759,52.151 46.759,51.478 V 33.47 c 0,-0.672 0.359,-1.294 0.942,-1.63 l 15.587,-8.996 m 110.652,16.71 c 0.59,-0.338 0.93,-0.958 0.93,-1.628 v -4.362 c 0,-0.671 -0.34,-1.291 -0.93,-1.629 L 158.45,22.94 c -0.59,-0.337 -1.3,-0.339 -1.89,0 l -15.59,8.999 c -0.57,0.336 -0.93,0.957 -0.93,1.63 v 17.993 c 0,0.677 0.36,1.302 0.95,1.636 l 15.48,8.826 c 0.58,0.326 1.28,0.33 1.85,0.01 l 9.37,-5.207 c 0.3,-0.165 0.49,-0.477 0.49,-0.816 0,-0.34 -0.18,-0.654 -0.48,-0.823 l -15.69,-9.003 c -0.28,-0.167 -0.46,-0.48 -0.46,-0.816 v -5.64 c 0,-0.336 0.18,-0.648 0.46,-0.815 l 4.89,-2.815 c 0.29,-0.168 0.65,-0.168 0.94,0 l 4.88,2.815 c 0.29,0.167 0.47,0.479 0.47,0.815 v 4.437 c 0,0.337 0.18,0.648 0.47,0.817 0.3,0.168 0.65,0.166 0.95,0 l 9.33,-5.427 m -57.23,6.34 c 0,0.169 -0.1,0.324 -0.23,0.408 l -5.36,3.086 c -0.14,0.08 -0.32,0.08 -0.47,0 l -5.35,-3.086 c -0.14,-0.08 -0.23,-0.239 -0.23,-0.408 v -6.181 c 0,-0.167 0.1,-0.324 0.23,-0.407 l 5.35,-3.093 c 0.15,-0.08 0.33,-0.08 0.47,0 l 5.36,3.093 c 0.14,0.08 0.23,0.24 0.23,0.407 z m 1.45,-45.77725 c -0.29,-0.1625 -0.65,-0.15875 -0.93,0.0125 -0.29,0.17 -0.47,0.47875 -0.47,0.8125 V 24.86 c 0,0.235 -0.13,0.452 -0.33,0.57 -0.2,0.119 -0.45,0.119 -0.66,0 l -3.9,-2.249 c -0.58,-0.335 -1.3,-0.335 -1.88,0 L 94.395,32.18 c -0.582,0.338 -0.941,0.958 -0.941,1.631 v 18 c 0,0.673 0.359,1.294 0.941,1.631 l 15.595,9.005 c 0.58,0.336 1.3,0.336 1.88,0 l 15.59,-9.005 c 0.59,-0.337 0.94,-0.958 0.94,-1.631 V 6.9413 c 0,-0.6838 -0.36,-1.3125 -0.96,-1.645 L 118.16,0.11875 M 34.935,33.321 c 0,-0.677 -0.356,-1.3 -0.941,-1.636 l -15.585,-8.97 c -0.264,-0.155 -0.56,-0.235 -0.859,-0.248 -0.03,0 -0.139,0 -0.161,0 -0.298,0.01 -0.594,0.09 -0.86,0.248 L 0.94239,31.685 C 0.36132,32.021 0,32.644 0,33.321 l 0.03418,24.152 c 0,0.336 0.17432,0.649 0.46972,0.813 0.28956,0.174 0.647,0.174 0.9356,0 l 9.2625,-5.303 c 0.586,-0.348 0.943,-0.962 0.943,-1.634 V 40.065 c 0,-0.672 0.356,-1.295 0.94,-1.63 l 3.944,-2.271 c 0.294,-0.17 0.615,-0.253 0.942,-0.253 0.321,0 0.652,0.08 0.938,0.253 l 3.942,2.271 c 0.584,0.335 0.941,0.958 0.941,1.63 v 11.284 c 0,0.672 0.362,1.29 0.944,1.634 l 9.26,5.303 c 0.29,0.174 0.653,0.174 0.942,0 0.286,-0.164 0.467,-0.477 0.467,-0.813 l 0.03,-24.152"></path>
   </svg>