<?xml version="1.0"?>

<svg xmlns="http://www.w3.org/2000/svg" viewBox="0 0 379.1 153.6" height="153.6" width="379.1"> <path d="m 257.1,76.9 c 0,6.9 0,13.8 0,20.7 0,0.4 0,0.5 0,0.5 -5,0 -9,0 -13,0 0,0 0,-0.1 0,-0.5 0,-13.8 0,-27.6 0,-41.5 0,-0.3 0,-0.4 0,-0.4 4,0 8,0 13,0 0,0 0,0.2 0,0.5 0,6.9 0,13.8 0,20.7 l 0,0 z m -60,-21.2 0,42.4 0,0 c -5,0 -9,0 -13,0 0,0 -1,-0.1 -1,-0.5 0,-13.8 0,-27.6 0,-41.4 0,-0.5 0,-0.5 1,-0.5 4,0 8,0 13,0 0,0 0,0 0,0 m 43,42.4 -1,0 c -6,0 -12,0 -18,0 0,0 0,-0.1 0,-0.3 -4,-3.6 -8,-7.2 -12,-10.9 -4,-3.5 -8,-7 -12,-10.5 0,-0.1 0,-0.2 -1,-0.4 1,-0.5 2,-1 2,-1.5 2,-1.9 4,-3.9 7,-5.8 2,-2 4,-4.1 6,-6.1 3,-2.2 5,-4.3 8,-6.5 0,-0.2 0,-0.4 1,-0.4 5,0 11,0 17,0 0,0 0,0 0,0 -8,6.8 -16,13.5 -25,20.3 10,7.4 19,14.7 28,22.1 m 84,0 -1,0 c -4,0 -9,0 -14,0 0,0 0,-0.1 -1,-0.5 -1,-2.2 -2,-4.3 -3,-6.5 0,-0.3 0,-0.4 0,-0.4 -9,0 -18,0 -26,0 -1,0 -1,0.2 -1,0.5 -1,2.2 -2,4.4 -4,6.6 0,0.2 0,0.3 0,0.3 -5,0 -10,0 -14,0 0,0 0,0 -1,0 1,-0.4 1,-0.8 1,-1.2 3,-5.2 6,-10.5 9,-15.7 3,-5.1 6,-10.3 9,-15.5 2,-3.1 3,-6.3 5,-9.4 0,-0.4 1,-0.6 1,-0.6 5,0 11,0 16,0 0,0 1,0.1 1,0.4 2,4.6 5,9.1 7,13.6 3,5.3 6,10.5 9,15.8 2,3.7 4,7.4 6,11 0,0.5 1,1 1,1.6 m -24,-16.5 c -3,-5.2 -6,-10.3 -9,-15.5 -2,5.2 -5,10.3 -8,15.5 l 17,0 z m -151,17 c -4,0 -8,0 -12,0 -3,0 -6,-0.3 -8,-1.2 -2,-0.6 -4,-1.6 -6,-3.3 -1,-1.3 -1,-2.8 -2,-4.4 0,-1 0,-2 0,-3.1 0,-6.8 0,-13.6 0,-20.4 0,-1.9 1,-3.8 2,-5.5 1,-1.9 2,-3.2 4,-4 2,-0.8 4,-1.1 6,-1.4 2,-0.2 4,-0.3 6,-0.3 8,0 16,0 23,0 3,0 6,0.4 9,1.4 3,0.8 4,2 6,4.1 0,1.3 1,2.7 1,4.2 0,0.7 0,1.5 0,2.2 0,6.9 0,13.8 0,20.7 0,1.6 0,3.3 -1,4.8 -1,2 -2,3.4 -4,4.3 -2,0.9 -5,1.4 -7,1.6 -2,0.4 -5,0.3 -8,0.3 -3,0 -6,0 -9,0 l 0,0 z m 1,-33.1 0,0 c -4,0 -8,0 -11,0 -1,0 -2,0 -3,0.1 -1,0.2 -2,1 -3,2.6 0,0.2 0,0.5 0,0.8 0,4.2 0,8.5 0,12.7 0,1 0,2 0,2.9 0,1.5 1,2.4 3,2.8 0,0.2 1,0.3 2,0.3 7,0 15,0 23,0 1,0 2,-0.2 3,-0.3 1,-0.3 2,-0.9 2,-2 0,-0.4 0,-0.8 0,-1.2 0,-4.9 0,-9.9 0,-14.8 0,-0.5 0,-0.9 0,-1.4 0,-1 -1,-1.8 -2,-2.1 -1,-0.4 -2,-0.4 -3,-0.5 -4,0 -8,0 -11,0 m -47,21.5 0,-31.2 c 0,0 0,0 1,0 3,0 7,0 11,0 1,0 1,0 1,0.5 0,13.8 0,27.6 0,41.4 l 0,0.4 c 0,0 0,0 0,0 -8,0 -15,0 -22,0 0,0 0,-0.1 0,-0.3 -3,-2.5 -5,-5.1 -7,-7.6 -2,-2.8 -4,-5.6 -6,-8.4 -3,-2.7 -5,-5.5 -7,-8.2 -2,-2.4 -4,-4.8 -6,-7.2 0,-0.1 0,-0.1 0,-0.2 l 0,0.4 c 0,10.3 0,20.6 0,30.9 0,0.1 0,0.1 0,0.2 0,0.3 0,0.4 -1,0.4 -4,0 -8,0 -12,0 0,0 -0.1,-0.1 -0.1,-0.5 0,-13.8 0,-27.5 0,-41.3 0,-0.6 0,-0.6 1.1,-0.6 7,0 14,0 21,0 0,0 0,0.1 0,0.4 3,3.1 6,6.3 8,9.4 3,3.8 6,7.6 10,11.5 2,3.3 5,6.6 8,9.8 0,0.1 0,0.2 0,0.2 0,0 0,0 0,0"></path> </svg>