 <svg 
   xmlns="http://www.w3.org/2000/svg"  width="514" height="215" viewBox="0 0 814 215">
<path class="logotype" d="m 784.5,179 c 0,0 1.5,0 1.5,0 1.7,0 3.1,-0.7 3.1,-2.3 0,-1.1 -0.7,-2.3 -3.2,-2.3 -0.6,0 -1,0 -1.4,0.1 0,0 0,4.5 0,4.5 z m 0,6.4 c 0,0 -1.5,0 -1.5,0 0,0 0,-12 0,-12 1.1,-0.1 1.9,-0.3 3.1,-0.3 1.7,0 2.9,0.4 3.6,0.9 0.7,0.6 1.1,1.4 1.1,2.5 0,1.6 -1.1,2.6 -2.4,3 0,0 0,0 0,0 1.1,0.2 1.8,1.2 2.1,3 0.3,1.8 0.6,2.6 0.8,2.9 0,0 -1.6,0 -1.6,0 -0.3,-0.3 -0.7,-1.4 -1,-3 -0.3,-1.6 -1,-2.3 -2.7,-2.3 0,0 -1.5,0 -1.5,0 0,0 0,5.3 0,5.3 z m 2.2,-15.6 c -5,0 -8.9,4.2 -8.9,9.4 0,5.3 3.9,9.5 8.9,9.5 4.9,0 8.8,-4.2 8.8,-9.5 0,-5.2 -3.9,-9.4 -8.8,-9.4 0,0 0,0 0,0 z m 0,-1.4 c 5.9,0 10.5,4.8 10.5,10.8 0,6.1 -4.6,10.8 -10.5,10.8 -5.9,0 -10.7,-4.7 -10.7,-10.8 0,-6 4.8,-10.8 10.7,-10.8 0,0 0,0 0,0 z M 131.9,25.6 c 0,0 0,102.5 0,102.5 0,0 -114.18,-105.59 -114.18,-105.59 0,0 0,166.79 0,166.79 0,0 29.46,0 29.46,0 0,0 0,-96.77 0,-96.77 0,0 114.22,105.57 114.22,105.57 0,0 0,-172.5 0,-172.5 0,0 -29.5,0 -29.5,0 z m 596.4,-7.9 c 0,0 28.8,0 28.8,0 0,0 0,171.6 0,171.6 0,0 -28.8,0 -28.8,0 0,0 0,-171.6 0,-171.6 z m -63.3,0 c 0,0 28.8,0 28.8,0 0,0 0,171.6 0,171.6 0,0 -28.8,0 -28.8,0 0,0 0,-171.6 0,-171.6 z M 450.2,54.39 c 0,0 -34,77.51 -34,77.51 0,0 -33.7,-77.51 -33.7,-77.51 0,0 -33.3,0 -33.3,0 0,0 67,142.51 67,142.51 0,0 67.3,-142.51 67.3,-142.51 0,0 -33.3,0 -33.3,0 z m -183,110.01 c -10.3,0 -20.1,-4.1 -27.6,-11.6 -7.6,-7.6 -12,-18.2 -12,-28.9 0,-10.9 4.2,-21.1 11.9,-28.84 7.5,-7.45 17.3,-11.54 27.7,-11.54 10.5,0 20.3,4.09 27.7,11.54 7.7,7.74 12,17.94 12,28.84 0,22.3 -17.8,40.5 -39.7,40.5 z M 316.7,74.94 C 303.7,62 286.2,54.86 267.2,54.86 c -38.8,0 -69.3,30.34 -69.3,69.04 0,18.8 7.1,36.2 19.9,49 13,13 30.5,20.1 49.4,20.1 19,0 36.5,-7.1 49.5,-20.1 12.8,-12.8 19.9,-30.2 19.9,-49 0,-18.7 -7.1,-36.11 -19.9,-48.96 z m 248.4,3.23 c 18,0 30.8,10.44 34.6,28.03 0,0 -70.3,0 -70.3,0 4,-16.85 18,-28.03 35.7,-28.03 z m 40.4,63.43 c 0,0 -1,1.6 -1,1.6 -9.2,14.3 -19.3,23.9 -38.5,23.9 -23.8,0 -37.3,-19.4 -38.4,-38.4 0,0 102.4,0 102.4,0 0,0 0,-2 0,-2 0,0 0,-3.8 0,-3.8 0,-22.2 -6.6,-40.52 -19.1,-52.95 -11.3,-11.33 -26.7,-17.07 -45.8,-17.07 -41.6,0 -67.4,27.15 -67.4,70.82 0,20 6.9,38 19.5,50.5 12.2,12.3 29,18.7 48.5,18.7 27.2,0 51.1,-13.4 64,-35.9 0,0 1,-1.8 1,-1.8 0,0 -25.2,-13.6 -25.2,-13.6 z">
</path>
</svg>