<svg    xmlns="http://www.w3.org/2000/svg"
   viewBox="0 0 1010 205.3"
   height="205.3" width="1010"
  ><path
     d="m 123.3,67.56 c -19.3,0 -34.97,15.73 -34.97,35.04 0,19.4 15.67,35.1 34.97,35.1 19.3,0 35.1,-15.7 35.1,-35.1 0,-19.31 -15.8,-35.04 -35.1,-35.04 z m 0,75.44 C 101,143 82.93,124.9 82.93,102.6 82.93,80.36 101,62.23 123.3,62.23 c 22.3,0 40.4,18.13 40.4,40.37 0,22.3 -18.1,40.4 -40.4,40.4 m 9.6,-98.21 c -32.8,0 -59.37,26.66 -59.37,59.31 0,32.8 26.57,59.4 59.37,59.4 32.7,0 59.3,-26.6 59.3,-59.4 0,-32.65 -26.6,-59.31 -59.3,-59.31 z m 0,124.11 c -35.67,0 -64.67,-29.1 -64.67,-64.8 0,-35.59 29,-64.64 64.67,-64.64 35.6,0 64.7,29.05 64.7,64.64 0,35.7 -29.1,64.8 -64.7,64.8 m 1,-151.57 c -9.4,0 -19,1.07 -28.5,3.07 C 47.83,32.93 9.025,80 18.93,125.3 c 8,36.9 46.6,62.7 93.77,62.7 9.5,0 19,-1.1 28.5,-3.1 28,-6.1 52.5,-20.5 68.8,-40.4 16.2,-19.8 22.5,-42.8 17.8,-64.58 C 219.7,43.06 181.2,17.33 133.9,17.33 Z M 112.7,193.3 C 62.93,193.3 22.23,165.8 13.63,126.5 3.225,78.25 43.83,28.26 104.3,15.2 c 9.8,-2.13 19.8,-3.2 29.6,-3.2 49.8,0 90.4,27.46 99.1,66.78 5.1,23.42 -1.6,48.02 -18.9,69.02 -17.1,20.9 -42.5,35.9 -71.8,42.3 -9.8,2.1 -19.8,3.2 -29.6,3.2 M 987,137.5 c -1,-0.1 -1,-0.2 -2,-0.2 l -1,0 0,3.9 1,0 c 1,0 2,-0.1 2,-0.5 0,-0.3 1,-0.9 1,-1.4 0,-0.9 -1,-1.5 -1,-1.8 z m 1,11.9 c 0,-1 -1,-1.3 -1,-2.4 -2,-2.6 -2,-3.3 -3,-3.5 0,0 0,-0.1 0,-0.1 l 0,6 -3,0 0,-14.5 5,0 c 3,0 5,1.7 5,4.3 0,2.1 -2,3.9 -4,3.9 1,0.3 1,0.4 1,0.7 1,1 4,5.6 4,5.6 l -4,0 z m -2,-17.5 c -6,0 -10,4.6 -10,10.4 0,5.7 4,10.4 10,10.4 5,0 9,-4.7 9,-10.4 0,-5.8 -4,-10.4 -9,-10.4 z m 0,23.3 c -8,0 -13,-5.7 -13,-12.9 0,-7.2 5,-12.9 13,-12.9 7,0 12,5.7 12,12.9 0,7.2 -5,12.9 -12,12.9 m -45,0.3 c -24,0 -37,-16.8 -37,-45.2 0,-31.88 19,-47.15 38,-47.15 10,0 17,2.25 25,9.54 l -10,12.68 c -5,-4.69 -9,-6.77 -15,-6.77 -6,0 -11,3.12 -13,8.85 -3,5.39 -4,13.55 -4,24.45 0,12 2,19.6 6,24 3,3.1 7,5 11,5 7,0 12,-2.9 18,-8.7 l 9,11.7 c -8,8 -16,11.6 -28,11.6 m -73.9,-2.3 0,-86.41 19.3,-3.47 0,89.88 -19.3,0 z m 9.6,-100.81 c -6.9,0 -12.4,-5.73 -12.4,-12.66 0,-7.2 5.6,-12.93 12.7,-12.93 6.8,0 13,5.59 13,12.93 0,6.93 -6.2,12.66 -13.3,12.66 M 843.5,155.2 c -19.3,0 -19.3,-17.4 -19.3,-24.9 l 0,-74.84 c 0,-12 -0.4,-18.4 -1.7,-25.6 l 19.7,-4.4 c 1.3,5.34 1.5,12.67 1.5,24.13 l 0,74.51 c 0,11.8 0.5,13.7 2,15.8 0.9,1.5 4,2.4 6.2,1.4 l 3.1,11.8 c -3.5,1.4 -7.1,2.1 -11.5,2.1 M 772.2,77.73 c -10.8,0 -16.7,8.5 -16.7,22.67 l 32.4,0 c 0,-14.17 -6.2,-22.67 -15.7,-22.67 z m -16.8,36.77 0,1.4 c 0,12.2 4.4,25 21.6,25 8.3,0 15.3,-2.9 21.9,-8.7 l 7.4,11.7 c -9.2,7.8 -19.7,11.6 -31.6,11.6 -24.8,0 -40.3,-17.9 -40.3,-46 0,-15.46 3.3,-25.7 10.9,-34.38 7,-8.16 15.7,-11.8 26.9,-11.8 8.7,0 16.7,2.25 24.1,9.02 7.6,6.95 11.5,17.71 11.5,38.16 l 0,4 -52.4,0 m -77.8,-65.31 -11,0 0,38.08 10.3,0 c 10.4,0 16,-1.38 19.6,-5.03 3.3,-3.3 5.3,-8.34 5.3,-14.59 0,-12.19 -6.5,-18.46 -24.2,-18.46 z m 27.7,104.01 -10.4,-18.5 c -8.3,-14.8 -13.9,-23.2 -20.4,-29.8 -2.3,-2.2 -4,-3.4 -7.9,-3.6 l 0,51.9 -19.6,0 0,-120.14 36.7,0 c 26.9,0 39.1,15.73 39.1,34.42 0,17.18 -11.2,32.92 -29.9,32.92 4.3,2.3 12.3,14 18.5,24 l 17.8,28.8 -23.9,0 m -136,0.4 -18,0 -10.6,-40.5 c -2.8,-10.4 -5.8,-23.92 -5.8,-23.92 l -0.4,0 c 0,0 -1.3,8.66 -5.7,24.82 l -10.5,39.6 -18,0 -23.9,-86.99 18.9,-2.6 9.5,42.49 c 2.5,11 4.5,23.1 4.5,23.1 l 0.6,0 c 0,0 1.7,-11.4 5,-23.6 l 11.4,-40.6 18.6,0 9.9,39.5 c 3.7,14.3 5.6,25.1 5.6,25.1 l 0.5,0 c 0,0 2.2,-13.4 4.4,-23.7 l 9,-40.9 19.8,0 -24.8,88.2 M 432.2,77.73 c -10.8,0 -16.7,8.5 -16.7,22.67 l 32.4,0 c 0,-14.17 -6.3,-22.67 -15.7,-22.67 z m -17,36.77 0,1.4 c 0,12.2 4.6,25 21.8,25 8.1,0 15.3,-2.9 21.8,-8.7 l 7.5,11.7 c -9.2,7.8 -19.7,11.6 -31.6,11.6 -24.8,0 -40.4,-17.9 -40.4,-46 0,-15.46 3.3,-25.7 10.9,-34.38 7.1,-8.16 15.8,-11.8 27,-11.8 8.6,0 16.6,2.25 24.1,9.02 7.6,6.95 11.5,17.71 11.5,38.16 l 0,4 -52.6,0 M 358.6,153.2 331.7,96.84 C 325.1,83.45 318.6,68.35 316.3,61.23 l -0.5,0.52 c 0.9,10.08 1.1,22.75 1.2,33.39 l 0.7,58.06 -19.6,0 0,-120.14 22.6,0 29.1,58.72 c 5.6,11.12 10.8,25.32 12.4,30.92 l 0.5,-0.5 C 362.2,116.1 361,98.94 361,87.97 l -0.4,-54.91 18.9,0 0,120.14 -20.9,0"/></svg>