<?xml version="1.0"?>
<!--?xml version="1.0" encoding="UTF-8" standalone="no"?-->
<svg xmlns="http://www.w3.org/2000/svg" viewBox="0 0 206 49.648" height="49.648" width="206">

  <path d="M 16.164,44.449 C 10.199,43.285 6.1889,39.092 5.1838,32.969 4.0335,25.961 8.3916,19.22 15.198,17.48 c 2.927,-0.749 7.201,-0.409 9.479,0.754 0.427,0.217 0.822,0.395 0.879,0.395 0.06,0 0.104,-3.066 0.104,-6.815 V 5 l 3.788,0.052 3.789,0.052 0.05,17.022 0.05,17.022 -1.008,0.511 c -0.554,0.28 -1.852,1.022 -2.882,1.648 -2.36,1.433 -4.672,2.509 -6.279,2.921 -1.708,0.438 -5.308,0.551 -7.002,0.221 z m 5.933,-7.484 c 2.289,-1.12 3.608,-3.369 3.608,-6.154 0,-2.959 -1.491,-5.287 -3.984,-6.222 -1.561,-0.585 -4.158,-0.518 -5.499,0.143 -1.207,0.594 -2.329,1.753 -2.978,3.074 -0.475,0.968 -0.533,1.295 -0.533,3.005 0,1.665 0.07,2.058 0.499,2.982 0.886,1.89 2.019,2.876 4.105,3.572 1.207,0.402 3.54,0.207 4.782,-0.4 z m 26.871,7.48 c -5.601,-1.109 -9.465,-4.8 -10.953,-10.466 -0.414,-1.575 -0.365,-4.767 0.102,-6.58 1.266,-4.926 5.007,-8.672 9.914,-9.927 1.837,-0.47 5.519,-0.513 7.331,-0.09 4.003,0.944 7.403,3.648 9.14,7.269 1.029,2.147 1.444,3.957 1.444,6.307 0,4.049 -1.939,8.201 -4.963,10.625 -1.278,1.024 -3.689,2.234 -5.301,2.658 -1.617,0.426 -5.056,0.528 -6.714,0.2 z m 5.705,-7.456 c 3.983,-1.855 5.022,-7.474 2.001,-10.817 -2.389,-2.644 -7.08,-2.706 -9.566,-0.126 -0.391,0.405 -0.952,1.254 -1.247,1.887 -0.473,1.013 -0.537,1.371 -0.531,2.974 0,1.604 0.07,1.958 0.554,2.952 0.888,1.833 2.397,3.09 4.28,3.565 1.202,0.304 3.373,0.09 4.509,-0.435 z m 52.037,7.46 c -5.14,-1.003 -8.969,-4.335 -10.617,-9.24 -2.016,-5.996 0.544,-13.031 5.887,-16.189 2.25,-1.324 3.96,-1.789 6.94,-1.88 3.27,-0.1 4.82,0.202 7.27,1.414 1.46,0.72 2.11,1.192 3.38,2.45 2.62,2.608 3.88,5.436 4.07,9.154 0.33,6.536 -3.71,12.22 -9.93,13.982 -1.85,0.524 -5.15,0.67 -7,0.309 z m 5.54,-7.374 c 1.32,-0.581 2.67,-1.953 3.3,-3.342 0.73,-1.609 0.76,-3.878 0.1,-5.602 -0.61,-1.549 -2.03,-2.967 -3.55,-3.535 -1.15,-0.433 -3.1,-0.568 -4.24,-0.294 -2.07,0.502 -3.88,2.238 -4.52,4.342 -1.19,3.901 0.73,7.679 4.42,8.727 1.19,0.336 3.4,0.19 4.5,-0.296 z m 71.77,7.37 c -2.94,-0.582 -5.22,-1.774 -7.19,-3.756 -1.65,-1.662 -2.52,-3.023 -3.32,-5.242 -0.48,-1.319 -0.59,-1.936 -0.66,-3.902 -0.12,-2.913 0.22,-4.597 1.39,-6.933 2.47,-4.924 6.84,-7.522 12.64,-7.515 4.51,0 7.63,1.302 10.48,4.357 2.38,2.552 3.64,5.838 3.64,9.508 0,4.066 -1.93,8.191 -4.96,10.625 -1.28,1.024 -3.69,2.234 -5.3,2.658 -1.62,0.426 -5.06,0.528 -6.72,0.2 z m 5.71,-7.459 c 5.79,-2.714 4.55,-11.949 -1.72,-12.756 -3.23,-0.417 -5.8,0.923 -7.09,3.703 -0.48,1.007 -0.54,1.379 -0.54,2.974 0,1.621 0.1,1.947 0.55,2.953 0.91,1.84 2.41,3.09 4.29,3.564 1.21,0.305 3.37,0.09 4.51,-0.438 z M 80.862,44.137 c -3.884,-0.654 -7.415,-2.997 -9.319,-6.184 -2.32,-3.886 -2.47,-9.3 -0.371,-13.473 1.659,-3.3 4.579,-5.58 8.514,-6.648 1.319,-0.358 2.174,-0.421 6.738,-0.498 l 5.228,-0.09 v 3.569 3.569 l -3.789,10e-4 c -4.238,0 -5.564,0.157 -7.024,0.826 -1.399,0.64 -2.318,1.51 -2.944,2.783 -0.472,0.961 -0.535,1.305 -0.534,2.913 10e-4,1.603 0.06,1.937 0.511,2.781 0.681,1.282 1.736,2.264 3.133,2.916 1.149,0.536 1.16,0.538 5.899,0.6 l 4.748,0.06 v 3.534 3.534 l -4.94,-0.02 c -2.717,-0.01 -5.349,-0.09 -5.85,-0.176 z m 47.098,-9.058 c 0.1,-8.111 0.12,-9.398 0.41,-10.407 1.09,-3.721 3.81,-6.335 7.6,-7.306 0.94,-0.241 1.81,-0.293 3.73,-0.226 2.95,0.105 4.67,0.579 7.08,1.959 l 1.51,0.864 0.55,-0.391 c 0.95,-0.673 3.7,-1.88 4.99,-2.182 1.65,-0.39 5.23,-0.385 6.76,0 2.8,0.723 5.24,2.605 6.51,5.014 1.27,2.422 1.29,2.625 1.29,12.791 v 9.132 h -3.74 -3.74 v -8.393 c 0,-5.181 -0.1,-8.665 -0.19,-9.106 -0.48,-1.723 -2,-2.665 -4.3,-2.665 -1.52,0 -2.57,0.326 -3.34,1.038 -0.98,0.895 -0.99,1.025 -0.99,10.392 v 8.734 h -3.84 -3.83 v -8.68 c 0,-8.012 0,-8.74 -0.35,-9.448 -0.67,-1.45 -1.81,-2.036 -3.97,-2.036 -2.21,0 -3.74,0.892 -4.28,2.496 -0.15,0.448 -0.22,3.319 -0.22,9.16 v 8.508 h -3.85 -3.85 z M 39.088,9.335 V 5.0081 l 1.007,0 1.008,0 1.918,2.7235 1.918,2.7234 0.05,-2.7257 0.05,-2.7257 H 46 46.954 v 4.3168 4.3166 h -1.019 -1.018 l -1.907,-2.713 -1.907,-2.712 -0.1,2.664 -0.1,2.665 -0.911,0.06 -0.912,0.06 z M 51.322,10.236 51.27,6.8305 49.975,6.7738 48.68,6.7171 V 5.8626 5.0081 h 3.645 3.645 v 0.8545 0.8545 l -1.295,0.057 -1.295,0.057 -0.05,3.4049 -0.05,3.405 h -0.951 -0.95 z m 8.825,0 L 60.095,6.8305 58.8,6.7738 57.505,6.7171 V 5.8626 5.0081 h 3.645 3.645 v 0.8545 0.8545 l -1.295,0.057 -1.295,0.057 -0.05,3.4049 -0.05,3.405 h -0.95 -0.951 z"></path>

</svg>
