<?xml version="1.0"?>

<svg xmlns="http://www.w3.org/2000/svg" xml:space="preserve" viewBox="0 0 552.15 156.25" width="552.15" height="156.25"> <path d="m 165.77,33.003 c -15.03,-0.1 -32.09,1.95 -49.74,6.32 -51.354,12.71 -88.254,40.39 -82.424,61.817 5.85,21.43 52.211,28.5 103.564,15.79 11.61,-2.87 22.47,-6.52 32.28,-10.68 -2.91,0.71 -5.92,1.09 -9,1.09 -18.18,0 -31.54,-11.587 -31.54,-28.427 0,-15.97 13.94,-30.7 30.35,-30.7 10.6,0 16.13,6.66 16.13,13.9 0,5.71 -3.83,11.22 -9.71,13.43 v -0.1 c 2.62,-2.8 3.89,-5.7 3.89,-9.89 0,-6.38 -4,-11.8 -11.81,-11.8 -10.88,0 -20.42,10.44 -20.42,22.65 0,14.11 11.09,23.657 23.94,23.657 21.58,0 36.76,-13.657 39.23,-34.357 v 0 c 0.1,13.82 -6.46,25.95 -16.35,33.5 24.79,-13.42 39.23,-30.1 35.41,-44.1 -3.83,-14.06 -25.12,-21.94 -53.81,-22.1 z m 353.34,28.39 h -3.18 -33.48 v 4.98 h 30.08 0.43 v 0.42 c -0.55,5.67 -5.35,10.77 -11.35,12.09 v 5.6 c 11.4,-3.44 17.57,-11.82 17.54,-23.09 z m -25.26,16.95 c 0,5.89 -3.3,13.24 -10.63,14.93 v 5.34 c 11.54,-3.33 15.61,-13.1 15.61,-20.28 v -6.77 h -4.98 z m -57.4,-12.78 h -0.39 v -0.38 -6.24 h -4.98 v 6.24 0.38 h -0.39 -11.74 -2.5 v 2.49 13.66 h 4.98 v -11.06 -0.39 h 0.39 23.38 0.4 v 0.41 c -0.5,13.34 -6.57,20.68 -19.12,23.04 v 5.1 c 10.53,-2.21 24.2,-7.92 24.2,-30.75 v -2.49 h -2.49 -11.73 z m -33.58,11.68 5.53,15.62 0.18,0.52 h -0.55 -24.85 -0.76 l 0.45,-0.61 c 1.8,-2.46 3.34,-7.2 6.14,-15.38 1.35,-3.94 2.62,-7.87 3.63,-11.04 0.92,-2.86 1.63,-5.07 2.05,-6.17 h -5.28 c -6.06,18.99 -9.34,28.53 -12.51,33.15 v 1.37 1.17 2.5 h 2.5 32.88 3.67 l -7.8,-21.13 z m 73.41,-4.52 h -21.16 v 4.72 c 0,0 7.95,0 8.05,0 0,0.1 0,15.98 0,16.09 -0.1,0 -10.67,0 -10.67,0 v 4.76 h 26.11 v -4.76 c 0,0 -10.58,0 -10.68,0 0,-0.1 0,-15.99 0,-16.09 0.1,0 8.47,0 8.47,0 v -4.72 z M 367.62,61.393 h -26.75 v 4.98 h 23.87 0.39 v 0.39 26.24 0.38 h -0.39 -23.87 v 4.99 h 26.75 2.49 v -2.5 -31.99 -2.49 z m -102.28,31.98 -0.72,-1.32 -16.96,-30.66 h -7.51 v 37 h 4.99 v -30.04 -1.52 l 0.72,1.32 16.61,30.24 h 7.86 v -37 h -4.99 v 30.47 z m 20.31,-27 h 0.39 v 0.39 31.63 h 4.97 v -31.63 -0.39 h 0.39 11.27 v -4.98 h -28.03 v 4.98 z m 31.61,0 h 0.39 v 0.39 31.63 h 4.98 v -31.63 -0.39 h 0.39 11.27 v -4.98 h -28.04 v 4.98 z"></path></svg>