<?xml version="1.0"?>
<!--?xml version="1.0" encoding="UTF-8" standalone="no"?-->
<svg xmlns:dc="http://purl.org/dc/elements/1.1/" xmlns:cc="http://creativecommons.org/ns#" xmlns:rdf="http://www.w3.org/1999/02/22-rdf-syntax-ns#" xmlns:svg="http://www.w3.org/2000/svg" xmlns="http://www.w3.org/2000/svg" viewBox="0 0 100 135" id="svg2226" height="135" width="100" version="1.0">
  <defs id="defs2229"></defs>
  <path d="m 62.62,1.34 c -3.96,0 -8.51,0.704 -11.43,1.879 L 49.96,3.711 49.15,3.321 C 48.02,2.778 45.16,2.036 42.77,1.676 39.89,1.238 35.55,1.277 32.77,1.766 21.32,3.769 10.94,12.09 5.603,23.56 0.0805,35.43 -0.5266,50.72 4.067,62.59 7.582,71.68 13.88,79.4 22.37,85.01 c 7.46,4.9 16.51,7.95 24.92,8.37 8.87,0.46 17.12,-1.32 25.26,-5.45 4.96,-2.5 8.91,-5.36 12.79,-9.2 4.08,-4.04 6.59,-7.53 9.03,-12.49 2.14,-4.36 3.44,-8.51 4.25,-13.58 C 99.16,49.33 99.1,40.92 98.52,37.23 97.66,31.74 96.35,27.49 94.07,22.83 88.44,11.29 78.06,3.356 66.31,1.586 65.19,1.419 63.94,1.341 62.62,1.34 Z M 38.64,12.68 37.4,14.06 c -2.67,2.96 -4.92,6.81 -6.13,10.49 -2.92,8.88 -1.06,17.77 4.88,23.32 C 42.41,53.73 51.4,55 59.22,51.16 67.4,47.13 71.61,37.91 69.75,28.09 68.82,23.23 66.06,17.68 62.91,14.36 62.18,13.6 61.6,12.91 61.6,12.83 c 0,-0.1 0.88,-0.1 1.98,0 4.92,0.29 9.87,2.76 14.16,7.06 4.84,4.86 7.7,10.64 9.16,18.44 0.48,2.63 0.48,10.08 0,12.77 -1.31,7.21 -3.96,12.89 -8.41,18.06 C 72.4,76.13 63.66,80.65 54.07,81.68 41.74,83.05 29.06,78.03 21.3,68.74 16.11,62.55 13.38,55.6 12.81,47.13 11.87,33.14 18.49,20.14 29.23,14.85 c 2.79,-1.37 4.73,-1.91 7.4,-2.06 l 2.01,-0.11 z m 11.43,3.13 c 0.56,0 3.9,3.4 5.04,5.09 0.48,0.73 1.23,2.04 1.65,2.89 3.88,7.74 1.73,16.38 -4.48,17.92 -3.2,0.81 -6.14,0 -8.22,-2.27 -1.84,-1.98 -2.61,-4.28 -2.63,-7.7 0,-3.13 0.56,-5.36 2.13,-8.43 0.52,-1 1.37,-2.39 1.88,-3.08 1.29,-1.7 4.14,-4.42 4.63,-4.42 z m 19.79,114.99 0,-2.8 2.11,0 2.12,0 0,-8.6 0,-8.7 -1.64,0 -1.63,0 0,2.6 0,2.6 -2.78,0 -2.79,0 0,-5.4 0,-5.4 12.49,0 12.48,0 0,5.4 0,5.4 -2.78,0 -2.79,0 0,-2.6 0,-2.6 -1.63,0 -1.63,0 0,8.7 0,8.6 2.11,0 2.11,0 0,2.8 0,2.8 -7.87,0 -7.88,0 0,-2.8 z m -27.28,0 0,-2.8 2.21,0 2.21,0 0,-8.6 -0.1,-8.6 -1.57,-0.1 -1.59,0 0,2.6 0,2.6 -2.89,0 -2.88,0 0,-5.3 0.1,-5.4 12.54,0 12.53,-0.1 0,5.4 0,5.4 -2.79,0 -2.78,0 0,-2.6 0,-2.6 -1.64,0 -1.63,0 0,8.7 0,8.6 2.11,0 2.12,0 0,2.8 0,2.8 -7.98,0 -7.97,0 0,-2.8 z m -34.96,0 0,-2.8 1.633,0 1.637,0 0,-8.6 0,-8.7 -1.637,0 -1.633,0 0,-2.8 0,-2.8 4.94,0.1 4.95,0 3.88,7.2 c 2.14,4 4.11,7.6 4.36,8.1 l 0.5,0.9 0,-5.4 0,-5.3 -1.63,0 -1.63,0 0,-2.8 0,-2.8 6.43,0 6.44,0 0,2.8 0,2.8 -1.63,0 -1.64,0 0,11.4 0,11.5 -3.2,-0.1 -3.21,0 -3.92,-7.2 c -2.13,-4 -4.07,-7.5 -4.27,-7.9 l -0.36,-0.7 0,5.2 0,5.1 1.44,0 1.44,0 0,2.8 0,2.8 -6.43,0 -6.44,0 0,-2.8 z" id="path2259"></path>
  <metadata id="metadata4157">
    <rdf:rdf>
      <cc:work rdf:about="">
        <dc:title></dc:title>
      </cc:work>
    </rdf:rdf>
  </metadata>
</svg>
