<?xml version="1.0"?>
<!--?xml version="1.0" encoding="UTF-8" standalone="no"?-->
<svg xmlns="http://www.w3.org/2000/svg" viewBox="0 0 521.33 145.19" height="145.19" width="521.33"><path d="m 239.1,74.98 c -1.23,-0.88 -3.31,-1.67 -6.29,-1.67 -2.63,0 -8.36,1.72 -10.31,8.58 -2.43,8.68 2.46,12.05 7.31,12.05 2.31,0 4.25,-0.76 5.82,-1.78 l -0.95,5.55 c -2.05,0.56 -4.17,0.76 -6.26,0.76 -8.34,0 -14.15,-6.39 -11.67,-16.56 2.21,-9.11 8.99,-13.13 15.75,-13.13 2.76,0 5.68,0.4 8.06,1.41 z m 269.15,6.37 c -1.38,-0.51 -2.86,-0.97 -4.36,-0.97 -1.59,0 -3.57,0.46 -3.57,2.13 0,2.66 6.88,3.65 6.88,8.83 0,5.52 -4.62,7.13 -9.17,7.13 -2.12,0 -4.28,-0.34 -6.2,-1.27 l 1.16,-4.39 c 1.5,0.85 3,1.64 5.04,1.64 1.78,0 3.62,-0.62 3.62,-2.35 0,-3.39 -6.88,-3.71 -6.88,-9.02 0,-4.96 4.64,-6.71 8.8,-6.71 1.93,0 3.91,0.33 5.75,0.82 z M 474,79.85 c 0.28,-1.28 0.46,-2.38 0.5,-3.06 h 5.16 l -0.34,2.07 v 0 c 1.47,-1.39 3.48,-2.52 5.77,-2.52 3.99,0 6.62,2.57 6.62,6.74 0,1.61 -0.36,3.28 -0.65,4.61 l -2.15,10.27 h -5.29 l 1.99,-9.99 c 0.28,-1.41 0.59,-2.86 0.59,-4.42 0,-1.78 -1.18,-2.97 -2.88,-2.97 -3.68,0 -5.01,3.57 -5.72,6.74 l -2.15,10.64 h -5.29 l 3.79,-18.11 z m -4.52,5.77 c 0,7.42 -4.93,12.85 -12.12,12.85 -5.77,0 -9.23,-3.71 -9.23,-9.65 0,-7.08 5.2,-12.45 12.02,-12.45 5.5,0 9.33,3.39 9.33,9.25 z m -5.52,0 c 0,-2.75 -0.91,-5.07 -4.02,-5.07 -4.19,0 -6.29,4.81 -6.29,8.64 0,2.77 1.11,4.98 4.14,4.98 4.13,0 6.17,-4.93 6.17,-8.55 z m -22.02,-8.8 h 5.29 l -4.33,21.17 h -5.3 z m 1.92,-9.12 h 5.29 l -1.1,5.27 h -5.29 z m -20.04,9.12 h 3.82 l 0.91,-4.33 5.69,-1.95 -1.31,6.28 h 4.76 l -0.85,4.05 h -4.73 l -1.95,9.25 c 0,0.48 -0.28,1.22 -0.28,2.04 0,1.28 0.82,2.04 2.01,2.04 0.96,0 1.92,-0.29 2.57,-0.48 l -0.9,4.24 c -0.91,0.29 -1.93,0.48 -2.83,0.48 -3.6,0 -6.12,-1.47 -6.12,-5.54 0,-1.62 0.28,-3.26 0.65,-4.93 l 1.51,-7.13 h -3.85 l 0.83,-4.02 z m -9.57,17.91 v 0 c -1.81,2.41 -3.65,3.74 -6.54,3.74 -3.65,0 -6.28,-2.15 -6.28,-6.03 0,-6.96 7.5,-7.53 12.48,-7.53 h 1.87 c 0.28,-0.56 0.28,-1.19 0.28,-1.81 0,-2.12 -2.2,-2.72 -4.04,-2.72 -2.32,0 -4.59,0.6 -6.69,1.62 l 0.74,-4.39 c 2.27,-0.82 4.53,-1.24 6.91,-1.24 4.07,0 7.9,1.52 7.9,6.48 0,2.86 -2.01,11.15 -2.49,15.14 h -4.45 l 0.48,-3.26 v 0 z m -5.15,-0.28 c 3.93,0 5.15,-2.83 6,-6.25 h -1.84 c -2.55,0 -6.85,0.45 -6.85,4.02 0,1.5 1.33,2.23 2.69,2.23 z m -8.69,-12.79 c -1.02,-0.71 -2.38,-1.08 -3.85,-1.08 -4.22,0 -6.59,4.11 -6.59,8.1 0,2.77 0.87,5.52 4.5,5.52 1.3,0 2.91,-0.37 4.3,-1.05 l -0.6,4.36 c -1.61,0.82 -3.36,0.96 -5.09,0.96 -5.24,0 -8.63,-3.68 -8.63,-9.11 0,-7.39 4.7,-12.99 12,-12.99 1.98,0 3.85,0.33 5.29,0.79 z m -22.62,-4.84 h 5.3 l -4.33,21.17 h -5.3 z m 1.96,-9.12 h 5.29 l -1.1,5.27 h -5.3 z M 354.1,79.85 c 0.29,-1.28 0.43,-2.38 0.51,-3.06 h 5.18 l -0.34,2.07 v 0 c 1.47,-1.39 3.48,-2.52 5.78,-2.52 3.99,0 6.65,2.57 6.65,6.74 0,1.61 -0.43,3.28 -0.68,4.61 l -2.12,10.27 h -5.29 l 1.97,-9.99 c 0.29,-1.41 0.6,-2.86 0.6,-4.42 0,-1.78 -1.22,-2.97 -2.89,-2.97 -3.65,0 -5.01,3.57 -5.66,6.74 l -2.18,10.64 h -5.27 l 3.69,-18.11 z m -7.19,15.09 c -0.28,1.29 -0.45,2.4 -0.51,3.05 h -5.18 l 0.37,-2.04 v 0 c -1.44,1.39 -3.48,2.52 -5.74,2.52 -4,0 -6.65,-2.57 -6.65,-6.77 0,-1.61 0.36,-3.28 0.64,-4.6 L 332,76.82 h 5.29 l -1.98,9.99 c -0.29,1.44 -0.59,2.86 -0.59,4.44 0,1.79 1.18,2.98 2.85,2.98 3.68,0 5.01,-3.57 5.69,-6.74 l 2.18,-10.64 h 5.32 L 347,94.94 Z M 298.03,79.17 c 0.28,-0.83 0.28,-1.7 0.42,-2.35 h 4.93 l -0.45,2.83 v 0 c 1.41,-2.15 3.76,-3.28 6.22,-3.28 2.44,0 4.9,1.44 5.21,4.01 v 0 c 1.36,-2.77 4.3,-4.01 7.14,-4.01 3.05,0 5.66,2.57 5.66,5.77 0,1.9 -0.46,4.02 -0.91,5.75 l -2.12,10.1 h -5.3 l 2.13,-10.3 c 0.28,-1.3 0.68,-3.26 0.68,-4.53 0,-1.56 -1.14,-2.55 -2.49,-2.55 -3.69,0 -4.59,4.45 -5.27,7.33 l -2.1,10.08 h -5.29 l 2.12,-10.31 c 0.29,-1.29 0.68,-3.25 0.68,-4.52 0,-1.56 -1.15,-2.55 -2.49,-2.55 -3.59,0 -4.55,4.5 -5.24,7.33 l -2.1,10.08 h -5.29 l 3.71,-18.88 z m -33.54,0 c 0,-0.83 0.33,-1.7 0.42,-2.35 h 4.95 l -0.49,2.83 v 0 c 1.43,-2.15 3.77,-3.28 6.24,-3.28 2.39,0 4.89,1.44 5.18,4.01 v 0 c 1.36,-2.77 4.3,-4.01 7.16,-4.01 3.03,0 5.61,2.57 5.61,5.77 0,1.9 -0.45,4.02 -0.91,5.75 l -2.12,10.1 h -5.27 l 2.1,-10.3 c 0.28,-1.3 0.68,-3.26 0.68,-4.53 0,-1.56 -1.13,-2.55 -2.47,-2.55 -3.68,0 -4.58,4.45 -5.26,7.33 l -2.09,10.08 h -5.3 l 2.1,-10.31 c 0.28,-1.29 0.67,-3.25 0.67,-4.52 0,-1.56 -1.16,-2.55 -2.49,-2.55 -3.56,0 -4.58,4.5 -5.26,7.33 l -2.09,10.08 h -5.3 l 3.79,-18.88 z m -4.12,6.45 c 0,7.42 -4.92,12.85 -12.07,12.85 -5.81,0 -9.26,-3.71 -9.26,-9.65 0,-7.08 5.18,-12.45 12.02,-12.45 5.52,0 9.31,3.39 9.31,9.25 z m -5.49,0 c 0,-2.75 -0.93,-5.07 -4.05,-5.07 -4.16,0 -6.25,4.81 -6.25,8.64 0,2.77 1.1,4.98 4.13,4.98 4.1,0 6.17,-4.93 6.17,-8.55 z M 212.7,73.99 h -11.26 l -5.04,24 h -13.07 l 5.04,-24 h -11.26 l 2.12,-10.05 h 35.58 z m -39.06,0 h -11.26 l -5.04,24 h -13.08 l 5.04,-24 h -11.24 l 2.1,-10.05 h 35.58 z m -65.16,-0.68 v 0 L 103.3,97.99 H 92.095 l 7.14,-34.05 h 19.585 l 1.25,24 v 0 l 5.07,-24 h 11.21 l -7.14,34.05 H 109.99 Z M 220.36,12 c -18.16,0 -35.8,0.7 -52.61,2.01 h -0.38 c -7.81,0.62 -15.44,1.35 -22.85,2.2 h 1.23 c -0.1,0 -0.18,0 -0.28,0 h -0.95 c -5.68,0.64 -11.21,1.39 -16.62,2.18 h -0.2 c -4.63,0.68 -9.19,1.41 -13.64,2.2 h 0.81 c -0.1,0 -0.11,0 -0.16,0.1 h -0.68 c -3.96,0.71 -7.87,1.45 -11.66,2.21 v 0 c -3.475,0.71 -6.905,1.44 -10.215,2.21 -3.09,0.71 -6.06,1.44 -9,2.21 v 0 c -2.75,0.7 -5.46,1.44 -8.09,2.2 v 0 c -2.49,0.71 -4.92,1.45 -7.3,2.21 h 0.1 c -2.3,0.71 -4.51,1.45 -6.65,2.21 v 0 c -2.07,0.71 -4.08,1.44 -6.032,2.21 -1.894,0.73 -3.709,1.47 -5.491,2.21 h 0.05 c -1.726,0.7 -3.423,1.46 -5.037,2.2 -1.585,0.74 -3.085,1.47 -4.558,2.21 h -0.05 c -1.416,0.74 -2.804,1.47 -4.136,2.21 -1.299,0.73 -2.546,1.47 -3.761,2.21 -1.191,0.73 -2.321,1.47 -3.4,2.21 -1.045,0.73 -2.063,1.46 -3.024,2.2 -0.938,0.74 -1.872,1.47 -2.72,2.21 -0.849,0.74 -1.614,1.47 -2.378,2.21 -0.736,0.73 -1.444,1.47 -2.096,2.21 -0.647,0.73 -1.243,1.47 -1.782,2.21 h 0.09 c 0,0 0,0 0,0 h -0.05 c -0.53,0.73 -1.032,1.45 -1.477,2.18 h -0.05 c -0.45,0.73 -0.82,1.47 -1.186,2.21 h 0.06 c 0,0 0,0 0,0 h -0.05 c -0.337,0.73 -0.642,1.46 -0.924,2.18 v 0 c -0.258,0.74 -0.37,1.48 -0.651,2.21 h 0.05 c 0,0 0,0 0,0.1 h -0.05 c -0.113,0.74 -0.399,1.47 -0.399,2.21 v 0 c 0,0.1 0,0.1 0,0.1 v 0.54 C 12.05,72.69 12.05,73.21 12.05,73.73 H 12 c 0,1.3 0.141,2.6 0.427,3.87 h 0.136 c 0,0 0,0 0,0.1 h -0.14 c 0.281,1.28 0.703,2.58 1.242,3.85 h 0.05 c 0.539,1.28 1.248,2.58 2.068,3.85 0.821,1.3 1.81,2.61 2.945,3.88 h 0.05 c 1.13,1.3 2.434,2.57 3.846,3.85 h 0.09 c 0,0 0,0 0.05,0.1 h -0.239 c 1.445,1.3 3.058,2.57 4.817,3.85 h 0.06 c 1.81,1.33 3.761,2.6 5.857,3.87 h -0.05 c 2.181,1.31 4.53,2.58 7.02,3.85 h 0.141 c 0,0 0.05,0 0.06,0.1 h -0.197 c 2.603,1.3 5.379,2.6 8.296,3.85 3.053,1.3 6.312,2.6 9.726,3.85 3.66,1.36 7.5,2.63 11.53,3.88 4.35,1.33 8.91,2.63 13.67,3.85 h 0.33 c 0,0 0.1,0 0.12,0.1 h -0.44 c 5.32,1.35 10.87,2.63 16.645,3.84 6.74,1.42 13.76,2.72 21.03,3.88 h 0.14 c 9.37,1.49 19.19,2.78 29.34,3.85 4.19,0.45 8.47,0.85 12.8,1.19 -0.19,-0.1 -0.37,-0.1 -0.56,-0.1 h 0.19 c 0,0 -0.1,0 -0.1,0 0.17,0 0.34,0 0.52,0 -0.12,0 -0.24,0 -0.36,0 v 0 c -1.27,-0.32 -2.55,-0.66 -3.82,-1 -1.22,-0.31 -2.46,-0.64 -3.71,-0.99 -1.22,-0.31 -2.41,-0.65 -3.62,-0.99 -1.19,-0.31 -2.38,-0.65 -3.54,-0.99 -1.16,-0.31 -2.32,-0.65 -3.45,-0.99 -1.11,-0.31 -2.24,-0.65 -3.34,-0.99 -1.08,-0.31 -2.18,-0.65 -3.26,-0.99 -1.08,-0.31 -2.12,-0.65 -3.17,-0.99 -1.02,-0.31 -2.07,-0.65 -3.08,-0.99 -1,-0.34 -1.99,-0.65 -2.98,-0.99 -0.96,-0.31 -1.95,-0.65 -2.91,-0.99 -0.94,-0.32 -1.87,-0.65 -2.81,-0.99 -0.9,-0.34 -1.81,-0.65 -2.71,-1 -0.88,-0.3 -1.76,-0.65 -2.63,-0.98 -0.85,-0.34 -1.7,-0.66 -2.55,-0.99 -0.82,-0.32 -1.64,-0.66 -2.46,-1 -0.8,-0.31 -1.59,-0.65 -2.38,-0.99 -0.77,-0.34 -1.53,-0.65 -2.3,-0.99 -0.73,-0.34 -1.47,-0.65 -2.2,-0.99 -0.71,-0.34 -1.42,-0.65 -2.13,-0.99 -0.7,-0.34 -1.38,-0.65 -2.06,-0.99 -0.68,-0.34 -1.33,-0.65 -1.98,-0.99 -0.665,-0.34 -1.285,-0.65 -1.905,-0.99 -0.62,-0.34 -1.22,-0.65 -1.81,-0.99 -0.57,-0.34 -1.16,-0.65 -1.73,-0.99 -0.57,-0.34 -1.1,-0.66 -1.64,-0.99 -3.14,-1.93 -5.92,-3.91 -8.29,-5.98 -2.24,-1.95 -4.11,-3.93 -5.58,-5.97 -1.39,-1.95 -2.41,-3.93 -3,-5.97 -0.34,-1.36 -0.62,-2.77 -0.62,-4.19 v -1.75 c 0.19,-2.01 0.76,-4.03 1.64,-5.98 0.9,-2.04 2.18,-4.02 3.79,-5.97 1.7,-2.04 3.74,-4.02 6.12,-5.97 2.51,-2.04 5.4,-4.05 8.66,-5.98 3.48,-2.06 7.385,-4.07 11.665,-5.97 4.67,-2.09 9.82,-4.1 15.37,-5.97 6.31,-2.15 13.16,-4.13 20.49,-5.97 9.09,-2.27 18.85,-4.28 29.21,-5.97 17.52,-2.89 36.72,-4.96 57.01,-5.98 8.62,-0.42 17.46,-0.69 26.45,-0.75 1.27,0 2.54,0 3.81,0 1.28,0 2.56,0 3.84,0 8.95,0.1 17.93,0.31 26.84,0.75 h 0.1 c 5.07,0.25 10.13,0.57 15.16,0.93 15.45,1.14 30.58,2.81 44.93,4.91 0.3,0.1 0.61,0.1 0.91,0.14 0.93,0.13 1.86,0.28 2.79,0.42 4.8,0.74 9.5,1.52 14.09,2.36 0.27,0 0.53,0.1 0.81,0.15 5.15,0.95 10.18,1.96 15.03,3.04 0.91,0.19 1.81,0.39 2.7,0.6 6.29,1.44 12.27,2.97 17.9,4.58 0.1,0 0.11,0 0.17,0 0.85,0.24 1.69,0.49 2.53,0.74 v 0 c 5.72,1.72 11.03,3.5 15.89,5.38 0.48,0.19 0.96,0.37 1.44,0.57 v 0 c 0,0 0,0 0.1,0 3.99,1.59 7.67,3.23 10.95,4.93 0,-0.1 -0.1,-0.1 -0.13,-0.1 0,0 0.1,0 0.1,0 -0.1,0 -0.11,-0.1 -0.16,-0.14 0.1,0.1 0.15,0.1 0.22,0.14 -0.85,-0.74 -1.75,-1.45 -2.71,-2.15 -1,-0.74 -2.04,-1.48 -3.15,-2.21 -1.1,-0.74 -2.26,-1.47 -3.48,-2.21 -1.24,-0.74 -2.52,-1.47 -3.85,-2.21 -1.36,-0.73 -2.77,-1.47 -4.22,-2.2 -1.5,-0.74 -3.03,-1.48 -4.61,-2.21 -1.61,-0.74 -3.28,-1.48 -5.01,-2.21 -1.75,-0.74 -3.54,-1.47 -5.41,-2.21 -1.92,-0.74 -3.9,-1.47 -5.92,-2.2 -2.06,-0.74 -4.18,-1.48 -6.37,-2.21 -2.26,-0.74 -4.56,-1.5 -6.91,-2.21 -0.43,-0.13 -0.87,-0.26 -1.31,-0.39 -1.61,-0.5 -3.25,-0.98 -4.92,-1.45 -0.44,-0.12 -0.84,-0.25 -1.27,-0.37 -2.67,-0.76 -5.38,-1.5 -8.15,-2.21 -2.92,-0.76 -5.88,-1.5 -8.92,-2.2 -3.2,-0.77 -6.45,-1.5 -9.79,-2.21 -3.57,-0.77 -7.23,-1.5 -10.94,-2.21 -0.22,-0.1 -0.43,-0.1 -0.66,-0.12 -3.66,-0.71 -7.36,-1.38 -11.15,-2 -0.19,0 -0.37,-0.1 -0.56,-0.1 0,0 -0.11,0 -0.17,0 h 0.14 c -4.67,-0.76 -9.42,-1.5 -14.23,-2.21 h -0.21 c -5.59,-0.8 -11.27,-1.53 -17.06,-2.17 -0.1,0 -0.2,0 -0.3,-0.1 h 0.3 c -7.53,-0.85 -15.23,-1.58 -23.01,-2.2 h -0.38 c -1.98,-0.16 -3.95,-0.31 -5.94,-0.44 -14.8,-1.03 -29.99,-1.57 -45.37,-1.57 z m 33.86,8.26 c 0.54,0 1.09,0 1.63,0 -0.54,0 -1.09,0 -1.63,0 z m 5.61,0.1 c 0.13,0 0.25,0 0.37,0 -0.12,0 -0.24,0 -0.37,0 z m 113.45,14.47 c 0.6,0.14 1.19,0.29 1.78,0.44 -0.59,-0.15 -1.19,-0.3 -1.78,-0.44 z m 2.72,0.68 c 0.83,0.21 1.66,0.41 2.47,0.63 0.27,0.1 0.53,0.14 0.8,0.21 -1.08,-0.28 -2.17,-0.57 -3.27,-0.84 z m 11.86,3.18 c 1.21,0.34 2.4,0.69 3.59,1.05 -1.18,-0.35 -2.39,-0.7 -3.59,-1.05 z m 3.99,1.16 c 0.76,0.23 1.53,0.46 2.28,0.7 0.27,0.1 0.53,0.17 0.8,0.26 -1.02,-0.32 -2.04,-0.64 -3.08,-0.96 z m 15.52,5.12 v 0 c 0.38,0.14 0.75,0.27 1.13,0.41 -0.38,-0.14 -0.77,-0.27 -1.16,-0.41 z m 4.68,1.74 c 0.4,0.16 0.81,0.31 1.21,0.46 h 0.1 c 1.84,0.74 3.65,1.48 5.38,2.21 1.73,0.74 3.37,1.47 4.95,2.21 h -0.1 c 0,0 0,0 0.1,0 -3.15,-1.47 -6.53,-2.92 -10.16,-4.35 v 0 c -0.46,-0.18 -0.93,-0.36 -1.39,-0.54 z m 12.27,5.23 c 0.9,0.44 1.78,0.86 2.65,1.29 v 0 c -0.86,-0.43 -1.75,-0.86 -2.65,-1.29 z m 3.45,1.7 c 0.11,0.1 0.22,0.1 0.32,0.16 h 0.1 c 1.44,0.73 2.8,1.47 4.11,2.2 0.39,0.23 0.76,0.46 1.14,0.68 -1.74,-1.01 -3.61,-2.03 -5.6,-3.04 z" id="path4634"></path> </svg>