<svg    xmlns="http://www.w3.org/2000/svg"
 viewBox="0 0 2467 969" height="969" width="2467">
  <path class="logotype logotext" d="m 575.99997,123 c -12,-12 -24,-14 -28,-4 -1,3 -1,3 -5,3 -5,-1 -5,-1 -4,-7 0,-3 2,-7 5,-9 3,-4 5,-5 9,-5 3,0 8,1 10,2 7,3 19,11 24,16 l 3,3 -3,4 c -2,1 -4,3 -4,3 -1,0 -4,-3 -7,-6 z m -405,-1 c -8,-7 -14,-10 -19,-10 -3,0 -5,1 -7,5 -3,5 -3,5 -8,4 -3,0 -4,-1 -3,-2 0,-1 1,-4 2,-6 3,-12 13,-14.999998 26,-8 9,4 24,16 23,18 -2,3 -5,6 -6,6 -1,0 -5,-3 -8,-7 z m 364,19 c -5,-7 0,-16 8,-16 8,0 12,11 6,16 -4,4 -11,4 -14,0 z m -404,-1 c -3,-3 -4,-5 -1,-9 2,-4 4,-6 9,-6 4,0 9,5 9,9 0,2 -1,5 -3,6 -2,3 -3,4 -7,4 -4,0 -5,-1 -7,-4 z m 454,18 c 1,-4 7,-11 8,-11 1,0 8,9 8,11 0,0 -4,1 -9,1 -4,0 -8,-1 -7,-1 z m -404,0 c 0,-2 6,-11 8,-11 1,1 8,10 7,11 -1,1 -15,1 -15,0 z m 377,0 c -2,-5 -1,-8 3,-9 3,0 5,0 6,0 1,1 -4,11 -6,11 -1,0 -2,-1 -3,-2 z m 61,-2 c -1,-3 -2,-6 -2,-7 1,-1 11,1 11,3 0,3 -3,9.2 -4,9.2 -1,0 -3,-2.2 -5,-5.2 z m -403,0 c -3,-4 -4,-6 -3,-7 2,-1 10,1 11,2 1,2 -2,10.2 -4,10.2 0,0 -2,-2.2 -4,-5.2 z m -62,2 c -2,-4 -1,-7 3,-8 6,-2 7,0 4,5 -2,2 -3,4 -3,5 0,2.2 -2,1.4 -4,-2 z m 55,15.5 c -1,-2.3 -6,-9.8 -10,-16.5 -5,-7 -8,-13 -8,-13 0,-1 1,-3 3,-5 4,-5 5,-4 16,12 8,12.9 9,15.9 6,22 -3,5.1 -5,5.2 -7,0.5 z m 406,4.4 c 0,-0.7 -2,-3.8 -4,-7.3 -3,-5.5 -13,-20.6 -16,-24.6 -1,-2 4,-10 7,-10 2,0 5,4 14,18 8,12 8,11.5 4,18.5 -3,6.4 -4,7 -5,5.4 z m -29,11.3 c -4,-4.2 -4,-8 0,-12.2 4,-5.6 13,-4.1 16,2.9 1,3.2 1,4.3 -1,7.8 -2,3.5 -3,4.2 -7,4.5 -5,0.4 -6,-0.1 -8,-3 z m -404,0.5 c -6,-6 -1,-16 7,-16 8,0 13,12.4 6,16.8 -4,2.9 -10,2.5 -13,-0.8 z m 86,2 c -2,-2.5 -2,-3.8 -1,-6.6 2,-7.5 -6,-15 -20,-18.9 -8,-2.1 -9,-3 -7,-7.2 0,-2 2,-4 3,-4 6,0 25,9.5 31,15.9 5,4.6 5,6 5,10.6 0,5.7 -4,13.5 -7,13.5 -1,-0.1 -3,-1.5 -4,-3.3 z m 406,3.5 c 0,-0.6 -1,-2.3 -2,-3.8 -2,-2.4 -3,-3.4 -2,-5.3 5,-7.4 -2,-14.7 -19,-19.9 -6,-1.6 -7,-2.5 -8,-5.1 0,-5.1 3,-7.1 10,-4.1 14,4 29,14.7 31,22.4 1,3.6 -1,10 -5,14.1 -3,2.7 -5,3.6 -5,1.7 z m -122,3.8 c -5,-0.5 -6,-2.6 -3,-7.8 2,-4.8 4,-4.5 7,2.2 2,5.8 2,6.2 -4,5.6 z m -404,-0.3 c -4,-0.6 -4,-1 -4,-4.1 0,-3.5 2,-7.1 4,-7.1 1,0 5,9.6 5,10.9 0,0.5 -3,0.7 -5,0.3 z m 416,1.5 c -3,-1.3 -14,-25.1 -18,-36.8 -5,-13.4 -5,-15.4 0,-16.4 6,-1 6,-1 6,2 0,4 13,33.6 21,46.7 2,2.2 2,4.3 2,4.7 -1,1.1 -10,1 -11,-0.2 z m -404,0 c -3,-1.7 -14,-23.7 -19,-39.6 -5,-11.6 -5,-12.6 2,-13.6 3,-1 4,-1 5,3 0,1 2,6 4,10.6 3,8.6 12,27.4 17,34.4 1,2.6 2,5.1 2,5.5 -1,1 -10,0.9 -11,-0.3 z m 496,6.1 c -5,-4.6 -5,-8.1 0,-12.8 3,-3.1 4,-3.6 8,-3 8,1.6 11,10.7 5,16.3 -5,4.2 -9,3.9 -13,-0.5 z m -11,1.3 c -3,-3.9 -2,-7.4 1,-8.2 3,-1.2 3,-0.8 4,5.1 0,3.6 0,4.8 -2,5.2 -1,0.3 -3,-0.7 -3,-2.1 z m -393,-0.4 c -4,-4.3 -4,-8 -2,-12.1 5,-8.6 18,-4.7 18,5.3 0,4.1 -6,9.6 -10,9.6 -2,0 -4,-1.3 -6,-2.8 z m -12,-0.9 c -3,-4.8 -2,-5.9 0,-6.7 4,-0.9 6,0.9 6,5.5 0,5.6 -3,6.5 -6,1.2 z m 378,9 c -1,-1.2 4,-10.3 6,-10.3 2,0 2,0.7 3,5.1 1,3 1,3.4 -4,4.6 -2,0.6 -5,0.9 -5,0.6 z m -63,-1.6 c -36,-6.7 -57,-19.6 -54,-34.2 2,-8 16,-18.5 32,-23.5 6,-2 8,-1 8,4.6 0,3.3 0,3.6 -9,6.6 -20,6.4 -25,18.3 -11,25.5 14,6.8 34,10.7 61,11.9 10,0.4 19,1.2 19,1.9 0,0.6 -2,3.1 -4,5.5 l -3,4.2 -13,-0.1 c -8,-0.1 -19,-1.1 -26,-2.4 z m -342,0.8 c 0,-1.8 6,-10.8 7,-10.8 1,0 4,9 4,9.6 0,0.2 -3,0.8 -6,1.4 -4,0.9 -5,0.9 -5,-0.2 z m -57,0.2 c -14,-2.7 -28,-6.4 -36,-10 -11,-4.3 -20.999999,-12.7 -22.999999,-18.7 -3,-10.8 9.999999,-23.3 31.999999,-30 6,-2 7,-1 8,4.5 0,3.2 0,3.6 -6,5.4 -16,4.5 -25,12.3 -22,19.5 2,2.8 10,9.6 13,9.6 0,0 2,0.5 3,1.1 9,4.1 28,7.4 52,8.4 11,0.5 20,1.2 20,1.5 0,0.3 -2,2.8 -3,5.5 l -4,4.7 -14,-0.1 c -7,-0.1 -16,-0.8 -20,-1.4 z m 423,10.1 c -2,-2.1 -3,-4.2 -3,-4.6 1,-0.7 14,-0.4 14,0.3 1,0.6 -6,8.2 -7,8.2 0,0 -2,-1.7 -4,-3.9 z m -404,0.8 c -2,-2.4 -3,-4.9 -3,-5.5 1,-0.9 13,-0.4 15,0.6 0,0.3 -2,2.4 -4,4.9 l -4,4.4 -4,-4.4 z m 410,16.1 c -2,-1.9 -3,-3.9 -3,-4.5 0,-0.7 2,-4 5,-7.4 14,-15.6 37,-53.7 44,-74.8 7,-20 8,-34 3,-39 -5,-7 -14,-3 -28,10 -11,10 -28,34.4 -35,48.1 -1,1.9 -2,3.4 -3,3.4 -1,0 -2,-2.3 -4,-5.1 -3,-6 -3,-5.9 8,-23.4 9,-13 32,-37 43,-43 4,-2 9,-4 13,-5 36,-3.999998 18,74.7 -29,131.1 -5,6.4 -10,11.9 -11,12.2 0,0.4 -2,-0.8 -3,-2.6 z m -405,-1 -3,-4.2 3,-2.3 c 5,-5 21,-26.7 28,-40 16,-28.1 24,-50.2 24,-66.2 0,-9 0,-11 -2,-13 -8,-9 -31,8 -53,41 -4,7.1 -8,13 -8,13.4 0,1.3 -5,8.1 -6,8.1 0,0 -2,-2.4 -3,-5.3 -2,-5.1 -2,-5.5 0,-9.7 3,-6.5 16,-24.5 22,-31.5 12,-13 26,-24 35,-28 10,-3.999998 19,-1 23,7 3,6 3,25 0,36 -5,18.7 -16,45.2 -27,61.1 -9,14 -28,37.9 -30,37.9 0,0 -2,-1.9 -3,-4.3 z m 389,16.4 c -4,-2.3 -6,-7.3 -5,-11.6 3,-6.9 10,-8.8 16,-4.2 8,6.5 -1,20.5 -11,15.8 z m -402,0.7 c -4,-1.3 -8,-5.8 -8,-8.8 0,-1.7 1,-4.7 3,-6.7 5,-7.2 17,-3.3 17,5.7 0,6.5 -7,11.8 -12,9.8 z m 459,5.2 c -8,-2 -30,-17.3 -30,-20.9 0,-0.9 1,-2.9 2,-4.5 l 3,-3 3,3.1 c 11,10 19,14.8 24,14.8 8,0 11,-11.7 7,-25.9 -1,-8.3 -7,-24.5 -8,-25.9 -1,-1.5 4,-12 6,-12 1,0 2,1 2,2.3 1,1.1 2,3.9 3,5.9 4,10.9 9,31.6 9,41.9 0,7.5 -2,17.4 -4,17.4 -1,0 -1,0.8 -1,1.6 0,3.3 -10,6.5 -16,5.2 z m -79,-1.3 c -7,-3.7 -8,-6.7 -8,-24.9 0,-18.2 1,-21.8 6,-21.8 6,0 8,1.7 6,5.8 -1,1.9 -2,8.3 -2,14.2 -1,9.6 -1,11 2,14.1 1,2.2 4,3.4 6,3.4 4,0 10,6.3 7,8.5 -3,2.5 -12,2.8 -17,0.7 z m -326,0.9 c -7,-1.9 -21,-11 -27,-17.5 -2,-2.4 -2,-3 -1,-5.8 1,-1.7 3,-3.1 3,-3.1 1,0 5,2.8 9,6.1 12,10.2 20,12.4 24,7.7 2,-2.2 3,-4.2 3,-12.4 0,-5.4 -1,-11.4 -1,-13.4 -1,-2 -2,-7 -4,-11.1 -1,-4.1 -2,-8 -3,-8.6 -2,-2 -1,-7.8 1,-11.9 3,-4.9 5,-4.9 7,0.3 1,2.1 2,5.1 2,6.5 2,2.8 4,12.1 7,20.9 0,3.3 1,11.2 1,17.5 0,12 -1,18.2 -6,22.4 -3,2.5 -10,3.6 -15,2.4 z m -76,0.2 c -4,-1 -7,-4.6 -9,-11.5 -3,-7.7 -4,-12.6 -1,-25.5 1,-5.3 2,-10.1 2,-10.3 0,-1.4 9,-0.3 9,1.1 1,0.9 0,6.2 -1,11.9 -3,15.2 0,24 8,24 3,0 8,4.1 8,7.3 0,2.4 -11,4.4 -16,3 z m 244,-119.8 c -1,-1 -1,-4 -1,-7 l 0,-6 6,0 c 6,0 8,2 5,9 -1,4 -1,5 -5,5 -2,0 -5,-1 -5,-1 z m -14,2 c -1,-1 -3,-3 -5,-9 -1,-2 6,-5 11,-5 3,0 3,0 3,6 0,6 0,7 -3,7 -1,0 -3,0 -4,1 0,1 -1,1 -2,0 z m 30,1 c -3,-1 -3,-2 -3,-7 2,-7 3,-7 8,-5 6,2 7,4 2,9 -3,4 -4,4 -7,3 z m -47,4 c -5,-4 -5,-5 0,-9 7,-5 7,-5 11,0 l 3,6 -3,3 c -5,3 -5,3 -11,0 z m -8,11.9 c -6,-2.9 -6,-3.9 -3,-8.9 3,-5 3,-5 8,-2 1,2 3,3 4,3 2,0 2,2 -1,6.1 -3,4 -4,4.3 -8,1.8 z m -10,11.2 c -1,-2.1 0,-6.5 2,-9.2 1,-1.5 2,-1.4 7,1 l 5,2.6 -2,3.7 c -1,3.3 -2,3.8 -7,3.8 -3,0 -5,-0.6 -5,-1.9 z m -1,15.1 c -1,-1 -1,-3.6 -1,-6 1,-4.1 1,-4.1 7,-4.1 6,0 6,0.1 7,4.1 0,4.3 -1,5 -9,7 -3,0.7 -4,0.3 -4,-1 z m 42,12.9 c -12,-6.1 -15,-23.4 -6,-33.4 11,-10.7 28,-8.7 34,5.2 4,8.8 3,16.8 -3,23.7 -7,7.1 -16,8.9 -25,4.5 z m 0,32.7 c -8,-1.3 -22,-8.7 -28,-15.2 -5,-5.4 -11,-15 -13,-22 -1,-2.4 0,-3.1 2,-4.1 7,-2.6 9,-1.8 13,6.2 7,14.6 20,22.5 36,22.5 16,0 31,-10 36,-24.8 2,-5.2 2,-8.9 2,-16.8 -1,-11.6 -3,-17 -11,-25.6 l -5,-5 3,-5 c 1,-2 3,-4 5,-4 3,0 13,12 17,19 7,15.4 6,30.9 -1,45.6 -5,11 -13,19 -23,24 -12,5.6 -21,7.1 -33,5.2 z m 23,2.3 c 19,-5 34,-19.6 40,-38.5 2,-6.9 2,-24.2 0,-30.2 -6,-21.4 -23,-35.4 -43,-39.4 -15,-2 -26,-1 -38,6 -11,6 -17,14 -23,26 -4,8.5 -6,24.9 -3,36 4,17.7 19,33.7 38,39.6 6,2 22,2.2 29,0.5 z m -18,34.4 c -3,-3 -3,-4.4 -3,-11.8 l 0,-8.4 -7,-1.5 c -4,-0.8 -11,-3.6 -16,-6.1 l -10,-4.4 -4,4.4 c -7,6.6 -10,7.8 -14,5.9 -4,-1.5 -6,-5.4 -6,-10 0,-1.4 2,-5.1 5,-8.4 l 6,-5.9 -5,-6.8 c -2,-3.8 -5,-10.9 -7,-15.9 l -2,-9.1 -8,0 c -6,0 -8,-0.5 -11,-3.6 -4,-4.5 -4,-7.7 0,-12.3 2,-3.1 4,-3.5 10,-3.7 9,-0.2 10,-1.3 10,-6.5 0,-3.3 8,-20.4 11,-24.4 2,-2 2,-3 -3,-7 -7,-8 -8,-10 -6,-14 4,-8 10,-8 18,0 l 6,5 6,-3 c 5,-3 13,-5 22,-8 l 5,-1 0,-9 c 0,-6.999998 1,-7.999998 3,-10.999998 4,-4 9,-4 13,0 2,2 3,4 3,10.999998 0,9 1,11 4,11 5,0 23,8 23,10 0,3 5,1 11,-4 5,-6 6,-6 11,-6 5,0 8,3 8,9 0,3 -1,5 -6,10 l -6,7 4,10 c 2,4 5,10.4 5,12.4 2,8.1 1,7.7 12,8.3 9,0.5 11,1 13,3.5 3,4.2 3,9.5 -1,13.2 -3,2.7 -5,3.1 -13,3.1 l -9,0 -1,4.7 c -1,2.5 -1,5.3 -1,6.2 0,0.7 -2,5.1 -5,9.6 -2,4.6 -4,8.7 -4,9.3 0,0.7 3,3.8 6,7.2 5,5.1 6,6.7 6,10.7 0,4 0,5.1 -4,7.3 -5,3.2 -7,2.3 -15,-5.2 -7,-6.5 -8,-7.1 -11,-4.3 -2,2.5 -14,8.3 -21,10 l -6,1.5 0,9.7 c -1,8.3 -1,10.1 -4,12.1 -4,3.3 -8,3 -12,-0.8 z m -139,43.6 0,-22.3 48,0 47,0 1,22.3 0,22.1 46,0 45,0 0,-22.5 0,-22.5 48,0.3 48,0.3 0,22.3 1,22.1 45,0 45,0 0,-22.1 0,-22.3 42,-0.6 42,-0.6 0,-105.2 1,-105.399998 -315,0 -313.999999,0 0,105.599998 0,105.6 39.999999,0.3 39,0.3 1,22.3 0,22.1 45,0 45,0 0,-22.1 z m -120,139.9 c 0,-0.3 2,-0.2 2,0.2 0,0.3 0,0.7 -2,0.6 -1,0 -1,-0.4 0,-0.8 z m 74,-1 c -2,-7.1 3,-14.3 9,-14.3 6,0 6,1.9 1,7.7 -3,3 -5,6 -5,6.8 0,0.8 -1,1.7 -2,2.2 -2,0.4 -2,-0.4 -3,-2.4 z m -59,2.4 c 1,-2.6 3,-2.9 3,-0.1 1,1.2 0,2.1 -1,2.1 -2,0 -2,-0.7 -2,-2 z m 176,1.6 c -10,-7.5 -10,-6.7 -7,-9.1 2,-2 2,-2 5,-0.4 4,1.9 8,9.5 6,11.3 0,0.6 -2,-0.1 -4,-1.8 z m -212,10.4 c 0,-0.6 0,-1.2 1,-1.2 1,0 1,0.6 1,1.2 0,0.8 0,1.3 -1,1.3 -1,0 -1,-0.5 -1,-1.3 z m 94,30.4 c 1,-0.3 3,-0.3 3,0 1,0.4 0,0.6 -2,0.6 -2,0 -3,-0.2 -1,-0.6 z m 10,2 c 2,-0.8 4,-0.6 5,0.1 2,0.9 1,1.1 -3,1.1 -4,0 -4,-0.1 -2,-1.2 z m 101,7.6 c -2,-0.9 21,-2.6 26,-2 2,0.3 4,0.5 5,0.6 1,0 2,0.8 2,1.4 -1,1.5 -29,1.4 -33,0 z m -5,3.8 c 0,-0.7 0,-1.3 1,-1.3 1,0 1,0.6 0,1.3 0,0.6 -1,1.2 -1,1.2 0,0 0,-0.6 0,-1.2 z m -102,2.5 c 0,-0.7 3,-1.3 7,-1.3 4,0 6,0.5 5,1.3 0,0.6 -3,1.2 -6,1.2 -3,0 -6,-0.6 -6,-1.2 z m -8,2.5 c 0,-0.7 1,-1.3 3,-1.3 3,0 4,0.5 3,1.3 0,0.6 -2,1.2 -3,1.2 -2,0 -3,-0.6 -3,-1.2 z m 139,11.6 c -3,-1 -7,-2.4 -9,-2.9 -7,-2.6 -12,-3.7 -16,-3.7 -2,0 -4,-0.7 -4,-1.3 0,-1.5 10,-1.6 11,-0.1 1,0.5 4,1.4 8,1.9 4,0.3 8,1.2 9,1.8 1,0.8 4,2 6,2.9 4,1.6 6,3.6 3,3.4 -1,0 -5,-0.9 -8,-2 z m -16,18 c -2,-2.4 -16,-10.9 -17,-10.9 -1,0 -3,-3.7 -2,-4.5 0,-0.7 16,8.8 20,12.9 4,2.9 4,4 3,4.1 -1,0 -3,-0.7 -4,-1.6 z m -62,-58.4 c 2,0 0,-5.2 -3,-8.4 -4,-4.7 -10,-6.7 -15,-5.2 -2,0.7 -3,1.9 -3,2.6 0,0.6 0,0.8 1,0.4 0,-0.4 2,1.2 4,3.6 2,3.8 3,4.5 6,4.5 6,0 6,0.9 4,6.4 -4,7.4 -3,8.6 1,2 2,-3.3 4,-5.9 5,-5.9 z m 22,-3.4 c -2,-1.3 -1,-2.8 1,-2.8 1,0 2,0.5 2,1.1 0,1.6 -2,2.7 -3,1.7 z m -3,9.9 0,-7.1 5,0.4 c 3,0.2 5,-0.4 8,-2.8 2,-1.7 4,-3.2 5,-3.2 3,0 2,-3.5 -1,-4.3 -5,-1.2 -9,-0.9 -13,1.3 -7,3.1 -8,6.1 -7,13.6 2,11.6 4,12.5 3,2.1 z m -32,14.3 c -2,-0.9 -4,-2 -6,-2.4 -2,-0.4 -6,-1.5 -10,-2.5 -3,-1 -6,-1.5 -6,-1.1 0,0.7 19,7.1 23,7.6 1,0 0,-0.6 -1,-1.6 z m 2,22.5 c -2,-2.9 -2,-4.2 1,-5.8 3,-1.9 4,-0.9 3,3.9 -1,3.9 -1,3.9 -4,1.9 z m 25,0.2 c 0,-1.5 1,-3 2,-3.2 3,-0.7 3,3.1 0,4.7 -2,1.3 -3,1.1 -2,-1.5 z m -21,25.6 c -2,-1.6 -1,-7.8 1,-7.8 1,0 2,1.2 2,3.6 0,3.7 -1,5.7 -3,4.2 z m 18,1.3 c -2,-1.3 -1,-6.4 0,-7.3 1,-0.7 4,3.3 4,6.2 0,2 -3,2.7 -4,1.1 z m 8,-2.9 c 2,-5.7 4,-12.7 5,-19.1 1,-2.9 0,-4.3 -4,-7.9 -2,-2.5 -7,-5.7 -11,-7.2 l -6,-2.9 4,-2.9 c 3,-1.6 6,-3.6 9,-4.5 l 4,-1.6 -4,-0.1 c -3,0 -5,1 -8,3.3 l -3,3.4 -4,-4 c -3,-2.2 -6,-4 -7,-4 -4,0 -3,1.8 2,4.4 3,1.4 6,3.4 6,4.4 0,1 -3,2.6 -6,3.7 -2,1 -7,3.1 -9,4.8 -4,3 -4,2.1 0,19 3,15.5 5,18.1 11,14.2 4,-2 4,-2 8,0.5 7,4.1 10,3.1 13,-3.5 z m -14,23.6 -2,-5.1 -2,2.9 c -2,2.3 -3,2.5 -4,1 0,-0.9 -1,-3 -1,-4.7 0,-4 -2,-3.3 -4,1 -1,2.3 -2,3.8 -4,3.8 -2,0 -2,-1.1 -2,-6.3 0,-6.2 0,-6.2 4,-6.2 l 4,-0.1 -3,-1.8 c -4,-1.8 -6,-5.8 -9,-15.2 -1,-2.9 -2,-5.1 -3,-5 0,0.1 -1,-0.9 -1,-2.3 -1,-1.3 -1,-3.6 -2,-5 -4,-9.6 -4,-9.2 -1,-11.1 2,-0.9 5,-2.4 8,-3.2 2,-0.9 4,-1.8 4,-2.2 -1,-1.2 -18,5.3 -18,6.9 0,0.9 -2,2.9 -5,4.4 -3,1.5 -6,3.7 -7,4.9 -3,2.5 -5,2.8 -5,1 0,-0.7 4,-3.4 8,-6.2 6,-4.5 7,-5.2 6,-8.8 0,-2.2 -1,-4.3 -2,-4.8 -4,-1.2 2,-2.6 12,-2.6 12,-0.1 11,-1.1 -3,-1.8 -11,-0.5 -11,-0.7 -12,-3.2 0,-1.6 0,-3.8 1,-4.9 0,-1.1 1,-3.2 1,-4.6 0,-3 7,-22.9 11,-34.9 5,-11.6 11,-18.2 18,-18.2 3,0 6,-0.8 8,-1.5 2,-1.3 3,-1.3 4,0 2,2.3 3,1.7 3,-1.5 0,-3.4 2,-5.3 3,-3.3 1,0.7 2,1.3 4,1.3 1,0 3,1.1 4,2.6 1,2.1 2,2.4 6,1.7 4,-0.7 5,-0.5 5,0.9 0,1 1,2.5 3,3.3 3,1.6 9,10.1 11,17 1,2.6 3,10.2 3,16.8 1,6.7 2,14.3 2,17 2,6.5 1,7.5 -11,8.5 -5,0.4 -10,1.3 -12,2 -3,1.3 -3,1.4 2,0.8 2,-0.3 8,-0.9 12,-1.4 l 7,-0.9 0,4 0,3.9 -12,0.3 -12,0.2 11,0.6 c 6,0.5 11,1.3 11,2 0,6.5 -4,10.2 -7,7 -2,-1.8 -16,-6.3 -16,-5.2 0,0.6 2,1.5 3,1.9 3,0.7 14,5.3 16,6.5 0,0.1 -2,3.3 -4,7.1 -3,3.9 -5,7.4 -5,7.7 0,0.4 -1,2.9 -3,5.7 -3,4 -3,6.6 -3,12.9 0,4.4 -1,8.9 -1,10 -1,3 -4,2.4 -5,-1.1 -1,-4 -2,-3.1 -3,1.8 -1,3.8 -6,8.8 -8,8.8 -1,0 -3,-2.3 -3,-5.1 z m -34,29.5 c 3,-3.6 5,-4 5,-1.2 0,1.1 -1,2.5 -3,3.1 -5,1.9 -5,1.6 -2,-1.9 z m -33,7.5 c -6,-3.1 -8,-5.4 -12,-13.2 -7,-13.2 -14,-27.9 -18,-34.9 -2,-3.7 -8,-11.2 -13,-16.9 -10,-10.3 -16,-18.7 -16,-21.5 0,-3.8 -6,-13.1 -9,-14.8 -2,-1 -6,-3.8 -9,-6 -2,-2.3 -6,-5.2 -9,-6.4 -4,-1.9 -5,-2.8 -5,-6.4 0,-5.4 3,-6.5 8,-3.7 6,2.6 6,2.5 6,-1 0,-1.8 -2,-5.5 -6,-9.3 -5,-6.5 -6,-9 -3,-9 1,0 2,-1.1 3,-2.5 2,-3.6 4,-3 7,1.6 4,8.3 9,14.7 12,14.7 3,0 3,-1.3 -1,-4.9 -2,-1.8 -3,-4.3 -3,-6.4 0,-1.9 -1,-5.5 -2,-8.1 -1,-2.5 -2,-4.8 -2,-5 1,-0.3 3,-1.3 5,-2.4 5,-1.9 5,-1.9 6,0.9 1,1.5 2,5.4 2,8.6 1,6 4,9.8 5,7.3 1,-0.8 0,-2.2 0,-3.2 -1,-0.8 -2,-3.8 -1,-6.5 0,-4.7 0,-4.7 6,-4.7 l 5,0 1,15 c 0,8.2 1,17 2,19.4 3,7.6 12,18.7 21,27.8 10,10 11,12.4 5,16.5 -3,1.4 -4,2.9 -4,3.4 0,1.5 12,1.1 13,-0.2 1,-2.4 2,-0.2 3,5.8 2,12.4 7,21.6 15,26.6 13,8.9 19,23.9 12,34.3 -3,5.2 -4,5.4 -13,6.4 -5,0.5 -8,0.2 -11,-1.3 z m 199,0.6 c 0,-2.2 1,-2.3 3,-1.2 1,0.7 2,1.9 2,2.5 0,0.7 -1,1.2 -2,1.2 -2,0 -3,-0.8 -3,-2.5 z m -27,116.5 c 0,-1.1 2,-2.2 3,-2.5 3,-0.5 4,0.9 2,3.3 -3,2.2 -5,1.8 -5,-0.8 z m 10,4.8 c 1,-0.7 2,-1.3 2,-1.3 1,0 2,0.6 2,1.3 0,0.6 -1,1.2 -2,1.2 -1,0 -2,-0.6 -2,-1.2 z m 11,2.5 c 0,-0.7 1,-1.3 2,-1.3 1,0 2,0.6 2,1.3 0,0.6 -1,1.2 -2,1.2 -1,0 -2,-0.6 -2,-1.2 z m 24,0 c 0,-1.4 -1,-2.5 -2,-2.5 -2,0 -1,-3.3 2,-5.7 2,-2.1 3,-5.6 2,-5.6 -2,0 -10,7.3 -12,10.3 -2,4.3 -6,4.5 -7,0.3 -2,-4.1 -2,-4 1,-4.7 2,-0.6 4,-4.1 3,-5.3 -1,-0.8 -10,4 -12,6.3 -1,1.5 -2,1.6 -3,0.5 -3,-2.1 -3,-5.8 0,-6.5 3,-0.6 5,-4.1 4,-5.4 -1,-0.4 -3,0.8 -6,2.6 -4,2.5 -6,2.9 -8,1.9 -3,-1.6 -3,-2.9 0,-5.2 2,-1.8 13,-7.3 15,-7.3 2,0 22,-10.9 28,-15.4 17,-11.6 17,-18.7 3,-40.9 -5,-7.5 -9,-12.4 -13,-16.7 -5,-5.6 -7,-22.3 -3,-25.7 2,-2.3 12,-3 17,-1.4 4,1.5 6,0.9 4,-1.6 -5,-6.3 -6,-8.4 -5,-9 2,-2.6 30,1.1 34,4.6 0,0.6 2,1.1 3,1.1 3,0 4,1.4 8,19.4 1,6.8 1,7.9 -1,10.6 -1,1.8 -2,4.8 -3,6.7 -2,4.1 -2,16.2 -1,19.3 1,1.2 4,7.5 8,14.2 l 5,11.8 -4,6 c -4,6.4 -10,11.4 -21,17.1 -8,4.3 -17,12.3 -22,20.4 -6,8.3 -12,10.9 -14,5.8 z m -8,2 c 0,-2.3 2,-3.7 4,-2.7 1,0.5 1,1.5 0,2.7 -3,2.2 -4,2.2 -4,0 z m -192,11 c 0,-1.2 1,-2.4 2,-2.8 1,-0.4 2,0.3 1,1.8 0,1.1 -1,2.3 -2,2.7 -1,0.4 -1,-0.2 -1,-1.7 z m 294,1.8 c 0,-0.6 0,-0.8 1,-0.5 1,0.4 1,1 1,1.4 0,0.3 0,0.5 -1,0.5 -1,0 -1,-0.6 -1,-1.4 z m -286,5.8 c 1,-1 2,-1.9 3,-1.9 2,0 2,2 -1,3 -2,1.1 -3,1 -2,-1.1 z m 329,1.9 c 0,-0.7 1,-1.3 2,-1.3 0,0 1,0.6 0,1.3 0,0.6 -1,1.2 -1,1.2 0,0 -1,-0.6 -1,-1.2 z m -307,-1.9 c -2,-1.8 -3,-3.1 -4,-3.1 -3,0 -1,-3.3 3,-4.8 2,-1 3,-2.5 3,-3.5 0,-2.1 0,-2.1 -5,0.1 -2,1 -6,3.3 -7,5 -2,3 -6,4.3 -6,2 0,-0.6 -2,-1.5 -3,-1.8 -3,-0.8 -3,-1 2,-5.7 7,-5.6 5,-8.3 -1,-3.5 -4,2.7 -5,2.9 -8,1.7 -4,-1.9 -4,-3 2,-5.3 12,-5.2 20,-9.6 22,-12.7 9,-12.7 17,-42.9 19,-70.1 1,-13.8 2,-20.2 5,-20.2 1,0 2,0.8 2,1.5 0,2.4 5,8.9 7,8 0,-0.3 1,-2.8 2,-5.6 0,-3.9 12,-22.7 18,-30 0,-1 4,2.8 4,4.8 0,2 5,7.6 6,7.6 1,0 1,-3.5 1,-7.9 0,-8 2,-13.5 15,-35 3,-5.5 7,-7.9 7,-4.4 0,2 6,8.5 8,8.5 1,0 2,-2.2 2,-8 0,-7.3 0,-8.5 4,-13.5 7,-8.7 10,-13.9 12,-19.8 l 2,-5.5 7,-0.9 c 5,-0.4 11,-2.1 15,-3.9 5,-1.8 9,-2.6 10,-2 2,0.5 11,1 21,1 16,0 20,-0.3 26,-2.5 15,-5.3 20,-6.3 30,-5.6 13,1 25,2.8 37,5.1 6,1 15,2.5 21,3.2 7,0.7 15,1.7 20,2.5 31,4.3 58,2.1 74,-5.8 5,-2.9 15,-12.7 18,-17.2 6,-14.8 3,-29.3 -9,-40.5 -6,-5.3 -12,-8.7 -22,-11.5 -10,-3 -38,0.7 -76,10.1 -3,0.5 -7,1.6 -10,2.2 -3,0.8 -11,2.8 -17,4.5 -14,4.2 -17,4.9 -33,8 -8,1.5 -16,3.3 -20,4 -8,2 -36,1.9 -42,-0.1 -10,-3.2 -20,-8.7 -25,-13.4 -10,-10.8 -14,-24.8 -8,-35.7 5,-9.5 18,-19.7 30,-24 8,-2.5 53,-6.5 56,-4.7 1,0.3 0,1.7 -1,3.1 -2,1.9 -3,2.2 -7,1.6 -5,-0.9 -13,0.3 -32,3.9 -14,2.6 -26,7.5 -31,12.1 -12,11.1 -9,30.1 6,39.2 3,2.3 10,4.7 13,5.5 4,0.8 9,1.9 10,2.5 4,1.5 16,1.4 24,-0.1 13,-2.1 43,-8.5 48,-9.7 32,-9 36,-10.2 64,-15.2 3,-0.6 10,-2 15,-3.2 8,-1.6 14,-2 25,-1.5 18,0.7 26,2.9 37,10 15,9.2 23,22.1 23,36.9 0,26 -16,41.5 -52,50 -11,2.6 -41,4.2 -58,3.1 -16,-1.1 -17,-1.4 -21,-4.9 l -3,-3.6 4,8.7 c 9,17.5 11,24.5 12,49.9 1,19.2 2,21.6 5,27.2 5,8.9 16,16.8 27,19.2 5,1.2 8,5.8 6,11.6 -1,2.5 -2,12.2 -2,21.5 0,9.2 -1,20.2 -2,24.3 -1,4.2 -2,16.8 -2,28.2 -1,27 -3,32.7 -10,25.7 -2,-2.7 -3,-3.4 -1,-5.4 1,-1.2 2,-3.3 2,-4.6 0,-2.1 -1,-1.9 -5,1.9 -2,2.2 -5,5.5 -5,7.1 -2,4.4 -5,4.8 -9,1 l -3,-3.4 3,-3.1 c 3,-2.7 5,-5.5 3,-5.5 -2,0 -11,6.5 -11,7.9 -2,6.6 -2,6.6 -6,2.9 -3,-3.4 -3,-3.4 0,-5.3 10,-7.9 9,-10.6 -2,-3.7 -7,5.1 -8,5.2 -10,2.6 -2,-2.4 0,-5.6 3,-5.6 4,0 15,-9.5 18,-14.7 1,-3.7 2,-7.6 2,-17.6 0,-7 -1,-14.9 -2,-17.5 -1,-2.5 -2,-8.2 -3,-12.5 -3,-10.7 -9,-16.6 -20,-22.1 -5,-2.4 -10,-4.4 -11,-4.4 -3,0 -17,-7.3 -20,-10.6 -4,-3.9 -8,-11.1 -10,-20.6 -3,-14.9 -11,-34 -17,-41.9 -4,-5.2 -3,-0.5 1,7.6 6,10.2 6,13.7 2,12.5 -15,-4.2 -17,-4.6 -28,-4 -19,1.2 -33,4.5 -46,11.2 -27,13.5 -49,20.3 -51,15.6 -1,-1.6 1,-12 2,-16.3 2,-4.8 -2,-1.7 -4,3.4 -2,6 -2,15.8 0,24.3 1,4.6 1,6.8 0,9.1 -2,4 -10,13.2 -15,18.6 -18,18.1 -20,21.4 -30,48 -4,9.2 -4,11.1 -7,17.6 -1,2.8 -3,10 -3,15.9 -1,6 -1,11.1 -2,11.2 0,0.3 -2,1.7 -5,3.2 l -5,2.7 -4,-3.5 c -2,-1.9 -4,-3.7 -4,-4.1 0,-0.4 2,-1.9 4,-3.5 4,-3.4 3,-5.9 -2,-3.4 -4,2.4 -6,5.1 -8,10.3 l -1,4.1 -3,-3 z m 9,2.4 c 0,-1.4 0,-1.8 0,-0.8 1,0.9 1,2 0,2.4 0,0.5 0,-0.3 0,-1.6 z m 1,7 c 2,-1.4 4,-2.5 6,-2.5 4,0 15,-6 16,-8.9 1,-1.3 2,-3.5 2,-5.3 0,-3.6 5,-8.3 9,-8.3 4,0 6,2.2 6,7.1 0,6.9 2,5.2 6,-5 0,-1.9 1,-6.5 1,-10.3 0,-7.5 2,-8.8 4,-3.5 3,7.9 10,12.3 9,5.9 -1,-3.6 2,-20.5 3,-20.5 1,0 2,1.4 4,3.1 4,4.3 7,4.3 5,-0.2 -1,-2.4 -1,-5.4 1,-11.3 2,-8 1,-18.3 -1,-19.8 -1,-0.4 -1,-1.3 -1,-1.9 1,-0.6 3,0.5 6,2.5 5,3.7 9,5.4 12,4.4 1,-0.5 1,-1.7 -1,-4.8 -2,-2.4 -4,-8.3 -5,-13.3 -1,-6.8 -2,-10.9 -5,-15 l -5,-5.8 3,-2.6 c 3,-3.5 5,-8.1 5,-13.5 0,-4.4 0,-4.4 4,-3.6 8,1.8 11,4.3 14,13.3 0,1.3 1,2.3 2,2.3 1,0 4,-10 4,-14.1 0,-4.2 0,-4.5 6,-3.3 2,0.5 9,1.4 14,1.9 l 10,0.9 -5,-4.4 c -2,-2.4 -4,-5 -4,-5.6 0,-0.8 3,-1.7 8,-2 4,-0.4 9,-0.9 10,-1.2 2,-0.2 2,0.5 3,4 1,5.5 3,9 9,17 7,9.2 16,25.3 18,31.4 2,5.1 2,5.5 -1,9.7 -2,2.5 -7,6.9 -12,9.9 -8,5.1 -13,7.4 -32,16.4 -10,4.4 -13,7.6 -13,12 0,0.7 -2,3.1 -3,5.4 -2,2.2 -3,5 -3,6 0,2.6 3,5.2 4,3.5 0,-0.7 2,-1.3 4,-1.3 2,0 3,0.6 3,3 0,3.6 3,5.1 5,2.5 2,-2.1 6,-2.4 6,-0.2 0,0.8 1,2.3 1,3.3 1,1.5 2,1.5 5,-0.2 4,-3 10,-2.8 11,0.4 1,3.1 3,3.2 6,0.1 2,-1.9 3,-2.3 6,-1.8 6,0.9 12,-2.3 17,-8.7 2,-2.9 4,-5.1 5,-5 0,0.1 1,3 2,6.2 l 0,6 4,-4.1 c 7,-6.1 9,-5.5 8,2.9 -1,3.7 -1,6.9 0,6.9 2,0 10,-9.3 12,-14.2 2,-2.6 3,-6 3,-7.5 0,-1.5 1,-3.5 1,-4.3 1,-2.2 3,2.1 3,8.6 0,9 1,7.5 8,-7.9 3,-7.4 3,-9.2 3,-16.2 -1,-4.4 -2,-11.9 -2,-16.7 -1,-5.6 -2,-10.4 -4,-13.7 -7,-11.7 -8,-15 -8,-22.5 0,-5.1 0,-8.7 2,-11 l 2,-3.2 5,5.2 c 6,5.6 12,9.1 27,14.3 8,3 13,5.6 18,10.2 2,1 4,4.8 5,8.1 6,15.9 8,31.4 6,42.5 -1,9.3 -5,13.4 -16,19.1 -7,4 -13,12 -13,18.8 -1,4.6 1,5 5,2.1 4,-2.4 7,-1.5 7,1.9 0,3.7 2,4.2 6,1.5 4,-2.5 8,-2.3 8,0.5 0,0.9 0,2.2 1,3 2,1.1 3,0.9 6,-1.1 6,-3.4 11,-3.3 14,0.2 2,2.4 3,2.6 4,1.3 1,-0.8 3,-1.5 5,-1.5 7,0 12,-7.3 12,-16.8 0,-6.9 2,-11.2 6,-13.2 2,-1.4 3,-1.2 7,1.7 3,1.8 6,3.3 7,3.3 3,0 4,-3.2 1,-4.4 0,-0.4 -1,-3.5 -1,-6.9 0,-3.4 0,-7.6 -1,-9.4 -2,-5.1 0,-5.8 5,-2.3 5,3.5 15,5.5 15,3.1 0,-0.8 -1,-1.8 -2,-2.1 -2,-0.9 -4,-6.7 -5,-15.8 -1,-4.5 -2,-7.1 -5,-10.6 -6,-6 -4,-8 4,-4.9 9,3.4 14,4 14,1.6 0,-1 -1,-2.1 -2,-2.5 -1,-0.6 -5,-7.6 -5,-9.8 0,-2.8 -6,-8.8 -10,-11 -3,-1.4 -7,-2.5 -10,-2.5 -3,0 -7,-0.6 -8,-1.4 -3,-1.4 -3,-2 -3,-7 1,-8 -1,-10.9 -9,-13.6 -13,-3.9 -21,-9.8 -25,-17.3 -2,-5.1 -4,-16.2 -5,-35.6 l 0,-16.6 3,0.9 c 6,2 14,2.1 18,0.2 5,-2.1 6,-4.6 3,-4.6 -3,-0.1 -8,-3.4 -6,-4.5 0,-0.5 2,-0.3 4,0.5 4,1.5 36,1.5 36,0 0,-0.5 -2,-2.1 -5,-3.5 -11,-5 -13,-8.7 -5,-8.7 5,-0.2 15,-2.2 26,-5.2 5,-1.3 6,-1.3 10,0.5 3,1.2 9,2.8 13,3.5 10,1.8 13,3.8 16,9.4 2,4 2,4.2 4,2.2 2,-2.6 2,-18.7 0,-19.8 0,-0.4 -1,-1.8 -1,-3 0,-1.1 -2,-4.5 -5,-7.4 -4,-4.7 -4,-5.4 -2,-7.2 5,-5.4 10,-18.7 10,-30.2 0,-7.8 -1,-10.1 -4,-17.2 -8,-15.9 -22,-26.8 -40,-31.4 -10,-2.5 -39,-1.9 -54,1.3 -11,2.3 -18,3.7 -28,5.7 -9,1.9 -22,5 -35,8.6 -45,12.8 -73,15.4 -93,8.5 -6,-2.2 -15,-9.3 -17,-14.1 -5,-9.7 0,-21 12,-25.8 16,-7.3 39,-11.5 55,-10.4 25,1.7 30,2.9 46,10.9 16,7.8 21,9.1 35,8.2 11,-0.7 16,-2 28,-7.5 3,-1.7 10,-4 14,-5.1 9,-2.4 16,-1.1 21,3.7 5,6.3 6,2.8 1,-5.2 -6,-7.8 -9,-11.1 -15,-13.8 -3,-1.2 -5,-2.6 -5,-3 0,-1.1 11,-11.7 16,-14.8 2,-1.8 8,-3.5 15,-4.7 19,-3 28,-8.8 31,-18.5 l 1,-3.5 -6,3.9 c -7,5.1 -13,5.1 -28,-0.1 -9,-3.1 -13,-4 -21,-4 -11,-0.1 -14,1.1 -27,8.6 -4,2.8 -5,3 -6,1.4 0,-1 0,-2.9 1,-4.4 1,-1.4 1,-5.2 1,-8.7 0,-10.5 -2,-13.4 -5,-5.8 -2,5.4 -11,14.9 -16,17.3 -3,0.8 -10,2.5 -16,3.3 -15,2 -22,5.3 -34,15.7 -13,11.1 -15,11.6 -56,13.8 -24,1.4 -37,6 -49,17.7 -14,12.8 -17,27.4 -7,44.1 4,7.2 9,12 18,16.6 19,8.9 40,10.6 63,5.2 3,-0.5 3,-0.1 3,1.8 0,3.5 -5,7 -13,9.4 -4,1.1 -8,2.6 -9,3.2 0,1.4 12,3.1 21,2.9 9,-0.3 15,-3 23,-10 3,-3.1 6,-5.4 7,-5 0,0.4 -1,3.2 -3,6.4 -3,5.7 -8,9.8 -16,14 l -4,2.3 5,0.4 c 2,0.3 8,-0.7 12,-2.1 3,-1.3 10,-3.4 14,-4.5 9,-2.5 18,-6.8 23,-11.1 5,-4 6,-4 8,0 3,5.3 11,9.2 22,10.3 5,0.7 11,1.8 13,2.5 5,1.8 5,1.8 5,-0.1 0,-0.9 -4,-5 -8,-9.1 -9,-8.3 -10,-11.5 -7,-19.8 5,-11.1 13,-15.8 32,-18.8 13,-2 14,-2 22,0 15,3.5 27,13.3 30,24.3 4,14.8 -3,28.2 -21,36.7 -13,6.3 -31,8.1 -59,5.8 -23,-1.8 -42,-4.3 -55,-7 -13,-2.7 -36,-4.7 -45,-4 -4,0.4 -11,2.3 -16,4.2 -7,2.8 -10,3.3 -24,3.8 -14,0.5 -18,0.3 -22,-1.3 -3,-1.2 -7,-2 -9,-2 -12,0 -21,-10.4 -26,-29.4 -2,-4.1 -3,-8.1 -3,-9 0,-0.9 2,-2 5,-2.9 9,-2.5 11,-5.5 4,-6.7 -5,-1 -10,-5.8 -14,-16 -2,-4.8 -6,-12.3 -8,-16.9 -2,-4.7 -5,-10.6 -7,-13.2 -3,-3.7 -3,-5 -2,-5.8 1,-0.9 1,-1.7 0,-4.6 -5,-9.3 -12,-14.3 -21,-14.3 -5,0 -6,-0.3 -7,-2.6 -1,-4 -4,-7.4 -9,-10 -6,-2.7 -12,-3.4 -9,-0.9 2,1.8 2,9.3 0,10.4 -1,0.4 -2,-0.5 -4,-1.9 -4,-3.8 -8,-5.7 -17,-8.1 -8,-2 -12,-3.6 -15,-6.7 -2,-1.5 -3,-1.5 -3,0.6 0,5 1,9.9 2,11.4 0,0.8 1,2.1 0,2.8 -1,1.9 -11,1.5 -14,-0.6 -2,-1 -4,-1.7 -4,-1.9 -2,0 1,7.7 3,10.2 3,2.5 2,4.8 -1,4.8 -4,0 -11,4 -15,8 -5,4.3 -6,6.3 -2,5.2 1,-0.4 3,-0.3 3,0.3 0,2 -8,7.8 -10,7.8 -5,0 -8,6.5 -8,15 0,6.7 0,8.1 -3,10.2 -5,3.5 -10,12.1 -12,17.9 -1,5.7 -1,6.7 2,4 4,-3.4 4,-1 1,4.2 -4,6 -8,8.7 -13,8.7 -4,0 -4,0.1 -2,2 2,2.3 14,5.7 16,4.7 3,-1.1 4,1.3 2,8.4 -1,3.7 -2,8.9 -2,11.4 0,2.5 -1,4.8 -1,5.2 -2,1 -23,-21.6 -27,-28 -2,-4.7 -3,-8 -3,-22.1 -1,-15.8 -1,-16.6 -4,-20 -2,-2 -4,-4.3 -4,-4.9 0,-1.5 -7,-5.5 -9,-5.5 -2,0 -3,1.9 -1,3.1 2,1.2 2,5.7 0,5.7 -1,0 -4,-1.5 -6,-3.3 -4,-3.9 -8,-5.7 -11,-4.6 -2,0.6 -2,1 0,3 2,2.1 2,2.7 1,5.6 -1,1.9 -2,4.3 -2,5.4 0,1.1 -1,1.7 -2,1.5 -1,-0.3 -4,-0.9 -7,-1.4 -3,-0.5 -6,-1.2 -7,-1.7 -1,-0.4 -3,0 -3.999999,1 -3,1.7 -3,1.8 0,4.5 1.999999,1.6 2.999999,4.1 2.999999,6.3 0,2.8 1,5 4,8.2 3,2.2 5,4.5 5,4.7 0,1.3 -11.999999,-0.1 -12.999999,-1.5 -5,-4.7 -7,3.5 -2,9.5 1,1.9 2,4.5 2,5.9 1,1.4 2.999999,3.7 6.999999,5.4 3,1.6 6,3.7 6,4.7 1,1 4,3.5 8,5.6 7,4 11,8.9 12,17 1,3.4 1,4.7 -2,7.2 -2,1.7 -5,3.5 -7,3.8 -11,2.4 -17,5.3 -17,8.2 0,0.5 2,1.2 4,1.7 3,0.4 9,2.8 13,5.1 5,2.4 10,4.4 11,4.4 4,0 5,3.7 2,5.1 -1,0.6 -2,2 -3,3 -1,0.9 -5,2.5 -9,3.6 -7,1.8 -12,4.9 -12,7.3 0,0.5 3,1 6,1 3,0 6,0.5 7,1.1 4,3.5 19,10.1 23,10.1 7,0 6,2.9 -2,7.9 -9,5.4 -10,7.8 -2,8 3,0 11,0.5 17,1 8,0.6 12,0.5 15,-0.6 3,-1.5 4,-1.3 10,4.5 7,6.1 8,6.1 16,6.1 9,0 16,-1.5 26,-5.7 7,-3.3 8,-3 11,1.7 2,2.3 4,5.5 6,7.1 2,1.8 5,5.5 7,8.4 3,4.8 4,6.1 4,16.5 0,23.1 -8,56.1 -16,73.4 -3,6.1 -4,7 -13,11 -6,2.5 -11,4.5 -11,4.5 -1,0 -3,1.7 -5,3.8 -4,3.5 -4,4.5 -4,12.5 0,8.9 1,10.4 4,6.8 3,-2.9 5,-2.3 5,2.4 0,5.7 2,8 5,4.6 3,-3.5 7,-3.3 9,0.5 1,3.5 5,4.1 6,1.2 1,-2.8 9,-2.3 11,0.7 0,1.3 2,2.5 2,2.5 1,0 2,-1.2 3,-2.5 z m 125,130.4 c -23,-5 -47,-16.2 -80,-36.8 -6,-4.2 -13,-8.3 -14,-9.3 -1,-0.9 -8,-6.2 -15,-11.7 -22,-16 -40,-32 -62,-53.9 -26,-25.7 -42,-44.2 -63,-73.1 -36,-50.2 -59.999999,-99.7 -69.999999,-146.9 -7,-30.9 -6,-17.3 -7,-266.8 0,-127.1 0,-231.799998 1,-233.799998 0,-2 16,-2 324.999999,-2 l 324,1 1,218.599998 c 0,160.3 0,223.6 -1,236.8 -2,21 -6,44 -10,58.7 -1,2.4 -2,6.9 -3,10 -1,3.2 -2,6.2 -2,6.9 -1,0.6 -2,2.3 -2,3.8 0,1.5 0,3.1 -1,3.8 0,0.7 -2,3.9 -3,7.4 -6,15.8 -24,51.8 -31,62.1 -1,1.8 -2,3.7 -2,4.2 0,2 -32,48.1 -36,51.8 -1,0.4 -4,4.5 -8,9.4 -11,14.1 -18,21.2 -41,44.4 -25,25.4 -30,29.4 -48,43.8 -33,27.3 -61,45.6 -88,58.1 -19,8.9 -25,10.8 -39,13.8 -10,2.1 -14,2 -25,-0.3 z"></path>
  <path class="logotype logotext" d="m 2372.4588,120.736 c -15.9825,-4.9219 -45.5138,-12.9199 -81.7991,-12.9199 -95.6625,0 -130.936,61.1955 -130.936,111.01601 0,33.52355 15.586,116.00628 122.0219,116.00628 42.7384,0 78.7229,-12.98833 93.1742,-20.09774 l 0,-47.98845 c 0,-13.48052 4.9219,-23.00985 23.0645,-23.00985 l 0,-9.22855 c -10.1446,0.27344 -22.4493,1.23051 -41.8224,1.23051 -19.6739,0 -31.9786,-0.95707 -42.1232,-1.23051 l 0,9.22855 c 18.7442,0 23.3653,4.60744 23.3653,20.00202 l 0,44.57049 c -11.0742,8.33987 -25.211,13.5352 -39.9767,13.5352 -49.2053,0 -92.3128,-43.61344 -92.3128,-113.16253 0,-46.7443 24.6094,-87.95153 82.7835,-87.95153 47.9748,0 74.4163,23.0646 76.5628,55.34399 l 7.998,0 0,-55.34399 z m -458.0095,209.17942 c 9.2286,-0.61525 25.8263,-0.92975 33.2091,-0.92975 7.3829,0 23.9942,0.3145 33.2091,0.92975 l 0,-9.22855 c -19.3731,-1.84571 -25.211,-4.92189 -25.5255,-27.67198 l -2.4472,-144.52599 166.3599,183.57301 12.3048,0 0,-186.99091 c 0,-17.2267 5.4688,-24.6095 25.5665,-24.8829 l 0,-9.1602 c -12.0313,0 -24.3361,1.3672 -34.1798,1.3672 -9.5704,0 -21.8751,0 -33.2228,-1.3672 l 0,9.1602 c 22.1485,0 26.5235,7.9297 26.5235,26.3868 l 0.8204,126.45164 -144.7994,-161.99864 c -8.9278,0 -17.8419,1.3672 -24.6095,1.3672 -8.6133,0 -20.6036,0 -33.2091,-1.3672 l 0,9.1602 c 19.9884,0 25.5255,7.6562 25.5255,24.8829 l 0,150.70561 c 0,17.22663 -5.5371,24.60947 -25.5255,24.91026 l 0,9.22855 z m -153.1256,-86.13315 28.2873,-79.0374 33.2091,79.0374 -61.4964,0 z m -72.2698,86.40658 c 26.1408,-0.95706 29.2169,-0.95706 36.9006,-0.95706 7.3828,0 10.459,0 36.9005,0.95706 l 0,-9.21488 c -19.0587,-0.27345 -22.7501,-3.69141 -22.7501,-11.68949 0,-3.07618 0.6836,-7.38283 8.2989,-28.90245 l 8.9277,-24.91026 70.4104,0 12.3048,28.90246 c 6.4531,15.38091 8.6133,21.83407 8.6133,25.21103 0,8.31254 -4.9219,11.38871 -22.1485,11.38871 l 0,9.21488 c 21.5333,-0.27345 34.754,-0.95706 47.0451,-0.95706 12.3047,0 25.8536,0.54689 47.0451,0.95706 l 0,-9.21488 c -15.9962,0 -23.3517,-4.92189 -31.3498,-22.76375 l -83.344,-186.04752 -5.2227,0 -67.6623,163.29744 c -16.8985,41.20718 -22.7501,44.28337 -43.969,45.51383 l 0,9.21488 z M 1513.8619,120.736 c 18.7579,0.6153 25.8263,3.377 34.4396,22.1486 l 50.4357,108.54138 0,44.85759 c 0,17.22661 -5.5371,24.60946 -25.5255,25.01962 l 0,9.16019 c 24.5958,0 35.0548,-1.36724 44.8986,-1.36724 9.8301,0 20.2892,0 44.9123,1.36724 l 0,-9.16019 c -20.002,0 -25.5392,-7.79301 -25.5392,-25.01962 l 0,-44.85759 62.18,-115.00828 c 5.4687,-10.1445 13.5352,-15.6817 26.6602,-15.6817 l 0,-9.2285 c -14.3555,0.6152 -24.6095,0.9297 -34.0431,0.9297 -9.5703,0 -19.6875,-0.3145 -34.1798,-0.9297 l 0,9.2285 c 12.8516,0 21.8751,1.545 21.8751,12.92 0,3.9922 -1.9141,9.5293 -6.5625,19.0587 l -40.551,82.11356 -32.5938,-72.88503 c -10.7598,-23.98053 -11.6759,-26.44153 -11.6759,-29.51773 0,-7.3828 4.9083,-11.6895 15.9825,-11.6895 l 8.2989,0 0,-9.2285 c -17.5274,0.6152 -31.3634,0.9297 -45.5002,0.9297 -13.836,0 -27.9864,-0.3145 -53.5119,-0.9297 l 0,9.2285 z M 1273.236,329.91542 c 9.2286,-0.61525 25.8263,-0.92975 33.2091,-0.92975 7.3828,0 23.9942,0.3145 33.2091,0.92975 l 0,-9.22855 c -19.3731,-1.84571 -25.211,-4.92189 -25.5255,-27.67198 l -2.4609,-144.52599 166.3736,183.57301 12.3048,0 0,-186.99091 c 0,-17.2267 5.4688,-24.6095 25.5665,-24.8829 l 0,-9.1602 c -12.0313,0 -24.3361,1.3672 -34.1798,1.3672 -9.5704,0 -21.8751,0 -33.2228,-1.3672 l 0,9.1602 c 22.1485,0 26.5235,7.9297 26.5235,26.3868 l 0.8204,126.45164 -144.7994,-161.99864 c -8.9278,0 -17.8419,1.3672 -24.6095,1.3672 -8.6133,0 -20.6036,0 -33.2091,-1.3672 l 0,9.1602 c 19.9884,0 25.5255,7.6562 25.5255,24.8829 l 0,150.70561 c 0,17.22663 -5.5371,24.60947 -25.5255,24.91026 l 0,9.22855 z m -159.9615,-86.13315 28.2872,-79.0374 33.2091,79.0374 -61.4963,0 z m -72.2698,86.40658 c 26.1407,-0.95706 29.2169,-0.95706 36.9005,-0.95706 7.3829,0 10.459,0 36.9005,0.95706 l 0,-9.21488 c -19.0586,-0.27345 -22.75,-3.69141 -22.75,-11.68949 0,-3.07618 0.6836,-7.38283 8.2988,-28.90245 l 8.9278,-24.91026 70.4104,0 12.3047,28.90246 c 6.4532,15.38091 8.6133,21.83407 8.6133,25.21103 0,8.31254 -4.9218,11.38871 -22.1485,11.38871 l 0,9.21488 c 21.5333,-0.27345 34.7541,-0.95706 47.0451,-0.95706 12.3048,0 25.8536,0.54689 47.0451,0.95706 l 0,-9.21488 c -15.9961,0 -23.3516,-4.92189 -31.3497,-22.76375 l -83.3441,-186.04752 -5.2226,0 -67.6624,163.29744 c -16.8985,41.20718 -22.7501,44.28337 -43.9689,45.51383 l 0,9.21488 z M 815.22647,329.9154 c 9.2286,-0.61525 25.8263,-0.92975 33.2091,-0.92975 7.3829,0 23.9943,0.3145 33.20915,0.92975 l 0,-9.22855 c -19.37315,-1.84571 -25.21105,-4.92188 -25.52545,-27.67198 l -2.4473,-144.52597 166.35993,183.57299 12.3048,0 0,-186.99089 c 0,-17.2267 5.4687,-24.6095 25.5665,-24.8829 l 0,-9.1602 c -12.0313,0 -24.3361,1.3672 -34.1798,1.3672 -9.5704,0 -21.8751,0 -33.22281,-1.3672 l 0,9.1602 c 22.14851,0 26.52351,7.9297 26.52351,26.3868 l 0.8204,126.45162 L 873.04507,111.0279 c -8.9277,0 -17.8418,1.3672 -24.6094,1.3672 -8.6133,0 -20.6036,0 -33.2091,-1.3672 l 0,9.1602 c 19.9883,0 25.5254,7.6562 25.5254,24.8829 l 0,150.7056 c 0,17.22662 -5.5371,24.60946 -25.5254,24.91025 l 0,9.22855 z M 2220.7004,592.41636 c 15.5997,0.50585 21.4786,2.81642 28.6427,18.41609 l 41.9455,90.27573 0,37.32436 c 0,14.35552 -4.6074,20.50788 -21.2325,20.78133 l 0,7.65626 c 20.4669,0 29.1622,-1.36723 37.338,-1.36723 8.1895,0 16.8848,0 37.3517,1.36723 l 0,-7.65626 c -16.6387,0 -21.2325,-6.42581 -21.2325,-20.78133 l 0,-37.32436 51.6799,-95.64879 c 4.6485,-8.43559 11.211,-13.04303 22.2852,-13.04303 l 0,-7.66994 c -12.0313,0.50585 -20.5079,0.76556 -28.4376,0.76556 -7.9297,0 -16.3789,-0.25971 -28.3966,-0.76556 l 0,7.66994 c 10.7462,0 18.1427,1.28514 18.1427,10.74615 0,3.32227 -1.5176,7.92971 -5.3457,15.85943 l -33.7697,68.27759 -27.1114,-60.60764 c -8.9415,-19.94735 -9.7071,-21.99813 -9.7071,-24.55479 0,-6.13869 4.0879,-9.72074 13.2891,-9.72074 l 6.9043,0 0,-7.66994 c -14.5742,0.50585 -26.086,0.76556 -37.8438,0.76556 -11.5118,0 -23.2697,-0.25971 -44.5022,-0.76556 l 0,7.66994 z m -128.5161,173.63347 c 20.4532,-0.50584 29.1486,-0.76555 37.3381,-0.76555 8.1895,0 16.8711,0.25971 37.338,0.76555 l 0,-7.66996 c -16.6251,-0.25971 -21.2188,-6.39846 -21.2188,-20.71297 l 0,-140.87551 22.504,0 c 20.4532,0 34.002,5.60549 35.547,37.80287 l 9.4609,0 -1.5312,-50.65449 c -27.3712,0 -54.7424,1.36724 -82.0999,1.36724 -27.3712,0 -54.7287,0 -82.0999,-1.36724 l -1.5313,50.65449 9.461,0 c 1.545,-32.19738 15.0938,-37.80287 35.547,-37.80287 l 22.504,0 0,140.87551 c 0,14.31451 -4.5938,20.45321 -21.2189,20.71297 l 0,7.66996 z m -133.9848,0 c 20.4669,-0.50584 29.1622,-0.76555 37.338,-0.76555 8.1895,0 16.8848,0.25971 37.338,0.76555 l 0,-7.66996 c -16.625,-0.25971 -21.2188,-6.39846 -21.2188,-20.71297 l 0,-125.28951 c 0,-14.35552 4.5938,-20.5079 21.2188,-20.78133 l 0,-7.65629 c -20.4532,0 -29.1485,1.36724 -37.338,1.36724 -8.1758,0 -16.8711,0 -37.338,-1.36724 l 0,7.65629 c 16.625,0 21.2325,6.42581 21.2325,20.78133 l 0,125.28951 c 0,14.31451 -4.6075,20.45321 -21.2325,20.71297 l 0,7.66996 z m -128.5161,-4.10157 c 18.1563,5.1133 39.3888,8.43558 55.7541,8.43558 42.4513,0 63.9436,-24.03525 63.9436,-54.20919 0,-57.03927 -94.8832,-60.36154 -94.8832,-97.64488 0,-13.80865 12.2637,-27.20714 32.9904,-27.20714 27.1114,0 43.9826,16.13287 46.799,42.23257 l 9.4609,0 -1.5312,-45.2404 c -14.3282,-5.19533 -33.5099,-6.69924 -47.3186,-6.69924 -57.0256,0 -64.4494,40.19546 -64.4494,53.2248 0,56.77951 93.3519,54.72873 93.3519,95.64881 0,14.0684 -12.2774,30.17393 -37.338,30.17393 -17.6505,0 -42.7111,-13.28911 -48.8498,-42.95719 l -9.9805,0 2.0508,44.24235 z m -181.8366,4.10157 c 20.4532,-0.50584 29.1485,-0.76555 37.338,-0.76555 8.1895,0 16.8712,0.25971 37.338,0.76555 l 0,-7.66996 c -16.625,-0.25971 -21.2188,-6.39846 -21.2188,-20.71297 l 0,-56.51973 c 17.1309,0.24614 20.713,2.03711 31.4591,24.80086 l 9.9668,21.2325 c 14.3282,30.43371 28.383,42.19157 62.344,42.19157 4.1016,0 7.9297,-0.25971 11.8946,-0.50584 l 0,-6.13869 c -14.629,-2.0508 -20.7813,-6.90432 -32.2658,-28.13682 l -32.0059,-58.81663 c 24.8145,-7.68363 35.5606,-27.11144 35.5606,-44.50212 0,-25.04697 -14.0684,-47.33221 -58.5705,-47.33221 -16.625,0 -33.5099,1.36723 -50.1349,1.36723 -9.461,0 -19.6876,0 -31.7052,-1.36723 l 0,7.65628 c 16.625,0 21.2188,6.42581 21.2188,20.78133 l 0,125.28952 c 0,14.3145 -4.5938,20.45321 -21.2188,20.71297 l 0,7.66995 z m 53.4572,-173.36002 c 3.5684,-1.36723 6.3848,-1.36723 10.9922,-1.36723 33.2502,0 42.7111,27.89074 42.7111,46.58025 0,24.81455 -13.8086,35.28725 -36.8321,35.28725 -5.1133,0 -12.0177,-0.82034 -16.8712,-1.77735 l 0,-78.9964 z m -203.8484,173.36002 c 5.1133,-0.25971 20.4532,-0.76555 40.1544,-0.76555 40.1545,0 72.6253,0.50584 97.3851,0.76555 0,-13.04303 2.3243,-34.53529 3.8282,-46.79901 l -8.627,0 c -6.1387,32.22473 -24.3087,37.07827 -50.3947,37.07827 -24.0353,0 -28.8888,-6.38479 -28.8888,-18.15633 l 0,-60.86741 19.4278,0 c 22.2579,0 28.6427,5.1133 28.6427,25.32041 l 8.6953,0 c -0.2734,-10.24027 -0.5468,-19.94734 -0.5468,-31.96496 0,-8.18949 0.2734,-17.65045 0.5468,-27.63096 l -8.6953,0 c -1.791,16.1192 -5.1133,24.55477 -28.3829,24.55477 l -19.6876,0 0,-73.93777 22.2442,0 c 30.6935,0 41.6857,8.75004 45.7736,33.22278 l 8.1895,0 -0.957,-42.92985 c -23.7892,0 -55.2346,1.36724 -94.3637,1.36724 -13.043,0 -25.5801,0 -34.2755,-1.36724 l 0,7.65629 c 16.6251,0 21.2325,6.42581 21.2325,20.78133 l 0,125.28951 c -0.069,14.31451 -4.6758,20.45321 -21.3009,20.71297 l 0,7.66996 z m 2.7344,-181.83661 c -14.5743,0.50584 -22.7638,0.76572 -29.9279,0.76572 -7.1504,0 -15.3399,-0.25971 -30.1739,-0.76572 l 0,7.66996 c 10.9922,0 17.9102,1.79102 17.9102,9.72073 0,4.60744 -2.0508,10.48638 -4.3477,17.3907 l -38.6232,109.184 -45.7736,-102.01992 c -8.9277,-19.94734 -9.748,-21.99812 -9.748,-24.55478 0,-6.13868 4.1152,-9.72073 13.3164,-9.72073 l 10.2403,0 0,-7.66996 c -17.9102,0.50584 -29.4357,0.76572 -41.1935,0.76572 -11.4845,0 -23.2423,-0.25971 -40.8791,-0.76572 l 0,7.66996 c 12.0313,0.51958 17.9102,2.81641 25.0196,18.41608 l 73.4183,157.80137 6.6445,0 60.3616,-146.54938 c 10.9922,-27.11142 14.5743,-29.4083 33.756,-29.66807 l 0,-7.66996 z m -273.4385,181.83661 c 20.4668,-0.50584 29.1622,-0.76555 37.338,-0.76555 8.1895,0 16.8848,0.25971 37.338,0.76555 l 0,-7.66996 c -16.625,-0.25971 -21.2188,-6.39846 -21.2188,-20.71297 l 0,-125.28951 c 0,-14.35552 4.5938,-20.5079 21.2188,-20.78133 l 0,-7.65629 c -20.4532,0 -29.1485,1.36724 -37.338,1.36724 -8.1758,0 -16.8712,0 -37.338,-1.36724 l 0,7.65629 c 16.625,0 21.2188,6.42581 21.2188,20.78133 l 0,125.28951 c 0,14.31451 -4.5938,20.45321 -21.2188,20.71297 l 0,7.66996 z m -213.2821,0 c 7.6699,-0.50584 21.4786,-0.76555 27.6173,-0.76555 6.1387,0 19.9473,0.25971 27.6309,0.76555 l 0,-7.66996 c -16.1192,-1.54484 -20.9727,-4.10158 -21.2325,-23.02352 l -2.0508,-120.24458 138.3873,152.72908 10.2539,0 0,-155.46346 c 0,-14.35552 4.5117,-20.5079 21.1915,-20.78133 l 0,-7.65629 c -9.9805,0 -20.2344,1.36724 -28.4376,1.36724 -7.9297,0 -18.047,0 -27.6173,-1.36724 l 0,7.65629 c 18.4571,0 22.0118,6.69924 22.0118,22.01179 l 1.3672,105.12344 -120.4906,-134.79152 c -7.4239,0 -14.8341,1.36724 -20.4669,1.36724 -7.1504,0 -17.1309,0 -27.6173,-1.36724 l 0,7.65629 c 16.6251,0 21.2188,6.42581 21.2188,20.78133 l 0,125.28951 c -0.5469,14.31451 -5.1406,20.45321 -21.7657,20.71297 l 0,7.66996 z m 1.3672,-181.83661 c -9.9668,0.25971 -20.20709,0.76572 -28.38289,0.76572 -7.92973,0 -18.15633,-0.50585 -27.61729,-0.76572 l 0,7.66996 c 18.66217,0 21.98445,6.65823 22.24422,21.99813 l 0.82034,37.07826 c 0.27344,11.252 0.54689,21.49227 0.54689,35.80678 0,44.5568 -15.84577,73.13112 -60.34788,73.13112 -28.64268,0 -52.86932,-20.64461 -52.86932,-59.06272 l 0,-88.2386 c 0,-14.31451 4.5117,-20.4532 21.15045,-20.71297 l 0,-7.66996 c -20.46685,0.76572 -29.08015,0.76572 -37.28335,0.76572 -8.2032,0 -16.9532,0 -37.3244,-0.76572 l 0,7.66996 c 16.5431,0.25971 21.1915,6.39846 21.1915,20.71297 l 0,81.84014 c 0,54.79708 36.0939,75.16824 83.34409,75.16824 56.25998,0 71.85965,-37.59779 72.37918,-74.90847 l 0.95706,-82.09991 c 0.27345,-14.31451 4.59377,-20.4532 21.2188,-20.71297 l -0.028,-7.66996 z M 2302.732,519.95517 c 3.0625,-0.34181 7.4922,-0.50584 12.5918,-0.50584 32.5119,0 65.0237,0.32807 82.2093,0.50584 l 2.7207,-31.14465 -5.7832,0 c -3.4043,21.09578 -14.6426,23.99423 -37.1056,23.99423 -14.1231,0 -19.0587,-2.89845 -19.0587,-11.74418 l 0,-83.39875 c 0,-9.52933 3.0626,-13.61723 14.1231,-13.7813 l 0,-5.1133 c -13.6172,0.34181 -19.4004,0.51958 -24.8555,0.51958 -5.4414,0 -11.2247,-0.17777 -24.8419,-0.51958 l 0,5.1133 c 11.0606,0.16403 14.1231,4.25197 14.1231,13.7813 l 0,83.39875 c 0,9.52933 -3.0625,13.61723 -14.1231,13.79497 l 0,5.09963 z m -95.7035,-47.85174 15.6544,-43.75017 18.3887,43.75017 -34.0431,0 z m -39.9904,47.8244 c 14.4649,-0.5469 16.1603,-0.5469 20.4122,-0.5469 4.0879,0 5.7833,0 20.4259,0.5469 l 0,-5.09963 c -10.5547,-0.13738 -12.5919,-2.0508 -12.5919,-6.46683 0,-1.70899 0.3418,-4.0879 4.5938,-16.00982 l 4.9356,-13.7813 38.9786,0 6.8086,15.99615 c 3.5684,8.51761 4.7715,12.08598 4.7715,13.95904 0,4.59377 -2.7343,6.30276 -12.2637,6.30276 l 0,5.09963 c 11.9219,-0.13738 19.2364,-0.5469 26.045,-0.5469 6.8087,0 14.3009,0.41017 26.0314,0.5469 l 0,-5.09963 c -8.8457,0 -12.92,-2.7344 -17.3497,-12.60551 l -46.1291,-102.96328 -2.8984,0 -37.4337,90.37142 c -9.3653,22.80478 -12.6055,24.51377 -24.3361,25.19737 l 0,5.09963 z m -6.4941,-114.81688 c -16.1739,-6.46681 -35.9162,-9.52933 -46.635,-9.52933 -52.9377,0 -72.5022,33.86536 -72.5022,61.44163 0,18.5528 8.6817,64.16235 67.5667,64.16235 18.211,0 36.422,-4.75784 54.2912,-17.70514 l -1.5313,-20.07039 c -14.6426,23.1329 -34.5489,30.6251 -47.3185,30.6251 -29.4357,0 -47.8244,-29.10752 -47.8244,-61.09982 0,-33.01771 21.9571,-50.88691 44.5978,-50.88691 20.4259,0 41.1798,9.02347 44.926,33.52356 l 4.4297,0 0,-30.46105 z m -173.6335,114.84422 c 13.6172,-0.34181 19.4005,-0.50584 24.8556,-0.50584 5.4414,0 11.2246,0.16403 24.8419,0.50584 l 0,-5.09963 c -11.0606,-0.17777 -14.1231,-4.26564 -14.1231,-13.79497 l 0,-83.39875 c 0,-9.52933 3.0625,-13.61723 14.1231,-13.7813 l 0,-5.1133 c -13.6173,0.34181 -19.4005,0.51958 -24.8419,0.51958 -5.4551,0 -11.2384,-0.17777 -24.8556,-0.51958 l 0,5.1133 c 11.0606,0.16403 14.1231,4.25197 14.1231,13.7813 l 0,83.39875 c 0,9.52933 -3.0625,13.61723 -14.1231,13.79497 l 0,5.09963 z M 1966.4026,403.7438 c -8.8457,-2.72071 -25.1837,-7.15041 -45.2677,-7.15041 -52.9377,0 -72.5159,33.86536 -72.5159,61.44163 0,18.55279 8.6817,64.16235 67.5667,64.16235 23.6661,0 43.586,-7.13676 51.5841,-11.0606 l 0,-26.55088 c 0,-7.49222 2.7207,-12.76957 12.7559,-12.76957 l 0,-5.09964 c -5.6191,0.13738 -12.4141,0.68362 -23.1465,0.68362 -10.8829,0 -17.7052,-0.5469 -23.3107,-0.68362 l 0,5.09964 c 10.377,0 12.9337,2.55664 12.9337,11.07425 l 0,24.67783 c -6.1251,4.59376 -13.9591,7.49221 -22.1212,7.49221 -27.2345,0 -51.0646,-24.17196 -51.0646,-62.64476 0,-25.86729 13.6172,-48.67205 45.7872,-48.67205 26.5509,0 41.1799,12.76958 42.3693,30.63879 l 4.4297,0 0,-30.63879 z m -267.9697,54.68774 c 0,37.1056 32.5118,62.80881 69.2756,62.80881 41.6994,0 67.0608,-29.79112 67.0608,-62.80881 0,-37.10562 -32.5118,-62.80884 -69.2756,-62.80884 -41.6994,0 -67.0608,29.79113 -67.0608,62.80884 m 25.1837,-7.49222 c 0,-42.20524 26.5509,-48.84979 37.4474,-48.84979 29.7911,0 48.508,30.81651 48.508,63.83421 0,42.20524 -26.5509,48.84979 -37.4474,48.84979 -29.7775,0 -48.508,-30.81652 -48.508,-63.83421 m -124.9888,69.01585 c 3.0625,-0.34181 7.4923,-0.50584 12.5919,-0.50584 32.5118,0 65.0236,0.32807 82.2093,0.50584 l 2.7207,-31.14465 -5.7832,0 c -3.4044,21.09578 -14.6427,23.99423 -37.1056,23.99423 -14.1232,0 -19.0587,-2.89845 -19.0587,-11.74418 l 0,-83.39875 c 0,-9.52933 3.0625,-13.61723 14.1231,-13.7813 l 0,-5.1133 c -13.6173,0.34181 -19.4005,0.51958 -24.8556,0.51958 -5.4414,0 -11.2246,-0.17777 -24.8419,-0.51958 l 0,5.1133 c 11.0606,0.16403 14.1231,4.25197 14.1231,13.7813 l 0,83.39875 c 0,9.52933 -3.0625,13.61723 -14.1231,13.79497 l 0,5.09963 z m -146.2896,-61.52363 c 0,37.1056 32.5119,62.80881 69.2757,62.80881 41.6993,0 67.0608,-29.79112 67.0608,-62.80881 0,-37.10562 -32.5119,-62.80884 -69.2757,-62.80884 -41.6993,0 -67.0608,29.79113 -67.0608,62.80884 m 25.1837,-7.49222 c 0,-42.20524 26.5646,-48.84979 37.4474,-48.84979 29.7912,0 48.508,30.81651 48.508,63.83421 0,42.20524 -26.5509,48.84979 -37.4474,48.84979 -29.7774,0 -48.508,-30.81652 -48.508,-63.83421 m -161.9029,69.01585 c 5.0996,-0.34181 14.3008,-0.50584 18.3887,-0.50584 4.0742,0 13.2755,0.16403 18.3751,0.50584 l 0,-5.09963 c -10.7188,-1.02542 -13.9591,-2.73439 -14.1231,-15.32624 l -1.3672,-79.99442 92.0804,101.60975 6.8086,0 0,-103.48281 c 0,-9.52933 3.0625,-13.61723 14.1231,-13.7813 l 0,-5.1133 c -6.6309,0.17777 -13.4395,0.51958 -18.8946,0.51958 -5.2637,0 -12.086,-0.41017 -18.3751,-0.54689 l 0,5.1133 c 12.2501,0 14.6427,4.41602 14.6427,14.62895 l 0.5058,69.9866 -80.1722,-89.70151 c -4.9355,0.17778 -9.8711,0.51958 -13.6036,0.51958 -4.7715,0 -11.416,-0.3418 -18.3887,-0.51958 l 0,5.1133 c 11.0606,0.16404 14.1231,4.25198 14.1231,13.7813 l 0,83.39875 c 0,9.52933 -3.0625,13.61724 -14.1231,13.79498 l 0,5.09962 z m -155.86,0 c 13.6173,-0.34181 19.4005,-0.50584 24.8556,-0.50584 5.4414,0 11.2246,0.16403 24.8419,0.50584 l 0,-5.09963 c -11.0606,-0.17777 -14.1231,-4.26564 -14.1231,-13.79497 l 0,-41.86343 63.8205,0 0,41.86343 c 0,9.52933 -3.0625,13.61723 -14.1231,13.79497 l 0,5.09963 c 13.6173,-0.34181 19.4005,-0.50584 24.8556,-0.50584 5.4414,0 11.2246,0.16403 24.8419,0.50584 l 0,-5.09963 c -11.0606,-0.17777 -14.1231,-4.26564 -14.1231,-13.79497 l 0,-83.39875 c 0,-9.52933 3.0625,-13.61723 14.1231,-13.7813 l 0,-5.1133 c -13.6173,0.34181 -19.4005,0.51958 -24.8419,0.51958 -5.4551,0 -11.2383,-0.13738 -24.8556,-0.54689 l 0,5.1133 c 11.0606,0.19134 14.1231,4.27932 14.1231,13.80864 l 0,34.38489 -63.8205,0 0,-34.38489 c 0,-9.52932 3.0625,-13.61723 14.1231,-13.7813 l 0,-5.1133 c -13.6173,0.34181 -19.4005,0.51958 -24.8419,0.51958 -5.4551,0 -11.2383,-0.17777 -24.8556,-0.51958 l 0,5.1133 c 11.0606,0.16404 14.1231,4.25198 14.1231,13.7813 l 0,83.39875 c 0,9.52933 -3.0625,13.61724 -14.1231,13.79498 l 0,5.09962 z m -12.3047,-114.84422 c -16.1739,-6.46681 -35.9162,-9.52933 -46.635,-9.52933 -52.9376,0 -72.5022,33.86536 -72.5022,61.44163 0,18.5528 8.6817,64.16235 67.5667,64.16235 18.211,0 36.422,-4.75784 54.2912,-17.70514 l -1.5313,-20.07039 c -14.6426,23.1329 -34.5489,30.6251 -47.3185,30.6251 -29.4357,0 -47.8244,-29.10752 -47.8244,-61.09982 0,-33.01771 21.9571,-50.88691 44.5978,-50.88691 20.4259,0 41.1799,9.02347 44.926,33.52356 l 4.4297,0 0,-30.46105 z M 924.4652,519.95517 c 3.40431,-0.17777 13.61723,-0.50584 26.71494,-0.50584 26.7286,0 48.34393,0.32807 64.84596,0.50584 0,-8.68167 1.545,-22.98251 2.5566,-31.14465 l -5.7832,0 c -4.0879,21.43759 -16.17388,24.67783 -33.53723,24.67783 -15.99615,0 -19.22272,-4.25198 -19.22272,-12.08599 l 0,-40.50991 12.93364,0 c 14.80669,0 19.05866,3.40431 19.05866,16.85748 l 5.7969,0 c -0.13738,-6.80862 -0.27345,-13.27544 -0.27345,-21.27352 0,-5.45509 0.13738,-11.74417 0.27345,-18.38874 l -5.7969,0 c -1.18946,10.73247 -3.40431,16.33796 -18.8946,16.33796 l -13.0977,0 0,-49.19158 14.80669,0 c 20.42585,0 27.74036,5.79688 30.46106,22.13484 l 5.4414,0 -0.6836,-28.60167 c -15.81841,0.17777 -36.75014,0.51958 -62.79515,0.51958 -8.68167,0 -17.02156,-0.34181 -22.80476,-0.51958 l 0,5.1133 c 11.06057,0.16403 14.12309,4.25197 14.12309,13.7813 l 0,83.39875 c 0,9.52933 -3.06252,13.61723 -14.12309,13.79497 l 0,5.09963 z m -86.54333,0 c 13.6173,-0.34181 19.4005,-0.50584 24.8419,-0.50584 5.4551,0 11.2384,0.16403 24.85559,0.50584 l 0,-5.09963 c -11.06059,-0.17777 -14.12309,-4.26564 -14.12309,-13.79497 l 0,-93.77574 14.97074,0 c 13.61725,0 22.64072,3.7461 23.66611,25.18368 l 6.28908,0 -0.95706,-33.70129 c -18.26569,0.17777 -36.49038,0.68362 -54.70137,0.51958 -18.211,-0.13738 -36.422,-0.41017 -54.633,-0.54689 l -0.9571,33.70129 6.2891,0 c 0.9571,-21.43757 10.0489,-25.18368 23.6661,-25.18368 l 14.9708,0 0,93.77574 c -0.054,9.55667 -3.1172,13.64458 -14.1778,13.82232 l 0,5.09962 z"></path>
</svg>
