<?xml version="1.0"?>
<!--?xml version="1.0" encoding="UTF-8" standalone="no"?-->
<svg xmlns="http://www.w3.org/2000/svg" height="95" width="333" viewBox="0 0 333 95">
<path d="m 314.89,58.474 c -2.38,0 -4.26,-0.549 -5.81,-2.046 l 1.38,-1.381 c 1.12,1.181 2.65,1.642 4.4,1.642 2.34,0 3.77,-0.835 3.77,-2.505 0,-1.235 -0.71,-1.926 -2.35,-2.071 l -2.34,-0.2 c -2.76,-0.231 -4.23,-1.468 -4.23,-3.799 0,-2.59 2.19,-4.145 5.21,-4.145 2.02,0 3.83,0.49 5.1,1.525 l -1.36,1.353 c -1.01,-0.776 -2.3,-1.122 -3.77,-1.122 -2.07,0 -3.16,0.892 -3.16,2.33 0,1.21 0.69,1.928 2.47,2.072 l 2.28,0.202 c 2.47,0.231 4.17,1.179 4.17,3.827 0,2.735 -2.33,4.318 -5.76,4.318 z m -10.26,-0.173 -4.49,-7.251 -2.77,3.165 v 4.086 H 295.3 V 37.81 h 2.07 v 13.698 l 6.39,-7.366 h 2.59 l -4.8,5.41 5.64,8.749 z M 291.39,46.846 c -0.77,-0.776 -1.35,-1.036 -2.45,-1.036 -2.07,0 -3.39,1.641 -3.39,3.798 V 58.3 h -2.07 V 44.142 h 2.07 v 1.726 c 0.77,-1.179 2.33,-1.9 3.97,-1.9 1.35,0 2.39,0.317 3.4,1.323 z m -13.78,10.015 c -0.98,0.976 -2.33,1.612 -4.06,1.612 -1.73,0 -3.08,-0.636 -4.06,-1.612 -1.43,-1.467 -1.72,-3.453 -1.72,-5.641 0,-2.187 0.29,-4.172 1.72,-5.64 0.98,-0.978 2.33,-1.612 4.06,-1.612 1.73,0 3.08,0.635 4.06,1.612 1.44,1.468 1.73,3.454 1.73,5.64 0,2.188 -0.29,4.175 -1.73,5.641 z m -1.47,-10.015 c -0.66,-0.661 -1.58,-1.036 -2.59,-1.036 -1,0 -1.9,0.375 -2.56,1.036 -1.03,1.036 -1.15,2.792 -1.15,4.375 0,1.582 0.12,3.34 1.15,4.374 0.66,0.662 1.56,1.035 2.56,1.035 1.01,0 1.93,-0.373 2.59,-1.035 1.04,-1.034 1.12,-2.792 1.12,-4.374 0,-1.582 -0.1,-3.339 -1.12,-4.375 z m -14.55,11.455 h -1.93 l -3.71,-10.994 -3.68,10.994 h -1.93 l -4.49,-14.159 h 2.24 l 3.26,11.368 3.71,-11.368 h 1.78 l 3.74,11.368 3.23,-11.368 h 2.24 z m -18.76,0 c -2.42,0 -3.63,-1.7 -3.63,-3.799 v -8.691 h -1.78 v -1.583 h 1.78 v -4.432 h 2.08 v 4.432 h 3.02 v 1.583 h -3.02 v 8.634 c 0,1.295 0.6,2.069 1.92,2.069 h 1.1 v 1.787 z M 225.2,51.769 c 0,3.107 1.47,4.891 4.17,4.891 1.64,0 2.59,-0.488 3.71,-1.612 l 1.41,1.239 c -1.44,1.438 -2.76,2.188 -5.18,2.188 -3.74,0 -6.19,-2.246 -6.19,-7.253 0,-4.575 2.22,-7.252 5.82,-7.252 3.65,0 5.81,2.648 5.81,6.85 v 0.95 h -9.55 z m 7.05,-3.915 c -0.55,-1.295 -1.82,-2.129 -3.31,-2.129 -1.5,0 -2.77,0.834 -3.31,2.129 -0.32,0.776 -0.38,1.21 -0.43,2.36 h 7.48 c -0.1,-1.151 -0.12,-1.584 -0.43,-2.36 z m -14.79,10.447 v -8.72 c 0,-2.505 -1.36,-3.771 -3.48,-3.771 -2.14,0 -3.52,1.295 -3.52,3.771 v 8.72 h -2.07 V 44.142 h 2.07 v 1.553 c 1.01,-1.152 2.39,-1.727 3.97,-1.727 1.53,0 2.77,0.461 3.63,1.323 1.01,0.98 1.47,2.304 1.47,3.943 V 58.3 h -2.07 z m -22.33,-5.897 c 0,1.88 1.15,3.254 3.2,3.254 1.6,0 2.38,-0.448 3.31,-1.374 l 2.22,2.16 c -1.49,1.487 -2.92,2.301 -5.56,2.301 -3.45,0 -6.76,-1.571 -6.76,-7.491 0,-4.771 2.58,-7.465 6.37,-7.465 4.06,0 6.37,2.975 6.37,6.989 v 1.627 h -9.15 z m 5.22,-4.07 c -0.4,-0.869 -1.21,-1.515 -2.44,-1.515 -1.24,0 -2.05,0.646 -2.44,1.515 -0.23,0.533 -0.31,0.927 -0.34,1.572 h 5.56 c 0,-0.645 -0.12,-1.039 -0.34,-1.572 z m -18.32,15.771 c -2.25,0 -3.79,-0.449 -5.31,-1.907 L 179,59.895 c 0.81,0.786 1.62,1.123 2.86,1.123 2.19,0 2.94,-1.544 2.94,-3.031 v -1.486 c -0.95,1.066 -2.05,1.46 -3.48,1.46 -1.43,0 -2.66,-0.478 -3.48,-1.292 -1.37,-1.375 -1.48,-3.255 -1.48,-5.808 0,-2.555 0.11,-4.408 1.48,-5.783 0.82,-0.813 2.08,-1.29 3.51,-1.29 1.55,0 2.56,0.421 3.56,1.543 v -1.375 h 3.54 v 14.087 c 0,3.509 -2.49,6.062 -6.42,6.062 z m 0.36,-17.034 c -2.16,0 -2.38,1.854 -2.38,3.79 0,1.934 0.22,3.814 2.38,3.814 2.16,0 2.42,-1.88 2.42,-3.814 0,-1.936 -0.26,-3.79 -2.42,-3.79 z m -12.62,11.506 v -1.263 c -0.98,0.983 -1.91,1.403 -3.59,1.403 -1.66,0 -2.87,-0.42 -3.73,-1.291 -0.79,-0.813 -1.21,-1.992 -1.21,-3.283 0,-2.33 1.6,-4.237 4.99,-4.237 h 3.45 v -0.73 c 0,-1.6 -0.78,-2.301 -2.72,-2.301 -1.4,0 -2.05,0.338 -2.8,1.208 l -2.33,-2.273 c 1.43,-1.571 2.83,-2.02 5.27,-2.02 4.1,0 6.23,1.739 6.23,5.164 v 9.625 h -3.56 z m -0.1,-6.173 h -2.89 c -1.31,0 -2.04,0.616 -2.04,1.655 0,1.01 0.67,1.685 2.1,1.685 1.01,0 1.66,-0.09 2.3,-0.702 0.39,-0.366 0.53,-0.956 0.53,-1.854 z m -14.77,6.173 v -1.348 c -0.95,1.011 -2.3,1.516 -3.65,1.516 -1.46,0 -2.63,-0.478 -3.45,-1.291 -1.18,-1.178 -1.49,-2.554 -1.49,-4.151 v -9.346 h 3.65 v 8.839 c 0,1.994 1.27,2.666 2.42,2.666 1.15,0 2.44,-0.672 2.44,-2.666 v -8.839 h 3.65 v 14.62 z m -15.71,0 v -8.84 c 0,-1.992 -1.26,-2.666 -2.41,-2.666 -1.15,0 -2.44,0.674 -2.44,2.666 v 8.84 h -3.65 v -14.62 h 3.56 v 1.347 c 0.96,-1.01 2.3,-1.515 3.65,-1.515 1.46,0 2.64,0.477 3.45,1.29 1.18,1.179 1.49,2.554 1.49,4.154 v 9.345 h -3.65 z m -75.338,5.277 h 4.224 v 4.227 h -4.224 z m -7.407,7.406 h 4.221 v 4.227 h -4.221 z m 7.407,0 h 4.224 v 4.227 H 63.852 Z M 41.629,63.854 h 4.221 v 4.227 h -4.221 z m 7.409,0 h 4.22 v 4.227 h -4.22 z m 59.262,0 h 4.22 v 4.227 h -4.22 z m -7.41,0 h 4.22 v 4.227 h -4.22 z m 7.41,-29.629 h 4.22 v 4.224 h -4.22 z m -7.41,0 h 4.22 v 4.224 h -4.22 z m -7.409,0 h 4.223 v 4.224 h -4.223 z m -7.41,0 h 4.225 v 4.224 h -4.225 z m -7.402,0 h 4.221 v 4.224 h -4.221 z m -7.408,0 h 4.221 v 4.224 h -4.221 z m 44.449,22.22 h 4.22 v 4.228 h -4.22 z m -7.41,0 h 4.22 v 4.228 H 108.3 Z M 86.071,49.037 h 4.225 v 4.229 h -4.225 z m 7.41,0 h 4.223 v 4.229 h -4.223 z m 7.409,7.408 h 4.22 v 4.228 h -4.22 z m -7.409,0 h 4.223 v 4.228 h -4.223 z m -22.22,-7.408 h 4.221 v 4.229 h -4.221 z m 7.408,0 h 4.221 v 4.229 h -4.221 z m -7.408,-7.404 h 4.221 v 4.221 h -4.221 z m 7.408,0 h 4.221 v 4.221 h -4.221 z m 7.402,0 h 4.225 v 4.221 h -4.225 z m 7.41,0 h 4.223 v 4.221 h -4.223 z m -7.41,14.812 h 4.225 v 4.228 h -4.225 z m -7.402,0 h 4.221 v 4.228 h -4.221 z m 37.041,-7.408 h 4.22 v 4.229 h -4.22 z m -44.449,7.408 h 4.221 v 4.228 h -4.221 z m 29.629,-7.408 h 4.22 v 4.229 h -4.22 z m 7.41,0 h 4.22 v 4.229 h -4.22 z m -7.41,-7.404 h 4.22 v 4.221 h -4.22 z m 7.41,0 h 4.22 v 4.221 h -4.22 z m 7.41,0 h 4.22 v 4.221 h -4.22 z M 93.481,63.854 h 4.223 v 4.227 h -4.223 z m -14.812,0 h 4.221 v 4.227 h -4.221 z m 0,7.406 h 4.221 v 4.227 h -4.221 z m 7.402,0 h 4.225 v 4.227 h -4.225 z m -14.81,-7.406 h 4.221 v 4.227 h -4.221 z m 14.81,0 h 4.225 v 4.227 h -4.225 z m 0,-37.039 h 4.225 v 4.227 h -4.225 z m 0,-7.404 h 4.225 v 4.224 H 86.071 Z M 12,56.445 h 4.221 v 4.228 H 12 Z m 7.406,0 h 4.221 v 4.228 h -4.221 z m 7.407,7.409 h 4.225 v 4.227 h -4.225 z m -7.407,0 h 4.221 v 4.227 h -4.221 z m 7.407,-14.817 h 4.225 v 4.229 h -4.225 z m 7.408,14.817 h 4.227 v 4.227 h -4.227 z m 0,-14.817 h 4.227 v 4.229 h -4.227 z m -7.408,7.408 h 4.225 v 4.228 h -4.225 z m 7.408,0 h 4.227 v 4.228 H 34.221 Z M 12,49.037 h 4.221 v 4.229 H 12 Z m 7.406,0 h 4.221 v 4.229 H 19.406 Z M 12,41.633 h 4.221 v 4.221 H 12 Z m 7.406,0 h 4.221 v 4.221 h -4.221 z m 14.815,-7.408 h 4.227 v 4.224 h -4.227 z m -7.408,7.408 h 4.225 v 4.221 H 26.813 Z M 41.629,71.26 h 4.221 v 4.227 H 41.629 Z M 34.221,41.633 h 4.227 v 4.221 h -4.227 z m -7.408,-7.408 h 4.225 v 4.224 h -4.225 z m 14.816,22.22 h 4.221 v 4.228 h -4.221 z m 7.409,0 h 4.22 v 4.228 h -4.22 z m 7.407,-7.408 h 4.221 v 4.229 h -4.221 z m 7.407,0 h 4.224 v 4.229 h -4.224 z m -7.407,7.408 h 4.221 v 4.228 h -4.221 z m 0,7.409 h 4.221 v 4.227 h -4.221 z m 7.407,-7.409 h 4.224 v 4.228 H 63.852 Z M 41.629,49.037 h 4.221 v 4.229 h -4.221 z m 7.409,0 h 4.22 v 4.229 h -4.22 z m -7.409,-7.404 h 4.221 v 4.221 h -4.221 z m 7.409,29.742 h 4.22 v 4.22 h -4.22 z m 0,-29.742 h 4.22 v 4.221 h -4.22 z M 71.261,71.26 h 4.221 v 4.227 h -4.221 z m -7.409,7.41 h 4.224 v 4.225 h -4.224 z m -14.814,0 h 4.22 v 4.225 h -4.22 z m 7.407,0 h 4.221 v 4.225 h -4.221 z m 7.407,-44.445 h 4.224 v 4.224 h -4.224 z m -7.407,7.408 h 4.221 v 4.221 h -4.221 z m 7.407,0 h 4.224 v 4.221 H 63.852 Z M 41.629,34.225 h 4.221 v 4.224 h -4.221 z m -7.408,-7.41 h 4.227 v 4.227 h -4.227 z m 14.817,7.41 h 4.22 v 4.224 h -4.22 z m -7.409,-7.41 h 4.221 v 4.227 h -4.221 z m -7.408,-7.404 h 4.227 v 4.224 h -4.227 z m 14.817,7.404 h 4.22 v 4.227 h -4.22 z M 56.445,12 h 4.221 v 4.228 h -4.221 z m 22.224,7.411 h 4.221 v 4.224 h -4.221 z m -7.408,7.404 h 4.221 v 4.227 h -4.221 z m 22.22,0 h 4.223 v 4.227 h -4.223 z m -14.812,0 h 4.221 v 4.227 H 78.669 Z M 56.445,19.411 h 4.221 v 4.224 h -4.221 z m 7.407,0 h 4.224 v 4.224 h -4.224 z m -7.407,7.404 h 4.221 v 4.227 h -4.221 z m 0,7.41 h 4.221 v 4.224 h -4.221 z m 7.407,-7.41 h 4.224 v 4.227 H 63.852 Z M 41.629,19.411 h 4.221 v 4.224 h -4.221 z m 7.409,0 h 4.22 v 4.224 h -4.22 z M 41.629,12 h 4.221 v 4.228 h -4.221 z m 7.409,0 h 4.22 v 4.228 h -4.22 z"></path>
</svg>