<?xml version="1.0"?>

<svg xmlns="http://www.w3.org/2000/svg" viewBox="0 0 1050 323" width="1050" height="323">
  <path d="m 997.5,163.1 5.5,22.5 h -40.2 v 14.8 h 36.7 l -6.1,22.5 h -30.6 v 17.7 h 43.2 l -6,22.4 h -63.1 v -99.9 h 60.6 M 841,263 v -74.4 h 25.8 V 263 Z m -4.8,-77.4 5.5,-22.5 H 890 c 10.2,0 17.7,2.4 22.4,7.2 5.5,4.8 8.2,11 8.2,18.5 0,11.8 -7.5,22.4 -21.8,31.6 4.8,8.6 8.9,15.4 12.3,20.8 3.4,4.8 8.8,12.3 17,21.8 l -22.5,15 c -8.1,-9.5 -15.6,-19.8 -21.8,-31.3 -6.8,-11.6 -12.2,-21.8 -16.3,-30.9 0.7,0 2.7,-1.8 7.5,-5.2 4.8,-3.5 8.8,-6.7 11.6,-9.8 2.7,-3 4.1,-6 4.1,-8.9 0,-2.9 -0.7,-4.6 -2.8,-5.2 -2,-0.7 -5.4,-1.1 -9.5,-1.1 h -42.2 m -82.3,91 c -4.1,-6.1 -8.2,-13.6 -10.9,-21.8 -3.4,-8.1 -4.8,-17.6 -4.8,-27.2 0,-9.9 2,-19.5 5.4,-29 3.4,-9.5 9.6,-17.5 18.4,-23.9 3.4,-2.7 7.5,-5.1 11.6,-6.8 4.1,-1.8 8.8,-3 13.6,-3.8 4.8,-0.7 10.9,-1 17.7,-1 h 12.9 l 6.2,22.5 h -20.5 c -8.8,0 -16.3,1.7 -22.4,4.9 -6.1,3.2 -10.9,9.3 -13.6,18.3 h 25.8 v -20.2 h 26.6 V 263 h -26.6 v -32 h -28.6 c 0,5.5 1.4,10.9 3.4,16.4 1.4,6.1 4.1,10.8 6.9,15.6 l -21.1,13.6 M 735.5,163.1 710.3,263 h -28.6 l -11.6,-58.3 h -0.6 L 657.9,263 h -28.6 l -25.2,-99.9 h 28.6 l 11.6,63.2 v 0 l 12.2,-63.2 h 26.6 l 12.9,62.5 h 0.7 l 10.2,-62.5 h 28.6 m -135.5,0 5.5,22.5 H 578.3 V 263 h -26.6 v -77.4 h -27.9 l 6.1,-22.5 H 600 m -141.5,93.1 v -93.1 h 59.2 l 6.1,22.5 h -39.5 v 16 h 35.4 l -6.1,22.4 h -29.3 v 24.7 c 0,6.1 0.7,10.9 2.1,14.3 l -23.8,15 c -1.4,-2.7 -2.8,-6.1 -3.4,-9.5 -0.7,-4.1 -0.7,-8.2 -0.7,-12.3 m -78.3,-53.4 c 0,8.8 2.1,17.2 5.5,25.5 3.4,7.5 7.4,11.6 11.5,11.6 3.4,0 6.8,-2.1 8.9,-6.2 2.7,-4 4.7,-8.8 6.1,-14.9 1.4,-5.9 2,-11.3 2,-16 0,-12.4 -5.4,-18.6 -17,-18.6 -5.4,0 -9.5,1.4 -12.9,4.4 -2.7,2.9 -4.1,7.6 -4.1,14.2 z m -27.9,-1.9 c 0,-13.2 3.4,-23.2 10.2,-29.9 7.5,-6.7 19.1,-10.1 34.7,-10.1 15,0 25.9,3.2 34.1,9.4 7.4,6.3 11.5,16.4 11.5,30.4 0,7.2 -1.3,14.5 -3.4,22 -2,7.6 -4.7,14.5 -8.1,20.6 -4.1,6.8 -8.9,11.5 -14.3,15.6 -5.5,4.1 -12.3,6.2 -19.8,6.2 -6.8,0 -12.9,-2.1 -18.3,-5.5 -5.5,-3.4 -10.3,-8.2 -14.3,-14.3 -4.1,-6.1 -7.5,-12.9 -9.6,-20.4 -2,-8 -2.7,-15.9 -2.7,-24 m -72.1,39.7 h 23.1 c 3.4,0 6.1,-0.7 7.5,-0.7 2,-0.7 2.7,-1.4 2.7,-2.7 -0.2,-2.2 -1.2,-3.3 -2.7,-4.8 l -2.1,-2.1 -17,-20.2 c -4.6,-4.5 -8.4,-9.6 -10.9,-14.8 -1.3,-2.9 -2,-6 -2,-9.1 0,-6.8 2.7,-12.3 7.5,-16.6 4.1,-4.3 10.9,-6.5 19.7,-6.5 h 27.9 l 6.2,22.5 h -21.8 c -3.4,0 -6.1,0 -7.5,0.7 -1.4,0.7 -2.1,1.4 -2.1,2.9 0,0.9 0,1.6 0.7,2.3 0,0.7 1.4,2.1 3.4,4.5 l 18.4,20.2 c 3.4,3.9 6.8,7.7 8.9,11.5 2,3.4 3.4,7.5 3.4,12.2 -1.9,17 -12.1,23 -27.3,23.2 h -30.6 l -5.4,-22.5 M 801.5,121.4 h 23.8 c 3.4,0 5.5,0 7.5,-0.7 1.4,0 2,-1.3 2,-2.7 0,-0.9 0,-1.7 -0.6,-2.5 -0.7,-0.8 -1.4,-1.6 -2.1,-2.4 -0.7,-0.8 -1.3,-1.5 -2,-2.1 l -17,-19.97 c -2.8,-2.93 -4.8,-5.38 -6.8,-7.42 -1.4,-2.04 -2.8,-4.49 -4.1,-7.42 -1.4,-2.92 -2.1,-5.99 -2.1,-9.19 0,-6.73 2.8,-12.25 7.5,-16.53 4.8,-4.29 10.9,-6.47 19.8,-6.47 h 27.9 l 6.1,22.53 h -21.8 c -3.4,0 -6.1,0 -7.5,0.68 -1.3,0.68 -2,1.36 -2,2.79 0,0.95 0,1.7 0.7,2.31 0,0.68 1.3,2.18 3.4,4.56 l 18.3,20.22 c 4.1,3.91 6.8,7.71 8.9,11.31 2.7,3.7 3.4,7.9 3.4,12.7 0,5.2 -1.4,9.4 -3.4,12.7 -2.7,3.3 -5.5,5.8 -9.5,7.5 -4.1,1.6 -8.9,2.5 -14.3,2.5 h -30 l -6.1,-22.5 m -98,-18.4 c 0,-9.63 2,-19.02 4.8,-28.27 2.7,-9.33 7.4,-19.47 12.9,-30.49 h 27.9 c 0,0.68 -1.4,3.4 -4.1,8.57 -2,5.17 -4.8,10.48 -6.8,15.93 -2,5.44 -4.1,11.09 -5.4,17.08 -1.4,5.92 -2.1,11.5 -2.1,16.68 0,6.7 1.4,11.6 4.8,14.6 3.4,2.9 8.1,4.4 14.3,4.4 h 9.5 V 44.14 h 26.5 v 99.66 h -42.2 c -14.2,0 -23.8,-3.7 -30.6,-11.1 -6.1,-7.4 -9.5,-17.4 -9.5,-29.8 m -16.3,-58.76 6.1,22.52 h -40.2 v 14.77 h 36.8 l -6.1,22.37 h -30.7 v 17.6 H 696 l -6.1,22.4 H 627.3 V 44.14 h 59.9 m -103.5,0 v 77.26 h 34 l -6.1,22.4 H 557.2 V 44.14 h 26.5 M 477.5,83.13 c 0,-13.34 3.4,-23.14 10.9,-29.47 7.5,-6.39 17,-9.52 28.6,-9.52 h 20.4 l 6.2,22.52 h -20.5 c -6.1,0 -10.9,1.43 -14.3,4.36 -2.7,2.86 -4.7,7.69 -4.7,14.43 0,5.78 1.3,11.43 4.1,16.95 2.7,5.5 6.8,10.1 12.9,13.7 5.4,3.6 12.2,5.5 20.4,5.6 h 3.4 l -6.1,22.4 H 534 c -10.9,0 -20.4,-2.9 -29.2,-8.6 -8.9,-5.8 -15.7,-13.4 -20.5,-22.7 -4.7,-9.4 -6.8,-19.18 -6.8,-29.39 m -96.6,19.49 c 0,-9.63 1.4,-19.02 4.1,-28.27 3.4,-9.33 7.5,-19.47 12.9,-30.49 h 27.9 c 0,0.68 -1.4,3.4 -4.1,8.57 -2,5.17 -4.1,10.48 -6.8,15.93 -2,5.44 -3.4,11.09 -5.4,17.08 -1.4,5.92 -2.1,11.5 -2.1,16.68 0,6.7 2.1,11.6 5.5,14.6 2.7,2.9 7.5,4.4 13.6,4.4 H 436 V 44.14 h 26.6 v 99.66 h -42.2 c -13.6,0 -23.9,-3.7 -30,-11.1 -6.8,-7.4 -9.5,-17.4 -9.5,-29.8 M 364.6,44.14 V 143.8 H 338.7 V 114.6 L 311.5,80.96 h -0.7 V 143.8 H 284.9 V 44.14 h 24.5 l 29.3,34.03 V 44.14 h 25.9 M 239.3,161.1 C 239.3,97.63 188.3,45.36 123.6,45.84 93,45.84 65.1,57.82 44,78.57 v 0 -0.68 0 C 67.14,54.07 94.36,44.61 123.6,44.34 189,43.66 240.7,96.61 240.7,160.9 v 0 c 0,64.4 -51.1,118.2 -117.1,117.5 -29.24,-0.7 -56.46,-10.2 -79.6,-34 v 0 0 0 c 21.1,20.4 49,32 79.6,32.6 64.7,0.7 115.7,-52.4 115.7,-115.7 v -0.6 0 z m 0,0 C 239.3,97.63 188.3,45.36 123.6,45.84 93,45.84 65.1,57.82 44,78.57 v 0 -0.68 0 C 67.14,54.07 94.36,44.61 123.6,44.34 189,43.66 240.7,96.61 240.7,160.9 v 0 c 0,64.4 -51.1,118.2 -117.1,117.5 -29.24,-0.7 -56.46,-10.2 -79.6,-34 v 0 0 0 c 21.1,20.4 49,32 79.6,32.6 64.7,0.7 115.7,-52.4 115.7,-115.7 v -0.6 0 M 44,84.9 c 17.7,-17.01 42.2,-27.63 68.7,-27.63 55.8,0 100.8,46.73 100.8,104.33 0,57.7 -45,104.1 -100.8,104.1 -26.5,0 -51,-10.2 -68.7,-27.2 17.7,16.3 41.52,25.9 67.4,25.9 55.1,0 100.7,-45.9 100.7,-102.7 C 212.1,105 166.5,59.04 111.4,59.04 85.52,59.04 61.7,68.71 44,84.9 Z m 0,0 c 17.7,-17.01 42.2,-27.63 68.7,-27.63 55.8,0 100.8,46.73 100.8,104.33 0,57.7 -45,104.1 -100.8,104.1 -26.5,0 -51,-10.2 -68.7,-27.2 17.7,16.3 41.52,25.9 67.4,25.9 55.1,0 100.7,-45.9 100.7,-102.7 C 212.1,105 166.5,59.04 111.4,59.04 85.52,59.04 61.7,68.71 44,84.9 v 0 m 0,4.43 v -0.68 c 16.33,-13 38.11,-21.24 59.9,-19.54 49,2.93 87.8,43.79 87.1,91.29 0.7,48 -36.1,90.2 -87.1,92.2 -23.83,0.7 -43.57,-6.8 -59.9,-19.7 v -0.7 c 17.7,12.2 36.07,19.7 58.5,19 49,-2.7 83.7,-40.2 85.8,-90.9 -0.7,-45.5 -38.8,-85.2 -84.4,-89.08 -23.15,-1.9 -42.2,6.2 -59.9,17.9 v 0 z m 0,0 v -0.68 c 16.33,-13 38.11,-21.24 59.9,-19.54 49,2.93 87.8,43.79 87.1,91.29 0.7,48 -36.1,90.2 -87.1,92.2 -23.83,0.7 -43.57,-6.8 -59.9,-19.7 v -0.7 c 17.7,12.2 36.07,19.7 58.5,19 49,-2.7 83.7,-40.2 85.8,-90.9 -0.7,-45.5 -38.8,-85.2 -84.4,-89.08 -23.15,-1.9 -42.2,6.2 -59.9,17.9 v 0 m 0,5.38 v -0.75 c 12.93,-10.34 30.63,-14.7 49.68,-14.02 40.82,1.43 75.52,37.87 74.82,80.97 0,42.4 -32.6,79.2 -75.5,80.5 -18.37,1.4 -33.35,-2 -49,-14.3 v -0.6 c 15.65,9.5 29.27,13.6 47.64,12.2 41.56,-3.4 72.86,-36.4 72.86,-77.7 C 165.1,117.9 129.8,84.29 93,81.91 73.95,80.68 58.29,85.52 44,94.5 Z m 0,0 v -0.75 c 12.93,-10.34 30.63,-14.7 49.68,-14.02 40.82,1.43 75.52,37.87 74.82,80.97 0,42.4 -32.6,79.2 -75.5,80.5 -18.37,1.4 -33.35,-2 -49,-14.3 v -0.6 c 15.65,9.5 29.27,13.6 47.64,12.2 41.56,-3.4 72.86,-36.4 72.86,-77.7 C 165.1,117.9 129.8,84.29 93,81.91 73.95,80.68 58.29,85.52 44,94.5 v 0 m 0,7.1 v -1.72 c 11.57,-8.1 25.86,-10.69 41.52,-9.46 33.38,2.65 63.98,32.68 63.28,70.38 0,37.2 -26.5,66.8 -63.96,70.9 C 71.22,232.4 57.61,231 44,222 v -1.5 c 13.61,7.8 25.18,9.2 40.15,8.5 36.05,-5.7 59.25,-33.8 59.25,-68.3 C 142.7,123.2 115.5,97.36 84.84,93.75 69.18,92.12 55.57,94.91 44,101.6 Z m 0,0 v -1.72 c 11.57,-8.1 25.86,-10.69 41.52,-9.46 33.38,2.65 63.98,32.68 63.28,70.38 0,37.2 -26.5,66.8 -63.96,70.9 C 71.22,232.4 57.61,231 44,222 v -1.5 c 13.61,7.8 25.18,9.2 40.15,8.5 36.05,-5.7 59.25,-33.8 59.25,-68.3 C 142.7,123.2 115.5,97.36 84.84,93.75 69.18,92.12 55.57,94.91 44,101.6 v 0 m 0,7.3 v -3.1 C 54.89,99.33 65.78,98.17 78.03,99.94 105.3,104 129.8,128 129.8,161.3 c -0.7,31.8 -21.8,56 -52.45,61 -10.21,1.4 -22.46,0.9 -33.35,-5.2 v -3.4 c 8.85,4.3 23.14,5.5 32.67,3.6 28.63,-6.1 45.63,-28.1 46.23,-56.3 0.7,-31.1 -23.77,-52.3 -45.55,-56.1 -10.89,-2.4 -24.5,-0.7 -33.35,4 z m 0,0 v -3.1 C 54.89,99.33 65.78,98.17 78.03,99.94 105.3,104 129.8,128 129.8,161.3 c -0.7,31.8 -21.8,56 -52.45,61 -10.21,1.4 -22.46,0.9 -33.35,-5.2 v -3.4 c 8.85,4.3 23.14,5.5 32.67,3.6 28.63,-6.1 45.63,-28.1 46.23,-56.3 0.7,-31.1 -23.77,-52.3 -45.55,-56.1 -10.89,-2.4 -24.5,-0.7 -33.35,4 v 0 m 0,7.2 v -3.2 c 6.13,-3.4 18.38,-4.7 27.22,-2.6 21.78,5 41.48,23.5 41.48,50.6 -0.6,25.8 -16.98,46.7 -41.48,50.8 -7.48,1.2 -18.37,2 -27.22,-2.2 v -4.1 c 6.81,3.2 19.74,2 25.86,0 21.78,-7.3 32.64,-23.2 34.04,-44.7 0,-25.4 -17.7,-39.6 -33.36,-45 -6.8,-2 -19.73,-3.3 -26.54,0 v 0 z m 0,0 v -3.2 c 6.13,-3.4 18.38,-4.7 27.22,-2.6 21.78,5 41.48,23.5 41.48,50.6 -0.6,25.8 -16.98,46.7 -41.48,50.8 -7.48,1.2 -18.37,2 -27.22,-2.2 v -4.1 c 6.81,3.2 19.74,2 25.86,0 21.78,-7.3 32.64,-23.2 34.04,-44.7 0,-25.4 -17.7,-39.6 -33.36,-45 -6.8,-2 -19.73,-3.3 -26.54,0 v 0 m 0,10 v -6.2 c 6.13,-1.7 14.29,0 19.74,1.8 12.93,4.4 27.9,17.6 28.58,38.9 -0.68,21 -10.89,33.9 -27.9,40.5 -5.45,2 -15.66,3.7 -20.42,1.1 V 196 c 4.08,1.7 14.29,0 17.7,-2.7 12.25,-6.6 19.05,-18.2 19.73,-32 0,-16.1 -10.21,-27.9 -19.73,-32.2 -2.73,-2 -12.94,-4.4 -17.7,-3.4 z m 0,0 v -6.2 c 6.13,-1.7 14.29,0 19.74,1.8 12.93,4.4 27.9,17.6 28.58,38.9 -0.68,21 -10.89,33.9 -27.9,40.5 -5.45,2 -15.66,3.7 -20.42,1.1 V 196 c 4.08,1.7 14.29,0 17.7,-2.7 12.25,-6.6 19.05,-18.2 19.73,-32 0,-16.1 -10.21,-27.9 -19.73,-32.2 -2.73,-2 -12.94,-4.4 -17.7,-3.4 v 0 m 0,7.7 v 55.8 C 61.01,187.7 71.22,176 71.22,160 70.54,144.3 57.61,132.4 44,133.4 Z m 0,0 v 55.8 C 61.01,187.7 71.22,176 71.22,160 70.54,144.3 57.61,132.4 44,133.4 v 0"></path>
</svg>
