<?xml version="1.0"?>

<!-- Generator: Adobe Illustrator 19.1.0, SVG Export Plug-In . SVG Version: 6.00 Build 0)  -->
<svg version="1.1" id="Layer_1" xmlns="http://www.w3.org/2000/svg" xmlns:xlink="http://www.w3.org/1999/xlink" x="0px" y="0px" width="420px" height="200px" viewBox="-89 0 420 200" enable-background="new -89 0 420 200" xml:space="preserve">
<path d="M-48.848,182.437v-11.133h1.666v1.592c0.799-1.238,1.974-1.843,3.481-1.843c0.662,0,1.25,0.12,1.826,0.354
	c0.548,0.251,0.964,0.553,1.227,0.973c0.285,0.371,0.479,0.847,0.588,1.378c0.068,0.351,0.103,0.976,0.103,1.84v6.839h-1.861v-6.768
	c0-0.759-0.057-1.338-0.211-1.723c-0.131-0.382-0.394-0.685-0.753-0.919c-0.371-0.228-0.799-0.337-1.307-0.337
	c-0.787,0-1.472,0.245-2.06,0.748c-0.553,0.536-0.839,1.506-0.839,2.933v6.066L-48.848,182.437L-48.848,182.437z"></path>
<path d="M-26.741,180.771l0.28,1.666c-0.519,0.111-1.004,0.148-1.415,0.148c-0.673,0-1.187-0.086-1.563-0.302
	c-0.371-0.228-0.616-0.525-0.788-0.859c-0.137-0.351-0.228-1.101-0.228-2.24v-6.403h-1.358v-1.478h1.358v-2.75l1.855-1.144v3.895
	h1.86v1.478h-1.86v6.528c0,0.536,0.034,0.87,0.091,1.013c0.063,0.162,0.171,0.285,0.337,0.388c0.137,0.068,0.337,0.123,0.622,0.123
	C-27.352,180.833-27.078,180.805-26.741,180.771"></path>
<path d="M-11.112,178.862l1.917,0.245c-0.303,1.144-0.873,2.034-1.683,2.651c-0.81,0.628-1.855,0.941-3.121,0.941
	c-1.603,0-2.876-0.496-3.812-1.501c-0.93-1.004-1.398-2.411-1.398-4.231c0-1.869,0.468-3.313,1.427-4.368
	c0.936-1.021,2.168-1.546,3.675-1.546c1.455,0,2.648,0.525,3.589,1.521c0.913,1.007,1.392,2.451,1.392,4.288
	c0,0.105,0,0.274-0.017,0.496h-8.16c0.068,1.25,0.399,2.163,1.027,2.822c0.616,0.654,1.364,0.979,2.288,0.979
	c0.685,0,1.255-0.205,1.729-0.551C-11.773,180.251-11.397,179.661-11.112,178.862 M-17.2,175.8h6.112
	c-0.08-0.924-0.308-1.632-0.702-2.091c-0.599-0.733-1.352-1.11-2.288-1.11c-0.856,0-1.581,0.297-2.157,0.89
	C-16.818,174.057-17.149,174.833-17.2,175.8"></path>
<path d="M-0.874,183.379l1.78,0.274c0.091,0.565,0.302,0.976,0.645,1.244c0.456,0.337,1.096,0.514,1.889,0.514
	c0.856,0,1.529-0.177,1.986-0.514c0.462-0.354,0.782-0.842,0.941-1.475c0.091-0.394,0.137-1.19,0.137-2.417
	c-0.81,0.959-1.826,1.432-3.03,1.432c-1.501,0-2.671-0.525-3.487-1.635c-0.833-1.099-1.232-2.451-1.232-3.986
	c0-1.067,0.177-2.043,0.548-2.95c0.394-0.89,0.947-1.581,1.643-2.083c0.725-0.479,1.563-0.73,2.545-0.73
	c1.29,0,2.357,0.531,3.207,1.598v-1.347h1.7v9.627c0,1.746-0.188,2.99-0.531,3.698c-0.342,0.73-0.884,1.318-1.638,1.712
	c-0.765,0.422-1.683,0.636-2.779,0.636c-1.312,0-2.357-0.299-3.161-0.887C-0.509,185.484-0.909,184.594-0.874,183.379
	 M0.655,176.679c0,1.461,0.291,2.545,0.844,3.201c0.571,0.676,1.295,1.004,2.157,1.004c0.845,0,1.558-0.328,2.146-1.004
	c0.565-0.656,0.85-1.715,0.85-3.144c0-1.358-0.302-2.391-0.89-3.081c-0.593-0.679-1.318-1.03-2.14-1.03s-1.524,0.334-2.106,1.03
	C0.946,174.331,0.655,175.335,0.655,176.679"></path>
<path d="M17.494,182.437v-11.133h1.661v1.689c0.434-0.788,0.827-1.318,1.198-1.564c0.354-0.251,0.748-0.377,1.193-0.377
	c0.611,0,1.25,0.194,1.883,0.605l-0.628,1.772c-0.451-0.294-0.896-0.436-1.352-0.436c-0.422,0-0.776,0.143-1.096,0.388
	c-0.337,0.245-0.553,0.593-0.696,1.038c-0.194,0.662-0.303,1.404-0.303,2.208v5.809h-1.86L17.494,182.437L17.494,182.437z"></path>
<path d="M38.009,181.073c-0.685,0.588-1.352,1.027-1.974,1.261c-0.639,0.251-1.324,0.365-2.054,0.365
	c-1.193,0-2.117-0.297-2.773-0.89c-0.645-0.593-0.959-1.358-0.959-2.305c0-0.528,0.108-1.021,0.359-1.495
	c0.245-0.448,0.571-0.81,0.953-1.061c0.388-0.291,0.844-0.496,1.347-0.622c0.342-0.103,0.907-0.217,1.643-0.294
	c1.495-0.18,2.596-0.402,3.31-0.653c0-0.251,0.011-0.405,0.011-0.485c0-0.759-0.183-1.33-0.536-1.632
	c-0.474-0.428-1.158-0.639-2.111-0.639c-0.867,0-1.512,0.154-1.934,0.457c-0.411,0.322-0.713,0.867-0.913,1.655l-1.815-0.254
	c0.165-0.77,0.439-1.418,0.81-1.906c0.382-0.488,0.924-0.865,1.638-1.124c0.725-0.271,1.541-0.396,2.488-0.396
	c0.942,0,1.683,0.105,2.277,0.342c0.565,0.211,1.01,0.514,1.284,0.833c0.274,0.345,0.468,0.765,0.576,1.295
	c0.068,0.325,0.091,0.913,0.091,1.746v2.505c0,1.778,0.046,2.876,0.126,3.315c0.074,0.491,0.234,0.936,0.468,1.347h-1.934
	C38.186,182.054,38.06,181.609,38.009,181.073 M37.86,176.862c-0.679,0.274-1.683,0.508-3.03,0.725
	c-0.776,0.094-1.301,0.223-1.615,0.371c-0.308,0.14-0.565,0.342-0.73,0.605c-0.183,0.274-0.28,0.571-0.28,0.907
	c0,0.496,0.2,0.913,0.582,1.253c0.377,0.334,0.919,0.511,1.638,0.511c0.713,0,1.352-0.16,1.9-0.479
	c0.559-0.32,0.976-0.753,1.227-1.301c0.2-0.428,0.308-1.073,0.308-1.906V176.862z"></path>
<path d="M52.982,180.771l0.257,1.666c-0.525,0.111-0.981,0.148-1.404,0.148c-0.673,0-1.187-0.086-1.552-0.302
	c-0.377-0.228-0.651-0.525-0.787-0.859c-0.148-0.351-0.234-1.101-0.234-2.24v-6.403h-1.347v-1.478h1.347v-2.75l1.849-1.144v3.895
	h1.872v1.478h-1.872v6.528c0,0.536,0.029,0.87,0.097,1.013c0.068,0.162,0.171,0.285,0.32,0.388c0.16,0.068,0.348,0.123,0.639,0.123
	C52.36,180.833,52.646,180.805,52.982,180.771"></path>
<path d="M68.606,178.862l1.906,0.245c-0.302,1.144-0.85,2.034-1.66,2.651c-0.822,0.628-1.872,0.941-3.15,0.941
	c-1.592,0-2.864-0.496-3.789-1.501c-0.947-1.004-1.41-2.411-1.41-4.231c0-1.869,0.462-3.313,1.41-4.368
	c0.959-1.021,2.191-1.546,3.703-1.546c1.455,0,2.648,0.525,3.572,1.521c0.93,1.007,1.387,2.451,1.387,4.288v0.496h-8.16
	c0.063,1.25,0.411,2.163,1.021,2.822c0.622,0.654,1.37,0.979,2.283,0.979c0.679,0,1.261-0.205,1.74-0.551
	C67.939,180.251,68.315,179.661,68.606,178.862 M62.512,175.8h6.106c-0.063-0.924-0.314-1.632-0.685-2.091
	c-0.599-0.733-1.364-1.11-2.305-1.11c-0.844,0-1.563,0.297-2.14,0.89C62.906,174.057,62.581,174.833,62.512,175.8"></path>
<path d="M86.279,182.437v-1.381c-0.69,1.099-1.729,1.643-3.07,1.643c-0.873,0-1.672-0.24-2.397-0.736
	c-0.73-0.482-1.29-1.158-1.7-2.029c-0.388-0.904-0.599-1.897-0.599-3.05c0-1.096,0.165-2.111,0.548-3.019
	c0.359-0.907,0.902-1.615,1.632-2.089c0.713-0.474,1.546-0.725,2.448-0.725c0.656,0,1.244,0.143,1.752,0.408
	c0.514,0.305,0.93,0.673,1.25,1.121v-5.512h1.849v15.367h-1.713V182.437z M80.413,176.885c0,1.424,0.297,2.499,0.89,3.207
	c0.593,0.713,1.278,1.067,2.088,1.067c0.822,0,1.501-0.354,2.071-1.01c0.565-0.679,0.839-1.715,0.839-3.099
	c0-1.535-0.285-2.656-0.867-3.364c-0.571-0.711-1.278-1.064-2.128-1.064c-0.827,0-1.518,0.354-2.066,1.033
	C80.692,174.331,80.413,175.412,80.413,176.885"></path>
<polygon points="118.046,182.437 118.046,168.867 113.076,168.867 113.076,167.07 125.054,167.07 125.054,168.867 120.032,168.867 
	120.032,182.437 "></polygon>
<path d="M138.321,178.862l1.929,0.245c-0.32,1.144-0.873,2.034-1.683,2.651c-0.833,0.628-1.86,0.941-3.121,0.941
	c-1.603,0-2.864-0.496-3.823-1.501c-0.941-1.004-1.398-2.411-1.398-4.231c0-1.869,0.479-3.313,1.398-4.368
	c0.964-1.021,2.18-1.546,3.715-1.546c1.455,0,2.637,0.525,3.578,1.521c0.913,1.007,1.387,2.451,1.387,4.288
	c0,0.105-0.011,0.274-0.011,0.496h-8.171c0.085,1.25,0.416,2.163,1.044,2.822c0.616,0.654,1.369,0.979,2.282,0.979
	c0.673,0,1.261-0.205,1.735-0.551C137.665,180.251,138.036,179.661,138.321,178.862 M132.244,175.8h6.1
	c-0.091-0.924-0.32-1.632-0.702-2.091c-0.593-0.733-1.358-1.11-2.294-1.11c-0.844,0-1.569,0.297-2.146,0.89
	C132.615,174.057,132.318,174.833,132.244,175.8"></path>
<path d="M156.034,178.365l1.815,0.248c-0.183,1.284-0.696,2.288-1.524,2.996c-0.805,0.725-1.826,1.09-3.013,1.09
	c-1.489,0-2.711-0.496-3.618-1.484c-0.902-1.007-1.364-2.428-1.364-4.291c0-1.213,0.194-2.265,0.588-3.167
	c0.388-0.907,0.981-1.581,1.797-2.031c0.782-0.445,1.66-0.673,2.602-0.673c1.181,0,2.146,0.302,2.916,0.907
	c0.753,0.622,1.232,1.478,1.444,2.639l-1.786,0.277c-0.188-0.742-0.485-1.312-0.924-1.7c-0.422-0.394-0.964-0.576-1.586-0.576
	c-0.924,0-1.683,0.337-2.277,1.027c-0.582,0.682-0.862,1.778-0.862,3.247c0,1.478,0.28,2.579,0.844,3.275
	c0.559,0.656,1.29,1.01,2.203,1.01c0.713,0,1.33-0.228,1.821-0.679C155.6,180.023,155.902,179.321,156.034,178.365"></path>
<path d="M165.774,182.437V167.07h1.86v5.512c0.862-1.004,1.952-1.529,3.27-1.529c0.799,0,1.507,0.163,2.106,0.479
	c0.611,0.328,1.016,0.787,1.29,1.364c0.245,0.559,0.377,1.409,0.377,2.488v7.053h-1.849v-7.053c0-0.939-0.2-1.638-0.599-2.054
	c-0.417-0.434-0.964-0.656-1.718-0.656c-0.536,0-1.056,0.16-1.541,0.445c-0.474,0.283-0.816,0.679-1.021,1.187
	c-0.222,0.485-0.314,1.172-0.314,2.049v6.083L165.774,182.437L165.774,182.437z"></path>
<path d="M183.824,182.437v-11.133h1.683v1.592c0.805-1.238,1.957-1.843,3.469-1.843c0.65,0,1.272,0.12,1.826,0.354
	c0.531,0.251,0.959,0.553,1.227,0.973c0.285,0.371,0.485,0.847,0.588,1.378c0.063,0.351,0.091,0.976,0.091,1.84v6.839h-1.849v-6.768
	c0-0.759-0.08-1.338-0.223-1.723c-0.125-0.382-0.388-0.685-0.759-0.919c-0.365-0.228-0.799-0.337-1.295-0.337
	c-0.782,0-1.455,0.245-2.048,0.748c-0.571,0.536-0.862,1.506-0.862,2.933v6.066L183.824,182.437L183.824,182.437z"></path>
<path d="M201.194,176.885c0-2.066,0.571-3.598,1.689-4.599c0.936-0.825,2.088-1.233,3.452-1.233c1.501,0,2.722,0.502,3.686,1.512
	c0.942,0.999,1.415,2.377,1.415,4.16c0,1.444-0.194,2.554-0.628,3.372c-0.422,0.833-1.027,1.472-1.843,1.917
	c-0.805,0.459-1.683,0.685-2.631,0.685c-1.552,0-2.785-0.496-3.732-1.501C201.679,180.2,201.194,178.762,201.194,176.885
	 M203.094,176.885c0,1.424,0.302,2.499,0.919,3.207c0.622,0.713,1.398,1.067,2.322,1.067c0.902,0,1.695-0.354,2.305-1.084
	c0.593-0.69,0.89-1.792,0.89-3.258c0-1.387-0.297-2.431-0.89-3.13c-0.639-0.711-1.404-1.064-2.305-1.064
	c-0.924,0-1.7,0.354-2.322,1.05C203.396,174.38,203.094,175.449,203.094,176.885"></path>
<rect x="219.911" y="167.07" width="1.86" height="15.367"></rect>
<path d="M230.262,176.885c0-2.066,0.576-3.598,1.706-4.599c0.93-0.825,2.083-1.233,3.435-1.233c1.501,0,2.745,0.502,3.686,1.512
	c0.959,0.999,1.432,2.377,1.432,4.16c0,1.444-0.228,2.554-0.628,3.372c-0.434,0.833-1.056,1.472-1.849,1.917
	c-0.805,0.459-1.689,0.685-2.642,0.685c-1.541,0-2.785-0.496-3.732-1.501C230.753,180.2,230.262,178.762,230.262,176.885
	 M232.174,176.885c0,1.424,0.303,2.499,0.925,3.207c0.616,0.713,1.381,1.067,2.305,1.067c0.919,0,1.683-0.354,2.283-1.084
	c0.61-0.69,0.924-1.792,0.924-3.258c0-1.387-0.314-2.431-0.924-3.13c-0.611-0.711-1.364-1.064-2.283-1.064
	c-0.924,0-1.689,0.354-2.305,1.05C232.476,174.38,232.174,175.449,232.174,176.885"></path>
<path d="M248.688,183.379l1.792,0.274c0.086,0.565,0.28,0.976,0.628,1.244c0.462,0.337,1.09,0.514,1.889,0.514
	c0.85,0,1.529-0.177,1.98-0.514c0.468-0.354,0.788-0.842,0.942-1.475c0.103-0.394,0.148-1.19,0.148-2.417
	c-0.805,0.959-1.826,1.432-3.019,1.432c-1.518,0-2.682-0.525-3.509-1.635c-0.816-1.099-1.221-2.451-1.221-3.986
	c0-1.067,0.171-2.043,0.548-2.95c0.382-0.89,0.93-1.581,1.649-2.083c0.725-0.479,1.569-0.73,2.534-0.73
	c1.29,0,2.351,0.531,3.19,1.598v-1.347h1.712v9.627c0,1.746-0.177,2.99-0.508,3.698c-0.36,0.73-0.913,1.318-1.649,1.712
	c-0.753,0.422-1.678,0.636-2.796,0.636c-1.295,0-2.362-0.299-3.15-0.887C249.036,185.484,248.648,184.594,248.688,183.379
	 M250.217,176.679c0,1.461,0.28,2.545,0.845,3.201c0.565,0.676,1.284,1.004,2.14,1.004c0.867,0,1.575-0.328,2.163-1.004
	c0.554-0.656,0.862-1.715,0.862-3.144c0-1.358-0.308-2.391-0.896-3.081c-0.593-0.679-1.312-1.03-2.145-1.03
	c-0.839,0-1.518,0.334-2.111,1.03C250.497,174.331,250.217,175.335,250.217,176.679"></path>
<path d="M267.005,186.762l-0.228-1.778c0.417,0.105,0.776,0.162,1.073,0.162c0.411,0,0.742-0.074,0.987-0.211
	c0.245-0.126,0.462-0.334,0.616-0.614c0.108-0.16,0.291-0.636,0.548-1.392c0.051-0.094,0.097-0.254,0.194-0.456l-4.177-11.17h2.014
	l2.26,6.471c0.28,0.805,0.565,1.678,0.799,2.559c0.222-0.848,0.479-1.703,0.759-2.531l2.345-6.5h1.854l-4.16,11.327
	c-0.445,1.247-0.799,2.08-1.039,2.542c-0.331,0.63-0.708,1.076-1.13,1.355c-0.422,0.308-0.93,0.448-1.518,0.448
	C267.839,186.976,267.451,186.899,267.005,186.762"></path>
<path d="M110.913,57.536c12.759,0,20.88,5.584,18.084,12.428c-2.773,6.865-15.379,12.411-28.155,12.411
	c-12.771,0-20.868-5.546-18.084-12.411C85.543,63.119,98.154,57.536,110.913,57.536"></path>
<path d="M72.675,72.738c2.545-8.072,7.721-14.657,17.524-18.654c13.553-5.518,28.829-5.13,39.254-1.586
	c9.336,3.178,12.799,9.318,8.782,19.25c14.237-9.709,12.263-23.587-5.918-28.563c-10.026-2.75-22.626-2.591-34.974,0.685
	C74.729,49.907,66.324,64.789,72.675,72.738"></path>
<path d="M67.431,53.85c-9.467,17.005-6.203,26.044,2.745,31.276c17.986,10.543,79.724,10.791,87.981-32.078
	c16.942,18.896-2.186,35.799-24.903,45.751c-24.64,10.791-50.889,11.824-69.367,4.44C35.909,92.062,41.906,64.475,67.431,53.85"></path>
<path d="M34.157,91.728c2.494-49.126,63.272-58.33,90.372-57.109c35.168,1.538,67.535,15.39,37.126,57.392
	c53.611-30.686,49.697-55.617,25.633-71.755c-25.137-16.888-64.67-17.692-102.869-7.23C21.135,30.382,4.25,73.913,34.157,91.728"></path>
<path d="M-13.211,134.201c-1.661-2.454-4.668-4.171-9.05-5.176c-2.197-0.479-4.245-0.759-6.123-0.759l-21.724,0.097l-10.54,30.164
	h11.709l8.754-25.011h8.371c0.93,0,1.866,0.14,2.859,0.428c1.98,0.554,3.389,1.478,4.268,2.776c0.622,0.924,0.936,2.029,0.936,3.29
	c0,1.047-0.222,2.237-0.65,3.532l-5.239,14.985h11.652l5.273-15.176c0.576-1.624,0.862-3.107,0.862-4.471
	C-11.853,137.094-12.31,135.536-13.211,134.201 M29.392,128.266l-8.719,25.028H12.25c-0.884,0-1.826-0.151-2.853-0.445
	c-1.974-0.542-3.395-1.449-4.262-2.759c-0.633-0.916-0.93-2.023-0.93-3.29c0-1.047,0.228-2.228,0.702-3.532l5.187-15.002H-1.558
	l-5.238,15.179c-0.565,1.635-0.845,3.121-0.845,4.502c0,1.78,0.439,3.344,1.347,4.676c1.62,2.445,4.616,4.163,8.993,5.156
	c2.254,0.514,4.297,0.748,6.134,0.748h21.775l10.534-30.261H29.392z M69.417,128.232c-3.486,0-7.276,0.662-11.361,1.988
	c-7.903,2.565-12.93,6.919-15.093,13.099c-0.582,1.683-0.873,3.23-0.873,4.679c0,1.746,0.434,3.292,1.358,4.625
	c1.621,2.445,4.6,4.163,8.942,5.156c2.248,0.514,4.274,0.748,6.134,0.748l21.964-0.029l6.128-17.673H74.918l-4.365,12.468h-8.622
	c-0.799,0-1.666-0.151-2.613-0.445c-1.82-0.468-3.144-1.352-3.989-2.596c-0.622-0.953-0.936-2.043-0.936-3.31
	c0-1.113,0.245-2.351,0.708-3.675c1.404-3.977,4.04-6.796,7.915-8.468c2.026-0.856,3.852-1.284,5.478-1.284h20.703l1.826-5.284
	L69.417,128.232L69.417,128.232z M119.593,128.266c-3.572,0-7.372,0.679-11.424,1.997c-7.932,2.591-12.993,7.059-15.219,13.427
	l-5.216,14.836h11.675l3.087-8.913h19.276l-3.076,8.913H130.4l10.54-30.164L119.593,128.266z M123.616,144.352h-19.242l0.377-1.135
	c1.392-3.972,4.126-6.768,8.194-8.417c2.066-0.856,3.971-1.284,5.695-1.284h8.759L123.616,144.352z"></path>
<path d="M165.558,125.687c-2.779,0.057-5.695,0.508-8.771,1.352c-5.975,1.609-9.61,4.209-10.865,7.778
	c-0.245,0.73-0.354,1.387-0.354,1.972c0,0.819,0.228,1.584,0.673,2.228c1.147,1.729,3.635,2.93,7.458,3.623
	c1.929,0.388,3.726,0.576,5.381,0.576h5.786c3.293,0,5.37,0.613,6.26,1.883c0.302,0.528,0.382,1.138,0.16,1.832
	c-0.485,1.375-1.974,2.346-4.434,2.922c-1.352,0.314-2.745,0.468-4.154,0.468h-20.942l-1.803,5.176h24.549
	c2.745-0.066,5.649-0.514,8.737-1.361c5.997-1.604,9.638-4.203,10.893-7.769c0.228-0.73,0.331-1.387,0.331-2.003
	c0-0.793-0.228-1.541-0.651-2.197c-1.136-1.723-3.618-2.922-7.447-3.638c-1.946-0.363-3.749-0.554-5.438-0.554h-5.592
	c-3.338,0-5.421-0.628-6.289-1.88c-0.337-0.531-0.394-1.139-0.131-1.852c0.445-1.367,1.918-2.348,4.417-2.896
	c1.341-0.325,2.693-0.479,4.126-0.479h20.794l1.849-5.181L165.558,125.687L165.558,125.687z M216.059,146.099l0.371-0.074
	c10.654-1.997,17.313-6.831,19.995-14.5l2.031-5.837h-11.493l-2.174,6.266c-1.147,3.321-3.224,5.812-6.254,7.49
	c-1.923,1.104-4.08,1.749-6.443,1.974h-0.103c-3.07-0.305-5.124-1.418-6.185-3.289c-0.536-0.902-0.788-1.9-0.788-3.03
	c0-1.027,0.217-2.18,0.685-3.427l2.077-5.983h-11.464l-2.157,6.12c-0.548,1.589-0.827,3.107-0.827,4.485
	c0,1.407,0.308,2.679,0.924,3.849c1.472,2.859,4.679,4.828,9.61,5.883l0.605,0.105l-3.287,9.367h11.578L216.059,146.099z
	 M260.848,125.687c-2.785,0.057-5.706,0.508-8.794,1.352c-5.963,1.609-9.587,4.209-10.853,7.778
	c-0.245,0.73-0.371,1.387-0.371,1.972c0,0.819,0.234,1.584,0.696,2.228c1.147,1.729,3.629,2.93,7.441,3.623
	c1.929,0.388,3.743,0.576,5.398,0.576h5.775c3.31,0,5.387,0.613,6.26,1.883c0.325,0.528,0.377,1.138,0.165,1.832
	c-0.496,1.375-1.957,2.346-4.422,2.922c-1.364,0.314-2.745,0.468-4.166,0.468h-20.925l-1.815,5.176h24.537
	c2.75-0.066,5.644-0.514,8.731-1.361c6.009-1.604,9.644-4.203,10.916-7.769c0.223-0.73,0.32-1.387,0.32-2.003
	c0-0.793-0.217-1.541-0.645-2.197c-1.141-1.723-3.618-2.922-7.441-3.638c-1.934-0.363-3.76-0.554-5.444-0.554h-5.598
	c-3.315,0-5.438-0.628-6.294-1.88c-0.337-0.531-0.377-1.139-0.131-1.852c0.462-1.367,1.934-2.348,4.434-2.896
	c1.33-0.325,2.705-0.479,4.108-0.479h20.8l1.849-5.181L260.848,125.687L260.848,125.687z"></path>
<path d="M-60.46,167.07h1.997v15.367h-1.997V167.07z"></path>
<path d="M-48.848,182.437v-11.133h1.666v1.592c0.799-1.238,1.974-1.843,3.481-1.843c0.662,0,1.25,0.12,1.826,0.354
	c0.548,0.251,0.964,0.553,1.227,0.973c0.285,0.371,0.479,0.847,0.588,1.378c0.068,0.351,0.103,0.976,0.103,1.84v6.839h-1.861v-6.768
	c0-0.759-0.057-1.338-0.211-1.723c-0.131-0.382-0.394-0.685-0.753-0.919c-0.371-0.228-0.799-0.337-1.307-0.337
	c-0.787,0-1.472,0.245-2.06,0.748c-0.553,0.536-0.839,1.506-0.839,2.933v6.066L-48.848,182.437L-48.848,182.437z"></path>
<path d="M-26.741,180.771l0.28,1.666c-0.519,0.111-1.004,0.148-1.415,0.148c-0.673,0-1.187-0.086-1.563-0.302
	c-0.371-0.228-0.616-0.525-0.788-0.859c-0.137-0.351-0.228-1.101-0.228-2.24v-6.403h-1.358v-1.478h1.358v-2.75l1.855-1.144v3.895
	h1.86v1.478h-1.86v6.528c0,0.536,0.034,0.87,0.091,1.013c0.063,0.162,0.171,0.285,0.337,0.388c0.137,0.068,0.337,0.123,0.622,0.123
	C-27.352,180.833-27.078,180.805-26.741,180.771"></path>
<path d="M-11.112,178.862l1.917,0.245c-0.303,1.144-0.873,2.034-1.683,2.651c-0.81,0.628-1.855,0.941-3.121,0.941
	c-1.603,0-2.876-0.496-3.812-1.501c-0.93-1.004-1.398-2.411-1.398-4.231c0-1.869,0.468-3.313,1.427-4.368
	c0.936-1.021,2.168-1.546,3.675-1.546c1.455,0,2.648,0.525,3.589,1.521c0.913,1.007,1.392,2.451,1.392,4.288
	c0,0.105,0,0.274-0.017,0.496h-8.16c0.068,1.25,0.399,2.163,1.027,2.822c0.616,0.654,1.364,0.979,2.288,0.979
	c0.685,0,1.255-0.205,1.729-0.551C-11.773,180.251-11.397,179.661-11.112,178.862 M-17.2,175.8h6.112
	c-0.08-0.924-0.308-1.632-0.702-2.091c-0.599-0.733-1.352-1.11-2.288-1.11c-0.856,0-1.581,0.297-2.157,0.89
	C-16.818,174.057-17.149,174.833-17.2,175.8"></path>
<path d="M-0.874,183.379l1.78,0.274c0.091,0.565,0.302,0.976,0.645,1.244c0.456,0.337,1.096,0.514,1.889,0.514
	c0.856,0,1.529-0.177,1.986-0.514c0.462-0.354,0.782-0.842,0.941-1.475c0.091-0.394,0.137-1.19,0.137-2.417
	c-0.81,0.959-1.826,1.432-3.03,1.432c-1.501,0-2.671-0.525-3.487-1.635c-0.833-1.099-1.232-2.451-1.232-3.986
	c0-1.067,0.177-2.043,0.548-2.95c0.394-0.89,0.947-1.581,1.643-2.083c0.725-0.479,1.563-0.73,2.545-0.73
	c1.29,0,2.357,0.531,3.207,1.598v-1.347h1.7v9.627c0,1.746-0.188,2.99-0.531,3.698c-0.342,0.73-0.884,1.318-1.638,1.712
	c-0.765,0.422-1.683,0.636-2.779,0.636c-1.312,0-2.357-0.299-3.161-0.887C-0.509,185.484-0.909,184.594-0.874,183.379
	 M0.655,176.679c0,1.461,0.291,2.545,0.844,3.201c0.571,0.676,1.295,1.004,2.157,1.004c0.845,0,1.558-0.328,2.146-1.004
	c0.565-0.656,0.85-1.715,0.85-3.144c0-1.358-0.302-2.391-0.89-3.081c-0.593-0.679-1.318-1.03-2.14-1.03s-1.524,0.334-2.106,1.03
	C0.946,174.331,0.655,175.335,0.655,176.679"></path>
<path d="M17.494,182.437v-11.133h1.661v1.689c0.434-0.788,0.827-1.318,1.198-1.564c0.354-0.251,0.748-0.377,1.193-0.377
	c0.611,0,1.25,0.194,1.883,0.605l-0.628,1.772c-0.451-0.294-0.896-0.436-1.352-0.436c-0.422,0-0.776,0.143-1.096,0.388
	c-0.337,0.245-0.553,0.593-0.696,1.038c-0.194,0.662-0.303,1.404-0.303,2.208v5.809h-1.86L17.494,182.437L17.494,182.437z"></path>
<path d="M38.009,181.073c-0.685,0.588-1.352,1.027-1.974,1.261c-0.639,0.251-1.324,0.365-2.054,0.365
	c-1.193,0-2.117-0.297-2.773-0.89c-0.645-0.593-0.959-1.358-0.959-2.305c0-0.528,0.108-1.021,0.359-1.495
	c0.245-0.448,0.571-0.81,0.953-1.061c0.388-0.291,0.844-0.496,1.347-0.622c0.342-0.103,0.907-0.217,1.643-0.294
	c1.495-0.18,2.596-0.402,3.31-0.653c0-0.251,0.011-0.405,0.011-0.485c0-0.759-0.183-1.33-0.536-1.632
	c-0.474-0.428-1.158-0.639-2.111-0.639c-0.867,0-1.512,0.154-1.934,0.457c-0.411,0.322-0.713,0.867-0.913,1.655l-1.815-0.254
	c0.165-0.77,0.439-1.418,0.81-1.906c0.382-0.488,0.924-0.865,1.638-1.124c0.725-0.271,1.541-0.396,2.488-0.396
	c0.942,0,1.683,0.105,2.277,0.342c0.565,0.211,1.01,0.514,1.284,0.833c0.274,0.345,0.468,0.765,0.576,1.295
	c0.068,0.325,0.091,0.913,0.091,1.746v2.505c0,1.778,0.046,2.876,0.126,3.315c0.074,0.491,0.234,0.936,0.468,1.347h-1.934
	C38.186,182.054,38.06,181.609,38.009,181.073 M37.86,176.862c-0.679,0.274-1.683,0.508-3.03,0.725
	c-0.776,0.094-1.301,0.223-1.615,0.371c-0.308,0.14-0.565,0.342-0.73,0.605c-0.183,0.274-0.28,0.571-0.28,0.907
	c0,0.496,0.2,0.913,0.582,1.253c0.377,0.334,0.919,0.511,1.638,0.511c0.713,0,1.352-0.16,1.9-0.479
	c0.559-0.32,0.976-0.753,1.227-1.301c0.2-0.428,0.308-1.073,0.308-1.906V176.862z"></path>
<path d="M52.982,180.771l0.257,1.666c-0.525,0.111-0.981,0.148-1.404,0.148c-0.673,0-1.187-0.086-1.552-0.302
	c-0.377-0.228-0.651-0.525-0.787-0.859c-0.148-0.351-0.234-1.101-0.234-2.24v-6.403h-1.347v-1.478h1.347v-2.75l1.849-1.144v3.895
	h1.872v1.478h-1.872v6.528c0,0.536,0.029,0.87,0.097,1.013c0.068,0.162,0.171,0.285,0.32,0.388c0.16,0.068,0.348,0.123,0.639,0.123
	C52.36,180.833,52.646,180.805,52.982,180.771"></path>
<path d="M68.606,178.862l1.906,0.245c-0.302,1.144-0.85,2.034-1.66,2.651c-0.822,0.628-1.872,0.941-3.15,0.941
	c-1.592,0-2.864-0.496-3.789-1.501c-0.947-1.004-1.41-2.411-1.41-4.231c0-1.869,0.462-3.313,1.41-4.368
	c0.959-1.021,2.191-1.546,3.703-1.546c1.455,0,2.648,0.525,3.572,1.521c0.93,1.007,1.387,2.451,1.387,4.288v0.496h-8.16
	c0.063,1.25,0.411,2.163,1.021,2.822c0.622,0.654,1.37,0.979,2.283,0.979c0.679,0,1.261-0.205,1.74-0.551
	C67.939,180.251,68.315,179.661,68.606,178.862 M62.512,175.8h6.106c-0.063-0.924-0.314-1.632-0.685-2.091
	c-0.599-0.733-1.364-1.11-2.305-1.11c-0.844,0-1.563,0.297-2.14,0.89C62.906,174.057,62.581,174.833,62.512,175.8"></path>
<path d="M86.279,182.437v-1.381c-0.69,1.099-1.729,1.643-3.07,1.643c-0.873,0-1.672-0.24-2.397-0.736
	c-0.73-0.482-1.29-1.158-1.7-2.029c-0.388-0.904-0.599-1.897-0.599-3.05c0-1.096,0.165-2.111,0.548-3.019
	c0.359-0.907,0.902-1.615,1.632-2.089c0.713-0.474,1.546-0.725,2.448-0.725c0.656,0,1.244,0.143,1.752,0.408
	c0.514,0.305,0.93,0.673,1.25,1.121v-5.512h1.849v15.367h-1.713V182.437z M80.413,176.885c0,1.424,0.297,2.499,0.89,3.207
	c0.593,0.713,1.278,1.067,2.088,1.067c0.822,0,1.501-0.354,2.071-1.01c0.565-0.679,0.839-1.715,0.839-3.099
	c0-1.535-0.285-2.656-0.867-3.364c-0.571-0.711-1.278-1.064-2.128-1.064c-0.827,0-1.518,0.354-2.066,1.033
	C80.692,174.331,80.413,175.412,80.413,176.885"></path>
<path d="M118.046,182.437v-13.57h-4.97v-1.797h11.978v1.797h-5.022v13.57H118.046z"></path>
<path d="M138.321,178.862l1.929,0.245c-0.32,1.144-0.873,2.034-1.683,2.651c-0.833,0.628-1.86,0.941-3.121,0.941
	c-1.603,0-2.864-0.496-3.823-1.501c-0.941-1.004-1.398-2.411-1.398-4.231c0-1.869,0.479-3.313,1.398-4.368
	c0.964-1.021,2.18-1.546,3.715-1.546c1.455,0,2.637,0.525,3.578,1.521c0.913,1.007,1.387,2.451,1.387,4.288
	c0,0.105-0.011,0.274-0.011,0.496h-8.171c0.085,1.25,0.416,2.163,1.044,2.822c0.616,0.654,1.369,0.979,2.282,0.979
	c0.673,0,1.261-0.205,1.735-0.551C137.665,180.251,138.036,179.661,138.321,178.862 M132.244,175.8h6.1
	c-0.091-0.924-0.32-1.632-0.702-2.091c-0.593-0.733-1.358-1.11-2.294-1.11c-0.844,0-1.569,0.297-2.146,0.89
	C132.615,174.057,132.318,174.833,132.244,175.8"></path>
<path d="M156.034,178.365l1.815,0.248c-0.183,1.284-0.696,2.288-1.524,2.996c-0.805,0.725-1.826,1.09-3.013,1.09
	c-1.489,0-2.711-0.496-3.618-1.484c-0.902-1.007-1.364-2.428-1.364-4.291c0-1.213,0.194-2.265,0.588-3.167
	c0.388-0.907,0.981-1.581,1.797-2.031c0.782-0.445,1.66-0.673,2.602-0.673c1.181,0,2.146,0.302,2.916,0.907
	c0.753,0.622,1.232,1.478,1.444,2.639l-1.786,0.277c-0.188-0.742-0.485-1.312-0.924-1.7c-0.422-0.394-0.964-0.576-1.586-0.576
	c-0.924,0-1.683,0.337-2.277,1.027c-0.582,0.682-0.862,1.778-0.862,3.247c0,1.478,0.28,2.579,0.844,3.275
	c0.559,0.656,1.29,1.01,2.203,1.01c0.713,0,1.33-0.228,1.821-0.679C155.6,180.023,155.902,179.321,156.034,178.365"></path>
<path d="M165.774,182.437V167.07h1.86v5.512c0.862-1.004,1.952-1.529,3.27-1.529c0.799,0,1.507,0.163,2.106,0.479
	c0.611,0.328,1.016,0.787,1.29,1.364c0.245,0.559,0.377,1.409,0.377,2.488v7.053h-1.849v-7.053c0-0.939-0.2-1.638-0.599-2.054
	c-0.417-0.434-0.964-0.656-1.718-0.656c-0.536,0-1.056,0.16-1.541,0.445c-0.474,0.283-0.816,0.679-1.021,1.187
	c-0.222,0.485-0.314,1.172-0.314,2.049v6.083L165.774,182.437L165.774,182.437z"></path>
<path d="M183.824,182.437v-11.133h1.683v1.592c0.805-1.238,1.957-1.843,3.469-1.843c0.65,0,1.272,0.12,1.826,0.354
	c0.531,0.251,0.959,0.553,1.227,0.973c0.285,0.371,0.485,0.847,0.588,1.378c0.063,0.351,0.091,0.976,0.091,1.84v6.839h-1.849v-6.768
	c0-0.759-0.08-1.338-0.223-1.723c-0.125-0.382-0.388-0.685-0.759-0.919c-0.365-0.228-0.799-0.337-1.295-0.337
	c-0.782,0-1.455,0.245-2.048,0.748c-0.571,0.536-0.862,1.506-0.862,2.933v6.066L183.824,182.437L183.824,182.437z"></path>
<path d="M201.194,176.885c0-2.066,0.571-3.598,1.689-4.599c0.936-0.825,2.088-1.233,3.452-1.233c1.501,0,2.722,0.502,3.686,1.512
	c0.942,0.999,1.415,2.377,1.415,4.16c0,1.444-0.194,2.554-0.628,3.372c-0.422,0.833-1.027,1.472-1.843,1.917
	c-0.805,0.459-1.683,0.685-2.631,0.685c-1.552,0-2.785-0.496-3.732-1.501C201.679,180.2,201.194,178.762,201.194,176.885
	 M203.094,176.885c0,1.424,0.302,2.499,0.919,3.207c0.622,0.713,1.398,1.067,2.322,1.067c0.902,0,1.695-0.354,2.305-1.084
	c0.593-0.69,0.89-1.792,0.89-3.258c0-1.387-0.297-2.431-0.89-3.13c-0.639-0.711-1.404-1.064-2.305-1.064
	c-0.924,0-1.7,0.354-2.322,1.05C203.396,174.38,203.094,175.449,203.094,176.885"></path>
<path d="M219.911,167.07h1.86v15.367h-1.86V167.07z"></path>
<path d="M230.262,176.885c0-2.066,0.576-3.598,1.706-4.599c0.93-0.825,2.083-1.233,3.435-1.233c1.501,0,2.745,0.502,3.686,1.512
	c0.959,0.999,1.432,2.377,1.432,4.16c0,1.444-0.228,2.554-0.628,3.372c-0.434,0.833-1.056,1.472-1.849,1.917
	c-0.805,0.459-1.689,0.685-2.642,0.685c-1.541,0-2.785-0.496-3.732-1.501C230.753,180.2,230.262,178.762,230.262,176.885
	 M232.174,176.885c0,1.424,0.303,2.499,0.925,3.207c0.616,0.713,1.381,1.067,2.305,1.067c0.919,0,1.683-0.354,2.283-1.084
	c0.61-0.69,0.924-1.792,0.924-3.258c0-1.387-0.314-2.431-0.924-3.13c-0.611-0.711-1.364-1.064-2.283-1.064
	c-0.924,0-1.689,0.354-2.305,1.05C232.476,174.38,232.174,175.449,232.174,176.885"></path>
<path d="M248.688,183.379l1.792,0.274c0.086,0.565,0.28,0.976,0.628,1.244c0.462,0.337,1.09,0.514,1.889,0.514
	c0.85,0,1.529-0.177,1.98-0.514c0.468-0.354,0.788-0.842,0.942-1.475c0.103-0.394,0.148-1.19,0.148-2.417
	c-0.805,0.959-1.826,1.432-3.019,1.432c-1.518,0-2.682-0.525-3.509-1.635c-0.816-1.099-1.221-2.451-1.221-3.986
	c0-1.067,0.171-2.043,0.548-2.95c0.382-0.89,0.93-1.581,1.649-2.083c0.725-0.479,1.569-0.73,2.534-0.73
	c1.29,0,2.351,0.531,3.19,1.598v-1.347h1.712v9.627c0,1.746-0.177,2.99-0.508,3.698c-0.36,0.73-0.913,1.318-1.649,1.712
	c-0.753,0.422-1.678,0.636-2.796,0.636c-1.295,0-2.362-0.299-3.15-0.887C249.036,185.484,248.648,184.594,248.688,183.379
	 M250.217,176.679c0,1.461,0.28,2.545,0.845,3.201c0.565,0.676,1.284,1.004,2.14,1.004c0.867,0,1.575-0.328,2.163-1.004
	c0.554-0.656,0.862-1.715,0.862-3.144c0-1.358-0.308-2.391-0.896-3.081c-0.593-0.679-1.312-1.03-2.145-1.03
	c-0.839,0-1.518,0.334-2.111,1.03C250.497,174.331,250.217,175.335,250.217,176.679"></path>
<path d="M267.005,186.762l-0.228-1.778c0.417,0.105,0.776,0.162,1.073,0.162c0.411,0,0.742-0.074,0.987-0.211
	c0.245-0.126,0.462-0.334,0.616-0.614c0.108-0.16,0.291-0.636,0.548-1.392c0.051-0.094,0.097-0.254,0.194-0.456l-4.177-11.17h2.014
	l2.26,6.471c0.28,0.805,0.565,1.678,0.799,2.559c0.222-0.848,0.479-1.703,0.759-2.531l2.345-6.5h1.854l-4.16,11.327
	c-0.445,1.247-0.799,2.08-1.039,2.542c-0.331,0.63-0.708,1.076-1.13,1.355c-0.422,0.308-0.93,0.448-1.518,0.448
	C267.839,186.976,267.451,186.899,267.005,186.762"></path>
<path d="M110.913,57.536c12.759,0,20.88,5.584,18.084,12.428c-2.773,6.865-15.379,12.411-28.155,12.411
	c-12.771,0-20.868-5.546-18.084-12.411C85.543,63.119,98.154,57.536,110.913,57.536"></path>
<path d="M72.675,72.738c2.545-8.072,7.721-14.657,17.524-18.654c13.553-5.518,28.829-5.13,39.254-1.586
	c9.336,3.178,12.799,9.318,8.782,19.25c14.237-9.709,12.263-23.587-5.918-28.563c-10.026-2.75-22.626-2.591-34.974,0.685
	C74.729,49.907,66.324,64.789,72.675,72.738"></path>
<path d="M67.431,53.85c-9.467,17.005-6.203,26.044,2.745,31.276c17.986,10.543,79.724,10.791,87.981-32.078
	c16.942,18.896-2.186,35.799-24.903,45.751c-24.64,10.791-50.889,11.824-69.367,4.44C35.909,92.062,41.906,64.475,67.431,53.85"></path>
<path d="M34.157,91.728c2.494-49.126,63.272-58.33,90.372-57.109c35.168,1.538,67.535,15.39,37.126,57.392
	c53.611-30.686,49.697-55.617,25.633-71.755c-25.137-16.888-64.67-17.692-102.869-7.23C21.135,30.382,4.25,73.913,34.157,91.728"></path>
<path d="M-13.211,134.201c-1.661-2.454-4.668-4.171-9.05-5.176c-2.197-0.479-4.245-0.759-6.123-0.759l-21.724,0.097l-10.54,30.164
	h11.709l8.754-25.011h8.371c0.93,0,1.866,0.14,2.859,0.428c1.98,0.554,3.389,1.478,4.268,2.776c0.622,0.924,0.936,2.029,0.936,3.29
	c0,1.047-0.222,2.237-0.65,3.532l-5.239,14.985h11.652l5.273-15.176c0.576-1.624,0.862-3.107,0.862-4.471
	C-11.853,137.094-12.31,135.536-13.211,134.201 M29.392,128.266l-8.719,25.028H12.25c-0.884,0-1.826-0.151-2.853-0.445
	c-1.974-0.542-3.395-1.449-4.262-2.759c-0.633-0.916-0.93-2.023-0.93-3.29c0-1.047,0.228-2.228,0.702-3.532l5.187-15.002H-1.558
	l-5.238,15.179c-0.565,1.635-0.845,3.121-0.845,4.502c0,1.78,0.439,3.344,1.347,4.676c1.62,2.445,4.616,4.163,8.993,5.156
	c2.254,0.514,4.297,0.748,6.134,0.748h21.775l10.534-30.261H29.392z M69.417,128.232c-3.486,0-7.276,0.662-11.361,1.988
	c-7.903,2.565-12.93,6.919-15.093,13.099c-0.582,1.683-0.873,3.23-0.873,4.679c0,1.746,0.434,3.292,1.358,4.625
	c1.621,2.445,4.6,4.163,8.942,5.156c2.248,0.514,4.274,0.748,6.134,0.748l21.964-0.029l6.128-17.673H74.918l-4.365,12.468h-8.622
	c-0.799,0-1.666-0.151-2.613-0.445c-1.82-0.468-3.144-1.352-3.989-2.596c-0.622-0.953-0.936-2.043-0.936-3.31
	c0-1.113,0.245-2.351,0.708-3.675c1.404-3.977,4.04-6.796,7.915-8.468c2.026-0.856,3.852-1.284,5.478-1.284h20.703l1.826-5.284
	L69.417,128.232L69.417,128.232z M119.593,128.266c-3.572,0-7.372,0.679-11.424,1.997c-7.932,2.591-12.993,7.059-15.219,13.427
	l-5.216,14.836h11.675l3.087-8.913h19.276l-3.076,8.913H130.4l10.54-30.164L119.593,128.266z M123.616,144.352h-19.242l0.377-1.135
	c1.392-3.972,4.126-6.768,8.194-8.417c2.066-0.856,3.971-1.284,5.695-1.284h8.759L123.616,144.352z"></path>
<path d="M165.558,125.687c-2.779,0.057-5.695,0.508-8.771,1.352c-5.975,1.609-9.61,4.209-10.865,7.778
	c-0.245,0.73-0.354,1.387-0.354,1.972c0,0.819,0.228,1.584,0.673,2.228c1.147,1.729,3.635,2.93,7.458,3.623
	c1.929,0.388,3.726,0.576,5.381,0.576h5.786c3.293,0,5.37,0.613,6.26,1.883c0.302,0.528,0.382,1.138,0.16,1.832
	c-0.485,1.375-1.974,2.346-4.434,2.922c-1.352,0.314-2.745,0.468-4.154,0.468h-20.942l-1.803,5.176h24.549
	c2.745-0.066,5.649-0.514,8.737-1.361c5.997-1.604,9.638-4.203,10.893-7.769c0.228-0.73,0.331-1.387,0.331-2.003
	c0-0.793-0.228-1.541-0.651-2.197c-1.136-1.723-3.618-2.922-7.447-3.638c-1.946-0.363-3.749-0.554-5.438-0.554h-5.592
	c-3.338,0-5.421-0.628-6.289-1.88c-0.337-0.531-0.394-1.139-0.131-1.852c0.445-1.367,1.918-2.348,4.417-2.896
	c1.341-0.325,2.693-0.479,4.126-0.479h20.794l1.849-5.181L165.558,125.687L165.558,125.687z M216.059,146.099l0.371-0.074
	c10.654-1.997,17.313-6.831,19.995-14.5l2.031-5.837h-11.493l-2.174,6.266c-1.147,3.321-3.224,5.812-6.254,7.49
	c-1.923,1.104-4.08,1.749-6.443,1.974h-0.103c-3.07-0.305-5.124-1.418-6.185-3.289c-0.536-0.902-0.788-1.9-0.788-3.03
	c0-1.027,0.217-2.18,0.685-3.427l2.077-5.983h-11.464l-2.157,6.12c-0.548,1.589-0.827,3.107-0.827,4.485
	c0,1.407,0.308,2.679,0.924,3.849c1.472,2.859,4.679,4.828,9.61,5.883l0.605,0.105l-3.287,9.367h11.578L216.059,146.099z
	 M260.848,125.687c-2.785,0.057-5.706,0.508-8.794,1.352c-5.963,1.609-9.587,4.209-10.853,7.778
	c-0.245,0.73-0.371,1.387-0.371,1.972c0,0.819,0.234,1.584,0.696,2.228c1.147,1.729,3.629,2.93,7.441,3.623
	c1.929,0.388,3.743,0.576,5.398,0.576h5.775c3.31,0,5.387,0.613,6.26,1.883c0.325,0.528,0.377,1.138,0.165,1.832
	c-0.496,1.375-1.957,2.346-4.422,2.922c-1.364,0.314-2.745,0.468-4.166,0.468h-20.925l-1.815,5.176h24.537
	c2.75-0.066,5.644-0.514,8.731-1.361c6.009-1.604,9.644-4.203,10.916-7.769c0.223-0.73,0.32-1.387,0.32-2.003
	c0-0.793-0.217-1.541-0.645-2.197c-1.141-1.723-3.618-2.922-7.441-3.638c-1.934-0.363-3.76-0.554-5.444-0.554h-5.598
	c-3.315,0-5.438-0.628-6.294-1.88c-0.337-0.531-0.377-1.139-0.131-1.852c0.462-1.367,1.934-2.348,4.434-2.896
	c1.33-0.325,2.705-0.479,4.108-0.479h20.8l1.849-5.181L260.848,125.687L260.848,125.687z"></path>
<path d="M303.355,104.813c0.885,0.006,1.803,0.2,1.803,1.253c0,1.21-0.827,1.35-1.803,1.384v1.621l1.946,3.178h1.444l-2.443-3.755
	c1.267-0.154,2.231-0.827,2.231-2.357c0-1.675-1.004-2.437-3.024-2.437h-0.154L303.355,104.813L303.355,104.813z M303.355,115.39
	v-1.241c3.23-0.131,5.758-2.71,5.758-6.18c0-3.435-2.528-6.037-5.758-6.171v-1.224c3.92,0.143,7.253,3.218,7.253,7.395
	C310.608,112.146,307.275,115.261,303.355,115.39 M301.557,107.45v-2.637h1.769h0.028V103.7h-3.093v8.548h1.295v-3.706h1.478
	l0.319,0.528v-1.621h-0.251L301.557,107.45L301.557,107.45z M303.355,100.573v1.224h-0.234c-3.378,0-6.02,2.665-6.02,6.171
	c0,3.555,2.642,6.18,6.02,6.18h0.234v1.241h-0.234c-4.063,0-7.515-3.141-7.515-7.421c0-4.268,3.452-7.395,7.515-7.395H303.355z"></path>
</svg>
