
<svg xmlns="http://www.w3.org/2000/svg" viewBox="0 0 725.07 222.67" >
  <path d="M 113.17,222.62 H 92.63 v -90.09 h 20.54 z M 269.95,100.91 c -0.87,0 -1.2,-0.44 -1.53,-1.31 L 248.67,46.12 c -0.56,-1.43 -0.87,-2.18 -1.54,-2.18 -0.64,0 -0.75,0.21 -0.75,2.07 v 53.81 c -0,0.65 -0.45,1.09 -1.11,1.09 h -10.46 c -0.66,0 -1.1,-0.44 -1.1,-1.09 V 27.78 c 0,-0.66 0.44,-1.09 1.1,-1.09 h 18.66 c 0.76,0 1.1,0.55 1.42,1.3 l 18.55,51.63 c 0.56,1.64 0.77,1.75 1.31,1.75 0.55,0 0.77,-0.21 0.77,-1.08 l 0,-52.51 c 0,-0.66 0.43,-1.09 1.08,-1.09 h 10.79 c 0.66,0 1.1,0.43 1.1,1.09 v 72.04 c 0,0.65 -0.44,1.09 -1.1,1.09 z m 73.56,-74.22 h 12.78 c 0.64,0 0.87,0.43 0.64,1.1 -4.25,9.28 -14.3,29.49 -19.11,38.01 -2.95,5.24 -3.82,6.77 -3.82,8.41 v 25.62 c 0,0.66 -0.44,1.09 -1.1,1.09 h -12.34 c -0.65,0 -1.09,-0.43 -1.09,-1.09 V 74.11 c 0,-1.64 -0.66,-2.85 -3.28,-7.76 -4.7,-8.74 -15.95,-32.56 -18.57,-38.56 -0.22,-0.67 0.11,-1.1 0.77,-1.1 h 13.54 c 0.77,0 1.2,0.33 1.53,1.21 3.17,7.97 8.74,21.4 12.34,28.84 0.77,1.52 0.99,1.85 1.64,1.85 0.76,0 0.99,-0.33 1.75,-1.85 3.5,-6.89 9.4,-20.44 12.46,-28.84 0.54,-0.88 1.08,-1.21 1.86,-1.21 m 42.5,11.18 c -6.55,0 -8.85,2.2 -8.85,7.66 0,4.37 1.42,6.33 12.89,14.42 9.18,6.44 13.99,11.25 13.99,21.96 0,14.09 -7.44,19.77 -21.2,19.77 -8.63,0 -16.28,-0.98 -20.54,-1.96 -0.63,-0.12 -0.98,-0.44 -0.98,-0.88 l 0.8,-9.83 c 0,-0.44 0.24,-0.76 0.8,-0.76 5.45,0.98 11.13,1.53 16.82,1.53 6.45,0 9.17,-1.86 9.17,-7.87 0,-4.04 -0.4,-6.01 -15.4,-17.37 -9.28,-6.98 -11.25,-12.02 -11.25,-19.66 0,-14.65 8.08,-18.79 23.93,-18.79 6.22,0 14.19,1.09 16.82,2.18 0.4,0.22 0.56,0.66 0.56,0.98 l -0.64,9.51 c 0,0.33 -0.24,0.65 -0.64,0.65 -3.93,-0.98 -11.36,-1.54 -16.16,-1.54 m 30.51,-10.09 c 0,-0.66 0.4,-1.09 1.09,-1.09 h 39.91 c 0.64,0 1.09,0.43 1.09,1.09 v 9.71 c 0,0.66 -0.48,1.09 -1.09,1.09 h -25.72 c -0.48,0 -0.64,0.23 -0.64,0.67 V 56.5 c 0,0.43 0.24,0.65 0.64,0.65 h 21.94 c 0.64,0 1.09,0.43 1.09,1.09 v 9.05 c 0,0.66 -0.4,1.1 -1.09,1.1 h -21.94 c -0.48,0 -0.64,0.21 -0.64,0.65 v 19.1 c 0,0.44 0.24,0.66 0.64,0.66 h 26.63 c 0.64,0 1.1,0.43 1.1,1.1 v 9.93 c 0,0.65 -0.4,1.09 -1.1,1.09 h -40.82 c -0.64,0 -1.09,-0.44 -1.09,-1.09 z m -182.93,94.94 c 0,-0.65 0.44,-1.09 1.09,-1.09 h 39.91 c 0.66,0 1.09,0.44 1.09,1.09 v 9.72 c 0,0.66 -0.43,1.09 -1.09,1.09 h -25.72 c -0.43,0 -0.65,0.22 -0.65,0.65 v 17.25 c 0,0.43 0.22,0.66 0.65,0.66 h 21.94 c 0.66,0 1.1,0.43 1.1,1.09 v 9.06 c 0,0.65 -0.44,1.08 -1.1,1.08 h -21.94 c -0.43,0 -0.65,0.23 -0.65,0.67 v 19.1 c 0,0.39 0.22,0.63 0.65,0.63 h 26.64 c 0.65,0 1.09,0.48 1.09,1.1 v 9.93 c 0,0.64 -0.44,1.1 -1.09,1.1 H 234.8 c -0.65,0 -1.09,-0.4 -1.09,-1.1 z m 108.15,56.43 c 0,11.79 -10.8,17.79 -26.63,17.79 -18,0 -26.41,-6 -26.41,-17.79 v -56.43 c 0,-0.65 0.43,-1.09 1.09,-1.09 h 12.33 c 0.66,0 1.1,0.44 1.1,1.09 v 52.18 c 0,8.5 5.56,9.82 12.11,9.82 6.55,0 12.01,-1.32 12.01,-9.94 v -52.06 c 0,-0.65 0.43,-1.09 1.09,-1.09 h 12.22 c 0.66,0 1.09,0.44 1.09,1.09 z m 39.19,-9.28 c -0.87,-1.63 -1.1,-1.97 -1.75,-2.07 h -8.28 c -0.56,0 -0.88,0.22 -0.88,0.76 v 26.2 c 0,0.64 -0.4,1.09 -1.08,1.09 h -12.34 c -0.64,0 -1.09,-0.4 -1.09,-1.09 v -72.04 c 0,-0.65 0.4,-1.09 1.09,-1.09 h 22.8 c 16.59,0 25,5.57 25,20.52 0,9.82 -2.08,15.72 -9.61,20.08 -0.8,0.65 -1.1,1.09 -1.1,1.53 0,1.09 0.56,2.29 1.75,4.26 l 14.51,26.74 c 0.32,0.56 0.32,1.09 -0.55,1.09 H 395 c -0.64,0 -0.98,-0.24 -1.31,-0.98 z m 8.29,-25.32 c 0,-9.83 -2.62,-12.33 -12.44,-12.33 h -5.34 c -1.19,0 -1.42,0.22 -1.42,0.65 v 24.23 c 0,0.55 0.24,0.77 0.8,0.87 h 5.99 c 9.38,0 12.44,-3.71 12.44,-13.42 m 77.06,45.51 c -4.59,5.47 -11.25,6.88 -21.84,6.88 -10.57,0 -16.91,-1.41 -21.6,-6.88 -4.69,-5.67 -7.32,-17.45 -7.32,-31.31 0,-13.87 2.63,-25.66 7.32,-31.33 4.69,-5.46 11.35,-6.88 21.94,-6.88 10.59,0 16.91,1.42 21.5,6.88 4.81,5.67 7.42,17.46 7.42,31.33 0,13.86 -2.61,25.64 -7.42,31.31 m -32.09,-7.85 c 1.74,2.4 4.8,2.73 10.37,2.73 5.78,0 8.73,-0.32 10.47,-2.73 2.4,-3.38 3.5,-13.1 3.5,-23.46 0,-10.48 -1.1,-20.09 -3.5,-23.48 -1.74,-2.4 -4.69,-2.72 -10.25,-2.72 -5.79,0 -8.85,0.32 -10.59,2.72 -2.4,3.39 -3.5,13 -3.5,23.48 0,10.36 1.1,20.08 3.5,23.46 m 87.54,13.64 c -0.87,0 -1.2,-0.4 -1.53,-1.31 L 500.6,141.06 c -0.56,-1.43 -0.88,-2.18 -1.53,-2.18 -0.64,0 -0.8,0.21 -0.8,2.07 v 53.81 c 0,0.64 -0.4,1.09 -1.09,1.09 h -10.47 c -0.64,0 -1.1,-0.4 -1.1,-1.09 v -72.04 c 0,-0.65 0.48,-1.09 1.1,-1.09 h 18.67 c 0.79,0 1.09,0.55 1.42,1.31 l 18.55,51.63 c 0.56,1.63 0.72,1.74 1.31,1.74 0.56,0 0.72,-0.22 0.72,-1.09 v -52.5 c 0,-0.65 0.48,-1.09 1.09,-1.09 h 10.79 c 0.64,0 1.1,0.44 1.1,1.09 v 72.04 c 0,0.64 -0.4,1.09 -1.1,1.09 z m 32.1,-73.13 c 0,-0.65 0.4,-1.09 1.08,-1.09 h 39.91 c 0.64,0 1.09,0.44 1.09,1.09 v 9.72 c 0,0.65 -0.4,1.09 -1.09,1.09 h -25.71 c -0.48,0 -0.64,0.22 -0.64,0.65 v 17.25 c 0,0.43 0.24,0.66 0.64,0.66 h 21.94 c 0.64,0 1.09,0.43 1.09,1.08 v 9.06 c 0,0.65 -0.4,1.09 -1.09,1.09 h -21.94 c -0.48,0 -0.64,0.22 -0.64,0.66 v 19.1 c 0,0.4 0.24,0.64 0.64,0.64 h 26.63 c 0.63,0 1.09,0.39 1.09,1.1 v 9.93 c 0,0.63 -0.4,1.09 -1.09,1.09 h -40.83 c -0.64,0 -1.08,-0.4 -1.08,-1.09 z m 109.65,71.76 -22.33,-38.29 19.22,-33.24 c 0.32,-0.6 -0.23,-1.33 -1.06,-1.33 h -12.62 c -0.72,0 -1.34,0.34 -1.82,1.33 l -11.51,20.02 -11.78,-20 c -0.47,-0.93 -1.18,-1.35 -2.26,-1.35 h -12.8 c -0.85,0 -1.21,0.66 -0.88,1.37 l 19.17,33.11 -21.54,38.41 c -0.4,0.72 0,1.35 0.72,1.35 h 13.06 c 0.92,0 1.38,-0.32 1.93,-1.32 l 13.81,-24.77 14.62,24.74 c 0.64,1.09 1.15,1.35 1.98,1.35 h 13.27 c 0.85,0 1.18,-0.72 0.82,-1.38 m 21.64,-60.29 c 0,-0.43 -0.24,-0.65 -0.64,-0.65 h -16.67 c -0.64,0 -1.09,-0.43 -1.09,-1.09 v -9.73 c 0,-0.65 0.4,-1.09 1.09,-1.09 h 49.15 c 0.64,0 1.09,0.44 1.09,1.09 v 9.73 c 0,0.66 -0.4,1.09 -1.09,1.09 h -16.65 c -0.4,0 -0.64,0.22 -0.64,0.65 v 60.57 c 0,0.64 -0.4,1.09 -1.09,1.09 h -12.4 c -0.64,0 -1.08,-0.4 -1.08,-1.09 z m 26.83,53.97 c -0.81,0 -1.08,0.26 -1.08,0.93 0,0.55 0.17,0.78 1.57,1.77 1.13,0.79 1.72,1.38 1.72,2.7 0,1.73 -0.91,2.42 -2.6,2.42 -1.06,0 -1.99,-0.12 -2.52,-0.24 -0.1,0 -0.12,0 -0.12,-0.1 l 0.1,-1.21 c 0,-0.1 0,-0.1 0.1,-0.1 0.66,0.12 1.36,0.18 2.07,0.18 0.79,0 1.12,-0.22 1.12,-0.96 0,-0.5 -0.1,-0.73 -1.89,-2.13 -1.14,-0.86 -1.38,-1.48 -1.38,-2.42 0,-1.79 0.99,-2.3 2.94,-2.3 0.76,0 1.74,0.13 2.06,0.27 0.1,0 0.1,0.1 0.1,0.12 l -0.1,1.16 c 0,0 0,0.1 -0.1,0.1 -0.49,-0.12 -1.4,-0.18 -1.99,-0.18 m 10.33,-1.24 c 0,-0.1 0.1,-0.14 0.17,-0.14 h 2.25 c 0.1,0 0.14,0 0.14,0.14 v 8.84 c 0,0.1 -0.1,0.13 -0.14,0.13 h -1.52 c -0.1,0 -0.14,0 -0.14,-0.13 l 0.1,-6.87 c 0,-0.12 0,-0.16 -0.1,-0.16 -0.1,0 -0.1,0.1 -0.12,0.18 l -1.49,4.69 c -0.1,0.21 -0.1,0.23 -0.22,0.23 h -1.27 c -0.16,0 -0.18,0 -0.25,-0.2 l -1.37,-4.72 c -0.1,-0.14 -0.1,-0.18 -0.13,-0.18 -0.1,0 -0.1,0 -0.1,0.2 l 0.1,6.83 c 0,0.1 -0.1,0.13 -0.14,0.13 h -1.48 c -0.1,0 -0.14,0 -0.14,-0.13 v -8.84 c 0,-0.1 0.1,-0.14 0.14,-0.14 h 2.37 c 0.1,0 0.12,0.1 0.15,0.14 l 1.43,4.92 c 0.1,0.15 0.1,0.18 0.13,0.18 0.1,0 0.1,0 0.14,-0.18 z"></path>
  <g class="logomark">
    <path d="M 61.43,111.42 H 40.95 V 41.87 H 61.43 Z M 20.28,179.04 H -0.07 v -46.25 h 20.35 z" style="opacity:0.4"></path>
    <path d="m 61.43,-0.04 h 31.2 V 74.09 H 61.43 Z M 20.28,31.09 h 20.67 v 64.5 H 20.28 Z" style="opacity:0.3"></path>
    <path style="opacity:0.8" d="m 144.31,194.8 h -31.14 v -91.87 h 31.14 z m -51.68,15 H 61.43 V 74.09 h 31.2 z"></path>
    <path d="M 164.85,120.6 H 144.31 V 74.54 h 20.54 z M 20.28,95.59 h 20.67 v 73.95 H 20.28 Z" style="opacity:0.5"></path>
    <path d="M 164.85,169.54 H 144.31 V 120.6 h 20.54 z M 92.63,36.58 h 20.54 v 95.95 H 92.63 Z" style="opacity:0.7"></path>
    <path d="M 185.33,102.93 H 164.85 V 60.89 h 20.48 z M -0.07,74.54 h 20.35 v 58.25 H -0.07 Z" style="opacity:0.2"></path>
    <path d="m 185.33,151.74 h -20.48 v -48.81 h 20.48 z M 113.17,18.14 h 31.14 v 84.79 H 113.17 Z M 61.43,192.89 H 40.95 v -81.47 h 20.48 z" style="opacity:0.6"></path>
  </g>
</svg>
