<?xml version="1.0"?>

<svg xmlns="http://www.w3.org/2000/svg" viewBox="0 0 247.956 73.591" width="247.956" height="73.591">
  <path d="m 63.09,37.38 c 0,2.05 -0.11,4.18 -0.26,6.19 -0.15,1.95 -0.18,4.47 -0.5,6.43 -1.23,7.48 -6.01,10.57 -12.2,10.89 L 46.91,61.11 43.7,60.89 C 37.51,60.57 32.72,57.48 31.49,50 31.17,48.04 31.14,45.52 31,43.57 c -0.15,-2.01 -0.26,-4.14 -0.27,-6.19 0,-0.25 0,-0.42 0,-0.68 0,-0.26 0,-0.52 0,-0.77 0,-2.04 0.12,-4.18 0.27,-6.19 0.14,-1.95 0.17,-4.47 0.49,-6.43 1.23,-7.48 6.02,-10.56 12.21,-10.89 l 3.21,-0.12 3.22,0.12 c 6.19,0.33 10.97,3.41 12.2,10.89 0.32,1.96 0.35,4.48 0.5,6.43 0.15,2.01 0.26,4.15 0.26,6.19 0,0.26 0,0.52 0,0.77 0,0.26 0,0.43 0,0.68 M 87.73,20.17 C 85.55,14.26 80.22,9.032 75.15,6.801 73.8,5.986 71.36,5.197 67.86,4.551 63.26,3.642 56.4,3.065 48.14,3.023 c -0.27,0 -0.53,0 -0.79,0 -0.15,0 -0.29,0 -0.44,0 -0.15,0 -0.29,0 -0.43,0 -0.27,0 -0.53,0 -0.8,0 C 37.42,3.064 30.56,3.641 25.96,4.55 22.46,5.196 20.02,5.985 18.68,6.8 13.6,9.031 8.261,14.26 6.091,20.17 4.408,24.43 3.794,30.26 3.642,35.54 c 0,0.38 -0.02,0.77 0,1.16 -0.01,0.4 0,0.69 0,1.08 0.152,5.27 0.766,11.1 2.449,15.36 2.17,5.91 7.509,11.14 12.589,13.37 1.34,0.81 3.78,1.61 7.28,2.25 4.6,0.91 11.46,1.48 19.72,1.53 0.27,0 0.53,0 0.8,0 0.14,0 0.28,0 0.43,0 0.15,0 0.29,0 0.44,0 0.26,0 0.52,0 0.79,0 8.26,-0.1 15.12,-0.62 19.72,-1.53 3.5,-0.64 5.94,-1.44 7.29,-2.25 5.07,-2.23 10.4,-7.46 12.58,-13.37 1.68,-4.26 2.34,-10.09 2.5,-15.36 0,-0.39 0.1,-0.68 0,-1.08 0,-0.39 0,-0.78 0,-1.16 -0.16,-5.28 -0.82,-11.11 -2.5,-15.37 z m 65.97,7.2 21.7,-13.95 10.4,0 0,-8.799 -37.6,0 0,8.799 7.9,0 -27.5,17.73 0,-17.73 8.6,0 0,-8.799 -41.89,0 0,8.799 8.59,0 0,46.45 -8.59,0 0,8.8 41.89,0 0,-8.81 -8.6,0 0,-16.37 8.3,-5.32 17.8,21.69 -6.5,0 0,8.81 42.4,0 0,-8.81 -7.5,0 -29.4,-32.49 m 90.4,-13.96 0,-8.8 -46,0 0,8.8 9.5,0 0,46.45 -9.5,0 0,8.81 46,0 0,-8.81 -9.5,0 0,-46.45 9.5,0"></path>
  </svg>