<?xml version="1.0"?>

<svg xmlns="http://www.w3.org/2000/svg" viewBox="0 0 184 57" width="184" height="57"><defs></defs><path d="m 83.74,23.99 c -0.54,0.17 -0.87,0.7 -0.83,1.24 l -5.95,1.93 c -0.1,-0.2 -0.19,-0.38 -0.32,-0.55 l 2.06,-1.85 c 0.21,0.11 0.47,0.14 0.72,0.1 0.49,-0.16 0.76,-0.69 0.6,-1.18 -0.16,-0.5 -0.69,-0.77 -1.18,-0.61 -0.49,0.17 -0.76,0.69 -0.6,1.19 0,0 0,0.1 0,0.1 l -2.04,1.84 C 76.07,26.01 75.9,25.88 75.72,25.78 l 1.12,-2.53 c 0.25,0 0.49,-0.1 0.69,-0.24 0.38,-0.35 0.41,-0.94 0.1,-1.33 -0.35,-0.38 -0.94,-0.41 -1.33,-0.1 -0.38,0.34 -0.41,0.93 -0.1,1.32 0,0 0,0 0.1,0.1 l -1.13,2.52 c -0.19,-0.1 -0.4,-0.11 -0.62,-0.14 l 0,-6.27 c 0.52,-0.14 0.9,-0.61 0.9,-1.17 0,-0.67 -0.54,-1.21 -1.21,-1.21 -0.67,0 -1.22,0.54 -1.22,1.21 0,0.57 0.39,1.04 0.92,1.18 l 0,6.26 c -0.21,0 -0.42,0.1 -0.62,0.13 l -1.13,-2.53 c 0.18,-0.17 0.28,-0.41 0.28,-0.67 0,-0.52 -0.42,-0.94 -0.93,-0.94 -0.52,0 -0.94,0.42 -0.94,0.94 0,0.52 0.42,0.94 0.94,0.94 0,0 0.1,0 0.1,-0 l 1.12,2.52 c -0.19,0.1 -0.36,0.23 -0.52,0.37 l -2.06,-1.86 c 0.1,-0.22 0.1,-0.48 -0,-0.72 -0.21,-0.48 -0.77,-0.69 -1.24,-0.48 -0.47,0.21 -0.69,0.77 -0.48,1.24 0.21,0.47 0.77,0.69 1.24,0.48 0,-0 0.1,-0 0.1,-0.1 l 2.04,1.84 c -0.12,0.17 -0.24,0.35 -0.32,0.55 L 65.52,25.2 c 0,-0.53 -0.3,-1.04 -0.84,-1.21 -0.63,-0.21 -1.32,0.14 -1.52,0.78 -0.21,0.64 0.14,1.32 0.78,1.53 0.54,0.17 1.11,-0.1 1.4,-0.51 l 5.94,1.93 c -0,0.2 -0.1,0.42 -0.1,0.64 l -2.73,0.28 c -0.11,-0.21 -0.3,-0.39 -0.55,-0.47 -0.49,-0.16 -1.02,0.11 -1.18,0.6 -0.16,0.5 0.11,1.02 0.6,1.18 0.49,0.16 1.02,-0.1 1.18,-0.6 0,-0 0,-0.1 0,-0.1 l 2.71,-0.28 c 0,0.21 0.1,0.42 0.19,0.62 l -2.37,1.37 c -0.19,-0.16 -0.43,-0.24 -0.69,-0.22 -0.52,0.1 -0.89,0.52 -0.84,1.04 0.1,0.51 0.52,0.89 1.03,0.83 0.52,-0 0.89,-0.51 0.84,-1.03 -0,-0 -0,-0.1 -0,-0.1 l 2.35,-1.35 c 0.13,0.17 0.27,0.34 0.43,0.48 l -3.66,5.04 c -0.5,-0.19 -1.08,-0 -1.41,0.42 -0.39,0.54 -0.27,1.3 0.27,1.7 0.54,0.39 1.3,0.27 1.69,-0.27 0.34,-0.46 0.3,-1.08 -0,-1.49 l 3.65,-5.03 c 0.19,0.11 0.39,0.21 0.6,0.27 l -0.56,2.66 c -0.24,0 -0.47,0.17 -0.62,0.38 -0.31,0.42 -0.22,1 0.2,1.31 0.42,0.3 1.01,0.21 1.31,-0.21 0.31,-0.42 0.21,-1.01 -0.2,-1.31 -0,-0 -0.1,-0 -0.1,-0.1 l 0.56,-2.64 c 0.11,0 0.23,0 0.34,0 0.11,0 0.21,0 0.32,-0 l 0.56,2.65 c -0.2,0.13 -0.36,0.34 -0.41,0.6 -0.11,0.51 0.21,1 0.72,1.11 0.51,0.11 1.01,-0.22 1.11,-0.72 0.11,-0.51 -0.21,-1.01 -0.72,-1.12 -0,0 -0.1,-0 -0.1,-0 l -0.56,-2.64 c 0.21,-0.1 0.41,-0.16 0.6,-0.27 l 3.66,5.04 c -0.34,0.41 -0.37,1.02 -0,1.47 0.39,0.54 1.15,0.66 1.7,0.27 0.54,-0.4 0.66,-1.16 0.26,-1.7 -0.33,-0.46 -0.93,-0.62 -1.43,-0.41 l -3.66,-5.03 c 0.17,-0.14 0.31,-0.31 0.44,-0.48 l 2.37,1.36 c -0,0.24 0,0.49 0.16,0.7 0.31,0.42 0.89,0.52 1.31,0.21 0.42,-0.3 0.51,-0.89 0.21,-1.31 -0.31,-0.42 -0.89,-0.51 -1.31,-0.2 -0,0 -0.1,0 -0.1,0.1 l -2.36,-1.36 c 0.1,-0.19 0.16,-0.4 0.2,-0.62 l 2.73,0.29 c 0.1,0.23 0.21,0.45 0.44,0.58 0.44,0.25 1.02,0.1 1.28,-0.35 0.26,-0.45 0.1,-1.02 -0.35,-1.28 -0.44,-0.26 -1.02,-0.1 -1.28,0.34 -0,0 -0,0.1 -0,0.1 l -2.72,-0.29 c 0,-0.22 -0,-0.43 -0.1,-0.64 l 5.95,-1.93 c 0.29,0.44 0.86,0.66 1.39,0.49 0.64,-0.21 0.98,-0.89 0.78,-1.53 -0.2,-0.64 -0.89,-0.99 -1.53,-0.78 l 0,0 z m 96.96,28.59 -0.1,-16.51 -21,0 0,-32.13 -16.4,0 0,14.45 c -4,-8.586 -12.7,-14.558 -22.8,-14.558 -0.1,0 -0.2,0.01 -0.3,0.02 -0.1,-10e-4 -0.2,-0.02 -0.3,-0.02 -9.8,0 -18.3,5.627 -22.39,13.818 C 93.36,9.225 84.78,3.399 74.81,3.399 64.3,3.399 55.31,9.864 51.57,19.03 47.73,10.09 38.85,3.832 28.51,3.832 14.65,3.832 3.414,15.07 3.414,28.93 c 0,13.86 11.236,25.1 25.096,25.1 10.51,0 19.5,-6.47 23.24,-15.64 3.84,8.94 12.71,15.2 23.06,15.2 9.8,0 18.26,-5.63 22.39,-13.81 4.1,8.42 12.6,14.25 22.6,14.25 0.1,0 0.2,-0 0.3,-0 0.1,0 0.2,0 0.3,0 10.1,0 18.8,-5.95 22.8,-14.52 l 0,13 37.5,0.1 0,0 0,0 z M 28.73,37.37 c -4.78,0 -8.66,-3.88 -8.66,-8.66 0,-4.78 3.88,-8.65 8.66,-8.65 4.77,0 8.65,3.87 8.65,8.65 0,4.78 -3.87,8.66 -8.65,8.66 l 0,0 0,0 z m 56.04,-5.58 c 0.41,0.55 0.73,1.17 0.96,1.86 1.11,3.43 -0.77,7.1 -4.19,8.22 -2.77,0.9 -5.71,-0.16 -7.32,-2.41 -0.4,0.56 -0.89,1.06 -1.47,1.49 -2.92,2.11 -7,1.47 -9.11,-1.45 -1.72,-2.35 -1.62,-5.48 0,-7.7 -0.65,-0.21 -1.28,-0.52 -1.87,-0.94 -2.91,-2.12 -3.56,-6.2 -1.44,-9.11 1.72,-2.36 4.71,-3.23 7.34,-2.36 -0,-0.68 0.1,-1.37 0.32,-2.06 1.11,-3.43 4.79,-5.3 8.22,-4.19 2.77,0.9 4.53,3.48 4.51,6.25 0.64,-0.22 1.34,-0.34 2.06,-0.34 3.6,0 6.52,2.92 6.52,6.53 0,2.91 -1.91,5.37 -4.55,6.21 l 0,0 0,0 z m 42.63,1.47 c -1.5,2.35 -4.1,3.95 -7,4.08 -4.7,-0.14 -8.4,-3.94 -8.4,-8.63 0,-4.7 3.8,-8.51 8.4,-8.63 2.4,0.11 4.5,1.17 6,2.79 l 0.6,0 16.2,0 0,10.39 -15.2,0 -0.6,0 0,0 z"></path> </svg>