<svg xmlns="http://www.w3.org/2000/svg" class="community-logo logo openstack" width="354px" height="363px" viewBox="0 0 354 363">
<path class="logotype" d="m 236.6,5 c -0.2,0 -0.4,0.02 -0.6,0.04 L 54.94,20.79 c -0.26,0 -0.49,0.1 -0.73,0.1 -0.17,0 -0.34,0.1 -0.51,0.1 -7.12,1.31 -12.23,7.41 -12.62,14.52 l 0,0.3 -0.14,45.49 9.64,9.53 -7.48,0.66 29.36,26.54 37.24,-5 -6.3,-6.2 9.9,-0.9 0,-8.61 c 0,-3.96 3.3,-7.47 7.2,-7.82 l 85.5,-7.43 0.2,64.16 9.4,9.3 -6.7,0.5 25.6,25.7 41.2,-3.6 -6.6,-6.5 9.4,-0.8 -0.2,-66.4 -40.8,3.4 -31.5,-28.47 2.1,-2.27 29.4,26.54 37.9,-4.53 -6.7,-6.64 9.8,-0.85 0.1,-45.49 c -0.6,-4.56 -3.5,-8.35 -7.3,-9.73 -1.8,-0.73 -3.7,-0.88 -5.7,-0.56 L 259,37.07 96.74,51.22 83.18,50.99 c -4.04,0.1 -8.26,2.14 -11.15,5.69 1.8,-4.2 5.73,-7.77 10.7,-8.91 l 13.48,-2.69 162.29,-14.1 7,0.17 c 1.5,0.1 3,0.39 4.4,0.92 L 246.2,8.57 C 243.6,6.004 240.1,4.975 236.6,5 Z m -195.83,86.66 -0.1,0 0,0 z m -0,1.78 0.27,67.16 9.39,9.3 -9.1,0.8 c 8.18,7.8 22.51,21.6 28.2,25.5 l 41.91,-3.7 5,4.4 -0.1,8.5 c 0,2.4 1.6,3.8 3.9,3.6 l 0,0 107.3,-9.4 c 2.3,-0.2 4.4,-2.5 4.4,-4.8 l 0,-11.4 -25.7,-25.7 0,8.6 c 0,0.1 0,0.1 0,0.2 0.1,4 -2.4,7 -6.9,7.6 -28.6,2.6 -57.3,5 -86,7.5 l -0.2,-61.7 -37.88,2.8 -5.3,-2.9 z m 0.23,81.06 -0.1,43.1 c 0,3.5 1.35,6.6 3.68,9.1 10.31,9 20.37,19.9 29.55,29.1 1.3,1.3 5.14,3.2 9.35,2.9 L 264.6,242.8 c 7.6,-0.7 13.8,-7.4 13.8,-15 l 0.1,-43.8 -40.5,3.5 0,7.3 0,0 c 0,5.6 -4.4,10.4 -10,10.9 l 0,0 -107.2,9.3 c -5.7,0.6 -10.6,-3.9 -10.6,-9.6 l 0.1,-6.7 -40.27,3.6 C 69.91,200.9 44.14,177.4 40.96,174.5 Z m 255.14,97.7 0,67 8,0 0,-17.7 2.9,-4.4 11,22.1 9,0 -14.7,-27.1 13.5,-19.7 -8.7,0 -10.1,16.5 c -0.9,1.5 -1.8,3.4 -2.7,5.2 l -0.2,0 0,-41.9 z m -86.5,9.2 -8,3 0,8 -6.2,0 0,5.6 6.2,0 0,27.2 c 0,6.4 0.9,9.6 3,11.8 1.9,2 4.7,2.8 8,2.8 2.6,0 4.5,-0.3 5.9,-0.8 l -0.4,-5.7 c -0.8,0.2 -1.9,0.3 -3.2,0.3 -3,0 -5.3,-1.7 -5.3,-7.8 l 0,-27.8 9.8,0 0,-5.6 -9.8,0 z m 120.4,9.1 0,0.9 3.2,0 0,6.8 1.3,0 0,-6.8 3.2,0 0,-0.9 z m 8.9,0 0,7.7 1.2,0 0,-4.6 c 0,-0.2 0,-0.4 0,-0.8 0,-0.4 0,-0.7 0,-0.9 l 0,-0.2 2.8,6.5 1.3,0 2.7,-6.5 c 0,0.4 0,0.8 0,1.1 0,0.4 0,0.7 0,0.8 l 0,4.6 1.2,0 0,-7.7 -1.8,0 -2.8,6.5 -2.7,-6.5 z m -316.93,1.2 c -8.7,0 -16.97,7.1 -16.97,24.2 0,16.4 7.33,24.1 16.44,24.1 7.86,0 16.87,-6.1 16.87,-24.2 0,-16.3 -7.23,-24.1 -16.34,-24.1 z m 43.36,0 c -3.99,0 -7.96,1.7 -10.79,6.7 l -0.22,0 -0.42,-6 -7.11,0 c 0.11,3.2 0.42,7.4 0.42,14.6 l 0,50.8 7.96,0 0,-23.3 0.2,0 c 1.36,2.7 4.09,5.5 8.91,5.5 7.96,0 15.71,-6.9 15.71,-24.3 0,-15.4 -5.76,-24 -14.66,-24 z m 38.67,0 c -10.19,0 -17.21,9.5 -17.21,24.6 0,14.3 6.28,23.5 18.41,23.5 4.1,0 8.4,-0.9 11.2,-2.3 l -1.3,-5.4 c -2,1 -4.8,1.8 -8.4,1.8 -5.8,0 -11.95,-3 -11.95,-17.4 l 23.45,0 c 0.1,-1.2 0.2,-2.5 0.2,-4.3 0,-10.5 -4.2,-20.5 -14.4,-20.5 z m 42,0 c -5.4,0 -9.5,2.6 -11.7,6.4 l -0.2,0 -0.4,-5.7 -7,0 c 0.1,3.7 0.4,6.5 0.4,12 l 0,34.8 8.1,0 0,-29.4 c 0,-1.7 0.1,-3.1 0.4,-4.3 0.9,-4.9 4.2,-7.5 7.5,-7.5 5.9,0 7.1,5.5 7.1,11.1 l 0,30.1 8,0 0,-31.5 c 0,-11.3 -5.2,-16 -12.2,-16 z m 35,0 c -7.8,0 -13.9,5.3 -13.9,12.9 0,5.4 3.6,9.4 10.2,13.3 5.1,3.2 6.5,5.6 6.5,9.2 0,4.2 -3,6.8 -7.5,6.8 -3.2,0 -6.4,-1.4 -8.1,-2.5 l -2,5.7 c 2.2,1.6 6.2,2.7 9.9,2.7 8.4,0 15.3,-4.6 15.3,-14 0,-6.4 -4.6,-10.7 -10.5,-14.2 -5,-3.2 -6.2,-4.9 -6.2,-8 0,-3.1 2.1,-6 6.4,-6 2.8,0 4.9,0.9 6.9,2.1 l 2.1,-5.6 c -2.1,-1.2 -5.1,-2.4 -9.1,-2.4 z m 57.7,0 c -5,0 -9.6,1.6 -11.8,3.1 l 1.8,5.2 c 2.4,-1.5 5.2,-2.4 8.4,-2.4 6.3,0 8,4.2 8,10.5 l 0,1.5 c -11.4,0.1 -21.5,5.2 -21.5,17 0,8.1 5.2,13.4 11.9,13.4 4.4,0 7.9,-2.2 10.2,-5.7 l 0.3,0 0.5,4.9 7.2,0 c -0.4,-3 -0.5,-7.1 -0.5,-10.7 l 0,-20.3 c 0,-10.4 -4.3,-16.5 -14.5,-16.5 z m 43.7,0 c -12.7,0 -20,10.9 -20,24.4 0,15.4 7.4,23.7 18.5,23.7 3.6,0 6.6,-0.8 8.4,-1.8 l -1.1,-5.7 c -1.8,0.9 -3.7,1.3 -5.8,1.3 -7.4,0 -11.9,-6.6 -11.9,-17.5 0,-9.2 3.5,-18.1 11.7,-18.1 2.6,0 4.7,0.7 5.8,1.2 l 1.5,-6.1 c -1.4,-0.7 -4.4,-1.4 -7.1,-1.4 z m -179.3,5.8 c 3.9,0 7.7,4.1 7.6,13.4 l -15.84,0 c 0.31,-6.3 2.92,-13.4 8.24,-13.4 z m -81.44,0.1 c 7.12,0 8.58,11 8.58,18.2 0,7.3 -1.46,18.3 -8.37,18.3 -7.33,0 -8.8,-10.6 -8.8,-18.3 0,-7.2 1.36,-18.2 8.59,-18.2 z m 41.25,0.5 c 6.49,0 9.01,8.1 9.01,17.8 0,9.4 -2.19,17.9 -8.9,17.9 -2.2,0 -5.86,-1.2 -7.43,-7.9 -0.31,-1.1 -0.42,-2.5 -0.42,-3.8 l 0,-12 c 0,-1.3 0.11,-2.6 0.31,-3.6 0.42,-4.3 3.77,-8.4 7.43,-8.4 z m 182.39,16.8 0,9.5 c 0,0.9 -0.1,1.8 -0.3,2.7 -0.9,4.6 -3.9,7.1 -7.4,7.1 -2.8,0 -6.2,-2.2 -6.2,-8.4 0,-10.1 9.7,-10.9 13.9,-10.9 z">
</path>
</svg>