 <svg 
   xmlns="http://www.w3.org/2000/svg"
   viewBox="0 0 588 229"
   height="229"
   width="588"
    > <path 
       d="m 79.31,121.4 0,-13.7 m -0.14,-63.58 0,30.34 16.61,16.48 16.62,-16.48 0,-30.34 -33.23,0 z m 33.23,30.34 0,23.48 23.5,0 21.3,-21.42 -23.5,-23.48 -21.3,21.42 z m 23.5,23.48 -16.6,16.66 16.6,16.6 30.2,0 0,-33.26 -30.2,0 z m 0,33.26 -23.5,0 0,23.4 21.3,21.3 23.5,-23.3 -21.3,-21.4 z m -23.5,23.4 -16.62,-16.6 -16.61,16.6 0,30.2 33.23,0 0,-30.2 z m -33.23,0 0,-23.4 -23.34,0 -21.42,21.4 23.48,23.3 21.28,-21.3 z M 55.83,131.2 72.31,114.6 55.83,97.94 l -30.34,0 0,33.26 30.34,0 z m 0,-33.26 23.34,0 0,-23.48 L 57.89,53.04 34.41,76.52 55.83,97.94 Z m 23.34,0 0,9.56 -6.86,7.1 6.86,6.8 0,9.8 9.75,0 6.86,6.8 6.82,-6.8 9.8,0 0,-9.8 6.9,-6.8 -6.9,-7.1 0,-9.56 -9.8,0 -6.82,-7 -6.86,7 -9.75,0 z M 433.5,124 c -16.2,0 -27.7,11 -27.6,27.8 0,14.7 9.4,27.4 27.6,27.4 8.1,0 14.7,-3 20.4,-8.6 l 0,-20.2 -22.7,0 0,3.7 18.7,0 0,15 c -4.6,4.2 -10.5,6.1 -16.4,6.1 -15.5,0 -23.7,-10.8 -23.7,-23.4 0,-12.5 8.1,-24.1 23.7,-24.1 6.2,0 12.7,2.4 17.5,6.9 l 2.2,-2.5 c -5.4,-5.3 -12.5,-8.1 -19.7,-8.1 z m -246.7,0.7 0,53.8 18.1,0 c 18.8,0 27.5,-13.8 27.4,-27.6 -0.5,-13.1 -9.2,-26.2 -27.4,-26.2 l -18.1,0 z m 74.7,0 -24.2,53.8 4.6,0 5.9,-13.3 32,0 5.9,13.3 4.4,0 -24.1,-53.8 -4.5,0 z m 25.1,0 0,0.1 21,32.2 0,21.5 4,0 0,-21.5 21.2,-32.2 0,-0.1 -4.8,0 -18.3,28.4 -18.3,-28.4 -4.8,0 z m 58.7,0 0,53.8 34.4,0 0,-3.9 -30.3,0 0,-49.9 -4.1,0 z m 44.7,0 0,53.8 4,0 0,-53.8 -4,0 z m 77.9,0 0,53.8 3.9,0 0,-24.4 34.4,0 0,24.4 4.1,0 0,-53.8 -4.1,0 0,25.7 -34.4,0 0,-25.7 -3.9,0 z m 52.6,0.1 0,3.6 19.4,0 0,50.1 4.2,0 0,-50.1 18,0 0,-3.6 -41.6,0 z m -329.7,3.9 14.1,0 c 15.6,0 23,11.1 23.1,22.2 0.3,11.6 -7.1,23.7 -23.1,23.7 l -14.1,0 0,-45.9 z m 72.9,0.1 14.4,32.6 -28.8,0 14.4,-32.6 z M 213.6,50.02 c -18.7,0 -26.8,14.28 -26.8,27.46 0,14.14 9.1,27.72 26.9,27.72 17.9,0 26.9,-13.44 26.9,-27.58 0,-14.14 -8.9,-27.74 -27,-27.6 z m 38,0.69 0,53.69 2.6,0 0,-19.23 20.6,0 c 22.5,0.14 22.5,-34.46 0,-34.46 l -23.2,0 z m 49.7,0 0,53.69 37.5,0 0,-2.3 -35,0 0,-23.66 32.3,0 0,-2.33 -32.3,0 0,-23.07 33.9,0 0,-2.33 -36.4,0 z m 50.1,0 0,53.69 2.4,0 0,-34.75 -0.2,-12.76 38.6,47.51 0,-53.69 -2.5,0 0,34.87 0.3,12.5 -38.4,-47.37 -0.2,0 z m -137.8,1.64 c 16.2,0 24.7,11.81 24.7,25.27 0,12.9 -8.6,25.28 -24.6,25.28 -16.2,0 -24.4,-12.79 -24.6,-25.42 -0.1,-12.63 8.1,-25.13 24.5,-25.13 z m 40.6,0.69 20.6,0 c 19.1,0 19.1,29.8 0,29.8 l -20.6,0 0,-29.8 z"  /> </svg>