<?xml version="1.0"?>
<!--?xml version="1.0" encoding="UTF-8" standalone="no"?-->
<svg xmlns="http://www.w3.org/2000/svg" viewBox="0 0 367 161" width="367" height="161">
  <path d="M 129.03,61.94 C 128.93,42.47 148.98,33.28 162,36.7 v 14.95 c 0,-0.26 -2.9,-0.33 -5.62,-0.33 -8.2,0 -12.3,6.12 -12.3,18.35 V 103 H 129.04 M 329.77,36.01 c -0.44,0 -0.87,0 -1.3,0.1 -0.86,0.1 -1.69,0.18 -2.51,0.35 0,0 -0.1,0 -0.12,0 -0.37,0.1 -0.73,0.15 -1.09,0.25 -10.49,2.42 -20.75,11.11 -20.72,25.23 v 41.07 h 14.68 V 69.67 c 0,-12.12 3.94,-18.23 11.8,-18.34 7.87,0.11 11.81,6.22 11.81,18.34 v 33.34 H 357 V 61.94 c 0,-14.11 -10.23,-22.8 -20.72,-25.23 -0.41,-0.1 -0.8,-0.21 -1.21,-0.28 -0.82,-0.17 -1.68,-0.28 -2.54,-0.35 0,0 0,0 -0.1,0 -0.42,0 -0.83,0 -1.24,-0.1 0,0 -0.1,0 -0.1,0 -0.44,0 -0.89,0 -1.33,0 z M 231.97,37 c -9.47,0 -17.51,3.23 -24.1,9.75 -6.58,6.52 -9.87,14.46 -9.87,23.75 0,9.87 3.23,18.05 9.69,24.56 6.45,6.61 14.47,9.94 24.03,9.94 4.32,0 8.32,-0.67 12.03,-1.97 l 4.72,7.32 c 6.61,10.23 6.52,17.54 -0.28,21.9 -2.26,1.45 -12.08,5.49 -12.19,5.25 l 6.31,13.5 c 13.07,-2.36 38.34,-17.21 22.78,-42.19 L 256.25,95.13 C 262.74,88.63 266,80.61 266,71.03 266,61.47 262.73,53.41 256.19,46.85 249.56,40.28 241.48,37 231.97,37 Z m 0,13.41 c 5.71,0 10.32,1.9 13.81,5.69 3.45,3.74 5.16,8.74 5.16,15 0,6.25 -1.71,11.25 -5.16,15 -3.45,3.74 -8.05,5.59 -13.81,5.59 -5.72,0 -10.32,-1.87 -13.81,-5.66 -3.41,-3.74 -5.1,-8.84 -5.1,-15.28 0,-5.99 1.73,-10.87 5.22,-14.65 3.49,-3.79 8.06,-5.69 13.69,-5.69 z M 161.01,12.29 v -1.97 h -13.27 v 1.97 h 5.58 v 17.42 h 2.11 V 12.29 Z m -16.48,0 V 10.32 H 133.4 v 19.39 h 2.12 v -9.03 h 5.18 v -1.96 h -5.18 V 12.29 Z M 127.61,29.71 V 10.32 h -2.11 v 19.39 z m -7.9,0 V 10.32 h -2.12 v 8.29 h -9.42 v -8.29 h -2.1 v 19.39 h 2.1 v -9.14 h 9.42 v 9.14 z m -18.7,-5.09 q 0,-1.09 -0.28,-1.92 -0.27,-0.83 -0.92,-1.51 -0.62,-0.7 -1.68,-1.28 -1.05,-0.59 -2.62,-1.16 -1.43,-0.53 -2.33,-0.97 -0.86,-0.45 -1.35,-0.89 -0.49,-0.47 -0.65,-0.94 -0.17,-0.5 -0.17,-1.11 0,-0.58 0.19,-1.08 0.22,-0.53 0.65,-0.92 0.47,-0.39 1.17,-0.61 0.7,-0.25 1.68,-0.25 1.43,0 2.46,0.47 1.06,0.45 2.09,1.33 l 1.35,-1.69 q -1.19,-0.96 -2.55,-1.52 -1.32,-0.55 -3.22,-0.55 -1.32,0 -2.43,0.33 -1.09,0.33 -1.87,1 -0.76,0.63 -1.2,1.55 -0.42,0.91 -0.42,2.07 0,1.06 0.27,1.87 0.29,0.79 0.92,1.46 0.65,0.64 1.68,1.22 1.05,0.55 2.6,1.11 1.29,0.46 2.16,0.94 0.86,0.45 1.37,0.91 0.55,0.48 0.77,1.03 0.21,0.55 0.21,1.22 0,1.54 -1.1,2.43 -1.09,0.9 -2.98,0.9 -1.46,0 -2.71,-0.64 -1.24,-0.64 -2.33,-1.69 l -1.4,1.6 q 1.13,1.16 2.75,1.94 1.65,0.75 3.6,0.75 1.49,0 2.66,-0.42 1.16,-0.41 1.98,-1.13 0.81,-0.72 1.21,-1.72 0.44,-1 0.44,-2.13 z M 68.64,9.52 h 3.59 l 8.75,16.9 V 9.52 h 2.59 v 20.19 h -3.6 L 71.23,12.82 v 16.89 h -2.59 z m -18.27,0 h 12.47 v 2.3 h -9.8 v 5.98 h 9.4 v 2.29 h -9.4 v 7.33 h 10.04 v 2.29 H 50.37 Z m -16.41,2.25 v 7.58 h 3.35 q 1.87,0 2.89,-0.99 1.02,-0.98 1.02,-2.81 0,-1.81 -1.02,-2.8 -1.02,-0.98 -2.89,-0.98 z M 31.29,9.52 h 6.02 q 3.32,0 5.01,1.54 1.7,1.53 1.7,4.49 0,3 -1.7,4.52 -1.69,1.53 -5.01,1.53 h -3.35 v 8.11 h -2.67 z m -12,1.85 q -2.9,0 -4.62,2.22 -1.71,2.21 -1.71,6.05 0,3.81 1.71,6.03 1.72,2.21 4.62,2.21 2.91,0 4.61,-2.21 1.7,-2.22 1.7,-6.03 0,-3.84 -1.7,-6.05 -1.7,-2.22 -4.61,-2.22 z m 0,-2.21 q 4.15,0 6.63,2.85 2.49,2.84 2.49,7.63 0,4.77 -2.49,7.63 -2.48,2.84 -6.63,2.84 -4.16,0 -6.66,-2.84 -2.48,-2.85 -2.48,-7.63 0,-4.79 2.48,-7.63 2.5,-2.85 6.66,-2.85 z M 290.7,103 H 276.3 V 36.83 h 14.4 z M 276,21.64 c 0,-2.07 0.74,-3.86 2.2,-5.37 1.47,-1.51 3.23,-2.27 5.27,-2.27 2.08,0 3.86,0.76 5.33,2.27 1.46,1.47 2.2,3.28 2.2,5.42 0,2.15 -0.74,3.98 -2.2,5.48 -1.44,1.51 -3.19,2.27 -5.27,2.27 -2.09,0 -3.86,-0.76 -5.33,-2.27 -1.46,-1.5 -2.2,-3.35 -2.2,-5.53 M 180.47,14 c -2.05,0 -3.79,0.77 -5.25,2.28 -1.47,1.51 -2.22,3.3 -2.22,5.37 0,2.18 0.75,4.02 2.22,5.53 1.46,1.51 3.23,2.28 5.31,2.28 2.08,0 3.85,-0.77 5.28,-2.28 1.47,-1.51 2.19,-3.32 2.19,-5.46 0,-2.15 -0.72,-3.96 -2.19,-5.44 C 184.34,14.77 182.55,14 180.47,14 Z M 173.3,36.83 V 103 h 14.4 V 36.83 Z M 66.05,70.77 c 0,6.43 1.7,11.52 5.11,15.26 3.48,3.79 8.09,5.69 13.8,5.69 5.77,0 10.37,-1.87 13.81,-5.62 3.45,-3.74 5.17,-8.74 5.17,-15 0,-6.25 -1.72,-11.25 -5.17,-15 -3.49,-3.79 -8.09,-5.68 -13.81,-5.68 -5.62,0 -10.19,1.89 -13.67,5.68 -3.5,3.79 -5.24,8.68 -5.24,14.67 M 51,70.51 C 51,61.21 54.29,53.3 60.88,46.78 67.47,40.26 75.49,37 84.96,37 c 9.51,0 17.59,3.28 24.22,9.85 6.55,6.56 9.82,14.62 9.82,24.18 0,9.65 -3.3,17.74 -9.88,24.26 C 102.48,101.76 94.34,105 84.7,105 75.15,105 67.14,101.7 60.68,95.09 54.22,88.57 51,80.37 51,70.51"></path>
</svg>
