<?xml version="1.0"?>
<!--?xml version="1.0" encoding="UTF-8" standalone="no"?-->
<svg xmlns:dc="http://purl.org/dc/elements/1.1/" xmlns:cc="http://creativecommons.org/ns#" xmlns:rdf="http://www.w3.org/1999/02/22-rdf-syntax-ns#" xmlns:svg="http://www.w3.org/2000/svg" xmlns="http://www.w3.org/2000/svg" id="svg390" version="1.2" viewBox="0 0 258.69 60.74" height="60.74pt" width="258.69pt">
  <defs id="defs127"></defs>
  <path d="m 58.04,19.83 c -1.43,5.16 -7.81,7.5 -12.12,4.21 1.4,-5.36 7.92,-7.82 12.12,-4.21 m -0.86,22.52 c -4.66,2.62 -10.82,-0.26 -11.52,-5.63 4.79,-2.79 11.13,0.1 11.52,5.63 M 40.25,57.74 c -5.13,-1.53 -7.34,-7.95 -3.97,-12.19 5.33,1.51 7.67,8.07 3.97,12.19 M 19.49,57.22 c -2.83,-4.54 -0.23,-10.82 5.1,-11.76 3,4.66 0.4,11.12 -5.1,11.76 M 3,40.08 C 4.47,34.94 10.87,32.65 15.15,35.97 13.7,41.33 7.16,43.74 3,40.08 M 3.59,18.56 C 8.18,15.8 14.41,18.46 15.27,23.85 10.56,26.77 4.14,24.07 3.59,18.56 M 19.28,3 c 5.2,1.23 7.79,7.52 4.67,11.95 C 18.53,13.75 15.82,7.33 19.28,3 m 22.95,0.17 c 2.73,4.61 0,10.82 -5.36,11.65 -2.9,-4.73 -0.15,-11.13 5.36,-11.65 m 2.43,13.09 c 0.96,5.26 -3.77,10.15 -9.07,9.06 -1.08,-5.44 3.71,-10.49 9.07,-9.06 m 5.71,14.2 c -3.04,4.4 -9.83,4.51 -12.82,0 3.08,-4.61 10.05,-4.8 12.82,0 m -6,14.07 c -5.26,0.97 -10.15,-3.76 -9.07,-9.06 5.44,-1.08 10.5,3.71 9.07,9.06 M 16.09,44.25 c -0.96,-5.27 3.77,-10.15 9.07,-9.07 1.07,5.44 -3.71,10.49 -9.07,9.07 m -5.71,-14.2 c 3.04,-4.4 9.83,-4.52 12.82,0 -3.08,4.6 -10.04,4.79 -12.82,0 m 6,-14.08 c 5.26,-0.96 10.15,3.76 9.07,9.07 -5.44,1.07 -10.5,-3.72 -9.07,-9.07 m 14.2,-5.71 c 4.4,3.04 4.51,9.83 0,12.82 -4.61,-3.09 -4.79,-10.05 0,-12.82 m 150.76,9.95 V 55.76 H 171.26 V 20.21 c 0,-1.45 -1.13,-2.74 -2.58,-2.74 H 156.59 V 55.76 H 146.52 V 7.4 h 22.16 c 6.86,0 12.66,5.8 12.66,12.81 m -47.79,0 c 0,-1.45 -1.28,-2.66 -2.73,-2.66 h -12.66 v 13.14 l 13.95,-3.63 c 0.8,-0.48 1.44,-1.37 1.44,-2.34 z m 10.08,0 v 4.51 c 0,6.05 -4.43,11.05 -9.99,12.5 l -15.48,4.03 V 55.84 H 108.09 V 7.39 h 22.73 c 7.09,0 12.81,5.73 12.81,12.82 m -48.91,0 c 0,-1.45 -1.2,-2.66 -2.66,-2.66 h -9.19 c -1.45,0 -2.66,1.21 -2.66,2.66 v 22.81 c 0,1.45 1.21,2.66 2.66,2.66 h 9.19 c 1.46,0 2.66,-1.21 2.66,-2.66 z m 10.08,0 v 22.81 c 0,7.01 -5.72,12.74 -12.74,12.74 h -9.19 c -6.93,0 -12.73,-5.73 -12.73,-12.74 V 20.21 c 0,-7.01 5.8,-12.82 12.73,-12.82 h 9.19 c 7.02,0 12.74,5.81 12.74,12.82 M 241.34,55.76 H 230.95 L 216.6,7.39 h 10.72 l 8.79,30.39 8.86,-30.39 h 10.72 z m 0,0 M 195.4,20.21 v 10.32 l 14.83,-3.95 V 37.06 L 195.4,41.01 V 55.76 H 185.32 V 20.21 c 0,-7.01 5.57,-12.82 12.74,-12.82 h 16.93 v 10.08 h -16.93 c -1.45,0 -2.66,1.29 -2.66,2.74" id="path375"></path>
  <metadata id="metadata5170">
    <rdf:rdf>
      <cc:work rdf:about="">
        <dc:title></dc:title>
      </cc:work>
    </rdf:rdf>
  </metadata>
</svg>
