<svg class="logo company-logo oracle"
 xmlns="http://www.w3.org/2000/svg"
 width="562" height="94" viewBox="0 0 662 94">
<path class="logotype" d="m 634.6,16.25 c 0,-3.85 3.1,-6.953 6.9,-6.953 3.9,0 7,3.103 7,6.953 0,3.92 -3.1,7.02 -7,7.02 -3.8,0 -6.9,-3.1 -6.9,-7.02 z m 6.9,8.98 c 5,0 8.9,-3.98 8.9,-8.91 0,-4.94 -3.9,-8.919 -8.9,-8.919 -4.8,0 -8.8,3.979 -8.8,8.919 0,4.93 4,8.91 8.8,8.91 z M 640.7,11 c 1.4,0 2,0.1 2.6,0.32 1.8,0.57 2,2.15 2,2.78 0,0.13 0,0.44 -0.2,0.82 0,0.38 -0.3,1.14 -1.2,1.71 -0.1,0.1 -0.2,0.13 -0.4,0.25 l 2.3,4.11 -2.3,0 -2,-3.79 -1.4,0 0,3.79 -1.9,0 0,-9.99 2.5,0 z m 0.7,4.56 c 0.6,-0.1 1.3,-0.1 1.6,-0.64 0.2,-0.25 0.3,-0.5 0.3,-0.88 0,-0.51 -0.3,-0.95 -0.8,-1.2 -0.4,-0.19 -0.8,-0.19 -1.8,-0.19 l -0.6,0 0,2.91 1.3,0 M 278,59.12 l 40.6,0 -21.4,-34.59 -39.5,62.53 -18,0 48,-75.11 c 2.1,-3.032 5.6,-4.865 9.5,-4.865 3.7,0 7.2,1.77 9.2,4.745 l 48.2,75.23 -18,0 -8.5,-13.97 -41.1,0 -9,-13.97 z m 186.5,13.97 0,-65.247 -15.2,0 0,71.627 c 0,1.96 0.7,3.86 2.2,5.32 1.4,1.45 3.4,2.27 5.5,2.27 l 69.5,0 9,-13.97 -71,0 z M 212.4,61.39 c 14.8,0 26.8,-11.95 26.8,-26.74 0,-14.79 -12,-26.807 -26.8,-26.807 l -66.6,0 0,79.217 15.2,0 0,-65.24 50.4,0 c 7.1,0 12.8,5.75 12.8,12.83 0,7.08 -5.7,12.83 -12.8,12.83 l -42.9,-0.1 45.5,39.64 22.1,0 -30.6,-25.67 6.9,0 z M 52.02,87.06 C 30.15,87.06 12.41,69.36 12.41,47.48 12.41,25.61 30.15,7.843 52.02,7.843 l 46.05,0 c 21.83,0 39.63,17.767 39.63,39.637 0,21.88 -17.8,39.58 -39.63,39.58 l -46.05,0 z M 97.04,73.09 c 14.16,0 25.66,-11.44 25.66,-25.61 0,-14.16 -11.5,-25.66 -25.66,-25.66 l -44,0 c -14.16,0 -25.64,11.5 -25.64,25.66 0,14.17 11.48,25.61 25.64,25.61 l 44,0 z M 386.4,87.06 c -21.9,0 -39.7,-17.7 -39.7,-39.58 0,-21.87 17.8,-39.637 39.7,-39.637 l 54.6,0 -8.9,13.977 -44.7,0 c -14.2,0 -25.7,11.5 -25.7,25.66 0,14.17 11.5,25.61 25.7,25.61 l 54.9,0 -9,13.97 -46.9,0 z M 572.7,73.09 C 561,73.09 551.1,65.25 548,54.44 l 65.1,0 9,-13.97 -74.1,0 c 3.1,-10.75 13,-18.65 24.7,-18.65 l 44.7,0 9,-13.977 -54.7,0 c -21.9,0 -39.7,17.767 -39.7,39.637 0,21.88 17.8,39.58 39.7,39.58 l 46.9,0 9,-13.97 -54.9,0 z">
</path>
</svg>