<?xml version="1.0"?>

<svg xmlns="http://www.w3.org/2000/svg" viewBox="0 0 2359 384.3" width="2359" height="384.3"> <path d="m 1919,231.5 96,0 c -2,16.4 -16,46.2 -20,55.3 -18,0 -36,-0.2 -52,-0.9 l 20,40.2 c 51,0 171,-17 226,-26.7 3,13.1 5,24.2 6,29.9 l 70,-13.9 c -20,-38.4 -37,-66.9 -51,-83.9 l 86,0 0,-21.3 -381,0 0,21.3 z m 264,46.7 c -24,2.2 -81,6.1 -140,7.8 18,-17 36,-39.9 45,-54.5 l 80,0 c 5,11.9 10,29.4 15,46.7 m -175,-118.7 0,19.1 198,0 0,-13.6 c 21,13.3 42,24.4 62,30.6 l 36,-34.4 C 2196,128.1 2134,59.5 2134,59.5 l -76,0 c -36,52.2 -66,82.5 -148,99.5 l 13,14.6 c 32,0 60,-5.5 85,-14.1 z m 114,-77.6 c 10,20.9 39,50.5 73,75 l -180,0 c 54,-20 90,-53.5 107,-75 m -415,157.1 -150,0 1,82.1 176,0 c 0,0 0,-50.8 0,-62.2 0,-11.3 -14,-19.9 -27,-19.9 z m -32,61.9 -56,0 0,-44.8 56,0 0,44.8 m 0,-242.8 -67,0 1,34.8 -160,0 0,22.8 98,0 6,36.9 -85,0 0,168.5 52,0 0,-147.5 63,0 c -6,14.6 -17,30.5 -48,37.3 l 31,20.3 c 29,-7.6 71,-40.8 85,-57.6 l 18,0 c 0,3.7 0,9.6 0,17.1 0,12.8 8,27 27,27 l 78,0 0,80.3 -26,0.7 14,23.5 73,0 -1,-132.9 c 0,-18.2 -16,-36.7 -54,-36.7 l -44,0 c 11,-10.2 25,-24.9 35,-36.9 l 77,0 0,-22.8 -173,0 0,-34.8 z m 99,142.5 c -9,0 -26,0 -31,0 -8,0 -11,-3.5 -11,-11 l 0,-16 42,0 0,27 z m -87,-48 -76,0 -28,-36.9 124,0 c -3,10.8 -11,25 -20,36.9 m -312,58 -14,-34.1 c -14,6.6 -41,19 -78,21.2 0,-0.9 -1,-1.8 -1,-2.8 -2,-12.5 -3,-22.5 -4,-29.4 20,-5.5 39,-11.5 54,-18.2 l 50,0 0,-22 -243,0 0,22 77,0 c -20,14.5 -74,23.1 -84,23.1 l 20,21.7 c 11,-2.1 25,-4.5 40,-7.4 -14,29.3 -48,43.8 -66,50 l 19,16.8 c 11,-4 23,-8.9 35,-13.9 -15,24.2 -53,51.2 -73,61.5 l 18,12.4 c 32,-13.3 84,-43.6 103,-56.8 0,8.7 -1,17.6 -3,26.6 -1,12.1 -11,14.3 -19,13.9 -17,-1.1 -22,-2.5 -22,-2.5 l 20,25.9 56,0 c 11,0 20,0.2 22,-15.2 1,-7.6 3,-18.7 4,-32.5 25,20.8 60,38.6 77,42.4 l 30,-32.7 c -19,-7 -78,-28.3 -103,-49.2 33,-4 73,-14.1 85,-20.8 z m -152,-32.2 c 3,10 5,21.6 5,34.5 -13,-5.4 -23,-19 -30,-29.4 8,-1.6 17,-3.3 25,-5.1 z m -31,54 c 15,-6.9 29,-13.7 37,-18.4 0,11.7 0,24.3 0,37.5 -16,-3.8 -24,-10.2 -37,-19.1 m 9,-152.3 125,0 0,27.7 62,0 c 0,-29.8 -16,-48.7 -47,-48.7 l -204,0 0,49.1 64,0 0,-28.1 M 1105,218 c -6,3 -15,6.6 -25,10.2 l 0,-89.4 38,0 0,-18.5 -38,0 0,-51.6 -48,0 1,51.6 -43.4,0 -1,18.5 44.4,0 0,105.5 c -18,5.6 -34.4,9.7 -41.4,10 l 19.4,51.9 c 16,-7.5 83,-37 104,-53.7 L 1105,218 M 757.9,118.5 757.9,68 684,68 c 0,0 0.4,34.9 0.4,51.2 0,1.9 -0.1,3.8 -0.2,5.7 l -149.5,0 0,26.3 146.9,0 c -11.8,65.6 -61,115.8 -148,144.3 l 31.3,23.1 c 107,-18.8 168.5,-129 168.5,-143.6 0,15 59.4,110.2 148.6,144.4 l 38.6,-42 C 881.7,260.7 835.8,241.1 801.7,207 782.1,187.4 770.6,168.1 764.4,151.2 l 163.2,0 0,-26.3 -169.3,0 c -0.2,-2.2 -0.4,-4.4 -0.4,-6.4 m -325,17.3 c -6.6,3.2 -13.9,0 -18.6,-3.9 -4.8,-3.9 -12.1,-3.6 -19,-5.4 -6.9,-1.8 -24,-0.3 -35.7,2.2 6.6,1.4 27,11.4 32.4,15.3 9.9,7.1 21.5,15.7 21.5,39.2 0,34.6 -40.8,72.1 -97.6,96.7 C 259,304.5 209.1,312 161.3,312 99.4,312 67.7,279.5 67.7,253.1 c 0,-72 133.4,-144 188,-164.4 21.5,-8 72.9,-24.2 83.5,-24.2 50.3,0 84.5,36 99.1,56.7 3.7,5.3 -0.3,12.1 -5.4,14.6 z m -269.7,79.5 c -19.7,19.3 -22.3,37.5 -22.3,43.9 0,15.3 23.7,32.1 60.5,32.1 36.8,0 103.1,-20.5 130.1,-42.1 39.8,-31.7 42.7,-56 42,-64.9 -2.5,-30.4 -27.4,-31 -38,-31 -10.5,0 -21.5,0 -43,12.8 -21.5,12.8 -33.1,33.2 -37.5,41 -4.4,7.9 -5.8,12.9 -9.8,13.6 -4,0.7 -10.4,-5 -14.3,-10.7 -4.3,-6.4 -5.1,-8.6 -2.5,-12.5 7.3,-13.2 40.8,-38.5 57.2,-49.9 -61.6,18.2 -102.8,48.5 -122.4,67.7 M 449.3,55 55,55 l 0,267.7 393.8,0 0.5,-267.7 z m -12.2,11.8 c 0,11.1 -0.4,232.9 -0.5,244 -11.5,0 -357.8,0 -369.4,0 0,-11.1 0,-232.9 0,-244 11.6,0 358.3,0 369.9,0"></path> </svg>