<svg
  xmlns="http://www.w3.org/2000/svg"
  viewBox="123.73 395.804 1203.54 512.063" width="512px"  height="512px">
<g>
  <path class="logotext" d="M262.192,630.954c-76.348,0-138.462,62.102-138.462,138.451c0,76.347,62.114,138.46,138.461,138.46
    s138.458-62.114,138.458-138.46C400.646,693.056,338.539,630.954,262.192,630.954z M262.192,843.964
    c-41.11,0-74.558-33.45-74.558-74.56c0-41.113,33.446-74.559,74.558-74.559c41.105,0,74.552,33.443,74.552,74.559
    C336.744,810.512,303.297,843.964,262.192,843.964z"></path>
  <path class="logotext" d="M1327.27,630.954h-74.547V524.448h-63.899v106.506h-85.218h-63.903h-85.207V524.453
    c0-34.289,7.188-45.493,9.541-48.288c5.858-7.063,16.701-16.457,43.048-16.457c3.696,0,12.312,0.925,28.413,7.118l22.938-59.647
    c-19.9-7.655-36.698-11.375-51.353-11.375c-39.427,0-70.453,13.31-92.076,39.374c-16.435,19.517-24.417,48.714-24.417,89.275
    v106.501h-85.21V524.448h-63.905v106.506H603.015v153.758c0,12.494-1.396,23.085-4.148,31.496
    c-2.052,5.46-5.672,10.473-10.854,15.133c-9.62,8.489-22.134,12.622-38.252,12.622c-15.98,0-28.428-4.133-38.012-12.598
    c-5.649-5.001-9.428-10.172-11.54-15.805l-0.305-0.796c-1.022-2.52-3.396-10.492-3.396-30.057V630.954H432.6v153.758
    c0,22.732,2.586,40.286,7.907,53.642c5.806,15.298,15.519,29.033,28.915,40.896c21.505,18.991,48.533,28.617,80.335,28.617
    c31.929,0,59.027-9.626,80.757-28.812c13.324-11.979,22.93-25.9,28.549-41.38l0.257-0.742c5.043-15.03,7.602-32.599,7.602-52.22
    v-89.865h74.556v213.019h63.904V694.848h85.21v213.019h63.903V694.848h85.207l0.009,213.019h63.903l-0.01-213.019h85.219v213.019
    h63.899V694.848h74.548V630.954L1327.27,630.954z"></path>
  <path class="logotext" d="M1039.709,556.4c0,17.646,14.311,31.945,31.951,31.945c17.64,0,31.951-14.302,31.951-31.945
    c0-17.646-14.312-31.953-31.951-31.953C1054.02,524.448,1039.709,538.756,1039.709,556.4z"></path>
</g>
</svg>
