<?xml version="1.0"?>

<svg xmlns="http://www.w3.org/2000/svg" viewBox="0 0 600 154" height="154" width="600">
<path d="m 500.6,100.3 0,0 0,0 z m 23.1,-78.35 c -30.4,0 -55,24.61 -55,54.98 0,10.82 3.1,20.9 8.5,29.37 l 23.3,-6.2 0,-46.35 46.4,0 0,46.35 -46.4,0 -6.2,23.3 c 8.5,5.3 18.6,8.5 29.4,8.5 30.3,0 55,-24.6 55,-54.97 0,-30.37 -24.7,-54.98 -55,-54.98 m -113.5,81.25 0,-52.8 36.5,0 0,6.27 -29.1,0 0,16.1 27.3,0 0,6.27 -27.3,0 0,17.92 29.1,0 0,6.24 -36.5,0 z m -19.5,0 -15.8,-21.47 -15.8,0 0,21.47 -7.3,0 0,-52.8 25.6,0 c 10.1,0 16.5,7.47 16.5,15.7 0,6.59 -4,12.62 -11.1,14.68 l 16.6,22.42 -8.7,0 z m -14.2,-46.76 -17.4,0 0,19.43 17.4,0 c 6.1,0 10,-3.89 10,-9.77 0,-5.85 -4.6,-9.66 -10,-9.66 m -61.2,47.76 c -13.7,0 -21.9,-9.76 -21.9,-20.54 l 0,-33.13 7.4,0 0,33.29 c 0,8.88 6.1,13.96 14.5,13.96 8.4,0 14.6,-5.47 14.6,-13.96 l 0,-33.29 7.3,0 0,33.13 c 0,10.78 -8.2,20.54 -21.9,20.54 m -49.7,-47.46 0,46.46 -7.3,0 0,-46.46 -17.9,0 0,-6.34 43,0 0,6.34 -17.8,0 z m -38.1,46.46 -15.8,-21.47 -15.8,0 0,21.47 -7.3,0 0,-52.8 25.6,0 c 10.1,0 16.5,7.47 16.5,15.7 0,6.59 -4,12.62 -11.1,14.68 l 16.6,22.42 -8.7,0 z m -14.2,-46.76 -17.4,0 0,19.43 17.4,0 c 6.1,0 10,-3.89 10,-9.77 0,-5.85 -4.6,-9.66 -10,-9.66 m -77.1,46.76 0,-52.8 36.4,0 0,6.27 -29,0 0,16.1 27.3,0 0,6.27 -27.3,0 0,17.92 29,0 0,6.24 -36.4,0 z m -31.2,0 -6.55,0 -20.15,-52.8 7.15,0 16.25,43.55 16.3,-43.55 7.1,0 -20.1,52.8 z m -57.26,1 C 32.78,104.2 22.05,91.91 22.05,77 c 0,-14.9 10.73,-27.29 25.69,-27.29 14.95,0 25.68,12.39 25.68,27.29 0,14.91 -10.73,27.2 -25.68,27.2 m 0,-48.15 c -11.06,0 -18.53,8.98 -18.53,20.95 0,11.97 7.47,20.86 18.53,20.86 11.05,0 18.2,-8.89 18.2,-20.86 0,-11.97 -7.15,-20.95 -18.2,-20.95"></path> 
</svg>