<?xml version="1.0" encoding="UTF-8" standalone="no"?>
<svg 
   xmlns="http://www.w3.org/2000/svg"
   viewBox="0 0 90 40"
 
   width="90"
   height="40">
  
  <path
     d="m 84.09,16.6 0,-1.5 -5.81,0 0,-7.2 -0.6,0 c -0.5,2.5 -1.19,5.4 -2.69,7.2 l -3.31,0 0,1.5 3.31,0 0,13.2 c 0,3.8 3,4.2 4.29,4.2 l 4.5,-1.9 -2.19,0 c -1.71,0 -3.31,-0.9 -3.31,-3.8 l 0,-11.7 5.81,0 m -21.9,-2 -6.1,0.9 c 1.5,1 3.1,2 3.1,2.9 l 0,15.2 3.5,0 0,-12.2 c 0,-2.9 1.7,-3.9 2.8,-3.9 0.79,0 1.5,-0.1 2.9,0.5 0.5,0.5 0.5,1.6 0.7,1.6 l 1.7,-3.2 c 0,-0.8 -0.5,-1.8 -1.9,-1.8 -1.71,0 -3.1,0.8 -6.2,3 l -0.5,-3 m -15.4,0.9 c 0.9,0.8 3.1,1.6 3.1,2.9 l 0,15.2 3.6,0 0,-18.8 -0.1,-0.2 -6.6,0.9 m 7.3,-6.7 c 0,1.3 -1,2.4 -2.3,2.4 -1.3,0 -2.4,-1.1 -2.4,-2.4 0,-1.3 1.1,-2.3 2.4,-2.3 1.3,0 2.3,1 2.3,2.3 z M 21.74,6 c 0.7,0.5 1.4,0.9 2.1,1.4 l 5.53,13.4 4.73,12.8 2.58,0 5.4,-13.8 c 1.7,-4.4 4.4,-10.8 5.5,-12.9 l 0.9,-0.9 -2.7,0 0,0.2 -4.2,11.6 -4.8,11.5 -0.5,-0.1 L 32.16,18.9 27.4,6.7 c 0,-0.3 0,-0.5 0,-0.7 l -5.62,0 m -5.83,8.5 c -5.55,0 -10.035,4.4 -10.035,9.8 0,5.3 4.485,9.7 10.035,9.7 5.54,0 10.03,-4.4 10.03,-9.7 0,-5.4 -4.49,-9.8 -10.03,-9.8 z m 0,1.6 c 3.5,0 6.34,3.6 6.34,8.2 0,4.5 -2.83,8.1 -6.34,8.1 -3.51,0 -6.345,-3.6 -6.345,-8.1 0,-4.6 2.835,-8.2 6.345,-8.2 z"
     />
   
</svg>
