<?xml version="1.0"?>

<svg xmlns="http://www.w3.org/2000/svg" viewBox="0 0 477.342 248.908" id="svg8944" height="248.908" width="477.342" version="1.1">

  <path d="m 283.179,22 c -19.486,5e-4 -35.24,15.7541 -35.24,35.2402 0,8.0219 2.675,15.408 7.176,21.3261 9.784,-11.3171 24.231,-18.4941 40.345,-18.4941 7.892,0 15.379,1.7332 22.122,4.8164 0.543,-2.463 0.839,-5.02 0.839,-7.6484 0,-19.4868 -15.755,-35.2408 -35.242,-35.2402 z m 12.281,42.0722 c -15.149,0 -28.686,6.8171 -37.732,17.5471 6.411,6.692 15.435,10.861 25.452,10.861 15.447,0 28.541,-9.903 33.308,-23.7147 -6.378,-3.0059 -13.503,-4.6934 -21.028,-4.6934 z m -56.011,60.3768 c -10.683,0 -19.299,8.616 -19.299,19.299 0,10.682 8.616,19.299 19.299,19.299 8.205,0 15.174,-5.094 17.972,-12.293 -6.899,-7.024 -11.865,-15.946 -14.048,-25.907 -1.267,-0.26 -2.579,-0.398 -3.924,-0.398 z m 8.412,1.941 c 2.023,7.444 5.741,14.183 10.719,19.782 0.1,-0.796 0.168,-1.601 0.168,-2.424 0,-7.66 -4.442,-14.237 -10.887,-17.358 z m 18.404,14.309 v 70.076 c 0,8.882 7.242,16.123 16.123,16.123 v -4 c -6.72,0 -12.123,-5.402 -12.123,-12.123 v -70.076 z m 185.018,0 v 38.168 l -20.211,0.03 c -13.229,0 -23.996,10.771 -23.996,24 0,13.229 10.769,23.998 24,23.998 h 9.847 v -0.236 c 3.203,-0.516 6.333,-2.15 8.889,-4.535 3.088,-2.882 5.387,-6.866 5.469,-11.322 0.138,-7.643 0,-29.89 0,-29.926 v 0 -0.981 -39.191 z m -199.551,11.879 c -6.804,0.02 -13.179,1.878 -18.662,5.097 1.884,0.853 3.975,1.34 6.193,1.366 2.484,-1.016 5.118,-1.738 7.862,-2.127 1.819,-1.105 3.377,-2.592 4.607,-4.336 z m -25.549,10.301 c -7.089,6.77 -11.517,16.303 -11.517,26.863 0,20.503 16.666,37.164 37.168,37.164 v -4 c -18.34,0 -33.168,-14.823 -33.168,-33.164 0,-9.877 4.304,-18.727 11.136,-24.799 -1.271,-0.582 -2.482,-1.273 -3.619,-2.064 z m -47.18,15.826 c -13.231,0 -24,10.769 -24,24 v 22.201 h 4 v -22.201 c 0,-11.069 8.931,-20 20,-20 11.072,0 20.002,8.931 20.002,20 v 22.201 h 4 v -22.201 c 0,-13.231 -10.769,-24 -24.002,-24 z m 134.509,0.201 c -13.231,0 -24,10.77 -24,24.002 0,13.232 10.769,24 24,24 13.231,0 24.002,-10.768 24.002,-24 0,-13.232 -10.77,-24.002 -24.002,-24.002 z m -267.512,0 c -13.2306,0 -24,10.769 -24,24 0,13.23 10.7694,23.998 24,23.998 13.2305,0 23.9985,-10.768 23.9985,-23.998 0,-13.231 -10.768,-24 -23.9985,-24 z m 35.9995,1.795 v 30.072 c 0,8.882 7.244,16.123 16.124,16.123 6.0735,0 11.3765,-3.387 14.1255,-8.367 2.749,4.98 8.052,8.367 14.125,8.367 8.88,0 16.124,-7.241 16.124,-16.123 v -30.072 h -4 v 30.072 c 0,6.72 -5.405,12.123 -12.124,12.123 -6.721,0 -12.125,-5.403 -12.125,-12.123 v -30.072 h -4 v 30.072 c 0,6.721 -5.403,12.123 -12.1255,12.123 -6.719,0 -12.123,-5.403 -12.124,-12.123 v -30.072 z m 266.0095,0 v 22.205 c 0,13.229 10.769,23.998 24,23.998 13.231,0 24.003,-10.769 24.003,-23.998 v -22.205 h -4 v 22.205 c 0,11.067 -8.933,19.998 -20.003,19.998 -11.069,0 -20,-8.931 -20,-19.998 v -22.205 z m 103.274,2.164 c 0.01,2.632 0.126,20.897 0,27.857 -0.06,3.096 -1.74,6.174 -4.199,8.469 -2.459,2.295 -5.65,3.695 -8.161,3.695 h -2 -5.847 c -11.069,0 -20,-8.931 -20,-19.998 0,-11.069 8.931,-20 20,-20 z m -137.771,0.04 c 11.069,0 20.002,8.932 20.002,20.002 0,11.07 -8.933,20 -20.002,20 -11.07,0 -20,-8.93 -20,-20 0,-11.07 8.93,-20.002 20,-20.002 z m -267.512,0 c 11.0685,0 19.9985,8.931 19.9985,20 0,11.069 -8.93,19.998 -19.9985,19.998 -11.0688,0 -20,-8.929 -20,-19.998 0,-11.069 8.9312,-20 20,-20 z M 295.46,64.0722 c -27.268,0 -49.334,22.0641 -49.334,49.3338 0,27.267 22.065,49.326 49.334,49.326 27.27,0 49.334,-22.059 49.334,-49.326 0,-27.2697 -22.065,-49.3338 -49.334,-49.3338 z m -53.548,0.1993 c -21.155,5e-4 -38.26,17.1068 -38.26,38.2615 0,12.454 5.933,23.501 15.127,30.484 3.889,-7.459 11.694,-12.568 20.67,-12.568 1.082,0 2.142,0.09 3.185,0.23 -0.324,-2.38 -0.507,-4.804 -0.507,-7.273 0,-11.852 3.882,-22.8027 10.434,-31.6617 -3.968,-4.9509 -6.763,-10.8813 -7.959,-17.3693 -0.889,-0.062 -1.784,-0.1035 -2.69,-0.1035 z m 6.867,0.625 c 1.116,5.0509 3.316,9.6884 6.34,13.6638 2.464,-2.8492 5.216,-5.4417 8.224,-7.7166 -4.308,-2.9165 -9.24,-4.9847 -14.564,-5.9472 z m 17.861,8.4687 c -3.299,2.3774 -6.293,5.1471 -8.91,8.2501 5.449,5.688 12.788,9.551 21.021,10.58 -2.082,-7.454 -6.376,-13.965 -12.111,-18.8301 z m -11.365,11.4221 c -5.754,8.069 -9.149,17.9407 -9.149,28.6187 0,2.813 0.248,5.566 0.7,8.25 6.642,2.226 11.963,7.364 14.427,13.894 11.323,-6.639 18.92,-18.925 18.92,-33.017 0,-2.119 -0.177,-4.1937 -0.507,-6.2187 -9.513,-0.847 -18.049,-5.102 -24.391,-11.527 z m 106.574,2.252 c -6.433,0 -12.489,1.589 -17.807,4.386 3.043,6.707 4.752,14.1437 4.752,21.9807 0,14.601 -5.888,27.836 -15.412,37.471 7,7.788 17.154,12.683 28.467,12.683 21.156,0 38.262,-17.105 38.262,-38.262 -10e-4,-21.154 -17.108,-38.2597 -38.262,-38.2587 z m -21.254,6.433 c -10.258,6.8577 -17.006,18.5427 -17.006,31.8257 0,8.399 2.703,16.152 7.278,22.458 8.618,-8.879 13.928,-20.985 13.928,-34.35 0,-7.098 -1.506,-13.8377 -4.2,-19.9337 z M 239.449,124.449 c -7.642,0 -14.207,4.42 -17.336,10.84 5.774,3.493 12.548,5.503 19.799,5.504 2.526,0 4.989,-0.259 7.377,-0.727 -2.705,-4.668 -4.722,-9.78 -5.913,-15.203 -1.268,-0.262 -2.579,-0.414 -3.927,-0.414 z m 8.41,1.933 c 1.226,4.514 3.066,8.772 5.441,12.67 1.495,-0.466 2.955,-1.009 4.366,-1.646 -1.683,-4.851 -5.24,-8.808 -9.807,-11.024 z M 237.181,38.3144 c -10.148,0 -18.332,8.1838 -18.332,18.3321 0,3.2951 0.874,6.3749 2.387,9.0429 6.116,-3.4438 13.166,-5.4178 20.676,-5.4179 0.725,0 1.444,0.024 2.16,0.06 0,0 0,-0.01 0,-0.014 -0.04,-0.489 -0.07,-0.9788 -0.09,-1.4726 -0.03,-0.5326 -0.04,-1.0668 -0.04,-1.6055 0,-0.7004 0.02,-1.3964 0.06,-2.0879 0,-0.093 0.01,-0.1845 0.02,-0.2773 0.04,-0.5894 0.08,-1.1757 0.141,-1.7578 0.02,-0.1711 0.04,-0.3394 0.06,-0.5098 0.06,-0.5107 0.125,-1.0209 0.203,-1.5254 0.02,-0.135 0.05,-0.2678 0.07,-0.4023 0.09,-0.5524 0.194,-1.1022 0.31,-1.6465 0.01,-0.048 0.02,-0.096 0.03,-0.1446 0.135,-0.6216 0.283,-1.2373 0.448,-1.8476 0,-0.018 0.01,-0.036 0.02,-0.055 0.171,-0.6323 0.359,-1.2577 0.561,-1.877 0,-0.018 0.01,-0.035 0.02,-0.053 0.205,-0.6252 0.426,-1.2425 0.66,-1.8535 0.239,-0.6197 0.492,-1.2317 0.76,-1.8359 0,0 0,-0.01 0,-0.01 -2.899,-1.9202 -6.376,-3.043 -10.125,-3.043 z m 13.313,5.7364 c -0.203,0.5027 -0.394,1.0115 -0.575,1.5253 0,0.023 -0.02,0.046 -0.02,0.068 -0.176,0.5049 -0.341,1.0143 -0.494,1.5293 -0.158,0.5314 -0.304,1.0678 -0.438,1.6094 -0.132,0.5364 -0.251,1.0792 -0.359,1.625 0,0.046 -0.02,0.093 -0.03,0.1386 -0.09,0.4898 -0.18,0.9818 -0.255,1.4786 -0.03,0.2166 -0.06,0.4363 -0.08,0.6543 -0.05,0.3513 -0.09,0.702 -0.13,1.0566 -0.02,0.2213 -0.03,0.4455 -0.05,0.668 -0.03,0.364 -0.06,0.7266 -0.08,1.0937 -0.03,0.5769 -0.04,1.1582 -0.04,1.7422 0,0.5923 0.01,1.1806 0.04,1.7656 0.02,0.4416 0.06,0.8793 0.101,1.3164 0.01,0.1356 0.02,0.2731 0.03,0.4082 2.239,0.3311 4.423,0.834 6.536,1.502 0.56,-1.7606 0.867,-3.6362 0.867,-5.5859 0,-4.8911 -1.914,-9.3136 -5.019,-12.5957 z m 73.527,6.916 c -0.704,0 -1.402,0.026 -2.096,0.066 0.06,0.3493 0.1,0.7024 0.147,1.0547 0.03,0.2295 0.06,0.4587 0.09,0.6894 0.03,0.3122 0.07,0.6252 0.09,0.9395 0.03,0.3197 0.05,0.641 0.07,0.9629 0.02,0.266 0.04,0.5313 0.05,0.7988 0.03,0.5844 0.04,1.1708 0.04,1.7617 0,0.6356 -0.02,1.2663 -0.05,1.8945 -0.01,0.2515 -0.04,0.4998 -0.05,0.75 -0.03,0.3818 -0.05,0.7639 -0.09,1.1426 -0.03,0.2709 -0.06,0.5394 -0.09,0.8086 -0.04,0.3526 -0.08,0.7051 -0.135,1.0547 -0.04,0.2786 -0.09,0.5554 -0.133,0.832 -0.06,0.3406 -0.116,0.6801 -0.181,1.0176 -0.05,0.2713 -0.108,0.5413 -0.166,0.8106 -0.07,0.328 -0.148,0.6536 -0.227,0.9785 -0.02,0.068 -0.03,0.1353 -0.05,0.2031 8.852,4.9065 16.166,12.2523 21.026,21.1333 5.096,-2.672 10.796,-4.342 16.846,-4.729 C 357.557,65.0937 342.461,50.9664 324.01,50.9664 Z m -6.072,0.5312 c -6.81,1.1796 -12.942,4.3095 -17.809,8.791 6.176,0.5386 12.047,2.1329 17.442,4.5996 0.01,-0.055 0.03,-0.1103 0.04,-0.166 0.05,-0.2479 0.104,-0.4962 0.152,-0.7461 0.06,-0.3052 0.113,-0.6119 0.164,-0.9199 0.04,-0.2261 0.07,-0.4521 0.107,-0.6797 0.05,-0.3443 0.09,-0.6915 0.133,-1.039 0.03,-0.2297 0.06,-0.4585 0.08,-0.6895 0.04,-0.3691 0.06,-0.7408 0.08,-1.1133 0.01,-0.1862 0.03,-0.3715 0.04,-0.5586 0.03,-0.5751 0.04,-1.1542 0.04,-1.7363 0,-0.5481 -0.02,-1.0929 -0.04,-1.6348 -0.01,-0.2292 -0.02,-0.4574 -0.04,-0.6855 -0.02,-0.2842 -0.04,-0.5673 -0.06,-0.8496 -0.03,-0.3274 -0.06,-0.6538 -0.102,-0.9785 -0.02,-0.1463 -0.04,-0.2918 -0.06,-0.4375 -0.05,-0.3871 -0.104,-0.7732 -0.166,-1.1563 z m -21.375,12.6016 c -4.874,6.0416 -7.795,13.7257 -7.795,22.1097 0,1.956 0.169,3.871 0.474,5.74 3.628,-0.629 7.064,-1.809 10.219,-3.453 0.437,-0.228 0.867,-0.464 1.293,-0.709 0.01,0 0.03,-0.02 0.04,-0.02 0.01,0 0.02,-0.01 0.03,-0.02 0.425,-0.246 0.845,-0.501 1.258,-0.764 0,0 0,0 0.01,0 0,0 0,0 0.01,0 0.42,-0.267 0.834,-0.543 1.242,-0.828 0,0 0,0 0,0 0,0 0.01,0 0.02,-0.01 0.408,-0.286 0.808,-0.579 1.203,-0.881 1.603,-1.225 3.097,-2.585 4.465,-4.063 0.28,-0.301 0.552,-0.612 0.821,-0.923 0.09,-0.101 0.175,-0.201 0.261,-0.303 0.232,-0.275 0.457,-0.554 0.68,-0.836 0.103,-0.131 0.207,-0.261 0.309,-0.393 0.212,-0.276 0.42,-0.555 0.625,-0.838 0.114,-0.158 0.227,-0.3175 0.339,-0.4781 0.188,-0.2687 0.373,-0.5402 0.553,-0.8144 0.11,-0.1668 0.217,-0.3352 0.324,-0.5039 0.176,-0.2772 0.35,-0.5556 0.518,-0.8379 0.115,-0.1941 0.226,-0.3915 0.338,-0.5879 0.147,-0.2582 0.295,-0.5152 0.435,-0.7774 0.11,-0.2042 0.213,-0.4125 0.319,-0.6191 0.142,-0.2782 0.287,-0.5555 0.422,-0.8379 0.126,-0.2646 0.243,-0.5345 0.363,-0.8027 0.09,-0.1976 0.183,-0.3923 0.267,-0.5918 0,0 0,-0.01 0,-0.012 0.09,-0.2097 0.167,-0.425 0.252,-0.6368 0.116,-0.2884 0.234,-0.5749 0.342,-0.8672 0.09,-0.2379 0.169,-0.4802 0.252,-0.7207 0,-0.01 0,-0.021 0.01,-0.031 -6.062,-2.8568 -12.801,-4.5084 -19.914,-4.666 z m -54.662,0.1719 c -6.644,1e-4 -12.886,1.6887 -18.327,4.6582 3.352,3.7083 8.187,6.0488 13.596,6.0488 3.58,0 6.905,-1.03 9.719,-2.7969 -0.257,-0.6216 -0.498,-1.2515 -0.723,-1.8887 -0.45,-1.2746 -0.834,-2.5792 -1.152,-3.9101 -0.159,-0.6657 -0.301,-1.3373 -0.426,-2.0156 -0.888,-0.062 -1.783,-0.096 -2.687,-0.096 z m 6.867,0.6191 c 0.174,0.7883 0.374,1.5662 0.599,2.334 0,0.024 0.01,0.048 0.02,0.072 0.228,0.774 0.483,1.5369 0.764,2.2872 1.091,-1.0981 2.046,-2.3342 2.834,-3.6797 -1.375,-0.4145 -2.782,-0.753 -4.217,-1.0137 z m 71.281,5.748 c -0.03,0.074 -0.05,0.1477 -0.08,0.2207 -0.149,0.4004 -0.307,0.7954 -0.468,1.1895 -0.06,0.1595 -0.125,0.322 -0.191,0.4805 -0.01,0.028 -0.03,0.055 -0.04,0.084 -0.222,0.5186 -0.452,1.0321 -0.697,1.539 -0.106,0.222 -0.221,0.4386 -0.332,0.6582 -0.154,0.3079 -0.31,0.6167 -0.471,0.9199 -0.144,0.2677 -0.294,0.5311 -0.445,0.795 -0.141,0.249 -0.281,0.4985 -0.427,0.7441 -0.169,0.2835 -0.344,0.5628 -0.52,0.8418 -0.137,0.217 -0.273,0.433 -0.414,0.646 -0.197,0.301 -0.401,0.598 -0.607,0.893 -0.114,0.162 -0.228,0.324 -0.344,0.484 -0.24,0.333 -0.483,0.662 -0.733,0.987 -0.09,0.117 -0.183,0.233 -0.275,0.349 -0.269,0.343 -0.541,0.683 -0.822,1.016 -0.08,0.09 -0.156,0.179 -0.235,0.27 -0.303,0.354 -0.609,0.705 -0.925,1.048 -1.103,1.197 -2.28,2.321 -3.522,3.373 -0.04,0.03 -0.08,0.07 -0.115,0.102 0,0 -0.01,0.01 -0.02,0.02 -0.399,0.336 -0.81,0.661 -1.224,0.982 -0.02,0.02 -0.04,0.04 -0.06,0.05 l -0.02,0.02 c -0.406,0.313 -0.82,0.616 -1.238,0.912 -0.05,0.04 -0.105,0.08 -0.158,0.112 -0.413,0.29 -0.831,0.571 -1.255,0.846 -0.06,0.04 -0.111,0.07 -0.169,0.107 -0.427,0.273 -0.86,0.538 -1.298,0.795 -0.04,0.03 -0.09,0.05 -0.127,0.07 -3.382,1.964 -7.082,3.434 -11.004,4.318 -0.554,0.125 -1.112,0.237 -1.674,0.338 -0.01,0 -0.02,0 -0.03,0 3.817,13.4707 15.433,23.6377 29.677,25.3357 1.271,-13.115 8.555,-24.4767 19.051,-31.3117 -4.356,-8.025 -10.882,-14.6901 -18.783,-19.2407 z m 39.18,16.4997 c -5.462,0.368 -10.601,1.883 -15.194,4.297 2.771,6.109 4.424,12.8257 4.696,19.8987 6.284,-6.188 10.253,-14.7217 10.498,-24.1957 z m -159.342,4.934 c -19.487,0 -35.242,15.7537 -35.242,35.2397 0,19.487 15.755,35.242 35.242,35.242 7.423,0 14.293,-2.303 19.967,-6.213 0,0 0,0 0,0 -0.584,-0.907 -1.108,-1.855 -1.565,-2.842 -0.226,-0.493 -0.44,-0.994 -0.634,-1.504 0,0 0,0 0,0 -0.193,-0.509 -0.37,-1.027 -0.528,-1.553 0,0 0,-0.01 0,-0.02 -0.143,-0.477 -0.267,-0.961 -0.379,-1.449 -0.02,-0.08 -0.04,-0.165 -0.06,-0.248 -0.108,-0.494 -0.202,-0.992 -0.277,-1.496 -0.01,-0.08 -0.02,-0.153 -0.03,-0.229 -0.06,-0.433 -0.108,-0.87 -0.144,-1.311 -0.01,-0.126 -0.02,-0.253 -0.03,-0.38 -0.03,-0.512 -0.06,-1.027 -0.06,-1.547 0,-0.53 0.02,-1.055 0.06,-1.576 0.01,-0.144 0.02,-0.287 0.03,-0.43 0.04,-0.517 0.1,-1.03 0.177,-1.537 10e-4,0 0,0 0,-0.01 0,0 0,0 0,-0.01 0.08,-0.507 0.179,-1.007 0.289,-1.504 0.03,-0.131 0.06,-0.262 0.09,-0.392 0.121,-0.499 0.253,-0.993 0.405,-1.479 0,0 0,0 0,0 -10.629,-7.679 -17.555,-20.175 -17.555,-34.271 0,-3.6007 0.454,-7.0967 1.305,-10.4357 -0.353,-0.01 -0.704,-0.03 -1.059,-0.03 z m 5.103,0.371 c -0.874,3.215 -1.349,6.595 -1.349,10.0897 0,12.455 5.933,23.5 15.129,30.48 0,0 0,0 0,0 0.197,-0.377 0.404,-0.748 0.62,-1.112 0.653,-1.1 1.394,-2.141 2.213,-3.115 0.264,-0.314 0.536,-0.62 0.816,-0.92 0.03,-0.03 0.06,-0.07 0.09,-0.1 0.243,-0.257 0.493,-0.508 0.746,-0.753 0.06,-0.05 0.112,-0.107 0.168,-0.161 0.268,-0.254 0.542,-0.502 0.822,-0.744 0.02,-0.02 0.04,-0.03 0.06,-0.05 0.287,-0.246 0.581,-0.484 0.881,-0.716 0.04,-0.03 0.08,-0.06 0.119,-0.09 0.324,-0.248 0.655,-0.488 0.992,-0.719 0.702,-0.481 1.43,-0.925 2.183,-1.328 0.363,-0.194 0.734,-0.377 1.108,-0.553 0.05,-0.02 0.09,-0.04 0.139,-0.06 0.33,-0.152 0.662,-0.297 1,-0.434 0.06,-0.03 0.128,-0.05 0.193,-0.08 0.346,-0.136 0.695,-0.265 1.049,-0.385 0.04,-0.01 0.07,-0.02 0.105,-0.03 0.381,-0.127 0.766,-0.246 1.155,-0.353 0.02,0 0.05,-0.01 0.07,-0.02 0.413,-0.113 0.828,-0.214 1.25,-0.305 -2.684,-14.801 -14.587,-26.3587 -29.567,-28.5247 z m 135.598,1.041 c -9.253,6.183 -15.652,16.2887 -16.816,27.9607 0.08,0 0.159,0 0.238,0 7.76,0 14.926,-2.5 20.741,-6.738 0,-0.436 0.03,-0.869 0.03,-1.307 0,-7.094 -1.505,-13.8287 -4.195,-19.9217 z m 66.516,28.9097 c -1.057,0 -2.084,0.108 -3.094,0.27 0.05,0.872 0.09,1.749 0.09,2.634 0,11.24 -4.411,21.454 -11.582,29.03 3.535,4.08 8.746,6.666 14.586,6.666 10.683,0 19.299,-8.618 19.299,-19.301 -10e-4,-10.682 -8.617,-19.299 -19.299,-19.299 z m -7.043,1.338 c -7.181,2.808 -12.258,9.769 -12.258,17.961 0,3.383 0.87,6.556 2.39,9.316 6.158,-6.789 9.908,-15.805 9.908,-25.711 0,-0.525 -0.02,-1.046 -0.04,-1.566 z m -165.017,1.234 c -0.04,0.01 -0.08,0.02 -0.125,0.03 -0.62,0.148 -1.226,0.325 -1.818,0.531 -0.143,0.05 -0.283,0.102 -0.424,0.154 -0.517,0.193 -1.025,0.408 -1.52,0.643 -0.1,0.05 -0.2,0.09 -0.298,0.142 -0.595,0.296 -1.173,0.618 -1.731,0.971 0,0 -0.02,0.01 -0.03,0.02 -0.298,0.189 -0.59,0.386 -0.877,0.591 -0.561,0.401 -1.098,0.832 -1.611,1.29 -0.04,0.03 -0.07,0.07 -0.108,0.1 -0.501,0.453 -0.979,0.93 -1.43,1.434 0,0 0,0 0,0 -1.178,1.315 -2.177,2.795 -2.961,4.4 3.298,1.995 6.919,3.512 10.773,4.441 1.448,-3.857 2.246,-8.035 2.246,-12.404 0,-0.789 -0.03,-1.569 -0.09,-2.346 z m -14.318,14.124 c -0.138,0.555 -0.245,1.122 -0.336,1.695 -0.04,0.23 -0.08,0.458 -0.106,0.691 -0.04,0.331 -0.07,0.664 -0.101,1 0,0.04 0,0.08 0,0.114 -0.02,0.382 -0.04,0.768 -0.04,1.158 0,0.415 0.02,0.827 0.04,1.236 0,0.112 0.02,0.223 0.03,0.334 0.02,0.238 0.05,0.473 0.08,0.709 0.05,0.396 0.11,0.786 0.18,1.174 0.04,0.201 0.06,0.406 0.108,0.605 0,0 0,0 0,0 0.1,0.465 0.22,0.922 0.352,1.373 0.09,0.317 0.201,0.629 0.311,0.94 0.05,0.151 0.109,0.301 0.166,0.451 0.44,1.157 0.981,2.263 1.623,3.303 3.352,-2.924 6.157,-6.459 8.211,-10.452 -3.73,-0.972 -7.255,-2.448 -10.51,-4.339 z"></path>

</svg>
