<?xml version="1.0"?>

<svg xmlns="http://www.w3.org/2000/svg" viewBox="0 0 796.7 162.69" width="796.7" height="162.69">
  <path d="M 617.02,138.18 V 97.05 c 0,4.87 1.45,-15.69 -2.92,-17.76 -1.45,-0.69 -4.22,-2.11 -7.43,-2.04 -3.79,0.1 -8.16,1.91 -9.47,5.27 -1.75,4.11 -2.63,6.91 -2.48,15.45 l -0.29,40.37 -30.75,-0.13 V 53.63 h 29.58 l 0.44,9.82 c 4.08,-5 8.89,-11.46 26.52,-11.46 12.68,0 22.45,5.4 26.38,18.38 0.87,3.28 1.02,5.42 1.46,12.15 v 55.69 H 617.02 M 384.29,113.55 V 90.57 c 0,-7.19 0,-16.85 -3.06,-23.7 -2.05,-4.41 -3.5,-6.86 -7.73,-9.63 -10.49,-7.02 -25.94,-5.7 -29.44,-5.7 -18.5,0 -27.98,4.88 -33.95,11.59 -4.81,5.55 -5.83,10.99 -7.14,17.69 h 29.29 c 0.15,-2.62 0.58,-3.6 1.17,-4.75 1.6,-2.11 3.93,-4.78 9.76,-4.78 6.56,0 10.78,3.34 10.78,6.6 0,1.79 -0.14,4.72 -1.45,5.7 -1.31,0.99 -4.67,2.16 -5.25,2.32 -1.46,0.24 -3.35,0.68 -5.68,1.29 l -15.3,1.94 c -9.19,2.13 -16.33,3.99 -22.3,11.99 -4.37,5.56 -4.37,10.63 -4.37,13.24 0,11.1 4.81,17.51 8.01,20.3 7.43,6.19 18.07,5.96 20.7,5.96 14.42,0 22,-6.34 26.52,-9.77 l 1.31,8.02 h 31.62 c -1.75,-5.55 -3.64,-8.45 -3.49,-25.33 z m -38.62,7.8 c -2.04,0.65 -5.54,0.51 -6.42,0.46 -5.24,-0.35 -8.01,-5.13 -8.01,-7.91 0,-6.21 4.95,-7.21 6.56,-7.53 l 3.35,-0.94 c 4.23,-1.47 8.6,-2.71 12.82,-4.18 l 0.15,10.8 c -1.31,2.43 -2.77,7.67 -8.45,9.3 M 744.68,86.01 c -2.33,-10.2 -7.29,-10.71 -12.83,-10.71 -4.51,0 -5.97,1.53 -7.43,2.79 -3.93,3.36 -5.25,7.51 -5.25,17.87 0,0.79 -0.43,14.63 7.15,19.89 2.18,1.45 3.2,1.53 5.82,1.53 0.88,0 3.5,0.1 5.83,-1.02 3.06,-1.42 6.27,-4.05 6.85,-11.23 l 29.88,-0.25 c -0.29,1.92 -1.46,8.7 -4.37,14.28 -7.44,14.82 -22.59,21 -37.89,21 -6.27,0 -10.64,-0.95 -13.27,-1.43 -12.09,-3.03 -22.73,-11.48 -27.39,-23.59 -1.31,-3.66 -3.06,-9.24 -3.06,-18.49 0,-3.82 0.14,-13.7 5.53,-23.58 0.73,-1.59 3.21,-5.58 6.71,-9.24 11.36,-11.17 28.27,-11.49 32.35,-11.49 15.74,0 25.5,5.91 30.31,10.37 1.46,1.44 4.37,5.29 6.71,10.55 1.89,4.3 2.91,8.13 3.64,12.75 h -29.29 m -90.36,-32.5 h 30.9 v 84.98 h -30.9 z m 0,-31.51 h 30.9 v 22.11 h -30.9 z M 547.5,128.66 c -5.1,5.18 -15.59,11.97 -32.93,11.97 -5.54,0 -20.84,-0.32 -32.06,-13.58 -4.66,-5.66 -10.35,-15.04 -10.35,-31.88 0,-2.91 0,-9.54 2.77,-16.81 6.27,-18.44 23.32,-26.85 41.24,-26.69 4.81,0 19.82,0.48 30.61,11.49 5.39,5.49 12.24,15.52 12.09,33.31 0,4.36 -0.29,20.87 -11.37,32.19 z M 524.19,77.6 c -2.77,-2.59 -7,-3.12 -8.46,-3.12 -3.64,0 -6.26,2.11 -7.14,2.75 -3.79,3.08 -6.55,7.76 -6.55,18.26 0,8.25 1.89,22.05 13.55,22.05 3.35,0 6.56,-0.87 8.6,-3.29 2.77,-3.07 5.68,-8.63 5.53,-18.33 0,-0.48 0.15,-12.51 -5.53,-18.32 m -84.96,0.63 c -0.59,-3.22 -2.92,-8.56 -10.93,-8.56 -3.5,0 -6.12,0.95 -7.44,1.76 -0.73,0.31 -1.89,2.42 -1.89,4.84 0,0.64 0.58,2.57 2.48,3.7 1.16,0.66 3.93,1.46 7.14,1.83 l 12.39,3.22 c 8.74,2.21 16.32,3.77 22.44,9.89 3.06,2.9 4.66,6.66 5.1,8.19 1.46,4.37 0.73,7.8 0.73,9.26 0,9.96 -4.81,15.97 -7.58,18.55 -5.98,5.48 -15.45,9.62 -32.79,9.62 -14.43,0 -23.46,-3.79 -28.86,-6.93 -11.51,-6.67 -12.09,-18.96 -12.82,-22.82 l 30.02,-0.1 c 0.29,2.9 0.73,5.07 3.06,7.16 1.9,1.77 3.94,3 9.33,3 6.41,0 10.05,-3.09 10.2,-5.9 0.15,-0.34 0.15,-2.6 -0.73,-3.72 -1.46,-2.42 -5.39,-3.44 -11.08,-4.9 0,0 -17.48,-3.76 -18.79,-4.38 -3.94,-1.81 -19.82,-5.38 -19.82,-23.1 0,-9.97 5.1,-15.29 8.01,-18.03 5.39,-4.68 14.28,-9.02 30.17,-9.02 3.49,0 18.36,-0.16 29.43,7.42 3.07,2.08 5.54,4.66 7.44,7.72 2.62,4.34 3.06,9.53 3.35,11.3 H 439.23 M 264.35,138.34 V 97.48 c 0,4.86 1.31,-15.96 -3.06,-18.02 -1.46,-0.71 -4.23,-2.12 -7.58,-2.05 -3.79,0.1 -8.01,1.91 -9.47,5.28 -1.6,4.1 -2.19,7.88 -2.04,16.43 v 39.25 H 210.72 V 53.79 h 29.73 l 0.44,9.82 c 4.08,-5 8.89,-11.46 26.37,-11.46 12.83,0 22.59,4.48 26.53,17.46 0.87,3.28 1.31,6.46 1.6,13.19 v 55.54 h -31.04 m -88.17,-0.1 -1.31,-7.68 c -4.37,3.43 -12.39,10.13 -26.81,10.13 -2.48,0 -13.26,-0.33 -20.7,-6.53 -3.2,-2.78 -8.74,-9.49 -8.74,-20.58 0,-2.62 0.73,-7.08 4.95,-12.63 5.98,-8 13.12,-10.17 22.3,-12.31 l 15.45,-1.93 c 1.75,-0.49 3.64,-0.97 5.68,-1.3 0.44,-0.17 2.92,-0.51 4.23,-1.48 1.31,-0.98 2.33,-4.74 2.33,-6.54 0,-3.27 -4.23,-5.94 -10.78,-5.94 -5.83,0 -8.6,2.12 -10.06,4.24 -0.73,1.14 -1.02,2.12 -1.17,4.74 l -29.29,-0.17 c 1.31,-6.69 2.63,-12.09 7.43,-17.64 5.98,-6.7 15.45,-10.94 33.96,-10.94 3.5,0 17.78,-1.47 28.27,5.55 4.23,2.78 7,6.06 8.89,10.46 3.21,6.87 2.33,15.17 2.33,22.37 v 23.03 c -0.14,14.37 0.88,16.98 3.5,25.15 z m -3.06,-37.04 c -4.22,1.47 -8.6,2.78 -12.97,4.25 l -3.2,0.98 c -1.61,0.32 -6.56,1.4 -6.56,7.61 0,2.78 1.6,7.84 8.01,7.84 0.88,0 4.81,-0.38 6.85,-1.04 5.83,-1.63 6.27,-5.42 7.87,-7.07 V 101.2 M 22,138.11 V 22.76 h 48.38 c 16.32,0.18 32.06,1.04 42.99,15.71 3.06,4.14 7.29,11.75 7.29,24.51 0,16.06 -7,25.72 -11.81,30.23 -8.59,8.61 -20.11,9.48 -31.47,10.01 H 56.25 v 34.9 z M 69.36,76.45 C 75.05,76.31 81.46,76 85.54,71.85 86.7,70.62 88.6,68.16 88.6,64.15 88.45,60.17 86.7,57.7 85.68,56.47 80.73,51.1 72.71,51.71 66.16,51.71 h -9.48 v 24.74 h 12.68"></path>
</svg>
