<?xml version="1.0"?>

<!-- Generator: Adobe Illustrator 19.1.0, SVG Export Plug-In . SVG Version: 6.00 Build 0)  -->
<svg version="1.1" id="Layer_1" xmlns="http://www.w3.org/2000/svg" xmlns:xlink="http://www.w3.org/1999/xlink" x="0px" y="0px" width="580px" height="154px" viewBox="-9 74 580 154" enable-background="new -9 74 580 154" xml:space="preserve">
<path fill="#231F20" d="M368.901,116.888c-13.963-3.571-27.948-6.689-42.516-3.883c-8.743,1.684-13.761,6.087-14.205,12.866
	c-0.514,7.842,2.969,11.834,10.84,12.291c9.356,0.544,18.738-0.478,28.101,0.923c14.026,2.098,22.129,9.451,24.154,22.556
	c2.258,14.613-3.625,27.094-15.688,32.868c-12.488,5.976-25.816,5.54-39.108,4.533c-5.401-0.409-10.721-1.798-16.104-2.561
	c-4.814-0.683-7.278-2.792-6.533-8.112c0.478-3.41,0.09-6.94,0.09-11.148c13.705,4.668,27.369,6.27,41.293,5.231
	c10.055-0.751,16.017-5.598,16.756-13.305c0.771-8.039-2.771-12.373-10.906-13.004c-9.566-0.742-19.182,0.39-28.761-0.954
	c-12.301-1.726-19.497-7.517-22.369-18.641c-3.484-13.498,0.229-26.181,9.669-32.98c5.05-3.637,10.743-5.669,16.84-6.658
	c16.162-2.62,32.124-1.863,47.853,2.851c0.853,0.256,1.672,0.41,1.653,1.539C368.617,106.428,370.559,111.781,368.901,116.888z
	 M2.041,197.874c-1.286-1.272-0.685-2.886-0.686-4.334c-0.023-30.52,0.121-61.041-0.112-91.56c-0.038-4.922,1.21-6.189,6.11-6.063
	c14.161,0.363,28.337,0.09,42.507,0.14c14.578,0.051,23.444,4.998,27.089,14.987c4.713,12.916,0.687,28.346-9.756,36.735
	c-8.009,6.433-17.557,9.219-27.431,11.194c-2.787,0.557-3.737-0.254-3.992-3.145c-0.36-4.093-2.706-8.512-1.699-12.087
	c1.052-3.738,6.634-2.641,10.076-4.134c7.28-3.158,13.805-6.773,14.324-15.849c0.411-7.196-2.627-10.579-9.854-10.702
	c-9.371-0.159-18.747-0.015-28.121-0.002c-1.565,1.919-0.777,4.182-0.782,6.266c-0.064,23.898-0.169,47.797,0.064,71.692
	c0.048,4.952-1.07,7.45-6.401,6.52c-0.633-0.11-1.301-0.015-1.953-0.015c-8.927,0.003-8.927,0.003-8.595-9.197
	C2.239,191.475,3.318,194.785,2.041,197.874z M514.246,123.907c1.73,3.931,0.434,8.056,0.733,12.081
	c0.228,3.077-2.224,2.518-4.111,2.608c-6.253,0.298-12.555-0.821-18.768,0.642c-1.591,5.084-0.656,10.302-0.645,15.439
	c0.029,14.494-0.521,28.995,0.276,43.484c-5.963,1.039-11.926,2.112-17.888-0.006c1.107-3.83,0.503-7.749,0.515-11.619
	c0.068-22.129,0.049-44.259,0.01-66.389c-0.004-2.362,0.443-4.774-0.456-7.087c1.636-11.266,9.222-16.753,19.37-19.293
	c4.823-1.207,9.846-1.724,14.907-1.584c15.443,0.428,16.624,1.71,15.262,17.997c-6.217-2.109-12.563-2.905-18.998-2.378
	c-8.381,0.687-13.247,7.75-11.041,15.842C500.345,124.663,507.296,124.212,514.246,123.907z M549.838,138.419
	c-0.064,11.973-0.181,23.947-0.171,35.92c0.005,6.073,3.189,9.623,9.272,9.149c5.13-0.4,6.16,1.447,5.979,6.183
	c-0.344,9.022-0.081,8.646-8.997,9.105c-19.293,0.993-26.297-4.394-25.924-26.065c0.322-18.725,0.21-37.462-0.038-56.19
	c-0.057-4.335,1.169-5.569,5.419-5.324c10.966,0.631,8.5-2.744,11.778,12.052c3.899,2.036,8.09,0.879,12.096,0.818
	c5.748-0.088,4.064,3.853,4.147,6.743c0.086,3.029,1.277,6.771-4.34,6.57C556.045,137.272,552.63,135.81,549.838,138.419z
	 M181.416,126.104c0.704,1.973,1.407,3.947,2.188,6.134c4.87-3.747,9.819-7.262,15.938-8.554c3.346-0.707,5.543-0.259,4.981,4.019
	c-0.281,2.14-0.221,4.366-0.001,6.521c0.354,3.461-0.709,4.809-4.489,5.218c-6.079,0.657-10.579,4.658-14.66,8.987
	c-1.35,13.863-0.3,27.76-0.576,41.638c-0.148,7.439-0.035,7.365-7.284,7.486c-3.452,0.057-6.948-0.582-10.358,0.469
	c-1.594-0.767-1.006-2.238-1.008-3.429c-0.031-22.485-0.033-44.971,0.011-67.456c0.002-1.14-0.727-2.663,1.036-3.315
	C171.8,125.419,177.197,122.093,181.416,126.104z"></path>
<path fill="#231F20" d="M280.949,149.327c-0.055-12.177-5.46-19.584-17.148-23.146c-11.684-3.56-23.643-3.817-35.56-1.533
	c-13.129,2.517-10.292-0.307-10.744,13.359c-0.102,3.068,0.347,4.178,4.008,3.221c9.308-2.432,18.821-3.394,28.473-2.052
	c3.536,0.492,6.804,1.423,9.444,3.914c2.767,2.611,2.709,6.252,1.703,9.161c-0.915,2.647-3.679-0.376-5.656,0.142
	c-1.023,0.268-2.157,0.115-3.24,0.152c-4.771,0.737-9.541,0.749-14.311-0.006c-4.241-0.453-8.189,0.802-12.07,2.212
	c-10.545,3.832-14.656,10.464-14.264,22.792c0.305,9.61,5.658,16.552,15.505,19.323c9.398,2.644,19.055,2.984,28.305-0.2
	c5.203-1.791,9.089-2.597,14.239,0.928c6.379,4.367,11.315,1.07,11.317-6.397C280.956,177.24,281.012,163.283,280.949,149.327z
	 M256.542,180.803c-6.076,1.857-12.067,3.621-18.443,2.46c-4.528-0.824-7.451-3.383-7.368-8.382
	c0.079-4.788,3.307-6.949,7.333-7.768c3.145-0.64,6.47-0.399,9.714-0.55c0.003,0.099,0.006,0.198,0.008,0.297
	c2.169,0,4.398-0.314,6.493,0.079c2.625,0.493,6.645-0.903,7.085,3.479C261.787,174.615,262.431,179.003,256.542,180.803z"></path>
<path fill="#231F20" d="M148.599,149.247c-0.039-11.908-5.226-19.345-16.551-22.922c-11.854-3.745-24.035-3.98-36.177-1.68
	c-13.183,2.498-10.226-0.182-10.71,13.379c-0.111,3.105,0.386,4.168,4.019,3.202c9.307-2.476,18.833-3.345,28.475-2.064
	c3.529,0.469,6.79,1.418,9.449,3.935c2.796,2.646,2.651,6.266,1.675,9.154c-0.88,2.606-3.673-0.367-5.65,0.143
	c-1.025,0.264-2.157,0.112-3.24,0.148c-4.77,0.75-9.541,0.743-14.312,0.003c-4.018-0.495-7.77,0.721-11.457,1.986
	c-10.752,3.687-15.173,10.426-14.88,22.38c0.255,10.404,5.612,17.221,16.215,20.097c9.214,2.5,18.65,2.79,27.656-0.36
	c5.225-1.827,9.091-2.517,14.22,0.966c6.39,4.339,11.282,1.021,11.281-6.502C148.612,177.156,148.644,163.201,148.599,149.247z
	 M126.419,179.62c-5.177,2.492-10.537,3.836-15.321,4.033c-4.443-0.02-7.904-0.367-10.577-2.988c-2.22-2.177-2.449-4.915-1.761-7.82
	c0.97-4.096,4.379-5.551,7.753-5.815c5.812-0.455,11.701-0.208,17.54,0.098c2.06,0.108,5.404-0.344,4.993,3.41
	C128.704,173.651,130.919,177.454,126.419,179.62z"></path>
<path fill="#231F20" d="M422.412,122.494c-25.42-0.106-38.413,12.674-38.552,37.921c-0.143,25.944,12.602,39.051,38.022,39.1
	c25.19,0.048,38.355-13.053,38.386-38.2C460.3,135.878,447.35,122.598,422.412,122.494z M440.826,168.025
	c-2.586,8.558-6.429,15.63-16.899,16.083c-11.539,0.5-16.067-2.849-20.787-16.096c-1.454-4.329-1.09-8.687-0.203-13.052
	c4.771-13.783,8.571-17.117,19.408-17.034c9.797,0.075,13.858,3.535,18.484,15.748C442.042,158.458,442.047,163.242,440.826,168.025
	z"></path>
</svg>
