<?xml version="1.0"?>
<!--?xml version="1.0" encoding="UTF-8" standalone="no"?-->
<svg xmlns="http://www.w3.org/2000/svg" viewBox="0 0 229.38 51.138" height="51.138" width="229.38">
 <path d="M 26.665,5.0218 26.645,5 26.236,5.4421 5,26.205 l 8.669,12.281 6.497,-1.493 6.503,9.145 6.505,-9.145 6.496,1.493 5.323,-7.542 3.345,-4.739 L 27.1,5.4444 Z m 0,3.8133 2.761,26.8989 -2.655,3.923 -2.866,-3.92 z m 1.815,0 10.873,13.2989 -3.131,4.271 z m -3.63,0 -7.741,17.5709 -3.132,-4.271 z m 2.954,0.9278 7.738,17.5671 -5.119,6.984 z m -2.277,0 -2.619,24.5491 -5.12,-6.982 z m 6.719,2.1031 14.786,14.455 -2.856,4.047 -4.938,6.995 -5.445,-1.251 4.141,-5.821 -1.25,-2.836 3.927,-5.355 z m -11.163,0 -8.364,10.231 3.926,5.356 -1.248,2.837 4.14,5.821 -5.444,1.25 -7.7949,-11.037 z m -3.758,16.513 5.172,7.053 -1.91,0.437 -4.051,-5.695 z m 18.68,0 0.791,1.795 -4.052,5.696 -1.909,-0.438 z m -12.906,7.937 3.702,5.063 3.428,-5.063 1.886,0.431 -5.45,7.668 -5.454,-7.668 z M 218.05,31.368 v -4.396 l -4.18,-6.882 h 2.47 l 2.78,4.61 2.79,-4.61 h 2.47 l -4.18,6.882 v 4.396 z m -18.05,0 V 20.09 h 2.18 v 9.186 h 5.45 v 2.092 z m -16.39,0 V 20.09 h 7.57 v 2.069 h -5.39 v 2.367 h 3.41 v 2.06 h -3.41 v 4.783 h -2.18 z m -11.64,0 -4.48,-6.575 c -0.1,-0.109 -0.15,-0.246 -0.24,-0.405 -0.1,-0.159 -0.16,-0.307 -0.22,-0.443 0,0.119 0,0.26 0,0.424 0,0.162 0,0.305 0,0.424 v 6.575 h -2.17 V 20.09 h 2.05 l 4.36,6.494 c 0.1,0.105 0.15,0.24 0.24,0.396 0.1,0.156 0.17,0.309 0.23,0.455 0,-0.15 0,-0.307 0,-0.459 0,-0.155 0,-0.287 0,-0.394 v -6.494 h 2.16 v 11.278 h -1.93 z m -25.37,0 V 20.09 h 5.24 c 0.71,0 1.31,0.1 1.79,0.295 0.48,0.196 0.87,0.457 1.16,0.782 0.29,0.326 0.5,0.701 0.63,1.125 0.12,0.425 0.19,0.869 0.19,1.33 0,0.319 -0.1,0.643 -0.14,0.97 -0.1,0.328 -0.23,0.639 -0.41,0.933 -0.19,0.294 -0.42,0.559 -0.69,0.798 -0.27,0.239 -0.59,0.426 -0.95,0.554 l 2.19,4.491 h -2.45 l -2.11,-4.206 h -2.27 v 4.206 z m 5.27,-6.268 c 0.28,0 0.52,-0.04 0.7,-0.123 0.19,-0.08 0.34,-0.19 0.46,-0.326 0.11,-0.137 0.2,-0.294 0.25,-0.474 0.1,-0.178 0.1,-0.363 0.1,-0.557 0,-0.178 0,-0.357 -0.1,-0.533 0,-0.176 -0.13,-0.332 -0.23,-0.473 -0.11,-0.137 -0.27,-0.249 -0.46,-0.333 -0.18,-0.08 -0.43,-0.125 -0.73,-0.125 h -3.09 v 2.942 h 3.09 v 0 z m -22.45,6.268 V 20.09 h 7.69 v 2.069 h -5.52 v 2.367 h 3.25 v 2.06 h -3.25 v 2.723 h 5.86 v 2.062 h -8.03 z M 117.21,22.19 v 9.178 h -2.18 V 22.19 h -3.22 v -2.1 h 8.62 v 2.1 z m -16.88,0 v 9.178 H 98.155 V 22.19 h -3.226 v -2.1 h 8.621 v 2.1 z m -14.582,9.178 -0.874,-2.334 h -4.351 l -0.864,2.334 h -2.338 l 4.32,-11.278 h 2.122 l 4.32,11.278 z m -2.691,-7.251 c -0.06,-0.135 -0.12,-0.299 -0.186,-0.487 -0.06,-0.191 -0.121,-0.365 -0.168,-0.529 -0.04,0.165 -0.1,0.338 -0.166,0.529 -0.07,0.188 -0.13,0.352 -0.189,0.487 l -1.117,2.934 h 2.936 z M 62.029,31.368 V 20.09 h 4.839 c 0.713,0 1.312,0.104 1.8,0.31 0.488,0.208 0.884,0.479 1.188,0.819 0.304,0.339 0.523,0.719 0.657,1.145 0.133,0.425 0.201,0.854 0.201,1.289 0,0.271 -0.03,0.549 -0.1,0.83 -0.06,0.279 -0.159,0.554 -0.29,0.819 -0.132,0.265 -0.299,0.511 -0.504,0.744 -0.205,0.23 -0.451,0.434 -0.736,0.609 -0.286,0.175 -0.612,0.312 -0.982,0.412 -0.371,0.1 -0.783,0.149 -1.239,0.149 h -2.66 v 4.15 h -2.178 z m 4.932,-6.221 c 0.278,0 0.513,-0.04 0.701,-0.132 0.188,-0.09 0.341,-0.205 0.46,-0.348 0.119,-0.142 0.203,-0.302 0.255,-0.479 0.05,-0.179 0.08,-0.356 0.08,-0.536 0,-0.162 -0.02,-0.331 -0.07,-0.509 -0.04,-0.173 -0.123,-0.333 -0.235,-0.482 -0.113,-0.146 -0.268,-0.267 -0.46,-0.36 -0.195,-0.09 -0.438,-0.143 -0.732,-0.143 h -2.753 v 2.988 h 2.752 z"></path></svg>