<?xml version="1.0"?>

<svg xmlns="http://www.w3.org/2000/svg" width="320" viewBox="0 0 320 100" height="100">
   <path style="opacity:0.7" d="M 66.17,17.66 C 62.7,13.7 56.41,12 48.37,12 l -23.33,0 c -1.64,0 -3.04,1.2 -3.3,2.82 l -9.71,61.61 c -0.2,1.22 0.74,2.32 1.97,2.32 l 14.41,0 3.62,-22.95 -0.12,0.72 C 32.17,54.9 33.56,53.7 35.2,53.7 l 6.85,0 c 13.44,0 23.97,-5.46 27.05,-21.26 0.1,-0.47 0.17,-0.92 0.24,-1.37 0.91,-5.83 0,-9.81 -3.17,-13.41"></path>
  <path style="opacity:0.5;" d="m 69.34,31.07 0,0 c -0.1,0.45 -0.15,0.9 -0.24,1.37 C 66.02,48.24 55.49,53.7 42.05,53.7 l -6.85,0 c -1.64,0 -3.03,1.2 -3.29,2.82 l -3.5,22.23 -1,6.3 c -0.16,1.06 0.66,2.03 1.73,2.03 l 12.15,0 c 1.43,0 2.66,-1.05 2.88,-2.47 l 0.12,-0.62 2.29,-14.5 0.15,-0.8 c 0.22,-1.42 1.44,-2.47 2.88,-2.47 l 1.82,0 c 11.76,0 20.97,-4.77 23.66,-18.6 1.13,-5.77 0.54,-10.59 -2.43,-13.98 -0.9,-1.03 -2.02,-1.87 -3.32,-2.57"></path>
    <path d="m 240.7,31.9 -16.2,0 c -1.1,0 -2,0.8 -2.2,1.89 l -6.5,41.3 c -0.1,0.81 0.5,1.55 1.3,1.55 l 8.3,0 c 0.8,0 1.4,-0.56 1.6,-1.32 l 1.8,-11.71 c 0.2,-1.09 1.1,-1.89 2.2,-1.89 l 5.1,0 c 10.6,0 16.8,-5.14 18.3,-15.31 0.8,-4.45 0.1,-7.95 -2,-10.4 -2.3,-2.69 -6.4,-4.11 -11.7,-4.11 m 1.8,15.08 c -0.9,5.78 -5.3,5.78 -9.6,5.78 l -2.4,0 1.7,-10.79 c 0.1,-0.65 0.7,-1.13 1.3,-1.13 l 1.2,0 c 2.9,0 5.6,0 7,1.65 0.9,0.99 1.1,2.46 0.8,4.49 M 125.8,31.9 l -16.1,0 c -1.1,0 -2.1,0.8 -2.2,1.89 l -6.6,41.3 c -0.1,0.81 0.5,1.55 1.4,1.55 l 7.7,0 c 1.1,0 2,-0.8 2.2,-1.89 l 1.7,-11.14 c 0.2,-1.09 1.1,-1.89 2.2,-1.89 l 5.1,0 c 10.6,0 16.8,-5.14 18.4,-15.31 0.7,-4.45 0,-7.95 -2.1,-10.4 -2.3,-2.69 -6.3,-4.11 -11.7,-4.11 m 1.8,15.08 c -0.9,5.78 -5.3,5.78 -9.5,5.78 l -2.5,0 1.7,-10.79 c 0.1,-0.65 0.7,-1.13 1.4,-1.13 l 1.1,0 c 2.9,0 5.6,0 7,1.65 0.9,0.99 1.1,2.46 0.8,4.49 m 46.3,-0.18 -7.7,0 c -0.7,0 -1.2,0.48 -1.3,1.13 l -0.4,2.16 -0.5,-0.78 c -1.7,-2.43 -5.4,-3.24 -9.1,-3.24 -8.5,0 -15.8,6.46 -17.2,15.51 -0.8,4.52 0.3,8.84 2.8,11.85 2.4,2.77 5.8,3.93 9.8,3.93 6.8,0 10.6,-4.42 10.6,-4.42 l -0.3,2.15 c -0.1,0.81 0.5,1.55 1.3,1.55 l 7,0 c 1.1,0 2,-0.8 2.2,-1.89 l 4.1,-26.4 c 0.2,-0.82 -0.5,-1.55 -1.3,-1.55 m -10.7,15.01 c -0.8,4.41 -4.3,7.37 -8.7,7.37 -2.3,0 -4.1,-0.73 -5.2,-2.09 -1.2,-1.35 -1.6,-3.27 -1.2,-5.41 0.7,-4.37 4.2,-7.43 8.6,-7.43 2.2,0 4,0.73 5.2,2.11 1.1,1.38 1.6,3.32 1.3,5.45 m 125.6,-15.01 -7.7,0 c -0.7,0 -1.2,0.48 -1.3,1.13 l -0.4,2.16 -0.5,-0.78 c -1.7,-2.43 -5.4,-3.24 -9.1,-3.24 -8.6,0 -15.8,6.46 -17.2,15.51 -0.8,4.52 0.3,8.84 2.8,11.85 2.4,2.77 5.7,3.93 9.7,3.93 6.9,0 10.7,-4.42 10.7,-4.42 l -0.3,2.15 c -0.2,0.81 0.5,1.55 1.3,1.55 l 6.9,0 c 1.1,0 2.1,-0.8 2.3,-1.89 l 4.1,-26.4 c 0.2,-0.82 -0.5,-1.55 -1.3,-1.55 m -10.7,15.01 c -0.8,4.41 -4.3,7.37 -8.8,7.37 -2.2,0 -4,-0.73 -5.1,-2.09 -1.2,-1.35 -1.6,-3.27 -1.2,-5.41 0.7,-4.37 4.2,-7.43 8.6,-7.43 2.2,0 4,0.73 5.1,2.11 1.2,1.38 1.7,3.32 1.4,5.45 M 215,46.8 l -7.8,0 c -0.7,0 -1.4,0.36 -1.8,0.98 L 194.7,63.53 190.2,48.39 C 189.9,47.45 189,46.8 188,46.8 l -7.6,0 c -0.9,0 -1.6,0.9 -1.3,1.77 l 8.6,25.06 -8.1,11.33 c -0.6,0.89 0,2.12 1.1,2.12 l 7.8,0 c 0.7,0 1.4,-0.36 1.8,-0.96 L 216.1,48.9 c 0.6,-0.89 0,-2.1 -1.1,-2.1 m 82.9,-13.77 -6.6,42.06 c -0.1,0.81 0.5,1.55 1.3,1.55 l 6.7,0 c 1.1,0 2,-0.8 2.2,-1.89 l 6.5,-41.3 c 0.1,-0.82 -0.5,-1.55 -1.3,-1.55 l -7.5,0 c -0.6,0 -1.2,0.48 -1.3,1.13"></path>
   <path style="opacity:0.4;" d="m 66.12,29.79 c -0.47,-0.14 -0.96,-0.26 -1.45,-0.37 -0.5,-0.11 -1.02,-0.21 -1.55,-0.29 -1.84,-0.3 -3.86,-0.44 -6.03,-0.44 l -18.29,0 c -0.45,0 -0.88,0.1 -1.26,0.28 -0.85,0.41 -1.47,1.21 -1.62,2.18 L 32.03,55.8 31.92,56.52 C 32.17,54.9 33.56,53.7 35.2,53.7 l 6.85,0 c 13.44,0 23.97,-5.46 27.05,-21.26 0.1,-0.47 0.17,-0.92 0.24,-1.37 -0.78,-0.41 -1.62,-0.76 -2.53,-1.06 -0.23,-0.1 -0.46,-0.15 -0.69,-0.22"></path></svg>