<?xml version="1.0"?>

<svg xmlns="http://www.w3.org/2000/svg" viewBox="0 0 562 132" width="562" height="132">
  <path d="m 60.184,22 c -6.173,0 -11.174,5.022 -11.174,11.211 0,6.186 5.001,11.218 11.174,11.218 6.173,0 11.205,-5.032 11.205,-11.218 C 71.389,27.022 66.357,22 60.184,22 Z M 32.035,33.335 c -2.73,0.06 -5.032,1.045 -6.937,2.961 -1.99,1.991 -3.013,4.338 -3.07,7.053 0,2.715 0.823,5.002 2.671,6.84 l 21.361,21.41 -21.416,21.47 c -1.82,1.84 -2.644,4.11 -2.644,6.84 0.05,2.711 1.08,5.061 3.07,7.051 1.905,1.91 4.207,2.97 6.937,2.97 2.7,0.1 4.976,-0.83 6.796,-2.67 l 21.381,-21.411 21.38,21.411 c 1.82,1.84 4.1,2.73 6.8,2.67 2.73,0 5.03,-1.06 6.93,-2.97 2,-1.99 3.02,-4.34 3.08,-7.051 0,-2.73 -0.82,-5 -2.65,-6.84 L 74.299,71.609 95.704,50.189 c 1.81,-1.837 2.64,-4.125 2.64,-6.84 -0.1,-2.715 -1.08,-5.062 -3.07,-7.053 -1.91,-1.916 -4.21,-2.901 -6.91,-2.961 -2.73,-0.07 -5.01,0.821 -6.83,2.657 L 60.184,57.374 38.831,35.992 c -1.819,-1.836 -4.094,-2.726 -6.796,-2.657 z m 478.865,49.634 9.22,-11.34 -8.68,-10.61 c -0.59,-0.735 -1.14,-1.717 -1.14,-2.783 0,-2.1 1.57,-3.72 3.73,-3.72 1.6,0 2.53,0.638 3.47,1.861 l 7.44,9.972 7.42,-9.785 c 1.03,-1.312 2,-2.047 3.64,-2.047 1.69,0 3.45,1.312 3.45,3.472 0,1.08 -0.4,1.95 -1.14,2.888 l -8.67,10.662 9.18,11.29 c 0.57,0.73 1.11,1.71 1.11,2.8 0,2.09 -1.57,3.69 -3.69,3.69 -1.62,0 -2.56,-0.62 -3.47,-1.83 l -8.02,-10.53 -7.9,10.31 c -1.03,1.33 -1.99,2.05 -3.64,2.05 -1.69,0 -3.45,-1.3 -3.45,-3.46 0,-1.08 0.4,-1.95 1.14,-2.89 m -49.98,-24.59 c 0,-2.1 1.67,-3.765 3.78,-3.765 h 0.76 c 1.83,0 2.88,0.885 3.9,2.197 l 14.5,19.078 V 58.237 c 0,-2.063 1.64,-3.72 3.7,-3.72 2.05,0 3.72,1.657 3.72,3.72 v 27.232 c 0,2.11 -1.67,3.77 -3.78,3.77 h -0.29 c -1.81,0 -2.89,-0.88 -3.89,-2.2 l -15.04,-19.75 v 18.34 c 0,2.03 -1.65,3.69 -3.7,3.69 -2.05,0 -3.72,-1.66 -3.72,-3.69 z m 0,0 m -28.21,-0.1 c 0,-2.107 1.64,-3.765 3.75,-3.765 2.08,0 3.75,1.658 3.75,3.765 v 27.29 c 0,2.09 -1.67,3.77 -3.75,3.77 -2.11,0 -3.75,-1.68 -3.75,-3.77 z m 0,0 m -42.74,0 c 0,-2.107 1.65,-3.765 3.76,-3.765 2.1,0 3.75,1.658 3.75,3.765 v 23.91 h 13.9 c 1.91,0 3.45,1.53 3.45,3.44 0,1.89 -1.54,3.41 -3.45,3.41 h -17.65 c -2.11,0 -3.76,-1.66 -3.76,-3.77 z m 0,0 m -46.31,28.8 V 56.766 c 0,-1.08 0.88,-1.957 1.91,-1.957 h 21.23 c 0.97,0 1.77,0.78 1.77,1.755 0,0.982 -0.8,1.77 -1.77,1.77 h -19.28 v 11.695 h 17.1 c 0.96,0 1.73,0.83 1.73,1.75 0,0.98 -0.77,1.77 -1.73,1.77 h -17.1 v 11.97 h 19.5 c 1,0 1.77,0.78 1.77,1.75 0,0.99 -0.77,1.77 -1.77,1.77 h -21.45 c -1.03,0 -1.91,-0.88 -1.91,-1.96 m -38.7,-30.56 c 0,-1.08 0.85,-1.957 1.91,-1.957 1.05,0 1.93,0.877 1.93,1.957 v 28.95 h 17.71 c 0.99,0 1.76,0.83 1.76,1.8 0,0.99 -0.77,1.77 -1.76,1.77 h -19.64 c -1.06,0 -1.91,-0.88 -1.91,-1.94 z m 0,0 m -41.11,0.248 c 0,-1.08 0.87,-1.958 1.91,-1.958 h 10.85 c 7.73,0 12.79,4.103 12.79,10.87 v 0.11 c 0,7.4 -6.14,11.21 -13.41,11.21 h -8.28 v 10.36 c 0,1.08 -0.88,1.95 -1.95,1.95 -1.04,0 -1.91,-0.87 -1.91,-1.95 z m 12.28,16.672 c 5.65,0 9.39,-3.02 9.39,-7.54 v -0.12 c 0,-4.895 -3.68,-7.43 -9.19,-7.43 h -8.62 v 15.07 z m 0,0 m -63.78,-1.42 v -0.12 c 0,-9.45 7.08,-17.712 17.46,-17.712 10.41,0 17.37,8.172 17.37,17.602 v 0.12 c 0,9.44 -7.08,17.7 -17.45,17.7 -10.38,0 -17.38,-8.17 -17.38,-17.62 m 30.86,0 v -0.11 c 0,-7.78 -5.69,-14.145 -13.48,-14.145 -7.82,0 -13.37,6.255 -13.37,14.035 v 0.12 c 0,7.76 5.67,14.13 13.45,14.13 7.82,0 13.4,-6.26 13.4,-14.04 m -70.54,15.1 V 56.766 c 0,-1.08 0.87,-1.957 1.89,-1.957 h 21.22 c 1,0 1.76,0.78 1.76,1.755 0,0.982 -0.76,1.77 -1.76,1.77 h -19.25 v 11.695 h 17.06 c 0.99,0 1.76,0.83 1.76,1.75 0,0.98 -0.77,1.77 -1.76,1.77 h -17.06 v 11.97 h 19.5 c 0.97,0 1.77,0.78 1.77,1.75 0,0.99 -0.8,1.77 -1.77,1.77 h -21.47 c -1.02,0 -1.89,-0.88 -1.89,-1.96 M 131.54,56.767 c 0,-1.08 0.89,-1.958 1.91,-1.958 h 10.9 c 7.7,0 12.79,4.103 12.79,10.87 v 0.11 c 0,7.4 -6.17,11.21 -13.42,11.21 h -8.31 v 10.36 c 0,1.08 -0.88,1.95 -1.96,1.95 -1.02,0 -1.91,-0.87 -1.91,-1.95 z m 12.32,16.672 c 5.66,0 9.35,-3.02 9.35,-7.54 v -0.12 c 0,-4.895 -3.64,-7.43 -9.15,-7.43 h -8.65 v 15.07 z m 0,0"></path>
</svg>
