<svg xmlns="http://www.w3.org/2000/svg" viewBox="0 0 612 792" >
  <path style="opacity:0.5" d="m 284.49,262.68 c 15,8.29 33.55,13.23 42.42,29.24 13.3,20.05 5.92,49.17 -14.11,61.87 -10.12,6.69 -23.18,10.67 -35.17,8.34 -11.12,-5.83 -19.8,-15.96 -23.74,-27.9 21.15,-17.03 32.33,-44.67 30.6,-71.55 z m -79.2,-52.27 c 13.31,4.68 22.33,17.77 27.32,30.58 8.91,24.95 1.02,56.35 -21.9,70.95 -8,5.23 -18.31,8.7 -27.71,7.05 -26.84,-14.84 -35.48,-52.15 -21.89,-78.79 7.76,-17.11 25.17,-29.54 44.18,-29.79 z m 222,-3.33 c 9.74,0.12 16.34,8.87 21.77,15.96 3.75,6.61 6.93,13.72 7.9,21.33 -25.82,0 -51.63,0 -77.45,0 5.91,-19.17 22.49,-36.31 43.43,-36.86 1.45,-0.14 2.9,-0.29 4.35,-0.43 z m -139.26,-81.2 c -24.23,0.28 -48.79,11.77 -62.03,32.49 -5.66,7.88 -8.6,17.31 -10.31,26.78 -17.09,-5.88 -35.86,-7.46 -53.19,-1.68 -24.97,7.96 -45.13,29.29 -52.16,54.4 0,49.39 0,98.78 0,148.17 10.3,2.77 20.45,6.65 31.3,5.37 4.44,-0.65 11.47,1.29 14.31,-0.96 0,-16.74 0,-33.47 0,-50.2 16.84,5.77 34.31,11.62 52.28,11.39 7.2,-2.02 8.06,8.59 13.1,12.03 13.38,15.91 33.31,23.75 53.1,28.19 38.92,14.09 88.14,-4.24 103.34,-43.94 2.02,-6.82 11.68,1.68 17.48,1.51 24.28,8.41 51.66,8.77 74.92,-3.11 15.45,-7.59 31.75,-21.61 36.27,-37.32 -11.44,-6.37 -21.65,-15.57 -34.95,-17.63 -6.28,-3.37 -10.87,-1.96 -13.58,4.73 -11.52,17.04 -32.4,30.04 -53.5,25.43 -17.4,-9.6 -26.28,-29.13 -28.54,-48.18 44.6,0 89.19,0 133.79,0 0.55,-36 -17.88,-75.68 -53.8,-87.94 -18.5,-5.28 -37.61,-11.78 -57.09,-8.73 -20.85,2.4 -40.14,13.94 -53.29,30.16 -9.15,11.53 -15.66,25.31 -18.06,39.9 -19.57,-9.93 -43.4,-14.35 -58.02,-31.92 -12.09,-15.02 -6.94,-38.79 9.07,-48.79 8.98,-6.32 20.9,-9.96 31.71,-7.99 9.18,4.86 16.29,13.46 19.04,23.51 6.54,1.79 13.08,3.58 19.62,5.37 8.28,-5.64 16.56,-11.28 24.84,-16.92 -10.73,-22.25 -33.85,-34.52 -57.15,-39.29 -9.29,-2.77 -18.77,-4.71 -28.5,-4.83 z" ></path>
  <path d="m 282.98,362.94 c -23.06,0 -42.52,-14.41 -48.68,-34.12 18.67,-15.25 30.7,-39.05 30.7,-65.82 0,-3.53 -0.23,-7 -0.64,-10.41 l 37.59,18.84 c 18.62,7.03 31.76,24.1 31.76,44.04 0,26.21 -22.71,47.47 -50.73,47.47 z M 135,262.33 c 0,-31.66 22.68,-57.33 50.67,-57.33 27.98,0 50.66,25.67 50.66,57.33 0,31.67 -22.68,57.34 -50.66,57.34 C 157.68,319.67 135,294 135,262.33 m 272.67,-60.66 c 44.67,0 49.33,42.66 49.33,42.66 h -98.82 c 4.75,-17.54 17.61,-42.66 49.49,-42.66 m 4,120.66 c -43.33,0 -53.27,-36.54 -55.43,-54.33 H 490 c 0,-48.23 -28.35,-92.33 -80.67,-92.33 -42.51,0 -77.61,33.09 -82.96,75.94 -15.7,-10.32 -34.56,-16.97 -44.86,-21.39 -16.77,-7.18 -22.1,-11.61 -22.1,-11.61 -10.04,-6.85 -16.48,-17.42 -16.48,-29.27 0,-20.65 19.53,-37.39 43.61,-37.39 20.98,0 38.5,12.7 42.67,29.62 l 24.85,-16.93 c -11.69,-22.93 -36.86,-38.8 -66.03,-38.8 -37.5,0 -68.38,26.22 -72.5,59.95 -9.23,-3.93 -19.3,-6.12 -29.86,-6.12 -35.13,0 -64.9,23.98 -75.34,57.2 V 386 h 26 v -57.75 c 13.54,11.32 30.69,18.08 49.34,18.08 7.88,0 15.49,-1.22 22.69,-3.47 11.27,28.17 40.52,48.25 74.84,48.25 37.75,0 69.35,-24.29 77.66,-56.92 13.67,10.17 30.41,16.14 48.47,16.14 33.12,0 64.73,-17.07 78.29,-46.2 L 463,289 c -22.67,37.33 -51.33,33.33 -51.33,33.33 M 590.34,521.67 H 23 v -4 h 567.34 z m 0,92.67 H 23 v -4 H 590.34 Z M 46.563,461.84 v 28.32 c 0,0.57 0.128,1 0.382,1.29 0.254,0.29 0.711,0.53 1.368,0.71 v 0.87 H 36.688 v -0.87 c 0.656,-0.18 1.113,-0.42 1.367,-0.71 0.254,-0.29 0.383,-0.72 0.383,-1.29 V 461.84 H 26.844 c -0.547,0 -0.965,0.13 -1.258,0.38 -0.293,0.25 -0.527,0.71 -0.711,1.37 H 24 v -9.62 h 0.875 c 0.199,0.67 0.441,1.12 0.723,1.37 0.285,0.25 0.699,0.38 1.246,0.38 h 31.285 c 0.566,0 0.992,-0.13 1.285,-0.38 0.293,-0.25 0.527,-0.7 0.711,-1.37 H 61 v 9.62 h -0.875 c -0.184,-0.66 -0.418,-1.12 -0.711,-1.37 -0.293,-0.25 -0.719,-0.38 -1.285,-0.38 z M 99.84,479.72 H 82.715 v 10.51 c 0,0.57 0.125,1 0.383,1.3 0.254,0.3 0.711,0.55 1.367,0.75 v 0.75 H 73.652 v -0.75 c 0.637,-0.16 1.086,-0.4 1.352,-0.71 0.266,-0.31 0.398,-0.75 0.398,-1.31 v -25.08 c 0,-0.56 -0.129,-0.99 -0.382,-1.28 -0.258,-0.29 -0.711,-0.54 -1.368,-0.74 v -0.75 h 10.813 v 0.75 c -0.656,0.18 -1.113,0.42 -1.367,0.72 -0.258,0.3 -0.383,0.74 -0.383,1.3 v 8.98 H 99.84 v -8.98 c 0,-0.56 -0.125,-0.99 -0.371,-1.28 -0.246,-0.29 -0.707,-0.54 -1.379,-0.74 v -0.75 h 10.81 v 0.75 c -0.65,0.18 -1.11,0.42 -1.36,0.72 -0.26,0.3 -0.39,0.74 -0.39,1.3 v 25.05 c 0,0.57 0.13,1 0.39,1.3 0.25,0.3 0.71,0.55 1.36,0.75 v 0.75 H 98.09 v -0.75 c 0.637,-0.16 1.086,-0.4 1.351,-0.71 0.266,-0.31 0.399,-0.75 0.399,-1.31 z m 33.08,0.25 v 7.5 h 19.42 c 0.56,0 1,-0.13 1.3,-0.38 0.29,-0.25 0.54,-0.7 0.72,-1.37 h 0.75 v 9.06 h -0.75 c -0.16,-0.64 -0.4,-1.08 -0.71,-1.35 -0.31,-0.27 -0.75,-0.4 -1.31,-0.4 h -28.48 v -0.75 c 0.64,-0.16 1.09,-0.4 1.35,-0.71 0.27,-0.31 0.4,-0.75 0.4,-1.31 v -25.08 c 0,-0.56 -0.13,-0.99 -0.38,-1.28 -0.26,-0.29 -0.71,-0.54 -1.37,-0.74 v -0.75 h 27.58 c 0.58,0 1.02,-0.13 1.32,-0.38 0.3,-0.26 0.54,-0.71 0.72,-1.37 h 0.75 v 9.06 h -0.75 c -0.18,-0.67 -0.42,-1.12 -0.72,-1.37 -0.3,-0.25 -0.74,-0.38 -1.32,-0.38 h -18.52 v 6.69 h 11.52 c 0.56,0 0.99,-0.13 1.29,-0.38 0.31,-0.26 0.56,-0.71 0.75,-1.37 h 0.75 v 8.81 h -0.75 c -0.18,-0.65 -0.42,-1.1 -0.72,-1.36 -0.3,-0.26 -0.74,-0.39 -1.32,-0.39 z m 70.58,-8.25 h 12.46 c 2.47,0 4.22,-0.26 5.22,-0.79 0.64,-0.35 1.16,-0.9 1.55,-1.66 0.39,-0.75 0.59,-1.59 0.59,-2.5 0,-0.9 -0.2,-1.72 -0.59,-2.48 -0.39,-0.75 -0.91,-1.31 -1.55,-1.65 -0.98,-0.53 -2.73,-0.8 -5.22,-0.8 H 203.5 Z m 0,6.12 v 12.34 c 0,0.55 0.14,0.98 0.4,1.28 0.26,0.3 0.71,0.53 1.35,0.7 v 0.87 h -11.62 v -0.87 c 0.66,-0.18 1.11,-0.42 1.37,-0.71 0.25,-0.29 0.38,-0.71 0.38,-1.26 v -31.6 c 0,-0.56 -0.13,-0.99 -0.38,-1.29 -0.26,-0.28 -0.71,-0.52 -1.37,-0.71 v -0.87 h 23.29 c 2.72,0 4.87,0.18 6.47,0.55 1.59,0.36 3,0.99 4.22,1.88 1.26,0.93 2.24,2.14 2.95,3.65 0.71,1.57 1.07,3.22 1.07,4.97 0,2.51 -0.68,4.71 -2.02,6.6 -1.17,1.62 -2.72,2.77 -4.64,3.45 -1.93,0.68 -4.61,1.02 -8.06,1.02 H 203.5 m 68.05,1.88 h -17.12 v 10.51 c 0,0.57 0.12,1 0.38,1.3 0.26,0.3 0.71,0.55 1.37,0.75 v 0.75 h -10.82 v -0.75 c 0.64,-0.16 1.09,-0.4 1.36,-0.71 0.26,-0.31 0.39,-0.75 0.39,-1.31 v -25.08 c 0,-0.56 -0.12,-0.99 -0.38,-1.28 -0.25,-0.29 -0.71,-0.54 -1.37,-0.74 v -0.75 h 10.82 v 0.75 c -0.66,0.18 -1.11,0.42 -1.37,0.72 -0.26,0.3 -0.38,0.74 -0.38,1.3 v 8.98 h 17.12 v -8.98 c 0,-0.56 -0.12,-0.99 -0.37,-1.28 -0.24,-0.29 -0.7,-0.54 -1.38,-0.74 v -0.75 h 10.81 v 0.75 c -0.65,0.18 -1.11,0.42 -1.36,0.72 -0.26,0.3 -0.39,0.74 -0.39,1.3 v 25.05 c 0,0.57 0.13,1 0.39,1.3 0.25,0.3 0.71,0.55 1.36,0.75 v 0.75 H 269.8 v -0.75 c 0.64,-0.16 1.09,-0.4 1.36,-0.71 0.26,-0.31 0.39,-0.75 0.39,-1.31 z m 33.09,-14.54 v 25.05 c 0,0.57 0.12,1 0.38,1.3 0.25,0.3 0.71,0.55 1.37,0.75 v 0.75 h -10.82 v -0.75 c 0.64,-0.16 1.09,-0.4 1.36,-0.71 0.26,-0.31 0.39,-0.75 0.39,-1.31 v -25.08 c 0,-0.56 -0.12,-0.99 -0.38,-1.28 -0.26,-0.29 -0.71,-0.54 -1.37,-0.74 v -0.75 h 10.82 v 0.75 c -0.66,0.18 -1.12,0.42 -1.37,0.72 -0.26,0.3 -0.38,0.74 -0.38,1.3 z m 25.79,22.29 h 17.19 c 0.59,0 1.02,-0.13 1.32,-0.38 0.29,-0.25 0.54,-0.7 0.74,-1.37 h 0.75 v 9.06 h -0.75 c -0.19,-0.65 -0.43,-1.11 -0.73,-1.37 -0.3,-0.25 -0.74,-0.38 -1.33,-0.38 h -26.26 v -0.75 c 0.64,-0.16 1.09,-0.4 1.36,-0.71 0.26,-0.31 0.39,-0.75 0.39,-1.31 v -25.08 c 0,-0.56 -0.13,-0.99 -0.38,-1.28 -0.25,-0.29 -0.71,-0.54 -1.37,-0.74 v -0.75 h 10.82 v 0.75 c -0.66,0.18 -1.11,0.42 -1.37,0.72 -0.26,0.3 -0.38,0.74 -0.38,1.3 z m 41.73,-22.29 v 25.05 c 0,0.57 0.13,1 0.38,1.3 0.26,0.3 0.71,0.55 1.37,0.75 v 0.75 H 363.1 v -0.75 c 0.63,-0.16 1.08,-0.4 1.35,-0.71 0.26,-0.31 0.4,-0.75 0.4,-1.31 v -25.08 c 0,-0.56 -0.13,-0.99 -0.39,-1.28 -0.25,-0.29 -0.71,-0.54 -1.36,-0.74 v -0.75 h 10.81 v 0.75 c -0.66,0.18 -1.11,0.42 -1.37,0.72 -0.25,0.3 -0.38,0.74 -0.38,1.3 z m 25.79,9.73 h 10.48 c 1.91,0 3.25,-0.18 4,-0.55 1.1,-0.52 1.64,-1.5 1.64,-2.92 0,-1.42 -0.54,-2.4 -1.64,-2.92 -0.73,-0.37 -2.07,-0.55 -4,-0.55 h -10.48 z m 0,5.56 v 9.77 c 0,0.56 0.13,0.99 0.38,1.29 0.26,0.31 0.71,0.56 1.37,0.75 v 0.75 h -10.81 v -0.75 c 0.64,-0.16 1.09,-0.4 1.35,-0.71 0.26,-0.31 0.4,-0.75 0.4,-1.31 v -25.08 c 0,-0.56 -0.13,-0.99 -0.39,-1.28 -0.25,-0.29 -0.71,-0.54 -1.36,-0.74 v -0.75 h 19.96 c 3.95,0 6.94,0.59 8.94,1.78 1.17,0.69 2.08,1.67 2.74,2.95 0.65,1.28 0.98,2.71 0.98,4.3 0,3.04 -1.04,5.31 -3.12,6.8 -2.08,1.49 -5.26,2.23 -9.55,2.23 h -10.89 m 46.08,-5.56 h 10.48 c 1.92,0 3.25,-0.18 4,-0.55 1.1,-0.52 1.65,-1.5 1.65,-2.92 0,-1.42 -0.55,-2.4 -1.65,-2.92 -0.73,-0.37 -2.06,-0.55 -4,-0.55 h -10.48 z m 0,5.56 v 9.77 c 0,0.56 0.13,0.99 0.38,1.29 0.26,0.31 0.71,0.56 1.37,0.75 v 0.75 h -10.81 v -0.75 c 0.64,-0.16 1.08,-0.4 1.35,-0.71 0.27,-0.31 0.4,-0.75 0.4,-1.31 v -25.08 c 0,-0.56 -0.13,-0.99 -0.38,-1.28 -0.26,-0.29 -0.72,-0.54 -1.37,-0.74 v -0.75 h 19.96 c 3.96,0 6.94,0.59 8.94,1.78 1.17,0.69 2.08,1.67 2.74,2.95 0.66,1.28 0.98,2.71 0.98,4.3 0,3.04 -1.04,5.31 -3.12,6.8 -2.08,1.49 -5.26,2.23 -9.55,2.23 h -10.89 m 46.08,-15.29 v 25.05 c 0,0.57 0.12,1 0.38,1.3 0.26,0.3 0.71,0.55 1.37,0.75 v 0.75 h -10.81 v -0.75 c 0.63,-0.16 1.09,-0.4 1.35,-0.71 0.26,-0.31 0.4,-0.75 0.4,-1.31 v -25.08 c 0,-0.56 -0.13,-0.99 -0.39,-1.28 -0.25,-0.29 -0.71,-0.54 -1.36,-0.74 v -0.75 h 10.81 v 0.75 c -0.66,0.18 -1.11,0.42 -1.37,0.72 -0.26,0.3 -0.38,0.74 -0.38,1.3 z m 25.17,7.67 v 17.38 c 0,0.57 0.13,1 0.39,1.31 0.26,0.32 0.72,0.56 1.36,0.74 v 0.75 h -10.19 v -0.75 c 0.64,-0.16 1.09,-0.4 1.35,-0.71 0.27,-0.31 0.4,-0.75 0.4,-1.31 v -25.08 c 0,-0.56 -0.13,-0.99 -0.38,-1.28 -0.26,-0.29 -0.72,-0.54 -1.37,-0.74 v -0.75 h 11.77 v 0.75 c -0.81,0.2 -1.21,0.55 -1.21,1.07 0,0.43 0.3,0.95 0.88,1.53 l 16.37,16.31 v -16.89 c 0,-0.56 -0.13,-1 -0.38,-1.3 -0.26,-0.3 -0.72,-0.54 -1.37,-0.72 v -0.75 h 10.19 v 0.75 c -0.66,0.18 -1.11,0.42 -1.37,0.72 -0.26,0.3 -0.38,0.74 -0.38,1.3 v 25.05 c 0,0.57 0.12,1 0.38,1.3 0.26,0.3 0.71,0.55 1.37,0.75 v 0.75 h -10.98 v -0.75 c 0.81,-0.16 1.21,-0.49 1.21,-1 0,-0.25 -0.11,-0.52 -0.33,-0.79 -0.22,-0.27 -0.72,-0.81 -1.51,-1.6 z m 51.84,7.12 v 7.5 h 19.42 c 0.56,0 1,-0.13 1.3,-0.38 0.3,-0.25 0.53,-0.7 0.72,-1.37 h 0.75 v 9.06 h -0.75 c -0.17,-0.64 -0.4,-1.08 -0.71,-1.35 -0.31,-0.27 -0.75,-0.4 -1.31,-0.4 h -28.48 v -0.75 c 0.64,-0.16 1.09,-0.4 1.35,-0.71 0.27,-0.31 0.4,-0.75 0.4,-1.31 v -25.08 c 0,-0.56 -0.13,-0.99 -0.38,-1.28 -0.26,-0.29 -0.72,-0.54 -1.37,-0.74 v -0.75 h 27.58 c 0.58,0 1.02,-0.13 1.32,-0.38 0.3,-0.26 0.54,-0.71 0.72,-1.37 h 0.75 v 9.06 h -0.75 c -0.18,-0.67 -0.42,-1.12 -0.72,-1.37 -0.3,-0.25 -0.74,-0.38 -1.32,-0.38 h -18.52 v 6.69 h 11.52 c 0.56,0 0.99,-0.13 1.29,-0.38 0.3,-0.26 0.55,-0.71 0.75,-1.37 h 0.75 v 8.81 h -0.75 c -0.18,-0.65 -0.42,-1.1 -0.72,-1.36 -0.3,-0.26 -0.74,-0.39 -1.32,-0.39 z m -505.409,67.92 -4.457,8.81 -0.766,-0.44 c 0.02,-0.18 0.03,-0.33 0.03,-0.44 0,-0.62 -0.528,-1.28 -1.586,-2 -3.246,-2.25 -7.055,-3.39 -11.43,-3.39 -1.926,0 -3.621,0.24 -5.094,0.71 -1.07,0.37 -1.937,0.91 -2.597,1.64 -0.664,0.73 -0.996,1.52 -0.996,2.38 0,1.4 0.847,2.36 2.539,2.86 0.871,0.26 2.742,0.53 5.617,0.82 l 4.281,0.44 c 2.547,0.27 4.605,0.65 6.18,1.12 1.57,0.47 2.968,1.14 4.187,2 1.235,0.89 2.211,2.07 2.93,3.53 0.719,1.46 1.078,3.02 1.078,4.67 0,2.63 -0.848,4.96 -2.539,7.01 -1.531,1.85 -3.906,3.23 -7.129,4.12 -2.402,0.68 -4.98,1.02 -7.73,1.02 -4.934,0 -9.805,-1.2 -14.61,-3.58 -1.019,-0.47 -1.629,-0.71 -1.832,-0.71 -0.234,0 -0.609,0.2 -1.117,0.61 l -0.793,-0.42 4.047,-9.17 0.789,0.38 v 0.36 c 0,0.82 0.394,1.58 1.176,2.27 1.183,1.06 3.015,1.97 5.492,2.73 2.48,0.77 4.828,1.15 7.051,1.15 2.425,0 4.492,-0.41 6.207,-1.22 0.945,-0.45 1.703,-1.06 2.265,-1.81 0.567,-0.75 0.848,-1.54 0.848,-2.36 0,-1.23 -0.664,-2.11 -1.992,-2.63 -0.93,-0.37 -2.809,-0.7 -5.629,-1.01 l -4.207,-0.43 c -2.824,-0.3 -4.817,-0.57 -5.984,-0.84 -1.165,-0.27 -2.333,-0.69 -3.497,-1.28 -1.656,-0.82 -2.961,-2.05 -3.906,-3.7 -0.855,-1.48 -1.285,-3.18 -1.285,-5.1 0,-3.16 1.082,-5.78 3.25,-7.85 2.84,-2.72 7.102,-4.08 12.781,-4.08 2.387,0 4.614,0.24 6.672,0.73 2.059,0.49 4.629,1.39 7.711,2.69 1.059,0.43 1.703,0.63 1.941,0.63 0.383,0 0.829,-0.2 1.34,-0.63 z M 87.855,557 v 22.26 c 0,0.56 0.125,1 0.383,1.3 0.254,0.3 0.711,0.55 1.367,0.75 v 0.75 H 78.793 v -0.75 c 0.637,-0.17 1.09,-0.4 1.355,-0.71 0.262,-0.31 0.395,-0.75 0.395,-1.31 V 557 h -9.012 c -0.586,0 -1.027,0.13 -1.328,0.39 -0.301,0.26 -0.543,0.71 -0.723,1.36 h -0.75 v -9.07 h 0.75 c 0.165,0.64 0.399,1.09 0.696,1.36 0.301,0.26 0.742,0.39 1.328,0.39 h 25.363 c 0.582,0 1.028,-0.13 1.328,-0.38 0.297,-0.25 0.539,-0.71 0.723,-1.37 h 0.75 v 9.07 h -0.75 c -0.184,-0.65 -0.426,-1.1 -0.723,-1.36 -0.3,-0.26 -0.742,-0.39 -1.328,-0.39 z m 36.285,-0.44 c -3.16,0 -5.74,1.01 -7.74,3.04 -1.85,1.9 -2.77,4.28 -2.77,7.15 0,2.84 0.92,5.22 2.77,7.12 2,2.04 4.59,3.06 7.77,3.06 3.17,0 5.75,-1.02 7.75,-3.06 1.85,-1.89 2.77,-4.21 2.77,-6.99 0,-3.01 -0.92,-5.44 -2.77,-7.28 -2.02,-1.99 -4.61,-3.01 -7.78,-3.04 z m 0,-5.81 c 4.87,0 8.93,1.24 12.18,3.72 3.88,3 5.83,7.17 5.83,12.52 0,5.03 -1.95,9.04 -5.83,12.03 -3.21,2.48 -7.26,3.73 -12.13,3.73 -4.87,0 -8.91,-1.25 -12.12,-3.73 -3.91,-2.99 -5.86,-7.09 -5.86,-12.27 0,-5.25 1.95,-9.34 5.86,-12.28 3.23,-2.43 7.25,-3.67 12.07,-3.72 m 56.76,20.33 4.63,6.79 -0.63,0.47 c -0.44,-0.31 -0.79,-0.47 -1.04,-0.47 -0.31,0 -1.03,0.34 -2.16,1.01 -2.5,1.45 -4.71,2.46 -6.62,3.02 -1.92,0.56 -4.12,0.85 -6.62,0.85 -5,0 -9.07,-1.2 -12.22,-3.59 -1.79,-1.37 -3.21,-3.09 -4.27,-5.15 -1.13,-2.23 -1.69,-4.65 -1.69,-7.26 0,-3.6 1.04,-6.78 3.11,-9.54 3.27,-4.31 8.27,-6.46 15.02,-6.46 2.5,0 4.71,0.28 6.66,0.85 1.94,0.56 4.15,1.58 6.63,3.04 1.13,0.68 1.85,1.02 2.16,1.02 0.25,0 0.6,-0.16 1.04,-0.47 l 0.63,0.49 -4.63,6.7 -0.6,-0.43 v -0.41 -0.36 c 0,-0.88 -1.23,-1.89 -3.7,-3.02 -2.33,-1.07 -4.69,-1.6 -7.06,-1.6 -3.32,0 -6.06,0.87 -8.21,2.62 -2.46,1.97 -3.7,4.49 -3.7,7.57 0,3.09 1.24,5.62 3.7,7.59 2.17,1.73 4.91,2.59 8.21,2.59 2.59,0 5.17,-0.64 7.75,-1.94 2,-1.02 3.01,-1.91 3.01,-2.68 0,0 0,-0.29 -0.1,-0.76 z m 25.54,-2.97 -4.34,3.53 v 7.62 c 0,0.57 0.12,1 0.38,1.3 0.25,0.3 0.71,0.55 1.37,0.75 v 0.75 h -10.81 v -0.75 c 0.63,-0.17 1.08,-0.4 1.35,-0.71 0.26,-0.31 0.4,-0.75 0.4,-1.32 v -25.07 c 0,-0.57 -0.13,-1 -0.39,-1.29 -0.26,-0.29 -0.71,-0.53 -1.36,-0.74 v -0.75 h 10.81 v 0.75 c -0.66,0.18 -1.12,0.43 -1.37,0.73 -0.26,0.29 -0.38,0.72 -0.38,1.29 v 9.98 l 11.49,-9.12 c 0.86,-0.68 1.29,-1.27 1.29,-1.78 0,-0.55 -0.53,-0.91 -1.59,-1.1 v -0.75 h 13.81 v 0.75 c -0.7,0.11 -1.28,0.32 -1.74,0.63 -0.47,0.31 -1.62,1.26 -3.46,2.85 l -10.33,8.25 11.38,13.07 c 1.46,1.69 2.51,2.79 3.14,3.3 0.63,0.5 1.36,0.85 2.18,1.03 v 0.75 h -13.44 v -0.75 c 1.01,-0.24 1.51,-0.6 1.51,-1.09 0,-0.18 -0.1,-0.35 -0.18,-0.52 -0.12,-0.18 -0.54,-0.68 -1.27,-1.51 z m 57.81,-2.43 v 10.25 h 23.97 c 0.55,0 0.96,-0.13 1.25,-0.38 0.3,-0.25 0.53,-0.71 0.71,-1.37 h 0.88 v 9.63 h -0.88 c -0.18,-0.66 -0.41,-1.11 -0.71,-1.37 -0.29,-0.26 -0.7,-0.38 -1.25,-0.38 h -33.85 v -0.88 c 0.66,-0.18 1.11,-0.41 1.37,-0.71 0.25,-0.29 0.38,-0.72 0.38,-1.28 v -31.57 c 0,-0.57 -0.13,-1 -0.38,-1.29 -0.26,-0.29 -0.71,-0.53 -1.37,-0.71 v -0.87 h 33.16 c 0.55,0 0.97,-0.13 1.26,-0.39 0.29,-0.27 0.53,-0.72 0.71,-1.36 h 0.87 v 9.62 h -0.87 c -0.18,-0.65 -0.42,-1.1 -0.71,-1.36 -0.29,-0.26 -0.71,-0.39 -1.25,-0.39 h -23.29 v 8.88 h 15.1 c 0.54,0 0.96,-0.13 1.25,-0.39 0.29,-0.25 0.53,-0.71 0.71,-1.36 h 0.87 v 9.43 h -0.87 c -0.18,-0.63 -0.42,-1.09 -0.71,-1.35 -0.29,-0.26 -0.71,-0.4 -1.25,-0.4 z m 55.2,0.39 9.13,12.12 c 0.78,1.04 1.51,1.79 2.19,2.26 0.67,0.46 1.44,0.75 2.29,0.86 v 0.75 h -14.05 v -0.75 c 1.15,-0.26 1.72,-0.74 1.72,-1.45 0,-0.36 -0.3,-0.95 -0.9,-1.75 l -4.87,-6.43 -5.15,6.43 c -0.49,0.64 -0.74,1.19 -0.74,1.67 0,0.65 0.59,1.17 1.78,1.53 v 0.75 h -13.04 v -0.75 c 0.88,-0.2 1.56,-0.49 2.05,-0.86 0.5,-0.38 1.18,-1.13 2.05,-2.26 l 9.22,-11.57 -8.11,-10.72 c -1.68,-2.26 -3.17,-3.5 -4.46,-3.72 v -0.75 h 13.98 v 0.75 c -1.19,0.33 -1.78,0.88 -1.78,1.64 0,0.46 0.28,1.07 0.85,1.84 l 4.01,5.33 3.97,-4.98 c 0.75,-1.02 1.12,-1.76 1.12,-2.21 0,-0.82 -0.6,-1.36 -1.81,-1.62 v -0.75 h 13.35 v 0.75 c -0.98,0.21 -1.71,0.49 -2.17,0.86 -0.47,0.38 -1.29,1.33 -2.48,2.86 z m 48.39,5.01 4.63,6.79 -0.63,0.47 c -0.44,-0.31 -0.79,-0.47 -1.04,-0.47 -0.31,0 -1.03,0.34 -2.16,1.01 -2.5,1.45 -4.71,2.46 -6.62,3.02 -1.91,0.56 -4.12,0.85 -6.61,0.85 -5,0 -9.07,-1.2 -12.23,-3.59 -1.79,-1.37 -3.21,-3.09 -4.27,-5.15 -1.13,-2.23 -1.69,-4.65 -1.69,-7.26 0,-3.6 1.04,-6.78 3.12,-9.54 3.26,-4.31 8.26,-6.46 15.01,-6.46 2.5,0 4.72,0.28 6.66,0.85 1.94,0.56 4.15,1.58 6.63,3.04 1.13,0.68 1.85,1.02 2.16,1.02 0.25,0 0.6,-0.16 1.04,-0.47 l 0.63,0.49 -4.63,6.7 -0.6,-0.43 c 0,-0.22 0,-0.36 0.1,-0.41 v -0.36 c 0,-0.88 -1.23,-1.89 -3.69,-3.02 -2.34,-1.07 -4.69,-1.6 -7.06,-1.6 -3.33,0 -6.07,0.87 -8.22,2.62 -2.46,1.97 -3.69,4.49 -3.69,7.57 0,3.09 1.23,5.62 3.69,7.59 2.17,1.73 4.91,2.59 8.22,2.59 2.59,0 5.17,-0.64 7.74,-1.94 2.01,-1.02 3.01,-1.91 3.01,-2.68 0,0 0,-0.29 -0.1,-0.76 z m 38.32,-2.33 h -17.12 v 10.51 c 0,0.56 0.12,1 0.38,1.3 0.26,0.3 0.71,0.55 1.37,0.75 v 0.75 h -10.81 v -0.75 c 0.63,-0.17 1.09,-0.4 1.35,-0.71 0.26,-0.31 0.4,-0.75 0.4,-1.32 v -25.07 c 0,-0.57 -0.13,-1 -0.39,-1.29 -0.25,-0.29 -0.71,-0.53 -1.36,-0.74 v -0.75 h 10.81 v 0.75 c -0.66,0.19 -1.11,0.43 -1.37,0.73 -0.26,0.3 -0.38,0.73 -0.38,1.3 v 8.97 h 17.12 v -8.97 c 0,-0.57 -0.12,-1 -0.37,-1.29 -0.24,-0.29 -0.7,-0.53 -1.38,-0.74 v -0.75 h 10.82 v 0.75 c -0.66,0.19 -1.12,0.43 -1.37,0.73 -0.26,0.3 -0.38,0.73 -0.38,1.3 v 25.05 c 0,0.56 0.12,1 0.38,1.29 0.25,0.31 0.71,0.56 1.37,0.76 v 0.75 h -10.82 v -0.75 c 0.64,-0.17 1.09,-0.4 1.36,-0.71 0.26,-0.31 0.39,-0.75 0.39,-1.32 z m 39.64,1.37 -5.03,-9.89 -4.79,9.89 z m 2.21,4.31 h -14.13 l -1.57,3.33 c -0.38,0.8 -0.58,1.43 -0.58,1.88 0,0.88 0.58,1.43 1.74,1.67 v 0.75 h -11.28 v -0.75 c 0.69,-0.11 1.21,-0.32 1.55,-0.63 0.33,-0.31 0.73,-0.92 1.19,-1.84 l 11.19,-22.66 c 0.42,-0.86 0.63,-1.61 0.63,-2.25 0,-0.74 -0.51,-1.33 -1.53,-1.75 v -0.75 h 11.9 v 0.75 c -1,0.41 -1.5,1.03 -1.5,1.86 0,0.61 0.23,1.35 0.68,2.22 l 11.59,21.98 c 0.64,1.2 1.14,1.97 1.51,2.32 0.36,0.35 0.92,0.6 1.67,0.75 v 0.75 H 448.6 v -0.75 c 1.18,-0.2 1.77,-0.75 1.77,-1.66 0,-0.56 -0.23,-1.26 -0.69,-2.09 l -1.67,-3.13 m 28.18,-12.56 v 17.39 c 0,0.56 0.13,1 0.4,1.31 0.26,0.31 0.71,0.56 1.35,0.74 v 0.75 h -10.19 v -0.75 c 0.64,-0.17 1.09,-0.4 1.36,-0.71 0.26,-0.31 0.39,-0.75 0.39,-1.32 v -25.07 c 0,-0.57 -0.13,-1 -0.38,-1.29 -0.26,-0.29 -0.71,-0.53 -1.37,-0.74 v -0.75 h 11.77 v 0.75 c -0.8,0.21 -1.2,0.56 -1.2,1.07 0,0.44 0.29,0.95 0.87,1.54 l 16.38,16.31 v -16.89 c 0,-0.57 -0.13,-1 -0.39,-1.3 -0.25,-0.3 -0.71,-0.54 -1.36,-0.73 v -0.75 H 504 v 0.75 c -0.65,0.19 -1.11,0.43 -1.36,0.73 -0.26,0.3 -0.39,0.73 -0.39,1.3 v 25.05 c 0,0.56 0.13,1 0.39,1.29 0.25,0.31 0.71,0.56 1.36,0.76 v 0.75 h -10.97 v -0.75 c 0.8,-0.16 1.2,-0.5 1.2,-1.01 0,-0.25 -0.11,-0.51 -0.32,-0.78 -0.22,-0.27 -0.73,-0.81 -1.51,-1.61 z m 64.91,8.38 h -6.95 c -0.58,0 -1.03,0.12 -1.32,0.38 -0.3,0.26 -0.54,0.71 -0.73,1.37 h -0.75 v -8.13 h 0.75 c 0.19,0.65 0.43,1.1 0.73,1.36 0.3,0.26 0.74,0.39 1.33,0.39 h 14.57 v 0.81 c -0.64,0.19 -1.09,0.45 -1.36,0.8 -0.26,0.35 -0.39,0.84 -0.39,1.48 v 6.48 c 0,0.57 0.13,1.01 0.39,1.32 0.27,0.31 0.72,0.55 1.36,0.74 v 0.62 c -5.9,3.25 -11.79,4.88 -17.65,4.88 -5.07,0 -9.17,-1.2 -12.3,-3.59 -1.69,-1.32 -3.06,-2.94 -4.1,-4.88 -1.22,-2.3 -1.83,-4.76 -1.83,-7.37 0,-3.62 1.11,-6.83 3.33,-9.64 3.46,-4.35 8.57,-6.52 15.34,-6.52 2.97,0 6.35,0.66 10.16,1.99 1.5,0.52 2.39,0.78 2.64,0.78 0.31,0 0.68,-0.15 1.09,-0.45 l 0.69,0.36 -3.65,7.71 -0.66,-0.32 v -0.17 c 0,-0.68 -0.67,-1.37 -2.02,-2.09 -2.5,-1.33 -5.17,-2 -8.03,-2 -3.3,0 -6.01,0.9 -8.12,2.71 -2.22,1.9 -3.33,4.45 -3.33,7.67 0,3.01 1.01,5.42 3.03,7.23 2.08,1.84 4.99,2.76 8.74,2.76 3.57,0 6.58,-0.66 9.04,-2 z M 566.42,569 v 7.5 h 19.42 c 0.57,0 1,-0.13 1.3,-0.38 0.3,-0.25 0.54,-0.71 0.72,-1.37 h 0.75 v 9.06 h -0.75 c -0.16,-0.64 -0.4,-1.09 -0.71,-1.35 -0.31,-0.27 -0.74,-0.4 -1.31,-0.4 h -28.48 v -0.75 c 0.64,-0.17 1.09,-0.4 1.35,-0.71 0.27,-0.31 0.4,-0.75 0.4,-1.32 v -25.07 c 0,-0.57 -0.13,-1 -0.38,-1.29 -0.26,-0.29 -0.71,-0.53 -1.37,-0.74 v -0.75 h 27.58 c 0.58,0 1.02,-0.13 1.32,-0.38 0.3,-0.25 0.54,-0.71 0.72,-1.37 h 0.75 v 9.07 h -0.75 c -0.18,-0.67 -0.42,-1.13 -0.71,-1.38 -0.31,-0.25 -0.75,-0.37 -1.33,-0.37 h -18.52 v 6.68 h 11.52 c 0.56,0 0.99,-0.13 1.29,-0.38 0.31,-0.25 0.56,-0.71 0.75,-1.37 h 0.75 v 8.82 h -0.75 c -0.18,-0.65 -0.42,-1.1 -0.72,-1.36 -0.3,-0.26 -0.74,-0.39 -1.32,-0.39 z m -329.67,98.91 v -31.6 c 0,-0.55 -0.13,-0.97 -0.38,-1.26 -0.26,-0.29 -0.71,-0.53 -1.37,-0.71 v -0.88 h 11.62 v 0.88 c -0.65,0.16 -1.11,0.39 -1.36,0.7 -0.26,0.3 -0.39,0.72 -0.39,1.27 v 31.6 c 0,0.56 0.14,1 0.4,1.3 0.27,0.3 0.72,0.53 1.35,0.69 v 0.88 H 235 v -0.88 c 0.66,-0.18 1.11,-0.42 1.37,-0.71 0.25,-0.29 0.38,-0.72 0.38,-1.28 z m 35.55,-17.32 v 17.39 c 0,0.56 0.13,1 0.4,1.31 0.26,0.31 0.71,0.55 1.35,0.74 v 0.75 h -10.19 v -0.75 c 0.64,-0.17 1.09,-0.41 1.35,-0.71 0.27,-0.32 0.4,-0.75 0.4,-1.32 v -25.07 c 0,-0.57 -0.13,-1 -0.38,-1.29 -0.26,-0.29 -0.71,-0.54 -1.37,-0.74 v -0.75 h 11.77 v 0.75 c -0.81,0.2 -1.2,0.56 -1.2,1.07 0,0.44 0.28,0.95 0.87,1.53 l 16.37,16.32 v -16.89 c 0,-0.57 -0.12,-1 -0.38,-1.3 -0.25,-0.3 -0.71,-0.54 -1.37,-0.73 v -0.75 h 10.19 v 0.75 c -0.66,0.19 -1.11,0.42 -1.37,0.72 -0.25,0.31 -0.38,0.74 -0.38,1.31 v 25.05 c 0,0.56 0.13,0.99 0.38,1.29 0.26,0.3 0.71,0.56 1.37,0.76 v 0.75 h -10.97 v -0.75 c 0.8,-0.17 1.2,-0.5 1.2,-1.01 0,-0.25 -0.11,-0.51 -0.33,-0.79 -0.22,-0.27 -0.72,-0.8 -1.5,-1.6 z m 74.34,9.21 4.63,6.79 -0.63,0.46 c -0.44,-0.31 -0.79,-0.46 -1.04,-0.46 -0.31,0 -1.03,0.34 -2.16,1.01 -2.5,1.45 -4.71,2.46 -6.62,3.02 -1.91,0.56 -4.12,0.84 -6.62,0.84 -4.99,0 -9.07,-1.19 -12.22,-3.59 -1.79,-1.36 -3.21,-3.08 -4.27,-5.15 -1.13,-2.22 -1.69,-4.64 -1.69,-7.26 0,-3.59 1.03,-6.77 3.12,-9.53 3.26,-4.31 8.26,-6.47 15.01,-6.47 2.49,0 4.71,0.29 6.65,0.86 1.95,0.56 4.16,1.58 6.64,3.04 1.13,0.68 1.85,1.01 2.16,1.01 0.25,0 0.6,-0.15 1.04,-0.46 l 0.63,0.49 -4.63,6.7 -0.6,-0.44 v -0.4 -0.36 c 0,-0.88 -1.23,-1.89 -3.69,-3.02 -2.34,-1.07 -4.7,-1.6 -7.07,-1.6 -3.32,0 -6.06,0.87 -8.21,2.62 -2.46,1.96 -3.69,4.49 -3.69,7.56 0,3.1 1.23,5.63 3.69,7.59 2.17,1.74 4.91,2.6 8.21,2.6 2.59,0 5.18,-0.65 7.75,-1.94 2.01,-1.02 3.01,-1.91 3.01,-2.68 0,0 0,-0.29 -0.1,-0.76 z m 26.22,2.66 c 1.26,0 2.33,0.44 3.2,1.32 0.87,0.88 1.3,1.95 1.3,3.21 0,1.23 -0.44,2.28 -1.33,3.16 -0.89,0.87 -1.94,1.31 -3.17,1.31 -1.24,0 -2.31,-0.44 -3.18,-1.33 -0.88,-0.88 -1.32,-1.95 -1.32,-3.19 0,-1.23 0.44,-2.28 1.3,-3.15 0.88,-0.86 1.94,-1.31 3.2,-1.33 z"></path>
</svg>
