<?xml version="1.0"?>

<svg xmlns="http://www.w3.org/2000/svg" viewBox="0 0 312.36 175.21" height="174.12" width="312.36">
    <path d="M 156.22,12.075 A 145.09,75.525 0 0 0 11.132,87.605 145.09,75.525 0 0 0 156.22,163.14 145.09,75.525 0 0 0 301.31,87.605 145.09,75.525 0 0 0 156.22,12.075 Z m -15.56,18.89 h 18.88 l -3.98,20.86 h 17.89 c 15.9,1 21.86,8.95 19.88,18.89 l -6.96,40.745 H 166.5 l 6.95,-36.775 c 1,-4.97 1,-7.95 -5.96,-7.95 h -14.91 l -8.94,44.725 h -18.88 z m -72.878,20.86 h 36.758 c 15.9,1 23.86,8.95 23.86,22.86 0,23.85 -18.89,37.765 -35.78,36.775 H 74.738 l -3.981,20.87 H 51.876 Z m 133.158,0 h 36.77 c 15.9,1 23.85,8.95 23.85,22.86 0,23.85 -18.88,37.765 -35.78,36.775 H 207.9 l -3.98,20.87 h -18.88 z m -117.263,14.91 -4.969,29.81 h 11.924 c 8.944,-0.99 16.898,-3.97 17.888,-20.87 0,-5.96 -4.97,-8.94 -11.925,-8.94 z m 133.163,0 -4.97,29.81 h 11.92 c 8.95,-0.99 16.9,-3.97 17.89,-20.87 0,-5.96 -4.97,-8.94 -11.92,-8.94 z"></path>

</svg>
