<?xml version="1.0"?>

<svg xmlns="http://www.w3.org/2000/svg" viewBox="0 0 734.3 202.4" height="202.4" width="734.3"> <path d="m 465.7,37.4 0,24.9 39.2,0 0,18.6 -39.2,0 0,67.2 c 0,10.5 6.8,10.8 16.5,10.8 l 22.7,0 0,18.7 -30.7,0 c -22.7,0 -32.8,-9.1 -32.8,-29.5 l 0,-107.4 24.3,-3.3 z M 64.2,22 22,22 l 0,155.7 25,0 0,-134 14.7,0 c 3.1,0 5.8,0.2 8.4,0.2 21.7,0.4 32.3,9 32.3,25.9 0,0.7 0,1.1 0,1.8 0,15.6 -8.6,25.9 -32.2,25.9 -2.3,0 -4.6,-0.1 -7,0 0,6 0,17 0,20.9 2.5,0.1 4.7,0.2 7.1,0.2 33.9,0 57.9,-13.3 57.9,-46.8 0,-0.7 0,-1.3 0,-2 0,-34.7 -26.1,-47.8 -64,-47.8 m 578.5,0 24.1,0 0,155.7 -24.1,0 z m -27.6,44 c -12,-3.1 -30.7,-5.3 -44.6,-5.3 -31.6,0 -51.2,19.9 -51.2,52.1 l 0,12.7 c 0,32.1 19.6,52.3 51.2,52.3 0.7,0 6.4,0 8.9,-0.2 l 0,-19.4 c -1,0 -8.2,0.2 -8.9,0.2 -17.2,0 -28.7,-13.3 -28.7,-33 l 0,-12.7 c 0,-19.7 11.6,-33 28.7,-33 7.8,0 19.5,0.6 23.6,1.5 l 1.3,0.3 0,96.2 24,0 0,-107.7 c 0.1,-2.1 0.1,-2.9 -4.3,-4 m -245,-3.7 c 31.1,0 52.9,20.5 52.9,50 l 0,18.1 c 0,29.4 -21.7,50 -52.9,50 -31.1,0 -52.9,-20.6 -52.9,-50 l 0,-18.1 c 0,-29.5 21.8,-50 52.9,-50 m 0,99.1 c 18.6,0 30.2,-14.1 30.2,-31 l 0,-18.1 c 0,-16.9 -11.4,-31 -30.2,-31 -19.7,0 -30.2,14.1 -30.2,31 l 0,18.1 c 0.1,16.9 11,31 30.2,31 M 310.9,62.3 277.4,162 c -5.8,16.3 -16,18.4 -24.4,18.4 -12.3,0 -19.8,-5.7 -24.2,-18.4 l -27.9,-82.8 -11.1,0 0,-16.9 28.8,0 28.8,92.7 c 1.3,4 2,6.3 5.5,6.3 3.6,0 4.3,-2.4 5.5,-6.3 l 29.4,-92.7 23.1,0 z M 172,45.2 l -24,0 0,-23.2 24,0 0,23.2 z m 0,132.5 -24.1,0 0,-115.4 24.1,0 0,115.4 z m 513.7,-15 0,15.3 -1.5,0 0,-15.3 -6.4,0 0,-1.4 14.2,0 0,1.4 -6.3,0 z m 25.1,15.4 -0.9,-14.8 -0.1,0 -5.7,14.8 -1.9,0 -5.2,-14.8 -0.1,0 -0.8,14.8 -1.5,0 1,-16.8 2.3,0 5.3,15.2 0.1,0 5.8,-15.2 2.2,0 1,16.8 -1.5,0 z"></path> </svg>