<svg
   xmlns="http://www.w3.org/2000/svg"
   viewbox="0 0 198 85"
   height="84.7"
   width="197.9" >
  <path
     d="m 152.5,12 c -2.6,0.1 -4.6,2.21 -4.6,4.79 l 0,38.21 c -0.1,0.42 -0.1,0.86 0,1.28 l 0,11.21 c -0.3,2.79 1.9,5.21 4.7,5.21 2.8,0 5,-2.42 4.7,-5.21 l 0,-9.94 7,-6.95 12.7,19.48 c 3.5,5.33 11.5,0.15 8,-5.18 l -13.9,-21.13 9.7,-9.74 c 2.2,-1.74 2.4,-5.03 0.4,-7.03 -1.9,-2.01 -5.2,-1.84 -7,0.35 l -16.9,16.83 0,-27.39 c 0,-2.66 -2.1,-4.83 -4.8,-4.79 z M 16.79,12.1 c -2.61,0 -4.73,2.11 -4.73,4.72 l 0,26.63 c -0.1,0.51 -0.1,1.02 0,1.53 l 0,22.54 c -0.1,6.36 9.51,6.36 9.45,0 l 0,-18.58 14.18,0 c 5.89,0 10.9,-2.26 14.15,-5.8 C 53.1,39.6 54.63,34.99 54.56,30.45 54.43,21.34 46.97,12.07 34.89,12.07 Z m 4.72,9.45 13.38,0 c 7.72,0 10.16,4.42 10.23,9.04 0,2.31 -0.76,4.55 -2.23,6.15 -1.47,1.6 -3.59,2.76 -7.2,2.76 l -14.18,0 z M 63.92,32.6 c -2.61,0 -4.69,2.18 -4.65,4.79 l 0,30.1 c -0.12,2.69 2.03,4.94 4.72,4.94 2.69,0 4.84,-2.25 4.72,-4.94 l 0,-30.1 c 0,-2.66 -2.13,-4.83 -4.79,-4.79 z m 71.58,0 c -2.6,0.1 -4.6,2.2 -4.6,4.79 l 0,30.1 c -0.3,2.79 1.9,5.21 4.7,5.21 2.8,0 5,-2.42 4.7,-5.21 l 0,-30.1 c 0,-2.66 -2.1,-4.83 -4.8,-4.79 z m -58.08,0 c -3.38,-0.11 -5.77,3.26 -4.56,6.42 l 11.1,30.11 c 1.49,4.09 7.26,4.16 8.84,0.1 l 7.2,-18.71 7.3,18.72 c 1.6,3.99 7.3,3.92 8.8,-0.1 l 11,-30.1 c 1.3,-2.52 0.1,-5.62 -2.6,-6.6 -2.6,-0.98 -5.6,0.59 -6.2,3.36 l -6.8,18.3 -6.9,-17.88 c -0.5,-1.93 -2.1,-3.36 -4.1,-3.58 l -0.1,0 -0.3,0 -0.23,0 -0.17,0 c -2.09,0.11 -3.86,1.58 -4.35,3.61 L 88.49,54.1 81.72,35.75 c -0.65,-1.84 -2.35,-3.09 -4.3,-3.15 z m 63.08,-6.9 c 0,3.04 -1.9,5.5 -5,5.5 -3,0 -4.9,-2.46 -4.9,-5.5 0,-3.04 1.9,-5.3 4.9,-5.3 3.1,0 5,2.26 5,5.3 z m -71.57,0 c 0,3.01 -1.95,5.43 -4.96,5.43 -3.01,0 -4.96,-2.42 -4.96,-5.43 0,-3.01 1.95,-5.23 4.96,-5.23 3.01,0 4.96,2.22 4.96,5.23 z"/>
</svg>
