<?xml version="1.0"?>
<!--?xml version="1.0" encoding="UTF-8" standalone="no"?-->
<svg xmlns="http://www.w3.org/2000/svg" version="1.0" width="564.22" height="164.21" viewBox="0 0 564.22 164.21">

  <path d="m 282.32,12 c -20.05,0 -37.43,11.625 -45.83,28.425 l -1.16,2.9 c 0,0 -4.33,12.623 4.5,21.463 7.59,7.579 22.48,7.105 22.48,7.105 h 43.79 c 2.82,0 4.29,0.836 5.22,2.177 1.37,1.93 0.42,5.077 0.42,5.077 -5.57,10.562 -16.67,17.834 -29.44,17.834 -10.9,0 -20.41,-5.295 -26.54,-13.337 -4.37,-5.732 -15.42,-5.463 -17.83,-3.917 -1.53,0.96 -2.73,4.014 -1.46,6.525 8.53,16.798 25.72,28.568 45.83,28.568 19.72,0 36.86,-11.2 45.39,-27.552 l 1.45,-3.917 c 0,0 4.5,-12.488 -4.35,-21.319 -7.57,-7.565 -22.45,-7.249 -22.45,-7.249 h -43.8 c -2.81,0 -4.42,-0.705 -5.37,-2.033 -1.36,-1.935 -0.28,-5.077 -0.28,-5.077 5.59,-10.562 16.67,-17.838 29.44,-17.838 10.9,0 20.42,5.309 26.54,13.346 4.37,5.759 15.44,5.467 17.84,3.912 1.51,-0.951 2.74,-4.158 1.45,-6.668 C 319.64,23.639 302.43,12 282.33,12 Z M 175,12.418 c -28.25,0 -51.19,22.948 -51.19,51.192 0,28.238 22.95,51.19 51.19,51.19 28.25,0 51.05,-22.952 51.05,-51.19 0,-28.244 -22.8,-51.192 -51.05,-51.192 z m 214.93,0 c -28.24,0 -51.05,22.948 -51.05,51.192 v 0.139 c 0,28.239 22.81,51.051 51.05,51.051 23.5,0 43.3,-15.833 49.29,-37.417 0,0 0.65,-3.262 -2.18,-4.784 -2.78,-1.541 -12.11,-1.634 -18.69,8.552 -1.41,2.2 -2.94,4.247 -4.79,6.094 -6.02,6.019 -14.44,9.713 -23.63,9.713 -18.39,0 -33.22,-14.818 -33.22,-33.209 V 63.61 c 0,-18.382 14.83,-33.358 33.22,-33.358 9.18,0 17.61,3.833 23.63,9.862 1.85,1.833 3.37,3.889 4.79,6.093 6.58,10.191 15.91,9.95 18.69,8.409 2.83,-1.531 2.18,-4.641 2.18,-4.641 -5.99,-21.593 -25.79,-37.557 -49.29,-37.557 z m 111.24,0 c -28.3,0 -51.23,22.948 -51.23,51.192 0,28.238 22.93,51.19 51.23,51.19 28.22,0 51.05,-22.952 51.05,-51.19 0,-28.244 -22.83,-51.192 -51.05,-51.192 z M 63.05,12.557 C 34.87,12.557 12,35.441 12,63.605 c 0,0 0,69.755 0,73.095 0,3.33 4.2,15.51 12.9,15.51 l 4.79,-3.6 -0.14,-46.41 c 8.94,7.77 20.72,12.48 33.5,12.48 28.16,0 51.05,-22.878 51.05,-51.052 C 114.1,35.464 91.21,12.58 63.05,12.58 Z m 0,17.691 c 18.38,0 33.2,14.975 33.2,33.357 0,18.391 -14.82,33.353 -33.2,33.353 -18.39,0 -33.36,-14.962 -33.36,-33.353 0,-18.382 14.97,-33.357 33.36,-33.357 z m 111.95,0 c 18.4,0 33.21,14.975 33.21,33.357 0,18.391 -14.81,33.353 -33.21,33.353 -18.38,0 -33.35,-14.962 -33.35,-33.353 0,-18.382 14.97,-33.357 33.35,-33.357 z m 326.17,0 c 18.38,0 33.19,14.975 33.19,33.357 0,18.391 -14.81,33.353 -33.19,33.353 -18.42,0 -33.36,-14.962 -33.36,-33.353 0,-18.382 14.94,-33.357 33.36,-33.357 z"></path>
</svg>
