<?xml version="1.0"?>
<!--?xml version="1.0" encoding="UTF-8" standalone="no"?-->
<svg xmlns="http://www.w3.org/2000/svg" height="223.14" width="614.29" viewBox="0 0 614.29 223.14">

  <path d="M 592.21,139.86 H 549.64 V 80.98 h 5.87 v 53.94 h 36.78 v 4.94 m -47.21,1.31 -3.87,4.18 -9.19,-7.65 c -1.94,1.23 -4.33,2.16 -7.11,2.78 -2.78,0.77 -6.03,0.93 -9.74,0.93 -9.58,0 -17.15,-2.86 -22.64,-8.5 -5.57,-5.72 -8.27,-13.22 -8.27,-22.49 0,-9.51 2.7,-17 8.19,-22.57 5.49,-5.64 12.98,-8.42 22.57,-8.42 4.94,0 9.35,0.77 13.21,2.24 3.86,1.47 7.11,3.79 9.81,6.8 5.1,5.49 7.65,12.83 7.65,21.95 0,5.1 -0.77,9.66 -2.31,13.52 -1.55,3.87 -3.94,7.19 -7.19,9.89 l 8.89,7.34 m -5.41,-30.75 c 0,-4.02 -0.78,-7.57 -1.63,-10.74 -1.08,-3.17 -2.78,-5.95 -5.1,-8.35 -4.32,-4.79 -10.27,-7.19 -17.85,-7.19 -7.49,0 -13.52,2.32 -18,6.88 -4.56,4.64 -6.8,11.13 -6.8,19.4 0,7.96 2.24,14.37 6.8,19.16 4.63,4.72 10.58,7.11 18,7.11 3.64,0 6.88,-0.77 9.82,-1.7 2.93,-1.08 5.56,-2.78 7.88,-5.02 4.64,-4.79 6.88,-11.28 6.88,-19.55 m -56.49,13.68 c 0,11.51 -7.73,17.23 -23.18,17.23 -9.28,0 -16.08,-1.93 -20.33,-5.87 -3.48,-3.25 -5.25,-8.2 -5.25,-14.84 h 6.26 c 0,10.66 6.41,16.07 19.32,16.07 6.18,0 10.58,-1.16 13.36,-3.4 2.32,-1.85 3.48,-4.87 3.48,-9.04 0,-4.09 -1.54,-6.95 -4.71,-8.58 -1.86,-0.92 -6.18,-2.01 -13.22,-3.32 -8.73,-1.62 -14.45,-3.24 -17.07,-4.87 -3.79,-2.32 -5.65,-6.33 -5.65,-11.9 0,-5.33 1.63,-9.27 4.8,-11.74 3.47,-2.86 9.35,-4.25 17.77,-4.25 15.15,0 22.8,6.02 22.8,18 h -6.34 c 0,-8.96 -5.64,-13.45 -16.85,-13.45 -5.64,0 -9.81,0.85 -12.44,2.71 -2.47,1.93 -3.71,4.71 -3.71,8.5 0,3.86 1.62,6.65 4.79,8.27 1.7,0.93 6.65,2.24 14.92,3.86 7.8,1.39 12.98,3.02 15.76,4.87 3.63,2.24 5.49,6.18 5.49,11.75 m -54.71,-2.17 h -29.99 c 0,3.71 1.09,6.65 3.09,8.97 2.32,2.7 5.72,4.09 10.05,4.09 6.26,0 10.12,-2.78 11.67,-8.34 h 4.56 c -0.77,3.16 -2.32,5.87 -4.87,8.03 -1.39,1.16 -3.09,2.01 -5.02,2.63 -1.93,0.77 -4.02,1.01 -6.26,1.01 -5.64,0 -10.05,-1.7 -13.22,-5.18 -2.86,-3.02 -4.25,-7.11 -4.25,-12.37 0,-5.17 1.47,-9.19 4.49,-12.21 3.01,-3.01 7.18,-4.56 12.59,-4.56 2.94,0 5.49,0.78 7.65,1.32 2.17,0.77 4.02,2.08 5.49,3.79 2.63,3.09 4.02,7.41 4.02,12.82 M 424.06,119 c 0,-3.02 -1.23,-5.8 -3.63,-8.27 -2.32,-2.4 -5.33,-3.63 -9.12,-3.63 -1.85,0 -3.63,0 -5.1,0.85 -1.54,0.77 -2.93,1.46 -4.09,2.62 -1.86,2.01 -3.1,4.79 -3.64,8.43 h 25.58 m -30.14,-10.75 c -1.23,0 -2.39,0 -3.47,0 -6.96,0 -10.36,4.49 -10.36,13.53 v 15.61 h -4.17 V 105.4 h 4.17 v 5.71 0 c 0.78,-2.24 1.78,-3.94 3.33,-5.1 1.7,-1.08 4.17,-1.62 7.49,-1.62 0.77,0 1.24,0 1.62,0 0.78,0 0.85,0 1.16,0 v 4.17 m -24.11,27.59 c 0,9.74 -5.48,14.56 -16.46,14.56 -5.72,0 -9.73,-0.9 -12.21,-2.81 -2.08,-1.63 -3.32,-4.18 -3.78,-7.81 h 4.32 c 0.78,2.63 1.4,4.48 2.71,5.49 1.78,1.39 4.71,2.09 8.89,2.09 4.4,0 7.49,-1.01 9.42,-3.02 1.94,-2.01 2.94,-4.79 2.94,-8.5 v -5.72 c -2.63,4.18 -7.11,6.19 -13.45,6.19 -5.25,0 -9.27,-1.4 -12.21,-4.25 -1.31,-1.47 -2.31,-3.17 -3.01,-5.18 -0.77,-2.01 -1,-4.33 -1,-6.88 0,-5.18 1.39,-9.12 4.09,-11.82 2.86,-3.02 7.03,-4.49 12.52,-4.49 3.71,0 6.8,0.78 9.12,2.32 0.77,0.78 2.09,2.01 3.94,4.25 v -5.56 h 4.17 v 31.14 m -4.17,-15.99 c 0,-3.87 -1.08,-6.96 -3.25,-9.2 -2.08,-2.32 -5.17,-3.48 -9.35,-3.48 -4.01,0 -7.26,1.08 -9.5,3.4 -2.24,2.24 -3.32,5.41 -3.32,9.43 0,8.65 4.4,12.98 13.13,12.98 1.93,0 3.63,0 5.1,-0.85 1.47,-0.77 2.79,-1.47 3.94,-2.63 2.17,-2.24 3.25,-5.48 3.25,-9.65 m -30.06,17.07 c -0.77,0 -1.39,0 -1.93,0 -0.78,0 -0.93,0 -1.16,0 -2.94,0 -5.1,-0.77 -6.42,-1.54 -1.31,-1.08 -2,-2.86 -2,-5.49 v -22.25 h -5.49 v -3.33 h 5.41 V 94.04 h 4.17 v 10.66 h 7.34 v 3.32 h -7.34 v 21.64 c 0,1.62 0.77,2.71 1.08,3.32 0.78,0.78 2.01,0.93 3.87,0.93 0,0 0.77,0 0.85,0 0.77,0 0.85,0 1.46,0 v 3.4 m -19.86,-9.04 c 0,6.57 -4.94,9.89 -14.83,9.89 -3.02,0 -5.57,0 -7.65,-0.77 -2.09,-0.77 -3.71,-1.24 -5.03,-2.32 -1,-0.77 -1.77,-1.85 -2.39,-3.09 -0.77,-1.31 -0.93,-3.02 -1.16,-4.95 h 4.64 c 0,2.63 0.77,4.49 2.39,5.72 1.7,1.47 4.79,2.24 9.2,2.24 6.95,0 10.43,-2.08 10.43,-6.18 0,-2.47 -1.16,-4.1 -3.48,-5.02 -0.77,0 -3.32,-0.78 -8.42,-1.39 -5.1,-0.78 -8.35,-1.47 -9.58,-2.01 -2.71,-1.32 -4.1,-3.63 -4.1,-7.03 0,-3.25 1.24,-5.72 3.63,-7.35 1.24,-0.77 2.71,-1.23 4.49,-1.54 1.85,0 3.94,-0.77 6.33,-0.77 9.51,0 14.3,3.55 14.3,10.66 h -4.41 c 0,-5.02 -3.32,-7.5 -10.04,-7.5 -3.4,0 -5.95,0.78 -7.58,1.55 -1.7,0.93 -2.55,2.55 -2.55,4.64 0,1.93 1.16,3.4 3.4,4.25 1.32,0.77 4.33,1 9.12,1.54 4.25,0.77 7.19,1.16 8.74,1.93 3.09,1.47 4.55,3.79 4.55,7.19 m -34.46,-6.88 c 0,5.18 -1.31,9.28 -4.1,12.21 -3.01,3.33 -7.49,4.95 -13.29,4.95 -2.86,0 -5.25,0 -7.34,-1.16 -2.08,-0.77 -3.86,-2.01 -5.41,-3.71 -2.86,-3.09 -4.25,-7.26 -4.25,-12.29 0,-5.1 1.39,-9.19 4.1,-12.21 3.01,-3.32 7.34,-5.02 12.9,-5.02 5.88,0 10.28,1.62 13.29,4.95 2.71,2.93 4.1,7.03 4.1,12.28 m -4.25,0 c 0,-9.19 -4.41,-13.75 -13.14,-13.75 -4.02,0 -7.11,1.23 -9.35,3.71 -1.08,1.16 -1.93,2.62 -2.55,4.32 -0.77,1.63 -0.85,3.56 -0.85,5.72 0,4.18 1.08,7.5 3.33,10.05 2.16,2.47 5.33,3.71 9.42,3.71 4.49,0 7.88,-1.32 10.05,-3.87 1.08,-1.16 1.85,-2.55 2.32,-4.17 0.77,-1.7 0.77,-3.55 0.77,-5.72 m -31.45,-18.93 c 0,4.4 -1.31,7.88 -3.94,10.36 -2.63,2.47 -6.19,3.78 -10.74,3.78 h -18.16 v 20.79 h -4.95 V 88.09 h 24.42 c 4.17,0 7.42,1.23 9.74,3.78 2.39,2.48 3.55,5.95 3.55,10.36 m -4.95,0 c 0,-6.88 -3.32,-10.28 -9.89,-10.28 h -18 v 20.32 h 17.08 c 7.18,0 10.81,-3.32 10.81,-10.04 M 148.28,22 c -6.62,0.12 -12.38,1.04 -16.36,1.97 -1.99,0.47 -3.53,0.91 -4.54,1.24 -0.49,0.16 -0.83,0.28 -1.08,0.38 -1,-0.19 -2.02,-0.35 -3.07,-0.51 -3.33,-0.65 -6.86,-1.04 -10.6,-1.11 v 0 c -9.64,-0.15 -17.32,2.45 -23.25,6.6 -4.07,-1.54 -18.19,-6.44 -33.18,-5.62 -8.82,0.46 -17.86,3.08 -24.47,10.06 -6.61,6.97 -10.44,18.05 -9.62,34.49 0.19,3.86 1.51,11.87 3.76,21.82 2.23,9.95 5.37,21.62 9.23,32.11 3.85,10.49 8.29,19.77 13.84,25.14 2.77,2.74 6.05,4.54 9.67,4.44 3.6,-0.2 7.05,-2.3 10.14,-6.05 6.97,-8.39 12.82,-14.65 14.59,-16.56 0.65,0.33 1.29,0.63 1.95,0.9 2.59,1.11 5.39,1.78 8.32,1.89 0,0 0,0.12 0,0.12 -2.12,2.49 -3.27,4.11 -4.3,4.92 -1.21,0.97 -3.19,1.77 -8.85,2.95 -3.13,0.64 -5.21,1.34 -6.77,2.61 -0.78,0.63 -1.48,1.51 -1.73,2.6 -0.26,1.08 0,2.18 0.4,2.98 0.84,1.64 2.11,2.54 3.41,3.24 1.07,0.6 2.2,1 3.29,1.4 0.36,0.1 0.72,0.2 1.08,0.3 a 2.6542,2.6542 0 0 0 0.13,0 c 2.9,0.7 7.76,1.6 13.22,0.7 4.16,-0.7 8.65,-2.6 12.62,-6.44 0.34,1.14 0.7,2.44 0.96,4.04 0.62,3.7 0.95,8.3 0.82,12.6 -0.53,9.1 -0.63,15.6 1.51,21.2 v -0.2 c 0.76,2.2 1.69,6.6 4.84,10.3 3.14,3.5 8.74,5.8 16.95,4 6.73,-1.4 12.1,-4 15.91,-8.2 3.79,-4 5.87,-9.3 6.35,-15.8 0.34,-3.9 0.78,-5.4 1.25,-7 0.45,-1.7 0.87,-3.7 0.96,-7.2 l 1.07,-3.3 a 2.6542,2.6542 0 0 0 0.13,-0.5 c 0.7,-5.7 0.9,-9.74 1.34,-10.84 0.23,-0.56 0,-0.32 0.31,-0.4 0.27,-0.13 1.36,-0.13 3.19,0.27 a 2.6542,2.6542 0 0 0 0.55,0.12 h 0.91 c 0.97,0 1.98,0.13 3.02,0.13 5.75,0 12.21,-1.16 16.73,-3.24 1.28,-0.59 2.5,-1.24 3.62,-1.88 3.41,-1.95 6.04,-4.16 7.55,-6.44 0.51,-0.77 0.94,-1.57 1.04,-2.66 0.12,-1.11 -0.47,-2.63 -1.48,-3.37 -1.99,-1.51 -3.92,-1.11 -6.55,-0.57 a 2.6542,2.6542 0 0 0 -0.32,0.13 c -10.25,2.09 -15.42,1.3 -17.69,0.35 -0.41,-0.16 -0.71,-0.34 -0.97,-0.5 10.93,-16.67 18.71,-35.21 22.82,-51.16 2.13,-8.22 3.29,-15.75 3.39,-22.03 0.13,-5.52 -0.55,-10.13 -2.57,-13.54 -0.31,-0.56 -0.65,-1.1 -1.04,-1.61 C 178.55,25.73 161.6,22 148.33,22.11 Z m 1.57,5.54 v 0 c 11.99,0.14 26.21,3.62 36.75,17.12 0.31,0.41 0.61,0.96 0.89,1.62 0.83,2.16 1.37,5.48 1.31,9.64 -0.12,5.69 -1.17,12.87 -3.23,20.79 -3.8,14.71 -10.91,31.98 -20.81,47.59 -0.3,-0.36 -0.59,-0.74 -0.91,-1.13 3.77,-6.24 4.39,-12.6 4.09,-18.36 -0.32,-6.13 -1.53,-11.71 -1.29,-16.48 a 2.6542,2.6542 0 0 0 0,-0.12 c 0.19,-6.66 2.12,-11.36 1.68,-18.45 0.12,-0.46 0.12,-0.78 0.12,-1.07 0,-0.63 -0.13,-1.2 -0.3,-1.9 -0.33,-1.38 -0.91,-3.15 -1.78,-5.25 -1.74,-4.21 -4.62,-9.67 -8.93,-15.16 -5.16,-6.58 -12.4,-13.19 -22,-17.54 3.82,-0.77 8.87,-1.46 14.48,-1.4 z M 113,29.53 c 3.05,0.13 5.9,0.27 8.54,0.6 14.84,2.67 24.99,11.1 31.65,19.6 3.97,5.07 6.65,10.15 8.22,13.93 0.5,1.2 0.69,1.96 0.97,2.84 -9.31,-0.92 -15.67,0.63 -19.22,4.69 -4,4.6 -3.77,11.1 -2.2,17.4 1.57,6.29 4.6,12.75 7.37,18.07 1.39,2.68 2.71,5.05 3.77,6.94 1.05,1.89 1.86,3.4 2.02,3.8 1.59,3.9 3.64,6.66 5.24,8.69 1.13,1.41 1.44,1.98 1.84,2.65 -0.61,0.18 -1.04,0.25 -1.91,0.64 -1.5,0.68 -3.23,1.93 -4.36,3.99 -1.11,2.05 -1.63,4.75 -1.44,8.29 0.13,0.85 0.34,1.64 0.77,2.32 -0.47,0.54 -0.85,1.15 -1.09,1.75 -1.19,3.04 -1.03,6.58 -1.66,11.88 l -1.08,3.3 a 2.6542,2.6542 0 0 0 -0.13,0.9 c -0.13,3.5 -0.35,4.7 -0.81,6.3 -0.44,1.6 -1.06,3.8 -1.41,8.1 -0.43,5.4 -2.08,9.4 -4.95,12.6 -2.89,3 -7.15,5.3 -13.14,6.5 -6.96,1.5 -9.85,-0.1 -11.84,-2.4 -1.99,-2.2 -2.83,-5.6 -3.83,-8.4 a 2.6542,2.6542 0 0 0 0,-0.1 c -1.6,-4.2 -1.69,-10.1 -1.16,-19.1 a 2.6542,2.6542 0 0 0 0,-0.1 c 0.14,-4.7 -0.2,-9.6 -0.88,-13.6 -0.34,-2.14 -0.77,-3.91 -1.33,-5.45 -0.29,-0.86 -0.61,-1.61 -1.04,-2.33 a 2.6542,2.6542 0 0 0 0.14,-1.24 c 0.88,-2.28 0.66,-4.77 -0.13,-6.89 -0.98,-2.69 -2.85,-5.05 -5.56,-6.15 -0.93,-0.4 -2.42,-1.03 -4.3,-0.85 h 0.13 c -0.23,0 -0.44,0 -0.67,0.13 a 2.6542,2.6542 0 0 0 -0.13,-0.19 c 0.56,-2.21 1.48,-4.79 2.57,-7.72 2.66,-7.21 9.98,-16.78 4.43,-42.51 -1.16,-5.36 -4.36,-8.89 -8.23,-10.39 -1.94,-0.74 -3.97,-1.04 -6.03,-1.04 v 0 c -2.04,0 -4.1,0.3 -6.09,0.75 -3.96,0.92 -7.66,2.51 -10.5,4.09 -0.13,0 -0.13,0 -0.16,0.12 0.39,-4.77 1.41,-11.99 4.11,-19.13 2.32,-6.13 5.83,-12.11 11.08,-16.48 0,0 0,0 0.12,0 a 2.6542,2.6542 0 0 0 1.4,-0.53 c 5.1,-3.88 11.78,-6.27 20.99,-6.27 z m -54.42,0.56 c 10.24,-0.14 20.44,2.58 26.14,4.42 -4.79,4.81 -8.02,10.67 -10.21,16.46 -5.06,13.4 -4.68,26.72 -4.68,26.75 0,0 0,0 0,0 0,1.7 0.31,4.61 0.39,8.9 0.13,4.32 -0.13,9.77 -0.89,15.59 -1.42,10.16 2.69,19.52 9.54,25.18 -2.86,3.09 -8.36,9.13 -14.15,16.07 -2.52,3.03 -4.57,4.03 -6.29,4.09 -1.7,0.12 -3.58,-0.76 -5.73,-2.85 -4.32,-4.2 -8.83,-13.02 -12.57,-23.2 -3.73,-10.16 -6.84,-21.67 -9.04,-31.44 -2.18,-9.77 -3.47,-18 -3.62,-20.94 -0.78,-15.51 2.77,-24.87 8.17,-30.57 5.39,-5.69 12.92,-7.98 20.9,-8.42 0.68,0 1.36,0 2.04,0 z m 98.5,41.34 c 0.36,0 0.72,0 1.1,0 1.45,0 3.08,0.15 4.87,0.36 0,5.21 -1.53,9.52 -1.73,16.34 -0.28,5.78 0.99,11.46 1.3,17.01 0.22,4.49 -0.13,8.81 -2.18,13.21 -0.51,-0.89 -0.99,-1.85 -1.43,-2.94 -0.48,-1.16 -1.25,-2.49 -2.29,-4.38 -1.06,-1.9 -2.36,-4.21 -3.71,-6.8 -2.69,-5.16 -5.55,-11.37 -6.92,-16.92 -1.39,-5.55 -1.19,-10.05 1.06,-12.62 1.57,-1.8 4.57,-3.19 9.93,-3.26 z m -64.95,0.92 v 0 c 1.54,0 2.95,0.21 4.14,0.67 2.37,0.92 4.08,2.54 4.94,6.55 5.31,24.61 -1,30.9 -4.2,39.55 -1.08,2.92 -2.18,5.7 -2.85,8.43 -11.56,0 -21.42,-11.08 -19.54,-24.61 0.91,-6.21 1.05,-11.96 0.96,-16.46 -0.13,-4.11 -0.32,-6.88 -0.37,-8.06 0.13,-0.12 0.13,-0.12 0.18,-0.16 0.58,-0.47 1.56,-1.13 2.77,-1.8 2.42,-1.34 5.78,-2.78 9.12,-3.55 1.66,-0.39 3.33,-0.6 4.88,-0.6 z m 62.86,1.46 v 0.13 c -0.52,0 -1.07,0.12 -1.63,0.22 -1.16,0.17 -2.17,0.49 -2.9,0.91 -0.74,0.43 -1.31,0.95 -1.31,1.65 0.13,0.37 0.23,0.7 0.49,1.05 0.26,0.34 0.61,0.69 1.04,0.99 0.84,0.61 2,1.03 3.26,0.74 1.24,-0.18 2.27,-0.91 3,-1.69 0.37,-0.39 0.66,-0.8 0.85,-1.19 0.21,-0.38 0.34,-0.72 0.34,-1.07 v -0.13 c -0.13,-0.77 -0.83,-1.23 -1.7,-1.45 -0.43,-0.12 -0.91,-0.16 -1.44,-0.15 z m 0,0.95 c 0.45,0 0.86,0.12 1.21,0.12 0.66,0.17 0.96,0.46 1.02,0.71 0,0.12 -0.13,0.31 -0.23,0.6 -0.16,0.31 -0.41,0.67 -0.73,1.01 -0.63,0.67 -1.51,1.27 -2.48,1.41 -0.97,0.23 -1.88,-0.12 -2.57,-0.59 -0.36,-0.24 -0.65,-0.54 -0.85,-0.81 -0.17,-0.25 -0.26,-0.48 -0.29,-0.58 0,-0.16 0.24,-0.53 0.85,-0.87 0.62,-0.35 1.52,-0.65 2.59,-0.8 0.52,-0.13 1.01,-0.19 1.48,-0.19 z m -62.56,0.42 c -0.55,0 -1.08,0 -1.56,0.17 -0.48,0.12 -0.91,0.29 -1.27,0.59 -0.37,0.29 -0.67,0.73 -0.72,1.26 v 0 0.13 c 0,0.48 0.16,0.87 0.39,1.3 0.23,0.41 0.53,0.85 0.92,1.27 0.77,0.83 1.87,1.59 3.23,1.8 1.41,0.32 2.69,-0.15 3.6,-0.79 0.47,-0.33 0.85,-0.7 1.14,-1.07 0.29,-0.39 0.5,-0.74 0.56,-1.24 v -0.13 -0.12 c 0,-0.97 -0.7,-1.6 -1.51,-2.08 -0.81,-0.46 -1.85,-0.8 -3.05,-0.97 -0.59,-0.14 -1.17,-0.22 -1.73,-0.23 z m -0.12,1.77 c 0.43,0 0.91,0.13 1.4,0.19 h 0.12 0.13 c 1.02,0.14 1.89,0.44 2.43,0.75 0.52,0.31 0.59,0.55 0.61,0.52 0,0 -0.13,0.13 -0.18,0.29 -0.18,0.23 -0.43,0.49 -0.74,0.71 -0.62,0.44 -1.4,0.7 -2.21,0.51 H 93.74 93.62 C 92.76,79.8 91.95,79.27 91.39,78.66 91.1,78.35 90.87,78.02 90.73,77.76 90.61,77.52 90.58,77.38 90.57,77.35 h 0.12 c 0.13,-0.12 0.29,-0.19 0.6,-0.25 v -0.13 c 0.29,-0.12 0.66,-0.12 1.09,-0.12 z m 71.76,56.39 c 0.73,0.66 1.71,1.31 2.97,1.83 3.71,1.52 9.8,2.09 20.29,0 -1.65,1.42 -3.86,3.05 -6.77,4.4 -3.65,1.71 -11.12,2.72 -16.61,2.72 h -0.69 c -1.37,-0.12 -2.58,-0.28 -3.42,-0.54 -0.64,-0.22 -1.02,-0.44 -1.16,-0.56 -0.12,-2.74 0.29,-4.37 0.8,-5.29 0.5,-0.92 1.07,-1.32 1.88,-1.68 0.74,-0.34 1.64,-0.53 2.71,-0.88 z m -63.57,0.73 v 0 c 0.42,0 0.94,0.13 1.78,0.47 a 2.6542,2.6542 0 0 0 0.13,0 c 0.84,0.35 2.04,1.6 2.58,3.07 0.53,1.47 0.45,2.87 -0.19,3.79 -3.86,5.4 -8.37,7.47 -12.69,8.21 -3.17,0.6 -6.21,0.3 -8.61,-0.14 -0.75,-0.1 -1.43,-0.3 -2.02,-0.4 -0.83,-0.2 -1.91,-0.7 -2.74,-1.11 -0.34,-0.2 -0.31,-0.22 -0.53,-0.41 0.71,-0.33 1.78,-0.76 3.68,-1.14 5.89,-1.22 8.83,-2.18 11.1,-3.98 2.25,-1.8 3.23,-3.73 5.99,-6.8 a 2.6542,2.6542 0 0 0 0.58,-1.07 c 0.45,-0.32 0.79,-0.46 1.03,-0.49 z"></path>

</svg>
