<?xml version="1.0"?>

<svg xmlns="http://www.w3.org/2000/svg" viewBox="0 0 754 340" width="754" height="340">
  <path d="m 731.8,204 q 0,12.8 -6.5,19.6 -6.4,6.8 -18.6,6.8 -12,0 -20.4,-4.7 l 0,-16.8 q 10.3,6.7 18.9,6.7 4.9,0 7.3,-2.7 2.5,-2.7 2.5,-7.3 0,-4.6 -2.9,-8.3 -3,-3.9 -9.7,-8.5 -5.9,-4 -9,-7.7 -3,-3.8 -4.7,-8.4 -1.6,-4.7 -1.6,-10.8 0,-11.7 6.5,-18.6 6.6,-6.9 17.6,-6.9 10.5,0 20.2,5.9 l -5.6,13.6 q -3,-1.7 -6.4,-3.1 -3.2,-1.4 -7,-1.4 -4.1,0 -6.3,2.8 -2.2,2.7 -2.2,7.3 0,4.7 2.6,8.1 2.7,3.5 9.3,7.8 9,6 12.5,12.3 3.5,6.2 3.5,14.3 z m -53,0 q 0,12.8 -6.5,19.6 -6.5,6.8 -18.7,6.8 -11.9,0 -20.3,-4.7 l 0,-16.8 q 10.3,6.7 18.8,6.7 4.9,0 7.3,-2.7 2.5,-2.7 2.5,-7.3 0,-4.6 -2.9,-8.3 -2.9,-3.9 -9.7,-8.5 -5.9,-4 -8.9,-7.7 -3,-3.8 -4.7,-8.4 -1.7,-4.7 -1.7,-10.8 0,-11.7 6.6,-18.6 6.5,-6.9 17.5,-6.9 10.5,0 20.2,5.9 l -5.6,13.6 q -3,-1.7 -6.3,-3.1 -3.3,-1.4 -7,-1.4 -4.1,0 -6.4,2.8 -2.2,2.7 -2.2,7.3 0,4.7 2.6,8.1 2.7,3.5 9.4,7.8 8.9,6 12.4,12.3 3.6,6.2 3.6,14.3 z m -70.6,-52.7 q -7.4,0 -11.6,8.6 -4.2,8.5 -4.2,23.8 0,31.8 16.6,31.8 7.2,0 15.2,-4.7 l 0,15.2 q -6.7,4.4 -17.2,4.4 -15.4,0 -23.7,-12.2 -8.3,-12.4 -8.3,-34.6 0,-22.3 8.5,-34.8 8.6,-12.4 23.8,-12.4 5,0 9.5,1.4 4.7,1.3 9.9,4.8 l -5.6,13.8 q -2.8,-1.9 -6,-3.5 -3.2,-1.6 -6.9,-1.6 z m -48.7,65 q 3.5,0 7.6,-1.7 l 0,13 q -4.1,2.8 -12.2,2.8 -9.1,0 -13.5,-5.4 -4.4,-5.4 -4.4,-16.2 l 0,-36.1 -6.7,0 0,-7.5 8.7,-6 4.2,-14.7 10.7,0 0,15 12.6,0 0,13.2 -12.6,0 0,36.6 q 0,7 5.6,7 z m -34.9,-7.5 q 0,10.2 -6,15.9 -5.9,5.7 -17.5,5.7 -10.4,0 -17.1,-4 l 0,-14.5 q 3.4,2.4 8,3.9 4.6,1.6 8.1,1.6 3.9,0 5.9,-1.9 2.1,-1.9 2.1,-5 0,-3.2 -2.2,-5.6 -2.1,-2.4 -7.8,-5.8 -7.6,-4.5 -10.9,-9.6 -3.2,-5.1 -3.2,-12.1 0,-8.9 6,-14 6.2,-5.2 16.8,-5.2 9.3,0 17.5,4.8 l -5.5,12 q -6.7,-3.6 -11.7,-3.6 -3.2,0 -4.9,1.7 -1.5,1.6 -1.5,4.1 0,2.8 1.9,5 2,2.2 7.4,5.4 6.5,4 9.1,6.7 2.7,2.8 4.1,6.3 1.4,3.5 1.4,8.2 z m -49.1,-14.6 q 0,17.1 -7.2,26.7 -7.3,9.5 -19.9,9.5 -8,0 -14.2,-4.4 -6.1,-4.3 -9.4,-12.5 -3.3,-8.3 -3.3,-19.3 0,-17 7.2,-26.5 7.2,-9.5 19.9,-9.5 12.4,0 19.6,9.7 7.3,9.7 7.3,26.3 z m -37,0 q 0,10.9 2.4,16.4 2.4,5.6 7.6,5.6 10,0 10,-22 0,-11 -2.4,-16.3 -2.4,-5.5 -7.6,-5.5 -5.2,0 -7.6,5.5 -2.4,5.3 -2.4,16.3 z m -25,-28.3 q 0,14.5 -7.4,22.4 -7.3,7.7 -21.2,7.7 l -4.3,0 0,33.2 -17,0 0,-91.5 23.2,0 q 26.7,0 26.7,28.2 z m -32.9,15.3 3.3,0 q 6.2,0 9.3,-3.4 3.1,-3.4 3.1,-11.3 0,-7.1 -2.8,-10.6 -2.9,-3.5 -8.7,-3.5 l -4.2,0 0,28.8 z M 167,22 c -0.5,0 -1,0 -1.5,0 -2.9,0.1 -5.8,0.4 -8.7,0.8 -2.8,0.3 -5.6,0.8 -8.3,1.2 -3.3,0.4 -6.6,0.6 -9.9,1 -3.1,0.4 -6.3,1 -9.4,1.5 -1.1,0.2 -2.2,0.6 -3.3,0.8 -2.4,0.5 -4.9,0.7 -7.3,1.5 -4.3,1.3 -8.6,2.8 -12.8,4.4 -3.9,1.6 -7.69,3.3 -11.39,5.3 -3.8,2.1 -7.4,4.6 -11,7 -3.4,2.3 -6.8,4.7 -10.1,7.3 -3.2,2.5 -6.2,5.3 -9.1,8.1 -1.6,1.6 -2.9,3.5 -4.4,5.3 -2.5,2.9 -5,5.7 -7.4,8.7 -2,2.5 -3.8,5.1 -5.7,7.7 -3.4,4.6 -6.3,9.5 -9,14.4 -1.1,2 -2.09,4 -3.09,6 -1.5,3 -3.1,5.9 -4.5,9 -1,2.1 -1.81,4.4 -2.41,6.7 -1.4,4.9 -2.79,9.9 -4.09,14.8 -1.2,4.4 -1.5,9 -1.6,13.5 -0.1,4 0.29,7.9 0.69,11.9 0.1,1 -0.5,2.2 0.7,3 0.1,0 0,0.4 -0.1,0.5 -0.3,0.6 0,1.2 0.6,1.4 0,0 0.11,0.1 0.11,0.2 l -0.5,0 c -0.3,0.9 0.69,1.6 0.29,2.6 -0.1,0.2 0.3,0.6 0.5,0.9 0,0.3 -0.1,0.7 0,1 0.1,0.9 0.5,1.8 0.5,2.8 0,0.7 0.61,1.5 0.81,2.2 0.1,0.3 0,0.8 -0.21,1 -0.6,0.7 -0.5,1.3 0.4,1.7 0.2,0.1 0.5,0.5 0.5,0.7 0,0.6 -0.19,1.2 -0.29,1.8 0.2,0.2 0.29,0.4 0.19,0.6 0,0.3 -0.29,0.6 -0.19,0.8 0.8,1.6 1.09,3.4 1.19,5.2 0,0.4 0.21,0.8 0.41,1.3 0.1,0 0.39,0 0.59,0.1 l -0.59,1.8 c 0.5,-0.3 0.9,-0.4 1.4,-0.6 0.3,1.3 0.6,2.5 1,3.6 0.1,0.2 0.3,0.4 0.6,0.6 -0.1,0.2 -0.11,0.6 -0.31,0.7 0.4,1.8 0.61,3.5 1.31,5.2 0.1,0 0.19,-0.1 0.29,-0.1 -0.3,-1.8 -0.49,-3.7 -0.79,-5.5 l 0,-0.6 c 0,0 0.19,-0.1 0.29,-0.1 0.1,0.4 0.3,0.9 0.3,1.2 0.8,0 2.01,0.5 2.81,0.5 0.1,-0.3 0.19,-0.7 0.29,-0.9 -0.6,-0.6 -1.09,-1.5 -1.69,-2.1 0.2,0.8 0,1.1 0,1.4 -0.4,-0.2 -0.91,-0.4 -1.41,-0.6 0.4,-0.5 0.81,-1 1.41,-1.6 0,-0.9 -0.51,-1.7 -1.91,-1.6 0.6,-0.2 1.21,-0.5 1.91,-0.7 0.1,0.3 0.19,0.6 0.29,0.8 0.8,-1.4 -0.39,-2.5 -0.39,-3.9 0.1,-1.7 -0.91,-3.4 -1.21,-5.2 -0.5,-2.8 -0.39,-7 -0.69,-9.8 0,-0.2 -0.3,-0.4 -0.5,-0.6 -0.1,0.1 -0.61,1.4 -0.71,1.5 0.3,2.4 0.6,4.8 0.8,7.2 -0.1,0 -0.19,0 -0.19,0.1 -0.4,-2.1 -0.81,-4.3 -1.31,-6.7 -0.1,0.7 -0.19,1 -0.19,1.4 -0.3,-0.1 -0.4,-0.2 -0.9,-0.4 0.4,0.9 0.79,1.5 1.09,2.2 -0.7,-0.3 -1.5,-0.2 -1.5,-0.2 l 0,2.8 c -1,-1 -1.3,-1.8 -1.8,-2.5 -0.2,-0.8 -0.3,-1.6 -0.5,-2.4 l 0.3,-0.1 c -0.1,-0.4 -0.3,-0.7 -0.3,-1 -0.1,-0.7 -0.19,-1.5 -0.29,-2.4 0.1,-0.1 0.49,-0.2 0.69,-0.4 l -0.79,-1.2 c 0.8,0.1 1.29,0.2 1.79,0.2 0,-0.2 0.1,-0.3 0,-0.4 -1,-0.9 -0.3,-1.7 0.1,-2.5 0.2,-0.4 0.91,-0.5 1.11,-0.9 0.8,-1.5 2.1,-2.7 2.1,-4.6 0,-0.9 0.3,-1.9 0.4,-2.8 0.2,-1.7 0.4,-3.4 0.5,-5.1 0.2,-2.2 0,-4.4 0.5,-6.5 0.8,-3.5 1.79,-7 2.89,-10.5 0.8,-2.5 1.71,-4.9 2.71,-7.4 1.5,-3.9 2.89,-7.8 4.79,-11.5 2.7,-5.4 5.8,-10.6 8.8,-15.9 1.9,-3.3 3.9,-6.4 6,-9.6 2,-3.1 4.01,-6.3 6.31,-9.2 3.2,-4.1 6.7,-7.9 10.6,-11.3 4,-3.6 7.79,-7.3 12.09,-10.6 5.6,-4.3 11.51,-8.1 17.79,-11.4 5.1,-2.7 10.4,-4.8 15.7,-6.8 3.4,-1.3 7.1,-1.9 10.6,-3 4,-1.3 8,-1.9 12.2,-2 2.7,-0.1 5.3,-0.4 8,-0.7 2.4,-0.2 4.8,-0.4 7.4,-0.7 -0.3,0.4 -0.4,0.6 -0.5,0.8 -1.1,1.6 -2.3,3.2 -3.4,4.8 -0.9,1.3 -1.9,2.7 -2.8,4 -1.6,2.1 -3.3,4.2 -4.8,6.4 -2.3,3.3 -4.4,6.7 -6.8,10 -2.4,3.2 -5,6.2 -7.5,9.3 -3.3,4.3 -6.4,8.7 -9.7,13 -3,4.1 -6.2,8 -9.1,12.1 -2.6,3.6 -4.9,7.4 -7.4,11.1 -3.7,5.5 -7.39,10.9 -11.09,16.4 -2.9,4.2 -5.79,8.3 -8.79,12.5 -0.2,0.3 -0.51,0.4 -0.81,0.6 -0.2,0.2 -0.59,0.4 -0.59,0.6 -0.2,0.7 -0.2,1.4 -0.5,2 -0.8,1.5 -1.6,3 -2.5,4.4 -0.5,0.8 -1.21,1.5 -1.81,2.3 -0.2,-0.1 -0.3,-0.2 -0.5,-0.2 0.4,-1 2.11,-1.6 1.31,-3.1 -0.5,0.8 -1,1.5 -1.5,2.3 l -1.21,2.4 c 0.39,0.3 1.03,0.5 0.47,1.1 -0.1,-0.3 -0.43,-0.4 -0.67,-0.6 -0.8,1.1 -1.6,2.3 -2.4,3.6 0.6,0.5 0.91,0.3 1.31,-0.4 0.32,-0.6 0.77,-1.1 1.2,-1.7 -0.14,0.3 -0.27,0.5 -0.41,0.7 0.1,0 0.11,0.1 0.21,0.1 0.3,-0.4 0.6,-0.7 0.9,-1.1 0.1,0 0.19,0.1 0.29,0.1 -0.3,1 -0.9,1.9 -1.4,2.8 -0.4,0.8 -1.4,1.4 -2.1,2 0.1,0.1 0.8,0.4 0.9,0.5 0.3,-0.4 0.4,-0.2 0.7,-0.6 0.2,0.3 0.51,-0.2 0.61,0.1 0.3,-0.4 0.59,-0.7 0.69,-1 0.4,-1 1,-1.8 2,-2.2 0.4,-0.2 0.7,-0.5 1,-0.8 3,-3.1 6.11,-6.1 8.81,-9.4 4.2,-5.1 8,-10.4 11.98,-15.6 1.7,-2.2 3.7,-4.4 5.5,-6.5 0.2,0.1 0.4,0.1 0.5,0.2 -0.2,2.1 -0.4,4.3 -0.5,6.4 -0.3,3.7 -0.5,7.4 -0.8,11.2 -0.1,1.5 0,3 -0.1,4.5 0,0.4 -0.3,0.7 -0.3,1.1 0,1 0.3,2.1 0.3,3.1 -0.3,3.7 -0.7,7.3 -1,11 -0.1,0.8 0.3,1.6 0.5,2.3 -0.1,-0.1 -0.2,-0.2 -0.5,-0.4 0,5.8 1.1,11.5 0.2,17.2 0.4,-0.1 0.6,-0.2 0.6,-0.4 0.1,-0.7 0.3,-1.4 0.3,-2.1 0.1,-0.6 0,-1.2 0,-1.9 l 0,-1 c 0.1,-1.8 0.5,-3.7 0.3,-5.5 -0.2,-2 -0.2,-3.9 0.2,-5.8 0.2,-0.8 -0.1,-1.8 0.4,-2.8 l 0,1.5 c -0.1,5.7 0.1,11.4 -0.7,17.1 -0.1,0.5 0.3,1.4 -0.8,1.3 -0.1,0 -0.2,0.5 -0.4,0.8 -0.5,1 0.6,2.3 -0.4,3.3 -0.2,0.2 0.2,1.1 0.3,1.7 0,0.2 0.1,0.4 0,0.5 -0.4,0.7 -0.4,0.7 0.2,0.8 0.1,2.2 0.3,4.2 0.4,6.3 l 0.3,0 c 1.3,-3.8 0.5,-7.7 1.2,-11.6 0.1,1.6 0.2,3.2 0.1,4.9 0,2.6 -0.1,5.1 -0.2,7.7 0,0.5 -0.1,1 -0.2,1.5 -0.3,1.4 -0.4,2.8 -0.9,4.1 -0.4,1 -0.2,2.5 -0.2,3.7 l 0,3.8 c 0,0.1 0.3,0.4 0.3,0.8 0.1,0.9 -0.4,1.8 -0.1,2.8 0.1,0.2 -0.1,0.5 -0.2,0.7 -0.1,0.3 -0.2,0.6 -0.1,0.9 l 0.3,1.5 c 0,0.1 0.1,0.2 0.2,0.4 0.1,-0.4 0.1,-0.7 0.1,-0.8 1.7,0.2 0.8,1.7 1.6,2.5 -0.4,0.2 -0.7,0.3 -0.7,0.4 0.1,0.4 0.3,0.7 0.3,1.1 0,0.9 -0.1,1.7 -0.2,2.6 0,2.3 -0.1,4.6 -0.1,6.8 0,0.3 0.1,0.6 0.1,0.9 0,0.2 -0.1,0.4 -0.1,0.7 l 0,2.1 0.4,0 c -0.2,0.3 -0.4,0.6 -0.7,0.9 -0.1,0 -0.4,0 -0.4,-0.1 l 0,-12.6 -1.5,0 c -0.2,6 0.3,11.4 -0.8,17 -1.2,0.1 -1.6,0.3 -2.9,0.3 -3.09,0 -6.18,0 -9.28,0.1 -3.7,0 -7.3,0.1 -11,0.1 -1.8,0 -3.7,0.2 -5.5,0.2 -2.4,0 -4.91,-0.3 -7.31,-0.3 -3.7,0 -7.3,0.3 -11,0.4 -2.7,0.1 -5.39,0.1 -8.09,0.2 -1.8,0.1 -3.61,0.2 -5.41,0.4 -0.8,0.1 -1.5,0.4 -2.5,0.7 -0.3,0 -0.99,-0.1 -1.59,0 -1,0.2 -1.91,0.8 -2.91,1 -1.5,0.3 -1.89,0.7 -1.69,2.2 l 0,1 c -0.2,-0.2 -0.51,-0.4 -0.71,-0.5 -0.1,0 -0.19,0.1 -0.19,0.1 0.1,0.3 0.3,0.5 0.4,0.8 0.4,-0.2 0.89,-0.7 1.29,-0.7 l 1.4,0 c -0.2,0 -0.29,0.6 -0.59,1.1 0.8,-0.3 1.29,-0.5 1.79,-0.7 0.1,0.3 0.11,0.7 0.11,0.8 1.4,-0.1 2.69,-0.5 3.89,-0.2 3.9,1 7.9,1.4 11.9,1.8 2.6,0.2 5.11,0.3 7.71,0.4 3.7,0.2 7.4,0.4 11.1,0.4 3.1,0 6.09,-0.3 9.19,-0.3 4.3,0 8.6,0.2 12.9,0.3 0.9,0 1.91,-0.1 2.91,-0.1 l 7.28,0 c 6.5,-0.2 13,-0.3 19.5,-0.5 3.7,-0.1 7.5,-0.3 11.2,-0.4 l 11.4,-0.3 c 4.4,-0.1 8.8,-0.1 13.1,-0.2 3.3,0 6.5,-0.1 9.8,-0.2 3.7,-0.1 7.5,-0.4 11.2,-0.6 2,-0.1 4,-0.3 6,-0.5 2.4,-0.2 4.9,-0.5 7.3,-0.6 3.6,-0.2 7.3,-0.3 10.9,-0.5 4.5,-0.3 9,-0.7 13.6,-0.8 4.2,-0.2 8.5,-0.1 12.7,-0.2 3.7,-0.1 7.4,-0.3 11.2,-0.4 l 6.3,-0.3 c 0,0 4.2,-0.1 6.3,-0.3 3.6,-0.2 7.2,-0.6 10.8,-0.7 2.3,-0.1 4.6,0 6.9,-0.1 3.7,-0.1 7.5,-0.3 11.2,-0.3 1.4,0 2.9,0.2 4.7,0.3 -0.8,0.7 -1.3,1.1 -1.9,1.6 0.4,0.1 0.8,0.3 1.2,0.5 0,0.1 -0.1,0.2 -0.1,0.4 -0.5,0 -1,0.1 -1.5,0.1 -0.2,0.5 -0.4,0.7 -0.6,1.7 l 1.8,0 c -0.7,0 -1.3,0.9 -2,1.5 0.1,0.1 0.2,0.1 0.3,0.2 -1.1,-0.4 -1.8,-0.2 -2.2,0.9 0.3,0.1 0.5,0.1 0.8,0.1 -0.1,0.3 -0.2,0.6 -0.3,1 -0.1,0.2 -0.2,0.4 -0.2,0.7 l -0.3,-0.3 c 0,-0.2 0,-0.4 -0.1,-0.6 -0.6,0.6 -1.5,1 -1,2.3 -0.4,0.2 -0.9,0.4 -1.4,0.7 0.1,0.2 0.3,0.4 0.4,0.7 -0.9,0.1 -1.8,0.3 -1.6,1.4 0.4,0.1 0.8,0.3 1.1,0.4 -0.5,0.2 -1,0.5 -1.5,0.7 -0.1,0.2 -0.2,0.7 -0.4,0.8 -1.4,0.3 -0.6,0.8 -0.2,1.3 -0.3,0.2 -0.6,0.4 -0.9,0.5 0.3,0.1 0.5,0.2 0.7,0.4 -0.3,0.2 -0.5,0.3 -0.7,0.4 0.2,0.1 0.5,0.3 0.6,0.3 -0.3,0.2 -0.6,0.5 -1,0.8 0,-0.1 0.1,-0.2 0.1,-0.3 l -0.4,0 c 0,0.2 0,0.4 0.1,0.5 -0.1,0.1 -0.2,0.1 -0.3,0.2 0,0.2 0,0.3 0.1,0.5 -0.4,0.4 -0.8,0.8 -1.2,1.4 -0.4,0.6 -0.6,1.4 -1.1,2 -2.1,2.3 -3.6,5 -6.3,6.8 -1,0.7 -1.9,1.6 -2.8,2.5 -1.8,1.7 -3.4,3.6 -5.3,5.2 -2.5,2.1 -5.1,4 -7.8,5.9 -3.3,2.3 -6.6,4.6 -9.9,6.8 -1.8,1.2 -3.8,2.1 -5.7,3.2 -1.9,1.1 -3.7,2.1 -5.6,3.2 -1.2,0.8 -2.3,1.9 -3.6,2.5 -3.3,1.4 -6.8,2.6 -10.2,3.9 -0.3,0.1 -0.5,0.2 -0.8,0.3 -2.5,1.1 -4.9,2.3 -7.4,3.2 -2.3,0.8 -4.7,1.4 -7.1,1.9 -0.8,0.2 -1.7,0 -2.6,0.1 -1.7,0.3 -3.4,0.7 -5.1,0.9 -4.4,0.6 -8.8,1 -13.2,1.6 -2.6,0.3 -5.1,0.8 -7.7,1.1 -1.8,0.1 -3.7,-0.1 -5.5,-0.1 -1.3,0 -2.7,0.3 -4,0.1 -2.1,-0.3 -4.2,-0.8 -6.3,-1.2 -0.5,-0.1 -1.2,-0.3 -1.6,-0.1 -0.8,0.4 -1.5,-0.2 -2.3,0 -0.5,0.1 -1,-0.3 -1.5,-0.3 -0.4,-0.1 -0.9,0.1 -1.4,0 -1.1,-0.3 -2.1,-0.7 -3.3,-0.6 -1.2,0.1 -2.4,-0.5 -3.7,-0.8 -1.8,-0.4 -3.5,-0.8 -5.3,-1.2 -0.7,-0.2 -1.3,-0.5 -2,-0.9 -0.2,0.1 -0.5,0.3 -0.9,0.3 -1.7,-0.3 -3.4,-0.4 -5,-1 -1.4,-0.5 -2.7,-1.2 -4.2,-1 -0.4,0.1 -0.7,-0.1 -1.1,-0.1 -0.3,-0.4 -0.6,-1.2 -0.9,-1.2 -2,0.1 -3.2,-1.6 -4.9,-2.1 -0.9,-0.3 -1.6,-1.3 -2.5,-1.6 -2.2,-0.9 -4,-2.8 -6.5,-3.1 -0.8,-0.1 -1.6,-0.5 -2.5,-0.8 0.3,0.4 0.5,0.7 0.8,1 l -0.2,0.2 c -2.7,-1.6 -5.4,-3.2 -8.1,-4.7 -0.4,-0.1 -0.7,-0.5 -1,-0.7 l -2.68,-1.8 c -0.3,-0.2 -0.91,-0.5 -0.91,-0.4 -0.6,0.7 -1.19,0.1 -1.59,-0.1 -2.7,-1.9 -5.81,-3.1 -8.41,-5.2 -1.1,-0.9 -2.39,-1.5 -3.19,-2.6 -1.4,-1.7 -3.1,-2.9 -5,-3.9 -1.5,-0.8 -2.91,-1.7 -4.31,-2.6 -0.7,-0.5 -1.4,-1.1 -1.4,-2.2 0,-0.7 -0.29,-1.4 -1.19,-1 -0.4,-0.6 -0.81,-1.3 -1.31,-1.5 -1.2,-0.5 -2,-1.4 -2.9,-2.2 -0.9,-0.8 -1.6,-1.9 -2.7,-2.3 -2,-0.8 -3.2,-2.5 -4.4,-3.9 -2.8,-3.3 -5.3,-6.9 -7.9,-10.4 -0.2,-0.3 -0.59,-0.5 -0.89,-0.8 l -0.11,0.1 c 0.5,1 1,1.9 1.5,2.9 -0.1,0.1 -0.29,0.2 -0.39,0.3 -0.6,-0.7 -1.3,-1.4 -1.9,-2.1 -0.1,0.1 -0.21,0.2 -0.31,0.2 l 7.21,11.4 c 0.6,0.9 1.09,1.8 1.69,2.7 -0.1,0.1 -0.2,0.2 -0.4,0.3 -1.1,-0.2 -2.1,-1 -2.6,-1.9 -0.9,-1.6 -1.9,-2.6 -3.9,-2.4 -0.2,-0.7 -0.4,-1.5 -0.5,-2.2 -0.4,0 -0.7,0 -1.4,-0.1 1.4,2.2 2.6,4.1 3.9,6.3 -0.5,-0.3 -0.8,-0.5 -1,-0.6 1.8,1.9 3.1,4.3 5.4,5.5 0.5,2.3 3.1,3.4 3.7,5.6 -0.5,-0.1 -0.89,-0.2 -1.39,-0.3 -0.8,-1 -1.71,-2 -2.61,-3.1 0.2,0.7 0.5,1.3 0.9,1.8 1.2,1.5 2.31,3 3.71,4.3 0.5,0.5 1.19,0.7 1.19,1.6 0.2,-0.2 0.41,-0.3 0.81,-0.5 -0.2,0.4 -0.3,0.6 -0.4,0.9 0.4,0 0.7,0.1 1,0.1 0.2,0.6 -0.11,1.5 1.09,1.3 0.1,0 0.21,0.1 0.31,0.2 0.5,1.3 1.29,1.3 2.39,0.8 0.2,-0.1 0.7,0 0.8,0.2 0.5,1.1 1.2,1.2 2.1,0.4 0,0.5 0.1,1 0.1,1.4 l 0.4,0 c 0,-0.2 -0.1,-0.5 -0.1,-1 0.5,0.4 0.8,0.6 1,0.8 1,1.4 1.91,2.7 3.31,3.8 1.9,1.6 3.59,3.3 5.39,4.8 3.5,2.9 7.4,5.3 11.3,7.5 4.8,2.7 9.39,5.6 14.29,8.2 5.9,3.1 12.2,5.2 18.7,6.7 2.4,0.5 4.7,1 7.1,1.6 2.1,0.6 4.2,1.5 6.3,2 3.2,0.7 6.5,1.3 9.7,1.9 0.7,0.1 1.4,0.2 2.2,0.3 l 0,0.2 c 0.9,0 2,-0.4 2.2,-0.1 0.5,0.8 0.9,0.4 1.5,0.3 0.7,-0.2 1.5,-0.2 2.3,-0.2 2.8,0.1 5.5,0.7 8.3,0.5 0.6,0 1.5,-0.5 2,0.5 0.2,-0.1 0.3,-0.2 0.5,-0.3 0.4,-0.1 0.9,-0.1 1.3,-0.2 l 0,0.2 c -0.2,0.1 -0.4,0.1 -0.8,0.2 0.5,0.1 0.8,0.2 1.1,0.3 -0.2,0.2 -0.3,0.2 -0.5,0.3 -0.2,0.1 -0.5,0.2 -0.9,0.5 3.6,0.7 7,0.8 10,0 l 0,-0.6 0.4,0 c 0,0.2 0.1,0.4 0.2,0.6 4.6,0.4 9.1,-0.2 13.4,-1.7 0.4,0.5 0.7,1.2 1.3,0.2 0.2,-0.3 0.7,-0.4 1.1,-0.5 0.9,-0.2 2,-0.6 2.8,-0.3 0.9,0.3 1.2,-0.5 1.9,-0.5 1.2,0 2.3,-0.1 3.4,-0.3 0.6,-0.1 1.2,-0.4 1.9,-0.6 0,-0.1 0,-0.2 -0.1,-0.3 -0.7,-0.1 -1.5,-0.2 -2.1,-0.2 1.2,-0.6 2.3,-1.1 3.4,-1.6 0,0.1 0.1,0.1 0.1,0.2 -0.3,0.1 -0.5,0.5 -0.9,0.5 l 1.4,0 c -0.3,0 -0.7,0.9 -1.2,1.5 3.6,-0.9 6.9,-1.7 10.1,-2.5 l 0,-0.2 c -0.4,0.1 -0.7,0.1 -1,0.2 -0.1,-2.1 2.2,-1.4 3,-2.6 -1,0.3 -2,0.6 -3,0.8 l 0,-0.2 c 3.4,-1.5 6.9,-3 10.3,-4.5 0,0.1 0.1,0.1 0.1,0.2 -0.6,0.4 -1.2,0.7 -2.1,1.2 0.6,0.1 1,0.1 1.3,0.2 0,0.3 0,0.5 -0.1,0.6 1.7,-0.1 1.3,-1.6 1.8,-2.5 0.3,0.1 0.7,0.3 1,0.2 0.9,-0.2 1.7,-0.5 2.6,-0.8 1,-0.3 2,-0.6 3,-1 1.6,-0.7 3.1,-1.6 4.7,-2.4 0.3,-0.1 0.8,0 1.2,0 0.3,0 0.5,-0.2 0.7,-0.4 0.4,-0.3 0.8,-0.9 1.1,-0.8 1.4,0.2 2.4,-0.3 2.8,-1.6 0.1,0 0.1,-0.1 0.2,-0.1 0.1,0 0.1,0 0.1,-0.1 0.4,0.9 1.2,1 2.5,0.1 -0.8,0 -1.6,-0.1 -2.3,-0.2 0,0 -0.1,0.1 -0.1,0.1 0.4,-0.4 0.9,-0.7 1.3,-1 2.2,-1.2 4.3,-2.4 6.5,-3.6 0.1,-0.1 0.3,0 0.5,0 0.3,0 0.7,0 0.9,-0.1 1.3,-0.6 2.5,-1.3 3.7,-2 -0.3,-0.1 0,-0.2 -1,-0.3 l 0,-0.2 c 1,-0.2 1.3,-0.3 1.9,-0.5 l -0.2,-0.2 c 2.6,-2.6 5.9,-4.5 8.4,-6.7 0.5,0.1 0.7,0.2 1,0.2 0.1,-0.3 0.1,-0.6 0.1,-0.8 0.4,-0.5 0.8,-1.1 1.3,-1.5 2.2,-2 4.6,-3.7 6.6,-5.8 2.9,-2.9 5.7,-5.9 8.3,-9 2.4,-2.8 4.8,-5.6 6.8,-8.7 2.8,-4.3 5.2,-8.7 7.7,-13.2 1.8,-3.2 3.4,-6.4 5.2,-9.6 0.2,-0.3 0.6,-0.7 0.9,-0.7 2.7,-0.3 5.4,-0.5 8,-0.8 0.6,-0.1 1.3,-0.5 1.9,-0.8 -0.3,-0.5 -0.5,-1.1 -0.8,-1.6 -0.4,-0.6 -1,-1.1 -1.4,-1.7 -0.4,-0.5 -0.7,-1.1 -1,-1.7 -0.3,-0.5 -0.6,-0.9 -0.9,-1.4 -0.6,-1.1 -1.2,-2.2 -1.7,-3.4 -0.1,-0.3 -0.3,-0.8 -0.2,-1.1 1.8,-3.9 2.5,-8.1 4.2,-12 1.7,-4 2.2,-8.5 3,-12.8 0.7,-4.1 1.1,-8.2 1.6,-12.3 0.3,-2.9 0.7,-5.7 0.8,-8.6 0.6,-4.6 0.4,-8.9 0.3,-13.2 -0.1,-3.8 -0.3,-7.7 -0.5,-11.5 -0.2,-3.9 -0.3,-7.8 -0.7,-11.7 -0.7,-5.3 -1.4,-10.7 -2.6,-15.9 -0.9,-4.3 -2.4,-8.4 -3.9,-12.5 -1.9,-4.8 -3.8,-9.7 -6.2,-14.3 -3.9,-7.4 -9,-14 -13.7,-20.9 -3.1,-4.4 -7.1,-8 -10.1,-12.5 -1.7,-2.6 -4.2,-4.8 -6.7,-6.8 -4,-3.2 -8.2,-6.1 -12.4,-8.9 -3.2,-2.2 -6.4,-4.3 -9.8,-6.2 -2.7,-1.5 -5.6,-2.7 -8.4,-4 -3.2,-1.5 -6.3,-3.3 -9.9,-4 -0.9,-0.2 -1.7,-0.5 -2.6,-0.8 -2.3,-0.8 -4.5,-1.7 -6.8,-2.4 -3.5,-1.1 -6.9,-2.4 -10.5,-3.3 -3.5,-0.9 -7.1,-1.5 -10.7,-2 -4,-0.6 -8.1,-0.8 -12.1,-1.2 -2.6,-0.3 -5.2,-0.6 -7.7,-0.7 -3.8,-0.2 -7.7,-0.2 -11.5,-0.3 -1.4,-0.1 -2.9,-0.21 -4.3,-0.23 z m 7.1,11.63 c 1.3,0.2 2.5,0.4 3.7,0.5 l 4.8,0.3 c 3.6,0.3 7.2,0.5 10.8,1 3,0.4 6,1 9.1,1.5 6.6,1.1 13.1,2.9 19.4,5 3.7,1.2 7.3,2.8 10.9,4.3 8.1,3.3 15.8,7.3 23.4,11.5 2.4,1.3 3.8,3.4 5.6,5.3 2.6,2.7 5.2,5.4 7.7,8.2 2.9,3.3 5.6,6.7 8.4,10.1 2.5,3 5.1,6 7.6,9 0.8,0.9 1.4,2 2.1,3 1.6,2.4 3.4,4.7 4.8,7.27 1,1.9 1.6,4.1 2.3,6.2 1,3.1 2,6.1 3,9.2 0.7,2.3 1.3,4.7 1.8,7.1 0.4,1.6 0.3,3.3 0.8,4.9 0.6,2.1 0,4.4 0.6,6.5 0.1,0.2 0.2,0.5 0.3,0.7 0.4,0.4 0.7,0.8 0.1,1.4 -0.1,0.1 -0.1,0.5 0,0.8 0.2,-0.2 0.3,-0.4 0.5,-0.7 0,0.2 0.1,0.3 0.1,0.4 0,0.4 -0.1,0.8 0,1.2 0,0.2 0.2,0.5 0.3,0.7 0.2,-0.2 0.4,-0.3 0.8,-0.6 0.9,3.4 1,6.8 1,10.3 0,3.3 0.6,6.6 -0.8,9.8 0.3,-1.1 -0.4,-2.1 -0.1,-3.1 -0.1,0 -0.7,-0.6 -0.8,-0.7 -0.1,0.3 0,0.6 -0.2,1 -0.1,-0.3 -0.8,-0.2 -0.8,-0.5 -0.1,1.4 0.6,2.8 0.5,4.2 0.3,-0.2 1.5,-0.3 1.8,-0.6 0.1,0.1 0.3,0.2 0.4,0.2 -2,1.5 -1.5,3 -0.6,4.7 0.2,0.4 0.8,1.2 0.2,2 -0.2,0.2 0.1,0.8 0.2,1.3 l 0.3,0 0,0.2 -0.9,0.3 c -0.2,-0.3 -1.4,-0.9 -1.4,-1.4 l 0,5.1 c 1,0.3 1,1.7 1.4,2.4 0.2,-0.3 0.3,-0.5 0.4,-0.8 l 0.1,0.1 c -0.1,0.6 -0.2,1.2 -0.4,1.8 -0.2,0.9 -0.4,1.7 -0.5,2.6 0,0.1 0.2,0.3 0.2,0.4 -1.1,2.5 -0.5,5.3 -0.9,7.9 -0.3,1.9 0,3.9 -0.2,5.9 -0.2,1.7 -0.6,3.5 -1,5.2 -0.1,0.3 -0.3,0.4 -0.8,0.6 0.2,-1.2 0.1,-2 -0.1,-3.1 -0.1,0 -1.4,-0.7 -1.5,-0.7 0,1.4 0.8,3.3 1.1,4.9 -0.3,-0.1 -1.5,-0.8 -1.6,-0.8 -0.2,1.2 -0.2,2.8 -0.3,4.1 -0.1,1 -1,1.9 -1.1,3 0,0.6 0.7,1 0.6,2 l 0.8,0 c 0,-2 0.9,-3.8 0.9,-5.9 l 0.3,0 c 0.1,0.2 0.4,0.4 0.3,0.5 -0.2,1.1 -0.6,2.3 -0.5,3.4 0,0.6 0.5,1.2 0.3,1.9 -0.2,0.6 -0.3,1.2 -0.4,2.1 -0.1,-0.5 -0.2,-0.7 -0.2,-1 -0.1,0 -1,-0.1 -1.1,-0.1 -0.1,0.6 0.7,1.2 0.6,1.7 -0.1,0.1 -0.2,0.1 -0.4,0.2 l -3.3,-4.8 c -2.6,-3.8 -5.2,-7.6 -7.8,-11.5 -0.7,-1 -1.3,-2 -1.8,-3 -3.1,-5.3 -6.5,-10.4 -10.3,-15.3 -2.9,-3.7 -5.2,-7.7 -7.9,-11.6 -2.5,-3.7 -5,-7.3 -7.5,-11 -0.9,-1.2 -2,-2.3 -2.8,-3.6 -2.6,-4.1 -4.9,-8.3 -7.5,-12.4 -2.2,-3.4 -4.6,-6.7 -6.9,-10 -0.8,-1.1 -1.6,-2.3 -2.4,-3.5 -0.1,-0.2 -0.2,-0.4 -0.2,-0.7 -0.2,-2.2 -0.4,-4.4 -0.5,-6.5 0,-2 0.2,-4 0.2,-6.1 l 0,-1.8 c 0,-0.5 0.1,-0.9 0.1,-1.4 0.1,-0.1 0.2,-0.3 0.3,-0.4 -2.9,0 -5.9,-0.1 -8.8,0 -1.9,0.1 -2.9,-0.7 -4.2,-2.1 -3.8,-4.27 -6.6,-9.17 -9.9,-13.77 -3.1,-4.4 -6.3,-8.7 -9.5,-13 -2.6,-3.5 -5.2,-6.9 -7.8,-10.4 -2.9,-4 -5.7,-8 -8.7,-12 -3.6,-4.8 -7.3,-9.6 -11,-14.4 -1.7,-2.2 -3.6,-4.3 -5.5,-6.6 z m -9.5,5.23 c 0.3,0 0.6,0.15 0.8,0.47 2.7,3.4 5.4,6.9 8.1,10.3 2,2.5 4,4.9 5.9,7.5 2.3,3.2 4.5,6.4 6.8,9.6 2.6,3.7 5.2,7.4 7.7,11.2 3.8,5.6 7.4,11.2 11.2,16.8 2.8,4.1 5.6,8.07 8.3,12.17 l -5.1,0 c -4.7,-0.1 -9.5,-0.5 -14.2,-0.3 -6.4,0.3 -12.9,1 -19.3,1.5 -8.1,0.7 -16.3,0.8 -24.4,0.8 -2.9,0 -5.8,0.4 -8.7,0.6 -3.5,0.2 -6.9,0.4 -10.4,0.5 -4.1,0.2 -8.1,0.3 -12.2,0.4 -2.3,0.1 -4.7,0 -7.2,0 3.2,-4.4 6.5,-8.8 9.7,-13.27 1,-1.3 1.8,-2.7 2.8,-4 0.3,-0.4 0.7,-0.6 1.2,-1 l -0.1,-0.2 c 0.4,-0.5 0.8,-0.9 1,-1.3 0.5,-0.8 0.8,-1.7 1.2,-2.6 0.1,-0.2 0.4,-0.4 0.4,-0.4 1.4,0.7 1.4,-0.8 1.9,-1.3 0.9,-1 1.8,-2.1 2.6,-3.1 0.6,-0.8 1.2,-1.5 1.7,-2.4 0.1,-0.3 -0.2,-0.8 -0.3,-1.2 l -0.3,0 c 0.3,-0.2 0.6,-0.5 0.9,-0.7 0.1,0 0.1,0 0.2,-0.1 0.6,-0.9 1.2,-1.8 1.8,-2.6 1.2,-1.6 2.5,-3.2 3.9,-4.6 -0.2,0.5 -0.4,1 -0.6,1.4 0.1,0 0.1,0.1 0.2,0.1 1.2,-1.6 2.5,-3.1 3.7,-4.7 -0.1,-0.1 -0.2,-0.2 -0.3,-0.2 -0.5,0.5 -0.9,1 -1.4,1.5 -0.1,-0.1 -0.2,-0.2 -0.3,-0.2 1,-1.3 2,-2.6 3,-4.1 0.2,0.3 0.4,0.7 0.8,1.5 0.4,-1 0.8,-1.7 1.1,-2.4 -0.3,0.3 -0.7,0.6 -1,0.9 l -0.3,-0.3 1.8,-2.7 c 1.9,-2.7 3.8,-5.5 5.7,-8.2 0.7,-1 1.6,-1.8 2.2,-2.8 1.9,-3.8 4.9,-6.8 7.2,-10.3 0.5,-0.7 1.2,-1.3 1.8,-1.9 0.2,-0.23 0.4,-0.34 0.5,-0.37 z m -28,38.97 c -0.6,0.4 -1.1,0.7 -1.7,1.1 -0.1,0.1 -0.2,0.1 -0.1,0.1 0.1,0.5 0.1,0.9 0.2,1.6 0.7,-1 1.2,-1.8 1.8,-2.6 l -0.2,-0.2 z M 221,119 c 0.9,0 1.4,0.3 1.9,1.1 0.9,1.5 1.8,3 2.8,4.5 0.1,0.2 0.3,0.5 0.3,0.8 0,2.2 0,4.5 0.1,6.7 0.1,2.3 0.3,4.5 0.4,6.8 0,2.3 -0.2,4.7 -0.1,7.1 0.1,3.4 0.2,6.9 0.2,10.4 l 0,0.9 c -0.1,0 -0.2,0.1 -0.4,0.1 -0.4,-1.4 -0.8,-2.9 -1.3,-4.3 -1,-2.9 -2.1,-5.8 -3.9,-8.4 -2,-2.8 -3.8,-5.7 -5.8,-8.6 -0.5,-0.7 -1.2,-1.3 -1.8,-1.9 -2.1,-2.3 -4.2,-4.7 -6.9,-6.4 -4,-2.5 -8.1,-4.6 -12.5,-6.4 -1.2,-0.5 -2.3,-1.1 -3.5,-1.8 l 2.4,0 17.1,-0.3 c 3.7,-0.1 7.3,-0.1 11,-0.3 z m -75.1,2.6 c 0.7,0 1.5,0 2.2,0.1 -1.6,0.8 -3.2,1.6 -4.6,2.6 -1.8,1.2 -3.5,2.8 -5.3,4.1 -1.8,1.3 -3.4,2.9 -4.9,4.6 -1.9,2.3 -4,4.3 -6,6.5 -1.4,1.6 -3,3.1 -4.2,4.8 -1.7,2.2 -3.2,4.6 -4.8,7.1 0.5,-9.5 1.1,-18.9 0.7,-28.5 4.7,-0.2 9.2,-0.5 13.8,-0.7 3.6,-0.2 7.3,-0.3 10.9,-0.5 0.8,0 1.5,-0.1 2.2,-0.1 z m 25.1,5.1 c 3,0.1 6,0.1 9,0.3 1.3,0.1 2.5,0.4 3.7,0.8 1.5,0.5 3.1,1.2 4.5,1.9 1.7,0.9 3.3,1.9 4.9,3 2.9,1.9 5.6,4 8.5,5.7 2.8,1.7 5,4 6.8,6.6 2.2,3.1 4.7,5.9 5.7,9.7 l 1.5,6.6 c 0.3,1.2 1,2.4 0.7,3.8 -0.5,2.5 -0.9,5.1 -1.3,7.6 -0.2,1 -0.4,2 -0.3,3 0.2,3.1 -1,5.8 -2.2,8.6 -0.4,0.9 -1,1.8 -1.5,2.8 0.1,0.1 0.7,0.4 0.8,0.4 l 0.9,-1.8 c 0.1,0 0.1,0 0.2,0.1 -0.5,1.4 -0.9,2.9 -1.4,4.3 -1.2,3.1 -2.4,6.3 -3.9,9.3 -0.8,1.7 -2.2,3.1 -3.2,4.7 -1,1.4 -1.8,2.9 -2.8,4.2 -0.9,1.1 -1.8,2.2 -3,3 -2.7,2 -5.5,4 -8.4,5.6 -1.8,1.1 -3.9,1.7 -5.9,2.2 -3.2,0.8 -6.5,1.7 -9.8,2.1 -2.8,0.4 -5.7,0.3 -8.6,0.3 -2.6,0 -5.1,-0.1 -7.7,-0.3 -2.9,-0.3 -5.8,-0.6 -8.6,-1.9 -2.4,-1.1 -4.9,-2.1 -7.3,-3.3 -2.4,-1.2 -4.8,-2.6 -6.6,-4.8 -1.3,-1.6 -3.1,-2.9 -4.7,-4.3 0.3,1.2 1,2.2 2.1,2.9 -0.5,0.6 -1.2,0.3 -2.2,-1.3 -0.3,0.2 -0.6,0.3 -0.8,0.4 0.3,-0.7 0.6,-1.4 0.9,-2 -0.4,-0.8 -0.9,-1.7 -1.3,-2.5 -0.8,-1.3 -1.6,-2.7 -2.3,-4 -0.2,-0.3 -0.2,-0.6 -0.4,-0.9 -0.5,-0.6 -1,-1.2 -1.4,-1.8 -0.8,-1.2 -1.5,-2.5 -2.5,-3.7 0,0.3 0.1,0.6 0.1,1 -0.1,0 -0.2,0.1 -0.2,0.1 l -2.1,-5.1 c -0.1,0 -0.1,0 -0.2,0.1 l 1.8,6.6 c -0.1,0 -0.2,0.1 -0.3,0.1 -0.3,-0.4 -0.6,-0.8 -0.8,-1.3 -0.2,-0.8 -0.8,-0.8 -1.3,-0.5 -0.3,0.2 -0.5,0.9 -0.4,1.2 0.7,1.7 1.5,3.4 2.3,5.1 0.2,0.6 0.4,1.1 0.7,1.7 0.1,0.2 0.4,0.4 0.4,0.7 0.4,0.8 0.7,1.6 1.2,2.3 0.9,1.2 1.9,2.4 2.8,3.6 0.9,1.2 1.7,2.5 2.5,3.7 0.1,0.2 0.4,0.2 0.5,0.3 0.5,1.5 2.2,2.6 3.4,2 0.3,2.3 2.8,3.1 3.8,5.3 -1.2,-0.5 -2.1,-0.9 -2.9,-1.3 -0.1,0.1 -0.1,0.2 -0.2,0.4 1.2,0.6 2.4,1.2 3.5,1.9 1,0.6 2,1.2 2.9,1.9 1.2,1.1 2.6,1.7 4.3,2.1 -0.1,-0.3 -0.2,-0.4 -0.2,-0.4 2.8,1.3 5.7,2.7 7.9,3.8 -10.4,0.2 -21.5,0.4 -33,0.6 0,-1.9 -0.1,-3.7 -0.1,-5.6 0,-0.8 0.2,-1.5 0.1,-2.3 -0.3,-4.6 -0.3,-9.2 -0.9,-13.7 -0.6,-4.8 -0.6,-9.5 -0.5,-14.3 0.1,-2.6 -0.1,-5.3 -0.2,-7.9 0,-3.5 0,-6.9 0.1,-10.4 0,-0.5 0.2,-0.9 0.4,-1.4 l 0.3,0 c 0.1,0.2 0,0.5 0.2,0.6 0.3,0.3 0.8,0.8 1,0.7 0.6,-0.4 1.5,-0.8 1.7,-1.4 0.5,-1.2 0.7,-2.5 0.7,-3.7 0,-0.9 0.4,-1.5 0.8,-2.1 0.2,-0.3 0.3,-0.6 0.5,-1 -0.4,-0.3 -0.8,-0.5 -1.3,-0.9 0.4,-1.1 0.3,-2.4 1.8,-3 0.2,-0.1 0.2,-0.6 0.3,-0.9 0.1,-0.8 0.2,-1.7 0.3,-2.5 0.2,0.3 0.3,0.4 0.5,0.6 0.1,-0.2 0.2,-0.3 0.2,-0.3 0,-0.4 -0.1,-1.2 0,-1.2 1.2,-0.2 0.7,-1.5 1.3,-2.1 0.1,-0.1 -0.1,-0.4 -0.1,-0.6 0,-0.2 0,-0.5 0.1,-0.5 1.4,-0.3 1.2,-1.8 2.1,-2.5 0.3,-0.2 0.4,-0.5 0.8,-1 0.8,1.4 -0.6,2.1 -0.7,3.1 1.7,-1 2.2,-3.4 1.2,-4.1 0.4,-0.3 0.8,-0.7 1.1,-1.1 1.1,-1.2 2.3,-2.3 3.3,-3.5 0.7,-0.9 1.1,-2 1.8,-2.9 0.4,-0.5 1.2,-0.9 1.8,-1.2 1.8,-1 3.5,-2.1 4.6,-3.8 0.2,-0.2 0.5,-0.4 0.8,-0.6 0.3,-0.2 0.9,-0.2 1,-0.5 0.1,-0.2 -0.2,-0.7 -0.4,-1 0.4,-0.2 0.8,-0.6 1.6,-1 -0.3,0.6 -0.4,1 -0.6,1.4 l 0.5,0.5 c 0.9,-0.7 2.3,-1.5 3.2,-2.1 0,-0.1 -0.5,-0.5 -0.5,-0.5 -0.6,0.3 -1.5,0.8 -2.4,1.2 0.2,-0.3 0.2,-0.5 0.3,-0.6 1.4,-0.9 2.8,-1.8 4.3,-2.5 3.5,-1.6 7,-3.2 10.5,-4.7 0.6,-0.3 1.4,-0.1 2.1,-0.1 0.3,0 0.5,0 0.8,-0.1 1.6,-0.5 3.2,-1 4.8,-1.4 0.7,-0.2 1.5,-0.3 2.2,-0.3 z m -3.9,1.5 c -1.1,0.5 -2,0.9 -2.9,1.3 0,0.1 -0.5,0.9 -0.4,0.9 0.5,-0.1 1.6,-0.9 2.2,-1 0.3,0 0.7,0.1 1,0.2 0,-0.4 0,-0.8 0.1,-1.4 z m 72.3,17 c 1,1.3 2.1,2.5 2.8,3.8 2.3,4.2 5.3,7.8 8.1,11.6 2.4,3.3 4.6,6.9 6.8,10.3 2.7,4.1 5.3,8.2 8,12.3 2,3.1 4.1,6.2 6.2,9.2 1.9,2.7 3.9,5.3 5.9,7.9 1.7,2.3 3.5,4.6 5.2,6.9 2,2.8 4,5.6 6,8.3 1,1.4 2.1,2.8 3.2,4.2 0.6,0.8 1.5,1.4 2.1,1.9 -0.1,0 -0.2,0 -0.4,-0.1 0.3,0.4 0.5,0.7 0.7,0.9 1.1,0.6 1.2,1.2 0.6,2.1 -0.1,0.2 -0.3,0.4 -0.4,0.6 -0.1,-0.2 -0.1,-0.5 -0.2,-0.9 -0.6,1.6 -1.9,0.8 -2.8,0.8 -5.4,0.1 -10.9,0.1 -16.3,0.1 -5.2,0 -10.5,0 -15.7,0.1 -1.7,0 -3.5,0.4 -5.2,0.5 -4.1,0.2 -8.2,0.3 -12.3,0.4 -0.3,0 -0.6,-0.5 -1.1,-0.9 -0.1,0.2 -0.3,0.5 -0.6,0.9 -0.1,-0.2 -0.3,-0.4 -0.5,-0.7 -0.1,0.3 -0.2,0.6 -0.3,0.8 l -0.3,0 c -0.2,-1.4 -0.6,-2.7 -0.6,-4.1 0,-3 0.3,-6 0.4,-9 0.1,-1.4 0,-2.7 0,-4 0.4,0.3 0.7,0.5 1.1,0.8 0.2,-0.4 0.4,-0.7 0.6,-1 0,0 -0.2,-0.1 -0.4,-0.3 0.2,-0.1 0.4,-0.3 0.4,-0.4 0.1,-0.3 0.3,-0.6 0.3,-0.8 0,-0.7 -0.2,-1.3 -0.3,-1.9 0.1,0 0.2,0 0.3,-0.1 l 0.6,3 0.3,0 c -0.4,-0.7 0.9,-1.3 -0.2,-2.1 -0.1,-0.1 0.1,-0.7 0.1,-1 -0.3,-0.6 -0.5,-1.2 -0.8,-2 0.1,-0.1 0.4,-0.2 0.7,-0.3 -0.4,-0.2 -0.7,-0.4 -1,-0.5 1,-0.9 1,-1.4 0.1,-2.4 0.2,-0.1 0.4,-0.1 0.4,-0.2 0,-0.9 0,-1.8 -0.2,-2.7 -0.2,-1 0.3,-2.2 -1.2,-2.8 0.1,0.3 0.2,0.5 0.4,0.8 0,0 -0.3,0.1 -0.6,0.3 -1.3,-1.2 -0.5,-2.8 -0.8,-4.6 0.7,0.2 1.2,0.4 1.7,0.6 -0.2,-0.7 -0.7,-1.5 -1,-2.4 l -0.4,0 0,-6.6 c 0,0.1 0.7,0.1 1.1,0.2 0,-0.1 0.1,-0.2 0.1,-0.3 -0.3,-0.4 -0.7,-0.8 -1.1,-1.3 l 0.2,-0.2 c -0.8,-1 -0.4,-2.4 -0.4,-2.7 l 0,-3.8 0,-3.2 c 1,1 -0.5,2.3 1,2.9 0.1,0.1 0.1,0.1 0.2,0 -0.1,0 -0.1,0 -0.2,-0.1 l 0,-0.9 -0.1,0 c -0.1,-1.5 -0.1,-3 -0.2,-4.5 l -0.2,0 c -0.1,0.2 -0.1,0.3 -0.2,0.5 l -0.2,0 c 0.2,-7.9 0.4,-15.8 0.6,-23.9 z m -0.7,29.2 c 0.5,0.2 1,0.3 1,0.5 l 0,-0.7 c -0.3,0.1 -0.6,0.1 -1,0.2 z m -167.79,-21 c -1.2,1.4 -2.29,2.8 -3.39,4.2 0.2,0.1 0.49,0.8 0.69,1 1.1,-1.5 2.6,-3.4 3.7,-4.8 -0.1,-0.1 -0.9,-0.3 -1,-0.4 z m -6.7,4.9 c -0.6,0.9 -2.09,2.5 -2.69,3.4 0.1,0.1 1.19,-0.4 1.29,-0.3 0.6,-0.9 1.21,-1.9 1.81,-2.8 -0.2,-0.1 -0.31,-0.2 -0.41,-0.3 z m 2.1,1.5 c -0.6,0.4 -1.19,0.9 -1.79,1.3 0.2,0.2 0.19,0.3 0.19,0.5 -0.8,-0.1 -1.1,0.3 -1.5,1.4 -0.1,0.3 -0.59,0.4 -1.09,0.8 -0.1,0.2 -0.21,0.7 -0.41,1.2 l 0.1,0.1 c -0.2,0.2 -0.5,0.3 -0.5,0.3 -0.6,0.6 -1.3,1.1 -1.9,1.7 -0.1,0.3 -0.2,0.6 -0.2,0.9 0.7,-0.7 1.91,-2 2.81,-2.8 l 0.1,0.1 c 0.4,-0.6 0.69,-1.2 1.09,-1.8 0.1,0.1 0.1,0.2 0.2,0.3 -0.3,0.8 -0.59,1.7 -0.89,2.5 -0.2,0.1 -0.5,0.3 -0.5,0.2 -0.4,0.3 -0.71,0.7 -1.11,1 l -1.79,1.2 c -1,0.9 -2,1.7 -3.1,2.6 -0.7,1.1 -1.41,2.1 -2.21,3.4 1.2,-0.3 1.5,0.2 1.4,1.2 1.4,0.2 1.51,-0.9 1.91,-1.7 0.1,-0.2 0.2,-0.6 0.4,-0.7 0.9,-0.8 1.89,-1.5 2.89,-2.3 0.2,-0.2 0.21,-0.6 0.21,-0.9 0,-0.1 -0.51,-0.1 -0.81,-0.2 0.9,-1 2.2,-2.7 3.1,-3.8 0.5,-0.3 1,-0.7 1,-1 -0.1,-0.9 0.41,-1.3 1.04,-1.6 -0.46,2.2 -1.8,4 -3.14,4.4 0.4,0.2 0.8,0.4 1.1,0.3 0.3,-0.1 0.51,-0.6 0.71,-0.9 l 2.69,-3.9 0.9,-1.5 -0.4,-0.4 c -0.4,0.7 -0.79,1.3 -1.19,2 l -0.35,-0.1 c 0,-0.1 0,-0.1 0,-0.1 -0.4,-0.3 -0.5,-0.6 -0.5,-0.7 0.1,-0.3 0.3,-0.6 0.5,-0.9 0.2,0 0.5,-0.1 0.5,-0.1 0.4,-0.7 0.41,-1.2 0.81,-1.8 -0.1,-0.1 -0.21,-0.1 -0.31,-0.2 z M 225,192.4 c -0.2,11.4 1.1,22.6 2.6,33.9 -11.3,0.4 -22.8,0.8 -34.4,1.2 4.5,-1.9 8.2,-4.6 11.6,-7.7 0.5,-0.5 1,-1 1.6,-1.4 4.2,-2.6 7.3,-6.2 10.1,-10.2 3.2,-4.6 5.3,-9.8 7.9,-14.7 0.2,-0.4 0.4,-0.8 0.6,-1.1 z m 14,0.9 c 0.2,0.4 0.3,0.7 0.4,1 0.5,-0.1 0.7,-0.1 0.9,-0.2 0,-0.1 0,-0.2 0.1,-0.3 -0.3,-0.1 -0.7,-0.3 -1.4,-0.5 z m 0.3,1 c 0,0 0,0 -0.1,0 0.1,0 0.2,0.1 0.2,0.1 l -0.1,-0.1 c 0,0 0,0 0,0 z m -204.09,0.3 c -0.2,0 -0.8,0.3 -0.9,0.4 0.4,1 0.91,2.1 1.31,3.1 0.1,-0.1 0.69,-0.4 0.79,-0.4 -0.4,-1 -0.8,-2.1 -1.2,-3.1 z m -2.8,4.1 c -0.3,0.5 -0.6,1 -0.5,1.4 0,0.3 0.5,0.6 0.8,0.9 0,-0.1 0.1,-0.2 0.2,-0.3 -0.2,-0.7 -0.3,-1.3 -0.5,-2 z m 267.29,0.1 c 0,0.2 0.1,0.5 0,0.7 l 0,-0.7 z M 37.62,201 c -0.1,0 -0.81,0.3 -0.91,0.4 0.8,1.7 1.61,3.5 2.41,5.2 0.1,0 0.9,-0.4 0.9,-0.4 -0.8,-1.7 -1.3,-3.6 -2.4,-5.2 z m -2,4 c 0,0.4 -0.5,0.3 -0.5,0.7 -0.6,0 -1.1,-0.1 -1.6,-0.1 -0.1,0.1 0.29,0.7 0.39,0.8 l 2.11,0 c 0,-0.5 -0.11,-0.9 -0.11,-1.4 l -0.29,0 z m 91.98,3.9 c 1.1,1.7 2.2,3.3 3.4,4.9 l -0.1,0.1 c -0.2,-0.1 -0.5,-0.2 -0.7,-0.4 l -2.4,-3.6 c -0.2,-0.3 -0.3,-0.6 -0.2,-1 z m 111.6,5.4 c -0.1,1.2 -0.2,2.1 -0.2,3 0,0.2 0.2,0.6 0.3,0.6 0.2,0.1 0.6,-0.1 0.8,-0.2 0.1,-0.1 0.2,-0.3 0.2,-0.4 -0.3,-0.2 -0.6,-0.3 -0.9,-0.5 1.9,-1 0,-1.5 -0.2,-2.5 z M 65.02,270.9 c 1.1,1.2 2.19,2.4 3.29,3.7 0.3,-0.1 0.6,-0.1 0.9,-0.2 0.3,0.5 0.51,1.1 0.81,1.7 -1.4,-0.1 -2.11,-0.7 -1.71,-1.5 -0.6,-0.3 -1.3,-0.5 -1.6,-0.9 -0.7,-0.8 -1.3,-1.7 -2,-2.5 l 0.31,-0.3 z m 194.68,18.8 c -0.8,0.2 -1.4,0.3 -1.9,0.5 -0.2,0.4 -0.4,0.7 -0.6,1.1 0.1,0 0.2,0.1 0.3,0.2 0.6,-0.6 1.3,-1.1 2.2,-1.8 z m -5.1,2.8 c -1.1,0.7 -2.3,1.4 -3.4,2.1 0.1,0.1 0.1,0.2 0.2,0.3 1.4,-0.3 2.5,-1 3.6,-1.8 -0.1,-0.2 -0.3,-0.4 -0.4,-0.6 z m -49,19 c -4.6,1.3 -6.1,1.5 -6.6,0.8 2.3,-0.3 4.4,-0.5 6.6,-0.8 z m -6.8,0.9 c 0.1,0.2 0.1,0.4 0.2,0.6 -0.6,0 -1,0.2 -1.5,0.3 -1.4,0.3 -2.9,0.5 -4.3,0.7 -0.5,0.1 -1.1,0.6 -1.3,-0.3 -0.2,0.1 -0.4,0.1 -0.6,0.2 0.5,1.5 1.7,0.3 2.7,0.9 -2.2,0.3 -4.3,0.5 -6.4,0.8 l 0,-0.2 c 0.6,-0.1 1.3,-0.2 1.9,-0.3 l 0,-0.3 c -1,-0.1 -2,-0.2 -3,-0.2 -0.3,0 -0.7,0.4 -1,0.5 -0.4,0.1 -0.8,0.2 -1.3,0.2 -1.7,0.1 -3.4,0.1 -5,0.2 -0.1,0 -0.3,-0.1 -0.4,-0.1 l 0,-0.3 c 6.7,-0.9 13.3,-1.8 20,-2.7 z m -20.9,2.6 0,0.3 c -1.9,0.3 -3.7,0.5 -5.6,0.6 l 0,-0.3 c 1.9,-0.2 3.7,-0.4 5.6,-0.6 z"></path>
</svg>
