<svg xmlns="http://www.w3.org/2000/svg" viewBox="0 0 1066 825" >
  <path style="opacity:0.3" d="M 855,358.9 H 669.3 V 33 H 855 Z"></path>
  <path style="opacity:0.2" d="M 1033,358.9 H 669.3 V 265.8 H 1033 Z"></path>
  <path style="opacity:0.2" d="M 985.8,358.9 H 669.3 V 126 h 316.5 z"></path>
  <path style="opacity:0.2" d="M 891.5,358.9 H 669.3 V 69.37 h 222.2 z"></path>
  <path style="opacity:0.3" d="M 785.4,358.9 H 669.3 V 219.1 h 116.1 z"></path>
  <path style="opacity:0.3" d="m 669.2,265.9 v 93 h 316.7 v -93 z"></path>
  <path d="m 126.7,684.3 c 5.6,0 7,0 10.5,0 38.1,0 59.2,-23.3 59.2,-69.8 0,-38.7 -16.9,-59.8 -48.6,-59.8 -4.2,0 -10.6,0.7 -21.1,2.8 z m 0,83.1 c 30.9,7 30.9,7 30.9,7 0,17.6 0,17.6 0,17.6 -121.8,0 -121.8,0 -121.8,0 0,-17.6 0,-17.6 0,-17.6 28.2,-7 28.2,-7 28.2,-7 0,-212.7 0,-212.7 0,-212.7 -31,0 -31,0 -31,0 0,-17.6 0,-17.6 0,-17.6 73.9,-22.6 73.9,-22.6 73.9,-22.6 19.8,0 19.8,0 19.8,0 0,25.4 0,25.4 0,25.4 34.5,-21.1 46.4,-24.7 64.7,-24.7 40.9,0 71.9,38.1 71.9,90.9 0,60.6 -41.6,102.1 -104.9,102.1 -7.1,0 -19.1,-0.7 -31.7,-1.4 m 424.6,-92.3 c 28.9,-35.9 39.4,-50.7 39.4,-68.3 0,-17.6 -14,-33.1 -33.8,-33.1 -11.2,0 -21.8,6.4 -26.7,12 0,73.9 0,73.9 0,73.9 -47.2,63.4 -47.2,63.4 -47.2,63.4 0,-143.6 0,-143.6 0,-143.6 -45.1,0 -45.1,0 -45.1,0 C 363.3,642 363.3,642 363.3,642 c 0,-123.2 0,-123.2 0,-123.2 -25.4,0 -25.4,0 -25.4,0 -68.3,15.5 -68.3,15.5 -68.3,15.5 0,17.6 0,17.6 0,17.6 37.3,3.5 37.3,3.5 37.3,3.5 0,152.8 0,152.8 0,152.8 47.2,0 47.2,0 47.2,0 C 426,589.9 426,589.9 426,589.9 c 0,118.3 0,118.3 0,118.3 52.8,0 52.8,0 52.8,0 m 231,-173.9 c -31.7,5.6 -48.6,29.5 -48.6,71.1 0,42.2 22.5,70.4 55.6,70.4 16.2,0 30.3,-5.6 59.9,-20.4 0,34.5 0,34.5 0,34.5 -36,16.9 -57.1,21.1 -85.3,21.1 -31.6,0 -54.2,-7.7 -71.8,-26.7 -18.3,-18.4 -28.2,-42.3 -28.2,-69.8 0,-59.8 45.1,-101.4 110.6,-101.4 43,0 73.3,20.5 73.3,49.3 0,19 -14.1,32.4 -34.6,32.4 -10.5,0 -19,-3.5 -30.9,-9.8 M 483,358.9 h 186.3 v 46.6 H 483 Z m 186.2,-93 v 93 h 116.3 v -93 z"></path>
</svg>
