<?xml version="1.0"?>

<!-- Generator: Adobe Illustrator 19.1.0, SVG Export Plug-In . SVG Version: 6.00 Build 0)  -->
<svg version="1.1" id="Layer_1" xmlns="http://www.w3.org/2000/svg" xmlns:xlink="http://www.w3.org/1999/xlink" x="0px" y="0px" width="665.856px" height="258.273px" viewBox="0 0 665.856 258.273" enable-background="new 0 0 665.856 258.273" xml:space="preserve">
<path fill-rule="evenodd" clip-rule="evenodd" d="M205.157,170.076c-0.505-9.342-5.076-21.425-11.015-27.261
	c-6.385-6.321-14.523-11.137-22.201-5.864c-4.282-4.857-8.565-9.719-12.872-14.595c4.451-0.926,8.895-1.855,13.347-2.782
	c5.01,7.694,11.439,12.352,19.342,10.696c12.346-2.586,11.755-21.169,6.068-33.679c-5.86-12.873-18.64-23.74-29.335-16.543
	c-4.799,3.242-5.786,11.217-5.295,18.495c-3.914,0.644-7.797,1.268-11.68,1.87c-0.072-5.989-0.119-11.969-0.172-17.977
	c14.562,0.91,15.985-20.262,8.194-33.992c-5.076-9.003-14.74-17.278-23.358-17.397c-7.578-0.102-14.429,4.302-14.695,16.177
	c-0.222,10.013,3.248,18.276,10.529,26.422c0.017,6.388,0.028,12.792,0.053,19.186c-4.402-4.965-8.806-9.961-13.208-14.951
	c4.54-23.008-13.569-40.38-27.815-44.077c-11.558-3.043-24.725,2.876-25.366,20.764c-0.457,12.704,7.875,25.893,15.808,31.834
	c7.201,5.414,20.082,9.678,25.482,4.427c4.876,5.484,9.716,10.979,14.567,16.415c-5.181,1.37-10.376,2.699-15.544,4.042
	c-5.783-8.255-15.222-15.111-27.585-15.641c-14.498-0.599-29.743,12.135-27.76,33.418c1.717,18.439,10.257,33.435,32.75,37.886
	c13.674,2.705,30.617-10.715,29.513-30.847c5.348-1.7,10.654-3.409,15.985-5.109c-0.463,7.486-0.932,14.956-1.398,22.423
	c-13.774,3.129-20.226,19-19.558,34.752c0.81,18.834,12.554,38.949,30.991,39.061c13.794,0.062,24.067-14.479,23.818-30.572
	c-0.225-14.674-4.105-29.002-14.474-36.234c0.402-7.172,0.802-14.356,1.193-21.512c4.546,5.109,9.103,10.243,13.638,15.378
	c-2.651,20.334,11.791,42.502,26.414,41.869C201.205,195.628,205.906,183.705,205.157,170.076z M188.152,189.335
	c-9.178-1.121-17.812-12.592-19.283-25.594c-0.415-3.687-0.212-7.099,0.499-10.072c-8.891-9.918-17.766-19.847-26.669-29.791
	c-0.709,12.687-1.425,25.367-2.157,38.055c10.581,2.9,18.262,17.504,18.297,29.554c0.041,13.482-7.37,25.812-20.201,25.43
	c-12.845-0.385-22.129-15.994-22.149-30.314c-0.034-13.437,6.699-23.725,17.878-25.049c0.763-13.511,1.536-27,2.298-40.507
	c-9.835,2.582-19.681,5.184-29.541,7.777c0.306,1.488,0.5,2.976,0.561,4.444c0.538,12.557-8.277,26.279-23.895,24.529
	c-15.616-1.743-25.385-16.641-24.88-30.942c0.502-14.315,12.126-24.581,25.282-22.384c8.904,1.49,16.281,8.42,20.28,16.637
	c9.651-2.545,19.291-5.075,28.932-7.617c-8.778-9.798-17.56-19.631-26.358-29.459c-3.986,2.092-9.083,2.317-14.391,0.733
	c-11.112-3.315-19.863-16.681-19.871-26.977c0-10.282,6.865-17.303,17.749-16.676c10.868,0.605,25.241,15.907,24.351,29.185
	c-0.237,3.576-1.171,6.494-2.601,8.815c8.397,9.381,16.772,18.759,25.157,28.103c0.641-11.363,1.29-22.743,1.93-34.111
	c-7.263-4.677-12.256-13.236-12.204-23.241c0.055-11.108,9.747-14.234,18.32-9.999c8.58,4.233,15.846,16.947,14.767,27.019
	c-0.913,8.642-7.536,11.156-14.842,9.018c-0.657,11.635-1.323,23.277-1.967,34.935c9.066-2.383,18.133-4.775,27.21-7.15
	c-2.538-10.466,1.139-18.81,8.477-18.832c7.601-0.025,16.246,8.82,19.312,19.729c3.062,10.937-0.605,19.846-8.196,19.894
	c-6.011,0.05-12.675-5.48-16.722-13.208c-8.747,2.334-17.481,4.633-26.271,6.961c8.489,9.452,16.939,18.903,25.388,28.356
	c2.5-3.173,6.024-4.844,10.14-4.333c9.156,1.126,17.728,12.595,19.211,25.587C203.482,180.81,197.278,190.445,188.152,189.335z"></path>
<path fill-rule="evenodd" clip-rule="evenodd" d="M288.05,122.1v1.032c-1.101,2.893-4.493,5.889-7.769,6.069
	c-1.692,0.091-3.365,1.187-3.365,2.682v21.002c0,0.483-0.549,1.029-1.031,1.029h-9.234c-0.474,0-1.015-0.535-1.015-1.029v-25.263
	c0-2.291,2.81-5.522,5.106-5.522H288.05L288.05,122.1z M311.119,122.1h-16.768c-2.862,0-6.365,3.642-6.365,6.499v19.261
	c0,2.876,3.986,6.055,6.857,6.055h16.767c2.754,0,6.36-3.287,6.36-6.055v-19.261C317.971,125.625,314.102,122.1,311.119,122.1
	L311.119,122.1z M301.714,125.937h2.518c1.525,0,2.763,1.245,2.763,2.765v18.612c0,1.52-1.237,2.768-2.763,2.768h-2.518
	c-1.518,0-2.752-1.24-2.752-2.768v-18.612C298.962,127.176,300.197,125.937,301.714,125.937L301.714,125.937z M436.959,128.266
	v13.852c0,0.475-0.541,1.021-1.023,1.021h-17.883v3.085h6.885c3.607,0,6.746,4.138,6.746,7.192v0.499h-18.482
	c-3.4,0-6.311-4.305-6.311-7.691v-17.958c0-3.156,3.166-6.166,6.311-6.166h17.381C433.51,122.1,436.959,125.351,436.959,128.266
	L436.959,128.266z M418.053,139.572h7.699V127.65c0-1.182-0.963-2.116-2.109-2.116h-3.459c-1.172,0-2.131,0.935-2.131,2.116V139.572
	L418.053,139.572z M492.383,129.378v22.723c0,0.857-0.971,1.814-1.838,1.814h-7.418c-0.871,0-1.822-0.957-1.822-1.814V127.24
	c0-0.863-0.969-1.828-1.816-1.828h-4.295c-0.832,0-1.799,0.965-1.799,1.828v24.861c0,0.857-0.951,1.814-1.814,1.814h-7.811
	c-0.859,0-1.816-0.957-1.816-1.814v-22.723c0-3.547,3.711-7.794,7.27-7.794h15.879C488.651,121.584,492.383,125.831,492.383,129.378
	L492.383,129.378z M513.959,120.053h-8.441l4.902-8.219h9.471L513.959,120.053L513.959,120.053z M537.725,110.811
	c0.67,0,1.438,0.769,1.438,1.467v8.79c0,0.599,0.859,1.032,1.453,1.032h9.068c2.973,0-3.074,7.173-6.059,7.173h-3.367
	c-0.582,0-1.096,0.447-1.096,1.046v14.379c0,1.19,2.012,2.1,2.99,2.044c3.69-0.244,8.727,4.052,8.727,6.291v0.882H533.59
	c-2.31,0-5.432-3.481-5.432-5.822v-35.814c0-0.699,0.758-1.467,1.465-1.467H537.725L537.725,110.811z M334.197,107.738h23.336v1.015
	c0,2.926-3.568,6.674-6.486,6.674h-10.199c-0.986,0-1.535,0.843-1.535,1.85v26.899c0,0.84,0.684,2.047,1.535,2.047h10.199
	c3.047,0,6.506,4.138,6.506,7.192v0.499h-23.356c-3.154,0-6.676-3.517-6.676-6.671v-32.838
	C327.521,111.261,331.024,107.738,334.197,107.738L334.197,107.738z M234.625,153.915c-0.474,0-1.021-0.535-1.021-1.029v-43.564
	c0-0.721,0.818-1.531,1.537-1.531h22.07c2.948,0,6.896,2.619,6.896,5.578v17.108c0,3.048-3.855,6.011-6.896,6.011h-12.243v16.398
	c0,0.374-0.375,1.029-1.029,1.029H234.625L234.625,153.915z M246.949,111.271c-1.135,0-2.039,1.007-2.039,2.219v16.393
	c0,1.206,0.904,2.203,2.039,2.203h4.136c1.126,0,2.038-0.996,2.038-2.203v-16.393c0-1.212-0.912-2.219-2.038-2.219H246.949
	L246.949,111.271z M361.906,122.1h7.143c1.309,0,2.389,1.074,2.389,2.377v27.135c0,1.309-1.08,2.383-2.389,2.383h-7.143
	c-1.316,0-2.379-1.074-2.379-2.383v-27.135C359.528,123.174,360.59,122.1,361.906,122.1L361.906,122.1z M365.471,104.273
	c2.984,0,5.418,3.19,5.418,7.143c0,3.93-2.434,7.137-5.418,7.137c-2.971,0-5.402-3.207-5.402-7.137
	C360.069,107.463,362.5,104.273,365.471,104.273L365.471,104.273z M397.158,122.1c3.018,0,6.963,3.525,6.963,6.499v19.261
	c0,2.768-3.65,6.055-6.44,6.055H380.66c-2.922,0-6.963-3.162-6.963-6.055v-34.813c0-1.309,1.068-2.377,2.377-2.377h6.41
	c1.312,0,2.392,1.068,2.392,2.377v9.053H397.158L397.158,122.1z M384.877,128.228v19.097c0,1.517,1.215,2.757,2.74,2.757h2.563
	c1.537,0,2.807-1.24,2.807-2.757v-18.623c0-1.525-1.27-2.765-2.807-2.765h-2.563C386.25,125.937,385.104,126.927,384.877,128.228
	L384.877,128.228z M462.022,122.1h-17.285c-2.328,0-5.135,3.231-5.135,5.522v25.263c0,0.494,0.549,1.029,1.035,1.029h9.238
	c0.467,0,1.033-0.546,1.033-1.029v-21.002c0-1.495,1.647-2.591,3.338-2.682c3.293-0.181,6.67-3.176,7.775-6.069V122.1L462.022,122.1
	z M573.807,122.1h23.357v1.032c0,2.904-3.572,6.663-6.482,6.663h-10.207c-0.994,0-1.537,0.852-1.537,1.842v12.54
	c0,0.84,0.682,2.047,1.537,2.047h10.207c3.045,0,6.496,4.138,6.496,7.192v0.499h-23.371c-3.152,0-6.668-3.517-6.668-6.671v-18.468
	C567.139,125.628,570.655,122.1,573.807,122.1L573.807,122.1z M555.381,122.1h7.133c1.31,0,2.396,1.087,2.396,2.377v27.052
	c0,1.32-1.086,2.386-2.396,2.386h-7.133c-1.326,0-2.377-1.065-2.377-2.386v-27.052C553.004,123.174,554.055,122.1,555.381,122.1
	L555.381,122.1z M558.949,104.273c2.98,0,5.396,3.19,5.396,7.143c0,3.93-2.416,7.137-5.396,7.137c-2.984,0-5.408-3.207-5.408-7.137
	C553.541,107.463,555.965,104.273,558.949,104.273L558.949,104.273z M525.67,128.266v13.852c0,0.475-0.541,1.021-1.014,1.021
	h-17.867v3.085h6.871c3.615,0,6.74,4.138,6.74,7.192v0.499h-18.478c-3.393,0-6.303-4.305-6.303-7.691v-17.958
	c0-3.156,3.166-6.166,6.303-6.166h17.4C522.229,122.1,525.67,125.351,525.67,128.266L525.67,128.266z M506.789,139.572h7.691V127.65
	c0-1.182-0.967-2.116-2.121-2.116h-3.467c-1.15,0-2.103,0.935-2.103,2.116V139.572L506.789,139.572z M597.799,147.754v-9.489
	c0-2.735,3.742-5.753,6.49-5.753h12.396v-3.082h-6.859c-3.611,0-6.75-3.781-6.75-6.82V122.1h18.469c3.4,0,6.311,4.297,6.311,7.694
	v17.96c0,3.146-3.156,6.161-6.311,6.161h-17.373C601.264,153.915,597.799,150.664,597.799,147.754L597.799,147.754z
	 M616.686,136.452h-7.691v11.933c0,1.17,0.951,2.108,2.129,2.108h3.449c1.164,0,2.113-0.938,2.113-2.108V136.452z"></path>
</svg>
