<?xml version="1.0"?>
<!--?xml version="1.0" encoding="UTF-8" standalone="no"?-->
<svg xmlns:dc="http://purl.org/dc/elements/1.1/" xmlns:cc="http://creativecommons.org/ns#" xmlns:rdf="http://www.w3.org/1999/02/22-rdf-syntax-ns#" xmlns:svg="http://www.w3.org/2000/svg" xmlns="http://www.w3.org/2000/svg" xml:space="preserve" viewBox="0 0 737.88 245.25" height="245.25" width="737.88" y="0px" x="0px" id="Layer_1" version="1.1"><defs id="defs296"></defs><path d="m 705.93,151.97 c 6.13,0 9.95,4.48 9.95,10 0,5.53 -3.81,10 -9.95,10 -6.13,0 -10,-4.48 -10,-10 0,-5.52 3.87,-10 10,-10 z m 0,17.79 c 5.03,0 7.62,-3.54 7.62,-7.79 0,-4.25 -2.6,-7.79 -7.62,-7.79 -5.08,0 -7.68,3.54 -7.68,7.79 0,4.26 2.6,7.79 7.68,7.79 z m 0.34,-6.46 h -1.88 v 3.04 h -1.55 v -9.17 h 3.59 c 2.04,0 2.87,0.88 2.87,2.43 v 1.27 c 0,0.88 -0.28,1.6 -1.33,2.15 l 2.43,3.32 h -1.88 z m 0.11,-4.7 h -1.99 v 3.26 h 1.99 c 0.99,0 1.33,-0.39 1.33,-1.05 v -1.1 c 0,-0.89 -0.39,-1.11 -1.33,-1.11 z m 8.38,-22.02 c -4.84,2.05 -14.14,3.53 -19.9,3.53 -16.55,0 -24.92,-7.81 -24.92,-23.99 V 65.71 H 656.36 V 47.67 h 13.58 V 25.16 L 692.63,22 v 25.67 h 23.25 l -1.49,18.04 h -21.76 v 47.43 c 0,4.84 2.23,8 8.18,8 3.35,0 7.44,-0.74 11.35,-1.86 z m -97.65,-15.07 c 8.74,0 17.86,-1.3 27.71,-4.28 l 3.53,17.11 c -10.23,3.91 -22.51,5.77 -33.29,5.77 -28.46,0 -38.32,-13.21 -38.32,-34.97 V 81.15 c 0,-19.16 8.56,-35.34 37.57,-35.34 29.02,0 35.53,16.93 35.53,36.46 v 19.34 h -50.41 v 4.65 c 0,10.97 3.92,15.25 17.68,15.25 z M 599.44,83.38 h 28.83 v -4.46 c 0,-8.56 -2.6,-14.51 -13.76,-14.51 -11.16,0 -15.07,5.95 -15.07,14.51 z m -33.47,24.74 c 0,20.09 -8.93,31.99 -29.95,31.99 -8,0 -17.11,-1.12 -24.18,-2.6 v 37.39 l -22.69,3.16 V 47.67 h 18.04 l 2.23,7.63 c 8,-5.77 17.3,-9.49 28.64,-9.49 18.23,0 27.9,10.79 27.9,31.43 v 30.88 z m -54.13,10.23 c 5.95,1.3 13.58,2.42 20.09,2.42 8.18,0 11.35,-3.91 11.35,-12.09 V 76.69 c 0,-7.44 -2.79,-11.53 -11.16,-11.53 -7.44,0 -15.44,3.72 -20.28,8.18 z m -33.85,-10.23 c 0,20.09 -8.93,31.99 -29.95,31.99 -8,0 -17.11,-1.12 -24.18,-2.6 v 37.39 l -22.69,3.16 V 47.67 h 18.04 l 2.23,7.63 c 8,-5.77 17.3,-9.49 28.64,-9.49 18.23,0 27.9,10.79 27.9,31.43 v 30.88 z m -54.13,10.23 c 5.95,1.3 13.58,2.42 20.09,2.42 8.18,0 11.35,-3.91 11.35,-12.09 V 76.69 c 0,-7.44 -2.79,-11.53 -11.16,-11.53 -7.44,0 -15.44,3.72 -20.27,8.18 v 45.01 z m 251.86,102.07 c -4.99,0 -11.81,-1.15 -16.13,-2.69 l 1.63,-8.93 c 3.94,1.15 9.12,2.02 13.92,2.02 5.18,0 5.95,-1.15 5.95,-4.7 0,-2.88 -0.58,-4.32 -8.16,-6.14 -11.42,-2.78 -12.77,-5.66 -12.77,-14.69 0,-9.41 4.13,-13.54 17.47,-13.54 4.32,0 9.98,0.58 14.01,1.63 l -1.15,9.31 c -3.55,-0.67 -9.21,-1.34 -12.86,-1.34 -5.09,0 -5.95,1.15 -5.95,4.03 0,3.74 0.29,4.03 6.62,5.66 13.05,3.46 14.3,5.18 14.3,14.78 0,9.03 -2.77,14.6 -16.88,14.6 z M 655.94,201.5 c 0,11.33 -3.45,18.91 -21.5,18.91 -4.7,0 -12.29,-0.48 -18.14,-1.63 V 153.6 l 11.71,-1.63 v 22.56 c 3.46,-1.44 8.74,-2.78 13.82,-2.78 10.08,0 14.11,6.14 14.11,16.03 z m -27.93,8.55 c 2.11,0.29 4.51,0.38 7.01,0.38 7.68,0 9.21,-3.07 9.21,-8.54 v -14.4 c 0,-3.74 -1.63,-5.76 -5.95,-5.76 -3.26,0 -7.39,1.34 -10.27,2.69 z m -18.43,9.41 h -9.6 l -0.86,-3.17 c -4.22,2.78 -9.22,4.13 -13.92,4.13 -8.54,0 -12.19,-5.86 -12.19,-13.92 0,-9.5 4.13,-13.15 13.63,-13.15 h 11.23 v -4.9 c 0,-5.18 -1.44,-7.01 -8.93,-7.01 -4.22,0 -8.83,0.58 -12.96,1.44 l -1.44,-8.93 c 4.42,-1.34 10.85,-2.21 16.03,-2.21 14.69,0 19.01,5.18 19.01,16.9 z m -11.71,-17.67 h -8.64 c -3.84,0 -4.9,1.06 -4.9,4.61 0,3.26 1.06,4.7 4.7,4.7 3.46,0 6.62,-1.15 8.83,-2.4 v -6.91 z m -42.34,17.67 v -65.85 l 11.71,-1.63 v 67.48 z M 334.76,51.01 v 63.24 c 0,4.84 2.05,7.25 7.25,7.25 5.58,0 15.44,-3.35 23.62,-7.63 V 51 h 22.69 v 90.58 h -17.29 l -2.23,-7.63 c -11.35,5.58 -25.67,9.49 -36.27,9.49 -15.07,0 -20.46,-10.6 -20.46,-26.79 V 50.99 h 22.69 z m -32.92,60.45 c 0,20.09 -8.93,31.99 -29.95,31.99 -8,0 -17.11,-1.12 -24.18,-2.6 v 37.39 l -22.69,3.16 V 51.01 h 18.04 l 2.23,7.63 c 8,-5.77 17.3,-9.49 28.64,-9.49 18.23,0 27.9,10.79 27.9,31.43 v 30.88 z m -54.13,10.23 c 5.95,1.3 13.58,2.42 20.09,2.42 8.18,0 11.35,-3.91 11.35,-12.09 V 80.03 c 0,-7.44 -2.79,-11.53 -11.16,-11.53 -7.44,0 -15.44,3.72 -20.27,8.18 v 45.01 z m -107.59,60.07 c -3.03,3.38 -8.22,3.68 -11.61,0.66 -3.39,-3.03 -3.68,-8.23 -0.66,-11.62 3.03,-3.39 8.23,-3.68 11.62,-0.65 3.39,3.03 3.67,8.23 0.65,11.61 z m -38.99,-1.59 c -3.03,3.39 -8.23,3.68 -11.61,0.65 -3.39,-3.03 -3.68,-8.23 -0.65,-11.62 3.02,-3.39 8.23,-3.68 11.62,-0.65 3.38,3.03 3.67,8.24 0.64,11.62 z m 21.6,-33.53 c -3.03,3.39 -8.23,3.68 -11.62,0.65 -3.39,-3.03 -3.68,-8.24 -0.65,-11.62 3.03,-3.38 8.23,-3.67 11.62,-0.65 3.39,3.03 3.67,8.23 0.65,11.62 z m 12.7,12.74 c 0,0 8.5,3.59 9.82,8.82 0,0 9.12,-35.05 -25.65,-45.53 0,0 -13.46,-2.45 -19.72,1.74 l 0.96,3.5 c 0,0 23.35,-8.1 33.77,15.48 0,0 2.04,6.32 0.82,15.99 z m -33.83,-9.96 c 0,0 -0.84,-9.19 3.15,-12.81 0,0 -35.21,8.45 -28.09,44.07 0,0 4.18,13.02 10.82,16.58 l 2.64,-2.49 c 0,0 -18.14,-16.79 -2.25,-37.09 0,0 4.62,-4.78 13.73,-8.26 z m 7.69,34.16 c 0,0 -7.41,5.49 -12.58,3.98 0,0 25.56,25.65 52.25,1.01 0,0 8.94,-10.35 8.52,-17.87 l -3.5,-0.95 c 0,0 -4.88,24.23 -30.48,21.23 0,0 -6.5,-1.44 -14.21,-7.4 z M 108.41,56.87 V 36.51 H 98.03 v 8.56 z M 90.58,94.22 m -0.56,-2.77 m 121.13,117.68 c -0.1,-0.29 -0.17,-0.56 -0.26,-0.84 l -0.1,-0.2 -0.47,-1.4 h -1.47 l -13.9,0.1 H 48.18 c -2.54,4.26 -6.89,11.6 -9.77,16.46 H 199.5 v 0 c 1.88,0 3.68,-0.37 5.35,-1.11 l 0.7,-0.3 0.33,-0.68 5.13,-10.6 0.32,-0.66 z M 83.7,28.85 98,45.11 h 29.95 v 51.01 0.9 l 0.25,0.23 59.94,103.82 h 19 L 145.43,94.19 V 43.16 l 8.3,-14.31 z m 6.18,61.79 -66.4,114.88 c -0.52,0.9 -0.94,1.85 -1.25,2.83 l -0.23,0.75 0.33,0.72 5.24,11.37 0.34,0.74 0.76,0.31 c 0.76,0.3 1.5,0.49 2.12,0.62 l 1.47,0.33 0.76,-1.29 4.24,-7.22 2.74,-4.84 66.96,-115.98 1.78,-3.21 H 89.88 Z" id="path289"></path><metadata id="metadata326"><rdf:rdf><cc:work rdf:about=""><dc:title></dc:title></cc:work></rdf:rdf></metadata></svg>