<?xml version="1.0"?>
<!--?xml version="1.0" encoding="UTF-8" standalone="no"?-->
<svg xmlns:dc="http://purl.org/dc/elements/1.1/" xmlns:cc="http://creativecommons.org/ns#" xmlns:rdf="http://www.w3.org/1999/02/22-rdf-syntax-ns#" xmlns:svg="http://www.w3.org/2000/svg" xmlns="http://www.w3.org/2000/svg" viewBox="0 0 298.71 100.67" id="svg2226" height="100.67" width="298.71" version="1.0">
  <defs id="defs2229"></defs>
  <path d="m 92.553,73.95 c -2.286,-0.6 -3.234,-1.05 -4.354,-2.07 -0.638,-0.57 -1.279,-0.74 -3.576,-0.9 -4.295,-0.3 -6.72,-1.09 -8.838,-2.88 -2.424,-2.05 -2.951,-5.84 -1.277,-9.18 2.087,-4.15 5.969,-7.78 11.05,-10.31 4.007,-2 7.307,-2.81 12.436,-3.04 6.516,-0.3 10.116,0.53 12.336,2.82 2.54,2.64 2.13,6.7 -1.15,11.32 -2.41,3.4 -5.22,5.68 -9.898,8.04 l -2.443,1.23 0.663,0.67 c 0.544,0.55 1.147,0.7 3.378,0.82 l 2.71,0.16 -1.87,1.45 c -3.156,2.44 -5.33,2.88 -9.167,1.87 z m -1.246,-9.57 c 2.343,-1.22 5.752,-5.2 7.795,-9.11 1.238,-2.36 1.208,-3.15 -0.165,-3.73 -3.296,-1.38 -7.176,0.6 -11.278,5.76 -3.294,4.14 -3.731,6.67 -1.325,7.66 0.819,0.33 3.905,0 4.973,-0.58 z m 159.253,5.89 c -2.14,-0.28 -4.54,-0.82 -6.1,-1.39 -2.51,-0.91 -3.9,-1.66 -3.58,-1.92 0.1,-0.1 1.44,-1.21 3.03,-2.52 l 2.87,-2.39 1.33,0.58 c 2.12,0.91 8.78,1.92 10.81,1.64 3.94,-0.55 3.24,-1.42 -2.78,-3.47 -5.23,-1.78 -7.15,-3.13 -7.81,-5.5 -0.71,-2.57 0.42,-4.98 3.22,-6.89 2.34,-1.59 5.59,-2.5 10.47,-2.94 3.87,-0.35 4.49,-0.33 7.93,0.27 2.06,0.36 4.47,0.87 5.37,1.14 1.9,0.56 1.87,0.85 -0.21,2.74 -1.86,1.69 -3.14,1.95 -8.92,1.85 -4.28,-0.1 -5.06,0 -5.42,0.4 -0.63,0.77 0,1.18 3.74,2.33 8.03,2.51 10.28,4.6 9.13,8.5 -0.85,2.87 -3.55,5.19 -7.58,6.51 -4.72,1.54 -9.26,1.85 -15.5,1.06 z M 108.21,66.18 c 2.24,-2.2 6.3,-6.27 9,-9.06 6.6,-6.79 9.45,-8.86 14.22,-10.34 3.62,-1.12 6.46,-1.4 10.32,-1.01 1.92,0.19 3.54,0.4 3.59,0.46 0.1,0.1 -0.95,4.66 -2.24,10.22 -1.3,5.56 -2.54,10.89 -2.76,11.84 l -0.4,1.71 -5.63,0.1 -5.64,0.1 0.44,-1.65 c 0.24,-0.91 0.44,-1.83 0.44,-2.04 0,-0.3 -1.27,-0.39 -5.37,-0.39 h -5.37 l -2,2.03 -2.01,2.03 h -5.34 -5.34 l 4.09,-3.98 z m 23.93,-9.82 c 0.47,-1.91 0.78,-3.55 0.7,-3.64 -0.45,-0.44 -7.95,6.04 -7.95,6.87 0,0.14 1.44,0.25 3.2,0.25 h 3.2 z m 15.12,4.81 c 5.54,-9.54 7.16,-11.71 10.01,-13.43 1.92,-1.15 4.74,-1.96 6.82,-1.96 h 1.43 l 2.62,5.93 c 1.44,3.27 2.7,5.94 2.79,5.94 0.1,0 1.15,-1.71 2.33,-3.82 1.19,-2.1 2.54,-4.25 2.99,-4.78 1.15,-1.33 3.48,-2.53 5.68,-2.93 2.23,-0.41 6.18,-0.45 6.03,-0.1 -0.1,0.16 -3.18,5.64 -6.94,12.19 l -6.84,11.9 h -4.83 -4.83 l -2.59,-5.78 c -1.43,-3.18 -2.63,-5.79 -2.69,-5.79 -0.1,0 -1.59,2.61 -3.41,5.79 l -3.32,5.78 h -5.24 -5.23 l 5.22,-8.99 z M 186.77,70 c 0,-0.1 2.11,-3.83 4.68,-8.31 2.57,-4.47 4.76,-8.33 4.85,-8.58 0.15,-0.39 -0.58,-0.46 -4.83,-0.46 -3.29,0 -5.01,-0.11 -5.01,-0.32 0,-0.18 0.47,-1.07 1.05,-1.98 1.3,-2.05 3.65,-3.62 6.23,-4.16 2.14,-0.45 27.86,-0.6 27.86,-0.16 0,0.43 -1.75,2.99 -2.53,3.71 -1.56,1.45 -4.18,2.34 -7.64,2.62 -1.8,0.14 -3.34,0.33 -3.42,0.4 -0.1,0.1 -2.34,3.99 -5.04,8.69 l -4.91,8.55 -5.64,0.1 c -3.11,0.1 -5.65,0 -5.65,-0.1 z m 26.39,-9.45 c 5.36,-5.29 10.6,-10.21 11.65,-10.94 2.5,-1.73 6,-3.08 9.56,-3.7 2.39,-0.41 3.46,-0.44 6.61,-0.15 2.06,0.19 3.77,0.38 3.8,0.41 0,0 -1.21,5.46 -2.76,12.03 l -2.82,11.96 h -5.56 c -5.15,0 -5.54,0 -5.39,-0.55 0.1,-0.3 0.25,-0.97 0.36,-1.48 0.11,-0.52 0.26,-1.19 0.34,-1.49 0.14,-0.5 -0.26,-0.54 -5.4,-0.54 H 218 l -2,2.03 -2,2.03 h -5.29 -5.28 z m 17.73,-1.88 c 1,-3.83 1.55,-6.16 1.47,-6.24 -0.26,-0.27 -3.19,2.12 -5.63,4.58 l -2.79,2.83 h 3.33 3.32 z M 22.002,59.85 V 41.06 l 0.475,0.99 c 0.688,1.43 1.295,2.25 2.675,3.6 1.456,1.42 1.832,1.71 4.16,3.2 0.979,0.63 2.213,1.42 2.742,1.76 4.047,2.64 5.917,4.95 6.897,8.54 0.249,0.91 0.296,1.28 0.34,2.65 0.05,1.51 -0.03,2.42 -0.323,3.77 -0.05,0.24 -0.03,0.27 0.219,0.27 0.496,0 2.851,0.38 3.884,0.63 3.826,0.91 6.96,2.31 10.584,4.74 1.804,1.21 3.547,2.65 5.635,4.66 0.948,0.91 1.093,1.01 1.147,0.84 0.205,-0.64 -0.871,-2.45 -2.344,-3.94 -2.574,-2.59 -6.144,-5.02 -10.307,-7 -2.849,-1.36 -3.677,-1.87 -4.564,-2.83 -0.698,-0.75 -1.015,-1.4 -1.016,-2.08 0,-0.73 0.228,-1.22 0.755,-1.6 0.918,-0.67 2.104,-0.64 2.8,0.1 l 0.326,0.33 -0.374,0.16 c -0.306,0.13 -0.557,0.15 -1.372,0.1 l -0.997,-0.1 0.03,0.23 c 0.08,0.58 1.899,0.86 3.063,0.47 1.221,-0.42 2.578,-1.33 4.405,-2.96 0.426,-0.38 0.87,-0.74 0.987,-0.8 0.117,-0.1 0.893,-0.19 1.723,-0.29 1.087,-0.12 1.622,-0.22 1.909,-0.37 0.403,-0.21 0.653,-0.52 0.551,-0.68 -0.09,-0.14 -1.581,-1.11 -2.163,-1.4 -1.026,-0.52 -2.61,-1.1 -4.151,-1.53 -0.859,-0.24 -1.579,-0.42 -1.6,-0.4 -0.08,0.1 0.167,0.76 0.39,1.05 0.279,0.37 1.148,0.83 1.695,0.9 0.215,0 0.391,0.1 0.391,0.1 0,0.1 -0.404,0.64 -0.665,0.92 -0.307,0.34 -1.214,0.81 -1.711,0.89 l -0.37,0.1 -0.616,-0.8 C 44.94,52.32 42.852,50.43 39.798,48.55 37.901,47.39 36.41,46.71 32.533,45.24 27.92,43.49 27.676,43.4 26.616,42.85 24.558,41.79 23.385,40.73 22.636,39.23 21.984,37.93 21.98,37.86 22.015,29.39 l 0.03,-7.39 4.282,3.95 c 2.355,2.17 4.351,3.98 4.436,4.02 0.09,0 2.229,1.97 4.763,4.3 2.535,2.34 7.856,7.22 11.825,10.87 3.969,3.64 7.519,6.94 7.89,7.32 0.37,0.39 6.865,6.38 14.432,13.33 7.568,6.94 13.823,12.68 13.901,12.75 0.118,0.11 -4.677,0.13 -30.718,0.13 H 22 V 59.89 Z" id="path4204"></path>
  <metadata id="metadata53">
    <rdf:rdf>
      <cc:work rdf:about="">
        <dc:title></dc:title>
      </cc:work>
    </rdf:rdf>
  </metadata>
</svg>
