<?xml version="1.0"?>

<svg xmlns="http://www.w3.org/2000/svg" height="148.54" width="624.98" version="1.1" viewBox="0 0 624.98 148.54">

  <path d="m 47.88,66.906 c 0,-19.05 10.12,-33.034 26.04,-33.034 7.14,0 13.98,2.975 18.45,7.734 5.95,6.4 8.93,17.56 8.48,28.57 -0.74,22.02 -14.14,30.954 -26.64,30.954 -12.34,0 -26.33,-9.234 -26.33,-34.224 m 88.51,42.144 -15.83,-13.414 c 4.13,-7.99 6.62,-17.35 6.62,-27.25 0,-7.14 -2.08,-42.1 -34.22,-53.257 C 86.57,12.895 80.02,12 73.77,12 40,12 22,38.926 22,67.356 c 0,30.34 18.89,55.944 52.21,55.944 10.41,0 21.75,-2.39 31.71,-10.03 l 15.65,13.27 14.82,-17.49 M 228.6,15.275 h 22.47 v 54.011 l 25.14,-26.63 h 27.52 l -26.77,27.67 30.2,49.994 h -26.48 l -19.94,-33.484 -9.82,9.23 V 120.32 H 228.6 Z m -41.32,27.231 h 22.61 v 77.814 h -22.61 z m 0,-27.381 h 22.61 V 32.833 H 187.28 Z M 168.58,120.32 H 145.66 V 15.275 h 22.92 z m 386.98,-70.184 16.65,52.074 18.33,-52.074 h 12.44 l -25.7,70.084 H 566.85 L 550,67.986 532.92,120.22 H 522.06 L 497.65,50.136 h 12.78 l 17.56,52.074 17.28,-52.074 z m -75.59,28.41 c -1.07,-18.44 -14.29,-21.57 -20.09,-21.57 -10.11,0 -18.6,7.44 -19.96,21.57 z m 12.94,20.09 c -1.63,4.764 -7.91,23.664 -31.7,23.664 -20.82,0 -34.38,-14.13 -34.38,-37.794 0,-26.49 19.06,-36.6 33.94,-36.6 12.93,0 26.62,7.14 30.8,24.84 1.34,5.95 1.34,11.31 1.34,14.29 h -53.28 c -0.33,11.75 5.96,26.344 22.63,26.344 10.55,0 16.51,-7 18.6,-16.384 l 12.05,1.64 M 413.64,120.21 H 402.17 V 50.126 h 11.47 z m 0,-91.354 H 402.17 V 15.167 h 11.47 z M 379.5,15.17 h 14.88 L 357.33,120.22 H 343.34 L 307.93,15.17 h 14.88 l 27.82,87.79 z"></path>
</svg>
