<?xml version="1.0"?>

<svg xmlns="http://www.w3.org/2000/svg" viewBox="2 0 280 240" width="280" height="240"> 
   <path d="m 68.42,89.91 c 0.93,1.11 2.42,1.11 4.02,1.37 8.64,0.81 25.07,1.07 36.96,1.07 3.7,0 7.5,0 11.3,0 l 0,0 c 8.4,0 17.2,0 25.6,0.3 2.2,0 4.3,0 6.2,0.54 2.2,0.54 3.7,1.34 5.9,2.47 1,0.54 2.2,1.07 3,1.73 1.1,0.53 2.1,1.34 3.2,1.87 1.5,0.84 3.2,1.94 5.4,2.44 1.7,0.5 3.2,0.5 4.8,0.5 0.4,0 0.6,0 1.1,0 5.7,0 13.5,-0.3 18.5,-0.7 0.5,0 1,0 1.3,-0.3 0.3,-0.3 0.3,-0.5 0.4,-1 0,-0.82 0.3,-1.59 0.4,-2.37 0,-0.65 0.3,-1.28 0.3,-1.9 0.3,-1.19 0.6,-2.41 1.7,-3.34 1.1,-0.83 2.5,-0.95 3.4,-1.04 1.1,0 2.2,-0.3 3.2,-0.3 1.4,0 2.7,-0.29 3.9,-0.32 1.7,-0.3 3.1,-0.39 4,-1.31 1.1,-0.93 1.2,-2.27 1.3,-3.87 0.5,-7.39 0.7,-23.22 0.3,-31.14 0,-1.94 -0.3,-3.72 -1.6,-4.97 -1.2,-1.17 -2.9,-1.4 -4.9,-1.58 -12.8,-1.01 -47.7,-1.19 -67.3,-1.19 l 0,0 c -19.6,0 -54.48,0.29 -67.25,1.19 -1.97,0.38 -3.61,0.38 -4.95,1.72 -1.25,1.25 -1.49,3.07 -1.57,4.89 -0.48,7.92 -0.3,23.66 0.29,31.11 0,1.75 0.3,3.09 1.05,4.13 z m 7,-30.12 c 0,-1.55 0.3,-3.34 1.52,-4.65 1.34,-1.43 3.15,-1.52 4.49,-1.57 10.81,-0.54 38.27,-0.66 59.37,-0.66 l 0,0 c 21.1,0 48.5,0 59.3,0.66 1.3,0 3.3,0.29 4.6,1.57 1.2,1.34 1.3,2.95 1.6,4.59 0,2.68 0,7.8 0,10.54 0,1.25 0,3.21 -1.5,4.61 -1.3,1.4 -3.2,1.52 -4.5,1.64 -10.6,0.53 -38.1,0.62 -59.4,0.62 -21.3,0 -48.84,0 -59.38,-0.62 -1.34,0 -3.15,-0.3 -4.52,-1.61 -1.31,-1.4 -1.4,-3.33 -1.43,-4.61 -0.3,-2.71 -0.3,-7.83 -0.3,-10.66 z M 40.7,111.1 c 3.82,4.1 9.15,4.6 13.46,5 11.56,1 25.61,1.9 43.11,2.4 13.23,0.3 27.43,0.5 43.33,0.5 16,0 30.1,-0.3 43.3,-0.5 17.6,-0.5 31.7,-1.2 43.3,-2.4 4.6,-0.4 9.8,-0.9 13.6,-4.9 3.6,-3.8 4.4,-9.3 4.8,-14.05 1,-11.37 1.3,-34.21 0.6,-46.06 -0.3,-4.55 -0.9,-9.31 -4.2,-12.66 -3.2,-3.3 -7.6,-3.84 -12.3,-4.14 C 212.1,33.17 166.3,33 140.6,33 115,33 69.26,33.17 51.63,34.29 c -4.52,0.15 -8.92,0.69 -12.15,4.06 -3.31,3.37 -3.78,8.22 -4.05,12.8 -0.75,11.85 -0.48,34.75 0.54,46.06 0.31,4.59 1.08,9.99 4.85,13.89 z M 54.11,54.43 c 0.29,-2.74 0.5,-5.9 2.88,-8.25 2.21,-2.2 5.15,-2.66 8.01,-2.93 13.4,-1.26 48.6,-1.53 75.8,-1.52 27.2,0 62.5,0.26 75.7,1.61 2.8,0.26 5.7,0.81 8.1,2.93 2.4,2.41 2.7,5.39 3,8.25 0.4,8.1 0.3,26.26 -0.4,34.23 -0.3,2.09 -0.5,4.29 -2.3,5.99 -1.6,1.66 -3.7,2.08 -5.8,2.32 -2.5,0.33 -5.1,0.51 -7.6,0.8 -1.2,0 -2.5,0.3 -3.8,0.3 -0.6,0 -0.9,0 -1.1,0.36 -0.3,0.3 -0.4,0.71 -0.5,1.34 0,0.64 -0.3,1.44 -0.4,2.04 l 0,0 c -0.3,1 -0.4,2.1 -0.6,3.1 -0.3,1 -0.5,2.2 -1.7,3 -1,0.8 -2.2,0.8 -3,0.9 -9.4,0.8 -22,1.1 -30,1.1 l -1.4,0 c -2.1,0 -4,0 -6.3,-0.7 -2.3,-0.7 -4.2,-1.8 -5.8,-2.7 -1.3,-0.8 -2.5,-1.5 -3.7,-2.2 l 0,0 c -1,-0.6 -2.1,-1.3 -3.2,-2 -1.9,-1.1 -3.4,-1.8 -5.2,-2.3 -1.8,-0.48 -3.7,-0.57 -5.6,-0.57 -8,-0.3 -16,-0.3 -23.9,-0.33 l 0,0 c -4.7,0 -9.5,0 -14.2,-0.3 -12.19,0 -29.22,-0.32 -38.36,-1.45 -2.09,-0.3 -4.29,-0.66 -5.96,-2.42 -1.69,-1.78 -2.02,-4.04 -2.23,-6.19 -0.68,-8.06 -0.8,-26.4 -0.53,-34.44 z M 183.4,203.8 c -1.1,0 -1.5,-0.6 -1.5,-1.2 l 0,-2.8 c 0,-1.6 -1.3,-2.8 -3.5,-2.8 l -18,0 -0.3,0.4 0,1.4 0.3,0.4 15.1,0 c 1.1,0 1.6,0.5 1.6,1.4 l 0,3.2 c 0,1.1 0.8,2.2 2.7,2.1 l 4.9,0 0.3,-0.4 0,-1.4 -0.3,-0.3 -1.3,0 z m -33.2,-6.1 c 0.3,0.2 0.6,0.2 0.9,0.2 l 3.8,0 c 0.3,0 0.3,0 0,-0.2 0,0 -1.7,-1.2 -2.7,-2 -1,-0.9 -1.4,-1.4 -1.7,-1.6 l -0.9,-0.4 -3.8,0 c -0.3,0 -0.4,0.3 -0.3,0.3 0,0 1.1,1.1 2.4,2.2 1.3,1.2 2.1,1.7 2.1,1.6 z m 1.5,-8 c -0.3,-0.4 -0.5,-0.4 -0.8,-0.4 l -3.8,0 c -0.3,0 -0.4,0.3 -0.3,0.3 0,0 1,1.1 2.4,2.3 1.3,1.1 2.7,1.9 2.7,1.9 l 0.8,0.3 3.8,0 c 0.4,0 0.4,-0.3 0,-0.3 0,0 -1.8,-1.3 -3,-2.2 -0.9,-1.1 -1.4,-1.6 -1.7,-1.9 z m 11.7,5.9 15.4,0 0.5,-0.3 0,-1.3 -0.5,-0.3 -15.4,0 -0.3,0.3 0,1.3 z m 18.9,-3.5 0,-1.4 -0.3,-0.4 -18.9,0 c 0.3,-0.5 0.3,-1 0.3,-1.3 l -0.3,-0.3 -3,0 -0.4,0.3 c 0,2 -0.9,4.3 -2.5,5.7 l -0.3,0.4 0,1.3 0.4,0.4 c 3.1,-0.8 4.8,-4.1 4.9,-4.4 l 7.1,0 2.5,0 10.2,0 0.3,-0.3 z m -28.6,6.7 c -0.4,0 -0.7,0 -1,0.4 -0.3,0.3 -0.9,1.2 -2.5,2.6 -2,1.9 -4.1,3.4 -4.1,3.4 -0.3,0.3 -0.3,0.3 0,0.3 l 4.2,0 c 0.4,0 0.7,0 1,-0.3 0,0 1.4,-0.9 3.2,-2.8 1.7,-1.7 2.8,-3.1 2.8,-3.1 0.3,-0.3 0,-0.5 -0.3,-0.5 l -3.4,0 z m 59.1,1.9 0,-2.2 13.6,0 0.4,-0.3 0,-1.4 -0.4,-0.4 -13.6,0 0,-2.1 -0.3,-0.4 -4.3,0 -0.3,0.4 0,2.1 -9.6,0 c 2.1,-0.8 4.3,-2.3 5.8,-3.7 l 23.2,0 0.4,-0.3 0,-1.5 -0.4,-0.4 -21.1,0 c 0.6,-0.7 1,-1.2 1.1,-1.4 l -0.3,-0.4 -4.6,0 -0.5,0.3 c 0,0.3 -0.6,0.8 -1.2,1.5 l -8.9,0 -0.3,0.3 0,1.5 0.3,0.4 6.7,0 c -1.6,1.4 -3.6,2.8 -5.9,3.7 l -0.3,0.4 0,1.4 0.4,0.3 15.1,0 0,2.2 -17.9,0 -0.3,0.3 0,1.5 0.3,0.3 17.9,0 0,3 0.4,0.4 4.2,0 0.3,-0.4 0,-3 16,0 0.4,-0.3 0,-1.5 -0.4,-0.4 -16,0 z m -120.56,1.4 -0.36,0.4 0,0.7 c 0,0.4 -0.33,0.7 -1.07,0.7 l -2.08,0 c -0.75,0 -1.07,-0.3 -1.07,-0.7 l 0,-3.8 -0.36,-0.4 -2.47,0 c 0.71,-1.3 1.13,-2.8 1.13,-4.6 l 0,-1.5 -0.36,-0.3 -3.21,0 -0.36,0.3 0,1.1 c 0,4.7 -3.72,8.6 -9.88,9.8 l -0.36,0.3 0,1.4 0.36,0.4 c 2.35,0 8.27,-1.3 11.58,-5.2 l 0,3.2 c 0,1.1 1.07,1.9 2.94,2 l 6.05,0 c 2.05,0 3,-0.8 3,-2 l 0,-1.4 -0.33,-0.4 -3.15,0 z m 9.56,-12.8 -0.3,0.3 0,1.5 0.3,0.4 3.9,0 -3.5,3.3 0,0.3 0,1.4 0.3,0.4 7.1,0 0,2 -6.5,0 -0.4,0.3 0,1.5 0.4,0.4 6.5,0 0,2.4 -7.4,0 -0.3,0.4 0,1.5 0.3,0.3 15.9,0 c 1.9,0 3,-0.9 3.1,-2 l 0,0 -7.6,0 0,-2.5 6.5,0 0.4,-0.3 0,-1.5 -0.4,-0.4 -6.5,0 0,-2 2.7,0 0,0 c 3.5,0 5.1,-1.7 5.1,-3.6 l 0,-0.4 -0.3,-0.3 -3.2,0 -0.4,0.3 0,0.4 c 0,0.8 -0.7,1.5 -2.2,1.5 l -8.6,0 3.4,-3.3 11,0 0.3,-0.4 0,-1.4 -0.3,-0.4 -19.1,0 z m 27,1 c 0.3,-0.4 0.3,-0.9 0.3,-1.2 l -0.4,-0.4 -2.9,0 -0.4,0.4 c -0.4,2.1 -1,4.7 -3.9,7.1 l -0.3,0.3 0,1.4 0.4,0.4 c 1.4,-0.5 2.5,-1.3 3.5,-2.2 0.9,1.4 2.1,3 3.8,4.3 -2.2,1.7 -4.5,2.8 -6.5,3.3 l -0.4,0.4 0,1.4 0.4,0.2 c 3.5,-0.5 6.4,-1.7 8.8,-3.6 2.4,1.7 5.4,3 9.4,3.6 l 0.5,-0.3 0,-1.4 -0.4,-0.4 c -2.6,-0.6 -5.1,-1.8 -7.2,-3.5 2.1,-2.2 3.7,-4.8 4.8,-7.7 l 2.4,0 0.4,-0.3 0,-1.4 -0.4,-0.4 -12,0 z m 2.3,7.8 c -1.6,-1.5 -2.8,-3.2 -3.6,-4.9 l 0.4,-0.8 6.5,0 c -0.8,2.4 -2,4.3 -3.3,5.7 z m -58.6,4 -4.28,-3.6 c 1.96,-2.4 3.21,-5 3.66,-7.4 l 0,-0.5 -0.36,-0.4 -14.5,0 -0.38,0.3 0,1.4 0.38,0.4 10.63,0 c -0.48,1.3 -1.16,2.7 -2.05,3.9 l -2.83,-2.4 -0.87,-0.3 -3.6,0 0,0.3 c 0,0 2.98,2.4 5.39,4.6 -1.99,1.9 -4.43,3.4 -6.85,4.1 l -0.35,0.4 0,1.4 0.41,0.3 c 3.78,-0.6 6.88,-2.2 9.29,-4.2 1.04,0.8 1.88,1.6 1.88,1.6 l 0.86,0.3 3.57,0 0.3,0 z m 17.83,-2.3 0.3,0.3 c 2.47,0 3.81,-0.7 3.81,-1.6 l 0,-6.2 c 0,-1.9 -1.64,-3.5 -5.12,-3.5 l -10.51,0 c -3.45,0 -5.09,1.6 -5.09,3.5 l 0,7 0.39,0.3 3.19,0 0.35,-0.3 0,-6.9 c 0,-0.8 0.69,-1.4 2.18,-1.4 l 8.54,0 c 1.46,0 2.14,0.5 2.14,1.4 l 0,6.1 0,1.4 z m 153.37,-38.4 -23.9,0 c -2,0 -2.8,-0.8 -2.8,-1.8 0,-1.1 0.8,-1.9 2.8,-1.9 l 29.8,0 0.3,-0.3 c 0,-1.4 -1.5,-2.5 -3.9,-2.5 l -27.4,0 c -4.6,0 -6.8,2 -6.8,4.5 0,2.5 2.2,4.6 6.8,4.6 l 23.9,0 c 1.9,0 2.7,0.8 2.7,1.9 0,1.1 -0.9,1.9 -2.9,1.9 l -15.1,0 -14.6,0 -0.4,0.4 0,1.8 0.4,0.4 14.6,0 16.5,0 c 4.6,0 6.7,-1.9 6.7,-4.5 0,-2.4 -2.1,-4.6 -6.6,-4.5 z m -179.74,9.4 c 1.04,0.8 1.9,1.4 1.9,1.3 0.3,0.3 0.51,0.3 0.81,0.3 l 5.39,0 0.29,-0.3 -2.73,-1.9 c 4.04,-0.9 4.82,-2.8 4.82,-6 l 0,-2.6 c 0,-5.1 -1.91,-6.8 -15.72,-6.8 l -7.8,0 c -13.8,0 -15.71,1.7 -15.71,6.7 l 0,2.7 c 0,5.1 1.88,6.7 15.62,6.8 l 7.86,0 c 2.11,0.3 3.81,0 5.45,0 z m -15.78,-2.5 c -6.91,0 -7.86,-0.9 -7.86,-3.4 l 0,-4.2 c 0,-2.5 0.94,-3.4 7.86,-3.4 l 13.07,0 c 6.94,0 7.8,0.8 7.8,3.5 l 0,4.2 c 0,1.7 -0.39,2.6 -2.62,3.1 l -2.35,-1.6 c -0.33,-0.3 -0.63,-0.3 -0.87,-0.3 l -5.38,0 0,0.3 c 0,0 1.34,0.8 2.68,1.8 l -12.21,0 z m 142.92,2.6 c 13.9,0 15.8,-1.7 15.8,-6.8 l 0,-2.6 c 0,-5.1 -1.9,-6.8 -15.8,-6.8 l -7.8,0 c -13.8,0 -15.7,1.7 -15.7,6.8 l 0,2.6 c 0,5.1 1.9,6.7 15.6,6.8 l 7.9,0 z m -18.3,-6 0,-4.2 c 0,-2.5 1,-3.4 7.9,-3.4 l 13.1,0 c 6.9,0 7.8,0.8 7.8,3.4 l 0,4.2 c 0,2.5 -0.9,3.4 -7.9,3.4 l -13.1,0 c -6.8,0 -7.7,-0.7 -7.7,-3.4 z m -70,6 c 13.8,0 15.7,-1.7 15.7,-6.8 l 0,-2.6 c 0,-5.1 -1.9,-6.8 -15.7,-6.8 l -7.85,0 c -13.78,0 -15.69,1.7 -15.69,6.8 l 0,2.6 c 0,5.1 1.88,6.7 15.6,6.8 l 7.94,0 z m -18.33,-6 0,-4.2 c 0,-2.5 0.95,-3.4 7.86,-3.4 l 13.07,0 c 6.9,0 7.8,0.8 7.8,3.4 l 0,4.2 c 0,2.5 -0.9,3.4 -7.8,3.4 l -13.1,0 c -6.88,0 -7.83,-0.7 -7.83,-3.4 z m 72.63,5.4 0.4,0.4 4.5,0 0.4,-0.4 0,-2.1 c 0,-1.6 -0.9,-2.9 -2.7,-3.8 1.8,-0.9 2.7,-2.4 2.7,-4.1 0,-2.9 -2.6,-5.2 -7.9,-5.2 l -29.5,0 c -0.5,0 -0.9,0.3 -0.9,0.8 l 0,14.4 0.4,0.3 4.5,0 0.4,-0.4 0,-4.8 23.8,0 c 2.6,0 4.1,1.1 4.1,2.6 l 0,2.3 z m -3.9,-7.4 -23.8,0 0,-4.8 0.4,-0.4 23.4,0 c 2.6,0 4.1,1.1 4.1,2.6 0,1.3 -1.4,2.7 -4.1,2.6 z"></path> </svg>