<?xml version="1.0"?>

<svg xmlns="http://www.w3.org/2000/svg" viewBox="0 0 753.9 219.1" height="219.1" width="753.9"><path d="m 709.8,177.1 c 0.3,-1.3 0.5,-2.5 0.5,-3.2 l 5.9,0 -0.4,2.2 0,0 c 1.7,-1.5 4,-2.8 6.5,-2.8 4.4,0 7.3,2.8 7.3,7.3 0,1.7 -0.4,3.6 -0.6,5 l -2.4,11 -6,0 2.2,-10.7 c 0.3,-1.6 0.7,-3.1 0.7,-4.8 0,-1.9 -1.3,-3.2 -3.2,-3.2 -4.1,0 -5.6,3.9 -6.4,7.3 l -2.4,11.4 -6,0 4.3,-19.5 z m -12.3,6.2 c 0,-2.9 -1,-5.4 -4.5,-5.4 -4.7,0 -6.9,5.2 -6.9,9.3 0,3 1.2,5.3 4.5,5.3 4.7,0 6.9,-5.3 6.9,-9.2 m 6.2,0 c 0,8 -5.5,13.9 -13.5,13.9 -6.5,0 -10.4,-4 -10.4,-10.4 0,-7.6 5.9,-13.4 13.5,-13.4 6.1,0 10.4,3.7 10.4,9.9 m -29.5,-19.2 5.9,0 -1.2,5.7 -5.9,0 1.2,-5.7 z m -2.1,9.8 5.8,0 -4.8,22.8 -6,0 5,-22.8 z m -19.4,-0.1 4.3,0 1.1,-4.7 6.2,-2.1 -1.3,6.8 5.2,0 -0.9,4.3 -5.2,0 -2.3,9.9 c -0.1,0.6 -0.1,1.4 -0.1,2.2 0,1.4 0.8,2.3 2.1,2.3 1.1,0 2.1,-0.3 2.9,-0.6 l -1,4.6 c -1,0.2 -2.2,0.5 -3.2,0.5 -4,0 -6.8,-1.5 -6.8,-5.9 0,-1.8 0.4,-3.5 0.8,-5.3 l 1.6,-7.7 -4.3,0 0.9,-4.3 z m -17.8,19 c 4.4,0 5.7,-3.1 6.6,-6.7 l -2,0 c -2.9,0 -7.7,0.5 -7.7,4.3 0,1.6 1.6,2.4 3.1,2.4 m 5.7,0.3 0,0 c -2,2.6 -4.1,4 -7.3,4 -4.2,0 -7.1,-2.3 -7.1,-6.5 0,-7.5 8.4,-8.1 14,-8.1 l 2,0 c 0.3,-0.6 0.3,-1.2 0.3,-1.9 0,-2.3 -2.6,-3 -4.6,-3 -2.6,0 -5.2,0.7 -7.4,1.8 l 0.8,-4.7 c 2.5,-0.9 5,-1.4 7.7,-1.4 4.5,0 8.8,1.7 8.8,7 0,3.1 -2.3,12 -2.8,16.3 l -4.9,0 0.5,-3.5 z m -48.7,-16.8 c 0.2,-0.8 0.4,-1.8 0.6,-2.5 l 5.4,0 -0.5,3.1 0.1,0 c 1.6,-2.4 4.2,-3.6 7,-3.6 2.6,0 5.4,1.6 5.8,4.3 l 0,0 c 1.5,-2.9 4.8,-4.3 8,-4.3 3.4,0 6.3,2.8 6.3,6.2 0,2 -0.5,4.3 -0.9,6.2 l -2.4,10.9 -6,0 2.4,-11.1 c 0.4,-1.4 0.8,-3.5 0.8,-4.9 0,-1.7 -1.4,-2.7 -2.8,-2.7 -4.2,0 -5.1,4.8 -5.9,7.8 l -2.4,10.9 -5.9,0 2.4,-11.1 c 0.3,-1.4 0.8,-3.5 0.8,-4.9 0,-1.7 -1.3,-2.7 -2.8,-2.7 -4,0 -5.2,4.8 -5.8,7.8 l -2.4,10.9 -5.9,0 4.1,-20.3 z m -17.1,0.6 c 0.1,-1 0.4,-2 0.5,-3.1 l 5.6,0 -0.8,4.3 0.1,0 c 1.1,-2.5 4,-4.8 6.7,-4.8 0.8,0 1.6,0 2.2,0.2 l -1.2,5.8 c -0.6,-0.2 -1.4,-0.3 -2.2,-0.3 -4.2,0 -6.3,3.7 -6.9,7.4 l -2.2,10.2 -5.8,0 4,-19.7 z m -11.8,6.4 c 0,-2.9 -1,-5.4 -4.5,-5.4 -4.7,0 -6.9,5.2 -6.9,9.3 0,3 1.2,5.3 4.5,5.3 4.7,0 6.9,-5.3 6.9,-9.2 m 6.2,0 c 0,8 -5.5,13.9 -13.5,13.9 -6.5,0 -10.4,-4 -10.4,-10.4 0,-7.6 5.9,-13.4 13.5,-13.4 6.1,0 10.4,3.7 10.4,9.9 m -35.6,-5.1 -4.6,0 0.8,-4.4 4.7,0 c 1.2,-5.7 3.1,-10.9 10,-10.9 1.3,0 2.7,0.3 3.7,0.5 l -1.4,4.6 c -0.6,-0.3 -1.2,-0.4 -1.8,-0.4 -3.3,0 -4,3.9 -4.6,6.3 l 5.3,0 -0.9,4.3 -5.4,0 -3.8,18.4 -5.9,0 3.9,-18.4 z m -28.3,-1.1 c 0.3,-1.3 0.5,-2.5 0.5,-3.2 l 5.9,0 -0.4,2.2 0,0 c 1.7,-1.5 4,-2.8 6.5,-2.8 4.4,0 7.4,2.8 7.4,7.3 0,1.7 -0.4,3.6 -0.7,5 l -2.4,11 -6,0 2.3,-10.7 c 0.2,-1.6 0.6,-3.1 0.6,-4.8 0,-1.9 -1.3,-3.2 -3.2,-3.2 -4.1,0 -5.6,3.9 -6.4,7.3 l -2.4,11.4 -6,0 4.3,-19.5 z m -9.9,-11.3 6.4,0 -6.4,30.9 -6.5,0 6.5,-30.9 z m -20.2,12.9 c -1.6,-0.5 -3.2,-1 -4.8,-1 -1.9,0 -4,0.5 -4,2.3 0,2.8 7.6,3.9 7.6,9.5 0,5.9 -5.1,7.6 -10.3,7.6 -2.3,0 -4.7,-0.3 -6.9,-1.3 l 1.3,-4.8 c 1.7,1 3.3,1.8 5.6,1.8 2,0 4.1,-0.7 4.1,-2.5 0,-3.7 -7.7,-4 -7.7,-9.7 0,-5.4 5.2,-7.3 9.9,-7.3 2.1,0 4.4,0.4 6.5,1 l -1.3,4.4 z m -22.2,-14.6 5.9,0 -1.2,5.7 -5.9,0 1.2,-5.7 z m -2.1,9.8 5.9,0 -4.8,22.8 -6,0 4.9,-22.8 z m -33.4,-10.5 5.8,0 -3.8,18.7 0.1,0 8.3,-8.3 7.6,0 -11,10.4 7,12.4 -6.7,0 -5.9,-12.1 -0.1,0 -2.5,12.1 -5.9,0 7.1,-33.2 z m -19.6,13.5 c 0.1,-1 0.4,-2 0.5,-3.1 l 5.6,0 -0.8,4.3 0.1,0 c 1.1,-2.5 4,-4.8 6.7,-4.8 0.8,0 1.6,0 2.3,0.2 l -1.2,5.8 c -0.7,-0.2 -1.5,-0.3 -2.3,-0.3 -4.1,0 -6.3,3.7 -6.9,7.4 l -2.2,10.2 -5.8,0 4,-19.7 z m -12.3,6.4 c 0,-2.9 -1.1,-5.4 -4.5,-5.4 -4.7,0 -7,5.2 -7,9.3 0,3 1.2,5.3 4.6,5.3 4.6,0 6.9,-5.3 6.9,-9.2 m 6.1,0 c 0,8 -5.4,13.9 -13.4,13.9 -6.6,0 -10.4,-4 -10.4,-10.4 0,-7.6 5.8,-13.4 13.4,-13.4 6.2,0 10.4,3.7 10.4,9.9 m -61.4,-9.5 5.8,0 1.8,17.1 0,0 8.4,-17.1 6.5,0 1.2,17.1 0.1,0 8.8,-17.1 6,0 -12.6,22.8 -6.7,0 -1.2,-17.4 -0.1,0 -8.3,17.4 -6.7,0 -3,-22.8 z m -16.5,0 4.2,0 1.1,-4.7 6.2,-2.1 -1.3,6.8 5.2,0 -0.9,4.4 -5.2,0 -2.3,9.9 c -0.1,0.5 -0.1,1.3 -0.1,2.2 0,1.4 0.8,2.2 2.1,2.2 1.1,0 2.1,-0.2 2.9,-0.6 l -1,4.7 c -1,0.2 -2.2,0.5 -3.2,0.5 -4,0 -6.8,-1.6 -6.8,-6 0,-1.7 0.4,-3.5 0.8,-5.3 l 1.6,-7.6 -4.3,0 1,-4.4 z m -9.2,9.2 c 0.1,-0.6 0.1,-1.1 0.1,-1.6 0,-2.4 -1.3,-3.8 -3.7,-3.8 -3.8,0 -5.4,2.2 -6.4,5.4 l 10,0 z m -10.8,4 c 0,4.2 2.2,5.8 6.2,5.8 2.4,0 4.8,-0.7 7.1,-1.7 l -0.8,4.7 c -2.3,0.7 -4.8,1.3 -7.2,1.3 -6.5,0 -11.1,-3.2 -11.1,-9.9 0,-7.1 5.5,-13.9 13.1,-13.9 5.6,0 9.2,2.9 9.2,8.6 0,1.8 -0.1,3.4 -0.5,5.1 l -16,0 z m -31.1,-21.2 7.9,0 6.5,23.4 0,0 5.1,-23.4 5.8,0 -6.6,30.9 -8,0 -6.4,-23.7 -0.2,0 -4.8,23.7 -6,0 6.7,-30.9 z M 237,183 c 0.1,-0.6 0.1,-1.1 0.1,-1.6 0,-2.4 -1.3,-3.8 -3.7,-3.8 -3.8,0 -5.4,2.2 -6.4,5.4 l 10,0 z m -10.8,4 c 0,4.2 2.2,5.8 6.2,5.8 2.4,0 4.8,-0.7 7.1,-1.7 l -0.8,4.7 c -2.3,0.7 -4.8,1.3 -7.2,1.3 -6.5,0 -11.1,-3.2 -11.1,-9.9 0,-7.1 5.5,-13.9 13.1,-13.9 5.6,0 9.2,2.9 9.2,8.6 0,1.8 -0.1,3.4 -0.5,5.1 l -16,0 z m -25.5,-23.6 5.9,0 -2.8,12.6 0.1,0 c 1.6,-1.5 3.9,-2.7 6.4,-2.7 4.5,0 7.5,2.8 7.5,7.3 0,1.7 -0.4,3.5 -0.8,4.9 l -2.4,11.1 -5.9,0 2.3,-10.8 c 0.2,-1.5 0.5,-3.1 0.5,-4.7 0,-1.9 -1.2,-3.2 -3.2,-3.2 -4.1,0 -5.6,3.8 -6.3,7.2 l -2.5,11.5 -5.9,0 7.1,-33.2 z m -27.6,2.4 23.9,0 -1.1,4.9 -8.7,0 -5.6,26 -6.5,0 5.6,-26 -8.6,0 1,-4.9 z m -86,-112.2 0,32.65 0.16,1.07 -1.24,-0.13 -32.6,0 0,37.81 71.88,0 0,-71.4 -38.2,0 z m -12.9,-31.06 -52.2,0 0,52.12 52.2,0 0,-52.12 z M 695.1,128.4 c -9.6,0 -20.4,-2.8 -26.4,-6.8 l -1.7,-1.2 4.9,-15.9 3.1,2 c 5.9,3.7 13.6,5.9 21.1,5.9 11,0 17.7,-5.2 17.7,-14.02 0,-6.53 -2.8,-11.59 -16.7,-16.79 C 678.6,74.79 669.5,64.93 669.5,51.2 669.5,34 683.7,22 703.8,22 c 12.8,0 20.2,3.6 22.9,5.07 l 1.9,1.2 -5.2,15.46 -3,-1.73 c -1.6,-1.07 -7.5,-4.27 -17,-4.27 -11.6,0 -15.7,6.53 -15.7,12 0,7.2 4.2,11.2 17.7,16.4 18.9,7.46 26.5,16.52 26.5,31.19 0,14.38 -9.6,31.08 -36.8,31.08 M 613.9,37.73 c -19.8,0 -28.8,19.2 -28.8,38.13 0,18.39 9.8,36.94 28.6,36.94 l 0.1,0 c 14.3,0 28.7,-11.7 28.7,-38.01 0,-17.86 -9,-37.06 -28.6,-37.06 m -0.5,90.77 -0.1,0 c -27.6,0 -46.8,-21.6 -46.8,-52.38 0,-31.86 19.7,-53.98 48,-53.98 28.1,0 46.9,20.92 46.9,52.12 0,32.34 -19.3,54.24 -48,54.24 m -55.8,-1.7 -17.9,0 -2.4,-45.48 c -0.5,-8.4 -1.1,-17.99 -1.3,-27.06 -2.4,7.2 -5,14.8 -7.8,22.66 l -18,49.28 -13.3,0 -16.7,-48.48 c -2.6,-8 -4.9,-15.19 -6.8,-21.73 -0.6,8.4 -0.8,17.47 -1.3,26.26 l -2.8,44.55 -17.3,0 7,-103.2 20.6,0 17.3,49.06 c 2.9,8.66 5.5,16.66 7.6,24.39 2.1,-7.06 4.7,-14.93 8,-24.39 l 18.1,-49.06 20.6,0 6.4,103.2 z m -153.1,1.6 c -9.6,0 -20.4,-2.8 -26.4,-6.8 l -1.7,-1.2 4.9,-15.9 3,2 c 6,3.7 13.7,5.9 21.2,5.9 11,0 17.7,-5.2 17.7,-14.02 0,-6.53 -2.8,-11.59 -16.7,-16.79 C 388,74.79 378.9,64.93 378.9,51.2 378.9,34 393.1,22 413.2,22 c 12.7,0 20.3,3.6 22.9,5.07 l 1.9,1.2 -5.3,15.46 -2.8,-1.73 c -1.6,-1.07 -7.6,-4.27 -17.1,-4.27 -11.6,0 -15.7,6.53 -15.7,12 0,7.2 4.2,11.2 17.7,16.4 18.8,7.46 26.5,16.52 26.5,31.19 0,14.38 -9.6,31.08 -36.8,31.08 M 322.3,37.73 c -19.9,0 -28.8,19.2 -28.8,38.13 0,18.39 9.7,36.94 28.5,36.94 14.4,0 28.8,-11.7 28.8,-38.01 0,-17.86 -8.9,-37.06 -28.5,-37.06 m -0.6,90.77 -0.2,0 c -27.5,0 -46.7,-21.6 -46.7,-52.38 0,-31.86 19.8,-53.98 48,-53.98 28,0 46.9,20.92 46.9,52.12 0,37.44 -24.1,54.24 -48,54.24 m -105,-90.77 c -20.1,0 -29.2,19.2 -29.2,38.26 0,18.26 9.9,36.81 28.7,36.81 14.4,0 28.8,-11.7 28.8,-38.01 0,-17.86 -8.8,-37.06 -28.3,-37.06 m 47.5,104.77 -2.4,-0.5 c -15.8,-3.9 -29.1,-7.8 -42,-12.3 l -0.8,0 c -1.6,-0.5 -3.1,-1.1 -4.3,-1.1 -22.9,-0.8 -45.8,-17.3 -45.8,-52.08 0,-31.99 19.8,-54.25 48.1,-54.25 27.4,0 46.6,21.46 46.6,52.12 0,22.26 -8.6,39.21 -24.2,47.21 0.9,0 1.8,0 2.4,0 0.4,0 0.6,0 1,0 l 1.6,0.5 c 7,1.6 14.2,3.1 22,4.5 l 3.1,0.6 -5.3,15.8 z"></path></svg>