 <svg 
   xmlns="http://www.w3.org/2000/svg"
   viewbox="0 0 825 361"
   height="360.1"
   width="824.1">
   
  <path 
     d="M 144.7,-0.025 C 64.87,-0.025 0.025,64.68 0.025,143.8 c 0,79.1 64.845,143.7 144.675,143.7 29.6,0 57.1,-8.9 80,-24 0.1,0 0.3,0 0.4,0 0.6,0.9 1.3,1.8 2,2.6 0.3,0.6 0.6,1.1 0.9,1.7 1.6,1.3 2.9,2.1 4.1,2.3 0.7,1 1.6,1.9 2.8,2.7 0.4,0.5 0.7,0.9 1.1,1.2 0.5,0.6 1.1,1.2 1.8,1.7 0.8,0.7 1.3,0.9 1.5,0.8 l 0.2,0 c 0.9,1.3 2.1,2.5 3.7,3.5 0.3,0.4 0.7,0.8 1,1 0.7,0.7 1.5,1.4 2.5,2 0.6,1 1.4,1.9 2.5,2.7 0.2,0.1 0.5,0.2 0.7,0.3 0.9,1.4 2.2,2.5 4,3.3 4,1.6 5.7,5.4 6.1,3.6 0.1,0.1 0.1,0.1 0.3,0.2 1.1,3.9 2.1,4.6 2.8,3.8 0.6,0.6 1.2,1.2 1.9,1.7 0.7,1.5 1.7,2.9 3.2,4.1 0.6,0.4 1.2,0.5 1.8,0.6 0.8,1.3 1.9,2.4 3.4,3.2 2,4.3 3.1,3.9 3.5,2.1 1,0.8 2.2,1.3 3.8,1.5 1.2,0.9 2.4,1.7 3.8,2.2 0.6,0.5 1.3,1 1.9,1.4 2.1,5.3 3,2.5 2.8,-0.8 0.2,0 0.4,-0.1 0.4,-0.2 0.6,0.1 1.1,0.1 1.6,0 2.2,0.9 2.7,0.1 2.2,-1.4 0.2,-0.2 0.3,-0.5 0.6,-0.9 -0.2,-0.2 -0.4,-0.4 -0.6,-0.5 0.7,-1 0.8,-2.1 0.3,-3.1 0,-0.2 0,-0.3 0.2,-0.5 -0.2,-0.6 -0.5,-1.2 -0.7,-1.7 0,-1.1 -0.3,-2.3 -1.2,-3.1 0,-0.2 -0.2,-0.3 -0.3,-0.4 0,-1.1 -0.3,-2.2 -1,-3.3 -0.3,-1.4 -1,-2.7 -1.8,-3.7 -0.2,-1.3 -1.2,-2.6 -2.5,-3.7 0,-2.1 -1.8,-4 -3.9,-5.5 -0.7,-1.4 -1.6,-2.7 -2.7,-3.7 -0.3,-0.5 -0.7,-1 -1.4,-1.6 -0.3,-0.7 -0.7,-1.4 -1.2,-2 0.3,-2.7 -1.4,-5.6 -3.8,-7.5 -0.3,-1 -0.8,-1.9 -1.5,-2.7 0,-0.8 -0.5,-1.7 -1.7,-2.3 -0.4,-0.6 -0.9,-1.2 -1.4,-1.7 -0.5,-1.2 -1.4,-2.4 -2.3,-3.5 -0.4,-1.8 -2.1,-4.3 -3.7,-5.7 -0.6,-1.2 -1.7,-2.4 -3,-3.4 -0.3,-1.8 -0.9,-3.6 -1.9,-4.3 -0.4,-0.2 -0.7,-0.4 -1,-0.6 0.1,-0.3 0.1,-0.6 0,-1 -1.3,-0.5 -2.6,-1.4 -3.8,-2.4 -0.5,-0.7 -1,-1.4 -1.5,-2.1 23.5,-25.5 37.7,-59.5 37.7,-96.6 0,-79.12 -64.7,-143.825 -144.6,-143.825 z m 616.1,6 0,3.699 12,0 0,29.606 4.4,0 0,-29.606 12,0 0,-3.699 -28.4,0 z m 32.8,0 0,33.305 4.2,0 0,-29.305 8.8,22.905 4.5,0 8.6,-22.905 0,29.305 4.4,0 0,-33.305 -6.8,0 -8.5,22.705 -8.6,-22.705 -6.6,0 z m -95.9,2.6 0,90.505 c -10.4,-9.4 -25.8,-14.2 -45.9,-14.2 -24.2,0 -45,10.4 -62.5,31.22 -17.4,20.6 -26.2,45.5 -26.2,74.8 0,29.1 7.6,52.5 22.7,69.9 15.3,17.5 35.1,26.3 59.4,26.3 22.9,0 40.5,-6.1 52.5,-18.1 l 0,14.4 34.5,0 0,-274.825 -34.5,0 z m -186,13.405 0,38 38,0 0,-38 -38,0 z m -367,9.7 c 62.3,0 112.6,49.9 112.6,112.12 0,27.8 -10.1,53.1 -26.8,72.6 -0.2,-0.4 -0.4,-0.6 -0.7,-1 1.6,-0.7 -1.6,-2.3 -4,-4.3 0.5,-1 -3.5,-2.7 -5.3,-5.5 -0.4,-0.5 -1,-0.8 -1.6,-1.1 -0.8,-1.3 -1.9,-2.3 -3.2,-3.1 -0.9,-2.1 -3,-3.5 -5.5,-4.2 -1.4,-1.7 -2.9,-3.2 -4.9,-3.7 -1,-0.8 -2,-1.5 -2.8,-1.7 -1,-1.8 -3,-2.8 -5,-3.2 -1,-2 -2.6,-3.4 -5,-3.4 -1.6,-1.5 -3.4,-2.6 -5.8,-2.2 l -0.2,0 c -1.7,-1 -3.4,-1.7 -5.6,-1.2 -0.4,0.2 -0.9,0.3 -1.3,0.6 1.9,-2.5 3.9,-4.9 5.6,-7.6 -2,0.8 -4.2,1.6 -6.2,2.3 -0.9,0.2 -1.8,0.6 -2.6,1 0.3,-1.7 1,-3.3 2.4,-4.8 2.9,-3.4 -2.8,0.1 -3.8,-0.2 -1,0.3 -1.9,0.7 -2.6,1.2 -0.3,-0.7 -0.7,-1.4 -1.2,-2.1 0.3,-2.1 0.8,-4.1 1.1,-6.2 -1.1,1.2 -2.2,2.5 -3.2,3.7 -0.1,0 -0.1,-0.1 -0.2,-0.1 -1.8,-3.7 -1.5,-1.1 -1.1,1.6 l -0.3,0.3 c -1.4,2 -2,4.1 -2.1,6.4 -1.2,-0.5 -2.5,-0.8 -4,-0.9 -7.7,-3.4 0.6,2.4 1.9,4.4 0.6,0.4 1,0.9 1.5,1.4 -7.2,-4.1 -14.6,-7.4 -22.6,-9.2 l -1.3,0 c -11,-0.9 -3.6,2.6 2.3,5.7 5.7,3.1 11.3,6.4 17,9.8 -1.7,-0.5 -3.3,-1.1 -4.8,-2 -2.1,-1.3 0.2,1.6 1.5,3.4 -3.1,1.4 -5.3,4.6 -4.6,8.4 0.5,0.1 1,0 1.7,-0.3 0,0.1 -0.1,0.1 -0.1,0.2 -0.7,0.2 -1.3,0.4 -2.1,0.5 0.5,0.2 1.1,0.4 1.6,0.6 -0.5,1.3 -0.7,2.8 -0.6,4.4 -0.3,2.9 2.7,-1 5.1,-3.1 l 0.1,0 c -0.1,0.9 -0.1,1.8 0.1,2.8 -1.4,8.4 2.9,0.1 5.3,-3.1 0.1,0 0.2,0 0.3,-0.1 -1.2,2.3 -1.4,4.7 0.6,7.1 0.3,0.3 0.5,0.5 0.7,0.8 0.1,0.7 0.4,1.5 0.9,2.3 0.5,0.7 1.3,1.2 2,1.5 0.2,0.6 0.4,1.1 0.6,1.7 1.1,1.1 2.3,1.8 3.5,2.1 0.4,1 1,1.9 1.9,2.8 0.8,0.6 1.6,1 2.3,1.4 0.3,0.3 0.5,0.6 0.7,0.9 0.9,0.7 1.8,1.4 2.7,2 0.8,1.8 2.1,3.4 3.9,4.6 0.5,0.2 0.9,0.4 1.2,0.5 0.6,0.8 1.2,1.5 2.1,2.2 0.9,0.6 1.6,1.1 2.3,1.4 0.2,0.3 0.5,0.7 0.8,1 0.9,0.8 2.3,1.6 3.6,2 0.3,0.5 0.7,1.1 1.3,1.6 1.1,0.9 2.4,1.7 3.5,2.4 0.4,0.5 1,1 1.6,1.4 0.3,0.2 0.6,0.4 0.9,0.5 -16.5,9.4 -35.6,14.8 -56.1,14.8 -62.27,0 -112.46,-49.9 -112.46,-112 0,-62.22 50.19,-112.12 112.46,-112.12 z m 251.6,53.2 c -18.4,0 -34.3,6.6 -47.4,19.72 l 0,-16.02 -34.6,0 0,271.52 34.6,0 0,-87.3 c 2.6,3.8 8.7,7.2 18,10.1 9.4,2.9 18.3,4.3 26.5,4.3 29.4,0 51.9,-9.3 67.5,-28 15.4,-18.8 23.3,-43 23.3,-72.7 0,-33.2 -7.8,-58.5 -23.2,-75.7 C 445.6,93.48 424.1,84.88 396.3,84.88 Z m 87.5,3.7 0,29.12 26.7,0 0,165.9 34.7,0 0,-195.02 -61.4,0 z M 383.4,114.1 c 22.5,0 38.8,5.7 49,17.1 10.2,11.4 15.4,29.4 15.4,54 0,48.6 -21.5,72.9 -64.5,72.9 -6.6,0 -13.5,-1.5 -20.6,-4.4 -7,-3 -11.7,-6.2 -13.8,-9.5 l 0,-113.6 c 4.1,-4.2 9.7,-8 16.8,-11.4 7,-3.4 12.8,-5.1 17.7,-5.1 z m 278.5,0 c 15.1,0 27.2,6.5 35.9,19.6 l 0,108.2 c -1.9,3.9 -6.8,7.6 -14.4,11.1 -7.7,3.4 -14.2,5.1 -19.6,5.1 -42.8,0 -64.1,-23.5 -64.1,-70.5 0,-21.3 5.7,-39 17.1,-52.8 11.5,-13.8 26.5,-20.7 45.1,-20.7 z" />
</svg>
