<?xml version="1.0"?>
<!--?xml version="1.0" encoding="UTF-8" standalone="no"?-->
<svg xmlns="http://www.w3.org/2000/svg" width="760" height="159.91" viewBox="0 0 760 159.91">

  <path d="m 721.98,28.65 v -3.23 h 2.2 c 1.07,0 2.28,0.24 2.28,1.54 0,1.6 -1.21,1.69 -2.56,1.69 z m 6.11,-1.6 c 0,-2.06 -1.21,-2.97 -3.69,-2.97 h -3.99 v 10.43 h 1.57 v -4.52 h 1.85 l 2.77,4.52 h 1.78 l -2.99,-4.59 c 1.49,-0.2 2.7,-1.01 2.7,-2.87 z m -4.19,9.78 c -4.13,0 -7.33,-3.2 -7.33,-7.55 0,-4.29 3.2,-7.51 7.33,-7.51 4.12,0 7.32,3.22 7.32,7.51 0,4.35 -3.2,7.55 -7.32,7.55 z m 0,-16.57 c -4.98,0 -9.18,3.82 -9.18,9.02 0,5.23 4.2,9.06 9.18,9.06 4.98,0 9.17,-3.83 9.17,-9.06 0,-5.2 -4.19,-9.02 -9.17,-9.02 m 0.92,67.7 -28.01,-64.61 c -1.71,-3.11 -4.56,-4.55 -8.61,-4.55 -4.05,0 -6.97,1.44 -8.6,4.55 L 658.97,70.73 638.42,23.35 c -1.7,-3.11 -4.55,-4.55 -8.6,-4.55 -4.12,0 -6.97,1.44 -8.6,4.55 L 600.59,70.84 580.04,23.35 c -1.7,-3.11 -4.55,-4.55 -8.6,-4.55 -4.13,0 -6.97,1.44 -8.68,4.55 L 542.21,70.73 521.66,23.35 c -1.71,-3.11 -4.55,-4.55 -8.67,-4.55 -4.06,0 -6.9,1.44 -8.61,4.55 l -28.02,64.61 c -3.84,10.11 10.1,15.31 14.65,7.18 l 21.98,-51.45 22.04,51.45 c 2.84,5.27 11.73,5.03 14.36,0 l 22.05,-51.45 21.97,51.45 c 1.49,2.59 3.84,3.7 6.33,3.86 0.28,0 0.57,0.1 0.85,0.1 0.29,0 0.57,0 0.93,-0.1 2.42,-0.16 4.83,-1.27 6.26,-3.86 l 22.04,-51.45 21.97,51.45 c 2.63,5.03 11.52,5.27 14.37,0 l 22.04,-51.45 21.97,51.45 c 4.55,8.13 18.49,2.93 14.65,-7.18 M 238.5,67.38 250.8,39.42 263.1,67.38 Z m 19.91,-47.65 h -15.15 l -34.13,77.4 h 16.22 l 8.03,-17.05 h 35.34 l 0.71,1.64 6.83,15.41 h 16.21 L 258.41,19.73 M 437.54,84.4 c -14.37,0 -25.96,-11.55 -25.96,-25.92 0,-14.37 11.59,-26.13 25.96,-26.13 14.36,0 26.02,11.65 26.02,26.02 0,14.38 -11.66,26.03 -26.02,26.03 z m 0,-67.36 c -22.83,0 -41.32,18.61 -41.32,41.44 0,22.83 18.49,41.22 41.32,41.22 22.82,0 41.31,-18.5 41.31,-41.33 0,-22.82 -18.49,-41.33 -41.31,-41.33 m -35.42,5.43 c -6.11,-3.58 -13.22,-5.65 -20.83,-5.65 -22.83,0 -41.39,18.51 -41.39,41.33 0,22.84 18.56,41.35 41.39,41.35 7.11,0 13.94,-1.87 19.77,-5.04 l -7.47,-13.42 c -3.62,1.99 -7.82,3.15 -12.3,3.15 -14.44,0 -26.03,-11.67 -26.03,-26.04 0,-14.37 11.59,-26.02 26.03,-26.02 4.84,0 9.39,1.38 13.3,3.69 l 7.53,-13.35 M 196.83,97.54 h -44.02 c -2.98,0 -6.54,-3.49 -6.54,-6.51 l -0.1,-71.43 h 15.29 v 61.83 h 26.52 V 19.6 h 15.29 v 71.43 c 0,3.02 -3.48,6.51 -6.47,6.51 M 97.634,98.79 V 77.1 l -18.915,5.42 v 26.87 c -3.626,0.99 -7.466,1.6 -11.377,1.6 -24.107,0 -43.662,-19.54 -43.662,-43.63 0,-24.1 19.555,-43.63 43.662,-43.63 24.106,0 43.658,19.53 43.658,43.63 0,12.33 -5.12,23.48 -13.366,31.43 z M 134.68,67.36 C 134.68,30.16 104.53,0 67.342,0 30.151,0 0,30.16 0,67.36 c 0,37.2 30.151,67.36 67.342,67.36 3.982,0 7.679,-0.37 11.448,-1.03 l -0.07,26.22 H 97.635 V 127.29 C 119.54,116.17 134.68,93.58 134.68,67.36 M 298.3,91.01 c 0,3.02 3.49,6.52 6.55,6.52 h 44.58 L 339.48,81.45 H 313.59 V 19.6 H 298.3 v 71.41"></path>

</svg>
