 <svg 
   xmlns="http://www.w3.org/2000/svg"
   height="117"
   width="400" viewbox="0 0 400 117"
   ><path
     d="m 175.73,51.24 c 2.82,0 5.7,0.49 7.7,1.309 0,0.01 0,0.04 0,0.07 l -1.71,8.964 c 0,0.01 0,0.03 0,0.04 0,0 0,0.01 0,0 -1.71,-0.963 -3.71,-1.43 -6.09,-1.43 -7.96,0 -12.69,6.935 -12.69,13.615 0,5.669 3.79,7.699 7.32,7.699 3.15,0 5.83,-0.689 9.24,-2.366 0,-0.01 0,-0.01 0,0 0,0.01 0,0.04 0,0.05 l -1.75,9.209 c 0,0.01 0,0.03 0,0.04 -2.58,1.249 -6.58,2.001 -10.7,2.001 -9.66,0 -15.87,-6.046 -15.87,-15.412 0,-13.559 10.55,-23.784 24.55,-23.784 m 172.44,0 c 2.83,0 5.71,0.491 7.71,1.309 0,0.01 0,0.04 0,0.07 l -1.71,8.964 c 0,0.01 0,0.03 0,0.04 0,0 0,0.01 0,0 -1.72,-0.963 -3.72,-1.429 -6.09,-1.429 -7.96,0 -12.69,6.934 -12.69,13.614 0,5.669 3.78,7.7 7.3,7.7 3.16,0 5.84,-0.69 9.26,-2.367 0,-0.01 0,-0.01 0,0 0,0.01 0,0.04 0,0.05 l -1.75,9.21 c 0,0.01 0,0.03 0,0.04 -2.59,1.249 -6.59,2.001 -10.71,2.001 -9.65,0 -15.86,-6.047 -15.86,-15.413 0,-13.558 10.54,-23.784 24.54,-23.784 m -41.06,38.398 c 0,-0.01 0,-0.03 0,-0.04 l 0.93,-4.709 c 0,-0.07 0,-0.133 -0.13,-0.143 0,-0.01 -0.13,0.03 -0.13,0.07 -2.06,3.481 -6.08,5.701 -10.6,5.701 -7.43,0 -10.79,-6.59 -10.79,-13.186 0,-7.493 2.93,-14.915 7.87,-19.849 4.13,-4.133 9.46,-6.316 15.42,-6.316 4.53,0.01 7.88,1.331 9.99,3.877 3.1,3.77 2.85,9.428 2.08,13.543 l -4.03,21.04 c 0,0.03 0,0.04 0,0.04 l -10.56,0 c 0,0 0,-0.01 0,-0.03 z m -4.15,-27.762 c -3,3.004 -5.25,8.643 -5.25,13.131 0,3.941 1.47,6.395 4,6.395 4.07,0 7.57,-4.25 8.77,-10.475 0.28,-1.391 0.55,-2.807 0.75,-4.064 0.2,-1.258 0.32,-2.367 0.28,-3.143 -0.13,-2.658 -1.51,-4.092 -4,-4.092 -1.51,0 -3.08,0.786 -4.55,2.248 m 90.23,21.606 -0.54,0 -0.2,1.076 -0.2,1.07 0.59,0 c 0.27,0 0.44,-0.01 0.59,-0.01 0.16,-0.01 0.28,-0.04 0.4,-0.07 0.5,-0.147 0.86,-0.516 0.96,-0.988 0.13,-0.467 -0.14,-0.834 -0.58,-0.978 -0.13,-0.04 -0.22,-0.07 -0.37,-0.08 -0.15,-0.01 -0.32,-0.01 -0.59,-0.01 l -0.13,0 z m -1.11,-0.686 c 0,-0.01 0,-0.01 0,-0.01 l 1.23,0 0,0 c 0.3,0 0.52,0 0.68,0.01 0.21,0.01 0.37,0.05 0.53,0.106 0.63,0.206 0.97,0.698 0.97,1.322 0,0.106 0,0.221 0,0.334 -0.13,0.768 -0.62,1.394 -1.52,1.64 l 0.79,2.308 c 0,0 0,0 0,0.01 0,0 0,0.01 0,0.01 0,0.01 0,0.01 0,0.01 l -0.79,0 c 0,0 0,-0.01 0,-0.01 l -0.74,-2.197 -0.48,0.01 -0.56,0 -0.42,2.184 c 0,0.01 0,0.01 0,0.01 l -0.65,0 c 0,0 0,0 0,-0.01 0,0 0,-0.01 0,-0.01 l 0.41,-2.203 0,-0.03 0.32,-1.728 0.34,-1.754 z m -3.81,2.873 c 0.25,-2.689 2.62,-4.871 5.3,-4.871 2.7,0 4.68,2.182 4.44,4.871 -0.24,2.688 -2.62,4.868 -5.3,4.868 -2.7,0 -4.68,-2.18 -4.44,-4.868 z m 0.66,0.05 c -0.21,2.304 1.47,4.145 3.78,4.145 2.33,0 4.42,-1.917 4.64,-4.262 0.21,-2.308 -1.47,-4.149 -3.78,-4.149 -2.33,0 -4.42,1.916 -4.64,4.266 M 375.77,51.164 c 7.87,0 13.11,4.569 13.11,11.342 0,3.133 -1.01,5.711 -3.03,7.667 -3.68,3.59 -10.6,5.233 -21.18,4.985 l -0.14,0 c 0,0 0,0 0,0 0,0 0,0 0,0 l 0,0.12 c 0,1.089 0.42,2.626 1.12,3.622 1.44,1.828 4,2.823 7.18,2.823 4.64,0 8.65,-1.124 13.02,-3.643 0,-0.01 0,-0.01 0,0 0,0.01 0,0.03 0,0.05 l -1.76,9.262 c 0,0.01 0,0.03 0,0.04 -5.32,2.708 -11.56,3.001 -14,3.001 -10.4,0 -16.34,-5.779 -16.34,-15.875 0,-5.817 2.14,-11.651 5.86,-15.998 4.08,-4.774 9.8,-7.4 16.08,-7.4 z m 2.63,11.342 c 0,-1.942 -1.6,-3.169 -4.01,-3.169 -4.78,0 -7.83,3.858 -8.72,7.5 l 0,0.133 c 0,0 0,0 0,0.01 0,0 0,0 0,0 l 0.13,0 c 6.47,0.04 10.12,-0.622 11.72,-2.204 0.61,-0.613 0.91,-1.358 0.91,-2.272 m -187.83,-23.79 10.99,0 c 0,0 0,0.01 0,0.01 0,0.01 0,0.03 0,0.05 l -5.73,30.139 c 0,0.01 0,0.04 0,0.04 0,0.01 0,0 0,-0.01 L 210.6,51.937 c 0,-0.01 0,-0.03 0,-0.03 l 12.06,0 c 0,0 0,0.01 0,0.03 0,0.01 0,0.01 0,0.03 0,0.01 0,0.03 0,0.04 l -15.31,17.239 9.33,20.254 c 0,0.01 0,0.01 0,0.03 0,0.01 0,0.03 0,0.03 0,0.01 0,0.03 0,0.03 l -11.89,0 c 0,0 0,-0.01 0,-0.03 l -9.03,-20.022 c 0,-0.01 0,-0.03 0,-0.03 0,0 0,0.01 0,0.03 l -3.8,20.003 c 0,0.03 0,0.04 0,0.04 l -10.98,0 c 0,0 0,-0.01 0,-0.01 0,-0.01 0,-0.03 0,-0.04 l 9.65,-50.767 c 0,-0.03 0,-0.04 0,-0.04 m 82.87,12.445 c 7.38,0 12.18,5.604 12.18,14.339 0,9.162 -4.4,18.555 -12.33,22.782 -7.21,3.849 -13.67,2.161 -15.69,-0.855 0,-0.01 0,-0.01 0,0 l -2.71,14.265 c 0,0 0,0 0,0 l -11.07,0 c 0,0 0,0 0,0 0,0 0,0 0,0 l 9.39,-49.942 c 0,-0.03 0,-0.04 0,-0.04 l 9.72,0 c 0,0 0,0.01 0,0.03 0,0.01 0,0.03 0,0.04 l -0.96,5.084 c 0,0.05 0,0.12 0,0.148 0,0.03 0.13,0 0.15,-0.05 l 0,-0.07 c 2.84,-3.658 6.86,-5.72 11.1,-5.72 z m -9.62,30.87 c 5.87,0 10.18,-8.33 10.18,-15.685 0,-1.776 -0.42,-6.089 -4.51,-6.089 -4.16,0 -7.68,4.743 -9.04,11.933 -0.47,2.459 -1.77,9.841 3.37,9.841 m -129.22,7.616 c 0,-0.01 0,-0.03 0,-0.04 l 0.93,-4.709 c 0,-0.07 0,-0.133 -0.13,-0.143 0,-0.01 -0.13,0.03 -0.13,0.07 -2.06,3.481 -6.08,5.701 -10.61,5.701 -7.42,0 -10.78,-6.59 -10.78,-13.186 0,-7.493 2.94,-14.915 7.87,-19.849 4.13,-4.133 9.46,-6.316 15.42,-6.316 4.54,0.01 7.88,1.331 9.99,3.877 3.11,3.77 2.85,9.428 2.08,13.543 l -4.03,21.04 c 0,0.03 0,0.04 0,0.04 l -10.56,0 c 0,0 0,-0.01 0,-0.03 z m -4.15,-27.769 c -3,3.004 -5.25,8.643 -5.25,13.131 0,3.941 1.47,6.395 4,6.395 4.07,0 7.57,-4.25 8.77,-10.475 0.28,-1.391 0.55,-2.807 0.75,-4.064 0.2,-1.258 0.32,-2.367 0.28,-3.143 -0.13,-2.658 -1.51,-4.092 -3.99,-4.092 -1.52,0 -3.09,0.786 -4.56,2.248 M 115.83,51.085 c 0.66,0 1.48,0.07 2.07,0.179 0,0 0,0.01 0,0.03 0,0.01 0,0.03 0,0.04 l -2.15,10.828 c 0,0.01 0,0.03 0,0.04 0,0.01 0,0.01 0,0.01 -0.39,-0.08 -1.01,-0.178 -1.74,-0.178 -7.59,0 -10.55,7.416 -11.7,13.547 l -2.69,14.411 c -0.01,0.03 -0.03,0.04 -0.05,0.04 l -11.06,0 c -0.01,0 -0.04,-0.01 -0.04,-0.03 -0.01,-0.01 -0.01,-0.03 -0.01,-0.05 l 7.223,-37.988 c 0,-0.03 0.03,-0.04 0.05,-0.04 l 9.717,0 c 0,0 0,0 0,0.03 0,0.01 0,0.03 0,0.03 l -1.24,6.529 c 0,0.04 0,0.107 0,0.134 0,0.03 0.12,0.01 0.16,-0.05 2.9,-4.822 6.92,-7.51 11.36,-7.51 m 121.92,0.08 c 4.6,0 7.99,1 9.63,1.925 0,0.01 0,0.04 0,0.05 l -1.59,8.322 c 0,0.01 0,0.03 0,0.04 0,0.01 0,0.01 0,0 -1.85,-1.014 -5.07,-2.094 -8.52,-2.094 -2.89,0 -4.79,1.212 -4.79,3.245 0,1.458 1.44,2.763 4.51,4.254 3.97,1.988 8.48,4.933 8.48,10.261 0,3.476 -1.16,6.384 -3.45,8.649 -3.03,3.015 -7.96,4.66 -13.9,4.614 -4.56,-0.08 -9.16,-1.258 -11.46,-2.929 0,-0.01 0,-0.03 0,-0.05 l 1.58,-8.372 c 0,-0.01 0,-0.03 0,-0.04 0,-0.01 0,0 0,0 2.47,1.548 7.32,3.217 10.9,3.217 2.76,0 4.62,-1.277 4.62,-3.324 0,-1.854 -1.3,-3.15 -4.65,-4.787 -5.29,-2.647 -7.93,-6 -7.93,-9.955 0,-7.777 6.62,-13.033 16.56,-13.033 M 56.17,82.558 c -1.599,1.112 -3.268,2.137 -4.992,3.064 -0.01,0 -0.01,0 -0.03,0 -0.03,0 -0.05,-0.03 -0.05,-0.05 -0.323,-5.077 -1.415,-9.99 -3.304,-14.078 -5.037,-10.914 -13.841,-11.756 -19.66,-1.875 -3.558,6.048 -5.179,14.712 -4.741,23.03 0,0.03 0.01,0.04 0.04,0.05 6.172,1.933 13.283,2.145 20.868,0.232 21.971,-5.6 38.78,-27.217 37.557,-48.32 C 80.783,26.075 66.16,14.095 47.726,15.207 c -0.01,0 -0.03,0 -0.04,0.01 -1.793,1.815 -3.471,3.645 -5.045,5.495 -0.01,0.01 -0.01,0.03 -0.01,0.03 0,0.03 0.03,0.05 0.05,0.05 0,0 0,0 0.01,0 10.801,-1.367 19.461,0.828 25.11,5.329 0.01,0.01 0.03,0.03 0.03,0.04 0,0.01 0,0.03 -0.01,0.03 -19.468,27.465 -17.058,43.101 -11.627,56.304 0,0.01 0,0.01 0,0.03 0,0.01 -0.01,0.04 -0.03,0.04 m 6.232,-56.979 c 0.03,0.01 0.03,0.03 0.03,0.05 0,0.01 0,0.01 0,0.01 -1.408,3.988 -3.743,8.524 -6.056,11.968 -4.877,7.237 -11.875,11.802 -15.628,10.193 -3.752,-1.608 -2.848,-8.782 2.029,-16.021 1.099,-1.626 2.302,-3.115 3.55,-4.431 0.01,-0.01 0.01,-0.03 0.01,-0.04 0,-0.03 -0.03,-0.05 -0.05,-0.05 0,0 -0.01,0 -0.01,0 -1.533,0.212 -3.086,0.514 -4.654,0.91 -0.01,0 -0.03,0.01 -0.03,0.01 C 25.128,48.391 18.12,74.618 19.084,98.015 l 0,0 c 0,0 -0.03,0 -0.05,0 0,0 -0.01,0 -0.03,0 C 9.3024,94.107 2.2084,84.729 1.4694,72.855 l -0.01,-0.138 C 0.23835,51.591 17.079,29.952 39.084,24.381 47.61,22.222 55.664,22.79 62.399,25.53 Z M 43.21,37.593 c -1.579,3.328 -0.951,6.06 1.404,6.102 2.353,0.04 5.545,-2.62 7.121,-5.946 1.58,-3.329 0.951,-6.061 -1.402,-6.103 -2.355,-0.04 -5.546,2.622 -7.123,5.947"
      /></svg>