 <svg 
   xmlns="http://www.w3.org/2000/svg"
    viewBox="0 0 340 48"
   
   height="48"
   width="340">
   
  <path
     d="m 112.56,9.5554 c -1.1,0 -2.18,0.4466 -2.92,1.1136 -0.74,0.667 -1.19,1.47 -1.53,2.285 -0.7,1.63 -1.01,3.432 -1.4,5.131 -0.39,1.698 -0.85,3.266 -1.43,4.187 -0.57,0.921 -0.91,1.233 -2.06,1.233 -2.02,0 -3.719,1.179 -4.629,2.519 -0.91,1.34 -1.345,2.797 -1.783,4.1 -0.439,1.303 -0.878,2.447 -1.334,3.072 -0.456,0.625 -0.668,0.818 -1.581,0.816 -0.766,0 -1.009,-0.197 -1.537,-0.992 -0.527,-0.795 -1.026,-2.163 -1.506,-3.652 -0.479,-1.49 -0.938,-3.092 -1.781,-4.539 -0.842,-1.447 -2.45,-2.877 -4.511,-2.877 -1.843,0 -3.441,0.92 -4.346,2.045 -0.905,1.125 -1.331,2.321 -1.758,3.326 -0.427,1.005 -0.835,1.8 -1.266,2.24 -0.43,0.441 -0.814,0.696 -1.963,0.696 a 2.0002,2.0002 0 1 0 0,4 c 2.022,0 3.734,-0.784 4.825,-1.901 1.091,-1.117 1.63,-2.399 2.086,-3.471 0.455,-1.071 0.845,-1.95 1.193,-2.382 0.348,-0.433 0.438,-0.553 1.229,-0.553 0.48,0 0.583,0.08 1.056,0.891 0.474,0.813 0.938,2.225 1.428,3.75 0.49,1.524 1.006,3.171 1.98,4.638 0.974,1.467 2.719,2.779 4.866,2.781 2.082,0 3.835,-1.114 4.816,-2.459 0.981,-1.344 1.446,-2.829 1.896,-4.154 0.44,-1.324 0.87,-2.495 1.3,-3.127 0.43,-0.631 0.55,-0.767 1.32,-0.767 2.44,0 4.41,-1.431 5.46,-3.125 1.06,-1.695 1.52,-3.616 1.93,-5.405 0.41,-1.789 0.76,-3.473 1.18,-4.459 0.21,-0.492 0.42,-0.78 0.53,-0.877 0.11,-0.1 0.1,-0.08 0.24,-0.08 0.47,0 0.58,0.08 1.06,0.924 0.48,0.845 0.95,2.299 1.44,3.862 0.49,1.562 1,3.243 1.96,4.738 0.97,1.495 2.71,2.851 4.87,2.851 1.98,0 3.64,-1.122 4.56,-2.408 0.91,-1.285 1.36,-2.684 1.81,-3.926 0.45,-1.241 0.9,-2.319 1.36,-2.91 0.46,-0.591 0.69,-0.791 1.6,-0.791 -0.15,0 0.34,0.135 0.74,0.448 0.39,0.312 0.67,0.619 0.67,0.619 a 2.0002,2.0002 0 1 0 3.01,-2.629 c 0,0 -0.49,-0.568 -1.2,-1.131 -0.72,-0.563 -1.68,-1.307 -3.22,-1.307 -2.04,0 -3.77,1.056 -4.77,2.346 -0.99,1.29 -1.49,2.721 -1.95,3.988 -0.46,1.267 -0.89,2.379 -1.32,2.975 -0.42,0.596 -0.54,0.726 -1.29,0.726 -0.74,0 -0.97,-0.19 -1.5,-1.015 -0.53,-0.826 -1.03,-2.239 -1.51,-3.77 -0.48,-1.531 -0.94,-3.172 -1.79,-4.648 -0.84,-1.476 -2.45,-2.9416 -4.53,-2.9416 z M 322.24,36.692 c -0.59,0 -1.1,-0.207 -1.53,-0.62 -0.43,-0.414 -0.64,-0.843 -0.64,-1.289 0,-0.445 0.1,-0.795 0.17,-1.049 0.12,-0.271 0.29,-0.509 0.5,-0.716 0.43,-0.43 0.93,-0.644 1.5,-0.644 l 5.27,0 c 0.97,0 1.75,-0.271 2.34,-0.811 0.59,-0.557 0.88,-1.241 0.88,-2.052 0,-0.811 -0.22,-1.463 -0.67,-1.956 -0.44,-0.509 -0.99,-0.867 -1.64,-1.074 l -4.3,-1.193 c -1.47,-0.445 -2.65,-1.272 -3.53,-2.481 -0.89,-1.224 -1.33,-2.521 -1.33,-3.888 0,-1.368 0.2,-2.498 0.59,-3.388 0.42,-0.891 0.97,-1.654 1.65,-2.29 1.42,-1.32 3.17,-1.98 5.25,-1.98 l 5.82,0 c 0.6,0 1.11,0.214 1.5,0.644 0.4,0.413 0.6,0.922 0.6,1.526 0,0.605 -0.2,1.114 -0.6,1.527 -0.39,0.398 -0.9,0.597 -1.5,0.597 l -5.37,0 c -0.81,0 -1.45,0.238 -1.91,0.715 -0.44,0.478 -0.66,1.042 -0.66,1.694 0,1.018 0.56,1.782 1.69,2.29 l 4.68,1.36 c 2.51,0.843 4.18,2.434 5.01,4.772 0.27,0.795 0.4,1.709 0.4,2.743 0,1.034 -0.21,2.02 -0.64,2.958 -0.42,0.939 -0.97,1.75 -1.67,2.434 -1.48,1.447 -3.22,2.171 -5.23,2.171 l -6.63,0 m -16.46,-20.35 c -0.69,-0.843 -1.52,-1.264 -2.51,-1.264 -0.86,0 -1.49,0.206 -1.9,0.62 -0.69,0.684 -1.03,1.423 -1.03,2.219 l 0,11.666 c 0,0.811 0.2,1.407 0.6,1.789 0.7,0.668 1.44,1.002 2.21,1.002 l 5.87,0 c 0.94,0 1.6,0.453 1.98,1.36 0.11,0.254 0.17,0.532 0.17,0.835 0,0.286 -0.1,0.564 -0.17,0.835 -0.11,0.254 -0.26,0.477 -0.45,0.668 -0.41,0.413 -0.92,0.62 -1.53,0.62 l -7.27,0 c -1.94,0 -3.61,-0.692 -4.99,-2.076 -1.38,-1.383 -2.07,-3.045 -2.07,-4.986 l 0,-11.833 c 0,-2.051 0.69,-3.706 2.07,-4.962 1.51,-1.368 3.64,-2.052 6.39,-2.052 3.71,0 6.18,0.859 7.42,2.577 0.4,0.525 0.6,1.058 0.6,1.598 0,0.525 -0.1,0.963 -0.21,1.312 -0.15,0.334 -0.35,0.629 -0.6,0.883 -0.54,0.541 -1.15,0.811 -1.84,0.811 -1.11,0 -2.03,-0.541 -2.74,-1.622 m -25.81,-2.696 c 0,-0.779 0.19,-1.384 0.59,-1.813 0.69,-0.7 1.44,-1.05 2.27,-1.05 0.79,0 1.38,0.207 1.76,0.621 0.7,0.715 1.05,1.463 1.05,2.242 l 0,20.732 c 0,0.763 -0.2,1.344 -0.59,1.741 -0.7,0.7 -1.35,1.05 -1.94,1.05 -0.58,0 -1.05,-0.08 -1.4,-0.239 -0.35,-0.143 -0.66,-0.334 -0.91,-0.572 -0.56,-0.541 -0.83,-1.201 -0.83,-1.98 l 0,-20.732 M 282.83,0 c 0.87,0 1.63,0.3181 2.26,0.9543 0.64,0.6362 0.96,1.2803 0.96,1.9324 0,0.6521 -0.1,1.169 -0.26,1.5507 -0.18,0.3817 -0.41,0.7157 -0.7,1.002 -0.63,0.6362 -1.39,0.9543 -2.26,0.9542 -0.88,10e-5 -1.63,-0.318 -2.27,-0.9542 -0.63,-0.6362 -0.95,-1.2724 -0.95,-1.9086 0,-1.0815 0.32,-1.9403 0.95,-2.5765 C 281.2,0.3181 281.95,0 282.83,0 m -12.31,32.374 c 0.6,0 1.1,0.214 1.5,0.644 0.4,0.429 0.6,0.946 0.6,1.551 0,0.588 -0.2,1.089 -0.6,1.503 -0.4,0.413 -0.9,0.62 -1.5,0.62 l -2.86,0 c -1.95,0 -3.61,-0.692 -4.99,-2.076 -1.37,-1.367 -2.05,-3.03 -2.05,-4.986 l 0,-14.171 -2.82,0 c -0.9,0 -1.55,-0.429 -1.93,-1.288 -0.11,-0.254 -0.17,-0.525 -0.17,-0.811 0,-0.907 0.43,-1.551 1.29,-1.933 0.26,-0.111 0.53,-0.167 0.81,-0.167 l 2.82,0 0,-4.9618 c 0,-1.2564 0.57,-2.1312 1.72,-2.6242 0.33,-0.1591 0.7,-0.2386 1.09,-0.2386 0.78,0 1.37,0.2068 1.77,0.6203 0.7,0.6839 1.05,1.4314 1.05,2.2425 l 0,4.9618 4.32,0 c 0.55,0 0.98,0.152 1.28,0.454 0.51,0.509 0.77,1.057 0.77,1.646 0,0.572 -0.2,1.065 -0.6,1.479 -0.4,0.414 -0.88,0.62 -1.45,0.62 l -4.32,0 0,14.124 c 0,0.795 0.2,1.383 0.62,1.765 0.7,0.684 1.43,1.026 2.19,1.026 l 1.46,0 M 245.68,11.833 c 0.42,-0.398 0.79,-0.668 1.12,-0.811 0.35,-0.159 0.72,-0.239 1.1,-0.239 0.4,0 0.77,0.07 1.12,0.215 0.35,0.143 0.66,0.342 0.91,0.596 0.56,0.557 0.83,1.217 0.83,1.981 l 0,27.363 c 0,1.957 -0.69,3.619 -2.07,4.986 C 247.27,47.308 245.6,48 243.66,48 l -4.23,0 c -0.6,0 -1.12,-0.207 -1.55,-0.62 -0.41,-0.414 -0.62,-0.923 -0.62,-1.527 0,-0.604 0.21,-1.121 0.62,-1.551 0.43,-0.413 0.95,-0.62 1.55,-0.62 l 2.82,0 c 0.81,0 1.41,-0.199 1.81,-0.597 0.68,-0.683 1.03,-1.415 1.03,-2.194 l 0,-5.177 c 0,-0.302 -0.1,-0.501 -0.27,-0.597 -0.15,-0.111 -0.31,-0.167 -0.47,-0.167 -0.16,0 -0.3,0.07 -0.43,0.215 l -0.41,0.382 c -1.08,1.081 -2.33,1.622 -3.74,1.622 -1.72,0 -3.14,-0.7 -4.27,-2.099 -1.13,-1.384 -1.7,-3.038 -1.7,-4.963 l 0,-16.532 c 0,-1.209 0.58,-2.06 1.72,-2.553 0.33,-0.159 0.69,-0.239 1.07,-0.239 0.4,0 0.78,0.07 1.13,0.215 0.34,0.143 0.65,0.342 0.9,0.596 0.56,0.557 0.84,1.217 0.84,1.981 l 0,16.461 c 0,0.779 0.2,1.376 0.59,1.789 0.67,0.7 1.3,1.05 1.89,1.05 0.59,0 1.05,-0.06 1.38,-0.167 0.35,-0.127 0.66,-0.302 0.93,-0.525 0.56,-0.477 0.84,-1.098 0.84,-1.861 l 0,-16.747 c 0,-0.78 0.2,-1.36 0.59,-1.742 m -21.4,17.75 c 0,0.811 0.2,1.407 0.6,1.789 0.7,0.668 1.44,1.002 2.22,1.002 l 0.24,0 c 0.59,0 1.04,0.159 1.36,0.477 0.54,0.541 0.81,1.034 0.81,1.479 0,0.445 -0.1,0.803 -0.17,1.074 -0.11,0.254 -0.26,0.477 -0.45,0.668 -0.45,0.413 -0.96,0.62 -1.55,0.62 l -1.65,0 c -1.94,0 -3.6,-0.692 -4.98,-2.076 -1.39,-1.383 -2.08,-3.045 -2.08,-4.986 l 0,-26.8149 c 0,-0.7952 0.2,-1.3916 0.6,-1.7893 C 219.91,0.342 220.65,0 221.44,0 c 0.82,0 1.42,0.1988 1.82,0.5964 0.68,0.684 1.02,1.4235 1.02,2.2187 l 0,26.7679 M 195.25,13.431 c 0,-0.954 0.45,-1.622 1.34,-2.004 0.25,-0.111 0.53,-0.167 0.83,-0.167 l 5.63,0 c 1.94,0 3.6,0.692 4.99,2.076 1.38,1.384 2.07,3.046 2.07,4.986 l 0,16.056 c 0,1.208 -0.57,2.059 -1.72,2.552 -0.34,0.159 -0.73,0.239 -1.14,0.239 -0.41,0 -0.77,-0.07 -1.07,-0.215 -0.29,-0.127 -0.54,-0.278 -0.74,-0.453 -0.18,-0.159 -0.35,-0.382 -0.53,-0.668 -0.17,-0.302 -0.31,-0.525 -0.4,-0.668 -0.1,-0.143 -0.25,-0.215 -0.46,-0.215 -0.2,0 -0.37,0.07 -0.5,0.215 l -0.38,0.406 c -1.07,1.065 -2.31,1.598 -3.75,1.598 -1.7,0 -3.17,-0.7 -4.41,-2.099 -1.24,-1.384 -1.86,-3.038 -1.86,-4.963 l 0,-3.292 c 0,-1.94 0.69,-3.602 2.08,-4.986 1.36,-1.368 3.03,-2.052 4.98,-2.052 l 4.25,0 0,-1.383 c 0,-0.796 -0.2,-1.392 -0.6,-1.79 -0.7,-0.699 -1.44,-1.049 -2.22,-1.049 l -4.22,0 c -0.59,0 -1.04,-0.151 -1.36,-0.454 -0.54,-0.509 -0.81,-1.065 -0.81,-1.67 m 3.55,16.629 c 0,0.811 0.2,1.407 0.6,1.789 0.7,0.668 1.34,1.002 1.93,1.002 0.59,0 1.05,-0.06 1.39,-0.167 0.35,-0.111 0.65,-0.27 0.9,-0.477 0.56,-0.446 0.84,-1.034 0.84,-1.766 l 0,-6.393 -2.82,0 c -0.81,0 -1.41,0.199 -1.81,0.596 -0.68,0.684 -1.03,1.424 -1.03,2.219 l 0,3.197 m -25.05,6.083 c -0.39,0.382 -0.77,0.644 -1.12,0.787 -0.33,0.159 -0.7,0.239 -1.09,0.239 -0.39,0 -0.75,-0.07 -1.1,-0.215 -0.34,-0.143 -0.63,-0.342 -0.88,-0.596 -0.56,-0.557 -0.84,-1.217 -0.84,-1.98 l 0,-20.732 c 0,-0.779 0.21,-1.384 0.62,-1.813 0.67,-0.7 1.31,-1.05 1.91,-1.05 0.62,0 1.07,0.07 1.36,0.215 0.3,0.127 0.56,0.278 0.76,0.453 0.31,0.255 0.51,0.517 0.62,0.788 0.13,0.254 0.24,0.445 0.34,0.572 0.1,0.127 0.24,0.191 0.43,0.191 0.2,0 0.37,-0.06 0.5,-0.191 0.12,-0.143 0.33,-0.358 0.62,-0.644 0.95,-0.922 1.99,-1.384 3.12,-1.384 1.15,0 2.1,0.191 2.87,0.573 0.76,0.366 1.42,0.875 1.98,1.527 1.22,1.383 1.83,3.038 1.83,4.962 l 0,16.533 c 0,1.208 -0.56,2.059 -1.69,2.552 -0.35,0.159 -0.72,0.239 -1.12,0.239 -0.38,0 -0.75,-0.07 -1.1,-0.215 -0.35,-0.143 -0.65,-0.342 -0.91,-0.596 -0.55,-0.557 -0.83,-1.217 -0.83,-1.98 l 0,-16.461 c 0,-0.78 -0.19,-1.376 -0.57,-1.79 -0.69,-0.7 -1.42,-1.049 -2.2,-1.049 -1.27,0 -2.15,0.493 -2.65,1.479 -0.16,0.318 -0.23,0.676 -0.23,1.073 l 0,16.748 c 0,0.779 -0.21,1.368 -0.63,1.765 M 146.39,13.431 c 0,-0.954 0.45,-1.622 1.34,-2.004 0.25,-0.111 0.53,-0.167 0.83,-0.167 l 5.63,0 c 1.94,0 3.6,0.692 4.99,2.076 1.38,1.384 2.07,3.046 2.07,4.986 l 0,16.056 c 0,1.208 -0.57,2.059 -1.71,2.552 -0.35,0.159 -0.74,0.239 -1.15,0.239 -0.41,0 -0.77,-0.07 -1.07,-0.215 -0.29,-0.127 -0.54,-0.278 -0.74,-0.453 -0.18,-0.159 -0.35,-0.382 -0.53,-0.668 -0.17,-0.302 -0.31,-0.525 -0.4,-0.668 -0.1,-0.143 -0.25,-0.215 -0.46,-0.215 -0.2,0 -0.37,0.07 -0.5,0.215 l -0.38,0.406 c -1.06,1.065 -2.31,1.598 -3.74,1.598 -1.71,0 -3.18,-0.7 -4.42,-2.099 -1.24,-1.384 -1.86,-3.038 -1.86,-4.963 l 0,-3.292 c 0,-1.94 0.69,-3.602 2.08,-4.986 1.36,-1.368 3.03,-2.052 4.98,-2.052 l 4.25,0 0,-1.383 c 0,-0.796 -0.2,-1.392 -0.6,-1.79 -0.7,-0.699 -1.44,-1.049 -2.22,-1.049 l -4.22,0 c -0.59,0 -1.04,-0.151 -1.36,-0.454 -0.54,-0.509 -0.81,-1.065 -0.81,-1.67 m 3.56,16.629 c 0,0.811 0.19,1.407 0.59,1.789 0.7,0.668 1.35,1.002 1.93,1.002 0.59,0 1.05,-0.06 1.39,-0.167 0.35,-0.111 0.65,-0.27 0.9,-0.477 0.56,-0.446 0.84,-1.034 0.84,-1.766 l 0,-6.393 -2.82,0 c -0.81,0 -1.41,0.199 -1.81,0.596 -0.68,0.684 -1.02,1.424 -1.02,2.219 l 0,3.197 m -84.882,4.318 c 0,1.208 -0.572,2.059 -1.717,2.552 -0.35,0.159 -0.732,0.239 -1.146,0.239 -0.413,0 -0.771,-0.06 -1.073,-0.191 -0.302,-0.127 -0.557,-0.27 -0.764,-0.429 -0.286,-0.255 -0.493,-0.501 -0.62,-0.74 -0.111,-0.238 -0.215,-0.437 -0.31,-0.596 -0.09,-0.175 -0.239,-0.263 -0.429,-0.263 -0.191,0 -0.358,0.07 -0.501,0.215 l -0.43,0.406 c -1.034,1.065 -2.266,1.598 -3.698,1.598 -1.717,0 -3.196,-0.7 -4.437,-2.099 -1.225,-1.368 -1.837,-3.022 -1.837,-4.963 l 0,-11.785 c 0,-1.94 0.692,-3.602 2.076,-4.986 1.383,-1.384 3.045,-2.076 4.986,-2.076 l 4.246,0 0,-8.4449 c 0,-0.7952 0.199,-1.3916 0.597,-1.7893 C 60.695,0.342 61.434,0 62.229,0 c 0.811,0 1.416,0.1988 1.813,0.5964 0.684,0.684 1.026,1.4235 1.026,2.2187 l 0,31.5629 M 53.76,30.322 c 0,0.811 0.263,1.439 0.787,1.885 0.541,0.429 1.106,0.644 1.694,0.644 0.605,0 1.074,-0.06 1.408,-0.167 0.35,-0.111 0.652,-0.27 0.906,-0.477 0.573,-0.446 0.859,-1.034 0.859,-1.766 l 0,-14.886 -2.839,0 c -0.779,0 -1.375,0.206 -1.789,0.62 -0.684,0.684 -1.026,1.423 -1.026,2.219 l 0,11.928 M 25.776,13.431 c 0,-0.954 0.445,-1.622 1.336,-2.004 0.255,-0.111 0.533,-0.167 0.835,-0.167 l 5.63,0 c 1.941,0 3.603,0.692 4.986,2.076 1.384,1.384 2.076,3.046 2.076,4.986 l 0,16.056 c 0,1.208 -0.573,2.059 -1.718,2.552 -0.35,0.159 -0.731,0.239 -1.145,0.239 -0.413,0 -0.771,-0.07 -1.073,-0.215 -0.287,-0.127 -0.533,-0.278 -0.74,-0.453 -0.175,-0.159 -0.35,-0.382 -0.525,-0.668 -0.175,-0.302 -0.31,-0.525 -0.405,-0.668 -0.1,-0.143 -0.247,-0.215 -0.454,-0.215 -0.207,0 -0.374,0.07 -0.501,0.215 l -0.381,0.406 c -1.066,1.065 -2.315,1.598 -3.746,1.598 -1.702,0 -3.173,-0.7 -4.413,-2.099 -1.241,-1.384 -1.861,-3.038 -1.861,-4.963 l 0,-3.292 c 0,-1.94 0.692,-3.602 2.075,-4.986 1.368,-1.368 3.03,-2.052 4.986,-2.052 l 4.247,0 0,-1.383 c 0,-0.796 -0.199,-1.392 -0.597,-1.79 -0.699,-0.699 -1.439,-1.049 -2.218,-1.049 l -4.223,0 c -0.588,0 -1.042,-0.151 -1.36,-0.454 -0.541,-0.509 -0.811,-1.065 -0.811,-1.67 m 3.555,16.629 c 0,0.811 0.199,1.407 0.596,1.789 0.7,0.668 1.344,1.002 1.933,1.002 0.588,0 1.049,-0.06 1.383,-0.167 0.35,-0.111 0.652,-0.27 0.907,-0.477 0.556,-0.446 0.835,-1.034 0.835,-1.766 l 0,-6.393 -2.815,0 c -0.811,0 -1.416,0.199 -1.813,0.596 -0.684,0.684 -1.026,1.424 -1.026,2.219 l 0,3.197 M 14.42,10.783 c 0.398,0 0.787,0.06 1.169,0.167 0.382,0.112 0.74,0.287 1.074,0.525 0.763,0.557 1.145,1.328 1.145,2.314 0,0.796 -0.207,1.392 -0.62,1.79 -0.716,0.683 -1.384,1.025 -2.004,1.025 -0.796,0 -1.519,-0.254 -2.171,-0.763 -0.509,-0.334 -1.082,-0.501 -1.718,-0.501 -0.636,0 -1.137,0.207 -1.503,0.62 -0.3659,0.398 -0.5488,0.907 -0.5487,1.527 l 0,16.867 c -10e-5,0.763 -0.1989,1.352 -0.5965,1.765 -0.7157,0.7 -1.3678,1.05 -1.9562,1.05 -0.5726,0 -1.0338,-0.08 -1.3837,-0.239 -0.334,-0.143 -0.6283,-0.342 -0.8827,-0.596 -0.5567,-0.557 -0.835,-1.217 -0.835,-1.98 l 0,-20.708 c 0,-0.779 0.2067,-1.384 0.6203,-1.813 0.668,-0.7 1.3041,-1.05 1.9085,-1.05 0.6203,0 1.0815,0.07 1.3837,0.215 0.3022,0.127 0.5567,0.278 0.7634,0.453 0.2863,0.255 0.4931,0.517 0.6203,0.788 0.1273,0.254 0.2306,0.445 0.3102,0.572 0.095,0.127 0.2385,0.191 0.4294,0.191 0.2067,0 0.3737,-0.06 0.501,-0.191 l 0.429,-0.405 c 1.241,-1.082 2.529,-1.623 3.865,-1.623" />
  
</svg>
