<?xml version="1.0"?>

<svg xmlns="http://www.w3.org/2000/svg" viewBox="0 0 321.6 90.9" width="321.6" height="90.9"><path d="m 115.9,40.11 0,-4.39 -6.7,0 c -8.2,0 -10.55,-0.51 -10.55,8.01 l 0,24.64 5.05,0 -0.1,-28.26 12.3,0 z m 8.2,-4.5 c 0,0 0,4.75 0,4.75 12,0 14.2,0.56 14.2,6.81 l -9.1,0 c -6.9,0 -10.8,1.29 -10.8,10.72 0,1.84 0.1,3.36 0.5,4.62 l 0,0 0,0 c 1.3,4.82 5.1,5.72 10.1,5.72 3.5,0 7.6,-0.13 9.2,-4.03 l 0,4.16 5.1,0 0,-21.74 c 0,-11.22 -7.9,-11.01 -19.2,-11.01 m 12.1,26.9 c -1.5,1.16 -3.8,1.2 -6.1,1.2 -2.5,0 -4.3,-0.1 -5.4,-1.2 l 0,0 0,0 c -0.8,-0.9 -1.2,-2.48 -1.2,-5.23 0,-5.22 1.9,-5.62 6.6,-5.59 3.5,0 8,0 8,0 l 0,6.02 c 0,2.49 -0.8,3.95 -1.9,4.81 l 0,0 0,0 z m 34.8,-38.75 0,11.85 -9.8,0 c -10.8,0 -11.9,6.79 -11.9,16.41 0,4.16 0.2,7.74 1.3,10.49 l 0,0 c 1.5,3.67 4.4,5.83 10.6,5.83 8.8,0 9.8,-4.62 9.8,-4.62 l 0,4.64 5,0 0,-44.6 -5,0 z m -2.7,38.75 c -1.2,0.81 -2.9,1.11 -5.3,1.11 -2.5,0 -4.3,-0.2 -5.5,-1.11 l 0,0 c -1.9,-1.36 -2.6,-4.27 -2.6,-10.4 0,-10.38 1.5,-11.55 8.1,-11.55 4.5,0 8,0 8,0 0,1.84 0,8.62 0,11.54 0,5.88 -0.5,8.96 -2.7,10.41 l 0,0 0,0 z m 52.9,-26.93 -4.8,0 -5.4,22.97 -7.6,-22.97 -4.1,0 -7.5,22.97 -5.7,-22.97 -5.2,0 8,32.74 4.7,0 7.6,-24.67 7.6,24.67 4.7,0 7.7,-32.74 z m 7.1,0 c 0,0 0,4.75 0,4.75 12,0 14.2,0.56 14.2,6.81 l -9.1,0 c -6.9,0 -10.8,1.29 -10.8,10.72 0,1.84 0.1,3.36 0.5,4.62 l 0,0 0,0 c 1.3,4.82 5.1,5.72 10.1,5.72 3.5,0 7.6,-0.13 9.2,-4.03 l 0,4.16 5.1,0 0,-21.74 c 0,-11.22 -7.9,-11.01 -19.2,-11.01 m 12.1,26.9 c -1.5,1.16 -3.8,1.2 -6.1,1.2 -2.5,0 -4.3,-0.1 -5.4,-1.2 l 0,0 0,0 c -0.8,-0.9 -1.2,-2.48 -1.2,-5.23 0,-5.22 1.9,-5.62 6.6,-5.59 3.5,0 8,0 8,0 l 0,6.02 c 0,2.49 -0.8,3.95 -1.9,4.81 l 0,0 0,0 z m 29.8,-22.4 0,-4.39 -6.7,0 c -8.2,0 -10.5,-0.51 -10.5,8.01 l 0,24.64 5,0 -0.1,-28.26 12.3,0 z m 16.2,-4.99 c -13.3,0 -17.5,17.69 -11.2,27.39 l 0.1,0 -0.1,0 c 2.5,3.78 6.6,6.35 12.4,6.19 5.7,-0.16 9.6,-1.92 11.3,-2.69 0,0 0,-5.26 0,-5.27 -0.8,0.53 -2.2,1.19 -4,1.76 l 0,0 c -3.7,1.24 -8.9,2.03 -12.6,0 l 0,0 c -2.8,-1.49 -4.7,-4.5 -4.7,-9.98 l 21.9,0 c 0,0 2.6,-17.42 -13.1,-17.42 m -8.8,12.75 c 0.4,-2.79 2.3,-8.3 9.1,-8.3 6.8,0 7.8,5.31 7.9,8.3 l -17,0 z M 62.83,55.33 c 3.13,0.61 5.49,3.38 5.49,6.69 0,3.78 -3.06,6.84 -6.83,6.84 -3.77,0 -6.83,-3.06 -6.83,-6.84 0,-3.31 2.37,-6.08 5.5,-6.69 l 2.67,0 z m -19.17,-0 c 0.44,-0.14 0.88,-0.14 1.33,-0.14 0.47,0 0.91,0 1.33,0.14 l -2.66,0 z m 16.5,0 c 0.44,-0.14 0.88,-0.14 1.34,-0.14 0.45,0 0.9,0 1.33,0.14 l -2.67,0 z M 54.67,28.75 c 0,-3.77 3.05,-6.83 6.83,-6.83 3.77,0 6.82,3.06 6.82,6.83 0,3.77 -3.05,6.83 -6.82,6.83 -3.78,0 -6.83,-3.06 -6.83,-6.83 M 28.82,21.92 c -3.77,0 -6.82,3.06 -6.82,6.83 0,3.77 3.05,6.83 6.82,6.83 3.77,0 6.84,-3.06 6.84,-6.83 0,-3.77 -3.07,-6.83 -6.84,-6.83 z m 0,1.95 c 2.69,0 4.88,2.19 4.88,4.88 0,2.69 -2.19,4.88 -4.88,4.88 -2.69,0 -4.88,-2.19 -4.88,-4.88 0,-2.69 2.19,-4.88 4.88,-4.88 z m 16.21,-1.95 c -3.77,0 -6.84,3.06 -6.84,6.83 0,3.77 3.07,6.83 6.84,6.83 3.77,0 6.82,-3.06 6.82,-6.83 0,-3.77 -3.05,-6.83 -6.82,-6.83 z m 0,1.95 c 2.69,0 4.87,2.19 4.87,4.88 0,2.69 -2.18,4.88 -4.87,4.88 -2.69,0 -4.88,-2.19 -4.88,-4.88 0,-2.69 2.19,-4.88 4.88,-4.88 z m 33,14.66 c -3.77,0 -6.83,3.06 -6.83,6.83 0,3.77 3.06,6.84 6.83,6.84 3.78,0 6.83,-3.07 6.83,-6.84 0,-3.77 -3.05,-6.83 -6.83,-6.83 z m 0,1.96 c 2.7,0 4.88,2.18 4.88,4.87 0,2.71 -2.18,4.88 -4.88,4.88 -2.69,0 -4.87,-2.17 -4.87,-4.88 0,-2.69 2.18,-4.87 4.87,-4.87 z m -23.36,4.87 c 0,-3.77 3.05,-6.83 6.83,-6.83 3.77,0 6.82,3.06 6.82,6.83 0,3.77 -3.05,6.84 -6.82,6.84 -3.78,0 -6.83,-3.07 -6.83,-6.84 m 16.5,-16.61 c 0,-3.77 3.06,-6.83 6.83,-6.83 3.77,0 6.83,3.06 6.83,6.83 0,3.77 -3.06,6.83 -6.83,6.83 -3.77,0 -6.83,-3.06 -6.83,-6.83 M 43.66,55.33 c -3.14,0.61 -5.5,3.38 -5.5,6.69 0,3.78 3.06,6.84 6.83,6.84 3.77,0 6.83,-3.06 6.83,-6.84 0,-3.31 -2.36,-6.08 -5.5,-6.69 l -2.66,0 z m 1.33,1.82 c 2.69,0 4.88,2.18 4.88,4.87 0,2.7 -2.19,4.88 -4.88,4.88 -2.69,0 -4.88,-2.18 -4.88,-4.88 0,-2.69 2.19,-4.87 4.88,-4.87 z"></path> </svg>