<?xml version="1.0"?>

  <svg xmlns="http://www.w3.org/2000/svg" width="420px" height="334px" viewBox="0 0 420 534">
<path d="m 260.3,35.83 7,16.65 21.7,0.48 -4.6,-15.19 -24.1,-1.94 z m -58.9,11.58 -20,11.83 2.6,2.84 0,0 14,15.27 5.6,-3.58 12.1,-7.78 -14.3,-18.58 z m 149,10.14 0,9.41 13.1,8.11 6.4,3.97 0.7,-7 -14.8,-10.59 0,-0 -5.4,-3.89 z m -70.1,3.28 C 207.9,61.9 87.4,133.6 69.62,396.6 l 175.08,0 C 205.4,294.9 210,218.2 237,166.2 261.7,118.5 294.1,98.86 328.4,98.9 l 0,0 c 19.1,0 38.8,6.18 58,16.98 l 0,-0.1 c 1,0.5 1.9,1.1 2.8,1.6 1.9,-4.6 4.6,-10.4 4.6,-10.4 -8.3,-7.98 -16.5,-14.84 -25,-20.64 -0.3,-0.21 -0.6,-0.43 -0.9,-0.63 -0.6,-0.41 -1.2,-0.8 -1.8,-1.2 -0.2,-0.17 -0.5,-0.35 -0.8,-0.53 -0.7,-0.43 -1.3,-0.86 -2,-1.28 -0.2,-0.11 -0.3,-0.22 -0.5,-0.33 -0.8,-0.47 -1.6,-0.94 -2.3,-1.4 -20.7,-12.3 -43.5,-18.6 -73.3,-20.05 -2.2,-0.11 -4.5,-0.15 -6.9,-0.11 z m -154.9,44.07 -15.5,21 24.4,15.2 13.3,-19.8 -22.2,-16.4 z m 223,4.2 0.5,9.3 14.8,0.7 0.2,-6.9 -15.5,-3.1 z m -41.9,2.9 -14.1,5.3 6.5,15.6 12.1,-6.6 -4.5,-14.3 z m -43.8,28.9 -9.9,11.7 13.3,18.3 8.2,-12 -11.6,-18 z m -27.8,53.6 -5,17 17.9,16.5 4.4,-15.9 -17.3,-17.6 z m -166,0.4 -9.42,27.5 28.49,10.6 8.68,-26 -27.75,-12.1 z m 155.3,63.3 0.4,19.4 26.1,11.9 -2.7,-18.6 -23.8,-12.7 z m -188.53,48.1 -7.85,29.7 0,0 -1,3.8 33.95,3.9 7.41,-31.6 -32.51,-5.8 z m 198.93,32.9 8,23 30.5,2.6 -8.2,-19.9 -30.3,-5.7 z m -93.4,86 c -9.5,0 -19.4,8.8 -19.4,20.2 l 0,57.2 20.6,0 0,-15.1 18.5,0 0,15.1 20.9,0 0,-57.4 c 0,-11.2 -10.2,-20 -21.6,-20 l -19,0 z m 62.9,0.2 0,77.5 20.7,0 0,-77.5 -20.7,0 z m 43.2,0 0,77.5 51.8,0 0,-20.8 -31.1,0 0,-56.7 -20.7,0 z m 84.8,0.1 c -12.4,0 -21,9.9 -21,19.8 l 0,8.2 c 0,12 10.8,20.3 20.8,20.3 l 18.7,0 0,9.4 -38.1,0 0,19.6 37.6,0 c 11.2,0 21.4,-8.5 21.4,-18.7 l 0,-10.3 c 0,-12.4 -9.9,-20.6 -19.1,-20.6 l -20.2,0 0,-8.5 35.4,0 0,-19.2 -35.5,0 z m -292.89,0.1 0,77.4 20.92,0 0,-22.6 16.9,22.6 25.07,0 -19.61,-26.1 c 0,0 17.06,-3.4 17.06,-19.1 l 0,-12.9 c 0,-6.9 -6.87,-19.3 -19.43,-19.3 l -40.91,0 z m 20.76,20.4 18.99,0 0,15.6 -18.99,0 0,-15.6 z m 82.43,0 18.5,0 0,20.8 -18.5,0 0,-20.8 z">
</path>
</svg>