<svg 
   xmlns="http://www.w3.org/2000/svg"
   viewBox="0 0 177 70" 
   height="70"
   width="177">
 
  <path
     d="m 137.3,20.89 c 7.9,0 14.1,6.25 14.1,14.11 0,7.86 -6.2,14.11 -14.1,14.11 -7.9,0 -14.1,-6.25 -14.1,-14.11 0,-7.86 6.2,-14.11 14.1,-14.11 z m 0,-12.969 c -14.9,0 -27.1,12.199 -27.1,27.079 0,14.88 12.2,27.08 27.1,27.08 14.9,0 27.1,-12.2 27.1,-27.08 0,-14.88 -12.2,-27.079 -27.1,-27.079 z m -76.53,0.399 0,11.55 14.88,0 c 3.09,0 5.94,0.31 8.31,1.13 2.06,0.72 3.84,1.68 5.05,2.85 1.12,1.07 2.19,2.7 2.84,4.42 0.68,1.77 1.04,4.12 1.03,6.53 0,2.32 -0.34,4.63 -1.01,6.4 -0.67,1.79 -1.75,3.48 -2.89,4.62 -1.28,1.28 -3.08,2.33 -5.09,3.08 -2.34,0.87 -5.12,1.22 -8.06,1.21 l -2.29,0 0,-15.01 -12.97,0 0,26.58 12.97,0 2.99,0 c 4.24,0 8.77,-0.39 13.26,-1.88 3.42,-1.13 6.99,-2.82 10.08,-5.58 2.73,-2.44 4.83,-5.45 6.23,-8.75 1.5,-3.53 2,-7.2 2,-10.65 l 0,0 c 0,-3.48 -0.5,-7.24 -2.1,-10.87 -1.4,-3.29 -3.5,-6.26 -6.28,-8.63 -3.16,-2.73 -6.75,-4.27 -10.08,-5.3 -4.51,-1.407 -9,-1.7 -13.15,-1.7 l -0.84,0 z m -48.13,0 0,11.55 20.87,0 c 4.44,0 6.87,0.99 8.03,2 l 0,0 0,0 c 1.28,1.1 1.89,2.23 1.89,5.12 0,1.5 -0.23,2.67 -0.61,3.66 l 0,0 0,0 c -0.33,0.87 -0.75,1.47 -1.41,2.06 l 0,0 0,0 c -0.46,0.43 -1.78,1.2 -2.91,1.58 -1.35,0.46 -3.06,0.68 -4.97,0.68 l -1.08,0 -19.8,0 0,26.58 12.96,0 0,-15.04 6.84,0 0.75,0 c 2.1,0.9 4.02,2.23 5.55,3.9 2.04,2.21 3.45,5.04 4.03,8 0.19,1.03 0.29,2.09 0.3,3.14 l 7.21,0 0,0 7.98,0 c 0,-1.63 -0.23,-3.26 -0.67,-4.84 C 56.09,51.2 52.05,46.7 46.83,44.53 c 1.84,-0.75 3.63,-1.75 5.3,-3.18 l 0,0 c 2.08,-1.75 3.73,-4 4.76,-6.51 l 0,0 C 57.92,32.44 58.4,29.75 58.4,27 58.4,21.58 56.17,16.29 52.01,12.97 47.75,9.537 42.17,8.32 35.79,8.32 l -2.28,0 z"  />
</svg>
