<?xml version="1.0"?>

<!-- Generator: Adobe Illustrator 18.0.0, SVG Export Plug-In . SVG Version: 6.00 Build 0)  -->

<svg xmlns:dc="http://purl.org/dc/elements/1.1/" xmlns:cc="http://creativecommons.org/ns#" xmlns:rdf="http://www.w3.org/1999/02/22-rdf-syntax-ns#" xmlns:svg="http://www.w3.org/2000/svg" xmlns="http://www.w3.org/2000/svg" xmlns:sodipodi="http://sodipodi.sourceforge.net/DTD/sodipodi-0.dtd" xmlns:inkscape="http://www.inkscape.org/namespaces/inkscape" version="1.1" id="Layer_1" x="0px" y="0px" width="337.09985" height="365.54358" viewBox="0 0 337.09985 365.54358" enable-background="new 0 0 612 792" xml:space="preserve" inkscape:version="0.91+devel+osxmenu r12922" sodipodi:docname="Red_Hat_atomic.svg"><defs id="defs4202"></defs><sodipodi:namedview pagecolor="#ffffff" bordercolor="#666666" borderopacity="1" objecttolerance="10" gridtolerance="10" guidetolerance="10" inkscape:pageopacity="0" inkscape:pageshadow="2" inkscape:window-width="721" inkscape:window-height="480" id="namedview4200" showgrid="false" fit-margin-top="12" fit-margin-left="12" fit-margin-bottom="12" fit-margin-right="12" inkscape:zoom="0.75375224" inkscape:cx="168.54934" inkscape:cy="182.77133" inkscape:window-x="0" inkscape:window-y="23" inkscape:window-maximized="0" inkscape:current-layer="Layer_1"></sodipodi:namedview><path d="m 258.11547,12.00257 c -17.30563,-0.29543 -51.39258,24.89649 -87.91602,64.3418 0,0 -0.61732,0.71369 -1.74805,1.94141 -0.94617,-1.02332 -1.65234,-1.74219 -1.65234,-1.74219 -0.59718,-0.68249 -1.20596,-1.29983 -1.86523,-1.96094 -8.58035,-9.15494 -17.05611,-17.61498 -25.09376,-25.00586 0.37768,-1.44429 0.66016,-2.89121 0.66016,-4.43164 0.1,-9.1 -7.10156,-16.30078 -16.10156,-16.30078 -3.28718,0 -6.35061,0.98737 -8.91406,2.67969 0.5213,-0.3524 1.05647,-0.68639 1.61523,-0.98047 -21,-15.7 -37.60039,-22.2992195 -45.40039,-16.19922 -10.9,8.5 -1.7,39.8 21,79.5 0.3,0.4 0.60078,0.79922 0.80078,1.19922 1.3,2 4.19883,2.90039 6.29883,1.40039 2.3,-1.5 1.80117,-4.5 1.20117,-5.5 -18.4,-31.3 -26.70039,-55.20039 -19.40039,-60.90039 4.49934,-3.49948 14.29745,0.3992 27.39453,9.99609 -0.51062,1.57492 -0.79492,3.25298 -0.79492,5.00391 0,8.9 7.19922,16.20117 16.19922,16.20117 2.7,0 5.20039,-0.70078 7.40039,-1.80078 -0.10713,-0.24105 -0.19695,-0.48164 -0.27539,-0.72461 0.0558,0.14449 0.10869,0.2916 0.17578,0.42578 7.75414,7.31356 15.99395,15.76651 24.54297,25.04883 l -0.043,0.0508 3.55469,3.85156 c -7.49319,8.49357 -16.96398,19.56044 -21.35547,25.54883 -15,19.1 -28.2,37.99922 -39,55.69922 -41.3,-4.7 -69.1,-13.40039 -69,-23.40039 0,-10.2 29.4,-19 72.5,-23.5 0.5,-0.1 0.80078,-0.19922 1.30078,-0.19922 2.3,-0.4 3.50039,-2.60039 3.40039,-4.40039 0,-2.3 -1.70039,-4.6 -4.90039,-4.5 -53.5,6 -90.59922,19.2 -90.69922,34.5 -0.1,14.4 32.39844,26.9 80.39844,33.5 -22.5,39.4 -31.49961,70.40039 -20.59961,78.90039 7.9,6.2 25.09961,-0.69961 46.59961,-17.09961 l 0.0371,0 c -0.0131,0.0664 -0.0238,0.1328 -0.0371,0.19922 l -0.0996,0 c 1.8,1 3.8,1.5 6,1.5 6.9,0 12.5,-5.6 12.5,-12.5 0.1,-6.8 -5.50039,-12.40039 -12.40039,-12.40039 -6.9,0 -12.5,5.6 -12.5,12.5 0,1.45957 0.28804,2.82355 0.67187,4.09375 -13.33476,9.83057 -23.38578,13.9945 -27.87109,10.40625 -6.5854,-5.18051 -0.36594,-25.09138 14.71875,-52.20899 l 0.082,0.01 c 2.1,-3.7 4.29922,-7.59961 6.69922,-11.59961 l -0.0566,-0.008 c 0.0192,-0.0319 0.0374,-0.0618 0.0566,-0.0937 18.6,2 39.09922,3.10117 60.69922,3.20117 l 0.90039,0 0.70117,0 0.19922,0 0.19922,0 0.70117,0 0.90039,0 c 21.5,-0.1 42.09922,-1.20117 60.69922,-3.20117 0.0143,0.0237 0.0267,0.0466 0.041,0.0703 l -0.24024,0.0312 c 2.3,3.9 4.49961,7.69883 6.59961,11.29883 l 0.19922,-0.0254 c 15.21195,27.29566 21.51128,47.41297 14.90039,52.52539 -7.7,6 -31.09961,-9.8 -59.59961,-38.5 -0.5,-0.5 -1.10078,-1.09961 -1.80078,-1.59961 -1.8,-1.3 -4.29922,-0.99961 -5.69922,0.40039 -2.2,2.2 -1.50117,5.09922 -0.20117,6.19922 36.6,36.3 68.50117,56.00078 80.20117,46.80078 9.56325,-7.4882 3.13177,-33.48212 -14.73242,-67.49609 l 0.0312,-0.004 c -1.88492,-3.67063 -3.96748,-7.44112 -6.14844,-11.30859 5.48094,-0.69906 10.66407,-1.595 15.64844,-2.49219 1.4,-1.3 2.30078,-3.19883 2.30078,-5.29883 0,-2.49968 -1.30177,-4.66885 -3.2207,-5.92383 2.01332,1.23876 3.32031,3.46113 3.32031,6.02344 0,2.1 -0.89883,3.99883 -2.29883,5.29883 3.8,6.1 10.49961,10.20117 18.09961,10.20117 11.8,0 21.29883,-9.60078 21.29883,-21.30078 0.1,-11.9 -9.49883,-21.40039 -21.29883,-21.40039 -11.37552,0 -20.75789,8.96266 -21.29492,20.22851 -0.0354,-0.009 -0.0699,-0.0193 -0.10547,-0.0273 -6.06255,0.99386 -12.62012,1.88729 -19.57227,2.68359 -0.88169,-1.46127 -1.85171,-2.91928 -2.72851,-4.2832 l -0.0781,0.01 C 224.53797,148.77206 212.293,131.30789 198.50014,113.74498 195.4775,109.6232 190.02873,103.09031 184.49428,96.65123 l 0.006,-0.006 c -0.38192,-0.44303 -0.74579,-0.86473 -1.12305,-1.30273 -0.22963,-0.26601 -0.44648,-0.52022 -0.67578,-0.78516 -1.85108,-2.14864 -3.66533,-4.24931 -5.40234,-6.21289 l -0.0137,0.0137 c -0.0594,-0.0674 -0.1264,-0.14585 -0.18555,-0.21289 l 0.0996,-0.10167 c 36.6,-40.7 68.89922,-65.49922 78.19922,-58.19922 7.2,5.6 -0.99844,29.50039 -19.39844,60.90039 -0.6,1 -1.10078,4 1.19922,5.5 2.2,1.5 5.10078,0.69961 6.30078,-1.40039 0.2,-0.3 0.49922,-0.79961 0.69922,-1.09961 22.7,-39.7 31.9,-71 21,-79.5 -1.87031,-1.4625 -4.25216,-2.19384 -7.08398,-2.24219 z M 114.72289,32.07289 c -0.12002,0.0896 -0.2439,0.17476 -0.36133,0.26757 0.117,-0.0937 0.24183,-0.1769 0.36133,-0.26757 z m 53.77734,66.07226 c 0.6,0.7 1.19922,1.4 1.69922,2 5.9,6.9 11.90039,14.19883 17.90039,21.79883 13.4,17 25.19961,33.6 35.09961,49 -16.4,1.4 -34.79961,2.20078 -54.09961,2.30078 l -0.5,0 -0.5,0 c -19.3,0 -37.70078,-0.80078 -54.30078,-2.30078 0.46935,-0.73009 0.96509,-1.47554 1.44336,-2.21094 0.38147,-0.56273 0.76666,-1.12671 1.15625,-1.68945 l -0.0508,-0.006 c 9.37397,-14.2893 20.36463,-29.51747 32.55078,-45.09375 6,-7.6 12.00039,-14.89883 17.90039,-21.79883 0.6,-0.7 1.20117,-1.4 1.70117,-2 z m 66,15.39844 c -3.2,-0.1 -4.90039,2.2 -4.90039,4.5 -0.1,1.8 1.20039,4.00039 3.40039,4.40039 0.4,0.1 0.79883,0.20117 1.29883,0.20117 43.1,4.5 72.4,13.3 72.5,23.5 0,3.6 -3.59922,6.99922 -10.19922,10.19922 2.1,3.3 3.40039,7.3 3.40039,11.5 0,0.3 -0.002,0.7 -0.10156,1 16,-6 25.20117,-13.20078 25.20117,-20.80078 0,-15.4 -37.19961,-28.5 -90.59961,-34.5 z m -86.20898,92.6875 c -0.79043,0.0639 -1.55391,0.325 -2.19141,0.8125 -0.7,0.5 -1.30078,1.20156 -1.80078,1.60156 -4.7,4.7 -9.2,9 -13.5,13 2.6,1.5 4.59961,3.99844 5.59961,6.89844 5.1,-4.6 10.40078,-9.49844 15.80078,-14.89844 1.2,-1.1 2.00078,-4.10117 -0.19922,-6.20117 -1,-0.875 -2.3916,-1.31934 -3.70898,-1.21289 z m 150.00781,124.3125 c -1.5,0 -2.8,0.20078 -4,0.80078 -1.2,0.5 -2.19961,1.30078 -3.09961,2.30078 -0.8,1 -1.5,2.19961 -2,3.59961 -0.5,1.4 -0.69922,2.89961 -0.69922,4.59961 0,1.7 0.19922,3.29922 0.69922,4.69922 0.5,1.4 1.1,2.60156 2,3.60156 0.8,1 1.8,1.79883 3,2.29883 1.1,0.5 2.50039,0.80078 3.90039,0.80078 2,0 3.7,-0.40078 5,-1.30078 1.3,-0.9 2.29961,-2.09922 3.09961,-3.69922 l -3.69922,-2.20117 c -0.5,0.9 -1.20078,1.70156 -1.80078,2.10156 -0.7,0.5 -1.5,0.69922 -2.5,0.69922 -0.8,0 -1.59922,-0.1 -2.19922,-0.5 -0.6,-0.4 -1.20156,-0.9 -1.60156,-1.5 -0.4,-0.6 -0.8,-1.39922 -1,-2.19922 -0.2,-0.8 -0.29883,-1.70117 -0.29883,-2.70117 0,-1 0.0988,-1.89883 0.29883,-2.79883 0.2,-0.9 0.6,-1.60117 1,-2.20117 0.4,-0.6 0.90156,-1.10039 1.60156,-1.40039 0.7,-0.3 1.39922,-0.5 2.19922,-0.5 1,0 1.9,0.20156 2.5,0.60156 0.7,0.5 1.19961,0.99883 1.59961,1.79883 l 4,-2 c -0.4,-0.7 -0.79883,-1.4 -1.29883,-2 -0.5,-0.6 -1.10117,-1.1 -1.70117,-1.5 -0.6,-0.4 -1.39922,-0.8 -2.19922,-1 -0.8,-0.3 -1.80078,-0.40039 -2.80078,-0.40039 z m -62.19922,0.10156 c -1.5,0 -2.8,0.29883 -4,0.79883 -1.2,0.5 -2.19961,1.20117 -3.09961,2.20117 -0.9,1 -1.5,2.19961 -2,3.59961 -0.5,1.4 -0.70117,2.99883 -0.70117,4.79883 0,1.8 0.20117,3.40078 0.70117,4.80078 0.5,1.3 1.2,2.5 2,3.5 0.8,0.9 1.8,1.69922 3,2.19922 1.1,0.5 2.49844,0.80078 3.89844,0.80078 1.4,0 2.70039,-0.30078 3.90039,-0.80078 1.2,-0.5 2.19961,-1.19922 3.09961,-2.19922 0.9,-1 1.5,-2.19961 2,-3.59961 0.4,-1.4 0.70078,-3.00078 0.80078,-4.80078 0,-1.8 -0.19922,-3.39883 -0.69922,-4.79883 -0.5,-1.3 -1.2,-2.5 -2,-3.5 -0.8,-0.9 -1.8,-1.70117 -3,-2.20117 -1.2,-0.5 -2.50039,-0.79883 -3.90039,-0.79883 z m 30.79883,0.19922 -4.39844,10 c -0.3,0.6 -0.60039,1.3 -0.90039,2 -0.2,0.7 -0.49961,1.29922 -0.59961,1.69922 -0.1,-0.2 -0.20078,-0.39922 -0.30078,-0.69922 -0.1,-0.3 -0.30039,-0.60039 -0.40039,-0.90039 -0.1,-0.3 -0.30039,-0.6 -0.40039,-1 -0.1,-0.4 -0.29844,-0.7 -0.39844,-1 l -4.60156,-10 -4.19922,0 0,22 4.30078,0 0,-8.09961 0,-1.09961 0,-1.40039 0,-1.40039 0,-0.90039 c 0.2,0.5 0.39922,1.00117 0.69922,1.70117 0.3,0.7 0.60039,1.4 0.90039,2 l 4.40039,9.79883 4.5,-9.79883 c 0.3,-0.6 0.59844,-1.3 0.89844,-2 0.3,-0.7 0.50117,-1.30117 0.70117,-1.70117 l 0,0.90039 0,1.40039 0,1.40039 0,1.09961 0,8 4.09961,0 0,-22 -4.30078,0 z m -235.29883,0.0996 0,22 4.40039,0 0,-7.90039 4.39844,0 3.90039,7.90039 4.90039,0 -4.19922,-8.5 c 1.4,-0.5 2.49922,-1.30039 3.19922,-2.40039 0.7,-1.1 1.09961,-2.39961 1.09961,-4.09961 0,-1.2 -0.19961,-2.19961 -0.59961,-3.09961 -0.4,-0.9 -0.89961,-1.59922 -1.59961,-2.19922 -0.7,-0.6 -1.50039,-1.00078 -2.40039,-1.30078 -0.9,-0.3 -1.90039,-0.40039 -2.90039,-0.40039 l -10.19922,0 z m 23.29883,0 0,22 15.70117,0 0,-4.29883 -11.30078,0 0,-5.30078 6.30078,0 0,-4.30078 -6.30078,0 0,-3.79883 10.90039,0 0,-4.30078 -15.30078,0 z m 21.40039,0 0,22 6.59961,0 c 1.4,0 2.80156,-0.19961 4.10156,-0.59961 1.3,-0.5 2.49961,-1.1 3.59961,-2 1,-0.9 1.9,-2.00039 2.5,-3.40039 0.7,-1.4 1,-3 1,-5 0,-2 -0.20078,-3.69961 -0.80078,-5.09961 -0.6,-1.4 -1.29883,-2.50039 -2.29883,-3.40039 -1,-0.9 -2.2,-1.50039 -3.5,-1.90039 -1.3,-0.4 -2.70078,-0.59961 -4.30078,-0.59961 l -6.90039,0 z m 33.20117,0 0,22 4.39844,0 0,-9.19922 9,0 0,9.19922 4.40039,0 0,-22 -4.40039,0 0,8.40039 -9,0 0,-8.40039 -4.39844,0 z m 31.29883,0 -8.40039,22 4.70117,0 1.69922,-4.90039 8,0 1.70117,4.90039 5,0 -8.40039,-22 -4.30078,0 z m 52.30078,0 -8.40039,22 4.69922,0 1.70117,-4.90039 8,0 1.69922,4.90039 5,0 -8.40039,-22 -4.29883,0 z m 85.29883,0 0,22 4.40039,0 0,-22 -4.40039,0 z m -124.5,0.0996 0,4.30078 6.30078,0 0,17.69922 4.40039,0 0,-17.69922 6.29883,0 0,-4.30078 -17,0 z m 52.40039,0 0,4.30078 6.30078,0 0,17.69922 4.40039,0 0,-17.69922 6.29883,0 0,-4.30078 -17,0 z m 29.5,4 c 1.6,0 2.80078,0.60078 3.80078,1.80078 1,1.2 1.50039,2.99922 1.40039,5.19922 0,2.2 -0.50039,3.90156 -1.40039,5.10156 -0.9,1.2 -2.20117,1.79883 -3.70117,1.79883 -1.6,0 -2.79883,-0.59883 -3.79883,-1.79883 -0.9,-1.2 -1.40039,-3.00117 -1.40039,-5.20117 0,-2.2 0.50039,-3.89961 1.40039,-5.09961 0.9,-1.2 2.19922,-1.80078 3.69922,-1.80078 z m -155.09961,0.20119 2.30078,0 c 2.3,0 4,0.59922 5,1.69922 1.1,1.2 1.59961,2.8 1.59961,5 0,1 -0.10039,1.90117 -0.40039,2.70117 -0.2,0.8 -0.69922,1.49961 -1.19922,2.09961 -0.6,0.6 -1.20156,1.10039 -2.10156,1.40039 -0.8,0.3 -1.8,0.5 -3,0.5 l -2.19922,0 0,-13.40039 z m -44.80078,0.0996 5.80078,0 c 1,0 1.70078,0.19961 2.30078,0.59961 0.6,0.4 0.89844,1.20117 0.89844,2.20117 0,1.9 -1.09922,2.79883 -3.19922,2.79883 l -5.80078,0 0,-5.59961 z m 106.90039,1.19922 c 0.1,0.4 0.3,0.9 0.5,1.5 0.2,0.6 0.39961,1.30039 0.59961,1.90039 l 1.40039,4 -5,0 1.40039,-4 c 0.2,-0.7 0.39961,-1.30039 0.59961,-1.90039 0.2,-0.6 0.4,-1.1 0.5,-1.5 z m 52.30078,0 c 0.1,0.4 0.3,0.9 0.5,1.5 0.2,0.6 0.39961,1.30039 0.59961,1.90039 l 1.40039,4 -5,0 1.40039,-4 c 0.2,-0.7 0.39961,-1.30039 0.59961,-1.90039 0.2,-0.6 0.4,-1.1 0.5,-1.5 z" id="path4146" inkscape:connector-curvature="0"></path><metadata id="metadata4247"><rdf:rdf><cc:work rdf:about=""><dc:title></dc:title></cc:work></rdf:rdf></metadata></svg>