<svg xmlns="http://www.w3.org/2000/svg" viewBox="0 0 398.4 135">
  <path  d="m 390.4,97.65 c 0,1.4 -1.2,2.45 -2.6,2.45 -1.3,0 -2.6,-1.05 -2.6,-2.45 0,-1.36 1.3,-2.54 2.6,-2.54 1.4,0 2.6,1.18 2.6,2.54 z m 0.6,0 c 0,-1.74 -1.4,-3.11 -3.2,-3.11 -1.7,0 -3.1,1.37 -3.1,3.11 0,1.7 1.4,3.05 3.1,3.05 1.8,0 3.2,-1.35 3.2,-3.05 m -3.2,-0.2 c 0.5,0 0.8,0 0.8,-0.5 0,-0.48 -0.3,-0.48 -0.7,-0.48 l -0.6,0 0,0.98 z m -0.5,0.3 0,1.5 -0.5,0 0,-3.25 1.2,0 c 0.7,0 1.1,0.29 1.1,0.95 0,0.6 -0.4,0.8 -0.8,0.8 l 0.9,1.5 -0.5,0 -0.9,-1.5 -0.5,0 m -21.5,-47.54 0,7.76 -7,0 0,3.39 7,0 0,26.59 c 0,4.33 0.7,7.96 2.6,10.1 1.7,1.95 4.2,2.95 7.2,2.95 2.7,0 4.5,-0.4 5.9,-1 L 381,96.85 c -1.1,0.4 -2.6,0.7 -4.8,0.7 -4.5,0 -6.2,-3.29 -6.2,-8.75 l 0,-27.44 11.9,0 0,-3.39 -11.9,0 0,-9.3 z m -16.5,36.42 c 0,0.75 -0.2,1.7 -0.5,2.54 -1.4,4.15 -5.5,8.48 -12.5,8.48 -4.4,0 -8.4,-2.64 -8.4,-8.85 0,-10.06 12.1,-11.46 21.4,-11.19 z m 4,3.49 0,-16.43 C 353.3,66.14 351.1,57 338.8,57 c -3.8,0 -8.5,1.04 -12.2,3.65 l 1.3,3.03 c 3,-2.14 6.8,-3.14 10.4,-3.14 10,-0.1 11,8.26 11,12.43 l 0,1.13 c -17.3,-0.18 -25.8,5.65 -25.8,15.36 0,5.74 3.9,11.54 12.4,11.54 6.7,0 11.4,-3.65 13.4,-6.83 l 0.2,0 0.6,5.93 3.9,0 c -0.5,-3.15 -0.7,-6.59 -0.7,-9.98 m -37.4,-15.41 0,25.39 -4.1,0 0,-24.92 c 0,-7.61 -2.9,-14.53 -11.6,-14.53 -6,0 -10.9,4.31 -12.7,9.55 -0.5,1.25 -0.7,2.45 -0.7,4.17 l 0,25.73 -4.1,0 0,-55.55 4.1,1.24 0,19.72 0.3,0 c 1.1,-2.34 3.1,-4.61 5.6,-6.08 2.5,-1.49 5.3,-2.43 8.5,-2.43 4.1,0 14.7,2 14.7,17.71 z m -42.8,13.62 c 0,4.33 0.1,8.92 0.3,11.77 l -9.5,0 -0.5,-6.59 -0.1,0 c -2.6,4.74 -7.6,7.49 -13.7,7.49 -10.1,0 -18,-8.53 -18,-21.4 -0.1,-14.16 8.7,-22.55 18.8,-22.55 5.8,0 9.9,2.38 11.8,5.49 l 0.3,0 0,-23.77 10.6,3 z M 262.5,75.56 c 0,-0.85 -0.1,-1.91 -0.3,-2.78 -1,-4.1 -4.4,-7.48 -9.2,-7.48 -6.8,0 -10.7,6.05 -10.7,13.91 0,7.7 3.9,13.36 10.6,13.36 4.3,0 8.2,-3.02 9.2,-7.64 0.3,-0.93 0.4,-1.87 0.4,-3.04 z m -64,-1.03 c 0.5,-4.33 3.2,-10.27 9.8,-10.27 7.2,0 8.9,6.36 8.9,10.27 z m 0,7.36 28.3,0.1 c 0.2,-0.97 0.4,-2.53 0.4,-4.5 C 227.2,68.27 222.7,57 209,57 c -13.6,0 -20.6,11 -20.6,22.62 0,12.85 8,21.28 21.7,21.28 6.2,0 11.1,-1.15 14.7,-2.65 l -1.6,-7.29 c -3.2,1.13 -6.7,1.89 -11.6,1.89 -6.7,0 -12.7,-3.3 -13.1,-10.94 m -36.5,18.19 10.7,0 0,-21.79 c 0,-1.15 0,-2.28 0.3,-3.21 1,-4.83 4.4,-8.05 9.5,-8.05 1.3,0 2.2,0.1 3.2,0.29 l 0,-10.04 c -0.8,-0.23 -1.4,-0.23 -2.5,-0.23 -4.5,0 -9.4,3.03 -11.5,8.96 l -0.4,0 -0.4,-8.01 -9.1,0 c 0.2,3.76 0.3,7.91 0.3,13.55 z m -28.7,-2.45 c 0,1.4 -1.2,2.45 -2.6,2.45 -1.4,0 -2.5,-1.05 -2.5,-2.45 0,-1.46 1.1,-2.54 2.5,-2.54 1.4,0 2.6,1.08 2.6,2.54 z m 0.5,0 c 0,-1.74 -1.4,-3.11 -3.1,-3.11 -1.7,0 -3.1,1.37 -3.1,3.11 0,1.7 1.4,3.05 3.1,3.05 1.7,0 3.1,-1.35 3.1,-3.05 m -3.1,-0.2 c 0.4,0 0.8,-0.1 0.8,-0.5 0,-0.48 -0.4,-0.48 -0.7,-0.48 l -0.7,0 0,0.98 z m -0.6,0.3 0,1.5 -0.5,0 0,-3.25 1.3,0 c 0.7,0 1,0.29 1,0.95 0,0.6 -0.2,0.8 -0.7,0.8 l 0.8,1.5 -0.5,0 -0.8,-1.5 -0.6,0" />
  <path class="only-light-background"  d="M 69.25,6.142 C 35.28,6.142 7.721,33.69 7.721,67.67 c 0,6.88 1.13,13.48 3.209,19.62 l 4.28,0 c 3.8,0 7.32,-0.85 10.28,-2.45 0.75,-0.38 1.59,-0.56 2.49,-0.56 1.89,0 3.51,0.65 4.55,2.35 0.88,1.6 1.71,2.45 2.73,3.11 0.87,0.56 2.08,1.04 3.79,0.94 0.81,-0.1 2.04,-0.19 2.34,-1.04 0.35,-0.94 -0.1,-1.78 -1.26,-2.26 -1.66,-0.66 -2.11,-1.69 -3.01,-3.23 -0.87,-1.48 -2.79,-2.42 -3.09,-5.33 -0.29,-2.91 1.99,-6.57 6.48,-5.4 3.26,0.84 5.35,4.86 6.15,6.26 0.41,0.7 1.86,1.55 3.04,0.46 1.18,-1.08 2.26,-1.08 3.14,0.32 0.76,1.12 6.3,8.53 12.29,8.71 6.09,0.19 9.32,-1.31 11.99,-1.31 1.86,0.1 2.76,1.03 3.82,1.22 1.86,0.28 3.19,-1.41 5.22,-1.32 1.63,0.1 3.55,1.23 5.35,1.23 1.9,0 5.8,-2.27 5.7,-1.32 -0.1,1.6 -1.3,4.52 -1.6,5.84 -0.2,0.94 0,3.15 -0.7,4.94 -0.4,1.85 -2.1,4.15 -2.6,4.75 -1.5,2.3 -2.6,3 -3.8,5.4 -1.34,2.6 -3.6,5.1 -4.15,5.9 -0.78,1 4.25,-0.1 6.05,-1.8 1.4,-1.4 4.1,-5.7 8.3,-6.6 2.79,-0.6 3.39,-1.7 3.09,-2.7 -0.1,-0.1 -0.1,-0.2 -0.1,-0.4 0,-0.4 0.2,-0.7 0.6,-0.8 2.8,-1.3 6.8,-2 11.2,-2 2.4,0 5.3,0.4 7.4,0.8 6.2,-9.47 9.8,-21.01 9.8,-33.33 0,-33.98 -27.5,-61.528 -61.45,-61.528 z m 9.24,12.688 c 4.23,-0.16 8.29,1.05 10.82,3.66 3.5,3.61 8.4,14.74 10.69,23.07 1.1,4.23 0.9,6.25 0.2,7.68 -0.39,0.98 -0.59,1.6 -2.09,4.08 -0.3,0.43 -0.1,0.91 0.6,0.62 2.29,-1.23 4.19,-2.84 5.29,-6.63 10.4,2.35 16.5,7.8 15.2,15.15 C 116.3,82.59 89.81,88.04 64.06,80.3 39.51,72.87 17.95,58.05 20.45,49.37 c 1.45,-5.04 9.46,-7.2 20.14,-6.04 -1.62,3.29 -1.5,7.18 5.57,11.5 8.63,4.91 23.23,9.1 27.18,8.69 1.48,-0.16 2.79,-0.88 1.48,-1.77 C 73.49,60.87 72.32,59.1 71.57,56.01 71.17,54.28 70.69,51.88 61.42,50.12 41.51,46.33 42.27,40.7 42.87,37.46 c 0,0 1.76,-7.95 2.49,-10.75 0.74,-2.8 2.64,-9.22 15.47,-6.33 7.41,1.67 11.4,-0.41 13.44,-0.93 1.4,-0.36 2.81,-0.57 4.22,-0.62 z M 80,21.69 c -0.77,0 -1.54,0 -2.41,0.11 -2.35,0.24 -4.38,0.86 -5.78,1.55 -0.23,0.11 -0.21,0.43 0.1,0.35 0.22,0 0.84,-0.1 1.25,-0.16 3.82,-0.38 7.03,0.25 7.19,1.42 0.11,0.87 -1.54,1.81 -4,2.37 -0.12,0 -0.21,0.14 -0.21,0.27 0,0.12 0.1,0.26 0.21,0.26 1.02,0.29 2.23,0.51 3.5,0.51 3.91,0.1 7.1,-1.34 7.19,-3.18 0.1,-1.84 -3.04,-3.43 -7.02,-3.5 z m 2.65,73.65 c -0.1,0 -0.1,0 -0.16,0.1 -0.76,0.94 -1.1,1.22 -1.68,1.71 -1.39,1.1 -2.97,-0.2 -3.99,-0.77 -2.26,-1.27 -4.08,-0.47 -4.52,0.57 -0.45,0.9 0.1,2.3 1.28,2.1 1.72,-0.3 1.8,0.1 3.04,0.8 2.33,1.45 4.01,0.65 4.88,-0.1 0.72,-0.5 1.15,-1 1.46,-1.7 0.71,-1.29 0.16,-2.33 -0.16,-2.61 0,-0.1 -0.1,-0.1 -0.15,-0.1 z"  />
  <path style="display:none" class="only-dark-background"  d="m 78.49,18.83 c -1.41,0.1 -2.82,0.26 -4.22,0.62 -2.04,0.52 -6.03,2.6 -13.44,0.93 C 48,17.49 46.1,23.91 45.36,26.71 c -0.73,2.8 -2.49,10.75 -2.49,10.75 -0.6,3.24 -1.36,8.87 18.55,12.66 9.27,1.76 9.75,4.16 10.15,5.89 0.75,3.09 1.92,4.86 3.25,5.74 1.31,0.89 0,1.61 -1.48,1.77 -3.95,0.41 -18.55,-3.78 -27.18,-8.69 -7.07,-4.32 -7.19,-8.21 -5.57,-11.5 -10.68,-1.16 -18.69,1 -20.14,6.04 -2.5,8.68 19.06,23.5 43.61,30.93 25.75,7.74 52.24,2.29 55.14,-13.84 1.3,-7.35 -4.8,-12.8 -15.2,-15.15 -1.1,3.79 -3,5.4 -5.29,6.63 -0.7,0.29 -0.9,-0.19 -0.6,-0.62 1.5,-2.48 1.7,-3.1 2.09,-4.08 0.7,-1.43 0.9,-3.45 -0.2,-7.68 C 97.71,37.23 92.81,26.1 89.31,22.49 86.78,19.88 82.72,18.67 78.49,18.83 Z M 80,21.69 c 3.98,0.1 7.1,1.66 7.02,3.5 -0.1,1.84 -3.28,3.26 -7.19,3.18 -1.27,0 -2.48,-0.22 -3.5,-0.51 -0.12,0 -0.21,-0.14 -0.21,-0.26 0,-0.13 0.1,-0.23 0.21,-0.27 2.46,-0.56 4.11,-1.5 4,-2.37 -0.16,-1.17 -3.37,-1.8 -7.19,-1.42 -0.41,0.1 -1.03,0.14 -1.25,0.16 -0.29,0.1 -0.31,-0.24 -0.1,-0.35 1.4,-0.69 3.43,-1.31 5.78,-1.55 0.87,-0.1 1.64,-0.13 2.41,-0.11 z M 38.92,73.2 c -3.45,0 -5.15,3.08 -4.9,5.62 0.31,2.91 2.23,3.77 3.1,5.33 0.89,1.54 1.34,2.57 3,3.23 1.18,0.48 1.62,1.23 1.27,2.26 -0.31,0.85 -1.54,0.95 -2.34,1.04 -1.71,0.1 -2.92,-0.38 -3.79,-0.94 -1.02,-0.66 -1.85,-1.51 -2.73,-3.11 -1.04,-1.7 -2.66,-2.35 -4.55,-2.35 -0.9,0 -1.75,0.18 -2.49,0.56 -2.96,1.6 -6.49,2.45 -10.28,2.45 l -4.28,0 c 8.21,24.31 31.21,41.81 58.31,41.81 21.57,0 40.66,-11.1 51.66,-28.1 l 0,0 c -2.4,-0.5 -5,-0.8 -7.4,-0.8 -4.4,0 -8.4,0.7 -11.2,2 -0.4,0.1 -0.6,0.4 -0.6,0.8 0,0.2 0,0.3 0.1,0.4 0.3,1 -0.3,2.1 -3.09,2.7 -4.2,0.9 -6.9,5.2 -8.3,6.6 -1.8,1.7 -6.83,2.8 -6.05,1.8 0.55,-0.8 2.81,-3.3 4.15,-5.9 1.2,-2.4 2.3,-3.1 3.8,-5.4 0.5,-0.7 2.2,-2.9 2.6,-4.75 0.7,-1.79 0.5,-4 0.7,-4.94 0.3,-1.32 1.6,-4.24 1.6,-5.94 0.1,-0.85 -3.8,1.32 -5.7,1.32 -1.8,0 -3.72,-1.03 -5.35,-1.13 -2.03,-0.1 -3.36,1.6 -5.22,1.32 -1.07,-0.19 -1.96,-1.22 -3.83,-1.22 -2.66,-0.1 -5.9,1.5 -11.98,1.31 -5.99,-0.18 -11.53,-7.59 -12.29,-8.71 -0.88,-1.4 -1.96,-1.4 -3.14,-0.32 -1.18,1.09 -2.64,0.24 -3.05,-0.46 -0.79,-1.4 -2.89,-5.42 -6.14,-6.26 -0.56,-0.15 -1.09,-0.22 -1.59,-0.22 z m 43.73,22.14 c 0.1,0 0.1,0 0.15,0.1 0.32,0.28 0.87,1.32 0.16,2.61 -0.31,0.7 -0.74,1.2 -1.46,1.7 -0.87,0.75 -2.55,1.55 -4.88,0.1 -1.24,-0.7 -1.32,-1.1 -3.04,-0.8 -1.21,0.2 -1.73,-1.2 -1.28,-2.1 0.44,-1.04 2.26,-1.84 4.52,-0.57 1.02,0.57 2.6,1.87 3.99,0.77 0.58,-0.49 0.92,-0.77 1.68,-1.71 0,-0.1 0.1,-0.1 0.16,-0.1 z"  />
</svg>
