<?xml version="1.0" encoding="UTF-8" standalone="no"?>
<svg 
   xmlns="http://www.w3.org/2000/svg"
 
   viewBox="0 0 600 426"
   height="426px"
   width="600px" > <path
     style="stroke-width:0.9996"
     id="path4223"
     d="m 372.2,35.73 c -32.9,0 -56.9,20.43 -56.9,48.23 0,53.04 80.2,50.54 80.2,79.74 0,13.2 -11.4,20.3 -24.4,20.3 -23.9,0 -41.5,-20.3 -41.5,-20.3 l -17.7,22.1 c 0,0 20.8,26.4 58.6,26.4 35.9,0 56.7,-23.1 56.7,-50.1 0,-56.2 -80.1,-50.5 -80.1,-79.5 0,-10.72 10.4,-18.25 24.9,-18.25 11.3,0 22.7,5.33 22.7,13.26 l 0,7.72 28.3,0 0,-15.95 C 423,45.1 392.2,35.73 372.2,35.73 Z m -320.7,2.85 0,26.76 15.59,0 0,120.46 -51.38,0 0,26.9 15.59,0 0,127.7 c 0,11.5 4.86,16.2 16.43,16.2 l 65.07,0 -0.4,3.6 c 0,0 0.1,0.2 0.3,0.2 l -0.3,-0.1 0,0 c 0,0 0.8,0.9 1.6,1.5 3.7,3.6 15.6,14.8 35.4,26.5 20.8,12.8 49.1,26.5 81.8,32.6 46.6,8.9 73.6,8.9 95.9,1.9 l 2.5,0 c 8.8,-2.9 16.9,-6.8 25.4,-11.8 6.2,-3.9 12.3,-7.9 19.2,-12.8 l 107.2,-70.4 c 0.4,-0.2 0.7,-0.4 1.1,-0.5 1.9,-1.1 3.5,-1.1 5.3,-0.4 0.2,0.2 0.2,0.2 0.4,0.2 0.4,0.4 1.1,0.7 1.9,1.3 l 1.4,0.9 1.9,1.1 16,-22.9 -9.7,-6.6 c 4.1,-8.3 6.3,-17.3 6.3,-26.2 0,-2.7 -0.4,-5.2 -0.7,-7.9 l -5.2,7.6 c 0.2,10.8 -2.9,21.9 -9.8,31.7 -17.3,24.7 -51.2,30.7 -76,13.4 -3.2,-2 -6.2,-4.7 -8.7,-7.3 2.7,0.5 6.4,1 10.7,1 l 0.2,0 c 10.3,0 23.8,-3 35.5,-15 3.3,1.9 5.9,2.9 6,2.9 l 1.7,-5.7 c 0,0 -0.6,-0.3 -1.4,-0.6 -3,-1.1 -8.6,-4.5 -9.3,-8.9 l -5.7,0.9 c 0.5,3.3 2.1,5.7 3.9,7.8 -10,10.2 -21.8,12.6 -30.9,12.6 -4.2,0 -7.7,-0.4 -10.2,-1 -1.3,-0.1 -2.2,-0.6 -2.9,-0.8 -0.7,-0.1 -4.2,-1.8 -4.2,-1.8 0,0 0.6,1 -0.2,-0.5 -4.5,-7.1 -7.1,-15.3 -7.9,-23.5 l -7.7,-4.9 9.3,-13.6 c 1.6,-6.2 4.3,-12.2 8.2,-17.7 6.3,-8.9 14.5,-15.4 23.9,-19.2 0,0 1.4,-0.5 2.1,-0.7 l 64,32.2 -12.3,18.8 13.3,8.6 8.1,-12 c 0,1.1 0.1,2.4 0.1,3.6 l 5.4,-7.9 0,0 12.8,-18.6 -8.5,-4.6 -41.2,-51.7 -14,11.2 12.9,16.4 c -5.2,-2.2 -10.6,-3.2 -16.1,-3.8 l -29.3,-14.6 -8.2,16 8.3,4.1 c -6.8,3 -12.9,7.4 -18.1,13 l -6.9,-4.9 -16.1,23 3.2,2.2 c 1.3,0.9 2.6,2 3.7,3 l -12.4,19.3 10,5.3 -11.1,51.4 c -9.6,13 -20.3,22.8 -29.9,30 -7.2,5.7 -14.1,9.8 -18.9,12.4 -2.4,1.4 -4.3,2.4 -5.5,2.9 -0.3,0.2 -0.5,0.2 -0.7,0.3 -6.6,0.8 -88.3,10.2 -170.3,-14.7 -0.9,-9.6 -0.4,-22.5 -1.7,-37.7 -1.8,-19.2 -7.4,-27.1 -9.7,-27.5 -1.7,-0.3 -8.7,15.4 -8.8,25.8 l -4.4,0 c -3.8,-11.8 -8.3,-16.3 -10,-16.3 -1.4,0 -4.5,12.4 -3.2,20.3 -0.9,0.6 -2.1,1 -3.6,1 l -39.41,0 c -3.42,0 -5.36,-2 -5.36,-5.3 l 0,-40.6 55.27,0 0,-26.8 -55.27,0 0,-44.6 38.57,0 c 3.3,0 5.2,1.8 5.2,5.2 l 0,10.4 28.7,0 0,-26 c 0,-11.5 -5.1,-16.5 -16.5,-16.5 l -20.15,0 0,-40.1 15.85,0 c 8.9,0 12.5,1.1 16.2,8 l 21.8,43 c 5.5,10.8 11.1,12.8 23.8,12.8 l 16.5,0 0,-26.7 -3,0 c -5.4,0 -9.4,-0.5 -12,-5.6 l -16.6,-33 c -3.2,-6.2 -8.6,-8.6 -8.6,-8.6 l 0,-0.5 c 7.3,-1.5 28.6,-14.1 28.6,-44.99 0,-32.27 -22,-51.53 -53.3,-51.53 z m 130.9,0 0,26.76 15.6,0 0,127.76 c 0,11.5 4.9,16.4 16.4,16.4 l 77.4,0 c 11.5,0 16.5,-4.9 16.5,-16.4 l 0,-26 -28.7,0 0,10.4 c 0,3.4 -1.9,5.3 -5.3,5.3 l -39.4,0 c -3.4,0 -5.3,-1.9 -5.3,-5.3 l 0,-40.7 55.3,0 0,-26.6 -55.3,0 0,-44.86 38.5,0 c 3.4,0 5.3,1.88 5.3,5.23 l 0,10.32 28.6,0 0,-25.92 c 0,-11.35 -5.1,-16.39 -16.3,-16.39 z m 261.7,1.99 c -11.6,0 -15.4,4.04 -15.4,15.4 l 0,26.97 27.7,0 0,-10.45 c 0,-3.3 1.9,-5.27 5.1,-5.27 l 26.3,0 -0.2,145.58 22.9,28.8 8.4,4.3 0.5,0 0,-178.68 26.2,0 c 3.4,0 5.3,1.97 5.3,5.27 l 0,10.45 27.7,0 0,-26.97 c 0,-11.36 -3.9,-15.4 -15.5,-15.4 z m -345.45,24.77 25.35,0 c 15.5,0 24.9,9.58 24.9,26.48 0,17.08 -9.4,26.88 -25.3,26.88 l -24.95,0 z M 201.6,231 c -12.6,0 -44.9,2.6 -44.9,25.3 l 0,13.1 28.4,0 0,-6.6 c 0,-6.7 10.7,-8.2 16.4,-8.2 15.6,0 22.7,6.6 22.7,24.1 l 0,1.1 -3.9,0 c -20.2,0 -73,3 -73,41.5 0,24.5 19.9,38.3 41.8,38.3 27.8,0 37.1,-21.6 37.1,-21.6 l 0.5,0 c 0,0 -0.3,2.1 -0.3,5.3 0,7.2 4.5,13.3 15.8,13.3 l 27.4,0 0,-25.6 -9.7,0 c -3.4,0 -5.3,-1.9 -5.3,-5.2 l 0,-45.8 c 0,-27.6 -12.1,-49 -53,-49 z m 121.9,0 c -25.5,0 -47.7,11.4 -47.7,35.9 0,39.7 64.8,39.6 64.8,56.8 0,8.2 -7.2,12 -16.5,12 -21.1,0 -36.7,-18 -36.7,-18 L 273,337.8 c 0,0 17.2,21.8 51.1,21.8 26.6,0 47,-14.5 47,-37.5 0,-40.9 -65.3,-37 -65.3,-56.2 0,-7.3 7.4,-11.3 18.4,-11.3 6.7,0 15.3,2.9 15.3,8.6 l 0,6.2 27,0 0,-12.8 c 0,-20 -26.4,-25.6 -43,-25.6 z m 89.9,28.1 c 0.2,5.6 3.7,15.9 11.3,18.7 7.7,2.9 17,-2.5 20.9,-6.6 -4.8,1.4 -10.6,5.4 -18.6,2.3 -9.1,-3.5 -10.8,-10.3 -13.6,-14.4 z m -194.1,41.6 5.3,0 0,2.7 c 0,15.1 -11.5,32.3 -28,32.3 -12.5,0 -18.5,-7.7 -18.5,-15.9 0,-16.9 25.2,-19.1 41.2,-19.1 z m 193.5,22.1 0.3,0.4 c 0.7,0.5 1.5,1 2.1,1.3 l 2.7,8.4 -2.5,1.8 -2.2,1.6 c -5.7,4.2 -13.5,11.8 -13.6,11.8 l -0.4,-0.2 c 0,0 4.6,-10.1 6.3,-17 l 1.1,-5.1 z m -41.4,23.8 -4.6,22.1 -0.1,0.1 -25.4,17.5 c -0.6,0 -1.1,1 -1.6,1 -3.9,2.9 -8.8,5.9 -15.5,9.9 l -2.4,-12.3 0,-0.4 c 6.2,-2.9 28.9,-14.2 49.6,-37.9 z" /> </svg>