<?xml version="1.0"?>
<svg xmlns="http://www.w3.org/2000/svg" viewBox="0 0 1535.7 268.8" width="1535.7" height="268.8"><path d="m 477.66,245.95 c -27.93,-2.51 -44.83,-14.34 -47.46,-33.21 l -0.66,-4.75 26.38,0 26.38,0 1.43,3.25 c 1.88,4.28 6.02,6.11 13.52,6 6.31,-0.1 12.43,-2.06 15.73,-5.04 4.12,-3.72 7.53,-12.88 10.07,-27.05 l 0.6,-3.35 -3.25,2.14 c -6.51,4.28 -16.37,8.83 -21.54,9.92 -7.51,1.6 -23.73,1.4 -30.52,-0.37 -8.04,-2.09 -13.21,-4.95 -19.18,-10.59 -9.3,-8.8 -13.47,-20.14 -13.49,-36.7 0,-23.91 8.5,-45.68 23.99,-61.24 8.25,-8.29 19.1,-14.7 29.6,-17.5 8.37,-2.23 25.47,-2.22 31.9,0 7.07,2.46 15.13,8.07 18.83,13.12 1.74,2.37 3.45,4.32 3.8,4.34 0.34,0 1.19,-3.56 1.87,-7.96 l 1.24,-8 23.41,0 23.4,0 -0.54,2.25 c -0.3,1.24 -4.82,27 -10.04,57.26 -5.23,30.27 -10.67,59.91 -12.1,65.88 -7.89,33.07 -26.71,48.4 -63.37,51.61 -12.71,1.12 -17.44,1.12 -30,0 z m 38.73,-89.32 c 7.88,-4.08 14.34,-14.74 16.23,-26.82 1.82,-11.58 -1.66,-21.33 -8.98,-25.14 -4.81,-2.51 -15.36,-1.85 -20.4,1.26 -8.02,4.96 -13.96,18.75 -14.02,32.56 -0.1,10.28 2.49,15.68 8.75,18.62 4.9,2.3 13.48,2.08 18.42,-0.48 z M 37.274,117.24 C 45.675,68.98 52.813,28.02 53.137,26.23 l 0.588,-3.25 50.715,0 c 61.93,0 73.94,1.1 88.7,8.07 8.12,3.83 12.51,7.69 16,14.07 2.53,4.63 2.98,6.64 3.3,14.85 0.99,25.26 -10.35,46.47 -29.81,55.78 l -8.04,3.84 5.39,2.24 c 7.52,3.11 13.13,8.2 15.33,13.91 2.68,6.95 2.32,21.09 -1.05,41.25 -2.86,17.14 -2.67,21.99 0.86,21.99 1.67,0 1.78,0.43 0.89,3.75 l -0.6,2.25 -30.54,0 -30.54,0 0.63,-11.25 c 0.35,-6.19 1.32,-15.07 2.15,-19.75 3.1,-17.25 1.49,-25.51 -5.68,-29.23 -6.51,-3.38 -37.25,-5.33 -38.368,-2.44 -0.281,0.73 -2.866,15.02 -5.744,31.75 L 82.084,204.48 52.042,204.74 22,205.01 Z M 140.82,99.03 c 10.08,-3.15 14.58,-9.84 13.58,-20.2 -0.57,-5.95 -3.18,-9.07 -9.66,-11.57 -3.76,-1.45 -7.71,-1.78 -21.6,-1.78 l -17,0 -2.7,15.5 c -1.48,8.53 -2.72,16.81 -2.75,18.4 l 0,2.9 16.75,-0.58 c 12.93,-0.45 18.27,-1.06 23.43,-2.67 z m 64.82,105.55 c 0,-0.86 29.23,-106.14 29.66,-106.85 0.26,-0.41 9.04,-0.75 19.52,-0.75 l 19.05,0 -0.52,2.25 c -0.29,1.24 -3.82,25.54 -7.85,54.01 l -7.32,51.75 -26.28,0 c -14.44,0 -26.26,-0.18 -26.26,-0.41 z m 68.62,-1.34 c 0.56,-2.31 22.39,-129.54 22.39,-130.51 0,-0.41 10.8,-0.75 24,-0.75 27.29,0 24.81,-1.03 22.97,9.57 -0.56,3.26 -1.25,6.96 -1.53,8.22 -0.39,1.82 1.16,0.86 7.42,-4.55 14.05,-12.14 24.47,-16.24 41.3,-16.24 16.25,0 25.8,3.09 32.99,10.67 7.57,7.96 10.46,18.25 9.59,34.09 -0.41,7.45 -10.63,70.58 -14.32,88.5 l -0.57,2.75 -26.45,0 -26.44,0 0.51,-2.25 c 2.26,-10.11 12.53,-72.91 12.53,-76.61 0,-7.17 -3.48,-13.31 -8.5,-14.99 -8.61,-2.87 -20.41,0.72 -24.96,7.61 -4.12,6.24 -5.31,11.16 -11.59,47.62 -3.32,19.32 -6.28,35.91 -6.56,36.87 -0.48,1.61 -2.64,1.75 -26.86,1.75 -24.58,0 -26.31,-0.12 -25.92,-1.75 z m 379.88,0.78 c -26.24,-3.74 -45.12,-15.96 -54.28,-35.13 -5.29,-11.09 -7.19,-20.11 -7.19,-34.22 0,-54.22 34.21,-98.58 83.99,-108.92 12.54,-2.6 36.25,-2.04 48.52,1.15 29.49,7.67 45.42,28.28 45.48,58.83 l 0,8.25 -26.89,0 -26.88,0 -0.39,-6.86 c -0.46,-8.48 -3.59,-13.73 -10.56,-17.83 -4.32,-2.54 -5.66,-2.81 -14.27,-2.81 -11.41,0 -16.42,2.01 -24.07,9.67 -14.79,14.78 -23.92,57.72 -15.69,73.71 4.75,9.24 15.41,14.08 28.08,12.75 12.12,-1.26 20.98,-8.19 27.33,-21.37 l 3.49,-7.25 26.94,0 c 14.81,0 26.93,0.21 26.93,0.48 0,0.26 -1.15,3.52 -2.55,7.25 -14.56,38.7 -46.94,61.55 -88.96,62.78 -7.15,0.21 -15.71,0 -19.03,-0.48 z m 170.08,-0.14 c -14.7,-2.14 -26.05,-7.33 -35.14,-16.06 -11.5,-11.04 -16.03,-23.64 -15.05,-41.83 1.22,-22.87 9.88,-41.55 26.52,-57.25 12.4,-11.69 29.9,-19.99 48.19,-22.84 9.16,-1.43 27.27,-0.65 35.45,1.52 21.83,5.8 36.49,20.29 42.03,41.56 1.87,7.19 2.44,23.19 1.15,32.26 l -0.82,5.75 -50.43,0 -50.44,0 0,5.66 c 0,7.47 3.32,13.27 9.74,17.04 9.34,5.47 25.3,2.57 31.42,-5.7 l 2.22,-3 25.34,0 25.34,0 -1.66,3.25 c -8.6,16.83 -25.63,30.06 -46.45,36.09 -14.66,4.25 -33.13,5.63 -47.41,3.55 z m 54.46,-86.65 c 0,-4.61 -1.93,-10.02 -4.74,-13.36 -10.27,-12.2 -33.69,-7.28 -41.17,8.64 -3.72,7.91 -5.02,7.47 21.91,7.47 l 24.01,0 0,-2.75 z m 44.41,85.01 c 0.3,-1.51 5.28,-30.43 11.07,-64.25 5.79,-33.84 10.76,-62.52 11.05,-63.76 l 0.52,-2.25 23.98,0 c 13.19,0 24.02,0.11 24.02,0.25 0,0.14 -0.72,4.08 -1.54,8.75 -0.82,4.67 -1.5,9.1 -1.5,9.83 0,0.73 3.34,-1.65 7.24,-5.3 8.17,-7.49 19.57,-13.73 28.47,-15.56 6.5,-1.36 25.7,-0.79 31.3,0.92 6.5,1.99 14.2,7.45 17.7,12.48 9,13.22 8.9,23.51 -0.9,79.64 l -7.3,41.5 -26.3,0.27 c -18.6,0.19 -26.2,-0.1 -26.2,-0.84 0,-0.61 2.7,-16.48 5.9,-35.27 3.3,-18.79 6.2,-36.1 6.6,-38.45 0.9,-5.96 -1,-13.4 -4.4,-16.66 -2.1,-1.99 -4.2,-2.82 -8.2,-3.23 -13,-1.33 -22.09,5.49 -25.86,19.47 -1.08,4.05 -13.05,72.06 -13.05,74.21 0,0.64 -9.49,1 -26.58,1 l -26.58,0 z m 193.61,1.83 c -10,-1.47 -14.3,-3.13 -18.1,-6.96 -7.6,-7.62 -7.6,-16.99 0,-60.62 2.8,-15.96 5.4,-30.25 5.7,-31.76 l 0.6,-2.75 -9.5,0 -9.4,0 2.6,-15.25 2.6,-15.25 9.7,-0.28 c 9.6,-0.29 9.7,-0.3 10.2,-3 1.1,-5.15 6.6,-36.49 6.6,-37.35 0,-0.48 11.7,-0.87 26,-0.87 14.3,0 26,0.34 26,0.75 0,0.41 -1.6,9.53 -3.5,20.25 -1.9,10.73 -3.5,19.61 -3.5,19.75 0,0.14 5.6,0.25 12.5,0.25 7.4,0 12.5,0.4 12.5,0.97 0,0.54 -1.1,7.39 -2.5,15.23 -1.4,7.84 -2.5,14.36 -2.5,14.49 0,0.14 -5.7,0.38 -12.7,0.53 l -12.7,0.28 -4.8,27.5 c -6.1,35.69 -6.1,36.01 10.2,36.01 5.1,0 8,0.39 8,1.09 0,1.62 -6.1,36.36 -6.5,36.71 -0.7,0.75 -42.6,1 -47.5,0.28 z m 59.5,-1.33 c 0.5,-2.05 22.5,-129.63 22.5,-130.42 0,-0.19 10.8,-0.34 24,-0.34 13.2,0 24,0.11 24,0.25 0,0.14 -0.9,5.43 -2,11.75 -2.6,15.16 -2.6,15.35 1.6,8.98 10.5,-16.07 24.2,-23.98 41.6,-23.98 7.3,0 8,0.17 7.6,1.85 -0.3,1.02 -2.5,12.95 -4.9,26.53 l -4.4,24.68 -3,-0.69 c -5.7,-1.31 -17.1,-0.51 -22.7,1.6 -9.9,3.72 -16.5,11.15 -20.7,23.28 -1.1,3.07 -3.8,16.31 -6,29.42 -2.3,13.11 -4.4,25.08 -4.7,26.59 l -0.6,2.75 -26.4,0 -26.4,0 z m 124.5,1.19 c -12.6,-2.21 -24.1,-10.82 -27.4,-20.67 -3,-8.86 -1.4,-22.82 3.9,-33.28 3.1,-6.18 12.6,-14.78 20.6,-18.7 9.4,-4.64 19.1,-7.01 40.4,-9.88 21.9,-2.94 26.4,-3.84 32.1,-6.38 5,-2.18 6.6,-4.79 6.2,-9.73 -0.6,-6.64 -9.2,-10.07 -20.8,-8.22 -6.3,1.02 -9.5,3.05 -12.9,8.24 l -2.4,3.67 -25,0 -24.9,0 0.7,-3.75 c 1.3,-7.15 6.2,-15.65 12.4,-21.58 14.3,-13.61 38.1,-19.55 73.6,-18.38 24.6,0.81 37.7,4.71 45.7,13.51 8.6,9.55 8.6,19 -0.6,71.21 -5.8,32.87 -6.6,39.03 -5.7,42.13 0.6,2 1.8,4.19 2.6,4.87 0.8,0.69 1.5,2.76 1.5,4.62 l 0,3.38 -27.5,0 -27.5,0 0,-8.99 0,-9 -4.8,3.65 c -6.5,5.05 -17.4,10.07 -25.7,11.85 -8.9,1.92 -27.4,2.68 -34.5,1.43 z m 49.2,-29.99 c 5.2,-1.43 11.7,-6.67 15,-11.98 2.6,-4.27 6.6,-17.47 5.6,-18.5 -0.3,-0.27 -2.2,0.13 -4.4,0.88 -2.1,0.75 -8.5,2.35 -14.1,3.55 -16.2,3.46 -22.3,6.93 -24.4,14.04 -2.9,9.72 8.5,15.86 22.3,12.01 z m 79.9,30.3 c 0,-0.41 7.1,-41.25 15.7,-90.76 l 15.7,-90 26.3,-0.27 c 17.8,-0.18 26.2,0.1 26.2,0.79 0,0.58 -7,41.13 -15.5,90.11 -8.5,48.99 -15.5,89.48 -15.5,89.98 0,0.51 -11.4,0.9 -26.5,0.9 -14.6,0 -26.5,-0.34 -26.4,-0.75 z M 252.97,86.04 c -11.63,-5.28 -8.16,-19.74 4.99,-20.83 8.82,-0.73 14.69,3.92 14.69,11.65 0,3.98 -4.22,8.81 -8.81,10.09 -4.98,1.38 -6.02,1.29 -10.87,-0.91 z m 23.74,-22.97 c -4.83,-6.78 -19.54,-9.53 -26.93,-5.03 -5.89,3.59 -11.18,1.25 -9.78,-4.33 0.79,-3.13 8.83,-7.39 15.71,-8.33 5.26,-0.71 14.86,1.03 19.94,3.62 5.34,2.73 11,8.87 11,11.95 0,5.69 -6.42,7.06 -9.94,2.12 z m 15.03,-14.98 c -9.26,-9.87 -18.57,-13.53 -32.93,-12.95 -8.67,0.34 -10.89,1.06 -19.9,6.42 -2.97,1.76 -3.46,1.8 -6.01,0.39 -3.98,-2.21 -4.3,-7.1 -0.68,-10.45 5.73,-5.3 18.61,-9.54 28.86,-9.5 12.09,0.1 28.1,6.2 35.9,13.78 7.7,7.5 9.24,11.63 5.67,15.2 -3.18,3.18 -5.88,2.46 -10.91,-2.89 z"></path> </svg>