<?xml version="1.0"?>

<svg xmlns="http://www.w3.org/2000/svg" viewBox="0 0 1715 947" width="1715" height="947">
      <path d="M 1234.5,108.44 H 486.15 L 182,470.78 486.15,838.4 h 748.35 l 298.7,-367.62 z m -16,695.46 H 502.21 L 224.4,470.78 502.21,145.31 H 1218.5 L 1491,470.78 Z M 576.21,441.56 c 0,0 31.6,-10.54 31.6,-68.74 0,-66.09 -71.36,-71.36 -87.16,-71.36 h -60.84 v 296.25 h 42.4 V 460.24 h 21.06 c 36.87,0 39.77,31.6 39.77,31.6 l 5.26,105.86 h 42.13 c 0,0 -2.63,-55.56 -5.26,-103.23 -5.26,-47.65 -28.96,-52.91 -28.96,-52.91 z m -74,-15.8 v -84.53 c 10.54,0 63.46,-5.27 63.46,36.87 0,55.56 -63.46,47.66 -63.46,47.66 z M 708.4,378.09 c -66.1,0 -68.73,73.99 -68.73,73.99 0,0 -2.64,34.5 0,71.63 2.63,34.23 7.9,76.63 73.99,76.63 66.1,0 68.74,-60 68.74,-73.99 v -74.27 c 0,-26.32 -7.9,-73.99 -74,-73.99 z m 31.96,138.28 c 0,31.86 -5.63,46.84 -29.32,46.84 -31.87,0 -29.23,-44.76 -29.23,-44.76 v -66.36 c 0,-39.49 29.23,-39.49 29.23,-39.49 28.97,0 28.97,42.39 28.97,42.39 0,0 0.35,48.21 0.35,61.38 z m 462.34,25.77 c -2.7,-31.86 0,-42.39 0,-42.39 h 105.8 c 0,-15.81 0,-21.07 -2.6,-50.3 -2.6,-26.34 -13.4,-71.36 -71.4,-71.36 -66.3,0 -71.6,73.99 -71.6,73.99 0,0 -2.6,37.13 0,71.63 5.3,34.23 10.6,79.26 74,79.26 63.7,0 69,-63.46 69,-76.63 h -45 c 0,55.57 -53,50.3 -58.2,15.8 z m 31.8,-129.55 c 31.6,0 26.4,52.92 26.4,52.92 h -55.6 c 0,-58.19 29.2,-52.92 29.2,-52.92 z m -161.4,-37.13 c -26.6,0 -42.4,18.43 -42.4,18.43 v -95.05 h -39.48 v 298.88 h 42.18 V 441.56 c 0,0 0,-28.96 26.6,-28.96 26.3,0 28.9,21.06 28.9,28.96 V 597.72 H 1126 V 438.93 c 0,0 0,-63.47 -52.9,-63.47 z m -187.74,2.63 c -65.83,0 -65.83,71.36 -65.83,71.36 0,0 -5.26,39.76 0,74.26 2.64,34.23 10.54,76.63 71.1,76.63 63.46,0 68.73,-60.83 68.73,-73.99 v -5.27 h -39.76 -2.63 c 0,26.34 -5.27,42.13 -31.6,42.13 -28.96,0 -26.6,-47.66 -26.6,-47.66 0,0 -2.37,-28.97 0,-63.46 C 861.4,409.96 888,412.6 888,412.6 c 31.6,0 31.6,47.66 31.6,47.66 h 39.76 v -10.8 c -2.64,-26.34 -7.9,-71.37 -74,-71.37 z"></path></svg>