<?xml version="1.0"?>

<svg xmlns:dc="http://purl.org/dc/elements/1.1/" xmlns:cc="http://creativecommons.org/ns#" xmlns:rdf="http://www.w3.org/1999/02/22-rdf-syntax-ns#" xmlns:svg="http://www.w3.org/2000/svg" xmlns="http://www.w3.org/2000/svg" xml:space="preserve" enable-background="new -4.839 -2.825 310 70" viewBox="-4.839 -2.825 310 70" height="70px" width="310px" y="0px" x="0px" id="Layer_1" version="1.1"><metadata id="metadata11"><rdf:rdf><cc:work rdf:about=""><dc:format>image/svg+xml</dc:format><dc:type rdf:resource="http://purl.org/dc/dcmitype/StillImage"></dc:type><dc:title></dc:title></cc:work></rdf:rdf></metadata><defs id="defs9"></defs><path d="m 287,17.96 h 5.7 v 0.85 h -2.3 V 25 h -1 V 18.81 H 287 Z M 300.3,25 V 17.96 H 299 l -2,5.95 v 0 l -2.1,-5.95 h -1.3 V 25 h 0.9 v -4.16 c 0,-0.2 0,-1.09 0,-1.74 v 0 l 2,5.89 h 0.9 l 2,-5.91 v 0 c 0,0.67 0,1.56 0,1.76 v 4.15 c 0,0 0.9,0 0.9,0 z m -177.1,7.6 c 0,3.56 0.8,6.51 2.5,8.47 1.4,1.67 3.3,2.54 5.6,2.54 2.3,0 4.3,-0.87 5.7,-2.54 1.6,-1.96 2.4,-4.91 2.4,-8.47 0,-3.57 -0.8,-6.52 -2.4,-8.47 -1.4,-1.67 -3.4,-2.54 -5.7,-2.54 -2.3,0 -4.2,0.87 -5.6,2.54 -1.7,1.95 -2.5,4.9 -2.5,8.47 m 21.3,-12.73 c 3.2,3.13 4.7,7.37 4.7,12.75 0,5.33 -1.5,9.57 -4.7,12.71 -3.2,3.13 -7.6,4.7 -13.2,4.7 -5.6,0 -10,-1.57 -13.2,-4.7 -3.2,-3.14 -4.8,-7.38 -4.8,-12.71 0,-5.38 1.6,-9.62 4.8,-12.75 3.2,-3.12 7.6,-4.68 13.2,-4.68 5.6,0 10,1.56 13.2,4.68 M 217,48.86 c 2.6,0 3.6,-0.37 4.8,-5.1 l 0.2,-0.69 h -17.1 v -8.38 h 9.7 c 2.5,0 3.6,-0.38 4.9,-5.1 l 0.1,-0.68 h -14.7 v -7.02 h 10.5 c 3.1,0 3.5,-0.39 4.6,-5.15 l 0.2,-0.66 H 195 v 32.78 z m 53.2,-4.95 c -2.3,0 -5.1,-0.37 -8.3,-2.08 l -2.3,5.32 0.5,0.27 c 1.4,0.73 5.3,2.6 11.1,2.6 7.6,0 14.5,-3.16 14.5,-10.2 0,-5.19 -3.8,-7.62 -8.3,-10.14 -4.6,-2.51 -7.6,-3.83 -7.6,-6.16 0.1,-1.61 1.9,-2.35 4.8,-2.3 3.6,0.1 5.7,0.85 7.5,1.79 l 2.5,-5.06 -0.5,-0.26 c -1.2,-0.67 -4.9,-2.39 -10.9,-2.39 -9.1,0 -13,4.81 -13,9.32 0,2.65 0.5,6.24 7.9,10.24 6.1,3.3 7,4.33 7,5.96 0,2.09 -2,3.11 -4.9,3.09 m -11.3,4.95 c 0,0 -3.9,-4.56 -6.9,-8.75 -1.8,-2.52 -3.2,-4.56 -4.3,-6.29 3.6,-1.25 6.1,-4.02 6.1,-8.7 0,-3.48 -1.3,-5.71 -3.9,-7.21 -2.8,-1.68 -7.1,-1.83 -12.1,-1.83 h -11.1 v 32.78 h 9.7 V 36.3 h 1 c 0.8,0 1.3,0.19 2.4,2.02 2.5,3.88 3.7,5.7 5.3,8.28 0.8,1.37 2.2,2.26 4.8,2.26 h 9 M 244,26.12 c 0,2.43 -1.1,3.53 -2.4,4.2 -0.9,0.48 -2.3,0.72 -3.8,0.72 h -1.4 v -9.61 h 2.1 c 3.7,0 5.5,1.71 5.5,4.69 M 113.1,48.86 c 0,0 -4,-4.56 -7,-8.75 -1.8,-2.52 -3.2,-4.56 -4.3,-6.29 3.7,-1.25 6.2,-4.02 6.2,-8.7 0,-3.48 -1.4,-5.71 -4,-7.21 -2.8,-1.68 -7.05,-1.83 -12.11,-1.83 H 80.87 v 32.78 h 9.71 V 36.3 h 0.99 c 0.78,0 1.28,0.19 2.42,2.02 2.41,3.88 3.6,5.7 5.2,8.28 0.81,1.37 2.21,2.26 4.81,2.26 h 9.1 M 98.16,26.12 c 0,2.43 -1.13,3.53 -2.42,4.2 -0.93,0.48 -2.35,0.72 -3.85,0.72 h -1.31 v -9.61 h 2.04 c 3.75,0 5.54,1.71 5.54,4.69 m 89.44,5.16 h 0.1 -17.6 c 0,0 0.7,2.55 0.9,2.98 0.7,2.55 1.2,2.77 2.7,2.79 v 0 h 4.6 v 6.73 c -1.2,0.27 -2.7,0.39 -4.3,0.32 -5.9,-0.23 -10.8,-4.36 -10.8,-11.63 0,-6.7 4.5,-11.02 11.6,-11.02 3.7,0 6.8,0.76 9.5,2 l 3.4,-5.36 -0.5,-0.3 c -2.2,-1.26 -5.7,-2.5 -11.6,-2.66 -6.2,-0.17 -11.9,1.89 -14.9,3.85 -2.8,1.88 -7.4,6.18 -7.4,13.9 0,4.5 1.4,8.23 4.1,11.08 3.7,3.89 9.9,6.04 17.2,6.04 6,0 10.4,-1.13 13.1,-2.72 v -16 z M 12.5,30.84 c 0.8,-1.42 1.31,-2.33 2.54,-4 C 22.38,17.06 39,1.576 53.18,8.378 47.66,3.373 40.22,0 32.17,0 23.73,0 17.76,2.25 12.41,7.525 11.26,8.665 8.625,14.1 8.625,18.4 c 0,3.6 1.047,7.63 3.875,12.44 M 30.84,51.85 C 29.43,51.04 28.51,50.54 26.84,49.3 17.06,41.96 1.575,25.34 8.377,11.15 3.375,16.69 0,24.12 0,32.17 c 0,8.44 2.246,14.41 7.525,19.76 1.137,1.15 6.565,3.79 10.875,3.79 3.6,0 7.62,-1.05 12.44,-3.87 m 21,-18.34 c -0.8,1.4 -1.3,2.32 -2.54,4 -7.33,9.77 -23.96,25.26 -38.14,18.46 5.53,5.01 12.96,8.38 21.01,8.38 8.45,0 14.41,-2.26 19.76,-7.53 1.16,-1.14 3.8,-6.57 3.8,-10.87 0,-3.61 -1.06,-7.63 -3.89,-12.44 M 33.5,12.5 c 1.42,0.79 2.33,1.3 4,2.54 9.79,7.34 25.27,23.96 18.46,38.15 5.01,-5.54 8.39,-12.96 8.39,-21.02 0,-8.44 -2.26,-14.41 -7.53,-19.76 C 55.68,11.26 50.25,8.619 45.95,8.619 42.34,8.618 38.32,9.674 33.5,12.5" id="path2"></path></svg>