<?xml version="1.0"?>

<svg xmlns:dc="http://purl.org/dc/elements/1.1/" xmlns:cc="http://creativecommons.org/ns#" xmlns:rdf="http://www.w3.org/1999/02/22-rdf-syntax-ns#" xmlns:svg="http://www.w3.org/2000/svg" xmlns="http://www.w3.org/2000/svg" version="1.1" id="svg6751" x="0px" y="0px" width="862.8" height="419.1" enable-background="new 0 0.001 299.859 128.19" xml:space="preserve" viewBox="0 0 862.8 419.1"><defs id="defs4"></defs><path style="stroke-width:1" d="m 803.7,328.1 c -10.1,0 -14.4,10.5 -14.4,18.9 0,4.4 1.4,6.2 3.6,6.2 6.5,0 13.7,-13.7 15.1,-21.7 l 0.7,-2.8 c -2.1,-0.3 -3.6,-0.6 -5,-0.6 z m 7.2,17.4 c 0,1.2 -2.2,11 -2.2,12.3 H 803 c 0.7,-3 1.4,-7.4 3.6,-13.8 v -0.1 c -2.2,5.3 -7.2,14.6 -15.9,14.6 -4.3,0 -7.2,-3.2 -7.2,-10.3 0,-12.5 6.5,-24.9 20.9,-24.9 2.2,0 3.6,0.2 5,0.4 l 2.9,-15.7 h 6.5 z m -38.2,12.2 h -6.5 l 4.3,-21.7 c 0.7,-5.3 0,-7.6 -3.6,-7.6 -5.7,0 -13,13.3 -14.4,21.7 l -1.4,7.6 h -6 l 3.4,-17.6 c 0.4,-1.6 2.6,-14.8 3.3,-16.3 h 5.7 c -0.7,2.3 -1.4,6.2 -3.6,13.4 v 0 c 2.9,-7.2 8.7,-14.1 15.2,-14.1 6.5,0 8.6,4.5 7.9,11.5 l -5,23.1 z m -44.3,-29.6 c -10.1,0 -14,10.5 -14,18.9 0,4.4 1.3,6.2 3.4,6.2 6.4,0 13.4,-13.7 15,-21.7 l 0.5,-2.8 c -1.3,-0.3 -2.9,-0.6 -4.9,-0.6 z m 5.4,29.6 h -6 c 0.6,-2.9 1.9,-7.3 3.9,-13.7 v -0.1 c -2.4,5.2 -7.6,14.5 -15.8,14.5 -4.9,0 -7.6,-3.1 -7.6,-10.2 0,-12.5 6.6,-24.9 21.3,-24.9 3.9,0 7.6,0.4 10.7,1 -3.7,19.1 -4.9,25.3 -6.3,33.4 m -37.1,0 h -6 l 9.4,-49.7 h 6.1 z m -8.7,-29.1 H 679 l -3.4,17.8 c -1,5.2 -0.4,6.6 3,6.6 2,0 3.4,-0.1 4.7,-0.5 l -0.4,5.1 c -2,0.5 -4.3,0.7 -6.3,0.7 -6.9,0 -8.7,-3.3 -7.3,-10.9 l 3.6,-18.7 H 666 l 0.9,-4.8 h 6.9 l 2.1,-11 6.3,-1.5 -2.3,12.5 h 9.2 z m -40.3,-0.2 c -7.4,0 -12.4,8.3 -12.4,16.8 0,5.2 2,8 7.2,8 6.6,0 12.4,-7.2 12.4,-17.1 0,-4.9 -2.3,-7.7 -7.2,-7.7 z m -6.3,30 c -8.5,0 -12.4,-4.3 -12.4,-12.1 0,-13.5 8.7,-23 19.7,-23 8.9,0 12.6,5 12.6,12.1 0,14.1 -9.7,23 -19.9,23 m -15.2,-28.7 c -1.8,-0.9 -3.9,-1.4 -6.2,-1.4 -8.6,0 -12.6,9.7 -12.6,17.4 0,3.6 1.1,7.3 7,7.3 2.7,0 5.4,-0.7 7.5,-1.6 v 5.1 c -2.4,0.9 -5.7,1.8 -9.1,1.8 -8.9,0 -11.9,-4.8 -11.9,-11.3 0,-12.9 7.3,-23.7 19.5,-23.7 2.7,0 5,0.4 7.1,1 z m -29.3,-12.4 c -2.2,-0.7 -4.6,-1 -6.3,-1 -6.8,0 -9.9,3.9 -9.9,7.5 0,8.3 14,8.7 14,19.6 0,8.5 -7.5,15.1 -18.2,15.1 -2.4,0 -5.3,-0.3 -7.6,-1.1 l 1.2,-6 c 1.9,0.8 4.6,1.6 6.9,1.6 7.1,0 11.2,-3.5 11.2,-8.6 0,-8 -14,-8 -14,-19.1 0,-7.6 5.9,-14.2 16.9,-14.2 2.4,0 4.4,0.1 7,0.7 z m -37.3,-4.1 c -1.6,-0.5 -3.4,-0.6 -4.8,-0.6 -4.9,0 -7.6,2.6 -8.7,8.9 l -0.4,2.3 h 9.2 l -1,4.8 h -9.2 l -5.9,30.9 c -2.2,11 -7.3,15.6 -15.6,15.6 -1.9,0 -4,-0.2 -5.8,-0.7 l 1.5,-5.1 c 1.6,0.5 3.4,0.7 4.8,0.7 4.9,0 7.6,-2.6 9,-10.4 l 6,-31 h -7 l 1.1,-4.8 h 6.8 l 0.4,-2.3 c 1.8,-9.3 6.6,-14 15.5,-14 1.8,0 3.7,0.3 5.6,0.6 z M 513,328.4 c -7.4,0 -12.4,8.3 -12.4,16.8 0,5.2 2,8 7.2,8 6.6,0 12.3,-7.2 12.3,-17.1 0,-4.9 -2.2,-7.7 -7.1,-7.7 z m -6.4,30 c -8.5,0 -12.3,-4.3 -12.3,-12.1 0,-13.5 8.5,-23 19.7,-23 8.8,0 12.5,5 12.5,12.1 0,14.1 -9.6,23 -19.9,23 m -42.6,-19.2 10.2,18.5 h -7.3 l -9,-17.9 -3.4,17.9 h -6 l 9.4,-49.7 h 6.1 l -5.9,30.2 16,-16.1 4.4,3.5 z m -27,18.5 h -6 l 4.2,-21.7 c 1,-5.3 0,-7.6 -2.9,-7.6 -6.4,0 -13.3,13.3 -14.8,21.7 l -1.5,7.6 h -6 l 3.4,-17.6 c 0.5,-1.6 2.8,-14.8 3,-16.3 h 6 c -0.5,2.3 -1.4,6.2 -3.8,13.4 v 0 c 3.3,-7.2 8.6,-14.1 15.7,-14.1 6.3,0 8.4,4.5 7.1,11.5 z m -43.7,-29.6 c -10.1,0 -14,10.5 -14,18.9 0,4.4 1.3,6.2 3.4,6.2 6.4,0 13.4,-13.7 15,-21.7 l 0.5,-2.8 c -1.4,-0.3 -3,-0.6 -4.9,-0.6 z m 5.4,29.6 h -6.1 c 0.7,-2.9 2,-7.3 4,-13.7 v -0.1 c -2.5,5.2 -7.5,14.5 -15.9,14.5 -4.9,0 -7.6,-3.1 -7.6,-10.2 0,-12.5 6.6,-24.9 21.3,-24.9 4,0 7.6,0.4 10.8,1 -3.7,19.1 -5,25.3 -6.4,33.4 M 355,316.6 c -2.3,0 -4.3,0 -6.1,0.1 l -2.9,14.8 c 1.3,0.1 2.4,0.1 3.9,0.1 7.5,0 12.9,-3.5 12.9,-9.9 0,-3 -1.7,-5.1 -7.8,-5.1 z m -4.7,19.8 c -1.7,0 -4.1,0 -5.2,0 l -3,16.1 c 1.1,0.2 3,0.4 5.6,0.4 8.1,0 12.5,-4.8 12.5,-10.4 0,-4 -3.1,-6.1 -9.9,-6.1 z m 9.5,-3.1 v 0.1 c 4.3,1 6.9,4.6 6.9,8.6 0,8.6 -7.1,16 -20,16 -3,0 -7.4,-0.1 -11.8,-0.2 l 8.8,-46 c 3.3,-0.1 7.6,-0.3 12.9,-0.3 8.8,0 12.7,3.5 12.7,8.9 0,6.9 -4.5,11.2 -9.5,12.9 m -51.1,24.4 h -6 l 9.5,-49.7 h 6 z M 286,328.1 c -10.1,0 -14.1,10.5 -14.1,18.9 0,4.4 1.4,6.2 3.6,6.2 6.4,0 13.3,-13.7 14.9,-21.7 l 0.5,-2.8 c -1.4,-0.3 -3,-0.6 -4.9,-0.6 z m 5.4,29.6 h -6.1 c 0.6,-2.9 1.9,-7.3 3.9,-13.7 v -0.1 c -2.4,5.2 -7.5,14.5 -15.7,14.5 -4.9,0 -7.7,-3.1 -7.7,-10.2 0,-12.5 6.6,-24.9 21.4,-24.9 3.8,0 7.5,0.4 10.6,1 -3.6,19.1 -4.8,25.3 -6.2,33.4 M 239.4,369 c -4.1,4.1 -8.1,6.1 -12.1,6.1 -1.8,0 -3.5,-0.1 -4.8,-0.5 l 0.9,-5.5 c 1.4,0.5 2.9,0.7 4.4,0.7 2.3,0 5.2,-1.4 7.5,-3.9 2.6,-2.8 3.9,-5.9 3.9,-10.9 0,-9 -2,-20.1 -5,-31.1 h 6.8 c 2.2,8.7 3.8,19.3 3.8,26.5 0,1.3 0,2.9 -0.5,4.4 v 0 c 5.4,-9.6 10.1,-19.3 15.4,-32.3 l 5.6,1.7 c -9,21 -17.4,36.4 -25.9,44.8 m -24.3,-40.6 c -7.4,0 -12.4,8.3 -12.4,16.8 0,5.2 2,8 7.1,8 6.6,0 12.4,-7.2 12.4,-17.1 0,-4.9 -2.2,-7.7 -7.1,-7.7 z m -6.3,30 c -8.6,0 -12.4,-4.3 -12.4,-12.1 0,-13.5 8.6,-23 19.6,-23 9,0 12.6,5 12.6,12.1 0,14.1 -9.6,23 -19.8,23 M 180,316.6 c -2.1,0 -3.7,0 -4.9,0.1 l -3,15.7 c 0.8,0.1 2,0.1 3.7,0.1 6.9,0 12.2,-3.6 12.2,-10 0.1,-4.1 -2.3,-5.9 -8,-5.9 z m -1.4,20.1 c 0.9,1.5 1.7,3.1 2.7,4.8 l 9.1,16.3 h -7.5 L 172,337.1 h -0.8 l -3.9,20.7 h -6.1 l 8.8,-46 c 3.1,-0.2 6.4,-0.4 11,-0.4 9.4,0 13.5,3.9 13.5,10.1 0.1,8.8 -7.5,14.2 -15.9,15.2 m -47.1,-8.8 c -5.3,0 -8.9,4.7 -10.6,10.4 10.6,-0.3 15.2,-2.5 15.2,-6.6 0,-2.5 -1.8,-3.8 -4.6,-3.8 z m -11.3,14.9 c 0,1.1 -0.3,2.8 -0.3,4 0,5.3 1.8,6.7 7.2,6.7 3.2,0 6.7,-0.8 9.6,-2 v 4.8 c -3.4,1.3 -7.4,2.1 -11.9,2.1 -7.8,0 -11.4,-3.4 -11.4,-11 0,-13.2 7.4,-24.1 18.6,-24.1 7.2,0 10,3.6 10,7.7 0,7.2 -7.5,11.3 -22.1,11.9 m -17.6,14.8 h -5.9 l 4.1,-21.7 c 1,-5.3 0,-7.6 -3,-7.6 -6.3,0 -13.2,13.3 -14.8,21.7 l -1.5,7.6 h -6 L 84.8,308 h 6 l -3.1,15.8 c -0.5,2.7 -1.4,5.9 -3.8,13.4 v 0 c 3.2,-7.2 8.6,-14.1 15.6,-14.1 6.3,0 8.5,4.5 7.2,11.5 l -4.5,23.1 z M 76.2,317 h -13 l -7.9,40.8 H 49.2 L 57.1,317 H 44 l 1,-5.2 h 32.2 z m 656.5,-44.7 c -19.6,0 -44.1,-3.2 -56.4,-6.9 l 9.7,-40 c 8.8,4 28.6,10.3 46.7,10.3 22,0 37.8,-9.5 37.8,-28.6 0,-16.3 -10.1,-24.9 -37.8,-35.8 -28.6,-11.2 -52.4,-24.9 -52.4,-65.5 0,-39.92 31.5,-61.8 79.4,-61.8 20.2,0 41.1,3.96 52.6,7.93 L 803,90.88 c -8,-4.6 -24.5,-10.3 -43.3,-10.3 -23.3,0 -33.6,8.8 -33.6,24.02 0,15.5 11.4,21.2 36.5,32 33.9,14.7 55.5,29.2 55.5,67.6 0,42.4 -33.2,68.1 -85.4,68.1 z M 579,172.2 h -26.4 v 64 h 27.8 c 21.7,0 38.6,-8.5 38.6,-32.2 0,-21.8 -15.7,-31.8 -40,-31.8 z m 0.4,-91.32 H 552.8 V 139 h 24.6 c 18.5,0 34.6,-10 34.6,-30.1 0,-18.92 -11.4,-28.02 -32.6,-28.02 z m 2.3,189.42 H 509.6 V 46.81 h 75.8 c 43.5,0 72.1,21.27 72.1,58.49 0,26.3 -17.4,41.1 -34.1,47.7 22.9,6 41.5,21.7 41.5,51.2 0.1,39 -30,66.1 -83.2,66.1 z M 399.2,81.18 H 377.1 V 145 h 17.2 c 23.2,0 40,-10 40,-31.8 0,-19.22 -12.2,-32.02 -35.1,-32.02 z m 41.4,189.12 c -13.4,-27.1 -37.7,-70.1 -52,-92.4 h -11.5 v 92.4 H 334.2 V 46.81 h 70.7 c 46.6,0 74.4,22.27 74.4,66.99 0,30.6 -22,49.5 -45.2,57.3 14.9,20.2 43.5,70.1 57.8,99.2 z M 252.3,154.2 h -36.4 c -7.7,0 -14.8,-4.7 -17.1,-11.5 -6.6,-19.2 -25.5,-26 -25.5,-26 -6.8,-2.6 -12,-9.2 -12,-17.22 v -36.3 c 0,-10.03 8.3,-18.03 18.3,-18.03 10,0 18,7.43 18,18.03 l -0.4,29.2 42.1,-42.11 c 7.1,-7.14 18.6,-7.14 25.7,0 7.2,7.13 7.2,18.91 0,26.01 l -41.5,41.22 h 28.6 c 10,0 18.3,8.3 18.3,18.3 0,10.1 -8.3,18.4 -18.3,18.4 z m -0.5,44 -29.1,-0.3 42.1,42 c 7.1,7.2 7.1,18.6 0,25.8 -7.2,7.2 -18.6,7.2 -25.7,0 l -41.5,-41.5 v 28.6 c 0,10.9 -8.3,18.4 -18.4,18.4 -10,0 -18.3,-8.3 -18.3,-18.4 v -36.3 c 0,-7.7 4.9,-14.8 11.7,-17.1 19.2,-6.6 25.8,-25.5 25.8,-25.5 2.5,-6.8 9.4,-12 17.1,-12 h 36.3 c 10.1,0 18.4,8.3 18.4,18.3 0,9.9 -7.4,18 -18.4,18 z m -116.9,72.7 c -10,0 -18.1,-6.7 -17.8,-18.1 l 0.5,-29.2 -42.1,42.1 c -7.1,7.2 -18.9,7.2 -25.8,0 -7.1,-7.2 -7.1,-18.8 0,-25.8 L 90.9,198.5 H 62.6 c -10.3,0 -18.3,-8.3 -18.3,-18.3 0,-10 8,-18.3 18.3,-18.3 H 99 c 7.7,0 14.5,4.5 17.2,11.4 6.5,19.5 25.1,26.1 25.1,26.1 7.2,2.5 12.1,9.1 12.1,17.1 v 36.3 c 0,10.1 -8.1,18.1 -18.4,18.1 z M 141.5,117 c -19.2,6.8 -25.8,25.4 -25.8,25.4 -2.5,6.9 -9.5,12 -17.2,12 H 62.3 C 52.2,154.4 44,146.2 44,136.1 44,126.1 50.7,118 62.3,118 l 29.1,0.4 -42,-42.12 c -7.2,-7.1 -7.2,-18.59 0,-25.65 7.1,-7.21 18.6,-7.21 25.7,0 l 41.4,41.45 v -28.6 c 0,-10.04 8,-18.33 18.4,-18.33 10,0 18,8.29 18,18.33 v 36.3 c 0,7.72 -4.6,14.92 -11.4,17.22" id="path3429"></path><metadata id="metadata4237"><rdf:rdf><cc:work rdf:about=""><dc:title></dc:title><dc:format>image/svg+xml</dc:format><dc:type rdf:resource="http://purl.org/dc/dcmitype/StillImage"></dc:type></cc:work></rdf:rdf></metadata></svg>