<?xml version="1.0"?>

<!-- Generator: Adobe Illustrator 19.2.0, SVG Export Plug-In . SVG Version: 6.00 Build 0)  -->
<svg version="1.1" id="Layer_1" xmlns="http://www.w3.org/2000/svg" xmlns:xlink="http://www.w3.org/1999/xlink" x="0px" y="0px" width="612px" height="324px" viewBox="0 0 612 324" style="enable-background:new 0 0 612 324;" xml:space="preserve">
<path d="M328.4,222.4l14.7-34.4l14.7,34.4H328.4z M352.5,144c-0.3-0.7-1.1-1.2-1.9-1.2h-17.9c-0.7,0-1.6,0.6-1.9,1.2l-60.8,144.1
	h28.9c0.7,0,1.6-0.6,1.9-1.2l16.9-39.5h50.8l16.9,39.5c0.3,0.7,1.1,1.2,1.9,1.2h28.9L352.5,144z M275.3,248.8
	c0,11.5-4.7,22-13.3,29.6c-8.4,7.4-20.1,11.5-32.8,11.5c-17.1,0-31.3-4.3-44.6-13.4l-1.6-1.1V243c0-0.7,0.6-1.3,1.3-1.3
	c0.4,0,0.8,0.2,1.1,0.5c5.4,7.1,19.8,22.7,41.3,22.7c15.4,0,21.2-8.5,21.2-13.8c0-11.2-12.8-18.2-27.5-26.3
	c-17.9-9.8-38.2-21-38.2-43.4c0-12.1,4.8-22.4,14-29.7c8.9-7.1,21.2-10.8,35.7-10.8c12.3,0,24.7,3.5,35.7,10.2l1.7,1v29.1
	c0,0.7-0.6,1.3-1.3,1.3c-0.3,0-0.6-0.1-0.8-0.3c-5.2-4.9-19.3-16.5-37.1-16.5c-12.1,0-20.5,5.3-20.5,12.8c0,9.4,11.5,15.3,24.8,22.1
	C252.6,210.2,275.3,221.9,275.3,248.8 M118.7,196.6c-4.3,4.3-11.6,6.5-22,6.5H86.3v-36.2h10.4c23.3,0,26.1,9.9,26.3,17.3
	C123.2,189.4,121.7,193.6,118.7,196.6 M179.1,279.7c-8.9-11.2-12.6-15.8-18.5-24.5l-0.5-0.7c-9.7-14.5-17.7-26.3-28.9-34.8
	c14-7.1,21.6-19.2,21.6-34.5c0-12.9-5.1-23.6-14.8-31.2c-9.4-7.3-22.8-11.1-38.7-11.1H57.3v145.3h27.2c1,0,1.8-0.8,1.8-1.8v-58.2
	h5.5c9.4,0,17.7,2.2,37.4,30.1l20.1,28.4c0.6,0.8,1.8,1.5,2.8,1.5h33.6L179.1,279.7z"></path>
<path d="M429.4,184.9c-0.4,0.7-0.2,1.5,0.4,2l1.2,0.8c0.6,0.4,1.5,0.3,2-0.3l3.2-3.7c-1.3-1.3-2.5-2.6-3.7-4L429.4,184.9z
	 M445.4,194.2c-0.2,0.7,0.1,1.5,0.8,1.8l1.1,0.4c0.7,0.3,1.6,0,1.9-0.7l0.8-1.5c-1.3-0.8-2.6-1.6-3.9-2.4L445.4,194.2z M415.8,172.5
	c-0.5,0.6-0.5,1.5,0,2l1.1,1.2c0.5,0.6,1.4,0.6,2.1,0.2l7-5.3c-1.1-1.9-2.2-3.8-3.1-5.8L415.8,172.5z M545.5,88.1
	c-0.1-0.7-0.7-1.1-1.4-0.9l-5.2,1.2l6.2-4.4c-0.4-3.6-1.1-7.1-2.1-10.5c-0.2-0.7-0.9-1-1.6-0.7l-9.8,4.6l9.3-10
	c-1.1-2.9-2.5-5.7-4-8.4c-0.4-0.7-1.2-0.8-1.8-0.4l-12.9,9.7l9.9-16.5c-1.6-2.2-3.4-4.2-5.3-6.2c-0.5-0.5-1.3-0.4-1.8,0.1
	l-13.7,15.8l7.8-22.7c-1.9-1.4-3.9-2.8-5.9-4c-0.6-0.4-1.5-0.1-1.8,0.5v0l-12,21.8l3.3-26c0.1-0.7-0.4-1.5-1.1-1.8
	c-1.6-0.6-3.1-1.1-4.7-1.5h0c-0.7-0.2-1.5,0.2-1.7,0.9l-8.1,26.7l0,0l-2.4-28.7c-0.1-0.8-0.7-1.4-1.5-1.4h-4.4
	c-0.8,0-1.4,0.6-1.5,1.4l-2.5,29.6l-8.5-28.5c-0.2-0.7-1-1.2-1.8-1l-4.1,0.9c-0.7,0.2-1.3,0.9-1.2,1.7l3.9,30.4l-14.7-26.9
	c-0.4-0.7-1.2-1-1.9-0.7l-3.6,1.6c-0.7,0.3-1.1,1.1-0.8,1.9l10.5,29.8l-20.5-24c-0.5-0.6-1.4-0.7-2-0.2l-3,2.2
	c-0.6,0.4-0.8,1.3-0.4,2l17,27.8l-25.8-19.8c-0.6-0.5-1.5-0.4-2,0.2l-2.3,2.5c-0.5,0.6-0.5,1.5,0,2L437,82.3l-30.2-14.5
	c-0.7-0.3-1.6-0.1-1.9,0.6l-1.6,2.7c-0.4,0.7-0.2,1.6,0.4,2l28.5,19.4l-33.5-8.2c-0.7-0.2-1.5,0.3-1.8,1l-0.9,2.8
	c-0.2,0.7,0.1,1.6,0.9,1.8l29.6,12.1c10.5-17.1,28.6-29.3,50.1-31.4c1.5-0.2,3-0.2,4.6-0.2c24.2,0,43.7,19.6,43.7,43.8
	c0,22.9-17.7,41.8-40.1,43.6l0,0c23.1-1.9,42.4-15.4,52.7-34.3C543.2,113,546.2,100.9,545.5,88.1 M417.8,148.5l-12.8,9
	c-0.6,0.4-0.8,1.3-0.4,2l1,1.6c0.4,0.7,1.3,0.9,2,0.6l12.1-5.6C418.8,153.7,418.2,151.2,417.8,148.5 M393.7,107.9l27.4,4.9
	c1.3-3.3,2.8-6.5,4.6-9.5l-31.4-1c-0.8,0-1.4,0.6-1.5,1.3l-0.3,2.6C392.4,107,393,107.7,393.7,107.9 M420,116l-26.3,4.7
	c-0.7,0.1-1.3,0.9-1.2,1.6l0.3,2.4c0.1,0.8,0.8,1.4,1.5,1.3l23.4-0.8C418.2,122.1,419,119,420,116 M416.8,132.4l-19.2,8.3
	c-0.7,0.3-1.1,1.1-0.8,1.9l0.7,2c0.3,0.7,1.1,1.2,1.8,1l17.6-4C416.6,138.5,416.6,135.4,416.8,132.4"></path>
<path d="M565.4,138.5l-29.5-12.1c-10.5,17.1-28.5,29.2-49.9,31.3v0c-1.6,0.2-3.2,0.3-4.8,0.3c-24.2,0-43.7-19.6-43.7-43.7
	c0-22.6,17.2-41.2,39.2-43.5c-35.8,3.5-62.3,34.9-59.7,70.8l6.5-1.5l-5.1,3.6c0,0,0,0,0,0l0,0c-0.6,0.4-1,1.4-0.9,2.2l0,0l0,0
	c0.5,3.5,1.3,7,2.3,10.3l11-5.1l-8.4,9.1h0c-0.5,0.6-0.7,1.6-0.4,2.3c0,0,0,0,0,0c1.2,2.9,2.6,5.6,4.2,8.2l14-10.5l-9.3,15.4
	c-0.4,0.7-0.3,1.6,0.2,2.2c1.7,2.1,3.5,4.1,5.4,6l14.6-16.8l-7.4,21.5c-0.2,0.7,0.1,1.5,0.7,2v0c1.9,1.4,3.9,2.7,5.9,3.8l12.7-23
	l-3.3,26c-0.1,0.7,0.4,1.5,1.1,1.8c1.6,0.6,3.1,1.1,4.7,1.5h0c0.7,0.2,1.5-0.2,1.7-0.9l8.1-26.7c0,0,0,0,0,0l2.4,28.7
	c0.1,0.8,0.7,1.4,1.5,1.4h4.4c0.8,0,1.4-0.6,1.5-1.4l2.5-29.6l8.5,28.5c0.2,0.7,1,1.2,1.7,1l4.1-0.9c0.7-0.2,1.3-0.9,1.2-1.7
	l-3.9-30.4l14.7,26.9c0.4,0.7,1.2,1,1.9,0.7l3.6-1.6c0.7-0.3,1.1-1.2,0.8-1.9L509.5,163l20.5,24c0.5,0.6,1.4,0.7,2,0.2l3-2.2
	c0.6-0.4,0.8-1.3,0.4-2l-17-27.8l25.8,19.8c0.6,0.5,1.5,0.4,2-0.2l2.3-2.5c0.5-0.6,0.5-1.5,0-2l-23.1-24.3l30.2,14.5
	c0.7,0.3,1.6,0.1,1.9-0.6l1.6-2.7c0.4-0.7,0.2-1.6-0.5-2l-28.5-19.4l33.5,8.2c0.7,0.2,1.5-0.3,1.8-1l0.9-2.8
	C566.5,139.6,566.1,138.7,565.4,138.5 M568.6,120.6l-27.4-4.9c-1.3,3.3-2.8,6.5-4.6,9.5l31.4,1c0.8,0,1.4-0.6,1.5-1.3l0.3-2.7
	C569.9,121.4,569.3,120.7,568.6,120.6 M520.3,35.9c0.2-0.7-0.1-1.6-0.8-1.9l-1.1-0.5c-0.7-0.3-1.6,0-1.9,0.6l-1.1,2
	c1.3,0.9,2.6,1.8,3.9,2.7L520.3,35.9z M542.3,112.4l26.2-4.7c0.7-0.1,1.3-0.9,1.2-1.6l-0.3-2.4c-0.1-0.8-0.8-1.4-1.5-1.3l-23.4,0.8
	C544.1,106.3,543.3,109.4,542.3,112.4 M545.1,100.3l20.7-8.9c0.7-0.3,1.1-1.1,0.9-1.9l-0.6-2.1c-0.2-0.7-1-1.2-1.8-1l-18.7,4.3
	C545.6,93.9,545.5,97.1,545.1,100.3 M549,58.7c0.5-0.6,0.5-1.5,0-2.1l-1.1-1.3c-0.5-0.6-1.4-0.7-2-0.2l-7.8,5.9c1.1,2,2,4.1,2.9,6.2
	L549,58.7z M545.1,84l14-9.8c0.6-0.4,0.8-1.3,0.5-2l-0.9-1.7c-0.4-0.7-1.2-0.9-1.9-0.6l-13,6.1C544.3,78.5,544.8,81.2,545.1,84
	 M532.2,51.8c-1.1-1.5-2.4-3-3.6-4.4l3.7-4.3c0.5-0.6,1.4-0.7,2-0.2l1.1,0.9c0.6,0.5,0.8,1.4,0.4,2L532.2,51.8z"></path>
</svg>
