<?xml version="1.0"?>

<!-- Generator: Adobe Illustrator 19.1.0, SVG Export Plug-In . SVG Version: 6.00 Build 0)  -->
<svg version="1.1" id="Layer_1" xmlns="http://www.w3.org/2000/svg" xmlns:xlink="http://www.w3.org/1999/xlink" x="0px" y="0px" width="239.256px" height="200px" viewBox="-179 0 239.256 200" enable-background="new -179 0 239.256 200" xml:space="preserve">
<g>
	<path d="M13.058,131.388H7.517c-0.071-12.49-0.427-21.835-1.068-28.049c-1.062-10.254-2.88-22.356-5.438-36.316
		c-2.77-15.626-4.162-25.848-4.162-30.664c0-6.066,1.237-10.619,3.735-13.652c2.486-3.036,5.761-4.551,9.813-4.551
		c4.195,0,7.509,1.447,9.917,4.337c2.421,2.9,3.625,7.412,3.625,13.555c0,5.231-1.418,15.562-4.26,30.975
		c-2.557,13.542-4.273,24.754-5.12,33.648C13.698,109.566,13.2,119.807,13.058,131.388 M10.397,154.2c3.625,0,6.7,1.259,9.224,3.774
		c2.525,2.505,3.787,5.544,3.787,9.108c0,3.418-1.282,6.376-3.839,8.891c-2.563,2.515-5.619,3.764-9.173,3.764
		s-6.596-1.224-9.121-3.658c-2.531-2.447-3.787-5.444-3.787-8.998c0-3.632,1.236-6.68,3.729-9.16
		C3.71,155.446,6.772,154.2,10.397,154.2"></path>
	<path d="M-55.301,33.084l9.846-13.678h7.988l0.66,57.162h-7.231c-4.518-17.533-11.205-30.331-20.067-38.39
		c-8.862-8.066-19.057-12.089-30.573-12.089c-9.626,0-17.504,2.793-23.634,8.386c-6.124,5.593-9.192,12.422-9.192,20.488
		c0,5.023,1.172,9.428,3.502,13.212c2.331,3.787,5.807,6.868,10.441,9.237c4.622,2.372,13.354,4.894,26.198,7.564
		c18.022,3.797,30.664,7.642,37.914,11.529c7.256,3.887,12.675,8.787,16.248,14.691c3.574,5.904,5.36,12.814,5.36,20.734
		c0,14.138-4.907,25.861-14.714,35.157c-9.801,9.295-22.482,13.943-38.018,13.943c-16.701,0-31.214-5.23-43.54-15.698
		l-12.363,14.638h-7.872v-60.765h7.872c3.068,16.759,9.923,29.975,20.572,39.662c10.642,9.69,22.65,14.529,35.992,14.529
		c10.791,0,19.595-3.091,26.418-9.283c6.823-6.185,10.234-13.691,10.234-22.531c0-5.023-1.282-9.425-3.832-13.205
		c-2.557-3.781-6.596-6.965-12.144-9.545c-5.541-2.58-16.449-5.71-32.71-9.383c-17.873-4.104-30.049-8.697-36.542-13.788
		c-9.115-7.211-13.672-17.432-13.672-30.651c0-13.788,4.544-25.084,13.62-33.881c9.082-8.804,20.689-13.206,34.839-13.206
		c6.791,0,13.244,1.165,19.368,3.502C-68.209,23.756-61.865,27.646-55.301,33.084"></path>
</g>
</svg>
