<?xml version="1.0"?>

<!-- Generator: Adobe Illustrator 19.1.0, SVG Export Plug-In . SVG Version: 6.00 Build 0)  -->
<svg version="1.1" id="Capa_1" xmlns="http://www.w3.org/2000/svg" xmlns:xlink="http://www.w3.org/1999/xlink" x="0px" y="0px" width="378.4px" height="243.2px" viewBox="-450 199.8 378.4 243.2" style="enable-background:new -450 199.8 378.4 243.2;" xml:space="preserve">

<path class="st0" d="M-289.7,366.9c-2,0-3.7,1.7-3.7,3.7s1.7,3.7,3.7,3.7c1.3,0,2.6-0.7,3.2-1.6h6c-3.8,4-9.4,3.9-9.4,3.9
	c-10.5,0-10.8-4.7-10.8-5.9c0-1.2,1-5.5,10.6-5.5c8.8,0,9.6,3.6,9.6,3.6h-6C-287.1,367.7-288.4,366.9-289.7,366.9z"></path>
<path class="st0" d="M-276.6,365.4h6.3v4h6.3v-4.1h6.3v11.2h-6.5v-5.2h-6.2v5.2h-6.2L-276.6,365.4L-276.6,365.4z"></path>
<path class="st0" d="M-253.4,365.2h7.6v11.3h-7.6V365.2L-253.4,365.2z"></path>
<path class="st0" d="M-241.9,365.4h7.7v9.4h8.6v1.8H-242L-241.9,365.4L-241.9,365.4z"></path>
<path class="st0" d="M-205.3,366.9h-10.4v3.2h9.1v1.6h-9.1v3.2h10.7v1.6h-17.1v-11.2h16.8V366.9z"></path>
<path class="st0" d="M-390,369.6h83.2v2.2H-390V369.6L-390,369.6z"></path>
<path class="st0" d="M-348.4,370.7"></path>
<path class="st0" d="M-200.8,369.6h83.2v2.2h-83.2V369.6L-200.8,369.6z"></path>
<path class="st0" d="M-315.3,261.7v34.6h-12.2c0,0-2-10.2-6.9-14.9c-4.9-4.7-12.2-9.5-20.9-8.5c-8.7,0.9-12.7,5.8-11.8,11.6
	s3.3,8.7,15.3,10.9c12,2.2,20,2.9,32,10.7c12,7.8,9.3,27.8,7.6,31.3c-1.6,3.5-7.6,20.4-36,19.8c0,0-10.9,1.3-27.8-8.2
	c0,0-2,3.6-2.7,6.7h-11.4v-36.2h12.6c0,0,2.5,16.6,16.4,22.2c13.8,5.6,26.4-0.5,26.4-8.9c0-8.4-9.1-11.1-28.7-14.6
	c-19.8-3.4-28.7-16.3-27.6-29.6c0,0-0.5-12.4,8.6-20.2c9.1-7.8,20.4-8.6,28-8.6s17.6,1.3,25.6,7.8c0,0,2.2-2.4,2.5-6h11V261.7z"></path>
<path class="st0" d="M-238.7,342.7c-13.6,0.6-16.7-1.6-16.7-1.6s3.7-5.5,6.6-10.6c2.9-5.1,8.4-3.5,8.4-3.5v-8h-24.7l-0.4,7.8
	c0,0,5.2-0.5,6.4,1.4c1.1,1.9-2.4,5.4-2.4,5.4l-10.9-14.8c3.1-1.4,8.9-6.5,9.4-13c0.5-6.6-1.4-15.6-15.1-15.6
	c-13.7,0-14.8,13.9-14.8,13.9c-0.7,6.9,3.2,12,3.2,12c-4.6,1.1-11.4,5.3-13.5,11.3c-2.6,7.6-0.2,16,2.4,19.5c3.7,4.8,9.4,9,19.3,9.1
	c11.3,0.1,16.2-4.7,16.2-4.7c8.9,6,27.3,1.8,27.3,1.8L-238.7,342.7z M-280.5,302c0.3-1.9,2.4-4.1,4.9-3.8c2.5,0.3,5.7,3.7,3.9,7.2
	s-5.1,4.9-5.1,4.9l-2.9-5C-279.7,305.3-280.8,303.9-280.5,302z M-287.4,340.8c-6.2-8.5,1.8-15.8,1.8-15.8l13.6,18.4
	C-272,343.4-280.4,350.1-287.4,340.8z"></path>
<path class="st0" d="M-140,335.8c-2.5-7.8-23.3-76.9-23.3-76.9h-26.4l-22.5,73.9c0,0-2.7,9.6-10.7,9.6c-1.7,0-4.9-0.1-4.9-0.1v12.5
	l41.1,0.2v-13.1h-7.1c0,0-6.3,0.2-4.5-4.5l3.5-13.3h25.8l3.3,11.8c0,0,2.2,5.8-1.8,5.8h-8.7v12.9h47.7V342
	C-128.5,342-137.4,343.6-140,335.8z M-191.5,311.3l9.1-29.1l9.9,29.1H-191.5z"></path>
</svg>
