<svg  xmlns="http://www.w3.org/2000/svg"  viewbox="0 0 1024 725"
   height="723.3"
   width="1023">
   <path
     d="M 273.4,12 C 166.3,12 79.35,98.8 79.35,205.8 c 0,27.4 5.83,53.4 16.08,77 C 45.48,312 12,366.5 12,428.8 c 0,93.1 74.61,168.5 166.7,168.5 11.8,0 23.2,-1.3 34.3,-3.6 25.3,68.6 91.2,117.6 168.6,117.6 74.2,0 137.9,-45.1 165.3,-109.4 20.8,10.1 44.2,15.8 68.9,15.8 58.9,0 110.4,-32.5 137.3,-80.7 13.8,2.8 27.9,4.2 42.4,4.2 119,0 215.5,-97.3 215.5,-217.3 0,-119.9 -96.5,-217.1 -215.5,-217.1 -31,0 -60.4,6.6 -87,18.5 C 677.9,70.7 620.4,33.9 554.4,33.9 504.8,33.9 459.9,54.7 427.7,88.3 392.3,42 336.3,12 273.4,12 Z m 320.4,244.1 c 3,0 5.7,0.2 7.9,0.6 2.2,0.4 3.9,0.8 5.7,1.4 0.4,0.2 1.5,0.7 1,3.6 l -4.4,12.1 c -0.4,0.9 -0.6,1.5 -2.5,0.9 -0.5,-0.1 -1.2,-0.3 -3,-0.7 -1.3,-0.3 -3,-0.5 -4.7,-0.5 -2.3,0 -4.4,0.3 -6.3,0.9 -1.7,0.6 -3.4,1.6 -4.8,3 -1.4,1.5 -3.2,3.6 -4.1,6.2 -2,6.1 -3,12.7 -3,13.1 l 18.5,0 c 1.5,0 2,0.7 1.9,1.8 l -2.2,12.1 c -0.3,1.7 -1.9,1.7 -1.9,1.7 l -19.1,0 -13,73.8 c -1.4,7.6 -3.1,14.2 -5.1,19.4 -2,5.4 -4.2,9.3 -7.5,13 -3.2,3.4 -6.7,5.9 -10.7,7.5 -4.1,0.7 -8.9,2.1 -14.3,2.1 -2.5,0 -5.2,0 -8.4,-1.4 -2.4,0 -3.6,-1.4 -5.3,-1.4 -0.7,-0.3 -1.3,-1 -0.9,-2.4 0.4,-1.2 3.9,-10.3 4.3,-11.7 0.6,-1.4 2.1,-1.4 2.1,-1.4 1,1.4 1.7,1.4 3.1,1.4 l 4.7,0 c 2.5,0 4.8,0 6.8,-1.4 2.4,-0.9 3.8,-2.3 5.3,-4.1 1.5,-2 2.7,-4.7 4,-8.3 1.3,-3.6 2.5,-8.4 3.5,-14.2 l 13,-72.5 -12.8,0 c -1.6,0 -2,-0.7 -1.9,-1.9 l 2.2,-12 c 0.3,-1.7 1.9,-1.7 1.9,-1.7 l 13.1,0 0.8,-3.9 c 1.9,-11.6 5.8,-20.5 11.6,-26.3 5.8,-5.8 14,-8.8 24.5,-8.8 z m -262.1,2 15.3,0 c 1,0 1.7,0.8 1.7,1.7 l 0,123.6 c 0,1 -0.7,1.8 -1.7,1.8 l -15.3,0 c -1,0 -1.7,-0.8 -1.7,-1.8 l 0,-123.6 c 0,-1 0.7,-1.7 1.7,-1.7 z m -140.7,35.1 2,0 c 11,0 21.7,3.2 29.4,8 0.7,0.4 1.4,1.2 1,2.3 -0.4,1 -3.8,10.2 -4.2,11.2 -0.7,1.9 -2.7,0.6 -2.7,0.6 -6.7,-3.8 -17.2,-6.7 -26,-6.7 -8,0 -13.1,4.2 -13.1,9.9 l 0,0.3 c 0,6.7 8.8,9.6 18.9,12.9 l 1.8,0.6 c 13.5,4.2 27.8,10.1 27.8,26.4 l 0,0.2 c 0,17.6 -12.7,28.5 -33.2,28.5 -10.1,0 -19.7,-1.6 -29.9,-7 -1.9,-1.1 -3.8,-2.1 -5.7,-3.4 -0.2,-0.3 -1,-0.7 -0.4,-2.3 l 4,-11.2 c 0.7,-1.9 2.1,-1.3 2.7,-0.9 1.1,0.6 2,1.2 3.4,2.1 11.9,7.5 23,7.6 26.4,7.6 8.9,0 14.4,-4.7 14.4,-11.1 l 0,-0.3 c 0,-7 -8.5,-9.6 -18.3,-12.6 l -2.2,-0.7 c -13.5,-3.9 -28,-9.5 -28,-26.6 l 0,-0.3 c 0,-16.2 13.1,-27.5 31.9,-27.5 z m 300,0 2,0 c 11,0 21.7,3.2 29.4,8 0.7,0.4 1.4,1.2 1,2.3 -0.4,1 -3.8,10.2 -4.2,11.2 -0.7,1.9 -2.7,0.6 -2.7,0.6 -6.7,-3.8 -17.2,-6.7 -26,-6.7 -8,0 -13.1,4.2 -13.1,9.9 l 0,0.3 c 0,6.7 8.8,9.6 18.9,12.9 l 1.8,0.6 c 13.5,4.2 27.8,10.1 27.8,26.4 l 0,0.2 c 0,17.6 -12.7,28.5 -33.2,28.5 -10.1,0 -19.7,-1.6 -29.9,-7 -1.9,-1.1 -3.8,-2.1 -5.7,-3.4 -0.2,-0.3 -1,-0.7 -0.4,-2.3 l 4,-11.2 c 0.6,-1.8 2.4,-1.2 2.7,-0.9 1.1,0.7 2,1.2 3.4,2.1 11.9,7.5 23,7.6 26.4,7.6 8.9,0 14.5,-4.7 14.5,-11.1 l 0,-0.3 c 0,-7 -8.6,-9.6 -18.4,-12.6 l -2.2,-0.7 c -13.5,-3.9 -28,-9.5 -28,-26.6 l 0,-0.3 c 0,-16.2 13.1,-27.5 31.9,-27.5 z m -215.7,0.1 c 11.6,0 20.5,2.7 26.6,8 6.1,5.3 9.2,14 9.2,25.6 l 0,52.9 c 0,0 0.2,1.6 -1.3,1.9 0,0 -2.1,0.6 -4,1 -2,0.5 -8.9,1.9 -14.6,2.9 -5.8,1 -11.7,1.4 -17.6,1.4 -5.6,0 -10.8,-0.5 -15.3,-1.5 -4.6,-1.1 -8.6,-2.8 -11.8,-5.1 -3.3,-2.4 -5.8,-5.4 -7.6,-9.1 -1.8,-3.6 -2.6,-8.1 -2.6,-13.2 0,-5.1 1,-9.5 3.1,-13.4 2,-3.8 4.8,-7 8.3,-9.5 3.5,-2.5 7.6,-4.4 12.1,-5.6 4.5,-1.2 9.3,-1.9 14.3,-1.9 3.6,0 6.7,0.1 9,0.3 0,0 4.6,0.4 9.6,1.1 l 0,-2.4 c 0,-7.7 -1.6,-11.4 -4.9,-13.7 -3.2,-2.5 -8,-3.7 -14.3,-3.7 0,0 -14.1,-0.2 -25.2,5.8 -0.5,0.3 -1,0.5 -1,0.5 0,0 -1.3,0.4 -1.8,-1 l -4.1,-11 c -0.6,-1.6 0.5,-2.4 0.5,-2.4 5.2,-4 17.9,-6.5 17.9,-6.5 4.2,-0.8 11.2,-1.4 15.5,-1.4 z m 521.9,0 c 4.8,0 9.1,0.3 12.8,0.9 4,0.6 9.2,2 11.4,2.9 0.4,0.1 1.5,0.7 1.1,2 -1.6,4.5 -2.7,7.5 -4.2,11.7 -0.7,1.7 -2,1.1 -2,1.1 -5.6,-1.7 -11,-2.6 -18.1,-2.6 -8.4,0 -14.8,2.9 -19,8.4 -4.2,5.5 -6.5,12.8 -6.5,22.5 0,10.6 2.6,18.5 7.3,23.4 4.7,4.8 11.3,7.3 19.6,7.3 3.4,0 6.5,-0.2 9.4,-0.7 2.8,-0.4 5.4,-1.3 7.9,-2.2 0,0 1.6,-0.7 2.2,1 l 4.2,11.6 c 0.5,1.4 -0.7,2 -0.7,2 -6.5,2.6 -15.5,4.4 -24.2,4.4 -14.8,0 -26.2,-4.3 -33.8,-12.7 -7.5,-8.4 -11.4,-19.9 -11.4,-34.1 0,-6.6 1,-12.8 2.8,-18.4 1.9,-5.7 4.7,-10.7 8.3,-14.9 3.7,-4.2 8.4,-7.5 13.8,-9.9 5.5,-2.4 11.9,-3.7 19.1,-3.7 z m -389.3,0.1 c 6.2,0 11.9,1.3 16.6,3.4 3.6,1.5 7.2,4.3 11,8.3 2.3,2.6 5.9,8.1 7.4,13.6 l -0.1,-0.1 c 3.7,13.1 1.8,24.4 1.8,25 -0.2,1.5 -1.7,1.5 -1.7,1.5 l -57.9,0 c 0.3,8.8 2.4,15 6.7,19.3 4.2,4.1 10.8,6.7 19.8,6.8 13.8,0 19.6,-2.8 23.8,-4.3 0,0 1.6,-0.6 2.2,1 l 3.8,10.6 c 0.8,1.8 0.1,2.5 -0.5,2.8 -3.6,2 -12.4,5.8 -29.1,5.8 -8.2,0 -15.2,-1.2 -21,-3.4 -5.9,-2.3 -10.8,-5.6 -14.6,-9.7 -3.8,-4.1 -6.6,-9.1 -8.4,-14.7 -1.8,-5.6 -2.6,-11.8 -2.6,-18.5 0,-6.6 0.8,-12.8 2.5,-18.5 1.7,-5.7 4.3,-10.8 7.9,-15 3.5,-4.3 8,-7.7 13.3,-10.2 5.3,-2.5 11.9,-3.7 19.1,-3.7 z m 231.5,0 c 6.9,0 13.1,1.2 18.3,3.7 5.2,2.4 9.6,5.8 13.1,10 3.5,4.1 6.1,9.1 7.8,14.8 1.7,5.7 2.5,11.9 2.5,18.4 0,6.5 -0.8,12.7 -2.5,18.4 -1.7,5.7 -4.3,10.7 -7.8,14.8 -3.5,4.2 -7.9,7.6 -13.1,9.9 -5.3,2.5 -11.4,3.6 -18.3,3.6 -7,0 -13.1,-1.2 -18.4,-3.6 -5.2,-2.3 -9.6,-5.7 -13.1,-9.9 -3.5,-4.1 -6.1,-9.2 -7.8,-14.8 -1.7,-5.6 -2.5,-11.8 -2.5,-18.4 0,-6.6 0.8,-12.7 2.5,-18.4 1.7,-5.6 4.3,-10.7 7.8,-14.8 3.5,-4.2 7.9,-7.6 13.1,-10 5.2,-2.5 11.4,-3.7 18.4,-3.7 z m 232.2,0 c 6.2,0 11.9,1.3 16.6,3.4 3.6,1.5 7.2,4.3 11,8.3 2.3,2.6 5.9,8.1 7.4,13.6 l 0,-0.1 c 3.7,13.1 1.7,24.4 1.7,25 -0.1,1.5 -1.7,1.5 -1.7,1.5 l -57.9,0 c 0.4,8.8 2.5,15 6.8,19.3 4.1,4.1 10.8,6.7 19.8,6.8 13.7,0 19.6,-2.8 23.7,-4.3 0,0 1.7,-0.6 2.2,1 l 3.8,10.6 c 0.8,1.8 0.1,2.5 -0.5,2.8 -3.6,2 -12.4,5.8 -29.1,5.8 -8.2,0 -15.2,-1.2 -21,-3.4 -5.9,-2.3 -10.8,-5.6 -14.6,-9.7 -3.8,-4.1 -6.6,-9.1 -8.4,-14.7 -1.8,-5.6 -2.6,-11.8 -2.6,-18.5 0,-6.6 0.8,-12.8 2.5,-18.5 1.7,-5.7 4.3,-10.8 7.9,-15 3.5,-4.3 8,-7.7 13.3,-10.2 5.3,-2.5 11.9,-3.7 19.1,-3.7 z M 737,294.3 c 0.8,0.1 1.7,0.1 2.6,0.2 3.8,0.2 8.8,1.2 9.7,1.6 0.4,0.2 1.3,0.8 0.9,2.1 -0.5,1.6 -3.4,9.5 -4.4,12.2 -0.3,1 -1,1.7 -2.1,1.5 0,0 -3.3,-0.8 -6.3,-0.8 -2.1,0 -5.1,0.3 -7.8,1.1 -2.6,0.8 -5,2.3 -7.1,4.3 -2.2,2.1 -3.8,5 -5.1,8.6 -1.4,3.6 -1.9,9.4 -1.9,15.1 l 0,43.2 c 0,0.9 -0.8,1.8 -1.8,1.8 l -15.2,0 c -0.9,0 -1.8,-0.8 -1.8,-1.8 l 0,-86.4 c 0,-0.9 0.7,-1.7 1.7,-1.7 l 14.8,0 c 1,0 1.7,0.8 1.7,1.7 l 0,7.1 c 2.2,-3 6.2,-5.6 9.8,-7.2 3.1,-1.5 6.7,-2.6 12.3,-2.6 z m -330.5,14.4 c -7.6,0 -13,3 -16.5,8.4 -2.4,3.6 -3.9,8.2 -4.7,13.7 l 41.3,0 c -0.4,-5.3 -1.5,-10.1 -3.8,-13.7 -3.6,-5.4 -8.7,-8.4 -16.3,-8.4 z m 463.7,0 c -7.6,0 -13,3 -16.5,8.4 -2.4,3.6 -3.9,8.2 -4.7,13.7 l 41.3,0 c -0.4,-5.3 -1.5,-10.1 -3.8,-13.7 -3.6,-5.4 -8.7,-8.4 -16.3,-8.4 z m -230.8,0.4 c -7.7,0 -13.1,2.6 -16.6,8 -3.6,5.5 -5.4,13.3 -5.4,23.2 0,9.9 1.8,17.7 5.4,23.3 3.5,5.4 8.9,8.1 16.6,8.1 7.6,0 13,-2.7 16.6,-8.1 3.7,-5.6 5.5,-13.4 5.5,-23.3 0,-9.9 -1.8,-17.7 -5.5,-23.2 -3.6,-5.4 -9,-8 -16.6,-8 z M 277,342.3 c -11.8,-0.1 -16.8,4.2 -16.8,4.2 -3.5,2.5 -5.2,6.1 -5.2,11.2 0,3.3 0.6,5.8 1.8,7.6 0.7,1.1 1,1.6 3.3,3.4 0,0 5.2,4.1 17,3.3 8.3,-0.5 15.6,-2 15.6,-2 l 0,-26.4 c 0,0 -7.4,-1.3 -15.7,-1.3 z" />

</svg>
