<?xml version="1.0"?>

<svg xmlns="http://www.w3.org/2000/svg" viewBox="0 0 1512.3 296.51" height="296.51" width="1512.3"> <path d="m 158.49,140.83 c 0,0 -13.84,-8.55 -22.42,-11.87 0,0 -26.51,-12.28 -31.77,-18.14 0,0 -10.334,-9.76 -4.28,-21.044 0,0 2.52,-7.4 13.44,-7.4 0,0 14.23,0.768 14.23,12.468 v 16.486 h 50.98 l -0.14,-24.29 c 0,0 3.9,-39.763 -60.03,-41.502 0,0 -4.81,-0.31 -11.88,0 0,0 -38.723,2.076 -52.566,23.319 -0.134,0.148 -0.188,0.269 -0.269,0.417 0,0 -5.648,6.026 -5.648,27.093 v 15.203 c 0,0 -0.579,17.54 8.384,28.85 0,0 5.068,7.41 17.55,15.59 0,0 25.327,13.64 40.529,21.45 0,0 15.37,8.76 13.35,22.71 0,0 -1.26,14.31 -16.07,13.73 0,0 -13.56,-0.62 -13.56,-14.65 V 182.77 H 43.999 v 23.95 c 0,0 -1.523,45.79 68.261,45.79 0,0 66.65,1.36 69.79,-46.99 v -19.48 c 0,0 2.33,-29.66 -23.6,-45.25 z m 835.47,56.54 c 0,0 0.67,15.97 -14.15,15.97 0,0 -15.51,0.83 -15.51,-15.58 L 964.17,51.374 h -55.4 V 196.58 c 0,0 -5.66,54.97 71.84,54.97 0,0 67.39,0.8 67.39,-52.45 V 51.374 h -54.04 z m 172.94,-69.92 53.6,118.4 h 60.3 V 51.24 h -51.2 l 3.6,118.44 h -2.1 L 1179.2,51.253 h -62 V 245.85 h 50.5 l -3.1,-118.4 z m 235.7,10.72 v 28.56 h 13.9 v 30.65 c 0,14.97 -12.8,15.26 -12.8,15.26 -15.6,0 -14.9,-14.24 -14.9,-14.24 V 92.364 c 0,-10.918 13.7,-11.511 13.7,-11.511 13.4,0 13.4,13.034 13.4,13.034 v 16.123 h 51 c 1.8,-31.462 -4.5,-39.091 -4.5,-39.091 -12.7,-28.454 -60.6,-26.904 -60.6,-26.904 -73.7,0 -65.5,56.535 -65.5,56.535 v 102.52 c 1.5,53.01 74.2,47.63 75.4,47.56 32.3,-3.57 42,-13.83 42,-13.83 9.1,-6.67 11.3,-15.89 11.3,-15.89 2.6,-5.37 3.3,-22.52 3.3,-22.52 v -60.24 h -65.7 z M 349.69,52.021 H 264.06 L 230.52,245.59 h 54.25 L 304.64,95.505 h 4.46 l 19.86,150.085 h 54.25 z m 138.66,47.891 h 3.96 l 26.72,145.868 h 53.02 L 598.44,99.966 h 3.51 l 1.23,145.854 h 50.65 L 648.38,51.213 H 564.09 L 547.02,158.15 h -3.99 L 526.74,52.17 H 441.6 l -4.26,193.65 h 50.4 z M 825,140.83 c 0,0 -13.86,-8.57 -22.43,-11.88 0,0 -26.51,-12.3 -31.78,-18.15 0,0 -10.33,-9.74 -4.29,-21.051 0,0 2.53,-7.4 13.45,-7.4 0,0 14.22,0.782 14.22,12.468 V 111.3 h 50.97 L 845,87.013 c 0,0 3.92,-39.763 -60.03,-41.516 0,0 -50.29,-3.302 -64.72,23.777 0,0 -5.66,6.039 -5.66,27.093 v 15.203 c 0,0 -0.58,17.55 8.39,28.85 0,0 5.06,7.41 17.55,15.59 0,0 25.34,13.64 40.54,21.46 0,0 15.35,8.76 13.33,22.7 0,0 -1.24,14.31 -16.06,13.73 0,0 -13.56,-0.62 -13.56,-14.65 v -16.47 h -54.31 v 23.94 c 0,0 -1.52,45.79 68.27,45.79 0,0 66.67,1.36 69.78,-46.99 v -19.48 c 0,0 2.35,-29.62 -23.56,-45.21 z"></path></svg>