 <svg 
   xmlns="http://www.w3.org/2000/svg"
   
   viewBox="0 0 250 70"
   
   width="250"
   height="70">
   
  <path
     d="m 220.201,47.293 0,-0.901 1.24,-0.226 c 0.713,-0.15 1.275,-0.713 1.275,-1.464 l 0,-10.026 c 0,-0.863 -0.413,-1.314 -1.164,-1.314 -0.262,0 -0.563,0.038 -0.862,0.15 l -0.489,0.188 0,-1.126 5.332,-2.328 0.789,0 0,3.642 c 1.351,-2.628 2.966,-3.717 4.805,-3.717 1.503,0 1.878,0.375 1.878,0.375 l 0,3.98 -0.751,0 c -0.187,-1.051 -0.901,-1.577 -2.027,-1.577 -1.201,0 -2.703,0.338 -3.755,2.516 l 0,9.236 c 0,0.751 0.751,1.352 1.464,1.464 l 1.804,0.226 0,0.901 -9.539,0 m -6.157,-11.226 0,-0.076 c 0,-2.815 -1.577,-4.167 -3.454,-4.167 -2.103,0 -3.68,1.389 -4.131,4.243 l 7.585,0 m -7.697,1.54 0,0.188 c -0.037,4.993 2.816,7.509 6.384,7.509 1.802,0 3.453,-0.676 4.769,-1.69 l 0,1.502 c -1.503,1.389 -3.793,2.553 -6.609,2.553 -5.856,0 -8.447,-4.393 -8.447,-8.56 0,-4.881 3.717,-8.861 8.522,-8.861 3.943,0 7.021,2.778 7.021,6.871 l 0,0.488 -11.64,0 z m -15.732,-5.783 c -2.703,0 -5.481,1.727 -5.481,6.758 0,4.205 2.103,6.758 5.406,6.758 1.99,0 3.229,-1.163 3.53,-1.764 l 0,-9.762 c -0.488,-1.239 -1.878,-1.99 -3.455,-1.99 m -1.69,15.845 c -3.528,0 -7.771,-2.628 -7.771,-8.335 0,-4.994 3.868,-9.086 9.049,-9.086 1.728,0 2.967,0.338 3.868,0.713 l 0,-8.598 c 0,-0.901 -0.488,-1.164 -1.089,-1.164 -0.339,0 -0.715,0.075 -1.052,0.188 l -0.751,0.263 0,-1.126 5.857,-2.478 0.788,0 0,24.742 c 0,1.427 0.225,2.253 1.238,2.253 0.302,0 0.488,0 0.901,-0.15 l 0.902,-0.3 0,1.126 -5.257,1.952 c -0.826,-0.563 -1.239,-1.614 -1.428,-2.478 -0.974,1.051 -2.739,2.478 -5.255,2.478 z m -29.323,-0.375 0,-0.901 1.239,-0.226 c 0.751,-0.15 1.276,-0.713 1.276,-1.464 l 0,-10.026 c 0,-0.863 -0.413,-1.314 -1.163,-1.314 -0.263,0 -0.563,0.038 -0.864,0.15 l -0.488,0.188 0,-1.126 5.407,-2.328 0.788,0 0,2.778 c 1.652,-1.839 3.605,-2.778 5.332,-2.778 3.83,0 5.669,2.741 5.669,5.932 l 0,8.523 c 0,0.751 0.564,1.352 1.315,1.464 l 1.275,0.226 0,0.901 -8.936,0 0,-0.901 1.239,-0.226 c 0.751,-0.15 1.352,-0.713 1.352,-1.464 l 0,-8.485 c 0,-1.127 -0.301,-3.642 -3.304,-3.642 -1.652,0 -3.042,1.014 -3.868,1.764 l 0,10.363 c 0,0.751 0.601,1.314 1.352,1.464 l 1.239,0.226 0,0.901 -8.86,0 m -11.376,-7.208 c -0.788,0.338 -2.178,0.976 -2.178,2.778 0,0.977 0.564,2.554 2.516,2.554 0.939,0 2.253,-0.526 3.191,-1.277 l 0,-5.557 -3.529,1.502 m -1.539,7.584 c -2.553,0 -4.206,-1.689 -4.206,-4.205 0,-1.802 1.315,-3.191 4.206,-4.242 l 5.068,-1.84 0,-1.577 c 0,-2.366 -1.088,-3.83 -2.74,-3.83 -1.127,0 -2.253,0.563 -2.817,1.464 -0.225,0.338 -0.262,0.826 -0.262,1.202 0,0.638 0.413,1.389 0.413,1.389 l -2.478,1.127 c -0.301,-0.526 -0.676,-1.315 -0.676,-2.103 0,-0.15 0.037,-0.301 0.037,-0.413 0.188,-1.352 1.352,-2.253 2.929,-3.192 1.54,-0.938 2.854,-1.201 3.792,-1.201 4.73,0 5.557,3.755 5.557,4.994 l 0,7.772 c 0,1.239 0.113,2.027 1.127,2.027 0.301,0 0.488,0 0.901,-0.15 l 0.901,-0.3 0,1.126 -5.258,1.952 c -0.788,-0.563 -1.164,-1.577 -1.313,-2.44 -1.239,1.05 -3.379,2.44 -5.181,2.44 z m -6.337,-15.132 -5.256,0 0,9.312 c 0,2.065 1.088,3.191 2.666,3.191 0.638,0 1.652,-0.188 2.59,-0.713 l 0.413,0.901 -3.379,2.14 c 0,0 -0.676,0.113 -1.014,0.113 -3.266,0 -5.031,-1.915 -5.031,-5.97 l 0,-8.974 -2.741,0 0,-0.938 c 0,0 4.13,-1.577 5.745,-5.444 l 0.751,0 0,4.768 5.932,0 -0.676,1.614 m -32.74,14.757 0,-0.901 1.239,-0.226 c 0.751,-0.15 1.276,-0.713 1.276,-1.464 l 0,-10.026 c 0,-0.863 -0.413,-1.314 -1.164,-1.314 -0.263,0 -0.563,0.038 -0.863,0.15 l -0.488,0.188 0,-1.126 5.407,-2.328 0.788,0 0,2.778 c 1.652,-1.839 3.604,-2.778 5.332,-2.778 3.829,0 5.669,2.741 5.669,5.932 l 0,8.523 c 0,0.751 0.563,1.352 1.314,1.464 l 1.277,0.226 0,0.901 -8.936,0 0,-0.901 1.239,-0.226 c 0.751,-0.15 1.352,-0.713 1.352,-1.464 l 0,-8.485 c 0,-1.127 -0.301,-3.642 -3.305,-3.642 -1.652,0 -3.041,1.014 -3.867,1.764 l 0,10.363 c 0,0.751 0.601,1.314 1.352,1.464 l 1.239,0.226 0,0.901 -8.861,0 M 96.234,40.084 c -0.789,0.338 -2.178,0.976 -2.178,2.778 0,0.977 0.563,2.554 2.516,2.554 0.938,0 2.252,-0.526 3.191,-1.277 l 0,-5.557 -3.529,1.502 m -1.54,7.584 c -2.553,0 -4.205,-1.689 -4.205,-4.205 0,-1.802 1.314,-3.191 4.205,-4.242 l 5.069,-1.84 0,-1.577 c 0,-2.366 -1.089,-3.83 -2.741,-3.83 -1.126,0 -2.253,0.563 -2.816,1.464 -0.225,0.338 -0.263,0.826 -0.263,1.202 0,0.638 0.413,1.389 0.413,1.389 l -2.478,1.127 c -0.3,-0.526 -0.676,-1.315 -0.676,-2.103 0,-0.15 0.038,-0.301 0.038,-0.413 0.188,-1.352 1.352,-2.253 2.929,-3.192 1.539,-0.938 2.853,-1.201 3.792,-1.201 4.731,0 5.557,3.755 5.557,4.994 l 0,7.772 c 0,1.239 0.112,2.027 1.126,2.027 0.301,0 0.488,0 0.901,-0.15 l 0.901,-0.3 0,1.126 -5.256,1.952 c -0.789,-0.563 -1.164,-1.577 -1.314,-2.44 -1.239,1.05 -3.38,2.44 -5.182,2.44 z M 77.31,47.817 c -4.093,0 -7.059,-1.163 -7.059,-1.163 l 0,-7.097 1.014,0 c 0.526,3.755 3.379,6.608 6.646,6.608 3.266,0 5.557,-1.802 5.557,-4.655 0,-3.041 -3.042,-4.431 -5.069,-5.444 L 75.47,34.601 c -2.778,-1.389 -5.031,-3.642 -5.031,-6.795 0,-3.943 2.928,-7.322 8.523,-7.322 3.83,0 6.984,1.277 6.984,1.277 l 0,6.345 -1.014,0 c -0.601,-3.379 -2.478,-6.045 -6.308,-6.045 -2.854,0 -4.543,1.952 -4.543,3.942 0,2.591 1.802,3.755 3.905,4.806 l 2.928,1.464 c 2.666,1.352 5.97,3.605 5.97,7.435 0,4.881 -3.379,8.109 -9.574,8.109 M 39.388,12.712 c 0,4.768 8.11,10.062 8.11,15.507 0,0 0,0.525 -0.225,1.088 7.584,1.577 12.954,5.294 12.954,9.65 0,5.857 -9.575,10.663 -21.44,10.7 -0.075,0.038 -0.15,0 -0.225,0 -11.752,0 -21.289,-4.656 -21.289,-10.475 0,-4.355 5.82,-7.885 12.841,-9.762 0,2.403 7.998,10.025 8.185,13.104 0,0 0.038,0.262 0.038,0.563 0,0.15 0,0.3 -0.038,0.45 1.727,-0.901 1.727,-3.717 1.727,-3.717 0,-6.683 -7.772,-9.649 -7.772,-16.22 0,-2.553 1.202,-4.43 2.29,-4.956 l 0,1.84 c 0,4.768 8.411,10.1 8.411,14.455 l 0,1.427 c 1.952,-0.751 1.952,-4.318 1.952,-4.318 0,-6.007 -7.809,-9.349 -7.809,-16.22 0,-2.553 1.201,-4.43 2.29,-4.956 l 0,1.84"  />
   
</svg>
