<?xml version="1.0"?>
<!--?xml version="1.0" encoding="UTF-8" standalone="no"?-->
<svg xmlns="http://www.w3.org/2000/svg" viewBox="0 0 353.16 117.06" height="117.06pt" width="353.16pt">
  <path d="m 297.8,91.697 c 3.39,2.14 9.69,3.3 13.65,3.3 2.03,0 5.14,-0.48 7.07,-0.96 4.06,-1.17 6,-2.04 8.89,-5.14 2.61,-2.822 3.69,-6.699 3.69,-10.287 0,-4.946 -2.53,-9.221 -6.8,-11.545 -3.2,-1.745 -7.13,-2.614 -10.73,-3.492 l -4.55,-1.168 c -2.79,-0.672 -8.2,-1.252 -8.2,-5.141 0,-4.549 4.64,-5.912 8.48,-5.912 6.7,0 11.44,4.855 14.63,10.187 0.37,0.277 0.37,0.77 0.68,1.06 h 4.24 l -0.37,-15.121 h -3.87 l -3.69,2.225 c -3.29,-1.938 -7.84,-3.202 -11.71,-3.202 -9.47,0 -18.85,4.95 -18.85,15.423 0,4.275 1.17,7.369 4.25,10.186 3.47,3.203 6.48,3.973 10.94,4.947 l 6.09,1.264 c 4.73,1.06 10.14,2.518 7.65,8.827 -1.84,2.419 -5.04,3.099 -7.96,3.099 -8.58,0 -13.93,-6.206 -17.4,-13.285 h -4.24 l 0.46,16.595 h 3.78 z m 0,0 m 0,0 c 3.39,2.14 9.69,3.3 13.65,3.3 2.03,0 5.14,-0.48 7.07,-0.96 4.06,-1.17 6,-2.04 8.89,-5.14 2.61,-2.822 3.69,-6.699 3.69,-10.287 0,-4.949 -2.53,-9.221 -6.8,-11.545 -3.2,-1.748 -7.13,-2.614 -10.73,-3.492 l -4.55,-1.168 c -2.79,-0.675 -8.23,-1.252 -8.23,-5.141 0,-4.552 4.67,-5.912 8.51,-5.912 6.7,0 11.44,4.852 14.63,10.187 0.37,0.277 0.37,0.77 0.68,1.057 h 4.24 l -0.37,-15.121 h -3.87 l -3.69,2.228 c -3.29,-1.938 -7.84,-3.202 -11.71,-3.202 -9.47,0 -18.85,4.947 -18.85,15.423 0,4.272 1.17,7.366 4.25,10.183 3.47,3.203 6.48,3.973 10.94,4.95 l 6.09,1.264 c 4.73,1.06 10.14,2.515 7.65,8.824 -1.84,2.422 -5.04,3.102 -7.96,3.102 -8.58,0 -13.93,-6.206 -17.4,-13.285 h -4.24 l 0.46,16.585 h 3.78 z m 0,0 M 260.58,51.355 c 9.47,0 10.17,12.508 10.17,19.396 0,6.019 -0.58,19.406 -9.1,19.406 -10.26,0 -10.66,-11.836 -10.66,-19.31 0,-6.202 0.67,-19.492 9.59,-19.492 z m 0.49,43.642 c 14.02,0 26.31,-9.498 26.31,-24.15 0,-14.351 -12.2,-24.346 -26.22,-24.346 -7.07,0 -12.97,1.939 -18.38,6.309 -5.23,4.167 -8.42,10.862 -8.42,17.556 0,15.034 12.08,24.631 26.71,24.631 z m 0,0 m -0.49,-43.645 c 9.47,0 10.17,12.511 10.17,19.396 0,6.019 -0.58,19.409 -9.1,19.409 -10.26,0 -10.63,-11.836 -10.63,-19.313 0,-6.199 0.64,-19.492 9.56,-19.492 m 0.49,43.645 c 14.02,0 26.31,-9.501 26.31,-24.153 0,-14.351 -12.2,-24.343 -26.22,-24.343 -7.07,0 -12.97,1.939 -18.38,6.309 -5.23,4.164 -8.42,10.858 -8.42,17.553 0,15.037 12.11,24.634 26.71,24.634 M 203.71,53.291 v 18.53 c 0,3.106 -0.1,6.309 0.18,9.499 0.18,3.297 0.38,7.087 2.71,9.707 2.8,3.1 6.97,3.97 10.93,3.97 11.51,0 16.27,-7.852 16.27,-18.529 v -0.77 h -4.95 c 0,3.587 -1.16,11.641 -6.29,11.641 -1.93,0 -3.09,-0.878 -3.57,-2.817 -0.28,-1.362 -0.28,-2.709 -0.28,-4.167 V 53.291 h 12.76 V 47.475 H 218.71 V 28.067 h -5.91 c -1.64,9.995 -4.44,18.53 -15.96,20.083 v 5.141 z m 0,0 m 0,0 v 18.53 c 0,3.103 -0.1,6.309 0.18,9.499 0.18,3.297 0.38,7.087 2.71,9.707 2.8,3.1 6.97,3.97 10.93,3.97 11.51,0 16.27,-7.852 16.27,-18.532 v -0.77 h -4.95 c 0,3.59 -1.16,11.644 -6.29,11.644 -1.93,0 -3.09,-0.878 -3.57,-2.817 -0.28,-1.362 -0.28,-2.709 -0.28,-4.167 V 53.291 h 12.76 V 47.475 H 218.71 V 28.067 h -5.91 c -1.64,9.995 -4.44,18.53 -15.96,20.083 v 5.141 z m 0,0 m -68.57,40.266 h 29.42 v -4.86 h -4.17 c -1.15,0 -2.31,-0.59 -2.6,-1.851 V 70.942 c 0,-3.492 0.18,-6.79 1.74,-9.98 1.64,-3.408 4.84,-5.828 8.61,-5.828 1.93,0 3.77,0.974 5.03,2.228 1.84,1.841 1.84,4.177 2.03,6.596 v 20.179 c 0,0.977 0,1.843 -0.28,2.817 -0.1,0.277 -0.21,0.583 -0.39,0.873 -1.76,1.26 -4.17,0.68 -6.1,0.87 v 4.86 h 29.02 v -4.86 c -0.67,0 -5.03,0.1 -6.58,-0.68 -0.58,-0.48 -0.67,-0.965 -0.67,-1.747 V 66.874 c 0,-5.046 0.27,-9.995 -2.62,-14.363 -3,-4.456 -8.42,-6.01 -13.45,-6.01 -7.35,0 -12.96,3.973 -16.44,9.801 h -0.18 v -8.824 l -22.75,0.962 v 4.95 h 1.84 c 5.43,0.185 6.2,0.576 6.2,6.115 v 24.342 c 0,1.553 0.27,3.88 -1.65,4.36 -1.93,0.4 -3.96,0.4 -6,0.49 z m 0,0 m 0,-0.01 h 29.42 v -4.85 h -4.17 c -1.15,0 -2.31,-0.59 -2.6,-1.851 V 70.942 c 0,-3.492 0.18,-6.793 1.74,-9.983 1.64,-3.405 4.84,-5.825 8.61,-5.825 1.93,0 3.77,0.974 5.03,2.225 1.84,1.844 1.84,4.18 2.03,6.599 v 20.179 c 0,0.974 0,1.84 -0.28,2.817 -0.1,0.277 -0.18,0.573 -0.38,0.863 -1.76,1.27 -4.17,0.69 -6.11,0.88 v 4.85 h 29.03 v -4.85 c -0.67,0 -5.03,0.1 -6.58,-0.68 -0.58,-0.49 -0.68,-0.968 -0.68,-1.751 V 66.871 c 0,-5.046 0.28,-9.992 -2.61,-14.363 -3,-4.453 -8.42,-6.007 -13.45,-6.007 -7.35,0 -12.96,3.973 -16.44,9.801 h -0.18 v -8.827 l -22.75,0.965 v 4.947 h 1.84 c 5.43,0.185 6.2,0.579 6.2,6.105 v 24.355 c 0,1.553 0.27,3.88 -1.65,4.36 -1.93,0.4 -3.96,0.4 -6,0.49 z m 0,0 m -23,-16.974 c 0,9.995 -5.9,12.124 -9.18,12.124 -4.271,0 -6.391,-2.816 -6.391,-6.789 0,-7.187 4.941,-9.03 15.571,-11.354 z m 0.19,-10.87 c -9.48,2.129 -31.632,4.275 -31.632,17.66 0,4.454 1.728,7.374 4.442,9.114 2.719,1.84 6.489,2.52 10.349,2.52 6.681,0 13.931,-2.13 18.771,-6.68 1.46,4.45 6.48,6.68 10.45,6.68 4.17,0 10.25,-3.4 10.25,-7.658 0,-1.748 -1.05,-1.553 -1.44,-1.553 -1.75,0 -2.81,1.454 -3.48,1.454 -1.95,0 -2.91,-0.878 -2.91,-6.885 v -19.01 c 0,-3.89 -0.49,-14.844 -21.86,-14.844 -14.521,0 -21.965,5.813 -21.965,12.218 0,4.37 3.289,7.273 7.544,7.273 3.78,0 7.93,-1.938 7.93,-6.296 0,-2.626 -2.41,-4.371 -2.41,-5.634 0,-0.87 2.7,-2.71 8.211,-2.71 7.46,0 7.75,5.622 7.75,12.316 z m 0,0 m -0.18,10.873 c 0,9.992 -5.91,12.121 -9.19,12.121 -4.261,0 -6.391,-2.816 -6.391,-6.789 0,-7.187 4.941,-9.03 15.581,-11.351 z m 0.18,-10.873 c -9.47,2.132 -31.628,4.275 -31.628,17.663 0,4.451 1.73,7.371 4.445,9.111 2.712,1.84 6.482,2.52 10.352,2.52 6.671,0 13.931,-2.13 18.761,-6.68 1.46,4.45 6.49,6.68 10.45,6.68 4.17,0 10.26,-3.4 10.26,-7.658 0,-1.748 -1.06,-1.553 -1.44,-1.553 -1.76,0 -2.81,1.457 -3.5,1.457 -1.93,0 -2.89,-0.881 -2.89,-6.888 v -19.01 c 0,-3.887 -0.49,-14.844 -21.87,-14.844 -14.521,0 -21.962,5.816 -21.962,12.221 0,4.37 3.289,7.27 7.541,7.27 3.78,0 7.94,-1.938 7.94,-6.296 0,-2.623 -2.42,-4.371 -2.42,-5.634 0,-0.867 2.71,-2.71 8.221,-2.71 7.46,0 7.74,5.622 7.74,12.316 z m 0,0 M 22.843,94.417 h 4.248 l 6.102,-5.91 c 5.416,4.36 12.284,6.49 19.249,6.49 6.194,0 12.871,-1.36 17.805,-5.33 5.226,-4.362 8.118,-10.576 8.118,-17.267 0,-16.976 -13.147,-21.048 -27.076,-23.96 L 45.188,47.272 C 39.581,46.116 33.193,44.177 33.193,37.196 c 0,-7.079 7.156,-10.103 13.255,-10.103 11.998,0 20.414,10.584 23.992,20.962 h 4.839 L 74.019,22.64 h -4.166 l -5.225,4.755 C 59.5,23.808 53.893,22.06 47.699,22.06 c -13.738,0 -25.637,7.178 -25.637,22.117 0,6.297 3.194,12.316 8.223,16.003 6.006,4.465 12.105,5.812 19.262,7.175 l 6.965,1.359 c 5.798,1.072 10.35,3.686 10.35,10.186 0,7.863 -7.264,11.057 -14.036,11.057 -12.956,0 -22.157,-11.827 -26.021,-22.892 h -4.743 z m 0,0 m 0,0 h 4.251 l 6.099,-5.91 c 5.416,4.36 12.284,6.49 19.249,6.49 6.197,0 12.871,-1.36 17.808,-5.33 5.223,-4.362 8.115,-10.576 8.115,-17.27 0,-16.976 -13.147,-21.045 -27.076,-23.957 l -6.098,-1.168 c -5.61,-1.156 -11.998,-3.095 -11.998,-10.079 0,-7.079 7.156,-10.1 13.258,-10.1 11.995,0 20.411,10.584 23.989,20.962 h 4.842 L 74.019,22.64 h -4.166 l -5.222,4.755 C 59.503,23.808 53.896,22.06 47.699,22.06 c -13.738,0 -25.637,7.175 -25.637,22.117 0,6.297 3.194,12.316 8.226,15.999 6.003,4.469 12.09,5.816 19.249,7.176 l 6.975,1.362 c 5.801,1.072 10.35,3.683 10.35,10.186 0,7.86 -7.263,11.047 -14.036,11.047 -12.956,0 -22.154,-11.817 -26.021,-22.882 h -4.743 z m 0,0"></path>
</svg>
