<?xml version="1.0"?>
<!--?xml version="1.0" encoding="UTF-8" standalone="no"?-->
<svg xmlns="http://www.w3.org/2000/svg" xmlns:xlink="http://www.w3.org/1999/xlink" viewBox="-1.33278 -1.33278 92.44656 47.09156" height="522" width="1024">
  <path d="M 9.392e-5,0.0051 V 44.415 H 45.371 L 89.78,0.0051 Z M 12.21,7.8829 h 0.02 c 3.224,0.01 7.165,0.9191 10.009,2.3721 l -3.07,5.348 c -3.117,-1.507 -4.687,-1.651 -6.467,-1.741 -2.641,-0.141 -3.9803,0.803 -4.0002,1.821 -0.023,1.245 2.5072,2.369 4.8842,3.134 3.606,1.143 8.193,2.676 8.89,7.104 L 29.072,8.3533 h 7.652 l 7.72,21.0127 V 8.3533 h 8.837 v 0.01 c 8.448,0 12.416,3.0087 12.416,9.5687 0,5.894 -4.086,9.406 -10.986,9.406 h -2.858 v 8.49 H 38.759 l -1.296,-4.06 c -1.385,0.456 -2.95,0.706 -4.609,0.706 -1.7,0 -3.306,-0.268 -4.716,-0.745 l -1.348,4.099 h -8.025 l 0.884,-2.376 -0.324,0.284 c -2.001,1.608 -4.505,2.492 -7.605,2.552 h -0.461 c -3.5629,0 -7.0539,-0.982 -10.0029,-2.661 l 2.7288,-5.423 c 2.958,1.748 4.8153,2.138 7.3191,2.088 1.299,-0.03 2.238,-0.264 2.849,-0.899 0.371,-0.38 0.562,-0.861 0.582,-1.374 0.02,-1.409 -1.981,-2.07 -4.436,-2.827 C 8.3091,24.567 6.056,23.734 4.2899,22.44 2.2029,20.903 1.2061,18.981 1.2561,16.274 1.289,14.296 2.0199,12.52 3.371,11.116 5.315,9.1089 8.449,7.8829 12.21,7.8829 Z m 39.641,6.2521 v 7.118 h 1.946 c 2.598,0 4.666,-0.861 4.666,-3.604 0,-2.658 -2.068,-3.514 -4.666,-3.514 z m -19.027,2.863 -2.803,8.84 c 0.835,0.314 1.802,0.502 2.831,0.502 v 0 c 1.005,0 1.946,-0.182 2.773,-0.478 l -2.744,-8.864 z m 25.77,21.659 c -1.586,0 -2.938,1.221 -2.938,2.874 0,1.665 1.352,2.906 2.938,2.906 1.564,0 2.875,-1.24 2.875,-2.906 0,-1.653 -1.311,-2.874 -2.875,-2.874 z m 0,0.468 c 1.294,0 2.312,1.046 2.312,2.406 0,1.384 -1.018,2.406 -2.312,2.406 -1.316,0 -2.375,-1.022 -2.375,-2.406 0,-1.36 1.059,-2.406 2.375,-2.406 z m -1.125,0.75 v 3.313 h 0.5 V 41.75 h 0.562 l 0.906,1.438 H 60 L 59.031,41.75 c 0.485,-0.06 0.875,-0.342 0.875,-0.937 0,-0.653 -0.399,-0.938 -1.187,-0.938 z m 0.5,0.437 h 0.687 c 0.338,0 0.719,0.05 0.719,0.469 0,0.517 -0.385,0.563 -0.812,0.563 h -0.594 z"></path>
</svg>
