<svg
   xmlns="http://www.w3.org/2000/svg"
   version="1.0"
   width="150"
   height="60"
   viewbox="0 0 150 60">
    <path       d="m 63.88,9.784 c -5.67,0 -12.16,2.926 -12.15,9.966 0,6.71 5.33,8.59 10.62,9.88 5.35,1.28 10.66,2.03 10.66,6.5 0,4.4 -4.54,5.22 -7.88,5.22 -4.41,0 -8.56,-1.61 -8.75,-6.76 l -5.34,0 c 0.31,8.67 6.47,11.85 13.78,11.85 6.62,0 13.87,-2.7 13.87,-11.03 0,-6.78 -5.3,-8.68 -10.65,-9.97 -4.98,-1.29 -10.66,-1.96 -10.66,-6.09 0,-3.53 3.73,-4.47 6.94,-4.47 3.53,0 7.18,1.4 7.56,5.87 l 5.34,0 C 76.78,12.22 71.06,9.785 63.88,9.784 Z m 30.88,0 C 87.51,9.785 81.26,12.83 80.94,21.5 l 5.35,0 c 0.25,-5.15 3.59,-6.62 8.12,-6.62 3.41,0 7.29,0.8 7.29,5.81 0,4.33 -5.05,3.94 -10.98,5.15 -5.54,1.16 -11.03,2.86 -11.03,10.79 0,6.97 4.86,9.81 10.78,9.81 4.54,0 8.48,-1.71 11.43,-5.44 0,3.79 1.8,5.44 4.6,5.44 1.7,0 2.8,-0.36 3.8,-0.97 l 0,-4.47 c -0.7,0.27 -1.2,0.35 -1.6,0.35 -1.7,0 -1.7,-1.2 -1.7,-3.91 l 0,-18.03 c 0,-8.2 -6.4,-9.626 -12.24,-9.626 z m 28.04,0 c -5.7,0 -12.2,2.926 -12.2,9.966 0,6.71 5.4,8.59 10.7,9.88 5.4,1.28 10.7,2.03 10.7,6.5 0,4.4 -4.6,5.22 -7.9,5.22 -4.4,0 -8.6,-1.61 -8.8,-6.76 l -5.4,0 c 0.3,8.67 6.6,11.85 13.9,11.85 6.6,0 13.8,-2.7 13.8,-11.03 0,-6.78 -5.3,-8.68 -10.6,-9.97 -5,-1.29 -10.7,-1.96 -10.7,-6.09 0,-3.53 3.7,-4.47 6.9,-4.47 3.6,0 7.2,1.4 7.6,5.87 l 5.4,0 C 135.7,12.22 130,9.785 122.8,9.784 Z m -21.2,17.746 0,5.91 c 0,3.18 -2.88,7.91 -9.94,7.91 -3.27,0 -6.31,-1.37 -6.31,-5.16 0,-4.27 3.04,-5.61 6.56,-6.28 3.59,-0.68 7.61,-0.75 9.69,-2.38 z M 48.57,42.88 c -1.13,0 -2.09,0.87 -2.09,2.06 0,1.19 0.96,2.06 2.09,2.06 1.12,0 2.06,-0.87 2.06,-2.06 0,-1.19 -0.94,-2.06 -2.06,-2.06 z m 89.03,0 c -1.2,0 -2.1,0.87 -2.1,2.06 0,1.19 0.9,2.06 2.1,2.06 1.1,0 2.1,-0.87 2.1,-2.06 0,-1.19 -1,-2.06 -2.1,-2.06 z m -89.03,0.34 c 0.93,0 1.66,0.74 1.66,1.72 0,0.99 -0.73,1.72 -1.66,1.72 -0.95,0 -1.69,-0.73 -1.69,-1.72 0,-0.98 0.74,-1.72 1.69,-1.72 z m 89.03,0 c 0.9,0 1.6,0.74 1.6,1.72 0,0.99 -0.7,1.72 -1.6,1.72 -1,0 -1.7,-0.73 -1.7,-1.72 0,-0.98 0.7,-1.72 1.7,-1.72 z m -89.84,0.53 0,2.38 0.37,0 0,-1.03 0.41,0 0.62,1.03 0.41,0 -0.69,-1.07 c 0.35,0 0.63,-0.19 0.63,-0.62 0,-0.47 -0.28,-0.69 -0.85,-0.69 l -0.9,0 z m 89.04,0 0,2.38 0.3,0 0,-1.03 0.5,0 0.6,1.03 0.4,0 -0.7,-1.07 c 0.3,0 0.6,-0.19 0.6,-0.62 0,-0.47 -0.3,-0.69 -0.8,-0.69 l -0.9,0 z m -88.67,0.31 0.5,0 c 0.25,0 0.5,0 0.5,0.35 0,0.36 -0.25,0.37 -0.56,0.37 l -0.44,0 0,-0.72 z m 88.97,0 0.5,0 c 0.3,0 0.5,0 0.5,0.35 0,0.36 -0.2,0.37 -0.5,0.37 l -0.5,0 0,-0.72 z M 28.82,3.472 C 26.99,3.43 25.1,3.644 23.16,4.128 14.21,6.365 4.193,17.88 15.14,31.16 l 6.52,7.9 1.85,2.25 c 1.23,1.48 3.26,1.45 4.75,0.22 1.49,-1.23 1.92,-3.25 0.68,-4.75 0,0 -0.52,-0.63 -0.75,-0.9 l 0,0 C 27.75,35.31 27.65,35.21 27.16,34.63 24.8,31.78 22.1,28.5 22.1,28.5 17.35,22.73 19.47,15.61 25.91,11.57 31.59,8 42.01,9.273 45.6,15.13 43.34,8.453 36.75,3.651 28.82,3.472 Z m 1.31,13.938 c -0.84,0 -1.72,0.29 -2.47,0.9 -1.49,1.24 -1.92,3.26 -0.69,4.75 0,0 0.16,0.19 0.41,0.5 2.83,3.41 6.59,7.97 6.59,7.97 4.76,5.77 2.64,12.86 -3.81,16.91 -5.67,3.56 -16.09,2.29 -19.68,-3.56 2.78,8.21 12.11,13.58 22.43,11 8.96,-2.24 18.98,-13.73 8.03,-27 l -7.65,-9.25 -0.88,-1.1 C 31.79,17.8 30.98,17.44 30.13,17.41 Z"     />
</svg>
