<?xml version="1.0"?>

<svg xmlns="http://www.w3.org/2000/svg" viewBox="0 0 540 183.7" width="540" height="183.7">   <path d="m 518,24.8 -44,0 -51.1,58.9 -0.4,0 8.6,-58.9 -37.2,0 -11.9,82.5 c -3.5,-24.1 -30.3,-26.4 -49,-31.4 -9.5,-2.6 -20.9,-5.8 -19.5,-15.6 1,-6.7 9.2,-12.3 17.8,-12.3 6.3,0 10.9,1.5 13.7,4.3 2.9,2.8 4,6.7 3.1,11.9 l 37.1,0 C 392.1,31.9 365.1,22 337.5,22 c -28.1,0 -57.2,8.7 -63.3,40.5 -2.1,14.5 2.8,26.8 15.5,32.7 27.3,12.8 55.4,8.9 52.7,27.1 -1.2,8.9 -17.4,13.4 -29.6,13.4 -16.4,0 -40.5,-4.3 -33.3,-32.8 0,-0.1 0,-0.1 0,-0.2 l -39,0 c -5.2,29.8 -24.1,33.1 -38.1,33 -21,-0.2 -28.3,-20.6 -25,-42.5 3.1,-20.1 10.5,-45.2 31.8,-45.2 15.3,0 23.4,6.9 22.6,19 l 39,0 C 276.2,33.2 245.5,22 213,22 171.1,22.4 145.1,46.7 138.6,91.7 138.3,94.2 138,96.6 137.8,99 130,82.6 107.6,80.2 91.35,75.9 c -9.5,-2.6 -20.9,-5.8 -19.5,-15.6 1,-6.7 9.2,-12.3 17.8,-12.3 6.3,0 10.85,1.5 13.65,4.3 2.9,2.8 4,6.7 3.1,11.9 l 37.1,0 C 150.4,31.9 123.4,22 95.85,22 c -28.1,0 -57.2,8.7 -63.3,40.5 -2.1,14.5 2.8,26.8 15.5,32.7 27.3,12.8 55.35,8.9 52.65,27.1 -1.25,8.9 -12.85,13.4 -21.35,13.4 -13.4,0 -21.7,-6.9 -19.7,-19.5 l -37.1,0 c -4.7,36.4 21.5,45.5 52.7,45.5 29.45,0 57.95,-12.1 64.05,-37.7 5.9,24.5 25.8,37.7 59.3,37.7 12.9,0 36.8,0.7 56.5,-16.8 15.2,14.4 38.7,16.8 53.6,16.8 36.7,0 60.7,-9.6 69.7,-29.7 l -3.9,26.9 37.2,0 10.3,-71.3 0.3,0 33.9,71.3 46.1,0 -39.1,-75 54.8,-59.1 z"></path> </svg>