<?xml version="1.0"?>

<svg xmlns="http://www.w3.org/2000/svg" viewBox="0 0 181 51" height="51" width="181"> 
  <path d="m 121.7,42.94 c -4.3,0 -7.5,-0.29 -9.6,-0.86 -2.1,-0.56 -4,-1.55 -5.7,-2.94 -1.5,-1.25 -2.6,-2.66 -3.2,-4.24 -0.6,-1.57 -0.9,-3.8 -0.9,-6.66 l 0,-21.526 9.7,0 0,21.286 c 0,2.12 0.1,3.61 0.3,4.47 0.3,0.87 0.7,1.56 1.3,2.09 0.9,0.86 2,1.45 3.4,1.82 1.3,0.36 3.2,0.53 5.5,0.53 l 6.6,0 0,6.03 -7.4,0 z m -46.62,-30 -11.26,0 0,23.6 11.26,0 c 4.28,0 7.26,-0.84 8.89,-2.54 1.64,-1.69 2.45,-4.78 2.45,-9.27 0,-4.46 -0.81,-7.55 -2.45,-9.25 -1.63,-1.7 -4.61,-2.54 -8.89,-2.54 m -20.97,-6.316 21.16,0 c 7.43,0 12.92,1.529 16.47,4.576 3.53,3.05 5.3,7.77 5.3,14.17 0,3.31 -0.58,6.14 -1.77,8.53 -1.2,2.36 -2.97,4.29 -5.33,5.77 -1.82,1.15 -3.76,1.97 -5.84,2.46 -2.08,0.48 -4.93,0.72 -8.56,0.72 l -21.43,0 0,-36.226 z m -7.13,6.516 -24.01,0 c -2.59,0 -4.49,0.38 -5.69,1.13 -1.2,0.76 -1.8,1.95 -1.8,3.59 0,1.32 0.5,2.31 1.5,2.96 1.1,0.65 2.6,0.99 4.6,0.99 l 12.89,0 c 5.32,0 9.11,0.78 11.36,2.37 2.25,1.57 3.37,4.19 3.37,7.88 0,3.73 -1.29,6.46 -3.89,8.22 -2.6,1.74 -6.68,2.63 -12.26,2.63 l -25.866,0 0,-6.46 24.326,0 c 2.78,0 4.72,-0.32 5.86,-0.95 1.13,-0.64 1.69,-1.68 1.69,-3.15 0,-1.51 -0.52,-2.58 -1.56,-3.22 -1.04,-0.64 -2.81,-0.96 -5.33,-0.96 l -11.49,0 c -5.3,0 -9.2,-0.84 -11.696,-2.5 -2.4,-1.67 -3.7,-4.31 -3.7,-7.9 0,-3.85 1.3,-6.67 3.9,-8.436 2.596,-1.771 6.696,-2.65 12.396,-2.65 l 25.4,0 0,6.456 z M 148.1,29.44 C 134.1,19.15 123.5,9.694 124.5,8.313 c 0.5,-0.68 3.6,0.67 8.3,3.397 l 0.2,0.11 -0.4,-0.22 c -2.2,-1.19 -3.6,-1.716 -3.8,-1.38 -0.8,0.98 8.4,8.92 20.4,17.72 12,8.79 22.3,15.15 23,14.15 0.3,-0.34 -0.7,-1.5 -2.4,-3.23 l -0.4,-0.31 0.2,0.12 c 4,3.64 6.2,6.22 5.7,6.88 -1,1.38 -13.2,-5.84 -27.2,-16.11 m 3,15.3 c -10.9,0 -19.7,-8.83 -19.7,-19.72 0,-2.04 0.3,-4.02 0.8,-5.87 l 0,-0.1 0.2,0.14 c 4.1,3.58 9.6,7.91 15.7,12.42 1.8,1.27 3.5,2.52 5.2,3.7 l 1.9,1.31 -0.4,0 0.5,0 0.5,0.33 c 0.8,0.57 1.6,1.11 2.4,1.63 l 1.4,0.94 -4.8,0.35 6.1,0.53 1.3,0.82 -0.1,0.1 c -3.2,2.13 -7,3.38 -11,3.38 m 11.5,-5.39 -1,-0.64 c -0.6,-0.38 -1.2,-0.79 -1.8,-1.22 l -0.8,-0.47 7.2,0.62 -1.2,1.32 -0.2,0.23 -2.2,0.16 z m -4.4,-2.9 -0.4,-0.24 c -2.7,-1.82 -5.5,-3.86 -8.6,-6.06 -5.9,-4.4 -11.2,-8.58 -14.9,-11.8 l -1.3,-1.13 0.7,-1.57 c 3.4,-6.146 9.9,-10.326 17.4,-10.326 4.1,0 7.9,1.25 11,3.379 l 1.2,0.861 -8.5,0.626 10.2,0.87 0,0 c 0.4,0.46 0.9,0.93 1.3,1.41 l 0.2,0.25 -11.7,0.89 13.1,1.12 0.5,0.92 0.1,0.13 -13.6,1.06 14.6,1.25 0.4,0.82 -15,1.14 15.6,1.36 0.1,0.64 0,0.22 -15.8,1.2 16,1.37 0,0.22 0,0.47 -16,1.23 15.8,1.34 -0.2,0.77 -15.6,1.19 15,1.28 -0.4,0.97 -14.6,1.11 13.6,1.16 -0.7,1.13 -9.5,0.74 z"></path> </svg>