<?xml version="1.0"?>

<!-- Generator: Adobe Illustrator 19.1.0, SVG Export Plug-In . SVG Version: 6.00 Build 0)  -->
<svg version="1.1" id="Capa_1" xmlns="http://www.w3.org/2000/svg" xmlns:xlink="http://www.w3.org/1999/xlink" x="0px" y="0px" width="538.465px" height="235.211px" viewBox="0 0 538.465 235.211" enable-background="new 0 0 538.465 235.211" xml:space="preserve">
<path d="M28.631,125.029h32.731c0.325,6.417,2.737,11.249,7.236,14.459c4.814,3.215,11.239,4.8,19.258,4.8
	c5.778,0,10.746-1.116,14.924-3.359c3.858-2.255,5.802-5.297,5.802-9.153c0-5.775-6.761-10.112-20.236-13.001
	c-5.772-0.969-10.117-1.927-13.02-2.894c-17.01-4.17-28.399-9.152-34.161-14.922c-6.435-5.779-9.647-13.48-9.647-23.123
	c0-12.179,4.653-22.301,13.969-30.321c9.627-7.384,22.139-11.08,37.556-11.08c16.692,0,30.01,3.695,39.956,11.08
	c9.316,8.021,14.29,18.447,14.941,31.289h-20.703c-6.095,0-10.769-2.73-13.961-8.191c-1.296-1.28-2.593-2.569-3.867-3.862
	c-3.852-2.889-9.152-4.312-15.898-4.312c-6.412,0-11.225,0.967-14.428,2.889c-2.891,1.913-4.344,4.798-4.344,8.66
	c0,5.149,8.346,9.471,25.043,13.015c1.926,0.642,3.612,1.123,5.054,1.44c1.444,0.312,2.805,0.465,4.097,0.465
	c16.371,4.185,27.768,9,34.193,14.463c6.083,5.777,9.158,13.477,9.158,23.117c0,14.112-5.145,25.027-15.433,32.733
	c-9.615,7.067-24.071,10.598-43.34,10.598c-18.276,0-31.935-3.674-40.922-11.08c-9.31-7.371-13.959-18.139-13.959-32.251V125.029z"></path>
<path d="M459.861,203.86c0.064-0.477,0.158-0.957,0.158-1.474v-74.772c0-7.354-5.66-13.323-12.641-13.323
	c-6.962,0-12.63,5.969-12.63,13.323v74.772c0,0.517,0.091,0.997,0.134,1.474H459.861z"></path>
<path d="M511.476,102.846c0-70.214-64.258-67.625-64.258-67.625c-67.825,0-63.781,70.467-63.781,70.467
	c0,49.278,28.88,61.933,45.604,65.376v-26.748c-7.118-4.231-17.366-13.56-17.366-38.814c0,0-1.53-44.573,35.641-44.573
	c0,0,36.086-1.584,36.086,42.652c0,0,2.082,30.099-17.811,40.8v26.684C516.862,161.859,511.476,102.846,511.476,102.846z"></path>
<path d="M358.555,45.579c-8.986-6.091-22.475-9.145-40.435-9.145c-16.063,0-28.411,3.695-37.06,11.08
	c-7.721,6.416-12.22,16.681-13.496,26.634l32.252-2.096c1.6-3.515,4.162-5.914,7.683-7.206c3.548-1.289,7.551-1.931,12.059-1.931
	c4.162,0,8.73,0.722,13.714,2.155c4.974,1.44,7.47,4.596,7.47,9.39c0,0.46-0.118,0.883-0.192,1.319l0.521,27.168
	c0.055-0.02,0.107-0.041,0.161-0.067v12.037c0,8.994-2.587,16.048-7.726,21.188c-5.132,5.14-12.207,7.705-21.163,7.705
	c-5.475,0-9.642-1.28-12.528-3.852c-2.889-2.889-4.317-6.737-4.317-11.565c0-3.515,1.104-7.039,3.355-10.587
	c2.562-2.567,6.736-4.633,12.528-6.251l11.064-2.408c4.727-1.139,8.767-2.338,12.267-3.584l-0.415-22.57
	c-3.5,1.787-8.356,3.138-14.739,4.009c-2.902,0.304-5.474,0.709-7.71,1.182c-2.246,0.49-4.185,0.724-5.772,0.724
	c-12.189,1.93-22.227,5.786-30.082,11.565c-7.875,5.779-11.812,15.408-11.812,28.896c0,14.442,4.331,24.809,13.007,31.052
	c8.66,6.268,18.783,9.398,30.31,9.398c5.786,0,12.459-0.409,20.011-1.203c7.536-0.811,14.686-2.961,21.417-6.492
	c6.416-3.216,11.955-8.44,16.613-15.656c4.647-7.214,6.984-17.256,6.984-30.106V72.546C372.524,60.988,367.85,52.021,358.555,45.579
	z"></path>
<path d="M214.78,141.39c-3.533,1.305-7.546,1.943-12.039,1.943c-4.163,0-8.729-0.726-13.708-2.167
	c-4.991-1.448-7.46-4.584-7.46-9.39c0-0.508,0.123-0.971,0.207-1.449l-0.517-27.041c-0.059,0.029-0.133,0.055-0.186,0.084V91.319
	c0-8.982,2.573-16.066,7.695-21.194c5.149-5.128,12.218-7.687,21.195-7.687c5.464,0,9.637,1.276,12.528,3.856
	c2.882,2.898,4.322,6.721,4.322,11.541c0,3.548-1.116,7.053-3.361,10.607c-2.562,2.555-6.725,4.642-12.524,6.251l-11.061,2.421
	c-4.583,1.089-8.527,2.243-11.952,3.446l0.426,22.534c3.479-1.706,8.218-3.003,14.396-3.843c2.892-0.31,5.464-0.71,7.705-1.205
	c2.275-0.477,4.184-0.722,5.785-0.722c12.197-1.927,22.236-5.77,30.095-11.55c7.859-5.767,11.799-15.407,11.799-28.89
	c0-14.446-4.339-24.8-12.998-31.069c-8.672-6.251-18.783-9.381-30.347-9.381c-5.764,0-12.423,0.406-19.978,1.195
	c-7.54,0.811-14.686,2.973-21.415,6.492c-6.436,3.215-11.962,8.45-16.622,15.65c-4.653,7.224-6.989,17.265-6.989,30.106v43.824
	c0,11.549,4.664,20.529,13.974,26.98c8.976,6.087,22.47,9.137,40.442,9.137c16.062,0,28.409-3.688,37.086-11.08
	c7.695-6.425,12.197-16.685,13.483-26.65l-32.266,2.104C220.895,137.706,218.318,140.13,214.78,141.39z"></path>
<g>
	<g>
		<path d="M511.275,195.788c0,4.622-3.737,8.31-8.474,8.31c-4.73,0-8.495-3.688-8.495-8.31c0-4.642,3.765-8.254,8.546-8.254
			C507.538,187.534,511.275,191.147,511.275,195.788z M496.423,195.788c0,3.676,2.76,6.589,6.429,6.589
			c3.587,0.059,6.298-2.913,6.298-6.538c0-3.679-2.711-6.653-6.392-6.653C499.183,189.187,496.423,192.16,496.423,195.788z
			 M501.504,200.062h-1.927v-8.261c0.764-0.097,1.829-0.249,3.181-0.249c1.568,0,2.273,0.249,2.811,0.663
			c0.506,0.342,0.869,0.967,0.869,1.745c0,1.018-0.762,1.682-1.712,1.96v0.122c0.811,0.249,1.199,0.887,1.456,2.007
			c0.256,1.265,0.458,1.702,0.608,2.013h-2.034c-0.233-0.311-0.394-1.016-0.639-2.013c-0.15-0.854-0.647-1.26-1.714-1.26h-0.9
			V200.062z M501.556,195.425h0.902c1.045,0,1.905-0.343,1.905-1.221c0-0.74-0.555-1.242-1.745-1.242
			c-0.513,0-0.874,0.047-1.063,0.106V195.425z"></path>
	</g>
</g>
<path d="M477.634,104.544c-0.004-35.905-24.781-37.718-29.752-37.718c-8.795,0.009-15.539,2.641-20.492,7.836
	c-10.768,11.317-9.925,31.095-9.914,31.293c0,14.313,3.768,24.655,11.21,30.906v-10.746c0-10.289,8.415-18.664,18.756-18.664
	c10.343,0,18.762,8.375,18.762,18.664v10.966C478.61,126.212,477.645,104.781,477.634,104.544z"></path>
</svg>
