<?xml version="1.0"?>

<svg xmlns="http://www.w3.org/2000/svg" version="1.1" id="svg5131" viewBox="0 0 790 197" width="790" height="197">
   
  <path id="path5220" d="m 349.3,163.1 c -6.1,-1.4 -11.9,-6 -13.3,-10.7 -2,-6.7 0.5,-12.5 6.9,-16.2 1.5,-0.8 2.7,-1.6 2.7,-1.8 0,-0.1 -0.8,-0.6 -1.8,-1.1 -4.6,-2.2 -6.1,-7.4 -3.5,-12.5 0.8,-1.5 3.1,-3.7 5.3,-4.8 1,-0.5 0.9,-0.6 -1.5,-2.2 -4.9,-3.3 -6.8,-7.5 -6.5,-14.03 0.2,-4.09 1,-6.29 3.4,-9.42 1.4,-1.95 5.3,-4.42 8.7,-5.61 3.8,-1.3 10.7,-1.38 18.5,-0.23 4.2,0.64 7,0.77 11.4,0.58 l 5.8,-0.26 0,2.68 0,2.67 -4.5,0 -4.6,0 1.3,1.78 c 1.9,2.56 2.5,5.24 2.3,9.64 -0.3,4.6 -1.5,7.3 -4.9,10.4 -4.4,4.2 -8.9,5.4 -18.4,5.2 -6.2,-0.1 -6.9,-0.1 -7.7,0.7 -1.4,1.2 -2,3.9 -1.4,5.7 1,2.7 4.4,3.5 15.5,3.6 8.2,0 9.2,0.2 13.3,1.5 5.5,1.7 9.1,6.7 9.1,12.7 0,10.3 -8.1,19.3 -19.5,21.7 -4.3,0.8 -12.6,0.8 -16.6,0 z m 15.4,-4.3 c 8.4,-1.8 13.1,-8.5 11.2,-15.8 -0.7,-2.6 -3.6,-5.5 -6.7,-6.5 -7.2,-2.4 -17.6,-1.5 -22,1.8 -4.2,3.2 -5,10.7 -1.6,15.4 1.4,2 5.7,4.5 8.7,5.1 2.9,0.5 7.7,0.5 10.4,0 z M 362.2,113 c 5.1,-1.5 8.2,-7.1 7.7,-13.95 -0.5,-7.58 -4.2,-11.35 -11.4,-11.35 -3,0 -3.9,0.19 -5.5,1.09 -3.6,2.09 -5.3,5.76 -5.3,12.01 0,4.9 0.8,7.5 3.3,9.9 2.9,2.8 6.9,3.6 11.2,2.3 z m 144.9,39.7 c 0.2,-5.4 0.3,-23 0.3,-39 l 0,-29.16 5.2,0 5.3,0 -0.4,2.49 c -0.1,1.37 -0.3,3.28 -0.3,4.24 l 0,1.74 1.8,-2.19 c 3.9,-4.75 9.2,-7.14 15.8,-7.11 10.6,0 18.9,6.38 22.1,16.89 1.4,4.4 1.5,13.9 0.3,18.5 -2,6.9 -6.8,13 -12.5,15.7 -9.3,4.4 -21.1,2.3 -26.3,-4.6 l -1.3,-1.9 0.2,16.5 c 0.1,9.1 0.3,16.8 0.5,17.2 0.2,0.6 -0.5,0.6 -5.4,0.6 l -5.7,0 0.4,-9.9 z m 30.4,-22.1 c 6.1,-2 9.6,-9.3 9.5,-20.1 0,-13.7 -5.6,-21.68 -14.9,-21.36 -6.8,0.24 -11.3,4.09 -13.7,11.56 -1.1,3.7 -1.6,12.1 -0.8,16.4 1.8,11.1 10.2,16.7 19.9,13.5 z m -366.5,6 c -6.4,-0.5 -11.1,-2.5 -15.2,-6.6 -4.6,-4.7 -7,-11.2 -6.9,-19.5 0,-7 1.3,-11.77 4.6,-16.69 3,-4.53 6.6,-7.14 12.3,-8.88 4.1,-1.25 13.5,-1.13 17.3,0.22 8.7,3.04 13,9.37 13.5,20.05 l 0.3,4.9 -18.8,0 -18.7,0 0.2,2.6 c 0.3,4.1 1,6.9 2.3,9.8 3.3,6.7 10.3,10.1 18.2,8.8 4.5,-0.7 7.8,-2.4 10.9,-5.5 3.3,-3.4 3.9,-3.2 3.3,1.2 -0.5,3.1 -0.6,3.4 -2.2,4.7 -5,4 -12.1,5.6 -21.1,4.9 z m 15.1,-33.9 c -0.7,-7.81 -3.5,-12.2 -8.5,-13.66 -5.1,-1.47 -11.2,0.32 -14.1,4.17 -1.6,2.13 -3.2,6.56 -3.6,9.99 l -0.3,2.4 13.4,0 13.4,0 -0.3,-2.9 z M 44.01,136 c -2.95,-0.6 -8.49,-2.9 -10.38,-4.4 -0.82,-0.6 -0.82,-0.7 -0.11,-3.7 0.68,-2.9 1.07,-5.1 1.16,-6.4 0.1,-1.4 1.75,-0.3 3.42,2.2 3.61,5.6 8.03,7.8 15.57,7.8 5.79,0 8.39,-1 11.47,-4.3 2.78,-3 3.56,-4.9 3.58,-9 0,-7.3 -3.14,-10.6 -15.28,-15.6 -6.48,-2.63 -12.67,-6.02 -14.53,-7.88 -6.17,-6.17 -6,-18.61 0.34,-25.5 2.43,-2.63 6.13,-4.87 10.07,-6.07 3.76,-1.15 11.91,-1.29 16.66,-0.29 3.27,0.7 8.12,2.68 8.93,3.67 0.37,0.44 0.22,1.32 -0.61,3.43 -0.62,1.57 -1.25,3.61 -1.42,4.54 -0.43,2.46 -1.77,2.31 -3.01,-0.35 -1.29,-2.74 -4.71,-5.73 -7.63,-6.68 -3.06,-0.99 -8.24,-0.98 -11.34,0 -7.57,2.44 -10.13,12.36 -4.76,18.45 2.09,2.38 4.27,3.54 14.3,7.6 8.48,3.43 10.91,4.84 13.74,8.08 8.2,9.1 3.71,26.3 -8.38,32.2 -5.57,2.8 -14.52,3.6 -21.79,2.2 z m 63.59,0.1 c -7.93,-2 -14.17,-8 -16.75,-16 -1.1,-3.4 -1.35,-12.8 -0.45,-16.9 2.03,-9.1 7.65,-15.54 15.8,-18.1 2.7,-0.84 4.2,-1 9.1,-0.98 6.3,0 9.6,0.81 13.3,3.12 5.7,3.62 9,10.55 9,19.06 l 0,3.8 -18.5,0 -18.5,0 0,2.4 c 0,13.2 9.5,21.3 21.8,18.6 3.9,-0.9 7.8,-3.2 10.3,-6.1 2.4,-2.8 3,-2.3 2.4,2.1 l -0.5,3.5 -2.7,1.8 c -4.6,3.1 -7.9,4 -15.5,4.1 -4.3,0.1 -7.3,0 -8.8,-0.4 z M 127,102.5 c -0.8,-7.77 -3.5,-12 -8.5,-13.46 -5.2,-1.49 -11.1,0.26 -14,4.14 -2.2,2.78 -4.4,9.92 -3.7,11.72 0.2,0.6 2.1,0.7 13.4,0.7 l 13.1,0 -0.3,-3.1 z m 504.6,33.6 c -3.9,-1.5 -6.8,-4.4 -8.4,-8.4 -1,-2.4 -0.8,-8.4 0.3,-10.9 2.2,-4.8 6,-6.9 17.6,-9.5 4.4,-1 8.5,-2 9.1,-2.2 1.1,-0.5 2.3,-2.9 2.3,-4.6 0,-0.63 -0.3,-2.23 -0.7,-3.58 -1.6,-5.35 -6.7,-8.25 -13,-7.28 -3.8,0.58 -6.2,2.12 -8.1,5.15 -1.4,2.04 -2.8,2.83 -3.9,2.14 -0.4,-0.24 -0.5,-1.29 -0.3,-3.56 0.3,-3.7 0.5,-4.01 5.3,-6.51 4.4,-2.33 7.3,-3.04 12.2,-3.03 8.5,0 14.1,2.98 16.8,8.83 1,2.22 1,2.54 1,18.74 0.1,11 0.2,16.9 0.6,17.7 0.7,1.7 2.1,2.3 4.2,2 1.7,-0.3 1.7,-0.3 1.7,1.3 0,1.4 -0.1,1.6 -2.1,2.5 -2.9,1.3 -7.2,1.7 -9,0.7 -1.7,-0.8 -3.7,-3.1 -4,-4.6 -0.2,-0.6 -0.4,-1.1 -0.5,-1.1 -0.1,0 -1.1,0.8 -2.1,1.6 -1,0.9 -3.4,2.4 -5.2,3.3 -3.1,1.5 -3.8,1.7 -7.7,1.8 -2.9,0.1 -4.9,-0.1 -6.1,-0.5 z m 15,-6.9 c 2.7,-1.3 4.7,-3.5 5.4,-6 0.3,-1 0.5,-4.4 0.5,-7.7 l 0,-6 -2.2,0.3 c -6.5,0.9 -13.1,3.4 -15.3,5.9 -2.6,3 -2.8,8.3 -0.4,11.7 2.2,3 7.8,3.9 12,1.8 z m -438.4,-32.48 0,-38.37 5.6,0 5.6,0 -0.3,3.61 c -0.6,7.77 -0.8,44.94 -0.3,44.94 1.2,0 18,-16.61 20.9,-20.65 l 0.9,-1.28 5.6,0 c 3.1,0 5.6,0 5.6,0 0,0 -5.3,4.65 -11.7,10.28 l -11.8,10.25 8,9.3 c 4.4,5.2 10,11.6 12.5,14.3 2.5,2.6 4.6,5.1 4.7,5.4 0.1,0.4 -1.6,0.5 -6.7,0.5 l -6.8,0 -3.8,-4.9 c -6.4,-8.5 -15.7,-19 -16.9,-19.2 l -1,-0.1 0.2,11.4 c 0.1,6.3 0.4,11.8 0.5,12.1 0.3,0.6 -0.5,0.7 -5.2,0.7 l -5.6,0 0,-38.35 z M 262,130.2 c 0.4,-6.5 0.4,-35.9 0,-41.15 l -0.4,-4.06 5.5,0 5.5,0 -0.3,2.93 c -0.5,3.95 -0.5,36.48 0,42.48 l 0.3,4.7 -5.5,0 -5.5,0 0.4,-4.9 z m 19,1.1 c 0.2,-2.1 0.4,-13.5 0.4,-25.3 l 0,-21.47 5.2,0 5.2,0 -0.2,3.16 c -0.1,1.74 -0.2,3.74 -0.3,4.45 l -0.1,1.27 1.2,-1.5 c 4.4,-5.81 10.6,-8.4 18.8,-7.89 5.7,0.36 8.8,1.58 11.7,4.57 1.5,1.5 2.7,3.32 3.4,5.02 1.1,2.66 1.1,2.68 1.1,22.09 l 0,19.4 -5.5,0 -5.5,0 0.3,-1.8 c 0.1,-1 0.3,-8.6 0.3,-16.9 0,-13.4 -0.1,-15.4 -0.8,-17.87 -1.6,-5.13 -4.5,-7.41 -9.8,-7.79 -4.5,-0.33 -7.6,0.73 -10.6,3.64 -1.9,1.81 -2.6,2.92 -3.1,4.83 -1.5,5.19 -1.9,18.59 -0.9,32.29 l 0.3,3.6 -5.7,0 -5.7,0 0.3,-3.8 z m 132.4,3.7 c 0,-0.1 2.7,-6.2 6,-13.6 11,-24.41 20.7,-46.44 24.5,-55.94 l 1.3,-3.28 2.6,0.12 2.7,0.13 4.1,10.38 c 4.8,11.76 10.8,25.77 20.3,47.39 3.6,8.1 6.6,14.8 6.6,14.9 0,0 -2.9,0 -6.5,0 l -6.5,0.1 -1.7,-5.2 c -0.9,-2.9 -3,-8.4 -4.6,-12.3 -1.6,-3.8 -3.1,-7.5 -3.4,-8.2 l -0.5,-1.2 -13.2,0 -13.2,0 -0.8,1.7 c -2.8,6.7 -5.4,13.6 -7,18.9 l -1.8,6.3 -4.5,0 c -2.4,0 -4.4,-0.1 -4.4,-0.2 z m 42.4,-32.4 c 0,-0.4 -10.5,-24.38 -10.8,-24.7 -0.2,-0.24 -9.4,20.58 -10.8,24.5 -0.1,0.3 4.2,0.4 10.7,0.4 6,0 10.9,0 10.9,-0.2 z m 31.8,30.5 c 0.4,-2.7 0.4,-68.09 0,-71.8 l -0.3,-2.94 5.7,0 5.7,0 -0.4,8.58 c -0.4,11.04 -0.4,49.56 0,60.06 l 0.4,8.1 -5.7,0 -5.7,0 0.3,-2 z m 80.9,-0.9 c 0.4,-3.8 0.4,-67.08 0,-70.91 l -0.4,-2.95 6,0 5.9,0 -0.3,3.17 c -0.1,1.74 -0.4,9.67 -0.5,17.61 l -0.3,14.45 1.3,-1.81 c 2.9,-3.97 6.4,-6.2 11.4,-7.25 5.8,-1.23 11.6,-0.61 15.9,1.72 3.1,1.62 4.6,3.22 6.2,6.66 l 1.2,2.48 0.1,19.93 0.1,19.8 -5.4,0 -5.5,0 0.4,-6.5 c 0.5,-10.1 0.4,-25.1 -0.3,-28.2 -1.6,-7.2 -5.7,-10.28 -12.8,-9.64 -5.5,0.5 -9.8,3.9 -11.5,9.01 -0.9,2.83 -1.3,18.93 -0.7,29.03 l 0.4,6.3 -5.8,0 -5.8,0 0.4,-2.9 z M 709.6,94.86 c -0.5,-0.1 -2,-0.39 -3.4,-0.66 -3.9,-0.77 -8.4,-3.19 -11.3,-6.01 -9,-8.73 -11,-26.01 -4.7,-39.39 3.9,-8.23 10.3,-13.4 18.9,-15.36 6.3,-1.43 13.1,0.68 18.1,5.6 2.7,2.69 6.3,8.3 6.8,10.58 0.2,0.71 0.5,1.39 0.7,1.52 0.4,0.28 2.5,-2.91 7,-11 l 3.2,-5.7 2.8,-0.13 c 2.2,-0.11 2.8,0 2.6,0.45 -0.1,0.32 -1.3,3.23 -2.7,6.47 -9.8,23.13 -10.6,37.84 -2.7,45.57 3,2.92 5.6,2.67 7.3,-0.72 0.5,-1.14 1.1,-3.13 1.3,-4.42 0.2,-1.99 0.5,-2.46 1.5,-3.01 1.3,-0.65 1.3,-0.65 1.6,1.04 0.2,0.93 0.4,3.34 0.4,5.36 0,3.01 -0.2,4.07 -1.1,5.82 -1.7,3.18 -3,4 -6.9,4.19 -3,0.14 -3.4,0 -5.4,-1.23 -2.5,-1.58 -5.3,-5.6 -6.5,-9.21 -0.4,-1.28 -0.8,-2.38 -0.8,-2.43 0,0 -2,1.78 -4.3,4.07 -3.3,3.15 -5.2,4.57 -7.8,5.86 -4.8,2.39 -10.7,3.5 -14.6,2.74 z M 720,88.43 c 6.5,-2.89 10,-9.91 10.5,-21.29 0.4,-9.55 -1.4,-16.83 -5.6,-22.41 -3.4,-4.44 -6.9,-6.44 -11.4,-6.51 -7.8,-0.11 -13.3,5.41 -15.7,15.63 -1.2,5.47 -1.1,15.03 0.2,20.08 1.9,7.05 5.8,12.55 10.3,14.75 1.9,0.95 2.7,1.07 5.8,0.93 2.5,-0.12 4.4,-0.49 5.9,-1.18 z M 264.9,72.73 c -3.9,-1.98 -4.2,-7.21 -0.6,-10.04 2.3,-1.87 6.6,-0.9 8.3,1.9 1,1.75 1.1,3.52 0.1,5.53 -1.3,2.83 -4.9,4.05 -7.8,2.61 z"></path>
   
</svg>
