<?xml version="1.0"?>

<svg xmlns="http://www.w3.org/2000/svg" viewBox="0 0 545 150" width="545" height="150">
  <path d="m 413.95,22.001 c -5.89,0.1 -11.72,2.56 -15.92,7.19 -3.12,3.42 -4.96,7.48 -5.43,12.1 -0.68,6.8 1.41,12.7 6.03,17.7 -3.93,7.78 -7.78,15.35 -11.67,22.96 -3,-0.13 -5.73,-0.1 -8.6,0.43 -4.62,-7.74 -9.19,-15.39 -13.72,-22.96 6.2,-9.71 2.99,-18.65 -1.63,-23.35 -5.56,-5.64 -14.02,-7.14 -21.04,-3.55 -7.09,3.55 -10.9,11.25 -9.53,19.29 0.6,3.67 2.31,6.92 4.96,9.58 4.27,4.19 9.53,5.6 15.35,5.04 4.66,7.78 9.19,15.39 13.68,22.92 -9.15,11.759 -5.39,25.439 2.44,32.029 8.42,7.1 20.91,7.14 29.16,0 3.98,-3.47 6.59,-7.87 7.44,-13.09 1.24,-7.61 -0.94,-14.279 -6.16,-19.919 3.9,-7.7 7.7,-15.23 11.55,-22.84 v -0.17 c 13.55,-0.21 21.72,-5.86 24.33,-16.55 2.39,-9.62 -2.09,-19.54 -10.95,-24.28 -3.22,-1.75 -6.77,-2.57 -10.29,-2.53 z M 45.755,50.111 c -3.897,0.11 -7.804,1.09 -11.695,2.98 -8.253,4.02 -10.52,11.03 -9.024,19.03 0.984,5.21 4.405,8.64 9.108,10.82 3.592,1.71 7.44,2.69 11.161,4.02 2.01,0.68 3.938,1.49 5.603,2.82 2.01,1.58 2.91,3.63 2.91,6.28 -0.173,3.68 -2.4,6.669 -6.248,7.829 -6.242,1.84 -11.63,0.1 -16.376,-4.149 -0.556,-0.47 -0.855,-1.15 -1.796,-1.58 -2.395,2.269 -4.831,4.529 -7.398,6.929 1.455,1.83 3.036,3.2 4.832,4.27 7.867,4.66 16.249,5.65 24.931,2.95 7.612,-2.35 12.06,-7.65 12.915,-15.689 0.727,-6.8 -1.673,-12.23 -7.658,-15.78 -1.41,-0.85 -2.865,-1.58 -4.402,-2.14 -2.655,-0.89 -5.303,-1.84 -7.913,-2.69 -1.795,-0.6 -3.591,-1.16 -5.173,-2.14 -2.523,-1.45 -4.02,-3.59 -4.02,-6.63 0.129,-2.95 1.625,-5.09 4.234,-6.5 4.914,-2.69 11.544,-1.83 16.082,2.06 0.51,0.42 0.855,1.32 1.747,1.32 2.183,-2.39 4.403,-4.87 6.548,-7.22 -0.218,-0.82 -0.728,-0.95 -1.163,-1.37 -0.765,-0.6 -1.492,-1.16 -2.302,-1.59 -4.913,-2.67 -9.9,-3.97 -14.903,-3.83 z m 248.305,1.56 c -0.58,0 -1.19,0 -1.86,0.44 v 59.599 c 0.94,0.43 1.71,0.43 2.48,0.43 h 17.96 c 3.21,0.1 6.37,-0.3 9.49,-0.94 7.91,-1.71 14.67,-5.3 19.54,-12.009 4.88,-6.8 5.73,-14.46 4.88,-22.45 -0.3,-2.57 -0.81,-5.05 -2.01,-7.49 -7.44,-2.31 -12.49,-7.18 -15.01,-14.62 -4.87,-2.05 -9.92,-2.95 -15.09,-2.95 h -19.8 c -0.19,0 -0.39,0 -0.58,0 z m -222.76,0 V 111.79 H 81.99 V 85.401 c 3,-0.34 26.39,-0.16 28.27,0.42 v 26.219 h 10.34 c 0.69,-2.91 0.52,-58.409 0,-60.119 h -10.3 v 24.08 l -28.48,-0.21 v -24.12 z m 120.54,0 c -0.34,0 -0.77,0 -1.28,0.42 v 59.729 h 10.65 V 86.471 h 7.82 c 4.75,8.59 9.41,17.099 13.99,25.529 h 12.99 c -2.78,-4.62 -5.43,-8.99 -8.03,-13.349 -2.61,-4.4 -5.26,-8.76 -7.96,-13.25 1.33,-0.46 2.4,-0.76 3.38,-1.2 6.63,-2.61 10.39,-7.74 10.39,-14.83 0.17,-7.05 -3.21,-12.48 -9.62,-15.39 -3.51,-1.59 -7.27,-2.31 -11.08,-2.31 z m -40.66,0.16 c -8.72,20.06 -17.45,40.07 -26.21,60.259 h 12.01 c 1.84,-4.62 3.64,-9.15 5.48,-13.739 h 26.16 c 1.89,4.589 3.77,9.149 5.69,13.769 h 12.27 C 177.82,91.781 169.18,71.771 160.59,51.831 Z m 301.84,0 c -0.43,1.11 -0.43,1.92 -0.43,2.78 v 30.79 c 0,1.58 -0.1,3.12 -0.51,4.61 -1.11,3.51 -3.76,5.49 -7.53,5.49 -3.67,0 -6.45,-1.98 -7.52,-5.43 -0.51,-1.47 -0.51,-2.91 -0.51,-4.37 v -27.07 c 0,-0.77 0,-1.53 -0.43,-2.57 -2.23,3.72 -5,6.72 -8.47,8.99 -3.5,2.23 -7.44,3.37 -11.67,4.02 0.47,8.16 -0.56,16.17 0.47,24.16 1.07,8.159 5.43,14.239 13.04,17.749 7.57,3.49 15.52,3.66 23.48,1.95 11.97,-2.52 19.71,-11.76 19.71,-23.549 v -35.65 c 0,-0.6 0.17,-1.24 -0.47,-1.88 z m 28.01,0 L 481.2,112 H 524 V 95.271 h -23.6 c -0.43,-2.01 -0.47,-3.67 0,-5.59 h 20.74 v -15.9 h -20.83 c -0.42,-1.85 -0.51,-3.35 0,-5.15 h 22.11 v -16.8 z m -238.73,0.1 V 112 c 2.52,0.44 39.17,0.44 41.14,0 v -9.45 H 252.99 V 85.621 h 27.41 c 0,-3.12 0.43,-6.03 0,-9.2 h -27.41 v -15.34 h 28.91 v -9.15 z m -33.2,8.82 c 2.56,0 5.11,0.13 7.63,0.79 2.91,0.74 5.26,2.36 5.99,5.52 0.68,2.91 0.17,5.61 -2.06,7.74 -1.45,1.46 -3.33,2.09 -5.34,2.52 -4.58,0.9 -9.15,0.48 -13.98,0.48 v -16.98 c 2.61,0.1 5.19,-0.1 7.76,-0.1 z m 101.24,0.22 c 3.2,0 6.39,0.18 9.57,0.87 8.98,1.94 14.62,8.43 15.09,17.63 0.43,2.38 0.43,4.83 0,7.17 -1.24,6.73 -5,11.47 -11.33,14.079 -6.67,2.7 -13.64,2.18 -20.74,2.18 l -0.21,-41.479 c 0.6,-0.42 1.24,-0.42 1.88,-0.42 1.91,0 3.82,-0.1 5.74,0 z m -154.5,4.29 c 2.95,7.83 5.94,15.66 8.98,23.69 h -18.56 c 2.95,-8.04 6.07,-15.86 9.58,-23.69 z"></path>
</svg>
