<?xml version="1.0"?>

<svg xmlns="http://www.w3.org/2000/svg" viewBox="0 0 210 50" width="210" height="50">
 <path d="M 164,39.85 153.3,20.58 v 19.27 h -6 V 9.8 h 9.8 l 10.3,18.94 V 9.8 h 6 v 30.05 z m -35.1,-24.5 v 6.67 h 11.5 v 5 h -11.5 v 7 h 13.5 v 5.83 H 120.2 V 9.8 h 21.9 v 5.55 z M 105,39.85 V 20.03 L 96.38,40.12 H 91.23 L 82.92,20.03 V 39.85 H 76.89 V 9.8 h 10.9 L 95.23,28.19 103,9.8 h 10.4 V 39.85 Z M 58.42,15.35 v 6.67 h 11.51 v 5 H 58.42 v 7 h 13.54 v 5.83 H 49.83 V 9.8 h 21.86 v 5.55 z M 42.93,39.85 H 34 V 9.8 h 8.93 z M 27.72,10.35 v 5.83 c -3.02,-1.14 -5.7,-1.72 -8.06,-1.72 -1.39,0 -2.5,0.26 -3.33,0.76 -0.84,0.5 -1.26,1.12 -1.26,1.85 0,0.97 0.95,1.84 2.85,2.61 l 5.48,2.67 c 4.41,2.11 6.62,4.92 6.62,8.44 0,2.93 -1.18,5.26 -3.51,6.99 -2.35,1.75 -5.48,2.61 -9.41,2.61 -1.81,0 -3.43,-0.1 -4.87,-0.24 C 10.79,40 9.147,39.68 7.297,39.22 v -6.1 c 3.383,1.14 6.453,1.72 9.193,1.72 3.3,0 4.93,-0.95 4.93,-2.88 0,-0.96 -0.66,-1.73 -2.01,-2.34 l -6.09,-2.6 C 11.06,26.01 9.388,24.78 8.313,23.32 7.22,21.85 6.686,20.16 6.686,18.24 c 0,-2.7 1.128,-4.87 3.384,-6.53 2.25,-1.63 5.25,-2.456 8.99,-2.456 1.22,0 2.61,0.107 4.17,0.305 1.55,0.211 3.05,0.471 4.49,0.791 z m 172.38,0 v 5.83 c -3,-1.14 -5.7,-1.72 -8,-1.72 -1.4,0 -2.5,0.26 -3.4,0.76 -0.8,0.5 -1.2,1.12 -1.2,1.85 0,0.97 0.9,1.84 2.8,2.61 l 5.5,2.67 c 4.4,2.11 6.6,4.92 6.6,8.44 0,2.93 -1.2,5.26 -3.5,6.99 -2.3,1.75 -5.5,2.61 -9.4,2.61 -1.8,0 -3.4,-0.1 -4.9,-0.24 -1.4,-0.15 -3.1,-0.47 -4.9,-0.93 v -6.1 c 3.4,1.14 6.4,1.72 9.2,1.72 3.3,0 4.9,-0.95 4.9,-2.88 0,-0.96 -0.6,-1.73 -2,-2.34 l -6.1,-2.6 c -2.2,-1.01 -3.9,-2.24 -5,-3.7 -1.1,-1.47 -1.6,-3.16 -1.6,-5.08 0,-2.7 1.1,-4.87 3.4,-6.53 2.2,-1.63 5.2,-2.456 9,-2.456 1.2,0 2.6,0.107 4.1,0.305 1.6,0.211 3.1,0.471 4.5,0.791 z"></path>
</svg>