<?xml version="1.0"?>
<!--?xml version="1.0" encoding="UTF-8" standalone="no"?-->
<svg xmlns="http://www.w3.org/2000/svg" viewBox="0 0 200 109.81" id="svg10353" height="109.81" width="200">


  <path d="M 86.22,82.95 V 72.83 c 0,-4.42 0,-9.43 -3.88,-13.33 -2.3,-2.3 -5.53,-3.52 -9.36,-3.52 -4.2,0 -6.78,2.07 -8.12,3.3 v -0.64 c 0,-0.19 0,-0.26 -0.1,-0.43 v 0 0 0 -0.1 -0.1 l -0.43,-0.58 -0.1,-0.1 v 0 0 0 C 63.95,57.13 63.62,57 63.25,57 h -7.01 c -0.91,0 -1.65,0.74 -1.65,1.66 v 32.42 c 0,0.92 0.74,1.66 1.65,1.66 h 7.01 c 0.82,0 1.5,-0.6 1.63,-1.38 v -0.25 -6.54 0 -17.66 c 0.9,-0.63 3.49,-2.04 6.13,-2.04 1.53,0 2.75,0.41 3.52,1.18 1.2,1.19 1.4,3.39 1.4,7.87 v 0.74 16.4 c 0,0.92 0.74,1.66 1.66,1.66 h 7 c 0.82,0 1.5,-0.6 1.63,-1.38 v -0.25 -6.53 0 -1.59 0 M 15.32,60.86 c -0.6,-0.28 -1.25,-0.63 -1.81,-1.07 -0.39,-0.28 -0.73,-0.63 -0.98,-1.04 l -0.21,-0.41 -0.11,-0.25 c -0.12,-0.36 -0.19,-0.74 -0.19,-1.15 0,-0.66 0.19,-1.27 0.51,-1.8 0.64,-1.14 1.84,-1.98 3.07,-2.35 3.69,-1.2 7.69,-0.1 10.94,1.8 l 0.61,0.32 c 0.37,0.22 0.76,0.36 1.09,0.36 0.55,0 1.03,-0.24 1.38,-0.61 v 0 c 1.19,-1.44 3.08,-4.35 3.12,-4.4 0.34,-0.56 0.38,-1.32 0,-1.9 L 32.41,47.91 31.93,47.53 C 26.86,44.01 20.35,42.82 14.31,43.8 10.79,44.4 7.37,45.99 4.95,48.65 1.04,52.84 0.24,59.69 3.29,64.59 c 2.12,3.44 5.75,5.6 9.38,7.17 2.67,1.26 5.61,2.07 8.1,3.72 1.35,0.82 2.25,2.29 2.25,3.99 0,1.83 -1.11,3.4 -2.55,4.17 -0.79,0.41 -1.55,0.74 -2.42,0.91 -0.87,0.18 -1.75,0.23 -2.63,0.2 -0.5,0 -0.99,-0.1 -1.49,-0.11 -2.89,-0.26 -5.44,-1.6 -7.98,-2.87 l -0.2,-0.1 C 5.32,81.49 4.84,81.5 4.41,81.67 4.07,81.8 3.84,82.02 3.62,82.31 3.37,82.64 0.89,86.5 0.71,86.84 L 0.49,87.5 v 0.27 c 0,0.54 0.23,1.02 0.59,1.36 2.52,2.13 5.75,3.31 8.93,4.09 5.26,1.13 11.01,1.03 15.88,-1.43 C 34.05,88.04 36.75,75.91 30.57,69.3 26.45,64.98 20.56,63.29 15.31,60.83 m 134.15,24.88 c -0.4,-1.09 -1.2,-1.26 -1.65,-1.26 l -0.68,0.11 c -1.01,0.27 -1.93,0.4 -2.91,0.4 -3.76,0 -4.07,-2.66 -4.07,-5.63 V 65.65 h 9.05 c 0.92,0 1.66,-0.74 1.66,-1.66 v -5.36 c 0,-0.87 -0.67,-1.57 -1.52,-1.64 h -0.11 v 0 0 h -9.05 v -8.85 c 0,-0.91 -0.74,-1.65 -1.65,-1.65 h -7.01 c -0.26,0 -0.52,0.1 -0.74,0.18 -0.7,0.29 -0.92,0.93 -0.92,1.42 V 79 c 0,4.88 0,8.4 3.1,11.5 2.81,2.82 7.03,3.23 9.29,3.23 3.47,0 6.02,-0.83 7.63,-1.59 0.44,-0.21 1.58,-1.01 0.95,-2.77 l -1.34,-3.64 m 19.73,-29.75 c -9.95,0 -17.16,8.02 -17.16,19.08 0,11.33 6.98,18.65 17.8,18.65 6.11,0 10.69,-2.23 12.4,-3.19 0.34,-0.19 1.29,-1.03 0.47,-2.64 l -1.7,-3.34 c -0.46,-0.89 -1.1,-1.08 -1.55,-1.08 -0.23,0 -0.45,0 -0.79,0.18 l -0.21,0.1 c -2.7,1.21 -5.24,1.79 -7.77,1.79 -2.74,0 -5.02,-0.87 -6.59,-2.53 -1.39,-1.46 -2,-3.34 -2.03,-4.67 h 23.22 c 0,0 0,-2.38 0,-3.34 0,-11.91 -6.01,-19.01 -16.09,-19.01 z m -7.13,14.74 c 0.84,-4.28 3.62,-6.92 7.34,-6.92 5.52,0 6.2,5.18 6.27,6.92 h -13.61 m 37.41,-22.7 c -0.1,-0.87 -0.77,-1.55 -1.65,-1.55 h -7.01 c -0.9,0 -1.62,0.72 -1.64,1.62 v 43.09 c 0.1,0.86 0.78,1.53 1.64,1.53 h 7.01 c 0.89,0 1.61,-0.7 1.65,-1.58 V 48.02 M 48.52,58.57 v -0.22 c -0.13,-0.78 -0.81,-1.38 -1.63,-1.38 h -7 c -0.92,0 -1.66,0.75 -1.66,1.66 v 32.43 c 0,0.91 0.74,1.66 1.66,1.66 h 7 c 0.82,0 1.5,-0.6 1.63,-1.39 V 91.08 58.57 m 60.74,-2.59 c -11.1,0 -19.15,8.05 -19.15,19.15 0,8.75 4.98,17.59 16.09,17.59 2.92,0 5.52,-0.62 7.84,-1.89 v 1.61 c 0,4.25 -0.97,8.19 -7.98,8.19 -1.63,0 -3.17,-0.26 -4.56,-0.65 -1.76,-0.52 -3.41,-1.37 -5.05,-2.19 l -0.18,-0.1 c -0.41,-0.17 -0.84,-0.15 -1.25,0 -0.31,0.12 -0.53,0.32 -0.72,0.58 -0.23,0.31 -2.54,3.88 -2.7,4.2 l -0.2,0.62 v 0.24 c 0,0.5 0.22,0.95 0.55,1.26 0.73,0.68 1.64,1.2 2.52,1.68 0.25,0.14 0.52,0.27 0.78,0.39 2.69,1.34 6.65,2.62 11.91,2.62 5.62,0 10.07,-1.59 13.21,-4.73 3.87,-3.88 3.87,-7.78 3.87,-12.71 V 59.81 l -0.3,-0.15 c -4.73,-2.37 -9.93,-3.68 -14.65,-3.68 z m 4.78,26.74 c -0.55,0.35 -2.91,1.6 -5.63,1.6 -3.98,0 -7.98,-3 -7.98,-9.69 0,-6.04 3.57,-10.26 8.69,-10.26 2.27,0 4.26,0.7 4.92,0.95 v 17.4 m 38.88,-51.8 c 0,-7.75 6.28,-14.04 14.04,-14.04 7.75,0 14.04,6.29 14.04,14.04 0,7.75 -6.29,14.04 -14.04,14.04 -7.76,0 -14.04,-6.29 -14.04,-14.04 M 125.36,19.28 c -2.33,-6.03 0.66,-12.81 6.69,-15.14 6.02,-2.33 12.8,0.66 15.13,6.69 2.33,6.02 -0.66,12.8 -6.69,15.13 -6.03,2.33 -12.8,-0.66 -15.13,-6.68 M 97.48,17.59 C 93.54,13.74 93.47,7.43 97.31,3.5 c 3.85,-3.93 10.16,-4.01 14.1,-0.16 3.93,3.85 4,10.16 0.15,14.09 -3.85,3.93 -10.16,4.01 -14.08,0.16 m -28.62,8.19 c -4.32,-1.4 -6.68,-6.05 -5.28,-10.36 1.41,-4.32 6.06,-6.68 10.38,-5.27 4.31,1.4 6.68,6.05 5.27,10.37 -1.41,4.32 -6.05,6.67 -10.37,5.26 M 44.15,43.01 c -3.56,0.41 -6.76,-2.15 -7.17,-5.71 -0.4,-3.56 2.16,-6.77 5.72,-7.17 3.55,-0.4 6.77,2.15 7.16,5.71 0.41,3.56 -2.15,6.77 -5.71,7.17"></path>
</svg>
