<?xml version="1.0"?>
<!--?xml version="1.0" encoding="UTF-8" standalone="no"?-->
<svg xmlns="http://www.w3.org/2000/svg" viewBox="0 0 467 184" height="184" width="467"> <path d="m 154.41,117.47 c 0.27,0.7 0.54,1.33 0.8,1.77 0.44,0.7 0.97,1.05 1.59,1.05 0.44,0 0.97,-0.17 1.59,-0.43 1.32,-0.62 56.67,-26.403 64.97,-30.192 1.24,-0.622 3.53,-1.594 4.33,-2.037 0.79,-0.443 1.14,-1.148 1.14,-1.76 0,-0.446 -0.17,-0.798 -0.35,-1.154 -1.06,-1.677 -6.44,-7.321 -15.36,-13.505 -7.06,3.882 -18.19,9.89 -34.69,9.973 -4.06,0 -4.94,-0.259 -7.68,-0.259 -8.12,0.08 -10.07,3.527 -10.42,10.587 0,1.33 -0.1,3.092 -0.1,5.036 -0.27,6.351 -1.07,15.091 -5.84,20.921 M 96.95,86.485 c -1.407,0 -2.03,-0.879 -2.208,-2.47 C 94.57,82.512 87.947,21.87 86.973,12.778 86.798,11.363 86.446,8.981 86.446,8.094 c 0,-1.407 0.974,-2.2 2.032,-2.2 3.089,0 20.212,3.968 38.402,16.769 -5.21,1.41 -14.75,6.886 -14.66,18.187 0,9.888 7.15,15.447 7.24,25.425 0,16.237 -18.71,20.21 -22.51,20.21 m 55.88,26.655 c 3.35,-5.21 3.79,-13.499 4.06,-21.886 0.36,-7.858 1.94,-13.772 12.45,-13.858 2.38,0 4.59,0.35 8.56,0.35 15.45,-0.08 25.51,-5.383 31.78,-8.916 -12.8,-8.117 -31.43,-16.416 -54.64,-17.391 -1.5,4.243 -13.25,36.904 -14.13,39.553 0.18,0.08 2.21,2.379 4.77,6.881 3.8,6.177 5.83,11.387 7.15,15.267 M 130.58,25.309 c -5.91,1.151 -14.65,6.531 -14.56,15.979 0,8.563 7.06,13.858 7.06,25.07 0,8.475 -4.68,14.213 -9.71,17.394 2.03,-0.176 4.24,-0.265 6.71,-0.265 5.21,-0.09 8.29,0.438 8.47,0.438 L 155.03,51.437 C 147.71,40.409 139.15,31.931 130.58,25.309 M 39.573,133.36 c -6.181,-2.91 -11.3,-5.21 -11.3,-9.97 0,-3.62 2.912,-6.18 8.648,-6.18 2.031,0 3.8,0.17 5.563,0.52 0.884,0.18 1.849,0.36 2.737,0.36 4.944,0 7.766,-3 9.619,-8.65 l 0.795,-2.3 c -0.795,-0.35 -8.913,-3.88 -19.508,-3.88 -16.862,0 -25.776,10.77 -25.776,22.07 0,5.65 1.766,9.71 4.5,12.97 3.624,4.15 8.657,6.89 13.42,9.18 6.972,3.45 13.236,5.92 13.236,10.95 0,4.5 -4.587,7.06 -10.765,7.06 -8.563,0 -15.976,-4.85 -16.859,-5.38 L 6.91,173.17 c 1.235,0.71 10.152,6.36 24.979,6.36 15.716,0 27.632,-9.01 27.632,-22.95 0,-13.78 -11.031,-18.89 -19.948,-23.22 m 61.527,6.45 28.6,-35.05 H 109.31 L 86.537,134.95 H 86.178 V 104.76 H 69.409 v 74.15 h 1.057 c 7.242,0 15.886,-3.35 15.886,-15.45 v -17.04 h 0.271 l 23.217,31.61 h 21.36 z m 343.22,-2.83 c -8.83,0 -13.33,5.83 -14.04,6.71 -2.3,-4.24 -6.36,-6.71 -11.74,-6.71 -7.76,0 -12.18,4.5 -12.89,5.3 -0.35,-1.24 -1.94,-4.51 -6.98,-4.51 -1.4,0 -3.52,0.45 -3.7,0.45 0.18,0.97 1.15,5.56 1.15,11.91 0,3.97 0,27.9 0,27.9 h 10.24 V 149.6 c 0.17,-0.17 3.98,-4.06 8.56,-4.06 4.68,0 6.89,3.44 6.89,8.12 v 24.37 h 10.24 V 149.6 c 0.26,-0.26 3.97,-4.06 8.65,-4.06 4.68,0 6.79,3.44 6.79,8.12 v 24.37 h 10.33 v -25.96 c 0,-9.17 -5.2,-15.09 -13.5,-15.09 M 332.3,170.61 c -6.98,0 -11.92,-5.47 -11.92,-12.62 0,-7.95 5.65,-12.71 11.92,-12.71 3.35,0 4.76,0.97 6.97,0.97 2.38,0 3.71,-1.15 4.85,-3.45 0.71,-1.23 1.07,-2.03 1.07,-2.03 -0.54,-0.26 -5.65,-3.79 -14.48,-3.79 -12.89,0 -20.57,9.27 -20.57,21.01 0,12.89 8.83,20.92 20.57,20.92 8.56,0 13.68,-3.44 14.65,-4.15 l -3.53,-6.97 c -0.79,0.53 -4.51,2.82 -9.53,2.82 z M 220.19,136.98 c -9.8,0 -18.01,7.95 -18.01,21.01 0,13.33 8.03,20.92 19.95,20.92 9.53,0 14.47,-4.15 15.09,-4.5 0,0 -0.97,-1.5 -1.23,-1.94 -1.33,-2.21 -2.83,-2.91 -4.51,-2.91 -3.35,0 -3.79,1.4 -8.38,1.4 -7.86,0 -10.59,-6.08 -10.77,-10.14 h 26.21 c 0,-1.07 0,-2.48 0,-3.09 0,-12.45 -7.14,-20.75 -18.35,-20.75 z m -7.86,16.5 c 0,-4.58 3.17,-8.82 7.76,-8.82 5.04,0 7.78,4.41 7.86,8.82 z m 43.69,13.25 v -41.84 c 0,-4.68 -3.09,-8.3 -8.03,-8.3 -0.26,0 -2.12,0 -2.12,0 v 54.2 c 0,5.03 3.09,8.12 8.48,8.12 6.62,0 8.56,-4.68 8.56,-9.18 -0.26,0.18 -1.68,0.71 -3.09,0.71 -2.38,0 -3.8,-1.33 -3.8,-3.71 z m -68.32,-1.41 v -19.86 h 8.56 l 3,-7.69 H 187.7 v -12 c 0,0 -0.88,-0.1 -0.97,0 -4.51,0 -9.27,1.85 -9.27,11.92 v 0.1 h -7.51 v 7.69 h 7.51 v 23.39 c 0,6.62 3.97,10.06 9.53,10.06 4.5,0 10.33,-1.32 10.33,-10.24 -0.35,0.18 -2.56,1.59 -4.94,1.59 -3.36,0 -4.68,-2.03 -4.68,-4.94 z m 96.66,-28.34 c -9.8,0 -18.1,7.95 -18.1,21.01 0,13.33 8.04,20.92 20.05,20.92 9.44,0 14.38,-4.15 15,-4.5 0,0 -0.88,-1.5 -1.15,-1.94 -1.41,-2.21 -2.91,-2.91 -4.59,-2.91 -3.35,0 -3.79,1.4 -8.38,1.4 -7.77,0 -10.51,-6.08 -10.69,-10.14 h 26.22 c 0,-1.07 0,-2.48 0,-3.09 0,-12.45 -7.23,-20.75 -18.36,-20.75 z m -7.95,16.5 c 0,-4.58 3.27,-8.82 7.77,-8.82 5.04,0 7.86,4.41 7.94,8.82 z m 92.34,25.43 c -12.53,0 -20.04,-8.21 -20.04,-20.92 0,-12.62 7.42,-21.01 20.04,-21.01 12.62,0 20.04,8.39 20.04,21.01 0,11.92 -6.8,20.92 -20.04,20.92 z m 0,-7.85 c 6.27,0 9.89,-5.39 9.89,-13.07 0,-7.68 -3.54,-13.15 -9.89,-13.15 -6.18,0 -9.89,5.38 -9.89,13.15 0,7.5 3.54,13.07 9.89,13.07 z"></path> </svg>