<svg viewBox="0 0 900 400" width="512px" height="512px"    xmlns="http://www.w3.org/2000/svg"
 >
<path d="m 579.7,95.27 c 0,6.63 -5.4,12.03 -11.9,12.03 -6.7,0 -12.1,-5.4 -12.1,-12.03 0,-6.7 5.4,-12.1 12.1,-12.1 6.5,0 11.9,5.4 11.9,12.1 l 0,0 z M 820.3,233.3 c 0,-1.4 0.8,-3.5 2.4,-6.4 1.6,-2.8 3.2,-4.2 4.8,-4.2 0,0 1.6,0.6 3.2,2 2.3,1.3 5.5,2.7 9.5,4 4,1.4 8.7,2 14.3,2 5.5,0 10.3,-1.6 13.5,-4.7 3.9,-3.2 5.5,-7.5 5.5,-13 0,-5.4 -1.6,-9.6 -4.7,-12.7 -3.2,-3 -9.6,-5.9 -19.1,-8.5 -9.5,-2.7 -15.9,-6.1 -20.6,-10.4 -4,-4.2 -6.4,-10.4 -6.4,-18.9 0,-8.5 3.2,-15.6 9.5,-21.4 7.2,-5.7 15.1,-8.5 26.2,-8.5 7.2,0 13.5,0.9 19.1,2.7 5.5,1.9 8.7,3.9 8.7,6.2 0,1.8 -0.8,4.2 -3.2,7.1 -1.6,2.9 -2.3,4.4 -3.9,4.4 0,0 -0.8,-0.5 -2.4,-1.3 -5.6,-2.5 -10.3,-3.9 -16.7,-3.9 -5.5,0 -10.3,1.3 -14.3,3.7 -3.1,2.5 -4.7,5.7 -4.7,9.7 0,4 1.6,7.1 3.9,9.3 2.4,2.3 6.4,4.4 12.7,6.2 12.7,4.1 22.3,8.6 27,13.5 4.3,4.8 7.3,12.2 7.3,22 0,9.8 -4,17.9 -10.5,24.3 -7.1,6.4 -15.8,9.5 -25.3,9.5 -9.6,0 -18.3,-1.4 -25.4,-4.3 -7.2,-3 -10.4,-5.7 -10.4,-8.4 l 0,0 z m -31.5,-51.9 c 0,-22.4 -8,-33.6 -25.4,-33.6 -18.3,0 -27.8,11.2 -29.4,33.6 l 54.8,0 0,0 z m -61.1,50.8 c -8.8,-9.2 -13.8,-23.2 -13.8,-42 0,-18.9 5,-33.3 13,-43 8.7,-9.7 20.6,-14.6 35.7,-14.6 30.4,0 45.8,18.5 45.8,55.4 0,1.2 -0.8,3 -2.3,5.2 -1.6,2.3 -3.2,3.4 -4.8,3.4 l -67.3,0 c 0.8,11.8 4,20.4 8.7,25.9 5.6,5.5 13.5,8.2 23.8,8.2 9.6,0 18.3,-2.2 26.5,-6.7 3.1,-1.4 4.7,-2.2 4.7,-2.2 2,0 3.6,1.5 5.2,4.3 1.6,2.8 2.4,4.9 2.4,6.4 0,2.8 -4,5.8 -11.5,8.9 -8.2,3.1 -16.9,4.6 -27.3,4.6 -17.4,0 -30.9,-4.6 -38.8,-13.8 l 0,0 z M 620.1,187.7 c 0,28.6 9.2,42.9 27.6,42.9 9.2,0 18.2,-5 27.1,-14.7 l 0,-58.1 c -7.6,-6.3 -16.2,-9.5 -25.6,-9.5 l -1.3,0 c -9,0.1 -15.9,3.5 -20.7,10.4 -4.8,6.7 -7.1,16.4 -7.1,29 l 0,0 z m 56.2,42.4 C 666.2,240.7 654.8,246 642.4,246 629.9,246 620,240.8 612.6,230.3 605.1,219.9 601.4,206.4 601.4,190 l 0,-1.9 c 0,-17.4 4,-30.9 11.9,-40.8 7.9,-9.8 17.9,-14.7 29.7,-14.7 11.9,0 22.5,3.5 31.8,10.8 l 0,-53.43 c 0,-3.1 2.9,-4.7 8.5,-4.7 l 0.9,0 c 5.6,0 8.5,1.6 8.5,4.7 l 0,123.33 c 0,8.5 0.3,14.7 1,18.5 0.9,5.3 1.5,8 1.5,8.3 0,1.7 -1.3,2.9 -4,3.7 -2.7,0.8 -4.8,1.1 -6.3,1.1 -1.5,0 -2.6,0 -3.1,-0.4 -0.6,-0.2 -1.1,-0.8 -1.6,-1.5 -0.5,-0.7 -0.9,-1.3 -1.1,-2 -0.3,-0.6 -0.6,-1.5 -0.9,-2.6 -0.3,-1.2 -0.5,-2 -0.7,-2.7 -0.2,-0.6 -0.5,-1.6 -0.6,-2.9 -0.3,-1.4 -0.4,-2.2 -0.6,-2.7 l 0,0 z m -117.5,11.2 0,-104.8 c 0,-3.1 2.8,-4.6 8.5,-4.6 l 0.9,0 c 5.6,0 8.4,1.5 8.4,4.6 l 0,104.8 c 0,3.1 -2.8,4.7 -8.4,4.7 l -0.9,0 c -5.7,0 -8.5,-1.6 -8.5,-4.7 l 0,0 z m -59.6,-24.5 0,-126.83 c 0,-3.1 2.9,-4.7 8.5,-4.7 l 0.9,0 c 5.6,0 8.5,1.6 8.5,4.7 l 0,125.13 c 0,10.4 3.8,15.6 11.4,15.6 2.4,0 4.4,-0.1 6.2,-0.4 1.6,-0.4 2.7,-0.6 2.9,-0.6 1.3,0 2.3,1.3 3.2,3.9 0.9,2.6 1.2,4.7 1.2,6.1 0,4.2 -5.1,6.3 -15.4,6.3 -7.1,0 -13.4,-2.1 -19,-6.5 -5.5,-4.2 -8.4,-11.9 -8.4,-22.7 l 0,0 z M 407,233.3 c 0,-1.4 0.9,-3.5 2.6,-6.4 1.8,-2.8 3.4,-4.2 4.8,-4.2 0.1,0 1.2,0.6 3.4,2 2.1,1.3 5.1,2.7 9.1,4 4,1.4 8.7,2 14.3,2 5.6,0 10.2,-1.6 13.8,-4.7 3.6,-3.2 5.4,-7.5 5.4,-13 0,-5.4 -1.6,-9.6 -4.8,-12.7 -3.1,-3 -9.5,-5.9 -18.9,-8.5 -9.5,-2.7 -16.4,-6.1 -20.6,-10.4 -4.3,-4.2 -6.3,-10.4 -6.3,-18.9 0,-8.5 3.2,-15.6 9.7,-21.4 6.5,-5.7 14.9,-8.5 25.4,-8.5 7.2,0 13.7,0.9 19.3,2.7 5.7,1.9 8.5,3.9 8.5,6.2 0,1.8 -0.8,4.2 -2.4,7.1 -1.7,2.9 -3.1,4.4 -4.4,4.4 -0.1,0 -1.1,-0.5 -2.7,-1.3 -4.9,-2.5 -10.3,-3.9 -16.2,-3.9 -6.1,0 -10.7,1.3 -14.1,3.7 -3.3,2.5 -5,5.7 -5,9.7 0,4 1.3,7.1 3.8,9.3 2.4,2.3 6.6,4.4 12.6,6.2 13.3,4.1 22.3,8.6 27,13.5 4.8,4.8 7.1,12.2 7.1,22 0,9.8 -3.5,17.9 -10.5,24.3 -7,6.4 -15.4,9.5 -25,9.5 -9.8,0 -18.2,-1.4 -25.4,-4.3 -7,-3 -10.5,-5.7 -10.5,-8.4 l 0,0 z M 86.2,22 84.6,30.96 193.2,41.52 86.2,22 Z M 55,32.79 l -0.7,7.7 80.3,0 -79.6,-7.7 z m -33,12.93 0,282.38 282.4,0 0,-282.38 -282.4,0 z m 287.7,11.75 0,274.33 26.3,-271.83 -26.3,-2.5 z m 30.2,10.8 -26.9,277.93 -50,-4.9 50.3,9.2 L 364,72.67 339.9,68.27 Z M 165.8,124.6 c 8.4,0 15.8,1 22.4,3.1 6.5,2.2 9.8,4.5 9.8,7.2 0,2.1 -0.9,4.8 -2.8,8.2 -1.9,3.4 -3.6,5 -5,5 -0.2,0 -1.3,-0.5 -3.3,-1.4 -5.5,-3 -11.8,-4.5 -18.8,-4.5 -6.9,0 -12.4,1.5 -16.2,4.3 -3.8,2.9 -5.8,6.6 -5.8,11.2 0,4.6 1.5,8.2 4.3,10.8 2.9,2.6 7.8,5 14.7,7.2 15.4,4.7 25.8,9.9 31.4,15.6 5.4,5.6 8.1,14.1 8.1,25.5 0,11.4 -4,20.8 -12.1,28.1 -8.1,7.4 -17.9,11.1 -29.1,11.1 -11.3,0 -21.1,-1.7 -29.3,-5 -8.2,-3.4 -12.2,-6.6 -12.2,-9.7 0,-1.7 1,-4.1 3,-7.4 2,-3.3 3.9,-4.9 5.5,-4.9 0.2,0 1.5,0.8 4,2.3 2.5,1.6 6,3.2 10.6,4.7 4.6,1.6 10,2.3 16.5,2.3 6.5,0 11.8,-1.9 16,-5.5 4.2,-3.7 6.3,-8.7 6.3,-15 0,-6.3 -1.9,-11.2 -5.6,-14.8 -3.6,-3.5 -11,-6.8 -22,-9.9 -10.9,-3.1 -18.9,-7 -23.8,-11.9 -4.9,-4.8 -7.4,-12.2 -7.4,-22 0,-9.8 3.8,-18.1 11.3,-24.7 7.5,-6.6 17.4,-9.9 29.5,-9.9 z m 63.4,208.8 79.5,7.7 0.8,-7.7 -80.3,0 z"></path>
</svg>