<?xml version="1.0"?>

<svg xmlns="http://www.w3.org/2000/svg" height="612.0000" width="792.0000" viewBox="0 0 792.0000 612.0000">
 
  <path class="only-light-background" d="m 175.5,128 -28.5,18 -30.6,-1.8 7.8,48.3 c -14.4,13.4 -27.68,28.5 -37.06,45.4 -36.96,-13.2 -67.87,25 -22.97,34.9 -25.2,22.4 -35.92,72.6 -15.59,91.4 -33.49,28.3 -6.76,45.9 26.75,23.8 14.46,9.1 33.77,11.7 56.47,11.3 1.9,2.4 4.9,4.9 8.8,6.9 -63.34,-4.9 -43.71,46.9 14.6,37.4 10.3,10.3 7.8,30.8 -12.3,40.4 29.3,-0.9 52.7,-35 28,-57.9 4.4,-13.4 0,-22.7 -10.1,-29.1 7.9,-1.5 15.3,-4.2 21.5,-7.5 17,17.8 41.5,0.6 19.5,-16.4 6.6,-6 7,-13.4 9.8,-10.7 28,31 15,60.4 49.3,78.3 35.2,12.8 88.4,-26.1 129.4,-74 0,0 0,0 0,0 0,0 0,0 0,0 0,15.4 10.5,19.1 5.3,18.8 -15.9,0 -12.5,0.6 -19.6,24.7 -11.4,35.7 42.2,40.2 60.5,25.5 3.8,-1.7 1,4.6 9.7,6.1 l 23.1,0 c 4.6,-0.3 5.4,-2.1 6.3,-2.7 2.6,-1.6 2.8,2.6 6.5,2.9 l 27.8,-0.6 c 8.6,-1.7 5.8,-16.1 10.6,-9 13.8,18 45.9,12.2 57.1,2 5.1,-2.8 2.7,5.9 12.4,6.7 l 57.7,0.2 c 4.8,0 10.6,-2.4 12.1,-7.4 5.5,-18.4 16.7,-43.6 12.6,-50.2 -1,-1.6 -0.8,-2.9 0.3,-3.9 6.5,-4.8 9.2,-12.4 11.4,-20.3 0.7,-2.4 3.2,-1.8 2.4,0.8 l -21.3,63.9 c -2.6,7.9 -4,15 5.3,17.1 l 28.8,-0.1 c 5,0.6 8.3,-3.9 10.4,-11.8 l 23.6,-71.1 11.1,0 c 3.5,-0.1 5.8,-2.4 7.1,-6.3 l 6.7,-19.8 c 2.1,-6.9 -1.2,-13.1 -8.4,-12.9 L 691.3,319 c -9.4,0.9 -8.5,9.6 -12.1,6.2 -6.1,-9 -32,-5.5 -54.7,-6.1 -11.8,1.2 -8.5,15.7 -11.9,11.4 -7.2,-16.8 -48.1,-16.8 -59.8,-3.2 -4.1,1.2 -0.1,-7.3 -12,-8.1 l -21.5,0 c -7.1,-0.1 -5.6,3.6 -7.8,3.7 -2.3,0 -0.8,-3.6 -9.2,-3.8 l -19.3,0 c -12.4,-0.3 -9.4,12.6 -13.7,8.2 -4.5,-7 -15.2,-11 -27.2,-11 -5.4,-0.1 -11.2,0.7 -16.7,2.4 -0.4,0.7 -0.9,1.4 -1.3,2 0.4,-0.6 0.8,-1.3 1.2,-2 0.1,0 0.1,0 0.1,0 31.6,-52 38.6,-98.7 -14.5,-89.8 -45.8,8.4 -75.3,2.4 -124.2,-13.9 0.7,-4.4 0.6,-8.7 0.2,-13.2 10.4,-7.3 9.6,4 35.1,-1.7 l -16.4,-37 -23.7,13.5 c -18.9,-34 -50,-40.5 -93.2,-19.6 l -13.2,-29 z m -4.4,11.1 13.4,21.5 c 1.6,2 3.6,2.5 6.1,0.9 40.3,-23 96.8,-5.7 90.6,54.7 36.5,18.8 73.1,25.7 109.6,23.8 11.4,-0.5 6,0.1 0.1,1.8 C 325.1,260.5 248,349.3 247.1,405 c -9.4,-32.2 -31.9,-59.8 -61.3,-81.7 -3.6,-2.6 -8.3,1.7 -2.9,6.2 68.8,65.8 -115.06,85.1 -93.2,42.9 0.91,-1.7 -0.92,-1.7 -1.71,-0.9 -45.78,43.1 -55.68,-0.7 -10.3,-21.9 2.93,-1.5 1.52,-3.5 -2.24,-3.2 -10.17,1.3 -17.59,15.3 -23.29,7.7 -19.02,-24.1 0.75,-79.6 31.93,-80.9 2.8,-0.3 4.67,-2.1 0.96,-2.4 -61.39,-1.7 -18.91,-47.8 10.36,-22.6 3.18,1.9 5.69,-0.5 2.18,-3.4 -13.35,-5 17.41,-41.1 26.41,-43.3 6.8,-1.7 3,7.9 8.5,10.7 20.9,7.7 27.7,-17.1 37.4,-43 1.4,-5.3 -2.5,-6.7 -3.6,-3.1 -8.9,21.3 -17.1,47.8 -30.9,36.1 -4.1,-16.3 -6.2,-33 -6.1,-49.8 33.9,0.4 12.1,4.6 41.8,-13.3 z m 77.4,30 c -5.6,-0.1 -13.5,6.6 -23,17 -1.8,2.4 1,4.5 3.2,2.5 13.4,-18.8 23.6,-17.1 23.8,3.5 -8.5,-1.6 -14.4,14.1 -7.4,17.6 2.9,1.1 3.3,-2.1 2.3,-2.7 -2.6,-1.7 -2.3,-5.4 1.5,-11.2 1.1,-1.8 4.8,-0.2 0.5,7.5 -1.9,2.2 -0.2,4.1 2,2.3 2.9,-1.9 3.9,-6 3.9,-10.4 3.8,3 7.4,2.2 11.1,-2.2 1.1,-1.5 -0.6,-3.7 -2.3,-2.9 -1.9,1.2 -6.7,8.4 -7.3,2 0.3,-16.3 -2.8,-23 -8.3,-23 z m 53.4,2.1 c 3,8.5 6.7,17 11.9,25.3 -7.3,0.9 -12.9,-1.2 -17.1,-5.8 -1.5,-2.2 -2.2,-1.8 -2.6,0.7 -0.5,3.7 -2.7,4.4 -5.2,4.7 0,-6.4 -1.4,-11.9 -3.8,-16.9 5.3,-1.9 10.8,-6.9 16.8,-8 z m -33.1,27.2 c -2.6,0.1 -5.4,3.1 -4.8,11.3 0.1,0.9 0.3,0.8 1,0.7 12.2,-4.7 8.1,-12.3 3.8,-12 z m -0.5,3.7 c 1.5,0.1 2.8,2.9 -1.2,5.8 -0.2,0.1 -0.3,0.2 -0.4,-0.2 -0.8,-4.2 0.5,-5.7 1.6,-5.6 z m 146.2,40.1 c 7,-0.1 12.7,1.7 16.8,5.5 12.9,12.1 6.4,41.2 -14,74.1 0.5,-0.2 1.1,-0.5 1.6,-0.7 -0.5,0.2 -1.1,0.5 -1.6,0.7 -10.9,5.3 -20.1,14.6 -23.7,28.6 -0.8,2.2 -1.4,4.2 -1.9,6.1 0,0 0,0 0,0 -3.4,3.9 -7,7.9 -10.7,11.8 -46.6,49 -99.6,74.6 -118.4,57 -18.8,-17.5 3.7,-71.5 50.3,-120.6 36.4,-38.3 76.8,-62.2 101.6,-62.5 z m -11,21.5 c -0.7,0 -1.5,0.1 -2.6,0.3 C 353,280.8 278.8,373.7 283,409.9 c 1.6,3.9 0.2,-11.4 11.7,-18 38.7,-36.7 71.9,-75.1 96,-117.8 12.7,-3.6 17.5,-10.2 12.8,-10.4 z m 21.2,20.2 c -0.6,0 -1.3,0.1 -2.2,0.4 -6.9,2.9 -14.6,8.1 -22.6,14.6 0,0 0,0 0,0 -0.3,0.3 -0.6,0.5 -0.8,0.7 -34.4,28.5 -73.2,82.6 -73,104.9 0,0 0,0 0,0 0,0 0,0 0,0 1.2,3 0.6,-6.4 9,-12.1 0.1,-0.2 0.3,-0.3 0.5,-0.4 0.1,-0.1 0.2,-0.1 0.3,-0.2 0,0 0,0 0,0 25.3,-23.2 48.4,-48.7 66,-75.8 0.1,-0.2 0.2,-0.4 0.4,-0.5 0,-0.1 0,-0.1 0,-0.1 4.9,-7.6 9.4,-15.3 13.4,-23.2 1.3,-0.4 2.5,-0.8 3.5,-1.3 0.4,-0.2 0.7,-0.3 1,-0.5 0.3,-0.1 0.7,-0.3 1,-0.5 0,0 0.1,0 0.2,0 3.5,-1.9 5.2,-3.8 5.1,-5 0,0 0,-0.1 0,-0.1 0,0 0,-0.1 0,-0.1 -0.2,-0.6 -0.8,-0.9 -1.8,-0.8 z m 16.8,41.6 c 7,0 12.6,1.2 16.8,3.4 4.2,2.3 6.5,5.2 6.9,8.7 0.4,3.5 -0.8,9.4 -3.7,17.7 l -1.4,4.2 -25.1,0 2.6,-7.8 c 1.3,-3.6 1.7,-5.9 1.4,-6.9 -0.3,-1 -1.2,-1.5 -2.7,-1.5 -1.6,0 -3.1,0.6 -4.4,2 -1.2,1.3 -2.4,3.4 -3.3,6.1 -1.2,3.5 -1.6,6.1 -1.3,7.9 0.3,1.8 2.2,3.9 5.5,6.4 9.6,7.2 15.1,13.1 16.7,17.8 1.5,4.6 0.6,12 -3,22.3 -2.5,7.5 -5.3,13 -8.2,16.6 -3,3.5 -7.3,6.5 -13.1,8.9 -5.8,2.4 -12,3.6 -18.6,3.6 -7.2,0 -13,-1.4 -17.1,-4.2 -4.2,-2.7 -6.4,-6.3 -6.5,-10.5 -0.1,-4.3 1.2,-10.4 3.9,-18.3 l 2.3,-6.8 25.1,0 -4.3,12.7 c -1.4,4 -1.9,6.5 -1.6,7.6 0.4,1.1 1.4,1.7 3.2,1.7 1.8,0 3.4,-0.7 4.8,-2.1 1.3,-1.4 2.5,-3.6 3.5,-6.4 2.1,-6.2 2.6,-10.2 1.6,-12.1 -1.1,-1.9 -4.2,-5.1 -9.4,-9.5 -5.2,-4.5 -8.5,-7.8 -10,-9.8 -1.5,-2.1 -2.4,-4.9 -2.6,-8.5 -0.2,-3.5 0.6,-8.1 2.6,-13.7 0.6,-1.8 1.2,-3.5 1.9,-5.2 0,0 0,0 0,0 2.2,-5.4 4.6,-9.6 7.1,-12.4 1.5,-1.7 3.3,-3.3 5.2,-4.7 0,0 0.1,0 0.1,-0.1 2.3,-1.5 4.7,-2.8 7.6,-3.9 5.2,-2.1 11.1,-3.2 17.5,-3.2 z m 142.8,0 c 5.6,0 10.3,0.9 14.1,2.8 3.8,1.8 6.4,4.6 7.9,8.2 1.4,3.7 1.6,7.7 0.7,12 -1,4.4 -3.3,11.9 -7,22.7 l -6.1,18 c -3.6,10.5 -6.4,18 -8.4,22.4 -2,4.4 -4.9,8.4 -8.8,12 -3.8,3.6 -8.2,6.4 -13.3,8.4 -5.1,1.9 -10.6,2.9 -16.4,2.9 -5.6,0 -10.3,-0.9 -14.1,-2.8 -3.8,-1.8 -6.5,-4.6 -7.9,-8.2 -1.4,-3.7 -1.7,-7.7 -0.7,-12 0.9,-4.4 3.3,-11.9 7,-22.7 l 6.1,-18 c 3.6,-10.5 6.4,-18 8.4,-22.4 2,-4.4 4.9,-8.4 8.7,-12 3.8,-3.6 8.3,-6.4 13.4,-8.4 5.1,-1.9 10.5,-2.9 16.4,-2.9 z m -102.6,2.2 22.6,0 -0.9,47.3 16.1,-47.3 22.6,0 -35.8,105 -23.7,0 2.2,-47.7 -16.3,47.7 -22.6,0 35.8,-105 z m 143.2,0 19.2,0 c 12.8,0 21.2,0.5 25.4,1.5 4.2,1 7,3.5 8.5,7.6 1.4,4.1 0.6,10.6 -2.4,19.6 -2.8,8.1 -5.7,13.6 -8.7,16.4 -2.9,2.9 -7.5,4.5 -13.6,5.1 4.9,1.3 7.9,3.1 9,5.4 1.1,2.2 1.5,4.3 1.3,6.2 -0.2,1.8 -1.7,7 -4.6,15.5 l -9.5,27.7 -25.1,0 11.9,-34.9 c 1.9,-5.6 2.7,-9.1 2.2,-10.4 -0.4,-1.4 -2.5,-2.1 -6.2,-2.1 l -16.1,47.4 -27.1,0 35.8,-105 z m 66.3,0 59.2,0 -7.2,21 -16.1,0 -28.6,84 -27.1,0 28.7,-84 -16.1,0 7.2,-21 z m -112.8,15.6 c -1.5,0 -2.7,0.5 -3.8,1.6 -1.2,1.1 -2.7,4.4 -4.5,9.8 l -16.7,49 c -2.1,6.1 -3.2,9.9 -3.2,11.3 0,1.4 1,2.1 2.8,2.1 1.8,0 3.2,-0.8 4.3,-2.4 1.1,-1.7 2.7,-5.6 4.8,-11.8 l 16.5,-48.2 c 1.6,-4.9 2.4,-8 2.4,-9.4 -0.1,-1.3 -1,-2 -2.6,-2 z m 67.5,2.4 -8,23.3 c 3,0 5.3,-0.4 6.8,-1.2 1.5,-0.9 3.1,-3.6 4.7,-8.3 l 1.9,-5.7 c 1.2,-3.4 1.3,-5.5 0.5,-6.6 -0.8,-1 -2.8,-1.5 -5.9,-1.5 z m -472.1,0.5 c -0.4,0 -0.9,0 -1.5,0.2 -5.6,1.3 -6.8,4.3 -8.3,8.3 -0.9,2.4 2.7,4.2 4.4,1.8 2.3,-3.3 1.8,-4.7 5.4,-6.5 2.3,-1.1 3.1,-3.9 0,-3.8 z m 281.2,23 3.5,0 0,0 c -0.1,0 -6.4,0 -7.1,0.1 0.5,-0.1 2,-0.1 3.6,-0.1 z m -3.7,0.1 c 1.4,1.1 2.5,2.3 3.5,3.5 -1,-1.2 -2.2,-2.4 -3.5,-3.5 0,0 0,0 0,0 z m 4.1,4.3 c 0.2,0.3 0.4,0.6 0.6,0.9 -0.2,-0.3 -0.4,-0.6 -0.6,-0.9 z m -256.6,7 c 2.8,0 5.1,2.2 5.1,5 0,2.7 -2.3,4.9 -5.1,4.9 -2.8,0 -5.1,-2.2 -5.1,-4.9 0,-2.8 2.3,-5 5.1,-5 z m -43.3,23.4 1,0 c 1.9,0 3.8,0.3 5.4,1.1 4.8,2.4 6.5,8.1 5.7,15 -1.1,5.8 -2.9,-5.2 -15.4,-10.9 -5.4,-2.5 -1.6,-5.1 3.3,-5.2 z m -27,5.6 c 33,0.6 64.7,42.2 32.3,66.3 -1.6,0.8 -2,0.6 -1,-0.6 18.4,-20.9 -6.4,-58 -27.7,-56.4 -7.3,0.5 -8.3,8.8 9.1,10.7 9.7,1.1 10.8,9.8 -3.1,9.6 -34.3,-3.2 -32.6,-25.4 -14.5,-29.4 1.7,-0.1 3.3,-0.2 4.9,-0.2 z"></path>
  <path class="only-dark-background" style="display:none" d="m 175.8,121.7 a 6.325,6.325 0 0 0 -3.7,1 l -26.8,16.9 -28.5,-1.7 a 6.325,6.325 0 0 0 -6.6,7.3 l 7.2,45.1 c -12.5,11.9 -24.07,25.3 -33.09,40.3 -18.93,-4.9 -36.22,1.2 -44.43,12.3 -4.46,6.1 -5.84,14.7 -1.68,21.6 2.87,4.9 7.8,8.5 14.49,11.3 -9.95,12 -16.72,27.5 -19.59,42.9 -3.05,16.4 -1.86,33.2 6.71,45 -6.11,6 -10.09,11.7 -11.9,17.4 -2.24,7 -0.27,14.8 5.07,18.9 5.33,4.1 12.48,5 20.29,3.8 6.84,-1 14.38,-3.9 22.2,-8.5 9.44,5.1 20.36,7.8 32.23,9.1 -1.1,0.6 -2.2,1 -3.2,1.6 -7.97,5.2 -11.17,14.9 -8.07,22.9 3,7.9 10.47,14.1 20.77,18.1 9.3,3.5 21.3,4.9 35.2,3.2 5,7.6 3.3,20.6 -12.2,28.1 a 6.325,6.325 0 0 0 2.9,12 c 17.1,-0.5 32,-10.4 39.6,-23.9 7,-12.6 6.6,-29.2 -4.8,-42.1 1.4,-6.3 1.3,-12.3 -0.7,-17.6 -0.9,-2.4 -2.2,-4.6 -3.8,-6.6 2.7,-0.9 5.2,-2.1 7.7,-3.2 9.8,7.8 21.7,8.4 29.4,2.5 4.3,-3.3 7,-9 6.2,-15 -0.6,-4.1 -2.8,-8.1 -6.2,-11.8 0.3,-0.3 0.5,-0.6 0.6,-0.8 9.6,12.5 12.7,24.5 16.8,36.7 4.7,13.8 11.4,28 30.1,37.8 a 6.325,6.325 0 0 0 0.7,0.3 c 20.5,7.5 44.4,-0.2 68.1,-14.8 23.6,-14.6 47.5,-36.7 68.3,-61 a 6.325,6.325 0 0 0 1.5,-4.1 c 0,-2.3 0.3,-5.2 1.2,-8.6 a 6.325,6.325 0 0 0 0.1,-0.6 c -2.5,3.1 -5,6.2 -7.6,9.2 -41,47.9 -94.2,86.7 -129.4,74 -34.3,-17.9 -21.3,-47.3 -49.3,-78.3 -2.8,-2.7 -3.2,4.7 -9.8,10.7 22,17 -2.5,34.2 -19.5,16.4 -6.2,3.3 -13.7,6 -21.5,7.5 10.1,6.4 14.5,15.7 10.1,29.1 24.7,22.9 1.3,57 -28,57.9 20.1,-9.6 22.6,-30.2 12.3,-40.4 -58.27,9.4 -77.92,-42.3 -14.6,-37.4 -3.9,-2 -6.9,-4.5 -8.8,-6.9 -22.7,0.4 -41.99,-2.2 -56.45,-11.3 -33.51,22.1 -60.24,4.5 -26.75,-23.8 -20.33,-18.8 -9.61,-69 15.59,-91.4 -44.9,-9.9 -14,-48.1 22.97,-34.9 9.37,-16.9 22.64,-32 37.04,-45.4 l -7.8,-48.3 30.6,1.8 28.5,-18 13.2,29 c 43.2,-20.9 74.3,-14.4 93.2,19.6 l 23.7,-13.5 16.4,37 c -25.5,5.7 -24.7,-5.6 -35.1,1.7 0.4,4.5 0.5,8.8 -0.2,13.2 48.9,16.3 78.4,22.3 124.2,13.9 53.1,-8.9 46.1,37.8 14.5,89.8 -1.9,2.9 -3.8,5.9 -5.7,8.9 a 6.325,6.325 0 0 0 0.3,-0.1 c 2.4,-1.1 4.8,-2 7.1,-2.7 a 6.325,6.325 0 0 0 3.7,-2.8 c 16.1,-26.6 26.5,-51.6 25.4,-71.4 -0.5,-9.9 -4.6,-19 -12.8,-24.1 -8.3,-5.1 -19.4,-6.2 -33.5,-3.8 a 6.325,6.325 0 0 0 -0.1,0 c -43.3,7.9 -70.8,2.8 -116.4,-12.2 0,-1.7 0.1,-3.3 0,-4.9 0.4,0 1.4,0.2 3.7,0.8 4.6,1.3 12.7,2.9 26.3,-0.1 a 6.325,6.325 0 0 0 4.4,-8.8 l -16.4,-37 a 6.325,6.325 0 0 0 -8.9,-2.9 l -18.4,10.5 c -9.8,-15 -22.8,-24.8 -38.4,-28.1 -15.9,-3.3 -33.9,-0.1 -53.9,8.6 l -10.5,-23.2 a 6.325,6.325 0 0 0 -5.5,-3.7 z m -4.7,17.4 c -29.7,17.9 -7.9,13.7 -41.8,13.3 -0.1,16.8 2,33.5 6.1,49.8 13.8,11.7 22,-14.8 30.9,-36.1 1.1,-3.6 5,-2.2 3.6,3.1 -9.7,25.9 -16.5,50.7 -37.4,43 -5.5,-2.8 -1.7,-12.4 -8.5,-10.7 -9,2.2 -39.74,38.3 -26.37,43.3 3.47,2.9 1,5.3 -2.2,3.4 -29.27,-25.2 -71.75,20.9 -10.36,22.6 3.71,0.3 1.84,2.1 -0.96,2.4 -31.18,1.3 -50.95,56.8 -31.93,80.9 5.7,7.6 13.12,-6.4 23.29,-7.7 3.76,-0.3 5.17,1.7 2.24,3.2 -45.38,21.2 -35.48,65 10.3,21.9 0.79,-0.8 2.62,-0.8 1.71,0.9 -21.86,42.2 161.98,22.9 93.18,-42.9 -5.4,-4.5 -0.7,-8.8 2.9,-6.2 29.4,21.9 51.9,49.5 61.3,81.7 0.9,-55.7 78,-144.5 143.8,-163.2 5.9,-1.7 11.3,-2.3 -0.1,-1.8 -36.5,1.9 -73.1,-5 -109.6,-23.8 6.2,-60.4 -50.3,-77.7 -90.6,-54.7 -2.5,1.6 -4.5,1.1 -6.1,-0.9 l -13.4,-21.5 z m 77.4,30 c 5.5,0 8.6,6.8 8.3,23 0.6,6.4 5.4,-0.8 7.3,-2 1.7,-0.8 3.4,1.4 2.3,2.9 -3.7,4.4 -7.3,5.2 -11.1,2.2 0,4.4 -1,8.5 -3.9,10.4 -2.2,1.8 -3.9,-0.2 -2,-2.3 4.3,-7.7 0.6,-9.3 -0.5,-7.5 -3.8,5.8 -4.1,9.5 -1.5,11.2 1,0.6 0.6,3.8 -2.3,2.7 -7,-3.5 -1.1,-19.2 7.4,-17.6 -0.2,-20.6 -10.3,-22.3 -23.8,-3.5 -0.4,0.4 -0.8,0.6 -1.3,0.7 -0.1,0.1 -0.2,0.1 -0.4,0.1 -1.6,0.1 -2.9,-1.5 -1.5,-3.3 9.4,-10.4 17.4,-17.1 23,-17 z m 53.4,2.1 c -6,1.1 -11.5,6.1 -16.8,8 2.4,5 3.8,10.5 3.8,16.9 2.5,-0.3 4.7,-1 5.2,-4.7 0.4,-2.5 1.1,-2.9 2.6,-0.7 4.2,4.6 9.8,6.7 17.1,5.8 -5.2,-8.3 -8.9,-16.8 -11.9,-25.3 z m -33.1,27.2 c 4.3,-0.3 8.4,7.3 -3.8,12 -0.7,0.1 -0.9,0.2 -1,-0.7 -0.6,-8.2 2.1,-11.2 4.8,-11.3 z m 145.7,43.8 c -24.8,0.3 -65.2,24.2 -101.6,62.5 -46.6,49.1 -69.1,103.1 -50.3,120.6 18.8,17.5 71.8,-8 118.4,-57 3.7,-3.9 7.3,-7.9 10.7,-11.8 0.5,-1.9 1.1,-3.9 1.9,-6.1 3.6,-14 12.8,-23.3 23.7,-28.6 20.4,-32.9 26.9,-62 14,-74.1 -4.1,-3.8 -9.8,-5.6 -16.8,-5.5 z m 2.8,79.6 c -0.7,1.2 -1.5,2.3 -2.2,3.5 0.7,-1.1 1.5,-2.3 2.2,-3.5 z m -25.6,34.7 c 1.2,-1.4 2.4,-2.8 3.5,-4.2 -1.2,1.4 -2.3,2.8 -3.5,4.2 z m 11.3,-92.8 0.5,0 c 4.8,0.2 -0.1,6.8 -12.8,10.4 -24.1,42.7 -57.3,81.1 -96,117.8 -11.5,6.6 -10.1,21.9 -11.7,18 -4.2,-36.2 70,-129.1 117.9,-145.9 0.8,-0.2 1.5,-0.3 2.1,-0.3 z m 21.7,20.2 c 4,-0.1 1.2,5 -9,8.3 -18.2,35.9 -47.2,69.7 -79.8,99.6 -9.3,5.7 -8.5,15.8 -9.8,12.7 -0.3,-27.6 59.5,-104.3 96.4,-120.2 0.9,-0.2 1.6,-0.4 2.2,-0.4 z m 16.8,41.6 c -6.4,0 -12.3,1.1 -17.5,3.2 -5.3,2.1 -9.6,5 -12.9,8.7 -3.3,3.7 -6.3,9.6 -9,17.6 -1.9,5.6 -2.8,10.2 -2.6,13.7 0.2,3.6 1.1,6.4 2.6,8.5 1.5,2 4.8,5.3 10,9.8 5.2,4.4 8.3,7.6 9.4,9.5 1,1.9 0.5,5.9 -1.6,12.1 -1,2.8 -2.2,5 -3.5,6.4 -1.4,1.4 -3,2.1 -4.8,2.1 -1.8,0 -2.8,-0.6 -3.2,-1.7 -0.3,-1.1 0.2,-3.6 1.6,-7.6 l 4.3,-12.7 -25.1,0 -2.3,6.8 c -2.7,7.9 -4,14 -3.9,18.2 0.1,4.3 2.3,7.8 6.5,10.6 4.1,2.8 9.9,4.2 17.1,4.2 6.6,0 12.8,-1.3 18.6,-3.6 5.8,-2.4 10.1,-5.4 13.1,-9 2.9,-3.5 5.7,-9 8.2,-16.5 3.6,-10.3 4.5,-17.7 3,-22.3 -1.6,-4.7 -7.1,-10.6 -16.7,-17.8 -3.3,-2.5 -5.2,-4.6 -5.5,-6.4 -0.3,-1.8 0.1,-4.4 1.3,-7.9 0.9,-2.7 2.1,-4.8 3.3,-6.1 1.3,-1.4 2.8,-2 4.4,-2 1.5,0 2.4,0.5 2.7,1.5 0.3,1 -0.1,3.3 -1.4,6.9 l -2.6,7.8 25.1,0 1.4,-4.2 c 2.9,-8.3 4.1,-14.2 3.7,-17.7 -0.4,-3.5 -2.7,-6.4 -6.9,-8.7 -4.2,-2.2 -9.8,-3.4 -16.8,-3.4 z m 142.8,0 c -5.9,0 -11.3,1 -16.4,2.9 -5.1,2 -9.6,4.8 -13.4,8.4 -3.8,3.6 -6.7,7.6 -8.7,12 -2,4.4 -4.8,11.9 -8.4,22.4 l -6.1,18 c -3.7,10.8 -6.1,18.3 -7,22.7 -1,4.3 -0.7,8.3 0.7,11.9 1.4,3.7 4.1,6.5 7.9,8.3 3.8,1.8 8.5,2.8 14.1,2.8 5.8,0 11.3,-1 16.4,-3 5.1,-1.9 9.5,-4.7 13.3,-8.3 3.9,-3.7 6.8,-7.6 8.8,-12 2,-4.4 4.8,-11.9 8.4,-22.4 l 6.1,-18 c 3.7,-10.8 6,-18.3 7,-22.7 0.9,-4.3 0.7,-8.3 -0.7,-12 -1.5,-3.6 -4.1,-6.4 -7.9,-8.2 -3.8,-1.9 -8.5,-2.8 -14.1,-2.8 z m -102.6,2.2 -35.8,104.9 22.6,0 16.3,-47.6 -2.2,47.6 23.7,0 35.8,-104.9 -22.6,0 -16.1,47.3 0.9,-47.3 -22.6,0 z m 143.2,0 -35.8,104.9 27.1,0 16.1,-47.3 c 3.7,0 5.8,0.7 6.2,2.1 0.5,1.3 -0.3,4.8 -2.2,10.4 l -11.9,34.8 25.1,0 9.5,-27.6 c 2.9,-8.5 4.4,-13.7 4.6,-15.5 0.2,-1.9 -0.2,-4 -1.3,-6.2 -1.1,-2.3 -4.1,-4.1 -9,-5.4 6.1,-0.6 10.7,-2.2 13.6,-5.1 3,-2.8 5.9,-8.3 8.7,-16.4 3,-9 3.8,-15.5 2.4,-19.6 -1.5,-4.1 -4.3,-6.6 -8.5,-7.6 -4.2,-1 -12.6,-1.5 -25.4,-1.5 l -19.2,0 z m 66.3,0 -7.2,21 16.1,0 -28.7,83.9 27,0 28.7,-83.9 16.1,0 7.2,-21 -59.2,0 z m -112.8,15.6 c 1.6,0 2.5,0.7 2.6,2 0,1.4 -0.8,4.5 -2.4,9.4 l -16.5,48.2 c -2.1,6.2 -3.7,10.1 -4.8,11.8 -1.1,1.6 -2.5,2.4 -4.3,2.4 -1.8,0 -2.8,-0.7 -2.8,-2.1 0,-1.4 1.1,-5.2 3.2,-11.3 l 16.7,-49 c 1.8,-5.4 3.3,-8.7 4.5,-9.8 1.1,-1.1 2.3,-1.6 3.8,-1.6 z m 67.5,2.4 c 3.1,0 5.1,0.5 5.9,1.5 0.8,1.1 0.7,3.2 -0.5,6.6 l -1.9,5.7 c -1.6,4.7 -3.1,7.4 -4.7,8.3 -1.5,0.8 -3.8,1.2 -6.8,1.2 l 8,-23.3 z m -472.1,0.5 c 3,-0.1 2.3,2.7 0,3.8 -3.6,1.8 -3.1,3.2 -5.4,6.5 -1.7,2.4 -5.3,0.6 -4.4,-1.8 1.5,-4 2.7,-7 8.3,-8.3 0.6,-0.1 1.1,-0.2 1.5,-0.2 z m 25,34.4 c -2.8,0 -5.1,2.2 -5.1,5 0,2.7 2.3,4.9 5.1,4.9 2.8,0 5.1,-2.2 5.1,-4.9 0,-2.8 -2.3,-5 -5.1,-5 z m -42.3,23.3 c -5.4,-0.1 -10.1,2.7 -4.3,5.3 12.5,5.7 14.3,16.7 15.4,10.9 0.8,-6.9 -0.9,-12.7 -5.7,-15 -1.7,-0.8 -3.6,-1.1 -5.4,-1.2 z m -28,5.7 c -1.6,0 -3.3,0 -4.9,0.2 -18.1,4 -19.8,26.2 14.5,29.4 13.9,0.2 12.8,-8.5 3.1,-9.6 -17.4,-1.9 -16.4,-10.2 -9.1,-10.7 21.3,-1.6 46.1,35.5 27.7,56.4 -1,1.1 -0.6,1.4 1,0.5 32.4,-24.1 0.8,-65.6 -32.3,-66.2 z"></path>
   
</svg>
