<?xml version="1.0"?>

<svg xmlns:dc="http://purl.org/dc/elements/1.1/" xmlns:cc="http://creativecommons.org/ns#" xmlns:rdf="http://www.w3.org/1999/02/22-rdf-syntax-ns#" xmlns:svg="http://www.w3.org/2000/svg" xmlns="http://www.w3.org/2000/svg" viewBox="0 0 946.1 195.7" id="svg2481" height="195.7" width="946.1" version="1.0">
  <metadata id="metadata18">
    <rdf:rdf>
      <cc:work rdf:about="">
        <dc:format>image/svg+xml</dc:format>
        <dc:type rdf:resource="http://purl.org/dc/dcmitype/StillImage"></dc:type>
        <dc:title></dc:title>
      </cc:work>
    </rdf:rdf>
  </metadata>
  <defs id="defs2483"></defs>
  <path d="m 855.1,116.8 25.1,-24.56 c 4.6,-4.17 6,-6.95 -2.4,-6.95 v -4.63 h 26 v 4.63 c -5.1,0 -7.9,1.39 -12.1,5.1 l -18.5,17.61 26.9,41.2 c 3.7,6 7.8,6.5 12.9,6.5 v 4.6 h -19.9 l -28.7,-44.4 -9.7,9.7 v 18.5 c 0,10.2 0.4,11.6 10.2,11.6 v 4.6 h -32.5 v -4.6 c 10.2,0 10.2,-1.4 10.2,-11.6 V 60.74 c 0,-10.19 -0.9,-11.58 -10.2,-11.58 v -3.7 c 8.4,-1.39 14.4,-3.24 20.9,-7.41 l 1.4,0.92 v 77.83 h 0.4 m -40.7,27.8 c 0,9.7 0.4,11.1 8.3,11.1 v 4.6 h -29.6 v -4.6 c 8.3,0 9.2,-0.9 9.2,-11.6 v -39.4 c 0,-6.9 -0.9,-12.46 -4.1,-15.7 -2.3,-2.32 -5.6,-3.71 -10.2,-3.71 -7.4,0 -15.3,6.49 -22.3,16.21 v 42.6 c 0,10.7 0,11.6 8.4,11.6 v 4.6 h -30.6 v -4.6 c 9.3,0 10.2,-0.9 10.2,-11.6 v -42.6 c 0,-10.65 -0.9,-11.58 -10.2,-11.58 v -3.7 c 7.4,-1.39 13.4,-3.24 19.5,-7.41 l 1.4,1.39 0.9,13.43 h 0.4 c 7,-9.26 15.8,-14.82 25.5,-14.82 7.4,0 13,1.85 16.7,5.56 4.2,4.17 6.5,10.19 6.5,19.93 v 40.3 m -101,1.8 c -4.6,4.2 -10.7,8.8 -19,8.8 -5.5,0 -8.8,-1.4 -11.6,-4.1 -2.7,-2.3 -3.7,-6.5 -3.7,-11.1 0,-7.9 4.7,-12.6 11.6,-16.3 6.5,-4.1 14.8,-6.4 22.7,-8.8 z m 12,-43 c 0,-7.92 -1.3,-12.55 -6,-17.64 -4.1,-5.1 -10.6,-6.95 -20.8,-6.95 -9.3,0 -15.3,2.31 -19.9,5.09 -5.6,3.25 -9.3,7.88 -9.3,12.51 0,2.32 1.8,5.09 5.1,5.09 3.7,0 5.1,-1.85 6,-4.63 1.4,-3.7 3.3,-6.48 5.6,-8.33 2.8,-2.78 6.5,-4.17 11.6,-4.17 6,0 10.1,1.85 12.5,5.09 2.3,3.24 3.2,8.34 3.2,12.54 v 7.4 l -10.7,2.8 c -11.1,2.3 -19.9,6 -25.9,9.7 -7.4,5.1 -10.6,11.6 -10.6,19.9 0,6.5 2.7,11.6 6.9,14.8 4.6,3.7 10.7,5.6 16.2,5.6 11.6,0 18.5,-4.2 24.6,-9.7 h 0.4 c 1.4,5.5 5.1,8.8 11.1,8.8 4.7,0 7.9,-1 10.7,-2.4 l -0.9,-4.1 c -1.4,0.9 -2.8,1.4 -4.7,1.4 -3.7,0 -5.1,-3.7 -5.1,-11.6 V 103.4 M 580,48.24 c 0,-5.1 0.9,-6.49 5.1,-6.49 h 16.7 c 12.5,0 20.4,2.78 25,6.95 4.2,3.24 6.9,10.19 6.9,16.21 0,8.34 -2.7,14.36 -7.8,18.99 -6.5,5.1 -16.3,7.41 -28.3,7.41 H 580 Z m -13,93.56 c 0,12.5 -0.9,13.4 -13.9,13.4 v 5.1 h 57 c 18.1,0 28.3,-4.6 35.2,-11.1 7,-6.5 9.7,-15.3 9.7,-24.1 0,-9.7 -5.1,-17.1 -11.1,-21.7 -7.4,-6.06 -17.6,-8.84 -29.2,-9.31 v -0.46 c 11.2,-1.39 18.6,-5.09 23.7,-9.73 6.4,-6.02 8.8,-13.43 8.8,-20.38 0,-8.8 -4.7,-15.75 -11.2,-20.38 -9.2,-6.48 -19.9,-7.87 -36.1,-7.87 h -46.8 v 5.09 c 13,0 13.9,0.93 13.9,13.44 z m 13,-44 h 21.8 c 14.3,0 24.1,2.8 30.1,7.4 6,4.6 9.7,11.6 9.7,19.5 0,9.2 -2.8,15.7 -6.9,19.9 -6.1,6 -13.9,8.8 -26.4,8.8 h -21.8 c -5.6,0 -6.5,-1.4 -6.5,-8.4 V 97.8 M 495.7,82.51 c 11.1,-0.92 18.5,-5.55 20.8,-23.62 h 4.7 v 21.77 h 18.5 v 6.02 h -18.5 v 56.52 c 0,8.3 2.3,12.5 8.3,12.5 4.2,0 7.4,-1.4 11.1,-3.7 l 2.8,3.7 c -4.6,4.2 -10.2,6.5 -17.1,6.5 -9.3,0 -17.2,-4.2 -17.2,-18.1 V 86.68 H 495.7 V 82.51 M 454,86.68 h -13 v -6.02 h 13 V 69.54 c 0,-10.65 2.8,-18.52 8.3,-24.55 4.2,-4.16 10.2,-6.94 18.1,-6.94 7,0 11.1,1.85 14.8,4.17 5.1,3.24 7.4,7.87 7.4,11.11 0,3.24 -1.8,5.56 -5.1,5.56 -4.1,0 -5.5,-4.17 -7.4,-7.87 -1.8,-3.71 -4.1,-7.42 -9.7,-7.42 -3.2,0 -6,0.93 -8.8,3.71 -3.2,4.17 -5.5,10.65 -5.5,23.16 v 10.19 h 22.2 v 6.02 h -22.2 v 57.42 c 0,10.7 0.9,11.6 13.8,11.6 v 4.6 H 441 v -4.6 c 12.1,0 13,-1.4 13,-12 V 86.68 m -84.8,33.82 c 0,-13.9 2.4,-22.7 7,-28.72 4.2,-5.1 10.2,-7.41 17.1,-7.41 7.4,0 13.5,2.31 17.2,7.41 4.6,6.02 7.4,14.82 7.4,28.72 0,13.9 -3.3,23.2 -7.4,28.7 -4.2,4.6 -9.8,7.4 -17.2,7.4 -7.4,0 -12.9,-2.8 -16.6,-7.4 -4.7,-5.5 -7.5,-14.8 -7.5,-28.7 z M 356.7,120 c 0,16.2 4.2,26.9 10.7,33.4 7.4,6 15.7,8.8 25.9,8.8 11.1,0 19.9,-2.8 26.9,-9.3 6.5,-6.5 10.6,-17.1 10.6,-32.9 0,-13.9 -4.1,-24.52 -10.6,-31.46 -7,-6.49 -14.8,-9.73 -26.9,-9.73 -11.1,0 -19,3.24 -25.9,9.73 -7,6.94 -10.7,17.56 -10.7,31.46 M 330.3,63.99 c -3.2,-18.53 -7.4,-24.55 -27.8,-24.55 -8.8,0 -16.2,2.31 -20.8,6.48 -4.2,3.71 -6,8.34 -6,13.43 0,5.1 2.3,11.12 5.5,14.36 4.7,4.17 11.6,8.34 22.3,13.9 13.9,6.95 24.1,11.12 31.5,19.49 3.7,4.6 7.4,12.5 7.4,20.8 0,9.3 -3.3,17.6 -9.7,23.6 -7.5,6.5 -19,11.1 -34.3,11.1 -10.2,0 -22.7,-2.3 -32.9,-6 -1.4,-11.1 -3.3,-18.5 -5.6,-25.9 l 6,-1.9 c 5.6,21.8 15.3,26.9 33.9,26.9 7.8,0 15.7,-1.9 20.8,-6.5 5.6,-4.2 9.3,-10.2 9.3,-18.1 0,-6.9 -2.3,-11.5 -5.6,-15.7 -6,-6.5 -15.3,-11.1 -25.5,-16.21 -10.6,-5.1 -25.4,-13.43 -30.1,-20.38 -3.2,-4.63 -5.5,-10.66 -5.5,-17.14 0,-7.41 3.2,-14.82 10.6,-20.84 6,-4.64 15.8,-7.88 29.7,-7.88 11.1,0 19.9,1.39 29.2,4.63 0.9,7.41 2.3,16.68 4.1,24.55 l -6.5,1.86 M 32.96,119.1 H 207.6 v 43.5 H 32.96 Z m 0,-86.15 H 207.6 V 76.03 H 32.96 Z" id="path12402"></path>
</svg>
