<?xml version="1.0"?>

<svg xmlns="http://www.w3.org/2000/svg" viewBox="0 0 318.2 166.4" width="318.2" height="166.4"> <path d="m 192.1,108.6 c 3.8,0 8.7,-0.6 10.8,-2.4 1.1,-1 2.2,-2.5 2.2,-4.4 0,-1.87 -0.6,-3.28 -1.8,-4.19 -1.2,-0.92 -3,-1.77 -5.6,-2.14 -1.7,-0.24 -5.4,-0.75 -6.4,-0.88 -1.1,-0.14 -2,-0.19 -2.3,-0.9 -0.2,-0.72 0.2,-1.18 0.5,-1.39 0.3,-0.2 0.7,-0.42 2,-0.42 1.3,0 2.2,0.31 2.7,0.75 0.9,0.64 0.8,1.22 0.8,1.22 l 9.7,0 c 0,0 -0.2,-1.8 -1.8,-3.58 -1.4,-1.56 -4.3,-2.58 -6.7,-2.83 -1.5,-0.16 -5.9,-0.36 -8.4,0 -3.1,0.46 -5.2,1.34 -6.7,2.44 -1.6,1.2 -1.9,2.76 -1.9,3.98 0,2.43 1.1,3.69 1.9,4.29 2,1.43 5.4,1.82 7.2,2.05 2.3,0.4 5.8,0.9 6.2,1 0.9,0.2 1.5,0.4 1.5,1.3 0,0.8 -0.8,1.4 -2.5,1.4 -2.1,0 -3,-0.8 -3.3,-1.2 -0.4,-0.4 -0.6,-1.3 -0.6,-1.3 l -10.9,0 c 0,0 0.3,2.6 2.1,4.4 1.2,1.2 4.9,2.8 11.3,2.8 M 156.8,94.65 c 0.6,-1.92 2.9,-3.16 5.1,-3.16 2.3,0 4.5,1.08 5.2,3.16 l -10.3,0 0,0 z m 20.6,6.65 -11.3,0 c -1,1.1 -2.7,1.5 -4.2,1.5 -2.3,0 -4.5,-0.9 -5.2,-3.16 l 0,0 20.9,0 C 177.6,91.13 170.4,87 161.9,87 c -10.2,0 -15.6,5.29 -15.6,10.38 0,5.92 4.1,11.02 15.7,11.02 11.6,0 14.6,-3.8 15.4,-7.1 m 79.9,6.7 -9.1,0 0,-20.17 9,0 0,1.81 c 5.4,-2.41 8.2,-2.88 11.2,-2.88 3,0 7.9,2.14 7.9,5.78 0,1.04 0,15.46 0,15.46 l -9,0 0,-11.3 c 0,-1.59 -1.1,-3.82 -4.6,-3.82 -2.4,0 -5.4,2.61 -5.4,4.77 0,2.12 0,10.35 0,10.35 m 18.1,-37.51 c 0.6,-1.92 2.9,-3.16 5.1,-3.16 2.3,0 4.5,1.09 5.2,3.16 l -10.3,0 0,0 z m 20.7,6.66 -11.3,0 c -1.1,1.1 -2.7,1.54 -4.3,1.54 -2.2,0 -4.5,-0.98 -5.1,-3.21 l 0,0 20.8,0 c 0,-8.51 -7.2,-12.64 -15.7,-12.64 -10.1,0 -15.5,5.29 -15.5,10.38 0,5.87 4,11.05 15.6,11.05 11.6,0 14.6,-3.82 15.5,-7.13 m -47,-11.92 0,-1.78 -9.1,0 0,19.98 9.1,0 c 0,-1.21 0,-10.77 0,-11.33 0,-1.76 1.1,-3.22 3,-3.22 2.8,0 3,3 3,3 l 9,0 c 0,0 0,-2.43 0,-3.47 0,-2.61 -3.6,-5.06 -6.9,-5.06 -2.6,0 -4.7,0.34 -8.1,1.88 m -25.2,2.37 c -3.1,0 -4,0.43 -5,2 l -9,0 c 0,0 0.2,-2.42 2.1,-4.01 1.7,-1.44 5.4,-1.75 7.1,-1.84 2.9,-0.14 6.6,-0.19 9.8,0 3.2,0.2 4.7,0.74 6.8,2.04 1.6,1.02 2.3,2.58 2.3,3.56 0,2.2 0.1,6.26 0.1,8.06 0,2.08 0.3,6.02 0.3,6.02 l -10.1,0 c 0,0 0,-1.4 0,-2.16 0,0 -0.5,0.73 -1.9,1.41 -1.7,0.85 -3.5,1.17 -8.3,1.17 -4.6,0 -7.2,-1.81 -8.3,-2.7 -1.7,-1.36 -1.9,-2.95 -1.9,-4.24 0,-1.39 1.1,-2.89 2,-3.59 1.1,-0.94 3.3,-1.61 5.5,-1.99 1.7,-0.29 3.6,-0.39 5.5,-0.46 2.1,-0.1 6.4,0 7,-0.87 0.3,-0.4 0.3,-0.78 0.1,-1.19 -0.4,-0.62 -1.1,-1.21 -4.1,-1.21 z m 4.2,6.71 c 0,0 -1.7,0 -3.1,0 -1.5,0 -2.9,0 -4.2,0.29 -1.6,0.43 -2,0.88 -2.2,1.38 -0.2,0.9 0,1.5 2.1,1.94 0.7,0.14 2.6,0.28 3.9,0 1.4,-0.25 3.5,-1.65 3.5,-3.08 0,-0.13 0,-0.59 0,-0.59 M 60.27,84.21 c 10.95,0 25.37,-1.92 31.4,-7.19 3.34,-2.91 6.54,-7.13 6.54,-12.63 0,-5.49 -1.78,-9.57 -5.26,-12.24 -3.46,-2.68 -8.81,-5.12 -16.48,-6.21 -4.81,-0.68 -15.65,-2.12 -18.62,-2.52 -2.97,-0.4 -5.74,-0.6 -6.52,-2.7 -0.77,-2 0.54,-3.4 1.43,-4 0.9,-0.6 2.08,-1.2 5.75,-1.2 3.72,0 6.39,0.9 7.98,2.2 2.38,1.8 2.18,3.5 2.18,3.5 l 28.15,0 c 0,0 -0.39,-5.2 -5.15,-10.4 -4.19,-4.5 -12.4,-7.5 -19.33,-8.2 -4.56,-0.5 -17.16,-1.1 -24.48,0 -9.16,1.3 -15.18,3.9 -19.45,7.1 -4.66,3.5 -5.53,8 -5.53,11.5 0,7.1 3.14,10.77 5.55,12.51 5.75,4.16 15.66,5.29 20.67,6.07 6.76,1.07 16.95,2.53 18.18,2.8 2.52,0.56 4.46,1.14 4.46,3.82 0,2.18 -2.38,3.86 -7.32,3.86 -6.15,0 -8.75,-2.29 -9.72,-3.47 -0.98,-1.17 -0.99,-2.11 -0.99,-2.11 l -31.7,0 c 0,0 -0.49,6.21 4.54,11.23 3.57,3.57 15.06,8.28 33.72,8.28 m 122.23,-20.9 -4.8,9.98 -4.6,-9.98 -9.5,0 9.4,20.04 9.5,0 4.7,-10 4.7,10 9.5,0 9.4,-20.04 -9.5,0 -4.7,9.98 -4.7,-9.98 -9.4,0 m 55,40.39 c -1.9,1.3 -4.8,2 -8.7,2 -7.9,0 -12.3,-3.8 -12.3,-9.1 0,-6.19 5,-9.6 12.3,-9.6 3.9,0 6.7,0.88 8.7,2.35 l 0,-1.57 9.1,0 0,15.72 c 0,5.8 -2.6,10.1 -13.5,10.1 -16.6,0 -16.1,-7.1 -16.1,-7.1 l 10.6,0 c 0,0 0.1,1.9 4.3,1.9 5.9,0 5.7,-1.1 5.6,-4.7 l 0,0 z m -5.7,-3.1 c 3.2,0 5.7,-1.78 5.7,-3.95 0,-2.17 -2.5,-3.92 -5.7,-3.92 -3.1,0 -5.6,1.75 -5.6,3.92 0,2.17 2.5,3.95 5.6,3.95 m -25.5,-12.82 0,20.22 9,0 0,-20.22 -9,0 z m 0,0 0,20.22 9,0 0,-20.22 -9,0 M 108,73.26 c 0,-2.98 2.4,-5.4 5.4,-5.4 3,0 5.4,2.42 5.4,5.4 0,2.98 -2.4,5.39 -5.4,5.39 -3,0 -5.4,-2.41 -5.4,-5.39 z m 5.4,10.7 c 8.6,0 15.7,-3.54 15.7,-10.7 0,-7.09 -7.1,-10.71 -15.7,-10.71 -8.7,0 -15.73,3.58 -15.73,10.71 0,7.16 7.03,10.7 15.73,10.7 m -18.17,46.14 0,-29.7 c 0,0 14.37,0 14.87,0 6.3,0 14.1,4.6 14.1,14.7 0,12.7 -9.7,15 -14.1,15 -1.1,0 -14.87,0 -14.87,0 z m 21.47,14.3 c 9.7,0 32.5,-4.4 32.5,-29.1 0,-17.86 -13.8,-29.06 -29.9,-29.06 -1.5,0 -48.25,0 -48.25,0 l 0,58.16 c 0,0 42.25,0 45.65,0 m 33.2,-66.09 c 0,2.53 1.2,5.08 3.5,5.08 l 9.1,0 c 0,0 0,-2.91 0,-4.99 -1.9,0 -3.1,-0.33 -3.1,-3.56 0,-3.66 0,-6.03 0,-6.03 l 3.1,0 0,-5.47 -3.1,0 0,-6.89 -9.5,0 0,6.79 -3.6,0 0,5.56 3.6,0 0,9.5 m -4.8,-21.84 c 0,0 -5.2,0 -6.5,0 -5.3,0 -6.6,2.38 -6.6,5.5 0,0.78 0,1.28 0,1.28 l -3.1,0 0,5.46 3.1,0 0,14.69 9.5,0 0,-14.59 3.6,0 0,-5.56 -3.6,0 c 0,0 -0.5,-1.48 3.6,-1.48 l 0,-5.3"></path></svg>