<?xml version="1.0"?>

<svg xmlns="http://www.w3.org/2000/svg" viewBox="0 0 560.8 105" width="560.8" height="105"> <path d="m 510.4,77.2 c 3.2,1 6.5,1.9 9.9,1.9 5.6,0 18.5,-1.4 18.5,-14.9 0,-9.3 -7,-12.7 -13.2,-15.7 -5,-2.4 -9.7,-4.7 -9.7,-9.7 0,-5 3.9,-8 10.3,-8 3.7,0 5.8,0.6 9.2,1.9 l 0.8,-5.1 C 533,26.5 529.3,26 525.9,26 c -9.8,0 -16.2,5.3 -16.2,13.5 0,8.4 6.3,11.3 12.3,14.2 5.2,2.4 10.6,4.9 10.6,11 0,7 -6.8,9.6 -11.4,9.6 -3.7,0 -7.9,-1.3 -10.3,-2.2 l -0.5,5.1 z m -34.1,-29.4 -0.5,-0.5 c -2.5,-2.8 -4.9,-5.8 -4.9,-9.6 0,-5.4 3.6,-7.8 7.3,-7.8 4.7,0 7.3,2.6 7.3,7.5 0,5.6 -6.6,9.1 -8.6,10.1 l -0.6,0.3 z m 0.4,27.4 c -6.4,0 -11.3,-4.5 -11.3,-10.5 0,-6 4.2,-8.8 7.9,-11.3 l 0.6,-0.5 13.9,16.3 -0.5,0.6 c -1.2,1.3 -4.8,5.4 -10.6,5.4 m 1.8,-49.3 c -8.1,0 -12.9,4.4 -12.9,11.6 0,4.8 2.4,8 5.2,11.5 l 0.8,1 -1.1,0.5 c -7.7,3.1 -11.3,7.8 -11.3,14.7 0,8.5 6.3,13.9 16.2,13.9 6.6,0 11,-1.7 14.5,-5.8 l 0.7,-0.8 4.8,5.7 7,0 -8.4,-9.5 0.4,-0.6 c 3,-4.5 5.1,-9.1 5.9,-16.8 l -5.3,0 c -0.4,5.9 -1.4,9.3 -3.4,12.5 l -0.6,1 -12.5,-14.2 1.1,-0.5 c 4.2,-1.9 11.2,-6 11.2,-13 0,-8.2 -6.4,-11.2 -12.3,-11.2 m -38,0.1 c -16,0 -27.2,10.8 -27.2,26.4 0,16.2 10.6,26.8 27.1,26.8 4.6,0 8.3,-0.6 11.2,-1.6 l -0.4,-5.3 c -3,1.3 -7.5,2 -10.7,2 -12.2,0 -21,-9.1 -21,-21.7 0,-12.8 8.8,-21.7 21.4,-21.7 3.6,0 7,0.8 10.1,2.4 l 0.5,-5.4 C 448.3,26.6 444.7,26 440.5,26 M 104.6,83 22,83 l 0,-20.3 82.6,0 0,20.3 z m 0,-40.6 -82.6,0 0,-20.4 82.6,0 0,20.4 z m 268,17.9 10.4,-10.1 c 1.9,-1.8 2.4,-2.9 -1,-2.9 l 0,-1.8 10.7,0 0,1.8 c -2.1,0.1 -3.3,0.6 -4.9,2.2 l -7.7,7.2 11.1,16.9 c 1.6,2.5 3.2,2.8 5.4,2.7 l 0,1.8 -8.3,0 -11.8,-18.2 -4,4 0,7.6 c 0,4.2 0.1,4.8 4.1,4.8 l 0,1.8 -13.5,0 0,-1.8 c 4.2,0 4.3,-0.6 4.3,-4.8 l 0,-34.4 c 0,-4.2 -0.4,-4.7 -4.3,-4.7 l 0,-1.6 c 3.5,-0.5 6,-1.3 8.7,-2.9 l 0.7,0.4 0,32 0.1,0 z m -16.9,11.5 c 0,4.1 0.3,4.6 3.6,4.6 l 0,1.9 -12.3,0 0,-1.9 c 3.5,0 3.7,-0.4 3.7,-4.7 l 0,-16.2 c 0,-2.9 -0.4,-5.2 -1.7,-6.6 -1,-1 -2.3,-1.5 -4.2,-1.5 -3.1,0 -6.4,2.8 -9.2,6.8 l 0,17.5 c 0,4.3 0,4.7 3.4,4.7 l 0,1.9 -12.7,0 0,-1.9 c 3.9,0 4.2,-0.4 4.2,-4.7 l 0,-17.7 c 0,-4.2 -0.3,-4.7 -4.2,-4.6 l 0,-1.6 c 3.2,-0.5 5.7,-1.2 8.1,-3 l 0.7,0.4 0.3,5.6 0.2,0 c 2.9,-3.7 6.6,-6 10.6,-6 3.1,0 5.3,0.8 6.9,2.3 1.7,1.6 2.6,4.2 2.6,8.1 l 0,16.6 z m -37,-17 c 0,-3.2 -0.5,-5.1 -2.4,-7.3 -1.8,-2 -4.4,-2.8 -8.7,-2.8 -3.9,0 -6.4,1 -8.3,2.1 -2.3,1.3 -3.8,3.3 -3.8,5 0,1.1 0.7,2.1 2.1,2.1 1.5,0 2.2,-0.7 2.5,-1.7 0.7,-1.6 1.3,-2.8 2.3,-3.6 1.3,-1 2.7,-1.6 4.9,-1.6 2.4,0 4.1,0.7 5.2,2.2 1,1.2 1.2,3.4 1.2,5 l 0,3.1 -4.3,1.1 c -4.6,1 -8.3,2.4 -10.7,4.1 -3.2,2.1 -4.5,4.7 -4.5,8.1 0,2.7 1.1,4.8 2.9,6.2 1.9,1.5 4.3,2.2 6.6,2.2 4.8,0 7.7,-1.7 10.2,-4 l 0.2,0 c 0.7,2.4 2.2,3.7 4.7,3.7 1.9,0 3.2,-0.5 4.5,-1 L 322.8,76 c -0.5,0.3 -1.2,0.5 -1.9,0.5 -1.5,0 -2.2,-1.5 -2.2,-4.7 l 0,-17 z m -5,17.6 c -1.8,1.9 -4.3,3.8 -7.8,3.8 -2.2,0 -3.8,-0.7 -4.8,-1.7 -1.1,-1.1 -1.6,-2.7 -1.6,-4.6 0,-3.3 2,-5.2 4.8,-6.8 2.7,-1.6 6.3,-2.6 9.4,-3.5 l 0,12.8 z m -55.2,-19.8 9,0 c 5.9,0 9.9,1 12.5,3 2.6,1.9 4,4.8 4,8 0,3.7 -1.1,6.4 -2.9,8.2 -2.4,2.6 -5.8,3.7 -10.9,3.7 l -9,0 c -2.3,0 -2.7,-0.6 -2.7,-3.6 l 0,-19.3 z m -5.4,18 c 0,5.1 -0.4,5.5 -5.8,5.5 l 0,2.1 23.6,0 c 7.6,0 11.8,-1.7 14.7,-4.5 2.9,-2.7 4,-6.4 4,-10 0,-4 -2,-6.9 -4.6,-8.9 -3.1,-2.4 -7.3,-3.6 -12,-3.8 l 0,-0.1 c 4.5,-0.7 7.6,-2.1 9.7,-4.1 2.7,-2.4 3.7,-5.6 3.7,-8.4 0,-3.6 -1.9,-6.5 -4.7,-8.4 -3.9,-2.7 -8.3,-3.2 -14.9,-3.2 l -19.5,0 0,2.1 c 5.4,0 5.8,0.3 5.8,5.6 l 0,36.1 z m 5.4,-38.5 c 0,-2 0.3,-2.6 2.2,-2.6 l 6.9,0 c 5.1,0 8.3,1.2 10.3,2.9 1.6,1.3 2.9,4.1 2.9,6.6 0,3.4 -1.3,6 -3.4,7.7 -2.6,2.2 -6.6,3.1 -11.6,3.1 l -7.3,0 0,-17.7 z m -35,14.2 c 4.6,-0.4 7.7,-2.2 8.6,-9.8 l 1.8,0 0,9.1 7.7,0 0,2.4 -7.7,0 0,23.4 c 0,3.4 1.1,5.2 3.6,5.2 1.7,0 3,-0.6 4.5,-1.7 l 1.2,1.6 c -1.9,1.7 -4.2,2.6 -7.2,2.6 -3.7,0 -7.1,-1.7 -7.1,-7.4 l 0,-23.7 -5.4,0 0,-1.7 z m -17.3,1.5 -5.4,0 0,-2.3 5.4,0 0,-4.6 c 0,-4.4 1.1,-7.8 3.5,-10.2 1.7,-1.7 4.2,-2.9 7.4,-2.9 3,0 4.7,0.8 6.1,1.8 2.2,1.4 3.2,3.2 3.2,4.5 0,1.4 -0.8,2.2 -2.1,2.2 -1.7,0 -2.4,-1.5 -3.2,-3.1 -0.8,-1.6 -1.7,-3.1 -3.9,-3.1 -1.5,0 -2.7,0.5 -3.7,1.6 -1.4,1.7 -2.3,4.3 -2.3,9.5 l 0,4.3 9.2,0 0,2.3 -9.2,0 0,23.7 c 0,4.4 0.3,4.8 5.7,4.8 l 0,1.8 -16.2,0 0,-1.8 c 5.1,0 5.5,-0.5 5.5,-4.9 l 0,-23.6 z m -40.5,13.9 c 0,6.6 1.7,11 4.6,13.6 2.9,2.6 6.4,3.7 10.7,3.7 4.6,0 8.1,-1.2 11,-3.8 2.8,-2.7 4.5,-7 4.5,-13.5 0,-5.7 -1.6,-10.2 -4.5,-13 -2.8,-2.7 -6.1,-4 -11,-4 -4.6,0 -8,1.3 -10.8,3.9 -2.9,2.9 -4.5,7.4 -4.5,13.1 m 5.2,0.1 c 0,-5.6 1,-9.2 3,-11.8 1.7,-2 4.1,-3 7,-3 3.1,0 5.5,1 7.2,3 2,2.6 3,6.2 3,11.8 0,5.8 -1.2,9.5 -3.1,11.9 -1.6,1.8 -3.9,3 -7,3 -3,0 -5.4,-1.2 -7,-3 -1.8,-2.4 -3.1,-6.1 -3.1,-11.9 m -16,-23.4 c -1.5,-7.5 -3.1,-10 -11.7,-10 -3.6,0 -6.6,1 -8.6,2.7 -1.8,1.5 -2.6,3.3 -2.6,5.6 0,2 1.1,4.5 2.5,5.8 1.9,1.8 4.7,3.4 9.2,5.7 5.7,2.9 10,4.6 13.1,8.1 1.5,1.8 3,5 3,8.6 0,3.8 -1.3,7.2 -4,9.6 -3.1,2.8 -7.9,4.6 -14.3,4.6 -4.2,0 -9.4,-0.9 -13.6,-2.5 -0.6,-4.5 -1.4,-7.5 -2.4,-10.7 l 2.6,-0.7 c 2.3,9 6.3,11.2 14,11.2 3.4,0 6.5,-1 8.7,-2.7 2.3,-1.8 3.7,-4.3 3.7,-7.6 0,-2.9 -0.8,-4.6 -2.3,-6.5 -2.3,-2.7 -6.2,-4.4 -10.4,-6.5 -4.5,-2.3 -10.6,-5.6 -12.7,-8.5 -1.3,-1.9 -2.1,-4.3 -2.1,-7 0,-3.1 1.3,-6.2 4.3,-8.6 2.6,-2 6.6,-3.4 12.3,-3.4 4.6,0 8.4,0.6 12.1,2.1 0.4,2.9 1.1,6.9 1.7,10.1 l -2.5,0.6 z"></path></svg>