<svg 
   xmlns="http://www.w3.org/2000/svg"
   width="500"
   height="220"
   viewBox="0 0 500 220">
   
  <path
     d="m 165,9.5 c -7,0 -13.1,2.7 -18.2,8 -5.2,5.3 -7.8,11.5 -7.8,18.8 l 0,91.6 c 0,1.1 0.5,1.9 1.3,2.6 0.9,0.7 2,1 3.3,1 1.3,0 2.5,-0.3 3.5,-1 0.9,-0.7 1.4,-1.5 1.4,-2.6 l 0,-57.5 20.9,0 c 1,0 1.7,-0.4 2.3,-1.2 0.7,-0.8 1,-1.7 1,-2.9 0,-1 -0.3,-1.9 -1,-2.6 -0.6,-0.8 -1.3,-1.2 -2.3,-1.2 l -20.9,0 0,-26.9 c 0.1,-4.8 1.8,-8.8 5.1,-12.2 3.4,-3.5 7.6,-5.3 12.6,-5.3 l 2.5,0 c 1.1,0 2.1,-0.4 2.9,-1.2 0.8,-0.8 1.1,-1.9 1.1,-3 0,-1.2 -0.3,-2.2 -1.1,-3.1 -0.8,-0.9 -1.8,-1.3 -2.9,-1.3 l -3.7,0 z m 22.9,30.8 c -1.2,0 -2.3,0.4 -3.2,1.1 -1,0.6 -1.5,1.5 -1.5,2.4 l 0,66.3 c 0,14.3 7.7,21.4 23.1,21.4 l 4,0 c 1.3,0 2.3,-0.4 3.1,-1.3 0.9,-0.9 1.3,-1.9 1.3,-3 0,-1.2 -0.4,-2.2 -1.3,-3 -0.8,-0.8 -1.8,-1.3 -3.1,-1.3 l -4,0 c -5.1,0 -8.7,-0.9 -10.7,-2.8 -1.9,-1.9 -2.9,-5.3 -2.9,-10 l 0,-39.7 28.3,0 22.2,59.4 c 0.5,1.9 1.9,2.9 3.9,2.9 2.2,0 3.7,-1 4.2,-2.9 l 15.1,-46.7 15.1,47.4 c 0.8,1.5 2.1,2.2 4,2.2 2,0 3.3,-0.8 3.8,-2.3 L 312,68.6 c 0.4,-0.6 0.6,-1.3 0.6,-2.2 0,-1.2 -0.6,-2.2 -1.9,-3 -1.1,-0.8 -2.4,-1.2 -3.8,-1.2 -1.8,0 -2.9,0.7 -3.2,2.2 l -19.1,52.5 -14.4,-48 c -0.5,-1.6 -1.8,-2.5 -3.8,-2.5 -2.1,0 -3.3,0.9 -3.8,2.5 l -15.1,47.5 -18.6,-52 c -0.5,-1.5 -1.6,-2.2 -3.4,-2.2 -0.7,0 -1.4,0.1 -2,0.3 -0.2,0 -0.3,0 -0.5,0 l -30.3,0 0,-18.6 c 0,-1 -0.5,-1.8 -1.5,-2.5 -0.9,-0.7 -2.1,-1 -3.3,-1 z M 34.78,61.6 c -7.69,0 -13.47,2 -17.37,6 -3.79,3.9 -5.69,8.5 -5.69,13.9 0,4.4 1.22,8 3.65,10.8 2.53,2.6 5.55,4.5 9.05,5.7 3.6,1.1 7.15,2.2 10.65,3.2 3.51,0.9 6.47,2.5 8.9,4.6 2.53,2.1 3.8,4.9 3.8,8.4 0,3 -1.22,5.5 -3.65,7.4 -2.43,2 -6.23,2.9 -11.38,2.9 -3.8,0 -7.06,-0.6 -9.78,-1.7 -2.72,-1.2 -4.82,-2.3 -6.28,-3.4 -1.45,-1.2 -2.52,-1.7 -3.2,-1.7 -0.88,0 -1.66,0.5 -2.34,1.4 -0.68,1 -1.02,2 -1.02,2.9 0,2.5 2.19,4.9 6.56,7.2 4.48,2.2 9.93,3.4 16.35,3.4 7.39,0 13.13,-1.7 17.22,-5 4.18,-3.4 6.27,-8 6.27,-13.9 0,-4.8 -1.26,-8.8 -3.79,-11.8 -2.43,-3.1 -5.45,-5.3 -9.05,-6.4 -3.5,-1.3 -7.05,-2.4 -10.65,-3.2 -3.5,-1 -6.52,-2.4 -9.05,-4.1 -2.43,-1.8 -3.65,-4.2 -3.65,-7.2 0,-2.9 1.22,-5.5 3.65,-7.8 2.43,-2.4 6.08,-3.6 10.95,-3.6 3.4,0 6.76,0.7 10.07,2.1 3.3,1.4 5.1,2 5.4,2 1.07,0 1.99,-0.5 2.77,-1.7 0.78,-1.2 1.16,-2.3 1.16,-3.2 0,-1.8 -2.09,-3.4 -6.27,-4.8 -4.09,-1.6 -8.51,-2.4 -13.28,-2.4 z m 60.67,0 c -7.49,0 -13.96,2.7 -19.4,8.2 -5.45,5.3 -8.18,11.7 -8.18,19.1 l 0,15.9 c 0,7.3 2.77,13.8 8.32,19.4 5.55,5.6 11.97,8.4 19.26,8.4 7.35,0 13.85,-2.8 19.35,-8.4 5.7,-5.6 8.5,-12.1 8.5,-19.4 l 0,-15.9 c 0,-7.5 -2.8,-13.9 -8.3,-19.3 -5.6,-5.3 -12.1,-8 -19.55,-8 z m 248.55,0 c -4.8,0 -9.2,0.8 -13.4,2.4 -4.2,1.5 -6.3,3.2 -6.3,5.1 0,1.2 0.3,2.4 1,3.5 0.7,1 1.6,1.6 2.8,1.6 0.2,0 1.8,-0.7 5,-2.1 3.2,-1.4 6.7,-2.2 10.6,-2.2 5.8,0 10.2,2 13,6 2.8,3.9 4.2,8.5 4.2,13.9 l 0,3.5 -7.4,0 c -11.1,0 -19.6,1.4 -25.4,4.4 -5.7,2.9 -8.6,8.1 -8.6,15.6 0,6.3 1.8,11.1 5.5,14.4 3.7,3.2 8.5,4.9 14.3,4.9 8.2,0 15.5,-3.8 22.1,-11.3 l 0,6.4 c 0,1.1 0.4,2 1.1,2.8 0.9,0.7 2,1 3.2,1 1.4,0 2.5,-0.3 3.4,-1 0.9,-0.8 1.3,-1.7 1.3,-2.8 l 0,-37.9 c 0,-8.2 -2.1,-14.9 -6.4,-20.2 -4.2,-5.3 -10.9,-8 -20,-8 z m 72.9,0 c -4.5,0 -8.4,1.1 -11.8,3.4 -3.4,2.2 -6,4.9 -7.8,8.2 l 0,-7.2 c 0,-1 -0.4,-1.8 -1.3,-2.5 -0.9,-0.7 -1.9,-1 -3.2,-1 -1.4,0 -2.5,0.3 -3.3,1 -0.9,0.7 -1.4,1.5 -1.4,2.5 l 0,61.7 c 0,1 0.5,1.9 1.4,2.7 0.9,0.7 2,1.1 3.3,1.1 1.4,0 2.5,-0.4 3.4,-1.1 0.9,-0.8 1.4,-1.7 1.4,-2.7 l 0,-36 c 0,-6.3 2,-11.4 5.9,-15.3 3.9,-4 8.3,-6 13.4,-6 l 5.1,0 c 1,0 1.8,-0.5 2.6,-1.3 0.8,-0.9 1.2,-1.9 1.2,-3.1 0,-1.2 -0.4,-2.2 -1.2,-3.1 -0.8,-0.8 -1.6,-1.3 -2.6,-1.3 l -5.1,0 z m 42.1,0 c -7.7,0 -14.3,2.7 -19.7,8 -5.5,5.3 -8.2,11.6 -8.2,18.9 l 0,16.3 c 0,8.3 2.9,15 8.8,20.2 5.8,5 13.4,7.6 22.6,7.6 6.2,0 11.4,-1.1 15.6,-3.3 4.2,-2.2 6.3,-4.3 6.3,-6.4 0,-1 -0.5,-1.9 -1.3,-2.9 -0.8,-1.1 -1.7,-1.6 -2.8,-1.6 -0.8,0 -1.9,0.5 -3.2,1.5 -1.3,0.9 -3.2,1.9 -5.7,2.9 -2.4,0.9 -5.3,1.4 -8.6,1.4 -6.5,0 -11.9,-1.7 -16.1,-5.1 -4.1,-3.5 -6.1,-8.1 -6.1,-13.8 l 0,-5.4 33,0 c 2,0 3.6,-0.1 4.8,-0.3 1.2,-0.2 2.4,-0.7 3.8,-1.3 1.5,-0.7 2.5,-1.9 3.1,-3.6 0.6,-1.6 1,-3.8 1,-6.5 0,-7.6 -2.7,-13.9 -8.2,-19 -5.3,-5 -11.7,-7.6 -19.1,-7.6 z m -0.2,7.9 c 5.3,0 9.6,1.9 13,5.6 3.5,3.6 5.3,7.9 5.3,12.8 0,2 -0.5,3.4 -1.5,4.1 -0.9,0.6 -2.9,0.9 -5.8,0.9 l -29.2,0 0,-5.6 c 0,-4.9 1.8,-9 5.3,-12.5 3.6,-3.5 7.9,-5.3 12.9,-5.3 z M 95.45,70.4 c 4.95,0 9.25,1.9 12.85,5.7 3.7,3.8 5.5,8 5.5,12.8 l 0,15.9 c 0,5 -1.8,9.4 -5.4,13.3 -3.6,3.8 -7.9,5.7 -12.95,5.7 -4.96,0 -9.24,-1.9 -12.84,-5.7 -3.5,-3.9 -5.25,-8.3 -5.25,-13.3 l 0,-15.9 c 0,-4.8 1.75,-9 5.25,-12.8 3.6,-3.8 7.88,-5.7 12.84,-5.7 z m 259.35,29.5 6.1,0 0,9.3 c 0,3.4 -2.1,6.8 -6.3,10.2 -4,3.4 -8.4,5.1 -12.9,5.1 -3.8,0 -6.9,-0.9 -9.2,-2.9 -2.4,-2 -3.5,-5.1 -3.5,-9.2 0,-2.7 0.6,-4.9 2,-6.7 1.4,-1.8 3.4,-3 6,-3.8 2.6,-0.8 5.2,-1.3 7.9,-1.6 2.7,-0.3 6,-0.4 9.9,-0.4 z m 119.3,55.8 c -2.2,0 -4.3,0.3 -6.2,0.8 -2,0.5 -3.9,1.3 -5.6,2.4 -1.7,1.1 -3.1,2.6 -4.2,4.6 -1,1.9 -1.5,4.1 -1.5,7.1 0,2 0.4,4 1.2,6 0.9,2 2,3 3.4,4 1.3,1 2.9,2 4.5,3 1.7,1 3.3,2 5,2 1.6,1 3.1,2 4.5,3 1.3,0 2.5,1 3.3,2 0.8,2 1.3,3 1.3,4 0,2 -0.8,4 -2.3,5 -1.6,1 -3.5,2 -5.8,2 -1.7,0 -3.2,-1 -4.6,-1 -1.4,-1 -2.5,-2 -3.3,-2 -0.7,-1 -1.5,-2 -2.3,-2 -0.8,-1 -1.5,-1 -2.1,-1 -1,0 -2,1 -2.9,2 -0.8,1 -1.2,2 -1.2,3 0,2 1.6,4 4.9,6 3.3,2 7.2,3 11.8,3 5.1,0 9.3,-1 12.4,-4 3.2,-3 4.8,-7 4.8,-12 0,-3 -0.6,-5 -1.8,-7 -1.1,-3 -2.6,-4 -4.3,-5 -1.7,-2 -3.5,-3 -5.6,-4 -1.9,-1 -3.8,-1 -5.5,-2 -1.7,-1 -3.1,-2 -4.3,-3 -1.1,-1 -1.7,-2 -1.7,-3 0,-2 0.7,-3.4 2.1,-4.3 1.4,-1 3.4,-1.6 6,-1.6 2.4,0 4.5,0.5 6.5,1.4 1.9,0.9 3.1,1.4 3.5,1.4 1.2,0 2.1,-0.6 2.7,-1.7 0.7,-1.1 1.1,-2.2 1.1,-3.3 0,-1.1 -0.6,-2.1 -1.6,-2.9 -0.9,-0.8 -2.2,-1.4 -3.8,-1.8 -1.5,-0.4 -3,-0.6 -4.4,-0.8 -1.4,-0.2 -2.7,-0.3 -4,-0.3 z m -447.31,0.4 c -4.96,0 -8.97,1.3 -12.05,4 -3.08,2.7 -4.62,6.8 -4.62,12.5 l 0,20 0,0 c 0,6 1.52,10 4.55,13 3.08,2 7.09,4 12.05,4 5.1,0 9.24,-2 12.41,-4 3.23,-3 4.84,-6 4.84,-11 0,-1 -0.39,-3 -1.16,-3 -0.72,-1 -1.92,-1 -3.61,-1 -2.93,0 -4.47,1 -4.62,3 0,1 -0.16,2 -0.36,2 -0.14,1 -0.45,2 -0.93,3 -0.44,1 -1.18,1 -2.24,2 -1.01,0 -2.29,1 -3.83,1 -5.14,0 -7.72,-3 -7.72,-9 l 0,-20 c 0,-5.5 2.53,-8.3 7.58,-8.3 1.3,0 2.43,0.2 3.39,0.6 0.96,0.3 1.68,0.8 2.17,1.3 0.48,0.5 0.86,1.1 1.15,2.4 0.34,0 0.53,1 0.58,1 0.1,1 0.16,1 0.21,2 0,2 1.61,3 4.69,3 1.69,0 2.89,0 3.61,-1 0.72,-1 1.08,-2 1.08,-4 0,-3.9 -1.61,-7.2 -4.83,-9.7 -3.18,-2.6 -7.29,-3.8 -12.34,-3.8 z m 47.68,0 c -5.15,0 -9.26,1.3 -12.34,4 -3.03,2.6 -4.55,6.8 -4.55,12.5 l 0,20 c 0,6 1.52,10 4.55,13 3.08,2 7.19,4 12.34,4 5.15,0 9.26,-2 12.34,-4 3.08,-3 4.62,-7 4.62,-13 l 0,-20 c 0,-5.7 -1.54,-9.9 -4.62,-12.5 -3.08,-2.7 -7.19,-4 -12.34,-4 z m 37.43,0 c -1.3,0 -2.4,0.2 -3.3,0.7 -0.9,0.5 -1.4,1.2 -1.4,2.2 l 0,46.6 c 0,1 0.4,2 1.3,3 0.8,0 1.7,0 2.8,0 l 22.9,0 c 0.9,0 1.6,0 2,-1 0.6,-1 0.8,-2 0.8,-3 0,-1 -0.2,-2 -0.8,-3 -0.4,-1 -1.1,-1 -2,-1 l -17.6,0 0,-41.6 c 0,-1 -0.5,-1.7 -1.4,-2.2 -0.9,-0.5 -2,-0.7 -3.3,-0.7 z m 42.8,0 c -1.3,0 -2.4,0.2 -3.4,0.7 -0.9,0.5 -1.3,1.2 -1.3,2.2 l 0,46.6 c 0,1 0.4,2 1.2,3 0.8,0 1.8,0 2.9,0 l 22.9,0 c 0.8,0 1.5,0 2,-1 0.5,-1 0.8,-2 0.8,-3 0,-1 -0.3,-2 -0.8,-3 -0.5,-1 -1.2,-1 -2,-1 l -17.7,0 0,-41.6 c 0,-1 -0.4,-1.7 -1.3,-2.2 -0.9,-0.5 -2,-0.7 -3.3,-0.7 z m 42.1,0 c -1.1,0 -2,0.3 -2.9,0.8 -0.8,0.5 -1.2,1.2 -1.2,2.2 l 0,46.5 c 0,1 0.4,2 1.2,3 0.9,0 1.8,0 2.9,0 l 25.7,0 c 1,0 1.7,0 2.2,-1 0.5,-1 0.8,-2 0.8,-3 0,-1 -0.3,-2 -0.8,-3 -0.6,-1 -1.3,-1 -2.2,-1 l -20.4,0 0,-15 11,0 c 0.9,0 1.6,0 2.1,-1 0.6,0 0.8,-1 0.8,-2 0,-1 -0.2,-2 -0.8,-3 -0.5,-1 -1.2,-1 -2.1,-1 l -11,0 0,-14.3 20.4,0 c 0.9,0 1.6,-0.4 2.2,-1.2 0.5,-0.8 0.8,-1.8 0.8,-3 0,-1 -0.3,-2 -0.8,-2.8 -0.5,-0.8 -1.2,-1.2 -2.2,-1.2 l -25.7,0 z m 57.5,0 c -5,0 -9,1.3 -12.1,4 -3,2.7 -4.6,6.8 -4.6,12.5 l 0,20 0,0 c 0,6 1.5,10 4.6,13 3.1,2 7.1,4 12,4 5.1,0 9.3,-2 12.4,-4 3.3,-3 4.9,-6 4.9,-11 0,-1 -0.4,-3 -1.2,-3 -0.7,-1 -1.9,-1 -3.6,-1 -2.9,0 -4.5,1 -4.6,3 -0.1,1 -0.2,2 -0.4,2 -0.1,1 -0.4,2 -0.9,3 -0.4,1 -1.2,1 -2.2,2 -1.1,0 -2.3,1 -3.9,1 -5.1,0 -7.7,-3 -7.7,-9 l 0,-20 c 0,-5.5 2.5,-8.3 7.6,-8.3 1.3,0 2.4,0.2 3.4,0.6 0.9,0.3 1.7,0.8 2.1,1.3 0.5,0.5 0.9,1.1 1.2,2.4 0.3,0 0.5,1 0.6,1 0.1,1 0.1,1 0.2,2 0,2 1.6,3 4.7,3 1.7,0 2.9,0 3.6,-1 0.7,-1 1.1,-2 1.1,-4 0,-3.9 -1.6,-7.2 -4.9,-9.7 -3.1,-2.6 -7.3,-3.8 -12.3,-3.8 z m 30.9,0 c -1,0 -1.7,0.4 -2.3,1.3 -0.5,0.8 -0.7,1.8 -0.7,2.9 0,1.2 0.3,2.2 0.8,3 0.5,0.8 1.2,1.2 2.2,1.2 l 10.6,0 0,41.1 c 0,1 0.4,2 1.3,3 1,0 2.1,0 3.4,0 1.2,0 2.3,0 3.2,0 1,-1 1.5,-2 1.5,-3 l 0,-41.1 10.5,0 c 0.9,0 1.6,-0.4 2.2,-1.2 0.5,-0.9 0.7,-1.9 0.7,-3 0,-1.1 -0.2,-2.1 -0.7,-2.9 -0.5,-0.9 -1.3,-1.3 -2.2,-1.3 l -30.5,0 z m 51,0 c -1.3,0 -2.4,0.2 -3.3,0.7 -0.9,0.5 -1.4,1.2 -1.4,2.2 l 0,46.6 c 0,1 0.5,2 1.4,3 0.9,0 2,0 3.3,0 1.3,0 2.3,0 3.2,0 1,-1 1.5,-2 1.5,-3 l 0,-46.6 c 0,-1 -0.5,-1.7 -1.4,-2.2 -0.9,-0.5 -2,-0.7 -3.3,-0.7 z m 37.4,0 c -5.1,0 -9.2,1.3 -12.3,4 -3,2.6 -4.5,6.8 -4.5,12.5 l 0,20 c 0,6 1.5,10 4.5,13 3.1,2 7.2,4 12.3,4 5.2,0 9.3,-2 12.4,-4 3.1,-3 4.6,-7 4.6,-13 l 0,-20 c 0,-5.7 -1.5,-9.9 -4.6,-12.5 -3.1,-2.7 -7.2,-4 -12.4,-4 z m 37.5,0 c -1.3,0 -2.4,0.3 -3.3,0.8 -0.9,0.5 -1.4,1.2 -1.4,2.2 l 0,46.5 c 0,1 0.5,2 1.4,3 0.9,0 2,0 3.3,0 1.3,0 2.3,0 3.3,0 0.9,-1 1.4,-2 1.4,-3 l 0,-29 15.5,29 c 1.1,2 2.9,3 5.4,3 1.3,0 2.4,0 3.3,0 0.9,-1 1.4,-2 1.4,-3 l 0,-46.6 c 0,-1 -0.4,-1.7 -1.3,-2.2 -1,-0.5 -2.1,-0.7 -3.4,-0.7 -1.3,0 -2.4,0.2 -3.3,0.7 -0.9,0.5 -1.4,1.2 -1.4,2.2 l 0,28.6 -13.9,-26.5 c -1.1,-2.1 -2.1,-3.4 -3,-4.1 -0.9,-0.6 -2.3,-0.9 -4,-0.9 z m -336.63,8.2 c 5.05,0 7.58,2.8 7.58,8.3 l 0,20 c 0,6 -2.53,9 -7.58,9 -5.01,0 -7.51,-3 -7.51,-9 l 0,-20 c 0,-5.5 2.5,-8.3 7.51,-8.3 z m 299.13,0 c 5.1,0 7.6,2.8 7.6,8.3 l 0,20 c 0,6 -2.5,9 -7.6,9 -5,0 -7.5,-3 -7.5,-9 l 0,-20 c 0,-5.5 2.5,-8.3 7.5,-8.3 z"  />
</svg>
