<?xml version="1.0"?>

<svg xmlns="http://www.w3.org/2000/svg" version="1.2" viewBox="0 0 524 197.6" width="524" height="197.6">

  <path d="m 374.6,52.85 c 0,0.63 -1.1,2.93 -2.3,5.43 0,0.39 0.3,0.46 0.3,0.7 H 384 c 1.1,-2.03 2,-4.1 3.1,-6.13 z m 0,0 m -1.1,7.84 c 0.8,2.07 1.8,4.14 2.6,6.09 h 3.9 c 1.2,-1.95 2,-4.02 3.1,-6.09 z m 0,0 m 3.5,7.84 c 0.3,0.67 0.3,1.33 0.8,1.99 0.3,-0.66 0.8,-1.28 1.1,-1.99 z m 0,0 m 3.8,0 c -0.8,1.33 -1.6,2.62 -2.3,3.86 0.3,0.51 0.7,1.1 0.7,1.56 h 11.3 c 1.2,-1.67 2.4,-3.51 3.2,-5.42 z m 0,0 m -0.8,7.14 c 1.6,2.61 3.1,4.56 4.7,6.01 1.6,-1.53 3.1,-3.55 4.7,-6.01 z m 0,0 m 8.2,8.54 c 1.6,0.86 2.7,1.37 3.9,1.64 h 3.5 c 1.2,-0.39 2.4,-0.9 3.1,-1.64 z m 0,0 m -15.1,-0.1 c 0.8,0.78 1.5,1.49 1.9,2.11 h 13.3 c -0.8,-0.55 -1.9,-1.25 -3.2,-2.11 z m 0,0 M 368,76.29 c 1.6,2.34 2.6,4.41 3.8,6.24 h 11.3 c -1.5,-1.59 -3.1,-3.62 -4.6,-6.24 z m 0,0 m -3.9,-7.83 c 1.2,2.14 2,4.25 3.1,6.24 h 10.6 c -0.8,-1.88 -2,-4.02 -2.8,-6.24 z m 0,0 M 322.4,33 c 0.8,0.63 1.6,1.49 2.3,2.54 h 10.6 c -0.4,-1.02 -1.2,-1.8 -1.6,-2.54 z m 0,0 m 3.9,4.14 c 0.3,0.82 1.2,1.71 1.8,2.77 0.4,0.89 0.9,2.1 1.7,3.47 h 9.3 c -0.8,-2.34 -2,-4.45 -2.8,-6.24 z m 0,0 m 4.3,7.84 c 0.8,1.83 1.5,3.94 2.7,6.2 h 9.3 c -0.8,-2.15 -1.6,-4.25 -2.8,-6.2 z m 0,0 m 3.1,7.8 c 0.8,2.03 1.9,4.13 2.7,6.24 h 9.8 c -0.4,-0.7 -0.8,-1.37 -0.8,-2.07 -0.8,-1.4 -1.2,-2.77 -1.9,-4.17 z m 0,0 m 3.1,7.84 c 0.4,0.39 0.4,0.39 0.4,0.54 0.8,1.91 1.6,3.86 2.3,5.7 h 10.2 c -1.2,-1.99 -2,-4.06 -2.7,-6.24 z m 0,0 M 347.7,33 c 0.8,0.75 1.2,1.56 1.6,2.54 h 9.8 c -0.8,-1.17 -1.6,-2.11 -2,-2.54 z m 0,0 m 2.4,4.14 c 1.1,1.83 1.9,3.94 3.1,6.24 h 10.5 c -0.7,-1.21 -1.1,-2.38 -1.9,-3.36 -0.4,-1.01 -1.2,-1.98 -1.6,-2.88 z m 0,0 m 3.9,7.84 c 0.8,1.95 1.5,4.05 2.6,6.2 h 10.5 c -1.1,-2.19 -1.8,-4.29 -2.6,-6.2 z m 0,0 m 3.1,7.8 c 0.8,2.06 2,4.13 2.7,6.24 h 10.8 c -1.1,-2.11 -1.8,-4.18 -2.6,-6.24 z m 0,0 m 3.5,7.84 c 0.8,2.1 2,4.17 2.7,6.24 h 11 c -1.2,-1.95 -2,-3.94 -2.8,-6.01 0,0 0,0 0,-0.39 z m 0,0 M 335.6,33 c 0.4,0.78 1.2,1.6 1.6,2.54 h 10.2 C 347,34.56 346.6,33.71 345.8,33 Z m 0,0 m -25.7,0 c -1.2,0.39 -1.9,0.94 -3.1,1.72 h 14 c 0.3,-0.39 0.3,-0.39 0.8,-0.47 -0.8,-0.66 -1.5,-1.05 -1.5,-1.25 z m 0,0 m 11.7,3.43 c -1.9,1.6 -3.5,3.94 -5.5,6.79 h 12.1 c -0.3,-1.01 -1.1,-1.95 -1.5,-2.65 -0.8,-1.72 -2,-3.04 -2.8,-4.14 z m 0,0 m 5.1,13.93 h 4.7 c -0.8,-1.6 -1.2,-3.12 -2,-4.53 -0.8,1.49 -1.9,2.97 -2.7,4.53 m -1.2,1.71 c -0.8,1.99 -1.9,4.06 -3.1,6.13 h 12.1 c -0.8,-2.11 -1.6,-4.14 -2.4,-6.13 z m 0,0 m -39,15.68 c -1.2,2.19 -1.9,4.25 -2.7,6.09 h 14.8 c 0.8,-1.95 1.6,-3.98 2.7,-6.09 z m 0,0 m -3.5,7.84 c -1.5,4.06 -2.4,6.67 -2.4,6.67 h 14.5 c 0.8,-1.95 1.9,-4.21 2.7,-6.67 z m 0,0 m 7,-15.68 c -1.1,2.11 -1.9,4.14 -3.1,6.13 h 15.2 c 0.8,-2.03 2,-4.06 2.7,-6.13 z m 0,0 m 16.8,0 c -0.8,2.03 -2,4.1 -2.7,6.13 h 12.4 c 1.2,-2.03 2,-4.06 3.2,-6.13 z m 0,0 M 315,44.94 c -1.2,1.67 -2.4,3.51 -3.1,5.42 h 12.8 c 1.2,-1.87 2,-3.71 3.2,-5.42 z m 0,0 m -11.7,22.81 c -1.2,2.11 -2,4.14 -2.7,6.09 h 12.8 c 0.8,-1.95 1.6,-3.98 2.4,-6.09 z m 0,0 m 7.3,-15.68 c -0.8,1.99 -2,4.06 -3.1,6.13 h 12.8 c 1.2,-2.07 2.4,-4.14 3.2,-6.13 z m 0,0 m 10.9,7.84 c -1.2,2.03 -1.9,4.1 -3.1,6.13 h 12.5 c 0.4,-0.71 1.5,-3.36 2.7,-6.13 z m 0,0 M 304.8,36.47 c -1.9,1.8 -3.9,4.14 -5.8,6.79 h 15.1 c 1.7,-2.65 3.2,-4.99 5.2,-6.79 z m 0,0 m -7,8.51 c -0.8,1.71 -1.9,3.55 -3.2,5.42 h 15.2 c 0.8,-1.87 2,-3.71 3.2,-5.42 z m 0,0 m -3.9,7.13 c -1.2,2.03 -2.3,4.1 -3.1,6.13 h 14.8 c 1.2,-2.07 2.4,-4.14 3.1,-6.13 z m 0,0 m 48,-7.13 c 0.8,1.95 1.6,4.05 2.7,6.2 h 10.2 c -0.8,-2.15 -2,-4.21 -2.8,-6.2 z m 0,0 M 338,37.14 c 1.2,1.87 1.9,3.94 3.1,6.24 h 10.1 c -0.7,-2.34 -1.9,-4.45 -2.7,-6.24 z m 0,0 m 7.4,15.64 c 0.4,1.21 0.8,2.34 1.2,3.55 0.4,0.85 0.8,1.79 1.1,2.69 h 10.6 c -1.2,-2.07 -2,-4.1 -2.8,-6.13 0,0 0,0 0,0 z m 0,0 m 3.1,7.84 c 0.8,2.06 2,4.17 2.7,6.24 h 10.6 c -1.2,-2.03 -2,-4.14 -3.1,-6.24 z m 0,0 m -8.6,7.84 c 1.2,2.3 2,4.36 2.8,6.24 h 10.5 c -1.2,-1.95 -2,-4.02 -3.1,-6.24 z m 0,0 m 3.6,7.83 c 0.3,1.13 0.7,2.15 1.1,2.97 0.8,1.36 1.6,2.42 2.4,3.27 h 10.1 c -1.2,-1.83 -2,-3.9 -3.1,-6.24 z m 0,0 m 5,7.84 c 1.2,1.56 3.5,2.11 3.5,2.11 h 7.8 c -1.1,-1.29 -1.1,-1.68 -1.5,-2.11 z m 0,0 m 11.7,0 c 0.4,0.78 1.2,1.49 1.6,2.11 h 11.3 c -0.8,-0.66 -1.2,-1.37 -2,-2.11 z m 0,0 m -4.7,-7.84 c 1.2,2.31 2.4,4.41 3.6,6.24 H 370 c -1.2,-1.83 -2.4,-3.97 -3.5,-6.24 z m 0,0 M 352,68.46 c 0.8,2.14 2,4.25 2.8,6.24 h 10.5 c -0.8,-1.99 -2,-4.1 -2.7,-6.24 z m 0,0 m 55,-23.4 c -0.8,1.95 -1.5,3.97 -2.7,6.08 h 15.2 c 0.8,-2.18 1.6,-4.25 2.3,-6.08 z m 0,0 m 3.5,-8.43 c -0.8,1.95 -1.5,4.21 -2.7,6.67 h 14.8 c 1.6,-4.02 2.4,-6.67 2.4,-6.67 z m 0,0 m -7,16.22 c -0.8,2.03 -1.5,4.06 -2.7,6.13 H 416 c 0.8,-2.07 1.9,-4.14 2.7,-6.13 z m 0,0 m -14.4,0 c -1.2,2.03 -2,4.06 -3.1,6.13 h 12.8 c 1.2,-2.03 2,-4.1 2.8,-6.13 z m 0,0 m 3.1,-7.79 c -0.8,1.95 -1.6,3.97 -2.3,6.08 h 12.4 c 1.2,-2.11 2,-4.13 2.8,-6.08 z m 0,0 m -7,15.63 c -1.2,2.07 -2,4.14 -3.1,6.09 h 12.8 c 1.2,-1.95 2,-4.02 3.2,-6.09 z m 0,0 m 6.6,14.98 c -1.9,2.69 -3.5,4.99 -5.4,6.79 h 14.8 c 1.5,-1.8 3.5,-4.1 5.4,-6.79 z m 0,0 m 3.9,-7.14 c -0.8,1.88 -1.9,3.71 -3.1,5.42 h 15.2 c 1.2,-1.71 1.8,-3.55 3.1,-5.42 z m 0,0 m 4.3,-7.84 c -1.2,2.07 -1.9,4.14 -3.1,6.09 h 15.2 c 0.8,-1.99 1.9,-4.02 3.1,-6.09 z m 0,0 M 448.6,163 h 42.5 v -7.1 H 456.6 V 133 h 30.7 v -7.1 h -30.7 v -20.2 h 32.9 V 98.62 H 448.1 V 163 Z m 0,0 m -56.2,0 h 8 v -28.9 h 9.1 L 427,163 h 10 l -18.3,-29.7 c 9.8,-1.5 16.2,-7.6 16.2,-17 0,-15.9 -13.6,-17.68 -26,-17.68 H 392 V 163 Z m 7.7,-57.3 h 10.7 c 7.3,0 15.1,1.4 15.1,10.6 0,10.7 -10.5,10.7 -19,10.7 h -6.5 v -21.3 z m 0,0 M 366.7,163 h 8 V 98.62 h -8.4 V 163 Z m 0,0 m -53.1,0 h 8 v -28.9 h 30 V 127 h -30 v -21.3 h 32.3 V 98.62 H 313.1 V 163 Z m 0,0 m -70.2,0 h 24 c 15.5,0 34.1,-10.2 34.1,-32.2 0,-21.8 -15.8,-32.18 -32.8,-32.18 h -25.3 z m 11.4,-10.4 V 109 h 10.5 c 14,0 24.2,6.1 24.2,21.8 0,15.6 -11.7,21.8 -26.2,21.8 z m 0,0 M 215.5,163 H 227 V 98.62 h -11.5 z m 0,0 m -49.2,0 h 38.8 V 152.6 H 177.7 V 98.62 h -11.4 z m 0,0 M 86.55,131.1 c 0,20.1 14.25,33.5 34.15,33.5 20.1,-0.3 34.2,-13.8 34.2,-33.9 0,-20.6 -14.1,-34.07 -34.2,-33.72 -19.9,0 -34.15,13.52 -34.15,34.12 z m 12,-0.8 c 0,-12.8 8.95,-22.9 22.15,-22.9 13.4,0 22.2,10.1 22.2,22.9 0,13.7 -8.9,24 -22.3,24 -13.2,0 -22.05,-10.3 -22.05,-24 z m 0,0 M 77.26,103.6 c -4.99,-4.71 -11.7,-6.62 -18.48,-6.62 -11.74,0 -23.83,6.22 -23.83,19.42 0,23 30.65,14.9 30.65,29 0,6 -5.96,8.9 -11.27,8.9 -4.95,0 -10.02,-2.5 -12.75,-6.8 L 33,155.9 c 5.07,6.3 12.87,8.7 21.1,8.7 12.6,0 23.52,-6.7 23.52,-20.6 0,-22.8 -30.58,-15.5 -30.58,-28.4 0,-5.9 5.3,-8.2 10.61,-8.2 4.44,0 8.81,1.6 11.27,5 z m 0,0"></path>

</svg>
