<?xml version="1.0"?>

<!-- Generator: Adobe Illustrator 19.1.0, SVG Export Plug-In . SVG Version: 6.00 Build 0)  -->
<svg version="1.1" id="Layer_1" xmlns="http://www.w3.org/2000/svg" xmlns:xlink="http://www.w3.org/1999/xlink" x="0px" y="0px" width="600px" height="400px" viewBox="0 0 600 400" enable-background="new 0 0 600 400" xml:space="preserve">
<path fill="#2E2A25" d="M327.527,146.45v44.52h-44.52v6.952h51.471V146.45H327.527z"></path>
<path fill="#2E2A25" d="M268.495,132.217h53.471v53.471h-53.471V132.217z"></path>
<g>
	<path fill="#010101" d="M23.326,171.467c1.518,0.934,3.737,1.713,6.073,1.713c3.465,0,5.489-1.83,5.489-4.477
		c0-2.452-1.402-3.855-4.944-5.217c-4.283-1.518-6.93-3.737-6.93-7.437c0-4.087,3.387-7.124,8.487-7.124
		c2.687,0,4.633,0.623,5.801,1.285l-0.935,2.764c-0.856-0.467-2.608-1.246-4.983-1.246c-3.582,0-4.944,2.141-4.944,3.932
		c0,2.452,1.596,3.659,5.217,5.061c4.438,1.713,6.696,3.854,6.696,7.708c0,4.048-2.998,7.552-9.188,7.552
		c-2.531,0-5.294-0.74-6.696-1.674L23.326,171.467z"></path>
	<path fill="#010101" d="M66.965,162.201c0,9.032-5.489,13.82-12.185,13.82c-6.93,0-11.796-5.372-11.796-13.314
		c0-8.332,5.178-13.782,12.185-13.782C62.333,148.925,66.965,154.415,66.965,162.201z M46.605,162.629
		c0,5.607,3.036,10.628,8.37,10.628c5.372,0,8.409-4.944,8.409-10.9c0-5.217-2.725-10.667-8.37-10.667
		C49.408,151.689,46.605,156.867,46.605,162.629z"></path>
	<path fill="#010101" d="M72.919,149.353h3.387v23.398h11.212v2.842H72.919V149.353z"></path>
	<path fill="#010101" d="M94.835,149.353v15.534c0,5.878,2.608,8.37,6.112,8.37c3.893,0,6.384-2.569,6.384-8.37v-15.534h3.427v15.3
		c0,8.059-4.244,11.367-9.928,11.367c-5.372,0-9.421-3.075-9.421-11.212v-15.456L94.835,149.353L94.835,149.353z"></path>
	<path fill="#010101" d="M136.528,174.736c-1.246,0.623-3.737,1.246-6.931,1.246c-7.397,0-12.964-4.671-12.964-13.275
		c0-8.214,5.568-13.782,13.704-13.782c3.27,0,5.334,0.701,6.229,1.168l-0.817,2.764c-1.285-0.622-3.115-1.089-5.295-1.089
		c-6.151,0-10.239,3.932-10.239,10.822c0,6.423,3.698,10.551,10.084,10.551c2.063,0,4.165-0.428,5.527-1.09L136.528,174.736z"></path>
	<path fill="#010101" d="M145.712,149.353v26.24h-3.388v-26.24H145.712z"></path>
	<path fill="#010101" d="M175.609,162.201c0,9.032-5.489,13.82-12.185,13.82c-6.93,0-11.797-5.372-11.797-13.314
		c0-8.332,5.179-13.782,12.185-13.782C170.977,148.925,175.609,154.415,175.609,162.201z M155.248,162.629
		c0,5.607,3.037,10.628,8.37,10.628c5.373,0,8.409-4.944,8.409-10.9c0-5.217-2.725-10.667-8.37-10.667
		C158.052,151.689,155.248,156.867,155.248,162.629z"></path>
	<path fill="#010101" d="M181.563,175.593v-26.24h3.698l8.41,13.276c1.946,3.076,3.465,5.84,4.711,8.526l0.077-0.039
		c-0.311-3.504-0.389-6.696-0.389-10.784v-10.979h3.192v26.24h-3.426l-8.332-13.315c-1.829-2.92-3.581-5.917-4.905-8.759
		l-0.117,0.038c0.195,3.309,0.273,6.463,0.273,10.823v11.212h-3.192V175.593z"></path>
	<path fill="#010101" d="M222.321,163.29h-10.2v9.46h11.368v2.842h-14.755v-26.24h14.171v2.842h-10.783v8.293h10.2L222.321,163.29
		L222.321,163.29z"></path>
	<path fill="#010101" d="M228.975,171.467c1.518,0.934,3.737,1.713,6.074,1.713c3.465,0,5.489-1.83,5.489-4.477
		c0-2.452-1.402-3.855-4.945-5.217c-4.282-1.518-6.93-3.737-6.93-7.437c0-4.087,3.388-7.124,8.487-7.124
		c2.686,0,4.633,0.623,5.801,1.285l-0.934,2.764c-0.857-0.467-2.609-1.246-4.983-1.246c-3.582,0-4.944,2.141-4.944,3.932
		c0,2.452,1.596,3.659,5.217,5.061c4.438,1.713,6.696,3.854,6.696,7.708c0,4.048-2.998,7.552-9.188,7.552
		c-2.531,0-5.295-0.74-6.697-1.674L228.975,171.467z"></path>
</g>
<g>
	<path fill="#010101" d="M363.623,149.581v26.239h-3.388v-26.239H363.623z"></path>
	<path fill="#010101" d="M371.952,175.821v-26.239h3.699l8.409,13.275c1.946,3.075,3.465,5.84,4.711,8.526l0.078-0.039
		c-0.312-3.504-0.39-6.696-0.39-10.784v-10.979h3.192v26.239h-3.426l-8.331-13.314c-1.83-2.92-3.582-5.918-4.906-8.76l-0.116,0.039
		c0.194,3.309,0.273,6.463,0.273,10.823v11.212L371.952,175.821L371.952,175.821z"></path>
	<path fill="#010101" d="M404.962,152.462h-7.981v-2.88h19.427v2.88h-8.019v23.359h-3.427V152.462z"></path>
	<path fill="#010101" d="M435.326,163.518h-10.2v9.46h11.369v2.842H421.74v-26.239h14.171v2.842h-10.784v8.292h10.2v2.803H435.326z"></path>
	<path fill="#010101" d="M463.277,174.652c-1.518,0.545-4.516,1.441-8.059,1.441c-3.971,0-7.241-1.012-9.811-3.465
		c-2.257-2.18-3.659-5.684-3.659-9.772c0.039-7.825,5.411-13.548,14.21-13.548c3.037,0,5.411,0.661,6.541,1.207l-0.818,2.764
		c-1.401-0.623-3.153-1.129-5.801-1.129c-6.384,0-10.55,3.971-10.55,10.55c0,6.657,4.01,10.589,10.122,10.589
		c2.219,0,3.737-0.311,4.516-0.701v-7.825h-5.334v-2.725h8.643V174.652z"></path>
	<path fill="#010101" d="M470.865,149.931c1.714-0.35,4.166-0.545,6.502-0.545c3.621,0,5.956,0.662,7.592,2.141
		c1.324,1.168,2.064,2.959,2.064,4.983c0,3.465-2.181,5.762-4.945,6.696v0.117c2.025,0.701,3.231,2.57,3.855,5.295
		c0.856,3.659,1.479,6.19,2.025,7.202h-3.504c-0.428-0.74-1.012-2.998-1.752-6.268c-0.779-3.621-2.18-4.983-5.256-5.1h-3.192v11.368
		h-3.388v-25.889H470.865z M474.252,161.883h3.465c3.62,0,5.917-1.985,5.917-4.983c0-3.387-2.452-4.866-6.035-4.906
		c-1.635,0-2.802,0.156-3.347,0.312V161.883z"></path>
	<path fill="#010101" d="M498.659,167.567l-2.725,8.254h-3.504l8.915-26.239h4.088l8.954,26.239h-3.621l-2.802-8.254H498.659z
		 M507.262,164.92l-2.569-7.552c-0.584-1.713-0.973-3.27-1.363-4.788h-0.078c-0.389,1.557-0.817,3.153-1.323,4.749l-2.57,7.592
		L507.262,164.92L507.262,164.92z"></path>
	<path fill="#010101" d="M520.652,149.581h3.388v23.398h11.212v2.842h-14.6V149.581z"></path>
	<path fill="#010101" d="M555.026,163.518h-10.2v9.46h11.367v2.842h-14.755v-26.239h14.172v2.842h-10.784v8.292h10.2V163.518z"></path>
	<path fill="#010101" d="M562.537,171.694c1.518,0.935,3.737,1.713,6.074,1.713c3.465,0,5.489-1.83,5.489-4.477
		c0-2.452-1.402-3.854-4.944-5.217c-4.283-1.518-6.93-3.737-6.93-7.436c0-4.088,3.387-7.125,8.486-7.125
		c2.687,0,4.633,0.623,5.801,1.285l-0.934,2.764c-0.857-0.468-2.609-1.246-4.983-1.246c-3.582,0-4.944,2.141-4.944,3.932
		c0,2.452,1.596,3.66,5.217,5.061c4.438,1.713,6.696,3.854,6.696,7.708c0,4.049-2.998,7.553-9.188,7.553
		c-2.531,0-5.295-0.74-6.696-1.674L562.537,171.694z"></path>
</g>
<g>
	<path fill="#010101" d="M114.779,212.276c0.282,0.749,0.613,1.347,0.992,1.792c0.661,0.777,1.483,1.164,2.464,1.164
		c0.532,0,0.991-0.167,1.379-0.504s0.582-0.807,0.582-1.41c0-0.543-0.195-1.016-0.585-1.417c-0.255-0.255-0.791-0.638-1.61-1.148
		l-1.423-0.888c-0.428-0.272-0.77-0.545-1.025-0.823c-0.472-0.526-0.709-1.108-0.709-1.742c0-0.842,0.28-1.542,0.839-2.103
		c0.559-0.558,1.301-0.839,2.224-0.839c0.38,0,0.837,0.093,1.373,0.281c0.534,0.187,0.84,0.281,0.916,0.281
		c0.206,0,0.349-0.05,0.427-0.148s0.14-0.236,0.184-0.415h0.342l0.367,3.552h-0.399c-0.272-1.07-0.708-1.816-1.308-2.24
		c-0.6-0.424-1.193-0.636-1.78-0.636c-0.456,0-0.854,0.135-1.193,0.404c-0.34,0.268-0.509,0.642-0.509,1.12
		c0,0.429,0.13,0.796,0.39,1.1c0.26,0.308,0.664,0.632,1.212,0.969l1.465,0.904c0.917,0.566,1.563,1.084,1.94,1.556
		c0.371,0.478,0.556,1.043,0.556,1.694c0,0.874-0.33,1.604-0.99,2.191c-0.659,0.587-1.503,0.88-2.529,0.88
		c-0.516,0-1.055-0.098-1.617-0.293c-0.563-0.196-0.884-0.293-0.966-0.293c-0.196,0-0.327,0.061-0.395,0.18
		c-0.068,0.119-0.112,0.247-0.134,0.382h-0.367l-0.497-3.552L114.779,212.276L114.779,212.276z"></path>
	<path fill="#010101" d="M124.921,209.111c0.686-0.746,1.571-1.12,2.651-1.12c1.075,0,1.966,0.353,2.672,1.059
		c0.706,0.706,1.059,1.645,1.059,2.819c0,1.081-0.342,2.02-1.026,2.819s-1.569,1.197-2.656,1.197c-1.043,0-1.925-0.382-2.647-1.148
		c-0.722-0.766-1.083-1.727-1.083-2.884C123.89,210.771,124.233,209.858,124.921,209.111z M126.221,208.903
		c-0.544,0.494-0.816,1.347-0.816,2.558c0,0.967,0.219,1.868,0.657,2.704c0.438,0.836,1.046,1.255,1.824,1.255
		c0.61,0,1.079-0.279,1.408-0.84c0.329-0.558,0.494-1.291,0.494-2.198c0-0.939-0.21-1.825-0.628-2.657
		c-0.419-0.83-1.026-1.246-1.82-1.246C126.909,208.48,126.537,208.621,126.221,208.903z"></path>
	<path fill="#010101" d="M132.634,215.404c0.505-0.049,0.847-0.151,1.026-0.305c0.179-0.155,0.269-0.457,0.269-0.909v-7.958
		c0-0.358-0.03-0.605-0.09-0.742c-0.109-0.228-0.329-0.341-0.66-0.341c-0.076,0-0.159,0.008-0.248,0.024
		c-0.09,0.016-0.203,0.041-0.338,0.074v-0.269c0.733-0.195,1.616-0.456,2.647-0.782c0.038,0,0.061,0.016,0.07,0.049
		c0.008,0.033,0.012,0.103,0.012,0.212v9.767c0,0.474,0.081,0.779,0.244,0.917c0.163,0.139,0.5,0.227,1.01,0.265v0.228h-3.943
		L132.634,215.404L132.634,215.404z"></path>
	<path fill="#010101" d="M139.993,208.089v5.213c0,0.369,0.052,0.666,0.155,0.887c0.201,0.414,0.57,0.619,1.108,0.619
		c0.369,0,0.73-0.122,1.083-0.366c0.201-0.136,0.405-0.323,0.611-0.562v-4.464c0-0.418-0.081-0.693-0.244-0.823
		c-0.163-0.13-0.489-0.209-0.978-0.237v-0.268h2.631v5.735c0,0.369,0.066,0.623,0.199,0.761c0.133,0.139,0.414,0.2,0.843,0.184
		v0.228c-0.299,0.081-0.519,0.142-0.66,0.184c-0.141,0.04-0.377,0.115-0.709,0.224c-0.141,0.049-0.451,0.166-0.929,0.35
		c-0.027,0-0.043-0.012-0.049-0.036c-0.005-0.025-0.008-0.053-0.008-0.086v-1.312c-0.369,0.441-0.706,0.767-1.01,0.978
		c-0.462,0.326-0.95,0.489-1.466,0.489c-0.472,0-0.918-0.168-1.336-0.505c-0.424-0.331-0.635-0.89-0.635-1.673v-4.233
		c0-0.431-0.092-0.719-0.277-0.865c-0.119-0.092-0.375-0.156-0.766-0.194v-0.228H139.993z"></path>
	<path fill="#010101" d="M152.138,208.474c0.491,0.349,0.737,0.732,0.737,1.148c0,0.179-0.062,0.345-0.187,0.5
		c-0.125,0.154-0.318,0.231-0.578,0.231c-0.19,0-0.357-0.065-0.501-0.195c-0.144-0.13-0.248-0.32-0.313-0.57l-0.098-0.391
		c-0.071-0.288-0.193-0.491-0.367-0.611c-0.179-0.113-0.415-0.171-0.709-0.171c-0.619,0-1.142,0.27-1.568,0.811
		c-0.427,0.541-0.64,1.261-0.64,2.158c0,0.821,0.235,1.558,0.705,2.21c0.469,0.653,1.104,0.979,1.902,0.979
		c0.565,0,1.067-0.185,1.507-0.555c0.25-0.212,0.532-0.55,0.847-1.012l0.228,0.139c-0.31,0.653-0.635,1.169-0.978,1.549
		c-0.657,0.729-1.417,1.093-2.281,1.093c-0.847,0-1.597-0.333-2.248-1.001c-0.652-0.668-0.978-1.575-0.978-2.721
		c0-1.124,0.356-2.091,1.067-2.9c0.711-0.809,1.61-1.213,2.696-1.213C151.061,207.951,151.646,208.124,152.138,208.474z"></path>
	<path fill="#010101" d="M154.45,215.404c0.581-0.054,0.948-0.153,1.1-0.298c0.152-0.143,0.228-0.533,0.228-1.169v-3.886
		c0-0.352-0.024-0.596-0.073-0.732c-0.081-0.223-0.253-0.335-0.513-0.335c-0.06,0-0.118,0.005-0.175,0.016
		c-0.056,0.011-0.221,0.054-0.493,0.13v-0.253l0.35-0.113c0.95-0.311,1.613-0.543,1.988-0.702c0.152-0.065,0.25-0.098,0.293-0.098
		c0.011,0.039,0.016,0.079,0.016,0.123v5.849c0,0.619,0.074,1.008,0.224,1.164c0.149,0.159,0.488,0.258,1.014,0.302v0.228h-3.959
		L154.45,215.404L154.45,215.404z M155.745,204.511c0.163-0.167,0.364-0.251,0.603-0.251c0.234,0,0.433,0.083,0.599,0.248
		c0.165,0.164,0.248,0.366,0.248,0.604c0,0.232-0.083,0.431-0.248,0.595c-0.166,0.165-0.365,0.248-0.599,0.248
		c-0.239,0-0.44-0.083-0.603-0.248c-0.163-0.164-0.244-0.363-0.244-0.595C155.501,204.879,155.582,204.679,155.745,204.511z"></path>
	<path fill="#010101" d="M160.697,209.111c0.686-0.746,1.571-1.12,2.651-1.12c1.075,0,1.966,0.353,2.672,1.059
		c0.706,0.706,1.059,1.645,1.059,2.819c0,1.081-0.342,2.02-1.026,2.819s-1.569,1.197-2.656,1.197c-1.043,0-1.925-0.382-2.647-1.148
		c-0.722-0.766-1.083-1.727-1.083-2.884C159.667,210.771,160.01,209.858,160.697,209.111z M161.998,208.903
		c-0.544,0.494-0.816,1.347-0.816,2.558c0,0.967,0.219,1.868,0.657,2.704s1.046,1.255,1.824,1.255c0.61,0,1.079-0.279,1.408-0.84
		c0.329-0.558,0.494-1.291,0.494-2.198c0-0.939-0.21-1.825-0.628-2.657c-0.419-0.83-1.026-1.246-1.82-1.246
		C162.686,208.48,162.314,208.621,161.998,208.903z"></path>
	<path fill="#010101" d="M168.37,215.404c0.386-0.049,0.655-0.146,0.811-0.289c0.154-0.144,0.232-0.466,0.232-0.966v-4.138
		c0-0.344-0.033-0.588-0.098-0.728c-0.103-0.204-0.315-0.307-0.635-0.307c-0.049,0-0.099,0.003-0.15,0.009
		c-0.052,0.005-0.116,0.014-0.192,0.024v-0.285c0.223-0.065,0.749-0.234,1.58-0.505l0.766-0.253c0.038,0,0.061,0.014,0.069,0.041
		c0.009,0.027,0.012,0.065,0.012,0.114v1.198c0.499-0.467,0.889-0.787,1.171-0.962c0.423-0.265,0.862-0.399,1.317-0.399
		c0.368,0,0.704,0.105,1.008,0.318c0.585,0.413,0.878,1.148,0.878,2.207v3.804c0,0.391,0.078,0.674,0.234,0.847
		c0.156,0.175,0.418,0.264,0.784,0.269v0.228h-3.478v-0.228c0.396-0.054,0.673-0.164,0.831-0.33c0.158-0.165,0.236-0.526,0.236-1.08
		v-3.478c0-0.467-0.086-0.854-0.259-1.161c-0.173-0.306-0.491-0.459-0.956-0.459c-0.319,0-0.643,0.109-0.972,0.326
		c-0.184,0.125-0.421,0.331-0.713,0.619v4.562c0,0.391,0.087,0.653,0.261,0.785c0.174,0.134,0.448,0.205,0.823,0.216v0.228h-3.56
		V215.404z"></path>
	<path fill="#010101" d="M182.727,208.785c0.576,0.53,0.863,1.281,0.863,2.253h-5.173c0.054,1.257,0.34,2.173,0.856,2.747
		c0.516,0.575,1.126,0.861,1.833,0.861c0.569,0,1.05-0.149,1.441-0.446c0.391-0.298,0.752-0.721,1.083-1.268l0.286,0.097
		c-0.223,0.691-0.64,1.331-1.25,1.918c-0.611,0.588-1.36,0.881-2.244,0.881c-1.022,0-1.811-0.386-2.367-1.157
		c-0.557-0.771-0.835-1.659-0.835-2.664c0-1.09,0.323-2.033,0.969-2.826s1.488-1.189,2.526-1.189
		C181.48,207.991,182.151,208.256,182.727,208.785z M178.826,209.408c-0.175,0.293-0.3,0.663-0.376,1.108h3.439
		c-0.061-0.543-0.163-0.947-0.311-1.214c-0.266-0.477-0.711-0.717-1.336-0.717C179.623,208.585,179.151,208.86,178.826,209.408z"></path>
	<path fill="#010101" d="M185.653,213.066h0.269c0.125,0.619,0.292,1.094,0.504,1.425c0.379,0.608,0.934,0.912,1.666,0.912
		c0.406,0,0.727-0.113,0.962-0.338c0.236-0.226,0.354-0.518,0.354-0.877c0-0.228-0.068-0.447-0.204-0.659
		c-0.136-0.212-0.374-0.418-0.716-0.619l-0.912-0.521c-0.668-0.358-1.16-0.719-1.475-1.083s-0.472-0.793-0.472-1.288
		c0-0.607,0.217-1.108,0.652-1.499c0.434-0.391,0.98-0.587,1.638-0.587c0.287,0,0.604,0.055,0.948,0.163
		c0.345,0.11,0.539,0.163,0.583,0.163c0.098,0,0.167-0.013,0.211-0.04c0.043-0.027,0.083-0.071,0.115-0.13h0.196l0.056,2.273h-0.252
		c-0.11-0.527-0.256-0.937-0.441-1.231c-0.337-0.543-0.822-0.815-1.458-0.815c-0.38,0-0.679,0.117-0.896,0.351
		s-0.326,0.507-0.326,0.822c0,0.5,0.375,0.945,1.124,1.336l1.075,0.579c1.157,0.63,1.736,1.363,1.736,2.198
		c0,0.642-0.24,1.165-0.72,1.573s-1.108,0.61-1.882,0.61c-0.326,0-0.694-0.054-1.107-0.163c-0.412-0.108-0.656-0.163-0.731-0.163
		c-0.065,0-0.123,0.024-0.172,0.07c-0.049,0.047-0.087,0.102-0.113,0.167h-0.213v-2.629H185.653z"></path>
	<path fill="#010101" d="M202.246,208.785c0.576,0.53,0.863,1.281,0.863,2.253h-5.173c0.054,1.257,0.34,2.173,0.856,2.747
		c0.516,0.575,1.126,0.861,1.833,0.861c0.569,0,1.05-0.149,1.441-0.446s0.752-0.721,1.083-1.268l0.286,0.097
		c-0.223,0.691-0.64,1.331-1.25,1.918c-0.611,0.588-1.36,0.881-2.244,0.881c-1.022,0-1.811-0.386-2.367-1.157
		c-0.557-0.771-0.835-1.659-0.835-2.664c0-1.09,0.323-2.033,0.969-2.826s1.488-1.189,2.526-1.189
		C200.999,207.991,201.67,208.256,202.246,208.785z M198.344,209.408c-0.175,0.293-0.3,0.663-0.376,1.108h3.439
		c-0.061-0.543-0.163-0.947-0.311-1.214c-0.266-0.477-0.711-0.717-1.336-0.717C199.142,208.585,198.67,208.86,198.344,209.408z"></path>
	<path fill="#010101" d="M204.604,215.404c0.384-0.049,0.655-0.146,0.81-0.289c0.154-0.144,0.232-0.466,0.232-0.966v-4.138
		c0-0.344-0.033-0.588-0.098-0.728c-0.104-0.204-0.316-0.307-0.636-0.307c-0.048,0-0.099,0.003-0.15,0.009
		c-0.052,0.005-0.116,0.014-0.191,0.024v-0.285c0.222-0.065,0.749-0.234,1.579-0.505l0.767-0.253c0.037,0,0.061,0.014,0.068,0.041
		c0.009,0.027,0.012,0.065,0.012,0.114v1.198c0.5-0.467,0.89-0.787,1.172-0.962c0.423-0.265,0.861-0.399,1.316-0.399
		c0.369,0,0.705,0.105,1.009,0.318c0.584,0.413,0.878,1.148,0.878,2.207v3.804c0,0.391,0.078,0.674,0.235,0.847
		c0.156,0.175,0.417,0.264,0.784,0.269v0.228h-3.479v-0.228c0.396-0.054,0.673-0.164,0.831-0.33c0.157-0.165,0.237-0.526,0.237-1.08
		v-3.478c0-0.467-0.087-0.854-0.26-1.161c-0.173-0.306-0.492-0.459-0.956-0.459c-0.319,0-0.643,0.109-0.972,0.326
		c-0.184,0.125-0.421,0.331-0.713,0.619v4.562c0,0.391,0.086,0.653,0.261,0.785c0.173,0.134,0.447,0.205,0.822,0.216v0.228h-3.559
		v-0.227H204.604z"></path>
	<path fill="#010101" d="M217.815,204.595h9.433l0.09,2.835h-0.4c-0.195-0.891-0.444-1.471-0.745-1.74
		c-0.302-0.268-0.936-0.403-1.903-0.403h-0.928v8.537c0,0.643,0.1,1.042,0.301,1.195c0.201,0.154,0.641,0.255,1.32,0.304v0.31
		h-4.864v-0.31c0.706-0.054,1.146-0.171,1.321-0.349c0.173-0.178,0.261-0.627,0.261-1.346v-8.342h-0.937
		c-0.923,0-1.552,0.134-1.886,0.399c-0.335,0.267-0.585,0.847-0.754,1.744h-0.407L217.815,204.595z"></path>
	<path fill="#010101" d="M232.83,208.785c0.576,0.53,0.863,1.281,0.863,2.253h-5.173c0.054,1.257,0.34,2.173,0.856,2.747
		c0.516,0.575,1.126,0.861,1.833,0.861c0.569,0,1.05-0.149,1.441-0.446s0.752-0.721,1.083-1.268l0.286,0.097
		c-0.223,0.691-0.64,1.331-1.25,1.918c-0.611,0.588-1.36,0.881-2.244,0.881c-1.022,0-1.811-0.386-2.367-1.157
		c-0.557-0.771-0.835-1.659-0.835-2.664c0-1.09,0.323-2.033,0.969-2.826s1.488-1.189,2.526-1.189
		C231.583,207.991,232.255,208.256,232.83,208.785z M228.929,209.408c-0.175,0.293-0.3,0.663-0.376,1.108h3.439
		c-0.061-0.543-0.163-0.947-0.311-1.214c-0.266-0.477-0.711-0.717-1.336-0.717C229.726,208.585,229.255,208.86,228.929,209.408z"></path>
	<path fill="#010101" d="M240.788,208.474c0.491,0.349,0.736,0.732,0.736,1.148c0,0.179-0.062,0.345-0.187,0.5
		c-0.125,0.154-0.317,0.231-0.578,0.231c-0.191,0-0.357-0.065-0.502-0.195c-0.143-0.13-0.248-0.32-0.313-0.57l-0.098-0.391
		c-0.072-0.288-0.193-0.491-0.367-0.611c-0.179-0.113-0.415-0.171-0.708-0.171c-0.619,0-1.143,0.27-1.568,0.811
		c-0.427,0.541-0.64,1.261-0.64,2.158c0,0.821,0.235,1.558,0.705,2.21c0.469,0.653,1.104,0.979,1.902,0.979
		c0.565,0,1.068-0.185,1.506-0.555c0.25-0.212,0.532-0.55,0.847-1.012l0.228,0.139c-0.308,0.653-0.634,1.169-0.978,1.549
		c-0.657,0.729-1.416,1.093-2.281,1.093c-0.847,0-1.597-0.333-2.248-1.001c-0.652-0.668-0.978-1.575-0.978-2.721
		c0-1.124,0.356-2.091,1.068-2.9c0.711-0.809,1.61-1.213,2.697-1.213C239.711,207.951,240.296,208.124,240.788,208.474z"></path>
	<path fill="#010101" d="M243.077,215.404c0.384-0.049,0.655-0.146,0.81-0.289c0.154-0.144,0.232-0.466,0.232-0.966v-4.138
		c0-0.344-0.033-0.588-0.098-0.728c-0.104-0.204-0.316-0.307-0.636-0.307c-0.048,0-0.099,0.003-0.15,0.009
		c-0.052,0.005-0.116,0.014-0.191,0.024v-0.285c0.222-0.065,0.749-0.234,1.579-0.505l0.767-0.253c0.037,0,0.061,0.014,0.068,0.041
		c0.009,0.027,0.012,0.065,0.012,0.114v1.198c0.5-0.467,0.89-0.787,1.172-0.962c0.423-0.265,0.861-0.399,1.316-0.399
		c0.369,0,0.705,0.105,1.009,0.318c0.584,0.413,0.878,1.148,0.878,2.207v3.804c0,0.391,0.078,0.674,0.235,0.847
		c0.156,0.175,0.417,0.264,0.784,0.269v0.228h-3.479v-0.228c0.396-0.054,0.673-0.164,0.831-0.33c0.157-0.165,0.237-0.526,0.237-1.08
		v-3.478c0-0.467-0.087-0.854-0.26-1.161c-0.173-0.306-0.492-0.459-0.956-0.459c-0.319,0-0.643,0.109-0.972,0.326
		c-0.184,0.125-0.421,0.331-0.713,0.619v4.562c0,0.391,0.086,0.653,0.261,0.785c0.173,0.134,0.447,0.205,0.822,0.216v0.228h-3.559
		v-0.227H243.077z"></path>
	<path fill="#010101" d="M253.054,209.111c0.686-0.746,1.571-1.12,2.651-1.12c1.075,0,1.966,0.353,2.672,1.059
		s1.059,1.645,1.059,2.819c0,1.081-0.342,2.02-1.026,2.819s-1.569,1.197-2.656,1.197c-1.043,0-1.926-0.382-2.647-1.148
		c-0.723-0.766-1.084-1.727-1.084-2.884C252.023,210.771,252.367,209.858,253.054,209.111z M254.354,208.903
		c-0.544,0.494-0.816,1.347-0.816,2.558c0,0.967,0.219,1.868,0.657,2.704s1.046,1.255,1.824,1.255c0.609,0,1.079-0.279,1.408-0.84
		c0.329-0.558,0.494-1.291,0.494-2.198c0-0.939-0.21-1.825-0.629-2.657c-0.418-0.83-1.025-1.246-1.819-1.246
		C255.043,208.48,254.67,208.621,254.354,208.903z"></path>
	<path fill="#010101" d="M260.768,215.404c0.505-0.049,0.847-0.151,1.026-0.305c0.179-0.155,0.269-0.457,0.269-0.909v-7.958
		c0-0.358-0.03-0.605-0.09-0.742c-0.109-0.228-0.329-0.341-0.659-0.341c-0.077,0-0.16,0.008-0.249,0.024
		c-0.09,0.016-0.203,0.041-0.338,0.074v-0.269c0.732-0.195,1.615-0.456,2.647-0.782c0.038,0,0.061,0.016,0.07,0.049
		c0.008,0.033,0.012,0.103,0.012,0.212v9.767c0,0.474,0.081,0.779,0.244,0.917c0.163,0.139,0.5,0.227,1.01,0.265v0.228h-3.943
		L260.768,215.404L260.768,215.404z"></path>
	<path fill="#010101" d="M266.999,209.111c0.686-0.746,1.571-1.12,2.651-1.12c1.075,0,1.966,0.353,2.672,1.059
		c0.706,0.706,1.059,1.645,1.059,2.819c0,1.081-0.342,2.02-1.026,2.819s-1.569,1.197-2.656,1.197c-1.043,0-1.926-0.382-2.647-1.148
		c-0.723-0.766-1.084-1.727-1.084-2.884C265.968,210.771,266.312,209.858,266.999,209.111z M268.299,208.903
		c-0.544,0.494-0.816,1.347-0.816,2.558c0,0.967,0.219,1.868,0.657,2.704c0.438,0.836,1.046,1.255,1.824,1.255
		c0.609,0,1.079-0.279,1.408-0.84c0.329-0.558,0.494-1.291,0.494-2.198c0-0.939-0.21-1.825-0.629-2.657
		c-0.418-0.83-1.025-1.246-1.819-1.246C268.988,208.48,268.615,208.621,268.299,208.903z"></path>
	<path fill="#010101" d="M275.913,212.024c-0.274-0.418-0.412-0.888-0.412-1.41c0-0.635,0.253-1.238,0.758-1.808
		c0.505-0.57,1.219-0.855,2.142-0.855c0.396,0,0.834,0.093,1.312,0.28c0.478,0.188,0.936,0.281,1.377,0.281
		c0.113,0,0.286-0.004,0.517-0.012c0.23-0.009,0.398-0.013,0.501-0.013h0.098v0.66h-1.409c0.098,0.228,0.173,0.427,0.228,0.595
		c0.091,0.315,0.138,0.614,0.138,0.895c0,0.619-0.256,1.188-0.77,1.707c-0.513,0.518-1.205,0.778-2.072,0.778
		c-0.137,0-0.381-0.024-0.734-0.074c-0.158,0-0.366,0.134-0.627,0.4s-0.391,0.483-0.391,0.652c0,0.174,0.19,0.302,0.571,0.382
		c0.25,0.055,0.527,0.083,0.832,0.083c1.398,0,2.347,0.078,2.847,0.236c0.821,0.255,1.232,0.804,1.232,1.646
		c0,0.858-0.479,1.542-1.437,2.053c-0.959,0.51-1.927,0.766-2.904,0.766c-0.891,0-1.597-0.18-2.118-0.542
		c-0.521-0.361-0.782-0.74-0.782-1.136c0-0.196,0.068-0.387,0.206-0.575c0.138-0.187,0.411-0.466,0.816-0.835l0.535-0.48
		l0.098-0.098c-0.248-0.098-0.434-0.192-0.558-0.285c-0.215-0.168-0.323-0.362-0.323-0.579c0-0.201,0.093-0.423,0.28-0.664
		c0.188-0.242,0.588-0.634,1.201-1.177C276.571,212.732,276.188,212.442,275.913,212.024z M276.776,218.084
		c0.514,0.173,1.101,0.261,1.764,0.261c0.901,0,1.635-0.156,2.199-0.469c0.565-0.312,0.847-0.696,0.847-1.152
		c0-0.364-0.228-0.606-0.685-0.724c-0.283-0.072-0.819-0.112-1.609-0.123c-0.201-0.005-0.414-0.012-0.636-0.021
		c-0.223-0.008-0.427-0.017-0.613-0.028c-0.119-0.005-0.313-0.027-0.579-0.065c-0.267-0.038-0.465-0.071-0.596-0.098
		c-0.065,0-0.224,0.172-0.476,0.513c-0.257,0.348-0.386,0.669-0.386,0.962C276.008,217.596,276.264,217.909,276.776,218.084z
		 M279.364,212.487c0.326-0.261,0.489-0.714,0.489-1.361c0-0.515-0.133-1.096-0.395-1.742c-0.264-0.646-0.703-0.97-1.316-0.97
		c-0.532,0-0.898,0.253-1.099,0.757c-0.103,0.267-0.154,0.595-0.154,0.986c0,0.663,0.16,1.258,0.48,1.783
		c0.32,0.528,0.735,0.791,1.247,0.791C278.912,212.732,279.162,212.65,279.364,212.487z"></path>
	<path fill="#010101" d="M283.521,215.404c0.581-0.054,0.947-0.153,1.099-0.298c0.152-0.143,0.228-0.533,0.228-1.169v-3.886
		c0-0.352-0.024-0.596-0.073-0.732c-0.081-0.223-0.253-0.335-0.514-0.335c-0.06,0-0.117,0.005-0.175,0.016
		c-0.056,0.011-0.222,0.054-0.492,0.13v-0.253l0.35-0.113c0.95-0.311,1.613-0.543,1.988-0.702c0.152-0.065,0.25-0.098,0.293-0.098
		c0.011,0.039,0.016,0.079,0.016,0.123v5.849c0,0.619,0.075,1.008,0.224,1.164c0.15,0.159,0.488,0.258,1.014,0.302v0.228h-3.959
		v-0.226H283.521z M287.969,205.238c-0.087,0.103-0.215,0.21-0.383,0.317l-2.565,1.622h-0.676l2.451-2.469
		c0.087-0.086,0.195-0.176,0.326-0.268c0.13-0.092,0.268-0.138,0.416-0.138c0.14,0,0.269,0.05,0.387,0.15
		c0.116,0.101,0.175,0.232,0.175,0.395C288.099,205.004,288.056,205.134,287.969,205.238z"></path>
	<path fill="#010101" d="M290.107,212.039c0.5-0.326,1.496-0.768,2.989-1.327v-0.693c0-0.554-0.054-0.938-0.163-1.156
		c-0.185-0.364-0.567-0.546-1.148-0.546c-0.277,0-0.541,0.071-0.79,0.212c-0.251,0.147-0.376,0.348-0.376,0.603
		c0,0.065,0.014,0.175,0.041,0.33c0.027,0.154,0.041,0.254,0.041,0.297c0,0.305-0.101,0.517-0.302,0.636
		c-0.114,0.071-0.25,0.105-0.407,0.105c-0.244,0-0.431-0.08-0.562-0.24c-0.13-0.161-0.195-0.339-0.195-0.534
		c0-0.379,0.235-0.778,0.704-1.193c0.47-0.416,1.158-0.623,2.066-0.623c1.052,0,1.767,0.342,2.142,1.026
		c0.201,0.375,0.302,0.92,0.302,1.637v3.267c0,0.315,0.021,0.532,0.065,0.652c0.07,0.212,0.216,0.317,0.439,0.317
		c0.125,0,0.228-0.018,0.311-0.056c0.08-0.038,0.222-0.13,0.424-0.277v0.424c-0.175,0.212-0.362,0.386-0.563,0.521
		c-0.304,0.206-0.614,0.31-0.929,0.31c-0.369,0-0.636-0.119-0.803-0.358c-0.165-0.239-0.256-0.524-0.273-0.856
		c-0.413,0.358-0.766,0.626-1.059,0.799c-0.494,0.293-0.964,0.439-1.41,0.439c-0.467,0-0.871-0.164-1.213-0.492
		c-0.342-0.329-0.514-0.746-0.514-1.25C288.925,213.224,289.319,212.567,290.107,212.039z M293.096,211.119
		c-0.625,0.206-1.14,0.434-1.547,0.684c-0.782,0.483-1.173,1.032-1.173,1.645c0,0.494,0.163,0.858,0.489,1.092
		c0.211,0.152,0.447,0.228,0.708,0.228c0.358,0,0.702-0.1,1.031-0.301c0.328-0.201,0.492-0.456,0.492-0.767L293.096,211.119
		L293.096,211.119z"></path>
	<path fill="#010101" d="M301.127,215.322c0.678-0.049,1.118-0.15,1.319-0.304c0.201-0.153,0.302-0.552,0.302-1.195v-7.422
		c0-0.613-0.101-1.008-0.302-1.185c-0.201-0.176-0.641-0.281-1.319-0.314v-0.308h4.935v0.308c-0.679,0.033-1.119,0.138-1.319,0.314
		c-0.202,0.177-0.302,0.572-0.302,1.185v7.422c0,0.643,0.1,1.042,0.302,1.195c0.2,0.154,0.64,0.255,1.319,0.304v0.31h-4.935V215.322
		z"></path>
	<path fill="#010101" d="M307.198,215.404c0.384-0.049,0.655-0.146,0.81-0.289c0.154-0.144,0.232-0.466,0.232-0.966v-4.138
		c0-0.344-0.033-0.588-0.098-0.728c-0.104-0.204-0.316-0.307-0.636-0.307c-0.048,0-0.099,0.003-0.15,0.009
		c-0.052,0.005-0.116,0.014-0.191,0.024v-0.285c0.222-0.065,0.749-0.234,1.579-0.505l0.767-0.253c0.037,0,0.061,0.014,0.068,0.041
		c0.009,0.027,0.012,0.065,0.012,0.114v1.198c0.5-0.467,0.89-0.787,1.172-0.962c0.423-0.265,0.861-0.399,1.316-0.399
		c0.369,0,0.705,0.105,1.009,0.318c0.584,0.413,0.878,1.148,0.878,2.207v3.804c0,0.391,0.078,0.674,0.235,0.847
		c0.156,0.175,0.417,0.264,0.784,0.269v0.228h-3.479v-0.228c0.396-0.054,0.673-0.164,0.831-0.33c0.157-0.165,0.237-0.526,0.237-1.08
		v-3.478c0-0.467-0.087-0.854-0.26-1.161c-0.173-0.306-0.492-0.459-0.956-0.459c-0.319,0-0.643,0.109-0.972,0.326
		c-0.184,0.125-0.421,0.331-0.712,0.619v4.562c0,0.391,0.086,0.653,0.261,0.785c0.173,0.134,0.447,0.205,0.822,0.216v0.228h-3.559
		L307.198,215.404L307.198,215.404z"></path>
	<path fill="#010101" d="M316.048,215.404c0.576-0.027,0.955-0.135,1.136-0.322c0.182-0.188,0.274-0.582,0.274-1.186v-5.229h-1.393
		v-0.546h1.393c0-0.858,0.116-1.583,0.351-2.176c0.445-1.134,1.264-1.702,2.456-1.702c0.479,0,0.907,0.096,1.285,0.286
		s0.568,0.445,0.568,0.765c0,0.18-0.065,0.34-0.196,0.481c-0.129,0.141-0.286,0.212-0.469,0.212c-0.157,0-0.292-0.048-0.406-0.142
		c-0.113-0.096-0.248-0.262-0.405-0.501l-0.138-0.213c-0.075-0.113-0.164-0.21-0.267-0.289c-0.102-0.078-0.245-0.117-0.429-0.117
		c-0.412,0-0.69,0.203-0.835,0.61c-0.081,0.217-0.122,0.503-0.122,0.856v1.93h2.029v0.546h-2.029v5.229
		c0,0.615,0.083,1.007,0.249,1.177c0.165,0.172,0.598,0.281,1.299,0.33v0.228h-4.35L316.048,215.404L316.048,215.404z"></path>
	<path fill="#010101" d="M323.215,209.111c0.686-0.746,1.571-1.12,2.651-1.12c1.075,0,1.966,0.353,2.672,1.059
		s1.059,1.645,1.059,2.819c0,1.081-0.342,2.02-1.026,2.819s-1.569,1.197-2.656,1.197c-1.043,0-1.926-0.382-2.647-1.148
		c-0.723-0.766-1.084-1.727-1.084-2.884C322.185,210.771,322.528,209.858,323.215,209.111z M324.515,208.903
		c-0.544,0.494-0.816,1.347-0.816,2.558c0,0.967,0.219,1.868,0.657,2.704c0.438,0.836,1.046,1.255,1.824,1.255
		c0.609,0,1.079-0.279,1.408-0.84c0.329-0.558,0.494-1.291,0.494-2.198c0-0.939-0.21-1.825-0.629-2.657
		c-0.418-0.83-1.025-1.246-1.819-1.246C325.204,208.48,324.831,208.621,324.515,208.903z"></path>
	<path fill="#010101" d="M330.661,215.362c0.499-0.042,0.83-0.131,0.993-0.264c0.163-0.134,0.245-0.417,0.245-0.852v-3.674
		c0-0.537-0.051-0.921-0.151-1.152c-0.101-0.23-0.285-0.346-0.551-0.346c-0.054,0-0.126,0.008-0.215,0.021
		c-0.09,0.014-0.184,0.032-0.281,0.053v-0.269c0.308-0.108,0.626-0.219,0.95-0.333c0.325-0.114,0.55-0.196,0.673-0.244
		c0.27-0.103,0.55-0.219,0.836-0.35c0.038,0,0.061,0.013,0.07,0.04c0.008,0.027,0.012,0.085,0.012,0.171v1.336
		c0.349-0.482,0.684-0.86,1.009-1.132c0.324-0.272,0.66-0.407,1.009-0.407c0.277,0,0.503,0.083,0.678,0.249
		c0.174,0.165,0.262,0.374,0.262,0.623c0,0.223-0.067,0.409-0.2,0.562c-0.134,0.152-0.301,0.228-0.502,0.228
		c-0.206,0-0.414-0.094-0.622-0.286c-0.21-0.189-0.374-0.285-0.493-0.285c-0.19,0-0.424,0.153-0.701,0.461
		c-0.277,0.306-0.415,0.623-0.415,0.949v3.673c0,0.467,0.108,0.792,0.326,0.973c0.216,0.182,0.578,0.268,1.083,0.256v0.269h-4.015
		L330.661,215.362L330.661,215.362z"></path>
	<path fill="#010101" d="M336.895,215.42c0.424-0.038,0.705-0.109,0.847-0.212c0.216-0.157,0.326-0.472,0.326-0.945v-4.212
		c0-0.401-0.053-0.665-0.16-0.79c-0.105-0.125-0.281-0.188-0.525-0.188c-0.115,0-0.2,0.007-0.257,0.017
		c-0.056,0.011-0.124,0.029-0.199,0.056v-0.285l0.587-0.196c0.211-0.071,0.558-0.199,1.043-0.383
		c0.482-0.185,0.737-0.277,0.765-0.277s0.043,0.014,0.05,0.041c0.004,0.027,0.008,0.078,0.008,0.154v1.099
		c0.538-0.489,1.003-0.827,1.393-1.013c0.391-0.188,0.792-0.281,1.206-0.281c0.558,0,1.004,0.19,1.336,0.57
		c0.173,0.206,0.317,0.487,0.431,0.84c0.402-0.408,0.752-0.709,1.05-0.905c0.516-0.337,1.043-0.505,1.581-0.505
		c0.873,0,1.458,0.356,1.751,1.067c0.168,0.403,0.252,1.038,0.252,1.907v3.38c0,0.386,0.086,0.647,0.257,0.786
		c0.171,0.138,0.479,0.229,0.924,0.273v0.212h-3.673v-0.228c0.471-0.043,0.783-0.139,0.932-0.285
		c0.15-0.148,0.224-0.445,0.224-0.897v-3.51c0-0.527-0.056-0.915-0.171-1.164c-0.201-0.445-0.594-0.669-1.181-0.669
		c-0.354,0-0.704,0.117-1.051,0.351c-0.201,0.136-0.448,0.353-0.741,0.652v4.171c0,0.44,0.077,0.774,0.231,1.003
		c0.155,0.228,0.482,0.35,0.982,0.366v0.212h-3.74v-0.212c0.516-0.065,0.845-0.19,0.986-0.375s0.212-0.641,0.212-1.369V211.4
		c0-0.834-0.054-1.409-0.163-1.723c-0.179-0.532-0.559-0.799-1.14-0.799c-0.331,0-0.657,0.091-0.978,0.274
		c-0.32,0.181-0.603,0.419-0.847,0.713v4.455c0,0.414,0.072,0.698,0.216,0.856c0.143,0.157,0.457,0.239,0.941,0.244v0.212h-3.706
		L336.895,215.42L336.895,215.42z"></path>
	<path fill="#010101" d="M351.878,212.039c0.5-0.326,1.496-0.768,2.989-1.327v-0.693c0-0.554-0.054-0.938-0.163-1.156
		c-0.185-0.364-0.567-0.546-1.148-0.546c-0.277,0-0.541,0.071-0.79,0.212c-0.251,0.147-0.376,0.348-0.376,0.603
		c0,0.065,0.014,0.175,0.041,0.33c0.027,0.154,0.041,0.254,0.041,0.297c0,0.305-0.101,0.517-0.302,0.636
		c-0.114,0.071-0.25,0.105-0.407,0.105c-0.244,0-0.431-0.08-0.562-0.24c-0.13-0.161-0.196-0.339-0.196-0.534
		c0-0.379,0.235-0.778,0.704-1.193c0.47-0.416,1.158-0.623,2.066-0.623c1.052,0,1.767,0.342,2.142,1.026
		c0.201,0.375,0.302,0.92,0.302,1.637v3.267c0,0.315,0.021,0.532,0.065,0.652c0.07,0.212,0.216,0.317,0.439,0.317
		c0.125,0,0.228-0.018,0.311-0.056c0.08-0.038,0.222-0.13,0.424-0.277v0.424c-0.175,0.212-0.362,0.386-0.563,0.521
		c-0.304,0.206-0.614,0.31-0.929,0.31c-0.369,0-0.636-0.119-0.803-0.358c-0.165-0.239-0.256-0.524-0.273-0.856
		c-0.413,0.358-0.766,0.626-1.059,0.799c-0.494,0.293-0.964,0.439-1.41,0.439c-0.467,0-0.871-0.164-1.213-0.492
		c-0.342-0.329-0.514-0.746-0.514-1.25C350.697,213.224,351.091,212.567,351.878,212.039z M354.867,211.119
		c-0.625,0.206-1.14,0.434-1.547,0.684c-0.782,0.483-1.173,1.032-1.173,1.645c0,0.494,0.163,0.858,0.489,1.092
		c0.211,0.152,0.447,0.228,0.708,0.228c0.358,0,0.702-0.1,1.031-0.301c0.328-0.201,0.492-0.456,0.492-0.767L354.867,211.119
		L354.867,211.119z M356.245,205.156c-0.087,0.103-0.215,0.21-0.382,0.318l-2.567,1.621h-0.677l2.452-2.468
		c0.087-0.087,0.195-0.177,0.326-0.269s0.269-0.139,0.415-0.139c0.141,0,0.27,0.051,0.388,0.151
		c0.116,0.101,0.175,0.232,0.175,0.395C356.375,204.923,356.332,205.053,356.245,205.156z"></path>
	<path fill="#010101" d="M362.22,208.121v0.587h-1.662l-0.017,4.692c0,0.413,0.036,0.724,0.106,0.937
		c0.13,0.374,0.386,0.562,0.766,0.562c0.196,0,0.365-0.046,0.509-0.138c0.143-0.092,0.307-0.239,0.493-0.441l0.211,0.18
		l-0.178,0.243c-0.283,0.381-0.582,0.65-0.897,0.807c-0.315,0.158-0.619,0.236-0.912,0.236c-0.641,0-1.075-0.285-1.303-0.855
		c-0.125-0.31-0.187-0.739-0.187-1.287v-4.936h-0.888c-0.027-0.016-0.047-0.033-0.061-0.049c-0.013-0.016-0.02-0.038-0.02-0.065
		c0-0.054,0.012-0.097,0.036-0.126c0.025-0.03,0.102-0.099,0.232-0.209c0.375-0.308,0.645-0.56,0.81-0.753
		c0.166-0.193,0.555-0.702,1.17-1.528c0.07,0,0.112,0.007,0.126,0.017c0.013,0.011,0.02,0.051,0.02,0.122v2.004L362.22,208.121
		L362.22,208.121z"></path>
	<path fill="#010101" d="M363.42,215.404c0.581-0.054,0.947-0.153,1.099-0.298c0.152-0.143,0.228-0.533,0.228-1.169v-3.886
		c0-0.352-0.024-0.596-0.073-0.732c-0.081-0.223-0.253-0.335-0.514-0.335c-0.06,0-0.117,0.005-0.175,0.016
		c-0.056,0.011-0.222,0.054-0.492,0.13v-0.253l0.35-0.113c0.95-0.311,1.613-0.543,1.988-0.702c0.152-0.065,0.25-0.098,0.293-0.098
		c0.011,0.039,0.016,0.079,0.016,0.123v5.849c0,0.619,0.075,1.008,0.224,1.164c0.15,0.159,0.488,0.258,1.014,0.302v0.228h-3.959
		v-0.226H363.42z M364.714,204.511c0.163-0.167,0.364-0.251,0.604-0.251c0.232,0,0.432,0.083,0.598,0.248
		c0.165,0.164,0.249,0.366,0.249,0.604c0,0.232-0.084,0.431-0.249,0.595c-0.166,0.165-0.366,0.248-0.598,0.248
		c-0.24,0-0.441-0.083-0.604-0.248c-0.163-0.164-0.243-0.363-0.243-0.595C364.471,204.879,364.551,204.679,364.714,204.511z"></path>
	<path fill="#010101" d="M374.115,208.474c0.491,0.349,0.736,0.732,0.736,1.148c0,0.179-0.062,0.345-0.187,0.5
		c-0.125,0.154-0.317,0.231-0.578,0.231c-0.191,0-0.357-0.065-0.502-0.195c-0.143-0.13-0.248-0.32-0.313-0.57l-0.098-0.391
		c-0.072-0.288-0.193-0.491-0.367-0.611c-0.179-0.113-0.415-0.171-0.708-0.171c-0.619,0-1.143,0.27-1.568,0.811
		c-0.427,0.541-0.64,1.261-0.64,2.158c0,0.821,0.235,1.558,0.705,2.21c0.469,0.653,1.104,0.979,1.902,0.979
		c0.565,0,1.068-0.185,1.506-0.555c0.25-0.212,0.532-0.55,0.847-1.012l0.228,0.139c-0.308,0.653-0.634,1.169-0.978,1.549
		c-0.657,0.729-1.416,1.093-2.281,1.093c-0.847,0-1.597-0.333-2.248-1.001c-0.652-0.668-0.978-1.575-0.978-2.721
		c0-1.124,0.356-2.091,1.068-2.9s1.61-1.213,2.697-1.213C373.037,207.951,373.623,208.124,374.115,208.474z"></path>
	<path fill="#010101" d="M377.894,212.039c0.5-0.326,1.496-0.768,2.989-1.327v-0.693c0-0.554-0.054-0.938-0.163-1.156
		c-0.185-0.364-0.567-0.546-1.148-0.546c-0.277,0-0.541,0.071-0.79,0.212c-0.251,0.147-0.376,0.348-0.376,0.603
		c0,0.065,0.014,0.175,0.041,0.33c0.027,0.154,0.041,0.254,0.041,0.297c0,0.305-0.101,0.517-0.302,0.636
		c-0.114,0.071-0.25,0.105-0.407,0.105c-0.244,0-0.431-0.08-0.562-0.24c-0.13-0.161-0.195-0.339-0.195-0.534
		c0-0.379,0.235-0.778,0.704-1.193c0.47-0.416,1.158-0.623,2.066-0.623c1.052,0,1.767,0.342,2.142,1.026
		c0.201,0.375,0.302,0.92,0.302,1.637v3.267c0,0.315,0.021,0.532,0.065,0.652c0.07,0.212,0.216,0.317,0.439,0.317
		c0.125,0,0.228-0.018,0.311-0.056c0.08-0.038,0.222-0.13,0.424-0.277v0.424c-0.175,0.212-0.362,0.386-0.563,0.521
		c-0.304,0.206-0.614,0.31-0.929,0.31c-0.369,0-0.636-0.119-0.803-0.358c-0.165-0.239-0.256-0.524-0.273-0.856
		c-0.413,0.358-0.766,0.626-1.059,0.799c-0.494,0.293-0.965,0.439-1.41,0.439c-0.467,0-0.871-0.164-1.213-0.492
		c-0.342-0.329-0.514-0.746-0.514-1.25C376.712,213.224,377.106,212.567,377.894,212.039z M380.883,211.119
		c-0.625,0.206-1.14,0.434-1.547,0.684c-0.782,0.483-1.173,1.032-1.173,1.645c0,0.494,0.163,0.858,0.489,1.092
		c0.211,0.152,0.447,0.228,0.708,0.228c0.358,0,0.702-0.1,1.031-0.301c0.328-0.201,0.492-0.456,0.492-0.767L380.883,211.119
		L380.883,211.119z"></path>
	<path fill="#010101" d="M388.872,208.146h3.438v0.228c-0.272,0.005-0.472,0.03-0.603,0.075c-0.25,0.072-0.375,0.213-0.375,0.425
		c0,0.077,0.013,0.156,0.04,0.237s0.076,0.202,0.148,0.363l1.884,4.077l1.552-4.11c0.017-0.045,0.042-0.144,0.078-0.3
		c0.035-0.156,0.052-0.262,0.052-0.317c0-0.144-0.048-0.25-0.146-0.317c-0.098-0.066-0.224-0.105-0.376-0.116l-0.252-0.016v-0.228
		h2.24v0.228c-0.223,0.027-0.389,0.106-0.501,0.235c-0.111,0.129-0.207,0.308-0.289,0.539l-2.567,6.794
		c-0.445,1.173-0.871,2.022-1.278,2.549s-0.923,0.791-1.548,0.791c-0.304,0-0.59-0.076-0.856-0.228s-0.399-0.394-0.399-0.726
		c0-0.217,0.079-0.394,0.238-0.533c0.157-0.138,0.357-0.207,0.598-0.207c0.14,0,0.348,0.051,0.623,0.154
		c0.277,0.103,0.474,0.155,0.592,0.155c0.301,0,0.617-0.368,0.949-1.106s0.499-1.225,0.499-1.461c0-0.048-0.008-0.108-0.023-0.177
		c-0.015-0.07-0.034-0.131-0.054-0.186l-2.568-5.55c-0.185-0.402-0.345-0.667-0.484-0.795c-0.138-0.127-0.343-0.21-0.615-0.248
		v-0.229H388.872z"></path>
	<path fill="#010101" d="M410.156,204.667c0.635,0.179,0.991,0.268,1.068,0.268c0.156,0,0.306-0.042,0.448-0.13
		c0.141-0.086,0.239-0.222,0.293-0.406h0.35l0.155,3.747h-0.383c-0.223-0.744-0.513-1.345-0.871-1.801
		c-0.684-0.858-1.605-1.287-2.761-1.287c-1.169,0-2.122,0.462-2.864,1.385c-0.741,0.923-1.111,2.194-1.111,3.812
		c0,1.488,0.389,2.676,1.169,3.564c0.779,0.888,1.766,1.333,2.961,1.333c0.863,0,1.659-0.206,2.387-0.619
		c0.417-0.234,0.877-0.587,1.376-1.06l0.31,0.311c-0.369,0.467-0.829,0.877-1.377,1.23c-0.934,0.597-1.946,0.896-3.038,0.896
		c-1.792,0-3.215-0.572-4.268-1.719c-0.972-1.058-1.459-2.381-1.459-3.967c0-1.624,0.514-2.987,1.54-4.089
		c1.081-1.157,2.487-1.735,4.22-1.735C408.902,204.399,409.521,204.488,410.156,204.667z"></path>
	<path fill="#010101" d="M415.19,209.111c0.686-0.746,1.571-1.12,2.651-1.12c1.075,0,1.966,0.353,2.672,1.059
		s1.059,1.645,1.059,2.819c0,1.081-0.342,2.02-1.026,2.819s-1.569,1.197-2.656,1.197c-1.043,0-1.926-0.382-2.647-1.148
		c-0.723-0.766-1.084-1.727-1.084-2.884C414.16,210.771,414.503,209.858,415.19,209.111z M416.491,208.903
		c-0.544,0.494-0.816,1.347-0.816,2.558c0,0.967,0.219,1.868,0.657,2.704c0.438,0.836,1.046,1.255,1.824,1.255
		c0.609,0,1.079-0.279,1.408-0.84c0.329-0.558,0.494-1.291,0.494-2.198c0-0.939-0.21-1.825-0.629-2.657
		c-0.418-0.83-1.025-1.246-1.819-1.246C417.179,208.48,416.807,208.621,416.491,208.903z"></path>
	<path fill="#010101" d="M422.83,215.42c0.424-0.038,0.705-0.109,0.847-0.212c0.216-0.157,0.326-0.472,0.326-0.945v-4.212
		c0-0.401-0.053-0.665-0.16-0.79c-0.105-0.125-0.281-0.188-0.525-0.188c-0.115,0-0.2,0.007-0.257,0.017
		c-0.056,0.011-0.124,0.029-0.199,0.056v-0.285l0.587-0.196c0.211-0.071,0.558-0.199,1.043-0.383
		c0.482-0.185,0.737-0.277,0.765-0.277c0.027,0,0.043,0.014,0.05,0.041c0.004,0.027,0.008,0.078,0.008,0.154v1.099
		c0.538-0.489,1.003-0.827,1.394-1.013c0.391-0.188,0.792-0.281,1.206-0.281c0.558,0,1.004,0.19,1.336,0.57
		c0.173,0.206,0.317,0.487,0.431,0.84c0.402-0.408,0.752-0.709,1.05-0.905c0.516-0.337,1.043-0.505,1.581-0.505
		c0.873,0,1.458,0.356,1.751,1.067c0.168,0.403,0.252,1.038,0.252,1.907v3.38c0,0.386,0.086,0.647,0.257,0.786
		c0.171,0.138,0.479,0.229,0.924,0.273v0.212h-3.673v-0.228c0.471-0.043,0.783-0.139,0.932-0.285
		c0.15-0.148,0.224-0.445,0.224-0.897v-3.51c0-0.527-0.056-0.915-0.171-1.164c-0.201-0.445-0.594-0.669-1.181-0.669
		c-0.354,0-0.704,0.117-1.051,0.351c-0.201,0.136-0.447,0.353-0.741,0.652v4.171c0,0.44,0.077,0.774,0.231,1.003
		c0.155,0.228,0.482,0.35,0.982,0.366v0.212h-3.74v-0.212c0.516-0.065,0.845-0.19,0.986-0.375s0.212-0.641,0.212-1.369V211.4
		c0-0.834-0.054-1.409-0.163-1.723c-0.179-0.532-0.559-0.799-1.14-0.799c-0.331,0-0.657,0.091-0.978,0.274
		c-0.32,0.181-0.603,0.419-0.847,0.713v4.455c0,0.414,0.072,0.698,0.216,0.856c0.143,0.157,0.457,0.239,0.941,0.244v0.212h-3.706
		L422.83,215.42L422.83,215.42z"></path>
	<path fill="#010101" d="M438.604,208.089v5.213c0,0.369,0.051,0.666,0.154,0.887c0.201,0.414,0.57,0.619,1.108,0.619
		c0.369,0,0.73-0.122,1.084-0.366c0.2-0.136,0.404-0.323,0.61-0.562v-4.464c0-0.418-0.081-0.693-0.244-0.823
		s-0.489-0.209-0.978-0.237v-0.268h2.632v5.735c0,0.369,0.066,0.623,0.199,0.761c0.134,0.139,0.414,0.2,0.844,0.184v0.228
		c-0.3,0.081-0.519,0.142-0.66,0.184c-0.141,0.04-0.378,0.115-0.708,0.224c-0.142,0.049-0.452,0.166-0.93,0.35
		c-0.027,0-0.043-0.012-0.048-0.036c-0.007-0.025-0.009-0.053-0.009-0.086v-1.312c-0.369,0.441-0.706,0.767-1.01,0.978
		c-0.462,0.326-0.95,0.489-1.466,0.489c-0.472,0-0.918-0.168-1.336-0.505c-0.424-0.331-0.635-0.89-0.635-1.673v-4.233
		c0-0.431-0.092-0.719-0.277-0.865c-0.119-0.092-0.375-0.156-0.766-0.194v-0.228H438.604z"></path>
	<path fill="#010101" d="M445.148,215.404c0.384-0.049,0.655-0.146,0.81-0.289c0.154-0.144,0.232-0.466,0.232-0.966v-4.138
		c0-0.344-0.033-0.588-0.098-0.728c-0.104-0.204-0.316-0.307-0.636-0.307c-0.048,0-0.099,0.003-0.15,0.009
		c-0.052,0.005-0.116,0.014-0.191,0.024v-0.285c0.222-0.065,0.749-0.234,1.579-0.505l0.767-0.253c0.037,0,0.061,0.014,0.068,0.041
		c0.009,0.027,0.012,0.065,0.012,0.114v1.198c0.5-0.467,0.89-0.787,1.172-0.962c0.422-0.265,0.861-0.399,1.316-0.399
		c0.369,0,0.705,0.105,1.009,0.318c0.584,0.413,0.878,1.148,0.878,2.207v3.804c0,0.391,0.078,0.674,0.235,0.847
		c0.156,0.175,0.417,0.264,0.784,0.269v0.228h-3.479v-0.228c0.396-0.054,0.673-0.164,0.831-0.33c0.158-0.165,0.237-0.526,0.237-1.08
		v-3.478c0-0.467-0.087-0.854-0.26-1.161c-0.173-0.306-0.492-0.459-0.956-0.459c-0.319,0-0.643,0.109-0.972,0.326
		c-0.184,0.125-0.421,0.331-0.713,0.619v4.562c0,0.391,0.086,0.653,0.261,0.785c0.173,0.134,0.447,0.205,0.822,0.216v0.228h-3.559
		v-0.227H445.148z"></path>
	<path fill="#010101" d="M453.998,215.404c0.581-0.054,0.947-0.153,1.099-0.298c0.152-0.143,0.228-0.533,0.228-1.169v-3.886
		c0-0.352-0.024-0.596-0.073-0.732c-0.081-0.223-0.253-0.335-0.514-0.335c-0.06,0-0.117,0.005-0.175,0.016
		c-0.056,0.011-0.222,0.054-0.492,0.13v-0.253l0.35-0.113c0.95-0.311,1.613-0.543,1.988-0.702c0.152-0.065,0.25-0.098,0.293-0.098
		c0.011,0.039,0.016,0.079,0.016,0.123v5.849c0,0.619,0.075,1.008,0.224,1.164c0.15,0.159,0.488,0.258,1.014,0.302v0.228h-3.959
		v-0.226H453.998z M455.293,204.511c0.163-0.167,0.364-0.251,0.604-0.251c0.232,0,0.432,0.083,0.598,0.248
		c0.165,0.164,0.249,0.366,0.249,0.604c0,0.232-0.084,0.431-0.249,0.595c-0.166,0.165-0.366,0.248-0.598,0.248
		c-0.24,0-0.441-0.083-0.604-0.248c-0.163-0.164-0.243-0.363-0.243-0.595C455.049,204.879,455.13,204.679,455.293,204.511z"></path>
	<path fill="#010101" d="M464.693,208.474c0.491,0.349,0.736,0.732,0.736,1.148c0,0.179-0.062,0.345-0.187,0.5
		c-0.125,0.154-0.317,0.231-0.578,0.231c-0.191,0-0.357-0.065-0.502-0.195c-0.143-0.13-0.248-0.32-0.313-0.57l-0.098-0.391
		c-0.072-0.288-0.193-0.491-0.367-0.611c-0.179-0.113-0.415-0.171-0.708-0.171c-0.619,0-1.143,0.27-1.568,0.811
		c-0.427,0.541-0.64,1.261-0.64,2.158c0,0.821,0.235,1.558,0.705,2.21c0.469,0.653,1.104,0.979,1.902,0.979
		c0.565,0,1.068-0.185,1.506-0.555c0.25-0.212,0.532-0.55,0.847-1.012l0.228,0.139c-0.308,0.653-0.634,1.169-0.978,1.549
		c-0.657,0.729-1.416,1.093-2.281,1.093c-0.847,0-1.597-0.333-2.248-1.001c-0.652-0.668-0.978-1.575-0.978-2.721
		c0-1.124,0.356-2.091,1.068-2.9c0.711-0.809,1.61-1.213,2.697-1.213C463.616,207.951,464.201,208.124,464.693,208.474z"></path>
	<path fill="#010101" d="M468.472,212.039c0.5-0.326,1.496-0.768,2.989-1.327v-0.693c0-0.554-0.054-0.938-0.163-1.156
		c-0.185-0.364-0.567-0.546-1.148-0.546c-0.277,0-0.541,0.071-0.79,0.212c-0.251,0.147-0.376,0.348-0.376,0.603
		c0,0.065,0.014,0.175,0.041,0.33c0.027,0.154,0.041,0.254,0.041,0.297c0,0.305-0.101,0.517-0.302,0.636
		c-0.114,0.071-0.25,0.105-0.407,0.105c-0.244,0-0.431-0.08-0.562-0.24c-0.13-0.161-0.195-0.339-0.195-0.534
		c0-0.379,0.235-0.778,0.704-1.193c0.47-0.416,1.158-0.623,2.066-0.623c1.052,0,1.767,0.342,2.142,1.026
		c0.201,0.375,0.302,0.92,0.302,1.637v3.267c0,0.315,0.021,0.532,0.065,0.652c0.07,0.212,0.216,0.317,0.439,0.317
		c0.125,0,0.228-0.018,0.311-0.056c0.08-0.038,0.222-0.13,0.424-0.277v0.424c-0.175,0.212-0.362,0.386-0.563,0.521
		c-0.304,0.206-0.614,0.31-0.929,0.31c-0.369,0-0.636-0.119-0.803-0.358c-0.165-0.239-0.256-0.524-0.273-0.856
		c-0.413,0.358-0.766,0.626-1.059,0.799c-0.494,0.293-0.964,0.439-1.41,0.439c-0.467,0-0.871-0.164-1.213-0.492
		c-0.342-0.329-0.514-0.746-0.514-1.25C467.29,213.224,467.684,212.567,468.472,212.039z M471.461,211.119
		c-0.625,0.206-1.14,0.434-1.547,0.684c-0.782,0.483-1.173,1.032-1.173,1.645c0,0.494,0.163,0.858,0.489,1.092
		c0.211,0.152,0.447,0.228,0.708,0.228c0.358,0,0.702-0.1,1.031-0.301c0.328-0.201,0.492-0.456,0.492-0.767L471.461,211.119
		L471.461,211.119z"></path>
	<path fill="#010101" d="M480.47,208.474c0.491,0.349,0.736,0.732,0.736,1.148c0,0.179-0.062,0.345-0.187,0.5
		c-0.125,0.154-0.317,0.231-0.578,0.231c-0.191,0-0.357-0.065-0.502-0.195c-0.143-0.13-0.248-0.32-0.313-0.57l-0.098-0.391
		c-0.072-0.288-0.193-0.491-0.367-0.611c-0.179-0.113-0.415-0.171-0.708-0.171c-0.619,0-1.143,0.27-1.568,0.811
		c-0.427,0.541-0.64,1.261-0.64,2.158c0,0.821,0.235,1.558,0.705,2.21c0.469,0.653,1.104,0.979,1.902,0.979
		c0.565,0,1.068-0.185,1.506-0.555c0.25-0.212,0.532-0.55,0.847-1.012l0.228,0.139c-0.308,0.653-0.634,1.169-0.978,1.549
		c-0.657,0.729-1.416,1.093-2.281,1.093c-0.847,0-1.597-0.333-2.248-1.001c-0.652-0.668-0.978-1.575-0.978-2.721
		c0-1.124,0.356-2.091,1.068-2.9c0.711-0.809,1.61-1.213,2.697-1.213C479.393,207.951,479.978,208.124,480.47,208.474z"></path>
	<path fill="#010101" d="M482.783,215.404c0.581-0.054,0.947-0.153,1.099-0.298c0.152-0.143,0.228-0.533,0.228-1.169v-3.886
		c0-0.352-0.024-0.596-0.073-0.732c-0.081-0.223-0.253-0.335-0.514-0.335c-0.06,0-0.117,0.005-0.175,0.016
		c-0.056,0.011-0.222,0.054-0.492,0.13v-0.253l0.35-0.113c0.95-0.311,1.613-0.543,1.988-0.702c0.152-0.065,0.25-0.098,0.293-0.098
		c0.011,0.039,0.016,0.079,0.016,0.123v5.849c0,0.619,0.075,1.008,0.224,1.164c0.15,0.159,0.488,0.258,1.014,0.302v0.228h-3.959
		v-0.226H482.783z M484.077,204.511c0.163-0.167,0.364-0.251,0.604-0.251c0.232,0,0.432,0.083,0.598,0.248
		c0.165,0.164,0.249,0.366,0.249,0.604c0,0.232-0.084,0.431-0.249,0.595c-0.166,0.165-0.366,0.248-0.598,0.248
		c-0.24,0-0.441-0.083-0.604-0.248c-0.163-0.164-0.243-0.363-0.243-0.595C483.834,204.879,483.915,204.679,484.077,204.511z"></path>
	<path fill="#010101" d="M489.03,209.111c0.686-0.746,1.571-1.12,2.651-1.12c1.075,0,1.966,0.353,2.672,1.059
		c0.706,0.706,1.059,1.645,1.059,2.819c0,1.081-0.342,2.02-1.026,2.819s-1.569,1.197-2.656,1.197c-1.043,0-1.926-0.382-2.647-1.148
		c-0.723-0.766-1.084-1.727-1.084-2.884C488,210.771,488.343,209.858,489.03,209.111z M490.33,208.903
		c-0.544,0.494-0.816,1.347-0.816,2.558c0,0.967,0.219,1.868,0.657,2.704c0.438,0.836,1.046,1.255,1.824,1.255
		c0.609,0,1.079-0.279,1.408-0.84c0.329-0.558,0.494-1.291,0.494-2.198c0-0.939-0.21-1.825-0.629-2.657
		c-0.418-0.83-1.025-1.246-1.819-1.246C491.019,208.48,490.646,208.621,490.33,208.903z M494.199,205.238
		c-0.088,0.103-0.215,0.21-0.383,0.317l-2.567,1.622h-0.676l2.452-2.469c0.086-0.086,0.195-0.176,0.326-0.268
		c0.13-0.092,0.268-0.138,0.415-0.138c0.141,0,0.27,0.05,0.387,0.15c0.117,0.101,0.176,0.232,0.176,0.395
		C494.33,205.004,494.285,205.134,494.199,205.238z"></path>
	<path fill="#010101" d="M496.703,215.404c0.384-0.049,0.655-0.146,0.81-0.289c0.154-0.144,0.232-0.466,0.232-0.966v-4.138
		c0-0.344-0.033-0.588-0.098-0.728c-0.104-0.204-0.316-0.307-0.636-0.307c-0.048,0-0.099,0.003-0.15,0.009
		c-0.052,0.005-0.116,0.014-0.191,0.024v-0.285c0.222-0.065,0.749-0.234,1.579-0.505l0.767-0.253c0.037,0,0.061,0.014,0.068,0.041
		c0.009,0.027,0.012,0.065,0.012,0.114v1.198c0.5-0.467,0.89-0.787,1.172-0.962c0.423-0.265,0.861-0.399,1.316-0.399
		c0.369,0,0.705,0.105,1.009,0.318c0.584,0.413,0.878,1.148,0.878,2.207v3.804c0,0.391,0.078,0.674,0.235,0.847
		c0.156,0.175,0.417,0.264,0.784,0.269v0.228h-3.479v-0.228c0.396-0.054,0.673-0.164,0.831-0.33c0.158-0.165,0.237-0.526,0.237-1.08
		v-3.478c0-0.467-0.087-0.854-0.26-1.161c-0.173-0.306-0.492-0.459-0.956-0.459c-0.319,0-0.643,0.109-0.972,0.326
		c-0.184,0.125-0.421,0.331-0.713,0.619v4.562c0,0.391,0.086,0.653,0.261,0.785c0.173,0.134,0.447,0.205,0.822,0.216v0.228h-3.559
		v-0.227H496.703z"></path>
</g>
</svg>
