<?xml version="1.0"?>

<!-- Generator: Adobe Illustrator 19.1.0, SVG Export Plug-In . SVG Version: 6.00 Build 0)  -->
<svg version="1.1" id="Layer_1" xmlns="http://www.w3.org/2000/svg" xmlns:xlink="http://www.w3.org/1999/xlink" x="0px" y="0px" width="800px" height="300px" viewBox="0 0 800 300" enable-background="new 0 0 800 300" xml:space="preserve">
<g>
	<path d="M339.654,266.787c-0.359,0.019-0.719,0.037-1.078,0.057c-0.556,0.031-1.054,0.073-1.167-0.723
		c-0.125-0.881,0.481-0.829,0.986-0.892c4.401-0.548,8.807-1.056,13.205-1.623c11.411-1.472,22.83-2.89,34.225-4.475
		c14.776-2.055,29.526-4.289,44.253-6.672c18.387-2.976,36.732-6.182,55.026-9.686c20.823-3.989,41.56-8.369,62.155-13.407
		c25.476-6.232,50.718-13.255,75.226-22.698c9.332-3.596,18.486-7.597,27.307-12.327c1.961-1.051,3.844-2.22,5.348-3.902
		c1.679-1.878,1.72-3.725,0.025-5.599c-2.318-2.562-5.398-3.947-8.5-5.23c-9.454-3.91-19.389-6.141-29.364-8.168
		c-20.623-4.192-41.462-6.988-62.348-9.472c-24.166-2.874-48.394-5.108-72.648-7.058c-18.637-1.499-37.291-2.766-55.958-3.835
		c-13.939-0.799-27.88-1.568-41.835-2.052c-16.469-0.572-32.939-1.15-49.41-1.668c-8.387-0.264-16.777-0.4-25.166-0.603
		c-16.537-0.4-33.074-0.827-49.611-1.203c-8.991-0.205-17.984-0.302-26.975-0.495c-17.439-0.374-34.878-0.772-52.316-1.178
		c-9.587-0.223-19.173-0.488-28.76-0.722c-19.6-0.479-39.156-1.552-58.62-4.058c-11.53-1.485-23.057-2.945-34.337-5.864
		c-3.014-0.78-5.991-1.694-8.764-3.152c-0.74-0.389-1.483-0.796-2.152-1.293c-2.821-2.094-2.933-4.799-0.227-7.043
		c3.293-2.731,7.277-4.111,11.253-5.437c11.275-3.759,22.898-6.086,34.548-8.298c16.545-3.142,33.205-5.551,49.889-7.805
		c1.721-0.233,3.446-0.448,5.174-0.621c0.55-0.055,1.305-0.585,1.504,0.569c0.182,1.059-0.515,1.003-1.16,1.125
		c-6.179,1.168-12.35,2.372-18.534,3.511c-14.191,2.612-28.482,4.734-42.405,8.654c-2.481,0.698-4.933,1.502-7.2,2.757
		c-0.875,0.484-2.055,0.933-2.06,2.056c-0.005,1.149,1.208,1.561,2.097,1.991c3.861,1.868,8.018,2.804,12.191,3.601
		c17.443,3.329,35.046,5.402,52.759,6.569c17.402,1.146,34.829,1.722,52.257,2.267c16.054,0.502,32.108,0.99,48.164,1.437
		c18.273,0.509,36.547,0.968,54.821,1.447c13.78,0.361,27.56,0.709,41.34,1.083c17.255,0.468,34.51,0.929,51.763,1.447
		c14.556,0.437,29.112,0.91,43.665,1.439c22.097,0.804,44.196,1.581,66.286,2.539c18.137,0.787,36.27,1.706,54.392,2.778
		c19.98,1.182,39.943,2.641,59.875,4.503c18.442,1.723,36.85,3.712,55.143,6.627c15.085,2.404,30.115,5.123,44.552,10.341
		c4.631,1.674,9.137,3.635,13.06,6.682c2.988,2.32,5.289,5.064,5.032,9.2c-0.152,2.458-1.302,4.459-2.8,6.292
		c-3.663,4.479-8.324,7.736-13.261,10.624c-10.655,6.233-22.138,10.543-33.809,14.386c-19.416,6.392-39.25,11.201-59.223,15.456
		c-26.138,5.569-52.461,10.11-78.877,14.142c-20.733,3.164-41.508,6.005-62.314,8.646c-21.344,2.709-42.718,5.152-64.114,7.401
		c-19.311,2.03-38.635,3.943-57.987,5.556c-8.182,0.682-16.361,1.414-24.541,2.123C339.656,266.817,339.655,266.802,339.654,266.787
		z"></path>
	<path fill="#141414" d="M476.821,93.784c0.276-3.032,0.54-5.916,0.801-8.8c1.513-16.712,3.746-33.339,5.823-49.985
		c0.136-1.087,0.638-1.195,1.529-1.192c7.559,0.024,15.118,0.041,22.677-0.014c1.22-0.009,1.51,0.315,1.344,1.506
		c-0.938,6.704-1.813,13.417-2.702,20.128c-1.621,12.234-3.24,24.469-4.855,36.704c-1.004,7.602-2.024,15.203-2.979,22.811
		c-0.163,1.298-0.604,1.724-1.983,1.716c-11.638-0.065-23.277-0.04-34.915-0.033c-0.9,0.001-1.68,0.089-2.177-1.03
		c-8.121-18.31-16.413-36.547-23.362-55.352c-0.448-1.212-0.652-2.528-1.384-3.608c-0.732,0.119-0.525,0.656-0.554,1.007
		c-1.585,19.117-4.119,38.125-6.494,57.151c-0.166,1.333-0.514,1.895-2.048,1.874c-7.378-0.101-14.758-0.067-22.136-0.024
		c-1.179,0.007-1.631-0.086-1.434-1.527c2.222-16.264,4.363-32.539,6.511-48.813c1.372-10.394,2.732-20.79,4.057-31.19
		c0.122-0.954,0.401-1.317,1.424-1.314c12.058,0.034,24.117,0.033,36.175,0.001c0.883-0.002,1.242,0.368,1.567,1.094
		c8.485,18.993,17.143,37.913,24.127,57.535C476.004,92.91,476.036,93.46,476.821,93.784z"></path>
	<path fill="#141414" d="M201.811,94.869c1.178-0.013,1.792,0.257,2.227,1.439c1.258,3.423,3.946,5.407,7.333,6.31
		c7.607,2.03,15.067,1.357,22.321-1.66c1.118-0.465,2.065-1.199,2.898-2.083c2.711-2.874,2.45-6.425-0.663-8.883
		c-1.963-1.55-4.275-2.398-6.603-3.162c-9.594-3.151-19.228-6.183-28.799-9.403c-5.682-1.912-11.15-4.363-16.013-7.944
		c-5.34-3.931-8.275-8.976-6.651-15.819c1.105-4.655,4.042-8.084,7.867-10.792c5.667-4.013,12.097-6.291,18.792-7.723
		c17.353-3.709,34.807-4.327,52.278-0.877c6.695,1.322,13.039,3.657,18.216,8.366c2.868,2.609,4.776,5.792,5.442,9.676
		c0.18,1.048-0.098,1.316-1.155,1.328c-10.368,0.122-21.392,0.406-31.759,0.566c-0.36,0.006-2.897-0.26-3.692-1.846
		c-1.731-3.454-5.027-4.857-8.648-5.386c-4.925-0.719-9.808-0.372-14.542,1.257c-2.587,0.89-4.985,2.211-5.237,5.274
		c-0.247,3.008,1.928,4.651,4.262,5.883c5.164,2.723,10.775,4.251,16.365,5.789c9.395,2.584,18.864,4.939,27.773,9.01
		c3.451,1.577,6.647,3.581,9.324,6.307c4.885,4.975,5.72,11.182,2.31,17.28c-3.444,6.157-9.033,9.787-15.228,12.609
		c-8.694,3.962-17.912,5.987-27.363,7.001c-10.882,1.168-21.781,1.168-32.662-0.007c-7.827-0.846-15.517-2.326-22.572-6.068
		c-5.692-3.019-9.962-7.196-11.189-13.864c-0.248-1.348-0.027-2.707,1.41-2.684C173.544,94.853,196.184,94.933,201.811,94.869z"></path>
	<path d="M604.696,38.851c-7.909-3.294-16.25-4.608-24.712-4.851c-10.367-0.298-20.746-0.149-31.12-0.177
		c-6.537-0.017-13.074,0-19.611-0.008c-0.798-0.001-1.413-0.088-1.564,1.099c-1.497,11.702-3.078,23.394-4.625,35.09
		c-1.986,15.02-3.941,30.045-5.983,45.057c-0.184,1.354,0.113,1.591,1.382,1.584c8.936-0.048,17.872-0.026,26.808-0.026
		c6.357,0,12.716,0.09,19.071-0.022c9.002-0.158,17.937-0.977,26.618-3.557c11.59-3.444,21.064-9.664,26.733-20.736
		c3.723-7.271,5.378-15.11,5.672-23.19C623.862,55.48,618.908,44.772,604.696,38.851z M590.981,87.257
		c-3.953,8.727-11.177,12.913-20.326,14.31c-4.22,0.644-8.47,0.71-12.023,0.652c-3.942,0-7.185-0.114-10.415,0.047
		c-1.676,0.083-1.54-0.707-1.392-1.817c1.107-8.31,2.187-16.623,3.292-24.932c1.152-8.666,2.331-17.328,3.473-25.995
		c0.101-0.769,0.116-1.353,1.182-1.321c7.005,0.214,14.026-0.392,21.019,0.434c2.568,0.303,5.065,0.917,7.455,1.891
		c7.432,3.027,10.907,8.855,11.357,16.603C595.008,74.099,593.874,80.87,590.981,87.257z"></path>
	<path d="M394.158,64.997c-0.694-12.868-6.882-22.16-18.615-27.634c-8.999-4.198-18.616-5.141-27.87-5.29
		c-8.2,0.09-15.815,0.812-23.246,2.918c-11.295,3.202-20.851,8.97-27.489,18.922c-4.942,7.409-7.205,15.712-7.89,24.499
		c-0.509,6.529,0.025,12.934,2.725,18.998c4.235,9.511,11.964,14.991,21.615,17.752c16.135,4.617,32.35,4.267,48.324-0.774
		c11.423-3.605,20.56-10.416,26.387-21.133C392.887,84.449,394.694,74.934,394.158,64.997z M361.003,89.662
		c-6.416,12.594-19.534,15.973-30.43,12.961c-7.391-2.044-11.445-7.332-12.584-14.632c-1.587-10.169-0.032-19.998,5.075-29
		c6.035-10.639,19.117-15.264,30.669-11.154c7.033,2.502,10.389,7.884,11.611,14.914c0.329,1.894,0.435,3.808,0.429,5.731
		C365.585,75.855,364.39,83.013,361.003,89.662z"></path>
	<path d="M727.46,114.609c-8.127-26.392-16.268-52.78-24.343-79.188c-0.391-1.28-0.892-1.636-2.182-1.631
		c-11.514,0.051-23.029,0.059-34.544-0.009c-1.408-0.008-2.085,0.459-2.762,1.649c-10.712,18.832-21.479,37.633-32.233,56.441
		c-4.658,8.147-9.314,16.296-14.144,24.748c9.881,0,19.46-0.015,29.038,0.024c0.937,0.004,1.208-0.492,1.53-1.173
		c2.732-5.78,5.488-11.55,8.231-17.325c0.362-0.762,0.652-1.366,1.775-1.36c11.574,0.057,23.149,0.046,34.724,0.014
		c0.985-0.003,1.32,0.331,1.517,1.273c1.163,5.563,2.431,11.104,3.589,16.669c0.279,1.344,0.677,1.95,2.276,1.93
		c8.695-0.108,17.391-0.051,26.087-0.052C728.073,116.619,728.078,116.616,727.46,114.609z M689.255,82.482
		c-8.323-0.006-16.646-0.003-25.187-0.003c2.136-4.464,4.198-8.757,6.247-13.056c3.574-7.498,7.392-14.882,10.544-22.576
		c0.216-0.527,0.312-1.178,1.169-1.097c0.85,0.08,0.656,0.782,0.728,1.219c1.885,11.405,4.888,22.575,7.098,33.91
		C689.961,81.429,690.893,82.483,689.255,82.482z"></path>
	<g>
		<path d="M745.212,95.019c-6.009-0.009-10.624,4.507-10.675,10.446c-0.05,5.893,4.606,10.625,10.507,10.68
			c5.908,0.055,10.594-4.589,10.617-10.521C755.685,99.58,751.2,95.028,745.212,95.019z M745.15,114.579
			c-5.076,0.013-9.011-3.986-9.006-9.152c0.005-4.967,4.062-8.994,9.031-8.963c4.928,0.03,8.995,4.14,8.981,9.075
			C754.143,110.514,750.106,114.567,745.15,114.579z"></path>
		<path d="M749.735,101.835c-0.49-1.746-2.006-2.068-3.57-2.119c-1.377-0.045-2.759,0.039-4.134-0.037
			c-0.928-0.051-1.234,0.218-1.215,1.184c0.062,3.055,0.021,6.112,0.024,9.169c0.001,0.63-0.201,1.308,0.91,1.283
			c0.931-0.021,1.298-0.264,1.206-1.221c-0.074-0.772-0.027-1.557-0.008-2.336c0.009-0.388-0.097-0.781,0.5-0.971
			c2.229-0.71,4.12,0.462,4.364,2.778c0.038,0.356,0.036,0.716,0.049,1.075c0.032,0.897,0.717,0.584,1.193,0.635
			c0.465,0.05,0.755-0.016,0.75-0.652c-0.013-1.768,0.057-3.53-2.102-4.728C749.872,105.06,750.215,103.548,749.735,101.835z
			 M744.436,105.22c-1.497-0.002-1.497-0.002-1.495-2.102c0.039-0.982-0.428-2.147,1.445-2.02c2.552,0.173,3.474,0.598,3.428,2.127
			C747.771,104.645,746.794,105.223,744.436,105.22z"></path>
	</g>
</g>
</svg>
