<?xml version="1.0"?>

<svg xmlns="http://www.w3.org/2000/svg" height="186.82" width="888.16" viewBox="0 0 888.16 186.82">
  <path d="m 789.46,29.91 h 76.7 v 16.21 h -15.1 c -6.4,0 -11.7,2.22 -16,6.67 l -51.3,54.73 v 26.51 c 0,4.45 2.2,6.67 6.7,6.67 h 19 v 16.21 h -92.5 V 140.7 h 19.1 c 4.5,0 6.6,-2.22 6.6,-6.67 v -24.79 l -52.6,-56.45 c -4.3,-4.45 -9.6,-6.67 -16,-6.67 h -15 V 29.91 h 94.2 v 16.21 h -9.4 c -2.2,0 -3.7,0.79 -4.4,2.38 -0.6,1.59 -0.4,3.02 0.8,4.29 l 31.1,33.18 31.1,-33.18 c 1.1,-1.27 1.4,-2.7 0.7,-4.29 -0.6,-1.59 -2.1,-2.38 -4.4,-2.38 h -9.3 z m -169.3,127 h -26.2 L 489.67,67.67 v 66.36 c 0,4.45 2.23,6.67 6.66,6.67 h 19.09 v 16.21 h -78 V 140.7 h 19.07 c 4.45,0 6.67,-2.22 6.67,-6.67 V 52.79 c 0,-4.45 -2.22,-6.67 -6.67,-6.67 H 437.42 V 29.91 h 65.39 l 90.75,77.61 V 52.79 c 0,-4.45 -2.2,-6.67 -6.6,-6.67 h -19.1 V 29.91 h 78 v 16.21 h -19.1 c -4.5,0 -6.6,2.22 -6.6,6.67 z M 322.25,22 c -59.43,0 -98.78,30.59 -98.78,71.41 0,40.82 39.35,71.41 98.78,71.41 59.44,0 98.79,-30.59 98.79,-71.41 C 421.04,52.59 381.69,22 322.25,22 Z m 0,19.04 c 34.09,0 56.65,22.43 56.65,52.37 0,29.93 -22.56,52.37 -56.65,52.37 -34.08,0 -56.65,-22.44 -56.65,-52.37 0,-29.94 22.57,-52.37 56.65,-52.37 z M 170.17,28.4 h 16.21 V 71.29 H 170.17 C 162.09,44.7 121.92,40.72 96.73,40.72 c -22.03,0 -38.49,5.79 -38.49,16.98 0,12.93 30.99,13.3 56.05,16.69 32.27,4.37 79.33,3.62 79.33,45.8 0,33.28 -44.2,44.57 -71.88,44.63 -49.56,0.11 -64.94,-14.16 -76.28,-14.16 -3.15,0 -4.77,3.04 -4.77,9.12 H 24.48 v -48.13 h 16.21 c 6.09,29.01 50.69,35.33 69.49,35.33 13.32,0 47.6,-2.61 47.6,-18.45 0,-15.01 -22,-14.23 -48.72,-18.04 C 79.77,106.3 22,105.39 22,66.44 22,36.38 55.68,22 93.47,22 c 43.89,0 65.59,14.25 72.09,14.25 3.07,0 4.61,-2.82 4.61,-7.85 z"></path>

</svg>
