<?xml version="1.0"?>

<!-- Generator: Adobe Illustrator 19.1.0, SVG Export Plug-In . SVG Version: 6.00 Build 0)  -->
<svg version="1.1" id="Layer_1" xmlns="http://www.w3.org/2000/svg" xmlns:xlink="http://www.w3.org/1999/xlink" x="0px" y="0px" width="595.276px" height="115.5px" viewBox="0 0 595.276 115.5" enable-background="new 0 0 595.276 115.5" xml:space="preserve">
<g>
	<path d="M33.597,44.557c-3.656,0-6.8-1.146-9.427-3.439c-2.627-2.292-3.94-5.054-3.94-8.29c0-3.193,1.313-5.935,3.94-8.228
		c2.627-2.292,5.765-3.439,9.42-3.439h36.853v8.799H33.577c-0.938,0-1.721,0.28-2.355,0.839c-0.634,0.56-0.951,1.252-0.951,2.08
		c0,0.828,0.33,1.534,0.99,2.113c0.654,0.579,1.43,0.868,2.316,0.868h23.22c3.701,0,6.865,1.165,9.492,3.491
		c2.627,2.327,3.94,5.083,3.94,8.269c0,3.184-1.307,5.92-3.934,8.207c-2.62,2.287-5.777,3.43-9.478,3.43H20.229v-8.799h36.588
		c0.938,0,1.734-0.289,2.388-0.869c0.66-0.579,0.983-1.263,0.983-2.051c0-0.828-0.323-1.532-0.983-2.111
		c-0.654-0.579-1.455-0.87-2.394-0.87H33.597z"></path>
</g>
<g>
	<path d="M87.206,59.257c-3.655,0-6.793-1.148-9.42-3.446c-2.627-2.296-3.94-5.046-3.94-8.247V32.855c0-3.2,1.313-5.949,3.94-8.247
		c2.626-2.297,5.765-3.446,9.42-3.446h23.486c3.656,0,6.8,1.15,9.427,3.446c2.62,2.297,3.934,5.047,3.934,8.247v14.709
		c0,3.241-1.301,6.001-3.901,8.279c-2.601,2.277-5.752,3.414-9.46,3.414H87.206z M110.706,50.458c0.938,0,1.72-0.277,2.354-0.83
		c0.634-0.553,0.952-1.242,0.952-2.064V32.855c0-0.78-0.35-1.456-1.055-2.032c-0.706-0.575-1.456-0.862-2.251-0.862H87.2
		c-0.563,0-1.256,0.298-2.077,0.893c-0.821,0.595-1.236,1.263-1.236,2.001v14.709c0,0.78,0.356,1.457,1.055,2.032
		c0.705,0.575,1.456,0.862,2.258,0.862H110.706z"></path>
</g>
<g>
	<path d="M137.511,44.557v14.7h-10.042V21.161h33.463c3.707,0,6.871,1.147,9.491,3.439c2.627,2.293,3.94,5.078,3.94,8.351
		c0,3.193-1.326,5.926-3.973,8.197c-2.652,2.273-5.804,3.408-9.459,3.408H137.511z M137.511,29.96v5.798h23.434
		c0.841,0,1.617-0.285,2.323-0.855c0.699-0.57,1.055-1.26,1.055-2.075c0-0.773-0.33-1.444-0.984-2.013
		c-0.66-0.57-1.455-0.855-2.394-0.855H137.511z"></path>
</g>
<g>
	<path d="M191.069,59.257c-3.656,0-6.8-1.148-9.427-3.446c-2.62-2.296-3.933-5.046-3.933-8.247V32.855
		c0-3.2,1.313-5.949,3.933-8.247c2.627-2.297,5.771-3.446,9.427-3.446h23.486c3.655,0,6.793,1.15,9.42,3.446
		c2.627,2.297,3.94,5.047,3.94,8.247v14.709c0,3.241-1.3,6.001-3.901,8.279c-2.607,2.277-5.758,3.414-9.459,3.414H191.069z
		 M214.568,50.458c0.938,0,1.721-0.277,2.355-0.83c0.633-0.553,0.951-1.242,0.951-2.064V32.855c0-0.78-0.356-1.456-1.055-2.032
		c-0.706-0.575-1.456-0.862-2.252-0.862h-23.512c-0.563,0-1.255,0.298-2.077,0.893c-0.821,0.595-1.229,1.263-1.229,2.001v14.709
		c0,0.78,0.35,1.457,1.055,2.032c0.706,0.575,1.456,0.862,2.251,0.862H214.568z"></path>
</g>
<g>
	<path d="M231.325,21.161h32.725c3.707,0,6.878,1.147,9.505,3.437c2.627,2.292,3.939,5.033,3.939,8.224
		c0,1.352-0.213,2.611-0.633,3.775c-0.421,1.166-1.035,2.28-1.831,3.344c2.128,2.14,3.19,4.67,3.19,7.589v11.726h-10.042V47.522
		c0-0.741-0.284-1.399-0.847-1.977c-0.564-0.576-1.243-0.906-2.039-0.988h-23.926v14.7h-10.041V21.161z M264.386,29.96h-23.02v5.798
		h23.02c0.938,0,1.734-0.285,2.388-0.855c0.66-0.57,0.99-1.26,0.99-2.075c0-0.773-0.33-1.444-0.99-2.013
		C266.12,30.246,265.324,29.96,264.386,29.96z"></path>
</g>
<g>
	<path d="M281.564,29.96v-8.799h43.491v8.799h-16.783v29.296H298.23V29.96H281.564z"></path>
</g>
<g>
	<path d="M338.538,47.538c0,0.746,0.37,1.418,1.095,2.018c0.73,0.602,1.468,0.901,2.218,0.901h26.825v8.799H341.87
		c-3.66,0-6.806-1.148-9.432-3.446c-2.629-2.296-3.941-5.046-3.941-8.247V32.855c0-3.2,1.313-5.949,3.941-8.247
		c2.625-2.297,5.771-3.446,9.432-3.446h26.384v8.799h-26.403c-0.938,0-1.728,0.275-2.361,0.825c-0.633,0.55-0.952,1.231-0.952,2.043
		v2.93h28.521v8.799h-28.521V47.538z"></path>
</g>
<path d="M390.038,59.257c-3.657,0-6.8-1.148-9.428-3.446c-2.625-2.296-3.939-5.046-3.939-8.247V21.161h10.041v26.404
	c0,0.821,0.317,1.509,0.952,2.062c0.635,0.553,1.418,0.83,2.354,0.83h26.832v8.799H390.038z"></path>
<path d="M420.226,59.257V21.161h10.043v38.095H420.226z"></path>
<path d="M433.593,59.257V21.161h32.726c3.706,0,6.878,1.147,9.503,3.437c2.629,2.292,3.941,5.033,3.941,8.224
	c0,2.701-0.919,5.075-2.743,7.12c1.028,1.071,1.863,2.263,2.503,3.58c0.642,1.316,0.965,2.654,0.965,4.009
	c0,3.209-1.314,5.967-3.941,8.271c-2.62,2.303-5.783,3.455-9.491,3.455H433.593z M466.655,29.96h-23.02v5.798h23.02
	c0.938,0,1.735-0.285,2.388-0.855c0.659-0.57,0.989-1.26,0.989-2.075c0-0.773-0.33-1.444-0.989-2.013
	C468.389,30.246,467.592,29.96,466.655,29.96z M470.446,47.538c0-0.828-0.329-1.532-0.982-2.111c-0.654-0.579-1.45-0.87-2.388-0.87
	h-23.441v5.9h23.436c0.938,0,1.733-0.269,2.394-0.807C470.117,49.113,470.446,48.408,470.446,47.538z"></path>
<path d="M483.832,21.161h32.724c3.708,0,6.878,1.147,9.505,3.437c2.627,2.292,3.939,5.033,3.939,8.224
	c0,1.352-0.213,2.611-0.633,3.775c-0.42,1.166-1.035,2.28-1.832,3.344c2.13,2.14,3.19,4.67,3.19,7.589v11.726h-10.041V47.522
	c0-0.741-0.286-1.399-0.848-1.977c-0.564-0.576-1.243-0.906-2.038-0.988h-23.926v14.7h-10.041V21.161z M516.893,29.96h-23.02v5.798
	h23.02c0.938,0,1.733-0.285,2.387-0.855c0.661-0.57,0.989-1.26,0.989-2.075c0-0.773-0.328-1.444-0.989-2.013
	C518.626,30.246,517.831,29.96,516.893,29.96z"></path>
<path d="M544.112,47.538c0,0.746,0.369,1.418,1.093,2.018c0.732,0.602,1.469,0.901,2.22,0.901h26.823v8.799h-26.805
	c-3.662,0-6.806-1.148-9.433-3.446c-2.627-2.296-3.939-5.046-3.939-8.247V32.855c0-3.2,1.313-5.949,3.939-8.247
	c2.627-2.297,5.771-3.446,9.433-3.446h26.384v8.799h-26.403c-0.938,0-1.728,0.275-2.361,0.825c-0.635,0.55-0.952,1.231-0.952,2.043
	v2.93h28.519v8.799h-28.519V47.538z"></path>
<g>
	<path d="M31.636,75.568c-0.499-1.739-2.078-3.13-4.653-3.13c-2.326,0-3.71,0.993-3.738,2.783
		c-0.055,3.925,11.243,2.931,11.243,8.696c0,2.607-1.633,5.266-6.729,5.266c-4.376,0-6.092-2.534-7.145-4.671l2.022-0.646
		c0.803,1.89,2.299,3.628,5.234,3.628c2.936,0,4.403-1.393,4.403-3.23c0-4.573-11.244-3.23-11.244-8.895
		c0-2.584,2.41-4.62,6.01-4.62c3.102,0,5.539,1.466,6.592,4.422L31.636,75.568z"></path>
	<path d="M44.707,89.184c-3.933,0-5.899-2.981-5.899-6.709c0-3.726,1.966-6.707,5.899-6.707c3.933,0,5.899,2.981,5.899,6.707
		C50.606,86.203,48.639,89.184,44.707,89.184z M44.707,77.308c-2.382,0-3.904,1.839-3.904,5.168c0,3.33,1.523,5.169,3.904,5.169
		s3.905-1.839,3.905-5.169C48.611,79.146,47.088,77.308,44.707,77.308z"></path>
	<path d="M55.701,93.705V76.016h1.994v1.515h0.055c0.748-0.969,2.354-1.764,3.739-1.764c2.547,0,5.899,1.54,5.899,6.707
		c0,5.019-3.352,6.709-5.788,6.709c-1.358,0-2.687-0.622-3.795-1.441l-0.11-0.049v6.012H55.701z M57.696,85.855
		c1.079,1.067,2.436,1.789,3.628,1.789c2.326,0,4.07-1.368,4.07-5.269c0-3.278-1.579-5.067-4.07-5.067
		c-1.275,0-2.217,0.496-3.628,1.74V85.855z"></path>
	<path d="M77.22,89.184c-3.933,0-5.899-2.981-5.899-6.709c0-3.726,1.966-6.707,5.899-6.707c3.933,0,5.899,2.981,5.899,6.707
		C83.119,86.203,81.153,89.184,77.22,89.184z M77.22,77.308c-2.383,0-3.905,1.839-3.905,5.168c0,3.33,1.523,5.169,3.905,5.169
		c2.381,0,3.905-1.839,3.905-5.169C81.124,79.146,79.601,77.308,77.22,77.308z"></path>
	<path d="M87.715,76.016h1.994v2.559h0.055c1.108-1.765,2.299-2.758,4.681-2.758v1.788c-2.492,0.05-3.794,1.515-4.736,4.174v7.155
		h-1.994V76.016z"></path>
	<path d="M99.484,76.016v-4.249h1.994v4.249h3.322v1.54h-3.322v9.192c0,0.597,0.471,0.896,1.634,0.896
		c0.664,0,1.245-0.051,1.772-0.124v1.465c-0.361,0.099-1.164,0.199-2.327,0.199c-2.16,0-3.074-0.498-3.074-2.137v-9.49h-2.354v-1.54
		H99.484z"></path>
	<path d="M120.394,86.177c-0.942,1.467-2.271,3.006-5.539,3.006c-3.213,0-6.259-1.988-6.259-6.709c0-4.173,2.326-6.707,5.871-6.707
		c2.991,0,5.484,1.739,5.484,5.862v1.193h-9.36c0,2.832,1.884,4.82,4.265,4.82c1.772,0,3.157-0.846,3.988-2.187L120.394,86.177z
		 M117.957,81.284c0-2.386-1.274-3.976-3.434-3.976c-2.41,0-3.711,1.59-3.877,3.976H117.957z"></path>
	<path d="M145.955,86.177c-0.942,1.467-2.271,3.006-5.539,3.006c-3.213,0-6.259-1.988-6.259-6.709c0-4.173,2.326-6.707,5.871-6.707
		c2.991,0,5.484,1.739,5.484,5.862v1.193h-9.36c0,2.832,1.884,4.82,4.265,4.82c1.772,0,3.157-0.846,3.988-2.187L145.955,86.177z
		 M143.518,81.284c0-2.386-1.274-3.976-3.434-3.976c-2.41,0-3.711,1.59-3.877,3.976H143.518z"></path>
	<path d="M152.988,76.016v1.738h0.056c1.135-1.142,2.63-1.987,4.265-1.987c2.132,0,4.154,0.993,4.154,3.776v9.391h-1.993v-9.342
		c0-1.714-0.914-2.285-2.354-2.285c-1.496,0-3.213,1.094-4.127,1.964v9.664h-1.993V76.016H152.988z"></path>
	<path d="M188.049,75.568c-0.499-1.739-2.078-3.13-4.653-3.13c-2.326,0-3.71,0.993-3.738,2.783
		c-0.055,3.925,11.243,2.931,11.243,8.696c0,2.607-1.633,5.266-6.729,5.266c-4.376,0-6.093-2.534-7.145-4.671l2.021-0.646
		c0.804,1.89,2.299,3.628,5.235,3.628c2.936,0,4.403-1.393,4.403-3.23c0-4.573-11.244-3.23-11.244-8.895
		c0-2.584,2.41-4.62,6.009-4.62c3.102,0,5.539,1.466,6.591,4.422L188.049,75.568z"></path>
	<path d="M201.12,89.184c-3.933,0-5.899-2.981-5.899-6.709c0-3.726,1.966-6.707,5.899-6.707c3.933,0,5.899,2.981,5.899,6.707
		C207.019,86.203,205.053,89.184,201.12,89.184z M201.12,77.308c-2.383,0-3.905,1.839-3.905,5.168c0,3.33,1.522,5.169,3.905,5.169
		c2.381,0,3.904-1.839,3.904-5.169C205.025,79.146,203.501,77.308,201.12,77.308z"></path>
	<path d="M212.862,88.935V77.556h-2.437v-1.54h2.437V74.55c0-3.055,1.163-3.801,3.517-3.801c0.581,0,1.191,0.074,1.772,0.123v1.591
		c-0.471-0.049-0.997-0.175-1.439-0.175c-1.358,0-1.856,0.397-1.856,1.839v1.889h3.13v1.54h-3.13v11.379H212.862z"></path>
	<path d="M223.386,76.016v-4.249h1.994v4.249h3.323v1.54h-3.323v9.192c0,0.597,0.471,0.896,1.634,0.896
		c0.664,0,1.245-0.051,1.772-0.124v1.465c-0.361,0.099-1.164,0.199-2.327,0.199c-2.159,0-3.074-0.498-3.074-2.137v-9.49h-2.354
		v-1.54H223.386z"></path>
	<path d="M231.831,76.016h2.022l2.907,9.937h0.056l2.825-9.937h2.021l2.881,9.986h0.055l2.797-9.986h2.022l-3.849,12.919h-2.022
		l-2.88-9.988h-0.056l-2.852,9.988h-2.022L231.831,76.016z"></path>
	<path d="M253.073,78.5c0.913-1.491,2.686-2.732,5.4-2.732c2.437,0,4.986,1.043,4.986,3.875v6.51c0,1.416,0.138,2.112,0.332,2.783
		h-2.05l-0.221-1.789c-0.997,0.994-2.604,2.038-4.764,2.038c-2.216,0-4.098-1.193-4.098-3.553c0-2.833,2.41-4.248,8.807-5.266
		v-0.696c0-1.714-1.247-2.36-2.963-2.36c-2.216,0-3.296,1.143-3.684,2.013L253.073,78.5z M261.464,81.953
		c-4.569,0.72-6.813,1.913-6.813,3.702c0,1.192,1.275,1.988,2.383,1.988c1.439,0,3.268-0.945,4.431-2.137V81.953z"></path>
	<path d="M268.913,76.016h1.994v2.559h0.055c1.107-1.765,2.299-2.758,4.68-2.758v1.788c-2.492,0.05-3.794,1.515-4.735,4.174v7.155
		h-1.994V76.016z"></path>
	<path d="M290.735,86.177c-0.94,1.467-2.27,3.006-5.538,3.006c-3.213,0-6.259-1.988-6.259-6.709c0-4.173,2.326-6.707,5.871-6.707
		c2.991,0,5.483,1.739,5.483,5.862v1.193h-9.36c0,2.832,1.883,4.82,4.265,4.82c1.772,0,3.157-0.846,3.988-2.187L290.735,86.177z
		 M288.299,81.284c0-2.386-1.274-3.976-3.434-3.976c-2.41,0-3.711,1.59-3.877,3.976H288.299z"></path>
	<path d="M306.384,88.935V70.998h2.213v16.247h9.472v1.69H306.384z"></path>
	<path d="M325.269,70.749v2.137h-1.993v-2.137H325.269z M323.276,76.016h1.993v12.919h-1.993V76.016z"></path>
	<path d="M334.187,70.998v6.261l0.111-0.05c1.108-0.82,2.438-1.44,3.795-1.44c2.436,0,5.788,1.689,5.788,6.707
		c0,5.169-3.352,6.709-5.899,6.709c-1.718,0-2.991-0.646-4.154-1.615l-0.361,1.366h-1.384c0.165-0.945,0.111-1.889,0.111-2.834
		V70.998H334.187z M334.187,85.904c1.413,1.242,2.354,1.74,3.628,1.74c2.492,0,4.072-1.789,4.072-5.069
		c0-3.901-1.745-5.267-4.072-5.267c-1.192,0-2.547,0.72-3.628,1.789V85.904z"></path>
	<path d="M348.727,76.016h1.993v2.559h0.056c1.106-1.765,2.298-2.758,4.678-2.758v1.788c-2.491,0.05-3.793,1.515-4.734,4.174v7.155
		h-1.993V76.016z"></path>
	<path d="M370.549,86.177c-0.941,1.467-2.271,3.006-5.54,3.006c-3.211,0-6.258-1.988-6.258-6.709c0-4.173,2.326-6.707,5.87-6.707
		c2.993,0,5.485,1.739,5.485,5.862v1.193h-9.36c0,2.832,1.883,4.82,4.263,4.82c1.774,0,3.158-0.846,3.989-2.187L370.549,86.177z
		 M368.111,81.284c0-2.386-1.273-3.976-3.432-3.976c-2.411,0-3.711,1.59-3.878,3.976H368.111z"></path>
	<path d="M395.057,76.016l-5.066,14.061c-1.052,2.882-2.964,3.628-4.849,3.628c-0.664,0-1.05-0.1-1.439-0.15v-1.465
		c0.278,0.024,0.637,0.075,1.079,0.075c1.219,0,3.075-0.249,3.767-3.082l-5.014-13.067h2.106l3.876,9.862h0.056l3.378-9.862H395.057
		z"></path>
	<path d="M416.436,70.749c4.903,0,7.811,3.229,7.811,9.218c0,5.987-2.908,9.217-7.811,9.217c-4.901,0-7.809-3.23-7.809-9.217
		C408.627,73.978,411.535,70.749,416.436,70.749z M416.436,87.494c3.517,0,5.594-2.435,5.594-7.527c0-5.094-2.077-7.528-5.594-7.528
		c-3.517,0-5.594,2.435-5.594,7.528C410.842,85.06,412.919,87.494,416.436,87.494z"></path>
	<path d="M429.758,93.705V76.016h1.994v1.515h0.056c0.747-0.969,2.354-1.764,3.738-1.764c2.547,0,5.899,1.54,5.899,6.707
		c0,5.019-3.352,6.709-5.788,6.709c-1.359,0-2.686-0.622-3.795-1.441l-0.111-0.049v6.012H429.758z M431.751,85.855
		c1.079,1.067,2.438,1.789,3.63,1.789c2.326,0,4.069-1.368,4.069-5.269c0-3.278-1.578-5.067-4.069-5.067
		c-1.275,0-2.217,0.496-3.63,1.74V85.855z"></path>
	<path d="M457.257,86.177c-0.94,1.467-2.271,3.006-5.536,3.006c-3.214,0-6.261-1.988-6.261-6.709c0-4.173,2.329-6.707,5.873-6.707
		c2.989,0,5.482,1.739,5.482,5.862v1.193h-9.36c0,2.832,1.883,4.82,4.266,4.82c1.771,0,3.156-0.846,3.987-2.187L457.257,86.177z
		 M454.821,81.284c0-2.386-1.273-3.976-3.434-3.976c-2.409,0-3.711,1.59-3.878,3.976H454.821z"></path>
	<path d="M464.292,76.016v1.738h0.054c1.136-1.142,2.632-1.987,4.263-1.987c2.137,0,4.157,0.993,4.157,3.776v9.391h-1.995v-9.342
		c0-1.714-0.913-2.285-2.353-2.285c-1.498,0-3.214,1.094-4.127,1.964v9.664h-1.995V76.016H464.292z"></path>
	<path d="M499.35,75.568c-0.499-1.739-2.075-3.13-4.651-3.13c-2.327,0-3.713,0.993-3.737,2.783
		c-0.058,3.925,11.241,2.931,11.241,8.696c0,2.607-1.634,5.266-6.728,5.266c-4.377,0-6.095-2.534-7.145-4.671l2.021-0.646
		c0.802,1.89,2.298,3.628,5.235,3.628c2.933,0,4.402-1.393,4.402-3.23c0-4.573-11.243-3.23-11.243-8.895
		c0-2.584,2.407-4.62,6.008-4.62c3.102,0,5.538,1.466,6.592,4.422L499.35,75.568z"></path>
	<path d="M512.424,89.184c-3.933,0-5.899-2.981-5.899-6.709c0-3.726,1.966-6.707,5.899-6.707c3.933,0,5.899,2.981,5.899,6.707
		C518.323,86.203,516.357,89.184,512.424,89.184z M512.424,77.308c-2.382,0-3.907,1.839-3.907,5.168c0,3.33,1.525,5.169,3.907,5.169
		c2.382,0,3.904-1.839,3.904-5.169C516.328,79.146,514.806,77.308,512.424,77.308z"></path>
	<path d="M531.917,88.935v-1.74h-0.053c-1.137,1.142-2.63,1.988-4.265,1.988c-2.133,0-4.157-0.994-4.157-3.776v-9.391h1.995v9.34
		c0,1.715,0.912,2.287,2.353,2.287c1.496,0,3.214-1.094,4.127-1.963v-9.665h1.995v12.919H531.917z"></path>
	<path d="M539.953,76.016h1.992v2.559h0.058c1.107-1.765,2.298-2.758,4.678-2.758v1.788c-2.492,0.05-3.795,1.515-4.736,4.174v7.155
		h-1.992V76.016z"></path>
	<path d="M559.28,79.866c-0.555-1.565-1.689-2.559-3.407-2.559c-2.463,0-3.907,1.888-3.907,5.168c0,3.281,1.444,5.169,3.907,5.169
		c1.827,0,2.852-0.547,3.958-2.386l1.609,0.646c-1.442,2.187-2.715,3.28-5.567,3.28c-3.601,0-5.899-2.534-5.899-6.709
		c0-4.173,2.298-6.707,5.899-6.707c2.962,0,4.348,1.491,5.26,3.504L559.28,79.866z"></path>
	<path d="M577.255,86.177c-0.941,1.467-2.273,3.006-5.538,3.006c-3.214,0-6.26-1.988-6.26-6.709c0-4.173,2.327-6.707,5.87-6.707
		c2.991,0,5.484,1.739,5.484,5.862v1.193h-9.362c0,2.832,1.883,4.82,4.268,4.82c1.772,0,3.156-0.846,3.987-2.187L577.255,86.177z
		 M574.817,81.284c0-2.386-1.275-3.976-3.435-3.976c-2.407,0-3.71,1.59-3.875,3.976H574.817z"></path>
</g>
</svg>
