<?xml version="1.0"?>

<!-- Generator: Adobe Illustrator 19.1.0, SVG Export Plug-In . SVG Version: 6.00 Build 0)  -->
<svg version="1.1" id="Layer_1" xmlns="http://www.w3.org/2000/svg" xmlns:xlink="http://www.w3.org/1999/xlink" x="0px" y="0px" width="600px" height="400px" viewBox="0 0 600 400" enable-background="new 0 0 600 400" xml:space="preserve">
<path fill="#2E2A25" d="M391.114,238.176c2.326-6.711,8.395-10.478,12.547-15.752c21.76-27.638,24.699-57.912,7.075-92.509
	c-5.545-10.885-15.626-19.051-27.191-23.115c-14.651-5.149-28.389,0.779-32.142,18.055c-2.497,11.496-1.093,23.174,0.185,34.788
	c2.838,25.791,6.311,51.591,2.67,77.589c-0.944,6.739-2.076,13.555-4.132,20.014c-4.666,14.662-18.508,24.361-34.07,25.482
	c-7.988,0.575-15.89,1.223-23.905,0.443c-9.324-0.907-17.5-5.037-25.966-8.457c-16.368-6.612-32.068-14.406-46.772-24.286
	c-17.149-11.522-29.17-26.785-38.057-45.454c-5.223-10.971-7.884-21.779-7.113-33.56c1.238-18.915,7.49-35.856,19.38-50.955
	c12.207-15.501,28.011-26.045,44.919-35.346c1.25-0.688,2.563-2.237,4.665-1.113c-0.98,2.597-3.173,3.863-5.392,4.746
	c-5.775,2.297-10.589,6.192-15.931,9.199c-10.438,5.877-17.15,15.615-24.17,24.735c-14.952,19.425-20.787,41.326-15.575,65.744
	c4.021,18.835,14.951,33.195,28.429,46.306c7.957,7.74,17.182,10.889,27.797,11.101c9.893,0.197,15.922-4.482,18.215-14.062
	c2.512-10.493,0.706-20.889-1.319-31.187c-0.689-3.504-3.806-5.765-6.28-8.222c-6.846-6.796-7.834-11.803-2.809-20.011
	c2.598-4.242,3.411-8.505,3.318-13.25c-0.187-9.492-0.395-18.988-0.323-28.481c0.05-6.644,1.77-12.82,4.102-19.21
	c4.954-13.576,13.549-23.502,25.525-30.938c7.24-4.495,15.182-6.699,23.687-6.691c17.977,0.017,35.097,3.819,50.646,12.978
	c8.29,4.883,17.564,6.954,26.245,10.671c10.099,4.325,19.946,8.783,28.465,16.028c20.124,17.116,26.385,38.748,21.664,64.096
	c-2.014,10.812-4.802,21.438-10.947,30.8c-2.06,3.138-4.183,6.294-6.695,9.062c-5.843,6.439-9.287,14.987-17.254,19.576
	c-1.168,0.673-2.079,1.681-3.572,1.109L391.114,238.176z M302.079,247.984c0-0.078,0-0.156,0-0.234
	c10.97,0,21.94,0.016,32.911-0.011c2.761-0.007,5.314-1.047,5.298-4.047c-0.017-3.126-2.885-3.116-5.26-3.117
	c-21.109-0.011-42.218-0.025-63.327,0.01c-2.898,0.005-6.266,0.241-6.162,4.094c0.102,3.789,3.566,3.262,6.131,3.278
	C281.805,248.023,291.942,247.984,302.079,247.984z M300.845,120.535c0-0.119,0.001-0.238,0.001-0.357
	c8.976,0,17.952,0.024,26.928-0.016c2.434-0.011,5.472,0.335,5.65-3.161c0.185-3.647-3.024-3.571-5.394-3.574
	c-18.283-0.023-36.566,0.089-54.849,0.173c-2.284,0.01-4.716,0.34-4.601,3.255c0.11,2.776,2.16,3.732,4.881,3.709
	C282.588,120.487,291.717,120.535,300.845,120.535z M299.082,185.312c9.329,0,18.657-0.003,27.986,0.002
	c2.297,0.001,4.703-0.288,4.842-3.091c0.145-2.912-2.326-3.292-4.578-3.356c-18.656-0.531-37.313-0.385-55.967,0.115
	c-2.149,0.058-4.862,0.034-4.905,2.98c-0.047,3.238,2.801,3.296,5.132,3.313C280.755,185.34,289.919,185.301,299.082,185.312z"></path>
<path fill="#2E2A25" d="M401.779,295.501c-6.156,6.445-13.744,9.092-22.588,9.079c-48.404-0.073-96.809-0.042-145.213-0.011
	c-8.794,0.006-16.81-1.772-22.655-9.043c-1.423-2.384-2.854-4.773-4.286-7.162c2.486-0.093,4.971-0.267,7.457-0.268
	c62.389-0.019,124.778-0.023,187.167-0.014c1.49,0,2.98,0.171,4.458,0.26C404.664,290.727,403.222,293.114,401.779,295.501z"></path>
<path fill="#2E2A25" d="M400.371,65.149c-63.108,0-124.729,0-187.296,0c6.114-5.53,12.503-7.866,19.626-7.876
	c49.104-0.069,98.208-0.044,147.312-0.017C387.333,57.26,393.682,59.871,400.371,65.149z"></path>
<path fill="#2E2A25" d="M437.366,254.095c-0.098-1.321-0.281-2.643-0.282-3.964c-0.017-43.268-0.025-86.536,0.02-129.805
	c0.002-1.555-0.643-3.307,1.018-5.08c5.544,5.863,7.999,12.659,7.973,20.566c-0.067,20.635-0.03,41.271-0.033,61.907
	c-0.002,11.982-0.04,23.964,0.013,35.946c0.027,6.084-1.793,11.599-4.769,16.803C439.996,251.675,438.681,252.885,437.366,254.095z"></path>
<path fill="#2E2A25" d="M167.915,115.559c0,46.545,0,91.789,0,137.081c-1.379,0.745-2.178-0.294-2.733-1.196
	c-3.183-5.162-5.366-10.595-5.349-16.861c0.09-33.156,0.089-66.312,0.038-99.468C159.859,127.932,162.238,121.829,167.915,115.559z"></path>
<path fill="#2E2A25" d="M437.366,254.095c1.315-1.21,2.629-2.421,3.94-3.627c2.262-0.476,2.475,1.014,2.48,2.636
	c0.025,7.465,0.542,14.945-1.148,22.334c-3.232,14.129-12.94,21.021-26.548,21.319c-4.723,0.103-9.815,1.939-14.319-1.253
	c1.45-2.391,2.892-4.778,4.346-7.162c3.811-0.058,7.616-0.004,11.409-0.199c12.329-0.633,18.896-8.004,19.7-20.169
	C437.53,263.365,437.334,258.723,437.366,254.095z"></path>
<path fill="#2E2A25" d="M207.036,288.364c1.432,2.389,2.863,4.778,4.286,7.162c-12.465,1.009-24.902,2.097-35.43-6.96
	c-1.859-1.599-2.841-3.421-3.364-6.074c8.635,7.92,19.106,5.315,29.027,5.709C203.382,288.272,205.21,288.31,207.036,288.364z"></path>
<path fill="#2E2A25" d="M387.052,242.104c-2.246,5.737-7.09,8.099-12.457,9.782c3.856-3.653,7.578-7.486,12.519-9.718
	C387.113,242.169,387.052,242.104,387.052,242.104z"></path>
<path fill="#2E2A25" d="M391.031,238.101c0.091,2.744-1.447,3.868-3.979,4.004c0,0,0.062,0.064,0.062,0.064
	c0.117-2.551,1.72-3.611,4.001-3.992C391.114,238.176,391.031,238.101,391.031,238.101z"></path>
<g>
	<path fill="#010101" d="M139.874,337.174c1.092,0.672,2.688,1.231,4.368,1.231c2.492,0,3.948-1.315,3.948-3.22
		c0-1.764-1.008-2.771-3.556-3.752c-3.08-1.092-4.984-2.688-4.984-5.348c0-2.94,2.436-5.124,6.104-5.124
		c1.932,0,3.332,0.448,4.172,0.924l-0.672,1.988c-0.616-0.336-1.876-0.896-3.584-0.896c-2.576,0-3.556,1.54-3.556,2.828
		c0,1.764,1.148,2.632,3.752,3.64c3.192,1.232,4.816,2.772,4.816,5.544c0,2.912-2.156,5.433-6.608,5.433
		c-1.82,0-3.808-0.532-4.816-1.204L139.874,337.174z"></path>
	<path fill="#010101" d="M166.362,333.254c0,5.012-3.472,7.195-6.748,7.195c-3.668,0-6.496-2.688-6.496-6.972
		c0-4.536,2.968-7.196,6.72-7.196C163.729,326.281,166.362,329.109,166.362,333.254z M155.61,333.394
		c0,2.968,1.708,5.208,4.116,5.208c2.352,0,4.116-2.212,4.116-5.264c0-2.296-1.148-5.208-4.06-5.208S155.61,330.817,155.61,333.394z
		"></path>
	<path fill="#010101" d="M180.81,336.445c0,1.4,0.028,2.632,0.112,3.696h-2.184l-0.14-2.212h-0.056
		c-0.644,1.092-2.072,2.52-4.48,2.52c-2.128,0-4.676-1.176-4.676-5.936v-7.924h2.464v7.504c0,2.576,0.784,4.312,3.024,4.312
		c1.652,0,2.8-1.147,3.248-2.239c0.14-0.364,0.224-0.812,0.224-1.261v-8.315h2.464V336.445z"></path>
	<path fill="#010101" d="M187.866,322.697v3.893h3.528v1.876h-3.528v7.308c0,1.681,0.476,2.632,1.848,2.632
		c0.644,0,1.12-0.084,1.428-0.168l0.112,1.849c-0.476,0.195-1.232,0.336-2.184,0.336c-1.148,0-2.072-0.364-2.66-1.036
		c-0.7-0.729-0.952-1.932-0.952-3.528v-7.392h-2.1v-1.876h2.1v-3.248L187.866,322.697z"></path>
	<path fill="#010101" d="M194.166,320.262h2.464v8.456h0.056c0.392-0.7,1.008-1.316,1.764-1.736c0.728-0.42,1.596-0.7,2.52-0.7
		c1.82,0,4.732,1.12,4.732,5.796v8.064h-2.464v-7.784c0-2.184-0.812-4.032-3.136-4.032c-1.596,0-2.856,1.12-3.304,2.465
		c-0.14,0.336-0.168,0.699-0.168,1.176v8.176h-2.464V320.262z"></path>
	<path fill="#010101" d="M218.161,323.342h-5.74v-2.072h13.972v2.072h-5.768v16.8h-2.464V323.342z"></path>
	<path fill="#010101" d="M227.793,333.813c0.056,3.332,2.184,4.704,4.648,4.704c1.764,0,2.828-0.308,3.752-0.7l0.42,1.765
		c-0.868,0.392-2.352,0.84-4.508,0.84c-4.172,0-6.664-2.744-6.664-6.832s2.408-7.309,6.356-7.309c4.424,0,5.6,3.893,5.6,6.385
		c0,0.504-0.056,0.896-0.084,1.147H227.793z M235.017,332.05c0.028-1.568-0.644-4.004-3.416-4.004c-2.492,0-3.584,2.296-3.78,4.004
		H235.017z"></path>
	<path fill="#010101" d="M250.109,339.638c-0.644,0.336-2.072,0.784-3.892,0.784c-4.088,0-6.748-2.772-6.748-6.916
		c0-4.172,2.856-7.196,7.28-7.196c1.456,0,2.744,0.364,3.416,0.7l-0.56,1.904c-0.588-0.336-1.512-0.645-2.856-0.645
		c-3.108,0-4.788,2.296-4.788,5.124c0,3.136,2.016,5.068,4.704,5.068c1.4,0,2.324-0.364,3.024-0.672L250.109,339.638z"></path>
	<path fill="#010101" d="M252.993,330.258c0-1.4-0.028-2.548-0.112-3.668h2.184l0.141,2.24h0.056
		c0.672-1.288,2.24-2.549,4.479-2.549c1.876,0,4.788,1.12,4.788,5.769v8.092h-2.464v-7.812c0-2.185-0.812-4.005-3.136-4.005
		c-1.624,0-2.884,1.148-3.304,2.521c-0.112,0.308-0.168,0.728-0.168,1.147v8.148h-2.464V330.258z"></path>
	<path fill="#010101" d="M280.796,333.254c0,5.012-3.472,7.195-6.748,7.195c-3.668,0-6.495-2.688-6.495-6.972
		c0-4.536,2.968-7.196,6.72-7.196C278.164,326.281,280.796,329.109,280.796,333.254z M270.044,333.394
		c0,2.968,1.708,5.208,4.116,5.208c2.353,0,4.116-2.212,4.116-5.264c0-2.296-1.148-5.208-4.061-5.208
		C271.305,328.13,270.044,330.817,270.044,333.394z"></path>
	<path fill="#010101" d="M283.904,320.262h2.464v19.88h-2.464V320.262z"></path>
	<path fill="#010101" d="M302.776,333.254c0,5.012-3.472,7.195-6.748,7.195c-3.668,0-6.495-2.688-6.495-6.972
		c0-4.536,2.968-7.196,6.72-7.196C300.145,326.281,302.776,329.109,302.776,333.254z M292.024,333.394
		c0,2.968,1.708,5.208,4.116,5.208c2.353,0,4.116-2.212,4.116-5.264c0-2.296-1.148-5.208-4.061-5.208
		C293.285,328.13,292.024,330.817,292.024,333.394z"></path>
	<path fill="#010101" d="M317.56,326.59c-0.056,0.979-0.111,2.072-0.111,3.724v7.868c0,3.108-0.616,5.012-1.933,6.188
		c-1.315,1.232-3.22,1.624-4.928,1.624c-1.624,0-3.416-0.392-4.508-1.119l0.616-1.876c0.896,0.56,2.296,1.063,3.976,1.063
		c2.52,0,4.368-1.316,4.368-4.731v-1.513h-0.057c-0.756,1.26-2.212,2.269-4.312,2.269c-3.36,0-5.768-2.856-5.768-6.608
		c0-4.592,2.995-7.196,6.104-7.196c2.352,0,3.64,1.232,4.228,2.353h0.057l0.111-2.044H317.56z M315.012,331.938
		c0-0.42-0.028-0.784-0.14-1.12c-0.448-1.428-1.652-2.604-3.444-2.604c-2.352,0-4.032,1.987-4.032,5.124
		c0,2.66,1.345,4.872,4.004,4.872c1.513,0,2.885-0.952,3.416-2.521c0.141-0.42,0.196-0.896,0.196-1.315V331.938z"></path>
	<path fill="#010101" d="M322.433,326.59l2.968,8.008c0.308,0.896,0.644,1.96,0.868,2.771h0.056
		c0.252-0.812,0.532-1.848,0.868-2.827l2.688-7.952h2.604l-3.696,9.66c-1.764,4.647-2.968,7.027-4.647,8.483
		c-1.204,1.064-2.408,1.484-3.024,1.596l-0.616-2.071c0.616-0.196,1.428-0.588,2.156-1.204c0.672-0.532,1.512-1.484,2.072-2.744
		c0.111-0.252,0.195-0.448,0.195-0.588s-0.056-0.336-0.168-0.645l-5.012-12.487H322.433z"></path>
	<path fill="#010101" d="M352.363,320.262v16.38c0,1.204,0.028,2.576,0.112,3.5h-2.212l-0.112-2.352h-0.057
		c-0.756,1.512-2.407,2.659-4.619,2.659c-3.276,0-5.796-2.771-5.796-6.888c-0.028-4.508,2.771-7.28,6.075-7.28
		c2.072,0,3.473,0.98,4.088,2.072h0.057v-8.092H352.363z M349.899,332.105c0-0.308-0.028-0.728-0.112-1.036
		c-0.364-1.567-1.708-2.855-3.556-2.855c-2.548,0-4.061,2.24-4.061,5.235c0,2.744,1.345,5.013,4.004,5.013
		c1.652,0,3.164-1.093,3.612-2.94c0.084-0.336,0.112-0.672,0.112-1.063V332.105z"></path>
	<path fill="#010101" d="M357.823,333.813c0.056,3.332,2.184,4.704,4.647,4.704c1.765,0,2.828-0.308,3.753-0.7l0.42,1.765
		c-0.868,0.392-2.353,0.84-4.509,0.84c-4.172,0-6.663-2.744-6.663-6.832s2.407-7.309,6.355-7.309c4.424,0,5.6,3.893,5.6,6.385
		c0,0.504-0.056,0.896-0.084,1.147H357.823z M365.047,332.05c0.028-1.568-0.644-4.004-3.416-4.004c-2.491,0-3.584,2.296-3.779,4.004
		H365.047z"></path>
	<path fill="#010101" d="M376.499,321.521c1.064-0.224,2.744-0.392,4.452-0.392c2.436,0,4.004,0.42,5.18,1.372
		c0.98,0.728,1.568,1.848,1.568,3.332c0,1.819-1.204,3.416-3.192,4.144v0.056c1.792,0.448,3.893,1.933,3.893,4.732
		c0,1.624-0.645,2.856-1.597,3.78c-1.315,1.204-3.443,1.764-6.523,1.764c-1.681,0-2.968-0.112-3.78-0.224V321.521z M378.936,329.25
		h2.212c2.575,0,4.088-1.345,4.088-3.164c0-2.212-1.681-3.08-4.145-3.08c-1.12,0-1.764,0.084-2.155,0.168V329.25z M378.936,338.294
		c0.476,0.084,1.176,0.111,2.044,0.111c2.52,0,4.844-0.924,4.844-3.668c0-2.575-2.212-3.64-4.872-3.64h-2.016V338.294z"></path>
	<path fill="#010101" d="M403.966,333.254c0,5.012-3.472,7.195-6.748,7.195c-3.668,0-6.495-2.688-6.495-6.972
		c0-4.536,2.968-7.196,6.72-7.196C401.334,326.281,403.966,329.109,403.966,333.254z M393.214,333.394
		c0,2.968,1.708,5.208,4.116,5.208c2.353,0,4.116-2.212,4.116-5.264c0-2.296-1.148-5.208-4.061-5.208
		C394.475,328.13,393.214,330.817,393.214,333.394z"></path>
	<path fill="#010101" d="M407.074,320.262h2.464v19.88h-2.464V320.262z"></path>
	<path fill="#010101" d="M416.427,322.781c0.028,0.841-0.588,1.513-1.568,1.513c-0.868,0-1.483-0.672-1.483-1.513
		c0-0.867,0.644-1.54,1.54-1.54C415.839,321.241,416.427,321.914,416.427,322.781z M413.683,340.142V326.59h2.464v13.552H413.683z"></path>
	<path fill="#010101" d="M421.187,326.59l2.66,7.616c0.447,1.231,0.812,2.352,1.092,3.472h0.084c0.308-1.12,0.7-2.24,1.147-3.472
		l2.633-7.616h2.575l-5.319,13.552h-2.353l-5.151-13.552H421.187z"></path>
	<path fill="#010101" d="M436.446,322.781c0.028,0.841-0.588,1.513-1.568,1.513c-0.868,0-1.483-0.672-1.483-1.513
		c0-0.867,0.644-1.54,1.54-1.54C435.858,321.241,436.446,321.914,436.446,322.781z M433.702,340.142V326.59h2.464v13.552H433.702z"></path>
	<path fill="#010101" d="M447.758,340.142l-0.196-1.708h-0.084c-0.756,1.064-2.212,2.016-4.144,2.016
		c-2.744,0-4.144-1.932-4.144-3.892c0-3.276,2.911-5.068,8.147-5.04v-0.28c0-1.12-0.308-3.136-3.08-3.136
		c-1.26,0-2.576,0.392-3.528,1.008l-0.56-1.624c1.12-0.728,2.744-1.204,4.452-1.204c4.144,0,5.151,2.828,5.151,5.544v5.068
		c0,1.176,0.057,2.324,0.225,3.248H447.758z M447.394,333.226c-2.688-0.056-5.739,0.42-5.739,3.052c0,1.597,1.063,2.353,2.323,2.353
		c1.765,0,2.885-1.12,3.276-2.269c0.084-0.252,0.14-0.531,0.14-0.784V333.226z"></path>
	<path fill="#010101" d="M459.35,337.622c0.728,0.476,2.016,0.979,3.248,0.979c1.792,0,2.632-0.896,2.632-2.016
		c0-1.177-0.7-1.82-2.52-2.492c-2.437-0.868-3.584-2.212-3.584-3.836c0-2.185,1.764-3.977,4.676-3.977
		c1.372,0,2.576,0.393,3.332,0.841l-0.616,1.792c-0.532-0.336-1.512-0.784-2.772-0.784c-1.455,0-2.268,0.84-2.268,1.848
		c0,1.12,0.812,1.624,2.576,2.296c2.352,0.896,3.556,2.072,3.556,4.088c0,2.38-1.848,4.061-5.067,4.061
		c-1.484,0-2.856-0.364-3.809-0.924L459.35,337.622z"></path>
	<path fill="#010101" d="M469.878,338.686c0-1.036,0.7-1.764,1.68-1.764c0.98,0,1.652,0.728,1.652,1.764
		c0,1.008-0.645,1.764-1.68,1.764C470.55,340.449,469.878,339.693,469.878,338.686z"></path>
	<path fill="#010101" d="M476.261,330.817c0-1.596-0.028-2.968-0.112-4.228h2.156l0.084,2.66h0.112
		c0.616-1.82,2.1-2.969,3.752-2.969c0.28,0,0.476,0.028,0.7,0.084v2.324c-0.252-0.056-0.504-0.084-0.841-0.084
		c-1.735,0-2.968,1.316-3.304,3.164c-0.056,0.336-0.111,0.729-0.111,1.148v7.224h-2.437V330.817z"></path>
	<path fill="#010101" d="M483.345,338.686c0-1.036,0.7-1.764,1.68-1.764c0.98,0,1.652,0.728,1.652,1.764
		c0,1.008-0.645,1.764-1.68,1.764C484.017,340.449,483.345,339.693,483.345,338.686z"></path>
	<path fill="#010101" d="M489.729,320.262h2.464v19.88h-2.464V320.262z"></path>
</g>
</svg>
