 <svg 
   xmlns="http://www.w3.org/2000/svg"
    
   viewBox="0 0 592.19513 272.19513"
   height="272.19513"
   width="592.19513"
    > <path 
     d="m 74.734,33.816 c -18.577,0 -27.862,6.798 -27.862,20.361 0,11.308 6.445,16.932 19.33,16.932 l 15.2,0 c 9.433,0 14.149,3.896 14.149,11.628 0,11.31 -7.081,16.965 -21.267,16.965 -8.757,0 -16.764,-1.113 -24.034,-3.403 l 0,4.871 c 7.27,1.93 15.277,2.9 24.034,2.9 17.576,0 26.346,-7.095 26.346,-21.333 0,-10.955 -6.393,-16.46 -19.228,-16.46 l -15.2,0 c -9.507,0 -14.249,-4.045 -14.249,-12.1 0,-10.664 7.594,-15.994 22.781,-15.994 7.731,0 15.262,0.964 22.518,2.897 l 0,-4.335 C 89.996,34.783 82.465,33.816 74.734,33.816 Z m 331.756,0 c -24.22,0 -36.32,11.396 -36.32,34.158 0,24.047 12.1,36.096 36.32,36.096 6.61,0 13.07,-0.97 19.36,-2.9 l 0,-4.37 c -6.29,1.939 -12.42,2.902 -18.39,2.902 -21.48,0 -32.22,-10.572 -32.22,-31.728 0,-19.862 10.74,-29.791 32.22,-29.791 5.97,0 12.1,0.964 18.39,2.897 l 0,-4.335 c -6.29,-1.962 -12.75,-2.929 -19.36,-2.929 z m -232.78,0.499 0,69.255 5.11,0 0,-64.745 23.63,0 c 9.93,0 14.91,4.16 14.91,12.481 0,10.018 -7.76,16.229 -23.26,18.66 l 1.36,4.161 c 18.39,-2.96 27.56,-10.694 27.56,-23.203 0,-11.072 -6.6,-16.609 -19.75,-16.609 l -29.56,0 z m 119.74,0 0,69.255 5.09,0 0,-69.255 -5.09,0 z m 205.72,0 0,69.255 46.18,0 0,-4.343 -41.07,0 0,-28.587 38.75,0 0,-4.363 -38.75,0 0,-27.599 40.39,0 0,-4.363 -45.5,0 z m -184.34,108.005 -41.47,40.1 -27.58,-37.52 0,0.16 -25.07,24.25 -16.86,-22.97 0,0.12 -23.46,22.67 26.57,13.19 1.02,-0.65 -0.82,0.8 43.8,21.03 1.82,-1.1 -1.38,1.34 71.77,34.65 42.66,-26.6 -50.98,-69.4 z" /></svg>