<?xml version="1.0"?>

<!-- Generator: Adobe Illustrator 19.2.0, SVG Export Plug-In . SVG Version: 6.00 Build 0)  -->
<svg version="1.1" id="Layer_1" xmlns="http://www.w3.org/2000/svg" xmlns:xlink="http://www.w3.org/1999/xlink" x="0px" y="0px" width="217.667px" height="68px" viewBox="0 0 217.667 68" enable-background="new 0 0 217.667 68" xml:space="preserve">
<path d="M87.66,30.86c6.623,1.61,9.323,4.11,9.323,8.63c0,5.348-4.086,8.804-10.411,8.804c-4.47,0-8.613-1.588-11.981-4.595
	c-0.144-0.127-0.159-0.347-0.035-0.494l2.976-3.541c0.061-0.073,0.149-0.118,0.244-0.126c0.091-0.005,0.19,0.023,0.262,0.086
	c2.895,2.507,5.483,3.575,8.655,3.575c2.857,0,4.632-1.236,4.632-3.224c0-1.795-0.878-2.798-6.08-3.996
	c-6.11-1.477-9.647-3.39-9.647-8.794c0-5.039,4.1-8.561,9.968-8.561c3.991,0,7.407,1.183,10.439,3.616
	c0.147,0.118,0.177,0.33,0.068,0.484l-2.655,3.741c-0.056,0.079-0.14,0.131-0.235,0.145c-0.094,0.015-0.191-0.008-0.269-0.065
	c-2.548-1.9-4.978-2.823-7.429-2.823c-2.529,0-4.229,1.215-4.229,3.021C81.257,28.653,82.225,29.563,87.66,30.86"></path>
<path d="M111.291,25.499c-2.741,0-4.989,1.08-6.844,3.292V26.3c0-0.196-0.159-0.356-0.356-0.356h-4.867
	c-0.197,0-0.356,0.16-0.356,0.356v27.669c0,0.196,0.159,0.356,0.356,0.356h4.867c0.196,0,0.356-0.16,0.356-0.356v-8.734
	c1.854,2.081,4.103,3.098,6.844,3.098c5.094,0,10.25-3.921,10.25-11.416C121.54,29.421,116.384,25.499,111.291,25.499
	 M115.881,36.917c0,3.816-2.351,6.48-5.717,6.48c-3.329,0-5.839-2.785-5.839-6.48c0-3.695,2.51-6.48,5.839-6.48
	C113.476,30.437,115.881,33.162,115.881,36.917"></path>
<path d="M134.757,25.499c-6.56,0-11.698,5.051-11.698,11.5c0,6.379,5.103,11.376,11.617,11.376c6.583,0,11.737-5.034,11.737-11.458
	C146.414,30.515,141.294,25.499,134.757,25.499 M134.757,43.437c-3.489,0-6.119-2.803-6.119-6.519c0-3.733,2.539-6.441,6.039-6.441
	c3.511,0,6.159,2.803,6.159,6.522C140.836,40.731,138.279,43.437,134.757,43.437"></path>
<path d="M160.421,25.944c0.196,0,0.355,0.16,0.355,0.356v4.183c0,0.196-0.158,0.356-0.355,0.356h-5.356V40.9
	c0,1.589,0.698,2.298,2.259,2.298c1.013,0,1.919-0.217,2.857-0.69c0.109-0.054,0.24-0.05,0.347,0.016
	c0.105,0.065,0.169,0.181,0.169,0.303v3.983c0,0.127-0.069,0.247-0.18,0.309c-1.365,0.774-2.813,1.134-4.559,1.134
	c-4.294,0-6.47-2.217-6.47-6.592V30.84h-2.341c-0.196,0-0.354-0.16-0.354-0.356V26.3c0-0.196,0.158-0.356,0.354-0.356h2.341v-5.476
	c0-0.196,0.16-0.356,0.357-0.356h4.866c0.196,0,0.355,0.16,0.355,0.356v5.476H160.421"></path>
<path d="M187.395,25.965c0.147,0,0.28,0.091,0.333,0.229l5.685,14.835l5.19-14.825c0.05-0.142,0.185-0.239,0.337-0.239h5.067
	c0.118,0,0.226,0.058,0.293,0.155c0.067,0.097,0.08,0.222,0.037,0.331l-8.444,21.819c-1.751,4.503-3.738,6.177-7.331,6.177
	c-1.921,0-3.476-0.398-5.198-1.331c-0.165-0.089-0.232-0.289-0.153-0.46l1.649-3.619c0.039-0.09,0.118-0.159,0.211-0.192
	c0.094-0.029,0.197-0.021,0.284,0.027c0.923,0.505,1.826,0.761,2.684,0.761c1.061,0,1.838-0.349,2.628-2.103l-6.961-16.689h-4.544
	v16.694c0,0.197-0.16,0.357-0.356,0.357h-4.867c-0.196,0-0.355-0.16-0.355-0.357V30.84h-2.338c-0.196,0-0.357-0.161-0.357-0.357
	v-4.204c0-0.196,0.161-0.356,0.357-0.356h2.338v-1.03c0-4.786,2.376-7.318,6.872-7.318c1.847,0,3.081,0.295,4.045,0.581
	c0.151,0.046,0.252,0.185,0.252,0.341v4.101c0,0.115-0.054,0.222-0.147,0.29c-0.091,0.067-0.208,0.085-0.321,0.049
	c-0.913-0.304-1.728-0.506-2.742-0.506c-1.701,0-2.46,0.882-2.46,2.861v0.672H187.395z"></path>
<path d="M168.263,25.944c0.196,0,0.356,0.16,0.356,0.356v21.234c0,0.196-0.16,0.356-0.356,0.356h-4.867
	c-0.197,0-0.357-0.16-0.357-0.356V26.3c0-0.196,0.16-0.356,0.357-0.356H168.263"></path>
<path d="M165.854,16.276c1.927,0,3.491,1.561,3.491,3.489c0,1.929-1.564,3.491-3.491,3.491c-1.928,0-3.493-1.562-3.493-3.491
	C162.361,17.836,163.926,16.276,165.854,16.276"></path>
<path d="M208.492,32.771c-1.926,0-3.425-1.547-3.425-3.426c0-1.878,1.518-3.442,3.443-3.442c1.926,0,3.425,1.546,3.425,3.423
	C211.935,31.205,210.417,32.771,208.492,32.771 M208.51,26.243c-1.754,0-3.082,1.395-3.082,3.102c0,1.707,1.318,3.083,3.064,3.083
	c1.754,0,3.083-1.394,3.083-3.102C211.575,27.619,210.256,26.243,208.51,26.243 M209.269,29.678l0.969,1.356h-0.817l-0.872-1.244
	h-0.75v1.244h-0.684V27.44h1.604c0.835,0,1.385,0.428,1.385,1.147C210.103,29.176,209.763,29.536,209.269,29.678 M208.691,28.056
	h-0.892v1.137h0.892c0.445,0,0.71-0.218,0.71-0.569C209.401,28.254,209.136,28.056,208.691,28.056"></path>
<path d="M33.493,1.798c-17.386,0-31.481,14.29-31.481,31.677C2.012,49.812,14.455,63,30.38,65h6.226
	c15.926-2,28.368-15.188,28.368-31.526C64.973,16.088,50.879,1.798,33.493,1.798z M47.93,47.204
	c-0.565,0.927-1.773,1.218-2.698,0.652c-7.393-4.518-16.697-5.538-27.655-3.035c-1.056,0.242-2.109-0.419-2.349-1.475
	c-0.242-1.056,0.417-2.109,1.475-2.349c11.992-2.742,22.278-1.562,30.576,3.508C48.204,45.07,48.495,46.279,47.93,47.204z
	 M51.782,38.632c-0.711,1.155-2.222,1.517-3.375,0.808c-8.46-5.2-21.361-6.707-31.369-3.668c-1.298,0.392-2.669-0.34-3.064-1.635
	c-0.391-1.299,0.341-2.667,1.637-3.061c11.434-3.469,25.647-1.789,35.364,4.182C52.128,35.968,52.491,37.479,51.782,38.632z
	 M52.114,29.706c-10.148-6.026-26.886-6.58-36.573-3.641c-1.556,0.472-3.201-0.406-3.672-1.961
	c-0.471-1.557,0.406-3.201,1.963-3.674c11.12-3.375,29.606-2.723,41.288,4.211c1.4,0.831,1.858,2.638,1.029,4.034
	C55.319,30.075,53.51,30.537,52.114,29.706z"></path>
</svg>
