<svg
   xmlns="http://www.w3.org/2000/svg"
   xml:space="preserve"
   viewBox="0 0 295 122"
   height="121.975"
   width="294.39899">
   <path
     d="M 231.368,49.779 C 226.236,35.909 213.447,6.997 194.633,-0.166 206.88,13.351 225.05,40.172 231.368,49.779 m 4.824,20.308 c 2.191,-14.476 0.903,-31.952 -1.894,-42.913 -1.52,-5.969 -6.901,-12.706 -11.88,-14.812 6.526,18.522 12.128,44.898 13.774,57.725 m -15.432,32.48 c 16.938,-11.709 41.545,-33.74 49.873,-45.727 1.963,-2.82 3.416,-4.454 3.416,-7.405 0,-4.839 -5.643,-8.382 -9.703,-10.849 -9.726,22.924 -31.579,51.469 -43.586,63.981 m -25.481,19.242 c 27.469,-9.189 67.29,-30.598 94.985,-49.725 2.324,-1.599 4.135,-3.085 4.135,-5.684 0,-4.519 -8.276,-10.576 -12.292,-12.988 -21.792,22.653 -65.163,56.596 -86.828,68.397 m 38.433,-37.173 c 11.72,-15.086 20.939,-32.809 20.939,-45.537 0,-6.652 -4.765,-11.295 -10.978,-14.823 0.122,13.831 -4.669,46.263 -9.961,60.36 m -47.037,11.789 c -8.524,0 -11.099,-3.294 -11.099,-12.214 l 0,-21.794 -7.634,0 0,-6.671 7.634,0 0,-12.706 8.523,-2.333 0,15.039 10.532,0 0,6.671 -10.448,0 0,19.137 c 0,5.954 1.205,7.558 5.224,7.558 1.768,0 3.699,-0.241 5.225,-0.643 l 0,7.076 c -2.331,0.487 -5.306,0.88 -7.957,0.88 m -32.225,-0.721 0,-25.729 c 0,-4.983 -1.374,-7.875 -5.952,-7.875 -6.03,0 -10.457,6.345 -10.457,14.302 l 0,19.302 -8.602,0 0,-39.958 8.203,0 c 0,2.094 -0.162,5.546 -0.564,7.796 l 0.083,0.075 c 2.33,-5.14 7.157,-8.679 13.91,-8.679 9.084,0 11.9,5.711 11.9,12.787 l 0,27.979 -8.521,0 M 114.803,49.797 c -3.056,0 -5.55,-2.414 -5.55,-5.392 0,-2.971 2.494,-5.385 5.55,-5.385 2.974,0 5.467,2.333 5.467,5.385 0,2.978 -2.493,5.392 -5.467,5.392 m 4.26,45.907 -8.6,0 0,-39.958 8.6,0 0,39.958 z M 102.519,63.381 C 94.561,61.936 90.701,67.485 90.701,79.466 l 0,16.238 -8.607,0 0,-39.958 8.206,0 c 0,2.246 -0.246,5.791 -0.808,8.844 l 0.162,0 c 1.771,-5.388 5.79,-10.377 13.27,-9.651 l -0.405,8.442 M 54.106,96.264 c -2.249,0 -3.938,-0.076 -6.03,-0.479 l 0,17.398 -8.601,0 0,-57.437 8.12,0 c 0,2.094 -0.082,5.309 -0.484,7.476 l 0.162,0 c 2.25,-5.068 6.833,-8.283 12.944,-8.283 9.487,0 14.712,6.75 14.712,18.814 0.001,14.076 -7.473,22.511 -20.823,22.511 m 3.861,-34.246 c -6.433,0 -9.891,7.557 -9.891,14.384 l 0,12.311 c 1.851,0.563 3.86,0.804 6.272,0.804 6.833,0 11.497,-4.182 11.497,-14.958 0,-8.038 -2.491,-12.541 -7.878,-12.541 z M 12.139,96.511 c -3.9390002,0 -7.7990002,-0.479 -10.9370002,-1.292 l 0.487,-8.277 c 3.053,1.123 7.313,2.011 11.2540002,2.011 5.952,0 10.775,-2.492 10.775,-8.359 C 23.718,69.172 -2.4963459e-7,74.002 -2.4963459e-7,56.466 -2.4963459e-7,47.141 7.3159998,40.632 19.942,40.632 c 3.214,0 6.51,0.398 9.808,0.959 l -0.485,7.802 c -3.132,-0.963 -6.591,-1.527 -9.806,-1.527 -6.754,0 -10.2110002,3.133 -10.2110002,7.637 0,10.856 23.7200002,6.839 23.7200002,23.798 -0.005,9.974 -7.882,17.21 -20.829,17.21"
    /></svg>