<?xml version="1.0"?>

<svg xmlns="http://www.w3.org/2000/svg" viewBox="0 0 260 235" width="260" height="235">
  <path d="m 66.53,211.9 c 0,6.2 -9.93,11.1 -22.21,11.1 -12.29,0 -22.19,-4.9 -22.19,-11.1 0,-6.2 9.9,-11.1 22.19,-11.1 12.28,0 22.21,4.9 22.21,11.1" style="opacity:0.1; "></path>
  <path d="m 133.7,201.2 c 0,8.5 -13.7,15.4 -30.7,15.4 -17.03,0 -30.79,-6.9 -30.79,-15.4 0,-8.5 13.76,-15.4 30.79,-15.4 17,0 30.7,6.9 30.7,15.4" style="opacity:0.2; "></path>
  <path d="m 202.5,172.4 c 0,11.3 -18.4,20.5 -41,20.5 -22.6,0 -41,-9.2 -41,-20.5 0,-11.3 18.4,-20.5 41,-20.5 22.6,0 41,9.2 41,20.5" style="opacity:0.3; "></path>
  <path d="m 248.2,119.7 c 0,15.1 -24.5,27.3 -54.7,27.3 -30.2,0 -54.7,-12.2 -54.7,-27.3 0,-15.1 24.5,-27.39 54.7,-27.39 30.2,0 54.7,12.29 54.7,27.39" style="opacity:0.5; "></path>
  <path d="m 226.4,48.74 c 0,20.27 -32.9,36.78 -73.5,36.78 C 112.4,85.52 79.47,69.01 79.47,48.74 79.47,28.47 112.4,12 152.9,12 c 40.6,0 73.5,16.47 73.5,36.74" style="opacity:0.7; "></path>
  <path d="m 17.98,131.3 m 0,0 c 1.91,3 5.24,4.3 8.49,4.3 3.54,0 7.98,-2.2 7.98,-6.7 0,-9.2 -19.72,-3.5 -19.72,-19.1 0,-4.7 3.94,-11.2 13.55,-11.2 4.37,0 8.56,0.94 11.56,4.6 l -4.45,4 c -1.37,-2.1 -4.01,-3.5 -7.11,-3.5 -6,0 -7.77,3.6 -7.77,6.1 0,10.1 19.69,4.1 19.69,18.5 0,7.8 -6.22,12.4 -13.91,12.4 -5.13,0 -10.04,-1.7 -12.79,-5.5 z m 35.77,-26.9 m 0,0 7.11,0 c 4.3,0 8.6,1 8.6,6.4 0,5.5 -4.3,6.5 -8.6,6.5 l -7.11,0 z m -5.46,35.3 5.46,0 0,-17.7 6.03,0 10.19,17.7 6.82,0 -11.38,-18.3 c 6.04,-0.7 9.79,-5.5 9.79,-10.6 0,-5 -2.56,-11.16 -12.82,-11.16 l -14.09,0 z M 93.63,125 m 0,0 7.57,-18.3 0.1,0 7.5,18.3 z m -12.25,14.7 6.36,0 3.94,-9.9 19.12,0 4,9.9 6.3,0 -17.1,-40.06 -4.95,0 z m -20.34,11.4 m 0,0 0,7.1 c -1.41,0.8 -3.68,1.3 -5.42,1.3 -4.84,0 -7.69,-3.5 -7.69,-7.5 0,-4.3 3.07,-7.6 7.48,-7.6 2.63,0 4.22,0.7 5.34,1.9 l -1.37,1.5 c -1.19,-1.2 -2.53,-1.6 -3.97,-1.6 -3.29,0 -5.42,2.6 -5.42,5.8 0,3.2 2.45,5.7 5.6,5.7 1.33,0 2.64,-0.3 3.5,-0.8 l 0,-4 -3.18,0 0,-1.8 z m 6.33,-4.6 m 0,0 2.52,0 c 1.56,0 3.07,0.3 3.07,2.3 0,1.9 -1.51,2.3 -3.07,2.3 l -2.52,0 z m -1.96,12.6 1.96,0 0,-6.3 2.13,0 3.65,6.3 2.45,0 -4.08,-6.5 c 2.17,-0.2 3.54,-2 3.54,-3.8 0,-1.8 -0.94,-4 -4.62,-4 l -5.03,0 z m 19.95,-1.4 c -3.29,0 -5.42,-2.6 -5.42,-5.7 0,-3.2 2.13,-5.8 5.42,-5.8 3.28,0 5.42,2.6 5.42,5.8 0,3.1 -2.14,5.7 -5.42,5.7 m 0,1.8 c 4.4,0 7.47,-3.3 7.47,-7.5 0,-4.3 -3.07,-7.6 -7.47,-7.6 -4.38,0 -7.48,3.3 -7.48,7.6 0,4.2 3.1,7.5 7.48,7.5 m 12.75,-14.7 m 0,0 0,8.8 c 0,1.8 0.9,4.1 3.59,4.1 2.7,0 3.6,-2.3 3.6,-4.1 l 0,-8.8 2,0 0,9.1 c 0,3.3 -2.4,5.6 -5.6,5.6 -3.12,0 -5.54,-2.3 -5.54,-5.6 l 0,-9.1 z m 15.39,1.7 m 0,0 2.5,0 c 1.5,0 3.1,0.3 3.1,2.3 0,1.9 -1.6,2.3 -3.1,2.3 l -2.5,0 z m -2,12.6 2,0 0,-6.3 3.1,0 c 3.6,0 4.5,-2.2 4.5,-4 0,-1.8 -0.9,-4 -4.5,-4 l -5.1,0 z" style=""></path>
</svg>
