<?xml version="1.0"?>

<svg xmlns="http://www.w3.org/2000/svg" viewBox="0 0 372 394" width="372" height="394">
   <path d="m 142.4,22.01 c -0.3,0 -0.6,0 -0.9,0.1 -0.4,2.74 -3.8,5.42 -3.5,8.3 0.1,1.56 1.6,2.07 2.1,3.8 2,0.11 3.3,0.36 4.5,-0.47 0.8,-0.57 0.9,-2.03 1.7,-2.85 0.3,-0.45 1.2,-0.38 1.4,-0.95 1.2,-4.1 -1.2,-8.16 -5.3,-7.93 z m 1,2.24 c 0.2,0 0.3,0 0.5,0 1,0.11 0.9,0.9 1.9,1.42 -0.6,2.78 -3.2,7.15 -6.2,4.51 0.7,-2 1.6,-5.71 3.8,-5.93 z M 131,31.8 c -1,0 -2.1,0.39 -3,1.47 0.2,1.22 -0.7,1.87 -0.7,2.85 0,1.58 1.3,2.88 1.2,4.74 -1,1.11 -1.7,2.46 -2.9,3.32 h -2.3 c -0.6,0.25 -1.1,0.69 -1.7,1.19 -1.4,1.19 -1.3,1.52 -2.1,3.32 -0.7,1.42 -1,2.06 -1.5,3.79 -0.7,2.81 -0.7,5.69 0.5,9.25 0.3,0.83 1,1.66 1.4,2.6 0.5,1.09 0.5,2.27 1,3.08 0.5,0.88 1.4,1.92 2.1,3.08 0.8,1.19 1.6,2.58 2.1,3.08 0.9,0.79 4.4,2.67 5.3,2.85 2.7,0.55 5.5,-0.42 8,0 2.7,-1.13 4.7,-2.9 6.7,-4.74 -0.1,-1.43 0.9,-2.59 1.2,-4.03 0.6,-4.19 -0.3,-7.94 -1.2,-10.67 -1.6,-4.62 -5,-8.6 -7.1,-11.86 -1.2,0 -1.6,-1.13 -2.4,-1.66 -0.8,-0.5 -2.4,-0.4 -2.6,-1.66 3,-0.65 5.2,-2.32 4,-6.4 -1.4,-1.48 -3.7,-3.56 -6,-3.6 z m 73.5,1.17 c -1.4,0 -2.6,0.46 -3.2,0.53 -1,0.11 -2,-0.16 -3.1,0 -2,0.31 -5.4,1.97 -6.4,3.08 -1.6,1.81 -2.4,2.94 -3.1,5.46 -1.1,3.86 1.3,4.6 1.9,8.3 0.9,0.88 2,2.66 1.4,4.27 -1.6,-0.27 -3.1,-0.65 -5.2,-0.47 -1.5,1.19 -1.6,2.28 -2.1,4.27 -0.3,0.96 -0.7,1.74 -0.7,2.37 -0.6,7.33 8.2,9.31 16.1,7.59 1,-0.7 2,-1.32 3.3,-1.66 0.4,-0.88 1.2,-1.6 1.4,-2.61 0.2,-0.57 0.8,-1.35 1,-1.9 1,-3.9 -0.8,-6.03 -1,-9.49 -0.9,-1.95 -2.8,-4.08 -2.6,-6.4 1.5,0.7 3.2,1.22 5.7,0.95 2.5,-1.05 2.5,-4.6 3.6,-7.11 -1.1,-1.64 -2.2,-3.21 -2.9,-5.22 -1,-0.75 -2.1,-1.68 -3.5,-1.9 -0.2,0 -0.5,-0.1 -0.6,-0.1 z m -43,0.48 c -0.1,0 -0.2,0 -0.3,0 -4.6,1.31 -12.5,4.08 -17.1,5.69 -1.6,1.84 -1.4,3.74 -1.2,6.89 1,2.91 6.2,1.62 7.6,4.03 0,6.23 1.6,10.89 1.4,17.31 1.4,1.37 3.8,3.11 6.2,3.08 1,0 2,-0.62 2.9,-0.95 0.9,-0.35 2,-0.48 2.6,-1.19 0.7,-8.23 -1.6,-15.53 -1.4,-23.95 1.4,-0.49 3.1,-0.63 4,-1.66 v -5.93 c -1.3,-0.56 -3.2,-3.36 -4.7,-3.36 z m -29.9,0.39 c 0.9,0 1.9,0.45 2.6,1.32 0.3,2.44 -0.4,3.94 -1.9,4.51 -1.2,-0.81 -2.8,-1.43 -3.1,-2.61 -0.5,-2.14 0.8,-3.26 2.4,-3.22 z m 72,0.96 c 1,0 1.8,0.22 2.4,0.6 1.5,0.96 2.1,3.89 1.4,6.64 -0.6,0.94 -3.3,1.88 -5.4,1.42 -1.3,-0.29 -1.6,-1.49 -2.6,-1.42 -3,1.6 0,4 0.9,5.69 0.8,1.42 0.9,2.92 1.9,3.56 3.3,9.41 -3.1,16.54 -13.3,14.7 -0.7,-1.13 -2.7,-1.97 -3,-4.03 -0.4,-2.07 0.6,-5.84 2.1,-6.16 2.5,-0.56 3,2.72 5.7,2.61 2.1,-1.32 1.8,-2.25 0.7,-5.22 -0.8,-2.07 -1.6,-3.84 -2.6,-5.93 -0.7,-1.52 -1.7,-2.41 -1.4,-4.74 0.1,-1.55 1.5,-3.17 2.8,-4.27 1,-0.81 1.3,-1.15 2.6,-1.9 1,-0.55 4.9,-1.66 7.8,-1.55 z M 131,35.1 c -1.1,0.14 -1.2,2 0.1,1.96 0.8,-0.18 0.8,-1.18 0.5,-1.9 -0.2,-0.1 -0.4,-0.1 -0.6,-0.1 z m 29.3,0.3 c 0.2,0 1.1,0.32 1.6,0.24 0.9,1.79 1.7,4.55 0.3,6.17 -1.9,0.8 -4.4,0.89 -6.7,1.19 -0.3,2.15 1.8,1.9 3.1,2.37 0.4,2.39 0.6,4.66 0.9,6.88 0.5,3.45 0,7.44 0.5,11.15 0.1,0.84 0.6,1.51 0.5,2.13 -0.6,3.01 -6.7,3.56 -7.4,0 -0.2,-1.15 0.2,-2.64 0,-4.27 -0.2,-3.06 -1.1,-6.75 -1.4,-9.72 -0.2,-2.27 0.5,-4.53 -0.5,-5.93 -2,0.71 -3.8,0.78 -5.9,0 -1.4,-1.99 -0.8,-3.06 0,-5.23 v 0 c 2.2,-0.77 4.7,-1.28 7.1,-2.13 2.7,-0.94 5,-2.36 7.9,-2.85 z m 63.7,1.62 c -2.7,0 -5.2,0.84 -7.8,1.71 -1.3,2.03 -3.5,3.06 -3,6.88 0.6,0.93 2.1,0.97 2.6,2.13 -0.8,2.14 -1.4,4.5 -2.6,6.17 0.2,1.71 -0.5,1.74 -1,2.85 -0.6,1.34 -1,2.34 -1.4,3.31 -0.3,0.67 -0.3,1.5 -0.5,2.13 -0.7,1.63 -2.1,3.02 -1.7,4.51 0.2,0.76 1.8,1.52 2.6,2.13 2.2,1.48 3.9,3.09 7.2,3.08 1.1,-0.3 0.9,-3.66 2.8,-3.56 1,0 2.2,3.01 2.9,4.03 0.9,1.41 2,3.19 3.3,3.56 3.4,0.93 6.6,-0.71 5.9,-4.03 -0.4,-1.81 -0.6,-1.91 -1.2,-3.08 -0.8,-1.67 -1.4,-3.09 -1.6,-5.69 1,-1.25 2.9,-1.31 4.2,-2.37 2,-1.52 4,-4.97 4.3,-8.06 0.4,-4.1 -1.5,-5.24 -1.9,-8.54 -2.4,-3.42 -6.3,-6.62 -11.9,-7.11 -0.4,0 -0.8,0 -1.2,0 z m 1.6,1.98 c 1.6,0.1 3.1,0.24 4.1,0.67 0.8,0.35 2.2,1.78 3.1,2.85 0.9,1.06 2.1,2.39 2.6,3.32 0.5,0.81 1.5,2.98 1.4,3.79 0,0.62 -0.8,2.33 -1.4,3.56 -0.8,1.66 -1.3,2.18 -2.6,3.32 -1.4,1.21 -3.2,1.92 -5.2,2.85 -0.1,5.03 2.6,7.38 3.5,11.38 -1.1,1.11 -2.7,2.18 -4.2,1.9 -1.3,-0.23 -2.1,-1.99 -3.1,-3.79 -0.9,-1.5 -1.9,-3.05 -2.4,-4.27 -0.5,-1.33 -0.2,-2.87 -1.2,-3.32 -1.7,0.29 -1.7,2.4 -2.1,4.03 -0.7,0.72 -1.2,1.67 -1.4,2.85 -2.5,0.7 -4.9,-0.21 -6.2,-1.42 0.3,-5.23 3.6,-7.55 4.1,-12.58 1.3,-2.14 2.8,-5.32 3,-7.83 -0.4,-1.23 -2.5,-0.82 -2.8,-2.13 0.5,-1.6 1.1,-2.95 2.4,-3.79 1.4,-0.98 3,-0.89 4.7,-1.19 0.8,-0.14 2.2,-0.24 3.7,-0.2 z m -96.8,4.31 c 1.4,-0.15 2.4,0.9 3.7,1.8 2.6,1.78 4.1,3.42 5.9,6.17 1.5,2.17 2.6,3.62 2.9,6.64 0.2,0.65 0.6,1.15 0.9,1.66 0.9,6.36 -0.6,12.1 -4,14.23 -2.7,1.69 -8.2,1.3 -10.9,-0.95 -1.4,-1.2 -3.3,-4.1 -4.5,-6.4 -0.9,-1.64 -1.1,-2.35 -1.7,-4.27 -0.3,-0.91 -1,-1.57 -1.2,-2.13 -0.6,-2.26 -0.6,-6.07 0,-8.3 0.2,-0.73 2.3,-5.2 3.3,-5.46 1.9,-0.45 1.8,1.36 3.6,1.42 1.3,-0.58 0.4,-3.42 1.4,-4.27 0.2,-0.1 0.4,-0.12 0.6,-0.14 z m 94,1.99 c -0.3,0 -0.6,0 -0.9,0.1 v 0.95 c 1,1.44 2.6,0.94 2.9,2.61 0.2,1.46 -1.8,2.43 -1.2,4.03 3.7,0.77 5.9,-1.93 5.7,-5.93 -1.8,-0.72 -4.3,-1.7 -6.5,-1.72 z m 30.1,4.31 c -0.4,0 -0.7,0 -1.1,0 -1.1,1.69 -2.1,3.5 -3.1,5.22 -0.8,1.46 -2.2,2.84 -2.4,4.74 -1.9,1.7 -2.8,4.36 -4,6.64 -1.2,2.33 -2.6,4.59 -4,6.64 -1.2,2.75 -0.9,4.33 0.7,6.16 3.1,1.02 4.2,4.2 8.8,3.79 1.2,-2.12 2.7,-5.02 4,-7.11 1.9,-3.25 3.6,-6.5 5.4,-9.72 1.5,-2.46 3.5,-5.18 3.8,-7.11 0.9,-5.1 -3,-9.17 -8.2,-9.28 z M 128,50.34 c 0,0.33 -0.1,0.52 -0.2,0.71 -0.4,3.06 -0.9,6.89 0.2,9.96 0.2,0.67 0.8,1.06 0.9,1.66 0.2,0.72 0,1.37 0.3,1.9 0.9,1.76 3.2,2.26 5.2,2.61 3.2,-3.5 -0.1,-8.83 -1.4,-12.1 -1.9,-1.16 -2.1,-4.07 -4.5,-4.74 z m 124.3,1.42 c 0.2,0 0.2,0.1 0.2,0.24 2.7,-0.38 5.9,1.25 6.2,3.08 0.2,1.46 -1.5,3.09 -2.4,4.74 -0.9,1.68 -1.9,3.28 -2.1,4.74 -1.8,1.27 -2,4.14 -3.8,5.45 0.1,1.56 -1.5,3.08 -2.4,4.98 -0.9,1.81 -1.2,3.78 -2.8,4.27 -1.9,0.55 -4.2,-1.11 -5.7,-2.61 0,-3.05 1.4,-4.67 2.8,-6.39 3.2,-6.32 6.5,-12.44 10,-18.5 z M 132,58.41 c 1.2,0.43 1,2.21 1.4,3.32 -2.2,0.32 -2.1,-2.5 -1.4,-3.32 z m 136.6,0.23 c -0.7,0.26 -0.9,1 -1.9,0.95 0.1,1.78 -2.5,2.42 -2.8,4.03 -0.5,2.74 1.2,1.92 1.4,4.03 -3.9,4.93 -8.2,9.5 -12.3,14.23 0.1,2.55 1.1,4.04 1.9,5.93 2.4,0.37 3.7,3.32 5.7,3.08 1.7,-0.21 1.5,-2.77 3.8,-2.85 1.4,1.51 0.1,3.62 0.4,5.46 0.5,2.21 2.6,3.5 3.6,4.98 1.4,0.35 3.8,0.35 5.2,0 1.2,-2.8 0.2,-7.33 0.5,-11.38 0.8,-1.05 2,-0.48 3.1,-0.71 2.2,-0.52 4.8,-1.38 6.4,-2.85 0.6,-0.64 2.3,-2.93 2.6,-3.56 0.7,-1.79 0.1,-4.18 0.9,-6.4 -0.9,-1.64 -0.3,-3.35 -0.9,-4.98 -0.5,-1.12 -1.7,-1.98 -2.2,-2.61 -1.2,-1.52 -1.2,-1.94 -2.8,-3.08 -0.8,-0.54 -1.6,-1.27 -2.4,-1.66 -1.2,-0.6 -3.1,-0.86 -3.8,-1.19 -0.3,-0.17 -0.6,-0.83 -0.9,-0.95 -1.6,-0.64 -3.7,-0.41 -5.5,-0.47 z m 1.2,2.33 c 4.7,-0.15 10.1,3.17 12.8,6.21 0.3,0.29 0.8,0.47 1,0.71 0.1,0.13 0,0.87 0.2,1.19 0.1,0.17 0.6,0.24 0.7,0.47 1.3,3.16 -0.1,5.69 -0.7,8.54 -2.3,2.4 -5.5,5 -10.4,4.03 -1.3,3.52 0.1,8.13 -0.7,12.1 -1.8,0.84 -4.6,0.88 -6.2,-0.24 -0.3,-4.22 0.8,-9.81 -1.2,-12.33 -2.8,0.1 -3.5,5.02 -6.2,5.22 -1.8,0.14 -4.1,-2.4 -4,-4.27 0.1,-1.98 2,-2.98 3.3,-4.03 2.7,-4.15 6.8,-7.01 9.3,-11.38 -0.1,-1.17 -1.3,-1.34 -1.5,-2.38 -0.1,-1.57 1,-2.4 1.7,-3.56 0.6,-0.17 1.3,-0.26 1.9,-0.28 z M 91.05,64.02 c -3.13,-0.1 -6.37,0.76 -8.36,2.22 -0.49,0.36 -2.67,2.37 -2.85,2.61 -0.78,1.04 -0.64,2.74 -1.66,3.32 -0.52,3.5 0.41,7.31 1.19,9.72 0.23,0.7 0.1,1.5 0.24,1.89 0.24,0.54 0.97,1.36 1.42,2.13 0.82,1.41 1.33,2.56 2.13,3.56 0.26,0.32 0.51,0.96 0.71,1.19 0.56,0.61 1.66,1.01 2.37,1.66 0.92,0.84 1.48,1.87 1.9,2.13 0.46,0.3 1.37,0.18 1.9,0.47 0.68,0.38 0.87,0.96 1.42,1.19 1.76,0.71 4.81,1.34 7.12,0.95 0.84,-0.14 3.32,-1.34 4.02,-1.66 3.3,-1.38 6.1,-4.35 6.4,-8.3 0.3,-3.18 -1.3,-4.15 -1.6,-7.11 -1.2,-0.54 -1.3,-2.07 -1.9,-3.08 -0.4,-1.03 0.8,-1.09 0.2,-1.66 -1.1,-1.32 -1.9,-3.05 -3.3,-4.03 -1.5,0 -3.15,0.11 -3.82,-0.71 -0.63,-0.92 0,-2.24 0.24,-3.08 -1.6,-2.29 -4.64,-3.32 -7.77,-3.41 z m -1.14,1.62 c 0.43,0 0.87,0 1.32,0.12 1.73,0.32 3.27,1.74 3.32,3.56 0.1,2 -1.33,2.44 -1.9,4.27 -1.23,0.41 -3.35,0.74 -4.74,0.24 -2.03,0.95 -1.52,3.6 -0.24,5.93 0.77,1.4 2.55,4.04 2.85,5.93 0.83,0.99 1.74,1.9 2.85,2.61 h 2.85 c 1.06,-0.93 3.08,-1.86 2.13,-4.03 -1.57,-0.35 -2.15,1.02 -3.32,0.95 -1.76,-0.1 -3.46,-2.18 -3.32,-3.79 0.11,-1.27 1.38,-1.65 2.13,-2.61 0.35,-0.45 0.55,-1.12 0.95,-1.66 0.51,-0.69 2.72,-3.87 3.32,-4.03 1.99,-0.56 3.89,1.4 3.09,4.03 1.6,2.99 3.9,5.57 3.8,9.72 -0.1,3.23 -2,7.06 -4.8,7.83 -0.66,0.19 -3.76,0.48 -4.47,0.47 -0.92,0 -2.61,-0.27 -3.32,-0.47 -2.19,-0.61 -3.77,-2.68 -5.93,-3.56 -0.4,-1.58 -1.55,-2.4 -2.61,-3.32 0,-2.1 -1.86,-3.04 -2.61,-4.74 -0.23,-0.53 -0.41,-1.53 -0.71,-2.37 -1.53,-4.34 -0.56,-10.02 2.62,-12.35 1.31,-0.96 3.75,-2.74 6.74,-2.73 z m 182.59,1.88 c -0.5,0 -0.9,0.23 -1,0.85 -0.4,1.71 1.6,1.28 1.9,2.85 0,1.94 -2.3,1.7 -2.2,3.79 1.6,1.85 4.8,0.13 6,-1.19 v -3.08 c -0.8,-0.99 -3.3,-3.21 -4.7,-3.22 z m -104.4,14.4 c -4,7.06 -18.7,3.48 -18.1,15.18 -0.7,0.53 -1.5,0.99 -2.6,1.19 -2.4,2.11 -4.7,4.51 -6.4,7.31 -0.5,0.9 -1.6,2.2 -0.9,3.4 2.1,-0.7 4.2,-3.1 7.1,-3.6 4.3,-0.8 8.3,0.4 9.2,4.5 -2,0.9 -4.3,0.3 -6.1,1 -2.5,0.8 -3.9,3 -4.8,5.4 0.8,0.9 2.2,0 3.6,0 4.1,-0.1 10,1.1 9.2,5 -5.4,2.6 -12.1,3.7 -17.5,6.2 -3.8,1.7 -6.5,4.5 -9.7,6.6 -0.7,1.5 -1.7,2.6 -3.1,3.3 -0.6,1.9 -2.5,3.4 -3.6,5.5 -0.8,1.6 -2.1,5 -2.1,6.8 0,2.1 1.3,3.8 1.7,6 1.7,0.8 2.4,2.5 5.4,2.1 2.5,1.8 -0.1,4.9 -1.4,6.4 0.1,2.2 -1.3,4 -1.7,6.2 -0.3,1.6 -0.1,3.4 -0.4,5.2 -0.1,0.4 -0.5,1 -0.5,1.4 -0.4,3.7 0.7,6.4 0.9,9 0.4,4.4 0.2,8.8 1.7,12.4 0.2,0.5 0.8,0.6 0.9,1.1 v 1.2 c 1.6,1.5 1.8,3.9 2.9,5.7 0.9,1.5 2.5,2.6 3.6,4.1 0.9,1.3 1.6,3.2 2.3,4.2 0.7,1 1.2,1.8 1.7,2.6 0.8,1.2 1.4,2.6 2.1,3.6 0.4,0.5 1.2,0.9 1.7,1.4 0.5,0.6 0.7,1.4 1.2,1.9 0.8,0.9 2,1.3 2.6,2.4 1.1,0.1 1.5,1 2.8,0.9 1.6,1.2 2.1,3.1 3.6,4.3 0.5,0.4 1.2,0.5 1.9,1 0.6,0.3 1.1,1 1.6,1.4 1.4,0.8 2.9,1 4.3,1.6 2.8,1.4 4.3,3.8 6.4,5.5 0.6,1.7 2.2,2.7 3.1,4.3 0.9,1.5 1.7,3.3 2.4,5.2 1.1,0.7 1.7,1.9 2.6,2.8 -0.2,1.6 1.1,2.5 1.2,4.1 0.1,0.8 -0.4,1.7 -0.3,2.6 0.1,0.6 0.5,1 0.5,1.6 0,2.3 -1,4.8 -1.4,7.1 -0.8,4.6 -1.9,9.1 -2.6,13.3 -1.5,1.7 -0.9,4.9 -1.4,7.6 -0.3,1.5 -1.1,3 -1.5,4.3 -0.4,1.5 -0.5,3.1 -1.6,4 -7.2,2.3 -9.3,-3 -15,-3.1 -0.9,1.4 -3.2,1.4 -4.5,2.4 -0.3,1.3 -0.6,2.5 -0.4,4.3 -1.1,1.3 -2.7,2.1 -3.6,3.5 -0.4,3.4 0.8,5.3 2.8,6.2 0.6,-0.7 0.9,-1.6 0.8,-3.1 1,-1.1 3.8,-1.6 5.4,-1.4 0.8,1.1 -0.7,1.9 -0.9,3.3 -0.6,3 0.5,6.1 3.5,6.2 0.5,-1 -0.1,-1.6 0,-2.9 0.4,-0.7 1.2,-0.3 1.9,-0.7 1.5,-0.9 2.2,-3.1 4.3,-3.3 1.1,-0.1 1.8,0.5 2.8,0.7 1.5,0.3 3.4,0.7 5,0.5 1.2,-0.2 2,-1.1 3.1,-1.2 2.2,-0.2 4.1,0.9 5.9,1.2 0.1,0.9 -0.7,2 0.5,2.1 0.9,-0.3 1.2,-2.1 1.7,-2.6 0.8,-0.9 0.4,-2.6 0.4,-4.5 -1.6,-0.5 -3.4,-0.9 -4.2,-2.1 -0.3,-1.6 -1.3,-3.1 -1.2,-4.8 0,-1.5 1.1,-2.9 1.4,-4.5 0.2,-1 -0.1,-1.9 0,-2.8 0.1,-0.7 0.5,-1.4 0.7,-1.9 0.3,-0.8 0.6,-1.4 0.7,-2.2 2.6,-0.8 5.2,-2.8 4.3,-6.4 -1,-0.8 -1.4,0.8 -2.6,0.5 -0.2,-3.5 1.6,-7.1 2.3,-10.9 0.1,-0.4 -0.1,-0.9 0,-1.4 0.2,-1.2 1,-2.3 1.2,-3.6 0.5,-1.9 -0.1,-4.6 1.9,-5.7 1.6,1.8 1.8,5 2.4,8.1 0.2,1.2 0.8,2.3 1,3.6 0.2,1.5 0.1,3.3 0.4,4.7 0.3,1 0.8,1.7 1,2.6 0.4,2.2 0.6,5.1 0.4,6.4 -2.1,2.2 -4.8,-0.1 -8,0.7 -1.5,1 -0.7,2.9 -2.6,3.3 -0.4,1.2 -1,2 -1.2,3.3 0.8,0.9 0.5,2.8 2.1,2.9 0.7,-1.1 0.6,-2 1.9,-2.2 1.3,-0.2 3,2.1 5.2,2.4 3.3,0.5 3.3,-0.8 5.2,-1.9 3.2,0.1 5.4,-0.8 8.6,-0.7 1.1,0.3 0.8,2.1 2.1,2.1 1.5,-1.1 1.2,-5.5 -0.2,-6.4 -2.1,-0.1 -3.7,0.5 -5,-0.2 0,-1.2 -1.3,-2 -1.7,-3.6 -0.1,-0.5 0.1,-1.2 0,-2.1 -0.2,-3.3 -0.6,-6.3 1.2,-7.4 0,-2.1 1.4,-3.6 0,-5.2 -1.5,-0.3 -1.1,1.3 -2.6,1 -1.5,-2 -1,-5.1 -1.2,-8.1 0,-0.4 -0.4,-0.9 -0.5,-1.4 -0.3,-2.5 -0.6,-6.3 -0.9,-8.3 -0.5,-2.9 -0.2,-6.3 1.9,-7.8 0.7,0.3 1.1,1 0.9,2.1 0.7,1.9 3,3.3 3.6,5.4 0.4,1.2 -0.3,3.2 0.7,3.8 1.2,0.4 0.9,-1 1,-1.6 0.4,-3.5 -1.5,-4.8 -1.7,-6.9 -2.2,-2 -3.2,-6.7 -2.8,-10.9 0.1,-1.2 1.2,-2.5 0,-3.3 -1.3,2.8 -1.6,6 -2.2,8.7 -0.3,1.4 -1.7,1.8 -2.6,2.9 -0.5,0.7 -0.7,1.6 -1.2,2.1 -1.1,1.3 -2.9,2 -4,3.1 -1.2,1.4 -2,5.2 -3.8,5.7 -1.9,0.5 -3.5,-1.2 -5.7,-1.4 -1.7,-2.5 -3.7,-4.6 -4.3,-8.3 -2.5,-3.2 -5.3,-6 -7.1,-10 -2.3,-1.3 -5,-2.1 -7.3,-3.3 -0.3,-1.4 -3.2,-2.4 -1.7,-4 2.5,0.9 3.8,4.4 6.7,4.2 -1.6,-3 -4.6,-4.5 -6.7,-7.1 -1.6,-0.8 -3.1,-1.6 -3.1,-4 1.4,-0.3 2.3,1.7 3.1,0.5 -1.5,-0.3 -1.7,-2.1 -2.6,-3.1 -0.8,-1 -2.8,-1.6 -2.1,-3.1 2.3,0.9 2.5,3.9 5.4,4.3 0.5,-1.3 -1.4,-2 -2.1,-2.9 -1.3,-2.3 -3,-4.2 -4.5,-6.4 -0.9,-0.1 -0.6,1.1 -1.7,1 -0.6,-0.9 -1.8,-1.3 -2.8,-0.5 -0.7,-0.4 -1,-1.3 -2.4,-1 -0.9,0.8 1,1.8 -0.2,2.2 -1.8,0.2 -1.5,-2 -2.2,-2.9 -0.7,-1 -1.7,-0.8 -2.3,-1.9 -1.1,-0.2 -0.8,0.8 -1.7,0.7 -0.8,-0.3 -0.7,-1.4 -1.6,-1.6 -0.6,0.1 0.2,1.6 -0.8,1.4 -0.8,-1.1 -2.5,-2.7 -3.3,-4.3 -0.3,-0.6 -1.2,-2.1 -0.2,-2.8 1.9,0.1 1.4,2.6 3.1,3.1 -0.1,-0.8 -0.1,-2.2 -0.5,-3.4 -0.6,-1.8 -3.1,-4.5 -0.7,-6.1 2,1.1 2,4.2 4.7,4.7 0.3,-2.8 -4,-4.3 -1.9,-6.6 1.4,-0.2 1,1.3 2.4,1.2 0.1,-0.5 -0.3,-1.6 0.2,-1.7 1.9,1.4 4.1,2.6 6,4 0,1.2 0.9,1.6 1.4,2.4 0.3,2.6 2,4 2.8,6.2 3.4,2.4 6.3,5.4 11.4,6.1 0.7,0.9 0.8,2.4 0.7,4.1 1.6,4.5 4.1,9.8 7.4,12.3 2.5,1.9 4.7,5.2 8.7,4.5 0.6,0.7 0.7,1.7 1,2.6 1.1,0.7 1.3,2.2 2.4,2.9 0.7,1.7 2.7,5.3 1.2,7.1 -1.4,-3 -2.4,-6.2 -4.8,-8.1 -0.4,-1.9 -1.5,-3.2 -3.3,-3.8 -0.4,1.9 2,2.9 1.9,5.2 0.9,0.6 1.5,1.6 2.4,2.2 1.4,2 1.6,5.3 3.5,6.9 0.6,-0.4 -0.1,-1.7 0.3,-1.7 0.9,-0.2 0.7,0.7 1.6,0.5 0.3,-1.3 -0.1,-2.5 0,-3.6 0.1,-0.5 0.5,-1 0.5,-1.4 0,-2.3 -0.9,-4.1 -1.9,-5.5 -0.8,-1 -1.9,-0.9 -2.6,-1.9 -0.5,-0.5 -0.7,-1.3 -0.7,-2.1 0.8,-0.9 2.8,0.1 4.5,-0.2 0.8,-0.2 -0.2,-1.2 1.2,-1 1.1,0 1.3,0.9 1.9,1.4 -0.6,2.2 0.6,3.8 1.2,5.5 0.3,1 0.1,2.5 1.2,2.8 1.5,-4.3 -2.1,-5.5 -1.9,-9.2 0.5,-0.7 1.2,-1.2 2.6,-1 0.9,1.5 0.1,4.7 1.4,6 -0.5,0.2 -0.3,1.8 0,2.1 1.9,-1.8 0.2,-4.2 0.5,-6.9 0.9,-0.9 1.4,-2.4 2.8,-2.6 1.5,-0.2 2.5,1.1 4,1.4 1.2,-2.4 1.3,-6.1 1.9,-9.5 0.8,-3.7 -0.1,-7.5 -0.7,-10.6 -0.7,-0.6 -0.6,-2 -1.6,-2.2 1,4.7 1.1,11.5 0.4,16.4 -0.2,1.3 -0.7,3 -1.9,3.5 -1.1,-0.7 -3,-1.6 -3.3,-3.3 -0.4,-2 1.3,-4.2 1.4,-6.6 0.2,-2.9 -0.4,-6.3 -0.9,-8.1 -0.7,-2.7 -0.8,-4.1 -2.6,-5.2 0,2.2 1.6,5.6 1.9,7.6 0.5,3.2 -0.2,6.9 -0.7,8.8 -0.3,0.7 0,2 -1,2.1 -1.5,-0.6 -3,-2.1 -3.5,-3.3 -0.9,-2 1.1,-3.6 1.4,-5.7 0.5,-4 -1.4,-5.5 -1.4,-8.6 -1.5,-0.7 -0.7,-3.5 -2.4,-4 -0.7,2.8 2.2,6.1 2.6,9.3 0.4,2.6 0,6 -2.1,6.4 -1.5,-1.1 -3.2,-3.3 -1.7,-5.3 -1.2,-0.5 -1.8,-2.6 -1.2,-4.2 -0.9,-0.6 -0.3,-1.7 -0.5,-2.6 -0.2,-1.2 -0.9,-2.3 -1.4,-3.4 -0.3,-0.8 -0.1,-2.4 -1.4,-2.1 0.4,3.4 2.5,6.4 1.4,10.5 -1.8,0.6 -3.2,-1.1 -4,-2.2 v -1.9 c -1.1,-2.3 -0.9,-6.1 -3.3,-7.1 0.3,2.4 2.7,5 1.6,7.1 -2.7,-0.3 -4.2,-4 -6.1,-5.9 -0.7,-1.1 -0.7,-2.8 -2.2,-3.1 -0.7,1.3 1,2 0.7,3.6 1.2,1.3 2.3,2.7 3.1,4.2 1.8,1 3.5,3.1 5.2,4.3 1,0.7 3.3,0.9 2.2,2.9 -5.4,-1 -9,-3.7 -11.6,-7.4 -0.8,-1.6 -1.9,-2.9 -2.9,-4.5 -0.9,-1.4 -2.6,-2.8 -2.1,-4.7 1.9,-0.1 2.8,1.8 4.7,0.9 1.4,-3.1 -1.5,-7.2 0.5,-8.8 2.9,-0.1 3.6,2 5.7,2.7 0,-2.5 -2.5,-2.5 -2.4,-5 0.2,-0.1 0.3,-0.2 0.2,-0.5 3.1,-1.4 3.9,1.5 5.7,2.1 0.3,-1.8 -2,-2.5 -2.1,-4.2 -0.1,-1.6 0.8,-2.8 2.6,-2.6 1.6,0.1 1.4,1.6 3.1,2.1 0.1,-2.1 -1.8,-2.3 -1.4,-4.8 5.7,-2 6.9,5 7.3,9.1 1.7,0.6 3.1,1.7 4.8,2.3 0.1,1 1.1,1.3 1.6,2.2 1.1,1.7 1,4.2 2.6,5.4 0.8,-2.8 -0.9,-5.1 -1.6,-7.1 -1.5,-0.8 -4.6,-3.3 -1.9,-4.7 2.8,1.1 4.4,3.5 5.9,5.9 0.9,2.3 1,5.3 2.4,7.1 0.8,-1 0,-2 -0.3,-3.1 -0.2,-1.1 -0.3,-2.4 -0.7,-3.5 -0.7,-2 -2.7,-3.4 -2.3,-5.7 2.3,-2 3.8,0.7 4.9,3.1 0.4,0.7 1,2 1.2,2.8 1,3.5 -0.1,8 2.2,9.5 0.7,-1.5 0.4,-4 0.2,-5.7 -0.4,-2.7 -1.7,-5.2 -1.9,-7.6 1.8,-1.4 2.9,1 3.8,1.9 0.1,1.7 1.1,3.2 1.4,5.5 0.4,3.3 -0.9,7.3 1.4,8 -0.1,-2.2 0.2,-5.5 -0.2,-8.3 -0.2,-1.4 -1.7,-3.6 0.2,-4 3.3,1.9 4.1,7.2 3.8,12.3 -0.1,2 -1.1,4.4 0.5,5.5 1.5,-3.1 0.1,-9.5 0.9,-12.6 3.2,0.3 2.5,3.2 3.1,6.2 0.1,0.4 0.5,0.7 0.5,1.2 0.1,3 -1.1,6.7 -0.5,9.7 1.4,-0.6 0.9,-2.8 1.2,-4.3 0.1,-0.4 0.4,-0.7 0.5,-1.2 0.2,-2.4 -0.7,-4.8 0.2,-6.6 2.2,-0.1 2.9,3.8 3.1,5.4 0.5,4.3 -2.2,7.2 -1.4,10.2 1.6,-0.1 1.3,-2.2 1.6,-3.5 0.2,-0.7 0.6,-1.3 0.7,-1.9 0.2,-0.7 -0.1,-1.9 0.8,-2.2 1.3,-0.1 0.8,1.6 0.9,2.7 0.2,2.2 -0.2,4.6 -0.2,6.1 -0.6,0.6 -2,3.9 0,4.1 0.5,-0.6 -0.1,-2.4 0.7,-2.7 0.7,0 1.3,0.6 1.9,0 0.7,-2.8 1.9,-6.2 4.5,-6.4 0.7,5.1 -5.4,6.6 -4.8,11.7 2,0.1 1.6,-2.1 2.2,-3.4 0.2,-0.5 0.9,-0.7 0.7,-1.4 0.9,-0.5 1.4,-1.5 2.1,-2.1 1.4,-0.4 2.5,-1 3.6,-1.7 1.1,-0.6 2.5,-1.1 3.5,-1.9 2.8,-2 3.7,-5.9 6.4,-8 1.8,2.4 -0.1,6 -0.7,8.3 -3.1,3.3 -6.1,6.6 -11.4,7.8 0.6,1.4 2.7,1.1 4.1,0.7 1.4,-0.4 2.9,-2.1 4,-1.4 -0.5,3.2 -3.5,4.1 -5.5,5.9 -0.4,0.6 -1.9,0.1 -1.9,1.2 1.9,1.3 3.2,-1.5 5.3,-1.4 1.1,-1.4 2.6,-2.2 3.8,-3.3 0.3,-0.4 0.9,-0.9 1.1,-1.2 1.3,-1.6 1.7,-3.6 2.7,-5.2 0.6,-1.1 1.9,-1.8 2.8,-2.9 0.8,-0.9 1.2,-2.3 1.9,-3.1 0.7,-0.8 1.8,-1.2 2.4,-2.1 0.2,-0.3 0.2,-1 0.4,-1.4 1,-1.5 2.1,-3 2.4,-5 0.6,-0.3 0.8,-1 1.2,-1.4 0.1,-1.7 -0.1,-3.8 1.9,-3.6 -0.3,2.3 -0.1,4.3 -0.5,6.2 -0.1,0.8 -0.9,1.7 -1.2,2.6 -0.1,0.5 0.2,1 0,1.4 -0.7,2 -2.1,3.6 -3,5 -0.5,0.7 -0.8,1.6 -1.2,2.4 -0.7,1.3 -2,3.5 -2.2,5 -0.1,0.6 -0.3,1.3 0.5,1.9 0.9,-1.2 1.5,-2.7 1.7,-4.6 1.5,-1.7 2.7,-3.8 4,-5.9 1.5,-2.4 3.6,-5.5 4,-8.5 0.3,-2.2 0.5,-3 1.2,-4.5 3.1,-1.4 5,-3.9 6.7,-6.7 0.8,-1.2 0.7,-3.5 3,-3.3 0.5,4.6 -1,7.5 -2.6,9.7 -0.3,0.5 -0.5,1.2 -0.7,1.4 -1,1.3 -3.4,1.9 -3.3,4.1 4.1,-0.6 4,-5.3 7.4,-6.7 1,2.3 -0.8,3.7 -0.8,5.7 -0.8,0.7 -1.3,1.7 -1.9,2.6 -1.1,0.8 -2.1,1.8 -3.3,2.7 -0.6,0.4 -2.4,0.5 -1.9,2.1 3.7,0.1 4.3,-2.8 7.1,-3.6 0.2,0.6 0.2,1.5 0,1.9 -0.9,2.6 -5.1,3.3 -6.1,5.7 2.1,-0.1 2.7,-1.7 4.7,-1.9 1.3,2.8 -1.7,5 -3.1,6.6 -1.9,1.1 -3.2,2.6 -6.1,2.7 0.2,0.9 -1.5,0 -1,1.2 1.8,0.7 4.1,-1.5 5.9,-0.8 -1.4,4.6 -5.8,6.2 -10.9,7.2 -0.8,0.9 1.5,1.4 0.7,2.3 -0.7,0.9 -2.2,1.6 -3.5,2.2 -0.4,0.1 -0.8,-0.2 -1.2,0 -0.7,0.2 -1.2,0.7 -1.9,0.9 -1.5,0.3 -2.9,0.2 -3.8,0.5 -0.6,0.2 -1.3,0 -1.2,0.9 1.6,1.2 3.9,-1.2 5,0.3 -1.2,2.4 -4.3,3.5 -7.4,4 -0.8,0.1 -2.3,-0.6 -2.6,0.7 0.5,1.2 2.5,-0.5 2.6,0.9 -0.7,2.4 -4.7,1.5 -6.6,2.7 0,0.7 0.5,1 0.5,1.9 -1,0.7 -2.2,1.8 -3.6,2.3 -1.3,0.6 -2.9,0.4 -4,1 0.3,1.6 3.1,-0.4 3.3,1.2 0.1,0.8 -0.9,1.1 -1.4,1.4 -1.7,1.1 -4.5,2.1 -4.5,4 1.2,0.1 1.6,-1.5 2.6,-0.9 0.4,2.4 -2.9,2.3 -2.1,4.2 0.9,-0.4 1.6,-1.3 2.6,-0.4 -0.5,2.5 -2.5,6.8 0,8.7 0.4,-0.5 0.1,-1.7 0.4,-2.3 0.5,-0.8 2.2,-0.4 2.6,-1.2 0,-1 -1.3,-0.8 -1.1,-1.9 0.4,-0.8 0.5,-1.8 1.9,-1.7 0.5,0.6 0.5,1.8 0.9,2.6 1.5,0.1 1,-2.6 0.7,-3.5 0.9,-1.1 0.8,-3 2.1,-3.6 1.5,-0.3 0.8,1.6 2.2,1.4 0.7,-2 0.9,-4.7 2.3,-6.1 -0.4,-1.8 0.7,-2.3 1,-3.1 0.4,-1 0.2,-2.4 0.5,-3.1 0.5,-1.4 1.8,-2.7 3.3,-3.1 1.2,2 -0.2,4.1 -0.7,5.7 -0.9,0.6 -3,2.2 -1.7,3.3 0.9,0.5 1.5,-1.3 1.9,-2.1 1,-0.1 1.2,-0.9 1.7,-1.4 0.7,-0.4 1,-0.1 1.9,0 1.4,-1.7 2.2,-3.7 4,-5 2.1,-1.5 5.1,-1.8 6.9,-3.8 1.9,-4.2 1.7,-10.5 5.9,-12.3 1.2,2.9 -0.8,6.3 -1.9,8.5 -0.8,0.3 -2.3,1 -1.6,1.9 2.4,-1.2 3.4,-2.9 5.2,-4.7 2.6,-2.7 5.3,-4.6 5.9,-8.8 0.5,-0.4 1,-0.9 1.2,-1.6 -1,-2.4 -1.4,-5.5 -2.1,-8.1 0.7,-0.8 0.2,-2.9 1.6,-3.1 2.6,1.4 2,6.1 1.9,9 1.5,-1.3 1,-3.4 1.4,-5.2 0.2,-0.8 0.8,-1.6 1,-2.4 0.6,-2.1 1,-4.3 0.9,-6.8 2.1,-2.3 1,-6.7 -0.2,-8.3 -0.3,-0.5 -0.5,-1.2 -0.7,-1.5 -1,-1.2 -2.9,-1.7 -3.6,-2.8 -0.6,-1.1 -0.8,-2.8 0,-4.3 2.8,-0.6 3.9,2.7 5.3,4.3 0.1,0.9 0,2.5 1.1,3.1 1,-2.8 -1.2,-5.1 0,-7.6 -0.6,-1.3 -1.3,-3 -0.7,-4.8 -1.9,-2.1 -1.1,-7 -3.3,-9 0.3,-0.3 0.3,-0.8 0.3,-1.4 -1,-2 -3.1,-2.5 -4.6,-3.8 -0.8,-0.7 -0.8,-1.6 -1.9,-2.1 -1.2,0.4 -3,0.8 -4.9,0.7 -2.8,-0.1 -7.2,-0.9 -7.2,-3.3 4,-1 8.2,0.3 11,1.9 -0.7,-2.9 -4.4,-2.6 -5.7,-4.8 -1.1,-0.1 -0.7,1.3 -1.7,1.2 -4.6,0 -9.8,0.9 -11.4,-2.6 0.9,-1.1 4.8,-1.5 7.1,-1.2 1.4,0.2 2.5,1.2 3.4,0.7 -4,-4.3 -10.7,-0.6 -16.2,-0.4 -3.2,-4 5.5,-4.6 8.6,-4.1 -0.2,-0.8 -0.9,-1 -1.4,-1.4 -6.7,-1.1 -9.8,2.3 -14.3,2.9 -1.4,0.2 -4.1,0.2 -5.7,-0.5 0.4,-2.1 3.2,-2.4 5.3,-2.9 0.8,-0.1 1.6,-0.8 2.3,-0.9 2,-0.3 4.3,0.5 6.2,-0.2 -0.4,-1.2 -2.3,-1.4 -3.3,-1.5 -3.8,-0.3 -6.8,1.1 -8.8,1.9 -2.1,0.9 -4.5,1.3 -5.2,2.6 -0.8,0.2 -2.7,1.1 -3.3,0 -0.2,-1.3 0.8,-1.3 0.9,-2.3 0.7,-0.2 1.8,-0.9 2.6,-1.4 0.7,-0.5 2.3,-1.2 1.4,-1.7 -1.7,0.2 -2.9,1.2 -4.2,2.4 -0.7,0.5 -1.5,1.1 -1.9,1.6 -1.5,1.9 -1.9,4.4 -3.6,5.7 -0.5,0.4 -1.8,1 -2.6,1.4 -0.7,0.4 -1.8,1.6 -2.4,0.3 0.6,-1.3 1.2,-2.5 1.9,-3.6 0.7,-1.1 2,-1.8 2.2,-3.3 -1.8,0.1 -2.5,1.6 -3.4,2.6 -0.9,1.1 -1.6,2.3 -2.8,3.1 -0.7,2.1 -2.2,3.7 -1.9,6.2 -0.4,0.6 -1.1,0.9 -1.2,1.9 -2.2,0.9 -2.2,4.1 -5.2,4.2 -0.1,-2 1.1,-2.8 0.9,-4.9 1.1,-0.7 1.3,-2 1.9,-2.9 0.9,-1.3 2.7,-2 2.9,-3.8 -1.4,0.5 -2.3,1.8 -3.1,2.9 -0.9,1.1 -1.6,2.5 -2.8,3.3 -1.2,3.1 -2.7,6.9 -2.7,10.9 0,0.7 0.4,1.3 0.3,1.9 -0.1,0.8 -0.8,1.4 -1,2.1 -0.2,0.8 0.5,1.8 -0.4,2.2 -5.1,-1.4 -10.5,-1 -15.5,0 0,-0.2 -0.2,-0.3 -0.4,-0.3 -0.9,-3.9 -2.8,-6.7 -5.7,-8.5 -0.8,-4.6 2,-8.2 2.6,-12.4 0.2,-1.5 0.1,-3.8 0,-5.9 -0.1,-3.1 -1,-5.2 -1.2,-7.6 -0.1,-0.7 0.1,-1.3 0,-1.9 -0.2,-1.2 -1.2,-2.3 -1.4,-3.5 -0.1,-0.6 0.1,-1.2 0,-1.7 -0.3,-1.3 -1.2,-2.5 -1.4,-4 -0.5,-3.4 0.3,-7.7 -0.3,-11.2 -0.1,-0.9 -0.7,-1.7 -0.7,-2.6 0,-1 0.8,-2.4 1,-3.8 0.1,-0.8 -0.2,-1.9 0,-2.6 0.2,-1.1 1.2,-2 1.4,-3.1 0.8,-4.6 -2.5,-8.1 -0.7,-10.6 8.1,0.8 11.4,-2.2 15.2,-5.73 2.2,-2.13 5.1,-4.01 6.1,-6.64 -2.6,-0.6 -4.1,-2.07 -6.9,-2.61 -4.4,-0.85 -8.9,0.51 -11.6,1.9 -1.6,0.81 -3.6,1.29 -4.2,-0.47 -1.3,-3.68 3.3,-4.08 3.5,-5.93 -0.7,-1.99 -4.1,-1.13 -5.9,-1.42 -1.4,1.32 -3.3,2.63 -4.5,3.79 -0.2,0.19 -0.3,0.53 -0.5,0.71 -1.2,0.96 -2.3,1.41 -4,1.42 -2,-2.06 1.9,-5.52 0,-8.3 z M 65.97,82.45 c -1.33,0.1 -2.69,0.77 -3.66,1.33 -0.43,1.52 -1.01,2.18 -1.66,3.32 -0.29,0.51 -0.46,0.69 -0.47,1.19 -0.1,2.74 3.19,3.44 4.03,5.93 -1.53,0.29 -3.24,0.4 -4.98,0.47 -2.31,2.04 -4.29,4.4 -5.69,7.31 2.49,3.4 6.73,6.9 11.13,10.7 2.06,1.8 3.59,3.3 5.69,5.2 1.57,1.5 4.34,4.5 6.64,4.3 1.75,-0.2 4.69,-3.1 5.46,-4 0.23,-0.3 0.82,-0.5 0.95,-0.7 2.72,-3.9 -1.92,-3.9 -2.85,-6.9 h 2.37 c 3.57,-1.9 6.75,-4.2 8.06,-8.3 -2.83,-2.64 -5.83,-5.09 -8.06,-8.31 -2.43,-1.76 -4.67,-3.71 -6.4,-6.17 -1.64,-0.81 -2.93,-1.97 -3.79,-3.56 -1.3,0.11 -1.2,-1.17 -2.37,-1.19 -0.59,-0.56 -1.4,0 -2.13,0 -0.68,-0.52 -1.47,-0.67 -2.27,-0.62 z m 0.83,2.05 c 1.44,0.1 3.8,2.49 4.98,3.79 3.74,4.13 10.25,9.55 13.04,13.31 0.98,0.4 1.7,1.1 2.37,1.9 -0.88,2.5 -2.67,5.2 -4.98,5.4 -1.94,0.2 -4.93,-1.8 -7.35,-2.8 -2.68,-1.1 -5.21,-2.3 -7.35,-2.1 -0.11,1.9 1.61,1.8 2.61,2.6 1.37,1 3.27,3 5.22,4.7 1.47,1.3 4.85,3.4 4.98,5 0.12,1.5 -2.36,4.1 -4.27,4 -1.19,-0.1 -2.87,-2 -4.03,-3.1 -3.16,-2.9 -5.97,-5.3 -9.25,-8.3 -2.32,-2.1 -5.25,-4.7 -7.35,-7.1 0.57,-2.42 2.48,-3.52 3.79,-5.21 2.24,-0.21 5.38,0.48 6.88,-0.47 1.69,0.23 3,2.76 4.74,1.42 0,-2.34 -2.78,-1.96 -3.32,-3.79 -1.67,-1.32 -5.88,-2.45 -5.22,-6.17 0.25,-1.4 2.87,-3.19 4.51,-3.08 z m 112.3,1.38 c 0.3,0 0.5,0 0.8,0 1.3,2.38 -2.9,3.32 -2.6,0.47 0.5,-0.25 1.1,-0.48 1.8,-0.51 z m 125.6,0.78 c -2.4,0 -4.6,1.76 -6.7,2.08 -0.8,0.12 -1.6,-0.17 -2.3,0 -2.6,0.61 -4.6,3 -6.7,3.08 -1.2,0.1 -1.8,-0.59 -2.8,-0.71 -1.4,-0.14 -2.2,0.28 -3.1,0.73 -2.1,1.08 -2.6,2.72 -3.6,4.74 -1.3,0.75 -2.9,0.7 -3.5,2.13 -0.4,0.94 -0.3,3.59 0,4.99 0.6,2.6 2.9,5.1 4.5,5.2 2.5,0.2 3.4,-2.5 6.1,-1.9 0.4,1.9 -1,2.4 -1.1,4 0,0.6 0.2,1.4 0.4,2.2 0.7,2.2 1.4,2.6 2.9,3.8 0.8,0.6 1.6,1.2 2.3,1.6 1.9,-0.7 2.5,-2.3 3.6,-3.5 1.1,-1.3 2.6,-2.3 3.8,-3.6 1.8,-1.9 3.6,-3.9 5.2,-5.7 0.6,-0.7 1.1,-1.5 1.7,-2.1 2.7,-3.1 5.9,-5.94 5,-12.35 -1.7,-0.77 -1.4,-3.12 -3.1,-4.03 -0.9,-0.49 -1.8,-0.67 -2.6,-0.66 z m -140.3,1.13 c 0.3,0 0.6,0 0.8,0 0.6,0.61 1,1.4 1,2.61 0.8,1.43 2.9,1 3.8,2.37 0.7,1.19 0.4,3.01 1.1,4.74 -4.2,0.95 -4.7,-3.98 -6.1,-6.64 -0.7,-0.68 -1.5,-1.2 -1.9,-2.13 0,-0.8 0.6,-0.95 1.3,-0.97 z m 140,1.09 c 1.2,0 2.3,0.53 3.4,2.02 1.3,1.96 1.3,4 -0.3,6.17 -1.1,1.53 -3.2,2.66 -3.8,4.93 -1.9,1.4 -3.7,3.6 -6.1,6.2 -0.7,0.8 -1.7,1.4 -2.4,2.4 -2,2.5 -4.7,5.9 -7.6,1.6 -0.2,-5.2 4,-6 5.2,-9.7 -1.2,-1.3 -2.1,0.6 -3.3,0.7 -1.1,0 -1.3,-0.9 -2.4,-0.9 -1.8,0 -4.6,2.6 -6.4,2.6 -1.8,0 -3.4,-1.4 -3.3,-3.6 0.2,-2.25 2.8,-2.23 4,-3.99 0.7,-0.97 0.6,-1.77 1.2,-3.08 1.3,-0.32 1.6,-1.18 3.1,-1.19 1.5,0 2.8,1.24 4.3,1.18 1.9,-0.1 5,-2.5 7.1,-3.32 1,-0.39 2.3,-0.55 3.3,-0.95 1.5,-0.57 2.8,-1.08 4,-1.07 z m -128.2,0.1 c 0.3,0 0.6,0 0.9,0 1.4,1.72 1.4,4.88 3.8,5.69 0.3,3.56 2.2,5.53 3.3,8.33 -2.2,0.9 -3.3,-1.2 -4.5,-1.9 0.1,-1.37 -1.7,-2.95 -2.4,-5.01 -0.2,-0.73 -0.2,-1.45 -0.5,-2.13 -0.6,-1.51 -4.3,-4.93 -0.6,-5.01 z m -16.7,0 c 4.1,0.18 5.2,3.36 5.5,7.35 -3.1,-0.29 -3.5,-4.56 -5.5,-6.4 z m -2.6,1.25 c 2.4,0.1 3,3.15 3.6,5.39 -2.8,-0.29 -2.7,-3.46 -4.8,-4.51 V 90.4 c 0.5,-0.12 0.8,-0.18 1.2,-0.17 z m 15.5,0.86 c 0.5,0 0.9,0.15 1.4,0.26 1.4,2.33 1.9,5.62 3.3,8.06 0.8,0.99 2,1.39 2.4,2.89 h -2.9 c 0,2.3 2.6,3.3 3.1,5.6 0.2,1.1 -0.3,2.5 -0.3,3.8 0.1,1.5 0.8,2.9 0.3,4.8 -0.9,0.2 -1,1.8 -1.7,2.6 -0.4,0.4 -1.5,0.8 -2.1,1.4 -0.6,0.6 -0.9,1.4 -1.4,1.9 -0.9,0.8 -2.3,1.7 -3.6,2.9 -2.3,2 -3.9,3.7 -6.4,6.1 -1.7,1.7 -2.7,3.4 -4.7,2.2 -1.2,-2.7 0.5,-4.3 1.4,-6.4 0.9,-2.2 1.2,-5.4 -0.2,-7.6 -2.1,-3.4 -7.1,-4.4 -11.9,-5 1.7,-3.8 8.5,-1 11.6,-2.6 -0.6,-3.8 -2.9,-5.9 -3.3,-10 -0.8,-1.2 -2.9,-1 -2.6,-2.83 0.2,-1.8 4.2,-1.91 6.2,-1.66 0.6,0.1 1.3,0.59 2.1,0.71 0.5,0.1 1.3,-0.12 1.9,0 3.7,0.85 6.8,3.98 9.5,3.08 0.1,-1.63 -0.8,-2.23 -1.4,-3.08 0.4,-3.04 -2,-4.52 -1.2,-7.11 0.2,0 0.4,0 0.5,0 z m -17.9,0.97 c 1.3,0.11 1.5,2.31 2.2,3.56 -1.3,0.64 -2.4,0.87 -3.8,0.47 -0.6,-2.05 0.3,-4.15 1.6,-4.03 z m 40.5,0.26 c 1.4,0 3,0.66 3.9,1.17 -0.1,1.94 -2.1,3.86 -3.8,3.56 -1.3,-0.24 -2,-2.12 -2.1,-3.79 0.4,-0.68 1.2,-0.94 2,-0.94 z m -4.3,1.34 c 0.2,0 0.5,0 0.8,0.1 0.4,2.2 1.7,3.41 2.7,4.98 -0.1,0.94 -1,1.09 -1.5,1.66 -2.5,-0.3 -5.9,-6.57 -2,-6.7 z m -6.6,1 c 0.8,-0.14 2.1,0.5 3.4,1.43 0.1,1.58 1,2.36 1.9,3.56 0.3,0.45 1.3,1.35 1.2,1.95 -0.2,2.1 -4.4,1.3 -5.4,-0.3 -0.3,-0.3 -2.3,-5 -2.2,-5.44 0.2,-0.75 0.5,-1.11 1.1,-1.2 z m 115,0.31 c -1.1,0 -2,1.2 -3.2,1.83 -0.8,0.4 -1.5,0.24 -1.9,0.95 -0.2,1.37 0.9,1.48 1.4,2.14 2,-1.22 4.7,-1.63 5,-4.51 -0.5,-0.3 -0.9,-0.42 -1.3,-0.41 z M 41.63,103.2 c -3.09,0 -5.89,2 -4.47,6.4 1.73,1.5 4.13,2.3 6.4,2.6 -0.52,1.6 -2,2.1 -1.42,4.8 -0.68,1 -2,1 -2.61,2.1 -0.16,0.3 -0.51,1.3 -0.47,1.2 -0.26,1.2 0.3,3.3 0.47,5.2 0.22,2.5 -0.19,3.1 0.47,4.3 1.65,2.9 4.88,5.7 7.35,7.3 0.56,0.4 1.12,1.1 1.66,1.4 0.52,0.3 1.29,0.2 1.9,0.5 0.58,0.3 0.89,0.9 1.42,1.2 0.89,0.4 2.13,0.6 3.08,0.9 1.19,0.5 2.28,0.9 3.08,1 4.35,0.4 7.51,-1.6 9.49,-3.3 0.19,-0.2 0.5,-0.1 0.71,-0.3 2.26,-1.7 5.03,-5.2 4.74,-9.2 0,-0.6 -0.54,-1.3 -0.71,-1.9 -0.17,-0.6 0,-1.2 -0.24,-1.9 -0.5,-1.5 -1.81,-3.7 -2.61,-4.5 -0.56,-0.6 -1.46,-0.8 -2.13,-1.4 -0.57,-0.6 -0.86,-1.5 -1.42,-1.9 -0.86,-0.8 -2.78,-1.5 -3.79,-2.2 -0.91,-0.6 -1.12,-1.7 -2.61,-1.4 -0.35,-1.2 -1.84,-1.2 -2.37,-2.1 -1.48,0.4 -3.48,-0.3 -5.46,-0.5 -1.91,-0.1 -4.06,0.5 -5.45,-0.5 0.1,-1.7 1.06,-1.4 1.19,-2.8 0.27,-3.1 -3.1,-5 -6.2,-5 z M 166,103.6 c -1.8,0 -3.7,0.3 -5.3,0.8 -0.1,1.6 1.2,1.6 2.2,2.1 0.7,0 0.8,-0.7 1.6,-0.7 0.8,0.8 1.5,1.6 2.6,1.9 0.9,0.1 0.6,-0.9 1.7,-0.7 -0.1,1.5 1.9,1.7 3.1,1.2 0.1,-0.2 0,-0.5 0.2,-0.5 -0.4,-2.9 -3.1,-4 -6.1,-4.1 z m -124.79,1.5 c 0.59,0 1.22,0 1.88,0.2 1.27,1.1 0.83,2.8 0.47,4.6 -1.08,1.2 -5.05,-0.7 -5.22,-2.2 -0.15,-1.3 1.12,-2.5 2.87,-2.6 z m -0.37,2 c -0.25,0 -0.51,0.1 -0.83,0.4 -0.13,1 0.34,1.5 1.42,1.4 0.27,-0.3 0.27,-0.8 0.24,-1.4 -0.33,-0.3 -0.58,-0.4 -0.83,-0.4 z m 275.66,2 c -2.8,0.1 -5.5,1.2 -8,1.7 -2.8,2 -6,3.4 -8.6,5.2 -0.9,0.7 -1.7,1.6 -2.8,1.9 0.2,1.6 -1,1.7 -1.4,2.6 0,4.2 -1.4,8.3 0.2,11.4 0.8,1.5 4.8,4.5 6.4,4.8 3.1,0.5 8.6,-0.1 10,-1.2 0.6,-2.5 2.1,-4.2 2.1,-6.4 0,-2.2 -2.3,-3.3 -2.6,-5.7 0.8,-0.9 2.8,-1.3 4,-1 0.8,1.3 0.3,3.1 1,4.3 0.3,0.6 1.2,0.9 1.9,1.4 1,0.8 1.1,1.3 2.1,1.4 0.3,0 1.9,-0.2 2.4,-0.4 2.2,-1.1 3.2,-3.4 4.2,-5.5 0.5,-1 1.3,-2.1 1.4,-2.6 0.6,-2.2 0,-4.8 -0.7,-5.9 -0.8,-1.5 -1.4,-2.1 -2.6,-2.9 -2.1,-1.4 -4.8,-2.8 -7.8,-3.1 -0.4,0 -0.8,0 -1.2,0 z m -0.2,1.9 c 0.3,0 0.6,0 0.9,0 4.4,0.2 6.1,2 9.1,4 0.2,2 1.3,2.3 1.4,3.6 0.1,2.7 -4.9,9.3 -8.8,5.7 -0.6,-0.6 -1.8,-2.2 -1.7,-3.1 0.2,-1.5 1.6,-0.9 1.9,-2.6 -1.8,-2.6 -5.8,0.1 -8.3,1.2 -2.5,1.1 -6.8,2 -5.9,5.2 1.6,1 2.9,-0.4 4.3,-0.2 2.6,0.4 3.4,3.5 2.6,6.2 -2.3,1.3 -5.5,2 -8.8,1.4 -2.6,-0.5 -4.4,-2.8 -5.7,-3.8 -0.9,-2.4 -0.1,-4.8 0,-7.4 0.8,-0.4 1.1,-1.3 1.4,-2.1 1.8,-1.1 3.9,-2.9 6.4,-4.3 3.3,-1.7 6.3,-3.7 11.2,-3.8 z m -153.4,1.5 c -0.1,0.3 -0.4,0.4 -0.3,0.9 0.6,1.3 1.7,2.5 2.2,4.3 0.3,1.3 -0.4,3.3 1.1,3.8 1.2,-1.5 2.7,-2.8 4.8,-3.6 2.5,-1 6.3,-0.6 7.1,-3.6 -1.9,-0.5 -2.8,1.4 -4.7,1.7 -4,0.5 -7.6,-2.1 -10.2,-3.5 z m -115.48,0.9 c 9.52,0.1 15.16,5.5 20.1,10.7 0.79,1.9 1.5,3.9 2.13,5.9 -0.38,1.4 -0.63,2.3 0,3.6 -0.56,0.6 -0.78,1.6 -0.95,2.6 -3.58,2.2 -6.35,5.3 -12.1,3.8 -1.02,-0.3 -2.13,-1.2 -3.32,-1.7 -2.42,-1 -3.3,-0.9 -4.74,-2.6 -0.4,-0.5 -0.57,-1 -0.95,-1.4 -1.51,-1.6 -4,-2.8 -4.98,-4 -0.64,-0.8 -0.69,-2.1 -1.42,-2.7 0.13,-2.8 -1.37,-5.5 0,-7.5 1.6,-0.2 2.11,1.4 3.56,0.7 0.41,-1.5 -1.75,-3.4 -0.95,-5.3 0.28,-0.9 1.25,-1.2 1.66,-2.1 0.67,-0.1 1.32,-0.1 1.96,-0.1 z m 0.65,8.3 c -0.24,0 -0.28,0.2 -0.47,0.3 -0.38,0.9 0.54,1.8 1.19,2.8 0.46,0.7 1.05,1.9 1.65,2.6 2.11,2.3 7.56,6.6 10.91,4.3 0.46,-1 -0.1,-2.9 0.71,-3.6 -1.57,-2.5 -4.77,-4.8 -8.3,-5.7 -1.84,-0.4 -4,-0.2 -5.69,-0.7 z M 156,124 c 0.3,0 0.6,0.1 0.9,0.1 0.5,1.1 0.1,3.2 -0.9,3.5 -0.6,2.3 0.1,5.9 -2.6,6.2 -1.2,-2.4 1.7,-5.6 0,-7.1 -0.6,1 -1.3,2.3 -1.7,3.8 -0.6,2.4 -0.1,5.5 -1.6,7.1 -2.3,-1.1 -0.5,-5.4 -0.5,-7.8 -3,2 -1.6,8.6 -3.1,10.9 -3,-1.1 -0.1,-7.4 -0.9,-10 -2.7,1.1 -1.8,5.7 -3.1,8.1 0.5,1.4 1.8,4.7 0,5.7 -3.9,-1.2 -1.7,-7.8 -2.9,-11.2 -2.3,0.8 -1.7,5.9 -1.4,8.1 0.3,2.2 0.2,4.8 0.7,6.6 -1,0.9 -2.4,1 -3.1,-0.9 -0.1,-0.3 0.3,-0.8 0.3,-1.5 0,-0.4 -0.5,-0.9 -0.5,-1.1 0,-2.2 1.3,-4.9 -0.2,-5.5 -1.3,0.6 -0.8,2.1 -1,3.3 -0.3,1.9 -1.3,3.9 -0.9,6.9 0.4,1.2 1.2,2 0.9,3.8 -0.8,0.7 -1.8,1.4 -3.1,0.9 -2.1,-1.5 0.2,-7.6 -1.6,-9.4 -1.4,0.6 -0.4,3.6 -1.7,4.2 -0.6,2.5 1,4.8 0,6.2 -0.3,0 -0.4,0 -0.5,0.2 -5.2,-2 -2.7,-12.8 1.4,-13.9 0.4,-3.4 2.9,-4.6 5.3,-6 1.4,-2 2.8,-3.6 5.4,-5.2 3.1,-1.9 6.2,-2.6 10.5,-4 2.3,-0.8 3.8,-2.1 5.9,-2 z m 2.6,0.1 h 0.9 c 0.6,1.1 0.6,4.3 -1.4,4.2 -0.3,-1.8 0.7,-2.4 0.5,-4.2 z m 16.7,4.2 c 0.4,0 0.8,0.1 1.3,0.3 0.8,2.4 -1.2,4.2 -2.9,6.1 -1.3,1.6 -3.2,3 -3.5,4.1 -0.1,0.3 -0.8,2.4 0.9,2.3 0.8,-0.2 0.8,-1.2 1.2,-1.9 2.3,-1.8 3.5,-4.7 5.7,-6.6 1.8,1 0.6,3 0,4 -0.6,1.2 -1.6,2.4 -2.4,3.4 -1.7,2.1 -4.8,4.1 -3.7,6.8 2.9,-1.7 3.4,-6 7.1,-7.1 1.2,2.4 -1.3,4.8 -2.6,6.4 -1.2,1.4 -2.2,2.7 -3.4,3.3 -0.1,1.9 -2.1,1.9 -1.6,4.3 2,0 3,-2.3 4.2,-3.8 0.7,-0.7 1.5,-1.4 2.2,-2.1 0.6,-0.7 1,-2.1 2.3,-1.7 -0.8,5.9 -5.7,7.7 -8,12.1 1.3,1.9 3.5,-0.4 3.8,-1.9 2.4,-0.7 2.3,-3.8 4.7,-4.5 0.9,3.3 -1.9,4.9 -2.6,7.4 -1.1,1.1 -2.6,2.4 -4,3.8 -1.1,1 -3.6,2.6 -1.9,4.2 1.2,-0.1 1.9,-1.3 2.6,-2.1 1.5,-1.6 3,-3.1 4.5,-5 0.7,-0.8 1.2,-2 2.4,-2.3 1.6,1.6 -0.7,3.7 -0.7,5.2 -1.8,2.3 -4.2,4.4 -6.4,6.6 -1,1 -3,2.1 -1.9,3.8 1.1,-0.3 2,-1.3 2.8,-2.1 0.8,-0.8 1.6,-1.6 2.4,-2.4 1.5,-1.6 2.5,-3.7 4.2,-5.2 1.5,2.7 -0.8,5.4 -1.4,7.6 -1.1,1.2 -2.1,2.4 -2.6,4.2 -1.2,0.9 -1.6,2.3 -2.6,3.4 -1.8,1.9 -4.3,3.5 -6.4,5.4 -0.5,0.5 -0.8,1.2 -1.4,1.7 -1.1,0.9 -2.1,1.3 -3.1,2.6 -0.5,-0.1 -0.9,0 -1.2,0.2 -0.2,0.6 -0.9,0.7 -1.2,1.2 -2.3,0.7 -4.5,2.3 -7.3,1.2 -0.2,-1.1 1.3,-0.5 1.9,-0.9 3,-1.6 6.2,-3 7.6,-6.2 -1.1,-0.6 -2.1,0.6 -2.9,1.2 -2.1,1.6 -5.6,4.2 -8.8,4.7 -0.8,0.2 -1.6,0.4 -2.3,-0.2 -0.6,-0.7 0.8,-1 1.6,-1 2.4,-1.1 5.1,-2.8 7.6,-4.2 1.8,-1 4.8,-1.8 4.1,-4.3 -1.7,0 -2.3,0.9 -3.1,1.7 -4.1,2.2 -9.3,5.6 -16.2,5.6 -2.1,0 -5.4,0.3 -5.9,-1.9 7.4,0 14.1,-0.3 19.2,-3.5 1.4,-1.6 4.4,-1.7 4.8,-4.3 -1.4,-0.2 -3.1,1.2 -4.5,1.9 -2.5,1.2 -4.1,2 -7.4,2.9 -0.7,0.1 -1.4,1.1 -1.9,0.2 0,-1.9 2.8,-1 3.6,-2.1 0.7,-0.2 0.7,0.4 1.2,0 2.8,-1.5 5.7,-2.8 7.5,-5.3 -1.3,-1.5 -4.4,1.4 -5.9,2.2 -2.4,0.1 -3.4,1.8 -5.9,1.9 0.2,-2.1 2.6,-2.3 3.8,-3.1 1.2,-0.9 2.5,-2.1 3.5,-3.1 4.1,-4 6.7,-10.1 10,-15.4 -0.2,-0.9 0.3,-1.1 0.2,-1.9 1.1,-1.3 1.6,-3.7 1.7,-5.4 0,-0.3 1.2,-1.9 0,-2.4 -1.8,0.3 -1.4,2.9 -2.6,3.8 -3.8,-1.5 -1,-9.4 -2.9,-12.8 -1.4,0.1 -0.8,2.1 -0.9,3 -0.2,1.4 -0.7,4.4 -0.5,6.7 0.1,0.6 0.6,1.4 0.7,2.1 0.3,2.3 0.5,4.1 1.7,5.5 -0.3,1.8 -1,3.2 -2.1,4.2 -0.9,0 -0.9,-0.8 -1.7,-0.9 -0.7,-4.6 -1.1,-9.5 -1.4,-14.5 -1.4,0.9 -0.9,3.9 -1.2,5.9 -0.1,0.7 -0.5,1.3 -0.5,1.9 0,0.8 0.7,1.7 1,2.9 0.2,1.3 -0.1,2.9 0.2,4 0.5,2.2 1.8,2.5 1.4,4.5 -0.1,0.8 -1.2,2.4 -2.1,2.4 -1.9,-0.1 -1.8,-3.6 -2.1,-5.7 -0.1,-0.5 -0.5,-1.1 -0.5,-1.4 -0.5,-4.9 1,-10.7 0,-14.2 -1.3,0.8 -0.7,3.2 -1,4.9 -0.2,1.7 -0.8,3.4 -0.9,4.8 -0.2,1.7 0.4,3.6 0.5,5.4 0,0.5 -0.3,1.2 -0.3,1.7 0.1,0.5 0.6,1.1 0.7,1.7 0.3,0.8 0.4,2.1 0.7,3.3 0.5,1.4 1.2,2.3 1,3.1 -0.4,1.5 -2.7,2.1 -3.6,0.7 -0.3,-0.6 0.1,-1.2 -0.2,-1.9 -0.3,-0.9 -1.1,-1.8 -1.2,-2.4 -0.9,-3.5 -0.2,-9.1 -0.2,-14 0,-2.9 -0.2,-6.2 -1.5,-7.8 -0.9,0.2 -0.2,1.6 0,2.1 0.6,5.4 -1,12.3 -0.4,18.3 0.3,3.4 2.3,6.3 1.9,9.5 -2.6,1.5 -3.5,-1.7 -4.1,-4.6 -0.1,-0.9 -0.7,-1.8 -0.9,-2.8 -0.7,-3.7 0.3,-8.1 -0.5,-10.2 -1,0.2 -0.8,1.8 -0.9,2.8 -0.4,2.3 -0.6,6.9 0,10.5 0.4,2.4 1.8,4.3 1.9,5.9 -0.1,1.4 -2.2,0.8 -3.6,1 -1.1,-1 -2.1,-4.1 -2.4,-6.2 -0.7,-6.2 3.2,-13.1 1.2,-19.2 -1.7,0.9 -0.8,3.4 -0.9,5.7 -0.2,3.1 -1.6,5.9 -1.9,9 -0.4,3.9 0.3,8.1 1.2,11.1 -5.4,0.6 -3.3,-6.3 -4.5,-9.9 -0.6,0 -0.8,0.3 -1.2,0.4 -0.7,0.5 0.6,0.8 0.2,1.7 -1.5,2.8 0.9,6.1 0.3,8.8 -0.6,0.5 -1.2,-0.3 -2.2,0 v 0 c -0.3,-1.2 0.8,-1 0.7,-1.9 -0.1,-1.4 -0.7,-2.3 -1.2,-3.4 -0.6,-5.2 1.4,-8.2 1.7,-12.8 0.1,-0.9 -0.2,-2.1 0,-3 0.3,-1.4 1.5,-2.6 2.4,-3.8 0.9,-1.3 1.7,-2.6 2.6,-3.6 2,-2.3 4.4,-4.3 6.6,-5.7 3.9,-4.4 8.3,-8.3 13.1,-11.8 0.5,0.9 -0.5,2.6 0.2,3.7 1.3,0.6 2.3,-0.5 3.8,-0.4 0.5,-0.3 0.5,-1.1 0.7,-1.7 1,0 1,-0.9 2.1,-0.7 1.9,-1.4 2.5,-4 5.5,-4.3 0.3,1.8 -1.9,2.2 -1,3.8 2.5,-1 3.3,-5.3 6.1,-5.2 z m -145.53,0.8 c -3.89,0.1 -7.55,1.1 -6.4,6.6 1.59,1.5 4.29,1.9 7.15,2.1 0.21,2.8 -1.04,4.2 -1.19,6.7 0.73,1.7 3.35,1.5 3.79,3.5 -0.71,1.2 -2.42,1 -3.56,2.2 -2.34,2.4 -3.49,9.8 1.42,9.7 0.94,0.8 2.29,1.1 3.56,1.6 1.24,0.5 2.52,1.3 3.79,1.7 1.56,0.5 3.35,0.6 4.98,1.2 1.52,0.6 2.88,1.5 4.27,1.9 2.35,0.7 4.21,0.1 6.17,0.2 3.12,-1.4 5.35,-3.6 7.11,-6.4 -0.26,-1.5 1.1,-2.4 1.42,-3.5 0.14,-0.5 -0.1,-1.5 0,-2.2 0.11,-0.7 0.49,-1.2 0.47,-1.9 0,-0.7 -0.25,-2.2 -0.47,-2.8 -0.92,-2.5 -3.21,-3.7 -5.69,-5.2 -1.66,-1 -3.82,-2.1 -5.46,-2.9 -0.39,-0.2 -0.83,-0.3 -1.19,-0.5 -0.89,-0.3 -1.8,-0.3 -2.61,-0.7 -1.58,-0.6 -2.89,-1.7 -4.27,-2.3 -0.34,-0.2 -0.84,0.1 -1.19,0 -1.98,-0.7 -3.57,-2.2 -5.22,-2.2 -1.01,0.4 -2.39,1.4 -3.56,0.7 0.22,-1.5 1.03,-2.8 0.71,-4.5 -0.27,-1.4 -1.61,-2.3 -2.37,-3 -0.55,0 -1.11,0 -1.66,0 z M 27.7,131 c 0.58,-0.1 1.22,0 1.87,0.2 1.06,0.8 1.31,3.6 0.47,5 -2.57,0.3 -4.3,-0.3 -5.22,-1.7 -0.18,-2.1 1.12,-3.3 2.88,-3.5 z m -0.57,1.1 c -0.12,0 -0.26,0 -0.41,0 -0.91,0.7 -0.23,2.2 0.95,2.2 0.42,-0.7 0.31,-2 -0.54,-2.2 z m 305.47,0.3 c -2,-0.1 -3.1,1.1 -4.5,1.6 -1.6,0.7 -4.3,1.7 -5.9,1.5 -0.9,-0.1 -1.8,-1.2 -2.6,-1.2 -2.8,-0.2 -6.1,2.9 -7.1,4.2 -2.6,0.7 -5.2,1.2 -7.1,2.4 -2.1,2.6 -0.8,7.2 -0.3,10.5 1,1.6 2.8,1.4 5,0.9 1,3.5 -0.4,9.4 2.9,11.4 3.8,0.4 5.2,-1.6 8.7,-1.4 2.3,-0.9 5.2,-2.2 8.6,-3.1 0.4,-0.1 0.9,0.1 1.4,0 1,-0.3 2.4,-1 3.8,-1.4 1.4,-0.5 3.4,-0.8 4,-1.2 1.2,-0.8 3.2,-4.1 3.3,-6.7 0.2,-2.1 -0.6,-5.4 -2.6,-5.9 -2.3,-0.5 -2.7,1.3 -4.9,0.5 -0.5,-2.2 1.4,-3.7 1.6,-5.7 0.2,-2.5 -1.4,-5.7 -3.3,-6.2 -0.3,-0.1 -0.6,-0.1 -1,-0.2 z m -0.9,2.3 c 1.1,0 1.6,0.4 2.4,0.8 0.8,1.7 0.1,3.4 0.2,5.7 -2.2,1.4 -5.8,1.4 -8,2.8 0.6,1.6 1.4,3 2.1,4.5 1.6,0.5 3.5,-0.3 5.7,-0.9 1.9,-0.6 4.1,-1.9 5.4,-1.5 2.5,0.8 1.2,4.7 0,6.4 -6,2 -12.4,4.3 -19.2,6 -1.5,0.3 -3.1,1.4 -4.5,1.4 -3.1,-0.1 -4.7,-4.1 -2.6,-7.1 3.1,-1.4 8.4,-0.7 10,-3.6 -0.5,-1.3 -1.9,-0.7 -3.1,-0.4 -1.3,-0.6 -1.6,-2.1 -2.9,-2.7 -1.4,0.6 -3.9,1 -5.9,1.7 -0.8,0.2 -1.7,1 -2.4,0.9 -2.5,-0.1 -3.3,-2.8 -2.3,-5.9 2.1,-1.8 5,-1.2 7.1,-2.6 1.8,-1.3 2.8,-3.5 5.2,-3.8 1.1,0.3 1.9,0.9 2.9,1.4 2.9,0.1 6.7,-2.6 9.4,-3 0.2,0 0.4,-0.1 0.5,-0.1 z m -296.44,3.9 c 5.47,2.5 12.55,5 18.02,8 0.74,0.4 1.84,0.8 2.37,1.2 2.21,1.7 4.42,5.7 3.79,9.7 -0.44,2.9 -4.2,7.1 -7.83,7.4 -3.54,0.3 -7.06,-1.5 -11.15,-2.9 -1.58,-0.5 -3.45,-1.3 -5.22,-1.9 -3.03,-1 -5.14,-1.2 -6.17,-3.8 0.88,-2.1 1.21,-5 3.32,-5.4 1.88,-0.4 6.78,2.5 8.77,3.3 3.31,1.3 6.08,2.5 8.54,3.3 6.02,-3 -4.31,-5.8 -6.64,-7.6 -4.52,-1.5 -8.93,-3.1 -11.86,-6.1 0.6,-2.5 1.77,-4.5 4.06,-5.2 z m 205.64,20.9 c 1.2,0 2.5,0.7 3.5,0.6 3,2.9 7.4,5.7 7.4,10.7 -2.2,0.1 -4.3,-1.8 -6.4,-2.6 -0.7,-1.1 -1,-2.1 -1.7,-3.1 -1.2,-1.8 -3.4,-2.9 -4,-5.2 0.4,-0.3 0.8,-0.4 1.2,-0.4 z m -8.3,0.6 c 0.6,0 2.5,0.2 3.5,0.7 0.7,0.4 1.1,1.2 1.9,1.7 2,1.1 5.1,1.9 4.8,4.7 -1.6,0.5 -3.8,-0.2 -5.9,0 -1.2,-0.4 -1.7,-1.6 -2.7,-2.3 -1.6,-1.2 -4,-1.4 -5.2,-3.1 0.9,-0.9 2.4,-1.6 3.6,-1.7 z m -203.97,2.6 c -1.57,0.1 -4.09,1.3 -4.74,2.4 -0.59,1 -0.25,2.1 -0.47,3.6 -0.19,1.2 -0.83,2.5 -0.95,3.7 -0.41,4.3 0.16,9.2 -0.47,12.9 1.67,1.9 4.62,2.6 8.28,2.6 1.47,-1.8 2.23,-4.3 4.27,-5.5 6.13,2.1 12.2,4.3 18.74,6 2.23,-2.9 4.24,-5.9 4.03,-11.2 -5.95,-2.7 -13.01,-4.4 -19.21,-6.9 -1.15,-0.2 -1.22,0.7 -2.37,0.5 -1.95,-0.7 -1.37,-3.1 -0.47,-4.5 -0.31,-0.6 -0.72,-1.2 -0.95,-1.9 -1.74,-0.5 -3.71,-1.8 -5.69,-1.7 z M 224.3,163 c 2.1,-0.1 5.9,1.6 7.3,2.6 0.9,0.6 2.1,0.7 1.7,1.6 -0.5,0.9 -1.6,0.6 -2.4,0.8 -0.7,0.1 -1.7,0.5 -2.4,0.4 -1.5,-0.1 -3,-1.5 -4.7,-2.1 -1.1,-0.4 -2.3,-0.1 -2.8,-1.2 0.2,-1.4 2.1,-2.1 3.3,-2.1 z m 26.8,0 c 5.3,0.4 7.7,7 7.3,13 -1.8,-0.3 -3.8,-2.6 -5.2,-4.2 0.2,-3.8 -1.6,-5.7 -2.1,-8.8 z m 72.6,1.3 c -0.4,0 -0.7,0 -1,0.1 -1,0.2 -1.6,1.1 -2.6,1.4 -1.9,0.5 -3.9,-0.1 -5.2,1 -0.8,2.6 -3.2,7.3 -1.2,10.2 1.2,1.8 4,0.6 5.4,2.3 -0.9,1.8 -1.8,3.4 -2.1,5.3 -0.5,2.6 -0.4,4.3 0.7,6.6 3,1 5.1,-0.6 6.9,-1 0.6,-0.1 1.5,0.2 2.1,0 2.3,-0.3 4.6,-1.7 6.9,-2.3 1,-0.3 2.1,-0.3 3.1,-0.5 2.8,-2.5 6.9,-1.9 9.5,-4.3 1,-0.9 1.3,-2.3 1.9,-4 0.3,-0.9 0.9,-2 0.9,-2.4 0.4,-2.3 -0.6,-3.4 -1.2,-5.4 -4.3,-3.2 -12.7,-2.3 -18.2,-4.3 -0.7,-1 -1.3,-2.1 -2.4,-2.4 -0.7,-0.2 -2.3,-0.3 -3.5,-0.3 z m -296.54,1.2 c 1.52,-0.1 2.73,1.2 4.3,1.5 0.97,2.1 -0.1,4.9 -0.24,7.8 1.99,0.4 1.5,-1.6 2.85,-1.9 7.36,1.8 14.05,4.3 20.4,7.1 0.36,3.6 -1.06,5.3 -2.61,6.9 -6.2,-2.6 -13.12,-4.4 -19.92,-6.4 -1.64,0.8 -0.69,4.2 -2.13,5.2 -1.96,0.6 -4.12,-0.3 -6.17,-0.4 0.23,-3.4 -0.29,-9.8 0.47,-14.3 0.1,-0.3 0.49,-0.8 0.71,-1.6 0.43,-1.5 0,-3.3 1.66,-3.8 0.23,-0.1 0.46,-0.1 0.68,-0.1 z m 297.04,0.8 c 0.7,0 1.4,0.5 2.5,0.7 1.4,0.5 1.6,2.3 2.9,2.9 5.8,0.6 12.5,0.4 16.6,2.8 0.6,4 0.4,6.9 -1.9,8.3 -1,0.6 -1.6,0.6 -2.6,1 -3.1,1.1 -7.5,3.3 -10.5,3.3 -3.1,1.4 -6.5,2.6 -10.9,2.8 -1.6,-2 -1.9,-2.8 -0.9,-4.7 0.1,-0.3 0.1,-1.1 0.5,-1.4 1.9,-1.9 7.4,-0.6 7.1,-3.1 -0.2,-1.3 -1.3,-0.8 -2.4,-1.2 -0.7,-0.7 -0.8,-1.9 -1.4,-2.6 -2.6,-0.6 -5.8,-0.6 -7.6,-1.9 -0.5,-1.8 0.1,-3.8 0.9,-5 1.4,-0.4 2.5,0.2 3.6,0 1.4,-0.3 2.3,-1.8 3.8,-1.9 0.1,0 0.2,0 0.3,0 z m -103.7,0.8 c 1.8,-0.1 3.8,0.7 4.5,1.8 -1.2,2.9 -6,1.2 -7.1,-0.7 0.5,-0.8 1.5,-1.1 2.6,-1.1 z m 39.6,1.8 h 0.5 c 1.8,0.8 2.7,2.4 3.3,5.2 0.2,1 0.8,2 0.9,2.9 0.4,2.6 -0.3,5.7 -1.6,7.3 -3.4,-2.6 -3.3,-10 -3.1,-15.4 z m 6.4,1 c 5.9,0.1 12.1,1.6 12.8,7.1 -2.4,0.2 -6.8,-1.4 -9,-2.6 -1.9,-1.1 -4.7,-2.3 -3.8,-4.5 z m -49.5,1.2 c 0.6,0 1.2,0.2 1.8,0.7 -1.6,2.6 -4.7,3.8 -6.6,6.4 -0.7,0.8 -1.4,2.8 -3.3,2.6 0.5,-2.5 1.7,-5.6 3.5,-7.4 1.1,-1.1 2.8,-2.4 4.6,-2.3 z m 20.3,0.2 c 3.4,-0.1 5.4,5.5 6.2,9.2 0.2,1.1 -0.5,2.6 0.7,3.1 2.1,-3.3 -0.7,-7.4 -1.2,-10.4 1,-0.8 2.2,0.1 2.9,0.4 2.6,4.3 4.7,11.9 2.6,18.1 -3,0.1 -2.7,-3.1 -4.5,-4.1 0,-0.6 0.1,-1.3 -0.3,-1.6 -1.3,-0.3 -2.7,-1.2 -3.8,-2.4 -0.3,-3.3 -0.7,-5.9 -1.9,-8.8 -0.5,-1.3 -2,-2.2 -0.7,-3.5 z m -5.2,0.4 c 2.1,0.1 3.2,3.7 4.7,4.8 0.1,2.1 2,3.5 1.2,5.7 -3.9,0.1 -3.5,-4.2 -5.2,-6.4 -0.9,-1.1 -1.9,-2.1 -2.4,-3.6 0.7,-0.4 1.2,-0.6 1.7,-0.5 z m -103.2,0.5 h 1.2 c 0.3,1.8 0.4,3.6 1,5 -2.9,0.5 -2,-2.7 -2.2,-5 z m 96.7,1.3 c 3.5,0.1 5.9,3.6 7.2,6.6 -1.5,0.5 -3.6,0.2 -4.7,-0.5 -0.9,-0.6 -1.2,-1.9 -1.9,-2.9 -0.9,-1.1 -2.4,-1.8 -2.2,-3 0.6,-0.2 1.1,-0.2 1.6,-0.2 z m 107.9,1.3 c -0.9,0 -1.7,0.2 -2,1 -0.6,0.5 0.2,1.8 0.4,2.4 2.4,-0.1 5.5,0.5 5.5,-1.9 -0.6,-0.6 -2.4,-1.4 -3.9,-1.5 z m -84.3,0 h 0.5 c 1.5,0.3 2.5,2.3 3,3.8 1.2,3.5 1.1,7.6 0,11.4 -0.1,0.6 -0.7,1.2 -0.9,1.9 -0.7,1.8 -0.5,4.1 -2.4,4.3 -1.7,-2.9 1.2,-5.9 1.4,-9.3 0.3,-4.3 -1.1,-8 -1.6,-12.1 z m -28.3,0.7 c 2.2,-0.2 4.2,0.8 4.3,3.6 -3.9,-0.1 -7.4,1.4 -10.4,1.4 0.2,-2.7 3.3,-4.8 6.1,-5 z m 46.3,0.8 h 0.7 c 1.3,1.6 1.9,3.7 1.7,6.1 -0.3,2.8 -2.3,4.8 -2.9,7.1 2.8,0.3 3,-3.9 5,-5.2 0.5,2.7 -0.2,5.5 -1.4,7.6 -0.3,0.4 -0.9,0.5 -1.2,0.9 -0.2,0.3 -0.1,0.9 -0.2,1.2 -0.2,0.3 -0.7,0.4 -1,0.7 -0.6,0.8 -1.3,2.4 -2.6,2.4 -0.1,-1.9 -1.2,-5.3 0.2,-6.4 -0.2,-0.7 -1.3,-0.7 -1.4,-1.6 0.4,-3.1 2,-5.8 2.4,-9.1 0.1,-1.4 -0.3,-2.9 0.7,-3.7 z m 4.8,1.1 c 4.3,0.2 7.6,1.6 8.5,5.2 -4.4,0 -7.2,-1.5 -8.8,-4.2 0,-0.5 0.3,-0.5 0.3,-1 z m -16.6,2.8 c 0.7,0 0.7,0.6 1.4,0.5 0.3,2 1.5,3.3 1.2,6.2 -0.1,0.9 -0.6,1.9 -0.7,2.9 -0.6,3 -0.8,5 -1.9,7.6 -0.9,2 -2.5,3.9 -3.6,4.7 -2.3,-1.6 -1.4,-3.7 -0.3,-5.5 0.2,-0.2 0.3,-0.8 0.5,-1.2 0.2,-0.2 0.8,-0.2 1,-0.4 0.2,-0.5 0,-1.4 0.2,-1.9 0.3,-0.7 1,-1 1.2,-1.4 0.4,-1.3 0.4,-3.3 0.7,-4.8 0.4,-1.9 0.3,-3.7 0,-6.6 0.1,0 0.2,-0.1 0.3,-0.1 z m -119.5,1.1 c 1.1,0 2.2,0.7 3,1.1 0.9,-0.7 1.9,0 3.1,0 1.9,0 4.2,-0.9 5.7,0.2 -0.2,1.9 -4.4,1.4 -7.4,1.2 -2.8,-0.1 -5.2,0.2 -5.4,-2.3 0.3,-0.2 0.7,-0.2 1,-0.2 z m 83.8,1.4 c 0.8,0 1.8,0.3 2.7,0.2 0.8,0.9 1.8,1.7 1.4,3.8 -2.2,-0.5 -3.8,-1.6 -5.4,-2.6 -0.1,-1.2 0.5,-1.4 1.3,-1.4 z m 56.9,0.8 c 1.6,0.1 3.4,1.1 4.4,2 -0.2,1.5 0.5,2.2 0.4,3.5 -2.7,-1.1 -6.4,-1.2 -6.4,-5.2 0.5,-0.2 1,-0.3 1.6,-0.3 z m -50.7,0.3 h 1.2 c 1.2,1.8 2.4,4.8 1.9,7.4 -2.9,-0.6 -4.9,-4.1 -3.1,-7.4 z m 5.6,0.5 c 1.1,0.1 1.6,0.9 2.5,1.2 0.5,1.4 2.5,5 1.7,9 -0.3,1.1 -1.2,1.8 -1.5,2.6 -1.6,-0.7 -2.3,-2.3 -3.3,-3.5 0.6,-3.5 -0.9,-7 0,-9.3 0.2,0 0.4,0 0.6,0 z m -20,1.9 c 2.2,-0.1 3.9,1.4 5.2,2.4 0.2,1.7 1.7,3.1 0.9,5 -2.7,-0.5 -3.6,-2.8 -5.2,-4.3 -1,-0.1 -1.5,-0.7 -2.1,-1.2 0,-0.6 -0.1,-1.4 0.2,-1.7 0.4,-0.1 0.7,-0.1 1,-0.2 z m -70.5,2.4 h 0.5 c 1.6,0 1.8,1.3 2.9,1.9 2.4,0 3.7,1.1 6.4,0.9 1.2,1.2 3.9,1 5.2,2.1 -0.3,2.1 1,4 -0.3,5 -2.6,0.1 -2.4,-2.8 -4.9,-2.8 -0.9,1 0.1,2.8 -0.5,4.3 -2.6,-0.2 -2.3,-3.2 -3.8,-4.6 -3.3,-0.7 -5.6,-3.5 -5.5,-6.8 z m 78.1,0.7 h 1.9 c 1.7,1.1 2.1,7 0.2,8.3 -2.7,-0.7 -2.2,-5.7 -2.1,-8.3 z m 19.4,0.5 h 0.5 c 6.4,2.2 2.1,13.3 -1.9,15.6 -1.7,-0.8 -1.1,-3.9 -2.1,-5.4 2.3,-2.3 3.4,-5.8 3.5,-10.2 z m -73.3,0.7 h 0.7 c 0.5,1.4 0.9,3.4 0.5,4.9 -2.4,1 -3,-1.7 -5.2,-1.6 -0.9,0.9 0.5,2.5 -0.3,3.3 -1.6,0.4 -2.9,-1.4 -3.3,-3.1 2.5,-1.2 5.5,-2 7.6,-3.5 z m 59.1,2.6 c 3.7,0.4 1.9,7.6 0.9,9.7 -3.7,-1.7 -2,-6.2 -0.9,-9.7 z m 33.7,1.6 h 0.9 c -0.1,2.2 -0.8,3.8 -0.9,6 -1.2,1.5 -1.9,3.5 -2.4,5.7 -1.6,1.2 -1.6,4.1 -4.1,4.5 -0.4,-1.9 0.2,-4.5 0.5,-6.4 0.6,-0.4 1.4,-0.7 1.2,-1.9 2.5,-1.7 3.5,-4.9 4.8,-7.9 z m -29.9,2.6 h 0.4 c 1.4,1 1.5,3.5 1.2,5.5 -0.3,1.9 -1.4,4 -2.3,4.7 -1.5,-1 -1.4,-3.1 -1,-4.9 0.3,-1.1 1.8,-3.5 1.7,-5.3 z m 49.1,0 c 3.9,0.1 4.5,4.8 4.2,8.3 -1.2,0.3 -1.4,-1.5 -2.1,-2.6 -1.1,-1.7 -3,-2.9 -2.1,-5.7 z m -119.1,1 c 1.8,0 2.2,1.4 3.8,1.7 0.3,1.7 2,2.6 2.8,4 0.7,1 0.8,2 1.5,2.9 1.2,1.5 3.3,2.2 4,4.2 -4.3,0.2 -7.1,-3.2 -10.2,-4.9 -0.9,-1.6 -1.7,-3.3 -2.6,-4.8 0.6,-0.6 0.3,-2.2 0.7,-3.1 z m -5.9,0.5 c 2.8,0.2 3.6,4.6 5,6.6 0.6,1 1.5,2.1 2.1,2.7 0.8,0.7 2.4,0.7 2.1,2.3 -2.2,-0.1 -5.5,-1.9 -7.6,-3.8 -2.1,-1.9 -3.3,-4.3 -1.6,-7.8 z m 92,0.5 h 1.4 c 2,3.1 -0.6,6 -2.1,8.3 -1,1.5 -2.4,2.8 -3.6,4.3 -0.8,0.9 -2.2,2.7 -3.8,2.8 -0.7,-1.2 0.2,-2.3 0.3,-3.3 0.2,-1.5 -0.2,-3.2 0.7,-4.3 0.6,-0.8 2,-1.4 2.8,-2.1 0.3,-0.3 0.4,-0.5 0.8,-0.7 1.4,-1 2.8,-2.9 3.5,-5 z m -13.1,2.1 h 0.5 c 1.9,0.4 1.3,3.2 2.1,4.5 -0.4,2.2 -1.2,4 -2.1,5.7 -1.5,0.7 -2,3.7 -3.5,3.6 -1.3,-0.9 0.1,-3 0,-4.3 1.4,-1.8 2.1,-4.3 3,-6.6 -0.2,-0.7 -0.4,-2.3 0,-2.9 z m 46.1,3.6 c 2.8,0.3 2.9,4.8 2.1,7.3 -0.8,0.1 -0.9,-1.2 -1.2,-1.9 -0.6,-1.3 -1.6,-3.5 -0.9,-5.4 z m -72.1,6.9 c 0,1.4 0.8,2.1 1.2,3.3 0.2,0.7 0.2,1.8 0.4,2.6 0.3,0.9 0.8,1.6 1,2.4 0.4,2.6 0.3,5.8 0.2,8.5 -0.1,1.2 -0.8,3.2 0.2,4 2.4,-6.7 0.7,-15.3 -2.3,-20.8 z m 5.7,1.8 c 0.8,2.8 3.1,5.7 3.5,9.3 0.2,1.7 0.3,4 0,5.9 -0.4,2.6 -2.4,4.6 -2.6,7.1 1.7,-0.3 1,-3 2.6,-3.5 0.1,-2.5 1.7,-4.6 1.7,-7.1 0,-0.5 -0.4,-1.1 -0.5,-1.7 -0.1,-0.7 0.1,-1.7 0,-2.4 -0.1,-0.5 -0.7,-1.1 -1,-1.9 -0.7,-2.3 -1.9,-4.1 -3,-5.4 -0.3,0 -0.4,-0.3 -0.7,-0.3 z m -44.8,0.5 c 2.4,-0.1 2.2,2.5 3,4.8 0.5,1.3 1.3,1.6 1.4,3.3 1.4,2.6 3.8,4.3 5.5,6.6 1.4,0.5 2.7,1.2 3.3,2.6 -1.7,1 -2.8,-0.6 -4.5,-0.4 -4.5,-4.1 -9.2,-8.1 -9.7,-16.2 0.2,-0.1 0.3,-0.4 0.5,-0.7 0.1,0 0.3,-0.1 0.5,-0.1 z m 5.6,0.5 c 1.1,0.1 1.9,0.4 2.4,0.9 0,3.6 1.8,5.4 2.8,7.9 1.5,1.7 3.2,3.1 4.6,5 1.2,0.7 2.6,1.2 3.3,2.6 -2.6,0.4 -4.2,-0.8 -6.2,-2.4 -1.4,-1.1 -2.9,-2.5 -4,-4 -0.2,-0.3 -0.2,-0.6 -0.5,-1 -0.6,-0.7 -1.7,-2.2 -2.4,-3.3 -1.2,-2.2 -1.7,-3 -1.2,-5.7 0.4,0 0.8,-0.1 1.2,0 z m 5.4,0.2 c 0.7,0 1.5,0.5 2,1.2 0.6,0.9 0.4,2 0.7,2.9 1.2,3.2 3.5,5.6 5.9,7.8 1.1,1 2.8,1.9 3.1,3.6 -3.9,-0.2 -5.9,-2.9 -8.1,-5.5 -1,-1.2 -1.6,-1.9 -2.6,-3.3 -0.3,-0.5 -2.2,-3.2 -2.3,-4 -0.3,-2 0.4,-2.7 1.3,-2.7 z m 4.6,0.7 c 2.4,-0.1 2.5,2.3 3.5,3.6 1.4,1.9 3.1,3.6 4.3,5.7 1.6,1 3.3,1.9 3.8,4 -4.2,-0.7 -8.1,-4.8 -10.4,-8.8 -1,-1.6 -2.2,-3 -1.2,-4.5 z m -37.7,1.2 c 1.4,1 2.4,2.2 2.8,4.1 -1.8,-0.3 -3,-2.5 -2.8,-4.1 z m 129.7,2.6 c 0.2,0.1 0.2,0.3 0.5,0.3 1.5,4.1 -1,7.8 -3.1,10.2 -1.5,-3.5 0.1,-8.5 2.4,-10.5 0.1,0 0.1,0 0.2,0 z m -124.5,4.5 c 1.6,0.3 2.9,2 2.8,3.1 -1.6,-0.3 -3.1,-0.8 -2.8,-3.1 z m 77.8,2.2 c -0.5,1.7 0.9,2.9 0.9,5 0.1,3.3 -2.6,7.4 0.5,9.5 1.3,-1 0.1,-2.4 0,-3.8 -0.2,-3.7 1.7,-8.6 -1.4,-10.7 z m -2.4,1.6 c -0.9,2 -0.5,4.5 -0.7,7.2 -0.1,1.2 -0.6,2.5 -0.5,3.3 0.3,1.7 1.4,3.8 3.4,4 0.2,-1.5 -1.4,-2.5 -1.7,-4.3 -0.6,-2.7 0.4,-6.2 0,-9.7 v 0 c -0.1,-0.3 -0.3,-0.4 -0.5,-0.5 z m 7.1,1.7 c -0.1,0 -0.1,0 -0.2,0 -0.4,2.2 -1.8,6.5 1.2,6.9 -0.7,-1.8 -0.2,-4.7 -0.7,-6.7 0,-0.1 -0.1,-0.2 -0.3,-0.2 z m -76.2,0.1 c 0.8,-0.1 1.8,0.8 1.8,1.8 -0.9,0.4 -2.1,-0.6 -2.2,-1.7 0.2,-0.1 0.3,-0.1 0.4,-0.1 z m 63.4,0.9 v 0.7 c 0.4,3.9 -0.9,8.6 1,11.8 v 1.7 c 0.3,1.5 4.5,4.5 5.2,1.2 -1.8,-1.1 -3.2,-1.4 -4,-3.6 -1,-2.3 -0.2,-5.9 -0.5,-8.8 -0.1,-0.9 -0.3,-2.6 -1.2,-3 z m -2.6,2.6 c -1,0.7 -0.2,1.9 -0.5,3 -0.1,0.7 -0.8,1.4 -0.9,2.2 -0.5,3.3 0.4,6.6 0.9,9.5 1.5,1.2 2.1,3.3 4.8,3.3 0,-1.3 -1.3,-1.6 -1.9,-2.4 -2.9,-3.6 -1.4,-9.5 -1.7,-15.4 -0.3,0 -0.3,-0.3 -0.7,-0.2 z m -31.1,1.1 c 0.3,4.1 2.1,6.7 2.2,11 4.3,-2.3 -1.1,-7.7 -1.4,-11 z m 76.7,0.5 c 0.4,2.4 -0.5,5.2 -2.7,5.7 0.6,-2.2 -0.1,-5.7 2.7,-5.7 z m -61.5,2.2 c -0.5,0.8 -0.1,2.5 -0.2,3.7 1.6,3.9 4.2,6.7 6.2,10.2 0,1.2 -0.3,2.5 0.9,2.4 0.8,-1.7 -1,-2.6 -0.7,-4.5 -2,-3.6 -4.7,-6.5 -5.5,-11.4 -0.3,-0.1 -0.4,-0.4 -0.7,-0.4 z m 5.5,0.2 c -2.1,4 1.1,8.8 3.3,11.8 0.4,0.6 0.3,1.5 1.2,1.5 -0.1,0.9 0.2,1.5 1.2,1.4 -0.1,-2.2 -1.7,-3.6 -2.6,-5.2 -0.2,-0.3 0.1,-0.7 0,-1 -0.2,-0.3 -0.8,-0.4 -1,-0.7 -0.2,-0.4 -0.3,-1 -0.5,-1.4 -0.8,-1.9 -1.1,-3.4 -0.9,-6.2 -0.3,0 -0.3,-0.3 -0.7,-0.2 z m 50.9,0.1 c 0.3,0 0.6,0.1 1,0.2 -0.3,2.2 -1.5,4.7 -3.5,5.2 0.1,-2.3 0.3,-5.4 2.5,-5.4 z m -45.7,1.4 c -0.4,4.7 0.1,10.6 4.3,11.6 -2,-2.9 -3.4,-6.4 -3.6,-11.2 -0.3,-0.1 -0.4,-0.4 -0.7,-0.4 z m 41.7,1.4 c 0.9,3.1 -1.1,6.5 -3.1,6.9 1,-2.4 -0.3,-7 3.1,-6.9 z m -200.84,1.3 c -0.49,-0.1 -2.58,0.8 -3.08,1.5 -1.49,1.9 1.53,3.3 0,4.9 -2.26,-0.2 -1.56,-3.4 -3.08,-4.5 -2.81,0.2 -2.23,3.7 -5.93,2.9 -0.44,0.9 -0.3,2.9 0,3.8 2.04,0.2 4.12,0.4 5.93,0.9 -0.17,3.1 -4.05,1 -4.51,3.6 0,0.2 1.07,3.4 1.42,3.8 1.43,1.4 2.58,-0.4 3.79,-1 4.38,-1.1 7.46,-3.6 11.38,-5.2 -0.36,-2 -1.41,-3.3 -2.13,-5 -0.72,-0.1 -2.04,0.3 -2.37,-0.2 -0.45,-1.7 0.99,-1.5 0.95,-2.8 -0.82,-1.2 -0.99,-2.5 -2.37,-2.7 z m 254.44,2 c -2.1,0.1 -2.6,2 -3.8,3.5 -0.5,4.3 -3.5,6.1 -4,10.4 -1,1.4 -1.8,3 -2.4,4.8 1.5,3.3 4.1,0.4 5,-1.4 0.1,-1.9 0.8,-3.2 2.4,-3.6 0.6,2.6 -5.1,7.2 -0.5,8.8 1.3,-0.1 0.9,-2 2.6,-1.7 0.1,1.4 -0.3,1.8 0,2.9 0.7,0.1 0.9,0.9 1.9,0.7 0.5,-0.3 0.4,-1.1 1.2,-1 0.2,-2.4 2,-4.3 2.9,-6.4 0.2,-0.5 0.1,-1.3 0.2,-1.9 0.6,-1.7 1.6,-3 2.4,-4.5 v -1.4 c 0.8,-0.4 1.1,-1.2 1.6,-1.9 -0.1,-1.1 0.3,-2.6 -0.2,-3.3 -0.9,-0.9 -3.5,-1.7 -5.2,-2.4 -1.1,-0.4 -1.7,-1.2 -2.4,-1.4 -0.7,-0.2 -1.3,-0.2 -1.7,-0.2 z m -63.5,4.2 c 0.2,0.1 0.2,0.3 0.4,0.3 -0.7,1.5 -0.3,4.2 -2.6,4.2 0.2,-1.9 0.9,-3.4 1.9,-4.5 0.1,0 0.2,0 0.3,0 z m -206.59,0 c -2.18,3.5 2.49,5.6 2.37,9.3 -1.82,0.6 -3.93,0.9 -5.69,1.6 -0.59,1.6 -0.11,3.7 0.47,4.8 0.74,0.5 2.14,0.4 2.85,0.9 1.98,-1.2 4.94,-1.4 6.4,-3.1 0,-0.9 -1.27,-1 -1.9,-1.9 -1.21,-1.6 -1.47,-4.1 -1.42,-7.1 -1.47,-0.8 -1.57,-3 -2.37,-4.5 z m 283.89,0.3 c -0.2,0 -0.5,0.1 -0.7,0.2 -0.3,0.1 -1.8,2.2 -2.1,3.3 -0.2,0.4 0.1,0.9 0,1.2 -0.8,1.8 -2.1,3 -2,4.3 0.5,1 1.5,1.5 2.9,1.6 1.2,-0.6 1.2,-2.1 1.7,-3.3 0.1,-0.4 0.8,-0.8 0.9,-1.2 0.3,-0.6 0,-1.2 0.3,-1.6 0.5,-1.1 1.8,-1.9 1.1,-3.8 -0.8,-0.2 -1.4,-0.7 -2.1,-0.7 z m -286.75,2.8 c -4.12,0.5 -6.73,2.4 -9.96,3.8 0,2.7 0.27,4.9 1.9,5.2 0.79,0.1 1.76,-0.9 2.85,-1.4 0.6,-0.3 1.4,-0.2 1.9,-0.5 0.9,-0.5 1.33,-1.3 2.13,-1.7 1.3,-0.6 2.37,-0.3 3.08,-1.1 0.19,-2.3 -1.19,-3 -1.9,-4.3 z m 205.15,0 h 0.7 c 0.6,1.3 -0.5,2.8 -0.7,4 h -1.4 c -0.1,-1.9 1,-2.6 1.4,-4 z m 86.6,1 c -2.4,0 -3.9,5.7 -4.3,8.2 0.8,0.7 1.5,1.4 2.8,1.5 1.7,-0.6 1,-3.5 2.9,-3.8 0.7,1.6 -1.1,2.9 -0.7,4.5 0.4,1.5 2.3,1.7 4.3,2.1 0.8,-0.9 1.7,-1.7 1.6,-3.5 1.3,-2 2.7,-3.8 2.6,-7.2 -1.2,-0.7 -2.1,-1.8 -4.5,-1.4 -1,0.8 -0.5,2.9 -2.6,2.6 -0.2,-0.8 -0.2,-2.1 -0.9,-2.6 -0.4,-0.3 -0.8,-0.4 -1.2,-0.4 z m -19.9,0.5 c 0.2,0 0.4,0.1 0.7,0.1 -0.7,1.3 -0.7,3.3 -2.4,3.6 -0.2,-1.1 0.3,-3.7 1.7,-3.7 z m -111.7,0.6 c 0.1,1.3 0.6,2.2 0.4,3.8 -1.2,3.1 -7.1,3.8 -6.6,-0.2 0.2,-2.3 3.6,-3 6.2,-3.6 z m -136.18,1.9 c -0.57,-0.1 -1.5,0.2 -1.66,1 0.1,1.3 1.51,1.3 1.42,2.8 2.89,0.2 2.28,5 5.45,4 -0.35,-0.6 0.1,-1.8 -0.23,-2.8 0,-0.1 -1.6,-2.6 -1.66,-2.6 -0.24,-0.2 -1.06,-0.2 -1.42,-0.5 -1.23,-0.9 -1.12,-1.8 -1.9,-1.9 z M 54,257.1 c -2.16,0.2 -4.05,0.6 -5.22,1.7 1.08,2.4 4.7,4.2 3.08,7.8 0.19,1.2 1.87,3.2 0.24,4 -1.04,-0.2 -1.28,-1.2 -2.61,-1.1 -0.98,2.7 0.25,6 2.85,6.4 0.73,0.1 1.61,-0.5 2.37,-0.5 1.06,0 1.66,0.7 2.61,0.2 1.02,-0.6 0.89,-2.4 1.66,-3.3 -0.32,-0.8 -0.77,-1.4 -0.95,-2.4 -0.93,-0.5 -2.57,-0.4 -2.61,-1.9 0.59,-1.5 2.39,-0.9 3.08,-0.4 0.7,0.4 0.76,1.7 1.42,2.6 1.01,1.2 2.08,1.3 2.85,2.1 3.69,-1.1 1.24,-5.3 0.24,-7.6 -1.13,-0.6 -3.64,0.2 -4.74,-0.5 -0.29,-0.7 0.29,-2.1 -0.24,-3 -1.45,0 -3.05,0.2 -3.32,-1 0.29,-1.7 0,-2 -0.71,-3.1 z m 254.5,0.3 c 0.6,0.9 -0.3,1.8 -0.7,2.3 -0.5,1.7 -0.8,3.6 -2.6,3.8 1,-2.1 0.8,-5.4 3.3,-6.1 z M 179,258.6 c 2.1,0.6 4.1,0 5.4,1.4 -0.1,1.3 -0.7,2.1 -0.9,3.3 -2.1,0.8 -3.6,-0.7 -5,-1.4 0,-1.3 -0.1,-2.7 0.5,-3.3 z m 14.5,0.4 c 1.3,0.4 0.4,2.9 0.7,4.3 -1.1,0.6 -2,1.2 -3.8,0.9 0,-1.3 -0.7,-2 -0.5,-3.5 1,-0.7 2.3,-1.2 3.6,-1.7 z m 120.7,0.3 c -0.8,0.7 -0.8,1.9 -1.2,2.8 -0.7,1.4 -1.8,2.7 -2.4,4 -0.2,0.5 0.1,0.9 0,1.5 -0.1,0.3 -0.7,0.8 -1,1.4 -0.2,0.5 -0.2,1.5 -0.4,1.9 -0.3,0.5 -1,0.7 -1.2,1.2 -0.2,0.4 -0.1,0.9 -0.3,1.4 -0.5,1.4 -1.7,2.2 -1.1,4.3 0.8,0.1 1.3,0.6 2.1,0.9 2,-0.7 1.4,-2.7 3.1,-3.8 0.4,-3 2,-4.7 2.8,-7.3 1.9,-1.4 3.9,0.8 5.5,1.4 0,3.1 1.1,5.2 3.3,6.2 3.1,-1.8 5,-5.9 5.7,-9.3 -0.3,-1.6 -2.2,-1.4 -3.6,-1.9 -1.1,-0.4 -2.1,-1.4 -3.3,-1.9 -1.1,-0.4 -2.4,-0.4 -3.5,-0.9 -1.6,-0.7 -2.8,-1.9 -4.5,-1.9 z M 30.05,260 c -1.33,0.6 -2.78,1.2 -4.27,1.6 0.7,2.9 2.26,5.6 3.32,8.1 0.47,1.1 0.49,2.3 0.95,3.3 0.39,0.9 1.18,1.7 1.66,2.6 1.26,2.5 1.85,5.4 3.56,7.6 4.27,-0.1 6.24,-2.4 9.72,-3.3 1.3,-1.7 0.18,-2.3 -0.24,-4.3 -0.3,-1.4 -0.6,-2.7 -1.66,-2.6 -1.27,1.4 -2.16,4.5 -5.22,3.6 -0.14,0 -0.47,-0.7 -0.95,-0.7 -1.87,-4.7 -3.85,-9.3 -6.4,-13.3 0.6,-0.8 -0.18,-1.9 -0.47,-2.6 z m 17.92,0.9 c -2.65,0.3 -2.6,5.9 1.76,5.2 1.79,-1.7 0.24,-5 -1.19,-5.2 -0.2,0 -0.39,0 -0.57,0 z m -5.35,2.9 c -1.98,1.2 -5.45,1.9 -5.93,4.7 -0.12,0.7 0.31,1.4 0.47,2.4 0.31,1.8 0.94,3.1 2.13,3.8 0.66,-2.3 2.51,-4.6 4.74,-4 2.93,0.6 2.84,9.6 6.17,7.8 0,-2 -1.89,-2.9 -2.61,-4.5 -0.75,-1.8 -1.06,-3.8 -1.42,-6.2 -0.69,-0.7 -1.73,-1.1 -1.42,-2.8 -0.83,-0.3 -1.01,-1.2 -2.13,-1.2 z m 252.98,0.6 c -0.2,0 -0.4,0 -0.6,0.1 -1,2 -1.7,4.5 -0.3,6.4 3.4,0.9 5.5,3.1 9.5,3.3 1.1,-1.1 2.2,-2.3 2.1,-4.7 -0.6,-1 -2.4,-1 -3.3,-1.4 -0.6,-0.3 -1,-0.9 -1.7,-1.2 -0.7,-0.4 -1.6,-0.4 -2.3,-0.7 -1.2,-0.6 -2.1,-1.8 -3.4,-1.8 z m -101.8,0.8 c 0.2,0 0.4,0 0.6,0 1.1,2.5 0.6,5.1 -2.4,5.2 -0.8,-1 -0.9,-2.7 -1.2,-4.3 0.9,-0.4 1.8,-0.9 3,-0.9 z m -15.3,0 c 1.6,0.2 3.3,0.4 4.5,0.9 -0.1,1.8 -0.4,3.2 -1.2,4.3 -2.2,0.6 -4,-0.4 -4.5,-2.1 0.6,-0.9 0.6,-2.3 1.2,-3.1 z m 16.6,5.9 c 1.1,0.6 1,2.4 2.6,2.4 -0.8,2.6 -6.9,3.2 -5.9,-1.4 1.1,-0.4 2.3,-0.6 3.3,-1 z m 121.5,0.6 c -1.6,0.1 -3.6,2.5 -3.4,4.4 0.2,1.5 4.4,4.8 4.8,7.1 0.8,0 1.7,0.6 2.6,0.5 0.6,-0.1 3.1,-2.6 3,-2.4 1,-1.9 -0.2,-2.6 -1.1,-3.8 -0.7,-0.8 -0.7,-1.2 -1.2,-1.9 -1.2,-1.5 -2.2,-2.9 -4,-3.8 -0.3,-0.1 -0.5,-0.1 -0.7,-0.1 z m -139.5,0.6 c 1.6,0 2.9,0.4 4.3,0.7 0,1.9 -0.4,3.4 -1,4.7 -4.4,1.7 -5.4,-2.9 -3.3,-5.4 z m 18.9,4.3 c 0.2,0 0.4,0 0.5,0 0.5,1.2 0.3,3.5 -0.2,4.5 0.7,3.4 1.7,6.5 1.9,10.4 -1,1 -2.5,0.1 -3.8,0.5 -1.4,0.4 -1.7,2 -3.5,2.1 -0.6,0 -1.7,0 -2.4,-0.2 -0.8,-0.3 -1.5,-1.2 -2.4,-1.7 -0.8,-0.4 -2.4,-0.1 -2.1,-1.4 1.3,-1.4 3.4,-0.5 5.2,-0.7 0.7,-0.1 0.8,-0.5 1.4,-0.7 0.4,-0.2 1,-0.1 1.4,-0.3 1.2,-0.5 2.1,-1.4 2.9,-2.1 -0.7,-1.2 -1.6,-3.5 -0.5,-5 -0.9,-1.1 -1.8,-2.3 -1.4,-4.7 1,-0.2 1.8,-0.7 3,-0.7 z m -19.8,2.9 c 1.1,-0.1 2.4,0.6 3.5,0.8 0,1.7 0.5,2.9 1.9,3.1 -0.5,3 -4.6,3.2 -7.1,2.2 -0.5,-1.9 0,-4.3 0.7,-5.7 0.3,-0.2 0.6,-0.3 1,-0.4 z m -102.81,2.2 c -1.27,0.1 -2.56,1.3 -3.98,2 -1.26,0.1 -1.38,-0.9 -2.61,-0.7 -2.23,1.1 -3.84,2.9 -3.56,5.9 -1.79,1.2 -4.48,0.5 -6.17,1.7 -1.42,1 -2.47,3.8 -1.42,5.4 -2.52,2.2 -5.5,4 -8.06,6.2 -0.42,3 1.44,3.8 3.08,4.7 2.06,-1.1 3.95,-3.9 5.69,-5.4 0.36,-0.3 1.18,-0.4 1.66,-0.7 0.47,-0.4 0.66,-1 0.95,-1.2 0.98,-0.8 3.47,-1.4 3.79,0.7 -1.39,0.6 -2.48,1.5 -4.03,1.9 -0.1,1.6 -2.13,1.2 -2.13,2.8 1.29,-0.4 2.57,0.1 3.79,-0.2 1.4,-0.4 2.45,-2.2 3.32,-1.2 0.12,1 -0.6,1.1 -1.42,1.2 0,2.1 -2.15,2 -4.27,1.9 -1.18,1 -2.24,2 -3.56,2.8 v 2.9 c 1.08,1.1 1.64,2.6 3.32,3.1 3.38,-1.8 5.34,-5 9.25,-6.2 0.43,-0.4 0.12,-0.9 0.71,-1.4 0.15,-0.1 0.83,-0.1 0.95,-0.3 0.89,-1 1.21,-2.8 3.32,-2.3 0.5,0.4 0.81,1.1 0.95,1.9 0.4,0.3 1.51,-0.1 1.42,0.7 -0.6,1 -1.49,1.7 -2.85,1.9 -0.53,-0.2 0.71,-2.1 -0.47,-2.2 -2.27,0.5 -4.52,3 -5.45,5.5 2.44,3 3.44,-2.1 5.69,-2.4 -0.74,2.1 -1.43,4.4 -3.56,4.8 -1.61,0.2 -3.3,-1.1 -5.45,-0.7 -1.41,1.3 -2.21,5.6 0,6.6 1.21,0.2 3.33,-0.5 3.79,0.5 0.26,1.7 -1,2.2 -0.47,3.5 2.44,1.4 5.19,-0.5 6.88,-1.4 1.11,-2.2 2.48,-4.2 2.85,-7.1 0.65,-0.8 1.52,-1.3 1.42,-2.9 1.5,-0.5 0.8,-3.3 2.85,-3.3 0.44,2.1 -2.32,3 -1.42,5.2 2.35,-0.2 2.79,-2.4 5.22,-2.6 1.71,-2.6 5.26,-3.4 6.63,-6.4 -0.15,-1.1 -0.15,-1.2 0,-2.4 -0.61,-0.9 -1.67,-2.1 -2.61,-3.3 -0.74,-0.9 -0.66,-1.9 -1.9,-1.9 -1.39,0 -1.32,1.8 -3.08,1.9 -0.76,-1.5 1.36,-2.1 0.95,-4 -1.87,-0.3 -2.3,1.9 -3.56,1.4 0.4,-2.7 3.74,-2.6 3.56,-5.9 -1.48,-0.8 -1.49,-2.6 -3.32,-2.6 -2.3,0 -3.69,4.3 -6.88,5.2 -1.19,0.3 -2.19,-0.2 -3.79,0.2 -0.34,1.1 -1.32,1.6 -1.66,2.6 0.11,3 -1.05,4.7 -3.32,5.3 -0.87,-1.1 0.52,-1.6 0.47,-2.6 0,-0.9 -1.02,-0.8 -0.71,-1.9 0.23,-0.9 1.51,-0.7 1.66,-1.7 0.68,-1.1 0.6,-3 1.9,-3.6 3.61,-0.1 5.78,-1.6 5.69,-5.4 0.9,-1.4 2.56,-1.6 2.61,-3.3 0,-0.7 -0.69,-2.1 -0.95,-2.4 -0.57,-0.6 -1.14,-0.8 -1.71,-0.8 z m 214.51,2.6 c -1.9,0 -3.3,1.8 -3.9,3.6 1.4,1.2 2,3.1 4.1,3.6 1.2,-1.4 3.5,-2.3 3.1,-4.5 -0.2,-0.8 -2,-2.5 -2.9,-2.6 -0.1,0 -0.3,0 -0.4,0 z m -8.1,2.9 c -1.2,0 -3.2,1.9 -3.3,3.6 -0.1,1.4 1.3,1.7 1.2,3.3 -0.2,1.9 -3.5,2.8 -3.1,5 1.8,0.6 2.4,2.5 4.5,2.8 1.2,-2.2 3.7,-3.2 4.7,-5.7 1.3,-0.6 2.1,-1.6 2.4,-3.3 -2.2,-1.1 -4.3,-5.7 -6.4,-5.7 z m -105.9,0.9 c 1.5,-0.1 2.8,0.6 4.1,1 -0.1,1.5 -0.5,2.6 -1.1,3.6 -3.3,1.2 -5.1,-1.8 -3.6,-4.5 0.2,-0.1 0.4,-0.1 0.6,-0.1 z m 27.7,2.4 c 0.4,0 0.7,0 1.1,0 0.3,1.8 -1.9,1.7 -2.8,1.5 -0.1,-1.2 0.7,-1.4 1.7,-1.5 z m 91.9,1 c -1.4,1.4 -3.8,1.8 -4,3.8 -0.1,1.1 0.4,1.4 0.7,1.9 1.2,1.8 3.2,3.7 4.3,5.4 0.6,2.1 2,3.3 1.4,5.5 -0.3,0.9 -1.7,1.8 -2.6,2.8 -1.1,1.2 -1.8,2.4 -2.6,3.1 -0.8,3.1 2.1,5.4 3.8,5.2 0.5,-0.1 0.7,-0.5 1.6,-1.4 0.7,-0.6 1.6,-1 1.9,-1.4 0.6,-0.7 0.9,-1.9 1.7,-2.9 0.6,-0.6 1.5,-1.1 2.1,-1.9 0.7,-0.7 1.3,-1.6 1.9,-2.3 1.4,-1.7 5.1,-4.6 4.5,-7.1 -0.2,-1.2 -3.1,-3.3 -4,-3.1 -1.2,0.2 -1.2,2.5 -2.6,2.6 -0.8,0.1 -0.3,-0.1 -1,-0.7 -0.8,-0.8 -0.7,-0.9 -1.4,-1.9 -1.7,-2.5 -3.2,-6.6 -5.7,-7.6 z m -121,2.8 c 1.5,0.1 2.4,0.9 3.9,1 -0.2,1.5 -0.5,3 -1.2,4 -1.3,0.1 -2.4,0 -3.3,-0.2 -0.9,-1.4 -0.8,-3.4 0,-4.8 0.2,0 0.4,0 0.6,0 z m -17.2,2 c 0.6,-0.1 1.1,0.2 1.4,0.9 -0.2,0.9 -0.7,1.7 -2.1,1.4 -0.9,-1.3 -0.1,-2.2 0.7,-2.3 z m 3.6,1.9 c 1.4,0 3.1,1.8 4.7,2.1 1.6,0.3 3.4,-0.6 5.2,-0.5 1.5,0.1 3,1.1 4.5,1.4 1.1,0.3 2,-0.3 2.8,0.5 -0.1,2 0.4,4.8 -1.2,5.9 -1.1,0.2 -1.4,-0.3 -2.1,0 -2.5,2.5 -6.5,0.9 -9.7,0 -1.2,-0.3 -2.9,0.1 -2.9,-1.4 0.3,-1 1.6,-0.3 2.4,-0.5 1.2,-0.2 2.5,-0.6 2.6,-1.6 -0.1,-0.2 -0.2,-0.3 -0.2,-0.5 -3.2,-0.4 -6.8,1 -9.5,1.9 -1.1,-1.8 0.3,-3 2.1,-3.3 1.5,-0.3 3.8,1 4.5,-0.5 -0.4,-1.8 -4.2,0.1 -4.7,-2.1 0.4,-1 0.9,-1.4 1.5,-1.4 z m 110.5,1.3 c -1.9,0.1 -3.4,2.7 -3.4,3.9 0.1,1.6 1.9,2 2.1,3.3 0.3,1.1 -0.4,2.3 -0.2,3.3 0.4,1.6 2.5,3.2 3.3,3.3 1.1,0.1 1.6,-1 2.9,-0.9 0.6,0.4 1.7,0.8 1.9,1.6 0.3,1.2 -0.8,2.1 -0.7,3.1 0.1,1.7 1.7,3.4 4,3.3 1.4,0 1.3,-0.8 2.6,-0.7 3,0.4 1.6,2.4 1.9,4.3 0.3,1.5 2.3,2.7 3.3,2.8 2.5,0.3 5,-2.2 5,-4.7 0,-2.2 -2,-3.8 -3.1,-4.5 -2.2,-1.5 -4.2,-3.5 -4.2,-6.7 -0.7,-1 -1.8,-1.5 -2.7,-2.3 -2,0.2 -3.4,-0.3 -4,-1.5 -0.3,-3.5 -2.1,-5.9 -5.9,-5.4 -0.9,-1.1 -1.4,-2 -2.4,-2.1 -0.1,0 -0.2,0 -0.4,0 z m -116.5,0.2 c 1.1,-0.1 2.3,0.3 2.1,1.3 -0.7,0.3 -3,0.4 -3.8,0 -0.4,-0.7 0.6,-1.2 1.7,-1.3 z m -74.97,0.9 c 0.96,0 1.51,1.7 3.35,1.1 -0.97,2 0.93,5.2 -0.72,7.1 -1.74,0.3 -1.2,-1.8 -2.13,-2.4 -0.98,-0.1 -1.22,0.4 -2.13,0.3 0,-1.8 1.4,-2.1 1.66,-3.6 0.41,-1.2 -1.4,-1.4 -0.47,-2.3 0.16,-0.2 0.3,-0.2 0.44,-0.2 z M 285.5,301 c -0.2,0 -0.4,0 -0.5,0 -1.7,0.2 -2.9,2.4 -2.4,4.5 0.4,1.3 2.4,1.8 3.8,2.6 1.6,0.8 2.5,2 4.5,1.9 1.1,-1.3 2.5,-2.2 2.1,-4.8 -1.3,-1 -5,-4.2 -7.5,-4.3 z m -134.3,1.2 c 2,0.4 1.7,3.1 0.3,3.3 -1.8,0.2 -2.2,-2.7 -0.3,-3.3 z m 28.1,4.2 c 0.7,0 1.5,0.6 1.6,1.7 -0.4,0.8 -2.3,1 -2.9,0.2 -0.1,-1.3 0.6,-1.9 1.3,-1.9 z m -22.4,2.4 c 0.6,0 1.2,0.2 1.7,0.7 0.1,2.3 -1.9,3.6 -3.8,2.4 -0.3,-1.7 0.8,-3 2.1,-3.1 z m -55.6,4.7 c -1.94,0.1 -3.21,2.2 -2.94,4.1 3.64,0 4.94,2.4 6.14,5 -0.4,1 -1,1.7 -2.3,1.9 -0.7,-0.8 0.1,-2.9 -0.5,-3.6 -0.7,-0.6 -1.6,-1 -2.62,-1.2 -0.58,0.4 -0.67,1.4 -1.19,1.9 -0.68,0.7 -2.24,0.4 -3.56,0.5 -1.06,0.7 -1.67,1.9 -2.13,3.3 0.41,1.6 2.44,1.7 2.61,3.6 -0.21,0.4 -0.53,0.7 -0.95,0.9 -1.43,-0.3 -1.78,-1.8 -3.08,-1.7 -1.38,0.2 -2.18,2.2 -2.61,3.8 0.22,1 1.12,1.3 1.19,2.4 -0.48,1.4 -1.94,1.9 -3.08,2.6 -0.48,2.8 0.99,5.1 2.37,5.5 2.15,0.5 3.4,-1.6 5.22,-2.2 0.83,-1.4 1.62,-2.8 3.56,-3 -0.88,2.4 1.08,2 0.95,4.2 -3.04,0.7 -1.82,5.8 0.47,6.4 1.35,0.4 2.25,-0.5 3.75,-0.7 1,2.4 -1.5,1.8 -1.4,3.8 0,0.6 1,1.8 1.7,1.9 1,0.2 1.8,-0.2 2.1,-0.5 1,-0.8 1.3,-1 2.1,-2.1 1.2,-1.5 3.1,-4.6 3.4,-5.7 0.3,-0.1 0.5,-0.3 0.9,-0.5 1.5,-3.6 4.1,-6.1 5.7,-9.7 1.1,-0.3 1.7,-2.1 2.8,-3.8 1,-1.4 2.7,-2.6 2.6,-4 -0.1,-1.7 -2.4,-3 -4.9,-1.9 -1.4,-0.8 -2.3,-2 -3.8,-2.6 -1.4,0.3 -0.7,2.6 -2.9,2.1 -0.2,-1.3 0.6,-1.6 0.5,-2.8 -1.2,-0.8 -2.8,-2.8 -1.4,-4.5 -1.3,-1 -1.9,-2.6 -3.8,-2.9 -1.1,-0.1 -1,1.1 -2.2,1 -1.2,-0.1 -1.2,-1.4 -2.3,-1.5 -0.2,0 -0.3,0 -0.4,0 z m 152.9,4 c -1.8,-0.1 -1.8,2.1 -3.8,2.2 -1.4,-0.1 -0.8,-2.1 -2.2,-2.1 -1.4,0.8 -3.4,1.1 -4.2,2.6 v 2.1 c -1.3,1.6 -3.4,2.3 -5,3.6 -1.3,-0.3 -1.6,-1.5 -2.9,-1.7 -2.5,-0.3 -4.7,1.8 -4.5,4.8 -1,1.1 -2.8,1.4 -3.8,2.6 -0.2,2 1,2.6 2.2,3.3 1.2,-0.4 2.6,-1.8 4,-1.2 -0.1,2 -1.9,2.4 -2.1,4.3 0.2,0.6 0.9,0.8 1.1,1.4 2.9,0.2 4,-1.1 5.7,-2.1 1.2,-0.7 2.4,-2.1 3.8,-1 -1,2 -7.3,3.9 -9.5,5.9 0,0 -0.2,0.6 -0.2,0.5 -1.2,3.5 3.1,3 4.5,3.8 1,2.6 -0.9,6.3 1,7.8 0.5,0.5 3.2,1 4,0.7 2,-0.6 0.5,-3.4 3.1,-3.5 -0.2,1.2 0.4,3.3 1.9,3.5 0.7,0.1 2.1,-0.8 3.3,-1.4 1.1,-0.6 2.2,-1.2 3.1,-1.6 2,-1.1 5.8,-2.4 6.1,-3.6 0.7,-2.5 -2.6,-4 -2.8,-5.7 -0.7,-1.8 -1.1,-3.9 -2.6,-5 -1.8,0.4 -3.1,2.5 -5,1.9 0,-1.6 2,-1.3 2.1,-2.8 -1.2,-2.3 -2.9,-4.2 -3.7,-6.9 -0.6,-0.7 -1.5,-1.2 -1.2,-2.8 0.7,-0.5 1.1,-1.3 2.3,-1.2 -0.7,2.8 0.3,5.1 3.1,5.2 -1.5,2 0.2,4.2 1.2,5.7 1,-0.4 1.4,-1.3 3.1,-1 0.2,2.4 1,4.2 2.4,5.5 1.8,-0.9 3.3,-2.2 4.9,-3.3 v -2.4 c -0.7,-1.5 -3,-1 -3.8,-1.9 0.6,-1.1 1.9,-1.3 2.7,-2.1 0.2,-2.3 -0.5,-3.7 -2.4,-3.8 -2,1.1 -4.6,3 -7.1,2.8 0.3,-2.1 4.7,-2.5 5,-4.5 0.1,-1.2 -0.7,-1.5 -1.5,-2.6 -1.2,0 -2.8,1.6 -3.5,0.5 -0.2,-2 2.6,-1.3 3.3,-2.9 0.5,-1.2 -0.6,-3.3 -1.7,-3.5 -0.1,0 -0.2,0 -0.4,-0.1 z m -146.1,6.2 c 0.9,0.1 0.9,1.2 1.6,1.5 0.8,0.1 0.7,-0.8 1.2,-0.3 -0.1,3 3.3,2.4 3.3,5.3 -1.7,1.4 -2,-1.6 -3.3,-1.9 -1.2,-0.3 -1.8,0.2 -2.8,0.9 0,4.6 -4.3,4.9 -5.3,8.5 0.1,1.3 0,2.4 -0.4,3.1 -1,0 -2.1,0.6 -2.87,0 0.4,-1.9 2.07,-2.5 1.87,-5 -0.1,-0.3 -0.4,-0.3 -0.4,-0.7 -1.58,-0.3 -1.35,1.1 -2.89,0.7 0.11,-1.6 1.14,-2.3 2.09,-3 1.7,0 2.2,1.4 3.6,1.2 1.3,-0.3 1.7,-2.1 2.6,-3.1 -0.2,-2.2 -0.4,-4 1.2,-4.8 0.2,-1 -0.5,-1.8 0,-2.3 0.2,0 0.3,0 0.5,0 z m 15.6,5.5 c -0.9,1.3 -2.9,2.1 -2.6,4 0.2,1.2 2.5,2.8 3.8,2.6 1.1,-0.1 2.4,-2.1 2.4,-3.3 -0.1,-1.8 -1.8,-2.2 -3.6,-3.3 z m 113.2,2.7 c 0.3,0 0.5,0 0.7,0.2 0.1,1 -0.7,1.2 -1.5,1.4 -0.6,-0.7 0.1,-1.5 0.8,-1.6 z m -126,1.8 c 0.4,1.8 -0.6,3.2 -2.1,2.4 0,-1.5 0.6,-2.4 2.1,-2.4 z m 25.9,0 c -0.9,1.3 -0.8,3.6 -0.7,5.7 0.9,1.2 3.6,0.7 4.5,2.1 0.2,1 -0.4,1.2 -1,1.5 -2.1,-0.5 -2.9,-1.4 -5.2,-1.2 -1.3,0.9 -1.9,3.5 -1.2,5.7 1.9,1 5,0.4 5.5,2.1 0.3,1.2 -1.4,2 -1.7,3.8 -0.2,1.2 0.2,1.9 0,3.3 2.4,1 7.1,-0.3 6.6,3.6 -1.8,1.6 -4.5,-0.4 -6.8,-0.5 -0.7,1.5 -1.3,4.1 -1,5.9 3.4,0.3 7.3,2.9 10.2,0.7 1.1,-3.6 1.7,-7.6 2.1,-11.8 -0.6,-2.1 -4.2,-1.1 -4.9,-3.1 0.4,-1.4 0.5,-3.2 0.4,-5.2 1.1,-1.3 0.7,-4.1 2.6,-4.5 1.2,0.3 2.4,0.6 4.1,0.4 1.3,-0.8 2,-4.1 0.9,-5.9 -1.5,-0.8 -3.1,-0.4 -4.7,-0.7 -1.5,-0.3 -3.2,-1.1 -4.8,-1.4 -1.5,-0.3 -3.5,-0.5 -4.9,-0.5 z m -17.3,1.2 c -1.2,1.6 -2.1,3.4 -2.7,5.7 -3.1,2.2 -4.5,6.2 -6.4,9.7 -1.9,0.7 -2.5,2.7 -1.4,4.8 3.2,0.3 5.2,-0.8 5.5,-2.9 0.1,-1.3 -1.2,-2.8 -0.5,-4.3 2.8,0.1 3.3,-1.8 4.5,-3.3 1.4,-1.6 2.5,-3.7 3.6,-5.2 v -3.1 c -1,-0.4 -1.3,-1.4 -2.6,-1.4 z m 92,1 c -2.6,0.2 -5.2,0.3 -7.4,0.9 0.2,1.8 -0.1,2.9 0.3,4.3 0.3,0.6 1.9,0 1.9,0.9 0.2,1.5 -1.4,1.2 -1.9,1.9 -0.3,2.7 0.6,4.3 0.7,6.7 0.6,0.7 2,0.6 1.6,2.3 h -2.3 c -0.1,-0.5 -0.7,-0.4 -0.8,-0.9 -0.4,-4.8 -1.6,-9 -1.4,-15 -1.1,-0.8 -2.4,0.2 -4.2,0.5 -2.1,0.3 -4.9,-0.1 -7.2,0.3 -2.4,0.3 -5.7,0.4 -5.7,2.8 0,2.3 2.4,2.1 3.8,3.3 -0.6,1.7 -4,0.6 -5.2,1.7 -0.6,1.3 0,2.8 0,4.3 1,0.6 2.6,0.3 2.9,1.4 0.4,1.6 -2.5,2.3 -2.4,3.8 0.1,1.7 3.5,2.9 5.7,2.3 2.1,-0.5 2.6,-3.3 4.3,-3.8 0.6,-1.5 1.2,-3.2 3.3,-3.3 1.1,3.8 -4.1,3.2 -3.1,7.6 0.3,0.9 1.4,0.9 1.9,1.7 0.1,1.2 -1.9,0.3 -1.7,1.6 0.5,1.1 0.4,2.6 1.7,2.9 0.3,0.5 2.2,-1.1 2.6,0.2 0.2,0.7 -0.3,0.6 -0.2,1.2 -1.7,-0.2 -2.7,0.2 -3.4,1 0.3,1.9 -0.1,3 1,4 5.9,-1.1 11.7,-1.3 17.8,-1.9 0.3,-0.6 0.8,-0.9 1.4,-1.2 0.5,-3.1 -0.7,-6.1 0,-9.2 -0.9,-0.9 -0.7,-3 -1.2,-4.3 -0.7,-1.1 -2.8,-0.8 -3.1,-2.4 2,-1.4 3.9,1.1 5.3,1.9 0.3,-0.5 0.6,-1.1 0.4,-2.1 -1.1,-1.3 -3.9,-1 -4,-3.4 h 2.6 c 1.4,-1.8 1.2,-5.1 -1,-5.6 -1.4,-0.4 -4.3,1.9 -4.2,-1 1.3,-0.7 2.4,-0.7 2.6,-2.1 0.2,-1.3 -1,-2.3 -1.4,-3.3 z m -53.6,1.4 c -1.4,0 -2.4,1.3 -2.4,2.8 -2,0.6 -2.4,2.8 -2.4,5.5 1.5,1.9 1.3,4 0.5,7.1 -0.2,0.7 -0.8,1.4 -1,2.1 -0.1,0.6 0.2,1.2 0,1.7 -0.1,0.4 -0.5,0.7 -0.7,1.2 -0.4,1.4 -0.1,2.9 -0.4,4 -0.5,1.5 -1.6,3.3 -1,5.7 0.9,1.1 2.1,0.9 3.8,1.2 1.7,0.3 3.5,1.7 5,0.9 0.5,-1.7 0,-4.4 0.7,-5.9 -1.8,-0.9 -4.6,-0.1 -5,-2.4 -0.1,-0.7 0.4,-2.1 1.2,-2.8 2.4,-0.3 3.4,0.7 5.7,0.5 0.8,-1.4 -0.1,-3.8 0.2,-6 -1.2,-1 -3.8,-0.6 -4.5,-2.1 0.4,-0.7 0.3,-2 1,-2.4 2.6,0.2 4.8,0.4 6.6,0.3 -1.4,7.1 -2.7,14.5 -4.3,21.5 0.9,0 0.7,1.1 1.7,1 1.2,-0.3 2.3,-1.9 2.6,-3.1 0.1,-0.3 0.4,-0.3 0.5,-0.5 0.5,-1.2 0.2,-2 0.5,-3.5 0.2,-1.4 1.1,-2.8 1.4,-4.3 0.1,-0.7 -0.2,-1.6 0,-2.4 0.2,-1.1 1,-2.3 1.2,-3.5 0.3,-2.8 0.8,-3.5 2.6,-4.5 0,-1.1 0.6,-2.9 0.4,-4.5 0,-0.4 -0.5,-1 -0.7,-1.7 -0.5,-2.4 -0.5,-3.7 -3,-3.6 -2.3,1.7 -0.2,7.7 -3.6,8.3 -0.5,-1.3 0.6,-3 0.5,-4.7 -1.2,-1.6 -4.6,-0.9 -5.5,-2.9 0,-0.7 0.4,-1.1 0.3,-2.1 -0.7,-0.7 -1.3,-0.9 -1.9,-0.9 z m 91,2.1 v 1.2 c -0.7,0.3 -1.1,0.6 -1.6,0 0.2,-0.7 0.6,-1.3 1.6,-1.2 z m 17.6,0.5 c -2,0.1 -2.9,0.6 -4.3,1.4 -1.2,0.6 -2.2,1.3 -2.4,1.9 -0.3,1.7 1.4,2.4 1.7,4.3 2.6,-0.3 3.8,-2.1 6.2,-2.6 1,-1.8 -0.1,-4 -1.2,-5 z m -21.2,1.4 c 0.3,0 0.5,0 0.8,0.2 -1.1,1.9 -1.1,5.5 0.9,6.2 1.5,-0.3 2.6,-2.1 4.1,-1.7 0,1.8 -1.8,2 -2.9,2.7 -1.1,0.6 -2.1,1.7 -3.3,2.1 -1.7,-1.5 -1,-5.5 -1.4,-8.3 0.5,-0.4 1.1,-1.1 1.8,-1.2 z m -98.6,3.6 c -0.5,1.6 -2,3.1 -1.2,5.4 1.2,0.6 2.7,0.8 4.5,0.7 0.3,-1.6 1.4,-3.7 1,-5.2 -1,-0.7 -2.8,-0.7 -4.3,-0.9 z m -12.4,5.6 c -1.3,0.1 -1.7,1.9 -2.5,2.7 0.1,1.4 -0.4,2.2 -0.3,3.8 -1.5,1.4 -1.4,5.5 -0.7,7.8 1.1,0.3 1.2,1.5 2.9,1.2 0.2,-0.9 0.1,-1.9 0.2,-3.1 0.1,-1 0.7,-2.3 0.7,-3.6 0,-0.3 -0.3,-0.7 -0.2,-1.2 0.4,-2.4 2.7,-6.9 0.5,-7.5 -0.2,-0.1 -0.4,-0.1 -0.6,-0.1 z m 74.5,0.8 c 0.4,0 0.7,0 1,0.2 0.3,1.5 -1.1,1.5 -2.4,1.4 0.1,-0.5 -0.4,-0.5 -0.2,-1.2 0.4,-0.1 1,-0.4 1.6,-0.4 z m -16.5,5.9 c -0.8,1.9 -4.3,1.1 -5.3,2.8 1.3,1.8 0.6,5.3 0.8,8.1 1.4,1.5 2.4,3.1 4.7,3.1 0.3,-0.5 0.8,-0.8 1.2,-1.2 -0.3,-4.6 -0.5,-8.3 -0.7,-12.6 -0.3,0 -0.4,-0.3 -0.7,-0.2 z m 13.1,0.6 c 1.1,-0.1 2.3,0.2 2.5,0.8 -0.5,1.1 -4,1.2 -4.7,0.5 -0.1,-0.8 1,-1.2 2.2,-1.3 z m -3.5,0.5 c 0.1,0 0.2,0 0.3,0 0,0.3 0.1,0.5 0.3,0.5 -0.1,1.2 -1.5,1.1 -2.6,1.2 0,-0.3 -0.1,-0.4 -0.3,-0.5 0,-0.4 0.3,-0.5 0.3,-0.9 0.8,0.1 1.2,-0.3 2,-0.3 z m 5.6,4.6 c 0.5,0 1,0.1 0.9,0.7 0.1,1 -1.7,0.8 -2.6,0.9 -0.9,0.2 -2.1,0.8 -3.1,0 -0.1,-1 3,-1.6 4.3,-1.6 0.1,0 0.3,0 0.5,0 z"></path></svg>