<?xml version="1.0"?>

<!-- Generator: Adobe Illustrator 19.1.0, SVG Export Plug-In . SVG Version: 6.00 Build 0)  -->
<svg version="1.1" id="Capa_1" xmlns="http://www.w3.org/2000/svg" xmlns:xlink="http://www.w3.org/1999/xlink" x="0px" y="0px" width="595.3px" height="225.4px" viewBox="0 0 595.3 225.4" style="enable-background:new 0 0 595.3 225.4;" xml:space="preserve">

<path class="st0" d="M362.1,71.9h3.6v11.7c0,1.1,0,1.8-0.1,2.2c0,0.4-0.1,0.8-0.3,1.3c-0.2,0.6-0.4,1.1-0.8,1.6
	c-0.4,0.5-0.8,0.8-1.3,1c-1.1,0.4-2.7,0.7-5,0.7c-1.6,0-2.8-0.1-3.6-0.3c-0.8-0.2-1.4-0.6-1.9-1.1c-0.6-0.7-1-1.8-1.1-3.2h3.9l0,0.1
	c0.1,0.5,0.4,0.8,0.7,0.9c0.4,0.2,1.1,0.2,2.1,0.2c1,0,1.7-0.1,2.2-0.2c0.4-0.1,0.8-0.3,1-0.6c0.2-0.3,0.3-0.6,0.4-0.9
	c0.1-0.3,0.1-0.9,0.1-1.8v-1.1h-0.1c-0.4,0.8-0.9,1.3-1.5,1.6c-0.6,0.3-1.5,0.4-2.8,0.4c-1.3,0-2.3-0.1-3.1-0.2
	c-0.7-0.2-1.3-0.4-1.8-0.8c-0.5-0.5-0.9-1.1-1.1-1.9c-0.2-0.8-0.3-2-0.3-3.6c0-2,0.2-3.3,0.6-4.1c0.4-0.8,1-1.4,1.8-1.7
	c0.8-0.3,2.1-0.5,3.8-0.5c1.3,0,2.3,0.1,2.9,0.4c0.6,0.3,1.1,0.8,1.5,1.6h0.2V71.9z M358.7,75.2c-1.4,0-2.4,0.2-2.8,0.5
	c-0.3,0.2-0.4,0.5-0.5,0.8c-0.1,0.4-0.2,0.9-0.2,1.6c0,0.8,0.1,1.4,0.2,1.8c0.1,0.4,0.4,0.6,0.8,0.8c0.5,0.2,1.2,0.3,2.3,0.3
	c1.5,0,2.4-0.2,2.9-0.6c0.2-0.2,0.4-0.5,0.5-0.8c0.1-0.3,0.1-0.8,0.1-1.5c0-0.7-0.1-1.3-0.2-1.7c-0.1-0.4-0.3-0.6-0.6-0.8
	C360.7,75.3,359.9,75.2,358.7,75.2z"></path>
<path class="st0" d="M381.2,80.5h3.8c-0.1,1.4-0.4,2.4-1,3c-0.5,0.5-1.2,0.9-2.1,1.1c-0.9,0.2-2.3,0.3-4.1,0.3
	c-1.5,0-2.6-0.1-3.4-0.3c-0.8-0.2-1.4-0.5-1.9-0.9c-0.5-0.5-0.8-1.1-1-1.9c-0.2-0.8-0.3-2-0.3-3.6c0-1.2,0-2.1,0.1-2.7
	c0.1-0.6,0.2-1.2,0.4-1.6c0.4-1,1.1-1.7,2.2-2c0.9-0.3,2.3-0.4,4.3-0.4c1.7,0,2.9,0.1,3.6,0.2c1.2,0.3,2.1,0.8,2.6,1.7
	c0.5,0.9,0.7,2.4,0.7,4.5c0,0.2,0,0.6,0,1.3h-10c0,0.6,0,1.1,0.1,1.4c0.1,0.3,0.2,0.5,0.4,0.7c0.4,0.3,1.2,0.5,2.6,0.5
	c0.9,0,1.5,0,1.9-0.1c0.4-0.1,0.7-0.2,0.9-0.4C381.1,81.2,381.1,80.9,381.2,80.5z M381.2,76.7c0-0.5,0-0.8-0.1-1
	c0-0.2-0.1-0.4-0.2-0.5c-0.3-0.4-1.2-0.6-2.7-0.6c-1.3,0-2.1,0.1-2.6,0.4c-0.4,0.3-0.6,0.9-0.7,1.7H381.2z"></path>
<path class="st0" d="M390.6,71.9h3.6v1.9h0.2c0.3-0.8,0.8-1.4,1.5-1.8c0.7-0.3,1.6-0.5,2.8-0.5c1.2,0,2.2,0.1,2.9,0.4
	c0.7,0.2,1.3,0.7,1.7,1.2c0.5,0.6,0.8,1.2,0.9,2c0.1,0.7,0.2,1.9,0.2,3.7v5.8h-3.8v-5.8c0-1,0-1.7-0.1-2.1c-0.1-0.4-0.2-0.7-0.4-0.9
	c-0.4-0.5-1.2-0.7-2.6-0.7c-1.3,0-2.2,0.3-2.6,0.8c-0.2,0.3-0.4,0.7-0.5,1.1c-0.1,0.4-0.1,1.2-0.1,2.4v5.1h-3.8V71.9z"></path>
<path class="st0" d="M411.4,69h3.8v2.9h6v3.4h-6V79c0,1,0.1,1.6,0.2,1.9c0.2,0.4,0.6,0.7,1.4,0.7c0.7,0,1.2-0.2,1.4-0.6
	c0.1-0.2,0.1-0.3,0.1-0.5c0-0.2,0-0.6,0-1.2h3.5c0,1.2-0.1,2.1-0.2,2.6c-0.1,0.5-0.3,1-0.6,1.5c-0.4,0.6-0.9,1-1.6,1.3
	c-0.7,0.2-1.7,0.4-3,0.4c-1.2,0-2.1-0.1-2.7-0.2c-0.6-0.2-1.1-0.5-1.5-0.9c-0.3-0.3-0.5-0.7-0.6-1.1c-0.1-0.4-0.2-0.9-0.2-1.6
	c0-0.3,0-0.9,0-2v-3.7h-2v-3.4h2V69z"></path>
<path class="st0" d="M436.8,80.5h3.8c-0.1,1.4-0.4,2.4-1,3c-0.5,0.5-1.2,0.9-2.1,1.1c-0.9,0.2-2.3,0.3-4.1,0.3
	c-1.5,0-2.6-0.1-3.4-0.3c-0.8-0.2-1.4-0.5-1.9-0.9c-0.5-0.5-0.8-1.1-1-1.9c-0.2-0.8-0.3-2-0.3-3.6c0-1.2,0-2.1,0.1-2.7
	c0.1-0.6,0.2-1.2,0.4-1.6c0.4-1,1.1-1.7,2.2-2c0.9-0.3,2.3-0.4,4.3-0.4c1.7,0,2.9,0.1,3.6,0.2c1.2,0.3,2.1,0.8,2.6,1.7
	c0.5,0.9,0.7,2.4,0.7,4.5c0,0.2,0,0.6,0,1.3h-10c0,0.6,0,1.1,0.1,1.4c0.1,0.3,0.2,0.5,0.4,0.7c0.4,0.3,1.2,0.5,2.6,0.5
	c0.9,0,1.5,0,1.9-0.1c0.4-0.1,0.7-0.2,0.9-0.4C436.6,81.2,436.7,80.9,436.8,80.5z M436.8,76.7c0-0.5,0-0.8-0.1-1
	c0-0.2-0.1-0.4-0.2-0.5c-0.3-0.4-1.2-0.6-2.6-0.6c-1.3,0-2.1,0.1-2.6,0.4c-0.4,0.3-0.6,0.9-0.7,1.7H436.8z"></path>
<path class="st0" d="M351.6,129.9v-17.9h3.6v1.7h0.2c0.3-0.8,0.8-1.3,1.5-1.6c0.7-0.3,1.7-0.4,3.2-0.4c1.3,0,2.3,0.1,3.1,0.3
	c0.7,0.2,1.3,0.6,1.8,1.1c0.4,0.5,0.7,1.1,0.8,1.8c0.1,0.7,0.2,1.9,0.2,3.5c0,1.1,0,1.9-0.1,2.5c-0.1,0.6-0.2,1.2-0.4,1.6
	c-0.3,0.9-0.9,1.6-1.7,1.9c-0.8,0.4-2.1,0.5-3.9,0.5c-1.3,0-2.3-0.1-2.9-0.4c-0.6-0.3-1.1-0.8-1.5-1.6h-0.2v6.9H351.6z M358.9,115.2
	c-1.6,0-2.6,0.2-3,0.6c-0.4,0.4-0.6,1.3-0.6,2.6c0,0.7,0.1,1.3,0.2,1.6c0.1,0.4,0.3,0.6,0.5,0.8c0.4,0.3,1.3,0.5,2.7,0.5
	c1.4,0,2.3-0.2,2.7-0.5c0.2-0.2,0.4-0.5,0.5-0.9c0.1-0.4,0.1-1,0.1-1.9c0-0.8-0.1-1.3-0.2-1.7c-0.1-0.3-0.3-0.6-0.6-0.8
	C361,115.3,360.2,115.2,358.9,115.2z"></path>
<path class="st0" d="M371.6,111.9h3.6v1.9h0.2c0.4-0.8,0.8-1.4,1.4-1.7c0.6-0.3,1.4-0.5,2.5-0.5c1.5,0,2.6,0.4,3.2,1.1
	c0.6,0.8,0.9,2.1,0.9,4c0,0.1,0,0.4,0,0.9h-3.6c0-0.7-0.1-1.3-0.2-1.6c-0.2-0.6-0.9-0.8-1.8-0.8c-0.9,0-1.6,0.3-1.9,0.9
	c-0.2,0.3-0.3,0.7-0.4,1.1c-0.1,0.5-0.1,1.2-0.1,2.1v5.3h-3.8V111.9z"></path>
<path class="st0" d="M395.7,111.6c1.7,0,3,0.1,3.9,0.3c0.9,0.2,1.5,0.5,2,0.9c0.5,0.5,0.9,1,1,1.8c0.2,0.7,0.3,1.9,0.3,3.5
	c0,1.2,0,2.1-0.1,2.6c-0.1,0.6-0.1,1.1-0.3,1.6c-0.4,1.2-1.1,1.9-2.2,2.3c-0.9,0.3-2.5,0.4-4.6,0.4c-1.9,0-3.3-0.1-4.1-0.3
	c-0.8-0.2-1.5-0.5-2-1c-0.5-0.5-0.8-1.1-0.9-1.9c-0.2-0.8-0.2-2.1-0.2-3.9c0-1,0-1.8,0.1-2.4c0.1-0.5,0.2-1,0.4-1.5
	c0.4-0.9,1-1.5,2-1.9C391.8,111.8,393.4,111.6,395.7,111.6z M395.8,115.2c-1.3,0-2.1,0.1-2.6,0.4c-0.3,0.2-0.6,0.5-0.7,0.9
	c-0.1,0.4-0.2,1.1-0.2,1.9c0,0.8,0.1,1.4,0.2,1.8c0.1,0.4,0.3,0.6,0.6,0.8c0.5,0.3,1.4,0.4,2.6,0.4c1.4,0,2.4-0.2,2.8-0.6
	c0.4-0.4,0.6-1.2,0.6-2.6c0-0.8-0.1-1.5-0.2-1.8c-0.1-0.4-0.4-0.7-0.7-0.8C397.8,115.3,396.9,115.2,395.8,115.2z"></path>
<path class="st0" d="M418.3,119.5h3.9c0,1.1-0.1,1.9-0.3,2.4c-0.1,0.6-0.4,1-0.7,1.5c-0.5,0.6-1.2,1-2,1.2c-0.8,0.2-2.2,0.3-4.3,0.3
	c-1.6,0-2.8-0.1-3.5-0.2c-0.8-0.2-1.4-0.5-1.9-0.9c-0.5-0.4-0.8-1.1-1-1.9c-0.2-0.8-0.3-2-0.3-3.7c0-1.5,0.1-2.7,0.3-3.5
	s0.5-1.4,0.9-1.8c0.5-0.5,1.1-0.8,2-1c0.8-0.2,2.1-0.3,3.8-0.3c1.7,0,3,0.1,3.8,0.3s1.5,0.5,2,1c0.4,0.4,0.7,0.9,0.9,1.5
	c0.2,0.6,0.3,1.5,0.3,2.7h-3.9c-0.1-0.7-0.3-1.2-0.8-1.5c-0.5-0.3-1.2-0.4-2.4-0.4c-1.1,0-1.9,0.1-2.4,0.4c-0.3,0.2-0.5,0.5-0.6,0.9
	c-0.1,0.4-0.2,1.1-0.2,1.9c0,0.8,0.1,1.4,0.2,1.8c0.1,0.4,0.4,0.7,0.7,0.8c0.5,0.3,1.3,0.4,2.3,0.4c1.1,0,1.9-0.1,2.3-0.4
	C418,120.7,418.2,120.2,418.3,119.5z"></path>
<path class="st0" d="M437.4,120.5h3.8c-0.1,1.4-0.4,2.4-1,3c-0.5,0.5-1.2,0.9-2.1,1.1c-0.9,0.2-2.3,0.3-4.1,0.3
	c-1.5,0-2.6-0.1-3.4-0.3c-0.8-0.2-1.4-0.5-1.9-0.9c-0.5-0.5-0.8-1.1-1-1.9c-0.2-0.8-0.3-2-0.3-3.6c0-1.2,0-2.1,0.1-2.7
	c0.1-0.6,0.2-1.2,0.4-1.6c0.4-1,1.1-1.7,2.2-2c0.9-0.3,2.3-0.4,4.3-0.4c1.7,0,2.9,0.1,3.6,0.2c1.2,0.3,2.1,0.8,2.6,1.7
	c0.5,0.9,0.7,2.4,0.7,4.5c0,0.2,0,0.6,0,1.3h-10c0,0.6,0,1.1,0.1,1.4c0.1,0.3,0.2,0.5,0.4,0.7c0.4,0.3,1.2,0.5,2.6,0.5
	c0.9,0,1.5,0,1.9-0.1c0.4-0.1,0.7-0.2,0.9-0.4C437.3,121.2,437.3,120.9,437.4,120.5z M437.4,116.7c0-0.5,0-0.8-0.1-1
	c0-0.2-0.1-0.4-0.2-0.5c-0.3-0.4-1.2-0.6-2.6-0.6c-1.3,0-2.1,0.1-2.6,0.4c-0.4,0.3-0.6,0.9-0.7,1.7H437.4z"></path>
<path class="st0" d="M446.5,120.6h3.9c0,0.5,0.3,0.9,0.7,1.1c0.5,0.2,1.3,0.3,2.5,0.3c1.2,0,2.1-0.1,2.5-0.2
	c0.4-0.2,0.7-0.5,0.7-0.9c0-0.4-0.2-0.7-0.6-0.9c-0.2-0.1-1.3-0.1-3.3-0.1c-1.8,0-3,0-3.4-0.1c-1.2-0.2-2-0.7-2.4-1.4
	c-0.3-0.6-0.5-1.3-0.5-2.3c0-1.9,0.6-3.1,1.7-3.6c0.8-0.4,2.6-0.6,5.4-0.6c1.7,0,3,0.1,3.8,0.2c0.8,0.2,1.4,0.5,1.8,0.9
	c0.3,0.3,0.5,0.6,0.6,1c0.1,0.4,0.2,1,0.2,1.7h-3.9c-0.1-0.3-0.2-0.5-0.3-0.6c-0.3-0.2-1.1-0.4-2.4-0.4c-1.2,0-2,0.1-2.5,0.2
	c-0.4,0.1-0.7,0.4-0.7,0.8c0,0.5,0.3,0.8,0.9,0.8c0.5,0,2.2,0.1,5.2,0.1c1.4,0,2.5,0.3,3.1,0.9c0.6,0.6,1,1.6,1,3
	c0,1-0.1,1.7-0.4,2.3c-0.3,0.6-0.7,1-1.2,1.3c-0.9,0.5-2.8,0.8-5.7,0.8c-1.9,0-3.2-0.1-4-0.3c-0.8-0.2-1.4-0.5-1.9-1.1
	C446.8,122.9,446.5,121.9,446.5,120.6z"></path>
<path class="st0" d="M473.1,111.6c1.7,0,3,0.1,3.9,0.3c0.9,0.2,1.5,0.5,2,0.9c0.5,0.5,0.9,1,1,1.8c0.2,0.7,0.3,1.9,0.3,3.5
	c0,1.2,0,2.1-0.1,2.6c-0.1,0.6-0.2,1.1-0.3,1.6c-0.4,1.2-1.1,1.9-2.2,2.3c-0.9,0.3-2.5,0.4-4.6,0.4c-1.9,0-3.3-0.1-4.1-0.3
	c-0.8-0.2-1.5-0.5-2-1c-0.5-0.5-0.8-1.1-0.9-1.9c-0.2-0.8-0.2-2.1-0.2-3.9c0-1,0-1.8,0.1-2.4c0.1-0.5,0.2-1,0.4-1.5
	c0.4-0.9,1-1.5,2-1.9C469.2,111.8,470.8,111.6,473.1,111.6z M473.1,115.2c-1.3,0-2.1,0.1-2.6,0.4c-0.3,0.2-0.6,0.5-0.7,0.9
	c-0.1,0.4-0.2,1.1-0.2,1.9c0,0.8,0.1,1.4,0.2,1.8c0.1,0.4,0.3,0.6,0.6,0.8c0.5,0.3,1.4,0.4,2.6,0.4c1.4,0,2.4-0.2,2.8-0.6
	c0.4-0.4,0.6-1.2,0.6-2.6c0-0.8-0.1-1.5-0.2-1.8c-0.1-0.4-0.4-0.7-0.7-0.8C475.2,115.3,474.3,115.2,473.1,115.2z"></path>
<path class="st0" d="M485.6,120.6h3.9c0,0.5,0.3,0.9,0.7,1.1c0.5,0.2,1.3,0.3,2.5,0.3c1.2,0,2.1-0.1,2.5-0.2
	c0.4-0.2,0.7-0.5,0.7-0.9c0-0.4-0.2-0.7-0.6-0.9c-0.2-0.1-1.3-0.1-3.3-0.1c-1.8,0-3,0-3.4-0.1c-1.2-0.2-2-0.7-2.4-1.4
	c-0.3-0.6-0.5-1.3-0.5-2.3c0-1.9,0.6-3.1,1.7-3.6c0.8-0.4,2.6-0.6,5.4-0.6c1.7,0,3,0.1,3.8,0.2c0.8,0.2,1.4,0.5,1.8,0.9
	c0.3,0.3,0.5,0.6,0.6,1c0.1,0.4,0.2,1,0.2,1.7h-3.9c-0.1-0.3-0.2-0.5-0.3-0.6c-0.3-0.2-1.1-0.4-2.4-0.4c-1.2,0-2,0.1-2.5,0.2
	c-0.4,0.1-0.7,0.4-0.7,0.8c0,0.5,0.3,0.8,0.9,0.8c0.5,0,2.2,0.1,5.2,0.1c1.4,0,2.5,0.3,3.1,0.9c0.6,0.6,1,1.6,1,3
	c0,1-0.1,1.7-0.4,2.3c-0.3,0.6-0.7,1-1.2,1.3c-0.9,0.5-2.8,0.8-5.7,0.8c-1.9,0-3.2-0.1-4-0.3c-0.8-0.2-1.4-0.5-1.9-1.1
	C485.9,122.9,485.6,121.9,485.6,120.6z"></path>
<path class="st0" d="M352.8,149h3.8v2.9h6v3.4h-6v3.7c0,1,0.1,1.6,0.2,1.9c0.2,0.4,0.6,0.7,1.4,0.7c0.7,0,1.2-0.2,1.4-0.6
	c0.1-0.2,0.1-0.3,0.1-0.5c0-0.2,0-0.6,0-1.2h3.5c0,1.2-0.1,2.1-0.2,2.6c-0.1,0.5-0.3,1-0.6,1.5c-0.4,0.6-0.9,1-1.6,1.3
	c-0.7,0.2-1.7,0.4-3,0.4c-1.2,0-2.1-0.1-2.7-0.2c-0.6-0.2-1.1-0.5-1.5-0.9c-0.3-0.3-0.5-0.7-0.6-1.1c-0.1-0.4-0.2-0.9-0.2-1.6
	c0-0.3,0-0.9,0-2v-3.7h-2v-3.4h2V149z"></path>
<path class="st0" d="M378.1,160.5h3.8c-0.1,1.4-0.4,2.4-1,3c-0.5,0.5-1.2,0.9-2.1,1.1c-0.9,0.2-2.3,0.3-4.1,0.3
	c-1.5,0-2.6-0.1-3.4-0.3c-0.8-0.2-1.4-0.5-1.9-0.9c-0.5-0.5-0.8-1.1-1-1.9c-0.2-0.8-0.3-2-0.3-3.6c0-1.2,0-2.1,0.1-2.7
	c0.1-0.6,0.2-1.2,0.4-1.6c0.4-1,1.1-1.7,2.2-2c0.9-0.3,2.3-0.4,4.3-0.4c1.7,0,2.9,0.1,3.6,0.2c1.2,0.3,2.1,0.8,2.6,1.7
	c0.5,0.9,0.7,2.4,0.7,4.5c0,0.2,0,0.6,0,1.3h-10c0,0.6,0,1.1,0.1,1.4c0.1,0.3,0.2,0.5,0.4,0.7c0.4,0.3,1.2,0.5,2.6,0.5
	c0.9,0,1.5,0,1.9-0.1c0.4-0.1,0.7-0.2,0.9-0.4C377.9,161.2,378,160.9,378.1,160.5z M378.1,156.7c0-0.5,0-0.8-0.1-1
	c0-0.2-0.1-0.4-0.2-0.5c-0.3-0.4-1.2-0.6-2.6-0.6c-1.3,0-2.1,0.1-2.6,0.4c-0.4,0.3-0.6,0.9-0.7,1.7H378.1z"></path>
<path class="st0" d="M397.3,159.5h3.9c0,1.1-0.1,1.9-0.3,2.4c-0.1,0.6-0.4,1-0.7,1.5c-0.5,0.6-1.2,1-2,1.2c-0.8,0.2-2.2,0.3-4.3,0.3
	c-1.6,0-2.8-0.1-3.5-0.2c-0.8-0.2-1.4-0.5-1.9-0.9c-0.5-0.4-0.8-1.1-1-1.9c-0.2-0.8-0.3-2-0.3-3.7c0-1.5,0.1-2.7,0.3-3.5
	c0.2-0.8,0.5-1.4,0.9-1.8c0.5-0.5,1.1-0.8,2-1c0.8-0.2,2.1-0.3,3.8-0.3c1.7,0,3,0.1,3.8,0.3s1.5,0.5,2,1c0.4,0.4,0.7,0.9,0.9,1.5
	c0.2,0.6,0.3,1.5,0.3,2.7h-3.9c-0.1-0.7-0.3-1.2-0.8-1.5c-0.5-0.3-1.2-0.4-2.4-0.4c-1.1,0-1.9,0.1-2.4,0.4c-0.3,0.2-0.5,0.5-0.6,0.9
	c-0.1,0.4-0.2,1.1-0.2,1.9c0,0.8,0.1,1.4,0.2,1.8c0.1,0.4,0.4,0.7,0.7,0.8c0.5,0.3,1.3,0.4,2.3,0.4c1.1,0,1.9-0.1,2.3-0.4
	C397,160.7,397.3,160.2,397.3,159.5z"></path>
<path class="st0" d="M406.7,151.9h3.6v1.9h0.2c0.3-0.8,0.8-1.4,1.5-1.8c0.7-0.3,1.6-0.5,2.8-0.5c1.2,0,2.2,0.1,2.9,0.4
	c0.7,0.2,1.3,0.7,1.7,1.2c0.5,0.6,0.8,1.2,0.9,2c0.1,0.7,0.2,1.9,0.2,3.7v5.8h-3.8v-5.8c0-1,0-1.7-0.1-2.1c-0.1-0.4-0.2-0.7-0.4-0.9
	c-0.4-0.5-1.2-0.7-2.6-0.7c-1.3,0-2.2,0.3-2.6,0.8c-0.2,0.3-0.4,0.7-0.5,1.1c-0.1,0.4-0.1,1.2-0.1,2.4v5.1h-3.8V151.9z"></path>
<path class="st0" d="M433.4,151.6c1.7,0,3,0.1,3.9,0.3c0.9,0.2,1.5,0.5,2,0.9c0.5,0.5,0.9,1,1,1.8c0.2,0.7,0.3,1.9,0.3,3.5
	c0,1.2,0,2.1-0.1,2.6c-0.1,0.6-0.1,1.1-0.3,1.6c-0.4,1.2-1.1,1.9-2.2,2.3c-0.9,0.3-2.5,0.4-4.6,0.4c-1.9,0-3.3-0.1-4.1-0.3
	c-0.8-0.2-1.5-0.5-2-1c-0.5-0.5-0.8-1.1-0.9-1.9c-0.2-0.8-0.2-2.1-0.2-3.9c0-1,0-1.8,0.1-2.4c0.1-0.5,0.2-1,0.4-1.5
	c0.4-0.9,1-1.5,2-1.9C429.5,151.8,431.1,151.6,433.4,151.6z M433.4,155.2c-1.3,0-2.1,0.1-2.6,0.4c-0.3,0.2-0.6,0.5-0.7,0.9
	c-0.1,0.4-0.2,1.1-0.2,1.9c0,0.8,0.1,1.4,0.2,1.8c0.1,0.4,0.3,0.6,0.6,0.8c0.5,0.3,1.4,0.4,2.6,0.4c1.4,0,2.4-0.2,2.8-0.6
	c0.4-0.4,0.6-1.2,0.6-2.6c0-0.8-0.1-1.5-0.2-1.8c-0.1-0.4-0.4-0.7-0.7-0.8C435.4,155.3,434.6,155.2,433.4,155.2z"></path>
<path class="st0" d="M446.1,146.7h3.8v17.8h-3.8V146.7z"></path>
<path class="st0" d="M462.8,151.6c1.7,0,3,0.1,3.9,0.3c0.9,0.2,1.5,0.5,2,0.9c0.5,0.5,0.9,1,1,1.8c0.2,0.7,0.3,1.9,0.3,3.5
	c0,1.2,0,2.1-0.1,2.6c-0.1,0.6-0.1,1.1-0.3,1.6c-0.4,1.2-1.1,1.9-2.2,2.3c-0.9,0.3-2.5,0.4-4.6,0.4c-1.9,0-3.3-0.1-4.1-0.3
	c-0.8-0.2-1.5-0.5-2-1c-0.5-0.5-0.8-1.1-0.9-1.9c-0.2-0.8-0.2-2.1-0.2-3.9c0-1,0-1.8,0.1-2.4c0.1-0.5,0.2-1,0.4-1.5
	c0.4-0.9,1-1.5,2-1.9C458.9,151.8,460.5,151.6,462.8,151.6z M462.8,155.2c-1.3,0-2.1,0.1-2.6,0.4c-0.3,0.2-0.6,0.5-0.7,0.9
	c-0.1,0.4-0.2,1.1-0.2,1.9c0,0.8,0.1,1.4,0.2,1.8c0.1,0.4,0.3,0.6,0.6,0.8c0.5,0.3,1.4,0.4,2.6,0.4c1.4,0,2.4-0.2,2.8-0.6
	c0.4-0.4,0.6-1.2,0.6-2.6c0-0.8-0.1-1.5-0.2-1.8c-0.1-0.4-0.4-0.7-0.7-0.8C464.8,155.3,464,155.2,462.8,155.2z"></path>
<path class="st0" d="M486.1,151.9h3.6v11.7c0,1.1,0,1.8-0.1,2.2c0,0.4-0.1,0.8-0.3,1.3c-0.2,0.6-0.4,1.1-0.8,1.6
	c-0.4,0.5-0.8,0.8-1.3,1c-1.1,0.4-2.7,0.7-5,0.7c-1.6,0-2.8-0.1-3.6-0.3c-0.8-0.2-1.4-0.6-1.9-1.1c-0.6-0.7-1-1.8-1.1-3.2h3.9l0,0.1
	c0.1,0.5,0.4,0.8,0.7,0.9c0.4,0.2,1.1,0.2,2.1,0.2c1,0,1.7-0.1,2.2-0.2c0.4-0.1,0.8-0.3,1-0.6c0.2-0.3,0.3-0.6,0.4-0.9
	c0.1-0.3,0.1-0.9,0.1-1.8v-1.1h-0.1c-0.4,0.8-0.9,1.3-1.5,1.6c-0.6,0.3-1.5,0.4-2.8,0.4c-1.3,0-2.3-0.1-3.1-0.2
	c-0.7-0.2-1.3-0.4-1.8-0.8c-0.5-0.5-0.9-1.1-1.1-1.9c-0.2-0.8-0.3-2-0.3-3.6c0-2,0.2-3.3,0.6-4.1c0.4-0.8,1-1.4,1.8-1.7
	c0.8-0.3,2.1-0.5,3.8-0.5c1.3,0,2.3,0.1,2.9,0.4c0.6,0.3,1.1,0.8,1.5,1.6h0.2V151.9z M482.6,155.2c-1.4,0-2.4,0.2-2.8,0.5
	c-0.3,0.2-0.4,0.5-0.5,0.8c-0.1,0.4-0.2,0.9-0.2,1.6c0,0.8,0.1,1.4,0.2,1.8c0.1,0.4,0.4,0.6,0.8,0.8c0.5,0.2,1.2,0.3,2.3,0.3
	c1.5,0,2.4-0.2,2.9-0.6c0.2-0.2,0.4-0.5,0.5-0.8c0.1-0.3,0.1-0.8,0.1-1.5c0-0.7-0.1-1.3-0.2-1.7c-0.1-0.4-0.3-0.6-0.6-0.8
	C484.6,155.3,483.8,155.2,482.6,155.2z"></path>
<path class="st0" d="M495.4,151.9h3.8v12.7h-3.8V151.9z M495.5,149.8l3.5-6.2l2.3,2.7l-4.6,4.8L495.5,149.8z"></path>
<path class="st0" d="M509,155.9h-3.8c0-1,0.2-1.7,0.5-2.2c0.5-0.8,1.2-1.4,2.1-1.6c1-0.3,2.6-0.4,4.9-0.4c1.7,0,2.8,0.1,3.4,0.2
	c0.6,0.2,1.1,0.5,1.6,1c0.3,0.4,0.6,0.9,0.7,1.5c0.1,0.6,0.2,1.5,0.2,2.6v7.6h-3.7v-1.7h-0.2c-0.3,0.7-0.7,1.3-1.3,1.6
	c-0.3,0.2-0.8,0.3-1.4,0.4c-0.6,0.1-1.5,0.1-2.8,0.1c-1,0-1.8-0.1-2.4-0.2c-0.6-0.2-1-0.4-1.3-0.8c-0.5-0.6-0.7-1.5-0.7-2.9
	c0-1.5,0.3-2.5,0.9-3.2c0.5-0.5,1.1-0.8,1.8-1c0.8-0.2,2.2-0.2,4.2-0.2c0.9,0,1.5,0.1,1.9,0.2c0.4,0.1,0.7,0.4,1,0.8h0.2v-0.7
	c0-1-0.1-1.6-0.4-1.9c-0.3-0.3-1-0.4-2.2-0.4c-1.4,0-2.2,0.1-2.5,0.2C509.3,155,509.1,155.3,509,155.9z M511.6,159.2
	c-1.3,0-2.1,0.1-2.4,0.3c-0.4,0.2-0.6,0.6-0.6,1c0,0.5,0.2,0.9,0.5,1c0.4,0.2,1.1,0.3,2.1,0.3c1.3,0,2.2-0.1,2.7-0.3
	c0.5-0.2,0.7-0.6,0.7-1.1c0-0.5-0.2-0.9-0.6-1C513.9,159.3,513,159.3,511.6,159.2z"></path>
<path class="st0" d="M336.4,170.4h-4.3V65.7h4.3V170.4z"></path>
<path class="st0" d="M261.7,57.7c-32.8,0-59.3,26.6-59.3,59.3c0,32.8,26.6,59.3,59.3,59.3c32.8,0,59.3-26.6,59.3-59.3
	C321.1,84.3,294.5,57.7,261.7,57.7z M302.4,104.5h-35v37h-12.1v-37h-34V91.4h80.5h0.6V104.5z"></path>
<path class="st0" d="M136.7,57.4c-32.8,0-59.3,26.6-59.3,59.3c0,32.8,26.6,59.3,59.3,59.3c32.8,0,59.3-26.6,59.3-59.3
	C196.1,84,169.5,57.4,136.7,57.4z M177.4,104.5h-68v5.9c0,0,41.6,0,54.8,0s13.2,12.2,13.2,12.2c0,1.2,0,3,0,5.7
	c0,13.5-13.2,13.2-13.2,13.2H95.3v-13.2h68.9v-5.7c0,0-40.9,0-54.8,0s-14.1-12.2-14.1-12.2c0-1.2,0-3.1,0-5.9
	c0-12.8,14.1-13.1,14.1-13.1h68V104.5z"></path>
</svg>
