<?xml version="1.0"?>

<svg xmlns="http://www.w3.org/2000/svg" width="1066" height="528.11" viewBox="0 0 1066 528.11">  
   <path d="m 454.7,370.31 c 0.9,2.6 2,5.6 3,8.7 0.8,2.6 4.7,14 8.1,23.7 l -22.9,0 c 2.1,-5.5 4.7,-13.3 8.6,-23.5 1.2,-3.2 2.3,-6.2 3.2,-8.9 z m 195.3,-11.4 15.2,0 c 8.8,0.1 21.9,0.1 24.7,0.9 3.2,1.9 5,5 4.9,8.2 -0.3,1.8 -1.1,4.9 -5.4,6.7 -2.4,0.9 -6.2,1.4 -25.2,1.4 -6.1,0 -10.7,-0.2 -14.3,-0.5 0.1,-2.6 0.1,-5.7 0.1,-8.9 l 0,-7.8 z m -10.8,-11 c 0.1,0.2 -0.1,37.4 -0.1,37.4 0,0 6.4,1.7 25.1,1.7 21.1,0 25.1,-0.3 29.5,-2.4 15.1,-6.4 16,-25.7 1.5,-34.3 -3.1,-1.7 -7.3,-2.2 -30,-2.3 l -26,-0.1 z m -184,-10.7 c -0.2,0.3 -7.1,19.3 -13.9,38.2 -7,19.1 -14,38.1 -14,38.3 0.1,0 24.9,-0.2 40.7,-0.2 l 13,0 c -0.4,-0.6 -25.7,-75.3 -25.8,-76.3 z m -331.07,-21.8 44.52,0 c 0,0 24.41,69 24.71,69 l 24.4,-69 49.94,0 11.8,34.7 c 6.4,18.6 12.1,33.5 12.8,33.5 0.8,-0.7 24,-67.8 24,-67.8 l 44.6,0 -53.8,157.4 -31.2,0 c 0,0 -33.14,-95.8 -32.94,-96.2 l -34.73,95 -30.8,0 -53.3,-156.6 z m 732.27,-0.6 100.4,0 -0.1,41.1 c 0,0 -44.5,-0.1 -67.1,-0.1 l -12.8,0 c -3.8,0.7 -6.3,9 -5.3,12.8 0.6,1.7 4.6,7.6 9.1,13.3 4.4,5.5 11.8,14.6 16,20 11.4,14.1 12.9,16.7 13.9,25 1.7,13.3 -4.6,27.6 -16.2,36.9 -11.4,9.4 -10.8,9.4 -96.9,9.4 l -3.8,0 c -52.4,0 -80.1,-0.4 -84,-1.3 -7.1,-1.7 -18.6,-11 -48.7,-39.9 -10.9,-10.4 -20.9,-19.4 -21.5,-19.4 l -0.2,60.7 -48.8,-0.2 -0.4,-156.6 61.6,0 47.3,0 c 32.7,1.3 55.2,33.9 50.6,54.9 -1,4.6 -3.5,11.5 -5.7,15.3 -4.4,7.4 -15.3,16.9 -24.4,21 -3.3,1.6 -6.1,3.3 -6.1,4 0,2.3 10.9,13.1 15.2,14.8 3.2,1.5 13.5,1.7 58.8,1.7 l 14.4,0 c 45.3,0 43,-0.2 46.4,-7.6 2.4,-5.3 0.7,-8.4 -16.7,-27.9 -21.8,-21.7 -19.5,-32 -19.7,-39.8 -0.2,-9.1 6.9,-38.1 44.7,-38.1 z m -439.6,-0.7 74.2,0 55,157.6 -44.7,0.3 -7.5,-23.8 -79.9,-0.5 -7,23.7 -44.4,-0.5 54.3,-156.8 z m -307.9,-9.7 4.91,14.5 53.3,156.5 2.51,7.6 7.79,0 30.82,0 7.61,0 2.58,-7.3 24.04,-66.1 c 2.12,6.1 4.4,12.7 6.54,19.2 8.3,23.8 16.6,47.9 16.6,47.9 l 2.6,7.3 7.7,0 31.2,0 7.6,0 2.6,-7.4 54,-157.1 4.9,-14.5 -15.3,0 -44.6,0 -7.8,0 -2.6,7.3 c -3.9,11.9 -9.3,27.4 -14,40.5 -0.7,-2.2 -1.4,-4.1 -2,-6.4 l -11.9,-34.7 -2.6,-7.3 -7.7,0 -49.94,0 -7.76,0 -2.59,7.3 -14.19,40.4 c -4.72,-13.1 -10.15,-28.7 -14.32,-40.4 l -2.56,-7.3 -7.7,0 -44.52,0 -15.22,0 z m 747.5,-0.5 c -21.9,0 -34.8,8.5 -41.6,15.8 -11.4,11.7 -14.2,26.4 -13.9,33.6 0.1,0.5 0.1,1.1 0,1.6 0,11.4 1.6,24.3 22.7,45.3 4.1,4.6 11,12.5 13.7,16.5 -5.7,0.7 -20.3,0.7 -35.6,0.7 l -6.6,0 -7.8,0 c -27.2,0 -50,0 -54.9,-1 -0.4,-0.4 -1.5,-1.2 -2.5,-2 9.4,-5.8 18.9,-14.8 23.4,-22.3 2.5,-4.6 5.6,-12.7 6.8,-18.5 3,-13.1 -1.8,-28.9 -12.2,-42.4 -12.1,-15.5 -29.9,-24.8 -48.7,-25.5 l -0.1,0 -0.2,0 -47.3,0 -61.6,0 -11,0 0,10.8 0.5,156.6 0,10.7 10.8,0 48.8,0.2 10.8,0.1 0.1,-10.8 0.3,-36.4 c 1.1,1 1.9,1.9 3,3.1 33,31.5 44,40.2 53.9,42.6 2.6,0.5 7.1,1.4 86.4,1.4 l 3.8,0 c 42.9,0 64.3,0 77.3,-1.1 14.6,-1.5 19.3,-4.8 26.3,-10.6 l 0.4,-0.1 c 14.6,-11.9 22.1,-29.8 19.9,-46.7 -1.4,-11 -4.3,-15.6 -16.3,-30.5 l -3.4,-4.4 c -4.2,-5 -9,-11.3 -12.5,-15.5 -2.8,-3.5 -4.8,-6.4 -6.1,-8.4 l 6.6,0 c 22.4,0 66.5,0.2 67.1,0.2 l 10.9,0 0,-11 0.1,-41.1 0,-10.9 -10.9,0 -100.4,0 z m -447.3,-0.7 -2.5,7.4 -54.2,156.8 -4.9,14.3 15,0.1 44.4,0.5 8,0.1 2.5,-7.9 4.7,-15.9 63.7,0.5 5,16.1 2.5,7.8 8,0 44.7,-0.3 15.2,0 -4.9,-14.4 -54.9,-157.7 -2.6,-7.4 -7.8,0 -74.2,0 -7.7,0 z m 612.9,-35.4 q 0,5.8 -3.4,9.7 -3.6,4.1 -9.5,4.1 -1.3,0 -4.6,-0.7 -1.4,-0.3 -2,-0.2 -0.5,0 -0.9,0.1 -0.5,0.4 -0.8,0.5 l 0,-9.3 1.2,1.2 q 0.9,0.8 2.4,1.5 1.9,0.8 3.6,0.8 3,0 4.9,-1.5 2.2,-1.6 2.6,-4.6 0,-0.2 0,-0.5 0,-0.3 0,-0.4 0,-2.1 -1.1,-3.8 -1,-1.4 -2.9,-2.9 -1.2,-0.8 -3.7,-2.3 -3.4,-2.1 -5,-4.4 -2,-2.7 -2,-6.2 0,-4.1 2.6,-7 2.7,-2.8 6.6,-2.8 1.5,0 3.5,0.4 2.1,0.4 2.3,0.4 0.4,0.1 0.8,-0.1 0.5,-0.3 0.7,-0.4 l 0,8.6 -1.4,-1.4 q -0.9,-0.8 -2.1,-1.2 -1.3,-0.4 -2.8,-0.4 -1.4,0 -2.6,1.1 -1.1,1.1 -1.1,2.7 0,2.2 1.7,3.6 2.6,1.7 4.6,3 4.1,2.7 5.9,5.1 2.5,3.2 2.5,7.3 z m -54.4,-27.9 -0.5,1 q -0.2,0.3 -0.2,1 -0.1,0.8 -0.1,1.2 l 0,39.2 -21.8,-25.3 0,21.1 q 0,0.8 0.1,1.2 0,0.4 0.2,0.9 l 0.5,1.1 -8.1,0 0.6,-1.1 q 0.1,-0.3 0.2,-1 0.1,-0.6 0.1,-1.1 l 0,-38.9 21.7,25.4 0,-21.5 q 0,-0.8 0,-1.3 -0.1,-0.4 -0.3,-0.9 -0.1,-0.5 -0.5,-1 l 8.1,0 z m -63.6,41.4 -23,0 0.5,-1.1 q 0.3,-0.8 0.3,-2.1 l 0,-35.5 q 0,-0.9 -0.3,-1.7 l -0.5,-1 23,0 0,6.9 q -0.3,-0.2 -0.7,-0.4 -0.3,-0.1 -0.6,-0.2 -0.3,-0.1 -0.8,-0.2 -0.6,0 -0.9,0 -0.4,0 -0.8,0 -0.3,0 -0.5,0 l -11.4,0 0,11.4 7.5,0 q 0.6,0 0.9,0 0.4,0 0.7,0 0.3,-0.1 0.7,-0.2 0.4,-0.2 1,-0.6 l 0,7.8 q -0.3,-0.2 -0.7,-0.4 -0.4,-0.2 -0.8,-0.3 -0.4,-0.1 -0.9,-0.1 -0.6,0 -1,0 l -7.4,0 0,11.5 11.4,0 q 0.9,0 1.3,0 0.3,0 0.4,0 0.8,0 1.3,-0.1 0.4,-0.1 0.6,-0.3 0.2,0 0.7,-0.3 l 0,6.9 z m -55.4,0 -8.9,0 q 0.1,-0.4 0.2,-0.8 0.2,-0.5 0.2,-0.9 0,-2.2 -1.3,-4.9 -1.2,-2.8 -3.3,-5.1 -2.4,-2.5 -5.1,-3.8 -2.8,-1.4 -5.8,-1.8 l -0.6,0 0,14.1 q 0,0.6 0,1.2 0.1,0.5 0.3,0.9 l 0.5,1.1 -8.1,0 0.6,-1.1 q 0.2,-0.8 0.2,-2.1 l 0,-35.5 q 0,-0.9 -0.2,-1.7 l -0.6,-1 8.1,0 -0.5,1 q -0.1,0.3 -0.2,0.8 -0.1,0.5 -0.1,0.9 l 0,15.2 10.1,-12.5 q 0.8,-1 1.5,-2 0.9,-1.4 0.9,-2 0,-0.5 -0.1,-0.7 -0.1,-0.2 -0.5,-0.7 l 10.9,0 q -0.8,0.4 -1.6,1.2 -0.4,0.5 -1.4,1.7 l -2.5,3.1 -11,13.7 1.8,0.6 q 2.7,0.8 4.7,2.1 1.6,1 3.9,3.3 2.6,2.5 4.3,6.2 1.5,3.1 2.6,7.6 0.1,0.4 0.4,0.9 0.6,0.9 0.6,1 z m -63.5,0 -9.9,0 q 0.3,-0.5 0.4,-0.8 0.1,-0.3 0.1,-0.8 0,-0.4 -0.1,-0.8 -0.1,-0.4 -0.3,-1 l -2.9,-6.5 -14.8,0 -2.8,7 q -0.2,0.4 -0.3,0.9 -0.2,0.4 -0.2,0.8 0,0.3 0.1,0.6 0.2,0.2 0.5,0.6 l -9.6,0 q 1.1,-0.8 1.2,-1 0.3,-0.3 0.6,-0.8 0.5,-1.1 0.8,-1.8 0.5,-0.9 0.9,-1.9 l 15.4,-37.5 18.4,39.8 q 0.3,0.5 0.4,0.8 0.1,0.1 0.6,0.8 0.7,0.9 1.5,1.6 z m -15.3,-15.9 -5.3,-11.7 -4.7,11.7 10,0 z m -45.7,-25.5 q -0.9,0.7 -1.5,1.5 -0.4,0.4 -0.6,0.9 -0.3,0.3 -0.4,0.8 l -16.6,39.2 -7.7,-16.7 -7.2,16.7 -16.5,-37 q -0.4,-0.9 -0.8,-1.9 -0.3,-0.5 -0.9,-1.7 -0.3,-0.7 -0.9,-1.2 -0.1,-0.1 -0.9,-0.6 l 9.6,0 q -0.2,0.2 -0.3,0.5 -0.2,0.3 -0.2,0.7 0,0.7 0.4,1.6 l 10.6,24.3 3.7,-9 -5.6,-12.7 q -0.4,-1.1 -0.8,-1.9 -0.6,-1.2 -0.9,-1.7 -0.2,-0.4 -0.5,-0.7 -0.3,-0.4 -1.3,-1.1 l 9.6,0 q -0.2,0.2 -0.3,0.5 -0.2,0.3 -0.2,0.7 0,0.8 0.4,1.6 l 10.7,24.2 9.4,-23.6 q 0.2,-0.5 0.4,-0.9 0.1,-0.5 0.1,-1 0,-0.8 -0.5,-1.5 l 9.7,0 z m -74.2,41.4 -10,0 q 0.3,-0.5 0.4,-0.8 0.2,-0.3 0.2,-0.8 0,-0.4 -0.1,-0.8 -0.1,-0.4 -0.4,-1 l -2.9,-6.5 -14.8,0 -2.8,7 q -0.2,0.4 -0.3,0.9 -0.1,0.4 -0.1,0.8 0,0.3 0.1,0.6 0.1,0.2 0.4,0.6 l -9.6,0 q 1.1,-0.8 1.3,-1 0.3,-0.3 0.5,-0.8 0.6,-1.1 0.9,-1.8 0.4,-0.9 0.8,-1.9 l 15.4,-37.5 18.5,39.8 q 0.2,0.5 0.4,0.8 0,0.1 0.5,0.8 0.7,0.9 1.6,1.6 z m -15.4,-15.9 -5.3,-11.7 -4.7,11.7 10,0 z m -96.1,15.9 -23.1,0 0.6,-1.1 q 0.3,-0.8 0.3,-2.1 l 0,-35.5 q 0,-0.9 -0.3,-1.7 l -0.6,-1 23.1,0 0,6.9 q -0.4,-0.2 -0.7,-0.4 -0.4,-0.1 -0.7,-0.2 -0.2,-0.1 -0.8,-0.2 -0.5,0 -0.9,0 -0.4,0 -0.7,0 -0.3,0 -0.5,0 l -11.5,0 0,11.4 7.5,0 q 0.6,0 0.9,0 0.4,0 0.7,0 0.4,-0.1 0.8,-0.2 0.4,-0.2 0.9,-0.6 l 0,7.8 q -0.2,-0.2 -0.6,-0.4 -0.4,-0.2 -0.8,-0.3 -0.4,-0.1 -0.9,-0.1 -0.6,0 -1,0 l -7.5,0 0,11.5 11.5,0 q 0.8,0 1.2,0 0.3,0 0.5,0 0.8,0 1.2,-0.1 0.4,-0.1 0.7,-0.3 0.1,0 0.7,-0.3 l 0,6.9 z m -55.5,0.3 q -0.6,-0.3 -0.8,-0.4 -0.4,-0.2 -0.7,-0.1 -2.1,0.5 -4,0.8 -2,0.4 -3.1,0.4 -0.4,0 -0.6,0 -0.4,-0.1 -0.6,-0.1 -4.9,-0.5 -8.8,-2.5 -4,-2.1 -7.2,-6.1 -2.2,-2.8 -3.4,-6.2 -1.1,-3.4 -1.1,-6.9 0,-4.6 1.9,-8.9 1.9,-4.2 5.5,-7.4 2.8,-2.4 5.7,-3.6 3.5,-1.5 7.2,-1.5 2.5,0 5,0.4 0.3,0 3.1,0.6 0.4,0.1 0.9,-0.1 0.4,-0.1 0.9,-0.3 l 0,8.1 -1.8,-0.8 q -1.3,-0.7 -3.2,-1.1 -1.8,-0.4 -3.7,-0.4 -0.5,0 -0.9,0 -0.4,0.1 -0.6,0.1 -5.6,0.5 -9.5,4.9 -3.9,4.2 -3.9,10.1 0,6.1 4.6,10.7 4.5,4.5 10,4.5 2,0 4,-0.5 2,-0.4 3.1,-1 l 2,-1 0,8.3 z m -62.9,-0.3 -8.8,0 q 0.2,-0.4 0.4,-0.8 0.2,-0.5 0.2,-1 0,-3.5 -1.5,-6.3 -1.4,-2.9 -4.4,-5.5 -1.6,-1.5 -3.9,-2.3 -2.6,-1.1 -4.5,-1.1 l -1,0 0,13.8 q 0,0.6 0,1.2 0.1,0.5 0.2,0.9 l 0.6,1.1 -8.1,0 0.5,-1.1 q 0.3,-0.8 0.3,-2.1 l 0,-38.3 q 0.3,0.1 1,0.3 0.6,0.2 0.9,0.2 1.9,-0.4 3.8,-0.8 1.9,-0.4 3.3,-0.4 4.8,0 8.3,2.5 3.7,2.6 4.8,7.4 0.2,0.6 0.3,1.4 0.1,0.8 0.1,1.4 0,2.3 -0.8,4.3 -0.7,2 -2.2,3.6 -0.5,0.5 -1.2,0.9 -1.3,0.7 -1.3,0.8 l 1.5,0.9 q 1.7,1 2.4,1.5 1,0.7 2.1,1.8 2.7,2.7 4.4,7.4 0.8,2.2 1.7,6.5 0.1,0.4 0.2,0.7 0.2,0.3 0.7,1.1 z m -14.1,-28.1 q 0.1,-0.3 0.1,-0.6 0.1,-0.4 0.1,-0.8 0,-1.6 -0.7,-2.8 -0.6,-1.3 -2,-2.3 -1.2,-0.9 -2.2,-1.1 -0.9,-0.3 -2.2,-0.3 -0.8,0 -1.5,0.3 -0.6,0.3 -1,0.5 l 0,12.1 0.9,0.2 q 0.3,0.1 0.8,0.2 0.4,0 0.8,0 0.1,0 0.3,0 0.3,0 0.7,-0.1 2.4,-0.5 3.8,-1.6 1.7,-1.3 2.1,-3.7 z m -49,7.3 q 0,8.9 -6.2,15.3 -6.2,6.4 -15.2,6.4 -8.9,0 -15.2,-6.4 -6.4,-6.4 -6.4,-15 0,-8.9 5.9,-15.3 6.2,-6.7 15.2,-6.7 9,0 15.4,6.4 6.5,6.3 6.5,15.3 z m -6.6,0 q 0,-6.2 -4.5,-10.6 -4.5,-4.4 -10.8,-4.4 -6,0 -10.3,4.6 -4.3,4.6 -4.3,10.7 0,6 4.5,10.4 4.5,4.4 10.6,4.4 6.3,0 10.6,-4.4 4.2,-4.5 4.2,-10.7 z m -68.9,-13.7 q -0.4,-0.2 -0.7,-0.4 -0.4,-0.2 -0.7,-0.3 -0.2,0 -0.7,-0.1 -0.6,0 -0.9,0 -0.9,0 -1.3,0 l -11.4,0 0,11.4 7.4,0 q 0.7,0 1,0 0.7,0 1.2,-0.2 0.5,-0.2 0.8,-0.3 0.3,-0.2 0.4,-0.3 l 0,7.8 q -0.4,-0.3 -0.7,-0.5 -0.4,-0.1 -0.8,-0.2 -0.4,-0.1 -0.9,-0.1 -0.6,0 -1,0 l -7.4,0 0,14.5 q 0,0.8 0,1.2 0,0.4 0.2,1 0.2,0.5 0.6,1 l -8.2,0 0.6,-1.1 q 0.1,-0.3 0.2,-0.9 0.1,-0.7 0.1,-1.2 l 0,-35.5 q 0,-0.6 -0.1,-0.9 0,-0.3 -0.2,-0.8 l -0.6,-1 23.1,0 0,6.9 z m -94.94,34.5 -23.06,0 0.55,-1.1 q 0.28,-0.8 0.28,-2.1 l 0,-35.5 q 0,-0.9 -0.28,-1.7 l -0.55,-1 23.06,0 0,6.9 q -0.34,-0.2 -0.72,-0.4 -0.35,-0.1 -0.62,-0.2 -0.24,-0.1 -0.83,-0.2 -0.55,0 -0.89,0 -0.38,0 -0.73,0 -0.3,0 -0.51,0 l -11.46,0 0,11.4 7.5,0 q 0.62,0 0.9,0 0.41,0 0.72,0 0.34,-0.1 0.72,-0.2 0.41,-0.2 0.96,-0.6 l 0,7.8 q -0.27,-0.2 -0.65,-0.4 -0.38,-0.2 -0.79,-0.3 -0.41,-0.1 -0.9,-0.1 -0.62,0 -1.03,0 l -7.43,0 0,11.5 11.46,0 q 0.86,0 1.24,0 0.31,0 0.48,0 0.79,0 1.2,-0.1 0.42,-0.1 0.69,-0.3 0.14,0 0.69,-0.3 l 0,6.9 z m -56.1,0 -8.12,0 0.55,-1.1 q 0.14,-0.3 0.21,-1 0.1,-0.7 0.1,-1.1 l 0,-14.1 -14.6,0 0,14.1 q 0,0.6 0,1.2 0.1,0.5 0.24,0.9 l 0.55,1.1 -8.12,0 0.55,-1.1 q 0.27,-0.8 0.27,-2.1 l 0,-35.5 q 0,-0.9 -0.27,-1.7 l -0.55,-1 8.12,0 -0.55,1 q -0.14,0.3 -0.21,0.8 -0.1,0.5 -0.1,0.9 l 0,14.9 14.6,0 0,-14.9 q 0,-0.6 0,-0.9 0,-0.3 -0.24,-0.8 l -0.55,-1 8.12,0 -0.55,1 q -0.27,0.8 -0.27,1.7 l 0,35.5 q 0,0.8 0,1.2 0,0.4 0.24,0.9 l 0.55,1.1 z m -61.67,-34.5 q -0.34,-0.2 -0.72,-0.4 -0.34,-0.1 -0.62,-0.2 -0.27,-0.1 -0.83,-0.2 -0.51,0 -0.86,0 -0.41,0 -0.72,0 -0.27,0 -0.48,0 l -4.85,0 0,32.1 q 0,0.6 0,1.2 0.1,0.5 0.21,0.9 l 0.55,1.1 -8.12,0 0.55,-1.1 q 0.13,-0.3 0.2,-0.9 0.1,-0.7 0.1,-1.2 l 0,-32.1 -4.85,0 q -0.85,0 -1.25,0 -0.4,0 -0.9,0 -0.4,0 -0.9,0.2 -0.5,0.2 -1.2,0.6 l 0,-6.9 24.69,0 0,6.9 z M 599.9,111.04 c 3.9,11.69 8.5,24.76 11.6,34.28 l -23.9,0.14 c 3.3,-9.66 8,-22.73 12.3,-34.42 z M 793,98.66 l 13.6,0 c 19,0 23,0.27 25.3,1.23 4.2,2.04 4.7,2.86 5,6.8 0.5,3.95 -0.1,5.44 -4,8.3 -0.1,0.12 -0.2,0.12 -0.2,0.27 -2.5,0.41 -11.9,0.41 -23.8,0.41 l -15.9,0 0,-17.01 z m -10.8,-10.87 0,38.75 26.7,0 c 26.1,0 26.9,0 30.7,-2.85 6.7,-4.89 9.1,-10.06 8.3,-17.96 -0.8,-8.15 -3.9,-12.36 -11.8,-15.76 -4.4,-1.92 -8.6,-2.18 -29.5,-2.18 l -24.4,0 z m -182,-9.4 c -0.3,0 -28.3,77.94 -27.7,77.94 l 53.9,-0.11 c 0.4,0 -26.1,-77.79 -26.2,-77.83 z m 132.6,-22.225 56.8,0 c 35.2,0 59.9,0.505 64.5,1.321 10.9,1.891 20.7,7.699 28.1,16.624 7.7,9.31 9.6,13.8 10.5,26.59 1.4,18.1 -7.2,33.6 -24.2,43.67 -4.8,3 -9.9,5.85 -11.3,6.41 -1.8,0.94 -1.6,1.75 2,5.84 2.1,2.58 6.1,6.41 8.5,8.29 l 4.6,3.6 84.4,1.1 0.9,43.1 -51.9,0 c -39.8,0 -52.9,-0.3 -56.4,-1.5 -5.9,-1.9 -19.2,-13.4 -46.7,-39.6 l -19.6,-18.68 0.1,59.78 -50.3,0 0,-156.545 z m -171.9,0 75.1,0 54.8,158.045 -44.6,-0.2 -7.2,-23.6 -79.5,-0.5 -7.1,22.8 -45.5,0 54,-156.545 z m -51.4,-1.264 0,38.869 -77.9,0 0,118.94 -46.4,0 0,-118.94 -91,0.13 c -11.1,0 -12.3,8.85 -12.3,12.11 0,4.08 2.5,8.29 17.2,26.93 9.6,12.12 18.4,24.09 19.5,26.79 6.4,14.58 -1.8,37.18 -16.6,46.38 -10.7,6.5 -8.9,6.6 -87.52,6.6 l -12.78,0 -84.73,0 0,-43.6 133.23,0 3.9,-2.7 c 2.6,-1.9 4.2,-4.53 4.7,-7.89 0.8,-5.03 0.5,-5.71 -16.04,-24.22 -19.43,-21.89 -21.48,-25.99 -20.52,-39.86 1.23,-16 15.37,-39.171 40.36,-39.171 l 246.9,-0.368 z m 212.3,-9.611 0,10.875 0,156.545 0,11 11,0 50.3,0 11,0 -0.1,-11 0,-34.2 1.1,1 c 34.1,32.3 44,39.7 50.6,42 5,1.6 13.6,2.2 60,2.2 l 51.9,0 11.2,0 -0.2,-11.2 -1,-43 -0.2,-10.59 -10.5,-0.12 -80.8,-1.1 -1.7,-1.37 c -0.5,-0.4 -1.2,-0.94 -1.9,-1.62 0.7,-0.27 1.3,-0.68 1.7,-0.96 20.2,-12.1 31.1,-31.83 29.2,-53.86 -1.1,-14.97 -3.7,-21.7 -12.9,-32.718 -9,-10.842 -21.2,-18.092 -34.6,-20.412 -7.2,-1.3 -44.6,-1.47 -66.3,-1.47 l -56.8,0 -11,0 z m -168.6,0 -2.4,7.33 -54.2,156.69 -4.9,14.4 15.2,0 45.5,0 8.1,0 2.3,-7.7 4.6,-14.9 63.5,0.2 4.8,15.9 2.5,7.6 7.9,0 44.7,0.5 15.3,0 -5,-14.4 -54.8,-158.31 -2.5,-7.31 -7.8,0 -75.1,0 -7.7,0 z M 509.5,44 262.6,44.38 c -14.2,0 -27.61,6.14 -37.23,17.296 -7.89,9.044 -13.19,20.934 -13.87,31.954 -1.36,18.37 2.86,25.03 23.09,47.88 6.06,6.67 11.58,12.93 13.41,15.64 l 0,0.14 c 0,0.14 0,0.14 -0.1,0.14 l -1.23,0.81 -129.7,0 -10.89,0 0,10.87 0,43.6 0,11 10.89,0 84.73,0 6.66,0 6.12,0 c 38.82,0 58.02,0 69.22,-0.8 13,-1 17,-3.3 23.3,-7.1 l 0.8,-0.3 c 19.1,-12.1 29.2,-40.8 20.7,-60.12 -2.5,-5.98 -19,-26.8 -20.7,-29.25 -5.3,-6.52 -13.7,-17.27 -15.1,-20.41 0,-0.26 0,-0.53 0.1,-0.82 0.3,0 0.7,-0.12 1.4,-0.12 l 80.2,-0.13 0,108.05 0,11 10.8,0 46.4,0 10.9,0 0,-11 0,-108.05 67,0 10.9,0 0,-10.89 0,-38.882 0,-10.888 -10.9,0 z"></path> </svg>