<svg 
     xmlns="http://www.w3.org/2000/svg"
   width="519.7"
   height="268.5"
   viewBox="0 0 137.5 71.04"
   >
   
  <path
     id="path3701"
     d="m 74.79,54.97 c 0.72,0 1.31,0.6 1.31,1.32 0,0.71 -0.59,1.3 -1.31,1.3 -0.72,0 -1.31,-0.59 -1.31,-1.3 0,-0.72 0.59,-1.32 1.31,-1.32 z m 43.41,0.36 c 0.8,0 1.5,0.66 1.5,1.48 0,0.83 -0.7,1.5 -1.5,1.49 -0.8,0 -1.5,-0.66 -1.5,-1.49 0,-0.82 0.7,-1.49 1.5,-1.48 z m -3.9,-1.42 c 0.8,0 1.5,0.66 1.5,1.48 0,0.83 -0.7,1.5 -1.5,1.49 -0.8,0 -1.5,-0.66 -1.5,-1.49 0,-0.82 0.7,-1.49 1.5,-1.48 z M 65.56,53.13 c 1.2,0 2.18,0.98 2.18,2.18 0,1.2 -0.98,2.18 -2.18,2.18 -1.2,0 -2.18,-0.98 -2.18,-2.18 0,-1.2 0.98,-2.18 2.18,-2.18 z m 4.25,-0.29 c 0.82,0 1.49,0.67 1.49,1.49 0,0.82 -0.67,1.48 -1.49,1.48 -0.82,0 -1.48,-0.66 -1.48,-1.48 0,-0.82 0.66,-1.49 1.48,-1.49 z m -42.64,0 c 0.82,0 1.48,0.67 1.48,1.49 0,0.82 -0.66,1.48 -1.48,1.48 -0.82,0 -1.49,-0.66 -1.49,-1.48 0,-0.82 0.67,-1.49 1.49,-1.49 z m 90.03,-6.05 c 1.8,0 3.2,1.41 3.2,3.17 0,1.76 -1.4,3.19 -3.2,3.17 -1.7,0 -3.1,-1.45 -3.1,-3.17 0,-1.72 1.4,-3.13 3.1,-3.17 z m 6.3,-1.06 c 0.8,0 1.5,0.66 1.5,1.49 0,0.83 -0.7,1.5 -1.5,1.49 -0.8,0 -1.5,-0.66 -1.5,-1.49 0,-0.83 0.7,-1.5 1.5,-1.49 z M 17.92,44.83 c 2.46,0 4.46,2 4.46,4.46 0,2.46 -2,4.46 -4.46,4.46 -2.46,0 -4.46,-2 -4.46,-4.46 0,-2.46 2,-4.46 4.46,-4.46 z m -3.19,-4.07 c 0.82,0 1.48,0.66 1.48,1.48 0,0.82 -0.66,1.49 -1.48,1.49 -0.82,0 -1.49,-0.67 -1.49,-1.49 0,-0.82 0.67,-1.48 1.49,-1.48 z m 6.21,-4.72 c 1.64,0 2.98,1.33 2.98,2.97 0,1.65 -1.33,2.98 -2.98,2.98 -1.64,0 -2.97,-1.34 -2.97,-2.98 0,-1.64 1.33,-2.97 2.97,-2.97 z m 60.03,-2.13 c -2.01,0 -2.39,3 -1.47,4.36 2.21,3.07 4.64,-3.85 1.47,-4.36 z m 36.83,-9.15 c 0.8,0 1.5,0.66 1.5,1.49 0,0.83 -0.7,1.5 -1.5,1.49 -0.8,0 -1.5,-0.66 -1.5,-1.49 0,-0.83 0.7,-1.5 1.5,-1.49 z m 4.3,-1.42 c 0.8,0 1.5,0.66 1.5,1.49 0,0.83 -0.7,1.5 -1.5,1.49 -0.8,0 -1.5,-0.66 -1.5,-1.49 0,-0.83 0.7,-1.5 1.5,-1.49 z m -103.82,0 c 0.82,0 1.49,0.67 1.49,1.49 0,0.82 -0.67,1.49 -1.49,1.49 -0.82,0 -1.49,-0.67 -1.49,-1.49 0,-0.82 0.67,-1.49 1.49,-1.49 z M 24.8,18 c 1.75,0 3.18,1.42 3.18,3.17 0,1.75 -1.43,3.17 -3.18,3.17 -1.75,0 -3.17,-1.42 -3.17,-3.17 0,-1.75 1.42,-3.17 3.17,-3.17 z m 92.5,-0.4 c 1.7,0 3,1.32 3,2.97 0,1.66 -1.3,3 -3,2.98 -1.7,0 -3,-1.32 -3,-2.98 0,-1.65 1.3,-2.98 3,-2.97 z M 74.08,17.34 c 0.82,0 1.48,0.67 1.48,1.49 0,0.82 -0.66,1.48 -1.48,1.48 -0.82,0 -1.49,-0.66 -1.49,-1.48 0,-0.82 0.67,-1.49 1.49,-1.49 z m 3.91,-1.07 c 0.82,0 1.48,0.67 1.48,1.49 0,0.82 -0.66,1.49 -1.48,1.49 -0.82,0 -1.49,-0.67 -1.49,-1.49 0,-0.82 0.67,-1.49 1.49,-1.49 z M 41.03,15.56 c 0.82,0 1.48,0.67 1.48,1.49 0,0.82 -0.66,1.49 -1.48,1.49 -0.82,0 -1.49,-0.67 -1.49,-1.49 0,-0.82 0.67,-1.49 1.49,-1.49 z m 69.67,-0.1 c 1.2,0 2.2,0.97 2.2,2.18 0,1.21 -1,2.19 -2.2,2.18 -1.2,0 -2.2,-0.97 -2.2,-2.18 0,-1.21 1,-2.19 2.2,-2.18 z M 88.78,14.73 c 2.23,0 4.39,1.47 5.4,3.45 0.29,1.89 0.46,3.79 0.56,5.71 1.63,-1.33 3.62,-2.18 5.86,-2.25 2.8,-0.2 5.7,0.3 8.2,1.66 4.6,1.61 5.8,8.8 1.2,11.07 1.4,1.82 3.8,5.33 3.2,8.55 -0.6,7.71 -10.1,9.93 -16.39,7.88 -1.27,-0.14 -2.47,-0.6 -3.5,-1.3 -1.72,1.82 -4.5,2.68 -7.03,1.66 -1.69,-1.56 -3.24,-0.28 -5.17,0 -4.8,0.83 -8.96,-1.67 -11.57,-5.42 -3.76,5.45 -12.34,7.72 -18.26,4.25 -1.24,-0.59 -2.25,-1.36 -3.06,-2.26 -3.42,4.1 -10.61,4.62 -15.42,2.77 -5.65,-0.57 -7.79,-9.01 -2.63,-11.72 -6.22,-5.96 -0.52,-17.17 7.68,-17.12 2.72,-0.14 5.55,0.32 7.94,1.66 0.5,0.17 0.95,0.41 1.36,0.7 0.81,-0.82 1.88,-1.39 3.23,-1.55 0.48,-0.1 0.97,0 1.46,0 5.25,0.31 6.04,6.39 5.51,10.55 0.67,1.66 -1.6,5.97 1.07,6.19 1.1,-2.5 0,-6.22 0.37,-9.14 -1.12,-5.28 5.13,-9.6 9.6,-6.75 0.98,0.67 1.65,1.48 2.11,2.38 2.92,-3.13 7.2,-4.91 11.66,-3.91 -0.32,-3.47 2.51,-7.15 6.17,-7.02 l 0,0 0.45,0 z M 35.71,14.39 c 1.2,0 2.18,0.98 2.18,2.18 0,1.2 -0.98,2.18 -2.18,2.18 -1.2,0 -2.18,-0.98 -2.18,-2.18 0,-1.2 0.98,-2.18 2.18,-2.18 z m 4.25,-2.77 c 0.82,0 1.49,0.66 1.49,1.48 0,0.82 -0.67,1.49 -1.49,1.49 -0.82,0 -1.49,-0.67 -1.49,-1.49 0,-0.82 0.67,-1.48 1.49,-1.48 z M 40.32,11 c -1.48,0 -2.67,1.19 -2.67,2.67 0,0 0,0.1 0,0.1 -0.46,-0.18 -0.94,-0.27 -1.43,-0.27 -2.16,0 -3.91,1.75 -3.91,3.91 0,0.99 0.38,1.95 1.06,2.67 -0.78,0.34 -1.53,0.73 -2.24,1.17 -0.54,-2.65 -2.87,-4.55 -5.57,-4.55 -3.14,0 -5.69,2.54 -5.69,5.68 0,0.23 0.1,0.46 0.1,0.69 -0.4,-0.22 -0.84,-0.33 -1.29,-0.33 -1.47,0 -2.67,1.19 -2.67,2.66 0,1.48 1.19,2.67 2.67,2.67 1.22,0 2.29,-0.84 2.58,-2.03 0.99,1.18 2.42,1.9 3.95,2.01 -0.49,1.16 -0.83,2.41 -0.97,3.74 -0.34,1.27 -0.16,2.52 0.11,3.74 -0.81,-0.46 -1.72,-0.71 -2.65,-0.71 -2.94,0 -5.33,2.39 -5.33,5.33 0,0.11 0,0.21 0,0.32 -0.38,-0.21 -0.81,-0.32 -1.25,-0.32 -1.48,0 -2.67,1.19 -2.67,2.67 0,0.91 0.47,1.75 1.23,2.24 -1.68,1.51 -2.65,3.67 -2.65,5.93 0,4.42 3.58,8 8,8 2.37,0 4.62,-1.06 6.14,-2.89 0.45,0.9 1.37,1.47 2.38,1.47 1.31,0 2.43,-0.96 2.63,-2.25 1.23,0.63 2.57,1.05 3.97,1.19 5.1,1.34 10.68,0.53 15.31,-1.78 3.82,2.29 8.46,2.99 12.83,2.21 0.38,1.81 1.97,3.11 3.82,3.11 1.63,0 3.08,-1 3.66,-2.52 0.14,0 0.29,0 0.43,0 0.76,0 1.48,-0.33 1.98,-0.89 0.18,1.32 1.31,2.31 2.64,2.31 1.37,0 2.51,-1.03 2.65,-2.39 2.73,0.47 5.58,0.37 8.21,0 3.14,1.32 6.69,0.26 9.67,-0.61 5.35,2.08 12.25,1.55 17.15,-1.62 -0.3,0.46 -0.5,1.02 -0.5,1.59 0,1.44 1.2,2.62 2.6,2.66 0.5,0 1,-0.13 1.4,-0.39 0.4,1.07 1.4,1.8 2.5,1.81 1.5,0 2.7,-1.18 2.7,-2.66 0,-0.46 -0.1,-0.91 -0.3,-1.31 1.7,-1.02 2.8,-2.89 2.8,-4.91 0,-0.24 -0.1,-0.48 -0.1,-0.72 0.1,0 0.2,0 0.3,0 1.4,0 2.6,-1.22 2.6,-2.67 0,-1.44 -1.2,-2.62 -2.6,-2.66 -1,0 -2,0.6 -2.4,1.53 -0.9,-0.7 -2,-1.11 -3.2,-1.16 0.6,-3.27 -0.7,-6.67 -1.5,-9.54 1.3,-2.05 1.6,-4.31 1.3,-6.47 0,0 0.1,0 0.1,0 1.2,0 2.3,-0.83 2.6,-2.02 0.5,0.37 1,0.58 1.6,0.6 1.5,0 2.7,-1.18 2.7,-2.67 0,-1.18 -0.8,-2.21 -1.9,-2.55 0.1,-0.39 0.1,-0.78 0.1,-1.18 0,-2.93 -2.4,-5.31 -5.3,-5.33 -1.1,0 -2.1,0.34 -3,0.95 -0.5,-1.65 -2.1,-2.76 -3.8,-2.73 -2.2,0 -3.9,1.75 -3.9,3.91 0,0.24 0,0.48 0.1,0.71 -2.6,-0.61 -5.4,-0.57 -7.98,-0.26 -1.31,-4.49 -6.03,-7.46 -10.65,-7.11 -3.55,-0.15 -6.19,2.39 -8.24,4.92 -0.5,-0.69 -1.3,-1.1 -2.15,-1.1 -1.03,0 -1.97,0.6 -2.41,1.53 -0.44,-0.3 -0.97,-0.46 -1.5,-0.46 -1.47,0 -2.67,1.19 -2.67,2.66 0,0.51 0.15,1.01 0.42,1.44 -0.82,0.1 -1.64,0 -2.46,-0.63 -3.62,-1.49 -7.93,-0.22 -10.85,1.7 -3.12,-2.77 -7.8,-2.6 -11.48,-1.7 -1.18,-0.6 -2.42,-1.01 -3.7,-1.27 0.23,-0.4 0.35,-0.86 0.35,-1.32 0,-1.03 -0.6,-1.96 -1.53,-2.4 0.3,-0.44 0.46,-0.97 0.46,-1.5 0,-1.46 -1.23,-2.63 -2.69,-2.62 z m -9.81,21.68 c 0,-2.56 0.86,-4.59 2.58,-6.09 1.58,-1.37 3.56,-2.05 5.93,-2.05 2.24,0 4.29,0.62 6.18,1.84 1.22,0.79 1.84,1.8 1.84,3.03 0,0.68 -0.21,1.27 -0.62,1.76 -0.41,0.49 -0.91,0.73 -1.51,0.73 -0.36,0 -0.72,-0.1 -1.11,-0.28 -1.93,-0.98 -3.62,-1.47 -5.07,-1.47 -1.11,0 -1.67,0.45 -1.67,1.34 0,0.52 0.87,1.22 2.61,2.09 2.35,1.15 4,2.13 4.95,2.94 1.75,1.56 2.62,3.41 2.62,5.57 0,2.18 -0.86,3.83 -2.58,4.94 -1.5,0.99 -3.45,1.48 -5.84,1.48 -2.87,0 -5.31,-0.6 -7.32,-1.8 -0.9,-0.55 -1.35,-1.46 -1.35,-2.74 0,-0.77 0.2,-1.42 0.61,-1.97 0.41,-0.57 0.97,-0.85 1.68,-0.85 0.43,0 0.9,0.12 1.39,0.36 2.29,1.07 4.02,1.6 5.19,1.6 1.09,0 1.64,-0.46 1.64,-1.39 0,-0.57 -0.88,-1.21 -2.62,-1.92 -2.43,-0.99 -4.06,-1.78 -4.91,-2.38 -1.74,-1.25 -2.62,-2.83 -2.62,-4.74 m 17.62,6.46 0,-10.55 c 0,-1.03 0.33,-1.85 0.98,-2.45 0.58,-0.52 1.29,-0.78 2.13,-0.78 0.85,0 1.58,0.29 2.21,0.86 0.63,0.57 0.94,1.36 0.94,2.37 l 0,9.86 c 0,1.14 0.39,2.06 1.19,2.74 0.7,0.62 1.56,0.94 2.57,0.94 0.98,0 1.83,-0.32 2.54,-0.94 0.71,-0.66 1.06,-1.57 1.06,-2.74 l 0,-9.53 c 0,-1.12 0.33,-1.99 0.98,-2.62 0.66,-0.63 1.45,-0.94 2.37,-0.94 0.9,0 1.68,0.31 2.33,0.94 0.66,0.63 0.99,1.5 0.99,2.62 l 0,10.88 c 0,3.4 -1.75,5.93 -5.24,7.56 -3.35,1.58 -6.61,1.71 -9.77,0.37 -3.52,-1.5 -5.28,-4.36 -5.28,-8.59 M 80.88,31 c 1.45,0 2.58,0.55 3.4,1.64 0.7,0.95 1.05,2.15 1.05,3.6 0,1.53 -0.38,2.85 -1.14,3.96 -0.85,1.2 -1.95,1.8 -3.31,1.8 -1.5,0 -2.68,-0.56 -3.56,-1.71 -0.79,-1.04 -1.18,-2.31 -1.18,-3.81 0,-1.47 0.39,-2.72 1.18,-3.76 C 78.2,31.58 79.38,31 80.88,31 Z m 7.65,-13.33 c -0.93,0 -1.72,0.3 -2.38,0.9 -0.65,0.6 -0.97,1.45 -0.97,2.54 l 0,5.28 c -1.34,-1.26 -3.07,-1.89 -5.2,-1.89 -3.32,0 -5.93,1.22 -7.82,3.64 -1.66,2.16 -2.49,4.82 -2.49,8.01 0,3.25 0.85,6.03 2.54,8.35 1.88,2.56 4.35,3.84 7.4,3.84 1.94,0 3.8,-0.79 5.6,-2.37 0,0.79 0.37,1.43 1.11,1.92 0.65,0.47 1.43,0.7 2.33,0.7 0.9,0 1.65,-0.23 2.25,-0.7 0.63,-0.46 0.93,-1.12 0.93,-1.96 l 0,-24.82 c 0,-1.09 -0.32,-1.94 -0.97,-2.54 -0.66,-0.6 -1.43,-0.9 -2.33,-0.9 z m 4.97,15.01 c 0,-2.56 0.86,-4.59 2.57,-6.09 1.59,-1.37 3.6,-2.05 5.93,-2.05 2.3,0 4.3,0.62 6.2,1.84 1.2,0.79 1.8,1.8 1.8,3.03 0,0.68 -0.2,1.27 -0.6,1.76 -0.4,0.49 -0.9,0.73 -1.5,0.73 -0.3,0 -0.7,-0.1 -1.1,-0.28 -1.9,-0.98 -3.6,-1.47 -5.1,-1.47 -1.1,0 -1.6,0.45 -1.6,1.34 0,0.52 0.8,1.22 2.6,2.09 2.3,1.15 4,2.13 4.9,2.94 1.8,1.56 2.7,3.41 2.7,5.57 0,2.18 -0.9,3.83 -2.6,4.94 -1.5,0.99 -3.5,1.48 -5.9,1.48 -2.86,0 -5.3,-0.6 -7.32,-1.8 -0.9,-0.55 -1.35,-1.46 -1.35,-2.74 0,-0.77 0.2,-1.42 0.61,-1.97 0.41,-0.57 0.97,-0.85 1.68,-0.85 0.44,0 0.9,0.12 1.39,0.36 2.29,1.07 4.09,1.6 5.19,1.6 1.1,0 1.7,-0.46 1.7,-1.39 0,-0.57 -0.9,-1.21 -2.6,-1.92 -2.5,-0.99 -4.14,-1.78 -4.98,-2.38 -1.75,-1.25 -2.62,-2.83 -2.62,-4.74" />
</svg>
