<?xml version="1.0"?>

<!-- Generator: Adobe Illustrator 19.1.0, SVG Export Plug-In . SVG Version: 6.00 Build 0)  -->
<svg version="1.1" id="Layer_1" xmlns="http://www.w3.org/2000/svg" xmlns:xlink="http://www.w3.org/1999/xlink" x="0px" y="0px" width="231.582px" height="56.69px" viewBox="0 0 231.582 56.69" enable-background="new 0 0 231.582 56.69" xml:space="preserve">
<path d="M13.345,46.424c-0.243-0.148-0.496-0.282-0.729-0.445c-0.698-0.49-0.87-1.122-0.487-1.738
	c0.355-0.571,1.1-0.734,1.801-0.339c1.534,0.863,3.053,1.751,4.577,2.632c0.808,0.467,1.612,0.94,2.417,1.41
	c0.158,0.192,0.445,0.164,0.603,0.356c0.57,0.314,1.157,0.601,1.705,0.949c0.484,0.307,0.621,0.198,0.616-0.348
	c-0.016-1.677-0.006-3.355-0.006-5.032c0-1.887-0.01-3.774,0.005-5.661c0.007-0.95,0.67-1.57,1.464-1.382
	c0.771,0.182,0.988,0.755,0.987,1.481c-0.006,3.433-0.005,6.867,0.003,10.3c0.001,0.276-0.146,0.659,0.134,0.803
	c0.263,0.135,0.501-0.188,0.743-0.327c3.11-1.784,6.223-3.563,9.334-5.347c1.757-1.007,3.505-2.028,5.268-3.024
	c0.51-0.288,0.351-0.441-0.042-0.666c-1.663-0.956-3.314-1.932-4.974-2.895c-1.214-0.704-2.44-1.388-3.648-2.103
	c-0.588-0.348-0.749-1.045-0.43-1.643c0.339-0.634,0.979-0.852,1.67-0.464c2.015,1.131,4.007,2.302,6.011,3.453
	c1.029,0.591,2.064,1.173,3.159,1.795c0.016-0.311,0.035-0.517,0.035-0.722c0.002-5.845,0.003-11.689-0.006-17.534
	c0-0.237,0.157-0.564-0.148-0.701c-0.229-0.103-0.444,0.114-0.64,0.228c-3.761,2.17-7.52,4.343-11.275,6.524
	c-3.058,1.776-6.103,3.574-9.165,5.345c-3.914,2.264-7.836,4.513-11.759,6.761c-1.44,0.826-2.892,1.632-4.337,2.448
	c-1.026,0.579-2.48-0.03-2.776-1.187c-0.123-0.479-0.195-0.968-0.194-1.473c0.01-6.185,0.007-12.371,0.007-18.556
	c0-1.926,0.758-3.41,2.47-4.388c4.086-2.335,8.161-4.688,12.235-7.043c1.575-0.911,3.132-1.853,4.706-2.768
	c1.999-1.162,3.818-0.632,5.662,0.492c2.745,1.674,5.559,3.235,8.342,4.847c0.271,0.157,0.536,0.326,0.799,0.497
	c0.677,0.44,0.895,1.054,0.592,1.652c-0.314,0.618-1.014,0.848-1.759,0.47c-1.019-0.517-2.005-1.1-2.993-1.676
	c-2.147-1.252-4.285-2.517-6.427-3.776c-0.483-0.284-0.614-0.098-0.61,0.408c0.016,2.044,0.007,4.089,0.007,6.133
	c0,1.494,0.006,2.988-0.002,4.482c-0.005,0.957-0.456,1.501-1.218,1.503c-0.789,0.003-1.228-0.508-1.23-1.482
	c-0.007-3.486,0.003-6.972-0.016-10.457c-0.001-0.226,0.223-0.623-0.275-0.679c-0.122,0.169-0.329,0.205-0.491,0.312
	c-1.707,0.969-3.415,1.936-5.12,2.907c-0.493,0.281-0.979,0.575-1.468,0.863c-0.16,0.187-0.447,0.161-0.603,0.356
	c-2.902,1.658-5.804,3.316-8.841,5.051c1.665,0.978,3.212,1.886,4.76,2.795c0.133,0.15,0.336,0.185,0.49,0.302
	c1.262,0.72,2.538,1.414,3.777,2.171c0.523,0.319,0.927,0.789,0.565,1.488c-0.392,0.756-0.935,1.023-1.658,0.637
	c-1.714-0.914-3.391-1.901-5.077-2.868c-1.216-0.698-2.42-1.417-3.637-2.113C5.931,19.248,5.695,19.31,5.7,19.749
	c0.002,0.131-0.001,0.262-0.001,0.392c0,5.625-0.002,11.251,0.007,16.876c0,0.267-0.162,0.646,0.166,0.778
	c0.265,0.106,0.539-0.143,0.785-0.283c2.068-1.182,4.131-2.372,6.195-3.559c0.157-0.112,0.364-0.143,0.49-0.305
	c2.03-1.186,4.06-2.372,6.092-3.555c0.156-0.091,0.33-0.152,0.496-0.226c0.156-0.114,0.36-0.151,0.494-0.301
	c3.168-1.847,6.331-3.702,9.504-5.54c2.741-1.588,5.492-3.16,8.24-4.737c1.576-0.904,3.18-1.762,4.726-2.714
	c1.572-0.969,3.192,0.462,3.185,1.9c-0.032,6.755-0.009,13.511-0.02,20.266c-0.002,1.281-0.642,2.273-1.557,3.114
	c-0.122,0.153-0.359,0.154-0.455,0.342c-2.964,1.719-5.928,3.439-8.892,5.158c-2.558,1.483-5.109,2.979-7.679,4.441
	c-1.624,0.924-3.24,0.886-4.876-0.067c-2.91-1.695-5.849-3.337-8.777-5.001C13.687,46.59,13.482,46.56,13.345,46.424z"></path>
<path d="M155.039,13.708c-3.305-0.862-6.744,0.722-8.296,3.751c-0.76,1.483-1.052,3.029-1.042,4.677
	c0.024,3.956,0.01,7.912,0.006,11.868c-0.001,1.003-0.474,1.594-1.234,1.55c-0.616-0.036-1-0.349-1.069-0.984
	c-0.023-0.208-0.02-0.418-0.02-0.628c-0.001-6.864-0.002-13.728,0.003-20.591c0-0.384-0.085-0.801,0.214-1.126
	c0.31-0.335,0.666-0.63,1.16-0.465c0.608,0.202,0.92,0.674,0.94,1.297c0.028,0.875,0.007,1.751,0.098,2.7
	c2.252-3.621,5.537-4.874,9.543-4.182c2.708,0.468,4.679,2.086,5.851,4.611c0.158,0.218,0.299,0.189,0.427-0.03
	c0.724-1.496,1.886-2.616,3.256-3.475c2.14-1.343,4.551-1.511,6.958-1.103c2.626,0.445,4.581,1.929,5.84,4.321
	c0.785,1.49,1.158,3.1,1.189,4.731c0.086,4.532,0.04,9.066,0.036,13.599c-0.001,0.822-0.503,1.347-1.206,1.327
	c-0.691-0.02-1.102-0.494-1.103-1.32c-0.008-4.402,0.013-8.804-0.021-13.206c-0.014-1.797-0.422-3.502-1.493-5.009
	c-0.995-1.4-2.361-2.196-4.018-2.44c-4.36-0.64-7.701,1.834-8.539,5.896c-0.183,0.886-0.244,1.758-0.246,2.645
	c-0.008,3.957-0.005,7.913-0.002,11.87c0,0.396,0.022,0.81-0.231,1.131c-0.313,0.397-0.771,0.57-1.252,0.395
	c-0.46-0.168-0.752-0.507-0.749-1.063c0.012-2.122,0.002-4.245,0-6.367c-0.002-2.358,0.074-4.72-0.032-7.074
	c-0.088-1.969-0.481-3.893-1.881-5.442c-0.638-0.705-1.352-1.289-2.272-1.584C155.607,13.818,155.315,13.786,155.039,13.708z"></path>
<path d="M121.222,14.969c0.238,0.4,0.397,1.033,0.732,1.146c0.543,0.184,0.552-0.568,0.814-0.889
	c1.489-1.826,3.261-3.247,5.633-3.627c3.302-0.529,6.382-0.08,8.773,2.566c1.05,1.161,1.702,2.538,2.006,4.076
	c0.297,1.169,0.359,2.366,0.364,3.561c0.017,4,0.003,7.999,0.012,11.999c0.001,0.451-0.04,0.882-0.229,1.294
	c-0.369,0.476-0.857,0.592-1.394,0.381c-0.612-0.241-0.655-0.807-0.655-1.358c-0.005-4.081,0.01-8.163-0.01-12.244
	c-0.007-1.357-0.103-2.702-0.572-4.011c-0.852-2.383-2.481-3.873-4.963-4.276c-2.281-0.37-4.41,0.101-6.213,1.653
	c-0.094,0.081-0.148,0.208-0.221,0.314c-0.157,0.162-0.334,0.306-0.466,0.492c-1.194,1.34-1.738,2.957-1.826,4.702
	c-0.096,1.906-0.064,3.819-0.071,5.73c-0.009,2.539,0.006,5.078-0.007,7.617c-0.005,0.975-0.351,1.431-1.041,1.459
	c-0.682,0.028-1.091-0.29-1.168-0.977c-0.035-0.311-0.025-0.627-0.028-0.941c-0.042-4.475,0.103-8.952-0.081-13.425
	c-0.062-1.508-0.539-2.909-1.429-4.149c-0.09-0.216-0.29-0.338-0.435-0.507c-0.079-0.233-0.229-0.396-0.466-0.473
	c-0.175-0.139-0.296-0.341-0.509-0.436c-2.458-1.806-6.842-1.612-9.278,1.263c-1.565,1.847-2.166,3.991-2.156,6.368
	c0.017,3.93-0.001,7.861,0.009,11.792c0.001,0.582-0.08,1.078-0.661,1.378c-0.521,0.269-1.206,0.077-1.437-0.456
	c-0.146-0.337-0.206-0.693-0.206-1.069c0.007-6.839,0.004-13.678,0.009-20.517c0-0.258,0.035-0.521,0.091-0.773
	c0.13-0.584,0.53-0.959,1.105-0.894c0.598,0.068,1.077,0.418,1.082,1.128c0.006,0.934,0.001,1.868,0.101,2.879
	c1.591-2.234,3.507-3.92,6.307-4.273c0.946-0.221,1.892-0.177,2.838,0.003c2.08,0.311,3.785,1.3,5.176,2.858
	C120.906,14.547,121.095,14.735,121.222,14.969z"></path>
<path d="M217.306,13.717c-2.504-0.465-4.898-0.302-7.023,1.283c-2.01,1.5-3.167,3.511-3.211,6.018
	c-0.075,4.269-0.038,8.54-0.039,12.81c0,0.398-0.027,0.774-0.218,1.135c-0.273,0.516-0.709,0.688-1.243,0.571
	c-0.488-0.107-0.811-0.417-0.843-0.954c-0.011-0.183-0.016-0.366-0.016-0.55c-0.001-6.916-0.002-13.832,0.002-20.748
	c0-0.409-0.08-0.85,0.303-1.168c0.33-0.273,0.663-0.528,1.128-0.332c0.595,0.25,0.865,0.729,0.877,1.347
	c0.018,0.914,0.005,1.828,0.005,2.946c0.892-1.254,1.695-2.333,2.847-3.059c3.121-1.968,6.391-2.145,9.76-0.725
	c3.446,1.452,4.95,4.291,5.07,7.81c0.161,4.71,0.06,9.429,0.061,14.145c0,0.911-0.351,1.31-1.077,1.311
	c-0.74,0.001-1.154-0.458-1.156-1.364c-0.009-4.061-0.004-8.121-0.005-12.182c0-1.097-0.016-2.184-0.322-3.26
	c-0.634-2.228-1.844-3.93-4.096-4.749C217.848,13.891,217.576,13.806,217.306,13.717z"></path>
<path d="M83.79,31.332c2.059,2.502,4.79,2.853,7.717,2.265c2.397-0.482,4.141-1.928,5.219-4.143c0.157-0.32,0.34-0.628,0.434-0.977
	c0.376-1.07,0.518-2.167,0.511-3.305c-0.024-3.983-0.009-7.965-0.009-11.948c0-0.502,0.01-0.981,0.529-1.292
	c0.755-0.452,1.576-0.076,1.676,0.804c0.024,0.207,0.015,0.419,0.015,0.628c0.001,6.865,0.002,13.73-0.003,20.595
	c0,0.385,0.088,0.797-0.171,1.14c-0.314,0.417-0.759,0.585-1.242,0.42c-0.464-0.159-0.783-0.513-0.793-1.045
	c-0.014-0.76-0.001-1.52-0.016-2.279c-0.005-0.25,0.08-0.517-0.121-0.83c-0.681,0.872-1.301,1.748-2.141,2.439
	c-2.237,1.84-4.802,2.391-7.615,2.034c-2.477-0.314-4.562-1.324-6.093-3.369c-1.065-1.422-1.714-3.051-1.756-4.765
	c-0.122-4.923-0.065-9.85-0.089-14.776c-0.003-0.709,0.393-1.101,1.008-1.184c0.557-0.076,0.96,0.249,1.172,0.818
	c0.125,0.336,0.137,0.661,0.138,0.999c0.002,4.009,0.006,8.018-0.001,12.027c-0.003,1.475,0.09,2.93,0.723,4.294
	c0.129,0.278,0.309,0.533,0.465,0.799C83.459,30.92,83.689,31.082,83.79,31.332z"></path>
<path d="M73.423,14.667c-0.151-0.064-0.302-0.128-0.453-0.193c-0.259-0.122-0.555-0.136-0.806-0.281
	c-1.61-0.511-3.252-0.79-4.93-0.473c-1.466,0.277-2.762,0.852-3.521,2.278c-0.608,1.143-0.667,3.205,0.901,4.227
	c0.743,0.485,1.5,0.941,2.364,1.184c0.212,0.103,0.443,0.164,0.648,0.285c0.779,0.222,1.559,0.443,2.338,0.665
	c0.402,0.225,0.89,0.194,1.287,0.433c1.384,0.325,2.641,0.949,3.868,1.643c0.184,0.126,0.301,0.333,0.513,0.426
	c3.068,2.511,2.234,7.683-1.271,9.697c-0.493,0.283-0.986,0.575-1.553,0.699c-0.199,0.142-0.466,0.118-0.662,0.267
	c-1.868,0.387-3.749,0.409-5.604,0.007c-2.099-0.455-4.101-1.19-5.852-2.487c-0.339-0.25-0.679-0.498-0.761-0.953
	c-0.1-0.515,0.163-0.856,0.567-1.099c0.49-0.295,0.957-0.143,1.386,0.152c1.295,0.891,2.662,1.652,4.181,2.063
	c2.203,0.597,4.429,0.858,6.594-0.155c1.837-0.86,2.852-2.534,2.472-4.612c-0.215-1.177-1.079-1.924-2.084-2.476
	c-0.916-0.503-1.902-0.846-2.909-1.128c-0.412-0.187-0.865-0.254-1.281-0.432c-0.821-0.076-1.545-0.495-2.34-0.664
	c-0.204-0.122-0.448-0.151-0.648-0.281c-1.605-0.513-3.094-1.222-4.068-2.675c-1.208-1.801-1.097-3.707-0.174-5.549
	c1.272-2.541,3.584-3.493,6.252-3.721c2.196-0.188,4.3,0.279,6.333,1.098c0.193,0.144,0.447,0.156,0.643,0.294
	c0.445,0.15,0.864,0.348,1.262,0.603c0.681,0.437,0.929,0.967,0.641,1.549c-0.344,0.694-0.916,0.772-1.583,0.509
	c-0.14-0.133-0.339-0.17-0.48-0.301c-0.151-0.056-0.302-0.112-0.453-0.168C73.966,14.955,73.698,14.804,73.423,14.667z"></path>
<path d="M161.618,16.156c-0.011,0.169-0.084,0.306-0.263,0.308c-0.178,0.002-0.164-0.152-0.163-0.278
	C161.334,16.176,161.476,16.166,161.618,16.156z"></path>
<path d="M200.908,19.088c-0.123-1.93-0.921-3.676-2.38-5.035c-1.624-1.513-3.601-2.181-5.773-2.412
	c-3.181-0.337-6.174,0.352-9.076,1.579c-0.654,0.277-0.907,0.86-0.7,1.447c0.258,0.731,0.81,0.717,1.414,0.579
	c0.126-0.029,0.245-0.089,0.368-0.135c0.33-0.126,0.644-0.285,0.962-0.436c2.031-0.734,4.121-1.116,6.283-0.952
	c1.879,0.142,3.632,0.639,5.013,2.03c0.126,0.188,0.311,0.321,0.454,0.494c1.037,1.398,1.224,3.043,1.392,4.703
	c0.074,0.735-0.19,0.954-0.872,0.736c-0.25-0.166-0.559-0.142-0.825-0.256c-1.469-0.248-2.945-0.454-4.432-0.557
	c-2.794-0.194-5.503,0.107-8.067,1.345c-4.709,2.273-5.304,8.907-0.996,11.848c2.832,1.933,5.962,2.317,9.262,1.472
	c0.246-0.156,0.542-0.171,0.804-0.285c2.079-0.584,3.596-1.974,5.119-3.719c0,1.046-0.009,1.875,0.002,2.703
	c0.013,0.935,0.333,1.321,1.064,1.32c0.721-0.001,1.113-0.397,1.108-1.304C201.004,29.197,201.228,24.136,200.908,19.088z
	 M198.891,26.732c-0.103,0.479-0.037,0.99-0.265,1.446c-0.847,3.017-3.074,4.572-5.913,5.283c-2.125,0.532-4.299,0.517-6.381-0.413
	c-2.798-1.25-3.973-4.345-2.572-7.053c0.687-1.328,1.919-2.07,3.309-2.548c0.173-0.059,0.348-0.113,0.522-0.17
	c1.032-0.338,2.108-0.347,3.174-0.436c2.09,0.028,4.155,0.306,6.213,0.642c0.483,0.079,0.951,0.241,1.431,0.337
	c0.371,0.074,0.501,0.26,0.487,0.642C198.868,25.218,198.89,25.975,198.891,26.732z"></path>
<g>
	<path d="M144.681,45.073c0.102,0.21,0.243,0.378,0.421,0.502c0.179,0.125,0.391,0.215,0.635,0.268
		c0.244,0.054,0.505,0.081,0.784,0.081c0.159,0,0.332-0.023,0.52-0.068c0.187-0.045,0.362-0.118,0.524-0.217
		c0.162-0.099,0.297-0.227,0.404-0.383c0.108-0.156,0.162-0.345,0.162-0.566c0-0.17-0.038-0.318-0.115-0.443
		c-0.077-0.125-0.176-0.23-0.298-0.315c-0.122-0.085-0.257-0.155-0.405-0.209c-0.147-0.054-0.292-0.098-0.434-0.132l-1.354-0.332
		c-0.176-0.045-0.348-0.102-0.515-0.17c-0.168-0.068-0.314-0.159-0.439-0.273c-0.125-0.114-0.226-0.253-0.302-0.417
		c-0.076-0.165-0.115-0.366-0.115-0.605c0-0.148,0.028-0.321,0.085-0.52c0.057-0.199,0.163-0.386,0.319-0.562
		s0.371-0.325,0.643-0.447c0.273-0.122,0.622-0.183,1.047-0.183c0.301,0,0.588,0.04,0.86,0.119c0.273,0.08,0.511,0.199,0.716,0.358
		c0.204,0.159,0.368,0.356,0.49,0.592c0.122,0.236,0.183,0.51,0.183,0.822h-0.579c-0.012-0.233-0.064-0.436-0.158-0.609
		c-0.094-0.173-0.216-0.318-0.366-0.434c-0.15-0.116-0.323-0.204-0.52-0.264c-0.196-0.06-0.402-0.089-0.617-0.089
		c-0.199,0-0.391,0.021-0.575,0.064c-0.185,0.043-0.346,0.111-0.486,0.204s-0.251,0.217-0.336,0.37
		c-0.085,0.153-0.128,0.344-0.128,0.571c0,0.142,0.024,0.266,0.073,0.37c0.048,0.105,0.115,0.195,0.2,0.268
		c0.085,0.074,0.183,0.134,0.294,0.179c0.111,0.045,0.228,0.082,0.354,0.111l1.482,0.366c0.216,0.057,0.419,0.126,0.609,0.209
		c0.19,0.082,0.358,0.185,0.503,0.307c0.145,0.122,0.258,0.271,0.341,0.447c0.082,0.176,0.123,0.389,0.123,0.639
		c0,0.068-0.007,0.159-0.021,0.273c-0.014,0.114-0.048,0.234-0.102,0.362c-0.054,0.128-0.131,0.257-0.23,0.388
		c-0.1,0.131-0.236,0.248-0.409,0.354c-0.173,0.105-0.388,0.19-0.643,0.255c-0.256,0.065-0.562,0.098-0.92,0.098
		c-0.358,0-0.69-0.041-0.997-0.123c-0.306-0.082-0.568-0.209-0.784-0.379c-0.216-0.17-0.382-0.389-0.498-0.656
		c-0.116-0.267-0.166-0.588-0.149-0.963h0.579C144.53,44.602,144.579,44.863,144.681,45.073z"></path>
	<path d="M150.865,42.049c0.119-0.38,0.298-0.717,0.537-1.009c0.238-0.292,0.538-0.525,0.898-0.699
		c0.361-0.173,0.78-0.26,1.257-0.26c0.477,0,0.894,0.087,1.252,0.26c0.358,0.173,0.656,0.406,0.895,0.699
		c0.238,0.292,0.417,0.629,0.537,1.009c0.119,0.381,0.179,0.781,0.179,1.201c0,0.42-0.06,0.821-0.179,1.201
		c-0.119,0.381-0.298,0.716-0.537,1.005c-0.239,0.29-0.537,0.521-0.895,0.694c-0.358,0.173-0.775,0.26-1.252,0.26
		c-0.477,0-0.896-0.087-1.257-0.26c-0.361-0.173-0.66-0.405-0.898-0.694c-0.239-0.29-0.418-0.625-0.537-1.005
		c-0.119-0.38-0.179-0.781-0.179-1.201C150.686,42.83,150.746,42.43,150.865,42.049z M151.397,44.225
		c0.088,0.321,0.224,0.608,0.409,0.86c0.185,0.253,0.422,0.456,0.711,0.609c0.29,0.153,0.636,0.23,1.039,0.23
		c0.403,0,0.748-0.077,1.035-0.23c0.287-0.153,0.522-0.356,0.707-0.609c0.185-0.253,0.321-0.539,0.409-0.86
		c0.088-0.321,0.132-0.646,0.132-0.975c0-0.335-0.044-0.661-0.132-0.979c-0.088-0.318-0.224-0.603-0.409-0.856
		c-0.185-0.253-0.42-0.456-0.707-0.609c-0.287-0.153-0.632-0.23-1.035-0.23c-0.403,0-0.75,0.077-1.039,0.23
		c-0.29,0.153-0.527,0.356-0.711,0.609c-0.185,0.253-0.321,0.538-0.409,0.856c-0.088,0.318-0.132,0.645-0.132,0.979
		C151.265,43.58,151.309,43.905,151.397,44.225z"></path>
	<path d="M159.28,40.209v5.588h3.407v0.494h-3.986v-6.082H159.28z"></path>
	<path d="M165.175,40.209v3.765c0,0.352,0.04,0.652,0.119,0.899c0.079,0.247,0.196,0.449,0.349,0.605
		c0.154,0.156,0.341,0.27,0.562,0.341c0.222,0.071,0.472,0.106,0.75,0.106c0.284,0,0.537-0.035,0.758-0.106s0.409-0.184,0.562-0.341
		c0.153-0.156,0.27-0.358,0.349-0.605c0.079-0.247,0.119-0.546,0.119-0.899v-3.765h0.579v3.893c0,0.312-0.044,0.609-0.132,0.89
		c-0.088,0.281-0.227,0.527-0.417,0.737c-0.19,0.21-0.434,0.376-0.733,0.498c-0.298,0.122-0.66,0.183-1.086,0.183
		c-0.42,0-0.779-0.061-1.078-0.183c-0.298-0.122-0.542-0.288-0.732-0.498c-0.19-0.21-0.33-0.456-0.418-0.737
		c-0.088-0.281-0.132-0.578-0.132-0.89v-3.893H165.175z"></path>
	<path d="M176.065,41.423c-0.116-0.184-0.258-0.339-0.426-0.464c-0.168-0.125-0.352-0.22-0.554-0.285
		c-0.202-0.065-0.413-0.098-0.634-0.098c-0.403,0-0.75,0.077-1.039,0.23c-0.29,0.153-0.527,0.356-0.711,0.609
		c-0.185,0.253-0.321,0.538-0.409,0.856c-0.088,0.318-0.132,0.645-0.132,0.979c0,0.33,0.044,0.655,0.132,0.975
		c0.088,0.321,0.224,0.608,0.409,0.86c0.184,0.253,0.422,0.456,0.711,0.609c0.29,0.153,0.636,0.23,1.039,0.23
		c0.284,0,0.539-0.051,0.767-0.153c0.227-0.102,0.423-0.241,0.588-0.417s0.298-0.382,0.401-0.618
		c0.102-0.235,0.167-0.49,0.196-0.762h0.579c-0.04,0.375-0.128,0.713-0.264,1.014c-0.136,0.301-0.312,0.557-0.528,0.767
		c-0.216,0.21-0.47,0.372-0.762,0.486c-0.292,0.113-0.617,0.17-0.975,0.17c-0.477,0-0.896-0.087-1.256-0.26
		c-0.361-0.173-0.66-0.405-0.899-0.694c-0.238-0.29-0.417-0.625-0.537-1.005c-0.119-0.38-0.179-0.781-0.179-1.201
		c0-0.42,0.06-0.82,0.179-1.201c0.119-0.38,0.298-0.717,0.537-1.009c0.239-0.292,0.538-0.525,0.899-0.699
		c0.361-0.173,0.779-0.26,1.256-0.26c0.29,0,0.572,0.043,0.848,0.128c0.275,0.085,0.525,0.212,0.75,0.379
		c0.224,0.168,0.412,0.374,0.562,0.618c0.15,0.244,0.246,0.525,0.285,0.843h-0.579C176.265,41.816,176.182,41.608,176.065,41.423z"></path>
	<path d="M179.868,40.209v6.082h-0.579v-6.082H179.868z"></path>
	<path d="M182.372,42.049c0.119-0.38,0.298-0.717,0.537-1.009c0.238-0.292,0.538-0.525,0.898-0.699
		c0.361-0.173,0.78-0.26,1.257-0.26c0.477,0,0.894,0.087,1.252,0.26c0.358,0.173,0.656,0.406,0.895,0.699
		c0.238,0.292,0.417,0.629,0.537,1.009c0.119,0.381,0.179,0.781,0.179,1.201c0,0.42-0.06,0.821-0.179,1.201
		c-0.119,0.381-0.298,0.716-0.537,1.005c-0.239,0.29-0.537,0.521-0.895,0.694c-0.358,0.173-0.775,0.26-1.252,0.26
		c-0.477,0-0.896-0.087-1.257-0.26c-0.361-0.173-0.66-0.405-0.898-0.694c-0.239-0.29-0.418-0.625-0.537-1.005
		c-0.119-0.38-0.179-0.781-0.179-1.201C182.194,42.83,182.253,42.43,182.372,42.049z M182.905,44.225
		c0.088,0.321,0.224,0.608,0.409,0.86c0.185,0.253,0.422,0.456,0.711,0.609c0.29,0.153,0.636,0.23,1.039,0.23
		c0.403,0,0.748-0.077,1.035-0.23c0.287-0.153,0.522-0.356,0.707-0.609c0.185-0.253,0.321-0.539,0.409-0.86
		c0.088-0.321,0.132-0.646,0.132-0.975c0-0.335-0.044-0.661-0.132-0.979c-0.088-0.318-0.224-0.603-0.409-0.856
		c-0.185-0.253-0.42-0.456-0.707-0.609c-0.287-0.153-0.632-0.23-1.035-0.23c-0.403,0-0.75,0.077-1.039,0.23
		c-0.29,0.153-0.527,0.356-0.711,0.609c-0.185,0.253-0.321,0.538-0.409,0.856c-0.088,0.318-0.132,0.645-0.132,0.979
		C182.773,43.58,182.817,43.905,182.905,44.225z"></path>
	<path d="M190.848,40.209l3.543,5.145h0.017v-5.145h0.579v6.082h-0.647l-3.544-5.145h-0.017v5.145H190.2v-6.082H190.848z"></path>
	<path d="M201.785,40.209v0.494h-3.62v2.198h3.39v0.494h-3.39v2.402h3.663v0.494h-4.242v-6.082H201.785z"></path>
	<path d="M204.434,45.073c0.102,0.21,0.243,0.378,0.421,0.502c0.179,0.125,0.391,0.215,0.635,0.268
		c0.244,0.054,0.505,0.081,0.784,0.081c0.159,0,0.332-0.023,0.52-0.068c0.187-0.045,0.362-0.118,0.524-0.217
		c0.162-0.099,0.297-0.227,0.404-0.383c0.108-0.156,0.162-0.345,0.162-0.566c0-0.17-0.038-0.318-0.115-0.443
		c-0.077-0.125-0.176-0.23-0.298-0.315c-0.122-0.085-0.257-0.155-0.405-0.209c-0.147-0.054-0.292-0.098-0.434-0.132l-1.354-0.332
		c-0.176-0.045-0.348-0.102-0.515-0.17c-0.168-0.068-0.314-0.159-0.439-0.273c-0.125-0.114-0.226-0.253-0.302-0.417
		c-0.076-0.165-0.115-0.366-0.115-0.605c0-0.148,0.028-0.321,0.085-0.52c0.057-0.199,0.163-0.386,0.319-0.562
		s0.371-0.325,0.643-0.447c0.273-0.122,0.622-0.183,1.047-0.183c0.301,0,0.588,0.04,0.86,0.119c0.273,0.08,0.511,0.199,0.716,0.358
		c0.204,0.159,0.368,0.356,0.49,0.592c0.122,0.236,0.183,0.51,0.183,0.822h-0.579c-0.012-0.233-0.064-0.436-0.158-0.609
		c-0.094-0.173-0.216-0.318-0.366-0.434c-0.15-0.116-0.323-0.204-0.52-0.264c-0.196-0.06-0.402-0.089-0.617-0.089
		c-0.199,0-0.391,0.021-0.575,0.064c-0.185,0.043-0.346,0.111-0.486,0.204c-0.139,0.094-0.251,0.217-0.336,0.37
		c-0.085,0.153-0.128,0.344-0.128,0.571c0,0.142,0.024,0.266,0.073,0.37c0.048,0.105,0.115,0.195,0.2,0.268
		c0.085,0.074,0.183,0.134,0.294,0.179c0.111,0.045,0.228,0.082,0.354,0.111l1.482,0.366c0.216,0.057,0.419,0.126,0.609,0.209
		c0.19,0.082,0.358,0.185,0.503,0.307c0.145,0.122,0.258,0.271,0.341,0.447c0.082,0.176,0.124,0.389,0.124,0.639
		c0,0.068-0.007,0.159-0.021,0.273c-0.014,0.114-0.048,0.234-0.102,0.362c-0.054,0.128-0.131,0.257-0.23,0.388
		c-0.1,0.131-0.236,0.248-0.409,0.354c-0.173,0.105-0.388,0.19-0.643,0.255c-0.256,0.065-0.562,0.098-0.92,0.098
		c-0.358,0-0.69-0.041-0.997-0.123c-0.307-0.082-0.568-0.209-0.784-0.379c-0.216-0.17-0.382-0.389-0.498-0.656
		c-0.116-0.267-0.166-0.588-0.149-0.963h0.579C204.283,44.602,204.332,44.863,204.434,45.073z"></path>
	<path d="M218.676,40.209v0.494h-2.121v5.588h-0.579v-5.588h-2.112v-0.494H218.676z"></path>
	<path d="M219.894,45.388h0.715v0.903h-0.715V45.388z"></path>
	<path d="M224.05,40.209v6.082h-0.579v-6.082H224.05z"></path>
	<path d="M226.913,45.388h0.715v0.903h-0.715V45.388z"></path>
</g>
</svg>
