<?xml version="1.0"?>

<!-- Generator: Adobe Illustrator 19.1.0, SVG Export Plug-In . SVG Version: 6.00 Build 0)  -->
<svg version="1.1" id="Layer_1" xmlns="http://www.w3.org/2000/svg" xmlns:xlink="http://www.w3.org/1999/xlink" x="0px" y="0px" width="492px" height="106px" viewBox="0 0 492 106" enable-background="new 0 0 492 106" xml:space="preserve">
<path fill-rule="evenodd" clip-rule="evenodd" d="M55.565,11.205v24.34h-1.859c-0.628-4.654-1.752-8.359-3.37-11.116
	c-1.62-2.757-3.926-4.946-6.921-6.569c-2.995-1.619-6.094-2.429-9.294-2.429c-3.62,0-6.616,1.106-8.983,3.314
	c-2.365,2.208-3.549,4.721-3.549,7.54c0,2.158,0.748,4.123,2.243,5.894c2.155,2.61,7.281,6.092,15.384,10.439
	c6.603,3.55,11.116,6.272,13.535,8.17c2.419,1.895,4.282,4.129,5.586,6.703c1.306,2.572,1.961,5.268,1.961,8.083
	c0,5.358-2.083,9.974-6.245,13.849c-4.161,3.877-9.516,5.815-16.062,5.815c-2.055,0-3.988-0.158-5.797-0.475
	c-1.081-0.173-3.317-0.817-6.715-1.92c-3.396-1.107-5.546-1.661-6.449-1.661c-0.873,0-1.561,0.262-2.066,0.789
	c-0.508,0.528-0.88,1.616-1.123,3.266h-1.86v-24.34h1.86c0.904,5.102,2.124,8.919,3.655,11.451c1.532,2.536,3.876,4.641,7.029,6.319
	c3.15,1.678,6.608,2.515,10.368,2.515c4.353,0,7.794-1.15,10.319-3.447c2.523-2.298,3.788-5.016,3.788-8.15
	c0-1.745-0.479-3.503-1.432-5.277c-0.956-1.775-2.438-3.431-4.45-4.966c-1.355-1.044-5.061-3.253-11.113-6.634
	c-6.056-3.38-10.362-6.08-12.912-8.103c-2.552-2.021-4.487-4.249-5.807-6.691c-1.321-2.439-1.98-5.122-1.98-8.049
	c0-5.087,1.947-9.471,5.847-13.148c3.897-3.677,8.855-5.514,14.875-5.514c3.757,0,7.742,0.918,11.952,2.757
	c1.949,0.866,3.321,1.3,4.122,1.3c0.904,0,1.642-0.268,2.219-0.806c0.572-0.537,1.036-1.62,1.384-3.251H55.565L55.565,11.205z
	 M96.566,38.156h1.767c1.78,0,3.121,0.513,4.022,1.537c0.645,0.747,0.969,2.601,0.969,5.559V64.35c0,5.009-0.45,8.566-1.348,10.663
	c-0.899,2.101-2.575,3.823-5.025,5.168c-2.452,1.345-5.229,2.017-8.334,2.017c-2.427,0-4.479-0.429-6.147-1.286
	c-1.669-0.86-2.947-1.949-3.835-3.272c-0.886-1.321-1.501-3.165-1.838-5.531c-0.338-2.365-0.506-4.464-0.506-6.298v-20.56
	c0-2.656,0.284-4.404,0.856-5.243c0.823-1.235,2.196-1.853,4.117-1.853h1.784v-1.24H62.885v1.24h1.75
	c1.76,0,3.036,0.455,3.824,1.362c0.789,0.91,1.186,2.82,1.186,5.733v18.461c0,5.69,0.371,9.567,1.114,11.635
	c1.116,3.019,3.007,5.422,5.68,7.21c2.669,1.788,6.584,2.681,11.741,2.681c4.738,0,8.484-0.933,11.237-2.799
	c2.752-1.865,4.598-4.103,5.538-6.713c0.94-2.607,1.412-6.275,1.412-11.007v-19.13c0-2.654,0.243-4.345,0.729-5.075
	c0.991-1.573,2.412-2.359,4.263-2.359h1.767v-1.24H96.566V38.156L96.566,38.156z"></path>
<path fill-rule="evenodd" clip-rule="evenodd" d="M128.562,62.079V75.89c0,2.983,0.322,4.837,0.969,5.559
	c0.878,1.026,2.208,1.537,3.987,1.537h1.803v1.239h-20.163v-1.239h1.776c1.997,0,3.425-0.65,4.285-1.957
	c0.465-0.721,0.697-2.434,0.697-5.138V45.251c0-2.982-0.313-4.834-0.94-5.559c-0.906-1.024-2.255-1.537-4.042-1.537h-1.776v-1.24
	h17.244c4.208,0,7.528,0.437,9.958,1.309c2.427,0.873,4.474,2.344,6.14,4.412C150.166,44.707,151,47.162,151,50
	c0,3.862-1.268,7.002-3.798,9.422c-2.531,2.419-6.109,3.626-10.732,3.626c-1.134,0-2.359-0.08-3.675-0.242
	C131.475,62.643,130.065,62.403,128.562,62.079L128.562,62.079z M128.562,60.097c1.218,0.232,2.297,0.408,3.238,0.525
	c0.942,0.115,1.747,0.173,2.412,0.173c2.39,0,4.45-0.936,6.186-2.81c1.734-1.876,2.603-4.304,2.603-7.286
	c0-2.048-0.414-3.951-1.241-5.71c-0.827-1.758-2-3.074-3.515-3.947c-1.517-0.873-3.241-1.311-5.169-1.311
	c-1.173,0-2.678,0.221-4.515,0.662V60.097L128.562,60.097z"></path>
<path fill-rule="evenodd" clip-rule="evenodd" d="M168.436,39.619v18.586h10.137c2.699,0,4.504-0.4,5.411-1.201
	c1.21-1.052,1.884-2.903,2.025-5.558h1.239V67.78h-1.239c-0.328-2.281-0.654-3.745-0.978-4.392
	c-0.419-0.805-1.105-1.439-2.059-1.901c-0.954-0.46-2.42-0.691-4.399-0.691h-10.137v15.467c0,2.078,0.091,3.339,0.278,3.79
	l0.971,1.072c0.463,0.266,1.344,0.398,2.642,0.398h7.991c2.662,0,4.598-0.184,5.802-0.549c1.203-0.367,2.361-1.085,3.475-2.162
	c1.436-1.416,2.904-3.556,4.412-6.414h1.463l-4.077,11.826h-36.362v-1.239h1.673c1.114,0,2.17-0.269,3.171-0.808
	c0.743-0.372,1.247-0.935,1.515-1.686c0.267-0.75,0.401-2.282,0.401-4.601V45.251c0-3.066-0.304-4.956-0.906-5.672
	c-0.837-0.951-2.23-1.424-4.181-1.424h-1.673v-1.24h36.271l0.45,10.363h-1.463c-0.482-2.45-1.017-4.132-1.602-5.047
	c-0.583-0.916-1.449-1.615-2.595-2.096c-0.918-0.343-2.535-0.517-4.853-0.517H168.436L168.436,39.619z"></path>
<path fill-rule="evenodd" clip-rule="evenodd" d="M245.334,84.225h-12.639l-16.024-22.077c-1.177,0.048-2.134,0.071-2.872,0.071
	l-0.969-0.017l-1.072-0.054V75.89c0,2.983,0.322,4.837,0.971,5.559c0.878,1.026,2.194,1.537,3.951,1.537h1.838v1.239h-20.163v-1.239
	h1.767c1.987,0,3.407-0.65,4.263-1.957c0.485-0.721,0.727-2.434,0.727-5.138V45.251c0-2.982-0.322-4.834-0.969-5.559
	c-0.901-1.024-2.243-1.537-4.022-1.537h-1.767v-1.24h17.198c5.013,0,8.708,0.368,11.087,1.099c2.38,0.732,4.397,2.083,6.058,4.048
	c1.658,1.968,2.49,4.313,2.49,7.034c0,2.909-0.951,5.435-2.849,7.574c-1.901,2.141-4.843,3.654-8.827,4.537l9.812,13.556
	c2.228,3.14,4.141,5.224,5.743,6.253c1.601,1.032,3.69,1.687,6.267,1.968V84.225L245.334,84.225z M211.757,60.008l1.139,0.017
	l0.794,0.017c4.466,0,7.832-0.985,10.1-2.952c2.266-1.972,3.4-4.479,3.4-7.527c0-2.977-0.916-5.397-2.747-7.26
	c-1.83-1.865-4.251-2.798-7.265-2.798c-1.335,0-3.143,0.264-5.421,0.789V60.008L211.757,60.008z"></path>
<path fill-rule="evenodd" clip-rule="evenodd" d="M273.839,84.225l-18.248-39.807v31.584c0,2.941,0.317,4.774,0.95,5.502
	c0.869,0.99,2.241,1.482,4.119,1.482h1.69v1.239h-16.559v-1.239h1.69c2.017,0,3.45-0.61,4.294-1.834
	c0.516-0.751,0.775-2.467,0.775-5.15V45.138c0-2.115-0.237-3.644-0.705-4.584c-0.329-0.681-0.933-1.252-1.813-1.712
	c-0.878-0.456-2.294-0.686-4.241-0.686v-1.24h13.538l17.055,36.941l16.933-36.941h13.3v1.24h-1.653c-2.042,0-3.485,0.613-4.33,1.834
	c-0.517,0.753-0.773,2.469-0.773,5.148v30.864c0,2.941,0.327,4.774,0.985,5.502c0.868,0.99,2.24,1.482,4.119,1.482h1.653v1.239
	h-20.162v-1.239h1.69c2.042,0,3.472-0.61,4.294-1.834c0.517-0.751,0.776-2.467,0.776-5.15V44.418l-18.249,39.807H273.839
	L273.839,84.225z M330.019,82.986h-1.699c-1.11,0-2.161-0.28-3.155-0.839c-0.739-0.418-1.224-0.919-1.454-1.503
	c-0.302-0.769-0.451-2.354-0.451-4.754V45.251c0-2.842,0.29-4.637,0.866-5.384c0.878-1.14,2.276-1.712,4.194-1.712h1.699v-1.24
	h-20.163v1.24h1.671c1.115,0,2.184,0.28,3.207,0.839c0.718,0.418,1.195,0.921,1.429,1.503c0.3,0.769,0.451,2.354,0.451,4.754V75.89
	c0,2.845-0.28,4.637-0.836,5.384c-0.884,1.143-2.301,1.712-4.251,1.712h-1.671v1.239h20.163V82.986L330.019,82.986z M369.186,35.901
	h-1.239c-0.255,1.114-0.683,1.982-1.283,2.608c-0.463,0.439-1.007,0.659-1.629,0.659c-0.417,0-1.111-0.252-2.081-0.764
	c-3.304-1.669-6.658-2.503-10.055-2.503c-4.369,0-8.399,1.086-12.084,3.255c-3.687,2.168-6.583,5.225-8.685,9.168
	c-2.105,3.944-3.157,8.269-3.157,12.978c0,5.847,1.6,10.926,4.8,15.239c4.289,5.8,10.341,8.697,18.155,8.697
	c4.335,0,8.078-0.976,11.231-2.927c3.155-1.95,5.914-5.032,8.28-9.238l-1.081-0.676c-2.8,3.908-5.368,6.517-7.704,7.831
	c-2.339,1.312-5.032,1.969-8.086,1.969c-3.518,0-6.648-0.837-9.391-2.508c-2.741-1.673-4.793-4.075-6.158-7.21
	c-1.367-3.134-2.048-6.838-2.048-11.111c0-5.18,0.721-9.509,2.163-12.992c1.441-3.483,3.421-6.019,5.936-7.61
	c2.514-1.592,5.326-2.386,8.442-2.386c3.714,0,6.896,1.072,9.55,3.215c2.652,2.144,4.694,5.651,6.124,10.527h1.128L369.186,35.901
	L369.186,35.901z"></path>
<path fill-rule="evenodd" clip-rule="evenodd" d="M418.544,84.225h-12.64l-16.025-22.077c-1.175,0.048-2.132,0.071-2.87,0.071
	l-0.971-0.017l-1.071-0.054V75.89c0,2.983,0.321,4.837,0.97,5.559c0.878,1.026,2.194,1.537,3.951,1.537h1.837v1.239h-20.162v-1.239
	h1.766c1.987,0,3.408-0.65,4.263-1.957c0.485-0.721,0.729-2.434,0.729-5.138V45.251c0-2.982-0.325-4.834-0.971-5.559
	c-0.901-1.024-2.242-1.537-4.022-1.537h-1.766v-1.24h17.2c5.011,0,8.706,0.368,11.086,1.099c2.379,0.732,4.398,2.083,6.057,4.048
	c1.661,1.968,2.491,4.313,2.491,7.034c0,2.909-0.951,5.435-2.85,7.574c-1.901,2.141-4.841,3.654-8.826,4.537l9.811,13.556
	c2.228,3.14,4.143,5.224,5.744,6.253c1.603,1.032,3.692,1.687,6.269,1.968V84.225L418.544,84.225z M384.967,60.008l1.138,0.017
	l0.794,0.017c4.465,0,7.833-0.985,10.099-2.952c2.266-1.972,3.4-4.479,3.4-7.527c0-2.977-0.914-5.397-2.744-7.26
	c-1.831-1.865-4.253-2.798-7.265-2.798c-1.337,0-3.145,0.264-5.422,0.789V60.008L384.967,60.008z"></path>
<path fill-rule="evenodd" clip-rule="evenodd" d="M467.713,30.721c1.189,0,2.347,0.304,3.476,0.909
	c1.129,0.607,2.01,1.477,2.647,2.606c0.633,1.131,0.949,2.31,0.949,3.536c0,1.219-0.312,2.391-0.935,3.512
	c-0.626,1.12-1.498,1.99-2.622,2.609c-1.122,0.622-2.293,0.931-3.515,0.931c-1.223,0-2.393-0.309-3.513-0.931
	c-1.117-0.619-1.99-1.489-2.613-2.609c-0.625-1.12-0.937-2.293-0.937-3.512c0-1.227,0.318-2.406,0.953-3.536
	c0.633-1.128,1.516-1.999,2.643-2.606C465.376,31.024,466.531,30.721,467.713,30.721L467.713,30.721z M467.713,31.3
	c-1.084,0-2.139,0.28-3.172,0.839c-1.029,0.559-1.833,1.355-2.412,2.391c-0.578,1.035-0.866,2.115-0.866,3.241
	c0,1.118,0.284,2.191,0.853,3.216c0.568,1.024,1.364,1.824,2.388,2.397c1.023,0.573,2.093,0.86,3.21,0.86
	c1.117,0,2.189-0.287,3.215-0.86c1.027-0.573,1.824-1.373,2.393-2.397c0.568-1.026,0.851-2.098,0.851-3.216
	c0-1.125-0.288-2.206-0.864-3.241c-0.58-1.036-1.384-1.832-2.414-2.391C469.862,31.58,468.802,31.3,467.713,31.3L467.713,31.3z
	 M463.775,33.424h3.856c0.965,0,1.701,0.218,2.209,0.653c0.506,0.436,0.761,0.965,0.761,1.582l-0.515,1.33
	c-0.342,0.383-0.907,0.677-1.699,0.883l2.081,2.95l0.671,0.727l0.523,0.15v0.321h-1.829l-2.892-4.023h-0.785v3.076l0.279,0.476
	l0.88,0.15v0.321h-3.672V41.7l0.697-0.115l0.296-0.333l0.071-0.926v-5.204l-0.03-0.866l-0.258-0.354l-0.645-0.124V33.424
	L463.775,33.424z M466.156,37.577c0.782,0,1.353-0.075,1.717-0.226l0.828-0.642l0.288-0.939l-0.56-1.348
	c-0.376-0.364-0.854-0.548-1.437-0.548l-0.837,0.16V37.577L466.156,37.577z"></path>
<path fill-rule="evenodd" clip-rule="evenodd" d="M414.034,60.589c0-13.634,11.055-24.688,24.688-24.688
	c13.634,0,24.688,11.054,24.688,24.688c0,13.635-11.055,24.688-24.688,24.688C425.089,85.278,414.034,74.225,414.034,60.589
	L414.034,60.589z"></path>
<path fill-rule="evenodd" clip-rule="evenodd" d="M461.341,92.181H13.43v-1.938h447.912V92.181L461.341,92.181z"></path>
</svg>
