 <svg 
   xmlns="http://www.w3.org/2000/svg"
   viewBox="0 0 272.43 138.06"
   height="132"
   width="132"
   > 
   <path
     d="m 140.06,29.733 c -1.45,0 -2.63,-0.793 -2.63,-1.76 0,-0.97 1.18,-1.76 2.63,-1.76 1.46,0 2.64,0.79 2.64,1.76 0,0.967 -1.18,1.76 -2.64,1.76 z m -0.97,-6.497 c -1.59,-0.07 -3.09,0.503 -4.25,1.587 -1.16,1.077 -1.84,2.545 -1.88,4.137 -0.11,3.273 2.45,6.037 5.73,6.152 1.59,0.05 3.1,-0.515 4.26,-1.588 1.16,-1.094 1.83,-2.562 1.89,-4.139 0.13,-3.284 -2.47,-6.037 -5.75,-6.149 m -8.74,5.704 c 0.1,-2.271 1.04,-4.38 2.71,-5.931 1.66,-1.557 3.83,-2.359 6.1,-2.285 4.7,0.17 8.38,4.127 8.22,8.822 -0.13,2.271 -1.04,4.375 -2.69,5.927 -1.66,1.552 -3.84,2.363 -6.11,2.281 -4.7,-0.169 -8.38,-4.12 -8.23,-8.814 z M 116.68,12.477 c 0,0 -0.1,4.133 -0.1,4.59 -2.01,-0.677 -16.794,-5.452 -30.665,-5.94 -11.744,-0.408 -27.79,-0.97 -50.464,12.97 l -0.667,0.416 c -10.675,6.659 -18.037,14.861 -21.882,24.4 -1.218,3 -2.831,9.77 -1.23,16.138 0.696,2.786 1.996,5.574 3.741,8.086 3.934,5.655 10.542,9.413 17.658,10.051 10.05,0.89 17.662,-3.617 20.375,-12.065 1.858,-5.839 0,-14.391 -7.134,-18.76 -5.803,-3.552 -12.053,-2.745 -15.67,-0.354 -3.138,2.089 -4.916,5.315 -4.887,8.878 0.07,6.296 5.503,9.646 9.401,9.658 1.14,0 2.285,-0.196 3.565,-0.612 0.459,-0.146 0.883,-0.31 1.362,-0.612 l 0.15,-0.09 0.09,-0.05 -0.04,0.01 c 0.888,-0.604 1.429,-1.583 1.429,-2.64 0,-0.292 -0.04,-0.584 -0.12,-0.88 -0.461,-1.597 -2.037,-2.562 -3.676,-2.253 l -0.216,0.04 -0.3,0.09 -0.436,0.148 c -0.892,0.227 -1.572,0.243 -1.719,0.243 -0.453,-0.03 -2.715,-0.701 -2.715,-3.165 l 0,-0.03 c 0.03,-0.9 0.376,-1.536 0.578,-1.885 0.696,-1.098 2.617,-2.172 5.196,-1.94 3.396,0.29 5.837,2.026 7.463,5.305 1.499,3.059 1.121,6.812 -1.012,9.561 -2.114,2.729 -5.867,3.892 -10.863,3.349 -5.041,-0.552 -9.304,-3.45 -11.691,-7.968 -2.329,-4.406 -2.462,-9.643 -0.325,-13.666 5.102,-9.625 14.737,-9.529 20.012,-8.614 7.512,1.296 18.891,8.03 23.166,23.6 l 10.382,0 C 74.15,64.521 73.415,53.02 85.103,53.02 c 12.825,0 14.437,9.029 18.077,15.466 l 11,0 c -2.89,-4.138 -4.92,-8.75 -4.28,-12.627 0.95,-5.727 5.5,-5.211 11.8,-4.497 2.07,0.242 4.42,0.504 6.83,0.56 6.78,0.04 12.91,-1.202 17.41,-3.17 2.91,-1.27 4.76,-2.106 5.92,-3.166 0.43,-0.342 0.64,-0.912 0.87,-1.508 l 0.16,-0.404 c 0.19,-0.487 0.43,-1.527 0.57,-2.088 0.3,-1.151 -0.72,-0.539 -0.72,-0.539 -1.96,1.184 -6.9,3.435 -11.52,3.528 -5.72,0.12 -17.25,-5.754 -18.45,-6.377 l -0.12,-0.137 c -0.3,-0.688 -2.02,-4.787 -2.39,-5.652 8.3,5.474 15.18,8.494 20.45,8.961 5.87,0.526 10.45,-2.683 12.41,-4.041 0.21,-0.144 0.98,-0.667 0.8,-1.292 -0.76,-2.667 -3.39,-11.599 -5.59,-13.864 -0.64,-0.66 -1.15,-1.297 -2.19,-1.9 -8.39,-4.889 -28.3,-7.847 -29.24,-7.981 0,0 -0.23,-0.07 -0.22,0.183 m -29.211,83.2 C 87.304,95.645 69.707,93.097 69.53,93.07 c -3.084,-0.486 -4.652,-2.006 -4.652,-4.51 0,-2.523 2.167,-3.947 3.943,-3.947 l 29.087,0 0,-10.854 c 0,0 -28.738,0 -29.017,0 -9.208,0 -15.566,7.002 -15.566,14.801 0,6.815 4.095,13.87 13.466,15.32 0.167,0 17.775,2.58 17.941,2.6 3.096,0.49 4.651,2.02 4.651,4.52 0,2.52 -2.163,3.93 -3.955,3.93 l -21.245,0 0,0 c -4.3,0.12 -8.837,3.42 -8.837,9.88 0,0.28 0,0.61 0,0.97 0,0 29.924,0 30.037,0 9.208,0 15.547,-7 15.547,-14.8 0,-6.82 -4.085,-13.881 -13.461,-15.325 z M 241.78,84.613 c 4.31,-0.12 8.84,-3.431 8.84,-9.901 0,-0.271 0,-0.599 0,-0.953 l -31.45,0 c -9.22,0 -15.58,7.002 -15.58,14.801 l 0,0 c 0,0 0,22.33 0,22.44 0,7.8 6.36,14.8 15.58,14.8 0.28,0 31.45,0 31.45,0 0,-0.36 0,-0.69 0,-0.97 0,-6.46 -4.53,-9.76 -8.84,-9.89 l 0,0 -22.68,0 c -1.77,0 -3.95,-1.42 -3.95,-3.94 0,-2.5 1.66,-4.51 4.66,-4.51 3,0 9.65,0 9.82,0 8.66,0 13.64,-5.35 15.2,-11.409 l -23.62,0 c -4.26,0 -6.06,3.375 -6.06,3.375 l 0,-9.89 c 0,-2.523 2.16,-3.947 3.95,-3.947 l 22.68,0 z m 16.55,36.607 c 0,0.31 -0.23,0.55 -0.66,0.55 l -0.82,0 0,-1.11 0.81,0 c 0.41,0 0.67,0.19 0.67,0.56 z m 0.84,0 c 0,-0.77 -0.58,-1.23 -1.48,-1.23 l -1.67,0 0,3.72 0.83,0 0,-1.2 0.65,0 0.81,1.2 0.96,0 -0.92,-1.33 c 0.48,-0.17 0.82,-0.55 0.82,-1.16 z m 1.44,0.73 c 0,1.71 -1.36,3.11 -3.15,3.11 -1.79,0 -3.12,-1.38 -3.12,-3.09 0,-1.73 1.35,-3.12 3.15,-3.12 1.78,0 3.12,1.38 3.12,3.1 z m 0.82,0 c 0,-2.13 -1.73,-3.89 -3.94,-3.89 -2.23,0 -3.98,1.77 -3.98,3.91 0,2.13 1.75,3.89 3.95,3.89 2.23,0 3.97,-1.78 3.97,-3.91 z m -122.97,-48.163 0,30.953 c 0,6.46 -5.23,11.71 -11.7,11.71 -6.47,0 -11.71,-5.25 -11.71,-11.71 l 0,-30.953 -11.27,0 0,30.303 c 0,12.69 10.29,22.99 22.98,22.99 12.69,0 22.98,-10.3 22.98,-22.99 l 0,-30.303 -11.28,0 z m 62.17,37.263 c 0,7.8 -6.35,14.8 -15.55,14.8 -0.28,0 -29.02,0 -29.02,0 l 0,-10.87 29.07,0 c 1.79,0 3.95,-1.41 3.95,-3.93 0,-2.5 -1.56,-4.03 -4.66,-4.52 -0.17,0 -17.77,-2.57 -17.93,-2.6 -9.37,-1.45 -13.47,-8.505 -13.47,-15.32 0,-7.799 6.35,-14.801 15.56,-14.801 0.28,0 29.02,0 29.02,0 l 0,10.854 -29.08,0 c -1.78,0 -3.94,1.424 -3.94,3.947 0,2.504 1.56,4.024 4.66,4.51 0.16,0.03 17.77,2.577 17.92,2.605 9.38,1.444 13.47,8.505 13.47,15.325"
  /> </svg>