<?xml version="1.0"?>

<svg xmlns="http://www.w3.org/2000/svg" viewBox="0 0 327 326.9" width="327" height="326.9">
  
   
  <path d="m 163.5,22 c -17.7,0 -32.4,11.3 -38.3,25.5 -2.1,5 -3.1,10.6 -3,16.3 -3.9,-4.1 -8.5,-7.3 -13.6,-9.4 -5.3,-2.2 -11.21,-3.2 -17.19,-3 -9.98,0.3 -20.12,4.2 -27.91,12 -12.5,12.5 -14.9,30.9 -9,45.1 2.1,5.1 5.3,9.7 9.33,13.6 C 58.2,122 52.7,123 47.6,125.1 33.4,131 22.1,145.8 22.1,163.4 l -0.1,0 0,100 c 0,23.5 18,41.5 41.5,41.5 l 200,0 c 23.5,0 41.5,-18 41.5,-41.5 l 0,-100 -0.1,0 c 0,-17.6 -11.3,-32.4 -25.5,-38.3 -5,-2.1 -10.6,-3.1 -16.3,-3 4.1,-3.9 7.3,-8.5 9.4,-13.6 5.9,-14.2 3.5,-32.6 -9,-45.1 -7.8,-7.8 -17.9,-11.7 -27.9,-12 -6,-0.2 -11.9,0.8 -17.2,3 -5.1,2.1 -9.7,5.3 -13.6,9.4 0.1,-5.7 -0.9,-11.3 -3,-16.3 C 195.9,33.3 181.2,22 163.5,22 Z m -0.9,19 a 22.42,22.42 0 0 1 16.8,38.2 l 0,46 32.4,-32.5 a 22.42,22.42 0 1 1 22.4,22.5 l -32.4,32.4 45.9,0 a 22.42,22.42 0 0 1 38.2,15.8 l -244.8,0 a 22.42,22.42 0 0 1 38.25,-15.8 l 45.95,0 -32.5,-32.5 a 22.42,22.42 0 1 1 22.4,-22.4 l 32.5,32.5 0,-46 A 22.42,22.42 0 0 1 162.6,41 Z M 90.38,171.4 c 20.22,0 36.72,16.4 36.72,36.7 l -21.5,0 c 0,-8.4 -6.82,-15.2 -15.22,-15.2 -8.38,0 -15.18,6.8 -15.18,15.2 0,4.2 1.7,8 4.44,10.7 2.74,2.8 5.04,3.6 10.72,4.5 10.14,1 19.34,4.1 25.94,10.7 6.6,6.7 10.7,15.8 10.7,26 0,20.2 -16.4,36.6 -36.64,36.6 -20.22,0 -36.64,-16.4 -36.64,-36.6 l 21.48,0 c 0,8.3 6.8,15.1 15.18,15.1 8.4,0 15.22,-6.8 15.22,-15.1 0,-4.2 -1.7,-8 -4.5,-10.8 -2.72,-2.7 -6.66,-3.7 -10.72,-4.4 -9.82,-1.5 -19.28,-4.1 -25.92,-10.8 -6.63,-6.6 -10.74,-15.8 -10.74,-25.9 0,-20.3 16.42,-36.7 36.66,-36.7 z m 36.72,0 21.4,0 15.2,73.4 15.2,-73.4 21.5,0 -25.9,125.2 -21.5,0 -25.9,-125.2 z m 110,0 c 20.2,0 36.6,16.5 36.6,36.7 l -21.4,0 c 0,-8.4 -6.8,-15.2 -15.2,-15.2 -8.4,0 -15.2,6.8 -15.2,15.2 l 0,51.9 c 0,8.3 6.8,15.1 15.2,15.1 8.4,0 15.2,-6.8 15.2,-15.1 l 0,-15.2 -15.2,0 0,-21.5 36.6,0 0,36.7 c 0,20.2 -16.4,36.6 -36.6,36.6 -20.3,0 -36.7,-16.4 -36.7,-36.6 l 0,-51.9 c 0,-20.2 16.5,-36.7 36.7,-36.7 z"></path>
</svg>
