<?xml version="1.0"?>
<!--?xml version="1.0" encoding="UTF-8" standalone="no"?-->
<svg xmlns="http://www.w3.org/2000/svg" viewBox="0 0 242.8 75.561" height="75.561" width="242.8"> <path d="m 230.4,30.458 c 0,0 0,0 0,0 -0.81,0 -1.61,0.562 -1.95,1.323 L 223.1,47.89 H 223 l -5.23,-16.102 c -0.34,-0.764 -1.14,-1.331 -1.96,-1.331 0,0 0,0 0,0 h -2.71 l 7.15,19.667 c 0.25,0.703 0.75,1.777 0.75,2.231 0,0.412 -1.16,5.204 -4.63,5.204 -0.1,0 -0.18,-0.01 -0.26,-0.01 -0.89,-0.05 -1.55,0.57 -1.7,1.522 l -0.11,1.344 c 0.7,0.124 1.41,0.29 2.65,0.29 5.12,0 6.65,-4.67 8.1,-8.717 l 7.75,-21.532 h -2.4 z m -20.9,21.071 c 0,0 0,0 0,0 0.94,0 1.7,-0.746 1.75,-1.682 V 39.01 c 0,-5.659 -2.44,-9.048 -7.9,-9.048 -2.93,0 -5.74,1.447 -6.9,3.844 h -0.1 v -1.574 c 0,0 0,0 0,0 0,-0.976 -0.79,-1.764 -1.76,-1.764 0,0 0,0 0,0 h -1.98 v 21.071 h 2.14 c 0,0 0,0 0,0 0.93,0 1.67,-0.716 1.75,-1.622 V 41.79 c 0,-5.123 1.98,-8.676 6.4,-8.676 3.39,0.206 4.46,2.601 4.46,7.519 V 51.54 h 2.13 z m -60.02,0 c 0,0 0,0 0,0 0.84,0 1.53,-0.587 1.71,-1.375 V 38.02 c 0,-4.586 -1.94,-8.058 -7.31,-8.058 -1.9,0 -5.08,1.076 -6.53,4.091 -1.11,-2.851 -3.55,-4.091 -5.99,-4.091 -3.09,0 -5.2,1.116 -6.69,3.554 h -0.1 v -1.311 c 0,-0.964 -0.79,-1.743 -1.76,-1.743 0,0 0,0 0,0 h -1.86 v 21.071 h 2.11 c 0,0 0,0 0,0 0.97,0 1.76,-0.79 1.76,-1.762 0,-0.03 0,-0.04 0,-0.05 v -8.8 c 0,-3.926 1.57,-7.81 5.53,-7.81 3.14,0 3.76,3.263 3.76,5.866 v 12.56 h 2.14 c 0,0 0,0 0,0 0.92,0 1.66,-0.706 1.75,-1.604 v -9.011 c 0,-3.926 1.57,-7.81 5.53,-7.81 3.14,0 3.76,3.263 3.76,5.866 v 12.56 h 2.16 z M 90.74,34.738 c -3.2,-1.642 -6.71,-2.756 -6.77,-6.058 0,-3.507 3.23,-4.428 5.71,-4.424 0,0 0,0 0,0 1.08,0 1.94,0.107 2.78,0.292 0,0 0,-0.01 0,-0.01 0.89,0.06 1.64,-0.631 1.74,-1.508 l 0.1,-1.273 c -1.63,-0.404 -3.33,-0.609 -4.81,-0.609 -5.4,0.03 -9.41,2.75 -9.43,7.934 0,4.532 3.07,6.29 6.35,7.88 3.22,1.549 6.75,2.828 6.78,6.569 0,3.902 -3.78,5.341 -6.38,5.346 -1.52,0 -3.16,-0.384 -4.55,-0.821 -0.87,-0.143 -1.59,0.624 -1.7,1.641 l -0.11,1.136 c 1.9,0.617 3.86,1.155 5.83,1.155 0,0 0,0 0,0 0,0 0,0 0,0 6.05,-0.04 10.75,-2.457 10.77,-8.719 0,-4.835 -3.09,-6.864 -6.36,-8.525 z m 24.69,-4.28 c 0,0 0,0 0,0 -0.82,0 -1.61,0.562 -1.95,1.323 l -5.35,16.109 h -0.1 L 102.8,31.792 c -0.34,-0.764 -1.14,-1.331 -1.96,-1.331 0,0 0,0 0,0 h -2.71 l 7.15,19.667 c 0.25,0.703 0.74,1.777 0.74,2.231 0,0.412 -1.15,5.204 -4.62,5.204 -0.1,0 -0.18,-0.01 -0.26,-0.01 -0.89,-0.05 -1.56,0.57 -1.71,1.522 l -0.1,1.344 c 0.7,0.124 1.41,0.29 2.65,0.29 5.12,0 6.65,-4.67 8.09,-8.717 l 7.77,-21.527 h -2.39 z m 51.73,1.465 v -1.465 h -5.58 v -2.004 c 0,-2.85 0.42,-5 3.76,-5 0.1,0 0.13,0 0.19,0 0,0 0,-0.01 0,-0.01 0.93,0.07 1.7,-0.688 1.75,-1.616 l 0.1,-1.272 c -0.78,-0.124 -1.62,-0.248 -2.6,-0.248 -5.75,0 -7.07,3.347 -7.07,8.47 v 1.674 h -4.96 v 1.636 c 0.13,0.848 0.85,1.5 1.74,1.5 0,0 0,0 0,0 h 3.21 v 17.93 h 2.14 c 0,0 0,-10e-4 0,-10e-4 0.89,0 1.61,-0.667 1.73,-1.522 V 33.599 h 3.89 c 0.92,-0.03 1.65,-0.762 1.69,-1.676 z m 11.28,-1.961 c 6.4,0 10.7,4.628 10.7,11.031 0,6.033 -4.38,11.031 -10.7,11.031 -6.36,0 -10.74,-4.998 -10.74,-11.031 0,-6.402 4.29,-11.031 10.74,-11.031 z m 0,18.925 c 4.54,0 6.56,-4.133 6.56,-7.895 0,-4.006 -2.43,-7.89 -6.56,-7.89 -4.18,0 -6.61,3.884 -6.61,7.89 0,3.763 2.02,7.895 6.61,7.895 z M 37.779,10 C 22.438,10 10,22.436 10,37.778 10,53.122 22.438,65.561 37.779,65.561 53.123,65.561 65.561,53.122 65.561,37.778 65.56,22.435 53.122,10 37.779,10 Z M 52.76,26.077 c -1.286,0.05 -2.173,-0.722 -2.215,-1.891 -0.01,-0.429 0.1,-0.803 0.391,-1.24 0.287,-0.561 0.348,-0.625 0.34,-0.87 -0.03,-0.735 -1.136,-0.764 -1.44,-0.749 -4.17,0.137 -5.269,5.766 -6.16,10.342 l -0.437,2.413 c 2.401,0.352 4.106,-0.08 5.057,-0.697 1.339,-0.868 -0.374,-1.761 -0.159,-2.75 0.22,-1.008 1.136,-1.493 1.865,-1.514 1.019,-0.02 1.747,1.032 1.724,2.105 -0.04,1.773 -2.392,4.212 -7.099,4.113 -0.574,-0.01 -1.102,-0.05 -1.594,-0.113 l -0.888,4.903 c -0.796,3.713 -1.853,8.786 -5.632,13.212 -3.248,3.86 -6.542,4.46 -8.019,4.51 -2.76,0.09 -4.591,-1.378 -4.657,-3.343 -0.06,-1.902 1.618,-2.942 2.723,-2.979 1.474,-0.05 2.493,1.018 2.532,2.249 0.04,1.041 -0.506,1.366 -0.865,1.563 -0.241,0.192 -0.603,0.39 -0.589,0.82 0,0.183 0.208,0.604 0.819,0.584 1.168,-0.04 1.942,-0.616 2.484,-1.002 2.689,-2.241 3.725,-6.147 5.08,-13.257 l 0.284,-1.724 c 0.462,-2.313 0.975,-4.891 1.757,-7.459 -1.897,-1.427 -3.033,-3.197 -5.582,-3.888 -1.748,-0.475 -2.814,-0.07 -3.563,0.875 -0.887,1.122 -0.592,2.582 0.266,3.439 l 1.415,1.564 c 1.736,2.008 2.686,3.568 2.329,5.669 -0.565,3.353 -4.562,5.924 -9.283,4.473 -4.031,-1.242 -4.785,-4.097 -4.301,-5.669 0.427,-1.384 1.526,-1.645 2.602,-1.314 1.151,0.354 1.602,1.753 1.272,2.83 -0.04,0.113 -0.1,0.306 -0.217,0.563 -0.133,0.297 -0.38,0.556 -0.488,0.903 -0.259,0.843 0.898,1.442 1.705,1.69 1.802,0.554 3.561,-0.389 4.008,-1.848 0.415,-1.342 -0.434,-2.277 -0.786,-2.637 l -1.706,-1.828 c -0.782,-0.871 -2.501,-3.296 -1.662,-6.021 0.322,-1.049 1.002,-2.165 1.991,-2.901 2.085,-1.554 4.352,-1.81 6.511,-1.19 2.794,0.806 4.137,2.653 5.878,4.08 0.973,-2.857 2.323,-5.655 4.354,-8.014 1.833,-2.152 4.297,-3.708 7.12,-3.805 2.82,-0.09 4.951,1.185 5.022,3.208 0.03,0.864 -0.468,2.539 -2.187,2.595 z"></path></svg>