<?xml version="1.0"?>

<svg xmlns="http://www.w3.org/2000/svg" viewBox="0 0 878.6 426.9" width="878.6" height="426.9"> <path d="m 688.1,383.6 0.2,-10.5 3.8,-0.3 c 3,-0.4 4.1,-0.9 5.5,-2.4 1.6,-1.9 1.6,-2.3 1.5,-10.4 l -0.2,-8.5 -8.1,-0.1 -8.1,-0.1 -0.2,-9.3 -0.2,-9.5 2,-2 c 2.3,-2.3 6.1,-9.8 11.1,-21.5 3.1,-7.1 3.4,-8.1 3.6,-15 0.2,-4.3 0,-8.2 -0.4,-9.3 -0.7,-1.9 -0.8,-1.9 -8.3,-2.1 l -7.6,-0.2 -0.2,-10.7 -0.2,-10.8 7,0 c 9.4,0 9.5,-0.1 9.9,-8.9 l 0.4,-6.9 12.7,0 12.6,0 0.2,7.1 c 0.2,8.3 0.6,8.8 6.3,8.5 l 3.4,-0.2 0,11 0,10.9 -3.9,0.2 c -2.1,0.1 -4.2,0.5 -4.7,1 -1,0.8 -1.3,10.8 -0.4,12.3 0.3,0.5 2.6,0.9 5.5,1 l 4.9,0.2 0.2,10.5 c 0.1,8 -0.1,10.7 -0.7,11.1 -0.5,0.3 -2.8,0.5 -5,0.5 -2.9,-0.1 -4.4,0.2 -4.8,0.9 -0.3,0.5 -0.6,15.3 -0.6,32.8 0,34.2 0,33.9 -3.7,37.2 -3.8,3.5 -5.3,3.8 -19.9,3.8 l -13.8,0 0.2,-10.3 z m 51.3,-0.7 0.7,-10.5 7,-0.3 c 5.6,-0.3 7.7,-0.8 9.1,-1.6 3.6,-1.9 7.8,-6.9 10.6,-11.4 2.8,-4 2.8,-4.2 1.4,-5.9 -2.8,-4.5 -7,-10.9 -12.7,-17.4 -2.8,-3.8 -5.6,-7.5 -5.6,-8 0,-1 2.8,-1.1 16.9,-1.3 l 16.2,-0.2 2.1,1.9 c 2.8,2.2 3.5,1.9 5.6,-1.8 3.5,-5.3 4.9,-4.9 -22.5,-5.1 l -24.6,-0.2 0,-11.3 0,-11.3 14,-0.3 14.8,-0.4 0,-6.6 c 0,-5.7 0,-6.9 -1.4,-7.6 -0.7,-0.7 -4.9,-0.9 -14.8,-0.9 l -14,0 0,-11.2 0,-11.3 14,0 c 7.8,0 14.8,-0.3 15.5,-0.6 0.7,-0.5 0.7,-2.3 0.7,-6.8 0,-3.7 0,-6.5 0.7,-7.1 1.4,-1.3 26.8,-1.4 28.2,-0.1 0.7,0.5 0.7,3.1 0.7,7 0,5.3 0,6.3 1.4,6.9 0.7,0.4 7,0.7 14.8,0.7 l 14,0 0,11.3 0,11.2 -14,0 c -9.9,0 -14.1,0.2 -14.8,0.9 -1.4,0.7 -1.4,1.9 -1.4,7.6 l 0.7,6.6 12.6,0.3 c 8.5,0 14.1,0.4 14.8,0.9 0.7,0.6 0.7,3.3 0.7,10.9 l 0,10 -4.9,7.3 c -2.8,4 -8.4,11.7 -12,17 -4.2,5.4 -7.7,10.2 -7.7,10.8 0,2 2.8,6.9 6.3,10.1 4.3,4.2 9.9,6.3 16.2,6.3 2.8,0 4.9,0.3 5.6,0.8 0.7,0.9 1.4,17.8 0,19.9 0,1 -2.1,1.1 -14.7,1.1 -14.1,0 -14.8,0 -19,-2 -2.8,-1.4 -5,-3.4 -8.5,-6.7 -2.1,-2.6 -4.2,-4.7 -4.9,-4.7 0,0 -1.4,1.6 -2.8,3.5 -1.4,2 -4.9,5 -7.1,6.7 l -4.2,3.2 -16.9,0 -16.8,0 0,-10.3 z m -498,9.1 c -0.7,-0.3 -0.9,-5.5 -0.9,-22.7 0,-12.8 -0.3,-23.3 -0.7,-24.2 l -0.7,-1.9 -27.3,-0.1 -27.3,-0.2 0,-7.8 0,-7.7 54,-0.4 54,-0.3 1.9,-1.9 2.1,-2 12,0 c 14,0 14,0 13.4,5.9 -0.7,6.9 -4.7,12.3 -10.2,13.8 -1.5,0.5 -11.2,0.7 -23.2,0.7 l -20.6,0 -0.7,1.9 c -0.4,0.9 -0.7,11.3 -0.7,24.2 0,19.7 -0.1,22.4 -1.1,22.8 -1.4,0.5 -22.7,0.5 -24,-0.1 z m -61.9,-1.1 c -0.2,-0.6 -0.2,-3.8 -0.1,-7.3 l 0.2,-6.2 6.7,-0.4 c 5.9,-0.3 7,-0.6 9.2,-2.2 l 2.5,-2 16.3,0 c 13,0 16.3,0.2 16.3,0.9 0,0.5 -2.6,3.9 -5.8,7.6 -4.2,4.8 -6.8,7.1 -9.6,8.6 l -3.9,1.9 -15.6,0 c -12.5,0 -15.9,-0.2 -16.2,-0.9 z m 108,-0.5 c -3,-1.6 -6,-5 -7.4,-8.3 -0.5,-1.3 -1.4,-5.6 -2,-9.5 -0.6,-4 -1.7,-10.6 -2.5,-14.8 -0.8,-4.2 -1.2,-7.9 -1,-8.2 0.3,-0.5 5.5,-0.7 12.7,-0.7 l 12.1,0 0.9,2.5 c 1.1,3.4 2.4,3.7 5.2,1.1 l 2.3,-2.3 7.7,0.2 c 9.1,0.3 9.2,0.4 5.8,7.7 -2.9,6.2 -5.7,8.8 -10.4,9.4 -1.9,0.3 -3.8,0.3 -4.2,0.1 -1.1,-0.7 -2.9,0.3 -2.9,1.7 0,0.7 0.8,2.2 1.7,3.3 1.7,1.9 1.8,1.9 11.5,2.3 l 9.7,0.4 0,8 0,8.1 -18.3,0.2 c -16.9,0.1 -18.5,0 -20.9,-1.2 z m 62.8,0.5 c -0.5,-0.7 -0.8,-11.1 -0.9,-34.4 l -0.2,-33.3 -2.8,-0.8 -2.8,-0.8 -0.3,-9.2 -0.2,-9.2 2.2,-1.1 c 2.9,-1.5 3.7,-3.3 6.6,-15.5 3,-12.7 3.7,-16.9 2.7,-17.5 -0.4,-0.2 -2.7,-0.7 -5,-0.9 l -4.3,-0.5 0,-10.7 0,-10.9 31,0 30.9,0 0.4,1.6 c 0.2,0.9 0.3,5.7 0.2,10.7 l -0.2,9.2 -12.1,0.3 c -7.3,0.2 -12.4,0.7 -12.9,1.2 -0.9,0.9 -4.4,15.7 -3.9,17 0.3,0.6 3.6,0.8 13.6,0.8 9.4,0 13.5,0.3 14.1,0.9 0.6,0.6 0.8,12 0.8,46.8 0,50.5 0.2,48.8 -4.3,52.6 -5.3,4.4 -5.8,4.6 -29.9,4.6 -17.5,0 -22.1,-0.2 -22.7,-0.9 z m 31,-22.1 c 1.2,-1.1 1.3,-3 1.3,-29.8 0,-32.1 0.3,-30.5 -5.1,-30.1 l -3,0.2 -0.2,29.5 c -0.1,21.2 0.1,29.8 0.6,30.4 1.2,1.3 4.9,1.2 6.4,-0.2 z m 31.1,22.1 c -0.1,-0.5 -0.2,-5 -0.1,-10.1 l 0.2,-9.1 3.5,-0.4 c 2.2,-0.2 3.7,-0.8 4.4,-1.7 1.6,-2.3 0.8,-3.5 -2.6,-3.8 l -3.2,-0.4 0,-45 0,-45.1 10.2,-0.3 10.2,-0.4 1.3,-2.6 c 0.7,-1.5 1.1,-2.9 0.8,-3.4 -0.2,-0.4 -4.7,-0.7 -11.5,-0.7 -7.7,0 -11.3,-0.2 -11.9,-0.8 -0.9,-0.9 -1.3,-17.7 -0.4,-19.9 0.4,-0.9 4.6,-1.1 40,-1.1 35.5,0 39.6,0.2 40.1,1.1 0.8,2.2 0.5,19 -0.5,19.9 -0.5,0.6 -4.5,0.8 -13,0.8 l -12.2,0 -1.4,2.4 c -2.8,4.7 -2.8,4.7 11.2,4.7 8.8,0 12.8,0.3 13.3,0.8 0.7,0.7 0.9,10.6 0.9,40.3 0,38.5 0,39.4 -1.5,42.4 -0.8,1.6 -2.4,3.7 -3.5,4.5 -4,2.8 -1.9,7.2 3.9,8.7 l 3.5,0.9 0.2,7.6 c 0.2,4.3 0,8.4 -0.2,9.3 l -0.4,1.7 -11.5,-0.3 c -11.2,-0.2 -11.4,-0.2 -14,-2.1 -3.2,-2.5 -7.9,-9.1 -11.9,-16.7 -1.6,-3.3 -3.5,-6 -4,-6 -0.5,0 -3.1,4.3 -5.7,9.5 -7.8,15.1 -9.3,16.1 -24.1,16.2 -7.3,0 -9.8,-0.2 -10.1,-0.9 z m 49.9,-46 c 1.5,-1.5 1.6,-4 0.1,-5.5 -0.8,-0.9 -2.8,-1.1 -9.7,-1.1 -5.7,0 -8.9,0.3 -9.4,0.9 -1.2,1.1 -1.1,5.9 0,6.4 0.5,0.2 4.7,0.4 9.2,0.4 6.9,0 8.7,-0.2 9.8,-1.1 z m 0.4,-21.5 c 1.1,-1.1 1,-5.1 -0.2,-6.1 -0.6,-0.6 -4,-0.8 -10.3,-0.7 l -9.4,0.2 -0.2,3.1 c -0.2,2 0,3.3 0.7,3.7 1.4,1 18.4,0.8 19.4,-0.2 z m 0.1,-22.4 c 1.2,-1.8 0.8,-4.8 -0.6,-5.6 -2,-1.1 -17.9,-0.9 -18.9,0.1 -1.3,1.3 -1.1,5.3 0.3,6.2 0.8,0.4 4.7,0.6 9.9,0.6 6.8,-0.2 8.8,-0.4 9.3,-1.3 z m 77.6,89.9 c -0.7,-0.6 -0.9,-11.8 -0.9,-46 0,-44 -0.1,-45.3 -1.3,-46 -0.8,-0.4 -5.9,-0.7 -11.7,-0.7 l -10.3,0 0.2,-10.7 0.3,-10.8 10.4,-0.2 c 6.6,-0.1 10.9,-0.5 11.5,-1 0.6,-0.4 0.9,-1.7 0.8,-2.9 l -0.2,-2.2 -8.8,-0.1 c -13.3,-0.3 -12.1,0.9 -11.9,-11.4 l 0.3,-10.3 19.5,-0.2 19.5,-0.2 2.8,-2.8 2.8,-2.8 11.5,0.1 11.4,0.3 0.2,9 c 0.2,8.7 0.1,9.3 -1.5,11.7 -2.1,3.3 -7.1,5.8 -12,6.1 -6.2,0.5 -6.7,0.7 -6.7,3 0,1.1 0.4,2.3 0.9,2.8 0.5,0.4 5.2,0.9 11.8,0.9 l 10.8,0.2 0,10.6 0,10.5 -10.9,0.4 c -6,0.2 -11.3,0.6 -11.8,0.9 -0.6,0.4 -0.8,10.4 -0.8,45.8 0,34.2 -0.3,45.4 -0.9,46 -1.2,1.2 -23.8,1.2 -25,0 z m 91.4,-0.7 c -0.6,-0.6 -0.8,-4.6 -0.8,-14.3 0,-10.1 -0.2,-13.7 -0.9,-14.2 -0.4,-0.2 -8.6,-0.7 -18.1,-0.9 l -17.2,-0.3 -0.3,-10.3 c -0.1,-8 0.1,-10.5 0.8,-11 0.6,-0.6 6.7,-1 18.2,-1 l 17.1,-0.2 0.3,-47.1 c 0,-33.9 0.3,-47.4 0.9,-48.1 0.6,-0.8 3.3,-0.9 12.5,-0.8 l 11.7,0.3 0.3,47.6 c 0.2,26.2 0.6,47.8 0.8,48.1 0.3,0.2 1.6,0.4 3,0.5 1.4,0.2 2.8,0.5 3.3,0.9 0.5,0.5 0.7,4.5 0.5,10.9 l -0.2,10.2 -2.7,0.4 c -1.4,0.2 -3,0.8 -3.5,1.3 -0.5,0.5 -1,5.2 -1.2,14.7 l -0.3,13.8 -11.6,0.2 c -8.5,0.2 -11.9,0 -12.6,-0.7 z M 513.9,385 c -0.2,-0.6 -0.4,-5 -0.4,-9.9 0,-7.9 0.1,-9.1 1.5,-11.4 1.7,-2.5 1.7,-3 2,-31 l 0.4,-28.5 8.4,0 8.4,0 0.3,36.5 c 0.1,35.7 0.1,36.5 -1.3,38.8 -0.9,1.3 -3,3.3 -4.7,4.5 -3,1.9 -3.8,2.2 -8.8,2.2 -4.2,0 -5.4,-0.3 -5.8,-1.2 z m 63.6,-1.1 c -4.6,-3.2 -5.1,-5.2 -6.1,-24.8 -0.5,-9.7 -0.9,-26 -0.7,-36.3 l 0.1,-18.6 8.6,-0.2 c 6.7,-0.2 8.7,0 8.7,0.7 0,0.5 0,4.2 0,8.3 -0.1,4.1 0.3,16.4 0.7,27.4 0.7,17.3 1,20.4 2.2,22.7 1.1,2.2 1.3,4.1 1.3,11.4 0,4.8 -0.2,9.2 -0.4,9.8 -0.4,0.9 -1.6,1.2 -6.3,1.2 -4.8,0 -6.1,-0.3 -8.1,-1.6 z M 179.3,366.2 c -0.5,-0.7 -0.7,-3.3 -0.6,-7.3 l 0.2,-6.2 7.8,-0.4 c 6.4,-0.3 8.3,-0.7 10.3,-1.9 2.4,-1.5 3.3,-1.5 19.1,-1.5 12.8,0 16.6,0.2 16.6,0.9 0,0.4 -2.9,3.8 -6.5,7.6 -9.2,9.5 -9.9,9.8 -30.3,9.8 -12.7,0 -15.9,-0.3 -16.6,-1 z M 609,332.7 c -3.4,-1.1 -6.6,-4.1 -8.5,-7.9 -2.5,-5.1 -7.4,-29.3 -6.4,-31.8 0.4,-1 2,-1.1 11.3,-1.1 12.2,0 11,-0.7 11.9,6.6 0.7,5.3 2.9,10 6,12.4 l 2.8,2.2 0,9.3 c 0,6.3 -0.3,9.6 -0.9,10.1 -1,1 -13.1,1.1 -16.2,0.2 z m -383,-14 c -0.4,-0.2 -1.1,-1.5 -1.4,-2.7 -0.2,-1.3 -0.4,-2.4 -0.5,-2.5 -0.1,0 -10.6,-0.3 -23.4,-0.5 l -23.2,-0.4 0,-7 0,-7.1 2.2,-0.2 c 1.2,-0.1 2.6,-0.6 3,-1.1 0.6,-0.6 0.8,-6.3 0.6,-17.7 l -0.2,-16.8 -2.2,-1 -2.3,-1.1 0,-6.8 c 0,-5.6 0.2,-6.9 1.1,-7.3 0.6,-0.2 17.2,-0.4 36.8,-0.4 26.8,0 35.9,0.2 36.5,0.9 0.6,0.5 0.8,3.1 0.8,6.9 0,6.1 -0.1,6.2 -2.1,7.7 l -2.1,1.5 0,27.3 c 0,20.3 -0.2,27.4 -0.8,28.1 -0.9,0.9 -21.4,1.2 -22.8,0.2 z m -1.8,-21.3 c 1.1,-1.2 1,-2.4 -0.3,-3.7 -1.4,-1.4 -13.6,-1.6 -14.9,-0.3 -1,0.9 -1.2,3.5 -0.4,4.3 0.8,0.9 14.6,0.6 15.6,-0.3 z m 0,-14.8 c 1.1,-1.2 1,-3.1 -0.3,-4.4 -1.4,-1.4 -13.6,-1.6 -14.9,-0.3 -1,0.9 -1.2,4.3 -0.4,5 0.8,0.9 14.6,0.6 15.6,-0.3 z m 0.4,-15.8 c 0.7,-1.7 0.5,-2.9 -0.7,-4.1 -1.4,-1.4 -13.6,-1.6 -14.9,-0.3 -1,1 -1.2,4.3 -0.4,5 0.2,0.3 3.9,0.5 8,0.5 6.2,0 7.6,-0.2 8,-1.1 z m 30.2,50.2 c -0.1,-0.5 -0.2,-4.9 -0.1,-9.7 l 0.2,-8.8 5.3,-0.2 c 2.9,0 6,-0.2 6.8,-0.5 2,-0.4 5.8,-3.7 5.8,-5 0,-0.5 -3,-4.7 -6.7,-9.4 -4.3,-5.3 -6.6,-8.8 -6.3,-9.5 0.2,-0.9 2.3,-1 12.6,-1 8.2,0 13,0.2 14.2,0.8 1.7,0.8 2.1,0.6 4.3,-1.8 1.4,-1.6 2.2,-3 1.9,-3.3 -0.4,-0.4 -8.1,-0.7 -17.1,-0.8 l -16.6,-0.2 -0.2,-10.1 c -0.1,-7.7 0.1,-10.3 0.7,-10.8 1.6,-0.9 63.5,-0.7 64.5,0.3 0.5,0.5 0.8,4.4 0.8,12.6 l 0,11.8 -9.6,10.6 c -5.3,6 -9.4,11.1 -9.2,11.8 0.1,0.6 1.1,1.7 2.1,2.6 1.7,1.2 3.3,1.5 9.9,1.8 l 7.9,0.3 0,9.5 0,9.5 -13.2,0.3 c -14.2,0.2 -15.1,0 -21.2,-4.3 l -2,-1.4 -1.8,1.5 c -4.8,3.9 -6.7,4.3 -20.1,4.3 -9.6,0 -12.6,-0.2 -12.9,-0.9 z m 353.3,-31.8 c -3,-1.2 -7.1,-6.2 -8.4,-10.2 -0.6,-1.7 -1.9,-8.5 -2.9,-15 -1.4,-9.3 -1.6,-12 -1,-12.9 0.7,-0.8 3,-1 10.3,-1 10.4,0 11.5,0.4 11.5,4.4 0,3.1 2.6,11.5 4,12.6 0.6,0.5 1.8,1.2 2.6,1.7 1.4,0.7 1.5,1.3 1.7,10.1 0.2,6.3 0,9.7 -0.6,10.3 -1.1,1.4 -14.2,1.4 -17.2,0 z M 104,200 c -7,-1.1 -15.7,-3.7 -22.4,-6.7 -5.8,-2.6 -17,-10.1 -21.2,-14.2 l -3.1,-3 10.8,-1.5 c 13.4,-1.9 18.1,-2.7 27.1,-4.9 34.2,-8.4 68.5,-27.1 75.7,-41.2 4.1,-8.2 0.8,-15.9 -8.6,-19.3 -5.6,-2.1 -18.5,-1.4 -30.1,1.8 -1.6,0.4 -2.9,1 -2.9,1.4 0,0.3 2.3,0.9 5.1,1.4 6.2,0.9 12.1,3.5 12.6,5.5 1.2,4.2 -4.3,9.2 -16.8,15.5 -23.3,11.8 -55.7,20.2 -82.8,21.4 l -5,0.2 -2.6,-6 c -9.6,-22.1 -9,-49.2 1.6,-70.5 9.9,-19.7 27.9,-35.6 48.1,-42.4 21,-7.1 43.8,-5.8 63.4,3.5 9.8,4.5 23.7,14.5 22.3,15.9 -0.2,0.3 -5.7,1.4 -12.1,2.4 -20.8,3.2 -34.2,6.5 -49.1,12 -17.3,6.4 -38.9,18.6 -46.9,26.7 -12,12 -9.4,25.5 5.6,29.6 5.1,1.4 25.2,2.3 25.9,1.1 0.3,-0.4 -1.4,-1.6 -3.9,-3 -6.4,-3.4 -9.7,-6.8 -9.7,-9.9 0,-8.6 25.4,-23 53.7,-30.5 15.4,-4 42.6,-7.9 50.8,-7.2 2.7,0.2 2.8,0.3 5.1,5.7 4.4,10.3 5.9,17.7 6.3,30.7 0.2,10 0.1,12.7 -1.2,19 -6.1,29.5 -27.4,53.7 -56,63.2 -11.4,3.8 -28.2,5.2 -39.7,3.3 z m 567.9,-18 c -9.5,-1.1 -15.2,-5 -18.8,-12.9 -4.5,-9.9 -3.3,-27.6 3.6,-48 6.9,-21 18.5,-37 31.5,-43.4 9.6,-4.8 12,-5.1 38.8,-4.8 13.1,0.1 24.3,0.3 24.3,0.4 0,0.3 -4.9,18 -4.9,18.5 -0.7,0.2 -10.4,0.4 -22.3,0.5 -23.4,0.1 -24.9,0.4 -31.3,4.3 -7.6,4.8 -15,19.8 -18.5,37.3 -3.2,16.9 -1.9,23.3 5.5,27 3,1.5 4.5,1.7 14.7,2 9.2,0.3 11.6,0.2 12.2,-0.6 1.1,-1.4 7.5,-23.8 7,-24.6 -0.3,-0.4 -5.4,-0.6 -11.7,-0.6 -8.9,0 -11.3,-0.3 -11.6,-1 -0.3,-0.8 0.8,-5.1 4.3,-17.6 0.4,-1.1 2,-1.2 21.9,-1.2 16.6,0 21.3,0.3 22,1 0,0.7 -16,59.4 -17.5,62.9 l -0.7,1.6 -21.6,-0.1 c -12,0 -24,-0.3 -26.9,-0.7 z m 97.7,-0.3 c -11.3,-2.5 -16.9,-8.6 -19,-21.4 -2.8,-16.1 4.2,-43.7 15.5,-61.2 4.2,-6 13.4,-15.9 18.3,-19.4 2.1,-1.4 6.3,-3.4 9.1,-4.4 4.3,-1.8 5,-1.9 25.4,-2.1 18.3,-0.3 21.1,-0.2 21.8,0.8 0,1 0,2.8 -3.5,13.9 l -1.5,4.7 -18.2,0.3 c -21.2,0.3 -22.6,0.7 -28.9,6.3 -2.8,2.6 -4.2,5.1 -6.3,9.3 -1.4,3.1 -2.8,6.5 -2.8,7.4 l 0,1.8 9.8,0.4 c 4.9,0.3 16.2,0.5 23.9,0.6 9.9,0.1 14.8,0.3 14.8,0.8 0,1.2 -4.2,16.4 -4.9,17.8 -0.7,1.2 -2.1,1.2 -24.6,0.7 -22.6,-0.5 -24.7,-0.4 -25.4,0.7 -1.4,2 -2.1,12.5 -0.7,16.3 2.8,6.6 6.4,7.8 27.5,8.5 8.4,0.3 15.4,0.8 15.4,1.1 0,0.7 -2.8,11.9 -4.2,15.9 l -0.7,2.3 -18.3,-0.1 c -12.6,0 -19,-0.3 -22.5,-1 z M 537.4,181 c 0,-0.7 15,-25.4 33.2,-54.9 l 33.3,-53.8 10.7,0 c 6.1,0 10.8,0.3 11.1,0.7 0.4,0.7 6,99.1 6,105.8 l 0,3.3 -10.9,0 -10.8,0 -0.4,-2.3 c -0.2,-1.2 -0.6,-6.7 -0.8,-12.1 -0.3,-5.5 -0.6,-10.1 -0.8,-10.4 -0.2,-0.3 -7.7,-0.5 -16.7,-0.5 -14.7,0 -16.5,0.1 -17.4,1.2 -0.7,0.7 -4.1,6 -7.6,11.8 -3.6,5.8 -7.1,11 -7.6,11.4 -0.8,0.6 -4.2,0.9 -11.2,0.9 -8.8,0 -10.1,-0.2 -10.1,-1.1 z m 71.3,-54.9 c -0.2,-15.2 -0.9,-24.9 -1.8,-24.9 -0.5,0 -3.2,3.9 -6.1,8.6 -2.9,4.7 -7.6,12.5 -10.5,17.3 -4.3,7 -5.1,8.8 -4.3,9.3 0.6,0.4 5.9,0.6 11.9,0.4 l 10.9,-0.1 -0.1,-10.6 z m -381.2,54.7 c -0.3,-0.4 0.2,-2.2 0.9,-4.1 l 1.2,-3.4 109.7,-0.4 109.8,-0.3 1.8,-5.3 1.7,-5.3 25.4,-0.3 c 28.3,-0.4 28.2,-0.4 33,-5.7 2.8,-3.2 4.9,-9.5 4.3,-13.2 -0.4,-2.9 -2.7,-5.5 -5.6,-6.4 -1.2,-0.3 -8.7,-0.8 -16.6,-1 -15.7,-0.3 -19.3,-1 -23.7,-4.3 -4.1,-3.2 -5.9,-7.9 -5.9,-15.9 0,-10.5 2.9,-19.3 9.5,-28.5 5.7,-8 12.3,-12.6 20.6,-14.3 2.4,-0.5 13.7,-0.8 31.1,-0.8 31.2,0 28.4,-0.7 26.4,6.4 -0.6,2.1 -1.7,5.9 -2.5,8.5 l -1.4,4.7 -25.8,0.2 c -28.7,0.3 -28.5,0.3 -32.1,5 -2,2.7 -4,8.1 -4,11.2 0,3.1 1.8,5.9 4.4,6.9 1.4,0.5 8.9,1.1 18.5,1.4 17.4,0.6 19.8,1.1 23.9,4.5 7,5.7 7.9,18 2.4,33 -5.3,14.6 -15.7,25.1 -27.3,27.3 -4.9,0.9 -279.1,1 -279.7,0.1 z"></path><path style="opacity:0.4" d="m 54.2,172.9 c -3.4,-3.7 -7.9,-9.8 -9.7,-13 -1.7,-3.1 -0.9,-3.8 4.3,-3.8 9.8,0 33.6,-4.1 47.7,-8.2 17.6,-5.1 37.9,-14.1 45.3,-20 3.8,-2.9 5.9,-6.4 5.2,-8.6 -0.5,-2 -6.4,-4.6 -12.6,-5.5 -2.8,-0.5 -5.1,-1.1 -5.1,-1.4 0,-1.5 15,-4.3 23.2,-4.3 10.3,-0.1 16.4,2.8 19.2,9.1 3.3,7.5 -1.7,16.1 -14.7,25.4 -22.8,16.3 -53.2,27.2 -88.8,32.1 -11,1.5 -10.9,1.5 -14,-1.8 z"></path><path style="opacity:0.8" d="m 455.6,127.5 c -7.1,-1.7 -11.3,-4.4 -15,-9.9 -8.5,-12.2 -4.3,-33.7 9.4,-48.9 4.4,-4.8 11.6,-8.7 18.1,-9.8 4.7,-0.7 377.5,-1 377.5,-0.2 0,1 -1.4,6.3 -2.1,7.1 -0.7,0.7 -37.3,0.9 -178.3,0.9 -193.4,0 -182.8,-0.2 -190.5,4 -7.4,4 -15.6,15 -19.3,25.9 -1.7,4.7 -2,6.8 -2.1,13 0,8.4 1.2,12 5.2,15.9 1.3,1.3 2.1,2.4 1.7,2.6 -0.3,0.2 -2.4,-0.1 -4.6,-0.6 z m -223.9,39.1 c -0.4,-0.6 3.1,-13.9 4.6,-17.4 l 0.7,-1.6 22.3,0 c 12.4,0 24.2,-0.3 26.3,-0.7 7.9,-1.5 13.4,-8.2 13.6,-16.3 0,-3.7 -0.2,-4.3 -2.3,-6.4 l -2.2,-2.3 -16.1,-0.5 c -18.9,-0.5 -22.1,-1.2 -26.5,-5.7 -7,-7.2 -6.8,-20.6 0.3,-35.3 5.7,-11.9 13.7,-19.2 23.6,-21.8 6.2,-1.6 60.2,-1.6 60.2,0 0,1.8 -4.3,16.8 -5.1,17.8 -0.6,0.6 -6.4,0.8 -24.8,0.9 -15.3,0 -24.9,0.2 -26.8,0.7 -6.7,1.9 -12.2,13 -9.4,19.1 1.5,3.3 2.9,3.6 19.3,4.1 19.7,0.7 23.7,1.5 27.8,6.1 3.8,4 4.5,6.3 4.5,14.3 -0.1,8.5 -1.7,15.5 -5.6,23.3 -6.2,12.4 -14.8,19.7 -25.3,21.6 -5.3,1 -58.5,1.1 -59.1,0.1 z m 188.9,0.9 c 0,-1 4.2,-15.8 4.9,-17.6 l 0.7,-1.6 23.6,0 c 15.6,0 24.8,-0.3 26.9,-0.8 3,-0.7 5.8,-3.1 10.2,-8.3 1.2,-1.3 2,-1.4 10,-1.4 9.3,0 11,0.2 11,1.8 0,1.9 -3.6,8.1 -6.4,11.2 -5.3,5.7 -4.8,5.5 -33.4,6 l -25.3,0.3 -1.8,5.3 -1.7,5.3 -9.4,0.2 c -5.1,0 -9.3,-0.1 -9.3,-0.4 z m -65.7,0 c -0.2,-0.4 2.6,-11.4 6.3,-24.4 l 6.6,-23.7 -7.6,-30.4 c -4.3,-16.7 -7.6,-30.6 -7.4,-30.9 0.5,-0.8 21.2,-0.7 21.7,0.1 0.2,0.4 2.2,9.7 4.3,20.6 2.1,10.9 4,20 4.2,20.1 0.6,0.7 2.4,-1.5 16.9,-20 8.4,-10.6 15.9,-19.7 16.8,-20.2 1.1,-0.7 4,-0.9 11.4,-0.6 5.6,0.2 10.1,0.5 10.1,0.8 0,0.3 -11.3,13.9 -25,30.2 -13.7,16.4 -25.4,30.4 -25.9,31.3 -0.5,0.8 -3.8,11.5 -7.2,23.7 -3.4,12.2 -6.4,22.6 -6.8,23.1 -0.8,1 -17.8,1.2 -18.4,0.3 z"></path></svg>