<?xml version="1.0" encoding="UTF-8" standalone="no"?>
<svg xmlns="http://www.w3.org/2000/svg" viewBox="0 0 439.6 105.2" height="105.2"  width="439.6">
<path d="m 423.8,47.45 0.4,0 c 0.5,0 0.9,-0.17 0.9,-0.63 0,-0.32 -0.3,-0.64 -0.9,-0.64 -0.2,0 -0.3,0 -0.4,0 l 0,1.24 z m 0,2.04 -0.6,0 0,-3.68 c 0.3,0 0.6,-0.1 1,-0.1 0.6,0 0.9,0.12 1.2,0.28 0.2,0.17 0.3,0.41 0.3,0.77 0,0.48 -0.3,0.77 -0.7,0.89 l 0,0 c 0.3,0.1 0.5,0.35 0.6,0.89 0.1,0.57 0.2,0.79 0.2,0.91 l -0.6,0 C 425.1,49.33 425,49 425,48.51 c -0.1,-0.47 -0.4,-0.64 -0.8,-0.64 l -0.4,0 0,1.58 z m 0.6,-4.7 c -1.5,0 -2.7,1.24 -2.7,2.78 0,1.57 1.2,2.8 2.7,2.8 1.5,0 2.6,-1.23 2.6,-2.78 0,-1.56 -1.1,-2.8 -2.6,-2.8 l 0,0 z m 0,-0.51 c 1.8,0 3.2,1.46 3.2,3.29 0,1.86 -1.4,3.31 -3.2,3.31 -1.8,0 -3.3,-1.45 -3.3,-3.31 0,-1.83 1.5,-3.29 3.3,-3.29 l 0,0 z m -296.6,-10.96 5.5,0 0,15.61 14.9,0 0,5.14 -14.9,0 0,16.93 -5.5,0 0,-16.93 -14.9,0 0,-5.14 14.9,0 0,-15.61 z m 230.8,32.4 c 1.1,0 2.8,-0.14 4.7,-0.6 l 0.2,-14.21 c -1.8,-1.23 -3.5,-1.8 -5.4,-1.8 -4.7,0 -7.7,3.13 -7.7,8.34 0,5.29 3,8.28 8.2,8.27 m 0.6,5.1 c -9.3,0 -14.6,-4.96 -14.6,-13.43 0,-8.18 5,-13.39 12.4,-13.39 2.5,0 4.6,0.55 6.5,1.75 l 0,-1.87 5.5,0 -0.1,25.2 c -2.4,1.01 -6.2,1.73 -9.7,1.74 m -176,-5.1 c 1.2,0 2.8,-0.14 4.8,-0.6 l 0,-14.21 c -1.8,-1.23 -3.5,-1.8 -5.4,-1.8 -4.6,0 -7.6,3.13 -7.6,8.34 0,5.29 3,8.35 8.2,8.27 m 0.5,5.1 c -9.2,0 -14.5,-4.96 -14.5,-13.43 0,-8.18 5,-13.39 12.4,-13.39 2.5,0 4.6,0.55 6.4,1.75 l 0,-1.87 5.6,0 -0.2,25.2 c -2.4,1.01 -6.1,1.73 -9.7,1.74 m 220.1,-4.17 c 3.4,0 5.8,-1.77 5.8,-5.76 l 0,-16.27 5.6,0 0,16.96 c 0,5.67 -4.4,9.14 -11.4,9.14 -7,0 -11.4,-3.47 -11.4,-9.14 l 0,-16.96 5.5,0 0,16.27 c 0,3.99 2.4,5.76 5.9,5.76 m -93.9,4.27 c -8.4,-0.83 -12.6,-6.78 -12.3,-13.84 0.2,-7.61 5.2,-13.02 12.7,-13.02 7.9,0 12.4,5.83 12,14.44 l -18.9,0 c 0.4,4.78 3.3,7.03 7.2,7.34 3.2,0.25 7.9,-0.5 10.3,-2.06 l 0,5.24 c -3.2,1.6 -6.7,2.31 -11,1.9 m -6.2,-16.47 12.6,0 c -0.1,-3.36 -1.9,-5.09 -5.1,-5.3 -3.3,-0.22 -6.4,1.86 -7.5,5.3 m -35.9,-28.19 5.5,0 0,49.32 -5.5,0 0,-49.32 z m -37.1,39.46 c 5.2,0 8.2,-2.98 8.2,-8.27 0,-5.21 -3,-8.34 -7.6,-8.34 -2,0 -4,0.7 -5.4,1.34 l 0,14.33 c 1.6,0.63 3.2,0.94 4.8,0.94 m -4.8,-20.39 c 2.6,-1.03 5,-1.33 6.4,-1.33 7.4,0 12.4,5.21 12.4,13.39 0,8.47 -5.3,13.43 -14.5,13.43 -3.2,0 -6.4,-0.61 -9.7,-1.74 l -0.2,-37.51 5.6,0 0,13.76 z m 174.7,47.85 5.1,0 0,-1.43 -3.2,0 0,-1.81 3,0 0,-1.4 -3,0 0,-1.56 3.1,0 0,-1.39 -5,0 0,7.59 z m -35.4,-4.54 -0.9,0 0,-1.76 0.9,0 c 0.7,0 1.1,0.32 1.1,0.88 0,0.6 -0.3,0.88 -1.1,0.88 m -2.8,4.48 1.9,0 0,-3.09 c 0,0 0.2,0 0.3,0 0.7,0 1,0.24 1.3,0.92 l 1,2.19 2.1,0 -1.2,-2.6 c -0.2,-0.5 -0.5,-0.82 -0.9,-0.96 0.9,-0.42 1.4,-1 1.4,-1.83 0,-1.52 -1,-2.2 -3.1,-2.2 l -2.8,0 0,7.59 z m -35.9,-2.74 1.1,-2.9 1.1,2.9 -2.2,0 z m -3.2,2.77 2,0 0.6,-1.47 3.3,0 0.5,1.47 2,0 -2.9,-7.59 -2.2,0 -3.3,7.59 z m -36.8,0 0.8,0 1.7,-4.75 1.7,4.75 0.8,0 3,-7.65 -1.9,0 -1.5,4.14 -1.4,-4.14 -1.4,0 -1.4,4.12 -1.5,-4.12 -2,0 3.1,7.65 z m -38.3,0 2,0 0,-6.17 2.5,0 0,-1.42 -7,0 0,1.42 2.5,0 0,6.17 z m -40.4,0 1.9,0 0,-3.12 2.8,0 0,-1.43 -2.8,0 0,-1.65 3,0 0,-1.39 -4.9,0 0,7.59 z m -40,-3.87 c 0,-1.37 1,-2.33 2.2,-2.33 1.3,0 2.2,0.96 2.2,2.33 0,1.38 -0.9,2.32 -2.2,2.32 -1.2,0 -2.2,-0.94 -2.2,-2.32 m -2,0 c 0,1.12 0.4,2.11 1.2,2.84 0.8,0.72 1.8,1.08 3,1.08 1.2,0 2.2,-0.36 2.9,-1.08 0.8,-0.73 1.2,-1.7 1.2,-2.84 0,-1.13 -0.4,-2.09 -1.2,-2.84 -0.7,-0.73 -1.7,-1.08 -2.9,-1.08 -1.2,0 -2.2,0.35 -3,1.08 -0.8,0.75 -1.2,1.71 -1.2,2.84 m -37.2,3.2 c 0.8,0.5 1.8,0.74 2.7,0.74 1.9,0 2.9,-0.88 2.9,-2.27 0,-0.84 -0.2,-1.48 -0.9,-1.89 -0.5,-0.35 -1.2,-0.56 -1.9,-0.82 -0.8,-0.25 -1,-0.53 -1,-0.84 0,-0.38 0.4,-0.61 1,-0.61 0.8,0 1.6,0.27 2.6,0.76 l 0,-1.56 c -1,-0.43 -1.8,-0.63 -2.6,-0.63 -1.8,0 -2.9,0.92 -2.9,2.19 0,1.39 0.9,2.01 2.8,2.69 0.7,0.23 1.1,0.38 1.1,0.83 0,0.44 -0.4,0.68 -1.2,0.68 -0.8,0 -1.6,-0.37 -2.6,-0.96 l 0,1.69 z M 27.73,50.36 l -6.67,0 0,-7.21 -2.39,0 0,7.21 -6.67,0 0,2.32 6.67,0 0,7.26 2.39,0 0,-7.27 6.67,0 0,-2.23 z m 23.46,-38.38 0,7.36 -6.66,0 0,2.22 6.66,0 0,7.35 2.4,0 0,-7.35 6.53,0 0,-2.22 -6.53,0 0,-7.36 -2.4,0 z m 33.59,56.91 -9.86,0 0,-10.75 -3.73,0 0,10.75 -10,0 0,3.28 10,0 0,10.76 3.73,0 0,-10.76 9.86,0 0,-3.28 z m 7.6,-18.8 -6.67,0 0,-7.49 -3.19,0 0,7.49 -6.8,0 0,2.9 6.8,0 0,7.5 3.19,0 0,-7.5 6.67,0 0,-2.9 z M 43.33,30.5 l -10,0 0,-10.79 -3.6,0 0,10.79 -10,0 0,3.18 10,0 0,10.8 3.6,0 0,-10.8 10,0 0,-3.18 z m 17.32,50.39 -6.66,0 0,-7.5 -3.2,0 0,7.5 -6.8,0 0,2.89 6.8,0 0,7.5 3.2,0 0,-7.5 6.66,0 0,-2.89 z m 24.13,-50.39 -9.86,0 0,-10.79 -3.73,0 0,10.79 -10,0 0,3.28 10,0 0,10.7 3.73,0 0,-10.7 9.86,0 0,-3.28 z m -41.45,38.39 -10,0 0,-10.75 -3.73,0 0,10.75 -9.87,0 0,3.28 9.87,0 0,10.76 3.73,0 0,-10.76 10,0 0,-3.28 z m 22.12,-19.6 -11.06,0 0,-12 -4.4,0 0,12 -10.93,0 0,4.27 10.93,0 0,12.01 4.4,0 0,-12.01 11.06,0 0,-4.27 z" />
</svg>