<?xml version="1.0"?>

<svg xmlns="http://www.w3.org/2000/svg" viewBox="0 0 426.4 177.5" height="177.5" width="426.4"> <path d="m 362.6,109.9 0.6,0 c 0.4,0 0.7,-0.1 0.7,-0.5 0,-0.3 -0.4,-0.4 -0.7,-0.4 l -0.6,0 0,0.9 z m -0.7,-1.4 1.3,0 c 0.9,0 1.4,0.2 1.4,1 0,0.6 -0.4,0.9 -0.9,0.9 l 0.9,1.5 -0.7,0 -0.9,-1.5 -0.4,0 0,1.5 -0.7,0 0,-3.4 z m 1.2,4.1 c 1.3,0 2.4,-1 2.4,-2.4 0,-1.4 -1.1,-2.4 -2.4,-2.4 -1.2,0 -2.3,1 -2.3,2.4 0,1.4 1.1,2.4 2.3,2.4 m 0,-5.5 c 1.7,0 3.2,1.2 3.2,3.1 0,1.9 -1.5,3.1 -3.2,3.1 -1.6,0 -3.1,-1.2 -3.1,-3.1 0,-1.9 1.5,-3.1 3.1,-3.1 M 291.2,86 l -20.9,0 0,9.5 9.9,0 c 0,1.9 0.3,3.8 -2,6.6 -0.8,0.9 -3.5,3 -7.3,3 -3.2,0 -5.5,-0.9 -7.5,-2.6 -4.4,-3.8 -5.5,-10.8 -5.5,-14.4 0,-4.6 1.9,-16.1 13.1,-16.5 0,0 7.6,-0.5 9.6,8.6 l 10.5,0 c -0.2,-4.6 -5.6,-17.6 -20.1,-17.6 -5,0 -11.3,1.5 -16.6,6.7 -3.8,3.8 -7.2,10.2 -7.2,19.3 0,9.7 3.6,16.1 6.9,19.6 5.8,6.1 11.6,6.6 14.6,6.6 2.4,0 7,-0.4 13,-4.4 l 1.6,2.8 7.9,0 0,-27.2 z m -107,-4.3 -4.1,12.5 8.5,0 -4.4,-12.5 z m -6.5,-17.2 12.5,0 17,48.7 -12.1,0 -3.5,-10.1 -14.4,0 -3.3,10.1 -12,0 15.8,-48.7 z m 154.2,9.8 13.9,0 0,38.8 11.5,0 0,-38.8 14.1,0 0,-9.8 -39.5,0 0,9.8 z m -36.7,-9.8 0,48.6 35,0 0,-10 -23.6,0 0,-10.8 20.2,0 0,-9.2 -20.2,0 0,-8.8 23.6,0 0,-9.8 -35,0 z m -65.2,9.8 -10.8,0 0,9.7 c 0,0 8.4,0 9.7,0 3.4,-0.1 6,-1.6 6,-4.9 0,-3.6 -2.2,-4.8 -4.9,-4.8 m -22,-9.8 22.8,0 c 13,0 14.8,8.9 14.8,14.1 0,7.5 -6.5,11.3 -7,11.4 0,0 5.6,2.1 5.6,8.6 l 0,9 c 0,3.7 2.3,4.7 2.7,5.5 l -9.3,0 c -4.4,-0.5 -4.4,-4 -4.3,-6 l 0,-7.8 c -0.1,-1.9 -0.7,-4 -4.7,-4.1 l -9.4,0 0,17.9 -11.2,0 0,-48.6 z m -74.5,0 38.5,0 0,9.7 -13.3,0 0,38.9 -11.7,0 0,-38.8 -13.5,0 0,-9.8 z m -44.7,35.7 c 6.4,0 11.7,-5.2 11.7,-11.7 0,-6.4 -5.3,-11.6 -11.7,-11.6 -6.4,0 -11.6,5.2 -11.6,11.6 0,6.5 5.2,11.7 11.6,11.7 m 0,11 c 12.4,0 22.4,-10 22.4,-22.4 0,-12.4 -10,-22.5 -22.4,-22.5 -12.4,0 -22.4,10.1 -22.4,22.5 0,12.4 10,22.4 22.4,22.4 M 55,88.8 C 55,70.1 70.2,55 88.8,55 c 18.7,0 33.8,15.1 33.8,33.8 0,18.6 -15.1,33.7 -33.8,33.7 C 70.2,122.5 55,107.4 55,88.8"></path> </svg>