<?xml version="1.0"?>

<!-- Generator: Adobe Illustrator 19.1.0, SVG Export Plug-In . SVG Version: 6.00 Build 0)  -->
<svg version="1.1" id="Layer_1" xmlns="http://www.w3.org/2000/svg" xmlns:xlink="http://www.w3.org/1999/xlink" x="0px" y="0px" width="600px" height="400px" viewBox="0 0 600 400" enable-background="new 0 0 600 400" xml:space="preserve">
<path fill="#010101" d="M129.885,186.487h-12.345v-6.62h32.727v6.62h-12.475v36.712h-7.908V186.487z"></path>
<path fill="#010101" d="M169.429,223.199l-0.513-3.47h-0.195c-1.928,2.445-5.207,4.182-9.258,4.182c-6.3,0-9.837-4.567-9.837-9.327
	c0-7.908,7.008-11.893,18.582-11.83v-0.511c0-2.06-0.837-5.467-6.365-5.467c-3.087,0-6.302,0.963-8.425,2.311l-1.543-5.141
	c2.315-1.415,6.365-2.763,11.317-2.763c10.03,0,12.922,6.363,12.922,13.178v11.319c0,2.83,0.13,5.593,0.45,7.518H169.429z
	 M168.402,207.899c-5.595-0.13-10.93,1.093-10.93,5.848c0,3.089,1.993,4.504,4.5,4.504c3.15,0,5.465-2.06,6.172-4.307
	c0.193-0.582,0.257-1.222,0.257-1.737V207.899z"></path>
<path fill="#010101" d="M185.441,201.984c0-4.245-0.063-7.267-0.255-10.097h6.878l0.257,5.982h0.257
	c1.543-4.437,5.207-6.685,8.552-6.685c0.77,0,1.22,0.063,1.865,0.193v7.46c-0.645-0.134-1.35-0.26-2.315-0.26
	c-3.795,0-6.365,2.445-7.072,5.978c-0.13,0.707-0.257,1.545-0.257,2.445v16.2h-7.91V201.984z"></path>
<path fill="#010101" d="M237.39,191.887c-0.128,2.127-0.257,4.697-0.257,9.004v17.745c0,6.555-1.35,11.252-4.628,14.208
	c-3.28,2.897-7.78,3.793-12.087,3.793c-3.987,0-8.23-0.833-10.932-2.503l1.737-5.982c1.993,1.16,5.335,2.382,9.13,2.382
	c5.143,0,9-2.704,9-9.452v-2.704h-0.128c-1.8,2.767-5.015,4.63-9.13,4.63c-7.78,0-13.31-6.43-13.31-15.3
	c0-10.285,6.687-16.522,14.21-16.522c4.757,0,7.587,2.311,9.065,4.885h0.13l0.32-4.182H237.39z M229.225,204.428
	c0-0.712-0.065-1.482-0.257-2.127c-0.835-2.888-3.085-5.074-6.43-5.074c-4.435,0-7.715,3.855-7.715,10.222
	c0,5.333,2.7,9.645,7.652,9.645c2.957,0,5.528-1.934,6.428-4.76c0.195-0.837,0.322-1.93,0.322-2.83V204.428z"></path>
<path fill="#010101" d="M252.18,209.761c0.193,5.66,4.63,8.104,9.645,8.104c3.665,0,6.302-0.515,8.68-1.415l1.155,5.467
	c-2.7,1.088-6.43,1.926-10.928,1.926c-10.16,0-16.139-6.237-16.139-15.815c0-8.682,5.272-16.845,15.302-16.845
	c10.158,0,13.502,8.355,13.502,15.237c0,1.478-0.13,2.637-0.255,3.34H252.18z M265.937,204.236c0.067-2.897-1.218-7.652-6.493-7.652
	c-4.885,0-6.943,4.437-7.265,7.652H265.937z"></path>
<path fill="#010101" d="M289.792,182.954v8.933h7.522v5.919h-7.522v13.822c0,3.793,1.03,5.785,4.052,5.785
	c1.352,0,2.378-0.193,3.085-0.385l0.13,6.045c-1.155,0.452-3.215,0.77-5.722,0.77c-2.893,0-5.337-0.963-6.813-2.57
	c-1.67-1.8-2.445-4.63-2.445-8.745v-14.722h-4.5v-5.919h4.5v-7.07L289.792,182.954z"></path>
<path fill="#010101" d="M318.659,214.584c2.574,1.482,6.43,2.767,10.482,2.767c5.078,0,7.908-2.382,7.908-5.915
	c0-3.282-2.185-5.207-7.715-7.2c-7.137-2.574-11.7-6.367-11.7-12.604c0-7.07,5.915-12.472,15.3-12.472
	c4.693,0,8.167,1.028,10.415,2.187l-1.926,6.363c-1.545-0.837-4.567-2.06-8.619-2.06c-5.015,0-7.2,2.704-7.2,5.208
	c0,3.349,2.507,4.889,8.297,7.141c7.522,2.83,11.185,6.622,11.185,12.86c0,6.941-5.27,12.985-16.46,12.985
	c-4.563,0-9.322-1.285-11.7-2.7L318.659,214.584z"></path>
<path fill="#010101" d="M383.02,207.258c0,11.503-8.1,16.652-16.075,16.652c-8.87,0-15.685-6.112-15.685-16.142
	c0-10.285,6.748-16.585,16.2-16.585C376.783,191.183,383.02,197.739,383.02,207.258z M359.423,207.576
	c0,6.045,2.96,10.608,7.782,10.608c4.5,0,7.648-4.437,7.648-10.733c0-4.889-2.185-10.482-7.585-10.482
	C361.675,196.969,359.423,202.369,359.423,207.576z"></path>
<path fill="#010101" d="M391.384,223.199v-25.393h-4.245v-5.919h4.245v-1.348c0-4.052,1.093-8.104,3.793-10.672
	c2.315-2.187,5.467-3.022,8.167-3.022c2.118,0,3.793,0.32,5.078,0.77l-0.578,6.11c-0.837-0.322-1.93-0.578-3.345-0.578
	c-3.922,0-5.27,3.278-5.27,7.133v1.607h6.878v5.919h-6.815v25.393H391.384z"></path>
<path fill="#010101" d="M421.859,182.954v8.933h7.522v5.919h-7.522v13.822c0,3.793,1.03,5.785,4.052,5.785
	c1.352,0,2.378-0.193,3.085-0.385l0.13,6.045c-1.155,0.452-3.215,0.77-5.722,0.77c-2.893,0-5.337-0.963-6.815-2.57
	c-1.67-1.8-2.445-4.63-2.445-8.745v-14.722h-4.5v-5.919h4.5v-7.07L421.859,182.954z"></path>
<path fill="#010101" d="M441.529,191.887l3.282,14.212c0.707,3.345,1.415,6.752,1.993,10.16h0.13c0.64-3.407,1.67-6.882,2.57-10.097
	l4.052-14.275h6.426l3.922,13.889c0.967,3.667,1.8,7.074,2.507,10.482h0.13c0.515-3.407,1.222-6.815,2.06-10.482l3.47-13.889h7.782
	l-9.837,31.312h-7.33l-3.73-12.726c-0.967-3.282-1.674-6.237-2.382-10.03h-0.126c-0.645,3.855-1.482,6.941-2.382,10.03
	l-3.985,12.726h-7.393l-9.26-31.312H441.529z"></path>
<path fill="#010101" d="M503.132,223.199l-0.515-3.47h-0.193c-1.93,2.445-5.207,4.182-9.26,4.182c-6.3,0-9.837-4.567-9.837-9.327
	c0-7.908,7.012-11.893,18.582-11.83v-0.511c0-2.06-0.833-5.467-6.363-5.467c-3.085,0-6.3,0.963-8.422,2.311l-1.545-5.141
	c2.315-1.415,6.367-2.763,11.315-2.763c10.03,0,12.927,6.363,12.927,13.178v11.319c0,2.83,0.126,5.593,0.448,7.518H503.132z
	 M502.102,207.899c-5.593-0.13-10.93,1.093-10.93,5.848c0,3.089,1.993,4.504,4.504,4.504c3.148,0,5.463-2.06,6.17-4.307
	c0.193-0.582,0.255-1.222,0.255-1.737V207.899z"></path>
<path fill="#010101" d="M519.143,201.984c0-4.245-0.067-7.267-0.26-10.097h6.882l0.255,5.982h0.26
	c1.54-4.437,5.207-6.685,8.548-6.685c0.774,0,1.222,0.063,1.867,0.193v7.46c-0.645-0.134-1.352-0.26-2.315-0.26
	c-3.793,0-6.367,2.445-7.075,5.978c-0.126,0.707-0.255,1.545-0.255,2.445v16.2h-7.907V201.984z"></path>
<path fill="#010101" d="M548.015,209.761c0.193,5.66,4.63,8.104,9.645,8.104c3.663,0,6.3-0.515,8.678-1.415l1.16,5.467
	c-2.7,1.088-6.43,1.926-10.93,1.926c-10.16,0-16.137-6.237-16.137-15.815c0-8.682,5.27-16.845,15.3-16.845
	c10.16,0,13.504,8.355,13.504,15.237c0,1.478-0.13,2.637-0.26,3.34H548.015z M561.775,204.236c0.063-2.897-1.222-7.652-6.493-7.652
	c-4.889,0-6.945,4.437-7.267,7.652H561.775z"></path>
<path fill="#010101" d="M73.347,123.072c11.235,12.713,13.453,29.108,4.954,36.62c-8.499,7.511-24.497,3.294-35.733-9.419
	c-11.235-12.713-13.453-29.108-4.954-36.62S62.112,110.359,73.347,123.072z"></path>
<path fill="#010101" d="M93.448,215.591c0,16.177-13.434,29.291-30.006,29.291s-30.006-13.114-30.006-29.291
	S46.87,186.3,63.442,186.3S93.448,199.414,93.448,215.591z"></path>
<path fill="#010101" d="M524.368,241.814c0.804,0.465,2.009,0.862,3.273,0.862c1.587,0,2.47-0.741,2.47-1.846
	c0-1.021-0.682-1.624-2.411-2.248c-2.227-0.804-3.654-1.988-3.654-3.935c0-2.21,1.85-3.897,4.781-3.897
	c1.465,0,2.549,0.322,3.253,0.682l-0.603,1.988c-0.481-0.26-1.423-0.64-2.688-0.64c-1.57,0-2.252,0.841-2.252,1.624
	c0,1.047,0.783,1.528,2.591,2.231c2.348,0.883,3.495,2.068,3.495,4.014c0,2.168-1.649,4.056-5.141,4.056
	c-1.427,0-2.914-0.402-3.654-0.846L524.368,241.814z"></path>
<path fill="#010101" d="M534.762,243.141c0-0.925,0.64-1.587,1.524-1.587c0.904,0,1.528,0.64,1.528,1.587
	c0,0.904-0.603,1.587-1.528,1.587C535.381,244.728,534.762,244.045,534.762,243.141z"></path>
<path fill="#010101" d="M540.208,231.152c0.921-0.159,2.307-0.28,3.734-0.28c1.947,0,3.274,0.322,4.178,1.084
	c0.741,0.624,1.164,1.566,1.164,2.713c0,1.746-1.185,2.93-2.449,3.391v0.063c0.963,0.36,1.545,1.302,1.884,2.608
	c0.423,1.687,0.787,3.253,1.067,3.776h-2.554c-0.197-0.402-0.519-1.507-0.9-3.194c-0.385-1.767-1.026-2.327-2.432-2.369h-1.243
	v5.563h-2.449V231.152z M542.657,237.138h1.465c1.666,0,2.713-0.887,2.713-2.231c0-1.486-1.047-2.168-2.654-2.168
	c-0.783,0-1.285,0.059-1.524,0.121V237.138z"></path>
<path fill="#010101" d="M551.544,243.141c0-0.925,0.641-1.587,1.524-1.587c0.904,0,1.528,0.64,1.528,1.587
	c0,0.904-0.603,1.587-1.528,1.587C552.163,244.728,551.544,244.045,551.544,243.141z"></path>
<path fill="#010101" d="M556.99,230.972h2.47v11.466h5.559v2.068h-8.029V230.972z"></path>
<path fill="#010101" d="M104.493,98.995c8.526,9.647,10.913,21.467,5.331,26.4c-5.582,4.933-17.019,1.111-25.545-8.536
	s-10.913-21.467-5.331-26.4C84.53,85.526,95.967,89.348,104.493,98.995z"></path>
<path fill="#010101" d="M146.413,116.009c5.221,8.029,5.519,17.096,0.666,20.251s-13.018-0.796-18.239-8.825
	s-5.519-17.096-0.666-20.251C133.027,104.028,141.192,107.98,146.413,116.009z"></path>
<path fill="#010101" d="M173.815,155.773c4.743,7.294,5.518,15.204,1.732,17.665s-10.701-1.456-15.444-8.75
	c-4.743-7.294-5.518-15.204-1.732-17.665S169.072,148.479,173.815,155.773z"></path>
<path fill="#010101" d="M143.639,269.173c0,16.177-9.796,29.291-21.881,29.291s-21.881-13.114-21.881-29.291
	c0-16.177,9.796-29.291,21.881-29.291S143.639,252.996,143.639,269.173z"></path>
<path fill="#010101" d="M180.309,253.694c2.921,12.938-0.445,24.72-7.517,26.316c-7.072,1.596-15.173-7.597-18.093-20.535
	s0.445-24.72,7.517-26.316C169.288,231.563,177.388,240.757,180.309,253.694z"></path>
</svg>
