<?xml version="1.0"?>
<!--?xml version="1.0" encoding="UTF-8" standalone="no"?-->
<svg xmlns:dc="http://purl.org/dc/elements/1.1/" xmlns:cc="http://creativecommons.org/ns#" xmlns:rdf="http://www.w3.org/1999/02/22-rdf-syntax-ns#" xmlns:svg="http://www.w3.org/2000/svg" xmlns="http://www.w3.org/2000/svg" id="svg4141" version="1.1" viewBox="0 0 353 153" height="153pt" width="353pt">
  <defs id="defs4175"></defs>
  <path d="m 231.8,59.51 c 9.4,1.99 17.4,8.5 22.3,16.58 5.1,-8.11 13.1,-14.22 22.3,-16.75 0.2,15.08 -0.1,30.17 0.2,45.26 -14.8,0.1 -29.7,0 -44.5,0.1 -0.7,-15.06 -0.1,-30.14 -0.3,-45.19 z m 67.7,0.17 c 7.1,-1.81 15.1,-1.42 21.5,2.32 5.4,3.11 9.7,8.36 11.3,14.49 1,6.27 0.7,13.23 -3.1,18.59 -9.6,14.52 -34.6,14.52 -43.7,-0.47 -3.4,-5.07 -3.6,-11.37 -2.8,-17.21 1.7,-8.47 8.5,-15.55 16.8,-17.72 z m -163.1,4.83 c 4.5,-3.29 10.1,-4.66 15.6,-4.68 7.9,0 15.7,0 23.6,0 -2.4,8.95 -7.9,16.88 -15.4,22.35 7.6,5.4 12.7,13.6 15.5,22.32 -8.3,0.3 -16.5,0.1 -24.7,0.2 -8.8,0.1 -18,-4.83 -21.5,-13.14 -4.2,-9.19 -1.5,-21.19 6.9,-27.06 z m 56.1,-4.74 c 8.9,-2.55 19.4,-1.03 26.3,5.39 8.3,7.18 9.8,20.51 4,29.64 -8.9,13.7 -31.6,15.1 -42,2.4 -7.6,-8.89 -6.7,-23.61 1.8,-31.66 2.8,-2.66 6.2,-4.72 9.9,-5.77 z M 22.93,60.19 c 3.94,-0.89 8.06,-0.11 12.08,-0.34 7.52,0 15.74,-0.43 22.4,3.69 8.34,5.1 12.16,16.19 9.15,25.42 -2.05,6.92 -7.82,12.44 -14.65,14.54 -3.81,1.5 -7.94,1.1 -11.93,1.2 -5.78,-0.1 -11.56,0.1 -17.33,-0.2 0.37,-14.77 -0.21,-29.56 0.28,-44.31 z m 66.4,-0.62 c 8.51,-2.21 18.27,-0.76 25.07,5.05 9.2,7.38 10.8,22.14 3.7,31.44 -9.4,12.44 -30.45,13.44 -40.69,1.61 -8.16,-8.96 -7.24,-24.43 1.76,-32.5 2.88,-2.63 6.39,-4.57 10.16,-5.6 z M 52.52,50.75 c 1.23,-3.27 2.21,-6.62 3.26,-9.95 0.93,0 2.8,-0.1 3.74,-0.12 1.25,3.26 2.17,6.64 3.4,9.91 -1.14,0.13 -2.27,0.25 -3.41,0.35 -0.52,-2.12 -0.97,-4.27 -1.8,-6.3 -0.65,2.01 -1.16,4.05 -1.57,6.11 -1.21,0 -2.42,0 -3.62,0 z M 42.5,40.77 c 3.29,0 6.58,0 9.88,0 0,0.84 0,2.52 0,3.36 -0.89,0 -2.68,0.12 -3.57,0.16 0.1,2.14 0.21,4.29 0.35,6.44 -0.86,0 -2.6,0.12 -3.47,0.16 0,-2.25 0,-4.49 0,-6.73 -0.8,0 -2.41,0 -3.21,0 0,-0.86 0,-2.57 0,-3.42 z M 32.27,50.9 c 1,-3.41 1.97,-6.84 3.2,-10.18 0.96,0 2.88,0 3.84,0.1 1.04,3.34 2.02,6.7 3.27,9.96 -1.19,0 -2.39,0.1 -3.58,0.1 -0.45,-2.11 -0.99,-4.2 -1.69,-6.24 -0.73,2.05 -1.23,4.18 -1.78,6.28 -0.82,0 -2.44,0 -3.26,0 z m -9.9,-6.59 c -0.5,-1.18 -0.61,-2.46 -0.1,-3.64 3.14,0.12 6.28,0.1 9.42,0.11 0,1.14 0,2.27 0,3.41 -0.78,0 -2.35,0 -3.13,0 0,2.2 0,4.41 0.1,6.61 -1.12,0 -2.24,0 -3.36,0 0,-2.22 0.1,-4.45 0.1,-6.67 -0.76,0 -2.27,0.13 -3.02,0.17 z" id="path4171"></path>
  <metadata id="metadata4191">
    <rdf:rdf>
      <cc:work rdf:about="">
        <dc:title></dc:title>
      </cc:work>
    </rdf:rdf>
  </metadata>
</svg>
