<?xml version="1.0"?>

<svg xmlns="http://www.w3.org/2000/svg" viewBox="0 0 832 288" width="832" height="288">
 
  <path d="m 546.8,14.36 c -6,0.49 -11.5,2.9 -17.2,4.69 -14.1,5.25 -27.9,12.09 -40.1,20.84 -30,20.87 -53.4,52.19 -62,87.91 -4.7,18.8 -5.8,38.5 -2.9,57.6 5.2,33.9 23.2,65.3 48.5,88.1 -0.6,-2.3 -1.1,-5 -2.9,-6.9 0.3,-2.3 -1.3,-4.2 -2.6,-6 -2.9,-3.5 -4.7,-7.6 -7.6,-11.1 -1.8,-4.5 -3.9,-8.6 -6.2,-12.9 -4.2,-7.6 -7.1,-15.7 -9.4,-24 -2.1,-5.3 -2.1,-11.1 -4.2,-16.3 -0.2,-5.8 -1.5,-11.6 -1.3,-17.5 0,-9.5 -0.8,-19.1 0.8,-28.5 1,-8.1 2.6,-16.2 5.2,-24 3.9,-15 11.5,-28.8 19.3,-42.06 17.7,-26.89 43,-48.52 72.2,-62.38 3.6,-1.94 8.3,-3.5 10.4,-7.5 z m -394.5,80.1 c -1.4,0 -2.9,0 -4.3,0.47 -4.6,10.87 -8.2,22.17 -12.7,33.07 -6,17.1 -12.8,34 -19,51 -1.2,3.3 -2.8,6.4 -3,9.7 12,0 23.9,0.3 35.8,0 0,-0.3 -0.3,-0.7 -0.4,-0.9 0.5,-1.1 1.1,-2.1 1.6,-3.1 6,-16.8 11.3,-33.7 17.6,-50.3 6.9,17.9 12.7,36.2 19.4,54.2 l -0.8,0 c 12,0.8 24.2,0.3 36.2,0.4 -1.3,-8.7 -5.6,-16.5 -8.3,-24.8 -8.7,-23.2 -17.3,-46.5 -26.1,-69.64 l -31.7,0 -4.3,0 z M 36.94,94.85 c -2.31,0 -4.63,0 -6.93,0.28 -0.29,8.77 0.29,17.47 -0.41,26.07 0.34,0.3 1.03,0.4 1.34,0.6 8.49,0.3 17,-0.3 25.5,0.3 0.39,18.6 0,37.2 0.26,55.8 -0.36,3.6 -0.26,7.1 0,10.8 12.48,0.3 24.99,0 37.48,0 l 0,-52.2 c 0,-4.8 -0.27,-9.7 0.36,-14.4 l 0,-0.6 0,0 0,0 0,0.6 c 8.66,0.3 17.46,-0.3 26.26,0 0.8,-9 0.5,-18.1 0.2,-27.15 l -0.7,0.26 0,0 c -1.7,-0.26 -3.3,-0.36 -4.9,-0.36 l -71.39,0 -6.94,0 z m 269.86,0 0,0 -87.2,0 c -1.6,0 -3.1,0 -4.6,0.28 l 0,0 c -0.4,8.87 -0.7,17.87 0,26.67 9,1 18.1,-1.1 27,0.6 0.2,0.4 0.4,1.2 0.5,1.6 l 0,64.6 37.8,0 c 0.4,-12.4 0.6,-24.9 0.3,-37.3 0.3,-9.8 0,-19.6 0,-29.4 8.5,-0.6 17.1,0.3 25.7,-0.3 l 0.2,-0.6 c 0.3,-0.4 1.1,-24.17 0,-26.31 z m 26.8,1.64 c -7.3,18.91 -14.3,38.11 -21.3,57.11 -4.2,11.7 -9.1,23.1 -13.1,34.8 1.9,0.9 4,0.5 6,0.6 9.7,-0.3 19.6,0 29.5,-0.3 5.7,-14.2 10.4,-28.8 15.4,-43.1 l 4.4,-11.5 2.1,5.2 c 3.1,9.9 6.7,19.8 10.1,29.8 2.6,6.1 3.9,12.7 7.1,18.8 0,0.2 0.2,0.6 0.2,0.9 l 35.2,0 c 0,-0.7 -0.2,-1.6 -0.5,-2.4 -4.7,-15.2 -11.2,-29.8 -16.4,-45 -4.7,-12.2 -9.1,-24.5 -13.8,-36.7 -2.4,-6.23 -3.2,-8.26 -8.9,-9.54 -12.2,-0.42 -19.3,0 -31.5,-0.26 -2.4,0.26 -3.7,0.96 -4.5,1.59 z m 195.2,-1.04 c -14.6,0 -31,1.14 -37,16.25 -2.1,5.1 -3.4,10.5 -4.7,15.7 -1.8,5.1 -0.7,10.7 1.6,15.3 2.1,3.9 6.3,6.2 10.2,7.6 8.3,2.7 17.4,1.2 26,1.6 4.2,0 9.9,-1.1 12.3,3.4 3.1,4.8 -0.8,10 -1.3,15.1 -2.4,1.8 -4.2,4.4 -7.1,5.6 -22.1,0.7 -44.5,0 -66.7,0.3 -1.3,0 -2.3,0.3 -3.4,0.9 -0.5,1.5 -1,3.1 -1.3,4.7 -0.8,2.4 -1.3,4.8 -1.5,7.3 28.4,0.2 56.8,0 85.2,0 13.5,-0.3 28.4,-5.7 32.8,-18.9 1.8,-5.5 3.9,-11 4.7,-16.8 3.7,-11.6 -4.2,-22.1 -15.1,-22.3 -10.7,-0.3 -21.4,0 -32.1,-0.3 -3.1,0 -6.2,-2.6 -6.5,-5.9 0.5,-3.9 1.6,-7.6 2.9,-11.3 0.8,-2.8 3.4,-4.1 5.5,-5.9 l 0.7,0 c 20.4,0 40.4,-0.3 60.5,0 4.7,3.3 0.8,9.1 0,13.4 -1.8,4.8 -3.4,9.8 -4.2,14.9 -1,2.3 -1.8,4.9 -2.6,7.4 -6.8,25 -14.8,49.7 -21.6,74.8 6.2,0.3 12.8,0 19,0 3.4,0 7.1,-0.8 9.9,-2.8 l 0.5,0.3 c 3.2,-2.4 5.5,-5.6 7.1,-9.1 4.1,-14.1 8.6,-28.1 12.5,-42.2 0.5,-2.8 2.9,-4.7 5.7,-4.3 4.5,7 8.9,14.1 13.6,21 2.6,4.5 6.2,9.4 11.7,10.3 l 32.1,0 c -0.3,-1.1 -0.8,-1.7 -1.9,-1.7 -0.8,-1.7 -1.5,-3.2 -2.8,-4.6 -7.3,-9.9 -14.6,-19.8 -21.7,-30 -1.5,-2.5 -1.8,-5.9 0.8,-7.6 5.7,-4.1 11.7,-7.1 17.5,-10.8 4.4,-3.1 9.6,-5.5 13.8,-9 2.6,-0.2 5.5,-2.2 7.5,0 2.1,3.4 2.7,7.4 4,11.2 4.4,12.7 8.3,25.5 12.5,38.1 1,2.9 2,6 1.3,9 -0.8,2.1 -2.6,3.8 -3.9,5.7 -6.6,6.9 -13.3,13.7 -19.6,21 3.7,0.8 7.6,0.3 11.2,0.4 5.7,-0.2 11.5,0.4 17,-0.5 6.2,-1.6 12.2,-4.9 15.9,-10.4 3.6,-3.3 6.5,-7.4 9.9,-11.1 13,-14.4 25.8,-29.4 38.8,-43.7 7.5,-8.8 15.1,-17.4 22.7,-25.8 0.2,-0.6 0.7,-1.9 1,-2.5 -9.4,-0.3 -18.8,0 -28.1,0 -4,-0.3 -7.6,1.7 -9.9,4.6 -6.6,8.4 -13.6,16.5 -20.1,25 -2.4,2.9 -4.7,6.2 -7.8,8.3 -1.1,-0.7 -2.4,-1.5 -2.6,-2.9 -1.9,-7.2 -3.9,-14.4 -5.8,-21.7 -1,-4 -1.5,-8.3 -4.4,-11.7 -0.8,-0.4 -1.6,-1 -2.6,-1 -1.8,-0.5 -3.4,-0.7 -5.2,-0.7 l -56.3,0 c -7.6,4.2 -14.3,9.4 -21.4,13.9 -3.9,2.7 -8.3,5 -11.7,8.3 -1,-0.3 -2.1,-0.4 -3.1,-0.7 0,-0.4 -0.3,-1.6 -0.6,-2.1 4,-13.1 7.6,-26.2 11.8,-39.33 0,-1.22 1.3,-3.83 -1.1,-3.38 -34.9,-0.4 -69.8,-0.27 -104.5,-0.4 z m -9.9,2.21 0.8,0 c 0,0 18.8,-0.52 -0.8,0 z m -481.41,0 3.69,0 c -2.46,0 -4.93,0 -7.37,0.44 l 0,0 c -1.98,6.6 -1.23,13.5 0.23,20.1 l 0,0 c -1.46,-6.5 -2.21,-13.5 -0.23,-20.1 1.22,-0.26 2.45,-0.39 3.68,-0.44 z m 8.32,0.26 2.77,0 68.62,0 0,0 c 1,7.38 -0.7,14.98 0.8,22.28 0.5,0.3 1.3,0.8 1.8,1 -0.5,-0.2 -1.4,-0.7 -1.8,-1 -1.5,-7.3 0.2,-14.9 -0.8,-22.23 -22.89,0 -45.78,-0.26 -68.65,0 l -2.77,0 z m 585.99,0.91 0,0 c -1.9,4.77 -3.4,9.57 -4.7,14.47 1.3,-4.9 2.8,-9.7 4.7,-14.47 z M 56.47,119.1 c 0.62,0.3 1.19,0.6 1.69,1.1 l 0,0 0,0 c 0.57,1 0.94,2.1 1.17,3.2 -0.26,-1.1 -0.6,-2.2 -1.17,-3.2 -1.02,15.4 0,30.9 -0.34,46.3 -0.26,3.6 0,7.1 0.26,10.6 0,3.6 0.26,7.1 -0.26,10.7 l 0,0 c 0.44,-3.6 0.39,-7.1 0.29,-10.6 -0.26,-3.6 -0.34,-7.1 -0.26,-10.7 0.34,-15.4 -0.68,-30.9 0.34,-46.3 -0.5,-0.5 -1.07,-0.9 -1.7,-1.1 z m 3.28,10.4 0,1.3 c -0.37,18.4 0.29,36.7 0,55 l 0,0 c 0.29,-18.3 -0.34,-36.6 0,-55 z m 570.45,25.9 c 5.7,1.2 11.7,2.2 17.5,3.2 -5.8,-1 -11.8,-2 -17.5,-3.2 z"></path>
</svg>
