<?xml version="1.0"?>
<!--?xml version="1.0" encoding="UTF-8" standalone="no"?-->
<svg xmlns="http://www.w3.org/2000/svg" viewBox="0 0 1146 604.04" height="183.16" width="343.81">

  <path d="m 589.31,70.835 c -11,0.234 -21.97,0.03 -32.93,0.1 -23.57,1.9 -47.03,7.14 -68.57,17.03 v 0 c -15.73,7.169 -30.59,16.685 -42.53,29.295 -6.43,6.43 -12.03,13.74 -15.96,21.97 41.39,-9.52 83.59,-16 126.06,-17.44 4.7,-0.55 10.5,2.33 11.1,7.4 0,48.1 -0.34,96.21 -0.34,144.32 4.77,-0.1 9.5,0 14.24,-0.2 0,-47.72 0,-95.43 0,-143.15 0,-5.42 5.9,-8.73 10.76,-8.4 42.4,1.25 84.47,8.03 125.83,17.07 -6.37,-12.96 -16.73,-23.52 -27.76,-32.61 -28.5,-22.075 -64.4,-32.665 -100,-35.375 z m 24.7,70.015 c -1.73,0 -3.5,0.23 -5.13,0.93 -4.04,1.48 -7.9,4.84 -8.1,9.4 -1.17,13.21 2.93,26.05 5.23,38.9 5.37,26.14 10.9,52.25 16.03,78.43 6.57,-2.06 13.33,-3.57 19.83,-5.9 15.3,-5.09 29.84,-12.45 43.07,-21.68 13.43,-9.8 25.36,-22.14 32.93,-37.07 7.47,-14.6 9.83,-31.91 5.8,-47.87 -0.33,-1.65 -2.27,-1.5 -3.43,-1.9 -33.4,-5.99 -67.03,-10.96 -100.93,-12.99 -1.73,-0.1 -3.53,-0.26 -5.3,-0.26 z m -81.66,0 c -36.67,1.99 -73.14,7.08 -109.17,14.13 -4.13,15.52 -2.23,32.4 4.67,46.86 6.2,13.45 16.27,24.78 27.57,34.21 20.13,16.36 44.66,26.55 69.79,32.27 6.37,-31.03 12.74,-62.04 19.13,-93.06 1.67,-8.48 3.34,-17.26 1.84,-25.89 -1.6,-5.79 -8.17,-8.89 -13.83,-8.52 z M 419.68,325.42 c -16.3,0 -32.56,0 -48.86,0.23 v 0 c 0,9.78 0,19.55 0,29.31 9.53,-0.33 19.06,0.33 28.56,-0.33 0,23.96 0.34,47.96 -0.33,71.93 h 40.97 c 0,-23.9 0,-47.8 0,-71.7 9.46,0 18.89,0 28.33,0 0.33,-9.83 0,-19.63 0,-29.43 -16.3,0 -32.57,0 -48.87,-0.1 z m 296.09,0 c -7.1,0 -14.23,0 -21.33,0 v 0 c -13.1,33.72 -25.87,67.55 -38.93,101.28 13.3,-0.46 26.63,0 39.93,-0.33 6.97,-19.63 13.23,-39.5 20.36,-59.07 6.97,19.67 13.5,39.54 20.34,59.27 13.2,-0.33 26.4,0 39.56,0 C 763.1,392.8 750.1,359.2 737.14,325.6 730,325.5 722.9,325.46 715.77,325.46 Z m -185.59,0 c -9.63,-0.1 -19.27,0.13 -28.93,0 -1.8,0.1 -4.6,-0.64 -5,1.88 -12.7,33.09 -25.34,66.25 -38,99.35 13.23,-0.43 26.5,0 39.76,-0.33 6.97,-19.8 13.67,-39.7 20.3,-59.6 6.87,19.93 13.64,39.87 20.4,59.87 13.2,-0.37 26.43,0 39.67,-0.34 -12.67,-33.7 -25.67,-67.23 -38.53,-100.84 -3.24,-0.1 -6.44,-0.17 -9.67,-0.17 z m 38.16,0 v 0 0 c 0,0 0,0 0,0 z m 0,0 c 0,9.81 0,19.61 -0.33,29.44 h 28.7 c 0,23.83 0,47.66 0,71.53 13.63,0.33 27.23,0 40.86,0.33 -0.33,-23.93 0,-47.86 0,-71.76 9.5,0 19.04,0 28.54,-0.34 -0.34,-9.76 0,-19.49 -0.34,-29.23 z M 363.85,483.41 c -2.03,0 -4.06,0.34 -6.03,0.64 -4.97,1.13 -9.57,3.96 -12.6,8.1 -6.47,8.66 -7.07,20.93 -2.37,30.53 2.97,6 8.97,10.1 15.44,11.43 5,1.37 10.26,0 14.93,-1.97 7.33,-3.26 11.73,-11.03 12.7,-18.79 1,-7.9 -0.34,-16.67 -5.84,-22.74 -4.06,-4.63 -10.13,-7.06 -16.23,-7.2 z m 435.88,0 c -2.56,0 -5.13,0.47 -7.56,1.37 -6.1,2.1 -10.67,8.77 -9.3,15.3 0.87,4.83 4.93,8.3 9.16,10.3 3.57,1.83 7.74,2.67 10.8,5.36 2.9,2.6 2.07,8.2 -1.63,9.64 -5.7,2.1 -11.93,0.5 -17.2,-2.04 -0.76,2.6 -1.53,5.17 -2.26,7.77 6.3,3.47 13.66,2.87 20.56,2.3 8.73,-1.43 14.67,-11.73 10.6,-19.9 -3.47,-7.36 -12.4,-8.26 -18.57,-12.3 -3.29,-2.2 -2.5,-7.53 1.04,-9.03 4.76,-1.87 10.16,-0.67 14.63,1.6 0.7,-2.67 1.5,-5.3 2.3,-7.97 -3.97,-1.56 -8.3,-2.5 -12.57,-2.4 z m 260.77,0 c -3.7,0 -7.4,0.47 -10.8,2.04 -6.7,3.2 -10.4,12.13 -6.2,18.66 3.9,6.14 11.5,7.3 17.4,10.74 3.8,2.23 3.6,8.56 -0.4,10.46 -5.8,2.23 -12.1,0.4 -17.6,-1.8 -0.6,2.5 -1.3,5.03 -1.9,7.57 3.2,1.63 6.6,2.83 10.3,2.66 4.9,0 10.2,0.67 14.6,-1.96 3.7,-2.2 7,-6.04 6.8,-10.57 0,-3.47 0.4,-7.46 -2.2,-10.13 -4.4,-5.4 -11.7,-6.27 -17.1,-10 -3.2,-2.07 -2.4,-7.4 1,-8.87 4.8,-1.83 10.3,-0.73 14.8,1.57 0.6,-2.67 1.4,-5.3 2.1,-7.97 -3.4,-1.36 -7.1,-2.26 -10.8,-2.4 z m -600.52,0 c -3.66,-0.33 -7.3,0.37 -10.7,1.84 -6.66,2.9 -10.46,11.33 -7,18.03 3.47,6.37 11.04,8.03 17.03,11.03 4.17,1.7 5.04,8.5 0.84,10.67 -5.77,2.76 -12.4,0.8 -17.97,-1.57 -0.66,2.53 -1.33,5.07 -1.96,7.63 3.13,1.54 6.5,2.87 10.06,2.7 5.37,-0.33 11.37,0.74 15.97,-2.66 6.73,-4.24 8.5,-14.84 2.9,-20.7 -4.4,-4.9 -11.43,-5.67 -16.6,-9.43 -3,-2.07 -2.4,-7.27 0.9,-8.67 4.87,-1.97 10.4,-0.93 14.93,1.43 0.7,-2.66 1.47,-5.3 2.23,-7.93 -3.36,-1.33 -7,-2.2 -10.63,-2.37 z m -132.97,0 c -5.99,-0.33 -12.01,1.07 -17.04,4.44 -10.23,6.66 -13.1,20.86 -8.97,31.86 2.87,7.93 10.85,13.83 19.34,13.97 5.75,0 11.69,0.5 17.18,-1.57 -0.53,-2.57 -1.13,-5.1 -2,-7.57 -7.41,2.67 -17.38,2.87 -22.79,-3.76 -5.45,-7.77 -5.06,-20.37 2.8,-26.4 5.82,-4.33 13.65,-3.33 20.16,-1.4 0.86,-2.43 1.56,-4.97 1.86,-7.57 -3.36,-1.13 -6.94,-1.83 -10.54,-2 z m 383.03,0 c -6,-0.33 -12,0.97 -17.03,4.37 -10.67,6.87 -13.44,21.97 -8.5,33.13 3.26,7.7 11.43,13.03 19.8,12.77 5.39,0 10.96,0.33 16.16,-1.54 -0.57,-2.53 -1.17,-5.06 -1.73,-7.6 -5.54,1.74 -11.73,2.5 -17.27,0.44 -5.26,-1.97 -8.53,-7.37 -9.16,-12.77 -0.8,-6.43 0.6,-13.96 6.23,-17.9 5.83,-4.33 13.7,-3.26 20.23,-1.36 0.7,-2.54 1.37,-5.04 1.8,-7.6 -3.37,-1.1 -6.93,-1.8 -10.53,-1.94 z m 277.49,0 c -6.5,0 -12.97,1.57 -18.1,5.84 -8.4,6.83 -10.5,19.03 -7.54,29.03 2.6,8.4 10.57,15.2 19.5,15.36 5.8,0 11.9,0.7 17.4,-1.66 -0.5,-2.47 -1,-4.97 -1.53,-7.44 -7.8,2.6 -18.53,2.97 -23.7,-4.63 -4.97,-8.03 -4.2,-20.86 4.37,-26.16 5.83,-3.57 13.13,-2.74 19.3,-0.6 0.7,-2.64 1.33,-5.3 1.83,-7.97 -3.67,-1.07 -7.6,-1.73 -11.53,-1.77 z m -742.41,0.34 c -3.58,0 -7.16,0 -10.74,0 -6.36,16.63 -12.85,33.19 -19.01,49.93 h 19.97 c 3.26,-9.57 6.46,-19.13 9.67,-28.67 3.46,9.5 6.62,19.13 9.91,28.7 h 19.92 c -6.11,-16.7 -12.63,-33.2 -18.99,-49.8 -3.58,-0.33 -7.15,-0.33 -10.73,-0.33 z m -171.62,0 c 0,4.33 -0.03,8.66 -0.2,13 v 1.93 c 4.78,0 9.56,0 14.33,-0.33 -0.233,11.96 0.07,23.89 -0.2,35.86 6.88,0 13.78,-0.33 20.66,0.33 v -35.96 c 4.73,0 9.45,0 14.18,-0.33 0,-4.9 0,-9.8 0.1,-14.7 H 73.534 Z m 62.9,0 c -6.76,16.73 -13.06,33.66 -19.51,50.49 6.67,0 13.36,0.47 20.02,0 3.5,-9.86 6.91,-19.76 10.05,-29.76 2.96,10.23 6.79,20.16 10.06,30.3 6.6,-0.54 13.22,-0.34 19.84,-0.34 -6.23,-16.9 -12.65,-33.73 -19.31,-50.46 -7.05,-0.33 -14.1,0 -21.15,0 z m 59.58,0 c -8.15,0 -16.31,0 -24.46,0 v 0 c 0.1,4.96 0.1,9.93 0,14.9 4.8,0 9.6,0 14.4,-0.34 -0.17,11.74 -0.1,23.43 0,35.17 h 20.32 c 0.2,-11.67 0.1,-23.37 0.1,-35.03 4.72,0 9.46,0 14.19,-0.34 -0.2,-4.9 -0.1,-9.83 -0.1,-14.73 -8.15,0 -16.31,0 -24.46,0 z m 676.69,0 c -4.6,0 -9.24,0.33 -13.77,1.1 -0.33,16.2 0.37,32.43 -0.33,48.66 3.26,0 6.53,-0.33 9.76,-0.33 -0.33,-6.7 0,-13.4 -0.33,-20.1 3.87,0.33 9.33,-0.57 11.3,3.8 2.3,5.23 2.8,11.06 4.9,16.4 h 9.83 c -2.37,-5.5 -2.93,-11.54 -5.07,-17.1 -1,-2.77 -3.06,-5 -5.66,-6.3 6.86,-2.27 10.7,-10.47 8,-17.17 -1.97,-5.86 -8.44,-8.6 -14.17,-8.9 -1.53,0 -3.1,0 -4.63,0 z m -113.83,0.33 c -1.74,0 -3.44,0 -5.14,0.33 -3.63,7.04 -6.66,14.37 -10.2,21.44 -3.26,-7.2 -6.33,-14.54 -10.13,-21.5 -3.4,0 -6.8,0 -10.2,0 4.6,9.6 10.23,18.63 14.87,28.2 0.76,6.96 0.43,14.09 0,21.09 3.23,0 6.53,0 9.8,0 0,-5.5 0,-10.96 0,-16.43 0,-2.13 0,-4.43 1.06,-6.33 4.84,-8.93 10.34,-17.5 14.97,-26.57 -1.73,0 -3.43,0 -5.17,0 z m -35.67,0 c 0,0 0,0 0,0 v 0 c 0,0 0,0 0,0 z m -115.46,0 c -1.97,0 -3.97,0 -5.93,0.37 -5.47,16.33 -10.4,32.83 -16,49.09 3.33,0 6.7,0 10.06,-0.33 1.3,-4.57 2.67,-9.13 4.07,-13.7 5.03,0 10.1,0 15.17,0 1.4,4.63 2.86,9.27 4.3,13.93 h 10.13 c -5.17,-16.43 -10.67,-32.73 -15.87,-49.13 -1.96,0 -3.96,-0.33 -5.93,-0.33 z m 214.09,0 v 0 c 0,0 0,0 0,0 0,0 0,0 0,0 z m 0,0 c -0.33,16.43 0,32.86 -0.33,49.26 10.1,-0.33 20.16,0.34 30.23,-0.33 0,-2.57 0,-5.13 -0.33,-7.7 -6.8,0 -13.57,0 -20.37,0 0,-4.57 0,-9.1 0,-13.66 6.17,0 12.33,-0.34 18.5,0.33 0,-2.7 0,-5.37 0,-8.07 h -18.37 c 0,-4 0,-8 0,-11.96 6.57,0 13.14,-0.34 19.67,0.33 0,-2.7 -0.33,-5.4 -0.4,-8.07 -9.47,0 -18.97,0 -28.47,0 z m -250.76,0 c -6.26,0 -12.5,0 -18.73,0.33 0,2.64 0,5.27 0,7.9 4.67,0 9.3,0 13.97,0 -0.34,13.8 0.33,27.63 -0.34,41.43 3.24,0 6.44,0 9.67,-0.33 0,-13.73 0,-27.46 0,-41.16 4.73,0 9.47,0 14.2,0 v -8.14 c -6.27,0 -12.53,0 -18.77,0 z m 69.93,0 c -1.73,0 -3.46,0 -5.16,0 v 0 49.2 c 2.9,0 5.83,0 8.76,0 0,-12.54 0,-25.07 -0.46,-37.57 6.23,13 14.13,25.07 21.3,37.57 3.23,0 6.43,0 9.66,-0.34 0,-16.36 0.34,-32.73 -0.33,-49.06 h -8.5 c 0,12.13 -0.43,24.33 0.67,36.46 -5.77,-12.73 -13.37,-24.53 -20.8,-36.29 -1.7,-0.34 -3.44,-0.34 -5.2,-0.34 z m 293.39,0 c -1.6,0 -3.23,0 -4.83,0 -4.37,12.93 -8.77,25.9 -12.07,39.16 -3.3,-13.19 -7.63,-26.13 -11.36,-39.19 -3.44,0 -6.87,0 -10.3,0 v 0 c 5.13,16.5 11,32.73 15.63,49.36 3.7,0 7.37,0 11.07,0 5.4,-16.47 11.4,-32.7 16.73,-49.16 -1.63,0 -3.23,0 -4.87,0 z m -454.31,0 v 0 0 c 0,0 0,0 0,0 z m 0,0 c 0,9.93 -0.34,19.9 0,29.87 0,6.23 2,13.06 7.3,16.89 7,4.74 16.76,4.54 23.73,0 5.47,-4.06 7.53,-11.2 7.63,-17.76 0,-9.63 0,-19.27 0,-28.93 -3.13,0 -6.26,0 -9.4,0 0,9.3 0,18.6 0,27.9 0,4.06 -0.33,8.53 -3.1,11.73 -3,3.06 -8.13,3.46 -11.8,1.43 -3.4,-2.13 -4.53,-6.4 -4.76,-10.17 -0.4,-10.33 0,-20.63 -0.34,-30.93 z m 540.05,0 c -4.8,0 -9.6,0 -14.4,0.33 0,16.4 0,32.8 0,49.17 10,-0.34 20.1,0 30.2,-0.34 0,-2.6 -0.3,-5.16 -0.3,-7.73 -6.8,0 -13.6,0 -20.4,0 0,-4.57 0,-9.1 0,-13.7 6.1,0 12.3,-0.33 18.5,0.34 v -8.04 h -18.4 c 0,-4.03 0,-8.03 0,-12.03 6.6,0 13.1,-0.33 19.7,0.33 0,-2.7 -0.4,-5.4 -0.4,-8.06 -4.8,0 -9.6,0 -14.4,0 z m -621.45,0 c -1.77,0 -3.53,0 -5.3,0 v 0 c 0,16.43 0,32.83 0,49.23 h 8.7 c 0,-12.87 0.37,-25.8 -0.5,-38.66 5.6,13.66 14.33,25.73 21.37,38.66 3.3,0 6.56,0 9.83,0 -0.33,-16.4 0.33,-32.8 -0.33,-49.2 h -8.54 c 0,11.97 -0.33,23.94 0.54,35.9 -5.77,-12.53 -13.5,-24 -20.44,-35.86 -1.8,0 -3.56,0 -5.33,0 z m 134.33,0 c -1.57,0 -3.13,0 -4.7,0 v 0 c 0,16.4 0,32.8 0,49.23 9.9,-0.33 19.76,0 29.63,-0.33 0,-2.57 0,-5.17 0,-7.77 h -19.93 c 0,-13.76 0,-27.53 0,-41.3 -1.57,0 -3.17,0 -4.73,0 z m 420.52,0 c -3.17,0 -6.3,0 -9.44,0 v 0 49.26 h 9.37 c 0.33,-16.46 0,-32.89 0,-49.36 z m -79.7,6.87 c 1.86,0 3.73,0.33 5.46,1.06 4.6,2.3 4.84,9.74 0.57,12.54 -3.37,2.26 -7.66,1.53 -11.46,1.63 0,-5.03 0,-10.07 -0.34,-15.07 1.84,0 3.77,-0.33 5.64,-0.33 z m -511.08,0 c 4.1,0 8.2,1.76 10.27,5.43 4.36,7.3 4.39,17.13 0,24.43 -3.57,6.27 -13.04,7.57 -18.17,2.57 -5.2,-5.27 -6.1,-13.43 -4.63,-20.4 0.86,-4.77 3.63,-9.67 8.43,-11.33 1.27,-0.47 2.63,-0.67 3.97,-0.7 z m 244.59,1.46 c 1.8,6.7 4,13.27 6,19.9 h -11.67 c 1.87,-6.63 4.04,-13.2 5.67,-19.9 z"></path>

</svg>
