<?xml version="1.0"?>

<!-- Generator: Adobe Illustrator 19.1.0, SVG Export Plug-In . SVG Version: 6.00 Build 0)  -->
<svg version="1.1" id="Layer_1" xmlns="http://www.w3.org/2000/svg" xmlns:xlink="http://www.w3.org/1999/xlink" x="0px" y="0px" width="600px" height="125px" viewBox="0 88 600 125" enable-background="new 0 88 600 125" xml:space="preserve">
<path d="M515.649,148.618c0,15.428-0.027,30.857,0.041,46.285c0.007,1.61-0.447,2.004-1.973,1.908
	c-2.149-0.136-4.314-0.067-6.471-0.018c-0.821,0.019-1.224-0.188-1.112-1.071c0.047-0.372,0.008-0.754,0.008-1.132
	c0-26.272,0-52.543,0-78.815c0-0.27,0-0.539,0-0.809c-0.002-2.767-0.567-3.086-3.018-1.668c-5.117,2.96-10.282,5.841-15.311,8.942
	c-1.777,1.096-3.051,1.133-4.855,0.023c-5.353-3.294-10.849-6.357-16.297-9.496c-2.043-1.178-2.671-0.801-2.671,1.578
	c-0.002,26.865-0.012,53.73,0.029,80.595c0.002,1.415-0.261,1.985-1.812,1.874c-2.093-0.151-4.208-0.099-6.308-0.012
	c-1.097,0.045-1.349-0.336-1.338-1.375c0.051-4.747,0.022-9.494,0.022-14.242c0-26.326,0.01-52.651-0.028-78.977
	c-0.002-1.381,0.259-1.763,1.777-1.913c5.388-0.533,10.053,0.885,14.531,3.905c4.133,2.787,8.645,5.009,12.952,7.545
	c1.107,0.652,1.991,0.675,3.112,0c5.755-3.466,11.569-6.835,17.328-10.294c1.241-0.745,2.458-1.184,3.933-1.111
	c2.045,0.102,4.101,0.085,6.148,0.001c1.067-0.044,1.345,0.287,1.337,1.342c-0.047,6.689-0.024,13.378-0.024,20.068
	C515.649,130.708,515.649,139.663,515.649,148.618z"></path>
<path d="M304.531,148.566c0-15.534,0.013-31.068-0.025-46.602c-0.003-1.212,0.258-1.526,1.554-1.653
	c5.464-0.533,10.176,0.897,14.86,3.865c8.163,5.173,16.693,9.768,25.071,14.603c2.299,1.327,2.968,0.956,2.972-1.654
	c0.007-5.124,0.038-10.249-0.026-15.372c-0.014-1.16,0.343-1.453,1.452-1.409c2.154,0.085,4.319,0.11,6.47-0.007
	c1.258-0.068,1.491,0.349,1.487,1.527c-0.042,14.402-0.027,28.803-0.027,43.205c0,16.613-0.026,33.227,0.041,49.84
	c0.007,1.616-0.456,2.004-1.976,1.903c-2.041-0.135-4.099-0.083-6.146-0.012c-0.976,0.034-1.329-0.228-1.295-1.25
	c0.073-2.155,0.022-4.314,0.022-6.472c0-18.339-0.024-36.679,0.039-55.018c0.006-1.749-0.576-2.681-2.081-3.536
	c-9.952-5.651-19.846-11.404-29.761-17.122c-2.4-1.384-3.03-1.035-3.03,1.67c0,26.646-0.015,53.292,0.039,79.938
	c0.003,1.537-0.454,1.88-1.871,1.799c-2.043-0.116-4.104-0.125-6.145,0.004c-1.359,0.086-1.629-0.437-1.563-1.644
	c0.09-1.667,0.023-3.343,0.023-5.015c0-13.862,0-27.724,0-41.586C304.585,148.566,304.558,148.566,304.531,148.566z"></path>
<path d="M223.838,148.614c0-15.537,0.018-31.075-0.032-46.612c-0.004-1.369,0.385-1.737,1.708-1.664
	c2.044,0.112,4.102,0.105,6.147,0.002c1.257-0.063,1.627,0.283,1.619,1.588c-0.058,10.196-0.032,20.393-0.032,30.589
	c0,5.827-0.004,11.653,0.002,17.48c0.002,2.173,0.761,2.603,2.67,1.502c10.245-5.905,20.476-11.835,30.743-17.703
	c1.061-0.606,1.343-1.33,1.339-2.464c-0.032-9.765,0.009-19.53-0.051-29.294c-0.008-1.325,0.287-1.778,1.661-1.702
	c2.151,0.119,4.318,0.113,6.471,0.001c1.248-0.065,1.497,0.342,1.493,1.527c-0.045,12.678-0.028,25.356-0.028,38.034
	c0,18.397-0.022,36.793,0.041,55.19c0.005,1.494-0.429,1.794-1.792,1.719c-2.098-0.115-4.208-0.085-6.31-0.007
	c-1.057,0.039-1.374-0.269-1.356-1.348c0.066-3.937,0.026-7.876,0.026-11.814c0-12.031,0.001-24.061-0.001-36.092
	c0-2.711-0.733-3.159-3.019-1.835c-10.141,5.874-20.27,11.767-30.43,17.606c-1.072,0.616-1.491,1.309-1.485,2.553
	c0.047,9.711-0.014,19.422,0.067,29.132c0.013,1.549-0.469,1.886-1.884,1.804c-1.989-0.115-3.995-0.106-5.985-0.001
	c-1.253,0.066-1.621-0.277-1.614-1.579c0.057-10.681,0.032-21.363,0.032-32.045C223.838,158.325,223.838,153.469,223.838,148.614z"></path>
<path d="M590.807,196.777c-2.736,0-5.325-0.047-7.909,0.024c-0.947,0.026-1.254-0.274-1.459-1.191
	c-1.959-8.756-3.977-17.499-5.981-26.246c-3.323-14.508-6.65-29.016-9.962-43.527c-0.185-0.81-0.277-1.72-1.313-1.761
	c-1.131-0.045-1.272,0.876-1.476,1.761c-4.495,19.478-9.011,38.951-13.522,58.426c-0.873,3.767-1.773,7.529-2.59,11.309
	c-0.194,0.899-0.51,1.255-1.47,1.227c-2.372-0.068-4.747-0.056-7.12-0.006c-0.974,0.021-1.134-0.205-0.901-1.191
	c3.246-13.753,6.431-27.521,9.645-41.281c4.057-17.37,8.147-34.732,12.152-52.114c0.342-1.485,0.875-1.994,2.403-1.877
	c2.038,0.156,4.102,0.124,6.145,0.004c1.095-0.064,1.487,0.326,1.709,1.313c2.164,9.593,4.357,19.18,6.544,28.768
	c4.911,21.531,9.823,43.061,14.733,64.592C590.555,195.528,590.656,196.054,590.807,196.777z"></path>
<path d="M117.456,196.743c-4.901-0.053-9.835,0.319-14.679-0.664c-9.94-2.017-16.156-8.667-17.779-18.824
	c-0.46-2.881-0.686-5.773-0.681-8.69c0.026-14.295,0.003-28.59,0.075-42.885c0.017-3.452,0.591-6.865,1.7-10.15
	c3.004-8.905,9.447-13.681,18.56-14.752c8.317-0.978,16.704-0.226,25.058-0.413c0.695-0.016,0.952,0.222,0.943,0.929
	c-0.029,2.535-0.056,5.072,0.01,7.606c0.028,1.095-0.651,0.885-1.266,0.886c-5.718,0.011-11.436,0.013-17.155,0.026
	c-2.269,0.005-4.528,0.185-6.732,0.727c-7.284,1.792-11.45,7.013-11.719,15.019c-0.185,5.497-0.038,11.004-0.072,16.506
	c-0.009,1.394,0.725,1.709,1.952,1.702c5.934-0.031,11.869,0.031,17.802-0.049c1.331-0.018,1.619,0.405,1.563,1.628
	c-0.095,2.1-0.094,4.21,0.001,6.309c0.053,1.177-0.232,1.56-1.489,1.545c-5.825-0.074-11.652-0.034-17.478-0.032
	c-2.123,0.001-2.374,0.212-2.333,2.283c0.108,5.55-0.314,11.111,0.302,16.652c0.263,2.365,0.817,4.654,1.798,6.83
	c2.475,5.488,7.104,7.731,12.743,8.214c6.78,0.581,13.585,0.195,20.378,0.202c1.498,0.002,1.793,0.445,1.713,1.8
	c-0.115,1.935-0.114,3.887,0,5.823c0.08,1.359-0.214,1.863-1.725,1.812C125.119,196.656,121.286,196.741,117.456,196.743z
	 M150.358,148.55c0,6.743,0.017,13.486-0.008,20.229c-0.01,2.81,0.215,5.589,0.658,8.365c1.847,11.564,9.802,18.824,21.494,19.392
	c10.134,0.493,20.279,0.087,30.417,0.218c0.87,0.011,1.249-0.169,1.221-1.143c-0.067-2.372-0.072-4.748,0.002-7.119
	c0.031-0.999-0.379-1.119-1.226-1.115c-5.826,0.031-11.652,0.038-17.478,0.009c-3.611-0.018-7.221,0.082-10.833-0.195
	c-7.318-0.562-12.129-4.504-13.92-11.582c-0.597-2.358-0.917-4.757-0.918-7.19c-0.007-13.217-0.001-26.433-0.006-39.65
	c-0.001-2.056,0.25-4.087,0.652-6.094c1.258-6.286,4.611-10.686,11.135-12.155c2.268-0.511,4.573-0.711,6.896-0.713
	c8.038-0.007,16.076-0.048,24.113,0.011c1.314,0.01,1.645-0.377,1.584-1.627c-0.099-2.045-0.106-4.103,0.008-6.147
	c0.074-1.325-0.295-1.72-1.665-1.708c-7.66,0.07-15.32,0.035-22.98,0.037c-2.857,0.001-5.714-0.066-8.559,0.314
	c-9.093,1.213-15.646,5.684-18.752,14.583c-1.108,3.175-1.717,6.471-1.756,9.814c-0.092,7.82-0.029,15.643-0.029,23.464
	C150.391,148.55,150.374,148.55,150.358,148.55z M42.524,112.113c0-2.141,0.179-2.323,2.297-2.325
	c6.148-0.004,12.296-0.02,18.444,0.017c0.975,0.006,1.437-0.135,1.388-1.284c-0.098-2.315-0.062-4.638-0.012-6.956
	c0.018-0.85-0.122-1.223-1.114-1.221c-17.15,0.031-34.3,0.033-51.45-0.003c-1.064-0.002-1.241,0.368-1.215,1.304
	c0.062,2.155,0.103,4.318-0.011,6.47c-0.07,1.317,0.259,1.726,1.648,1.707c5.985-0.084,11.972-0.036,17.959-0.036
	c2.462,0,2.674,0.209,2.674,2.644c0.001,15.802,0,31.604,0,47.405c0,11.811,0.018,23.622-0.027,35.433
	c-0.004,1.182,0.241,1.607,1.498,1.539c2.097-0.113,4.211-0.129,6.306,0.004c1.4,0.089,1.65-0.392,1.645-1.698
	c-0.05-13.86-0.031-27.72-0.031-41.581C42.523,139.726,42.522,125.919,42.524,112.113z"></path>
<path d="M433.321,149c0.009,0,0.019,0,0.028,0c0-7-0.015-14.287,0.007-21.515c0.009-2.864-0.155-5.62-0.733-8.431
	c-1.868-9.081-6.884-15.516-15.786-18.544c-7.273-2.474-14.641-2.239-21.877,0.245c-6.413,2.201-10.926,6.543-13.376,12.907
	c-1.385,3.599-2.033,7.361-2.037,11.215c-0.016,15.05-0.01,30.102-0.017,45.152c-0.001,2.264,0.034,4.523,0.364,6.773
	c1.383,9.44,6.041,16.358,15.286,19.609c5.97,2.099,12.132,2.246,18.332,1.194c4.596-0.78,8.786-2.493,12.246-5.708
	c5.214-4.843,7.343-11.247,7.514-18.131C433.477,165.571,433.321,157,433.321,149z M423.908,141.699
	c0.044,2.372,0.007,4.301,0.007,7.301c-0.002,0-0.004,0-0.006,0c0,7-0.007,15.136,0.004,22.795c0.003,2.487-0.22,4.861-0.732,7.289
	c-0.911,4.327-3.548,7.108-7.729,8.455c-5.746,1.852-11.541,1.822-17.312,0.123c-5.604-1.65-8.143-5.774-8.869-11.313
	c-0.302-2.307-0.362-4.622-0.359-6.94c0.017-15.155,0.028-30.313,0.063-45.469c0.004-1.887,0.354-3.745,0.761-5.587
	c1.107-5.004,4.374-7.888,9.163-9.159c5.093-1.352,10.242-1.378,15.327,0c5.917,1.604,8.833,5.414,9.376,11.557
	C424.217,127.699,423.78,134.747,423.908,141.699z"></path>
</svg>
