<?xml version="1.0"?>
<!--?xml version="1.0" encoding="UTF-8" standalone="no"?-->
<svg xmlns="http://www.w3.org/2000/svg" height="24.839" width="80.828" viewBox="0 0 80.828 24.839"><path d="m 73.811,19.839 h 0.573 l -0.281,-2.907 h -0.599 l -1.493,2.907 h 0.601 l 0.263,-0.546 h 0.891 l 0.05,0.546 m -0.388,-1.708 c 0.1,-0.209 0.243,-0.561 0.243,-0.561 0,0 0,0.246 0.01,0.492 l 0.04,0.605 0.01,0.149 h -0.624 l 0.07,-0.149 0.246,-0.536 m -6.837,1.708 h 0.577 L 66.88,16.932 h -0.599 l -1.49,2.907 h 0.597 l 0.265,-0.546 h 0.89 l 0.04,0.546 m -0.384,-1.708 c 0.1,-0.209 0.241,-0.561 0.241,-0.561 0,0 0,0.246 0.01,0.492 l 0.04,0.605 v 0.149 h -0.623 l 0.07,-0.149 0.249,-0.536 M 37.049,15.017 38.662,7.396 h 4.411 L 42.729,9.004 H 40.272 L 40,10.285 h 1.898 l -0.327,1.551 h -1.895 l -0.328,1.553 h 2.606 l -0.351,1.628 h -4.554 m 0.443,-6.001 h -1.988 l -1.274,6.001 h -1.973 l 1.277,-6.001 h -1.766 l 0.337,-1.62 h 5.729 l -0.342,1.62 m 34.208,7.925 -0.587,2.898 h -0.577 l 0.589,-2.898 H 71.7 m -2.486,0 -0.486,2.416 h 0.984 l -0.117,0.482 h -1.537 l 0.588,-2.898 h 0.568 m -4.164,0 -0.114,0.485 H 64.21 l -0.486,2.413 h -0.572 l 0.487,-2.413 h -0.674 l 0.1,-0.485 h 1.986 m -2.985,0 -0.587,2.898 h -0.575 l 0.587,-2.898 h 0.575 m 11.156,-1.924 0.38,-2.938 c 0.08,-0.479 0.1,-0.952 0.193,-1.665 h -0.01 c -0.257,0.646 -0.397,1.028 -0.604,1.434 l -1.555,3.169 h -1.664 l -0.09,-3.082 c -0.02,-0.427 -0.02,-0.859 0.01,-1.53 h -0.01 c -0.22,0.742 -0.318,1.092 -0.446,1.574 l -0.876,3.038 h -1.822 l 2.35,-7.62 h 2.353 l 0.04,3.018 c 0,0.426 -0.01,0.727 0,1.443 v 0 c 0.28,-0.58 0.407,-0.951 0.691,-1.551 l 1.326,-2.91 h 2.34 l -0.915,7.62 H 73.208 M 62.969,13.605 c -0.652,0 -0.925,-0.217 -0.925,-1.113 0,-0.984 0.522,-3.695 1.927,-3.695 0.601,0 0.894,0.187 0.894,1.018 0,0.993 -0.481,3.79 -1.896,3.79 m -0.36,1.541 c 3.865,0 4.409,-3.989 4.409,-5.081 0,-1.554 -0.617,-2.798 -2.666,-2.798 -3.482,0 -4.486,3.431 -4.486,5.257 0,1.618 0.937,2.622 2.743,2.622 m -6.019,0 c -1.689,0 -2.68,-1.017 -2.68,-2.547 0,-1.505 0.546,-3.256 1.729,-4.328 0.688,-0.611 1.537,-1.004 2.734,-1.004 0.903,0 1.567,0.239 1.951,0.556 l -1.069,1.323 c -0.291,-0.25 -0.664,-0.361 -1.077,-0.361 -0.415,0 -0.743,0.131 -1.103,0.504 -0.5,0.514 -0.935,2 -0.935,3.126 0,0.765 0.448,1.125 1.014,1.125 0.488,0 0.894,-0.143 1.396,-0.522 l 0.573,1.354 c -0.571,0.448 -1.425,0.774 -2.533,0.774 m -8.377,-0.129 1.612,-7.621 h 4.411 L 53.9,9.004 h -2.462 l -0.273,1.281 h 1.896 l -0.327,1.551 h -1.893 l -0.328,1.553 h 2.601 l -0.346,1.628 h -4.555 m -0.785,0 h -4.551 l 1.614,-7.621 h 1.969 l -1.272,6.001 h 2.581 l -0.341,1.62 M 25.798,7.399 c 0,0 -0.893,0.087 -1.53,-0.793 C 23.844,6.027 23.14,5 23.14,5 c 0,0 -3.839,1.392 -5.173,1.787 -2.29,0.675 -3.832,0.609 -4.441,0.609 -0.516,0 -3.504,0 -5.876,0 l -0.618,2.9 c 2.583,0 5.347,0 5.849,0 0.609,0 2.784,-0.04 4.439,-0.611 1.317,-0.454 6.047,-2.174 6.047,-2.174 l 1.351,1.844 c 0,0 0.539,0.944 2.077,0.944 1.539,0 2.87,0 2.87,0 l 0.617,-2.9 h -4.484 m -2.029,9.54 c 0,0 -0.892,0.08 -1.532,-0.792 -0.423,-0.583 -1.126,-1.608 -1.126,-1.608 0,0 -3.838,1.394 -5.174,1.787 -2.29,0.677 -3.831,0.611 -4.439,0.611 -0.515,0 -3.505,0 -5.878,0 L 5,19.836 c 2.584,0 5.347,0 5.851,0 0.609,0 2.783,-0.04 4.439,-0.609 1.318,-0.455 6.045,-2.174 6.045,-2.174 l 1.352,1.844 c 0,0 0.539,0.941 2.076,0.941 1.543,0 32.856,0 32.856,0 L 58.234,16.94 H 23.769 m 1.027,-4.771 c 0,0 -0.894,0.09 -1.532,-0.792 -0.421,-0.58 -1.126,-1.605 -1.126,-1.605 0,0 -3.839,1.391 -5.177,1.784 -2.285,0.677 -3.83,0.611 -4.438,0.611 -0.515,0 -3.502,0 -5.877,0 l -0.618,2.899 c 2.586,0 5.347,0 5.852,0 0.607,0 2.783,-0.04 4.438,-0.609 1.317,-0.456 6.045,-2.176 6.045,-2.176 l 1.352,1.844 c 0,0 0.538,0.943 2.079,0.943 1.539,0 2.87,0 2.87,0 l 0.615,-2.899 h -4.483"></path></svg>