<?xml version="1.0"?>

<!-- Generator: Adobe Illustrator 19.1.0, SVG Export Plug-In . SVG Version: 6.00 Build 0)  -->
<svg version="1.1" id="Layer_1" xmlns="http://www.w3.org/2000/svg" xmlns:xlink="http://www.w3.org/1999/xlink" x="0px" y="0px" width="408px" height="282px" viewBox="-95 -41 408 282" enable-background="new -95 -41 408 282" xml:space="preserve">
<path d="M-32.249,183.901h-15.165v-13.877h47.006v13.877h-15.166v40.257h-16.675V183.901"></path>
<path d="M37.13,207.85c0-15.313-6.749-24.027-22.367-24.027c-12.435,0-20.774,9.324-20.774,20.778
	c0,13.11,9.476,20.543,22.062,20.543c8.95,0,17.213-3.947,20.243-12.431H22.268c-1.209,1.888-3.863,2.808-6.293,2.808
	c-4.697,0-7.279-3.187-7.657-7.671L37.13,207.85L37.13,207.85z M8.393,200.048c0.68-4.249,3.266-6.601,7.731-6.601
	c3.87,0,6.602,2.96,6.602,6.601H8.393"></path>
<path d="M44.482,170.024h15.015v54.134H44.482V170.024"></path>
<path d="M109.914,207.85c0-15.313-6.747-24.027-22.367-24.027c-12.436,0-20.774,9.324-20.774,20.778
	c0,13.11,9.481,20.543,22.06,20.543c8.951,0,17.209-3.947,20.243-12.431H95.048c-1.205,1.888-3.86,2.808-6.289,2.808
	c-4.698,0-7.283-3.187-7.658-7.671L109.914,207.85L109.914,207.85z M81.176,200.048c0.681-4.249,3.26-6.601,7.732-6.601
	c3.867,0,6.597,2.96,6.597,6.601H81.176"></path>
<path d="M143.121,224.158h-17.749l-12.885-39.351h15.845l6.141,23.96h0.15l6.228-23.96h15.314L143.121,224.158"></path>
<path d="M176.695,180.558h-14.99v-10.535h14.991L176.695,180.558L176.695,180.558z M161.705,184.807h14.991v39.351h-14.991V184.807"></path>
<path d="M208.404,196.256c-0.072-1.29-0.759-2.277-1.745-2.956c-0.907-0.762-2.131-1.129-3.32-1.129
	c-2.123,0-4.559,0.446-4.559,3.018c0,1.144,0.913,1.674,1.75,2.056c2.51,1.065,8.184,1.363,13.193,3.029
	c4.991,1.591,9.394,4.552,9.394,10.992c0,10.919-10.463,13.878-20.004,13.878c-9.264,0-19.421-3.717-19.651-13.878h14.337
	c0.069,1.373,0.682,2.498,1.819,3.485c0.763,0.685,2.204,1.137,4.021,1.137c1.956,0,5.075-0.75,5.075-3.025
	c0-2.276-1.295-2.959-8.258-4.171c-11.445-1.975-16.08-5.609-16.08-12.36c0-9.936,10.688-12.51,18.591-12.51
	c8.476,0,18.706,2.349,19.08,12.433L208.404,196.256"></path>
<path d="M269.82,199.217c0-7.582,0.157-15.394-18.65-15.394c-9.325,0-19.791,1.814-20.235,12.89h13.948
	c0.075-1.676,0.969-4.026,5.603-4.026c2.429,0,4.933,0.991,4.933,3.646c0,2.51-2.05,3.103-4.095,3.485
	c-7.653,1.442-22.214,0.985-22.214,13.417c0,8.27,6.279,11.909,13.878,11.909c4.836,0,9.47-1.057,12.656-4.709h0.155
	c-0.076,1.071,0.155,2.662,0.533,3.723h15.318c-1.672-2.503-1.829-5.834-1.829-8.797L269.82,199.217L269.82,199.217L269.82,199.217z
	 M255.418,210.129c-0.224,4.093-2.886,6.14-6.303,6.14c-2.732,0-4.692-1.817-4.692-3.629c0-2.655,1.733-3.497,5.068-4.253
	c2.053-0.456,4.108-0.986,5.927-1.899V210.129"></path>
<g>
	<path d="M112.989-21.872c-16.686,0-32.16,2.433-46.337,6.508h92.464C145.007-19.435,129.61-21.872,112.989-21.872z"></path>
	<path d="M201.145,3.1c-4.331-2.609-8.867-5.106-13.608-7.44h-42.895c4.341,2.083,8.445,4.579,12.26,7.44H201.145z"></path>
	<path d="M38.147-4.339C33.404-2.006,28.871,0.49,24.543,3.1h44.5c3.815-2.861,7.919-5.357,12.26-7.44H38.147z"></path>
	<path d="M10.391,12.606C5.508,16.291,1.064,20.163-2.828,24.23H50.02c2.486-4.158,5.365-8.053,8.599-11.624H10.391z"></path>
	<path d="M228.662,24.23c-3.924-4.067-8.401-7.938-13.311-11.624h-48.024c3.233,3.571,6.113,7.466,8.599,11.624H228.662z"></path>
	<path d="M243.937,48.991c-1.732-5.904-4.628-11.476-8.474-16.735h-55.397c2.328,5.281,4.046,10.888,5.076,16.735H243.937z"></path>
	<path d="M-9.571,32.255c-3.814,5.263-6.686,10.835-8.403,16.735h58.779c1.03-5.847,2.747-11.454,5.075-16.735H-9.571z"></path>
	<path d="M39.898,56.262h-59.36c-0.221,1.813-0.345,3.654-0.345,5.527c0,4.196,0.576,8.239,1.652,12.139h58.843
		c-0.659-3.951-1.019-8.004-1.019-12.142C39.669,59.925,39.762,58.087,39.898,56.262z"></path>
	<path d="M185.257,73.928h58.874c1.076-3.9,1.652-7.945,1.652-12.139c0-1.874-0.126-3.714-0.35-5.527h-59.385
		c0.136,1.826,0.229,3.664,0.229,5.524C186.277,65.924,185.916,69.977,185.257,73.928z"></path>
	<path d="M-16.074,79.904c2.799,6.622,7.07,12.808,12.473,18.597h53.138C46.2,92.749,43.61,86.51,41.93,79.904H-16.074z"></path>
	<path d="M229.585,98.501c5.402-5.789,9.67-11.975,12.468-18.597h-58.037c-1.68,6.606-4.27,12.844-7.606,18.597H229.585z"></path>
	<path d="M148.488,125.911h43.226c4.455-2.328,8.718-4.792,12.785-7.352c7.391-4.657,14.138-9.635,19.939-14.966h-51.265
		C166.774,112.789,158.329,120.449,148.488,125.911z"></path>
	<path d="M52.773,103.593H1.548c5.802,5.329,12.546,10.303,19.934,14.957c4.07,2.564,8.34,5.029,12.796,7.36h43.178
		C67.616,120.449,59.172,112.789,52.773,103.593z"></path>
	<path d="M83.076,128.712H39.874c20.71,9.924,45.211,16.737,73.114,16.737c27.904,0,52.418-6.81,73.133-16.737h-43.254
		c-9.133,4.086-19.244,6.376-29.897,6.376C102.319,135.088,92.209,132.798,83.076,128.712z"></path>
</g>
</svg>
