<svg  xmlns="http://www.w3.org/2000/svg" height="82" width="300" viewbox="0 0 300 82">

 <path class="logotext" d="m36.743,81.242c-15.812-0.19691-28.75-0.7473-28.75-1.2231,0-1.4578,110.83-2.43,199.42-1.7492,46.154,0.35472,84.142,0.86995,84.417,1.1449,0.275,0.27499,0.23171,0.76827-0.0962,1.0962-0.67584,0.67586-211,1.279-254.99,0.73117zm-3.75-17.933c0-0.42075,0.85683-1.694,1.9041-2.8295,1.0472-1.1354,5.3552-10.839,9.5732-21.564,8.7451-22.236,11.023-26.581,16.272-31.038l3.751-3.1851-9.5022,0.56842c-10.862,0.64976-17.26,2.5736-21.24,6.3866-3.0268,2.8998-4.8868,8.0588-4.0539,11.244,0.73358,2.8052-1.2651,2.5539-4.3683-0.54926-3.6746-3.6745-2.7538-8.6594,2.5125-13.603,6.5868-6.183,11.074-7.0367,40.652-7.7352,14.3-0.33771,26.152-0.53172,26.337-0.43114,0.18522,0.10058-0.91848,1.0063-2.4527,2.0128-2.0876,1.3695-5.1914,1.9147-12.337,2.1669-8.6339,0.30476-9.8067,0.58222-12.259,2.9-2.8141,2.6602-8.4887,15.359-15.758,35.263-4.1327,11.316-7.4524,17.104-10.821,18.868-2.5769,1.3494-8.2094,2.3962-8.2094,1.5256zm85,0.11887c0-0.38722,0.82677-1.8985,1.8373-3.3584s2.0879-3.3294,2.3943-4.1544c0.30636-0.825,1.4935-3.8511,2.6381-6.7246l2.0811-5.2246-4.4989,3.4341c-7.6871,5.8677-15.929,7.1291-19.997,3.0606-4.2887-4.2887-2.5997-13.664,4.1135-22.832,7.5316-10.286,21.432-14.086,21.432-5.8579,0,3.775-5.6565,10.193-12.953,14.696-6.0881,3.7578-7.8884,7.0084-5.9193,10.688,1.1955,2.2338,3.34,2.1968,8.3719-0.14432,6.2584-2.9118,12.005-9.6325,14.932-17.464,1.4122-3.778,2.5677-7.0092,2.5677-7.1804,0-0.17126-1.0125-0.5007-2.25-0.73209-2.0814-0.38918-2.0148-0.52007,0.88919-1.747,1.7266-0.72944,3.9268-2.7089,4.8894-4.3988,5.3908-9.464,12.562-13.731,24.145-14.367,7.7395-0.4249,8.311-0.31182,10.75,2.1272,1.4168,1.4168,2.576,3.081,2.576,3.6983,0,1.5404-5.5486,6.9685-7.1231,6.9685-0.99316,0-1.0102-0.26666-0.0769-1.2,0.66-0.66,1.2-2.4496,1.2-3.9769,0-6.0495-9.2328-7.6418-16.072-2.7717-2.8357,2.0192-8.9279,10.242-8.9279,12.05,0,0.39041,4.5,0.46187,10,0.15881,10.613-0.58481,12.647,0.31975,7.1314,3.1719-8.0707,4.1735-15.814,26.471-9.5049,27.371,4.7789,0.68176,13.374-14.6,13.374-23.779,0-2.6594,0.34298-2.8448,8.9993-4.8636,10.904-2.5431,12.413-2.1903,11.711,2.7388-0.28217,1.9801-0.85147,4.4423-1.2651,5.4715-0.41364,1.0292,1.3592-0.3858,3.9396-3.1445,5.2307-5.592,9.3595-7.7588,13.029-6.8378,4.8414,1.2151,4.3895,3.843-3.8022,22.111-2.2809,5.0865-3.5918,9.5478-3.5996,12.25-0.0141,4.9023-1.0722,5.2809-4.6792,1.674-3.4636-3.4636-2.878-8.0988,2.5338-20.056,2.2732-5.0226,4.1332-9.6351,4.1332-10.25,0-4.5591-10.079,7.0821-16.5,19.057-4.5919,8.5641-5.2653,9.3507-8.25,9.6385-1.7875,0.17235-3.25-0.02166-3.25-0.43114,0-0.40947,2.25-6.5182,5-13.575,5.9136-15.175,6.1852-17.129,2.25-16.188-3.9014,0.93253-4.2499,1.235-4.2508,3.6898-0.001,2.8098-5.1463,13.706-8.627,18.27-5.3939,7.0717-14.297,10.263-19.15,6.8647-5.0727-3.5531-1.3318-18.462,6.5494-26.102l3.963-3.8416-5.7895,0.33489-5.7895,0.33489-4.1859,11.665c-5.7859,16.124-10.37,25.729-13.133,27.517-2.7388,1.7724-7.8374,3.1781-7.8374,2.1609zm0.18638-33.171c3.7474-3.9636,5.2856-8.223,3.2516-9.0036-2.8348-1.0878-8.6064,6.0773-10.925,13.562l-0.74329,2.4,2.865-2.0586c1.5758-1.1322,4.0739-3.3372,5.5514-4.9zm-30.552,24.585c-2.071-1.629-2.635-2.939-2.635-6.119v-4.0461l-3.5004,2.6699c-7.9276,6.0466-15.006,7.1524-19.164,2.9939-2.3236-2.3236-2.5082-3.0663-1.9009-7.6451,1.6017-12.074,10.871-23.087,21.25-25.248,2.4564-0.51149,3.6484-0.19964,5.2114,1.3634,1.7058,1.7058,1.8626,2.497,0.99077,4.9979-1.2796,3.6707-9.1903,11.2-14.745,14.033-3.7924,1.9348-4.142,2.444-4.142,6.0338,0,2.1564,0.40378,4.1702,0.8973,4.4752,2.3859,1.4746,7.8635-1.069,12.617-5.8591,4.136-4.167,6.294-7.848,12.03-20.518,6.583-14.543,7.183-15.491,10.313-16.303,1.8291-0.47397,3.7085-0.72562,4.1764-0.55923,0.46794,0.16639-2.449,7.7995-6.4821,16.963-8.6895,19.742-10.826,25.862-10.826,31.009,0,4.4052-0.47088,4.6075-4.0924,1.7588zm-10.557-23.38c4.642-4.3987,6.5752-8.2946,4.9316-9.9382-0.75291-0.75291-1.5691-0.74992-2.7872,0.01023-3.905,2.4369-11.357,16.674-7.6387,14.593,0.76703-0.42925,3.2394-2.5286,5.4942-4.6652zm187.47,23.308c-2.2904-1.8017-2.6674-2.7606-2.3584-6,0.20223-2.1206,0.0183-3.8556-0.40873-3.8556-0.42704,0-0.77643,0.44718-0.77643,0.99373,0,1.9687-8.265,7.0063-11.495,7.0063-3.4921,0-6.505-2.5488-6.505-5.5031,0-1.7314-0.13925-1.7182-2.25,0.21177-6.2413,5.7069-14.196,6.9358-18.305,2.8276l-2.4637-2.4637-3.6304,2.4637c-4.212,2.8583-9.4648,3.2074-11.882,0.78964-2.4029-2.4029-1.4653-6.4645,4.5794-19.838,5.1451-11.383,5.1675-11.413,9.3046-12.277,2.2809-0.47647,4.2973-0.75615,4.4808-0.62153,0.18351,0.13463-2.179,5.841-5.25,12.681-5.7801,12.874-6.712,16.73-4.0432,16.73,2.3699,0,7.4595-4.1656,7.4595-6.1052,0-2.9865,3.9738-11.157,7.5474-15.518,4.0921-4.9938,10.581-8.3768,16.068-8.3768,6.6099,0,8.567,4.1379,3.7494,7.9274-3.2195,2.5325-4.8228,2.6664-3.861,0.32258,2.2251-5.4226-1.1138-6.9422-5.6962-2.5924-8.5034,8.0717-12.682,26.918-5.497,24.79,4.8841-1.446,9.5636-5.7354,12.722-11.662,6.8414-12.836,14.056-18.062,25.128-18.202,3.6638-0.0464,6.992,0.24385,7.3959,0.64493,0.40391,0.40107-0.42618,3.3261-1.8446,6.5-4.3146,9.6544-7.9207,21.503-8.0707,26.517-0.0781,2.6131-0.41889,4.7516-0.75722,4.7522-0.33833,0.000599-1.8419-0.96388-3.3413-2.1433zm-6.2459-10.35c3.2954-3.3931,13.268-22.273,12.285-23.256-1.1661-1.1661-6.2201,1.148-9.0288,4.1341-3.9339,4.1823-8.1943,12.062-9.3838,17.357-1.4631,6.5117,0.86665,7.183,6.1279,1.7657zm-36.05-32.202c-1.7113-0.64352-1.5777-4.7866,0.20196-6.2635,2.2631-1.8782,5.048-0.85656,5.048,1.8519,0,2.5221-3.1766,5.1914-5.25,4.4117z"/>

</svg>

