<?xml version="1.0"?>
<!--?xml version="1.0" encoding="UTF-8" standalone="no"?-->
<svg xmlns="http://www.w3.org/2000/svg" width="593.45" height="222.96" viewBox="0 0 593.45 222.96">

  <path d="m 11.76,220.55 v -1.72 h 1.08 1.08 l 0.63,-0.63 c 0,0 0,-0.77 0.64,-1.59 v 0 l -4.13,-10.93 h 1.97 l 2.29,6.29 c 0,0.95 0.63,1.78 0.82,2.54 0,-0.83 0.64,-1.65 0.7,-2.48 l 2.35,-6.35 h 1.85 l -4.13,11.12 c -0.64,1.02 -0.77,1.84 -1.02,2.41 0,0.64 -0.64,0.96 -1.08,1.27 -0.64,0.64 -0.95,0.64 -1.59,0.64 h -1.21 z m -9.98,-4.2 H 0.06 v -15.06 h 1.85 v 5.34 c 0.82,-0.95 1.78,-1.46 3.05,-1.46 0.89,0 1.71,0 2.41,0.7 0.7,0.63 1.21,1.08 1.59,1.9 0.64,0.83 0.64,1.85 0.64,2.93 0,1.78 -0.64,3.17 -1.27,4.26 -0.89,1.08 -2.04,1.65 -3.44,1.65 -1.27,0 -2.28,-0.64 -3.05,-1.65 z m 0,-5.53 c 0,1.08 0,1.91 0.63,2.48 0,0.64 0.64,0.96 1.02,1.34 0.64,0 0.96,0.63 1.53,0.63 0.89,0 1.65,-0.63 2.16,-1.2 0.63,-0.77 0.82,-1.78 0.82,-2.99 0,-0.89 0,-1.65 -0.63,-2.29 0,-0.64 -0.64,-1.08 -1.02,-1.4 -0.63,0 -0.89,-0.63 -1.52,-0.63 -0.96,0 -1.72,0.63 -2.23,1.2 -0.63,0.83 -0.76,1.78 -0.76,2.93 z m 98.77,4.14 c 0,2.16 -2.42,2.47 -2.42,0 v -7.44 c 0,-1.34 -1.52,-2.86 -3.24,-2.86 -1.84,0 -3.62,1.78 -3.62,3.05 v 7.31 c 0,2.16 -2.41,2.16 -2.41,0 v -11.12 0 0 c 0,-2.04 2.47,-2.04 2.47,0 v 0 c 0.64,-0.64 1.78,-1.78 4.01,-1.78 1.65,0 3.18,0.82 4.13,1.97 0.7,-1.02 1.91,-2.04 4.7,-2.04 2.93,0 5.15,2.04 5.15,4.07 v 9.22 c 0,0 0,1.01 -1.4,1.01 -1.27,0 -1.27,-1.08 -1.27,-1.08 v -7.88 c 0,-0.89 -0.82,-2.92 -2.6,-2.92 v 0 c -1.59,0 -3.31,1.21 -3.44,2.29 z m 23.14,-9.92 c 0,-1.97 2.54,-2.03 2.54,0 0,0.64 0,0 0,0 0.63,-0.64 1.84,-1.72 4.19,-1.72 3.05,0 5.47,2.29 5.47,4.77 v 7.5 c 0,2.23 -2.54,2.29 -2.54,0 v -7.25 c 0,-1.33 -1.53,-2.86 -3.37,-2.86 -1.97,0 -3.82,1.78 -3.82,3.06 v 7.18 c 0,2.1 -2.47,2.1 -2.47,0 v -10.93 0 z m 45.44,0 c 0,-1.91 2.54,-1.97 2.54,0 v 0 c 0.64,-0.64 1.85,-1.78 4.2,-1.78 2.98,0 5.46,2.35 5.46,4.83 v 7.5 c 0,2.16 -2.54,2.23 -2.54,0 v -7.31 c 0,-1.27 -1.59,-2.8 -3.37,-2.8 -1.97,0 -3.81,1.78 -3.81,3.06 v 7.18 c 0,2.1 -2.54,2.1 -2.54,0 v -11 0 z m -122.1,-1.91 c -4.7,0 -6.67,4.01 -6.67,6.99 0,2.86 1.84,6.93 6.99,6.93 2.16,0 5.53,-1.71 5.53,-3.11 0,-0.64 -0.76,-1.15 -1.91,-0.64 -1.08,0.64 -2.28,1.46 -3.43,1.46 -2.22,0 -4.51,-2.22 -4.51,-3.87 h 9.22 c 0.69,0 1.14,-0.64 1.14,-1.15 0,-2.79 -2.16,-6.73 -6.36,-6.73 z m 0,2.1 c 2.48,0 3.82,2.42 3.82,3.81 H 42.9 c 0,-1.84 1.85,-3.81 4.13,-3.81 z m 142.63,-1.59 c -4.7,0 -6.61,4.01 -6.61,6.99 0,2.86 1.84,6.93 6.93,6.93 2.16,0 5.46,-1.72 5.46,-3.18 0,-0.63 -0.76,-1.08 -1.84,-0.63 -1.14,0.63 -2.29,1.46 -3.5,1.46 -2.16,0 -4.44,-2.29 -4.44,-3.88 h 9.15 c 0.7,0 1.14,-0.63 1.14,-1.21 0,-2.73 -2.16,-6.67 -6.29,-6.67 z m 0,2.16 c 2.41,0 3.75,2.35 3.75,3.75 h -7.88 c 0,-1.84 1.84,-3.81 4.13,-3.75 z m 16.21,1.21 c -0.77,0 -1.97,-1.14 -3.63,-1.14 -1.78,0 -2.6,0.63 -2.6,1.65 0,1.02 1.59,1.27 2.67,1.59 0.76,0 2.22,0.76 2.22,0.76 1.91,0.64 2.74,1.97 2.74,3.75 0,1.65 -1.59,3.11 -2.74,3.43 -3.49,0.89 -8.01,-0.89 -8.01,-2.09 0,-1.28 0.89,-1.53 1.34,-1.34 1.4,0.64 2.35,1.46 4.19,1.46 1.47,0 2.74,0 2.74,-1.52 0,-1.4 -2.99,-2.04 -3.5,-2.16 -0.63,0 -4.19,-0.83 -4.19,-3.75 0,-2.42 2.16,-4.07 4.64,-4.07 2.35,0 5.21,0.82 5.21,2.35 0,0.64 0,1.08 -1.08,1.08 z m 13.98,-3.18 c -1.72,0 -4.32,0 -5.02,1.59 0,0.64 0,1.08 0.63,1.4 h 1.28 c 1.39,-0.64 2.09,-0.83 3.17,-0.83 1.72,0 3.82,0.64 3.82,2.16 v 1.28 c -0.64,-0.64 -1.46,-0.64 -3.82,-0.64 -4,0 -5.91,2.48 -5.91,4.39 0,2.16 1.4,4.25 5.15,4.25 2.03,0 3.94,-0.63 4.7,-1.71 v 1.01 c 0,0.64 0.64,0.7 0.96,0.7 0.7,0 1.33,0 1.33,-0.95 v -8.64 c 0,-2.23 -2.86,-4.13 -5.97,-4.13 z m -0.64,6.99 c 1.28,0 2.61,0 3.88,0.64 v 1.84 c 0,0.77 -2.1,2.35 -4.13,2.35 -1.78,0 -3.18,-0.95 -3.18,-2.35 0,-0.82 0.83,-1.97 2.04,-2.29 h 1.33 z M 117.84,199.57 c 0,0 0,-1.2 1.33,-1.2 1.4,0 1.27,1.27 1.27,1.27 v 16.52 c 0,0 0,1.27 -1.33,1.27 -1.21,0 -1.21,-1.2 -1.21,-1.2 z M 150,197.98 c -1.46,0 -1.34,1.09 -1.34,1.09 v 5.97 c 0,0 -0.7,-0.64 -1.46,-0.89 -0.82,-0.64 -1.84,-0.64 -2.98,-0.76 -1.59,0 -3.18,0.63 -4.39,1.4 -1.53,1.27 -2.54,3.17 -2.54,5.4 0,2.16 0.76,4 2.16,5.21 1.14,1.08 2.6,1.78 4.77,1.78 1.01,0 2.16,-0.64 2.98,-0.95 0.89,-0.64 1.4,-1.27 1.59,-1.15 0.64,0 -0.63,1.97 1.15,2.04 1.46,0 1.2,-1.78 1.2,-1.78 V 199 c 0,0 0,-1.02 -1.14,-1.02 z m -5.78,7.57 c 2.54,0 4.57,2.16 4.57,4.77 -0.63,5.91 -8.96,5.91 -9.41,0 0,-2.67 2.23,-4.84 4.84,-4.77 z m 16.33,-2.29 c -4,0 -7.31,3.11 -7.31,7.12 0,9.47 14.11,9.47 14.11,0 0,-3.81 -2.99,-6.99 -6.8,-7.12 z m -0.7,2.42 c 2.73,0 5.09,2.03 5.09,4.83 0,6.42 -9.48,6.42 -9.48,0 0,-2.55 1.91,-4.64 4.39,-4.83 z m 49.32,-1.02 c 0,0 0,-1.27 1.27,-1.27 1.34,0 1.34,1.2 1.34,1.2 v 11.51 c 0,0 0,1.14 -1.4,1.14 -1.21,0 -1.27,-1.2 -1.27,-1.2 z M 80.15,202.69 c -4.01,0 -7.38,3.11 -7.38,7.18 0.64,9.15 13.86,9.15 14.31,0 0,-3.88 -3.06,-7.05 -6.93,-7.18 z m 0,2.41 c 2.6,0 4.64,2.23 4.64,4.9 0,6.54 -9.6,6.54 -9.6,0 0,-2.8 2.22,-5.02 4.96,-4.9 z m -19.39,-6.67 c 0,0 0,-1.08 1.27,-1.14 1.15,0 1.27,1.08 1.27,1.08 v 11.5 l 6.81,-6.86 c 0,0 1.14,-1.08 1.97,0 0.76,0.95 0,1.78 0,1.78 l -4.14,4.25 4.58,5.72 c 0,0 0.64,1.28 0,1.85 -1.14,0.76 -1.91,-0.64 -1.91,-0.64 l -4.45,-5.65 -2.35,2.35 v 2.86 c 0,0 0,1.08 -1.52,1.08 -1.4,0 -1.21,-1.08 -1.21,-1.08 z m -5.65,0.64 c 0,0 0,-1.21 1.33,-1.15 1.4,0 1.33,1.27 1.33,1.27 v 16.78 c 0,0 0,1.21 -1.39,1.21 -1.21,0 -1.21,-1.14 -1.21,-1.14 z m -26.06,2.16 c 0,0 -1.28,0 -1.28,-1.21 0,-1.21 1.15,-1.4 1.15,-1.4 h 11.69 c 0,0 1.91,-0.64 1.85,1.53 0,1.39 -1.97,1.14 -1.97,1.14 h -3.88 v 14.62 c 0,0 0,1.27 -1.59,1.21 -1.21,0 -1.21,-1.15 -1.21,-1.15 v -14.81 z m 233,-31.91 c -3.17,-0.64 -7.75,16.4 -10.8,15.76 -2.61,-0.63 0,-10.55 -2.86,-10.55 -1.27,0 -2.93,2.86 -3.69,6.04 -1.02,4.13 -0.63,9.15 -0.63,9.22 0.7,-0.64 10.23,-3.69 18.36,3.36 10.36,9.03 3.37,20.6 3.37,20.6 0,0 -0.82,0 -3.62,-0.7 -2.22,-0.64 -2.99,-1.08 -2.99,-1.08 0,0 2.86,-10.62 -1.71,-14.49 -6.23,-4.9 -10.74,-2.99 -12.27,-2.36 0,0 0.7,4.77 4.58,9.73 4.32,5.34 9.47,7.18 9.47,7.18 -0.64,0.7 -0.89,1.27 -1.47,1.84 -2.16,2.17 -5.14,3.44 -8.13,3.44 -3.05,0 -6.04,-1.27 -8.14,-3.44 -2.16,-2.09 -3.36,-5.14 -3.36,-8.13 0,-3.12 1.27,-6.17 3.43,-8.33 1.01,-1.01 2.29,-1.78 3.62,-2.35 -1.08,-3.18 -1.14,-4.96 -1.14,-5.15 -2.23,0.83 -4.39,2.04 -6.11,3.69 -3.36,3.18 -5.33,7.69 -5.33,12.27 0,4.45 1.9,8.89 5.14,12.07 3.25,3.18 7.89,5.02 12.52,5.02 4.58,0 9.22,-1.84 12.46,-5.02 1.27,-1.21 2.23,-2.6 3.05,-4.13 0.64,0 15.38,1.27 17.1,-4 1.27,-4.07 -11.95,-1.72 -12.27,-4.45 0,-2.67 4.26,-5.66 4.26,-5.66 0,0 14.18,-9.53 12.65,-12.84 -2.03,-4.26 -12.77,6.8 -16.4,4.71 -1.08,-0.64 2.16,-5.09 3.88,-8.01 2.73,-4.64 4.96,-9.28 3.18,-10.17 -3.05,-1.46 -13.29,12.84 -15.51,12.01 -1.08,-0.64 0,-6.55 0,-6.67 0,0 1.59,-9.03 -0.64,-9.41 z m 296.57,-44.11 11.19,-62.1 h 9.47 l -9.35,51.55 h 23.52 l -1.91,10.55 z m -43.92,0 11.31,-62.61 h 34.64 l -1.9,10.62 h -25.24 l -2.47,13.85 h 23.45 l -1.91,10.56 h -23.45 l -3.12,17.03 h 26.19 l -1.91,10.55 z m -42.39,-20.34 9.4,-1.21 c 0,4.13 0.64,7.19 1.72,9.09 1.33,1.91 3.5,2.93 6.36,2.93 3.05,0 5.46,-0.89 7.3,-2.61 1.85,-1.72 2.99,-3.75 3.44,-6.04 0,-1.46 0,-2.73 -0.64,-3.75 -0.63,-1.08 -1.4,-1.97 -2.92,-2.73 -1.02,-0.64 -3.31,-1.46 -7.06,-2.73 -4.76,-1.72 -7.94,-3.75 -9.53,-6.23 -2.23,-3.44 -2.93,-7.63 -2.04,-12.59 0.64,-3.18 1.78,-6.16 3.63,-8.96 1.9,-2.73 4.19,-4.89 6.99,-6.29 2.86,-1.46 6.04,-2.23 9.6,-2.23 5.91,0 9.98,1.72 12.33,5.22 2.35,3.43 3.11,8 2.22,13.79 l -9.53,0.63 c 0,-3.17 0,-5.53 -1.4,-6.92 -1.08,-1.4 -2.92,-2.1 -5.59,-2.1 -2.74,0 -5.03,0.76 -6.87,2.29 -1.14,0.95 -1.91,2.22 -2.16,3.87 0,1.47 0,2.74 0.7,3.75 0.95,1.4 3.56,2.8 7.94,4.2 4.33,1.46 7.44,2.99 9.35,4.51 1.9,1.59 3.3,3.69 4,6.36 0.76,2.73 0.83,6.03 0,9.98 -0.7,3.62 -2.03,6.99 -4.07,10.1 -2.09,3.12 -4.57,5.47 -7.56,6.99 -3.05,1.53 -6.55,2.29 -10.61,2.29 -5.91,0 -10.17,-1.84 -12.65,-5.53 -2.48,-3.62 -3.43,-8.96 -2.8,-15.95 z m -55.94,20.34 11.32,-62.61 h 14.17 l 0.76,42.72 16.08,-42.72 h 14.18 l -11.31,62.61 h -8.78 l 8.9,-49.26 -18.18,49.26 h -9.08 l -0.64,-49.26 -8.9,49.26 z M 369.4,94.32 c 1.15,-6.42 2.8,-11.76 5.03,-16.08 1.65,-3.18 3.62,-6.86 5.91,-9.41 2.28,-2.54 4.64,-3.62 7.05,-4.83 3.24,-1.65 6.74,-2.48 10.55,-2.48 6.87,0 11.89,2.86 15,8.58 3.12,5.72 3.75,13.73 1.91,23.9 -1.84,10.11 -5.34,18.05 -10.49,23.71 -5.08,5.72 -11.12,8.58 -17.99,8.58 -6.99,0 -11.94,-2.86 -15.06,-8.52 -3.05,-5.65 -3.69,-13.53 -1.91,-23.45 z m 9.79,-0.64 c -1.27,7.12 -1.01,12.46 0.77,16.15 1.77,3.62 4.57,5.46 8.32,5.46 3.75,0 7.18,-1.78 10.23,-5.46 3.12,-3.62 5.28,-9.03 6.61,-16.34 1.28,-7.18 1.09,-12.52 -0.63,-16.01 -1.72,-3.56 -4.51,-5.34 -8.39,-5.34 -3.94,0 -7.37,1.84 -10.42,5.4 -2.99,3.56 -5.15,8.96 -6.49,16.14 z m -60.57,31.53 11.31,-62.61 h 9.47 l -5.02,27.84 24.09,-27.84 h 12.71 l -22.05,24.41 11.69,38.2 h -12.2 l -7.56,-29.36 -9.54,10.42 -3.43,18.94 z m -39.79,0 11.19,-62.1 h 9.41 l -9.28,51.55 h 23.51 l -1.9,10.55 z m -43.92,0 11.32,-62.61 h 34.64 l -1.91,10.62 h -25.23 l -2.48,13.85 h 23.45 l -1.91,10.56 h -23.45 l -3.11,17.03 h 26.12 l -1.91,10.55 z m -29.42,0 9.4,-51.99 h -13.92 l 1.91,-10.62 h 37.18 l -1.9,10.62 H 224.3 l -9.41,51.99 z M 109.19,0.32 c -18.43,0 -31.01,17.35 -38.83,35.14 l 25.11,-2.98 v 0 c -3.31,5.27 -6.11,11.56 -8.33,18.43 14.55,-1.53 28.92,-2.35 42.96,-1.53 l 17.86,23.71 -0.82,1.72 c -1.08,0 -2.29,-0.64 -3.43,-0.64 -21.49,-2.1 -44.18,-3.24 -65.66,2.48 -3.43,17.03 -5.15,34 -4.45,50.78 L 54.47,103.41 c 0.64,-7.37 1.08,-14.75 1.84,-22.18 -4.57,1.27 -9.34,2.98 -13.92,5.08 l 11.7,-28.85 c 3.05,-0.89 6.23,-1.72 9.28,-2.48 C 65.02,49 67.31,42.07 70.3,35.27 l -7.63,0.89 -8.65,21.36 C 26.19,65.72 0,81.74 0,102.07 c 0,17.04 30.57,28.86 50.34,31.59 -13.54,-3.62 -32.93,-13.28 -32.93,-24.34 0,-7.75 11.64,-16.84 24.98,-22.94 l -0.63,1.27 12.58,15.76 c -1.01,19.38 0,38.71 6.87,57.71 4.19,11.82 13.22,25.11 25.61,25.11 22.76,0 37.56,-32.42 42.84,-52.25 -1.59,6.1 -18.37,28.73 -35.47,28.73 -15.06,0 -19.95,-23.84 -20.33,-29.3 0,-1.91 0,-3.81 0,-5.78 v 0 l 6.92,-0.83 6.36,7.94 51.93,-6.23 22.18,-48.55 -1.91,-2.61 c 11.89,4 20.28,10.87 20.28,19.83 0,13.6 -27.71,24.79 -34.96,28.98 10.68,-2.86 52.44,-18.68 52.44,-38.45 0,-23.83 -28.54,-31.97 -43.16,-35.34 -5.02,-1.14 -10.11,-1.97 -15.25,-2.54 l -9.6,-12.84 -7.25,0.89 -6.04,-8.07 -20.27,2.35 c 6.23,-9.98 13.98,-16.34 21.1,-16.34 13.86,0 17.22,18.63 21.74,29.62 C 138.37,29.43 127.44,0 109.19,0 Z"></path>

</svg>
