<?xml version="1.0"?>
<!--?xml version="1.0" encoding="UTF-8" standalone="no"?-->
<svg xmlns:dc="http://purl.org/dc/elements/1.1/" xmlns:cc="http://creativecommons.org/ns#" xmlns:rdf="http://www.w3.org/1999/02/22-rdf-syntax-ns#" xmlns:svg="http://www.w3.org/2000/svg" xmlns="http://www.w3.org/2000/svg" id="svg4" version="1.1" width="47.09pt" height="52.451pt" viewBox="0 0 47.09 52.451">
  <metadata id="metadata10">
    <rdf:rdf>
      <cc:work rdf:about="">
        <dc:format>image/svg+xml</dc:format>
        <dc:type rdf:resource="http://purl.org/dc/dcmitype/StillImage"></dc:type>
        <dc:title></dc:title>
      </cc:work>
    </rdf:rdf>
  </metadata>
  <defs id="defs8"></defs>
  <path d="m 12.23,15.449 c -2.48,0 -4.49,0.672 -5.82,2.274 C 5.47,18.863 5,20.269 5,21.942 c 0,5.019 3.95,11.987 10.71,17.672 6.02,5.024 12.65,7.837 17.48,7.837 2.41,0 4.35,-0.735 5.62,-2.205 1,-1.14 1.4,-2.618 1.4,-4.29 0,-4.35 -3.17,-10.268 -8.41,-15.435 l -1.51,8.865 c -0.13,0.668 -0.81,1.815 -1.75,2.505 -0.94,0.69 -1.99,0.885 -2.84,0.885 H 15.4 l 3.77,-20.788 c -2.48,-0.95 -4.92,-1.534 -6.94,-1.534 v 0 z M 16.18,5 C 14.97,5 13.97,5.809 13.7,7.082 l -1.07,5.82 h 9.56 l -4.1,22.629 h 7.6 c 1.02,0 2.16,-0.468 2.5,-2.207 l 3.47,-20.422 h 6.88 c 1.21,0 2.21,-0.804 2.48,-2.074 L 42.09,5" id="path4195"></path>
</svg>
