<?xml version="1.0"?>
<!--?xml version="1.0" encoding="UTF-8" standalone="no"?-->
<svg xmlns="http://www.w3.org/2000/svg" version="1.2" viewBox="0 0 117 44" width="117" height="44">
  <path d="m 22.4,13.231 m 0,0 c 0,-0.526 -0.36,-1.063 -1.06,-1.063 h -8.27 c -0.69,0 -1.07,0.537 -1.07,1.063 0,0.537 0.38,1.063 1.07,1.063 h 3.08 v 16.287 c 0,0.705 0.52,1.03 1.05,1.03 0.54,0 1.07,-0.325 1.07,-1.03 V 14.294 h 3.07 c 0.7,0 1.06,-0.526 1.06,-1.063 z m 13.81,17.183 m 0,0 c 0,-0.527 -0.31,-1.064 -1.06,-1.064 h -7.69 v -6.783 h 5.34 c 0.69,0 1.07,-0.538 1.07,-1.064 0,-0.526 -0.38,-1.063 -1.07,-1.063 h -5.34 v -6.146 h 7.69 c 0.75,0 1.06,-0.526 1.06,-1.063 0,-0.526 -0.31,-1.063 -1.06,-1.063 h -8.76 c -0.54,0 -1.05,0.504 -1.05,1.063 v 17.183 c 0,0.559 0.51,1.062 1.05,1.062 h 8.76 c 0.75,0 1.06,-0.525 1.06,-1.062 z m 13.09,0 m 0,0 c 0,-0.527 -0.36,-1.064 -1.05,-1.064 H 41.68 V 13.063 C 41.68,12.37 41.15,12 40.61,12 c -0.52,0 -1.05,0.37 -1.05,1.063 v 17.351 c 0,0.559 0.5,1.062 1.05,1.062 h 7.64 c 0.69,0 1.05,-0.525 1.05,-1.062 z m 13.37,-3.963 m 0,0 c 0,-3.805 -2.66,-4.702 -5.46,-6.201 -1.5,-0.817 -3.24,-1.434 -3.24,-3.471 0,-0.973 0.75,-2.652 3.08,-2.652 h 0.24 c 1.71,0 2.89,1.007 3.03,2.373 0.1,0.671 0.58,1.008 1.11,1.008 0.54,0 1.01,-0.337 1.01,-1.03 C 62.44,13.902 60.04,12 57.36,12 h -0.29 c -2.93,0 -5.25,2.07 -5.25,4.779 0,3.582 2.72,4.243 5.39,5.755 1.71,0.951 3.34,1.6 3.34,3.883 0,2.015 -0.95,3.101 -3.17,3.101 h -0.27 c -1.82,0 -3.45,-1.03 -3.45,-3.011 0,-0.761 -0.52,-1.064 -1.04,-1.064 -0.55,0 -1.07,0.337 -1.07,1.031 0,3.38 2.66,5.137 5.52,5.137 h 0.26 c 3.37,0 5.34,-1.947 5.34,-5.16 z m 12.2,-13.22 m 0,0 c 0,-0.526 -0.36,-1.063 -1.06,-1.063 h -8.28 c -0.69,0 -1.06,0.537 -1.06,1.063 0,0.537 0.37,1.063 1.06,1.063 h 3.09 v 16.287 c 0,0.705 0.52,1.03 1.05,1.03 0.54,0 1.07,-0.325 1.07,-1.03 V 14.294 h 3.07 c 0.7,0 1.06,-0.526 1.06,-1.063 z m 11.87,4.5 m 0,0 c 0,1.758 -1.3,3.191 -3.06,3.191 h -3.75 v -6.628 h 3.64 c 1.75,0 3.17,1.422 3.17,3.191 z m 2.13,0 v -0.246 c 0,-2.945 -2.37,-5.317 -5.3,-5.317 h -4.71 c -0.54,0 -1.05,0.504 -1.05,1.063 v 17.35 c 0,0.705 0.53,1.03 1.05,1.03 0.54,0 1.07,-0.325 1.07,-1.03 v -7.544 h 2.85 l 3.79,7.992 c 0.23,0.447 0.6,0.582 0.93,0.582 0.68,0 1.12,-0.437 1.12,-1.03 0,-0.167 -0.1,-0.335 -0.11,-0.47 l -3.46,-7.242 c 2.26,-0.672 3.82,-2.675 3.82,-5.138 z m 11.79,7.007 m 0,0 H 95.1 l 2.76,-8.932 z m 3.99,5.878 c 0,-0.09 0,-0.202 -0.11,-0.337 L 99.1,12.783 C 98.92,12.257 98.39,12 97.81,12 c -0.55,0 -1.09,0.257 -1.26,0.783 L 91.1,30.279 C 91,30.414 91,30.526 91,30.616 c 0,0.558 0.46,0.995 1.09,0.995 0.42,0 0.82,-0.19 0.98,-0.716 l 1.26,-4.03 h 6.89 l 1.24,4.03 c 0.16,0.526 0.59,0.716 1,0.716 0.65,0 1.09,-0.437 1.09,-0.995 z" id="path4797"></path>

</svg>
