<?xml version="1.0"?>
<!--?xml version="1.0" encoding="UTF-8" standalone="no"?-->
<svg xmlns:svg="http://www.w3.org/2000/svg" xmlns="http://www.w3.org/2000/svg" viewBox="0 0 910.11 146.74" width="910.11" height="146.74">
   <path d="M 50.163,22 V 61.658 H 21.995 l 0.117,1.034 0.231,0.92 0.115,0.921 0.229,0.807 0.345,0.69 0.346,0.802 0.687,1.379 0.809,1.268 0.916,1.033 0.922,1.154 1.035,1.033 1.033,1.034 1.151,0.916 2.074,1.959 0.916,1.033 0.922,1.033 0.685,1.15 0.461,0.575 0.231,0.58 1.839,4.019 1.034,2.301 0.689,1.15 0.576,1.151 0.344,0.574 0.348,0.574 0.687,1.03 0.346,0.462 0.461,0.346 0.459,0.463 0.461,0.342 0.92,0.691 0.459,0.342 0.462,0.233 0.571,0.23 h 0.461 l 0.574,0.103 h 0.576 0.459 0.463 l 0.461,-0.128 0.342,-0.131 0.804,-0.346 0.346,-0.217 0.342,-0.215 0.576,-0.576 0.574,-0.566 0.575,-0.582 0.462,-0.69 0.684,-0.574 0.465,-0.691 0.689,-0.575 0.69,-0.687 0.342,-0.131 0.462,-0.217 0.459,-0.215 0.346,-0.216 0.572,-0.129 h 0.463 0.574 l 0.575,-0.114 0.574,0.114 h 0.691 l 0.576,0.111 0.459,0.352 0.688,0.341 0.461,0.229 0.574,0.463 0.461,0.459 0.576,0.574 0.346,0.574 0.918,1.151 0.576,0.691 0.346,0.805 0.922,1.599 0.92,1.614 0.8,1.836 1.725,3.907 1.842,3.91 1.033,2.07 1.033,1.95 0.92,1.5 0.459,0.72 0.463,0.69 1.033,1.38 1.033,1.26 1.038,1.16 1.15,1.15 1.15,1.03 1.151,1.04 1.261,0.8 1.266,0.92 1.26,0.65 0.578,0.22 0.574,0.21 1.385,0.58 1.258,0.21 1.154,0.35 h 0.701 l 0.574,0.13 h 0.92 0.809 l 0.916,-0.13 h 0.807 l 1.265,-0.35 h 0.688 l 0.463,-0.21 0.916,-0.35 0.691,-0.34 0.464,-0.22 -0.464,-0.92 -0.346,-1.15 -0.345,-1.04 -0.215,-1.27 -0.219,-1.26 -0.215,-1.38 -0.129,-1.49 v -1.39 -0.68 -0.7 l 0.215,-1.26 0.348,-1.26 0.343,-1.26 0.217,-0.58 0.346,-0.69 0.464,-1.15 0.68,-1.15 0.81,-1.15 0.81,-1.03 0.92,-1.04 0.92,-1.14 1.03,-0.927 1.04,-1.033 1.03,-0.92 1.03,-0.918 1.16,-0.809 1.6,-1.031 1.38,-0.922 2.77,-1.603 2.76,-1.385 1.14,-0.574 1.27,-0.58 2.29,-0.913 1.96,-0.695 2.87,-1.033 0.22,-0.805 0.12,-0.916 0.36,-1.388 0.35,-1.604 0.34,-1.953 0.12,-2.301 0.22,-2.529 0.14,-1.953 v -1.727 l -0.14,-1.379 -0.13,-1.496 -0.21,-1.953 v -0.691 l -0.23,-0.131 -0.79,-0.346 -0.36,-0.217 -0.56,-0.345 -0.47,-0.579 -0.58,-0.459 -0.57,-0.687 -0.45,-0.809 -0.23,-0.574 -0.33,-0.459 -0.35,-1.154 -0.34,-1.258 -0.36,-1.383 -0.12,-0.918 -0.14,-0.92 v -0.922 -0.92 l 0.22,-4.484 0.34,-5.285 -1.59,-0.459 -0.93,-0.217 -1.03,-0.217 -1.15,-0.214 -1.27,-0.131 -2.64,-0.215 -2.88,-0.348 -3.1,-0.215 -3.1,-0.131 h -3.11 v 0.01 l -2.76,12.299 h 8.62 l -2.75,11.842 h -8.4 l -3.557,15.404 -0.131,1.154 -0.128,0.346 0.128,0.459 0.131,0.574 0.215,0.217 0.131,0.346 0.217,0.129 0.129,0.131 0.129,0.129 h 0.13 l 0.346,0.13 0.463,0.129 h 0.574 l 1.147,-0.129 1.269,-0.13 h 1.264 l 0.573,-0.129 0.35,-0.131 -2.644,10.113 -1.267,0.574 -1.266,0.459 -0.918,0.215 -1.037,0.348 -0.916,0.215 -1.154,0.345 -2.409,0.459 -1.382,0.215 -1.258,0.131 -1.383,0.131 h -1.262 -0.921 l -0.916,-0.131 -0.809,-0.131 -0.801,-0.129 -0.806,-0.345 -0.69,-0.346 -0.92,-0.215 -0.459,-0.459 -0.691,-0.463 -0.692,-0.574 -0.459,-0.576 -0.574,-0.803 -0.459,-0.693 -0.463,-0.795 -0.343,-0.813 -0.346,-0.918 -0.131,-0.574 -0.131,-0.574 -0.129,-1.268 v -1.262 -1.496 l 0.217,-1.378 0.129,-1.262 0.459,-2.19 3.103,-14.486 h -8.625 l 2.875,-11.842 h 8.391 l 2.992,-13.334 -1.154,-0.215 -0.916,-0.217 -1.033,-0.345 -0.805,-0.217 -0.803,-0.346 -0.58,-0.346 -0.459,-0.345 -0.457,-0.346 V 22 Z m 43.115,10.328 -0.574,0.129 -0.459,0.131 -0.578,0.129 -0.459,0.217 -0.459,0.345 -0.463,0.217 -0.457,0.463 -0.217,0.346 -0.459,0.345 -0.215,0.575 -0.217,0.463 -0.128,0.458 -0.217,0.575 -0.131,0.459 v 0.574 0.58 l 0.131,0.574 0.217,0.459 0.128,0.692 0.217,0.345 0.215,0.463 0.348,0.457 0.345,0.346 0.457,0.348 0.346,0.215 0.463,0.216 0.57,0.215 0.463,0.131 0.576,0.129 0.461,0.131 h 0.573 0.695 l 0.57,-0.131 0.576,-0.129 0.457,-0.131 0.463,-0.215 0.459,-0.216 0.457,-0.215 0.346,-0.463 0.348,-0.217 0.215,-0.574 0.345,-0.346 0.217,-0.463 0.129,-0.57 0.131,-0.459 0.129,-0.58 v -0.575 -0.576 l -0.129,-0.461 -0.131,-0.687 -0.129,-0.459 -0.217,-0.463 -0.345,-0.463 -0.692,-0.803 -0.346,-0.345 -0.458,-0.217 -0.458,-0.346 -0.462,-0.217 -0.463,-0.129 -0.571,-0.13 -0.459,-0.129 h -0.695 v -0.02 z M 86.612,46.832 78.45,84.541 h 10.004 l 8.504,-37.709 z m 319.438,0.739 v 1.261 l 0.82,0.114 0.33,0.115 0.35,0.23 0.68,0.461 0.36,0.233 0.11,0.341 0.34,0.35 0.24,0.344 0.1,0.457 0.23,0.461 0.25,0.691 0.1,0.572 v 0.69 0.805 44.261 0.926 0.687 l -0.35,1.03 -0.23,0.46 -0.1,0.58 -0.58,0.69 -0.11,0.34 -0.36,0.23 -0.68,0.46 -0.35,0.23 -0.33,0.12 h -0.82 v 1.38 h 18.74 v -1.38 h -0.68 l -0.69,-0.35 -0.47,-0.23 -0.23,-0.23 -0.22,-0.23 -0.36,-0.22 -0.21,-0.47 -0.24,-0.34 -0.23,-0.46 -0.24,-0.46 -0.11,-0.58 -0.1,-0.57 -0.13,-0.687 V 98.955 54.696 53.891 l 0.13,-0.69 0.1,-0.572 0.12,-0.691 0.23,-0.461 0.12,-0.457 0.35,-0.344 0.21,-0.35 0.36,-0.341 0.22,-0.233 0.23,-0.228 0.34,-0.233 0.82,-0.345 h 0.34 l 0.34,-0.114 v -1.261 z m -247.24,0.119 -3.45,10.115 1.16,0.578 0.58,-0.691 0.34,-0.346 0.34,-0.231 0.33,-0.341 0.35,-0.231 0.69,-0.459 0.71,-0.345 0.79,-0.346 0.8,-0.348 0.92,-0.226 1.05,-0.114 1.14,-0.119 2.41,-0.226 1.39,-0.116 h 1.5 3.32 1.95 l 0.69,0.116 0.36,0.115 0.1,0.111 0.34,0.119 h 0.25 l 0.1,0.231 0.23,0.228 v 0.576 l 0.12,0.918 v 42.422 0.805 l -0.12,0.685 v 0.58 l -0.11,0.58 -0.22,0.46 -0.25,0.57 -0.34,0.69 -0.34,0.34 -0.34,0.23 -0.23,0.23 -0.45,0.24 -0.36,0.11 -0.35,0.11 -0.79,0.12 v 1.27 h 19.19 v -1.27 h -0.46 l -0.35,-0.12 -0.79,-0.22 -0.47,-0.24 -0.24,-0.23 -0.34,-0.23 -0.21,-0.34 -0.36,-0.34 -0.11,-0.35 -0.24,-0.57 -0.22,-0.47 -0.23,-0.57 -0.12,-0.58 v -0.687 -0.803 0 -42.422 -0.462 -0.457 l 0.22,-0.577 0.12,-0.226 0.23,-0.233 h 0.23 l 0.11,-0.117 0.57,-0.228 0.69,-0.114 h 1.96 3.23 1.61 l 1.25,0.114 2.53,0.228 2.07,0.233 0.92,0.226 0.81,0.346 0.81,0.348 0.34,0.111 0.35,0.232 0.45,0.233 0.23,0.228 0.82,0.572 0.57,0.577 0.34,0.345 0.24,0.346 1.14,-0.578 -3.45,-10.115 z m 338.64,13.791 -1.59,0.117 -1.63,0.111 -1.6,0.233 -0.79,0.23 -0.81,0.229 -1.5,0.461 -1.39,0.574 -0.68,0.342 -0.81,0.349 -0.57,0.34 -0.57,0.348 -1.26,0.918 -0.47,0.459 -0.58,0.461 -0.45,0.572 -0.58,0.576 -0.34,0.463 -0.36,0.572 -0.34,0.578 -0.35,0.692 -0.23,0.572 -0.21,0.689 -0.14,0.694 -0.1,0.685 -0.12,0.809 v 0.689 0.803 l 0.12,0.805 0.1,0.691 v 0.807 l 0.14,0.691 0.21,0.571 0.58,1.152 0.57,1.144 0.35,0.461 0.34,0.463 0.81,0.918 0.92,0.809 0.92,0.687 1.04,0.69 1.14,0.457 1.05,0.576 1.26,0.463 1.25,0.457 2.42,0.807 2.41,0.572 2.42,0.803 2.18,0.578 1.05,0.345 0.92,0.457 0.91,0.344 0.8,0.459 0.71,0.461 0.34,0.348 0.34,0.342 0.33,0.693 0.48,0.687 0.11,0.461 v 0.346 l 0.11,0.457 v 0.463 0.576 l -0.11,0.57 v 0.463 l -0.24,0.575 -0.35,0.457 -0.33,0.578 -0.34,0.345 -0.24,0.342 -0.34,0.233 -0.58,0.345 -0.58,0.344 -0.81,0.34 -0.91,0.23 -1.03,0.24 -1.16,0.23 -1.14,0.11 h -1.38 -1.5 l -1.49,-0.23 -1.39,-0.23 -1.37,-0.23 -1.26,-0.35 -1.28,-0.454 -1.03,-0.461 -1.15,-0.578 -1.03,-0.572 -1.04,-0.574 -0.92,-0.69 -0.92,-0.689 -0.79,-0.809 -0.71,-0.687 -0.69,-0.805 -0.8,-0.803 -1.37,0.457 4.72,12.765 0.56,-0.11 0.47,-0.24 h 0.11 l 0.12,-0.23 0.22,-0.45 0.12,-0.24 0.11,-0.11 0.12,-0.12 0.22,-0.11 h 0.23 0.47 l 2.53,0.69 1.39,0.34 1.47,0.23 1.5,0.12 1.62,0.23 1.6,0.12 h 1.84 2.18 l 2.08,-0.23 1.04,-0.24 h 0.92 l 1.94,-0.57 0.81,-0.23 0.8,-0.23 1.61,-0.69 0.8,-0.35 0.7,-0.46 1.14,-0.8 0.7,-0.46 0.45,-0.58 0.58,-0.34 0.47,-0.58 0.45,-0.46 0.35,-0.569 0.68,-1.271 0.58,-1.377 0.22,-0.576 0.14,-0.69 0.21,-0.687 0.13,-0.807 v -1.496 -0.805 -0.685 l -0.13,-0.807 -0.21,-0.688 -0.14,-0.582 -0.1,-0.687 -0.57,-1.262 -0.24,-0.457 -0.34,-0.691 -0.69,-0.922 -0.81,-0.92 -1.03,-0.801 -0.91,-0.922 -1.15,-0.687 -1.16,-0.578 -1.03,-0.576 -1.27,-0.454 -1.37,-0.461 -2.53,-0.806 -2.54,-0.69 -2.41,-0.687 -2.19,-0.578 -1.02,-0.461 -1.05,-0.346 -0.92,-0.344 -0.79,-0.461 -0.81,-0.459 -0.24,-0.228 -0.34,-0.346 -0.34,-0.228 -0.13,-0.233 -0.34,-0.572 -0.35,-0.807 v -0.804 -0.346 -0.344 l 0.25,-0.689 0.34,-0.688 0.23,-0.576 0.35,-0.23 0.23,-0.233 0.45,-0.459 0.34,-0.113 0.36,-0.115 0.56,-0.348 0.71,-0.344 0.68,-0.117 1.61,-0.34 1.38,-0.119 0.68,-0.109 h 0.69 l 1.26,0.109 1.38,0.119 1.05,0.114 1.26,0.226 1.03,0.233 1.03,0.46 0.94,0.233 0.79,0.459 0.81,0.461 0.81,0.344 0.68,0.576 0.58,0.457 0.69,0.461 0.45,0.574 0.93,0.92 1.26,-0.459 -3.33,-10.463 -1.05,0.344 -0.1,0.113 -0.11,0.232 -0.13,0.575 -0.11,0.117 -0.12,0.115 -0.22,0.109 -0.47,-0.109 -1.25,-0.348 -1.05,-0.345 -1.26,-0.346 -1.26,-0.111 -1.61,-0.235 -0.92,-0.111 h -0.82 z m 371.69,0 -1.71,0.117 -1.62,0.111 -1.61,0.235 -0.67,0.23 -0.82,0.229 -1.61,0.461 -1.38,0.572 -0.69,0.342 -0.81,0.349 -0.56,0.342 -0.58,0.346 -1.27,0.92 -0.45,0.459 -0.58,0.459 -0.47,0.574 -0.44,0.576 -0.35,0.463 -0.47,0.572 -0.22,0.578 -0.34,0.692 -0.36,0.57 -0.22,0.691 -0.12,0.692 -0.1,0.687 -0.14,0.807 v 0.689 0.805 l 0.14,0.803 0.1,0.693 0.12,0.805 0.12,0.691 0.22,0.571 0.45,1.152 0.58,1.144 0.47,0.461 0.22,0.463 0.81,0.918 0.92,0.809 0.91,0.687 1.16,0.69 1.03,0.457 1.15,0.576 1.15,0.463 1.27,0.457 2.41,0.807 2.42,0.572 2.52,0.803 2.07,0.578 1.04,0.345 1.04,0.457 0.81,0.344 0.79,0.459 0.7,0.461 0.34,0.348 0.35,0.342 0.44,0.693 0.36,0.687 0.23,0.461 v 0.346 0.457 0.465 0.574 0.57 l -0.11,0.465 -0.24,0.573 -0.24,0.459 -0.34,0.576 -0.45,0.347 -0.23,0.34 -0.24,0.233 -0.57,0.345 -0.69,0.344 -0.81,0.35 -0.91,0.22 -0.93,0.24 -1.14,0.23 -1.14,0.11 h -1.4 -1.49 l -1.6,-0.23 -1.39,-0.23 -1.26,-0.23 -1.26,-0.35 -1.26,-0.454 -1.16,-0.461 -1.15,-0.578 -1.03,-0.57 -1.04,-0.574 -0.92,-0.69 -0.79,-0.691 -0.92,-0.807 -0.69,-0.689 -0.7,-0.805 -0.69,-0.803 -1.39,0.459 4.6,12.763 0.58,-0.11 0.57,-0.24 h 0.14 l 0.1,-0.23 0.11,-0.45 0.12,-0.24 0.11,-0.11 0.24,-0.12 0.1,-0.11 h 0.34 0.36 l 2.64,0.69 1.27,0.34 1.5,0.23 1.48,0.12 1.63,0.23 1.71,0.12 h 1.85 2.29 l 1.94,-0.23 0.94,-0.24 h 1.03 l 1.84,-0.57 0.81,-0.23 0.91,-0.23 1.61,-0.69 0.69,-0.35 0.7,-0.46 1.27,-0.8 0.56,-0.46 0.58,-0.58 0.56,-0.34 0.36,-0.58 0.58,-0.46 0.33,-0.567 0.59,-1.271 0.69,-1.379 0.22,-0.576 0.12,-0.69 0.1,-0.687 0.12,-0.807 0.11,-1.496 -0.11,-0.805 v -0.685 l -0.12,-0.807 -0.1,-0.688 -0.12,-0.582 -0.22,-0.687 -0.59,-1.262 -0.23,-0.457 -0.34,-0.691 -0.69,-0.922 -0.81,-0.92 -0.91,-0.801 -1.04,-0.922 -1.05,-0.687 -1.25,-0.578 -1.03,-0.576 -1.26,-0.454 -1.29,-0.461 -2.51,-0.806 -2.53,-0.69 -2.3,-0.687 -2.41,-0.578 -1.04,-0.461 -0.92,-0.346 -0.91,-0.344 -0.8,-0.461 -0.82,-0.459 -0.34,-0.228 -0.34,-0.346 -0.25,-0.228 -0.22,-0.233 -0.35,-0.572 -0.24,-0.807 -0.1,-0.804 v -0.346 -0.344 l 0.23,-0.689 0.35,-0.688 0.33,-0.576 0.25,-0.23 0.22,-0.233 0.46,-0.459 0.34,-0.113 0.34,-0.115 0.71,-0.348 0.57,-0.344 0.79,-0.117 1.5,-0.34 1.49,-0.119 0.69,-0.109 h 0.7 l 1.38,0.109 1.15,0.119 1.16,0.114 1.15,0.226 1.02,0.233 1.04,0.46 0.92,0.233 0.92,0.459 0.79,0.461 0.69,0.344 0.71,0.576 0.68,0.457 0.58,0.461 0.44,0.574 0.94,0.92 1.27,-0.459 -3.23,-10.463 -1.15,0.344 -0.12,0.113 v 0.232 l -0.12,0.575 -0.11,0.117 h -0.1 l -0.13,0.115 -0.22,0.109 -0.46,-0.109 -1.27,-0.348 -1.03,-0.345 -1.15,-0.346 -1.39,-0.111 -1.6,-0.235 -0.82,-0.111 h -0.79 z M 353,61.6 l -1.63,0.228 -1.6,0.233 -0.82,0.117 -0.67,0.229 -1.61,0.574 -1.39,0.576 -0.68,0.344 -0.82,0.23 -0.57,0.461 -0.58,0.346 -1.26,0.804 -0.45,0.577 -0.57,0.455 -0.47,0.576 -0.46,0.461 -0.33,0.691 -0.36,0.574 -0.35,0.461 -0.34,0.803 -0.23,0.574 -0.22,0.688 -0.13,0.578 -0.1,0.685 -0.13,0.694 v 0.806 0.801 l 0.13,0.805 0.1,0.807 v 0.691 l 0.13,0.57 0.22,0.692 0.57,1.265 0.58,1.035 0.34,0.459 0.35,0.577 0.7,0.918 0.92,0.693 0.45,0.346 0.47,0.341 1.03,0.69 1.15,0.578 1.16,0.455 1.15,0.576 1.26,0.346 2.42,0.92 2.41,0.572 2.51,0.576 2.19,0.69 1.05,0.457 0.92,0.463 0.92,0.343 0.79,0.579 0.71,0.457 0.34,0.349 0.34,0.225 0.46,0.691 0.35,0.805 0.1,0.23 v 0.461 l 0.11,0.459 v 0.459 0.573 l -0.11,0.461 v 0.576 l -0.23,0.58 -0.35,0.457 -0.33,0.572 -0.34,0.35 -0.25,0.228 -0.34,0.227 -0.57,0.35 -0.58,0.45 -0.79,0.35 -0.92,0.23 -1.05,0.23 -1.15,0.12 -1.13,0.11 -1.5,0.12 -1.5,-0.12 -1.49,-0.11 -1.39,-0.23 -1.26,-0.35 -1.39,-0.23 -1.26,-0.46 -1.03,-0.46 -1.15,-0.572 -1.03,-0.577 -1.05,-0.574 -0.91,-0.805 -0.81,-0.693 -0.79,-0.691 -0.71,-0.686 -0.69,-0.807 -0.79,-0.802 -1.38,0.574 4.6,12.643 0.57,-0.23 0.57,-0.1 v -0.13 l 0.12,-0.11 0.22,-0.46 0.13,-0.23 0.11,-0.11 0.23,-0.23 h 0.11 0.35 0.34 l 2.54,0.69 1.37,0.23 1.49,0.35 1.5,0.11 1.61,0.22 1.62,0.12 h 1.84 l 2.28,-0.12 2.08,-0.22 1.04,-0.11 1.03,-0.12 1.83,-0.46 0.82,-0.35 0.79,-0.11 1.62,-0.7 0.79,-0.22 0.71,-0.46 1.15,-0.92 0.69,-0.35 0.45,-0.57 0.57,-0.46 0.48,-0.58 0.44,-0.58 0.35,-0.57 0.69,-1.144 0.69,-1.379 0.11,-0.696 0.13,-0.576 0.21,-0.8 0.14,-0.69 V 93.334 92.53 91.61 l -0.14,-0.692 -0.21,-0.691 -0.13,-0.686 -0.11,-0.693 -0.58,-1.149 -0.23,-0.687 -0.34,-0.463 -0.69,-1.035 -0.81,-0.918 -0.92,-0.918 -1.02,-0.576 -1.15,-0.694 -1.16,-0.687 -1.03,-0.574 -1.26,-0.573 -1.39,-0.347 -2.52,-0.922 -2.54,-0.688 -2.41,-0.687 -2.29,-0.693 -1.05,-0.344 -1.02,-0.344 -0.93,-0.459 -0.81,-0.346 -0.68,-0.461 -0.34,-0.228 -0.35,-0.229 -0.23,-0.347 -0.23,-0.342 -0.35,-0.576 -0.33,-0.576 V 72.18 71.832 71.373 l 0.23,-0.685 0.33,-0.574 0.35,-0.696 0.23,-0.113 0.22,-0.344 0.47,-0.459 0.34,-0.119 0.34,-0.111 0.58,-0.461 0.69,-0.233 0.7,-0.113 1.6,-0.344 1.5,-0.23 h 0.68 0.71 1.26 l 1.36,0.113 1.05,0.233 1.26,0.228 1.03,0.231 1.04,0.345 0.93,0.461 0.79,0.342 0.81,0.459 0.81,0.459 0.69,0.578 0.58,0.346 0.68,0.574 0.46,0.461 0.92,0.918 1.27,-0.346 -3.33,-10.578 -1.06,0.348 h -0.1 l -0.11,0.23 -0.13,0.572 -0.1,0.118 V 63.1 l -0.11,0.107 h -0.24 -0.46 l -1.27,-0.455 -1.03,-0.232 -1.27,-0.34 -1.26,-0.117 -1.61,-0.233 -0.92,-0.113 -0.81,-0.115 h -1.94 v 0 z m -152.56,0.58 v 1.379 h 0.79 l 0.47,0.228 0.34,0.116 0.47,0.23 0.22,0.229 0.34,0.232 0.23,0.346 0.23,0.341 0.24,0.346 0.34,0.918 0.24,1.266 0.1,0.574 v 0.807 29.777 0.803 l -0.1,0.578 -0.24,1.26 -0.11,0.46 -0.23,0.46 -0.24,0.35 -0.11,0.45 -0.35,0.35 -0.34,0.23 -0.58,0.46 -0.8,0.34 h -0.47 l -0.44,0.12 v 1.27 0 h 36.77 l 3.35,-9.551 -1.04,-0.23 -0.7,0.689 -0.55,0.58 -0.82,0.688 -0.58,0.457 -0.67,0.463 -0.7,0.345 -0.7,0.342 -0.92,0.227 -0.68,0.12 -0.69,0.23 -1.49,0.23 -1.62,0.23 h -1.6 -10.24 -0.91 l -0.7,-0.23 -0.58,-0.12 -0.22,-0.22 -0.12,-0.24 -0.23,-0.11 -0.1,-0.232 -0.13,-0.346 -0.12,-0.226 -0.1,-0.805 -0.12,-1.037 V 85.862 h 11.62 l 1.36,0.111 1.16,0.115 0.47,0.115 0.56,0.116 0.36,0.115 0.34,0.113 0.22,0.231 0.24,0.232 0.33,0.346 0.13,0.23 0.23,0.344 v 0.346 l 0.22,0.802 h 1.28 V 77.01 h -1.28 l -0.22,0.807 -0.23,0.572 -0.24,0.346 -0.22,0.345 -0.24,0.114 -0.22,0.232 -0.47,0.232 -0.35,0.112 -0.91,0.23 -0.69,0.115 h -0.47 l -1.36,0.116 h -11.62 v -9.426 l 0.12,-0.807 0.1,-0.804 0.25,-0.577 0.1,-0.23 0.23,-0.229 0.34,-0.345 0.58,-0.233 h 0.34 l 0.35,-0.113 h 0.92 8.5 1.62 l 0.8,0.113 0.8,0.118 0.69,0.113 0.71,0.232 0.69,0.115 0.67,0.227 0.71,0.346 0.69,0.345 1.26,0.803 0.45,0.463 0.58,0.572 0.69,0.576 0.45,0.577 1.16,-0.463 -3.33,-9.424 z m 105.18,0 -10.45,25.518 -6.56,15.062 -1.73,1.73 -1.15,-1.04 -1.36,-1.16 -0.25,-0.45 -0.45,-0.46 -0.92,-1.27 -1.73,-2.411 -1.6,-2.296 -1.49,-2.073 -1.29,-2.072 -1.36,-1.949 -1.26,-2.299 -2.88,-4.603 -0.72,0.169 10.48,-13.732 0.58,-0.574 0.36,-0.576 0.56,-0.457 0.36,-0.577 1.02,-0.689 0.92,-0.578 0.92,-0.344 0.91,-0.457 0.93,-0.232 0.92,-0.114 v -1.263 h -16.33 v 1.263 h 0.34 0.47 l 0.24,0.231 0.33,0.115 0.35,0.232 0.24,0.229 0.1,0.228 0.11,0.346 v 0.229 l 0.13,0.345 -0.13,0.344 -0.11,0.348 -0.23,0.803 -0.58,0.808 -7.12,9.309 -6.09,-8.508 -0.34,-0.574 -0.36,-0.459 -0.21,-0.576 v -0.457 l -0.14,-0.465 0.14,-0.455 v -0.346 l 0.1,-0.346 0.11,-0.346 0.36,-0.228 0.22,-0.229 0.23,-0.232 0.34,-0.115 0.47,-0.231 h 0.23 0.45 v -1.263 h -20.58 v 1.263 h 0.47 l 0.58,0.114 0.92,0.345 0.34,0.233 0.35,0.111 0.68,0.576 0.82,0.574 0.67,0.805 0.82,0.926 0.79,1.146 12.63,16.038 -11.01,14.425 -0.92,1.031 -1.05,1.04 -1.02,0.92 -1.05,0.69 -1.02,0.69 -1.05,0.45 -0.9,0.35 -0.47,0.12 h -0.47 v 1.26 h 16.67 v -1.26 h -0.68 -0.35 l -0.34,-0.23 -0.46,-0.35 -0.22,-0.23 -0.13,-0.23 -0.11,-0.23 -0.11,-0.46 v -0.23 -0.46 l 0.11,-0.34 0.24,-0.46 0.34,-0.46 0.24,-0.58 7.69,-10.113 6.78,9.309 0.47,0.804 0.33,0.58 0.25,0.57 0.1,0.57 v 0.46 l -0.1,0.35 -0.13,0.35 -0.21,0.46 -0.35,0.11 -0.24,0.23 -0.34,0.23 -0.34,0.23 -0.7,0.12 h -0.58 v 1.26 h 18.4 v 0 h 10.92 v -1.27 h -0.45 l -0.36,-0.12 h -0.21 l -0.48,-0.1 -0.33,-0.12 -0.24,-0.23 -0.35,-0.23 -0.34,-0.23 -0.1,-0.46 -0.24,-0.46 -0.11,-0.34 v -0.58 -0.58 l 0.23,-0.69 0.12,-0.686 2.63,-6.211 h 18.4 l 2.41,5.869 0.35,0.798 0.12,0.69 0.1,0.81 v 0.46 0.34 l -0.1,0.12 -0.12,0.46 -0.24,0.46 -0.34,0.23 -0.45,0.46 -0.69,0.22 -0.7,0.12 h -0.44 v 1.27 h 19.3 v -1.27 l -0.92,-0.12 -0.8,-0.45 -0.92,-0.46 -0.69,-0.8 -0.81,-0.7 -0.58,-0.68 -0.34,-0.47 -0.11,-0.34 -0.47,-0.806 -16.09,-37.82 z m 124.34,0.105 v 1.266 l 0.92,0.109 0.81,0.346 0.69,0.461 0.34,0.117 0.36,0.344 0.11,0.344 0.23,0.345 0.22,0.465 0.13,0.459 0.1,0.573 0.13,0.574 0.11,0.689 v 0.692 29.888 0.926 l -0.11,0.567 -0.13,0.7 -0.1,0.45 -0.24,0.46 -0.11,0.46 -0.23,0.35 -0.23,0.45 -0.35,0.24 -0.34,0.23 -0.24,0.23 -0.34,0.23 -0.33,0.11 -0.48,0.12 -0.45,0.11 -0.47,0.11 v 1.39 h 13.92 v -1.39 l -0.69,-0.11 -0.47,-0.23 h -0.44 l -0.58,-0.46 -0.34,-0.34 -0.25,-0.24 -0.33,-0.45 -0.24,-0.23 -0.11,-0.58 -0.23,-0.46 -0.1,-0.46 -0.13,-0.69 -0.11,-0.567 V 98.955 75.047 l 29.89,31.613 h 1.61 v -37.476 -0.69 l 0.1,-0.576 0.24,-1.265 0.24,-0.459 0.21,-0.459 0.13,-0.346 0.33,-0.461 0.35,-0.344 0.24,-0.115 0.8,-0.461 0.22,-0.23 0.48,-0.116 h 0.33 l 0.47,-0.109 v -1.266 h -13.91 v 1.266 l 0.8,0.109 0.81,0.346 0.67,0.461 0.24,0.23 0.35,0.346 0.23,0.342 0.34,0.346 v 0.459 l 0.24,0.461 0.1,0.572 0.11,0.693 0.13,0.576 v 0.69 17.931 l -22.89,-24.83 z m 129.68,0 v 1.266 l 0.81,0.109 0.35,0.116 0.34,0.23 0.7,0.461 0.35,0.117 0.22,0.344 0.35,0.459 0.11,0.346 0.24,0.459 0.23,0.461 0.11,0.572 0.1,0.693 0.13,0.576 v 0.69 29.771 0.807 0.688 l -0.13,0.69 -0.21,0.35 -0.13,0.57 -0.21,0.46 -0.13,0.35 -0.34,0.45 -0.34,0.24 -0.24,0.34 -0.69,0.35 -0.35,0.11 -0.46,0.23 -0.34,0.11 h -0.47 v 1.27 h 17.95 v -1.27 l -0.81,-0.11 -0.33,-0.23 -0.48,-0.11 -0.68,-0.35 -0.34,-0.34 -0.24,-0.24 -0.45,-0.8 -0.24,-0.46 -0.1,-0.57 -0.13,-0.35 -0.1,-0.69 -0.13,-0.688 v -0.807 -11.838 0 l -0.1,-1.726 v -1.834 -1.844 0 -0.346 -9.884 -0.459 -0.807 l 0.11,-0.461 0.13,-0.572 0.23,-0.461 0.1,-0.346 0.46,-0.228 0.47,-0.233 0.34,-0.23 0.47,-0.115 h 1.15 2.06 2.17 1.16 0.7 0.56 l 0.7,0.115 0.79,0.23 0.59,0.233 0.69,0.228 0.69,0.346 0.58,0.344 0.57,0.345 0.56,0.573 0.47,0.459 0.47,0.461 0.21,0.802 0.35,0.58 0.23,0.686 0.13,0.691 0.1,0.809 -0.1,0.685 -0.13,0.577 -0.11,0.576 -0.34,0.689 -0.23,0.461 -0.35,0.576 -0.57,0.571 -0.34,0.343 -0.59,0.577 -0.23,0.117 -0.23,0.226 -0.56,0.235 -1.27,0.689 -0.69,0.342 -0.69,0.23 -0.92,0.237 h -1.39 -1.73 l -1.84,0.109 h -3.43 -1.49 l 0.1,5.404 h 6.1 1.03 0.45 l 0.34,0.112 0.47,0.119 0.34,0.23 0.81,0.346 0.58,0.463 0.57,0.451 0.58,0.695 0.45,0.573 0.58,0.576 0.34,0.92 0.81,1.609 1.6,3.565 0.81,1.834 0.35,0.923 0.57,0.807 0.46,0.92 0.68,0.69 0.58,0.69 0.7,0.68 0.8,0.81 0.91,0.46 0.92,0.58 1.05,0.46 1.15,0.34 1.37,0.23 0.58,0.11 0.68,0.11 h 1.62 0.93 l 1.02,-0.11 0.92,-0.23 0.82,-0.11 1.38,-0.46 0.9,-0.46 v -1.03 l -0.68,-0.12 -0.68,-0.12 -0.59,-0.23 -0.47,-0.23 -0.55,-0.34 -0.47,-0.46 -0.58,-0.46 -0.45,-0.57 -0.92,-1.04 -0.47,-0.69 -0.34,-0.684 -0.92,-1.498 -0.92,-1.492 -0.91,-1.726 -1.05,-1.616 -1.26,-1.605 -0.57,-0.688 -0.7,-0.804 -0.68,-0.809 -0.69,-0.683 -0.69,-0.694 -0.8,-0.574 -0.94,-0.691 -0.9,-0.573 -0.92,-0.465 -1.05,-0.457 1.61,-0.343 0.92,-0.229 1.05,-0.348 1.03,-0.345 1.04,-0.344 0.92,-0.576 1.02,-0.457 0.35,-0.457 0.58,-0.237 0.81,-0.691 0.34,-0.457 0.33,-0.459 0.7,-0.807 0.36,-0.685 0.21,-0.459 0.13,-0.693 0.21,-0.692 0.24,-0.572 0.12,-0.69 v -0.802 l 0.11,-0.805 v -0.809 l -0.11,-0.685 -0.12,-0.694 -0.1,-0.576 -0.25,-0.804 -0.1,-0.573 -0.34,-0.459 -0.24,-0.578 -0.35,-0.459 -0.33,-0.578 -0.47,-0.459 -0.34,-0.459 -0.48,-0.34 -0.44,-0.463 -0.57,-0.345 -0.47,-0.346 -1.14,-0.689 -0.58,-0.231 -0.81,-0.346 -0.58,-0.111 -0.68,-0.234 -1.5,-0.455 -1.49,-0.233 -1.6,-0.228 -1.73,-0.114 h -1.73 z m 231.69,0 v 1.266 l 0.79,0.109 0.47,0.116 0.34,0.23 0.68,0.461 0.35,0.117 0.24,0.344 0.23,0.459 0.35,0.346 0.1,0.459 0.12,0.461 0.24,0.572 0.11,0.693 v 0.576 l 0.1,0.69 v 17.933 l -22.99,-24.83 h -12.52 v 1.266 l 0.79,0.109 0.81,0.346 0.34,0.119 0.36,0.227 0.35,0.23 0.21,0.344 0.34,0.344 0.13,0.345 0.11,0.465 0.23,0.459 0.11,0.573 0.12,0.574 v 0.689 0.692 29.888 0.926 0.687 l -0.34,1.03 -0.23,0.46 -0.13,0.58 -0.56,0.69 -0.23,0.23 -0.24,0.34 -0.81,0.46 -0.34,0.12 -0.34,0.11 -0.69,0.11 v 1.39 h 13.91 v -1.39 l -0.81,-0.11 -0.34,-0.11 -0.34,-0.12 -0.35,-0.23 -0.36,-0.23 -0.33,-0.34 -0.22,-0.24 -0.35,-0.34 -0.36,-0.34 -0.1,-0.58 -0.24,-0.46 -0.11,-0.46 -0.23,-0.57 V 99.883 98.955 75.047 l 29.77,31.613 h 1.73 v -37.476 -0.69 -0.576 l 0.13,-0.693 0.1,-0.572 0.24,-0.461 0.35,-0.459 0.1,-0.346 0.34,-0.459 0.35,-0.344 0.23,-0.117 0.81,-0.461 0.23,-0.23 0.45,-0.116 h 0.35 l 0.36,-0.109 v -1.266 z m -272.27,0 -3.33,10.002 1.04,0.457 1.37,-1.722 0.71,-0.69 0.68,-0.578 0.58,-0.572 0.57,-0.348 0.69,-0.228 0.57,-0.344 0.69,-0.115 0.81,-0.233 0.79,-0.117 0.94,-0.113 h 0.92 l 1.14,-0.115 h 2.54 0.79 l 0.47,0.115 0.44,0.23 0.36,0.348 0.23,0.344 0.22,0.576 0.12,0.689 v 1.032 28.171 0.805 l -0.12,0.571 v 0.58 l -0.1,0.57 -0.23,0.46 -0.12,0.45 -0.22,0.35 -0.24,0.35 -0.23,0.34 -0.35,0.23 -0.23,0.24 -0.45,0.23 -0.81,0.34 -0.92,0.11 v 1.38 h 17.95 v -1.38 l -0.94,-0.11 -0.34,-0.11 -0.46,-0.23 -0.57,-0.47 -0.34,-0.11 -0.35,-0.35 -0.12,-0.45 -0.34,-0.35 -0.35,-0.92 -0.23,-1.15 V 99.881 99.074 70.905 69.873 l 0.11,-0.691 0.23,-0.574 0.13,-0.233 0.21,-0.113 0.24,-0.231 v -0.115 l 0.57,-0.23 0.59,-0.117 h 0.68 2.53 l 1.03,0.115 h 1.03 l 0.81,0.113 0.81,0.117 0.79,0.233 0.71,0.115 0.57,0.344 0.69,0.228 0.58,0.348 0.57,0.572 0.7,0.578 0.57,0.69 1.37,1.722 1.15,-0.457 -3.44,-10.002 z m 85.31,0 v 1.266 l 0.82,0.109 0.34,0.116 0.34,0.119 0.34,0.23 0.35,0.227 0.23,0.23 0.34,0.344 0.47,0.691 0.23,0.575 0.22,0.459 0.24,0.687 0.12,0.578 v 0.231 0.345 l 0.11,0.69 v 22.306 1.258 0.924 l 0.24,1.149 0.11,0.574 0.1,0.344 0.34,1.041 0.24,0.802 0.47,0.805 0.34,0.803 0.57,0.806 0.45,0.686 0.7,0.69 0.59,0.46 0.56,0.58 0.8,0.46 0.69,0.58 0.71,0.33 0.79,0.58 0.81,0.23 0.68,0.46 0.92,0.35 1.73,0.46 1.6,0.46 1.62,0.23 1.61,0.22 1.6,0.12 h 1.49 1.5 l 1.5,-0.12 1.5,-0.22 1.6,-0.23 0.92,-0.24 0.81,-0.22 1.61,-0.58 0.69,-0.34 0.79,-0.35 0.71,-0.34 0.79,-0.47 0.69,-0.33 0.7,-0.58 0.58,-0.58 0.79,-0.46 0.47,-0.57 0.58,-0.69 0.57,-0.576 0.45,-0.808 0.47,-0.803 0.34,-0.916 0.35,-0.811 0.34,-1.035 0.24,-0.918 v -1.035 -1.039 l 0.1,-1.258 v -22.189 -0.69 l 0.11,-0.576 0.23,-1.265 0.24,-0.459 0.23,-0.459 0.1,-0.346 0.35,-0.461 0.24,-0.344 0.34,-0.115 0.7,-0.461 0.34,-0.23 0.35,-0.116 h 0.34 l 0.45,-0.109 V 62.285 H 637.6 v 1.266 l 0.81,0.109 0.34,0.116 0.34,0.23 0.8,0.461 0.24,0.115 0.34,0.344 0.23,0.461 0.24,0.346 0.22,0.459 0.12,0.459 0.23,0.687 0.1,0.578 v 0.576 l 0.14,0.69 v 22.189 l -0.14,0.69 v 0.683 l -0.1,0.58 -0.12,0.577 -0.34,1.146 -0.35,1.039 -0.57,0.916 -0.24,0.346 -0.34,0.461 -0.35,0.342 -0.23,0.347 -0.44,0.348 -0.48,0.34 -0.8,0.574 -0.91,0.46 -0.92,0.46 -1.05,0.35 -1.01,0.23 -1.16,0.23 h -1.16 -1.26 -1.15 -1.26 l -1.15,-0.23 -1.14,-0.23 -0.94,-0.35 -0.91,-0.46 -0.92,-0.46 -0.92,-0.574 -0.69,-0.688 -0.58,-0.689 -0.57,-0.807 -0.24,-0.572 -0.21,-0.344 -0.35,-1.039 -0.23,-1.146 -0.11,-0.577 v -0.58 l -0.13,-1.373 v -22.189 -0.69 l 0.13,-0.576 0.22,-1.265 0.12,-0.459 0.22,-0.575 0.58,-0.691 0.23,-0.344 0.34,-0.23 0.69,-0.457 0.35,-0.119 0.35,-0.116 0.8,-0.109 v -1.266 z m 50.14,0 v 1.375 h 0.69 l 0.46,0.116 0.34,0.117 0.34,0.232 0.35,0.227 0.24,0.23 0.34,0.231 0.34,0.345 0.11,0.344 0.23,0.461 0.24,0.457 0.1,0.35 v 0.342 l 0.13,0.687 0.11,0.348 v 0.345 0.69 29.894 0.805 l -0.11,0.689 -0.24,1.03 -0.23,0.46 -0.23,0.58 -0.45,0.68 -0.35,0.35 -0.23,0.23 -0.69,0.46 -0.34,0.23 h -0.46 l -0.69,0.11 v 1.39 h 14.02 v -1.39 l -0.69,-0.11 -0.81,-0.23 -0.34,-0.23 -0.47,-0.23 -0.21,-0.23 -0.35,-0.35 -0.36,-0.34 -0.1,-0.35 -0.35,-0.57 -0.24,-0.46 -0.1,-0.46 -0.23,-0.57 v -0.689 -0.805 -21.73 l 16.67,29.544 h 0.92 l 15.98,-28.741 v 20.927 0.805 l -0.12,0.689 -0.12,1.03 -0.23,0.46 -0.22,0.58 -0.46,0.68 -0.34,0.35 -0.35,0.23 -0.57,0.46 -0.47,0.23 h -0.35 l -0.68,0.11 v 1.39 h 18.17 v -1.39 l -0.7,-0.11 -0.8,-0.23 -0.35,-0.23 -0.46,-0.23 -0.24,-0.23 -0.35,-0.35 -0.33,-0.34 -0.11,-0.35 -0.35,-0.57 -0.22,-0.46 -0.11,-0.46 -0.14,-0.57 v -0.689 -0.807 0 -29.892 -0.69 -0.693 l 0.13,-0.687 0.11,-0.692 0.23,-0.457 0.23,-0.461 0.22,-0.344 0.23,-0.345 0.69,-0.461 0.24,-0.227 0.33,-0.232 0.35,-0.117 0.34,-0.116 h 0.81 V 62.287 H 699.8 L 683.59,91.028 668.77,62.287 Z m 63.22,0 v 1.375 h 0.47 0.33 l 0.7,0.346 0.47,0.232 0.22,0.231 0.34,0.23 0.35,0.346 0.24,0.342 0.21,0.346 0.23,0.576 0.13,0.461 0.22,0.568 0.12,0.578 v 0.692 0.574 29.771 0.805 0.692 l -0.23,1.03 -0.11,0.47 -0.22,0.57 -0.25,0.34 -0.1,0.35 -0.35,0.34 -0.36,0.23 -0.69,0.47 -0.79,0.34 -0.46,0.11 h -0.47 v 1.38 h 36.91 l 3.33,-9.424 -1.14,-0.337 -0.57,0.683 -0.59,0.578 -0.8,0.688 -0.68,0.463 -0.58,0.457 -0.69,0.345 -0.81,0.35 -0.81,0.227 -0.68,0.23 -0.81,0.11 -1.5,0.35 -1.5,0.11 h -1.6 -10.34 -0.92 l -0.69,-0.11 -0.58,-0.23 -0.23,-0.23 -0.24,-0.12 -0.1,-0.11 -0.24,-0.348 -0.1,-0.229 v -0.345 l -0.13,-0.803 v -0.916 -11.5 h 11.39 l 1.49,0.115 1.26,0.114 0.48,0.115 0.55,0.117 0.24,0.113 0.47,0.112 0.21,0.232 0.24,0.342 0.23,0.119 0.24,0.346 0.1,0.345 0.14,0.231 0.21,0.918 h 1.15 V 77.235 h -1.15 l -0.21,0.578 -0.24,0.687 -0.23,0.229 -0.24,0.344 -0.58,0.347 -0.33,0.231 -0.35,0.115 -0.92,0.346 -1.26,0.111 h -1.5 -11.38 V 70.908 69.99 l 0.12,-0.802 0.11,-0.461 0.24,-0.229 0.1,-0.23 0.48,-0.233 0.58,-0.23 0.21,-0.115 h 0.48 l 0.92,-0.116 h 8.39 l 1.71,0.116 h 0.94 l 0.79,0.115 0.69,0.115 0.69,0.233 0.7,0.115 0.68,0.23 0.68,0.229 0.58,0.344 1.28,0.806 0.56,0.461 0.58,0.57 0.57,0.577 0.58,0.576 1.16,-0.35 -3.34,-9.424 z m 91.64,0 -3.45,10.002 1.16,0.459 1.37,-1.724 0.68,-0.688 0.57,-0.58 0.58,-0.572 0.69,-0.348 0.7,-0.226 0.58,-0.346 0.68,-0.115 0.81,-0.231 0.79,-0.117 0.93,-0.113 h 1.04 l 1.03,-0.117 h 2.65 0.58 l 0.55,0.117 0.47,0.23 0.24,0.346 0.34,0.344 0.1,0.576 0.14,0.689 0.1,1.032 v 28.169 l -0.1,0.807 v 0.571 l -0.14,0.58 -0.1,0.57 -0.11,0.46 -0.24,0.45 -0.1,0.35 -0.24,0.34 -0.36,0.35 -0.21,0.23 -0.34,0.23 -0.35,0.24 -0.92,0.34 -0.93,0.11 v 1.38 h 18.16 v -1.38 l -0.8,-0.11 -0.46,-0.12 -0.45,-0.22 -0.7,-0.47 -0.23,-0.11 -0.22,-0.35 -0.35,-0.46 -0.23,-0.34 -0.11,-0.46 -0.13,-0.46 -0.23,-1.15 -0.11,-0.569 V 99.076 70.907 69.875 l 0.25,-0.691 0.1,-0.574 0.13,-0.233 0.11,-0.113 0.23,-0.231 0.24,-0.115 0.45,-0.23 0.47,-0.117 h 0.69 2.52 l 1.15,0.117 h 0.92 l 0.92,0.113 0.81,0.117 0.68,0.231 0.8,0.115 0.59,0.346 0.56,0.226 0.7,0.348 0.45,0.572 0.58,0.58 0.81,0.688 1.37,1.724 1.05,-0.459 -3.34,-10.002 z m -501.8,7.362 7.13,18.049 h -14.13 z"></path></svg>