<?xml version="1.0"?>
<!--?xml version="1.0" encoding="UTF-8" standalone="no"?-->
<svg xmlns="http://www.w3.org/2000/svg" viewBox="0 0 803.77 189.46" height="189.46" width="803.77">
   <path d="m 364.93,63.898 c 0,-4.068 -2.03,-6.101 -4.74,-6.101 -4.07,-0.678 -4.75,5.423 -4.75,5.423 0,0 -0.68,-4.746 2.71,-8.134 2.04,-2.035 6.1,-5.424 11.53,-4.068 6.1,1.355 8.13,6.101 8.13,10.167 v 56.265 c 0,0 2.03,0.68 3.39,0.68 2.03,0.68 3.39,0.68 3.39,0.68 V 51.018 h 0.68 v 9.49 l 12.2,-10.168 9.49,8.134 4.06,-3.388 h 0.68 l -4.74,4.066 v 52.198 c 0,3.39 -0.68,6.78 -4.07,8.81 -6.78,4.75 -15.59,-0.68 -23.72,-1.35 -5.43,-1.36 -14.24,-2.04 -16.95,3.38 -0.68,1.36 -0.68,4.07 2.03,6.11 5.43,3.39 28.47,-6.11 36.61,-2.04 7.45,3.39 7.45,8.14 6.1,12.21 -2.03,6.77 -10.85,8.13 -10.85,8.13 0,0 4.75,-2.71 3.39,-6.78 -0.68,-2.04 -2.03,-2.71 -6.78,-2.04 -10.16,1.36 -21.69,6.11 -29.82,2.72 -4.07,-2.03 -7.46,-6.78 -6.78,-12.2 0,-7.46 8.81,-10.17 8.81,-10.17 V 91.011 c -0.68,-0.676 -4.74,-0.676 -6.1,1.357 -1.35,3.39 2.04,4.747 2.04,4.747 0,0 -2.72,0 -5.43,-2.713 -0.68,-1.357 -3.39,-5.424 0,-10.167 2.04,-3.391 5.43,-4.067 9.49,-4.067 z m 20.34,55.582 c 0,0 4.06,0.68 6.1,-1.35 3.39,-2.71 2.71,-5.43 2.71,-5.43 V 91.692 c 0,0 -1.36,-2.714 -4.07,-2.714 -2.71,0 -4.74,2.714 -4.74,2.714 z m 8.81,-55.582 -5.42,-4.746 -3.39,2.033 v 19.659 c 0,0 2.03,2.034 4.74,2.034 2.71,0 4.07,-2.034 4.07,-2.034 z m 0,18.303 c 0,0 -1.36,1.353 -4.07,1.353 -2.71,0 -4.74,-1.353 -4.74,-1.353 v 8.134 c 0,0 2.03,-2.034 4.74,-2.034 2.71,0 4.07,2.034 4.07,2.034 z m 98.31,-16.947 c 0,-4.746 -2.06,-7.457 -4.78,-7.457 l 15.59,-10.17 v 60.333 l 4.08,4.07 2.73,-2.71 0.66,0.67 -12.21,10.85 -8.13,-8.14 -3.38,3.4 -0.66,-0.68 6.1,-5.43 z m 11.51,27.114 13.57,-20.333 c 0,0 2.02,2.029 5.41,2.709 4.08,1.353 8.12,-2.709 8.12,-2.709 -0.66,5.419 -3.38,11.519 -9.49,12.2 -4.74,0.676 -9.48,-3.391 -9.48,-3.391 l -0.66,2.034 18.97,29.152 4.04,-3.39 0.7,0.68 -13.57,11.52 z m -31.88,-12.2 7.47,-7.457 c 0,0 0.7,0.677 2.06,1.353 0.66,0.68 2.68,1.357 4.74,0.68 1.32,-0.68 1.32,-1.356 2.68,-2.033 0,6.1 -2.68,10.167 -6.1,11.524 -2.02,0.676 -6.11,2.033 -10.85,-3.391 v 27.796 l 5.44,4.06 3.39,-2.71 h 0.7 l -12.21,10.85 -9.49,-8.81 -3.42,3.39 -0.66,-0.68 4.74,-4.75 V 86.268 l -3.38,-5.424 -3.38,2.71 h -0.7 l 12.21,-10.843 z m -23.71,2.71 3.38,-2.71 h 0.7 l -3.38,3.386 v 25.766 c 0,0 -6.81,3.38 -10.85,6.1 -4.75,2.71 -9.53,5.42 -9.53,5.42 l -12.18,-10.16 -2.71,2.71 h -0.68 l 3.39,-3.4 v -27.789 0 c 0,0 5.42,-2.033 10.16,-4.747 4.08,-2.71 8.83,-5.419 8.83,-5.419 z m -20.34,23.052 9.49,8.81 V 86.945 l -9.49,-8.81 z m 312.51,18.3 c -1.36,0.68 -6.76,-0.68 -8.12,-6.78 -1.37,-6.1 2.72,-9.49 8.78,-16.27 l -7.42,-6.102 V 82.201 c 0,0 5.4,-2.033 9.48,-4.747 4.05,-2.71 8.13,-5.419 8.13,-5.419 0,0 3.38,4.062 6.76,3.386 5.45,-0.677 5.45,-4.744 4.75,-5.421 1.36,1.355 3.42,6.097 -6.11,17.625 l 8.17,6.1 v 16.265 c 0,0 -9.49,4.75 -17.65,10.85 0,0 -4.75,-6.1 -8.79,-3.39 -3.38,2.03 -2.06,5.42 2.02,6.78 z m -6.76,-12.2 c 0,0 4.04,-6.78 11.5,-5.42 6.77,1.35 8.83,8.13 8.83,8.13 V 98.468 l -4.74,-4.066 c -4.75,5.423 -14.23,12.878 -15.59,17.628 z m 10.84,-34.576 v 12.881 l 4.05,4.067 c 0,0 9.48,-7.457 12.87,-14.91 0,0 -4.05,6.1 -10.15,4.062 -4.74,-1.353 -6.77,-6.1 -6.77,-6.1 z M 592.04,44.916 c 2.02,0 5.41,0.678 8.13,3.391 2.02,2.033 2.72,6.099 2.02,9.49 -0.66,2.711 -2.02,4.746 -4.74,6.779 -3.39,2.033 -6.77,2.033 -6.77,2.033 v 12.883 l 6.1,5.419 -6.1,4.747 v 18.302 c 0,0 6.1,-4.07 10.15,-12.202 0,0 0,0 0.7,-1.356 0,2.713 0,6.778 -2.72,12.878 -1.36,4.07 -5.45,8.14 -9.49,10.85 -7.47,4.06 -13.57,4.06 -19.67,3.39 -6.77,-2.04 -13.57,-6.1 -17.62,-12.88 -3.38,-4.75 -4.74,-10.848 -4.74,-16.948 0,-12.2 9.49,-22.37 19.64,-26.438 1.36,-0.678 2.06,-0.678 4.08,-0.678 -1.36,0 -2.02,0.678 -3.38,2.033 -3.39,2.033 -6.11,6.102 -7.47,9.488 l 20.33,-8.81 v 28.471 l -16.25,8.132 c 2.02,2.72 7.43,6.79 12.21,6.79 8.13,1.35 12.87,-2.72 12.87,-2.72 V 89.658 l -6.1,-4.747 6.1,-5.419 V 66.609 c -3.38,-0.678 -7.47,-2.033 -10.19,-2.711 -3.38,-0.678 -15.59,-4.068 -17.61,-4.068 -1.36,-0.678 -4.08,-0.678 -5.44,0.678 -1.32,1.357 -2.02,3.39 -2.02,5.423 0.7,1.356 1.36,2.034 2.02,2.711 0,0 -0.66,0 -2.02,-0.677 -2.03,-1.356 -4.05,-4.067 -4.05,-7.457 -0.7,-4.067 1.32,-8.135 4.75,-10.846 3.38,-2.035 6.76,-3.39 10.84,-2.713 6.07,0.678 14.23,4.069 21,6.102 3.38,0.677 5.44,0.677 7.46,-0.678 0.66,-0.678 2.02,-2.033 0.66,-4.066 -1.36,-2.713 -4.04,-2.713 -6.76,-3.391 2.02,-0.678 2.72,-0.678 4.08,0 z M 568.29,101.18 V 73.388 l -8.13,4.066 c 0,0 -2.72,4.747 -2.02,11.524 0,5.424 3.38,11.522 5.4,14.242 z m 35.92,-39.315 8.16,-7.459 7.43,7.459 L 611.01,70 Z M 620.5,107.28 V 82.878 l 4.08,-3.386 v -0.681 l -4.08,3.39 -8.13,-9.49 -11.54,10.167 3.38,-2.71 4.74,6.1 v 24.412 l -3.38,3.38 0.7,0.68 3.38,-3.39 8.13,9.49 11.55,-10.16 -0.7,-0.69 -3.39,2.71 z m 33.9,2.04 -2.06,2.03 8.17,8.81 8.78,-8.13 -3.38,-3.39 V 82.201 l 2.02,-2.033 6.81,7.457 v 21.015 l -2.06,2.04 8.82,10.16 12.21,-11.52 -0.7,-0.68 -2.68,2.71 -4.75,-4.74 V 82.201 l 4.05,-3.39 v -0.676 l -4.75,3.386 -8.12,-8.81 -11.51,8.81 -8.16,-8.81 -11.51,8.81 -8.13,-8.81 -12.21,10.843 h 0.66 l 3.43,-2.71 5.4,6.101 v 21.695 l -2.72,2.04 8.82,10.16 8.83,-8.81 -3.42,-4.07 V 82.201 l 2.06,-2.033 6.1,7.457 z m 64.39,-37.285 c 0,0 -6.77,4.062 -10.85,6.776 -4.08,2.033 -9.49,4.743 -9.49,4.743 v 26.436 l -4.08,2.71 0.7,0.69 3.38,-2.71 11.51,10.16 20.33,-15.59 -0.66,-0.68 -10.84,8.82 -9.49,-8.82 v -2.71 l 18.31,-13.559 z m 0,21.69 -9.49,6.775 V 78.135 Z m -427.07,27.115 -10.17,-8.14 -4.07,3.4 -0.67,-0.68 4.74,-3.39 V 89.658 c 0,-9.49 -8.81,-6.78 -8.13,-16.947 0,-4.069 4.06,-7.457 6.78,-8.813 2.03,-0.678 4.74,-0.678 4.74,-0.678 0,0 -4.07,2.034 -3.39,6.102 1.36,5.422 10.85,5.422 11.53,12.879 v 25.759 l 6.77,5.43 2.04,-1.36 V 84.235 l -4.07,-3.391 9.49,-8.809 8.81,8.133 -3.39,3.386 v 24.406 l 8.82,6.78 1.35,-0.68 V 84.235 l -4.07,-3.391 9.49,-8.809 9.5,7.457 3.39,-3.395 0.67,0.681 -8.13,7.457 v 23.725 l -21.02,12.88 -10.84,-8.14 z M 263.93,72.035 c 0,0 -6.1,4.062 -10.85,6.776 -4.07,2.033 -9.49,4.743 -9.49,4.743 v 26.436 l -4.07,2.71 0.68,0.69 4.07,-2.71 10.84,10.16 20.34,-15.59 -0.68,-0.68 -10.84,8.82 -8.82,-8.82 v -2.71 l 17.63,-13.559 z m 0,21.69 -8.82,6.775 V 78.135 Z M 198.85,128.3 c -5.42,-0.68 -7.46,-3.39 -7.46,-6.11 0,-1.35 2.04,-4.74 4.75,-4.74 3.39,-0.68 6.1,0.68 8.81,4.07 l 12.2,-13.56 h -0.68 l -3.39,3.39 c -2.71,-3.39 -7.45,-6.1 -12.2,-6.78 V 64.576 l 30.51,56.264 c 0,0 0.67,0.68 2.03,0.68 0.68,0 0.68,-0.68 0.68,-0.68 V 64.576 c 2.71,-0.678 6.1,-2.033 8.13,-3.391 6.11,-6.099 3.39,-12.878 2.71,-13.558 0,2.713 -2.71,5.424 -6.1,6.101 -4.74,0 -8.13,-4.066 -8.13,-4.066 l -11.53,13.558 0.68,0.678 3.39,-4.068 c 4.07,4.068 6.78,4.068 10.17,4.746 V 97.115 L 210.37,55.764 c -2.03,-3.391 -4.74,-6.78 -10.17,-6.78 -5.42,0 -9.49,4.744 -10.16,9.49 -0.68,4.746 0,6.102 0,6.102 0,0 0.67,-5.424 4.07,-5.424 3.38,0 4.74,2.713 6.09,4.746 v 12.199 c -3.38,0 -11.52,0 -11.52,8.814 0,2.714 2.03,6.1 3.39,7.457 2.03,1.357 4.07,1.357 4.07,1.357 0,0 -2.71,-1.357 -2.04,-4.067 0.68,-2.713 6.1,-2.713 6.1,-2.033 v 16.945 c -2.71,0 -10.16,0 -14.23,6.78 -2.03,4.07 -2.03,8.81 0.68,12.2 2.03,2.71 5.42,6.1 12.2,4.75 z m -88.81,2.71 c 2.72,0 6.78,0.68 12.88,-2.03 6.11,-3.39 8.82,-9.5 8.82,-16.28 l 0.68,-9.48 V 82.201 l 3.38,-2.709 v -0.681 l -4.06,2.71 -8.82,-9.486 -11.52,9.486 V 48.307 L 97.166,59.152 c 0.676,0.678 2.71,0.678 2.71,4.068 v 46.77 l -6.1,4.07 0.68,0.68 2.71,-2.04 8.134,7.46 12.88,-10.17 -0.68,-0.67 -2.71,2.71 -3.39,-3.39 V 82.878 l 3.39,-3.386 6.1,6.776 c 0,0 0,16.952 0,22.372 0,6.1 0,13.55 -3.39,16.95 -3.39,4.06 -4.07,4.06 -7.46,5.42 z m 52.2,-58.975 c 0,0 -6.78,4.062 -10.84,6.776 -4.07,2.033 -9.49,4.743 -9.49,4.743 v 26.436 l -4.07,2.71 0.68,0.69 3.39,-2.71 11.52,10.16 20.34,-15.59 -0.68,-0.68 -10.85,8.82 -9.49,-8.82 v -2.71 l 18.31,-13.559 z m 0,21.69 -9.49,6.775 V 78.135 Z M 83.609,44.916 c 2.033,0 4.743,0.678 7.457,3.391 2.71,2.033 2.71,6.099 2.033,9.49 -0.68,2.711 -1.357,4.746 -4.747,6.779 -3.386,2.033 -6.777,2.033 -6.777,2.033 v 12.883 l 6.101,5.419 -6.101,4.747 v 18.302 c 0,0 6.101,-4.07 10.167,-12.202 0,0 0,0 0.677,-1.356 0,2.713 0,6.778 -2.71,12.878 -1.357,4.07 -4.743,8.14 -9.49,10.85 -7.457,4.06 -12.881,4.06 -18.982,3.39 -7.457,-2.04 -14.236,-6.1 -18.303,-12.88 -3.388,-4.75 -4.746,-10.848 -4.746,-16.948 0.678,-12.2 9.49,-22.37 19.66,-26.438 1.355,-0.678 2.033,-0.678 4.066,-0.678 -0.677,0 -2.033,0.678 -3.388,2.033 -3.391,2.033 -6.102,6.102 -7.457,9.488 l 20.337,-8.81 v 28.471 l -16.271,8.132 c 2.035,2.72 7.459,6.79 12.203,6.79 8.814,1.35 13.557,-2.72 13.557,-2.72 V 89.658 l -6.777,-4.747 6.777,-5.419 V 66.609 C 77.509,65.931 72.762,64.576 70.729,63.898 66.66,63.22 54.457,59.83 53.102,59.83 c -2.033,-0.678 -4.744,-0.678 -6.101,0.678 -1.356,1.357 -2.034,3.39 -1.356,5.423 0,1.356 0.678,2.034 1.356,2.711 0,0 -0.678,0 -2.034,-0.677 -2.033,-1.356 -4.066,-4.067 -4.066,-7.457 0,-4.067 1.356,-8.135 5.422,-10.846 2.713,-2.035 6.101,-3.39 10.17,-2.713 6.101,0.678 14.236,4.069 21.692,6.102 2.71,0.677 4.743,0.677 6.781,-0.678 0.676,-0.678 2.71,-2.033 1.353,-4.066 -2.034,-2.713 -4.744,-2.713 -7.457,-3.391 2.033,-0.678 2.713,-0.678 4.747,0 z M 59.203,101.18 V 73.388 l -8.134,4.066 c 0,0 -2.033,4.747 -2.033,11.524 0.677,5.424 3.388,11.522 5.421,14.242 z"></path></svg>