<?xml version="1.0"?>

<svg xmlns="http://www.w3.org/2000/svg" viewBox="0 0 584.5 279.9" width="584.5" height="279.9"> <path d="m 533.1,74.31 0,-27.5 5.7,0 6.4,19.51 c 0.7,1.79 0.7,3.13 1.3,4.03 0,-0.96 0.7,-2.43 1.3,-4.42 l 6.4,-19.12 5.1,0 0,27.5 -3.2,0 0,-23.02 -8.3,23.02 -3.2,0 -8.3,-23.4 0,23.4 -3.2,0 z m -16.6,0 0,-24.24 -9.1,0 0,-3.26 21.8,0 0,3.26 -9.1,0 0,24.24 -3.6,0 z m -417.6,42.19 0,27.1 -20.7,0 0,108.4 -35.3,0 0,-108.4 -20.9,0 0,-27.1 76.9,0 z m 243.6,46.7 -11,35.4 14.2,53.4 -25.9,0 -8.4,-38.6 0,38.6 -27,0 0,-108.4 27,0 0,45.6 8.4,-26 22.7,0 z m -105.5,0 -0.6,8.3 c 2,-3.3 4.3,-5.8 7.1,-7.5 2.9,-1.6 6.2,-2.5 9.9,-2.5 4.7,0 8.4,1.2 11.4,3.4 2.9,2.1 4.8,4.9 5.7,8.3 0.8,3.2 1.2,8.8 1.2,16.5 l 0,62.3 -27,0 0,-61.4 c 0,-6.2 0,-9.9 -0.6,-11.3 -0.7,-1.3 -1.6,-2 -3.4,-2 -1.9,0 -3.2,0.8 -3.7,2.4 -0.6,1.5 -0.7,5.6 -0.7,12.3 l 0,60 -27,0 0,-88.8 27.4,0 z m -38.3,-5.8 -27.5,0 0,-14 27.5,0 0,14 z m 0,94.6 -27.5,0 0,-88.8 27.5,0 0,88.8 z m -73.6,-108.6 0,24.5 c 2.4,-2.2 4.9,-3.8 7.6,-4.9 2.7,-1.1 5.6,-1.7 8.7,-1.7 4.6,0 8.7,1.3 12,3.7 3.4,2.4 5.4,5.2 6.1,8.3 0.7,3.2 1.1,9 1.1,17.3 l 0,61.3 -27,0 0,-62.5 c 0,-5.2 0,-8.6 -0.7,-10 -0.7,-1.5 -1.8,-2.3 -3.6,-2.3 -1.6,0 -2.7,0.8 -3.3,2.3 -0.6,1.5 -0.9,4.5 -0.9,9.1 l 0,63.4 -27,0 0,-108.5 27,0 z M 424.4,22 c -0.7,0 -1.3,0 -2,0 -10.1,0 -23.9,5.69 -30.8,15.99 -7,10.42 -12.3,13.68 -13.4,19.18 -1.1,5.63 3.7,11.38 3.7,11.38 l 1.8,7.93 3,12.35 3.5,4.54 1.6,17.53 7.3,0.8 -11.7,9.6 c 0,0 -13,5.8 -22.3,12.9 -9.2,7.1 -11.2,5.6 -11.3,13.2 0,7.6 -1.6,66 -1.6,66 0,0 4.7,35.6 7.3,44.5 l 71.3,0 131.7,0 -5.8,-35.7 c 0,0 -6.3,-37.6 -7.6,-41.4 -0.7,-3.9 -9,-31.1 -10.3,-35.3 -1.2,-4.6 -3.8,-12.5 -7.6,-16.7 l -8.3,-7.2 c 0,0 -6,-2.2 -10.6,-4.6 -6.3,-3.2 -6.3,-3.9 -10.9,-7.9 -6.6,-5.6 -13.5,-10.42 -17.2,-15.09 -3.6,-4.55 -9.6,-22.45 -9.6,-22.45 l -6.9,-13.62 c 0,0 -1.4,-20.72 -11.6,-28.26 -9.6,-7.1 -21.8,-7.74 -31.7,-7.68 z m 5.9,121.5 28.8,0 0,108.7 -28.8,0 0,-108.7 z m 33.7,0 61.4,0 0,21.7 -16.4,0 0,86.8 -28.1,0 0,-86.8 -16.9,0 0,-21.7 z m -59.3,16 10.1,35 -12.9,20.4 c 0,0 -7.1,-9.3 -9.1,-13.4 -2,-4 -3.4,-19.9 -5.6,-23.1 -2.2,-3.4 -2.6,-14.6 -2.6,-14.6 l 8.2,-4.1 5.3,1.8 6.6,-2 z M 320.2,67.28 317,72.71 c -7.7,-4.48 -14.9,-7.93 -21.9,-10.36 l 0,27.89 -5.4,0 0,-48.93 5.4,0 0,15.54 c 8.6,2.75 16.9,6.21 25.1,10.43 M 253,66 l -4.3,1.6 c -1.2,-3.39 -2.8,-6.91 -4.8,-10.49 l 4.1,-1.66 c 2.2,4.09 3.9,7.61 5,10.55 m 15.9,-7.36 c -1.6,5.82 -3.4,10.43 -5.1,13.88 -2.4,4.73 -5.5,8.57 -9.1,11.57 -3.4,2.69 -8.1,5.25 -14.2,7.81 -0.7,-1.54 -1.5,-3.01 -2.7,-4.48 5,-1.54 9.1,-3.33 12.2,-5.44 3.5,-2.43 6.5,-5.82 9,-10.16 2.1,-3.46 3.7,-8.25 5,-14.46 l 4.9,1.28 z m -26.7,10.11 -4.2,2.17 c -1.4,-2.94 -3.3,-6.46 -6,-10.49 l 4,-2.3 c 2.1,3.26 4.2,6.78 6.2,10.62 M 219.8,45.53 c -5.3,5.12 -10,9.4 -14,12.92 l 0,31.21 -5.4,0 0,-26.6 c -1.6,1.27 -2.9,2.17 -3.8,2.81 -5.5,3.77 -11.1,6.97 -16.7,9.59 -0.7,-2.11 -1.7,-3.9 -3,-5.31 6.2,-2.36 12.8,-6.26 19.8,-11.63 6.6,-4.86 12.6,-10.62 18.1,-17.27 l 5,4.28 z m -49.9,8.32 c -3,7.67 -6.3,13.87 -9.8,18.54 -4.7,6.27 -11.3,11.13 -19.4,14.45 -2,0.83 -4.1,1.54 -6.3,2.24 -0.7,-1.53 -1.7,-3.26 -3.1,-5.31 4.5,-0.89 8.5,-2.36 12,-4.34 3.8,-2.11 7.1,-4.74 10.1,-7.93 3,-3.14 6.1,-8.51 9.1,-16.05 l -16.2,0 c -1.2,1.98 -2.4,3.7 -3.5,5.24 -2.8,3.84 -6.2,7.48 -10.1,10.87 -1.3,-1.47 -2.9,-2.69 -4.8,-3.71 4.3,-3.52 7.6,-6.84 9.9,-9.97 2.5,-3.33 5.4,-8.64 8.7,-15.86 l 5.7,2.04 c -0.7,1.67 -1.8,3.9 -3.3,6.72 l 16.8,0 0.7,-0.64 3.5,3.58 z m -74.8,0 -4,4.73 c -4.5,-4.03 -8.8,-7.35 -13,-10.1 l 3.3,-4.42 c 5,3.01 9.6,6.27 13.7,9.79 m 27.1,3.9 c -6.9,7.93 -13.2,14 -18.7,18.16 -5.7,4.41 -13.2,8.82 -22.7,13.17 l -3,-6.27 C 86,80.13 93.5,76.16 100.6,70.86 107,65.93 112.8,60.18 118,53.53 c 1.1,1.72 2.4,3.13 4.2,4.22 M 44.5,49.37 41.3,53.91 C 37.5,51.29 33.9,49.18 30.4,47.52 l 2.4,-4.67 c 5.1,2.49 9,4.67 11.7,6.52 m 25.4,11.06 c -5.3,6.33 -11,11.64 -17,16.05 C 47,80.9 39.2,85.05 29.6,88.95 l -2.8,-5.88 c 8.5,-2.75 16.1,-6.39 22.7,-11 6.5,-4.6 12.1,-9.91 16.7,-15.86 0.9,1.86 2.1,3.2 3.7,4.22 M 38.3,62.67 35.5,67.6 C 31.8,65.49 28,63.69 24.1,62.29 l 2.3,-4.73 c 4.3,1.53 8.3,3.19 11.9,5.11"></path></svg>