<?xml version="1.0"?>

<!-- Generator: Adobe Illustrator 19.1.0, SVG Export Plug-In . SVG Version: 6.00 Build 0)  -->
<svg version="1.1" id="Layer_1" xmlns="http://www.w3.org/2000/svg" xmlns:xlink="http://www.w3.org/1999/xlink" x="0px" y="0px" width="385px" height="289px" viewBox="-447 176 385 289" style="enable-background:new -447 176 385 289;" xml:space="preserve">

<g>
	<path class="st0" d="M-170.4,203.8L-170.4,203.8l-0.2-0.1h-255.2v239.5h339.9V288.3L-170.4,203.8z M-331.8,292.4
		c-1.1,0-9.6,0-9.6,0s0,69.1,0,70.3h-11.2c0-1.2,0-70.3,0-70.3s-11.4,0-12.5,0v-8.8h33.3V292.4z M-313.9,362.7H-325V312h-6.2v-0.1
		l6.2-8.7h11.1V362.7z M-318.5,295.3c-3.6,0-6.5-2.9-6.5-6.5c0-3.6,2.9-6.5,6.5-6.5c3.5,0,6.4,2.9,6.5,6.5
		C-312,292.4-314.9,295.3-318.5,295.3z M-292.4,363.8c-8.5-8.3-10.1-14.7-10.3-19v-61.3h11.2v61.2c0.1,0.1,0.1,0.1,0.1,0.1
		c0.3,1.9,1.5,5.7,5.6,9.7C-286.3,355.1-291.7,362.8-292.4,363.8z M-250.2,353.9c-2.2,5.7-7.6,9.5-14,10c-7.6,0.5-12.4-4.3-12.6-4.5
		c0,0-2.9-2.9-3.9-3.9c0.5-0.7,5.1-7.4,5.6-8.1c0.8,0.8,5.3,5.2,5.3,5.2c0.5,0.3,2.8,2,5.7,1.8c1.9-0.1,3.9-1.6,4.8-3.5
		c0.3-0.7,0.5-1.4,0.5-2.2c0-1.2-0.4-2.3-1.2-3.5l-0.1-0.1l-16.9-16.9c-2.5-2.7-3.9-6.3-3.9-10c0-1.9,0.4-3.7,1.1-5.5
		c2.2-5.7,7.6-9.5,14-10c7.6-0.5,12.4,4.3,12.6,4.5c0,0,2.8,2.8,3.8,3.8c-0.5,0.8-5.6,7.9-5.7,8c-0.8-0.8-5.1-5-5.1-5
		c-0.5-0.3-2.8-2-5.7-1.8c-1.9,0.1-3.9,1.6-4.8,3.5c-0.3,0.7-0.5,1.4-0.5,2.2c0,1.2,0.4,2.3,1.2,3.5l0.1,0.1l16.9,16.9
		c2.5,2.8,3.9,6.3,3.9,10C-249.1,350.3-249.5,352.1-250.2,353.9z M-209.7,343.2c0,7.1-1.3,12.3-4,15.6c-2.7,3.3-6.7,5-12.3,5
		c-5.5,0-10.5-1.7-13.2-5c-2.7-3.3-4-8.5-4-15.6V323c0-7.1,1.3-12.3,4-15.6c2.6-3.3,7.6-5,13.2-5c5.6,0,9.7,1.7,12.3,5.1
		c2.7,3.3,4,8.5,4,15.5V343.2z M-178.8,312.6c-0.6-0.2-1.3-0.3-2.1-0.4c-0.8,0-1.7-0.1-2.8-0.1c-2.6,0-4.4,0.7-5.4,2.1
		c-1,1.4-1.5,4.1-1.5,8.2v40.1h-10.8v-60.6h10.1v7.6c1.5-2.8,3.2-4.9,5.2-6.3c5.7-3.9,14.6-1.8,15.6-1.9L-178.8,312.6z"></path>
	<path class="st0" d="M-226,311.6c-1.9,0-4.2,0.6-5.1,1.9c-0.9,1.3-1.3,3.2-1.3,6v27.3c0,2.8,0.4,4.8,1.3,6.1
		c0.9,1.3,3.2,1.9,5.1,1.9c1.9,0,3.3-0.6,4.2-1.9c0.9-1.3,1.3-3.3,1.3-6.1v-27.3c0-2.7-0.4-4.7-1.3-6
		C-222.7,312.2-224.1,311.6-226,311.6z"></path>
</g>
</svg>
