<?xml version="1.0"?>
<!--?xml version="1.0" encoding="UTF-8" standalone="no"?-->
<svg xmlns:dc="http://purl.org/dc/elements/1.1/" xmlns:cc="http://creativecommons.org/ns#" xmlns:rdf="http://www.w3.org/1999/02/22-rdf-syntax-ns#" xmlns:svg="http://www.w3.org/2000/svg" xmlns="http://www.w3.org/2000/svg" viewBox="0 0 182.19 59.245" id="svg2" height="59.245" width="182.19" version="1.1">
  <defs id="defs17"></defs>
  <path d="m 137.47,4.4 h 37.89 v 9.9 h -0.7 l -0.3,-6.1 H 149.54 V 28 h 21.09 l 0.6,-4.6 h 0.9 c -0.3,4.2 -0.3,8.3 0,12.5 h -0.9 l -0.6,-4.8 h -21.09 v 20.5 h 25.68 l 0.1,-6.8 h 0.8 v 10.1 h -38.73 v -1.4 h 5.02 V 6.3 h -5.02 z M 83.85,4.3 h 3.36 L 103.33,43 119.23,4.3 h 3.28 l 8.97,48.8 h 4.54 v 1.5 h -17.88 v -1.5 h 4.66 L 117.16,21.9 102.97,54.6 H 99.7 L 85.58,21.9 79.68,53.1 h 4.34 l -0.1,1.5 H 70.83 v -1.5 h 4.02 z M 51.47,4.4 h 17.22 v 1.4 h -4.93 v 47.3 h 4.93 v 1.5 H 51.47 v -1.5 h 4.95 V 5.8 h -4.99 z m -45.92,0 h 43.79 v 10 h -0.7 V 8 H 31.39 v 45.1 h 5.03 v 1.5 H 19.24 v -1.5 h 4.62 V 8 H 6.34 v 6.4 h -0.8 z" id="path8"></path>
  <metadata id="metadata4182">
    <rdf:rdf>
      <cc:work rdf:about="">
        <dc:title></dc:title>
      </cc:work>
    </rdf:rdf>
  </metadata>
</svg>
