<?xml version="1.0"?>

<!-- Generator: Adobe Illustrator 19.1.0, SVG Export Plug-In . SVG Version: 6.00 Build 0)  -->
<svg version="1.1" id="Layer_1" xmlns="http://www.w3.org/2000/svg" xmlns:xlink="http://www.w3.org/1999/xlink" x="0px" y="0px" width="486px" height="276px" viewBox="0 0 486 276" style="enable-background:new 0 0 486 276;" xml:space="preserve">

<path class="st0" d="M74.2,88.3h114.3v32.4H151v95.5h-39.2v-95.5H74.2V88.3z"></path>
<path class="st0" d="M195.3,88.3h40.9v127.9h-40.9V88.3z"></path>
<path class="st0" d="M318.7,168.5h29.8v10.2h-31.2v8.5h31.2v10.2h-31.2v8.5h31.2v10.2h-40.2H299v-47.7h9.3H318.7z"></path>
<path class="st0" d="M386.3,168.5h16.8v10.2h-14.7v37.5h-19.6v-37.5h-14.7v-10.2h16.7H386.3z"></path>
<path class="st0" d="M277.7,168.5h15.8v47.7h-17.1l-19.1-26.8v26.8h-14.2v-47.7h15.3l19.3,21.9V168.5z"></path>
<path class="st0" d="M348.4,96.6v26H299V88.3H338C338,88.3,348.4,87.6,348.4,96.6z"></path>
<path class="st0" d="M243.1,152v-23.9h50.4v34.3h-38.7C254.8,162.4,244.7,161,243.1,152z"></path>
<path class="st0" d="M254.8,88.3h38.7v34.3h-50.4V98.7C244.7,89.7,254.8,88.3,254.8,88.3z"></path>
<path class="st0" d="M403.4,136.3v26h-49.3v-34.3h38.9C393.1,128.1,403.4,127.3,403.4,136.3z M299,162.4h49.5v-34.3H299V162.4z"></path>
</svg>
