<?xml version="1.0"?>

<!-- Generator: Adobe Illustrator 19.1.0, SVG Export Plug-In . SVG Version: 6.00 Build 0)  -->
<svg version="1.1" id="Layer_1" xmlns="http://www.w3.org/2000/svg" xmlns:xlink="http://www.w3.org/1999/xlink" x="0px" y="0px" width="600px" height="200px" viewBox="0 0 600 200" enable-background="new 0 0 600 200" xml:space="preserve">
<path d="M13.798,116.254c-0.376-2.136-0.753-4.272-1.13-6.407c0-2.956,0-5.912,0-8.868c0.264-1.057,0.507-2.119,0.795-3.169
	c0.603-2.203,1.685-4.202,2.701-6.229c0.845-1.24,1.663-2.499,2.538-3.717c2.028-2.817,4.423-5.316,6.83-7.804
	c1.204-1.059,2.408-2.117,3.612-3.176c0.172,0.366-0.048,0.554-0.323,0.718c-0.18,0.108-0.465,0.256-0.326,0.459
	c0.771,1.127,0.379,2.39,0.435,3.585c0.08,1.709,0.025,3.425,0.018,5.138c-0.002,0.592,0.118,1.029,0.863,0.838
	c-0.248,0.258-0.497,0.517-0.745,0.774c-2.828,2.525-5.338,5.337-7.587,8.387c-2.446,3.094-4.576,6.374-5.964,10.093
	c-0.875,1.993-1.389,4.074-1.613,6.241C13.796,114.165,14.031,115.217,13.798,116.254z"></path>
<path d="M45.115,88.157c1.379-0.535,2.479-1.527,3.696-2.32c4.26-2.775,8.704-5.221,13.294-7.383c3.035-1.43,6.21-2.549,9.383-3.652
	c0.849-0.295,1.546,0.133,2.252,0.394c2.807,1.038,5.588,2.145,8.381,3.221c0.493,0.19,0.685,0.426,0.299,0.92
	c-2.023,2.588-3.791,5.367-5.91,7.885c-0.236,0.281-0.527,0.397-0.829,0.502c-5.039,1.765-9.773,4.175-14.447,6.727
	c-3.046,1.663-5.947,3.562-8.767,5.554c-3,2.12-5.858,4.469-8.607,6.909c-2.379,2.111-4.599,4.415-6.677,6.839
	c-0.196,0.228-0.408,0.443-0.612,0.664c-0.814,1.017-1.674,2.003-2.435,3.059c-1.78,2.472-3.596,4.926-4.766,7.774
	c-0.834,1.598-1.521,3.25-1.838,5.036c-0.375,0.725-0.474,1.509-0.592,2.31c-0.406,2.772-0.023,5.386,1.362,7.834
	c0.132,0.234,0.35,0.424,0.271,0.731c-0.99-0.488-1.682-1.346-2.422-2.103c-2.338-2.392-4.331-5.069-6.156-7.872
	c-1.45-2.228-1.994-4.672-1.872-7.296c0.01-0.21,0.002-0.421,0.002-0.631c0.329-1.786,0.638-3.576,1.253-5.296
	c0.882-2.466,2.088-4.773,3.385-7.037c3.38-5.566,7.855-10.2,12.509-14.682c1.282-1.127,2.53-2.296,3.854-3.37
	c1.903-1.543,3.86-3.016,5.795-4.519c0,0-0.006-0.005-0.007-0.005C44.981,88.286,45.048,88.221,45.115,88.157z"></path>
<path d="M55.948,153.823c-0.323,0.426-0.67,0.016-0.967-0.026c-3.879-0.538-7.638-1.543-11.316-2.896
	c-2.755-1.013-5.012-2.566-6.398-5.223c-0.779-2.051-1.053-4.151-0.72-6.338c0.227-1.485,0.677-2.905,1.086-4.34
	c0.834-1.926,1.75-3.807,2.841-5.605c1.565-2.58,3.466-4.904,5.37-7.229c1.958-2.136,4.036-4.153,6.132-6.151
	c2.869-2.415,5.772-4.786,8.886-6.885c2.141-1.443,4.276-2.896,6.575-4.083c-0.458,0.942-1.484,1.213-2.232,1.798
	c-0.491,0.385-0.415,0.74-0.395,1.148c0.027,0.574,0.512,0.376,0.834,0.397c0.569,0.037,1.272-0.17,1.684,0.094
	c0.938,0.6,1.911,0.409,2.883,0.453c1.858,0.083,3.796-0.372,5.554,0.247c1.299,0.456,2.581,0.272,3.829,0.547
	c0.877,0.193,1.814-0.178,2.638,0.371c0.216,0.144,0.233-0.157,0.308-0.309c0.578-1.154,1.466-2.133,1.863-3.393
	c0.084-0.265,0.338-0.166,0.491,0.038c-0.577,1.494-1.683,2.682-2.382,4.1c-1.102,2.236-2.783,3.653-5.076,4.75
	c-7.138,3.415-13.449,8.056-18.984,13.726c-1.725,1.767-3.275,3.681-4.732,5.677c-0.664,0.909-1.306,1.82-1.784,2.841
	c-1.257,2.225-2.176,4.575-2.487,7.122c-0.526,4.304,1.562,7.488,5.71,8.799C55.435,153.544,55.756,153.55,55.948,153.823z"></path>
<path d="M65.309,138.076c2.651-3.19,5.656-5.996,9.05-8.383c0.112,0.041,0.17-0.008,0.19-0.116l0.023-0.015
	c1.349,0.427,1.434,0.544,1.434,1.964c0,3.092-0.002,6.183,0.003,9.275c0.001,0.425,0.014,0.853-0.259,1.206
	c-0.483,0.625-0.092,0.811,0.446,0.938c-0.469,0.882-0.864,1.792-0.75,2.821c0.092,0.826,0.372,1.564,1.191,1.961
	c0.057,0.282,0.342,0.339,0.506,0.514c-0.612,0.175-0.859,0.466-0.644,1.176c0.146,0.484,0.481,1.093,0.127,1.561
	c-0.388,0.514-0.012,0.602,0.264,0.805c-2.06,0.655-4.16,1.121-6.313,1.336c-0.93-0.012-1.865,0.031-2.789-0.046
	c-3.592-0.3-6.589-2.013-6.455-6.309c0.136-1.311,0.539-2.553,0.974-3.786C63.116,141.228,64.189,139.637,65.309,138.076z"></path>
<path d="M61.334,146.766c-0.134,4.296,2.863,6.008,6.455,6.309c0.924,0.077,1.86,0.034,2.789,0.046
	c-0.245,0.257-0.569,0.176-0.854,0.162c-1.967-0.1-3.862,0.362-5.788,0.632c-2.301,0.322-4.639,0.454-6.971,0.253
	c-0.345-0.029-0.677-0.226-1.015-0.346c-0.193-0.274-0.513-0.279-0.79-0.366c-4.149-1.311-6.235-4.495-5.71-8.799
	c0.311-2.547,1.231-4.898,2.487-7.122c0.42,0.725,1.206,0.462,1.765,0.496c2.607,0.16,5.225,0.248,7.835,0.191
	c1.254-0.027,2.514-0.13,3.774-0.146c-1.12,1.562-2.194,3.152-3.001,4.904c-0.86-0.164-1.562,0.354-2.333,0.557
	c-1.727,0.455-3.435,0.98-5.259,1.507C56.578,145.898,59.976,146.768,61.334,146.766z"></path>
<path d="M51.977,116.018c-2.096,1.998-4.174,4.015-6.132,6.151c-0.268-0.001-0.528-0.005-0.796,0.089
	c-5.076,1.782-10.308,2.756-15.68,2.994c1.17-2.848,2.986-5.302,4.766-7.774c0.761-1.056,1.62-2.042,2.435-3.059
	c0.231,0.526,0.759,0.426,1.157,0.474c3.54,0.428,7.077,0.859,10.651,0.975C49.574,115.906,50.779,115.929,51.977,116.018z"></path>
<path d="M29.813,87.622c-0.745,0.192-0.866-0.245-0.863-0.838c0.007-1.713,0.062-3.429-0.018-5.138
	c-0.056-1.196,0.336-2.458-0.435-3.585c-0.139-0.203,0.145-0.351,0.326-0.459c0.275-0.164,0.495-0.352,0.323-0.718
	c1.207-1.311,2.688-2.297,4.072-3.397c0.869-0.691,1.815-1.286,2.7-1.958c0.532-0.404,1.052-0.578,1.74-0.421
	c1.522,0.346,3.057,0.639,4.596,0.896c0.643,0.107,0.711,0.442,0.582,0.953c-0.426,1.689-0.862,3.376-1.279,5.068
	c-0.115,0.466-0.49,0.685-0.829,0.91c-2.908,1.932-5.587,4.156-8.259,6.391C31.572,86.08,30.697,86.857,29.813,87.622z"></path>
<path d="M76.196,142.945c-0.538-0.127-0.93-0.313-0.446-0.938c0.273-0.354,0.26-0.781,0.259-1.206
	c-0.005-3.092-0.003-6.183-0.003-9.275c0-1.421-0.086-1.538-1.434-1.964c1.599-1.384,3.461-2.356,5.301-3.358
	c0.164-0.09,0.417-0.08,0.613-0.04c2.683,0.543,5.364,1.1,8.161,1.677c-0.909,1.902-1.884,3.701-2.637,5.588
	c-0.619,1.55-1.663,2.463-3.1,3.248C80.162,138.177,77.921,140.307,76.196,142.945z"></path>
<path d="M84.893,106.441c-0.152-0.204-0.407-0.303-0.491-0.038c-0.397,1.26-1.286,2.24-1.863,3.393
	c-0.076,0.152-0.092,0.453-0.308,0.309c-0.824-0.549-1.761-0.178-2.638-0.371c-1.248-0.274-2.531-0.09-3.829-0.547
	c-1.758-0.618-3.696-0.164-5.554-0.247c-0.972-0.044-1.945,0.148-2.883-0.453c-0.412-0.263-1.115-0.057-1.684-0.094
	c-0.322-0.021-0.807,0.176-0.834-0.397c-0.019-0.408-0.096-0.764,0.395-1.148c0.748-0.585,1.774-0.857,2.232-1.798
	c0,0,0.01,0.009,0.011,0.01c0.759,0.61,0.949,0.558,1.331-0.409c0.054-0.136,0.339-0.205,0.148-0.425
	c0.145-0.189,0.348-0.273,0.57-0.327c0.651,0.382,0.851-0.12,1.085-0.553c1.266-0.817,2.67-1.362,4.013-2.028
	c0.282-0.14,0.526-0.051,0.783,0.017c3.251,0.863,6.501,1.729,9.75,2.599c0.051,0.014,0.09,0.074,0.135,0.113
	c-0.179,0.149-0.184,0.33,0.055,0.345c0.436,0.026,0.452,0.355,0.56,0.634c0,0-0.008,0.03-0.008,0.029
	c-0.755,0.11-0.809,0.663-0.796,1.259C85.013,106.354,84.953,106.397,84.893,106.441z M69.272,106.997
	c-0.044-0.184-0.185-0.222-0.337-0.182c-0.144,0.038-0.283,0.128-0.259,0.305c0.027,0.201,0.204,0.186,0.345,0.172
	C69.184,107.275,69.294,107.187,69.272,106.997z"></path>
<path d="M44.921,88.356c-1.934,1.503-3.893,2.977-5.795,4.519c-1.325,1.075-2.572,2.243-3.854,3.37
	c-0.161-0.199-0.372-0.162-0.58-0.112c-1.949,0.464-3.899,0.894-5.904,1.092c-2.469,0.243-4.903,0.214-7.308-0.441
	c2.249-3.049,4.76-5.861,7.587-8.387c1.182,0.888,2.607,1.017,3.988,1.161c3.733,0.39,7.382-0.179,10.975-1.177
	C44.331,88.298,44.622,88.3,44.921,88.356z"></path>
<path d="M37.634,135.002c-0.409,1.435-0.86,2.855-1.086,4.34c-0.334,2.186-0.059,4.286,0.72,6.338
	c-1.271,0.039-2.372-0.581-3.518-0.975c-1.416-0.488-2.714-1.268-3.926-2.147c-0.494-0.358-0.838-0.923-1.249-1.394
	c0.079-0.308-0.139-0.498-0.271-0.731c-1.384-2.448-1.768-5.061-1.362-7.834c0.118-0.802,0.216-1.585,0.592-2.31
	C30.693,132.303,33.99,134.022,37.634,135.002z"></path>
<path d="M22.764,110.928c-1.297,2.264-2.503,4.572-3.385,7.037c-0.615,1.721-0.924,3.51-1.253,5.296
	c0.01-0.667-0.592-0.888-0.974-1.207c-1.837-1.532-2.881-3.494-3.353-5.8c0.233-1.038-0.003-2.09,0.106-3.136
	c0.224-2.166,0.737-4.248,1.613-6.24c0.059,0.316,0.097,0.584,0.449,0.799c1.373,0.843,2.813,1.558,4.274,2.22
	C21.063,110.27,21.829,110.818,22.764,110.928z"></path>
<path d="M25.533,80.061c-2.407,2.488-4.803,4.987-6.83,7.804c-0.876,1.217-1.694,2.476-2.538,3.717
	c-0.529-0.991-0.299-2.074-0.181-3.068c0.134-1.139,0.389-2.306,0.903-3.369c0.113-0.234,0.315-0.425,0.476-0.636
	c0.003-0.062,0.006-0.123,0.008-0.185l-0.005,0.005c0.229-0.038,0.215-0.196,0.182-0.365v-0.001c0.247-0.027,0.219-0.19,0.179-0.36
	l0.002-0.005c0.259-0.019,0.228-0.182,0.177-0.356l0.005-0.009c0.545-0.048,0.498-0.581,0.727-0.889
	c1.476-2.387,3.249-4.543,5.194-6.554c2.509-2.594,5.198-4.986,8.154-7.067c-0.2,0.903-1.005,1.36-1.516,2.031
	c-2.031,2.671-3.958,5.39-4.859,8.688C25.558,79.641,25.558,79.854,25.533,80.061z"></path>
<path d="M31.987,68.723c-2.956,2.081-5.645,4.472-8.154,7.067c-1.945,2.012-3.718,4.168-5.194,6.554c-0.07-0.07-0.14-0.14-0.21-0.21
	c5.017-9.268,12.294-16.183,21.718-20.861c1.001-0.497,1.849-0.642,3.298-0.628c-0.375,0.901-0.922,1.554-1.808,1.981
	c-3.29,1.586-6.41,3.454-9.24,5.778c-0.198,0.023-0.322,0.143-0.401,0.317L31.987,68.723z"></path>
<path d="M77.144,148.242c-0.164-0.176-0.449-0.232-0.506-0.514c3.213-0.219,6.367-0.768,9.458-1.677
	c1.832-0.539,3.503-1.437,5.174-2.333c0.182-0.097,0.379-0.32,0.547-0.1c0.173,0.225-0.096,0.38-0.25,0.494
	c-2.745,2.034-5.627,3.845-8.684,5.374c-0.106-0.187-0.29-0.197-0.468-0.185C80.562,149.426,78.824,148.979,77.144,148.242z"></path>
<path d="M77.144,148.242c1.68,0.737,3.418,1.185,5.272,1.059c0.179-0.012,0.362-0.002,0.468,0.185
	c-1.7,0.728-3.363,1.547-5.134,2.096c-0.281,0.087-0.572,0.136-0.859,0.202c-0.276-0.203-0.652-0.292-0.264-0.805
	c0.354-0.468,0.019-1.078-0.127-1.561C76.285,148.707,76.531,148.416,77.144,148.242z"></path>
<path d="M68.926,104.225c0.191,0.219-0.094,0.289-0.148,0.425c-0.381,0.967-0.572,1.02-1.331,0.409
	C67.892,104.694,68.384,104.416,68.926,104.225z"></path>
<path d="M85.876,105.023c-0.106-0.28-0.123-0.609-0.56-0.634c-0.239-0.014-0.234-0.195-0.055-0.345
	C86.426,104.267,86.426,104.267,85.876,105.023z"></path>
<path d="M18.429,82.134c0.07,0.07,0.14,0.14,0.21,0.21c-0.229,0.308-0.182,0.841-0.727,0.889
	C17.949,82.804,18.127,82.44,18.429,82.134z"></path>
<path d="M85.073,106.311c-0.014-0.596,0.041-1.148,0.796-1.259C85.603,105.473,85.339,105.892,85.073,106.311z"></path>
<path d="M70.582,103.344c-0.235,0.434-0.434,0.935-1.085,0.553C69.82,103.638,70.183,103.456,70.582,103.344z"></path>
<path d="M31.993,68.722c0.079-0.174,0.203-0.293,0.401-0.317C32.38,68.663,32.255,68.779,31.993,68.722z"></path>
<path d="M17.727,83.602c0.04,0.17,0.067,0.333-0.179,0.36C17.517,83.798,17.537,83.658,17.727,83.602z"></path>
<path d="M17.548,83.964c0.033,0.168,0.048,0.327-0.182,0.365C17.35,84.168,17.375,84.029,17.548,83.964z"></path>
<path d="M17.907,83.243c0.051,0.173,0.081,0.337-0.177,0.356C17.701,83.437,17.708,83.292,17.907,83.243z"></path>
<path d="M45.115,88.157c-0.067,0.065-0.134,0.129-0.201,0.195C44.982,88.287,45.048,88.222,45.115,88.157z"></path>
<path d="M17.371,84.323c-0.003,0.062-0.005,0.123-0.008,0.185C17.234,84.44,17.249,84.379,17.371,84.323z"></path>
<path d="M74.548,129.577c-0.02,0.109-0.078,0.157-0.19,0.116C74.422,129.654,74.485,129.616,74.548,129.577z"></path>
<path d="M69.271,106.997c0.023,0.189-0.087,0.277-0.25,0.293c-0.141,0.014-0.317,0.029-0.345-0.172
	c-0.024-0.176,0.115-0.267,0.259-0.305C69.087,106.775,69.228,106.813,69.271,106.997z"></path>
<path d="M480.505,81.264c-0.127-2.979-0.25-5.958-0.387-8.936c-0.02-0.419,0.166-0.495,0.533-0.494
	c3.468,0.01,6.935,0.016,10.403-0.006c0.547-0.004,0.633,0.238,0.664,0.7c0.106,1.532,0.255,3.062,0.388,4.592
	c0.015,0.175-0.019,0.369,0.281,0.522c0.747-1.054,1.582-2.068,2.54-2.977c5.035-4.783,13.863-5.288,19.142-1.079
	c1.535,1.224,2.613,2.798,3.464,4.668c0.919-1.142,1.804-2.195,2.801-3.151c4.886-4.691,13.146-5.8,18.682-2.463
	c3.515,2.12,5.375,5.422,6.415,9.261c0.641,2.366,0.906,4.792,0.908,7.242c0.009,8.383-0.005,16.766,0.023,25.148
	c0.002,0.76-0.133,1.027-0.974,1.015c-3.768-0.054-7.538-0.046-11.307-0.005c-0.745,0.008-0.945-0.17-0.943-0.929
	c0.021-7.869,0.015-15.74-0.019-23.61c-0.008-1.783-0.29-3.54-0.935-5.219c-1.891-4.92-7.578-4.589-10.077-1.844
	c-0.72,0.791-1.234,1.7-1.698,2.648c-0.511,0.472-0.646,1.066-0.646,1.743c0.01,8.579,0.002,17.157,0.013,25.736
	c0.001,0.523-0.063,0.997-0.37,1.424c-4.009,0.011-8.017,0.005-12.025,0.044c-0.765,0.008-0.618-0.455-0.618-0.887
	c0-5.396,0.005-10.791,0.001-16.188c-0.002-2.773,0.006-5.547-0.039-8.319c-0.029-1.728-0.36-3.405-1.115-4.982
	c-1.886-3.938-6.715-3.922-9.181-1.643c-1.742,1.61-2.709,3.597-2.715,5.99c-0.023,8.35-0.039,16.7-0.017,25.049
	c0.002,0.801-0.193,0.999-0.991,0.988c-4.008-0.057-8.016-0.044-12.024-0.057c-0.002-10.982-0.004-21.965-0.014-32.947
	C480.665,81.951,480.802,81.569,480.505,81.264z"></path>
<path d="M199.616,81.263c-0.177-1.133-0.106-2.277-0.154-3.414c-0.074-1.777-0.13-3.553-0.217-5.329
	c-0.023-0.468,0.043-0.698,0.611-0.693c3.528,0.026,7.057,0.023,10.586,0.004c0.469-0.002,0.612,0.152,0.652,0.599
	c0.136,1.53,0.311,3.057,0.472,4.585c0.027,0.259,0.062,0.517,0.11,0.924c0.613-0.688,1.11-1.271,1.633-1.829
	c3.255-3.479,7.371-4.96,12.035-5.178c8.205-0.385,14.807,4.9,17.436,12.6c2.406,7.048,2.207,14.124-0.71,20.999
	c-3.222,7.593-10.373,12.041-18.604,11.63c-3.916-0.196-7.431-1.473-9.991-4.677c-0.047-0.059-0.128-0.09-0.212-0.146
	c-0.177,0.309-0.094,0.612-0.094,0.897c-0.007,6.575-0.005,13.149-0.017,19.723c-0.001,0.27,0.177,0.599-0.148,0.82
	c-0.297-0.225-0.642-0.122-0.964-0.123c-3.709-0.008-7.419-0.041-11.128,0.019c-0.95,0.015-1.132-0.277-1.131-1.168
	c0.026-16.406,0.018-32.813,0.009-49.218C199.789,81.945,199.935,81.559,199.616,81.263z M213.191,93.807
	c0,1.266-0.042,2.534,0.009,3.798c0.105,2.605,1.128,4.795,3.182,6.425c4.197,3.332,10.435,1.722,12.756-3.307
	c1.722-3.732,1.808-7.629,0.93-11.578c-0.523-2.352-1.553-4.445-3.511-5.941c-4.632-3.539-11.253-1.219-12.964,4.497
	C212.991,89.713,213.227,91.767,213.191,93.807z"></path>
<path d="M292.617,54.452c4.859,0.016,9.591,0.72,14.143,2.503c0.715,0.28,0.88,0.552,0.663,1.299
	c-0.881,3.028-1.709,6.072-2.511,9.122c-0.203,0.772-0.399,0.983-1.23,0.603c-3.953-1.808-8.132-2.607-12.47-2.425
	c-2.222,0.093-4.377,0.559-6.094,2.136c-2.311,2.122-2.269,5.365,0.09,7.453c1.325,1.173,2.911,1.916,4.508,2.629
	c3.131,1.399,6.443,2.361,9.499,3.939c2.973,1.534,5.702,3.378,7.75,6.092c2.653,3.515,3.454,7.532,2.945,11.795
	c-0.998,8.348-6.222,13.003-13.891,15.281c-5.706,1.694-11.531,1.668-17.365,0.68c-3.123-0.529-6.159-1.362-9.047-2.698
	c-0.549-0.254-0.743-0.489-0.567-1.157c0.852-3.227,1.64-6.471,2.418-9.718c0.131-0.549,0.268-0.671,0.81-0.407
	c4.389,2.136,9.025,3.323,13.91,3.439c2.457,0.058,4.884-0.157,7.078-1.44c3.531-2.064,4-6.59,0.956-9.323
	c-1.712-1.537-3.788-2.44-5.912-3.216c-3.964-1.448-7.912-2.918-11.377-5.412c-3.35-2.411-5.926-5.389-6.898-9.509
	c-1.567-6.637,0.997-13.275,6.661-17.299c3.528-2.507,7.533-3.694,11.783-4.179C289.845,54.483,291.23,54.445,292.617,54.452z"></path>
<path d="M312.517,71.839c4.947,0,9.769,0.003,14.591-0.006c0.403-0.001,0.56,0.151,0.673,0.54c2.763,9.399,5.878,18.696,8.28,28.202
	c0.066,0.26,0.073,0.537,0.318,0.756c0.366-0.173,0.301-0.563,0.361-0.842c2.039-9.375,4.614-18.616,6.915-27.926
	c0.11-0.444,0.204-0.741,0.789-0.737c4.493,0.026,8.985,0.014,13.477,0.015c0.088,0,0.176,0.031,0.367,0.066
	c-0.646,1.826-1.279,3.632-1.924,5.434c-3.506,9.791-6.794,19.661-10.524,29.37c-2.376,6.186-4.921,12.307-8.832,17.73
	c-3.784,5.246-8.722,8.836-15.108,10.276c-2.03,0.458-2.038,0.455-2.564-1.559c-0.759-2.909-1.489-5.827-2.274-8.729
	c-0.168-0.622-0.07-0.848,0.583-1.029c3.022-0.836,5.807-2.149,8.123-4.327c0.949-0.893,1.734-1.915,2.475-2.985
	c0.928-1.34,0.981-2.705,0.381-4.188c-2.81-6.941-5.597-13.891-8.389-20.839C317.68,84.7,315.128,78.339,312.517,71.839z"></path>
<path d="M191.152,92.547c0.013,5.686-1.091,10.492-4.119,14.711c-3.365,4.69-8.036,7.354-13.636,8.421
	c-5.883,1.121-11.589,0.574-16.921-2.303c-5.92-3.194-9.255-8.296-10.406-14.832c-0.823-4.673-0.545-9.322,1.09-13.805
	c2.353-6.451,6.851-10.753,13.424-12.742c6.476-1.959,12.919-1.893,19.093,1.12c6.277,3.062,9.745,8.293,11.066,15.049
	C191.062,89.799,191.198,91.449,191.152,92.547z M177.174,93.463c-0.018-2.148-0.25-4.271-0.915-6.32
	c-0.75-2.307-1.847-4.406-4.027-5.694c-3.564-2.106-8.251-0.875-10.313,2.888c-2.931,5.346-2.89,10.943-0.876,16.583
	c0.686,1.922,1.885,3.518,3.684,4.538c3.41,1.934,8.225,1.305,10.653-3.505C176.729,99.277,177.108,96.406,177.174,93.463z"></path>
<path d="M457.826,97.906c-4.402,0-8.805,0.011-13.206-0.014c-0.624-0.004-0.826,0.097-0.706,0.781
	c0.503,2.879,2.284,4.691,4.797,5.922c2.938,1.44,6.085,1.567,9.269,1.47c3.237-0.098,6.408-0.593,9.487-1.613
	c0.525-0.174,0.78-0.109,0.89,0.492c0.474,2.603,0.962,5.205,1.5,7.795c0.121,0.582-0.04,0.783-0.553,0.981
	c-3.082,1.189-6.281,1.864-9.554,2.192c-4.487,0.449-8.956,0.472-13.381-0.622c-8.352-2.066-13.879-8.157-15.136-16.704
	c-0.905-6.155-0.11-12.027,3.061-17.439c3.497-5.967,8.773-9.268,15.633-10.053c3.86-0.441,7.65-0.173,11.258,1.359
	c5.048,2.143,8.119,6.082,9.816,11.174c1.464,4.396,1.654,8.906,1.062,13.478c-0.085,0.659-0.296,0.82-0.938,0.816
	C466.691,97.892,462.259,97.906,457.826,97.906z M443.95,88.691c0.185,0.221,0.44,0.158,0.674,0.158
	c4.791,0.004,9.583,0.005,14.375,0.003c0.233,0,0.49,0.064,0.664-0.174c0.327-0.554,0.06-1.124,0.002-1.671
	c-0.566-5.318-5.297-8.408-10.197-6.615c-3.26,1.192-4.796,3.828-5.517,7.041C443.863,87.826,443.511,88.275,443.95,88.691z"></path>
<path d="M148.747,55.553c0.015,3.555,0.015,7.112,0.057,10.666c0.009,0.735-0.459,0.551-0.839,0.552
	c-4.853,0.007-9.706,0.026-14.559-0.015c-0.8-0.007-0.983,0.192-0.981,0.983c0.027,15.494,0.013,30.987,0.044,46.481
	c0.002,0.883-0.221,1.092-1.088,1.079c-4.098-0.06-8.197-0.043-12.296-0.054c-0.002-15.786-0.002-31.571-0.014-47.357
	c0-0.367,0.174-0.79-0.192-1.102c-5.086-0.004-10.172-0.023-15.258,0.008c-0.743,0.005-0.96-0.169-0.949-0.934
	c0.047-3.34,0.023-6.68,0.026-10.021c0-0.143-0.049-0.303,0.106-0.409c0.33,0.221,0.704,0.119,1.055,0.119
	C118.823,55.555,133.785,55.553,148.747,55.553z"></path>
<path d="M388.874,82.692c-2.675-1.361-5.395-2.185-8.275-2.445c-1.485-0.133-2.958-0.091-4.342,0.539
	c-2.414,1.1-2.702,3.792-0.564,5.354c1.577,1.152,3.43,1.729,5.244,2.372c2.706,0.96,5.313,2.086,7.607,3.869
	c6.477,5.034,5.975,16.083-1.315,20.629c-3.154,1.967-6.624,2.824-10.27,3.077c-5.487,0.382-10.81-0.29-15.89-2.539
	c-0.783-0.347-0.884-0.7-0.669-1.481c0.694-2.521,1.317-5.061,1.916-7.607c0.178-0.757,0.317-0.992,1.158-0.577
	c3.606,1.783,7.412,2.816,11.474,2.735c1.002-0.02,1.976-0.163,2.917-0.513c1.2-0.446,1.98-1.261,2.141-2.554
	c0.164-1.327-0.271-2.442-1.373-3.238c-1.486-1.073-3.213-1.631-4.923-2.209c-2.783-0.94-5.419-2.151-7.774-3.935
	c-6.946-5.263-5.374-14.177-0.701-18.604c2.871-2.719,6.361-4.094,10.202-4.589c4.988-0.643,9.861-0.048,14.546,1.805
	c1.424,0.563,1.283,0.27,0.913,1.775C390.238,77.243,389.563,79.926,388.874,82.692z"></path>
<path d="M583.061,82.691c-2.15-1.098-4.336-1.844-6.637-2.234c-1.826-0.309-3.653-0.454-5.457,0.115
	c-1.921,0.606-2.9,2.267-2.362,3.949c0.274,0.857,0.898,1.412,1.627,1.866c1.676,1.042,3.542,1.645,5.383,2.305
	c3.053,1.096,5.978,2.416,8.295,4.791c2.72,2.789,3.633,6.2,3.261,9.963c-0.605,6.115-4.293,9.772-9.916,11.463
	c-7.482,2.249-14.873,1.654-22.069-1.405c-0.637-0.271-0.835-0.562-0.648-1.264c0.698-2.615,1.34-5.246,1.982-7.876
	c0.157-0.642,0.262-0.912,1.058-0.517c3.573,1.777,7.347,2.819,11.377,2.778c1.004-0.011,1.989-0.127,2.935-0.449
	c1.258-0.428,2.142-1.24,2.307-2.625c0.164-1.369-0.314-2.485-1.457-3.29c-1.474-1.038-3.171-1.583-4.85-2.155
	c-2.868-0.978-5.577-2.234-7.984-4.119c-6.345-4.972-5.196-13.08-1.33-17.508c2.911-3.334,6.728-4.923,10.991-5.486
	c5.142-0.679,10.148-0.028,14.976,1.923c0.658,0.266,0.848,0.543,0.657,1.263C584.452,76.987,583.776,79.815,583.061,82.691z"></path>
<path d="M403.558,63.614c3.991-1.113,7.986-2.218,11.972-3.35c0.58-0.164,0.762-0.095,0.756,0.563
	c-0.029,3.405,0.008,6.812-0.022,10.217c-0.006,0.633,0.155,0.818,0.794,0.81c2.743-0.034,5.485-0.006,8.228-0.021
	c0.483-0.003,0.762,0.018,0.753,0.652c-0.046,2.922-0.035,5.846-0.044,8.768c-0.429,0.3-0.9,0.379-1.424,0.374
	c-2.47-0.023-4.939-0.017-7.409-0.004c-0.3,0.002-0.682-0.171-0.875,0.249c0.065,5.936-0.177,11.874,0.14,17.809
	c0.035,0.665,0.157,1.313,0.341,1.951c0.653,2.262,2.029,3.367,4.363,3.488c1.329,0.069,2.653-0.007,3.959-0.257
	c0.433-0.083,0.576-0.041,0.579,0.439c0.016,3.013,0.059,6.026,0.094,9.038c0.005,0.403,0.001,0.764-0.528,0.886
	c-4.69,1.079-9.388,1.605-14.061-0.018c-4.422-1.536-6.717-4.862-7.584-9.314c-0.189-0.971-0.425-1.941-0.37-2.945
	c-0.003-0.21-0.008-0.422-0.008-0.633c0.002-6.571-0.009-13.143,0.027-19.714c0.005-0.808-0.227-1.042-1.02-1.004
	c-1.323,0.064-2.653-0.01-3.978,0.03c-0.633,0.019-0.834-0.189-0.826-0.823c0.031-2.501,0.023-5.004,0.004-7.505
	c-0.004-0.522,0.057-0.999,0.367-1.427c1.745-0.014,3.489-0.026,5.234-0.04c0.333-0.25,0.189-0.61,0.191-0.921
	c0.013-2.046,0.021-4.092-0.003-6.138C403.199,64.328,403.309,63.96,403.558,63.614z"></path>
<path d="M579.487,155.634c-0.275-0.36-0.68-0.213-0.998-0.176c-0.721,0.084-1.069-0.254-1.404-0.84
	c-1.752-3.055-3.542-6.088-5.332-9.122c-0.127-0.215-0.169-0.526-0.444-0.598c0,3.182-0.024,6.363,0.017,9.542
	c0.01,0.772-0.157,1.059-0.989,1.019c-1.491-0.071-1.493-0.017-1.493-1.489c0.001-4.16,0.014-8.32-0.01-12.48
	c-0.004-0.653,0.165-0.823,0.845-0.895c1.343-0.141,2.117,0.318,2.766,1.529c1.465,2.73,3.098,5.37,4.662,8.047
	c0.084,0.145,0.172,0.289,0.388,0.653c0-3.068,0-5.884,0-8.7c0-1.448,0.596-1.884,2.004-1.493c0.498,0.138,0.324,0.522,0.326,0.812
	c0.013,3.074,0.006,6.149,0.008,9.225c0.002,1.656,0.01,3.311,0.015,4.967C579.729,155.634,579.608,155.634,579.487,155.634z"></path>
<path d="M457.147,155.634c-0.724-0.283-1.524-0.221-2.252-0.52c-0.442-0.181-0.675-0.381-0.672-0.906
	c0.02-4.128,0.011-8.256,0.011-12.384c0-0.306-0.015-0.609,0.363-0.734c2.503-0.827,5.037-1.138,7.426,0.209
	c2.424,1.366,2.375,4.506,0.011,5.986c-0.172,0.108-0.399,0.141-0.525,0.431c0.392,0.231,0.825,0.414,1.199,0.701
	c1.421,1.09,1.823,2.548,1.407,4.184c-0.433,1.705-1.774,2.493-3.408,2.848c-0.225,0.049-0.492-0.058-0.663,0.186
	C459.077,155.634,458.112,155.634,457.147,155.634z M456.803,150.967c0,0.45,0,0.9,0,1.351c0,1.468-0.004,1.544,1.445,1.617
	c2.286,0.114,3.578-1,3.177-3.288c-0.256-1.462-1.444-2.203-3.343-2.245c-1.277-0.028-1.277-0.028-1.279,1.214
	C456.803,150.065,456.803,150.516,456.803,150.967z M458.278,146.982c0.822-0.025,1.873-0.013,2.482-1.066
	c0.593-1.023,0.453-2.414-0.292-3.187c-0.642-0.666-2.554-0.911-3.406-0.47c-0.334,0.173-0.253,0.443-0.256,0.693
	c-0.01,0.931-0.003,1.861-0.003,2.791C456.805,146.998,456.805,146.998,458.278,146.982z"></path>
<path d="M434.52,155.491c-0.12-0.011-0.241-0.017-0.36-0.033c-1.788-0.25-1.947-0.428-1.948-2.192
	c-0.002-3.702,0.015-7.406-0.016-11.108c-0.006-0.691,0.225-1.018,0.883-1.228c1.703-0.542,3.419-0.664,5.152-0.255
	c1.905,0.449,3.206,1.651,3.832,3.482c0.959,2.803,0.926,5.621-0.28,8.351c-0.725,1.642-2.021,2.658-3.819,2.976
	c-0.369,0.009-0.759-0.136-1.088,0.152c-0.483,0-0.965,0-1.448,0C435.164,155.354,434.833,155.483,434.52,155.491z M434.927,147.969
	c-0.002,0-0.003,0-0.005,0c0,1.566-0.003,3.132,0.002,4.698c0.002,0.458-0.011,0.892,0.642,0.986
	c2.229,0.323,3.577-0.625,4.035-2.849c0.336-1.637,0.382-3.275,0.155-4.928c-0.336-2.445-1.788-3.791-3.888-3.61
	c-0.636,0.055-0.976,0.281-0.955,1.005C434.957,144.836,434.927,146.403,434.927,147.969z"></path>
<path d="M366.478,155.634c-2.971-0.592-4.141-2.694-4.558-5.431c-0.284-1.867-0.251-3.724,0.241-5.552
	c0.691-2.568,2.499-4.134,4.802-4.203c2.694-0.081,4.49,1.116,5.352,3.809c0.808,2.523,0.771,5.108-0.018,7.644
	c-0.641,2.061-2.028,3.35-4.191,3.734C367.564,155.634,367.021,155.634,366.478,155.634z M370.082,148.307
	c0.004-1.62-0.118-2.872-0.514-4.083c-0.418-1.275-1.253-1.979-2.292-1.961c-1,0.018-1.819,0.719-2.215,1.937
	c-0.659,2.025-0.474,4.102-0.308,6.169c0.048,0.592,0.218,1.176,0.477,1.729c0.418,0.891,1.095,1.486,2.077,1.485
	c1.025-0.001,1.707-0.626,2.108-1.566C369.968,150.715,370.052,149.341,370.082,148.307z"></path>
<path d="M489.723,155.634c-0.601-0.157-1.222-0.264-1.8-0.481c-1.11-0.418-0.316-1.118-0.205-1.714
	c0.136-0.73,0.549-0.421,0.926-0.246c0.62,0.287,1.28,0.324,1.945,0.296c1.076-0.044,1.776-0.59,2.043-1.583
	c0.273-1.011-0.094-1.909-1.01-2.469c-0.821-0.503-1.764-0.774-2.541-1.368c-1.501-1.148-2.022-2.676-1.51-4.551
	c0.452-1.657,1.9-2.896,3.642-3.058c1.09-0.101,2.157,0.045,3.194,0.428c1,0.37,0.398,0.995,0.287,1.555
	c-0.154,0.771-0.575,0.348-0.918,0.208c-0.513-0.209-1.044-0.27-1.591-0.263c-1.017,0.014-1.614,0.423-1.921,1.323
	c-0.299,0.877-0.053,1.78,0.673,2.343c0.502,0.388,1.084,0.639,1.662,0.899c1.431,0.642,2.565,1.568,2.935,3.193
	c0.559,2.454-0.807,4.69-3.25,5.31c-0.143,0.036-0.302,0.02-0.388,0.176C491.171,155.634,490.447,155.634,489.723,155.634z"></path>
<path d="M470.539,155.634c0.005-2.017,0.006-4.035,0.017-6.052c0.004-0.829-0.484-1.479-0.803-2.179
	c-0.898-1.973-1.847-3.923-2.796-5.873c-0.335-0.688-0.205-0.848,0.597-0.936c1.478-0.161,2.302,0.271,2.732,1.775
	c0.408,1.43,1.115,2.773,1.774,4.352c0.794-1.829,1.504-3.475,2.225-5.116c0.152-0.345,0.157-0.88,0.607-0.93
	c0.713-0.079,1.461-0.118,2.154,0.023c0.409,0.084,0.038,0.519-0.067,0.743c-1.016,2.15-2.04,4.297-3.102,6.424
	c-0.333,0.667-0.507,1.327-0.492,2.074c0.032,1.537-0.015,3.075,0.022,4.612c0.016,0.658-0.185,0.91-0.872,0.906
	c-0.539-0.004-1.13-0.233-1.633,0.176C470.781,155.634,470.66,155.634,470.539,155.634z"></path>
<path d="M384.095,145.351c-0.573,2.332-1.127,4.57-1.673,6.812c-0.206,0.847-0.415,1.694-0.582,2.549
	c-0.113,0.58-0.407,0.751-0.993,0.743c-1.643-0.023-1.651,0.008-2.016-1.592c-0.952-4.16-1.887-8.323-2.856-12.48
	c-0.13-0.56-0.048-0.78,0.563-0.759c2.495,0.091,1.921-0.495,2.42,2.009c0.586,2.944,1.122,5.898,1.7,8.96
	c0.792-3.434,1.599-6.745,2.295-10.079c0.197-0.94,0.734-0.84,1.403-0.905c0.77-0.075,0.962,0.31,1.1,0.929
	c0.726,3.252,1.474,6.499,2.261,9.951c0.67-3.41,1.326-6.611,1.909-9.826c0.146-0.8,0.427-1.094,1.266-1.053
	c1.522,0.074,1.515,0.019,1.164,1.553c-0.937,4.101-1.918,8.194-2.765,12.313c-0.272,1.323-1.144,0.866-1.887,0.969
	c-0.784,0.109-0.909-0.339-1.059-0.98C385.639,151.455,384.869,148.461,384.095,145.351z"></path>
<path d="M554.528,150.725c0-3.164,0.033-6.149-0.021-9.131c-0.015-0.829,0.248-1.091,1.02-0.97c0.176,0.028,0.364,0.027,0.541,0.001
	c0.638-0.091,0.814,0.176,0.81,0.806c-0.025,4.402-0.025,8.802,0,13.204c0.004,0.629-0.179,0.784-0.808,0.829
	c-1.026,0.074-1.623-0.246-2.144-1.183c-1.651-2.973-3.42-5.882-5.147-8.814c-0.087-0.147-0.122-0.344-0.458-0.411
	c0,0.541,0,1.062,0,1.584c-0.001,2.623-0.03,5.246,0.017,7.868c0.014,0.766-0.222,1.042-0.965,0.938
	c-0.266-0.038-0.542-0.019-0.813-0.003c-0.431,0.025-0.579-0.172-0.578-0.592c0.008-4.552,0.005-9.104,0.007-13.656
	c0-0.177-0.016-0.366,0.152-0.494c0.536-0.412,2.491,0.061,2.866,0.704c1.747,2.99,3.49,5.983,5.235,8.973
	C554.286,150.448,554.349,150.507,554.528,150.725z"></path>
<path d="M410.076,149.274c0,1.777-0.032,3.555,0.016,5.331c0.019,0.7-0.219,0.858-0.879,0.848c-1.851-0.029-1.852-0.001-1.852-1.856
	c0-3.828,0.017-7.656-0.015-11.484c-0.006-0.694,0.21-1.018,0.877-1.215c1.773-0.525,3.556-0.626,5.347-0.215
	c2.096,0.481,3.23,1.992,3.241,4.195c0.011,2.081-0.994,3.347-3.177,3.868c-0.82,0.196-0.407,0.566-0.199,0.882
	c1.111,1.684,2.245,3.353,3.366,5.03c0.13,0.193,0.372,0.388,0.267,0.632c-0.12,0.277-0.428,0.105-0.65,0.146
	c-1.576,0.296-2.61-0.248-3.354-1.747c-0.78-1.571-1.844-3.002-2.784-4.493C410.212,149.222,410.144,149.248,410.076,149.274z
	 M414.09,145.095c0.02-2.241-1.185-3.365-3.233-3.01c-0.471,0.081-0.818,0.22-0.796,0.852c0.05,1.443,0.058,2.892-0.002,4.334
	c-0.033,0.793,0.409,0.921,0.993,0.91C413.106,148.146,414.072,147.152,414.09,145.095z"></path>
<path d="M540.935,155.437c-0.889,0.235-1.375-0.175-1.55-1.234c-0.139-0.845-0.284-1.918-0.846-2.402
	c-0.58-0.498-1.676-0.134-2.545-0.143c-2.053-0.019-2.053-0.006-2.677,1.986c-0.018,0.057-0.042,0.113-0.06,0.17
	c-0.507,1.66-0.507,1.626-2.24,1.639c-0.708,0.005-0.713-0.242-0.527-0.788c0.892-2.622,1.762-5.251,2.639-7.878
	c0.6-1.799,1.222-3.592,1.784-5.402c0.169-0.544,0.388-0.777,0.992-0.772c1.806,0.014,1.813-0.017,2.406,1.765
	c1.321,3.968,2.635,7.938,3.951,11.908c0.38,1.147,0.379,1.148-0.819,1.15C541.323,155.437,541.202,155.437,540.935,155.437z
	 M534.395,150.019c1.194,0,2.276,0.001,3.356-0.001c0.263,0,0.479-0.008,0.363-0.398c-0.593-1.996-1.168-3.997-1.774-6.085
	C535.687,145.713,535.067,147.781,534.395,150.019z"></path>
<path d="M351.623,152.588c0,0.332,0,0.663,0,0.995c0,1.934-0.346,2.2-2.289,1.86c-0.577-0.101-0.422-0.501-0.423-0.823
	c-0.011-2.832-0.006-5.665-0.006-8.498c0-1.386,0.02-2.773-0.011-4.158c-0.012-0.531,0.143-0.826,0.672-0.992
	c2.032-0.64,4.073-0.788,6.113-0.1c1.884,0.635,2.836,2.407,2.656,4.816c-0.139,1.86-1.538,3.38-3.45,3.799
	c-0.835,0.183-1.674,0.218-2.513,0.164c-0.61-0.039-0.791,0.187-0.758,0.768C351.653,151.14,351.623,151.865,351.623,152.588z
	 M351.624,145.083c0,0.783,0.005,1.565-0.002,2.348c-0.004,0.345,0.082,0.537,0.485,0.598c2.058,0.314,3.482-0.79,3.633-2.858
	c0.152-2.072-1.361-3.434-3.419-3.089c-0.491,0.082-0.737,0.293-0.707,0.833C351.652,143.635,351.623,144.36,351.624,145.083z"></path>
<path d="M510.212,148.019c-0.001-2.169,0.017-4.337-0.011-6.505c-0.008-0.642,0.16-0.913,0.861-0.898
	c1.896,0.041,3.795,0.048,5.692-0.005c0.857-0.023,0.789,0.472,0.812,1.04c0.024,0.614-0.098,0.969-0.832,0.929
	c-0.961-0.052-1.927,0.012-2.89-0.023c-0.56-0.02-0.83,0.115-0.803,0.742c0.043,0.992,0.034,1.988,0.004,2.981
	c-0.015,0.508,0.158,0.693,0.672,0.675c0.903-0.032,1.808,0.023,2.71-0.019c0.77-0.036,0.611,0.488,0.605,0.909
	c-0.006,0.409,0.192,0.955-0.588,0.923c-0.902-0.036-1.807,0.012-2.71-0.017c-0.494-0.016-0.703,0.13-0.688,0.658
	c0.031,1.144,0.029,2.289,0.002,3.433c-0.013,0.525,0.203,0.679,0.695,0.667c0.993-0.024,1.989,0.018,2.981-0.016
	c0.789-0.027,0.842,0.421,0.848,1.039c0.006,0.626-0.129,0.937-0.846,0.922c-1.896-0.041-3.795-0.038-5.692-0.004
	c-0.642,0.011-0.837-0.216-0.829-0.836C510.228,152.416,510.212,150.218,510.212,148.019z"></path>
<path d="M420.968,148.051c0-2.169,0.023-4.337-0.014-6.506c-0.011-0.679,0.132-0.958,0.888-0.934
	c1.835,0.058,3.676,0.07,5.511-0.002c0.907-0.035,0.82,0.452,0.854,1.056c0.041,0.705-0.171,0.967-0.903,0.917
	c-0.9-0.062-1.807,0.011-2.709-0.024c-0.568-0.022-0.824,0.14-0.798,0.756c0.041,0.962,0.044,1.929-0.001,2.89
	c-0.029,0.618,0.219,0.778,0.789,0.752c0.842-0.038,1.688,0.023,2.529-0.023c0.698-0.038,0.706,0.371,0.676,0.86
	c-0.028,0.449,0.173,1.013-0.645,0.977c-0.902-0.039-1.807,0.007-2.71-0.018c-0.467-0.013-0.642,0.158-0.633,0.628
	c0.022,1.144,0.032,2.289-0.002,3.433c-0.017,0.586,0.253,0.708,0.765,0.695c0.993-0.025,1.989,0.027,2.982-0.017
	c0.826-0.037,0.645,0.526,0.636,0.971c-0.008,0.431,0.223,0.999-0.619,0.985c-1.987-0.035-3.976-0.03-5.963,0.002
	c-0.647,0.011-0.639-0.344-0.637-0.802C420.973,152.447,420.968,150.249,420.968,148.051z"></path>
<path d="M396.018,147.98c-0.001-2.139,0.019-4.279-0.013-6.418c-0.01-0.676,0.147-0.97,0.904-0.949
	c1.866,0.053,3.737,0.055,5.603-0.001c0.852-0.026,0.719,0.487,0.724,0.989c0.006,0.517,0.1,1.037-0.738,0.982
	c-0.96-0.063-1.928,0.002-2.891-0.025c-0.514-0.014-0.78,0.11-0.759,0.697c0.036,1.023,0.029,2.049,0.002,3.073
	c-0.012,0.473,0.157,0.639,0.626,0.624c0.873-0.026,1.75,0.037,2.62-0.021c0.755-0.051,0.739,0.384,0.722,0.903
	c-0.016,0.479,0.108,0.986-0.687,0.937c-0.87-0.054-1.748,0.011-2.62-0.022c-0.522-0.02-0.676,0.181-0.662,0.682
	c0.029,1.114,0.032,2.23,0,3.344c-0.016,0.541,0.15,0.757,0.715,0.734c0.933-0.037,1.871,0.039,2.801-0.023
	c0.869-0.058,0.873,0.428,0.887,1.067c0.014,0.63-0.107,0.921-0.835,0.9c-1.806-0.052-3.616-0.047-5.423-0.004
	c-0.734,0.017-1.007-0.191-0.991-0.962C396.049,152.319,396.018,150.149,396.018,147.98z"></path>
<path d="M521.555,148.023c0-2.198,0.021-4.396-0.014-6.594c-0.01-0.633,0.185-0.826,0.817-0.813c1.866,0.038,3.734,0.044,5.6-0.002
	c0.743-0.018,0.839,0.331,0.827,0.934c-0.011,0.585,0.017,1.08-0.824,1.032c-0.99-0.057-1.987,0.005-2.98-0.02
	c-0.488-0.013-0.713,0.122-0.698,0.655c0.031,1.053,0.021,2.108,0.001,3.161c-0.008,0.433,0.161,0.584,0.582,0.574
	c0.812-0.019,1.629,0.041,2.438-0.017c0.739-0.054,0.968,0.176,0.983,0.942c0.017,0.845-0.358,0.931-1.029,0.893
	c-0.75-0.042-1.507,0.021-2.257-0.017c-0.55-0.029-0.734,0.158-0.724,0.714c0.03,1.715-0.011,3.433,0.023,5.148
	c0.011,0.596-0.112,0.843-0.78,0.841c-1.969-0.006-1.968,0.024-1.967-1.921C521.556,151.697,521.555,149.86,521.555,148.023z"></path>
<path d="M500.983,149.007c-0.001-1.837-0.038-3.675,0.017-5.511c0.023-0.779-0.255-1.032-0.982-0.934
	c-0.207,0.028-0.421,0.005-0.632,0.005c-1.141-0.002-1.136-0.024-1.131-1.161c0.002-0.576,0.185-0.795,0.785-0.787
	c2.258,0.028,4.518,0.048,6.775-0.008c0.831-0.02,0.752,0.446,0.741,0.966c-0.011,0.493,0.152,1.004-0.707,1.009
	c-2.029,0.013-2.028,0.056-2.028,2.103c0.001,3.222-0.021,6.445,0.016,9.667c0.009,0.794-0.162,1.135-1.044,1.099
	c-2.085-0.086-1.789,0.278-1.808-1.841C500.972,152.079,500.983,150.543,500.983,149.007z"></path>
<path d="M587.254,148.047c0,2.169-0.029,4.338,0.017,6.506c0.015,0.728-0.222,0.921-0.924,0.897
	c-2.245-0.075-1.921,0.311-1.929-1.897c-0.016-4.006,0.011-8.013-0.018-12.019c-0.005-0.69,0.155-0.937,0.895-0.923
	c1.956,0.038,1.958,0.001,1.96,1.923C587.256,144.371,587.254,146.209,587.254,148.047z"></path>
<path d="M564.286,148.13c0,2.197-0.014,4.392,0.01,6.588c0.006,0.541-0.151,0.72-0.711,0.731c-2.158,0.044-2.157,0.064-2.157-2.075
	c0-3.911,0.018-7.823-0.017-11.733c-0.007-0.782,0.204-1.051,1.013-1.031c1.861,0.047,1.862,0.007,1.862,1.833
	C564.286,144.339,564.286,146.234,564.286,148.13z"></path>
</svg>
