<?xml version="1.0"?>

<svg xmlns="http://www.w3.org/2000/svg" viewBox="0 0 349.1 228.8" height="228.8" width="349.1">
  
  <path d="m 220,22 c -12.7,9.15 -23.7,19.53 -30.7,33.33 l 4.9,-19.53 c -7.4,13.12 -12.4,26.67 -14,39.92 l -9.9,-6.6 -1.8,1.4 c 8.9,15.9 4.3,24.4 -0.1,27.4 -8.9,6.18 -21.9,13.78 -28.3,20.48 -12.4,12.7 -15.9,24.9 -14.9,40.8 1.3,20.5 16.2,37.6 36.1,44.3 8.7,2.9 16.8,3.3 25.8,3.3 14.5,0 29.4,-3.9 40.2,-12.9 11.4,-9.5 18.3,-23.9 18.3,-38.8 0,-15 -6.3,-29.2 -17.4,-39.3 -5.9,-5.3 -13.2,-9.7 -20.9,-13.9 -3.4,-1.9 -13.9,-10.08 -10.4,-21.88 l -7.5,-1 c 10.5,-16.5 24.2,-32.94 41.4,-48.28 -13.2,4.51 -25,11.34 -33.7,23.63 C 202.3,43.58 210.7,32.79 220,22 Z M 29.65,39.89 c -4.24,0 -7.65,3.42 -7.65,7.65 l 0,32.37 c 0,4.23 3.41,7.65 7.65,7.65 l 24.86,0 c 2.32,0 5.33,1.91 5.33,5.19 l 0,106.95 c 0,3.5 2.73,6.2 6.14,6.2 l 37.32,0 c 3.4,0 6.2,-2.7 6.2,-6.2 l 0,-106 c 0,-3.27 2.2,-6.14 7.3,-6.14 l 22.5,0 c 4.1,0 7.7,-3.42 7.7,-7.65 l 0,-32.37 c 0,-4.23 -3.6,-7.65 -7.7,-7.65 l -109.65,0 z m 142.75,33.43 7.7,3.19 c 0,0 0,0 0,0 l 3.4,1.5 -0.1,0 0,75.29 c -1.5,4.5 -2.8,5.3 -6.4,9.5 -4.2,4.9 -4.9,12.2 -4.9,18 0,2.5 1,5.2 1.9,7.8 1.1,2.7 2,5.5 3.5,7.5 2,2.8 4.4,4.6 5.9,5.3 l 0,0.4 c -5.3,-1.1 -11.2,-3 -14.9,-6.1 -7.2,-6.3 -13.6,-16.8 -14.4,-25.9 -0.7,-7.5 6.2,-18.6 15.9,-24.2 8.2,-4.8 10.1,-10.2 11.9,-19 -2.4,7.7 -4.7,14.1 -12.7,18.2 -11.4,6 -17.3,16.1 -16.8,25.6 0.8,12.3 5.8,20.6 15.5,27.3 2.8,2 7.2,4 11.2,5.3 -14.7,-3.3 -16.2,-5 -20.5,-10 0,-0.3 -1.1,-1 -1.1,-1.3 -5.5,-6.2 -12.5,-16.9 -14.9,-26.7 -0.8,-3.4 -1.6,-7.1 -0.7,-10.5 4.5,-16.2 14.3,-22.4 24.2,-29.1 2.4,-1.7 4.8,-3.3 7.1,-4.9 5.4,-4.3 6.8,-15.6 8,-21.89 -2.3,7.79 -4.6,17.29 -8.8,20.49 -2.2,1.8 -5,3.1 -7.3,4.6 -10.2,7 -20.3,13.6 -25,30.2 -1.1,4.2 -0.2,7.4 0.7,11.5 2.6,10.2 9.6,21.2 15.3,27.7 0,0 1,1 1,1.1 2.6,3 6,5.1 9.9,6.8 -3.4,-0.9 -6.7,-2.2 -9.9,-3.7 -16,-7.7 -26.7,-24.4 -27.3,-38.1 -1.5,-27.7 11.8,-35.7 24.1,-45.8 7,-5.8 16.6,-8.5 22.2,-18.59 1,-2.2 1.6,-7.1 0.4,-12.2 -0.6,-1.8 -3.2,-7.9 -4.1,-9.3 z m 11.5,4.88 3.8,1.63 c 0.1,1.46 0.1,2.88 0.1,4.29 -0.4,6.54 -0.5,9.26 0.8,14.4 1.5,5.78 9.2,14.28 12.3,23.98 6,18.6 4.5,42.9 0.1,61.9 -0.7,3.1 -2.8,6.9 -5.6,10.3 1,-1.8 1.8,-3.8 2.4,-5.8 4.3,-15.3 6.1,-22.4 4.1,-39.4 -0.3,-1.6 -1,-7.2 -3.6,-13.2 -3.8,-9.2 -9.3,-17.9 -10,-19.7 -1.2,-2.8 -2.8,-15.3 -3.1,-23.68 0.1,7.08 0.7,20.28 2.6,25.48 0.5,1.8 5.6,9.6 9.1,19 2.5,6.5 3,12.6 3.5,14.3 1.6,7.8 -0.5,20.9 -3.2,33.4 -1.1,5.4 -4.3,11.9 -8.4,15.9 -0.1,0.1 -0.2,0.2 -0.4,0.3 2.6,-2.6 5.1,-6.9 6.6,-12.2 2.1,-7.2 2.9,-16.5 2.8,-22.3 -0.2,-3.4 -1.7,-10.8 -4.4,-17.5 -1.5,-3.7 -3.8,-7.4 -5.3,-10 -1.7,-2.6 -1.7,-8.2 -2.5,-14.8 0.1,7.2 -0.5,10.7 1.2,15.8 1.1,3 4.8,7.1 5.9,11 1.5,5.4 3.1,11.2 3,14.8 0,4.1 -0.3,11.7 -2,19.9 -1.4,6.8 -4.5,12.6 -9.7,15.9 0,0 0,0 -0.1,0 l 0,-0.3 c 0.1,0.1 0.2,0.1 0.2,0.1 l 0.1,0 0,-0.2 c 2.7,-2.9 4.3,-5.8 4.8,-8.8 0.7,-3.5 0.9,-7.1 1.3,-11.3 0.4,-3.6 0.1,-8.4 -0.9,-13.3 -1.3,-6.1 -3.7,-12.4 -4.6,-16.8 0.1,4.8 2,10.9 2.9,17.2 0.7,4.7 0.4,9.3 0.2,13.4 -0.1,4.8 -1.7,13.3 -3.9,17.4 0,0 0,0 -0.1,0 l 0,-121.1 z M 311,82.78 c -1.3,0 -4.2,0.17 -5,0.27 -24.6,2.49 -44,22.25 -45.9,46.95 -0.2,0.9 -0.2,2.7 -0.2,3.8 l 0,66.8 c 0,2.8 2.6,5.1 5.8,5.1 l 34.8,0 c 3.1,0 5.7,-2.3 5.7,-5.1 l 0,-58.6 c 0,-6.3 4.9,-12 15.7,-12 5.5,0 5.2,-1.8 5.2,-6.3 l 0,-34.64 c 0,-3.41 -2.8,-6.28 -6.4,-6.28 l -9.7,0 z m -127.6,71.02 0,45.2 c -1.6,-0.8 -2.3,-1.9 -3.5,-3.4 -1.7,-2.3 -2.8,-4.7 -3.9,-7.4 -0.8,-2 -1.7,-4.4 -2.1,-7.1 -0.6,-4.1 -0.4,-10.5 4.2,-17.1 3.3,-4.8 4.2,-5.5 5.3,-10.2 z"></path>
  
</svg>
