<?xml version="1.0"?>

<svg xmlns="http://www.w3.org/2000/svg" viewBox="0 0 517.4 446.4" width="517.4" height="446.4">&lt; <path d="m 287.8,85.94 c 26.4,-16.2 59.9,-31.8 92.5,-33.1 31.7,-0.7 46.9,5.8 60.3,21.4 13.5,15 14.4,40.96 14.4,40.96 l 28.4,0 c 0,0 8,-50.06 -23.2,-74.16 -24.3,-20.8 -58.6,-24.7 -108.6,-11 -24.4,6.5 -52.9,20.1 -76.4,35.8 -35.8,24.7 -62.5,51.36 -62.5,51.36 l 30.4,0 c 0,0 19,-15.6 44.7,-31.26 z M 266,371.7 c -20.2,9.8 -38.5,17.6 -58.3,20.8 -19.9,3.3 -24.8,3.3 -45.7,0.7 -8,-1.3 -21.5,-5.2 -33.8,-21.5 -7.6,-10.4 -10.8,-31.9 -10.8,-31.9 l -26.34,0 c 0,0 -0.91,31.2 13.94,55.3 9.8,14.3 23.5,20.2 32,23.5 8.4,3.2 24.1,5.8 35.8,5.8 57.3,0 115.3,-38.4 137.8,-52.7 29.3,-20.8 40.1,-33.9 40.1,-33.9 l -32.3,0 c 0,0 -32.2,24.1 -52.4,33.9 z m 184.6,-166 -66,0 0,-65.1 -41.5,0 0,182.3 41.5,0 0,-65.8 66,0 0,65.8 41.5,0 0,-130.2 -41.5,0 0,13 z m -3.4,-48.8 c 0,17.6 10.8,31.2 24,31.2 13.4,0 24.2,-13.6 24.2,-31.2 0,-16.9 -10.8,-31.2 -24.2,-31.2 -13.2,0 -24,14.3 -24,31.2 z M 280.9,323.5 c 29.5,-0.6 53.3,-26.7 53.3,-59.9 0,-29.9 -19.6,-54 -45.2,-58.5 0,0 -7.3,-0.7 -7.3,-0.7 -0.6,0 -1.8,0 -2.2,0 l -47.2,0 0,0 c -3.1,0 -5.6,-3.2 -5.6,-6.5 0,-3.3 2.5,-6.5 5.6,-6.5 l 97.2,0 0,-50.8 -97.2,0 0,0 c -29,1.3 -51.5,26.7 -51.5,58 0,29.9 19.1,54.6 45.4,58.5 0,0.7 55.4,0 55.4,0 l 0,0.7 c 3.3,0 6.1,2.6 6.1,6.5 0,3.9 -2.8,7.2 -6.1,7.2 l 0,0 -0.7,0 -109.1,0 0,52 109.1,0 0,0 z m -165.1,0 0,-132.1 52.1,0 0,-50.8 -145.9,0 0,50.8 52.14,0 0,132.1 41.66,0 z"></path> </svg>