 <svg 
    xmlns="http://www.w3.org/2000/svg"
   
   viewBox="0 0 339 56"
   height="56px"
   width="339px"
   > <path
     d="m 133.66,45.312 -28.76,-0.02 0,-12.922 c 0,-1.725 1.45,-3.192 3.17,-3.192 l 25.59,-0 c 4.46,0 8.06,3.61 8.06,8.048 0,4.488 -3.6,8.097 -8.06,8.097 M 104.9,9.567 133.79,9.6 c 4.05,0 7.33,3.285 7.33,7.34 0,4.032 -3.28,7.312 -7.33,7.312 l -26.16,0 c -0.95,0.07 -1.89,0.285 -2.73,0.647 l 0,-15.332 z m 36.27,17.1 c 2.93,-2.234 4.86,-5.756 4.86,-9.749 0,-6.752 -5.49,-12.251 -12.25,-12.251 l -34.087,-0.016 0,45.556 33.967,0 c 7.16,0 12.96,-5.812 12.96,-12.992 0,-4.351 -2.15,-8.191 -5.45,-10.548 m 151.36,0.802 c -1.1,0 -2.14,0.225 -3.1,0.616 l -0.1,-18.518 28.55,-0.011 c 4.95,0 8.96,3.994 8.96,8.955 0,4.955 -4.01,8.974 -8.96,8.974 l -25.4,-0.02 z m 39.91,17.843 c -1.25,1.007 -3.03,0.804 -4.12,-0.351 l -9.97,-12.653 c 7.45,-0.229 13.4,-6.326 13.4,-13.808 0,-7.658 -6.2,-13.849 -13.85,-13.849 l -33.73,0 0,45.557 5.21,0 0.1,-14.843 c 0.1,-1.654 1.46,-3.032 3.15,-3.032 l 19.19,0 12.46,15.827 c 2.87,3.39 7.9,3.955 11.4,1.204 l -3.19,-4.057 z m -133.64,-0.317 0,-12.433 c 0,-1.707 1.45,-3.109 3.14,-3.142 l 22.65,0 0,-5.239 -22.73,0 c -1.1,0.03 -2.12,0.252 -3.06,0.658 l 0,-14.975 36.98,0 0,-5.213 -42.23,0 0,45.556 43.76,0 0,-5.212 -38.51,0 z M 47.741,4.761 l 0,26.537 c 0,9.081 -4.381,14.448 -17.538,14.448 -13.195,0 -17.599,-5.367 -17.599,-14.448 l 0,-18.654 C 12.435,8.222 8.81,4.669 4.364,4.669 l 0,5.151 c 1.611,0 2.893,1.252 3.045,2.824 l 0,20.468 c 0,10.521 8.252,17.998 22.793,17.998 14.519,0 22.738,-7.478 22.738,-17.998 l 0,-28.351 -5.199,0 z"  /> </svg>