<svg 
   xmlns="http://www.w3.org/2000/svg"
   viewBox="0 0 600 140"
    height="140"
   width="600" >
  
  <path
     d="m 563.51,30.881 c 2.11,1.217 4.8,0.495 6.02,-1.611 1.22,-2.108 0.5,-4.801 -1.61,-6.018 -2.11,-1.216 -4.8,-0.494 -6.02,1.613 -1.21,2.107 -0.49,4.8 1.61,6.016 z M 554.5,59.37 c -1.94,0 -3.78,-0.431 -5.43,-1.197 l -3.06,5.486 c 2.56,1.265 5.44,1.981 8.49,1.981 1.77,0 3.48,-0.246 5.11,-0.697 0.29,-1.769 1.34,-3.399 3.01,-4.367 1.68,-0.965 3.61,-1.061 5.29,-0.428 3.25,-3.203 5.37,-7.561 5.68,-12.415 l -6.28,-0.09 c -0.57,6.575 -6.09,11.729 -12.81,11.729 z m 0,-25.74 c 6.72,0 12.24,5.156 12.81,11.729 l 6.28,-0.09 c -0.31,-4.853 -2.43,-9.211 -5.68,-12.414 -1.68,0.632 -3.61,0.537 -5.29,-0.429 -1.67,-0.967 -2.72,-2.598 -3.01,-4.367 -1.63,-0.451 -3.34,-0.697 -5.11,-0.697 -3.05,0 -5.93,0.716 -8.49,1.982 l 3.06,5.486 c 1.65,-0.767 3.49,-1.198 5.43,-1.198 z M 541.63,46.5 c 0,-4.354 2.16,-8.2 5.47,-10.528 l -3.22,-5.396 c -3.86,2.576 -6.73,6.513 -7.92,11.126 1.39,1.134 2.28,2.862 2.28,4.798 0,1.937 -0.89,3.664 -2.28,4.798 1.19,4.613 4.06,8.551 7.92,11.127 l 3.22,-5.396 C 543.79,54.7 541.63,50.855 541.63,46.5 Z m 21.88,15.619 c -2.1,1.216 -2.82,3.91 -1.61,6.017 1.22,2.106 3.91,2.829 6.02,1.612 2.11,-1.216 2.83,-3.91 1.61,-6.017 -1.22,-2.107 -3.91,-2.828 -6.02,-1.612 z M 532.06,42.095 c -2.44,0 -4.41,1.972 -4.41,4.405 0,2.433 1.97,4.406 4.41,4.406 2.43,0 4.4,-1.973 4.4,-4.406 0,-2.433 -1.97,-4.405 -4.4,-4.405 M 587.5,46.5 c 0,18.225 -14.78,33 -33,33 -18.23,0 -33,-14.775 -33,-33 0,-18.225 14.77,-33 33,-33 18.22,0 33,14.775 33,33 m -137.24,1.144 0,53.186 c 0,13.54 6.56,21.1 19.68,21.1 3.52,0 6.98,-0.16 10.39,-0.47 3.41,-0.31 6.3,-0.77 8.67,-1.39 l 0,-72.426 15.5,0 0,82.036 c -4.65,1.66 -10.02,2.85 -16.12,3.57 -6.09,0.83 -12.24,1.24 -18.44,1.24 -11.57,0 -20.35,-3.68 -26.34,-9.47 -5.99,-5.79 -8.99,-14.58 -8.99,-26.361 l 0,-51.015 15.65,0 m -240.06,0 0,53.186 c 0,13.54 6.56,21.1 19.68,21.1 3.51,0 6.97,-0.16 10.38,-0.47 3.41,-0.31 6.3,-0.77 8.68,-1.39 l 0,-72.426 15.5,0 0,82.036 c -4.65,1.66 -10.03,2.85 -16.12,3.57 -6.1,0.83 -12.24,1.24 -18.44,1.24 -11.57,0 -20.35,-3.68 -26.34,-9.47 -6,-5.79 -8.99,-14.58 -8.99,-26.361 l 0,-51.015 15.65,0 m 176.52,-27.443 -13.97,2.534 0,84.575 c 0,16.23 8.79,26.87 28.11,26.87 4.75,0 13.96,-1.29 19.44,-2.22 l -1.85,-10.95 c -0.1,0.43 -12.32,1.67 -18.84,1.32 -6.52,-0.36 -12.41,-5.68 -12.98,-11.14 l 0,-51.139 32.2,0 0,-12.418 -32.2,0 0.1,-27.432 z M 118.52,5.5 l -15.66,2.5336 0,121.6464 c 9.2,3.21 18.96,4.82 29.29,4.82 1.77,0 3.48,-0.1 5.13,-0.19 l 0,0 c 30.54,0.15 46.35,-24.07 42.26,-52.177 -3.21,-19.824 -19.66,-36.566 -38.92,-36.566 -7.64,0 -13.74,2.069 -18.29,3.723 -1.38,0.523 -2.63,1.063 -3.81,1.626 l 0,-45.3859 0,-10e-5 0,0 z m 21.94,52.612 c 17.19,0.847 24.08,15.971 24.61,30.841 0.73,20.327 -13.46,34.667 -32.61,32.977 -4.42,-0.4 -9.08,-0.56 -13.94,-1.69 l 0,-55.966 c 2.05,-1.745 4.35,-3.137 6.91,-4.161 3.62,-1.343 8.64,-2.317 15.03,-2.001 z m 160.7,74.198 -15.65,0 0,-81.255 c 4.75,-1.654 10.02,-2.842 15.81,-3.566 5.88,-0.827 11.93,-1.241 18.13,-1.241 23.14,0 34.71,11.527 34.71,34.579 l 0,51.483 -15.5,0 0,-53.654 c 0,-13.232 -6.4,-19.848 -19.21,-19.848 -3.41,0 -6.72,0.155 -9.92,0.466 -3.2,0.31 -5.99,0.723 -8.37,1.24 l 0,71.796 M 28.151,47.644 l 0,53.186 c 0,13.54 6.56,21.1 19.68,21.1 3.512,0 6.973,-0.16 10.382,-0.47 3.409,-0.31 6.302,-0.77 8.678,-1.39 l 0,-72.426 15.496,0 0,82.036 c -4.649,1.66 -10.021,2.85 -16.116,3.57 -6.095,0.83 -12.242,1.24 -18.44,1.24 -11.571,0 -20.352,-3.68 -26.343,-9.47 C 15.496,119.23 12.5,110.44 12.5,98.659 l 0,-51.015 15.651,0" />
 
</svg>
