<?xml version="1.0" encoding="UTF-8" standalone="no"?>
<svg
   xmlns:dc="http://purl.org/dc/elements/1.1/"
   xmlns:cc="http://creativecommons.org/ns#"
   xmlns:rdf="http://www.w3.org/1999/02/22-rdf-syntax-ns#"
   xmlns:svg="http://www.w3.org/2000/svg"
   xmlns="http://www.w3.org/2000/svg"
   viewBox="0 0 1056 400"
   height="400"
   width="1056"
   xml:space="preserve"
   version="1.1"
   id="svg4141"><defs
     id="defs4145"><clipPath
       id="clipPath4161"
       clipPathUnits="userSpaceOnUse"><path
         id="path4163"
         d="M 0,612 792,612 792,0 0,0 0,612 Z" /></clipPath></defs><path
     d="m 966.51351,200.65483 c -2.51333,0 -5.896,1.17467 -7.92267,2.188 -62.10399,35.62533 -118.96399,61.95067 -174.66799,49.79067 -42.52267,-9.784 -65.13467,-37.136 -22.44533,-70.88934 48.77733,-38.14133 142.61466,-72.89866 151.54266,-50.78 9.62267,23.61067 -110.188,63.604 -144.28133,74.23867 l -0.17733,0 c -5.22667,1.69333 -8.936,6.59067 -8.936,12.48 0,7.10267 5.89733,13 13.15733,13 l 0.336,0 c 1.01333,0 2.18667,0 3.37467,-0.16133 29.02133,-3.87867 94.85066,-23.45734 121.85199,-35.444 25.98134,-11.48267 57.036,-22.78134 67.34667,-54.84134 9.77466,-30.20933 -13.684,-59.741334 -63.13333,-60.930664 -95.848,-2.37067 -188,53.158664 -214.332,108.688004 -5.57067,-6.768 -11.30667,-14.02134 -17.036,-21.77601 -37.128,-51.46799 -90.79733,-81.502664 -151.72666,-81.502664 -30.54533,0 -60.23867,8.26 -86.74267,23.276004 0.16134,-3.03867 0.50534,-8.257334 0.50534,-8.257334 l -0.152,-3.88667 0,-1.524 c 0,-8.25867 -8.29334,-15.17733 -19.09067,-15.17733 -10.12133,0 -18.04933,6.256 -18.72133,14.156 l 0,0.35866 c -3.37333,25.128004 -11.48133,48.092004 -24.13467,69.196004 l -8.60533,13.16 c -28.86,39.65734 -71.39467,62.452 -116.44533,62.452 -74.09733,0 -138.21333,-61.95067 -149.039994,-144.648004 l 0,-0.51866 c -0.664,-7.9 -8.599999,-14.156 -18.882666,-14.156 -10.641333,0 -19.078666,6.576 -19.078666,15.02666 l 0,1.84267 0,3.53467 c 0,110.721334 83.882666,200.831994 187.001326,200.831994 30.53333,0 60.248,-8.25866 86.73733,-23.28399 -0.16133,3.21599 -0.512,8.42533 -0.512,8.42533 l 0.16933,5.57866 c 0.18134,8.26667 8.44,14.68934 19.07067,14.68934 10.30667,0 18.56933,-6.248 18.90667,-14.34534 3.364,-24.80133 11.31333,-48.09333 23.95599,-69.36533 0,0.16667 6.24667,-9.28133 6.24667,-9.28133 l 2.37867,-3.70933 c 28.844,-39.66534 71.37733,-62.44534 116.43333,-62.44534 47.588,0 87.07733,21.608 120.83066,65.64667 38.476,50.46667 82.71333,87.756 151.89467,87.756 93.82933,0 180.07066,-71.04 180.07066,-71.04 5.568,-4.04667 10.124,-8.77733 9.95733,-16.03067 -0.16,-7.77333 -8.61867,-12.656 -15.704,-12.32133 m -0.23173,89.7852 -3.63867,0 0,-10.04667 c 0.608,-0.14533 1.78667,-0.312 3.50267,-0.312 2.22,0 4.01466,0.57467 5.12266,1.748 0.76,0.77467 1.25467,1.87467 1.25467,3.336 l 0,0.024 c 0,3.17467 -2.43467,5.25067 -6.24133,5.25067 m 8.66666,7.068 c -0.69466,-2.87867 -1.972,-4.81734 -4.03733,-5.584 l 0,-0.0893 c 2.872,-0.99733 5.19467,-3.39066 5.19467,-7.02133 0,-2.14667 -0.82267,-4.04533 -2.19467,-5.20267 -1.724,-1.59466 -4.16533,-2.30666 -8.01867,-2.30666 -2.40266,0 -5.03466,0.232 -6.8,0.61467 l 0,27.17066 3.55067,0 0,-11.95333 3.352,0 c 3.232,0.12 4.74,1.55466 5.55333,5.37066 0.75067,3.42134 1.34134,5.76 1.812,6.58267 l 3.68534,0 c -0.54267,-1.07733 -1.204,-3.74133 -2.09734,-7.58133 m -29.0612,-6.09534 c 0.0173,-12.01733 9.73467,-21.70399 21.736,-21.71999 l 0,1.26 0,1.25333 c -10.62,0 -19.23866,8.56266 -19.23866,19.20666 0.0307,10.604 8.61866,19.19734 19.23866,19.20534 10.604,-0.008 19.20534,-8.60134 19.22267,-19.20534 -0.0173,-10.644 -8.61867,-19.20666 -19.22267,-19.20666 l 0,-1.25333 0,-1.26 c 11.98534,0.016 21.728,9.70266 21.728,21.71999 0,12.01734 -9.74266,21.72 -21.728,21.72 -12.00133,0 -21.736,-9.70266 -21.736,-21.72"
     id="path4175" /><metadata
     id="metadata4209"><rdf:RDF><cc:Work
         rdf:about=""><dc:title></dc:title></cc:Work></rdf:RDF></metadata></svg>