<?xml version="1.0"?>

<svg xmlns="http://www.w3.org/2000/svg" viewBox="0 0 562 96" width="562" height="96">  <path d="m 66.95,44.88 c 0,0 1.23,-14.04 1.61,-18.36 0.38,-4.32 2.09,-6.78 5.57,-7.87 C 77.61,17.58 95.78,12 95.78,12 L 92.72,47.12 C 91,66.72 74.02,81.78 54.98,83.38 l 2.25,-26.36 c 5.22,-1.67 9.22,-6.35 9.72,-12.14 m -26.1,0 c 0,0 -1.24,-14.04 -1.61,-18.36 C 38.86,22.2 37.15,19.74 33.67,18.65 30.19,17.58 12,12 12,12 l 3.08,35.12 c 1.71,19.6 18.69,34.66 37.73,36.26 L 50.57,57.02 C 45.34,55.35 41.35,50.67 40.85,44.88 M 230.4,63.43 C 226.9,59.94 204,37.69 203.7,37.44 c -0.5,-0.5 -1.2,-1.04 -1.6,-1.29 l -0.2,0 c 0,0.77 0,1.49 0,1.49 l 0,32.98 -12.4,0 0,-32.95 c 0,-2.05 0,-3.13 0,-3.81 0,-9.59 7.3,-9.94 8.7,-9.94 l 4.1,0 c 4.8,0 8.2,3.8 9.6,5.19 l 1.7,1.65 c 3.5,3.43 26.8,25.99 27.1,26.26 0.5,0.49 1.2,1.02 1.6,1.27 l 0.2,0 c 0,-0.77 0,-1.48 0,-1.48 l 0,-32.89 12.4,0 0,32.85 c 0,2.06 0,3.14 0,3.81 -0.1,9.01 -6.2,10.03 -7.6,10.03 l -5.5,0 c -4.2,0 -7.9,-3.73 -9.3,-5.14 z m 0,0 m -88.6,8.04 c -8.5,0 -13.7,-1.38 -18.2,-5.18 -4.6,-4 -6.7,-8.44 -6.7,-15.21 l 0,-27.18 12.4,0 0,26.98 c 0,6.54 5.6,8.99 12.1,8.99 l 14.2,0 c 7,0 12.1,-2.45 12.1,-8.99 l 0,-26.98 12.3,0 0,27.18 c 0,6.77 -2,11.21 -6.7,15.21 -4.5,3.8 -9.6,5.18 -18.2,5.18 z m 0,0 m 136.6,-0.85 -13,0 0,-46.72 13,0 z m 0,0 m 66.5,-46.72 -33.2,0 c -17.3,0 -26.5,9.78 -26.5,24.17 0,8.73 3.8,14.99 10.3,18.95 4.5,2.79 10.8,3.6 19,3.6 l 9.1,0 0,-9.06 -7,0 c -12.6,0 -18.9,-3.49 -18.9,-13.64 0,-8.31 4.8,-13.99 14.1,-13.99 l 20.4,0 0,36.68 12.7,0 z m 0,0 m 37.6,37.7 c 13.7,0 20.5,-3.43 20.5,-14.93 0,-9.46 -5.1,-13.15 -15.3,-13.15 l -20,0 0,28.08 z M 355,23.9 l 32.6,0 c 17.4,0 27.1,8.55 27.1,22.94 0,8.72 -4.3,16.22 -10.8,20.18 -4.5,2.79 -10.8,3.6 -19.1,3.6 l -29.8,0 z m 0,0 m 194.8,46.71 -16.6,0 -17,-16.51 -17,16.51 -16.5,0 25.9,-23.28 -25.9,-23.43 16.9,0 16.6,16.6 16.7,-16.6 16.9,0 -25.9,23.43 z m 0,0 m -108.4,0 c -2.5,0 -5.4,-0.13 -6.4,-0.38 -1,-0.24 -2.1,-0.58 -3.3,-1 -3.9,-1.53 -7.1,-4.32 -9.6,-8.18 -2.4,-3.83 -3.6,-8.35 -3.6,-13.42 0,-1.84 0.2,-3.62 0.5,-5.29 0.7,-4.34 2.3,-8.05 4.7,-11.04 2.5,-3 5.6,-5.12 9.3,-6.29 1.7,-0.55 5.1,-1.11 8.4,-1.11 l 36.1,0 0,9.67 -34.5,0 c -2,0 -3.5,0.29 -4.7,0.86 -2,0.94 -3.4,1.98 -4.3,3.1 -0.8,1.05 -1.3,2.1 -1.5,3.21 -0.1,0.31 -0.2,0.74 -0.2,1.3 l -0.1,0.66 45.5,0 0,9.55 -45.3,0 c 0,0.58 0.1,1.1 0.2,1.51 0.4,1.34 1.1,2.66 2.3,3.94 1.8,1.94 4.6,3.17 7.4,3.17 l 35.4,0 0,9.74 z m 0,0"></path>
</svg>
