<?xml version="1.0"?>

<svg xmlns="http://www.w3.org/2000/svg" viewBox="0 0 673.9 415" width="673.9" height="415">
  
  <path d="m 494.1,391.7 m 0,0 c -3.6,0 -7.8,-0.2 -9.3,-0.5 -1.4,-0.4 -3,-0.9 -4.8,-1.5 -5.7,-2.2 -10.3,-6.3 -13.9,-11.9 -3.5,-5.5 -5.3,-12.1 -5.3,-19.5 0,-2.7 0.3,-5.3 0.7,-7.7 1.1,-6.3 3.4,-11.7 6.9,-16.1 3.6,-4.3 8.1,-7.4 13.5,-9.1 2.5,-0.8 7.4,-1.6 12.2,-1.6 l 52.6,0 0,14 -50.2,0 c -2.9,0 -5.1,0.5 -6.9,1.3 -2.9,1.4 -4.9,2.9 -6.2,4.5 -1.2,1.5 -1.9,3.1 -2.2,4.7 -0.2,0.4 -0.3,1.1 -0.3,1.9 l -0.1,0.9 66.2,0 0,13.9 -66,0 c 0,0.9 0.2,1.6 0.3,2.2 0.6,2 1.6,3.9 3.4,5.8 2.6,2.8 6.7,4.6 10.7,4.6 l 51.6,0 0,14.1 z m 157.8,0 m 0,0 -24.2,0 -24.7,-24 -24.8,24 -24,0 37.7,-33.8 -37.7,-34.1 24.6,0 24.2,24.1 24.3,-24.1 24.6,0 -37.7,34.1 z M 368.4,323.8 m 0,0 47.5,0 c 25.3,0 39.4,12.4 39.4,33.4 0,12.6 -6.3,23.6 -15.7,29.3 -6.6,4.1 -15.7,5.3 -27.8,5.3 l -43.4,0 z m 40,54.8 c 20,0 29.9,-5 29.9,-21.7 0,-13.8 -7.5,-19.1 -22.3,-19.1 l -29.1,0 0,40.8 z m -54.7,-54.8 m 0,0 -48.3,0 c -25.1,0 -38.5,14.2 -38.5,35.1 0,12.7 5.5,21.9 15,27.6 6.5,4.1 15.7,5.3 27.6,5.3 l 13.2,0 0,-13.2 -10.1,0 c -18.4,0 -27.5,-5.1 -27.5,-19.9 0,-12.1 6.9,-20.3 20.5,-20.3 l 29.7,0 0,53.3 18.4,0 z m -96.7,68 m 0,0 -18.9,0 0,-68 18.9,0 z M 58.22,393 m 0,0 c -12.37,0 -19.93,-2 -26.48,-7.5 -6.7,-5.9 -9.75,-12.3 -9.75,-22.2 l 0,-39.5 18.04,0 0,39.2 c 0,9.5 8.15,13.1 17.61,13.1 l 20.66,0 c 10.18,0 17.6,-3.6 17.6,-13.1 l 0,-39.2 17.9,0 0,39.5 c 0,9.9 -2.9,16.3 -9.7,22.2 C 97.5,391 90.08,393 77.57,393 Z M 187.1,381.3 m 0,0 c -5.1,-5.1 -38.4,-37.5 -38.8,-37.8 -0.7,-0.8 -1.8,-1.5 -2.3,-1.9 l -0.3,0 c 0,1.1 0,2.2 0,2.2 l 0,48 -18.1,0 0,-48 c 0,-3 0,-4.5 0,-5.5 0,-14 10.6,-14.5 12.7,-14.5 l 5.9,0 c 7,0 12,5.5 14,7.6 l 2.5,2.4 c 5.1,4.9 39,37.8 39.4,38.2 0.7,0.7 1.8,1.4 2.3,1.8 l 0.3,0 c 0,-1.1 0,-2.1 0,-2.1 l 0,-47.9 18.1,0 0,47.8 c 0,3 0,4.6 0,5.5 -0.2,13.2 -9,14.6 -11.1,14.6 l -8,0 c -6.1,0 -11.5,-5.4 -13.5,-7.4 z M 287.8,146 c 0,0 -4.5,-52.99 -5.9,-69.28 -1.6,-16.3 -8,-25.61 -21.1,-29.69 C 247.5,43.1 179.3,22.01 179.3,22.01 l 11.3,132.39 c 6.4,74 70.4,130.7 142.5,136.8 l -8.6,-99.4 c -19.7,-6.3 -34.8,-24 -36.7,-45.8 m 98.5,0 c 0,0 4.5,-52.99 6,-69.28 1.6,-16.3 8,-25.61 21.1,-29.69 13.2,-3.92 81.5,-25.02 81.5,-25.02 L 483.5,154.4 c -6.4,74 -70.4,130.7 -142.4,136.8 l 8.6,-99.4 c 19.6,-6.3 34.7,-24 36.6,-45.8"></path>
</svg>
