<?xml version="1.0"?>

<!-- Generator: Adobe Illustrator 19.1.0, SVG Export Plug-In . SVG Version: 6.00 Build 0)  -->
<svg version="1.1" id="Layer_1" xmlns="http://www.w3.org/2000/svg" xmlns:xlink="http://www.w3.org/1999/xlink" x="0px" y="0px" width="349.333px" height="200px" viewBox="125.333 0 349.333 200" enable-background="new 125.333 0 349.333 200" xml:space="preserve">
<path d="M259.673,162.836h4.093v21.754h-4.093V162.836z M259.673,154.998h4.093v5.245h-4.093V154.998z"></path>
<path d="M279.716,166.493c-0.674-1.464-1.522-2.541-2.553-3.216c-1.029-0.678-2.186-1.016-3.474-1.016
	c-2.158,0-3.923,1.002-5.282,3.013c-1.35,2.011-2.031,4.896-2.031,8.661c0,4.02,0.754,6.921,2.254,8.701
	c1.507,1.786,3.236,2.676,5.203,2.676c2.382,0,4.231-1.059,5.555-3.178c0.849-1.325,1.328-2.634,1.43-3.929h-4.125
	c-0.213,0.64-0.464,1.137-0.75,1.496c-0.518,0.671-1.196,1-2.023,1c-0.786,0-1.459-0.271-2.014-0.816
	c-0.918-0.883-1.403-2.408-1.463-4.592h10.575c0.014-1.874-0.023-3.311-0.13-4.311C280.712,169.278,280.319,167.782,279.716,166.493
	z M270.546,171.539c0.131-1.408,0.451-2.526,0.964-3.353c0.518-0.824,1.246-1.236,2.179-1.236c0.865,0,1.577,0.395,2.155,1.176
	c0.589,0.773,0.913,1.913,0.978,3.413H270.546z"></path>
<path d="M156.189,159.861c1.556,0,2.735,0.639,3.527,1.92c0.443,0.718,0.808,1.778,1.091,3.194h4.366
	c-0.067-1.837-0.55-3.664-1.45-5.488c-1.626-3.248-4.191-4.871-7.706-4.871c-2.626,0-4.791,1.207-6.49,3.631
	c-1.956,2.782-2.934,6.74-2.935,11.875c0,4.754,0.861,8.485,2.581,11.216c1.717,2.711,4.077,4.066,7.085,4.066
	c2.426,0,4.416-0.998,5.964-3.005c1.558-2.01,2.529-4.617,2.903-7.824h-4.319c-0.293,1.515-0.665,2.65-1.107,3.408
	c-0.801,1.416-1.971,2.118-3.499,2.118c-1.489,0-2.728-0.818-3.699-2.457c-0.962-1.647-1.444-4.124-1.444-7.421
	c0-3.299,0.46-5.846,1.375-7.645C153.347,160.769,154.597,159.861,156.189,159.861z"></path>
<path d="M192.457,171.501c-2.404-0.747-3.81-1.273-4.207-1.577c-0.398-0.295-0.596-0.764-0.596-1.419
	c0-0.517,0.184-0.97,0.552-1.357c0.378-0.385,1.003-0.582,1.883-0.582c1.069,0.005,1.823,0.39,2.271,1.162
	c0.237,0.422,0.379,1,0.438,1.736h4.037c-0.176-2.66-0.878-4.532-2.097-5.608c-1.209-1.089-2.776-1.639-4.706-1.639
	c-2.033,0.003-3.61,0.728-4.733,2.176c-1.113,1.438-1.675,3.161-1.675,5.171c0,1.702,0.363,3.005,1.085,3.912
	c0.713,0.915,1.949,1.679,3.695,2.294c2.427,0.813,3.831,1.381,4.21,1.715c0.378,0.336,0.565,0.821,0.565,1.458
	c0,0.669-0.238,1.165-0.709,1.496c-0.464,0.33-1.093,0.501-1.882,0.501c-1.351,0-2.281-0.384-2.782-1.137
	c-0.279-0.425-0.463-1.141-0.548-2.159h-4.093c0,2.24,0.575,4.083,1.725,5.53c1.165,1.439,2.956,2.154,5.383,2.154
	c2.38,0,4.139-0.677,5.276-2.032c1.143-1.373,1.709-3.135,1.709-5.291c0-1.641-0.398-3.001-1.188-4.093
	C195.269,172.836,194.064,172.031,192.457,171.501z"></path>
<path d="M250.315,162.358c-1.125,0-2.052,0.334-2.779,0.997c-0.614,0.537-1.177,1.305-1.688,2.316v-10.455h-4.022v29.375h3.956
	v-2.736c0.537,1.068,1.035,1.813,1.5,2.24c0.775,0.716,1.799,1.078,3.074,1.078c2.03-0.005,3.614-1.111,4.751-3.335
	c1.133-2.221,1.698-5.018,1.698-8.401c0-3.262-0.573-5.925-1.727-7.987C253.934,163.391,252.345,162.358,250.315,162.358z
	 M251.702,178.705c-0.573,1.186-1.381,1.78-2.423,1.78c-1.198,0-2.088-0.615-2.676-1.84c-0.588-1.224-0.879-2.768-0.879-4.632
	c0-1.58,0.139-2.872,0.422-3.868c0.552-1.878,1.56-2.815,3.024-2.815c1.445,0,2.434,0.957,2.975,2.874
	c0.282,1.007,0.427,2.286,0.427,3.831C252.571,175.966,252.279,177.521,251.702,178.705z"></path>
<path d="M238.732,183.096c-0.13-0.269-0.21-0.777-0.243-1.519c-0.019-0.986-0.026-1.821-0.026-2.516v-9.981
	c0-2.619-0.653-4.402-1.97-5.347c-1.309-0.945-2.814-1.419-4.501-1.419c-2.605,0-4.434,0.959-5.502,2.875
	c-0.672,1.224-1.047,2.787-1.135,4.69h3.897c0.095-0.837,0.286-1.503,0.566-1.996c0.398-0.661,1.074-0.995,2.026-0.995
	c0.849,0,1.493,0.171,1.931,0.517c0.441,0.334,0.665,0.945,0.665,1.836c-0.003,0.731-0.29,1.271-0.868,1.617
	c-0.32,0.203-0.854,0.368-1.599,0.501l-1.372,0.242c-1.563,0.274-2.743,0.742-3.548,1.393c-1.459,1.197-2.193,3.134-2.193,5.809
	c0,2.061,0.455,3.657,1.36,4.79c0.919,1.119,2.073,1.675,3.47,1.675c1.097,0,2.081-0.352,2.949-1.057
	c0.727-0.596,1.371-1.325,1.93-2.175c0.026,0.493,0.065,0.93,0.114,1.316c0.044,0.388,0.128,0.799,0.254,1.236h4.393v-0.839
	C239.066,183.583,238.864,183.359,238.732,183.096z M234.425,176.129c-0.033,1.904-0.412,3.211-1.148,3.936
	c-0.728,0.716-1.526,1.073-2.395,1.073c-0.55,0-1.018-0.209-1.404-0.639c-0.375-0.434-0.569-1.143-0.569-2.11
	c0-1.097,0.315-1.902,0.938-2.421c0.368-0.301,0.978-0.566,1.828-0.777l0.908-0.242c0.455-0.117,0.809-0.246,1.063-0.374
	c0.264-0.147,0.526-0.334,0.779-0.562L234.425,176.129L234.425,176.129z"></path>
<path d="M213,183.096c-0.137-0.269-0.214-0.777-0.243-1.519c-0.022-0.986-0.029-1.821-0.029-2.516v-9.981
	c0-2.619-0.655-4.402-1.975-5.347c-1.309-0.945-2.814-1.419-4.501-1.419c-2.599,0-4.434,0.959-5.5,2.875
	c-0.669,1.224-1.045,2.787-1.133,4.69h3.894c0.096-0.837,0.29-1.503,0.571-1.996c0.397-0.661,1.07-0.995,2.025-0.995
	c0.85,0,1.493,0.171,1.926,0.517c0.441,0.334,0.665,0.945,0.665,1.836c0,0.731-0.286,1.271-0.86,1.617
	c-0.323,0.203-0.855,0.368-1.602,0.501l-1.376,0.242c-1.559,0.274-2.738,0.742-3.543,1.393c-1.464,1.197-2.195,3.134-2.195,5.809
	c0,2.061,0.452,3.657,1.359,4.79c0.917,1.119,2.074,1.675,3.477,1.675c1.09,0,2.073-0.352,2.941-1.057
	c0.727-0.596,1.371-1.325,1.93-2.175c0.027,0.493,0.067,0.93,0.113,1.316c0.049,0.388,0.132,0.799,0.254,1.236h4.395v-0.839
	C213.328,183.583,213.129,183.359,213,183.096z M208.691,176.129c-0.029,1.904-0.412,3.211-1.151,3.936
	c-0.727,0.716-1.522,1.073-2.393,1.073c-0.548,0-1.014-0.209-1.401-0.639c-0.383-0.434-0.57-1.143-0.57-2.11
	c0-1.097,0.312-1.902,0.934-2.421c0.372-0.301,0.982-0.566,1.832-0.777l0.908-0.242c0.45-0.117,0.808-0.246,1.059-0.374
	c0.267-0.147,0.526-0.334,0.782-0.562V176.129z"></path>
<path d="M180.876,183.096c-0.132-0.269-0.212-0.777-0.238-1.519c-0.019-0.986-0.025-1.821-0.025-2.516v-9.981
	c-0.005-2.619-0.662-4.402-1.975-5.347s-2.813-1.419-4.509-1.419c-2.596,0-4.43,0.959-5.492,2.875
	c-0.674,1.224-1.051,2.787-1.137,4.69h3.897c0.094-0.837,0.284-1.503,0.571-1.996c0.395-0.661,1.07-0.995,2.023-0.995
	c0.85,0,1.494,0.171,1.931,0.517c0.442,0.334,0.666,0.945,0.666,1.836c0,0.731-0.291,1.271-0.867,1.617
	c-0.323,0.203-0.86,0.368-1.602,0.501l-1.376,0.242c-1.559,0.274-2.739,0.742-3.54,1.393c-1.467,1.197-2.2,3.134-2.2,5.809
	c0,2.061,0.453,3.657,1.362,4.79c0.914,1.119,2.073,1.675,3.471,1.675c1.096,0,2.081-0.352,2.949-1.057
	c0.727-0.596,1.37-1.325,1.927-2.175c0.029,0.493,0.065,0.93,0.113,1.316c0.048,0.388,0.132,0.799,0.254,1.236h4.394v-0.839
	C181.208,183.583,181.012,183.359,180.876,183.096z M176.57,176.129c-0.03,1.904-0.409,3.211-1.147,3.936
	c-0.729,0.716-1.53,1.073-2.398,1.073c-0.547,0-1.017-0.209-1.404-0.639c-0.375-0.434-0.562-1.143-0.562-2.11
	c0-1.097,0.308-1.902,0.934-2.421c0.369-0.301,0.978-0.566,1.828-0.777l0.905-0.242c0.455-0.117,0.808-0.246,1.066-0.374
	c0.26-0.147,0.524-0.334,0.778-0.562V176.129z"></path>
<path d="M373.309,57.503l32.533,76.956h41.485L394.392,11.216h-41.773l-6.235,11.838c0,0-2.111-4.518-5.943-7.658
	c-3.15-2.586-10.113-4.18-10.113-4.18h-59.459c0,0-4.555-0.365-9.152,3.26c-4.863,3.831-8.235,8.809-8.235,8.809l-6.972-12.07
	h-39.842L154.356,134.46h39.937l32.706-75.739l6.394,14.103l-26.134,61.635h41.105l6.634-15.391c0,0,4.514,15.391,17.42,15.391
	h59.322c10.914,0,14.864-14.894,14.864-14.894l6.27,14.894h40.912l-26.995-63.378L373.309,57.503z M275.766,68.933l15.981-36.414
	c4.183-7.429,13.518-7.24,17.232-0.038l15.65,36.453c1.12,2.787,0.932,3.722-0.553,7.207c-2.566,9.861-13.466,31.813-13.466,31.813
	c-4.987,9.416-15.506,8.732-20.351,0L275.766,76.14C274.285,73.769,274.285,72.28,275.766,68.933z M328.72,129.319h-57.281
	c-5.257,0-8.215-2.923-10.891-8.973L213.64,15.76h30.888l41.555,92.194c1.663,6.391,7.461,10.991,14.378,10.991
	c6.912,0,11.771-4.023,14.347-10.991l13.393-30.137l15.304,34.995C343.505,112.812,340.331,129.319,328.72,129.319z M349.52,29.84
	l6.256-14.08h31.236l-22.243,49.624C362.242,59.493,357.105,47.515,349.52,29.84z"></path>
<path d="M450.927,165.593c-1.306-2.305-3.284-3.456-5.938-3.456c-2.65,0.005-4.632,1.151-5.934,3.456
	c-1.305,2.302-1.962,5.023-1.962,8.163c0,3.191,0.656,5.927,1.962,8.201c1.301,2.267,3.284,3.391,5.934,3.391
	c2.653,0,4.632-1.124,5.938-3.391c1.306-2.275,1.958-5.01,1.958-8.201C452.885,170.616,452.234,167.894,450.927,165.593z
	 M447.698,178.805c-0.632,1.186-1.54,1.78-2.723,1.78c-1.179,0-2.09-0.594-2.732-1.78c-0.632-1.186-0.953-2.864-0.953-5.049
	c0-2.186,0.322-3.858,0.953-5.031c0.642-1.184,1.553-1.775,2.732-1.775c1.183,0,2.091,0.591,2.723,1.775
	c0.634,1.173,0.949,2.845,0.949,5.031C448.647,175.94,448.332,177.619,447.698,178.805z"></path>
<path d="M390.729,166.493c-0.671-1.464-1.521-2.541-2.552-3.216c-1.029-0.678-2.187-1.016-3.467-1.016
	c-2.17,0-3.929,1.002-5.289,3.013c-1.35,2.011-2.023,4.896-2.023,8.661c0,4.02,0.749,6.921,2.25,8.701
	c1.503,1.786,3.235,2.676,5.203,2.676c2.381,0,4.235-1.059,5.554-3.178c0.846-1.325,1.327-2.634,1.43-3.929h-4.124
	c-0.217,0.64-0.467,1.137-0.75,1.496c-0.52,0.671-1.194,1-2.027,1c-0.786,0-1.458-0.271-2.01-0.816
	c-0.915-0.883-1.406-2.408-1.461-4.592h10.572c0.019-1.874-0.022-3.311-0.128-4.311
	C391.725,169.278,391.336,167.782,390.729,166.493z M381.564,171.539c0.13-1.408,0.452-2.526,0.963-3.353
	c0.518-0.824,1.247-1.236,2.183-1.236c0.857,0,1.575,0.395,2.151,1.176c0.585,0.773,0.913,1.913,0.98,3.413H381.564z"></path>
<path d="M428.745,162.357c-1.236,0-2.306,0.487-3.204,1.458c-0.491,0.544-0.956,1.292-1.385,2.232v-3.211h-3.868v30.318h3.998
	v-11.335c0.422,0.918,0.856,1.612,1.3,2.096c0.808,0.864,1.833,1.297,3.06,1.297c1.931-0.003,3.499-1.003,4.72-3.015
	c1.23-2.011,1.844-4.931,1.844-8.761c-0.001-3.633-0.631-6.388-1.886-8.262C432.077,163.294,430.55,162.357,428.745,162.357z
	 M430.149,178.605c-0.59,1.224-1.441,1.836-2.563,1.836c-0.78,0-1.453-0.298-2.015-0.899c-0.957-1.026-1.434-2.801-1.434-5.331
	c0-1.595,0.148-2.91,0.426-3.948c0.552-1.954,1.552-2.932,3.023-2.932c1.219-0.001,2.096,0.644,2.636,1.931
	c0.546,1.293,0.821,2.777,0.821,4.451C431.043,175.75,430.745,177.379,430.149,178.605z"></path>
<path d="M415.745,164.872c-0.534-0.929-1.139-1.584-1.799-1.952c-0.658-0.376-1.332-0.563-2.013-0.563
	c-1.018,0-1.945,0.301-2.779,0.899c-0.779,0.601-1.438,1.539-1.967,2.815c-0.306-1.064-0.745-1.934-1.331-2.614
	c-0.724-0.734-1.683-1.1-2.863-1.1c-1.247,0-2.263,0.426-3.046,1.279c-0.449,0.479-0.919,1.284-1.419,2.411v-3.167h-3.922v21.71
	h4.094v-13.088c0-1.184,0.106-2.083,0.324-2.677c0.397-1.046,1.169-1.577,2.324-1.577c0.995,0.005,1.658,0.531,1.999,1.577
	c0.189,0.585,0.282,1.522,0.282,2.814v12.952h4.064v-12.952c0-0.972,0.114-1.799,0.328-2.493c0.423-1.306,1.195-1.956,2.313-1.956
	c0.963,0,1.625,0.504,1.981,1.519c0.187,0.529,0.283,1.209,0.283,2.034v13.849h4.137l0.026-13.71c0-1.408-0.044-2.481-0.138-3.215
	C416.472,166.565,416.179,165.63,415.745,164.872z"></path>
<path d="M346.336,155.174h4.037v29.416h-4.037V155.174z"></path>
<path d="M343.015,183.096c-0.132-0.269-0.212-0.777-0.239-1.519c-0.019-0.986-0.027-1.821-0.027-2.516v-9.981
	c0-2.619-0.66-4.402-1.972-5.347c-1.314-0.945-2.818-1.419-4.508-1.419c-2.596,0-4.43,0.959-5.5,2.875
	c-0.668,1.224-1.046,2.787-1.129,4.69h3.893c0.1-0.837,0.287-1.503,0.57-1.996c0.397-0.661,1.07-0.995,2.027-0.995
	c0.85,0,1.493,0.171,1.927,0.517c0.444,0.334,0.664,0.945,0.664,1.836c0,0.731-0.287,1.271-0.864,1.617
	c-0.324,0.203-0.858,0.368-1.6,0.501l-1.374,0.242c-1.564,0.274-2.742,0.742-3.54,1.393c-1.469,1.197-2.199,3.134-2.199,5.809
	c0,2.061,0.452,3.657,1.36,4.79c0.916,1.119,2.073,1.675,3.471,1.675c1.095,0,2.077-0.352,2.95-1.057
	c0.726-0.596,1.366-1.325,1.926-2.175c0.029,0.493,0.066,0.93,0.109,1.316c0.053,0.388,0.137,0.799,0.259,1.236h4.394v-0.839
	C343.347,183.583,343.147,183.359,343.015,183.096z M338.711,176.129c-0.029,1.904-0.412,3.211-1.148,3.936
	c-0.731,0.716-1.53,1.073-2.398,1.073c-0.547,0-1.014-0.209-1.399-0.639c-0.385-0.434-0.57-1.143-0.57-2.11
	c0-1.097,0.312-1.902,0.937-2.421c0.366-0.301,0.974-0.566,1.823-0.777l0.908-0.242c0.457-0.117,0.809-0.246,1.064-0.374
	c0.265-0.147,0.524-0.334,0.783-0.562L338.711,176.129L338.711,176.129z"></path>
<path d="M317.28,183.096c-0.134-0.269-0.216-0.777-0.242-1.519c-0.021-0.986-0.025-1.821-0.025-2.516v-9.981
	c-0.004-2.619-0.664-4.402-1.972-5.347c-1.316-0.945-2.82-1.419-4.508-1.419c-2.595,0-4.433,0.959-5.5,2.875
	c-0.67,1.224-1.047,2.787-1.129,4.69h3.893c0.096-0.837,0.285-1.503,0.571-1.996c0.398-0.661,1.072-0.995,2.024-0.995
	c0.853,0,1.493,0.171,1.926,0.517c0.449,0.334,0.664,0.945,0.664,1.836c0,0.731-0.288,1.271-0.864,1.617
	c-0.319,0.203-0.853,0.368-1.593,0.501l-1.38,0.242c-1.558,0.274-2.74,0.742-3.54,1.393c-1.464,1.197-2.198,3.134-2.198,5.809
	c0,2.061,0.455,3.657,1.363,4.79c0.917,1.119,2.07,1.675,3.471,1.675c1.096,0,2.073-0.352,2.945-1.057
	c0.732-0.596,1.371-1.325,1.927-2.175c0.028,0.493,0.07,0.93,0.114,1.316c0.048,0.388,0.13,0.799,0.252,1.236h4.394v-0.839
	C317.613,183.583,317.413,183.359,317.28,183.096z M312.972,176.129c-0.029,1.904-0.414,3.211-1.146,3.936
	c-0.728,0.716-1.526,1.073-2.398,1.073c-0.544,0-1.014-0.209-1.401-0.639c-0.383-0.434-0.566-1.143-0.566-2.11
	c0-1.097,0.309-1.902,0.934-2.421c0.372-0.301,0.978-0.566,1.827-0.777l0.909-0.242c0.453-0.117,0.808-0.246,1.061-0.374
	c0.265-0.147,0.522-0.334,0.78-0.562L312.972,176.129L312.972,176.129z"></path>
<path d="M292.045,162.318c-1.206,0-2.188,0.45-2.941,1.338c-0.468,0.534-1.009,1.523-1.631,2.975v-3.795h-3.855v21.754h4.063
	v-10.398c0-1.74,0.157-3.032,0.47-3.869c0.559-1.49,1.648-2.237,3.273-2.237c0.124,0,0.286,0.008,0.481,0.022
	c0.203,0.01,0.427,0.036,0.68,0.078v-5.828c-0.176-0.01-0.298-0.018-0.357-0.018C292.185,162.326,292.122,162.318,292.045,162.318z
	 M299.434,156.97h-3.997v6.066h-2.155v4.053h0.001h2.155v13.396c0,1.352,0.227,2.359,0.68,3.01c0.7,1.026,2.003,1.488,3.909,1.398
	l1.915-0.1v-4.25c-0.133,0.011-0.271,0.025-0.412,0.041c-0.133,0-0.261,0-0.383,0c-0.819,0-1.312-0.112-1.474-0.322
	c-0.163-0.227-0.239-0.786-0.239-1.68v-11.494h2.508v-4.052h-2.508V156.97z"></path>
<path d="M370.686,162.836h4.099v21.754h-4.099V162.836z M365.61,156.97h-3.992v6.066h-2.156v4.053h2.156v13.396
	c0,1.352,0.224,2.359,0.676,3.01c0.698,1.026,2.004,1.488,3.911,1.398l1.912-0.1v-4.25c-0.128,0.011-0.269,0.025-0.41,0.041
	c-0.13,0-0.258,0-0.38,0c-0.823,0-1.312-0.112-1.473-0.322c-0.166-0.227-0.244-0.786-0.244-1.68v-11.494h2.508v-4.052h-2.508V156.97
	z M370.686,154.998h4.099v5.245h-4.099V154.998z"></path>
</svg>
