<?xml version="1.0"?>
<!--?xml version="1.0" encoding="UTF-8" standalone="no"?-->
<svg xmlns="http://www.w3.org/2000/svg" viewBox="0 0 154.46 205.51" height="205.51" width="154.46">

  <path d="M 12.801,0.01953 C 9.2602,0.01953 6.2391,1.2791 3.7891,3.7891 1.2591,6.2491 0,9.2812 0,12.82 v 121.24 c 0,3.53 1.2591,6.55 3.7891,9.02 2.45,2.51 5.4711,3.71 9.0119,3.71 H 141.74 c 3.52,0 6.49,-1.2 9.01,-3.71 2.51,-2.47 3.71,-5.49 3.71,-9.02 V 12.801 c 0,-3.5408 -1.2,-6.5715 -3.71,-9.0315 L 150.51,3.5508 150.28,3.3203 150.03,3.0996 149.79,2.9004 149.54,2.6797 149.29,2.5 149.03,2.3105 148.78,2.1191 148.51,1.9492 148.25,1.7793 147.99,1.6191 147.73,1.4707 147.45,1.3301 147.18,1.1992 146.9,1.0605 146.63,0.94922 146.34,0.83008 146.05,0.7207 l -0.29,-0.10156 -0.28,-0.0996 -0.3,-0.0996 -0.29,-0.0996 -0.3,-0.0996 -0.31,-0.10156 h -0.3 l -0.32,-0.09961 h -0.31 -0.31 -0.33 -0.32 -0.33 -0.32 z m 0,4.06057 H 141.57 c 2.4,0 4.47,0.8293 6.11,2.5293 l 0.15,0.1699 0.16,0.1699 0.15,0.1699 0.14,0.1602 0.14,0.1816 0.14,0.17 0.12,0.1796 0.13,0.17 0.11,0.1894 0.11,0.1797 0.11,0.1797 0.1,0.1816 0.1,0.1895 0.1,0.1797 0.1,0.1894 0.1,0.1914 0.1,0.1993 0.1,0.1992 0.1,0.1916 0.1,0.199 0.1,0.199 0.1,0.201 0.1,0.209 0.1,0.202 v 0.209 0.21 0.219 0.211 0.209 0.231 0.22 0.231 121.239 c 0,2.39 -0.89,4.48 -2.59,6.18 -1.64,1.7 -3.71,2.51 -6.11,2.51 H 12.801 c -2.46,0 -4.4701,-0.81 -6.1701,-2.51 -1.7,-1.7 -2.5313,-3.79 -2.5313,-6.18 V 12.801 c 0,-2.4 0.8313,-4.4316 2.5313,-6.1916 1.7,-1.7 3.7101,-2.5293 6.1701,-2.5293 z m 128.859,4.2265 -128.949,0 c -1.26,0 -2.401,0.4501 -3.2911,1.3301 C 8.5499,10.531 8.0391,11.66 8.0391,12.93 v 121.24 c 0,1.25 0.5108,2.39 1.3808,3.28 0.8901,0.87 2.0311,1.32 3.2911,1.32 H 141.65 c 1.26,0 2.34,-0.45 3.27,-1.32 0.89,-0.89 1.33,-2.03 1.33,-3.28 V 12.801 c 0,-1.27 -0.44,-2.401 -1.33,-3.2912 h 0.1 l -0.1,-0.1 -0.1,-0.1 -0.1,-0.1015 -0.1,-0.1016 -0.1,-0.1 -0.1,-0.1 -0.1,-0.1 -0.1,-0.1 -0.1,-0.1016 -0.1,-0.1015 -0.1,-0.1 h -0.1 -0.1 l -0.1,-0.1 h -0.1 -0.11 -0.1 -0.1 -0.1 -0.11 -0.1 -0.12 -0.11 -0.1 -0.11 -0.11 -0.12 -0.11 -0.11 -0.11 -0.13 z M 78.967,17.348 92.717,59.072 H 136.89 L 101.6,84.285 114.95,127.13 78.791,101.05 43.24,126.51 56.854,84.723 20.428,59.072 H 64.979 Z M 78.904,31.973 68.453,63.234 H 35.041 L 62.266,82.461 52.129,113.71 78.791,94.686 105.82,114.22 95.865,82.135 122.27,63.234 H 89.178 Z m -0.06,11.412 7.761,23.562 H 111.55 L 91.578,81.197 99.141,105.4 78.717,90.648 58.678,105.01 66.303,81.447 45.754,66.947 h 25.213 z m -68.291,107.265 -0.311,0.1 -0.3006,0.1 -0.2988,0.1 -0.3008,0.1 -0.3008,0.1 -0.289,0.1 -0.2891,0.1 -0.2813,0.1 -0.289,0.11 -0.2813,0.12 -0.2793,0.13 -0.2793,0.14 -0.2617,0.15 -0.2793,0.15 -0.2597,0.16 -0.2598,0.16 -0.25,0.18 -0.2598,0.17 -0.25,0.19 -0.25,0.2 -0.25,0.2 -0.2402,0.21 -0.2402,0.23 -0.2403,0.22 -0.2207,0.23 C 1.259,156.89 0,159.91 0,163.44 v 29.3 c 0,3.47 1.2591,6.5 3.7891,8.95 2.45,2.52 5.4711,3.79 9.0119,3.79 H 141.74 c 3.52,0 6.49,-1.27 9.01,-3.79 2.51,-2.45 3.71,-5.48 3.71,-8.95 v -29.3 c 0,-3.53 -1.2,-6.55 -3.71,-9.01 -2.52,-2.52 -5.49,-3.78 -9.01,-3.78 h -128.937 -0.34 -0.32 -0.331 -0.31 -0.32 -0.321 z m 2.248,4.13 h 0 128.815 c 2.4,0 4.47,0.81 6.11,2.51 1.7,1.7 2.59,3.78 2.59,6.18 v 29.3 c 0,2.4 -0.89,4.42 -2.59,6.11 -1.64,1.71 -3.71,2.53 -6.11,2.53 H 12.68 c -2.46,0 -4.4702,-0.82 -6.1702,-2.53 -1.7,-1.69 -2.5293,-3.71 -2.5293,-6.11 v -29.3 -0.23 -0.21 -0.22 -0.22 -0.22 -0.21 -0.22 -0.21 l 0.1,-0.2 v -0.21 l 0.1,-0.2 0.1015,-0.2 0.1016,-0.21 0.1,-0.19 0.1,-0.2 0.1,-0.2 0.1,-0.19 0.1016,-0.19 0.1016,-0.18 0.1,-0.19 0.1,-0.19 0.1,-0.19 0.1113,-0.17 0.1192,-0.18 0.1211,-0.17 0.1191,-0.18 0.1406,-0.17 0.1387,-0.16 0.1309,-0.18 0.1504,-0.16 0.1503,-0.16 0.17,-0.17 c 1.699,-1.7 3.7082,-2.51 6.1662,-2.51 z m 128.839,3.97 -128.839,0.12 H 12.68 12.561 12.449 12.33 12.211 12.1 11.99 11.881 11.76 h -0.11 -0.1 -0.112 -0.109 -0.1 -0.1 -0.121 -0.1 l -0.1,0.1 h -0.1 -0.102 l -0.1,0.1 h -0.1 l -0.1,0.1 -0.1,0.1 -0.102,0.1 -0.1,0.1 -0.1,0.1 -0.1,0.1 -0.1,0.1 -0.1015,0.1 -0.1,0.1 -0.1,0.1 c -0.87,0.88 -1.3809,2.02 -1.3809,3.28 v 29.3 c 0,1.27 0.5109,2.34 1.3809,3.22 0.8898,0.94 2.0288,1.39 3.2888,1.39 H 141.64 c 1.26,0 2.34,-0.45 3.27,-1.39 0.89,-0.88 1.33,-1.95 1.33,-3.22 v -29.3 c 0,-1.26 -0.44,-2.4 -1.33,-3.28 -0.93,-0.88 -2.01,-1.32 -3.27,-1.32 z m -71.679,7.12 H 78.4 l 3.709,25.34 h -5.66 l -0.5,-4.73 H 72.6 l -0.5,4.73 h -5.67 z m 14.549,0 h 10.029 l 3.9,3.65 v 6.62 l -2.959,2.45 2.959,2.47 v 10.15 h -5.66 v -10.15 h -2.468 v 10.15 H 84.51 Z m -66.983,0 h 5.85 v 20.53 h 2.525 V 165.9 h 5.864 v 21.61 l -3.776,3.73 h -6.562 l -3.901,-3.73 z m 28.287,0 h 6.19 l 4.086,3.65 v 4.47 h -5.85 v -3.4 h -2.4 v 5.17 l 4.287,0.38 3.963,3.65 v 7.69 l -3.836,3.73 h -6.44 l -3.775,-3.73 v -4.41 h 5.801 v 3.34 h 2.4 v -5.29 l -4.162,-0.31 -4.039,-3.67 v -7.62 z m 55.586,0 h 6.81 l 2.08,12.22 h 0.5 l 1.9,-12.22 h 6.86 v 25.34 h -5.29 V 175.16 H 114 l -2.45,16.08 h -2.13 l -2.47,-16.08 h -0.25 v 16.08 h -5.3 z m 20.55,0 h 5.74 l 2.07,9.14 h 0.13 l 2.15,-9.14 h 5.79 l -5.04,14.67 v 10.67 h -5.86 v -10.67 z m -31.639,4.69 v 5.74 h 2.468 v -5.74 z m -16.452,0.63 -0.879,10.52 h 2.52 l -1.07,-10.52 z m -40.144,15.09 h 5.861 v 4.93 h -5.861 z m 24.4,0 h 5.787 v 4.93 h -5.787 z"></path>

</svg>
