<?xml version="1.0"?>

<svg xmlns="http://www.w3.org/2000/svg" xml:space="preserve" viewBox="0 0 575 307" width="575" height="307">
   <path d="m 465.73,206.73 c -22.44,0 -38.58,-5.23 -52.83,-19.71 l 15.08,-14.89 c 10.92,10.91 22.85,14.24 38.17,14.24 19.47,0 30.8,-8.37 30.8,-22.85 0,-6.47 -1.89,-11.93 -5.87,-15.49 -3.79,-3.57 -7.54,-5.05 -16.38,-6.3 l -17.62,-2.49 C 444.91,137.57 435.29,133.36 428.77,127.3 421.41,120.36 417.85,110.93 417.85,98.807 417.85,72.81 436.73,55 467.77,55 c 19.7,0 33.53,5.042 46.35,16.977 l -14.48,14.248 c -9.21,-8.79 -19.89,-11.519 -32.48,-11.519 -17.62,0 -27.24,10.085 -27.24,23.268 0,5.456 1.66,10.266 5.64,13.836 3.79,3.33 9.85,5.87 16.79,6.93 l 16.98,2.5 c 13.83,2.08 21.6,5.46 27.89,11.1 8.19,7.13 12.17,17.81 12.17,30.63 0,27.43 -22.44,43.76 -53.66,43.76 z M 360.26,76.557 V 205.48 H 337.64 V 76.557 H 296.56 V 56.203 H 401.38 V 76.557 Z M 220.47,206.73 c -30.39,0 -53.48,-20.77 -53.48,-51.58 V 56.203 h 22.62 v 97.887 c 0,19.93 12.17,32.28 30.81,32.28 18.64,0 31.04,-12.35 31.04,-32.28 V 56.203 h 22.62 v 98.947 c 0.1,30.85 -23.22,51.58 -53.61,51.58 z m 292.12,32.47 v 7.96 h -3.75 v -7.96 l -5.83,-11.42 h 4.12 l 3.61,7.81 3.56,-7.81 h 4.12 z m -23.36,7.96 V 227.78 H 502 v 3.37 h -8.98 v 4.54 h 7.68 v 3.37 h -7.68 v 4.72 H 502 v 3.38 z m -7.36,0 -7.67,-11.89 v 11.89 h -3.8 v -19.38 h 3.38 l 7.68,11.88 v -11.88 h 3.79 v 19.38 z m -16.74,-1.85 c -1.3,1.29 -3.1,1.85 -5.14,1.85 h -6.98 v -19.38 h 6.98 c 2.04,0 3.84,0.55 5.14,1.85 2.17,2.17 1.94,4.85 1.94,7.77 0,2.91 0.23,5.73 -1.94,7.91 z m -2.64,-12.95 c -0.65,-0.79 -1.52,-1.21 -2.82,-1.21 h -2.87 v 12.63 h 2.87 c 1.3,0 2.17,-0.42 2.82,-1.2 0.7,-0.88 0.83,-2.27 0.83,-5.23 0,-2.91 -0.13,-4.16 -0.83,-4.99 z m -17.11,6.84 v 7.96 h -3.75 v -7.96 l -5.83,-11.42 h 4.12 l 3.61,7.81 3.56,-7.81 h 4.11 z m -17.12,8.14 c -2.96,0 -5.18,-0.64 -7.08,-2.54 l 2.45,-2.45 c 1.25,1.25 2.87,1.62 4.68,1.62 2.22,0 3.42,-0.84 3.42,-2.41 0,-0.69 -0.19,-1.25 -0.6,-1.62 -0.37,-0.37 -0.83,-0.55 -1.71,-0.69 l -2.36,-0.33 c -1.67,-0.23 -2.87,-0.74 -3.75,-1.61 -0.92,-0.93 -1.39,-2.18 -1.39,-3.84 0,-3.47 2.55,-5.88 6.76,-5.88 2.68,0 4.62,0.65 6.29,2.27 l -2.41,2.36 c -1.25,-1.16 -2.68,-1.34 -3.98,-1.34 -2.03,0 -3,1.11 -3,2.45 0,0.51 0.14,1.01 0.55,1.38 0.37,0.37 1.02,0.65 1.81,0.74 l 2.31,0.33 c 1.76,0.23 2.87,0.74 3.7,1.48 1.02,0.97 1.48,2.4 1.48,4.12 0.1,3.84 -3.1,5.96 -7.17,5.96 z m -18.55,4.31 v -8.38 h 3.89 v 5.37 z m -7.22,-12.45 v 7.96 h -3.74 v -7.96 l -5.83,-11.42 h 4.12 l 3.6,7.81 3.57,-7.81 h 4.11 z m -12.3,5.92 c -1.53,1.62 -3.42,2.22 -5.46,2.22 -2.13,0 -3.88,-0.78 -5.23,-2.12 -1.94,-1.95 -1.89,-4.4 -1.89,-7.73 0,-3.33 -0.1,-5.78 1.89,-7.73 1.35,-1.34 3.06,-2.12 5.23,-2.12 4.49,0 6.8,2.96 7.31,6.2 h -3.79 c -0.42,-1.81 -1.58,-2.83 -3.47,-2.83 -1.02,0 -1.9,0.42 -2.41,1.02 -0.74,0.83 -0.92,1.71 -0.92,5.46 0,3.75 0.18,4.67 0.92,5.46 0.56,0.65 1.39,1.02 2.41,1.02 1.15,0 2.08,-0.42 2.68,-1.11 0.6,-0.7 0.88,-1.58 0.88,-2.59 v -0.74 h -3.56 v -3.15 h 7.31 v 2.82 c 0,2.82 -0.56,4.49 -1.9,5.92 z m -17.21,0.1 c -1.34,1.34 -3.01,2.12 -5.23,2.12 -2.22,0 -3.88,-0.78 -5.27,-2.12 -1.94,-1.95 -1.9,-4.4 -1.9,-7.73 0,-3.33 0,-5.78 1.9,-7.73 1.34,-1.34 3.05,-2.12 5.27,-2.12 2.22,0 3.89,0.74 5.23,2.12 1.94,1.95 1.94,4.4 1.94,7.73 0,3.33 0,5.74 -1.94,7.73 z m -2.82,-13.19 c -0.56,-0.65 -1.39,-1.02 -2.41,-1.02 -1.01,0 -1.89,0.42 -2.45,1.02 -0.74,0.83 -0.92,1.71 -0.92,5.46 0,3.75 0.18,4.63 0.92,5.46 0.56,0.65 1.44,1.02 2.45,1.02 1.02,0 1.9,-0.42 2.41,-1.02 0.74,-0.83 0.97,-1.71 0.97,-5.46 0,-3.75 -0.23,-4.67 -0.97,-5.46 z m -23.36,15.13 v -19.38 h 3.79 v 16 h 8.79 v 3.38 z m -5.27,-1.94 c -1.35,1.34 -3.01,2.12 -5.23,2.12 -2.22,0 -3.89,-0.78 -5.27,-2.12 -1.95,-1.95 -1.9,-4.4 -1.9,-7.73 0,-3.33 -0.1,-5.78 1.9,-7.73 1.38,-1.34 3.05,-2.12 5.27,-2.12 2.22,0 3.88,0.74 5.23,2.12 1.94,1.95 1.94,4.4 1.94,7.73 0,3.33 0,5.74 -1.94,7.73 z m -2.78,-13.19 c -0.55,-0.65 -1.39,-1.02 -2.41,-1.02 -1.01,0 -1.89,0.42 -2.45,1.02 -0.74,0.83 -0.92,1.71 -0.92,5.46 0,3.75 0.18,4.63 0.92,5.46 0.56,0.65 1.44,1.02 2.45,1.02 1.02,0 1.9,-0.42 2.41,-1.02 0.74,-0.83 0.97,-1.71 0.97,-5.46 0,-3.75 -0.23,-4.67 -0.97,-5.46 z m -16.28,15.13 -7.68,-11.89 v 11.89 H 311 v -19.38 h 3.37 l 7.68,11.88 v -11.88 h 3.79 v 19.38 z m -19.25,0 v -8.14 h -6.57 v 8.14 h -3.79 v -19.38 h 3.79 v 7.91 h 6.57 v -7.91 h 3.8 v 19.38 z m -20.26,0.18 c -2.13,0 -3.88,-0.78 -5.22,-2.12 -1.95,-1.99 -1.9,-4.4 -1.9,-7.78 0,-3.33 0,-5.78 1.9,-7.72 1.34,-1.34 3.09,-2.13 5.22,-2.13 3.61,0 6.48,2.08 7.13,6.11 h -3.84 c -0.37,-1.58 -1.34,-2.73 -3.29,-2.73 -1.02,0 -1.89,0.37 -2.4,1.02 -0.74,0.83 -0.97,1.75 -0.97,5.45 0,3.7 0.23,4.68 0.97,5.46 0.55,0.65 1.38,1.02 2.4,1.02 1.9,0 2.87,-1.2 3.29,-2.73 h 3.84 c -0.65,4.07 -3.52,6.15 -7.13,6.15 z m -22.39,-0.18 v -19.38 h 12.77 v 3.37 h -8.97 v 4.54 h 7.68 v 3.37 h -7.68 v 4.72 h 8.97 v 3.38 z m -7.63,-16.01 v 16.01 h -3.79 v -16.01 h -5.09 v -3.37 h 13.92 v 3.37 z m -24.93,0 v 4.77 h 7.68 v 3.37 h -7.68 v 7.87 h -3.8 v -19.38 h 12.77 v 3.37 z m -9.02,14.07 c -1.34,1.34 -3.01,2.12 -5.23,2.12 -2.22,0 -3.89,-0.78 -5.27,-2.12 -1.95,-1.95 -1.9,-4.4 -1.9,-7.73 0,-3.33 -0.1,-5.78 1.9,-7.73 1.34,-1.34 3.05,-2.12 5.27,-2.12 2.22,0 3.89,0.74 5.23,2.12 1.94,1.95 1.94,4.4 1.94,7.73 0,3.33 0,5.74 -1.94,7.73 z m -2.83,-13.19 c -0.55,-0.65 -1.38,-1.02 -2.4,-1.02 -1.02,0 -1.9,0.42 -2.45,1.02 -0.74,0.83 -0.93,1.71 -0.93,5.46 0,3.75 0.19,4.63 0.93,5.46 0.55,0.65 1.43,1.02 2.45,1.02 1.02,0 1.9,-0.42 2.4,-1.02 0.75,-0.83 0.98,-1.71 0.98,-5.46 0,-3.75 -0.23,-4.67 -0.98,-5.46 z m -22.34,7.17 v 7.96 h -3.74 v -7.96 l -5.83,-11.42 h 4.11 l 3.61,7.81 3.56,-7.81 h 4.12 z m -15.03,-8.05 v 16.01 h -3.8 v -16.01 h -5.08 v -3.37 h 13.92 v 3.37 z m -15.17,16.01 v -19.38 h 3.79 v 19.38 z m -10.23,0.18 c -2.96,0 -5.18,-0.64 -7.08,-2.54 l 2.46,-2.45 c 1.25,1.25 2.86,1.62 4.67,1.62 2.22,0 3.42,-0.84 3.42,-2.41 0,-0.69 -0.18,-1.25 -0.6,-1.62 -0.37,-0.37 -0.83,-0.55 -1.71,-0.69 l -2.36,-0.33 c -1.67,-0.23 -2.87,-0.74 -3.75,-1.61 -0.92,-0.93 -1.39,-2.18 -1.39,-3.84 0,-3.47 2.55,-5.88 6.76,-5.88 2.68,0 4.62,0.65 6.24,2.27 l -2.4,2.36 c -1.25,-1.16 -2.69,-1.34 -3.98,-1.34 -2.04,0 -3.01,1.11 -3.01,2.45 0,0.51 0.19,1.01 0.56,1.38 0.37,0.37 1.02,0.65 1.8,0.74 l 2.31,0.33 c 1.76,0.23 2.87,0.74 3.71,1.48 1.01,0.97 1.48,2.4 1.48,4.12 0.1,3.84 -3.06,5.96 -7.13,5.96 z m -12.3,-0.18 -3.8,-7.73 h -2.73 v 7.73 h -3.79 v -19.38 h 7.59 c 3.93,0 6.29,2.68 6.29,5.92 0,2.73 -1.67,4.39 -3.56,5.09 l 4.35,8.37 z m -2.96,-16.01 h -3.57 v 5.14 h 3.57 c 1.66,0 2.77,-1.07 2.77,-2.55 0,-1.52 -1.11,-2.59 -2.77,-2.59 z m -23.27,16.01 v -19.38 h 12.77 v 3.37 h -8.98 v 4.54 h 7.68 v 3.37 h -7.68 v 4.72 h 8.98 v 3.38 z m -8.24,0 h -2.82 l -6.381,-19.38 h 3.931 l 3.89,12.62 3.88,-12.62 h 3.93 z m -14.844,0 v -19.38 h 3.793 v 19.38 z m -7.356,0 -7.678,-11.89 v 11.89 h -3.794 v -19.38 h 3.377 l 7.679,11.88 v -11.88 h 3.793 v 19.38 z m -22.296,0.18 c -3.978,0 -7.124,-2.68 -7.124,-6.8 v -12.76 h 3.793 v 12.62 c 0,2.22 1.295,3.57 3.331,3.57 2.035,0 3.377,-1.35 3.377,-3.57 v -12.62 h 3.747 v 12.76 c 0.05,4.07 -3.146,6.8 -7.124,6.8 z m 75.496,-78.87 c -4.77,0 -8.14,-4.16 -8.14,-4.16 l -8.65,-8.33 9.71,-9.43 7.08,6.89 6.75,-6.62 V 135.4 h -6.71 l -31.27,30.39 c 0,0 -2.08,2.73 -6.612,2.73 -4.117,0 -6.291,-2.68 -6.291,-2.68 l -9.992,-9.81 9.345,-9.11 7.17,6.98 28.59,-27.8 v -8.6 h 15.86 V 56.249 H 55.046 V 117.4 h 16.33 v 8.61 l 7.586,7.4 c 0,0 -9.483,9.25 -9.391,9.11 0.09,-0.1 -7.355,-7.17 -7.355,-7.17 h -7.17 v 11.1 l 7.17,6.99 27.617,-26.88 c 3.099,-3 4.302,-5.5 10.084,-5.5 5.223,0 7.683,3.14 7.683,3.14 l 9.16,8.93 -9.72,9.44 c -0.1,0 -7.169,-7.08 -7.169,-7.03 l -28.033,27.29 c 0,0 -3.238,4.16 -9.575,4.16 -3.377,0 -5.736,-1.25 -7.263,-2.4 v 40.84 H 95.985 L 83.403,192.3 c 0.05,-0.1 9.344,-9.12 9.344,-9.12 l 7.078,6.9 7.075,-6.94 9.39,9.16 -12.58,13.09 h 40.57 v -40.25 c -1.3,1.34 -3.84,3.33 -6.66,3.33 z M 99.732,62.078 101.67,63.835 112.45,74.336 99.917,86.548 87.381,74.336 Z m 14.988,38.852 c 0,0 -7.63,0 -7.63,0 0,0 0,19.29 0,19.29 0,0 -2.5,-1.71 -7.173,-1.71 -4.626,0 -7.216,1.62 -7.216,1.62 v -19.24 h -7.679 l -6.939,6.75 -12.49,-12.164 12.49,-12.166 7.078,6.939 h 29.369 l 7.04,-6.939 12.53,12.166 -12.53,12.214 z m -25.396,81.42 c 0,0 -3.655,4.35 -7.864,4.35 -4.765,0 -8.142,-4.17 -8.142,-4.17 l -8.557,-8.37 9.344,-9.11 7.124,6.94 7.077,-6.89 9.344,9.11 z m 37.326,0 c 0,0 -3.65,4.35 -7.86,4.35 -4.76,0 -8.14,-4.17 -8.14,-4.17 l -8.56,-8.37 9.35,-9.11 7.12,6.94 7.08,-6.89 9.34,9.11 z"></path>
 </svg>