<?xml version="1.0"?>

<svg xmlns="http://www.w3.org/2000/svg" viewBox="0 0 361.9 179.4" width="361.9" height="179.4"><path d="m 254.4,68.1 1.3,3.51 1.2,-3.51 1.4,0 0,4.9 -0.9,0 0,-3.96 -1.3,3.96 -0.8,0 -1.4,-3.96 0,3.96 -0.9,0 0,-4.9 1.4,0 z m -6.4,0.82 0,-0.82 4.2,0 0,0.82 -1.6,0 0,4.08 -1,0 0,-4.08 -1.6,0 z m -15.2,7.14 3.6,0 0,3.86 q 0.4,-1.13 2.1,-2.74 1.8,-1.63 4,-1.63 0.1,0 0.3,0 0.3,0 0.9,0.1 l 0,3.97 q -0.3,-0.1 -0.6,-0.1 -0.3,0 -0.6,0 -2.9,0 -4.4,1.84 -1.5,1.82 -1.5,4.2 l 0,12.88 -3.8,0 0,-22.38 z m -10.5,0.1 3.8,0 0,22.28 -3.8,0 0,-22.28 z m 0,-8.42 3.8,0 0,4.26 -3.8,0 0,-4.26 z m -15.6,18.12 -4.6,-13.57 -5,13.57 9.6,0 z m -6.8,-18.12 4.7,0 11.1,30.7 -4.5,0 -3.1,-9.2 -12.2,0 -3.3,9.2 -4.3,0 11.6,-30.7 z m 2.1,0 0,0 z m -43.4,19.77 q 0,3.59 1.5,6.02 1.6,2.42 4.9,2.42 2.6,0 4.3,-2.23 1.7,-2.26 1.7,-6.46 0,-4.24 -1.7,-6.27 -1.8,-2.05 -4.3,-2.05 -2.8,0 -4.6,2.17 -1.8,2.18 -1.8,6.4 z m 5.7,-11.85 q 2.6,0 4.3,1.08 1,0.63 2.3,2.2 l 0,-11.31 3.6,0 0,30.81 -3.4,0 0,-3.11 q -1.3,2.06 -3.1,2.98 -1.8,0.92 -4.1,0.92 -3.8,0 -6.5,-3.13 -2.8,-3.16 -2.8,-8.38 0,-4.89 2.5,-8.47 2.5,-3.59 7.2,-3.59 z m -30.2,0.4 0,14.86 q 0,1.71 0.5,2.8 1,2 3.7,2 4,0 5.4,-3.51 0.8,-1.88 0.8,-5.16 l 0,-10.99 3.7,0 0,22.38 -3.5,0 0,-3.3 q -0.7,1.27 -1.8,2.15 -2.2,1.76 -5.2,1.76 -4.8,0 -6.5,-3.2 -1,-1.72 -1,-4.58 l 0,-15.21 3.9,0 z m 5.1,-0.55 0,0 z M 112,96.02 q 3.7,0 5.1,-2.83 1.4,-2.84 1.4,-6.31 0,-3.13 -1,-5.1 -1.6,-3.09 -5.5,-3.09 -3.4,0 -5,2.63 -1.6,2.64 -1.6,6.36 0,3.57 1.6,5.95 1.6,2.39 5,2.39 z m 0.1,-20.61 q 4.3,0 7.3,2.88 3,2.89 3,8.49 0,5.41 -2.6,8.94 -2.7,3.54 -8.2,3.54 -4.6,0 -7.3,-3.12 -2.8,-3.13 -2.8,-8.4 0,-5.64 2.9,-8.99 2.9,-3.34 7.7,-3.34 z m -0.1,0.1 0,0 z m -19.65,-7.77 3.76,0 0,30.7 -3.76,0 0,-30.7 z M 74.52,66.9 q 5.83,0 9.05,3.07 3.22,3.08 3.57,6.98 l -4.05,0 q -0.69,-2.96 -2.76,-4.7 -2.05,-1.73 -5.77,-1.73 -4.53,0 -7.33,3.19 -2.78,3.18 -2.78,9.76 0,5.4 2.5,8.76 2.53,3.35 7.53,3.35 4.6,0 7,-3.54 1.27,-1.86 1.9,-4.89 l 4.06,0 q -0.55,4.85 -3.6,8.13 -3.66,3.95 -9.86,3.95 -5.35,0 -8.99,-3.24 -4.79,-4.28 -4.79,-13.23 0,-6.79 3.6,-11.14 3.89,-4.72 10.72,-4.72 z m -0.84,0 0,0 z m -35.33,9.16 5.98,18.22 6.25,-18.22 4.11,0 -8.44,22.38 -4.01,0 -8.26,-22.38 4.37,0 z M 180.3,35 c 0,-0.1 0.1,-0.2 0.3,-0.2 l 0.9,0 c 0.3,0 0.6,0 0.8,0.2 0.1,0.2 0.2,0.4 0.2,0.6 l 0,0 c 0,0.4 -0.2,0.7 -0.5,0.8 l 0.4,0.5 c 0,0.1 0.1,0.1 0.1,0.2 0,0.2 -0.2,0.3 -0.3,0.3 -0.1,0 -0.2,-0.1 -0.3,-0.2 l -0.6,-0.7 -0.4,0 0,0.6 c 0,0.2 -0.1,0.3 -0.3,0.3 -0.2,0 -0.3,-0.1 -0.3,-0.3 l 0,-2.1 z m 1.2,1 c 0.3,0 0.4,-0.1 0.4,-0.4 l 0,0 c 0,-0.2 -0.2,-0.3 -0.4,-0.3 l -0.6,0 0,0.7 0.6,0 m -2.8,0.1 0,0 c 0,-1.5 1.2,-2.7 2.6,-2.7 1.6,0 2.7,1.2 2.7,2.7 l 0,0 c 0,1.5 -1.1,2.7 -2.7,2.7 -1.5,0 -2.6,-1.2 -2.6,-2.7 m 4.8,0 0,0 c 0,-1.2 -0.9,-2.2 -2.2,-2.2 -1.2,0 -2.1,1 -2.1,2.2 l 0,0 c 0,1.2 0.9,2.2 2.1,2.2 1.3,0 2.2,-1 2.2,-2.2 M 44.6,48.15 49.01,37.8 c 1.49,-3.5 3.94,-4.8 7.02,-4.8 1.99,0 4.39,1.1 5.81,2.9 0,0 3.04,-2.9 6.51,-2.9 3.3,0 5.24,1.1 6.66,2.9 0,0 2.65,-2.9 6.9,-2.9 4.24,0 7.77,3.1 7.77,7.5 l 0,11.9 c 0,1.97 -1.14,3.59 -3.25,3.59 -2.11,0 -3.2,-1.62 -3.2,-3.59 l 0,-10.5 c 0,-2 -1.32,-3.3 -3.3,-3.3 -1.98,0 -3.42,1.3 -3.42,3.3 l 0,10.5 c 0,1.97 -1.15,3.59 -3.25,3.59 -2.11,0 -3.21,-1.62 -3.21,-3.59 l 0,-10.5 c 0,-2 -1.31,-3.3 -3.29,-3.3 -1.98,0 -3.43,1.3 -3.43,3.3 l 0,10.5 c 0,1.97 -1.14,3.59 -3.24,3.59 -2.11,0 -3.21,-1.62 -3.21,-3.59 l 0,-12.8 c 0,-0.6 -0.44,-1 -0.95,-1 -0.62,0 -0.81,0.4 -0.87,0.6 -0.1,0.1 -6.08,13.21 -6.08,13.21 -1.09,2.24 -2.09,3.58 -4.38,3.58 -2.15,0 -3.29,-1.23 -4.38,-3.58 L 33.31,37.4 c -0.74,-1.6 -0.13,-3.4 1.51,-4.1 1.65,-0.7 3.41,0 4.12,1.5 l 5.66,13.35 m 78.5,1.04 0,-0.1 c 0,-4.59 3.7,-6.99 9.3,-6.99 2.7,0 4.7,0.4 6.7,0.9 l 0,-0.8 c 0,-3.9 -2.5,-5.9 -6.5,-5.9 -2.2,0 -3.5,0.3 -5.1,1 -0.2,0.1 -0.4,0.1 -0.6,0.1 -0.7,0 -1.4,-0.6 -1.4,-1.4 0,-0.6 0.3,-1 0.9,-1.3 2.1,-0.9 3.7,-1.2 6.5,-1.2 3.1,0 5.4,0.8 7,2.4 1.5,1.4 2.3,3.5 2.3,6.3 l 0,12 c 0,0.92 -0.7,1.59 -1.6,1.59 -0.9,0 -1.5,-0.67 -1.5,-1.51 l 0,-2.08 c -1.6,1.98 -4.1,3.75 -7.9,3.75 -4.1,0 -8.1,-2.31 -8.1,-6.78 m 16,-1.68 0,-2.09 c -1.6,-0.5 -3.8,-0.9 -6.4,-0.9 -4.1,0 -6.4,1.7 -6.4,4.46 l 0,0.1 c 0,2.74 2.6,4.34 5.5,4.34 4,0 7.3,-2.44 7.3,-5.89 m 29.8,8.45 c -5.9,0 -10.7,-4.56 -10.7,-11.26 l 0,-0.1 c 0,-6.2 4.4,-11.2 10.3,-11.2 6.3,0 9.9,5.2 9.9,10.9 0,0.9 -0.7,1.5 -1.5,1.5 l -15.5,0 c 0.5,4.72 3.8,7.36 7.6,7.36 2.6,0 4.6,-1.05 6.1,-2.51 0.3,-0.21 0.6,-0.38 0.9,-0.38 0.8,0 1.4,0.63 1.4,1.39 0,0.37 -0.1,0.75 -0.5,1.04 -2,1.96 -4.4,3.26 -8,3.26 m 6.3,-12.46 c -0.3,-4 -2.6,-7.4 -6.8,-7.4 -3.7,0 -6.5,3.1 -7,7.4 l 13.8,0 m -29.1,10.6 c 0,0.93 0.7,1.65 1.6,1.65 1,0 1.6,-0.76 1.6,-1.65 l 0,-7.39 c 0,-6.31 3.5,-9.51 7.7,-10.01 0.9,-0.1 1.5,-0.7 1.5,-1.6 0,-0.9 -0.7,-1.6 -1.6,-1.6 -2.4,0 -6,1.7 -7.6,5.3 l 0,-3.7 c 0,-1 -0.7,-1.7 -1.6,-1.7 -0.9,0 -1.6,0.8 -1.6,1.7 l 0,19 M 97.89,54.31 91.27,35.9 c -0.1,-0.3 -0.21,-0.6 -0.21,-0.9 0,-0.8 0.68,-1.5 1.64,-1.5 0.85,0 1.39,0.5 1.65,1.3 l 5.48,15.87 5.47,-15.87 c 0.3,-0.8 0.8,-1.3 1.6,-1.3 l 0.2,0 c 0.9,0 1.5,0.5 1.7,1.3 l 5.5,15.87 5.5,-15.97 c 0.3,-0.7 0.7,-1.2 1.6,-1.2 0.9,0 1.6,0.7 1.6,1.5 0,0.3 -0.1,0.6 -0.2,0.9 l -6.7,18.41 c -0.3,0.97 -1,1.47 -1.7,1.47 l -0.2,0 c -0.8,0 -1.4,-0.5 -1.7,-1.47 L 107,38.7 101.6,54.31 c -0.3,0.97 -1,1.47 -1.82,1.47 l -0.1,0 c -0.79,0 -1.47,-0.5 -1.8,-1.47 M 276,121.7 c -0.7,-0.4 -1.5,-1 -2.4,-1.6 -2.2,-1.5 -4.5,-3.6 -5.9,-5.1 -0.2,-0.2 -0.3,-0.4 -0.5,-0.6 -0.8,-1 -2.3,-1.1 -3.3,-0.2 -1,0.8 -1.1,2.3 -0.2,3.2 0.2,0.3 0.3,0.5 0.5,0.7 0.6,0.6 1.3,1.3 2.1,2.1 2.2,2.1 5.2,4.3 7.5,5.6 0.4,0.2 0.8,0.3 1.1,0.3 0.9,0 1.7,-0.5 2.1,-1.3 0.6,-1.1 0.2,-2.5 -1,-3.1 m 13.1,20 -0.1,0 c -0.9,0 -1.8,-0.2 -2.6,-0.5 -2.3,-1.1 -3.8,-3.3 -3.9,-5.9 0,-2.6 1.6,-4.9 3.8,-6 0.8,-0.3 1.7,-0.5 2.7,-0.6 0,0 0,0 0,0 0,0 0,0 0,0 3.6,0 6.5,2.9 6.5,6.5 0.1,3.5 -2.8,6.5 -6.4,6.5 z m -2.9,-39.9 c -2.2,-1 -3.8,-3.22 -3.8,-5.82 0,-1.48 0.4,-2.85 1.3,-3.95 0.6,-0.87 1.5,-1.57 2.5,-2.03 0.8,-0.37 1.7,-0.59 2.7,-0.6 2.1,0 4,1.02 5.1,2.59 0.9,1.07 1.4,2.39 1.4,3.83 0,3.58 -2.9,6.48 -6.4,6.58 l -0.1,0 c -1,0 -1.9,-0.2 -2.7,-0.6 z m 5.1,22.5 0,-4.2 0,-5 -0.1,-8.3 c 5.1,-1.1 8.9,-5.7 8.8,-11.04 0,-1.33 -0.2,-2.6 -0.7,-3.79 -1.6,-4.23 -5.7,-7.26 -10.6,-7.24 -0.8,0 -1.7,0.14 -2.5,0.35 -3.6,0.9 -6.5,3.54 -7.8,6.97 -0.5,1.24 -0.7,2.58 -0.7,3.98 0.1,5.17 3.7,9.57 8.5,10.67 0.2,0 0.3,0.1 0.4,0.1 l 0,13 0,0.3 0,0.3 0,3.9 c -0.1,0 -0.2,0.1 -0.3,0.1 -4.9,1.3 -8.5,5.7 -8.4,11 0,5.2 3.7,9.5 8.5,10.7 0.8,0.2 1.7,0.3 2.7,0.3 l 0.1,0 c 6.1,0 11.1,-5.1 11,-11.3 0,-0.4 -0.1,-0.9 -0.1,-1.3 -0.6,-4.7 -4.2,-8.5 -8.8,-9.4 m 29.3,-38.84 c -1.2,-3.71 -3.1,-7.19 -5.6,-10.33 -0.2,-0.29 -0.5,-0.5 -0.8,-0.64 -0.8,-0.38 -1.7,-0.31 -2.5,0.27 -1,0.8 -1.1,2.27 -0.3,3.28 1.1,1.38 2,2.86 2.8,4.39 1.2,2.17 2,4.46 2.6,6.84 0.2,0.84 0.3,1.68 0.4,2.54 0.2,1.07 0.3,2.15 0.3,3.25 0,0.13 0,0.26 0,0.4 0.1,4.74 -1.1,9.44 -3.2,13.54 -2.3,4.4 -5.7,8.2 -10,10.9 -0.5,0.3 -1,0.6 -1.5,0.9 -1.1,0.6 -1.5,2 -0.9,3.2 0.5,0.7 1.3,1.2 2.1,1.2 0.4,0 0.8,-0.1 1.1,-0.3 2.5,-1.4 4.8,-3.1 6.8,-5 0.8,-0.9 1.7,-1.7 2.5,-2.7 4.2,-4.9 6.9,-11.1 7.6,-17.7 0.1,-1.35 0.2,-2.72 0.2,-4.1 0,-1.22 -0.1,-2.42 -0.2,-3.61 -0.3,-2.17 -0.8,-4.28 -1.4,-6.33 m -2.2,-26.13 0,0 c -1.7,0 -3.2,-0.68 -4.3,-1.78 -1,-1.05 -1.6,-2.48 -1.7,-4.06 0,-1.56 0.6,-3.05 1.7,-4.17 0,0 0,0 0,0 1.1,-1.13 2.6,-1.76 4.2,-1.78 3.2,0 5.9,2.61 5.9,5.83 0.1,3.26 -2.5,5.94 -5.8,5.98 z M 246,120.2 c -1.1,1.6 -2.8,2.6 -4.8,2.6 l -0.1,0 c -2,0 -3.8,-1 -4.9,-2.5 -0.6,-1 -1,-2.1 -1,-3.3 0,-0.7 0.1,-1.5 0.4,-2.2 0.3,-0.7 0.7,-1.4 1.3,-2 0.6,-0.6 1.3,-1 2,-1.3 0.7,-0.3 1.4,-0.4 2.2,-0.5 3.2,0 5.9,2.6 5.9,5.9 0,1.2 -0.4,2.4 -1,3.3 z m 82.3,-70.31 c -1.1,-2.9 -3.4,-5.19 -6.4,-6.29 -1.1,-0.4 -2.4,-0.7 -3.7,-0.6 -1.4,0 -2.8,0.3 -4.1,0.8 -1.2,0.6 -2.4,1.4 -3.3,2.3 -2,2.06 -3.1,4.73 -3,7.55 0,2.7 1.1,5.15 2.8,7 l -2.3,3.23 -1.7,2.55 -6.7,10.19 c -0.7,-0.38 -1.4,-0.72 -2.1,-1.03 -2.8,-1.24 -5.9,-1.91 -9,-1.9 0,0 0,0 -0.1,0 -0.8,0 -1.7,0.1 -2.6,0.19 -4.9,0.61 -9.5,2.82 -13,6.41 -3.2,3.27 -5.3,7.37 -6.1,11.8 -0.2,1.29 -0.3,2.6 -0.3,3.94 0,1.78 0.2,3.55 0.7,5.27 0.1,0.4 0.2,0.9 0.4,1.4 l -9.6,4.2 -8.6,3.8 c -1.5,-2 -3.5,-3.4 -5.9,-4 -0.9,-0.2 -1.8,-0.3 -2.7,-0.3 -2.9,0 -5.5,1.1 -7.5,3.2 -1.9,2 -3,4.6 -3,7.5 0,0.8 0.2,1.7 0.4,2.5 0,0.2 0.1,0.5 0.2,0.7 0.2,0.5 0.4,1 0.6,1.5 1.1,2 2.6,3.5 4.6,4.5 1.4,0.8 3.1,1.2 4.8,1.2 l 0.1,0 c 4.7,-0.1 8.6,-3.1 9.9,-7.3 0.4,-1.1 0.6,-2.2 0.6,-3.4 0,-0.6 -0.1,-1.3 -0.2,-1.9 l 6.7,-2.9 11.4,-5 c 0.7,1.1 1.5,2.2 2.4,3.3 2,2.3 4.4,4.2 7.1,5.5 0.9,0.5 1.9,0.3 2.6,-0.3 0.2,-0.2 0.4,-0.4 0.5,-0.7 0.6,-1.2 0.1,-2.6 -1,-3.1 -2.2,-1.1 -4.1,-2.6 -5.7,-4.5 -1,-1.1 -1.8,-2.3 -2.4,-3.7 0,-0.2 -0.1,-0.4 -0.2,-0.6 0,-0.1 -0.2,-0.3 -0.3,-0.4 -0.8,-2.1 -1.2,-4.27 -1.3,-6.5 0,-1.34 0.2,-2.65 0.5,-3.92 0.7,-3.19 2.3,-6.13 4.6,-8.51 2.7,-2.69 6.1,-4.4 9.7,-4.97 0.9,-0.14 1.8,-0.23 2.7,-0.24 0,0 0,0 0,0 4.7,0 9.1,1.78 12.4,5.07 2.4,2.37 4,5.31 4.7,8.52 0.3,1.25 0.5,2.53 0.5,3.85 0,1.59 -0.2,3.14 -0.6,4.6 -1.3,4.9 -4.7,9.1 -9.5,11.4 -1.1,0.5 -1.6,1.9 -1.1,3.1 0.4,0.8 1.3,1.3 2.1,1.3 0.4,0 0.7,-0.1 1,-0.2 7.8,-3.7 12.8,-11.6 12.8,-20.23 0,-0.21 0,-0.41 -0.1,-0.62 0,-1.09 -0.1,-2.16 -0.3,-3.22 -0.3,-1.77 -0.8,-3.47 -1.6,-5.09 -1.1,-2.48 -2.6,-4.77 -4.6,-6.73 -0.3,-0.27 -0.6,-0.5 -0.9,-0.75 l 6.8,-10.32 3.6,-5.18 0.2,-0.2 0.2,-0.34 c 0.5,0.23 1.1,0.4 1.7,0.53 0.8,0.16 1.5,0.25 2.3,0.25 l 0.1,0 c 0.7,0 1.5,-0.11 2.2,-0.26 4.7,-1.08 8.3,-5.37 8.2,-10.44 0,-1.23 -0.2,-2.41 -0.6,-3.51 m -70.2,51.61 c -1.2,0 -2.3,-0.9 -2.4,-2.14 0,-0.77 -0.1,-1.56 -0.1,-2.34 -0.2,-18.73 14.8,-34.14 33.6,-34.37 3.4,-0.1 6.7,0.41 9.9,1.36 1.3,0.36 2,1.67 1.6,2.91 -0.3,1.25 -1.6,1.97 -2.9,1.6 -2.8,-0.81 -5.7,-1.19 -8.6,-1.17 -16.1,0.19 -29.1,13.48 -28.9,29.61 0,0.67 0.1,1.35 0.1,2.03 0.1,1.31 -0.8,2.41 -2.1,2.51 -0.1,0 -0.2,0 -0.2,0"> </path></svg>