<?xml version="1.0"?>
<!--?xml version="1.0" encoding="UTF-8" standalone="no"?-->
<svg xmlns="http://www.w3.org/2000/svg" viewBox="0 0 300 101.25" height="101.25" width="300">
  <path d="m 138.91,41.148 c 9.97,0 19.93,0 29.9,0 -0.1,2.73 0,5.46 -0.1,8.19 -0.34,0.69 -0.94,1.21 -1.42,1.8 -5.14,5.67 -10.15,11.46 -15.32,17.11 5.86,0.11 11.73,0 17.59,0.1 0,2.88 0,5.75 0,8.64 -10.23,-0.1 -20.45,-0.1 -30.68,0 0,-2.77 0,-5.54 0,-8.3 5.34,-6.01 10.7,-12 16.11,-17.95 0.16,-0.31 0.81,-0.6 0.47,-1 -5.51,0.16 -11.03,0 -16.54,0.1 -0.1,-2.88 0,-5.77 0,-8.65 m -14.07,0 c 3.69,-0.1 7.39,0 11.08,0 -0.1,11.93 0,23.87 0,35.81 -3.69,0 -7.37,0 -11.06,0 0,-11.92 0,-23.85 0,-35.77 m -25.51,-0.06 c 3.52,0 7.04,0 10.55,0 0,2.01 0,4.02 -0.11,6.03 0.92,-1.01 1.56,-2.23 2.51,-3.22 2.38,-2.59 6.23,-3.67 9.62,-2.77 0,3.15 0,6.29 0,9.44 -2.71,-0.31 -5.7,-0.19 -8,1.45 -2.46,1.73 -3.55,4.84 -3.52,7.75 0,5.7 0,11.4 0,17.1 -3.68,0 -7.36,0 -11.04,0 0,-11.93 0,-23.86 0,-35.79 m -73.44,0 c 3.8,0 7.61,0 11.41,0 2.28,7.7 4.75,15.34 6.93,23.05 2.64,-7.58 4.68,-15.38 7.14,-23.03 3.68,-0.1 7.37,0 11.05,0 -4.21,11.9 -8.33,23.84 -12.47,35.77 -3.81,0 -7.63,-0.1 -11.44,0 -4.33,-11.89 -8.21,-23.95 -12.62,-35.81 m 198.41,1.41 c 3.64,-2.87 8.86,-3.18 13.07,-1.45 3,1.29 5.27,3.95 6.3,7.02 1.18,3.16 0.83,6.58 0.87,9.87 0,6.3 0,12.61 0,18.92 -3.67,0.1 -7.34,0 -11.01,0 0,-7.22 0,-14.44 0,-21.66 0,-1.87 -0.7,-3.87 -2.26,-5.01 -2.33,-1.61 -5.78,-1.3 -7.79,0.71 -1.58,1.6 -2.29,3.91 -2.25,6.13 0,6.61 0,13.23 0,19.84 -3.62,-0.1 -7.25,0 -10.87,0 0,-11.92 0,-23.85 0,-35.78 3.55,0 7.09,0 10.64,0 -0.1,1.65 -0.1,3.29 -0.1,4.94 1.1,-1.22 2.03,-2.61 3.39,-3.58 m -38.11,6.17 c -3.13,1.09 -4.55,4.48 -5.01,7.51 -0.36,3.82 -0.31,8.11 2.18,11.28 2.65,3.45 8.51,3.35 11.17,0 2.23,-2.76 2.53,-6.52 2.32,-9.93 -0.17,-3 -1.19,-6.23 -3.72,-8.05 -2.01,-1.38 -4.69,-1.59 -6.94,-0.77 m -1.27,-8.17 c 5.93,-1.06 12.49,0.18 17.03,4.3 7.78,6.9 8.11,20.3 0.9,27.71 -5.7,5.94 -15.27,7.05 -22.59,3.69 -5.66,-2.55 -9.52,-8.34 -10.18,-14.46 -0.27,-3.53 -0.12,-7.22 1.36,-10.5 2.22,-5.62 7.56,-9.75 13.48,-10.74 m -109.69,8.11 c -2.45,1.17 -3.67,3.82 -4.21,6.36 4.91,0 9.81,0 14.72,0 -0.32,-1.97 -0.99,-4 -2.5,-5.39 -2.1,-2.02 -5.45,-2.08 -8.01,-0.97 m -5.86,-6.24 c 7.51,-4.26 18.42,-2.8 23.5,4.55 3.11,4.34 3.99,9.86 3.96,15.1 -8.63,0.1 -17.25,0 -25.87,0 0.39,2.67 1.54,5.47 4,6.86 3.49,2.03 9.01,1.46 10.78,-2.6 3.53,-0.12 7.07,-0.1 10.62,0 -1.12,4.07 -4.06,7.5 -7.8,9.42 -4.02,2.2 -8.81,2.63 -13.28,1.88 -4.69,-0.76 -9.1,-3.41 -11.75,-7.39 -2.89,-4.21 -3.68,-9.57 -3,-14.56 0.71,-5.46 3.96,-10.64 8.84,-13.31 m 55.5,-14.01 c 3.67,0 7.35,0 11.03,0 -0.1,3.27 0,6.56 0,9.83 -3.69,0 -7.37,0 -11.06,0 0.1,-3.27 0,-6.55 0.1,-9.82 m 143.4,-5.12 c 1.9,-0.12 3.8,-0.1 5.7,-0.1 -5.71,11.92 -11.21,23.94 -16.81,35.91 -1.54,0 -3.09,0 -4.63,0 -2.58,-6.03 -5.55,-11.9 -8.23,-17.88 1.85,0 3.71,-0.1 5.56,0 1.61,3.68 3.5,7.25 4.97,10.99 4.49,-9.65 9.11,-19.23 13.44,-28.94"></path>
</svg>
