<svg xmlns="http://www.w3.org/2000/svg" version="1.0" width="778.38" height="126.99" viewbox="0 0 779 127" preserveAspectRatio="xMidYMid meet" viewBox="0 0 779 127">
  <path d="m 760.04,20.389 c 1.44,0 2.23,-0.743 2.23,-1.874 l 0,-0.07 c 0,-1.24 -0.87,-1.898 -2.23,-1.898 l -2.94,0 0,3.814 z m -4.37,-6.441 4.52,0 c 1.72,0 3.08,0.487 3.87,1.359 0.79,0.732 1.22,1.786 1.22,3.015 l 0,0.07 c 0,2.087 -1.08,3.362 -2.66,4.031 0,0 2.73,3.132 2.73,3.576 0,0.808 -0.72,1.344 -1.36,1.344 -0.72,0 -1.08,-0.33 -1.44,-0.749 L 759.68,23 l -2.29,0 0,2.889 c 0,0.81 -0.72,1.454 -1.44,1.454 -0.86,0 -1.5,-0.646 -1.5,-1.454 l 0,-10.453 c 0,-1.07 0.71,-1.49 1.22,-1.49 z m 15.13,6.904 0,-0.07 c 0,-6.139 -4.81,-11.1752 -11.12,-11.1752 -6.24,0 -11.04,5.1202 -11.04,11.2142 l 0,0.07 c 0,6.129 4.73,11.165 11.04,11.165 6.24,0 11.12,-5.12 11.12,-11.235 m -24.74,0.09 0,-0.09 c 0,-7.467 6.02,-13.7531 13.62,-13.7531 7.75,0 13.7,6.2241 13.7,13.6941 l 0,0.07 c 0,7.495 -6.02,13.782 -13.7,13.782 -7.67,0 -13.62,-6.203 -13.62,-13.69 M 35.211,14.306 C 31.587,6.3585 22.631,2.7584 14.267,6.4811 5.8971,10.2 2.8151,19.481 6.5981,27.439 L 41.708,103.75 c 5.526,11.97 11.347,18.24 22.267,18.24 11.67,0 16.758,-6.83 22.273,-18.24 0,0 30.632,-66.687 30.932,-67.377 0.29,-0.71 1.3,-2.865 4.41,-2.848 2.64,0 4.86,2.126 4.86,4.939 l 0,65.226 c 0,10.05 5.57,18.3 16.3,18.3 10.72,0 16.51,-8.25 16.51,-18.3 l 0,-53.361 c 0,-10.293 7.38,-16.968 17.43,-16.968 10.05,0 16.74,6.907 16.74,16.968 l 0,53.361 c 0,10.05 5.59,18.3 16.3,18.3 10.72,0 16.54,-8.25 16.54,-18.3 l 0,-53.361 c 0,-10.293 7.35,-16.968 17.41,-16.968 10.03,0 16.75,6.907 16.75,16.968 l 0,53.361 c 0,10.05 5.58,18.3 16.3,18.3 10.71,0 16.52,-8.25 16.52,-18.3 l 0,-60.733 C 293.25,20.633 275.31,5 253.71,5 232.14,5 218.63,19.926 218.63,19.926 211.45,10.613 201.55,5.0136 184.79,5.0136 167.12,5.0136 151.65,19.926 151.65,19.926 144.46,10.613 132.22,5.0136 122.1,5.0136 106.43,5.0136 93.994,11.906 86.398,29.259 L 63.975,82.115 35.211,14.306 m 509.309,64.535 0,-10.699 c -8.14,-2.354 -19.07,-4.725 -32.54,-4.725 -20.73,0 -32.3,9.007 -32.3,22.904 l 0,0.431 c 0,13.898 12.83,22.038 27.82,22.038 20.31,0 37.02,-12.42 37.02,-29.95 m -81.53,8.564 0,-0.43 c 0,-23.321 19.26,-35.74 47.28,-35.74 14.13,0 24.18,1.926 34.05,4.721 l 0,-3.866 c 0,-19.889 -12.23,-30.172 -32.97,-30.172 -11.14,0 -17.61,1.418 -25.75,5.043 -1.07,0.431 -2.14,0.653 -2.98,0.653 -3.85,0 -7.29,-3.219 -7.29,-7.064 0,-3.415 1.49,-5.527 4.51,-6.862 10.88,-4.7274 19.1,-6.3 33.22,-6.3 15.62,0 27.6,4.049 35.71,12.188 7.5,7.491 11.36,18.19 11.36,32.311 l 0,61.054 c 0,4.7 -3.42,8.13 -7.94,8.13 -4.69,0 -7.87,-3.43 -7.87,-7.71 l 0,-10.56 c -7.71,10.07 -20.57,19.05 -40,19.05 -20.57,0 -41.33,-11.77 -41.33,-34.438 M 728.2,58.271 c -1.65,-19.974 -13.02,-37.38 -34.68,-37.38 -18.93,0 -33.23,15.918 -35.3,37.38 z M 696.05,121.8 c -29.86,0 -54.26,-23.17 -54.26,-57.148 l 0,-0.444 c 0,-31.633 22.09,-57.133 52.16,-57.133 32.17,0 50.46,26.536 50.46,55.654 0,4.469 -3.59,7.66 -7.61,7.66 l -78.58,0 c 2.29,23.772 18.9,37.161 38.27,37.161 13.45,0 23.32,-5.31 31.32,-12.743 1.25,-1.055 2.75,-1.908 4.62,-1.908 3.94,0 7.1,3.191 7.1,7.022 0,1.909 -0.79,3.819 -2.51,5.289 -10.26,9.98 -22.47,16.59 -40.97,16.59 M 580.14,15.529 c 0,-4.523 3.64,-8.383 8.14,-8.383 4.73,0 8.38,3.647 8.38,8.383 l 0,19.001 c 8.15,-18.464 26.22,-27.1702 38.2,-27.1702 4.95,0 8.18,3.6462 8.18,8.3642 0,4.51 -3,7.715 -7.32,8.369 -21.47,2.575 -39.06,18.675 -39.06,50.668 l 0,37.629 c 0,4.5 -3.43,8.35 -8.15,8.35 -4.73,0 -8.37,-3.66 -8.37,-8.35 l 0,-96.861 M 334.98,113.43 301.35,19.775 c -0.43,-1.295 -1.08,-3.001 -1.08,-4.499 0,-4.064 3.44,-7.9162 8.35,-7.9162 4.29,0 7.08,2.7812 8.37,6.8432 L 344.85,94.9 372.91,13.979 c 1.28,-3.838 3.86,-6.6192 8.12,-6.6192 l 0.87,0 c 4.51,0 7.3,2.7812 8.57,6.6192 l 27.85,80.921 28.3,-81.117 c 1.08,-3.436 3.41,-6.4232 7.93,-6.4232 4.71,0 8.14,3.6252 8.14,7.7052 0,1.499 -0.65,3.198 -1.06,4.501 l -33.86,93.864 c -1.73,4.9 -5.14,7.47 -9.01,7.47 l -0.64,0 c -4.29,0 -7.51,-2.57 -9.02,-7.47 L 381.49,33.851 353.62,113.43 c -1.5,4.9 -4.72,7.47 -8.99,7.47 l -0.43,0 c -4.06,0 -7.48,-2.57 -9.2,-7.47"></path>
</svg>