<?xml version="1.0"?>
<!--?xml version="1.0" encoding="UTF-8" standalone="no"?-->
<svg xmlns="http://www.w3.org/2000/svg" height="505" width="733" viewBox="0 0 733 505"><defs id="defs4"></defs>
     <path d="m 370.8,12 c -89.86,0 -162.71,72.847 -162.71,162.71 0,89.86 72.85,162.71 162.71,162.71 89.86,0 162.71,-72.85 162.71,-162.71 C 533.51,84.846 460.66,12 370.8,12 Z m 57.67,14.43 c 1.08,-0.02 2.12,-0.01 3.11,0 2.56,0.06 4.87,0.49 5.13,1.291 0,0.04 0,0.215 0,0.248 -0.11,0.563 -1.17,1.279 -3.62,2.151 -26.19,9.294 -44.87,34.123 -44.87,63.281 0,0.693 0.1,1.357 0.11,2.014 13.38,2.83 24.83,7.545 34.51,13.535 9.27,5.73 16.85,12.78 22.71,20.94 0.46,0.63 0.9,1.26 1.33,1.91 4.3,6.39 7.59,13.41 9.89,20.98 2.24,7.42 3.5,15.36 3.8,23.72 0,1.07 0.1,2.14 0.1,3.2 0,13.93 -3.29,27.58 -9.52,39.8 -4.07,7.97 -9.39,15.33 -15.88,21.78 -2.38,2.38 -4.89,4.6 -7.53,6.67 -9.24,7.27 -19.88,12.6 -31.17,15.71 -7.96,2.19 -16.25,3.28 -24.59,3.16 -3.11,0 -6.21,-0.25 -9.27,-0.63 -4.75,-0.58 -9.44,-1.54 -14.02,-2.87 -15.06,-4.36 -29,-12.66 -40.3,-24.15 -4.54,-4.61 -8.52,-9.63 -11.95,-14.96 -5.25,-8.16 -9.2,-17.07 -11.88,-26.37 -0.21,-0.71 -0.41,-1.42 -0.59,-2.14 -1.41,-5.29 -2.4,-10.7 -3,-16.18 -0.6,-5.59 -0.78,-11.24 -0.55,-16.9 0,-0.57 0.1,-1.13 0.1,-1.71 0.46,-8.11 1.67,-15.97 3.53,-23.54 7.44,-30.22 25.23,-55.771 46.08,-73.41 13.89,-11.92 29.63,-20.422 44.86,-26.289 4.55,-1.74 9.04,-3.255 13.43,-4.553 2.84,-0.836 5.64,-1.586 8.36,-2.256 7.49,-1.825 14.51,-3.024 20.72,-3.715 4.04,-0.445 7.73,-0.676 11,-0.726 z m 211.5,421 c 0,-26.89 17,-44.13 41.6,-44.13 24.82,0 39.3,19.31 39.3,42.98 0,3.22 -0.22,7.59 -0.46,9.42 h -56.77 c 1.15,11.96 8.97,18.4 24.37,18.4 13.1,0 23.67,-2.76 29.65,-4.6 v 15.4 c -7.59,3.68 -17.48,7.12 -30.58,7.12 -29.88,0 -47.12,-15.86 -47.11,-44.59 z m 59.53,-8.73 c -0.69,-8.74 -6.9,-15.86 -17.93,-15.86 -11.04,0 -16.55,5.98 -17.47,15.86 z m -93.78,5.05 c 0,-12.64 -6.44,-19.07 -19.31,-19.07 -6.44,0 -13.56,1.14 -17.24,2.07 v 63.43 H 545.95 V 410.2 c 10.57,-3.68 25.75,-6.67 40.69,-6.67 26.89,0 42.52,13.33 42.52,35.63 v 51.02 h -23.44 z m -114.71,48.5 c -27.35,0 -44.36,-19.07 -44.36,-44.36 0,-25.28 17.01,-44.36 44.36,-44.36 27.36,0 44.14,19.08 44.14,44.36 0,25.29 -16.78,44.36 -44.14,44.36 z m 0,-69.41 c -13.09,0 -19.53,11.49 -19.53,25.28 0,13.56 6.44,24.83 19.53,24.83 13.11,0 19.55,-11.27 19.55,-24.83 0,-13.78 -6.44,-25.28 -19.55,-25.28 z m -61.13,-53.79 c 6.2,0 13.79,1.15 17.92,2.07 v 20.23 c -3.67,-0.46 -9.88,-0.92 -13.1,-0.92 -5.51,0 -7.58,0.92 -9.42,2.53 -1.61,1.6 -2.07,3.9 -2.07,7.58 v 5.05 h 21.37 v 20.47 h -21.37 v 64.12 H 399.99 V 398.7 c 0,-9.88 3.22,-17.24 8.51,-22.29 5.05,-4.83 12.87,-7.36 21.38,-7.36 z M 300.7,449.73 c 0,-26.66 19.76,-46.2 48.03,-46.2 14.03,0 28.28,3.45 36.32,6.67 v 79.99 h -20.69 l -1.6,-7.36 c -4.83,5.52 -11.73,9.42 -22.76,9.42 -22.3,0 -39.3,-16.31 -39.3,-42.52 z m 60.91,-24.59 c -2.53,-0.69 -7.59,-1.61 -13.33,-1.61 -11.27,0 -22.99,8.73 -22.99,25.28 0,16.32 9.19,24.14 19.54,24.14 7.81,0 14.02,-4.14 16.78,-8.74 z m -71.72,-54.02 v 117.46 c -10.11,2.07 -21.83,3.68 -36.08,3.68 -29.2,0 -48.04,-15.4 -48.04,-44.83 0,-24.82 17,-43.9 42.52,-43.9 7.35,0 14.48,1.61 18.39,3.22 v -35.63 z m -23.21,55.63 c -3.68,-2.07 -9.43,-3.91 -16.55,-3.91 -12.65,0 -19.77,10.8 -19.77,24.59 0,16.78 10.8,25.29 23.91,25.29 4.59,0 9.19,-0.23 12.41,-0.92 z m -115.39,65.5 c -27.12,0 -44.13,-19.07 -44.13,-44.36 0,-25.28 17.01,-44.36 44.13,-44.36 27.35,0 44.36,19.08 44.36,44.36 0,25.29 -17.01,44.36 -44.36,44.36 z m 0,-69.41 c -13.1,0 -19.54,11.49 -19.54,25.28 0,13.56 6.44,24.83 19.54,24.83 13.1,0 19.54,-11.27 19.54,-24.83 0,-13.78 -6.44,-25.28 -19.54,-25.28 z M 39.353,405.6 v 0 L 60.269,460.77 80.497,405.6 H 106.7 L 72.452,490.19 H 47.629 L 12,405.6 Z"></path></svg>