<?xml version="1.0"?>

 <svg xmlns="http://www.w3.org/2000/svg" width="512" height="256" viewBox="0 0 387 55">
        <path d="m 350,49.6 c -6.8,0 -12.4,-8.3 -12.4,-18.5 0,-10.3 5.6,-18.6 12.4,-18.6 6.8,0 12.3,8.3 12.3,18.6 0,10.2 -5.5,18.5 -12.3,18.5 l 0,0 z M 350.5,5 c -19.4,0 -35.1,11.7 -35.1,26.2 0,14.4 15.7,26.1 35.1,26.1 19.4,0 35.1,-11.7 35.1,-26.1 C 385.6,16.7 369.9,5 350.5,5 l 0,0 z M 130,49.8 c -6.8,0 -12.4,-8.2 -12.4,-18.3 0,-10.1 5.6,-18.3 12.4,-18.3 6.9,0 12.4,8.2 12.4,18.3 0,10.1 -5.5,18.3 -12.4,18.3 l 0,0 z m 0.5,-44 c -19.4,0 -35.1,11.6 -35.1,25.8 0,14.2 15.7,25.8 35.1,25.8 19.4,0 35.1,-11.6 35.1,-25.8 0,-14.2 -15.7,-25.8 -35.1,-25.8 l 0,0 z m 38.4,1.4 0,7 11.4,0 0,34.1 -12,0 0,7.6 12,0.1 56.9,0 0,-22.7 -7.4,0 c -0.4,12 -10.8,15.1 -15.3,15.1 -4,0 -11.8,0 -11.8,0 l 0,-34.2 11.3,-0.1 0,-6.8 -45.1,0 0,0 z m 89.7,48.8 27.5,0 22.3,-41.9 11.4,0 0,-6.9 -34,0 0,6.9 9,0 -15.8,29.7 -17,-29.6 12.5,-0.1 0,-6.9 -49.5,0 0,0 0,7 11.4,0 z m -219.9,0 27.4,0 22.3,-41.9 11.5,0 0,-6.9 -34.1,0 0,6.9 9,0 -15.7,29.7 -17,-29.6 12.4,-0.1 0,-6.9 -49.5,0 0,0 0,7 11.4,0 z"></path>
    </svg>