<?xml version="1.0"?>
<!--?xml version="1.0" encoding="UTF-8" standalone="no"?-->
<svg xmlns="http://www.w3.org/2000/svg" viewBox="0 0 841.25 111.56" height="111.56" width="841.25">

  <path d="m 814.99,80.28 c -2.32,0 -4.25,1.93 -4.25,4.54 0,2.61 1.93,4.54 4.25,4.54 2.32,0 4.26,-1.93 4.26,-4.54 0,-2.61 -1.94,-4.54 -4.26,-4.54 m -153.86,8.79 h 19.52 v -1.74 l -2.12,-0.48 c -1.94,-0.48 -2.81,-1.55 -2.81,-4.25 V 56.31 h 4.55 c 2.8,0 4.25,0.68 4.44,6.57 l 0.49,12.37 c 0.38,11.12 3.57,14.21 8.99,14.21 5.5,0 6.95,-3.77 6.95,-9.08 v -2.23 h -2.03 v 1.64 c 0,3.58 -0.48,6.09 -1.83,6.09 -1.26,0 -1.36,-0.96 -1.65,-5.41 l -0.58,-8.5 c -0.77,-11.41 -2.22,-15.37 -10.63,-16.92 8.02,-2.12 12.95,-8.02 12.95,-16.43 0,-10.92 -8.6,-16.14 -16.81,-16.14 H 647.6 v 1.74 l 1.84,0.39 c 3.48,0.77 3.57,2.61 3.57,10.44 v 38.46 c 0,8.61 -2.41,12.76 -7.92,12.76 -4.93,0 -7.64,-2.42 -7.64,-11.79 V 28.77 c 0,-2.71 0.87,-3.48 3,-3.97 l 2.61,-0.58 v -1.74 h -20.2 v 1.74 l 2.12,0.58 c 1.94,0.58 2.61,1.36 2.61,4.06 V 73.8 c 0,10.15 5.9,15.76 14.89,15.76 8.99,0 13.43,-5.61 13.43,-16.05 V 31.57 c 0,-5.22 1.07,-7.06 5.32,-7.06 3.38,0 4.83,1.16 4.83,4.35 V 82.6 c 0,2.7 -0.87,3.67 -2.8,4.15 l -2.13,0.58 z m 129.7,-60.21 c 0,-2.7 0.87,-3.57 2.8,-3.96 l 2.61,-0.58 v -1.84 h -20.1 v 1.74 l 2.13,0.58 c 1.93,0.58 2.8,1.36 2.8,4.06 v 54.13 c 0,2.6 -1.06,4.05 -4.06,4.05 -3.48,0 -3.96,-1.16 -5.22,-6.86 L 759.42,22.29 h -3.87 l -11.78,56.06 c -1.36,6.28 -2.04,7.73 -4.65,8.5 l -1.64,0.48 v 1.74 h 13.82 v -1.74 l -2.03,-0.38 c -2.9,-0.58 -3.67,-2.13 -2.22,-9.47 l 6.96,-35.86 7.63,37.98 c 1.16,5.51 1.07,6.57 -3.09,7.35 l -2.03,0.38 v 1.74 h 51.22 V 67.04 h -1.83 c -0.97,10.15 -3,19.71 -11.21,19.71 h -3.87 z M 760.68,71.1 v -2.61 h -13.05 l -0.39,2.61 z M 706.75,30.02 v 46.2 c 0,6.96 0,10.24 -3.48,10.82 l -1.74,0.29 v 1.74 h 14.21 v -1.74 c -6.19,-0.87 -6.19,-2.99 -6.19,-10.53 V 32.92 l -2.32,-2.12 23.68,58.27 h 4.06 V 35.34 c 0,-7.93 0,-9.67 3.87,-10.73 l 1.35,-0.39 v -1.74 h -14.6 v 1.74 l 1.65,0.39 c 4.93,0.87 4.93,2.8 4.93,10.15 v 33.63 l 0.96,-0.29 -17.97,-45.62 h -13.82 v 1.74 l 1.35,0.39 c 1.55,0.48 2.42,2.22 4.06,5.41 M 675.72,24.8 h 3.87 c 3.87,0 7.44,2.52 7.44,15.08 0,12.85 -2.7,14.11 -8.12,14.11 h -3.19 z m -64.36,30.35 c 0,27.93 -2.32,31.89 -7.35,31.89 -5.02,0 -7.25,-3.96 -7.25,-31.7 0,-26.86 2.42,-30.73 7.25,-30.73 5.03,0 7.35,3.87 7.35,30.54 m 10.53,0.58 C 621.89,37.27 616,22 604.01,22 c -12.08,0 -17.78,15.27 -17.78,33.73 0,18.56 5.89,33.83 17.78,33.83 12.28,0 17.88,-15.27 17.88,-33.83 M 580.53,28.86 c 0,-2.7 0.67,-3.57 2.61,-4.06 l 2.12,-0.58 v -1.74 h -20 v 1.74 l 2.41,0.58 c 1.93,0.49 3,1.16 3,3.97 v 46.48 c 0,6.48 -0.58,11.7 -5.41,11.7 -3.1,0 -5.42,-2.42 -5.32,-4.16 0.29,-3 5.32,-2.8 5.7,-7.63 0.29,-3.48 -1.93,-4.93 -3.96,-5.22 -3,-0.39 -6.67,2.12 -6.77,7.15 -0.1,6.47 4.16,12.37 11.41,12.37 8.02,0 14.21,-5.41 14.21,-15.75 z m -322.81,0 c 0,-2.7 0.87,-3.57 2.81,-3.96 l 2.61,-0.58 v -1.84 h -20.11 v 1.74 l 2.13,0.58 c 1.93,0.58 2.8,1.36 2.8,4.06 v 54.13 c 0,2.6 -1.06,4.05 -4.06,4.05 -3.48,0 -4.06,-1.16 -5.31,-6.86 L 226.22,22.29 h -3.87 l -11.79,56.06 c -1.35,6.28 -2.03,7.73 -4.64,8.5 l -1.64,0.48 v 1.74 h 13.82 v -1.74 l -2.03,-0.38 c -2.9,-0.58 -3.67,-2.13 -2.22,-9.47 l 6.96,-36.05 7.63,38.17 c 1.06,5.51 1.06,6.57 -3.09,7.35 l -2.03,0.38 v 1.74 h 51.32 V 67.04 h -1.84 c -0.96,10.15 -2.99,19.71 -11.21,19.71 h -3.87 z M 526.79,24.8 h 2.13 c 5.99,0 8.02,9.57 8.7,19.72 h 1.83 V 22.48 h -35.08 v 22.04 h 1.83 c 0.68,-10.15 2.71,-19.72 8.7,-19.72 h 2.13 v 57.8 c 0,2.7 -0.87,3.67 -2.8,4.15 l -2.52,0.58 v 1.74 h 20.88 v -1.74 l -3,-0.67 c -1.83,-0.49 -2.8,-1.07 -2.8,-4.06 z m -44.17,30.83 3,0.1 c 4.35,0.1 5.6,1.74 6.48,12.28 h 1.83 V 41.14 h -1.83 c -1.07,8.41 -2.23,11.98 -6.38,12.08 l -3.1,0.1 V 24.8 h 6.67 c 7.44,0 9.09,9.38 10.15,19.72 h 1.84 V 22.48 h -33.35 v 1.74 l 2.13,0.58 c 2.22,0.58 2.8,1.94 2.8,4.16 V 82.6 c 0,2.71 -0.87,3.67 -2.8,4.16 l -2.13,0.58 v 1.73 h 34.31 V 67.04 h -1.83 c -1.16,10.05 -2.42,19.72 -11.12,19.72 h -6.67 z m -36.43,0 2.99,0.1 c 4.35,0.1 5.61,1.74 6.48,12.28 h 1.83 V 41.14 h -1.83 c -1.06,8.41 -2.22,11.98 -6.38,12.08 l -3.09,0.1 V 24.8 h 6.67 c 7.44,0 9.08,9.57 10.14,19.72 h 1.84 V 22.48 h -34.31 v 1.74 l 3.09,0.58 c 2.23,0.58 2.81,1.94 2.81,4.16 V 82.6 c 0,2.71 -0.87,3.67 -2.81,4.16 l -2.12,0.58 v 1.73 h 34.31 V 67.04 h -1.84 c -1.16,10.05 -2.42,19.72 -11.11,19.72 h -6.67 z M 406.46,24.8 h 2.9 c 3.87,0 7.45,2.52 7.45,15.08 0,12.66 -2.71,14.11 -8.12,14.11 h -2.23 z m -14.59,64.27 h 19.52 v -1.74 l -2.12,-0.48 c -1.94,-0.48 -2.81,-1.55 -2.81,-4.25 V 56.31 h 3.58 c 2.8,0 4.25,1.16 4.45,6.57 l 0.48,12.37 c 0.39,11.12 3.58,14.21 8.99,14.21 5.51,0 6.96,-3.77 6.96,-9.08 v -2.23 h -2.03 v 1.64 c 0,3.58 -0.49,6.09 -1.84,6.09 -1.26,0 -1.35,-0.96 -1.64,-5.41 l -0.58,-8.5 c -0.78,-11.7 -2.32,-15.37 -10.63,-16.92 8.02,-2.12 12.95,-8.02 12.95,-16.43 0,-10.92 -8.6,-16.14 -16.82,-16.14 h -18.46 v 1.74 L 394,24.8 c 1.93,0.58 2.8,1.36 2.8,4.06 V 82.6 c 0,2.7 -0.87,3.67 -2.8,4.15 l -2.13,0.58 z M 377.08,24.8 h 2.13 c 5.99,0 8.02,9.57 8.7,19.72 h 1.83 V 22.48 h -35.08 v 22.04 h 1.84 c 0.67,-10.15 2.7,-19.72 8.7,-19.72 h 2.12 v 57.8 c 0,2.7 -0.87,3.67 -2.8,4.15 l -2.51,0.58 v 1.74 h 20.39 v -1.74 l -2.51,-0.58 c -2.52,-0.58 -2.81,-2.51 -2.81,-4.15 z m -22.32,46.97 c 0,-19.81 -21.75,-25.03 -21.75,-39.43 0,-3.09 1.16,-7.73 5.99,-7.73 6.96,0 9.57,8.99 10.73,19.91 h 1.84 V 22.48 h -1.16 c -0.48,2.13 -1.35,3.1 -2.61,3.1 -2.22,0 -3.38,-3.48 -8.7,-3.48 -8.21,0 -13.82,6.86 -13.82,15.85 0,16.33 21.75,23.19 21.75,38.27 0,6.86 -3.19,10.73 -7.54,10.73 -6.48,0 -10.73,-7.64 -11.89,-19.91 h -1.84 v 22.03 h 1.16 c 0.97,-3.19 2.23,-3.48 3.29,-3.48 1.84,0 3.77,3.87 9.37,3.87 8.61,0 15.18,-7.44 15.18,-17.69 M 291.45,28.86 c 0,-2.7 0.87,-3.57 2.81,-3.96 l 2.61,-0.58 v -1.84 h -20.11 v 1.74 l 2.13,0.58 c 1.93,0.58 2.8,1.36 2.8,4.06 V 82.6 c 0,2.7 -0.87,3.67 -2.8,4.15 l -2.13,0.58 v 1.74 h 31.61 V 67.04 h -1.84 c -0.96,10.15 -2.99,19.71 -11.21,19.71 h -3.87 z M 227.47,71.1 v -2.61 h -13.04 l -0.39,2.61 z m -55.86,18.17 h 3.96 l 8.99,-47.55 h -1.35 l 9.86,47.55 h 3.48 l 11.79,-56.06 c 1.25,-5.89 1.93,-7.92 4.25,-8.5 l 1.84,-0.49 V 22.48 H 200.8 v 1.74 l 2.03,0.39 c 2.9,0.58 3.57,2.32 2.22,9.47 l -7.63,37.6 h 1.16 l -7.74,-39.63 c -0.77,-3.77 -1.25,-6.86 1.94,-7.44 l 2.12,-0.39 v -1.74 h -18.65 v 1.74 l 1.26,0.29 c 1.93,0.49 2.22,1.65 2.99,5.32 l 3,14.4 -0.58,-8.7 -6.67,35.18 h 0.87 l -7.83,-38.66 c -0.87,-3.96 -1.16,-6.96 1.93,-7.54 l 1.46,-0.29 v -1.74 h -19.04 v 1.74 l 1.83,0.49 c 1.74,0.48 2.71,1.35 3.87,6.66 z M 120,55.63 l 3,0.1 c 4.35,0.1 5.6,1.74 6.47,12.28 h 1.84 V 41.14 h -1.84 c -1.06,8.41 -2.22,11.98 -6.38,12.08 L 120,53.32 V 24.8 h 6.67 c 7.44,0 9.09,9.57 10.15,19.72 h 1.83 V 22.48 h -33.34 v 1.74 l 2.13,0.58 c 2.22,0.58 2.8,1.94 2.8,4.16 V 82.6 c 0,2.71 -0.87,3.67 -2.8,4.16 l -2.13,0.58 v 1.73 h 34.31 V 67.04 h -1.84 c -1.15,10.05 -2.41,19.72 -11.11,19.72 H 120 Z M 59.208,89.07 h 19.81 v -1.74 l -2.22,-0.48 c -1.74,-0.39 -2.9,-1.55 -2.9,-4.25 V 56.21 h 14.59 V 82.6 c 0,2.7 -1.15,3.86 -2.89,4.25 l -2.23,0.48 v 1.74 h 19.822 v -1.74 l -2.13,-0.58 C 99.128,86.27 98.258,85.21 98.258,82.5 V 28.86 c 0,-2.7 0.87,-3.57 2.802,-4.06 l 2.13,-0.58 V 22.48 H 83.368 v 1.74 l 2.23,0.58 c 1.64,0.49 2.89,1.16 2.89,3.97 V 53.6 H 73.898 V 28.77 c 0,-2.71 1.06,-3.48 2.9,-3.97 l 2.22,-0.58 v -1.74 h -19.81 v 1.74 l 2.13,0.58 c 1.93,0.58 2.8,1.36 2.8,4.06 V 82.6 c 0,2.7 -0.87,3.67 -2.8,4.15 l -2.13,0.58 z M 44.422,24.8 h 2.127 c 5.991,0 8.021,9.57 8.699,19.72 h 1.83 V 22.48 H 22 v 22.04 h 1.837 C 24.513,34.37 26.543,24.8 32.534,24.8 h 2.126 v 57.8 c 0,2.7 -0.868,3.67 -2.802,4.15 l -2.513,0.58 v 1.74 H 50.222 V 87.33 L 47.225,86.66 C 45.389,86.17 44.422,85.59 44.422,82.6 Z"></path>
</svg>
