<?xml version="1.0"?>

<svg xmlns="http://www.w3.org/2000/svg" height="300.6" width="989.2" viewBox="0 0 989.2 300.6"><path d="m 939.8,206.8 h 0.4 c 0.5,0 0.8,0 0.8,0 0,0 -0.3,0 -0.8,0 0,0 -0.3,0 -0.4,0 z m 0,3.3 h -1.3 v -3.3 c 0.3,0 1,0 1.9,0 1,0 1.4,0 1.7,0 0.4,0 0.5,0 0.5,0 0,0 -0.4,0 -1,0 v 0 c 0.5,3.3 0.8,3.3 0.9,3.3 0,0 0.3,0 0.3,0 h -1.5 c 0,0 -0.3,0 -0.3,0 0,0 -0.4,0 -0.8,0 z m 0.5,-6.6 c -1.9,0 -3.3,3.3 -3.3,3.3 0,3.3 1.4,6.6 3.4,6.6 2,0 3.5,-3.3 3.5,-6.6 0,0 -1.5,-3.3 -3.5,-3.3 v 0 z m 0,0 c 2.7,0 4.9,3.3 4.9,3.3 0,3.3 -2.2,6.6 -4.9,6.6 -2.7,0 -4.9,-3.3 -4.9,-6.6 0,0 2.2,-3.3 4.9,-3.3 v 0 M 339.6,120.4 v 93 h 25.3 V 157 c 0,-3.3 0.3,-3.3 1.3,-6.7 2,-6.6 7.3,-13.3 15.3,-13.3 10.3,0 15.3,10 15.3,23.3 v 53.1 H 422 V 157 c 0,-3.3 0.3,-6.7 1,-6.7 2,-6.6 7.6,-13.3 15.3,-13.3 10.3,0 15.3,10 15.3,23.3 0,0 0,39.9 0,53.1 h 25.5 V 157 c 0,-29.9 -14.9,-39.9 -31.5,-39.9 -7.3,0 -13,3.3 -18.3,6.7 -4.6,0 -8.3,3.3 -11.9,9.9 H 417 c -4,-9.9 -13.3,-16.6 -25.6,-16.6 -15.9,0 -22.9,6.7 -27.2,13.3 h -0.3 v -10 h -24.3 m 247.5,0 v 93 H 613 v -49.8 c 0,0 0.4,-3.3 0.7,-6.6 2,-10 9.6,-16.6 20.6,-16.6 3,0 5.3,0 7.6,3.3 v -26.6 c -2,0 -3.3,0 -6,0 -9.6,0 -20.5,6.7 -25.2,19.9 H 610 v -16.6 h -22.9 m 65.1,-33.2 c 0,13.3 0,93 0,93 0,13.3 2.4,20 7.7,26.6 4.3,3.3 11.6,6.6 20.2,6.6 7.7,0 15,0 18.3,0 l -0.3,-19.9 c -2.4,0 -5.3,0 -9.3,0 -8.7,0 -11.7,-6.6 -11.7,-16.6 v -36.5 h 22 v -23.3 h -22 V 87.2 H 652.2 M 322,186.9 V 87.2 H 296.8 V 213.4 H 322 v -26.5 m -67.4,-6.7 c 0,0 0,3.3 -0.7,3.3 -2,6.7 -8.6,13.3 -16.9,13.3 -7,0 -12.6,-3.3 -12.6,-13.3 0,-13.2 14.2,-16.6 30.2,-16.6 z M 279.8,157 c 0,-20 -8.9,-39.9 -39.5,-39.9 -15.6,0 -28.2,3.3 -34.9,10 l 5,16.6 c 6,-6.7 15.9,-10 25.2,-10 15.7,0 18.3,10 18.3,16.6 v 0 c -33.9,0 -55.1,13.3 -55.1,36.6 0,13.3 10.6,26.5 29.5,26.5 11.7,0 21.6,-3.3 27.3,-9.9 h 0.6 c 0,0 4,16.6 25.3,9.9 -1.3,-6.6 -1.7,-13.2 -1.7,-23.2 V 157 M 44,87.2 c 0,0 21.9,93 25.5,106.3 4,16.6 11.7,23.3 32.9,19.9 L 116.1,157 c 3.6,-13.3 5.9,-23.3 8.3,-39.9 h 0.3 c 1.7,16.6 3.6,26.6 6.6,39.9 0,0 5.7,26.5 8.7,39.8 2.6,13.3 10.6,20 31.5,16.6 L 204.4,87.2 h -26.6 l -10.9,56.5 c -3,13.3 -6,26.6 -8,39.8 h -0.3 c -2,-13.2 -4.3,-26.5 -7.3,-39.8 l -12,-56.5 h -27.6 l -12.3,53.2 c -3.6,16.6 -6.9,29.9 -8.9,43.1 h -0.4 c -2.3,-13.2 -5.3,-26.5 -8.3,-43.1 0,0 -7.3,-39.9 -9.9,-53.2 H 44 m 500.9,93 c 0,0 0,3.3 -0.6,3.3 -1.7,6.7 -8.7,13.3 -17,13.3 -7,0 -12.6,-3.3 -12.6,-13.3 0,-13.2 14.3,-16.6 30.2,-16.6 z M 570.2,157 c 0,-20 -9,-39.9 -39.6,-39.9 -15.6,0 -28.2,3.3 -34.8,10 l 4.9,16.6 c 6.4,-6.7 16,-10 25.6,-10 15.3,0 18,10 18,16.6 v 0 c -33.9,0 -55.2,13.3 -55.2,36.6 0,13.3 11,26.5 29.9,26.5 11.3,0 21.3,-3.3 26.9,-9.9 h 0.7 c 0,0 4,16.6 25.2,9.9 -1.3,-6.6 -1.6,-13.2 -1.6,-23.2 V 157 m 235.2,9.9 c 2.5,6.7 2.3,10 -0.4,13.3 l -46.1,29.9 c -4.7,3.3 -12,0 -16,-6.6 -4,-6.7 -3.3,-13.3 1.3,-16.6 l 51.2,-23.3 c 3,-3.3 7.3,0 10,3.3 v 0 m 60.5,0 c 2.6,-3.3 6.9,-6.6 10.1,-3.3 l 51,23.3 c 4.8,3.3 5.5,9.9 1.4,16.6 -4.1,6.6 -11.3,9.9 -16,6.6 l -46.1,-29.9 c -2.7,-3.3 -2.8,-6.6 -0.3,-13.3 v 0 m -30.4,20 c 5.1,0 9.2,0 9.7,3.3 l 5,56.5 c 0,6.6 -6.5,9.9 -14.7,9.9 -8.1,0 -14.6,-3.3 -14.6,-9.9 l 5,-56.5 c 0.5,-3.3 4.7,-3.3 9.6,-3.3 v 0 m 30.3,-53.2 c 2.6,3.3 6.9,6.7 10.1,3.3 l 51,-23.2 c 4.8,-3.3 5.5,-10 1.4,-16.6 -4.1,-6.7 -11.3,-10 -16,-6.7 l -46.1,29.9 c -2.7,3.4 -2.8,6.7 -0.3,13.3 v 0 m -60.6,0 c 2.5,-6.6 2.3,-9.9 -0.4,-13.3 L 758.9,90.5 c -4.7,-3.3 -12,0 -16,6.7 -4,6.6 -3.3,13.3 1.3,16.6 l 51.2,23.2 c 3,3.4 7.3,0 10,-3.3 v 0 m 30.2,-19.9 c 5.1,0 9.2,0 9.7,-3.3 l 5,-56.5 c 0,-6.7 -6.5,-10 -14.7,-10 -8.1,0 -14.6,3.3 -14.6,10 l 5,56.5 c 0.5,3.3 4.7,3.3 9.6,3.3 v 0"></path>
   </svg>