<?xml version="1.0"?>

<svg xmlns="http://www.w3.org/2000/svg" viewBox="0 0 357.4 185.7" width="357.4" height="185.7"> <path d="m 22,22 40.94,141.5 20.51,-68.51 19.15,68.61 16,-53.3 0,33.2 64.8,0 c 14.3,0 28.9,-2.3 28.9,-20 l 0,-8.7 c 0,-2.7 -0.3,-5.1 -0.8,-7.1 l 2.7,0 0,7.2 17,0 0,-7.2 3.9,0 0,35.8 18.8,0 c 14.4,0 24.2,-1.7 29.3,-9 l 0,9 23.3,0 c 14.3,0 28.9,-2.3 28.9,-20 l 0,-8.7 c 0,-7.7 -2.1,-12.7 -6.7,-15.46 5.4,-3.6 6.7,-9.15 6.7,-13.8 l 0,-6.82 c 0,-7.59 -2.7,-12.6 -8.2,-15.31 -4.8,-2.4 -11.8,-2.91 -20.7,-2.91 l -23.3,0 0,8.1 c -0.7,-1.08 -1.6,-2.04 -2.6,-2.89 C 276.2,62 269.7,60.5 258.3,60.5 l -23.2,0 0,30.14 -3.9,0 0,-7.2 -17,0 0,7.2 -2.5,0 c 0.4,-1.73 0.6,-3.53 0.6,-5.1 l 0,-6.82 c 0,-7.59 -2.7,-12.6 -8.2,-15.31 -4.9,-2.4 -11.8,-2.91 -20.7,-2.91 l -49.9,0 L 145,22 117.1,22 108.2,54.01 99.5,22 62.96,22 68.82,42.9 65.61,54.31 56.84,22 22,22 Z m 4.41,3.3 27.9,0 11.27,41.53 6.69,-23.93 -4.93,-17.6 29.61,0 11.15,41.23 11.6,-41.23 20.8,0 -11.5,38.58 31.9,0 0,12.89 -18.6,0 0,16.42 18.6,0 0,12.81 -18.6,0 0,21.4 18.6,0 0,12.8 -39,0 0,-52.56 L 102.8,151.7 83.52,83.06 63,151.7 26.41,25.3 Z m 136.99,38.58 20,0 c 17.2,0 25.6,1.8 25.6,14.84 l 0,6.82 c 0,8.02 -4.6,12.68 -14,13.95 l 0,0.45 c 10.2,0.56 14,4.76 14,14.86 l 0,8.7 c 0,12.6 -7.9,16.7 -25.6,16.7 l -20,0 0,-76.32 z m 75,0 19.9,0 c 19.3,0 25.8,4.03 25.8,22.93 l 0,30.49 c 0,19.1 -8.1,22.9 -30.2,22.9 l -15.5,0 0,-76.32 z m 48.2,0 19.9,0 c 17.2,0 25.6,1.8 25.6,14.84 l 0,6.82 c 0,8.02 -4.6,12.68 -14,13.95 l 0,0.45 c 10.2,0.56 14,4.76 14,14.86 l 0,8.7 c 0,12.6 -7.8,16.7 -25.6,16.7 l -19.9,0 0,-76.32 z m -105,10.81 0,19.92 c 0.7,0.15 1.3,0.15 1.9,0.15 4.9,0 7.3,-2.17 7.3,-6.3 l 0,-7.95 c 0,-4.34 -2.2,-5.82 -7.4,-5.82 l -1.8,0 z m 123.2,0 0,19.92 c 0.6,0.15 1.3,0.15 1.8,0.15 4.9,0 7.3,-2.17 7.3,-6.3 l 0,-7.95 c 0,-4.34 -2.1,-5.82 -7.4,-5.82 l -1.7,0 z m -48.2,2.45 0,49.16 c 1,0.1 1.7,0.1 2.6,0.1 4.9,0 6.7,-1.3 6.7,-6.4 l 0,-36.64 c 0,-4.73 -1.6,-6.22 -6.2,-6.22 l -3.1,0 z m -71.7,0.92 c 2.6,0.17 2.6,0.87 2.6,2.45 l 0,7.95 c 0,1.28 0,2.55 -2.6,2.85 l 0,-13.25 z m 123.2,0 c 2.5,0.17 2.5,0.87 2.5,2.45 l 0,7.95 c 0,1.28 0,2.55 -2.5,2.85 l 0,-13.25 z m -162.5,2.04 14.5,0 0,9.79 -14.5,0 0,-9.79 z m 114.3,0.36 c 1.9,0 2.2,0.35 2.2,0.35 0.1,0 0.4,0.45 0.4,2.55 l 0,36.64 c 0,2.3 -0.4,2.7 -0.4,2.7 0,0 -0.4,0.3 -2.2,0.4 l 0,-42.64 z m -42.4,6.28 10.4,0 0,7.2 7.2,0 0,10.46 -7.2,0 0,7.1 -10.4,0 0,-7.1 -7.2,0 0,-10.46 7.2,0 0,-7.2 z m -10.5,11.48 0,2.08 c -0.5,-0.36 -1,-0.66 -1.5,-0.96 0.6,-0.37 1,-0.75 1.5,-1.12 z m -23.5,7.38 c -0.6,0 -1.2,0.1 -1.9,0.1 l 0,23 c 0.8,0.2 1.5,0.2 2.2,0.2 4.8,0 6.9,-1.8 7,-6.8 l 0,-9.6 0,-0.4 c 0,-4.7 -2.3,-6.5 -7.3,-6.5 z m 123.1,0 c -0.5,0 -1.2,0.1 -1.8,0.1 l 0,23 c 0.7,0.2 1.5,0.2 2.1,0.2 4.9,0 6.9,-1.8 7,-6.8 l 0,-9.6 0,-0.4 c 0,-4.7 -2.2,-6.5 -7.3,-6.5 z m -121.7,3.3 c 2.4,0.3 2.6,1.2 2.6,3.2 l 0,10 c -0.1,2.6 -0.5,3.3 -2.6,3.4 l 0,-16.6 z m 123.2,0 c 2.4,0.3 2.5,1.2 2.5,3.2 l 0,10 c -0.1,2.6 -0.4,3.3 -2.5,3.4 l 0,-16.6 z m -162.5,0.4 14.5,0 0,14.8 -14.5,0 0,-14.8 z m 157.6,36.2 c -4.4,0 -6.7,1.2 -7.8,3 -0.5,0.7 -0.8,1.5 -0.8,2.4 0,0.5 0.1,1.5 0.7,2.4 0.9,1.3 2.2,1.8 3.6,2.2 1.4,0.4 2.7,0.6 4,0.9 1.2,0.2 2.2,0.4 2.6,0.5 0.8,0.4 1,0.9 1,1.3 0,0.6 -0.5,1.1 -1,1.4 -0.5,0.2 -1.3,0.3 -1.9,0.3 -1.6,0 -2.5,-0.3 -3.1,-0.8 -0.6,-0.4 -0.7,-0.8 -0.7,-1.1 l -6,0.1 c 0.1,0.6 0.2,2 1.4,3.3 1.2,1.4 3.5,2.3 7.5,2.3 4.6,0 7.2,-1 8.6,-2.8 0.7,-0.9 1.1,-2 1.1,-3.2 0,-1.6 -0.7,-2.5 -1.1,-2.9 -0.7,-0.7 -1.6,-1.2 -3.5,-1.7 -3.1,-0.7 -6.1,-1.1 -6.9,-1.7 -0.4,-0.3 -0.4,-0.6 -0.4,-0.8 0,-0.2 0,-0.6 0.4,-0.9 0.7,-0.5 2.2,-0.5 2.3,-0.5 1.5,0 2.4,0.4 2.8,1 0.1,0.2 0.1,0.4 0.2,0.6 l 5.9,-0.4 c -0.1,-0.7 -0.3,-2.2 -1.9,-3.4 -0.6,-0.3 -1.1,-0.6 -1.7,-0.9 -1.4,-0.4 -3.8,-0.6 -5.3,-0.6 z m 19.1,0 c -4.4,0 -6.8,1.2 -7.9,3 -0.5,0.7 -0.7,1.5 -0.7,2.4 0,0.5 0,1.5 0.7,2.4 0.8,1.3 2.1,1.8 3.6,2.2 1.3,0.4 2.7,0.6 4,0.9 1.2,0.2 2.2,0.4 2.6,0.5 0.8,0.4 0.9,0.9 0.9,1.3 0,0.6 -0.4,1.1 -0.9,1.4 -0.6,0.2 -1.4,0.3 -2,0.3 -1.6,0 -2.4,-0.3 -3,-0.8 -0.6,-0.4 -0.7,-0.8 -0.8,-1.1 l -6,0.1 c 0.1,0.6 0.3,2 1.4,3.3 1.3,1.4 3.5,2.3 7.5,2.3 4.7,0 7.2,-1 8.6,-2.8 0.8,-0.9 1.2,-2 1.2,-3.2 0,-1.6 -0.7,-2.5 -1.2,-2.9 -0.6,-0.7 -1.5,-1.2 -3.5,-1.7 -3,-0.7 -6,-1.1 -6.9,-1.7 -0.3,-0.3 -0.3,-0.6 -0.3,-0.8 0,-0.2 0,-0.6 0.3,-0.9 0.8,-0.5 2.2,-0.5 2.3,-0.5 1.6,0 2.4,0.4 2.8,1 0.1,0.2 0.2,0.4 0.2,0.6 l 6,-0.4 c -0.1,-0.7 -0.4,-2.2 -2,-3.4 -0.5,-0.3 -1.1,-0.6 -1.7,-0.9 -1.4,-0.4 -3.8,-0.6 -5.2,-0.6 z m -87.2,0.7 0,17 6,0 0,-6 4.6,0 c 1.9,0 4.3,0 5.9,-1.2 l 0,0 c 2.1,-1.4 2.2,-3.6 2.2,-4.5 0,-1.4 -0.4,-2.2 -0.6,-2.8 -1,-1.9 -2.7,-2.4 -4.7,-2.5 l -1.8,0 -11.6,0 z m 19.5,0 0,17 6.1,0 0,-6.2 3.2,0 3.5,6.2 6.8,0 -4.3,-6.8 c 0.9,-0.2 1.2,-0.4 1.6,-0.6 2.2,-1.2 2.3,-3.4 2.3,-4.2 0,-1.6 -0.5,-2.5 -0.8,-3.1 -1.4,-2.1 -3.6,-2.3 -5.9,-2.3 l -12.5,0 z m 20.6,0 0,17 18.1,0 0,-3.9 -12,0 0,-2.7 10.9,0 0,-3.8 -10.9,0 0,-2.8 11.8,0 0,-3.8 -17.9,0 z m -34.1,3.8 4.5,0 c 0.7,0 1.4,0.1 1.9,0.9 0,0.1 0.2,0.3 0.2,0.8 0,0.8 -0.5,1.4 -1.2,1.6 -0.3,0 -0.7,0 -1.4,0 l -4,0 0,-3.3 z m 19.6,0 5.1,0 c 0.6,0 1.3,0.1 1.7,0.8 0.2,0.3 0.3,0.7 0.3,0.8 0,0.2 -0.1,0.6 -0.4,1 -0.4,0.4 -1,0.6 -2.1,0.6 l -4.6,0 0,-3.2 z"></path> </svg>