 <svg 
   xmlns="http://www.w3.org/2000/svg"
 
   width="124.17424"
   height="43.389076"
   viewBox="0 0 33 12">
  
  <path
     d="m 30.164,10.032 -0.29,0 0.285,-1.0623 c 0.03,-0.1094 0.04,-0.1916 0.04,-0.2463 0,-0.055 -0.03,-0.1047 -0.08,-0.1505 -0.05,-0.046 -0.121,-0.069 -0.204,-0.069 -0.113,0 -0.236,0.047 -0.366,0.1393 -0.131,0.093 -0.221,0.2353 -0.273,0.4259 l -0.258,0.9629 -0.288,0 0.301,-1.1255 c 0.04,-0.1499 0.03,-0.256 -0.04,-0.3183 -0.06,-0.062 -0.139,-0.093 -0.228,-0.093 -0.126,0 -0.25,0.048 -0.369,0.1455 -0.12,0.097 -0.199,0.2198 -0.239,0.3683 l -0.274,1.022 -0.285,0 0.458,-1.7085 0.257,0 -0.09,0.3283 c 0.21,-0.2506 0.44,-0.3756 0.69,-0.3756 0.138,0 0.244,0.04 0.319,0.1199 0.07,0.08 0.11,0.1765 0.108,0.2895 0.205,-0.2731 0.443,-0.4094 0.715,-0.4094 0.13,0 0.236,0.033 0.316,0.1 0.08,0.066 0.123,0.1429 0.13,0.2293 0.01,0.086 -0.01,0.2079 -0.05,0.3646 l -0.285,1.0629 z m -3.83,-0.1724 c 0.152,0 0.294,-0.056 0.427,-0.1677 0.132,-0.1116 0.229,-0.2854 0.293,-0.5209 0.06,-0.2368 0.06,-0.4087 -0.02,-0.5154 -0.08,-0.1063 -0.191,-0.1596 -0.335,-0.1596 -0.148,0 -0.287,0.054 -0.419,0.1614 -0.131,0.1075 -0.228,0.2783 -0.291,0.5116 -0.07,0.2472 -0.06,0.4241 0.01,0.5305 0.07,0.1068 0.186,0.1601 0.337,0.1601 m -0.08,0.2194 c -0.263,0 -0.445,-0.087 -0.545,-0.2604 -0.101,-0.1741 -0.117,-0.3895 -0.05,-0.6468 0.07,-0.2722 0.213,-0.4897 0.423,-0.652 0.209,-0.1627 0.437,-0.2438 0.683,-0.2438 0.265,0 0.45,0.085 0.557,0.2565 0.107,0.171 0.125,0.3848 0.06,0.641 -0.07,0.2665 -0.213,0.4841 -0.423,0.6529 -0.209,0.1688 -0.445,0.2526 -0.705,0.2526 m -1.192,-0.6458 0.259,0.042 c -0.09,0.1891 -0.213,0.337 -0.372,0.4437 -0.158,0.1071 -0.336,0.1601 -0.53,0.1601 -0.265,0 -0.443,-0.087 -0.535,-0.2605 -0.09,-0.174 -0.104,-0.3862 -0.04,-0.6368 0.07,-0.2596 0.201,-0.4757 0.393,-0.6479 0.192,-0.1718 0.414,-0.2582 0.666,-0.2582 0.209,0 0.361,0.056 0.457,0.1665 0.1,0.1112 0.136,0.255 0.119,0.4307 l -0.282,0.046 c 0.02,-0.2817 -0.09,-0.4227 -0.344,-0.4227 -0.165,0 -0.308,0.062 -0.429,0.1868 -0.122,0.1247 -0.21,0.2863 -0.263,0.4846 -0.06,0.2192 -0.06,0.3893 0,0.5104 0.05,0.1211 0.163,0.182 0.322,0.182 0.246,0 0.44,-0.1424 0.581,-0.4266 m -1.761,0.2198 -0.101,0.3789 -0.425,0 0.101,-0.3789 0.425,0 z m -1.766,0.2066 c 0.152,0 0.294,-0.056 0.426,-0.1677 0.133,-0.1115 0.23,-0.2854 0.294,-0.5208 0.06,-0.2369 0.06,-0.4088 -0.02,-0.5155 -0.08,-0.1063 -0.191,-0.1596 -0.335,-0.1596 -0.148,0 -0.288,0.054 -0.419,0.1614 -0.131,0.1076 -0.229,0.2784 -0.291,0.5117 -0.07,0.2471 -0.06,0.424 0.01,0.5305 0.07,0.1067 0.186,0.16 0.337,0.16 m -0.08,0.2203 c -0.263,0 -0.445,-0.087 -0.546,-0.2613 -0.101,-0.174 -0.117,-0.3895 -0.05,-0.6468 0.07,-0.2721 0.213,-0.4896 0.423,-0.652 0.209,-0.1626 0.437,-0.2437 0.684,-0.2437 0.264,0 0.449,0.085 0.556,0.2565 0.107,0.1709 0.126,0.3847 0.06,0.6409 -0.07,0.2665 -0.212,0.4841 -0.422,0.6529 C 21.957,9.9953 21.721,10.08 21.461,10.08 M 19.169,9.3621 c -0.03,0.1755 -0.01,0.3027 0.08,0.382 0.09,0.079 0.188,0.1187 0.307,0.1187 0.152,0 0.291,-0.059 0.415,-0.1762 0.125,-0.1175 0.214,-0.2783 0.269,-0.4827 0.06,-0.2201 0.06,-0.3934 0,-0.519 -0.06,-0.1261 -0.165,-0.1891 -0.324,-0.1891 -0.126,0 -0.251,0.045 -0.375,0.1347 -0.125,0.09 -0.216,0.2054 -0.273,0.3478 l -0.103,0.3838 z m -0.334,0.6699 -0.144,0 0.619,-2.3092 0.298,0 -0.237,0.8847 c 0.196,-0.221 0.414,-0.3316 0.654,-0.3316 0.22,0 0.384,0.077 0.491,0.2321 0.107,0.1545 0.121,0.3792 0.04,0.6741 -0.07,0.2537 -0.198,0.4669 -0.391,0.6391 -0.192,0.1723 -0.405,0.2588 -0.639,0.2588 -0.26,0 -0.43,-0.1106 -0.511,-0.3304 l -0.182,0.2824 z m -0.109,-2.3094 -0.08,0.2962 -0.321,0 0.08,-0.2962 0.321,0 z m -0.17,0.6007 -0.459,1.7087 -0.298,0 0.459,-1.7087 0.298,0 z m -1.255,0.6801 c 0.02,-0.096 0.03,-0.1809 0.02,-0.2555 -0.02,-0.074 -0.06,-0.1378 -0.121,-0.1902 -0.06,-0.053 -0.151,-0.079 -0.261,-0.079 -0.148,0 -0.287,0.048 -0.415,0.1424 -0.129,0.095 -0.221,0.2219 -0.276,0.3823 l 1.053,0 z m -0.122,0.5193 0.263,0.051 c -0.09,0.1461 -0.22,0.267 -0.393,0.3622 -0.172,0.096 -0.358,0.1441 -0.556,0.1441 -0.262,0 -0.452,-0.082 -0.569,-0.2468 -0.118,-0.1644 -0.142,-0.3794 -0.07,-0.646 0.07,-0.2721 0.215,-0.492 0.428,-0.6594 0.214,-0.1679 0.447,-0.2518 0.701,-0.2518 0.251,0 0.432,0.077 0.543,0.232 0.111,0.1542 0.127,0.3855 0.05,0.6934 l -1.392,0 c -0.07,0.2584 -0.06,0.4327 0.04,0.5229 0.1,0.09 0.214,0.1356 0.349,0.1356 0.244,0 0.446,-0.1126 0.606,-0.337 m -1.316,-1.1994 -1.009,1.7085 -0.242,0 -0.09,-1.2685 -0.733,1.2685 -0.244,0 -0.118,-1.7085 0.299,0 0.08,1.2737 0.739,-1.2737 0.218,0 0.09,1.2791 0.774,-1.2791 0.24,0 z M 31.269,3.5985 C 31.124,3.5082 30.968,3.422 30.803,3.3397 l 0.188,-0.2092 c 0.183,0.085 0.341,0.1642 0.471,0.2381 L 31.269,3.5985 Z M 31,4.3946 l -0.794,0 -0.07,0.2747 0.794,0 L 31,4.3946 Z m -1.008,0.8002 0.794,0 0.07,-0.2794 -0.794,0 -0.07,0.2794 z m -0.951,-0.5255 0.786,0 0.07,-0.2747 -0.786,0 -0.07,0.2747 z m -0.141,0.5255 0.786,0 0.07,-0.2794 -0.786,0 -0.08,0.2794 z m -0.449,1.2145 0.246,-0.2051 c 0.17,0.1287 0.326,0.2625 0.47,0.4023 L 28.905,6.8237 C 28.775,6.687 28.623,6.5489 28.451,6.4093 m 2.209,-0.7427 0.06,-0.2256 -0.795,0 -0.07,0.2625 -0.306,0 0.07,-0.2625 -0.786,0 -0.08,0.3078 -0.306,0 0.431,-1.6086 1.092,0 0.07,-0.2712 -1.3,0 0.07,-0.2625 1.3,0 0.128,-0.476 0.306,0 -0.128,0.476 1.36,0 -0.07,0.2625 -1.36,0 -0.07,0.2712 1.101,0 -0.409,1.5264 -0.306,0 z m -2.579,0.2544 2.179,0 0.06,-0.2379 0.315,0 -0.06,0.2379 0.683,0 -0.07,0.2625 -0.684,0 -0.126,0.4723 c -0.08,0.309 -0.294,0.4637 -0.634,0.4637 -0.162,0 -0.361,0 -0.597,-0.01 0.01,-0.088 0.02,-0.1886 0.03,-0.3037 0.225,0.019 0.426,0.029 0.604,0.029 0.156,0 0.254,-0.074 0.293,-0.2216 l 0.116,-0.431 -2.18,0 0.07,-0.2626 z m -0.603,-1.6332 0.429,0 0.31,-1.1573 0.314,0 -0.31,1.1573 0.408,0 -0.08,0.2955 -0.408,0 -0.693,2.5855 -0.314,0 0.693,-2.5855 -0.429,0 0.08,-0.2955 z m -0.593,-0.086 -0.51,0 -0.02,0.039 c -0.146,0.561 -0.196,1.0521 -0.15,1.4731 0.215,-0.3391 0.443,-0.843 0.683,-1.5118 m -0.267,-1.0672 0.276,0.049 c -0.113,0.253 -0.231,0.494 -0.353,0.7221 l 0.916,0 -0.08,0.2958 -0.204,0 c -0.27,0.7836 -0.572,1.404 -0.909,1.8606 0.08,0.3054 0.225,0.5657 0.43,0.782 C 26.607,6.951 26.518,7.0563 26.434,7.1602 26.246,6.9263 26.11,6.6611 26.025,6.3643 25.778,6.6501 25.486,6.9252 25.148,7.189 25.108,7.11 25.068,7.0233 25.009,6.9304 c 0.384,-0.2817 0.7,-0.5758 0.95,-0.8819 -0.06,-0.3806 -0.04,-0.8064 0.05,-1.2787 -0.07,0.1057 -0.149,0.2074 -0.227,0.306 -0.04,-0.071 -0.09,-0.1423 -0.146,-0.2135 0.374,-0.4677 0.701,-1.0436 0.981,-1.7277 m -2.383,1.3789 0.269,-1.0053 0.272,0 -0.195,0.7262 0.349,0 0.279,-1.0423 0.28,0 -0.279,1.0423 0.348,0 0.196,-0.7304 0.272,0 -0.305,1.1411 -0.272,0 0.04,-0.1316 -1.249,0 z m -0.01,0.3652 1.351,0 -0.08,0.2872 -1.351,0 0.08,-0.2872 z m 0.643,0.944 -0.561,0 -0.05,0.1887 c -0.133,0.4923 -0.37,0.8425 -0.712,1.0505 -0.03,-0.077 -0.07,-0.1642 -0.12,-0.2627 0.262,-0.1424 0.447,-0.4156 0.555,-0.8208 l 0.117,-0.4348 1.13,0 -0.192,0.7139 c 0.16,-0.1094 0.343,-0.2379 0.55,-0.3855 -0.01,0.1202 -0.01,0.2253 -0.01,0.3158 -0.188,0.1202 -0.405,0.2681 -0.65,0.4431 -0.08,0.057 -0.149,0.1121 -0.214,0.1642 L 24.561,6.5326 c 0.1,-0.074 0.162,-0.1723 0.195,-0.2955 l 0.111,-0.4144 z m -1.71,-1.5965 c 0.45,-0.35 0.813,-0.707 1.089,-1.071 l 0.226,0.1436 c -0.374,0.4625 -0.807,0.8784 -1.299,1.2474 0,-0.1065 -0.01,-0.2132 -0.02,-0.32 M 22.777,5.5476 C 23.194,5.1867 23.58,4.7612 23.934,4.2714 l 0.247,0.1272 c -0.162,0.2132 -0.324,0.413 -0.488,0.5993 l -0.577,2.1541 -0.289,0 0.462,-1.7234 C 23.126,5.5914 22.963,5.7405 22.8,5.8758 22.8,5.7665 22.79,5.6571 22.78,5.5476 m -0.406,-1.6742 -1.835,0 -0.134,0.5004 1.835,0 0.134,-0.5004 z m -0.34,1.2678 0.135,-0.5046 -1.835,0 -0.135,0.5046 1.835,0 z m 0.277,0.4105 0.14,0.2544 C 22.15,5.9677 21.807,6.1342 21.42,6.307 c 0.22,0.2161 0.529,0.3635 0.927,0.4428 -0.09,0.074 -0.196,0.1795 -0.323,0.3162 -0.809,-0.2353 -1.27,-0.7864 -1.383,-1.6539 l -0.514,0 -0.349,1.3008 c 0.368,-0.1175 0.702,-0.2351 0.999,-0.3526 -0.04,0.1476 -0.07,0.2638 -0.09,0.3488 -0.344,0.1093 -0.688,0.231 -1.032,0.3651 -0.05,0.022 -0.136,0.06 -0.243,0.1148 L 19.296,6.9018 c 0.09,-0.044 0.143,-0.1245 0.175,-0.242 l 0.819,-3.057 1.075,0 c -0.03,-0.1315 -0.06,-0.2631 -0.1,-0.3941 l 0.33,-0.1149 c 0.05,0.1613 0.09,0.331 0.123,0.509 l 1.054,0 -0.516,1.9245 -0.323,0 0.03,-0.1152 -0.994,0 c 0.05,0.2599 0.143,0.4912 0.281,0.6937 0.339,-0.1533 0.693,-0.338 1.062,-0.5541 M 19.44,3.1921 c 0.171,0.164 0.361,0.3642 0.57,0.5993 -0.122,0.096 -0.228,0.1803 -0.318,0.2541 C 19.463,3.7585 19.286,3.5493 19.163,3.4179 L 19.44,3.1921 Z m -0.446,1.063 c 0.174,0.145 0.372,0.3308 0.598,0.558 C 19.456,4.928 19.35,5.0169 19.274,5.0796 19.028,4.8036 18.842,4.6081 18.717,4.4929 l 0.277,-0.2378 z m 0.1,1.2063 c 0.1,0.049 0.201,0.096 0.302,0.1396 -0.31,0.5444 -0.607,1.0654 -0.89,1.5633 L 18.167,7.0416 C 18.461,6.5845 18.77,6.0578 19.091,5.4614 M 17.026,3.467 c 0.587,-0.01 1.143,-0.061 1.667,-0.168 l 0.03,0.3159 C 18.14,3.686 17.65,3.7327 17.25,3.7544 l -0.256,0.9561 1.551,0 -0.08,0.2789 -0.608,0 -0.576,2.1502 -0.314,0 0.576,-2.1502 -0.629,0 -0.05,0.2012 C 16.64,6.0305 16.257,6.6842 15.715,7.1522 15.67,7.0671 15.619,6.9799 15.56,6.8895 16.029,6.5037 16.365,5.9334 16.567,5.1781 L 17.026,3.467 Z m -1.333,2.3104 c 0.103,0.2079 0.19,0.3993 0.262,0.5746 l -0.32,0.1806 C 15.565,6.322 15.488,6.1236 15.399,5.9376 l 0.294,-0.1602 z m -0.948,-2.187 0.918,0 C 15.633,3.4781 15.593,3.3561 15.553,3.225 l 0.305,-0.1231 c 0.05,0.1396 0.09,0.2805 0.132,0.4229 l -0.159,0.066 0.902,0 -0.07,0.2625 -1.988,0 0.07,-0.2625 z m -0.391,0.9519 0.684,0 C 14.967,4.3577 14.897,4.1987 14.826,4.0663 l 0.271,-0.156 c 0.06,0.1095 0.143,0.264 0.237,0.4637 l -0.285,0.1683 0.561,0 c 0.211,-0.2148 0.411,-0.427 0.597,-0.6362 l 0.258,0.1642 c -0.184,0.1711 -0.356,0.3281 -0.52,0.472 l 0.644,0 -0.07,0.2625 -2.234,0 0.07,-0.2625 z m -0.09,0.7674 0.867,0 0.104,-0.3897 0.307,0 -0.105,0.3897 0.833,0 -0.07,0.2625 -0.833,0 -0.287,1.0711 C 15,6.9332 14.819,7.0782 14.53,7.0782 c -0.121,0 -0.258,0 -0.411,0 0.01,-0.091 0.03,-0.1943 0.04,-0.3118 0.16,0.016 0.287,0.024 0.381,0.024 0.132,0 0.218,-0.07 0.255,-0.2091 l 0.269,-1.0056 -0.866,0 0.07,-0.2624 z m 0.208,0.4472 0.254,0.1314 C 14.493,6.1973 14.266,6.4765 14.05,6.7254 13.981,6.6761 13.9,6.6268 13.809,6.5777 14.003,6.3698 14.225,6.0962 14.475,5.7569 M 6.0162,7.444 C 5.9493,7.5584 5.8014,7.6134 5.6856,7.5657 5.5717,7.5188 5.536,7.3909 5.6007,7.2784 5.6673,7.1666 5.8096,7.1121 5.9231,7.1573 6.0386,7.1995 6.08,7.3288 6.0162,7.444 M 5.4068,8.2261 C 5.2219,8.5212 4.8258,8.6503 4.5274,8.5141 4.2334,8.3803 4.1468,8.0375 4.3318,7.7498 4.5145,7.4634 4.8972,7.3357 5.1934,7.4598 5.4929,7.5875 5.5886,7.9278 5.4068,8.2261 M 6.1019,6.1377 C 5.1918,5.9009 4.1632,6.3544 3.768,7.1562 3.3654,7.9739 3.7542,8.8816 4.6741,9.1785 5.6265,9.4856 6.7488,9.015 7.1392,8.1323 7.5241,7.2694 7.0435,6.381 6.1019,6.1377 M 10.657,3.1058 C 10.287,2.6963 9.7422,2.5405 9.2389,2.6476 9.0332,2.6914 8.902,2.8938 8.9463,3.0998 8.9902,3.3047 9.1925,3.4365 9.3975,3.3919 l 0,0 c 0.2461,-0.052 0.5129,0.024 0.6935,0.2235 0.181,0.2006 0.229,0.4734 0.152,0.7128 l 0,0 c -0.06,0.1998 0.04,0.4147 0.245,0.4795 0.2,0.064 0.414,-0.045 0.479,-0.2453 0.158,-0.4896 0.06,-1.0475 -0.311,-1.4571 M 11.822,2.0544 C 11.063,1.2134 9.944,0.89268 8.9109,1.1123 l 0,0 C 8.6722,1.1635 8.5197,1.3986 8.571,1.6371 c 0.051,0.2387 0.2859,0.3914 0.5249,0.3404 0.7347,-0.1561 1.5301,0.072 2.0691,0.6696 0.539,0.5975 0.685,1.4123 0.455,2.1267 l 0,0 c -0.07,0.2328 0.05,0.4818 0.285,0.5571 0.232,0.075 0.481,-0.052 0.556,-0.2842 0,0 0,0 0,0 0.324,-1.0045 0.12,-2.15 -0.639,-2.9901 M 5.9106,9.7178 C 3.9986,9.9063 2.3477,9.0422 2.2235,7.7867 2.0994,6.5314 3.5493,5.3605 5.4614,5.1716 7.3738,4.9824 9.0244,5.8468 9.1485,7.1018 9.2725,8.3577 7.823,9.5287 5.9106,9.7178 M 9.7354,5.5501 C 9.5729,5.5014 9.4613,5.4682 9.5465,5.2545 9.7308,4.7904 9.75,4.3901 9.5496,4.1044 9.1745,3.5689 8.1485,3.5976 6.9726,4.0906 c 0,0 -0.3694,0.1616 -0.275,-0.1313 C 6.8786,3.3776 6.8512,2.8906 6.5697,2.6094 5.9318,1.9709 4.2351,2.6335 2.7799,4.088 1.6903,5.1777 1.0577,6.3326 1.0577,7.3313 c 0,1.9102 2.4495,3.0717 4.8462,3.0717 3.1414,0 5.2311,-1.8255 5.2311,-3.2746 0,-0.8753 -0.737,-1.3724 -1.4,-1.5779"  />
</svg>
