<?xml version="1.0"?>

<!-- Generator: Adobe Illustrator 19.2.0, SVG Export Plug-In . SVG Version: 6.00 Build 0)  -->
<svg version="1.1" id="Layer_1" xmlns="http://www.w3.org/2000/svg" xmlns:xlink="http://www.w3.org/1999/xlink" x="0px" y="0px" width="612px" height="186px" viewBox="0 0 612 186" style="enable-background:new 0 0 612 186;" xml:space="preserve">
<path d="M273,52.7c-0.7-0.5-1.8-0.7-3.2-0.7c-0.4,0-0.7,0-0.9,0c-0.2,0-0.4,0-0.6,0v6.5c0.1,0,0.2,0,0.4,0c0.1,0,0.3,0,0.6,0
	c1.5,0,2.7-0.3,3.6-0.9c0.8-0.6,1.2-1.5,1.2-2.6C274,53.9,273.7,53.2,273,52.7z"></path>
<path d="M559.6,32.4H36.2c-4.4,0-7.9,3.5-7.9,7.9v87.5c0,4.4,3.5,7.9,7.9,7.9h523.3c4.4,0,7.9-3.5,7.9-7.9V40.3
	C567.4,36,563.9,32.4,559.6,32.4z M89.7,78.6H74.9l-3.1-22.2l-3,22.2H53.7l-7.3-34.3h12.1l3.1,21.1l3.2-21.1H79L82.1,66l3.2-21.7
	h11.6L89.7,78.6z M131.5,78.6H105V44.4h26v8.8h-12.9v3.7h12v8.8h-12v4h13.3L131.5,78.6L131.5,78.6z M171.9,107.2
	c0,4.9-1.3,8.5-4,10.8c-2.6,2.3-6.8,3.5-12.3,3.5c-3.2,0-5.9-0.3-8-1s-3.8-1.7-5.2-3.2c-1.1-1.2-1.9-2.4-2.4-3.9
	c-0.5-1.4-0.7-3.5-0.7-6.2V86.3h13.1v21.4c0,1.5,0.3,2.6,0.8,3.4s1.3,1.2,2.3,1.2s1.7-0.4,2.3-1.2c0.5-0.8,0.8-1.9,0.8-3.3V86.3
	h13.2L171.9,107.2L171.9,107.2z M167.8,77.2c-2.9,2.2-7,3.3-12,3.3c-5.1,0-9.1-0.9-11.9-2.7c-2.8-1.8-4.1-4.4-4.1-7.8
	c0-0.3,0-0.6,0-0.8c0-0.2,0-0.3,0-0.5h12.8V69c0,1.2,0.3,2.1,0.8,2.6c0.6,0.6,1.4,0.9,2.6,0.9c1,0,1.8-0.2,2.4-0.7
	c0.6-0.5,0.9-1.1,0.9-1.9c0-0.6-0.1-1.1-0.3-1.5s-0.5-0.7-1-0.9c-0.7-0.3-2.1-0.8-4.2-1.3c-2.1-0.5-3.8-1-5.1-1.4
	c-3-0.9-5.2-2.2-6.6-3.7c-1.4-1.5-2.1-3.4-2.1-5.8c0-3.5,1.4-6.2,4.3-8.1c2.8-1.9,6.8-2.9,12-2.9c4.7,0,8.3,0.8,10.8,2.5
	s3.7,4,3.7,7.1v0.7H159c-0.1-1.1-0.4-1.8-0.9-2.3s-1.3-0.8-2.2-0.8s-1.5,0.2-2.1,0.6c-0.5,0.4-0.8,1-0.8,1.7c0,1.3,1.4,2.3,4.3,2.9
	c1,0.2,1.9,0.4,2.5,0.6c4.8,1.3,8.1,2.7,9.8,4.3s2.6,3.8,2.6,6.5C172.2,72,170.7,75,167.8,77.2z M179.6,44.4H210v9.2h-8.5v25.1H188
	V53.5h-8.5v-9.1H179.6z M217.4,120.6h-16.2l-7.5-21.1v21.1h-10.9V86.3H199l7.5,20.5V86.3h10.9V120.6z M242.1,120.6h-13.5V86.3h13.5
	V120.6z M245.4,78.6H219V44.4h26v8.8h-12.9v3.7h12v8.8h-12v4h13.3L245.4,78.6L245.4,78.6z M282.9,116.9c-3.1,3.1-7.6,4.6-13.5,4.6
	c-5.5,0-9.8-1.6-12.8-4.7s-4.5-7.6-4.5-13.3c0-5.8,1.5-10.3,4.6-13.4s7.5-4.7,13.2-4.7s10,1.6,13.1,4.7s4.6,7.6,4.6,13.4
	C287.5,109.4,286,113.8,282.9,116.9z M274.9,78.5c-0.3-1.1-0.5-2.1-0.7-2.8c-0.2-0.7-0.3-1.4-0.3-2l-0.3-2.5
	c-0.3-2.3-0.8-3.7-1.3-4.3c-0.6-0.6-1.5-0.9-2.8-0.9c-0.3,0-0.6,0-0.7,0c-0.2,0-0.3,0-0.5,0.1v12.3h-13.1v-34H273
	c5.2,0,8.9,0.7,11,2s3.1,3.5,3.1,6.7c0,2.1-0.6,3.7-1.7,5.1c-1.1,1.3-2.9,2.3-5.1,2.9c2.1,0.3,3.6,1,4.5,2.1c0.9,1,1.5,2.9,1.9,5.7
	l0.5,3.7c0.1,0.6,0.2,1.4,0.4,2.3c0.2,0.9,0.4,2.1,0.8,3.7L274.9,78.5L274.9,78.5z M332,120.6h-16.2l-7.5-21.1v21.1h-10.9V86.3h16.2
	l7.5,20.5V86.3H332V120.6z M332,78.4h-16.2l-7.5-20.9v20.9h-10.9v-34h16.2l7.5,20.4V44.4H332V78.4z M359.9,120.6l-16-76.3h4.5
	l16,76.3H359.9z M372.2,120.6l-16-76.3h4.5l16,76.3H372.2z M432,121.1l-6.9-49.7l-6.8,49.7h-33.7l-16.4-76.7h27.1l7,47.3l7.1-47.3
	h31l7.1,48.5l7.2-48.5h26.6l-16.1,76.7C465.2,121.1,432,121.1,432,121.1z M532.7,91.1c0,10.9-2.9,18.9-8.8,24.1
	c-5.9,5.2-15.1,7.8-27.5,7.8c-7.2,0-13.1-0.8-17.8-2.3c-3.8-1.2-7.1-3-9.8-5.4l14.9-70.9h5.7v47.9c0,3.3,0.6,5.8,1.8,7.5
	c1.2,1.7,2.9,2.6,5.2,2.6c2.2,0,3.9-0.9,5.1-2.7c1.2-1.8,1.8-4.2,1.8-7.4V44.4h29.4L532.7,91.1L532.7,91.1z M542.8,51.3
	c-0.2,0.3-0.4,0.5-0.7,0.6s-0.7,0.2-1.2,0.2c-0.8,0-1.4-0.2-1.7-0.5s-0.5-0.8-0.5-1.3l1.4-0.1c0,0.2,0.1,0.4,0.2,0.6
	c0.2,0.2,0.4,0.3,0.7,0.3c0.2,0,0.4-0.1,0.5-0.2c0.1-0.1,0.2-0.2,0.2-0.4c0-0.1-0.1-0.3-0.2-0.4c-0.1-0.1-0.4-0.2-0.8-0.3
	c-0.7-0.2-1.1-0.4-1.4-0.6c-0.3-0.3-0.4-0.6-0.4-1c0-0.3,0.1-0.5,0.2-0.8c0.1-0.2,0.4-0.4,0.7-0.6c0.3-0.1,0.7-0.2,1.2-0.2
	c0.6,0,1.1,0.1,1.4,0.4c0.3,0.2,0.5,0.6,0.6,1.2l-1.4,0.1c0-0.2-0.1-0.4-0.2-0.5c-0.1-0.1-0.3-0.2-0.5-0.2s-0.3,0-0.4,0.1
	c-0.1,0.1-0.1,0.2-0.1,0.3s0,0.2,0.1,0.2c0.1,0.1,0.2,0.1,0.5,0.2c0.7,0.2,1.1,0.3,1.4,0.5c0.3,0.2,0.5,0.3,0.6,0.6
	c0.1,0.2,0.2,0.5,0.2,0.8C543.1,50.8,543,51.1,542.8,51.3z M549.4,52.1h-1.2v-4l-1,4H546l-1-4v4h-1.2v-5.2h2l0.8,3.2l0.8-3.2h2
	L549.4,52.1L549.4,52.1z"></path>
<path d="M269.8,94.5c-1.4,0-2.4,0.6-3,1.9s-0.9,3.7-0.9,7.2c0,3.3,0.3,5.6,0.9,6.9s1.6,2,2.9,2c1.4,0,2.4-0.7,3-2.1s0.9-3.9,0.9-7.4
	c0-3.2-0.3-5.4-0.9-6.7C272.2,95.1,271.2,94.5,269.8,94.5z"></path>
</svg>
