<?xml version="1.0"?>

<svg xmlns="http://www.w3.org/2000/svg" viewBox="0 0 251 146" width="251" height="146">
    <path d="m 122.67,20.62 a 3.33,3.33 0 0 0 -3.33,3.33 3.33,3.33 0 0 0 3.33,3.33 3.33,3.33 0 0 0 3.33,-3.33 3.33,3.33 0 0 0 -3.33,-3.33 z M 112,29.45 a 2.17,2.17 0 0 0 -2.17,2.17 2.17,2.17 0 0 0 2.17,2.17 2.17,2.17 0 0 0 2.17,-2.17 2.17,2.17 0 0 0 -2.17,-2.17 z m 39.17,6.09 -14.67,18.01 V 35.71 h -11 v 40.83 h 11 V 63.41 l 2.33,-3.04 12.17,16.17 h 13.83 l -17.16,-22 16.5,-19 z m 16.33,0 v 7.67 h 7 v 25.5 h -7 v 7.67 h 24.83 v -7.67 h -7 v -25.5 h 7 V 35.54 Z M 65,35.64 57.62,62.27 51.38,35.77 H 40 l 11.25,40.75 h 11.87 l 7.26,-25.88 7.37,25.88 h 12 L 101.12,35.77 H 89.88 l -6.63,26.5 -7.13,-26.63 z m 41,4.25 v 42.04 l -17.78,40.38 h 43.81 L 114.5,82 V 39.87 h -2 v 42.54 l 16.47,37.88 H 91.28 L 108,82.33 V 39.87 Z m 95.82,40.33 c -11.25,0 -18.83,5.08 -18.83,13.08 0,8 5.83,11.84 14.5,12.92 7.38,0.92 9.67,2.16 9.67,4.33 0,1.25 -0.75,4.08 -8.5,4.08 -7.75,0 -13.75,-4.58 -14.17,-5 -0.42,-0.43 -0.75,-0.33 -0.75,-0.33 h -1.08 v 10.17 c 7.75,3.25 16.25,3.25 16.25,3.25 13.17,0 19.42,-6.67 19.42,-13.67 0,-7 -4.66,-11.08 -14.83,-12.5 -10.17,-1.42 -9.42,-4.5 -9.42,-4.5 0,0 0.25,-4.17 8,-4.17 7.75,0 11.83,3.67 12.33,4.17 0.5,0.5 1.17,0.67 1.17,0.67 h 1.25 v -9.58 c 0,0 -3.76,-2.92 -15.01,-2.92 z M 51.75,81 v 41 h 11.12 19 v -8.25 h -19 V 81 Z m 89.69,0.29 V 122 h 20.35 c 0.86,0 2.62,-0.19 5.28,-0.56 2,-0.28 3.49,-0.72 4.48,-1.33 1.59,-0.98 2.85,-2.32 3.77,-4 0.92,-1.68 1.38,-3.58 1.38,-5.69 0,-2.6 -0.65,-4.75 -1.94,-6.46 -1.29,-1.71 -3.31,-2.92 -6.05,-3.62 1.8,-0.67 3.17,-1.57 4.11,-2.72 1.41,-1.72 2.11,-3.78 2.11,-6.19 0,-2.87 -0.99,-5.28 -2.96,-7.22 -1.97,-1.95 -4.79,-2.92 -8.47,-2.92 z m 11.88,8.24 h 5.21 c 1.79,0 3.04,0.33 3.76,1 0.72,0.67 1.08,1.6 1.08,2.78 0,1.28 -0.36,2.25 -1.08,2.93 -0.72,0.67 -2,1.01 -3.84,1.01 h -5.13 z m 0,15.47 h 5.99 c 2.06,0 3.51,0.37 4.33,1.1 0.83,0.73 1.24,1.7 1.24,2.9 0,1.3 -0.42,2.33 -1.25,3.1 -0.83,0.77 -2.26,1.15 -4.29,1.15 h -6.01 v 0 z"></path>
   </svg>