 <svg 
   xmlns="http://www.w3.org/2000/svg"
   
   viewBox="0 0 262 160"
   width="262"
   height="160"
   >  <path
     
     d="M 5.275,5 C 5.072,5 4.94,5.215 5.027,5.398 l 0.584,1.233 c 0.71,1.492 1.6,2.889 2.522,4.219 l 0,0 c 0.913,1.33 1.867,2.59 2.727,3.87 0,0 0,0 0,0 l 0.69,0.98 0,0 c 0.24,0.34 0.5,0.67 0.74,0.99 l 0,0 c 0.5,0.64 1.02,1.28 1.55,1.9 1.06,1.23 2.19,2.41 3.32,3.55 2.27,2.3 4.64,4.42 6.91,6.56 l 3.4,3.27 0,0 c 2.36,2.27 4.74,4.43 7.08,6.38 l 0,0 c 1.23,1.01 2.5,1.98 3.81,2.91 1.29,0.94 2.63,1.82 4.01,2.64 0.42,0.26 0.85,0.49 1.27,0.73 L 42.6,44.49 c -0.22,0 -0.39,0.18 -0.3,0.38 l 0.63,1.48 c 1.23,2.89 3.23,5.35 5.41,7.47 l 0,0 c 2.19,2.11 4.58,3.96 7.06,5.62 2.47,1.65 5.01,3.14 7.58,4.55 2.3,1.27 4.63,2.43 6.96,3.57 -1.93,0 -3.83,0 -5.8,0 0,0 0,0 0,0 l -3.08,0.1 c 0,0 0,0 0,0 l -3.14,0.19 c 0,0 0,0 0,0 -14.8,1.99 -29.83,3.62 -43.28,9.33 l -1.96,0.84 c -0.19,0.1 -0.23,0.33 -0.1,0.47 l 1.55,1.37 0,0 c 0.8,0.7 1.69,1.14 2.53,1.47 8.45,2.78 17.54,1.73 25.99,0.51 1.49,-0.22 2.97,-0.41 4.42,-0.5 1.47,-0.1 3.02,-0.1 4.52,-0.14 0,0 0.11,0 0.16,0 0,0 -0.1,0 -0.1,0 0,0 0,0 0,0 -0.3,0.21 -0.66,0.5 -0.99,1.01 0,0 0,0 0,0 -0.35,0.57 -0.34,0.99 -0.35,1.58 0.8,2.74 4.74,3.76 7.11,3.97 17.21,1.57 33.05,1.21 47.78,-6.99 1.7,-0.94 3.3,-1.89 5,-2.93 0,0 0,0 0,0 0,0 0.1,-0.1 0.1,-0.1 l 0.1,-0.15 c 0.6,-0.1 1.1,-0.18 1.6,-0.3 0.3,-0.1 0.6,-0.14 0.8,-0.25 0.2,-0.12 0.4,-0.28 0.4,-0.51 l 0,0 c 0.3,-0.55 0.3,-1.13 0.3,-1.34 0,0 0.1,-0.12 0.1,-0.19 -0.1,-0.66 -0.2,-1.35 -0.3,-2.01 0,0 0,0 0,0 -0.2,-0.65 -0.4,-1.3 -0.7,-1.93 -0.5,-1.24 -1.2,-2.43 -2,-3.57 l 0,0 c -2.9,-4.57 -6.5,-8.21 -10.4,-12.23 l 0,0 C 94.25,49.02 88.61,44.03 82.05,39.2 l 0,0 C 64.65,25.81 44.37,14.91 23.4,8.613 20.69,7.807 17.95,7.05 15.16,6.441 l 0,0 C 12.37,5.833 9.537,5.365 6.677,5.119 L 5.302,5.002 C 5.293,5.001 5.284,5 5.275,5 Z M 229.6,43.36 c -19.2,0.16 -38.9,4.56 -56.9,10.52 -2.5,0.83 -5.1,1.76 -7.6,2.73 -10.3,4.59 -25,11 -31.4,17.87 l 0,0 c -0.5,0.51 -0.9,1.05 -1.3,1.62 0,0 0,0 0,0 -0.3,0.58 -0.6,1.2 -0.9,1.83 0,0.1 0,0.14 0,0.21 0,0.1 0,0.14 0,0.32 -0.1,0.29 -0.2,0.66 -0.2,1.01 0.1,0.25 0.2,0.46 0.3,0.63 0.2,0.18 0.4,0.32 0.6,0.47 0.5,0.28 1,0.55 1.6,0.83 l 0,0.1 c 0,0.1 0,0.12 0,0.16 1.3,1.52 2.5,2.95 3.8,4.38 1.4,1.44 2.8,2.84 4.3,4.15 0,0 0,0 0,0 6.9,5.23 13.3,9.32 20.7,12.61 1.9,0.8 3.8,1.6 5.8,2.3 5.8,1.6 12.5,3.7 18.5,2.5 0,0 0,0 0,0 0.3,-0.1 0.8,-0.2 1.4,-0.7 l 0,0 c 0.1,-0.1 0.1,-0.1 0.2,-0.3 0,0 0,0 0,0 0.1,0 0.1,0 0.1,-0.1 0,0 0,0 0.1,0 l 0,-0.1 c 0,0 0,0 0,0 l 0.1,-0.1 c 0,0 0,0 0,0 l 0,-0.1 c 0,0 0,0 0,0 l 0.1,-0.1 0,0 c 0,-0.1 0,-0.2 0.1,-0.3 l 0,0 c 0.1,-0.5 0,-0.9 0,-1.2 0,0 0,0 0,0 -0.2,-0.6 -0.4,-1 -0.6,-1.3 l 0,0 c -0.1,0 -0.1,0 -0.1,-0.1 0,0.1 0.1,0.1 0.1,0.1 1.4,0.5 2.9,1 4.3,1.6 1.3,0.5 2.7,1.2 4,1.8 7.2,4.2 14.2,6.6 22.2,7.6 0.9,0.1 1.7,0.2 2.6,0.1 0.9,0 1.9,-0.1 2.9,-0.5 l 0,0 1.9,-0.9 c 0.2,0 0.2,-0.3 0.1,-0.4 l -1.6,-1.4 c -1.7,-1.5 -3.4,-2.8 -5.2,-4.1 -1.7,-1.2 -3.5,-2.4 -5.3,-3.5 -8.1,-5.02 -16.2,-9.81 -24.8,-13.71 0,0 0,0 0,0 l -2.8,-1.24 c 0,0 0,0 0,0 l -3,-1.17 c 0,0 0,0 0,0 l -2.9,-1.04 c 0,0 0,0 0,0 -1.8,-0.64 -3.7,-1.23 -5.5,-1.81 2.6,-0.35 5.1,-0.71 7.7,-1.19 2.9,-0.52 5.8,-1.15 8.6,-1.93 2.9,-0.79 5.8,-1.79 8.5,-3.1 2.7,-1.33 5.4,-3.02 7.5,-5.38 l 1.1,-1.2 c 0.1,-0.17 0,-0.43 -0.2,-0.46 l -1.1,-0.19 c 0.5,-0.1 1,-0.18 1.5,-0.29 l 0,0 c 17,-6.15 29.9,-10.76 42.9,-20.57 1.3,-0.97 2.6,-2.01 3.7,-3.2 l 1,-0.99 c 0.1,-0.15 0.1,-0.41 -0.1,-0.46 l -1.4,-0.33 0,0 c -2.8,-0.67 -5.6,-1.12 -8.5,-1.42 -5.7,-0.57 -11.4,-0.68 -16.9,-0.55 l 0,0 z m -128.9,0.72 c -0.1,0 -0.2,0.11 -0.2,0.25 0,0 0,0.11 -0.1,0.3 0,0.19 0,0.5 0,0.89 0,0.78 0.2,1.9 0.6,3.25 0.5,1.35 1.2,2.91 2.1,4.57 3.2,5.25 7.3,9.65 11.4,14.04 0.9,1.02 1.9,2.07 2.8,3.13 1.1,1.17 2.2,2.37 3.3,3.58 -2.9,1.5 -5.7,3.02 -8.6,4.53 0,0 0,0 0,0 -2.7,1.42 -5.3,2.82 -8,4.18 -0.9,0.47 -6.12,3.18 -7.69,3.99 -4.61,2.39 -9.1,4.64 -13.6,6.92 -3.97,1.98 -7.3,3.57 -9.63,4.69 -1.18,0.54 -2.09,0.97 -2.72,1.27 -0.62,0.3 -0.96,0.43 -0.96,0.43 -0.31,0.2 -0.12,0.7 0.21,0.5 0,0 0.36,-0.1 1.02,-0.3 l 0,0 c 0.66,-0.2 1.64,-0.5 2.87,-0.91 1.24,-0.42 2.72,-0.99 4.41,-1.61 l 0,0 c 1.7,-0.63 3.59,-1.42 5.67,-2.25 0,0 0,0 0,0 2.06,-0.89 4.29,-1.83 6.63,-2.9 2.35,-1.07 4.81,-2.23 7.34,-3.44 0,0 0,0 0,0 0.96,-0.47 1.94,-0.96 2.95,-1.45 0,0.49 0.1,0.99 0.2,1.47 l 0,0 c 0.3,1.52 1,2.95 1.7,4.27 0.7,1.34 1.6,2.57 2.4,3.79 0.7,1.21 1.1,2.6 1.2,4.03 0.3,13.3 -1,21.9 -0.5,35.2 0.1,2.9 0.4,5.9 0.9,8.9 0.2,1.4 0.5,2.9 1,4.4 l 0,0 c 0.5,1.4 1.1,2.8 2.2,4.1 l 0.1,0 c 0,0.1 0,0.1 0.1,0.1 l 0.1,0 c 0,0 0,0 0,0 l 0,0 0.1,0.1 c 0.1,0 0.2,0 0.2,0 l 0.1,-0.1 c 0,0 0,0 0,0 1.5,-0.6 2.6,-1.8 3.5,-3 l 0,0 c 1,-1.2 1.8,-2.4 2.5,-3.8 1.4,-2.6 2.5,-5.3 3.6,-8.1 4.1,-11 7.4,-24.3 10.5,-33.6 0.7,-1.2 1.5,-2.3 2.6,-3.1 l 0,0 c 1.1,-0.8 2.3,-1.5 3.5,-2.4 1.2,-0.82 2.3,-1.76 3.2,-2.95 0.4,-0.45 0.7,-0.95 0.9,-1.48 0.4,0.34 0.7,0.69 1,1.02 0,0 0,0 0,0 2,1.98 4,3.91 5.9,5.61 1.8,1.8 3.6,3.4 5.3,4.9 0,0 0,0.1 0,0.1 1.7,1.4 3.2,2.8 4.6,3.9 l 0,0 c 1.4,1.2 2.6,2.2 3.6,3 1.1,0.8 1.9,1.4 2.5,1.8 0.5,0.4 0.8,0.7 0.8,0.7 0.3,0.2 0.7,-0.2 0.4,-0.5 0,0 -0.3,-0.2 -0.8,-0.7 l 0,0 c -0.5,-0.5 -1.2,-1.2 -2.1,-2.1 -7.9,-7.8 -16.8,-17.11 -24.2,-24.86 l 0,0 c -2,-2.15 -4.1,-4.35 -6.1,-6.56 l 0,0 c -2.2,-2.35 -4.4,-4.72 -6.6,-7.05 1.4,-0.78 2.8,-1.56 4.2,-2.32 l 0,0 c 1.3,-0.69 2.5,-1.36 3.7,-2.02 l 0,0 c 5.3,-2.84 10.8,-5.77 15.3,-9.56 1.5,-1.25 2.7,-2.49 3.5,-3.62 l 0,0 c 0.9,-1.13 1.4,-2.15 1.6,-2.88 l 0,0 c 0.2,-0.36 0.3,-0.65 0.3,-0.85 l 0,0 c 0.1,-0.18 0.1,-0.28 0.1,-0.28 0.1,-0.33 -0.4,-0.48 -0.5,-0.16 L 153,53.4 c -0.1,0.19 -0.2,0.45 -0.3,0.76 0,0 -0.1,0 -0.1,0 -0.2,0.65 -0.8,1.57 -1.7,2.58 -0.8,1.01 -2,2.12 -3.5,3.22 -5,3.75 -10.5,5.66 -15.8,8.33 -1.2,0.64 -2.5,1.29 -3.7,1.95 l 0,0 c -1.6,0.83 -3.3,1.69 -4.9,2.55 -1.3,-1.36 -2.5,-2.71 -3.8,-4.02 l 0,0 c -1,-1.04 -2,-2.07 -2.9,-3.08 -4.2,-4.2 -8.8,-8.14 -12.1,-13.01 -1.1,-1.54 -1.9,-2.98 -2.4,-4.22 -0.5,-1.24 -0.7,-2.29 -0.7,-3 l 0,0 C 101,45.12 101,44.84 101,44.65 c 0,-0.19 0,-0.3 0,-0.3 0,-0.15 -0.1,-0.28 -0.3,-0.27 z" /></svg>