 <svg 
   xmlns="http://www.w3.org/2000/svg"
  
   height="157"
   width="523"
   viewBox="0 0 523 157">
   
 
  <path 
     d="m 267.7,3.9 c -0.2,0 -0.4,0.215 -0.3,0.398 l 0.6,1.233 c 0.7,1.492 1.6,2.889 2.5,4.219 0.9,1.33 1.9,2.59 2.8,3.87 l 0.7,0.98 c 0.2,0.34 0.5,0.67 0.7,0.99 0.5,0.64 1,1.28 1.5,1.9 1.1,1.23 2.2,2.41 3.4,3.55 2.2,2.3 4.6,4.42 6.9,6.56 l 3.4,3.27 c 2.3,2.27 4.7,4.43 7.1,6.38 1.2,1.01 2.5,1.98 3.8,2.91 1.3,0.94 2.6,1.82 4,2.64 0.4,0.26 0.8,0.49 1.2,0.73 l -1,-0.14 c -0.2,0 -0.4,0.18 -0.3,0.38 l 0.6,1.48 c 1.3,2.89 3.3,5.35 5.4,7.47 2.2,2.11 4.6,3.96 7.1,5.62 2.5,1.65 5,3.14 7.6,4.55 2.3,1.27 4.6,2.43 6.9,3.57 l -5.8,0 -3,0.1 -3.2,0.19 c -3.8,0.51 -7.6,1 -11.4,1.55 l 1.8,-7.43 -14.7,0 -2.6,10.12 c -5.6,1.25 -11.1,2.86 -16.4,5.09 l -0.2,0.1 -3.8,-15.3 -14.7,0 13.7,55.72 10.1,0 -5.7,23.3 14.8,0 14.6,-59.25 c 1.2,-0.17 2.5,-0.33 3.7,-0.4 1.4,-0.1 3,-0.1 4.5,-0.14 l 0.1,0 c -0.3,0.21 -0.7,0.5 -1,1.01 -0.3,0.57 -0.3,0.99 -0.3,1.58 0.8,2.74 4.7,3.76 7.1,3.97 17.2,1.57 33,1.21 47.7,-6.99 1.7,-0.94 3.3,-1.89 5,-2.93 l 0.1,-0.1 0.1,-0.15 c 0.6,-0.1 1.1,-0.18 1.6,-0.3 0.3,-0.1 0.6,-0.14 0.8,-0.25 0.2,-0.12 0.4,-0.28 0.4,-0.51 0.3,-0.55 0.3,-1.13 0.3,-1.34 0,0 0.1,-0.12 0.1,-0.19 -0.1,-0.66 -0.2,-1.35 -0.3,-2.01 -0.2,-0.65 -0.4,-1.3 -0.7,-1.93 -0.5,-1.24 -1.2,-2.43 -2,-3.57 -2.9,-4.58 -6.5,-8.22 -10.4,-12.24 C 356.7,47.92 351,42.93 344.5,38.1 327.1,24.71 306.8,13.81 285.8,7.513 283.1,6.707 280.4,5.95 277.6,5.341 274.8,4.733 271.9,4.265 269.1,4.019 l -1.4,-0.117 c 0,-0 0,0 0,0 z m -149.4,31.15 0,81.55 3.9,0 0,-81.55 -3.9,0 z M 4,38.45 l 16.7,78.15 10.7,0 16.3,-71.79 16.9,71.79 10.7,0 16,-78.15 -3.8,0 -15.4,74.35 -4.3,0 -17.9,-73.24 -4.4,0 -17.3,73.24 -4.3,0 -16,-74.35 -3.9,0 z m 96.1,0 0,6.09 3.9,0 0,-6.09 -3.9,0 z m 71.2,0 0,22.64 c -2.8,-0.43 -9.5,-1.33 -14.7,-1.33 -18.3,0 -23.5,10.5 -23.5,29.69 0,27.15 12,28.15 18.9,28.15 10.2,0 19.3,-5.7 19.3,-5.7 l 0,4.7 3.9,0 0,-78.15 -3.9,0 z m 70,0 0,78.15 15,0 0,-78.15 -15,0 z m -53.3,1.11 0,77.04 15.2,0 0,-25.45 27,0 0,-14.63 -27,0 0,-22.22 33.7,0 0,-14.74 -48.9,0 z m 308.2,2.66 c -1.4,0 -2.8,0 -4.2,0 l 0,0 c -19.2,0.16 -38.9,4.56 -56.9,10.52 -2.5,0.83 -5.1,1.76 -7.6,2.73 -10.3,4.59 -25,11 -31.4,17.87 -0.5,0.51 -0.9,1.05 -1.3,1.62 -0.3,0.58 -0.6,1.2 -0.9,1.83 l 0,0.21 0,0.32 c -0.1,0.29 -0.2,0.66 -0.2,1.01 0.1,0.25 0.2,0.46 0.3,0.63 0.2,0.18 0.4,0.32 0.6,0.47 0.5,0.28 1,0.55 1.6,0.83 l 0,0.1 0,0.16 c 1.3,1.52 2.5,2.95 3.8,4.38 1.4,1.44 2.8,2.84 4.3,4.15 6.9,5.23 13.3,9.32 20.7,12.65 1.9,0.8 3.8,1.6 5.8,2.3 5.8,1.6 12.5,3.7 18.5,2.5 0.3,-0.1 0.8,-0.2 1.4,-0.7 0.1,-0.1 0.1,-0.1 0.2,-0.3 0.1,0 0.1,0 0.1,-0.1 l 0.1,0 0,-0.1 0.1,-0.1 0,-0.1 0.1,-0.1 c 0,-0.1 0,-0.2 0.1,-0.3 0.1,-0.5 0,-0.9 0,-1.2 -0.2,-0.6 -0.4,-1 -0.6,-1.3 -0.1,0 -0.1,0 -0.1,-0.1 0,0.1 0.1,0.1 0.1,0.1 1.4,0.5 2.9,1 4.3,1.6 1.3,0.5 2.7,1.2 4,1.8 7.2,4.2 14.2,6.6 22.2,7.6 0.9,0.1 1.7,0.2 2.6,0.1 0.9,0 1.9,-0.1 2.9,-0.5 l 1.9,-0.9 c 0.2,0 0.2,-0.3 0.1,-0.4 l -1.6,-1.4 c -1.7,-1.5 -3.4,-2.8 -5.2,-4.1 -1.7,-1.2 -3.5,-2.4 -5.3,-3.5 -8.1,-5.06 -16.2,-9.85 -24.8,-13.75 l -2.8,-1.24 -3,-1.17 -2.9,-1.04 c -1.8,-0.64 -3.7,-1.23 -5.5,-1.81 2.6,-0.35 5.1,-0.71 7.7,-1.19 2.9,-0.52 5.8,-1.15 8.6,-1.93 2.9,-0.79 5.8,-1.79 8.5,-3.1 2.7,-1.33 5.4,-3.02 7.5,-5.38 l 1.1,-1.2 c 0.1,-0.17 0,-0.43 -0.2,-0.46 l -1.1,-0.19 c 0.5,-0.1 1,-0.18 1.5,-0.29 17,-6.15 29.9,-10.76 42.9,-20.57 1.3,-0.97 2.6,-2.01 3.7,-3.2 l 1,-0.99 c 0.1,-0.15 0.1,-0.41 -0.1,-0.46 l -1.4,-0.29 c -2.8,-0.67 -5.6,-1.12 -8.5,-1.42 -4.3,-0.43 -8.5,-0.6 -12.7,-0.6 z m -133.1,0.76 c -0.1,0 -0.2,0.11 -0.2,0.25 0,0 0,0.11 -0.1,0.3 l 0,0.89 c 0,0.78 0.2,1.9 0.6,3.25 0.5,1.35 1.2,2.91 2.1,4.57 3.2,5.25 7.3,9.65 11.4,14.04 0.9,1.02 1.9,2.07 2.8,3.13 1.1,1.17 2.2,2.37 3.3,3.58 -2.9,1.5 -5.7,3.02 -8.6,4.53 -2.7,1.42 -5.3,2.82 -8,4.18 -0.9,0.47 -6.1,3.18 -7.7,3.99 -4.6,2.39 -9.1,4.64 -13.6,6.92 -4,1.98 -7.3,3.57 -9.6,4.69 -1.2,0.54 -2.1,0.97 -2.7,1.27 -0.7,0.3 -1,0.43 -1,0.43 -0.3,0.2 -0.1,0.7 0.2,0.5 0,0 0.4,-0.1 1,-0.3 0.7,-0.2 1.7,-0.5 2.9,-0.91 1.2,-0.42 2.7,-0.99 4.4,-1.61 1.7,-0.63 3.6,-1.42 5.7,-2.25 2,-0.89 4.3,-1.83 6.6,-2.9 2.4,-1.07 4.8,-2.23 7.4,-3.44 0.9,-0.47 1.9,-0.96 2.9,-1.45 0,0.49 0.1,0.99 0.2,1.47 0.3,1.52 1,2.95 1.7,4.27 0.7,1.34 1.6,2.57 2.4,3.79 0.7,1.21 1.1,2.6 1.2,4.03 0.3,13.3 -1,21.9 -0.5,35.2 0.1,2.9 0.4,5.9 0.9,8.9 0.2,1.4 0.5,2.9 1,4.4 0.5,1.4 1.1,2.8 2.2,4.1 l 0.1,0 c 0,0.1 0,0.1 0.1,0.1 l 0.1,0 0.1,0.1 0.2,0 0.1,-0.1 c 1.5,-0.6 2.6,-1.8 3.5,-3 1,-1.2 1.8,-2.4 2.5,-3.8 1.4,-2.6 2.5,-5.3 3.6,-8.1 4.1,-11 7.4,-24.3 10.5,-33.6 0.7,-1.2 1.5,-2.3 2.6,-3.1 1.1,-0.8 2.3,-1.5 3.5,-2.4 1.2,-0.82 2.3,-1.76 3.2,-2.95 0.4,-0.45 0.7,-0.95 0.9,-1.48 0.4,0.34 0.7,0.69 1,1.02 2,1.98 4,3.91 5.9,5.61 1.8,1.8 3.6,3.4 5.3,4.9 l 0,0.1 c 1.7,1.4 3.2,2.8 4.6,3.9 1.4,1.2 2.6,2.2 3.6,3 1.1,0.8 1.9,1.4 2.5,1.8 0.5,0.4 0.8,0.7 0.8,0.7 0.3,0.2 0.7,-0.2 0.4,-0.5 0,0 -0.3,-0.2 -0.8,-0.7 l -2.1,-2.1 c -7.9,-7.8 -16.8,-17.11 -24.2,-24.86 -2,-2.15 -4.1,-4.35 -6.1,-6.56 -2.2,-2.35 -4.4,-4.72 -6.6,-7.05 1.4,-0.78 2.8,-1.56 4.2,-2.32 1.3,-0.69 2.5,-1.36 3.7,-2.02 5.3,-2.84 10.8,-5.77 15.3,-9.56 1.5,-1.25 2.7,-2.49 3.5,-3.62 0.9,-1.13 1.4,-2.15 1.6,-2.88 0.2,-0.36 0.3,-0.65 0.3,-0.85 0.1,-0.18 0.1,-0.28 0.1,-0.28 0.1,-0.33 -0.4,-0.48 -0.5,-0.16 l -0.1,0.26 c -0.1,0.19 -0.2,0.45 -0.3,0.76 l -0.1,0 c -0.2,0.65 -0.8,1.57 -1.7,2.58 -0.8,1.01 -2,2.12 -3.5,3.22 -5,3.75 -10.5,5.66 -15.8,8.33 -1.2,0.64 -2.5,1.29 -3.7,1.95 -1.6,0.83 -3.3,1.69 -4.9,2.55 -1.3,-1.36 -2.5,-2.71 -3.8,-4.02 -1,-1.04 -2,-2.07 -2.9,-3.08 -4.2,-4.2 -8.8,-8.14 -12.1,-13.01 -1.1,-1.54 -1.9,-2.98 -2.4,-4.22 -0.5,-1.24 -0.7,-2.29 -0.7,-3 -0.1,-0.34 -0.1,-0.62 -0.1,-0.81 l 0,-0.3 c 0,-0.15 -0.1,-0.28 -0.3,-0.27 z m -263,17.79 0,55.83 3.9,0 0,-55.83 -3.9,0 z m 56.5,2.54 c 4.4,0 11.8,1.01 14.7,1.38 l 0,43.51 c 0,0 -9.7,5.9 -19.3,5.9 -6.3,0 -14.9,-2.1 -14.9,-24.28 0,-17.02 3.6,-26.51 19.5,-26.51 z m 121.1,16.26 c 0.4,0.27 0.9,0.48 1.4,0.66 3.8,1.25 7.7,1.72 11.6,1.76 l -4.9,20.01 -2.6,0 -5.5,-22.43 z" />
</svg>
