<?xml version="1.0"?>

<svg xmlns="http://www.w3.org/2000/svg" viewBox="0 0 437.6 152.6" height="152.6" width="437.6">
  <path d="m 225.7,22 c -21.8,0.34 -34.2,13.17 -40.7,25.63 -5.7,10.88 -6.9,20.26 -7.2,22.82 H 22.6 v 4.3 h 157 a 2.149,2.149 0 0 0 2.1,-1.97 c 0,0 1.1,-11.57 7.1,-23.16 5.6,-10.82 15.4,-21.34 33.1,-22.99 -10.9,21.74 1.1,46.94 1.1,46.94 a 2.149,2.149 0 0 0 1.9,1.24 h 190.7 v -4.3 H 226.4 C 225,67.23 215.7,43.92 227.5,25.3 A 2.149,2.149 0 0 0 225.7,22 Z M 33.52,129.7 22,81.41 h 5.89 l 6.61,31.69 c 0.71,3.3 1.33,6.6 1.84,9.9 1.1,-5.2 1.75,-8.1 1.95,-8.9 l 8.27,-32.69 h 6.93 l 6.21,24.49 c 1.57,6.1 2.7,11.8 3.39,17.1 0.55,-3.1 1.27,-6.6 2.16,-10.5 l 6.81,-31.09 h 5.78 L 65.93,129.7 H 60.39 L 51.24,92.92 c -0.78,-3.08 -1.23,-4.97 -1.36,-5.67 -0.46,2.22 -0.89,4.11 -1.28,5.67 l -9.21,36.78 z m 50.62,0 V 81.41 h 5.76 v 48.29 z m 15.96,0 V 81.41 h 19.2 c 3.9,0 6.9,0.44 9,1.31 1.9,0.87 3.6,2.4 4.8,4.6 1.1,2.2 1.8,4.62 1.8,7.28 0,3.43 -1.1,6.3 -3,8.7 -2,2.3 -5.1,3.8 -9.2,4.5 1.5,0.8 2.6,1.6 3.4,2.4 1.7,1.7 3.3,3.8 4.7,6.4 l 7.6,13.1 h -7.2 l -5.8,-10 c -1.6,-2.9 -3,-5.1 -4.2,-6.7 -1,-1.5 -2,-2.6 -2.9,-3.2 -0.8,-0.6 -1.8,-1 -2.6,-1.3 -0.7,-0.1 -1.7,-0.2 -3.2,-0.2 h -6.7 v 21.4 z m 5.7,-26.9 h 12.4 c 2.7,0 4.7,-0.3 6.2,-1 1.5,-0.6 2.6,-1.5 3.4,-2.86 0.7,-1.33 1.1,-2.78 1.1,-4.34 0,-2.28 -0.7,-4.16 -2.2,-5.63 -1.5,-1.48 -3.9,-2.21 -7.1,-2.21 H 105.8 Z M 144,129.7 V 81.41 h 31.4 v 5.71 h -25.6 v 14.78 h 23.9 v 5.7 H 149.8 V 124 h 26.6 v 5.7 z m 37.9,-15.7 8.5,-0.9 c 0.6,3.2 1.6,5.5 3.2,7 1.6,1.5 3.7,2.3 6.3,2.3 2.9,0 4.9,-0.7 6.5,-2 1.4,-1.4 2,-2.9 2,-4.7 0,-1.1 -0.2,-2.1 -0.8,-2.9 -0.7,-0.8 -1.7,-1.5 -3.2,-2.1 -1,-0.4 -3.4,-1.1 -7,-2.1 -4.7,-1.3 -8,-2.9 -9.9,-4.8 -2.7,-2.7 -4,-5.9 -4,-9.73 0,-2.45 0.6,-4.75 1.9,-6.9 1.2,-2.14 3,-3.77 5.4,-4.89 2.4,-1.13 5.2,-1.69 8.5,-1.69 5.4,0 9.6,1.33 12.4,3.99 2.7,2.66 4.1,6.21 4.3,10.65 l -8.8,0.43 c -0.4,-2.48 -1.1,-4.27 -2.4,-5.35 -1.2,-1.1 -3.1,-1.64 -5.6,-1.64 -2.5,0 -4.5,0.58 -5.9,1.74 -1,0.75 -1.4,1.75 -1.4,3.01 0,1.14 0.4,2.12 1.3,2.93 1.1,1.04 3.8,2.11 8,3.23 4.3,1.12 7.4,2.32 9.5,3.52 2,1.2 3.6,2.8 4.8,4.9 1.2,2.1 1.8,4.6 1.8,7.7 0,2.7 -0.8,5.3 -2.1,7.8 -1.4,2.4 -3.3,4.1 -5.9,5.3 -2.6,1.3 -5.7,1.8 -9.5,1.8 -5.5,0 -9.7,-1.4 -12.6,-4.2 -2.9,-2.8 -4.7,-7 -5.3,-12.4 z m 42.8,15.7 V 81.41 h 8.8 v 18.99 h 17.1 V 81.41 h 8.8 v 48.29 h -8.8 v -21.1 h -17.1 v 21.1 z m 83,0 h -9.6 l -3.8,-10.9 H 277 l -3.6,10.9 h -9.3 L 281,81.41 h 9.2 z m -16.2,-19.1 -6,-17.91 -5.9,17.91 z m 20.8,19.1 V 81.41 h 18.5 c 4.7,0 8.1,0.44 10.2,1.31 2,0.87 3.8,2.41 5,4.63 1.2,2.22 1.9,4.76 1.9,7.62 0,3.62 -1,6.63 -2.9,9.03 -1.9,2.3 -4.8,3.8 -8.6,4.4 1.9,1.3 3.5,2.6 4.7,4.1 1.3,1.5 2.9,4.1 5,7.8 l 5.3,9.4 H 341 l -6.4,-10.5 c -2.3,-3.7 -3.8,-6.1 -4.6,-7.1 -0.9,-0.9 -1.7,-1.6 -2.7,-2 -0.9,-0.3 -2.4,-0.5 -4.4,-0.5 h -1.8 v 20.1 z m 8.8,-27.8 h 6.5 c 4.3,0 6.8,-0.2 7.9,-0.6 1.1,-0.4 1.9,-1.1 2.4,-2.08 0.7,-0.97 1,-2.17 1,-3.63 0,-1.62 -0.4,-2.94 -1.3,-3.93 -0.7,-1 -1.8,-1.64 -3.2,-1.9 -0.7,-0.11 -2.8,-0.17 -6.4,-0.17 h -6.9 z m 35.2,27.8 V 81.41 h 8.7 v 21.49 l 17.8,-21.49 h 11.8 l -16.4,18.89 17.3,29.4 h -11.4 l -12,-22.6 -7.1,8 v 14.6 z"></path>
</svg>
