<?xml version="1.0"?>
<!--?xml version="1.0" encoding="UTF-8" standalone="no"?-->
<svg xmlns:dc="http://purl.org/dc/elements/1.1/" xmlns:cc="http://creativecommons.org/ns#" xmlns:rdf="http://www.w3.org/1999/02/22-rdf-syntax-ns#" xmlns:svg="http://www.w3.org/2000/svg" xmlns="http://www.w3.org/2000/svg" xml:space="preserve" enable-background="new 0 0 300 280" viewBox="0 0 322.12 297.74" height="297.74" width="322.12" y="0px" x="0px" id="Layer_1" version="1.1"><defs id="defs221"></defs><path d="m 187,12 c -5.89,0 -12.3,1.473 -18.91,5.014 -11.89,6.36 -14.93,17.842 -14.53,25.34 0.55,10.311 8.42,17.876 8.42,17.876 0,0 1.46,-12.298 15.49,-20.58 19.07,-11.266 39.77,-1.853 39.77,-1.853 C 219.38,27.112 205.86,12 187,12 Z m -71,39.197 c -20.52,0 -49.119,14.358 -49.119,51.823 0,2.18 0.102,4.38 0.307,6.61 0.865,3.2 5.047,25.55 25.67,37.87 0.896,0.53 1.825,1.05 2.785,1.54 -0.961,-0.49 -1.888,-1.01 -2.785,-1.54 -20.639,-12.32 -24.827,-34.68 -25.692,-37.88 3.039,33.4 28.756,72.69 66.524,72.69 10.37,0 20.06,-2.95 28.62,-7.87 21.89,-12.6 36.45,-38.14 36.45,-60.55 0,-21.608 -12.27,-40.937 -37.48,-40.937 -22.8,0 -33.65,16.77 -36.56,32.187 v 0 c 3.31,-15.98 17.31,-19.53 22.48,-19.53 2.02,0 4.98,0.423 8.14,1.653 -3.15,-1.221 -6.1,-1.641 -8.11,-1.641 -5.17,0 -19.16,3.546 -22.47,19.518 v -0 0.1 c -0.12,0.65 -0.23,1.28 -0.32,1.92 -0.34,2.66 -0.52,5.6 -0.52,8.83 0,12.8 5.45,24.3 9.71,31.3 -14.4,-3.8 -32.49,-15.84 -32.49,-42.96 0,-27.402 23.03,-40.632 41.79,-42.533 0,0 -8.75,-10.545 -26.92,-10.545 z m 46.31,123.243 c -0.42,0.24 -0.85,0.49 -1.28,0.72 8.24,4.49 17.48,7.15 27.33,7.15 37.77,0 63.49,-39.28 66.53,-72.68 0.21,-2.23 0.3,-4.43 0.3,-6.61 0,-37.465 -28.6,-51.823 -49.12,-51.823 -18.18,0 -26.92,10.545 -26.92,10.545 18.76,1.901 41.79,15.131 41.79,42.538 0,26.61 -17.44,38.71 -31.69,42.74 -1.41,2.43 -2.94,4.8 -4.61,7.09 -5.96,8.16 -13.55,15.29 -22.33,20.33 z m -1.18,-83.987 c 5.45,4.077 10.15,10.957 10.15,21.927 0,9.38 -3.64,18.95 -10.1,26.71 -1.77,-2.23 -9.77,-13.08 -9.77,-27.62 0,-13.633 7.3,-19.458 9.72,-21.017 z m -27.11,56.887 c 0.69,0.18 1.37,0.34 2.04,0.48 -0.67,-0.14 -1.35,-0.3 -2.04,-0.48 z m 2.98,0.65 c 0.45,0.1 0.89,0.16 1.32,0.23 -0.43,-0.1 -0.87,-0.15 -1.32,-0.23 z m 2.3,0.37 c 0.56,0.1 1.11,0.13 1.65,0.17 -0.54,0 -1.09,-0.1 -1.65,-0.17 z m 2.68,0.24 c 0.32,0 0.63,0 0.94,0 -0.31,0 -0.62,0 -0.94,0 z m -35.74,127.82 c -2.45,0 -3.11,0.57 -3.34,1.43 -0.1,0.33 -0.1,0.6 0.1,0.8 0.23,0.31 0.76,0.47 1.49,0.47 1.26,0 2.08,-0.58 2.41,-1.77 l 0.21,-0.93 z m -2.79,5.68 c -1.75,0 -3.11,-0.54 -3.841,-1.52 -0.558,-0.75 -0.7,-1.69 -0.414,-2.74 0.507,-1.86 2.255,-4.09 7.665,-4.09 h 0.95 c 0.2,-0.72 0.19,-1.22 -0,-1.52 -0.26,-0.34 -0.86,-0.51 -1.88,-0.51 -2.67,0 -3.93,1.05 -4.2,1.23 -0.26,0.18 -0.61,0.5 -0.61,0.5 0,0 0,-0.69 0.29,-1.56 0.46,-1.6 2.38,-3.23 5.71,-3.23 1.79,0 3.05,0.48 3.77,1.45 0.75,1 0.86,2.5 0.32,4.46 l -0.7,2.56 c -0.99,3.85 -3.03,4.97 -6.38,4.97 m -25.499,-5.68 c -2.453,0 -3.112,0.57 -3.347,1.43 -0.09,0.33 -0.06,0.6 0.09,0.8 0.231,0.31 0.759,0.47 1.49,0.47 1.267,0 2.087,-0.58 2.412,-1.77 l 0.212,-0.93 z m -2.795,5.68 c -1.746,0 -3.11,-0.54 -3.839,-1.52 -0.558,-0.75 -0.702,-1.69 -0.416,-2.74 0.511,-1.86 2.254,-4.09 7.663,-4.09 h 0.955 c 0.198,-0.72 0.185,-1.22 -0.04,-1.52 -0.26,-0.34 -0.859,-0.51 -1.883,-0.51 -2.672,0 -3.928,1.05 -4.193,1.23 -0.265,0.18 -0.61,0.5 -0.61,0.5 0,0 0.03,-0.69 0.286,-1.56 0.457,-1.6 2.379,-3.23 5.712,-3.23 1.781,0 3.048,0.48 3.765,1.45 0.752,1 0.859,2.5 0.324,4.46 l -0.698,2.56 c -0.991,3.85 -3.034,4.97 -6.385,4.97 m -55.698,-7.69 c 0.955,-1.92 2.296,-4.11 3.524,-5.75 0.411,1.49 0.79,3.72 0.846,5.75 z m 6.196,-9.92 h -3.311 l -0.09,0.1 c -5.635,5 -10.479,17.08 -10.479,17.08 h 4.484 c 0.469,-1.52 0.927,-2.64 1.512,-3.88 h 6.21 c 0.05,2.07 -0.415,3.88 -0.415,3.88 h 4.371 c 0.655,-10.74 -2.282,-17.18 -2.282,-17.18 m 90.075,2.61 c 0.33,-1.03 0.2,-2.48 -1.47,-2.66 -1.09,-0.12 -1.97,0.62 -2.18,1.54 -0.16,0.7 0.21,1.07 0.44,1.36 0.1,0.14 0.12,0.35 0.1,0.64 -0.22,0.97 -1.42,2.37 -1.42,2.37 0,0 3.49,0.11 4.57,-3.25 m -76.732,2.1 -1.857,6.86 c -0.305,1.16 -0.969,2.54 -2.388,2.54 -0.514,0 -0.883,-0.15 -1.093,-0.45 -0.289,-0.4 -0.312,-1.14 -0.07,-2.07 l 1.857,-6.88 h -3.739 l -1.892,6.93 c -0.455,1.73 -0.294,3.21 0.468,4.27 0.745,1.04 2.034,1.61 3.628,1.61 3.573,0 5.905,-1.97 6.931,-5.85 l 1.883,-6.97 m 52.061,-1.26 c 1.15,0 2.299,-0.93 2.563,-2.08 0.133,-0.58 0.02,-1.13 -0.312,-1.55 -0.326,-0.41 -0.841,-0.64 -1.412,-0.64 -1.137,0 -2.272,0.92 -2.533,2.05 -0.136,0.58 -0.02,1.16 0.315,1.59 0.326,0.4 0.816,0.63 1.379,0.63 m -23.684,4.13 c 0,0 -0.586,-0.43 -1.409,-0.43 -1.408,0 -2.179,0.61 -2.716,2.95 -0.537,2.34 -1.676,7.2 -1.676,7.2 h -4.038 c 0,0 1.737,-7.22 2.051,-8.53 0.269,-1.12 1.675,-4.67 5.48,-4.67 3.831,0 2.308,3.48 2.308,3.48 m 73.767,0 c 0,0 -0.59,-0.43 -1.41,-0.43 -1.41,0 -2.18,0.61 -2.72,2.95 -0.54,2.34 -1.67,7.2 -1.67,7.2 h -4.04 c 0,0 1.74,-7.22 2.05,-8.53 0.27,-1.12 1.68,-4.67 5.48,-4.67 3.83,0 2.31,3.48 2.31,3.48 m 49.42,-4.4 c 0,0 -0.63,-0.4 -1.59,-0.4 -1.82,0 -2.45,1.5 -2.61,2.28 0,0.16 -0.17,0.8 -0.17,0.8 h 2.69 c 0,0 0,0.16 -0.1,0.45 -0.16,0.66 -0.55,2.56 -2.47,2.56 h -0.82 l -1.97,8.44 h -4.04 c 0,0 1.86,-7.7 2.33,-9.65 0.47,-1.96 1.59,-7.8 6.58,-7.8 3.01,0 2.17,3.32 2.17,3.32 m -55.55,0 c 0,0 -0.63,-0.4 -1.59,-0.4 -1.82,0 -2.45,1.5 -2.61,2.28 0,0.16 -0.17,0.8 -0.17,0.8 h 2.69 c 0,0 0,0.16 -0.1,0.45 -0.16,0.66 -0.55,2.56 -2.47,2.56 h -0.82 l -1.97,8.44 h -4.04 c 0,0 1.86,-7.7 2.33,-9.65 0.47,-1.96 1.59,-7.8 6.58,-7.8 3.01,0 2.17,3.32 2.17,3.32 m 27.49,4.97 c 0,0 1.77,-4.03 -3,-4.03 -4.42,0 -6.48,3.23 -6.48,5.11 0,1.88 1.94,2.61 3.36,2.99 1.24,0.33 1.59,0.53 1.49,1.1 -0.16,0.82 -1.19,1.04 -2.61,1.04 -1.72,0 -3.2,-1.15 -3.2,-1.15 0,0 -1.82,4.46 3.24,4.46 4.86,0 6.5,-3.53 6.5,-5.36 0,-1.83 -1.43,-2.57 -2.84,-3 -0.83,-0.25 -2.06,-0.46 -2.06,-1.07 0,-0.6 0.97,-1.09 2.32,-1.09 2.16,0 3.28,1 3.28,1 m 136.9,0.31 c 0,0.4 -0.27,1.3 -2.49,1.3 -0.98,0 -1.66,-0.15 -1.66,-0.15 0,0 0.59,-2.25 2.69,-2.25 1.24,0 1.49,0.73 1.46,1.1 m -0.63,-4.3 c -4.26,0 -8,4.27 -8,8.71 0,1.24 0.74,4.8 4.93,4.8 4.2,0 5.22,-2.72 5.48,-4.11 0,0 -1.22,0.91 -4.17,0.91 -2.95,0 -2.31,-2.19 -2.31,-2.19 0,0 1.13,0.23 2.44,0.23 1.32,0 5.8,-0.16 5.98,-4.46 0.1,-1.32 -0.42,-3.89 -4.35,-3.89 m -44.87,4.3 c 0,0.4 -0.27,1.3 -2.49,1.3 -0.98,0 -1.66,-0.15 -1.66,-0.15 0,0 0.59,-2.25 2.69,-2.25 1.25,0 1.5,0.73 1.46,1.1 m -0.63,-4.3 c -4.26,0 -8,4.27 -8,8.71 0,1.24 0.74,4.8 4.94,4.8 4.19,0 5.21,-2.72 5.47,-4.11 0,0 -1.22,0.91 -4.17,0.91 -2.95,0 -2.3,-2.19 -2.3,-2.19 0,0 1.12,0.23 2.43,0.23 1.32,0 5.8,-0.16 5.98,-4.46 0.1,-1.32 -0.42,-3.89 -4.35,-3.89 m -104.71,4.3 c 0,0.4 -0.27,1.3 -2.49,1.3 -0.99,0 -1.66,-0.15 -1.66,-0.15 0,0 0.58,-2.25 2.69,-2.25 1.24,0 1.49,0.73 1.46,1.1 m -0.63,-4.3 c -4.26,0 -8.01,4.27 -8.01,8.71 0,1.24 0.75,4.8 4.95,4.8 4.19,0 5.21,-2.72 5.47,-4.11 0,0 -1.22,0.91 -4.17,0.91 -2.95,0 -2.31,-2.19 -2.31,-2.19 0,0 1.13,0.23 2.44,0.23 1.32,0 5.8,-0.16 5.98,-4.46 0,-1.32 -0.43,-3.89 -4.35,-3.89 m 91.33,3.37 c -1.27,0 -2.47,1.31 -2.89,3.1 -0.59,2.52 0.1,3.62 1.54,3.62 1.32,0 2.4,-1.31 2.82,-3.12 0.55,-2.36 0,-3.6 -1.47,-3.6 m -1.61,10.16 c -1.09,0 -2.32,-0.79 -2.61,-1.74 l -1.24,5.31 h -4.11 l 2.45,-9.85 c 1.07,-4.58 4.03,-7.25 8.19,-7.25 3.44,0 5.44,2.54 4.52,6.48 -1.02,4.37 -4,7.05 -7.2,7.05 m 40.28,-10.16 c -1.27,0 -2.47,1.31 -2.89,3.1 -0.59,2.52 0.1,3.62 1.54,3.62 1.32,0 2.4,-1.31 2.82,-3.12 0.56,-2.36 0,-3.6 -1.47,-3.6 m -1.61,10.16 c -1.09,0 -2.32,-0.79 -2.61,-1.74 l -1.24,5.31 h -4.11 l 2.46,-9.85 c 1.06,-4.58 4.02,-7.25 8.18,-7.25 3.44,0 5.44,2.54 4.52,6.48 -1.02,4.37 -4,7.05 -7.2,7.05 m -50.7,-17.58 h 4.08 c 0,0 -1.35,5.82 -2.57,10.94 -1.27,5.37 -5.12,6.59 -7.15,6.59 -2.03,0 -5.67,-0.65 -5.67,-5.03 0,-3.99 3.11,-8.46 7.47,-8.46 1.66,0 2.59,1.34 2.59,1.34 z m -4.18,7.46 c -1.13,0 -2.42,1.31 -2.8,3.09 -0.54,2.53 0.14,3.62 1.58,3.62 1.29,0 2.41,-1.31 2.8,-3.12 0.5,-2.35 -0.16,-3.59 -1.58,-3.59 m 69.57,-7.46 H 292 c 0,0 -2.51,10.66 -3.11,13.24 -0.6,2.59 1.03,4.33 2.95,4.33 2.01,0 3.07,-1.13 3.54,-3.56 0,0 -0.4,0.1 -1.05,0.1 -0.56,0 -1.53,-0.2 -1.24,-1.48 0.3,-1.28 2.97,-12.62 2.97,-12.62 m -26.61,7.54 c -1.11,0 -2.41,1.28 -2.82,3.02 -0.57,2.47 0.1,3.53 1.51,3.53 1.28,0 2.41,-1.28 2.83,-3.04 0.53,-2.3 -0.11,-3.51 -1.52,-3.51 m 1.07,-3.49 c 3.21,0 5.48,2.65 4.56,6.61 -0.98,4.18 -3.94,6.87 -8,6.87 -3.36,0 -5.46,-2.69 -4.58,-6.46 0.98,-4.22 4.32,-7.02 8.02,-7.02 m -57.36,3.49 c -1.11,0 -2.41,1.28 -2.82,3.02 -0.58,2.47 0.1,3.53 1.5,3.53 1.29,0 2.42,-1.28 2.83,-3.04 0.54,-2.3 -0.1,-3.51 -1.51,-3.51 m 1.07,-3.49 c 3.2,0 5.47,2.65 4.55,6.61 -0.97,4.18 -3.93,6.87 -8,6.87 -3.35,0 -5.46,-2.69 -4.58,-6.46 0.99,-4.22 4.33,-7.02 8.03,-7.02 m -14.41,3.49 c -1.11,0 -2.41,1.28 -2.82,3.02 -0.57,2.47 0.1,3.53 1.5,3.53 1.29,0 2.42,-1.28 2.83,-3.04 0.54,-2.3 -0.1,-3.51 -1.51,-3.51 m 1.07,-3.49 c 3.21,0 5.48,2.65 4.55,6.61 -0.97,4.18 -3.93,6.87 -7.99,6.87 -3.36,0 -5.46,-2.69 -4.59,-6.46 0.99,-4.22 4.33,-7.02 8.03,-7.02 m -26.01,13.15 1.7,-6.95 c 0.42,-1.81 0,-2.63 -1.14,-2.63 -1.59,0 -2.18,0.91 -2.6,2.72 l -1.6,6.86 h -4.08 l 4.03,-17.2 h 3.92 l -1.33,5.83 c 0.84,-1.02 2,-1.79 3.86,-1.79 2.37,0 3.98,2 3.17,5.47 l -1.79,7.69 m -53.88,-9.17 c 0,0 1.76,-4.03 -3,-4.03 -4.42,0 -6.49,3.23 -6.49,5.11 0,1.88 1.95,2.61 3.37,2.99 1.24,0.33 1.59,0.53 1.49,1.1 -0.16,0.82 -1.19,1.04 -2.61,1.04 -1.72,0 -3.2,-1.15 -3.2,-1.15 0,0 -1.82,4.46 3.24,4.46 4.86,0 6.49,-3.53 6.49,-5.36 0,-1.83 -1.42,-2.57 -2.83,-3 -0.83,-0.25 -2.06,-0.46 -2.06,-1.07 0,-0.6 0.97,-1.09 2.32,-1.09 2.16,0 3.28,1 3.28,1 m -71.273,0 c 0,0 1.764,-4.03 -3.003,-4.03 -4.421,0 -6.483,3.23 -6.483,5.11 0,1.88 1.942,2.61 3.365,2.99 1.237,0.33 1.594,0.53 1.486,1.1 -0.156,0.82 -1.188,1.04 -2.607,1.04 -1.716,0 -3.2,-1.15 -3.2,-1.15 0,0 -1.818,4.46 3.241,4.46 4.857,0 6.496,-3.53 6.496,-5.36 0,-1.83 -1.426,-2.57 -2.842,-3 -0.828,-0.25 -2.053,-0.46 -2.053,-1.07 0,-0.6 0.967,-1.09 2.32,-1.09 2.161,0 3.28,1 3.28,1 m 44.042,-3.59 h -4.065 c 0,0 -1.45,6.21 -2.049,8.79 -0.6,2.59 1.031,4.33 2.954,4.33 2.006,0 3.073,-1.13 3.534,-3.56 0,0 -0.398,0.1 -1.045,0.1 -0.564,0 -1.531,-0.2 -1.238,-1.48 0.294,-1.28 1.909,-8.17 1.909,-8.17 m -6.428,-4.46 h -4.065 c 0,0 -2.508,10.66 -3.108,13.24 -0.599,2.59 1.031,4.33 2.952,4.33 2.008,0 3.076,-1.13 3.537,-3.56 0,0 -0.399,0.1 -1.045,0.1 -0.563,0 -1.532,-0.2 -1.239,-1.48 0.295,-1.28 2.968,-12.62 2.968,-12.62 m -33.006,2.16 c 0.636,-0.44 1.571,-0.86 2.427,-0.86 h 0.309 l -0.731,3.11 h 3.565 l -0.313,1.39 c -0.253,1.09 -1.52,1.93 -2.438,1.93 H 59.84 l -1.129,4.79 c -0.201,0.86 0.173,1.38 0.961,1.38 0.967,0 1.541,-0.1 2.012,-0.28 v 0 c 0,0 -0.471,1.93 -1.338,2.78 -0.603,0.6 -1.557,0.98 -2.665,0.98 -2.006,0 -3.926,-1.05 -3.104,-4.56 l 1.847,-7.92 c 0.27,-1.16 1.108,-2.09 2.051,-2.74 M 220.17,254.97 v -36.43 h 3.54 v 8.33 c 0,0 1.98,-7.75 12.99,-8.32 1.54,-0.1 3.53,0 3.53,0 v -9.16 l 4.14,-1.61 v 10.78 h 8.51 v 3.7 h -8.51 v 22.14 c 0,5.23 1.63,7.05 5.2,7.05 1.97,0 3.6,-0.73 3.6,-0.73 l 0.44,3.6 c 0,0 -2.06,0.67 -4.24,0.67 -1.12,0 -4.44,0.16 -6.71,-2.14 -1.52,-1.53 -2.43,-4.02 -2.43,-8.65 0,-4.23 0,-22.09 0,-22.09 -1.44,0 -4.54,-0.18 -7.06,0.47 -3.36,0.89 -8.86,4.38 -8.86,13.09 v 19.34 M 38.776,212.96 c 0,0 6.818,24.85 7.966,29.14 0.645,2.4 1.653,6.62 1.653,6.62 0,0 0.891,-4.23 1.489,-6.65 1.053,-4.25 7.436,-29.11 7.436,-29.11 h 4.337 l -10.813,42 h -4.743 c 0,0 -7.938,-30.39 -8.32,-31.94 -0.379,-1.56 -0.952,-4.55 -0.952,-4.55 0,0 -0.57,2.99 -0.953,4.55 -0.378,1.55 -8.319,31.94 -8.319,31.94 H 22.815 L 12,212.96 h 4.34 c 0,0 6.382,24.86 7.435,29.11 0.598,2.42 1.488,6.65 1.488,6.65 0,0 1.011,-4.22 1.653,-6.62 1.151,-4.29 7.97,-29.14 7.97,-29.14 m 129.034,5.51 c 0,0 5.07,20.64 6.13,25.48 0.52,2.35 1.27,5.81 1.27,5.81 0,0 0.79,-3.46 1.42,-5.81 1.31,-4.86 7.1,-25.48 7.1,-25.48 h 4.48 l -10.57,36.46 h -4.92 c 0,0 -5.56,-24.09 -6.21,-27.05 -0.32,-1.49 -0.78,-3.75 -0.78,-3.75 0,0 -0.45,2.26 -0.78,3.75 -0.65,2.96 -6.21,27.05 -6.21,27.05 h -4.92 l -10.57,-36.46 h 4.48 c 0,0 5.79,20.62 7.1,25.48 0.63,2.35 1.42,5.81 1.42,5.81 0,0 0.76,-3.46 1.27,-5.81 1.06,-4.84 6.13,-25.48 6.13,-25.48 m 147.37,4.4 c -2.81,-0.96 -4.13,-1.24 -6.93,-1.36 -4.16,-0.17 -7.13,2.51 -7.13,5.59 0,7.51 17.05,6.69 17.05,18.26 0,6.08 -5.06,10.29 -12.48,10.29 -3.13,0 -5.76,-0.52 -8.88,-1.8 l 0.3,-4.12 c 3.12,1.72 5.52,2.36 8.3,2.36 4.72,0 8.18,-3.13 8.18,-6.73 0,-8.72 -16.64,-7.22 -16.64,-18.18 0,-5.64 4.44,-9.35 11.37,-9.24 2.68,0 3.94,0.11 7.19,1.24 m -45.76,-0.57 v 1.73 c -0.1,1.58 0,3.23 -0.21,4.81 2.34,-4.51 6.54,-7.07 11.46,-7.07 8.04,0 10.93,5.94 11.35,13.53 0.14,1.73 0.22,4.66 0.22,6.38 v 16.98 h -4.17 v -16.98 c 0,-2.1 -0.1,-5.66 -0.21,-7.38 -0.5,-5.79 -3.35,-8.94 -7.97,-8.94 -3.78,0 -7.27,2.47 -9.12,6.38 -0.71,1.43 -1,2.86 -1.21,5.94 -0.1,1.12 -0.14,3.4 -0.14,4 v 16.98 h -4.14 v -51.15 h 4.14 M 65.804,236.87 c 0,8.79 4.666,15.37 11.179,15.37 6.511,0 11.109,-6.58 11.109,-15.44 0,-8.95 -4.531,-15.53 -11.04,-15.53 -6.79,0 -11.248,6.43 -11.248,15.6 m 26.833,-0.1 c 0,11.42 -6.234,19 -15.585,19 -9.491,0 -15.793,-7.51 -15.793,-19 0,-11.65 6.233,-19.09 15.862,-19.09 9.488,0 15.516,7.44 15.516,19.09 m 96.193,0.1 c 0,8.79 4.67,15.37 11.18,15.37 6.51,0 11.11,-6.58 11.11,-15.44 0,-8.95 -4.53,-15.53 -11.04,-15.53 -6.79,0 -11.25,6.43 -11.25,15.6 m 26.83,-0.1 c 0,11.42 -6.23,19 -15.58,19 -9.49,0 -15.79,-7.51 -15.79,-19 0,-11.65 6.23,-19.09 15.86,-19.09 9.49,0 15.51,7.44 15.51,19.09 m -115.36,0.1 c 0,8.79 4.67,15.37 11.17,15.37 6.51,0 11.11,-6.58 11.11,-15.44 0,-8.95 -4.53,-15.53 -11.04,-15.53 -6.78,0 -11.24,6.43 -11.24,15.6 m 26.83,-0.1 c 0,11.42 -6.24,19 -15.59,19 -9.48,0 -15.786,-7.51 -15.786,-19 0,-11.65 6.236,-19.09 15.856,-19.09 9.49,0 15.52,7.44 15.52,19.09 m 4.63,-32.96 v 51.16 h 4.17 v -51.16 z" id="use71"></path><metadata id="metadata4721"><rdf:rdf><cc:work rdf:about=""><dc:title></dc:title></cc:work></rdf:rdf></metadata></svg>