<?xml version="1.0"?>
<!--?xml version="1.0" encoding="UTF-8" standalone="no"?-->
<svg xmlns="http://www.w3.org/2000/svg" viewBox="0 0 583.47 184.37" height="184.37pt" width="583.47pt">
  <path d="M 22,22 V 42.293 H 561.48 V 22 Z m 87.9,51.973 c -1.5,4.051 -2.93,7.878 -4.43,11.548 L 99.925,99.378 96.4,83.786 c -0.225,-0.741 -0.525,-2.445 -0.975,-5.112 -0.225,-0.972 -0.3,-1.623 -0.3,-2.035 0,-0.246 0.08,-0.496 0.3,-0.576 0.15,-0.164 1.35,-0.329 3.375,-0.329 v -1.415 c -2.775,0.165 -4.8,0.164 -5.925,0.164 -1.275,0 -3.15,10e-4 -5.775,-0.164 v 1.415 c 1.575,0.165 2.475,0.33 2.775,0.577 0.3,0.264 0.6,1.028 0.9,2.354 l 4.425,18.523 2.1,9.352 h 2.325 c 0.595,-1.79 1.045,-3.06 1.345,-3.89 0.23,-0.77 0.61,-1.67 1.05,-2.67 l 2.78,-7.361 4.5,-11.132 5.17,13.898 c 1.05,2.502 2.25,6.245 4.05,11.185 h 2.18 l 3,-10.838 c 0.68,-2.667 1.2,-4.406 1.43,-5.147 l 2.25,-7.557 c 1.12,-3.441 1.72,-5.457 2.02,-5.951 0.23,-0.486 0.52,-0.898 0.82,-1.062 0.38,-0.25 0.98,-0.331 2.11,-0.331 v -1.416 c -2.33,0.165 -3.9,0.165 -4.81,0.165 -0.89,0 -2.62,0 -4.94,-0.165 v 1.416 c 2.25,0.08 3.3,0.166 3.6,0.331 0.3,0.08 0.45,0.329 0.45,0.658 0,0.198 -0.15,0.871 -0.45,2.058 -0.45,2.608 -1.2,5.088 -1.88,7.5 l -3.9,13.467 -5.32,-14.727 c -1.05,-3.054 -2.4,-6.717 -3.75,-10.998 z m 239.93,0.295 v 1.449 c 1.8,0.08 2.84,0.08 3.15,0.246 0.52,0.165 0.75,0.33 0.9,0.578 0.15,0.255 0.3,1.087 0.3,2.536 0.22,1.935 0.22,3.96 0.22,5.984 V 97.18 c 0,0.354 -0.1,1.58 -0.22,3.67 0,1.39 -0.1,2.26 -0.15,2.67 -0.15,0.25 -0.23,0.41 -0.45,0.57 -0.15,0.29 -0.75,0.62 -1.65,1.03 v 1.04 c 1.5,-0.16 3,-0.16 4.35,-0.16 l 13.5,0.16 h 3.6 c 0.3,0 0.9,0 1.5,-0.16 0.3,-3.02 0.6,-5.7 1.05,-7.915 h -1.65 l -0.9,3.725 c -0.1,0.58 -0.3,1.13 -0.45,1.54 -1.73,0.58 -4.73,0.83 -9,0.83 -1.73,0 -3.45,-0.1 -5.1,-0.17 -0.23,-0.99 -0.23,-2.28 -0.23,-3.85 V 85.046 c 0.23,-3.96 0.23,-6.077 0.23,-6.406 0.1,-1.153 0.1,-1.852 0.3,-2.182 0.15,-0.163 0.37,-0.33 0.75,-0.495 0.45,-0.08 1.5,-0.246 3.3,-0.246 v -1.449 c -3.38,0.165 -5.55,0.165 -6.45,0.165 -0.9,0 -3.23,0 -6.9,-0.165 z M 141.1,82.583 c -1.88,0 -3.68,0.329 -5.18,0.905 -1.65,0.576 -2.92,1.475 -4.12,2.636 -1.28,1.185 -2.1,2.478 -2.7,3.952 -0.52,1.449 -0.68,3.053 -0.68,4.757 0,1.548 0.15,3.087 0.75,4.668 v -0.05 c 0.6,1.549 1.35,2.899 2.4,3.949 1.05,1.1 2.33,1.94 3.83,2.52 1.5,0.56 3.07,0.81 4.8,0.81 3.82,0 6.97,-1.19 9.52,-3.67 2.48,-2.41 3.68,-5.495 3.68,-9.159 0,-1.128 -0.1,-2.214 -0.38,-3.22 -0.22,-0.995 -0.52,-1.859 -1.05,-2.6 -0.45,-0.996 -1.27,-1.926 -2.25,-2.733 -0.9,-0.84 -2.1,-1.539 -3.6,-2.025 -1.5,-0.495 -3.15,-0.742 -5.02,-0.742 z m 26.77,0 c -1.95,0 -3.67,0.329 -5.25,0.905 -1.5,0.576 -2.92,1.475 -4.12,2.636 -1.2,1.185 -2.1,2.478 -2.63,3.952 -0.45,1.449 -0.67,3.053 -0.67,4.757 0,1.548 0.22,3.087 0.82,4.668 l -0.15,-0.05 c 0.6,1.549 1.35,2.899 2.4,3.949 1.05,1.1 2.33,1.94 3.83,2.52 1.5,0.56 3.07,0.81 4.8,0.81 3.82,0 6.97,-1.19 9.52,-3.67 2.48,-2.41 3.68,-5.495 3.68,-9.159 0,-1.128 -0.1,-2.214 -0.3,-3.22 -0.3,-0.995 -0.6,-1.859 -0.98,-2.6 -0.6,-0.996 -1.35,-1.926 -2.32,-2.733 -0.9,-0.84 -2.1,-1.539 -3.68,-2.025 -1.42,-0.495 -3.15,-0.742 -4.95,-0.742 z m 74.55,0 c -2.02,0 -3.82,0.329 -5.32,0.905 -1.5,0.576 -2.93,1.475 -4.13,2.636 -1.2,1.185 -2.1,2.478 -2.55,3.952 -0.52,1.449 -0.82,3.053 -0.82,4.757 0,1.548 0.3,3.087 0.9,4.668 l -0.1,-0.05 c 0.6,1.549 1.28,2.899 2.25,3.949 1.13,1.1 2.4,1.94 3.9,2.52 1.43,0.56 3.15,0.81 4.8,0.81 3.83,0 7.05,-1.19 9.53,-3.67 2.4,-2.41 3.67,-5.495 3.67,-9.159 0,-1.128 -0.15,-2.214 -0.3,-3.22 -0.3,-0.995 -0.6,-1.859 -0.97,-2.6 -0.6,-0.996 -1.28,-1.926 -2.33,-2.733 -0.9,-0.84 -2.17,-1.539 -3.67,-2.025 -1.5,-0.495 -3.08,-0.742 -4.88,-0.742 z m 89.78,0.06 c -1.58,0 -3.08,0.304 -4.43,0.962 -1.27,0.618 -2.25,1.514 -3,2.642 -0.67,1.121 -0.97,2.347 -0.97,3.632 0,0.872 0.1,1.738 0.52,2.479 0.3,0.739 0.68,1.339 1.28,1.833 0.52,0.478 1.27,0.891 2.47,1.221 0.9,0.164 1.95,0.328 3.15,0.493 1.2,0.164 1.95,0.329 2.48,0.329 0.6,0.08 1.12,0.329 1.57,0.659 0.45,0.321 0.83,0.708 1.05,1.284 0.1,0.51 0.3,1.087 0.3,1.833 0,0.97 -0.3,1.81 -0.75,2.64 -0.37,0.83 -1.05,1.53 -1.95,2.02 -1.05,0.5 -2.02,0.74 -3.15,0.74 -0.75,0 -1.5,-0.16 -2.4,-0.41 -0.75,-0.3 -1.35,-0.54 -1.87,-0.87 -0.53,-0.36 -0.83,-0.6 -0.9,-0.93 -0.1,-0.29 -0.3,-1.22 -0.3,-2.8 h -1.13 c -0.1,2.31 -0.15,4.02 -0.37,5.05 l 0.1,0.11 c 1.8,0.91 3.83,1.33 5.93,1.33 2.92,0 5.32,-0.84 7.12,-2.45 1.8,-1.61 2.78,-3.5 2.78,-5.695 0,-0.897 -0.23,-1.722 -0.53,-2.38 -0.37,-0.708 -0.75,-1.259 -1.27,-1.67 -0.38,-0.437 -1.2,-0.766 -2.18,-1.095 -1.12,-0.165 -2.4,-0.413 -3.82,-0.578 -1.28,-0.163 -2.4,-0.41 -2.93,-0.575 -0.9,-0.321 -1.57,-0.734 -1.87,-1.228 -0.3,-0.51 -0.53,-1.217 -0.53,-2.147 0,-1.515 0.53,-2.767 1.5,-3.739 0.9,-0.913 2.25,-1.408 3.83,-1.408 1.27,0 2.47,0.355 3.6,0.933 0.52,0.354 0.82,0.681 1.12,1.094 0.1,0.123 0.15,1.061 0.15,2.765 h 1.13 c 0.1,-1.194 0.22,-2.066 0.22,-2.642 0,-0.609 0.1,-1.268 0.15,-1.927 -0.9,-0.519 -1.87,-0.847 -3.07,-1.094 -1.13,-0.247 -2.1,-0.411 -3,-0.411 z M 472,82.757 v 1.062 c 1.12,0 1.87,0.08 2.32,0.247 0.1,0 0.3,0.165 0.38,0.33 0.1,0.164 0.1,0.741 0.22,1.671 v 3.795 6.692 c 0,0.865 0,2.446 -0.15,4.656 0,1.35 0,2.38 -0.1,3.12 -0.38,0.33 -0.98,0.66 -1.58,1 v 0.74 c 1.65,0 2.85,-0.16 3.45,-0.16 v 0.24 h 3 2.7 c 2.03,0 3.6,-0.17 4.8,-0.5 1.13,-0.33 2.25,-0.82 3.3,-1.41 1.13,-0.65 2.1,-1.51 3,-2.61 0.9,-1.09 1.65,-2.375 2.25,-3.824 0.45,-1.473 0.75,-3.022 0.75,-4.693 0,-2.313 -0.6,-4.28 -1.65,-5.918 -1.2,-1.573 -2.62,-2.734 -4.2,-3.442 -1.72,-0.658 -3.9,-0.996 -6.6,-0.996 h -3.82 c -1.57,0 -2.93,0.08 -3.82,0.08 -1.28,0 -2.7,0 -4.28,-0.08 z m -258.08,0.02 c -1.05,2.889 -2.1,5.655 -3.22,8.256 l -3.98,10.027 -2.62,-11.179 c -0.23,-0.519 -0.38,-1.771 -0.83,-3.697 -0.1,-0.741 -0.15,-1.152 -0.15,-1.482 0,-0.164 0.1,-0.41 0.15,-0.41 0.3,-0.08 1.13,-0.248 2.55,-0.248 v -1.062 c -2.02,0.164 -3.45,0.164 -4.35,0.164 -0.9,0 -2.4,0 -4.2,-0.164 v 1.062 c 1.13,0.08 1.8,0.248 2.03,0.412 0.3,0.19 0.37,0.766 0.67,1.737 l 3.23,13.468 1.5,6.809 h 1.57 c 0.53,-1.31 0.9,-2.24 1.05,-2.82 0.3,-0.58 0.38,-1.23 0.75,-1.97 l 2.1,-5.361 3.3,-8.133 3.75,10.159 c 0.68,1.805 1.58,4.545 2.86,8.135 h 1.72 l 2.1,-7.905 c 0.6,-1.935 0.9,-3.161 1.13,-3.738 l 1.65,-5.499 c 0.82,-2.503 1.2,-3.975 1.35,-4.305 0.15,-0.411 0.45,-0.659 0.67,-0.824 0.3,-0.166 0.83,-0.247 1.5,-0.247 V 82.9 c -1.72,0.165 -2.77,0.165 -3.6,0.165 -0.6,0 -1.8,0 -3.52,-0.165 v 1.062 c 1.65,0.08 2.55,0.168 2.62,0.247 0.3,0.08 0.38,0.247 0.38,0.494 0,0.124 -0.15,0.609 -0.38,1.482 -0.37,1.893 -0.82,3.696 -1.27,5.433 l -2.85,9.652 -3.9,-10.623 c -0.75,-2.215 -1.8,-4.849 -2.78,-7.903 z m 80.78,0.08 c -0.9,0.165 -2.33,0.164 -4.28,0.164 -2.85,0.164 -4.5,0.164 -5.32,0.164 h -4.2 c -2.48,-0.08 -4.5,-0.166 -5.63,-0.246 0,1.029 0.15,2.865 0.15,5.467 h 1.05 l 0.23,-1.862 c 0.1,-0.979 0.1,-1.638 0.3,-1.803 0.1,-0.08 0.3,-0.162 0.52,-0.162 0.75,-0.165 1.95,-0.166 3.38,-0.166 h 2.48 v 2.765 1.515 9.55 4.657 c 0,0.87 -0.1,1.37 -0.15,1.61 -0.15,0.17 -0.45,0.33 -0.6,0.41 -0.3,0.1 -1.13,0.17 -2.33,0.17 v 1.06 c 2.93,-0.1 4.58,-0.1 5.1,-0.1 0.98,0 2.4,0.1 4.43,0.1 v -1.06 c -1.35,0 -2.1,-0.17 -2.33,-0.17 -0.3,-0.1 -0.52,-0.24 -0.6,-0.41 -0.22,-0.19 -0.3,-0.8 -0.3,-1.87 V 98.311 88.728 84.48 h 2.1 2.33 c 0.9,0.165 1.5,0.166 1.65,0.166 0,0.08 0.22,0.164 0.22,0.164 0.23,0.08 0.23,0.164 0.23,0.33 0,0.13 0,0.674 0.1,1.612 l 0.23,1.574 h 1.05 c 0,-2.414 0,-4.216 0.22,-5.467 z m 156.82,0 c -0.9,0.165 -2.32,0.164 -4.35,0.164 -2.77,0.164 -4.5,0.164 -5.25,0.164 h -4.12 c -2.7,-0.08 -4.5,-0.166 -5.7,-0.246 0,1.029 0.1,2.865 0.1,5.467 h 1.13 l 0.22,-1.862 c 0.1,-0.979 0.15,-1.638 0.3,-1.803 0.1,-0.08 0.3,-0.162 0.45,-0.162 0.83,-0.165 2.03,-0.166 3.53,-0.166 h 2.4 v 2.765 1.515 9.55 4.657 c 0,0.87 -0.1,1.37 -0.23,1.61 -0.15,0.17 -0.3,0.33 -0.6,0.41 -0.3,0.1 -1.05,0.17 -2.25,0.17 v 1.06 c 2.85,-0.1 4.58,-0.1 4.95,-0.1 1.05,0 2.55,0.1 4.5,0.1 v -1.06 c -1.27,0 -2.1,-0.17 -2.4,-0.17 -0.15,-0.1 -0.37,-0.24 -0.45,-0.41 -0.22,-0.19 -0.3,-0.8 -0.3,-1.87 V 98.311 88.728 84.48 h 2.1 2.25 c 0.9,0.165 1.5,0.166 1.65,0.166 0.1,0.08 0.3,0.164 0.3,0.164 0.1,0.08 0.1,0.164 0.1,0.33 0,0.13 0.1,0.674 0.22,1.612 l 0.15,1.574 h 1.13 c 0,-2.414 0.1,-4.216 0.22,-5.467 z m -185.62,0 c -0.3,0 -1.28,0.08 -3,0.08 -1.28,0.08 -2.33,0.08 -2.93,0.08 l -3.15,-0.08 h -1.95 v 1.004 c 1.35,0 2.1,0.09 2.33,0.165 0.3,0.08 0.37,0.246 0.6,0.411 0.22,0.198 0.22,0.807 0.22,1.87 v 4.337 7.624 4.652 c 0,0.88 0,1.37 -0.22,1.62 -0.23,0.1 -0.3,0.33 -0.6,0.33 -0.3,0.1 -1.13,0.16 -2.4,0.16 v 1.03 c 2.62,-0.16 4.27,-0.16 5.4,-0.16 1.27,0 2.7,0.16 4.27,0.16 v -1.03 c -1.27,0 -2.1,-0.1 -2.4,-0.16 -0.3,-0.1 -0.45,-0.25 -0.6,-0.41 -0.15,-0.2 -0.3,-0.81 -0.3,-1.87 v -4.34 -7.302 c 0.23,-3.021 0.23,-4.593 0.23,-4.758 v -1.64 c 0.97,-0.33 2.1,-0.494 3.22,-0.494 1.8,0 3.08,0.42 3.98,1.161 0.9,0.807 1.27,1.868 1.27,3.218 0,1.541 -0.45,2.767 -1.5,3.698 -0.97,0.922 -2.47,1.417 -4.5,1.417 h -1.2 l -0.15,0.493 c 1.06,1.193 2.18,2.51 3.31,3.992 0.67,0.898 1.5,1.995 2.47,3.315 1.73,2.41 2.78,4 3.6,4.82 0.9,-0.17 1.73,-0.17 2.4,-0.17 0.6,0 1.28,0.17 2.18,0.17 v -1.03 c -0.6,0 -0.98,-0.1 -1.05,-0.1 -0.15,0 -0.23,-0.17 -0.3,-0.17 -0.23,-0.16 -0.9,-1.02 -2.03,-2.57 l -4.2,-5.435 c -0.97,-1.317 -1.72,-2.189 -2.02,-2.602 1.65,-0.288 2.7,-0.806 3.75,-1.382 0.9,-0.609 1.57,-1.351 2.1,-2.288 0.45,-0.899 0.67,-1.797 0.67,-2.736 0,-0.963 -0.22,-1.858 -0.82,-2.731 -0.45,-0.798 -1.2,-1.466 -2.18,-1.796 -0.9,-0.411 -2.47,-0.576 -4.5,-0.576 z m 30.37,0.08 v 1.061 l -0.15,0.1 c 1.28,0 2.1,0.09 2.25,0.166 0.45,0.08 0.53,0.246 0.75,0.41 0.1,0.198 0.15,0.807 0.15,1.869 v 4.339 7.622 4.656 c 0,0.88 -0.1,1.37 -0.15,1.62 -0.15,0.1 -0.3,0.33 -0.6,0.33 -0.3,0.1 -1.05,0.16 -2.32,0.16 v 1.03 c 1.57,-0.17 3.3,-0.17 5.02,-0.17 1.58,0 3.08,0.17 4.58,0.17 v -1.03 c -1.28,0 -2.1,-0.1 -2.4,-0.16 -0.23,-0.1 -0.38,-0.25 -0.53,-0.42 -0.15,-0.19 -0.3,-0.8 -0.3,-1.83 v -4.304 -3.731 c 2.7,-0.164 4.95,-0.164 6.75,-0.164 1.58,0 3.9,0.08 6.98,0.164 v 3.731 4.584 c 0,0.88 -0.1,1.37 -0.23,1.62 -0.15,0.1 -0.37,0.33 -0.6,0.33 -0.3,0.1 -1.05,0.16 -2.4,0.16 v 1.03 c 1.65,-0.16 3,-0.16 4.43,-0.16 1.42,0 3.07,0.16 5.17,0.16 v -1.03 c -1.27,0 -2.1,-0.1 -2.25,-0.16 -0.3,-0.1 -0.45,-0.25 -0.6,-0.41 -0.22,-0.2 -0.22,-0.81 -0.22,-1.87 v -4.338 -7.623 -4.627 c 0,-0.873 0,-1.449 0.22,-1.613 0.1,-0.165 0.3,-0.332 0.6,-0.412 0.3,-0.09 0.98,-0.165 2.25,-0.165 V 82.97 c -2.77,0.165 -4.35,0.165 -4.8,0.165 -0.75,0 -2.4,0 -4.8,-0.165 v 1.062 c 1.35,0 2.1,0.09 2.4,0.165 0.3,0.08 0.53,0.247 0.6,0.412 0.23,0.197 0.3,0.806 0.3,1.868 v 4.339 2.28 c -1.5,0.165 -3.37,0.164 -5.77,0.164 -3.08,0 -5.78,-0.08 -7.88,-0.164 v -2.28 -4.626 c 0,-0.873 0,-1.45 0.15,-1.613 0.15,-0.165 0.3,-0.334 0.6,-0.413 0.3,-0.09 1.13,-0.164 2.4,-0.164 v -1.062 l -4.65,0.164 z m 92.33,0 v 1.16 c 1.27,0 2.1,0.166 2.4,0.166 0.22,0.08 0.37,0.246 0.52,0.41 0.1,0.19 0.3,0.799 0.3,1.828 v 4.347 7.557 4.625 c -0.15,0.87 -0.15,1.37 -0.3,1.61 -0.15,0.17 -0.3,0.34 -0.52,0.42 -0.3,0.1 -1.13,0.16 -2.4,0.16 v 1.06 l 4.2,-0.16 3.97,0.16 v -1.06 c -1.27,0 -2.17,-0.16 -2.4,-0.16 -0.3,-0.1 -0.45,-0.25 -0.6,-0.42 -0.15,-0.19 -0.3,-0.8 -0.3,-1.87 -0.1,-1.41 -0.1,-2.85 -0.1,-4.332 V 86.922 l 7.87,16.308 1.13,2.38 c 0.1,0.22 0.22,0.55 0.37,0.96 h 0.6 c 0.83,-1.77 1.35,-3.07 1.73,-3.89 0.52,-1.12 1.2,-2.64 2.1,-4.496 l 5.7,-11.838 v 12.06 c -0.1,2.864 -0.1,4.414 -0.1,4.664 0,0.87 -0.15,1.36 -0.3,1.61 0,0.16 -0.3,0.33 -0.52,0.41 -0.3,0.1 -1.13,0.17 -2.48,0.17 v 1.06 c 2.55,-0.17 4.2,-0.17 4.88,-0.17 0.9,0 2.47,0.1 4.72,0.17 v -1.06 c -1.35,0 -2.1,-0.17 -2.4,-0.17 -0.22,-0.1 -0.52,-0.25 -0.6,-0.41 -0.15,-0.2 -0.22,-0.81 -0.22,-1.84 v -4.335 -7.557 -4.635 c 0,-0.832 0.1,-1.326 0.22,-1.574 0.1,-0.163 0.38,-0.246 0.6,-0.41 0.3,-0.164 1.05,-0.165 2.4,-0.165 v -1.226 c -1.72,0.165 -2.92,0.164 -3.6,0.164 -0.82,0 -1.8,0 -2.92,-0.164 -0.53,1.35 -1.58,3.663 -3.08,6.816 l -5.62,11.866 -6.3,-12.895 c -0.9,-1.671 -1.73,-3.564 -2.7,-5.787 -0.98,0.165 -2.03,0.164 -3,0.164 -1.13,0 -2.18,0 -3.3,-0.164 z m -208.43,0 v 1.062 c 1.35,0 2.03,0.08 2.33,0.164 0.3,0.08 0.37,0.246 0.6,0.411 0.22,0.165 0.22,0.775 0.22,1.87 v 4.337 8.842 2.667 c 0,1 0,1.64 -0.15,1.96 -0.1,0.17 -0.1,0.34 -0.3,0.42 -0.15,0.16 -0.6,0.41 -1.27,0.74 v 0.83 c 1.12,-0.16 2.17,-0.16 3.23,-0.16 l 9.89,0.16 h 2.55 c 0.31,0 0.75,-0.1 1.13,-0.16 0.3,-2.22 0.52,-4.12 0.82,-5.76 h -1.2 l -0.6,2.73 c -0.22,0.39 -0.3,0.8 -0.45,1.13 -1.27,0.41 -3.45,0.57 -6.6,0.57 -1.27,0 -2.47,-0.1 -3.75,-0.16 v -2.79 -11.031 -4.66 c 0,-0.871 0.1,-1.365 0.3,-1.612 0,-0.165 0.15,-0.329 0.45,-0.329 0.3,-0.08 1.13,-0.164 2.4,-0.164 v -1.062 c -2.4,0.163 -3.97,0.164 -4.65,0.164 -0.75,0 -2.32,-0.09 -4.95,-0.164 z m 197.25,0.02 v 1.062 c 1.28,0 2.1,0.08 2.25,0.165 0.3,0.08 0.45,0.247 0.6,0.412 0.23,0.197 0.3,0.806 0.3,1.867 v 4.339 7.623 4.655 c 0,0.84 -0.1,1.34 -0.3,1.58 -0.15,0.17 -0.3,0.42 -0.6,0.42 -0.15,0.1 -0.97,0.16 -2.25,0.16 v 1.03 l 5.1,-0.17 c 0.68,0 2.18,0.17 4.5,0.17 v -1.03 c -1.35,0 -2.1,-0.1 -2.4,-0.16 -0.22,-0.1 -0.45,-0.25 -0.6,-0.42 -0.15,-0.19 -0.22,-0.84 -0.22,-1.86 v -4.336 -7.623 c 0.1,-2.889 0.1,-4.413 0.1,-4.659 0,-0.84 0,-1.417 0.23,-1.581 0.22,-0.165 0.3,-0.411 0.6,-0.411 0.3,-0.09 0.97,-0.166 2.32,-0.166 V 82.97 c -2.1,0.165 -3.75,0.166 -4.8,0.166 -1.12,0 -2.7,-0.09 -4.8,-0.166 z m 43.5,0 v 1.062 c 1.28,0 2.1,0.08 2.25,0.165 0.3,0.08 0.53,0.247 0.6,0.412 0.15,0.197 0.23,0.806 0.23,1.867 v 4.339 7.623 4.655 c 0,0.84 0,1.34 -0.23,1.58 -0.1,0.17 -0.3,0.42 -0.6,0.42 -0.3,0.1 -0.97,0.16 -2.25,0.16 v 1.03 l 4.95,-0.17 c 0.83,0 2.33,0.17 4.65,0.17 v -1.03 h 0.1 c -1.28,0 -2.1,-0.1 -2.33,-0.16 -0.37,-0.1 -0.45,-0.25 -0.67,-0.42 -0.1,-0.19 -0.3,-0.84 -0.3,-1.86 V 98.472 90.849 86.19 c 0.1,-0.84 0.1,-1.417 0.3,-1.581 0.1,-0.165 0.3,-0.411 0.6,-0.411 0.3,-0.09 0.97,-0.166 2.32,-0.166 V 82.97 c -2.1,0.165 -3.75,0.166 -4.8,0.166 -1.12,0 -2.7,-0.09 -4.8,-0.166 z m 31.58,0 v 1.062 c 1.2,0 2.1,0.08 2.32,0.165 0.3,0.08 0.45,0.247 0.6,0.412 0.1,0.164 0.15,0.773 0.15,1.835 v 4.371 8.398 3.73 c -0.1,0.91 -0.1,1.49 -0.15,1.73 -0.15,0.17 -0.22,0.25 -0.3,0.33 -0.45,0.1 -1.2,0.25 -2.55,0.25 v 1.03 0.23 c 2.85,-0.16 4.35,-0.16 4.43,-0.16 l 9.9,0.16 c 1.42,0 2.62,0 3.52,-0.16 0,-1.48 0.15,-3.32 0.38,-5.5 h -1.13 c -0.1,0.48 -0.15,1.22 -0.45,2.18 -0.15,0.61 -0.22,1.02 -0.45,1.35 -0.45,0.16 -0.97,0.33 -1.57,0.41 -0.6,0.17 -1.58,0.17 -3,0.17 -2.03,0 -3.83,-0.1 -5.33,-0.17 -0.1,-1.06 -0.1,-2.58 -0.1,-4.6 v -4.881 c 1.27,-0.165 2.4,-0.164 3.07,-0.164 1.95,0 3.15,0 3.75,0.164 0.45,0.08 0.6,0.249 0.75,0.414 0.23,0.23 0.23,0.69 0.23,1.512 v 1.128 h 1.27 v -3.822 -3.408 -0.329 h -0.97 l -0.1,1.12 c -0.15,0.774 -0.15,1.185 -0.3,1.348 -0.15,0.08 -0.3,0.248 -0.6,0.248 -1.05,0.165 -2.1,0.166 -3.45,0.166 -1.05,0 -2.25,-0.09 -3.6,-0.166 v -5.55 -3.441 h 2.03 1.8 c 1.2,0 2.47,0 3.67,0.166 0.83,0.08 1.43,0.247 2.1,0.494 0.23,0.93 0.23,1.96 0.23,3.088 h 1.12 c 0.1,-2.19 0.3,-3.329 0.3,-3.409 0.1,-0.486 0.1,-0.98 0.3,-1.639 -1.05,-0.164 -2.02,-0.164 -3.15,-0.164 h -5.17 l -5.03,0.08 z m -312,0.963 c 1.2,0 2.32,0.164 3.37,0.576 1.05,0.329 1.95,0.825 2.63,1.359 0.6,0.495 1.12,1.152 1.57,1.893 0.53,0.741 0.9,1.548 1.2,2.412 0.45,1.483 0.75,3.055 0.75,4.792 0,2.025 -0.3,3.827 -1.05,5.368 -0.6,1.58 -1.57,2.76 -2.85,3.64 -1.35,0.83 -2.92,1.28 -4.72,1.28 -1.2,0 -2.4,-0.25 -3.53,-0.66 -0.97,-0.41 -1.95,-1.06 -2.85,-1.96 -0.82,-0.9 -1.5,-2 -2.02,-3.281 -0.3,-0.823 -0.6,-1.703 -0.83,-2.765 -0.3,-1.095 -0.37,-2.124 -0.37,-3.177 0,-1.836 0.37,-3.507 0.97,-4.989 v 0.02 c 0.75,-1.449 1.73,-2.544 3,-3.343 1.43,-0.741 2.93,-1.16 4.73,-1.16 z m 26.62,0 c 1.2,0 2.4,0.164 3.38,0.576 1.12,0.329 1.87,0.825 2.62,1.359 0.6,0.495 1.2,1.152 1.65,1.893 0.53,0.741 0.9,1.548 1.13,2.412 0.52,1.483 0.82,3.055 0.82,4.792 0,2.025 -0.45,3.827 -1.05,5.368 -0.67,1.58 -1.57,2.76 -3,3.64 -1.27,0.83 -2.77,1.28 -4.57,1.28 -1.28,0 -2.48,-0.25 -3.53,-0.66 -1.05,-0.41 -1.95,-1.06 -2.85,-1.96 -0.9,-0.9 -1.5,-2 -2.1,-3.281 -0.3,-0.823 -0.6,-1.703 -0.75,-2.765 -0.3,-1.095 -0.37,-2.124 -0.37,-3.177 0,-1.836 0.37,-3.507 0.97,-4.989 v 0.02 c 0.6,-1.449 1.73,-2.544 3,-3.343 1.35,-0.741 2.93,-1.16 4.65,-1.16 z m 74.48,0 c 1.2,0 2.4,0.164 3.37,0.576 1.13,0.329 1.95,0.825 2.63,1.359 0.6,0.495 1.2,1.152 1.72,1.893 0.45,0.741 0.75,1.548 1.05,2.412 0.53,1.483 0.75,3.055 0.75,4.792 0,2.025 -0.3,3.827 -0.9,5.368 -0.75,1.58 -1.72,2.76 -3,3.64 -1.35,0.83 -2.85,1.28 -4.64,1.28 -1.28,0 -2.48,-0.25 -3.61,-0.66 -0.97,-0.41 -1.87,-1.06 -2.77,-1.96 -0.9,-0.9 -1.57,-2 -2.1,-3.281 -0.3,-0.823 -0.6,-1.703 -0.68,-2.765 -0.3,-1.095 -0.45,-2.124 -0.45,-3.177 0,-1.836 0.45,-3.507 1.05,-4.989 v 0.02 c 0.61,-1.449 1.58,-2.544 3,-3.343 1.28,-0.741 2.86,-1.16 4.58,-1.16 z m 240.6,0.33 c 2.62,0 4.57,0.41 6.07,1.194 1.5,0.74 2.63,1.893 3.3,3.341 0.83,1.482 1.13,3.22 1.13,5.278 0,1.416 -0.1,2.791 -0.53,4.116 -0.37,1.351 -0.9,2.441 -1.65,3.271 -0.75,0.88 -1.42,1.52 -2.25,1.93 -0.67,0.41 -1.57,0.74 -2.7,1.03 -1.05,0.25 -2.25,0.33 -3.67,0.33 -1.28,0 -2.63,0 -3.9,-0.25 V 101.53 89.787 87.408 84.51 c 1.5,-0.165 2.77,-0.246 4.2,-0.246 z M 22,142.04 v 20.33 h 539.4 v -20.33 z"></path>

</svg>
