<?xml version="1.0"?>

<svg xmlns="http://www.w3.org/2000/svg" viewBox="0 0 584 166.5" height="166.5" width="584">
    <path d="M 83.26,22 C 49.48,22 22,49.48 22,83.26 22,117 49.48,144.5 83.26,144.5 117,144.5 144.5,117 144.5,83.26 144.5,49.48 117,22 83.26,22 Z m 0,119.7 c -32.23,0 -58.45,-26.2 -58.45,-58.44 0,-32.23 26.22,-58.45 58.45,-58.45 32.24,0 58.44,26.22 58.44,58.45 0,32.24 -26.2,58.44 -58.44,58.44 z M 129.4,58.05 c 0.2,1.67 0.3,3.47 0.3,5.4 0,5.33 -1,11.33 -4,18.82 l -16,46.43 c 15.6,-9.1 26.1,-26 26.1,-45.44 0,-9.14 -2.3,-17.73 -6.4,-25.21 z M 84.18,87.86 68.42,133.7 c 4.7,1.4 9.68,2.1 14.84,2.1 6.12,0 11.99,-1 17.44,-3 -0.1,-0.2 -0.3,-0.4 -0.4,-0.7 z m 34.52,-7.25 c 0,-6.5 -2.3,-11 -4.3,-14.5 -2.7,-4.33 -5.2,-7.99 -5.2,-12.32 0,-4.83 3.7,-9.33 8.9,-9.33 0.2,0 0.4,0 0.7,0 -9.4,-8.52 -21.86,-13.75 -35.54,-13.75 -18.36,0 -34.51,9.42 -43.91,23.69 1.23,0 2.4,0.1 3.38,0.1 5.5,0 14.01,-0.67 14.01,-0.67 2.83,-0.17 3.17,4 0.34,4.33 0,0 -2.85,0.34 -6.02,0.5 L 70.2,115.5 81.7,81.05 73.51,58.62 C 70.68,58.45 68,58.12 68,58.12 c -2.83,-0.17 -2.5,-4.5 0.33,-4.33 0,0 8.68,0.67 13.85,0.67 5.49,0 14,-0.67 14,-0.67 2.84,-0.17 3.17,3.99 0.34,4.33 0,0 -2.85,0.33 -6.02,0.5 l 19,56.48 5.2,-17.5 c 2.3,-7.27 4,-12.49 4,-16.99 z m -87.99,2.65 c 0,20.84 12.09,38.74 29.62,47.34 L 35.26,61.87 c -2.92,6.54 -4.55,13.77 -4.55,21.39 z M 547.5,111.3 c -4.7,0 -8.9,-2.5 -10.7,-4 -0.6,0.6 -1.6,2.4 -1.9,4 h -2.2 V 94.93 h 2.3 c 1,7.87 6.5,12.47 13.5,12.47 3.8,0 6.9,-2.1 6.9,-5.7 0,-3.09 -2.8,-5.47 -7.6,-7.72 L 541,90.77 c -4.8,-2.26 -8.3,-6.17 -8.3,-11.4 0,-5.7 5.3,-10.57 12.7,-10.57 3.9,0 7.2,1.43 9.2,3.09 0.6,-0.47 1.2,-1.78 1.6,-3.21 h 2.2 V 82.7 h -2.5 c -0.8,-5.59 -3.9,-10.22 -10.2,-10.22 -3.3,0 -6.4,1.9 -6.4,4.87 0,3.09 2.5,4.75 8.2,7.37 l 6.5,3.2 c 5.7,2.73 8,7.13 8,10.69 0,7.49 -6.5,12.69 -14.5,12.69 z m -36.6,0 c -4.7,0 -8.9,-2.5 -10.6,-4 -0.6,0.6 -1.7,2.4 -1.9,4 h -2.3 V 94.93 h 2.4 c 0.9,7.87 6.4,12.47 13.4,12.47 3.8,0 6.9,-2.1 6.9,-5.7 0,-3.09 -2.8,-5.47 -7.6,-7.72 l -6.8,-3.21 c -4.7,-2.26 -8.3,-6.17 -8.3,-11.4 0,-5.7 5.3,-10.57 12.7,-10.57 3.9,0 7.2,1.43 9.3,3.09 0.6,-0.47 1.2,-1.78 1.5,-3.21 h 2.3 V 82.7 h -2.5 c -0.9,-5.59 -3.9,-10.22 -10.2,-10.22 -3.4,0 -6.5,1.9 -6.5,4.87 0,3.09 2.5,4.75 8.2,7.37 l 6.6,3.2 c 5.7,2.73 7.9,7.13 7.9,10.69 0,7.49 -6.5,12.69 -14.5,12.69 z m -24.1,-12.69 -0.6,2.09 c -1,4 -2.3,5.4 -10.8,5.4 h -1.6 c -6.2,0 -7.3,-1.4 -7.3,-9.87 v -5.46 c 9.3,0 10,0.83 10,7.01 h 2.3 v -17.7 h -2.3 c 0,6.18 -0.7,7.01 -10,7.01 v -13.3 h 6.6 c 8.4,0 9.7,1.42 10.8,5.34 l 0.6,2.26 h 1.9 l -0.9,-11.16 h -34.9 v 2.25 c 6.7,0 7.7,1.43 7.7,9.86 v 15.2 c 0,7.76 -0.9,9.66 -6.1,9.96 -5,-0.8 -8.4,-3.5 -13.1,-8.65 l -5.5,-5.94 c 7.4,-1.31 11.3,-5.94 11.3,-11.16 0,-6.53 -5.6,-11.52 -16,-11.52 H 408 v 2.25 c 6.6,0 7.7,1.43 7.7,9.86 v 15.2 c 0,8.46 -1.1,9.96 -7.7,9.96 v 2.3 h 23.6 v -2.3 c -6.6,0 -7.7,-1.5 -7.7,-9.96 v -4.27 h 2 l 13.2,16.53 h 48.8 l 0.7,-11.19 z M 423.9,89.58 V 73.79 h 4.9 c 5.3,0 7.7,3.68 7.7,7.96 0,4.15 -2.4,7.83 -7.7,7.83 z m -35,17.82 v 2.4 h -27.2 v -2.4 c 7.9,0 9.4,-2 9.4,-13.9 v -19 c 0,-11.87 -1.5,-13.77 -9.4,-13.77 v -2.38 h 24.6 c 12.2,0 19,6.29 19,14.73 0,8.19 -6.8,14.6 -19,14.6 h -6.8 v 5.82 c 0,11.9 1.4,13.9 9.4,13.9 z m -2.6,-44.77 h -6.8 v 20.66 h 6.8 c 6.6,0 9.7,-4.63 9.7,-10.21 0,-5.7 -3.1,-10.45 -9.7,-10.45 z M 243.8,111.3 c -13.1,0 -23.8,-9.6 -23.8,-21.36 0,-11.64 10.7,-21.26 23.8,-21.26 13,0 23.7,9.62 23.7,21.26 0,11.76 -10.7,21.36 -23.7,21.36 z m 0,-38.93 c -11,0 -14.8,9.85 -14.8,17.57 0,7.84 3.8,17.56 14.8,17.56 11,0 14.8,-9.72 14.8,-17.56 0,-7.72 -3.8,-17.57 -14.8,-17.57 z m -40.4,21.61 8.2,-24.23 c 2.3,-7.01 1.3,-9.02 -6.3,-9.02 v -2.38 h 22.3 v 2.38 c -7.5,0 -9.3,1.78 -12.2,10.45 l -13.6,40.62 h -1.5 L 188.2,74.62 175.8,111.8 h -1.5 L 161.1,71.18 c -2.8,-8.67 -4.7,-10.45 -11.6,-10.45 v -2.38 h 26.3 v 2.38 c -7,0 -8.9,1.66 -6.4,9.02 l 8,24.23 12,-35.63 h 2.2 z M 335.2,70.23 h -21.3 v 2.25 c 6.7,0 7.8,1.43 7.8,9.86 v 15.2 c 0,8.46 -1.1,9.96 -7.8,9.96 -5.1,-0.7 -8.5,-3.4 -13.3,-8.65 l -5.4,-5.94 c 7.3,-1.31 11.3,-5.94 11.3,-11.16 0,-6.53 -5.6,-11.52 -16.1,-11.52 h -20.9 v 2.25 c 6.7,0 7.7,1.43 7.7,9.86 v 15.2 c 0,8.46 -1,9.96 -7.7,9.96 v 2.3 h 23.7 v -2.3 c -6.7,0 -7.8,-1.5 -7.8,-9.96 v -4.27 h 2.1 l 13.1,16.53 h 34.6 c 17,0 24.3,-9 24.3,-19.86 0,-10.81 -7.3,-19.71 -24.3,-19.71 z M 285.4,89.58 V 73.79 h 4.9 c 5.3,0 7.7,3.68 7.7,7.96 0,4.15 -2.4,7.83 -7.7,7.83 z m 50.1,16.52 h -0.8 c -4.3,0 -4.9,-1.1 -4.9,-6.54 V 73.79 c 0,0 5.3,0 5.7,0 12.4,0 14.7,9.02 14.7,16.03 0,7.24 -2.3,16.28 -14.7,16.28 z"></path></svg>