<?xml version="1.0"?>

<svg xmlns="http://www.w3.org/2000/svg" viewBox="0 0 534.2 123.5" height="123.5" width="534.2">
   
  <path d="m 115.8,23.2 c -6,0 -10,4.3 -11.5,10.9 C 102.5,42.8 96.91,70.9 96.45,72 96.1,71.4 87.43,38.5 86.67,35.3 85.75,31.8 83.7,28.1 75.5,28.1 c -8.8,0 -10.9,4 -11.7,7.2 -0.7,3.2 -9,35.3 -9.6,37 -0.5,-1.7 -7.1,-33.8 -8,-37.9 -1.4,-6.6 -5.7,-11.2 -11.6,-11.2 -6.4,0 -10.5,3.1 -12.6,6 l 17.8,63.9 c 1.8,6.1 5.7,7.8 12.6,7.8 5.7,0 10.2,-1.1 12,-7.8 0,-0.3 10.2,-38.1 10.5,-39 0.3,0.9 10.73,39 10.73,39 1.83,6.1 5.79,7.8 12.41,7.8 7.36,0 11.06,-2 12.56,-7.8 l 17.2,-63.9 c -2.2,-3.7 -6.4,-6 -12,-6 z m 49.4,36.7 -12.3,0 0,-20.6 12,0 c 9,0 13.9,3.5 13.9,10.2 0,6.9 -5.4,10.4 -13.6,10.4 z m 16.4,11.8 c 10.7,-3.2 17.3,-11.8 17.3,-22.5 0,-10.7 -6.4,-26 -31.1,-26 l -23.6,0 c -3.5,0 -6.6,0.8 -8.3,2.8 -1.8,2.1 -2.7,5 -2.7,9 l 0,56.4 c 0,3.2 0.7,5.5 2.1,7.2 1.4,1.5 3.6,2.3 6.6,2.3 l 2.8,0 c 3,0 5.2,-0.8 6.6,-2.3 1.4,-1.7 2.1,-4 2.1,-7.2 l 0,-15.9 7.5,0 c 0,0 11.1,14.4 14.7,18.8 3.6,4.6 6.9,6.6 12.8,6.6 6.6,0 10.8,-3.2 12.2,-5.8 l -19,-23.4 z m 38.7,-48.5 -2.7,0 c -6,0 -8.6,2.8 -8.6,9.2 l 0,59.3 c 0,6.3 2.6,9.2 8.3,9.2 l 3,0 c 5.9,0 8.5,-2.9 8.5,-9.2 l 0,-59.3 c 0,-6.4 -2.6,-9.2 -8.5,-9.2 z m 89.4,37 -31,0 c -0.5,0.8 -1.2,2.6 -1.2,5.5 0,4.6 2.4,9.2 8.2,9.2 l 6.6,0 c -1.8,5.8 -7.2,9.8 -14.5,9.8 -11.2,0 -18.7,-8.6 -18.7,-21.4 0,-12.4 7.9,-24.5 22.9,-24.5 8.2,0 14.3,3.2 18.7,8.9 7.2,-1.4 10.4,-4.3 10.4,-8.9 C 311.1,31 302,22 280.5,22 c -29.8,0 -42,22.8 -42,41.3 0,21.4 13.2,38.2 37.8,38.2 10.1,0 19.4,-4.9 24.5,-13.3 l 0,4.3 c 0,5 3.9,8.4 9.9,8.4 2.6,0 4.9,-0.8 5.5,-1.1 l 0,-33.6 c 0,-5.5 -3.1,-6 -6.5,-6 z m 60,23.7 -23.2,0 0,-51.5 c 0,-6.4 -2.6,-9.2 -8.6,-9.2 l -2.6,0 c -6.1,0 -8.7,2.8 -8.7,9.2 l 0,57 c 0,4 0.9,6.6 2.9,8.6 1.7,1.8 4.6,2.9 8.1,2.9 l 32.1,0 c 6.3,0 9.2,-2.9 9.2,-8.6 l 0,-0.6 c 0,-5.5 -2.9,-7.8 -9.2,-7.8 z m 63,0.3 -29.5,0 0,-14.2 19.7,0 c 3.4,0 5.8,-0.9 7.2,-2 1.4,-1.5 2,-3.2 2,-5.8 l 0,-0.6 c 0,-2.3 -0.6,-4.3 -2,-5.5 -1.2,-1.1 -3.8,-1.7 -7.2,-1.7 l -19.7,0 0,-14.2 23.4,0 c 3.2,0 5.8,-0.6 7.3,-2 1.1,-1.2 2,-3.2 2,-6.1 l 0,-0.8 c 0,-2.4 -0.9,-4.7 -2,-5.8 -1.5,-1.5 -4.1,-2.3 -7.3,-2.3 l -32.6,0 c -3.5,0 -6.1,1.1 -7.8,2.9 -1.8,2 -2.6,4.9 -2.6,8.9 l 0,54.4 c 0,4 0.8,6.9 2.6,8.6 1.7,2.1 4.3,2.9 7.8,2.9 l 38.7,0 c 3.5,0 5.8,-0.8 7.2,-2.3 1.2,-1.4 2,-3.5 2,-6.3 0,-2.9 -0.5,-4.7 -2,-6.1 -1.4,-1.5 -3.7,-2 -7.2,-2 z m 68.8,-61 c -4.9,0 -8.4,2.6 -11,7.8 -2.3,4 -12.4,24 -12.7,25.1 -0.6,-1.1 -10.7,-21.7 -12.4,-25.4 -2.3,-4.7 -6.1,-7.5 -11.9,-7.5 -6.9,0 -11.3,3.4 -13,5.7 l 26,44 0,18.8 c 0,6.3 2.6,9.2 8.7,9.2 l 2.6,0 c 5.8,0 8.4,-2.9 8.4,-9.2 l 0,-18.8 26,-43.4 c -1.7,-3.5 -4.9,-6.3 -10.7,-6.3"></path>
   
</svg>
