<?xml version="1.0"?>

<svg xmlns="http://www.w3.org/2000/svg" viewBox="0 0 484 203" width="484" height="203">
  <path d="m 201.83,127.22 -10.32,-19.79 -10.55,19.79 H 169.62 L 185.7,101.68 171.23,76.288 h 11.5 l 9.39,19.29 10.18,-19.29 h 10.52 l -14.87,25.232 15.11,25.7 z m 36.79,0 v -5.54 h -0.16 c -2.8,4.35 -6.77,6.53 -11.9,6.53 -3.95,0 -7.06,-1.08 -9.34,-3.23 -2.28,-2.17 -3.42,-5.08 -3.42,-8.72 0,-7.82 4.39,-12.26 13.16,-13.33 l 11.73,-1.62 c 0,-5.474 -2.53,-8.213 -7.61,-8.213 -4.84,0 -9.29,1.494 -13.35,4.483 v -8.021 c 1.52,-0.918 3.69,-1.743 6.52,-2.477 2.85,-0.734 5.44,-1.101 7.77,-1.101 10.36,0 15.55,5.242 15.55,15.729 v 25.51 z m -8.6,-18.44 c -2.7,0.35 -4.6,1.01 -5.7,2.01 -1.07,0.97 -1.6,2.48 -1.6,4.52 0,1.68 0.61,3.06 1.84,4.13 1.23,1.05 2.84,1.57 4.83,1.57 2.7,0 4.92,-0.93 6.67,-2.79 1.76,-1.86 2.63,-4.18 2.63,-6.96 v -3.62 z m 75.43,18.44 V 104.5 c 0,-3.75 -0.59,-6.527 -1.76,-8.336 -1.16,-1.835 -3.22,-2.752 -6.21,-2.752 -2.38,0 -4.38,1.101 -6,3.303 -1.63,2.175 -2.44,4.805 -2.44,7.905 v 22.6 h -9.07 v -23.51 c 0,-6.864 -2.63,-10.298 -7.89,-10.298 -2.46,0 -4.49,1.035 -6.08,3.106 -1.57,2.071 -2.36,4.772 -2.36,8.102 v 22.6 h -9.07 V 86.964 h 9.07 v 6.212 h 0.16 c 2.9,-4.797 7.14,-7.195 12.72,-7.195 2.67,0 5.02,0.708 7.06,2.123 2.07,1.389 3.52,3.316 4.36,5.78 3.06,-5.269 7.57,-7.903 13.51,-7.903 8.74,0 13.11,5.452 13.11,16.359 v 24.88 z m 39.26,0 v -5.54 h -0.16 c -2.8,4.35 -6.76,6.53 -11.89,6.53 -3.95,0 -7.07,-1.08 -9.35,-3.23 -2.27,-2.17 -3.41,-5.08 -3.41,-8.72 0,-7.82 4.38,-12.26 13.15,-13.33 l 11.74,-1.62 c 0,-5.474 -2.54,-8.213 -7.62,-8.213 -4.84,0 -9.29,1.494 -13.35,4.483 v -8.021 c 1.52,-0.918 3.69,-1.743 6.52,-2.477 2.85,-0.734 5.45,-1.101 7.78,-1.101 10.36,0 15.54,5.242 15.54,15.729 v 25.51 z m -8.6,-18.44 c -2.69,0.35 -4.59,1.01 -5.69,2.01 -1.07,0.97 -1.61,2.48 -1.61,4.52 0,1.68 0.62,3.06 1.85,4.13 1.23,1.05 2.84,1.57 4.82,1.57 2.7,0 4.93,-0.93 6.68,-2.79 1.75,-1.86 2.63,-4.18 2.63,-6.96 v -3.62 z m 47.93,-12.97 c -1.49,-0.917 -3.24,-1.376 -5.26,-1.376 -2.62,0 -4.75,1.127 -6.4,3.381 -1.62,2.255 -2.43,5.195 -2.43,8.805 v 20.6 h -9.07 V 86.964 h 9.07 v 7.824 h 0.15 c 1.94,-5.688 5.37,-8.532 10.29,-8.532 1.6,0 2.81,0.184 3.65,0.551 z m 9.03,-17.85 c -1.54,0 -2.85,-0.498 -3.93,-1.494 -1.07,-1.022 -1.61,-2.267 -1.61,-3.735 0,-1.52 0.54,-2.791 1.61,-3.814 1.08,-1.022 2.39,-1.533 3.93,-1.533 1.57,0 2.89,0.524 3.97,1.573 1.07,1.022 1.6,2.28 1.6,3.774 0,1.468 -0.53,2.713 -1.6,3.735 -1.08,0.996 -2.4,1.494 -3.97,1.494 z m -4.63,49.26 V 86.964 h 9.07 v 40.256 z m 43.34,0 v -22.6 c 0,-7.473 -2.68,-11.208 -8.05,-11.208 -2.69,0 -4.96,1.035 -6.79,3.106 -1.8,2.044 -2.71,4.652 -2.71,7.822 v 22.88 h -9.07 V 86.964 h 9.07 v 6.448 h 0.16 c 2.93,-4.954 7.28,-7.431 13.03,-7.431 8.96,0 13.43,5.504 13.43,16.509 v 24.73 z M 71.431,56 c -2.755,0 -5.451,1.574 -6.838,3.966 L 43.024,97.534 c -1.365,2.399 -1.365,5.536 0,7.936 l 21.569,37.56 c 1.387,2.4 4.083,3.96 6.838,3.97 h 43.139 c 2.75,0 5.45,-1.57 6.84,-3.97 l 21.57,-37.56 c 1.36,-2.4 1.36,-5.537 0,-7.936 L 121.41,59.966 C 120.02,57.574 117.32,56.005 114.57,56 Z m 0.392,21.978 c 0.06,0 0.121,0 0.18,0 h 7.441 c 0.329,0 0.649,0.198 0.813,0.484 L 92.88,101.02 c 0.06,0.11 0.104,0.23 0.12,0.36 0.02,-0.13 0.06,-0.25 0.12,-0.36 l 12.59,-22.558 c 0.17,-0.295 0.51,-0.487 0.84,-0.484 H 114 c 0.65,0 1.15,0.838 0.84,1.423 l -12.32,22.099 12.32,22.07 c 0.34,0.59 -0.17,1.46 -0.84,1.45 h -7.45 c -0.34,0 -0.68,-0.21 -0.84,-0.51 L 93.12,101.95 c -0.06,-0.11 -0.105,-0.23 -0.12,-0.36 -0.02,0.13 -0.06,0.25 -0.12,0.36 l -12.623,22.56 c -0.157,0.3 -0.478,0.5 -0.813,0.51 h -7.441 c -0.676,0 -1.181,-0.86 -0.843,-1.45 L 83.481,101.5 71.16,79.401 c -0.295,-0.534 0.06,-1.309 0.663,-1.423 z"></path>
</svg>
