<?xml version="1.0"?>

<svg xmlns:dc="http://purl.org/dc/elements/1.1/" xmlns:cc="http://creativecommons.org/ns#" xmlns:rdf="http://www.w3.org/1999/02/22-rdf-syntax-ns#" xmlns:svg="http://www.w3.org/2000/svg" xmlns="http://www.w3.org/2000/svg" viewBox="0 0 365.8 164" id="svg6797" height="164" width="365.8" version="1.1">
  <defs id="defs6799">
    <linearGradient spreadMethod="pad" gradientTransform="matrix(43.08,-29.89,-29.89,-43.08,263.7,253.3)" gradientUnits="userSpaceOnUse" id="linearGradient238" y2="0" x2="1" y1="0" x1="0">
      <stop offset="0" style="stop-color:#870e12;stop-opacity:1" id="stop240"></stop>
      <stop offset="0.1" style="stop-color:#ba151b;stop-opacity:1" id="stop242"></stop>
      <stop offset="0.25" style="stop-color:#ed1c24;stop-opacity:1" id="stop244"></stop>
      <stop offset="0.75" style="stop-color:#ba151b;stop-opacity:1" id="stop246"></stop>
      <stop offset="1" style="stop-color:#730b0e;stop-opacity:1" id="stop248"></stop>
    </linearGradient>
  </defs>
  <metadata id="metadata6802">
    <rdf:rdf>
      <cc:work rdf:about="">
        <dc:format>image/svg+xml</dc:format>
        <dc:type rdf:resource="http://purl.org/dc/dcmitype/StillImage"></dc:type>
        <cc:license rdf:resource=""></cc:license>
        <dc:title></dc:title>
      </cc:work>
    </rdf:rdf>
  </metadata>
  <path d="m 322.8,107.7 c 0.9,0 1.4,-0.4 1.4,-1.1 v 0 c 0,-0.7 -0.5,-1.1 -1.4,-1.1 h -1.7 v 2.2 z m -3.1,-3.4 h 3.2 c 0.9,0 1.6,0.3 2.1,0.7 0.4,0.4 0.6,0.9 0.6,1.5 v 0 c 0,1.1 -0.7,1.8 -1.7,2.1 l 1.9,2.7 h -1.6 l -1.7,-2.5 h -1.4 v 2.5 h -1.4 z m 8.7,3.7 v 0 c 0,-3.3 -2.5,-6 -6,-6 -3.4,0 -6,2.7 -6,6 v 0 c 0,3.3 2.6,6 6,6 3.4,0 6,-2.7 6,-6 z m -12.7,0 v 0 c 0,-3.7 3,-6.7 6.7,-6.7 3.8,0 6.7,3 6.7,6.6 v 0 c 0,3.7 -2.9,6.8 -6.7,6.8 -3.8,0 -6.7,-3.1 -6.7,-6.7 M 66.97,82.01 86.37,54.83 H 72.3 L 60.17,71.82 48.53,54.83 H 34.46 L 53.38,82.01 33,111.1 H 47.07 L 60.17,91.71 87.83,131 H 101.4 Z M 332.8,54.83 H 319.7 L 299.8,90.74 286.7,54.83 h -13.1 l 19,48.97 L 278,131 h 13.1 z m -234.78,0 h -5.34 l -6.79,9.22 H 98.02 V 111.1 H 110.6 V 64.05 h 12.6 v -9.22 h -12.6 v -5.82 c 0,-3.88 1.5,-5.82 5.9,-5.82 2.4,0 4.8,0.48 6.7,0.97 v -9.7 C 120.3,33.49 116.9,33 113.1,33 103.8,33 98.02,38.82 98.02,49.5 Z M 246,64.05 v 31.54 c 0,10.21 5.3,16.51 15,16.51 2.9,0 5.8,-0.5 8.3,-1 l 1.4,-9.7 c -0.5,0 -2.9,0.5 -5.3,0.5 -5.3,0 -7.3,-1.94 -7.3,-6.79 V 64.05 h 14.1 l -3.4,-9.22 H 258.1 V 34.46 L 246,40.28 v 14.55 h -9.2 v 9.22 z M 182.9,53.38 c -5.8,0 -11.2,2.42 -14.1,6.31 v -4.86 h -12.6 v 56.27 h 12.6 V 78.12 c 0,-9.21 3.9,-14.07 11.2,-14.07 7.8,0 11.2,4.37 11.2,15.04 v 32.01 h 12.1 V 78.61 c 0,-16.5 -7.3,-25.23 -20.4,-25.23 z M 143.1,107.7 V 54.83 H 131 v 56.27 h 12.1 z m 84.9,0 V 54.83 H 215.9 V 111.1 H 228 v -3.4" style="fill-opacity:1;fill-rule:nonzero;stroke:none;stroke-width:4.852" id="path254"></path>
</svg>
