<?xml version="1.0"?>

<svg xmlns="http://www.w3.org/2000/svg" viewBox="0 0 220 220" width="220" height="220">
    <path d="m 194.25,177.38 c 0,-1.59 0,-3.33 -0.29,-5.11 -0.97,-5.54 -5.35,-8.68 -10.8,-8.68 -7.14,0 -11.96,4.58 -11.96,11.67 0,7.52 4.2,12.24 12.1,12.24 5.16,0 9.6,-2.22 10.66,-7.66 h -6.03 c -0.62,2.41 -2.22,3.33 -4.43,3.33 -3.57,0 -5.65,-2.23 -5.65,-5.79 z m -16.4,-4.1 c 0,-3.03 1.79,-5.35 5.02,-5.35 3.33,0 4.96,2.12 4.96,5.35 z m -28.1,2.03 c 0,-3.57 1.5,-7.04 5.55,-7.04 4,0 5.4,3.32 5.4,6.8 0,3.66 -1.54,6.84 -5.5,6.84 -3.62,0 -5.45,-3.13 -5.45,-6.6 m 20.11,-11.05 h -8.97 v 3.48 h -0.1 c -1.54,-2.37 -3.76,-4.05 -7.37,-4.05 -7.28,0 -10.32,5.2 -10.32,11.86 0,5.74 3.57,10.94 9.64,10.94 3.91,0 5.45,-0.96 7.57,-3.28 v 2.56 c 0,2.84 -2.02,5.59 -4.87,5.59 -2.07,0 -4,-0.38 -4.19,-3.13 h -7 c 0.34,5.35 3.86,7.47 10.52,7.47 9.06,0 11.95,-5.2 11.95,-10.95 V 168.6 h 3.14 z m -29.95,13.12 c 0,-1.59 0,-3.33 -0.29,-5.11 -0.96,-5.54 -5.35,-8.68 -10.8,-8.68 -7.14,0 -11.96,4.58 -11.96,11.67 0,7.52 4.2,12.24 12.1,12.24 5.16,0 9.6,-2.22 10.66,-7.66 h -6.03 c -0.62,2.41 -2.21,3.33 -4.43,3.33 -3.57,0 -5.64,-2.23 -5.64,-5.79 z m -16.39,-4.1 c 0,-3.03 1.78,-5.35 5.01,-5.35 3.33,0 4.97,2.12 4.97,5.35 z m -20.51,13.55 h 12.68 v -4.34 h -3.13 v -28.71 h -9.55 v 4.34 h 3.14 v 24.37 h -3.14 z m -14.38,0 h 12.68 v -4.34 h -3.14 v -28.71 h -9.54 v 4.34 h 3.13 v 24.37 H 88.63 Z M 75.64,163.59 c -7.09,0 -12.4,4.44 -12.4,11.96 0,7.52 4.97,11.95 12.06,11.95 7.08,0 12.05,-4.43 12.05,-11.95 0,-7.52 -4.63,-11.96 -11.71,-11.96 m -5.74,11.96 c 0,-3.57 1.3,-7.38 5.4,-7.38 4.09,0 5.4,3.81 5.4,7.38 0,3.57 -1.31,7.37 -5.4,7.37 -4.1,0 -5.4,-3.8 -5.4,-7.37 M 60.5,155.3 h -6.03 v 3.66 l -0.1,-0.1 c -2.13,-3.19 -5.26,-4.25 -9.02,-4.25 -10.08,0 -15.05,7.04 -15.05,16.69 0,9.15 5.36,16.19 16.45,16.19 6.22,0 13.69,-2.75 13.83,-11.56 h -6.41 c -0.14,4.14 -3.28,6.98 -7.18,6.98 -6.7,0 -9.65,-5.01 -9.65,-11.08 0,-6.27 2.08,-12.64 9.17,-12.64 4.68,0 7.9,2.99 7.95,7.76 h 6.03 z m 0,0 m 117.47,-7.68 c -6.32,0 -12.12,-1.48 -15.44,-6.09 v 4.92 h -8.9 v -17.73 h 9.33 c 0,7.53 3.66,12.1 12.21,12.1 4.58,0 9.52,-2.84 9.52,-7.43 0,-8.04 -6.8,-9.56 -14,-11.17 -8.26,-1.84 -16.81,-3.76 -16.81,-15.55 0,-9.61 6.7,-15.58 17.49,-15.58 4.64,0 10.32,1.1 13.82,5.9 v -4.73 h 8.91 v 16.39 h -9.35 c 0,-6.51 -3.82,-10.76 -11.27,-10.76 -5.74,0 -9.17,2.81 -9.17,7.52 0,5.77 6.11,7.26 12.59,8.84 8.74,2.12 18.63,4.54 18.63,17.2 0,9.53 -7.22,16.17 -17.57,16.17 m -55.8,0 c -22.65,0 -24.42,-15.2 -24.42,-19.86 V 99.49 h -5.59 v -7.23 h 24.93 v 7.23 h -7.95 v 24.93 c 0,3.23 0,9.26 3.78,12.89 2.16,2.05 5.27,3.09 9.25,3.09 3.51,0 6.27,-0.94 8.19,-2.79 3.57,-3.45 3.45,-9.17 3.38,-12.6 0,-0.41 0,-0.78 0,-1.12 v -24.4 h -7.95 v -7.23 h 24.37 v 7.23 h -6.18 v 28.27 c 0,11.7 -8.97,19.86 -21.79,19.86 M 69.05,146.45 47.88,102.98 v 36.25 h 7.04 v 7.22 H 30.9 v -7.22 h 7.04 V 99.49 H 30.9 v -7.23 h 21.75 l 21.44,43.33 v -36.1 h -7.03 v -7.23 h 22.45 v 7.23 h -5.47 v 46.96 z m 0,0 M 174.37,84.48 c -14.15,0 -22.26,-8.21 -22.26,-22.53 0,-13.03 8.63,-21.45 21.99,-21.45 10.53,0 18.12,6.1 19.83,15.92 0.51,3.15 0.54,6.29 0.54,9.1 h -30.7 v 0.4 c 0,7.04 4.09,11.24 10.96,11.24 4.6,0 7.42,-2.04 8.61,-6.23 h 10.49 c -1.89,8.62 -8.95,13.55 -19.46,13.55 m -0.81,-36.66 c -5.95,0 -9.79,4.09 -9.79,10.43 v 0.4 h 19.49 v -0.4 c 0,-6.63 -3.54,-10.43 -9.7,-10.43 M 94.01,84.47 c -6.6,0 -14.32,-3.44 -14.32,-13.14 0,-13.87 14.49,-13.87 24.08,-13.87 h 4.64 v -3.65 c 0,-4.52 -2.95,-6.9 -8.53,-6.9 -5.05,0 -7.84,2.3 -8.31,6.85 H 81.08 C 82.02,42 92.32,40.48 101.24,40.48 c 12.87,0 17.66,4.91 17.66,18.11 v 17.29 h 3.78 v 7.33 h -14.09 v -6.14 0 l -0.12,0.18 c -3.47,5.33 -7.82,7.22 -14.44,7.22 m 8.22,-20.59 c -5.61,0 -12.05,0.81 -12.05,7.08 0,3.88 2.55,6.18 6.81,6.18 3.28,0 6.08,-1.09 8.1,-3.15 2.24,-2.3 3.41,-5.75 3.32,-9.72 v -0.39 z m 22.92,19.34 v -7.33 h 5.55 V 31.63 h -5.86 V 24.3 h 17.08 v 51.59 h 5.87 v 7.33 z M 51.98,24.95 v 8.01 H 43.97 L 56.9,52.46 69.93,32.96 H 61.91 V 24.95 H 89.8 v 8.01 H 81.78 L 61.54,62.35 v 13.08 h 8.58 v 7.78 H 41.83 V 75.43 H 50.4 V 62.35 L 30.26,32.96 H 22 v -8.01 z m 0,0"></path>
</svg>
