<?xml version="1.0"?>

<svg xmlns="http://www.w3.org/2000/svg" viewBox="0 0 315 115.1" height="115.1" width="315"> <path d="m 100.8,67.2 0,-7 12.5,0 0,-1.5 1.5,0 0,1.5 0,2.3 0,3.6 0,1.1 0,1.7 0,1.1 0,5.1 0,0.8 0,1.5 0,1.7 0,4.7 0,0.6 0,1.7 0,1.7 0,5.3 -92.8,0 0,-5.9 0,-0.8 0,-1.7 0,-1.3 0,-4.2 0,-1.5 0,-1.9 0,-0.6 0,-4.9 0,-1.3 0,-1.7 0,-1.1 0,-3.5 0,-2.3 0,-1.7 1.5,0 0,1.7 3.4,0 4,6.8 -7.4,0 0,1.7 8.5,0 3.8,6.8 -12.3,0 0,1.9 13.6,0 0,7 -13.6,0 0,1.7 13.6,0 0,5.7 12.3,-0.2 0,-5.7 15.9,0 0,5.7 12.5,0 0,-5.7 10.8,0 0,5.9 21.4,-0.2 0,-5.7 3.4,0 0,-1.7 -12.5,0 0,-6.8 12.5,-0.2 0,-1.5 -12.5,0 0,-7 12.5,0 0,-1.7 -12.6,0 0,0 z m -51.5,10.4 15.9,0 0,7 -15.9,0 0,-7 0,0 z m 28.4,0 10.8,0 0,7 -10.8,0 0,-7 0,0 z m 0,-8.7 10.8,0 0,7 -10.8,0 0,-7 0,0 z m -12.5,7 -14.8,0 4,-7 10.8,0 0,7 0,0 z m -6,-8.7 -4,0 4,-6.8 0,6.8 0,0 z m 29.3,0 -4.7,0 0,-6.8 4.7,0 0,6.8 0,0 z m -45.6,0 -4,-6.8 8.5,0 -4.5,6.8 0,0 z m 61.3,-8.7 -9.1,0 0,-36.5 0,0 9.1,0 z m -10.6,0.2 -8.7,0 0,-36.7 0,0 8.7,0 z m -10.4,0 -8.9,0 0,-36.4 0,0 8.9,0 z m -10.6,0 -8.7,0 0,-36.4 0,0 8.7,0 z m -10.4,0 -8.7,0 0,-36.4 0,0 8.7,0 z m -10.4,0 -8.9,0 0,-36.4 0,0 8.9,0 z m -10.3,0 -8.9,0 0,-36.4 0,0 8.9,0 z m -10.6,0 -8.9,0 0,-36.4 0,0 8.9,0 z m 74.8,-36.7 9.1,0 0,36.7 0,0 -9.1,0 z m 187.1,58.8 -2.8,1.1 c -0.4,-1.3 -1.1,-1.9 -2.2,-1.9 -0.5,0 -0.9,0.1 -1.2,0.4 -0.3,0.3 -0.4,0.6 -0.4,1 0,0.4 0.2,0.8 0.5,1 0.3,0.3 1.1,0.6 2.1,1 1,0.4 1.8,0.7 2.3,1.1 0.6,0.4 1,0.9 1.4,1.5 0.3,0.6 0.5,1.3 0.5,2.2 0,1.4 -0.5,2.6 -1.5,3.5 -1,0.9 -2.3,1.4 -4,1.4 -2.8,0 -4.6,-1.4 -5.3,-4.2 l 3,-0.8 c 0.4,1.5 1.2,2.3 2.5,2.3 0.6,0 1.1,-0.2 1.4,-0.5 0.4,-0.3 0.5,-0.7 0.5,-1.2 0,-0.4 -0.1,-0.7 -0.4,-1 -0.3,-0.3 -0.8,-0.6 -1.8,-0.9 -1.2,-0.4 -2.1,-0.8 -2.6,-1.1 -0.6,-0.3 -1.1,-0.8 -1.4,-1.5 -0.4,-0.6 -0.6,-1.4 -0.6,-2.2 0,-1.4 0.4,-2.5 1.3,-3.4 0.9,-0.9 2.1,-1.3 3.5,-1.3 2.9,-0.1 4.5,1.1 5.2,3.5 z m -22.5,-3.4 3.8,0 4,9.5 0,-9.5 2.6,0 0,15.4 -3,0 -4.8,-11.1 0,11.1 -2.6,0 0,-15.4 z m -2.2,7.7 c 0,5.3 -1.9,7.9 -5.6,7.9 -1.8,0 -3.2,-0.7 -4.2,-2 -0.9,-1.3 -1.4,-3.3 -1.4,-5.9 0,-5.3 1.9,-7.9 5.6,-7.9 1.8,0 3.2,0.7 4.2,2 0.9,1.3 1.4,3.3 1.4,5.9 z m -3.6,0 c 0,-2.1 -0.2,-3.5 -0.5,-4.1 -0.3,-0.7 -0.8,-1 -1.5,-1 -0.7,0 -1.2,0.3 -1.5,1 -0.3,0.7 -0.5,2.1 -0.5,4.1 0,2 0.2,3.4 0.5,4.1 0.3,0.7 0.8,1.1 1.5,1.1 0.7,0 1.2,-0.3 1.5,-1 0.3,-0.7 0.5,-2.1 0.5,-4.2 z m -13.3,-7.7 3.4,0 0,15.4 -3.4,0 0,-15.4 z m -10.8,0 9.6,0 0,2.9 -3.1,0 0,12.5 -3.4,0 0,-12.5 -3.1,0 0,-2.9 z m -6.9,0 3.4,0 4.4,15.4 -3.5,0 -0.8,-3.2 -4.3,0 -0.8,3.2 -3,0 4.6,-15.4 z m 2.9,9.6 -1.5,-6.3 -1.5,6.3 3,0 z m -10.9,0.2 3.1,0.2 c -0.1,1.7 -0.6,3 -1.6,4.1 -0.9,1 -2.2,1.6 -3.8,1.6 -1.9,0 -3.3,-0.7 -4.3,-2.1 -1,-1.4 -1.5,-3.3 -1.5,-5.8 0,-2.5 0.5,-4.4 1.5,-5.8 1,-1.4 2.4,-2.1 4.4,-2.1 3.2,0 5,2 5.2,5.9 l -3.1,0.2 c -0.1,-2.3 -0.8,-3.4 -2.1,-3.4 -0.7,0 -1.3,0.4 -1.7,1.1 -0.4,0.7 -0.6,2.2 -0.6,4.3 0,1.9 0.2,3.2 0.6,3.9 0.4,0.7 1,1.1 1.7,1.1 1.2,-0.1 2,-1.2 2.2,-3.2 z m -13.8,-9.8 3.4,0 0,15.4 -3.4,0 0,-15.4 z m -13.1,0 3.8,0 4,9.5 0,-9.5 2.6,0 0,15.4 -3,0 -4.7,-11.1 0,11.1 -2.6,0 0,-15.4 z m -13.2,0 3.4,0 0,8.8 c 0,1.2 0.1,2.1 0.2,2.6 0.1,0.5 0.3,0.9 0.7,1.1 0.4,0.3 0.8,0.4 1.3,0.4 0.6,0 1,-0.1 1.3,-0.4 0.3,-0.3 0.5,-0.6 0.6,-1.1 0.1,-0.5 0.1,-1.3 0.1,-2.6 l 0,-8.8 2.8,0 0,8.6 c 0,1.7 -0.1,3 -0.3,3.9 -0.2,0.8 -0.7,1.6 -1.5,2.2 -0.8,0.6 -1.9,0.9 -3.4,0.9 -1.3,0 -2.4,-0.2 -3.2,-0.7 -0.8,-0.4 -1.3,-1.1 -1.6,-1.9 -0.3,-0.8 -0.5,-2.2 -0.5,-4.3 l 0,-8.7 z m -17.3,0 5,0 2.2,9.5 2.4,-9.5 4.8,0 0,15.4 -3.2,0 0,-12.9 -3.1,12.9 -2.5,0 -2.9,-12.9 0,12.9 -2.7,0 0,-15.4 z m -17.3,0 5,0 2.2,9.5 2.4,-9.5 4.8,0 0,15.4 -3.2,0 0,-12.9 -3.1,12.9 -2.5,0 -2.9,-12.9 0,12.9 -2.7,0 0,-15.4 z m -2.3,7.7 c 0,5.3 -1.9,7.9 -5.6,7.9 -1.8,0 -3.2,-0.7 -4.2,-2 -0.9,-1.3 -1.4,-3.3 -1.4,-5.9 0,-5.3 1.9,-7.9 5.6,-7.9 1.8,0 3.2,0.7 4.2,2 0.9,1.3 1.4,3.3 1.4,5.9 z m -3.6,0 c 0,-2.1 -0.2,-3.5 -0.5,-4.1 -0.3,-0.7 -0.8,-1 -1.5,-1 -0.7,0 -1.2,0.3 -1.5,1 -0.3,0.7 -0.5,2.1 -0.5,4.1 0,2 0.2,3.4 0.5,4.1 0.3,0.7 0.8,1.1 1.5,1.1 0.7,0 1.2,-0.3 1.5,-1 0.4,-0.7 0.5,-2.1 0.5,-4.2 z m -12.1,2.1 3.1,0.2 c -0.1,1.7 -0.6,3 -1.6,4.1 -0.9,1 -2.2,1.6 -3.8,1.6 -1.9,0 -3.3,-0.7 -4.3,-2.1 -1,-1.4 -1.5,-3.3 -1.5,-5.8 0,-2.5 0.5,-4.4 1.5,-5.8 1,-1.4 2.4,-2.1 4.4,-2.1 3.2,0 5,2 5.2,5.9 l -3.1,0.2 c -0.1,-2.3 -0.8,-3.4 -2.1,-3.4 -0.7,0 -1.3,0.4 -1.7,1.1 -0.4,0.7 -0.6,2.2 -0.6,4.3 0,1.9 0.2,3.2 0.6,3.9 0.4,0.7 1,1.1 1.7,1.1 1.2,-0.1 2,-1.2 2.2,-3.2 z"></path> </svg>