<?xml version="1.0"?>

<svg xmlns="http://www.w3.org/2000/svg" viewBox="0 0 223.2 158.1" width="223.2" height="158.1"> <path d="m 98.73,22.01 c -0.4,0 -0.7,0.1 -1.1,0.3 L 23.7,56.61 c -1.47,0.8 -2.11,2.6 -1.43,3.9 l 34.46,73.89 c 0.67,1.5 2.47,2.1 3.9,1.5 l 73.87,-34.4 c 1.5,-0.8 2.1,-2.39 1.4,-3.89 l -6.5,-14 -0.2,-12.4 c 0,-3.5 -0.1,-8.3 -0.4,-11.7 0.8,2.5 3.3,8.4 5.6,13.5 l 7,15.7 8.7,0 0,-41.1 -7.9,0 0.2,16.8 c 0.1,2.9 0.3,8.1 0.6,11.4 -0.8,-3 -2.4,-7.3 -4.5,-11.7 l -7.8,-16.5 -9.2,0 0,19 -20,-43 c -0.5,-1.1 -1.67,-1.7 -2.77,-1.6 z m -53.48,26.1 32.68,0 -21.5,31.9 22.2,0 0,-31.9 18.5,0 c 11.37,0 20.77,8.8 20.77,20.4 0,11.5 -9.5,20.5 -20.77,20.5 l -6.7,0 0,-9 4.7,0 c 6.27,0 11.67,-3.6 11.67,-11.5 0,-7.4 -4.8,-11.4 -11.57,-11.4 l -6,0 0,20.4 -7.8,11.5 -44.07,0 21.62,-31.9 -19.77,0 z m 149.15,1.2 -8,1.9 c -0.3,2.3 -0.3,4.4 -0.3,7.2 l -3.1,0 0,5.3 3.1,0 0,16.6 c 0,2.9 0,3.5 0.5,4.8 0.9,2.6 4.1,4.4 8.2,4.4 2.1,0 4.1,-0.5 6.4,-1.4 l -1,-4.8 c -1.4,0.5 -2.1,0.6 -2.8,0.6 -2.7,0 -3.5,-0.9 -3.5,-4.8 l 0,-15.4 5.1,0 2.1,-5.3 -7.2,0 c 0,-3.1 0.2,-6.3 0.5,-9.1 z m -26.9,8.5 c -4.1,0 -7.1,1.4 -9.6,4.2 -2.7,2.9 -3.8,6.5 -3.8,12 0,9.5 5.6,15.6 14.4,15.6 4.2,0 7.9,-1.3 11.4,-4.2 l -3.1,-4.8 c -2.4,2.1 -5,3.2 -7.7,3.2 -4.1,0 -6.4,-2.7 -6.4,-7.4 l 0,-0.3 17.6,0 0,-1.8 c 0,-6.3 -1.3,-10.5 -4.1,-13.2 -1.9,-2.1 -5.3,-3.3 -8.7,-3.3 z m 0.1,5.9 c 1.6,0 2.7,0.6 3.5,1.6 0.7,1.2 0.9,2.4 0.9,4.7 l 0,0.4 -9.2,0 0,-0.1 c 0,-4.4 1.7,-6.6 4.8,-6.6 z"></path> </svg>