<?xml version="1.0"?>
<!--?xml version="1.0" encoding="UTF-8" standalone="no"?-->
<svg xmlns="http://www.w3.org/2000/svg" viewBox="0 0 1023 507.55" height="507.55" width="1023"> <path d="m 760.88,495.55 c -17.75,0 -34.5,-13.79 -34.5,-34.43 V 46.475 c 0,-19.888 14.5,-34.425 34.5,-34.425 h 217 c 18.63,0 33.12,15.187 33.12,33.95 0,16.537 -12.49,33.412 -33.12,33.412 H 832.76 c -16.5,0 -30.63,14.8 -30.63,31.428 v 79.33 c 0,15.09 15.38,29.94 30.63,29.94 h 121.25 c 16,0 32.12,13.97 32.12,33.49 0,15.58 -12.37,33.88 -33.62,33.88 H 834.13 c -18.12,0 -32,15.67 -32,31.43 v 80.84 c 0,14.41 14.5,28.44 29.13,28.44 h 146.62 c 17.63,0 33.12,13.69 33.12,33.61 0,19.85 -15.37,33.75 -33.12,33.75 z m -221.37,-0.13 c -23.25,0 -37,-21.36 -37,-36.07 V 111.44 c 0,-17.103 -14.88,-32.078 -30.75,-32.078 h -59.75 c -18.63,0 -34.38,-14.124 -34.38,-33.412 0,-19.513 15.75,-33.95 34.38,-33.95 h 254.87 c 19.63,0 35.63,14.475 35.63,33.475 0,17.4 -13.87,33.887 -34.5,33.887 h -59.88 c -15,0 -30.74,15.225 -30.74,31.618 v 348.65 c 0,16.73 -14.38,35.85 -37.88,35.85 z M 352.13,461.07 v 1.49 c 0,19.06 -16.25,32.94 -32.87,32.94 H 45.325 C 25.574,495.5 12,479.45 12,462.46 12,449.81 16.675,445.11 26.387,429.7 L 224.44,118.69 c 3.9,-6.16 6.1,-11.11 6.1,-16.5 0,-12.228 -8.69,-22.828 -23.56,-22.828 H 61.788 C 38.788,79.237 27.812,60.35 27.812,45.95 27.812,26.05 43.987,12 61.788,12 H 317.76 c 20.25,0 35.12,15.375 35.12,32.762 0,10.65 -3.87,17.563 -9.62,25.825 L 139.93,389.75 c -3.22,4.64 -5.71,8.12 -5.71,15.69 0,10.09 6.41,22.75 23.38,22.75 h 161.66 c 20.37,0 32.87,17.28 32.87,32.94 z"></path></svg>